<?xml version="1.0" encoding="UTF-8" standalone="no"?>
<!DOCTYPE svg PUBLIC "-//W3C//DTD SVG 1.1//EN"
 "http://www.w3.org/Graphics/SVG/1.1/DTD/svg11.dtd">
<!-- Generated by graphviz version 2.40.1 (0)
 -->
<!-- Title: /home/tcbuilder/buildAgent/work/df8e8cce5bebfd58/libajacc/includes/ntv2captionencoder608.h Pages: 1 -->
<!--zoomable 554 -->
<svg id="main" version="1.1" xmlns="http://www.w3.org/2000/svg" xmlns:xlink="http://www.w3.org/1999/xlink" xml:space="preserve" onload="init(evt)">
<style type="text/css"><![CDATA[
.edge:hover path { stroke: red; }
.edge:hover polygon { stroke: red; fill: red; }
]]></style>
<script type="text/javascript"><![CDATA[
var edges = document.getElementsByTagName('g');
if (edges && edges.length) {
  for (var i=0;i<edges.length;i++) {
    if (edges[i].id.substr(0,4)=='edge') {
      edges[i].setAttribute('class','edge');
    }
  }
}
]]></script>
        <defs>
                <circle id="rim" cx="0" cy="0" r="7"/>
                <circle id="rim2" cx="0" cy="0" r="3.5"/>
                <g id="zoomPlus">
                        <use xlink:href="#rim" fill="#404040">
                                <set attributeName="fill" to="#808080" begin="zoomplus.mouseover" end="zoomplus.mouseout"/>
                        </use>
                        <path d="M-4,0h8M0,-4v8" fill="none" stroke="white" stroke-width="1.5" pointer-events="none"/>
                </g>
                <g id="zoomMin">
                        <use xlink:href="#rim" fill="#404040">
                                <set attributeName="fill" to="#808080" begin="zoomminus.mouseover" end="zoomminus.mouseout"/>
                        </use>
                        <path d="M-4,0h8" fill="none" stroke="white" stroke-width="1.5" pointer-events="none"/>
                </g>
                <g id="dirArrow">
                        <path fill="none" stroke="white" stroke-width="1.5" d="M0,-3.0v7 M-2.5,-0.5L0,-3.0L2.5,-0.5"/>
                </g>
               <g id="resetDef">
                       <use xlink:href="#rim2" fill="#404040">
                               <set attributeName="fill" to="#808080" begin="reset.mouseover" end="reset.mouseout"/>
                       </use>
               </g>
        </defs>

<script type="text/javascript">
var viewWidth = 1573;
var viewHeight = 554;
var sectionId = 'dynsection-0';
</script>
<script xlink:href="../../svgpan.js"/>
<svg id="graph" class="graph">
<g id="viewport">
<title>/home/tcbuilder/buildAgent/work/df8e8cce5bebfd58/libajacc/includes/ntv2captionencoder608.h</title>
<polygon fill="#ffffff" stroke="transparent" points="-4,4 -4,-550 1569,-550 1569,4 -4,4"/>
<!-- Node0 -->
<g id="node1" class="node">
<title>Node0</title>
<polygon fill="#bfbfbf" stroke="#000000" points="682.5,-504.5 682.5,-545.5 849.5,-545.5 849.5,-504.5 682.5,-504.5"/>
<text text-anchor="start" x="690.5" y="-533.5" font-family="Helvetica,sans-Serif" font-size="10.00" fill="#000000">/home/tcbuilder/buildAgent</text>
<text text-anchor="start" x="690.5" y="-522.5" font-family="Helvetica,sans-Serif" font-size="10.00" fill="#000000">/work/df8e8cce5bebfd58/libajacc</text>
<text text-anchor="middle" x="766" y="-511.5" font-family="Helvetica,sans-Serif" font-size="10.00" fill="#000000">/includes/ntv2captionencoder608.h</text>
</g>
<!-- Node1 -->
<g id="node2" class="node">
<title>Node1</title>
<g id="a_node2"><a xlink:href="../../d1/dce/ntv2line21captioner_8h.html" target="_top" xlink:title="Declares the CNTV2Line21Captioner class. ">
<polygon fill="#ffffff" stroke="#000000" points="470,-392.5 470,-411.5 578,-411.5 578,-392.5 470,-392.5"/>
<text text-anchor="middle" x="524" y="-399.5" font-family="Helvetica,sans-Serif" font-size="10.00" fill="#000000">ntv2line21captioner.h</text>
</a>
</g>
</g>
<!-- Node0&#45;&gt;Node1 -->
<g id="edge1" class="edge">
<title>Node0&#45;&gt;Node1</title>
<path fill="none" stroke="#191970" d="M682.1018,-505.8764C652.3594,-496.9783 619.4791,-484.6036 592,-468 570.8124,-455.1979 551.0395,-434.644 538.338,-419.8736"/>
<polygon fill="#191970" stroke="#191970" points="540.8156,-417.38 531.7195,-411.9476 535.4426,-421.8668 540.8156,-417.38"/>
</g>
<!-- Node10 -->
<g id="node11" class="node">
<title>Node10</title>
<polygon fill="#ffffff" stroke="#bfbfbf" points="1105.5,-.5 1105.5,-19.5 1146.5,-19.5 1146.5,-.5 1105.5,-.5"/>
<text text-anchor="middle" x="1126" y="-7.5" font-family="Helvetica,sans-Serif" font-size="10.00" fill="#000000">string</text>
</g>
<!-- Node0&#45;&gt;Node10 -->
<g id="edge74" class="edge">
<title>Node0&#45;&gt;Node10</title>
<path fill="none" stroke="#191970" d="M849.621,-520.8019C1054.5135,-509.4027 1565,-473.7974 1565,-402 1565,-402 1565,-402 1565,-122 1565,-37.5709 1256.2844,-15.9826 1156.6217,-11.213"/>
<polygon fill="#191970" stroke="#191970" points="1156.7338,-7.7146 1146.5851,-10.7564 1156.4156,-14.7073 1156.7338,-7.7146"/>
</g>
<!-- Node19 -->
<g id="node20" class="node">
<title>Node19</title>
<g id="a_node20"><a xlink:href="../../db/d80/ntv2caption608types_8h.html" target="_top" xlink:title="Declares several data types used with 608/SD captioning. ">
<polygon fill="#ffffff" stroke="#000000" points="466.5,-336.5 466.5,-355.5 581.5,-355.5 581.5,-336.5 466.5,-336.5"/>
<text text-anchor="middle" x="524" y="-343.5" font-family="Helvetica,sans-Serif" font-size="10.00" fill="#000000">ntv2caption608types.h</text>
</a>
</g>
</g>
<!-- Node0&#45;&gt;Node19 -->
<g id="edge55" class="edge">
<title>Node0&#45;&gt;Node19</title>
<path fill="none" stroke="#191970" d="M688.0751,-504.4495C666.1385,-495.867 643.5118,-484.0433 626,-468 598.0063,-442.3537 611.6641,-420.8629 587,-392 576.5221,-379.7384 562.1586,-368.9299 549.7923,-360.8762"/>
<polygon fill="#191970" stroke="#191970" points="551.5591,-357.853 541.2249,-355.5173 547.8469,-363.7877 551.5591,-357.853"/>
</g>
<!-- Node25 -->
<g id="node26" class="node">
<title>Node25</title>
<g id="a_node26"><a xlink:href="../../d2/d61/ntv2caption608messagequeue_8h.html" target="_top" xlink:title="Declares the CNTV2Caption608MessageQueue class. ">
<polygon fill="#ffffff" stroke="#000000" points="634.5,-448.5 634.5,-467.5 791.5,-467.5 791.5,-448.5 634.5,-448.5"/>
<text text-anchor="middle" x="713" y="-455.5" font-family="Helvetica,sans-Serif" font-size="10.00" fill="#000000">ntv2caption608messagequeue.h</text>
</a>
</g>
</g>
<!-- Node0&#45;&gt;Node25 -->
<g id="edge56" class="edge">
<title>Node0&#45;&gt;Node25</title>
<path fill="none" stroke="#191970" d="M749.521,-504.168C742.3192,-495.0639 733.9594,-484.4959 727.0568,-475.7699"/>
<polygon fill="#191970" stroke="#191970" points="729.6859,-473.4519 720.7368,-467.7805 724.1959,-477.7947 729.6859,-473.4519"/>
</g>
<!-- Node27 -->
<g id="node28" class="node">
<title>Node27</title>
<g id="a_node28"><a xlink:href="../../da/dae/ajarefptr_8h.html" target="_top" xlink:title="Defines the AJARefPtr template class. ">
<polygon fill="#ffffff" stroke="#000000" points="1322.5,-336.5 1322.5,-355.5 1459.5,-355.5 1459.5,-336.5 1322.5,-336.5"/>
<text text-anchor="middle" x="1391" y="-343.5" font-family="Helvetica,sans-Serif" font-size="10.00" fill="#000000">ajabase/common/ajarefptr.h</text>
</a>
</g>
</g>
<!-- Node0&#45;&gt;Node27 -->
<g id="edge73" class="edge">
<title>Node0&#45;&gt;Node27</title>
<path fill="none" stroke="#191970" d="M837.6954,-504.4664C968.4662,-467.0137 1241.9856,-388.6777 1347.858,-358.3559"/>
<polygon fill="#191970" stroke="#191970" points="1348.9201,-361.6925 1357.57,-355.5744 1346.9928,-354.963 1348.9201,-361.6925"/>
</g>
<!-- Node33 -->
<g id="node34" class="node">
<title>Node33</title>
<polygon fill="#ffffff" stroke="#bfbfbf" points="789.5,-392.5 789.5,-411.5 832.5,-411.5 832.5,-392.5 789.5,-392.5"/>
<text text-anchor="middle" x="811" y="-399.5" font-family="Helvetica,sans-Serif" font-size="10.00" fill="#000000">deque</text>
</g>
<!-- Node0&#45;&gt;Node33 -->
<g id="edge75" class="edge">
<title>Node0&#45;&gt;Node33</title>
<path fill="none" stroke="#191970" d="M781.4446,-504.3862C788.4908,-493.9854 796.2946,-480.8695 801,-468 806.4719,-453.0339 808.9507,-435.1046 810.073,-421.7127"/>
<polygon fill="#191970" stroke="#191970" points="813.5679,-421.9037 810.7326,-411.6953 806.583,-421.4437 813.5679,-421.9037"/>
</g>
<!-- Node2 -->
<g id="node3" class="node">
<title>Node2</title>
<g id="a_node3"><a xlink:href="../../d7/da9/ntv2captionlogging_8h.html" target="_top" xlink:title="Declares the NTV2CaptionLogMask, and the CNTV2CaptionLogConfig class. ">
<polygon fill="#ffffff" stroke="#000000" points="104,-224.5 104,-243.5 210,-243.5 210,-224.5 104,-224.5"/>
<text text-anchor="middle" x="157" y="-231.5" font-family="Helvetica,sans-Serif" font-size="10.00" fill="#000000">ntv2captionlogging.h</text>
</a>
</g>
</g>
<!-- Node1&#45;&gt;Node2 -->
<g id="edge2" class="edge">
<title>Node1&#45;&gt;Node2</title>
<path fill="none" stroke="#191970" d="M469.6199,-399.3631C369.5143,-393.9488 164.298,-380.0241 143,-356 117.6677,-327.4252 134.6379,-279.1119 147.1158,-252.6699"/>
<polygon fill="#191970" stroke="#191970" points="150.2609,-254.2057 151.5806,-243.6934 143.9934,-251.0883 150.2609,-254.2057"/>
</g>
<!-- Node14 -->
<g id="node15" class="node">
<title>Node14</title>
<polygon fill="#ffffff" stroke="#bfbfbf" points="1054,-112.5 1054,-131.5 1098,-131.5 1098,-112.5 1054,-112.5"/>
<text text-anchor="middle" x="1076" y="-119.5" font-family="Helvetica,sans-Serif" font-size="10.00" fill="#000000">vector</text>
</g>
<!-- Node1&#45;&gt;Node14 -->
<g id="edge54" class="edge">
<title>Node1&#45;&gt;Node14</title>
<path fill="none" stroke="#191970" d="M578.123,-396.5708C747.4681,-379.227 1256,-324.29 1256,-290 1256,-290 1256,-290 1256,-234 1256,-165.1334 1159.8424,-137.104 1108.0896,-127.0055"/>
<polygon fill="#191970" stroke="#191970" points="1108.5392,-123.5296 1098.0715,-125.1662 1107.2751,-130.4146 1108.5392,-123.5296"/>
</g>
<!-- Node1&#45;&gt;Node19 -->
<g id="edge28" class="edge">
<title>Node1&#45;&gt;Node19</title>
<path fill="none" stroke="#191970" d="M524,-392.2455C524,-384.9382 524,-374.6944 524,-365.7046"/>
<polygon fill="#191970" stroke="#191970" points="527.5001,-365.6426 524,-355.6427 520.5001,-365.6427 527.5001,-365.6426"/>
</g>
<!-- Node3 -->
<g id="node4" class="node">
<title>Node3</title>
<g id="a_node4"><a xlink:href="../../db/de2/ajatypes_8h.html" target="_top" xlink:title="Declares the most fundamental data types used by NTV2. Since Windows NT was the first principal devel...">
<polygon fill="#ffffff" stroke="#000000" points="338,-56.5 338,-75.5 400,-75.5 400,-56.5 338,-56.5"/>
<text text-anchor="middle" x="369" y="-63.5" font-family="Helvetica,sans-Serif" font-size="10.00" fill="#000000">ajatypes.h</text>
</a>
</g>
</g>
<!-- Node2&#45;&gt;Node3 -->
<g id="edge3" class="edge">
<title>Node2&#45;&gt;Node3</title>
<path fill="none" stroke="#191970" d="M159.553,-224.4825C166.1782,-201.6094 186.1017,-143.1446 224,-112 253.6058,-87.6701 296.2322,-76.1426 327.6085,-70.7209"/>
<polygon fill="#191970" stroke="#191970" points="328.4549,-74.1305 337.7829,-69.1066 327.3579,-67.2169 328.4549,-74.1305"/>
</g>
<!-- Node5 -->
<g id="node6" class="node">
<title>Node5</title>
<polygon fill="#ffffff" stroke="#bfbfbf" points="269.5,-.5 269.5,-19.5 318.5,-19.5 318.5,-.5 269.5,-.5"/>
<text text-anchor="middle" x="294" y="-7.5" font-family="Helvetica,sans-Serif" font-size="10.00" fill="#000000">stdint.h</text>
</g>
<!-- Node2&#45;&gt;Node5 -->
<g id="edge24" class="edge">
<title>Node2&#45;&gt;Node5</title>
<path fill="none" stroke="#191970" d="M145.117,-224.2318C120.973,-203.1694 70.4688,-152.1397 95,-112 130.8548,-53.3319 212.3434,-27.0206 259.1648,-16.3754"/>
<polygon fill="#191970" stroke="#191970" points="260.1203,-19.7499 269.1585,-14.2217 258.6455,-12.907 260.1203,-19.7499"/>
</g>
<!-- Node6 -->
<g id="node7" class="node">
<title>Node6</title>
<g id="a_node7"><a xlink:href="../../d4/dd7/ntv2publicinterface_8h.html" target="_top" xlink:title="Declares enums and structs used by all platform drivers and the SDK. ">
<polygon fill="#ffffff" stroke="#000000" points="648.5,-168.5 648.5,-187.5 755.5,-187.5 755.5,-168.5 648.5,-168.5"/>
<text text-anchor="middle" x="702" y="-175.5" font-family="Helvetica,sans-Serif" font-size="10.00" fill="#000000">ntv2publicinterface.h</text>
</a>
</g>
</g>
<!-- Node2&#45;&gt;Node6 -->
<g id="edge6" class="edge">
<title>Node2&#45;&gt;Node6</title>
<path fill="none" stroke="#191970" d="M210.2492,-228.5285C311.0548,-218.1705 529.3723,-195.7379 637.9721,-184.579"/>
<polygon fill="#191970" stroke="#191970" points="638.5418,-188.039 648.1316,-183.5351 637.8262,-181.0757 638.5418,-188.039"/>
</g>
<!-- Node2&#45;&gt;Node10 -->
<g id="edge25" class="edge">
<title>Node2&#45;&gt;Node10</title>
<path fill="none" stroke="#191970" d="M210.3401,-231.4829C338.1807,-225.205 659.2828,-207.9194 765,-188 848.5854,-172.2507 871.371,-168.9129 948,-132 964.578,-124.0142 1060.5466,-56.4319 1104.2867,-25.43"/>
<polygon fill="#191970" stroke="#191970" points="1106.4093,-28.2156 1112.5402,-19.5748 1102.359,-22.5063 1106.4093,-28.2156"/>
</g>
<!-- Node11 -->
<g id="node12" class="node">
<title>Node11</title>
<polygon fill="#ffffff" stroke="#bfbfbf" points="342,-112.5 342,-131.5 396,-131.5 396,-112.5 342,-112.5"/>
<text text-anchor="middle" x="369" y="-119.5" font-family="Helvetica,sans-Serif" font-size="10.00" fill="#000000">iostream</text>
</g>
<!-- Node2&#45;&gt;Node11 -->
<g id="edge26" class="edge">
<title>Node2&#45;&gt;Node11</title>
<path fill="none" stroke="#191970" d="M175.075,-224.4509C212.3898,-204.7375 298.119,-159.4465 342.0186,-136.2543"/>
<polygon fill="#191970" stroke="#191970" points="343.7637,-139.2908 350.9707,-131.5249 340.4939,-133.1015 343.7637,-139.2908"/>
</g>
<!-- Node12 -->
<g id="node13" class="node">
<title>Node12</title>
<polygon fill="#ffffff" stroke="#bfbfbf" points="104,-112.5 104,-131.5 134,-131.5 134,-112.5 104,-112.5"/>
<text text-anchor="middle" x="119" y="-119.5" font-family="Helvetica,sans-Serif" font-size="10.00" fill="#000000">set</text>
</g>
<!-- Node2&#45;&gt;Node12 -->
<g id="edge27" class="edge">
<title>Node2&#45;&gt;Node12</title>
<path fill="none" stroke="#191970" d="M153.7601,-224.4509C147.5063,-206.0186 133.6658,-165.2254 125.461,-141.043"/>
<polygon fill="#191970" stroke="#191970" points="128.7591,-139.8701 122.2317,-131.5249 122.1303,-142.1192 128.7591,-139.8701"/>
</g>
<!-- Node4 -->
<g id="node5" class="node">
<title>Node4</title>
<g id="a_node5"><a xlink:href="../../db/d40/ntv2deprecate_8h.html" target="_top" xlink:title="Deprecation control macros. ">
<polygon fill="#ffffff" stroke="#000000" points="626,-.5 626,-19.5 712,-19.5 712,-.5 626,-.5"/>
<text text-anchor="middle" x="669" y="-7.5" font-family="Helvetica,sans-Serif" font-size="10.00" fill="#000000">ntv2deprecate.h</text>
</a>
</g>
</g>
<!-- Node3&#45;&gt;Node4 -->
<g id="edge4" class="edge">
<title>Node3&#45;&gt;Node4</title>
<path fill="none" stroke="#191970" d="M400.2563,-60.1655C451.2914,-50.6389 553.0899,-31.6366 615.7036,-19.9487"/>
<polygon fill="#191970" stroke="#191970" points="616.593,-23.3432 625.7809,-18.0676 615.3084,-16.462 616.593,-23.3432"/>
</g>
<!-- Node3&#45;&gt;Node5 -->
<g id="edge5" class="edge">
<title>Node3&#45;&gt;Node5</title>
<path fill="none" stroke="#191970" d="M355.936,-56.2455C344.6438,-47.814 328.1155,-35.4729 314.9729,-25.6598"/>
<polygon fill="#191970" stroke="#191970" points="317.0211,-22.8211 306.9143,-19.6427 312.8331,-28.4301 317.0211,-22.8211"/>
</g>
<!-- Node6&#45;&gt;Node3 -->
<g id="edge7" class="edge">
<title>Node6&#45;&gt;Node3</title>
<path fill="none" stroke="#191970" d="M648.2488,-168.8105C593.2524,-159.043 511.7707,-143.4571 482,-132 448.0831,-118.9473 412.4329,-96.4378 390.4578,-81.3859"/>
<polygon fill="#191970" stroke="#191970" points="392.4008,-78.4739 382.1939,-75.6333 388.4016,-84.2191 392.4008,-78.4739"/>
</g>
<!-- Node7 -->
<g id="node8" class="node">
<title>Node7</title>
<g id="a_node8"><a xlink:href="../../d6/d0c/ntv2enums_8h.html" target="_top" xlink:title="Enumerations for controlling NTV2 devices. ">
<polygon fill="#ffffff" stroke="#000000" points="848.5,-112.5 848.5,-131.5 921.5,-131.5 921.5,-112.5 848.5,-112.5"/>
<text text-anchor="middle" x="885" y="-119.5" font-family="Helvetica,sans-Serif" font-size="10.00" fill="#000000">ntv2enums.h</text>
</a>
</g>
</g>
<!-- Node6&#45;&gt;Node7 -->
<g id="edge8" class="edge">
<title>Node6&#45;&gt;Node7</title>
<path fill="none" stroke="#191970" d="M733.4588,-168.3733C764.0207,-159.021 810.5826,-144.7725 844.0261,-134.5385"/>
<polygon fill="#191970" stroke="#191970" points="845.4136,-137.7742 853.9517,-131.5011 843.3652,-131.0806 845.4136,-137.7742"/>
</g>
<!-- Node9 -->
<g id="node10" class="node">
<title>Node9</title>
<g id="a_node10"><a xlink:href="../../d6/dd9/ajaexport_8h.html" target="_top" xlink:title="Defines the import/export macros for producing DLLs or LIBs. ">
<polygon fill="#ffffff" stroke="#000000" points="167.5,-.5 167.5,-19.5 232.5,-19.5 232.5,-.5 167.5,-.5"/>
<text text-anchor="middle" x="200" y="-7.5" font-family="Helvetica,sans-Serif" font-size="10.00" fill="#000000">ajaexport.h</text>
</a>
</g>
</g>
<!-- Node6&#45;&gt;Node9 -->
<g id="edge21" class="edge">
<title>Node6&#45;&gt;Node9</title>
<path fill="none" stroke="#191970" d="M690.7786,-168.3234C673.747,-154.092 639.8656,-127.529 607,-112 541.6787,-81.1357 333.2381,-36.8641 242.6792,-18.4914"/>
<polygon fill="#191970" stroke="#191970" points="243.2443,-15.0349 232.7492,-16.4848 241.8578,-21.8962 243.2443,-15.0349"/>
</g>
<!-- Node6&#45;&gt;Node10 -->
<g id="edge17" class="edge">
<title>Node6&#45;&gt;Node10</title>
<path fill="none" stroke="#191970" d="M755.576,-174.8787C816.1675,-170.0986 909.2549,-158.5474 931,-132 963.8975,-91.8371 884.8279,-121.8142 856,-76 851.266,-68.4766 850.2667,-62.7927 856,-56 871.3569,-37.8055 1027.9496,-19.9241 1095.3827,-13.0027"/>
<polygon fill="#191970" stroke="#191970" points="1095.8081,-16.4776 1105.4045,-11.9876 1095.1026,-9.5132 1095.8081,-16.4776"/>
</g>
<!-- Node6&#45;&gt;Node11 -->
<g id="edge13" class="edge">
<title>Node6&#45;&gt;Node11</title>
<path fill="none" stroke="#191970" d="M648.4978,-169.0026C580.6839,-157.5985 465.519,-138.2314 406.4235,-128.2934"/>
<polygon fill="#191970" stroke="#191970" points="406.8498,-124.8161 396.4078,-126.6091 405.6888,-131.7191 406.8498,-124.8161"/>
</g>
<!-- Node6&#45;&gt;Node12 -->
<g id="edge14" class="edge">
<title>Node6&#45;&gt;Node12</title>
<path fill="none" stroke="#191970" d="M648.4577,-172.857C526.7119,-161.1627 232.846,-132.9355 144.5243,-124.4517"/>
<polygon fill="#191970" stroke="#191970" points="144.6381,-120.9466 134.3493,-123.4744 143.9688,-127.9146 144.6381,-120.9466"/>
</g>
<!-- Node13 -->
<g id="node14" class="node">
<title>Node13</title>
<polygon fill="#ffffff" stroke="#bfbfbf" points="1154.5,-112.5 1154.5,-131.5 1189.5,-131.5 1189.5,-112.5 1154.5,-112.5"/>
<text text-anchor="middle" x="1172" y="-119.5" font-family="Helvetica,sans-Serif" font-size="10.00" fill="#000000">map</text>
</g>
<!-- Node6&#45;&gt;Node13 -->
<g id="edge15" class="edge">
<title>Node6&#45;&gt;Node13</title>
<path fill="none" stroke="#191970" d="M755.8031,-172.5733C833.4653,-164.5847 981.4479,-148.7813 1107,-132 1119.3035,-130.3555 1132.88,-128.3042 1144.4291,-126.4883"/>
<polygon fill="#191970" stroke="#191970" points="1145.0458,-129.9343 1154.3709,-124.9051 1143.9449,-123.0214 1145.0458,-129.9343"/>
</g>
<!-- Node6&#45;&gt;Node14 -->
<g id="edge16" class="edge">
<title>Node6&#45;&gt;Node14</title>
<path fill="none" stroke="#191970" d="M755.5851,-169.9766C834.413,-158.1735 979.2378,-136.4885 1043.6455,-126.8445"/>
<polygon fill="#191970" stroke="#191970" points="1044.2579,-130.2919 1053.6293,-125.3496 1043.2213,-123.3691 1044.2579,-130.2919"/>
</g>
<!-- Node15 -->
<g id="node16" class="node">
<title>Node15</title>
<polygon fill="#ffffff" stroke="#bfbfbf" points="654,-112.5 654,-131.5 704,-131.5 704,-112.5 654,-112.5"/>
<text text-anchor="middle" x="679" y="-119.5" font-family="Helvetica,sans-Serif" font-size="10.00" fill="#000000">iomanip</text>
</g>
<!-- Node6&#45;&gt;Node15 -->
<g id="edge18" class="edge">
<title>Node6&#45;&gt;Node15</title>
<path fill="none" stroke="#191970" d="M697.9937,-168.2455C694.9265,-160.7776 690.5997,-150.2427 686.8503,-141.1137"/>
<polygon fill="#191970" stroke="#191970" points="689.9972,-139.5631 682.9604,-131.6427 683.5221,-142.2226 689.9972,-139.5631"/>
</g>
<!-- Node16 -->
<g id="node17" class="node">
<title>Node16</title>
<polygon fill="#ffffff" stroke="#bfbfbf" points="722.5,-112.5 722.5,-131.5 763.5,-131.5 763.5,-112.5 722.5,-112.5"/>
<text text-anchor="middle" x="743" y="-119.5" font-family="Helvetica,sans-Serif" font-size="10.00" fill="#000000">bitset</text>
</g>
<!-- Node6&#45;&gt;Node16 -->
<g id="edge19" class="edge">
<title>Node6&#45;&gt;Node16</title>
<path fill="none" stroke="#191970" d="M709.1417,-168.2455C714.8444,-160.4564 722.99,-149.3308 729.8625,-139.9439"/>
<polygon fill="#191970" stroke="#191970" points="732.8568,-141.7789 735.9402,-131.6427 727.2087,-137.6437 732.8568,-141.7789"/>
</g>
<!-- Node17 -->
<g id="node18" class="node">
<title>Node17</title>
<polygon fill="#ffffff" stroke="#bfbfbf" points="781.5,-112.5 781.5,-131.5 830.5,-131.5 830.5,-112.5 781.5,-112.5"/>
<text text-anchor="middle" x="806" y="-119.5" font-family="Helvetica,sans-Serif" font-size="10.00" fill="#000000">string.h</text>
</g>
<!-- Node6&#45;&gt;Node17 -->
<g id="edge20" class="edge">
<title>Node6&#45;&gt;Node17</title>
<path fill="none" stroke="#191970" d="M720.1154,-168.2455C736.445,-159.4527 760.671,-146.4079 779.2339,-136.4125"/>
<polygon fill="#191970" stroke="#191970" points="780.9468,-139.4654 788.0922,-131.6427 777.6281,-133.3021 780.9468,-139.4654"/>
</g>
<!-- Node18 -->
<g id="node19" class="node">
<title>Node18</title>
<g id="a_node19"><a xlink:href="../../da/df0/ntv2virtualregisters_8h.html" target="_top" xlink:title="Declares enums for virtual registers used in all platform drivers and the SDK. ">
<polygon fill="#ffffff" stroke="#000000" points="490.5,-112.5 490.5,-131.5 597.5,-131.5 597.5,-112.5 490.5,-112.5"/>
<text text-anchor="middle" x="544" y="-119.5" font-family="Helvetica,sans-Serif" font-size="10.00" fill="#000000">ntv2virtualregisters.h</text>
</a>
</g>
</g>
<!-- Node6&#45;&gt;Node18 -->
<g id="edge22" class="edge">
<title>Node6&#45;&gt;Node18</title>
<path fill="none" stroke="#191970" d="M674.8388,-168.3733C648.7933,-159.1419 609.2884,-145.1402 580.5021,-134.9375"/>
<polygon fill="#191970" stroke="#191970" points="581.4015,-131.5429 570.8067,-131.5011 579.063,-138.1408 581.4015,-131.5429"/>
</g>
<!-- Node7&#45;&gt;Node3 -->
<g id="edge9" class="edge">
<title>Node7&#45;&gt;Node3</title>
<path fill="none" stroke="#191970" d="M848.2328,-113.4483C845.4543,-112.919 842.6871,-112.4282 840,-112 682.2096,-86.8576 492.343,-73.3685 410.1955,-68.337"/>
<polygon fill="#191970" stroke="#191970" points="410.2184,-64.8322 400.0259,-67.7239 409.7971,-71.8195 410.2184,-64.8322"/>
</g>
<!-- Node8 -->
<g id="node9" class="node">
<title>Node8</title>
<g id="a_node9"><a xlink:href="../../d6/db1/ntv2version_8h.html" target="_top" xlink:title="Defines for the NTV2 SDK version number, used by ajantv2/includes/ntv2enums.h. See the ajantv2/includ...">
<polygon fill="#ffffff" stroke="#000000" points="733.5,-56.5 733.5,-75.5 808.5,-75.5 808.5,-56.5 733.5,-56.5"/>
<text text-anchor="middle" x="771" y="-63.5" font-family="Helvetica,sans-Serif" font-size="10.00" fill="#000000">ntv2version.h</text>
</a>
</g>
</g>
<!-- Node7&#45;&gt;Node8 -->
<g id="edge10" class="edge">
<title>Node7&#45;&gt;Node8</title>
<path fill="none" stroke="#191970" d="M865.4027,-112.3733C847.2669,-103.4644 820.0865,-90.1127 799.5413,-80.0203"/>
<polygon fill="#191970" stroke="#191970" points="800.8603,-76.7688 790.3416,-75.5011 797.7739,-83.0517 800.8603,-76.7688"/>
</g>
<!-- Node8&#45;&gt;Node9 -->
<g id="edge11" class="edge">
<title>Node8&#45;&gt;Node9</title>
<path fill="none" stroke="#191970" d="M733.2415,-62.9526C631.404,-54.6763 352.6114,-31.6251 261,-20 255.0664,-19.247 248.8251,-18.348 242.6913,-17.4021"/>
<polygon fill="#191970" stroke="#191970" points="242.97,-13.9023 232.5435,-15.7835 241.8674,-20.815 242.97,-13.9023"/>
</g>
<!-- Node8&#45;&gt;Node10 -->
<g id="edge12" class="edge">
<title>Node8&#45;&gt;Node10</title>
<path fill="none" stroke="#191970" d="M808.7419,-58.5614C813.5359,-57.6697 818.3793,-56.7947 823,-56 922.3025,-38.9207 1040.4967,-21.9378 1095.2917,-14.2548"/>
<polygon fill="#191970" stroke="#191970" points="1095.9617,-17.6953 1105.381,-12.845 1094.9928,-10.7627 1095.9617,-17.6953"/>
</g>
<!-- Node18&#45;&gt;Node3 -->
<g id="edge23" class="edge">
<title>Node18&#45;&gt;Node3</title>
<path fill="none" stroke="#191970" d="M513.9164,-112.3733C484.8166,-103.0613 440.5477,-88.8953 408.597,-78.671"/>
<polygon fill="#191970" stroke="#191970" points="409.282,-75.2155 398.691,-75.5011 407.1485,-81.8824 409.282,-75.2155"/>
</g>
<!-- Node19&#45;&gt;Node3 -->
<g id="edge29" class="edge">
<title>Node19&#45;&gt;Node3</title>
<path fill="none" stroke="#191970" d="M470.8759,-336.4489C388.1668,-320.0473 238,-283.4583 238,-234 238,-234 238,-234 238,-178 238,-128.348 293.0403,-96.0069 331.7673,-79.3965"/>
<polygon fill="#191970" stroke="#191970" points="333.2999,-82.5508 341.2183,-75.5116 330.6385,-76.0764 333.2999,-82.5508"/>
</g>
<!-- Node19&#45;&gt;Node9 -->
<g id="edge30" class="edge">
<title>Node19&#45;&gt;Node9</title>
<path fill="none" stroke="#191970" d="M466.4456,-341.343C374.9898,-333.5634 200.7194,-317.0861 141,-300 74.477,-280.9674 0,-303.1922 0,-234 0,-234 0,-234 0,-122 0,-50.4827 98.5586,-24.1817 157.301,-14.8573"/>
<polygon fill="#191970" stroke="#191970" points="158.0436,-18.2855 167.4214,-13.3553 157.0159,-11.3614 158.0436,-18.2855"/>
</g>
<!-- Node19&#45;&gt;Node10 -->
<g id="edge51" class="edge">
<title>Node19&#45;&gt;Node10</title>
<path fill="none" stroke="#191970" d="M581.7132,-343.0195C698.9949,-336.6227 961.4704,-320.4813 1049,-300 1127.5149,-281.6281 1218,-314.6357 1218,-234 1218,-234 1218,-234 1218,-122 1218,-79.5397 1178.0299,-44.3942 1150.781,-25.3678"/>
<polygon fill="#191970" stroke="#191970" points="1152.7,-22.4405 1142.4478,-19.768 1148.7957,-28.2506 1152.7,-22.4405"/>
</g>
<!-- Node19&#45;&gt;Node12 -->
<g id="edge52" class="edge">
<title>Node19&#45;&gt;Node12</title>
<path fill="none" stroke="#191970" d="M466.2068,-341.7311C358.7781,-332.3764 135.524,-305.7695 95,-244 74.0931,-212.1323 93.4414,-166.1895 107.4622,-140.7456"/>
<polygon fill="#191970" stroke="#191970" points="110.6732,-142.1849 112.6574,-131.7776 104.6162,-138.676 110.6732,-142.1849"/>
</g>
<!-- Node19&#45;&gt;Node13 -->
<g id="edge53" class="edge">
<title>Node19&#45;&gt;Node13</title>
<path fill="none" stroke="#191970" d="M581.5677,-344.2357C718.5731,-338.8548 1058.6385,-318.1693 1140,-244 1168.7437,-217.7972 1173.0055,-169.2221 1172.9209,-141.9353"/>
<polygon fill="#191970" stroke="#191970" points="1176.4137,-141.5857 1172.6772,-131.6716 1169.4156,-141.7519 1176.4137,-141.5857"/>
</g>
<!-- Node20 -->
<g id="node21" class="node">
<title>Node20</title>
<g id="a_node21"><a xlink:href="../../d0/d81/ntv2utils_8h.html" target="_top" xlink:title="Declares numerous NTV2 utility functions. ">
<polygon fill="#ffffff" stroke="#000000" points="600,-280.5 600,-299.5 662,-299.5 662,-280.5 600,-280.5"/>
<text text-anchor="middle" x="631" y="-287.5" font-family="Helvetica,sans-Serif" font-size="10.00" fill="#000000">ntv2utils.h</text>
</a>
</g>
</g>
<!-- Node19&#45;&gt;Node20 -->
<g id="edge31" class="edge">
<title>Node19&#45;&gt;Node20</title>
<path fill="none" stroke="#191970" d="M542.638,-336.2455C559.4386,-327.4527 584.3634,-314.4079 603.4618,-304.4125"/>
<polygon fill="#191970" stroke="#191970" points="605.3386,-307.3807 612.5756,-299.6427 602.0927,-301.1787 605.3386,-307.3807"/>
</g>
<!-- Node24 -->
<g id="node25" class="node">
<title>Node24</title>
<polygon fill="#ffffff" stroke="#bfbfbf" points="680,-280.5 680,-299.5 732,-299.5 732,-280.5 680,-280.5"/>
<text text-anchor="middle" x="706" y="-287.5" font-family="Helvetica,sans-Serif" font-size="10.00" fill="#000000">ostream</text>
</g>
<!-- Node19&#45;&gt;Node24 -->
<g id="edge50" class="edge">
<title>Node19&#45;&gt;Node24</title>
<path fill="none" stroke="#191970" d="M555.2869,-336.3733C587.1555,-326.5676 636.5171,-311.3793 669.9926,-301.0792"/>
<polygon fill="#191970" stroke="#191970" points="671.3061,-304.3371 679.8346,-298.0509 669.2474,-297.6466 671.3061,-304.3371"/>
</g>
<!-- Node20&#45;&gt;Node3 -->
<g id="edge33" class="edge">
<title>Node20&#45;&gt;Node3</title>
<path fill="none" stroke="#191970" d="M599.676,-283.1851C548.1492,-270.8425 443.9545,-241.0238 371,-188 339.0615,-164.7869 310.2966,-148.6432 325,-112 329.6633,-100.3782 338.8188,-90.0324 347.5762,-82.1099"/>
<polygon fill="#191970" stroke="#191970" points="349.9727,-84.6675 355.3664,-75.5484 345.4632,-79.3136 349.9727,-84.6675"/>
</g>
<!-- Node20&#45;&gt;Node6 -->
<g id="edge37" class="edge">
<title>Node20&#45;&gt;Node6</title>
<path fill="none" stroke="#191970" d="M660.7048,-280.4777C687.4524,-271.2311 723.7901,-256.7604 732,-244 741.9259,-228.5724 730.8251,-209.3183 719.4228,-195.5956"/>
<polygon fill="#191970" stroke="#191970" points="721.7542,-192.9533 712.4695,-187.8498 716.5451,-197.6294 721.7542,-192.9533"/>
</g>
<!-- Node20&#45;&gt;Node7 -->
<g id="edge34" class="edge">
<title>Node20&#45;&gt;Node7</title>
<path fill="none" stroke="#191970" d="M662.4154,-280.8269C686.5718,-273.0133 720.2312,-260.4391 747,-244 796.4238,-213.6481 845.0844,-165.0664 869.2552,-139.3208"/>
<polygon fill="#191970" stroke="#191970" points="871.9804,-141.5293 876.2122,-131.8163 866.8469,-136.7703 871.9804,-141.5293"/>
</g>
<!-- Node20&#45;&gt;Node9 -->
<g id="edge32" class="edge">
<title>Node20&#45;&gt;Node9</title>
<path fill="none" stroke="#191970" d="M599.8711,-288.6942C492.2486,-283.9929 140.0236,-266.9853 95,-244 60.4798,-226.3769 38,-216.7585 38,-178 38,-178 38,-178 38,-122 38,-63.9028 109.3664,-33.5872 157.3636,-19.7682"/>
<polygon fill="#191970" stroke="#191970" points="158.4988,-23.0861 167.2169,-17.0657 156.6472,-16.3354 158.4988,-23.0861"/>
</g>
<!-- Node20&#45;&gt;Node10 -->
<g id="edge47" class="edge">
<title>Node20&#45;&gt;Node10</title>
<path fill="none" stroke="#191970" d="M662.3468,-281.681C665.26,-281.0539 668.1772,-280.4799 671,-280 757.0221,-265.3757 983.2902,-281.6623 1062,-244 1098.8577,-226.3637 1126,-218.8599 1126,-178 1126,-178 1126,-178 1126,-122 1126,-89.7116 1126,-52.1872 1126,-29.8048"/>
<polygon fill="#191970" stroke="#191970" points="1129.5001,-29.5883 1126,-19.5884 1122.5001,-29.5884 1129.5001,-29.5883"/>
</g>
<!-- Node20&#45;&gt;Node11 -->
<g id="edge48" class="edge">
<title>Node20&#45;&gt;Node11</title>
<path fill="none" stroke="#191970" d="M625.0134,-280.4743C610.1365,-257.5831 569.1224,-199.0813 520,-168 510.2121,-161.8069 447.498,-143.7321 406.0306,-132.1697"/>
<polygon fill="#191970" stroke="#191970" points="406.8201,-128.7566 396.2482,-129.4528 404.9468,-135.5013 406.8201,-128.7566"/>
</g>
<!-- Node20&#45;&gt;Node14 -->
<g id="edge49" class="edge">
<title>Node20&#45;&gt;Node14</title>
<path fill="none" stroke="#191970" d="M662.3495,-281.6967C665.2621,-281.0663 668.1785,-280.4872 671,-280 752.4058,-265.9435 977.5086,-296.852 1041,-244 1071.2155,-218.8478 1076.3146,-169.4956 1076.6301,-141.8928"/>
<polygon fill="#191970" stroke="#191970" points="1080.1296,-141.8111 1076.5413,-131.8424 1073.1299,-141.873 1080.1296,-141.8111"/>
</g>
<!-- Node21 -->
<g id="node22" class="node">
<title>Node21</title>
<g id="a_node22"><a xlink:href="../../d9/d61/ntv2videodefines_8h.html" target="_top" xlink:title="Declares common video macros and structs used in the SDK. ">
<polygon fill="#ffffff" stroke="#000000" points="380,-168.5 380,-187.5 478,-187.5 478,-168.5 380,-168.5"/>
<text text-anchor="middle" x="429" y="-175.5" font-family="Helvetica,sans-Serif" font-size="10.00" fill="#000000">ntv2videodefines.h</text>
</a>
</g>
</g>
<!-- Node20&#45;&gt;Node21 -->
<g id="edge35" class="edge">
<title>Node20&#45;&gt;Node21</title>
<path fill="none" stroke="#191970" d="M615.2222,-280.2972C593.6949,-267.1522 553.8118,-243.131 519,-224 498.7582,-212.876 475.539,-201.0305 457.7552,-192.1461"/>
<polygon fill="#191970" stroke="#191970" points="459.0005,-188.8565 448.488,-187.5384 455.884,-195.1245 459.0005,-188.8565"/>
</g>
<!-- Node22 -->
<g id="node23" class="node">
<title>Node22</title>
<g id="a_node23"><a xlink:href="../../dc/df4/ntv2formatdescriptor_8h.html" target="_top" xlink:title="Declares the NTV2FormatDescriptor class. ">
<polygon fill="#ffffff" stroke="#000000" points="609.5,-224.5 609.5,-243.5 722.5,-243.5 722.5,-224.5 609.5,-224.5"/>
<text text-anchor="middle" x="666" y="-231.5" font-family="Helvetica,sans-Serif" font-size="10.00" fill="#000000">ntv2formatdescriptor.h</text>
</a>
</g>
</g>
<!-- Node20&#45;&gt;Node22 -->
<g id="edge38" class="edge">
<title>Node20&#45;&gt;Node22</title>
<path fill="none" stroke="#191970" d="M637.0965,-280.2455C641.9145,-272.5367 648.7751,-261.5598 654.6032,-252.2348"/>
<polygon fill="#191970" stroke="#191970" points="657.6413,-253.9777 659.9733,-243.6427 651.7053,-250.2677 657.6413,-253.9777"/>
</g>
<!-- Node23 -->
<g id="node24" class="node">
<title>Node23</title>
<g id="a_node24"><a xlink:href="../../de/d26/ntv2m31enums_8h.html" target="_top" xlink:title="ntv2m31enums.h">
<polygon fill="#ffffff" stroke="#000000" points="940,-224.5 940,-243.5 1032,-243.5 1032,-224.5 940,-224.5"/>
<text text-anchor="middle" x="986" y="-231.5" font-family="Helvetica,sans-Serif" font-size="10.00" fill="#000000">ntv2m31enums.h</text>
</a>
</g>
</g>
<!-- Node20&#45;&gt;Node23 -->
<g id="edge46" class="edge">
<title>Node20&#45;&gt;Node23</title>
<path fill="none" stroke="#191970" d="M662.3734,-281.8267C665.281,-281.1691 668.1897,-280.5481 671,-280 783.3405,-258.09 812.8746,-261.4097 926,-244 927.2623,-243.8057 928.5392,-243.6075 929.8266,-243.4061"/>
<polygon fill="#191970" stroke="#191970" points="930.5052,-246.8423 939.8308,-241.8139 929.4049,-239.9293 930.5052,-246.8423"/>
</g>
<!-- Node21&#45;&gt;Node3 -->
<g id="edge36" class="edge">
<title>Node21&#45;&gt;Node3</title>
<path fill="none" stroke="#191970" d="M385.5168,-168.3976C365.9249,-161.6689 344.6205,-150.4539 333,-132 322.7676,-115.7505 336.1868,-96.3794 349.4518,-82.8417"/>
<polygon fill="#191970" stroke="#191970" points="352.223,-85.0368 357.0643,-75.6127 347.4028,-79.9608 352.223,-85.0368"/>
</g>
<!-- Node22&#45;&gt;Node3 -->
<g id="edge40" class="edge">
<title>Node22&#45;&gt;Node3</title>
<path fill="none" stroke="#191970" d="M657.7145,-224.2818C644.7744,-209.7485 618.3011,-182.5124 590,-168 528.2241,-136.3221 498.9965,-165.1539 438,-132 415.8415,-119.956 395.6503,-98.9168 382.9143,-83.828"/>
<polygon fill="#191970" stroke="#191970" points="385.3524,-81.2798 376.3185,-75.7445 379.9288,-85.7052 385.3524,-81.2798"/>
</g>
<!-- Node22&#45;&gt;Node6 -->
<g id="edge42" class="edge">
<title>Node22&#45;&gt;Node6</title>
<path fill="none" stroke="#191970" d="M672.2707,-224.2455C677.2264,-216.5367 684.283,-205.5598 690.2776,-196.2348"/>
<polygon fill="#191970" stroke="#191970" points="693.3376,-197.9471 695.8011,-187.6427 687.4494,-194.1618 693.3376,-197.9471"/>
</g>
<!-- Node22&#45;&gt;Node7 -->
<g id="edge41" class="edge">
<title>Node22&#45;&gt;Node7</title>
<path fill="none" stroke="#191970" d="M687.8333,-224.3685C708.0298,-215.3383 738.7947,-201.2753 765,-188 798.1425,-171.2104 835.5338,-150.3275 859.6393,-136.6036"/>
<polygon fill="#191970" stroke="#191970" points="861.5495,-139.5433 868.4955,-131.5431 858.0765,-133.4655 861.5495,-139.5433"/>
</g>
<!-- Node22&#45;&gt;Node9 -->
<g id="edge39" class="edge">
<title>Node22&#45;&gt;Node9</title>
<path fill="none" stroke="#191970" d="M609.4325,-229.5029C535.7198,-222.9087 411.458,-209.0665 371,-188 296.683,-149.3032 236.1353,-65.8803 211.6769,-28.627"/>
<polygon fill="#191970" stroke="#191970" points="214.3569,-26.3241 206.0005,-19.8109 208.4713,-30.1136 214.3569,-26.3241"/>
</g>
<!-- Node22&#45;&gt;Node10 -->
<g id="edge43" class="edge">
<title>Node22&#45;&gt;Node10</title>
<path fill="none" stroke="#191970" d="M722.5443,-227.9418C793.4871,-218.0004 916.2263,-192.8389 1002,-132 1046.4838,-100.4479 1089.9121,-52.7021 1111.6385,-27.3097"/>
<polygon fill="#191970" stroke="#191970" points="1114.3632,-29.508 1118.1448,-19.611 1109.0167,-24.9897 1114.3632,-29.508"/>
</g>
<!-- Node22&#45;&gt;Node11 -->
<g id="edge44" class="edge">
<title>Node22&#45;&gt;Node11</title>
<path fill="none" stroke="#191970" d="M653.4031,-224.4885C633.9397,-210.2252 594.9349,-183.337 558,-168 495.4801,-142.0389 475.7728,-148.0205 410,-132 408.7587,-131.6977 407.4963,-131.3901 406.2214,-131.0794"/>
<polygon fill="#191970" stroke="#191970" points="406.8909,-127.6402 396.3465,-128.6724 405.2331,-134.4411 406.8909,-127.6402"/>
</g>
<!-- Node22&#45;&gt;Node14 -->
<g id="edge45" class="edge">
<title>Node22&#45;&gt;Node14</title>
<path fill="none" stroke="#191970" d="M722.7886,-232.0546C810.9121,-228.1602 975.6965,-217.1218 1026,-188 1044.7778,-177.1291 1058.7942,-156.1337 1067.1362,-140.7317"/>
<polygon fill="#191970" stroke="#191970" points="1070.3768,-142.0806 1071.7916,-131.5807 1064.1378,-138.9066 1070.3768,-142.0806"/>
</g>
<!-- Node26 -->
<g id="node27" class="node">
<title>Node26</title>
<g id="a_node27"><a xlink:href="../../df/dea/ntv2caption608message_8h.html" target="_top" xlink:title="Declares the CNTV2Caption608Message class. ">
<polygon fill="#ffffff" stroke="#000000" points="636.5,-392.5 636.5,-411.5 767.5,-411.5 767.5,-392.5 636.5,-392.5"/>
<text text-anchor="middle" x="702" y="-399.5" font-family="Helvetica,sans-Serif" font-size="10.00" fill="#000000">ntv2caption608message.h</text>
</a>
</g>
</g>
<!-- Node25&#45;&gt;Node26 -->
<g id="edge57" class="edge">
<title>Node25&#45;&gt;Node26</title>
<path fill="none" stroke="#191970" d="M711.0839,-448.2455C709.6486,-440.9382 707.6364,-430.6944 705.8705,-421.7046"/>
<polygon fill="#191970" stroke="#191970" points="709.256,-420.7805 703.8941,-411.6427 702.3873,-422.1298 709.256,-420.7805"/>
</g>
<!-- Node25&#45;&gt;Node33 -->
<g id="edge72" class="edge">
<title>Node25&#45;&gt;Node33</title>
<path fill="none" stroke="#191970" d="M730.0703,-448.2455C745.247,-439.5731 767.6621,-426.7645 785.0563,-416.825"/>
<polygon fill="#191970" stroke="#191970" points="787.1794,-419.643 794.1253,-411.6427 783.7064,-413.5653 787.1794,-419.643"/>
</g>
<!-- Node26&#45;&gt;Node2 -->
<g id="edge58" class="edge">
<title>Node26&#45;&gt;Node2</title>
<path fill="none" stroke="#191970" d="M636.2266,-392.8216C522.4467,-376.15 294.3096,-338.9956 224,-300 202.2764,-287.9515 182.7096,-266.9132 170.4086,-251.8257"/>
<polygon fill="#191970" stroke="#191970" points="172.9806,-249.4345 164.0442,-243.7431 167.4809,-253.7651 172.9806,-249.4345"/>
</g>
<!-- Node26&#45;&gt;Node10 -->
<g id="edge70" class="edge">
<title>Node26&#45;&gt;Node10</title>
<path fill="none" stroke="#191970" d="M767.6163,-392.9991C921.7507,-371.4158 1294,-316.5425 1294,-290 1294,-290 1294,-290 1294,-122 1294,-56.6846 1205.0008,-27.1153 1156.5575,-15.8582"/>
<polygon fill="#191970" stroke="#191970" points="1157.1184,-12.398 1146.6001,-13.6691 1155.6153,-19.2347 1157.1184,-12.398"/>
</g>
<!-- Node26&#45;&gt;Node11 -->
<g id="edge71" class="edge">
<title>Node26&#45;&gt;Node11</title>
<path fill="none" stroke="#191970" d="M690.411,-392.4289C669.5731,-374.9906 624.8028,-336.4697 591,-300 540.2285,-245.2229 547.0137,-212.4593 487,-168 473.7061,-158.1516 435.2654,-143.986 405.8367,-133.9822"/>
<polygon fill="#191970" stroke="#191970" points="406.8453,-130.6289 396.2513,-130.7614 404.6157,-137.2643 406.8453,-130.6289"/>
</g>
<!-- Node26&#45;&gt;Node19 -->
<g id="edge59" class="edge">
<title>Node26&#45;&gt;Node19</title>
<path fill="none" stroke="#191970" d="M671.4007,-392.3733C641.6739,-383.021 596.3841,-368.7725 563.8544,-358.5385"/>
<polygon fill="#191970" stroke="#191970" points="564.7895,-355.1636 554.2,-355.5011 562.6887,-361.8409 564.7895,-355.1636"/>
</g>
<!-- Node26&#45;&gt;Node27 -->
<g id="edge60" class="edge">
<title>Node26&#45;&gt;Node27</title>
<path fill="none" stroke="#191970" d="M767.9203,-393.3668C772.3436,-392.8767 776.7345,-392.4153 781,-392 1014.6631,-369.2494 1074.2696,-378.0485 1308,-356 1309.3005,-355.8773 1310.6121,-355.7509 1311.9325,-355.6212"/>
<polygon fill="#191970" stroke="#191970" points="1312.5967,-359.0715 1322.187,-354.5684 1311.8818,-352.1081 1312.5967,-359.0715"/>
</g>
<!-- Node28 -->
<g id="node29" class="node">
<title>Node28</title>
<g id="a_node29"><a xlink:href="../../dd/d02/atomic_8h.html" target="_top" xlink:title="Declares the AJAAtomic class. ">
<polygon fill="#ffffff" stroke="#000000" points="1340,-280.5 1340,-299.5 1438,-299.5 1438,-280.5 1340,-280.5"/>
<text text-anchor="middle" x="1389" y="-287.5" font-family="Helvetica,sans-Serif" font-size="10.00" fill="#000000">../system/atomic.h</text>
</a>
</g>
</g>
<!-- Node27&#45;&gt;Node28 -->
<g id="edge61" class="edge">
<title>Node27&#45;&gt;Node28</title>
<path fill="none" stroke="#191970" d="M1390.6516,-336.2455C1390.3907,-328.9382 1390.0248,-318.6944 1389.7037,-309.7046"/>
<polygon fill="#191970" stroke="#191970" points="1393.1992,-309.5113 1389.3444,-299.6427 1386.2036,-309.7613 1393.1992,-309.5113"/>
</g>
<!-- Node29 -->
<g id="node30" class="node">
<title>Node29</title>
<g id="a_node30"><a xlink:href="../../d4/d79/public_8h.html" target="_top" xlink:title="Master header for the ajabase library. ">
<polygon fill="#ffffff" stroke="#000000" points="1322,-168.5 1322,-187.5 1450,-187.5 1450,-168.5 1322,-168.5"/>
<text text-anchor="middle" x="1386" y="-175.5" font-family="Helvetica,sans-Serif" font-size="10.00" fill="#000000">ajabase/common/public.h</text>
</a>
</g>
</g>
<!-- Node28&#45;&gt;Node29 -->
<g id="edge62" class="edge">
<title>Node28&#45;&gt;Node29</title>
<path fill="none" stroke="#191970" d="M1388.7442,-280.4509C1388.2549,-262.184 1387.1774,-221.9553 1386.5276,-197.6976"/>
<polygon fill="#191970" stroke="#191970" points="1390.0217,-197.4276 1386.2551,-187.5249 1383.0242,-197.6151 1390.0217,-197.4276"/>
</g>
<!-- Node29&#45;&gt;Node10 -->
<g id="edge64" class="edge">
<title>Node29&#45;&gt;Node10</title>
<path fill="none" stroke="#191970" d="M1378.3794,-168.3559C1371.2649,-159.2011 1360.4985,-144.953 1352,-132 1330.5892,-99.3666 1339.1472,-79.5204 1308,-56 1284.2934,-38.0982 1202.0582,-22.3659 1156.6734,-14.7913"/>
<polygon fill="#191970" stroke="#191970" points="1157.2176,-11.3338 1146.7836,-13.1725 1156.0869,-18.2419 1157.2176,-11.3338"/>
</g>
<!-- Node29&#45;&gt;Node13 -->
<g id="edge67" class="edge">
<title>Node29&#45;&gt;Node13</title>
<path fill="none" stroke="#191970" d="M1349.2121,-168.3733C1306.7202,-157.2539 1237.7791,-139.2132 1199.6189,-129.2274"/>
<polygon fill="#191970" stroke="#191970" points="1200.2799,-125.7826 1189.7195,-126.6369 1198.5077,-132.5545 1200.2799,-125.7826"/>
</g>
<!-- Node29&#45;&gt;Node14 -->
<g id="edge66" class="edge">
<title>Node29&#45;&gt;Node14</title>
<path fill="none" stroke="#191970" d="M1333.0613,-168.4369C1268.5372,-156.7809 1161.5353,-137.4515 1108.236,-127.8233"/>
<polygon fill="#191970" stroke="#191970" points="1108.7837,-124.3656 1098.3207,-126.0321 1107.5392,-131.2541 1108.7837,-124.3656"/>
</g>
<!-- Node30 -->
<g id="node31" class="node">
<title>Node30</title>
<g id="a_node31"><a xlink:href="../../db/db5/export_8h.html" target="_top" xlink:title="Declares system&#45;dependent import/export macros and libraries. ">
<polygon fill="#ffffff" stroke="#000000" points="1360.5,-112.5 1360.5,-131.5 1489.5,-131.5 1489.5,-112.5 1360.5,-112.5"/>
<text text-anchor="middle" x="1425" y="-119.5" font-family="Helvetica,sans-Serif" font-size="10.00" fill="#000000">ajabase/common/export.h</text>
</a>
</g>
</g>
<!-- Node29&#45;&gt;Node30 -->
<g id="edge63" class="edge">
<title>Node29&#45;&gt;Node30</title>
<path fill="none" stroke="#191970" d="M1392.7933,-168.2455C1398.2178,-160.4564 1405.9661,-149.3308 1412.5033,-139.9439"/>
<polygon fill="#191970" stroke="#191970" points="1415.4417,-141.849 1418.2846,-131.6427 1409.6975,-137.8485 1415.4417,-141.849"/>
</g>
<!-- Node31 -->
<g id="node32" class="node">
<title>Node31</title>
<polygon fill="#ffffff" stroke="#bfbfbf" points="1507.5,-112.5 1507.5,-131.5 1536.5,-131.5 1536.5,-112.5 1507.5,-112.5"/>
<text text-anchor="middle" x="1522" y="-119.5" font-family="Helvetica,sans-Serif" font-size="10.00" fill="#000000">list</text>
</g>
<!-- Node29&#45;&gt;Node31 -->
<g id="edge65" class="edge">
<title>Node29&#45;&gt;Node31</title>
<path fill="none" stroke="#191970" d="M1409.8758,-168.4702C1430.9128,-160.0324 1462.6009,-147.2238 1497.8821,-132.4159"/>
<polygon fill="#191970" stroke="#191970" points="1499.563,-135.5058 1507.4216,-128.3999 1496.8469,-129.0542 1499.563,-135.5058"/>
</g>
<!-- Node32 -->
<g id="node33" class="node">
<title>Node32</title>
<g id="a_node33"><a xlink:href="../../d9/d49/types_8h.html" target="_top" xlink:title="Declares common types used in the ajabase library. ">
<polygon fill="#ffffff" stroke="#000000" points="865,-56.5 865,-75.5 991,-75.5 991,-56.5 865,-56.5"/>
<text text-anchor="middle" x="928" y="-63.5" font-family="Helvetica,sans-Serif" font-size="10.00" fill="#000000">ajabase/common/types.h</text>
</a>
</g>
</g>
<!-- Node29&#45;&gt;Node32 -->
<g id="edge68" class="edge">
<title>Node29&#45;&gt;Node32</title>
<path fill="none" stroke="#191970" d="M1363.0743,-168.4696C1328.2022,-154.3043 1259.4864,-127.6844 1199,-112 1162.5861,-102.5577 1068.2416,-87.2992 1001.1298,-76.9693"/>
<polygon fill="#191970" stroke="#191970" points="1001.4362,-73.4755 991.0211,-75.4189 1000.3749,-80.3946 1001.4362,-73.4755"/>
</g>
<!-- Node32&#45;&gt;Node4 -->
<g id="edge69" class="edge">
<title>Node32&#45;&gt;Node4</title>
<path fill="none" stroke="#191970" d="M883.7706,-56.4369C838.9887,-46.7543 769.7172,-31.7767 722.0188,-21.4635"/>
<polygon fill="#191970" stroke="#191970" points="722.6983,-18.0296 712.1845,-19.3372 721.2189,-24.8715 722.6983,-18.0296"/>
</g>
</g>
</svg>
        <g id="navigator" transform="translate(0 0)" fill="#404254">
                <rect fill="#f2f5e9" fill-opacity="0.5" stroke="#606060" stroke-width=".5" x="0" y="0" width="60" height="60"/>
                <use id="zoomplus" xlink:href="#zoomPlus" x="17" y="9" onmousedown="handleZoom(evt,'in')"/>
                <use id="zoomminus" xlink:href="#zoomMin" x="42" y="9" onmousedown="handleZoom(evt,'out')"/>
                <use id="reset" xlink:href="#resetDef" x="30" y="36" onmousedown="handleReset()"/>
                <g id="arrowUp" xlink:href="#dirArrow" transform="translate(30 24)" onmousedown="handlePan(0,-1)">
                  <use xlink:href="#rim" fill="#404040">
                        <set attributeName="fill" to="#808080" begin="arrowUp.mouseover" end="arrowUp.mouseout"/>
                  </use>
                  <path fill="none" stroke="white" stroke-width="1.5" d="M0,-3.0v7 M-2.5,-0.5L0,-3.0L2.5,-0.5"/>
                </g>
                <g id="arrowRight" xlink:href="#dirArrow" transform="rotate(90) translate(36 -43)" onmousedown="handlePan(1,0)">
                  <use xlink:href="#rim" fill="#404040">
                        <set attributeName="fill" to="#808080" begin="arrowRight.mouseover" end="arrowRight.mouseout"/>
                  </use>
                  <path fill="none" stroke="white" stroke-width="1.5" d="M0,-3.0v7 M-2.5,-0.5L0,-3.0L2.5,-0.5"/>
                </g>
                <g id="arrowDown" xlink:href="#dirArrow" transform="rotate(180) translate(-30 -48)" onmousedown="handlePan(0,1)">
                  <use xlink:href="#rim" fill="#404040">
                        <set attributeName="fill" to="#808080" begin="arrowDown.mouseover" end="arrowDown.mouseout"/>
                  </use>
                  <path fill="none" stroke="white" stroke-width="1.5" d="M0,-3.0v7 M-2.5,-0.5L0,-3.0L2.5,-0.5"/>
                </g>
                <g id="arrowLeft" xlink:href="#dirArrow" transform="rotate(270) translate(-36 17)" onmousedown="handlePan(-1,0)">
                  <use xlink:href="#rim" fill="#404040">
                        <set attributeName="fill" to="#808080" begin="arrowLeft.mouseover" end="arrowLeft.mouseout"/>
                  </use>
                  <path fill="none" stroke="white" stroke-width="1.5" d="M0,-3.0v7 M-2.5,-0.5L0,-3.0L2.5,-0.5"/>
                </g>
        </g>
        <svg viewBox="0 0 15 15" width="100%" height="30px" preserveAspectRatio="xMaxYMin meet">
         <g id="arrow_out" transform="scale(0.3 0.3)">
          <a xlink:href="ntv2captionencoder608_8h__incl_org.svg" target="_base">
           <rect id="button" ry="5" rx="5" y="6" x="6" height="38" width="38"
                fill="#f2f5e9" fill-opacity="0.5" stroke="#606060" stroke-width="1.0"/>
           <path id="arrow"
             d="M 11.500037,31.436501 C 11.940474,20.09759 22.043105,11.32322 32.158766,21.979434 L 37.068811,17.246167 C 37.068811,17.246167 37.088388,32 37.088388,32 L 22.160133,31.978069 C 22.160133,31.978069 26.997745,27.140456 26.997745,27.140456 C 18.528582,18.264221 13.291696,25.230495 11.500037,31.436501 z"
             style="fill:#404040;"/>
          </a>
         </g>
        </svg>
</svg>
