<?xml version="1.0" encoding="UTF-8" standalone="no"?>
<!DOCTYPE svg PUBLIC "-//W3C//DTD SVG 1.1//EN"
 "http://www.w3.org/Graphics/SVG/1.1/DTD/svg11.dtd">
<!-- Generated by graphviz version 2.40.1 (0)
 -->
<!-- Title: /home/tcbuilder/buildAgent/work/df8e8cce5bebfd58/libajantv2/ajaanc/includes/ancillarydata_hdmi_aux.h Pages: 1 -->
<svg width="384pt" height="139pt"
 viewBox="0.00 0.00 384.00 139.00" xmlns="http://www.w3.org/2000/svg" xmlns:xlink="http://www.w3.org/1999/xlink">
<g id="graph0" class="graph" transform="scale(1 1) rotate(0) translate(4 135)">
<title>/home/tcbuilder/buildAgent/work/df8e8cce5bebfd58/libajantv2/ajaanc/includes/ancillarydata_hdmi_aux.h</title>
<polygon fill="#ffffff" stroke="transparent" points="-4,4 -4,-135 380,-135 380,4 -4,4"/>
<!-- Node21 -->
<g id="node1" class="node">
<title>Node21</title>
<polygon fill="#bfbfbf" stroke="#000000" points="108.5,-78.5 108.5,-130.5 275.5,-130.5 275.5,-78.5 108.5,-78.5"/>
<text text-anchor="start" x="116.5" y="-118.5" font-family="Helvetica,sans-Serif" font-size="10.00" fill="#000000">/home/tcbuilder/buildAgent</text>
<text text-anchor="start" x="116.5" y="-107.5" font-family="Helvetica,sans-Serif" font-size="10.00" fill="#000000">/work/df8e8cce5bebfd58/libajantv2</text>
<text text-anchor="start" x="116.5" y="-96.5" font-family="Helvetica,sans-Serif" font-size="10.00" fill="#000000">/ajaanc/includes/ancillarydata</text>
<text text-anchor="middle" x="192" y="-85.5" font-family="Helvetica,sans-Serif" font-size="10.00" fill="#000000">_hdmi_aux.h</text>
</g>
<!-- Node22 -->
<g id="node2" class="node">
<title>Node22</title>
<g id="a_node2"><a xlink:href="../../da/df1/ancillarydata__hdmi__aux_8cpp.html" target="_top" xlink:title="/home/tcbuilder/buildAgent\l/work/df8e8cce5bebfd58/libajantv2\l/ajaanc/src/ancillarydata_hdmi_aux.cpp">
<polygon fill="#ffffff" stroke="#000000" points="0,-.5 0,-41.5 188,-41.5 188,-.5 0,-.5"/>
<text text-anchor="start" x="8" y="-29.5" font-family="Helvetica,sans-Serif" font-size="10.00" fill="#000000">/home/tcbuilder/buildAgent</text>
<text text-anchor="start" x="8" y="-18.5" font-family="Helvetica,sans-Serif" font-size="10.00" fill="#000000">/work/df8e8cce5bebfd58/libajantv2</text>
<text text-anchor="middle" x="94" y="-7.5" font-family="Helvetica,sans-Serif" font-size="10.00" fill="#000000">/ajaanc/src/ancillarydata_hdmi_aux.cpp</text>
</a>
</g>
</g>
<!-- Node21&#45;&gt;Node22 -->
<g id="edge1" class="edge">
<title>Node21&#45;&gt;Node22</title>
<path fill="none" stroke="#191970" d="M153.5663,-71.753C141.6156,-61.5705 128.7845,-50.6378 118.1029,-41.5367"/>
<polygon fill="#191970" stroke="#191970" points="151.3794,-74.4878 161.2611,-78.3092 155.9193,-69.1595 151.3794,-74.4878"/>
</g>
<!-- Node23 -->
<g id="node3" class="node">
<title>Node23</title>
<g id="a_node3"><a xlink:href="../../da/d7b/ancillarydatafactory_8cpp.html" target="_top" xlink:title="Implementation of the AJAAncillaryDataFactory class. ">
<polygon fill="#ffffff" stroke="#000000" points="206,-.5 206,-41.5 376,-41.5 376,-.5 206,-.5"/>
<text text-anchor="start" x="214" y="-29.5" font-family="Helvetica,sans-Serif" font-size="10.00" fill="#000000">/home/tcbuilder/buildAgent</text>
<text text-anchor="start" x="214" y="-18.5" font-family="Helvetica,sans-Serif" font-size="10.00" fill="#000000">/work/df8e8cce5bebfd58/libajantv2</text>
<text text-anchor="middle" x="291" y="-7.5" font-family="Helvetica,sans-Serif" font-size="10.00" fill="#000000">/ajaanc/src/ancillarydatafactory.cpp</text>
</a>
</g>
</g>
<!-- Node21&#45;&gt;Node23 -->
<g id="edge2" class="edge">
<title>Node21&#45;&gt;Node23</title>
<path fill="none" stroke="#191970" d="M230.8258,-71.753C242.8985,-61.5705 255.8606,-50.6378 266.6511,-41.5367"/>
<polygon fill="#191970" stroke="#191970" points="228.4402,-69.1864 223.0526,-78.3092 232.9533,-74.5373 228.4402,-69.1864"/>
</g>
</g>
</svg>
