<?xml version="1.0" encoding="UTF-8" standalone="no"?>
<!DOCTYPE svg PUBLIC "-//W3C//DTD SVG 1.1//EN"
 "http://www.w3.org/Graphics/SVG/1.1/DTD/svg11.dtd">
<!-- Generated by graphviz version 2.40.1 (0)
 -->
<!-- Title: CNTV2Caption708ServiceBlockQueue Pages: 1 -->
<svg width="165pt" height="163pt"
 viewBox="0.00 0.00 165.00 163.00" xmlns="http://www.w3.org/2000/svg" xmlns:xlink="http://www.w3.org/1999/xlink">
<g id="graph0" class="graph" transform="scale(1 1) rotate(0) translate(4 159)">
<title>CNTV2Caption708ServiceBlockQueue</title>
<polygon fill="#ffffff" stroke="transparent" points="-4,4 -4,-159 161,-159 161,4 -4,4"/>
<!-- Node2 -->
<g id="node1" class="node">
<title>Node2</title>
<polygon fill="#bfbfbf" stroke="#000000" points="0,-.5 0,-30.5 157,-30.5 157,-.5 0,-.5"/>
<text text-anchor="start" x="8" y="-18.5" font-family="Helvetica,sans-Serif" font-size="10.00" fill="#000000">CNTV2Caption708ServiceBlock</text>
<text text-anchor="middle" x="78.5" y="-7.5" font-family="Helvetica,sans-Serif" font-size="10.00" fill="#000000">Queue</text>
</g>
<!-- Node3 -->
<g id="node2" class="node">
<title>Node3</title>
<g id="a_node2"><a xlink:href="../../d6/d59/class_c_n_t_v2_caption_log_config.html" target="_top" xlink:title="CNTV2CaptionLogConfig">
<polygon fill="#ffffff" stroke="#000000" points="14.5,-68.5 14.5,-87.5 142.5,-87.5 142.5,-68.5 14.5,-68.5"/>
<text text-anchor="middle" x="78.5" y="-75.5" font-family="Helvetica,sans-Serif" font-size="10.00" fill="#000000">CNTV2CaptionLogConfig</text>
</a>
</g>
</g>
<!-- Node3&#45;&gt;Node2 -->
<g id="edge1" class="edge">
<title>Node3&#45;&gt;Node2</title>
<path fill="none" stroke="#191970" d="M78.5,-58.0501C78.5,-49.2205 78.5,-39.0001 78.5,-30.7892"/>
<polygon fill="#191970" stroke="#191970" points="75.0001,-58.2343 78.5,-68.2344 82.0001,-58.2344 75.0001,-58.2343"/>
</g>
<!-- Node4 -->
<g id="node3" class="node">
<title>Node4</title>
<polygon fill="#ffffff" stroke="#bfbfbf" points="58,-135.5 58,-154.5 99,-154.5 99,-135.5 58,-135.5"/>
<text text-anchor="middle" x="78.5" y="-142.5" font-family="Helvetica,sans-Serif" font-size="10.00" fill="#000000">string</text>
</g>
<!-- Node4&#45;&gt;Node3 -->
<g id="edge2" class="edge">
<title>Node4&#45;&gt;Node3</title>
<path fill="none" stroke="#9a32cd" stroke-dasharray="5,2" d="M78.5,-125.1079C78.5,-112.714 78.5,-97.3263 78.5,-87.5817"/>
<polygon fill="#9a32cd" stroke="#9a32cd" points="75.0001,-125.4005 78.5,-135.4005 82.0001,-125.4006 75.0001,-125.4005"/>
<text text-anchor="middle" x="104" y="-109" font-family="Helvetica,sans-Serif" font-size="10.00" fill="#000000"> mLogLabel</text>
</g>
</g>
</svg>
