<?xml version="1.0" encoding="UTF-8" standalone="no"?>
<!DOCTYPE svg PUBLIC "-//W3C//DTD SVG 1.1//EN"
 "http://www.w3.org/Graphics/SVG/1.1/DTD/svg11.dtd">
<!-- Generated by graphviz version 2.43.0 (0)
 -->
<!-- Title: /home/tcbuilder/buildAgent/work/df8e8cce5bebfd58/libajantv2/ajaanc/includes/ancillarydata_framestatusinfo524D.h Pages: 1 -->
<svg width="480pt" height="139pt"
 viewBox="0.00 0.00 480.00 139.00" xmlns="http://www.w3.org/2000/svg" xmlns:xlink="http://www.w3.org/1999/xlink">
<g id="graph0" class="graph" transform="scale(1 1) rotate(0) translate(4 135)">
<title>/home/tcbuilder/buildAgent/work/df8e8cce5bebfd58/libajantv2/ajaanc/includes/ancillarydata_framestatusinfo524D.h</title>
<polygon fill="white" stroke="transparent" points="-4,4 -4,-135 476,-135 476,4 -4,4"/>
<!-- Node1 -->
<g id="node1" class="node">
<title>Node1</title>
<g id="a_node1"><a xlink:title="Declares the AJAAncillaryData_FrameStatusInfo524D class.">
<polygon fill="#bfbfbf" stroke="black" points="160.5,-78.5 160.5,-130.5 348.5,-130.5 348.5,-78.5 160.5,-78.5"/>
<text text-anchor="start" x="168.5" y="-118.5" font-family="Helvetica,sans-Serif" font-size="10.00">/home/tcbuilder/buildAgent</text>
<text text-anchor="start" x="168.5" y="-107.5" font-family="Helvetica,sans-Serif" font-size="10.00">/work/df8e8cce5bebfd58/libajantv2</text>
<text text-anchor="start" x="168.5" y="-96.5" font-family="Helvetica,sans-Serif" font-size="10.00">/ajaanc/includes/ancillarydata</text>
<text text-anchor="middle" x="254.5" y="-85.5" font-family="Helvetica,sans-Serif" font-size="10.00">_framestatusinfo524D.h</text>
</a>
</g>
</g>
<!-- Node2 -->
<g id="node2" class="node">
<title>Node2</title>
<g id="a_node2"><a xlink:href="../../d4/df8/ancillarydata__framestatusinfo524_d_8cpp.html" target="_top" xlink:title="Implements the AJAAncillaryData_FrameStatusInfo524D class.">
<polygon fill="white" stroke="black" points="0,-0.5 0,-41.5 265,-41.5 265,-0.5 0,-0.5"/>
<text text-anchor="start" x="8" y="-29.5" font-family="Helvetica,sans-Serif" font-size="10.00">/home/tcbuilder/buildAgent</text>
<text text-anchor="start" x="8" y="-18.5" font-family="Helvetica,sans-Serif" font-size="10.00">/work/df8e8cce5bebfd58/libajantv2</text>
<text text-anchor="middle" x="132.5" y="-7.5" font-family="Helvetica,sans-Serif" font-size="10.00">/ajaanc/src/ancillarydata_framestatusinfo524D.cpp</text>
</a>
</g>
</g>
<!-- Node1&#45;&gt;Node2 -->
<g id="edge1" class="edge">
<title>Node1&#45;&gt;Node2</title>
<path fill="none" stroke="midnightblue" d="M208.43,-72.73C192.88,-62.34 175.96,-51.03 162.04,-41.73"/>
<polygon fill="midnightblue" stroke="midnightblue" points="206.64,-75.74 216.9,-78.38 210.53,-69.92 206.64,-75.74"/>
</g>
<!-- Node3 -->
<g id="node3" class="node">
<title>Node3</title>
<g id="a_node3"><a xlink:href="../../da/d7b/ancillarydatafactory_8cpp.html" target="_top" xlink:title="Implementation of the AJAAncillaryDataFactory class.">
<polygon fill="white" stroke="black" points="283,-0.5 283,-41.5 472,-41.5 472,-0.5 283,-0.5"/>
<text text-anchor="start" x="291" y="-29.5" font-family="Helvetica,sans-Serif" font-size="10.00">/home/tcbuilder/buildAgent</text>
<text text-anchor="start" x="291" y="-18.5" font-family="Helvetica,sans-Serif" font-size="10.00">/work/df8e8cce5bebfd58/libajantv2</text>
<text text-anchor="middle" x="377.5" y="-7.5" font-family="Helvetica,sans-Serif" font-size="10.00">/ajaanc/src/ancillarydatafactory.cpp</text>
</a>
</g>
</g>
<!-- Node1&#45;&gt;Node3 -->
<g id="edge2" class="edge">
<title>Node1&#45;&gt;Node3</title>
<path fill="none" stroke="midnightblue" d="M300.94,-72.73C316.62,-62.34 333.69,-51.03 347.72,-41.73"/>
<polygon fill="midnightblue" stroke="midnightblue" points="298.81,-69.94 292.41,-78.38 302.68,-75.78 298.81,-69.94"/>
</g>
</g>
</svg>
