<?xml version="1.0" encoding="UTF-8" standalone="no"?>
<!DOCTYPE svg PUBLIC "-//W3C//DTD SVG 1.1//EN"
 "http://www.w3.org/Graphics/SVG/1.1/DTD/svg11.dtd">
<!-- Generated by graphviz version 2.40.1 (0)
 -->
<!-- Title: KSPROPERTY_AJAPROPS_AUTOCIRC_TRANSFER_S Pages: 1 -->
<svg width="903pt" height="170pt"
 viewBox="0.00 0.00 903.00 169.50" xmlns="http://www.w3.org/2000/svg" xmlns:xlink="http://www.w3.org/1999/xlink">
<g id="graph0" class="graph" transform="scale(1 1) rotate(0) translate(4 165.5)">
<title>KSPROPERTY_AJAPROPS_AUTOCIRC_TRANSFER_S</title>
<polygon fill="#ffffff" stroke="transparent" points="-4,4 -4,-165.5 899,-165.5 899,4 -4,4"/>
<!-- Node1 -->
<g id="node1" class="node">
<title>Node1</title>
<polygon fill="#bfbfbf" stroke="#000000" points="749,-96 749,-126 895,-126 895,-96 749,-96"/>
<text text-anchor="start" x="757" y="-114" font-family="Helvetica,sans-Serif" font-size="10.00" fill="#000000">KSPROPERTY_AJAPROPS</text>
<text text-anchor="middle" x="822" y="-103" font-family="Helvetica,sans-Serif" font-size="10.00" fill="#000000">_AUTOCIRC_TRANSFER_S</text>
</g>
<!-- Node2 -->
<g id="node2" class="node">
<title>Node2</title>
<g id="a_node2"><a xlink:href="../../d0/dee/struct_a_u_t_o_c_i_r_c_u_l_a_t_e___t_r_a_n_s_f_e_r___s_t_r_u_c_t.html" target="_top" xlink:title="AUTOCIRCULATE_TRANSFER\l_STRUCT">
<polygon fill="#ffffff" stroke="#000000" points="255,-69 255,-99 416,-99 416,-69 255,-69"/>
<text text-anchor="start" x="263" y="-87" font-family="Helvetica,sans-Serif" font-size="10.00" fill="#000000">AUTOCIRCULATE_TRANSFER</text>
<text text-anchor="middle" x="335.5" y="-76" font-family="Helvetica,sans-Serif" font-size="10.00" fill="#000000">_STRUCT</text>
</a>
</g>
</g>
<!-- Node2&#45;&gt;Node1 -->
<g id="edge1" class="edge">
<title>Node2&#45;&gt;Node1</title>
<path fill="none" stroke="#9a32cd" stroke-dasharray="5,2" d="M426.3704,-89.0432C519.5407,-94.214 662.646,-102.1561 748.8004,-106.9375"/>
<polygon fill="#9a32cd" stroke="#9a32cd" points="426.2871,-85.5332 416.1085,-88.4736 425.8991,-92.5225 426.2871,-85.5332"/>
<text text-anchor="middle" x="589.5" y="-105" font-family="Helvetica,sans-Serif" font-size="10.00" fill="#000000"> acTransfer</text>
</g>
<!-- Node3 -->
<g id="node3" class="node">
<title>Node3</title>
<g id="a_node3"><a xlink:href="../../d6/d30/struct_n_t_v2_color_correction_info.html" target="_top" xlink:title="NTV2ColorCorrectionInfo">
<polygon fill="#ffffff" stroke="#000000" points="3,-76.5 3,-95.5 130,-95.5 130,-76.5 3,-76.5"/>
<text text-anchor="middle" x="66.5" y="-83.5" font-family="Helvetica,sans-Serif" font-size="10.00" fill="#000000">NTV2ColorCorrectionInfo</text>
</a>
</g>
</g>
<!-- Node3&#45;&gt;Node2 -->
<g id="edge2" class="edge">
<title>Node3&#45;&gt;Node2</title>
<path fill="none" stroke="#9a32cd" stroke-dasharray="5,2" d="M140.364,-85.0983C143.96,-85.0631 147.5203,-85.03 151,-85 184.9524,-84.7071 222.42,-84.4853 254.6708,-84.3259"/>
<polygon fill="#9a32cd" stroke="#9a32cd" points="140.1357,-81.6004 130.1722,-85.2028 140.2075,-88.6 140.1357,-81.6004"/>
<text text-anchor="middle" x="194" y="-88" font-family="Helvetica,sans-Serif" font-size="10.00" fill="#000000"> colorCorrectionInfo</text>
</g>
<!-- Node4 -->
<g id="node4" class="node">
<title>Node4</title>
<g id="a_node4"><a xlink:href="../../d3/d95/struct_r_p188___s_t_r_u_c_t.html" target="_top" xlink:title="RP188_STRUCT">
<polygon fill="#ffffff" stroke="#000000" points="20,-127.5 20,-146.5 113,-146.5 113,-127.5 20,-127.5"/>
<text text-anchor="middle" x="66.5" y="-134.5" font-family="Helvetica,sans-Serif" font-size="10.00" fill="#000000">RP188_STRUCT</text>
</a>
</g>
</g>
<!-- Node4&#45;&gt;Node2 -->
<g id="edge3" class="edge">
<title>Node4&#45;&gt;Node2</title>
<path fill="none" stroke="#9a32cd" stroke-dasharray="5,2" d="M123.0564,-125.8569C162.6338,-118.0591 215.9598,-107.5525 259.2833,-99.0167"/>
<polygon fill="#9a32cd" stroke="#9a32cd" points="122.1839,-122.4615 113.0491,-127.8286 123.5371,-129.3294 122.1839,-122.4615"/>
<text text-anchor="middle" x="194" y="-122" font-family="Helvetica,sans-Serif" font-size="10.00" fill="#000000"> rp188</text>
</g>
<!-- Node8 -->
<g id="node8" class="node">
<title>Node8</title>
<g id="a_node8"><a xlink:href="../../d8/d37/struct_f_r_a_m_e___s_t_a_m_p___s_t_r_u_c_t.html" target="_top" xlink:title="FRAME_STAMP_STRUCT">
<polygon fill="#ffffff" stroke="#000000" points="267,-140.5 267,-159.5 404,-159.5 404,-140.5 267,-140.5"/>
<text text-anchor="middle" x="335.5" y="-147.5" font-family="Helvetica,sans-Serif" font-size="10.00" fill="#000000">FRAME_STAMP_STRUCT</text>
</a>
</g>
</g>
<!-- Node4&#45;&gt;Node8 -->
<g id="edge8" class="edge">
<title>Node4&#45;&gt;Node8</title>
<path fill="none" stroke="#9a32cd" stroke-dasharray="5,2" d="M123.0852,-139.7346C164.9921,-141.7598 222.302,-144.5295 266.8327,-146.6815"/>
<polygon fill="#9a32cd" stroke="#9a32cd" points="123.2064,-136.2365 113.0491,-139.2496 122.8685,-143.2283 123.2064,-136.2365"/>
<text text-anchor="middle" x="194" y="-148" font-family="Helvetica,sans-Serif" font-size="10.00" fill="#000000"> currentRP188</text>
</g>
<!-- Node5 -->
<g id="node5" class="node">
<title>Node5</title>
<g id="a_node5"><a xlink:href="../../d3/d14/struct_auto_circ_vid_proc_info.html" target="_top" xlink:title="AutoCircVidProcInfo">
<polygon fill="#ffffff" stroke="#000000" points="13.5,-.5 13.5,-19.5 119.5,-19.5 119.5,-.5 13.5,-.5"/>
<text text-anchor="middle" x="66.5" y="-7.5" font-family="Helvetica,sans-Serif" font-size="10.00" fill="#000000">AutoCircVidProcInfo</text>
</a>
</g>
</g>
<!-- Node5&#45;&gt;Node2 -->
<g id="edge4" class="edge">
<title>Node5&#45;&gt;Node2</title>
<path fill="none" stroke="#9a32cd" stroke-dasharray="5,2" d="M130.0289,-19.14C162.4257,-24.5923 202.2263,-32.5167 237,-43 259.8776,-49.897 284.7101,-60.2539 303.7183,-68.8325"/>
<polygon fill="#9a32cd" stroke="#9a32cd" points="130.2217,-15.6248 119.7864,-17.4565 129.0863,-22.5321 130.2217,-15.6248"/>
<text text-anchor="middle" x="194" y="-46" font-family="Helvetica,sans-Serif" font-size="10.00" fill="#000000"> vidProcInfo</text>
</g>
<!-- Node6 -->
<g id="node6" class="node">
<title>Node6</title>
<g id="a_node6"><a xlink:href="../../d5/dd5/struct_c_u_s_t_o_m___a_n_c___s_t_r_u_c_t.html" target="_top" xlink:title="CUSTOM_ANC_STRUCT">
<polygon fill="#ffffff" stroke="#000000" points="0,-38.5 0,-57.5 133,-57.5 133,-38.5 0,-38.5"/>
<text text-anchor="middle" x="66.5" y="-45.5" font-family="Helvetica,sans-Serif" font-size="10.00" fill="#000000">CUSTOM_ANC_STRUCT</text>
</a>
</g>
</g>
<!-- Node6&#45;&gt;Node2 -->
<g id="edge5" class="edge">
<title>Node6&#45;&gt;Node2</title>
<path fill="none" stroke="#9a32cd" stroke-dasharray="5,2" d="M143.5269,-57.0139C172.8163,-60.5656 206.474,-64.7967 237,-69 242.8263,-69.8023 248.8424,-70.656 254.8952,-71.5334"/>
<polygon fill="#9a32cd" stroke="#9a32cd" points="143.7087,-53.5105 133.3613,-55.7871 142.8699,-60.4601 143.7087,-53.5105"/>
<text text-anchor="middle" x="194" y="-72" font-family="Helvetica,sans-Serif" font-size="10.00" fill="#000000"> customAncInfo</text>
</g>
<!-- Node7 -->
<g id="node7" class="node">
<title>Node7</title>
<g id="a_node7"><a xlink:href="../../d7/d19/struct_a_u_t_o_c_i_r_c_u_l_a_t_e___t_r_a_n_s_f_e_r___s_t_a_t_u_s___s_t_r_u_c_t.html" target="_top" xlink:title="AUTOCIRCULATE_TRANSFER\l_STATUS_STRUCT">
<polygon fill="#ffffff" stroke="#000000" points="509,-131 509,-161 670,-161 670,-131 509,-131"/>
<text text-anchor="start" x="517" y="-149" font-family="Helvetica,sans-Serif" font-size="10.00" fill="#000000">AUTOCIRCULATE_TRANSFER</text>
<text text-anchor="middle" x="589.5" y="-138" font-family="Helvetica,sans-Serif" font-size="10.00" fill="#000000">_STATUS_STRUCT</text>
</a>
</g>
</g>
<!-- Node7&#45;&gt;Node1 -->
<g id="edge6" class="edge">
<title>Node7&#45;&gt;Node1</title>
<path fill="none" stroke="#9a32cd" stroke-dasharray="5,2" d="M680.1698,-132.3508C702.9377,-128.9234 727.083,-125.2886 748.873,-122.0084"/>
<polygon fill="#9a32cd" stroke="#9a32cd" points="679.5323,-128.9072 670.1647,-133.8569 680.5743,-135.8292 679.5323,-128.9072"/>
<text text-anchor="middle" x="709.5" y="-133" font-family="Helvetica,sans-Serif" font-size="10.00" fill="#000000"> acStatus</text>
</g>
<!-- Node8&#45;&gt;Node7 -->
<g id="edge7" class="edge">
<title>Node8&#45;&gt;Node7</title>
<path fill="none" stroke="#9a32cd" stroke-dasharray="5,2" d="M414.2712,-148.7595C444.3776,-148.2854 478.7307,-147.7444 508.9965,-147.2678"/>
<polygon fill="#9a32cd" stroke="#9a32cd" points="414.1797,-145.2604 404.2361,-148.9175 414.29,-152.2595 414.1797,-145.2604"/>
<text text-anchor="middle" x="462.5" y="-151" font-family="Helvetica,sans-Serif" font-size="10.00" fill="#000000"> frameStamp</text>
</g>
</g>
</svg>
