<?xml version="1.0" encoding="UTF-8" standalone="no"?>
<!DOCTYPE svg PUBLIC "-//W3C//DTD SVG 1.1//EN"
 "http://www.w3.org/Graphics/SVG/1.1/DTD/svg11.dtd">
<!-- Generated by graphviz version 2.43.0 (0)
 -->
<!-- Title: /home/tcbuilder/buildAgent/work/df8e8cce5bebfd58/libajantv2/ajantv2/includes/ntv2cscmatrix.h Pages: 1 -->
<svg width="412pt" height="206pt"
 viewBox="0.00 0.00 411.50 206.00" xmlns="http://www.w3.org/2000/svg" xmlns:xlink="http://www.w3.org/1999/xlink">
<g id="graph0" class="graph" transform="scale(1 1) rotate(0) translate(4 202)">
<title>/home/tcbuilder/buildAgent/work/df8e8cce5bebfd58/libajantv2/ajantv2/includes/ntv2cscmatrix.h</title>
<polygon fill="white" stroke="transparent" points="-4,4 -4,-202 407.5,-202 407.5,4 -4,4"/>
<!-- Node1 -->
<g id="node1" class="node">
<title>Node1</title>
<g id="a_node1"><a xlink:title="Declares the utility class for abstract color space matrix operations.">
<polygon fill="#bfbfbf" stroke="black" points="109.5,-156.5 109.5,-197.5 297.5,-197.5 297.5,-156.5 109.5,-156.5"/>
<text text-anchor="start" x="117.5" y="-185.5" font-family="Helvetica,sans-Serif" font-size="10.00">/home/tcbuilder/buildAgent</text>
<text text-anchor="start" x="117.5" y="-174.5" font-family="Helvetica,sans-Serif" font-size="10.00">/work/df8e8cce5bebfd58/libajantv2</text>
<text text-anchor="middle" x="203.5" y="-163.5" font-family="Helvetica,sans-Serif" font-size="10.00">/ajantv2/includes/ntv2cscmatrix.h</text>
</a>
</g>
</g>
<!-- Node2 -->
<g id="node2" class="node">
<title>Node2</title>
<g id="a_node2"><a xlink:href="../../d9/d62/ntv2enhancedcsc_8h.html" target="_top" xlink:title="Declares the CNTV2EnhancedCSC class.">
<polygon fill="white" stroke="black" points="0,-78.5 0,-119.5 197,-119.5 197,-78.5 0,-78.5"/>
<text text-anchor="start" x="8" y="-107.5" font-family="Helvetica,sans-Serif" font-size="10.00">/home/tcbuilder/buildAgent</text>
<text text-anchor="start" x="8" y="-96.5" font-family="Helvetica,sans-Serif" font-size="10.00">/work/df8e8cce5bebfd58/libajantv2</text>
<text text-anchor="middle" x="98.5" y="-85.5" font-family="Helvetica,sans-Serif" font-size="10.00">/ajantv2/includes/ntv2enhancedcsc.h</text>
</a>
</g>
</g>
<!-- Node1&#45;&gt;Node2 -->
<g id="edge1" class="edge">
<title>Node1&#45;&gt;Node2</title>
<path fill="none" stroke="midnightblue" d="M168.06,-150.35C154.14,-140.27 138.42,-128.89 125.45,-119.51"/>
<polygon fill="midnightblue" stroke="midnightblue" points="166.31,-153.4 176.46,-156.43 170.41,-147.73 166.31,-153.4"/>
</g>
<!-- Node4 -->
<g id="node4" class="node">
<title>Node4</title>
<g id="a_node4"><a xlink:href="../../d8/d3e/ntv2cscmatrix_8cpp.html" target="_top" xlink:title="Implementation of the CNTV2CSCMatrix class for abstract color space matrix operations.">
<polygon fill="white" stroke="black" points="215.5,-78.5 215.5,-119.5 403.5,-119.5 403.5,-78.5 215.5,-78.5"/>
<text text-anchor="start" x="223.5" y="-107.5" font-family="Helvetica,sans-Serif" font-size="10.00">/home/tcbuilder/buildAgent</text>
<text text-anchor="start" x="223.5" y="-96.5" font-family="Helvetica,sans-Serif" font-size="10.00">/work/df8e8cce5bebfd58/libajantv2</text>
<text text-anchor="middle" x="309.5" y="-85.5" font-family="Helvetica,sans-Serif" font-size="10.00">/ajantv2/src/ntv2cscmatrix.cpp</text>
</a>
</g>
</g>
<!-- Node1&#45;&gt;Node4 -->
<g id="edge3" class="edge">
<title>Node1&#45;&gt;Node4</title>
<path fill="none" stroke="midnightblue" d="M239.27,-150.35C253.33,-140.27 269.2,-128.89 282.29,-119.51"/>
<polygon fill="midnightblue" stroke="midnightblue" points="236.89,-147.76 230.8,-156.43 240.96,-153.45 236.89,-147.76"/>
</g>
<!-- Node3 -->
<g id="node3" class="node">
<title>Node3</title>
<g id="a_node3"><a xlink:href="../../d6/dc8/ntv2enhancedcsc_8cpp.html" target="_top" xlink:title="Implementation of CNTV2EnhancedCSC class.">
<polygon fill="white" stroke="black" points="4.5,-0.5 4.5,-41.5 192.5,-41.5 192.5,-0.5 4.5,-0.5"/>
<text text-anchor="start" x="12.5" y="-29.5" font-family="Helvetica,sans-Serif" font-size="10.00">/home/tcbuilder/buildAgent</text>
<text text-anchor="start" x="12.5" y="-18.5" font-family="Helvetica,sans-Serif" font-size="10.00">/work/df8e8cce5bebfd58/libajantv2</text>
<text text-anchor="middle" x="98.5" y="-7.5" font-family="Helvetica,sans-Serif" font-size="10.00">/ajantv2/src/ntv2enhancedcsc.cpp</text>
</a>
</g>
</g>
<!-- Node2&#45;&gt;Node3 -->
<g id="edge2" class="edge">
<title>Node2&#45;&gt;Node3</title>
<path fill="none" stroke="midnightblue" d="M98.5,-68.3C98.5,-59.3 98.5,-49.65 98.5,-41.51"/>
<polygon fill="midnightblue" stroke="midnightblue" points="95,-68.43 98.5,-78.43 102,-68.43 95,-68.43"/>
</g>
</g>
</svg>
