<?xml version="1.0" encoding="UTF-8" standalone="no"?>
<!DOCTYPE svg PUBLIC "-//W3C//DTD SVG 1.1//EN"
 "http://www.w3.org/Graphics/SVG/1.1/DTD/svg11.dtd">
<!-- Generated by graphviz version 2.43.0 (0)
 -->
<!-- Title: /home/tcbuilder/buildAgent/work/df8e8cce5bebfd58/libajantv2/ajabase/system/windows/threadimpl.h Pages: 1 -->
<svg width="594pt" height="218pt"
 viewBox="0.00 0.00 594.00 218.00" xmlns="http://www.w3.org/2000/svg" xmlns:xlink="http://www.w3.org/1999/xlink">
<g id="graph0" class="graph" transform="scale(1 1) rotate(0) translate(4 214)">
<title>/home/tcbuilder/buildAgent/work/df8e8cce5bebfd58/libajantv2/ajabase/system/windows/threadimpl.h</title>
<polygon fill="white" stroke="transparent" points="-4,4 -4,-214 590,-214 590,4 -4,4"/>
<!-- Node1 -->
<g id="node1" class="node">
<title>Node1</title>
<g id="a_node1"><a xlink:title="Declares the AJAThreadImpl class.">
<polygon fill="#bfbfbf" stroke="black" points="184,-168.5 184,-209.5 392,-209.5 392,-168.5 184,-168.5"/>
<text text-anchor="start" x="192" y="-197.5" font-family="Helvetica,sans-Serif" font-size="10.00">/home/tcbuilder/buildAgent</text>
<text text-anchor="start" x="192" y="-186.5" font-family="Helvetica,sans-Serif" font-size="10.00">/work/df8e8cce5bebfd58/libajantv2</text>
<text text-anchor="middle" x="288" y="-175.5" font-family="Helvetica,sans-Serif" font-size="10.00">/ajabase/system/windows/threadimpl.h</text>
</a>
</g>
</g>
<!-- Node2 -->
<g id="node2" class="node">
<title>Node2</title>
<g id="a_node2"><a xlink:href="../../dc/db2/system_8h.html" target="_top" xlink:title="System specific functions.">
<polygon fill="white" stroke="black" points="138,-112.5 138,-131.5 280,-131.5 280,-112.5 138,-112.5"/>
<text text-anchor="middle" x="209" y="-119.5" font-family="Helvetica,sans-Serif" font-size="10.00">ajabase/system/system.h</text>
</a>
</g>
</g>
<!-- Node1&#45;&gt;Node2 -->
<g id="edge1" class="edge">
<title>Node1&#45;&gt;Node2</title>
<path fill="none" stroke="midnightblue" d="M264.3,-168.5C252.42,-158.72 238.26,-147.07 227.24,-138.01"/>
<polygon fill="midnightblue" stroke="midnightblue" points="229.46,-135.3 219.52,-131.65 225.01,-140.71 229.46,-135.3"/>
</g>
<!-- Node10 -->
<g id="node10" class="node">
<title>Node10</title>
<g id="a_node10"><a xlink:href="../../dc/d54/common_8h.html" target="_top" xlink:title="Private include file for all ajabase sources.">
<polygon fill="white" stroke="black" points="44.5,-56.5 44.5,-75.5 199.5,-75.5 199.5,-56.5 44.5,-56.5"/>
<text text-anchor="middle" x="122" y="-63.5" font-family="Helvetica,sans-Serif" font-size="10.00">ajabase/common/common.h</text>
</a>
</g>
</g>
<!-- Node1&#45;&gt;Node10 -->
<g id="edge9" class="edge">
<title>Node1&#45;&gt;Node10</title>
<path fill="none" stroke="midnightblue" d="M183.61,-169.9C162.69,-161.62 142.9,-149.55 129,-132 118.77,-119.08 117.89,-99.91 119.05,-85.73"/>
<polygon fill="midnightblue" stroke="midnightblue" points="122.54,-86 120.27,-75.65 115.59,-85.15 122.54,-86"/>
</g>
<!-- Node12 -->
<g id="node12" class="node">
<title>Node12</title>
<g id="a_node12"><a xlink:href="../../db/dd5/thread_8h.html" target="_top" xlink:title="Declares the AJAThread class.">
<polygon fill="white" stroke="black" points="298.5,-112.5 298.5,-131.5 435.5,-131.5 435.5,-112.5 298.5,-112.5"/>
<text text-anchor="middle" x="367" y="-119.5" font-family="Helvetica,sans-Serif" font-size="10.00">ajabase/system/thread.h</text>
</a>
</g>
</g>
<!-- Node1&#45;&gt;Node12 -->
<g id="edge14" class="edge">
<title>Node1&#45;&gt;Node12</title>
<path fill="none" stroke="midnightblue" d="M311.7,-168.5C323.58,-158.72 337.74,-147.07 348.76,-138.01"/>
<polygon fill="midnightblue" stroke="midnightblue" points="350.99,-140.71 356.48,-131.65 346.54,-135.3 350.99,-140.71"/>
</g>
<!-- Node13 -->
<g id="node13" class="node">
<title>Node13</title>
<g id="a_node13"><a xlink:href="../../dd/d42/lock_8h.html" target="_top" xlink:title="Declares the AJALock class.">
<polygon fill="white" stroke="black" points="454,-112.5 454,-131.5 580,-131.5 580,-112.5 454,-112.5"/>
<text text-anchor="middle" x="517" y="-119.5" font-family="Helvetica,sans-Serif" font-size="10.00">ajabase/system/lock.h</text>
</a>
</g>
</g>
<!-- Node1&#45;&gt;Node13 -->
<g id="edge16" class="edge">
<title>Node1&#45;&gt;Node13</title>
<path fill="none" stroke="midnightblue" d="M356.71,-168.5C395.99,-157.35 443.88,-143.76 477.03,-134.35"/>
<polygon fill="midnightblue" stroke="midnightblue" points="478.15,-137.66 486.82,-131.57 476.24,-130.93 478.15,-137.66"/>
</g>
<!-- Node3 -->
<g id="node3" class="node">
<title>Node3</title>
<g id="a_node3"><a xlink:href="../../d4/d79/public_8h.html" target="_top" xlink:title="Master header for the ajabase library.">
<polygon fill="white" stroke="black" points="285,-56.5 285,-75.5 427,-75.5 427,-56.5 285,-56.5"/>
<text text-anchor="middle" x="356" y="-63.5" font-family="Helvetica,sans-Serif" font-size="10.00">ajabase/common/public.h</text>
</a>
</g>
</g>
<!-- Node2&#45;&gt;Node3 -->
<g id="edge2" class="edge">
<title>Node2&#45;&gt;Node3</title>
<path fill="none" stroke="midnightblue" d="M232.29,-112.44C256.81,-103.44 295.6,-89.19 323.2,-79.05"/>
<polygon fill="midnightblue" stroke="midnightblue" points="324.64,-82.25 332.82,-75.52 322.22,-75.68 324.64,-82.25"/>
</g>
<!-- Node4 -->
<g id="node4" class="node">
<title>Node4</title>
<g id="a_node4"><a xlink:href="../../db/db5/export_8h.html" target="_top" xlink:title="Declares system&#45;dependent import/export macros and libraries.">
<polygon fill="white" stroke="black" points="50,-0.5 50,-19.5 194,-19.5 194,-0.5 50,-0.5"/>
<text text-anchor="middle" x="122" y="-7.5" font-family="Helvetica,sans-Serif" font-size="10.00">ajabase/common/export.h</text>
</a>
</g>
</g>
<!-- Node3&#45;&gt;Node4 -->
<g id="edge3" class="edge">
<title>Node3&#45;&gt;Node4</title>
<path fill="none" stroke="midnightblue" d="M318.92,-56.44C278.27,-47.06 212.97,-31.99 168.82,-21.8"/>
<polygon fill="midnightblue" stroke="midnightblue" points="169.44,-18.35 158.9,-19.52 167.86,-25.18 169.44,-18.35"/>
</g>
<!-- Node5 -->
<g id="node5" class="node">
<title>Node5</title>
<g id="a_node5"><a xlink:title=" ">
<polygon fill="white" stroke="#bfbfbf" points="212,-0.5 212,-19.5 256,-19.5 256,-0.5 212,-0.5"/>
<text text-anchor="middle" x="234" y="-7.5" font-family="Helvetica,sans-Serif" font-size="10.00">string</text>
</a>
</g>
</g>
<!-- Node3&#45;&gt;Node5 -->
<g id="edge4" class="edge">
<title>Node3&#45;&gt;Node5</title>
<path fill="none" stroke="midnightblue" d="M336.67,-56.44C316.68,-47.6 285.26,-33.69 262.44,-23.59"/>
<polygon fill="midnightblue" stroke="midnightblue" points="263.8,-20.36 253.24,-19.52 260.97,-26.76 263.8,-20.36"/>
</g>
<!-- Node6 -->
<g id="node6" class="node">
<title>Node6</title>
<g id="a_node6"><a xlink:title=" ">
<polygon fill="white" stroke="#bfbfbf" points="340,-0.5 340,-19.5 372,-19.5 372,-0.5 340,-0.5"/>
<text text-anchor="middle" x="356" y="-7.5" font-family="Helvetica,sans-Serif" font-size="10.00">list</text>
</a>
</g>
</g>
<!-- Node3&#45;&gt;Node6 -->
<g id="edge5" class="edge">
<title>Node3&#45;&gt;Node6</title>
<path fill="none" stroke="midnightblue" d="M356,-56.08C356,-49.01 356,-38.86 356,-29.99"/>
<polygon fill="midnightblue" stroke="midnightblue" points="359.5,-29.75 356,-19.75 352.5,-29.75 359.5,-29.75"/>
</g>
<!-- Node7 -->
<g id="node7" class="node">
<title>Node7</title>
<g id="a_node7"><a xlink:title=" ">
<polygon fill="white" stroke="#bfbfbf" points="274.5,-0.5 274.5,-19.5 321.5,-19.5 321.5,-0.5 274.5,-0.5"/>
<text text-anchor="middle" x="298" y="-7.5" font-family="Helvetica,sans-Serif" font-size="10.00">vector</text>
</a>
</g>
</g>
<!-- Node3&#45;&gt;Node7 -->
<g id="edge6" class="edge">
<title>Node3&#45;&gt;Node7</title>
<path fill="none" stroke="midnightblue" d="M346.68,-56.32C338.11,-48.34 325.19,-36.31 314.81,-26.65"/>
<polygon fill="midnightblue" stroke="midnightblue" points="317.19,-24.09 307.49,-19.83 312.42,-29.21 317.19,-24.09"/>
</g>
<!-- Node8 -->
<g id="node8" class="node">
<title>Node8</title>
<g id="a_node8"><a xlink:title=" ">
<polygon fill="white" stroke="#bfbfbf" points="390,-0.5 390,-19.5 428,-19.5 428,-0.5 390,-0.5"/>
<text text-anchor="middle" x="409" y="-7.5" font-family="Helvetica,sans-Serif" font-size="10.00">map</text>
</a>
</g>
</g>
<!-- Node3&#45;&gt;Node8 -->
<g id="edge7" class="edge">
<title>Node3&#45;&gt;Node8</title>
<path fill="none" stroke="midnightblue" d="M364.75,-56.08C372.47,-48.22 383.9,-36.57 393.22,-27.08"/>
<polygon fill="midnightblue" stroke="midnightblue" points="395.9,-29.34 400.41,-19.75 390.91,-24.44 395.9,-29.34"/>
</g>
<!-- Node9 -->
<g id="node9" class="node">
<title>Node9</title>
<g id="a_node9"><a xlink:href="../../d9/d49/types_8h.html" target="_top" xlink:title="Declares common types used in the ajabase library.">
<polygon fill="white" stroke="black" points="446,-0.5 446,-19.5 586,-19.5 586,-0.5 446,-0.5"/>
<text text-anchor="middle" x="516" y="-7.5" font-family="Helvetica,sans-Serif" font-size="10.00">ajabase/common/types.h</text>
</a>
</g>
</g>
<!-- Node3&#45;&gt;Node9 -->
<g id="edge8" class="edge">
<title>Node3&#45;&gt;Node9</title>
<path fill="none" stroke="midnightblue" d="M381.35,-56.44C408.27,-47.36 451,-32.94 481.09,-22.78"/>
<polygon fill="midnightblue" stroke="midnightblue" points="482.41,-26.03 490.77,-19.52 480.17,-19.4 482.41,-26.03"/>
</g>
<!-- Node10&#45;&gt;Node4 -->
<g id="edge10" class="edge">
<title>Node10&#45;&gt;Node4</title>
<path fill="none" stroke="midnightblue" d="M122,-56.08C122,-49.01 122,-38.86 122,-29.99"/>
<polygon fill="midnightblue" stroke="midnightblue" points="125.5,-29.75 122,-19.75 118.5,-29.75 125.5,-29.75"/>
</g>
<!-- Node10&#45;&gt;Node5 -->
<g id="edge12" class="edge">
<title>Node10&#45;&gt;Node5</title>
<path fill="none" stroke="midnightblue" d="M139.99,-56.32C158.04,-47.62 186.05,-34.12 206.8,-24.11"/>
<polygon fill="midnightblue" stroke="midnightblue" points="208.56,-27.15 216.05,-19.65 205.52,-20.84 208.56,-27.15"/>
</g>
<!-- Node10&#45;&gt;Node7 -->
<g id="edge13" class="edge">
<title>Node10&#45;&gt;Node7</title>
<path fill="none" stroke="midnightblue" d="M149.89,-56.44C181.07,-46.88 231.55,-31.39 264.76,-21.2"/>
<polygon fill="midnightblue" stroke="midnightblue" points="265.93,-24.5 274.47,-18.22 263.88,-17.81 265.93,-24.5"/>
</g>
<!-- Node11 -->
<g id="node11" class="node">
<title>Node11</title>
<g id="a_node11"><a xlink:title=" ">
<polygon fill="white" stroke="#bfbfbf" points="0,-0.5 0,-19.5 32,-19.5 32,-0.5 0,-0.5"/>
<text text-anchor="middle" x="16" y="-7.5" font-family="Helvetica,sans-Serif" font-size="10.00">set</text>
</a>
</g>
</g>
<!-- Node10&#45;&gt;Node11 -->
<g id="edge11" class="edge">
<title>Node10&#45;&gt;Node11</title>
<path fill="none" stroke="midnightblue" d="M104.97,-56.32C87.77,-47.56 61,-33.92 41.31,-23.9"/>
<polygon fill="midnightblue" stroke="midnightblue" points="42.79,-20.72 32.29,-19.3 39.61,-26.96 42.79,-20.72"/>
</g>
<!-- Node12&#45;&gt;Node3 -->
<g id="edge15" class="edge">
<title>Node12&#45;&gt;Node3</title>
<path fill="none" stroke="midnightblue" d="M365.18,-112.08C363.73,-104.93 361.63,-94.64 359.81,-85.69"/>
<polygon fill="midnightblue" stroke="midnightblue" points="363.21,-84.85 357.78,-75.75 356.35,-86.25 363.21,-84.85"/>
</g>
<!-- Node13&#45;&gt;Node3 -->
<g id="edge17" class="edge">
<title>Node13&#45;&gt;Node3</title>
<path fill="none" stroke="midnightblue" d="M491.49,-112.44C464.4,-103.36 421.41,-88.94 391.13,-78.78"/>
<polygon fill="midnightblue" stroke="midnightblue" points="391.99,-75.38 381.39,-75.52 389.76,-82.01 391.99,-75.38"/>
</g>
<!-- Node14 -->
<g id="node14" class="node">
<title>Node14</title>
<g id="a_node14"><a xlink:title=" ">
<polygon fill="white" stroke="#bfbfbf" points="489,-56.5 489,-75.5 545,-75.5 545,-56.5 489,-56.5"/>
<text text-anchor="middle" x="517" y="-63.5" font-family="Helvetica,sans-Serif" font-size="10.00">assert.h</text>
</a>
</g>
</g>
<!-- Node13&#45;&gt;Node14 -->
<g id="edge18" class="edge">
<title>Node13&#45;&gt;Node14</title>
<path fill="none" stroke="midnightblue" d="M517,-112.08C517,-105.01 517,-94.86 517,-85.99"/>
<polygon fill="midnightblue" stroke="midnightblue" points="520.5,-85.75 517,-75.75 513.5,-85.75 520.5,-85.75"/>
</g>
</g>
</svg>
