<?xml version="1.0" encoding="UTF-8" standalone="no"?>
<!DOCTYPE svg PUBLIC "-//W3C//DTD SVG 1.1//EN"
 "http://www.w3.org/Graphics/SVG/1.1/DTD/svg11.dtd">
<!-- Generated by graphviz version 2.43.0 (0)
 -->
<!-- Title: /home/tcbuilder/buildAgent/work/df8e8cce5bebfd58/libajantv2/ajabase/system/windows/eventimpl.cpp Pages: 1 -->
<!--zoomable 285 -->
<svg id="main" version="1.1" xmlns="http://www.w3.org/2000/svg" xmlns:xlink="http://www.w3.org/1999/xlink" xml:space="preserve" onload="init(evt)">
<style type="text/css"><![CDATA[
.edge:hover path { stroke: red; }
.edge:hover polygon { stroke: red; fill: red; }
]]></style>
<script type="text/javascript"><![CDATA[
var edges = document.getElementsByTagName('g');
if (edges && edges.length) {
  for (var i=0;i<edges.length;i++) {
    if (edges[i].id.substr(0,4)=='edge') {
      edges[i].setAttribute('class','edge');
    }
  }
}
]]></script>
        <defs>
                <circle id="rim" cx="0" cy="0" r="7"/>
                <circle id="rim2" cx="0" cy="0" r="3.5"/>
                <g id="zoomPlus">
                        <use xlink:href="#rim" fill="#404040">
                                <set attributeName="fill" to="#808080" begin="zoomplus.mouseover" end="zoomplus.mouseout"/>
                        </use>
                        <path d="M-4,0h8M0,-4v8" fill="none" stroke="white" stroke-width="1.5" pointer-events="none"/>
                </g>
                <g id="zoomMin">
                        <use xlink:href="#rim" fill="#404040">
                                <set attributeName="fill" to="#808080" begin="zoomminus.mouseover" end="zoomminus.mouseout"/>
                        </use>
                        <path d="M-4,0h8" fill="none" stroke="white" stroke-width="1.5" pointer-events="none"/>
                </g>
                <g id="dirArrow">
                        <path fill="none" stroke="white" stroke-width="1.5" d="M0,-3.0v7 M-2.5,-0.5L0,-3.0L2.5,-0.5"/>
                </g>
               <g id="resetDef">
                       <use xlink:href="#rim2" fill="#404040">
                               <set attributeName="fill" to="#808080" begin="reset.mouseover" end="reset.mouseout"/>
                       </use>
               </g>
        </defs>

<script type="text/javascript">
var viewWidth = 821;
var viewHeight = 285;
var sectionId = 'dynsection-0';
</script>
<script xlink:href="../../svgpan.js"/>
<svg id="graph" class="graph">
<g id="viewport">
<title>/home/tcbuilder/buildAgent/work/df8e8cce5bebfd58/libajantv2/ajabase/system/windows/eventimpl.cpp</title>
<polygon fill="white" stroke="transparent" points="-4,4 -4,-281 816.5,-281 816.5,4 -4,4"/>
<!-- Node1 -->
<g id="node1" class="node">
<title>Node1</title>
<g id="a_node1"><a xlink:title="Implements the AJAEventImpl class on the Windows platform.">
<polygon fill="#bfbfbf" stroke="black" points="190.5,-235.5 190.5,-276.5 405.5,-276.5 405.5,-235.5 190.5,-235.5"/>
<text text-anchor="start" x="198.5" y="-264.5" font-family="Helvetica,sans-Serif" font-size="10.00">/home/tcbuilder/buildAgent</text>
<text text-anchor="start" x="198.5" y="-253.5" font-family="Helvetica,sans-Serif" font-size="10.00">/work/df8e8cce5bebfd58/libajantv2</text>
<text text-anchor="middle" x="298" y="-242.5" font-family="Helvetica,sans-Serif" font-size="10.00">/ajabase/system/windows/eventimpl.cpp</text>
</a>
</g>
</g>
<!-- Node2 -->
<g id="node2" class="node">
<title>Node2</title>
<g id="a_node2"><a xlink:href="../../d6/de7/windows_2eventimpl_8h.html" target="_top" xlink:title="Declares the AJAEventImpl class.">
<polygon fill="white" stroke="black" points="228,-168.5 228,-198.5 368,-198.5 368,-168.5 228,-168.5"/>
<text text-anchor="start" x="236" y="-186.5" font-family="Helvetica,sans-Serif" font-size="10.00">ajabase/system/windows</text>
<text text-anchor="middle" x="298" y="-175.5" font-family="Helvetica,sans-Serif" font-size="10.00">/eventimpl.h</text>
</a>
</g>
</g>
<!-- Node1&#45;&gt;Node2 -->
<g id="edge1" class="edge">
<title>Node1&#45;&gt;Node2</title>
<path fill="none" stroke="midnightblue" d="M298,-235.36C298,-227.23 298,-217.7 298,-209.11"/>
<polygon fill="midnightblue" stroke="midnightblue" points="301.5,-208.89 298,-198.89 294.5,-208.89 301.5,-208.89"/>
</g>
<!-- Node14 -->
<g id="node14" class="node">
<title>Node14</title>
<g id="a_node14"><a xlink:href="../../dd/d20/event_8h.html" target="_top" xlink:title="Declares the AJAEvent class.">
<polygon fill="white" stroke="black" points="75,-112.5 75,-131.5 209,-131.5 209,-112.5 75,-112.5"/>
<text text-anchor="middle" x="142" y="-119.5" font-family="Helvetica,sans-Serif" font-size="10.00">ajabase/system/event.h</text>
</a>
</g>
</g>
<!-- Node1&#45;&gt;Node14 -->
<g id="edge19" class="edge">
<title>Node1&#45;&gt;Node14</title>
<path fill="none" stroke="midnightblue" d="M267.89,-235.35C252.78,-225.08 234.46,-211.96 219,-199 196.2,-179.89 172.14,-155.33 157.1,-139.38"/>
<polygon fill="midnightblue" stroke="midnightblue" points="159.5,-136.82 150.12,-131.9 154.39,-141.6 159.5,-136.82"/>
</g>
<!-- Node15 -->
<g id="node15" class="node">
<title>Node15</title>
<g id="a_node15"><a xlink:href="../../db/d16/debug_8h.html" target="_top" xlink:title="Declares the AJADebug class.">
<polygon fill="white" stroke="black" points="485,-112.5 485,-131.5 621,-131.5 621,-112.5 485,-112.5"/>
<text text-anchor="middle" x="553" y="-119.5" font-family="Helvetica,sans-Serif" font-size="10.00">ajabase/system/debug.h</text>
</a>
</g>
</g>
<!-- Node1&#45;&gt;Node15 -->
<g id="edge20" class="edge">
<title>Node1&#45;&gt;Node15</title>
<path fill="none" stroke="midnightblue" d="M335.9,-235.38C388.51,-208.15 482.27,-159.62 527.37,-136.27"/>
<polygon fill="midnightblue" stroke="midnightblue" points="529.21,-139.26 536.48,-131.55 525.99,-133.04 529.21,-139.26"/>
</g>
<!-- Node3 -->
<g id="node3" class="node">
<title>Node3</title>
<g id="a_node3"><a xlink:href="../../dc/db2/system_8h.html" target="_top" xlink:title="System specific functions.">
<polygon fill="white" stroke="black" points="227,-112.5 227,-131.5 369,-131.5 369,-112.5 227,-112.5"/>
<text text-anchor="middle" x="298" y="-119.5" font-family="Helvetica,sans-Serif" font-size="10.00">ajabase/system/system.h</text>
</a>
</g>
</g>
<!-- Node2&#45;&gt;Node3 -->
<g id="edge2" class="edge">
<title>Node2&#45;&gt;Node3</title>
<path fill="none" stroke="midnightblue" d="M298,-168.4C298,-160.47 298,-150.46 298,-141.86"/>
<polygon fill="midnightblue" stroke="midnightblue" points="301.5,-141.66 298,-131.66 294.5,-141.66 301.5,-141.66"/>
</g>
<!-- Node11 -->
<g id="node11" class="node">
<title>Node11</title>
<g id="a_node11"><a xlink:href="../../dc/d54/common_8h.html" target="_top" xlink:title="Private include file for all ajabase sources.">
<polygon fill="white" stroke="black" points="319.5,-56.5 319.5,-75.5 474.5,-75.5 474.5,-56.5 319.5,-56.5"/>
<text text-anchor="middle" x="397" y="-63.5" font-family="Helvetica,sans-Serif" font-size="10.00">ajabase/common/common.h</text>
</a>
</g>
</g>
<!-- Node2&#45;&gt;Node11 -->
<g id="edge10" class="edge">
<title>Node2&#45;&gt;Node11</title>
<path fill="none" stroke="midnightblue" d="M331.3,-168.42C347.51,-160.02 366.04,-147.87 378,-132 388.16,-118.52 392.9,-99.71 395.11,-85.79"/>
<polygon fill="midnightblue" stroke="midnightblue" points="398.58,-86.24 396.38,-75.87 391.64,-85.34 398.58,-86.24"/>
</g>
<!-- Node2&#45;&gt;Node14 -->
<g id="edge16" class="edge">
<title>Node2&#45;&gt;Node14</title>
<path fill="none" stroke="midnightblue" d="M261.03,-168.4C234.62,-158.33 199.44,-144.91 174.19,-135.28"/>
<polygon fill="midnightblue" stroke="midnightblue" points="175.29,-131.95 164.7,-131.66 172.8,-138.49 175.29,-131.95"/>
</g>
<!-- Node4 -->
<g id="node4" class="node">
<title>Node4</title>
<g id="a_node4"><a xlink:href="../../d4/d79/public_8h.html" target="_top" xlink:title="Master header for the ajabase library.">
<polygon fill="white" stroke="black" points="159,-56.5 159,-75.5 301,-75.5 301,-56.5 159,-56.5"/>
<text text-anchor="middle" x="230" y="-63.5" font-family="Helvetica,sans-Serif" font-size="10.00">ajabase/common/public.h</text>
</a>
</g>
</g>
<!-- Node3&#45;&gt;Node4 -->
<g id="edge3" class="edge">
<title>Node3&#45;&gt;Node4</title>
<path fill="none" stroke="midnightblue" d="M287.07,-112.32C276.83,-104.18 261.28,-91.84 249,-82.09"/>
<polygon fill="midnightblue" stroke="midnightblue" points="251.13,-79.31 241.12,-75.83 246.78,-84.79 251.13,-79.31"/>
</g>
<!-- Node5 -->
<g id="node5" class="node">
<title>Node5</title>
<g id="a_node5"><a xlink:href="../../db/db5/export_8h.html" target="_top" xlink:title="Declares system&#45;dependent import/export macros and libraries.">
<polygon fill="white" stroke="black" points="326,-0.5 326,-19.5 470,-19.5 470,-0.5 326,-0.5"/>
<text text-anchor="middle" x="398" y="-7.5" font-family="Helvetica,sans-Serif" font-size="10.00">ajabase/common/export.h</text>
</a>
</g>
</g>
<!-- Node4&#45;&gt;Node5 -->
<g id="edge4" class="edge">
<title>Node4&#45;&gt;Node5</title>
<path fill="none" stroke="midnightblue" d="M256.62,-56.44C285.01,-47.32 330.14,-32.81 361.75,-22.65"/>
<polygon fill="midnightblue" stroke="midnightblue" points="363.06,-25.91 371.5,-19.52 360.91,-19.24 363.06,-25.91"/>
</g>
<!-- Node6 -->
<g id="node6" class="node">
<title>Node6</title>
<g id="a_node6"><a xlink:title=" ">
<polygon fill="white" stroke="#bfbfbf" points="264,-0.5 264,-19.5 308,-19.5 308,-0.5 264,-0.5"/>
<text text-anchor="middle" x="286" y="-7.5" font-family="Helvetica,sans-Serif" font-size="10.00">string</text>
</a>
</g>
</g>
<!-- Node4&#45;&gt;Node6 -->
<g id="edge5" class="edge">
<title>Node4&#45;&gt;Node6</title>
<path fill="none" stroke="midnightblue" d="M239,-56.32C247.19,-48.42 259.51,-36.55 269.47,-26.94"/>
<polygon fill="midnightblue" stroke="midnightblue" points="272.07,-29.29 276.84,-19.83 267.21,-24.26 272.07,-29.29"/>
</g>
<!-- Node7 -->
<g id="node7" class="node">
<title>Node7</title>
<g id="a_node7"><a xlink:title=" ">
<polygon fill="white" stroke="#bfbfbf" points="214,-0.5 214,-19.5 246,-19.5 246,-0.5 214,-0.5"/>
<text text-anchor="middle" x="230" y="-7.5" font-family="Helvetica,sans-Serif" font-size="10.00">list</text>
</a>
</g>
</g>
<!-- Node4&#45;&gt;Node7 -->
<g id="edge6" class="edge">
<title>Node4&#45;&gt;Node7</title>
<path fill="none" stroke="midnightblue" d="M230,-56.08C230,-49.01 230,-38.86 230,-29.99"/>
<polygon fill="midnightblue" stroke="midnightblue" points="233.5,-29.75 230,-19.75 226.5,-29.75 233.5,-29.75"/>
</g>
<!-- Node8 -->
<g id="node8" class="node">
<title>Node8</title>
<g id="a_node8"><a xlink:title=" ">
<polygon fill="white" stroke="#bfbfbf" points="556.5,-0.5 556.5,-19.5 603.5,-19.5 603.5,-0.5 556.5,-0.5"/>
<text text-anchor="middle" x="580" y="-7.5" font-family="Helvetica,sans-Serif" font-size="10.00">vector</text>
</a>
</g>
</g>
<!-- Node4&#45;&gt;Node8 -->
<g id="edge7" class="edge">
<title>Node4&#45;&gt;Node8</title>
<path fill="none" stroke="midnightblue" d="M297.28,-56.46C371.31,-46.89 486.66,-31.44 546.19,-19.89"/>
<polygon fill="midnightblue" stroke="midnightblue" points="547.18,-23.26 556.29,-17.85 545.8,-16.39 547.18,-23.26"/>
</g>
<!-- Node9 -->
<g id="node9" class="node">
<title>Node9</title>
<g id="a_node9"><a xlink:title=" ">
<polygon fill="white" stroke="#bfbfbf" points="0,-0.5 0,-19.5 38,-19.5 38,-0.5 0,-0.5"/>
<text text-anchor="middle" x="19" y="-7.5" font-family="Helvetica,sans-Serif" font-size="10.00">map</text>
</a>
</g>
</g>
<!-- Node4&#45;&gt;Node9 -->
<g id="edge8" class="edge">
<title>Node4&#45;&gt;Node9</title>
<path fill="none" stroke="midnightblue" d="M191.94,-56.46C156.89,-48.41 103.25,-35.64 48.16,-20.19"/>
<polygon fill="midnightblue" stroke="midnightblue" points="48.8,-16.73 38.23,-17.37 46.89,-23.47 48.8,-16.73"/>
</g>
<!-- Node10 -->
<g id="node10" class="node">
<title>Node10</title>
<g id="a_node10"><a xlink:href="../../d9/d49/types_8h.html" target="_top" xlink:title="Declares common types used in the ajabase library.">
<polygon fill="white" stroke="black" points="56,-0.5 56,-19.5 196,-19.5 196,-0.5 56,-0.5"/>
<text text-anchor="middle" x="126" y="-7.5" font-family="Helvetica,sans-Serif" font-size="10.00">ajabase/common/types.h</text>
</a>
</g>
</g>
<!-- Node4&#45;&gt;Node10 -->
<g id="edge9" class="edge">
<title>Node4&#45;&gt;Node10</title>
<path fill="none" stroke="midnightblue" d="M213.29,-56.32C196.69,-47.7 171,-34.36 151.78,-24.39"/>
<polygon fill="midnightblue" stroke="midnightblue" points="153.16,-21.16 142.67,-19.65 149.93,-27.37 153.16,-21.16"/>
</g>
<!-- Node11&#45;&gt;Node5 -->
<g id="edge11" class="edge">
<title>Node11&#45;&gt;Node5</title>
<path fill="none" stroke="midnightblue" d="M397.17,-56.08C397.3,-49.01 397.48,-38.86 397.65,-29.99"/>
<polygon fill="midnightblue" stroke="midnightblue" points="401.15,-29.81 397.84,-19.75 394.15,-29.68 401.15,-29.81"/>
</g>
<!-- Node11&#45;&gt;Node6 -->
<g id="edge13" class="edge">
<title>Node11&#45;&gt;Node6</title>
<path fill="none" stroke="midnightblue" d="M379.17,-56.32C361.28,-47.62 333.52,-34.12 312.95,-24.11"/>
<polygon fill="midnightblue" stroke="midnightblue" points="314.31,-20.88 303.79,-19.65 311.25,-27.18 314.31,-20.88"/>
</g>
<!-- Node11&#45;&gt;Node8 -->
<g id="edge14" class="edge">
<title>Node11&#45;&gt;Node8</title>
<path fill="none" stroke="midnightblue" d="M426,-56.44C458.84,-46.75 512.25,-30.99 546.75,-20.81"/>
<polygon fill="midnightblue" stroke="midnightblue" points="547.78,-24.16 556.38,-17.97 545.79,-17.44 547.78,-24.16"/>
</g>
<!-- Node12 -->
<g id="node12" class="node">
<title>Node12</title>
<g id="a_node12"><a xlink:title=" ">
<polygon fill="white" stroke="#bfbfbf" points="627,-0.5 627,-19.5 659,-19.5 659,-0.5 627,-0.5"/>
<text text-anchor="middle" x="643" y="-7.5" font-family="Helvetica,sans-Serif" font-size="10.00">set</text>
</a>
</g>
</g>
<!-- Node11&#45;&gt;Node12 -->
<g id="edge12" class="edge">
<title>Node11&#45;&gt;Node12</title>
<path fill="none" stroke="midnightblue" d="M443.61,-56.49C487.54,-48.19 555.08,-34.69 613,-20 614.27,-19.68 615.58,-19.33 616.89,-18.98"/>
<polygon fill="midnightblue" stroke="midnightblue" points="618.23,-22.23 626.88,-16.11 616.3,-15.51 618.23,-22.23"/>
</g>
<!-- Node13 -->
<g id="node13" class="node">
<title>Node13</title>
<g id="a_node13"><a xlink:title=" ">
<polygon fill="white" stroke="#bfbfbf" points="488,-0.5 488,-19.5 538,-19.5 538,-0.5 488,-0.5"/>
<text text-anchor="middle" x="513" y="-7.5" font-family="Helvetica,sans-Serif" font-size="10.00">cstdint</text>
</a>
</g>
</g>
<!-- Node11&#45;&gt;Node13 -->
<g id="edge15" class="edge">
<title>Node11&#45;&gt;Node13</title>
<path fill="none" stroke="midnightblue" d="M415.38,-56.44C434.22,-47.68 463.73,-33.94 485.38,-23.86"/>
<polygon fill="midnightblue" stroke="midnightblue" points="487.12,-26.91 494.71,-19.52 484.16,-20.56 487.12,-26.91"/>
</g>
<!-- Node14&#45;&gt;Node4 -->
<g id="edge17" class="edge">
<title>Node14&#45;&gt;Node4</title>
<path fill="none" stroke="midnightblue" d="M156.14,-112.32C169.87,-103.9 190.94,-90.97 207.06,-81.07"/>
<polygon fill="midnightblue" stroke="midnightblue" points="209.2,-83.87 215.9,-75.65 205.54,-77.9 209.2,-83.87"/>
</g>
<!-- Node14&#45;&gt;Node6 -->
<g id="edge18" class="edge">
<title>Node14&#45;&gt;Node6</title>
<path fill="none" stroke="midnightblue" d="M140.39,-112.31C138.41,-98.68 136.73,-72.18 150,-56 153.44,-51.81 215.26,-32.46 254.35,-20.54"/>
<polygon fill="midnightblue" stroke="midnightblue" points="255.44,-23.87 263.99,-17.61 253.41,-17.17 255.44,-23.87"/>
</g>
<!-- Node15&#45;&gt;Node4 -->
<g id="edge24" class="edge">
<title>Node15&#45;&gt;Node4</title>
<path fill="none" stroke="midnightblue" d="M501.82,-112.44C444.53,-102.87 351.76,-87.36 290.81,-77.17"/>
<polygon fill="midnightblue" stroke="midnightblue" points="291.38,-73.71 280.94,-75.52 290.23,-80.62 291.38,-73.71"/>
</g>
<!-- Node15&#45;&gt;Node12 -->
<g id="edge23" class="edge">
<title>Node15&#45;&gt;Node12</title>
<path fill="none" stroke="midnightblue" d="M621.12,-118.56C688.4,-114.54 784.56,-103.94 808,-76 813.71,-69.19 813.4,-63.06 808,-56 808,-56 715.21,-30.69 668.8,-18.04"/>
<polygon fill="midnightblue" stroke="midnightblue" points="669.69,-14.65 659.12,-15.4 667.85,-21.4 669.69,-14.65"/>
</g>
<!-- Node16 -->
<g id="node16" class="node">
<title>Node16</title>
<g id="a_node16"><a xlink:title=" ">
<polygon fill="white" stroke="#bfbfbf" points="493,-56.5 493,-75.5 543,-75.5 543,-56.5 493,-56.5"/>
<text text-anchor="middle" x="518" y="-63.5" font-family="Helvetica,sans-Serif" font-size="10.00">stdio.h</text>
</a>
</g>
</g>
<!-- Node15&#45;&gt;Node16 -->
<g id="edge21" class="edge">
<title>Node15&#45;&gt;Node16</title>
<path fill="none" stroke="midnightblue" d="M547.22,-112.08C542.33,-104.53 535.17,-93.49 529.17,-84.23"/>
<polygon fill="midnightblue" stroke="midnightblue" points="532.05,-82.24 523.67,-75.75 526.17,-86.05 532.05,-82.24"/>
</g>
<!-- Node17 -->
<g id="node17" class="node">
<title>Node17</title>
<g id="a_node17"><a xlink:title=" ">
<polygon fill="white" stroke="#bfbfbf" points="561,-56.5 561,-75.5 617,-75.5 617,-56.5 561,-56.5"/>
<text text-anchor="middle" x="589" y="-63.5" font-family="Helvetica,sans-Serif" font-size="10.00">sstream</text>
</a>
</g>
</g>
<!-- Node15&#45;&gt;Node17 -->
<g id="edge22" class="edge">
<title>Node15&#45;&gt;Node17</title>
<path fill="none" stroke="midnightblue" d="M558.94,-112.08C563.98,-104.53 571.34,-93.49 577.51,-84.23"/>
<polygon fill="midnightblue" stroke="midnightblue" points="580.53,-86.01 583.17,-75.75 574.71,-82.13 580.53,-86.01"/>
</g>
<!-- Node18 -->
<g id="node18" class="node">
<title>Node18</title>
<g id="a_node18"><a xlink:href="../../d0/db4/debugshare_8h.html" target="_top" xlink:title="Declares the constants used for sharing debug messages. These structures are used to gather debug mes...">
<polygon fill="white" stroke="black" points="635.5,-56.5 635.5,-75.5 798.5,-75.5 798.5,-56.5 635.5,-56.5"/>
<text text-anchor="middle" x="717" y="-63.5" font-family="Helvetica,sans-Serif" font-size="10.00">ajabase/system/debugshare.h</text>
</a>
</g>
</g>
<!-- Node15&#45;&gt;Node18 -->
<g id="edge25" class="edge">
<title>Node15&#45;&gt;Node18</title>
<path fill="none" stroke="midnightblue" d="M578.99,-112.44C606.7,-103.32 650.75,-88.81 681.62,-78.65"/>
<polygon fill="midnightblue" stroke="midnightblue" points="682.73,-81.97 691.14,-75.52 680.54,-75.32 682.73,-81.97"/>
</g>
<!-- Node18&#45;&gt;Node5 -->
<g id="edge26" class="edge">
<title>Node18&#45;&gt;Node5</title>
<path fill="none" stroke="midnightblue" d="M666.45,-56.44C609.99,-46.89 518.63,-31.42 458.43,-21.23"/>
<polygon fill="midnightblue" stroke="midnightblue" points="458.75,-17.73 448.31,-19.52 457.59,-24.64 458.75,-17.73"/>
</g>
<!-- Node18&#45;&gt;Node6 -->
<g id="edge29" class="edge">
<title>Node18&#45;&gt;Node6</title>
<path fill="none" stroke="midnightblue" d="M635.35,-56.57C534.82,-46.08 371.65,-28.66 318.17,-19.76"/>
<polygon fill="midnightblue" stroke="midnightblue" points="318.7,-16.3 308.24,-17.95 317.45,-23.19 318.7,-16.3"/>
</g>
<!-- Node18&#45;&gt;Node8 -->
<g id="edge30" class="edge">
<title>Node18&#45;&gt;Node8</title>
<path fill="none" stroke="midnightblue" d="M695.29,-56.44C672.65,-47.52 636.93,-33.44 611.25,-23.32"/>
<polygon fill="midnightblue" stroke="midnightblue" points="612.19,-19.93 601.61,-19.52 609.63,-26.44 612.19,-19.93"/>
</g>
<!-- Node19 -->
<g id="node19" class="node">
<title>Node19</title>
<g id="a_node19"><a xlink:title=" ">
<polygon fill="white" stroke="#bfbfbf" points="685,-0.5 685,-19.5 741,-19.5 741,-0.5 685,-0.5"/>
<text text-anchor="middle" x="713" y="-7.5" font-family="Helvetica,sans-Serif" font-size="10.00">stddef.h</text>
</a>
</g>
</g>
<!-- Node18&#45;&gt;Node19 -->
<g id="edge27" class="edge">
<title>Node18&#45;&gt;Node19</title>
<path fill="none" stroke="midnightblue" d="M716.34,-56.08C715.82,-49.01 715.06,-38.86 714.41,-29.99"/>
<polygon fill="midnightblue" stroke="midnightblue" points="717.88,-29.47 713.65,-19.75 710.9,-29.98 717.88,-29.47"/>
</g>
<!-- Node20 -->
<g id="node20" class="node">
<title>Node20</title>
<g id="a_node20"><a xlink:title=" ">
<polygon fill="white" stroke="#bfbfbf" points="759.5,-0.5 759.5,-19.5 812.5,-19.5 812.5,-0.5 759.5,-0.5"/>
<text text-anchor="middle" x="786" y="-7.5" font-family="Helvetica,sans-Serif" font-size="10.00">stdint.h</text>
</a>
</g>
</g>
<!-- Node18&#45;&gt;Node20 -->
<g id="edge28" class="edge">
<title>Node18&#45;&gt;Node20</title>
<path fill="none" stroke="midnightblue" d="M728.09,-56.32C738.49,-48.18 754.26,-35.84 766.72,-26.09"/>
<polygon fill="midnightblue" stroke="midnightblue" points="768.99,-28.75 774.71,-19.83 764.68,-23.24 768.99,-28.75"/>
</g>
</g>
</svg>
        <g id="navigator" transform="translate(0 0)" fill="#404254">
                <rect fill="#f2f5e9" fill-opacity="0.5" stroke="#606060" stroke-width=".5" x="0" y="0" width="60" height="60"/>
                <use id="zoomplus" xlink:href="#zoomPlus" x="17" y="9" onmousedown="handleZoom(evt,'in')"/>
                <use id="zoomminus" xlink:href="#zoomMin" x="42" y="9" onmousedown="handleZoom(evt,'out')"/>
                <use id="reset" xlink:href="#resetDef" x="30" y="36" onmousedown="handleReset()"/>
                <g id="arrowUp" xlink:href="#dirArrow" transform="translate(30 24)" onmousedown="handlePan(0,-1)">
                  <use xlink:href="#rim" fill="#404040">
                        <set attributeName="fill" to="#808080" begin="arrowUp.mouseover" end="arrowUp.mouseout"/>
                  </use>
                  <path fill="none" stroke="white" stroke-width="1.5" d="M0,-3.0v7 M-2.5,-0.5L0,-3.0L2.5,-0.5"/>
                </g>
                <g id="arrowRight" xlink:href="#dirArrow" transform="rotate(90) translate(36 -43)" onmousedown="handlePan(1,0)">
                  <use xlink:href="#rim" fill="#404040">
                        <set attributeName="fill" to="#808080" begin="arrowRight.mouseover" end="arrowRight.mouseout"/>
                  </use>
                  <path fill="none" stroke="white" stroke-width="1.5" d="M0,-3.0v7 M-2.5,-0.5L0,-3.0L2.5,-0.5"/>
                </g>
                <g id="arrowDown" xlink:href="#dirArrow" transform="rotate(180) translate(-30 -48)" onmousedown="handlePan(0,1)">
                  <use xlink:href="#rim" fill="#404040">
                        <set attributeName="fill" to="#808080" begin="arrowDown.mouseover" end="arrowDown.mouseout"/>
                  </use>
                  <path fill="none" stroke="white" stroke-width="1.5" d="M0,-3.0v7 M-2.5,-0.5L0,-3.0L2.5,-0.5"/>
                </g>
                <g id="arrowLeft" xlink:href="#dirArrow" transform="rotate(270) translate(-36 17)" onmousedown="handlePan(-1,0)">
                  <use xlink:href="#rim" fill="#404040">
                        <set attributeName="fill" to="#808080" begin="arrowLeft.mouseover" end="arrowLeft.mouseout"/>
                  </use>
                  <path fill="none" stroke="white" stroke-width="1.5" d="M0,-3.0v7 M-2.5,-0.5L0,-3.0L2.5,-0.5"/>
                </g>
        </g>
        <svg viewBox="0 0 15 15" width="100%" height="30px" preserveAspectRatio="xMaxYMin meet">
         <g id="arrow_out" transform="scale(0.3 0.3)">
          <a xlink:href="windows_2eventimpl_8cpp__incl_org.svg" target="_base">
           <rect id="button" ry="5" rx="5" y="6" x="6" height="38" width="38"
                fill="#f2f5e9" fill-opacity="0.5" stroke="#606060" stroke-width="1.0"/>
           <path id="arrow"
             d="M 11.500037,31.436501 C 11.940474,20.09759 22.043105,11.32322 32.158766,21.979434 L 37.068811,17.246167 C 37.068811,17.246167 37.088388,32 37.088388,32 L 22.160133,31.978069 C 22.160133,31.978069 26.997745,27.140456 26.997745,27.140456 C 18.528582,18.264221 13.291696,25.230495 11.500037,31.436501 z"
             style="fill:#404040;"/>
          </a>
         </g>
        </svg>
</svg>
