<?xml version="1.0" encoding="UTF-8" standalone="no"?>
<!DOCTYPE svg PUBLIC "-//W3C//DTD SVG 1.1//EN"
 "http://www.w3.org/Graphics/SVG/1.1/DTD/svg11.dtd">
<!-- Generated by graphviz version 2.40.1 (0)
 -->
<!-- Title: /home/tcbuilder/buildAgent/work/df8e8cce5bebfd58/libajantv2/ajabase/common/timecodeburn.h Pages: 1 -->
<svg width="363pt" height="106pt"
 viewBox="0.00 0.00 363.00 106.00" xmlns="http://www.w3.org/2000/svg" xmlns:xlink="http://www.w3.org/1999/xlink">
<g id="graph0" class="graph" transform="scale(1 1) rotate(0) translate(4 102)">
<title>/home/tcbuilder/buildAgent/work/df8e8cce5bebfd58/libajantv2/ajabase/common/timecodeburn.h</title>
<polygon fill="#ffffff" stroke="transparent" points="-4,4 -4,-102 359,-102 359,4 -4,4"/>
<!-- Node0 -->
<g id="node1" class="node">
<title>Node0</title>
<polygon fill="#bfbfbf" stroke="#000000" points="138,-56.5 138,-97.5 305,-97.5 305,-56.5 138,-56.5"/>
<text text-anchor="start" x="146" y="-85.5" font-family="Helvetica,sans-Serif" font-size="10.00" fill="#000000">/home/tcbuilder/buildAgent</text>
<text text-anchor="start" x="146" y="-74.5" font-family="Helvetica,sans-Serif" font-size="10.00" fill="#000000">/work/df8e8cce5bebfd58/libajantv2</text>
<text text-anchor="middle" x="221.5" y="-63.5" font-family="Helvetica,sans-Serif" font-size="10.00" fill="#000000">/ajabase/common/timecodeburn.h</text>
</g>
<!-- Node1 -->
<g id="node2" class="node">
<title>Node1</title>
<g id="a_node2"><a xlink:href="../../db/db5/export_8h.html" target="_top" xlink:title="Declares system&#45;dependent import/export macros and libraries. ">
<polygon fill="#ffffff" stroke="#000000" points="0,-.5 0,-19.5 129,-19.5 129,-.5 0,-.5"/>
<text text-anchor="middle" x="64.5" y="-7.5" font-family="Helvetica,sans-Serif" font-size="10.00" fill="#000000">ajabase/common/export.h</text>
</a>
</g>
</g>
<!-- Node0&#45;&gt;Node1 -->
<g id="edge1" class="edge">
<title>Node0&#45;&gt;Node1</title>
<path fill="none" stroke="#191970" d="M173.1138,-56.3511C148.1558,-45.7003 118.4111,-33.0066 96.3647,-23.5983"/>
<polygon fill="#191970" stroke="#191970" points="97.6948,-20.3606 87.1236,-19.6546 94.9473,-26.7989 97.6948,-20.3606"/>
</g>
<!-- Node2 -->
<g id="node3" class="node">
<title>Node2</title>
<g id="a_node3"><a xlink:href="../../d6/da4/videotypes_8h.html" target="_top" xlink:title="Declares the enumeration constants used in the ajabase library. ">
<polygon fill="#ffffff" stroke="#000000" points="147,-.5 147,-19.5 296,-19.5 296,-.5 147,-.5"/>
<text text-anchor="middle" x="221.5" y="-7.5" font-family="Helvetica,sans-Serif" font-size="10.00" fill="#000000">ajabase/common/videotypes.h</text>
</a>
</g>
</g>
<!-- Node0&#45;&gt;Node2 -->
<g id="edge2" class="edge">
<title>Node0&#45;&gt;Node2</title>
<path fill="none" stroke="#191970" d="M221.5,-56.168C221.5,-47.8226 221.5,-38.2471 221.5,-29.9879"/>
<polygon fill="#191970" stroke="#191970" points="225.0001,-29.7804 221.5,-19.7805 218.0001,-29.7805 225.0001,-29.7804"/>
</g>
<!-- Node3 -->
<g id="node4" class="node">
<title>Node3</title>
<polygon fill="#ffffff" stroke="#bfbfbf" points="314,-.5 314,-19.5 355,-19.5 355,-.5 314,-.5"/>
<text text-anchor="middle" x="334.5" y="-7.5" font-family="Helvetica,sans-Serif" font-size="10.00" fill="#000000">string</text>
</g>
<!-- Node0&#45;&gt;Node3 -->
<g id="edge3" class="edge">
<title>Node0&#45;&gt;Node3</title>
<path fill="none" stroke="#191970" d="M256.3258,-56.3511C273.403,-46.2256 293.5941,-34.254 309.178,-25.0139"/>
<polygon fill="#191970" stroke="#191970" points="311.4002,-27.7654 318.2168,-19.6546 307.8301,-21.7442 311.4002,-27.7654"/>
</g>
</g>
</svg>
