<?xml version="1.0" encoding="UTF-8" standalone="no"?>
<!DOCTYPE svg PUBLIC "-//W3C//DTD SVG 1.1//EN"
 "http://www.w3.org/Graphics/SVG/1.1/DTD/svg11.dtd">
<!-- Generated by graphviz version 2.43.0 (0)
 -->
<!-- Title: AUTOCIRCULATE_TRANSFER_COMBO_STRUCT Pages: 1 -->
<!--zoomable 307 -->
<svg id="main" version="1.1" xmlns="http://www.w3.org/2000/svg" xmlns:xlink="http://www.w3.org/1999/xlink" xml:space="preserve" onload="init(evt)">
<style type="text/css"><![CDATA[
.edge:hover path { stroke: red; }
.edge:hover polygon { stroke: red; fill: red; }
]]></style>
<script type="text/javascript"><![CDATA[
var edges = document.getElementsByTagName('g');
if (edges && edges.length) {
  for (var i=0;i<edges.length;i++) {
    if (edges[i].id.substr(0,4)=='edge') {
      edges[i].setAttribute('class','edge');
    }
  }
}
]]></script>
        <defs>
                <circle id="rim" cx="0" cy="0" r="7"/>
                <circle id="rim2" cx="0" cy="0" r="3.5"/>
                <g id="zoomPlus">
                        <use xlink:href="#rim" fill="#404040">
                                <set attributeName="fill" to="#808080" begin="zoomplus.mouseover" end="zoomplus.mouseout"/>
                        </use>
                        <path d="M-4,0h8M0,-4v8" fill="none" stroke="white" stroke-width="1.5" pointer-events="none"/>
                </g>
                <g id="zoomMin">
                        <use xlink:href="#rim" fill="#404040">
                                <set attributeName="fill" to="#808080" begin="zoomminus.mouseover" end="zoomminus.mouseout"/>
                        </use>
                        <path d="M-4,0h8" fill="none" stroke="white" stroke-width="1.5" pointer-events="none"/>
                </g>
                <g id="dirArrow">
                        <path fill="none" stroke="white" stroke-width="1.5" d="M0,-3.0v7 M-2.5,-0.5L0,-3.0L2.5,-0.5"/>
                </g>
               <g id="resetDef">
                       <use xlink:href="#rim2" fill="#404040">
                               <set attributeName="fill" to="#808080" begin="reset.mouseover" end="reset.mouseout"/>
                       </use>
               </g>
        </defs>

<script type="text/javascript">
var viewWidth = 1282;
var viewHeight = 307;
var sectionId = 'dynsection-0';
</script>
<script xlink:href="../../svgpan.js"/>
<svg id="graph" class="graph">
<g id="viewport">
<title>AUTOCIRCULATE_TRANSFER_COMBO_STRUCT</title>
<polygon fill="white" stroke="transparent" points="-4,4 -4,-303 1278,-303 1278,4 -4,4"/>
<!-- Node1 -->
<g id="node1" class="node">
<title>Node1</title>
<g id="a_node1"><a xlink:title=" ">
<polygon fill="#bfbfbf" stroke="black" points="1118,-122 1118,-152 1274,-152 1274,-122 1118,-122"/>
<text text-anchor="start" x="1126" y="-140" font-family="Helvetica,sans-Serif" font-size="10.00">AUTOCIRCULATE_TRANSFER</text>
<text text-anchor="middle" x="1196" y="-129" font-family="Helvetica,sans-Serif" font-size="10.00">_COMBO_STRUCT</text>
</a>
</g>
</g>
<!-- Node2 -->
<g id="node2" class="node">
<title>Node2</title>
<g id="a_node2"><a xlink:href="../../da/d3d/struct_a_u_t_o_c_i_r_c_u_l_a_t_e___t_a_s_k___s_t_r_u_c_t.html" target="_top" xlink:title=" ">
<polygon fill="white" stroke="black" points="844,-144 844,-174 973,-174 973,-144 844,-144"/>
<text text-anchor="start" x="852" y="-162" font-family="Helvetica,sans-Serif" font-size="10.00">AUTOCIRCULATE_TASK</text>
<text text-anchor="middle" x="908.5" y="-151" font-family="Helvetica,sans-Serif" font-size="10.00">_STRUCT</text>
</a>
</g>
</g>
<!-- Node2&#45;&gt;Node1 -->
<g id="edge1" class="edge">
<title>Node2&#45;&gt;Node1</title>
<path fill="none" stroke="#9a32cd" stroke-dasharray="5,2" d="M983.21,-153.32C1024.49,-150.14 1075.92,-146.18 1117.76,-142.95"/>
<polygon fill="#9a32cd" stroke="#9a32cd" points="982.92,-149.83 973.22,-154.09 983.46,-156.81 982.92,-149.83"/>
<text text-anchor="middle" x="1045.5" y="-156" font-family="Helvetica,sans-Serif" font-size="10.00"> acTask</text>
</g>
<!-- Node3 -->
<g id="node3" class="node">
<title>Node3</title>
<g id="a_node3"><a xlink:href="../../db/d76/struct_auto_circ_generic_task.html" target="_top" xlink:title=" ">
<polygon fill="white" stroke="black" points="535,-149.5 535,-168.5 652,-168.5 652,-149.5 535,-149.5"/>
<text text-anchor="middle" x="593.5" y="-156.5" font-family="Helvetica,sans-Serif" font-size="10.00">AutoCircGenericTask</text>
</a>
</g>
</g>
<!-- Node3&#45;&gt;Node2 -->
<g id="edge2" class="edge">
<title>Node3&#45;&gt;Node2</title>
<path fill="none" stroke="#9a32cd" stroke-dasharray="5,2" d="M662.42,-159C716.32,-159 791.12,-159 843.87,-159"/>
<polygon fill="#9a32cd" stroke="#9a32cd" points="662.27,-155.5 652.27,-159 662.27,-162.5 662.27,-155.5"/>
<text text-anchor="middle" x="748" y="-162" font-family="Helvetica,sans-Serif" font-size="10.00"> taskArray</text>
</g>
<!-- Node4 -->
<g id="node4" class="node">
<title>Node4</title>
<g id="a_node4"><a xlink:href="../../d6/d93/struct_auto_circ_time_code_task.html" target="_top" xlink:title=" ">
<polygon fill="white" stroke="black" points="283.5,-142.5 283.5,-161.5 412.5,-161.5 412.5,-142.5 283.5,-142.5"/>
<text text-anchor="middle" x="348" y="-149.5" font-family="Helvetica,sans-Serif" font-size="10.00">AutoCircTimeCodeTask</text>
</a>
</g>
</g>
<!-- Node4&#45;&gt;Node3 -->
<g id="edge3" class="edge">
<title>Node4&#45;&gt;Node3</title>
<path fill="none" stroke="#9a32cd" stroke-dasharray="5,2" d="M423.06,-154.13C458.87,-155.16 501.22,-156.38 534.63,-157.34"/>
<polygon fill="#9a32cd" stroke="#9a32cd" points="422.76,-150.62 412.66,-153.83 422.55,-157.62 422.76,-150.62"/>
<text text-anchor="middle" x="480.5" y="-160" font-family="Helvetica,sans-Serif" font-size="10.00"> timeCodeTask</text>
</g>
<!-- Node5 -->
<g id="node5" class="node">
<title>Node5</title>
<g id="a_node5"><a xlink:href="../../d3/d95/struct_r_p188___s_t_r_u_c_t.html" target="_top" xlink:title=" ">
<polygon fill="white" stroke="black" points="22.5,-142.5 22.5,-161.5 114.5,-161.5 114.5,-142.5 22.5,-142.5"/>
<text text-anchor="middle" x="68.5" y="-149.5" font-family="Helvetica,sans-Serif" font-size="10.00">RP188_STRUCT</text>
</a>
</g>
</g>
<!-- Node5&#45;&gt;Node4 -->
<g id="edge4" class="edge">
<title>Node5&#45;&gt;Node4</title>
<path fill="none" stroke="#9a32cd" stroke-dasharray="5,2" d="M124.74,-152C170.48,-152 235.52,-152 283.42,-152"/>
<polygon fill="#9a32cd" stroke="#9a32cd" points="124.7,-148.5 114.7,-152 124.7,-155.5 124.7,-148.5"/>
<text text-anchor="middle" x="203.5" y="-265" font-family="Helvetica,sans-Serif" font-size="10.00"> LTCEmbedded5</text>
<text text-anchor="middle" x="203.5" y="-254" font-family="Helvetica,sans-Serif" font-size="10.00">TCInOut1</text>
<text text-anchor="middle" x="203.5" y="-243" font-family="Helvetica,sans-Serif" font-size="10.00">LTCEmbedded6</text>
<text text-anchor="middle" x="203.5" y="-232" font-family="Helvetica,sans-Serif" font-size="10.00">TCInOut2</text>
<text text-anchor="middle" x="203.5" y="-221" font-family="Helvetica,sans-Serif" font-size="10.00">LTCEmbedded7</text>
<text text-anchor="middle" x="203.5" y="-210" font-family="Helvetica,sans-Serif" font-size="10.00">TCInOut3</text>
<text text-anchor="middle" x="203.5" y="-199" font-family="Helvetica,sans-Serif" font-size="10.00">LTCEmbedded8</text>
<text text-anchor="middle" x="203.5" y="-188" font-family="Helvetica,sans-Serif" font-size="10.00">TCInOut4</text>
<text text-anchor="middle" x="203.5" y="-177" font-family="Helvetica,sans-Serif" font-size="10.00">TCInOut5</text>
<text text-anchor="middle" x="203.5" y="-166" font-family="Helvetica,sans-Serif" font-size="10.00">TCInOut6</text>
<text text-anchor="middle" x="203.5" y="-155" font-family="Helvetica,sans-Serif" font-size="10.00">...</text>
</g>
<!-- Node7 -->
<g id="node7" class="node">
<title>Node7</title>
<g id="a_node7"><a xlink:href="../../d0/dee/struct_a_u_t_o_c_i_r_c_u_l_a_t_e___t_r_a_n_s_f_e_r___s_t_r_u_c_t.html" target="_top" xlink:title=" ">
<polygon fill="white" stroke="black" points="270,-69 270,-99 426,-99 426,-69 270,-69"/>
<text text-anchor="start" x="278" y="-87" font-family="Helvetica,sans-Serif" font-size="10.00">AUTOCIRCULATE_TRANSFER</text>
<text text-anchor="middle" x="348" y="-76" font-family="Helvetica,sans-Serif" font-size="10.00">_STRUCT</text>
</a>
</g>
</g>
<!-- Node5&#45;&gt;Node7 -->
<g id="edge8" class="edge">
<title>Node5&#45;&gt;Node7</title>
<path fill="none" stroke="#9a32cd" stroke-dasharray="5,2" d="M118.23,-140.06C164.84,-128.64 235.29,-111.37 285.69,-99.02"/>
<polygon fill="#9a32cd" stroke="#9a32cd" points="117.26,-136.69 108.38,-142.47 118.92,-143.49 117.26,-136.69"/>
<text text-anchor="middle" x="203.5" y="-134" font-family="Helvetica,sans-Serif" font-size="10.00"> rp188</text>
</g>
<!-- Node14 -->
<g id="node14" class="node">
<title>Node14</title>
<g id="a_node14"><a xlink:href="../../d8/d37/struct_f_r_a_m_e___s_t_a_m_p___s_t_r_u_c_t.html" target="_top" xlink:title=" ">
<polygon fill="white" stroke="black" points="281,-252.5 281,-271.5 415,-271.5 415,-252.5 281,-252.5"/>
<text text-anchor="middle" x="348" y="-259.5" font-family="Helvetica,sans-Serif" font-size="10.00">FRAME_STAMP_STRUCT</text>
</a>
</g>
</g>
<!-- Node5&#45;&gt;Node14 -->
<g id="edge15" class="edge">
<title>Node5&#45;&gt;Node14</title>
<path fill="none" stroke="#9a32cd" stroke-dasharray="5,2" d="M76.38,-171.35C87.71,-199.9 113.29,-252.3 155,-274 208.77,-301.98 282.81,-284.25 321.35,-271.57"/>
<polygon fill="#9a32cd" stroke="#9a32cd" points="79.53,-169.8 72.73,-161.68 72.99,-172.27 79.53,-169.8"/>
<text text-anchor="middle" x="203.5" y="-291" font-family="Helvetica,sans-Serif" font-size="10.00"> currentRP188</text>
</g>
<!-- Node6 -->
<g id="node6" class="node">
<title>Node6</title>
<g id="a_node6"><a xlink:href="../../de/d7b/struct_auto_circ_register_task.html" target="_top" xlink:title=" ">
<polygon fill="white" stroke="black" points="288,-180.5 288,-199.5 408,-199.5 408,-180.5 288,-180.5"/>
<text text-anchor="middle" x="348" y="-187.5" font-family="Helvetica,sans-Serif" font-size="10.00">AutoCircRegisterTask</text>
</a>
</g>
</g>
<!-- Node6&#45;&gt;Node3 -->
<g id="edge5" class="edge">
<title>Node6&#45;&gt;Node3</title>
<path fill="none" stroke="#9a32cd" stroke-dasharray="5,2" d="M418.4,-181.16C455.17,-176.48 499.79,-170.8 534.66,-166.36"/>
<polygon fill="#9a32cd" stroke="#9a32cd" points="417.73,-177.72 408.26,-182.46 418.62,-184.67 417.73,-177.72"/>
<text text-anchor="middle" x="480.5" y="-181" font-family="Helvetica,sans-Serif" font-size="10.00"> registerTask</text>
</g>
<!-- Node7&#45;&gt;Node1 -->
<g id="edge6" class="edge">
<title>Node7&#45;&gt;Node1</title>
<path fill="none" stroke="#9a32cd" stroke-dasharray="5,2" d="M436.73,-89.7C467.77,-91.71 502.94,-93.97 535,-96 745.82,-109.35 994.54,-124.69 1117.77,-132.26"/>
<polygon fill="#9a32cd" stroke="#9a32cd" points="436.58,-86.19 426.37,-89.03 436.12,-93.17 436.58,-86.19"/>
<text text-anchor="middle" x="748" y="-117" font-family="Helvetica,sans-Serif" font-size="10.00"> acTransfer</text>
</g>
<!-- Node8 -->
<g id="node8" class="node">
<title>Node8</title>
<g id="a_node8"><a xlink:href="../../d6/d30/struct_n_t_v2_color_correction_info.html" target="_top" xlink:title=" ">
<polygon fill="white" stroke="black" points="0,-0.5 0,-19.5 137,-19.5 137,-0.5 0,-0.5"/>
<text text-anchor="middle" x="68.5" y="-7.5" font-family="Helvetica,sans-Serif" font-size="10.00">NTV2ColorCorrectionInfo</text>
</a>
</g>
</g>
<!-- Node8&#45;&gt;Node7 -->
<g id="edge7" class="edge">
<title>Node8&#45;&gt;Node7</title>
<path fill="none" stroke="#9a32cd" stroke-dasharray="5,2" d="M147.04,-20.68C179.81,-26.15 218.15,-33.85 252,-44 273.94,-50.58 297.69,-60.58 315.96,-68.93"/>
<polygon fill="#9a32cd" stroke="#9a32cd" points="147.5,-17.2 137.06,-19.05 146.37,-24.11 147.5,-17.2"/>
<text text-anchor="middle" x="203.5" y="-47" font-family="Helvetica,sans-Serif" font-size="10.00"> colorCorrectionInfo</text>
</g>
<!-- Node9 -->
<g id="node9" class="node">
<title>Node9</title>
<g id="a_node9"><a xlink:href="../../d3/d14/struct_auto_circ_vid_proc_info.html" target="_top" xlink:title=" ">
<polygon fill="white" stroke="black" points="12,-76.5 12,-95.5 125,-95.5 125,-76.5 12,-76.5"/>
<text text-anchor="middle" x="68.5" y="-83.5" font-family="Helvetica,sans-Serif" font-size="10.00">AutoCircVidProcInfo</text>
</a>
</g>
</g>
<!-- Node9&#45;&gt;Node7 -->
<g id="edge9" class="edge">
<title>Node9&#45;&gt;Node7</title>
<path fill="none" stroke="#9a32cd" stroke-dasharray="5,2" d="M135.48,-85.19C142.07,-85.12 148.67,-85.05 155,-85 192.83,-84.68 234.86,-84.45 269.92,-84.29"/>
<polygon fill="#9a32cd" stroke="#9a32cd" points="135.11,-81.69 125.15,-85.3 135.19,-88.69 135.11,-81.69"/>
<text text-anchor="middle" x="203.5" y="-88" font-family="Helvetica,sans-Serif" font-size="10.00"> vidProcInfo</text>
</g>
<!-- Node10 -->
<g id="node10" class="node">
<title>Node10</title>
<g id="a_node10"><a xlink:href="../../d5/dd5/struct_c_u_s_t_o_m___a_n_c___s_t_r_u_c_t.html" target="_top" xlink:title=" ">
<polygon fill="white" stroke="black" points="3.5,-38.5 3.5,-57.5 133.5,-57.5 133.5,-38.5 3.5,-38.5"/>
<text text-anchor="middle" x="68.5" y="-45.5" font-family="Helvetica,sans-Serif" font-size="10.00">CUSTOM_ANC_STRUCT</text>
</a>
</g>
</g>
<!-- Node10&#45;&gt;Node7 -->
<g id="edge10" class="edge">
<title>Node10&#45;&gt;Node7</title>
<path fill="none" stroke="#9a32cd" stroke-dasharray="5,2" d="M143.81,-56.51C176.95,-60.42 216.45,-65.24 252,-70 257.78,-70.77 263.76,-71.6 269.77,-72.45"/>
<polygon fill="#9a32cd" stroke="#9a32cd" points="144.08,-53.02 133.74,-55.33 143.27,-59.97 144.08,-53.02"/>
<text text-anchor="middle" x="203.5" y="-73" font-family="Helvetica,sans-Serif" font-size="10.00"> customAncInfo</text>
</g>
<!-- Node11 -->
<g id="node11" class="node">
<title>Node11</title>
<g id="a_node11"><a xlink:href="../../de/df1/struct_n_t_v2_routing_table.html" target="_top" xlink:title=" ">
<polygon fill="white" stroke="black" points="855.5,-67.5 855.5,-86.5 961.5,-86.5 961.5,-67.5 855.5,-67.5"/>
<text text-anchor="middle" x="908.5" y="-74.5" font-family="Helvetica,sans-Serif" font-size="10.00">NTV2RoutingTable</text>
</a>
</g>
</g>
<!-- Node11&#45;&gt;Node1 -->
<g id="edge11" class="edge">
<title>Node11&#45;&gt;Node1</title>
<path fill="none" stroke="#9a32cd" stroke-dasharray="5,2" d="M972.06,-75.18C1009.73,-75.57 1058.31,-78.74 1100,-90 1125.58,-96.91 1152.44,-110.92 1171.05,-121.85"/>
<polygon fill="#9a32cd" stroke="#9a32cd" points="971.76,-71.68 961.74,-75.14 971.73,-78.68 971.76,-71.68"/>
<text text-anchor="middle" x="1045.5" y="-93" font-family="Helvetica,sans-Serif" font-size="10.00"> acXena2RoutingTable</text>
</g>
<!-- Node12 -->
<g id="node12" class="node">
<title>Node12</title>
<g id="a_node12"><a xlink:href="../../d4/d90/struct_n_t_v2_routing_entry.html" target="_top" xlink:title=" ">
<polygon fill="white" stroke="black" points="540.5,-67.5 540.5,-86.5 646.5,-86.5 646.5,-67.5 540.5,-67.5"/>
<text text-anchor="middle" x="593.5" y="-74.5" font-family="Helvetica,sans-Serif" font-size="10.00">NTV2RoutingEntry</text>
</a>
</g>
</g>
<!-- Node12&#45;&gt;Node11 -->
<g id="edge12" class="edge">
<title>Node12&#45;&gt;Node11</title>
<path fill="none" stroke="#9a32cd" stroke-dasharray="5,2" d="M656.7,-77C714.84,-77 800.68,-77 855.34,-77"/>
<polygon fill="#9a32cd" stroke="#9a32cd" points="656.54,-73.5 646.54,-77 656.54,-80.5 656.54,-73.5"/>
<text text-anchor="middle" x="748" y="-80" font-family="Helvetica,sans-Serif" font-size="10.00"> routingEntry</text>
</g>
<!-- Node13 -->
<g id="node13" class="node">
<title>Node13</title>
<g id="a_node13"><a xlink:href="../../d7/d19/struct_a_u_t_o_c_i_r_c_u_l_a_t_e___t_r_a_n_s_f_e_r___s_t_a_t_u_s___s_t_r_u_c_t.html" target="_top" xlink:title=" ">
<polygon fill="white" stroke="black" points="670,-208 670,-238 826,-238 826,-208 670,-208"/>
<text text-anchor="start" x="678" y="-226" font-family="Helvetica,sans-Serif" font-size="10.00">AUTOCIRCULATE_TRANSFER</text>
<text text-anchor="middle" x="748" y="-215" font-family="Helvetica,sans-Serif" font-size="10.00">_STATUS_STRUCT</text>
</a>
</g>
</g>
<!-- Node13&#45;&gt;Node1 -->
<g id="edge13" class="edge">
<title>Node13&#45;&gt;Node1</title>
<path fill="none" stroke="#9a32cd" stroke-dasharray="5,2" d="M836.34,-213.26C907.82,-204.34 1011.25,-189.29 1100,-168 1117.88,-163.71 1137.24,-157.66 1153.79,-152.04"/>
<polygon fill="#9a32cd" stroke="#9a32cd" points="835.53,-209.83 826.04,-214.53 836.39,-216.78 835.53,-209.83"/>
<text text-anchor="middle" x="908.5" y="-215" font-family="Helvetica,sans-Serif" font-size="10.00"> acStatus</text>
</g>
<!-- Node14&#45;&gt;Node13 -->
<g id="edge14" class="edge">
<title>Node14&#45;&gt;Node13</title>
<path fill="none" stroke="#9a32cd" stroke-dasharray="5,2" d="M425.28,-254.53C495.52,-247.64 599.21,-237.48 669.76,-230.57"/>
<polygon fill="#9a32cd" stroke="#9a32cd" points="424.78,-251.06 415.17,-255.52 425.46,-258.02 424.78,-251.06"/>
<text text-anchor="middle" x="480.5" y="-255" font-family="Helvetica,sans-Serif" font-size="10.00"> frameStamp</text>
</g>
</g>
</svg>
        <g id="navigator" transform="translate(0 0)" fill="#404254">
                <rect fill="#f2f5e9" fill-opacity="0.5" stroke="#606060" stroke-width=".5" x="0" y="0" width="60" height="60"/>
                <use id="zoomplus" xlink:href="#zoomPlus" x="17" y="9" onmousedown="handleZoom(evt,'in')"/>
                <use id="zoomminus" xlink:href="#zoomMin" x="42" y="9" onmousedown="handleZoom(evt,'out')"/>
                <use id="reset" xlink:href="#resetDef" x="30" y="36" onmousedown="handleReset()"/>
                <g id="arrowUp" xlink:href="#dirArrow" transform="translate(30 24)" onmousedown="handlePan(0,-1)">
                  <use xlink:href="#rim" fill="#404040">
                        <set attributeName="fill" to="#808080" begin="arrowUp.mouseover" end="arrowUp.mouseout"/>
                  </use>
                  <path fill="none" stroke="white" stroke-width="1.5" d="M0,-3.0v7 M-2.5,-0.5L0,-3.0L2.5,-0.5"/>
                </g>
                <g id="arrowRight" xlink:href="#dirArrow" transform="rotate(90) translate(36 -43)" onmousedown="handlePan(1,0)">
                  <use xlink:href="#rim" fill="#404040">
                        <set attributeName="fill" to="#808080" begin="arrowRight.mouseover" end="arrowRight.mouseout"/>
                  </use>
                  <path fill="none" stroke="white" stroke-width="1.5" d="M0,-3.0v7 M-2.5,-0.5L0,-3.0L2.5,-0.5"/>
                </g>
                <g id="arrowDown" xlink:href="#dirArrow" transform="rotate(180) translate(-30 -48)" onmousedown="handlePan(0,1)">
                  <use xlink:href="#rim" fill="#404040">
                        <set attributeName="fill" to="#808080" begin="arrowDown.mouseover" end="arrowDown.mouseout"/>
                  </use>
                  <path fill="none" stroke="white" stroke-width="1.5" d="M0,-3.0v7 M-2.5,-0.5L0,-3.0L2.5,-0.5"/>
                </g>
                <g id="arrowLeft" xlink:href="#dirArrow" transform="rotate(270) translate(-36 17)" onmousedown="handlePan(-1,0)">
                  <use xlink:href="#rim" fill="#404040">
                        <set attributeName="fill" to="#808080" begin="arrowLeft.mouseover" end="arrowLeft.mouseout"/>
                  </use>
                  <path fill="none" stroke="white" stroke-width="1.5" d="M0,-3.0v7 M-2.5,-0.5L0,-3.0L2.5,-0.5"/>
                </g>
        </g>
        <svg viewBox="0 0 15 15" width="100%" height="30px" preserveAspectRatio="xMaxYMin meet">
         <g id="arrow_out" transform="scale(0.3 0.3)">
          <a xlink:href="struct_a_u_t_o_c_i_r_c_u_l_a_t_e___t_r_a_n_s_f_e_r___c_o_m_b_o___s_t_r_u_c_t__coll__graph_org.svg" target="_base">
           <rect id="button" ry="5" rx="5" y="6" x="6" height="38" width="38"
                fill="#f2f5e9" fill-opacity="0.5" stroke="#606060" stroke-width="1.0"/>
           <path id="arrow"
             d="M 11.500037,31.436501 C 11.940474,20.09759 22.043105,11.32322 32.158766,21.979434 L 37.068811,17.246167 C 37.068811,17.246167 37.088388,32 37.088388,32 L 22.160133,31.978069 C 22.160133,31.978069 26.997745,27.140456 26.997745,27.140456 C 18.528582,18.264221 13.291696,25.230495 11.500037,31.436501 z"
             style="fill:#404040;"/>
          </a>
         </g>
        </svg>
</svg>
