<?xml version="1.0" encoding="UTF-8" standalone="no"?>
<!DOCTYPE svg PUBLIC "-//W3C//DTD SVG 1.1//EN"
 "http://www.w3.org/Graphics/SVG/1.1/DTD/svg11.dtd">
<!-- Generated by graphviz version 2.40.1 (0)
 -->
<!-- Title: AUTOCIRCULATE_TRANSFER Pages: 1 -->
<svg width="935pt" height="430pt"
 viewBox="0.00 0.00 935.00 429.99" xmlns="http://www.w3.org/2000/svg" xmlns:xlink="http://www.w3.org/1999/xlink">
<g id="graph0" class="graph" transform="scale(1 1) rotate(0) translate(4 425.9863)">
<title>AUTOCIRCULATE_TRANSFER</title>
<polygon fill="#ffffff" stroke="transparent" points="-4,4 -4,-425.9863 931,-425.9863 931,4 -4,4"/>
<!-- Node1 -->
<g id="node1" class="node">
<title>Node1</title>
<polygon fill="#bfbfbf" stroke="#000000" points="766,-245.4863 766,-264.4863 927,-264.4863 927,-245.4863 766,-245.4863"/>
<text text-anchor="middle" x="846.5" y="-252.4863" font-family="Helvetica,sans-Serif" font-size="10.00" fill="#000000">AUTOCIRCULATE_TRANSFER</text>
</g>
<!-- Node2 -->
<g id="node2" class="node">
<title>Node2</title>
<g id="a_node2"><a xlink:href="../../d6/d78/class_n_t_v2_segmented_d_m_a_info.html" target="_top" xlink:title="This struct is used to augment the default full&#45;frame AutoCirculate DMA transfer to accommodate multi...">
<polygon fill="#ffffff" stroke="#000000" points="473,-397.4863 473,-416.4863 604,-416.4863 604,-397.4863 473,-397.4863"/>
<text text-anchor="middle" x="538.5" y="-404.4863" font-family="Helvetica,sans-Serif" font-size="10.00" fill="#000000">NTV2SegmentedDMAInfo</text>
</a>
</g>
</g>
<!-- Node2&#45;&gt;Node1 -->
<g id="edge1" class="edge">
<title>Node2&#45;&gt;Node1</title>
<path fill="none" stroke="#9a32cd" stroke-dasharray="5,2" d="M614.537,-412.2665C656.3815,-411.864 707.8109,-405.7038 748,-382.9863 798.0413,-354.6998 831.1015,-289.6358 842.2879,-264.8346"/>
<polygon fill="#9a32cd" stroke="#9a32cd" points="614.3977,-408.7664 604.3936,-412.2547 614.3895,-415.7664 614.3977,-408.7664"/>
<text text-anchor="middle" x="692.5" y="-413.9863" font-family="Helvetica,sans-Serif" font-size="10.00" fill="#000000"> acInSegmentedDMAInfo</text>
</g>
<!-- Node3 -->
<g id="node3" class="node">
<title>Node3</title>
<g id="a_node3"><a xlink:href="../../d6/d24/class_n_t_v2_color_correction_data.html" target="_top" xlink:title="Color correction data used with AUTOCIRCULATE_WITH_COLORCORRECT option. ">
<polygon fill="#ffffff" stroke="#000000" points="309,-320.4863 309,-339.4863 440,-339.4863 440,-320.4863 309,-320.4863"/>
<text text-anchor="middle" x="374.5" y="-327.4863" font-family="Helvetica,sans-Serif" font-size="10.00" fill="#000000">NTV2ColorCorrectionData</text>
</a>
</g>
</g>
<!-- Node3&#45;&gt;Node1 -->
<g id="edge2" class="edge">
<title>Node3&#45;&gt;Node1</title>
<path fill="none" stroke="#9a32cd" stroke-dasharray="5,2" d="M450.7293,-326.1387C526.7601,-321.1992 646.5306,-310.4241 748,-287.9863 774.062,-282.2233 802.9114,-272.0942 822.6145,-264.5735"/>
<polygon fill="#9a32cd" stroke="#9a32cd" points="450.0572,-322.6741 440.2977,-326.7975 450.4985,-329.6601 450.0572,-322.6741"/>
<text text-anchor="middle" x="538.5" y="-327.9863" font-family="Helvetica,sans-Serif" font-size="10.00" fill="#000000"> acColorCorrection</text>
</g>
<!-- Node4 -->
<g id="node4" class="node">
<title>Node4</title>
<g id="a_node4"><a xlink:href="../../d5/dc4/class_n_t_v2_buffer.html" target="_top" xlink:title="Describes a user&#45;space buffer on the host computer. I have an address and a length, plus some optional attributes (allocated by SDK?, page&#45;aligned? etc.). ">
<polygon fill="#ffffff" stroke="#000000" points="11,-327.4863 11,-346.4863 79,-346.4863 79,-327.4863 11,-327.4863"/>
<text text-anchor="middle" x="45" y="-334.4863" font-family="Helvetica,sans-Serif" font-size="10.00" fill="#000000">NTV2Buffer</text>
</a>
</g>
</g>
<!-- Node4&#45;&gt;Node1 -->
<g id="edge16" class="edge">
<title>Node4&#45;&gt;Node1</title>
<path fill="none" stroke="#9a32cd" stroke-dasharray="5,2" d="M88.9575,-347.2425C95.3148,-348.3794 101.8026,-349.3536 108,-349.9863 140.7188,-353.3269 149.1117,-350.1775 182,-349.9863 376.2698,-348.8569 426.369,-365.1916 619,-339.9863 677.2675,-332.3622 693.1922,-332.184 748,-310.9863 780.1069,-298.5686 814.3467,-276.9594 832.7998,-264.528"/>
<polygon fill="#9a32cd" stroke="#9a32cd" points="89.6171,-343.8053 79.1352,-345.3479 88.2913,-350.6786 89.6171,-343.8053"/>
<text text-anchor="middle" x="374.5" y="-411.9863" font-family="Helvetica,sans-Serif" font-size="10.00" fill="#000000"> acOutputTimeCodes</text>
<text text-anchor="middle" x="374.5" y="-400.9863" font-family="Helvetica,sans-Serif" font-size="10.00" fill="#000000">acANCField2Buffer</text>
<text text-anchor="middle" x="374.5" y="-389.9863" font-family="Helvetica,sans-Serif" font-size="10.00" fill="#000000">acAudioBuffer</text>
<text text-anchor="middle" x="374.5" y="-378.9863" font-family="Helvetica,sans-Serif" font-size="10.00" fill="#000000">acANCBuffer</text>
<text text-anchor="middle" x="374.5" y="-367.9863" font-family="Helvetica,sans-Serif" font-size="10.00" fill="#000000">acHDMIAuxData</text>
<text text-anchor="middle" x="374.5" y="-356.9863" font-family="Helvetica,sans-Serif" font-size="10.00" fill="#000000">acVideoBuffer</text>
</g>
<!-- Node4&#45;&gt;Node3 -->
<g id="edge3" class="edge">
<title>Node4&#45;&gt;Node3</title>
<path fill="none" stroke="#9a32cd" stroke-dasharray="5,2" d="M89.0529,-336.0505C145.4794,-334.8517 243.7561,-332.7639 308.9736,-331.3784"/>
<polygon fill="#9a32cd" stroke="#9a32cd" points="88.9446,-332.5519 79.0212,-336.2636 89.0934,-339.5503 88.9446,-332.5519"/>
<text text-anchor="middle" x="145" y="-337.9863" font-family="Helvetica,sans-Serif" font-size="10.00" fill="#000000"> ccLookupTables</text>
</g>
<!-- Node7 -->
<g id="node7" class="node">
<title>Node7</title>
<g id="a_node7"><a xlink:href="../../d9/d09/class_f_r_a_m_e___s_t_a_m_p.html" target="_top" xlink:title="This class/object reports information about the current and/or requested AutoCirculate frame...">
<polygon fill="#ffffff" stroke="#000000" points="200,-181.4863 200,-200.4863 291,-200.4863 291,-181.4863 200,-181.4863"/>
<text text-anchor="middle" x="245.5" y="-188.4863" font-family="Helvetica,sans-Serif" font-size="10.00" fill="#000000">FRAME_STAMP</text>
</a>
</g>
</g>
<!-- Node4&#45;&gt;Node7 -->
<g id="edge10" class="edge">
<title>Node4&#45;&gt;Node7</title>
<path fill="none" stroke="#9a32cd" stroke-dasharray="5,2" d="M68.6918,-321.6136C96.347,-303.4681 143.2379,-272.0735 182,-242.9863 200.6912,-228.9605 221.4947,-211.5644 234.0333,-200.8725"/>
<polygon fill="#9a32cd" stroke="#9a32cd" points="66.545,-318.8355 60.09,-327.2369 70.3753,-324.6946 66.545,-318.8355"/>
<text text-anchor="middle" x="145" y="-297.9863" font-family="Helvetica,sans-Serif" font-size="10.00" fill="#000000"> acTimeCodes</text>
</g>
<!-- Node5 -->
<g id="node5" class="node">
<title>Node5</title>
<g id="a_node5"><a xlink:href="../../d9/dba/class_n_t_v2___r_p188.html" target="_top" xlink:title="This struct replaces the old RP188_STRUCT. ">
<polygon fill="#ffffff" stroke="#000000" points="6.5,-237.4863 6.5,-256.4863 83.5,-256.4863 83.5,-237.4863 6.5,-237.4863"/>
<text text-anchor="middle" x="45" y="-244.4863" font-family="Helvetica,sans-Serif" font-size="10.00" fill="#000000">NTV2_RP188</text>
</a>
</g>
</g>
<!-- Node5&#45;&gt;Node1 -->
<g id="edge4" class="edge">
<title>Node5&#45;&gt;Node1</title>
<path fill="none" stroke="#9a32cd" stroke-dasharray="5,2" d="M93.5085,-254.6202C98.3939,-255.1775 103.2886,-255.6515 108,-255.9863 140.8061,-258.3178 149.1111,-256.0111 182,-255.9863 392.6847,-255.8278 640.9437,-255.3866 765.9481,-255.1466"/>
<polygon fill="#9a32cd" stroke="#9a32cd" points="93.9121,-251.1435 83.5554,-253.3771 93.0445,-258.0895 93.9121,-251.1435"/>
<text text-anchor="middle" x="374.5" y="-257.9863" font-family="Helvetica,sans-Serif" font-size="10.00" fill="#000000"> acRP188</text>
</g>
<!-- Node5&#45;&gt;Node7 -->
<g id="edge7" class="edge">
<title>Node5&#45;&gt;Node7</title>
<path fill="none" stroke="#9a32cd" stroke-dasharray="5,2" d="M89.4386,-234.5746C126.2757,-224.2859 177.8688,-209.8758 211.4826,-200.4875"/>
<polygon fill="#9a32cd" stroke="#9a32cd" points="88.157,-231.2985 79.4672,-237.3596 90.0401,-238.0404 88.157,-231.2985"/>
<text text-anchor="middle" x="145" y="-230.9863" font-family="Helvetica,sans-Serif" font-size="10.00" fill="#000000"> acRP188</text>
</g>
<!-- Node6 -->
<g id="node6" class="node">
<title>Node6</title>
<g id="a_node6"><a xlink:href="../../d9/daa/class_a_u_t_o_c_i_r_c_u_l_a_t_e___t_r_a_n_s_f_e_r___s_t_a_t_u_s.html" target="_top" xlink:title="This object is embedded in the AUTOCIRCULATE_TRANSFER struct that&#39;s returned from the CNTV2Card::Auto...">
<polygon fill="#ffffff" stroke="#000000" points="458,-150.9863 458,-180.9863 619,-180.9863 619,-150.9863 458,-150.9863"/>
<text text-anchor="start" x="466" y="-168.9863" font-family="Helvetica,sans-Serif" font-size="10.00" fill="#000000">AUTOCIRCULATE_TRANSFER</text>
<text text-anchor="middle" x="538.5" y="-157.9863" font-family="Helvetica,sans-Serif" font-size="10.00" fill="#000000">_STATUS</text>
</a>
</g>
</g>
<!-- Node6&#45;&gt;Node1 -->
<g id="edge5" class="edge">
<title>Node6&#45;&gt;Node1</title>
<path fill="none" stroke="#9a32cd" stroke-dasharray="5,2" d="M628.9774,-181.1383C666.2999,-188.4885 709.6969,-198.4695 748,-210.9863 776.8406,-220.411 808.6243,-235.5274 828.077,-245.3579"/>
<polygon fill="#9a32cd" stroke="#9a32cd" points="629.6082,-177.6955 619.1252,-179.2309 628.2776,-184.5679 629.6082,-177.6955"/>
<text text-anchor="middle" x="692.5" y="-213.9863" font-family="Helvetica,sans-Serif" font-size="10.00" fill="#000000"> acTransferStatus</text>
</g>
<!-- Node7&#45;&gt;Node6 -->
<g id="edge6" class="edge">
<title>Node7&#45;&gt;Node6</title>
<path fill="none" stroke="#9a32cd" stroke-dasharray="5,2" d="M301.2911,-186.226C345.6116,-182.4444 408.1954,-177.1045 457.9519,-172.859"/>
<polygon fill="#9a32cd" stroke="#9a32cd" points="300.9475,-182.7425 291.2813,-187.0801 301.5426,-189.7172 300.9475,-182.7425"/>
<text text-anchor="middle" x="374.5" y="-186.9863" font-family="Helvetica,sans-Serif" font-size="10.00" fill="#000000"> acFrameStamp</text>
</g>
<!-- Node8 -->
<g id="node8" class="node">
<title>Node8</title>
<g id="a_node8"><a xlink:href="../../d3/daf/class_n_t_v2___t_r_a_i_l_e_r.html" target="_top" xlink:title="All new NTV2 structs end with this common trailer. ">
<polygon fill="#ffffff" stroke="#000000" points="0,-175.4863 0,-194.4863 90,-194.4863 90,-175.4863 0,-175.4863"/>
<text text-anchor="middle" x="45" y="-182.4863" font-family="Helvetica,sans-Serif" font-size="10.00" fill="#000000">NTV2_TRAILER</text>
</a>
</g>
</g>
<!-- Node8&#45;&gt;Node1 -->
<g id="edge13" class="edge">
<title>Node8&#45;&gt;Node1</title>
<path fill="none" stroke="#9a32cd" stroke-dasharray="5,2" d="M61.5102,-201.4201C73.3568,-212.0311 90.2967,-224.9444 108,-230.9863 142.9245,-242.9056 403.1158,-238.8278 440,-239.9863 576.9086,-244.2867 611.1235,-245.7629 748,-250.9863 753.8148,-251.2082 759.8225,-251.4418 765.8693,-251.6799"/>
<polygon fill="#9a32cd" stroke="#9a32cd" points="63.8682,-198.8332 54.1757,-194.5547 59.0846,-203.9437 63.8682,-198.8332"/>
<text text-anchor="middle" x="374.5" y="-242.9863" font-family="Helvetica,sans-Serif" font-size="10.00" fill="#000000"> acTrailer</text>
</g>
<!-- Node8&#45;&gt;Node6 -->
<g id="edge11" class="edge">
<title>Node8&#45;&gt;Node6</title>
<path fill="none" stroke="#9a32cd" stroke-dasharray="5,2" d="M100.3216,-174.308C129.7899,-169.1561 166.7273,-163.547 200,-160.9863 287.9007,-154.2214 389.0075,-157.1008 457.6662,-160.645"/>
<polygon fill="#9a32cd" stroke="#9a32cd" points="99.4594,-170.9064 90.228,-176.1055 100.6867,-177.798 99.4594,-170.9064"/>
<text text-anchor="middle" x="245.5" y="-163.9863" font-family="Helvetica,sans-Serif" font-size="10.00" fill="#000000"> acTrailer</text>
</g>
<!-- Node8&#45;&gt;Node7 -->
<g id="edge8" class="edge">
<title>Node8&#45;&gt;Node7</title>
<path fill="none" stroke="#9a32cd" stroke-dasharray="5,2" d="M100.0987,-184.4938C125.1074,-184.5004 155.0573,-184.8287 182,-185.9863 187.7451,-186.2332 193.7762,-186.586 199.7402,-186.9917"/>
<polygon fill="#9a32cd" stroke="#9a32cd" points="100.059,-180.9937 90.064,-184.508 100.069,-187.9937 100.059,-180.9937"/>
<text text-anchor="middle" x="145" y="-188.9863" font-family="Helvetica,sans-Serif" font-size="10.00" fill="#000000"> acTrailer</text>
</g>
<!-- Node9 -->
<g id="node9" class="node">
<title>Node9</title>
<g id="a_node9"><a xlink:href="../../d4/d09/class_n_t_v2___h_e_a_d_e_r.html" target="_top" xlink:title="All new NTV2 structs start with this common header. ">
<polygon fill="#ffffff" stroke="#000000" points="0,-83.4863 0,-102.4863 90,-102.4863 90,-83.4863 0,-83.4863"/>
<text text-anchor="middle" x="45" y="-90.4863" font-family="Helvetica,sans-Serif" font-size="10.00" fill="#000000">NTV2_HEADER</text>
</a>
</g>
</g>
<!-- Node9&#45;&gt;Node1 -->
<g id="edge14" class="edge">
<title>Node9&#45;&gt;Node1</title>
<path fill="none" stroke="#9a32cd" stroke-dasharray="5,2" d="M100.3704,-93.2806C203.5152,-94.8034 431.6049,-102.7681 619,-141.9863 677.3803,-154.2042 694.775,-152.0673 748,-178.9863 784.043,-197.2154 819.9875,-229.3654 836.7454,-245.3719"/>
<polygon fill="#9a32cd" stroke="#9a32cd" points="100.2377,-89.7787 90.1921,-93.1455 100.1448,-96.7781 100.2377,-89.7787"/>
<text text-anchor="middle" x="374.5" y="-116.9863" font-family="Helvetica,sans-Serif" font-size="10.00" fill="#000000"> acHeader</text>
</g>
<!-- Node9&#45;&gt;Node6 -->
<g id="edge12" class="edge">
<title>Node9&#45;&gt;Node6</title>
<path fill="none" stroke="#9a32cd" stroke-dasharray="5,2" d="M100.0402,-101.128C187.055,-113.9995 356.8442,-139.1153 457.6974,-154.0338"/>
<polygon fill="#9a32cd" stroke="#9a32cd" points="100.5076,-97.6592 90.1031,-99.6581 99.4833,-104.5838 100.5076,-97.6592"/>
<text text-anchor="middle" x="245.5" y="-130.9863" font-family="Helvetica,sans-Serif" font-size="10.00" fill="#000000"> acHeader</text>
</g>
<!-- Node9&#45;&gt;Node7 -->
<g id="edge9" class="edge">
<title>Node9&#45;&gt;Node7</title>
<path fill="none" stroke="#9a32cd" stroke-dasharray="5,2" d="M73.5886,-106.9598C114.895,-127.1495 190.2105,-163.9621 225.8306,-181.3724"/>
<polygon fill="#9a32cd" stroke="#9a32cd" points="75.1111,-103.8083 64.5898,-102.5614 72.0371,-110.0973 75.1111,-103.8083"/>
<text text-anchor="middle" x="145" y="-161.9863" font-family="Helvetica,sans-Serif" font-size="10.00" fill="#000000"> acHeader</text>
</g>
<!-- Node10 -->
<g id="node10" class="node">
<title>Node10</title>
<g id="a_node10"><a xlink:href="../../d3/d14/struct_auto_circ_vid_proc_info.html" target="_top" xlink:title="AutoCircVidProcInfo">
<polygon fill="#ffffff" stroke="#000000" points="485.5,-5.4863 485.5,-24.4863 591.5,-24.4863 591.5,-5.4863 485.5,-5.4863"/>
<text text-anchor="middle" x="538.5" y="-12.4863" font-family="Helvetica,sans-Serif" font-size="10.00" fill="#000000">AutoCircVidProcInfo</text>
</a>
</g>
</g>
<!-- Node10&#45;&gt;Node1 -->
<g id="edge15" class="edge">
<title>Node10&#45;&gt;Node1</title>
<path fill="none" stroke="#9a32cd" stroke-dasharray="5,2" d="M591.6784,-3.9314C637.2947,2.4407 702.6512,3.8226 748,-27.9863 824.6719,-81.7661 842.1901,-208.5632 845.7015,-245.0212"/>
<polygon fill="#9a32cd" stroke="#9a32cd" points="591.0448,-.4874 581.6844,-5.4506 592.0968,-7.4079 591.0448,-.4874"/>
<text text-anchor="middle" x="692.5" y="-30.9863" font-family="Helvetica,sans-Serif" font-size="10.00" fill="#000000"> acVidProcInfo</text>
</g>
</g>
</svg>
