<?xml version="1.0" encoding="UTF-8" standalone="no"?>
<!DOCTYPE svg PUBLIC "-//W3C//DTD SVG 1.1//EN"
 "http://www.w3.org/Graphics/SVG/1.1/DTD/svg11.dtd">
<!-- Generated by graphviz version 2.43.0 (0)
 -->
<!-- Title: nlohmann::json_abiNLOHMANN_JSON_ABI_TAG_LEGACY_DISCARDED_VALUE_COMPARISON_v3_11_NLOHMANN_JSON_VERSION_PATCH::detail::negation&lt; B &gt; Pages: 1 -->
<svg width="250pt" height="128pt"
 viewBox="0.00 0.00 250.00 128.00" xmlns="http://www.w3.org/2000/svg" xmlns:xlink="http://www.w3.org/1999/xlink">
<g id="graph0" class="graph" transform="scale(1 1) rotate(0) translate(4 124)">
<title>nlohmann::json_abiNLOHMANN_JSON_ABI_TAG_LEGACY_DISCARDED_VALUE_COMPARISON_v3_11_NLOHMANN_JSON_VERSION_PATCH::detail::negation&lt; B &gt;</title>
<polygon fill="white" stroke="transparent" points="-4,4 -4,-124 246,-124 246,4 -4,4"/>
<!-- Node1 -->
<g id="node1" class="node">
<title>Node1</title>
<g id="a_node1"><a xlink:title=" ">
<polygon fill="#bfbfbf" stroke="black" points="0,-0.5 0,-52.5 242,-52.5 242,-0.5 0,-0.5"/>
<text text-anchor="start" x="8" y="-40.5" font-family="Helvetica,sans-Serif" font-size="10.00">nlohmann::json_abiNLOHMANN</text>
<text text-anchor="start" x="8" y="-29.5" font-family="Helvetica,sans-Serif" font-size="10.00">_JSON_ABI_TAG_LEGACY_DISCARDED</text>
<text text-anchor="start" x="8" y="-18.5" font-family="Helvetica,sans-Serif" font-size="10.00">_VALUE_COMPARISON_v3_11_NLOHMANN</text>
<text text-anchor="middle" x="121" y="-7.5" font-family="Helvetica,sans-Serif" font-size="10.00">_JSON_VERSION_PATCH::detail::negation&lt; B &gt;</text>
</a>
</g>
</g>
<!-- Node2 -->
<g id="node2" class="node">
<title>Node2</title>
<g id="a_node2"><a xlink:title=" ">
<polygon fill="white" stroke="#bfbfbf" points="60,-89.5 60,-119.5 182,-119.5 182,-89.5 60,-89.5"/>
<text text-anchor="start" x="68" y="-107.5" font-family="Helvetica,sans-Serif" font-size="10.00">std::integral_constant</text>
<text text-anchor="middle" x="121" y="-96.5" font-family="Helvetica,sans-Serif" font-size="10.00">&lt; bool, !B::value &gt;</text>
</a>
</g>
</g>
<!-- Node2&#45;&gt;Node1 -->
<g id="edge1" class="edge">
<title>Node2&#45;&gt;Node1</title>
<path fill="none" stroke="midnightblue" d="M121,-79.14C121,-70.63 121,-61.07 121,-52.5"/>
<polygon fill="midnightblue" stroke="midnightblue" points="117.5,-79.2 121,-89.2 124.5,-79.21 117.5,-79.2"/>
</g>
</g>
</svg>
