<?xml version="1.0" encoding="UTF-8" standalone="no"?>
<!DOCTYPE svg PUBLIC "-//W3C//DTD SVG 1.1//EN"
 "http://www.w3.org/Graphics/SVG/1.1/DTD/svg11.dtd">
<!-- Generated by graphviz version 2.40.1 (0)
 -->
<!-- Title: /home/tcbuilder/buildAgent/work/df8e8cce5bebfd58/libajantv2/demos/ntv2burn/ntv2burn.h Pages: 1 -->
<svg width="360pt" height="128pt"
 viewBox="0.00 0.00 360.00 128.00" xmlns="http://www.w3.org/2000/svg" xmlns:xlink="http://www.w3.org/1999/xlink">
<g id="graph0" class="graph" transform="scale(1 1) rotate(0) translate(4 124)">
<title>/home/tcbuilder/buildAgent/work/df8e8cce5bebfd58/libajantv2/demos/ntv2burn/ntv2burn.h</title>
<polygon fill="#ffffff" stroke="transparent" points="-4,4 -4,-124 356,-124 356,4 -4,4"/>
<!-- Node60 -->
<g id="node1" class="node">
<title>Node60</title>
<polygon fill="#bfbfbf" stroke="#000000" points="92,-78.5 92,-119.5 259,-119.5 259,-78.5 92,-78.5"/>
<text text-anchor="start" x="100" y="-107.5" font-family="Helvetica,sans-Serif" font-size="10.00" fill="#000000">/home/tcbuilder/buildAgent</text>
<text text-anchor="start" x="100" y="-96.5" font-family="Helvetica,sans-Serif" font-size="10.00" fill="#000000">/work/df8e8cce5bebfd58/libajantv2</text>
<text text-anchor="middle" x="175.5" y="-85.5" font-family="Helvetica,sans-Serif" font-size="10.00" fill="#000000">/demos/ntv2burn/ntv2burn.h</text>
</g>
<!-- Node61 -->
<g id="node2" class="node">
<title>Node61</title>
<g id="a_node2"><a xlink:href="../../d6/dbf/ntv2burn_2main_8cpp.html" target="_top" xlink:title="Demonstration application that &quot;burns&quot; timecode into frames captured from SDI input, and playout those modified frames to SDI output. ">
<polygon fill="#ffffff" stroke="#000000" points="0,-.5 0,-41.5 167,-41.5 167,-.5 0,-.5"/>
<text text-anchor="start" x="8" y="-29.5" font-family="Helvetica,sans-Serif" font-size="10.00" fill="#000000">/home/tcbuilder/buildAgent</text>
<text text-anchor="start" x="8" y="-18.5" font-family="Helvetica,sans-Serif" font-size="10.00" fill="#000000">/work/df8e8cce5bebfd58/libajantv2</text>
<text text-anchor="middle" x="83.5" y="-7.5" font-family="Helvetica,sans-Serif" font-size="10.00" fill="#000000">/demos/ntv2burn/main.cpp</text>
</a>
</g>
</g>
<!-- Node60&#45;&gt;Node61 -->
<g id="edge1" class="edge">
<title>Node60&#45;&gt;Node61</title>
<path fill="none" stroke="#191970" d="M143.0785,-71.5122C131.5102,-61.7043 118.6833,-50.8293 107.9034,-41.6898"/>
<polygon fill="#191970" stroke="#191970" points="140.9547,-74.3002 150.8457,-78.0974 145.4815,-68.9609 140.9547,-74.3002"/>
</g>
<!-- Node62 -->
<g id="node3" class="node">
<title>Node62</title>
<g id="a_node3"><a xlink:href="../../d5/dd5/ntv2burn_8cpp.html" target="_top" xlink:title="Implementation of NTV2Burn demonstration class. ">
<polygon fill="#ffffff" stroke="#000000" points="185,-.5 185,-41.5 352,-41.5 352,-.5 185,-.5"/>
<text text-anchor="start" x="193" y="-29.5" font-family="Helvetica,sans-Serif" font-size="10.00" fill="#000000">/home/tcbuilder/buildAgent</text>
<text text-anchor="start" x="193" y="-18.5" font-family="Helvetica,sans-Serif" font-size="10.00" fill="#000000">/work/df8e8cce5bebfd58/libajantv2</text>
<text text-anchor="middle" x="268.5" y="-7.5" font-family="Helvetica,sans-Serif" font-size="10.00" fill="#000000">/demos/ntv2burn/ntv2burn.cpp</text>
</a>
</g>
</g>
<!-- Node60&#45;&gt;Node62 -->
<g id="edge2" class="edge">
<title>Node60&#45;&gt;Node62</title>
<path fill="none" stroke="#191970" d="M208.2739,-71.5122C219.968,-61.7043 232.9343,-50.8293 243.8314,-41.6898"/>
<polygon fill="#191970" stroke="#191970" points="205.8351,-68.9896 200.4223,-78.0974 210.3334,-74.353 205.8351,-68.9896"/>
</g>
</g>
</svg>
