<?xml version="1.0" encoding="UTF-8" standalone="no"?>
<!DOCTYPE svg PUBLIC "-//W3C//DTD SVG 1.1//EN"
 "http://www.w3.org/Graphics/SVG/1.1/DTD/svg11.dtd">
<!-- Generated by graphviz version 2.43.0 (0)
 -->
<!-- Title: /home/tcbuilder/buildAgent/work/df8e8cce5bebfd58/libajantv2/ajantv2/includes/ntv2testpatterngen.h Pages: 1 -->
<svg width="1138pt" height="386pt"
 viewBox="0.00 0.00 1137.81 386.00" xmlns="http://www.w3.org/2000/svg" xmlns:xlink="http://www.w3.org/1999/xlink">
<g id="graph0" class="graph" transform="scale(1 1) rotate(0) translate(4 382)">
<title>/home/tcbuilder/buildAgent/work/df8e8cce5bebfd58/libajantv2/ajantv2/includes/ntv2testpatterngen.h</title>
<polygon fill="white" stroke="transparent" points="-4,4 -4,-382 1133.81,-382 1133.81,4 -4,4"/>
<!-- Node1 -->
<g id="node1" class="node">
<title>Node1</title>
<g id="a_node1"><a xlink:title="Declares the NTV2TestPatternGen class.">
<polygon fill="#bfbfbf" stroke="black" points="171,-336.5 171,-377.5 377,-377.5 377,-336.5 171,-336.5"/>
<text text-anchor="start" x="179" y="-365.5" font-family="Helvetica,sans-Serif" font-size="10.00">/home/tcbuilder/buildAgent</text>
<text text-anchor="start" x="179" y="-354.5" font-family="Helvetica,sans-Serif" font-size="10.00">/work/df8e8cce5bebfd58/libajantv2</text>
<text text-anchor="middle" x="274" y="-343.5" font-family="Helvetica,sans-Serif" font-size="10.00">/ajantv2/includes/ntv2testpatterngen.h</text>
</a>
</g>
</g>
<!-- Node2 -->
<g id="node2" class="node">
<title>Node2</title>
<g id="a_node2"><a xlink:href="../../d6/dd9/ajaexport_8h.html" target="_top" xlink:title="Defines the import/export macros for producing DLLs or LIBs.">
<polygon fill="white" stroke="black" points="67,-0.5 67,-19.5 139,-19.5 139,-0.5 67,-0.5"/>
<text text-anchor="middle" x="103" y="-7.5" font-family="Helvetica,sans-Serif" font-size="10.00">ajaexport.h</text>
</a>
</g>
</g>
<!-- Node1&#45;&gt;Node2 -->
<g id="edge1" class="edge">
<title>Node1&#45;&gt;Node2</title>
<path fill="none" stroke="midnightblue" d="M170.8,-350.91C93.13,-340.85 0,-312.61 0,-235 0,-235 0,-235 0,-121 0,-76.43 45.62,-42.46 76.14,-24.73"/>
<polygon fill="midnightblue" stroke="midnightblue" points="78.03,-27.68 85.06,-19.75 74.62,-21.57 78.03,-27.68"/>
</g>
<!-- Node3 -->
<g id="node3" class="node">
<title>Node3</title>
<g id="a_node3"><a xlink:href="../../d6/d0c/ntv2enums_8h.html" target="_top" xlink:title="Enumerations for controlling NTV2 devices.">
<polygon fill="white" stroke="black" points="207,-112.5 207,-131.5 287,-131.5 287,-112.5 207,-112.5"/>
<text text-anchor="middle" x="247" y="-119.5" font-family="Helvetica,sans-Serif" font-size="10.00">ntv2enums.h</text>
</a>
</g>
</g>
<!-- Node1&#45;&gt;Node3 -->
<g id="edge2" class="edge">
<title>Node1&#45;&gt;Node3</title>
<path fill="none" stroke="midnightblue" d="M268.02,-336.4C258.25,-302.4 240.24,-230.13 243,-168 243.38,-159.37 244.18,-149.84 244.96,-141.78"/>
<polygon fill="midnightblue" stroke="midnightblue" points="248.46,-141.92 246.01,-131.61 241.5,-141.2 248.46,-141.92"/>
</g>
<!-- Node7 -->
<g id="node7" class="node">
<title>Node7</title>
<g id="a_node7"><a xlink:title=" ">
<polygon fill="white" stroke="#bfbfbf" points="259,-0.5 259,-19.5 303,-19.5 303,-0.5 259,-0.5"/>
<text text-anchor="middle" x="281" y="-7.5" font-family="Helvetica,sans-Serif" font-size="10.00">string</text>
</a>
</g>
</g>
<!-- Node1&#45;&gt;Node7 -->
<g id="edge42" class="edge">
<title>Node1&#45;&gt;Node7</title>
<path fill="none" stroke="midnightblue" d="M256.59,-336.38C221.65,-294.51 149.28,-193.58 185,-112 194.46,-90.39 207.53,-92.89 224,-76 239.47,-60.13 256.06,-40.94 267.33,-27.55"/>
<polygon fill="midnightblue" stroke="midnightblue" points="270.18,-29.59 273.9,-19.67 264.8,-25.11 270.18,-29.59"/>
</g>
<!-- Node8 -->
<g id="node8" class="node">
<title>Node8</title>
<g id="a_node8"><a xlink:href="../../d0/d81/ntv2utils_8h.html" target="_top" xlink:title="Declares numerous NTV2 utility functions.">
<polygon fill="white" stroke="black" points="407,-280.5 407,-299.5 475,-299.5 475,-280.5 407,-280.5"/>
<text text-anchor="middle" x="441" y="-287.5" font-family="Helvetica,sans-Serif" font-size="10.00">ntv2utils.h</text>
</a>
</g>
</g>
<!-- Node1&#45;&gt;Node8 -->
<g id="edge8" class="edge">
<title>Node1&#45;&gt;Node8</title>
<path fill="none" stroke="midnightblue" d="M324.11,-336.5C351.8,-325.72 385.37,-312.65 409.41,-303.29"/>
<polygon fill="midnightblue" stroke="midnightblue" points="410.72,-306.54 418.77,-299.65 408.18,-300.02 410.72,-306.54"/>
</g>
<!-- Node12 -->
<g id="node12" class="node">
<title>Node12</title>
<g id="a_node12"><a xlink:title=" ">
<polygon fill="white" stroke="#bfbfbf" points="1081,-112.5 1081,-131.5 1113,-131.5 1113,-112.5 1081,-112.5"/>
<text text-anchor="middle" x="1097" y="-119.5" font-family="Helvetica,sans-Serif" font-size="10.00">set</text>
</a>
</g>
</g>
<!-- Node1&#45;&gt;Node12 -->
<g id="edge41" class="edge">
<title>Node1&#45;&gt;Node12</title>
<path fill="none" stroke="midnightblue" d="M377.18,-349.51C480.15,-341.89 642.54,-326.75 781,-300 872.05,-282.41 899.03,-285.42 982,-244 1018.59,-225.73 1027.28,-218.06 1055,-188 1068.34,-173.54 1080.16,-154.35 1087.84,-140.58"/>
<polygon fill="midnightblue" stroke="midnightblue" points="1090.99,-142.11 1092.66,-131.65 1084.83,-138.79 1090.99,-142.11"/>
</g>
<!-- Node14 -->
<g id="node14" class="node">
<title>Node14</title>
<g id="a_node14"><a xlink:title=" ">
<polygon fill="white" stroke="#bfbfbf" points="977.5,-112.5 977.5,-131.5 1024.5,-131.5 1024.5,-112.5 977.5,-112.5"/>
<text text-anchor="middle" x="1001" y="-119.5" font-family="Helvetica,sans-Serif" font-size="10.00">vector</text>
</a>
</g>
</g>
<!-- Node1&#45;&gt;Node14 -->
<g id="edge40" class="edge">
<title>Node1&#45;&gt;Node14</title>
<path fill="none" stroke="midnightblue" d="M377.1,-348.68C509.13,-337.03 743.6,-308.59 934,-244 984.46,-226.88 1012.5,-233.63 1040,-188 1050.26,-170.98 1034.84,-151.42 1020.47,-138.24"/>
<polygon fill="midnightblue" stroke="midnightblue" points="1022.63,-135.48 1012.76,-131.63 1018.08,-140.79 1022.63,-135.48"/>
</g>
<!-- Node4 -->
<g id="node4" class="node">
<title>Node4</title>
<g id="a_node4"><a xlink:href="../../db/de2/ajatypes_8h.html" target="_top" xlink:title="Declares the most fundamental data types used by NTV2. Since Windows NT was the first principal devel...">
<polygon fill="white" stroke="black" points="723,-56.5 723,-75.5 791,-75.5 791,-56.5 723,-56.5"/>
<text text-anchor="middle" x="757" y="-63.5" font-family="Helvetica,sans-Serif" font-size="10.00">ajatypes.h</text>
</a>
</g>
</g>
<!-- Node3&#45;&gt;Node4 -->
<g id="edge3" class="edge">
<title>Node3&#45;&gt;Node4</title>
<path fill="none" stroke="midnightblue" d="M287.02,-116.76C380.93,-106.82 614.88,-82.05 712.8,-71.68"/>
<polygon fill="midnightblue" stroke="midnightblue" points="713.37,-75.14 722.95,-70.61 712.64,-68.18 713.37,-75.14"/>
</g>
<!-- Node6 -->
<g id="node6" class="node">
<title>Node6</title>
<g id="a_node6"><a xlink:href="../../d6/db1/ntv2version_8h.html" target="_top" xlink:title="Defines for the NTV2 SDK version number, used by ajantv2/includes/ntv2enums.h. See the ajantv2/includ...">
<polygon fill="white" stroke="black" points="131.5,-56.5 131.5,-75.5 214.5,-75.5 214.5,-56.5 131.5,-56.5"/>
<text text-anchor="middle" x="173" y="-63.5" font-family="Helvetica,sans-Serif" font-size="10.00">ntv2version.h</text>
</a>
</g>
</g>
<!-- Node3&#45;&gt;Node6 -->
<g id="edge5" class="edge">
<title>Node3&#45;&gt;Node6</title>
<path fill="none" stroke="midnightblue" d="M235.11,-112.32C223.85,-104.11 206.71,-91.6 193.29,-81.81"/>
<polygon fill="midnightblue" stroke="midnightblue" points="195.25,-78.9 185.11,-75.83 191.12,-84.56 195.25,-78.9"/>
</g>
<!-- Node5 -->
<g id="node5" class="node">
<title>Node5</title>
<g id="a_node5"><a xlink:title=" ">
<polygon fill="white" stroke="#bfbfbf" points="730.5,-0.5 730.5,-19.5 783.5,-19.5 783.5,-0.5 730.5,-0.5"/>
<text text-anchor="middle" x="757" y="-7.5" font-family="Helvetica,sans-Serif" font-size="10.00">stdint.h</text>
</a>
</g>
</g>
<!-- Node4&#45;&gt;Node5 -->
<g id="edge4" class="edge">
<title>Node4&#45;&gt;Node5</title>
<path fill="none" stroke="midnightblue" d="M757,-56.08C757,-49.01 757,-38.86 757,-29.99"/>
<polygon fill="midnightblue" stroke="midnightblue" points="760.5,-29.75 757,-19.75 753.5,-29.75 760.5,-29.75"/>
</g>
<!-- Node6&#45;&gt;Node2 -->
<g id="edge6" class="edge">
<title>Node6&#45;&gt;Node2</title>
<path fill="none" stroke="midnightblue" d="M161.75,-56.32C151.2,-48.18 135.2,-35.84 122.56,-26.09"/>
<polygon fill="midnightblue" stroke="midnightblue" points="124.51,-23.17 114.45,-19.83 120.23,-28.71 124.51,-23.17"/>
</g>
<!-- Node6&#45;&gt;Node7 -->
<g id="edge7" class="edge">
<title>Node6&#45;&gt;Node7</title>
<path fill="none" stroke="midnightblue" d="M190.35,-56.32C207.67,-47.66 234.52,-34.24 254.5,-24.25"/>
<polygon fill="midnightblue" stroke="midnightblue" points="256.31,-27.26 263.69,-19.65 253.18,-21 256.31,-27.26"/>
</g>
<!-- Node8&#45;&gt;Node2 -->
<g id="edge9" class="edge">
<title>Node8&#45;&gt;Node2</title>
<path fill="none" stroke="midnightblue" d="M406.62,-288.61C362.58,-286.63 285.33,-278.08 230,-244 198.88,-224.84 115.15,-93.17 109,-76 103.68,-61.15 102.37,-43.23 102.28,-29.97"/>
<polygon fill="midnightblue" stroke="midnightblue" points="105.79,-29.76 102.45,-19.71 98.79,-29.65 105.79,-29.76"/>
</g>
<!-- Node8&#45;&gt;Node3 -->
<g id="edge11" class="edge">
<title>Node8&#45;&gt;Node3</title>
<path fill="none" stroke="midnightblue" d="M406.88,-289.35C369.5,-287.8 310.31,-279.39 276,-244 249.15,-216.3 245.65,-168.37 245.99,-141.91"/>
<polygon fill="midnightblue" stroke="midnightblue" points="249.49,-141.82 246.32,-131.71 242.49,-141.59 249.49,-141.82"/>
</g>
<!-- Node8&#45;&gt;Node4 -->
<g id="edge10" class="edge">
<title>Node8&#45;&gt;Node4</title>
<path fill="none" stroke="midnightblue" d="M475.26,-282.19C516.09,-273.91 586.31,-259.15 646,-244 647.36,-243.66 1033.16,-133.12 1034,-132 1039.34,-124.9 1039.76,-118.77 1034,-112 1004.69,-77.54 872.12,-69.4 801.54,-67.52"/>
<polygon fill="midnightblue" stroke="midnightblue" points="801.27,-64.01 791.19,-67.28 801.1,-71.01 801.27,-64.01"/>
</g>
<!-- Node8&#45;&gt;Node7 -->
<g id="edge37" class="edge">
<title>Node8&#45;&gt;Node7</title>
<path fill="none" stroke="midnightblue" d="M406.74,-288.67C367.05,-286.6 301.55,-277.8 258,-244 207.09,-204.49 166.46,-168.2 198,-112 213.04,-85.21 237.49,-99.72 257,-76 267.97,-62.66 274.19,-43.83 277.53,-29.87"/>
<polygon fill="midnightblue" stroke="midnightblue" points="280.99,-30.42 279.63,-19.92 274.14,-28.98 280.99,-30.42"/>
</g>
<!-- Node9 -->
<g id="node9" class="node">
<title>Node9</title>
<g id="a_node9"><a xlink:href="../../d9/d61/ntv2videodefines_8h.html" target="_top" xlink:title="Declares common video macros and structs used in the SDK.">
<polygon fill="white" stroke="black" points="921,-168.5 921,-187.5 1031,-187.5 1031,-168.5 921,-168.5"/>
<text text-anchor="middle" x="976" y="-175.5" font-family="Helvetica,sans-Serif" font-size="10.00">ntv2videodefines.h</text>
</a>
</g>
</g>
<!-- Node8&#45;&gt;Node9 -->
<g id="edge12" class="edge">
<title>Node8&#45;&gt;Node9</title>
<path fill="none" stroke="midnightblue" d="M475.21,-288.54C569.25,-286.84 829.84,-279.01 907,-244 930.55,-233.31 951.19,-211.25 963.62,-195.81"/>
<polygon fill="midnightblue" stroke="midnightblue" points="966.6,-197.67 969.95,-187.62 961.06,-193.39 966.6,-197.67"/>
</g>
<!-- Node10 -->
<g id="node10" class="node">
<title>Node10</title>
<g id="a_node10"><a xlink:href="../../d4/dd7/ntv2publicinterface_8h.html" target="_top" xlink:title="Declares enums and structs used by all platform drivers and the SDK.">
<polygon fill="white" stroke="black" points="550,-168.5 550,-187.5 670,-187.5 670,-168.5 550,-168.5"/>
<text text-anchor="middle" x="610" y="-175.5" font-family="Helvetica,sans-Serif" font-size="10.00">ntv2publicinterface.h</text>
</a>
</g>
</g>
<!-- Node8&#45;&gt;Node10 -->
<g id="edge14" class="edge">
<title>Node8&#45;&gt;Node10</title>
<path fill="none" stroke="midnightblue" d="M475.1,-285.7C505.84,-281.09 550.59,-270.09 580,-244 593.63,-231.91 601.49,-212.34 605.72,-197.83"/>
<polygon fill="midnightblue" stroke="midnightblue" points="609.16,-198.49 608.28,-187.93 602.38,-196.74 609.16,-198.49"/>
</g>
<!-- Node11 -->
<g id="node11" class="node">
<title>Node11</title>
<g id="a_node11"><a xlink:title=" ">
<polygon fill="white" stroke="#bfbfbf" points="381,-112.5 381,-131.5 441,-131.5 441,-112.5 381,-112.5"/>
<text text-anchor="middle" x="411" y="-119.5" font-family="Helvetica,sans-Serif" font-size="10.00">iostream</text>
</a>
</g>
</g>
<!-- Node8&#45;&gt;Node11 -->
<g id="edge38" class="edge">
<title>Node8&#45;&gt;Node11</title>
<path fill="none" stroke="midnightblue" d="M439.39,-280.08C434.66,-253.95 420.8,-177.21 414.36,-141.58"/>
<polygon fill="midnightblue" stroke="midnightblue" points="417.77,-140.79 412.55,-131.57 410.88,-142.03 417.77,-140.79"/>
</g>
<!-- Node8&#45;&gt;Node14 -->
<g id="edge39" class="edge">
<title>Node8&#45;&gt;Node14</title>
<path fill="none" stroke="midnightblue" d="M472.02,-280.47C504.3,-271.55 556.26,-257.06 601,-244 737.14,-204.27 898.58,-154.67 967.32,-133.43"/>
<polygon fill="midnightblue" stroke="midnightblue" points="968.63,-136.69 977.15,-130.39 966.57,-130 968.63,-136.69"/>
</g>
<!-- Node19 -->
<g id="node19" class="node">
<title>Node19</title>
<g id="a_node19"><a xlink:href="../../dc/df4/ntv2formatdescriptor_8h.html" target="_top" xlink:title="Declares the NTV2FormatDescriptor class.">
<polygon fill="white" stroke="black" points="285,-224.5 285,-243.5 413,-243.5 413,-224.5 285,-224.5"/>
<text text-anchor="middle" x="349" y="-231.5" font-family="Helvetica,sans-Serif" font-size="10.00">ntv2formatdescriptor.h</text>
</a>
</g>
</g>
<!-- Node8&#45;&gt;Node19 -->
<g id="edge28" class="edge">
<title>Node8&#45;&gt;Node19</title>
<path fill="none" stroke="midnightblue" d="M426.22,-280.32C411.73,-271.82 389.43,-258.73 372.51,-248.8"/>
<polygon fill="midnightblue" stroke="midnightblue" points="374.14,-245.7 363.74,-243.65 370.6,-251.74 374.14,-245.7"/>
</g>
<!-- Node20 -->
<g id="node20" class="node">
<title>Node20</title>
<g id="a_node20"><a xlink:href="../../de/d26/ntv2m31enums_8h.html" target="_top" xlink:title=" ">
<polygon fill="white" stroke="black" points="469,-224.5 469,-243.5 571,-243.5 571,-224.5 469,-224.5"/>
<text text-anchor="middle" x="520" y="-231.5" font-family="Helvetica,sans-Serif" font-size="10.00">ntv2m31enums.h</text>
</a>
</g>
</g>
<!-- Node8&#45;&gt;Node20 -->
<g id="edge36" class="edge">
<title>Node8&#45;&gt;Node20</title>
<path fill="none" stroke="midnightblue" d="M453.69,-280.32C465.9,-271.98 484.58,-259.21 499,-249.35"/>
<polygon fill="midnightblue" stroke="midnightblue" points="501.06,-252.19 507.34,-243.65 497.11,-246.41 501.06,-252.19"/>
</g>
<!-- Node9&#45;&gt;Node4 -->
<g id="edge13" class="edge">
<title>Node9&#45;&gt;Node4</title>
<path fill="none" stroke="midnightblue" d="M1031.18,-170.98C1084.16,-163.07 1152.05,-145.98 1122,-112 1101.05,-88.31 893.93,-74.34 801.33,-69.23"/>
<polygon fill="midnightblue" stroke="midnightblue" points="801.33,-65.72 791.15,-68.68 800.95,-72.71 801.33,-65.72"/>
</g>
<!-- Node10&#45;&gt;Node2 -->
<g id="edge25" class="edge">
<title>Node10&#45;&gt;Node2</title>
<path fill="none" stroke="midnightblue" d="M580.57,-168.45C554.39,-160.41 515.34,-147.33 483,-132 467.5,-124.65 465.7,-118.9 450,-112 346.46,-66.5 216.7,-35 148.97,-20.35"/>
<polygon fill="midnightblue" stroke="midnightblue" points="149.56,-16.89 139.04,-18.22 148.09,-23.74 149.56,-16.89"/>
</g>
<!-- Node10&#45;&gt;Node3 -->
<g id="edge16" class="edge">
<title>Node10&#45;&gt;Node3</title>
<path fill="none" stroke="midnightblue" d="M552.48,-168.44C482.17,-157.98 364.32,-140.45 297.41,-130.5"/>
<polygon fill="midnightblue" stroke="midnightblue" points="297.53,-126.98 287.13,-128.97 296.5,-133.9 297.53,-126.98"/>
</g>
<!-- Node10&#45;&gt;Node4 -->
<g id="edge15" class="edge">
<title>Node10&#45;&gt;Node4</title>
<path fill="none" stroke="midnightblue" d="M611.21,-168.17C613.57,-154.36 619.99,-127.62 636,-112 656.89,-91.62 687.83,-80.33 713.2,-74.15"/>
<polygon fill="midnightblue" stroke="midnightblue" points="713.98,-77.57 722.97,-71.96 712.44,-70.74 713.98,-77.57"/>
</g>
<!-- Node10&#45;&gt;Node7 -->
<g id="edge21" class="edge">
<title>Node10&#45;&gt;Node7</title>
<path fill="none" stroke="midnightblue" d="M593.18,-168.33C568.89,-155.82 522.56,-132.01 483,-112 420.11,-80.18 345.94,-43.25 307.34,-24.07"/>
<polygon fill="midnightblue" stroke="midnightblue" points="308.83,-20.91 298.32,-19.59 305.72,-27.17 308.83,-20.91"/>
</g>
<!-- Node10&#45;&gt;Node11 -->
<g id="edge17" class="edge">
<title>Node10&#45;&gt;Node11</title>
<path fill="none" stroke="midnightblue" d="M578.47,-168.44C544.01,-159.09 488.71,-144.09 451.17,-133.9"/>
<polygon fill="midnightblue" stroke="midnightblue" points="451.65,-130.4 441.08,-131.16 449.82,-137.16 451.65,-130.4"/>
</g>
<!-- Node10&#45;&gt;Node12 -->
<g id="edge18" class="edge">
<title>Node10&#45;&gt;Node12</title>
<path fill="none" stroke="midnightblue" d="M670.11,-171.31C752.36,-163.37 904.53,-148.11 1034,-132 1046.13,-130.49 1059.54,-128.6 1070.86,-126.95"/>
<polygon fill="midnightblue" stroke="midnightblue" points="1071.59,-130.38 1080.97,-125.45 1070.56,-123.46 1071.59,-130.38"/>
</g>
<!-- Node13 -->
<g id="node13" class="node">
<title>Node13</title>
<g id="a_node13"><a xlink:title=" ">
<polygon fill="white" stroke="#bfbfbf" points="645,-112.5 645,-131.5 683,-131.5 683,-112.5 645,-112.5"/>
<text text-anchor="middle" x="664" y="-119.5" font-family="Helvetica,sans-Serif" font-size="10.00">map</text>
</a>
</g>
</g>
<!-- Node10&#45;&gt;Node13 -->
<g id="edge19" class="edge">
<title>Node10&#45;&gt;Node13</title>
<path fill="none" stroke="midnightblue" d="M618.92,-168.08C626.78,-160.22 638.43,-148.57 647.92,-139.08"/>
<polygon fill="midnightblue" stroke="midnightblue" points="650.65,-141.3 655.25,-131.75 645.7,-136.35 650.65,-141.3"/>
</g>
<!-- Node10&#45;&gt;Node14 -->
<g id="edge20" class="edge">
<title>Node10&#45;&gt;Node14</title>
<path fill="none" stroke="midnightblue" d="M670.27,-172.04C739.67,-165.75 857.17,-153.31 967.35,-131.86"/>
<polygon fill="midnightblue" stroke="midnightblue" points="968.17,-135.27 977.3,-129.89 966.81,-128.4 968.17,-135.27"/>
</g>
<!-- Node15 -->
<g id="node15" class="node">
<title>Node15</title>
<g id="a_node15"><a xlink:title=" ">
<polygon fill="white" stroke="#bfbfbf" points="701,-112.5 701,-131.5 757,-131.5 757,-112.5 701,-112.5"/>
<text text-anchor="middle" x="729" y="-119.5" font-family="Helvetica,sans-Serif" font-size="10.00">iomanip</text>
</a>
</g>
</g>
<!-- Node10&#45;&gt;Node15 -->
<g id="edge22" class="edge">
<title>Node10&#45;&gt;Node15</title>
<path fill="none" stroke="midnightblue" d="M628.86,-168.44C648.27,-159.64 678.73,-145.81 700.96,-135.72"/>
<polygon fill="midnightblue" stroke="midnightblue" points="702.57,-138.84 710.23,-131.52 699.68,-132.46 702.57,-138.84"/>
</g>
<!-- Node16 -->
<g id="node16" class="node">
<title>Node16</title>
<g id="a_node16"><a xlink:title=" ">
<polygon fill="white" stroke="#bfbfbf" points="775,-112.5 775,-131.5 819,-131.5 819,-112.5 775,-112.5"/>
<text text-anchor="middle" x="797" y="-119.5" font-family="Helvetica,sans-Serif" font-size="10.00">bitset</text>
</a>
</g>
</g>
<!-- Node10&#45;&gt;Node16 -->
<g id="edge23" class="edge">
<title>Node10&#45;&gt;Node16</title>
<path fill="none" stroke="midnightblue" d="M639.62,-168.47C669.04,-160 715.7,-146.55 765.08,-132.26"/>
<polygon fill="midnightblue" stroke="midnightblue" points="766.35,-135.54 774.99,-129.4 764.41,-128.81 766.35,-135.54"/>
</g>
<!-- Node17 -->
<g id="node17" class="node">
<title>Node17</title>
<g id="a_node17"><a xlink:title=" ">
<polygon fill="white" stroke="#bfbfbf" points="535.5,-112.5 535.5,-131.5 588.5,-131.5 588.5,-112.5 535.5,-112.5"/>
<text text-anchor="middle" x="562" y="-119.5" font-family="Helvetica,sans-Serif" font-size="10.00">string.h</text>
</a>
</g>
</g>
<!-- Node10&#45;&gt;Node17 -->
<g id="edge24" class="edge">
<title>Node10&#45;&gt;Node17</title>
<path fill="none" stroke="midnightblue" d="M602.07,-168.08C595.15,-160.3 584.93,-148.8 576.55,-139.37"/>
<polygon fill="midnightblue" stroke="midnightblue" points="579.04,-136.9 569.78,-131.75 573.81,-141.55 579.04,-136.9"/>
</g>
<!-- Node18 -->
<g id="node18" class="node">
<title>Node18</title>
<g id="a_node18"><a xlink:href="../../da/df0/ntv2virtualregisters_8h.html" target="_top" xlink:title="Declares enums for virtual registers used in all platform drivers and the SDK.">
<polygon fill="white" stroke="black" points="837,-112.5 837,-131.5 959,-131.5 959,-112.5 837,-112.5"/>
<text text-anchor="middle" x="898" y="-119.5" font-family="Helvetica,sans-Serif" font-size="10.00">ntv2virtualregisters.h</text>
</a>
</g>
</g>
<!-- Node10&#45;&gt;Node18 -->
<g id="edge26" class="edge">
<title>Node10&#45;&gt;Node18</title>
<path fill="none" stroke="midnightblue" d="M655.63,-168.44C706.3,-158.94 788.07,-143.61 842.43,-133.42"/>
<polygon fill="midnightblue" stroke="midnightblue" points="843.4,-136.8 852.58,-131.52 842.11,-129.92 843.4,-136.8"/>
</g>
<!-- Node18&#45;&gt;Node4 -->
<g id="edge27" class="edge">
<title>Node18&#45;&gt;Node4</title>
<path fill="none" stroke="midnightblue" d="M875.66,-112.44C852.25,-103.48 815.26,-89.31 788.81,-79.18"/>
<polygon fill="midnightblue" stroke="midnightblue" points="789.83,-75.82 779.24,-75.52 787.32,-82.36 789.83,-75.82"/>
</g>
<!-- Node19&#45;&gt;Node2 -->
<g id="edge29" class="edge">
<title>Node19&#45;&gt;Node2</title>
<path fill="none" stroke="midnightblue" d="M327.69,-224.45C282.42,-205.15 176.36,-153.76 122,-76 112.42,-62.3 107.62,-43.77 105.25,-29.99"/>
<polygon fill="midnightblue" stroke="midnightblue" points="108.66,-29.16 103.77,-19.76 101.73,-30.15 108.66,-29.16"/>
</g>
<!-- Node19&#45;&gt;Node3 -->
<g id="edge31" class="edge">
<title>Node19&#45;&gt;Node3</title>
<path fill="none" stroke="midnightblue" d="M339.1,-224.37C329.15,-215.56 313.53,-201.3 301,-188 286.15,-172.23 270.46,-153.03 259.85,-139.6"/>
<polygon fill="midnightblue" stroke="midnightblue" points="262.59,-137.42 253.66,-131.7 257.07,-141.73 262.59,-137.42"/>
</g>
<!-- Node19&#45;&gt;Node4 -->
<g id="edge30" class="edge">
<title>Node19&#45;&gt;Node4</title>
<path fill="none" stroke="midnightblue" d="M347.6,-224.39C344.51,-202.07 339.76,-142.01 372,-112 396.57,-89.13 616.7,-74.57 712.64,-69.26"/>
<polygon fill="midnightblue" stroke="midnightblue" points="713.09,-72.75 722.89,-68.71 712.71,-65.76 713.09,-72.75"/>
</g>
<!-- Node19&#45;&gt;Node7 -->
<g id="edge33" class="edge">
<title>Node19&#45;&gt;Node7</title>
<path fill="none" stroke="midnightblue" d="M346.32,-224.15C338.48,-198.28 314.87,-120.48 295,-56 292.29,-47.19 289.25,-37.42 286.7,-29.24"/>
<polygon fill="midnightblue" stroke="midnightblue" points="290.02,-28.13 283.7,-19.62 283.34,-30.21 290.02,-28.13"/>
</g>
<!-- Node19&#45;&gt;Node10 -->
<g id="edge32" class="edge">
<title>Node19&#45;&gt;Node10</title>
<path fill="none" stroke="midnightblue" d="M390.36,-224.44C436.08,-214.98 509.76,-199.74 559.02,-189.55"/>
<polygon fill="midnightblue" stroke="midnightblue" points="559.75,-192.97 568.84,-187.52 558.34,-186.12 559.75,-192.97"/>
</g>
<!-- Node19&#45;&gt;Node11 -->
<g id="edge34" class="edge">
<title>Node19&#45;&gt;Node11</title>
<path fill="none" stroke="midnightblue" d="M353.87,-224.37C364.05,-206.3 387.79,-164.18 401.24,-140.31"/>
<polygon fill="midnightblue" stroke="midnightblue" points="404.3,-142.02 406.16,-131.59 398.2,-138.58 404.3,-142.02"/>
</g>
<!-- Node19&#45;&gt;Node14 -->
<g id="edge35" class="edge">
<title>Node19&#45;&gt;Node14</title>
<path fill="none" stroke="midnightblue" d="M413.04,-225.34C479.64,-217.13 586.86,-203.2 679,-188 804.94,-167.23 838.93,-161.93 967.43,-132"/>
<polygon fill="midnightblue" stroke="midnightblue" points="968.32,-135.38 977.26,-129.7 966.73,-128.57 968.32,-135.38"/>
</g>
</g>
</svg>
