<?xml version="1.0" encoding="UTF-8" standalone="no"?>
<!DOCTYPE svg PUBLIC "-//W3C//DTD SVG 1.1//EN"
 "http://www.w3.org/Graphics/SVG/1.1/DTD/svg11.dtd">
<!-- Generated by graphviz version 2.40.1 (0)
 -->
<!-- Title: AJAAncillaryData_HDR_HDR10 Pages: 1 -->
<svg width="130pt" height="163pt"
 viewBox="0.00 0.00 130.00 163.00" xmlns="http://www.w3.org/2000/svg" xmlns:xlink="http://www.w3.org/1999/xlink">
<g id="graph0" class="graph" transform="scale(1 1) rotate(0) translate(4 159)">
<title>AJAAncillaryData_HDR_HDR10</title>
<polygon fill="#ffffff" stroke="transparent" points="-4,4 -4,-159 126,-159 126,4 -4,4"/>
<!-- Node2 -->
<g id="node1" class="node">
<title>Node2</title>
<polygon fill="#bfbfbf" stroke="#000000" points="0,-.5 0,-30.5 122,-30.5 122,-.5 0,-.5"/>
<text text-anchor="start" x="8" y="-18.5" font-family="Helvetica,sans-Serif" font-size="10.00" fill="#000000">AJAAncillaryData_HDR</text>
<text text-anchor="middle" x="61" y="-7.5" font-family="Helvetica,sans-Serif" font-size="10.00" fill="#000000">_HDR10</text>
</g>
<!-- Node3 -->
<g id="node2" class="node">
<title>Node3</title>
<g id="a_node2"><a xlink:href="../../dd/de8/class_a_j_a_ancillary_data.html" target="_top" xlink:title="I am the principal class that stores a single SMPTE&#45;291 SDI ancillary data packet OR the digitized co...">
<polygon fill="#ffffff" stroke="#000000" points="14,-68.5 14,-87.5 108,-87.5 108,-68.5 14,-68.5"/>
<text text-anchor="middle" x="61" y="-75.5" font-family="Helvetica,sans-Serif" font-size="10.00" fill="#000000">AJAAncillaryData</text>
</a>
</g>
</g>
<!-- Node3&#45;&gt;Node2 -->
<g id="edge1" class="edge">
<title>Node3&#45;&gt;Node2</title>
<path fill="none" stroke="#191970" d="M61,-58.0501C61,-49.2205 61,-39.0001 61,-30.7892"/>
<polygon fill="#191970" stroke="#191970" points="57.5001,-58.2343 61,-68.2344 64.5001,-58.2344 57.5001,-58.2343"/>
</g>
<!-- Node4 -->
<g id="node3" class="node">
<title>Node4</title>
<g id="a_node3"><a xlink:href="../../de/d12/struct_a_j_a_anc_data_loc.html" target="_top" xlink:title="Defines where the ancillary data can be found within a video stream. ">
<polygon fill="#ffffff" stroke="#000000" points="16.5,-135.5 16.5,-154.5 105.5,-154.5 105.5,-135.5 16.5,-135.5"/>
<text text-anchor="middle" x="61" y="-142.5" font-family="Helvetica,sans-Serif" font-size="10.00" fill="#000000">AJAAncDataLoc</text>
</a>
</g>
</g>
<!-- Node4&#45;&gt;Node3 -->
<g id="edge2" class="edge">
<title>Node4&#45;&gt;Node3</title>
<path fill="none" stroke="#9a32cd" stroke-dasharray="5,2" d="M61,-125.1079C61,-112.714 61,-97.3263 61,-87.5817"/>
<polygon fill="#9a32cd" stroke="#9a32cd" points="57.5001,-125.4005 61,-135.4005 64.5001,-125.4006 57.5001,-125.4005"/>
<text text-anchor="middle" x="86.5" y="-109" font-family="Helvetica,sans-Serif" font-size="10.00" fill="#000000"> m_location</text>
</g>
</g>
</svg>
