<?xml version="1.0" encoding="UTF-8" standalone="no"?>
<!DOCTYPE svg PUBLIC "-//W3C//DTD SVG 1.1//EN"
 "http://www.w3.org/Graphics/SVG/1.1/DTD/svg11.dtd">
<!-- Generated by graphviz version 2.40.1 (0)
 -->
<!-- Title: poptArg_u Pages: 1 -->
<svg width="321pt" height="320pt"
 viewBox="0.00 0.00 320.50 320.00" xmlns="http://www.w3.org/2000/svg" xmlns:xlink="http://www.w3.org/1999/xlink">
<g id="graph0" class="graph" transform="scale(1 1) rotate(0) translate(4 316)">
<title>poptArg_u</title>
<polygon fill="#ffffff" stroke="transparent" points="-4,4 -4,-316 316.5,-316 316.5,4 -4,4"/>
<!-- Node1 -->
<g id="node1" class="node">
<title>Node1</title>
<polygon fill="#bfbfbf" stroke="#000000" points="0,-.5 0,-19.5 61,-19.5 61,-.5 0,-.5"/>
<text text-anchor="middle" x="30.5" y="-7.5" font-family="Helvetica,sans-Serif" font-size="10.00" fill="#000000">poptArg_u</text>
</g>
<!-- Node2 -->
<g id="node2" class="node">
<title>Node2</title>
<g id="a_node2"><a xlink:href="../../d4/da9/structpopt_option.html" target="_top" xlink:title="poptOption">
<polygon fill="#ffffff" stroke="#000000" points="27.5,-292.5 27.5,-311.5 91.5,-311.5 91.5,-292.5 27.5,-292.5"/>
<text text-anchor="middle" x="59.5" y="-299.5" font-family="Helvetica,sans-Serif" font-size="10.00" fill="#000000">poptOption</text>
</a>
</g>
</g>
<!-- Node2&#45;&gt;Node1 -->
<g id="edge1" class="edge">
<title>Node2&#45;&gt;Node1</title>
<path fill="none" stroke="#9a32cd" stroke-dasharray="5,2" d="M40.3589,-285.4886C28.1089,-273.0187 14.5,-254.7263 14.5,-235 14.5,-235 14.5,-235 14.5,-77 14.5,-56.1913 21.8916,-32.7171 26.6268,-19.8139"/>
<polygon fill="#9a32cd" stroke="#9a32cd" points="38.0226,-288.097 47.6768,-292.4612 42.8513,-283.0291 38.0226,-288.097"/>
<text text-anchor="middle" x="23" y="-159" font-family="Helvetica,sans-Serif" font-size="10.00" fill="#000000"> opt</text>
</g>
<!-- Node3 -->
<g id="node3" class="node">
<title>Node3</title>
<g id="a_node3"><a xlink:href="../../da/de2/structpopt_context__s.html" target="_top" xlink:title="poptContext_s">
<polygon fill="#ffffff" stroke="#000000" points="69.5,-67.5 69.5,-86.5 149.5,-86.5 149.5,-67.5 69.5,-67.5"/>
<text text-anchor="middle" x="109.5" y="-74.5" font-family="Helvetica,sans-Serif" font-size="10.00" fill="#000000">poptContext_s</text>
</a>
</g>
</g>
<!-- Node2&#45;&gt;Node3 -->
<g id="edge7" class="edge">
<title>Node2&#45;&gt;Node3</title>
<path fill="none" stroke="#9a32cd" stroke-dasharray="5,2" d="M62.5758,-282.216C66.0061,-260.8558 71.9416,-225.8749 78.5,-196 87.5182,-154.9203 101.0144,-106.5956 106.7562,-86.5029"/>
<polygon fill="#9a32cd" stroke="#9a32cd" points="59.0855,-281.8802 60.98,-292.3043 65.9995,-282.974 59.0855,-281.8802"/>
<text text-anchor="middle" x="96" y="-199" font-family="Helvetica,sans-Serif" font-size="10.00" fill="#000000"> options</text>
</g>
<!-- Node6 -->
<g id="node6" class="node">
<title>Node6</title>
<g id="a_node6"><a xlink:href="../../dd/dab/structpopt_item__s.html" target="_top" xlink:title="poptItem_s">
<polygon fill="#ffffff" stroke="#000000" points="88,-225.5 88,-244.5 153,-244.5 153,-225.5 88,-225.5"/>
<text text-anchor="middle" x="120.5" y="-232.5" font-family="Helvetica,sans-Serif" font-size="10.00" fill="#000000">poptItem_s</text>
</a>
</g>
</g>
<!-- Node2&#45;&gt;Node6 -->
<g id="edge6" class="edge">
<title>Node2&#45;&gt;Node6</title>
<path fill="none" stroke="#9a32cd" stroke-dasharray="5,2" d="M75.2374,-284.7147C86.8671,-271.941 102.2707,-255.0224 111.7764,-244.5817"/>
<polygon fill="#9a32cd" stroke="#9a32cd" points="72.384,-282.6498 68.2398,-292.4005 77.5601,-287.3624 72.384,-282.6498"/>
<text text-anchor="middle" x="109.5" y="-266" font-family="Helvetica,sans-Serif" font-size="10.00" fill="#000000"> option</text>
</g>
<!-- Node3&#45;&gt;Node1 -->
<g id="edge2" class="edge">
<title>Node3&#45;&gt;Node1</title>
<path fill="none" stroke="#9a32cd" stroke-dasharray="5,2" d="M90.3976,-60.7992C75.2035,-47.9131 54.4602,-30.3207 41.7978,-19.5817"/>
<polygon fill="#9a32cd" stroke="#9a32cd" points="88.2908,-63.6017 98.1812,-67.4005 92.8185,-58.2631 88.2908,-63.6017"/>
<text text-anchor="middle" x="82.5" y="-41" font-family="Helvetica,sans-Serif" font-size="10.00" fill="#000000"> cb</text>
</g>
<!-- Node4 -->
<g id="node4" class="node">
<title>Node4</title>
<g id="a_node4"><a xlink:href="../../da/dfb/structoption_stack_entry.html" target="_top" xlink:title="optionStackEntry">
<polygon fill="#ffffff" stroke="#000000" points="164.5,-152 164.5,-171 256.5,-171 256.5,-152 164.5,-152"/>
<text text-anchor="middle" x="210.5" y="-159" font-family="Helvetica,sans-Serif" font-size="10.00" fill="#000000">optionStackEntry</text>
</a>
</g>
</g>
<!-- Node4&#45;&gt;Node3 -->
<g id="edge3" class="edge">
<title>Node4&#45;&gt;Node3</title>
<path fill="none" stroke="#9a32cd" stroke-dasharray="5,2" d="M191.0436,-145.2222C170.2534,-127.8283 137.9942,-100.8392 120.9509,-86.5802"/>
<polygon fill="#9a32cd" stroke="#9a32cd" points="188.9984,-148.0744 198.914,-151.8068 193.4901,-142.7055 188.9984,-148.0744"/>
<text text-anchor="middle" x="194.5" y="-119" font-family="Helvetica,sans-Serif" font-size="10.00" fill="#000000"> os</text>
<text text-anchor="middle" x="194.5" y="-108" font-family="Helvetica,sans-Serif" font-size="10.00" fill="#000000">optionStack</text>
</g>
<!-- Node5 -->
<g id="node5" class="node">
<title>Node5</title>
<g id="a_node5"><a xlink:href="../../d5/dfd/structpbm__set.html" target="_top" xlink:title="pbm_set">
<polygon fill="#ffffff" stroke="#000000" points="235.5,-225.5 235.5,-244.5 289.5,-244.5 289.5,-225.5 235.5,-225.5"/>
<text text-anchor="middle" x="262.5" y="-232.5" font-family="Helvetica,sans-Serif" font-size="10.00" fill="#000000">pbm_set</text>
</a>
</g>
</g>
<!-- Node5&#45;&gt;Node3 -->
<g id="edge8" class="edge">
<title>Node5&#45;&gt;Node3</title>
<path fill="none" stroke="#9a32cd" stroke-dasharray="5,2" d="M267.9927,-215.4067C272.2113,-196.484 275.7574,-167.4694 265.5,-145 254.9279,-121.8412 246.7684,-117.3377 224.5,-105 201.493,-92.2531 172.743,-85.2531 149.7448,-81.4399"/>
<polygon fill="#9a32cd" stroke="#9a32cd" points="264.5602,-214.7058 265.5304,-225.2562 271.3513,-216.4036 264.5602,-214.7058"/>
<text text-anchor="middle" x="292" y="-159" font-family="Helvetica,sans-Serif" font-size="10.00" fill="#000000"> arg_strip</text>
</g>
<!-- Node5&#45;&gt;Node4 -->
<g id="edge4" class="edge">
<title>Node5&#45;&gt;Node4</title>
<path fill="none" stroke="#9a32cd" stroke-dasharray="5,2" d="M249.6418,-216.8255C239.4756,-202.456 225.6726,-182.9459 217.4657,-171.3458"/>
<polygon fill="#9a32cd" stroke="#9a32cd" points="247.0691,-219.2491 255.7019,-225.3912 252.7836,-215.2062 247.0691,-219.2491"/>
<text text-anchor="middle" x="253.5" y="-199" font-family="Helvetica,sans-Serif" font-size="10.00" fill="#000000"> argb</text>
</g>
<!-- Node6&#45;&gt;Node3 -->
<g id="edge9" class="edge">
<title>Node6&#45;&gt;Node3</title>
<path fill="none" stroke="#9a32cd" stroke-dasharray="5,2" d="M119.1033,-214.9386C116.7222,-180.7366 111.9624,-112.3685 110.1878,-86.8799"/>
<polygon fill="#9a32cd" stroke="#9a32cd" points="115.6257,-215.3837 119.8119,-225.1164 122.6088,-214.8974 115.6257,-215.3837"/>
<text text-anchor="middle" x="134" y="-170" font-family="Helvetica,sans-Serif" font-size="10.00" fill="#000000"> doExec</text>
<text text-anchor="middle" x="134" y="-159" font-family="Helvetica,sans-Serif" font-size="10.00" fill="#000000">execs</text>
<text text-anchor="middle" x="134" y="-148" font-family="Helvetica,sans-Serif" font-size="10.00" fill="#000000">aliases</text>
</g>
<!-- Node6&#45;&gt;Node4 -->
<g id="edge5" class="edge">
<title>Node6&#45;&gt;Node4</title>
<path fill="none" stroke="#9a32cd" stroke-dasharray="5,2" d="M140.3339,-218.8023C158.214,-204.2002 183.9069,-183.2177 198.7312,-171.1112"/>
<polygon fill="#9a32cd" stroke="#9a32cd" points="137.7974,-216.3549 132.2659,-225.3912 142.2252,-221.7766 137.7974,-216.3549"/>
<text text-anchor="middle" x="188.5" y="-199" font-family="Helvetica,sans-Serif" font-size="10.00" fill="#000000"> currAlias</text>
</g>
</g>
</svg>
