<?xml version="1.0" encoding="UTF-8" standalone="no"?>
<!DOCTYPE svg PUBLIC "-//W3C//DTD SVG 1.1//EN"
 "http://www.w3.org/Graphics/SVG/1.1/DTD/svg11.dtd">
<!-- Generated by graphviz version 2.43.0 (0)
 -->
<!-- Title: /home/tcbuilder/buildAgent/work/df8e8cce5bebfd58/libajantv2/ajaanc/includes/ancillarylist.h Pages: 1 -->
<svg width="1066pt" height="128pt"
 viewBox="0.00 0.00 1066.00 128.00" xmlns="http://www.w3.org/2000/svg" xmlns:xlink="http://www.w3.org/1999/xlink">
<g id="graph0" class="graph" transform="scale(1 1) rotate(0) translate(4 124)">
<title>/home/tcbuilder/buildAgent/work/df8e8cce5bebfd58/libajantv2/ajaanc/includes/ancillarylist.h</title>
<polygon fill="white" stroke="transparent" points="-4,4 -4,-124 1062,-124 1062,4 -4,4"/>
<!-- Node1 -->
<g id="node1" class="node">
<title>Node1</title>
<g id="a_node1"><a xlink:title="Declares the AJAAncillaryList class.">
<polygon fill="#bfbfbf" stroke="black" points="450,-78.5 450,-119.5 638,-119.5 638,-78.5 450,-78.5"/>
<text text-anchor="start" x="458" y="-107.5" font-family="Helvetica,sans-Serif" font-size="10.00">/home/tcbuilder/buildAgent</text>
<text text-anchor="start" x="458" y="-96.5" font-family="Helvetica,sans-Serif" font-size="10.00">/work/df8e8cce5bebfd58/libajantv2</text>
<text text-anchor="middle" x="544" y="-85.5" font-family="Helvetica,sans-Serif" font-size="10.00">/ajaanc/includes/ancillarylist.h</text>
</a>
</g>
</g>
<!-- Node2 -->
<g id="node2" class="node">
<title>Node2</title>
<g id="a_node2"><a xlink:href="../../d3/de4/ancillarylist_8cpp.html" target="_top" xlink:title="Implementation of the AJAAncillaryList class.">
<polygon fill="white" stroke="black" points="0,-0.5 0,-41.5 188,-41.5 188,-0.5 0,-0.5"/>
<text text-anchor="start" x="8" y="-29.5" font-family="Helvetica,sans-Serif" font-size="10.00">/home/tcbuilder/buildAgent</text>
<text text-anchor="start" x="8" y="-18.5" font-family="Helvetica,sans-Serif" font-size="10.00">/work/df8e8cce5bebfd58/libajantv2</text>
<text text-anchor="middle" x="94" y="-7.5" font-family="Helvetica,sans-Serif" font-size="10.00">/ajaanc/src/ancillarylist.cpp</text>
</a>
</g>
</g>
<!-- Node1&#45;&gt;Node2 -->
<g id="edge1" class="edge">
<title>Node1&#45;&gt;Node2</title>
<path fill="none" stroke="midnightblue" d="M439.97,-82.1C370.97,-71.33 278.46,-56.48 197,-42 194.04,-41.47 191.04,-40.93 188,-40.38"/>
<polygon fill="midnightblue" stroke="midnightblue" points="439.56,-85.57 449.97,-83.65 440.63,-78.66 439.56,-85.57"/>
</g>
<!-- Node3 -->
<g id="node3" class="node">
<title>Node3</title>
<g id="a_node3"><a xlink:href="../../d9/dca/ntv2ccgrabber_8cpp.html" target="_top" xlink:title="Implementation of NTV2CCGrabber class.">
<polygon fill="white" stroke="black" points="206,-0.5 206,-41.5 424,-41.5 424,-0.5 206,-0.5"/>
<text text-anchor="start" x="214" y="-29.5" font-family="Helvetica,sans-Serif" font-size="10.00">/home/tcbuilder/buildAgent</text>
<text text-anchor="start" x="214" y="-18.5" font-family="Helvetica,sans-Serif" font-size="10.00">/work/df8e8cce5bebfd58/libajantv2</text>
<text text-anchor="middle" x="315" y="-7.5" font-family="Helvetica,sans-Serif" font-size="10.00">/demos/ntv2ccgrabber/ntv2ccgrabber.cpp</text>
</a>
</g>
</g>
<!-- Node1&#45;&gt;Node3 -->
<g id="edge2" class="edge">
<title>Node1&#45;&gt;Node3</title>
<path fill="none" stroke="midnightblue" d="M475.2,-75.17C442.87,-64.44 404.73,-51.78 373.77,-41.51"/>
<polygon fill="midnightblue" stroke="midnightblue" points="474.43,-78.6 485.03,-78.43 476.64,-71.96 474.43,-78.6"/>
</g>
<!-- Node4 -->
<g id="node4" class="node">
<title>Node4</title>
<g id="a_node4"><a xlink:href="../../de/d67/ntv2ccplayer_8cpp.html" target="_top" xlink:title="Implementation of NTV2CCPlayer class.">
<polygon fill="white" stroke="black" points="442,-0.5 442,-41.5 646,-41.5 646,-0.5 442,-0.5"/>
<text text-anchor="start" x="450" y="-29.5" font-family="Helvetica,sans-Serif" font-size="10.00">/home/tcbuilder/buildAgent</text>
<text text-anchor="start" x="450" y="-18.5" font-family="Helvetica,sans-Serif" font-size="10.00">/work/df8e8cce5bebfd58/libajantv2</text>
<text text-anchor="middle" x="544" y="-7.5" font-family="Helvetica,sans-Serif" font-size="10.00">/demos/ntv2ccplayer/ntv2ccplayer.cpp</text>
</a>
</g>
</g>
<!-- Node1&#45;&gt;Node4 -->
<g id="edge3" class="edge">
<title>Node1&#45;&gt;Node4</title>
<path fill="none" stroke="midnightblue" d="M544,-68.3C544,-59.3 544,-49.65 544,-41.51"/>
<polygon fill="midnightblue" stroke="midnightblue" points="540.5,-68.43 544,-78.43 547.5,-68.43 540.5,-68.43"/>
</g>
<!-- Node5 -->
<g id="node5" class="node">
<title>Node5</title>
<g id="a_node5"><a xlink:href="../../da/d1a/ntv2llburn_8cpp.html" target="_top" xlink:title="Implementation of NTV2LLBurn demonstration class.">
<polygon fill="white" stroke="black" points="664,-0.5 664,-41.5 852,-41.5 852,-0.5 664,-0.5"/>
<text text-anchor="start" x="672" y="-29.5" font-family="Helvetica,sans-Serif" font-size="10.00">/home/tcbuilder/buildAgent</text>
<text text-anchor="start" x="672" y="-18.5" font-family="Helvetica,sans-Serif" font-size="10.00">/work/df8e8cce5bebfd58/libajantv2</text>
<text text-anchor="middle" x="758" y="-7.5" font-family="Helvetica,sans-Serif" font-size="10.00">/demos/ntv2llburn/ntv2llburn.cpp</text>
</a>
</g>
</g>
<!-- Node1&#45;&gt;Node5 -->
<g id="edge4" class="edge">
<title>Node1&#45;&gt;Node5</title>
<path fill="none" stroke="midnightblue" d="M608.69,-75.03C638.81,-64.33 674.27,-51.73 703.08,-41.51"/>
<polygon fill="midnightblue" stroke="midnightblue" points="607.36,-71.78 599.11,-78.43 609.71,-78.38 607.36,-71.78"/>
</g>
<!-- Node6 -->
<g id="node6" class="node">
<title>Node6</title>
<g id="a_node6"><a xlink:href="../../df/dc3/ntv2autocirculate_8cpp.html" target="_top" xlink:title="Implements the CNTV2Card AutoCirculate API functions.">
<polygon fill="white" stroke="black" points="870,-0.5 870,-41.5 1058,-41.5 1058,-0.5 870,-0.5"/>
<text text-anchor="start" x="878" y="-29.5" font-family="Helvetica,sans-Serif" font-size="10.00">/home/tcbuilder/buildAgent</text>
<text text-anchor="start" x="878" y="-18.5" font-family="Helvetica,sans-Serif" font-size="10.00">/work/df8e8cce5bebfd58/libajantv2</text>
<text text-anchor="middle" x="964" y="-7.5" font-family="Helvetica,sans-Serif" font-size="10.00">/ajantv2/src/ntv2autocirculate.cpp</text>
</a>
</g>
</g>
<!-- Node1&#45;&gt;Node6 -->
<g id="edge5" class="edge">
<title>Node1&#45;&gt;Node6</title>
<path fill="none" stroke="midnightblue" d="M648.21,-80.05C710.09,-69.27 790.08,-55.15 861,-42 863.96,-41.45 866.96,-40.89 869.99,-40.32"/>
<polygon fill="midnightblue" stroke="midnightblue" points="647.3,-76.65 638.05,-81.82 648.5,-83.55 647.3,-76.65"/>
</g>
</g>
</svg>
