<?xml version="1.0" encoding="UTF-8" standalone="no"?>
<!DOCTYPE svg PUBLIC "-//W3C//DTD SVG 1.1//EN"
 "http://www.w3.org/Graphics/SVG/1.1/DTD/svg11.dtd">
<!-- Generated by graphviz version 2.40.1 (0)
 -->
<!-- Title: CMediaPosition Pages: 1 -->
<svg width="264pt" height="252pt"
 viewBox="0.00 0.00 264.00 252.00" xmlns="http://www.w3.org/2000/svg" xmlns:xlink="http://www.w3.org/1999/xlink">
<g id="graph0" class="graph" transform="scale(1 1) rotate(0) translate(4 248)">
<title>CMediaPosition</title>
<polygon fill="#ffffff" stroke="transparent" points="-4,4 -4,-248 260,-248 260,4 -4,4"/>
<!-- Node0 -->
<g id="node1" class="node">
<title>Node0</title>
<polygon fill="#bfbfbf" stroke="#000000" points="70.5,-112.5 70.5,-131.5 156.5,-131.5 156.5,-112.5 70.5,-112.5"/>
<text text-anchor="middle" x="113.5" y="-119.5" font-family="Helvetica,sans-Serif" font-size="10.00" fill="#000000">CMediaPosition</text>
</g>
<!-- Node5 -->
<g id="node6" class="node">
<title>Node5</title>
<g id="a_node6"><a xlink:href="../../d7/d2a/class_c_pos_pass_thru.html" target="_top" xlink:title="CPosPassThru">
<polygon fill="#ffffff" stroke="#000000" points="20,-56.5 20,-75.5 103,-75.5 103,-56.5 20,-56.5"/>
<text text-anchor="middle" x="61.5" y="-63.5" font-family="Helvetica,sans-Serif" font-size="10.00" fill="#000000">CPosPassThru</text>
</a>
</g>
</g>
<!-- Node0&#45;&gt;Node5 -->
<g id="edge5" class="edge">
<title>Node0&#45;&gt;Node5</title>
<path fill="none" stroke="#191970" d="M97.5178,-104.7884C88.6222,-95.2085 77.8796,-83.6396 70.4539,-75.6427"/>
<polygon fill="#191970" stroke="#191970" points="95.073,-107.2992 104.4423,-112.2455 100.2025,-102.536 95.073,-107.2992"/>
</g>
<!-- Node7 -->
<g id="node8" class="node">
<title>Node7</title>
<g id="a_node8"><a xlink:href="../../db/d03/class_c_source_position.html" target="_top" xlink:title="CSourcePosition">
<polygon fill="#ffffff" stroke="#000000" points="121.5,-56.5 121.5,-75.5 211.5,-75.5 211.5,-56.5 121.5,-56.5"/>
<text text-anchor="middle" x="166.5" y="-63.5" font-family="Helvetica,sans-Serif" font-size="10.00" fill="#000000">CSourcePosition</text>
</a>
</g>
</g>
<!-- Node0&#45;&gt;Node7 -->
<g id="edge7" class="edge">
<title>Node0&#45;&gt;Node7</title>
<path fill="none" stroke="#191970" d="M129.7896,-104.7884C138.8562,-95.2085 149.8054,-83.6396 157.3739,-75.6427"/>
<polygon fill="#191970" stroke="#191970" points="127.0637,-102.5767 122.7319,-112.2455 132.1478,-107.3884 127.0637,-102.5767"/>
</g>
<!-- Node1 -->
<g id="node2" class="node">
<title>Node1</title>
<polygon fill="#ffffff" stroke="#bfbfbf" points="28,-168.5 28,-187.5 109,-187.5 109,-168.5 28,-168.5"/>
<text text-anchor="middle" x="68.5" y="-175.5" font-family="Helvetica,sans-Serif" font-size="10.00" fill="#000000">IMediaPosition</text>
</g>
<!-- Node1&#45;&gt;Node0 -->
<g id="edge1" class="edge">
<title>Node1&#45;&gt;Node0</title>
<path fill="none" stroke="#191970" d="M82.7946,-160.2112C90.3996,-150.7472 99.4538,-139.4797 105.7514,-131.6427"/>
<polygon fill="#191970" stroke="#191970" points="79.8741,-158.2581 76.3384,-168.2455 85.3306,-162.6428 79.8741,-158.2581"/>
</g>
<!-- Node2 -->
<g id="node3" class="node">
<title>Node2</title>
<g id="a_node3"><a xlink:href="../../d9/d89/class_c_unknown.html" target="_top" xlink:title="CUnknown">
<polygon fill="#ffffff" stroke="#000000" points="127,-168.5 127,-187.5 192,-187.5 192,-168.5 127,-168.5"/>
<text text-anchor="middle" x="159.5" y="-175.5" font-family="Helvetica,sans-Serif" font-size="10.00" fill="#000000">CUnknown</text>
</a>
</g>
</g>
<!-- Node2&#45;&gt;Node0 -->
<g id="edge2" class="edge">
<title>Node2&#45;&gt;Node0</title>
<path fill="none" stroke="#191970" d="M145.1253,-160.5004C137.3029,-150.9775 127.924,-139.5596 121.4208,-131.6427"/>
<polygon fill="#191970" stroke="#191970" points="142.4354,-162.7399 151.4874,-168.2455 147.8445,-158.2967 142.4354,-162.7399"/>
</g>
<!-- Node3 -->
<g id="node4" class="node">
<title>Node3</title>
<polygon fill="#ffffff" stroke="#bfbfbf" points="38,-224.5 38,-243.5 163,-243.5 163,-224.5 38,-224.5"/>
<text text-anchor="middle" x="100.5" y="-231.5" font-family="Helvetica,sans-Serif" font-size="10.00" fill="#000000">INonDelegatingUnknown</text>
</g>
<!-- Node3&#45;&gt;Node2 -->
<g id="edge3" class="edge">
<title>Node3&#45;&gt;Node2</title>
<path fill="none" stroke="#191970" d="M118.0307,-217.3607C128.2377,-207.6727 140.7469,-195.7995 149.3408,-187.6427"/>
<polygon fill="#191970" stroke="#191970" points="115.6206,-214.8227 110.777,-224.2455 120.4396,-219.8998 115.6206,-214.8227"/>
</g>
<!-- Node4 -->
<g id="node5" class="node">
<title>Node4</title>
<g id="a_node5"><a xlink:href="../../d1/d2d/class_c_base_object.html" target="_top" xlink:title="CBaseObject">
<polygon fill="#ffffff" stroke="#000000" points="181,-224.5 181,-243.5 256,-243.5 256,-224.5 181,-224.5"/>
<text text-anchor="middle" x="218.5" y="-231.5" font-family="Helvetica,sans-Serif" font-size="10.00" fill="#000000">CBaseObject</text>
</a>
</g>
</g>
<!-- Node4&#45;&gt;Node2 -->
<g id="edge4" class="edge">
<title>Node4&#45;&gt;Node2</title>
<path fill="none" stroke="#191970" d="M200.9693,-217.3607C190.7623,-207.6727 178.2531,-195.7995 169.6592,-187.6427"/>
<polygon fill="#191970" stroke="#191970" points="198.5604,-219.8998 208.223,-224.2455 203.3794,-214.8227 198.5604,-219.8998"/>
</g>
<!-- Node6 -->
<g id="node7" class="node">
<title>Node6</title>
<g id="a_node7"><a xlink:href="../../d1/d9f/class_c_renderer_pos_pass_thru.html" target="_top" xlink:title="CRendererPosPassThru">
<polygon fill="#ffffff" stroke="#000000" points="0,-.5 0,-19.5 123,-19.5 123,-.5 0,-.5"/>
<text text-anchor="middle" x="61.5" y="-7.5" font-family="Helvetica,sans-Serif" font-size="10.00" fill="#000000">CRendererPosPassThru</text>
</a>
</g>
</g>
<!-- Node5&#45;&gt;Node6 -->
<g id="edge6" class="edge">
<title>Node5&#45;&gt;Node6</title>
<path fill="none" stroke="#191970" d="M61.5,-46.1575C61.5,-37.155 61.5,-26.9199 61.5,-19.6427"/>
<polygon fill="#191970" stroke="#191970" points="58.0001,-46.2455 61.5,-56.2455 65.0001,-46.2456 58.0001,-46.2455"/>
</g>
</g>
</svg>
