<?xml version="1.0" encoding="UTF-8" standalone="no"?>
<!DOCTYPE svg PUBLIC "-//W3C//DTD SVG 1.1//EN"
 "http://www.w3.org/Graphics/SVG/1.1/DTD/svg11.dtd">
<!-- Generated by graphviz version 2.40.1 (0)
 -->
<!-- Title: /home/tcbuilder/buildAgent/work/df8e8cce5bebfd58/libajantv2/ajabase/system/linux/lockimpl.h Pages: 1 -->
<svg width="616pt" height="274pt"
 viewBox="0.00 0.00 616.00 274.00" xmlns="http://www.w3.org/2000/svg" xmlns:xlink="http://www.w3.org/1999/xlink">
<g id="graph0" class="graph" transform="scale(1 1) rotate(0) translate(4 270)">
<title>/home/tcbuilder/buildAgent/work/df8e8cce5bebfd58/libajantv2/ajabase/system/linux/lockimpl.h</title>
<polygon fill="#ffffff" stroke="transparent" points="-4,4 -4,-270 612,-270 612,4 -4,4"/>
<!-- Node0 -->
<g id="node1" class="node">
<title>Node0</title>
<polygon fill="#bfbfbf" stroke="#000000" points="116.5,-224.5 116.5,-265.5 283.5,-265.5 283.5,-224.5 116.5,-224.5"/>
<text text-anchor="start" x="124.5" y="-253.5" font-family="Helvetica,sans-Serif" font-size="10.00" fill="#000000">/home/tcbuilder/buildAgent</text>
<text text-anchor="start" x="124.5" y="-242.5" font-family="Helvetica,sans-Serif" font-size="10.00" fill="#000000">/work/df8e8cce5bebfd58/libajantv2</text>
<text text-anchor="middle" x="200" y="-231.5" font-family="Helvetica,sans-Serif" font-size="10.00" fill="#000000">/ajabase/system/linux/lockimpl.h</text>
</g>
<!-- Node1 -->
<g id="node2" class="node">
<title>Node1</title>
<polygon fill="#ffffff" stroke="#bfbfbf" points="23.5,-168.5 23.5,-187.5 80.5,-187.5 80.5,-168.5 23.5,-168.5"/>
<text text-anchor="middle" x="52" y="-175.5" font-family="Helvetica,sans-Serif" font-size="10.00" fill="#000000">pthread.h</text>
</g>
<!-- Node0&#45;&gt;Node1 -->
<g id="edge1" class="edge">
<title>Node0&#45;&gt;Node1</title>
<path fill="none" stroke="#191970" d="M154.3875,-224.3511C131.0713,-213.7958 103.3232,-201.2342 82.599,-191.8523"/>
<polygon fill="#191970" stroke="#191970" points="83.8801,-188.5903 73.3267,-187.6546 80.9932,-194.9673 83.8801,-188.5903"/>
</g>
<!-- Node2 -->
<g id="node3" class="node">
<title>Node2</title>
<polygon fill="#ffffff" stroke="#bfbfbf" points="98.5,-168.5 98.5,-187.5 171.5,-187.5 171.5,-168.5 98.5,-168.5"/>
<text text-anchor="middle" x="135" y="-175.5" font-family="Helvetica,sans-Serif" font-size="10.00" fill="#000000">semaphore.h</text>
</g>
<!-- Node0&#45;&gt;Node2 -->
<g id="edge2" class="edge">
<title>Node0&#45;&gt;Node2</title>
<path fill="none" stroke="#191970" d="M179.7899,-224.168C170.7735,-214.8742 160.2772,-204.0549 151.7128,-195.227"/>
<polygon fill="#191970" stroke="#191970" points="153.9638,-192.5208 144.4885,-187.7805 148.9396,-197.395 153.9638,-192.5208"/>
</g>
<!-- Node3 -->
<g id="node4" class="node">
<title>Node3</title>
<g id="a_node4"><a xlink:href="../../dc/db2/system_8h.html" target="_top" xlink:title="System specific functions. ">
<polygon fill="#ffffff" stroke="#000000" points="228.5,-168.5 228.5,-187.5 357.5,-187.5 357.5,-168.5 228.5,-168.5"/>
<text text-anchor="middle" x="293" y="-175.5" font-family="Helvetica,sans-Serif" font-size="10.00" fill="#000000">ajabase/system/system.h</text>
</a>
</g>
</g>
<!-- Node0&#45;&gt;Node3 -->
<g id="edge3" class="edge">
<title>Node0&#45;&gt;Node3</title>
<path fill="none" stroke="#191970" d="M228.6619,-224.3511C242.4515,-214.4167 258.7079,-202.7051 271.4298,-193.5398"/>
<polygon fill="#191970" stroke="#191970" points="273.531,-196.3398 279.5988,-187.6546 269.4392,-190.6602 273.531,-196.3398"/>
</g>
<!-- Node12 -->
<g id="node13" class="node">
<title>Node12</title>
<g id="a_node13"><a xlink:href="../../dc/d54/common_8h.html" target="_top" xlink:title="Private include file for all ajabase sources. ">
<polygon fill="#ffffff" stroke="#000000" points="113,-112.5 113,-131.5 253,-131.5 253,-112.5 113,-112.5"/>
<text text-anchor="middle" x="183" y="-119.5" font-family="Helvetica,sans-Serif" font-size="10.00" fill="#000000">ajabase/common/common.h</text>
</a>
</g>
</g>
<!-- Node0&#45;&gt;Node12 -->
<g id="edge12" class="edge">
<title>Node0&#45;&gt;Node12</title>
<path fill="none" stroke="#191970" d="M197.1546,-224.4126C193.9687,-201.3618 188.8432,-164.2774 185.7125,-141.6259"/>
<polygon fill="#191970" stroke="#191970" points="189.1517,-140.9448 184.3155,-131.5182 182.2177,-141.9032 189.1517,-140.9448"/>
</g>
<!-- Node15 -->
<g id="node16" class="node">
<title>Node15</title>
<g id="a_node16"><a xlink:href="../../dd/d42/lock_8h.html" target="_top" xlink:title="Declares the AJALock class. ">
<polygon fill="#ffffff" stroke="#000000" points="375.5,-168.5 375.5,-187.5 490.5,-187.5 490.5,-168.5 375.5,-168.5"/>
<text text-anchor="middle" x="433" y="-175.5" font-family="Helvetica,sans-Serif" font-size="10.00" fill="#000000">ajabase/system/lock.h</text>
</a>
</g>
</g>
<!-- Node0&#45;&gt;Node15 -->
<g id="edge18" class="edge">
<title>Node0&#45;&gt;Node15</title>
<path fill="none" stroke="#191970" d="M271.4911,-224.4425C310.2851,-213.2871 356.9474,-199.8692 390.119,-190.3306"/>
<polygon fill="#191970" stroke="#191970" points="391.3135,-193.629 399.9568,-187.5017 389.379,-186.9016 391.3135,-193.629"/>
</g>
<!-- Node4 -->
<g id="node5" class="node">
<title>Node4</title>
<g id="a_node5"><a xlink:href="../../d4/d79/public_8h.html" target="_top" xlink:title="Master header for the ajabase library. ">
<polygon fill="#ffffff" stroke="#000000" points="277,-112.5 277,-131.5 405,-131.5 405,-112.5 277,-112.5"/>
<text text-anchor="middle" x="341" y="-119.5" font-family="Helvetica,sans-Serif" font-size="10.00" fill="#000000">ajabase/common/public.h</text>
</a>
</g>
</g>
<!-- Node3&#45;&gt;Node4 -->
<g id="edge4" class="edge">
<title>Node3&#45;&gt;Node4</title>
<path fill="none" stroke="#191970" d="M301.361,-168.2455C308.175,-160.2958 317.9681,-148.8706 326.1152,-139.3656"/>
<polygon fill="#191970" stroke="#191970" points="328.8843,-141.513 332.7349,-131.6427 323.5695,-136.9575 328.8843,-141.513"/>
</g>
<!-- Node5 -->
<g id="node6" class="node">
<title>Node5</title>
<g id="a_node6"><a xlink:href="../../db/db5/export_8h.html" target="_top" xlink:title="Declares system&#45;dependent import/export macros and libraries. ">
<polygon fill="#ffffff" stroke="#000000" points="112.5,-56.5 112.5,-75.5 241.5,-75.5 241.5,-56.5 112.5,-56.5"/>
<text text-anchor="middle" x="177" y="-63.5" font-family="Helvetica,sans-Serif" font-size="10.00" fill="#000000">ajabase/common/export.h</text>
</a>
</g>
</g>
<!-- Node4&#45;&gt;Node5 -->
<g id="edge5" class="edge">
<title>Node4&#45;&gt;Node5</title>
<path fill="none" stroke="#191970" d="M312.8074,-112.3733C285.6547,-103.1016 244.4093,-89.0178 214.4975,-78.804"/>
<polygon fill="#191970" stroke="#191970" points="215.4192,-75.4204 204.8247,-75.5011 213.1572,-82.0449 215.4192,-75.4204"/>
</g>
<!-- Node6 -->
<g id="node7" class="node">
<title>Node6</title>
<polygon fill="#ffffff" stroke="#bfbfbf" points="259.5,-56.5 259.5,-75.5 300.5,-75.5 300.5,-56.5 259.5,-56.5"/>
<text text-anchor="middle" x="280" y="-63.5" font-family="Helvetica,sans-Serif" font-size="10.00" fill="#000000">string</text>
</g>
<!-- Node4&#45;&gt;Node6 -->
<g id="edge6" class="edge">
<title>Node4&#45;&gt;Node6</title>
<path fill="none" stroke="#191970" d="M330.3746,-112.2455C321.4527,-104.0549 308.512,-92.1749 297.9808,-82.5069"/>
<polygon fill="#191970" stroke="#191970" points="300.2371,-79.8271 290.5036,-75.6427 295.5032,-84.9837 300.2371,-79.8271"/>
</g>
<!-- Node7 -->
<g id="node8" class="node">
<title>Node7</title>
<polygon fill="#ffffff" stroke="#bfbfbf" points="381.5,-56.5 381.5,-75.5 410.5,-75.5 410.5,-56.5 381.5,-56.5"/>
<text text-anchor="middle" x="396" y="-63.5" font-family="Helvetica,sans-Serif" font-size="10.00" fill="#000000">list</text>
</g>
<!-- Node4&#45;&gt;Node7 -->
<g id="edge7" class="edge">
<title>Node4&#45;&gt;Node7</title>
<path fill="none" stroke="#191970" d="M350.5803,-112.2455C358.5458,-104.1352 370.0641,-92.4075 379.5079,-82.7919"/>
<polygon fill="#191970" stroke="#191970" points="382.0195,-85.2297 386.5295,-75.6427 377.0253,-80.3247 382.0195,-85.2297"/>
</g>
<!-- Node8 -->
<g id="node9" class="node">
<title>Node8</title>
<polygon fill="#ffffff" stroke="#bfbfbf" points="319,-56.5 319,-75.5 363,-75.5 363,-56.5 319,-56.5"/>
<text text-anchor="middle" x="341" y="-63.5" font-family="Helvetica,sans-Serif" font-size="10.00" fill="#000000">vector</text>
</g>
<!-- Node4&#45;&gt;Node8 -->
<g id="edge8" class="edge">
<title>Node4&#45;&gt;Node8</title>
<path fill="none" stroke="#191970" d="M341,-112.2455C341,-104.9382 341,-94.6944 341,-85.7046"/>
<polygon fill="#191970" stroke="#191970" points="344.5001,-85.6426 341,-75.6427 337.5001,-85.6427 344.5001,-85.6426"/>
</g>
<!-- Node9 -->
<g id="node10" class="node">
<title>Node9</title>
<polygon fill="#ffffff" stroke="#bfbfbf" points="428.5,-56.5 428.5,-75.5 463.5,-75.5 463.5,-56.5 428.5,-56.5"/>
<text text-anchor="middle" x="446" y="-63.5" font-family="Helvetica,sans-Serif" font-size="10.00" fill="#000000">map</text>
</g>
<!-- Node4&#45;&gt;Node9 -->
<g id="edge9" class="edge">
<title>Node4&#45;&gt;Node9</title>
<path fill="none" stroke="#191970" d="M359.2896,-112.2455C375.8768,-103.3991 400.5337,-90.2487 419.3187,-80.23"/>
<polygon fill="#191970" stroke="#191970" points="421.0934,-83.2503 428.2698,-75.4561 417.7992,-77.0738 421.0934,-83.2503"/>
</g>
<!-- Node10 -->
<g id="node11" class="node">
<title>Node10</title>
<g id="a_node11"><a xlink:href="../../d9/d49/types_8h.html" target="_top" xlink:title="Declares common types used in the ajabase library. ">
<polygon fill="#ffffff" stroke="#000000" points="482,-56.5 482,-75.5 608,-75.5 608,-56.5 482,-56.5"/>
<text text-anchor="middle" x="545" y="-63.5" font-family="Helvetica,sans-Serif" font-size="10.00" fill="#000000">ajabase/common/types.h</text>
</a>
</g>
</g>
<!-- Node4&#45;&gt;Node10 -->
<g id="edge10" class="edge">
<title>Node4&#45;&gt;Node10</title>
<path fill="none" stroke="#191970" d="M376.0689,-112.3733C410.4315,-102.9404 462.9392,-88.5265 500.2851,-78.2747"/>
<polygon fill="#191970" stroke="#191970" points="501.672,-81.5235 510.3888,-75.5011 499.819,-74.7732 501.672,-81.5235"/>
</g>
<!-- Node11 -->
<g id="node12" class="node">
<title>Node11</title>
<g id="a_node12"><a xlink:href="../../db/d40/ntv2deprecate_8h.html" target="_top" xlink:title="Deprecation control macros. ">
<polygon fill="#ffffff" stroke="#000000" points="502,-.5 502,-19.5 588,-19.5 588,-.5 502,-.5"/>
<text text-anchor="middle" x="545" y="-7.5" font-family="Helvetica,sans-Serif" font-size="10.00" fill="#000000">ntv2deprecate.h</text>
</a>
</g>
</g>
<!-- Node10&#45;&gt;Node11 -->
<g id="edge11" class="edge">
<title>Node10&#45;&gt;Node11</title>
<path fill="none" stroke="#191970" d="M545,-56.2455C545,-48.9382 545,-38.6944 545,-29.7046"/>
<polygon fill="#191970" stroke="#191970" points="548.5001,-29.6426 545,-19.6427 541.5001,-29.6427 548.5001,-29.6426"/>
</g>
<!-- Node12&#45;&gt;Node5 -->
<g id="edge13" class="edge">
<title>Node12&#45;&gt;Node5</title>
<path fill="none" stroke="#191970" d="M181.9549,-112.2455C181.172,-104.9382 180.0744,-94.6944 179.1112,-85.7046"/>
<polygon fill="#191970" stroke="#191970" points="182.5786,-85.2129 178.0331,-75.6427 175.6185,-85.9587 182.5786,-85.2129"/>
</g>
<!-- Node12&#45;&gt;Node6 -->
<g id="edge15" class="edge">
<title>Node12&#45;&gt;Node6</title>
<path fill="none" stroke="#191970" d="M199.8961,-112.2455C214.918,-103.5731 237.1043,-90.7645 254.321,-80.825"/>
<polygon fill="#191970" stroke="#191970" points="256.3871,-83.6737 263.2975,-75.6427 252.8872,-77.6114 256.3871,-83.6737"/>
</g>
<!-- Node12&#45;&gt;Node8 -->
<g id="edge16" class="edge">
<title>Node12&#45;&gt;Node8</title>
<path fill="none" stroke="#191970" d="M210.1612,-112.3733C237.6274,-102.6384 280.0612,-87.5985 309.1087,-77.3032"/>
<polygon fill="#191970" stroke="#191970" points="310.5222,-80.5157 318.7784,-73.876 308.1837,-73.9178 310.5222,-80.5157"/>
</g>
<!-- Node13 -->
<g id="node14" class="node">
<title>Node13</title>
<polygon fill="#ffffff" stroke="#bfbfbf" points="0,-56.5 0,-75.5 30,-75.5 30,-56.5 0,-56.5"/>
<text text-anchor="middle" x="15" y="-63.5" font-family="Helvetica,sans-Serif" font-size="10.00" fill="#000000">set</text>
</g>
<!-- Node12&#45;&gt;Node13 -->
<g id="edge14" class="edge">
<title>Node12&#45;&gt;Node13</title>
<path fill="none" stroke="#191970" d="M150.4178,-112.462C123.0617,-104.2624 82.7942,-91.7488 39.6884,-76.0522"/>
<polygon fill="#191970" stroke="#191970" points="40.7514,-72.7139 30.1579,-72.546 38.3345,-79.2835 40.7514,-72.7139"/>
</g>
<!-- Node14 -->
<g id="node15" class="node">
<title>Node14</title>
<polygon fill="#ffffff" stroke="#bfbfbf" points="48,-56.5 48,-75.5 94,-75.5 94,-56.5 48,-56.5"/>
<text text-anchor="middle" x="71" y="-63.5" font-family="Helvetica,sans-Serif" font-size="10.00" fill="#000000">cstdint</text>
</g>
<!-- Node12&#45;&gt;Node14 -->
<g id="edge17" class="edge">
<title>Node12&#45;&gt;Node14</title>
<path fill="none" stroke="#191970" d="M163.7465,-112.3733C145.9288,-103.4644 119.2253,-90.1127 99.0406,-80.0203"/>
<polygon fill="#191970" stroke="#191970" points="100.5118,-76.8428 90.0022,-75.5011 97.3813,-83.1038 100.5118,-76.8428"/>
</g>
<!-- Node15&#45;&gt;Node4 -->
<g id="edge19" class="edge">
<title>Node15&#45;&gt;Node4</title>
<path fill="none" stroke="#191970" d="M416.9748,-168.2455C402.8592,-159.6534 382.0737,-147.0014 365.8101,-137.1018"/>
<polygon fill="#191970" stroke="#191970" points="367.2034,-133.8525 356.8415,-131.6427 363.5637,-139.8319 367.2034,-133.8525"/>
</g>
<!-- Node16 -->
<g id="node17" class="node">
<title>Node16</title>
<polygon fill="#ffffff" stroke="#bfbfbf" points="423,-112.5 423,-131.5 475,-131.5 475,-112.5 423,-112.5"/>
<text text-anchor="middle" x="449" y="-119.5" font-family="Helvetica,sans-Serif" font-size="10.00" fill="#000000">assert.h</text>
</g>
<!-- Node15&#45;&gt;Node16 -->
<g id="edge20" class="edge">
<title>Node15&#45;&gt;Node16</title>
<path fill="none" stroke="#191970" d="M435.787,-168.2455C437.8977,-160.8579 440.866,-150.4689 443.4547,-141.4087"/>
<polygon fill="#191970" stroke="#191970" points="446.863,-142.2195 446.245,-131.6427 440.1323,-140.2964 446.863,-142.2195"/>
</g>
</g>
</svg>
