<?xml version="1.0" encoding="UTF-8" standalone="no"?>
<!DOCTYPE svg PUBLIC "-//W3C//DTD SVG 1.1//EN"
 "http://www.w3.org/Graphics/SVG/1.1/DTD/svg11.dtd">
<!-- Generated by graphviz version 2.40.1 (0)
 -->
<!-- Title: /home/tcbuilder/buildAgent/work/df8e8cce5bebfd58/libajantv2/ajantv2/src/ntv2supportlogger.cpp Pages: 1 -->
<svg width="2931pt" height="733pt"
 viewBox="0.00 0.00 2930.50 733.00" xmlns="http://www.w3.org/2000/svg" xmlns:xlink="http://www.w3.org/1999/xlink">
<g id="graph0" class="graph" transform="scale(1 1) rotate(0) translate(4 729)">
<title>/home/tcbuilder/buildAgent/work/df8e8cce5bebfd58/libajantv2/ajantv2/src/ntv2supportlogger.cpp</title>
<polygon fill="#ffffff" stroke="transparent" points="-4,4 -4,-729 2926.5024,-729 2926.5024,4 -4,4"/>
<!-- Node0 -->
<g id="node1" class="node">
<title>Node0</title>
<polygon fill="#bfbfbf" stroke="#000000" points="2306.5024,-683.5 2306.5024,-724.5 2473.5024,-724.5 2473.5024,-683.5 2306.5024,-683.5"/>
<text text-anchor="start" x="2314.5024" y="-712.5" font-family="Helvetica,sans-Serif" font-size="10.00" fill="#000000">/home/tcbuilder/buildAgent</text>
<text text-anchor="start" x="2314.5024" y="-701.5" font-family="Helvetica,sans-Serif" font-size="10.00" fill="#000000">/work/df8e8cce5bebfd58/libajantv2</text>
<text text-anchor="middle" x="2390.0024" y="-690.5" font-family="Helvetica,sans-Serif" font-size="10.00" fill="#000000">/ajantv2/src/ntv2supportlogger.cpp</text>
</g>
<!-- Node1 -->
<g id="node2" class="node">
<title>Node1</title>
<g id="a_node2"><a xlink:href="../../d0/db3/ntv2supportlogger_8h.html" target="_top" xlink:title="Declares the CNTV2SupportLogger class. ">
<polygon fill="#ffffff" stroke="#000000" points="2299.5024,-560.5 2299.5024,-579.5 2400.5024,-579.5 2400.5024,-560.5 2299.5024,-560.5"/>
<text text-anchor="middle" x="2350.0024" y="-567.5" font-family="Helvetica,sans-Serif" font-size="10.00" fill="#000000">ntv2supportlogger.h</text>
</a>
</g>
</g>
<!-- Node0&#45;&gt;Node1 -->
<g id="edge1" class="edge">
<title>Node0&#45;&gt;Node1</title>
<path fill="none" stroke="#191970" d="M2383.8401,-683.3562C2376.2042,-657.7759 2363.2899,-614.513 2355.8181,-589.4823"/>
<polygon fill="#191970" stroke="#191970" points="2359.1074,-588.2652 2352.8932,-579.6841 2352.3999,-590.2675 2359.1074,-588.2652"/>
</g>
<!-- Node15 -->
<g id="node16" class="node">
<title>Node15</title>
<polygon fill="#ffffff" stroke="#bfbfbf" points="1881.0024,-112.5 1881.0024,-131.5 1925.0024,-131.5 1925.0024,-112.5 1881.0024,-112.5"/>
<text text-anchor="middle" x="1903.0024" y="-119.5" font-family="Helvetica,sans-Serif" font-size="10.00" fill="#000000">vector</text>
</g>
<!-- Node0&#45;&gt;Node15 -->
<g id="edge152" class="edge">
<title>Node0&#45;&gt;Node15</title>
<path fill="none" stroke="#191970" d="M2367.3533,-683.1141C2344.0833,-660.2169 2308.8194,-621.216 2291.0024,-580 2217.3617,-409.6471 2363.8159,-288.891 2223.0024,-168 2201.3443,-149.4061 2012.0352,-131.3158 1935.2011,-124.6703"/>
<polygon fill="#191970" stroke="#191970" points="1935.3969,-121.1743 1925.1351,-123.8097 1934.8006,-128.1489 1935.3969,-121.1743"/>
</g>
<!-- Node36 -->
<g id="node37" class="node">
<title>Node36</title>
<g id="a_node37"><a xlink:href="../../d8/d0f/ntv2devicefeatures_8h.html" target="_top" xlink:title="Declares device capability functions. ">
<polygon fill="#ffffff" stroke="#000000" points="431.5024,-224.5 431.5024,-243.5 538.5024,-243.5 538.5024,-224.5 431.5024,-224.5"/>
<text text-anchor="middle" x="485.0024" y="-231.5" font-family="Helvetica,sans-Serif" font-size="10.00" fill="#000000">ntv2devicefeatures.h</text>
</a>
</g>
</g>
<!-- Node0&#45;&gt;Node36 -->
<g id="edge96" class="edge">
<title>Node0&#45;&gt;Node36</title>
<path fill="none" stroke="#191970" d="M2306.4195,-702.7939C1929.7082,-696.8196 408.0024,-666.7019 408.0024,-570 408.0024,-570 408.0024,-570 408.0024,-346 408.0024,-306.0704 441.6465,-269.9919 464.4564,-250.1198"/>
<polygon fill="#191970" stroke="#191970" points="466.8727,-252.6614 472.2875,-243.5547 462.3756,-247.297 466.8727,-252.6614"/>
</g>
<!-- Node42 -->
<g id="node43" class="node">
<title>Node42</title>
<g id="a_node43"><a xlink:href="../../d6/d6a/ntv2devicescanner_8h.html" target="_top" xlink:title="Declares the CNTV2DeviceScanner class. ">
<polygon fill="#ffffff" stroke="#000000" points="2137.0024,-560.5 2137.0024,-579.5 2243.0024,-579.5 2243.0024,-560.5 2137.0024,-560.5"/>
<text text-anchor="middle" x="2190.0024" y="-567.5" font-family="Helvetica,sans-Serif" font-size="10.00" fill="#000000">ntv2devicescanner.h</text>
</a>
</g>
</g>
<!-- Node0&#45;&gt;Node42 -->
<g id="edge91" class="edge">
<title>Node0&#45;&gt;Node42</title>
<path fill="none" stroke="#191970" d="M2326.3379,-683.4543C2303.2788,-674.3255 2277.8116,-662.1663 2257.0024,-647 2234.4075,-630.5322 2214.2135,-605.114 2202.044,-588.0338"/>
<polygon fill="#191970" stroke="#191970" points="2204.7143,-585.742 2196.1444,-579.5124 2198.959,-589.7266 2204.7143,-585.742"/>
</g>
<!-- Node44 -->
<g id="node45" class="node">
<title>Node44</title>
<g id="a_node45"><a xlink:href="../../d1/dbd/ntv2konaflashprogram_8h.html" target="_top" xlink:title="Declares the CNTV2KonaFlashProgram class. ">
<polygon fill="#ffffff" stroke="#000000" points="1168.5024,-622 1168.5024,-641 1289.5024,-641 1289.5024,-622 1168.5024,-622"/>
<text text-anchor="middle" x="1229.0024" y="-629" font-family="Helvetica,sans-Serif" font-size="10.00" fill="#000000">ntv2konaflashprogram.h</text>
</a>
</g>
</g>
<!-- Node0&#45;&gt;Node44 -->
<g id="edge97" class="edge">
<title>Node0&#45;&gt;Node44</title>
<path fill="none" stroke="#191970" d="M2306.0391,-698.7568C2087.4271,-685.1053 1503.4959,-648.6411 1300.0714,-635.938"/>
<polygon fill="#191970" stroke="#191970" points="1300.0084,-632.4273 1289.8096,-635.2972 1299.572,-639.4137 1300.0084,-632.4273"/>
</g>
<!-- Node53 -->
<g id="node54" class="node">
<title>Node53</title>
<g id="a_node54"><a xlink:href="../../df/de0/ntv2registerexpert_8h.html" target="_top" xlink:title="Declares the CNTV2RegisterExpert class. ">
<polygon fill="#ffffff" stroke="#000000" points="545.5024,-336.5 545.5024,-355.5 648.5024,-355.5 648.5024,-336.5 545.5024,-336.5"/>
<text text-anchor="middle" x="597.0024" y="-343.5" font-family="Helvetica,sans-Serif" font-size="10.00" fill="#000000">ntv2registerexpert.h</text>
</a>
</g>
</g>
<!-- Node0&#45;&gt;Node53 -->
<g id="edge124" class="edge">
<title>Node0&#45;&gt;Node53</title>
<path fill="none" stroke="#191970" d="M2306.4494,-703.1887C1932.3239,-699.3614 427.8464,-681.8243 394.0024,-647 300.902,-551.2029 501.0832,-407.7239 572.7547,-361.169"/>
<polygon fill="#191970" stroke="#191970" points="574.6886,-364.0867 581.2126,-355.7388 570.9067,-358.1962 574.6886,-364.0867"/>
</g>
<!-- Node54 -->
<g id="node55" class="node">
<title>Node54</title>
<g id="a_node55"><a xlink:href="../../d6/d50/ntv2registersmb_8h.html" target="_top" xlink:title="Defines the KonaIP/IoIP registers. ">
<polygon fill="#ffffff" stroke="#000000" points="2495.5024,-622 2495.5024,-641 2590.5024,-641 2590.5024,-622 2495.5024,-622"/>
<text text-anchor="middle" x="2543.0024" y="-629" font-family="Helvetica,sans-Serif" font-size="10.00" fill="#000000">ntv2registersmb.h</text>
</a>
</g>
</g>
<!-- Node0&#45;&gt;Node54 -->
<g id="edge133" class="edge">
<title>Node0&#45;&gt;Node54</title>
<path fill="none" stroke="#191970" d="M2433.4369,-683.4183C2459.1016,-671.257 2490.9146,-656.1822 2513.6369,-645.415"/>
<polygon fill="#191970" stroke="#191970" points="2515.236,-648.5304 2522.7741,-641.0853 2512.2385,-642.2047 2515.236,-648.5304"/>
</g>
<!-- Node55 -->
<g id="node56" class="node">
<title>Node55</title>
<g id="a_node56"><a xlink:href="../../d6/de1/ntv2rp188_8h.html" target="_top" xlink:title="Declares the CRP188 class. See SMPTE RP188 standard for details. ">
<polygon fill="#ffffff" stroke="#000000" points="34.0024,-224.5 34.0024,-243.5 102.0024,-243.5 102.0024,-224.5 34.0024,-224.5"/>
<text text-anchor="middle" x="68.0024" y="-231.5" font-family="Helvetica,sans-Serif" font-size="10.00" fill="#000000">ntv2rp188.h</text>
</a>
</g>
</g>
<!-- Node0&#45;&gt;Node55 -->
<g id="edge134" class="edge">
<title>Node0&#45;&gt;Node55</title>
<path fill="none" stroke="#191970" d="M2306.4397,-702.8619C1949.7355,-697.8379 564.0236,-676.5766 371.0024,-647 246.8124,-627.9704 99.0024,-695.6395 99.0024,-570 99.0024,-570 99.0024,-570 99.0024,-346 99.0024,-312.3636 85.8547,-275.0368 76.6841,-253.0922"/>
<polygon fill="#191970" stroke="#191970" points="79.7717,-251.4156 72.5766,-243.6387 73.3515,-254.2051 79.7717,-251.4156"/>
</g>
<!-- Node57 -->
<g id="node58" class="node">
<title>Node57</title>
<g id="a_node58"><a xlink:href="../../dc/d54/common_8h.html" target="_top" xlink:title="Private include file for all ajabase sources. ">
<polygon fill="#ffffff" stroke="#000000" points="2553.0024,-168.5 2553.0024,-187.5 2693.0024,-187.5 2693.0024,-168.5 2553.0024,-168.5"/>
<text text-anchor="middle" x="2623.0024" y="-175.5" font-family="Helvetica,sans-Serif" font-size="10.00" fill="#000000">ajabase/common/common.h</text>
</a>
</g>
</g>
<!-- Node0&#45;&gt;Node57 -->
<g id="edge138" class="edge">
<title>Node0&#45;&gt;Node57</title>
<path fill="none" stroke="#191970" d="M2407.0687,-683.4621C2415.2721,-672.9736 2424.8503,-659.7599 2432.0024,-647 2524.4492,-482.0694 2596.3649,-263.2625 2617.003,-197.4945"/>
<polygon fill="#191970" stroke="#191970" points="2620.4349,-198.2452 2620.064,-187.6568 2613.7509,-196.1654 2620.4349,-198.2452"/>
</g>
<!-- Node59 -->
<g id="node60" class="node">
<title>Node59</title>
<polygon fill="#ffffff" stroke="#bfbfbf" points="2609.0024,-616.5 2609.0024,-646.5 2713.0024,-646.5 2713.0024,-616.5 2609.0024,-616.5"/>
<text text-anchor="start" x="2617.0024" y="-634.5" font-family="Helvetica,sans-Serif" font-size="10.00" fill="#000000">ajabase/persistence</text>
<text text-anchor="middle" x="2661.0024" y="-623.5" font-family="Helvetica,sans-Serif" font-size="10.00" fill="#000000">/persistence.h</text>
</g>
<!-- Node0&#45;&gt;Node59 -->
<g id="edge144" class="edge">
<title>Node0&#45;&gt;Node59</title>
<path fill="none" stroke="#191970" d="M2466.9353,-683.4183C2508.7701,-672.2264 2559.8281,-658.5669 2599.0713,-648.0683"/>
<polygon fill="#191970" stroke="#191970" points="2600.0253,-651.4362 2608.781,-645.4707 2598.2162,-644.674 2600.0253,-651.4362"/>
</g>
<!-- Node60 -->
<g id="node61" class="node">
<title>Node60</title>
<g id="a_node61"><a xlink:href="../../d4/d21/info_8h.html" target="_top" xlink:title="Declares the AJASystemInfo class. ">
<polygon fill="#ffffff" stroke="#000000" points="2363.5024,-224.5 2363.5024,-243.5 2476.5024,-243.5 2476.5024,-224.5 2363.5024,-224.5"/>
<text text-anchor="middle" x="2420.0024" y="-231.5" font-family="Helvetica,sans-Serif" font-size="10.00" fill="#000000">ajabase/system/info.h</text>
</a>
</g>
</g>
<!-- Node0&#45;&gt;Node60 -->
<g id="edge145" class="edge">
<title>Node0&#45;&gt;Node60</title>
<path fill="none" stroke="#191970" d="M2400.0459,-683.1946C2411.6013,-657.3018 2429.0024,-611.4319 2429.0024,-570 2429.0024,-570 2429.0024,-570 2429.0024,-346 2429.0024,-313.6075 2425.2157,-276.1141 2422.5548,-253.7662"/>
<polygon fill="#191970" stroke="#191970" points="2425.9944,-253.0616 2421.2919,-243.5676 2419.0474,-253.9219 2425.9944,-253.0616"/>
</g>
<!-- Node61 -->
<g id="node62" class="node">
<title>Node61</title>
<polygon fill="#ffffff" stroke="#bfbfbf" points="2731.0024,-622 2731.0024,-641 2787.0024,-641 2787.0024,-622 2731.0024,-622"/>
<text text-anchor="middle" x="2759.0024" y="-629" font-family="Helvetica,sans-Serif" font-size="10.00" fill="#000000">algorithm</text>
</g>
<!-- Node0&#45;&gt;Node61 -->
<g id="edge150" class="edge">
<title>Node0&#45;&gt;Node61</title>
<path fill="none" stroke="#191970" d="M2473.7308,-694.9592C2541.5833,-686.3662 2639.1814,-671.1179 2722.0024,-647 2724.3156,-646.3264 2726.6793,-645.5518 2729.0376,-644.7158"/>
<polygon fill="#191970" stroke="#191970" points="2730.4932,-647.9055 2738.5583,-641.035 2727.969,-641.3765 2730.4932,-647.9055"/>
</g>
<!-- Node62 -->
<g id="node63" class="node">
<title>Node62</title>
<polygon fill="#ffffff" stroke="#bfbfbf" points="2805.0024,-622 2805.0024,-641 2857.0024,-641 2857.0024,-622 2805.0024,-622"/>
<text text-anchor="middle" x="2831.0024" y="-629" font-family="Helvetica,sans-Serif" font-size="10.00" fill="#000000">sstream</text>
</g>
<!-- Node0&#45;&gt;Node62 -->
<g id="edge151" class="edge">
<title>Node0&#45;&gt;Node62</title>
<path fill="none" stroke="#191970" d="M2473.8279,-699.0371C2556.919,-692.5401 2687.1814,-678.0788 2796.0024,-647 2798.1831,-646.3772 2800.4042,-645.6451 2802.6164,-644.8437"/>
<polygon fill="#191970" stroke="#191970" points="2804.1416,-648.0025 2812.1036,-641.0127 2801.5205,-641.5117 2804.1416,-648.0025"/>
</g>
<!-- Node63 -->
<g id="node64" class="node">
<title>Node63</title>
<polygon fill="#ffffff" stroke="#bfbfbf" points="2875.5024,-622 2875.5024,-641 2922.5024,-641 2922.5024,-622 2875.5024,-622"/>
<text text-anchor="middle" x="2899.0024" y="-629" font-family="Helvetica,sans-Serif" font-size="10.00" fill="#000000">iterator</text>
</g>
<!-- Node0&#45;&gt;Node63 -->
<g id="edge153" class="edge">
<title>Node0&#45;&gt;Node63</title>
<path fill="none" stroke="#191970" d="M2473.8527,-697.2024C2590.2068,-687.2146 2794.3957,-667.5247 2866.0024,-647 2867.9191,-646.4506 2869.8637,-645.8018 2871.8004,-645.0862"/>
<polygon fill="#191970" stroke="#191970" points="2873.3947,-648.2126 2881.2514,-641.1047 2870.677,-641.7616 2873.3947,-648.2126"/>
</g>
<!-- Node2 -->
<g id="node3" class="node">
<title>Node2</title>
<g id="a_node3"><a xlink:href="../../df/d4b/ntv2card_8h.html" target="_top" xlink:title="Declares the CNTV2Card class. ">
<polygon fill="#ffffff" stroke="#000000" points="1541.0024,-504.5 1541.0024,-523.5 1603.0024,-523.5 1603.0024,-504.5 1541.0024,-504.5"/>
<text text-anchor="middle" x="1572.0024" y="-511.5" font-family="Helvetica,sans-Serif" font-size="10.00" fill="#000000">ntv2card.h</text>
</a>
</g>
</g>
<!-- Node1&#45;&gt;Node2 -->
<g id="edge2" class="edge">
<title>Node1&#45;&gt;Node2</title>
<path fill="none" stroke="#191970" d="M2299.422,-564.5057C2284.1902,-562.9411 2267.4246,-561.3081 2252.0024,-560 2010.3494,-539.5032 1719.7608,-522.3408 1613.4962,-516.3121"/>
<polygon fill="#191970" stroke="#191970" points="1613.391,-512.8007 1603.2094,-515.7307 1612.9959,-519.7895 1613.391,-512.8007"/>
</g>
<!-- Node11 -->
<g id="node12" class="node">
<title>Node11</title>
<polygon fill="#ffffff" stroke="#bfbfbf" points="1205.5024,-.5 1205.5024,-19.5 1246.5024,-19.5 1246.5024,-.5 1205.5024,-.5"/>
<text text-anchor="middle" x="1226.0024" y="-7.5" font-family="Helvetica,sans-Serif" font-size="10.00" fill="#000000">string</text>
</g>
<!-- Node1&#45;&gt;Node11 -->
<g id="edge89" class="edge">
<title>Node1&#45;&gt;Node11</title>
<path fill="none" stroke="#191970" d="M2356.2295,-560.2504C2367.6991,-541.3274 2391.0024,-497.9633 2391.0024,-458 2391.0024,-458 2391.0024,-458 2391.0024,-402 2391.0024,-261.4262 2551.6538,-327.1449 2665.0024,-244 2694.6778,-222.2321 2701.4585,-215.4237 2726.0024,-188 2766.2605,-143.0185 2803.4414,-95.741 2758.0024,-56 2728.7828,-30.4445 1399.7727,-21.9344 1361.0024,-20 1325.1537,-18.2114 1284.03,-14.9977 1256.6844,-12.696"/>
<polygon fill="#191970" stroke="#191970" points="1256.8289,-9.1957 1246.5675,-11.833 1256.2339,-16.1703 1256.8289,-9.1957"/>
</g>
<!-- Node14 -->
<g id="node15" class="node">
<title>Node14</title>
<polygon fill="#ffffff" stroke="#bfbfbf" points="2058.5024,-112.5 2058.5024,-131.5 2093.5024,-131.5 2093.5024,-112.5 2058.5024,-112.5"/>
<text text-anchor="middle" x="2076.0024" y="-119.5" font-family="Helvetica,sans-Serif" font-size="10.00" fill="#000000">map</text>
</g>
<!-- Node1&#45;&gt;Node14 -->
<g id="edge88" class="edge">
<title>Node1&#45;&gt;Node14</title>
<path fill="none" stroke="#191970" d="M2351.7726,-560.4261C2360.3092,-511.0081 2392.3402,-282.6768 2279.0024,-168 2272.7958,-161.7201 2157.7167,-138.2118 2103.6427,-127.4459"/>
<polygon fill="#191970" stroke="#191970" points="2104.1816,-123.9847 2093.6916,-125.4715 2102.8192,-130.8508 2104.1816,-123.9847"/>
</g>
<!-- Node26 -->
<g id="node27" class="node">
<title>Node26</title>
<g id="a_node27"><a xlink:href="../../d0/d81/ntv2utils_8h.html" target="_top" xlink:title="Declares numerous NTV2 utility functions. ">
<polygon fill="#ffffff" stroke="#000000" points="1251.0024,-280.5 1251.0024,-299.5 1313.0024,-299.5 1313.0024,-280.5 1251.0024,-280.5"/>
<text text-anchor="middle" x="1282.0024" y="-287.5" font-family="Helvetica,sans-Serif" font-size="10.00" fill="#000000">ntv2utils.h</text>
</a>
</g>
</g>
<!-- Node1&#45;&gt;Node26 -->
<g id="edge90" class="edge">
<title>Node1&#45;&gt;Node26</title>
<path fill="none" stroke="#191970" d="M2331.1571,-560.3121C2304.405,-546.7603 2253.6953,-521.8083 2209.0024,-504 1988.8737,-416.2876 1934.5222,-386.485 1703.0024,-336 1565.9537,-306.1153 1399.3636,-295.2257 1323.3727,-291.6167"/>
<polygon fill="#191970" stroke="#191970" points="1323.4133,-288.115 1313.2639,-291.1546 1323.0936,-295.1077 1323.4133,-288.115"/>
</g>
<!-- Node3 -->
<g id="node4" class="node">
<title>Node3</title>
<g id="a_node4"><a xlink:href="../../d3/d7d/ntv2macdriverinterface_8h.html" target="_top" xlink:title="Implements the MacOS&#45;specific flavor of CNTV2DriverInterface. ">
<polygon fill="#ffffff" stroke="#000000" points="1416.0024,-448.5 1416.0024,-467.5 1540.0024,-467.5 1540.0024,-448.5 1416.0024,-448.5"/>
<text text-anchor="middle" x="1478.0024" y="-455.5" font-family="Helvetica,sans-Serif" font-size="10.00" fill="#000000">ntv2macdriverinterface.h</text>
</a>
</g>
</g>
<!-- Node2&#45;&gt;Node3 -->
<g id="edge3" class="edge">
<title>Node2&#45;&gt;Node3</title>
<path fill="none" stroke="#191970" d="M1555.6289,-504.2455C1541.0716,-495.5731 1519.5714,-482.7645 1502.8872,-472.825"/>
<polygon fill="#191970" stroke="#191970" points="1504.5707,-469.7539 1494.1884,-467.6427 1500.9881,-475.7676 1504.5707,-469.7539"/>
</g>
<!-- Node2&#45;&gt;Node26 -->
<g id="edge85" class="edge">
<title>Node2&#45;&gt;Node26</title>
<path fill="none" stroke="#191970" d="M1540.8734,-507.6152C1507.1526,-500.1754 1452.1281,-486.5001 1407.0024,-468 1359.5115,-448.5302 1336.2162,-453.4921 1306.0024,-412 1283.7539,-381.4464 1280.7122,-335.6175 1281.0119,-309.7007"/>
<polygon fill="#191970" stroke="#191970" points="1284.5129,-309.7172 1281.3131,-299.6171 1277.516,-309.5082 1284.5129,-309.7172"/>
</g>
<!-- Node39 -->
<g id="node40" class="node">
<title>Node39</title>
<g id="a_node40"><a xlink:href="../../dc/d95/ntv2signalrouter_8h.html" target="_top" xlink:title="Declares CNTV2SignalRouter class. ">
<polygon fill="#ffffff" stroke="#000000" points="2079.5024,-224.5 2079.5024,-243.5 2172.5024,-243.5 2172.5024,-224.5 2079.5024,-224.5"/>
<text text-anchor="middle" x="2126.0024" y="-231.5" font-family="Helvetica,sans-Serif" font-size="10.00" fill="#000000">ntv2signalrouter.h</text>
</a>
</g>
</g>
<!-- Node2&#45;&gt;Node39 -->
<g id="edge79" class="edge">
<title>Node2&#45;&gt;Node39</title>
<path fill="none" stroke="#191970" d="M1603.3762,-510.9433C1719.6066,-499.2048 2119.0024,-455.0116 2119.0024,-402 2119.0024,-402 2119.0024,-402 2119.0024,-346 2119.0024,-313.6486 2121.9477,-276.1429 2124.0173,-253.7814"/>
<polygon fill="#191970" stroke="#191970" points="2127.5253,-253.8651 2124.9995,-243.5758 2120.5575,-253.1945 2127.5253,-253.8651"/>
</g>
<!-- Node41 -->
<g id="node42" class="node">
<title>Node41</title>
<g id="a_node42"><a xlink:href="../../d8/d58/ntv2devicecapabilities_8h.html" target="_top" xlink:title="Declares the DeviceCapabilities class. ">
<polygon fill="#ffffff" stroke="#000000" points="1567.5024,-448.5 1567.5024,-467.5 1688.5024,-467.5 1688.5024,-448.5 1567.5024,-448.5"/>
<text text-anchor="middle" x="1628.0024" y="-455.5" font-family="Helvetica,sans-Serif" font-size="10.00" fill="#000000">ntv2devicecapabilities.h</text>
</a>
</g>
</g>
<!-- Node2&#45;&gt;Node41 -->
<g id="edge86" class="edge">
<title>Node2&#45;&gt;Node41</title>
<path fill="none" stroke="#191970" d="M1581.7569,-504.2455C1589.8672,-496.1352 1601.5949,-484.4075 1611.2105,-474.7919"/>
<polygon fill="#191970" stroke="#191970" points="1613.7636,-477.1887 1618.3598,-467.6427 1608.8138,-472.2389 1613.7636,-477.1887"/>
</g>
<!-- Node4 -->
<g id="node5" class="node">
<title>Node4</title>
<g id="a_node5"><a xlink:href="../../d4/dd7/ntv2publicinterface_8h.html" target="_top" xlink:title="Declares enums and structs used by all platform drivers and the SDK. ">
<polygon fill="#ffffff" stroke="#000000" points="1179.5024,-168.5 1179.5024,-187.5 1286.5024,-187.5 1286.5024,-168.5 1179.5024,-168.5"/>
<text text-anchor="middle" x="1233.0024" y="-175.5" font-family="Helvetica,sans-Serif" font-size="10.00" fill="#000000">ntv2publicinterface.h</text>
</a>
</g>
</g>
<!-- Node3&#45;&gt;Node4 -->
<g id="edge4" class="edge">
<title>Node3&#45;&gt;Node4</title>
<path fill="none" stroke="#191970" d="M1450.8118,-448.471C1416.0732,-434.5185 1358.1488,-404.7568 1339.0024,-356 1316.0139,-297.4587 1427.7076,-274.3376 1390.0024,-224 1378.4355,-208.5578 1334.9278,-196.5504 1296.639,-188.6812"/>
<polygon fill="#191970" stroke="#191970" points="1297.0163,-185.1879 1286.5258,-186.6713 1295.6517,-192.0536 1297.0163,-185.1879"/>
</g>
<!-- Node20 -->
<g id="node21" class="node">
<title>Node20</title>
<g id="a_node21"><a xlink:href="../../da/d23/ntv2macpublicinterface_8h.html" target="_top" xlink:title="Declares MacOS&#45;only enums used by the Mac driver and the SDK. ">
<polygon fill="#ffffff" stroke="#000000" points="1399.5024,-392.5 1399.5024,-411.5 1524.5024,-411.5 1524.5024,-392.5 1399.5024,-392.5"/>
<text text-anchor="middle" x="1462.0024" y="-399.5" font-family="Helvetica,sans-Serif" font-size="10.00" fill="#000000">ntv2macpublicinterface.h</text>
</a>
</g>
</g>
<!-- Node3&#45;&gt;Node20 -->
<g id="edge24" class="edge">
<title>Node3&#45;&gt;Node20</title>
<path fill="none" stroke="#191970" d="M1475.2155,-448.2455C1473.1047,-440.8579 1470.1364,-430.4689 1467.5478,-421.4087"/>
<polygon fill="#191970" stroke="#191970" points="1470.8701,-420.2964 1464.7575,-411.6427 1464.1394,-422.2195 1470.8701,-420.2964"/>
</g>
<!-- Node22 -->
<g id="node23" class="node">
<title>Node22</title>
<g id="a_node23"><a xlink:href="../../d4/dc0/ntv2driverinterface_8h.html" target="_top" xlink:title="Declares the CNTV2DriverInterface base class. ">
<polygon fill="#ffffff" stroke="#000000" points="1607.5024,-392.5 1607.5024,-411.5 1712.5024,-411.5 1712.5024,-392.5 1607.5024,-392.5"/>
<text text-anchor="middle" x="1660.0024" y="-399.5" font-family="Helvetica,sans-Serif" font-size="10.00" fill="#000000">ntv2driverinterface.h</text>
</a>
</g>
</g>
<!-- Node3&#45;&gt;Node22 -->
<g id="edge27" class="edge">
<title>Node3&#45;&gt;Node22</title>
<path fill="none" stroke="#191970" d="M1509.2894,-448.3733C1539.6842,-439.021 1585.9917,-424.7725 1619.2524,-414.5385"/>
<polygon fill="#191970" stroke="#191970" points="1620.5953,-417.7873 1629.1238,-411.5011 1618.5367,-411.0968 1620.5953,-417.7873"/>
</g>
<!-- Node5 -->
<g id="node6" class="node">
<title>Node5</title>
<g id="a_node6"><a xlink:href="../../db/de2/ajatypes_8h.html" target="_top" xlink:title="Declares the most fundamental data types used by NTV2. Since Windows NT was the first principal devel...">
<polygon fill="#ffffff" stroke="#000000" points="1364.0024,-56.5 1364.0024,-75.5 1426.0024,-75.5 1426.0024,-56.5 1364.0024,-56.5"/>
<text text-anchor="middle" x="1395.0024" y="-63.5" font-family="Helvetica,sans-Serif" font-size="10.00" fill="#000000">ajatypes.h</text>
</a>
</g>
</g>
<!-- Node4&#45;&gt;Node5 -->
<g id="edge5" class="edge">
<title>Node4&#45;&gt;Node5</title>
<path fill="none" stroke="#191970" d="M1261.6155,-168.4614C1282.777,-160.606 1311.6752,-148.1448 1334.0024,-132 1352.8493,-118.3719 1370.4298,-98.2374 1381.8287,-83.7942"/>
<polygon fill="#191970" stroke="#191970" points="1384.7708,-85.7094 1388.0834,-75.6457 1379.218,-81.4471 1384.7708,-85.7094"/>
</g>
<!-- Node8 -->
<g id="node9" class="node">
<title>Node8</title>
<g id="a_node9"><a xlink:href="../../d6/d0c/ntv2enums_8h.html" target="_top" xlink:title="Enumerations for controlling NTV2 devices. ">
<polygon fill="#ffffff" stroke="#000000" points="717.5024,-112.5 717.5024,-131.5 790.5024,-131.5 790.5024,-112.5 717.5024,-112.5"/>
<text text-anchor="middle" x="754.0024" y="-119.5" font-family="Helvetica,sans-Serif" font-size="10.00" fill="#000000">ntv2enums.h</text>
</a>
</g>
</g>
<!-- Node4&#45;&gt;Node8 -->
<g id="edge8" class="edge">
<title>Node4&#45;&gt;Node8</title>
<path fill="none" stroke="#191970" d="M1179.4493,-171.7391C1084.9303,-160.6889 890.0785,-137.9087 800.6842,-127.4576"/>
<polygon fill="#191970" stroke="#191970" points="800.9133,-123.9606 790.5745,-126.2756 800.1004,-130.9133 800.9133,-123.9606"/>
</g>
<!-- Node10 -->
<g id="node11" class="node">
<title>Node10</title>
<g id="a_node11"><a xlink:href="../../d6/dd9/ajaexport_8h.html" target="_top" xlink:title="Defines the import/export macros for producing DLLs or LIBs. ">
<polygon fill="#ffffff" stroke="#000000" points="410.5024,-.5 410.5024,-19.5 475.5024,-19.5 475.5024,-.5 410.5024,-.5"/>
<text text-anchor="middle" x="443.0024" y="-7.5" font-family="Helvetica,sans-Serif" font-size="10.00" fill="#000000">ajaexport.h</text>
</a>
</g>
</g>
<!-- Node4&#45;&gt;Node10 -->
<g id="edge21" class="edge">
<title>Node4&#45;&gt;Node10</title>
<path fill="none" stroke="#191970" d="M1210.7329,-168.4919C1189.757,-159.4332 1157.531,-145.2501 1130.0024,-132 1063.7309,-100.1022 1053.6648,-76.4012 983.0024,-56 889.8472,-29.1048 596.6809,-15.7 485.9345,-11.4962"/>
<polygon fill="#191970" stroke="#191970" points="485.9231,-7.9934 475.7995,-11.118 485.662,-14.9886 485.9231,-7.9934"/>
</g>
<!-- Node4&#45;&gt;Node11 -->
<g id="edge17" class="edge">
<title>Node4&#45;&gt;Node11</title>
<path fill="none" stroke="#191970" d="M1191.8039,-168.3939C1172.5533,-161.6178 1151.406,-150.3627 1140.0024,-132 1115.2793,-92.1892 1168.4001,-47.7445 1201.7231,-25.0786"/>
<polygon fill="#191970" stroke="#191970" points="1203.6935,-27.9718 1210.1125,-19.5428 1199.8381,-22.1291 1203.6935,-27.9718"/>
</g>
<!-- Node12 -->
<g id="node13" class="node">
<title>Node12</title>
<polygon fill="#ffffff" stroke="#bfbfbf" points="887.0024,-112.5 887.0024,-131.5 941.0024,-131.5 941.0024,-112.5 887.0024,-112.5"/>
<text text-anchor="middle" x="914.0024" y="-119.5" font-family="Helvetica,sans-Serif" font-size="10.00" fill="#000000">iostream</text>
</g>
<!-- Node4&#45;&gt;Node12 -->
<g id="edge13" class="edge">
<title>Node4&#45;&gt;Node12</title>
<path fill="none" stroke="#191970" d="M1179.2492,-168.5637C1114.3913,-157.178 1007.0757,-138.3389 950.8915,-128.4758"/>
<polygon fill="#191970" stroke="#191970" points="951.4721,-125.0243 941.0175,-126.7425 950.2617,-131.9189 951.4721,-125.0243"/>
</g>
<!-- Node13 -->
<g id="node14" class="node">
<title>Node13</title>
<polygon fill="#ffffff" stroke="#bfbfbf" points="2136.0024,-112.5 2136.0024,-131.5 2166.0024,-131.5 2166.0024,-112.5 2136.0024,-112.5"/>
<text text-anchor="middle" x="2151.0024" y="-119.5" font-family="Helvetica,sans-Serif" font-size="10.00" fill="#000000">set</text>
</g>
<!-- Node4&#45;&gt;Node13 -->
<g id="edge14" class="edge">
<title>Node4&#45;&gt;Node13</title>
<path fill="none" stroke="#191970" d="M1286.5987,-176.2395C1450.5487,-170.6847 1943.8216,-152.6668 2103.0024,-132 2110.576,-131.0167 2118.7366,-129.4944 2126.1426,-127.9316"/>
<polygon fill="#191970" stroke="#191970" points="2126.9675,-131.3338 2135.9699,-125.7474 2125.4487,-124.5005 2126.9675,-131.3338"/>
</g>
<!-- Node4&#45;&gt;Node14 -->
<g id="edge15" class="edge">
<title>Node4&#45;&gt;Node14</title>
<path fill="none" stroke="#191970" d="M1286.6544,-174.5671C1404.0361,-167.0372 1692.4638,-148.4297 1934.0024,-132 1973.5757,-129.3082 2019.3423,-126.0611 2047.9822,-124.0129"/>
<polygon fill="#191970" stroke="#191970" points="2048.3472,-127.4959 2058.0715,-123.2903 2047.847,-120.5137 2048.3472,-127.4959"/>
</g>
<!-- Node4&#45;&gt;Node15 -->
<g id="edge16" class="edge">
<title>Node4&#45;&gt;Node15</title>
<path fill="none" stroke="#191970" d="M1286.6988,-173.5119C1420.1439,-162.3583 1763.7568,-133.6384 1870.7232,-124.698"/>
<polygon fill="#191970" stroke="#191970" points="1871.2148,-128.1692 1880.8885,-123.8483 1870.6317,-121.1935 1871.2148,-128.1692"/>
</g>
<!-- Node16 -->
<g id="node17" class="node">
<title>Node16</title>
<polygon fill="#ffffff" stroke="#bfbfbf" points="1149.0024,-112.5 1149.0024,-131.5 1199.0024,-131.5 1199.0024,-112.5 1149.0024,-112.5"/>
<text text-anchor="middle" x="1174.0024" y="-119.5" font-family="Helvetica,sans-Serif" font-size="10.00" fill="#000000">iomanip</text>
</g>
<!-- Node4&#45;&gt;Node16 -->
<g id="edge18" class="edge">
<title>Node4&#45;&gt;Node16</title>
<path fill="none" stroke="#191970" d="M1222.7254,-168.2455C1214.1806,-160.1352 1201.8246,-148.4075 1191.6939,-138.7919"/>
<polygon fill="#191970" stroke="#191970" points="1193.8243,-135.9884 1184.1617,-131.6427 1189.0053,-141.0655 1193.8243,-135.9884"/>
</g>
<!-- Node17 -->
<g id="node18" class="node">
<title>Node17</title>
<polygon fill="#ffffff" stroke="#bfbfbf" points="1217.5024,-112.5 1217.5024,-131.5 1258.5024,-131.5 1258.5024,-112.5 1217.5024,-112.5"/>
<text text-anchor="middle" x="1238.0024" y="-119.5" font-family="Helvetica,sans-Serif" font-size="10.00" fill="#000000">bitset</text>
</g>
<!-- Node4&#45;&gt;Node17 -->
<g id="edge19" class="edge">
<title>Node4&#45;&gt;Node17</title>
<path fill="none" stroke="#191970" d="M1233.8734,-168.2455C1234.5258,-160.9382 1235.4405,-150.6944 1236.2431,-141.7046"/>
<polygon fill="#191970" stroke="#191970" points="1239.7382,-141.9143 1237.1415,-131.6427 1232.766,-141.2918 1239.7382,-141.9143"/>
</g>
<!-- Node18 -->
<g id="node19" class="node">
<title>Node18</title>
<polygon fill="#ffffff" stroke="#bfbfbf" points="1276.5024,-112.5 1276.5024,-131.5 1325.5024,-131.5 1325.5024,-112.5 1276.5024,-112.5"/>
<text text-anchor="middle" x="1301.0024" y="-119.5" font-family="Helvetica,sans-Serif" font-size="10.00" fill="#000000">string.h</text>
</g>
<!-- Node4&#45;&gt;Node18 -->
<g id="edge20" class="edge">
<title>Node4&#45;&gt;Node18</title>
<path fill="none" stroke="#191970" d="M1244.8471,-168.2455C1254.8904,-159.9746 1269.5019,-147.9416 1281.3028,-138.2232"/>
<polygon fill="#191970" stroke="#191970" points="1283.7992,-140.7015 1289.2935,-131.6427 1279.3492,-135.298 1283.7992,-140.7015"/>
</g>
<!-- Node19 -->
<g id="node20" class="node">
<title>Node19</title>
<g id="a_node20"><a xlink:href="../../da/df0/ntv2virtualregisters_8h.html" target="_top" xlink:title="Declares enums for virtual registers used in all platform drivers and the SDK. ">
<polygon fill="#ffffff" stroke="#000000" points="1382.5024,-112.5 1382.5024,-131.5 1489.5024,-131.5 1489.5024,-112.5 1382.5024,-112.5"/>
<text text-anchor="middle" x="1436.0024" y="-119.5" font-family="Helvetica,sans-Serif" font-size="10.00" fill="#000000">ntv2virtualregisters.h</text>
</a>
</g>
</g>
<!-- Node4&#45;&gt;Node19 -->
<g id="edge22" class="edge">
<title>Node4&#45;&gt;Node19</title>
<path fill="none" stroke="#191970" d="M1267.8994,-168.3733C1302.0936,-158.9404 1354.3439,-144.5265 1391.5067,-134.2747"/>
<polygon fill="#191970" stroke="#191970" points="1392.8517,-137.5345 1401.5609,-131.5011 1390.9902,-130.7865 1392.8517,-137.5345"/>
</g>
<!-- Node6 -->
<g id="node7" class="node">
<title>Node6</title>
<g id="a_node7"><a xlink:href="../../db/d40/ntv2deprecate_8h.html" target="_top" xlink:title="Deprecation control macros. ">
<polygon fill="#ffffff" stroke="#000000" points="2045.0024,-.5 2045.0024,-19.5 2131.0024,-19.5 2131.0024,-.5 2045.0024,-.5"/>
<text text-anchor="middle" x="2088.0024" y="-7.5" font-family="Helvetica,sans-Serif" font-size="10.00" fill="#000000">ntv2deprecate.h</text>
</a>
</g>
</g>
<!-- Node5&#45;&gt;Node6 -->
<g id="edge6" class="edge">
<title>Node5&#45;&gt;Node6</title>
<path fill="none" stroke="#191970" d="M1426.1255,-63.485C1534.5743,-54.7215 1896.6913,-25.4595 2034.3093,-14.3388"/>
<polygon fill="#191970" stroke="#191970" points="2034.9139,-17.8015 2044.5994,-13.5073 2034.35,-10.8242 2034.9139,-17.8015"/>
</g>
<!-- Node7 -->
<g id="node8" class="node">
<title>Node7</title>
<polygon fill="#ffffff" stroke="#bfbfbf" points="1370.5024,-.5 1370.5024,-19.5 1419.5024,-19.5 1419.5024,-.5 1370.5024,-.5"/>
<text text-anchor="middle" x="1395.0024" y="-7.5" font-family="Helvetica,sans-Serif" font-size="10.00" fill="#000000">stdint.h</text>
</g>
<!-- Node5&#45;&gt;Node7 -->
<g id="edge7" class="edge">
<title>Node5&#45;&gt;Node7</title>
<path fill="none" stroke="#191970" d="M1395.0024,-56.2455C1395.0024,-48.9382 1395.0024,-38.6944 1395.0024,-29.7046"/>
<polygon fill="#191970" stroke="#191970" points="1398.5025,-29.6426 1395.0024,-19.6427 1391.5025,-29.6427 1398.5025,-29.6426"/>
</g>
<!-- Node8&#45;&gt;Node5 -->
<g id="edge9" class="edge">
<title>Node8&#45;&gt;Node5</title>
<path fill="none" stroke="#191970" d="M790.7301,-117.7441C807.3007,-115.8806 827.126,-113.7295 845.0024,-112 1034.9079,-93.6273 1262.1304,-76.0065 1353.7328,-69.0829"/>
<polygon fill="#191970" stroke="#191970" points="1354.2564,-72.5534 1363.9649,-68.3114 1353.73,-65.5732 1354.2564,-72.5534"/>
</g>
<!-- Node9 -->
<g id="node10" class="node">
<title>Node9</title>
<g id="a_node10"><a xlink:href="../../d6/db1/ntv2version_8h.html" target="_top" xlink:title="Defines for the NTV2 SDK version number, used by ajantv2/includes/ntv2enums.h. See the ajantv2/includ...">
<polygon fill="#ffffff" stroke="#000000" points="717.5024,-56.5 717.5024,-75.5 792.5024,-75.5 792.5024,-56.5 717.5024,-56.5"/>
<text text-anchor="middle" x="755.0024" y="-63.5" font-family="Helvetica,sans-Serif" font-size="10.00" fill="#000000">ntv2version.h</text>
</a>
</g>
</g>
<!-- Node8&#45;&gt;Node9 -->
<g id="edge10" class="edge">
<title>Node8&#45;&gt;Node9</title>
<path fill="none" stroke="#191970" d="M754.1766,-112.2455C754.3071,-104.9382 754.49,-94.6944 754.6506,-85.7046"/>
<polygon fill="#191970" stroke="#191970" points="758.1511,-85.7036 754.8303,-75.6427 751.1522,-85.5786 758.1511,-85.7036"/>
</g>
<!-- Node9&#45;&gt;Node10 -->
<g id="edge11" class="edge">
<title>Node9&#45;&gt;Node10</title>
<path fill="none" stroke="#191970" d="M717.2412,-58.6699C712.4504,-57.76 707.6131,-56.8511 703.0024,-56 626.6697,-41.9086 537.5613,-26.3326 485.9763,-17.4015"/>
<polygon fill="#191970" stroke="#191970" points="486.3156,-13.9083 475.8654,-15.6528 485.1227,-20.8059 486.3156,-13.9083"/>
</g>
<!-- Node9&#45;&gt;Node11 -->
<g id="edge12" class="edge">
<title>Node9&#45;&gt;Node11</title>
<path fill="none" stroke="#191970" d="M792.7147,-58.3774C797.5136,-57.5165 802.3663,-56.6991 807.0024,-56 951.5894,-34.1969 1125.7263,-18.4059 1195.2033,-12.5243"/>
<polygon fill="#191970" stroke="#191970" points="1195.7624,-15.9898 1205.4348,-11.666 1195.1772,-9.0143 1195.7624,-15.9898"/>
</g>
<!-- Node19&#45;&gt;Node5 -->
<g id="edge23" class="edge">
<title>Node19&#45;&gt;Node5</title>
<path fill="none" stroke="#191970" d="M1428.8608,-112.2455C1423.158,-104.4564 1415.0125,-93.3308 1408.14,-83.9439"/>
<polygon fill="#191970" stroke="#191970" points="1410.7937,-81.6437 1402.0623,-75.6427 1405.1457,-85.7789 1410.7937,-81.6437"/>
</g>
<!-- Node20&#45;&gt;Node19 -->
<g id="edge26" class="edge">
<title>Node20&#45;&gt;Node19</title>
<path fill="none" stroke="#191970" d="M1478.6044,-392.3269C1530.4712,-361.5204 1684.4836,-265.3096 1658.0024,-224 1623.3802,-169.9907 1552.1743,-144.1959 1499.6999,-132.1292"/>
<polygon fill="#191970" stroke="#191970" points="1500.3194,-128.682 1489.8023,-129.9633 1498.823,-135.5202 1500.3194,-128.682"/>
</g>
<!-- Node21 -->
<g id="node22" class="node">
<title>Node21</title>
<polygon fill="#ffffff" stroke="#bfbfbf" points="1348.0024,-336.5 1348.0024,-355.5 1434.0024,-355.5 1434.0024,-336.5 1348.0024,-336.5"/>
<text text-anchor="middle" x="1391.0024" y="-343.5" font-family="Helvetica,sans-Serif" font-size="10.00" fill="#000000">IOKit/IOKitLib.h</text>
</g>
<!-- Node20&#45;&gt;Node21 -->
<g id="edge25" class="edge">
<title>Node20&#45;&gt;Node21</title>
<path fill="none" stroke="#191970" d="M1449.6352,-392.2455C1439.047,-383.8943 1423.596,-371.7076 1411.2131,-361.9408"/>
<polygon fill="#191970" stroke="#191970" points="1413.2472,-359.0875 1403.228,-355.6427 1408.9121,-364.5837 1413.2472,-359.0875"/>
</g>
<!-- Node22&#45;&gt;Node4 -->
<g id="edge67" class="edge">
<title>Node22&#45;&gt;Node4</title>
<path fill="none" stroke="#191970" d="M1674.1417,-392.3265C1690.9011,-379.6094 1715.1212,-356.4785 1703.0024,-336 1696.4179,-324.8733 1511.2057,-228.271 1499.0024,-224 1432.2,-200.6199 1351.646,-188.8164 1296.8116,-183.0673"/>
<polygon fill="#191970" stroke="#191970" points="1296.8418,-179.5526 1286.5406,-182.0297 1296.1382,-186.5172 1296.8418,-179.5526"/>
</g>
<!-- Node22&#45;&gt;Node5 -->
<g id="edge28" class="edge">
<title>Node22&#45;&gt;Node5</title>
<path fill="none" stroke="#191970" d="M1712.5166,-399.1428C1772.333,-394.6727 1872.353,-383.4728 1954.0024,-356 2008.2622,-337.7431 2070.3469,-335.9021 2058.0024,-280 2037.9916,-189.3804 2016.8032,-153.9092 1934.0024,-112 1911.866,-100.7957 1558.9344,-76.7404 1436.469,-68.6884"/>
<polygon fill="#191970" stroke="#191970" points="1436.5697,-65.1876 1426.3622,-68.0259 1436.1118,-72.1726 1436.5697,-65.1876"/>
</g>
<!-- Node22&#45;&gt;Node8 -->
<g id="edge29" class="edge">
<title>Node22&#45;&gt;Node8</title>
<path fill="none" stroke="#191970" d="M1647.0657,-392.4028C1601.3015,-358.6249 1446.7765,-246.082 1390.0024,-224 1386.5276,-222.6485 946.99,-152.6864 800.7303,-129.428"/>
<polygon fill="#191970" stroke="#191970" points="801.1421,-125.9496 790.7165,-127.8357 800.0427,-132.8628 801.1421,-125.9496"/>
</g>
<!-- Node22&#45;&gt;Node11 -->
<g id="edge77" class="edge">
<title>Node22&#45;&gt;Node11</title>
<path fill="none" stroke="#191970" d="M1652.6205,-392.4183C1646.2752,-383.5336 1637.5964,-369.6624 1634.0024,-356 1631.7411,-347.4036 1632.2324,-344.7109 1634.0024,-336 1642.8462,-292.4784 1658.5554,-285.9956 1673.0024,-244 1677.1934,-231.8176 1701.3214,-144.773 1703.0024,-132 1704.1623,-123.1871 1708.4343,-119.0362 1703.0024,-112 1675.1977,-75.983 1357.8863,-28.5503 1256.7625,-14.2545"/>
<polygon fill="#191970" stroke="#191970" points="1256.9838,-10.7513 1246.5941,-12.8259 1256.0099,-17.6832 1256.9838,-10.7513"/>
</g>
<!-- Node23 -->
<g id="node24" class="node">
<title>Node23</title>
<g id="a_node24"><a xlink:href="../../d8/de5/ntv2nubtypes_8h.html" target="_top" xlink:title="Declares data types and structures used in NTV2 &quot;nub&quot; packets. ">
<polygon fill="#ffffff" stroke="#000000" points="1703.5024,-168.5 1703.5024,-187.5 1786.5024,-187.5 1786.5024,-168.5 1703.5024,-168.5"/>
<text text-anchor="middle" x="1745.0024" y="-175.5" font-family="Helvetica,sans-Serif" font-size="10.00" fill="#000000">ntv2nubtypes.h</text>
</a>
</g>
</g>
<!-- Node22&#45;&gt;Node23 -->
<g id="edge30" class="edge">
<title>Node22&#45;&gt;Node23</title>
<path fill="none" stroke="#191970" d="M1682.073,-392.4805C1698.4828,-384.5592 1720.6049,-372.0052 1736.0024,-356 1755.7252,-335.4988 1759.8874,-327.5438 1767.0024,-300 1775.4505,-267.2957 1774.4744,-256.941 1767.0024,-224 1764.8585,-214.548 1760.5245,-204.7672 1756.2658,-196.6675"/>
<polygon fill="#191970" stroke="#191970" points="1759.2095,-194.7615 1751.2607,-187.7567 1753.1064,-198.1895 1759.2095,-194.7615"/>
</g>
<!-- Node25 -->
<g id="node26" class="node">
<title>Node25</title>
<g id="a_node26"><a xlink:href="../../d6/d8f/ntv2nubaccess_8h.html" target="_top" xlink:title="Declares NTV2 &quot;nub&quot; client functions. ">
<polygon fill="#ffffff" stroke="#000000" points="1826.5024,-336.5 1826.5024,-355.5 1917.5024,-355.5 1917.5024,-336.5 1826.5024,-336.5"/>
<text text-anchor="middle" x="1872.0024" y="-343.5" font-family="Helvetica,sans-Serif" font-size="10.00" fill="#000000">ntv2nubaccess.h</text>
</a>
</g>
</g>
<!-- Node22&#45;&gt;Node25 -->
<g id="edge34" class="edge">
<title>Node22&#45;&gt;Node25</title>
<path fill="none" stroke="#191970" d="M1696.4465,-392.3733C1732.3094,-382.9001 1787.1903,-368.4032 1826.0307,-358.1435"/>
<polygon fill="#191970" stroke="#191970" points="1827.2594,-361.439 1836.0339,-355.5011 1825.4716,-354.6712 1827.2594,-361.439"/>
</g>
<!-- Node22&#45;&gt;Node26 -->
<g id="edge68" class="edge">
<title>Node22&#45;&gt;Node26</title>
<path fill="none" stroke="#191970" d="M1639.574,-392.4516C1602.485,-375.1625 1526.7175,-340.0751 1514.0024,-336 1448.93,-315.1448 1370.4223,-301.9654 1323.4444,-295.2952"/>
<polygon fill="#191970" stroke="#191970" points="1323.7325,-291.8017 1313.3461,-293.893 1322.7696,-298.7351 1323.7325,-291.8017"/>
</g>
<!-- Node30 -->
<g id="node31" class="node">
<title>Node30</title>
<g id="a_node31"><a xlink:href="../../dd/d42/lock_8h.html" target="_top" xlink:title="Declares the AJALock class. ">
<polygon fill="#ffffff" stroke="#000000" points="1933.5024,-280.5 1933.5024,-299.5 2048.5024,-299.5 2048.5024,-280.5 1933.5024,-280.5"/>
<text text-anchor="middle" x="1991.0024" y="-287.5" font-family="Helvetica,sans-Serif" font-size="10.00" fill="#000000">ajabase/system/lock.h</text>
</a>
</g>
</g>
<!-- Node22&#45;&gt;Node30 -->
<g id="edge76" class="edge">
<title>Node22&#45;&gt;Node30</title>
<path fill="none" stroke="#191970" d="M1712.6329,-396.8382C1779.5185,-389.6129 1890.6568,-375.1858 1927.0024,-356 1948.4771,-344.6641 1967.0313,-323.4914 1978.5516,-308.1776"/>
<polygon fill="#191970" stroke="#191970" points="1981.4716,-310.1124 1984.4907,-299.9568 1975.7975,-306.0131 1981.4716,-310.1124"/>
</g>
<!-- Node22&#45;&gt;Node36 -->
<g id="edge69" class="edge">
<title>Node22&#45;&gt;Node36</title>
<path fill="none" stroke="#191970" d="M1630.2257,-392.4611C1579.6862,-376.3523 1479.0906,-344.6632 1443.0024,-336 1438.6816,-334.9628 1132.4121,-280.5482 1128.0024,-280 1017.2137,-266.2275 688.581,-245.9835 548.9344,-237.7195"/>
<polygon fill="#191970" stroke="#191970" points="549.0008,-234.2174 538.8119,-237.1219 548.5882,-241.2053 549.0008,-234.2174"/>
</g>
<!-- Node38 -->
<g id="node39" class="node">
<title>Node38</title>
<polygon fill="#ffffff" stroke="#bfbfbf" points="1642.5024,-336.5 1642.5024,-355.5 1693.5024,-355.5 1693.5024,-336.5 1642.5024,-336.5"/>
<text text-anchor="middle" x="1668.0024" y="-343.5" font-family="Helvetica,sans-Serif" font-size="10.00" fill="#000000">unistd.h</text>
</g>
<!-- Node22&#45;&gt;Node38 -->
<g id="edge78" class="edge">
<title>Node22&#45;&gt;Node38</title>
<path fill="none" stroke="#191970" d="M1661.3959,-392.2455C1662.4398,-384.9382 1663.9033,-374.6944 1665.1875,-365.7046"/>
<polygon fill="#191970" stroke="#191970" points="1668.6754,-366.0372 1666.6249,-355.6427 1661.7458,-365.0472 1668.6754,-366.0372"/>
</g>
<!-- Node23&#45;&gt;Node15 -->
<g id="edge33" class="edge">
<title>Node23&#45;&gt;Node15</title>
<path fill="none" stroke="#191970" d="M1772.1636,-168.3733C1799.6298,-158.6384 1842.0637,-143.5985 1871.1112,-133.3032"/>
<polygon fill="#191970" stroke="#191970" points="1872.5247,-136.5157 1880.7809,-129.876 1870.1861,-129.9178 1872.5247,-136.5157"/>
</g>
<!-- Node24 -->
<g id="node25" class="node">
<title>Node24</title>
<g id="a_node25"><a xlink:href="../../d4/d18/ntv2endian_8h.html" target="_top" xlink:title="Defines a number of handy byte&#45;swapping macros. ">
<polygon fill="#ffffff" stroke="#000000" points="1622.0024,-112.5 1622.0024,-131.5 1694.0024,-131.5 1694.0024,-112.5 1622.0024,-112.5"/>
<text text-anchor="middle" x="1658.0024" y="-119.5" font-family="Helvetica,sans-Serif" font-size="10.00" fill="#000000">ntv2endian.h</text>
</a>
</g>
</g>
<!-- Node23&#45;&gt;Node24 -->
<g id="edge31" class="edge">
<title>Node23&#45;&gt;Node24</title>
<path fill="none" stroke="#191970" d="M1729.8482,-168.2455C1716.4997,-159.6534 1696.8438,-147.0014 1681.4642,-137.1018"/>
<polygon fill="#191970" stroke="#191970" points="1683.2861,-134.1121 1672.983,-131.6427 1679.4973,-139.9982 1683.2861,-134.1121"/>
</g>
<!-- Node24&#45;&gt;Node5 -->
<g id="edge32" class="edge">
<title>Node24&#45;&gt;Node5</title>
<path fill="none" stroke="#191970" d="M1621.9849,-114.3309C1573.4191,-103.9899 1487.1548,-85.6218 1436.1073,-74.7524"/>
<polygon fill="#191970" stroke="#191970" points="1436.5917,-71.2771 1426.082,-72.6177 1435.1338,-78.1236 1436.5917,-71.2771"/>
</g>
<!-- Node25&#45;&gt;Node11 -->
<g id="edge64" class="edge">
<title>Node25&#45;&gt;Node11</title>
<path fill="none" stroke="#191970" d="M1870.9951,-336.4806C1865.9817,-294.4529 1839.6571,-124.5754 1736.0024,-56 1725.9344,-49.3392 1365.6139,-20.8516 1256.8056,-12.3832"/>
<polygon fill="#191970" stroke="#191970" points="1257.0358,-8.8906 1246.7947,-11.6054 1256.4935,-15.8696 1257.0358,-8.8906"/>
</g>
<!-- Node25&#45;&gt;Node14 -->
<g id="edge66" class="edge">
<title>Node25&#45;&gt;Node14</title>
<path fill="none" stroke="#191970" d="M1876.9549,-336.4524C1888.3716,-314.9566 1918.1678,-261.6999 1952.0024,-224 1983.3137,-189.1118 2026.9986,-156.0436 2053.2878,-137.46"/>
<polygon fill="#191970" stroke="#191970" points="2055.6144,-140.1044 2061.8124,-131.5116 2051.6087,-134.3638 2055.6144,-140.1044"/>
</g>
<!-- Node25&#45;&gt;Node15 -->
<g id="edge65" class="edge">
<title>Node25&#45;&gt;Node15</title>
<path fill="none" stroke="#191970" d="M1873.3345,-336.375C1878.0345,-302.4133 1893.9035,-187.7472 1900.2984,-141.5392"/>
<polygon fill="#191970" stroke="#191970" points="1903.7714,-141.9746 1901.6754,-131.5891 1896.8375,-141.0149 1903.7714,-141.9746"/>
</g>
<!-- Node25&#45;&gt;Node26 -->
<g id="edge35" class="edge">
<title>Node25&#45;&gt;Node26</title>
<path fill="none" stroke="#191970" d="M1826.1425,-341.2394C1809.7005,-339.554 1791.0235,-337.6641 1774.0024,-336 1606.967,-319.6695 1407.9036,-301.4348 1323.3098,-293.7431"/>
<polygon fill="#191970" stroke="#191970" points="1323.371,-290.2343 1313.0953,-292.815 1322.7375,-297.2056 1323.371,-290.2343"/>
</g>
<!-- Node25&#45;&gt;Node30 -->
<g id="edge54" class="edge">
<title>Node25&#45;&gt;Node30</title>
<path fill="none" stroke="#191970" d="M1892.4593,-336.3733C1911.4762,-327.4241 1940.02,-313.9917 1961.5,-303.8835"/>
<polygon fill="#191970" stroke="#191970" points="1963.2547,-306.926 1970.8126,-299.5011 1960.2741,-300.5923 1963.2547,-306.926"/>
</g>
<!-- Node26&#45;&gt;Node4 -->
<g id="edge41" class="edge">
<title>Node26&#45;&gt;Node4</title>
<path fill="none" stroke="#191970" d="M1272.513,-280.2584C1264.5045,-271.4832 1253.3572,-257.8664 1247.0024,-244 1240.2925,-229.3585 1236.7517,-211.4051 1234.9114,-197.9213"/>
<polygon fill="#191970" stroke="#191970" points="1238.3679,-197.3444 1233.7333,-187.8171 1231.415,-198.1552 1238.3679,-197.3444"/>
</g>
<!-- Node26&#45;&gt;Node5 -->
<g id="edge37" class="edge">
<title>Node26&#45;&gt;Node5</title>
<path fill="none" stroke="#191970" d="M1313.0772,-280.6356C1335.6626,-272.9401 1366.2993,-260.6028 1390.0024,-244 1427.8629,-217.4807 1428.4312,-200.7994 1461.0024,-168 1477.3954,-151.4922 1489.81,-153.3713 1499.0024,-132 1512.1917,-101.3368 1470.6325,-83.5292 1436.1853,-74.3001"/>
<polygon fill="#191970" stroke="#191970" points="1436.8022,-70.8466 1426.2516,-71.8136 1435.1025,-77.6371 1436.8022,-70.8466"/>
</g>
<!-- Node26&#45;&gt;Node8 -->
<g id="edge38" class="edge">
<title>Node26&#45;&gt;Node8</title>
<path fill="none" stroke="#191970" d="M1250.9252,-287.0698C1167.7086,-279.0908 944.0242,-256.7245 913.0024,-244 853.2329,-219.4838 796.5236,-166.3539 769.8762,-139.0126"/>
<polygon fill="#191970" stroke="#191970" points="772.3356,-136.5204 762.8897,-131.722 767.2816,-141.3637 772.3356,-136.5204"/>
</g>
<!-- Node26&#45;&gt;Node10 -->
<g id="edge36" class="edge">
<title>Node26&#45;&gt;Node10</title>
<path fill="none" stroke="#191970" d="M1250.8946,-286.2303C1235.0628,-284.3286 1215.5115,-282.006 1198.0024,-280 1052.7413,-263.3578 1010.4662,-287.9048 871.0024,-244 702.353,-190.9072 524.1135,-68.774 464.1004,-25.5267"/>
<polygon fill="#191970" stroke="#191970" points="465.9591,-22.5511 455.8101,-19.5101 461.8476,-28.2163 465.9591,-22.5511"/>
</g>
<!-- Node26&#45;&gt;Node11 -->
<g id="edge51" class="edge">
<title>Node26&#45;&gt;Node11</title>
<path fill="none" stroke="#191970" d="M1313.067,-288.5197C1399.0287,-284.1078 1635.2279,-269.7306 1658.0024,-244 1663.8939,-237.3439 1661.3857,-232.2199 1658.0024,-224 1591.1833,-61.6558 1343.849,-21.6797 1256.6638,-12.5342"/>
<polygon fill="#191970" stroke="#191970" points="1256.9101,-9.0416 1246.6151,-11.5441 1256.2237,-16.0078 1256.9101,-9.0416"/>
</g>
<!-- Node26&#45;&gt;Node12 -->
<g id="edge52" class="edge">
<title>Node26&#45;&gt;Node12</title>
<path fill="none" stroke="#191970" d="M1250.9596,-286.1908C1163.5131,-275.4433 921.3749,-245.5579 920.0024,-244 914.1266,-237.3302 918.3635,-232.7365 920.0024,-224 923.1678,-207.1271 930.8371,-204.8729 934.0024,-188 935.6414,-179.2635 935.8125,-176.7026 934.0024,-168 932.061,-158.6655 928.1221,-148.9017 924.2493,-140.783"/>
<polygon fill="#191970" stroke="#191970" points="927.3511,-139.161 919.6969,-131.8354 921.1122,-142.3353 927.3511,-139.161"/>
</g>
<!-- Node26&#45;&gt;Node15 -->
<g id="edge53" class="edge">
<title>Node26&#45;&gt;Node15</title>
<path fill="none" stroke="#191970" d="M1278.0306,-280.4686C1272.7865,-266.1793 1265.7722,-239.2576 1280.0024,-224 1319.2021,-181.9702 1741.2899,-205.5969 1796.0024,-188 1829.6365,-177.1825 1863.5176,-153.6563 1883.8852,-137.8186"/>
<polygon fill="#191970" stroke="#191970" points="1886.1022,-140.5273 1891.7467,-131.5612 1881.7429,-135.0504 1886.1022,-140.5273"/>
</g>
<!-- Node27 -->
<g id="node28" class="node">
<title>Node27</title>
<g id="a_node28"><a xlink:href="../../d9/d61/ntv2videodefines_8h.html" target="_top" xlink:title="Declares common video macros and structs used in the SDK. ">
<polygon fill="#ffffff" stroke="#000000" points="1551.0024,-224.5 1551.0024,-243.5 1649.0024,-243.5 1649.0024,-224.5 1551.0024,-224.5"/>
<text text-anchor="middle" x="1600.0024" y="-231.5" font-family="Helvetica,sans-Serif" font-size="10.00" fill="#000000">ntv2videodefines.h</text>
</a>
</g>
</g>
<!-- Node26&#45;&gt;Node27 -->
<g id="edge39" class="edge">
<title>Node26&#45;&gt;Node27</title>
<path fill="none" stroke="#191970" d="M1313.0726,-284.5285C1365.7699,-275.2485 1473.5044,-256.2764 1540.928,-244.403"/>
<polygon fill="#191970" stroke="#191970" points="1541.7385,-247.8143 1550.9799,-242.6329 1540.5244,-240.9203 1541.7385,-247.8143"/>
</g>
<!-- Node28 -->
<g id="node29" class="node">
<title>Node28</title>
<g id="a_node29"><a xlink:href="../../dc/df4/ntv2formatdescriptor_8h.html" target="_top" xlink:title="Declares the NTV2FormatDescriptor class. ">
<polygon fill="#ffffff" stroke="#000000" points="929.5024,-224.5 929.5024,-243.5 1042.5024,-243.5 1042.5024,-224.5 929.5024,-224.5"/>
<text text-anchor="middle" x="986.0024" y="-231.5" font-family="Helvetica,sans-Serif" font-size="10.00" fill="#000000">ntv2formatdescriptor.h</text>
</a>
</g>
</g>
<!-- Node26&#45;&gt;Node28 -->
<g id="edge42" class="edge">
<title>Node26&#45;&gt;Node28</title>
<path fill="none" stroke="#191970" d="M1250.8847,-284.1129C1202.517,-274.9622 1108.4225,-257.1605 1046.3981,-245.4262"/>
<polygon fill="#191970" stroke="#191970" points="1046.8274,-241.9454 1036.351,-243.5254 1045.5261,-248.8234 1046.8274,-241.9454"/>
</g>
<!-- Node29 -->
<g id="node30" class="node">
<title>Node29</title>
<g id="a_node30"><a xlink:href="../../de/d26/ntv2m31enums_8h.html" target="_top" xlink:title="ntv2m31enums.h">
<polygon fill="#ffffff" stroke="#000000" points="1289.0024,-224.5 1289.0024,-243.5 1381.0024,-243.5 1381.0024,-224.5 1289.0024,-224.5"/>
<text text-anchor="middle" x="1335.0024" y="-231.5" font-family="Helvetica,sans-Serif" font-size="10.00" fill="#000000">ntv2m31enums.h</text>
</a>
</g>
</g>
<!-- Node26&#45;&gt;Node29 -->
<g id="edge50" class="edge">
<title>Node26&#45;&gt;Node29</title>
<path fill="none" stroke="#191970" d="M1291.2343,-280.2455C1298.8342,-272.2155 1309.7902,-260.6394 1318.8392,-251.0781"/>
<polygon fill="#191970" stroke="#191970" points="1321.5445,-253.3115 1325.8763,-243.6427 1316.4604,-248.4998 1321.5445,-253.3115"/>
</g>
<!-- Node27&#45;&gt;Node5 -->
<g id="edge40" class="edge">
<title>Node27&#45;&gt;Node5</title>
<path fill="none" stroke="#191970" d="M1557.5873,-224.4524C1524.0849,-215.9508 1481.3129,-202.6229 1471.0024,-188 1443.452,-148.9262 1523.42,-147.0306 1532.0024,-132 1536.4101,-124.2808 1537.192,-119.2167 1532.0024,-112 1520.5548,-96.0805 1472.014,-82.4525 1435.9432,-74.2523"/>
<polygon fill="#191970" stroke="#191970" points="1436.661,-70.8266 1426.1413,-72.086 1435.1503,-77.6616 1436.661,-70.8266"/>
</g>
<!-- Node28&#45;&gt;Node4 -->
<g id="edge46" class="edge">
<title>Node28&#45;&gt;Node4</title>
<path fill="none" stroke="#191970" d="M1028.1826,-224.4369C1070.4548,-214.8529 1135.6086,-200.0812 1181.0442,-189.78"/>
<polygon fill="#191970" stroke="#191970" points="1182.0177,-193.1482 1190.9963,-187.5237 1180.4699,-186.3215 1182.0177,-193.1482"/>
</g>
<!-- Node28&#45;&gt;Node5 -->
<g id="edge44" class="edge">
<title>Node28&#45;&gt;Node5</title>
<path fill="none" stroke="#191970" d="M1029.4987,-224.4852C1064.9726,-215.8554 1111.2278,-202.3244 1124.0024,-188 1146.9771,-162.2382 1115.2428,-136.0513 1140.0024,-112 1169.8044,-83.0507 1289.3609,-71.929 1353.6313,-67.9798"/>
<polygon fill="#191970" stroke="#191970" points="1354.0469,-71.4616 1363.826,-67.3851 1353.6392,-64.4735 1354.0469,-71.4616"/>
</g>
<!-- Node28&#45;&gt;Node8 -->
<g id="edge45" class="edge">
<title>Node28&#45;&gt;Node8</title>
<path fill="none" stroke="#191970" d="M966.2223,-224.4509C925.216,-204.6548 830.7826,-159.0663 782.9274,-135.9638"/>
<polygon fill="#191970" stroke="#191970" points="784.2597,-132.7205 773.7326,-131.5249 781.2165,-139.0244 784.2597,-132.7205"/>
</g>
<!-- Node28&#45;&gt;Node10 -->
<g id="edge43" class="edge">
<title>Node28&#45;&gt;Node10</title>
<path fill="none" stroke="#191970" d="M998.9216,-224.4279C1014.2592,-211.8203 1036.5167,-188.8077 1026.0024,-168 975.6239,-68.3013 909.4074,-82.9481 801.0024,-56 689.305,-28.2334 553.5998,-16.6311 485.8354,-12.2915"/>
<polygon fill="#191970" stroke="#191970" points="485.754,-8.7798 475.5571,-11.656 485.322,-15.7665 485.754,-8.7798"/>
</g>
<!-- Node28&#45;&gt;Node11 -->
<g id="edge47" class="edge">
<title>Node28&#45;&gt;Node11</title>
<path fill="none" stroke="#191970" d="M1022.1742,-224.4143C1043.0719,-217.3018 1068.5871,-205.7164 1086.0024,-188 1130.924,-142.3018 1100.9464,-103.46 1144.0024,-56 1158.1216,-40.4367 1178.7765,-28.8936 1195.8235,-21.2631"/>
<polygon fill="#191970" stroke="#191970" points="1197.5234,-24.3442 1205.3669,-17.2217 1194.7937,-17.8984 1197.5234,-24.3442"/>
</g>
<!-- Node28&#45;&gt;Node12 -->
<g id="edge48" class="edge">
<title>Node28&#45;&gt;Node12</title>
<path fill="none" stroke="#191970" d="M994.5495,-224.4671C1005.4465,-211.0993 1021.5668,-186.3647 1010.0024,-168 1003.0781,-157.0039 974.7932,-144.2081 950.7046,-134.9078"/>
<polygon fill="#191970" stroke="#191970" points="951.6458,-131.5224 941.0538,-131.2766 949.1806,-138.074 951.6458,-131.5224"/>
</g>
<!-- Node28&#45;&gt;Node15 -->
<g id="edge49" class="edge">
<title>Node28&#45;&gt;Node15</title>
<path fill="none" stroke="#191970" d="M1042.6729,-227.0784C1216.0376,-205.9041 1735.6505,-142.4399 1870.6601,-125.9502"/>
<polygon fill="#191970" stroke="#191970" points="1871.2662,-129.4023 1880.7681,-124.7156 1870.4175,-122.4539 1871.2662,-129.4023"/>
</g>
<!-- Node31 -->
<g id="node32" class="node">
<title>Node31</title>
<g id="a_node32"><a xlink:href="../../d4/d79/public_8h.html" target="_top" xlink:title="Master header for the ajabase library. ">
<polygon fill="#ffffff" stroke="#000000" points="2407.0024,-168.5 2407.0024,-187.5 2535.0024,-187.5 2535.0024,-168.5 2407.0024,-168.5"/>
<text text-anchor="middle" x="2471.0024" y="-175.5" font-family="Helvetica,sans-Serif" font-size="10.00" fill="#000000">ajabase/common/public.h</text>
</a>
</g>
</g>
<!-- Node30&#45;&gt;Node31 -->
<g id="edge55" class="edge">
<title>Node30&#45;&gt;Node31</title>
<path fill="none" stroke="#191970" d="M1980.8344,-280.4005C1967.317,-266.5042 1946.8064,-240.6313 1962.0024,-224 1990.6938,-192.5988 2261.9836,-182.4303 2396.3421,-179.3042"/>
<polygon fill="#191970" stroke="#191970" points="2396.639,-182.7985 2406.5576,-179.074 2396.4812,-175.8003 2396.639,-182.7985"/>
</g>
<!-- Node35 -->
<g id="node36" class="node">
<title>Node35</title>
<polygon fill="#ffffff" stroke="#bfbfbf" points="1971.0024,-224.5 1971.0024,-243.5 2023.0024,-243.5 2023.0024,-224.5 1971.0024,-224.5"/>
<text text-anchor="middle" x="1997.0024" y="-231.5" font-family="Helvetica,sans-Serif" font-size="10.00" fill="#000000">assert.h</text>
</g>
<!-- Node30&#45;&gt;Node35 -->
<g id="edge63" class="edge">
<title>Node30&#45;&gt;Node35</title>
<path fill="none" stroke="#191970" d="M1992.0476,-280.2455C1992.8305,-272.9382 1993.9281,-262.6944 1994.8912,-253.7046"/>
<polygon fill="#191970" stroke="#191970" points="1998.384,-253.9587 1995.9693,-243.6427 1991.4238,-253.2129 1998.384,-253.9587"/>
</g>
<!-- Node31&#45;&gt;Node11 -->
<g id="edge57" class="edge">
<title>Node31&#45;&gt;Node11</title>
<path fill="none" stroke="#191970" d="M2430.4131,-168.4159C2373.4798,-155.0945 2266.6019,-130.5318 2175.0024,-112 2038.6322,-84.4105 2005.0424,-73.4071 1867.0024,-56 1643.3166,-27.7927 1585.8678,-36.3275 1361.0024,-20 1325.2033,-17.4006 1284.07,-14.3436 1256.7087,-12.3001"/>
<polygon fill="#191970" stroke="#191970" points="1256.8184,-8.7986 1246.5853,-11.5434 1256.2965,-15.7792 1256.8184,-8.7986"/>
</g>
<!-- Node31&#45;&gt;Node14 -->
<g id="edge60" class="edge">
<title>Node31&#45;&gt;Node14</title>
<path fill="none" stroke="#191970" d="M2406.6525,-169.61C2314.7287,-157.5919 2153.9047,-136.432 2127.0024,-132 2119.4991,-130.7639 2111.4085,-129.2578 2103.9306,-127.7935"/>
<polygon fill="#191970" stroke="#191970" points="2104.3848,-124.315 2093.8922,-125.7837 2103.0105,-131.1788 2104.3848,-124.315"/>
</g>
<!-- Node31&#45;&gt;Node15 -->
<g id="edge59" class="edge">
<title>Node31&#45;&gt;Node15</title>
<path fill="none" stroke="#191970" d="M2406.9497,-171.6849C2285.55,-159.716 2025.9923,-134.1258 1935.1789,-125.1723"/>
<polygon fill="#191970" stroke="#191970" points="1935.4998,-121.6871 1925.2046,-124.1889 1934.813,-128.6533 1935.4998,-121.6871"/>
</g>
<!-- Node32 -->
<g id="node33" class="node">
<title>Node32</title>
<g id="a_node33"><a xlink:href="../../db/db5/export_8h.html" target="_top" xlink:title="Declares system&#45;dependent import/export macros and libraries. ">
<polygon fill="#ffffff" stroke="#000000" points="2417.5024,-112.5 2417.5024,-131.5 2546.5024,-131.5 2546.5024,-112.5 2417.5024,-112.5"/>
<text text-anchor="middle" x="2482.0024" y="-119.5" font-family="Helvetica,sans-Serif" font-size="10.00" fill="#000000">ajabase/common/export.h</text>
</a>
</g>
</g>
<!-- Node31&#45;&gt;Node32 -->
<g id="edge56" class="edge">
<title>Node31&#45;&gt;Node32</title>
<path fill="none" stroke="#191970" d="M2472.9185,-168.2455C2474.3539,-160.9382 2476.3661,-150.6944 2478.1319,-141.7046"/>
<polygon fill="#191970" stroke="#191970" points="2481.6152,-142.1298 2480.1084,-131.6427 2474.7464,-140.7805 2481.6152,-142.1298"/>
</g>
<!-- Node33 -->
<g id="node34" class="node">
<title>Node33</title>
<polygon fill="#ffffff" stroke="#bfbfbf" points="2331.5024,-112.5 2331.5024,-131.5 2360.5024,-131.5 2360.5024,-112.5 2331.5024,-112.5"/>
<text text-anchor="middle" x="2346.0024" y="-119.5" font-family="Helvetica,sans-Serif" font-size="10.00" fill="#000000">list</text>
</g>
<!-- Node31&#45;&gt;Node33 -->
<g id="edge58" class="edge">
<title>Node31&#45;&gt;Node33</title>
<path fill="none" stroke="#191970" d="M2449.5142,-168.3733C2427.381,-158.4576 2392.9625,-143.0381 2369.9636,-132.7346"/>
<polygon fill="#191970" stroke="#191970" points="2371.1374,-129.4253 2360.5804,-128.5309 2368.2755,-135.8136 2371.1374,-129.4253"/>
</g>
<!-- Node34 -->
<g id="node35" class="node">
<title>Node34</title>
<g id="a_node35"><a xlink:href="../../d9/d49/types_8h.html" target="_top" xlink:title="Declares common types used in the ajabase library. ">
<polygon fill="#ffffff" stroke="#000000" points="2603.0024,-56.5 2603.0024,-75.5 2729.0024,-75.5 2729.0024,-56.5 2603.0024,-56.5"/>
<text text-anchor="middle" x="2666.0024" y="-63.5" font-family="Helvetica,sans-Serif" font-size="10.00" fill="#000000">ajabase/common/types.h</text>
</a>
</g>
</g>
<!-- Node31&#45;&gt;Node34 -->
<g id="edge61" class="edge">
<title>Node31&#45;&gt;Node34</title>
<path fill="none" stroke="#191970" d="M2450.5901,-168.4802C2426.3979,-155.9292 2391.4462,-132.9777 2409.0024,-112 2432.0727,-84.4338 2525.2073,-73.3681 2592.7322,-68.9383"/>
<polygon fill="#191970" stroke="#191970" points="2593.1516,-72.4191 2602.9159,-68.3072 2592.7186,-65.4325 2593.1516,-72.4191"/>
</g>
<!-- Node34&#45;&gt;Node6 -->
<g id="edge62" class="edge">
<title>Node34&#45;&gt;Node6</title>
<path fill="none" stroke="#191970" d="M2602.9936,-57.6211C2598.2615,-57.0518 2593.5579,-56.5048 2589.0024,-56 2426.2068,-37.9617 2233.0874,-21.6675 2141.421,-14.2412"/>
<polygon fill="#191970" stroke="#191970" points="2141.5316,-10.7388 2131.2823,-13.4225 2140.9681,-17.7161 2141.5316,-10.7388"/>
</g>
<!-- Node36&#45;&gt;Node5 -->
<g id="edge71" class="edge">
<title>Node36&#45;&gt;Node5</title>
<path fill="none" stroke="#191970" d="M493.6853,-224.2428C506.6748,-210.1502 532.4877,-184.0351 559.0024,-168 619.5382,-131.3904 638.859,-126.9676 708.0024,-112 832.2932,-85.0946 1224.5417,-71.1373 1353.4774,-67.1906"/>
<polygon fill="#191970" stroke="#191970" points="1353.8257,-70.6817 1363.7154,-66.8814 1353.6143,-63.6849 1353.8257,-70.6817"/>
</g>
<!-- Node36&#45;&gt;Node8 -->
<g id="edge72" class="edge">
<title>Node36&#45;&gt;Node8</title>
<path fill="none" stroke="#191970" d="M499.6082,-224.3636C521.2386,-210.4213 563.3989,-184.4917 602.0024,-168 636.285,-153.3543 676.7572,-141.3469 707.3164,-133.2765"/>
<polygon fill="#191970" stroke="#191970" points="708.4761,-136.5916 717.2767,-130.6925 706.7182,-129.8159 708.4761,-136.5916"/>
</g>
<!-- Node36&#45;&gt;Node10 -->
<g id="edge70" class="edge">
<title>Node36&#45;&gt;Node10</title>
<path fill="none" stroke="#191970" d="M431.4766,-230.4972C372.6949,-225.4037 283.8442,-213.603 263.0024,-188 208.6373,-121.2152 342.9435,-52.3861 408.9532,-23.7667"/>
<polygon fill="#191970" stroke="#191970" points="410.7149,-26.8208 418.5443,-19.6828 407.9725,-20.3803 410.7149,-26.8208"/>
</g>
<!-- Node37 -->
<g id="node38" class="node">
<title>Node37</title>
<g id="a_node38"><a xlink:href="../../d9/dfb/ntv2devicefeatures_8hh.html" target="_top" xlink:title="Declares NTV2DeviceCanDo... and NTV2DeviceGetNum... functions. This module is included at compile tim...">
<polygon fill="#ffffff" stroke="#000000" points="398.5024,-168.5 398.5024,-187.5 511.5024,-187.5 511.5024,-168.5 398.5024,-168.5"/>
<text text-anchor="middle" x="455.0024" y="-175.5" font-family="Helvetica,sans-Serif" font-size="10.00" fill="#000000">ntv2devicefeatures.hh</text>
</a>
</g>
</g>
<!-- Node36&#45;&gt;Node37 -->
<g id="edge73" class="edge">
<title>Node36&#45;&gt;Node37</title>
<path fill="none" stroke="#191970" d="M479.7768,-224.2455C475.6901,-216.617 469.8889,-205.7881 464.9275,-196.5267"/>
<polygon fill="#191970" stroke="#191970" points="467.9756,-194.8047 460.1682,-187.6427 461.8052,-198.1103 467.9756,-194.8047"/>
</g>
<!-- Node37&#45;&gt;Node8 -->
<g id="edge75" class="edge">
<title>Node37&#45;&gt;Node8</title>
<path fill="none" stroke="#191970" d="M506.0626,-168.4369C562.4725,-157.8718 652.5426,-141.0025 707.1909,-130.7674"/>
<polygon fill="#191970" stroke="#191970" points="708.1123,-134.1557 717.2971,-128.8746 706.8236,-127.2754 708.1123,-134.1557"/>
</g>
<!-- Node37&#45;&gt;Node10 -->
<g id="edge74" class="edge">
<title>Node37&#45;&gt;Node10</title>
<path fill="none" stroke="#191970" d="M454.3229,-168.4862C452.426,-141.9293 447.0428,-66.5651 444.4428,-30.1655"/>
<polygon fill="#191970" stroke="#191970" points="447.9081,-29.5531 443.7044,-19.8279 440.9259,-30.0519 447.9081,-29.5531"/>
</g>
<!-- Node39&#45;&gt;Node4 -->
<g id="edge81" class="edge">
<title>Node39&#45;&gt;Node4</title>
<path fill="none" stroke="#191970" d="M2079.1875,-228.568C2064.1355,-226.9426 2047.3778,-225.2597 2032.0024,-224 1759.036,-201.6361 1432.7248,-186.4398 1297.0508,-180.6321"/>
<polygon fill="#191970" stroke="#191970" points="1296.9794,-177.1259 1286.8395,-180.1973 1296.6815,-184.1196 1296.9794,-177.1259"/>
</g>
<!-- Node39&#45;&gt;Node10 -->
<g id="edge80" class="edge">
<title>Node39&#45;&gt;Node10</title>
<path fill="none" stroke="#191970" d="M2108.6395,-224.4731C2093.5485,-215.8356 2071.4341,-202.3 2054.0024,-188 2017.7922,-158.2949 2023.0964,-132.5349 1981.0024,-112 1843.2492,-44.7992 720.2544,-16.1863 485.8041,-10.9158"/>
<polygon fill="#191970" stroke="#191970" points="485.706,-7.4128 475.6305,-10.6893 485.5501,-14.4111 485.706,-7.4128"/>
</g>
<!-- Node39&#45;&gt;Node13 -->
<g id="edge83" class="edge">
<title>Node39&#45;&gt;Node13</title>
<path fill="none" stroke="#191970" d="M2128.1339,-224.4509C2132.2298,-206.1013 2141.2724,-165.5908 2146.6789,-141.3693"/>
<polygon fill="#191970" stroke="#191970" points="2150.1137,-142.0472 2148.8764,-131.5249 2143.2818,-140.5222 2150.1137,-142.0472"/>
</g>
<!-- Node39&#45;&gt;Node14 -->
<g id="edge84" class="edge">
<title>Node39&#45;&gt;Node14</title>
<path fill="none" stroke="#191970" d="M2103.2364,-224.3999C2088.5428,-216.8573 2070.6182,-204.8029 2062.0024,-188 2054.4334,-173.2385 2059.5239,-154.6101 2065.5833,-140.9112"/>
<polygon fill="#191970" stroke="#191970" points="2068.7263,-142.4513 2069.9997,-131.9333 2062.4451,-139.3615 2068.7263,-142.4513"/>
</g>
<!-- Node40 -->
<g id="node41" class="node">
<title>Node40</title>
<polygon fill="#ffffff" stroke="#bfbfbf" points="2071.0024,-168.5 2071.0024,-187.5 2123.0024,-187.5 2123.0024,-168.5 2071.0024,-168.5"/>
<text text-anchor="middle" x="2097.0024" y="-175.5" font-family="Helvetica,sans-Serif" font-size="10.00" fill="#000000">stddef.h</text>
</g>
<!-- Node39&#45;&gt;Node40 -->
<g id="edge82" class="edge">
<title>Node39&#45;&gt;Node40</title>
<path fill="none" stroke="#191970" d="M2120.951,-224.2455C2117.0006,-216.617 2111.3927,-205.7881 2106.5967,-196.5267"/>
<polygon fill="#191970" stroke="#191970" points="2109.7026,-194.9131 2101.996,-187.6427 2103.4866,-198.1321 2109.7026,-194.9131"/>
</g>
<!-- Node41&#45;&gt;Node22 -->
<g id="edge87" class="edge">
<title>Node41&#45;&gt;Node22</title>
<path fill="none" stroke="#191970" d="M1633.5764,-448.2455C1637.9356,-440.617 1644.1235,-429.7881 1649.4157,-420.5267"/>
<polygon fill="#191970" stroke="#191970" points="1652.5698,-422.0616 1654.4923,-411.6427 1646.4921,-418.5886 1652.5698,-422.0616"/>
</g>
<!-- Node42&#45;&gt;Node2 -->
<g id="edge94" class="edge">
<title>Node42&#45;&gt;Node2</title>
<path fill="none" stroke="#191970" d="M2136.7772,-565.177C2015.7882,-554.2136 1722.1942,-527.6096 1613.432,-517.7541"/>
<polygon fill="#191970" stroke="#191970" points="1613.4698,-514.2433 1603.1948,-516.8265 1612.8381,-521.2147 1613.4698,-514.2433"/>
</g>
<!-- Node42&#45;&gt;Node5 -->
<g id="edge92" class="edge">
<title>Node42&#45;&gt;Node5</title>
<path fill="none" stroke="#191970" d="M2195.5738,-560.2819C2215.8299,-525.6627 2289.0135,-406.6585 2377.0024,-336 2421.0169,-300.6547 2439.7834,-303.7314 2491.0024,-280 2583.8271,-236.9913 2645.9531,-273.5841 2702.0024,-188 2723.889,-154.5806 2671.7797,-119.009 2658.0024,-112 2602.3809,-83.703 1647.8974,-69.3682 1436.3156,-66.5302"/>
<polygon fill="#191970" stroke="#191970" points="1436.2887,-63.0296 1426.243,-66.3963 1436.1955,-70.029 1436.2887,-63.0296"/>
</g>
<!-- Node42&#45;&gt;Node15 -->
<g id="edge95" class="edge">
<title>Node42&#45;&gt;Node15</title>
<path fill="none" stroke="#191970" d="M2192.1068,-560.4719C2204.1292,-504.9004 2261.5604,-223.2042 2203.0024,-168 2183.6801,-149.7843 2008.7674,-131.7331 1935.2833,-124.8824"/>
<polygon fill="#191970" stroke="#191970" points="1935.4868,-121.3864 1925.2079,-123.9542 1934.8446,-128.3569 1935.4868,-121.3864"/>
</g>
<!-- Node43 -->
<g id="node44" class="node">
<title>Node43</title>
<g id="a_node44"><a xlink:href="../../dc/d1c/ntv2audiodefines_8h.html" target="_top" xlink:title="Declares common audio macros and structs used in the SDK. ">
<polygon fill="#ffffff" stroke="#000000" points="2069.0024,-504.5 2069.0024,-523.5 2167.0024,-523.5 2167.0024,-504.5 2069.0024,-504.5"/>
<text text-anchor="middle" x="2118.0024" y="-511.5" font-family="Helvetica,sans-Serif" font-size="10.00" fill="#000000">ntv2audiodefines.h</text>
</a>
</g>
</g>
<!-- Node42&#45;&gt;Node43 -->
<g id="edge93" class="edge">
<title>Node42&#45;&gt;Node43</title>
<path fill="none" stroke="#191970" d="M2177.461,-560.2455C2166.7237,-551.8943 2151.0551,-539.7076 2138.4978,-529.9408"/>
<polygon fill="#191970" stroke="#191970" points="2140.4425,-527.0194 2130.4002,-523.6427 2136.1449,-532.5449 2140.4425,-527.0194"/>
</g>
<!-- Node44&#45;&gt;Node2 -->
<g id="edge98" class="edge">
<title>Node44&#45;&gt;Node2</title>
<path fill="none" stroke="#191970" d="M1267.966,-621.9458C1305.2946,-612.4622 1363.0275,-596.9274 1412.0024,-580 1458.0722,-564.0767 1510.0016,-541.8323 1541.8659,-527.6715"/>
<polygon fill="#191970" stroke="#191970" points="1543.3807,-530.8282 1551.082,-523.5522 1540.5242,-524.4375 1543.3807,-530.8282"/>
</g>
<!-- Node44&#45;&gt;Node11 -->
<g id="edge101" class="edge">
<title>Node44&#45;&gt;Node11</title>
<path fill="none" stroke="#191970" d="M1168.1618,-630.1386C1070.7479,-626.9131 874.23,-616.1001 712.0024,-580 565.7371,-547.4519 506.6511,-566.809 394.0024,-468 283.1037,-370.7259 206.1613,-308.2119 252.0024,-168 289.2083,-54.2004 378.9104,-75.7202 497.0024,-56 634.6597,-33.0126 1074.5121,-15.5488 1195.147,-11.1036"/>
<polygon fill="#191970" stroke="#191970" points="1195.3148,-14.5999 1205.1803,-10.7369 1195.0591,-7.6045 1195.3148,-14.5999"/>
</g>
<!-- Node44&#45;&gt;Node12 -->
<g id="edge105" class="edge">
<title>Node44&#45;&gt;Node12</title>
<path fill="none" stroke="#191970" d="M1168.2607,-628.7024C1043.0793,-621.2754 768.0024,-595.6643 768.0024,-514 768.0024,-514 768.0024,-514 768.0024,-346 768.0024,-254.9912 853.6327,-172.0005 893.7353,-138.1243"/>
<polygon fill="#191970" stroke="#191970" points="896.0804,-140.7268 901.5546,-131.6557 891.6184,-135.3331 896.0804,-140.7268"/>
</g>
<!-- Node44&#45;&gt;Node15 -->
<g id="edge100" class="edge">
<title>Node44&#45;&gt;Node15</title>
<path fill="none" stroke="#191970" d="M1289.5579,-625.4437C1472.7661,-605.8476 2015.6487,-538.0115 2131.0024,-412 2189.4604,-348.141 2212.8592,-304.8899 2182.0024,-224 2170.1104,-192.8253 2160.9566,-184.5814 2132.0024,-168 2098.8476,-149.0129 1990.4255,-133.0543 1935.5062,-125.9533"/>
<polygon fill="#191970" stroke="#191970" points="1935.6354,-122.4417 1925.2739,-124.653 1934.7528,-129.3858 1935.6354,-122.4417"/>
</g>
<!-- Node45 -->
<g id="node46" class="node">
<title>Node45</title>
<polygon fill="#ffffff" stroke="#bfbfbf" points="1069.0024,-280.5 1069.0024,-299.5 1119.0024,-299.5 1119.0024,-280.5 1069.0024,-280.5"/>
<text text-anchor="middle" x="1094.0024" y="-287.5" font-family="Helvetica,sans-Serif" font-size="10.00" fill="#000000">fstream</text>
</g>
<!-- Node44&#45;&gt;Node45 -->
<g id="edge99" class="edge">
<title>Node44&#45;&gt;Node45</title>
<path fill="none" stroke="#191970" d="M1207.0841,-621.8762C1172.9594,-605.2322 1111.0024,-567.6288 1111.0024,-514 1111.0024,-514 1111.0024,-514 1111.0024,-402 1111.0024,-369.192 1103.784,-331.584 1098.7545,-309.3624"/>
<polygon fill="#191970" stroke="#191970" points="1102.1349,-308.4474 1096.4381,-299.5144 1095.3208,-310.0502 1102.1349,-308.4474"/>
</g>
<!-- Node46 -->
<g id="node47" class="node">
<title>Node46</title>
<polygon fill="#ffffff" stroke="#bfbfbf" points="1195.0024,-560.5 1195.0024,-579.5 1263.0024,-579.5 1263.0024,-560.5 1195.0024,-560.5"/>
<text text-anchor="middle" x="1229.0024" y="-567.5" font-family="Helvetica,sans-Serif" font-size="10.00" fill="#000000">sys/types.h</text>
</g>
<!-- Node44&#45;&gt;Node46 -->
<g id="edge102" class="edge">
<title>Node44&#45;&gt;Node46</title>
<path fill="none" stroke="#191970" d="M1229.0024,-621.8906C1229.0024,-613.3657 1229.0024,-600.6392 1229.0024,-589.9235"/>
<polygon fill="#191970" stroke="#191970" points="1232.5025,-589.7448 1229.0024,-579.7449 1225.5025,-589.7449 1232.5025,-589.7448"/>
</g>
<!-- Node47 -->
<g id="node48" class="node">
<title>Node47</title>
<polygon fill="#ffffff" stroke="#bfbfbf" points="1281.0024,-560.5 1281.0024,-579.5 1341.0024,-579.5 1341.0024,-560.5 1281.0024,-560.5"/>
<text text-anchor="middle" x="1311.0024" y="-567.5" font-family="Helvetica,sans-Serif" font-size="10.00" fill="#000000">sys/stat.h</text>
</g>
<!-- Node44&#45;&gt;Node47 -->
<g id="edge103" class="edge">
<title>Node44&#45;&gt;Node47</title>
<path fill="none" stroke="#191970" d="M1241.8149,-621.8906C1254.6926,-612.2324 1274.7609,-597.1812 1289.9744,-585.771"/>
<polygon fill="#191970" stroke="#191970" points="1292.3799,-588.3419 1298.2799,-579.5419 1288.1799,-582.7419 1292.3799,-588.3419"/>
</g>
<!-- Node48 -->
<g id="node49" class="node">
<title>Node48</title>
<polygon fill="#ffffff" stroke="#bfbfbf" points="1359.0024,-560.5 1359.0024,-579.5 1403.0024,-579.5 1403.0024,-560.5 1359.0024,-560.5"/>
<text text-anchor="middle" x="1381.0024" y="-567.5" font-family="Helvetica,sans-Serif" font-size="10.00" fill="#000000">fcntl.h</text>
</g>
<!-- Node44&#45;&gt;Node48 -->
<g id="edge104" class="edge">
<title>Node44&#45;&gt;Node48</title>
<path fill="none" stroke="#191970" d="M1252.7524,-621.8906C1278.7445,-611.3741 1320.5398,-594.4635 1349.3132,-582.8216"/>
<polygon fill="#191970" stroke="#191970" points="1350.9431,-585.9379 1358.9003,-578.9426 1348.3176,-579.4489 1350.9431,-585.9379"/>
</g>
<!-- Node49 -->
<g id="node50" class="node">
<title>Node49</title>
<g id="a_node50"><a xlink:href="../../d7/dc7/ntv2debug_8h.html" target="_top" xlink:title="ntv2debug.h">
<polygon fill="#ffffff" stroke="#000000" points="272.0024,-168.5 272.0024,-187.5 342.0024,-187.5 342.0024,-168.5 272.0024,-168.5"/>
<text text-anchor="middle" x="307.0024" y="-175.5" font-family="Helvetica,sans-Serif" font-size="10.00" fill="#000000">ntv2debug.h</text>
</a>
</g>
</g>
<!-- Node44&#45;&gt;Node49 -->
<g id="edge106" class="edge">
<title>Node44&#45;&gt;Node49</title>
<path fill="none" stroke="#191970" d="M1168.4211,-629.5317C1057.5562,-625.1784 826.735,-612.4193 754.0024,-580 546.3848,-487.4579 368.5049,-261.4241 320.0291,-196.0096"/>
<polygon fill="#191970" stroke="#191970" points="322.5658,-193.5503 313.8278,-187.5587 316.9222,-197.6916 322.5658,-193.5503"/>
</g>
<!-- Node50 -->
<g id="node51" class="node">
<title>Node50</title>
<g id="a_node51"><a xlink:href="../../d6/dc8/ntv2mcsfile_8h.html" target="_top" xlink:title="Declares the CNTV2MCSfile class. ">
<polygon fill="#ffffff" stroke="#000000" points="1147.5024,-336.5 1147.5024,-355.5 1222.5024,-355.5 1222.5024,-336.5 1147.5024,-336.5"/>
<text text-anchor="middle" x="1185.0024" y="-343.5" font-family="Helvetica,sans-Serif" font-size="10.00" fill="#000000">ntv2mcsfile.h</text>
</a>
</g>
</g>
<!-- Node44&#45;&gt;Node50 -->
<g id="edge110" class="edge">
<title>Node44&#45;&gt;Node50</title>
<path fill="none" stroke="#191970" d="M1218.7161,-621.7834C1208.9883,-612.0629 1194.6311,-596.2554 1186.0024,-580 1171.6908,-553.0384 1167.0024,-544.5246 1167.0024,-514 1167.0024,-514 1167.0024,-514 1167.0024,-458 1167.0024,-425.1472 1174.6456,-387.5528 1179.9709,-365.3462"/>
<polygon fill="#191970" stroke="#191970" points="1183.4012,-366.0551 1182.4235,-355.5055 1176.609,-364.3622 1183.4012,-366.0551"/>
</g>
<!-- Node51 -->
<g id="node52" class="node">
<title>Node51</title>
<g id="a_node52"><a xlink:href="../../d3/df0/ntv2spiinterface_8h.html" target="_top" xlink:title="Declares the CNTV2SpiFlash and CNTV2AxiSpiFlash classes. ">
<polygon fill="#ffffff" stroke="#000000" points="1515.0024,-560.5 1515.0024,-579.5 1609.0024,-579.5 1609.0024,-560.5 1515.0024,-560.5"/>
<text text-anchor="middle" x="1562.0024" y="-567.5" font-family="Helvetica,sans-Serif" font-size="10.00" fill="#000000">ntv2spiinterface.h</text>
</a>
</g>
</g>
<!-- Node44&#45;&gt;Node51 -->
<g id="edge115" class="edge">
<title>Node44&#45;&gt;Node51</title>
<path fill="none" stroke="#191970" d="M1280.6683,-621.9581C1341.322,-610.7563 1441.6162,-592.2335 1504.6339,-580.5951"/>
<polygon fill="#191970" stroke="#191970" points="1505.6007,-583.9758 1514.7987,-578.7178 1504.3293,-577.0922 1505.6007,-583.9758"/>
</g>
<!-- Node52 -->
<g id="node53" class="node">
<title>Node52</title>
<g id="a_node53"><a xlink:href="../../da/db1/ntv2bitfile_8h.html" target="_top" xlink:title="Declares the CNTV2Bitfile class. ">
<polygon fill="#ffffff" stroke="#000000" points="1007.5024,-336.5 1007.5024,-355.5 1074.5024,-355.5 1074.5024,-336.5 1007.5024,-336.5"/>
<text text-anchor="middle" x="1041.0024" y="-343.5" font-family="Helvetica,sans-Serif" font-size="10.00" fill="#000000">ntv2bitfile.h</text>
</a>
</g>
</g>
<!-- Node44&#45;&gt;Node52 -->
<g id="edge117" class="edge">
<title>Node44&#45;&gt;Node52</title>
<path fill="none" stroke="#191970" d="M1185.5996,-621.9408C1134.646,-607.8612 1057.0024,-576.2017 1057.0024,-514 1057.0024,-514 1057.0024,-514 1057.0024,-458 1057.0024,-425.2342 1050.2086,-387.6134 1045.475,-365.3778"/>
<polygon fill="#191970" stroke="#191970" points="1048.8723,-364.5307 1043.2949,-355.5228 1042.0375,-366.0428 1048.8723,-364.5307"/>
</g>
<!-- Node49&#45;&gt;Node5 -->
<g id="edge108" class="edge">
<title>Node49&#45;&gt;Node5</title>
<path fill="none" stroke="#191970" d="M314.44,-168.1084C326.6098,-152.8129 352.4068,-123.9417 382.0024,-112 473.0931,-75.2453 1175.2639,-67.6145 1353.812,-66.262"/>
<polygon fill="#191970" stroke="#191970" points="1353.8758,-69.7617 1363.8499,-66.1885 1353.8245,-62.7619 1353.8758,-69.7617"/>
</g>
<!-- Node49&#45;&gt;Node8 -->
<g id="edge109" class="edge">
<title>Node49&#45;&gt;Node8</title>
<path fill="none" stroke="#191970" d="M342.0778,-173.6058C421.8613,-163.6105 616.9667,-139.1678 707.0305,-127.8846"/>
<polygon fill="#191970" stroke="#191970" points="707.7334,-131.324 717.2207,-126.608 706.8632,-124.3783 707.7334,-131.324"/>
</g>
<!-- Node49&#45;&gt;Node10 -->
<g id="edge107" class="edge">
<title>Node49&#45;&gt;Node10</title>
<path fill="none" stroke="#191970" d="M314.7041,-168.4862C336.6678,-141.3545 399.8712,-63.2798 428.5463,-27.8576"/>
<polygon fill="#191970" stroke="#191970" points="431.4749,-29.8026 435.0465,-19.8279 426.0342,-25.3981 431.4749,-29.8026"/>
</g>
<!-- Node50&#45;&gt;Node11 -->
<g id="edge111" class="edge">
<title>Node50&#45;&gt;Node11</title>
<path fill="none" stroke="#191970" d="M1179.4886,-336.0289C1170.6981,-321.1654 1152.0216,-293.5038 1128.0024,-280 1043.5487,-232.5191 986.039,-307.6594 913.0024,-244 867.2488,-204.1207 841.6182,-160.5792 878.0024,-112 916.7522,-60.2624 1117.2383,-25.8981 1195.0668,-14.3238"/>
<polygon fill="#191970" stroke="#191970" points="1195.8162,-17.7515 1205.205,-12.8424 1194.804,-10.8251 1195.8162,-17.7515"/>
</g>
<!-- Node50&#45;&gt;Node15 -->
<g id="edge112" class="edge">
<title>Node50&#45;&gt;Node15</title>
<path fill="none" stroke="#191970" d="M1188.3323,-336.2623C1197.0727,-312.3626 1223.1435,-250.8096 1268.0024,-224 1334.1693,-184.456 1537.0517,-201.1627 1613.0024,-188 1649.9643,-181.5943 1658.4642,-176.4951 1695.0024,-168 1757.1366,-153.5538 1829.9675,-137.692 1870.8741,-128.8802"/>
<polygon fill="#191970" stroke="#191970" points="1871.7623,-132.2693 1880.8028,-126.7449 1870.2904,-125.4258 1871.7623,-132.2693"/>
</g>
<!-- Node50&#45;&gt;Node26 -->
<g id="edge114" class="edge">
<title>Node50&#45;&gt;Node26</title>
<path fill="none" stroke="#191970" d="M1201.8986,-336.2455C1216.9204,-327.5731 1239.1068,-314.7645 1256.3235,-304.825"/>
<polygon fill="#191970" stroke="#191970" points="1258.3895,-307.6737 1265.3,-299.6427 1254.8896,-301.6114 1258.3895,-307.6737"/>
</g>
<!-- Node50&#45;&gt;Node45 -->
<g id="edge113" class="edge">
<title>Node50&#45;&gt;Node45</title>
<path fill="none" stroke="#191970" d="M1169.1515,-336.2455C1155.1893,-327.6534 1134.6296,-315.0014 1118.5429,-305.1018"/>
<polygon fill="#191970" stroke="#191970" points="1120.0227,-301.9029 1109.6718,-299.6427 1116.354,-307.8645 1120.0227,-301.9029"/>
</g>
<!-- Node51&#45;&gt;Node2 -->
<g id="edge116" class="edge">
<title>Node51&#45;&gt;Node2</title>
<path fill="none" stroke="#191970" d="M1563.7443,-560.2455C1565.0492,-552.9382 1566.8785,-542.6944 1568.4838,-533.7046"/>
<polygon fill="#191970" stroke="#191970" points="1571.9681,-534.1022 1570.2805,-523.6427 1565.0771,-532.8717 1571.9681,-534.1022"/>
</g>
<!-- Node52&#45;&gt;Node4 -->
<g id="edge122" class="edge">
<title>Node52&#45;&gt;Node4</title>
<path fill="none" stroke="#191970" d="M1041.5562,-336.489C1042.8042,-322.703 1046.8572,-296.9661 1060.0024,-280 1094.5519,-235.4081 1154.5295,-206.4396 1193.9953,-191.1573"/>
<polygon fill="#191970" stroke="#191970" points="1195.4279,-194.358 1203.559,-187.5656 1192.9669,-187.8049 1195.4279,-194.358"/>
</g>
<!-- Node52&#45;&gt;Node5 -->
<g id="edge119" class="edge">
<title>Node52&#45;&gt;Node5</title>
<path fill="none" stroke="#191970" d="M1025.0202,-336.4253C971.4851,-303.2436 805.8125,-190.8983 878.0024,-112 909.8928,-77.1462 1236.4506,-68.5271 1353.5211,-66.5495"/>
<polygon fill="#191970" stroke="#191970" points="1353.9153,-70.0437 1363.8576,-66.3831 1353.8025,-63.0446 1353.9153,-70.0437"/>
</g>
<!-- Node52&#45;&gt;Node8 -->
<g id="edge121" class="edge">
<title>Node52&#45;&gt;Node8</title>
<path fill="none" stroke="#191970" d="M1007.4315,-338.7524C979.5898,-331.7319 939.7349,-319.2831 909.0024,-300 841.4533,-257.6161 787.0315,-176.8071 764.8146,-140.4873"/>
<polygon fill="#191970" stroke="#191970" points="767.7921,-138.6471 759.6437,-131.8755 761.7908,-142.2505 767.7921,-138.6471"/>
</g>
<!-- Node52&#45;&gt;Node10 -->
<g id="edge120" class="edge">
<title>Node52&#45;&gt;Node10</title>
<path fill="none" stroke="#191970" d="M1007.177,-345.0232C867.7256,-340.1899 340.4473,-313.7171 249.0024,-188 211.0951,-135.8855 254.4901,-90.3699 309.0024,-56 337.1688,-38.2412 373.0175,-26.401 400.5472,-19.1859"/>
<polygon fill="#191970" stroke="#191970" points="401.4408,-22.5702 410.2837,-16.7345 399.7317,-15.782 401.4408,-22.5702"/>
</g>
<!-- Node52&#45;&gt;Node26 -->
<g id="edge123" class="edge">
<title>Node52&#45;&gt;Node26</title>
<path fill="none" stroke="#191970" d="M1074.5125,-338.2134C1118.0112,-328.1059 1193.893,-310.4736 1240.8451,-299.5635"/>
<polygon fill="#191970" stroke="#191970" points="1241.7407,-302.9488 1250.689,-297.2762 1240.1563,-296.1304 1241.7407,-302.9488"/>
</g>
<!-- Node52&#45;&gt;Node45 -->
<g id="edge118" class="edge">
<title>Node52&#45;&gt;Node45</title>
<path fill="none" stroke="#191970" d="M1050.2343,-336.2455C1057.8342,-328.2155 1068.7902,-316.6394 1077.8392,-307.0781"/>
<polygon fill="#191970" stroke="#191970" points="1080.5445,-309.3115 1084.8763,-299.6427 1075.4604,-304.4998 1080.5445,-309.3115"/>
</g>
<!-- Node53&#45;&gt;Node4 -->
<g id="edge128" class="edge">
<title>Node53&#45;&gt;Node4</title>
<path fill="none" stroke="#191970" d="M634.568,-336.4603C687.2616,-323.1911 786.1864,-298.6892 871.0024,-280 950.6755,-262.444 973.3572,-269.0442 1051.0024,-244 1071.4463,-237.4059 1075.0079,-231.8517 1095.0024,-224 1126.9295,-211.4626 1163.8233,-199.2804 1191.4268,-190.6056"/>
<polygon fill="#191970" stroke="#191970" points="1192.6448,-193.8921 1201.1497,-187.5742 1190.5612,-187.2094 1192.6448,-193.8921"/>
</g>
<!-- Node53&#45;&gt;Node5 -->
<g id="edge126" class="edge">
<title>Node53&#45;&gt;Node5</title>
<path fill="none" stroke="#191970" d="M567.5508,-336.4487C497.0403,-312.0761 328.7297,-244.1005 389.0024,-168 449.9149,-91.0917 1171.552,-70.7226 1353.537,-66.7941"/>
<polygon fill="#191970" stroke="#191970" points="1353.8367,-70.2887 1363.7606,-66.5786 1353.6891,-63.2902 1353.8367,-70.2887"/>
</g>
<!-- Node53&#45;&gt;Node8 -->
<g id="edge127" class="edge">
<title>Node53&#45;&gt;Node8</title>
<path fill="none" stroke="#191970" d="M596.2738,-336.3737C594.5997,-306.9088 593.708,-216.9834 640.0024,-168 657.8163,-149.1515 684.4048,-137.8323 707.424,-131.1413"/>
<polygon fill="#191970" stroke="#191970" points="708.6216,-134.4436 717.3687,-128.4655 706.8027,-127.684 708.6216,-134.4436"/>
</g>
<!-- Node53&#45;&gt;Node10 -->
<g id="edge125" class="edge">
<title>Node53&#45;&gt;Node10</title>
<path fill="none" stroke="#191970" d="M545.4343,-343.4C419.8863,-336.0638 102.9306,-311.1823 25.0024,-244 4.7492,-226.5395 7.9782,-214.2736 3.0024,-188 -9.553,-121.7033 20.5862,-91.4437 78.0024,-56 131.0874,-23.23 315.6988,-13.6868 400.1905,-11.0043"/>
<polygon fill="#191970" stroke="#191970" points="400.3329,-14.5017 410.2234,-10.7033 400.1229,-7.5049 400.3329,-14.5017"/>
</g>
<!-- Node53&#45;&gt;Node11 -->
<g id="edge130" class="edge">
<title>Node53&#45;&gt;Node11</title>
<path fill="none" stroke="#191970" d="M545.1645,-340.5759C436.9015,-326.863 201.7007,-283.31 263.0024,-168 283.8913,-128.7075 304.5707,-128.2374 346.0024,-112 506.162,-49.2322 1058.3268,-18.2778 1195.1452,-11.4645"/>
<polygon fill="#191970" stroke="#191970" points="1195.5149,-14.9507 1205.331,-10.9639 1195.1712,-7.9591 1195.5149,-14.9507"/>
</g>
<!-- Node53&#45;&gt;Node12 -->
<g id="edge131" class="edge">
<title>Node53&#45;&gt;Node12</title>
<path fill="none" stroke="#191970" d="M606.4565,-336.3821C628.016,-314.7423 682.9843,-261.21 735.0024,-224 785.0736,-188.1827 848.7305,-154.42 885.0704,-136.14"/>
<polygon fill="#191970" stroke="#191970" points="886.7438,-139.2166 894.129,-131.6199 883.6183,-132.9531 886.7438,-139.2166"/>
</g>
<!-- Node53&#45;&gt;Node15 -->
<g id="edge132" class="edge">
<title>Node53&#45;&gt;Node15</title>
<path fill="none" stroke="#191970" d="M648.1588,-336.4427C697.7291,-327.1705 775.0298,-312.6816 842.0024,-300 1018.9433,-266.4955 1062.5337,-254.5855 1240.0024,-224 1481.9829,-182.2964 1775.1076,-140.0972 1870.9838,-126.5082"/>
<polygon fill="#191970" stroke="#191970" points="1871.5106,-129.9686 1880.9216,-125.1021 1870.5298,-123.0377 1871.5106,-129.9686"/>
</g>
<!-- Node53&#45;&gt;Node26 -->
<g id="edge129" class="edge">
<title>Node53&#45;&gt;Node26</title>
<path fill="none" stroke="#191970" d="M648.7696,-341.7679C779.622,-331.0705 1121.6457,-303.1095 1240.5482,-293.389"/>
<polygon fill="#191970" stroke="#191970" points="1241.0108,-296.8629 1250.6923,-292.5597 1240.4404,-289.8862 1241.0108,-296.8629"/>
</g>
<!-- Node55&#45;&gt;Node4 -->
<g id="edge137" class="edge">
<title>Node55&#45;&gt;Node4</title>
<path fill="none" stroke="#191970" d="M102.2378,-232.3544C264.2044,-224.5688 954.592,-191.3828 1169.1308,-181.0702"/>
<polygon fill="#191970" stroke="#191970" points="1169.4637,-184.5584 1179.2841,-180.5822 1169.1276,-177.5664 1169.4637,-184.5584"/>
</g>
<!-- Node55&#45;&gt;Node11 -->
<g id="edge135" class="edge">
<title>Node55&#45;&gt;Node11</title>
<path fill="none" stroke="#191970" d="M74.9495,-224.2348C98.0263,-192.7222 175.9099,-93.5993 268.0024,-56 355.4124,-20.3125 1039.9024,-11.7538 1194.8795,-10.2659"/>
<polygon fill="#191970" stroke="#191970" points="1195.1403,-13.7637 1205.1073,-10.1707 1195.0751,-6.764 1195.1403,-13.7637"/>
</g>
<!-- Node56 -->
<g id="node57" class="node">
<title>Node56</title>
<polygon fill="#ffffff" stroke="#bfbfbf" points="12.0024,-168.5 12.0024,-187.5 64.0024,-187.5 64.0024,-168.5 12.0024,-168.5"/>
<text text-anchor="middle" x="38.0024" y="-175.5" font-family="Helvetica,sans-Serif" font-size="10.00" fill="#000000">ostream</text>
</g>
<!-- Node55&#45;&gt;Node56 -->
<g id="edge136" class="edge">
<title>Node55&#45;&gt;Node56</title>
<path fill="none" stroke="#191970" d="M62.7768,-224.2455C58.6901,-216.617 52.8889,-205.7881 47.9275,-196.5267"/>
<polygon fill="#191970" stroke="#191970" points="50.9756,-194.8047 43.1682,-187.6427 44.8052,-198.1103 50.9756,-194.8047"/>
</g>
<!-- Node57&#45;&gt;Node11 -->
<g id="edge141" class="edge">
<title>Node57&#45;&gt;Node11</title>
<path fill="none" stroke="#191970" d="M2616.5502,-168.2776C2605.9417,-153.214 2583.2503,-124.6547 2556.0024,-112 2314.4416,.1878 1626.7346,-38.0036 1361.0024,-20 1325.1912,-17.5737 1284.0602,-14.4833 1256.7028,-12.3846"/>
<polygon fill="#191970" stroke="#191970" points="1256.8202,-8.8834 1246.5809,-11.6052 1256.2827,-15.8628 1256.8202,-8.8834"/>
</g>
<!-- Node57&#45;&gt;Node13 -->
<g id="edge140" class="edge">
<title>Node57&#45;&gt;Node13</title>
<path fill="none" stroke="#191970" d="M2552.7955,-169.0783C2549.825,-168.7118 2546.8843,-168.3511 2544.0024,-168 2405.3745,-151.1134 2239.0858,-132.0381 2176.4899,-124.8993"/>
<polygon fill="#191970" stroke="#191970" points="2176.6967,-121.4003 2166.3647,-123.7456 2175.9042,-128.3553 2176.6967,-121.4003"/>
</g>
<!-- Node57&#45;&gt;Node15 -->
<g id="edge142" class="edge">
<title>Node57&#45;&gt;Node15</title>
<path fill="none" stroke="#191970" d="M2552.8135,-168.9146C2549.8381,-168.5929 2546.8915,-168.2863 2544.0024,-168 2483.1773,-161.9723 2056.8002,-132.5581 1935.2656,-124.2119"/>
<polygon fill="#191970" stroke="#191970" points="1935.3291,-120.7081 1925.1129,-123.515 1934.8497,-127.6916 1935.3291,-120.7081"/>
</g>
<!-- Node57&#45;&gt;Node32 -->
<g id="edge139" class="edge">
<title>Node57&#45;&gt;Node32</title>
<path fill="none" stroke="#191970" d="M2598.7637,-168.3733C2575.7235,-159.2226 2540.881,-145.3844 2515.2524,-135.2057"/>
<polygon fill="#191970" stroke="#191970" points="2516.5107,-131.9395 2505.9249,-131.5011 2513.9268,-138.4452 2516.5107,-131.9395"/>
</g>
<!-- Node58 -->
<g id="node59" class="node">
<title>Node58</title>
<polygon fill="#ffffff" stroke="#bfbfbf" points="2603.0024,-112.5 2603.0024,-131.5 2649.0024,-131.5 2649.0024,-112.5 2603.0024,-112.5"/>
<text text-anchor="middle" x="2626.0024" y="-119.5" font-family="Helvetica,sans-Serif" font-size="10.00" fill="#000000">cstdint</text>
</g>
<!-- Node57&#45;&gt;Node58 -->
<g id="edge143" class="edge">
<title>Node57&#45;&gt;Node58</title>
<path fill="none" stroke="#191970" d="M2623.525,-168.2455C2623.9165,-160.9382 2624.4653,-150.6944 2624.9468,-141.7046"/>
<polygon fill="#191970" stroke="#191970" points="2628.4458,-141.8156 2625.4859,-131.6427 2621.4558,-141.4411 2628.4458,-141.8156"/>
</g>
<!-- Node60&#45;&gt;Node11 -->
<g id="edge149" class="edge">
<title>Node60&#45;&gt;Node11</title>
<path fill="none" stroke="#191970" d="M2476.6425,-231.6213C2549.065,-227.447 2669.0601,-216.3577 2702.0024,-188 2748.0883,-148.328 2780.4356,-99.557 2738.0024,-56 2711.3023,-28.5927 1399.2176,-21.9138 1361.0024,-20 1325.154,-18.2047 1284.0302,-14.9923 1256.6846,-12.6927"/>
<polygon fill="#191970" stroke="#191970" points="1256.8288,-9.1924 1246.5677,-11.8306 1256.2344,-16.1671 1256.8288,-9.1924"/>
</g>
<!-- Node60&#45;&gt;Node14 -->
<g id="edge148" class="edge">
<title>Node60&#45;&gt;Node14</title>
<path fill="none" stroke="#191970" d="M2413.7151,-224.4849C2403.3853,-209.7054 2381.3203,-181.5284 2355.0024,-168 2263.7625,-121.099 2228.0223,-149.8728 2127.0024,-132 2119.5142,-130.6752 2111.4288,-129.1388 2103.9511,-127.6737"/>
<polygon fill="#191970" stroke="#191970" points="2104.4003,-124.1947 2093.91,-125.6796 2103.0367,-131.0606 2104.4003,-124.1947"/>
</g>
<!-- Node60&#45;&gt;Node15 -->
<g id="edge147" class="edge">
<title>Node60&#45;&gt;Node15</title>
<path fill="none" stroke="#191970" d="M2403.742,-224.2922C2378.1655,-209.5153 2326.541,-181.6577 2279.0024,-168 2214.5594,-149.4856 2014.2256,-131.281 1935.3661,-124.639"/>
<polygon fill="#191970" stroke="#191970" points="1935.3281,-121.1237 1925.0716,-123.7797 1934.7458,-128.0994 1935.3281,-121.1237"/>
</g>
<!-- Node60&#45;&gt;Node31 -->
<g id="edge146" class="edge">
<title>Node60&#45;&gt;Node31</title>
<path fill="none" stroke="#191970" d="M2428.886,-224.2455C2436.199,-216.2155 2446.7416,-204.6394 2455.4491,-195.0781"/>
<polygon fill="#191970" stroke="#191970" points="2458.0751,-197.3928 2462.2207,-187.6427 2452.8997,-192.6795 2458.0751,-197.3928"/>
</g>
</g>
</svg>
