<?xml version="1.0" encoding="UTF-8" standalone="no"?>
<!DOCTYPE svg PUBLIC "-//W3C//DTD SVG 1.1//EN"
 "http://www.w3.org/Graphics/SVG/1.1/DTD/svg11.dtd">
<!-- Generated by graphviz version 2.43.0 (0)
 -->
<!-- Title: /home/tcbuilder/buildAgent/work/df8e8cce5bebfd58/libajantv2/ajantv2/includes/ntv2config2022.h Pages: 1 -->
<svg width="1318pt" height="284pt"
 viewBox="0.00 0.00 1318.00 284.00" xmlns="http://www.w3.org/2000/svg" xmlns:xlink="http://www.w3.org/1999/xlink">
<g id="graph0" class="graph" transform="scale(1 1) rotate(0) translate(4 280)">
<title>/home/tcbuilder/buildAgent/work/df8e8cce5bebfd58/libajantv2/ajantv2/includes/ntv2config2022.h</title>
<polygon fill="white" stroke="transparent" points="-4,4 -4,-280 1314,-280 1314,4 -4,4"/>
<!-- Node1 -->
<g id="node1" class="node">
<title>Node1</title>
<g id="a_node1"><a xlink:title="Declares the CNTV2Config2022 class.">
<polygon fill="#bfbfbf" stroke="black" points="639.5,-234.5 639.5,-275.5 827.5,-275.5 827.5,-234.5 639.5,-234.5"/>
<text text-anchor="start" x="647.5" y="-263.5" font-family="Helvetica,sans-Serif" font-size="10.00">/home/tcbuilder/buildAgent</text>
<text text-anchor="start" x="647.5" y="-252.5" font-family="Helvetica,sans-Serif" font-size="10.00">/work/df8e8cce5bebfd58/libajantv2</text>
<text text-anchor="middle" x="733.5" y="-241.5" font-family="Helvetica,sans-Serif" font-size="10.00">/ajantv2/includes/ntv2config2022.h</text>
</a>
</g>
</g>
<!-- Node2 -->
<g id="node2" class="node">
<title>Node2</title>
<g id="a_node2"><a xlink:href="../../da/d5d/ntv2configts2022_8h.html" target="_top" xlink:title="Declares the CNTV2ConfigTs2022 class.">
<polygon fill="white" stroke="black" points="348.5,-156.5 348.5,-197.5 544.5,-197.5 544.5,-156.5 348.5,-156.5"/>
<text text-anchor="start" x="356.5" y="-185.5" font-family="Helvetica,sans-Serif" font-size="10.00">/home/tcbuilder/buildAgent</text>
<text text-anchor="start" x="356.5" y="-174.5" font-family="Helvetica,sans-Serif" font-size="10.00">/work/df8e8cce5bebfd58/libajantv2</text>
<text text-anchor="middle" x="446.5" y="-163.5" font-family="Helvetica,sans-Serif" font-size="10.00">/ajantv2/includes/ntv2configts2022.h</text>
</a>
</g>
</g>
<!-- Node1&#45;&gt;Node2 -->
<g id="edge1" class="edge">
<title>Node1&#45;&gt;Node2</title>
<path fill="none" stroke="midnightblue" d="M649.88,-231.86C608.82,-220.98 559.79,-208 520.16,-197.51"/>
<polygon fill="midnightblue" stroke="midnightblue" points="649.03,-235.25 659.59,-234.43 650.82,-228.48 649.03,-235.25"/>
</g>
<!-- Node4 -->
<g id="node4" class="node">
<title>Node4</title>
<g id="a_node4"><a xlink:href="../../d9/dca/ntv2config2022_8cpp.html" target="_top" xlink:title="Implements the CNTV2Config2022 class.">
<polygon fill="white" stroke="black" points="473.5,-78.5 473.5,-119.5 661.5,-119.5 661.5,-78.5 473.5,-78.5"/>
<text text-anchor="start" x="481.5" y="-107.5" font-family="Helvetica,sans-Serif" font-size="10.00">/home/tcbuilder/buildAgent</text>
<text text-anchor="start" x="481.5" y="-96.5" font-family="Helvetica,sans-Serif" font-size="10.00">/work/df8e8cce5bebfd58/libajantv2</text>
<text text-anchor="middle" x="567.5" y="-85.5" font-family="Helvetica,sans-Serif" font-size="10.00">/ajantv2/src/ntv2config2022.cpp</text>
</a>
</g>
</g>
<!-- Node1&#45;&gt;Node4 -->
<g id="edge11" class="edge">
<title>Node1&#45;&gt;Node4</title>
<path fill="none" stroke="midnightblue" d="M704.94,-227.51C671.86,-196.82 618.14,-146.98 588.61,-119.59"/>
<polygon fill="midnightblue" stroke="midnightblue" points="702.76,-230.26 712.48,-234.5 707.53,-225.13 702.76,-230.26"/>
</g>
<!-- Node6 -->
<g id="node6" class="node">
<title>Node6</title>
<g id="a_node6"><a xlink:href="../../df/d17/konaipjsonparse_8h.html" target="_top" xlink:title=" ">
<polygon fill="white" stroke="black" points="685.5,-156.5 685.5,-197.5 933.5,-197.5 933.5,-156.5 685.5,-156.5"/>
<text text-anchor="start" x="693.5" y="-185.5" font-family="Helvetica,sans-Serif" font-size="10.00">/home/tcbuilder/buildAgent</text>
<text text-anchor="start" x="693.5" y="-174.5" font-family="Helvetica,sans-Serif" font-size="10.00">/work/df8e8cce5bebfd58/libajantv2</text>
<text text-anchor="middle" x="809.5" y="-163.5" font-family="Helvetica,sans-Serif" font-size="10.00">/demos/ntv2konaipjsonsetup/konaipjsonparse.h</text>
</a>
</g>
</g>
<!-- Node1&#45;&gt;Node6 -->
<g id="edge5" class="edge">
<title>Node1&#45;&gt;Node6</title>
<path fill="none" stroke="midnightblue" d="M760.3,-227.2C770.08,-217.42 780.96,-206.54 789.99,-197.51"/>
<polygon fill="midnightblue" stroke="midnightblue" points="757.67,-224.88 753.07,-234.43 762.62,-229.83 757.67,-224.88"/>
</g>
<!-- Node8 -->
<g id="node8" class="node">
<title>Node8</title>
<g id="a_node8"><a xlink:href="../../db/da7/konaipjsonsetup_8h.html" target="_top" xlink:title=" ">
<polygon fill="white" stroke="black" points="957.5,-78.5 957.5,-119.5 1205.5,-119.5 1205.5,-78.5 957.5,-78.5"/>
<text text-anchor="start" x="965.5" y="-107.5" font-family="Helvetica,sans-Serif" font-size="10.00">/home/tcbuilder/buildAgent</text>
<text text-anchor="start" x="965.5" y="-96.5" font-family="Helvetica,sans-Serif" font-size="10.00">/work/df8e8cce5bebfd58/libajantv2</text>
<text text-anchor="middle" x="1081.5" y="-85.5" font-family="Helvetica,sans-Serif" font-size="10.00">/demos/ntv2konaipjsonsetup/konaipjsonsetup.h</text>
</a>
</g>
</g>
<!-- Node1&#45;&gt;Node8 -->
<g id="edge10" class="edge">
<title>Node1&#45;&gt;Node8</title>
<path fill="none" stroke="midnightblue" d="M837.59,-233.77C871.91,-225.11 909.68,-213.37 942.5,-198 987.16,-177.09 1032.7,-141.76 1058.97,-119.72"/>
<polygon fill="midnightblue" stroke="midnightblue" points="836.41,-230.46 827.53,-236.24 838.08,-237.25 836.41,-230.46"/>
</g>
<!-- Node3 -->
<g id="node3" class="node">
<title>Node3</title>
<g id="a_node3"><a xlink:href="../../d2/d90/konaipj2ksetup_8cpp.html" target="_top" xlink:title=" ">
<polygon fill="white" stroke="black" points="0,-78.5 0,-119.5 249,-119.5 249,-78.5 0,-78.5"/>
<text text-anchor="start" x="8" y="-107.5" font-family="Helvetica,sans-Serif" font-size="10.00">/home/tcbuilder/buildAgent</text>
<text text-anchor="start" x="8" y="-96.5" font-family="Helvetica,sans-Serif" font-size="10.00">/work/df8e8cce5bebfd58/libajantv2</text>
<text text-anchor="middle" x="124.5" y="-85.5" font-family="Helvetica,sans-Serif" font-size="10.00">/demos/ntv2konaipj2ksetup/konaipj2ksetup.cpp</text>
</a>
</g>
</g>
<!-- Node2&#45;&gt;Node3 -->
<g id="edge2" class="edge">
<title>Node2&#45;&gt;Node3</title>
<path fill="none" stroke="midnightblue" d="M353.55,-154.06C307.31,-143.15 251.89,-130.07 207.14,-119.51"/>
<polygon fill="midnightblue" stroke="midnightblue" points="353.04,-157.54 363.58,-156.43 354.65,-150.72 353.04,-157.54"/>
</g>
<!-- Node2&#45;&gt;Node4 -->
<g id="edge3" class="edge">
<title>Node2&#45;&gt;Node4</title>
<path fill="none" stroke="midnightblue" d="M486.43,-150.92C502.7,-140.7 521.22,-129.07 536.45,-119.51"/>
<polygon fill="midnightblue" stroke="midnightblue" points="484.27,-148.15 477.66,-156.43 487.99,-154.07 484.27,-148.15"/>
</g>
<!-- Node5 -->
<g id="node5" class="node">
<title>Node5</title>
<g id="a_node5"><a xlink:href="../../d6/ddd/ntv2configts2022_8cpp.html" target="_top" xlink:title=" ">
<polygon fill="white" stroke="black" points="267.5,-78.5 267.5,-119.5 455.5,-119.5 455.5,-78.5 267.5,-78.5"/>
<text text-anchor="start" x="275.5" y="-107.5" font-family="Helvetica,sans-Serif" font-size="10.00">/home/tcbuilder/buildAgent</text>
<text text-anchor="start" x="275.5" y="-96.5" font-family="Helvetica,sans-Serif" font-size="10.00">/work/df8e8cce5bebfd58/libajantv2</text>
<text text-anchor="middle" x="361.5" y="-85.5" font-family="Helvetica,sans-Serif" font-size="10.00">/ajantv2/src/ntv2configts2022.cpp</text>
</a>
</g>
</g>
<!-- Node2&#45;&gt;Node5 -->
<g id="edge4" class="edge">
<title>Node2&#45;&gt;Node5</title>
<path fill="none" stroke="midnightblue" d="M416.85,-149.49C405.82,-139.63 393.52,-128.63 383.32,-119.51"/>
<polygon fill="midnightblue" stroke="midnightblue" points="414.82,-152.37 424.61,-156.43 419.49,-147.15 414.82,-152.37"/>
</g>
<!-- Node7 -->
<g id="node7" class="node">
<title>Node7</title>
<g id="a_node7"><a xlink:href="../../d3/de6/konaipjsonparse_8cpp.html" target="_top" xlink:title=" ">
<polygon fill="white" stroke="black" points="679.5,-78.5 679.5,-119.5 939.5,-119.5 939.5,-78.5 679.5,-78.5"/>
<text text-anchor="start" x="687.5" y="-107.5" font-family="Helvetica,sans-Serif" font-size="10.00">/home/tcbuilder/buildAgent</text>
<text text-anchor="start" x="687.5" y="-96.5" font-family="Helvetica,sans-Serif" font-size="10.00">/work/df8e8cce5bebfd58/libajantv2</text>
<text text-anchor="middle" x="809.5" y="-85.5" font-family="Helvetica,sans-Serif" font-size="10.00">/demos/ntv2konaipjsonsetup/konaipjsonparse.cpp</text>
</a>
</g>
</g>
<!-- Node6&#45;&gt;Node7 -->
<g id="edge6" class="edge">
<title>Node6&#45;&gt;Node7</title>
<path fill="none" stroke="midnightblue" d="M809.5,-146.3C809.5,-137.3 809.5,-127.65 809.5,-119.51"/>
<polygon fill="midnightblue" stroke="midnightblue" points="806,-146.43 809.5,-156.43 813,-146.43 806,-146.43"/>
</g>
<!-- Node6&#45;&gt;Node8 -->
<g id="edge7" class="edge">
<title>Node6&#45;&gt;Node8</title>
<path fill="none" stroke="midnightblue" d="M889.24,-153.72C928.06,-142.87 974.29,-129.96 1011.69,-119.51"/>
<polygon fill="midnightblue" stroke="midnightblue" points="888.24,-150.37 879.55,-156.43 890.12,-157.11 888.24,-150.37"/>
</g>
<!-- Node9 -->
<g id="node9" class="node">
<title>Node9</title>
<g id="a_node9"><a xlink:href="../../d2/d92/konaipjsonsetup_8cpp.html" target="_top" xlink:title=" ">
<polygon fill="white" stroke="black" points="826.5,-0.5 826.5,-41.5 1086.5,-41.5 1086.5,-0.5 826.5,-0.5"/>
<text text-anchor="start" x="834.5" y="-29.5" font-family="Helvetica,sans-Serif" font-size="10.00">/home/tcbuilder/buildAgent</text>
<text text-anchor="start" x="834.5" y="-18.5" font-family="Helvetica,sans-Serif" font-size="10.00">/work/df8e8cce5bebfd58/libajantv2</text>
<text text-anchor="middle" x="956.5" y="-7.5" font-family="Helvetica,sans-Serif" font-size="10.00">/demos/ntv2konaipjsonsetup/konaipjsonsetup.cpp</text>
</a>
</g>
</g>
<!-- Node8&#45;&gt;Node9 -->
<g id="edge8" class="edge">
<title>Node8&#45;&gt;Node9</title>
<path fill="none" stroke="midnightblue" d="M1040.72,-73.2C1023.8,-62.92 1004.46,-51.16 988.58,-41.51"/>
<polygon fill="midnightblue" stroke="midnightblue" points="1038.95,-76.22 1049.31,-78.43 1042.58,-70.24 1038.95,-76.22"/>
</g>
<!-- Node10 -->
<g id="node10" class="node">
<title>Node10</title>
<g id="a_node10"><a xlink:href="../../d1/d61/ntv2konaipjsonsetup_2main_8cpp.html" target="_top" xlink:title=" ">
<polygon fill="white" stroke="black" points="1105,-0.5 1105,-41.5 1310,-41.5 1310,-0.5 1105,-0.5"/>
<text text-anchor="start" x="1113" y="-29.5" font-family="Helvetica,sans-Serif" font-size="10.00">/home/tcbuilder/buildAgent</text>
<text text-anchor="start" x="1113" y="-18.5" font-family="Helvetica,sans-Serif" font-size="10.00">/work/df8e8cce5bebfd58/libajantv2</text>
<text text-anchor="middle" x="1207.5" y="-7.5" font-family="Helvetica,sans-Serif" font-size="10.00">/demos/ntv2konaipjsonsetup/main.cpp</text>
</a>
</g>
</g>
<!-- Node8&#45;&gt;Node10 -->
<g id="edge9" class="edge">
<title>Node8&#45;&gt;Node10</title>
<path fill="none" stroke="midnightblue" d="M1122.61,-73.2C1139.66,-62.92 1159.16,-51.16 1175.16,-41.51"/>
<polygon fill="midnightblue" stroke="midnightblue" points="1120.7,-70.27 1113.95,-78.43 1124.32,-76.26 1120.7,-70.27"/>
</g>
</g>
</svg>
