<?xml version="1.0" encoding="UTF-8" standalone="no"?>
<!DOCTYPE svg PUBLIC "-//W3C//DTD SVG 1.1//EN"
 "http://www.w3.org/Graphics/SVG/1.1/DTD/svg11.dtd">
<!-- Generated by graphviz version 2.40.1 (0)
 -->
<!-- Title: nlohmann::json_abi_v3_11_3::detail::output_stream_adapter&lt; CharType &gt; Pages: 1 -->
<svg width="162pt" height="128pt"
 viewBox="0.00 0.00 162.00 128.00" xmlns="http://www.w3.org/2000/svg" xmlns:xlink="http://www.w3.org/1999/xlink">
<g id="graph0" class="graph" transform="scale(1 1) rotate(0) translate(4 124)">
<title>nlohmann::json_abi_v3_11_3::detail::output_stream_adapter&lt; CharType &gt;</title>
<polygon fill="#ffffff" stroke="transparent" points="-4,4 -4,-124 158,-124 158,4 -4,4"/>
<!-- Node2 -->
<g id="node1" class="node">
<title>Node2</title>
<polygon fill="#bfbfbf" stroke="#000000" points="2.5,-.5 2.5,-41.5 151.5,-41.5 151.5,-.5 2.5,-.5"/>
<text text-anchor="start" x="10.5" y="-29.5" font-family="Helvetica,sans-Serif" font-size="10.00" fill="#000000">nlohmann::json_abi</text>
<text text-anchor="start" x="10.5" y="-18.5" font-family="Helvetica,sans-Serif" font-size="10.00" fill="#000000">_v3_11_3::detail::output</text>
<text text-anchor="middle" x="77" y="-7.5" font-family="Helvetica,sans-Serif" font-size="10.00" fill="#000000">_stream_adapter&lt; CharType &gt;</text>
</g>
<!-- Node3 -->
<g id="node2" class="node">
<title>Node3</title>
<g id="a_node2"><a xlink:href="../../db/dfe/structnlohmann_1_1json__abi__v3__11__3_1_1detail_1_1output__adapter__protocol.html" target="_top" xlink:title="abstract output adapter interface ">
<polygon fill="#ffffff" stroke="#000000" points="0,-78.5 0,-119.5 154,-119.5 154,-78.5 0,-78.5"/>
<text text-anchor="start" x="8" y="-107.5" font-family="Helvetica,sans-Serif" font-size="10.00" fill="#000000">nlohmann::json_abi</text>
<text text-anchor="start" x="8" y="-96.5" font-family="Helvetica,sans-Serif" font-size="10.00" fill="#000000">_v3_11_3::detail::output</text>
<text text-anchor="middle" x="77" y="-85.5" font-family="Helvetica,sans-Serif" font-size="10.00" fill="#000000">_adapter_protocol&lt; CharType &gt;</text>
</a>
</g>
</g>
<!-- Node3&#45;&gt;Node2 -->
<g id="edge1" class="edge">
<title>Node3&#45;&gt;Node2</title>
<path fill="none" stroke="#191970" d="M77,-68.0789C77,-59.2178 77,-49.7747 77,-41.6898"/>
<polygon fill="#191970" stroke="#191970" points="73.5001,-68.0974 77,-78.0974 80.5001,-68.0975 73.5001,-68.0974"/>
</g>
</g>
</svg>
