<?xml version="1.0" encoding="UTF-8" standalone="no"?>
<!DOCTYPE svg PUBLIC "-//W3C//DTD SVG 1.1//EN"
 "http://www.w3.org/Graphics/SVG/1.1/DTD/svg11.dtd">
<!-- Generated by graphviz version 2.43.0 (0)
 -->
<!-- Title: /home/tcbuilder/buildAgent/work/df8e8cce5bebfd58/libajantv2/ajantv2/includes/ntv2devicefeatures.hh Pages: 1 -->
<svg width="277pt" height="218pt"
 viewBox="0.00 0.00 277.00 218.00" xmlns="http://www.w3.org/2000/svg" xmlns:xlink="http://www.w3.org/1999/xlink">
<g id="graph0" class="graph" transform="scale(1 1) rotate(0) translate(4 214)">
<title>/home/tcbuilder/buildAgent/work/df8e8cce5bebfd58/libajantv2/ajantv2/includes/ntv2devicefeatures.hh</title>
<polygon fill="white" stroke="transparent" points="-4,4 -4,-214 273,-214 273,4 -4,4"/>
<!-- Node1 -->
<g id="node1" class="node">
<title>Node1</title>
<g id="a_node1"><a xlink:title="Declares NTV2DeviceCanDo... and NTV2DeviceGetNum... functions. This module is included at compile tim...">
<polygon fill="#bfbfbf" stroke="black" points="0,-168.5 0,-209.5 212,-209.5 212,-168.5 0,-168.5"/>
<text text-anchor="start" x="8" y="-197.5" font-family="Helvetica,sans-Serif" font-size="10.00">/home/tcbuilder/buildAgent</text>
<text text-anchor="start" x="8" y="-186.5" font-family="Helvetica,sans-Serif" font-size="10.00">/work/df8e8cce5bebfd58/libajantv2</text>
<text text-anchor="middle" x="106" y="-175.5" font-family="Helvetica,sans-Serif" font-size="10.00">/ajantv2/includes/ntv2devicefeatures.hh</text>
</a>
</g>
</g>
<!-- Node2 -->
<g id="node2" class="node">
<title>Node2</title>
<g id="a_node2"><a xlink:href="../../d6/dd9/ajaexport_8h.html" target="_top" xlink:title="Defines the import/export macros for producing DLLs or LIBs.">
<polygon fill="white" stroke="black" points="35,-0.5 35,-19.5 107,-19.5 107,-0.5 35,-0.5"/>
<text text-anchor="middle" x="71" y="-7.5" font-family="Helvetica,sans-Serif" font-size="10.00">ajaexport.h</text>
</a>
</g>
</g>
<!-- Node1&#45;&gt;Node2 -->
<g id="edge1" class="edge">
<title>Node1&#45;&gt;Node2</title>
<path fill="none" stroke="midnightblue" d="M100.72,-168.38C97.94,-157.68 94.57,-144.16 92,-132 84.38,-95.97 77.48,-53.47 73.8,-29.64"/>
<polygon fill="midnightblue" stroke="midnightblue" points="77.23,-28.91 72.26,-19.55 70.31,-29.96 77.23,-28.91"/>
</g>
<!-- Node3 -->
<g id="node3" class="node">
<title>Node3</title>
<g id="a_node3"><a xlink:href="../../d6/d0c/ntv2enums_8h.html" target="_top" xlink:title="Enumerations for controlling NTV2 devices.">
<polygon fill="white" stroke="black" points="101,-112.5 101,-131.5 181,-131.5 181,-112.5 101,-112.5"/>
<text text-anchor="middle" x="141" y="-119.5" font-family="Helvetica,sans-Serif" font-size="10.00">ntv2enums.h</text>
</a>
</g>
</g>
<!-- Node1&#45;&gt;Node3 -->
<g id="edge2" class="edge">
<title>Node1&#45;&gt;Node3</title>
<path fill="none" stroke="midnightblue" d="M116.5,-168.5C121.3,-159.59 126.94,-149.11 131.6,-140.46"/>
<polygon fill="midnightblue" stroke="midnightblue" points="134.68,-142.12 136.34,-131.65 128.52,-138.8 134.68,-142.12"/>
</g>
<!-- Node4 -->
<g id="node4" class="node">
<title>Node4</title>
<g id="a_node4"><a xlink:href="../../db/de2/ajatypes_8h.html" target="_top" xlink:title="Declares the most fundamental data types used by NTV2. Since Windows NT was the first principal devel...">
<polygon fill="white" stroke="black" points="201,-56.5 201,-75.5 269,-75.5 269,-56.5 201,-56.5"/>
<text text-anchor="middle" x="235" y="-63.5" font-family="Helvetica,sans-Serif" font-size="10.00">ajatypes.h</text>
</a>
</g>
</g>
<!-- Node3&#45;&gt;Node4 -->
<g id="edge3" class="edge">
<title>Node3&#45;&gt;Node4</title>
<path fill="none" stroke="midnightblue" d="M156.1,-112.32C170.9,-103.82 193.69,-90.73 210.98,-80.8"/>
<polygon fill="midnightblue" stroke="midnightblue" points="213.01,-83.67 219.93,-75.65 209.52,-77.6 213.01,-83.67"/>
</g>
<!-- Node6 -->
<g id="node6" class="node">
<title>Node6</title>
<g id="a_node6"><a xlink:href="../../d6/db1/ntv2version_8h.html" target="_top" xlink:title="Defines for the NTV2 SDK version number, used by ajantv2/includes/ntv2enums.h. See the ajantv2/includ...">
<polygon fill="white" stroke="black" points="99.5,-56.5 99.5,-75.5 182.5,-75.5 182.5,-56.5 99.5,-56.5"/>
<text text-anchor="middle" x="141" y="-63.5" font-family="Helvetica,sans-Serif" font-size="10.00">ntv2version.h</text>
</a>
</g>
</g>
<!-- Node3&#45;&gt;Node6 -->
<g id="edge5" class="edge">
<title>Node3&#45;&gt;Node6</title>
<path fill="none" stroke="midnightblue" d="M141,-112.08C141,-105.01 141,-94.86 141,-85.99"/>
<polygon fill="midnightblue" stroke="midnightblue" points="144.5,-85.75 141,-75.75 137.5,-85.75 144.5,-85.75"/>
</g>
<!-- Node5 -->
<g id="node5" class="node">
<title>Node5</title>
<g id="a_node5"><a xlink:title=" ">
<polygon fill="white" stroke="#bfbfbf" points="208.5,-0.5 208.5,-19.5 261.5,-19.5 261.5,-0.5 208.5,-0.5"/>
<text text-anchor="middle" x="235" y="-7.5" font-family="Helvetica,sans-Serif" font-size="10.00">stdint.h</text>
</a>
</g>
</g>
<!-- Node4&#45;&gt;Node5 -->
<g id="edge4" class="edge">
<title>Node4&#45;&gt;Node5</title>
<path fill="none" stroke="midnightblue" d="M235,-56.08C235,-49.01 235,-38.86 235,-29.99"/>
<polygon fill="midnightblue" stroke="midnightblue" points="238.5,-29.75 235,-19.75 231.5,-29.75 238.5,-29.75"/>
</g>
<!-- Node6&#45;&gt;Node2 -->
<g id="edge6" class="edge">
<title>Node6&#45;&gt;Node2</title>
<path fill="none" stroke="midnightblue" d="M129.75,-56.32C119.2,-48.18 103.2,-35.84 90.56,-26.09"/>
<polygon fill="midnightblue" stroke="midnightblue" points="92.51,-23.17 82.45,-19.83 88.23,-28.71 92.51,-23.17"/>
</g>
<!-- Node7 -->
<g id="node7" class="node">
<title>Node7</title>
<g id="a_node7"><a xlink:title=" ">
<polygon fill="white" stroke="#bfbfbf" points="125,-0.5 125,-19.5 169,-19.5 169,-0.5 125,-0.5"/>
<text text-anchor="middle" x="147" y="-7.5" font-family="Helvetica,sans-Serif" font-size="10.00">string</text>
</a>
</g>
</g>
<!-- Node6&#45;&gt;Node7 -->
<g id="edge7" class="edge">
<title>Node6&#45;&gt;Node7</title>
<path fill="none" stroke="midnightblue" d="M141.99,-56.08C142.79,-48.93 143.93,-38.64 144.92,-29.69"/>
<polygon fill="midnightblue" stroke="midnightblue" points="148.4,-30.08 146.03,-19.75 141.44,-29.3 148.4,-30.08"/>
</g>
</g>
</svg>
