<?xml version="1.0" encoding="UTF-8" standalone="no"?>
<!DOCTYPE svg PUBLIC "-//W3C//DTD SVG 1.1//EN"
 "http://www.w3.org/Graphics/SVG/1.1/DTD/svg11.dtd">
<!-- Generated by graphviz version 2.40.1 (0)
 -->
<!-- Title: CKonaIpJsonParse2110 Pages: 1 -->
<svg width="579pt" height="257pt"
 viewBox="0.00 0.00 579.00 257.00" xmlns="http://www.w3.org/2000/svg" xmlns:xlink="http://www.w3.org/1999/xlink">
<g id="graph0" class="graph" transform="scale(1 1) rotate(0) translate(4 253)">
<title>CKonaIpJsonParse2110</title>
<polygon fill="#ffffff" stroke="transparent" points="-4,4 -4,-253 575,-253 575,4 -4,4"/>
<!-- Node1 -->
<g id="node1" class="node">
<title>Node1</title>
<polygon fill="#bfbfbf" stroke="#000000" points="449,-114.5 449,-133.5 571,-133.5 571,-114.5 449,-114.5"/>
<text text-anchor="middle" x="510" y="-121.5" font-family="Helvetica,sans-Serif" font-size="10.00" fill="#000000">CKonaIpJsonParse2110</text>
</g>
<!-- Node2 -->
<g id="node2" class="node">
<title>Node2</title>
<g id="a_node2"><a xlink:href="../../dd/d0e/struct_receive_audio_data2110.html" target="_top" xlink:title="ReceiveAudioData2110">
<polygon fill="#ffffff" stroke="#000000" points="195,-228.5 195,-247.5 314,-247.5 314,-228.5 195,-228.5"/>
<text text-anchor="middle" x="254.5" y="-235.5" font-family="Helvetica,sans-Serif" font-size="10.00" fill="#000000">ReceiveAudioData2110</text>
</a>
</g>
</g>
<!-- Node2&#45;&gt;Node1 -->
<g id="edge1" class="edge">
<title>Node2&#45;&gt;Node1</title>
<path fill="none" stroke="#9a32cd" stroke-dasharray="5,2" d="M324.5345,-234.1758C358.3103,-229.9808 398.4542,-221.4012 431,-204 463.7057,-186.5133 491.3804,-150.9161 503.4763,-133.7235"/>
<polygon fill="#9a32cd" stroke="#9a32cd" points="323.8132,-230.7352 314.2723,-235.3419 324.6036,-237.6904 323.8132,-230.7352"/>
<text text-anchor="middle" x="382" y="-235" font-family="Helvetica,sans-Serif" font-size="10.00" fill="#000000"> m_receiveAudio2110</text>
</g>
<!-- Node3 -->
<g id="node3" class="node">
<title>Node3</title>
<g id="a_node3"><a xlink:href="../../d0/da9/struct_rx_audio_ch_data2110.html" target="_top" xlink:title="RxAudioChData2110">
<polygon fill="#ffffff" stroke="#000000" points="0,-228.5 0,-247.5 109,-247.5 109,-228.5 0,-228.5"/>
<text text-anchor="middle" x="54.5" y="-235.5" font-family="Helvetica,sans-Serif" font-size="10.00" fill="#000000">RxAudioChData2110</text>
</a>
</g>
</g>
<!-- Node3&#45;&gt;Node2 -->
<g id="edge2" class="edge">
<title>Node3&#45;&gt;Node2</title>
<path fill="none" stroke="#9a32cd" stroke-dasharray="5,2" d="M119.3156,-238C143.5299,-238 170.8987,-238 194.6458,-238"/>
<polygon fill="#9a32cd" stroke="#9a32cd" points="119.1509,-234.5001 109.1509,-238 119.1508,-241.5001 119.1509,-234.5001"/>
<text text-anchor="middle" x="151.5" y="-241" font-family="Helvetica,sans-Serif" font-size="10.00" fill="#000000"> rxAudioCh</text>
</g>
<!-- Node4 -->
<g id="node4" class="node">
<title>Node4</title>
<g id="a_node4"><a xlink:href="../../d6/def/struct_transmit_video_data2110.html" target="_top" xlink:title="TransmitVideoData2110">
<polygon fill="#ffffff" stroke="#000000" points="194,-190.5 194,-209.5 315,-209.5 315,-190.5 194,-190.5"/>
<text text-anchor="middle" x="254.5" y="-197.5" font-family="Helvetica,sans-Serif" font-size="10.00" fill="#000000">TransmitVideoData2110</text>
</a>
</g>
</g>
<!-- Node4&#45;&gt;Node1 -->
<g id="edge3" class="edge">
<title>Node4&#45;&gt;Node1</title>
<path fill="none" stroke="#9a32cd" stroke-dasharray="5,2" d="M325.2722,-191.3073C358.0438,-186.0378 397.1339,-177.9596 431,-166 454.5811,-157.6725 479.7479,-143.2075 495.179,-133.6185"/>
<polygon fill="#9a32cd" stroke="#9a32cd" points="324.6616,-187.8601 315.3174,-192.8537 325.7361,-194.7771 324.6616,-187.8601"/>
<text text-anchor="middle" x="382" y="-192" font-family="Helvetica,sans-Serif" font-size="10.00" fill="#000000"> m_transmitVideo2110</text>
</g>
<!-- Node5 -->
<g id="node5" class="node">
<title>Node5</title>
<g id="a_node5"><a xlink:href="../../da/d8e/struct_tx_video_ch_data2110.html" target="_top" xlink:title="TxVideoChData2110">
<polygon fill="#ffffff" stroke="#000000" points="1,-190.5 1,-209.5 108,-209.5 108,-190.5 1,-190.5"/>
<text text-anchor="middle" x="54.5" y="-197.5" font-family="Helvetica,sans-Serif" font-size="10.00" fill="#000000">TxVideoChData2110</text>
</a>
</g>
</g>
<!-- Node5&#45;&gt;Node4 -->
<g id="edge4" class="edge">
<title>Node5&#45;&gt;Node4</title>
<path fill="none" stroke="#9a32cd" stroke-dasharray="5,2" d="M118.229,-200C142.3849,-200 169.807,-200 193.6873,-200"/>
<polygon fill="#9a32cd" stroke="#9a32cd" points="118.0964,-196.5001 108.0963,-200 118.0963,-203.5001 118.0964,-196.5001"/>
<text text-anchor="middle" x="151.5" y="-203" font-family="Helvetica,sans-Serif" font-size="10.00" fill="#000000"> txVideoCh</text>
</g>
<!-- Node6 -->
<g id="node6" class="node">
<title>Node6</title>
<g id="a_node6"><a xlink:href="../../d8/d95/struct_network_data2110.html" target="_top" xlink:title="NetworkData2110">
<polygon fill="#ffffff" stroke="#000000" points="207,-152.5 207,-171.5 302,-171.5 302,-152.5 207,-152.5"/>
<text text-anchor="middle" x="254.5" y="-159.5" font-family="Helvetica,sans-Serif" font-size="10.00" fill="#000000">NetworkData2110</text>
</a>
</g>
</g>
<!-- Node6&#45;&gt;Node1 -->
<g id="edge5" class="edge">
<title>Node6&#45;&gt;Node1</title>
<path fill="none" stroke="#9a32cd" stroke-dasharray="5,2" d="M312.5039,-154.7102C346.9812,-150.2284 391.5445,-144.176 431,-138 439.6697,-136.6429 448.8567,-135.1059 457.7813,-133.5597"/>
<polygon fill="#9a32cd" stroke="#9a32cd" points="311.6135,-151.2961 302.1446,-156.0491 312.5108,-158.2384 311.6135,-151.2961"/>
<text text-anchor="middle" x="382" y="-154" font-family="Helvetica,sans-Serif" font-size="10.00" fill="#000000"> m_net2110</text>
</g>
<!-- Node7 -->
<g id="node7" class="node">
<title>Node7</title>
<g id="a_node7"><a xlink:href="../../d6/d7c/struct_s_f_p_data2110.html" target="_top" xlink:title="SFPData2110">
<polygon fill="#ffffff" stroke="#000000" points="15.5,-152.5 15.5,-171.5 93.5,-171.5 93.5,-152.5 15.5,-152.5"/>
<text text-anchor="middle" x="54.5" y="-159.5" font-family="Helvetica,sans-Serif" font-size="10.00" fill="#000000">SFPData2110</text>
</a>
</g>
</g>
<!-- Node7&#45;&gt;Node6 -->
<g id="edge6" class="edge">
<title>Node7&#45;&gt;Node6</title>
<path fill="none" stroke="#9a32cd" stroke-dasharray="5,2" d="M103.8088,-162C135.2008,-162 175.6536,-162 206.741,-162"/>
<polygon fill="#9a32cd" stroke="#9a32cd" points="103.5368,-158.5001 93.5368,-162 103.5368,-165.5001 103.5368,-158.5001"/>
<text text-anchor="middle" x="151.5" y="-165" font-family="Helvetica,sans-Serif" font-size="10.00" fill="#000000"> sfp</text>
</g>
<!-- Node8 -->
<g id="node8" class="node">
<title>Node8</title>
<g id="a_node8"><a xlink:href="../../d0/d09/struct_transmit_anc_data2110.html" target="_top" xlink:title="TransmitAncData2110">
<polygon fill="#ffffff" stroke="#000000" points="198,-114.5 198,-133.5 311,-133.5 311,-114.5 198,-114.5"/>
<text text-anchor="middle" x="254.5" y="-121.5" font-family="Helvetica,sans-Serif" font-size="10.00" fill="#000000">TransmitAncData2110</text>
</a>
</g>
</g>
<!-- Node8&#45;&gt;Node1 -->
<g id="edge7" class="edge">
<title>Node8&#45;&gt;Node1</title>
<path fill="none" stroke="#9a32cd" stroke-dasharray="5,2" d="M321.2818,-124C360.8131,-124 410.5193,-124 448.9942,-124"/>
<polygon fill="#9a32cd" stroke="#9a32cd" points="321.2038,-120.5001 311.2037,-124 321.2037,-127.5001 321.2038,-120.5001"/>
<text text-anchor="middle" x="382" y="-127" font-family="Helvetica,sans-Serif" font-size="10.00" fill="#000000"> m_transmitAnc2110</text>
</g>
<!-- Node9 -->
<g id="node9" class="node">
<title>Node9</title>
<g id="a_node9"><a xlink:href="../../d1/da6/struct_tx_anc_ch_data2110.html" target="_top" xlink:title="TxAncChData2110">
<polygon fill="#ffffff" stroke="#000000" points="4.5,-114.5 4.5,-133.5 104.5,-133.5 104.5,-114.5 4.5,-114.5"/>
<text text-anchor="middle" x="54.5" y="-121.5" font-family="Helvetica,sans-Serif" font-size="10.00" fill="#000000">TxAncChData2110</text>
</a>
</g>
</g>
<!-- Node9&#45;&gt;Node8 -->
<g id="edge8" class="edge">
<title>Node9&#45;&gt;Node8</title>
<path fill="none" stroke="#9a32cd" stroke-dasharray="5,2" d="M114.9506,-124C141.2987,-124 172.0134,-124 197.9092,-124"/>
<polygon fill="#9a32cd" stroke="#9a32cd" points="114.7103,-120.5001 104.7103,-124 114.7103,-127.5001 114.7103,-120.5001"/>
<text text-anchor="middle" x="151.5" y="-127" font-family="Helvetica,sans-Serif" font-size="10.00" fill="#000000"> txAncCh</text>
</g>
<!-- Node10 -->
<g id="node10" class="node">
<title>Node10</title>
<g id="a_node10"><a xlink:href="../../d8/d2b/struct_receive_anc_data2110.html" target="_top" xlink:title="ReceiveAncData2110">
<polygon fill="#ffffff" stroke="#000000" points="198.5,-76.5 198.5,-95.5 310.5,-95.5 310.5,-76.5 198.5,-76.5"/>
<text text-anchor="middle" x="254.5" y="-83.5" font-family="Helvetica,sans-Serif" font-size="10.00" fill="#000000">ReceiveAncData2110</text>
</a>
</g>
</g>
<!-- Node10&#45;&gt;Node1 -->
<g id="edge9" class="edge">
<title>Node10&#45;&gt;Node1</title>
<path fill="none" stroke="#9a32cd" stroke-dasharray="5,2" d="M320.701,-93.703C353.8801,-97.7981 394.6364,-103.1835 431,-109 441.0631,-110.6096 451.8109,-112.521 462.0347,-114.4311"/>
<polygon fill="#9a32cd" stroke="#9a32cd" points="321.0116,-90.215 310.6605,-92.4744 320.1614,-97.1631 321.0116,-90.215"/>
<text text-anchor="middle" x="382" y="-112" font-family="Helvetica,sans-Serif" font-size="10.00" fill="#000000"> m_receiveAnc2110</text>
</g>
<!-- Node11 -->
<g id="node11" class="node">
<title>Node11</title>
<g id="a_node11"><a xlink:href="../../d6/dfb/struct_rx_anc_ch_data2110.html" target="_top" xlink:title="RxAncChData2110">
<polygon fill="#ffffff" stroke="#000000" points="4,-76.5 4,-95.5 105,-95.5 105,-76.5 4,-76.5"/>
<text text-anchor="middle" x="54.5" y="-83.5" font-family="Helvetica,sans-Serif" font-size="10.00" fill="#000000">RxAncChData2110</text>
</a>
</g>
</g>
<!-- Node11&#45;&gt;Node10 -->
<g id="edge10" class="edge">
<title>Node11&#45;&gt;Node10</title>
<path fill="none" stroke="#9a32cd" stroke-dasharray="5,2" d="M115.4638,-86C141.7915,-86 172.4014,-86 198.1874,-86"/>
<polygon fill="#9a32cd" stroke="#9a32cd" points="115.227,-82.5001 105.227,-86 115.227,-89.5001 115.227,-82.5001"/>
<text text-anchor="middle" x="151.5" y="-89" font-family="Helvetica,sans-Serif" font-size="10.00" fill="#000000"> rxAncCh</text>
</g>
<!-- Node12 -->
<g id="node12" class="node">
<title>Node12</title>
<g id="a_node12"><a xlink:href="../../d5/d36/struct_transmit_audio_data2110.html" target="_top" xlink:title="TransmitAudioData2110">
<polygon fill="#ffffff" stroke="#000000" points="194,-38.5 194,-57.5 315,-57.5 315,-38.5 194,-38.5"/>
<text text-anchor="middle" x="254.5" y="-45.5" font-family="Helvetica,sans-Serif" font-size="10.00" fill="#000000">TransmitAudioData2110</text>
</a>
</g>
</g>
<!-- Node12&#45;&gt;Node1 -->
<g id="edge11" class="edge">
<title>Node12&#45;&gt;Node1</title>
<path fill="none" stroke="#9a32cd" stroke-dasharray="5,2" d="M324.995,-55.3759C357.869,-60.1734 397.1218,-67.8724 431,-80 455.2402,-88.6774 480.8442,-104.2945 496.1166,-114.3986"/>
<polygon fill="#9a32cd" stroke="#9a32cd" points="325.3991,-51.8985 315.0105,-53.9785 324.4288,-58.8309 325.3991,-51.8985"/>
<text text-anchor="middle" x="382" y="-83" font-family="Helvetica,sans-Serif" font-size="10.00" fill="#000000"> m_transmitAudio2110</text>
</g>
<!-- Node13 -->
<g id="node13" class="node">
<title>Node13</title>
<g id="a_node13"><a xlink:href="../../d9/dec/struct_tx_audio_ch_data2110.html" target="_top" xlink:title="TxAudioChData2110">
<polygon fill="#ffffff" stroke="#000000" points="1,-38.5 1,-57.5 108,-57.5 108,-38.5 1,-38.5"/>
<text text-anchor="middle" x="54.5" y="-45.5" font-family="Helvetica,sans-Serif" font-size="10.00" fill="#000000">TxAudioChData2110</text>
</a>
</g>
</g>
<!-- Node13&#45;&gt;Node12 -->
<g id="edge12" class="edge">
<title>Node13&#45;&gt;Node12</title>
<path fill="none" stroke="#9a32cd" stroke-dasharray="5,2" d="M118.229,-48C142.3849,-48 169.807,-48 193.6873,-48"/>
<polygon fill="#9a32cd" stroke="#9a32cd" points="118.0964,-44.5001 108.0963,-48 118.0963,-51.5001 118.0964,-44.5001"/>
<text text-anchor="middle" x="151.5" y="-51" font-family="Helvetica,sans-Serif" font-size="10.00" fill="#000000"> txAudioCh</text>
</g>
<!-- Node14 -->
<g id="node14" class="node">
<title>Node14</title>
<g id="a_node14"><a xlink:href="../../d3/d17/struct_receive_video_data2110.html" target="_top" xlink:title="ReceiveVideoData2110">
<polygon fill="#ffffff" stroke="#000000" points="195,-.5 195,-19.5 314,-19.5 314,-.5 195,-.5"/>
<text text-anchor="middle" x="254.5" y="-7.5" font-family="Helvetica,sans-Serif" font-size="10.00" fill="#000000">ReceiveVideoData2110</text>
</a>
</g>
</g>
<!-- Node14&#45;&gt;Node1 -->
<g id="edge13" class="edge">
<title>Node14&#45;&gt;Node1</title>
<path fill="none" stroke="#9a32cd" stroke-dasharray="5,2" d="M324.6029,-12.7215C358.395,-16.46 398.5329,-24.6118 431,-42 464.2841,-59.8258 491.8779,-96.6979 503.7446,-114.2729"/>
<polygon fill="#9a32cd" stroke="#9a32cd" points="324.6329,-9.2073 314.3349,-11.6977 323.9382,-16.1727 324.6329,-9.2073"/>
<text text-anchor="middle" x="382" y="-45" font-family="Helvetica,sans-Serif" font-size="10.00" fill="#000000"> m_receiveVideo2110</text>
</g>
<!-- Node15 -->
<g id="node15" class="node">
<title>Node15</title>
<g id="a_node15"><a xlink:href="../../df/db0/struct_rx_video_ch_data2110.html" target="_top" xlink:title="RxVideoChData2110">
<polygon fill="#ffffff" stroke="#000000" points="0,-.5 0,-19.5 109,-19.5 109,-.5 0,-.5"/>
<text text-anchor="middle" x="54.5" y="-7.5" font-family="Helvetica,sans-Serif" font-size="10.00" fill="#000000">RxVideoChData2110</text>
</a>
</g>
</g>
<!-- Node15&#45;&gt;Node14 -->
<g id="edge14" class="edge">
<title>Node15&#45;&gt;Node14</title>
<path fill="none" stroke="#9a32cd" stroke-dasharray="5,2" d="M119.3156,-10C143.5299,-10 170.8987,-10 194.6458,-10"/>
<polygon fill="#9a32cd" stroke="#9a32cd" points="119.1509,-6.5001 109.1509,-10 119.1508,-13.5001 119.1509,-6.5001"/>
<text text-anchor="middle" x="151.5" y="-13" font-family="Helvetica,sans-Serif" font-size="10.00" fill="#000000"> rxVideoCh</text>
</g>
</g>
</svg>
