<?xml version="1.0" encoding="UTF-8" standalone="no"?>
<!DOCTYPE svg PUBLIC "-//W3C//DTD SVG 1.1//EN"
 "http://www.w3.org/Graphics/SVG/1.1/DTD/svg11.dtd">
<!-- Generated by graphviz version 2.43.0 (0)
 -->
<!-- Title: CNTV2MBController Pages: 1 -->
<svg width="366pt" height="140pt"
 viewBox="0.00 0.00 366.00 140.00" xmlns="http://www.w3.org/2000/svg" xmlns:xlink="http://www.w3.org/1999/xlink">
<g id="graph0" class="graph" transform="scale(1 1) rotate(0) translate(4 136)">
<title>CNTV2MBController</title>
<polygon fill="white" stroke="transparent" points="-4,4 -4,-136 362,-136 362,4 -4,4"/>
<!-- Node1 -->
<g id="node1" class="node">
<title>Node1</title>
<g id="a_node1"><a xlink:title=" ">
<polygon fill="#bfbfbf" stroke="black" points="117.5,-56.5 117.5,-75.5 230.5,-75.5 230.5,-56.5 117.5,-56.5"/>
<text text-anchor="middle" x="174" y="-63.5" font-family="Helvetica,sans-Serif" font-size="10.00">CNTV2MBController</text>
</a>
</g>
</g>
<!-- Node3 -->
<g id="node3" class="node">
<title>Node3</title>
<g id="a_node3"><a xlink:href="../../d6/d5d/class_c_n_t_v2_config2022.html" target="_top" xlink:title="The CNTV2Config2022 class is the interface to Kona&#45;IP network I/O using SMPTE 2022.">
<polygon fill="white" stroke="black" points="0,-0.5 0,-19.5 104,-19.5 104,-0.5 0,-0.5"/>
<text text-anchor="middle" x="52" y="-7.5" font-family="Helvetica,sans-Serif" font-size="10.00">CNTV2Config2022</text>
</a>
</g>
</g>
<!-- Node1&#45;&gt;Node3 -->
<g id="edge2" class="edge">
<title>Node1&#45;&gt;Node3</title>
<path fill="none" stroke="midnightblue" d="M145.46,-52.37C122.61,-42.26 91.19,-28.35 71.24,-19.52"/>
<polygon fill="midnightblue" stroke="midnightblue" points="144.11,-55.6 154.67,-56.44 146.94,-49.2 144.11,-55.6"/>
</g>
<!-- Node4 -->
<g id="node4" class="node">
<title>Node4</title>
<g id="a_node4"><a xlink:href="../../d5/da5/class_c_n_t_v2_config2110.html" target="_top" xlink:title="The CNTV2Config2110 class inquires and configures SMPTE 2110 network I/O for KONA IP and Io IP.">
<polygon fill="white" stroke="black" points="122,-0.5 122,-19.5 226,-19.5 226,-0.5 122,-0.5"/>
<text text-anchor="middle" x="174" y="-7.5" font-family="Helvetica,sans-Serif" font-size="10.00">CNTV2Config2110</text>
</a>
</g>
</g>
<!-- Node1&#45;&gt;Node4 -->
<g id="edge3" class="edge">
<title>Node1&#45;&gt;Node4</title>
<path fill="none" stroke="midnightblue" d="M174,-45.8C174,-36.91 174,-26.78 174,-19.75"/>
<polygon fill="midnightblue" stroke="midnightblue" points="170.5,-46.08 174,-56.08 177.5,-46.08 170.5,-46.08"/>
</g>
<!-- Node5 -->
<g id="node5" class="node">
<title>Node5</title>
<g id="a_node5"><a xlink:href="../../d0/d53/class_c_n_t_v2_config_ts2022.html" target="_top" xlink:title="The CNTV2ConfigTs2022 class is the interface to Kona&#45;IP SMPTE 2022 J2K encoder and TS chips.">
<polygon fill="white" stroke="black" points="244,-0.5 244,-19.5 358,-19.5 358,-0.5 244,-0.5"/>
<text text-anchor="middle" x="301" y="-7.5" font-family="Helvetica,sans-Serif" font-size="10.00">CNTV2ConfigTs2022</text>
</a>
</g>
</g>
<!-- Node1&#45;&gt;Node5 -->
<g id="edge4" class="edge">
<title>Node1&#45;&gt;Node5</title>
<path fill="none" stroke="midnightblue" d="M203.39,-52.5C227.2,-42.38 260.11,-28.39 280.97,-19.52"/>
<polygon fill="midnightblue" stroke="midnightblue" points="201.96,-49.31 194.12,-56.44 204.7,-55.75 201.96,-49.31"/>
</g>
<!-- Node2 -->
<g id="node2" class="node">
<title>Node2</title>
<g id="a_node2"><a xlink:href="../../d9/dd0/class_c_n_t_v2_mail_box.html" target="_top" xlink:title=" ">
<polygon fill="white" stroke="black" points="129.5,-112.5 129.5,-131.5 218.5,-131.5 218.5,-112.5 129.5,-112.5"/>
<text text-anchor="middle" x="174" y="-119.5" font-family="Helvetica,sans-Serif" font-size="10.00">CNTV2MailBox</text>
</a>
</g>
</g>
<!-- Node2&#45;&gt;Node1 -->
<g id="edge1" class="edge">
<title>Node2&#45;&gt;Node1</title>
<path fill="none" stroke="midnightblue" d="M174,-101.8C174,-92.91 174,-82.78 174,-75.75"/>
<polygon fill="midnightblue" stroke="midnightblue" points="170.5,-102.08 174,-112.08 177.5,-102.08 170.5,-102.08"/>
</g>
</g>
</svg>
