<?xml version="1.0" encoding="UTF-8" standalone="no"?>
<!DOCTYPE svg PUBLIC "-//W3C//DTD SVG 1.1//EN"
 "http://www.w3.org/Graphics/SVG/1.1/DTD/svg11.dtd">
<!-- Generated by graphviz version 2.43.0 (0)
 -->
<!-- Title: /home/tcbuilder/buildAgent/work/df8e8cce5bebfd58/libajantv2/demos/ntv2overlay/ntv2overlay.h Pages: 1 -->
<svg width="408pt" height="128pt"
 viewBox="0.00 0.00 408.00 128.00" xmlns="http://www.w3.org/2000/svg" xmlns:xlink="http://www.w3.org/1999/xlink">
<g id="graph0" class="graph" transform="scale(1 1) rotate(0) translate(4 124)">
<title>/home/tcbuilder/buildAgent/work/df8e8cce5bebfd58/libajantv2/demos/ntv2overlay/ntv2overlay.h</title>
<polygon fill="white" stroke="transparent" points="-4,4 -4,-124 404,-124 404,4 -4,4"/>
<!-- Node1 -->
<g id="node1" class="node">
<title>Node1</title>
<g id="a_node1"><a xlink:title="Header file for the NTV2Overlay demonstration class.">
<polygon fill="#bfbfbf" stroke="black" points="104,-78.5 104,-119.5 292,-119.5 292,-78.5 104,-78.5"/>
<text text-anchor="start" x="112" y="-107.5" font-family="Helvetica,sans-Serif" font-size="10.00">/home/tcbuilder/buildAgent</text>
<text text-anchor="start" x="112" y="-96.5" font-family="Helvetica,sans-Serif" font-size="10.00">/work/df8e8cce5bebfd58/libajantv2</text>
<text text-anchor="middle" x="198" y="-85.5" font-family="Helvetica,sans-Serif" font-size="10.00">/demos/ntv2overlay/ntv2overlay.h</text>
</a>
</g>
</g>
<!-- Node2 -->
<g id="node2" class="node">
<title>Node2</title>
<g id="a_node2"><a xlink:href="../../d5/dd4/ntv2overlay_2main_8cpp.html" target="_top" xlink:title="Demonstration application that overlays an image (that has transparency) on top of incoming video.">
<polygon fill="white" stroke="black" points="0,-0.5 0,-41.5 188,-41.5 188,-0.5 0,-0.5"/>
<text text-anchor="start" x="8" y="-29.5" font-family="Helvetica,sans-Serif" font-size="10.00">/home/tcbuilder/buildAgent</text>
<text text-anchor="start" x="8" y="-18.5" font-family="Helvetica,sans-Serif" font-size="10.00">/work/df8e8cce5bebfd58/libajantv2</text>
<text text-anchor="middle" x="94" y="-7.5" font-family="Helvetica,sans-Serif" font-size="10.00">/demos/ntv2overlay/main.cpp</text>
</a>
</g>
</g>
<!-- Node1&#45;&gt;Node2 -->
<g id="edge1" class="edge">
<title>Node1&#45;&gt;Node2</title>
<path fill="none" stroke="midnightblue" d="M162.9,-72.35C149.11,-62.27 133.54,-50.89 120.69,-41.51"/>
<polygon fill="midnightblue" stroke="midnightblue" points="161.08,-75.35 171.22,-78.43 165.21,-69.7 161.08,-75.35"/>
</g>
<!-- Node3 -->
<g id="node3" class="node">
<title>Node3</title>
<g id="a_node3"><a xlink:href="../../d6/d70/ntv2overlay_8cpp.html" target="_top" xlink:title="Implementation of NTV2Overlay demonstration class.">
<polygon fill="white" stroke="black" points="206,-0.5 206,-41.5 400,-41.5 400,-0.5 206,-0.5"/>
<text text-anchor="start" x="214" y="-29.5" font-family="Helvetica,sans-Serif" font-size="10.00">/home/tcbuilder/buildAgent</text>
<text text-anchor="start" x="214" y="-18.5" font-family="Helvetica,sans-Serif" font-size="10.00">/work/df8e8cce5bebfd58/libajantv2</text>
<text text-anchor="middle" x="303" y="-7.5" font-family="Helvetica,sans-Serif" font-size="10.00">/demos/ntv2overlay/ntv2overlay.cpp</text>
</a>
</g>
</g>
<!-- Node1&#45;&gt;Node3 -->
<g id="edge2" class="edge">
<title>Node1&#45;&gt;Node3</title>
<path fill="none" stroke="midnightblue" d="M233.44,-72.35C247.36,-62.27 263.08,-50.89 276.05,-41.51"/>
<polygon fill="midnightblue" stroke="midnightblue" points="231.09,-69.73 225.04,-78.43 235.19,-75.4 231.09,-69.73"/>
</g>
</g>
</svg>
