<?xml version="1.0" encoding="UTF-8" standalone="no"?>
<!DOCTYPE svg PUBLIC "-//W3C//DTD SVG 1.1//EN"
 "http://www.w3.org/Graphics/SVG/1.1/DTD/svg11.dtd">
<!-- Generated by graphviz version 2.40.1 (0)
 -->
<!-- Title: CBaseInputPin Pages: 1 -->
<svg width="419pt" height="308pt"
 viewBox="0.00 0.00 419.00 308.00" xmlns="http://www.w3.org/2000/svg" xmlns:xlink="http://www.w3.org/1999/xlink">
<g id="graph0" class="graph" transform="scale(1 1) rotate(0) translate(4 304)">
<title>CBaseInputPin</title>
<polygon fill="#ffffff" stroke="transparent" points="-4,4 -4,-304 415,-304 415,4 -4,4"/>
<!-- Node0 -->
<g id="node1" class="node">
<title>Node0</title>
<polygon fill="#bfbfbf" stroke="#000000" points="191,-112.5 191,-131.5 274,-131.5 274,-112.5 191,-112.5"/>
<text text-anchor="middle" x="232.5" y="-119.5" font-family="Helvetica,sans-Serif" font-size="10.00" fill="#000000">CBaseInputPin</text>
</g>
<!-- Node8 -->
<g id="node9" class="node">
<title>Node8</title>
<g id="a_node9"><a xlink:href="../../da/dcf/class_c_rendered_input_pin.html" target="_top" xlink:title="CRenderedInputPin">
<polygon fill="#ffffff" stroke="#000000" points="62.5,-56.5 62.5,-75.5 164.5,-75.5 164.5,-56.5 62.5,-56.5"/>
<text text-anchor="middle" x="113.5" y="-63.5" font-family="Helvetica,sans-Serif" font-size="10.00" fill="#000000">CRenderedInputPin</text>
</a>
</g>
</g>
<!-- Node0&#45;&gt;Node8 -->
<g id="edge8" class="edge">
<title>Node0&#45;&gt;Node8</title>
<path fill="none" stroke="#191970" d="M202.9856,-108.1109C181.4062,-97.9559 152.7024,-84.4482 133.6899,-75.5011"/>
<polygon fill="#191970" stroke="#191970" points="201.5047,-111.2821 212.0432,-112.3733 204.4853,-104.9484 201.5047,-111.2821"/>
</g>
<!-- Node9 -->
<g id="node10" class="node">
<title>Node9</title>
<g id="a_node10"><a xlink:href="../../d3/d06/class_c_renderer_input_pin.html" target="_top" xlink:title="CRendererInputPin">
<polygon fill="#ffffff" stroke="#000000" points="182.5,-56.5 182.5,-75.5 282.5,-75.5 282.5,-56.5 182.5,-56.5"/>
<text text-anchor="middle" x="232.5" y="-63.5" font-family="Helvetica,sans-Serif" font-size="10.00" fill="#000000">CRendererInputPin</text>
</a>
</g>
</g>
<!-- Node0&#45;&gt;Node9 -->
<g id="edge9" class="edge">
<title>Node0&#45;&gt;Node9</title>
<path fill="none" stroke="#191970" d="M232.5,-102.1575C232.5,-93.155 232.5,-82.9199 232.5,-75.6427"/>
<polygon fill="#191970" stroke="#191970" points="229.0001,-102.2455 232.5,-112.2455 236.0001,-102.2456 229.0001,-102.2455"/>
</g>
<!-- Node10 -->
<g id="node11" class="node">
<title>Node10</title>
<g id="a_node11"><a xlink:href="../../d4/dd3/class_c_transform_input_pin.html" target="_top" xlink:title="CTransformInputPin">
<polygon fill="#ffffff" stroke="#000000" points="300.5,-56.5 300.5,-75.5 404.5,-75.5 404.5,-56.5 300.5,-56.5"/>
<text text-anchor="middle" x="352.5" y="-63.5" font-family="Helvetica,sans-Serif" font-size="10.00" fill="#000000">CTransformInputPin</text>
</a>
</g>
</g>
<!-- Node0&#45;&gt;Node10 -->
<g id="edge10" class="edge">
<title>Node0&#45;&gt;Node10</title>
<path fill="none" stroke="#191970" d="M262.2624,-108.1109C284.0232,-97.9559 312.9682,-84.4482 332.1405,-75.5011"/>
<polygon fill="#191970" stroke="#191970" points="260.7105,-104.9727 253.1287,-112.3733 263.6707,-111.316 260.7105,-104.9727"/>
</g>
<!-- Node1 -->
<g id="node2" class="node">
<title>Node1</title>
<g id="a_node2"><a xlink:href="../../d8/d75/class_c_base_pin.html" target="_top" xlink:title="CBasePin">
<polygon fill="#ffffff" stroke="#000000" points="159,-168.5 159,-187.5 220,-187.5 220,-168.5 159,-168.5"/>
<text text-anchor="middle" x="189.5" y="-175.5" font-family="Helvetica,sans-Serif" font-size="10.00" fill="#000000">CBasePin</text>
</a>
</g>
</g>
<!-- Node1&#45;&gt;Node0 -->
<g id="edge1" class="edge">
<title>Node1&#45;&gt;Node0</title>
<path fill="none" stroke="#191970" d="M203.1592,-160.2112C210.4263,-150.7472 219.0781,-139.4797 225.0958,-131.6427"/>
<polygon fill="#191970" stroke="#191970" points="200.3043,-158.1824 196.99,-168.2455 205.8564,-162.4456 200.3043,-158.1824"/>
</g>
<!-- Node2 -->
<g id="node3" class="node">
<title>Node2</title>
<g id="a_node3"><a xlink:href="../../d9/d89/class_c_unknown.html" target="_top" xlink:title="CUnknown">
<polygon fill="#ffffff" stroke="#000000" points="89,-224.5 89,-243.5 154,-243.5 154,-224.5 89,-224.5"/>
<text text-anchor="middle" x="121.5" y="-231.5" font-family="Helvetica,sans-Serif" font-size="10.00" fill="#000000">CUnknown</text>
</a>
</g>
</g>
<!-- Node2&#45;&gt;Node1 -->
<g id="edge2" class="edge">
<title>Node2&#45;&gt;Node1</title>
<path fill="none" stroke="#191970" d="M141.3596,-217.645C153.1858,-207.9058 167.7892,-195.8795 177.791,-187.6427"/>
<polygon fill="#191970" stroke="#191970" points="138.839,-215.1867 133.3447,-224.2455 143.289,-220.5902 138.839,-215.1867"/>
</g>
<!-- Node3 -->
<g id="node4" class="node">
<title>Node3</title>
<polygon fill="#ffffff" stroke="#bfbfbf" points="0,-280.5 0,-299.5 125,-299.5 125,-280.5 0,-280.5"/>
<text text-anchor="middle" x="62.5" y="-287.5" font-family="Helvetica,sans-Serif" font-size="10.00" fill="#000000">INonDelegatingUnknown</text>
</g>
<!-- Node3&#45;&gt;Node2 -->
<g id="edge3" class="edge">
<title>Node3&#45;&gt;Node2</title>
<path fill="none" stroke="#191970" d="M80.0307,-273.3607C90.2377,-263.6727 102.7469,-251.7995 111.3408,-243.6427"/>
<polygon fill="#191970" stroke="#191970" points="77.6206,-270.8227 72.777,-280.2455 82.4396,-275.8998 77.6206,-270.8227"/>
</g>
<!-- Node4 -->
<g id="node5" class="node">
<title>Node4</title>
<g id="a_node5"><a xlink:href="../../d1/d2d/class_c_base_object.html" target="_top" xlink:title="CBaseObject">
<polygon fill="#ffffff" stroke="#000000" points="143,-280.5 143,-299.5 218,-299.5 218,-280.5 143,-280.5"/>
<text text-anchor="middle" x="180.5" y="-287.5" font-family="Helvetica,sans-Serif" font-size="10.00" fill="#000000">CBaseObject</text>
</a>
</g>
</g>
<!-- Node4&#45;&gt;Node2 -->
<g id="edge4" class="edge">
<title>Node4&#45;&gt;Node2</title>
<path fill="none" stroke="#191970" d="M162.9693,-273.3607C152.7623,-263.6727 140.2531,-251.7995 131.6592,-243.6427"/>
<polygon fill="#191970" stroke="#191970" points="160.5604,-275.8998 170.223,-280.2455 165.3794,-270.8227 160.5604,-275.8998"/>
</g>
<!-- Node5 -->
<g id="node6" class="node">
<title>Node5</title>
<polygon fill="#ffffff" stroke="#bfbfbf" points="172.5,-224.5 172.5,-243.5 206.5,-243.5 206.5,-224.5 172.5,-224.5"/>
<text text-anchor="middle" x="189.5" y="-231.5" font-family="Helvetica,sans-Serif" font-size="10.00" fill="#000000">IPin</text>
</g>
<!-- Node5&#45;&gt;Node1 -->
<g id="edge5" class="edge">
<title>Node5&#45;&gt;Node1</title>
<path fill="none" stroke="#191970" d="M189.5,-214.1575C189.5,-205.155 189.5,-194.9199 189.5,-187.6427"/>
<polygon fill="#191970" stroke="#191970" points="186.0001,-214.2455 189.5,-224.2455 193.0001,-214.2456 186.0001,-214.2455"/>
</g>
<!-- Node6 -->
<g id="node7" class="node">
<title>Node6</title>
<polygon fill="#ffffff" stroke="#bfbfbf" points="224.5,-224.5 224.5,-243.5 306.5,-243.5 306.5,-224.5 224.5,-224.5"/>
<text text-anchor="middle" x="265.5" y="-231.5" font-family="Helvetica,sans-Serif" font-size="10.00" fill="#000000">IQualityControl</text>
</g>
<!-- Node6&#45;&gt;Node1 -->
<g id="edge6" class="edge">
<title>Node6&#45;&gt;Node1</title>
<path fill="none" stroke="#191970" d="M244.0703,-218.2097C230.7223,-208.3743 213.9821,-196.0394 202.5865,-187.6427"/>
<polygon fill="#191970" stroke="#191970" points="242.135,-221.1312 252.2618,-224.2455 246.2874,-215.4958 242.135,-221.1312"/>
</g>
<!-- Node7 -->
<g id="node8" class="node">
<title>Node7</title>
<polygon fill="#ffffff" stroke="#bfbfbf" points="238,-168.5 238,-187.5 315,-187.5 315,-168.5 238,-168.5"/>
<text text-anchor="middle" x="276.5" y="-175.5" font-family="Helvetica,sans-Serif" font-size="10.00" fill="#000000">IMemInputPin</text>
</g>
<!-- Node7&#45;&gt;Node0 -->
<g id="edge7" class="edge">
<title>Node7&#45;&gt;Node0</title>
<path fill="none" stroke="#191970" d="M262.5231,-160.2112C255.0871,-150.7472 246.234,-139.4797 240.0764,-131.6427"/>
<polygon fill="#191970" stroke="#191970" points="259.9054,-162.5447 268.8358,-168.2455 265.4097,-158.22 259.9054,-162.5447"/>
</g>
<!-- Node11 -->
<g id="node12" class="node">
<title>Node11</title>
<g id="a_node12"><a xlink:href="../../d4/d7f/class_c_trans_in_place_input_pin.html" target="_top" xlink:title="CTransInPlaceInputPin">
<polygon fill="#ffffff" stroke="#000000" points="294,-.5 294,-19.5 411,-19.5 411,-.5 294,-.5"/>
<text text-anchor="middle" x="352.5" y="-7.5" font-family="Helvetica,sans-Serif" font-size="10.00" fill="#000000">CTransInPlaceInputPin</text>
</a>
</g>
</g>
<!-- Node10&#45;&gt;Node11 -->
<g id="edge11" class="edge">
<title>Node10&#45;&gt;Node11</title>
<path fill="none" stroke="#191970" d="M352.5,-46.1575C352.5,-37.155 352.5,-26.9199 352.5,-19.6427"/>
<polygon fill="#191970" stroke="#191970" points="349.0001,-46.2455 352.5,-56.2455 356.0001,-46.2456 349.0001,-46.2455"/>
</g>
</g>
</svg>
