<?xml version="1.0" encoding="UTF-8" standalone="no"?>
<!DOCTYPE svg PUBLIC "-//W3C//DTD SVG 1.1//EN"
 "http://www.w3.org/Graphics/SVG/1.1/DTD/svg11.dtd">
<!-- Generated by graphviz version 2.43.0 (0)
 -->
<!-- Title: CTransformOutputPin Pages: 1 -->
<svg width="572pt" height="490pt"
 viewBox="0.00 0.00 572.00 490.00" xmlns="http://www.w3.org/2000/svg" xmlns:xlink="http://www.w3.org/1999/xlink">
<g id="graph0" class="graph" transform="scale(1 1) rotate(0) translate(4 486)">
<title>CTransformOutputPin</title>
<polygon fill="white" stroke="transparent" points="-4,4 -4,-486 568,-486 568,4 -4,4"/>
<!-- Node1 -->
<g id="node1" class="node">
<title>Node1</title>
<g id="a_node1"><a xlink:title=" ">
<polygon fill="#bfbfbf" stroke="black" points="168,-134.5 168,-153.5 288,-153.5 288,-134.5 168,-134.5"/>
<text text-anchor="middle" x="228" y="-141.5" font-family="Helvetica,sans-Serif" font-size="10.00">CTransformOutputPin</text>
</a>
</g>
</g>
<!-- Node16 -->
<g id="node16" class="node">
<title>Node16</title>
<g id="a_node16"><a xlink:href="../../db/d30/class_c_transform_filter.html" target="_top" xlink:title=" ">
<polygon fill="white" stroke="black" points="67.5,-67.5 67.5,-86.5 164.5,-86.5 164.5,-67.5 67.5,-67.5"/>
<text text-anchor="middle" x="116" y="-74.5" font-family="Helvetica,sans-Serif" font-size="10.00">CTransformFilter</text>
</a>
</g>
</g>
<!-- Node1&#45;&gt;Node16 -->
<g id="edge20" class="edge">
<title>Node1&#45;&gt;Node16</title>
<path fill="none" stroke="#9a32cd" stroke-dasharray="5,2" d="M225.34,-124.16C223.48,-117.3 220.34,-110.01 215,-105 201.43,-92.26 182.44,-85.42 164.72,-81.79"/>
<polygon fill="#9a32cd" stroke="#9a32cd" points="221.95,-125.06 227.32,-134.2 228.82,-123.71 221.95,-125.06"/>
<text text-anchor="middle" x="252" y="-108" font-family="Helvetica,sans-Serif" font-size="10.00"> m_pOutput</text>
</g>
<!-- Node2 -->
<g id="node2" class="node">
<title>Node2</title>
<g id="a_node2"><a xlink:href="../../dc/d8e/class_c_base_output_pin.html" target="_top" xlink:title=" ">
<polygon fill="white" stroke="black" points="180.5,-191.5 180.5,-210.5 275.5,-210.5 275.5,-191.5 180.5,-191.5"/>
<text text-anchor="middle" x="228" y="-198.5" font-family="Helvetica,sans-Serif" font-size="10.00">CBaseOutputPin</text>
</a>
</g>
</g>
<!-- Node2&#45;&gt;Node1 -->
<g id="edge1" class="edge">
<title>Node2&#45;&gt;Node1</title>
<path fill="none" stroke="midnightblue" d="M228,-181.12C228,-171.82 228,-161.06 228,-153.71"/>
<polygon fill="midnightblue" stroke="midnightblue" points="224.5,-181.41 228,-191.41 231.5,-181.41 224.5,-181.41"/>
</g>
<!-- Node3 -->
<g id="node3" class="node">
<title>Node3</title>
<g id="a_node3"><a xlink:href="../../d8/d75/class_c_base_pin.html" target="_top" xlink:title=" ">
<polygon fill="white" stroke="black" points="242,-269.5 242,-288.5 304,-288.5 304,-269.5 242,-269.5"/>
<text text-anchor="middle" x="273" y="-276.5" font-family="Helvetica,sans-Serif" font-size="10.00">CBasePin</text>
</a>
</g>
</g>
<!-- Node3&#45;&gt;Node2 -->
<g id="edge2" class="edge">
<title>Node3&#45;&gt;Node2</title>
<path fill="none" stroke="midnightblue" d="M262.68,-260.57C253.43,-244.95 240.26,-222.7 233.1,-210.62"/>
<polygon fill="midnightblue" stroke="midnightblue" points="259.73,-262.46 267.84,-269.28 265.75,-258.89 259.73,-262.46"/>
</g>
<!-- Node18 -->
<g id="node18" class="node">
<title>Node18</title>
<g id="a_node18"><a xlink:href="../../d6/d58/class_c_base_input_pin.html" target="_top" xlink:title=" ">
<polygon fill="white" stroke="black" points="293.5,-191.5 293.5,-210.5 380.5,-210.5 380.5,-191.5 293.5,-191.5"/>
<text text-anchor="middle" x="337" y="-198.5" font-family="Helvetica,sans-Serif" font-size="10.00">CBaseInputPin</text>
</a>
</g>
</g>
<!-- Node3&#45;&gt;Node18 -->
<g id="edge23" class="edge">
<title>Node3&#45;&gt;Node18</title>
<path fill="none" stroke="midnightblue" d="M286.94,-261.44C300.12,-245.79 319.38,-222.93 329.74,-210.62"/>
<polygon fill="midnightblue" stroke="midnightblue" points="284.11,-259.38 280.34,-269.28 289.46,-263.89 284.11,-259.38"/>
</g>
<!-- Node4 -->
<g id="node4" class="node">
<title>Node4</title>
<g id="a_node4"><a xlink:href="../../d9/d89/class_c_unknown.html" target="_top" xlink:title=" ">
<polygon fill="white" stroke="black" points="290.5,-405.5 290.5,-424.5 359.5,-424.5 359.5,-405.5 290.5,-405.5"/>
<text text-anchor="middle" x="325" y="-412.5" font-family="Helvetica,sans-Serif" font-size="10.00">CUnknown</text>
</a>
</g>
</g>
<!-- Node4&#45;&gt;Node3 -->
<g id="edge3" class="edge">
<title>Node4&#45;&gt;Node3</title>
<path fill="none" stroke="midnightblue" d="M345.33,-398.24C348.42,-394.88 351.18,-391.09 353,-387 362.22,-366.29 364.53,-356.08 354,-336 341.85,-312.83 315.29,-297.36 295.89,-288.65"/>
<polygon fill="midnightblue" stroke="midnightblue" points="342.73,-395.88 337.81,-405.27 347.51,-401 342.73,-395.88"/>
</g>
<!-- Node13 -->
<g id="node13" class="node">
<title>Node13</title>
<g id="a_node13"><a xlink:href="../../d5/d74/class_c_base_filter.html" target="_top" xlink:title=" ">
<polygon fill="white" stroke="black" points="111,-337.5 111,-356.5 183,-356.5 183,-337.5 111,-337.5"/>
<text text-anchor="middle" x="147" y="-344.5" font-family="Helvetica,sans-Serif" font-size="10.00">CBaseFilter</text>
</a>
</g>
</g>
<!-- Node4&#45;&gt;Node13 -->
<g id="edge13" class="edge">
<title>Node4&#45;&gt;Node13</title>
<path fill="none" stroke="midnightblue" d="M292.3,-401.87C256.83,-388.72 201.12,-368.07 169.99,-356.53"/>
<polygon fill="midnightblue" stroke="midnightblue" points="291.14,-405.18 301.73,-405.37 293.57,-398.61 291.14,-405.18"/>
</g>
<!-- Node5 -->
<g id="node5" class="node">
<title>Node5</title>
<g id="a_node5"><a xlink:title=" ">
<polygon fill="white" stroke="#bfbfbf" points="192,-462.5 192,-481.5 330,-481.5 330,-462.5 192,-462.5"/>
<text text-anchor="middle" x="261" y="-469.5" font-family="Helvetica,sans-Serif" font-size="10.00">INonDelegatingUnknown</text>
</a>
</g>
</g>
<!-- Node5&#45;&gt;Node4 -->
<g id="edge4" class="edge">
<title>Node5&#45;&gt;Node4</title>
<path fill="none" stroke="midnightblue" d="M278.79,-455.71C290.42,-445.72 305.19,-433.02 314.86,-424.71"/>
<polygon fill="midnightblue" stroke="midnightblue" points="276.3,-453.23 271,-462.41 280.87,-458.54 276.3,-453.23"/>
</g>
<!-- Node6 -->
<g id="node6" class="node">
<title>Node6</title>
<g id="a_node6"><a xlink:href="../../d1/d2d/class_c_base_object.html" target="_top" xlink:title=" ">
<polygon fill="white" stroke="black" points="348.5,-462.5 348.5,-481.5 427.5,-481.5 427.5,-462.5 348.5,-462.5"/>
<text text-anchor="middle" x="388" y="-469.5" font-family="Helvetica,sans-Serif" font-size="10.00">CBaseObject</text>
</a>
</g>
</g>
<!-- Node6&#45;&gt;Node4 -->
<g id="edge5" class="edge">
<title>Node6&#45;&gt;Node4</title>
<path fill="none" stroke="midnightblue" d="M370.48,-455.71C359.04,-445.72 344.5,-433.02 334.98,-424.71"/>
<polygon fill="midnightblue" stroke="midnightblue" points="368.32,-458.47 378.16,-462.41 372.92,-453.19 368.32,-458.47"/>
</g>
<!-- Node7 -->
<g id="node7" class="node">
<title>Node7</title>
<g id="a_node7"><a xlink:title=" ">
<polygon fill="white" stroke="#bfbfbf" points="201.5,-337.5 201.5,-356.5 236.5,-356.5 236.5,-337.5 201.5,-337.5"/>
<text text-anchor="middle" x="219" y="-344.5" font-family="Helvetica,sans-Serif" font-size="10.00">IPin</text>
</a>
</g>
</g>
<!-- Node7&#45;&gt;Node3 -->
<g id="edge6" class="edge">
<title>Node7&#45;&gt;Node3</title>
<path fill="none" stroke="midnightblue" d="M232.66,-329.31C243.18,-316.44 257.33,-299.16 265.77,-288.84"/>
<polygon fill="midnightblue" stroke="midnightblue" points="229.68,-327.42 226.06,-337.37 235.1,-331.85 229.68,-327.42"/>
</g>
<!-- Node8 -->
<g id="node8" class="node">
<title>Node8</title>
<g id="a_node8"><a xlink:title=" ">
<polygon fill="white" stroke="#bfbfbf" points="255,-337.5 255,-356.5 345,-356.5 345,-337.5 255,-337.5"/>
<text text-anchor="middle" x="300" y="-344.5" font-family="Helvetica,sans-Serif" font-size="10.00">IQualityControl</text>
</a>
</g>
</g>
<!-- Node8&#45;&gt;Node3 -->
<g id="edge7" class="edge">
<title>Node8&#45;&gt;Node3</title>
<path fill="none" stroke="midnightblue" d="M292.56,-327.81C287.37,-315.12 280.68,-298.76 276.62,-288.84"/>
<polygon fill="midnightblue" stroke="midnightblue" points="289.44,-329.44 296.47,-337.37 295.92,-326.79 289.44,-329.44"/>
</g>
<!-- Node9 -->
<g id="node9" class="node">
<title>Node9</title>
<g id="a_node9"><a xlink:href="../../dc/da7/class_c_ref_time.html" target="_top" xlink:title=" ">
<polygon fill="white" stroke="black" points="380.5,-405.5 380.5,-424.5 445.5,-424.5 445.5,-405.5 380.5,-405.5"/>
<text text-anchor="middle" x="413" y="-412.5" font-family="Helvetica,sans-Serif" font-size="10.00">CRefTime</text>
</a>
</g>
</g>
<!-- Node9&#45;&gt;Node3 -->
<g id="edge8" class="edge">
<title>Node9&#45;&gt;Node3</title>
<path fill="none" stroke="#9a32cd" stroke-dasharray="5,2" d="M407.03,-395.74C398.15,-371.54 379.08,-329.32 348,-307 334.96,-297.63 318.34,-291.21 304.06,-286.99"/>
<polygon fill="#9a32cd" stroke="#9a32cd" points="403.82,-397.15 410.4,-405.45 410.43,-394.86 403.82,-397.15"/>
<text text-anchor="middle" x="411" y="-350" font-family="Helvetica,sans-Serif" font-size="10.00"> m_tStop</text>
<text text-anchor="middle" x="411" y="-339" font-family="Helvetica,sans-Serif" font-size="10.00">m_tStart</text>
</g>
<!-- Node9&#45;&gt;Node13 -->
<g id="edge16" class="edge">
<title>Node9&#45;&gt;Node13</title>
<path fill="none" stroke="#9a32cd" stroke-dasharray="5,2" d="M370.4,-403.43C317.98,-390.42 230,-368.59 181.57,-356.58"/>
<polygon fill="#9a32cd" stroke="#9a32cd" points="369.83,-406.9 380.38,-405.91 371.52,-400.1 369.83,-406.9"/>
<text text-anchor="middle" x="326" y="-379" font-family="Helvetica,sans-Serif" font-size="10.00"> m_tStart</text>
</g>
<!-- Node10 -->
<g id="node10" class="node">
<title>Node10</title>
<g id="a_node10"><a xlink:href="../../d7/da7/class_c_media_type.html" target="_top" xlink:title=" ">
<polygon fill="white" stroke="black" points="481,-337.5 481,-356.5 557,-356.5 557,-337.5 481,-337.5"/>
<text text-anchor="middle" x="519" y="-344.5" font-family="Helvetica,sans-Serif" font-size="10.00">CMediaType</text>
</a>
</g>
</g>
<!-- Node10&#45;&gt;Node3 -->
<g id="edge9" class="edge">
<title>Node10&#45;&gt;Node3</title>
<path fill="none" stroke="#9a32cd" stroke-dasharray="5,2" d="M494.52,-332.7C477.69,-324.1 454.55,-313.37 433,-307 381.28,-291.72 366.01,-298.93 313,-289 310.2,-288.48 307.3,-287.9 304.4,-287.29"/>
<polygon fill="#9a32cd" stroke="#9a32cd" points="493.17,-335.94 503.65,-337.46 496.41,-329.73 493.17,-335.94"/>
<text text-anchor="middle" x="478" y="-310" font-family="Helvetica,sans-Serif" font-size="10.00"> m_mt</text>
</g>
<!-- Node11 -->
<g id="node11" class="node">
<title>Node11</title>
<g id="a_node11"><a xlink:title=" ">
<polygon fill="white" stroke="#bfbfbf" points="474,-405.5 474,-424.5 564,-424.5 564,-405.5 474,-405.5"/>
<text text-anchor="middle" x="519" y="-412.5" font-family="Helvetica,sans-Serif" font-size="10.00">_AMMediaType</text>
</a>
</g>
</g>
<!-- Node11&#45;&gt;Node10 -->
<g id="edge10" class="edge">
<title>Node11&#45;&gt;Node10</title>
<path fill="none" stroke="midnightblue" d="M519,-395.04C519,-382.47 519,-366.56 519,-356.84"/>
<polygon fill="midnightblue" stroke="midnightblue" points="515.5,-395.37 519,-405.37 522.5,-395.37 515.5,-395.37"/>
</g>
<!-- Node12 -->
<g id="node12" class="node">
<title>Node12</title>
<g id="a_node12"><a xlink:href="../../d5/d24/class_c_crit_sec.html" target="_top" xlink:title=" ">
<polygon fill="white" stroke="black" points="17,-405.5 17,-424.5 75,-424.5 75,-405.5 17,-405.5"/>
<text text-anchor="middle" x="46" y="-412.5" font-family="Helvetica,sans-Serif" font-size="10.00">CCritSec</text>
</a>
</g>
</g>
<!-- Node12&#45;&gt;Node3 -->
<g id="edge11" class="edge">
<title>Node12&#45;&gt;Node3</title>
<path fill="none" stroke="#9a32cd" stroke-dasharray="5,2" d="M42.67,-395.16C40.74,-377.71 40.96,-352.1 55,-336 79.4,-308.02 187.66,-290.73 241.87,-283.67"/>
<polygon fill="#9a32cd" stroke="#9a32cd" points="39.24,-395.87 44.14,-405.26 46.17,-394.87 39.24,-395.87"/>
<text text-anchor="middle" x="78.5" y="-344.5" font-family="Helvetica,sans-Serif" font-size="10.00"> m_pLock</text>
</g>
<!-- Node12&#45;&gt;Node13 -->
<g id="edge17" class="edge">
<title>Node12&#45;&gt;Node13</title>
<path fill="none" stroke="#9a32cd" stroke-dasharray="5,2" d="M63.6,-398.79C72.43,-391.49 83.47,-382.86 94,-376 105.16,-368.72 118.41,-361.72 128.87,-356.54"/>
<polygon fill="#9a32cd" stroke="#9a32cd" points="61.29,-396.16 55.89,-405.28 65.8,-401.52 61.29,-396.16"/>
<text text-anchor="middle" x="117.5" y="-379" font-family="Helvetica,sans-Serif" font-size="10.00"> m_pLock</text>
</g>
<!-- Node12&#45;&gt;Node16 -->
<g id="edge26" class="edge">
<title>Node12&#45;&gt;Node16</title>
<path fill="none" stroke="#9a32cd" stroke-dasharray="5,2" d="M26.87,-398.3C14.24,-386.08 0,-367.89 0,-348 0,-348 0,-348 0,-143 0,-110.22 35.69,-93.81 67.48,-85.69"/>
<polygon fill="#9a32cd" stroke="#9a32cd" points="24.63,-400.99 34.39,-405.1 29.32,-395.8 24.63,-400.99"/>
<text text-anchor="middle" x="34" y="-243" font-family="Helvetica,sans-Serif" font-size="10.00"> m_csReceive</text>
<text text-anchor="middle" x="34" y="-232" font-family="Helvetica,sans-Serif" font-size="10.00">m_csFilter</text>
</g>
<!-- Node13&#45;&gt;Node3 -->
<g id="edge12" class="edge">
<title>Node13&#45;&gt;Node3</title>
<path fill="none" stroke="#9a32cd" stroke-dasharray="5,2" d="M161.36,-330.1C169.18,-322.24 179.41,-313.14 190,-307 205.99,-297.72 225.59,-291.16 241.73,-286.82"/>
<polygon fill="#9a32cd" stroke="#9a32cd" points="158.78,-327.74 154.42,-337.4 163.85,-332.57 158.78,-327.74"/>
<text text-anchor="middle" x="214.5" y="-310" font-family="Helvetica,sans-Serif" font-size="10.00"> m_pFilter</text>
</g>
<!-- Node13&#45;&gt;Node16 -->
<g id="edge19" class="edge">
<title>Node13&#45;&gt;Node16</title>
<path fill="none" stroke="midnightblue" d="M120.62,-332.13C102.99,-320.76 83,-302.83 83,-280 83,-280 83,-280 83,-143 83,-120.73 98.6,-98.36 108.35,-86.55"/>
<polygon fill="midnightblue" stroke="midnightblue" points="119.14,-335.32 129.51,-337.47 122.74,-329.32 119.14,-335.32"/>
</g>
<!-- Node14 -->
<g id="node14" class="node">
<title>Node14</title>
<g id="a_node14"><a xlink:title=" ">
<polygon fill="white" stroke="#bfbfbf" points="203,-405.5 203,-424.5 271,-424.5 271,-405.5 203,-405.5"/>
<text text-anchor="middle" x="237" y="-412.5" font-family="Helvetica,sans-Serif" font-size="10.00">IBaseFilter</text>
</a>
</g>
</g>
<!-- Node14&#45;&gt;Node13 -->
<g id="edge14" class="edge">
<title>Node14&#45;&gt;Node13</title>
<path fill="none" stroke="midnightblue" d="M217.17,-399.46C199.29,-386.34 173.59,-367.5 158.77,-356.63"/>
<polygon fill="midnightblue" stroke="midnightblue" points="215.1,-402.28 225.23,-405.37 219.24,-396.64 215.1,-402.28"/>
</g>
<!-- Node15 -->
<g id="node15" class="node">
<title>Node15</title>
<g id="a_node15"><a xlink:title=" ">
<polygon fill="white" stroke="#bfbfbf" points="101,-405.5 101,-424.5 185,-424.5 185,-405.5 101,-405.5"/>
<text text-anchor="middle" x="143" y="-412.5" font-family="Helvetica,sans-Serif" font-size="10.00">IAMovieSetup</text>
</a>
</g>
</g>
<!-- Node15&#45;&gt;Node13 -->
<g id="edge15" class="edge">
<title>Node15&#45;&gt;Node13</title>
<path fill="none" stroke="midnightblue" d="M144.15,-395.04C144.91,-382.47 145.87,-366.56 146.46,-356.84"/>
<polygon fill="midnightblue" stroke="midnightblue" points="140.63,-395.18 143.52,-405.37 147.62,-395.6 140.63,-395.18"/>
</g>
<!-- Node16&#45;&gt;Node1 -->
<g id="edge18" class="edge">
<title>Node16&#45;&gt;Node1</title>
<path fill="none" stroke="#9a32cd" stroke-dasharray="5,2" d="M112.06,-96.93C111.74,-103.6 112.75,-110.74 117,-116 123.88,-124.53 145.51,-130.72 167.86,-135.01"/>
<polygon fill="#9a32cd" stroke="#9a32cd" points="115.6,-96.95 113.52,-86.56 108.66,-95.97 115.6,-96.95"/>
<text text-anchor="middle" x="166" y="-108" font-family="Helvetica,sans-Serif" font-size="10.00"> m_pTransformFilter</text>
</g>
<!-- Node17 -->
<g id="node17" class="node">
<title>Node17</title>
<g id="a_node17"><a xlink:href="../../d4/dd3/class_c_transform_input_pin.html" target="_top" xlink:title=" ">
<polygon fill="white" stroke="black" points="132,-0.5 132,-19.5 244,-19.5 244,-0.5 132,-0.5"/>
<text text-anchor="middle" x="188" y="-7.5" font-family="Helvetica,sans-Serif" font-size="10.00">CTransformInputPin</text>
</a>
</g>
</g>
<!-- Node16&#45;&gt;Node17 -->
<g id="edge25" class="edge">
<title>Node16&#45;&gt;Node17</title>
<path fill="none" stroke="#9a32cd" stroke-dasharray="5,2" d="M147.16,-62.62C153.85,-58.84 160.55,-54.29 166,-49 174.64,-40.61 181,-28.1 184.6,-19.75"/>
<polygon fill="#9a32cd" stroke="#9a32cd" points="145.41,-59.58 138.14,-67.29 148.63,-65.8 145.41,-59.58"/>
<text text-anchor="middle" x="224" y="-41" font-family="Helvetica,sans-Serif" font-size="10.00"> m_pTransformFilter</text>
</g>
<!-- Node17&#45;&gt;Node16 -->
<g id="edge21" class="edge">
<title>Node17&#45;&gt;Node16</title>
<path fill="none" stroke="#9a32cd" stroke-dasharray="5,2" d="M132.75,-24.1C126.61,-27.67 121.1,-32.22 117,-38 110.97,-46.51 112,-58.99 113.68,-67.3"/>
<polygon fill="#9a32cd" stroke="#9a32cd" points="134.67,-27.06 142.12,-19.54 131.6,-20.77 134.67,-27.06"/>
<text text-anchor="middle" x="141.5" y="-41" font-family="Helvetica,sans-Serif" font-size="10.00"> m_pInput</text>
</g>
<!-- Node18&#45;&gt;Node17 -->
<g id="edge22" class="edge">
<title>Node18&#45;&gt;Node17</title>
<path fill="none" stroke="midnightblue" d="M335.34,-180.85C331.39,-147.11 318.41,-76.99 277,-38 267.95,-29.48 256.29,-23.64 244.41,-19.64"/>
<polygon fill="midnightblue" stroke="midnightblue" points="331.9,-181.56 336.39,-191.15 338.86,-180.85 331.9,-181.56"/>
</g>
<!-- Node19 -->
<g id="node19" class="node">
<title>Node19</title>
<g id="a_node19"><a xlink:title=" ">
<polygon fill="white" stroke="#bfbfbf" points="322,-269.5 322,-288.5 406,-288.5 406,-269.5 322,-269.5"/>
<text text-anchor="middle" x="364" y="-276.5" font-family="Helvetica,sans-Serif" font-size="10.00">IMemInputPin</text>
</a>
</g>
</g>
<!-- Node19&#45;&gt;Node18 -->
<g id="edge24" class="edge">
<title>Node19&#45;&gt;Node18</title>
<path fill="none" stroke="midnightblue" d="M357.49,-259.67C351.96,-244.11 344.27,-222.47 340.06,-210.62"/>
<polygon fill="midnightblue" stroke="midnightblue" points="354.26,-261.03 360.9,-269.28 360.85,-258.69 354.26,-261.03"/>
</g>
</g>
</svg>
