<?xml version="1.0" encoding="UTF-8" standalone="no"?>
<!DOCTYPE svg PUBLIC "-//W3C//DTD SVG 1.1//EN"
 "http://www.w3.org/Graphics/SVG/1.1/DTD/svg11.dtd">
<!-- Generated by graphviz version 2.40.1 (0)
 -->
<!-- Title: /home/tcbuilder/buildAgent/work/df8e8cce5bebfd58/libajacc/includes/ntv2captionlogging.h Pages: 1 -->
<!--zoomable 274 -->
<svg id="main" version="1.1" xmlns="http://www.w3.org/2000/svg" xmlns:xlink="http://www.w3.org/1999/xlink" xml:space="preserve" onload="init(evt)">
<style type="text/css"><![CDATA[
.edge:hover path { stroke: red; }
.edge:hover polygon { stroke: red; fill: red; }
]]></style>
<script type="text/javascript"><![CDATA[
var edges = document.getElementsByTagName('g');
if (edges && edges.length) {
  for (var i=0;i<edges.length;i++) {
    if (edges[i].id.substr(0,4)=='edge') {
      edges[i].setAttribute('class','edge');
    }
  }
}
]]></script>
        <defs>
                <circle id="rim" cx="0" cy="0" r="7"/>
                <circle id="rim2" cx="0" cy="0" r="3.5"/>
                <g id="zoomPlus">
                        <use xlink:href="#rim" fill="#404040">
                                <set attributeName="fill" to="#808080" begin="zoomplus.mouseover" end="zoomplus.mouseout"/>
                        </use>
                        <path d="M-4,0h8M0,-4v8" fill="none" stroke="white" stroke-width="1.5" pointer-events="none"/>
                </g>
                <g id="zoomMin">
                        <use xlink:href="#rim" fill="#404040">
                                <set attributeName="fill" to="#808080" begin="zoomminus.mouseover" end="zoomminus.mouseout"/>
                        </use>
                        <path d="M-4,0h8" fill="none" stroke="white" stroke-width="1.5" pointer-events="none"/>
                </g>
                <g id="dirArrow">
                        <path fill="none" stroke="white" stroke-width="1.5" d="M0,-3.0v7 M-2.5,-0.5L0,-3.0L2.5,-0.5"/>
                </g>
               <g id="resetDef">
                       <use xlink:href="#rim2" fill="#404040">
                               <set attributeName="fill" to="#808080" begin="reset.mouseover" end="reset.mouseout"/>
                       </use>
               </g>
        </defs>

<script type="text/javascript">
var viewWidth = 808;
var viewHeight = 274;
var sectionId = 'dynsection-0';
</script>
<script xlink:href="../../svgpan.js"/>
<svg id="graph" class="graph">
<g id="viewport">
<title>/home/tcbuilder/buildAgent/work/df8e8cce5bebfd58/libajacc/includes/ntv2captionlogging.h</title>
<polygon fill="#ffffff" stroke="transparent" points="-4,4 -4,-270 803.7437,-270 803.7437,4 -4,4"/>
<!-- Node0 -->
<g id="node1" class="node">
<title>Node0</title>
<polygon fill="#bfbfbf" stroke="#000000" points="273,-224.5 273,-265.5 432,-265.5 432,-224.5 273,-224.5"/>
<text text-anchor="start" x="281" y="-253.5" font-family="Helvetica,sans-Serif" font-size="10.00" fill="#000000">/home/tcbuilder/buildAgent</text>
<text text-anchor="start" x="281" y="-242.5" font-family="Helvetica,sans-Serif" font-size="10.00" fill="#000000">/work/df8e8cce5bebfd58/libajacc</text>
<text text-anchor="middle" x="352.5" y="-231.5" font-family="Helvetica,sans-Serif" font-size="10.00" fill="#000000">/includes/ntv2captionlogging.h</text>
</g>
<!-- Node1 -->
<g id="node2" class="node">
<title>Node1</title>
<g id="a_node2"><a xlink:href="../../db/de2/ajatypes_8h.html" target="_top" xlink:title="Declares the most fundamental data types used by NTV2. Since Windows NT was the first principal devel...">
<polygon fill="#ffffff" stroke="#000000" points="132.5,-56.5 132.5,-75.5 194.5,-75.5 194.5,-56.5 132.5,-56.5"/>
<text text-anchor="middle" x="163.5" y="-63.5" font-family="Helvetica,sans-Serif" font-size="10.00" fill="#000000">ajatypes.h</text>
</a>
</g>
</g>
<!-- Node0&#45;&gt;Node1 -->
<g id="edge1" class="edge">
<title>Node0&#45;&gt;Node1</title>
<path fill="none" stroke="#191970" d="M272.7846,-228.5227C186.2267,-208.7871 56.5296,-173.1844 28.5,-132 3.0796,-94.6493 73.8339,-77.6292 122.2737,-70.5259"/>
<polygon fill="#191970" stroke="#191970" points="122.7989,-73.9867 132.2289,-69.1569 121.8453,-67.052 122.7989,-73.9867"/>
</g>
<!-- Node3 -->
<g id="node4" class="node">
<title>Node3</title>
<polygon fill="#ffffff" stroke="#bfbfbf" points="0,-.5 0,-19.5 49,-19.5 49,-.5 0,-.5"/>
<text text-anchor="middle" x="24.5" y="-7.5" font-family="Helvetica,sans-Serif" font-size="10.00" fill="#000000">stdint.h</text>
</g>
<!-- Node0&#45;&gt;Node3 -->
<g id="edge22" class="edge">
<title>Node0&#45;&gt;Node3</title>
<path fill="none" stroke="#191970" d="M272.878,-239.5454C216.5662,-233.0732 140.6879,-218.9248 80.5,-188 47.765,-171.1807 34.3068,-165.6932 19.5,-132 4.7159,-98.3584 12.2462,-54.3377 18.6497,-29.4194"/>
<polygon fill="#191970" stroke="#191970" points="22.0433,-30.2792 21.3426,-19.7075 15.2978,-28.4088 22.0433,-30.2792"/>
</g>
<!-- Node4 -->
<g id="node5" class="node">
<title>Node4</title>
<g id="a_node5"><a xlink:href="../../d4/dd7/ntv2publicinterface_8h.html" target="_top" xlink:title="Declares enums and structs used by all platform drivers and the SDK. ">
<polygon fill="#ffffff" stroke="#000000" points="396,-168.5 396,-187.5 503,-187.5 503,-168.5 396,-168.5"/>
<text text-anchor="middle" x="449.5" y="-175.5" font-family="Helvetica,sans-Serif" font-size="10.00" fill="#000000">ntv2publicinterface.h</text>
</a>
</g>
</g>
<!-- Node0&#45;&gt;Node4 -->
<g id="edge4" class="edge">
<title>Node0&#45;&gt;Node4</title>
<path fill="none" stroke="#191970" d="M382.3947,-224.3511C396.7773,-214.4167 413.733,-202.7051 427.002,-193.5398"/>
<polygon fill="#191970" stroke="#191970" points="429.2835,-196.2178 435.5224,-187.6546 425.3052,-190.4581 429.2835,-196.2178"/>
</g>
<!-- Node8 -->
<g id="node9" class="node">
<title>Node8</title>
<polygon fill="#ffffff" stroke="#bfbfbf" points="651,-.5 651,-19.5 692,-19.5 692,-.5 651,-.5"/>
<text text-anchor="middle" x="671.5" y="-7.5" font-family="Helvetica,sans-Serif" font-size="10.00" fill="#000000">string</text>
</g>
<!-- Node0&#45;&gt;Node8 -->
<g id="edge23" class="edge">
<title>Node0&#45;&gt;Node8</title>
<path fill="none" stroke="#191970" d="M432.1372,-236.4315C546.8012,-222.2253 749.3088,-189.5036 791.5,-132 824.0696,-87.61 746.6012,-43.556 701.3403,-22.6133"/>
<polygon fill="#191970" stroke="#191970" points="702.7772,-19.4219 692.2222,-18.5034 699.9006,-25.8036 702.7772,-19.4219"/>
</g>
<!-- Node9 -->
<g id="node10" class="node">
<title>Node9</title>
<polygon fill="#ffffff" stroke="#bfbfbf" points="37.5,-112.5 37.5,-131.5 91.5,-131.5 91.5,-112.5 37.5,-112.5"/>
<text text-anchor="middle" x="64.5" y="-119.5" font-family="Helvetica,sans-Serif" font-size="10.00" fill="#000000">iostream</text>
</g>
<!-- Node0&#45;&gt;Node9 -->
<g id="edge24" class="edge">
<title>Node0&#45;&gt;Node9</title>
<path fill="none" stroke="#191970" d="M304.2953,-224.4126C245.1473,-199.1514 146.5361,-157.0363 96.1868,-135.5329"/>
<polygon fill="#191970" stroke="#191970" points="97.3575,-132.2271 86.7864,-131.5182 94.6081,-138.6646 97.3575,-132.2271"/>
</g>
<!-- Node10 -->
<g id="node11" class="node">
<title>Node10</title>
<polygon fill="#ffffff" stroke="#bfbfbf" points="752.5,-112.5 752.5,-131.5 782.5,-131.5 782.5,-112.5 752.5,-112.5"/>
<text text-anchor="middle" x="767.5" y="-119.5" font-family="Helvetica,sans-Serif" font-size="10.00" fill="#000000">set</text>
</g>
<!-- Node0&#45;&gt;Node10 -->
<g id="edge25" class="edge">
<title>Node0&#45;&gt;Node10</title>
<path fill="none" stroke="#191970" d="M432.3408,-224.7714C509.7776,-204.5065 630.5202,-171.2033 742.908,-131.9367"/>
<polygon fill="#191970" stroke="#191970" points="744.0928,-135.2302 752.3655,-128.6111 741.7707,-128.6266 744.0928,-135.2302"/>
</g>
<!-- Node2 -->
<g id="node3" class="node">
<title>Node2</title>
<g id="a_node3"><a xlink:href="../../db/d40/ntv2deprecate_8h.html" target="_top" xlink:title="Deprecation control macros. ">
<polygon fill="#ffffff" stroke="#000000" points="120.5,-.5 120.5,-19.5 206.5,-19.5 206.5,-.5 120.5,-.5"/>
<text text-anchor="middle" x="163.5" y="-7.5" font-family="Helvetica,sans-Serif" font-size="10.00" fill="#000000">ntv2deprecate.h</text>
</a>
</g>
</g>
<!-- Node1&#45;&gt;Node2 -->
<g id="edge2" class="edge">
<title>Node1&#45;&gt;Node2</title>
<path fill="none" stroke="#191970" d="M163.5,-56.2455C163.5,-48.9382 163.5,-38.6944 163.5,-29.7046"/>
<polygon fill="#191970" stroke="#191970" points="167.0001,-29.6426 163.5,-19.6427 160.0001,-29.6427 167.0001,-29.6426"/>
</g>
<!-- Node1&#45;&gt;Node3 -->
<g id="edge3" class="edge">
<title>Node1&#45;&gt;Node3</title>
<path fill="none" stroke="#191970" d="M139.605,-56.3733C116.9918,-47.2629 82.8458,-33.5062 57.6127,-23.3404"/>
<polygon fill="#191970" stroke="#191970" points="58.6666,-19.9917 48.0831,-19.5011 56.0507,-26.4845 58.6666,-19.9917"/>
</g>
<!-- Node4&#45;&gt;Node1 -->
<g id="edge5" class="edge">
<title>Node4&#45;&gt;Node1</title>
<path fill="none" stroke="#191970" d="M460.9782,-168.4114C475.9663,-154.757 498.6092,-129.4364 483.5,-112 465.4574,-91.1783 286.8396,-75.2358 204.5832,-68.937"/>
<polygon fill="#191970" stroke="#191970" points="204.8129,-65.4444 194.5779,-68.1821 204.2862,-72.4246 204.8129,-65.4444"/>
</g>
<!-- Node5 -->
<g id="node6" class="node">
<title>Node5</title>
<g id="a_node6"><a xlink:href="../../d6/d0c/ntv2enums_8h.html" target="_top" xlink:title="Enumerations for controlling NTV2 devices. ">
<polygon fill="#ffffff" stroke="#000000" points="569,-112.5 569,-131.5 642,-131.5 642,-112.5 569,-112.5"/>
<text text-anchor="middle" x="605.5" y="-119.5" font-family="Helvetica,sans-Serif" font-size="10.00" fill="#000000">ntv2enums.h</text>
</a>
</g>
</g>
<!-- Node4&#45;&gt;Node5 -->
<g id="edge6" class="edge">
<title>Node4&#45;&gt;Node5</title>
<path fill="none" stroke="#191970" d="M476.3174,-168.3733C502.0332,-159.1419 541.038,-145.1402 569.4599,-134.9375"/>
<polygon fill="#191970" stroke="#191970" points="570.8032,-138.174 579.0326,-131.5011 568.4381,-131.5857 570.8032,-138.174"/>
</g>
<!-- Node7 -->
<g id="node8" class="node">
<title>Node7</title>
<g id="a_node8"><a xlink:href="../../d6/dd9/ajaexport_8h.html" target="_top" xlink:title="Defines the import/export macros for producing DLLs or LIBs. ">
<polygon fill="#ffffff" stroke="#000000" points="538,-.5 538,-19.5 603,-19.5 603,-.5 538,-.5"/>
<text text-anchor="middle" x="570.5" y="-7.5" font-family="Helvetica,sans-Serif" font-size="10.00" fill="#000000">ajaexport.h</text>
</a>
</g>
</g>
<!-- Node4&#45;&gt;Node7 -->
<g id="edge19" class="edge">
<title>Node4&#45;&gt;Node7</title>
<path fill="none" stroke="#191970" d="M461.9898,-168.3118C472.7467,-159.5709 488.2676,-145.9743 499.5,-132 526.3528,-98.5923 549.6546,-53.8866 561.7232,-28.9149"/>
<polygon fill="#191970" stroke="#191970" points="564.9244,-30.3329 566.0518,-19.7982 558.601,-27.3305 564.9244,-30.3329"/>
</g>
<!-- Node4&#45;&gt;Node8 -->
<g id="edge15" class="edge">
<title>Node4&#45;&gt;Node8</title>
<path fill="none" stroke="#191970" d="M503.1315,-172.5329C555.9519,-166.0066 631.5417,-153.2233 651.5,-132 677.4888,-104.364 677.1246,-56.7329 674.4085,-29.891"/>
<polygon fill="#191970" stroke="#191970" points="677.8598,-29.2795 673.1704,-19.779 670.9117,-30.1303 677.8598,-29.2795"/>
</g>
<!-- Node4&#45;&gt;Node9 -->
<g id="edge11" class="edge">
<title>Node4&#45;&gt;Node9</title>
<path fill="none" stroke="#191970" d="M395.9007,-173.2858C329.0759,-166.8878 211.2575,-153.8984 101.4474,-131.9561"/>
<polygon fill="#191970" stroke="#191970" points="102.0244,-128.5019 91.5283,-129.9448 100.6333,-135.3623 102.0244,-128.5019"/>
</g>
<!-- Node4&#45;&gt;Node10 -->
<g id="edge12" class="edge">
<title>Node4&#45;&gt;Node10</title>
<path fill="none" stroke="#191970" d="M503.1669,-173.4963C560.648,-167.8105 654.4512,-156.0477 742.8235,-131.6295"/>
<polygon fill="#191970" stroke="#191970" points="743.7868,-134.9945 752.46,-128.9096 741.8852,-128.2577 743.7868,-134.9945"/>
</g>
<!-- Node11 -->
<g id="node12" class="node">
<title>Node11</title>
<polygon fill="#ffffff" stroke="#bfbfbf" points="699,-112.5 699,-131.5 734,-131.5 734,-112.5 699,-112.5"/>
<text text-anchor="middle" x="716.5" y="-119.5" font-family="Helvetica,sans-Serif" font-size="10.00" fill="#000000">map</text>
</g>
<!-- Node4&#45;&gt;Node11 -->
<g id="edge13" class="edge">
<title>Node4&#45;&gt;Node11</title>
<path fill="none" stroke="#191970" d="M503.0697,-169.2378C550.9434,-160.9992 622.841,-147.6189 684.5,-132 685.9811,-131.6248 687.4949,-131.2214 689.0192,-130.7996"/>
<polygon fill="#191970" stroke="#191970" points="690.3961,-134.0423 698.9934,-127.8507 688.4114,-127.3296 690.3961,-134.0423"/>
</g>
<!-- Node12 -->
<g id="node13" class="node">
<title>Node12</title>
<polygon fill="#ffffff" stroke="#bfbfbf" points="235.5,-112.5 235.5,-131.5 279.5,-131.5 279.5,-112.5 235.5,-112.5"/>
<text text-anchor="middle" x="257.5" y="-119.5" font-family="Helvetica,sans-Serif" font-size="10.00" fill="#000000">vector</text>
</g>
<!-- Node4&#45;&gt;Node12 -->
<g id="edge14" class="edge">
<title>Node4&#45;&gt;Node12</title>
<path fill="none" stroke="#191970" d="M414.8541,-168.4654C384.2241,-159.9553 338.1057,-146.9467 289.5603,-132.2592"/>
<polygon fill="#191970" stroke="#191970" points="290.4084,-128.859 279.8228,-129.3002 288.3731,-135.5566 290.4084,-128.859"/>
</g>
<!-- Node13 -->
<g id="node14" class="node">
<title>Node13</title>
<polygon fill="#ffffff" stroke="#bfbfbf" points="297.5,-112.5 297.5,-131.5 347.5,-131.5 347.5,-112.5 297.5,-112.5"/>
<text text-anchor="middle" x="322.5" y="-119.5" font-family="Helvetica,sans-Serif" font-size="10.00" fill="#000000">iomanip</text>
</g>
<!-- Node4&#45;&gt;Node13 -->
<g id="edge16" class="edge">
<title>Node4&#45;&gt;Node13</title>
<path fill="none" stroke="#191970" d="M427.6679,-168.3733C407.1897,-159.3435 376.3601,-145.7494 353.3681,-135.6111"/>
<polygon fill="#191970" stroke="#191970" points="354.6093,-132.3333 344.0472,-131.5011 351.785,-138.7383 354.6093,-132.3333"/>
</g>
<!-- Node14 -->
<g id="node15" class="node">
<title>Node14</title>
<polygon fill="#ffffff" stroke="#bfbfbf" points="366,-112.5 366,-131.5 407,-131.5 407,-112.5 366,-112.5"/>
<text text-anchor="middle" x="386.5" y="-119.5" font-family="Helvetica,sans-Serif" font-size="10.00" fill="#000000">bitset</text>
</g>
<!-- Node4&#45;&gt;Node14 -->
<g id="edge17" class="edge">
<title>Node4&#45;&gt;Node14</title>
<path fill="none" stroke="#191970" d="M438.5262,-168.2455C429.3118,-160.0549 415.9468,-148.1749 405.0703,-138.5069"/>
<polygon fill="#191970" stroke="#191970" points="407.1474,-135.6704 397.348,-131.6427 402.4968,-140.9023 407.1474,-135.6704"/>
</g>
<!-- Node15 -->
<g id="node16" class="node">
<title>Node15</title>
<polygon fill="#ffffff" stroke="#bfbfbf" points="425,-112.5 425,-131.5 474,-131.5 474,-112.5 425,-112.5"/>
<text text-anchor="middle" x="449.5" y="-119.5" font-family="Helvetica,sans-Serif" font-size="10.00" fill="#000000">string.h</text>
</g>
<!-- Node4&#45;&gt;Node15 -->
<g id="edge18" class="edge">
<title>Node4&#45;&gt;Node15</title>
<path fill="none" stroke="#191970" d="M449.5,-168.2455C449.5,-160.9382 449.5,-150.6944 449.5,-141.7046"/>
<polygon fill="#191970" stroke="#191970" points="453.0001,-141.6426 449.5,-131.6427 446.0001,-141.6427 453.0001,-141.6426"/>
</g>
<!-- Node16 -->
<g id="node17" class="node">
<title>Node16</title>
<g id="a_node17"><a xlink:href="../../da/df0/ntv2virtualregisters_8h.html" target="_top" xlink:title="Declares enums for virtual registers used in all platform drivers and the SDK. ">
<polygon fill="#ffffff" stroke="#000000" points="110,-112.5 110,-131.5 217,-131.5 217,-112.5 110,-112.5"/>
<text text-anchor="middle" x="163.5" y="-119.5" font-family="Helvetica,sans-Serif" font-size="10.00" fill="#000000">ntv2virtualregisters.h</text>
</a>
</g>
</g>
<!-- Node4&#45;&gt;Node16 -->
<g id="edge20" class="edge">
<title>Node4&#45;&gt;Node16</title>
<path fill="none" stroke="#191970" d="M400.6598,-168.4369C351.199,-158.7522 274.684,-143.7703 222.012,-133.4569"/>
<polygon fill="#191970" stroke="#191970" points="222.625,-130.0105 212.1387,-131.5237 221.2798,-136.8801 222.625,-130.0105"/>
</g>
<!-- Node5&#45;&gt;Node1 -->
<g id="edge7" class="edge">
<title>Node5&#45;&gt;Node1</title>
<path fill="none" stroke="#191970" d="M568.9532,-117.3696C487.3492,-107.0307 290.7482,-82.1219 204.8398,-71.2376"/>
<polygon fill="#191970" stroke="#191970" points="205.045,-67.7357 194.6844,-69.951 204.1651,-74.6802 205.045,-67.7357"/>
</g>
<!-- Node6 -->
<g id="node7" class="node">
<title>Node6</title>
<g id="a_node7"><a xlink:href="../../d6/db1/ntv2version_8h.html" target="_top" xlink:title="Defines for the NTV2 SDK version number, used by ajantv2/includes/ntv2enums.h. See the ajantv2/includ...">
<polygon fill="#ffffff" stroke="#000000" points="568,-56.5 568,-75.5 643,-75.5 643,-56.5 568,-56.5"/>
<text text-anchor="middle" x="605.5" y="-63.5" font-family="Helvetica,sans-Serif" font-size="10.00" fill="#000000">ntv2version.h</text>
</a>
</g>
</g>
<!-- Node5&#45;&gt;Node6 -->
<g id="edge8" class="edge">
<title>Node5&#45;&gt;Node6</title>
<path fill="none" stroke="#191970" d="M605.5,-112.2455C605.5,-104.9382 605.5,-94.6944 605.5,-85.7046"/>
<polygon fill="#191970" stroke="#191970" points="609.0001,-85.6426 605.5,-75.6427 602.0001,-85.6427 609.0001,-85.6426"/>
</g>
<!-- Node6&#45;&gt;Node7 -->
<g id="edge9" class="edge">
<title>Node6&#45;&gt;Node7</title>
<path fill="none" stroke="#191970" d="M599.4035,-56.2455C594.5855,-48.5367 587.7249,-37.5598 581.8968,-28.2348"/>
<polygon fill="#191970" stroke="#191970" points="584.7947,-26.2677 576.5267,-19.6427 578.8587,-29.9777 584.7947,-26.2677"/>
</g>
<!-- Node6&#45;&gt;Node8 -->
<g id="edge10" class="edge">
<title>Node6&#45;&gt;Node8</title>
<path fill="none" stroke="#191970" d="M616.9963,-56.2455C626.7442,-47.9746 640.9259,-35.9416 652.3798,-26.2232"/>
<polygon fill="#191970" stroke="#191970" points="654.7747,-28.7813 660.1354,-19.6427 650.2459,-23.4437 654.7747,-28.7813"/>
</g>
<!-- Node16&#45;&gt;Node1 -->
<g id="edge21" class="edge">
<title>Node16&#45;&gt;Node1</title>
<path fill="none" stroke="#191970" d="M163.5,-112.2455C163.5,-104.9382 163.5,-94.6944 163.5,-85.7046"/>
<polygon fill="#191970" stroke="#191970" points="167.0001,-85.6426 163.5,-75.6427 160.0001,-85.6427 167.0001,-85.6426"/>
</g>
</g>
</svg>
        <g id="navigator" transform="translate(0 0)" fill="#404254">
                <rect fill="#f2f5e9" fill-opacity="0.5" stroke="#606060" stroke-width=".5" x="0" y="0" width="60" height="60"/>
                <use id="zoomplus" xlink:href="#zoomPlus" x="17" y="9" onmousedown="handleZoom(evt,'in')"/>
                <use id="zoomminus" xlink:href="#zoomMin" x="42" y="9" onmousedown="handleZoom(evt,'out')"/>
                <use id="reset" xlink:href="#resetDef" x="30" y="36" onmousedown="handleReset()"/>
                <g id="arrowUp" xlink:href="#dirArrow" transform="translate(30 24)" onmousedown="handlePan(0,-1)">
                  <use xlink:href="#rim" fill="#404040">
                        <set attributeName="fill" to="#808080" begin="arrowUp.mouseover" end="arrowUp.mouseout"/>
                  </use>
                  <path fill="none" stroke="white" stroke-width="1.5" d="M0,-3.0v7 M-2.5,-0.5L0,-3.0L2.5,-0.5"/>
                </g>
                <g id="arrowRight" xlink:href="#dirArrow" transform="rotate(90) translate(36 -43)" onmousedown="handlePan(1,0)">
                  <use xlink:href="#rim" fill="#404040">
                        <set attributeName="fill" to="#808080" begin="arrowRight.mouseover" end="arrowRight.mouseout"/>
                  </use>
                  <path fill="none" stroke="white" stroke-width="1.5" d="M0,-3.0v7 M-2.5,-0.5L0,-3.0L2.5,-0.5"/>
                </g>
                <g id="arrowDown" xlink:href="#dirArrow" transform="rotate(180) translate(-30 -48)" onmousedown="handlePan(0,1)">
                  <use xlink:href="#rim" fill="#404040">
                        <set attributeName="fill" to="#808080" begin="arrowDown.mouseover" end="arrowDown.mouseout"/>
                  </use>
                  <path fill="none" stroke="white" stroke-width="1.5" d="M0,-3.0v7 M-2.5,-0.5L0,-3.0L2.5,-0.5"/>
                </g>
                <g id="arrowLeft" xlink:href="#dirArrow" transform="rotate(270) translate(-36 17)" onmousedown="handlePan(-1,0)">
                  <use xlink:href="#rim" fill="#404040">
                        <set attributeName="fill" to="#808080" begin="arrowLeft.mouseover" end="arrowLeft.mouseout"/>
                  </use>
                  <path fill="none" stroke="white" stroke-width="1.5" d="M0,-3.0v7 M-2.5,-0.5L0,-3.0L2.5,-0.5"/>
                </g>
        </g>
        <svg viewBox="0 0 15 15" width="100%" height="30px" preserveAspectRatio="xMaxYMin meet">
         <g id="arrow_out" transform="scale(0.3 0.3)">
          <a xlink:href="ntv2captionlogging_8h__incl_org.svg" target="_base">
           <rect id="button" ry="5" rx="5" y="6" x="6" height="38" width="38"
                fill="#f2f5e9" fill-opacity="0.5" stroke="#606060" stroke-width="1.0"/>
           <path id="arrow"
             d="M 11.500037,31.436501 C 11.940474,20.09759 22.043105,11.32322 32.158766,21.979434 L 37.068811,17.246167 C 37.068811,17.246167 37.088388,32 37.088388,32 L 22.160133,31.978069 C 22.160133,31.978069 26.997745,27.140456 26.997745,27.140456 C 18.528582,18.264221 13.291696,25.230495 11.500037,31.436501 z"
             style="fill:#404040;"/>
          </a>
         </g>
        </svg>
</svg>
