<?xml version="1.0" encoding="UTF-8" standalone="no"?>
<!DOCTYPE svg PUBLIC "-//W3C//DTD SVG 1.1//EN"
 "http://www.w3.org/Graphics/SVG/1.1/DTD/svg11.dtd">
<!-- Generated by graphviz version 2.43.0 (0)
 -->
<!-- Title: poptContext_s Pages: 1 -->
<svg width="315pt" height="253pt"
 viewBox="0.00 0.00 315.14 253.00" xmlns="http://www.w3.org/2000/svg" xmlns:xlink="http://www.w3.org/1999/xlink">
<g id="graph0" class="graph" transform="scale(1 1) rotate(0) translate(4 249)">
<title>poptContext_s</title>
<polygon fill="white" stroke="transparent" points="-4,4 -4,-249 311.14,-249 311.14,4 -4,4"/>
<!-- Node1 -->
<g id="node1" class="node">
<title>Node1</title>
<g id="a_node1"><a xlink:title=" ">
<polygon fill="#bfbfbf" stroke="black" points="116.64,-0.5 116.64,-19.5 203.64,-19.5 203.64,-0.5 116.64,-0.5"/>
<text text-anchor="middle" x="160.14" y="-7.5" font-family="Helvetica,sans-Serif" font-size="10.00">poptContext_s</text>
</a>
</g>
</g>
<!-- Node2 -->
<g id="node2" class="node">
<title>Node2</title>
<g id="a_node2"><a xlink:href="../../da/dfb/structoption_stack_entry.html" target="_top" xlink:title=" ">
<polygon fill="white" stroke="black" points="61.14,-85 61.14,-104 161.14,-104 161.14,-85 61.14,-85"/>
<text text-anchor="middle" x="111.14" y="-92" font-family="Helvetica,sans-Serif" font-size="10.00">optionStackEntry</text>
</a>
</g>
</g>
<!-- Node2&#45;&gt;Node1 -->
<g id="edge1" class="edge">
<title>Node2&#45;&gt;Node1</title>
<path fill="none" stroke="#9a32cd" stroke-dasharray="5,2" d="M112.75,-74.77C114.45,-63.38 117.95,-48.97 125.14,-38 130.02,-30.56 137.67,-24.31 144.57,-19.71"/>
<polygon fill="#9a32cd" stroke="#9a32cd" points="109.25,-74.58 111.58,-84.91 116.2,-75.38 109.25,-74.58"/>
<text text-anchor="middle" x="154.14" y="-52" font-family="Helvetica,sans-Serif" font-size="10.00"> os</text>
<text text-anchor="middle" x="154.14" y="-41" font-family="Helvetica,sans-Serif" font-size="10.00">optionStack</text>
</g>
<!-- Node3 -->
<g id="node3" class="node">
<title>Node3</title>
<g id="a_node3"><a xlink:href="../../d5/dfd/structpbm__set.html" target="_top" xlink:title=" ">
<polygon fill="white" stroke="black" points="4.64,-158.5 4.64,-177.5 63.64,-177.5 63.64,-158.5 4.64,-158.5"/>
<text text-anchor="middle" x="34.14" y="-165.5" font-family="Helvetica,sans-Serif" font-size="10.00">pbm_set</text>
</a>
</g>
</g>
<!-- Node3&#45;&gt;Node1 -->
<g id="edge6" class="edge">
<title>Node3&#45;&gt;Node1</title>
<path fill="none" stroke="#9a32cd" stroke-dasharray="5,2" d="M20.9,-150.32C7.69,-131.5 -8.66,-100.59 6.14,-78 30.44,-40.93 80.17,-24.26 116.57,-16.84"/>
<polygon fill="#9a32cd" stroke="#9a32cd" points="18.2,-152.56 26.98,-158.49 23.82,-148.38 18.2,-152.56"/>
<text text-anchor="middle" x="29.14" y="-92" font-family="Helvetica,sans-Serif" font-size="10.00"> arg_strip</text>
</g>
<!-- Node3&#45;&gt;Node2 -->
<g id="edge2" class="edge">
<title>Node3&#45;&gt;Node2</title>
<path fill="none" stroke="#9a32cd" stroke-dasharray="5,2" d="M50.98,-151.37C66.5,-136.95 89,-116.06 101.62,-104.34"/>
<polygon fill="#9a32cd" stroke="#9a32cd" points="48.53,-148.86 43.58,-158.23 53.29,-153.99 48.53,-148.86"/>
<text text-anchor="middle" x="87.64" y="-132" font-family="Helvetica,sans-Serif" font-size="10.00"> argb</text>
</g>
<!-- Node4 -->
<g id="node4" class="node">
<title>Node4</title>
<g id="a_node4"><a xlink:href="../../dd/dab/structpopt_item__s.html" target="_top" xlink:title=" ">
<polygon fill="white" stroke="black" points="161.64,-158.5 161.64,-177.5 232.64,-177.5 232.64,-158.5 161.64,-158.5"/>
<text text-anchor="middle" x="197.14" y="-165.5" font-family="Helvetica,sans-Serif" font-size="10.00">poptItem_s</text>
</a>
</g>
</g>
<!-- Node4&#45;&gt;Node1 -->
<g id="edge7" class="edge">
<title>Node4&#45;&gt;Node1</title>
<path fill="none" stroke="#9a32cd" stroke-dasharray="5,2" d="M198.47,-148.15C199.57,-122.22 198.91,-74.6 183.14,-38 180.12,-30.99 174.63,-24.43 169.77,-19.54"/>
<polygon fill="#9a32cd" stroke="#9a32cd" points="194.96,-148.24 197.89,-158.42 201.95,-148.63 194.96,-148.24"/>
<text text-anchor="middle" x="218.14" y="-103" font-family="Helvetica,sans-Serif" font-size="10.00"> doExec</text>
<text text-anchor="middle" x="218.14" y="-92" font-family="Helvetica,sans-Serif" font-size="10.00">execs</text>
<text text-anchor="middle" x="218.14" y="-81" font-family="Helvetica,sans-Serif" font-size="10.00">aliases</text>
</g>
<!-- Node4&#45;&gt;Node2 -->
<g id="edge3" class="edge">
<title>Node4&#45;&gt;Node2</title>
<path fill="none" stroke="#9a32cd" stroke-dasharray="5,2" d="M159.5,-154.36C151.54,-150.57 143.61,-145.82 137.14,-140 125.96,-129.95 118.26,-113.92 114.28,-104.1"/>
<polygon fill="#9a32cd" stroke="#9a32cd" points="158.19,-157.61 168.75,-158.39 160.98,-151.19 158.19,-157.61"/>
<text text-anchor="middle" x="160.14" y="-132" font-family="Helvetica,sans-Serif" font-size="10.00"> currAlias</text>
</g>
<!-- Node5 -->
<g id="node5" class="node">
<title>Node5</title>
<g id="a_node5"><a xlink:href="../../d4/da9/structpopt_option.html" target="_top" xlink:title=" ">
<polygon fill="white" stroke="black" points="194.64,-225.5 194.64,-244.5 265.64,-244.5 265.64,-225.5 194.64,-225.5"/>
<text text-anchor="middle" x="230.14" y="-232.5" font-family="Helvetica,sans-Serif" font-size="10.00">poptOption</text>
</a>
</g>
</g>
<!-- Node5&#45;&gt;Node1 -->
<g id="edge5" class="edge">
<title>Node5&#45;&gt;Node1</title>
<path fill="none" stroke="#9a32cd" stroke-dasharray="5,2" d="M244.31,-217.11C246.29,-213.93 248.03,-210.49 249.14,-207 259.29,-174.94 339.27,-293.94 241.14,-78 228.53,-50.25 197.9,-30.2 178.13,-19.6"/>
<polygon fill="#9a32cd" stroke="#9a32cd" points="241.42,-215.13 238.37,-225.27 247.09,-219.24 241.42,-215.13"/>
<text text-anchor="middle" x="287.14" y="-132" font-family="Helvetica,sans-Serif" font-size="10.00"> options</text>
</g>
<!-- Node5&#45;&gt;Node4 -->
<g id="edge4" class="edge">
<title>Node5&#45;&gt;Node4</title>
<path fill="none" stroke="#9a32cd" stroke-dasharray="5,2" d="M219.97,-216.08C218.32,-213.07 216.66,-209.96 215.14,-207 210,-197 204.53,-185.28 200.99,-177.53"/>
<polygon fill="#9a32cd" stroke="#9a32cd" points="217.06,-218.05 224.99,-225.08 223.18,-214.64 217.06,-218.05"/>
<text text-anchor="middle" x="232.14" y="-199" font-family="Helvetica,sans-Serif" font-size="10.00"> option</text>
</g>
</g>
</svg>
