<?xml version="1.0" encoding="UTF-8" standalone="no"?>
<!DOCTYPE svg PUBLIC "-//W3C//DTD SVG 1.1//EN"
 "http://www.w3.org/Graphics/SVG/1.1/DTD/svg11.dtd">
<!-- Generated by graphviz version 2.43.0 (0)
 -->
<!-- Title: /home/tcbuilder/buildAgent/work/df8e8cce5bebfd58/libajacc/includes/ntv2captionrenderer.h Pages: 1 -->
<!--zoomable 498 -->
<svg id="main" version="1.1" xmlns="http://www.w3.org/2000/svg" xmlns:xlink="http://www.w3.org/1999/xlink" xml:space="preserve" onload="init(evt)">
<style type="text/css"><![CDATA[
.edge:hover path { stroke: red; }
.edge:hover polygon { stroke: red; fill: red; }
]]></style>
<script type="text/javascript"><![CDATA[
var edges = document.getElementsByTagName('g');
if (edges && edges.length) {
  for (var i=0;i<edges.length;i++) {
    if (edges[i].id.substr(0,4)=='edge') {
      edges[i].setAttribute('class','edge');
    }
  }
}
]]></script>
        <defs>
                <circle id="rim" cx="0" cy="0" r="7"/>
                <circle id="rim2" cx="0" cy="0" r="3.5"/>
                <g id="zoomPlus">
                        <use xlink:href="#rim" fill="#404040">
                                <set attributeName="fill" to="#808080" begin="zoomplus.mouseover" end="zoomplus.mouseout"/>
                        </use>
                        <path d="M-4,0h8M0,-4v8" fill="none" stroke="white" stroke-width="1.5" pointer-events="none"/>
                </g>
                <g id="zoomMin">
                        <use xlink:href="#rim" fill="#404040">
                                <set attributeName="fill" to="#808080" begin="zoomminus.mouseover" end="zoomminus.mouseout"/>
                        </use>
                        <path d="M-4,0h8" fill="none" stroke="white" stroke-width="1.5" pointer-events="none"/>
                </g>
                <g id="dirArrow">
                        <path fill="none" stroke="white" stroke-width="1.5" d="M0,-3.0v7 M-2.5,-0.5L0,-3.0L2.5,-0.5"/>
                </g>
               <g id="resetDef">
                       <use xlink:href="#rim2" fill="#404040">
                               <set attributeName="fill" to="#808080" begin="reset.mouseover" end="reset.mouseout"/>
                       </use>
               </g>
        </defs>

<script type="text/javascript">
var viewWidth = 1692;
var viewHeight = 498;
var sectionId = 'dynsection-0';
</script>
<script xlink:href="../../svgpan.js"/>
<svg id="graph" class="graph">
<g id="viewport">
<title>/home/tcbuilder/buildAgent/work/df8e8cce5bebfd58/libajacc/includes/ntv2captionrenderer.h</title>
<polygon fill="white" stroke="transparent" points="-4,4 -4,-494 1688,-494 1688,4 -4,4"/>
<!-- Node1 -->
<g id="node1" class="node">
<title>Node1</title>
<g id="a_node1"><a xlink:title="Declares the CNTV2CaptionRenderer class.">
<polygon fill="#bfbfbf" stroke="black" points="120.5,-448.5 120.5,-489.5 297.5,-489.5 297.5,-448.5 120.5,-448.5"/>
<text text-anchor="start" x="128.5" y="-477.5" font-family="Helvetica,sans-Serif" font-size="10.00">/home/tcbuilder/buildAgent</text>
<text text-anchor="start" x="128.5" y="-466.5" font-family="Helvetica,sans-Serif" font-size="10.00">/work/df8e8cce5bebfd58/libajacc</text>
<text text-anchor="middle" x="209" y="-455.5" font-family="Helvetica,sans-Serif" font-size="10.00">/includes/ntv2captionrenderer.h</text>
</a>
</g>
</g>
<!-- Node2 -->
<g id="node2" class="node">
<title>Node2</title>
<g id="a_node2"><a xlink:href="../../db/de2/ajatypes_8h.html" target="_top" xlink:title="Declares the most fundamental data types used by NTV2. Since Windows NT was the first principal devel...">
<polygon fill="white" stroke="black" points="175,-56.5 175,-75.5 243,-75.5 243,-56.5 175,-56.5"/>
<text text-anchor="middle" x="209" y="-63.5" font-family="Helvetica,sans-Serif" font-size="10.00">ajatypes.h</text>
</a>
</g>
</g>
<!-- Node1&#45;&gt;Node2 -->
<g id="edge1" class="edge">
<title>Node1&#45;&gt;Node2</title>
<path fill="none" stroke="midnightblue" d="M138.46,-448.48C91.36,-430.67 38,-399.01 38,-347 38,-347 38,-347 38,-233 38,-155.62 129.27,-102.7 178.45,-79.8"/>
<polygon fill="midnightblue" stroke="midnightblue" points="180.02,-82.94 187.69,-75.63 177.13,-76.56 180.02,-82.94"/>
</g>
<!-- Node3 -->
<g id="node3" class="node">
<title>Node3</title>
<g id="a_node3"><a xlink:title=" ">
<polygon fill="white" stroke="#bfbfbf" points="87.5,-0.5 87.5,-19.5 140.5,-19.5 140.5,-0.5 87.5,-0.5"/>
<text text-anchor="middle" x="114" y="-7.5" font-family="Helvetica,sans-Serif" font-size="10.00">stdint.h</text>
</a>
</g>
</g>
<!-- Node1&#45;&gt;Node3 -->
<g id="edge61" class="edge">
<title>Node1&#45;&gt;Node3</title>
<path fill="none" stroke="midnightblue" d="M120.37,-452.47C63.4,-436.82 0,-406.12 0,-347 0,-347 0,-347 0,-121 0,-74.11 50.55,-40.89 84.33,-23.93"/>
<polygon fill="midnightblue" stroke="midnightblue" points="85.87,-27.07 93.36,-19.58 82.83,-20.77 85.87,-27.07"/>
</g>
<!-- Node4 -->
<g id="node4" class="node">
<title>Node4</title>
<g id="a_node4"><a xlink:href="../../d6/d0c/ntv2enums_8h.html" target="_top" xlink:title="Enumerations for controlling NTV2 devices.">
<polygon fill="white" stroke="black" points="256,-112.5 256,-131.5 336,-131.5 336,-112.5 256,-112.5"/>
<text text-anchor="middle" x="296" y="-119.5" font-family="Helvetica,sans-Serif" font-size="10.00">ntv2enums.h</text>
</a>
</g>
</g>
<!-- Node1&#45;&gt;Node4 -->
<g id="edge3" class="edge">
<title>Node1&#45;&gt;Node4</title>
<path fill="none" stroke="midnightblue" d="M191.98,-448.46C184.27,-438.31 175.99,-425.28 172,-412 169.44,-403.49 170.15,-400.69 172,-392 193.63,-290.49 258.22,-181.85 284.59,-140.41"/>
<polygon fill="midnightblue" stroke="midnightblue" points="287.68,-142.08 290.16,-131.77 281.8,-138.28 287.68,-142.08"/>
</g>
<!-- Node8 -->
<g id="node8" class="node">
<title>Node8</title>
<g id="a_node8"><a xlink:href="../../db/d80/ntv2caption608types_8h.html" target="_top" xlink:title="Declares several data types used with 608/SD captioning.">
<polygon fill="white" stroke="black" points="751,-336.5 751,-355.5 879,-355.5 879,-336.5 751,-336.5"/>
<text text-anchor="middle" x="815" y="-343.5" font-family="Helvetica,sans-Serif" font-size="10.00">ntv2caption608types.h</text>
</a>
</g>
</g>
<!-- Node1&#45;&gt;Node8 -->
<g id="edge8" class="edge">
<title>Node1&#45;&gt;Node8</title>
<path fill="none" stroke="midnightblue" d="M297.57,-455.46C366.82,-445.19 465.38,-429.52 551,-412 630.55,-395.72 722.4,-371.97 774.1,-358.14"/>
<polygon fill="midnightblue" stroke="midnightblue" points="775.14,-361.48 783.89,-355.51 773.32,-354.72 775.14,-361.48"/>
</g>
<!-- Node20 -->
<g id="node20" class="node">
<title>Node20</title>
<g id="a_node20"><a xlink:href="../../dc/df4/ntv2formatdescriptor_8h.html" target="_top" xlink:title="Declares the NTV2FormatDescriptor class.">
<polygon fill="white" stroke="black" points="659,-224.5 659,-243.5 787,-243.5 787,-224.5 659,-224.5"/>
<text text-anchor="middle" x="723" y="-231.5" font-family="Helvetica,sans-Serif" font-size="10.00">ntv2formatdescriptor.h</text>
</a>
</g>
</g>
<!-- Node1&#45;&gt;Node20 -->
<g id="edge47" class="edge">
<title>Node1&#45;&gt;Node20</title>
<path fill="none" stroke="midnightblue" d="M252.38,-448.34C354.82,-401.9 609.49,-286.45 694.71,-247.82"/>
<polygon fill="midnightblue" stroke="midnightblue" points="696.35,-250.92 704.02,-243.61 693.46,-244.55 696.35,-250.92"/>
</g>
<!-- Node23 -->
<g id="node23" class="node">
<title>Node23</title>
<g id="a_node23"><a xlink:href="../../d8/de3/ccfont_8h.html" target="_top" xlink:title="Declaration of NTV2CCFont.">
<polygon fill="white" stroke="black" points="181,-392.5 181,-411.5 237,-411.5 237,-392.5 181,-392.5"/>
<text text-anchor="middle" x="209" y="-399.5" font-family="Helvetica,sans-Serif" font-size="10.00">ccfont.h</text>
</a>
</g>
</g>
<!-- Node1&#45;&gt;Node23 -->
<g id="edge48" class="edge">
<title>Node1&#45;&gt;Node23</title>
<path fill="none" stroke="midnightblue" d="M209,-448.5C209,-440.07 209,-430.24 209,-421.87"/>
<polygon fill="midnightblue" stroke="midnightblue" points="212.5,-421.65 209,-411.65 205.5,-421.65 212.5,-421.65"/>
</g>
<!-- Node24 -->
<g id="node24" class="node">
<title>Node24</title>
<g id="a_node24"><a xlink:href="../../da/dae/ajarefptr_8h.html" target="_top" xlink:title="Defines the AJARefPtr template class.">
<polygon fill="white" stroke="black" points="659,-392.5 659,-411.5 813,-411.5 813,-392.5 659,-392.5"/>
<text text-anchor="middle" x="736" y="-399.5" font-family="Helvetica,sans-Serif" font-size="10.00">ajabase/common/ajarefptr.h</text>
</a>
</g>
</g>
<!-- Node1&#45;&gt;Node24 -->
<g id="edge52" class="edge">
<title>Node1&#45;&gt;Node24</title>
<path fill="none" stroke="midnightblue" d="M297.51,-457.08C398.03,-444.69 560.56,-424.64 656.97,-412.75"/>
<polygon fill="midnightblue" stroke="midnightblue" points="657.46,-416.21 666.95,-411.52 656.6,-409.27 657.46,-416.21"/>
</g>
<!-- Node2&#45;&gt;Node3 -->
<g id="edge2" class="edge">
<title>Node2&#45;&gt;Node3</title>
<path fill="none" stroke="midnightblue" d="M193.74,-56.32C178.78,-47.82 155.75,-34.73 138.27,-24.8"/>
<polygon fill="midnightblue" stroke="midnightblue" points="139.65,-21.55 129.23,-19.65 136.19,-27.64 139.65,-21.55"/>
</g>
<!-- Node4&#45;&gt;Node2 -->
<g id="edge4" class="edge">
<title>Node4&#45;&gt;Node2</title>
<path fill="none" stroke="midnightblue" d="M282.02,-112.32C268.45,-103.9 247.62,-90.97 231.68,-81.07"/>
<polygon fill="midnightblue" stroke="midnightblue" points="233.29,-77.95 222.94,-75.65 229.59,-83.9 233.29,-77.95"/>
</g>
<!-- Node5 -->
<g id="node5" class="node">
<title>Node5</title>
<g id="a_node5"><a xlink:href="../../d6/db1/ntv2version_8h.html" target="_top" xlink:title="Defines for the NTV2 SDK version number, used by ajantv2/includes/ntv2enums.h. See the ajantv2/includ...">
<polygon fill="white" stroke="black" points="557.5,-56.5 557.5,-75.5 640.5,-75.5 640.5,-56.5 557.5,-56.5"/>
<text text-anchor="middle" x="599" y="-63.5" font-family="Helvetica,sans-Serif" font-size="10.00">ntv2version.h</text>
</a>
</g>
</g>
<!-- Node4&#45;&gt;Node5 -->
<g id="edge5" class="edge">
<title>Node4&#45;&gt;Node5</title>
<path fill="none" stroke="midnightblue" d="M336.24,-113.83C390.56,-104.15 487.43,-86.88 547.16,-76.24"/>
<polygon fill="midnightblue" stroke="midnightblue" points="547.91,-79.66 557.14,-74.46 546.68,-72.77 547.91,-79.66"/>
</g>
<!-- Node6 -->
<g id="node6" class="node">
<title>Node6</title>
<g id="a_node6"><a xlink:href="../../d6/dd9/ajaexport_8h.html" target="_top" xlink:title="Defines the import/export macros for producing DLLs or LIBs.">
<polygon fill="white" stroke="black" points="563,-0.5 563,-19.5 635,-19.5 635,-0.5 563,-0.5"/>
<text text-anchor="middle" x="599" y="-7.5" font-family="Helvetica,sans-Serif" font-size="10.00">ajaexport.h</text>
</a>
</g>
</g>
<!-- Node5&#45;&gt;Node6 -->
<g id="edge6" class="edge">
<title>Node5&#45;&gt;Node6</title>
<path fill="none" stroke="midnightblue" d="M599,-56.08C599,-49.01 599,-38.86 599,-29.99"/>
<polygon fill="midnightblue" stroke="midnightblue" points="602.5,-29.75 599,-19.75 595.5,-29.75 602.5,-29.75"/>
</g>
<!-- Node7 -->
<g id="node7" class="node">
<title>Node7</title>
<g id="a_node7"><a xlink:title=" ">
<polygon fill="white" stroke="#bfbfbf" points="1085,-0.5 1085,-19.5 1129,-19.5 1129,-0.5 1085,-0.5"/>
<text text-anchor="middle" x="1107" y="-7.5" font-family="Helvetica,sans-Serif" font-size="10.00">string</text>
</a>
</g>
</g>
<!-- Node5&#45;&gt;Node7 -->
<g id="edge7" class="edge">
<title>Node5&#45;&gt;Node7</title>
<path fill="none" stroke="midnightblue" d="M640.57,-60.58C739.4,-50.08 986.69,-23.79 1075.02,-14.4"/>
<polygon fill="midnightblue" stroke="midnightblue" points="1075.41,-17.88 1084.98,-13.34 1074.67,-10.92 1075.41,-17.88"/>
</g>
<!-- Node8&#45;&gt;Node2 -->
<g id="edge9" class="edge">
<title>Node8&#45;&gt;Node2</title>
<path fill="none" stroke="midnightblue" d="M750.9,-340.47C654.72,-331.78 469,-307.62 325,-244 260.9,-215.68 235.46,-198.72 214,-132 209.18,-117 208.12,-99.09 208.16,-85.87"/>
<polygon fill="midnightblue" stroke="midnightblue" points="211.66,-85.74 208.41,-75.66 204.67,-85.57 211.66,-85.74"/>
</g>
<!-- Node8&#45;&gt;Node6 -->
<g id="edge10" class="edge">
<title>Node8&#45;&gt;Node6</title>
<path fill="none" stroke="midnightblue" d="M750.95,-343.02C671.85,-339.37 533.7,-329.05 419,-300 273.41,-263.13 201.54,-221.92 166,-76 163.9,-67.36 160.05,-62.6 166,-56 191.56,-27.65 446.43,-16.02 552.78,-12.38"/>
<polygon fill="midnightblue" stroke="midnightblue" points="553.01,-15.87 562.89,-12.04 552.78,-8.87 553.01,-15.87"/>
</g>
<!-- Node8&#45;&gt;Node7 -->
<g id="edge44" class="edge">
<title>Node8&#45;&gt;Node7</title>
<path fill="none" stroke="midnightblue" d="M879.14,-342.65C1003.65,-336.33 1266,-313.68 1266,-235 1266,-235 1266,-235 1266,-121 1266,-59.84 1185.44,-30.01 1139.01,-17.9"/>
<polygon fill="midnightblue" stroke="midnightblue" points="1139.66,-14.46 1129.11,-15.45 1137.97,-21.25 1139.66,-14.46"/>
</g>
<!-- Node9 -->
<g id="node9" class="node">
<title>Node9</title>
<g id="a_node9"><a xlink:href="../../d0/d81/ntv2utils_8h.html" target="_top" xlink:title="Declares numerous NTV2 utility functions.">
<polygon fill="white" stroke="black" points="781,-280.5 781,-299.5 849,-299.5 849,-280.5 781,-280.5"/>
<text text-anchor="middle" x="815" y="-287.5" font-family="Helvetica,sans-Serif" font-size="10.00">ntv2utils.h</text>
</a>
</g>
</g>
<!-- Node8&#45;&gt;Node9 -->
<g id="edge11" class="edge">
<title>Node8&#45;&gt;Node9</title>
<path fill="none" stroke="midnightblue" d="M815,-336.08C815,-329.01 815,-318.86 815,-309.99"/>
<polygon fill="midnightblue" stroke="midnightblue" points="818.5,-309.75 815,-299.75 811.5,-309.75 818.5,-309.75"/>
</g>
<!-- Node13 -->
<g id="node13" class="node">
<title>Node13</title>
<g id="a_node13"><a xlink:title=" ">
<polygon fill="white" stroke="#bfbfbf" points="1008,-112.5 1008,-131.5 1040,-131.5 1040,-112.5 1008,-112.5"/>
<text text-anchor="middle" x="1024" y="-119.5" font-family="Helvetica,sans-Serif" font-size="10.00">set</text>
</a>
</g>
</g>
<!-- Node8&#45;&gt;Node13 -->
<g id="edge45" class="edge">
<title>Node8&#45;&gt;Node13</title>
<path fill="none" stroke="midnightblue" d="M876.25,-336.48C929.63,-325.38 1003.57,-300.23 1037,-244 1056.18,-211.74 1042.48,-166 1032.3,-141.01"/>
<polygon fill="midnightblue" stroke="midnightblue" points="1035.44,-139.46 1028.26,-131.67 1029.02,-142.24 1035.44,-139.46"/>
</g>
<!-- Node14 -->
<g id="node14" class="node">
<title>Node14</title>
<g id="a_node14"><a xlink:title=" ">
<polygon fill="white" stroke="#bfbfbf" points="1200,-112.5 1200,-131.5 1238,-131.5 1238,-112.5 1200,-112.5"/>
<text text-anchor="middle" x="1219" y="-119.5" font-family="Helvetica,sans-Serif" font-size="10.00">map</text>
</a>
</g>
</g>
<!-- Node8&#45;&gt;Node14 -->
<g id="edge46" class="edge">
<title>Node8&#45;&gt;Node14</title>
<path fill="none" stroke="midnightblue" d="M879.01,-337.46C917.35,-331.14 966.21,-319.83 1006,-300 1091.65,-257.31 1172.88,-174 1204.78,-139.05"/>
<polygon fill="midnightblue" stroke="midnightblue" points="1207.38,-141.39 1211.48,-131.62 1202.18,-136.7 1207.38,-141.39"/>
</g>
<!-- Node22 -->
<g id="node22" class="node">
<title>Node22</title>
<g id="a_node22"><a xlink:title=" ">
<polygon fill="white" stroke="#bfbfbf" points="867.5,-280.5 867.5,-299.5 924.5,-299.5 924.5,-280.5 867.5,-280.5"/>
<text text-anchor="middle" x="896" y="-287.5" font-family="Helvetica,sans-Serif" font-size="10.00">ostream</text>
</a>
</g>
</g>
<!-- Node8&#45;&gt;Node22 -->
<g id="edge43" class="edge">
<title>Node8&#45;&gt;Node22</title>
<path fill="none" stroke="midnightblue" d="M828.01,-336.32C840.53,-327.98 859.68,-315.21 874.47,-305.35"/>
<polygon fill="midnightblue" stroke="midnightblue" points="876.64,-308.11 883.02,-299.65 872.76,-302.29 876.64,-308.11"/>
</g>
<!-- Node9&#45;&gt;Node2 -->
<g id="edge13" class="edge">
<title>Node9&#45;&gt;Node2</title>
<path fill="none" stroke="midnightblue" d="M780.72,-287.17C692.52,-282.2 459.57,-267.19 386,-244 303.56,-218.01 271.18,-206.29 227,-132 218.49,-117.69 213.88,-99.22 211.46,-85.63"/>
<polygon fill="midnightblue" stroke="midnightblue" points="214.89,-84.91 209.91,-75.56 207.98,-85.98 214.89,-84.91"/>
</g>
<!-- Node9&#45;&gt;Node4 -->
<g id="edge14" class="edge">
<title>Node9&#45;&gt;Node4</title>
<path fill="none" stroke="midnightblue" d="M783.67,-280.47C750.48,-271.43 696.54,-256.73 650,-244 559.31,-219.19 532.36,-225.17 446,-188 430.25,-181.22 428.4,-175.55 413,-168 386.5,-155 355.24,-143.15 331.7,-134.87"/>
<polygon fill="midnightblue" stroke="midnightblue" points="332.72,-131.52 322.12,-131.55 330.42,-138.13 332.72,-131.52"/>
</g>
<!-- Node9&#45;&gt;Node6 -->
<g id="edge12" class="edge">
<title>Node9&#45;&gt;Node6</title>
<path fill="none" stroke="midnightblue" d="M825.33,-280.42C840.92,-267.61 871.54,-242.97 899,-224 967.46,-176.72 1100.99,-176.95 1049,-112 998.69,-49.15 749.75,-22.72 645.28,-14.27"/>
<polygon fill="midnightblue" stroke="midnightblue" points="645.28,-10.76 635.04,-13.46 644.73,-17.74 645.28,-10.76"/>
</g>
<!-- Node9&#45;&gt;Node7 -->
<g id="edge40" class="edge">
<title>Node9&#45;&gt;Node7</title>
<path fill="none" stroke="midnightblue" d="M849.09,-281.94C852.44,-281.27 855.78,-280.62 859,-280 948.57,-262.86 982.06,-289.66 1061,-244 1116.76,-211.74 1131.61,-192.76 1153,-132 1166.23,-94.41 1139.06,-50.83 1121.11,-27.6"/>
<polygon fill="midnightblue" stroke="midnightblue" points="1123.78,-25.34 1114.78,-19.75 1118.33,-29.73 1123.78,-25.34"/>
</g>
<!-- Node10 -->
<g id="node10" class="node">
<title>Node10</title>
<g id="a_node10"><a xlink:href="../../d9/d61/ntv2videodefines_8h.html" target="_top" xlink:title="Declares common video macros and structs used in the SDK.">
<polygon fill="white" stroke="black" points="294,-168.5 294,-187.5 404,-187.5 404,-168.5 294,-168.5"/>
<text text-anchor="middle" x="349" y="-175.5" font-family="Helvetica,sans-Serif" font-size="10.00">ntv2videodefines.h</text>
</a>
</g>
</g>
<!-- Node9&#45;&gt;Node10 -->
<g id="edge15" class="edge">
<title>Node9&#45;&gt;Node10</title>
<path fill="none" stroke="midnightblue" d="M780.77,-287.88C696.7,-284.69 482.27,-273.8 418,-244 394.54,-233.12 373.88,-211.1 361.42,-195.72"/>
<polygon fill="midnightblue" stroke="midnightblue" points="363.98,-193.31 355.08,-187.57 358.46,-197.61 363.98,-193.31"/>
</g>
<!-- Node11 -->
<g id="node11" class="node">
<title>Node11</title>
<g id="a_node11"><a xlink:href="../../d4/dd7/ntv2publicinterface_8h.html" target="_top" xlink:title="Declares enums and structs used by all platform drivers and the SDK.">
<polygon fill="white" stroke="black" points="709,-168.5 709,-187.5 829,-187.5 829,-168.5 709,-168.5"/>
<text text-anchor="middle" x="769" y="-175.5" font-family="Helvetica,sans-Serif" font-size="10.00">ntv2publicinterface.h</text>
</a>
</g>
</g>
<!-- Node9&#45;&gt;Node11 -->
<g id="edge17" class="edge">
<title>Node9&#45;&gt;Node11</title>
<path fill="none" stroke="midnightblue" d="M813.21,-280.34C810.43,-267.65 804.48,-243.39 796,-224 791.8,-214.4 785.93,-204.35 780.73,-196.18"/>
<polygon fill="midnightblue" stroke="midnightblue" points="783.5,-194.03 775.08,-187.6 777.66,-197.88 783.5,-194.03"/>
</g>
<!-- Node12 -->
<g id="node12" class="node">
<title>Node12</title>
<g id="a_node12"><a xlink:title=" ">
<polygon fill="white" stroke="#bfbfbf" points="892,-112.5 892,-131.5 952,-131.5 952,-112.5 892,-112.5"/>
<text text-anchor="middle" x="922" y="-119.5" font-family="Helvetica,sans-Serif" font-size="10.00">iostream</text>
</a>
</g>
</g>
<!-- Node9&#45;&gt;Node12 -->
<g id="edge41" class="edge">
<title>Node9&#45;&gt;Node12</title>
<path fill="none" stroke="midnightblue" d="M849.33,-281.71C907.11,-269.4 1017.66,-245.67 1019,-244 1050.25,-205.11 985.44,-159.12 947.26,-136.69"/>
<polygon fill="midnightblue" stroke="midnightblue" points="948.62,-133.44 938.2,-131.51 945.15,-139.51 948.62,-133.44"/>
</g>
<!-- Node15 -->
<g id="node15" class="node">
<title>Node15</title>
<g id="a_node15"><a xlink:title=" ">
<polygon fill="white" stroke="#bfbfbf" points="1096.5,-112.5 1096.5,-131.5 1143.5,-131.5 1143.5,-112.5 1096.5,-112.5"/>
<text text-anchor="middle" x="1120" y="-119.5" font-family="Helvetica,sans-Serif" font-size="10.00">vector</text>
</a>
</g>
</g>
<!-- Node9&#45;&gt;Node15 -->
<g id="edge42" class="edge">
<title>Node9&#45;&gt;Node15</title>
<path fill="none" stroke="midnightblue" d="M849.11,-282.02C852.45,-281.33 855.79,-280.65 859,-280 938.09,-263.91 969.69,-288.54 1037,-244 1075.63,-218.44 1101.26,-168.13 1112.87,-141.14"/>
<polygon fill="midnightblue" stroke="midnightblue" points="1116.17,-142.31 1116.75,-131.73 1109.7,-139.64 1116.17,-142.31"/>
</g>
<!-- Node9&#45;&gt;Node20 -->
<g id="edge31" class="edge">
<title>Node9&#45;&gt;Node20</title>
<path fill="none" stroke="midnightblue" d="M800.22,-280.32C785.73,-271.82 763.43,-258.73 746.51,-248.8"/>
<polygon fill="midnightblue" stroke="midnightblue" points="748.14,-245.7 737.74,-243.65 744.6,-251.74 748.14,-245.7"/>
</g>
<!-- Node21 -->
<g id="node21" class="node">
<title>Node21</title>
<g id="a_node21"><a xlink:href="../../de/d26/ntv2m31enums_8h.html" target="_top" xlink:title="Enumerations for controlling NTV2 devices with m31 HEVC encoders.">
<polygon fill="white" stroke="black" points="908,-224.5 908,-243.5 1010,-243.5 1010,-224.5 908,-224.5"/>
<text text-anchor="middle" x="959" y="-231.5" font-family="Helvetica,sans-Serif" font-size="10.00">ntv2m31enums.h</text>
</a>
</g>
</g>
<!-- Node9&#45;&gt;Node21 -->
<g id="edge39" class="edge">
<title>Node9&#45;&gt;Node21</title>
<path fill="none" stroke="midnightblue" d="M837.82,-280.44C861.83,-271.44 899.83,-257.19 926.87,-247.05"/>
<polygon fill="midnightblue" stroke="midnightblue" points="928.16,-250.3 936.29,-243.52 925.7,-243.75 928.16,-250.3"/>
</g>
<!-- Node10&#45;&gt;Node2 -->
<g id="edge16" class="edge">
<title>Node10&#45;&gt;Node2</title>
<path fill="none" stroke="midnightblue" d="M316.67,-168.47C295.01,-161.47 266.93,-149.78 247,-132 232.56,-119.11 222.11,-99.39 215.87,-85.05"/>
<polygon fill="midnightblue" stroke="midnightblue" points="219.09,-83.67 212.07,-75.73 212.6,-86.31 219.09,-83.67"/>
</g>
<!-- Node11&#45;&gt;Node2 -->
<g id="edge18" class="edge">
<title>Node11&#45;&gt;Node2</title>
<path fill="none" stroke="midnightblue" d="M708.76,-174.8C638.45,-170.96 519.3,-160.48 421,-132 400.76,-126.14 397.82,-119.18 378,-112 336.43,-96.93 287.47,-84.44 252.98,-76.48"/>
<polygon fill="midnightblue" stroke="midnightblue" points="253.73,-73.06 243.2,-74.25 252.18,-79.89 253.73,-73.06"/>
</g>
<!-- Node11&#45;&gt;Node4 -->
<g id="edge19" class="edge">
<title>Node11&#45;&gt;Node4</title>
<path fill="none" stroke="midnightblue" d="M708.61,-170.11C614.22,-159.33 433.49,-138.7 345.96,-128.7"/>
<polygon fill="midnightblue" stroke="midnightblue" points="346.34,-125.22 336.01,-127.57 345.55,-132.18 346.34,-125.22"/>
</g>
<!-- Node11&#45;&gt;Node6 -->
<g id="edge28" class="edge">
<title>Node11&#45;&gt;Node6</title>
<path fill="none" stroke="midnightblue" d="M708.75,-171.91C682.23,-166.32 653.41,-154.94 637,-132 617.06,-104.13 664.1,-87.24 650,-56 644.38,-43.56 633.44,-33.17 623.12,-25.53"/>
<polygon fill="midnightblue" stroke="midnightblue" points="624.96,-22.54 614.73,-19.76 620.99,-28.31 624.96,-22.54"/>
</g>
<!-- Node11&#45;&gt;Node7 -->
<g id="edge24" class="edge">
<title>Node11&#45;&gt;Node7</title>
<path fill="none" stroke="midnightblue" d="M783.16,-168.35C804.48,-155.46 846.25,-130.71 883,-112 951.07,-77.35 1033.5,-41.76 1076.9,-23.5"/>
<polygon fill="midnightblue" stroke="midnightblue" points="1078.44,-26.65 1086.31,-19.55 1075.73,-20.19 1078.44,-26.65"/>
</g>
<!-- Node11&#45;&gt;Node12 -->
<g id="edge20" class="edge">
<title>Node11&#45;&gt;Node12</title>
<path fill="none" stroke="midnightblue" d="M793.24,-168.44C818.87,-159.4 859.49,-145.06 888.24,-134.92"/>
<polygon fill="midnightblue" stroke="midnightblue" points="889.61,-138.15 897.87,-131.52 887.28,-131.54 889.61,-138.15"/>
</g>
<!-- Node11&#45;&gt;Node13 -->
<g id="edge21" class="edge">
<title>Node11&#45;&gt;Node13</title>
<path fill="none" stroke="midnightblue" d="M809.41,-168.44C862.21,-157.26 953.19,-138 997.8,-128.55"/>
<polygon fill="midnightblue" stroke="midnightblue" points="998.78,-131.92 1007.84,-126.42 997.33,-125.07 998.78,-131.92"/>
</g>
<!-- Node11&#45;&gt;Node14 -->
<g id="edge22" class="edge">
<title>Node11&#45;&gt;Node14</title>
<path fill="none" stroke="midnightblue" d="M829.23,-170.3C904.88,-161.8 1038.63,-146.5 1153,-132 1165.12,-130.46 1178.48,-128.66 1189.99,-127.08"/>
<polygon fill="midnightblue" stroke="midnightblue" points="1190.53,-130.54 1199.95,-125.69 1189.56,-123.6 1190.53,-130.54"/>
</g>
<!-- Node11&#45;&gt;Node15 -->
<g id="edge23" class="edge">
<title>Node11&#45;&gt;Node15</title>
<path fill="none" stroke="midnightblue" d="M824.62,-168.44C898.11,-157.14 1025.32,-137.57 1085.95,-128.24"/>
<polygon fill="midnightblue" stroke="midnightblue" points="1086.78,-131.65 1096.13,-126.67 1085.71,-124.73 1086.78,-131.65"/>
</g>
<!-- Node16 -->
<g id="node16" class="node">
<title>Node16</title>
<g id="a_node16"><a xlink:title=" ">
<polygon fill="white" stroke="#bfbfbf" points="646,-112.5 646,-131.5 702,-131.5 702,-112.5 646,-112.5"/>
<text text-anchor="middle" x="674" y="-119.5" font-family="Helvetica,sans-Serif" font-size="10.00">iomanip</text>
</a>
</g>
</g>
<!-- Node11&#45;&gt;Node16 -->
<g id="edge25" class="edge">
<title>Node11&#45;&gt;Node16</title>
<path fill="none" stroke="midnightblue" d="M753.74,-168.32C738.78,-159.82 715.75,-146.73 698.27,-136.8"/>
<polygon fill="midnightblue" stroke="midnightblue" points="699.65,-133.55 689.23,-131.65 696.19,-139.64 699.65,-133.55"/>
</g>
<!-- Node17 -->
<g id="node17" class="node">
<title>Node17</title>
<g id="a_node17"><a xlink:title=" ">
<polygon fill="white" stroke="#bfbfbf" points="720,-112.5 720,-131.5 764,-131.5 764,-112.5 720,-112.5"/>
<text text-anchor="middle" x="742" y="-119.5" font-family="Helvetica,sans-Serif" font-size="10.00">bitset</text>
</a>
</g>
</g>
<!-- Node11&#45;&gt;Node17 -->
<g id="edge26" class="edge">
<title>Node11&#45;&gt;Node17</title>
<path fill="none" stroke="midnightblue" d="M764.54,-168.08C760.85,-160.69 755.48,-149.95 750.91,-140.81"/>
<polygon fill="midnightblue" stroke="midnightblue" points="753.98,-139.13 746.38,-131.75 747.72,-142.26 753.98,-139.13"/>
</g>
<!-- Node18 -->
<g id="node18" class="node">
<title>Node18</title>
<g id="a_node18"><a xlink:title=" ">
<polygon fill="white" stroke="#bfbfbf" points="782.5,-112.5 782.5,-131.5 835.5,-131.5 835.5,-112.5 782.5,-112.5"/>
<text text-anchor="middle" x="809" y="-119.5" font-family="Helvetica,sans-Serif" font-size="10.00">string.h</text>
</a>
</g>
</g>
<!-- Node11&#45;&gt;Node18 -->
<g id="edge27" class="edge">
<title>Node11&#45;&gt;Node18</title>
<path fill="none" stroke="midnightblue" d="M775.61,-168.08C781.26,-160.46 789.54,-149.26 796.45,-139.94"/>
<polygon fill="midnightblue" stroke="midnightblue" points="799.38,-141.87 802.52,-131.75 793.75,-137.7 799.38,-141.87"/>
</g>
<!-- Node19 -->
<g id="node19" class="node">
<title>Node19</title>
<g id="a_node19"><a xlink:href="../../da/df0/ntv2virtualregisters_8h.html" target="_top" xlink:title="Declares enums for virtual registers used in all platform drivers and the SDK.">
<polygon fill="white" stroke="black" points="430,-112.5 430,-131.5 552,-131.5 552,-112.5 430,-112.5"/>
<text text-anchor="middle" x="491" y="-119.5" font-family="Helvetica,sans-Serif" font-size="10.00">ntv2virtualregisters.h</text>
</a>
</g>
</g>
<!-- Node11&#45;&gt;Node19 -->
<g id="edge29" class="edge">
<title>Node11&#45;&gt;Node19</title>
<path fill="none" stroke="midnightblue" d="M724.95,-168.44C676.15,-158.96 597.44,-143.67 544.97,-133.48"/>
<polygon fill="midnightblue" stroke="midnightblue" points="545.33,-129.99 534.84,-131.52 543.99,-136.86 545.33,-129.99"/>
</g>
<!-- Node19&#45;&gt;Node2 -->
<g id="edge30" class="edge">
<title>Node19&#45;&gt;Node2</title>
<path fill="none" stroke="midnightblue" d="M446.32,-112.44C393.46,-102.32 306.03,-85.58 253.33,-75.49"/>
<polygon fill="midnightblue" stroke="midnightblue" points="253.75,-72.01 243.27,-73.56 252.44,-78.88 253.75,-72.01"/>
</g>
<!-- Node20&#45;&gt;Node2 -->
<g id="edge33" class="edge">
<title>Node20&#45;&gt;Node2</title>
<path fill="none" stroke="midnightblue" d="M692.88,-224.47C661.25,-215.48 610.09,-200.88 566,-188 482.32,-163.54 457.71,-167.33 378,-132 362.32,-125.05 360.57,-119.18 345,-112 314.63,-97.99 278.64,-86.28 251.31,-78.32"/>
<polygon fill="midnightblue" stroke="midnightblue" points="252.24,-74.95 241.66,-75.56 250.31,-81.68 252.24,-74.95"/>
</g>
<!-- Node20&#45;&gt;Node4 -->
<g id="edge34" class="edge">
<title>Node20&#45;&gt;Node4</title>
<path fill="none" stroke="midnightblue" d="M662.4,-224.5C615.77,-217.14 550.03,-204.99 494,-188 471.88,-181.29 467.76,-175.78 446,-168 409.89,-155.1 368.03,-142.75 337.72,-134.27"/>
<polygon fill="midnightblue" stroke="midnightblue" points="338.49,-130.85 327.91,-131.54 336.61,-137.59 338.49,-130.85"/>
</g>
<!-- Node20&#45;&gt;Node6 -->
<g id="edge32" class="edge">
<title>Node20&#45;&gt;Node6</title>
<path fill="none" stroke="midnightblue" d="M706.41,-224.42C669.66,-204.36 582.06,-150.36 549,-76 540.38,-56.61 558.74,-37.77 575.59,-25.41"/>
<polygon fill="midnightblue" stroke="midnightblue" points="577.84,-28.11 584.11,-19.57 573.88,-22.33 577.84,-28.11"/>
</g>
<!-- Node20&#45;&gt;Node7 -->
<g id="edge36" class="edge">
<title>Node20&#45;&gt;Node7</title>
<path fill="none" stroke="midnightblue" d="M757.61,-224.49C787.08,-216.68 830.21,-203.93 866,-188 960.8,-145.81 1054.48,-61.6 1091,-26.7"/>
<polygon fill="midnightblue" stroke="midnightblue" points="1093.52,-29.14 1098.28,-19.67 1088.66,-24.1 1093.52,-29.14"/>
</g>
<!-- Node20&#45;&gt;Node11 -->
<g id="edge35" class="edge">
<title>Node20&#45;&gt;Node11</title>
<path fill="none" stroke="midnightblue" d="M730.6,-224.08C737.23,-216.3 747.02,-204.8 755.06,-195.37"/>
<polygon fill="midnightblue" stroke="midnightblue" points="757.73,-197.63 761.55,-187.75 752.4,-193.09 757.73,-197.63"/>
</g>
<!-- Node20&#45;&gt;Node12 -->
<g id="edge37" class="edge">
<title>Node20&#45;&gt;Node12</title>
<path fill="none" stroke="midnightblue" d="M751.43,-224.4C775.35,-216.58 810.02,-203.86 838,-188 863.13,-173.75 888.97,-152.59 905.23,-138.32"/>
<polygon fill="midnightblue" stroke="midnightblue" points="907.68,-140.83 912.81,-131.56 903.02,-135.61 907.68,-140.83"/>
</g>
<!-- Node20&#45;&gt;Node15 -->
<g id="edge38" class="edge">
<title>Node20&#45;&gt;Node15</title>
<path fill="none" stroke="midnightblue" d="M787.2,-226.05C838.98,-219.38 913.24,-207.41 976,-188 1019.6,-174.51 1067.35,-151.1 1095.44,-136.36"/>
<polygon fill="midnightblue" stroke="midnightblue" points="1097.33,-139.32 1104.52,-131.54 1094.05,-133.14 1097.33,-139.32"/>
</g>
<!-- Node23&#45;&gt;Node2 -->
<g id="edge49" class="edge">
<title>Node23&#45;&gt;Node2</title>
<path fill="none" stroke="midnightblue" d="M208.82,-392.18C208.15,-358.43 205.76,-234.28 205,-132 204.93,-123.11 204.61,-120.88 205,-112 205.38,-103.37 206.18,-93.84 206.96,-85.78"/>
<polygon fill="midnightblue" stroke="midnightblue" points="210.46,-85.92 208.01,-75.61 203.5,-85.2 210.46,-85.92"/>
</g>
<!-- Node23&#45;&gt;Node4 -->
<g id="edge51" class="edge">
<title>Node23&#45;&gt;Node4</title>
<path fill="none" stroke="midnightblue" d="M211.7,-392.38C223.83,-353.62 273.43,-195.13 290.33,-141.13"/>
<polygon fill="midnightblue" stroke="midnightblue" points="293.69,-142.11 293.33,-131.52 287.01,-140.02 293.69,-142.11"/>
</g>
<!-- Node23&#45;&gt;Node8 -->
<g id="edge50" class="edge">
<title>Node23&#45;&gt;Node8</title>
<path fill="none" stroke="midnightblue" d="M237.01,-398.5C326.17,-390.56 605.4,-365.68 740.42,-353.65"/>
<polygon fill="midnightblue" stroke="midnightblue" points="741.02,-357.11 750.67,-352.73 740.4,-350.13 741.02,-357.11"/>
</g>
<!-- Node25 -->
<g id="node25" class="node">
<title>Node25</title>
<g id="a_node25"><a xlink:href="../../dd/d02/atomic_8h.html" target="_top" xlink:title="Declares the AJAAtomic class.">
<polygon fill="white" stroke="black" points="1102.5,-336.5 1102.5,-355.5 1209.5,-355.5 1209.5,-336.5 1102.5,-336.5"/>
<text text-anchor="middle" x="1156" y="-343.5" font-family="Helvetica,sans-Serif" font-size="10.00">../system/atomic.h</text>
</a>
</g>
</g>
<!-- Node24&#45;&gt;Node25 -->
<g id="edge53" class="edge">
<title>Node24&#45;&gt;Node25</title>
<path fill="none" stroke="midnightblue" d="M802.55,-392.44C882.02,-382.23 1013.99,-365.26 1092.22,-355.2"/>
<polygon fill="midnightblue" stroke="midnightblue" points="1092.95,-358.64 1102.42,-353.89 1092.06,-351.69 1092.95,-358.64"/>
</g>
<!-- Node26 -->
<g id="node26" class="node">
<title>Node26</title>
<g id="a_node26"><a xlink:href="../../d4/d79/public_8h.html" target="_top" xlink:title="Master header for the ajabase library.">
<polygon fill="white" stroke="black" points="1294,-168.5 1294,-187.5 1436,-187.5 1436,-168.5 1294,-168.5"/>
<text text-anchor="middle" x="1365" y="-175.5" font-family="Helvetica,sans-Serif" font-size="10.00">ajabase/common/public.h</text>
</a>
</g>
</g>
<!-- Node25&#45;&gt;Node26 -->
<g id="edge54" class="edge">
<title>Node25&#45;&gt;Node26</title>
<path fill="none" stroke="midnightblue" d="M1198.2,-336.49C1223.78,-329.76 1255.99,-318.37 1280,-300 1316.89,-271.76 1344.1,-222.98 1356.88,-196.81"/>
<polygon fill="midnightblue" stroke="midnightblue" points="1360.09,-198.22 1361.2,-187.68 1353.76,-195.23 1360.09,-198.22"/>
</g>
<!-- Node26&#45;&gt;Node7 -->
<g id="edge56" class="edge">
<title>Node26&#45;&gt;Node7</title>
<path fill="none" stroke="midnightblue" d="M1355.64,-168.25C1346.65,-159.56 1332.99,-145.61 1323,-132 1300.04,-100.71 1310.77,-79.65 1280,-56 1238.57,-24.16 1176.8,-14.74 1139.36,-12.02"/>
<polygon fill="midnightblue" stroke="midnightblue" points="1139.23,-8.5 1129.03,-11.39 1138.81,-15.49 1139.23,-8.5"/>
</g>
<!-- Node26&#45;&gt;Node14 -->
<g id="edge59" class="edge">
<title>Node26&#45;&gt;Node14</title>
<path fill="none" stroke="midnightblue" d="M1341.87,-168.44C1316.37,-159.01 1275.34,-143.84 1247.78,-133.65"/>
<polygon fill="midnightblue" stroke="midnightblue" points="1248.89,-130.32 1238.3,-130.14 1246.46,-136.89 1248.89,-130.32"/>
</g>
<!-- Node26&#45;&gt;Node15 -->
<g id="edge58" class="edge">
<title>Node26&#45;&gt;Node15</title>
<path fill="none" stroke="midnightblue" d="M1326.18,-168.44C1278.61,-157.96 1198.8,-140.37 1153.7,-130.43"/>
<polygon fill="midnightblue" stroke="midnightblue" points="1154.34,-126.99 1143.82,-128.25 1152.83,-133.82 1154.34,-126.99"/>
</g>
<!-- Node27 -->
<g id="node27" class="node">
<title>Node27</title>
<g id="a_node27"><a xlink:href="../../db/db5/export_8h.html" target="_top" xlink:title="Declares system&#45;dependent import/export macros and libraries.">
<polygon fill="white" stroke="black" points="1332,-112.5 1332,-131.5 1476,-131.5 1476,-112.5 1332,-112.5"/>
<text text-anchor="middle" x="1404" y="-119.5" font-family="Helvetica,sans-Serif" font-size="10.00">ajabase/common/export.h</text>
</a>
</g>
</g>
<!-- Node26&#45;&gt;Node27 -->
<g id="edge55" class="edge">
<title>Node26&#45;&gt;Node27</title>
<path fill="none" stroke="midnightblue" d="M1371.44,-168.08C1376.95,-160.46 1385.03,-149.26 1391.76,-139.94"/>
<polygon fill="midnightblue" stroke="midnightblue" points="1394.66,-141.91 1397.68,-131.75 1388.99,-137.81 1394.66,-141.91"/>
</g>
<!-- Node28 -->
<g id="node28" class="node">
<title>Node28</title>
<g id="a_node28"><a xlink:title=" ">
<polygon fill="white" stroke="#bfbfbf" points="1494,-112.5 1494,-131.5 1526,-131.5 1526,-112.5 1494,-112.5"/>
<text text-anchor="middle" x="1510" y="-119.5" font-family="Helvetica,sans-Serif" font-size="10.00">list</text>
</a>
</g>
</g>
<!-- Node26&#45;&gt;Node28 -->
<g id="edge57" class="edge">
<title>Node26&#45;&gt;Node28</title>
<path fill="none" stroke="midnightblue" d="M1387.98,-168.44C1414.18,-158.69 1456.9,-142.77 1484.22,-132.6"/>
<polygon fill="midnightblue" stroke="midnightblue" points="1485.72,-135.78 1493.87,-129.01 1483.27,-129.22 1485.72,-135.78"/>
</g>
<!-- Node29 -->
<g id="node29" class="node">
<title>Node29</title>
<g id="a_node29"><a xlink:href="../../d9/d49/types_8h.html" target="_top" xlink:title="Declares common types used in the ajabase library.">
<polygon fill="white" stroke="black" points="1544,-112.5 1544,-131.5 1684,-131.5 1684,-112.5 1544,-112.5"/>
<text text-anchor="middle" x="1614" y="-119.5" font-family="Helvetica,sans-Serif" font-size="10.00">ajabase/common/types.h</text>
</a>
</g>
</g>
<!-- Node26&#45;&gt;Node29 -->
<g id="edge60" class="edge">
<title>Node26&#45;&gt;Node29</title>
<path fill="none" stroke="midnightblue" d="M1404.45,-168.44C1447.89,-159.02 1517.79,-143.87 1564.78,-133.68"/>
<polygon fill="midnightblue" stroke="midnightblue" points="1565.7,-137.06 1574.73,-131.52 1564.22,-130.22 1565.7,-137.06"/>
</g>
</g>
</svg>
        <g id="navigator" transform="translate(0 0)" fill="#404254">
                <rect fill="#f2f5e9" fill-opacity="0.5" stroke="#606060" stroke-width=".5" x="0" y="0" width="60" height="60"/>
                <use id="zoomplus" xlink:href="#zoomPlus" x="17" y="9" onmousedown="handleZoom(evt,'in')"/>
                <use id="zoomminus" xlink:href="#zoomMin" x="42" y="9" onmousedown="handleZoom(evt,'out')"/>
                <use id="reset" xlink:href="#resetDef" x="30" y="36" onmousedown="handleReset()"/>
                <g id="arrowUp" xlink:href="#dirArrow" transform="translate(30 24)" onmousedown="handlePan(0,-1)">
                  <use xlink:href="#rim" fill="#404040">
                        <set attributeName="fill" to="#808080" begin="arrowUp.mouseover" end="arrowUp.mouseout"/>
                  </use>
                  <path fill="none" stroke="white" stroke-width="1.5" d="M0,-3.0v7 M-2.5,-0.5L0,-3.0L2.5,-0.5"/>
                </g>
                <g id="arrowRight" xlink:href="#dirArrow" transform="rotate(90) translate(36 -43)" onmousedown="handlePan(1,0)">
                  <use xlink:href="#rim" fill="#404040">
                        <set attributeName="fill" to="#808080" begin="arrowRight.mouseover" end="arrowRight.mouseout"/>
                  </use>
                  <path fill="none" stroke="white" stroke-width="1.5" d="M0,-3.0v7 M-2.5,-0.5L0,-3.0L2.5,-0.5"/>
                </g>
                <g id="arrowDown" xlink:href="#dirArrow" transform="rotate(180) translate(-30 -48)" onmousedown="handlePan(0,1)">
                  <use xlink:href="#rim" fill="#404040">
                        <set attributeName="fill" to="#808080" begin="arrowDown.mouseover" end="arrowDown.mouseout"/>
                  </use>
                  <path fill="none" stroke="white" stroke-width="1.5" d="M0,-3.0v7 M-2.5,-0.5L0,-3.0L2.5,-0.5"/>
                </g>
                <g id="arrowLeft" xlink:href="#dirArrow" transform="rotate(270) translate(-36 17)" onmousedown="handlePan(-1,0)">
                  <use xlink:href="#rim" fill="#404040">
                        <set attributeName="fill" to="#808080" begin="arrowLeft.mouseover" end="arrowLeft.mouseout"/>
                  </use>
                  <path fill="none" stroke="white" stroke-width="1.5" d="M0,-3.0v7 M-2.5,-0.5L0,-3.0L2.5,-0.5"/>
                </g>
        </g>
        <svg viewBox="0 0 15 15" width="100%" height="30px" preserveAspectRatio="xMaxYMin meet">
         <g id="arrow_out" transform="scale(0.3 0.3)">
          <a xlink:href="ntv2captionrenderer_8h__incl_org.svg" target="_base">
           <rect id="button" ry="5" rx="5" y="6" x="6" height="38" width="38"
                fill="#f2f5e9" fill-opacity="0.5" stroke="#606060" stroke-width="1.0"/>
           <path id="arrow"
             d="M 11.500037,31.436501 C 11.940474,20.09759 22.043105,11.32322 32.158766,21.979434 L 37.068811,17.246167 C 37.068811,17.246167 37.088388,32 37.088388,32 L 22.160133,31.978069 C 22.160133,31.978069 26.997745,27.140456 26.997745,27.140456 C 18.528582,18.264221 13.291696,25.230495 11.500037,31.436501 z"
             style="fill:#404040;"/>
          </a>
         </g>
        </svg>
</svg>
