<?xml version="1.0" encoding="UTF-8" standalone="no"?>
<!DOCTYPE svg PUBLIC "-//W3C//DTD SVG 1.1//EN"
 "http://www.w3.org/Graphics/SVG/1.1/DTD/svg11.dtd">
<!-- Generated by graphviz version 2.43.0 (0)
 -->
<!-- Title: nlohmann::json_abiNLOHMANN_JSON_ABI_TAG_LEGACY_DISCARDED_VALUE_COMPARISON_v3_11_NLOHMANN_JSON_VERSION_PATCH::detail::exception Pages: 1 -->
<svg width="634pt" height="345pt"
 viewBox="0.00 0.00 634.00 345.00" xmlns="http://www.w3.org/2000/svg" xmlns:xlink="http://www.w3.org/1999/xlink">
<g id="graph0" class="graph" transform="scale(1 1) rotate(0) translate(4 341)">
<title>nlohmann::json_abiNLOHMANN_JSON_ABI_TAG_LEGACY_DISCARDED_VALUE_COMPARISON_v3_11_NLOHMANN_JSON_VERSION_PATCH::detail::exception</title>
<polygon fill="white" stroke="transparent" points="-4,4 -4,-341 630,-341 630,4 -4,4"/>
<!-- Node1 -->
<g id="node1" class="node">
<title>Node1</title>
<g id="a_node1"><a xlink:title="general exception of the basic_json class">
<polygon fill="#bfbfbf" stroke="black" points="122,-142.5 122,-194.5 345,-194.5 345,-142.5 122,-142.5"/>
<text text-anchor="start" x="130" y="-182.5" font-family="Helvetica,sans-Serif" font-size="10.00">nlohmann::json_abiNLOHMANN</text>
<text text-anchor="start" x="130" y="-171.5" font-family="Helvetica,sans-Serif" font-size="10.00">_JSON_ABI_TAG_LEGACY_DISCARDED</text>
<text text-anchor="start" x="130" y="-160.5" font-family="Helvetica,sans-Serif" font-size="10.00">_VALUE_COMPARISON_v3_11_NLOHMANN</text>
<text text-anchor="middle" x="233.5" y="-149.5" font-family="Helvetica,sans-Serif" font-size="10.00">_JSON_VERSION_PATCH::detail::exception</text>
</a>
</g>
</g>
<!-- Node3 -->
<g id="node3" class="node">
<title>Node3</title>
<g id="a_node3"><a xlink:href="../../d9/df2/classnlohmann_1_1json__abi_n_l_o_h_m_a_n_n___j_s_o_n___a_b_i___t_a_g___l_e_g_a_c_y___d_i_s_c_a_rd12ba52869cf83c84fa2334064cef6ab.html" target="_top" xlink:title="exception indicating errors with iterators">
<polygon fill="white" stroke="black" points="381,-284.5 381,-336.5 626,-336.5 626,-284.5 381,-284.5"/>
<text text-anchor="start" x="389" y="-324.5" font-family="Helvetica,sans-Serif" font-size="10.00">nlohmann::json_abiNLOHMANN</text>
<text text-anchor="start" x="389" y="-313.5" font-family="Helvetica,sans-Serif" font-size="10.00">_JSON_ABI_TAG_LEGACY_DISCARDED</text>
<text text-anchor="start" x="389" y="-302.5" font-family="Helvetica,sans-Serif" font-size="10.00">_VALUE_COMPARISON_v3_11_NLOHMANN</text>
<text text-anchor="middle" x="503.5" y="-291.5" font-family="Helvetica,sans-Serif" font-size="10.00">_JSON_VERSION_PATCH::detail::invalid_iterator</text>
</a>
</g>
</g>
<!-- Node1&#45;&gt;Node3 -->
<g id="edge2" class="edge">
<title>Node1&#45;&gt;Node3</title>
<path fill="none" stroke="midnightblue" d="M271.63,-201.33C299.91,-224.86 340.71,-255.76 381,-275.5 387.6,-278.74 394.56,-281.72 401.66,-284.47"/>
<polygon fill="midnightblue" stroke="midnightblue" points="273.53,-198.36 263.63,-194.6 269.02,-203.72 273.53,-198.36"/>
</g>
<!-- Node4 -->
<g id="node4" class="node">
<title>Node4</title>
<g id="a_node4"><a xlink:href="../../d3/df5/classnlohmann_1_1json__abi_n_l_o_h_m_a_n_n___j_s_o_n___a_b_i___t_a_g___l_e_g_a_c_y___d_i_s_c_a_re6a28039dee5915a4282614de5e90a37.html" target="_top" xlink:title="exception indicating other library errors">
<polygon fill="white" stroke="black" points="391.5,-213.5 391.5,-265.5 615.5,-265.5 615.5,-213.5 391.5,-213.5"/>
<text text-anchor="start" x="399.5" y="-253.5" font-family="Helvetica,sans-Serif" font-size="10.00">nlohmann::json_abiNLOHMANN</text>
<text text-anchor="start" x="399.5" y="-242.5" font-family="Helvetica,sans-Serif" font-size="10.00">_JSON_ABI_TAG_LEGACY_DISCARDED</text>
<text text-anchor="start" x="399.5" y="-231.5" font-family="Helvetica,sans-Serif" font-size="10.00">_VALUE_COMPARISON_v3_11_NLOHMANN</text>
<text text-anchor="middle" x="503.5" y="-220.5" font-family="Helvetica,sans-Serif" font-size="10.00">_JSON_VERSION_PATCH::detail::other_error</text>
</a>
</g>
</g>
<!-- Node1&#45;&gt;Node4 -->
<g id="edge3" class="edge">
<title>Node1&#45;&gt;Node4</title>
<path fill="none" stroke="midnightblue" d="M342.69,-197.16C363.04,-202.55 384.21,-208.16 404.24,-213.47"/>
<polygon fill="midnightblue" stroke="midnightblue" points="343.33,-193.71 332.77,-194.53 341.54,-200.48 343.33,-193.71"/>
</g>
<!-- Node5 -->
<g id="node5" class="node">
<title>Node5</title>
<g id="a_node5"><a xlink:href="../../d1/de4/classnlohmann_1_1json__abi_n_l_o_h_m_a_n_n___j_s_o_n___a_b_i___t_a_g___l_e_g_a_c_y___d_i_s_c_a_r6f2bf581468333e1b5a5d287eac4b071.html" target="_top" xlink:title="exception indicating access out of the defined range">
<polygon fill="white" stroke="black" points="386.5,-142.5 386.5,-194.5 620.5,-194.5 620.5,-142.5 386.5,-142.5"/>
<text text-anchor="start" x="394.5" y="-182.5" font-family="Helvetica,sans-Serif" font-size="10.00">nlohmann::json_abiNLOHMANN</text>
<text text-anchor="start" x="394.5" y="-171.5" font-family="Helvetica,sans-Serif" font-size="10.00">_JSON_ABI_TAG_LEGACY_DISCARDED</text>
<text text-anchor="start" x="394.5" y="-160.5" font-family="Helvetica,sans-Serif" font-size="10.00">_VALUE_COMPARISON_v3_11_NLOHMANN</text>
<text text-anchor="middle" x="503.5" y="-149.5" font-family="Helvetica,sans-Serif" font-size="10.00">_JSON_VERSION_PATCH::detail::out_of_range</text>
</a>
</g>
</g>
<!-- Node1&#45;&gt;Node5 -->
<g id="edge4" class="edge">
<title>Node1&#45;&gt;Node5</title>
<path fill="none" stroke="midnightblue" d="M355.27,-168.5C365.53,-168.5 375.9,-168.5 386.13,-168.5"/>
<polygon fill="midnightblue" stroke="midnightblue" points="355.05,-165 345.05,-168.5 355.05,-172 355.05,-165"/>
</g>
<!-- Node6 -->
<g id="node6" class="node">
<title>Node6</title>
<g id="a_node6"><a xlink:href="../../dd/d0e/classnlohmann_1_1json__abi_n_l_o_h_m_a_n_n___j_s_o_n___a_b_i___t_a_g___l_e_g_a_c_y___d_i_s_c_a_r336e147cdd58ec30750cb682bbb389e1.html" target="_top" xlink:title="exception indicating a parse error">
<polygon fill="white" stroke="black" points="390.5,-71.5 390.5,-123.5 616.5,-123.5 616.5,-71.5 390.5,-71.5"/>
<text text-anchor="start" x="398.5" y="-111.5" font-family="Helvetica,sans-Serif" font-size="10.00">nlohmann::json_abiNLOHMANN</text>
<text text-anchor="start" x="398.5" y="-100.5" font-family="Helvetica,sans-Serif" font-size="10.00">_JSON_ABI_TAG_LEGACY_DISCARDED</text>
<text text-anchor="start" x="398.5" y="-89.5" font-family="Helvetica,sans-Serif" font-size="10.00">_VALUE_COMPARISON_v3_11_NLOHMANN</text>
<text text-anchor="middle" x="503.5" y="-78.5" font-family="Helvetica,sans-Serif" font-size="10.00">_JSON_VERSION_PATCH::detail::parse_error</text>
</a>
</g>
</g>
<!-- Node1&#45;&gt;Node6 -->
<g id="edge5" class="edge">
<title>Node1&#45;&gt;Node6</title>
<path fill="none" stroke="midnightblue" d="M342.69,-139.84C363.04,-134.45 384.21,-128.84 404.24,-123.53"/>
<polygon fill="midnightblue" stroke="midnightblue" points="341.54,-136.52 332.77,-142.47 343.33,-143.29 341.54,-136.52"/>
</g>
<!-- Node7 -->
<g id="node7" class="node">
<title>Node7</title>
<g id="a_node7"><a xlink:href="../../de/def/classnlohmann_1_1json__abi_n_l_o_h_m_a_n_n___j_s_o_n___a_b_i___t_a_g___l_e_g_a_c_y___d_i_s_c_a_rbcd1b5a2162f3d9cec0594e6d60fbf97.html" target="_top" xlink:title="exception indicating executing a member function with a wrong type">
<polygon fill="white" stroke="black" points="392,-0.5 392,-52.5 615,-52.5 615,-0.5 392,-0.5"/>
<text text-anchor="start" x="400" y="-40.5" font-family="Helvetica,sans-Serif" font-size="10.00">nlohmann::json_abiNLOHMANN</text>
<text text-anchor="start" x="400" y="-29.5" font-family="Helvetica,sans-Serif" font-size="10.00">_JSON_ABI_TAG_LEGACY_DISCARDED</text>
<text text-anchor="start" x="400" y="-18.5" font-family="Helvetica,sans-Serif" font-size="10.00">_VALUE_COMPARISON_v3_11_NLOHMANN</text>
<text text-anchor="middle" x="503.5" y="-7.5" font-family="Helvetica,sans-Serif" font-size="10.00">_JSON_VERSION_PATCH::detail::type_error</text>
</a>
</g>
</g>
<!-- Node1&#45;&gt;Node7 -->
<g id="edge6" class="edge">
<title>Node1&#45;&gt;Node7</title>
<path fill="none" stroke="midnightblue" d="M271.63,-135.67C299.91,-112.14 340.71,-81.24 381,-61.5 387.6,-58.26 394.56,-55.28 401.66,-52.53"/>
<polygon fill="midnightblue" stroke="midnightblue" points="269.02,-133.28 263.63,-142.4 273.53,-138.64 269.02,-133.28"/>
</g>
<!-- Node2 -->
<g id="node2" class="node">
<title>Node2</title>
<g id="a_node2"><a xlink:title=" ">
<polygon fill="white" stroke="#bfbfbf" points="0,-159 0,-178 86,-178 86,-159 0,-159"/>
<text text-anchor="middle" x="43" y="-166" font-family="Helvetica,sans-Serif" font-size="10.00">std::exception</text>
</a>
</g>
</g>
<!-- Node2&#45;&gt;Node1 -->
<g id="edge1" class="edge">
<title>Node2&#45;&gt;Node1</title>
<path fill="none" stroke="midnightblue" d="M96.57,-168.5C104.62,-168.5 113.19,-168.5 121.94,-168.5"/>
<polygon fill="midnightblue" stroke="midnightblue" points="96.3,-165 86.3,-168.5 96.3,-172 96.3,-165"/>
</g>
</g>
</svg>
