<?xml version="1.0" encoding="UTF-8" standalone="no"?>
<!DOCTYPE svg PUBLIC "-//W3C//DTD SVG 1.1//EN"
 "http://www.w3.org/Graphics/SVG/1.1/DTD/svg11.dtd">
<!-- Generated by graphviz version 2.43.0 (0)
 -->
<!-- Title: nlohmann::json_abiNLOHMANN_JSON_ABI_TAG_LEGACY_DISCARDED_VALUE_COMPARISON_v3_11_NLOHMANN_JSON_VERSION_PATCH::detail::exception Pages: 1 -->
<!--zoomable 345 -->
<svg id="main" version="1.1" xmlns="http://www.w3.org/2000/svg" xmlns:xlink="http://www.w3.org/1999/xlink" xml:space="preserve" onload="init(evt)">
<style type="text/css"><![CDATA[
.edge:hover path { stroke: red; }
.edge:hover polygon { stroke: red; fill: red; }
]]></style>
<script type="text/javascript"><![CDATA[
var edges = document.getElementsByTagName('g');
if (edges && edges.length) {
  for (var i=0;i<edges.length;i++) {
    if (edges[i].id.substr(0,4)=='edge') {
      edges[i].setAttribute('class','edge');
    }
  }
}
]]></script>
        <defs>
                <circle id="rim" cx="0" cy="0" r="7"/>
                <circle id="rim2" cx="0" cy="0" r="3.5"/>
                <g id="zoomPlus">
                        <use xlink:href="#rim" fill="#404040">
                                <set attributeName="fill" to="#808080" begin="zoomplus.mouseover" end="zoomplus.mouseout"/>
                        </use>
                        <path d="M-4,0h8M0,-4v8" fill="none" stroke="white" stroke-width="1.5" pointer-events="none"/>
                </g>
                <g id="zoomMin">
                        <use xlink:href="#rim" fill="#404040">
                                <set attributeName="fill" to="#808080" begin="zoomminus.mouseover" end="zoomminus.mouseout"/>
                        </use>
                        <path d="M-4,0h8" fill="none" stroke="white" stroke-width="1.5" pointer-events="none"/>
                </g>
                <g id="dirArrow">
                        <path fill="none" stroke="white" stroke-width="1.5" d="M0,-3.0v7 M-2.5,-0.5L0,-3.0L2.5,-0.5"/>
                </g>
               <g id="resetDef">
                       <use xlink:href="#rim2" fill="#404040">
                               <set attributeName="fill" to="#808080" begin="reset.mouseover" end="reset.mouseout"/>
                       </use>
               </g>
        </defs>

<script type="text/javascript">
var viewWidth = 634;
var viewHeight = 345;
var sectionId = 'dynsection-0';
</script>
<script xlink:href="../../svgpan.js"/>
<svg id="graph" class="graph">
<g id="viewport">
<title>nlohmann::json_abiNLOHMANN_JSON_ABI_TAG_LEGACY_DISCARDED_VALUE_COMPARISON_v3_11_NLOHMANN_JSON_VERSION_PATCH::detail::exception</title>
<polygon fill="white" stroke="transparent" points="-4,4 -4,-341 630,-341 630,4 -4,4"/>
<!-- Node1 -->
<g id="node1" class="node">
<title>Node1</title>
<g id="a_node1"><a xlink:title="general exception of the basic_json class">
<polygon fill="#bfbfbf" stroke="black" points="122,-142.5 122,-194.5 345,-194.5 345,-142.5 122,-142.5"/>
<text text-anchor="start" x="130" y="-182.5" font-family="Helvetica,sans-Serif" font-size="10.00">nlohmann::json_abiNLOHMANN</text>
<text text-anchor="start" x="130" y="-171.5" font-family="Helvetica,sans-Serif" font-size="10.00">_JSON_ABI_TAG_LEGACY_DISCARDED</text>
<text text-anchor="start" x="130" y="-160.5" font-family="Helvetica,sans-Serif" font-size="10.00">_VALUE_COMPARISON_v3_11_NLOHMANN</text>
<text text-anchor="middle" x="233.5" y="-149.5" font-family="Helvetica,sans-Serif" font-size="10.00">_JSON_VERSION_PATCH::detail::exception</text>
</a>
</g>
</g>
<!-- Node3 -->
<g id="node3" class="node">
<title>Node3</title>
<g id="a_node3"><a xlink:href="../../d9/df2/classnlohmann_1_1json__abi_n_l_o_h_m_a_n_n___j_s_o_n___a_b_i___t_a_g___l_e_g_a_c_y___d_i_s_c_a_rd12ba52869cf83c84fa2334064cef6ab.html" target="_top" xlink:title="exception indicating errors with iterators">
<polygon fill="white" stroke="black" points="381,-284.5 381,-336.5 626,-336.5 626,-284.5 381,-284.5"/>
<text text-anchor="start" x="389" y="-324.5" font-family="Helvetica,sans-Serif" font-size="10.00">nlohmann::json_abiNLOHMANN</text>
<text text-anchor="start" x="389" y="-313.5" font-family="Helvetica,sans-Serif" font-size="10.00">_JSON_ABI_TAG_LEGACY_DISCARDED</text>
<text text-anchor="start" x="389" y="-302.5" font-family="Helvetica,sans-Serif" font-size="10.00">_VALUE_COMPARISON_v3_11_NLOHMANN</text>
<text text-anchor="middle" x="503.5" y="-291.5" font-family="Helvetica,sans-Serif" font-size="10.00">_JSON_VERSION_PATCH::detail::invalid_iterator</text>
</a>
</g>
</g>
<!-- Node1&#45;&gt;Node3 -->
<g id="edge2" class="edge">
<title>Node1&#45;&gt;Node3</title>
<path fill="none" stroke="midnightblue" d="M271.63,-201.33C299.91,-224.86 340.71,-255.76 381,-275.5 387.6,-278.74 394.56,-281.72 401.66,-284.47"/>
<polygon fill="midnightblue" stroke="midnightblue" points="273.53,-198.36 263.63,-194.6 269.02,-203.72 273.53,-198.36"/>
</g>
<!-- Node4 -->
<g id="node4" class="node">
<title>Node4</title>
<g id="a_node4"><a xlink:href="../../d3/df5/classnlohmann_1_1json__abi_n_l_o_h_m_a_n_n___j_s_o_n___a_b_i___t_a_g___l_e_g_a_c_y___d_i_s_c_a_re6a28039dee5915a4282614de5e90a37.html" target="_top" xlink:title="exception indicating other library errors">
<polygon fill="white" stroke="black" points="391.5,-213.5 391.5,-265.5 615.5,-265.5 615.5,-213.5 391.5,-213.5"/>
<text text-anchor="start" x="399.5" y="-253.5" font-family="Helvetica,sans-Serif" font-size="10.00">nlohmann::json_abiNLOHMANN</text>
<text text-anchor="start" x="399.5" y="-242.5" font-family="Helvetica,sans-Serif" font-size="10.00">_JSON_ABI_TAG_LEGACY_DISCARDED</text>
<text text-anchor="start" x="399.5" y="-231.5" font-family="Helvetica,sans-Serif" font-size="10.00">_VALUE_COMPARISON_v3_11_NLOHMANN</text>
<text text-anchor="middle" x="503.5" y="-220.5" font-family="Helvetica,sans-Serif" font-size="10.00">_JSON_VERSION_PATCH::detail::other_error</text>
</a>
</g>
</g>
<!-- Node1&#45;&gt;Node4 -->
<g id="edge3" class="edge">
<title>Node1&#45;&gt;Node4</title>
<path fill="none" stroke="midnightblue" d="M342.69,-197.16C363.04,-202.55 384.21,-208.16 404.24,-213.47"/>
<polygon fill="midnightblue" stroke="midnightblue" points="343.33,-193.71 332.77,-194.53 341.54,-200.48 343.33,-193.71"/>
</g>
<!-- Node5 -->
<g id="node5" class="node">
<title>Node5</title>
<g id="a_node5"><a xlink:href="../../d1/de4/classnlohmann_1_1json__abi_n_l_o_h_m_a_n_n___j_s_o_n___a_b_i___t_a_g___l_e_g_a_c_y___d_i_s_c_a_r6f2bf581468333e1b5a5d287eac4b071.html" target="_top" xlink:title="exception indicating access out of the defined range">
<polygon fill="white" stroke="black" points="386.5,-142.5 386.5,-194.5 620.5,-194.5 620.5,-142.5 386.5,-142.5"/>
<text text-anchor="start" x="394.5" y="-182.5" font-family="Helvetica,sans-Serif" font-size="10.00">nlohmann::json_abiNLOHMANN</text>
<text text-anchor="start" x="394.5" y="-171.5" font-family="Helvetica,sans-Serif" font-size="10.00">_JSON_ABI_TAG_LEGACY_DISCARDED</text>
<text text-anchor="start" x="394.5" y="-160.5" font-family="Helvetica,sans-Serif" font-size="10.00">_VALUE_COMPARISON_v3_11_NLOHMANN</text>
<text text-anchor="middle" x="503.5" y="-149.5" font-family="Helvetica,sans-Serif" font-size="10.00">_JSON_VERSION_PATCH::detail::out_of_range</text>
</a>
</g>
</g>
<!-- Node1&#45;&gt;Node5 -->
<g id="edge4" class="edge">
<title>Node1&#45;&gt;Node5</title>
<path fill="none" stroke="midnightblue" d="M355.27,-168.5C365.53,-168.5 375.9,-168.5 386.13,-168.5"/>
<polygon fill="midnightblue" stroke="midnightblue" points="355.05,-165 345.05,-168.5 355.05,-172 355.05,-165"/>
</g>
<!-- Node6 -->
<g id="node6" class="node">
<title>Node6</title>
<g id="a_node6"><a xlink:href="../../dd/d0e/classnlohmann_1_1json__abi_n_l_o_h_m_a_n_n___j_s_o_n___a_b_i___t_a_g___l_e_g_a_c_y___d_i_s_c_a_r336e147cdd58ec30750cb682bbb389e1.html" target="_top" xlink:title="exception indicating a parse error">
<polygon fill="white" stroke="black" points="390.5,-71.5 390.5,-123.5 616.5,-123.5 616.5,-71.5 390.5,-71.5"/>
<text text-anchor="start" x="398.5" y="-111.5" font-family="Helvetica,sans-Serif" font-size="10.00">nlohmann::json_abiNLOHMANN</text>
<text text-anchor="start" x="398.5" y="-100.5" font-family="Helvetica,sans-Serif" font-size="10.00">_JSON_ABI_TAG_LEGACY_DISCARDED</text>
<text text-anchor="start" x="398.5" y="-89.5" font-family="Helvetica,sans-Serif" font-size="10.00">_VALUE_COMPARISON_v3_11_NLOHMANN</text>
<text text-anchor="middle" x="503.5" y="-78.5" font-family="Helvetica,sans-Serif" font-size="10.00">_JSON_VERSION_PATCH::detail::parse_error</text>
</a>
</g>
</g>
<!-- Node1&#45;&gt;Node6 -->
<g id="edge5" class="edge">
<title>Node1&#45;&gt;Node6</title>
<path fill="none" stroke="midnightblue" d="M342.69,-139.84C363.04,-134.45 384.21,-128.84 404.24,-123.53"/>
<polygon fill="midnightblue" stroke="midnightblue" points="341.54,-136.52 332.77,-142.47 343.33,-143.29 341.54,-136.52"/>
</g>
<!-- Node7 -->
<g id="node7" class="node">
<title>Node7</title>
<g id="a_node7"><a xlink:href="../../de/def/classnlohmann_1_1json__abi_n_l_o_h_m_a_n_n___j_s_o_n___a_b_i___t_a_g___l_e_g_a_c_y___d_i_s_c_a_rbcd1b5a2162f3d9cec0594e6d60fbf97.html" target="_top" xlink:title="exception indicating executing a member function with a wrong type">
<polygon fill="white" stroke="black" points="392,-0.5 392,-52.5 615,-52.5 615,-0.5 392,-0.5"/>
<text text-anchor="start" x="400" y="-40.5" font-family="Helvetica,sans-Serif" font-size="10.00">nlohmann::json_abiNLOHMANN</text>
<text text-anchor="start" x="400" y="-29.5" font-family="Helvetica,sans-Serif" font-size="10.00">_JSON_ABI_TAG_LEGACY_DISCARDED</text>
<text text-anchor="start" x="400" y="-18.5" font-family="Helvetica,sans-Serif" font-size="10.00">_VALUE_COMPARISON_v3_11_NLOHMANN</text>
<text text-anchor="middle" x="503.5" y="-7.5" font-family="Helvetica,sans-Serif" font-size="10.00">_JSON_VERSION_PATCH::detail::type_error</text>
</a>
</g>
</g>
<!-- Node1&#45;&gt;Node7 -->
<g id="edge6" class="edge">
<title>Node1&#45;&gt;Node7</title>
<path fill="none" stroke="midnightblue" d="M271.63,-135.67C299.91,-112.14 340.71,-81.24 381,-61.5 387.6,-58.26 394.56,-55.28 401.66,-52.53"/>
<polygon fill="midnightblue" stroke="midnightblue" points="269.02,-133.28 263.63,-142.4 273.53,-138.64 269.02,-133.28"/>
</g>
<!-- Node2 -->
<g id="node2" class="node">
<title>Node2</title>
<g id="a_node2"><a xlink:title=" ">
<polygon fill="white" stroke="#bfbfbf" points="0,-159 0,-178 86,-178 86,-159 0,-159"/>
<text text-anchor="middle" x="43" y="-166" font-family="Helvetica,sans-Serif" font-size="10.00">std::exception</text>
</a>
</g>
</g>
<!-- Node2&#45;&gt;Node1 -->
<g id="edge1" class="edge">
<title>Node2&#45;&gt;Node1</title>
<path fill="none" stroke="midnightblue" d="M96.57,-168.5C104.62,-168.5 113.19,-168.5 121.94,-168.5"/>
<polygon fill="midnightblue" stroke="midnightblue" points="96.3,-165 86.3,-168.5 96.3,-172 96.3,-165"/>
</g>
</g>
</svg>
        <g id="navigator" transform="translate(0 0)" fill="#404254">
                <rect fill="#f2f5e9" fill-opacity="0.5" stroke="#606060" stroke-width=".5" x="0" y="0" width="60" height="60"/>
                <use id="zoomplus" xlink:href="#zoomPlus" x="17" y="9" onmousedown="handleZoom(evt,'in')"/>
                <use id="zoomminus" xlink:href="#zoomMin" x="42" y="9" onmousedown="handleZoom(evt,'out')"/>
                <use id="reset" xlink:href="#resetDef" x="30" y="36" onmousedown="handleReset()"/>
                <g id="arrowUp" xlink:href="#dirArrow" transform="translate(30 24)" onmousedown="handlePan(0,-1)">
                  <use xlink:href="#rim" fill="#404040">
                        <set attributeName="fill" to="#808080" begin="arrowUp.mouseover" end="arrowUp.mouseout"/>
                  </use>
                  <path fill="none" stroke="white" stroke-width="1.5" d="M0,-3.0v7 M-2.5,-0.5L0,-3.0L2.5,-0.5"/>
                </g>
                <g id="arrowRight" xlink:href="#dirArrow" transform="rotate(90) translate(36 -43)" onmousedown="handlePan(1,0)">
                  <use xlink:href="#rim" fill="#404040">
                        <set attributeName="fill" to="#808080" begin="arrowRight.mouseover" end="arrowRight.mouseout"/>
                  </use>
                  <path fill="none" stroke="white" stroke-width="1.5" d="M0,-3.0v7 M-2.5,-0.5L0,-3.0L2.5,-0.5"/>
                </g>
                <g id="arrowDown" xlink:href="#dirArrow" transform="rotate(180) translate(-30 -48)" onmousedown="handlePan(0,1)">
                  <use xlink:href="#rim" fill="#404040">
                        <set attributeName="fill" to="#808080" begin="arrowDown.mouseover" end="arrowDown.mouseout"/>
                  </use>
                  <path fill="none" stroke="white" stroke-width="1.5" d="M0,-3.0v7 M-2.5,-0.5L0,-3.0L2.5,-0.5"/>
                </g>
                <g id="arrowLeft" xlink:href="#dirArrow" transform="rotate(270) translate(-36 17)" onmousedown="handlePan(-1,0)">
                  <use xlink:href="#rim" fill="#404040">
                        <set attributeName="fill" to="#808080" begin="arrowLeft.mouseover" end="arrowLeft.mouseout"/>
                  </use>
                  <path fill="none" stroke="white" stroke-width="1.5" d="M0,-3.0v7 M-2.5,-0.5L0,-3.0L2.5,-0.5"/>
                </g>
        </g>
        <svg viewBox="0 0 15 15" width="100%" height="30px" preserveAspectRatio="xMaxYMin meet">
         <g id="arrow_out" transform="scale(0.3 0.3)">
          <a xlink:href="classnlohmann_1_1json__abi_n_l_o_h_m_a_n_n___j_s_o_n___a_b_i___t_a_g___l_e_g_a_c_y___d_i_s_c_a_rff596696985ee14786c1bef307219f93_org.svg" target="_base">
           <rect id="button" ry="5" rx="5" y="6" x="6" height="38" width="38"
                fill="#f2f5e9" fill-opacity="0.5" stroke="#606060" stroke-width="1.0"/>
           <path id="arrow"
             d="M 11.500037,31.436501 C 11.940474,20.09759 22.043105,11.32322 32.158766,21.979434 L 37.068811,17.246167 C 37.068811,17.246167 37.088388,32 37.088388,32 L 22.160133,31.978069 C 22.160133,31.978069 26.997745,27.140456 26.997745,27.140456 C 18.528582,18.264221 13.291696,25.230495 11.500037,31.436501 z"
             style="fill:#404040;"/>
          </a>
         </g>
        </svg>
</svg>
