<?xml version="1.0" encoding="UTF-8" standalone="no"?>
<!DOCTYPE svg PUBLIC "-//W3C//DTD SVG 1.1//EN"
 "http://www.w3.org/Graphics/SVG/1.1/DTD/svg11.dtd">
<!-- Generated by graphviz version 2.43.0 (0)
 -->
<!-- Title: /home/tcbuilder/buildAgent/work/df8e8cce5bebfd58/libajacc/includes/ntv2captiontranslatorchannel608to708.h Pages: 1 -->
<svg width="269pt" height="128pt"
 viewBox="0.00 0.00 269.00 128.00" xmlns="http://www.w3.org/2000/svg" xmlns:xlink="http://www.w3.org/1999/xlink">
<g id="graph0" class="graph" transform="scale(1 1) rotate(0) translate(4 124)">
<title>/home/tcbuilder/buildAgent/work/df8e8cce5bebfd58/libajacc/includes/ntv2captiontranslatorchannel608to708.h</title>
<polygon fill="white" stroke="transparent" points="-4,4 -4,-124 265,-124 265,4 -4,4"/>
<!-- Node1 -->
<g id="node1" class="node">
<title>Node1</title>
<g id="a_node1"><a xlink:title="Declares the CNTV2CaptionTranslatorChannel608to708 class.">
<polygon fill="#bfbfbf" stroke="black" points="0,-78.5 0,-119.5 261,-119.5 261,-78.5 0,-78.5"/>
<text text-anchor="start" x="8" y="-107.5" font-family="Helvetica,sans-Serif" font-size="10.00">/home/tcbuilder/buildAgent</text>
<text text-anchor="start" x="8" y="-96.5" font-family="Helvetica,sans-Serif" font-size="10.00">/work/df8e8cce5bebfd58/libajacc</text>
<text text-anchor="middle" x="130.5" y="-85.5" font-family="Helvetica,sans-Serif" font-size="10.00">/includes/ntv2captiontranslatorchannel608to708.h</text>
</a>
</g>
</g>
<!-- Node2 -->
<g id="node2" class="node">
<title>Node2</title>
<g id="a_node2"><a xlink:href="../../df/d2f/ntv2captiontranslator608to708_8h.html" target="_top" xlink:title="Declares the CNTV2CaptionTranslator608to708 class.">
<polygon fill="white" stroke="black" points="19,-0.5 19,-41.5 242,-41.5 242,-0.5 19,-0.5"/>
<text text-anchor="start" x="27" y="-29.5" font-family="Helvetica,sans-Serif" font-size="10.00">/home/tcbuilder/buildAgent</text>
<text text-anchor="start" x="27" y="-18.5" font-family="Helvetica,sans-Serif" font-size="10.00">/work/df8e8cce5bebfd58/libajacc</text>
<text text-anchor="middle" x="130.5" y="-7.5" font-family="Helvetica,sans-Serif" font-size="10.00">/includes/ntv2captiontranslator608to708.h</text>
</a>
</g>
</g>
<!-- Node1&#45;&gt;Node2 -->
<g id="edge1" class="edge">
<title>Node1&#45;&gt;Node2</title>
<path fill="none" stroke="midnightblue" d="M130.5,-68.3C130.5,-59.3 130.5,-49.65 130.5,-41.51"/>
<polygon fill="midnightblue" stroke="midnightblue" points="127,-68.43 130.5,-78.43 134,-68.43 127,-68.43"/>
</g>
</g>
</svg>
