<?xml version="1.0" encoding="UTF-8" standalone="no"?>
<!DOCTYPE svg PUBLIC "-//W3C//DTD SVG 1.1//EN"
 "http://www.w3.org/Graphics/SVG/1.1/DTD/svg11.dtd">
<!-- Generated by graphviz version 2.43.0 (0)
 -->
<!-- Title: /home/tcbuilder/buildAgent/work/df8e8cce5bebfd58/libajantv2/ajabase/system/bm/processimpl.h Pages: 1 -->
<svg width="594pt" height="218pt"
 viewBox="0.00 0.00 594.00 218.00" xmlns="http://www.w3.org/2000/svg" xmlns:xlink="http://www.w3.org/1999/xlink">
<g id="graph0" class="graph" transform="scale(1 1) rotate(0) translate(4 214)">
<title>/home/tcbuilder/buildAgent/work/df8e8cce5bebfd58/libajantv2/ajabase/system/bm/processimpl.h</title>
<polygon fill="white" stroke="transparent" points="-4,4 -4,-214 590,-214 590,4 -4,4"/>
<!-- Node1 -->
<g id="node1" class="node">
<title>Node1</title>
<g id="a_node1"><a xlink:title=" ">
<polygon fill="#bfbfbf" stroke="black" points="162,-168.5 162,-209.5 350,-209.5 350,-168.5 162,-168.5"/>
<text text-anchor="start" x="170" y="-197.5" font-family="Helvetica,sans-Serif" font-size="10.00">/home/tcbuilder/buildAgent</text>
<text text-anchor="start" x="170" y="-186.5" font-family="Helvetica,sans-Serif" font-size="10.00">/work/df8e8cce5bebfd58/libajantv2</text>
<text text-anchor="middle" x="256" y="-175.5" font-family="Helvetica,sans-Serif" font-size="10.00">/ajabase/system/bm/processimpl.h</text>
</a>
</g>
</g>
<!-- Node2 -->
<g id="node2" class="node">
<title>Node2</title>
<g id="a_node2"><a xlink:href="../../dc/db2/system_8h.html" target="_top" xlink:title="System specific functions.">
<polygon fill="white" stroke="black" points="346,-112.5 346,-131.5 488,-131.5 488,-112.5 346,-112.5"/>
<text text-anchor="middle" x="417" y="-119.5" font-family="Helvetica,sans-Serif" font-size="10.00">ajabase/system/system.h</text>
</a>
</g>
</g>
<!-- Node1&#45;&gt;Node2 -->
<g id="edge1" class="edge">
<title>Node1&#45;&gt;Node2</title>
<path fill="none" stroke="midnightblue" d="M304.31,-168.5C330.89,-157.77 363.08,-144.77 386.24,-135.42"/>
<polygon fill="midnightblue" stroke="midnightblue" points="387.61,-138.64 395.57,-131.65 384.99,-132.15 387.61,-138.64"/>
</g>
<!-- Node10 -->
<g id="node10" class="node">
<title>Node10</title>
<g id="a_node10"><a xlink:href="../../dc/d54/common_8h.html" target="_top" xlink:title="Private include file for all ajabase sources.">
<polygon fill="white" stroke="black" points="78.5,-56.5 78.5,-75.5 233.5,-75.5 233.5,-56.5 78.5,-56.5"/>
<text text-anchor="middle" x="156" y="-63.5" font-family="Helvetica,sans-Serif" font-size="10.00">ajabase/common/common.h</text>
</a>
</g>
</g>
<!-- Node1&#45;&gt;Node10 -->
<g id="edge9" class="edge">
<title>Node1&#45;&gt;Node10</title>
<path fill="none" stroke="midnightblue" d="M217.51,-168.33C202.7,-159.08 186.78,-146.8 176,-132 166.12,-118.43 161.04,-99.88 158.49,-86.07"/>
<polygon fill="midnightblue" stroke="midnightblue" points="161.88,-85.14 156.88,-75.8 154.97,-86.22 161.88,-85.14"/>
</g>
<!-- Node12 -->
<g id="node12" class="node">
<title>Node12</title>
<g id="a_node12"><a xlink:href="../../da/d42/process_8h.html" target="_top" xlink:title="Declares the AJAProcess class.">
<polygon fill="white" stroke="black" points="184.5,-112.5 184.5,-131.5 327.5,-131.5 327.5,-112.5 184.5,-112.5"/>
<text text-anchor="middle" x="256" y="-119.5" font-family="Helvetica,sans-Serif" font-size="10.00">ajabase/system/process.h</text>
</a>
</g>
</g>
<!-- Node1&#45;&gt;Node12 -->
<g id="edge14" class="edge">
<title>Node1&#45;&gt;Node12</title>
<path fill="none" stroke="midnightblue" d="M256,-168.5C256,-160.07 256,-150.24 256,-141.87"/>
<polygon fill="midnightblue" stroke="midnightblue" points="259.5,-141.65 256,-131.65 252.5,-141.65 259.5,-141.65"/>
</g>
<!-- Node3 -->
<g id="node3" class="node">
<title>Node3</title>
<g id="a_node3"><a xlink:href="../../d4/d79/public_8h.html" target="_top" xlink:title="Master header for the ajabase library.">
<polygon fill="white" stroke="black" points="256,-56.5 256,-75.5 398,-75.5 398,-56.5 256,-56.5"/>
<text text-anchor="middle" x="327" y="-63.5" font-family="Helvetica,sans-Serif" font-size="10.00">ajabase/common/public.h</text>
</a>
</g>
</g>
<!-- Node2&#45;&gt;Node3 -->
<g id="edge2" class="edge">
<title>Node2&#45;&gt;Node3</title>
<path fill="none" stroke="midnightblue" d="M402.54,-112.32C388.5,-103.9 366.95,-90.97 350.46,-81.07"/>
<polygon fill="midnightblue" stroke="midnightblue" points="351.8,-77.8 341.42,-75.65 348.2,-83.8 351.8,-77.8"/>
</g>
<!-- Node4 -->
<g id="node4" class="node">
<title>Node4</title>
<g id="a_node4"><a xlink:href="../../db/db5/export_8h.html" target="_top" xlink:title="Declares system&#45;dependent import/export macros and libraries.">
<polygon fill="white" stroke="black" points="50,-0.5 50,-19.5 194,-19.5 194,-0.5 50,-0.5"/>
<text text-anchor="middle" x="122" y="-7.5" font-family="Helvetica,sans-Serif" font-size="10.00">ajabase/common/export.h</text>
</a>
</g>
</g>
<!-- Node3&#45;&gt;Node4 -->
<g id="edge3" class="edge">
<title>Node3&#45;&gt;Node4</title>
<path fill="none" stroke="midnightblue" d="M294.52,-56.44C259.28,-47.16 202.9,-32.31 164.24,-22.13"/>
<polygon fill="midnightblue" stroke="midnightblue" points="164.89,-18.68 154.33,-19.52 163.11,-25.45 164.89,-18.68"/>
</g>
<!-- Node5 -->
<g id="node5" class="node">
<title>Node5</title>
<g id="a_node5"><a xlink:title=" ">
<polygon fill="white" stroke="#bfbfbf" points="212,-0.5 212,-19.5 256,-19.5 256,-0.5 212,-0.5"/>
<text text-anchor="middle" x="234" y="-7.5" font-family="Helvetica,sans-Serif" font-size="10.00">string</text>
</a>
</g>
</g>
<!-- Node3&#45;&gt;Node5 -->
<g id="edge4" class="edge">
<title>Node3&#45;&gt;Node5</title>
<path fill="none" stroke="midnightblue" d="M312.06,-56.32C297.41,-47.82 274.87,-34.73 257.76,-24.8"/>
<polygon fill="midnightblue" stroke="midnightblue" points="259.31,-21.65 248.9,-19.65 255.8,-27.7 259.31,-21.65"/>
</g>
<!-- Node6 -->
<g id="node6" class="node">
<title>Node6</title>
<g id="a_node6"><a xlink:title=" ">
<polygon fill="white" stroke="#bfbfbf" points="340,-0.5 340,-19.5 372,-19.5 372,-0.5 340,-0.5"/>
<text text-anchor="middle" x="356" y="-7.5" font-family="Helvetica,sans-Serif" font-size="10.00">list</text>
</a>
</g>
</g>
<!-- Node3&#45;&gt;Node6 -->
<g id="edge5" class="edge">
<title>Node3&#45;&gt;Node6</title>
<path fill="none" stroke="midnightblue" d="M331.79,-56.08C335.76,-48.69 341.53,-37.95 346.43,-28.81"/>
<polygon fill="midnightblue" stroke="midnightblue" points="349.65,-30.22 351.3,-19.75 343.49,-26.91 349.65,-30.22"/>
</g>
<!-- Node7 -->
<g id="node7" class="node">
<title>Node7</title>
<g id="a_node7"><a xlink:title=" ">
<polygon fill="white" stroke="#bfbfbf" points="274.5,-0.5 274.5,-19.5 321.5,-19.5 321.5,-0.5 274.5,-0.5"/>
<text text-anchor="middle" x="298" y="-7.5" font-family="Helvetica,sans-Serif" font-size="10.00">vector</text>
</a>
</g>
</g>
<!-- Node3&#45;&gt;Node7 -->
<g id="edge6" class="edge">
<title>Node3&#45;&gt;Node7</title>
<path fill="none" stroke="midnightblue" d="M322.21,-56.08C318.24,-48.69 312.47,-37.95 307.57,-28.81"/>
<polygon fill="midnightblue" stroke="midnightblue" points="310.51,-26.91 302.7,-19.75 304.35,-30.22 310.51,-26.91"/>
</g>
<!-- Node8 -->
<g id="node8" class="node">
<title>Node8</title>
<g id="a_node8"><a xlink:title=" ">
<polygon fill="white" stroke="#bfbfbf" points="390,-0.5 390,-19.5 428,-19.5 428,-0.5 390,-0.5"/>
<text text-anchor="middle" x="409" y="-7.5" font-family="Helvetica,sans-Serif" font-size="10.00">map</text>
</a>
</g>
</g>
<!-- Node3&#45;&gt;Node8 -->
<g id="edge7" class="edge">
<title>Node3&#45;&gt;Node8</title>
<path fill="none" stroke="midnightblue" d="M340.17,-56.32C352.85,-47.98 372.23,-35.21 387.21,-25.35"/>
<polygon fill="midnightblue" stroke="midnightblue" points="389.43,-28.08 395.86,-19.65 385.58,-22.23 389.43,-28.08"/>
</g>
<!-- Node9 -->
<g id="node9" class="node">
<title>Node9</title>
<g id="a_node9"><a xlink:href="../../d9/d49/types_8h.html" target="_top" xlink:title="Declares common types used in the ajabase library.">
<polygon fill="white" stroke="black" points="446,-0.5 446,-19.5 586,-19.5 586,-0.5 446,-0.5"/>
<text text-anchor="middle" x="516" y="-7.5" font-family="Helvetica,sans-Serif" font-size="10.00">ajabase/common/types.h</text>
</a>
</g>
</g>
<!-- Node3&#45;&gt;Node9 -->
<g id="edge8" class="edge">
<title>Node3&#45;&gt;Node9</title>
<path fill="none" stroke="midnightblue" d="M356.95,-56.44C389.16,-47.24 440.53,-32.56 476.14,-22.39"/>
<polygon fill="midnightblue" stroke="midnightblue" points="477.54,-25.63 486.19,-19.52 475.62,-18.9 477.54,-25.63"/>
</g>
<!-- Node10&#45;&gt;Node4 -->
<g id="edge10" class="edge">
<title>Node10&#45;&gt;Node4</title>
<path fill="none" stroke="midnightblue" d="M150.39,-56.08C145.63,-48.53 138.68,-37.49 132.85,-28.23"/>
<polygon fill="midnightblue" stroke="midnightblue" points="135.8,-26.35 127.51,-19.75 129.88,-30.08 135.8,-26.35"/>
</g>
<!-- Node10&#45;&gt;Node5 -->
<g id="edge12" class="edge">
<title>Node10&#45;&gt;Node5</title>
<path fill="none" stroke="midnightblue" d="M168.53,-56.32C180.59,-47.98 199.03,-35.21 213.27,-25.35"/>
<polygon fill="midnightblue" stroke="midnightblue" points="215.27,-28.22 221.5,-19.65 211.28,-22.47 215.27,-28.22"/>
</g>
<!-- Node10&#45;&gt;Node7 -->
<g id="edge13" class="edge">
<title>Node10&#45;&gt;Node7</title>
<path fill="none" stroke="midnightblue" d="M178.5,-56.44C202.08,-47.48 239.32,-33.31 265.96,-23.18"/>
<polygon fill="midnightblue" stroke="midnightblue" points="267.5,-26.34 275.6,-19.52 265.01,-19.8 267.5,-26.34"/>
</g>
<!-- Node11 -->
<g id="node11" class="node">
<title>Node11</title>
<g id="a_node11"><a xlink:title=" ">
<polygon fill="white" stroke="#bfbfbf" points="0,-0.5 0,-19.5 32,-19.5 32,-0.5 0,-0.5"/>
<text text-anchor="middle" x="16" y="-7.5" font-family="Helvetica,sans-Serif" font-size="10.00">set</text>
</a>
</g>
</g>
<!-- Node10&#45;&gt;Node11 -->
<g id="edge11" class="edge">
<title>Node10&#45;&gt;Node11</title>
<path fill="none" stroke="midnightblue" d="M133.82,-56.44C108.79,-46.79 68.16,-31.12 41.75,-20.93"/>
<polygon fill="midnightblue" stroke="midnightblue" points="42.98,-17.66 32.39,-17.32 40.46,-24.19 42.98,-17.66"/>
</g>
<!-- Node12&#45;&gt;Node3 -->
<g id="edge15" class="edge">
<title>Node12&#45;&gt;Node3</title>
<path fill="none" stroke="midnightblue" d="M267.41,-112.32C278.11,-104.18 294.34,-91.84 307.16,-82.09"/>
<polygon fill="midnightblue" stroke="midnightblue" points="309.54,-84.67 315.39,-75.83 305.31,-79.1 309.54,-84.67"/>
</g>
</g>
</svg>
