<?xml version="1.0" encoding="UTF-8" standalone="no"?>
<!DOCTYPE svg PUBLIC "-//W3C//DTD SVG 1.1//EN"
 "http://www.w3.org/Graphics/SVG/1.1/DTD/svg11.dtd">
<!-- Generated by graphviz version 2.43.0 (0)
 -->
<!-- Title: /home/tcbuilder/buildAgent/work/df8e8cce5bebfd58/libajantv2/ajabase/system/file_io.h Pages: 1 -->
<svg width="2208pt" height="206pt"
 viewBox="0.00 0.00 2207.50 206.00" xmlns="http://www.w3.org/2000/svg" xmlns:xlink="http://www.w3.org/1999/xlink">
<g id="graph0" class="graph" transform="scale(1 1) rotate(0) translate(4 202)">
<title>/home/tcbuilder/buildAgent/work/df8e8cce5bebfd58/libajantv2/ajabase/system/file_io.h</title>
<polygon fill="white" stroke="transparent" points="-4,4 -4,-202 2203.5,-202 2203.5,4 -4,4"/>
<!-- Node1 -->
<g id="node1" class="node">
<title>Node1</title>
<g id="a_node1"><a xlink:title="Declares the AJAFileIO class.">
<polygon fill="#bfbfbf" stroke="black" points="1038,-156.5 1038,-197.5 1226,-197.5 1226,-156.5 1038,-156.5"/>
<text text-anchor="start" x="1046" y="-185.5" font-family="Helvetica,sans-Serif" font-size="10.00">/home/tcbuilder/buildAgent</text>
<text text-anchor="start" x="1046" y="-174.5" font-family="Helvetica,sans-Serif" font-size="10.00">/work/df8e8cce5bebfd58/libajantv2</text>
<text text-anchor="middle" x="1132" y="-163.5" font-family="Helvetica,sans-Serif" font-size="10.00">/ajabase/system/file_io.h</text>
</a>
</g>
</g>
<!-- Node2 -->
<g id="node2" class="node">
<title>Node2</title>
<g id="a_node2"><a xlink:href="../../df/d0d/commandline_8cpp.html" target="_top" xlink:title="Definition of Command Line classes.">
<polygon fill="white" stroke="black" points="0,-78.5 0,-119.5 194,-119.5 194,-78.5 0,-78.5"/>
<text text-anchor="start" x="8" y="-107.5" font-family="Helvetica,sans-Serif" font-size="10.00">/home/tcbuilder/buildAgent</text>
<text text-anchor="start" x="8" y="-96.5" font-family="Helvetica,sans-Serif" font-size="10.00">/work/df8e8cce5bebfd58/libajantv2</text>
<text text-anchor="middle" x="97" y="-85.5" font-family="Helvetica,sans-Serif" font-size="10.00">/ajabase/common/commandline.cpp</text>
</a>
</g>
</g>
<!-- Node1&#45;&gt;Node2 -->
<g id="edge1" class="edge">
<title>Node1&#45;&gt;Node2</title>
<path fill="none" stroke="midnightblue" d="M1027.61,-174C855.28,-169.74 500.73,-156.91 203,-120 200.12,-119.64 197.2,-119.26 194.25,-118.84"/>
<polygon fill="midnightblue" stroke="midnightblue" points="1027.6,-177.5 1037.69,-174.25 1027.77,-170.5 1027.6,-177.5"/>
</g>
<!-- Node3 -->
<g id="node3" class="node">
<title>Node3</title>
<g id="a_node3"><a xlink:href="../../df/dc4/dpxfileio_8cpp.html" target="_top" xlink:title="Implementation of the AJADPXFileIO class, for low level file I/O.">
<polygon fill="white" stroke="black" points="212,-78.5 212,-119.5 400,-119.5 400,-78.5 212,-78.5"/>
<text text-anchor="start" x="220" y="-107.5" font-family="Helvetica,sans-Serif" font-size="10.00">/home/tcbuilder/buildAgent</text>
<text text-anchor="start" x="220" y="-96.5" font-family="Helvetica,sans-Serif" font-size="10.00">/work/df8e8cce5bebfd58/libajantv2</text>
<text text-anchor="middle" x="306" y="-85.5" font-family="Helvetica,sans-Serif" font-size="10.00">/ajabase/common/dpxfileio.cpp</text>
</a>
</g>
</g>
<!-- Node1&#45;&gt;Node3 -->
<g id="edge2" class="edge">
<title>Node1&#45;&gt;Node3</title>
<path fill="none" stroke="midnightblue" d="M1027.4,-171.66C886.44,-164.96 627.93,-149.64 409,-120 406.11,-119.61 403.18,-119.19 400.23,-118.74"/>
<polygon fill="midnightblue" stroke="midnightblue" points="1027.6,-175.17 1037.76,-172.15 1027.93,-168.18 1027.6,-175.17"/>
</g>
<!-- Node4 -->
<g id="node4" class="node">
<title>Node4</title>
<g id="a_node4"><a xlink:href="../../dd/d55/options__popt_8cpp.html" target="_top" xlink:title=" ">
<polygon fill="white" stroke="black" points="418,-78.5 418,-119.5 608,-119.5 608,-78.5 418,-78.5"/>
<text text-anchor="start" x="426" y="-107.5" font-family="Helvetica,sans-Serif" font-size="10.00">/home/tcbuilder/buildAgent</text>
<text text-anchor="start" x="426" y="-96.5" font-family="Helvetica,sans-Serif" font-size="10.00">/work/df8e8cce5bebfd58/libajantv2</text>
<text text-anchor="middle" x="513" y="-85.5" font-family="Helvetica,sans-Serif" font-size="10.00">/ajabase/common/options_popt.cpp</text>
</a>
</g>
</g>
<!-- Node1&#45;&gt;Node4 -->
<g id="edge3" class="edge">
<title>Node1&#45;&gt;Node4</title>
<path fill="none" stroke="midnightblue" d="M1027.51,-167.16C923.24,-157.75 758.59,-141.28 617,-120 614.09,-119.56 611.14,-119.1 608.16,-118.62"/>
<polygon fill="midnightblue" stroke="midnightblue" points="1027.45,-170.67 1037.73,-168.08 1028.08,-163.7 1027.45,-170.67"/>
</g>
<!-- Node5 -->
<g id="node5" class="node">
<title>Node5</title>
<g id="a_node5"><a xlink:href="../../d1/dda/wavewriter_8h.html" target="_top" xlink:title="Declares the AJAWavWriter class.">
<polygon fill="white" stroke="black" points="626,-78.5 626,-119.5 814,-119.5 814,-78.5 626,-78.5"/>
<text text-anchor="start" x="634" y="-107.5" font-family="Helvetica,sans-Serif" font-size="10.00">/home/tcbuilder/buildAgent</text>
<text text-anchor="start" x="634" y="-96.5" font-family="Helvetica,sans-Serif" font-size="10.00">/work/df8e8cce5bebfd58/libajantv2</text>
<text text-anchor="middle" x="720" y="-85.5" font-family="Helvetica,sans-Serif" font-size="10.00">/ajabase/common/wavewriter.h</text>
</a>
</g>
</g>
<!-- Node1&#45;&gt;Node5 -->
<g id="edge4" class="edge">
<title>Node1&#45;&gt;Node5</title>
<path fill="none" stroke="midnightblue" d="M1028.1,-157.51C968.12,-146.74 891.27,-132.81 823,-120 820.05,-119.45 817.04,-118.88 814.01,-118.31"/>
<polygon fill="midnightblue" stroke="midnightblue" points="1027.5,-160.95 1037.96,-159.27 1028.74,-154.06 1027.5,-160.95"/>
</g>
<!-- Node7 -->
<g id="node7" class="node">
<title>Node7</title>
<g id="a_node7"><a xlink:href="../../dc/dd2/bm_2infoimpl_8cpp.html" target="_top" xlink:title=" ">
<polygon fill="white" stroke="black" points="832,-78.5 832,-119.5 1020,-119.5 1020,-78.5 832,-78.5"/>
<text text-anchor="start" x="840" y="-107.5" font-family="Helvetica,sans-Serif" font-size="10.00">/home/tcbuilder/buildAgent</text>
<text text-anchor="start" x="840" y="-96.5" font-family="Helvetica,sans-Serif" font-size="10.00">/work/df8e8cce5bebfd58/libajantv2</text>
<text text-anchor="middle" x="926" y="-85.5" font-family="Helvetica,sans-Serif" font-size="10.00">/ajabase/system/bm/infoimpl.cpp</text>
</a>
</g>
</g>
<!-- Node1&#45;&gt;Node7 -->
<g id="edge6" class="edge">
<title>Node1&#45;&gt;Node7</title>
<path fill="none" stroke="midnightblue" d="M1069.35,-152.89C1040.43,-142.22 1006.48,-129.69 978.87,-119.51"/>
<polygon fill="midnightblue" stroke="midnightblue" points="1068.36,-156.25 1078.95,-156.43 1070.78,-149.68 1068.36,-156.25"/>
</g>
<!-- Node8 -->
<g id="node8" class="node">
<title>Node8</title>
<g id="a_node8"><a xlink:href="../../d2/d14/file__io_8cpp.html" target="_top" xlink:title="Implements the AJAFileIO class based on platform, Windows/Posix.">
<polygon fill="white" stroke="black" points="1038,-78.5 1038,-119.5 1226,-119.5 1226,-78.5 1038,-78.5"/>
<text text-anchor="start" x="1046" y="-107.5" font-family="Helvetica,sans-Serif" font-size="10.00">/home/tcbuilder/buildAgent</text>
<text text-anchor="start" x="1046" y="-96.5" font-family="Helvetica,sans-Serif" font-size="10.00">/work/df8e8cce5bebfd58/libajantv2</text>
<text text-anchor="middle" x="1132" y="-85.5" font-family="Helvetica,sans-Serif" font-size="10.00">/ajabase/system/file_io.cpp</text>
</a>
</g>
</g>
<!-- Node1&#45;&gt;Node8 -->
<g id="edge7" class="edge">
<title>Node1&#45;&gt;Node8</title>
<path fill="none" stroke="midnightblue" d="M1132,-146.3C1132,-137.3 1132,-127.65 1132,-119.51"/>
<polygon fill="midnightblue" stroke="midnightblue" points="1128.5,-146.43 1132,-156.43 1135.5,-146.43 1128.5,-146.43"/>
</g>
<!-- Node9 -->
<g id="node9" class="node">
<title>Node9</title>
<g id="a_node9"><a xlink:href="../../d8/d64/linux_2infoimpl_8cpp.html" target="_top" xlink:title="Implements the AJASystemInfoImpl class on the Linux platform.">
<polygon fill="white" stroke="black" points="1244,-78.5 1244,-119.5 1432,-119.5 1432,-78.5 1244,-78.5"/>
<text text-anchor="start" x="1252" y="-107.5" font-family="Helvetica,sans-Serif" font-size="10.00">/home/tcbuilder/buildAgent</text>
<text text-anchor="start" x="1252" y="-96.5" font-family="Helvetica,sans-Serif" font-size="10.00">/work/df8e8cce5bebfd58/libajantv2</text>
<text text-anchor="middle" x="1338" y="-85.5" font-family="Helvetica,sans-Serif" font-size="10.00">/ajabase/system/linux/infoimpl.cpp</text>
</a>
</g>
</g>
<!-- Node1&#45;&gt;Node9 -->
<g id="edge8" class="edge">
<title>Node1&#45;&gt;Node9</title>
<path fill="none" stroke="midnightblue" d="M1194.65,-152.89C1223.57,-142.22 1257.52,-129.69 1285.13,-119.51"/>
<polygon fill="midnightblue" stroke="midnightblue" points="1193.22,-149.68 1185.05,-156.43 1195.64,-156.25 1193.22,-149.68"/>
</g>
<!-- Node10 -->
<g id="node10" class="node">
<title>Node10</title>
<g id="a_node10"><a xlink:href="../../d6/dcf/ntv2dolbyplayer_8h.html" target="_top" xlink:title="Header file for NTV2DolbyPlayer demonstration class.">
<polygon fill="white" stroke="black" points="1488,-78.5 1488,-119.5 1714,-119.5 1714,-78.5 1488,-78.5"/>
<text text-anchor="start" x="1496" y="-107.5" font-family="Helvetica,sans-Serif" font-size="10.00">/home/tcbuilder/buildAgent</text>
<text text-anchor="start" x="1496" y="-96.5" font-family="Helvetica,sans-Serif" font-size="10.00">/work/df8e8cce5bebfd58/libajantv2</text>
<text text-anchor="middle" x="1601" y="-85.5" font-family="Helvetica,sans-Serif" font-size="10.00">/demos/ntv2dolbyplayer/ntv2dolbyplayer.h</text>
</a>
</g>
</g>
<!-- Node1&#45;&gt;Node10 -->
<g id="edge9" class="edge">
<title>Node1&#45;&gt;Node10</title>
<path fill="none" stroke="midnightblue" d="M1235.95,-159.16C1310.54,-147.07 1410.99,-130.79 1487.64,-118.37"/>
<polygon fill="midnightblue" stroke="midnightblue" points="1235.37,-155.7 1226.06,-160.76 1236.49,-162.61 1235.37,-155.7"/>
</g>
<!-- Node11 -->
<g id="node11" class="node">
<title>Node11</title>
<g id="a_node11"><a xlink:href="../../d0/df9/ntv2dolbyplayer_2main_8cpp.html" target="_top" xlink:title=" ">
<polygon fill="white" stroke="black" points="1366,-0.5 1366,-41.5 1554,-41.5 1554,-0.5 1366,-0.5"/>
<text text-anchor="start" x="1374" y="-29.5" font-family="Helvetica,sans-Serif" font-size="10.00">/home/tcbuilder/buildAgent</text>
<text text-anchor="start" x="1374" y="-18.5" font-family="Helvetica,sans-Serif" font-size="10.00">/work/df8e8cce5bebfd58/libajantv2</text>
<text text-anchor="middle" x="1460" y="-7.5" font-family="Helvetica,sans-Serif" font-size="10.00">/demos/ntv2dolbyplayer/main.cpp</text>
</a>
</g>
</g>
<!-- Node1&#45;&gt;Node11 -->
<g id="edge12" class="edge">
<title>Node1&#45;&gt;Node11</title>
<path fill="none" stroke="midnightblue" d="M1236.62,-169.53C1314.65,-162.47 1412.46,-148.19 1441,-120 1461.71,-99.54 1463.42,-63.73 1462.15,-41.53"/>
<polygon fill="midnightblue" stroke="midnightblue" points="1235.89,-166.08 1226.24,-170.43 1236.5,-173.05 1235.89,-166.08"/>
</g>
<!-- Node13 -->
<g id="node13" class="node">
<title>Node13</title>
<g id="a_node13"><a xlink:href="../../d5/dfe/ntv2baremetaldriverinterface_8cpp.html" target="_top" xlink:title="Implementation of the CNTV2BareMetalDriverInterface class.">
<polygon fill="white" stroke="black" points="1732,-78.5 1732,-119.5 1992,-119.5 1992,-78.5 1732,-78.5"/>
<text text-anchor="start" x="1740" y="-107.5" font-family="Helvetica,sans-Serif" font-size="10.00">/home/tcbuilder/buildAgent</text>
<text text-anchor="start" x="1740" y="-96.5" font-family="Helvetica,sans-Serif" font-size="10.00">/work/df8e8cce5bebfd58/libajantv2</text>
<text text-anchor="middle" x="1862" y="-85.5" font-family="Helvetica,sans-Serif" font-size="10.00">/ajantv2/src/bm/ntv2baremetaldriverinterface.cpp</text>
</a>
</g>
</g>
<!-- Node1&#45;&gt;Node13 -->
<g id="edge13" class="edge">
<title>Node1&#45;&gt;Node13</title>
<path fill="none" stroke="midnightblue" d="M1236.19,-167.66C1354.39,-157.85 1552.83,-140.29 1723,-120 1725.91,-119.65 1728.84,-119.3 1731.8,-118.93"/>
<polygon fill="midnightblue" stroke="midnightblue" points="1235.74,-164.19 1226.06,-168.5 1236.32,-171.16 1235.74,-164.19"/>
</g>
<!-- Node14 -->
<g id="node14" class="node">
<title>Node14</title>
<g id="a_node14"><a xlink:href="../../d7/d85/ntv2bitfilemanager_8cpp.html" target="_top" xlink:title="Implementation of CNTV2BitfileManager class.">
<polygon fill="white" stroke="black" points="2010.5,-78.5 2010.5,-119.5 2199.5,-119.5 2199.5,-78.5 2010.5,-78.5"/>
<text text-anchor="start" x="2018.5" y="-107.5" font-family="Helvetica,sans-Serif" font-size="10.00">/home/tcbuilder/buildAgent</text>
<text text-anchor="start" x="2018.5" y="-96.5" font-family="Helvetica,sans-Serif" font-size="10.00">/work/df8e8cce5bebfd58/libajantv2</text>
<text text-anchor="middle" x="2105" y="-85.5" font-family="Helvetica,sans-Serif" font-size="10.00">/ajantv2/src/ntv2bitfilemanager.cpp</text>
</a>
</g>
</g>
<!-- Node1&#45;&gt;Node14 -->
<g id="edge14" class="edge">
<title>Node1&#45;&gt;Node14</title>
<path fill="none" stroke="midnightblue" d="M1236.3,-173.51C1399.84,-168.65 1726.33,-155.12 2001,-120 2004.1,-119.6 2007.25,-119.17 2010.42,-118.71"/>
<polygon fill="midnightblue" stroke="midnightblue" points="1236.14,-170.01 1226.24,-173.8 1236.34,-177.01 1236.14,-170.01"/>
</g>
<!-- Node6 -->
<g id="node6" class="node">
<title>Node6</title>
<g id="a_node6"><a xlink:href="../../d0/d74/wavewriter_8cpp.html" target="_top" xlink:title="Implements the AJAWavWriter class.">
<polygon fill="white" stroke="black" points="626,-0.5 626,-41.5 814,-41.5 814,-0.5 626,-0.5"/>
<text text-anchor="start" x="634" y="-29.5" font-family="Helvetica,sans-Serif" font-size="10.00">/home/tcbuilder/buildAgent</text>
<text text-anchor="start" x="634" y="-18.5" font-family="Helvetica,sans-Serif" font-size="10.00">/work/df8e8cce5bebfd58/libajantv2</text>
<text text-anchor="middle" x="720" y="-7.5" font-family="Helvetica,sans-Serif" font-size="10.00">/ajabase/common/wavewriter.cpp</text>
</a>
</g>
</g>
<!-- Node5&#45;&gt;Node6 -->
<g id="edge5" class="edge">
<title>Node5&#45;&gt;Node6</title>
<path fill="none" stroke="midnightblue" d="M720,-68.3C720,-59.3 720,-49.65 720,-41.51"/>
<polygon fill="midnightblue" stroke="midnightblue" points="716.5,-68.43 720,-78.43 723.5,-68.43 716.5,-68.43"/>
</g>
<!-- Node10&#45;&gt;Node11 -->
<g id="edge10" class="edge">
<title>Node10&#45;&gt;Node11</title>
<path fill="none" stroke="midnightblue" d="M1555.78,-73.63C1536.51,-63.24 1514.34,-51.29 1496.19,-41.51"/>
<polygon fill="midnightblue" stroke="midnightblue" points="1554.23,-76.76 1564.69,-78.43 1557.55,-70.6 1554.23,-76.76"/>
</g>
<!-- Node12 -->
<g id="node12" class="node">
<title>Node12</title>
<g id="a_node12"><a xlink:href="../../d5/d9e/ntv2dolbyplayer_8cpp.html" target="_top" xlink:title="Implementation of NTV2DolbyPlayer class.">
<polygon fill="white" stroke="black" points="1572.5,-0.5 1572.5,-41.5 1809.5,-41.5 1809.5,-0.5 1572.5,-0.5"/>
<text text-anchor="start" x="1580.5" y="-29.5" font-family="Helvetica,sans-Serif" font-size="10.00">/home/tcbuilder/buildAgent</text>
<text text-anchor="start" x="1580.5" y="-18.5" font-family="Helvetica,sans-Serif" font-size="10.00">/work/df8e8cce5bebfd58/libajantv2</text>
<text text-anchor="middle" x="1691" y="-7.5" font-family="Helvetica,sans-Serif" font-size="10.00">/demos/ntv2dolbyplayer/ntv2dolbyplayer.cpp</text>
</a>
</g>
</g>
<!-- Node10&#45;&gt;Node12 -->
<g id="edge11" class="edge">
<title>Node10&#45;&gt;Node12</title>
<path fill="none" stroke="midnightblue" d="M1632.05,-71.78C1643.82,-61.84 1656.99,-50.72 1667.9,-41.51"/>
<polygon fill="midnightblue" stroke="midnightblue" points="1629.56,-69.3 1624.18,-78.43 1634.08,-74.65 1629.56,-69.3"/>
</g>
</g>
</svg>
