<?xml version="1.0" encoding="UTF-8" standalone="no"?>
<!DOCTYPE svg PUBLIC "-//W3C//DTD SVG 1.1//EN"
 "http://www.w3.org/Graphics/SVG/1.1/DTD/svg11.dtd">
<!-- Generated by graphviz version 2.43.0 (0)
 -->
<!-- Title: /home/tcbuilder/buildAgent/work/df8e8cce5bebfd58/libajantv2/ajantv2/includes/ntv2driverinterface.h Pages: 1 -->
<!--zoomable 442 -->
<svg id="main" version="1.1" xmlns="http://www.w3.org/2000/svg" xmlns:xlink="http://www.w3.org/1999/xlink" xml:space="preserve" onload="init(evt)">
<style type="text/css"><![CDATA[
.edge:hover path { stroke: red; }
.edge:hover polygon { stroke: red; fill: red; }
]]></style>
<script type="text/javascript"><![CDATA[
var edges = document.getElementsByTagName('g');
if (edges && edges.length) {
  for (var i=0;i<edges.length;i++) {
    if (edges[i].id.substr(0,4)=='edge') {
      edges[i].setAttribute('class','edge');
    }
  }
}
]]></script>
        <defs>
                <circle id="rim" cx="0" cy="0" r="7"/>
                <circle id="rim2" cx="0" cy="0" r="3.5"/>
                <g id="zoomPlus">
                        <use xlink:href="#rim" fill="#404040">
                                <set attributeName="fill" to="#808080" begin="zoomplus.mouseover" end="zoomplus.mouseout"/>
                        </use>
                        <path d="M-4,0h8M0,-4v8" fill="none" stroke="white" stroke-width="1.5" pointer-events="none"/>
                </g>
                <g id="zoomMin">
                        <use xlink:href="#rim" fill="#404040">
                                <set attributeName="fill" to="#808080" begin="zoomminus.mouseover" end="zoomminus.mouseout"/>
                        </use>
                        <path d="M-4,0h8" fill="none" stroke="white" stroke-width="1.5" pointer-events="none"/>
                </g>
                <g id="dirArrow">
                        <path fill="none" stroke="white" stroke-width="1.5" d="M0,-3.0v7 M-2.5,-0.5L0,-3.0L2.5,-0.5"/>
                </g>
               <g id="resetDef">
                       <use xlink:href="#rim2" fill="#404040">
                               <set attributeName="fill" to="#808080" begin="reset.mouseover" end="reset.mouseout"/>
                       </use>
               </g>
        </defs>

<script type="text/javascript">
var viewWidth = 1937;
var viewHeight = 442;
var sectionId = 'dynsection-0';
</script>
<script xlink:href="../../svgpan.js"/>
<svg id="graph" class="graph">
<g id="viewport">
<title>/home/tcbuilder/buildAgent/work/df8e8cce5bebfd58/libajantv2/ajantv2/includes/ntv2driverinterface.h</title>
<polygon fill="white" stroke="transparent" points="-4,4 -4,-438 1933.07,-438 1933.07,4 -4,4"/>
<!-- Node1 -->
<g id="node1" class="node">
<title>Node1</title>
<g id="a_node1"><a xlink:title="Declares the CNTV2DriverInterface base class.">
<polygon fill="#bfbfbf" stroke="black" points="1044.07,-392.5 1044.07,-433.5 1250.07,-433.5 1250.07,-392.5 1044.07,-392.5"/>
<text text-anchor="start" x="1052.07" y="-421.5" font-family="Helvetica,sans-Serif" font-size="10.00">/home/tcbuilder/buildAgent</text>
<text text-anchor="start" x="1052.07" y="-410.5" font-family="Helvetica,sans-Serif" font-size="10.00">/work/df8e8cce5bebfd58/libajantv2</text>
<text text-anchor="middle" x="1147.07" y="-399.5" font-family="Helvetica,sans-Serif" font-size="10.00">/ajantv2/includes/ntv2driverinterface.h</text>
</a>
</g>
</g>
<!-- Node2 -->
<g id="node2" class="node">
<title>Node2</title>
<g id="a_node2"><a xlink:href="../../db/de2/ajatypes_8h.html" target="_top" xlink:title="Declares the most fundamental data types used by NTV2. Since Windows NT was the first principal devel...">
<polygon fill="white" stroke="black" points="445.07,-56.5 445.07,-75.5 513.07,-75.5 513.07,-56.5 445.07,-56.5"/>
<text text-anchor="middle" x="479.07" y="-63.5" font-family="Helvetica,sans-Serif" font-size="10.00">ajatypes.h</text>
</a>
</g>
</g>
<!-- Node1&#45;&gt;Node2 -->
<g id="edge1" class="edge">
<title>Node1&#45;&gt;Node2</title>
<path fill="none" stroke="midnightblue" d="M1043.86,-409.82C793.45,-403.17 174.07,-377.92 174.07,-291 174.07,-291 174.07,-291 174.07,-233 174.07,-178.26 157.79,-150.13 197.07,-112 230.1,-79.93 363.62,-70.71 434.44,-68.06"/>
<polygon fill="midnightblue" stroke="midnightblue" points="434.96,-71.55 444.83,-67.7 434.72,-64.55 434.96,-71.55"/>
</g>
<!-- Node4 -->
<g id="node4" class="node">
<title>Node4</title>
<g id="a_node4"><a xlink:href="../../d6/d0c/ntv2enums_8h.html" target="_top" xlink:title="Enumerations for controlling NTV2 devices.">
<polygon fill="white" stroke="black" points="206.07,-112.5 206.07,-131.5 286.07,-131.5 286.07,-112.5 206.07,-112.5"/>
<text text-anchor="middle" x="246.07" y="-119.5" font-family="Helvetica,sans-Serif" font-size="10.00">ntv2enums.h</text>
</a>
</g>
</g>
<!-- Node1&#45;&gt;Node4 -->
<g id="edge3" class="edge">
<title>Node1&#45;&gt;Node4</title>
<path fill="none" stroke="midnightblue" d="M1043.94,-400.03C972.2,-390.69 874.65,-375.93 790.07,-356 629.86,-318.25 591.68,-300.47 437.07,-244 376.06,-221.71 354.69,-226.08 302.07,-188 283.86,-174.82 267.65,-154.59 257.42,-140.2"/>
<polygon fill="midnightblue" stroke="midnightblue" points="260.15,-137.98 251.6,-131.72 254.38,-141.94 260.15,-137.98"/>
</g>
<!-- Node7 -->
<g id="node7" class="node">
<title>Node7</title>
<g id="a_node7"><a xlink:title=" ">
<polygon fill="white" stroke="#bfbfbf" points="1072.07,-0.5 1072.07,-19.5 1116.07,-19.5 1116.07,-0.5 1072.07,-0.5"/>
<text text-anchor="middle" x="1094.07" y="-7.5" font-family="Helvetica,sans-Serif" font-size="10.00">string</text>
</a>
</g>
</g>
<!-- Node1&#45;&gt;Node7 -->
<g id="edge66" class="edge">
<title>Node1&#45;&gt;Node7</title>
<path fill="none" stroke="midnightblue" d="M1250.44,-404.61C1444.74,-389.33 1845.07,-350.61 1845.07,-291 1845.07,-291 1845.07,-291 1845.07,-121 1845.07,-47.23 1270.51,-18.35 1126.5,-12.27"/>
<polygon fill="midnightblue" stroke="midnightblue" points="1126.28,-8.76 1116.14,-11.85 1125.99,-15.76 1126.28,-8.76"/>
</g>
<!-- Node8 -->
<g id="node8" class="node">
<title>Node8</title>
<g id="a_node8"><a xlink:href="../../d8/de5/ntv2nubtypes_8h.html" target="_top" xlink:title="Declares data types and structures used in NTV2 &quot;nub&quot; packets.">
<polygon fill="white" stroke="black" points="1236.07,-168.5 1236.07,-187.5 1328.07,-187.5 1328.07,-168.5 1236.07,-168.5"/>
<text text-anchor="middle" x="1282.07" y="-175.5" font-family="Helvetica,sans-Serif" font-size="10.00">ntv2nubtypes.h</text>
</a>
</g>
</g>
<!-- Node1&#45;&gt;Node8 -->
<g id="edge8" class="edge">
<title>Node1&#45;&gt;Node8</title>
<path fill="none" stroke="midnightblue" d="M1218.98,-392.43C1237.09,-384.09 1254.62,-372.37 1266.07,-356 1299.92,-307.62 1292.1,-232.66 1286,-197.9"/>
<polygon fill="midnightblue" stroke="midnightblue" points="1289.37,-196.91 1284.06,-187.75 1282.5,-198.23 1289.37,-196.91"/>
</g>
<!-- Node11 -->
<g id="node11" class="node">
<title>Node11</title>
<g id="a_node11"><a xlink:href="../../d6/d8f/ntv2nubaccess_8h.html" target="_top" xlink:title="Declares NTV2 &quot;nub&quot; client functions.">
<polygon fill="white" stroke="black" points="1159.07,-336.5 1159.07,-355.5 1257.07,-355.5 1257.07,-336.5 1159.07,-336.5"/>
<text text-anchor="middle" x="1208.07" y="-343.5" font-family="Helvetica,sans-Serif" font-size="10.00">ntv2nubaccess.h</text>
</a>
</g>
</g>
<!-- Node1&#45;&gt;Node11 -->
<g id="edge12" class="edge">
<title>Node1&#45;&gt;Node11</title>
<path fill="none" stroke="midnightblue" d="M1165.37,-392.5C1174.19,-383.11 1184.63,-371.98 1192.98,-363.08"/>
<polygon fill="midnightblue" stroke="midnightblue" points="1195.66,-365.34 1199.95,-355.65 1190.56,-360.55 1195.66,-365.34"/>
</g>
<!-- Node12 -->
<g id="node12" class="node">
<title>Node12</title>
<g id="a_node12"><a xlink:href="../../d0/d81/ntv2utils_8h.html" target="_top" xlink:title="Declares numerous NTV2 utility functions.">
<polygon fill="white" stroke="black" points="913.07,-280.5 913.07,-299.5 981.07,-299.5 981.07,-280.5 913.07,-280.5"/>
<text text-anchor="middle" x="947.07" y="-287.5" font-family="Helvetica,sans-Serif" font-size="10.00">ntv2utils.h</text>
</a>
</g>
</g>
<!-- Node1&#45;&gt;Node12 -->
<g id="edge49" class="edge">
<title>Node1&#45;&gt;Node12</title>
<path fill="none" stroke="midnightblue" d="M1114.49,-392.29C1073.85,-367.7 1005.39,-326.28 969.92,-304.82"/>
<polygon fill="midnightblue" stroke="midnightblue" points="971.61,-301.76 961.24,-299.57 967.99,-307.75 971.61,-301.76"/>
</g>
<!-- Node14 -->
<g id="node14" class="node">
<title>Node14</title>
<g id="a_node14"><a xlink:href="../../d4/dd7/ntv2publicinterface_8h.html" target="_top" xlink:title="Declares enums and structs used by all platform drivers and the SDK.">
<polygon fill="white" stroke="black" points="648.07,-168.5 648.07,-187.5 768.07,-187.5 768.07,-168.5 648.07,-168.5"/>
<text text-anchor="middle" x="708.07" y="-175.5" font-family="Helvetica,sans-Serif" font-size="10.00">ntv2publicinterface.h</text>
</a>
</g>
</g>
<!-- Node1&#45;&gt;Node14 -->
<g id="edge48" class="edge">
<title>Node1&#45;&gt;Node14</title>
<path fill="none" stroke="midnightblue" d="M1043.96,-394.86C901.87,-368.91 657.42,-315.03 605.07,-244 586.38,-218.64 624.33,-200.78 659.33,-190.28"/>
<polygon fill="midnightblue" stroke="midnightblue" points="660.41,-193.62 669.07,-187.52 658.5,-186.88 660.41,-193.62"/>
</g>
<!-- Node24 -->
<g id="node24" class="node">
<title>Node24</title>
<g id="a_node24"><a xlink:href="../../d8/d0f/ntv2devicefeatures_8h.html" target="_top" xlink:title="Declares device capability functions.">
<polygon fill="white" stroke="black" points="23.07,-224.5 23.07,-243.5 143.07,-243.5 143.07,-224.5 23.07,-224.5"/>
<text text-anchor="middle" x="83.07" y="-231.5" font-family="Helvetica,sans-Serif" font-size="10.00">ntv2devicefeatures.h</text>
</a>
</g>
</g>
<!-- Node1&#45;&gt;Node24 -->
<g id="edge50" class="edge">
<title>Node1&#45;&gt;Node24</title>
<path fill="none" stroke="midnightblue" d="M1043.83,-411.43C806.14,-409.36 234.84,-399.84 160.07,-356 120.82,-332.98 98.37,-281.17 88.74,-253.4"/>
<polygon fill="midnightblue" stroke="midnightblue" points="92.01,-252.15 85.57,-243.74 85.36,-254.33 92.01,-252.15"/>
</g>
<!-- Node26 -->
<g id="node26" class="node">
<title>Node26</title>
<g id="a_node26"><a xlink:href="../../dd/d42/lock_8h.html" target="_top" xlink:title="Declares the AJALock class.">
<polygon fill="white" stroke="black" points="1430.07,-224.5 1430.07,-243.5 1556.07,-243.5 1556.07,-224.5 1430.07,-224.5"/>
<text text-anchor="middle" x="1493.07" y="-231.5" font-family="Helvetica,sans-Serif" font-size="10.00">ajabase/system/lock.h</text>
</a>
</g>
</g>
<!-- Node1&#45;&gt;Node26 -->
<g id="edge57" class="edge">
<title>Node1&#45;&gt;Node26</title>
<path fill="none" stroke="midnightblue" d="M1233.21,-392.49C1265.19,-383.57 1301.17,-371.48 1332.07,-356 1369.58,-337.2 1374.52,-325.19 1408.07,-300 1430.72,-283 1456.53,-263.2 1473.71,-249.96"/>
<polygon fill="midnightblue" stroke="midnightblue" points="1476.06,-252.57 1481.84,-243.69 1471.79,-247.02 1476.06,-252.57"/>
</g>
<!-- Node32 -->
<g id="node32" class="node">
<title>Node32</title>
<g id="a_node32"><a xlink:title=" ">
<polygon fill="white" stroke="#bfbfbf" points="1873.07,-336.5 1873.07,-355.5 1929.07,-355.5 1929.07,-336.5 1873.07,-336.5"/>
<text text-anchor="middle" x="1901.07" y="-343.5" font-family="Helvetica,sans-Serif" font-size="10.00">unistd.h</text>
</a>
</g>
</g>
<!-- Node1&#45;&gt;Node32 -->
<g id="edge67" class="edge">
<title>Node1&#45;&gt;Node32</title>
<path fill="none" stroke="midnightblue" d="M1250.13,-408.18C1389.03,-402.06 1643.74,-387.4 1859.07,-356 1860.32,-355.82 1861.58,-355.62 1862.85,-355.41"/>
<polygon fill="midnightblue" stroke="midnightblue" points="1863.49,-358.85 1872.7,-353.61 1862.23,-351.97 1863.49,-358.85"/>
</g>
<!-- Node3 -->
<g id="node3" class="node">
<title>Node3</title>
<g id="a_node3"><a xlink:title=" ">
<polygon fill="white" stroke="#bfbfbf" points="452.57,-0.5 452.57,-19.5 505.57,-19.5 505.57,-0.5 452.57,-0.5"/>
<text text-anchor="middle" x="479.07" y="-7.5" font-family="Helvetica,sans-Serif" font-size="10.00">stdint.h</text>
</a>
</g>
</g>
<!-- Node2&#45;&gt;Node3 -->
<g id="edge2" class="edge">
<title>Node2&#45;&gt;Node3</title>
<path fill="none" stroke="midnightblue" d="M479.07,-56.08C479.07,-49.01 479.07,-38.86 479.07,-29.99"/>
<polygon fill="midnightblue" stroke="midnightblue" points="482.57,-29.75 479.07,-19.75 475.57,-29.75 482.57,-29.75"/>
</g>
<!-- Node4&#45;&gt;Node2 -->
<g id="edge4" class="edge">
<title>Node4&#45;&gt;Node2</title>
<path fill="none" stroke="midnightblue" d="M282.99,-112.44C324.3,-102.87 391.18,-87.37 435.14,-77.18"/>
<polygon fill="midnightblue" stroke="midnightblue" points="436.03,-80.57 444.98,-74.9 434.45,-73.75 436.03,-80.57"/>
</g>
<!-- Node5 -->
<g id="node5" class="node">
<title>Node5</title>
<g id="a_node5"><a xlink:href="../../d6/db1/ntv2version_8h.html" target="_top" xlink:title="Defines for the NTV2 SDK version number, used by ajantv2/includes/ntv2enums.h. See the ajantv2/includ...">
<polygon fill="white" stroke="black" points="202.57,-56.5 202.57,-75.5 285.57,-75.5 285.57,-56.5 202.57,-56.5"/>
<text text-anchor="middle" x="244.07" y="-63.5" font-family="Helvetica,sans-Serif" font-size="10.00">ntv2version.h</text>
</a>
</g>
</g>
<!-- Node4&#45;&gt;Node5 -->
<g id="edge5" class="edge">
<title>Node4&#45;&gt;Node5</title>
<path fill="none" stroke="midnightblue" d="M245.74,-112.08C245.48,-105.01 245.1,-94.86 244.77,-85.99"/>
<polygon fill="midnightblue" stroke="midnightblue" points="248.26,-85.61 244.39,-75.75 241.27,-85.87 248.26,-85.61"/>
</g>
<!-- Node6 -->
<g id="node6" class="node">
<title>Node6</title>
<g id="a_node6"><a xlink:href="../../d6/dd9/ajaexport_8h.html" target="_top" xlink:title="Defines the import/export macros for producing DLLs or LIBs.">
<polygon fill="white" stroke="black" points="156.07,-0.5 156.07,-19.5 228.07,-19.5 228.07,-0.5 156.07,-0.5"/>
<text text-anchor="middle" x="192.07" y="-7.5" font-family="Helvetica,sans-Serif" font-size="10.00">ajaexport.h</text>
</a>
</g>
</g>
<!-- Node5&#45;&gt;Node6 -->
<g id="edge6" class="edge">
<title>Node5&#45;&gt;Node6</title>
<path fill="none" stroke="midnightblue" d="M235.48,-56.08C227.91,-48.22 216.69,-36.57 207.56,-27.08"/>
<polygon fill="midnightblue" stroke="midnightblue" points="209.96,-24.53 200.5,-19.75 204.91,-29.38 209.96,-24.53"/>
</g>
<!-- Node5&#45;&gt;Node7 -->
<g id="edge7" class="edge">
<title>Node5&#45;&gt;Node7</title>
<path fill="none" stroke="midnightblue" d="M285.64,-62.36C433.15,-52.99 929.66,-21.44 1061.63,-13.06"/>
<polygon fill="midnightblue" stroke="midnightblue" points="1062.12,-16.54 1071.88,-12.41 1061.68,-9.55 1062.12,-16.54"/>
</g>
<!-- Node9 -->
<g id="node9" class="node">
<title>Node9</title>
<g id="a_node9"><a xlink:href="../../d4/d18/ntv2endian_8h.html" target="_top" xlink:title="Defines a number of handy byte&#45;swapping macros.">
<polygon fill="white" stroke="black" points="1228.07,-112.5 1228.07,-131.5 1308.07,-131.5 1308.07,-112.5 1228.07,-112.5"/>
<text text-anchor="middle" x="1268.07" y="-119.5" font-family="Helvetica,sans-Serif" font-size="10.00">ntv2endian.h</text>
</a>
</g>
</g>
<!-- Node8&#45;&gt;Node9 -->
<g id="edge9" class="edge">
<title>Node8&#45;&gt;Node9</title>
<path fill="none" stroke="midnightblue" d="M1279.76,-168.08C1277.9,-160.93 1275.24,-150.64 1272.92,-141.69"/>
<polygon fill="midnightblue" stroke="midnightblue" points="1276.24,-140.55 1270.34,-131.75 1269.46,-142.31 1276.24,-140.55"/>
</g>
<!-- Node10 -->
<g id="node10" class="node">
<title>Node10</title>
<g id="a_node10"><a xlink:title=" ">
<polygon fill="white" stroke="#bfbfbf" points="1149.57,-112.5 1149.57,-131.5 1196.57,-131.5 1196.57,-112.5 1149.57,-112.5"/>
<text text-anchor="middle" x="1173.07" y="-119.5" font-family="Helvetica,sans-Serif" font-size="10.00">vector</text>
</a>
</g>
</g>
<!-- Node8&#45;&gt;Node10 -->
<g id="edge11" class="edge">
<title>Node8&#45;&gt;Node10</title>
<path fill="none" stroke="midnightblue" d="M1264.56,-168.32C1247,-159.62 1219.74,-146.12 1199.54,-136.11"/>
<polygon fill="midnightblue" stroke="midnightblue" points="1201.05,-132.96 1190.54,-131.65 1197.95,-139.23 1201.05,-132.96"/>
</g>
<!-- Node9&#45;&gt;Node2 -->
<g id="edge10" class="edge">
<title>Node9&#45;&gt;Node2</title>
<path fill="none" stroke="midnightblue" d="M1227.78,-114.66C1220.56,-113.66 1213.1,-112.73 1206.07,-112 948.09,-85.34 636.84,-72.51 523.27,-68.47"/>
<polygon fill="midnightblue" stroke="midnightblue" points="523.34,-64.97 513.22,-68.11 523.09,-71.96 523.34,-64.97"/>
</g>
<!-- Node11&#45;&gt;Node7 -->
<g id="edge45" class="edge">
<title>Node11&#45;&gt;Node7</title>
<path fill="none" stroke="midnightblue" d="M1222.18,-336.38C1258.32,-313.09 1350.47,-245.37 1337.07,-168 1332.56,-141.96 1334.97,-131.44 1317.07,-112 1264.63,-55.06 1173.93,-28.02 1125.96,-17.15"/>
<polygon fill="midnightblue" stroke="midnightblue" points="1126.63,-13.72 1116.12,-15.02 1125.15,-20.56 1126.63,-13.72"/>
</g>
<!-- Node11&#45;&gt;Node10 -->
<g id="edge46" class="edge">
<title>Node11&#45;&gt;Node10</title>
<path fill="none" stroke="midnightblue" d="M1207.61,-336.44C1206.12,-310.69 1200.67,-231.86 1187.07,-168 1185.15,-158.99 1182.21,-149.19 1179.52,-141.05"/>
<polygon fill="midnightblue" stroke="midnightblue" points="1182.8,-139.82 1176.23,-131.5 1176.18,-142.1 1182.8,-139.82"/>
</g>
<!-- Node11&#45;&gt;Node12 -->
<g id="edge13" class="edge">
<title>Node11&#45;&gt;Node12</title>
<path fill="none" stroke="midnightblue" d="M1166.71,-336.44C1118.81,-326.53 1040.2,-310.27 991.16,-300.12"/>
<polygon fill="midnightblue" stroke="midnightblue" points="991.67,-296.65 981.16,-298.05 990.25,-303.51 991.67,-296.65"/>
</g>
<!-- Node17 -->
<g id="node17" class="node">
<title>Node17</title>
<g id="a_node17"><a xlink:title=" ">
<polygon fill="white" stroke="#bfbfbf" points="1371.07,-112.5 1371.07,-131.5 1409.07,-131.5 1409.07,-112.5 1371.07,-112.5"/>
<text text-anchor="middle" x="1390.07" y="-119.5" font-family="Helvetica,sans-Serif" font-size="10.00">map</text>
</a>
</g>
</g>
<!-- Node11&#45;&gt;Node17 -->
<g id="edge47" class="edge">
<title>Node11&#45;&gt;Node17</title>
<path fill="none" stroke="midnightblue" d="M1235.76,-336.48C1273.34,-323.32 1339.33,-294.16 1370.07,-244 1389.66,-212.04 1391.76,-166.82 1391.17,-141.69"/>
<polygon fill="midnightblue" stroke="midnightblue" points="1394.66,-141.52 1390.76,-131.67 1387.67,-141.81 1394.66,-141.52"/>
</g>
<!-- Node12&#45;&gt;Node2 -->
<g id="edge15" class="edge">
<title>Node12&#45;&gt;Node2</title>
<path fill="none" stroke="midnightblue" d="M951.66,-280.21C965.86,-251.69 1005.49,-160.76 961.07,-112 931.88,-79.96 636.69,-70.33 523.2,-67.81"/>
<polygon fill="midnightblue" stroke="midnightblue" points="523.19,-64.31 513.12,-67.59 523.04,-71.3 523.19,-64.31"/>
</g>
<!-- Node12&#45;&gt;Node4 -->
<g id="edge16" class="edge">
<title>Node12&#45;&gt;Node4</title>
<path fill="none" stroke="midnightblue" d="M912.92,-288.95C817.98,-287.66 544.41,-275.99 340.07,-188 310.94,-175.46 281.54,-153.24 263.56,-138.31"/>
<polygon fill="midnightblue" stroke="midnightblue" points="265.6,-135.45 255.71,-131.65 261.07,-140.79 265.6,-135.45"/>
</g>
<!-- Node12&#45;&gt;Node6 -->
<g id="edge14" class="edge">
<title>Node12&#45;&gt;Node6</title>
<path fill="none" stroke="midnightblue" d="M912.78,-289.48C829.83,-289.9 612.21,-286.49 437.07,-244 322.68,-216.25 260.79,-230.97 197.07,-132 176.94,-100.74 182.24,-54.93 187.43,-29.59"/>
<polygon fill="midnightblue" stroke="midnightblue" points="190.86,-30.32 189.65,-19.8 184.03,-28.78 190.86,-30.32"/>
</g>
<!-- Node12&#45;&gt;Node7 -->
<g id="edge42" class="edge">
<title>Node12&#45;&gt;Node7</title>
<path fill="none" stroke="midnightblue" d="M981.27,-284.62C1025.04,-278.24 1097.15,-264.81 1113.07,-244 1162.96,-178.78 1122.13,-71.12 1102.81,-28.84"/>
<polygon fill="midnightblue" stroke="midnightblue" points="1105.96,-27.32 1098.53,-19.77 1099.63,-30.31 1105.96,-27.32"/>
</g>
<!-- Node12&#45;&gt;Node10 -->
<g id="edge44" class="edge">
<title>Node12&#45;&gt;Node10</title>
<path fill="none" stroke="midnightblue" d="M981.22,-285.66C1031.83,-280.01 1123.25,-266.89 1146.07,-244 1173.21,-216.78 1175.62,-168.66 1174.6,-142.04"/>
<polygon fill="midnightblue" stroke="midnightblue" points="1178.08,-141.55 1173.99,-131.77 1171.09,-141.96 1178.08,-141.55"/>
</g>
<!-- Node13 -->
<g id="node13" class="node">
<title>Node13</title>
<g id="a_node13"><a xlink:href="../../d9/d61/ntv2videodefines_8h.html" target="_top" xlink:title="Declares common video macros and structs used in the SDK.">
<polygon fill="white" stroke="black" points="994.07,-224.5 994.07,-243.5 1104.07,-243.5 1104.07,-224.5 994.07,-224.5"/>
<text text-anchor="middle" x="1049.07" y="-231.5" font-family="Helvetica,sans-Serif" font-size="10.00">ntv2videodefines.h</text>
</a>
</g>
</g>
<!-- Node12&#45;&gt;Node13 -->
<g id="edge17" class="edge">
<title>Node12&#45;&gt;Node13</title>
<path fill="none" stroke="midnightblue" d="M963.46,-280.32C979.74,-271.7 1004.94,-258.36 1023.79,-248.39"/>
<polygon fill="midnightblue" stroke="midnightblue" points="1025.52,-251.43 1032.72,-243.65 1022.25,-245.24 1025.52,-251.43"/>
</g>
<!-- Node12&#45;&gt;Node14 -->
<g id="edge19" class="edge">
<title>Node12&#45;&gt;Node14</title>
<path fill="none" stroke="midnightblue" d="M944.5,-280.3C939.87,-266.16 928.7,-238.34 909.07,-224 871.33,-196.42 819.72,-185.27 778.25,-180.97"/>
<polygon fill="midnightblue" stroke="midnightblue" points="778.49,-177.48 768.21,-180.04 777.84,-184.45 778.49,-177.48"/>
</g>
<!-- Node15 -->
<g id="node15" class="node">
<title>Node15</title>
<g id="a_node15"><a xlink:title=" ">
<polygon fill="white" stroke="#bfbfbf" points="892.07,-112.5 892.07,-131.5 952.07,-131.5 952.07,-112.5 892.07,-112.5"/>
<text text-anchor="middle" x="922.07" y="-119.5" font-family="Helvetica,sans-Serif" font-size="10.00">iostream</text>
</a>
</g>
</g>
<!-- Node12&#45;&gt;Node15 -->
<g id="edge43" class="edge">
<title>Node12&#45;&gt;Node15</title>
<path fill="none" stroke="midnightblue" d="M913.06,-284.14C871.25,-277.4 803.98,-263.75 789.07,-244 783.71,-236.91 785.12,-231.96 789.07,-224 810.33,-181.16 859.4,-151.6 891.63,-135.99"/>
<polygon fill="midnightblue" stroke="midnightblue" points="893.46,-138.99 901.04,-131.59 890.49,-132.65 893.46,-138.99"/>
</g>
<!-- Node22 -->
<g id="node22" class="node">
<title>Node22</title>
<g id="a_node22"><a xlink:href="../../dc/df4/ntv2formatdescriptor_8h.html" target="_top" xlink:title="Declares the NTV2FormatDescriptor class.">
<polygon fill="white" stroke="black" points="614.07,-224.5 614.07,-243.5 742.07,-243.5 742.07,-224.5 614.07,-224.5"/>
<text text-anchor="middle" x="678.07" y="-231.5" font-family="Helvetica,sans-Serif" font-size="10.00">ntv2formatdescriptor.h</text>
</a>
</g>
</g>
<!-- Node12&#45;&gt;Node22 -->
<g id="edge33" class="edge">
<title>Node12&#45;&gt;Node22</title>
<path fill="none" stroke="midnightblue" d="M913,-282.16C867.05,-272.94 784.75,-256.42 730.78,-245.58"/>
<polygon fill="midnightblue" stroke="midnightblue" points="731.21,-242.1 720.72,-243.56 729.83,-248.96 731.21,-242.1"/>
</g>
<!-- Node23 -->
<g id="node23" class="node">
<title>Node23</title>
<g id="a_node23"><a xlink:href="../../de/d26/ntv2m31enums_8h.html" target="_top" xlink:title="Enumerations for controlling NTV2 devices with m31 HEVC encoders.">
<polygon fill="white" stroke="black" points="798.07,-224.5 798.07,-243.5 900.07,-243.5 900.07,-224.5 798.07,-224.5"/>
<text text-anchor="middle" x="849.07" y="-231.5" font-family="Helvetica,sans-Serif" font-size="10.00">ntv2m31enums.h</text>
</a>
</g>
</g>
<!-- Node12&#45;&gt;Node23 -->
<g id="edge41" class="edge">
<title>Node12&#45;&gt;Node23</title>
<path fill="none" stroke="midnightblue" d="M931.33,-280.32C915.75,-271.74 891.69,-258.49 873.61,-248.52"/>
<polygon fill="midnightblue" stroke="midnightblue" points="875.22,-245.42 864.78,-243.65 871.85,-251.55 875.22,-245.42"/>
</g>
<!-- Node13&#45;&gt;Node2 -->
<g id="edge18" class="edge">
<title>Node13&#45;&gt;Node2</title>
<path fill="none" stroke="midnightblue" d="M1048.08,-224.43C1044.96,-201.67 1033.07,-139.58 994.07,-112 956.06,-85.11 641.36,-72.25 523.45,-68.34"/>
<polygon fill="midnightblue" stroke="midnightblue" points="523.43,-64.84 513.32,-68.01 523.2,-71.83 523.43,-64.84"/>
</g>
<!-- Node14&#45;&gt;Node2 -->
<g id="edge20" class="edge">
<title>Node14&#45;&gt;Node2</title>
<path fill="none" stroke="midnightblue" d="M743.17,-168.47C780.04,-157.89 829.78,-138.03 807.07,-112 770.82,-70.44 604.64,-65.9 523.67,-66.23"/>
<polygon fill="midnightblue" stroke="midnightblue" points="523.27,-62.74 513.29,-66.3 523.32,-69.74 523.27,-62.74"/>
</g>
<!-- Node14&#45;&gt;Node4 -->
<g id="edge21" class="edge">
<title>Node14&#45;&gt;Node4</title>
<path fill="none" stroke="midnightblue" d="M647.67,-169.94C555.54,-159.17 381.59,-138.84 296.09,-128.85"/>
<polygon fill="midnightblue" stroke="midnightblue" points="296.45,-125.36 286.11,-127.68 295.64,-132.32 296.45,-125.36"/>
</g>
<!-- Node14&#45;&gt;Node6 -->
<g id="edge30" class="edge">
<title>Node14&#45;&gt;Node6</title>
<path fill="none" stroke="midnightblue" d="M648.02,-172.21C573.17,-165.51 450.11,-151.9 409.07,-132 364.65,-110.46 370.5,-81.23 328.07,-56 300.18,-39.41 265.39,-28.04 237.98,-20.88"/>
<polygon fill="midnightblue" stroke="midnightblue" points="238.8,-17.48 228.24,-18.43 237.09,-24.27 238.8,-17.48"/>
</g>
<!-- Node14&#45;&gt;Node7 -->
<g id="edge26" class="edge">
<title>Node14&#45;&gt;Node7</title>
<path fill="none" stroke="midnightblue" d="M731.11,-168.35C754.42,-159.51 791.43,-145.25 823.07,-132 912.89,-94.4 1017.78,-46.37 1066.54,-23.81"/>
<polygon fill="midnightblue" stroke="midnightblue" points="1068.2,-26.9 1075.8,-19.52 1065.25,-20.55 1068.2,-26.9"/>
</g>
<!-- Node14&#45;&gt;Node10 -->
<g id="edge25" class="edge">
<title>Node14&#45;&gt;Node10</title>
<path fill="none" stroke="midnightblue" d="M768.38,-170C867.43,-158.49 1061.31,-135.98 1139.35,-126.92"/>
<polygon fill="midnightblue" stroke="midnightblue" points="1140.04,-130.36 1149.57,-125.73 1139.23,-123.41 1140.04,-130.36"/>
</g>
<!-- Node14&#45;&gt;Node15 -->
<g id="edge22" class="edge">
<title>Node14&#45;&gt;Node15</title>
<path fill="none" stroke="midnightblue" d="M741.98,-168.44C780.01,-158.85 841.63,-143.3 882,-133.11"/>
<polygon fill="midnightblue" stroke="midnightblue" points="882.94,-136.48 891.78,-130.64 881.23,-129.7 882.94,-136.48"/>
</g>
<!-- Node16 -->
<g id="node16" class="node">
<title>Node16</title>
<g id="a_node16"><a xlink:title=" ">
<polygon fill="white" stroke="#bfbfbf" points="630.07,-112.5 630.07,-131.5 662.07,-131.5 662.07,-112.5 630.07,-112.5"/>
<text text-anchor="middle" x="646.07" y="-119.5" font-family="Helvetica,sans-Serif" font-size="10.00">set</text>
</a>
</g>
</g>
<!-- Node14&#45;&gt;Node16 -->
<g id="edge23" class="edge">
<title>Node14&#45;&gt;Node16</title>
<path fill="none" stroke="midnightblue" d="M698.11,-168.32C688.94,-160.34 675.13,-148.31 664.04,-138.65"/>
<polygon fill="midnightblue" stroke="midnightblue" points="666.05,-135.76 656.21,-131.83 661.46,-141.04 666.05,-135.76"/>
</g>
<!-- Node14&#45;&gt;Node17 -->
<g id="edge24" class="edge">
<title>Node14&#45;&gt;Node17</title>
<path fill="none" stroke="midnightblue" d="M768.23,-173.53C877.62,-167.01 1116.34,-151.78 1317.07,-132 1331.51,-130.58 1347.51,-128.64 1360.85,-126.93"/>
<polygon fill="midnightblue" stroke="midnightblue" points="1361.42,-130.39 1370.89,-125.63 1360.52,-123.45 1361.42,-130.39"/>
</g>
<!-- Node18 -->
<g id="node18" class="node">
<title>Node18</title>
<g id="a_node18"><a xlink:title=" ">
<polygon fill="white" stroke="#bfbfbf" points="680.07,-112.5 680.07,-131.5 736.07,-131.5 736.07,-112.5 680.07,-112.5"/>
<text text-anchor="middle" x="708.07" y="-119.5" font-family="Helvetica,sans-Serif" font-size="10.00">iomanip</text>
</a>
</g>
</g>
<!-- Node14&#45;&gt;Node18 -->
<g id="edge27" class="edge">
<title>Node14&#45;&gt;Node18</title>
<path fill="none" stroke="midnightblue" d="M708.07,-168.08C708.07,-161.01 708.07,-150.86 708.07,-141.99"/>
<polygon fill="midnightblue" stroke="midnightblue" points="711.57,-141.75 708.07,-131.75 704.57,-141.75 711.57,-141.75"/>
</g>
<!-- Node19 -->
<g id="node19" class="node">
<title>Node19</title>
<g id="a_node19"><a xlink:title=" ">
<polygon fill="white" stroke="#bfbfbf" points="754.07,-112.5 754.07,-131.5 798.07,-131.5 798.07,-112.5 754.07,-112.5"/>
<text text-anchor="middle" x="776.07" y="-119.5" font-family="Helvetica,sans-Serif" font-size="10.00">bitset</text>
</a>
</g>
</g>
<!-- Node14&#45;&gt;Node19 -->
<g id="edge28" class="edge">
<title>Node14&#45;&gt;Node19</title>
<path fill="none" stroke="midnightblue" d="M719,-168.32C729.25,-160.18 744.79,-147.84 757.07,-138.09"/>
<polygon fill="midnightblue" stroke="midnightblue" points="759.29,-140.79 764.95,-131.83 754.94,-135.31 759.29,-140.79"/>
</g>
<!-- Node20 -->
<g id="node20" class="node">
<title>Node20</title>
<g id="a_node20"><a xlink:title=" ">
<polygon fill="white" stroke="#bfbfbf" points="558.57,-112.5 558.57,-131.5 611.57,-131.5 611.57,-112.5 558.57,-112.5"/>
<text text-anchor="middle" x="585.07" y="-119.5" font-family="Helvetica,sans-Serif" font-size="10.00">string.h</text>
</a>
</g>
</g>
<!-- Node14&#45;&gt;Node20 -->
<g id="edge29" class="edge">
<title>Node14&#45;&gt;Node20</title>
<path fill="none" stroke="midnightblue" d="M688.58,-168.44C668.43,-159.6 636.75,-145.69 613.74,-135.59"/>
<polygon fill="midnightblue" stroke="midnightblue" points="615.03,-132.33 604.47,-131.52 612.22,-138.74 615.03,-132.33"/>
</g>
<!-- Node21 -->
<g id="node21" class="node">
<title>Node21</title>
<g id="a_node21"><a xlink:href="../../da/df0/ntv2virtualregisters_8h.html" target="_top" xlink:title="Declares enums for virtual registers used in all platform drivers and the SDK.">
<polygon fill="white" stroke="black" points="418.07,-112.5 418.07,-131.5 540.07,-131.5 540.07,-112.5 418.07,-112.5"/>
<text text-anchor="middle" x="479.07" y="-119.5" font-family="Helvetica,sans-Serif" font-size="10.00">ntv2virtualregisters.h</text>
</a>
</g>
</g>
<!-- Node14&#45;&gt;Node21 -->
<g id="edge31" class="edge">
<title>Node14&#45;&gt;Node21</title>
<path fill="none" stroke="midnightblue" d="M671.78,-168.44C632.09,-159.08 568.36,-144.06 525.16,-133.87"/>
<polygon fill="midnightblue" stroke="midnightblue" points="525.72,-130.41 515.19,-131.52 524.12,-137.22 525.72,-130.41"/>
</g>
<!-- Node21&#45;&gt;Node2 -->
<g id="edge32" class="edge">
<title>Node21&#45;&gt;Node2</title>
<path fill="none" stroke="midnightblue" d="M479.07,-112.08C479.07,-105.01 479.07,-94.86 479.07,-85.99"/>
<polygon fill="midnightblue" stroke="midnightblue" points="482.57,-85.75 479.07,-75.75 475.57,-85.75 482.57,-85.75"/>
</g>
<!-- Node22&#45;&gt;Node2 -->
<g id="edge35" class="edge">
<title>Node22&#45;&gt;Node2</title>
<path fill="none" stroke="midnightblue" d="M613.92,-228.95C550,-221.09 454.95,-198.23 409.07,-132 394.58,-111.09 422.59,-91.9 447.37,-79.88"/>
<polygon fill="midnightblue" stroke="midnightblue" points="448.99,-82.98 456.62,-75.63 446.07,-76.62 448.99,-82.98"/>
</g>
<!-- Node22&#45;&gt;Node4 -->
<g id="edge36" class="edge">
<title>Node22&#45;&gt;Node4</title>
<path fill="none" stroke="midnightblue" d="M613.88,-228.14C554.36,-222.45 463.83,-210.74 388.07,-188 376.42,-184.5 311.32,-153.97 273.43,-136.02"/>
<polygon fill="midnightblue" stroke="midnightblue" points="274.52,-132.66 263.99,-131.54 271.52,-138.99 274.52,-132.66"/>
</g>
<!-- Node22&#45;&gt;Node6 -->
<g id="edge34" class="edge">
<title>Node22&#45;&gt;Node6</title>
<path fill="none" stroke="midnightblue" d="M614.01,-230.1C564.78,-225.72 496.26,-214.85 442.07,-188 363.39,-149.01 368.91,-103.52 295.07,-56 273.92,-42.39 247.95,-31.07 227.38,-23.2"/>
<polygon fill="midnightblue" stroke="midnightblue" points="228.36,-19.82 217.76,-19.61 225.91,-26.38 228.36,-19.82"/>
</g>
<!-- Node22&#45;&gt;Node7 -->
<g id="edge38" class="edge">
<title>Node22&#45;&gt;Node7</title>
<path fill="none" stroke="midnightblue" d="M717.41,-224.47C774.26,-210.96 881.29,-181.03 961.07,-132 1010.05,-101.9 1057.4,-52.48 1080.11,-27.12"/>
<polygon fill="midnightblue" stroke="midnightblue" points="1082.83,-29.32 1086.83,-19.5 1077.59,-24.68 1082.83,-29.32"/>
</g>
<!-- Node22&#45;&gt;Node10 -->
<g id="edge40" class="edge">
<title>Node22&#45;&gt;Node10</title>
<path fill="none" stroke="midnightblue" d="M717.97,-224.49C759.86,-215.52 827.63,-200.94 886.07,-188 977.73,-167.71 1085.67,-143.06 1139.3,-130.76"/>
<polygon fill="midnightblue" stroke="midnightblue" points="1140.31,-134.12 1149.28,-128.47 1138.75,-127.3 1140.31,-134.12"/>
</g>
<!-- Node22&#45;&gt;Node14 -->
<g id="edge37" class="edge">
<title>Node22&#45;&gt;Node14</title>
<path fill="none" stroke="midnightblue" d="M683.02,-224.08C687.17,-216.61 693.22,-205.72 698.34,-196.52"/>
<polygon fill="midnightblue" stroke="midnightblue" points="701.41,-198.19 703.21,-187.75 695.29,-194.79 701.41,-198.19"/>
</g>
<!-- Node22&#45;&gt;Node15 -->
<g id="edge39" class="edge">
<title>Node22&#45;&gt;Node15</title>
<path fill="none" stroke="midnightblue" d="M697.22,-224.37C739.98,-205.09 843.43,-158.45 893.7,-135.79"/>
<polygon fill="midnightblue" stroke="midnightblue" points="895.34,-138.89 903.01,-131.59 892.46,-132.51 895.34,-138.89"/>
</g>
<!-- Node24&#45;&gt;Node2 -->
<g id="edge52" class="edge">
<title>Node24&#45;&gt;Node2</title>
<path fill="none" stroke="midnightblue" d="M60.01,-224.46C33.13,-213.17 -5.62,-191.88 11.07,-168 59.57,-98.6 327.24,-75.7 434.55,-69.23"/>
<polygon fill="midnightblue" stroke="midnightblue" points="434.94,-72.72 444.72,-68.64 434.54,-65.73 434.94,-72.72"/>
</g>
<!-- Node24&#45;&gt;Node4 -->
<g id="edge53" class="edge">
<title>Node24&#45;&gt;Node4</title>
<path fill="none" stroke="midnightblue" d="M97.31,-224.46C111.95,-215.59 135.34,-201.19 155.07,-188 180.04,-171.31 208.06,-151.05 226.32,-137.64"/>
<polygon fill="midnightblue" stroke="midnightblue" points="228.48,-140.4 234.45,-131.65 224.33,-134.76 228.48,-140.4"/>
</g>
<!-- Node24&#45;&gt;Node6 -->
<g id="edge51" class="edge">
<title>Node24&#45;&gt;Node6</title>
<path fill="none" stroke="midnightblue" d="M52.82,-224.49C34.95,-217.73 13.77,-206.29 3.07,-188 -1.42,-180.33 -0.24,-176.25 3.07,-168 32.28,-95.15 117.14,-45.91 162.56,-23.98"/>
<polygon fill="midnightblue" stroke="midnightblue" points="164.32,-27.02 171.88,-19.6 161.35,-20.69 164.32,-27.02"/>
</g>
<!-- Node25 -->
<g id="node25" class="node">
<title>Node25</title>
<g id="a_node25"><a xlink:href="../../d9/dfb/ntv2devicefeatures_8hh.html" target="_top" xlink:title="Declares NTV2DeviceCanDo... and NTV2DeviceGetNum... functions. This module is included at compile tim...">
<polygon fill="white" stroke="black" points="20.07,-168.5 20.07,-187.5 146.07,-187.5 146.07,-168.5 20.07,-168.5"/>
<text text-anchor="middle" x="83.07" y="-175.5" font-family="Helvetica,sans-Serif" font-size="10.00">ntv2devicefeatures.hh</text>
</a>
</g>
</g>
<!-- Node24&#45;&gt;Node25 -->
<g id="edge54" class="edge">
<title>Node24&#45;&gt;Node25</title>
<path fill="none" stroke="midnightblue" d="M83.07,-224.08C83.07,-217.01 83.07,-206.86 83.07,-197.99"/>
<polygon fill="midnightblue" stroke="midnightblue" points="86.57,-197.75 83.07,-187.75 79.57,-197.75 86.57,-197.75"/>
</g>
<!-- Node25&#45;&gt;Node4 -->
<g id="edge56" class="edge">
<title>Node25&#45;&gt;Node4</title>
<path fill="none" stroke="midnightblue" d="M108.9,-168.44C136.32,-159.36 179.85,-144.94 210.5,-134.78"/>
<polygon fill="midnightblue" stroke="midnightblue" points="211.97,-137.98 220.36,-131.52 209.77,-131.34 211.97,-137.98"/>
</g>
<!-- Node25&#45;&gt;Node6 -->
<g id="edge55" class="edge">
<title>Node25&#45;&gt;Node6</title>
<path fill="none" stroke="midnightblue" d="M84.28,-168.2C87.59,-146.92 98.43,-91.84 126.07,-56 136.16,-42.92 151.14,-32.27 164.29,-24.62"/>
<polygon fill="midnightblue" stroke="midnightblue" points="166.36,-27.48 173.43,-19.59 162.99,-21.34 166.36,-27.48"/>
</g>
<!-- Node27 -->
<g id="node27" class="node">
<title>Node27</title>
<g id="a_node27"><a xlink:href="../../d4/d79/public_8h.html" target="_top" xlink:title="Master header for the ajabase library.">
<polygon fill="white" stroke="black" points="1422.07,-168.5 1422.07,-187.5 1564.07,-187.5 1564.07,-168.5 1422.07,-168.5"/>
<text text-anchor="middle" x="1493.07" y="-175.5" font-family="Helvetica,sans-Serif" font-size="10.00">ajabase/common/public.h</text>
</a>
</g>
</g>
<!-- Node26&#45;&gt;Node27 -->
<g id="edge58" class="edge">
<title>Node26&#45;&gt;Node27</title>
<path fill="none" stroke="midnightblue" d="M1493.07,-224.08C1493.07,-217.01 1493.07,-206.86 1493.07,-197.99"/>
<polygon fill="midnightblue" stroke="midnightblue" points="1496.57,-197.75 1493.07,-187.75 1489.57,-197.75 1496.57,-197.75"/>
</g>
<!-- Node31 -->
<g id="node31" class="node">
<title>Node31</title>
<g id="a_node31"><a xlink:title=" ">
<polygon fill="white" stroke="#bfbfbf" points="1582.07,-168.5 1582.07,-187.5 1638.07,-187.5 1638.07,-168.5 1582.07,-168.5"/>
<text text-anchor="middle" x="1610.07" y="-175.5" font-family="Helvetica,sans-Serif" font-size="10.00">assert.h</text>
</a>
</g>
</g>
<!-- Node26&#45;&gt;Node31 -->
<g id="edge65" class="edge">
<title>Node26&#45;&gt;Node31</title>
<path fill="none" stroke="midnightblue" d="M1511.61,-224.44C1530.69,-215.64 1560.65,-201.81 1582.51,-191.72"/>
<polygon fill="midnightblue" stroke="midnightblue" points="1584.01,-194.88 1591.62,-187.52 1581.07,-188.53 1584.01,-194.88"/>
</g>
<!-- Node27&#45;&gt;Node7 -->
<g id="edge60" class="edge">
<title>Node27&#45;&gt;Node7</title>
<path fill="none" stroke="midnightblue" d="M1486.25,-168.18C1468.05,-145.37 1415.74,-84.22 1357.07,-56 1280.1,-18.98 1177.57,-11.94 1126.23,-10.9"/>
<polygon fill="midnightblue" stroke="midnightblue" points="1126.13,-7.4 1116.08,-10.76 1126.03,-14.4 1126.13,-7.4"/>
</g>
<!-- Node27&#45;&gt;Node10 -->
<g id="edge62" class="edge">
<title>Node27&#45;&gt;Node10</title>
<path fill="none" stroke="midnightblue" d="M1438.14,-168.48C1382.76,-159.78 1294.86,-145.64 1219.07,-132 1215.13,-131.29 1211,-130.52 1206.91,-129.74"/>
<polygon fill="midnightblue" stroke="midnightblue" points="1207.4,-126.27 1196.92,-127.81 1206.07,-133.15 1207.4,-126.27"/>
</g>
<!-- Node27&#45;&gt;Node17 -->
<g id="edge63" class="edge">
<title>Node27&#45;&gt;Node17</title>
<path fill="none" stroke="midnightblue" d="M1476.52,-168.32C1460.08,-159.7 1434.64,-146.36 1415.6,-136.39"/>
<polygon fill="midnightblue" stroke="midnightblue" points="1417.06,-133.2 1406.58,-131.65 1413.81,-139.4 1417.06,-133.2"/>
</g>
<!-- Node28 -->
<g id="node28" class="node">
<title>Node28</title>
<g id="a_node28"><a xlink:href="../../db/db5/export_8h.html" target="_top" xlink:title="Declares system&#45;dependent import/export macros and libraries.">
<polygon fill="white" stroke="black" points="1673.07,-112.5 1673.07,-131.5 1817.07,-131.5 1817.07,-112.5 1673.07,-112.5"/>
<text text-anchor="middle" x="1745.07" y="-119.5" font-family="Helvetica,sans-Serif" font-size="10.00">ajabase/common/export.h</text>
</a>
</g>
</g>
<!-- Node27&#45;&gt;Node28 -->
<g id="edge59" class="edge">
<title>Node27&#45;&gt;Node28</title>
<path fill="none" stroke="midnightblue" d="M1533,-168.44C1576.96,-159.02 1647.7,-143.87 1695.25,-133.68"/>
<polygon fill="midnightblue" stroke="midnightblue" points="1696.28,-137.03 1705.33,-131.52 1694.82,-130.19 1696.28,-137.03"/>
</g>
<!-- Node29 -->
<g id="node29" class="node">
<title>Node29</title>
<g id="a_node29"><a xlink:title=" ">
<polygon fill="white" stroke="#bfbfbf" points="1465.07,-112.5 1465.07,-131.5 1497.07,-131.5 1497.07,-112.5 1465.07,-112.5"/>
<text text-anchor="middle" x="1481.07" y="-119.5" font-family="Helvetica,sans-Serif" font-size="10.00">list</text>
</a>
</g>
</g>
<!-- Node27&#45;&gt;Node29 -->
<g id="edge61" class="edge">
<title>Node27&#45;&gt;Node29</title>
<path fill="none" stroke="midnightblue" d="M1491.09,-168.08C1489.5,-160.93 1487.21,-150.64 1485.22,-141.69"/>
<polygon fill="midnightblue" stroke="midnightblue" points="1488.6,-140.75 1483.02,-131.75 1481.77,-142.27 1488.6,-140.75"/>
</g>
<!-- Node30 -->
<g id="node30" class="node">
<title>Node30</title>
<g id="a_node30"><a xlink:href="../../d9/d49/types_8h.html" target="_top" xlink:title="Declares common types used in the ajabase library.">
<polygon fill="white" stroke="black" points="1515.07,-112.5 1515.07,-131.5 1655.07,-131.5 1655.07,-112.5 1515.07,-112.5"/>
<text text-anchor="middle" x="1585.07" y="-119.5" font-family="Helvetica,sans-Serif" font-size="10.00">ajabase/common/types.h</text>
</a>
</g>
</g>
<!-- Node27&#45;&gt;Node30 -->
<g id="edge64" class="edge">
<title>Node27&#45;&gt;Node30</title>
<path fill="none" stroke="midnightblue" d="M1507.85,-168.32C1522.34,-159.82 1544.64,-146.73 1561.56,-136.8"/>
<polygon fill="midnightblue" stroke="midnightblue" points="1563.47,-139.74 1570.33,-131.65 1559.93,-133.7 1563.47,-139.74"/>
</g>
</g>
</svg>
        <g id="navigator" transform="translate(0 0)" fill="#404254">
                <rect fill="#f2f5e9" fill-opacity="0.5" stroke="#606060" stroke-width=".5" x="0" y="0" width="60" height="60"/>
                <use id="zoomplus" xlink:href="#zoomPlus" x="17" y="9" onmousedown="handleZoom(evt,'in')"/>
                <use id="zoomminus" xlink:href="#zoomMin" x="42" y="9" onmousedown="handleZoom(evt,'out')"/>
                <use id="reset" xlink:href="#resetDef" x="30" y="36" onmousedown="handleReset()"/>
                <g id="arrowUp" xlink:href="#dirArrow" transform="translate(30 24)" onmousedown="handlePan(0,-1)">
                  <use xlink:href="#rim" fill="#404040">
                        <set attributeName="fill" to="#808080" begin="arrowUp.mouseover" end="arrowUp.mouseout"/>
                  </use>
                  <path fill="none" stroke="white" stroke-width="1.5" d="M0,-3.0v7 M-2.5,-0.5L0,-3.0L2.5,-0.5"/>
                </g>
                <g id="arrowRight" xlink:href="#dirArrow" transform="rotate(90) translate(36 -43)" onmousedown="handlePan(1,0)">
                  <use xlink:href="#rim" fill="#404040">
                        <set attributeName="fill" to="#808080" begin="arrowRight.mouseover" end="arrowRight.mouseout"/>
                  </use>
                  <path fill="none" stroke="white" stroke-width="1.5" d="M0,-3.0v7 M-2.5,-0.5L0,-3.0L2.5,-0.5"/>
                </g>
                <g id="arrowDown" xlink:href="#dirArrow" transform="rotate(180) translate(-30 -48)" onmousedown="handlePan(0,1)">
                  <use xlink:href="#rim" fill="#404040">
                        <set attributeName="fill" to="#808080" begin="arrowDown.mouseover" end="arrowDown.mouseout"/>
                  </use>
                  <path fill="none" stroke="white" stroke-width="1.5" d="M0,-3.0v7 M-2.5,-0.5L0,-3.0L2.5,-0.5"/>
                </g>
                <g id="arrowLeft" xlink:href="#dirArrow" transform="rotate(270) translate(-36 17)" onmousedown="handlePan(-1,0)">
                  <use xlink:href="#rim" fill="#404040">
                        <set attributeName="fill" to="#808080" begin="arrowLeft.mouseover" end="arrowLeft.mouseout"/>
                  </use>
                  <path fill="none" stroke="white" stroke-width="1.5" d="M0,-3.0v7 M-2.5,-0.5L0,-3.0L2.5,-0.5"/>
                </g>
        </g>
        <svg viewBox="0 0 15 15" width="100%" height="30px" preserveAspectRatio="xMaxYMin meet">
         <g id="arrow_out" transform="scale(0.3 0.3)">
          <a xlink:href="ntv2driverinterface_8h__incl_org.svg" target="_base">
           <rect id="button" ry="5" rx="5" y="6" x="6" height="38" width="38"
                fill="#f2f5e9" fill-opacity="0.5" stroke="#606060" stroke-width="1.0"/>
           <path id="arrow"
             d="M 11.500037,31.436501 C 11.940474,20.09759 22.043105,11.32322 32.158766,21.979434 L 37.068811,17.246167 C 37.068811,17.246167 37.088388,32 37.088388,32 L 22.160133,31.978069 C 22.160133,31.978069 26.997745,27.140456 26.997745,27.140456 C 18.528582,18.264221 13.291696,25.230495 11.500037,31.436501 z"
             style="fill:#404040;"/>
          </a>
         </g>
        </svg>
</svg>
