<?xml version="1.0" encoding="UTF-8" standalone="no"?>
<!DOCTYPE svg PUBLIC "-//W3C//DTD SVG 1.1//EN"
 "http://www.w3.org/Graphics/SVG/1.1/DTD/svg11.dtd">
<!-- Generated by graphviz version 2.40.1 (0)
 -->
<!-- Title: /home/tcbuilder/buildAgent/work/df8e8cce5bebfd58/libajantv2/ajantv2/src/ntv2transcode.cpp Pages: 1 -->
<svg width="451pt" height="274pt"
 viewBox="0.00 0.00 451.36 274.00" xmlns="http://www.w3.org/2000/svg" xmlns:xlink="http://www.w3.org/1999/xlink">
<g id="graph0" class="graph" transform="scale(1 1) rotate(0) translate(4 270)">
<title>/home/tcbuilder/buildAgent/work/df8e8cce5bebfd58/libajantv2/ajantv2/src/ntv2transcode.cpp</title>
<polygon fill="#ffffff" stroke="transparent" points="-4,4 -4,-270 447.3648,-270 447.3648,4 -4,4"/>
<!-- Node0 -->
<g id="node1" class="node">
<title>Node0</title>
<polygon fill="#bfbfbf" stroke="#000000" points="219,-224.5 219,-265.5 386,-265.5 386,-224.5 219,-224.5"/>
<text text-anchor="start" x="227" y="-253.5" font-family="Helvetica,sans-Serif" font-size="10.00" fill="#000000">/home/tcbuilder/buildAgent</text>
<text text-anchor="start" x="227" y="-242.5" font-family="Helvetica,sans-Serif" font-size="10.00" fill="#000000">/work/df8e8cce5bebfd58/libajantv2</text>
<text text-anchor="middle" x="302.5" y="-231.5" font-family="Helvetica,sans-Serif" font-size="10.00" fill="#000000">/ajantv2/src/ntv2transcode.cpp</text>
</g>
<!-- Node1 -->
<g id="node2" class="node">
<title>Node1</title>
<g id="a_node2"><a xlink:href="../../d2/d22/ntv2transcode_8h.html" target="_top" xlink:title="Declares a number of pixel format transcoder functions. ">
<polygon fill="#ffffff" stroke="#000000" points="211.5,-168.5 211.5,-187.5 297.5,-187.5 297.5,-168.5 211.5,-168.5"/>
<text text-anchor="middle" x="254.5" y="-175.5" font-family="Helvetica,sans-Serif" font-size="10.00" fill="#000000">ntv2transcode.h</text>
</a>
</g>
</g>
<!-- Node0&#45;&gt;Node1 -->
<g id="edge1" class="edge">
<title>Node0&#45;&gt;Node1</title>
<path fill="none" stroke="#191970" d="M287.5756,-224.168C281.1212,-215.1587 273.6398,-204.7159 267.4265,-196.0432"/>
<polygon fill="#191970" stroke="#191970" points="270.176,-193.8713 261.5069,-187.7805 264.4856,-197.948 270.176,-193.8713"/>
</g>
<!-- Node10 -->
<g id="node11" class="node">
<title>Node10</title>
<g id="a_node11"><a xlink:href="../../d4/d18/ntv2endian_8h.html" target="_top" xlink:title="Defines a number of handy byte&#45;swapping macros. ">
<polygon fill="#ffffff" stroke="#000000" points="368.5,-168.5 368.5,-187.5 440.5,-187.5 440.5,-168.5 368.5,-168.5"/>
<text text-anchor="middle" x="404.5" y="-175.5" font-family="Helvetica,sans-Serif" font-size="10.00" fill="#000000">ntv2endian.h</text>
</a>
</g>
</g>
<!-- Node0&#45;&gt;Node10 -->
<g id="edge12" class="edge">
<title>Node0&#45;&gt;Node10</title>
<path fill="none" stroke="#191970" d="M333.9357,-224.3511C349.2051,-214.3212 367.2324,-202.4797 381.2437,-193.2762"/>
<polygon fill="#191970" stroke="#191970" points="383.3653,-196.0702 389.8019,-187.6546 379.5222,-190.2195 383.3653,-196.0702"/>
</g>
<!-- Node2 -->
<g id="node3" class="node">
<title>Node2</title>
<g id="a_node3"><a xlink:href="../../d6/dd9/ajaexport_8h.html" target="_top" xlink:title="Defines the import/export macros for producing DLLs or LIBs. ">
<polygon fill="#ffffff" stroke="#000000" points="0,-112.5 0,-131.5 65,-131.5 65,-112.5 0,-112.5"/>
<text text-anchor="middle" x="32.5" y="-119.5" font-family="Helvetica,sans-Serif" font-size="10.00" fill="#000000">ajaexport.h</text>
</a>
</g>
</g>
<!-- Node1&#45;&gt;Node2 -->
<g id="edge2" class="edge">
<title>Node1&#45;&gt;Node2</title>
<path fill="none" stroke="#191970" d="M216.5891,-168.4369C177.3165,-158.5303 116.0701,-143.0807 75.1368,-132.7552"/>
<polygon fill="#191970" stroke="#191970" points="75.7458,-129.2993 65.1935,-130.247 74.0336,-136.0867 75.7458,-129.2993"/>
</g>
<!-- Node3 -->
<g id="node4" class="node">
<title>Node3</title>
<g id="a_node4"><a xlink:href="../../db/de2/ajatypes_8h.html" target="_top" xlink:title="Declares the most fundamental data types used by NTV2. Since Windows NT was the first principal devel...">
<polygon fill="#ffffff" stroke="#000000" points="173.5,-56.5 173.5,-75.5 235.5,-75.5 235.5,-56.5 173.5,-56.5"/>
<text text-anchor="middle" x="204.5" y="-63.5" font-family="Helvetica,sans-Serif" font-size="10.00" fill="#000000">ajatypes.h</text>
</a>
</g>
</g>
<!-- Node1&#45;&gt;Node3 -->
<g id="edge3" class="edge">
<title>Node1&#45;&gt;Node3</title>
<path fill="none" stroke="#191970" d="M211.1474,-169.7541C173.8764,-161.6797 124.3119,-148.2426 112.5,-132 94.7409,-107.5793 131.418,-88.7024 163.598,-77.5087"/>
<polygon fill="#191970" stroke="#191970" points="164.9749,-80.7402 173.3753,-74.2839 162.7822,-74.0924 164.9749,-80.7402"/>
</g>
<!-- Node6 -->
<g id="node7" class="node">
<title>Node6</title>
<g id="a_node7"><a xlink:href="../../d6/dcc/ntv2fixed_8h.html" target="_top" xlink:title="Declares several fixed&#45;point math routines. Assumes 16&#45;bit fraction. ">
<polygon fill="#ffffff" stroke="#000000" points="122,-112.5 122,-131.5 187,-131.5 187,-112.5 122,-112.5"/>
<text text-anchor="middle" x="154.5" y="-119.5" font-family="Helvetica,sans-Serif" font-size="10.00" fill="#000000">ntv2fixed.h</text>
</a>
</g>
</g>
<!-- Node1&#45;&gt;Node6 -->
<g id="edge6" class="edge">
<title>Node1&#45;&gt;Node6</title>
<path fill="none" stroke="#191970" d="M237.0813,-168.2455C221.4515,-159.4928 198.2981,-146.527 180.4815,-136.5496"/>
<polygon fill="#191970" stroke="#191970" points="182.1543,-133.475 171.7191,-131.6427 178.734,-139.5825 182.1543,-133.475"/>
</g>
<!-- Node7 -->
<g id="node8" class="node">
<title>Node7</title>
<g id="a_node8"><a xlink:href="../../d9/d61/ntv2videodefines_8h.html" target="_top" xlink:title="Declares common video macros and structs used in the SDK. ">
<polygon fill="#ffffff" stroke="#000000" points="205.5,-112.5 205.5,-131.5 303.5,-131.5 303.5,-112.5 205.5,-112.5"/>
<text text-anchor="middle" x="254.5" y="-119.5" font-family="Helvetica,sans-Serif" font-size="10.00" fill="#000000">ntv2videodefines.h</text>
</a>
</g>
</g>
<!-- Node1&#45;&gt;Node7 -->
<g id="edge8" class="edge">
<title>Node1&#45;&gt;Node7</title>
<path fill="none" stroke="#191970" d="M254.5,-168.2455C254.5,-160.9382 254.5,-150.6944 254.5,-141.7046"/>
<polygon fill="#191970" stroke="#191970" points="258.0001,-141.6426 254.5,-131.6427 251.0001,-141.6427 258.0001,-141.6426"/>
</g>
<!-- Node8 -->
<g id="node9" class="node">
<title>Node8</title>
<polygon fill="#ffffff" stroke="#bfbfbf" points="321.5,-112.5 321.5,-131.5 365.5,-131.5 365.5,-112.5 321.5,-112.5"/>
<text text-anchor="middle" x="343.5" y="-119.5" font-family="Helvetica,sans-Serif" font-size="10.00" fill="#000000">vector</text>
</g>
<!-- Node1&#45;&gt;Node8 -->
<g id="edge10" class="edge">
<title>Node1&#45;&gt;Node8</title>
<path fill="none" stroke="#191970" d="M270.0026,-168.2455C283.658,-159.6534 303.7657,-147.0014 319.4989,-137.1018"/>
<polygon fill="#191970" stroke="#191970" points="321.5751,-139.9307 328.175,-131.6427 317.8471,-134.006 321.5751,-139.9307"/>
</g>
<!-- Node9 -->
<g id="node10" class="node">
<title>Node9</title>
<polygon fill="#ffffff" stroke="#bfbfbf" points="383.5,-112.5 383.5,-131.5 429.5,-131.5 429.5,-112.5 383.5,-112.5"/>
<text text-anchor="middle" x="406.5" y="-119.5" font-family="Helvetica,sans-Serif" font-size="10.00" fill="#000000">stdio.h</text>
</g>
<!-- Node1&#45;&gt;Node9 -->
<g id="edge11" class="edge">
<title>Node1&#45;&gt;Node9</title>
<path fill="none" stroke="#191970" d="M280.6297,-168.3733C306.3327,-158.9037 345.6608,-144.4144 373.5068,-134.1554"/>
<polygon fill="#191970" stroke="#191970" points="375.0264,-137.3256 383.1998,-130.5843 372.6064,-130.7572 375.0264,-137.3256"/>
</g>
<!-- Node4 -->
<g id="node5" class="node">
<title>Node4</title>
<g id="a_node5"><a xlink:href="../../db/d40/ntv2deprecate_8h.html" target="_top" xlink:title="Deprecation control macros. ">
<polygon fill="#ffffff" stroke="#000000" points="118.5,-.5 118.5,-19.5 204.5,-19.5 204.5,-.5 118.5,-.5"/>
<text text-anchor="middle" x="161.5" y="-7.5" font-family="Helvetica,sans-Serif" font-size="10.00" fill="#000000">ntv2deprecate.h</text>
</a>
</g>
</g>
<!-- Node3&#45;&gt;Node4 -->
<g id="edge4" class="edge">
<title>Node3&#45;&gt;Node4</title>
<path fill="none" stroke="#191970" d="M197.01,-56.2455C190.9674,-48.3761 182.3097,-37.101 175.0559,-27.6542"/>
<polygon fill="#191970" stroke="#191970" points="177.7705,-25.4426 168.9042,-19.6427 172.2185,-29.7058 177.7705,-25.4426"/>
</g>
<!-- Node5 -->
<g id="node6" class="node">
<title>Node5</title>
<polygon fill="#ffffff" stroke="#bfbfbf" points="223,-.5 223,-19.5 272,-19.5 272,-.5 223,-.5"/>
<text text-anchor="middle" x="247.5" y="-7.5" font-family="Helvetica,sans-Serif" font-size="10.00" fill="#000000">stdint.h</text>
</g>
<!-- Node3&#45;&gt;Node5 -->
<g id="edge5" class="edge">
<title>Node3&#45;&gt;Node5</title>
<path fill="none" stroke="#191970" d="M211.99,-56.2455C218.0326,-48.3761 226.6903,-37.101 233.9441,-27.6542"/>
<polygon fill="#191970" stroke="#191970" points="236.7815,-29.7058 240.0958,-19.6427 231.2295,-25.4426 236.7815,-29.7058"/>
</g>
<!-- Node6&#45;&gt;Node3 -->
<g id="edge7" class="edge">
<title>Node6&#45;&gt;Node3</title>
<path fill="none" stroke="#191970" d="M163.2093,-112.2455C170.3073,-104.2958 180.5084,-92.8706 188.995,-83.3656"/>
<polygon fill="#191970" stroke="#191970" points="191.8411,-85.4331 195.8905,-75.6427 186.6195,-80.771 191.8411,-85.4331"/>
</g>
<!-- Node7&#45;&gt;Node3 -->
<g id="edge9" class="edge">
<title>Node7&#45;&gt;Node3</title>
<path fill="none" stroke="#191970" d="M245.7907,-112.2455C238.6927,-104.2958 228.4916,-92.8706 220.005,-83.3656"/>
<polygon fill="#191970" stroke="#191970" points="222.3805,-80.771 213.1095,-75.6427 217.1589,-85.4331 222.3805,-80.771"/>
</g>
<!-- Node10&#45;&gt;Node3 -->
<g id="edge13" class="edge">
<title>Node10&#45;&gt;Node3</title>
<path fill="none" stroke="#191970" d="M416.1048,-168.2872C430.9439,-154.7058 453.0748,-129.7189 438.5,-112 414.5694,-82.907 306.4244,-71.9315 245.8811,-68.0167"/>
<polygon fill="#191970" stroke="#191970" points="246.0717,-64.5219 235.877,-67.406 245.6451,-71.5089 246.0717,-64.5219"/>
</g>
</g>
</svg>
