<?xml version="1.0" encoding="UTF-8" standalone="no"?>
<!DOCTYPE svg PUBLIC "-//W3C//DTD SVG 1.1//EN"
 "http://www.w3.org/Graphics/SVG/1.1/DTD/svg11.dtd">
<!-- Generated by graphviz version 2.43.0 (0)
 -->
<!-- Title: /home/tcbuilder/buildAgent/work/df8e8cce5bebfd58/libajantv2/demos/ntv2outputtestpattern/ntv2outputtestpattern.h Pages: 1 -->
<svg width="530pt" height="128pt"
 viewBox="0.00 0.00 530.00 128.00" xmlns="http://www.w3.org/2000/svg" xmlns:xlink="http://www.w3.org/1999/xlink">
<g id="graph0" class="graph" transform="scale(1 1) rotate(0) translate(4 124)">
<title>/home/tcbuilder/buildAgent/work/df8e8cce5bebfd58/libajantv2/demos/ntv2outputtestpattern/ntv2outputtestpattern.h</title>
<polygon fill="white" stroke="transparent" points="-4,4 -4,-124 526,-124 526,4 -4,4"/>
<!-- Node1 -->
<g id="node1" class="node">
<title>Node1</title>
<g id="a_node1"><a xlink:title=" ">
<polygon fill="#bfbfbf" stroke="black" points="99.5,-78.5 99.5,-119.5 381.5,-119.5 381.5,-78.5 99.5,-78.5"/>
<text text-anchor="start" x="107.5" y="-107.5" font-family="Helvetica,sans-Serif" font-size="10.00">/home/tcbuilder/buildAgent</text>
<text text-anchor="start" x="107.5" y="-96.5" font-family="Helvetica,sans-Serif" font-size="10.00">/work/df8e8cce5bebfd58/libajantv2</text>
<text text-anchor="middle" x="240.5" y="-85.5" font-family="Helvetica,sans-Serif" font-size="10.00">/demos/ntv2outputtestpattern/ntv2outputtestpattern.h</text>
</a>
</g>
</g>
<!-- Node2 -->
<g id="node2" class="node">
<title>Node2</title>
<g id="a_node2"><a xlink:href="../../d3/d4c/ntv2outputtestpattern_2main_8cpp.html" target="_top" xlink:title="Simple demonstration application to display a fixed test pattern on an AJA device&#39;s output.">
<polygon fill="white" stroke="black" points="0,-0.5 0,-41.5 211,-41.5 211,-0.5 0,-0.5"/>
<text text-anchor="start" x="8" y="-29.5" font-family="Helvetica,sans-Serif" font-size="10.00">/home/tcbuilder/buildAgent</text>
<text text-anchor="start" x="8" y="-18.5" font-family="Helvetica,sans-Serif" font-size="10.00">/work/df8e8cce5bebfd58/libajantv2</text>
<text text-anchor="middle" x="105.5" y="-7.5" font-family="Helvetica,sans-Serif" font-size="10.00">/demos/ntv2outputtestpattern/main.cpp</text>
</a>
</g>
</g>
<!-- Node1&#45;&gt;Node2 -->
<g id="edge1" class="edge">
<title>Node1&#45;&gt;Node2</title>
<path fill="none" stroke="midnightblue" d="M196.95,-73.49C178.57,-63.13 157.45,-51.25 140.15,-41.51"/>
<polygon fill="midnightblue" stroke="midnightblue" points="195.3,-76.57 205.73,-78.43 198.74,-70.47 195.3,-76.57"/>
</g>
<!-- Node3 -->
<g id="node3" class="node">
<title>Node3</title>
<g id="a_node3"><a xlink:href="../../da/dbe/ntv2outputtestpattern_8cpp.html" target="_top" xlink:title="Implementation of NTV2OutputTestPattern demonstration class.">
<polygon fill="white" stroke="black" points="229,-0.5 229,-41.5 522,-41.5 522,-0.5 229,-0.5"/>
<text text-anchor="start" x="237" y="-29.5" font-family="Helvetica,sans-Serif" font-size="10.00">/home/tcbuilder/buildAgent</text>
<text text-anchor="start" x="237" y="-18.5" font-family="Helvetica,sans-Serif" font-size="10.00">/work/df8e8cce5bebfd58/libajantv2</text>
<text text-anchor="middle" x="375.5" y="-7.5" font-family="Helvetica,sans-Serif" font-size="10.00">/demos/ntv2outputtestpattern/ntv2outputtestpattern.cpp</text>
</a>
</g>
</g>
<!-- Node1&#45;&gt;Node3 -->
<g id="edge2" class="edge">
<title>Node1&#45;&gt;Node3</title>
<path fill="none" stroke="midnightblue" d="M284.05,-73.49C302.43,-63.13 323.55,-51.25 340.85,-41.51"/>
<polygon fill="midnightblue" stroke="midnightblue" points="282.26,-70.47 275.27,-78.43 285.7,-76.57 282.26,-70.47"/>
</g>
</g>
</svg>
