<?xml version="1.0" encoding="UTF-8" standalone="no"?>
<!DOCTYPE svg PUBLIC "-//W3C//DTD SVG 1.1//EN"
 "http://www.w3.org/Graphics/SVG/1.1/DTD/svg11.dtd">
<!-- Generated by graphviz version 2.43.0 (0)
 -->
<!-- Title: KSPROPERTY_AJAPROPS_GETSETBITFILEINFO_S Pages: 1 -->
<svg width="156pt" height="106pt"
 viewBox="0.00 0.00 156.00 106.00" xmlns="http://www.w3.org/2000/svg" xmlns:xlink="http://www.w3.org/1999/xlink">
<g id="graph0" class="graph" transform="scale(1 1) rotate(0) translate(4 102)">
<title>KSPROPERTY_AJAPROPS_GETSETBITFILEINFO_S</title>
<polygon fill="white" stroke="transparent" points="-4,4 -4,-102 152,-102 152,4 -4,4"/>
<!-- Node1 -->
<g id="node1" class="node">
<title>Node1</title>
<g id="a_node1"><a xlink:title=" ">
<polygon fill="#bfbfbf" stroke="black" points="0,-0.5 0,-30.5 134,-30.5 134,-0.5 0,-0.5"/>
<text text-anchor="start" x="8" y="-18.5" font-family="Helvetica,sans-Serif" font-size="10.00">KSPROPERTY_AJAPROPS</text>
<text text-anchor="middle" x="67" y="-7.5" font-family="Helvetica,sans-Serif" font-size="10.00">_GETSETBITFILEINFO_S</text>
</a>
</g>
</g>
<!-- Node2 -->
<g id="node2" class="node">
<title>Node2</title>
<g id="a_node2"><a xlink:href="../../de/d75/struct_b_i_t_f_i_l_e___i_n_f_o___s_t_r_u_c_t.html" target="_top" xlink:title=" ">
<polygon fill="white" stroke="black" points="4,-78.5 4,-97.5 130,-97.5 130,-78.5 4,-78.5"/>
<text text-anchor="middle" x="67" y="-85.5" font-family="Helvetica,sans-Serif" font-size="10.00">BITFILE_INFO_STRUCT</text>
</a>
</g>
</g>
<!-- Node2&#45;&gt;Node1 -->
<g id="edge1" class="edge">
<title>Node2&#45;&gt;Node1</title>
<path fill="none" stroke="#9a32cd" stroke-dasharray="5,2" d="M67,-68.24C67,-56.41 67,-41.38 67,-30.58"/>
<polygon fill="#9a32cd" stroke="#9a32cd" points="63.5,-68.36 67,-78.36 70.5,-68.36 63.5,-68.36"/>
<text text-anchor="middle" x="107.5" y="-52" font-family="Helvetica,sans-Serif" font-size="10.00"> bitFileInfoStruct</text>
</g>
</g>
</svg>
