<?xml version="1.0" encoding="UTF-8" standalone="no"?>
<!DOCTYPE svg PUBLIC "-//W3C//DTD SVG 1.1//EN"
 "http://www.w3.org/Graphics/SVG/1.1/DTD/svg11.dtd">
<!-- Generated by graphviz version 2.40.1 (0)
 -->
<!-- Title: nlohmann::json_abi_v3_11_3::detail::char_traits&lt; signed char &gt; Pages: 1 -->
<svg width="127pt" height="106pt"
 viewBox="0.00 0.00 127.00 106.00" xmlns="http://www.w3.org/2000/svg" xmlns:xlink="http://www.w3.org/1999/xlink">
<g id="graph0" class="graph" transform="scale(1 1) rotate(0) translate(4 102)">
<title>nlohmann::json_abi_v3_11_3::detail::char_traits&lt; signed char &gt;</title>
<polygon fill="#ffffff" stroke="transparent" points="-4,4 -4,-102 123,-102 123,4 -4,4"/>
<!-- Node2 -->
<g id="node1" class="node">
<title>Node2</title>
<polygon fill="#bfbfbf" stroke="#000000" points="3,-.5 3,-41.5 116,-41.5 116,-.5 3,-.5"/>
<text text-anchor="start" x="11" y="-29.5" font-family="Helvetica,sans-Serif" font-size="10.00" fill="#000000">nlohmann::json_abi</text>
<text text-anchor="start" x="11" y="-18.5" font-family="Helvetica,sans-Serif" font-size="10.00" fill="#000000">_v3_11_3::detail::char</text>
<text text-anchor="middle" x="59.5" y="-7.5" font-family="Helvetica,sans-Serif" font-size="10.00" fill="#000000">_traits&lt; signed char &gt;</text>
</g>
<!-- Node3 -->
<g id="node2" class="node">
<title>Node3</title>
<polygon fill="#ffffff" stroke="#bfbfbf" points="0,-78.5 0,-97.5 119,-97.5 119,-78.5 0,-78.5"/>
<text text-anchor="middle" x="59.5" y="-85.5" font-family="Helvetica,sans-Serif" font-size="10.00" fill="#000000">std::char_traits&lt; char &gt;</text>
</g>
<!-- Node3&#45;&gt;Node2 -->
<g id="edge1" class="edge">
<title>Node3&#45;&gt;Node2</title>
<path fill="none" stroke="#191970" d="M59.5,-68.3919C59.5,-59.9817 59.5,-50.1519 59.5,-41.6318"/>
<polygon fill="#191970" stroke="#191970" points="56.0001,-68.4005 59.5,-78.4005 63.0001,-68.4006 56.0001,-68.4005"/>
</g>
</g>
</svg>
