<?xml version="1.0" encoding="UTF-8" standalone="no"?>
<!DOCTYPE svg PUBLIC "-//W3C//DTD SVG 1.1//EN"
 "http://www.w3.org/Graphics/SVG/1.1/DTD/svg11.dtd">
<!-- Generated by graphviz version 2.43.0 (0)
 -->
<!-- Title: AJAAncillaryData_Cea708 Pages: 1 -->
<svg width="149pt" height="152pt"
 viewBox="0.00 0.00 149.00 152.00" xmlns="http://www.w3.org/2000/svg" xmlns:xlink="http://www.w3.org/1999/xlink">
<g id="graph0" class="graph" transform="scale(1 1) rotate(0) translate(4 148)">
<title>AJAAncillaryData_Cea708</title>
<polygon fill="white" stroke="transparent" points="-4,4 -4,-148 145,-148 145,4 -4,4"/>
<!-- Node1 -->
<g id="node1" class="node">
<title>Node1</title>
<g id="a_node1"><a xlink:title="This class handles CEA&#45;708 SMPTE 334 packets.">
<polygon fill="#bfbfbf" stroke="black" points="0,-0.5 0,-19.5 141,-19.5 141,-0.5 0,-0.5"/>
<text text-anchor="middle" x="70.5" y="-7.5" font-family="Helvetica,sans-Serif" font-size="10.00">AJAAncillaryData_Cea708</text>
</a>
</g>
</g>
<!-- Node2 -->
<g id="node2" class="node">
<title>Node2</title>
<g id="a_node2"><a xlink:href="../../dd/de8/class_a_j_a_ancillary_data.html" target="_top" xlink:title="I am the principal class that stores a single SMPTE&#45;291 SDI ancillary data packet OR the digitized co...">
<polygon fill="white" stroke="black" points="21,-57.5 21,-76.5 120,-76.5 120,-57.5 21,-57.5"/>
<text text-anchor="middle" x="70.5" y="-64.5" font-family="Helvetica,sans-Serif" font-size="10.00">AJAAncillaryData</text>
</a>
</g>
</g>
<!-- Node2&#45;&gt;Node1 -->
<g id="edge1" class="edge">
<title>Node2&#45;&gt;Node1</title>
<path fill="none" stroke="midnightblue" d="M70.5,-47.12C70.5,-37.82 70.5,-27.06 70.5,-19.71"/>
<polygon fill="midnightblue" stroke="midnightblue" points="67,-47.41 70.5,-57.41 74,-47.41 67,-47.41"/>
</g>
<!-- Node3 -->
<g id="node3" class="node">
<title>Node3</title>
<g id="a_node3"><a xlink:href="../../de/d12/struct_a_j_a_anc_data_loc.html" target="_top" xlink:title="Defines where the ancillary data can be found within a video stream.">
<polygon fill="white" stroke="black" points="25,-124.5 25,-143.5 116,-143.5 116,-124.5 25,-124.5"/>
<text text-anchor="middle" x="70.5" y="-131.5" font-family="Helvetica,sans-Serif" font-size="10.00">AJAAncDataLoc</text>
</a>
</g>
</g>
<!-- Node3&#45;&gt;Node2 -->
<g id="edge2" class="edge">
<title>Node3&#45;&gt;Node2</title>
<path fill="none" stroke="#9a32cd" stroke-dasharray="5,2" d="M70.5,-114.04C70.5,-101.67 70.5,-86.12 70.5,-76.63"/>
<polygon fill="#9a32cd" stroke="#9a32cd" points="67,-114.23 70.5,-124.23 74,-114.23 67,-114.23"/>
<text text-anchor="middle" x="99.5" y="-98" font-family="Helvetica,sans-Serif" font-size="10.00"> m_location</text>
</g>
</g>
</svg>
