<?xml version="1.0" encoding="UTF-8" standalone="no"?>
<!DOCTYPE svg PUBLIC "-//W3C//DTD SVG 1.1//EN"
 "http://www.w3.org/Graphics/SVG/1.1/DTD/svg11.dtd">
<!-- Generated by graphviz version 2.40.1 (0)
 -->
<!-- Title: /home/tcbuilder/buildAgent/work/df8e8cce5bebfd58/libajantv2/ajantv2/src/bm/ntv2baremetaldriverinterface.h Pages: 1 -->
<svg width="1741pt" height="498pt"
 viewBox="0.00 0.00 1741.33 498.00" xmlns="http://www.w3.org/2000/svg" xmlns:xlink="http://www.w3.org/1999/xlink">
<g id="graph0" class="graph" transform="scale(1 1) rotate(0) translate(4 494)">
<title>/home/tcbuilder/buildAgent/work/df8e8cce5bebfd58/libajantv2/ajantv2/src/bm/ntv2baremetaldriverinterface.h</title>
<polygon fill="#ffffff" stroke="transparent" points="-4,4 -4,-494 1737.3336,-494 1737.3336,4 -4,4"/>
<!-- Node0 -->
<g id="node1" class="node">
<title>Node0</title>
<polygon fill="#bfbfbf" stroke="#000000" points="1265.3336,-448.5 1265.3336,-489.5 1483.3336,-489.5 1483.3336,-448.5 1265.3336,-448.5"/>
<text text-anchor="start" x="1273.3336" y="-477.5" font-family="Helvetica,sans-Serif" font-size="10.00" fill="#000000">/home/tcbuilder/buildAgent</text>
<text text-anchor="start" x="1273.3336" y="-466.5" font-family="Helvetica,sans-Serif" font-size="10.00" fill="#000000">/work/df8e8cce5bebfd58/libajantv2</text>
<text text-anchor="middle" x="1374.3336" y="-455.5" font-family="Helvetica,sans-Serif" font-size="10.00" fill="#000000">/ajantv2/src/bm/ntv2baremetaldriverinterface.h</text>
</g>
<!-- Node1 -->
<g id="node2" class="node">
<title>Node1</title>
<g id="a_node2"><a xlink:href="../../d4/dc0/ntv2driverinterface_8h.html" target="_top" xlink:title="Declares the CNTV2DriverInterface base class. ">
<polygon fill="#ffffff" stroke="#000000" points="1112.8336,-392.5 1112.8336,-411.5 1217.8336,-411.5 1217.8336,-392.5 1112.8336,-392.5"/>
<text text-anchor="middle" x="1165.3336" y="-399.5" font-family="Helvetica,sans-Serif" font-size="10.00" fill="#000000">ntv2driverinterface.h</text>
</a>
</g>
</g>
<!-- Node0&#45;&gt;Node1 -->
<g id="edge1" class="edge">
<title>Node0&#45;&gt;Node1</title>
<path fill="none" stroke="#191970" d="M1310.2064,-448.4425C1275.7083,-437.3833 1234.2736,-424.1004 1204.5699,-414.5781"/>
<polygon fill="#191970" stroke="#191970" points="1205.5643,-411.2215 1194.9732,-411.5017 1203.4274,-417.8874 1205.5643,-411.2215"/>
</g>
<!-- Node8 -->
<g id="node9" class="node">
<title>Node8</title>
<polygon fill="#ffffff" stroke="#bfbfbf" points="1024.8336,-.5 1024.8336,-19.5 1065.8336,-19.5 1065.8336,-.5 1024.8336,-.5"/>
<text text-anchor="middle" x="1045.3336" y="-7.5" font-family="Helvetica,sans-Serif" font-size="10.00" fill="#000000">string</text>
</g>
<!-- Node0&#45;&gt;Node8 -->
<g id="edge75" class="edge">
<title>Node0&#45;&gt;Node8</title>
<path fill="none" stroke="#191970" d="M1463.7274,-448.4748C1547.3086,-426.6141 1659.3336,-389.2471 1659.3336,-346 1659.3336,-346 1659.3336,-346 1659.3336,-122 1659.3336,-58.3885 1593.3482,-73.99 1532.3336,-56 1446.0446,-30.5578 1169.0342,-15.7215 1076.0775,-11.3618"/>
<polygon fill="#191970" stroke="#191970" points="1076.0755,-7.8581 1065.9248,-10.8933 1075.7527,-14.8507 1076.0755,-7.8581"/>
</g>
<!-- Node11 -->
<g id="node12" class="node">
<title>Node11</title>
<polygon fill="#ffffff" stroke="#bfbfbf" points="1057.3336,-112.5 1057.3336,-131.5 1101.3336,-131.5 1101.3336,-112.5 1057.3336,-112.5"/>
<text text-anchor="middle" x="1079.3336" y="-119.5" font-family="Helvetica,sans-Serif" font-size="10.00" fill="#000000">vector</text>
</g>
<!-- Node0&#45;&gt;Node11 -->
<g id="edge76" class="edge">
<title>Node0&#45;&gt;Node11</title>
<path fill="none" stroke="#191970" d="M1417.8021,-448.3634C1463.02,-423.9054 1523.691,-380.7892 1496.3336,-336 1473.8789,-299.2375 1203.2548,-176.871 1110.3828,-135.6725"/>
<polygon fill="#191970" stroke="#191970" points="1111.7703,-132.4592 1101.2095,-131.6109 1108.9363,-138.8598 1111.7703,-132.4592"/>
</g>
<!-- Node21 -->
<g id="node22" class="node">
<title>Node21</title>
<polygon fill="#ffffff" stroke="#bfbfbf" points="273.8336,-112.5 273.8336,-131.5 322.8336,-131.5 322.8336,-112.5 273.8336,-112.5"/>
<text text-anchor="middle" x="298.3336" y="-119.5" font-family="Helvetica,sans-Serif" font-size="10.00" fill="#000000">string.h</text>
</g>
<!-- Node0&#45;&gt;Node21 -->
<g id="edge74" class="edge">
<title>Node0&#45;&gt;Node21</title>
<path fill="none" stroke="#191970" d="M1265.1011,-451.3842C1206.2229,-441.2201 1132.4841,-427.4126 1067.3336,-412 892.6695,-370.6798 847.3738,-363.0666 679.3336,-300 542.4323,-248.6201 386.5368,-168.6831 325.1641,-136.3225"/>
<polygon fill="#191970" stroke="#191970" points="326.619,-133.1325 316.1432,-131.5489 323.345,-139.3197 326.619,-133.1325"/>
</g>
<!-- Node30 -->
<g id="node31" class="node">
<title>Node30</title>
<polygon fill="#ffffff" stroke="#bfbfbf" points="1069.3336,-224.5 1069.3336,-243.5 1121.3336,-243.5 1121.3336,-224.5 1069.3336,-224.5"/>
<text text-anchor="middle" x="1095.3336" y="-231.5" font-family="Helvetica,sans-Serif" font-size="10.00" fill="#000000">assert.h</text>
</g>
<!-- Node0&#45;&gt;Node30 -->
<g id="edge72" class="edge">
<title>Node0&#45;&gt;Node30</title>
<path fill="none" stroke="#191970" d="M1265.0076,-453.4939C1202.5288,-443.1753 1131.3696,-428.5116 1104.3336,-412 1043.521,-374.8603 977.3243,-341.4887 1013.3336,-280 1023.3321,-262.9268 1042.2455,-251.7088 1059.3902,-244.6289"/>
<polygon fill="#191970" stroke="#191970" points="1061.0803,-247.732 1069.1996,-240.9256 1058.6079,-241.1832 1061.0803,-247.732"/>
</g>
<!-- Node34 -->
<g id="node35" class="node">
<title>Node34</title>
<polygon fill="#ffffff" stroke="#bfbfbf" points="1687.3336,-392.5 1687.3336,-411.5 1733.3336,-411.5 1733.3336,-392.5 1687.3336,-392.5"/>
<text text-anchor="middle" x="1710.3336" y="-399.5" font-family="Helvetica,sans-Serif" font-size="10.00" fill="#000000">stdio.h</text>
</g>
<!-- Node0&#45;&gt;Node34 -->
<g id="edge73" class="edge">
<title>Node0&#45;&gt;Node34</title>
<path fill="none" stroke="#191970" d="M1483.3961,-450.254C1540.2342,-439.9686 1610.7626,-426.398 1673.3336,-412 1674.6103,-411.7062 1675.9094,-411.3985 1677.22,-411.0807"/>
<polygon fill="#191970" stroke="#191970" points="1678.4816,-414.3712 1687.3087,-408.5117 1676.7542,-407.5877 1678.4816,-414.3712"/>
</g>
<!-- Node2 -->
<g id="node3" class="node">
<title>Node2</title>
<g id="a_node3"><a xlink:href="../../db/de2/ajatypes_8h.html" target="_top" xlink:title="Declares the most fundamental data types used by NTV2. Since Windows NT was the first principal devel...">
<polygon fill="#ffffff" stroke="#000000" points="830.3336,-56.5 830.3336,-75.5 892.3336,-75.5 892.3336,-56.5 830.3336,-56.5"/>
<text text-anchor="middle" x="861.3336" y="-63.5" font-family="Helvetica,sans-Serif" font-size="10.00" fill="#000000">ajatypes.h</text>
</a>
</g>
</g>
<!-- Node1&#45;&gt;Node2 -->
<g id="edge2" class="edge">
<title>Node1&#45;&gt;Node2</title>
<path fill="none" stroke="#191970" d="M1192.6236,-392.4426C1288.7425,-357.4469 1599.9161,-232.0686 1488.3336,-112 1468.3517,-90.4984 1039.1123,-72.6478 902.6169,-67.4979"/>
<polygon fill="#191970" stroke="#191970" points="902.6813,-63.998 892.5574,-67.1214 902.4194,-70.9931 902.6813,-63.998"/>
</g>
<!-- Node5 -->
<g id="node6" class="node">
<title>Node5</title>
<g id="a_node6"><a xlink:href="../../d6/d0c/ntv2enums_8h.html" target="_top" xlink:title="Enumerations for controlling NTV2 devices. ">
<polygon fill="#ffffff" stroke="#000000" points="182.8336,-112.5 182.8336,-131.5 255.8336,-131.5 255.8336,-112.5 182.8336,-112.5"/>
<text text-anchor="middle" x="219.3336" y="-119.5" font-family="Helvetica,sans-Serif" font-size="10.00" fill="#000000">ntv2enums.h</text>
</a>
</g>
</g>
<!-- Node1&#45;&gt;Node5 -->
<g id="edge5" class="edge">
<title>Node1&#45;&gt;Node5</title>
<path fill="none" stroke="#191970" d="M1112.6735,-397.8317C1044.7445,-391.801 923.2054,-378.7894 821.3336,-356 660.7075,-320.0668 624.0427,-297.3538 468.3336,-244 400.2264,-220.663 380.3504,-220.9402 316.3336,-188 288.1897,-173.5184 258.4732,-152.3001 239.4627,-137.859"/>
<polygon fill="#191970" stroke="#191970" points="241.3434,-134.8898 231.2849,-131.5615 237.0725,-140.4359 241.3434,-134.8898"/>
</g>
<!-- Node1&#45;&gt;Node8 -->
<g id="edge70" class="edge">
<title>Node1&#45;&gt;Node8</title>
<path fill="none" stroke="#191970" d="M1218.0881,-400.1214C1338.1214,-394.4135 1621.3336,-372.2329 1621.3336,-290 1621.3336,-290 1621.3336,-290 1621.3336,-122 1621.3336,-35.1205 1521.9132,-75.8579 1437.3336,-56 1305.2649,-24.9925 1143.0221,-14.433 1076.2628,-11.2393"/>
<polygon fill="#191970" stroke="#191970" points="1076.1719,-7.7316 1066.0227,-10.7722 1075.8528,-14.7243 1076.1719,-7.7316"/>
</g>
<!-- Node9 -->
<g id="node10" class="node">
<title>Node9</title>
<g id="a_node10"><a xlink:href="../../d8/de5/ntv2nubtypes_8h.html" target="_top" xlink:title="Declares data types and structures used in NTV2 &quot;nub&quot; packets. ">
<polygon fill="#ffffff" stroke="#000000" points="1249.8336,-168.5 1249.8336,-187.5 1332.8336,-187.5 1332.8336,-168.5 1249.8336,-168.5"/>
<text text-anchor="middle" x="1291.3336" y="-175.5" font-family="Helvetica,sans-Serif" font-size="10.00" fill="#000000">ntv2nubtypes.h</text>
</a>
</g>
</g>
<!-- Node1&#45;&gt;Node9 -->
<g id="edge10" class="edge">
<title>Node1&#45;&gt;Node9</title>
<path fill="none" stroke="#191970" d="M1180.6701,-392.313C1192.832,-383.9632 1209.5258,-370.9199 1220.3336,-356 1257.3183,-304.9433 1278.4516,-231.9448 1286.936,-197.4614"/>
<polygon fill="#191970" stroke="#191970" points="1290.35,-198.2331 1289.2503,-187.6955 1283.5387,-196.6189 1290.35,-198.2331"/>
</g>
<!-- Node12 -->
<g id="node13" class="node">
<title>Node12</title>
<g id="a_node13"><a xlink:href="../../d6/d8f/ntv2nubaccess_8h.html" target="_top" xlink:title="Declares NTV2 &quot;nub&quot; client functions. ">
<polygon fill="#ffffff" stroke="#000000" points="1119.8336,-336.5 1119.8336,-355.5 1210.8336,-355.5 1210.8336,-336.5 1119.8336,-336.5"/>
<text text-anchor="middle" x="1165.3336" y="-343.5" font-family="Helvetica,sans-Serif" font-size="10.00" fill="#000000">ntv2nubaccess.h</text>
</a>
</g>
</g>
<!-- Node1&#45;&gt;Node12 -->
<g id="edge14" class="edge">
<title>Node1&#45;&gt;Node12</title>
<path fill="none" stroke="#191970" d="M1165.3336,-392.2455C1165.3336,-384.9382 1165.3336,-374.6944 1165.3336,-365.7046"/>
<polygon fill="#191970" stroke="#191970" points="1168.8337,-365.6426 1165.3336,-355.6427 1161.8337,-365.6427 1168.8337,-365.6426"/>
</g>
<!-- Node13 -->
<g id="node14" class="node">
<title>Node13</title>
<g id="a_node14"><a xlink:href="../../d0/d81/ntv2utils_8h.html" target="_top" xlink:title="Declares numerous NTV2 utility functions. ">
<polygon fill="#ffffff" stroke="#000000" points="786.3336,-280.5 786.3336,-299.5 848.3336,-299.5 848.3336,-280.5 786.3336,-280.5"/>
<text text-anchor="middle" x="817.3336" y="-287.5" font-family="Helvetica,sans-Serif" font-size="10.00" fill="#000000">ntv2utils.h</text>
</a>
</g>
</g>
<!-- Node1&#45;&gt;Node13 -->
<g id="edge61" class="edge">
<title>Node1&#45;&gt;Node13</title>
<path fill="none" stroke="#191970" d="M1135.6633,-392.4509C1072.9982,-372.2829 927.1526,-325.3441 856.7498,-302.6857"/>
<polygon fill="#191970" stroke="#191970" points="857.5202,-299.2569 846.9288,-299.5249 855.3756,-305.9203 857.5202,-299.2569"/>
</g>
<!-- Node15 -->
<g id="node16" class="node">
<title>Node15</title>
<g id="a_node16"><a xlink:href="../../d4/dd7/ntv2publicinterface_8h.html" target="_top" xlink:title="Declares enums and structs used by all platform drivers and the SDK. ">
<polygon fill="#ffffff" stroke="#000000" points="593.8336,-168.5 593.8336,-187.5 700.8336,-187.5 700.8336,-168.5 593.8336,-168.5"/>
<text text-anchor="middle" x="647.3336" y="-175.5" font-family="Helvetica,sans-Serif" font-size="10.00" fill="#000000">ntv2publicinterface.h</text>
</a>
</g>
</g>
<!-- Node1&#45;&gt;Node15 -->
<g id="edge60" class="edge">
<title>Node1&#45;&gt;Node15</title>
<path fill="none" stroke="#191970" d="M1120.4875,-392.4514C1080.029,-383.6431 1018.968,-369.8673 966.3336,-356 822.6506,-318.1446 736.0333,-366.0811 651.3336,-244 642.0395,-230.6041 641.8271,-211.7569 643.48,-197.6306"/>
<polygon fill="#191970" stroke="#191970" points="646.9758,-197.9297 645.0676,-187.5081 640.0603,-196.845 646.9758,-197.9297"/>
</g>
<!-- Node25 -->
<g id="node26" class="node">
<title>Node25</title>
<g id="a_node26"><a xlink:href="../../dd/d42/lock_8h.html" target="_top" xlink:title="Declares the AJALock class. ">
<polygon fill="#ffffff" stroke="#000000" points="1021.8336,-280.5 1021.8336,-299.5 1136.8336,-299.5 1136.8336,-280.5 1021.8336,-280.5"/>
<text text-anchor="middle" x="1079.3336" y="-287.5" font-family="Helvetica,sans-Serif" font-size="10.00" fill="#000000">ajabase/system/lock.h</text>
</a>
</g>
</g>
<!-- Node1&#45;&gt;Node25 -->
<g id="edge69" class="edge">
<title>Node1&#45;&gt;Node25</title>
<path fill="none" stroke="#191970" d="M1151.0391,-392.3871C1139.2324,-383.8937 1122.6355,-370.6124 1111.3336,-356 1100.2828,-341.7124 1091.654,-322.9955 1086.1558,-309.1441"/>
<polygon fill="#191970" stroke="#191970" points="1089.3796,-307.7735 1082.5733,-299.6541 1082.8307,-310.2458 1089.3796,-307.7735"/>
</g>
<!-- Node31 -->
<g id="node32" class="node">
<title>Node31</title>
<g id="a_node32"><a xlink:href="../../d8/d0f/ntv2devicefeatures_8h.html" target="_top" xlink:title="Declares device capability functions. ">
<polygon fill="#ffffff" stroke="#000000" points="94.8336,-224.5 94.8336,-243.5 201.8336,-243.5 201.8336,-224.5 94.8336,-224.5"/>
<text text-anchor="middle" x="148.3336" y="-231.5" font-family="Helvetica,sans-Serif" font-size="10.00" fill="#000000">ntv2devicefeatures.h</text>
</a>
</g>
</g>
<!-- Node1&#45;&gt;Node31 -->
<g id="edge62" class="edge">
<title>Node1&#45;&gt;Node31</title>
<path fill="none" stroke="#191970" d="M1112.7129,-401.1801C935.6658,-398.1531 368.38,-386.1767 292.3336,-356 235.7524,-333.5475 185.4561,-279.4314 162.1214,-251.4333"/>
<polygon fill="#191970" stroke="#191970" points="164.8019,-249.1822 155.768,-243.6468 159.3782,-253.6076 164.8019,-249.1822"/>
</g>
<!-- Node33 -->
<g id="node34" class="node">
<title>Node33</title>
<polygon fill="#ffffff" stroke="#bfbfbf" points="1435.8336,-336.5 1435.8336,-355.5 1486.8336,-355.5 1486.8336,-336.5 1435.8336,-336.5"/>
<text text-anchor="middle" x="1461.3336" y="-343.5" font-family="Helvetica,sans-Serif" font-size="10.00" fill="#000000">unistd.h</text>
</g>
<!-- Node1&#45;&gt;Node33 -->
<g id="edge71" class="edge">
<title>Node1&#45;&gt;Node33</title>
<path fill="none" stroke="#191970" d="M1217.9971,-393.5999C1269.8951,-385.0721 1351.3541,-371.0169 1421.3336,-356 1422.7771,-355.6902 1424.2477,-355.3655 1425.7315,-355.0301"/>
<polygon fill="#191970" stroke="#191970" points="1426.6419,-358.4116 1435.5722,-352.7106 1425.0359,-351.5983 1426.6419,-358.4116"/>
</g>
<!-- Node3 -->
<g id="node4" class="node">
<title>Node3</title>
<g id="a_node4"><a xlink:href="../../db/d40/ntv2deprecate_8h.html" target="_top" xlink:title="Deprecation control macros. ">
<polygon fill="#ffffff" stroke="#000000" points="915.3336,-.5 915.3336,-19.5 1001.3336,-19.5 1001.3336,-.5 915.3336,-.5"/>
<text text-anchor="middle" x="958.3336" y="-7.5" font-family="Helvetica,sans-Serif" font-size="10.00" fill="#000000">ntv2deprecate.h</text>
</a>
</g>
</g>
<!-- Node2&#45;&gt;Node3 -->
<g id="edge3" class="edge">
<title>Node2&#45;&gt;Node3</title>
<path fill="none" stroke="#191970" d="M878.2297,-56.2455C893.2516,-47.5731 915.4379,-34.7645 932.6546,-24.825"/>
<polygon fill="#191970" stroke="#191970" points="934.7207,-27.6737 941.6311,-19.6427 931.2208,-21.6114 934.7207,-27.6737"/>
</g>
<!-- Node4 -->
<g id="node5" class="node">
<title>Node4</title>
<polygon fill="#ffffff" stroke="#bfbfbf" points="836.8336,-.5 836.8336,-19.5 885.8336,-19.5 885.8336,-.5 836.8336,-.5"/>
<text text-anchor="middle" x="861.3336" y="-7.5" font-family="Helvetica,sans-Serif" font-size="10.00" fill="#000000">stdint.h</text>
</g>
<!-- Node2&#45;&gt;Node4 -->
<g id="edge4" class="edge">
<title>Node2&#45;&gt;Node4</title>
<path fill="none" stroke="#191970" d="M861.3336,-56.2455C861.3336,-48.9382 861.3336,-38.6944 861.3336,-29.7046"/>
<polygon fill="#191970" stroke="#191970" points="864.8337,-29.6426 861.3336,-19.6427 857.8337,-29.6427 864.8337,-29.6426"/>
</g>
<!-- Node5&#45;&gt;Node2 -->
<g id="edge6" class="edge">
<title>Node5&#45;&gt;Node2</title>
<path fill="none" stroke="#191970" d="M256.0913,-113.3862C258.872,-112.8713 261.6422,-112.4007 264.3336,-112 471.6724,-81.1335 722.7934,-70.3524 820.0724,-67.1659"/>
<polygon fill="#191970" stroke="#191970" points="820.2003,-70.6637 830.0839,-66.8472 819.9776,-63.6673 820.2003,-70.6637"/>
</g>
<!-- Node6 -->
<g id="node7" class="node">
<title>Node6</title>
<g id="a_node7"><a xlink:href="../../d6/db1/ntv2version_8h.html" target="_top" xlink:title="Defines for the NTV2 SDK version number, used by ajantv2/includes/ntv2enums.h. See the ajantv2/includ...">
<polygon fill="#ffffff" stroke="#000000" points="181.8336,-56.5 181.8336,-75.5 256.8336,-75.5 256.8336,-56.5 181.8336,-56.5"/>
<text text-anchor="middle" x="219.3336" y="-63.5" font-family="Helvetica,sans-Serif" font-size="10.00" fill="#000000">ntv2version.h</text>
</a>
</g>
</g>
<!-- Node5&#45;&gt;Node6 -->
<g id="edge7" class="edge">
<title>Node5&#45;&gt;Node6</title>
<path fill="none" stroke="#191970" d="M219.3336,-112.2455C219.3336,-104.9382 219.3336,-94.6944 219.3336,-85.7046"/>
<polygon fill="#191970" stroke="#191970" points="222.8337,-85.6426 219.3336,-75.6427 215.8337,-85.6427 222.8337,-85.6426"/>
</g>
<!-- Node7 -->
<g id="node8" class="node">
<title>Node7</title>
<g id="a_node8"><a xlink:href="../../d6/dd9/ajaexport_8h.html" target="_top" xlink:title="Defines the import/export macros for producing DLLs or LIBs. ">
<polygon fill="#ffffff" stroke="#000000" points="135.8336,-.5 135.8336,-19.5 200.8336,-19.5 200.8336,-.5 135.8336,-.5"/>
<text text-anchor="middle" x="168.3336" y="-7.5" font-family="Helvetica,sans-Serif" font-size="10.00" fill="#000000">ajaexport.h</text>
</a>
</g>
</g>
<!-- Node6&#45;&gt;Node7 -->
<g id="edge8" class="edge">
<title>Node6&#45;&gt;Node7</title>
<path fill="none" stroke="#191970" d="M210.4501,-56.2455C203.137,-48.2155 192.5945,-36.6394 183.8869,-27.0781"/>
<polygon fill="#191970" stroke="#191970" points="186.4364,-24.6795 177.1153,-19.6427 181.2609,-29.3928 186.4364,-24.6795"/>
</g>
<!-- Node6&#45;&gt;Node8 -->
<g id="edge9" class="edge">
<title>Node6&#45;&gt;Node8</title>
<path fill="none" stroke="#191970" d="M257.144,-64.9052C393.925,-60.7728 862.6803,-45.0713 1010.3336,-20 1011.8133,-19.7487 1013.3197,-19.458 1014.8351,-19.1374"/>
<polygon fill="#191970" stroke="#191970" points="1015.9071,-22.478 1024.779,-16.6868 1014.232,-15.6813 1015.9071,-22.478"/>
</g>
<!-- Node10 -->
<g id="node11" class="node">
<title>Node10</title>
<g id="a_node11"><a xlink:href="../../d4/d18/ntv2endian_8h.html" target="_top" xlink:title="Defines a number of handy byte&#45;swapping macros. ">
<polygon fill="#ffffff" stroke="#000000" points="1173.3336,-112.5 1173.3336,-131.5 1245.3336,-131.5 1245.3336,-112.5 1173.3336,-112.5"/>
<text text-anchor="middle" x="1209.3336" y="-119.5" font-family="Helvetica,sans-Serif" font-size="10.00" fill="#000000">ntv2endian.h</text>
</a>
</g>
</g>
<!-- Node9&#45;&gt;Node10 -->
<g id="edge11" class="edge">
<title>Node9&#45;&gt;Node10</title>
<path fill="none" stroke="#191970" d="M1277.0503,-168.2455C1264.5866,-159.7337 1246.2885,-147.2375 1231.8544,-137.3801"/>
<polygon fill="#191970" stroke="#191970" points="1233.6851,-134.392 1223.4532,-131.6427 1229.7374,-140.1726 1233.6851,-134.392"/>
</g>
<!-- Node9&#45;&gt;Node11 -->
<g id="edge13" class="edge">
<title>Node9&#45;&gt;Node11</title>
<path fill="none" stroke="#191970" d="M1251.4918,-168.4571C1214.9097,-159.5437 1159.2731,-145.6059 1111.3336,-132 1111.2356,-131.9722 1111.1375,-131.9443 1111.0392,-131.9163"/>
<polygon fill="#191970" stroke="#191970" points="1112.2503,-128.6247 1101.6682,-129.1443 1110.2647,-135.3372 1112.2503,-128.6247"/>
</g>
<!-- Node10&#45;&gt;Node2 -->
<g id="edge12" class="edge">
<title>Node10&#45;&gt;Node2</title>
<path fill="none" stroke="#191970" d="M1173.0278,-113.7097C1170.0912,-113.107 1167.1657,-112.529 1164.3336,-112 1071.0813,-94.5809 960.7488,-79.1125 902.3608,-71.3269"/>
<polygon fill="#191970" stroke="#191970" points="902.7938,-67.8538 892.4205,-70.0089 901.8736,-74.7931 902.7938,-67.8538"/>
</g>
<!-- Node12&#45;&gt;Node8 -->
<g id="edge57" class="edge">
<title>Node12&#45;&gt;Node8</title>
<path fill="none" stroke="#191970" d="M1208.8595,-336.439C1318.2126,-310.3895 1589.8092,-231.9856 1504.3336,-112 1453.9962,-41.3393 1170.812,-17.699 1076.1517,-11.7105"/>
<polygon fill="#191970" stroke="#191970" points="1076.2661,-8.2111 1066.0714,-11.0951 1075.8395,-15.1981 1076.2661,-8.2111"/>
</g>
<!-- Node12&#45;&gt;Node11 -->
<g id="edge58" class="edge">
<title>Node12&#45;&gt;Node11</title>
<path fill="none" stroke="#191970" d="M1163.197,-336.3108C1158.4477,-315.4018 1146.1722,-264.6527 1130.3336,-224 1118.5898,-193.8572 1101.061,-160.64 1089.9161,-140.5523"/>
<polygon fill="#191970" stroke="#191970" points="1092.8215,-138.578 1084.8726,-131.5734 1086.7184,-142.0062 1092.8215,-138.578"/>
</g>
<!-- Node12&#45;&gt;Node13 -->
<g id="edge15" class="edge">
<title>Node12&#45;&gt;Node13</title>
<path fill="none" stroke="#191970" d="M1119.4808,-338.6214C1051.1559,-327.6266 923.6764,-307.1126 858.3034,-296.5928"/>
<polygon fill="#191970" stroke="#191970" points="858.7924,-293.1266 848.3633,-294.9933 857.6802,-300.0377 858.7924,-293.1266"/>
</g>
<!-- Node18 -->
<g id="node19" class="node">
<title>Node18</title>
<polygon fill="#ffffff" stroke="#bfbfbf" points="1119.8336,-112.5 1119.8336,-131.5 1154.8336,-131.5 1154.8336,-112.5 1119.8336,-112.5"/>
<text text-anchor="middle" x="1137.3336" y="-119.5" font-family="Helvetica,sans-Serif" font-size="10.00" fill="#000000">map</text>
</g>
<!-- Node12&#45;&gt;Node18 -->
<g id="edge59" class="edge">
<title>Node12&#45;&gt;Node18</title>
<path fill="none" stroke="#191970" d="M1169.196,-336.3228C1172.6374,-327.1446 1177.4169,-312.8807 1179.3336,-300 1180.6419,-291.2079 1180.118,-288.8542 1179.3336,-280 1174.8718,-229.632 1174.8267,-216.1332 1159.3336,-168 1156.3254,-158.6543 1151.7946,-148.7726 1147.625,-140.5735"/>
<polygon fill="#191970" stroke="#191970" points="1150.6209,-138.752 1142.8449,-131.5559 1144.4361,-142.0306 1150.6209,-138.752"/>
</g>
<!-- Node12&#45;&gt;Node25 -->
<g id="edge47" class="edge">
<title>Node12&#45;&gt;Node25</title>
<path fill="none" stroke="#191970" d="M1150.3535,-336.2455C1137.1585,-327.6534 1117.7285,-315.0014 1102.5257,-305.1018"/>
<polygon fill="#191970" stroke="#191970" points="1104.4319,-302.1665 1094.142,-299.6427 1100.6121,-308.0325 1104.4319,-302.1665"/>
</g>
<!-- Node13&#45;&gt;Node2 -->
<g id="edge17" class="edge">
<title>Node13&#45;&gt;Node2</title>
<path fill="none" stroke="#191970" d="M825.7769,-280.1675C847.247,-255.1414 902.3103,-190.8011 903.3336,-188 916.8285,-151.059 892.0585,-107.405 875.162,-83.6211"/>
<polygon fill="#191970" stroke="#191970" points="877.9344,-81.4838 869.168,-75.534 872.3107,-85.652 877.9344,-81.4838"/>
</g>
<!-- Node13&#45;&gt;Node5 -->
<g id="edge18" class="edge">
<title>Node13&#45;&gt;Node5</title>
<path fill="none" stroke="#191970" d="M786.1463,-286.1009C710.7581,-276.0323 513.4143,-245.8166 358.3336,-188 340.4507,-181.333 337.4694,-176.4031 320.3336,-168 297.1413,-156.6269 270.5413,-144.5504 250.463,-135.6262"/>
<polygon fill="#191970" stroke="#191970" points="251.7348,-132.3617 241.1738,-131.5154 248.9019,-138.7629 251.7348,-132.3617"/>
</g>
<!-- Node13&#45;&gt;Node7 -->
<g id="edge16" class="edge">
<title>Node13&#45;&gt;Node7</title>
<path fill="none" stroke="#191970" d="M786.2934,-287.5339C667.8321,-277.3982 247.1442,-234.5437 173.3336,-132 151.5533,-101.741 157.3397,-55.4764 163.0955,-29.4801"/>
<polygon fill="#191970" stroke="#191970" points="166.5152,-30.2296 165.4799,-19.6854 159.7138,-28.5738 166.5152,-30.2296"/>
</g>
<!-- Node13&#45;&gt;Node8 -->
<g id="edge44" class="edge">
<title>Node13&#45;&gt;Node8</title>
<path fill="none" stroke="#191970" d="M848.4404,-285.2196C891.3164,-278.0172 965.4332,-263.1625 984.3336,-244 1043.4558,-184.0577 1047.3826,-74.4307 1046.3095,-29.7469"/>
<polygon fill="#191970" stroke="#191970" points="1049.803,-29.4987 1045.9487,-19.6298 1042.8074,-29.7483 1049.803,-29.4987"/>
</g>
<!-- Node13&#45;&gt;Node11 -->
<g id="edge46" class="edge">
<title>Node13&#45;&gt;Node11</title>
<path fill="none" stroke="#191970" d="M848.7043,-282.9612C904.5722,-270.402 1015.6536,-245.3129 1017.3336,-244 1050.7342,-217.8983 1067.6935,-168.9202 1074.905,-141.6312"/>
<polygon fill="#191970" stroke="#191970" points="1078.3571,-142.2502 1077.3482,-131.7035 1071.5599,-140.5774 1078.3571,-142.2502"/>
</g>
<!-- Node14 -->
<g id="node15" class="node">
<title>Node14</title>
<g id="a_node15"><a xlink:href="../../d9/d61/ntv2videodefines_8h.html" target="_top" xlink:title="Declares common video macros and structs used in the SDK. ">
<polygon fill="#ffffff" stroke="#000000" points="796.3336,-168.5 796.3336,-187.5 894.3336,-187.5 894.3336,-168.5 796.3336,-168.5"/>
<text text-anchor="middle" x="845.3336" y="-175.5" font-family="Helvetica,sans-Serif" font-size="10.00" fill="#000000">ntv2videodefines.h</text>
</a>
</g>
</g>
<!-- Node13&#45;&gt;Node14 -->
<g id="edge19" class="edge">
<title>Node13&#45;&gt;Node14</title>
<path fill="none" stroke="#191970" d="M819.7209,-280.4509C824.3083,-262.1013 834.4359,-221.5908 840.4913,-197.3693"/>
<polygon fill="#191970" stroke="#191970" points="843.9224,-198.0752 842.9524,-187.5249 837.1314,-196.3774 843.9224,-198.0752"/>
</g>
<!-- Node13&#45;&gt;Node15 -->
<g id="edge21" class="edge">
<title>Node13&#45;&gt;Node15</title>
<path fill="none" stroke="#191970" d="M786.2664,-284.1621C747.1753,-276.221 683.1102,-261.0371 666.3336,-244 654.3334,-231.8135 649.8159,-212.5633 648.1632,-197.9908"/>
<polygon fill="#191970" stroke="#191970" points="651.6475,-197.6514 647.3813,-187.9534 644.6686,-198.1951 651.6475,-197.6514"/>
</g>
<!-- Node16 -->
<g id="node17" class="node">
<title>Node16</title>
<polygon fill="#ffffff" stroke="#bfbfbf" points="379.3336,-112.5 379.3336,-131.5 433.3336,-131.5 433.3336,-112.5 379.3336,-112.5"/>
<text text-anchor="middle" x="406.3336" y="-119.5" font-family="Helvetica,sans-Serif" font-size="10.00" fill="#000000">iostream</text>
</g>
<!-- Node13&#45;&gt;Node16 -->
<g id="edge45" class="edge">
<title>Node13&#45;&gt;Node16</title>
<path fill="none" stroke="#191970" d="M786.3039,-282.8874C752.625,-274.8253 697.4761,-260.6218 651.3336,-244 594.0604,-223.3686 580.827,-215.1357 526.3336,-188 493.0762,-171.4391 455.7103,-150.5058 431.642,-136.7078"/>
<polygon fill="#191970" stroke="#191970" points="433.2135,-133.5739 422.8009,-131.6171 429.7205,-139.6402 433.2135,-133.5739"/>
</g>
<!-- Node23 -->
<g id="node24" class="node">
<title>Node23</title>
<g id="a_node24"><a xlink:href="../../dc/df4/ntv2formatdescriptor_8h.html" target="_top" xlink:title="Declares the NTV2FormatDescriptor class. ">
<polygon fill="#ffffff" stroke="#000000" points="675.8336,-224.5 675.8336,-243.5 788.8336,-243.5 788.8336,-224.5 675.8336,-224.5"/>
<text text-anchor="middle" x="732.3336" y="-231.5" font-family="Helvetica,sans-Serif" font-size="10.00" fill="#000000">ntv2formatdescriptor.h</text>
</a>
</g>
</g>
<!-- Node13&#45;&gt;Node23 -->
<g id="edge35" class="edge">
<title>Node13&#45;&gt;Node23</title>
<path fill="none" stroke="#191970" d="M802.5277,-280.2455C789.608,-271.7337 770.6405,-259.2375 755.6784,-249.3801"/>
<polygon fill="#191970" stroke="#191970" points="757.246,-246.2216 746.9698,-243.6427 753.3949,-252.067 757.246,-246.2216"/>
</g>
<!-- Node24 -->
<g id="node25" class="node">
<title>Node24</title>
<g id="a_node25"><a xlink:href="../../de/d26/ntv2m31enums_8h.html" target="_top" xlink:title="ntv2m31enums.h">
<polygon fill="#ffffff" stroke="#000000" points="883.3336,-224.5 883.3336,-243.5 975.3336,-243.5 975.3336,-224.5 883.3336,-224.5"/>
<text text-anchor="middle" x="929.3336" y="-231.5" font-family="Helvetica,sans-Serif" font-size="10.00" fill="#000000">ntv2m31enums.h</text>
</a>
</g>
</g>
<!-- Node13&#45;&gt;Node24 -->
<g id="edge43" class="edge">
<title>Node13&#45;&gt;Node24</title>
<path fill="none" stroke="#191970" d="M836.5871,-280.3733C854.4048,-271.4644 881.1083,-258.1127 901.293,-248.0203"/>
<polygon fill="#191970" stroke="#191970" points="902.9523,-251.1038 910.3314,-243.5011 899.8218,-244.8428 902.9523,-251.1038"/>
</g>
<!-- Node14&#45;&gt;Node2 -->
<g id="edge20" class="edge">
<title>Node14&#45;&gt;Node2</title>
<path fill="none" stroke="#191970" d="M847.1976,-168.1531C848.9217,-158.855 851.4888,-144.5101 853.3336,-132 855.5997,-116.6329 857.6941,-99.1831 859.171,-86.0872"/>
<polygon fill="#191970" stroke="#191970" points="862.6814,-86.1847 860.2988,-75.8612 855.7236,-85.4172 862.6814,-86.1847"/>
</g>
<!-- Node15&#45;&gt;Node2 -->
<g id="edge22" class="edge">
<title>Node15&#45;&gt;Node2</title>
<path fill="none" stroke="#191970" d="M651.2872,-168.3153C657.7051,-153.8259 671.7774,-126.6462 692.3336,-112 730.3131,-84.9397 783.4391,-73.7927 819.9339,-69.2042"/>
<polygon fill="#191970" stroke="#191970" points="820.6867,-72.6411 830.2246,-68.0281 819.8918,-65.6863 820.6867,-72.6411"/>
</g>
<!-- Node15&#45;&gt;Node5 -->
<g id="edge23" class="edge">
<title>Node15&#45;&gt;Node5</title>
<path fill="none" stroke="#191970" d="M593.8072,-173.2613C521.4991,-166.486 388.4331,-152.7013 266.0314,-132.1676"/>
<polygon fill="#191970" stroke="#191970" points="266.5565,-128.7068 256.1119,-130.4845 265.3855,-135.6081 266.5565,-128.7068"/>
</g>
<!-- Node15&#45;&gt;Node7 -->
<g id="edge32" class="edge">
<title>Node15&#45;&gt;Node7</title>
<path fill="none" stroke="#191970" d="M596.9419,-168.4674C563.0347,-161.0153 517.8447,-149.0393 480.3336,-132 424.5546,-106.6625 421.6008,-80.2341 365.3336,-56 314.6325,-34.1632 251.9265,-21.8004 211.0703,-15.5098"/>
<polygon fill="#191970" stroke="#191970" points="211.5803,-12.0472 201.1745,-14.0392 210.5514,-18.9712 211.5803,-12.0472"/>
</g>
<!-- Node15&#45;&gt;Node8 -->
<g id="edge28" class="edge">
<title>Node15&#45;&gt;Node8</title>
<path fill="none" stroke="#191970" d="M694.6431,-168.4818C729.7414,-160.6737 778.3982,-148.2629 819.3336,-132 896.9887,-101.149 982.06,-50.0886 1022.0756,-24.9396"/>
<polygon fill="#191970" stroke="#191970" points="1024.0036,-27.8615 1030.5817,-19.5561 1020.26,-21.9466 1024.0036,-27.8615"/>
</g>
<!-- Node15&#45;&gt;Node11 -->
<g id="edge27" class="edge">
<title>Node15&#45;&gt;Node11</title>
<path fill="none" stroke="#191970" d="M701.1732,-171.0208C792.1479,-159.2278 973.5646,-135.7108 1047.1796,-126.1681"/>
<polygon fill="#191970" stroke="#191970" points="1047.7679,-129.6212 1057.235,-124.8646 1046.868,-122.6793 1047.7679,-129.6212"/>
</g>
<!-- Node15&#45;&gt;Node16 -->
<g id="edge24" class="edge">
<title>Node15&#45;&gt;Node16</title>
<path fill="none" stroke="#191970" d="M605.1568,-168.4688C564.6547,-159.276 501.7638,-144.8967 447.3336,-132 446.0904,-131.7054 444.8264,-131.4046 443.5501,-131.0997"/>
<polygon fill="#191970" stroke="#191970" points="444.2102,-127.6587 433.6686,-128.7201 442.5712,-134.4642 444.2102,-127.6587"/>
</g>
<!-- Node17 -->
<g id="node18" class="node">
<title>Node17</title>
<polygon fill="#ffffff" stroke="#bfbfbf" points="615.3336,-112.5 615.3336,-131.5 645.3336,-131.5 645.3336,-112.5 615.3336,-112.5"/>
<text text-anchor="middle" x="630.3336" y="-119.5" font-family="Helvetica,sans-Serif" font-size="10.00" fill="#000000">set</text>
</g>
<!-- Node15&#45;&gt;Node17 -->
<g id="edge25" class="edge">
<title>Node15&#45;&gt;Node17</title>
<path fill="none" stroke="#191970" d="M644.3724,-168.2455C642.1298,-160.8579 638.9759,-150.4689 636.2255,-141.4087"/>
<polygon fill="#191970" stroke="#191970" points="639.5148,-140.1948 633.2608,-131.6427 632.8166,-142.2282 639.5148,-140.1948"/>
</g>
<!-- Node15&#45;&gt;Node18 -->
<g id="edge26" class="edge">
<title>Node15&#45;&gt;Node18</title>
<path fill="none" stroke="#191970" d="M701.0034,-173.4451C807.994,-164.2585 1042.6379,-143.5452 1109.6239,-131.3277"/>
<polygon fill="#191970" stroke="#191970" points="1110.7273,-134.6737 1119.8126,-129.2232 1109.3113,-127.8184 1110.7273,-134.6737"/>
</g>
<!-- Node19 -->
<g id="node20" class="node">
<title>Node19</title>
<polygon fill="#ffffff" stroke="#bfbfbf" points="701.3336,-112.5 701.3336,-131.5 751.3336,-131.5 751.3336,-112.5 701.3336,-112.5"/>
<text text-anchor="middle" x="726.3336" y="-119.5" font-family="Helvetica,sans-Serif" font-size="10.00" fill="#000000">iomanip</text>
</g>
<!-- Node15&#45;&gt;Node19 -->
<g id="edge29" class="edge">
<title>Node15&#45;&gt;Node19</title>
<path fill="none" stroke="#191970" d="M661.0944,-168.2455C672.9888,-159.814 690.3986,-147.4729 704.2421,-137.6598"/>
<polygon fill="#191970" stroke="#191970" points="706.5964,-140.2811 712.7305,-131.6427 702.5482,-134.5704 706.5964,-140.2811"/>
</g>
<!-- Node20 -->
<g id="node21" class="node">
<title>Node20</title>
<polygon fill="#ffffff" stroke="#bfbfbf" points="769.8336,-112.5 769.8336,-131.5 810.8336,-131.5 810.8336,-112.5 769.8336,-112.5"/>
<text text-anchor="middle" x="790.3336" y="-119.5" font-family="Helvetica,sans-Serif" font-size="10.00" fill="#000000">bitset</text>
</g>
<!-- Node15&#45;&gt;Node20 -->
<g id="edge30" class="edge">
<title>Node15&#45;&gt;Node20</title>
<path fill="none" stroke="#191970" d="M671.9162,-168.3733C696.4161,-158.7789 734.0746,-144.0315 760.3244,-133.7519"/>
<polygon fill="#191970" stroke="#191970" points="761.7398,-136.9564 769.775,-130.0509 759.1873,-130.4384 761.7398,-136.9564"/>
</g>
<!-- Node15&#45;&gt;Node21 -->
<g id="edge31" class="edge">
<title>Node15&#45;&gt;Node21</title>
<path fill="none" stroke="#191970" d="M593.5672,-169.3727C521.0868,-157.7426 394.0989,-137.3664 333.0453,-127.5698"/>
<polygon fill="#191970" stroke="#191970" points="333.5627,-124.1081 323.1345,-125.9795 332.4537,-131.0197 333.5627,-124.1081"/>
</g>
<!-- Node22 -->
<g id="node23" class="node">
<title>Node22</title>
<g id="a_node23"><a xlink:href="../../da/df0/ntv2virtualregisters_8h.html" target="_top" xlink:title="Declares enums for virtual registers used in all platform drivers and the SDK. ">
<polygon fill="#ffffff" stroke="#000000" points="489.8336,-112.5 489.8336,-131.5 596.8336,-131.5 596.8336,-112.5 489.8336,-112.5"/>
<text text-anchor="middle" x="543.3336" y="-119.5" font-family="Helvetica,sans-Serif" font-size="10.00" fill="#000000">ntv2virtualregisters.h</text>
</a>
</g>
</g>
<!-- Node15&#45;&gt;Node22 -->
<g id="edge33" class="edge">
<title>Node15&#45;&gt;Node22</title>
<path fill="none" stroke="#191970" d="M629.2182,-168.2455C612.8886,-159.4527 588.6626,-146.4079 570.0997,-136.4125"/>
<polygon fill="#191970" stroke="#191970" points="571.7055,-133.3021 561.2414,-131.6427 568.3868,-139.4654 571.7055,-133.3021"/>
</g>
<!-- Node22&#45;&gt;Node2 -->
<g id="edge34" class="edge">
<title>Node22&#45;&gt;Node2</title>
<path fill="none" stroke="#191970" d="M596.9184,-112.5637C659.9066,-101.4714 763.0658,-83.305 820.1297,-73.256"/>
<polygon fill="#191970" stroke="#191970" points="820.9868,-76.659 830.2282,-71.4777 819.7727,-69.7651 820.9868,-76.659"/>
</g>
<!-- Node23&#45;&gt;Node2 -->
<g id="edge37" class="edge">
<title>Node23&#45;&gt;Node2</title>
<path fill="none" stroke="#191970" d="M733.3253,-224.4241C735.2068,-210.5572 740.4383,-184.7206 754.3336,-168 775.4404,-142.6017 795.2817,-154.6291 819.3336,-132 833.6613,-118.5199 845.2211,-99.1655 852.5585,-84.8995"/>
<polygon fill="#191970" stroke="#191970" points="855.8742,-86.0872 857.1343,-75.5676 849.5891,-83.0054 855.8742,-86.0872"/>
</g>
<!-- Node23&#45;&gt;Node5 -->
<g id="edge38" class="edge">
<title>Node23&#45;&gt;Node5</title>
<path fill="none" stroke="#191970" d="M675.7888,-230.4042C610.0681,-225.224 498.8062,-213.3423 406.3336,-188 384.0444,-181.8916 379.986,-176.0807 358.3336,-168 325.6703,-155.8101 288.1074,-143.478 260.2709,-134.6551"/>
<polygon fill="#191970" stroke="#191970" points="261.0721,-131.2379 250.4825,-131.5701 258.9679,-137.9142 261.0721,-131.2379"/>
</g>
<!-- Node23&#45;&gt;Node7 -->
<g id="edge36" class="edge">
<title>Node23&#45;&gt;Node7</title>
<path fill="none" stroke="#191970" d="M681.5147,-224.4937C639.5454,-216.204 578.5989,-203.1521 526.3336,-188 455.5816,-167.4885 435.4832,-166.3816 370.3336,-132 319.3848,-105.1126 314.9018,-85.3548 265.3336,-56 244.618,-43.732 220.1107,-32.1324 200.9128,-23.6504"/>
<polygon fill="#191970" stroke="#191970" points="202.2467,-20.4138 191.6808,-19.63 199.4517,-26.8316 202.2467,-20.4138"/>
</g>
<!-- Node23&#45;&gt;Node8 -->
<g id="edge40" class="edge">
<title>Node23&#45;&gt;Node8</title>
<path fill="none" stroke="#191970" d="M738.4575,-224.4413C747.7014,-210.5959 766.3802,-184.7856 787.3336,-168 804.7861,-154.0189 947.6947,-88.3552 966.3336,-76 988.706,-61.17 1012.0183,-41.0246 1027.4675,-26.9049"/>
<polygon fill="#191970" stroke="#191970" points="1030.2298,-29.1169 1035.1856,-19.7525 1025.4718,-23.9825 1030.2298,-29.1169"/>
</g>
<!-- Node23&#45;&gt;Node11 -->
<g id="edge42" class="edge">
<title>Node23&#45;&gt;Node11</title>
<path fill="none" stroke="#191970" d="M772.0404,-224.468C806.9007,-215.8272 858.8429,-202.2898 903.3336,-188 954.3765,-171.6058 1012.3879,-149.0729 1047.4036,-135.0315"/>
<polygon fill="#191970" stroke="#191970" points="1049.1048,-138.1195 1057.072,-131.1356 1046.4885,-131.6268 1049.1048,-138.1195"/>
</g>
<!-- Node23&#45;&gt;Node15 -->
<g id="edge39" class="edge">
<title>Node23&#45;&gt;Node15</title>
<path fill="none" stroke="#191970" d="M717.5277,-224.2455C704.608,-215.7337 685.6405,-203.2375 670.6784,-193.3801"/>
<polygon fill="#191970" stroke="#191970" points="672.246,-190.2216 661.9698,-187.6427 668.3949,-196.067 672.246,-190.2216"/>
</g>
<!-- Node23&#45;&gt;Node16 -->
<g id="edge41" class="edge">
<title>Node23&#45;&gt;Node16</title>
<path fill="none" stroke="#191970" d="M699.8359,-224.4472C669.7411,-215.4712 623.8131,-201.4437 584.3336,-188 533.8564,-170.8113 476.0863,-148.9877 440.4025,-135.2529"/>
<polygon fill="#191970" stroke="#191970" points="441.5374,-131.9394 430.9479,-131.6041 439.017,-138.4699 441.5374,-131.9394"/>
</g>
<!-- Node26 -->
<g id="node27" class="node">
<title>Node26</title>
<g id="a_node27"><a xlink:href="../../d4/d79/public_8h.html" target="_top" xlink:title="Master header for the ajabase library. ">
<polygon fill="#ffffff" stroke="#000000" points="1351.3336,-168.5 1351.3336,-187.5 1479.3336,-187.5 1479.3336,-168.5 1351.3336,-168.5"/>
<text text-anchor="middle" x="1415.3336" y="-175.5" font-family="Helvetica,sans-Serif" font-size="10.00" fill="#000000">ajabase/common/public.h</text>
</a>
</g>
</g>
<!-- Node25&#45;&gt;Node26 -->
<g id="edge48" class="edge">
<title>Node25&#45;&gt;Node26</title>
<path fill="none" stroke="#191970" d="M1107.9808,-280.4509C1168.361,-260.3242 1308.7247,-213.5363 1376.8578,-190.8253"/>
<polygon fill="#191970" stroke="#191970" points="1378.3789,-194.0076 1386.7589,-187.5249 1376.1653,-187.3668 1378.3789,-194.0076"/>
</g>
<!-- Node25&#45;&gt;Node30 -->
<g id="edge56" class="edge">
<title>Node25&#45;&gt;Node30</title>
<path fill="none" stroke="#191970" d="M1082.1206,-280.2455C1084.2313,-272.8579 1087.1996,-262.4689 1089.7883,-253.4087"/>
<polygon fill="#191970" stroke="#191970" points="1093.1966,-254.2195 1092.5786,-243.6427 1086.4659,-252.2964 1093.1966,-254.2195"/>
</g>
<!-- Node26&#45;&gt;Node8 -->
<g id="edge50" class="edge">
<title>Node26&#45;&gt;Node8</title>
<path fill="none" stroke="#191970" d="M1415.8855,-168.469C1416.191,-154.6581 1414.8479,-128.8904 1402.3336,-112 1370.848,-69.5042 1347.278,-73.401 1297.3336,-56 1220.4168,-29.2017 1124.5748,-17.2034 1076.2551,-12.5448"/>
<polygon fill="#191970" stroke="#191970" points="1076.4154,-9.0448 1066.136,-11.6106 1075.7718,-16.0152 1076.4154,-9.0448"/>
</g>
<!-- Node26&#45;&gt;Node11 -->
<g id="edge52" class="edge">
<title>Node26&#45;&gt;Node11</title>
<path fill="none" stroke="#191970" d="M1351.1802,-168.826C1268.9416,-156.983 1134.1876,-137.2675 1111.3336,-132 1111.2343,-131.9771 1111.1349,-131.9541 1111.0354,-131.9309"/>
<polygon fill="#191970" stroke="#191970" points="1112.1565,-128.6072 1101.594,-129.4333 1110.3663,-135.3744 1112.1565,-128.6072"/>
</g>
<!-- Node26&#45;&gt;Node18 -->
<g id="edge53" class="edge">
<title>Node26&#45;&gt;Node18</title>
<path fill="none" stroke="#191970" d="M1356.6611,-168.4576C1298.4993,-158.7973 1212.4613,-143.9186 1164.7632,-131.6609"/>
<polygon fill="#191970" stroke="#191970" points="1165.475,-128.228 1154.909,-129.008 1163.6553,-134.9873 1165.475,-128.228"/>
</g>
<!-- Node27 -->
<g id="node28" class="node">
<title>Node27</title>
<g id="a_node28"><a xlink:href="../../db/db5/export_8h.html" target="_top" xlink:title="Declares system&#45;dependent import/export macros and libraries. ">
<polygon fill="#ffffff" stroke="#000000" points="1263.8336,-112.5 1263.8336,-131.5 1392.8336,-131.5 1392.8336,-112.5 1263.8336,-112.5"/>
<text text-anchor="middle" x="1328.3336" y="-119.5" font-family="Helvetica,sans-Serif" font-size="10.00" fill="#000000">ajabase/common/export.h</text>
</a>
</g>
</g>
<!-- Node26&#45;&gt;Node27 -->
<g id="edge49" class="edge">
<title>Node26&#45;&gt;Node27</title>
<path fill="none" stroke="#191970" d="M1400.1794,-168.2455C1386.8309,-159.6534 1367.175,-147.0014 1351.7953,-137.1018"/>
<polygon fill="#191970" stroke="#191970" points="1353.6172,-134.1121 1343.3142,-131.6427 1349.8285,-139.9982 1353.6172,-134.1121"/>
</g>
<!-- Node28 -->
<g id="node29" class="node">
<title>Node28</title>
<polygon fill="#ffffff" stroke="#bfbfbf" points="1449.8336,-112.5 1449.8336,-131.5 1478.8336,-131.5 1478.8336,-112.5 1449.8336,-112.5"/>
<text text-anchor="middle" x="1464.3336" y="-119.5" font-family="Helvetica,sans-Serif" font-size="10.00" fill="#000000">list</text>
</g>
<!-- Node26&#45;&gt;Node28 -->
<g id="edge51" class="edge">
<title>Node26&#45;&gt;Node28</title>
<path fill="none" stroke="#191970" d="M1423.8687,-168.2455C1430.8248,-160.2958 1440.8219,-148.8706 1449.1387,-139.3656"/>
<polygon fill="#191970" stroke="#191970" points="1451.9452,-141.4732 1455.8963,-131.6427 1446.6772,-136.8637 1451.9452,-141.4732"/>
</g>
<!-- Node29 -->
<g id="node30" class="node">
<title>Node29</title>
<g id="a_node30"><a xlink:href="../../d9/d49/types_8h.html" target="_top" xlink:title="Declares common types used in the ajabase library. ">
<polygon fill="#ffffff" stroke="#000000" points="1162.3336,-56.5 1162.3336,-75.5 1288.3336,-75.5 1288.3336,-56.5 1162.3336,-56.5"/>
<text text-anchor="middle" x="1225.3336" y="-63.5" font-family="Helvetica,sans-Serif" font-size="10.00" fill="#000000">ajabase/common/types.h</text>
</a>
</g>
</g>
<!-- Node26&#45;&gt;Node29 -->
<g id="edge54" class="edge">
<title>Node26&#45;&gt;Node29</title>
<path fill="none" stroke="#191970" d="M1440.3491,-168.4012C1468.2435,-156.3017 1507.1288,-134.3679 1488.3336,-112 1464.4949,-83.6299 1367.8445,-72.754 1298.6314,-68.5864"/>
<polygon fill="#191970" stroke="#191970" points="1298.8129,-65.0912 1288.6307,-68.0189 1298.4163,-72.0799 1298.8129,-65.0912"/>
</g>
<!-- Node29&#45;&gt;Node3 -->
<g id="edge55" class="edge">
<title>Node29&#45;&gt;Node3</title>
<path fill="none" stroke="#191970" d="M1179.738,-56.4369C1133.0583,-46.6464 1060.5666,-31.4421 1011.354,-21.1204"/>
<polygon fill="#191970" stroke="#191970" points="1012.0358,-17.6873 1001.5303,-19.06 1010.5988,-24.5382 1012.0358,-17.6873"/>
</g>
<!-- Node31&#45;&gt;Node2 -->
<g id="edge64" class="edge">
<title>Node31&#45;&gt;Node2</title>
<path fill="none" stroke="#191970" d="M146.8532,-224.1894C143.9236,-200.6655 140.2709,-140.865 173.3336,-112 197.7749,-90.6618 674.355,-72.4708 819.646,-67.4029"/>
<polygon fill="#191970" stroke="#191970" points="820.0462,-70.8913 829.9191,-67.0473 819.8039,-63.8955 820.0462,-70.8913"/>
</g>
<!-- Node31&#45;&gt;Node5 -->
<g id="edge65" class="edge">
<title>Node31&#45;&gt;Node5</title>
<path fill="none" stroke="#191970" d="M154.387,-224.4509C166.229,-205.7707 192.6301,-164.1238 207.8746,-140.0761"/>
<polygon fill="#191970" stroke="#191970" points="210.8974,-141.8448 213.2955,-131.5249 204.9853,-138.0969 210.8974,-141.8448"/>
</g>
<!-- Node31&#45;&gt;Node7 -->
<g id="edge63" class="edge">
<title>Node31&#45;&gt;Node7</title>
<path fill="none" stroke="#191970" d="M97.3326,-224.4369C60.2809,-216.3317 14.7199,-203.5578 3.3336,-188 -1.9162,-180.827 .4987,-176.4247 3.3336,-168 23.2632,-108.7733 41.4243,-97.2856 88.3336,-56 102.8746,-43.2023 121.5251,-32.2324 137.1598,-24.2184"/>
<polygon fill="#191970" stroke="#191970" points="139.0341,-27.1959 146.4413,-19.6206 135.9268,-20.9233 139.0341,-27.1959"/>
</g>
<!-- Node32 -->
<g id="node33" class="node">
<title>Node32</title>
<g id="a_node33"><a xlink:href="../../d9/dfb/ntv2devicefeatures_8hh.html" target="_top" xlink:title="Declares NTV2DeviceCanDo... and NTV2DeviceGetNum... functions. This module is included at compile tim...">
<polygon fill="#ffffff" stroke="#000000" points="12.8336,-168.5 12.8336,-187.5 125.8336,-187.5 125.8336,-168.5 12.8336,-168.5"/>
<text text-anchor="middle" x="69.3336" y="-175.5" font-family="Helvetica,sans-Serif" font-size="10.00" fill="#000000">ntv2devicefeatures.hh</text>
</a>
</g>
</g>
<!-- Node31&#45;&gt;Node32 -->
<g id="edge66" class="edge">
<title>Node31&#45;&gt;Node32</title>
<path fill="none" stroke="#191970" d="M134.5729,-224.2455C122.6784,-215.814 105.2686,-203.4729 91.4251,-193.6598"/>
<polygon fill="#191970" stroke="#191970" points="93.119,-190.5704 82.9367,-187.6427 89.0708,-196.2811 93.119,-190.5704"/>
</g>
<!-- Node32&#45;&gt;Node5 -->
<g id="edge68" class="edge">
<title>Node32&#45;&gt;Node5</title>
<path fill="none" stroke="#191970" d="M95.1195,-168.3733C119.7383,-159.1822 157.0236,-145.2624 184.3211,-135.0713"/>
<polygon fill="#191970" stroke="#191970" points="185.7399,-138.2777 193.8842,-131.5011 183.2916,-131.7198 185.7399,-138.2777"/>
</g>
<!-- Node32&#45;&gt;Node7 -->
<g id="edge67" class="edge">
<title>Node32&#45;&gt;Node7</title>
<path fill="none" stroke="#191970" d="M69.755,-168.1926C71.1442,-146.1647 77.0814,-91.8899 102.3336,-56 111.5171,-42.9478 125.6516,-32.3828 138.4877,-24.685"/>
<polygon fill="#191970" stroke="#191970" points="140.5256,-27.5539 147.5155,-19.592 137.0861,-21.4572 140.5256,-27.5539"/>
</g>
</g>
</svg>
