<?xml version="1.0" encoding="UTF-8" standalone="no"?>
<!DOCTYPE svg PUBLIC "-//W3C//DTD SVG 1.1//EN"
 "http://www.w3.org/Graphics/SVG/1.1/DTD/svg11.dtd">
<!-- Generated by graphviz version 2.40.1 (0)
 -->
<!-- Title: /home/tcbuilder/buildAgent/work/df8e8cce5bebfd58/libajantv2/ajabase/common/buffer.cpp Pages: 1 -->
<svg width="647pt" height="274pt"
 viewBox="0.00 0.00 646.50 274.00" xmlns="http://www.w3.org/2000/svg" xmlns:xlink="http://www.w3.org/1999/xlink">
<g id="graph0" class="graph" transform="scale(1 1) rotate(0) translate(4 270)">
<title>/home/tcbuilder/buildAgent/work/df8e8cce5bebfd58/libajantv2/ajabase/common/buffer.cpp</title>
<polygon fill="#ffffff" stroke="transparent" points="-4,4 -4,-270 642.5,-270 642.5,4 -4,4"/>
<!-- Node0 -->
<g id="node1" class="node">
<title>Node0</title>
<polygon fill="#bfbfbf" stroke="#000000" points="274,-224.5 274,-265.5 441,-265.5 441,-224.5 274,-224.5"/>
<text text-anchor="start" x="282" y="-253.5" font-family="Helvetica,sans-Serif" font-size="10.00" fill="#000000">/home/tcbuilder/buildAgent</text>
<text text-anchor="start" x="282" y="-242.5" font-family="Helvetica,sans-Serif" font-size="10.00" fill="#000000">/work/df8e8cce5bebfd58/libajantv2</text>
<text text-anchor="middle" x="357.5" y="-231.5" font-family="Helvetica,sans-Serif" font-size="10.00" fill="#000000">/ajabase/common/buffer.cpp</text>
</g>
<!-- Node1 -->
<g id="node2" class="node">
<title>Node1</title>
<g id="a_node2"><a xlink:href="../../d5/d08/buffer_8h.html" target="_top" xlink:title="Implementation of AJABuffer class. ">
<polygon fill="#ffffff" stroke="#000000" points="153.5,-168.5 153.5,-187.5 201.5,-187.5 201.5,-168.5 153.5,-168.5"/>
<text text-anchor="middle" x="177.5" y="-175.5" font-family="Helvetica,sans-Serif" font-size="10.00" fill="#000000">buffer.h</text>
</a>
</g>
</g>
<!-- Node0&#45;&gt;Node1 -->
<g id="edge1" class="edge">
<title>Node0&#45;&gt;Node1</title>
<path fill="none" stroke="#191970" d="M302.0253,-224.3511C272.2966,-213.2854 236.6441,-200.0148 211.1204,-190.5143"/>
<polygon fill="#191970" stroke="#191970" points="212.1219,-187.1525 201.5291,-186.9442 209.68,-193.7128 212.1219,-187.1525"/>
</g>
<!-- Node10 -->
<g id="node11" class="node">
<title>Node10</title>
<g id="a_node11"><a xlink:href="../../dc/d18/memory_8h.html" target="_top" xlink:title="Declares the AJAMemory class. ">
<polygon fill="#ffffff" stroke="#000000" points="220,-168.5 220,-187.5 351,-187.5 351,-168.5 220,-168.5"/>
<text text-anchor="middle" x="285.5" y="-175.5" font-family="Helvetica,sans-Serif" font-size="10.00" fill="#000000">ajabase/system/memory.h</text>
</a>
</g>
</g>
<!-- Node0&#45;&gt;Node10 -->
<g id="edge10" class="edge">
<title>Node0&#45;&gt;Node10</title>
<path fill="none" stroke="#191970" d="M335.1134,-224.168C324.9222,-214.6846 313.0241,-203.6127 303.4345,-194.689"/>
<polygon fill="#191970" stroke="#191970" points="305.7154,-192.0306 296.0104,-187.7805 300.9468,-197.1551 305.7154,-192.0306"/>
</g>
<!-- Node11 -->
<g id="node12" class="node">
<title>Node11</title>
<g id="a_node12"><a xlink:href="../../db/d16/debug_8h.html" target="_top" xlink:title="Declares the AJADebug class. ">
<polygon fill="#ffffff" stroke="#000000" points="369,-168.5 369,-187.5 492,-187.5 492,-168.5 369,-168.5"/>
<text text-anchor="middle" x="430.5" y="-175.5" font-family="Helvetica,sans-Serif" font-size="10.00" fill="#000000">ajabase/system/debug.h</text>
</a>
</g>
</g>
<!-- Node0&#45;&gt;Node11 -->
<g id="edge12" class="edge">
<title>Node0&#45;&gt;Node11</title>
<path fill="none" stroke="#191970" d="M380.1975,-224.168C390.5302,-214.6846 402.5936,-203.6127 412.3164,-194.689"/>
<polygon fill="#191970" stroke="#191970" points="414.8429,-197.1209 419.8437,-187.7805 410.1096,-191.9637 414.8429,-197.1209"/>
</g>
<!-- Node18 -->
<g id="node19" class="node">
<title>Node18</title>
<polygon fill="#ffffff" stroke="#bfbfbf" points="510,-168.5 510,-187.5 559,-187.5 559,-168.5 510,-168.5"/>
<text text-anchor="middle" x="534.5" y="-175.5" font-family="Helvetica,sans-Serif" font-size="10.00" fill="#000000">string.h</text>
</g>
<!-- Node0&#45;&gt;Node18 -->
<g id="edge23" class="edge">
<title>Node0&#45;&gt;Node18</title>
<path fill="none" stroke="#191970" d="M412.0501,-224.3511C440.9246,-213.4212 475.4822,-200.3401 500.5116,-190.8657"/>
<polygon fill="#191970" stroke="#191970" points="501.8265,-194.1104 509.9398,-187.2968 499.3483,-187.5637 501.8265,-194.1104"/>
</g>
<!-- Node2 -->
<g id="node3" class="node">
<title>Node2</title>
<g id="a_node3"><a xlink:href="../../d4/d79/public_8h.html" target="_top" xlink:title="Master header for the ajabase library. ">
<polygon fill="#ffffff" stroke="#000000" points="240.5,-112.5 240.5,-131.5 290.5,-131.5 290.5,-112.5 240.5,-112.5"/>
<text text-anchor="middle" x="265.5" y="-119.5" font-family="Helvetica,sans-Serif" font-size="10.00" fill="#000000">public.h</text>
</a>
</g>
</g>
<!-- Node1&#45;&gt;Node2 -->
<g id="edge2" class="edge">
<title>Node1&#45;&gt;Node2</title>
<path fill="none" stroke="#191970" d="M192.8284,-168.2455C206.3303,-159.6534 226.2122,-147.0014 241.7686,-137.1018"/>
<polygon fill="#191970" stroke="#191970" points="243.7897,-139.9643 250.3472,-131.6427 240.0315,-134.0587 243.7897,-139.9643"/>
</g>
<!-- Node3 -->
<g id="node4" class="node">
<title>Node3</title>
<g id="a_node4"><a xlink:href="../../db/db5/export_8h.html" target="_top" xlink:title="Declares system&#45;dependent import/export macros and libraries. ">
<polygon fill="#ffffff" stroke="#000000" points="367,-56.5 367,-75.5 496,-75.5 496,-56.5 367,-56.5"/>
<text text-anchor="middle" x="431.5" y="-63.5" font-family="Helvetica,sans-Serif" font-size="10.00" fill="#000000">ajabase/common/export.h</text>
</a>
</g>
</g>
<!-- Node2&#45;&gt;Node3 -->
<g id="edge3" class="edge">
<title>Node2&#45;&gt;Node3</title>
<path fill="none" stroke="#191970" d="M290.7118,-113.4948C318.047,-104.2733 361.9835,-89.4513 393.5055,-78.8174"/>
<polygon fill="#191970" stroke="#191970" points="394.9104,-82.0374 403.2669,-75.5244 392.6728,-75.4046 394.9104,-82.0374"/>
</g>
<!-- Node4 -->
<g id="node5" class="node">
<title>Node4</title>
<polygon fill="#ffffff" stroke="#bfbfbf" points="245,-56.5 245,-75.5 286,-75.5 286,-56.5 245,-56.5"/>
<text text-anchor="middle" x="265.5" y="-63.5" font-family="Helvetica,sans-Serif" font-size="10.00" fill="#000000">string</text>
</g>
<!-- Node2&#45;&gt;Node4 -->
<g id="edge4" class="edge">
<title>Node2&#45;&gt;Node4</title>
<path fill="none" stroke="#191970" d="M265.5,-112.2455C265.5,-104.9382 265.5,-94.6944 265.5,-85.7046"/>
<polygon fill="#191970" stroke="#191970" points="269.0001,-85.6426 265.5,-75.6427 262.0001,-85.6427 269.0001,-85.6426"/>
</g>
<!-- Node5 -->
<g id="node6" class="node">
<title>Node5</title>
<polygon fill="#ffffff" stroke="#bfbfbf" points="198,-56.5 198,-75.5 227,-75.5 227,-56.5 198,-56.5"/>
<text text-anchor="middle" x="212.5" y="-63.5" font-family="Helvetica,sans-Serif" font-size="10.00" fill="#000000">list</text>
</g>
<!-- Node2&#45;&gt;Node5 -->
<g id="edge5" class="edge">
<title>Node2&#45;&gt;Node5</title>
<path fill="none" stroke="#191970" d="M256.2681,-112.2455C248.6683,-104.2155 237.7123,-92.6394 228.6632,-83.0781"/>
<polygon fill="#191970" stroke="#191970" points="231.042,-80.4998 221.6261,-75.6427 225.9579,-85.3115 231.042,-80.4998"/>
</g>
<!-- Node6 -->
<g id="node7" class="node">
<title>Node6</title>
<polygon fill="#ffffff" stroke="#bfbfbf" points="304.5,-56.5 304.5,-75.5 348.5,-75.5 348.5,-56.5 304.5,-56.5"/>
<text text-anchor="middle" x="326.5" y="-63.5" font-family="Helvetica,sans-Serif" font-size="10.00" fill="#000000">vector</text>
</g>
<!-- Node2&#45;&gt;Node6 -->
<g id="edge6" class="edge">
<title>Node2&#45;&gt;Node6</title>
<path fill="none" stroke="#191970" d="M276.1254,-112.2455C285.0473,-104.0549 297.988,-92.1749 308.5192,-82.5069"/>
<polygon fill="#191970" stroke="#191970" points="310.9968,-84.9837 315.9964,-75.6427 306.2629,-79.8271 310.9968,-84.9837"/>
</g>
<!-- Node7 -->
<g id="node8" class="node">
<title>Node7</title>
<polygon fill="#ffffff" stroke="#bfbfbf" points="0,-56.5 0,-75.5 35,-75.5 35,-56.5 0,-56.5"/>
<text text-anchor="middle" x="17.5" y="-63.5" font-family="Helvetica,sans-Serif" font-size="10.00" fill="#000000">map</text>
</g>
<!-- Node2&#45;&gt;Node7 -->
<g id="edge7" class="edge">
<title>Node2&#45;&gt;Node7</title>
<path fill="none" stroke="#191970" d="M240.3458,-118.0259C200.7148,-111.496 121.239,-97.3148 44.8712,-75.7529"/>
<polygon fill="#191970" stroke="#191970" points="45.6704,-72.341 35.0929,-72.9458 43.7389,-79.0693 45.6704,-72.341"/>
</g>
<!-- Node8 -->
<g id="node9" class="node">
<title>Node8</title>
<g id="a_node9"><a xlink:href="../../d9/d49/types_8h.html" target="_top" xlink:title="Declares common types used in the ajabase library. ">
<polygon fill="#ffffff" stroke="#000000" points="53.5,-56.5 53.5,-75.5 179.5,-75.5 179.5,-56.5 53.5,-56.5"/>
<text text-anchor="middle" x="116.5" y="-63.5" font-family="Helvetica,sans-Serif" font-size="10.00" fill="#000000">ajabase/common/types.h</text>
</a>
</g>
</g>
<!-- Node2&#45;&gt;Node8 -->
<g id="edge8" class="edge">
<title>Node2&#45;&gt;Node8</title>
<path fill="none" stroke="#191970" d="M240.2242,-112.5004C215.8217,-103.329 178.6658,-89.3643 151.4393,-79.1316"/>
<polygon fill="#191970" stroke="#191970" points="152.4919,-75.7882 141.8998,-75.5462 150.0292,-82.3407 152.4919,-75.7882"/>
</g>
<!-- Node9 -->
<g id="node10" class="node">
<title>Node9</title>
<g id="a_node10"><a xlink:href="../../db/d40/ntv2deprecate_8h.html" target="_top" xlink:title="Deprecation control macros. ">
<polygon fill="#ffffff" stroke="#000000" points="73.5,-.5 73.5,-19.5 159.5,-19.5 159.5,-.5 73.5,-.5"/>
<text text-anchor="middle" x="116.5" y="-7.5" font-family="Helvetica,sans-Serif" font-size="10.00" fill="#000000">ntv2deprecate.h</text>
</a>
</g>
</g>
<!-- Node8&#45;&gt;Node9 -->
<g id="edge9" class="edge">
<title>Node8&#45;&gt;Node9</title>
<path fill="none" stroke="#191970" d="M116.5,-56.2455C116.5,-48.9382 116.5,-38.6944 116.5,-29.7046"/>
<polygon fill="#191970" stroke="#191970" points="120.0001,-29.6426 116.5,-19.6427 113.0001,-29.6427 120.0001,-29.6426"/>
</g>
<!-- Node10&#45;&gt;Node2 -->
<g id="edge11" class="edge">
<title>Node10&#45;&gt;Node2</title>
<path fill="none" stroke="#191970" d="M282.0163,-168.2455C279.3492,-160.7776 275.5867,-150.2427 272.3263,-141.1137"/>
<polygon fill="#191970" stroke="#191970" points="275.6033,-139.8829 268.9438,-131.6427 269.0111,-142.2373 275.6033,-139.8829"/>
</g>
<!-- Node11&#45;&gt;Node2 -->
<g id="edge16" class="edge">
<title>Node11&#45;&gt;Node2</title>
<path fill="none" stroke="#191970" d="M402.1355,-168.3733C373.9067,-158.7926 330.5382,-144.0736 300.2557,-133.7959"/>
<polygon fill="#191970" stroke="#191970" points="301.1228,-130.3941 290.5284,-130.4945 298.873,-137.0228 301.1228,-130.3941"/>
</g>
<!-- Node12 -->
<g id="node13" class="node">
<title>Node12</title>
<polygon fill="#ffffff" stroke="#bfbfbf" points="522.5,-112.5 522.5,-131.5 568.5,-131.5 568.5,-112.5 522.5,-112.5"/>
<text text-anchor="middle" x="545.5" y="-119.5" font-family="Helvetica,sans-Serif" font-size="10.00" fill="#000000">stdio.h</text>
</g>
<!-- Node11&#45;&gt;Node12 -->
<g id="edge13" class="edge">
<title>Node11&#45;&gt;Node12</title>
<path fill="none" stroke="#191970" d="M450.2692,-168.3733C468.6469,-159.4241 496.2312,-145.9917 516.9893,-135.8835"/>
<polygon fill="#191970" stroke="#191970" points="518.5304,-139.026 525.9888,-131.5011 515.4657,-132.7325 518.5304,-139.026"/>
</g>
<!-- Node13 -->
<g id="node14" class="node">
<title>Node13</title>
<polygon fill="#ffffff" stroke="#bfbfbf" points="586.5,-112.5 586.5,-131.5 638.5,-131.5 638.5,-112.5 586.5,-112.5"/>
<text text-anchor="middle" x="612.5" y="-119.5" font-family="Helvetica,sans-Serif" font-size="10.00" fill="#000000">sstream</text>
</g>
<!-- Node11&#45;&gt;Node13 -->
<g id="edge14" class="edge">
<title>Node11&#45;&gt;Node13</title>
<path fill="none" stroke="#191970" d="M461.7869,-168.3733C493.6555,-158.5676 543.0171,-143.3793 576.4926,-133.0792"/>
<polygon fill="#191970" stroke="#191970" points="577.8061,-136.3371 586.3346,-130.0509 575.7474,-129.6466 577.8061,-136.3371"/>
</g>
<!-- Node14 -->
<g id="node15" class="node">
<title>Node14</title>
<polygon fill="#ffffff" stroke="#bfbfbf" points="308.5,-112.5 308.5,-131.5 338.5,-131.5 338.5,-112.5 308.5,-112.5"/>
<text text-anchor="middle" x="323.5" y="-119.5" font-family="Helvetica,sans-Serif" font-size="10.00" fill="#000000">set</text>
</g>
<!-- Node11&#45;&gt;Node14 -->
<g id="edge15" class="edge">
<title>Node11&#45;&gt;Node14</title>
<path fill="none" stroke="#191970" d="M411.862,-168.2455C394.0584,-158.9278 367.1318,-144.8354 347.6832,-134.6566"/>
<polygon fill="#191970" stroke="#191970" points="349.2921,-131.5483 338.8092,-130.0123 346.0461,-137.7503 349.2921,-131.5483"/>
</g>
<!-- Node15 -->
<g id="node16" class="node">
<title>Node15</title>
<g id="a_node16"><a xlink:href="../../d0/db4/debugshare_8h.html" target="_top" xlink:title="Declares the constants used for sharing debug messages. These structures are used to gather debug mes...">
<polygon fill="#ffffff" stroke="#000000" points="357,-112.5 357,-131.5 504,-131.5 504,-112.5 357,-112.5"/>
<text text-anchor="middle" x="430.5" y="-119.5" font-family="Helvetica,sans-Serif" font-size="10.00" fill="#000000">ajabase/system/debugshare.h</text>
</a>
</g>
</g>
<!-- Node11&#45;&gt;Node15 -->
<g id="edge17" class="edge">
<title>Node11&#45;&gt;Node15</title>
<path fill="none" stroke="#191970" d="M430.5,-168.2455C430.5,-160.9382 430.5,-150.6944 430.5,-141.7046"/>
<polygon fill="#191970" stroke="#191970" points="434.0001,-141.6426 430.5,-131.6427 427.0001,-141.6427 434.0001,-141.6426"/>
</g>
<!-- Node15&#45;&gt;Node3 -->
<g id="edge18" class="edge">
<title>Node15&#45;&gt;Node3</title>
<path fill="none" stroke="#191970" d="M430.6742,-112.2455C430.8047,-104.9382 430.9876,-94.6944 431.1481,-85.7046"/>
<polygon fill="#191970" stroke="#191970" points="434.6486,-85.7036 431.3278,-75.6427 427.6497,-85.5786 434.6486,-85.7036"/>
</g>
<!-- Node15&#45;&gt;Node4 -->
<g id="edge21" class="edge">
<title>Node15&#45;&gt;Node4</title>
<path fill="none" stroke="#191970" d="M402.1355,-112.3733C372.4994,-102.3149 326.1764,-86.5932 295.8277,-76.293"/>
<polygon fill="#191970" stroke="#191970" points="296.7895,-72.9234 286.1951,-73.0238 294.5397,-79.5521 296.7895,-72.9234"/>
</g>
<!-- Node15&#45;&gt;Node6 -->
<g id="edge22" class="edge">
<title>Node15&#45;&gt;Node6</title>
<path fill="none" stroke="#191970" d="M412.3846,-112.2455C396.055,-103.4527 371.829,-90.4079 353.2661,-80.4125"/>
<polygon fill="#191970" stroke="#191970" points="354.8719,-77.3021 344.4078,-75.6427 351.5532,-83.4654 354.8719,-77.3021"/>
</g>
<!-- Node16 -->
<g id="node17" class="node">
<title>Node16</title>
<polygon fill="#ffffff" stroke="#bfbfbf" points="514.5,-56.5 514.5,-75.5 566.5,-75.5 566.5,-56.5 514.5,-56.5"/>
<text text-anchor="middle" x="540.5" y="-63.5" font-family="Helvetica,sans-Serif" font-size="10.00" fill="#000000">stddef.h</text>
</g>
<!-- Node15&#45;&gt;Node16 -->
<g id="edge19" class="edge">
<title>Node15&#45;&gt;Node16</title>
<path fill="none" stroke="#191970" d="M449.6605,-112.2455C467.0111,-103.4125 492.7901,-90.2887 512.4583,-80.2758"/>
<polygon fill="#191970" stroke="#191970" points="514.2353,-83.2986 521.559,-75.6427 511.0595,-77.0605 514.2353,-83.2986"/>
</g>
<!-- Node17 -->
<g id="node18" class="node">
<title>Node17</title>
<polygon fill="#ffffff" stroke="#bfbfbf" points="585,-56.5 585,-75.5 634,-75.5 634,-56.5 585,-56.5"/>
<text text-anchor="middle" x="609.5" y="-63.5" font-family="Helvetica,sans-Serif" font-size="10.00" fill="#000000">stdint.h</text>
</g>
<!-- Node15&#45;&gt;Node17 -->
<g id="edge20" class="edge">
<title>Node15&#45;&gt;Node17</title>
<path fill="none" stroke="#191970" d="M461.2712,-112.3733C492.9768,-102.4542 542.2873,-87.0275 575.2217,-76.7239"/>
<polygon fill="#191970" stroke="#191970" points="576.3805,-80.0288 584.8793,-73.7026 574.2904,-73.3481 576.3805,-80.0288"/>
</g>
</g>
</svg>
