<?xml version="1.0" encoding="UTF-8" standalone="no"?>
<!DOCTYPE svg PUBLIC "-//W3C//DTD SVG 1.1//EN"
 "http://www.w3.org/Graphics/SVG/1.1/DTD/svg11.dtd">
<!-- Generated by graphviz version 2.40.1 (0)
 -->
<!-- Title: PACKAGE_INFO_STRUCT Pages: 1 -->
<svg width="150pt" height="128pt"
 viewBox="0.00 0.00 150.00 128.00" xmlns="http://www.w3.org/2000/svg" xmlns:xlink="http://www.w3.org/1999/xlink">
<g id="graph0" class="graph" transform="scale(1 1) rotate(0) translate(4 124)">
<title>PACKAGE_INFO_STRUCT</title>
<polygon fill="#ffffff" stroke="transparent" points="-4,4 -4,-124 146,-124 146,4 -4,4"/>
<!-- Node1 -->
<g id="node1" class="node">
<title>Node1</title>
<polygon fill="#bfbfbf" stroke="#000000" points="0,-.5 0,-19.5 140,-19.5 140,-.5 0,-.5"/>
<text text-anchor="middle" x="70" y="-7.5" font-family="Helvetica,sans-Serif" font-size="10.00" fill="#000000">PACKAGE_INFO_STRUCT</text>
</g>
<!-- Node2 -->
<g id="node2" class="node">
<title>Node2</title>
<polygon fill="#ffffff" stroke="#bfbfbf" points="49.5,-100.5 49.5,-119.5 90.5,-119.5 90.5,-100.5 49.5,-100.5"/>
<text text-anchor="middle" x="70" y="-107.5" font-family="Helvetica,sans-Serif" font-size="10.00" fill="#000000">string</text>
</g>
<!-- Node2&#45;&gt;Node1 -->
<g id="edge1" class="edge">
<title>Node2&#45;&gt;Node1</title>
<path fill="none" stroke="#9a32cd" stroke-dasharray="5,2" d="M70,-90.2332C70,-68.9448 70,-35.9485 70,-19.7063"/>
<polygon fill="#9a32cd" stroke="#9a32cd" points="66.5001,-90.4115 70,-100.4116 73.5001,-90.4116 66.5001,-90.4115"/>
<text text-anchor="middle" x="106" y="-74" font-family="Helvetica,sans-Serif" font-size="10.00" fill="#000000"> buildNumber</text>
<text text-anchor="middle" x="106" y="-63" font-family="Helvetica,sans-Serif" font-size="10.00" fill="#000000">packageNumber</text>
<text text-anchor="middle" x="106" y="-52" font-family="Helvetica,sans-Serif" font-size="10.00" fill="#000000">time</text>
<text text-anchor="middle" x="106" y="-41" font-family="Helvetica,sans-Serif" font-size="10.00" fill="#000000">date</text>
</g>
</g>
</svg>
