<?xml version="1.0" encoding="UTF-8" standalone="no"?>
<!DOCTYPE svg PUBLIC "-//W3C//DTD SVG 1.1//EN"
 "http://www.w3.org/Graphics/SVG/1.1/DTD/svg11.dtd">
<!-- Generated by graphviz version 2.43.0 (0)
 -->
<!-- Title: PlayerConfig Pages: 1 -->
<svg width="326pt" height="84pt"
 viewBox="0.00 0.00 326.00 84.00" xmlns="http://www.w3.org/2000/svg" xmlns:xlink="http://www.w3.org/1999/xlink">
<g id="graph0" class="graph" transform="scale(1 1) rotate(0) translate(4 80)">
<title>PlayerConfig</title>
<polygon fill="white" stroke="transparent" points="-4,4 -4,-80 322,-80 322,4 -4,4"/>
<!-- Node1 -->
<g id="node1" class="node">
<title>Node1</title>
<g id="a_node1"><a xlink:title="Configures an NTV2Player instance.">
<polygon fill="#bfbfbf" stroke="black" points="125,-56.5 125,-75.5 203,-75.5 203,-56.5 125,-56.5"/>
<text text-anchor="middle" x="164" y="-63.5" font-family="Helvetica,sans-Serif" font-size="10.00">PlayerConfig</text>
</a>
</g>
</g>
<!-- Node2 -->
<g id="node2" class="node">
<title>Node2</title>
<g id="a_node2"><a xlink:href="../../df/de8/struct_c_c_player_config.html" target="_top" xlink:title="Configures an NTV2CCPlayer instance.">
<polygon fill="white" stroke="black" points="0,-0.5 0,-19.5 92,-19.5 92,-0.5 0,-0.5"/>
<text text-anchor="middle" x="46" y="-7.5" font-family="Helvetica,sans-Serif" font-size="10.00">CCPlayerConfig</text>
</a>
</g>
</g>
<!-- Node1&#45;&gt;Node2 -->
<g id="edge1" class="edge">
<title>Node1&#45;&gt;Node2</title>
<path fill="none" stroke="midnightblue" d="M136.1,-52.23C114.03,-42.13 83.82,-28.31 64.61,-19.52"/>
<polygon fill="midnightblue" stroke="midnightblue" points="134.75,-55.46 145.3,-56.44 137.67,-49.1 134.75,-55.46"/>
</g>
<!-- Node3 -->
<g id="node3" class="node">
<title>Node3</title>
<g id="a_node3"><a xlink:href="../../d8/d9a/struct_dolby_player_config.html" target="_top" xlink:title="Configures an NTV2DolbyPlayer instance.">
<polygon fill="white" stroke="black" points="110.5,-0.5 110.5,-19.5 217.5,-19.5 217.5,-0.5 110.5,-0.5"/>
<text text-anchor="middle" x="164" y="-7.5" font-family="Helvetica,sans-Serif" font-size="10.00">DolbyPlayerConfig</text>
</a>
</g>
</g>
<!-- Node1&#45;&gt;Node3 -->
<g id="edge2" class="edge">
<title>Node1&#45;&gt;Node3</title>
<path fill="none" stroke="midnightblue" d="M164,-45.8C164,-36.91 164,-26.78 164,-19.75"/>
<polygon fill="midnightblue" stroke="midnightblue" points="160.5,-46.08 164,-56.08 167.5,-46.08 160.5,-46.08"/>
</g>
<!-- Node4 -->
<g id="node4" class="node">
<title>Node4</title>
<g id="a_node4"><a xlink:href="../../de/d40/struct_test_pat_config.html" target="_top" xlink:title="Configures an NTV2OutputTestPattern instance.">
<polygon fill="white" stroke="black" points="236,-0.5 236,-19.5 318,-19.5 318,-0.5 236,-0.5"/>
<text text-anchor="middle" x="277" y="-7.5" font-family="Helvetica,sans-Serif" font-size="10.00">TestPatConfig</text>
</a>
</g>
</g>
<!-- Node1&#45;&gt;Node4 -->
<g id="edge3" class="edge">
<title>Node1&#45;&gt;Node4</title>
<path fill="none" stroke="midnightblue" d="M191,-52.1C212.11,-42.01 240.86,-28.27 259.18,-19.52"/>
<polygon fill="midnightblue" stroke="midnightblue" points="189.42,-48.97 181.91,-56.44 192.44,-55.29 189.42,-48.97"/>
</g>
</g>
</svg>
