<?xml version="1.0" encoding="UTF-8" standalone="no"?>
<!DOCTYPE svg PUBLIC "-//W3C//DTD SVG 1.1//EN"
 "http://www.w3.org/Graphics/SVG/1.1/DTD/svg11.dtd">
<!-- Generated by graphviz version 2.43.0 (0)
 -->
<!-- Title: /home/tcbuilder/buildAgent/work/df8e8cce5bebfd58/libajantv2/ajantv2/includes/ntv2signalrouter.h Pages: 1 -->
<svg width="817pt" height="274pt"
 viewBox="0.00 0.00 816.71 274.00" xmlns="http://www.w3.org/2000/svg" xmlns:xlink="http://www.w3.org/1999/xlink">
<g id="graph0" class="graph" transform="scale(1 1) rotate(0) translate(4 270)">
<title>/home/tcbuilder/buildAgent/work/df8e8cce5bebfd58/libajantv2/ajantv2/includes/ntv2signalrouter.h</title>
<polygon fill="white" stroke="transparent" points="-4,4 -4,-270 812.71,-270 812.71,4 -4,4"/>
<!-- Node1 -->
<g id="node1" class="node">
<title>Node1</title>
<g id="a_node1"><a xlink:title="Declares CNTV2SignalRouter class.">
<polygon fill="#bfbfbf" stroke="black" points="288.21,-224.5 288.21,-265.5 479.21,-265.5 479.21,-224.5 288.21,-224.5"/>
<text text-anchor="start" x="296.21" y="-253.5" font-family="Helvetica,sans-Serif" font-size="10.00">/home/tcbuilder/buildAgent</text>
<text text-anchor="start" x="296.21" y="-242.5" font-family="Helvetica,sans-Serif" font-size="10.00">/work/df8e8cce5bebfd58/libajantv2</text>
<text text-anchor="middle" x="383.71" y="-231.5" font-family="Helvetica,sans-Serif" font-size="10.00">/ajantv2/includes/ntv2signalrouter.h</text>
</a>
</g>
</g>
<!-- Node2 -->
<g id="node2" class="node">
<title>Node2</title>
<g id="a_node2"><a xlink:href="../../d6/dd9/ajaexport_8h.html" target="_top" xlink:title="Defines the import/export macros for producing DLLs or LIBs.">
<polygon fill="white" stroke="black" points="36.71,-0.5 36.71,-19.5 108.71,-19.5 108.71,-0.5 36.71,-0.5"/>
<text text-anchor="middle" x="72.71" y="-7.5" font-family="Helvetica,sans-Serif" font-size="10.00">ajaexport.h</text>
</a>
</g>
</g>
<!-- Node1&#45;&gt;Node2 -->
<g id="edge1" class="edge">
<title>Node1&#45;&gt;Node2</title>
<path fill="none" stroke="midnightblue" d="M288.1,-229.2C187.75,-211.43 40.09,-178.13 7.71,-132 -17.37,-96.27 26.66,-49.77 53.78,-26.17"/>
<polygon fill="midnightblue" stroke="midnightblue" points="56.16,-28.74 61.56,-19.62 51.65,-23.38 56.16,-28.74"/>
</g>
<!-- Node3 -->
<g id="node3" class="node">
<title>Node3</title>
<g id="a_node3"><a xlink:href="../../d4/dd7/ntv2publicinterface_8h.html" target="_top" xlink:title="Declares enums and structs used by all platform drivers and the SDK.">
<polygon fill="white" stroke="black" points="279.71,-168.5 279.71,-187.5 399.71,-187.5 399.71,-168.5 279.71,-168.5"/>
<text text-anchor="middle" x="339.71" y="-175.5" font-family="Helvetica,sans-Serif" font-size="10.00">ntv2publicinterface.h</text>
</a>
</g>
</g>
<!-- Node1&#45;&gt;Node3 -->
<g id="edge2" class="edge">
<title>Node1&#45;&gt;Node3</title>
<path fill="none" stroke="midnightblue" d="M370.51,-224.5C364.41,-215.49 357.23,-204.89 351.34,-196.19"/>
<polygon fill="midnightblue" stroke="midnightblue" points="354.07,-193.97 345.57,-187.65 348.27,-197.9 354.07,-193.97"/>
</g>
<!-- Node10 -->
<g id="node10" class="node">
<title>Node10</title>
<g id="a_node10"><a xlink:title=" ">
<polygon fill="white" stroke="#bfbfbf" points="16.71,-112.5 16.71,-131.5 48.71,-131.5 48.71,-112.5 16.71,-112.5"/>
<text text-anchor="middle" x="32.71" y="-119.5" font-family="Helvetica,sans-Serif" font-size="10.00">set</text>
</a>
</g>
</g>
<!-- Node1&#45;&gt;Node10 -->
<g id="edge23" class="edge">
<title>Node1&#45;&gt;Node10</title>
<path fill="none" stroke="midnightblue" d="M326.92,-224.42C249.66,-197.79 114.61,-151.23 58.4,-131.85"/>
<polygon fill="midnightblue" stroke="midnightblue" points="59.44,-128.51 48.85,-128.56 57.16,-135.13 59.44,-128.51"/>
</g>
<!-- Node11 -->
<g id="node11" class="node">
<title>Node11</title>
<g id="a_node11"><a xlink:title=" ">
<polygon fill="white" stroke="#bfbfbf" points="770.71,-112.5 770.71,-131.5 808.71,-131.5 808.71,-112.5 770.71,-112.5"/>
<text text-anchor="middle" x="789.71" y="-119.5" font-family="Helvetica,sans-Serif" font-size="10.00">map</text>
</a>
</g>
</g>
<!-- Node1&#45;&gt;Node11 -->
<g id="edge24" class="edge">
<title>Node1&#45;&gt;Node11</title>
<path fill="none" stroke="midnightblue" d="M394.07,-224.44C404.71,-206.49 423.05,-180.81 446.71,-168 567.72,-102.48 621.43,-158.92 760.41,-131.8"/>
<polygon fill="midnightblue" stroke="midnightblue" points="761.48,-135.16 770.56,-129.7 760.06,-128.3 761.48,-135.16"/>
</g>
<!-- Node17 -->
<g id="node17" class="node">
<title>Node17</title>
<g id="a_node17"><a xlink:title=" ">
<polygon fill="white" stroke="#bfbfbf" points="455.71,-168.5 455.71,-187.5 511.71,-187.5 511.71,-168.5 455.71,-168.5"/>
<text text-anchor="middle" x="483.71" y="-175.5" font-family="Helvetica,sans-Serif" font-size="10.00">stddef.h</text>
</a>
</g>
</g>
<!-- Node1&#45;&gt;Node17 -->
<g id="edge21" class="edge">
<title>Node1&#45;&gt;Node17</title>
<path fill="none" stroke="midnightblue" d="M413.71,-224.5C429.19,-214.44 447.73,-202.38 461.84,-193.21"/>
<polygon fill="midnightblue" stroke="midnightblue" points="463.92,-196.04 470.4,-187.65 460.11,-190.17 463.92,-196.04"/>
</g>
<!-- Node18 -->
<g id="node18" class="node">
<title>Node18</title>
<g id="a_node18"><a xlink:title=" ">
<polygon fill="white" stroke="#bfbfbf" points="529.71,-168.5 529.71,-187.5 585.71,-187.5 585.71,-168.5 529.71,-168.5"/>
<text text-anchor="middle" x="557.71" y="-175.5" font-family="Helvetica,sans-Serif" font-size="10.00">sstream</text>
</a>
</g>
</g>
<!-- Node1&#45;&gt;Node18 -->
<g id="edge22" class="edge">
<title>Node1&#45;&gt;Node18</title>
<path fill="none" stroke="midnightblue" d="M435.91,-224.5C464.9,-213.67 500.06,-200.54 525.13,-191.17"/>
<polygon fill="midnightblue" stroke="midnightblue" points="526.4,-194.43 534.55,-187.65 523.95,-187.87 526.4,-194.43"/>
</g>
<!-- Node3&#45;&gt;Node2 -->
<g id="edge18" class="edge">
<title>Node3&#45;&gt;Node2</title>
<path fill="none" stroke="midnightblue" d="M279.55,-173.55C215.84,-168.61 121.02,-157.17 95.71,-132 68.51,-104.95 68.14,-56.4 70.35,-29.76"/>
<polygon fill="midnightblue" stroke="midnightblue" points="73.83,-30.12 71.38,-19.81 66.87,-29.4 73.83,-30.12"/>
</g>
<!-- Node4 -->
<g id="node4" class="node">
<title>Node4</title>
<g id="a_node4"><a xlink:href="../../db/de2/ajatypes_8h.html" target="_top" xlink:title="Declares the most fundamental data types used by NTV2. Since Windows NT was the first principal devel...">
<polygon fill="white" stroke="black" points="240.71,-56.5 240.71,-75.5 308.71,-75.5 308.71,-56.5 240.71,-56.5"/>
<text text-anchor="middle" x="274.71" y="-63.5" font-family="Helvetica,sans-Serif" font-size="10.00">ajatypes.h</text>
</a>
</g>
</g>
<!-- Node3&#45;&gt;Node4 -->
<g id="edge3" class="edge">
<title>Node3&#45;&gt;Node4</title>
<path fill="none" stroke="midnightblue" d="M315.24,-168.44C299.14,-161.38 279.33,-149.63 269.71,-132 261.92,-117.73 264.44,-99.02 268.16,-85.34"/>
<polygon fill="midnightblue" stroke="midnightblue" points="271.55,-86.21 271.22,-75.62 264.88,-84.11 271.55,-86.21"/>
</g>
<!-- Node6 -->
<g id="node6" class="node">
<title>Node6</title>
<g id="a_node6"><a xlink:href="../../d6/d0c/ntv2enums_8h.html" target="_top" xlink:title="Enumerations for controlling NTV2 devices.">
<polygon fill="white" stroke="black" points="104.71,-112.5 104.71,-131.5 184.71,-131.5 184.71,-112.5 104.71,-112.5"/>
<text text-anchor="middle" x="144.71" y="-119.5" font-family="Helvetica,sans-Serif" font-size="10.00">ntv2enums.h</text>
</a>
</g>
</g>
<!-- Node3&#45;&gt;Node6 -->
<g id="edge5" class="edge">
<title>Node3&#45;&gt;Node6</title>
<path fill="none" stroke="midnightblue" d="M308.81,-168.44C275.44,-159.2 222.12,-144.44 185.36,-134.26"/>
<polygon fill="midnightblue" stroke="midnightblue" points="186.03,-130.81 175.46,-131.52 184.17,-137.56 186.03,-130.81"/>
</g>
<!-- Node8 -->
<g id="node8" class="node">
<title>Node8</title>
<g id="a_node8"><a xlink:title=" ">
<polygon fill="white" stroke="#bfbfbf" points="156.71,-0.5 156.71,-19.5 200.71,-19.5 200.71,-0.5 156.71,-0.5"/>
<text text-anchor="middle" x="178.71" y="-7.5" font-family="Helvetica,sans-Serif" font-size="10.00">string</text>
</a>
</g>
</g>
<!-- Node3&#45;&gt;Node8 -->
<g id="edge14" class="edge">
<title>Node3&#45;&gt;Node8</title>
<path fill="none" stroke="midnightblue" d="M318.89,-168.36C301.9,-160.59 277.97,-147.97 260.71,-132 227.31,-101.1 200.47,-54.13 187.39,-28.76"/>
<polygon fill="midnightblue" stroke="midnightblue" points="190.4,-26.96 182.78,-19.6 184.15,-30.1 190.4,-26.96"/>
</g>
<!-- Node9 -->
<g id="node9" class="node">
<title>Node9</title>
<g id="a_node9"><a xlink:title=" ">
<polygon fill="white" stroke="#bfbfbf" points="418.71,-112.5 418.71,-131.5 478.71,-131.5 478.71,-112.5 418.71,-112.5"/>
<text text-anchor="middle" x="448.71" y="-119.5" font-family="Helvetica,sans-Serif" font-size="10.00">iostream</text>
</a>
</g>
</g>
<!-- Node3&#45;&gt;Node9 -->
<g id="edge10" class="edge">
<title>Node3&#45;&gt;Node9</title>
<path fill="none" stroke="midnightblue" d="M357.22,-168.32C374.78,-159.62 402.04,-146.12 422.24,-136.11"/>
<polygon fill="midnightblue" stroke="midnightblue" points="423.83,-139.23 431.24,-131.65 420.73,-132.96 423.83,-139.23"/>
</g>
<!-- Node3&#45;&gt;Node10 -->
<g id="edge11" class="edge">
<title>Node3&#45;&gt;Node10</title>
<path fill="none" stroke="midnightblue" d="M279.56,-169.53C223.16,-161.99 136.66,-149.02 62.71,-132 61.43,-131.7 60.12,-131.39 58.8,-131.05"/>
<polygon fill="midnightblue" stroke="midnightblue" points="59.37,-127.57 48.8,-128.25 57.48,-134.31 59.37,-127.57"/>
</g>
<!-- Node3&#45;&gt;Node11 -->
<g id="edge12" class="edge">
<title>Node3&#45;&gt;Node11</title>
<path fill="none" stroke="midnightblue" d="M399.87,-169.59C404.55,-169.04 409.21,-168.51 413.71,-168 564.91,-150.99 607.71,-163.4 760.36,-131.87"/>
<polygon fill="midnightblue" stroke="midnightblue" points="761.5,-135.21 770.57,-129.73 760.07,-128.36 761.5,-135.21"/>
</g>
<!-- Node12 -->
<g id="node12" class="node">
<title>Node12</title>
<g id="a_node12"><a xlink:title=" ">
<polygon fill="white" stroke="#bfbfbf" points="497.21,-112.5 497.21,-131.5 544.21,-131.5 544.21,-112.5 497.21,-112.5"/>
<text text-anchor="middle" x="520.71" y="-119.5" font-family="Helvetica,sans-Serif" font-size="10.00">vector</text>
</a>
</g>
</g>
<!-- Node3&#45;&gt;Node12 -->
<g id="edge13" class="edge">
<title>Node3&#45;&gt;Node12</title>
<path fill="none" stroke="midnightblue" d="M368.39,-168.44C400.64,-158.82 452.95,-143.21 487.1,-133.03"/>
<polygon fill="midnightblue" stroke="midnightblue" points="488.48,-136.27 497.07,-130.05 486.48,-129.56 488.48,-136.27"/>
</g>
<!-- Node13 -->
<g id="node13" class="node">
<title>Node13</title>
<g id="a_node13"><a xlink:title=" ">
<polygon fill="white" stroke="#bfbfbf" points="562.71,-112.5 562.71,-131.5 618.71,-131.5 618.71,-112.5 562.71,-112.5"/>
<text text-anchor="middle" x="590.71" y="-119.5" font-family="Helvetica,sans-Serif" font-size="10.00">iomanip</text>
</a>
</g>
</g>
<!-- Node3&#45;&gt;Node13 -->
<g id="edge15" class="edge">
<title>Node3&#45;&gt;Node13</title>
<path fill="none" stroke="midnightblue" d="M382.43,-168.43C423.57,-160.08 487.81,-146.81 552.49,-132.23"/>
<polygon fill="midnightblue" stroke="midnightblue" points="553.47,-135.59 562.45,-129.97 551.92,-128.77 553.47,-135.59"/>
</g>
<!-- Node14 -->
<g id="node14" class="node">
<title>Node14</title>
<g id="a_node14"><a xlink:title=" ">
<polygon fill="white" stroke="#bfbfbf" points="636.71,-112.5 636.71,-131.5 680.71,-131.5 680.71,-112.5 636.71,-112.5"/>
<text text-anchor="middle" x="658.71" y="-119.5" font-family="Helvetica,sans-Serif" font-size="10.00">bitset</text>
</a>
</g>
</g>
<!-- Node3&#45;&gt;Node14 -->
<g id="edge16" class="edge">
<title>Node3&#45;&gt;Node14</title>
<path fill="none" stroke="midnightblue" d="M399.91,-168.52C466.85,-158.93 571.79,-143.42 626.51,-131.99"/>
<polygon fill="midnightblue" stroke="midnightblue" points="627.42,-135.37 636.45,-129.83 625.93,-128.53 627.42,-135.37"/>
</g>
<!-- Node15 -->
<g id="node15" class="node">
<title>Node15</title>
<g id="a_node15"><a xlink:title=" ">
<polygon fill="white" stroke="#bfbfbf" points="699.21,-112.5 699.21,-131.5 752.21,-131.5 752.21,-112.5 699.21,-112.5"/>
<text text-anchor="middle" x="725.71" y="-119.5" font-family="Helvetica,sans-Serif" font-size="10.00">string.h</text>
</a>
</g>
</g>
<!-- Node3&#45;&gt;Node15 -->
<g id="edge17" class="edge">
<title>Node3&#45;&gt;Node15</title>
<path fill="none" stroke="midnightblue" d="M399.87,-169.66C485.72,-159.12 637.84,-140.23 689.01,-131.8"/>
<polygon fill="midnightblue" stroke="midnightblue" points="689.81,-135.22 699.05,-130.03 688.59,-128.32 689.81,-135.22"/>
</g>
<!-- Node16 -->
<g id="node16" class="node">
<title>Node16</title>
<g id="a_node16"><a xlink:href="../../da/df0/ntv2virtualregisters_8h.html" target="_top" xlink:title="Declares enums for virtual registers used in all platform drivers and the SDK.">
<polygon fill="white" stroke="black" points="278.71,-112.5 278.71,-131.5 400.71,-131.5 400.71,-112.5 278.71,-112.5"/>
<text text-anchor="middle" x="339.71" y="-119.5" font-family="Helvetica,sans-Serif" font-size="10.00">ntv2virtualregisters.h</text>
</a>
</g>
</g>
<!-- Node3&#45;&gt;Node16 -->
<g id="edge19" class="edge">
<title>Node3&#45;&gt;Node16</title>
<path fill="none" stroke="midnightblue" d="M339.71,-168.08C339.71,-161.01 339.71,-150.86 339.71,-141.99"/>
<polygon fill="midnightblue" stroke="midnightblue" points="343.21,-141.75 339.71,-131.75 336.21,-141.75 343.21,-141.75"/>
</g>
<!-- Node5 -->
<g id="node5" class="node">
<title>Node5</title>
<g id="a_node5"><a xlink:title=" ">
<polygon fill="white" stroke="#bfbfbf" points="248.21,-0.5 248.21,-19.5 301.21,-19.5 301.21,-0.5 248.21,-0.5"/>
<text text-anchor="middle" x="274.71" y="-7.5" font-family="Helvetica,sans-Serif" font-size="10.00">stdint.h</text>
</a>
</g>
</g>
<!-- Node4&#45;&gt;Node5 -->
<g id="edge4" class="edge">
<title>Node4&#45;&gt;Node5</title>
<path fill="none" stroke="midnightblue" d="M274.71,-56.08C274.71,-49.01 274.71,-38.86 274.71,-29.99"/>
<polygon fill="midnightblue" stroke="midnightblue" points="278.21,-29.75 274.71,-19.75 271.21,-29.75 278.21,-29.75"/>
</g>
<!-- Node6&#45;&gt;Node4 -->
<g id="edge6" class="edge">
<title>Node6&#45;&gt;Node4</title>
<path fill="none" stroke="midnightblue" d="M165.31,-112.44C186.7,-103.56 220.39,-89.56 244.73,-79.45"/>
<polygon fill="midnightblue" stroke="midnightblue" points="246.31,-82.58 254.21,-75.52 243.63,-76.12 246.31,-82.58"/>
</g>
<!-- Node7 -->
<g id="node7" class="node">
<title>Node7</title>
<g id="a_node7"><a xlink:href="../../d6/db1/ntv2version_8h.html" target="_top" xlink:title="Defines for the NTV2 SDK version number, used by ajantv2/includes/ntv2enums.h. See the ajantv2/includ...">
<polygon fill="white" stroke="black" points="101.21,-56.5 101.21,-75.5 184.21,-75.5 184.21,-56.5 101.21,-56.5"/>
<text text-anchor="middle" x="142.71" y="-63.5" font-family="Helvetica,sans-Serif" font-size="10.00">ntv2version.h</text>
</a>
</g>
</g>
<!-- Node6&#45;&gt;Node7 -->
<g id="edge7" class="edge">
<title>Node6&#45;&gt;Node7</title>
<path fill="none" stroke="midnightblue" d="M144.38,-112.08C144.12,-105.01 143.74,-94.86 143.41,-85.99"/>
<polygon fill="midnightblue" stroke="midnightblue" points="146.9,-85.61 143.03,-75.75 139.91,-85.87 146.9,-85.61"/>
</g>
<!-- Node7&#45;&gt;Node2 -->
<g id="edge8" class="edge">
<title>Node7&#45;&gt;Node2</title>
<path fill="none" stroke="midnightblue" d="M131.46,-56.32C120.91,-48.18 104.91,-35.84 92.27,-26.09"/>
<polygon fill="midnightblue" stroke="midnightblue" points="94.22,-23.17 84.16,-19.83 89.94,-28.71 94.22,-23.17"/>
</g>
<!-- Node7&#45;&gt;Node8 -->
<g id="edge9" class="edge">
<title>Node7&#45;&gt;Node8</title>
<path fill="none" stroke="midnightblue" d="M148.65,-56.08C153.69,-48.53 161.05,-37.49 167.22,-28.23"/>
<polygon fill="midnightblue" stroke="midnightblue" points="170.24,-30.01 172.87,-19.75 164.42,-26.13 170.24,-30.01"/>
</g>
<!-- Node16&#45;&gt;Node4 -->
<g id="edge20" class="edge">
<title>Node16&#45;&gt;Node4</title>
<path fill="none" stroke="midnightblue" d="M329.27,-112.32C319.56,-104.26 304.89,-92.08 293.21,-82.37"/>
<polygon fill="midnightblue" stroke="midnightblue" points="295.27,-79.53 285.34,-75.83 290.8,-84.92 295.27,-79.53"/>
</g>
</g>
</svg>
