<?xml version="1.0" encoding="UTF-8" standalone="no"?>
<!DOCTYPE svg PUBLIC "-//W3C//DTD SVG 1.1//EN"
 "http://www.w3.org/Graphics/SVG/1.1/DTD/svg11.dtd">
<!-- Generated by graphviz version 2.43.0 (0)
 -->
<!-- Title: /home/tcbuilder/buildAgent/work/df8e8cce5bebfd58/libajantv2/ajabase/system/bm/eventimpl.cpp Pages: 1 -->
<svg width="826pt" height="285pt"
 viewBox="0.00 0.00 825.50 285.00" xmlns="http://www.w3.org/2000/svg" xmlns:xlink="http://www.w3.org/1999/xlink">
<g id="graph0" class="graph" transform="scale(1 1) rotate(0) translate(4 281)">
<title>/home/tcbuilder/buildAgent/work/df8e8cce5bebfd58/libajantv2/ajabase/system/bm/eventimpl.cpp</title>
<polygon fill="white" stroke="transparent" points="-4,4 -4,-281 821.5,-281 821.5,4 -4,4"/>
<!-- Node1 -->
<g id="node1" class="node">
<title>Node1</title>
<g id="a_node1"><a xlink:title=" ">
<polygon fill="#bfbfbf" stroke="black" points="369,-235.5 369,-276.5 557,-276.5 557,-235.5 369,-235.5"/>
<text text-anchor="start" x="377" y="-264.5" font-family="Helvetica,sans-Serif" font-size="10.00">/home/tcbuilder/buildAgent</text>
<text text-anchor="start" x="377" y="-253.5" font-family="Helvetica,sans-Serif" font-size="10.00">/work/df8e8cce5bebfd58/libajantv2</text>
<text text-anchor="middle" x="463" y="-242.5" font-family="Helvetica,sans-Serif" font-size="10.00">/ajabase/system/bm/eventimpl.cpp</text>
</a>
</g>
</g>
<!-- Node2 -->
<g id="node2" class="node">
<title>Node2</title>
<g id="a_node2"><a xlink:href="../../d3/db3/linux_2eventimpl_8h.html" target="_top" xlink:title="Declares the AJAEventImpl class.">
<polygon fill="white" stroke="black" points="256.5,-168.5 256.5,-198.5 377.5,-198.5 377.5,-168.5 256.5,-168.5"/>
<text text-anchor="start" x="264.5" y="-186.5" font-family="Helvetica,sans-Serif" font-size="10.00">ajabase/system/linux</text>
<text text-anchor="middle" x="317" y="-175.5" font-family="Helvetica,sans-Serif" font-size="10.00">/eventimpl.h</text>
</a>
</g>
</g>
<!-- Node1&#45;&gt;Node2 -->
<g id="edge1" class="edge">
<title>Node1&#45;&gt;Node2</title>
<path fill="none" stroke="midnightblue" d="M422.33,-235.36C401.4,-225.26 376.04,-213.01 355.44,-203.06"/>
<polygon fill="midnightblue" stroke="midnightblue" points="356.87,-199.87 346.34,-198.67 353.83,-206.17 356.87,-199.87"/>
</g>
<!-- Node15 -->
<g id="node15" class="node">
<title>Node15</title>
<g id="a_node15"><a xlink:href="../../db/d16/debug_8h.html" target="_top" xlink:title="Declares the AJADebug class.">
<polygon fill="white" stroke="black" points="453,-112.5 453,-131.5 589,-131.5 589,-112.5 453,-112.5"/>
<text text-anchor="middle" x="521" y="-119.5" font-family="Helvetica,sans-Serif" font-size="10.00">ajabase/system/debug.h</text>
</a>
</g>
</g>
<!-- Node1&#45;&gt;Node15 -->
<g id="edge19" class="edge">
<title>Node1&#45;&gt;Node15</title>
<path fill="none" stroke="midnightblue" d="M464.82,-235.44C467.13,-217.2 472.19,-189.63 483,-168 488.35,-157.3 496.75,-146.98 504.29,-138.93"/>
<polygon fill="midnightblue" stroke="midnightblue" points="506.88,-141.29 511.4,-131.7 501.89,-136.38 506.88,-141.29"/>
</g>
<!-- Node21 -->
<g id="node21" class="node">
<title>Node21</title>
<g id="a_node21"><a xlink:title=" ">
<polygon fill="white" stroke="#bfbfbf" points="491.5,-174 491.5,-193 542.5,-193 542.5,-174 491.5,-174"/>
<text text-anchor="middle" x="517" y="-181" font-family="Helvetica,sans-Serif" font-size="10.00">errno.h</text>
</a>
</g>
</g>
<!-- Node1&#45;&gt;Node21 -->
<g id="edge30" class="edge">
<title>Node1&#45;&gt;Node21</title>
<path fill="none" stroke="midnightblue" d="M478.04,-235.36C486.25,-224.65 496.3,-211.52 504.14,-201.29"/>
<polygon fill="midnightblue" stroke="midnightblue" points="507.05,-203.24 510.36,-193.17 501.5,-198.98 507.05,-203.24"/>
</g>
<!-- Node3 -->
<g id="node3" class="node">
<title>Node3</title>
<g id="a_node3"><a xlink:href="../../dc/db2/system_8h.html" target="_top" xlink:title="System specific functions.">
<polygon fill="white" stroke="black" points="43,-112.5 43,-131.5 185,-131.5 185,-112.5 43,-112.5"/>
<text text-anchor="middle" x="114" y="-119.5" font-family="Helvetica,sans-Serif" font-size="10.00">ajabase/system/system.h</text>
</a>
</g>
</g>
<!-- Node2&#45;&gt;Node3 -->
<g id="edge2" class="edge">
<title>Node2&#45;&gt;Node3</title>
<path fill="none" stroke="midnightblue" d="M269.15,-168.47C233.67,-158.08 185.91,-144.08 152.8,-134.37"/>
<polygon fill="midnightblue" stroke="midnightblue" points="153.6,-130.96 143.02,-131.51 151.63,-137.68 153.6,-130.96"/>
</g>
<!-- Node11 -->
<g id="node11" class="node">
<title>Node11</title>
<g id="a_node11"><a xlink:href="../../dc/d54/common_8h.html" target="_top" xlink:title="Private include file for all ajabase sources.">
<polygon fill="white" stroke="black" points="287.5,-56.5 287.5,-75.5 442.5,-75.5 442.5,-56.5 287.5,-56.5"/>
<text text-anchor="middle" x="365" y="-63.5" font-family="Helvetica,sans-Serif" font-size="10.00">ajabase/common/common.h</text>
</a>
</g>
</g>
<!-- Node2&#45;&gt;Node11 -->
<g id="edge10" class="edge">
<title>Node2&#45;&gt;Node11</title>
<path fill="none" stroke="midnightblue" d="M326.32,-168.38C332.53,-158.51 340.53,-144.84 346,-132 352.48,-116.79 357.58,-98.68 360.85,-85.44"/>
<polygon fill="midnightblue" stroke="midnightblue" points="364.27,-86.17 363.16,-75.64 357.46,-84.57 364.27,-86.17"/>
</g>
<!-- Node14 -->
<g id="node14" class="node">
<title>Node14</title>
<g id="a_node14"><a xlink:href="../../dd/d20/event_8h.html" target="_top" xlink:title="Declares the AJAEvent class.">
<polygon fill="white" stroke="black" points="203,-112.5 203,-131.5 337,-131.5 337,-112.5 203,-112.5"/>
<text text-anchor="middle" x="270" y="-119.5" font-family="Helvetica,sans-Serif" font-size="10.00">ajabase/system/event.h</text>
</a>
</g>
</g>
<!-- Node2&#45;&gt;Node14 -->
<g id="edge16" class="edge">
<title>Node2&#45;&gt;Node14</title>
<path fill="none" stroke="midnightblue" d="M305.86,-168.4C299.03,-159.75 290.26,-148.64 283.09,-139.58"/>
<polygon fill="midnightblue" stroke="midnightblue" points="285.78,-137.34 276.84,-131.66 280.29,-141.67 285.78,-137.34"/>
</g>
<!-- Node4 -->
<g id="node4" class="node">
<title>Node4</title>
<g id="a_node4"><a xlink:href="../../d4/d79/public_8h.html" target="_top" xlink:title="Master header for the ajabase library.">
<polygon fill="white" stroke="black" points="89,-56.5 89,-75.5 231,-75.5 231,-56.5 89,-56.5"/>
<text text-anchor="middle" x="160" y="-63.5" font-family="Helvetica,sans-Serif" font-size="10.00">ajabase/common/public.h</text>
</a>
</g>
</g>
<!-- Node3&#45;&gt;Node4 -->
<g id="edge3" class="edge">
<title>Node3&#45;&gt;Node4</title>
<path fill="none" stroke="midnightblue" d="M121.6,-112.08C128.23,-104.3 138.02,-92.8 146.06,-83.37"/>
<polygon fill="midnightblue" stroke="midnightblue" points="148.73,-85.63 152.55,-75.75 143.4,-81.09 148.73,-85.63"/>
</g>
<!-- Node5 -->
<g id="node5" class="node">
<title>Node5</title>
<g id="a_node5"><a xlink:href="../../db/db5/export_8h.html" target="_top" xlink:title="Declares system&#45;dependent import/export macros and libraries.">
<polygon fill="white" stroke="black" points="460,-0.5 460,-19.5 604,-19.5 604,-0.5 460,-0.5"/>
<text text-anchor="middle" x="532" y="-7.5" font-family="Helvetica,sans-Serif" font-size="10.00">ajabase/common/export.h</text>
</a>
</g>
</g>
<!-- Node4&#45;&gt;Node5 -->
<g id="edge4" class="edge">
<title>Node4&#45;&gt;Node5</title>
<path fill="none" stroke="midnightblue" d="M218.94,-56.44C285.34,-46.81 393.1,-31.16 463.26,-20.98"/>
<polygon fill="midnightblue" stroke="midnightblue" points="463.94,-24.42 473.33,-19.52 462.93,-17.49 463.94,-24.42"/>
</g>
<!-- Node6 -->
<g id="node6" class="node">
<title>Node6</title>
<g id="a_node6"><a xlink:title=" ">
<polygon fill="white" stroke="#bfbfbf" points="264,-0.5 264,-19.5 308,-19.5 308,-0.5 264,-0.5"/>
<text text-anchor="middle" x="286" y="-7.5" font-family="Helvetica,sans-Serif" font-size="10.00">string</text>
</a>
</g>
</g>
<!-- Node4&#45;&gt;Node6 -->
<g id="edge5" class="edge">
<title>Node4&#45;&gt;Node6</title>
<path fill="none" stroke="midnightblue" d="M179.97,-56.44C200.61,-47.6 233.06,-33.69 256.63,-23.59"/>
<polygon fill="midnightblue" stroke="midnightblue" points="258.32,-26.67 266.13,-19.52 255.56,-20.24 258.32,-26.67"/>
</g>
<!-- Node7 -->
<g id="node7" class="node">
<title>Node7</title>
<g id="a_node7"><a xlink:title=" ">
<polygon fill="white" stroke="#bfbfbf" points="0,-0.5 0,-19.5 32,-19.5 32,-0.5 0,-0.5"/>
<text text-anchor="middle" x="16" y="-7.5" font-family="Helvetica,sans-Serif" font-size="10.00">list</text>
</a>
</g>
</g>
<!-- Node4&#45;&gt;Node7 -->
<g id="edge6" class="edge">
<title>Node4&#45;&gt;Node7</title>
<path fill="none" stroke="midnightblue" d="M137.18,-56.44C111.16,-46.69 68.73,-30.77 41.6,-20.6"/>
<polygon fill="midnightblue" stroke="midnightblue" points="42.61,-17.24 32.02,-17.01 40.16,-23.8 42.61,-17.24"/>
</g>
<!-- Node8 -->
<g id="node8" class="node">
<title>Node8</title>
<g id="a_node8"><a xlink:title=" ">
<polygon fill="white" stroke="#bfbfbf" points="326.5,-0.5 326.5,-19.5 373.5,-19.5 373.5,-0.5 326.5,-0.5"/>
<text text-anchor="middle" x="350" y="-7.5" font-family="Helvetica,sans-Serif" font-size="10.00">vector</text>
</a>
</g>
</g>
<!-- Node4&#45;&gt;Node8 -->
<g id="edge7" class="edge">
<title>Node4&#45;&gt;Node8</title>
<path fill="none" stroke="midnightblue" d="M190.11,-56.44C224.49,-46.67 280.59,-30.73 316.37,-20.56"/>
<polygon fill="midnightblue" stroke="midnightblue" points="317.68,-23.83 326.34,-17.73 315.76,-17.09 317.68,-23.83"/>
</g>
<!-- Node9 -->
<g id="node9" class="node">
<title>Node9</title>
<g id="a_node9"><a xlink:title=" ">
<polygon fill="white" stroke="#bfbfbf" points="50,-0.5 50,-19.5 88,-19.5 88,-0.5 50,-0.5"/>
<text text-anchor="middle" x="69" y="-7.5" font-family="Helvetica,sans-Serif" font-size="10.00">map</text>
</a>
</g>
</g>
<!-- Node4&#45;&gt;Node9 -->
<g id="edge8" class="edge">
<title>Node4&#45;&gt;Node9</title>
<path fill="none" stroke="midnightblue" d="M145.38,-56.32C131.05,-47.82 108.99,-34.73 92.25,-24.8"/>
<polygon fill="midnightblue" stroke="midnightblue" points="93.97,-21.75 83.58,-19.65 90.4,-27.77 93.97,-21.75"/>
</g>
<!-- Node10 -->
<g id="node10" class="node">
<title>Node10</title>
<g id="a_node10"><a xlink:href="../../d9/d49/types_8h.html" target="_top" xlink:title="Declares common types used in the ajabase library.">
<polygon fill="white" stroke="black" points="106,-0.5 106,-19.5 246,-19.5 246,-0.5 106,-0.5"/>
<text text-anchor="middle" x="176" y="-7.5" font-family="Helvetica,sans-Serif" font-size="10.00">ajabase/common/types.h</text>
</a>
</g>
</g>
<!-- Node4&#45;&gt;Node10 -->
<g id="edge9" class="edge">
<title>Node4&#45;&gt;Node10</title>
<path fill="none" stroke="midnightblue" d="M162.64,-56.08C164.79,-48.85 167.88,-38.41 170.55,-29.4"/>
<polygon fill="midnightblue" stroke="midnightblue" points="173.92,-30.33 173.41,-19.75 167.21,-28.34 173.92,-30.33"/>
</g>
<!-- Node11&#45;&gt;Node5 -->
<g id="edge11" class="edge">
<title>Node11&#45;&gt;Node5</title>
<path fill="none" stroke="midnightblue" d="M391.46,-56.44C419.68,-47.32 464.54,-32.81 495.97,-22.65"/>
<polygon fill="midnightblue" stroke="midnightblue" points="497.22,-25.92 505.66,-19.52 495.07,-19.26 497.22,-25.92"/>
</g>
<!-- Node11&#45;&gt;Node6 -->
<g id="edge13" class="edge">
<title>Node11&#45;&gt;Node6</title>
<path fill="none" stroke="midnightblue" d="M352.31,-56.32C340.1,-47.98 321.42,-35.21 307,-25.35"/>
<polygon fill="midnightblue" stroke="midnightblue" points="308.89,-22.41 298.66,-19.65 304.94,-28.19 308.89,-22.41"/>
</g>
<!-- Node11&#45;&gt;Node8 -->
<g id="edge14" class="edge">
<title>Node11&#45;&gt;Node8</title>
<path fill="none" stroke="midnightblue" d="M362.52,-56.08C360.51,-48.85 357.61,-38.41 355.11,-29.4"/>
<polygon fill="midnightblue" stroke="midnightblue" points="358.48,-28.45 352.43,-19.75 351.74,-30.32 358.48,-28.45"/>
</g>
<!-- Node12 -->
<g id="node12" class="node">
<title>Node12</title>
<g id="a_node12"><a xlink:title=" ">
<polygon fill="white" stroke="#bfbfbf" points="714,-0.5 714,-19.5 746,-19.5 746,-0.5 714,-0.5"/>
<text text-anchor="middle" x="730" y="-7.5" font-family="Helvetica,sans-Serif" font-size="10.00">set</text>
</a>
</g>
</g>
<!-- Node11&#45;&gt;Node12 -->
<g id="edge12" class="edge">
<title>Node11&#45;&gt;Node12</title>
<path fill="none" stroke="midnightblue" d="M442.57,-56.68C522.49,-47.79 642.72,-33.41 703.77,-19.77"/>
<polygon fill="midnightblue" stroke="midnightblue" points="704.82,-23.12 713.75,-17.42 703.21,-16.31 704.82,-23.12"/>
</g>
<!-- Node13 -->
<g id="node13" class="node">
<title>Node13</title>
<g id="a_node13"><a xlink:title=" ">
<polygon fill="white" stroke="#bfbfbf" points="392,-0.5 392,-19.5 442,-19.5 442,-0.5 392,-0.5"/>
<text text-anchor="middle" x="417" y="-7.5" font-family="Helvetica,sans-Serif" font-size="10.00">cstdint</text>
</a>
</g>
</g>
<!-- Node11&#45;&gt;Node13 -->
<g id="edge15" class="edge">
<title>Node11&#45;&gt;Node13</title>
<path fill="none" stroke="midnightblue" d="M373.59,-56.08C381.16,-48.22 392.38,-36.57 401.51,-27.08"/>
<polygon fill="midnightblue" stroke="midnightblue" points="404.16,-29.38 408.57,-19.75 399.12,-24.53 404.16,-29.38"/>
</g>
<!-- Node14&#45;&gt;Node4 -->
<g id="edge17" class="edge">
<title>Node14&#45;&gt;Node4</title>
<path fill="none" stroke="midnightblue" d="M252.33,-112.32C234.61,-103.62 207.1,-90.12 186.71,-80.11"/>
<polygon fill="midnightblue" stroke="midnightblue" points="188.15,-76.92 177.63,-75.65 185.06,-83.2 188.15,-76.92"/>
</g>
<!-- Node14&#45;&gt;Node6 -->
<g id="edge18" class="edge">
<title>Node14&#45;&gt;Node6</title>
<path fill="none" stroke="midnightblue" d="M271.18,-112.16C272.85,-99.65 276.05,-76.06 279,-56 280.28,-47.29 281.77,-37.64 283.05,-29.52"/>
<polygon fill="midnightblue" stroke="midnightblue" points="286.51,-30.04 284.62,-19.62 279.59,-28.95 286.51,-30.04"/>
</g>
<!-- Node15&#45;&gt;Node4 -->
<g id="edge23" class="edge">
<title>Node15&#45;&gt;Node4</title>
<path fill="none" stroke="midnightblue" d="M463.8,-112.44C399.5,-102.83 295.22,-87.23 227.13,-77.04"/>
<polygon fill="midnightblue" stroke="midnightblue" points="227.34,-73.53 216.93,-75.52 226.31,-80.46 227.34,-73.53"/>
</g>
<!-- Node15&#45;&gt;Node12 -->
<g id="edge22" class="edge">
<title>Node15&#45;&gt;Node12</title>
<path fill="none" stroke="midnightblue" d="M589.12,-118.56C656.4,-114.54 752.56,-103.94 776,-76 789.82,-59.53 769.86,-39.07 752.07,-25.56"/>
<polygon fill="midnightblue" stroke="midnightblue" points="753.84,-22.52 743.67,-19.53 749.76,-28.21 753.84,-22.52"/>
</g>
<!-- Node16 -->
<g id="node16" class="node">
<title>Node16</title>
<g id="a_node16"><a xlink:title=" ">
<polygon fill="white" stroke="#bfbfbf" points="461,-56.5 461,-75.5 511,-75.5 511,-56.5 461,-56.5"/>
<text text-anchor="middle" x="486" y="-63.5" font-family="Helvetica,sans-Serif" font-size="10.00">stdio.h</text>
</a>
</g>
</g>
<!-- Node15&#45;&gt;Node16 -->
<g id="edge20" class="edge">
<title>Node15&#45;&gt;Node16</title>
<path fill="none" stroke="midnightblue" d="M515.22,-112.08C510.33,-104.53 503.17,-93.49 497.17,-84.23"/>
<polygon fill="midnightblue" stroke="midnightblue" points="500.05,-82.24 491.67,-75.75 494.17,-86.05 500.05,-82.24"/>
</g>
<!-- Node17 -->
<g id="node17" class="node">
<title>Node17</title>
<g id="a_node17"><a xlink:title=" ">
<polygon fill="white" stroke="#bfbfbf" points="529,-56.5 529,-75.5 585,-75.5 585,-56.5 529,-56.5"/>
<text text-anchor="middle" x="557" y="-63.5" font-family="Helvetica,sans-Serif" font-size="10.00">sstream</text>
</a>
</g>
</g>
<!-- Node15&#45;&gt;Node17 -->
<g id="edge21" class="edge">
<title>Node15&#45;&gt;Node17</title>
<path fill="none" stroke="midnightblue" d="M526.94,-112.08C531.98,-104.53 539.34,-93.49 545.51,-84.23"/>
<polygon fill="midnightblue" stroke="midnightblue" points="548.53,-86.01 551.17,-75.75 542.71,-82.13 548.53,-86.01"/>
</g>
<!-- Node18 -->
<g id="node18" class="node">
<title>Node18</title>
<g id="a_node18"><a xlink:href="../../d0/db4/debugshare_8h.html" target="_top" xlink:title="Declares the constants used for sharing debug messages. These structures are used to gather debug mes...">
<polygon fill="white" stroke="black" points="603.5,-56.5 603.5,-75.5 766.5,-75.5 766.5,-56.5 603.5,-56.5"/>
<text text-anchor="middle" x="685" y="-63.5" font-family="Helvetica,sans-Serif" font-size="10.00">ajabase/system/debugshare.h</text>
</a>
</g>
</g>
<!-- Node15&#45;&gt;Node18 -->
<g id="edge24" class="edge">
<title>Node15&#45;&gt;Node18</title>
<path fill="none" stroke="midnightblue" d="M546.99,-112.44C574.7,-103.32 618.75,-88.81 649.62,-78.65"/>
<polygon fill="midnightblue" stroke="midnightblue" points="650.73,-81.97 659.14,-75.52 648.54,-75.32 650.73,-81.97"/>
</g>
<!-- Node18&#45;&gt;Node5 -->
<g id="edge25" class="edge">
<title>Node18&#45;&gt;Node5</title>
<path fill="none" stroke="midnightblue" d="M660.76,-56.44C635.13,-47.4 594.51,-33.06 565.76,-22.92"/>
<polygon fill="midnightblue" stroke="midnightblue" points="566.72,-19.54 556.13,-19.52 564.39,-26.15 566.72,-19.54"/>
</g>
<!-- Node18&#45;&gt;Node6 -->
<g id="edge28" class="edge">
<title>Node18&#45;&gt;Node6</title>
<path fill="none" stroke="midnightblue" d="M603.46,-56.47C517.02,-47.17 385.11,-32.23 318.4,-19.72"/>
<polygon fill="midnightblue" stroke="midnightblue" points="318.76,-16.22 308.27,-17.73 317.41,-23.09 318.76,-16.22"/>
</g>
<!-- Node18&#45;&gt;Node8 -->
<g id="edge29" class="edge">
<title>Node18&#45;&gt;Node8</title>
<path fill="none" stroke="midnightblue" d="M611.34,-56.5C552.26,-49.11 467.08,-37.19 383.62,-19.91"/>
<polygon fill="midnightblue" stroke="midnightblue" points="384.22,-16.46 373.71,-17.83 382.78,-23.31 384.22,-16.46"/>
</g>
<!-- Node19 -->
<g id="node19" class="node">
<title>Node19</title>
<g id="a_node19"><a xlink:title=" ">
<polygon fill="white" stroke="#bfbfbf" points="640,-0.5 640,-19.5 696,-19.5 696,-0.5 640,-0.5"/>
<text text-anchor="middle" x="668" y="-7.5" font-family="Helvetica,sans-Serif" font-size="10.00">stddef.h</text>
</a>
</g>
</g>
<!-- Node18&#45;&gt;Node19 -->
<g id="edge26" class="edge">
<title>Node18&#45;&gt;Node19</title>
<path fill="none" stroke="midnightblue" d="M682.19,-56.08C679.92,-48.85 676.63,-38.41 673.79,-29.4"/>
<polygon fill="midnightblue" stroke="midnightblue" points="677.1,-28.24 670.75,-19.75 670.42,-30.34 677.1,-28.24"/>
</g>
<!-- Node20 -->
<g id="node20" class="node">
<title>Node20</title>
<g id="a_node20"><a xlink:title=" ">
<polygon fill="white" stroke="#bfbfbf" points="764.5,-0.5 764.5,-19.5 817.5,-19.5 817.5,-0.5 764.5,-0.5"/>
<text text-anchor="middle" x="791" y="-7.5" font-family="Helvetica,sans-Serif" font-size="10.00">stdint.h</text>
</a>
</g>
</g>
<!-- Node18&#45;&gt;Node20 -->
<g id="edge27" class="edge">
<title>Node18&#45;&gt;Node20</title>
<path fill="none" stroke="midnightblue" d="M702.03,-56.32C719.03,-47.66 745.38,-34.24 764.99,-24.25"/>
<polygon fill="midnightblue" stroke="midnightblue" points="766.69,-27.31 774.01,-19.65 763.51,-21.08 766.69,-27.31"/>
</g>
</g>
</svg>
