<?xml version="1.0" encoding="UTF-8" standalone="no"?>
<!DOCTYPE svg PUBLIC "-//W3C//DTD SVG 1.1//EN"
 "http://www.w3.org/Graphics/SVG/1.1/DTD/svg11.dtd">
<!-- Generated by graphviz version 2.40.1 (0)
 -->
<!-- Title: /home/tcbuilder/buildAgent/work/df8e8cce5bebfd58/libajantv2/ajaanc/includes/ancillarydata_framestatusinfo5251.h Pages: 1 -->
<svg width="432pt" height="139pt"
 viewBox="0.00 0.00 431.50 139.00" xmlns="http://www.w3.org/2000/svg" xmlns:xlink="http://www.w3.org/1999/xlink">
<g id="graph0" class="graph" transform="scale(1 1) rotate(0) translate(4 135)">
<title>/home/tcbuilder/buildAgent/work/df8e8cce5bebfd58/libajantv2/ajaanc/includes/ancillarydata_framestatusinfo5251.h</title>
<polygon fill="#ffffff" stroke="transparent" points="-4,4 -4,-135 427.5,-135 427.5,4 -4,4"/>
<!-- Node21 -->
<g id="node1" class="node">
<title>Node21</title>
<polygon fill="#bfbfbf" stroke="#000000" points="144,-78.5 144,-130.5 311,-130.5 311,-78.5 144,-78.5"/>
<text text-anchor="start" x="152" y="-118.5" font-family="Helvetica,sans-Serif" font-size="10.00" fill="#000000">/home/tcbuilder/buildAgent</text>
<text text-anchor="start" x="152" y="-107.5" font-family="Helvetica,sans-Serif" font-size="10.00" fill="#000000">/work/df8e8cce5bebfd58/libajantv2</text>
<text text-anchor="start" x="152" y="-96.5" font-family="Helvetica,sans-Serif" font-size="10.00" fill="#000000">/ajaanc/includes/ancillarydata</text>
<text text-anchor="middle" x="227.5" y="-85.5" font-family="Helvetica,sans-Serif" font-size="10.00" fill="#000000">_framestatusinfo5251.h</text>
</g>
<!-- Node22 -->
<g id="node2" class="node">
<title>Node22</title>
<g id="a_node2"><a xlink:href="../../d8/d67/ancillarydata__framestatusinfo5251_8cpp.html" target="_top" xlink:title="Implements the AJAAncillaryData_FrameStatusInfo5251 class. ">
<polygon fill="#ffffff" stroke="#000000" points="0,-.5 0,-41.5 235,-41.5 235,-.5 0,-.5"/>
<text text-anchor="start" x="8" y="-29.5" font-family="Helvetica,sans-Serif" font-size="10.00" fill="#000000">/home/tcbuilder/buildAgent</text>
<text text-anchor="start" x="8" y="-18.5" font-family="Helvetica,sans-Serif" font-size="10.00" fill="#000000">/work/df8e8cce5bebfd58/libajantv2</text>
<text text-anchor="middle" x="117.5" y="-7.5" font-family="Helvetica,sans-Serif" font-size="10.00" fill="#000000">/ajaanc/src/ancillarydata_framestatusinfo5251.cpp</text>
</a>
</g>
</g>
<!-- Node21&#45;&gt;Node22 -->
<g id="edge1" class="edge">
<title>Node21&#45;&gt;Node22</title>
<path fill="none" stroke="#191970" d="M184.7432,-72.0437C171.2207,-61.7789 156.658,-50.7245 144.5543,-41.5367"/>
<polygon fill="#191970" stroke="#191970" points="182.9158,-75.0507 192.9971,-78.3092 187.1482,-69.4751 182.9158,-75.0507"/>
</g>
<!-- Node23 -->
<g id="node3" class="node">
<title>Node23</title>
<g id="a_node3"><a xlink:href="../../da/d7b/ancillarydatafactory_8cpp.html" target="_top" xlink:title="Implementation of the AJAAncillaryDataFactory class. ">
<polygon fill="#ffffff" stroke="#000000" points="253.5,-.5 253.5,-41.5 423.5,-41.5 423.5,-.5 253.5,-.5"/>
<text text-anchor="start" x="261.5" y="-29.5" font-family="Helvetica,sans-Serif" font-size="10.00" fill="#000000">/home/tcbuilder/buildAgent</text>
<text text-anchor="start" x="261.5" y="-18.5" font-family="Helvetica,sans-Serif" font-size="10.00" fill="#000000">/work/df8e8cce5bebfd58/libajantv2</text>
<text text-anchor="middle" x="338.5" y="-7.5" font-family="Helvetica,sans-Serif" font-size="10.00" fill="#000000">/ajaanc/src/ancillarydatafactory.cpp</text>
</a>
</g>
</g>
<!-- Node21&#45;&gt;Node23 -->
<g id="edge2" class="edge">
<title>Node21&#45;&gt;Node23</title>
<path fill="none" stroke="#191970" d="M270.6455,-72.0437C284.291,-61.7789 298.986,-50.7245 311.1997,-41.5367"/>
<polygon fill="#191970" stroke="#191970" points="268.2039,-69.5006 262.3165,-78.3092 272.412,-75.0946 268.2039,-69.5006"/>
</g>
</g>
</svg>
