<?xml version="1.0" encoding="UTF-8" standalone="no"?>
<!DOCTYPE svg PUBLIC "-//W3C//DTD SVG 1.1//EN"
 "http://www.w3.org/Graphics/SVG/1.1/DTD/svg11.dtd">
<!-- Generated by graphviz version 2.43.0 (0)
 -->
<!-- Title: NTV2Caption608ChangeInfo Pages: 1 -->
<svg width="647pt" height="333pt"
 viewBox="0.00 0.00 647.00 333.00" xmlns="http://www.w3.org/2000/svg" xmlns:xlink="http://www.w3.org/1999/xlink">
<g id="graph0" class="graph" transform="scale(1 1) rotate(0) translate(4 329)">
<title>NTV2Caption608ChangeInfo</title>
<polygon fill="white" stroke="transparent" points="-4,4 -4,-329 643,-329 643,4 -4,4"/>
<!-- Node1 -->
<g id="node1" class="node">
<title>Node1</title>
<g id="a_node1"><a xlink:title="This class is used to respond to dynamic events that occur during CEA&#45;608 caption decoding.">
<polygon fill="#bfbfbf" stroke="black" points="485,-153 485,-172 639,-172 639,-153 485,-153"/>
<text text-anchor="middle" x="562" y="-160" font-family="Helvetica,sans-Serif" font-size="10.00">NTV2Caption608ChangeInfo</text>
</a>
</g>
</g>
<!-- Node2 -->
<g id="node2" class="node">
<title>Node2</title>
<g id="a_node2"><a xlink:href="../../d7/d05/union_n_t_v2_caption608_change_info_1_1__u.html" target="_top" xlink:title=" ">
<polygon fill="white" stroke="black" points="268,-153 268,-172 439,-172 439,-153 268,-153"/>
<text text-anchor="middle" x="353.5" y="-160" font-family="Helvetica,sans-Serif" font-size="10.00">NTV2Caption608ChangeInfo::_u</text>
</a>
</g>
</g>
<!-- Node2&#45;&gt;Node1 -->
<g id="edge1" class="edge">
<title>Node2&#45;&gt;Node1</title>
<path fill="none" stroke="#9a32cd" stroke-dasharray="5,2" d="M449.09,-162.5C461.07,-162.5 473.2,-162.5 484.83,-162.5"/>
<polygon fill="#9a32cd" stroke="#9a32cd" points="449.09,-159 439.09,-162.5 449.09,-166 449.09,-159"/>
<text text-anchor="middle" x="462" y="-165.5" font-family="Helvetica,sans-Serif" font-size="10.00"> u</text>
</g>
<!-- Node3 -->
<g id="node3" class="node">
<title>Node3</title>
<g id="a_node3"><a xlink:href="../../d3/d0d/struct_n_t_v2_caption608_change_info_1_1__u_1_1__screen_attr.html" target="_top" xlink:title=" ">
<polygon fill="white" stroke="black" points="0,-294.5 0,-324.5 154,-324.5 154,-294.5 0,-294.5"/>
<text text-anchor="start" x="8" y="-312.5" font-family="Helvetica,sans-Serif" font-size="10.00">NTV2Caption608ChangeInfo</text>
<text text-anchor="middle" x="77" y="-301.5" font-family="Helvetica,sans-Serif" font-size="10.00">::_u::_screenAttr</text>
</a>
</g>
</g>
<!-- Node3&#45;&gt;Node2 -->
<g id="edge2" class="edge">
<title>Node3&#45;&gt;Node2</title>
<path fill="none" stroke="#9a32cd" stroke-dasharray="5,2" d="M137.2,-291.26C142.9,-289.37 148.57,-287.43 154,-285.5 197.24,-270.14 210.52,-270.88 250,-247.5 287.79,-225.12 325.95,-189.14 343.11,-172.07"/>
<polygon fill="#9a32cd" stroke="#9a32cd" points="136.05,-287.95 127.64,-294.38 138.23,-294.6 136.05,-287.95"/>
<text text-anchor="middle" x="211" y="-281.5" font-family="Helvetica,sans-Serif" font-size="10.00"> screenAttr</text>
</g>
<!-- Node4 -->
<g id="node4" class="node">
<title>Node4</title>
<g id="a_node4"><a xlink:href="../../da/d73/struct_n_t_v2_caption608_change_info_1_1__u_1_1__current_row.html" target="_top" xlink:title=" ">
<polygon fill="white" stroke="black" points="0,-245.5 0,-275.5 154,-275.5 154,-245.5 0,-245.5"/>
<text text-anchor="start" x="8" y="-263.5" font-family="Helvetica,sans-Serif" font-size="10.00">NTV2Caption608ChangeInfo</text>
<text text-anchor="middle" x="77" y="-252.5" font-family="Helvetica,sans-Serif" font-size="10.00">::_u::_currentRow</text>
</a>
</g>
</g>
<!-- Node4&#45;&gt;Node2 -->
<g id="edge3" class="edge">
<title>Node4&#45;&gt;Node2</title>
<path fill="none" stroke="#9a32cd" stroke-dasharray="5,2" d="M144.15,-242.65C176.41,-233.41 215.57,-221.37 250,-208.5 279.6,-197.44 312.78,-181.95 333.16,-172.08"/>
<polygon fill="#9a32cd" stroke="#9a32cd" points="143.04,-239.33 134.38,-245.43 144.95,-246.06 143.04,-239.33"/>
<text text-anchor="middle" x="211" y="-235.5" font-family="Helvetica,sans-Serif" font-size="10.00"> currentRow</text>
</g>
<!-- Node5 -->
<g id="node5" class="node">
<title>Node5</title>
<g id="a_node5"><a xlink:href="../../d8/dfe/struct_n_t_v2_caption608_change_info_1_1__u_1_1__caption_mode.html" target="_top" xlink:title=" ">
<polygon fill="white" stroke="black" points="0,-196.5 0,-226.5 154,-226.5 154,-196.5 0,-196.5"/>
<text text-anchor="start" x="8" y="-214.5" font-family="Helvetica,sans-Serif" font-size="10.00">NTV2Caption608ChangeInfo</text>
<text text-anchor="middle" x="77" y="-203.5" font-family="Helvetica,sans-Serif" font-size="10.00">::_u::_captionMode</text>
</a>
</g>
</g>
<!-- Node5&#45;&gt;Node2 -->
<g id="edge4" class="edge">
<title>Node5&#45;&gt;Node2</title>
<path fill="none" stroke="#9a32cd" stroke-dasharray="5,2" d="M163.97,-196.15C208.12,-188.27 260.55,-178.91 298.9,-172.07"/>
<polygon fill="#9a32cd" stroke="#9a32cd" points="163.33,-192.71 154.1,-197.92 164.56,-199.6 163.33,-192.71"/>
<text text-anchor="middle" x="211" y="-196.5" font-family="Helvetica,sans-Serif" font-size="10.00"> captionMode</text>
</g>
<!-- Node6 -->
<g id="node6" class="node">
<title>Node6</title>
<g id="a_node6"><a xlink:href="../../da/deb/struct_n_t_v2_caption608_change_info_1_1__u_1_1__current_channel.html" target="_top" xlink:title=" ">
<polygon fill="white" stroke="black" points="0,-147.5 0,-177.5 154,-177.5 154,-147.5 0,-147.5"/>
<text text-anchor="start" x="8" y="-165.5" font-family="Helvetica,sans-Serif" font-size="10.00">NTV2Caption608ChangeInfo</text>
<text text-anchor="middle" x="77" y="-154.5" font-family="Helvetica,sans-Serif" font-size="10.00">::_u::_currentChannel</text>
</a>
</g>
</g>
<!-- Node6&#45;&gt;Node2 -->
<g id="edge5" class="edge">
<title>Node6&#45;&gt;Node2</title>
<path fill="none" stroke="#9a32cd" stroke-dasharray="5,2" d="M164.17,-162.5C197.14,-162.5 234.7,-162.5 267.55,-162.5"/>
<polygon fill="#9a32cd" stroke="#9a32cd" points="164.1,-159 154.1,-162.5 164.1,-166 164.1,-159"/>
<text text-anchor="middle" x="211" y="-165.5" font-family="Helvetica,sans-Serif" font-size="10.00"> currentChannel</text>
</g>
<!-- Node7 -->
<g id="node7" class="node">
<title>Node7</title>
<g id="a_node7"><a xlink:href="../../d2/d5a/struct_n_t_v2_caption608_change_info_1_1__u_1_1__screen_char.html" target="_top" xlink:title=" ">
<polygon fill="white" stroke="black" points="0,-98.5 0,-128.5 154,-128.5 154,-98.5 0,-98.5"/>
<text text-anchor="start" x="8" y="-116.5" font-family="Helvetica,sans-Serif" font-size="10.00">NTV2Caption608ChangeInfo</text>
<text text-anchor="middle" x="77" y="-105.5" font-family="Helvetica,sans-Serif" font-size="10.00">::_u::_screenChar</text>
</a>
</g>
</g>
<!-- Node7&#45;&gt;Node2 -->
<g id="edge6" class="edge">
<title>Node7&#45;&gt;Node2</title>
<path fill="none" stroke="#9a32cd" stroke-dasharray="5,2" d="M163.97,-128.85C208.12,-136.73 260.55,-146.09 298.9,-152.93"/>
<polygon fill="#9a32cd" stroke="#9a32cd" points="164.56,-125.4 154.1,-127.08 163.33,-132.29 164.56,-125.4"/>
<text text-anchor="middle" x="211" y="-146.5" font-family="Helvetica,sans-Serif" font-size="10.00"> screenChar</text>
</g>
<!-- Node8 -->
<g id="node8" class="node">
<title>Node8</title>
<g id="a_node8"><a xlink:href="../../d0/db2/struct_n_t_v2_caption608_change_info_1_1__u_1_1__current_screen.html" target="_top" xlink:title=" ">
<polygon fill="white" stroke="black" points="0,-49.5 0,-79.5 154,-79.5 154,-49.5 0,-49.5"/>
<text text-anchor="start" x="8" y="-67.5" font-family="Helvetica,sans-Serif" font-size="10.00">NTV2Caption608ChangeInfo</text>
<text text-anchor="middle" x="77" y="-56.5" font-family="Helvetica,sans-Serif" font-size="10.00">::_u::_currentScreen</text>
</a>
</g>
</g>
<!-- Node8&#45;&gt;Node2 -->
<g id="edge7" class="edge">
<title>Node8&#45;&gt;Node2</title>
<path fill="none" stroke="#9a32cd" stroke-dasharray="5,2" d="M146.08,-82.29C177.99,-91.23 216.31,-102.85 250,-115.5 279.87,-126.71 313.26,-142.7 333.57,-152.84"/>
<polygon fill="#9a32cd" stroke="#9a32cd" points="146.97,-78.9 136.4,-79.6 145.1,-85.65 146.97,-78.9"/>
<text text-anchor="middle" x="211" y="-118.5" font-family="Helvetica,sans-Serif" font-size="10.00"> currentScreen</text>
</g>
<!-- Node9 -->
<g id="node9" class="node">
<title>Node9</title>
<g id="a_node9"><a xlink:href="../../d0/d22/struct_n_t_v2_caption608_change_info_1_1__u_1_1__current_column.html" target="_top" xlink:title=" ">
<polygon fill="white" stroke="black" points="0,-0.5 0,-30.5 154,-30.5 154,-0.5 0,-0.5"/>
<text text-anchor="start" x="8" y="-18.5" font-family="Helvetica,sans-Serif" font-size="10.00">NTV2Caption608ChangeInfo</text>
<text text-anchor="middle" x="77" y="-7.5" font-family="Helvetica,sans-Serif" font-size="10.00">::_u::_currentColumn</text>
</a>
</g>
</g>
<!-- Node9&#45;&gt;Node2 -->
<g id="edge8" class="edge">
<title>Node9&#45;&gt;Node2</title>
<path fill="none" stroke="#9a32cd" stroke-dasharray="5,2" d="M134.36,-33.82C140.99,-36.04 147.65,-38.3 154,-40.5 196.91,-55.38 210.74,-52.67 250,-75.5 288.54,-97.91 326.63,-135.31 343.49,-152.86"/>
<polygon fill="#9a32cd" stroke="#9a32cd" points="135.3,-30.44 124.7,-30.6 133.09,-37.08 135.3,-30.44"/>
<text text-anchor="middle" x="211" y="-78.5" font-family="Helvetica,sans-Serif" font-size="10.00"> currentColumn</text>
</g>
</g>
</svg>
