<?xml version="1.0" encoding="UTF-8" standalone="no"?>
<!DOCTYPE svg PUBLIC "-//W3C//DTD SVG 1.1//EN"
 "http://www.w3.org/Graphics/SVG/1.1/DTD/svg11.dtd">
<!-- Generated by graphviz version 2.43.0 (0)
 -->
<!-- Title: /home/tcbuilder/buildAgent/work/df8e8cce5bebfd58/libajantv2/ajabase/system/windows/processimpl.cpp Pages: 1 -->
<svg width="662pt" height="285pt"
 viewBox="0.00 0.00 662.00 285.00" xmlns="http://www.w3.org/2000/svg" xmlns:xlink="http://www.w3.org/1999/xlink">
<g id="graph0" class="graph" transform="scale(1 1) rotate(0) translate(4 281)">
<title>/home/tcbuilder/buildAgent/work/df8e8cce5bebfd58/libajantv2/ajabase/system/windows/processimpl.cpp</title>
<polygon fill="white" stroke="transparent" points="-4,4 -4,-281 658,-281 658,4 -4,4"/>
<!-- Node1 -->
<g id="node1" class="node">
<title>Node1</title>
<g id="a_node1"><a xlink:title="Implements the AJAProcessImpl class on the Windows platform.">
<polygon fill="#bfbfbf" stroke="black" points="287.5,-235.5 287.5,-276.5 512.5,-276.5 512.5,-235.5 287.5,-235.5"/>
<text text-anchor="start" x="295.5" y="-264.5" font-family="Helvetica,sans-Serif" font-size="10.00">/home/tcbuilder/buildAgent</text>
<text text-anchor="start" x="295.5" y="-253.5" font-family="Helvetica,sans-Serif" font-size="10.00">/work/df8e8cce5bebfd58/libajantv2</text>
<text text-anchor="middle" x="400" y="-242.5" font-family="Helvetica,sans-Serif" font-size="10.00">/ajabase/system/windows/processimpl.cpp</text>
</a>
</g>
</g>
<!-- Node2 -->
<g id="node2" class="node">
<title>Node2</title>
<g id="a_node2"><a xlink:href="../../d8/d92/windows_2processimpl_8h.html" target="_top" xlink:title="Declares the AJAProcessImpl class.">
<polygon fill="white" stroke="black" points="252,-168.5 252,-198.5 392,-198.5 392,-168.5 252,-168.5"/>
<text text-anchor="start" x="260" y="-186.5" font-family="Helvetica,sans-Serif" font-size="10.00">ajabase/system/windows</text>
<text text-anchor="middle" x="322" y="-175.5" font-family="Helvetica,sans-Serif" font-size="10.00">/processimpl.h</text>
</a>
</g>
</g>
<!-- Node1&#45;&gt;Node2 -->
<g id="edge1" class="edge">
<title>Node1&#45;&gt;Node2</title>
<path fill="none" stroke="midnightblue" d="M378.27,-235.36C368.07,-226.14 355.89,-215.13 345.48,-205.72"/>
<polygon fill="midnightblue" stroke="midnightblue" points="347.69,-203 337.92,-198.89 342.99,-208.19 347.69,-203"/>
</g>
<!-- Node15 -->
<g id="node15" class="node">
<title>Node15</title>
<g id="a_node15"><a xlink:href="../../d5/dd0/timer_8h.html" target="_top" xlink:title="Declares the AJATimer class.">
<polygon fill="white" stroke="black" points="461,-174 461,-193 599,-193 599,-174 461,-174"/>
<text text-anchor="middle" x="530" y="-181" font-family="Helvetica,sans-Serif" font-size="10.00">ajabase/common/timer.h</text>
</a>
</g>
</g>
<!-- Node1&#45;&gt;Node15 -->
<g id="edge18" class="edge">
<title>Node1&#45;&gt;Node15</title>
<path fill="none" stroke="midnightblue" d="M436.21,-235.36C458.16,-223.46 485.61,-208.58 505.12,-197.99"/>
<polygon fill="midnightblue" stroke="midnightblue" points="506.88,-201.02 514.01,-193.17 503.55,-194.86 506.88,-201.02"/>
</g>
<!-- Node3 -->
<g id="node3" class="node">
<title>Node3</title>
<g id="a_node3"><a xlink:href="../../dc/db2/system_8h.html" target="_top" xlink:title="System specific functions.">
<polygon fill="white" stroke="black" points="360,-112.5 360,-131.5 502,-131.5 502,-112.5 360,-112.5"/>
<text text-anchor="middle" x="431" y="-119.5" font-family="Helvetica,sans-Serif" font-size="10.00">ajabase/system/system.h</text>
</a>
</g>
</g>
<!-- Node2&#45;&gt;Node3 -->
<g id="edge2" class="edge">
<title>Node2&#45;&gt;Node3</title>
<path fill="none" stroke="midnightblue" d="M347.83,-168.4C365.47,-158.77 388.7,-146.09 406.13,-136.58"/>
<polygon fill="midnightblue" stroke="midnightblue" points="408.04,-139.52 415.14,-131.66 404.69,-133.38 408.04,-139.52"/>
</g>
<!-- Node11 -->
<g id="node11" class="node">
<title>Node11</title>
<g id="a_node11"><a xlink:href="../../dc/d54/common_8h.html" target="_top" xlink:title="Private include file for all ajabase sources.">
<polygon fill="white" stroke="black" points="105.5,-56.5 105.5,-75.5 260.5,-75.5 260.5,-56.5 105.5,-56.5"/>
<text text-anchor="middle" x="183" y="-63.5" font-family="Helvetica,sans-Serif" font-size="10.00">ajabase/common/common.h</text>
</a>
</g>
</g>
<!-- Node2&#45;&gt;Node11 -->
<g id="edge10" class="edge">
<title>Node2&#45;&gt;Node11</title>
<path fill="none" stroke="midnightblue" d="M251.72,-171.33C228.22,-164.03 204.17,-151.96 189,-132 179.04,-118.9 178.45,-99.75 179.8,-85.63"/>
<polygon fill="midnightblue" stroke="midnightblue" points="183.29,-85.97 181.16,-75.59 176.35,-85.03 183.29,-85.97"/>
</g>
<!-- Node14 -->
<g id="node14" class="node">
<title>Node14</title>
<g id="a_node14"><a xlink:href="../../da/d42/process_8h.html" target="_top" xlink:title="Declares the AJAProcess class.">
<polygon fill="white" stroke="black" points="198.5,-112.5 198.5,-131.5 341.5,-131.5 341.5,-112.5 198.5,-112.5"/>
<text text-anchor="middle" x="270" y="-119.5" font-family="Helvetica,sans-Serif" font-size="10.00">ajabase/system/process.h</text>
</a>
</g>
</g>
<!-- Node2&#45;&gt;Node14 -->
<g id="edge16" class="edge">
<title>Node2&#45;&gt;Node14</title>
<path fill="none" stroke="midnightblue" d="M309.68,-168.4C302.04,-159.66 292.21,-148.41 284.24,-139.3"/>
<polygon fill="midnightblue" stroke="midnightblue" points="286.78,-136.88 277.57,-131.66 281.51,-141.49 286.78,-136.88"/>
</g>
<!-- Node4 -->
<g id="node4" class="node">
<title>Node4</title>
<g id="a_node4"><a xlink:href="../../d4/d79/public_8h.html" target="_top" xlink:title="Master header for the ajabase library.">
<polygon fill="white" stroke="black" points="353,-56.5 353,-75.5 495,-75.5 495,-56.5 353,-56.5"/>
<text text-anchor="middle" x="424" y="-63.5" font-family="Helvetica,sans-Serif" font-size="10.00">ajabase/common/public.h</text>
</a>
</g>
</g>
<!-- Node3&#45;&gt;Node4 -->
<g id="edge3" class="edge">
<title>Node3&#45;&gt;Node4</title>
<path fill="none" stroke="midnightblue" d="M429.84,-112.08C428.92,-104.93 427.58,-94.64 426.42,-85.69"/>
<polygon fill="midnightblue" stroke="midnightblue" points="429.89,-85.22 425.13,-75.75 422.95,-86.12 429.89,-85.22"/>
</g>
<!-- Node5 -->
<g id="node5" class="node">
<title>Node5</title>
<g id="a_node5"><a xlink:href="../../db/db5/export_8h.html" target="_top" xlink:title="Declares system&#45;dependent import/export macros and libraries.">
<polygon fill="white" stroke="black" points="118,-0.5 118,-19.5 262,-19.5 262,-0.5 118,-0.5"/>
<text text-anchor="middle" x="190" y="-7.5" font-family="Helvetica,sans-Serif" font-size="10.00">ajabase/common/export.h</text>
</a>
</g>
</g>
<!-- Node4&#45;&gt;Node5 -->
<g id="edge4" class="edge">
<title>Node4&#45;&gt;Node5</title>
<path fill="none" stroke="midnightblue" d="M386.92,-56.44C346.27,-47.06 280.97,-31.99 236.82,-21.8"/>
<polygon fill="midnightblue" stroke="midnightblue" points="237.44,-18.35 226.9,-19.52 235.86,-25.18 237.44,-18.35"/>
</g>
<!-- Node6 -->
<g id="node6" class="node">
<title>Node6</title>
<g id="a_node6"><a xlink:title=" ">
<polygon fill="white" stroke="#bfbfbf" points="280,-0.5 280,-19.5 324,-19.5 324,-0.5 280,-0.5"/>
<text text-anchor="middle" x="302" y="-7.5" font-family="Helvetica,sans-Serif" font-size="10.00">string</text>
</a>
</g>
</g>
<!-- Node4&#45;&gt;Node6 -->
<g id="edge5" class="edge">
<title>Node4&#45;&gt;Node6</title>
<path fill="none" stroke="midnightblue" d="M404.67,-56.44C384.68,-47.6 353.26,-33.69 330.44,-23.59"/>
<polygon fill="midnightblue" stroke="midnightblue" points="331.8,-20.36 321.24,-19.52 328.97,-26.76 331.8,-20.36"/>
</g>
<!-- Node7 -->
<g id="node7" class="node">
<title>Node7</title>
<g id="a_node7"><a xlink:title=" ">
<polygon fill="white" stroke="#bfbfbf" points="408,-0.5 408,-19.5 440,-19.5 440,-0.5 408,-0.5"/>
<text text-anchor="middle" x="424" y="-7.5" font-family="Helvetica,sans-Serif" font-size="10.00">list</text>
</a>
</g>
</g>
<!-- Node4&#45;&gt;Node7 -->
<g id="edge6" class="edge">
<title>Node4&#45;&gt;Node7</title>
<path fill="none" stroke="midnightblue" d="M424,-56.08C424,-49.01 424,-38.86 424,-29.99"/>
<polygon fill="midnightblue" stroke="midnightblue" points="427.5,-29.75 424,-19.75 420.5,-29.75 427.5,-29.75"/>
</g>
<!-- Node8 -->
<g id="node8" class="node">
<title>Node8</title>
<g id="a_node8"><a xlink:title=" ">
<polygon fill="white" stroke="#bfbfbf" points="342.5,-0.5 342.5,-19.5 389.5,-19.5 389.5,-0.5 342.5,-0.5"/>
<text text-anchor="middle" x="366" y="-7.5" font-family="Helvetica,sans-Serif" font-size="10.00">vector</text>
</a>
</g>
</g>
<!-- Node4&#45;&gt;Node8 -->
<g id="edge7" class="edge">
<title>Node4&#45;&gt;Node8</title>
<path fill="none" stroke="midnightblue" d="M414.68,-56.32C406.11,-48.34 393.19,-36.31 382.81,-26.65"/>
<polygon fill="midnightblue" stroke="midnightblue" points="385.19,-24.09 375.49,-19.83 380.42,-29.21 385.19,-24.09"/>
</g>
<!-- Node9 -->
<g id="node9" class="node">
<title>Node9</title>
<g id="a_node9"><a xlink:title=" ">
<polygon fill="white" stroke="#bfbfbf" points="458,-0.5 458,-19.5 496,-19.5 496,-0.5 458,-0.5"/>
<text text-anchor="middle" x="477" y="-7.5" font-family="Helvetica,sans-Serif" font-size="10.00">map</text>
</a>
</g>
</g>
<!-- Node4&#45;&gt;Node9 -->
<g id="edge8" class="edge">
<title>Node4&#45;&gt;Node9</title>
<path fill="none" stroke="midnightblue" d="M432.75,-56.08C440.47,-48.22 451.9,-36.57 461.22,-27.08"/>
<polygon fill="midnightblue" stroke="midnightblue" points="463.9,-29.34 468.41,-19.75 458.91,-24.44 463.9,-29.34"/>
</g>
<!-- Node10 -->
<g id="node10" class="node">
<title>Node10</title>
<g id="a_node10"><a xlink:href="../../d9/d49/types_8h.html" target="_top" xlink:title="Declares common types used in the ajabase library.">
<polygon fill="white" stroke="black" points="514,-0.5 514,-19.5 654,-19.5 654,-0.5 514,-0.5"/>
<text text-anchor="middle" x="584" y="-7.5" font-family="Helvetica,sans-Serif" font-size="10.00">ajabase/common/types.h</text>
</a>
</g>
</g>
<!-- Node4&#45;&gt;Node10 -->
<g id="edge9" class="edge">
<title>Node4&#45;&gt;Node10</title>
<path fill="none" stroke="midnightblue" d="M449.35,-56.44C476.27,-47.36 519,-32.94 549.09,-22.78"/>
<polygon fill="midnightblue" stroke="midnightblue" points="550.41,-26.03 558.77,-19.52 548.17,-19.4 550.41,-26.03"/>
</g>
<!-- Node11&#45;&gt;Node5 -->
<g id="edge11" class="edge">
<title>Node11&#45;&gt;Node5</title>
<path fill="none" stroke="midnightblue" d="M184.16,-56.08C185.08,-48.93 186.42,-38.64 187.58,-29.69"/>
<polygon fill="midnightblue" stroke="midnightblue" points="191.05,-30.12 188.87,-19.75 184.11,-29.22 191.05,-30.12"/>
</g>
<!-- Node11&#45;&gt;Node6 -->
<g id="edge13" class="edge">
<title>Node11&#45;&gt;Node6</title>
<path fill="none" stroke="midnightblue" d="M201.86,-56.44C221.27,-47.64 251.73,-33.81 273.96,-23.72"/>
<polygon fill="midnightblue" stroke="midnightblue" points="275.57,-26.84 283.23,-19.52 272.68,-20.46 275.57,-26.84"/>
</g>
<!-- Node11&#45;&gt;Node8 -->
<g id="edge14" class="edge">
<title>Node11&#45;&gt;Node8</title>
<path fill="none" stroke="midnightblue" d="M212,-56.44C244.84,-46.75 298.25,-30.99 332.75,-20.81"/>
<polygon fill="midnightblue" stroke="midnightblue" points="333.78,-24.16 342.38,-17.97 331.79,-17.44 333.78,-24.16"/>
</g>
<!-- Node12 -->
<g id="node12" class="node">
<title>Node12</title>
<g id="a_node12"><a xlink:title=" ">
<polygon fill="white" stroke="#bfbfbf" points="0,-0.5 0,-19.5 32,-19.5 32,-0.5 0,-0.5"/>
<text text-anchor="middle" x="16" y="-7.5" font-family="Helvetica,sans-Serif" font-size="10.00">set</text>
</a>
</g>
</g>
<!-- Node11&#45;&gt;Node12 -->
<g id="edge12" class="edge">
<title>Node11&#45;&gt;Node12</title>
<path fill="none" stroke="midnightblue" d="M154.87,-56.44C128.06,-48.2 86.33,-35.18 41.67,-20.14"/>
<polygon fill="midnightblue" stroke="midnightblue" points="42.7,-16.79 32.11,-16.9 40.46,-23.42 42.7,-16.79"/>
</g>
<!-- Node13 -->
<g id="node13" class="node">
<title>Node13</title>
<g id="a_node13"><a xlink:title=" ">
<polygon fill="white" stroke="#bfbfbf" points="50,-0.5 50,-19.5 100,-19.5 100,-0.5 50,-0.5"/>
<text text-anchor="middle" x="75" y="-7.5" font-family="Helvetica,sans-Serif" font-size="10.00">cstdint</text>
</a>
</g>
</g>
<!-- Node11&#45;&gt;Node13 -->
<g id="edge15" class="edge">
<title>Node11&#45;&gt;Node13</title>
<path fill="none" stroke="midnightblue" d="M165.65,-56.32C148.33,-47.66 121.48,-34.24 101.5,-24.25"/>
<polygon fill="midnightblue" stroke="midnightblue" points="102.82,-21 92.31,-19.65 99.69,-27.26 102.82,-21"/>
</g>
<!-- Node14&#45;&gt;Node4 -->
<g id="edge17" class="edge">
<title>Node14&#45;&gt;Node4</title>
<path fill="none" stroke="midnightblue" d="M294.4,-112.44C320.2,-103.4 361.08,-89.06 390.02,-78.92"/>
<polygon fill="midnightblue" stroke="midnightblue" points="391.43,-82.13 399.71,-75.52 389.12,-75.52 391.43,-82.13"/>
</g>
<!-- Node15&#45;&gt;Node4 -->
<g id="edge20" class="edge">
<title>Node15&#45;&gt;Node4</title>
<path fill="none" stroke="midnightblue" d="M529.83,-173.69C529.12,-159.26 525.8,-130.36 511,-112 498.87,-96.95 480.35,-86.39 463.52,-79.3"/>
<polygon fill="midnightblue" stroke="midnightblue" points="464.45,-75.91 453.86,-75.52 461.9,-82.43 464.45,-75.91"/>
</g>
<!-- Node16 -->
<g id="node16" class="node">
<title>Node16</title>
<g id="a_node16"><a xlink:title=" ">
<polygon fill="white" stroke="#bfbfbf" points="558.5,-112.5 558.5,-131.5 615.5,-131.5 615.5,-112.5 558.5,-112.5"/>
<text text-anchor="middle" x="587" y="-119.5" font-family="Helvetica,sans-Serif" font-size="10.00">ostream</text>
</a>
</g>
</g>
<!-- Node15&#45;&gt;Node16 -->
<g id="edge19" class="edge">
<title>Node15&#45;&gt;Node16</title>
<path fill="none" stroke="midnightblue" d="M538.17,-173.98C546.89,-164.87 560.9,-150.24 571.69,-138.98"/>
<polygon fill="midnightblue" stroke="midnightblue" points="574.46,-141.15 578.85,-131.51 569.4,-136.31 574.46,-141.15"/>
</g>
</g>
</svg>
