<?xml version="1.0" encoding="UTF-8" standalone="no"?>
<!DOCTYPE svg PUBLIC "-//W3C//DTD SVG 1.1//EN"
 "http://www.w3.org/Graphics/SVG/1.1/DTD/svg11.dtd">
<!-- Generated by graphviz version 2.43.0 (0)
 -->
<!-- Title: /home/tcbuilder/buildAgent/work/df8e8cce5bebfd58/libajantv2/ajantv2/includes/ntv2vpidfromspec.h Pages: 1 -->
<svg width="802pt" height="274pt"
 viewBox="0.00 0.00 802.38 274.00" xmlns="http://www.w3.org/2000/svg" xmlns:xlink="http://www.w3.org/1999/xlink">
<g id="graph0" class="graph" transform="scale(1 1) rotate(0) translate(4 270)">
<title>/home/tcbuilder/buildAgent/work/df8e8cce5bebfd58/libajantv2/ajantv2/includes/ntv2vpidfromspec.h</title>
<polygon fill="white" stroke="transparent" points="-4,4 -4,-270 798.38,-270 798.38,4 -4,4"/>
<!-- Node1 -->
<g id="node1" class="node">
<title>Node1</title>
<g id="a_node1"><a xlink:title="Declares functions for the C implementations of VPID generation from a VPIDSpec.">
<polygon fill="#bfbfbf" stroke="black" points="54,-224.5 54,-265.5 254,-265.5 254,-224.5 54,-224.5"/>
<text text-anchor="start" x="62" y="-253.5" font-family="Helvetica,sans-Serif" font-size="10.00">/home/tcbuilder/buildAgent</text>
<text text-anchor="start" x="62" y="-242.5" font-family="Helvetica,sans-Serif" font-size="10.00">/work/df8e8cce5bebfd58/libajantv2</text>
<text text-anchor="middle" x="154" y="-231.5" font-family="Helvetica,sans-Serif" font-size="10.00">/ajantv2/includes/ntv2vpidfromspec.h</text>
</a>
</g>
</g>
<!-- Node2 -->
<g id="node2" class="node">
<title>Node2</title>
<g id="a_node2"><a xlink:href="../../d6/dd9/ajaexport_8h.html" target="_top" xlink:title="Defines the import/export macros for producing DLLs or LIBs.">
<polygon fill="white" stroke="black" points="0,-0.5 0,-19.5 72,-19.5 72,-0.5 0,-0.5"/>
<text text-anchor="middle" x="36" y="-7.5" font-family="Helvetica,sans-Serif" font-size="10.00">ajaexport.h</text>
</a>
</g>
</g>
<!-- Node1&#45;&gt;Node2 -->
<g id="edge1" class="edge">
<title>Node1&#45;&gt;Node2</title>
<path fill="none" stroke="midnightblue" d="M132.29,-224.41C102.39,-195.52 50.76,-138.15 38,-76 34.84,-60.6 34.52,-42.73 34.89,-29.63"/>
<polygon fill="midnightblue" stroke="midnightblue" points="38.4,-29.67 35.34,-19.52 31.4,-29.36 38.4,-29.67"/>
</g>
<!-- Node3 -->
<g id="node3" class="node">
<title>Node3</title>
<g id="a_node3"><a xlink:href="../../d4/dd7/ntv2publicinterface_8h.html" target="_top" xlink:title="Declares enums and structs used by all platform drivers and the SDK.">
<polygon fill="white" stroke="black" points="250,-168.5 250,-187.5 370,-187.5 370,-168.5 250,-168.5"/>
<text text-anchor="middle" x="310" y="-175.5" font-family="Helvetica,sans-Serif" font-size="10.00">ntv2publicinterface.h</text>
</a>
</g>
</g>
<!-- Node1&#45;&gt;Node3 -->
<g id="edge2" class="edge">
<title>Node1&#45;&gt;Node3</title>
<path fill="none" stroke="midnightblue" d="M200.81,-224.5C226.45,-213.81 257.48,-200.89 279.89,-191.54"/>
<polygon fill="midnightblue" stroke="midnightblue" points="281.35,-194.73 289.23,-187.65 278.66,-188.27 281.35,-194.73"/>
</g>
<!-- Node3&#45;&gt;Node2 -->
<g id="edge18" class="edge">
<title>Node3&#45;&gt;Node2</title>
<path fill="none" stroke="midnightblue" d="M249.86,-172.02C190.19,-165.92 104.12,-153.63 79,-132 48.55,-105.78 39.66,-56.5 37.07,-29.63"/>
<polygon fill="midnightblue" stroke="midnightblue" points="40.55,-29.32 36.3,-19.61 33.58,-29.85 40.55,-29.32"/>
</g>
<!-- Node4 -->
<g id="node4" class="node">
<title>Node4</title>
<g id="a_node4"><a xlink:href="../../db/de2/ajatypes_8h.html" target="_top" xlink:title="Declares the most fundamental data types used by NTV2. Since Windows NT was the first principal devel...">
<polygon fill="white" stroke="black" points="685,-56.5 685,-75.5 753,-75.5 753,-56.5 685,-56.5"/>
<text text-anchor="middle" x="719" y="-63.5" font-family="Helvetica,sans-Serif" font-size="10.00">ajatypes.h</text>
</a>
</g>
</g>
<!-- Node3&#45;&gt;Node4 -->
<g id="edge3" class="edge">
<title>Node3&#45;&gt;Node4</title>
<path fill="none" stroke="midnightblue" d="M370.19,-175.78C492.58,-172.67 761.31,-162.42 789,-132 806.6,-112.67 775.98,-92.5 749.85,-79.85"/>
<polygon fill="midnightblue" stroke="midnightblue" points="751.08,-76.56 740.53,-75.55 748.14,-82.92 751.08,-76.56"/>
</g>
<!-- Node6 -->
<g id="node6" class="node">
<title>Node6</title>
<g id="a_node6"><a xlink:href="../../d6/d0c/ntv2enums_8h.html" target="_top" xlink:title="Enumerations for controlling NTV2 devices.">
<polygon fill="white" stroke="black" points="560,-112.5 560,-131.5 640,-131.5 640,-112.5 560,-112.5"/>
<text text-anchor="middle" x="600" y="-119.5" font-family="Helvetica,sans-Serif" font-size="10.00">ntv2enums.h</text>
</a>
</g>
</g>
<!-- Node3&#45;&gt;Node6 -->
<g id="edge5" class="edge">
<title>Node3&#45;&gt;Node6</title>
<path fill="none" stroke="midnightblue" d="M355.95,-168.44C408.77,-158.61 495.16,-142.52 549.73,-132.36"/>
<polygon fill="midnightblue" stroke="midnightblue" points="550.68,-135.74 559.87,-130.47 549.4,-128.86 550.68,-135.74"/>
</g>
<!-- Node8 -->
<g id="node8" class="node">
<title>Node8</title>
<g id="a_node8"><a xlink:title=" ">
<polygon fill="white" stroke="#bfbfbf" points="106,-0.5 106,-19.5 150,-19.5 150,-0.5 106,-0.5"/>
<text text-anchor="middle" x="128" y="-7.5" font-family="Helvetica,sans-Serif" font-size="10.00">string</text>
</a>
</g>
</g>
<!-- Node3&#45;&gt;Node8 -->
<g id="edge14" class="edge">
<title>Node3&#45;&gt;Node8</title>
<path fill="none" stroke="midnightblue" d="M249.8,-172.86C192.59,-167.52 112.46,-155.91 93,-132 71.68,-105.8 82.04,-87.95 93,-56 96.72,-45.16 104.23,-34.92 111.35,-26.96"/>
<polygon fill="midnightblue" stroke="midnightblue" points="114.05,-29.19 118.44,-19.55 109,-24.35 114.05,-29.19"/>
</g>
<!-- Node9 -->
<g id="node9" class="node">
<title>Node9</title>
<g id="a_node9"><a xlink:title=" ">
<polygon fill="white" stroke="#bfbfbf" points="102,-112.5 102,-131.5 162,-131.5 162,-112.5 102,-112.5"/>
<text text-anchor="middle" x="132" y="-119.5" font-family="Helvetica,sans-Serif" font-size="10.00">iostream</text>
</a>
</g>
</g>
<!-- Node3&#45;&gt;Node9 -->
<g id="edge10" class="edge">
<title>Node3&#45;&gt;Node9</title>
<path fill="none" stroke="midnightblue" d="M281.8,-168.44C251.59,-159.28 203.49,-144.69 169.97,-134.52"/>
<polygon fill="midnightblue" stroke="midnightblue" points="170.66,-131.07 160.07,-131.52 168.63,-137.77 170.66,-131.07"/>
</g>
<!-- Node10 -->
<g id="node10" class="node">
<title>Node10</title>
<g id="a_node10"><a xlink:title=" ">
<polygon fill="white" stroke="#bfbfbf" points="180,-112.5 180,-131.5 212,-131.5 212,-112.5 180,-112.5"/>
<text text-anchor="middle" x="196" y="-119.5" font-family="Helvetica,sans-Serif" font-size="10.00">set</text>
</a>
</g>
</g>
<!-- Node3&#45;&gt;Node10 -->
<g id="edge11" class="edge">
<title>Node3&#45;&gt;Node10</title>
<path fill="none" stroke="midnightblue" d="M291.94,-168.44C272.88,-159.42 242.7,-145.12 221.29,-134.98"/>
<polygon fill="midnightblue" stroke="midnightblue" points="222.67,-131.76 212.14,-130.64 219.67,-138.09 222.67,-131.76"/>
</g>
<!-- Node11 -->
<g id="node11" class="node">
<title>Node11</title>
<g id="a_node11"><a xlink:title=" ">
<polygon fill="white" stroke="#bfbfbf" points="230,-112.5 230,-131.5 268,-131.5 268,-112.5 230,-112.5"/>
<text text-anchor="middle" x="249" y="-119.5" font-family="Helvetica,sans-Serif" font-size="10.00">map</text>
</a>
</g>
</g>
<!-- Node3&#45;&gt;Node11 -->
<g id="edge12" class="edge">
<title>Node3&#45;&gt;Node11</title>
<path fill="none" stroke="midnightblue" d="M300.2,-168.32C291.18,-160.34 277.59,-148.31 266.68,-138.65"/>
<polygon fill="midnightblue" stroke="midnightblue" points="268.79,-135.84 258.98,-131.83 264.15,-141.08 268.79,-135.84"/>
</g>
<!-- Node12 -->
<g id="node12" class="node">
<title>Node12</title>
<g id="a_node12"><a xlink:title=" ">
<polygon fill="white" stroke="#bfbfbf" points="286.5,-112.5 286.5,-131.5 333.5,-131.5 333.5,-112.5 286.5,-112.5"/>
<text text-anchor="middle" x="310" y="-119.5" font-family="Helvetica,sans-Serif" font-size="10.00">vector</text>
</a>
</g>
</g>
<!-- Node3&#45;&gt;Node12 -->
<g id="edge13" class="edge">
<title>Node3&#45;&gt;Node12</title>
<path fill="none" stroke="midnightblue" d="M310,-168.08C310,-161.01 310,-150.86 310,-141.99"/>
<polygon fill="midnightblue" stroke="midnightblue" points="313.5,-141.75 310,-131.75 306.5,-141.75 313.5,-141.75"/>
</g>
<!-- Node13 -->
<g id="node13" class="node">
<title>Node13</title>
<g id="a_node13"><a xlink:title=" ">
<polygon fill="white" stroke="#bfbfbf" points="352,-112.5 352,-131.5 408,-131.5 408,-112.5 352,-112.5"/>
<text text-anchor="middle" x="380" y="-119.5" font-family="Helvetica,sans-Serif" font-size="10.00">iomanip</text>
</a>
</g>
</g>
<!-- Node3&#45;&gt;Node13 -->
<g id="edge15" class="edge">
<title>Node3&#45;&gt;Node13</title>
<path fill="none" stroke="midnightblue" d="M321.25,-168.32C331.8,-160.18 347.8,-147.84 360.44,-138.09"/>
<polygon fill="midnightblue" stroke="midnightblue" points="362.77,-140.71 368.55,-131.83 358.49,-135.17 362.77,-140.71"/>
</g>
<!-- Node14 -->
<g id="node14" class="node">
<title>Node14</title>
<g id="a_node14"><a xlink:title=" ">
<polygon fill="white" stroke="#bfbfbf" points="426,-112.5 426,-131.5 470,-131.5 470,-112.5 426,-112.5"/>
<text text-anchor="middle" x="448" y="-119.5" font-family="Helvetica,sans-Serif" font-size="10.00">bitset</text>
</a>
</g>
</g>
<!-- Node3&#45;&gt;Node14 -->
<g id="edge16" class="edge">
<title>Node3&#45;&gt;Node14</title>
<path fill="none" stroke="midnightblue" d="M331.87,-168.44C354.78,-159.48 390.98,-145.31 416.87,-135.18"/>
<polygon fill="midnightblue" stroke="midnightblue" points="418.2,-138.42 426.24,-131.52 415.65,-131.9 418.2,-138.42"/>
</g>
<!-- Node15 -->
<g id="node15" class="node">
<title>Node15</title>
<g id="a_node15"><a xlink:title=" ">
<polygon fill="white" stroke="#bfbfbf" points="488.5,-112.5 488.5,-131.5 541.5,-131.5 541.5,-112.5 488.5,-112.5"/>
<text text-anchor="middle" x="515" y="-119.5" font-family="Helvetica,sans-Serif" font-size="10.00">string.h</text>
</a>
</g>
</g>
<!-- Node3&#45;&gt;Node15 -->
<g id="edge17" class="edge">
<title>Node3&#45;&gt;Node15</title>
<path fill="none" stroke="midnightblue" d="M342.48,-168.44C379.48,-158.7 439.79,-142.81 478.42,-132.64"/>
<polygon fill="midnightblue" stroke="midnightblue" points="479.44,-135.99 488.22,-130.05 477.66,-129.22 479.44,-135.99"/>
</g>
<!-- Node16 -->
<g id="node16" class="node">
<title>Node16</title>
<g id="a_node16"><a xlink:href="../../da/df0/ntv2virtualregisters_8h.html" target="_top" xlink:title="Declares enums for virtual registers used in all platform drivers and the SDK.">
<polygon fill="white" stroke="black" points="658,-112.5 658,-131.5 780,-131.5 780,-112.5 658,-112.5"/>
<text text-anchor="middle" x="719" y="-119.5" font-family="Helvetica,sans-Serif" font-size="10.00">ntv2virtualregisters.h</text>
</a>
</g>
</g>
<!-- Node3&#45;&gt;Node16 -->
<g id="edge19" class="edge">
<title>Node3&#45;&gt;Node16</title>
<path fill="none" stroke="midnightblue" d="M370.35,-169.03C444.14,-159.29 568.89,-142.82 647.44,-132.45"/>
<polygon fill="midnightblue" stroke="midnightblue" points="648.28,-135.87 657.73,-131.09 647.36,-128.93 648.28,-135.87"/>
</g>
<!-- Node5 -->
<g id="node5" class="node">
<title>Node5</title>
<g id="a_node5"><a xlink:title=" ">
<polygon fill="white" stroke="#bfbfbf" points="692.5,-0.5 692.5,-19.5 745.5,-19.5 745.5,-0.5 692.5,-0.5"/>
<text text-anchor="middle" x="719" y="-7.5" font-family="Helvetica,sans-Serif" font-size="10.00">stdint.h</text>
</a>
</g>
</g>
<!-- Node4&#45;&gt;Node5 -->
<g id="edge4" class="edge">
<title>Node4&#45;&gt;Node5</title>
<path fill="none" stroke="midnightblue" d="M719,-56.08C719,-49.01 719,-38.86 719,-29.99"/>
<polygon fill="midnightblue" stroke="midnightblue" points="722.5,-29.75 719,-19.75 715.5,-29.75 722.5,-29.75"/>
</g>
<!-- Node6&#45;&gt;Node4 -->
<g id="edge6" class="edge">
<title>Node6&#45;&gt;Node4</title>
<path fill="none" stroke="midnightblue" d="M618.86,-112.44C638.27,-103.64 668.73,-89.81 690.96,-79.72"/>
<polygon fill="midnightblue" stroke="midnightblue" points="692.57,-82.84 700.23,-75.52 689.68,-76.46 692.57,-82.84"/>
</g>
<!-- Node7 -->
<g id="node7" class="node">
<title>Node7</title>
<g id="a_node7"><a xlink:href="../../d6/db1/ntv2version_8h.html" target="_top" xlink:title="Defines for the NTV2 SDK version number, used by ajantv2/includes/ntv2enums.h. See the ajantv2/includ...">
<polygon fill="white" stroke="black" points="102.5,-56.5 102.5,-75.5 185.5,-75.5 185.5,-56.5 102.5,-56.5"/>
<text text-anchor="middle" x="144" y="-63.5" font-family="Helvetica,sans-Serif" font-size="10.00">ntv2version.h</text>
</a>
</g>
</g>
<!-- Node6&#45;&gt;Node7 -->
<g id="edge7" class="edge">
<title>Node6&#45;&gt;Node7</title>
<path fill="none" stroke="midnightblue" d="M559.92,-113.54C556.57,-112.99 553.23,-112.47 550,-112 423.32,-93.6 273.43,-78.77 196.04,-71.63"/>
<polygon fill="midnightblue" stroke="midnightblue" points="195.89,-68.1 185.62,-70.67 195.25,-75.07 195.89,-68.1"/>
</g>
<!-- Node7&#45;&gt;Node2 -->
<g id="edge8" class="edge">
<title>Node7&#45;&gt;Node2</title>
<path fill="none" stroke="midnightblue" d="M126.65,-56.32C109.33,-47.66 82.48,-34.24 62.5,-24.25"/>
<polygon fill="midnightblue" stroke="midnightblue" points="63.82,-21 53.31,-19.65 60.69,-27.26 63.82,-21"/>
</g>
<!-- Node7&#45;&gt;Node8 -->
<g id="edge9" class="edge">
<title>Node7&#45;&gt;Node8</title>
<path fill="none" stroke="midnightblue" d="M141.36,-56.08C139.21,-48.85 136.12,-38.41 133.45,-29.4"/>
<polygon fill="midnightblue" stroke="midnightblue" points="136.79,-28.34 130.59,-19.75 130.08,-30.33 136.79,-28.34"/>
</g>
<!-- Node16&#45;&gt;Node4 -->
<g id="edge20" class="edge">
<title>Node16&#45;&gt;Node4</title>
<path fill="none" stroke="midnightblue" d="M719,-112.08C719,-105.01 719,-94.86 719,-85.99"/>
<polygon fill="midnightblue" stroke="midnightblue" points="722.5,-85.75 719,-75.75 715.5,-85.75 722.5,-85.75"/>
</g>
</g>
</svg>
