<?xml version="1.0" encoding="UTF-8" standalone="no"?>
<!DOCTYPE svg PUBLIC "-//W3C//DTD SVG 1.1//EN"
 "http://www.w3.org/Graphics/SVG/1.1/DTD/svg11.dtd">
<!-- Generated by graphviz version 2.43.0 (0)
 -->
<!-- Title: /home/tcbuilder/buildAgent/work/df8e8cce5bebfd58/libajantv2/ajabase/pnp/mac/masterport.cpp Pages: 1 -->
<svg width="556pt" height="330pt"
 viewBox="0.00 0.00 556.00 330.00" xmlns="http://www.w3.org/2000/svg" xmlns:xlink="http://www.w3.org/1999/xlink">
<g id="graph0" class="graph" transform="scale(1 1) rotate(0) translate(4 326)">
<title>/home/tcbuilder/buildAgent/work/df8e8cce5bebfd58/libajantv2/ajabase/pnp/mac/masterport.cpp</title>
<polygon fill="white" stroke="transparent" points="-4,4 -4,-326 552,-326 552,4 -4,4"/>
<!-- Node1 -->
<g id="node1" class="node">
<title>Node1</title>
<g id="a_node1"><a xlink:title="Implements the MasterPort class.">
<polygon fill="#bfbfbf" stroke="black" points="360,-280.5 360,-321.5 548,-321.5 548,-280.5 360,-280.5"/>
<text text-anchor="start" x="368" y="-309.5" font-family="Helvetica,sans-Serif" font-size="10.00">/home/tcbuilder/buildAgent</text>
<text text-anchor="start" x="368" y="-298.5" font-family="Helvetica,sans-Serif" font-size="10.00">/work/df8e8cce5bebfd58/libajantv2</text>
<text text-anchor="middle" x="454" y="-287.5" font-family="Helvetica,sans-Serif" font-size="10.00">/ajabase/pnp/mac/masterport.cpp</text>
</a>
</g>
</g>
<!-- Node2 -->
<g id="node2" class="node">
<title>Node2</title>
<g id="a_node2"><a xlink:href="../../dd/d65/masterport_8h.html" target="_top" xlink:title="Declares the MasterPort class.">
<polygon fill="white" stroke="black" points="370,-224.5 370,-243.5 450,-243.5 450,-224.5 370,-224.5"/>
<text text-anchor="middle" x="410" y="-231.5" font-family="Helvetica,sans-Serif" font-size="10.00">masterport.h</text>
</a>
</g>
</g>
<!-- Node1&#45;&gt;Node2 -->
<g id="edge1" class="edge">
<title>Node1&#45;&gt;Node2</title>
<path fill="none" stroke="midnightblue" d="M440.8,-280.5C434.7,-271.49 427.52,-260.89 421.63,-252.19"/>
<polygon fill="midnightblue" stroke="midnightblue" points="424.36,-249.97 415.86,-243.65 418.56,-253.9 424.36,-249.97"/>
</g>
<!-- Node14 -->
<g id="node14" class="node">
<title>Node14</title>
<g id="a_node14"><a xlink:title=" ">
<polygon fill="white" stroke="#bfbfbf" points="468,-224.5 468,-243.5 528,-243.5 528,-224.5 468,-224.5"/>
<text text-anchor="middle" x="498" y="-231.5" font-family="Helvetica,sans-Serif" font-size="10.00">iostream</text>
</a>
</g>
</g>
<!-- Node1&#45;&gt;Node14 -->
<g id="edge13" class="edge">
<title>Node1&#45;&gt;Node14</title>
<path fill="none" stroke="midnightblue" d="M467.2,-280.5C473.3,-271.49 480.48,-260.89 486.37,-252.19"/>
<polygon fill="midnightblue" stroke="midnightblue" points="489.44,-253.9 492.14,-243.65 483.64,-249.97 489.44,-253.9"/>
</g>
<!-- Node3 -->
<g id="node3" class="node">
<title>Node3</title>
<g id="a_node3"><a xlink:href="../../da/dae/ajarefptr_8h.html" target="_top" xlink:title="Defines the AJARefPtr template class.">
<polygon fill="white" stroke="black" points="192,-168.5 192,-187.5 346,-187.5 346,-168.5 192,-168.5"/>
<text text-anchor="middle" x="269" y="-175.5" font-family="Helvetica,sans-Serif" font-size="10.00">ajabase/common/ajarefptr.h</text>
</a>
</g>
</g>
<!-- Node2&#45;&gt;Node3 -->
<g id="edge2" class="edge">
<title>Node2&#45;&gt;Node3</title>
<path fill="none" stroke="midnightblue" d="M387.66,-224.44C364.25,-215.48 327.26,-201.31 300.81,-191.18"/>
<polygon fill="midnightblue" stroke="midnightblue" points="301.83,-187.82 291.24,-187.52 299.32,-194.36 301.83,-187.82"/>
</g>
<!-- Node12 -->
<g id="node12" class="node">
<title>Node12</title>
<g id="a_node12"><a xlink:title=" ">
<polygon fill="white" stroke="#bfbfbf" points="364.5,-168.5 364.5,-187.5 455.5,-187.5 455.5,-168.5 364.5,-168.5"/>
<text text-anchor="middle" x="410" y="-175.5" font-family="Helvetica,sans-Serif" font-size="10.00">IOKit/IOKitLib.h</text>
</a>
</g>
</g>
<!-- Node2&#45;&gt;Node12 -->
<g id="edge11" class="edge">
<title>Node2&#45;&gt;Node12</title>
<path fill="none" stroke="midnightblue" d="M410,-224.08C410,-217.01 410,-206.86 410,-197.99"/>
<polygon fill="midnightblue" stroke="midnightblue" points="413.5,-197.75 410,-187.75 406.5,-197.75 413.5,-197.75"/>
</g>
<!-- Node13 -->
<g id="node13" class="node">
<title>Node13</title>
<g id="a_node13"><a xlink:title=" ">
<polygon fill="white" stroke="#bfbfbf" points="474,-168.5 474,-187.5 530,-187.5 530,-168.5 474,-168.5"/>
<text text-anchor="middle" x="502" y="-175.5" font-family="Helvetica,sans-Serif" font-size="10.00">assert.h</text>
</a>
</g>
</g>
<!-- Node2&#45;&gt;Node13 -->
<g id="edge12" class="edge">
<title>Node2&#45;&gt;Node13</title>
<path fill="none" stroke="midnightblue" d="M424.78,-224.32C439.27,-215.82 461.57,-202.73 478.49,-192.8"/>
<polygon fill="midnightblue" stroke="midnightblue" points="480.4,-195.74 487.26,-187.65 476.86,-189.7 480.4,-195.74"/>
</g>
<!-- Node4 -->
<g id="node4" class="node">
<title>Node4</title>
<g id="a_node4"><a xlink:href="../../dd/d02/atomic_8h.html" target="_top" xlink:title="Declares the AJAAtomic class.">
<polygon fill="white" stroke="black" points="215.5,-112.5 215.5,-131.5 322.5,-131.5 322.5,-112.5 215.5,-112.5"/>
<text text-anchor="middle" x="269" y="-119.5" font-family="Helvetica,sans-Serif" font-size="10.00">../system/atomic.h</text>
</a>
</g>
</g>
<!-- Node3&#45;&gt;Node4 -->
<g id="edge3" class="edge">
<title>Node3&#45;&gt;Node4</title>
<path fill="none" stroke="midnightblue" d="M269,-168.08C269,-161.01 269,-150.86 269,-141.99"/>
<polygon fill="midnightblue" stroke="midnightblue" points="272.5,-141.75 269,-131.75 265.5,-141.75 272.5,-141.75"/>
</g>
<!-- Node5 -->
<g id="node5" class="node">
<title>Node5</title>
<g id="a_node5"><a xlink:href="../../d4/d79/public_8h.html" target="_top" xlink:title="Master header for the ajabase library.">
<polygon fill="white" stroke="black" points="198,-56.5 198,-75.5 340,-75.5 340,-56.5 198,-56.5"/>
<text text-anchor="middle" x="269" y="-63.5" font-family="Helvetica,sans-Serif" font-size="10.00">ajabase/common/public.h</text>
</a>
</g>
</g>
<!-- Node4&#45;&gt;Node5 -->
<g id="edge4" class="edge">
<title>Node4&#45;&gt;Node5</title>
<path fill="none" stroke="midnightblue" d="M269,-112.08C269,-105.01 269,-94.86 269,-85.99"/>
<polygon fill="midnightblue" stroke="midnightblue" points="272.5,-85.75 269,-75.75 265.5,-85.75 272.5,-85.75"/>
</g>
<!-- Node6 -->
<g id="node6" class="node">
<title>Node6</title>
<g id="a_node6"><a xlink:href="../../db/db5/export_8h.html" target="_top" xlink:title="Declares system&#45;dependent import/export macros and libraries.">
<polygon fill="white" stroke="black" points="0,-0.5 0,-19.5 144,-19.5 144,-0.5 0,-0.5"/>
<text text-anchor="middle" x="72" y="-7.5" font-family="Helvetica,sans-Serif" font-size="10.00">ajabase/common/export.h</text>
</a>
</g>
</g>
<!-- Node5&#45;&gt;Node6 -->
<g id="edge5" class="edge">
<title>Node5&#45;&gt;Node6</title>
<path fill="none" stroke="midnightblue" d="M237.78,-56.44C204.07,-47.2 150.2,-32.44 113.07,-22.26"/>
<polygon fill="midnightblue" stroke="midnightblue" points="113.64,-18.78 103.07,-19.52 111.79,-25.54 113.64,-18.78"/>
</g>
<!-- Node7 -->
<g id="node7" class="node">
<title>Node7</title>
<g id="a_node7"><a xlink:title=" ">
<polygon fill="white" stroke="#bfbfbf" points="162,-0.5 162,-19.5 206,-19.5 206,-0.5 162,-0.5"/>
<text text-anchor="middle" x="184" y="-7.5" font-family="Helvetica,sans-Serif" font-size="10.00">string</text>
</a>
</g>
</g>
<!-- Node5&#45;&gt;Node7 -->
<g id="edge6" class="edge">
<title>Node5&#45;&gt;Node7</title>
<path fill="none" stroke="midnightblue" d="M255.34,-56.32C242.08,-47.9 221.73,-34.97 206.15,-25.07"/>
<polygon fill="midnightblue" stroke="midnightblue" points="207.94,-22.06 197.62,-19.65 204.19,-27.97 207.94,-22.06"/>
</g>
<!-- Node8 -->
<g id="node8" class="node">
<title>Node8</title>
<g id="a_node8"><a xlink:title=" ">
<polygon fill="white" stroke="#bfbfbf" points="224,-0.5 224,-19.5 256,-19.5 256,-0.5 224,-0.5"/>
<text text-anchor="middle" x="240" y="-7.5" font-family="Helvetica,sans-Serif" font-size="10.00">list</text>
</a>
</g>
</g>
<!-- Node5&#45;&gt;Node8 -->
<g id="edge7" class="edge">
<title>Node5&#45;&gt;Node8</title>
<path fill="none" stroke="midnightblue" d="M264.21,-56.08C260.24,-48.69 254.47,-37.95 249.57,-28.81"/>
<polygon fill="midnightblue" stroke="midnightblue" points="252.51,-26.91 244.7,-19.75 246.35,-30.22 252.51,-26.91"/>
</g>
<!-- Node9 -->
<g id="node9" class="node">
<title>Node9</title>
<g id="a_node9"><a xlink:title=" ">
<polygon fill="white" stroke="#bfbfbf" points="274.5,-0.5 274.5,-19.5 321.5,-19.5 321.5,-0.5 274.5,-0.5"/>
<text text-anchor="middle" x="298" y="-7.5" font-family="Helvetica,sans-Serif" font-size="10.00">vector</text>
</a>
</g>
</g>
<!-- Node5&#45;&gt;Node9 -->
<g id="edge8" class="edge">
<title>Node5&#45;&gt;Node9</title>
<path fill="none" stroke="midnightblue" d="M273.79,-56.08C277.76,-48.69 283.53,-37.95 288.43,-28.81"/>
<polygon fill="midnightblue" stroke="midnightblue" points="291.65,-30.22 293.3,-19.75 285.49,-26.91 291.65,-30.22"/>
</g>
<!-- Node10 -->
<g id="node10" class="node">
<title>Node10</title>
<g id="a_node10"><a xlink:title=" ">
<polygon fill="white" stroke="#bfbfbf" points="340,-0.5 340,-19.5 378,-19.5 378,-0.5 340,-0.5"/>
<text text-anchor="middle" x="359" y="-7.5" font-family="Helvetica,sans-Serif" font-size="10.00">map</text>
</a>
</g>
</g>
<!-- Node5&#45;&gt;Node10 -->
<g id="edge9" class="edge">
<title>Node5&#45;&gt;Node10</title>
<path fill="none" stroke="midnightblue" d="M283.46,-56.32C297.5,-47.9 319.05,-34.97 335.54,-25.07"/>
<polygon fill="midnightblue" stroke="midnightblue" points="337.8,-27.8 344.58,-19.65 334.2,-21.8 337.8,-27.8"/>
</g>
<!-- Node11 -->
<g id="node11" class="node">
<title>Node11</title>
<g id="a_node11"><a xlink:href="../../d9/d49/types_8h.html" target="_top" xlink:title="Declares common types used in the ajabase library.">
<polygon fill="white" stroke="black" points="396,-0.5 396,-19.5 536,-19.5 536,-0.5 396,-0.5"/>
<text text-anchor="middle" x="466" y="-7.5" font-family="Helvetica,sans-Serif" font-size="10.00">ajabase/common/types.h</text>
</a>
</g>
</g>
<!-- Node5&#45;&gt;Node11 -->
<g id="edge10" class="edge">
<title>Node5&#45;&gt;Node11</title>
<path fill="none" stroke="midnightblue" d="M300.22,-56.44C333.93,-47.2 387.8,-32.44 424.93,-22.26"/>
<polygon fill="midnightblue" stroke="midnightblue" points="426.21,-25.54 434.93,-19.52 424.36,-18.78 426.21,-25.54"/>
</g>
</g>
</svg>
