<?xml version="1.0" encoding="UTF-8" standalone="no"?>
<!DOCTYPE svg PUBLIC "-//W3C//DTD SVG 1.1//EN"
 "http://www.w3.org/Graphics/SVG/1.1/DTD/svg11.dtd">
<!-- Generated by graphviz version 2.43.0 (0)
 -->
<!-- Title: /home/tcbuilder/buildAgent/work/df8e8cce5bebfd58/libajantv2/ajaanc/includes/ancillarydata_cea608.h Pages: 1 -->
<svg width="1106pt" height="228pt"
 viewBox="0.00 0.00 1105.50 228.00" xmlns="http://www.w3.org/2000/svg" xmlns:xlink="http://www.w3.org/1999/xlink">
<g id="graph0" class="graph" transform="scale(1 1) rotate(0) translate(4 224)">
<title>/home/tcbuilder/buildAgent/work/df8e8cce5bebfd58/libajantv2/ajaanc/includes/ancillarydata_cea608.h</title>
<polygon fill="white" stroke="transparent" points="-4,4 -4,-224 1101.5,-224 1101.5,4 -4,4"/>
<!-- Node1 -->
<g id="node1" class="node">
<title>Node1</title>
<g id="a_node1"><a xlink:title="Declares the AJAAncillaryData_Cea608 class.">
<polygon fill="#bfbfbf" stroke="black" points="431,-178.5 431,-219.5 643,-219.5 643,-178.5 431,-178.5"/>
<text text-anchor="start" x="439" y="-207.5" font-family="Helvetica,sans-Serif" font-size="10.00">/home/tcbuilder/buildAgent</text>
<text text-anchor="start" x="439" y="-196.5" font-family="Helvetica,sans-Serif" font-size="10.00">/work/df8e8cce5bebfd58/libajantv2</text>
<text text-anchor="middle" x="537" y="-185.5" font-family="Helvetica,sans-Serif" font-size="10.00">/ajaanc/includes/ancillarydata_cea608.h</text>
</a>
</g>
</g>
<!-- Node2 -->
<g id="node2" class="node">
<title>Node2</title>
<g id="a_node2"><a xlink:href="../../df/d6a/ancillarydata__cea608__line21_8h.html" target="_top" xlink:title="Declares the AJAAncillaryData_Cea608_line21 class.">
<polygon fill="white" stroke="black" points="229,-89.5 229,-141.5 417,-141.5 417,-89.5 229,-89.5"/>
<text text-anchor="start" x="237" y="-129.5" font-family="Helvetica,sans-Serif" font-size="10.00">/home/tcbuilder/buildAgent</text>
<text text-anchor="start" x="237" y="-118.5" font-family="Helvetica,sans-Serif" font-size="10.00">/work/df8e8cce5bebfd58/libajantv2</text>
<text text-anchor="start" x="237" y="-107.5" font-family="Helvetica,sans-Serif" font-size="10.00">/ajaanc/includes/ancillarydata</text>
<text text-anchor="middle" x="323" y="-96.5" font-family="Helvetica,sans-Serif" font-size="10.00">_cea608_line21.h</text>
</a>
</g>
</g>
<!-- Node1&#45;&gt;Node2 -->
<g id="edge1" class="edge">
<title>Node1&#45;&gt;Node2</title>
<path fill="none" stroke="midnightblue" d="M476.31,-174.89C449.01,-164.49 416.73,-152.2 388.84,-141.58"/>
<polygon fill="midnightblue" stroke="midnightblue" points="475.15,-178.19 485.74,-178.48 477.64,-171.65 475.15,-178.19"/>
</g>
<!-- Node6 -->
<g id="node6" class="node">
<title>Node6</title>
<g id="a_node6"><a xlink:href="../../d8/d19/ancillarydata__cea608__vanc_8h.html" target="_top" xlink:title="Declares the AJAAncillaryData_Cea608_Vanc class.">
<polygon fill="white" stroke="black" points="443,-89.5 443,-141.5 631,-141.5 631,-89.5 443,-89.5"/>
<text text-anchor="start" x="451" y="-129.5" font-family="Helvetica,sans-Serif" font-size="10.00">/home/tcbuilder/buildAgent</text>
<text text-anchor="start" x="451" y="-118.5" font-family="Helvetica,sans-Serif" font-size="10.00">/work/df8e8cce5bebfd58/libajantv2</text>
<text text-anchor="start" x="451" y="-107.5" font-family="Helvetica,sans-Serif" font-size="10.00">/ajaanc/includes/ancillarydata</text>
<text text-anchor="middle" x="537" y="-96.5" font-family="Helvetica,sans-Serif" font-size="10.00">_cea608_vanc.h</text>
</a>
</g>
</g>
<!-- Node1&#45;&gt;Node6 -->
<g id="edge5" class="edge">
<title>Node1&#45;&gt;Node6</title>
<path fill="none" stroke="midnightblue" d="M537,-168.12C537,-159.41 537,-149.99 537,-141.61"/>
<polygon fill="midnightblue" stroke="midnightblue" points="533.5,-168.27 537,-178.27 540.5,-168.27 533.5,-168.27"/>
</g>
<!-- Node9 -->
<g id="node9" class="node">
<title>Node9</title>
<g id="a_node9"><a xlink:href="../../d6/d5a/ancillarydata__cea608_8cpp.html" target="_top" xlink:title="Declares the AJAAncillaryData_Cea608 class.">
<polygon fill="white" stroke="black" points="649.5,-95 649.5,-136 846.5,-136 846.5,-95 649.5,-95"/>
<text text-anchor="start" x="657.5" y="-124" font-family="Helvetica,sans-Serif" font-size="10.00">/home/tcbuilder/buildAgent</text>
<text text-anchor="start" x="657.5" y="-113" font-family="Helvetica,sans-Serif" font-size="10.00">/work/df8e8cce5bebfd58/libajantv2</text>
<text text-anchor="middle" x="748" y="-102" font-family="Helvetica,sans-Serif" font-size="10.00">/ajaanc/src/ancillarydata_cea608.cpp</text>
</a>
</g>
</g>
<!-- Node1&#45;&gt;Node9 -->
<g id="edge10" class="edge">
<title>Node1&#45;&gt;Node9</title>
<path fill="none" stroke="midnightblue" d="M597.15,-174.77C628.87,-162.51 667.35,-147.65 697.51,-136"/>
<polygon fill="midnightblue" stroke="midnightblue" points="595.61,-171.61 587.54,-178.48 598.13,-178.14 595.61,-171.61"/>
</g>
<!-- Node3 -->
<g id="node3" class="node">
<title>Node3</title>
<g id="a_node3"><a xlink:href="../../dc/d45/ancillarydata__cea608__line21_8cpp.html" target="_top" xlink:title="Implements the AJAAncillaryData_Cea608_line21 class.">
<polygon fill="white" stroke="black" points="0,-0.5 0,-52.5 188,-52.5 188,-0.5 0,-0.5"/>
<text text-anchor="start" x="8" y="-40.5" font-family="Helvetica,sans-Serif" font-size="10.00">/home/tcbuilder/buildAgent</text>
<text text-anchor="start" x="8" y="-29.5" font-family="Helvetica,sans-Serif" font-size="10.00">/work/df8e8cce5bebfd58/libajantv2</text>
<text text-anchor="start" x="8" y="-18.5" font-family="Helvetica,sans-Serif" font-size="10.00">/ajaanc/src/ancillarydata_cea608</text>
<text text-anchor="middle" x="94" y="-7.5" font-family="Helvetica,sans-Serif" font-size="10.00">_line21.cpp</text>
</a>
</g>
</g>
<!-- Node2&#45;&gt;Node3 -->
<g id="edge2" class="edge">
<title>Node2&#45;&gt;Node3</title>
<path fill="none" stroke="midnightblue" d="M247.61,-85.86C219.26,-75.09 187.27,-62.94 159.86,-52.52"/>
<polygon fill="midnightblue" stroke="midnightblue" points="246.48,-89.17 257.07,-89.45 248.97,-82.63 246.48,-89.17"/>
</g>
<!-- Node4 -->
<g id="node4" class="node">
<title>Node4</title>
<g id="a_node4"><a xlink:href="../../da/d7b/ancillarydatafactory_8cpp.html" target="_top" xlink:title="Implementation of the AJAAncillaryDataFactory class.">
<polygon fill="white" stroke="black" points="442.5,-6 442.5,-47 631.5,-47 631.5,-6 442.5,-6"/>
<text text-anchor="start" x="450.5" y="-35" font-family="Helvetica,sans-Serif" font-size="10.00">/home/tcbuilder/buildAgent</text>
<text text-anchor="start" x="450.5" y="-24" font-family="Helvetica,sans-Serif" font-size="10.00">/work/df8e8cce5bebfd58/libajantv2</text>
<text text-anchor="middle" x="537" y="-13" font-family="Helvetica,sans-Serif" font-size="10.00">/ajaanc/src/ancillarydatafactory.cpp</text>
</a>
</g>
</g>
<!-- Node2&#45;&gt;Node4 -->
<g id="edge3" class="edge">
<title>Node2&#45;&gt;Node4</title>
<path fill="none" stroke="midnightblue" d="M394.09,-85.6C425.16,-72.97 460.79,-58.48 488.71,-47.13"/>
<polygon fill="midnightblue" stroke="midnightblue" points="392.56,-82.44 384.61,-89.45 395.19,-88.93 392.56,-82.44"/>
</g>
<!-- Node5 -->
<g id="node5" class="node">
<title>Node5</title>
<g id="a_node5"><a xlink:href="../../d9/dca/ntv2ccgrabber_8cpp.html" target="_top" xlink:title="Implementation of NTV2CCGrabber class.">
<polygon fill="white" stroke="black" points="206,-6 206,-47 424,-47 424,-6 206,-6"/>
<text text-anchor="start" x="214" y="-35" font-family="Helvetica,sans-Serif" font-size="10.00">/home/tcbuilder/buildAgent</text>
<text text-anchor="start" x="214" y="-24" font-family="Helvetica,sans-Serif" font-size="10.00">/work/df8e8cce5bebfd58/libajantv2</text>
<text text-anchor="middle" x="315" y="-13" font-family="Helvetica,sans-Serif" font-size="10.00">/demos/ntv2ccgrabber/ntv2ccgrabber.cpp</text>
</a>
</g>
</g>
<!-- Node2&#45;&gt;Node5 -->
<g id="edge4" class="edge">
<title>Node2&#45;&gt;Node5</title>
<path fill="none" stroke="midnightblue" d="M319.75,-79.16C318.74,-68.21 317.67,-56.55 316.8,-47.08"/>
<polygon fill="midnightblue" stroke="midnightblue" points="316.29,-79.7 320.69,-89.34 323.26,-79.06 316.29,-79.7"/>
</g>
<!-- Node6&#45;&gt;Node4 -->
<g id="edge7" class="edge">
<title>Node6&#45;&gt;Node4</title>
<path fill="none" stroke="midnightblue" d="M537,-79.16C537,-68.21 537,-56.55 537,-47.08"/>
<polygon fill="midnightblue" stroke="midnightblue" points="533.5,-79.34 537,-89.34 540.5,-79.34 533.5,-79.34"/>
</g>
<!-- Node6&#45;&gt;Node5 -->
<g id="edge8" class="edge">
<title>Node6&#45;&gt;Node5</title>
<path fill="none" stroke="midnightblue" d="M463.67,-85.76C431.34,-73.09 394.18,-58.53 365.1,-47.13"/>
<polygon fill="midnightblue" stroke="midnightblue" points="462.5,-89.06 473.09,-89.45 465.05,-82.55 462.5,-89.06"/>
</g>
<!-- Node7 -->
<g id="node7" class="node">
<title>Node7</title>
<g id="a_node7"><a xlink:href="../../dd/d82/ancillarydata__cea608__vanc_8cpp.html" target="_top" xlink:title="Implements the AJAAncillaryData_Cea608_Vanc class.">
<polygon fill="white" stroke="black" points="872.5,-6 872.5,-47 1097.5,-47 1097.5,-6 872.5,-6"/>
<text text-anchor="start" x="880.5" y="-35" font-family="Helvetica,sans-Serif" font-size="10.00">/home/tcbuilder/buildAgent</text>
<text text-anchor="start" x="880.5" y="-24" font-family="Helvetica,sans-Serif" font-size="10.00">/work/df8e8cce5bebfd58/libajantv2</text>
<text text-anchor="middle" x="985" y="-13" font-family="Helvetica,sans-Serif" font-size="10.00">/ajaanc/src/ancillarydata_cea608_vanc.cpp</text>
</a>
</g>
</g>
<!-- Node6&#45;&gt;Node7 -->
<g id="edge6" class="edge">
<title>Node6&#45;&gt;Node7</title>
<path fill="none" stroke="midnightblue" d="M640.69,-89.06C640.8,-89.04 640.9,-89.02 641,-89 738.95,-69.08 764.72,-71.23 863,-53 873,-51.15 883.44,-49.11 893.82,-47.03"/>
<polygon fill="midnightblue" stroke="midnightblue" points="640.1,-85.61 631.03,-91.09 641.53,-92.46 640.1,-85.61"/>
</g>
<!-- Node8 -->
<g id="node8" class="node">
<title>Node8</title>
<g id="a_node8"><a xlink:href="../../de/d67/ntv2ccplayer_8cpp.html" target="_top" xlink:title="Implementation of NTV2CCPlayer class.">
<polygon fill="white" stroke="black" points="650,-6 650,-47 854,-47 854,-6 650,-6"/>
<text text-anchor="start" x="658" y="-35" font-family="Helvetica,sans-Serif" font-size="10.00">/home/tcbuilder/buildAgent</text>
<text text-anchor="start" x="658" y="-24" font-family="Helvetica,sans-Serif" font-size="10.00">/work/df8e8cce5bebfd58/libajantv2</text>
<text text-anchor="middle" x="752" y="-13" font-family="Helvetica,sans-Serif" font-size="10.00">/demos/ntv2ccplayer/ntv2ccplayer.cpp</text>
</a>
</g>
</g>
<!-- Node6&#45;&gt;Node8 -->
<g id="edge9" class="edge">
<title>Node6&#45;&gt;Node8</title>
<path fill="none" stroke="midnightblue" d="M608.42,-85.6C639.63,-72.97 675.44,-58.48 703.48,-47.13"/>
<polygon fill="midnightblue" stroke="midnightblue" points="606.86,-82.46 598.9,-89.45 609.48,-88.95 606.86,-82.46"/>
</g>
</g>
</svg>
