<?xml version="1.0" encoding="UTF-8" standalone="no"?>
<!DOCTYPE svg PUBLIC "-//W3C//DTD SVG 1.1//EN"
 "http://www.w3.org/Graphics/SVG/1.1/DTD/svg11.dtd">
<!-- Generated by graphviz version 2.43.0 (0)
 -->
<!-- Title: /home/tcbuilder/buildAgent/work/df8e8cce5bebfd58/libajantv2/ajantv2/includes/ntv2vpid.h Pages: 1 -->
<svg width="933pt" height="206pt"
 viewBox="0.00 0.00 933.00 206.00" xmlns="http://www.w3.org/2000/svg" xmlns:xlink="http://www.w3.org/1999/xlink">
<g id="graph0" class="graph" transform="scale(1 1) rotate(0) translate(4 202)">
<title>/home/tcbuilder/buildAgent/work/df8e8cce5bebfd58/libajantv2/ajantv2/includes/ntv2vpid.h</title>
<polygon fill="white" stroke="transparent" points="-4,4 -4,-202 929,-202 929,4 -4,4"/>
<!-- Node1 -->
<g id="node1" class="node">
<title>Node1</title>
<g id="a_node1"><a xlink:title="Declares the CNTV2VPID class. See SMPTE 352 standard for details.">
<polygon fill="#bfbfbf" stroke="black" points="428,-156.5 428,-197.5 616,-197.5 616,-156.5 428,-156.5"/>
<text text-anchor="start" x="436" y="-185.5" font-family="Helvetica,sans-Serif" font-size="10.00">/home/tcbuilder/buildAgent</text>
<text text-anchor="start" x="436" y="-174.5" font-family="Helvetica,sans-Serif" font-size="10.00">/work/df8e8cce5bebfd58/libajantv2</text>
<text text-anchor="middle" x="522" y="-163.5" font-family="Helvetica,sans-Serif" font-size="10.00">/ajantv2/includes/ntv2vpid.h</text>
</a>
</g>
</g>
<!-- Node2 -->
<g id="node2" class="node">
<title>Node2</title>
<g id="a_node2"><a xlink:href="../../da/d4f/ntv2ccgrabber_8h.html" target="_top" xlink:title="Header file for NTV2CCGrabber demonstration class.">
<polygon fill="white" stroke="black" points="101,-78.5 101,-119.5 307,-119.5 307,-78.5 101,-78.5"/>
<text text-anchor="start" x="109" y="-107.5" font-family="Helvetica,sans-Serif" font-size="10.00">/home/tcbuilder/buildAgent</text>
<text text-anchor="start" x="109" y="-96.5" font-family="Helvetica,sans-Serif" font-size="10.00">/work/df8e8cce5bebfd58/libajantv2</text>
<text text-anchor="middle" x="204" y="-85.5" font-family="Helvetica,sans-Serif" font-size="10.00">/demos/ntv2ccgrabber/ntv2ccgrabber.h</text>
</a>
</g>
</g>
<!-- Node1&#45;&gt;Node2 -->
<g id="edge1" class="edge">
<title>Node1&#45;&gt;Node2</title>
<path fill="none" stroke="midnightblue" d="M430.21,-154.06C384.54,-143.15 329.8,-130.07 285.62,-119.51"/>
<polygon fill="midnightblue" stroke="midnightblue" points="429.57,-157.51 440.11,-156.43 431.19,-150.7 429.57,-157.51"/>
</g>
<!-- Node5 -->
<g id="node5" class="node">
<title>Node5</title>
<g id="a_node5"><a xlink:href="../../d7/da9/ntv2register_8cpp.html" target="_top" xlink:title="Implements most of CNTV2Card&#39;s register&#45;based functions.">
<polygon fill="white" stroke="black" points="325,-78.5 325,-119.5 513,-119.5 513,-78.5 325,-78.5"/>
<text text-anchor="start" x="333" y="-107.5" font-family="Helvetica,sans-Serif" font-size="10.00">/home/tcbuilder/buildAgent</text>
<text text-anchor="start" x="333" y="-96.5" font-family="Helvetica,sans-Serif" font-size="10.00">/work/df8e8cce5bebfd58/libajantv2</text>
<text text-anchor="middle" x="419" y="-85.5" font-family="Helvetica,sans-Serif" font-size="10.00">/ajantv2/src/ntv2register.cpp</text>
</a>
</g>
</g>
<!-- Node1&#45;&gt;Node5 -->
<g id="edge4" class="edge">
<title>Node1&#45;&gt;Node5</title>
<path fill="none" stroke="midnightblue" d="M487.24,-150.35C473.58,-140.27 458.16,-128.89 445.44,-119.51"/>
<polygon fill="midnightblue" stroke="midnightblue" points="485.35,-153.31 495.47,-156.43 489.51,-147.67 485.35,-153.31"/>
</g>
<!-- Node6 -->
<g id="node6" class="node">
<title>Node6</title>
<g id="a_node6"><a xlink:href="../../d1/d1f/ntv2registerexpert_8cpp.html" target="_top" xlink:title="Implements the CNTV2RegisterExpert class.">
<polygon fill="white" stroke="black" points="531,-78.5 531,-119.5 719,-119.5 719,-78.5 531,-78.5"/>
<text text-anchor="start" x="539" y="-107.5" font-family="Helvetica,sans-Serif" font-size="10.00">/home/tcbuilder/buildAgent</text>
<text text-anchor="start" x="539" y="-96.5" font-family="Helvetica,sans-Serif" font-size="10.00">/work/df8e8cce5bebfd58/libajantv2</text>
<text text-anchor="middle" x="625" y="-85.5" font-family="Helvetica,sans-Serif" font-size="10.00">/ajantv2/src/ntv2registerexpert.cpp</text>
</a>
</g>
</g>
<!-- Node1&#45;&gt;Node6 -->
<g id="edge5" class="edge">
<title>Node1&#45;&gt;Node6</title>
<path fill="none" stroke="midnightblue" d="M556.76,-150.35C570.42,-140.27 585.84,-128.89 598.56,-119.51"/>
<polygon fill="midnightblue" stroke="midnightblue" points="554.49,-147.67 548.53,-156.43 558.65,-153.31 554.49,-147.67"/>
</g>
<!-- Node7 -->
<g id="node7" class="node">
<title>Node7</title>
<g id="a_node7"><a xlink:href="../../d4/dd5/ntv2vpid_8cpp.html" target="_top" xlink:title="Implements the CNTV2VPID class. See the SMPTE 352 standard for details.">
<polygon fill="white" stroke="black" points="737,-78.5 737,-119.5 925,-119.5 925,-78.5 737,-78.5"/>
<text text-anchor="start" x="745" y="-107.5" font-family="Helvetica,sans-Serif" font-size="10.00">/home/tcbuilder/buildAgent</text>
<text text-anchor="start" x="745" y="-96.5" font-family="Helvetica,sans-Serif" font-size="10.00">/work/df8e8cce5bebfd58/libajantv2</text>
<text text-anchor="middle" x="831" y="-85.5" font-family="Helvetica,sans-Serif" font-size="10.00">/ajantv2/src/ntv2vpid.cpp</text>
</a>
</g>
</g>
<!-- Node1&#45;&gt;Node7 -->
<g id="edge6" class="edge">
<title>Node1&#45;&gt;Node7</title>
<path fill="none" stroke="midnightblue" d="M611.47,-153.99C655.79,-143.09 708.85,-130.04 751.69,-119.51"/>
<polygon fill="midnightblue" stroke="midnightblue" points="610.45,-150.64 601.58,-156.43 612.12,-157.44 610.45,-150.64"/>
</g>
<!-- Node3 -->
<g id="node3" class="node">
<title>Node3</title>
<g id="a_node3"><a xlink:href="../../d3/dbe/ntv2ccgrabber_2main_8cpp.html" target="_top" xlink:title="Demonstration application that grabs closed&#45;captioning data from frames captured from SDI input (usin...">
<polygon fill="white" stroke="black" points="0,-0.5 0,-41.5 188,-41.5 188,-0.5 0,-0.5"/>
<text text-anchor="start" x="8" y="-29.5" font-family="Helvetica,sans-Serif" font-size="10.00">/home/tcbuilder/buildAgent</text>
<text text-anchor="start" x="8" y="-18.5" font-family="Helvetica,sans-Serif" font-size="10.00">/work/df8e8cce5bebfd58/libajantv2</text>
<text text-anchor="middle" x="94" y="-7.5" font-family="Helvetica,sans-Serif" font-size="10.00">/demos/ntv2ccgrabber/main.cpp</text>
</a>
</g>
</g>
<!-- Node2&#45;&gt;Node3 -->
<g id="edge2" class="edge">
<title>Node2&#45;&gt;Node3</title>
<path fill="none" stroke="midnightblue" d="M167.29,-72.64C152.6,-62.49 135.95,-50.98 122.23,-41.51"/>
<polygon fill="midnightblue" stroke="midnightblue" points="165.46,-75.62 175.67,-78.43 169.43,-69.86 165.46,-75.62"/>
</g>
<!-- Node4 -->
<g id="node4" class="node">
<title>Node4</title>
<g id="a_node4"><a xlink:href="../../d9/dca/ntv2ccgrabber_8cpp.html" target="_top" xlink:title="Implementation of NTV2CCGrabber class.">
<polygon fill="white" stroke="black" points="206,-0.5 206,-41.5 424,-41.5 424,-0.5 206,-0.5"/>
<text text-anchor="start" x="214" y="-29.5" font-family="Helvetica,sans-Serif" font-size="10.00">/home/tcbuilder/buildAgent</text>
<text text-anchor="start" x="214" y="-18.5" font-family="Helvetica,sans-Serif" font-size="10.00">/work/df8e8cce5bebfd58/libajantv2</text>
<text text-anchor="middle" x="315" y="-7.5" font-family="Helvetica,sans-Serif" font-size="10.00">/demos/ntv2ccgrabber/ntv2ccgrabber.cpp</text>
</a>
</g>
</g>
<!-- Node2&#45;&gt;Node4 -->
<g id="edge3" class="edge">
<title>Node2&#45;&gt;Node4</title>
<path fill="none" stroke="midnightblue" d="M241.05,-72.64C255.87,-62.49 272.67,-50.98 286.51,-41.51"/>
<polygon fill="midnightblue" stroke="midnightblue" points="238.86,-69.89 232.59,-78.43 242.81,-75.67 238.86,-69.89"/>
</g>
</g>
</svg>
