<?xml version="1.0" encoding="UTF-8" standalone="no"?>
<!DOCTYPE svg PUBLIC "-//W3C//DTD SVG 1.1//EN"
 "http://www.w3.org/Graphics/SVG/1.1/DTD/svg11.dtd">
<!-- Generated by graphviz version 2.43.0 (0)
 -->
<!-- Title: /home/tcbuilder/buildAgent/work/df8e8cce5bebfd58/libajantv2/ajabase/system/windows/threadimpl.h Pages: 1 -->
<svg width="662pt" height="218pt"
 viewBox="0.00 0.00 662.00 218.00" xmlns="http://www.w3.org/2000/svg" xmlns:xlink="http://www.w3.org/1999/xlink">
<g id="graph0" class="graph" transform="scale(1 1) rotate(0) translate(4 214)">
<title>/home/tcbuilder/buildAgent/work/df8e8cce5bebfd58/libajantv2/ajabase/system/windows/threadimpl.h</title>
<polygon fill="white" stroke="transparent" points="-4,4 -4,-214 658,-214 658,4 -4,4"/>
<!-- Node1 -->
<g id="node1" class="node">
<title>Node1</title>
<g id="a_node1"><a xlink:title="Declares the AJAThreadImpl class.">
<polygon fill="#bfbfbf" stroke="black" points="247,-168.5 247,-209.5 455,-209.5 455,-168.5 247,-168.5"/>
<text text-anchor="start" x="255" y="-197.5" font-family="Helvetica,sans-Serif" font-size="10.00">/home/tcbuilder/buildAgent</text>
<text text-anchor="start" x="255" y="-186.5" font-family="Helvetica,sans-Serif" font-size="10.00">/work/df8e8cce5bebfd58/libajantv2</text>
<text text-anchor="middle" x="351" y="-175.5" font-family="Helvetica,sans-Serif" font-size="10.00">/ajabase/system/windows/threadimpl.h</text>
</a>
</g>
</g>
<!-- Node2 -->
<g id="node2" class="node">
<title>Node2</title>
<g id="a_node2"><a xlink:href="../../dc/db2/system_8h.html" target="_top" xlink:title="System specific functions.">
<polygon fill="white" stroke="black" points="201,-112.5 201,-131.5 343,-131.5 343,-112.5 201,-112.5"/>
<text text-anchor="middle" x="272" y="-119.5" font-family="Helvetica,sans-Serif" font-size="10.00">ajabase/system/system.h</text>
</a>
</g>
</g>
<!-- Node1&#45;&gt;Node2 -->
<g id="edge1" class="edge">
<title>Node1&#45;&gt;Node2</title>
<path fill="none" stroke="midnightblue" d="M327.3,-168.5C315.42,-158.72 301.26,-147.07 290.24,-138.01"/>
<polygon fill="midnightblue" stroke="midnightblue" points="292.46,-135.3 282.52,-131.65 288.01,-140.71 292.46,-135.3"/>
</g>
<!-- Node10 -->
<g id="node10" class="node">
<title>Node10</title>
<g id="a_node10"><a xlink:href="../../dc/d54/common_8h.html" target="_top" xlink:title="Private include file for all ajabase sources.">
<polygon fill="white" stroke="black" points="106.5,-56.5 106.5,-75.5 261.5,-75.5 261.5,-56.5 106.5,-56.5"/>
<text text-anchor="middle" x="184" y="-63.5" font-family="Helvetica,sans-Serif" font-size="10.00">ajabase/common/common.h</text>
</a>
</g>
</g>
<!-- Node1&#45;&gt;Node10 -->
<g id="edge9" class="edge">
<title>Node1&#45;&gt;Node10</title>
<path fill="none" stroke="midnightblue" d="M246.8,-169.75C225.87,-161.47 206.03,-149.45 192,-132 181.65,-119.14 180.47,-99.96 181.38,-85.76"/>
<polygon fill="midnightblue" stroke="midnightblue" points="184.88,-85.97 182.43,-75.66 177.92,-85.25 184.88,-85.97"/>
</g>
<!-- Node13 -->
<g id="node13" class="node">
<title>Node13</title>
<g id="a_node13"><a xlink:href="../../db/dd5/thread_8h.html" target="_top" xlink:title="Declares the AJAThread class.">
<polygon fill="white" stroke="black" points="361.5,-112.5 361.5,-131.5 498.5,-131.5 498.5,-112.5 361.5,-112.5"/>
<text text-anchor="middle" x="430" y="-119.5" font-family="Helvetica,sans-Serif" font-size="10.00">ajabase/system/thread.h</text>
</a>
</g>
</g>
<!-- Node1&#45;&gt;Node13 -->
<g id="edge15" class="edge">
<title>Node1&#45;&gt;Node13</title>
<path fill="none" stroke="midnightblue" d="M374.7,-168.5C386.58,-158.72 400.74,-147.07 411.76,-138.01"/>
<polygon fill="midnightblue" stroke="midnightblue" points="413.99,-140.71 419.48,-131.65 409.54,-135.3 413.99,-140.71"/>
</g>
<!-- Node14 -->
<g id="node14" class="node">
<title>Node14</title>
<g id="a_node14"><a xlink:href="../../dd/d42/lock_8h.html" target="_top" xlink:title="Declares the AJALock class.">
<polygon fill="white" stroke="black" points="517,-112.5 517,-131.5 643,-131.5 643,-112.5 517,-112.5"/>
<text text-anchor="middle" x="580" y="-119.5" font-family="Helvetica,sans-Serif" font-size="10.00">ajabase/system/lock.h</text>
</a>
</g>
</g>
<!-- Node1&#45;&gt;Node14 -->
<g id="edge17" class="edge">
<title>Node1&#45;&gt;Node14</title>
<path fill="none" stroke="midnightblue" d="M419.71,-168.5C458.99,-157.35 506.88,-143.76 540.03,-134.35"/>
<polygon fill="midnightblue" stroke="midnightblue" points="541.15,-137.66 549.82,-131.57 539.24,-130.93 541.15,-137.66"/>
</g>
<!-- Node3 -->
<g id="node3" class="node">
<title>Node3</title>
<g id="a_node3"><a xlink:href="../../d4/d79/public_8h.html" target="_top" xlink:title="Master header for the ajabase library.">
<polygon fill="white" stroke="black" points="353,-56.5 353,-75.5 495,-75.5 495,-56.5 353,-56.5"/>
<text text-anchor="middle" x="424" y="-63.5" font-family="Helvetica,sans-Serif" font-size="10.00">ajabase/common/public.h</text>
</a>
</g>
</g>
<!-- Node2&#45;&gt;Node3 -->
<g id="edge2" class="edge">
<title>Node2&#45;&gt;Node3</title>
<path fill="none" stroke="midnightblue" d="M296.08,-112.44C321.54,-103.4 361.89,-89.06 390.46,-78.92"/>
<polygon fill="midnightblue" stroke="midnightblue" points="391.78,-82.16 400.03,-75.52 389.43,-75.57 391.78,-82.16"/>
</g>
<!-- Node4 -->
<g id="node4" class="node">
<title>Node4</title>
<g id="a_node4"><a xlink:href="../../db/db5/export_8h.html" target="_top" xlink:title="Declares system&#45;dependent import/export macros and libraries.">
<polygon fill="white" stroke="black" points="118,-0.5 118,-19.5 262,-19.5 262,-0.5 118,-0.5"/>
<text text-anchor="middle" x="190" y="-7.5" font-family="Helvetica,sans-Serif" font-size="10.00">ajabase/common/export.h</text>
</a>
</g>
</g>
<!-- Node3&#45;&gt;Node4 -->
<g id="edge3" class="edge">
<title>Node3&#45;&gt;Node4</title>
<path fill="none" stroke="midnightblue" d="M386.92,-56.44C346.27,-47.06 280.97,-31.99 236.82,-21.8"/>
<polygon fill="midnightblue" stroke="midnightblue" points="237.44,-18.35 226.9,-19.52 235.86,-25.18 237.44,-18.35"/>
</g>
<!-- Node5 -->
<g id="node5" class="node">
<title>Node5</title>
<g id="a_node5"><a xlink:title=" ">
<polygon fill="white" stroke="#bfbfbf" points="280,-0.5 280,-19.5 324,-19.5 324,-0.5 280,-0.5"/>
<text text-anchor="middle" x="302" y="-7.5" font-family="Helvetica,sans-Serif" font-size="10.00">string</text>
</a>
</g>
</g>
<!-- Node3&#45;&gt;Node5 -->
<g id="edge4" class="edge">
<title>Node3&#45;&gt;Node5</title>
<path fill="none" stroke="midnightblue" d="M404.67,-56.44C384.68,-47.6 353.26,-33.69 330.44,-23.59"/>
<polygon fill="midnightblue" stroke="midnightblue" points="331.8,-20.36 321.24,-19.52 328.97,-26.76 331.8,-20.36"/>
</g>
<!-- Node6 -->
<g id="node6" class="node">
<title>Node6</title>
<g id="a_node6"><a xlink:title=" ">
<polygon fill="white" stroke="#bfbfbf" points="408,-0.5 408,-19.5 440,-19.5 440,-0.5 408,-0.5"/>
<text text-anchor="middle" x="424" y="-7.5" font-family="Helvetica,sans-Serif" font-size="10.00">list</text>
</a>
</g>
</g>
<!-- Node3&#45;&gt;Node6 -->
<g id="edge5" class="edge">
<title>Node3&#45;&gt;Node6</title>
<path fill="none" stroke="midnightblue" d="M424,-56.08C424,-49.01 424,-38.86 424,-29.99"/>
<polygon fill="midnightblue" stroke="midnightblue" points="427.5,-29.75 424,-19.75 420.5,-29.75 427.5,-29.75"/>
</g>
<!-- Node7 -->
<g id="node7" class="node">
<title>Node7</title>
<g id="a_node7"><a xlink:title=" ">
<polygon fill="white" stroke="#bfbfbf" points="342.5,-0.5 342.5,-19.5 389.5,-19.5 389.5,-0.5 342.5,-0.5"/>
<text text-anchor="middle" x="366" y="-7.5" font-family="Helvetica,sans-Serif" font-size="10.00">vector</text>
</a>
</g>
</g>
<!-- Node3&#45;&gt;Node7 -->
<g id="edge6" class="edge">
<title>Node3&#45;&gt;Node7</title>
<path fill="none" stroke="midnightblue" d="M414.68,-56.32C406.11,-48.34 393.19,-36.31 382.81,-26.65"/>
<polygon fill="midnightblue" stroke="midnightblue" points="385.19,-24.09 375.49,-19.83 380.42,-29.21 385.19,-24.09"/>
</g>
<!-- Node8 -->
<g id="node8" class="node">
<title>Node8</title>
<g id="a_node8"><a xlink:title=" ">
<polygon fill="white" stroke="#bfbfbf" points="458,-0.5 458,-19.5 496,-19.5 496,-0.5 458,-0.5"/>
<text text-anchor="middle" x="477" y="-7.5" font-family="Helvetica,sans-Serif" font-size="10.00">map</text>
</a>
</g>
</g>
<!-- Node3&#45;&gt;Node8 -->
<g id="edge7" class="edge">
<title>Node3&#45;&gt;Node8</title>
<path fill="none" stroke="midnightblue" d="M432.75,-56.08C440.47,-48.22 451.9,-36.57 461.22,-27.08"/>
<polygon fill="midnightblue" stroke="midnightblue" points="463.9,-29.34 468.41,-19.75 458.91,-24.44 463.9,-29.34"/>
</g>
<!-- Node9 -->
<g id="node9" class="node">
<title>Node9</title>
<g id="a_node9"><a xlink:href="../../d9/d49/types_8h.html" target="_top" xlink:title="Declares common types used in the ajabase library.">
<polygon fill="white" stroke="black" points="514,-0.5 514,-19.5 654,-19.5 654,-0.5 514,-0.5"/>
<text text-anchor="middle" x="584" y="-7.5" font-family="Helvetica,sans-Serif" font-size="10.00">ajabase/common/types.h</text>
</a>
</g>
</g>
<!-- Node3&#45;&gt;Node9 -->
<g id="edge8" class="edge">
<title>Node3&#45;&gt;Node9</title>
<path fill="none" stroke="midnightblue" d="M449.35,-56.44C476.27,-47.36 519,-32.94 549.09,-22.78"/>
<polygon fill="midnightblue" stroke="midnightblue" points="550.41,-26.03 558.77,-19.52 548.17,-19.4 550.41,-26.03"/>
</g>
<!-- Node10&#45;&gt;Node4 -->
<g id="edge10" class="edge">
<title>Node10&#45;&gt;Node4</title>
<path fill="none" stroke="midnightblue" d="M184.99,-56.08C185.79,-48.93 186.93,-38.64 187.92,-29.69"/>
<polygon fill="midnightblue" stroke="midnightblue" points="191.4,-30.08 189.03,-19.75 184.44,-29.3 191.4,-30.08"/>
</g>
<!-- Node10&#45;&gt;Node5 -->
<g id="edge12" class="edge">
<title>Node10&#45;&gt;Node5</title>
<path fill="none" stroke="midnightblue" d="M202.7,-56.44C221.94,-47.64 252.15,-33.81 274.2,-23.72"/>
<polygon fill="midnightblue" stroke="midnightblue" points="275.75,-26.86 283.39,-19.52 272.84,-20.5 275.75,-26.86"/>
</g>
<!-- Node10&#45;&gt;Node7 -->
<g id="edge13" class="edge">
<title>Node10&#45;&gt;Node7</title>
<path fill="none" stroke="midnightblue" d="M212.84,-56.44C245.27,-46.82 297.87,-31.21 332.2,-21.03"/>
<polygon fill="midnightblue" stroke="midnightblue" points="333.64,-24.25 342.23,-18.05 331.64,-17.54 333.64,-24.25"/>
</g>
<!-- Node11 -->
<g id="node11" class="node">
<title>Node11</title>
<g id="a_node11"><a xlink:title=" ">
<polygon fill="white" stroke="#bfbfbf" points="0,-0.5 0,-19.5 32,-19.5 32,-0.5 0,-0.5"/>
<text text-anchor="middle" x="16" y="-7.5" font-family="Helvetica,sans-Serif" font-size="10.00">set</text>
</a>
</g>
</g>
<!-- Node10&#45;&gt;Node11 -->
<g id="edge11" class="edge">
<title>Node10&#45;&gt;Node11</title>
<path fill="none" stroke="midnightblue" d="M155.67,-56.46C128.66,-48.23 86.64,-35.22 41.73,-20.15"/>
<polygon fill="midnightblue" stroke="midnightblue" points="42.7,-16.79 32.1,-16.91 40.46,-23.42 42.7,-16.79"/>
</g>
<!-- Node12 -->
<g id="node12" class="node">
<title>Node12</title>
<g id="a_node12"><a xlink:title=" ">
<polygon fill="white" stroke="#bfbfbf" points="50,-0.5 50,-19.5 100,-19.5 100,-0.5 50,-0.5"/>
<text text-anchor="middle" x="75" y="-7.5" font-family="Helvetica,sans-Serif" font-size="10.00">cstdint</text>
</a>
</g>
</g>
<!-- Node10&#45;&gt;Node12 -->
<g id="edge14" class="edge">
<title>Node10&#45;&gt;Node12</title>
<path fill="none" stroke="midnightblue" d="M166.49,-56.32C148.93,-47.62 121.67,-34.12 101.47,-24.11"/>
<polygon fill="midnightblue" stroke="midnightblue" points="102.98,-20.96 92.47,-19.65 99.88,-27.23 102.98,-20.96"/>
</g>
<!-- Node13&#45;&gt;Node3 -->
<g id="edge16" class="edge">
<title>Node13&#45;&gt;Node3</title>
<path fill="none" stroke="midnightblue" d="M429.01,-112.08C428.21,-104.93 427.07,-94.64 426.08,-85.69"/>
<polygon fill="midnightblue" stroke="midnightblue" points="429.56,-85.3 424.97,-75.75 422.6,-86.08 429.56,-85.3"/>
</g>
<!-- Node14&#45;&gt;Node3 -->
<g id="edge18" class="edge">
<title>Node14&#45;&gt;Node3</title>
<path fill="none" stroke="midnightblue" d="M555.28,-112.44C529.15,-103.4 487.74,-89.06 458.42,-78.92"/>
<polygon fill="midnightblue" stroke="midnightblue" points="459.2,-75.48 448.6,-75.52 456.91,-82.1 459.2,-75.48"/>
</g>
<!-- Node15 -->
<g id="node15" class="node">
<title>Node15</title>
<g id="a_node15"><a xlink:title=" ">
<polygon fill="white" stroke="#bfbfbf" points="552,-56.5 552,-75.5 608,-75.5 608,-56.5 552,-56.5"/>
<text text-anchor="middle" x="580" y="-63.5" font-family="Helvetica,sans-Serif" font-size="10.00">assert.h</text>
</a>
</g>
</g>
<!-- Node14&#45;&gt;Node15 -->
<g id="edge19" class="edge">
<title>Node14&#45;&gt;Node15</title>
<path fill="none" stroke="midnightblue" d="M580,-112.08C580,-105.01 580,-94.86 580,-85.99"/>
<polygon fill="midnightblue" stroke="midnightblue" points="583.5,-85.75 580,-75.75 576.5,-85.75 583.5,-85.75"/>
</g>
</g>
</svg>
