<?xml version="1.0" encoding="UTF-8" standalone="no"?>
<!DOCTYPE svg PUBLIC "-//W3C//DTD SVG 1.1//EN"
 "http://www.w3.org/Graphics/SVG/1.1/DTD/svg11.dtd">
<!-- Generated by graphviz version 2.40.1 (0)
 -->
<!-- Title: /home/tcbuilder/buildAgent/work/df8e8cce5bebfd58/libajantv2/ajantv2/src/ntv2testpatterngen.cpp Pages: 1 -->
<svg width="1936pt" height="442pt"
 viewBox="0.00 0.00 1935.96 442.00" xmlns="http://www.w3.org/2000/svg" xmlns:xlink="http://www.w3.org/1999/xlink">
<g id="graph0" class="graph" transform="scale(1 1) rotate(0) translate(4 438)">
<title>/home/tcbuilder/buildAgent/work/df8e8cce5bebfd58/libajantv2/ajantv2/src/ntv2testpatterngen.cpp</title>
<polygon fill="#ffffff" stroke="transparent" points="-4,4 -4,-438 1931.9609,-438 1931.9609,4 -4,4"/>
<!-- Node0 -->
<g id="node1" class="node">
<title>Node0</title>
<polygon fill="#bfbfbf" stroke="#000000" points="1522,-392.5 1522,-433.5 1692,-433.5 1692,-392.5 1522,-392.5"/>
<text text-anchor="start" x="1530" y="-421.5" font-family="Helvetica,sans-Serif" font-size="10.00" fill="#000000">/home/tcbuilder/buildAgent</text>
<text text-anchor="start" x="1530" y="-410.5" font-family="Helvetica,sans-Serif" font-size="10.00" fill="#000000">/work/df8e8cce5bebfd58/libajantv2</text>
<text text-anchor="middle" x="1607" y="-399.5" font-family="Helvetica,sans-Serif" font-size="10.00" fill="#000000">/ajantv2/src/ntv2testpatterngen.cpp</text>
</g>
<!-- Node1 -->
<g id="node2" class="node">
<title>Node1</title>
<g id="a_node2"><a xlink:href="../../d0/d81/ntv2utils_8h.html" target="_top" xlink:title="Declares numerous NTV2 utility functions. ">
<polygon fill="#ffffff" stroke="#000000" points="576,-280.5 576,-299.5 638,-299.5 638,-280.5 576,-280.5"/>
<text text-anchor="middle" x="607" y="-287.5" font-family="Helvetica,sans-Serif" font-size="10.00" fill="#000000">ntv2utils.h</text>
</a>
</g>
</g>
<!-- Node0&#45;&gt;Node1 -->
<g id="edge1" class="edge">
<title>Node0&#45;&gt;Node1</title>
<path fill="none" stroke="#191970" d="M1521.984,-412.1882C1331.2543,-409.609 874.4347,-398.9968 727,-356 689.7211,-345.1283 651.1672,-321.2658 628.1378,-305.4129"/>
<polygon fill="#191970" stroke="#191970" points="630.0209,-302.4585 619.8267,-299.5723 625.9961,-308.1857 630.0209,-302.4585"/>
</g>
<!-- Node21 -->
<g id="node22" class="node">
<title>Node21</title>
<g id="a_node22"><a xlink:href="../../d2/da3/ntv2testpatterngen_8h.html" target="_top" xlink:title="Declares the NTV2TestPatternGen class. ">
<polygon fill="#ffffff" stroke="#000000" points="736,-336.5 736,-355.5 842,-355.5 842,-336.5 736,-336.5"/>
<text text-anchor="middle" x="789" y="-343.5" font-family="Helvetica,sans-Serif" font-size="10.00" fill="#000000">ntv2testpatterngen.h</text>
</a>
</g>
</g>
<!-- Node0&#45;&gt;Node21 -->
<g id="edge39" class="edge">
<title>Node0&#45;&gt;Node21</title>
<path fill="none" stroke="#191970" d="M1521.7746,-406.0194C1356.9359,-392.518 997.8755,-363.1084 852.2527,-351.1808"/>
<polygon fill="#191970" stroke="#191970" points="852.3947,-347.6808 842.1423,-350.3527 851.8232,-354.6575 852.3947,-347.6808"/>
</g>
<!-- Node22 -->
<g id="node23" class="node">
<title>Node22</title>
<g id="a_node23"><a xlink:href="../../d2/d22/ntv2transcode_8h.html" target="_top" xlink:title="Declares a number of pixel format transcoder functions. ">
<polygon fill="#ffffff" stroke="#000000" points="1640,-168.5 1640,-187.5 1726,-187.5 1726,-168.5 1640,-168.5"/>
<text text-anchor="middle" x="1683" y="-175.5" font-family="Helvetica,sans-Serif" font-size="10.00" fill="#000000">ntv2transcode.h</text>
</a>
</g>
</g>
<!-- Node0&#45;&gt;Node22 -->
<g id="edge46" class="edge">
<title>Node0&#45;&gt;Node22</title>
<path fill="none" stroke="#191970" d="M1613.7445,-392.1453C1628.3462,-346.9954 1662.7029,-240.7607 1676.7992,-197.1735"/>
<polygon fill="#191970" stroke="#191970" points="1680.1751,-198.1089 1679.9221,-187.5171 1673.5148,-195.9549 1680.1751,-198.1089"/>
</g>
<!-- Node25 -->
<g id="node26" class="node">
<title>Node25</title>
<g id="a_node26"><a xlink:href="../../d9/d79/ntv2resample_8h.html" target="_top" xlink:title="Declares a number of pixel resampling functions. ">
<polygon fill="#ffffff" stroke="#000000" points="1823.5,-168.5 1823.5,-187.5 1906.5,-187.5 1906.5,-168.5 1823.5,-168.5"/>
<text text-anchor="middle" x="1865" y="-175.5" font-family="Helvetica,sans-Serif" font-size="10.00" fill="#000000">ntv2resample.h</text>
</a>
</g>
</g>
<!-- Node0&#45;&gt;Node25 -->
<g id="edge54" class="edge">
<title>Node0&#45;&gt;Node25</title>
<path fill="none" stroke="#191970" d="M1629.8958,-392.1453C1680.5148,-346.0388 1801.0688,-236.2319 1846.8976,-194.4887"/>
<polygon fill="#191970" stroke="#191970" points="1849.5154,-196.8385 1854.5515,-187.5171 1844.8017,-191.6634 1849.5154,-196.8385"/>
</g>
<!-- Node26 -->
<g id="node27" class="node">
<title>Node26</title>
<g id="a_node27"><a xlink:href="../../db/d16/debug_8h.html" target="_top" xlink:title="Declares the AJADebug class. ">
<polygon fill="#ffffff" stroke="#000000" points="1372.5,-224.5 1372.5,-243.5 1495.5,-243.5 1495.5,-224.5 1372.5,-224.5"/>
<text text-anchor="middle" x="1434" y="-231.5" font-family="Helvetica,sans-Serif" font-size="10.00" fill="#000000">ajabase/system/debug.h</text>
</a>
</g>
</g>
<!-- Node0&#45;&gt;Node26 -->
<g id="edge59" class="edge">
<title>Node0&#45;&gt;Node26</title>
<path fill="none" stroke="#191970" d="M1587.1547,-392.4664C1552.7907,-356.9106 1482.8149,-284.5079 1450.7404,-251.321"/>
<polygon fill="#191970" stroke="#191970" points="1452.9135,-248.5331 1443.4472,-243.7749 1447.8801,-253.3978 1452.9135,-248.5331"/>
</g>
<!-- Node34 -->
<g id="node35" class="node">
<title>Node34</title>
<g id="a_node35"><a xlink:href="../../dc/d54/common_8h.html" target="_top" xlink:title="Private include file for all ajabase sources. ">
<polygon fill="#ffffff" stroke="#000000" points="969,-168.5 969,-187.5 1109,-187.5 1109,-168.5 969,-168.5"/>
<text text-anchor="middle" x="1039" y="-175.5" font-family="Helvetica,sans-Serif" font-size="10.00" fill="#000000">ajabase/common/common.h</text>
</a>
</g>
</g>
<!-- Node0&#45;&gt;Node34 -->
<g id="edge77" class="edge">
<title>Node0&#45;&gt;Node34</title>
<path fill="none" stroke="#191970" d="M1557.0916,-392.3513C1443.0971,-345.1881 1166.1586,-230.6096 1071.4146,-191.411"/>
<polygon fill="#191970" stroke="#191970" points="1072.6341,-188.1278 1062.0556,-187.5389 1069.9579,-194.5961 1072.6341,-188.1278"/>
</g>
<!-- Node36 -->
<g id="node37" class="node">
<title>Node36</title>
<polygon fill="#ffffff" stroke="#bfbfbf" points="1754.5,-336.5 1754.5,-355.5 1801.5,-355.5 1801.5,-336.5 1754.5,-336.5"/>
<text text-anchor="middle" x="1778" y="-343.5" font-family="Helvetica,sans-Serif" font-size="10.00" fill="#000000">math.h</text>
</g>
<!-- Node0&#45;&gt;Node36 -->
<g id="edge83" class="edge">
<title>Node0&#45;&gt;Node36</title>
<path fill="none" stroke="#191970" d="M1659.7009,-392.3511C1687.4732,-381.4696 1720.6874,-368.4558 1744.8422,-358.9917"/>
<polygon fill="#191970" stroke="#191970" points="1746.2384,-362.2038 1754.2723,-355.2968 1743.6846,-355.6862 1746.2384,-362.2038"/>
</g>
<!-- Node37 -->
<g id="node38" class="node">
<title>Node37</title>
<polygon fill="#ffffff" stroke="#bfbfbf" points="1819.5,-336.5 1819.5,-355.5 1868.5,-355.5 1868.5,-336.5 1819.5,-336.5"/>
<text text-anchor="middle" x="1844" y="-343.5" font-family="Helvetica,sans-Serif" font-size="10.00" fill="#000000">random</text>
</g>
<!-- Node0&#45;&gt;Node37 -->
<g id="edge84" class="edge">
<title>Node0&#45;&gt;Node37</title>
<path fill="none" stroke="#191970" d="M1682.1972,-392.41C1718.2781,-382.4307 1762.3454,-370.0987 1809.3876,-356.4357"/>
<polygon fill="#191970" stroke="#191970" points="1810.528,-359.7491 1819.151,-353.5932 1808.5713,-353.0281 1810.528,-359.7491"/>
</g>
<!-- Node2 -->
<g id="node3" class="node">
<title>Node2</title>
<g id="a_node3"><a xlink:href="../../d6/dd9/ajaexport_8h.html" target="_top" xlink:title="Defines the import/export macros for producing DLLs or LIBs. ">
<polygon fill="#ffffff" stroke="#000000" points="690.5,-.5 690.5,-19.5 755.5,-19.5 755.5,-.5 690.5,-.5"/>
<text text-anchor="middle" x="723" y="-7.5" font-family="Helvetica,sans-Serif" font-size="10.00" fill="#000000">ajaexport.h</text>
</a>
</g>
</g>
<!-- Node1&#45;&gt;Node2 -->
<g id="edge2" class="edge">
<title>Node1&#45;&gt;Node2</title>
<path fill="none" stroke="#191970" d="M575.88,-284.4621C461.0738,-263.3712 71.077,-185.5469 133,-112 203.4218,-28.359 556.5186,-13.3041 680.1583,-10.5946"/>
<polygon fill="#191970" stroke="#191970" points="680.4446,-14.0896 690.3716,-10.3878 680.3028,-7.0911 680.4446,-14.0896"/>
</g>
<!-- Node3 -->
<g id="node4" class="node">
<title>Node3</title>
<g id="a_node4"><a xlink:href="../../db/de2/ajatypes_8h.html" target="_top" xlink:title="Declares the most fundamental data types used by NTV2. Since Windows NT was the first principal devel...">
<polygon fill="#ffffff" stroke="#000000" points="1500,-56.5 1500,-75.5 1562,-75.5 1562,-56.5 1500,-56.5"/>
<text text-anchor="middle" x="1531" y="-63.5" font-family="Helvetica,sans-Serif" font-size="10.00" fill="#000000">ajatypes.h</text>
</a>
</g>
</g>
<!-- Node1&#45;&gt;Node3 -->
<g id="edge3" class="edge">
<title>Node1&#45;&gt;Node3</title>
<path fill="none" stroke="#191970" d="M638.1367,-289.3471C786.8487,-286.1022 1421.0685,-270.7889 1505,-244 1549.1638,-229.904 1570.6917,-228.6384 1593,-188 1609.2542,-158.3902 1608.1841,-142.1725 1593,-112 1586.3263,-98.7387 1573.8207,-88.3415 1561.7793,-80.8125"/>
<polygon fill="#191970" stroke="#191970" points="1563.177,-77.5783 1552.7658,-75.6143 1559.6799,-83.6422 1563.177,-77.5783"/>
</g>
<!-- Node6 -->
<g id="node7" class="node">
<title>Node6</title>
<g id="a_node7"><a xlink:href="../../d6/d0c/ntv2enums_8h.html" target="_top" xlink:title="Enumerations for controlling NTV2 devices. ">
<polygon fill="#ffffff" stroke="#000000" points="687.5,-112.5 687.5,-131.5 760.5,-131.5 760.5,-112.5 687.5,-112.5"/>
<text text-anchor="middle" x="724" y="-119.5" font-family="Helvetica,sans-Serif" font-size="10.00" fill="#000000">ntv2enums.h</text>
</a>
</g>
</g>
<!-- Node1&#45;&gt;Node6 -->
<g id="edge6" class="edge">
<title>Node1&#45;&gt;Node6</title>
<path fill="none" stroke="#191970" d="M613.6257,-280.4862C632.4409,-253.4695 686.4343,-175.9405 711.2483,-140.3102"/>
<polygon fill="#191970" stroke="#191970" points="714.3127,-142.0342 717.1556,-131.8279 708.5685,-138.0337 714.3127,-142.0342"/>
</g>
<!-- Node8 -->
<g id="node9" class="node">
<title>Node8</title>
<polygon fill="#ffffff" stroke="#bfbfbf" points="343.5,-.5 343.5,-19.5 384.5,-19.5 384.5,-.5 343.5,-.5"/>
<text text-anchor="middle" x="364" y="-7.5" font-family="Helvetica,sans-Serif" font-size="10.00" fill="#000000">string</text>
</g>
<!-- Node1&#45;&gt;Node8 -->
<g id="edge36" class="edge">
<title>Node1&#45;&gt;Node8</title>
<path fill="none" stroke="#191970" d="M575.7759,-289.4258C465.2789,-287.1199 97.2374,-277.0049 57,-244 33.3992,-224.6414 38,-208.5246 38,-178 38,-178 38,-178 38,-122 38,-60.0022 251.553,-24.9941 332.9747,-13.8996"/>
<polygon fill="#191970" stroke="#191970" points="333.6609,-17.3392 343.1113,-12.5496 332.7368,-10.4005 333.6609,-17.3392"/>
</g>
<!-- Node9 -->
<g id="node10" class="node">
<title>Node9</title>
<g id="a_node10"><a xlink:href="../../d9/d61/ntv2videodefines_8h.html" target="_top" xlink:title="Declares common video macros and structs used in the SDK. ">
<polygon fill="#ffffff" stroke="#000000" points="1716,-112.5 1716,-131.5 1814,-131.5 1814,-112.5 1716,-112.5"/>
<text text-anchor="middle" x="1765" y="-119.5" font-family="Helvetica,sans-Serif" font-size="10.00" fill="#000000">ntv2videodefines.h</text>
</a>
</g>
</g>
<!-- Node1&#45;&gt;Node9 -->
<g id="edge11" class="edge">
<title>Node1&#45;&gt;Node9</title>
<path fill="none" stroke="#191970" d="M638.192,-289.3842C798.7829,-286.1078 1528.6081,-269.8931 1626,-244 1678.6355,-230.0061 1697.4228,-227.4243 1735,-188 1747.4561,-174.9316 1755.372,-155.7877 1759.925,-141.4793"/>
<polygon fill="#191970" stroke="#191970" points="1763.3486,-142.2398 1762.7707,-131.6608 1756.6253,-140.2912 1763.3486,-142.2398"/>
</g>
<!-- Node10 -->
<g id="node11" class="node">
<title>Node10</title>
<g id="a_node11"><a xlink:href="../../d4/dd7/ntv2publicinterface_8h.html" target="_top" xlink:title="Declares enums and structs used by all platform drivers and the SDK. ">
<polygon fill="#ffffff" stroke="#000000" points="404.5,-168.5 404.5,-187.5 511.5,-187.5 511.5,-168.5 404.5,-168.5"/>
<text text-anchor="middle" x="458" y="-175.5" font-family="Helvetica,sans-Serif" font-size="10.00" fill="#000000">ntv2publicinterface.h</text>
</a>
</g>
</g>
<!-- Node1&#45;&gt;Node10 -->
<g id="edge13" class="edge">
<title>Node1&#45;&gt;Node10</title>
<path fill="none" stroke="#191970" d="M577.162,-280.4853C556.3248,-272.8531 528.6529,-260.6574 508,-244 491.4782,-230.6746 477.3815,-210.7641 468.4088,-196.298"/>
<polygon fill="#191970" stroke="#191970" points="471.4088,-194.4951 463.2784,-187.7018 465.3979,-198.0825 471.4088,-194.4951"/>
</g>
<!-- Node11 -->
<g id="node12" class="node">
<title>Node11</title>
<polygon fill="#ffffff" stroke="#bfbfbf" points="142,-112.5 142,-131.5 196,-131.5 196,-112.5 142,-112.5"/>
<text text-anchor="middle" x="169" y="-119.5" font-family="Helvetica,sans-Serif" font-size="10.00" fill="#000000">iostream</text>
</g>
<!-- Node1&#45;&gt;Node11 -->
<g id="edge37" class="edge">
<title>Node1&#45;&gt;Node11</title>
<path fill="none" stroke="#191970" d="M578.5733,-280.4239C527.2003,-262.9777 415.6276,-224.4446 323,-188 279.768,-170.9903 230.5377,-149.5154 199.6209,-135.7676"/>
<polygon fill="#191970" stroke="#191970" points="200.8158,-132.4682 190.2573,-131.591 197.9642,-138.8611 200.8158,-132.4682"/>
</g>
<!-- Node14 -->
<g id="node15" class="node">
<title>Node14</title>
<polygon fill="#ffffff" stroke="#bfbfbf" points="919,-112.5 919,-131.5 963,-131.5 963,-112.5 919,-112.5"/>
<text text-anchor="middle" x="941" y="-119.5" font-family="Helvetica,sans-Serif" font-size="10.00" fill="#000000">vector</text>
</g>
<!-- Node1&#45;&gt;Node14 -->
<g id="edge38" class="edge">
<title>Node1&#45;&gt;Node14</title>
<path fill="none" stroke="#191970" d="M625.9143,-280.4862C681.8147,-252.3686 846.4889,-169.5385 912.8294,-136.1696"/>
<polygon fill="#191970" stroke="#191970" points="914.5184,-139.238 921.8792,-131.6177 911.3729,-132.9845 914.5184,-139.238"/>
</g>
<!-- Node19 -->
<g id="node20" class="node">
<title>Node19</title>
<g id="a_node20"><a xlink:href="../../dc/df4/ntv2formatdescriptor_8h.html" target="_top" xlink:title="Declares the NTV2FormatDescriptor class. ">
<polygon fill="#ffffff" stroke="#000000" points="517.5,-224.5 517.5,-243.5 630.5,-243.5 630.5,-224.5 517.5,-224.5"/>
<text text-anchor="middle" x="574" y="-231.5" font-family="Helvetica,sans-Serif" font-size="10.00" fill="#000000">ntv2formatdescriptor.h</text>
</a>
</g>
</g>
<!-- Node1&#45;&gt;Node19 -->
<g id="edge27" class="edge">
<title>Node1&#45;&gt;Node19</title>
<path fill="none" stroke="#191970" d="M601.2518,-280.2455C596.7565,-272.617 590.3752,-261.7881 584.9175,-252.5267"/>
<polygon fill="#191970" stroke="#191970" points="587.7747,-250.4811 579.6823,-243.6427 581.7439,-254.035 587.7747,-250.4811"/>
</g>
<!-- Node20 -->
<g id="node21" class="node">
<title>Node20</title>
<g id="a_node21"><a xlink:href="../../de/d26/ntv2m31enums_8h.html" target="_top" xlink:title="ntv2m31enums.h">
<polygon fill="#ffffff" stroke="#000000" points="66,-224.5 66,-243.5 158,-243.5 158,-224.5 66,-224.5"/>
<text text-anchor="middle" x="112" y="-231.5" font-family="Helvetica,sans-Serif" font-size="10.00" fill="#000000">ntv2m31enums.h</text>
</a>
</g>
</g>
<!-- Node1&#45;&gt;Node20 -->
<g id="edge35" class="edge">
<title>Node1&#45;&gt;Node20</title>
<path fill="none" stroke="#191970" d="M575.8023,-287.3463C504.2497,-281.1189 322.873,-264.5312 172,-244 170.7345,-243.8278 169.4547,-243.6495 168.1647,-243.4662"/>
<polygon fill="#191970" stroke="#191970" points="168.5516,-239.9853 158.1456,-241.9767 167.5222,-246.9092 168.5516,-239.9853"/>
</g>
<!-- Node4 -->
<g id="node5" class="node">
<title>Node4</title>
<g id="a_node5"><a xlink:href="../../db/d40/ntv2deprecate_8h.html" target="_top" xlink:title="Deprecation control macros. ">
<polygon fill="#ffffff" stroke="#000000" points="1279,-.5 1279,-19.5 1365,-19.5 1365,-.5 1279,-.5"/>
<text text-anchor="middle" x="1322" y="-7.5" font-family="Helvetica,sans-Serif" font-size="10.00" fill="#000000">ntv2deprecate.h</text>
</a>
</g>
</g>
<!-- Node3&#45;&gt;Node4 -->
<g id="edge4" class="edge">
<title>Node3&#45;&gt;Node4</title>
<path fill="none" stroke="#191970" d="M1499.7106,-57.6162C1464.6478,-48.2214 1407.4868,-32.9055 1367.4871,-22.1879"/>
<polygon fill="#191970" stroke="#191970" points="1368.2764,-18.776 1357.7113,-19.5686 1366.4647,-25.5375 1368.2764,-18.776"/>
</g>
<!-- Node5 -->
<g id="node6" class="node">
<title>Node5</title>
<polygon fill="#ffffff" stroke="#bfbfbf" points="1476.5,-.5 1476.5,-19.5 1525.5,-19.5 1525.5,-.5 1476.5,-.5"/>
<text text-anchor="middle" x="1501" y="-7.5" font-family="Helvetica,sans-Serif" font-size="10.00" fill="#000000">stdint.h</text>
</g>
<!-- Node3&#45;&gt;Node5 -->
<g id="edge5" class="edge">
<title>Node3&#45;&gt;Node5</title>
<path fill="none" stroke="#191970" d="M1525.7744,-56.2455C1521.6877,-48.617 1515.8865,-37.7881 1510.925,-28.5267"/>
<polygon fill="#191970" stroke="#191970" points="1513.9732,-26.8047 1506.1657,-19.6427 1507.8028,-30.1103 1513.9732,-26.8047"/>
</g>
<!-- Node6&#45;&gt;Node3 -->
<g id="edge7" class="edge">
<title>Node6&#45;&gt;Node3</title>
<path fill="none" stroke="#191970" d="M760.7538,-117.1809C775.4307,-115.3726 792.4969,-113.4149 808,-112 1067.0606,-88.3565 1379.4495,-72.8913 1489.8976,-67.8225"/>
<polygon fill="#191970" stroke="#191970" points="1490.1169,-71.3162 1499.9471,-67.3645 1489.7981,-64.3235 1490.1169,-71.3162"/>
</g>
<!-- Node7 -->
<g id="node8" class="node">
<title>Node7</title>
<g id="a_node8"><a xlink:href="../../d6/db1/ntv2version_8h.html" target="_top" xlink:title="Defines for the NTV2 SDK version number, used by ajantv2/includes/ntv2enums.h. See the ajantv2/includ...">
<polygon fill="#ffffff" stroke="#000000" points="685.5,-56.5 685.5,-75.5 760.5,-75.5 760.5,-56.5 685.5,-56.5"/>
<text text-anchor="middle" x="723" y="-63.5" font-family="Helvetica,sans-Serif" font-size="10.00" fill="#000000">ntv2version.h</text>
</a>
</g>
</g>
<!-- Node6&#45;&gt;Node7 -->
<g id="edge8" class="edge">
<title>Node6&#45;&gt;Node7</title>
<path fill="none" stroke="#191970" d="M723.8258,-112.2455C723.6953,-104.9382 723.5124,-94.6944 723.3519,-85.7046"/>
<polygon fill="#191970" stroke="#191970" points="726.8503,-85.5786 723.1722,-75.6427 719.8514,-85.7036 726.8503,-85.5786"/>
</g>
<!-- Node7&#45;&gt;Node2 -->
<g id="edge9" class="edge">
<title>Node7&#45;&gt;Node2</title>
<path fill="none" stroke="#191970" d="M723,-56.2455C723,-48.9382 723,-38.6944 723,-29.7046"/>
<polygon fill="#191970" stroke="#191970" points="726.5001,-29.6426 723,-19.6427 719.5001,-29.6427 726.5001,-29.6426"/>
</g>
<!-- Node7&#45;&gt;Node8 -->
<g id="edge10" class="edge">
<title>Node7&#45;&gt;Node8</title>
<path fill="none" stroke="#191970" d="M685.2592,-60.1129C613.9778,-48.9938 460.8105,-25.1014 395.0425,-14.8423"/>
<polygon fill="#191970" stroke="#191970" points="395.3203,-11.3434 384.9004,-13.2602 394.2414,-18.2597 395.3203,-11.3434"/>
</g>
<!-- Node9&#45;&gt;Node3 -->
<g id="edge12" class="edge">
<title>Node9&#45;&gt;Node3</title>
<path fill="none" stroke="#191970" d="M1725.0398,-112.4369C1682.3814,-102.228 1615.1265,-86.1328 1572.0533,-75.8247"/>
<polygon fill="#191970" stroke="#191970" points="1572.7254,-72.3868 1562.1854,-73.4632 1571.0961,-79.1946 1572.7254,-72.3868"/>
</g>
<!-- Node10&#45;&gt;Node2 -->
<g id="edge24" class="edge">
<title>Node10&#45;&gt;Node2</title>
<path fill="none" stroke="#191970" d="M459.0939,-168.2107C461.1615,-154.0781 466.8871,-127.9136 482,-112 536.082,-55.0525 627.0093,-28.5048 680.3656,-17.2677"/>
<polygon fill="#191970" stroke="#191970" points="681.0852,-20.6931 690.1938,-15.2818 679.6987,-13.8318 681.0852,-20.6931"/>
</g>
<!-- Node10&#45;&gt;Node3 -->
<g id="edge14" class="edge">
<title>Node10&#45;&gt;Node3</title>
<path fill="none" stroke="#191970" d="M467.75,-168.3405C483.8723,-153.0886 517.8169,-123.9369 553,-112 575.5257,-104.3575 1306.7843,-74.8952 1489.7964,-67.6276"/>
<polygon fill="#191970" stroke="#191970" points="1489.9723,-71.1234 1499.8257,-67.2297 1489.6948,-64.1289 1489.9723,-71.1234"/>
</g>
<!-- Node10&#45;&gt;Node6 -->
<g id="edge15" class="edge">
<title>Node10&#45;&gt;Node6</title>
<path fill="none" stroke="#191970" d="M504.3757,-168.4147C546.7397,-159.6336 611.3888,-146.1707 677.205,-132.1573"/>
<polygon fill="#191970" stroke="#191970" points="678.2968,-135.5033 687.3474,-129.9954 676.8374,-128.6571 678.2968,-135.5033"/>
</g>
<!-- Node10&#45;&gt;Node8 -->
<g id="edge20" class="edge">
<title>Node10&#45;&gt;Node8</title>
<path fill="none" stroke="#191970" d="M404.432,-170.1014C344.1269,-160.6653 253.1709,-144.5772 243,-132 208.0629,-88.7973 288.0108,-43.881 334.1683,-22.6128"/>
<polygon fill="#191970" stroke="#191970" points="335.7639,-25.733 343.4514,-18.4425 332.8953,-19.3478 335.7639,-25.733"/>
</g>
<!-- Node10&#45;&gt;Node11 -->
<g id="edge16" class="edge">
<title>Node10&#45;&gt;Node11</title>
<path fill="none" stroke="#191970" d="M404.1289,-168.9015C353.7771,-160.1861 276.5787,-146.2823 210,-132 208.7508,-131.732 207.4816,-131.4542 206.2008,-131.169"/>
<polygon fill="#191970" stroke="#191970" points="206.8293,-127.7221 196.2983,-128.883 205.2547,-134.5427 206.8293,-127.7221"/>
</g>
<!-- Node12 -->
<g id="node13" class="node">
<title>Node12</title>
<polygon fill="#ffffff" stroke="#bfbfbf" points="817,-112.5 817,-131.5 847,-131.5 847,-112.5 817,-112.5"/>
<text text-anchor="middle" x="832" y="-119.5" font-family="Helvetica,sans-Serif" font-size="10.00" fill="#000000">set</text>
</g>
<!-- Node10&#45;&gt;Node12 -->
<g id="edge17" class="edge">
<title>Node10&#45;&gt;Node12</title>
<path fill="none" stroke="#191970" d="M511.6839,-170.2355C573.6938,-161.2259 678.7685,-145.8339 769,-132 781.4431,-130.0923 795.2573,-127.9071 806.7716,-126.067"/>
<polygon fill="#191970" stroke="#191970" points="807.6669,-129.4682 816.9865,-124.4288 806.5585,-122.5565 807.6669,-129.4682"/>
</g>
<!-- Node13 -->
<g id="node14" class="node">
<title>Node13</title>
<polygon fill="#ffffff" stroke="#bfbfbf" points="865.5,-112.5 865.5,-131.5 900.5,-131.5 900.5,-112.5 865.5,-112.5"/>
<text text-anchor="middle" x="883" y="-119.5" font-family="Helvetica,sans-Serif" font-size="10.00" fill="#000000">map</text>
</g>
<!-- Node10&#45;&gt;Node13 -->
<g id="edge18" class="edge">
<title>Node10&#45;&gt;Node13</title>
<path fill="none" stroke="#191970" d="M511.6411,-173.4056C600.6223,-165.528 775.9834,-148.8534 855.3727,-131.5191"/>
<polygon fill="#191970" stroke="#191970" points="856.5165,-134.847 865.4691,-129.1811 854.9372,-128.0274 856.5165,-134.847"/>
</g>
<!-- Node10&#45;&gt;Node14 -->
<g id="edge19" class="edge">
<title>Node10&#45;&gt;Node14</title>
<path fill="none" stroke="#191970" d="M511.5176,-173.976C610.3457,-166.319 818.8812,-149.0502 908.9299,-131.7766"/>
<polygon fill="#191970" stroke="#191970" points="909.6927,-135.1933 918.8002,-129.78 908.3048,-128.3322 909.6927,-135.1933"/>
</g>
<!-- Node15 -->
<g id="node16" class="node">
<title>Node15</title>
<polygon fill="#ffffff" stroke="#bfbfbf" points="320,-112.5 320,-131.5 370,-131.5 370,-112.5 320,-112.5"/>
<text text-anchor="middle" x="345" y="-119.5" font-family="Helvetica,sans-Serif" font-size="10.00" fill="#000000">iomanip</text>
</g>
<!-- Node10&#45;&gt;Node15 -->
<g id="edge21" class="edge">
<title>Node10&#45;&gt;Node15</title>
<path fill="none" stroke="#191970" d="M438.5746,-168.3733C420.5979,-159.4644 393.6559,-146.1127 373.291,-136.0203"/>
<polygon fill="#191970" stroke="#191970" points="374.6861,-132.8055 364.1719,-131.5011 371.5778,-139.0776 374.6861,-132.8055"/>
</g>
<!-- Node16 -->
<g id="node17" class="node">
<title>Node16</title>
<polygon fill="#ffffff" stroke="#bfbfbf" points="388.5,-112.5 388.5,-131.5 429.5,-131.5 429.5,-112.5 388.5,-112.5"/>
<text text-anchor="middle" x="409" y="-119.5" font-family="Helvetica,sans-Serif" font-size="10.00" fill="#000000">bitset</text>
</g>
<!-- Node10&#45;&gt;Node16 -->
<g id="edge22" class="edge">
<title>Node10&#45;&gt;Node16</title>
<path fill="none" stroke="#191970" d="M449.4649,-168.2455C442.5088,-160.2958 432.5117,-148.8706 424.1949,-139.3656"/>
<polygon fill="#191970" stroke="#191970" points="426.6564,-136.8637 417.4373,-131.6427 421.3884,-141.4732 426.6564,-136.8637"/>
</g>
<!-- Node17 -->
<g id="node18" class="node">
<title>Node17</title>
<polygon fill="#ffffff" stroke="#bfbfbf" points="252.5,-112.5 252.5,-131.5 301.5,-131.5 301.5,-112.5 252.5,-112.5"/>
<text text-anchor="middle" x="277" y="-119.5" font-family="Helvetica,sans-Serif" font-size="10.00" fill="#000000">string.h</text>
</g>
<!-- Node10&#45;&gt;Node17 -->
<g id="edge23" class="edge">
<title>Node10&#45;&gt;Node17</title>
<path fill="none" stroke="#191970" d="M426.885,-168.3733C394.7336,-158.4259 344.6787,-142.9393 311.3763,-132.6358"/>
<polygon fill="#191970" stroke="#191970" points="312.205,-129.2285 301.6173,-129.6164 310.136,-135.9158 312.205,-129.2285"/>
</g>
<!-- Node18 -->
<g id="node19" class="node">
<title>Node18</title>
<g id="a_node19"><a xlink:href="../../da/df0/ntv2virtualregisters_8h.html" target="_top" xlink:title="Declares enums for virtual registers used in all platform drivers and the SDK. ">
<polygon fill="#ffffff" stroke="#000000" points="562.5,-112.5 562.5,-131.5 669.5,-131.5 669.5,-112.5 562.5,-112.5"/>
<text text-anchor="middle" x="616" y="-119.5" font-family="Helvetica,sans-Serif" font-size="10.00" fill="#000000">ntv2virtualregisters.h</text>
</a>
</g>
</g>
<!-- Node10&#45;&gt;Node18 -->
<g id="edge25" class="edge">
<title>Node10&#45;&gt;Node18</title>
<path fill="none" stroke="#191970" d="M485.1612,-168.3733C511.2067,-159.1419 550.7116,-145.1402 579.4979,-134.9375"/>
<polygon fill="#191970" stroke="#191970" points="580.937,-138.1408 589.1933,-131.5011 578.5985,-131.5429 580.937,-138.1408"/>
</g>
<!-- Node18&#45;&gt;Node3 -->
<g id="edge26" class="edge">
<title>Node18&#45;&gt;Node3</title>
<path fill="none" stroke="#191970" d="M669.7215,-112.9778C672.5177,-112.6202 675.2898,-112.2908 678,-112 838.3832,-94.7904 1342.0956,-73.6142 1489.8657,-67.6383"/>
<polygon fill="#191970" stroke="#191970" points="1490.0295,-71.1346 1499.8804,-67.2346 1489.7475,-64.1403 1490.0295,-71.1346"/>
</g>
<!-- Node19&#45;&gt;Node2 -->
<g id="edge28" class="edge">
<title>Node19&#45;&gt;Node2</title>
<path fill="none" stroke="#191970" d="M568.3848,-224.41C556.5519,-202.8275 531.8218,-149.4048 553,-112 580.1028,-64.1312 639.6236,-36.2767 680.5213,-22.1036"/>
<polygon fill="#191970" stroke="#191970" points="681.8458,-25.3516 690.2292,-18.8732 679.6356,-18.7097 681.8458,-25.3516"/>
</g>
<!-- Node19&#45;&gt;Node3 -->
<g id="edge29" class="edge">
<title>Node19&#45;&gt;Node3</title>
<path fill="none" stroke="#191970" d="M630.6097,-232.3904C818.4627,-226.8702 1411.3648,-207.9435 1447,-188 1487.7913,-165.1708 1513.0059,-113.2502 1524.198,-85.0624"/>
<polygon fill="#191970" stroke="#191970" points="1527.5389,-86.1228 1527.8042,-75.5312 1520.9918,-83.6456 1527.5389,-86.1228"/>
</g>
<!-- Node19&#45;&gt;Node6 -->
<g id="edge30" class="edge">
<title>Node19&#45;&gt;Node6</title>
<path fill="none" stroke="#191970" d="M578.1398,-224.1945C584.5597,-210.0417 598.1675,-183.8523 617,-168 634.7475,-153.0609 658.0777,-142.2732 678.4224,-134.9163"/>
<polygon fill="#191970" stroke="#191970" points="679.8141,-138.1389 688.1324,-131.5771 677.5377,-131.5194 679.8141,-138.1389"/>
</g>
<!-- Node19&#45;&gt;Node8 -->
<g id="edge32" class="edge">
<title>Node19&#45;&gt;Node8</title>
<path fill="none" stroke="#191970" d="M517.3808,-229.7282C408.9612,-220.2153 178.7083,-193.1242 133,-132 77.4708,-57.7426 257.9628,-24.2815 332.9118,-13.8159"/>
<polygon fill="#191970" stroke="#191970" points="333.7195,-17.2389 343.1634,-12.4366 332.7859,-10.3014 333.7195,-17.2389"/>
</g>
<!-- Node19&#45;&gt;Node10 -->
<g id="edge31" class="edge">
<title>Node19&#45;&gt;Node10</title>
<path fill="none" stroke="#191970" d="M554.0589,-224.3733C535.5214,-215.4241 507.6972,-201.9917 486.7587,-191.8835"/>
<polygon fill="#191970" stroke="#191970" points="488.2081,-188.6967 477.6809,-187.5011 485.1648,-195.0006 488.2081,-188.6967"/>
</g>
<!-- Node19&#45;&gt;Node11 -->
<g id="edge33" class="edge">
<title>Node19&#45;&gt;Node11</title>
<path fill="none" stroke="#191970" d="M535.4949,-224.4904C499.1802,-215.4305 443.2697,-201.2467 395,-188 328.0786,-169.6347 250.5217,-146.6008 205.8689,-133.168"/>
<polygon fill="#191970" stroke="#191970" points="206.6383,-129.7444 196.0537,-130.2104 204.6187,-136.4468 206.6383,-129.7444"/>
</g>
<!-- Node19&#45;&gt;Node14 -->
<g id="edge34" class="edge">
<title>Node19&#45;&gt;Node14</title>
<path fill="none" stroke="#191970" d="M606.023,-224.4798C664.2653,-207.1214 791.6398,-168.9593 909.4507,-132.137"/>
<polygon fill="#191970" stroke="#191970" points="910.5012,-135.4757 918.9995,-129.1488 908.4106,-128.7952 910.5012,-135.4757"/>
</g>
<!-- Node21&#45;&gt;Node1 -->
<g id="edge42" class="edge">
<title>Node21&#45;&gt;Node1</title>
<path fill="none" stroke="#191970" d="M757.7131,-336.3733C727.3182,-327.021 681.0107,-312.7725 647.75,-302.5385"/>
<polygon fill="#191970" stroke="#191970" points="648.4658,-299.0968 637.8786,-299.5011 646.4071,-305.7873 648.4658,-299.0968"/>
</g>
<!-- Node21&#45;&gt;Node2 -->
<g id="edge40" class="edge">
<title>Node21&#45;&gt;Node2</title>
<path fill="none" stroke="#191970" d="M789,-336.4116C789,-317.0538 789,-271.9167 789,-234 789,-234 789,-234 789,-122 789,-91.3494 784.7537,-82.2921 769,-56 762.3334,-44.8738 752.3907,-34.4728 743.453,-26.3854"/>
<polygon fill="#191970" stroke="#191970" points="745.5082,-23.536 735.6501,-19.6542 740.9358,-28.8364 745.5082,-23.536"/>
</g>
<!-- Node21&#45;&gt;Node6 -->
<g id="edge41" class="edge">
<title>Node21&#45;&gt;Node6</title>
<path fill="none" stroke="#191970" d="M786.0587,-336.4989C783.1938,-327.2068 778.7367,-312.6491 775,-300 757.9808,-242.388 738.6325,-174.0362 729.4246,-141.324"/>
<polygon fill="#191970" stroke="#191970" points="732.7846,-140.3431 726.7086,-131.6636 726.0458,-142.2377 732.7846,-140.3431"/>
</g>
<!-- Node21&#45;&gt;Node8 -->
<g id="edge45" class="edge">
<title>Node21&#45;&gt;Node8</title>
<path fill="none" stroke="#191970" d="M735.6981,-344.0616C558.4543,-336.9168 0,-308.4941 0,-234 0,-234 0,-234 0,-122 0,-75.2171 39.2774,-75.0635 82,-56 126.6428,-36.0797 269.7034,-19.566 333.1728,-13.0214"/>
<polygon fill="#191970" stroke="#191970" points="333.7596,-16.4798 343.3546,-11.9869 333.052,-9.5157 333.7596,-16.4798"/>
</g>
<!-- Node21&#45;&gt;Node12 -->
<g id="edge44" class="edge">
<title>Node21&#45;&gt;Node12</title>
<path fill="none" stroke="#191970" d="M792.3896,-336.2328C795.497,-326.991 800.0505,-312.6841 803,-300 816.1945,-243.2573 825.5285,-174.9684 829.6437,-141.8912"/>
<polygon fill="#191970" stroke="#191970" points="833.1457,-142.0862 830.8794,-131.7366 826.197,-141.2405 833.1457,-142.0862"/>
</g>
<!-- Node21&#45;&gt;Node14 -->
<g id="edge43" class="edge">
<title>Node21&#45;&gt;Node14</title>
<path fill="none" stroke="#191970" d="M795.5313,-336.375C818.8203,-302.0543 898.037,-185.3139 928.7199,-140.097"/>
<polygon fill="#191970" stroke="#191970" points="931.7742,-141.8292 934.4931,-131.5891 925.9819,-137.8986 931.7742,-141.8292"/>
</g>
<!-- Node22&#45;&gt;Node2 -->
<g id="edge47" class="edge">
<title>Node22&#45;&gt;Node2</title>
<path fill="none" stroke="#191970" d="M1673.181,-168.3403C1657.6048,-153.6277 1625.6394,-125.8549 1593,-112 1440.9152,-47.4424 920.2431,-18.992 766.239,-11.8634"/>
<polygon fill="#191970" stroke="#191970" points="765.9437,-8.3464 755.7945,-11.3868 765.6245,-15.3391 765.9437,-8.3464"/>
</g>
<!-- Node22&#45;&gt;Node3 -->
<g id="edge48" class="edge">
<title>Node22&#45;&gt;Node3</title>
<path fill="none" stroke="#191970" d="M1682.8762,-168.1201C1682.1638,-153.8746 1678.7714,-127.5709 1664,-112 1640.0084,-86.7099 1601.4468,-75.3213 1572.0082,-70.1943"/>
<polygon fill="#191970" stroke="#191970" points="1572.4358,-66.7187 1562.0147,-68.6294 1571.3528,-73.6344 1572.4358,-66.7187"/>
</g>
<!-- Node22&#45;&gt;Node9 -->
<g id="edge51" class="edge">
<title>Node22&#45;&gt;Node9</title>
<path fill="none" stroke="#191970" d="M1697.2833,-168.2455C1709.747,-159.7337 1728.0451,-147.2375 1742.4792,-137.3801"/>
<polygon fill="#191970" stroke="#191970" points="1744.5962,-140.1726 1750.8804,-131.6427 1740.6485,-134.392 1744.5962,-140.1726"/>
</g>
<!-- Node22&#45;&gt;Node14 -->
<g id="edge52" class="edge">
<title>Node22&#45;&gt;Node14</title>
<path fill="none" stroke="#191970" d="M1639.5543,-172.7378C1624.7938,-171.0659 1608.1929,-169.3123 1593,-168 1334.3585,-145.659 1268.2342,-158.64 1010,-132 997.9238,-130.7542 984.719,-128.9496 973.1235,-127.2153"/>
<polygon fill="#191970" stroke="#191970" points="973.4213,-123.7201 963.0056,-125.6604 972.3579,-130.6388 973.4213,-123.7201"/>
</g>
<!-- Node23 -->
<g id="node24" class="node">
<title>Node23</title>
<g id="a_node24"><a xlink:href="../../d6/dcc/ntv2fixed_8h.html" target="_top" xlink:title="Declares several fixed&#45;point math routines. Assumes 16&#45;bit fraction. ">
<polygon fill="#ffffff" stroke="#000000" points="1832.5,-112.5 1832.5,-131.5 1897.5,-131.5 1897.5,-112.5 1832.5,-112.5"/>
<text text-anchor="middle" x="1865" y="-119.5" font-family="Helvetica,sans-Serif" font-size="10.00" fill="#000000">ntv2fixed.h</text>
</a>
</g>
</g>
<!-- Node22&#45;&gt;Node23 -->
<g id="edge49" class="edge">
<title>Node22&#45;&gt;Node23</title>
<path fill="none" stroke="#191970" d="M1714.2869,-168.3733C1744.6818,-159.021 1790.9893,-144.7725 1824.25,-134.5385"/>
<polygon fill="#191970" stroke="#191970" points="1825.5929,-137.7873 1834.1214,-131.5011 1823.5342,-131.0968 1825.5929,-137.7873"/>
</g>
<!-- Node24 -->
<g id="node25" class="node">
<title>Node24</title>
<polygon fill="#ffffff" stroke="#bfbfbf" points="1538,-112.5 1538,-131.5 1584,-131.5 1584,-112.5 1538,-112.5"/>
<text text-anchor="middle" x="1561" y="-119.5" font-family="Helvetica,sans-Serif" font-size="10.00" fill="#000000">stdio.h</text>
</g>
<!-- Node22&#45;&gt;Node24 -->
<g id="edge53" class="edge">
<title>Node22&#45;&gt;Node24</title>
<path fill="none" stroke="#191970" d="M1662.0275,-168.3733C1642.4433,-159.3838 1613.0039,-145.8706 1590.949,-135.7471"/>
<polygon fill="#191970" stroke="#191970" points="1592.2473,-132.4919 1581.6989,-131.5011 1589.3271,-138.8538 1592.2473,-132.4919"/>
</g>
<!-- Node23&#45;&gt;Node3 -->
<g id="edge50" class="edge">
<title>Node23&#45;&gt;Node3</title>
<path fill="none" stroke="#191970" d="M1832.4951,-113.9979C1829.294,-113.289 1826.0884,-112.61 1823,-112 1734.1306,-94.4477 1628.9908,-79.231 1572.268,-71.4737"/>
<polygon fill="#191970" stroke="#191970" points="1572.6351,-67.9915 1562.2549,-70.1132 1571.6926,-74.9278 1572.6351,-67.9915"/>
</g>
<!-- Node25&#45;&gt;Node2 -->
<g id="edge55" class="edge">
<title>Node25&#45;&gt;Node2</title>
<path fill="none" stroke="#191970" d="M1883.95,-168.4572C1906.8631,-155.6909 1940.3298,-132.3047 1923,-112 1846.328,-22.166 970.2114,-11.4507 765.5619,-10.173"/>
<polygon fill="#191970" stroke="#191970" points="765.5241,-6.6728 755.5039,-10.1145 765.4833,-13.6727 765.5241,-6.6728"/>
</g>
<!-- Node25&#45;&gt;Node3 -->
<g id="edge56" class="edge">
<title>Node25&#45;&gt;Node3</title>
<path fill="none" stroke="#191970" d="M1878.7836,-168.3941C1896.4587,-154.9397 1923.023,-130.1028 1907,-112 1885.0706,-87.2243 1665.2628,-72.9749 1572.2366,-68.0127"/>
<polygon fill="#191970" stroke="#191970" points="1572.2338,-64.5079 1562.0645,-67.4803 1571.8679,-71.4983 1572.2338,-64.5079"/>
</g>
<!-- Node25&#45;&gt;Node9 -->
<g id="edge58" class="edge">
<title>Node25&#45;&gt;Node9</title>
<path fill="none" stroke="#191970" d="M1847.5813,-168.2455C1831.9515,-159.4928 1808.7981,-146.527 1790.9815,-136.5496"/>
<polygon fill="#191970" stroke="#191970" points="1792.6543,-133.475 1782.2191,-131.6427 1789.234,-139.5825 1792.6543,-133.475"/>
</g>
<!-- Node25&#45;&gt;Node23 -->
<g id="edge57" class="edge">
<title>Node25&#45;&gt;Node23</title>
<path fill="none" stroke="#191970" d="M1865,-168.2455C1865,-160.9382 1865,-150.6944 1865,-141.7046"/>
<polygon fill="#191970" stroke="#191970" points="1868.5001,-141.6426 1865,-131.6427 1861.5001,-141.6427 1868.5001,-141.6426"/>
</g>
<!-- Node26&#45;&gt;Node12 -->
<g id="edge62" class="edge">
<title>Node26&#45;&gt;Node12</title>
<path fill="none" stroke="#191970" d="M1372.4925,-230.9234C1262.3173,-224.9335 1035.7414,-210.3061 960,-188 920.8687,-176.4757 879.6243,-152.8325 854.855,-137.1989"/>
<polygon fill="#191970" stroke="#191970" points="856.5121,-134.1034 846.2073,-131.6413 852.7276,-139.9922 856.5121,-134.1034"/>
</g>
<!-- Node26&#45;&gt;Node24 -->
<g id="edge60" class="edge">
<title>Node26&#45;&gt;Node24</title>
<path fill="none" stroke="#191970" d="M1444.8279,-224.4509C1466.5724,-205.2747 1515.7605,-161.8962 1542.6317,-138.1988"/>
<polygon fill="#191970" stroke="#191970" points="1545.0143,-140.7642 1550.1995,-131.5249 1540.3843,-135.5141 1545.0143,-140.7642"/>
</g>
<!-- Node27 -->
<g id="node28" class="node">
<title>Node27</title>
<polygon fill="#ffffff" stroke="#bfbfbf" points="1532,-168.5 1532,-187.5 1584,-187.5 1584,-168.5 1532,-168.5"/>
<text text-anchor="middle" x="1558" y="-175.5" font-family="Helvetica,sans-Serif" font-size="10.00" fill="#000000">sstream</text>
</g>
<!-- Node26&#45;&gt;Node27 -->
<g id="edge61" class="edge">
<title>Node26&#45;&gt;Node27</title>
<path fill="none" stroke="#191970" d="M1455.3164,-224.3733C1475.2216,-215.3838 1505.1436,-201.8706 1527.56,-191.7471"/>
<polygon fill="#191970" stroke="#191970" points="1529.2887,-194.8068 1536.9618,-187.5011 1526.4075,-188.4272 1529.2887,-194.8068"/>
</g>
<!-- Node28 -->
<g id="node29" class="node">
<title>Node28</title>
<g id="a_node29"><a xlink:href="../../d4/d79/public_8h.html" target="_top" xlink:title="Master header for the ajabase library. ">
<polygon fill="#ffffff" stroke="#000000" points="1127,-168.5 1127,-187.5 1255,-187.5 1255,-168.5 1127,-168.5"/>
<text text-anchor="middle" x="1191" y="-175.5" font-family="Helvetica,sans-Serif" font-size="10.00" fill="#000000">ajabase/common/public.h</text>
</a>
</g>
</g>
<!-- Node26&#45;&gt;Node28 -->
<g id="edge63" class="edge">
<title>Node26&#45;&gt;Node28</title>
<path fill="none" stroke="#191970" d="M1392.5029,-224.4369C1350.9153,-214.8529 1286.8166,-200.0812 1242.1169,-189.78"/>
<polygon fill="#191970" stroke="#191970" points="1242.8565,-186.3588 1232.3259,-187.5237 1241.2845,-193.18 1242.8565,-186.3588"/>
</g>
<!-- Node32 -->
<g id="node33" class="node">
<title>Node32</title>
<g id="a_node33"><a xlink:href="../../d0/db4/debugshare_8h.html" target="_top" xlink:title="Declares the constants used for sharing debug messages. These structures are used to gather debug mes...">
<polygon fill="#ffffff" stroke="#000000" points="1290.5,-168.5 1290.5,-187.5 1437.5,-187.5 1437.5,-168.5 1290.5,-168.5"/>
<text text-anchor="middle" x="1364" y="-175.5" font-family="Helvetica,sans-Serif" font-size="10.00" fill="#000000">ajabase/system/debugshare.h</text>
</a>
</g>
</g>
<!-- Node26&#45;&gt;Node32 -->
<g id="edge71" class="edge">
<title>Node26&#45;&gt;Node32</title>
<path fill="none" stroke="#191970" d="M1421.8069,-224.2455C1411.3679,-215.8943 1396.1345,-203.7076 1383.926,-193.9408"/>
<polygon fill="#191970" stroke="#191970" points="1386.0485,-191.1566 1376.0533,-187.6427 1381.6756,-196.6227 1386.0485,-191.1566"/>
</g>
<!-- Node28&#45;&gt;Node8 -->
<g id="edge65" class="edge">
<title>Node28&#45;&gt;Node8</title>
<path fill="none" stroke="#191970" d="M1178.5271,-168.4543C1158.0183,-153.3622 1115.3153,-124.4302 1074,-112 857.6777,-46.9171 787.9459,-123.0534 567,-76 541.5601,-70.5822 536.6483,-64.3068 512,-56 471.6287,-42.3944 424.582,-28.0224 394.5602,-19.0365"/>
<polygon fill="#191970" stroke="#191970" points="395.2732,-15.5969 384.6899,-16.0928 393.2725,-22.3049 395.2732,-15.5969"/>
</g>
<!-- Node28&#45;&gt;Node13 -->
<g id="edge68" class="edge">
<title>Node28&#45;&gt;Node13</title>
<path fill="none" stroke="#191970" d="M1126.8816,-168.9668C1061.3732,-159.4943 963.0957,-144.552 910.4578,-131.6158"/>
<polygon fill="#191970" stroke="#191970" points="911.1198,-128.1719 900.562,-129.0575 909.3677,-134.9491 911.1198,-128.1719"/>
</g>
<!-- Node28&#45;&gt;Node14 -->
<g id="edge67" class="edge">
<title>Node28&#45;&gt;Node14</title>
<path fill="none" stroke="#191970" d="M1148.3075,-168.4369C1098.6008,-157.3026 1017.6355,-139.1663 973.0213,-129.1728"/>
<polygon fill="#191970" stroke="#191970" points="973.5502,-125.7046 963.027,-126.934 972.0201,-132.5353 973.5502,-125.7046"/>
</g>
<!-- Node29 -->
<g id="node30" class="node">
<title>Node29</title>
<g id="a_node30"><a xlink:href="../../db/db5/export_8h.html" target="_top" xlink:title="Declares system&#45;dependent import/export macros and libraries. ">
<polygon fill="#ffffff" stroke="#000000" points="1159.5,-112.5 1159.5,-131.5 1288.5,-131.5 1288.5,-112.5 1159.5,-112.5"/>
<text text-anchor="middle" x="1224" y="-119.5" font-family="Helvetica,sans-Serif" font-size="10.00" fill="#000000">ajabase/common/export.h</text>
</a>
</g>
</g>
<!-- Node28&#45;&gt;Node29 -->
<g id="edge64" class="edge">
<title>Node28&#45;&gt;Node29</title>
<path fill="none" stroke="#191970" d="M1196.7482,-168.2455C1201.2435,-160.617 1207.6248,-149.7881 1213.0825,-140.5267"/>
<polygon fill="#191970" stroke="#191970" points="1216.2561,-142.035 1218.3177,-131.6427 1210.2253,-138.4811 1216.2561,-142.035"/>
</g>
<!-- Node30 -->
<g id="node31" class="node">
<title>Node30</title>
<polygon fill="#ffffff" stroke="#bfbfbf" points="1306.5,-112.5 1306.5,-131.5 1335.5,-131.5 1335.5,-112.5 1306.5,-112.5"/>
<text text-anchor="middle" x="1321" y="-119.5" font-family="Helvetica,sans-Serif" font-size="10.00" fill="#000000">list</text>
</g>
<!-- Node28&#45;&gt;Node30 -->
<g id="edge66" class="edge">
<title>Node28&#45;&gt;Node30</title>
<path fill="none" stroke="#191970" d="M1213.5561,-168.3348C1233.3569,-159.8434 1263.1671,-147.0431 1296.8159,-132.5024"/>
<polygon fill="#191970" stroke="#191970" points="1298.6135,-135.5383 1306.4033,-128.3571 1295.8355,-129.1132 1298.6135,-135.5383"/>
</g>
<!-- Node31 -->
<g id="node32" class="node">
<title>Node31</title>
<g id="a_node32"><a xlink:href="../../d9/d49/types_8h.html" target="_top" xlink:title="Declares common types used in the ajabase library. ">
<polygon fill="#ffffff" stroke="#000000" points="1132,-56.5 1132,-75.5 1258,-75.5 1258,-56.5 1132,-56.5"/>
<text text-anchor="middle" x="1195" y="-63.5" font-family="Helvetica,sans-Serif" font-size="10.00" fill="#000000">ajabase/common/types.h</text>
</a>
</g>
</g>
<!-- Node28&#45;&gt;Node31 -->
<g id="edge69" class="edge">
<title>Node28&#45;&gt;Node31</title>
<path fill="none" stroke="#191970" d="M1178.3903,-168.4693C1163.67,-156.0902 1142.3681,-133.5121 1151,-112 1155.6633,-100.3782 1164.8188,-90.0324 1173.5762,-82.1099"/>
<polygon fill="#191970" stroke="#191970" points="1175.9727,-84.6675 1181.3664,-75.5484 1171.4632,-79.3136 1175.9727,-84.6675"/>
</g>
<!-- Node31&#45;&gt;Node4 -->
<g id="edge70" class="edge">
<title>Node31&#45;&gt;Node4</title>
<path fill="none" stroke="#191970" d="M1216.8321,-56.3733C1237.3103,-47.3435 1268.1399,-33.7494 1291.1319,-23.6111"/>
<polygon fill="#191970" stroke="#191970" points="1292.715,-26.7383 1300.4528,-19.5011 1289.8907,-20.3333 1292.715,-26.7383"/>
</g>
<!-- Node32&#45;&gt;Node5 -->
<g id="edge74" class="edge">
<title>Node32&#45;&gt;Node5</title>
<path fill="none" stroke="#191970" d="M1394.7329,-168.4036C1413.7301,-161.0931 1437.3828,-149.3007 1453,-132 1467.0586,-116.4258 1485.7623,-60.0114 1495.1297,-29.6564"/>
<polygon fill="#191970" stroke="#191970" points="1498.5734,-30.3616 1498.1325,-19.7759 1491.8758,-28.3261 1498.5734,-30.3616"/>
</g>
<!-- Node32&#45;&gt;Node8 -->
<g id="edge75" class="edge">
<title>Node32&#45;&gt;Node8</title>
<path fill="none" stroke="#191970" d="M1364.4117,-168.0311C1364.4204,-153.1703 1361.9811,-125.5123 1345,-112 1286.7501,-65.6492 749.802,-85.7322 676,-76 571.5774,-62.2299 450.0564,-32.4783 394.5147,-18.1019"/>
<polygon fill="#191970" stroke="#191970" points="395.1798,-14.6584 384.6203,-15.5223 393.4138,-21.432 395.1798,-14.6584"/>
</g>
<!-- Node32&#45;&gt;Node14 -->
<g id="edge76" class="edge">
<title>Node32&#45;&gt;Node14</title>
<path fill="none" stroke="#191970" d="M1290.3955,-168.7559C1218.7634,-159.6839 1106.8553,-145.3106 1010,-132 997.9728,-130.3471 984.7786,-128.4544 973.1779,-126.7636"/>
<polygon fill="#191970" stroke="#191970" points="973.4531,-123.2666 963.0514,-125.2801 972.4384,-130.1927 973.4531,-123.2666"/>
</g>
<!-- Node32&#45;&gt;Node29 -->
<g id="edge72" class="edge">
<title>Node32&#45;&gt;Node29</title>
<path fill="none" stroke="#191970" d="M1339.9331,-168.3733C1317.1572,-159.2629 1282.7656,-145.5062 1257.351,-135.3404"/>
<polygon fill="#191970" stroke="#191970" points="1258.3375,-131.9654 1247.7528,-131.5011 1255.7377,-138.4648 1258.3375,-131.9654"/>
</g>
<!-- Node33 -->
<g id="node34" class="node">
<title>Node33</title>
<polygon fill="#ffffff" stroke="#bfbfbf" points="1392,-112.5 1392,-131.5 1444,-131.5 1444,-112.5 1392,-112.5"/>
<text text-anchor="middle" x="1418" y="-119.5" font-family="Helvetica,sans-Serif" font-size="10.00" fill="#000000">stddef.h</text>
</g>
<!-- Node32&#45;&gt;Node33 -->
<g id="edge73" class="edge">
<title>Node32&#45;&gt;Node33</title>
<path fill="none" stroke="#191970" d="M1373.4061,-168.2455C1381.1493,-160.2155 1392.312,-148.6394 1401.5318,-139.0781"/>
<polygon fill="#191970" stroke="#191970" points="1404.2798,-141.2706 1408.7017,-131.6427 1399.2409,-136.4117 1404.2798,-141.2706"/>
</g>
<!-- Node34&#45;&gt;Node8 -->
<g id="edge80" class="edge">
<title>Node34&#45;&gt;Node8</title>
<path fill="none" stroke="#191970" d="M1032.5636,-168.2432C1021.9768,-153.1325 999.3146,-124.5099 972,-112 792.4022,-29.7451 721.3001,-121.1873 529,-76 478.9176,-64.2315 424.0732,-39.7918 391.9193,-24.1812"/>
<polygon fill="#191970" stroke="#191970" points="393.2172,-20.9191 382.6994,-19.6438 390.1263,-27.1998 393.2172,-20.9191"/>
</g>
<!-- Node34&#45;&gt;Node12 -->
<g id="edge79" class="edge">
<title>Node34&#45;&gt;Node12</title>
<path fill="none" stroke="#191970" d="M994.3991,-168.4709C957.2626,-160.1222 903.1855,-147.0002 857,-132 856.9,-131.9675 856.7998,-131.9348 856.6994,-131.9019"/>
<polygon fill="#191970" stroke="#191970" points="857.8128,-128.5827 847.2186,-128.4606 855.4243,-135.1626 857.8128,-128.5827"/>
</g>
<!-- Node34&#45;&gt;Node14 -->
<g id="edge81" class="edge">
<title>Node34&#45;&gt;Node14</title>
<path fill="none" stroke="#191970" d="M1021.9297,-168.2455C1006.753,-159.5731 984.3379,-146.7645 966.9437,-136.825"/>
<polygon fill="#191970" stroke="#191970" points="968.2936,-133.5653 957.8747,-131.6427 964.8206,-139.643 968.2936,-133.5653"/>
</g>
<!-- Node34&#45;&gt;Node29 -->
<g id="edge78" class="edge">
<title>Node34&#45;&gt;Node29</title>
<path fill="none" stroke="#191970" d="M1070.8026,-168.3733C1101.8317,-158.9807 1149.1754,-144.6496 1183.0147,-134.4064"/>
<polygon fill="#191970" stroke="#191970" points="1184.0553,-137.7483 1192.6124,-131.5011 1182.0272,-131.0485 1184.0553,-137.7483"/>
</g>
<!-- Node35 -->
<g id="node36" class="node">
<title>Node35</title>
<polygon fill="#ffffff" stroke="#bfbfbf" points="1019,-112.5 1019,-131.5 1065,-131.5 1065,-112.5 1019,-112.5"/>
<text text-anchor="middle" x="1042" y="-119.5" font-family="Helvetica,sans-Serif" font-size="10.00" fill="#000000">cstdint</text>
</g>
<!-- Node34&#45;&gt;Node35 -->
<g id="edge82" class="edge">
<title>Node34&#45;&gt;Node35</title>
<path fill="none" stroke="#191970" d="M1039.5226,-168.2455C1039.914,-160.9382 1040.4628,-150.6944 1040.9444,-141.7046"/>
<polygon fill="#191970" stroke="#191970" points="1044.4434,-141.8156 1041.4834,-131.6427 1037.4534,-141.4411 1044.4434,-141.8156"/>
</g>
</g>
</svg>
