<?xml version="1.0" encoding="UTF-8" standalone="no"?>
<!DOCTYPE svg PUBLIC "-//W3C//DTD SVG 1.1//EN"
 "http://www.w3.org/Graphics/SVG/1.1/DTD/svg11.dtd">
<!-- Generated by graphviz version 2.43.0 (0)
 -->
<!-- Title: /home/tcbuilder/buildAgent/work/df8e8cce5bebfd58/libajantv2/demos/ntv2vcam/baseclasses/amextra.h Pages: 1 -->
<svg width="7561pt" height="206pt"
 viewBox="0.00 0.00 7560.50 206.00" xmlns="http://www.w3.org/2000/svg" xmlns:xlink="http://www.w3.org/1999/xlink">
<g id="graph0" class="graph" transform="scale(1 1) rotate(0) translate(4 202)">
<title>/home/tcbuilder/buildAgent/work/df8e8cce5bebfd58/libajantv2/demos/ntv2vcam/baseclasses/amextra.h</title>
<polygon fill="white" stroke="transparent" points="-4,4 -4,-202 7556.5,-202 7556.5,4 -4,4"/>
<!-- Node1 -->
<g id="node1" class="node">
<title>Node1</title>
<g id="a_node1"><a xlink:title=" ">
<polygon fill="#bfbfbf" stroke="black" points="1836.5,-156.5 1836.5,-197.5 2056.5,-197.5 2056.5,-156.5 1836.5,-156.5"/>
<text text-anchor="start" x="1844.5" y="-185.5" font-family="Helvetica,sans-Serif" font-size="10.00">/home/tcbuilder/buildAgent</text>
<text text-anchor="start" x="1844.5" y="-174.5" font-family="Helvetica,sans-Serif" font-size="10.00">/work/df8e8cce5bebfd58/libajantv2</text>
<text text-anchor="middle" x="1946.5" y="-163.5" font-family="Helvetica,sans-Serif" font-size="10.00">/demos/ntv2vcam/baseclasses/amextra.h</text>
</a>
</g>
</g>
<!-- Node2 -->
<g id="node2" class="node">
<title>Node2</title>
<g id="a_node2"><a xlink:href="../../d7/d11/amextra_8cpp.html" target="_top" xlink:title=" ">
<polygon fill="white" stroke="black" points="0,-0.5 0,-41.5 231,-41.5 231,-0.5 0,-0.5"/>
<text text-anchor="start" x="8" y="-29.5" font-family="Helvetica,sans-Serif" font-size="10.00">/home/tcbuilder/buildAgent</text>
<text text-anchor="start" x="8" y="-18.5" font-family="Helvetica,sans-Serif" font-size="10.00">/work/df8e8cce5bebfd58/libajantv2</text>
<text text-anchor="middle" x="115.5" y="-7.5" font-family="Helvetica,sans-Serif" font-size="10.00">/demos/ntv2vcam/baseclasses/amextra.cpp</text>
</a>
</g>
</g>
<!-- Node1&#45;&gt;Node2 -->
<g id="edge1" class="edge">
<title>Node1&#45;&gt;Node2</title>
<path fill="none" stroke="midnightblue" d="M1826.2,-169.94C1546.85,-155.13 832.82,-113.02 239.5,-42 236.79,-41.68 234.06,-41.34 231.3,-40.98"/>
<polygon fill="midnightblue" stroke="midnightblue" points="1826.19,-173.44 1836.36,-170.48 1826.55,-166.45 1826.19,-173.44"/>
</g>
<!-- Node3 -->
<g id="node3" class="node">
<title>Node3</title>
<g id="a_node3"><a xlink:href="../../db/d8e/streams_8h.html" target="_top" xlink:title=" ">
<polygon fill="white" stroke="black" points="3546.5,-78.5 3546.5,-119.5 3764.5,-119.5 3764.5,-78.5 3546.5,-78.5"/>
<text text-anchor="start" x="3554.5" y="-107.5" font-family="Helvetica,sans-Serif" font-size="10.00">/home/tcbuilder/buildAgent</text>
<text text-anchor="start" x="3554.5" y="-96.5" font-family="Helvetica,sans-Serif" font-size="10.00">/work/df8e8cce5bebfd58/libajantv2</text>
<text text-anchor="middle" x="3655.5" y="-85.5" font-family="Helvetica,sans-Serif" font-size="10.00">/demos/ntv2vcam/baseclasses/streams.h</text>
</a>
</g>
</g>
<!-- Node1&#45;&gt;Node3 -->
<g id="edge2" class="edge">
<title>Node1&#45;&gt;Node3</title>
<path fill="none" stroke="midnightblue" d="M2066.82,-170.65C2384.46,-156.52 3242.05,-118.39 3546.47,-104.85"/>
<polygon fill="midnightblue" stroke="midnightblue" points="2066.49,-167.16 2056.66,-171.1 2066.81,-174.15 2066.49,-167.16"/>
</g>
<!-- Node3&#45;&gt;Node2 -->
<g id="edge3" class="edge">
<title>Node3&#45;&gt;Node2</title>
<path fill="none" stroke="midnightblue" d="M3536.36,-96.53C2951.63,-89.24 406.76,-56.78 239.5,-42 236.78,-41.76 234.04,-41.5 231.27,-41.21"/>
<polygon fill="midnightblue" stroke="midnightblue" points="3536.45,-100.03 3546.5,-96.65 3536.54,-93.03 3536.45,-100.03"/>
</g>
<!-- Node4 -->
<g id="node4" class="node">
<title>Node4</title>
<g id="a_node4"><a xlink:href="../../d8/def/amfilter_8cpp.html" target="_top" xlink:title=" ">
<polygon fill="white" stroke="black" points="249,-0.5 249,-41.5 476,-41.5 476,-0.5 249,-0.5"/>
<text text-anchor="start" x="257" y="-29.5" font-family="Helvetica,sans-Serif" font-size="10.00">/home/tcbuilder/buildAgent</text>
<text text-anchor="start" x="257" y="-18.5" font-family="Helvetica,sans-Serif" font-size="10.00">/work/df8e8cce5bebfd58/libajantv2</text>
<text text-anchor="middle" x="362.5" y="-7.5" font-family="Helvetica,sans-Serif" font-size="10.00">/demos/ntv2vcam/baseclasses/amfilter.cpp</text>
</a>
</g>
</g>
<!-- Node3&#45;&gt;Node4 -->
<g id="edge4" class="edge">
<title>Node3&#45;&gt;Node4</title>
<path fill="none" stroke="midnightblue" d="M3535.94,-96.92C2995.29,-91.87 792.02,-69.78 484.5,-42 481.72,-41.75 478.91,-41.47 476.08,-41.17"/>
<polygon fill="midnightblue" stroke="midnightblue" points="3536.07,-100.42 3546.1,-97.01 3536.13,-93.42 3536.07,-100.42"/>
</g>
<!-- Node5 -->
<g id="node5" class="node">
<title>Node5</title>
<g id="a_node5"><a xlink:href="../../dc/d6e/amvideo_8cpp.html" target="_top" xlink:title=" ">
<polygon fill="white" stroke="black" points="494,-0.5 494,-41.5 727,-41.5 727,-0.5 494,-0.5"/>
<text text-anchor="start" x="502" y="-29.5" font-family="Helvetica,sans-Serif" font-size="10.00">/home/tcbuilder/buildAgent</text>
<text text-anchor="start" x="502" y="-18.5" font-family="Helvetica,sans-Serif" font-size="10.00">/work/df8e8cce5bebfd58/libajantv2</text>
<text text-anchor="middle" x="610.5" y="-7.5" font-family="Helvetica,sans-Serif" font-size="10.00">/demos/ntv2vcam/baseclasses/amvideo.cpp</text>
</a>
</g>
</g>
<!-- Node3&#45;&gt;Node5 -->
<g id="edge5" class="edge">
<title>Node3&#45;&gt;Node5</title>
<path fill="none" stroke="midnightblue" d="M3536.23,-96.69C3023.26,-90.91 1017.92,-66.91 736.5,-42 733.41,-41.73 730.28,-41.42 727.13,-41.09"/>
<polygon fill="midnightblue" stroke="midnightblue" points="3536.21,-100.19 3546.25,-96.8 3536.29,-93.19 3536.21,-100.19"/>
</g>
<!-- Node6 -->
<g id="node6" class="node">
<title>Node6</title>
<g id="a_node6"><a xlink:href="../../d9/dea/arithutil_8cpp.html" target="_top" xlink:title=" ">
<polygon fill="white" stroke="black" points="745.5,-0.5 745.5,-41.5 973.5,-41.5 973.5,-0.5 745.5,-0.5"/>
<text text-anchor="start" x="753.5" y="-29.5" font-family="Helvetica,sans-Serif" font-size="10.00">/home/tcbuilder/buildAgent</text>
<text text-anchor="start" x="753.5" y="-18.5" font-family="Helvetica,sans-Serif" font-size="10.00">/work/df8e8cce5bebfd58/libajantv2</text>
<text text-anchor="middle" x="859.5" y="-7.5" font-family="Helvetica,sans-Serif" font-size="10.00">/demos/ntv2vcam/baseclasses/arithutil.cpp</text>
</a>
</g>
</g>
<!-- Node3&#45;&gt;Node6 -->
<g id="edge6" class="edge">
<title>Node3&#45;&gt;Node6</title>
<path fill="none" stroke="midnightblue" d="M3535.97,-96.48C3050.27,-90.19 1238.3,-65.36 982.5,-42 979.59,-41.73 976.65,-41.44 973.68,-41.12"/>
<polygon fill="midnightblue" stroke="midnightblue" points="3536.11,-99.99 3546.15,-96.62 3536.2,-92.99 3536.11,-99.99"/>
</g>
<!-- Node7 -->
<g id="node7" class="node">
<title>Node7</title>
<g id="a_node7"><a xlink:href="../../dc/d47/combase_8cpp.html" target="_top" xlink:title=" ">
<polygon fill="white" stroke="black" points="991.5,-0.5 991.5,-41.5 1225.5,-41.5 1225.5,-0.5 991.5,-0.5"/>
<text text-anchor="start" x="999.5" y="-29.5" font-family="Helvetica,sans-Serif" font-size="10.00">/home/tcbuilder/buildAgent</text>
<text text-anchor="start" x="999.5" y="-18.5" font-family="Helvetica,sans-Serif" font-size="10.00">/work/df8e8cce5bebfd58/libajantv2</text>
<text text-anchor="middle" x="1108.5" y="-7.5" font-family="Helvetica,sans-Serif" font-size="10.00">/demos/ntv2vcam/baseclasses/combase.cpp</text>
</a>
</g>
</g>
<!-- Node3&#45;&gt;Node7 -->
<g id="edge7" class="edge">
<title>Node3&#45;&gt;Node7</title>
<path fill="none" stroke="midnightblue" d="M3536.34,-97.36C3113.92,-94.78 1689.04,-83.14 1234.5,-42 1231.63,-41.74 1228.73,-41.46 1225.81,-41.15"/>
<polygon fill="midnightblue" stroke="midnightblue" points="3536.41,-100.86 3546.43,-97.43 3536.45,-93.86 3536.41,-100.86"/>
</g>
<!-- Node8 -->
<g id="node8" class="node">
<title>Node8</title>
<g id="a_node8"><a xlink:href="../../d9/db0/cprop_8cpp.html" target="_top" xlink:title=" ">
<polygon fill="white" stroke="black" points="1244,-0.5 1244,-41.5 1461,-41.5 1461,-0.5 1244,-0.5"/>
<text text-anchor="start" x="1252" y="-29.5" font-family="Helvetica,sans-Serif" font-size="10.00">/home/tcbuilder/buildAgent</text>
<text text-anchor="start" x="1252" y="-18.5" font-family="Helvetica,sans-Serif" font-size="10.00">/work/df8e8cce5bebfd58/libajantv2</text>
<text text-anchor="middle" x="1352.5" y="-7.5" font-family="Helvetica,sans-Serif" font-size="10.00">/demos/ntv2vcam/baseclasses/cprop.cpp</text>
</a>
</g>
</g>
<!-- Node3&#45;&gt;Node8 -->
<g id="edge8" class="edge">
<title>Node3&#45;&gt;Node8</title>
<path fill="none" stroke="midnightblue" d="M3536.34,-97.18C3141.24,-94.12 1876.44,-81.4 1470.5,-42 1467.4,-41.7 1464.25,-41.36 1461.08,-41"/>
<polygon fill="midnightblue" stroke="midnightblue" points="3536.33,-100.68 3546.36,-97.26 3536.39,-93.68 3536.33,-100.68"/>
</g>
<!-- Node9 -->
<g id="node9" class="node">
<title>Node9</title>
<g id="a_node9"><a xlink:href="../../d2/dae/ctlutil_8cpp.html" target="_top" xlink:title=" ">
<polygon fill="white" stroke="black" points="1479.5,-0.5 1479.5,-41.5 1697.5,-41.5 1697.5,-0.5 1479.5,-0.5"/>
<text text-anchor="start" x="1487.5" y="-29.5" font-family="Helvetica,sans-Serif" font-size="10.00">/home/tcbuilder/buildAgent</text>
<text text-anchor="start" x="1487.5" y="-18.5" font-family="Helvetica,sans-Serif" font-size="10.00">/work/df8e8cce5bebfd58/libajantv2</text>
<text text-anchor="middle" x="1588.5" y="-7.5" font-family="Helvetica,sans-Serif" font-size="10.00">/demos/ntv2vcam/baseclasses/ctlutil.cpp</text>
</a>
</g>
</g>
<!-- Node3&#45;&gt;Node9 -->
<g id="edge9" class="edge">
<title>Node3&#45;&gt;Node9</title>
<path fill="none" stroke="midnightblue" d="M3536.22,-96.75C3169.87,-92.57 2064.24,-77.28 1706.5,-42 1703.61,-41.71 1700.67,-41.4 1697.72,-41.06"/>
<polygon fill="midnightblue" stroke="midnightblue" points="3536.27,-100.25 3546.31,-96.86 3536.35,-93.25 3536.27,-100.25"/>
</g>
<!-- Node10 -->
<g id="node10" class="node">
<title>Node10</title>
<g id="a_node10"><a xlink:href="../../d3/d0a/ddmm_8cpp.html" target="_top" xlink:title=" ">
<polygon fill="white" stroke="black" points="1716,-0.5 1716,-41.5 1937,-41.5 1937,-0.5 1716,-0.5"/>
<text text-anchor="start" x="1724" y="-29.5" font-family="Helvetica,sans-Serif" font-size="10.00">/home/tcbuilder/buildAgent</text>
<text text-anchor="start" x="1724" y="-18.5" font-family="Helvetica,sans-Serif" font-size="10.00">/work/df8e8cce5bebfd58/libajantv2</text>
<text text-anchor="middle" x="1826.5" y="-7.5" font-family="Helvetica,sans-Serif" font-size="10.00">/demos/ntv2vcam/baseclasses/ddmm.cpp</text>
</a>
</g>
</g>
<!-- Node3&#45;&gt;Node10 -->
<g id="edge10" class="edge">
<title>Node3&#45;&gt;Node10</title>
<path fill="none" stroke="midnightblue" d="M3536.05,-96.15C3200.81,-90.61 2255.51,-72.68 1946.5,-42 1943.45,-41.7 1940.37,-41.37 1937.25,-41.01"/>
<polygon fill="midnightblue" stroke="midnightblue" points="3536.22,-99.65 3546.28,-96.31 3536.33,-92.65 3536.22,-99.65"/>
</g>
<!-- Node11 -->
<g id="node11" class="node">
<title>Node11</title>
<g id="a_node11"><a xlink:href="../../de/d7b/dllentry_8cpp.html" target="_top" xlink:title=" ">
<polygon fill="white" stroke="black" points="1955.5,-0.5 1955.5,-41.5 2181.5,-41.5 2181.5,-0.5 1955.5,-0.5"/>
<text text-anchor="start" x="1963.5" y="-29.5" font-family="Helvetica,sans-Serif" font-size="10.00">/home/tcbuilder/buildAgent</text>
<text text-anchor="start" x="1963.5" y="-18.5" font-family="Helvetica,sans-Serif" font-size="10.00">/work/df8e8cce5bebfd58/libajantv2</text>
<text text-anchor="middle" x="2068.5" y="-7.5" font-family="Helvetica,sans-Serif" font-size="10.00">/demos/ntv2vcam/baseclasses/dllentry.cpp</text>
</a>
</g>
</g>
<!-- Node3&#45;&gt;Node11 -->
<g id="edge11" class="edge">
<title>Node3&#45;&gt;Node11</title>
<path fill="none" stroke="midnightblue" d="M3536.09,-98.45C3285.87,-98.29 2688.51,-92.14 2190.5,-42 2187.62,-41.71 2184.7,-41.39 2181.76,-41.06"/>
<polygon fill="midnightblue" stroke="midnightblue" points="3536.29,-101.95 3546.29,-98.45 3536.29,-94.95 3536.29,-101.95"/>
</g>
<!-- Node12 -->
<g id="node12" class="node">
<title>Node12</title>
<g id="a_node12"><a xlink:href="../../d4/d6a/dllsetup_8cpp.html" target="_top" xlink:title=" ">
<polygon fill="white" stroke="black" points="2200,-0.5 2200,-41.5 2429,-41.5 2429,-0.5 2200,-0.5"/>
<text text-anchor="start" x="2208" y="-29.5" font-family="Helvetica,sans-Serif" font-size="10.00">/home/tcbuilder/buildAgent</text>
<text text-anchor="start" x="2208" y="-18.5" font-family="Helvetica,sans-Serif" font-size="10.00">/work/df8e8cce5bebfd58/libajantv2</text>
<text text-anchor="middle" x="2314.5" y="-7.5" font-family="Helvetica,sans-Serif" font-size="10.00">/demos/ntv2vcam/baseclasses/dllsetup.cpp</text>
</a>
</g>
</g>
<!-- Node3&#45;&gt;Node12 -->
<g id="edge12" class="edge">
<title>Node3&#45;&gt;Node12</title>
<path fill="none" stroke="midnightblue" d="M3536.21,-97.07C3317.71,-94.35 2838.8,-83.71 2437.5,-42 2434.7,-41.71 2431.87,-41.4 2429.02,-41.06"/>
<polygon fill="midnightblue" stroke="midnightblue" points="3536.38,-100.57 3546.42,-97.19 3536.46,-93.57 3536.38,-100.57"/>
</g>
<!-- Node13 -->
<g id="node13" class="node">
<title>Node13</title>
<g id="a_node13"><a xlink:href="../../d3/d92/mtype_8cpp.html" target="_top" xlink:title=" ">
<polygon fill="white" stroke="black" points="2447,-0.5 2447,-41.5 2668,-41.5 2668,-0.5 2447,-0.5"/>
<text text-anchor="start" x="2455" y="-29.5" font-family="Helvetica,sans-Serif" font-size="10.00">/home/tcbuilder/buildAgent</text>
<text text-anchor="start" x="2455" y="-18.5" font-family="Helvetica,sans-Serif" font-size="10.00">/work/df8e8cce5bebfd58/libajantv2</text>
<text text-anchor="middle" x="2557.5" y="-7.5" font-family="Helvetica,sans-Serif" font-size="10.00">/demos/ntv2vcam/baseclasses/mtype.cpp</text>
</a>
</g>
</g>
<!-- Node3&#45;&gt;Node13 -->
<g id="edge13" class="edge">
<title>Node3&#45;&gt;Node13</title>
<path fill="none" stroke="midnightblue" d="M3536.14,-95.38C3351.4,-90.37 2985.28,-76.67 2676.5,-42 2673.79,-41.7 2671.06,-41.37 2668.29,-41.03"/>
<polygon fill="midnightblue" stroke="midnightblue" points="3536.06,-98.88 3546.15,-95.65 3536.25,-91.88 3536.06,-98.88"/>
</g>
<!-- Node14 -->
<g id="node14" class="node">
<title>Node14</title>
<g id="a_node14"><a xlink:href="../../df/d61/outputq_8cpp.html" target="_top" xlink:title=" ">
<polygon fill="white" stroke="black" points="2686,-0.5 2686,-41.5 2913,-41.5 2913,-0.5 2686,-0.5"/>
<text text-anchor="start" x="2694" y="-29.5" font-family="Helvetica,sans-Serif" font-size="10.00">/home/tcbuilder/buildAgent</text>
<text text-anchor="start" x="2694" y="-18.5" font-family="Helvetica,sans-Serif" font-size="10.00">/work/df8e8cce5bebfd58/libajantv2</text>
<text text-anchor="middle" x="2799.5" y="-7.5" font-family="Helvetica,sans-Serif" font-size="10.00">/demos/ntv2vcam/baseclasses/outputq.cpp</text>
</a>
</g>
</g>
<!-- Node3&#45;&gt;Node14 -->
<g id="edge14" class="edge">
<title>Node3&#45;&gt;Node14</title>
<path fill="none" stroke="midnightblue" d="M3535.97,-91.99C3390.62,-83.97 3138,-67.7 2922.5,-42 2919.39,-41.63 2916.23,-41.23 2913.04,-40.82"/>
<polygon fill="midnightblue" stroke="midnightblue" points="3536.07,-95.5 3546.24,-92.56 3536.45,-88.51 3536.07,-95.5"/>
</g>
<!-- Node15 -->
<g id="node15" class="node">
<title>Node15</title>
<g id="a_node15"><a xlink:href="../../d9/d7b/perflog_8cpp.html" target="_top" xlink:title=" ">
<polygon fill="white" stroke="black" points="2931.5,-0.5 2931.5,-41.5 3155.5,-41.5 3155.5,-0.5 2931.5,-0.5"/>
<text text-anchor="start" x="2939.5" y="-29.5" font-family="Helvetica,sans-Serif" font-size="10.00">/home/tcbuilder/buildAgent</text>
<text text-anchor="start" x="2939.5" y="-18.5" font-family="Helvetica,sans-Serif" font-size="10.00">/work/df8e8cce5bebfd58/libajantv2</text>
<text text-anchor="middle" x="3043.5" y="-7.5" font-family="Helvetica,sans-Serif" font-size="10.00">/demos/ntv2vcam/baseclasses/perflog.cpp</text>
</a>
</g>
</g>
<!-- Node3&#45;&gt;Node15 -->
<g id="edge15" class="edge">
<title>Node3&#45;&gt;Node15</title>
<path fill="none" stroke="midnightblue" d="M3536,-86.07C3436.45,-75.72 3291.01,-59.66 3164.5,-42 3161.55,-41.59 3158.56,-41.16 3155.54,-40.72"/>
<polygon fill="midnightblue" stroke="midnightblue" points="3535.79,-89.56 3546.09,-87.11 3536.51,-82.6 3535.79,-89.56"/>
</g>
<!-- Node16 -->
<g id="node16" class="node">
<title>Node16</title>
<g id="a_node16"><a xlink:href="../../d3/d0c/pstream_8cpp.html" target="_top" xlink:title=" ">
<polygon fill="white" stroke="black" points="3173.5,-0.5 3173.5,-41.5 3403.5,-41.5 3403.5,-0.5 3173.5,-0.5"/>
<text text-anchor="start" x="3181.5" y="-29.5" font-family="Helvetica,sans-Serif" font-size="10.00">/home/tcbuilder/buildAgent</text>
<text text-anchor="start" x="3181.5" y="-18.5" font-family="Helvetica,sans-Serif" font-size="10.00">/work/df8e8cce5bebfd58/libajantv2</text>
<text text-anchor="middle" x="3288.5" y="-7.5" font-family="Helvetica,sans-Serif" font-size="10.00">/demos/ntv2vcam/baseclasses/pstream.cpp</text>
</a>
</g>
</g>
<!-- Node3&#45;&gt;Node16 -->
<g id="edge16" class="edge">
<title>Node3&#45;&gt;Node16</title>
<path fill="none" stroke="midnightblue" d="M3550.89,-76.34C3497.92,-65.37 3434.12,-52.16 3382.69,-41.51"/>
<polygon fill="midnightblue" stroke="midnightblue" points="3550.49,-79.83 3560.99,-78.43 3551.91,-72.97 3550.49,-79.83"/>
</g>
<!-- Node17 -->
<g id="node17" class="node">
<title>Node17</title>
<g id="a_node17"><a xlink:href="../../d0/df4/pullpin_8cpp.html" target="_top" xlink:title=" ">
<polygon fill="white" stroke="black" points="3422,-0.5 3422,-41.5 3645,-41.5 3645,-0.5 3422,-0.5"/>
<text text-anchor="start" x="3430" y="-29.5" font-family="Helvetica,sans-Serif" font-size="10.00">/home/tcbuilder/buildAgent</text>
<text text-anchor="start" x="3430" y="-18.5" font-family="Helvetica,sans-Serif" font-size="10.00">/work/df8e8cce5bebfd58/libajantv2</text>
<text text-anchor="middle" x="3533.5" y="-7.5" font-family="Helvetica,sans-Serif" font-size="10.00">/demos/ntv2vcam/baseclasses/pullpin.cpp</text>
</a>
</g>
</g>
<!-- Node3&#45;&gt;Node17 -->
<g id="edge17" class="edge">
<title>Node3&#45;&gt;Node17</title>
<path fill="none" stroke="midnightblue" d="M3615.24,-72.92C3598.84,-62.7 3580.17,-51.07 3564.81,-41.51"/>
<polygon fill="midnightblue" stroke="midnightblue" points="3613.74,-76.11 3624.08,-78.43 3617.44,-70.17 3613.74,-76.11"/>
</g>
<!-- Node18 -->
<g id="node18" class="node">
<title>Node18</title>
<g id="a_node18"><a xlink:href="../../d1/dd7/refclock_8cpp.html" target="_top" xlink:title=" ">
<polygon fill="white" stroke="black" points="3663,-0.5 3663,-41.5 3892,-41.5 3892,-0.5 3663,-0.5"/>
<text text-anchor="start" x="3671" y="-29.5" font-family="Helvetica,sans-Serif" font-size="10.00">/home/tcbuilder/buildAgent</text>
<text text-anchor="start" x="3671" y="-18.5" font-family="Helvetica,sans-Serif" font-size="10.00">/work/df8e8cce5bebfd58/libajantv2</text>
<text text-anchor="middle" x="3777.5" y="-7.5" font-family="Helvetica,sans-Serif" font-size="10.00">/demos/ntv2vcam/baseclasses/refclock.cpp</text>
</a>
</g>
</g>
<!-- Node3&#45;&gt;Node18 -->
<g id="edge18" class="edge">
<title>Node3&#45;&gt;Node18</title>
<path fill="none" stroke="midnightblue" d="M3695.76,-72.92C3712.16,-62.7 3730.83,-51.07 3746.19,-41.51"/>
<polygon fill="midnightblue" stroke="midnightblue" points="3693.56,-70.17 3686.92,-78.43 3697.26,-76.11 3693.56,-70.17"/>
</g>
<!-- Node19 -->
<g id="node19" class="node">
<title>Node19</title>
<g id="a_node19"><a xlink:href="../../df/d83/renbase_8cpp.html" target="_top" xlink:title=" ">
<polygon fill="white" stroke="black" points="3910,-0.5 3910,-41.5 4139,-41.5 4139,-0.5 3910,-0.5"/>
<text text-anchor="start" x="3918" y="-29.5" font-family="Helvetica,sans-Serif" font-size="10.00">/home/tcbuilder/buildAgent</text>
<text text-anchor="start" x="3918" y="-18.5" font-family="Helvetica,sans-Serif" font-size="10.00">/work/df8e8cce5bebfd58/libajantv2</text>
<text text-anchor="middle" x="4024.5" y="-7.5" font-family="Helvetica,sans-Serif" font-size="10.00">/demos/ntv2vcam/baseclasses/renbase.cpp</text>
</a>
</g>
</g>
<!-- Node3&#45;&gt;Node19 -->
<g id="edge19" class="edge">
<title>Node3&#45;&gt;Node19</title>
<path fill="none" stroke="midnightblue" d="M3760.35,-76.4C3813.67,-65.42 3877.98,-52.18 3929.8,-41.51"/>
<polygon fill="midnightblue" stroke="midnightblue" points="3759.62,-72.98 3750.53,-78.43 3761.03,-79.84 3759.62,-72.98"/>
</g>
<!-- Node20 -->
<g id="node20" class="node">
<title>Node20</title>
<g id="a_node20"><a xlink:href="../../d2/d9a/schedule_8cpp.html" target="_top" xlink:title=" ">
<polygon fill="white" stroke="black" points="4157,-0.5 4157,-41.5 4390,-41.5 4390,-0.5 4157,-0.5"/>
<text text-anchor="start" x="4165" y="-29.5" font-family="Helvetica,sans-Serif" font-size="10.00">/home/tcbuilder/buildAgent</text>
<text text-anchor="start" x="4165" y="-18.5" font-family="Helvetica,sans-Serif" font-size="10.00">/work/df8e8cce5bebfd58/libajantv2</text>
<text text-anchor="middle" x="4273.5" y="-7.5" font-family="Helvetica,sans-Serif" font-size="10.00">/demos/ntv2vcam/baseclasses/schedule.cpp</text>
</a>
</g>
</g>
<!-- Node3&#45;&gt;Node20 -->
<g id="edge20" class="edge">
<title>Node3&#45;&gt;Node20</title>
<path fill="none" stroke="midnightblue" d="M3774.98,-85.97C3874.94,-75.53 4021.22,-59.4 4148.5,-42 4151.22,-41.63 4153.98,-41.24 4156.75,-40.85"/>
<polygon fill="midnightblue" stroke="midnightblue" points="3774.43,-82.51 3764.84,-87.02 3775.15,-89.47 3774.43,-82.51"/>
</g>
<!-- Node21 -->
<g id="node21" class="node">
<title>Node21</title>
<g id="a_node21"><a xlink:href="../../d3/d72/seekpt_8cpp.html" target="_top" xlink:title=" ">
<polygon fill="white" stroke="black" points="4408,-0.5 4408,-41.5 4631,-41.5 4631,-0.5 4408,-0.5"/>
<text text-anchor="start" x="4416" y="-29.5" font-family="Helvetica,sans-Serif" font-size="10.00">/home/tcbuilder/buildAgent</text>
<text text-anchor="start" x="4416" y="-18.5" font-family="Helvetica,sans-Serif" font-size="10.00">/work/df8e8cce5bebfd58/libajantv2</text>
<text text-anchor="middle" x="4519.5" y="-7.5" font-family="Helvetica,sans-Serif" font-size="10.00">/demos/ntv2vcam/baseclasses/seekpt.cpp</text>
</a>
</g>
</g>
<!-- Node3&#45;&gt;Node21 -->
<g id="edge21" class="edge">
<title>Node3&#45;&gt;Node21</title>
<path fill="none" stroke="midnightblue" d="M3774.95,-92.33C3922.19,-84.57 4179.88,-68.51 4399.5,-42 4402.23,-41.67 4404.98,-41.32 4407.77,-40.96"/>
<polygon fill="midnightblue" stroke="midnightblue" points="3774.34,-88.85 3764.54,-92.87 3774.71,-95.85 3774.34,-88.85"/>
</g>
<!-- Node22 -->
<g id="node22" class="node">
<title>Node22</title>
<g id="a_node22"><a xlink:href="../../db/d3a/source_8cpp.html" target="_top" xlink:title=" ">
<polygon fill="white" stroke="black" points="4649.5,-0.5 4649.5,-41.5 4871.5,-41.5 4871.5,-0.5 4649.5,-0.5"/>
<text text-anchor="start" x="4657.5" y="-29.5" font-family="Helvetica,sans-Serif" font-size="10.00">/home/tcbuilder/buildAgent</text>
<text text-anchor="start" x="4657.5" y="-18.5" font-family="Helvetica,sans-Serif" font-size="10.00">/work/df8e8cce5bebfd58/libajantv2</text>
<text text-anchor="middle" x="4760.5" y="-7.5" font-family="Helvetica,sans-Serif" font-size="10.00">/demos/ntv2vcam/baseclasses/source.cpp</text>
</a>
</g>
</g>
<!-- Node3&#45;&gt;Node22 -->
<g id="edge22" class="edge">
<title>Node3&#45;&gt;Node22</title>
<path fill="none" stroke="midnightblue" d="M3774.83,-95.38C3960.46,-90.38 4329.38,-76.67 4640.5,-42 4643.44,-41.67 4646.41,-41.32 4649.42,-40.95"/>
<polygon fill="midnightblue" stroke="midnightblue" points="3774.68,-91.89 3764.78,-95.65 3774.87,-98.88 3774.68,-91.89"/>
</g>
<!-- Node23 -->
<g id="node23" class="node">
<title>Node23</title>
<g id="a_node23"><a xlink:href="../../d1/dc6/strmctl_8cpp.html" target="_top" xlink:title=" ">
<polygon fill="white" stroke="black" points="4889.5,-0.5 4889.5,-41.5 5113.5,-41.5 5113.5,-0.5 4889.5,-0.5"/>
<text text-anchor="start" x="4897.5" y="-29.5" font-family="Helvetica,sans-Serif" font-size="10.00">/home/tcbuilder/buildAgent</text>
<text text-anchor="start" x="4897.5" y="-18.5" font-family="Helvetica,sans-Serif" font-size="10.00">/work/df8e8cce5bebfd58/libajantv2</text>
<text text-anchor="middle" x="5001.5" y="-7.5" font-family="Helvetica,sans-Serif" font-size="10.00">/demos/ntv2vcam/baseclasses/strmctl.cpp</text>
</a>
</g>
</g>
<!-- Node3&#45;&gt;Node23 -->
<g id="edge23" class="edge">
<title>Node3&#45;&gt;Node23</title>
<path fill="none" stroke="midnightblue" d="M3775.06,-97.21C3994.64,-94.73 4476.69,-84.45 4880.5,-42 4883.46,-41.69 4886.47,-41.35 4889.49,-40.99"/>
<polygon fill="midnightblue" stroke="midnightblue" points="3774.76,-93.72 3764.8,-97.33 3774.84,-100.72 3774.76,-93.72"/>
</g>
<!-- Node24 -->
<g id="node24" class="node">
<title>Node24</title>
<g id="a_node24"><a xlink:href="../../de/de8/sysclock_8cpp.html" target="_top" xlink:title=" ">
<polygon fill="white" stroke="black" points="5131.5,-0.5 5131.5,-41.5 5363.5,-41.5 5363.5,-0.5 5131.5,-0.5"/>
<text text-anchor="start" x="5139.5" y="-29.5" font-family="Helvetica,sans-Serif" font-size="10.00">/home/tcbuilder/buildAgent</text>
<text text-anchor="start" x="5139.5" y="-18.5" font-family="Helvetica,sans-Serif" font-size="10.00">/work/df8e8cce5bebfd58/libajantv2</text>
<text text-anchor="middle" x="5247.5" y="-7.5" font-family="Helvetica,sans-Serif" font-size="10.00">/demos/ntv2vcam/baseclasses/sysclock.cpp</text>
</a>
</g>
</g>
<!-- Node3&#45;&gt;Node24 -->
<g id="edge24" class="edge">
<title>Node3&#45;&gt;Node24</title>
<path fill="none" stroke="midnightblue" d="M3775.06,-98.31C4025.59,-97.88 4623.72,-91.24 5122.5,-42 5125.45,-41.71 5128.44,-41.39 5131.45,-41.05"/>
<polygon fill="midnightblue" stroke="midnightblue" points="3774.84,-94.81 3764.85,-98.32 3774.85,-101.81 3774.84,-94.81"/>
</g>
<!-- Node25 -->
<g id="node25" class="node">
<title>Node25</title>
<g id="a_node25"><a xlink:href="../../d0/deb/transfrm_8cpp.html" target="_top" xlink:title=" ">
<polygon fill="white" stroke="black" points="5381.5,-0.5 5381.5,-41.5 5613.5,-41.5 5613.5,-0.5 5381.5,-0.5"/>
<text text-anchor="start" x="5389.5" y="-29.5" font-family="Helvetica,sans-Serif" font-size="10.00">/home/tcbuilder/buildAgent</text>
<text text-anchor="start" x="5389.5" y="-18.5" font-family="Helvetica,sans-Serif" font-size="10.00">/work/df8e8cce5bebfd58/libajantv2</text>
<text text-anchor="middle" x="5497.5" y="-7.5" font-family="Helvetica,sans-Serif" font-size="10.00">/demos/ntv2vcam/baseclasses/transfrm.cpp</text>
</a>
</g>
</g>
<!-- Node3&#45;&gt;Node25 -->
<g id="edge25" class="edge">
<title>Node3&#45;&gt;Node25</title>
<path fill="none" stroke="midnightblue" d="M3774.9,-96.07C4111.16,-90.31 5061.76,-71.81 5372.5,-42 5375.45,-41.72 5378.44,-41.41 5381.46,-41.08"/>
<polygon fill="midnightblue" stroke="midnightblue" points="3774.59,-92.57 3764.65,-96.24 3774.71,-99.57 3774.59,-92.57"/>
</g>
<!-- Node26 -->
<g id="node26" class="node">
<title>Node26</title>
<g id="a_node26"><a xlink:href="../../d0/d7e/transip_8cpp.html" target="_top" xlink:title=" ">
<polygon fill="white" stroke="black" points="5631.5,-0.5 5631.5,-41.5 5855.5,-41.5 5855.5,-0.5 5631.5,-0.5"/>
<text text-anchor="start" x="5639.5" y="-29.5" font-family="Helvetica,sans-Serif" font-size="10.00">/home/tcbuilder/buildAgent</text>
<text text-anchor="start" x="5639.5" y="-18.5" font-family="Helvetica,sans-Serif" font-size="10.00">/work/df8e8cce5bebfd58/libajantv2</text>
<text text-anchor="middle" x="5743.5" y="-7.5" font-family="Helvetica,sans-Serif" font-size="10.00">/demos/ntv2vcam/baseclasses/transip.cpp</text>
</a>
</g>
</g>
<!-- Node3&#45;&gt;Node26 -->
<g id="edge26" class="edge">
<title>Node3&#45;&gt;Node26</title>
<path fill="none" stroke="midnightblue" d="M3774.91,-96.72C4143.63,-92.44 5261.07,-76.85 5622.5,-42 5625.36,-41.72 5628.26,-41.42 5631.18,-41.1"/>
<polygon fill="midnightblue" stroke="midnightblue" points="3774.71,-93.22 3764.75,-96.84 3774.79,-100.22 3774.71,-93.22"/>
</g>
<!-- Node27 -->
<g id="node27" class="node">
<title>Node27</title>
<g id="a_node27"><a xlink:href="../../d6/dfb/videoctl_8cpp.html" target="_top" xlink:title=" ">
<polygon fill="white" stroke="black" points="5874,-0.5 5874,-41.5 6103,-41.5 6103,-0.5 5874,-0.5"/>
<text text-anchor="start" x="5882" y="-29.5" font-family="Helvetica,sans-Serif" font-size="10.00">/home/tcbuilder/buildAgent</text>
<text text-anchor="start" x="5882" y="-18.5" font-family="Helvetica,sans-Serif" font-size="10.00">/work/df8e8cce5bebfd58/libajantv2</text>
<text text-anchor="middle" x="5988.5" y="-7.5" font-family="Helvetica,sans-Serif" font-size="10.00">/demos/ntv2vcam/baseclasses/videoctl.cpp</text>
</a>
</g>
</g>
<!-- Node3&#45;&gt;Node27 -->
<g id="edge27" class="edge">
<title>Node3&#45;&gt;Node27</title>
<path fill="none" stroke="midnightblue" d="M3774.92,-97.09C4173.14,-93.74 5453.59,-80.17 5864.5,-42 5867.54,-41.72 5870.62,-41.41 5873.72,-41.07"/>
<polygon fill="midnightblue" stroke="midnightblue" points="3774.8,-93.59 3764.83,-97.18 3774.86,-100.59 3774.8,-93.59"/>
</g>
<!-- Node28 -->
<g id="node28" class="node">
<title>Node28</title>
<g id="a_node28"><a xlink:href="../../dd/dc7/vtrans_8cpp.html" target="_top" xlink:title=" ">
<polygon fill="white" stroke="black" points="6121,-0.5 6121,-41.5 6342,-41.5 6342,-0.5 6121,-0.5"/>
<text text-anchor="start" x="6129" y="-29.5" font-family="Helvetica,sans-Serif" font-size="10.00">/home/tcbuilder/buildAgent</text>
<text text-anchor="start" x="6129" y="-18.5" font-family="Helvetica,sans-Serif" font-size="10.00">/work/df8e8cce5bebfd58/libajantv2</text>
<text text-anchor="middle" x="6231.5" y="-7.5" font-family="Helvetica,sans-Serif" font-size="10.00">/demos/ntv2vcam/baseclasses/vtrans.cpp</text>
</a>
</g>
</g>
<!-- Node3&#45;&gt;Node28 -->
<g id="edge28" class="edge">
<title>Node3&#45;&gt;Node28</title>
<path fill="none" stroke="midnightblue" d="M3774.98,-97.55C4201.88,-95.6 5650.87,-85.82 6112.5,-42 6115.21,-41.74 6117.95,-41.46 6120.72,-41.15"/>
<polygon fill="midnightblue" stroke="midnightblue" points="3774.77,-94.05 3764.78,-97.6 3774.8,-101.05 3774.77,-94.05"/>
</g>
<!-- Node29 -->
<g id="node29" class="node">
<title>Node29</title>
<g id="a_node29"><a xlink:href="../../d6/df0/winctrl_8cpp.html" target="_top" xlink:title=" ">
<polygon fill="white" stroke="black" points="6360,-0.5 6360,-41.5 6583,-41.5 6583,-0.5 6360,-0.5"/>
<text text-anchor="start" x="6368" y="-29.5" font-family="Helvetica,sans-Serif" font-size="10.00">/home/tcbuilder/buildAgent</text>
<text text-anchor="start" x="6368" y="-18.5" font-family="Helvetica,sans-Serif" font-size="10.00">/work/df8e8cce5bebfd58/libajantv2</text>
<text text-anchor="middle" x="6471.5" y="-7.5" font-family="Helvetica,sans-Serif" font-size="10.00">/demos/ntv2vcam/baseclasses/winctrl.cpp</text>
</a>
</g>
</g>
<!-- Node3&#45;&gt;Node29 -->
<g id="edge29" class="edge">
<title>Node3&#45;&gt;Node29</title>
<path fill="none" stroke="midnightblue" d="M3774.92,-97.81C4227.96,-96.75 5840.61,-89.63 6351.5,-42 6354.23,-41.75 6357,-41.46 6359.79,-41.16"/>
<polygon fill="midnightblue" stroke="midnightblue" points="3774.75,-94.31 3764.76,-97.84 3774.77,-101.31 3774.75,-94.31"/>
</g>
<!-- Node30 -->
<g id="node30" class="node">
<title>Node30</title>
<g id="a_node30"><a xlink:href="../../d8/db1/winutil_8cpp.html" target="_top" xlink:title=" ">
<polygon fill="white" stroke="black" points="6601,-0.5 6601,-41.5 6824,-41.5 6824,-0.5 6601,-0.5"/>
<text text-anchor="start" x="6609" y="-29.5" font-family="Helvetica,sans-Serif" font-size="10.00">/home/tcbuilder/buildAgent</text>
<text text-anchor="start" x="6609" y="-18.5" font-family="Helvetica,sans-Serif" font-size="10.00">/work/df8e8cce5bebfd58/libajantv2</text>
<text text-anchor="middle" x="6712.5" y="-7.5" font-family="Helvetica,sans-Serif" font-size="10.00">/demos/ntv2vcam/baseclasses/winutil.cpp</text>
</a>
</g>
</g>
<!-- Node3&#45;&gt;Node30 -->
<g id="edge30" class="edge">
<title>Node3&#45;&gt;Node30</title>
<path fill="none" stroke="midnightblue" d="M3774.61,-98.05C4252.46,-97.9 6031.7,-93.8 6592.5,-42 6595.23,-41.75 6598,-41.47 6600.79,-41.17"/>
<polygon fill="midnightblue" stroke="midnightblue" points="3774.58,-94.55 3764.58,-98.05 3774.59,-101.55 3774.58,-94.55"/>
</g>
<!-- Node31 -->
<g id="node31" class="node">
<title>Node31</title>
<g id="a_node31"><a xlink:href="../../dc/df9/wxdebug_8cpp.html" target="_top" xlink:title=" ">
<polygon fill="white" stroke="black" points="6842.5,-0.5 6842.5,-41.5 7076.5,-41.5 7076.5,-0.5 6842.5,-0.5"/>
<text text-anchor="start" x="6850.5" y="-29.5" font-family="Helvetica,sans-Serif" font-size="10.00">/home/tcbuilder/buildAgent</text>
<text text-anchor="start" x="6850.5" y="-18.5" font-family="Helvetica,sans-Serif" font-size="10.00">/work/df8e8cce5bebfd58/libajantv2</text>
<text text-anchor="middle" x="6959.5" y="-7.5" font-family="Helvetica,sans-Serif" font-size="10.00">/demos/ntv2vcam/baseclasses/wxdebug.cpp</text>
</a>
</g>
</g>
<!-- Node3&#45;&gt;Node31 -->
<g id="edge31" class="edge">
<title>Node3&#45;&gt;Node31</title>
<path fill="none" stroke="midnightblue" d="M3774.99,-98.13C4277.66,-98.34 6222.72,-95.59 6833.5,-42 6836.37,-41.75 6839.27,-41.47 6842.2,-41.17"/>
<polygon fill="midnightblue" stroke="midnightblue" points="3774.82,-94.63 3764.82,-98.13 3774.82,-101.63 3774.82,-94.63"/>
</g>
<!-- Node32 -->
<g id="node32" class="node">
<title>Node32</title>
<g id="a_node32"><a xlink:href="../../dc/dc9/wxlist_8cpp.html" target="_top" xlink:title=" ">
<polygon fill="white" stroke="black" points="7095,-0.5 7095,-41.5 7314,-41.5 7314,-0.5 7095,-0.5"/>
<text text-anchor="start" x="7103" y="-29.5" font-family="Helvetica,sans-Serif" font-size="10.00">/home/tcbuilder/buildAgent</text>
<text text-anchor="start" x="7103" y="-18.5" font-family="Helvetica,sans-Serif" font-size="10.00">/work/df8e8cce5bebfd58/libajantv2</text>
<text text-anchor="middle" x="7204.5" y="-7.5" font-family="Helvetica,sans-Serif" font-size="10.00">/demos/ntv2vcam/baseclasses/wxlist.cpp</text>
</a>
</g>
</g>
<!-- Node3&#45;&gt;Node32 -->
<g id="edge32" class="edge">
<title>Node3&#45;&gt;Node32</title>
<path fill="none" stroke="midnightblue" d="M3774.86,-97.12C4342,-92.78 6750.98,-72.67 7085.5,-42 7088.63,-41.71 7091.8,-41.39 7095,-41.04"/>
<polygon fill="midnightblue" stroke="midnightblue" points="3774.59,-93.62 3764.62,-97.19 3774.64,-100.62 3774.59,-93.62"/>
</g>
<!-- Node33 -->
<g id="node33" class="node">
<title>Node33</title>
<g id="a_node33"><a xlink:href="../../d4/dc2/wxutil_8cpp.html" target="_top" xlink:title=" ">
<polygon fill="white" stroke="black" points="7332.5,-0.5 7332.5,-41.5 7552.5,-41.5 7552.5,-0.5 7332.5,-0.5"/>
<text text-anchor="start" x="7340.5" y="-29.5" font-family="Helvetica,sans-Serif" font-size="10.00">/home/tcbuilder/buildAgent</text>
<text text-anchor="start" x="7340.5" y="-18.5" font-family="Helvetica,sans-Serif" font-size="10.00">/work/df8e8cce5bebfd58/libajantv2</text>
<text text-anchor="middle" x="7442.5" y="-7.5" font-family="Helvetica,sans-Serif" font-size="10.00">/demos/ntv2vcam/baseclasses/wxutil.cpp</text>
</a>
</g>
</g>
<!-- Node3&#45;&gt;Node33 -->
<g id="edge33" class="edge">
<title>Node3&#45;&gt;Node33</title>
<path fill="none" stroke="midnightblue" d="M3774.8,-97.25C4365.62,-93.41 6964.1,-74.76 7323.5,-42 7326.42,-41.73 7329.38,-41.44 7332.36,-41.11"/>
<polygon fill="midnightblue" stroke="midnightblue" points="3774.54,-93.75 3764.57,-97.32 3774.59,-100.75 3774.54,-93.75"/>
</g>
</g>
</svg>
