<?xml version="1.0" encoding="UTF-8" standalone="no"?>
<!DOCTYPE svg PUBLIC "-//W3C//DTD SVG 1.1//EN"
 "http://www.w3.org/Graphics/SVG/1.1/DTD/svg11.dtd">
<!-- Generated by graphviz version 2.43.0 (0)
 -->
<!-- Title: /home/tcbuilder/buildAgent/work/df8e8cce5bebfd58/libajantv2/ajabase/system/mac/threadimpl.cpp Pages: 1 -->
<!--zoomable 285 -->
<svg id="main" version="1.1" xmlns="http://www.w3.org/2000/svg" xmlns:xlink="http://www.w3.org/1999/xlink" xml:space="preserve" onload="init(evt)">
<style type="text/css"><![CDATA[
.edge:hover path { stroke: red; }
.edge:hover polygon { stroke: red; fill: red; }
]]></style>
<script type="text/javascript"><![CDATA[
var edges = document.getElementsByTagName('g');
if (edges && edges.length) {
  for (var i=0;i<edges.length;i++) {
    if (edges[i].id.substr(0,4)=='edge') {
      edges[i].setAttribute('class','edge');
    }
  }
}
]]></script>
        <defs>
                <circle id="rim" cx="0" cy="0" r="7"/>
                <circle id="rim2" cx="0" cy="0" r="3.5"/>
                <g id="zoomPlus">
                        <use xlink:href="#rim" fill="#404040">
                                <set attributeName="fill" to="#808080" begin="zoomplus.mouseover" end="zoomplus.mouseout"/>
                        </use>
                        <path d="M-4,0h8M0,-4v8" fill="none" stroke="white" stroke-width="1.5" pointer-events="none"/>
                </g>
                <g id="zoomMin">
                        <use xlink:href="#rim" fill="#404040">
                                <set attributeName="fill" to="#808080" begin="zoomminus.mouseover" end="zoomminus.mouseout"/>
                        </use>
                        <path d="M-4,0h8" fill="none" stroke="white" stroke-width="1.5" pointer-events="none"/>
                </g>
                <g id="dirArrow">
                        <path fill="none" stroke="white" stroke-width="1.5" d="M0,-3.0v7 M-2.5,-0.5L0,-3.0L2.5,-0.5"/>
                </g>
               <g id="resetDef">
                       <use xlink:href="#rim2" fill="#404040">
                               <set attributeName="fill" to="#808080" begin="reset.mouseover" end="reset.mouseout"/>
                       </use>
               </g>
        </defs>

<script type="text/javascript">
var viewWidth = 1813;
var viewHeight = 285;
var sectionId = 'dynsection-0';
</script>
<script xlink:href="../../svgpan.js"/>
<svg id="graph" class="graph">
<g id="viewport">
<title>/home/tcbuilder/buildAgent/work/df8e8cce5bebfd58/libajantv2/ajabase/system/mac/threadimpl.cpp</title>
<polygon fill="white" stroke="transparent" points="-4,4 -4,-281 1809,-281 1809,4 -4,4"/>
<!-- Node1 -->
<g id="node1" class="node">
<title>Node1</title>
<g id="a_node1"><a xlink:title="Implements the AJAThreadImpl class on the Mac platform.">
<polygon fill="#bfbfbf" stroke="black" points="920.5,-235.5 920.5,-276.5 1117.5,-276.5 1117.5,-235.5 920.5,-235.5"/>
<text text-anchor="start" x="928.5" y="-264.5" font-family="Helvetica,sans-Serif" font-size="10.00">/home/tcbuilder/buildAgent</text>
<text text-anchor="start" x="928.5" y="-253.5" font-family="Helvetica,sans-Serif" font-size="10.00">/work/df8e8cce5bebfd58/libajantv2</text>
<text text-anchor="middle" x="1019" y="-242.5" font-family="Helvetica,sans-Serif" font-size="10.00">/ajabase/system/mac/threadimpl.cpp</text>
</a>
</g>
</g>
<!-- Node2 -->
<g id="node2" class="node">
<title>Node2</title>
<g id="a_node2"><a xlink:href="../../d6/dc5/mac_2threadimpl_8h.html" target="_top" xlink:title="Declares the AJAThreadImpl class.">
<polygon fill="white" stroke="black" points="401,-168.5 401,-198.5 519,-198.5 519,-168.5 401,-168.5"/>
<text text-anchor="start" x="409" y="-186.5" font-family="Helvetica,sans-Serif" font-size="10.00">ajabase/system/mac</text>
<text text-anchor="middle" x="460" y="-175.5" font-family="Helvetica,sans-Serif" font-size="10.00">/threadimpl.h</text>
</a>
</g>
</g>
<!-- Node1&#45;&gt;Node2 -->
<g id="edge1" class="edge">
<title>Node1&#45;&gt;Node2</title>
<path fill="none" stroke="midnightblue" d="M920.35,-242.56C808.04,-228.39 627.46,-205.62 529.17,-193.22"/>
<polygon fill="midnightblue" stroke="midnightblue" points="529.41,-189.73 519.05,-191.95 528.54,-196.67 529.41,-189.73"/>
</g>
<!-- Node17 -->
<g id="node17" class="node">
<title>Node17</title>
<g id="a_node17"><a xlink:href="../../d0/d5f/pthreadsextra_8h.html" target="_top" xlink:title="Declares extra symbols to make the Mac threads implementation look more like Unix.">
<polygon fill="white" stroke="black" points="63,-168.5 63,-198.5 181,-198.5 181,-168.5 63,-168.5"/>
<text text-anchor="start" x="71" y="-186.5" font-family="Helvetica,sans-Serif" font-size="10.00">ajabase/system/mac</text>
<text text-anchor="middle" x="122" y="-175.5" font-family="Helvetica,sans-Serif" font-size="10.00">/pthreadsextra.h</text>
</a>
</g>
</g>
<!-- Node1&#45;&gt;Node17 -->
<g id="edge21" class="edge">
<title>Node1&#45;&gt;Node17</title>
<path fill="none" stroke="midnightblue" d="M920.44,-247.25C737.41,-232.87 349.28,-202.36 191.19,-189.94"/>
<polygon fill="midnightblue" stroke="midnightblue" points="191.36,-186.44 181.12,-189.15 190.81,-193.42 191.36,-186.44"/>
</g>
<!-- Node19 -->
<g id="node19" class="node">
<title>Node19</title>
<g id="a_node19"><a xlink:href="../../d5/dd0/timer_8h.html" target="_top" xlink:title="Declares the AJATimer class.">
<polygon fill="white" stroke="black" points="611,-174 611,-193 749,-193 749,-174 611,-174"/>
<text text-anchor="middle" x="680" y="-181" font-family="Helvetica,sans-Serif" font-size="10.00">ajabase/common/timer.h</text>
</a>
</g>
</g>
<!-- Node1&#45;&gt;Node19 -->
<g id="edge24" class="edge">
<title>Node1&#45;&gt;Node19</title>
<path fill="none" stroke="midnightblue" d="M925.02,-235.46C862.19,-222.39 781.97,-205.71 730.77,-195.06"/>
<polygon fill="midnightblue" stroke="midnightblue" points="731.44,-191.62 720.93,-193.01 730.01,-198.48 731.44,-191.62"/>
</g>
<!-- Node21 -->
<g id="node21" class="node">
<title>Node21</title>
<g id="a_node21"><a xlink:href="../../db/d16/debug_8h.html" target="_top" xlink:title="Declares the AJADebug class.">
<polygon fill="white" stroke="black" points="822,-112.5 822,-131.5 958,-131.5 958,-112.5 822,-112.5"/>
<text text-anchor="middle" x="890" y="-119.5" font-family="Helvetica,sans-Serif" font-size="10.00">ajabase/system/debug.h</text>
</a>
</g>
</g>
<!-- Node1&#45;&gt;Node21 -->
<g id="edge27" class="edge">
<title>Node1&#45;&gt;Node21</title>
<path fill="none" stroke="midnightblue" d="M920.33,-242.16C868.57,-233.18 812.7,-219.15 797,-199 788.53,-188.13 789.68,-179.67 797,-168 806.88,-152.25 824,-141.87 840.89,-135.11"/>
<polygon fill="midnightblue" stroke="midnightblue" points="842.54,-138.23 850.75,-131.52 840.15,-131.65 842.54,-138.23"/>
</g>
<!-- Node27 -->
<g id="node27" class="node">
<title>Node27</title>
<g id="a_node27"><a xlink:title=" ">
<polygon fill="white" stroke="#bfbfbf" points="805.5,-174 805.5,-193 856.5,-193 856.5,-174 805.5,-174"/>
<text text-anchor="middle" x="831" y="-181" font-family="Helvetica,sans-Serif" font-size="10.00">errno.h</text>
</a>
</g>
</g>
<!-- Node1&#45;&gt;Node27 -->
<g id="edge38" class="edge">
<title>Node1&#45;&gt;Node27</title>
<path fill="none" stroke="midnightblue" d="M963.91,-235.47C934.7,-224.95 898.28,-211.59 866,-199 864.36,-198.36 862.67,-197.69 860.98,-197.02"/>
<polygon fill="midnightblue" stroke="midnightblue" points="861.88,-193.6 851.3,-193.08 859.24,-200.09 861.88,-193.6"/>
</g>
<!-- Node28 -->
<g id="node28" class="node">
<title>Node28</title>
<g id="a_node28"><a xlink:title=" ">
<polygon fill="white" stroke="#bfbfbf" points="875,-174 875,-193 929,-193 929,-174 875,-174"/>
<text text-anchor="middle" x="902" y="-181" font-family="Helvetica,sans-Serif" font-size="10.00">sched.h</text>
</a>
</g>
</g>
<!-- Node1&#45;&gt;Node28 -->
<g id="edge39" class="edge">
<title>Node1&#45;&gt;Node28</title>
<path fill="none" stroke="midnightblue" d="M986.41,-235.36C967.01,-223.67 942.85,-209.12 925.36,-198.57"/>
<polygon fill="midnightblue" stroke="midnightblue" points="926.77,-195.34 916.39,-193.17 923.15,-201.33 926.77,-195.34"/>
</g>
<!-- Node29 -->
<g id="node29" class="node">
<title>Node29</title>
<g id="a_node29"><a xlink:title=" ">
<polygon fill="white" stroke="#bfbfbf" points="947.5,-174 947.5,-193 1002.5,-193 1002.5,-174 947.5,-174"/>
<text text-anchor="middle" x="975" y="-181" font-family="Helvetica,sans-Serif" font-size="10.00">signal.h</text>
</a>
</g>
</g>
<!-- Node1&#45;&gt;Node29 -->
<g id="edge40" class="edge">
<title>Node1&#45;&gt;Node29</title>
<path fill="none" stroke="midnightblue" d="M1006.74,-235.36C1000.19,-224.86 992.2,-212.05 985.87,-201.91"/>
<polygon fill="midnightblue" stroke="midnightblue" points="988.68,-199.8 980.41,-193.17 982.74,-203.51 988.68,-199.8"/>
</g>
<!-- Node30 -->
<g id="node30" class="node">
<title>Node30</title>
<g id="a_node30"><a xlink:title=" ">
<polygon fill="white" stroke="#bfbfbf" points="1020.5,-174 1020.5,-193 1107.5,-193 1107.5,-174 1020.5,-174"/>
<text text-anchor="middle" x="1064" y="-181" font-family="Helvetica,sans-Serif" font-size="10.00">sys/resource.h</text>
</a>
</g>
</g>
<!-- Node1&#45;&gt;Node30 -->
<g id="edge41" class="edge">
<title>Node1&#45;&gt;Node30</title>
<path fill="none" stroke="midnightblue" d="M1031.54,-235.36C1038.24,-224.86 1046.41,-212.05 1052.89,-201.91"/>
<polygon fill="midnightblue" stroke="midnightblue" points="1056.03,-203.49 1058.46,-193.17 1050.13,-199.72 1056.03,-203.49"/>
</g>
<!-- Node31 -->
<g id="node31" class="node">
<title>Node31</title>
<g id="a_node31"><a xlink:title=" ">
<polygon fill="white" stroke="#bfbfbf" points="1125.5,-174 1125.5,-193 1204.5,-193 1204.5,-174 1125.5,-174"/>
<text text-anchor="middle" x="1165" y="-181" font-family="Helvetica,sans-Serif" font-size="10.00">sys/syscall.h</text>
</a>
</g>
</g>
<!-- Node1&#45;&gt;Node31 -->
<g id="edge42" class="edge">
<title>Node1&#45;&gt;Node31</title>
<path fill="none" stroke="midnightblue" d="M1059.67,-235.36C1084.66,-223.29 1115.98,-208.17 1137.95,-197.56"/>
<polygon fill="midnightblue" stroke="midnightblue" points="1139.55,-200.67 1147.04,-193.17 1136.51,-194.37 1139.55,-200.67"/>
</g>
<!-- Node32 -->
<g id="node32" class="node">
<title>Node32</title>
<g id="a_node32"><a xlink:title=" ">
<polygon fill="white" stroke="#bfbfbf" points="1223,-174 1223,-193 1291,-193 1291,-174 1223,-174"/>
<text text-anchor="middle" x="1257" y="-181" font-family="Helvetica,sans-Serif" font-size="10.00">sys/time.h</text>
</a>
</g>
</g>
<!-- Node1&#45;&gt;Node32 -->
<g id="edge43" class="edge">
<title>Node1&#45;&gt;Node32</title>
<path fill="none" stroke="midnightblue" d="M1090.09,-235.42C1127.15,-225.01 1173.15,-211.75 1214,-199 1216.75,-198.14 1219.59,-197.23 1222.44,-196.31"/>
<polygon fill="midnightblue" stroke="midnightblue" points="1223.66,-199.59 1232.05,-193.13 1221.46,-192.95 1223.66,-199.59"/>
</g>
<!-- Node33 -->
<g id="node33" class="node">
<title>Node33</title>
<g id="a_node33"><a xlink:title=" ">
<polygon fill="white" stroke="#bfbfbf" points="1309,-174 1309,-193 1413,-193 1413,-174 1309,-174"/>
<text text-anchor="middle" x="1361" y="-181" font-family="Helvetica,sans-Serif" font-size="10.00">mach/mach_init.h</text>
</a>
</g>
</g>
<!-- Node1&#45;&gt;Node33 -->
<g id="edge44" class="edge">
<title>Node1&#45;&gt;Node33</title>
<path fill="none" stroke="midnightblue" d="M1117.69,-236.25C1171.65,-225.77 1239.62,-212.19 1300,-199 1305.32,-197.84 1310.88,-196.58 1316.4,-195.3"/>
<polygon fill="midnightblue" stroke="midnightblue" points="1317.27,-198.69 1326.21,-193 1315.68,-191.88 1317.27,-198.69"/>
</g>
<!-- Node34 -->
<g id="node34" class="node">
<title>Node34</title>
<g id="a_node34"><a xlink:title=" ">
<polygon fill="white" stroke="#bfbfbf" points="1431,-174 1431,-193 1551,-193 1551,-174 1431,-174"/>
<text text-anchor="middle" x="1491" y="-181" font-family="Helvetica,sans-Serif" font-size="10.00">mach/thread_policy.h</text>
</a>
</g>
</g>
<!-- Node1&#45;&gt;Node34 -->
<g id="edge45" class="edge">
<title>Node1&#45;&gt;Node34</title>
<path fill="none" stroke="midnightblue" d="M1117.84,-243.2C1199.61,-232.97 1318.66,-217.02 1422,-199 1428.72,-197.83 1435.79,-196.48 1442.74,-195.08"/>
<polygon fill="midnightblue" stroke="midnightblue" points="1443.68,-198.46 1452.77,-193.03 1442.27,-191.61 1443.68,-198.46"/>
</g>
<!-- Node35 -->
<g id="node35" class="node">
<title>Node35</title>
<g id="a_node35"><a xlink:title=" ">
<polygon fill="white" stroke="#bfbfbf" points="1569.5,-174 1569.5,-193 1676.5,-193 1676.5,-174 1569.5,-174"/>
<text text-anchor="middle" x="1623" y="-181" font-family="Helvetica,sans-Serif" font-size="10.00">mach/thread_act.h</text>
</a>
</g>
</g>
<!-- Node1&#45;&gt;Node35 -->
<g id="edge46" class="edge">
<title>Node1&#45;&gt;Node35</title>
<path fill="none" stroke="midnightblue" d="M1117.71,-248.45C1226.54,-240.37 1406.54,-224.5 1560,-199 1566.32,-197.95 1572.96,-196.65 1579.45,-195.26"/>
<polygon fill="midnightblue" stroke="midnightblue" points="1580.48,-198.61 1589.48,-193.02 1578.95,-191.78 1580.48,-198.61"/>
</g>
<!-- Node36 -->
<g id="node36" class="node">
<title>Node36</title>
<g id="a_node36"><a xlink:title=" ">
<polygon fill="white" stroke="#bfbfbf" points="1695,-174 1695,-193 1805,-193 1805,-174 1695,-174"/>
<text text-anchor="middle" x="1750" y="-181" font-family="Helvetica,sans-Serif" font-size="10.00">mach/mach_time.h</text>
</a>
</g>
</g>
<!-- Node1&#45;&gt;Node36 -->
<g id="edge47" class="edge">
<title>Node1&#45;&gt;Node36</title>
<path fill="none" stroke="midnightblue" d="M1117.55,-251.01C1248.15,-244.75 1485.45,-229.98 1686,-199 1692.66,-197.97 1699.65,-196.64 1706.48,-195.21"/>
<polygon fill="midnightblue" stroke="midnightblue" points="1707.27,-198.62 1716.29,-193.06 1705.77,-191.78 1707.27,-198.62"/>
</g>
<!-- Node3 -->
<g id="node3" class="node">
<title>Node3</title>
<g id="a_node3"><a xlink:title=" ">
<polygon fill="white" stroke="#bfbfbf" points="90.5,-112.5 90.5,-131.5 153.5,-131.5 153.5,-112.5 90.5,-112.5"/>
<text text-anchor="middle" x="122" y="-119.5" font-family="Helvetica,sans-Serif" font-size="10.00">pthread.h</text>
</a>
</g>
</g>
<!-- Node2&#45;&gt;Node3 -->
<g id="edge2" class="edge">
<title>Node2&#45;&gt;Node3</title>
<path fill="none" stroke="midnightblue" d="M400.96,-173.31C343.09,-164.11 252.14,-149.14 163.69,-132.06"/>
<polygon fill="midnightblue" stroke="midnightblue" points="164.24,-128.6 153.75,-130.13 162.9,-135.47 164.24,-128.6"/>
</g>
<!-- Node4 -->
<g id="node4" class="node">
<title>Node4</title>
<g id="a_node4"><a xlink:href="../../dc/db2/system_8h.html" target="_top" xlink:title="System specific functions.">
<polygon fill="white" stroke="black" points="316,-112.5 316,-131.5 458,-131.5 458,-112.5 316,-112.5"/>
<text text-anchor="middle" x="387" y="-119.5" font-family="Helvetica,sans-Serif" font-size="10.00">ajabase/system/system.h</text>
</a>
</g>
</g>
<!-- Node2&#45;&gt;Node4 -->
<g id="edge3" class="edge">
<title>Node2&#45;&gt;Node4</title>
<path fill="none" stroke="midnightblue" d="M442.7,-168.4C431.55,-159.31 417.05,-147.49 405.64,-138.19"/>
<polygon fill="midnightblue" stroke="midnightblue" points="407.58,-135.26 397.62,-131.66 403.16,-140.69 407.58,-135.26"/>
</g>
<!-- Node12 -->
<g id="node12" class="node">
<title>Node12</title>
<g id="a_node12"><a xlink:href="../../dc/d54/common_8h.html" target="_top" xlink:title="Private include file for all ajabase sources.">
<polygon fill="white" stroke="black" points="544.5,-56.5 544.5,-75.5 699.5,-75.5 699.5,-56.5 544.5,-56.5"/>
<text text-anchor="middle" x="622" y="-63.5" font-family="Helvetica,sans-Serif" font-size="10.00">ajabase/common/common.h</text>
</a>
</g>
</g>
<!-- Node2&#45;&gt;Node12 -->
<g id="edge11" class="edge">
<title>Node2&#45;&gt;Node12</title>
<path fill="none" stroke="midnightblue" d="M519.37,-180.69C555.32,-176.14 598.61,-163.8 622,-132 631.71,-118.8 630.41,-99.67 627.46,-85.58"/>
<polygon fill="midnightblue" stroke="midnightblue" points="630.77,-84.4 624.92,-75.56 623.98,-86.12 630.77,-84.4"/>
</g>
<!-- Node14 -->
<g id="node14" class="node">
<title>Node14</title>
<g id="a_node14"><a xlink:href="../../db/dd5/thread_8h.html" target="_top" xlink:title="Declares the AJAThread class.">
<polygon fill="white" stroke="black" points="476.5,-112.5 476.5,-131.5 613.5,-131.5 613.5,-112.5 476.5,-112.5"/>
<text text-anchor="middle" x="545" y="-119.5" font-family="Helvetica,sans-Serif" font-size="10.00">ajabase/system/thread.h</text>
</a>
</g>
</g>
<!-- Node2&#45;&gt;Node14 -->
<g id="edge16" class="edge">
<title>Node2&#45;&gt;Node14</title>
<path fill="none" stroke="midnightblue" d="M480.14,-168.4C493.39,-159.13 510.68,-147.03 524.08,-137.65"/>
<polygon fill="midnightblue" stroke="midnightblue" points="526.45,-140.26 532.63,-131.66 522.43,-134.53 526.45,-140.26"/>
</g>
<!-- Node15 -->
<g id="node15" class="node">
<title>Node15</title>
<g id="a_node15"><a xlink:href="../../dd/d42/lock_8h.html" target="_top" xlink:title="Declares the AJALock class.">
<polygon fill="white" stroke="black" points="172,-112.5 172,-131.5 298,-131.5 298,-112.5 172,-112.5"/>
<text text-anchor="middle" x="235" y="-119.5" font-family="Helvetica,sans-Serif" font-size="10.00">ajabase/system/lock.h</text>
</a>
</g>
</g>
<!-- Node2&#45;&gt;Node15 -->
<g id="edge18" class="edge">
<title>Node2&#45;&gt;Node15</title>
<path fill="none" stroke="midnightblue" d="M406.96,-168.47C367.3,-157.99 313.79,-143.84 277.06,-134.12"/>
<polygon fill="midnightblue" stroke="midnightblue" points="277.73,-130.68 267.17,-131.51 275.94,-137.45 277.73,-130.68"/>
</g>
<!-- Node5 -->
<g id="node5" class="node">
<title>Node5</title>
<g id="a_node5"><a xlink:href="../../d4/d79/public_8h.html" target="_top" xlink:title="Master header for the ajabase library.">
<polygon fill="white" stroke="black" points="384,-56.5 384,-75.5 526,-75.5 526,-56.5 384,-56.5"/>
<text text-anchor="middle" x="455" y="-63.5" font-family="Helvetica,sans-Serif" font-size="10.00">ajabase/common/public.h</text>
</a>
</g>
</g>
<!-- Node4&#45;&gt;Node5 -->
<g id="edge4" class="edge">
<title>Node4&#45;&gt;Node5</title>
<path fill="none" stroke="midnightblue" d="M397.93,-112.32C408.17,-104.18 423.72,-91.84 436,-82.09"/>
<polygon fill="midnightblue" stroke="midnightblue" points="438.22,-84.79 443.88,-75.83 433.87,-79.31 438.22,-84.79"/>
</g>
<!-- Node6 -->
<g id="node6" class="node">
<title>Node6</title>
<g id="a_node6"><a xlink:href="../../db/db5/export_8h.html" target="_top" xlink:title="Declares system&#45;dependent import/export macros and libraries.">
<polygon fill="white" stroke="black" points="488,-0.5 488,-19.5 632,-19.5 632,-0.5 488,-0.5"/>
<text text-anchor="middle" x="560" y="-7.5" font-family="Helvetica,sans-Serif" font-size="10.00">ajabase/common/export.h</text>
</a>
</g>
</g>
<!-- Node5&#45;&gt;Node6 -->
<g id="edge5" class="edge">
<title>Node5&#45;&gt;Node6</title>
<path fill="none" stroke="midnightblue" d="M471.87,-56.32C488.71,-47.66 514.81,-34.24 534.24,-24.25"/>
<polygon fill="midnightblue" stroke="midnightblue" points="535.88,-27.34 543.17,-19.65 532.68,-21.12 535.88,-27.34"/>
</g>
<!-- Node7 -->
<g id="node7" class="node">
<title>Node7</title>
<g id="a_node7"><a xlink:title=" ">
<polygon fill="white" stroke="#bfbfbf" points="650,-0.5 650,-19.5 694,-19.5 694,-0.5 650,-0.5"/>
<text text-anchor="middle" x="672" y="-7.5" font-family="Helvetica,sans-Serif" font-size="10.00">string</text>
</a>
</g>
</g>
<!-- Node5&#45;&gt;Node7 -->
<g id="edge6" class="edge">
<title>Node5&#45;&gt;Node7</title>
<path fill="none" stroke="midnightblue" d="M492.53,-56.44C528.13,-48.21 583.34,-35.15 639.86,-20.22"/>
<polygon fill="midnightblue" stroke="midnightblue" points="640.92,-23.56 649.68,-17.61 639.12,-16.8 640.92,-23.56"/>
</g>
<!-- Node8 -->
<g id="node8" class="node">
<title>Node8</title>
<g id="a_node8"><a xlink:title=" ">
<polygon fill="white" stroke="#bfbfbf" points="382,-0.5 382,-19.5 414,-19.5 414,-0.5 382,-0.5"/>
<text text-anchor="middle" x="398" y="-7.5" font-family="Helvetica,sans-Serif" font-size="10.00">list</text>
</a>
</g>
</g>
<!-- Node5&#45;&gt;Node8 -->
<g id="edge7" class="edge">
<title>Node5&#45;&gt;Node8</title>
<path fill="none" stroke="midnightblue" d="M445.84,-56.32C437.5,-48.42 424.97,-36.55 414.82,-26.94"/>
<polygon fill="midnightblue" stroke="midnightblue" points="416.99,-24.17 407.32,-19.83 412.18,-29.25 416.99,-24.17"/>
</g>
<!-- Node9 -->
<g id="node9" class="node">
<title>Node9</title>
<g id="a_node9"><a xlink:title=" ">
<polygon fill="white" stroke="#bfbfbf" points="712.5,-0.5 712.5,-19.5 759.5,-19.5 759.5,-0.5 712.5,-0.5"/>
<text text-anchor="middle" x="736" y="-7.5" font-family="Helvetica,sans-Serif" font-size="10.00">vector</text>
</a>
</g>
</g>
<!-- Node5&#45;&gt;Node9 -->
<g id="edge8" class="edge">
<title>Node5&#45;&gt;Node9</title>
<path fill="none" stroke="midnightblue" d="M509.95,-56.43C558.12,-48.61 630.23,-36.13 702.13,-20.03"/>
<polygon fill="midnightblue" stroke="midnightblue" points="703.29,-23.36 712.27,-17.74 701.74,-16.53 703.29,-23.36"/>
</g>
<!-- Node10 -->
<g id="node10" class="node">
<title>Node10</title>
<g id="a_node10"><a xlink:title=" ">
<polygon fill="white" stroke="#bfbfbf" points="432,-0.5 432,-19.5 470,-19.5 470,-0.5 432,-0.5"/>
<text text-anchor="middle" x="451" y="-7.5" font-family="Helvetica,sans-Serif" font-size="10.00">map</text>
</a>
</g>
</g>
<!-- Node5&#45;&gt;Node10 -->
<g id="edge9" class="edge">
<title>Node5&#45;&gt;Node10</title>
<path fill="none" stroke="midnightblue" d="M454.34,-56.08C453.82,-49.01 453.06,-38.86 452.41,-29.99"/>
<polygon fill="midnightblue" stroke="midnightblue" points="455.88,-29.47 451.65,-19.75 448.9,-29.98 455.88,-29.47"/>
</g>
<!-- Node11 -->
<g id="node11" class="node">
<title>Node11</title>
<g id="a_node11"><a xlink:href="../../d9/d49/types_8h.html" target="_top" xlink:title="Declares common types used in the ajabase library.">
<polygon fill="white" stroke="black" points="224,-0.5 224,-19.5 364,-19.5 364,-0.5 224,-0.5"/>
<text text-anchor="middle" x="294" y="-7.5" font-family="Helvetica,sans-Serif" font-size="10.00">ajabase/common/types.h</text>
</a>
</g>
</g>
<!-- Node5&#45;&gt;Node11 -->
<g id="edge10" class="edge">
<title>Node5&#45;&gt;Node11</title>
<path fill="none" stroke="midnightblue" d="M429.49,-56.44C402.4,-47.36 359.41,-32.94 329.13,-22.78"/>
<polygon fill="midnightblue" stroke="midnightblue" points="329.99,-19.38 319.39,-19.52 327.76,-26.01 329.99,-19.38"/>
</g>
<!-- Node12&#45;&gt;Node6 -->
<g id="edge12" class="edge">
<title>Node12&#45;&gt;Node6</title>
<path fill="none" stroke="midnightblue" d="M612.04,-56.32C602.87,-48.34 589.06,-36.31 577.97,-26.65"/>
<polygon fill="midnightblue" stroke="midnightblue" points="579.98,-23.76 570.14,-19.83 575.38,-29.04 579.98,-23.76"/>
</g>
<!-- Node12&#45;&gt;Node7 -->
<g id="edge14" class="edge">
<title>Node12&#45;&gt;Node7</title>
<path fill="none" stroke="midnightblue" d="M630.26,-56.08C637.46,-48.3 648.11,-36.8 656.85,-27.37"/>
<polygon fill="midnightblue" stroke="midnightblue" points="659.67,-29.47 663.9,-19.75 654.53,-24.71 659.67,-29.47"/>
</g>
<!-- Node12&#45;&gt;Node9 -->
<g id="edge15" class="edge">
<title>Node12&#45;&gt;Node9</title>
<path fill="none" stroke="midnightblue" d="M640.06,-56.44C658.57,-47.68 687.58,-33.94 708.86,-23.86"/>
<polygon fill="midnightblue" stroke="midnightblue" points="710.48,-26.96 718.02,-19.52 707.49,-20.63 710.48,-26.96"/>
</g>
<!-- Node13 -->
<g id="node13" class="node">
<title>Node13</title>
<g id="a_node13"><a xlink:title=" ">
<polygon fill="white" stroke="#bfbfbf" points="849,-0.5 849,-19.5 881,-19.5 881,-0.5 849,-0.5"/>
<text text-anchor="middle" x="865" y="-7.5" font-family="Helvetica,sans-Serif" font-size="10.00">set</text>
</a>
</g>
</g>
<!-- Node12&#45;&gt;Node13 -->
<g id="edge13" class="edge">
<title>Node12&#45;&gt;Node13</title>
<path fill="none" stroke="midnightblue" d="M673.59,-56.48C715.82,-49.03 777.21,-37.11 839.05,-19.95"/>
<polygon fill="midnightblue" stroke="midnightblue" points="840.3,-23.23 848.97,-17.15 838.4,-16.5 840.3,-23.23"/>
</g>
<!-- Node14&#45;&gt;Node5 -->
<g id="edge17" class="edge">
<title>Node14&#45;&gt;Node5</title>
<path fill="none" stroke="midnightblue" d="M530.54,-112.32C516.5,-103.9 494.95,-90.97 478.46,-81.07"/>
<polygon fill="midnightblue" stroke="midnightblue" points="479.8,-77.8 469.42,-75.65 476.2,-83.8 479.8,-77.8"/>
</g>
<!-- Node15&#45;&gt;Node5 -->
<g id="edge19" class="edge">
<title>Node15&#45;&gt;Node5</title>
<path fill="none" stroke="midnightblue" d="M269.86,-112.44C307.92,-103.1 368.96,-88.12 410.46,-77.93"/>
<polygon fill="midnightblue" stroke="midnightblue" points="411.43,-81.3 420.3,-75.52 409.76,-74.5 411.43,-81.3"/>
</g>
<!-- Node16 -->
<g id="node16" class="node">
<title>Node16</title>
<g id="a_node16"><a xlink:title=" ">
<polygon fill="white" stroke="#bfbfbf" points="207,-56.5 207,-75.5 263,-75.5 263,-56.5 207,-56.5"/>
<text text-anchor="middle" x="235" y="-63.5" font-family="Helvetica,sans-Serif" font-size="10.00">assert.h</text>
</a>
</g>
</g>
<!-- Node15&#45;&gt;Node16 -->
<g id="edge20" class="edge">
<title>Node15&#45;&gt;Node16</title>
<path fill="none" stroke="midnightblue" d="M235,-112.08C235,-105.01 235,-94.86 235,-85.99"/>
<polygon fill="midnightblue" stroke="midnightblue" points="238.5,-85.75 235,-75.75 231.5,-85.75 238.5,-85.75"/>
</g>
<!-- Node17&#45;&gt;Node3 -->
<g id="edge22" class="edge">
<title>Node17&#45;&gt;Node3</title>
<path fill="none" stroke="midnightblue" d="M122,-168.4C122,-160.47 122,-150.46 122,-141.86"/>
<polygon fill="midnightblue" stroke="midnightblue" points="125.5,-141.66 122,-131.66 118.5,-141.66 125.5,-141.66"/>
</g>
<!-- Node18 -->
<g id="node18" class="node">
<title>Node18</title>
<g id="a_node18"><a xlink:title=" ">
<polygon fill="white" stroke="#bfbfbf" points="0,-112.5 0,-131.5 72,-131.5 72,-112.5 0,-112.5"/>
<text text-anchor="middle" x="36" y="-119.5" font-family="Helvetica,sans-Serif" font-size="10.00">sys/types.h</text>
</a>
</g>
</g>
<!-- Node17&#45;&gt;Node18 -->
<g id="edge23" class="edge">
<title>Node17&#45;&gt;Node18</title>
<path fill="none" stroke="midnightblue" d="M101.62,-168.4C88.09,-159.04 70.39,-146.79 56.78,-137.38"/>
<polygon fill="midnightblue" stroke="midnightblue" points="58.73,-134.47 48.51,-131.66 54.75,-140.23 58.73,-134.47"/>
</g>
<!-- Node19&#45;&gt;Node5 -->
<g id="edge26" class="edge">
<title>Node19&#45;&gt;Node5</title>
<path fill="none" stroke="midnightblue" d="M675.2,-173.64C666.58,-158.6 647.04,-128.15 622,-112 595.47,-94.89 562.58,-84.25 533.01,-77.64"/>
<polygon fill="midnightblue" stroke="midnightblue" points="533.63,-74.2 523.12,-75.55 532.18,-81.04 533.63,-74.2"/>
</g>
<!-- Node20 -->
<g id="node20" class="node">
<title>Node20</title>
<g id="a_node20"><a xlink:title=" ">
<polygon fill="white" stroke="#bfbfbf" points="708.5,-112.5 708.5,-131.5 765.5,-131.5 765.5,-112.5 708.5,-112.5"/>
<text text-anchor="middle" x="737" y="-119.5" font-family="Helvetica,sans-Serif" font-size="10.00">ostream</text>
</a>
</g>
</g>
<!-- Node19&#45;&gt;Node20 -->
<g id="edge25" class="edge">
<title>Node19&#45;&gt;Node20</title>
<path fill="none" stroke="midnightblue" d="M688.17,-173.98C696.89,-164.87 710.9,-150.24 721.69,-138.98"/>
<polygon fill="midnightblue" stroke="midnightblue" points="724.46,-141.15 728.85,-131.51 719.4,-136.31 724.46,-141.15"/>
</g>
<!-- Node21&#45;&gt;Node5 -->
<g id="edge31" class="edge">
<title>Node21&#45;&gt;Node5</title>
<path fill="none" stroke="midnightblue" d="M821.55,-112.5C743.46,-102.81 615.97,-86.98 533.8,-76.78"/>
<polygon fill="midnightblue" stroke="midnightblue" points="534.12,-73.3 523.77,-75.54 533.26,-80.24 534.12,-73.3"/>
</g>
<!-- Node21&#45;&gt;Node13 -->
<g id="edge30" class="edge">
<title>Node21&#45;&gt;Node13</title>
<path fill="none" stroke="midnightblue" d="M891.35,-112.41C893.03,-99.81 895.1,-75.66 890,-56 887.45,-46.18 882.25,-36.21 877.24,-28.17"/>
<polygon fill="midnightblue" stroke="midnightblue" points="880.08,-26.11 871.63,-19.73 874.25,-29.99 880.08,-26.11"/>
</g>
<!-- Node22 -->
<g id="node22" class="node">
<title>Node22</title>
<g id="a_node22"><a xlink:title=" ">
<polygon fill="white" stroke="#bfbfbf" points="937,-56.5 937,-75.5 987,-75.5 987,-56.5 937,-56.5"/>
<text text-anchor="middle" x="962" y="-63.5" font-family="Helvetica,sans-Serif" font-size="10.00">stdio.h</text>
</a>
</g>
</g>
<!-- Node21&#45;&gt;Node22 -->
<g id="edge28" class="edge">
<title>Node21&#45;&gt;Node22</title>
<path fill="none" stroke="midnightblue" d="M901.57,-112.32C912.42,-104.18 928.88,-91.84 941.88,-82.09"/>
<polygon fill="midnightblue" stroke="midnightblue" points="944.32,-84.63 950.22,-75.83 940.12,-79.03 944.32,-84.63"/>
</g>
<!-- Node23 -->
<g id="node23" class="node">
<title>Node23</title>
<g id="a_node23"><a xlink:title=" ">
<polygon fill="white" stroke="#bfbfbf" points="1005,-56.5 1005,-75.5 1061,-75.5 1061,-56.5 1005,-56.5"/>
<text text-anchor="middle" x="1033" y="-63.5" font-family="Helvetica,sans-Serif" font-size="10.00">sstream</text>
</a>
</g>
</g>
<!-- Node21&#45;&gt;Node23 -->
<g id="edge29" class="edge">
<title>Node21&#45;&gt;Node23</title>
<path fill="none" stroke="midnightblue" d="M912.66,-112.44C936.4,-103.48 973.91,-89.31 1000.74,-79.18"/>
<polygon fill="midnightblue" stroke="midnightblue" points="1002.33,-82.32 1010.45,-75.52 999.86,-75.77 1002.33,-82.32"/>
</g>
<!-- Node24 -->
<g id="node24" class="node">
<title>Node24</title>
<g id="a_node24"><a xlink:href="../../d0/db4/debugshare_8h.html" target="_top" xlink:title="Declares the constants used for sharing debug messages. These structures are used to gather debug mes...">
<polygon fill="white" stroke="black" points="717.5,-56.5 717.5,-75.5 880.5,-75.5 880.5,-56.5 717.5,-56.5"/>
<text text-anchor="middle" x="799" y="-63.5" font-family="Helvetica,sans-Serif" font-size="10.00">ajabase/system/debugshare.h</text>
</a>
</g>
</g>
<!-- Node21&#45;&gt;Node24 -->
<g id="edge32" class="edge">
<title>Node21&#45;&gt;Node24</title>
<path fill="none" stroke="midnightblue" d="M875.38,-112.32C861.05,-103.82 838.99,-90.73 822.25,-80.8"/>
<polygon fill="midnightblue" stroke="midnightblue" points="823.97,-77.75 813.58,-75.65 820.4,-83.77 823.97,-77.75"/>
</g>
<!-- Node24&#45;&gt;Node6 -->
<g id="edge33" class="edge">
<title>Node24&#45;&gt;Node6</title>
<path fill="none" stroke="midnightblue" d="M761.13,-56.44C719.52,-47.04 652.63,-31.93 607.53,-21.74"/>
<polygon fill="midnightblue" stroke="midnightblue" points="608.22,-18.31 597.69,-19.52 606.68,-25.13 608.22,-18.31"/>
</g>
<!-- Node24&#45;&gt;Node7 -->
<g id="edge36" class="edge">
<title>Node24&#45;&gt;Node7</title>
<path fill="none" stroke="midnightblue" d="M778.88,-56.44C757.98,-47.56 725.07,-33.56 701.28,-23.45"/>
<polygon fill="midnightblue" stroke="midnightblue" points="702.6,-20.21 692.03,-19.52 699.86,-26.65 702.6,-20.21"/>
</g>
<!-- Node24&#45;&gt;Node9 -->
<g id="edge37" class="edge">
<title>Node24&#45;&gt;Node9</title>
<path fill="none" stroke="midnightblue" d="M788.88,-56.32C779.47,-48.26 765.26,-36.08 753.93,-26.37"/>
<polygon fill="midnightblue" stroke="midnightblue" points="756.18,-23.68 746.31,-19.83 751.62,-29 756.18,-23.68"/>
</g>
<!-- Node25 -->
<g id="node25" class="node">
<title>Node25</title>
<g id="a_node25"><a xlink:title=" ">
<polygon fill="white" stroke="#bfbfbf" points="899,-0.5 899,-19.5 955,-19.5 955,-0.5 899,-0.5"/>
<text text-anchor="middle" x="927" y="-7.5" font-family="Helvetica,sans-Serif" font-size="10.00">stddef.h</text>
</a>
</g>
</g>
<!-- Node24&#45;&gt;Node25 -->
<g id="edge34" class="edge">
<title>Node24&#45;&gt;Node25</title>
<path fill="none" stroke="midnightblue" d="M819.28,-56.44C840.35,-47.56 873.52,-33.56 897.49,-23.45"/>
<polygon fill="midnightblue" stroke="midnightblue" points="898.96,-26.63 906.81,-19.52 896.24,-20.18 898.96,-26.63"/>
</g>
<!-- Node26 -->
<g id="node26" class="node">
<title>Node26</title>
<g id="a_node26"><a xlink:title=" ">
<polygon fill="white" stroke="#bfbfbf" points="777.5,-0.5 777.5,-19.5 830.5,-19.5 830.5,-0.5 777.5,-0.5"/>
<text text-anchor="middle" x="804" y="-7.5" font-family="Helvetica,sans-Serif" font-size="10.00">stdint.h</text>
</a>
</g>
</g>
<!-- Node24&#45;&gt;Node26 -->
<g id="edge35" class="edge">
<title>Node24&#45;&gt;Node26</title>
<path fill="none" stroke="midnightblue" d="M799.83,-56.08C800.48,-49.01 801.42,-38.86 802.24,-29.99"/>
<polygon fill="midnightblue" stroke="midnightblue" points="805.75,-30.03 803.19,-19.75 798.78,-29.39 805.75,-30.03"/>
</g>
</g>
</svg>
        <g id="navigator" transform="translate(0 0)" fill="#404254">
                <rect fill="#f2f5e9" fill-opacity="0.5" stroke="#606060" stroke-width=".5" x="0" y="0" width="60" height="60"/>
                <use id="zoomplus" xlink:href="#zoomPlus" x="17" y="9" onmousedown="handleZoom(evt,'in')"/>
                <use id="zoomminus" xlink:href="#zoomMin" x="42" y="9" onmousedown="handleZoom(evt,'out')"/>
                <use id="reset" xlink:href="#resetDef" x="30" y="36" onmousedown="handleReset()"/>
                <g id="arrowUp" xlink:href="#dirArrow" transform="translate(30 24)" onmousedown="handlePan(0,-1)">
                  <use xlink:href="#rim" fill="#404040">
                        <set attributeName="fill" to="#808080" begin="arrowUp.mouseover" end="arrowUp.mouseout"/>
                  </use>
                  <path fill="none" stroke="white" stroke-width="1.5" d="M0,-3.0v7 M-2.5,-0.5L0,-3.0L2.5,-0.5"/>
                </g>
                <g id="arrowRight" xlink:href="#dirArrow" transform="rotate(90) translate(36 -43)" onmousedown="handlePan(1,0)">
                  <use xlink:href="#rim" fill="#404040">
                        <set attributeName="fill" to="#808080" begin="arrowRight.mouseover" end="arrowRight.mouseout"/>
                  </use>
                  <path fill="none" stroke="white" stroke-width="1.5" d="M0,-3.0v7 M-2.5,-0.5L0,-3.0L2.5,-0.5"/>
                </g>
                <g id="arrowDown" xlink:href="#dirArrow" transform="rotate(180) translate(-30 -48)" onmousedown="handlePan(0,1)">
                  <use xlink:href="#rim" fill="#404040">
                        <set attributeName="fill" to="#808080" begin="arrowDown.mouseover" end="arrowDown.mouseout"/>
                  </use>
                  <path fill="none" stroke="white" stroke-width="1.5" d="M0,-3.0v7 M-2.5,-0.5L0,-3.0L2.5,-0.5"/>
                </g>
                <g id="arrowLeft" xlink:href="#dirArrow" transform="rotate(270) translate(-36 17)" onmousedown="handlePan(-1,0)">
                  <use xlink:href="#rim" fill="#404040">
                        <set attributeName="fill" to="#808080" begin="arrowLeft.mouseover" end="arrowLeft.mouseout"/>
                  </use>
                  <path fill="none" stroke="white" stroke-width="1.5" d="M0,-3.0v7 M-2.5,-0.5L0,-3.0L2.5,-0.5"/>
                </g>
        </g>
        <svg viewBox="0 0 15 15" width="100%" height="30px" preserveAspectRatio="xMaxYMin meet">
         <g id="arrow_out" transform="scale(0.3 0.3)">
          <a xlink:href="mac_2threadimpl_8cpp__incl_org.svg" target="_base">
           <rect id="button" ry="5" rx="5" y="6" x="6" height="38" width="38"
                fill="#f2f5e9" fill-opacity="0.5" stroke="#606060" stroke-width="1.0"/>
           <path id="arrow"
             d="M 11.500037,31.436501 C 11.940474,20.09759 22.043105,11.32322 32.158766,21.979434 L 37.068811,17.246167 C 37.068811,17.246167 37.088388,32 37.088388,32 L 22.160133,31.978069 C 22.160133,31.978069 26.997745,27.140456 26.997745,27.140456 C 18.528582,18.264221 13.291696,25.230495 11.500037,31.436501 z"
             style="fill:#404040;"/>
          </a>
         </g>
        </svg>
</svg>
