<?xml version="1.0" encoding="UTF-8" standalone="no"?>
<!DOCTYPE svg PUBLIC "-//W3C//DTD SVG 1.1//EN"
 "http://www.w3.org/Graphics/SVG/1.1/DTD/svg11.dtd">
<!-- Generated by graphviz version 2.40.1 (0)
 -->
<!-- Title: /home/tcbuilder/buildAgent/work/df8e8cce5bebfd58/libajantv2/ajabase/system/mac/pthreadsextra.cpp Pages: 1 -->
<!--zoomable 341 -->
<svg id="main" version="1.1" xmlns="http://www.w3.org/2000/svg" xmlns:xlink="http://www.w3.org/1999/xlink" xml:space="preserve" onload="init(evt)">
<style type="text/css"><![CDATA[
.edge:hover path { stroke: red; }
.edge:hover polygon { stroke: red; fill: red; }
]]></style>
<script type="text/javascript"><![CDATA[
var edges = document.getElementsByTagName('g');
if (edges && edges.length) {
  for (var i=0;i<edges.length;i++) {
    if (edges[i].id.substr(0,4)=='edge') {
      edges[i].setAttribute('class','edge');
    }
  }
}
]]></script>
        <defs>
                <circle id="rim" cx="0" cy="0" r="7"/>
                <circle id="rim2" cx="0" cy="0" r="3.5"/>
                <g id="zoomPlus">
                        <use xlink:href="#rim" fill="#404040">
                                <set attributeName="fill" to="#808080" begin="zoomplus.mouseover" end="zoomplus.mouseout"/>
                        </use>
                        <path d="M-4,0h8M0,-4v8" fill="none" stroke="white" stroke-width="1.5" pointer-events="none"/>
                </g>
                <g id="zoomMin">
                        <use xlink:href="#rim" fill="#404040">
                                <set attributeName="fill" to="#808080" begin="zoomminus.mouseover" end="zoomminus.mouseout"/>
                        </use>
                        <path d="M-4,0h8" fill="none" stroke="white" stroke-width="1.5" pointer-events="none"/>
                </g>
                <g id="dirArrow">
                        <path fill="none" stroke="white" stroke-width="1.5" d="M0,-3.0v7 M-2.5,-0.5L0,-3.0L2.5,-0.5"/>
                </g>
               <g id="resetDef">
                       <use xlink:href="#rim2" fill="#404040">
                               <set attributeName="fill" to="#808080" begin="reset.mouseover" end="reset.mouseout"/>
                       </use>
               </g>
        </defs>

<script type="text/javascript">
var viewWidth = 620;
var viewHeight = 341;
var sectionId = 'dynsection-0';
</script>
<script xlink:href="../../svgpan.js"/>
<svg id="graph" class="graph">
<g id="viewport">
<title>/home/tcbuilder/buildAgent/work/df8e8cce5bebfd58/libajantv2/ajabase/system/mac/pthreadsextra.cpp</title>
<polygon fill="#ffffff" stroke="transparent" points="-4,4 -4,-337 616,-337 616,4 -4,4"/>
<!-- Node0 -->
<g id="node1" class="node">
<title>Node0</title>
<polygon fill="#bfbfbf" stroke="#000000" points="394.5,-291.5 394.5,-332.5 585.5,-332.5 585.5,-291.5 394.5,-291.5"/>
<text text-anchor="start" x="402.5" y="-320.5" font-family="Helvetica,sans-Serif" font-size="10.00" fill="#000000">/home/tcbuilder/buildAgent</text>
<text text-anchor="start" x="402.5" y="-309.5" font-family="Helvetica,sans-Serif" font-size="10.00" fill="#000000">/work/df8e8cce5bebfd58/libajantv2</text>
<text text-anchor="middle" x="490" y="-298.5" font-family="Helvetica,sans-Serif" font-size="10.00" fill="#000000">/ajabase/system/mac/pthreadsextra.cpp</text>
</g>
<!-- Node1 -->
<g id="node2" class="node">
<title>Node1</title>
<g id="a_node2"><a xlink:href="../../d0/d5f/pthreadsextra_8h.html" target="_top" xlink:title="Declares extra symbols to make the Mac threads implementation look more like Unix. ">
<polygon fill="#ffffff" stroke="#000000" points="448,-230 448,-249 532,-249 532,-230 448,-230"/>
<text text-anchor="middle" x="490" y="-237" font-family="Helvetica,sans-Serif" font-size="10.00" fill="#000000">pthreadsextra.h</text>
</a>
</g>
</g>
<!-- Node0&#45;&gt;Node1 -->
<g id="edge1" class="edge">
<title>Node0&#45;&gt;Node1</title>
<path fill="none" stroke="#191970" d="M490,-291.4183C490,-281.32 490,-269.213 490,-259.2314"/>
<polygon fill="#191970" stroke="#191970" points="493.5001,-259.0853 490,-249.0853 486.5001,-259.0854 493.5001,-259.0853"/>
</g>
<!-- Node4 -->
<g id="node5" class="node">
<title>Node4</title>
<polygon fill="#ffffff" stroke="#bfbfbf" points="550,-230 550,-249 612,-249 612,-230 550,-230"/>
<text text-anchor="middle" x="581" y="-237" font-family="Helvetica,sans-Serif" font-size="10.00" fill="#000000">sys/time.h</text>
</g>
<!-- Node0&#45;&gt;Node4 -->
<g id="edge4" class="edge">
<title>Node0&#45;&gt;Node4</title>
<path fill="none" stroke="#191970" d="M515.8335,-291.4183C530.1441,-280.017 547.6687,-266.0551 560.9391,-255.4826"/>
<polygon fill="#191970" stroke="#191970" points="563.3284,-258.054 568.9687,-249.0853 558.9665,-252.5792 563.3284,-258.054"/>
</g>
<!-- Node5 -->
<g id="node6" class="node">
<title>Node5</title>
<g id="a_node6"><a xlink:href="../../d6/dc5/mac_2threadimpl_8h.html" target="_top" xlink:title="Declares the AJAThreadImpl class. ">
<polygon fill="#ffffff" stroke="#000000" points="308.5,-224.5 308.5,-254.5 415.5,-254.5 415.5,-224.5 308.5,-224.5"/>
<text text-anchor="start" x="316.5" y="-242.5" font-family="Helvetica,sans-Serif" font-size="10.00" fill="#000000">ajabase/system/mac</text>
<text text-anchor="middle" x="362" y="-231.5" font-family="Helvetica,sans-Serif" font-size="10.00" fill="#000000">/threadimpl.h</text>
</a>
</g>
</g>
<!-- Node0&#45;&gt;Node5 -->
<g id="edge5" class="edge">
<title>Node0&#45;&gt;Node5</title>
<path fill="none" stroke="#191970" d="M453.6627,-291.4183C436.0396,-281.4365 414.9512,-269.4919 397.4472,-259.5775"/>
<polygon fill="#191970" stroke="#191970" points="399.0839,-256.4821 388.6577,-254.5991 395.634,-262.573 399.0839,-256.4821"/>
</g>
<!-- Node2 -->
<g id="node3" class="node">
<title>Node2</title>
<polygon fill="#ffffff" stroke="#bfbfbf" points="461.5,-168.5 461.5,-187.5 518.5,-187.5 518.5,-168.5 461.5,-168.5"/>
<text text-anchor="middle" x="490" y="-175.5" font-family="Helvetica,sans-Serif" font-size="10.00" fill="#000000">pthread.h</text>
</g>
<!-- Node1&#45;&gt;Node2 -->
<g id="edge2" class="edge">
<title>Node1&#45;&gt;Node2</title>
<path fill="none" stroke="#191970" d="M490,-229.8906C490,-221.3657 490,-208.6392 490,-197.9235"/>
<polygon fill="#191970" stroke="#191970" points="493.5001,-197.7448 490,-187.7449 486.5001,-197.7449 493.5001,-197.7448"/>
</g>
<!-- Node3 -->
<g id="node4" class="node">
<title>Node3</title>
<polygon fill="#ffffff" stroke="#bfbfbf" points="537,-168.5 537,-187.5 605,-187.5 605,-168.5 537,-168.5"/>
<text text-anchor="middle" x="571" y="-175.5" font-family="Helvetica,sans-Serif" font-size="10.00" fill="#000000">sys/types.h</text>
</g>
<!-- Node1&#45;&gt;Node3 -->
<g id="edge3" class="edge">
<title>Node1&#45;&gt;Node3</title>
<path fill="none" stroke="#191970" d="M502.6563,-229.8906C515.3768,-220.2324 535.2004,-205.1812 550.2284,-193.771"/>
<polygon fill="#191970" stroke="#191970" points="552.5846,-196.3766 558.4326,-187.5419 548.3516,-190.8015 552.5846,-196.3766"/>
</g>
<!-- Node5&#45;&gt;Node2 -->
<g id="edge6" class="edge">
<title>Node5&#45;&gt;Node2</title>
<path fill="none" stroke="#191970" d="M393.3123,-224.4554C414.0138,-214.509 440.9523,-201.5659 461.1353,-191.8686"/>
<polygon fill="#191970" stroke="#191970" points="462.6667,-195.0159 470.1645,-187.5303 459.6352,-188.7064 462.6667,-195.0159"/>
</g>
<!-- Node6 -->
<g id="node7" class="node">
<title>Node6</title>
<g id="a_node7"><a xlink:href="../../dc/db2/system_8h.html" target="_top" xlink:title="System specific functions. ">
<polygon fill="#ffffff" stroke="#000000" points="142.5,-168.5 142.5,-187.5 271.5,-187.5 271.5,-168.5 142.5,-168.5"/>
<text text-anchor="middle" x="207" y="-175.5" font-family="Helvetica,sans-Serif" font-size="10.00" fill="#000000">ajabase/system/system.h</text>
</a>
</g>
</g>
<!-- Node5&#45;&gt;Node6 -->
<g id="edge7" class="edge">
<title>Node5&#45;&gt;Node6</title>
<path fill="none" stroke="#191970" d="M324.0827,-224.4554C298.5609,-214.329 265.2104,-201.0964 240.6344,-191.3453"/>
<polygon fill="#191970" stroke="#191970" points="241.6054,-187.9651 231.0195,-187.5303 239.0237,-194.4717 241.6054,-187.9651"/>
</g>
<!-- Node15 -->
<g id="node16" class="node">
<title>Node15</title>
<g id="a_node16"><a xlink:href="../../dc/d54/common_8h.html" target="_top" xlink:title="Private include file for all ajabase sources. ">
<polygon fill="#ffffff" stroke="#000000" points="363,-112.5 363,-131.5 503,-131.5 503,-112.5 363,-112.5"/>
<text text-anchor="middle" x="433" y="-119.5" font-family="Helvetica,sans-Serif" font-size="10.00" fill="#000000">ajabase/common/common.h</text>
</a>
</g>
</g>
<!-- Node5&#45;&gt;Node15 -->
<g id="edge16" class="edge">
<title>Node5&#45;&gt;Node15</title>
<path fill="none" stroke="#191970" d="M381.5226,-224.4608C392.501,-215.065 405.6396,-202.0982 414,-188 422.4576,-173.7378 427.3332,-155.4951 430.0227,-141.805"/>
<polygon fill="#191970" stroke="#191970" points="433.5385,-142.0142 431.7983,-131.5633 426.6414,-140.8184 433.5385,-142.0142"/>
</g>
<!-- Node18 -->
<g id="node19" class="node">
<title>Node18</title>
<g id="a_node19"><a xlink:href="../../db/dd5/thread_8h.html" target="_top" xlink:title="Declares the AJAThread class. ">
<polygon fill="#ffffff" stroke="#000000" points="0,-168.5 0,-187.5 124,-187.5 124,-168.5 0,-168.5"/>
<text text-anchor="middle" x="62" y="-175.5" font-family="Helvetica,sans-Serif" font-size="10.00" fill="#000000">ajabase/system/thread.h</text>
</a>
</g>
</g>
<!-- Node5&#45;&gt;Node18 -->
<g id="edge22" class="edge">
<title>Node5&#45;&gt;Node18</title>
<path fill="none" stroke="#191970" d="M308.366,-228.505C254.8972,-217.5439 173.0987,-200.7752 118.6081,-189.6047"/>
<polygon fill="#191970" stroke="#191970" points="119.2635,-186.1663 108.7643,-187.5867 117.8577,-193.0237 119.2635,-186.1663"/>
</g>
<!-- Node19 -->
<g id="node20" class="node">
<title>Node19</title>
<g id="a_node20"><a xlink:href="../../dd/d42/lock_8h.html" target="_top" xlink:title="Declares the AJALock class. ">
<polygon fill="#ffffff" stroke="#000000" points="289.5,-168.5 289.5,-187.5 404.5,-187.5 404.5,-168.5 289.5,-168.5"/>
<text text-anchor="middle" x="347" y="-175.5" font-family="Helvetica,sans-Serif" font-size="10.00" fill="#000000">ajabase/system/lock.h</text>
</a>
</g>
</g>
<!-- Node5&#45;&gt;Node19 -->
<g id="edge24" class="edge">
<title>Node5&#45;&gt;Node19</title>
<path fill="none" stroke="#191970" d="M358.2921,-224.2977C356.3401,-216.2945 353.923,-206.3843 351.8266,-197.7889"/>
<polygon fill="#191970" stroke="#191970" points="355.1716,-196.7328 349.4017,-187.8469 348.371,-198.3915 355.1716,-196.7328"/>
</g>
<!-- Node7 -->
<g id="node8" class="node">
<title>Node7</title>
<g id="a_node8"><a xlink:href="../../d4/d79/public_8h.html" target="_top" xlink:title="Master header for the ajabase library. ">
<polygon fill="#ffffff" stroke="#000000" points="145,-112.5 145,-131.5 273,-131.5 273,-112.5 145,-112.5"/>
<text text-anchor="middle" x="209" y="-119.5" font-family="Helvetica,sans-Serif" font-size="10.00" fill="#000000">ajabase/common/public.h</text>
</a>
</g>
</g>
<!-- Node6&#45;&gt;Node7 -->
<g id="edge8" class="edge">
<title>Node6&#45;&gt;Node7</title>
<path fill="none" stroke="#191970" d="M207.3484,-168.2455C207.6093,-160.9382 207.9752,-150.6944 208.2963,-141.7046"/>
<polygon fill="#191970" stroke="#191970" points="211.7964,-141.7613 208.6556,-131.6427 204.8008,-141.5113 211.7964,-141.7613"/>
</g>
<!-- Node8 -->
<g id="node9" class="node">
<title>Node8</title>
<g id="a_node9"><a xlink:href="../../db/db5/export_8h.html" target="_top" xlink:title="Declares system&#45;dependent import/export macros and libraries. ">
<polygon fill="#ffffff" stroke="#000000" points="366.5,-56.5 366.5,-75.5 495.5,-75.5 495.5,-56.5 366.5,-56.5"/>
<text text-anchor="middle" x="431" y="-63.5" font-family="Helvetica,sans-Serif" font-size="10.00" fill="#000000">ajabase/common/export.h</text>
</a>
</g>
</g>
<!-- Node7&#45;&gt;Node8 -->
<g id="edge9" class="edge">
<title>Node7&#45;&gt;Node8</title>
<path fill="none" stroke="#191970" d="M246.9109,-112.4369C284.665,-102.9133 342.7265,-88.2672 383.5264,-77.9753"/>
<polygon fill="#191970" stroke="#191970" points="384.4053,-81.3633 393.2454,-75.5237 382.6931,-74.576 384.4053,-81.3633"/>
</g>
<!-- Node9 -->
<g id="node10" class="node">
<title>Node9</title>
<polygon fill="#ffffff" stroke="#bfbfbf" points="244.5,-56.5 244.5,-75.5 285.5,-75.5 285.5,-56.5 244.5,-56.5"/>
<text text-anchor="middle" x="265" y="-63.5" font-family="Helvetica,sans-Serif" font-size="10.00" fill="#000000">string</text>
</g>
<!-- Node7&#45;&gt;Node9 -->
<g id="edge10" class="edge">
<title>Node7&#45;&gt;Node9</title>
<path fill="none" stroke="#191970" d="M218.7545,-112.2455C226.8648,-104.1352 238.5925,-92.4075 248.2081,-82.7919"/>
<polygon fill="#191970" stroke="#191970" points="250.7611,-85.1887 255.3573,-75.6427 245.8113,-80.2389 250.7611,-85.1887"/>
</g>
<!-- Node10 -->
<g id="node11" class="node">
<title>Node10</title>
<polygon fill="#ffffff" stroke="#bfbfbf" points="144.5,-56.5 144.5,-75.5 173.5,-75.5 173.5,-56.5 144.5,-56.5"/>
<text text-anchor="middle" x="159" y="-63.5" font-family="Helvetica,sans-Serif" font-size="10.00" fill="#000000">list</text>
</g>
<!-- Node7&#45;&gt;Node10 -->
<g id="edge11" class="edge">
<title>Node7&#45;&gt;Node10</title>
<path fill="none" stroke="#191970" d="M200.2907,-112.2455C193.1927,-104.2958 182.9916,-92.8706 174.505,-83.3656"/>
<polygon fill="#191970" stroke="#191970" points="176.8805,-80.771 167.6095,-75.6427 171.6589,-85.4331 176.8805,-80.771"/>
</g>
<!-- Node11 -->
<g id="node12" class="node">
<title>Node11</title>
<polygon fill="#ffffff" stroke="#bfbfbf" points="304,-56.5 304,-75.5 348,-75.5 348,-56.5 304,-56.5"/>
<text text-anchor="middle" x="326" y="-63.5" font-family="Helvetica,sans-Serif" font-size="10.00" fill="#000000">vector</text>
</g>
<!-- Node7&#45;&gt;Node11 -->
<g id="edge12" class="edge">
<title>Node7&#45;&gt;Node11</title>
<path fill="none" stroke="#191970" d="M229.113,-112.3733C247.8103,-103.4241 275.8744,-89.9917 296.9934,-79.8835"/>
<polygon fill="#191970" stroke="#191970" points="298.6405,-82.9755 306.1494,-75.5011 295.6183,-76.6614 298.6405,-82.9755"/>
</g>
<!-- Node12 -->
<g id="node13" class="node">
<title>Node12</title>
<polygon fill="#ffffff" stroke="#bfbfbf" points="191.5,-56.5 191.5,-75.5 226.5,-75.5 226.5,-56.5 191.5,-56.5"/>
<text text-anchor="middle" x="209" y="-63.5" font-family="Helvetica,sans-Serif" font-size="10.00" fill="#000000">map</text>
</g>
<!-- Node7&#45;&gt;Node12 -->
<g id="edge13" class="edge">
<title>Node7&#45;&gt;Node12</title>
<path fill="none" stroke="#191970" d="M209,-112.2455C209,-104.9382 209,-94.6944 209,-85.7046"/>
<polygon fill="#191970" stroke="#191970" points="212.5001,-85.6426 209,-75.6427 205.5001,-85.6427 212.5001,-85.6426"/>
</g>
<!-- Node13 -->
<g id="node14" class="node">
<title>Node13</title>
<g id="a_node14"><a xlink:href="../../d9/d49/types_8h.html" target="_top" xlink:title="Declares common types used in the ajabase library. ">
<polygon fill="#ffffff" stroke="#000000" points="0,-56.5 0,-75.5 126,-75.5 126,-56.5 0,-56.5"/>
<text text-anchor="middle" x="63" y="-63.5" font-family="Helvetica,sans-Serif" font-size="10.00" fill="#000000">ajabase/common/types.h</text>
</a>
</g>
</g>
<!-- Node7&#45;&gt;Node13 -->
<g id="edge14" class="edge">
<title>Node7&#45;&gt;Node13</title>
<path fill="none" stroke="#191970" d="M183.9017,-112.3733C160.0445,-103.2226 123.9665,-89.3844 97.429,-79.2057"/>
<polygon fill="#191970" stroke="#191970" points="98.361,-75.8145 87.7708,-75.5011 95.8541,-82.3503 98.361,-75.8145"/>
</g>
<!-- Node14 -->
<g id="node15" class="node">
<title>Node14</title>
<g id="a_node15"><a xlink:href="../../db/d40/ntv2deprecate_8h.html" target="_top" xlink:title="Deprecation control macros. ">
<polygon fill="#ffffff" stroke="#000000" points="20,-.5 20,-19.5 106,-19.5 106,-.5 20,-.5"/>
<text text-anchor="middle" x="63" y="-7.5" font-family="Helvetica,sans-Serif" font-size="10.00" fill="#000000">ntv2deprecate.h</text>
</a>
</g>
</g>
<!-- Node13&#45;&gt;Node14 -->
<g id="edge15" class="edge">
<title>Node13&#45;&gt;Node14</title>
<path fill="none" stroke="#191970" d="M63,-56.2455C63,-48.9382 63,-38.6944 63,-29.7046"/>
<polygon fill="#191970" stroke="#191970" points="66.5001,-29.6426 63,-19.6427 59.5001,-29.6427 66.5001,-29.6426"/>
</g>
<!-- Node15&#45;&gt;Node8 -->
<g id="edge17" class="edge">
<title>Node15&#45;&gt;Node8</title>
<path fill="none" stroke="#191970" d="M432.6516,-112.2455C432.3907,-104.9382 432.0248,-94.6944 431.7037,-85.7046"/>
<polygon fill="#191970" stroke="#191970" points="435.1992,-85.5113 431.3444,-75.6427 428.2036,-85.7613 435.1992,-85.5113"/>
</g>
<!-- Node15&#45;&gt;Node9 -->
<g id="edge19" class="edge">
<title>Node15&#45;&gt;Node9</title>
<path fill="none" stroke="#191970" d="M404.1198,-112.3733C373.7762,-102.2587 326.2521,-86.4174 295.3628,-76.1209"/>
<polygon fill="#191970" stroke="#191970" points="296.1675,-72.6999 285.5738,-72.8579 293.9538,-79.3407 296.1675,-72.6999"/>
</g>
<!-- Node15&#45;&gt;Node11 -->
<g id="edge20" class="edge">
<title>Node15&#45;&gt;Node11</title>
<path fill="none" stroke="#191970" d="M414.362,-112.2455C397.5614,-103.4527 372.6366,-90.4079 353.5382,-80.4125"/>
<polygon fill="#191970" stroke="#191970" points="354.9073,-77.1787 344.4244,-75.6427 351.6614,-83.3807 354.9073,-77.1787"/>
</g>
<!-- Node16 -->
<g id="node17" class="node">
<title>Node16</title>
<polygon fill="#ffffff" stroke="#bfbfbf" points="514,-56.5 514,-75.5 544,-75.5 544,-56.5 514,-56.5"/>
<text text-anchor="middle" x="529" y="-63.5" font-family="Helvetica,sans-Serif" font-size="10.00" fill="#000000">set</text>
</g>
<!-- Node15&#45;&gt;Node16 -->
<g id="edge18" class="edge">
<title>Node15&#45;&gt;Node16</title>
<path fill="none" stroke="#191970" d="M449.7219,-112.2455C464.9515,-103.3616 487.6219,-90.1372 504.8236,-80.1029"/>
<polygon fill="#191970" stroke="#191970" points="506.8612,-82.9663 513.7355,-74.9043 503.3341,-76.9198 506.8612,-82.9663"/>
</g>
<!-- Node17 -->
<g id="node18" class="node">
<title>Node17</title>
<polygon fill="#ffffff" stroke="#bfbfbf" points="562,-56.5 562,-75.5 608,-75.5 608,-56.5 562,-56.5"/>
<text text-anchor="middle" x="585" y="-63.5" font-family="Helvetica,sans-Serif" font-size="10.00" fill="#000000">cstdint</text>
</g>
<!-- Node15&#45;&gt;Node17 -->
<g id="edge21" class="edge">
<title>Node15&#45;&gt;Node17</title>
<path fill="none" stroke="#191970" d="M459.1297,-112.3733C484.8327,-102.9037 524.1608,-88.4144 552.0068,-78.1554"/>
<polygon fill="#191970" stroke="#191970" points="553.5264,-81.3256 561.6998,-74.5843 551.1064,-74.7572 553.5264,-81.3256"/>
</g>
<!-- Node18&#45;&gt;Node7 -->
<g id="edge23" class="edge">
<title>Node18&#45;&gt;Node7</title>
<path fill="none" stroke="#191970" d="M87.2702,-168.3733C111.3966,-159.1822 147.9362,-145.2624 174.6877,-135.0713"/>
<polygon fill="#191970" stroke="#191970" points="175.9607,-138.3318 184.0596,-131.5011 173.4687,-131.7904 175.9607,-138.3318"/>
</g>
<!-- Node19&#45;&gt;Node7 -->
<g id="edge25" class="edge">
<title>Node19&#45;&gt;Node7</title>
<path fill="none" stroke="#191970" d="M323.277,-168.3733C300.8263,-159.2629 266.9261,-145.5062 241.8745,-135.3404"/>
<polygon fill="#191970" stroke="#191970" points="242.9957,-132.0182 232.4135,-131.5011 240.3635,-138.5045 242.9957,-132.0182"/>
</g>
<!-- Node20 -->
<g id="node21" class="node">
<title>Node20</title>
<polygon fill="#ffffff" stroke="#bfbfbf" points="293,-112.5 293,-131.5 345,-131.5 345,-112.5 293,-112.5"/>
<text text-anchor="middle" x="319" y="-119.5" font-family="Helvetica,sans-Serif" font-size="10.00" fill="#000000">assert.h</text>
</g>
<!-- Node19&#45;&gt;Node20 -->
<g id="edge26" class="edge">
<title>Node19&#45;&gt;Node20</title>
<path fill="none" stroke="#191970" d="M342.1228,-168.2455C338.3487,-160.6973 333.0079,-150.0158 328.4099,-140.8197"/>
<polygon fill="#191970" stroke="#191970" points="331.424,-139.0217 323.8213,-131.6427 325.163,-142.1522 331.424,-139.0217"/>
</g>
</g>
</svg>
        <g id="navigator" transform="translate(0 0)" fill="#404254">
                <rect fill="#f2f5e9" fill-opacity="0.5" stroke="#606060" stroke-width=".5" x="0" y="0" width="60" height="60"/>
                <use id="zoomplus" xlink:href="#zoomPlus" x="17" y="9" onmousedown="handleZoom(evt,'in')"/>
                <use id="zoomminus" xlink:href="#zoomMin" x="42" y="9" onmousedown="handleZoom(evt,'out')"/>
                <use id="reset" xlink:href="#resetDef" x="30" y="36" onmousedown="handleReset()"/>
                <g id="arrowUp" xlink:href="#dirArrow" transform="translate(30 24)" onmousedown="handlePan(0,-1)">
                  <use xlink:href="#rim" fill="#404040">
                        <set attributeName="fill" to="#808080" begin="arrowUp.mouseover" end="arrowUp.mouseout"/>
                  </use>
                  <path fill="none" stroke="white" stroke-width="1.5" d="M0,-3.0v7 M-2.5,-0.5L0,-3.0L2.5,-0.5"/>
                </g>
                <g id="arrowRight" xlink:href="#dirArrow" transform="rotate(90) translate(36 -43)" onmousedown="handlePan(1,0)">
                  <use xlink:href="#rim" fill="#404040">
                        <set attributeName="fill" to="#808080" begin="arrowRight.mouseover" end="arrowRight.mouseout"/>
                  </use>
                  <path fill="none" stroke="white" stroke-width="1.5" d="M0,-3.0v7 M-2.5,-0.5L0,-3.0L2.5,-0.5"/>
                </g>
                <g id="arrowDown" xlink:href="#dirArrow" transform="rotate(180) translate(-30 -48)" onmousedown="handlePan(0,1)">
                  <use xlink:href="#rim" fill="#404040">
                        <set attributeName="fill" to="#808080" begin="arrowDown.mouseover" end="arrowDown.mouseout"/>
                  </use>
                  <path fill="none" stroke="white" stroke-width="1.5" d="M0,-3.0v7 M-2.5,-0.5L0,-3.0L2.5,-0.5"/>
                </g>
                <g id="arrowLeft" xlink:href="#dirArrow" transform="rotate(270) translate(-36 17)" onmousedown="handlePan(-1,0)">
                  <use xlink:href="#rim" fill="#404040">
                        <set attributeName="fill" to="#808080" begin="arrowLeft.mouseover" end="arrowLeft.mouseout"/>
                  </use>
                  <path fill="none" stroke="white" stroke-width="1.5" d="M0,-3.0v7 M-2.5,-0.5L0,-3.0L2.5,-0.5"/>
                </g>
        </g>
        <svg viewBox="0 0 15 15" width="100%" height="30px" preserveAspectRatio="xMaxYMin meet">
         <g id="arrow_out" transform="scale(0.3 0.3)">
          <a xlink:href="pthreadsextra_8cpp__incl_org.svg" target="_base">
           <rect id="button" ry="5" rx="5" y="6" x="6" height="38" width="38"
                fill="#f2f5e9" fill-opacity="0.5" stroke="#606060" stroke-width="1.0"/>
           <path id="arrow"
             d="M 11.500037,31.436501 C 11.940474,20.09759 22.043105,11.32322 32.158766,21.979434 L 37.068811,17.246167 C 37.068811,17.246167 37.088388,32 37.088388,32 L 22.160133,31.978069 C 22.160133,31.978069 26.997745,27.140456 26.997745,27.140456 C 18.528582,18.264221 13.291696,25.230495 11.500037,31.436501 z"
             style="fill:#404040;"/>
          </a>
         </g>
        </svg>
</svg>
