<?xml version="1.0" encoding="UTF-8" standalone="no"?>
<!DOCTYPE svg PUBLIC "-//W3C//DTD SVG 1.1//EN"
 "http://www.w3.org/Graphics/SVG/1.1/DTD/svg11.dtd">
<!-- Generated by graphviz version 2.43.0 (0)
 -->
<!-- Title: /home/tcbuilder/buildAgent/work/df8e8cce5bebfd58/libajantv2/ajabase/system/linux/eventimpl.h Pages: 1 -->
<!--zoomable 218 -->
<svg id="main" version="1.1" xmlns="http://www.w3.org/2000/svg" xmlns:xlink="http://www.w3.org/1999/xlink" xml:space="preserve" onload="init(evt)">
<style type="text/css"><![CDATA[
.edge:hover path { stroke: red; }
.edge:hover polygon { stroke: red; fill: red; }
]]></style>
<script type="text/javascript"><![CDATA[
var edges = document.getElementsByTagName('g');
if (edges && edges.length) {
  for (var i=0;i<edges.length;i++) {
    if (edges[i].id.substr(0,4)=='edge') {
      edges[i].setAttribute('class','edge');
    }
  }
}
]]></script>
        <defs>
                <circle id="rim" cx="0" cy="0" r="7"/>
                <circle id="rim2" cx="0" cy="0" r="3.5"/>
                <g id="zoomPlus">
                        <use xlink:href="#rim" fill="#404040">
                                <set attributeName="fill" to="#808080" begin="zoomplus.mouseover" end="zoomplus.mouseout"/>
                        </use>
                        <path d="M-4,0h8M0,-4v8" fill="none" stroke="white" stroke-width="1.5" pointer-events="none"/>
                </g>
                <g id="zoomMin">
                        <use xlink:href="#rim" fill="#404040">
                                <set attributeName="fill" to="#808080" begin="zoomminus.mouseover" end="zoomminus.mouseout"/>
                        </use>
                        <path d="M-4,0h8" fill="none" stroke="white" stroke-width="1.5" pointer-events="none"/>
                </g>
                <g id="dirArrow">
                        <path fill="none" stroke="white" stroke-width="1.5" d="M0,-3.0v7 M-2.5,-0.5L0,-3.0L2.5,-0.5"/>
                </g>
               <g id="resetDef">
                       <use xlink:href="#rim2" fill="#404040">
                               <set attributeName="fill" to="#808080" begin="reset.mouseover" end="reset.mouseout"/>
                       </use>
               </g>
        </defs>

<script type="text/javascript">
var viewWidth = 662;
var viewHeight = 218;
var sectionId = 'dynsection-0';
</script>
<script xlink:href="../../svgpan.js"/>
<svg id="graph" class="graph">
<g id="viewport">
<title>/home/tcbuilder/buildAgent/work/df8e8cce5bebfd58/libajantv2/ajabase/system/linux/eventimpl.h</title>
<polygon fill="white" stroke="transparent" points="-4,4 -4,-214 658,-214 658,4 -4,4"/>
<!-- Node1 -->
<g id="node1" class="node">
<title>Node1</title>
<g id="a_node1"><a xlink:title="Declares the AJAEventImpl class.">
<polygon fill="#bfbfbf" stroke="black" points="325,-168.5 325,-209.5 513,-209.5 513,-168.5 325,-168.5"/>
<text text-anchor="start" x="333" y="-197.5" font-family="Helvetica,sans-Serif" font-size="10.00">/home/tcbuilder/buildAgent</text>
<text text-anchor="start" x="333" y="-186.5" font-family="Helvetica,sans-Serif" font-size="10.00">/work/df8e8cce5bebfd58/libajantv2</text>
<text text-anchor="middle" x="419" y="-175.5" font-family="Helvetica,sans-Serif" font-size="10.00">/ajabase/system/linux/eventimpl.h</text>
</a>
</g>
</g>
<!-- Node2 -->
<g id="node2" class="node">
<title>Node2</title>
<g id="a_node2"><a xlink:href="../../dc/db2/system_8h.html" target="_top" xlink:title="System specific functions.">
<polygon fill="white" stroke="black" points="192,-112.5 192,-131.5 334,-131.5 334,-112.5 192,-112.5"/>
<text text-anchor="middle" x="263" y="-119.5" font-family="Helvetica,sans-Serif" font-size="10.00">ajabase/system/system.h</text>
</a>
</g>
</g>
<!-- Node1&#45;&gt;Node2 -->
<g id="edge1" class="edge">
<title>Node1&#45;&gt;Node2</title>
<path fill="none" stroke="midnightblue" d="M372.19,-168.5C346.55,-157.81 315.52,-144.89 293.11,-135.54"/>
<polygon fill="midnightblue" stroke="midnightblue" points="294.34,-132.27 283.77,-131.65 291.65,-138.73 294.34,-132.27"/>
</g>
<!-- Node10 -->
<g id="node10" class="node">
<title>Node10</title>
<g id="a_node10"><a xlink:href="../../dc/d54/common_8h.html" target="_top" xlink:title="Private include file for all ajabase sources.">
<polygon fill="white" stroke="black" points="442.5,-56.5 442.5,-75.5 597.5,-75.5 597.5,-56.5 442.5,-56.5"/>
<text text-anchor="middle" x="520" y="-63.5" font-family="Helvetica,sans-Serif" font-size="10.00">ajabase/common/common.h</text>
</a>
</g>
</g>
<!-- Node1&#45;&gt;Node10 -->
<g id="edge9" class="edge">
<title>Node1&#45;&gt;Node10</title>
<path fill="none" stroke="midnightblue" d="M453.91,-168.38C468.22,-158.92 483.97,-146.47 495,-132 505.53,-118.19 512.11,-99.42 515.86,-85.6"/>
<polygon fill="midnightblue" stroke="midnightblue" points="519.29,-86.31 518.29,-75.77 512.5,-84.64 519.29,-86.31"/>
</g>
<!-- Node13 -->
<g id="node13" class="node">
<title>Node13</title>
<g id="a_node13"><a xlink:href="../../dd/d20/event_8h.html" target="_top" xlink:title="Declares the AJAEvent class.">
<polygon fill="white" stroke="black" points="352,-112.5 352,-131.5 486,-131.5 486,-112.5 352,-112.5"/>
<text text-anchor="middle" x="419" y="-119.5" font-family="Helvetica,sans-Serif" font-size="10.00">ajabase/system/event.h</text>
</a>
</g>
</g>
<!-- Node1&#45;&gt;Node13 -->
<g id="edge15" class="edge">
<title>Node1&#45;&gt;Node13</title>
<path fill="none" stroke="midnightblue" d="M419,-168.5C419,-160.07 419,-150.24 419,-141.87"/>
<polygon fill="midnightblue" stroke="midnightblue" points="422.5,-141.65 419,-131.65 415.5,-141.65 422.5,-141.65"/>
</g>
<!-- Node3 -->
<g id="node3" class="node">
<title>Node3</title>
<g id="a_node3"><a xlink:href="../../d4/d79/public_8h.html" target="_top" xlink:title="Master header for the ajabase library.">
<polygon fill="white" stroke="black" points="210,-56.5 210,-75.5 352,-75.5 352,-56.5 210,-56.5"/>
<text text-anchor="middle" x="281" y="-63.5" font-family="Helvetica,sans-Serif" font-size="10.00">ajabase/common/public.h</text>
</a>
</g>
</g>
<!-- Node2&#45;&gt;Node3 -->
<g id="edge2" class="edge">
<title>Node2&#45;&gt;Node3</title>
<path fill="none" stroke="midnightblue" d="M265.97,-112.08C268.38,-104.85 271.86,-94.41 274.87,-85.4"/>
<polygon fill="midnightblue" stroke="midnightblue" points="278.24,-86.34 278.08,-75.75 271.6,-84.13 278.24,-86.34"/>
</g>
<!-- Node4 -->
<g id="node4" class="node">
<title>Node4</title>
<g id="a_node4"><a xlink:href="../../db/db5/export_8h.html" target="_top" xlink:title="Declares system&#45;dependent import/export macros and libraries.">
<polygon fill="white" stroke="black" points="330,-0.5 330,-19.5 474,-19.5 474,-0.5 330,-0.5"/>
<text text-anchor="middle" x="402" y="-7.5" font-family="Helvetica,sans-Serif" font-size="10.00">ajabase/common/export.h</text>
</a>
</g>
</g>
<!-- Node3&#45;&gt;Node4 -->
<g id="edge3" class="edge">
<title>Node3&#45;&gt;Node4</title>
<path fill="none" stroke="midnightblue" d="M300.17,-56.44C319.91,-47.64 350.89,-33.81 373.49,-23.72"/>
<polygon fill="midnightblue" stroke="midnightblue" points="375.21,-26.79 382.92,-19.52 372.36,-20.4 375.21,-26.79"/>
</g>
<!-- Node5 -->
<g id="node5" class="node">
<title>Node5</title>
<g id="a_node5"><a xlink:title=" ">
<polygon fill="white" stroke="#bfbfbf" points="492,-0.5 492,-19.5 536,-19.5 536,-0.5 492,-0.5"/>
<text text-anchor="middle" x="514" y="-7.5" font-family="Helvetica,sans-Serif" font-size="10.00">string</text>
</a>
</g>
</g>
<!-- Node3&#45;&gt;Node5 -->
<g id="edge4" class="edge">
<title>Node3&#45;&gt;Node5</title>
<path fill="none" stroke="midnightblue" d="M322.97,-56.46C361.87,-48.36 421.56,-35.48 481.99,-20.14"/>
<polygon fill="midnightblue" stroke="midnightblue" points="482.88,-23.53 491.7,-17.66 481.14,-16.75 482.88,-23.53"/>
</g>
<!-- Node6 -->
<g id="node6" class="node">
<title>Node6</title>
<g id="a_node6"><a xlink:title=" ">
<polygon fill="white" stroke="#bfbfbf" points="214,-0.5 214,-19.5 246,-19.5 246,-0.5 214,-0.5"/>
<text text-anchor="middle" x="230" y="-7.5" font-family="Helvetica,sans-Serif" font-size="10.00">list</text>
</a>
</g>
</g>
<!-- Node3&#45;&gt;Node6 -->
<g id="edge5" class="edge">
<title>Node3&#45;&gt;Node6</title>
<path fill="none" stroke="midnightblue" d="M272.58,-56.08C265.15,-48.22 254.15,-36.57 245.19,-27.08"/>
<polygon fill="midnightblue" stroke="midnightblue" points="247.68,-24.62 238.26,-19.75 242.59,-29.42 247.68,-24.62"/>
</g>
<!-- Node7 -->
<g id="node7" class="node">
<title>Node7</title>
<g id="a_node7"><a xlink:title=" ">
<polygon fill="white" stroke="#bfbfbf" points="264.5,-0.5 264.5,-19.5 311.5,-19.5 311.5,-0.5 264.5,-0.5"/>
<text text-anchor="middle" x="288" y="-7.5" font-family="Helvetica,sans-Serif" font-size="10.00">vector</text>
</a>
</g>
</g>
<!-- Node3&#45;&gt;Node7 -->
<g id="edge6" class="edge">
<title>Node3&#45;&gt;Node7</title>
<path fill="none" stroke="midnightblue" d="M282.16,-56.08C283.08,-48.93 284.42,-38.64 285.58,-29.69"/>
<polygon fill="midnightblue" stroke="midnightblue" points="289.05,-30.12 286.87,-19.75 282.11,-29.22 289.05,-30.12"/>
</g>
<!-- Node8 -->
<g id="node8" class="node">
<title>Node8</title>
<g id="a_node8"><a xlink:title=" ">
<polygon fill="white" stroke="#bfbfbf" points="0,-0.5 0,-19.5 38,-19.5 38,-0.5 0,-0.5"/>
<text text-anchor="middle" x="19" y="-7.5" font-family="Helvetica,sans-Serif" font-size="10.00">map</text>
</a>
</g>
</g>
<!-- Node3&#45;&gt;Node8 -->
<g id="edge7" class="edge">
<title>Node3&#45;&gt;Node8</title>
<path fill="none" stroke="midnightblue" d="M226.68,-56.47C181.23,-48.9 114.53,-36.79 48,-20.01"/>
<polygon fill="midnightblue" stroke="midnightblue" points="48.75,-16.59 38.19,-17.51 47.01,-23.37 48.75,-16.59"/>
</g>
<!-- Node9 -->
<g id="node9" class="node">
<title>Node9</title>
<g id="a_node9"><a xlink:href="../../d9/d49/types_8h.html" target="_top" xlink:title="Declares common types used in the ajabase library.">
<polygon fill="white" stroke="black" points="56,-0.5 56,-19.5 196,-19.5 196,-0.5 56,-0.5"/>
<text text-anchor="middle" x="126" y="-7.5" font-family="Helvetica,sans-Serif" font-size="10.00">ajabase/common/types.h</text>
</a>
</g>
</g>
<!-- Node3&#45;&gt;Node9 -->
<g id="edge8" class="edge">
<title>Node3&#45;&gt;Node9</title>
<path fill="none" stroke="midnightblue" d="M256.44,-56.44C230.48,-47.4 189.33,-33.06 160.2,-22.92"/>
<polygon fill="midnightblue" stroke="midnightblue" points="161.04,-19.5 150.45,-19.52 158.74,-26.11 161.04,-19.5"/>
</g>
<!-- Node10&#45;&gt;Node4 -->
<g id="edge10" class="edge">
<title>Node10&#45;&gt;Node4</title>
<path fill="none" stroke="midnightblue" d="M501.3,-56.44C482.06,-47.64 451.85,-33.81 429.8,-23.72"/>
<polygon fill="midnightblue" stroke="midnightblue" points="431.16,-20.5 420.61,-19.52 428.25,-26.86 431.16,-20.5"/>
</g>
<!-- Node10&#45;&gt;Node5 -->
<g id="edge12" class="edge">
<title>Node10&#45;&gt;Node5</title>
<path fill="none" stroke="midnightblue" d="M519.01,-56.08C518.21,-48.93 517.07,-38.64 516.08,-29.69"/>
<polygon fill="midnightblue" stroke="midnightblue" points="519.56,-29.3 514.97,-19.75 512.6,-30.08 519.56,-29.3"/>
</g>
<!-- Node10&#45;&gt;Node7 -->
<g id="edge13" class="edge">
<title>Node10&#45;&gt;Node7</title>
<path fill="none" stroke="midnightblue" d="M479.86,-56.46C441.62,-48.21 382.23,-35.08 321.51,-20.04"/>
<polygon fill="midnightblue" stroke="midnightblue" points="322.31,-16.64 311.76,-17.61 320.62,-23.43 322.31,-16.64"/>
</g>
<!-- Node11 -->
<g id="node11" class="node">
<title>Node11</title>
<g id="a_node11"><a xlink:title=" ">
<polygon fill="white" stroke="#bfbfbf" points="554,-0.5 554,-19.5 586,-19.5 586,-0.5 554,-0.5"/>
<text text-anchor="middle" x="570" y="-7.5" font-family="Helvetica,sans-Serif" font-size="10.00">set</text>
</a>
</g>
</g>
<!-- Node10&#45;&gt;Node11 -->
<g id="edge11" class="edge">
<title>Node10&#45;&gt;Node11</title>
<path fill="none" stroke="midnightblue" d="M528.26,-56.08C535.46,-48.3 546.11,-36.8 554.85,-27.37"/>
<polygon fill="midnightblue" stroke="midnightblue" points="557.67,-29.47 561.9,-19.75 552.53,-24.71 557.67,-29.47"/>
</g>
<!-- Node12 -->
<g id="node12" class="node">
<title>Node12</title>
<g id="a_node12"><a xlink:title=" ">
<polygon fill="white" stroke="#bfbfbf" points="604,-0.5 604,-19.5 654,-19.5 654,-0.5 604,-0.5"/>
<text text-anchor="middle" x="629" y="-7.5" font-family="Helvetica,sans-Serif" font-size="10.00">cstdint</text>
</a>
</g>
</g>
<!-- Node10&#45;&gt;Node12 -->
<g id="edge14" class="edge">
<title>Node10&#45;&gt;Node12</title>
<path fill="none" stroke="midnightblue" d="M537.51,-56.32C555.07,-47.62 582.33,-34.12 602.53,-24.11"/>
<polygon fill="midnightblue" stroke="midnightblue" points="604.12,-27.23 611.53,-19.65 601.02,-20.96 604.12,-27.23"/>
</g>
<!-- Node13&#45;&gt;Node3 -->
<g id="edge16" class="edge">
<title>Node13&#45;&gt;Node3</title>
<path fill="none" stroke="midnightblue" d="M397.13,-112.44C374.22,-103.48 338.02,-89.31 312.13,-79.18"/>
<polygon fill="midnightblue" stroke="midnightblue" points="313.35,-75.9 302.76,-75.52 310.8,-82.42 313.35,-75.9"/>
</g>
<!-- Node13&#45;&gt;Node5 -->
<g id="edge17" class="edge">
<title>Node13&#45;&gt;Node5</title>
<path fill="none" stroke="midnightblue" d="M418.87,-112.08C419.12,-98.61 421.37,-72.87 434,-56 446.05,-39.9 465.67,-28.73 482.46,-21.55"/>
<polygon fill="midnightblue" stroke="midnightblue" points="483.95,-24.73 491.94,-17.78 481.36,-18.23 483.95,-24.73"/>
</g>
</g>
</svg>
        <g id="navigator" transform="translate(0 0)" fill="#404254">
                <rect fill="#f2f5e9" fill-opacity="0.5" stroke="#606060" stroke-width=".5" x="0" y="0" width="60" height="60"/>
                <use id="zoomplus" xlink:href="#zoomPlus" x="17" y="9" onmousedown="handleZoom(evt,'in')"/>
                <use id="zoomminus" xlink:href="#zoomMin" x="42" y="9" onmousedown="handleZoom(evt,'out')"/>
                <use id="reset" xlink:href="#resetDef" x="30" y="36" onmousedown="handleReset()"/>
                <g id="arrowUp" xlink:href="#dirArrow" transform="translate(30 24)" onmousedown="handlePan(0,-1)">
                  <use xlink:href="#rim" fill="#404040">
                        <set attributeName="fill" to="#808080" begin="arrowUp.mouseover" end="arrowUp.mouseout"/>
                  </use>
                  <path fill="none" stroke="white" stroke-width="1.5" d="M0,-3.0v7 M-2.5,-0.5L0,-3.0L2.5,-0.5"/>
                </g>
                <g id="arrowRight" xlink:href="#dirArrow" transform="rotate(90) translate(36 -43)" onmousedown="handlePan(1,0)">
                  <use xlink:href="#rim" fill="#404040">
                        <set attributeName="fill" to="#808080" begin="arrowRight.mouseover" end="arrowRight.mouseout"/>
                  </use>
                  <path fill="none" stroke="white" stroke-width="1.5" d="M0,-3.0v7 M-2.5,-0.5L0,-3.0L2.5,-0.5"/>
                </g>
                <g id="arrowDown" xlink:href="#dirArrow" transform="rotate(180) translate(-30 -48)" onmousedown="handlePan(0,1)">
                  <use xlink:href="#rim" fill="#404040">
                        <set attributeName="fill" to="#808080" begin="arrowDown.mouseover" end="arrowDown.mouseout"/>
                  </use>
                  <path fill="none" stroke="white" stroke-width="1.5" d="M0,-3.0v7 M-2.5,-0.5L0,-3.0L2.5,-0.5"/>
                </g>
                <g id="arrowLeft" xlink:href="#dirArrow" transform="rotate(270) translate(-36 17)" onmousedown="handlePan(-1,0)">
                  <use xlink:href="#rim" fill="#404040">
                        <set attributeName="fill" to="#808080" begin="arrowLeft.mouseover" end="arrowLeft.mouseout"/>
                  </use>
                  <path fill="none" stroke="white" stroke-width="1.5" d="M0,-3.0v7 M-2.5,-0.5L0,-3.0L2.5,-0.5"/>
                </g>
        </g>
        <svg viewBox="0 0 15 15" width="100%" height="30px" preserveAspectRatio="xMaxYMin meet">
         <g id="arrow_out" transform="scale(0.3 0.3)">
          <a xlink:href="linux_2eventimpl_8h__incl_org.svg" target="_base">
           <rect id="button" ry="5" rx="5" y="6" x="6" height="38" width="38"
                fill="#f2f5e9" fill-opacity="0.5" stroke="#606060" stroke-width="1.0"/>
           <path id="arrow"
             d="M 11.500037,31.436501 C 11.940474,20.09759 22.043105,11.32322 32.158766,21.979434 L 37.068811,17.246167 C 37.068811,17.246167 37.088388,32 37.088388,32 L 22.160133,31.978069 C 22.160133,31.978069 26.997745,27.140456 26.997745,27.140456 C 18.528582,18.264221 13.291696,25.230495 11.500037,31.436501 z"
             style="fill:#404040;"/>
          </a>
         </g>
        </svg>
</svg>
