<?xml version="1.0" encoding="UTF-8" standalone="no"?>
<!DOCTYPE svg PUBLIC "-//W3C//DTD SVG 1.1//EN"
 "http://www.w3.org/Graphics/SVG/1.1/DTD/svg11.dtd">
<!-- Generated by graphviz version 2.40.1 (0)
 -->
<!-- Title: /home/tcbuilder/buildAgent/work/df8e8cce5bebfd58/libajantv2/ajantv2/src/ntv2debug.cpp Pages: 1 -->
<svg width="775pt" height="274pt"
 viewBox="0.00 0.00 775.00 274.00" xmlns="http://www.w3.org/2000/svg" xmlns:xlink="http://www.w3.org/1999/xlink">
<g id="graph0" class="graph" transform="scale(1 1) rotate(0) translate(4 270)">
<title>/home/tcbuilder/buildAgent/work/df8e8cce5bebfd58/libajantv2/ajantv2/src/ntv2debug.cpp</title>
<polygon fill="#ffffff" stroke="transparent" points="-4,4 -4,-270 771,-270 771,4 -4,4"/>
<!-- Node0 -->
<g id="node1" class="node">
<title>Node0</title>
<polygon fill="#bfbfbf" stroke="#000000" points="439,-224.5 439,-265.5 606,-265.5 606,-224.5 439,-224.5"/>
<text text-anchor="start" x="447" y="-253.5" font-family="Helvetica,sans-Serif" font-size="10.00" fill="#000000">/home/tcbuilder/buildAgent</text>
<text text-anchor="start" x="447" y="-242.5" font-family="Helvetica,sans-Serif" font-size="10.00" fill="#000000">/work/df8e8cce5bebfd58/libajantv2</text>
<text text-anchor="middle" x="522.5" y="-231.5" font-family="Helvetica,sans-Serif" font-size="10.00" fill="#000000">/ajantv2/src/ntv2debug.cpp</text>
</g>
<!-- Node1 -->
<g id="node2" class="node">
<title>Node1</title>
<g id="a_node2"><a xlink:href="../../d4/dd7/ntv2publicinterface_8h.html" target="_top" xlink:title="Declares enums and structs used by all platform drivers and the SDK. ">
<polygon fill="#ffffff" stroke="#000000" points="322,-168.5 322,-187.5 429,-187.5 429,-168.5 322,-168.5"/>
<text text-anchor="middle" x="375.5" y="-175.5" font-family="Helvetica,sans-Serif" font-size="10.00" fill="#000000">ntv2publicinterface.h</text>
</a>
</g>
</g>
<!-- Node0&#45;&gt;Node1 -->
<g id="edge1" class="edge">
<title>Node0&#45;&gt;Node1</title>
<path fill="none" stroke="#191970" d="M477.1957,-224.3511C454.037,-213.7958 426.4765,-201.2342 405.8923,-191.8523"/>
<polygon fill="#191970" stroke="#191970" points="407.2336,-188.6172 396.6826,-187.6546 404.3304,-194.9868 407.2336,-188.6172"/>
</g>
<!-- Node17 -->
<g id="node18" class="node">
<title>Node17</title>
<g id="a_node18"><a xlink:href="../../d7/dc7/ntv2debug_8h.html" target="_top" xlink:title="ntv2debug.h">
<polygon fill="#ffffff" stroke="#000000" points="685.5,-168.5 685.5,-187.5 755.5,-187.5 755.5,-168.5 685.5,-168.5"/>
<text text-anchor="middle" x="720.5" y="-175.5" font-family="Helvetica,sans-Serif" font-size="10.00" fill="#000000">ntv2debug.h</text>
</a>
</g>
</g>
<!-- Node0&#45;&gt;Node17 -->
<g id="edge21" class="edge">
<title>Node0&#45;&gt;Node17</title>
<path fill="none" stroke="#191970" d="M583.2521,-224.4425C615.6503,-213.4795 654.5063,-200.3312 682.5922,-190.8274"/>
<polygon fill="#191970" stroke="#191970" points="684.0699,-194.0224 692.4204,-187.5017 681.8261,-187.3917 684.0699,-194.0224"/>
</g>
<!-- Node2 -->
<g id="node3" class="node">
<title>Node2</title>
<g id="a_node3"><a xlink:href="../../db/de2/ajatypes_8h.html" target="_top" xlink:title="Declares the most fundamental data types used by NTV2. Since Windows NT was the first principal devel...">
<polygon fill="#ffffff" stroke="#000000" points="537.5,-56.5 537.5,-75.5 599.5,-75.5 599.5,-56.5 537.5,-56.5"/>
<text text-anchor="middle" x="568.5" y="-63.5" font-family="Helvetica,sans-Serif" font-size="10.00" fill="#000000">ajatypes.h</text>
</a>
</g>
</g>
<!-- Node1&#45;&gt;Node2 -->
<g id="edge2" class="edge">
<title>Node1&#45;&gt;Node2</title>
<path fill="none" stroke="#191970" d="M426.0063,-168.4303C466.9835,-159.816 520.6208,-146.338 537.5,-132 551.6302,-119.9971 559.7387,-100.1271 564.0909,-85.3196"/>
<polygon fill="#191970" stroke="#191970" points="567.4842,-86.1772 566.6284,-75.617 560.712,-84.406 567.4842,-86.1772"/>
</g>
<!-- Node5 -->
<g id="node6" class="node">
<title>Node5</title>
<g id="a_node6"><a xlink:href="../../d6/d0c/ntv2enums_8h.html" target="_top" xlink:title="Enumerations for controlling NTV2 devices. ">
<polygon fill="#ffffff" stroke="#000000" points="633,-112.5 633,-131.5 706,-131.5 706,-112.5 633,-112.5"/>
<text text-anchor="middle" x="669.5" y="-119.5" font-family="Helvetica,sans-Serif" font-size="10.00" fill="#000000">ntv2enums.h</text>
</a>
</g>
</g>
<!-- Node1&#45;&gt;Node5 -->
<g id="edge5" class="edge">
<title>Node1&#45;&gt;Node5</title>
<path fill="none" stroke="#191970" d="M429.2904,-168.5136C477.4248,-159.9134 550.1654,-146.6442 623.0475,-132.0448"/>
<polygon fill="#191970" stroke="#191970" points="623.7494,-135.4738 632.8629,-130.0706 622.3691,-128.6112 623.7494,-135.4738"/>
</g>
<!-- Node7 -->
<g id="node8" class="node">
<title>Node7</title>
<g id="a_node8"><a xlink:href="../../d6/dd9/ajaexport_8h.html" target="_top" xlink:title="Defines the import/export macros for producing DLLs or LIBs. ">
<polygon fill="#ffffff" stroke="#000000" points="702,-.5 702,-19.5 767,-19.5 767,-.5 702,-.5"/>
<text text-anchor="middle" x="734.5" y="-7.5" font-family="Helvetica,sans-Serif" font-size="10.00" fill="#000000">ajaexport.h</text>
</a>
</g>
</g>
<!-- Node1&#45;&gt;Node7 -->
<g id="edge18" class="edge">
<title>Node1&#45;&gt;Node7</title>
<path fill="none" stroke="#191970" d="M429.0461,-174.2451C519.659,-167.385 695.4005,-151.7011 715.5,-132 742.6916,-105.3474 741.2966,-56.9467 737.8938,-29.8088"/>
<polygon fill="#191970" stroke="#191970" points="741.3108,-28.9883 736.39,-19.6055 734.3856,-30.009 741.3108,-28.9883"/>
</g>
<!-- Node8 -->
<g id="node9" class="node">
<title>Node8</title>
<polygon fill="#ffffff" stroke="#bfbfbf" points="344,-.5 344,-19.5 385,-19.5 385,-.5 344,-.5"/>
<text text-anchor="middle" x="364.5" y="-7.5" font-family="Helvetica,sans-Serif" font-size="10.00" fill="#000000">string</text>
</g>
<!-- Node1&#45;&gt;Node8 -->
<g id="edge14" class="edge">
<title>Node1&#45;&gt;Node8</title>
<path fill="none" stroke="#191970" d="M364.6452,-168.2679C355.9657,-159.7019 344.4583,-146.3808 339.5,-132 327.2904,-96.5879 343.0567,-53.2305 354.5251,-28.9007"/>
<polygon fill="#191970" stroke="#191970" points="357.7723,-30.2307 359.0829,-19.7172 351.5021,-27.1187 357.7723,-30.2307"/>
</g>
<!-- Node9 -->
<g id="node10" class="node">
<title>Node9</title>
<polygon fill="#ffffff" stroke="#bfbfbf" points="348.5,-112.5 348.5,-131.5 402.5,-131.5 402.5,-112.5 348.5,-112.5"/>
<text text-anchor="middle" x="375.5" y="-119.5" font-family="Helvetica,sans-Serif" font-size="10.00" fill="#000000">iostream</text>
</g>
<!-- Node1&#45;&gt;Node9 -->
<g id="edge10" class="edge">
<title>Node1&#45;&gt;Node9</title>
<path fill="none" stroke="#191970" d="M375.5,-168.2455C375.5,-160.9382 375.5,-150.6944 375.5,-141.7046"/>
<polygon fill="#191970" stroke="#191970" points="379.0001,-141.6426 375.5,-131.6427 372.0001,-141.6427 379.0001,-141.6426"/>
</g>
<!-- Node10 -->
<g id="node11" class="node">
<title>Node10</title>
<polygon fill="#ffffff" stroke="#bfbfbf" points="584.5,-112.5 584.5,-131.5 614.5,-131.5 614.5,-112.5 584.5,-112.5"/>
<text text-anchor="middle" x="599.5" y="-119.5" font-family="Helvetica,sans-Serif" font-size="10.00" fill="#000000">set</text>
</g>
<!-- Node1&#45;&gt;Node10 -->
<g id="edge11" class="edge">
<title>Node1&#45;&gt;Node10</title>
<path fill="none" stroke="#191970" d="M421.9373,-168.4206C461.6606,-159.8994 520.2167,-146.5605 570.5,-132 571.7661,-131.6334 573.0584,-131.2442 574.3601,-130.8402"/>
<polygon fill="#191970" stroke="#191970" points="575.8389,-134.0381 584.2405,-127.5833 573.6474,-127.3899 575.8389,-134.0381"/>
</g>
<!-- Node11 -->
<g id="node12" class="node">
<title>Node11</title>
<polygon fill="#ffffff" stroke="#bfbfbf" points="0,-112.5 0,-131.5 35,-131.5 35,-112.5 0,-112.5"/>
<text text-anchor="middle" x="17.5" y="-119.5" font-family="Helvetica,sans-Serif" font-size="10.00" fill="#000000">map</text>
</g>
<!-- Node1&#45;&gt;Node11 -->
<g id="edge12" class="edge">
<title>Node1&#45;&gt;Node11</title>
<path fill="none" stroke="#191970" d="M321.7906,-174.1327C257.805,-168.7316 147.723,-156.9311 44.9654,-131.6133"/>
<polygon fill="#191970" stroke="#191970" points="45.5972,-128.1633 35.0457,-129.1207 43.8913,-134.9523 45.5972,-128.1633"/>
</g>
<!-- Node12 -->
<g id="node13" class="node">
<title>Node12</title>
<polygon fill="#ffffff" stroke="#bfbfbf" points="53.5,-112.5 53.5,-131.5 97.5,-131.5 97.5,-112.5 53.5,-112.5"/>
<text text-anchor="middle" x="75.5" y="-119.5" font-family="Helvetica,sans-Serif" font-size="10.00" fill="#000000">vector</text>
</g>
<!-- Node1&#45;&gt;Node12 -->
<g id="edge13" class="edge">
<title>Node1&#45;&gt;Node12</title>
<path fill="none" stroke="#191970" d="M321.9572,-171.1397C269.5763,-163.9152 187.4325,-151.2234 107.9264,-132.0854"/>
<polygon fill="#191970" stroke="#191970" points="108.2872,-128.5706 97.742,-129.5944 106.6241,-135.3702 108.2872,-128.5706"/>
</g>
<!-- Node13 -->
<g id="node14" class="node">
<title>Node13</title>
<polygon fill="#ffffff" stroke="#bfbfbf" points="115.5,-112.5 115.5,-131.5 165.5,-131.5 165.5,-112.5 115.5,-112.5"/>
<text text-anchor="middle" x="140.5" y="-119.5" font-family="Helvetica,sans-Serif" font-size="10.00" fill="#000000">iomanip</text>
</g>
<!-- Node1&#45;&gt;Node13 -->
<g id="edge15" class="edge">
<title>Node1&#45;&gt;Node13</title>
<path fill="none" stroke="#191970" d="M330.2044,-168.4615C291.495,-160.1241 234.1127,-147.327 175.5005,-132.1545"/>
<polygon fill="#191970" stroke="#191970" points="176.2629,-128.7363 165.7032,-129.5988 174.496,-135.5097 176.2629,-128.7363"/>
</g>
<!-- Node14 -->
<g id="node15" class="node">
<title>Node14</title>
<polygon fill="#ffffff" stroke="#bfbfbf" points="184,-112.5 184,-131.5 225,-131.5 225,-112.5 184,-112.5"/>
<text text-anchor="middle" x="204.5" y="-119.5" font-family="Helvetica,sans-Serif" font-size="10.00" fill="#000000">bitset</text>
</g>
<!-- Node1&#45;&gt;Node14 -->
<g id="edge16" class="edge">
<title>Node1&#45;&gt;Node14</title>
<path fill="none" stroke="#191970" d="M345.5276,-168.4708C318.7187,-159.9078 278.1178,-146.8427 234.6817,-132.3594"/>
<polygon fill="#191970" stroke="#191970" points="235.6727,-129.0003 225.0789,-129.1495 233.4535,-135.6392 235.6727,-129.0003"/>
</g>
<!-- Node15 -->
<g id="node16" class="node">
<title>Node15</title>
<polygon fill="#ffffff" stroke="#bfbfbf" points="243,-112.5 243,-131.5 292,-131.5 292,-112.5 243,-112.5"/>
<text text-anchor="middle" x="267.5" y="-119.5" font-family="Helvetica,sans-Serif" font-size="10.00" fill="#000000">string.h</text>
</g>
<!-- Node1&#45;&gt;Node15 -->
<g id="edge17" class="edge">
<title>Node1&#45;&gt;Node15</title>
<path fill="none" stroke="#191970" d="M356.6878,-168.2455C339.6527,-159.4125 314.3425,-146.2887 295.0319,-136.2758"/>
<polygon fill="#191970" stroke="#191970" points="296.5853,-133.1388 286.0966,-131.6427 293.363,-139.353 296.5853,-133.1388"/>
</g>
<!-- Node16 -->
<g id="node17" class="node">
<title>Node16</title>
<g id="a_node17"><a xlink:href="../../da/df0/ntv2virtualregisters_8h.html" target="_top" xlink:title="Declares enums for virtual registers used in all platform drivers and the SDK. ">
<polygon fill="#ffffff" stroke="#000000" points="421,-112.5 421,-131.5 528,-131.5 528,-112.5 421,-112.5"/>
<text text-anchor="middle" x="474.5" y="-119.5" font-family="Helvetica,sans-Serif" font-size="10.00" fill="#000000">ntv2virtualregisters.h</text>
</a>
</g>
</g>
<!-- Node1&#45;&gt;Node16 -->
<g id="edge19" class="edge">
<title>Node1&#45;&gt;Node16</title>
<path fill="none" stroke="#191970" d="M392.7445,-168.2455C408.0761,-159.5731 430.7199,-146.7645 448.2916,-136.825"/>
<polygon fill="#191970" stroke="#191970" points="450.4724,-139.6126 457.4531,-131.6427 447.0259,-133.5198 450.4724,-139.6126"/>
</g>
<!-- Node3 -->
<g id="node4" class="node">
<title>Node3</title>
<g id="a_node4"><a xlink:href="../../db/d40/ntv2deprecate_8h.html" target="_top" xlink:title="Deprecation control macros. ">
<polygon fill="#ffffff" stroke="#000000" points="555.5,-.5 555.5,-19.5 641.5,-19.5 641.5,-.5 555.5,-.5"/>
<text text-anchor="middle" x="598.5" y="-7.5" font-family="Helvetica,sans-Serif" font-size="10.00" fill="#000000">ntv2deprecate.h</text>
</a>
</g>
</g>
<!-- Node2&#45;&gt;Node3 -->
<g id="edge3" class="edge">
<title>Node2&#45;&gt;Node3</title>
<path fill="none" stroke="#191970" d="M573.7256,-56.2455C577.8123,-48.617 583.6135,-37.7881 588.575,-28.5267"/>
<polygon fill="#191970" stroke="#191970" points="591.6972,-30.1103 593.3343,-19.6427 585.5268,-26.8047 591.6972,-30.1103"/>
</g>
<!-- Node4 -->
<g id="node5" class="node">
<title>Node4</title>
<polygon fill="#ffffff" stroke="#bfbfbf" points="488,-.5 488,-19.5 537,-19.5 537,-.5 488,-.5"/>
<text text-anchor="middle" x="512.5" y="-7.5" font-family="Helvetica,sans-Serif" font-size="10.00" fill="#000000">stdint.h</text>
</g>
<!-- Node2&#45;&gt;Node4 -->
<g id="edge4" class="edge">
<title>Node2&#45;&gt;Node4</title>
<path fill="none" stroke="#191970" d="M558.7455,-56.2455C550.6352,-48.1352 538.9075,-36.4075 529.2919,-26.7919"/>
<polygon fill="#191970" stroke="#191970" points="531.6887,-24.2389 522.1427,-19.6427 526.7389,-29.1887 531.6887,-24.2389"/>
</g>
<!-- Node5&#45;&gt;Node2 -->
<g id="edge6" class="edge">
<title>Node5&#45;&gt;Node2</title>
<path fill="none" stroke="#191970" d="M651.9071,-112.2455C636.121,-103.4928 612.7361,-90.527 594.7413,-80.5496"/>
<polygon fill="#191970" stroke="#191970" points="596.3341,-77.4308 585.8913,-75.6427 592.9397,-83.5528 596.3341,-77.4308"/>
</g>
<!-- Node6 -->
<g id="node7" class="node">
<title>Node6</title>
<g id="a_node7"><a xlink:href="../../d6/db1/ntv2version_8h.html" target="_top" xlink:title="Defines for the NTV2 SDK version number, used by ajantv2/includes/ntv2enums.h. See the ajantv2/includ...">
<polygon fill="#ffffff" stroke="#000000" points="631,-56.5 631,-75.5 706,-75.5 706,-56.5 631,-56.5"/>
<text text-anchor="middle" x="668.5" y="-63.5" font-family="Helvetica,sans-Serif" font-size="10.00" fill="#000000">ntv2version.h</text>
</a>
</g>
</g>
<!-- Node5&#45;&gt;Node6 -->
<g id="edge7" class="edge">
<title>Node5&#45;&gt;Node6</title>
<path fill="none" stroke="#191970" d="M669.3258,-112.2455C669.1953,-104.9382 669.0124,-94.6944 668.8519,-85.7046"/>
<polygon fill="#191970" stroke="#191970" points="672.3503,-85.5786 668.6722,-75.6427 665.3514,-85.7036 672.3503,-85.5786"/>
</g>
<!-- Node6&#45;&gt;Node7 -->
<g id="edge8" class="edge">
<title>Node6&#45;&gt;Node7</title>
<path fill="none" stroke="#191970" d="M679.9963,-56.2455C689.7442,-47.9746 703.9259,-35.9416 715.3798,-26.2232"/>
<polygon fill="#191970" stroke="#191970" points="717.7747,-28.7813 723.1354,-19.6427 713.2459,-23.4437 717.7747,-28.7813"/>
</g>
<!-- Node6&#45;&gt;Node8 -->
<g id="edge9" class="edge">
<title>Node6&#45;&gt;Node8</title>
<path fill="none" stroke="#191970" d="M630.9187,-59.0771C570.1781,-47.8881 451.5775,-26.0406 395.4105,-15.694"/>
<polygon fill="#191970" stroke="#191970" points="395.8296,-12.2124 385.361,-13.8428 394.5614,-19.0966 395.8296,-12.2124"/>
</g>
<!-- Node16&#45;&gt;Node2 -->
<g id="edge20" class="edge">
<title>Node16&#45;&gt;Node2</title>
<path fill="none" stroke="#191970" d="M490.8736,-112.2455C505.4308,-103.5731 526.931,-90.7645 543.6152,-80.825"/>
<polygon fill="#191970" stroke="#191970" points="545.5144,-83.7676 552.3141,-75.6427 541.9317,-77.7539 545.5144,-83.7676"/>
</g>
<!-- Node17&#45;&gt;Node2 -->
<g id="edge23" class="edge">
<title>Node17&#45;&gt;Node2</title>
<path fill="none" stroke="#191970" d="M722.8425,-168.2845C725.6135,-154.2437 728.37,-128.1925 715.5,-112 702.2117,-95.2812 648.2796,-81.5178 609.5947,-73.5304"/>
<polygon fill="#191970" stroke="#191970" points="610.1223,-70.0665 599.629,-71.5294 608.7443,-76.9295 610.1223,-70.0665"/>
</g>
<!-- Node17&#45;&gt;Node5 -->
<g id="edge24" class="edge">
<title>Node17&#45;&gt;Node5</title>
<path fill="none" stroke="#191970" d="M711.6165,-168.2455C704.3034,-160.2155 693.7609,-148.6394 685.0533,-139.0781"/>
<polygon fill="#191970" stroke="#191970" points="687.6028,-136.6795 678.2817,-131.6427 682.4273,-141.3928 687.6028,-136.6795"/>
</g>
<!-- Node17&#45;&gt;Node7 -->
<g id="edge22" class="edge">
<title>Node17&#45;&gt;Node7</title>
<path fill="none" stroke="#191970" d="M725.2803,-168.294C734.8234,-147.7638 754.801,-98.3443 748.5,-56 747.1673,-47.0439 744.4506,-37.419 741.7619,-29.3"/>
<polygon fill="#191970" stroke="#191970" points="744.9936,-27.9402 738.3624,-19.6772 738.3933,-30.272 744.9936,-27.9402"/>
</g>
</g>
</svg>
