<?xml version="1.0" encoding="UTF-8" standalone="no"?>
<!DOCTYPE svg PUBLIC "-//W3C//DTD SVG 1.1//EN"
 "http://www.w3.org/Graphics/SVG/1.1/DTD/svg11.dtd">
<!-- Generated by graphviz version 2.43.0 (0)
 -->
<!-- Title: CNTV2KonaFlashProgram Pages: 1 -->
<!--zoomable 364 -->
<svg id="main" version="1.1" xmlns="http://www.w3.org/2000/svg" xmlns:xlink="http://www.w3.org/1999/xlink" xml:space="preserve" onload="init(evt)">
<style type="text/css"><![CDATA[
.edge:hover path { stroke: red; }
.edge:hover polygon { stroke: red; fill: red; }
]]></style>
<script type="text/javascript"><![CDATA[
var edges = document.getElementsByTagName('g');
if (edges && edges.length) {
  for (var i=0;i<edges.length;i++) {
    if (edges[i].id.substr(0,4)=='edge') {
      edges[i].setAttribute('class','edge');
    }
  }
}
]]></script>
        <defs>
                <circle id="rim" cx="0" cy="0" r="7"/>
                <circle id="rim2" cx="0" cy="0" r="3.5"/>
                <g id="zoomPlus">
                        <use xlink:href="#rim" fill="#404040">
                                <set attributeName="fill" to="#808080" begin="zoomplus.mouseover" end="zoomplus.mouseout"/>
                        </use>
                        <path d="M-4,0h8M0,-4v8" fill="none" stroke="white" stroke-width="1.5" pointer-events="none"/>
                </g>
                <g id="zoomMin">
                        <use xlink:href="#rim" fill="#404040">
                                <set attributeName="fill" to="#808080" begin="zoomminus.mouseover" end="zoomminus.mouseout"/>
                        </use>
                        <path d="M-4,0h8" fill="none" stroke="white" stroke-width="1.5" pointer-events="none"/>
                </g>
                <g id="dirArrow">
                        <path fill="none" stroke="white" stroke-width="1.5" d="M0,-3.0v7 M-2.5,-0.5L0,-3.0L2.5,-0.5"/>
                </g>
               <g id="resetDef">
                       <use xlink:href="#rim2" fill="#404040">
                               <set attributeName="fill" to="#808080" begin="reset.mouseover" end="reset.mouseout"/>
                       </use>
               </g>
        </defs>

<script type="text/javascript">
var viewWidth = 736;
var viewHeight = 364;
var sectionId = 'dynsection-1';
</script>
<script xlink:href="../../svgpan.js"/>
<svg id="graph" class="graph">
<g id="viewport">
<title>CNTV2KonaFlashProgram</title>
<polygon fill="white" stroke="transparent" points="-4,4 -4,-360 732,-360 732,4 -4,4"/>
<!-- Node1 -->
<g id="node1" class="node">
<title>Node1</title>
<g id="a_node1"><a xlink:title=" ">
<polygon fill="#bfbfbf" stroke="black" points="327,-0.5 327,-19.5 468,-19.5 468,-0.5 327,-0.5"/>
<text text-anchor="middle" x="397.5" y="-7.5" font-family="Helvetica,sans-Serif" font-size="10.00">CNTV2KonaFlashProgram</text>
</a>
</g>
</g>
<!-- Node2 -->
<g id="node2" class="node">
<title>Node2</title>
<g id="a_node2"><a xlink:href="../../d7/dfb/class_c_n_t_v2_card.html" target="_top" xlink:title="I interrogate and control an AJA video/audio capture/playout device.">
<polygon fill="white" stroke="black" points="101.5,-78.5 101.5,-97.5 173.5,-97.5 173.5,-78.5 101.5,-78.5"/>
<text text-anchor="middle" x="137.5" y="-85.5" font-family="Helvetica,sans-Serif" font-size="10.00">CNTV2Card</text>
</a>
</g>
</g>
<!-- Node2&#45;&gt;Node1 -->
<g id="edge1" class="edge">
<title>Node2&#45;&gt;Node1</title>
<path fill="none" stroke="midnightblue" d="M155.85,-72.38C170.97,-61.12 193.43,-46.16 215.5,-38 250.85,-24.93 292.28,-18.17 326.68,-14.69"/>
<polygon fill="midnightblue" stroke="midnightblue" points="153.67,-69.64 147.86,-78.49 157.92,-75.2 153.67,-69.64"/>
</g>
<!-- Node3 -->
<g id="node3" class="node">
<title>Node3</title>
<g id="a_node3"><a xlink:href="../../dc/dfc/class_c_n_t_v2_mac_driver_interface.html" target="_top" xlink:title="A Mac&#45;specific implementation of CNTV2DriverInterface.">
<polygon fill="white" stroke="black" points="32,-145.5 32,-164.5 175,-164.5 175,-145.5 32,-145.5"/>
<text text-anchor="middle" x="103.5" y="-152.5" font-family="Helvetica,sans-Serif" font-size="10.00">CNTV2MacDriverInterface</text>
</a>
</g>
</g>
<!-- Node3&#45;&gt;Node2 -->
<g id="edge2" class="edge">
<title>Node3&#45;&gt;Node2</title>
<path fill="none" stroke="midnightblue" d="M109.77,-135.56C112.19,-129.21 115.18,-122.16 118.5,-116 121.98,-109.54 126.73,-102.79 130.61,-97.66"/>
<polygon fill="midnightblue" stroke="midnightblue" points="106.36,-134.69 106.28,-145.29 112.95,-137.06 106.36,-134.69"/>
</g>
<!-- Node4 -->
<g id="node4" class="node">
<title>Node4</title>
<g id="a_node4"><a xlink:href="../../d0/dbc/class_c_n_t_v2_driver_interface.html" target="_top" xlink:title="I&#39;m the base class that undergirds the platform&#45;specific derived classes (from which CNTV2Card is ult...">
<polygon fill="white" stroke="black" points="42,-202.5 42,-221.5 165,-221.5 165,-202.5 42,-202.5"/>
<text text-anchor="middle" x="103.5" y="-209.5" font-family="Helvetica,sans-Serif" font-size="10.00">CNTV2DriverInterface</text>
</a>
</g>
</g>
<!-- Node4&#45;&gt;Node3 -->
<g id="edge3" class="edge">
<title>Node4&#45;&gt;Node3</title>
<path fill="none" stroke="midnightblue" d="M103.5,-192.12C103.5,-182.82 103.5,-172.06 103.5,-164.71"/>
<polygon fill="midnightblue" stroke="midnightblue" points="100,-192.41 103.5,-202.41 107,-192.41 100,-192.41"/>
</g>
<!-- Node5 -->
<g id="node5" class="node">
<title>Node5</title>
<g id="a_node5"><a xlink:href="../../d2/d94/class_n_t_v2_r_p_c_client_a_p_i.html" target="_top" xlink:title="Base class of objects that can connect to, and operate remote or fake devices. I have three general A...">
<polygon fill="white" stroke="black" points="0,-269.5 0,-288.5 107,-288.5 107,-269.5 0,-269.5"/>
<text text-anchor="middle" x="53.5" y="-276.5" font-family="Helvetica,sans-Serif" font-size="10.00">NTV2RPCClientAPI</text>
</a>
</g>
</g>
<!-- Node5&#45;&gt;Node4 -->
<g id="edge4" class="edge">
<title>Node5&#45;&gt;Node4</title>
<path fill="none" stroke="#9a32cd" stroke-dasharray="5,2" d="M65.61,-261.2C70.48,-254.54 76.18,-246.86 81.5,-240 86.24,-233.88 91.74,-227.13 96.06,-221.91"/>
<polygon fill="#9a32cd" stroke="#9a32cd" points="62.65,-259.31 59.61,-269.46 68.32,-263.42 62.65,-259.31"/>
<text text-anchor="middle" x="106.5" y="-243" font-family="Helvetica,sans-Serif" font-size="10.00"> _pRPCAPI</text>
</g>
<!-- Node6 -->
<g id="node6" class="node">
<title>Node6</title>
<g id="a_node6"><a xlink:href="../../d6/d01/class_n_t_v2_dictionary.html" target="_top" xlink:title="A simple set of zero or more key/value pairs. (New in SDK 16.3)">
<polygon fill="white" stroke="black" points="7,-336.5 7,-355.5 100,-355.5 100,-336.5 7,-336.5"/>
<text text-anchor="middle" x="53.5" y="-343.5" font-family="Helvetica,sans-Serif" font-size="10.00">NTV2Dictionary</text>
</a>
</g>
</g>
<!-- Node6&#45;&gt;Node5 -->
<g id="edge5" class="edge">
<title>Node6&#45;&gt;Node5</title>
<path fill="none" stroke="#9a32cd" stroke-dasharray="5,2" d="M53.5,-326.04C53.5,-313.67 53.5,-298.12 53.5,-288.63"/>
<polygon fill="#9a32cd" stroke="#9a32cd" points="50,-326.23 53.5,-336.23 57,-326.23 50,-326.23"/>
<text text-anchor="middle" x="98" y="-310" font-family="Helvetica,sans-Serif" font-size="10.00"> mConnectParams</text>
</g>
<!-- Node7 -->
<g id="node7" class="node">
<title>Node7</title>
<g id="a_node7"><a xlink:href="../../d9/df4/class_a_j_a_lock.html" target="_top" xlink:title=" ">
<polygon fill="white" stroke="black" points="125.5,-269.5 125.5,-288.5 181.5,-288.5 181.5,-269.5 125.5,-269.5"/>
<text text-anchor="middle" x="153.5" y="-276.5" font-family="Helvetica,sans-Serif" font-size="10.00">AJALock</text>
</a>
</g>
</g>
<!-- Node7&#45;&gt;Node4 -->
<g id="edge6" class="edge">
<title>Node7&#45;&gt;Node4</title>
<path fill="none" stroke="#9a32cd" stroke-dasharray="5,2" d="M144.7,-260.48C141.01,-253.8 136.43,-246.29 131.5,-240 126.26,-233.3 119.39,-226.65 113.77,-221.63"/>
<polygon fill="#9a32cd" stroke="#9a32cd" points="141.65,-262.2 149.41,-269.42 147.84,-258.94 141.65,-262.2"/>
<text text-anchor="middle" x="182.5" y="-243" font-family="Helvetica,sans-Serif" font-size="10.00"> mRegWritesLock</text>
</g>
<!-- Node8 -->
<g id="node8" class="node">
<title>Node8</title>
<g id="a_node8"><a xlink:href="../../d5/dc4/class_n_t_v2_buffer.html" target="_top" xlink:title="A generic user&#45;space buffer object that has an address and a length. Used most often to share an arbi...">
<polygon fill="white" stroke="black" points="193.5,-145.5 193.5,-164.5 265.5,-164.5 265.5,-145.5 193.5,-145.5"/>
<text text-anchor="middle" x="229.5" y="-152.5" font-family="Helvetica,sans-Serif" font-size="10.00">NTV2Buffer</text>
</a>
</g>
</g>
<!-- Node8&#45;&gt;Node1 -->
<g id="edge12" class="edge">
<title>Node8&#45;&gt;Node1</title>
<path fill="none" stroke="#9a32cd" stroke-dasharray="5,2" d="M226.8,-135.33C225.44,-118.65 226.17,-94.39 238.5,-78 263.35,-44.97 307.61,-28.08 343.14,-19.53"/>
<polygon fill="#9a32cd" stroke="#9a32cd" points="223.35,-135.94 227.96,-145.47 230.3,-135.14 223.35,-135.94"/>
<text text-anchor="middle" x="272.5" y="-85.5" font-family="Helvetica,sans-Serif" font-size="10.00"> _bitFileBuffer</text>
</g>
<!-- Node8&#45;&gt;Node2 -->
<g id="edge7" class="edge">
<title>Node8&#45;&gt;Node2</title>
<path fill="none" stroke="#9a32cd" stroke-dasharray="5,2" d="M183.62,-142.91C162.57,-137.37 141.57,-131.01 138.5,-127 132.15,-118.73 133.26,-106.19 135.04,-97.81"/>
<polygon fill="#9a32cd" stroke="#9a32cd" points="183,-146.36 193.55,-145.47 184.74,-139.58 183,-146.36"/>
<text text-anchor="middle" x="177" y="-119" font-family="Helvetica,sans-Serif" font-size="10.00"> NULL_POINTER</text>
</g>
<!-- Node9 -->
<g id="node9" class="node">
<title>Node9</title>
<g id="a_node9"><a xlink:href="../../de/d78/class_c_n_t_v2_m_c_sfile.html" target="_top" xlink:title="Instances of me can parse an MCS file.">
<polygon fill="white" stroke="black" points="315.5,-78.5 315.5,-97.5 401.5,-97.5 401.5,-78.5 315.5,-78.5"/>
<text text-anchor="middle" x="358.5" y="-85.5" font-family="Helvetica,sans-Serif" font-size="10.00">CNTV2MCSfile</text>
</a>
</g>
</g>
<!-- Node9&#45;&gt;Node1 -->
<g id="edge8" class="edge">
<title>Node9&#45;&gt;Node1</title>
<path fill="none" stroke="#9a32cd" stroke-dasharray="5,2" d="M359.59,-68.42C360.8,-58.84 363.31,-47.25 368.5,-38 372.54,-30.8 379.16,-24.42 385.06,-19.67"/>
<polygon fill="#9a32cd" stroke="#9a32cd" points="356.09,-68.21 358.68,-78.48 363.06,-68.84 356.09,-68.21"/>
<text text-anchor="middle" x="391.5" y="-46.5" font-family="Helvetica,sans-Serif" font-size="10.00"> _mcsFile</text>
</g>
<!-- Node10 -->
<g id="node10" class="node">
<title>Node10</title>
<g id="a_node10"><a xlink:title=" ">
<polygon fill="white" stroke="#bfbfbf" points="419.5,-78.5 419.5,-97.5 463.5,-97.5 463.5,-78.5 419.5,-78.5"/>
<text text-anchor="middle" x="441.5" y="-85.5" font-family="Helvetica,sans-Serif" font-size="10.00">string</text>
</a>
</g>
</g>
<!-- Node10&#45;&gt;Node1 -->
<g id="edge9" class="edge">
<title>Node10&#45;&gt;Node1</title>
<path fill="none" stroke="#9a32cd" stroke-dasharray="5,2" d="M431.99,-69.15C426.92,-59.8 420.51,-48.2 414.5,-38 410.9,-31.89 406.65,-25.14 403.3,-19.92"/>
<polygon fill="#9a32cd" stroke="#9a32cd" points="429.06,-71.09 436.87,-78.24 435.22,-67.77 429.06,-71.09"/>
<text text-anchor="middle" x="460.5" y="-52" font-family="Helvetica,sans-Serif" font-size="10.00"> _bitFileName</text>
<text text-anchor="middle" x="460.5" y="-41" font-family="Helvetica,sans-Serif" font-size="10.00">_mcsInfo</text>
</g>
<!-- Node11 -->
<g id="node11" class="node">
<title>Node11</title>
<g id="a_node11"><a xlink:href="../../d6/dc7/class_c_n_t_v2_spi_flash.html" target="_top" xlink:title=" ">
<polygon fill="white" stroke="black" points="482,-78.5 482,-97.5 573,-97.5 573,-78.5 482,-78.5"/>
<text text-anchor="middle" x="527.5" y="-85.5" font-family="Helvetica,sans-Serif" font-size="10.00">CNTV2SpiFlash</text>
</a>
</g>
</g>
<!-- Node11&#45;&gt;Node1 -->
<g id="edge10" class="edge">
<title>Node11&#45;&gt;Node1</title>
<path fill="none" stroke="#9a32cd" stroke-dasharray="5,2" d="M520.84,-68.84C516.11,-58.38 508.78,-45.79 498.5,-38 487.15,-29.39 473.26,-23.52 459.46,-19.52"/>
<polygon fill="#9a32cd" stroke="#9a32cd" points="517.69,-70.39 524.7,-78.34 524.17,-67.76 517.69,-70.39"/>
<text text-anchor="middle" x="540" y="-46.5" font-family="Helvetica,sans-Serif" font-size="10.00"> _spiFlash</text>
</g>
<!-- Node12 -->
<g id="node12" class="node">
<title>Node12</title>
<g id="a_node12"><a xlink:href="../../d6/d3f/class_n_t_v2_bitfile_header_parser.html" target="_top" xlink:title="Knows how to extract information from a bitfile header.">
<polygon fill="white" stroke="black" points="591,-78.5 591,-97.5 728,-97.5 728,-78.5 591,-78.5"/>
<text text-anchor="middle" x="659.5" y="-85.5" font-family="Helvetica,sans-Serif" font-size="10.00">NTV2BitfileHeaderParser</text>
</a>
</g>
</g>
<!-- Node12&#45;&gt;Node1 -->
<g id="edge11" class="edge">
<title>Node12&#45;&gt;Node1</title>
<path fill="none" stroke="#9a32cd" stroke-dasharray="5,2" d="M638.38,-72.96C620.51,-61.75 593.84,-46.55 568.5,-38 536.46,-27.19 499.56,-20.67 468.25,-16.75"/>
<polygon fill="#9a32cd" stroke="#9a32cd" points="636.56,-75.95 646.87,-78.4 640.34,-70.06 636.56,-75.95"/>
<text text-anchor="middle" x="634.5" y="-46.5" font-family="Helvetica,sans-Serif" font-size="10.00"> _parser</text>
</g>
</g>
</svg>
        <g id="navigator" transform="translate(0 0)" fill="#404254">
                <rect fill="#f2f5e9" fill-opacity="0.5" stroke="#606060" stroke-width=".5" x="0" y="0" width="60" height="60"/>
                <use id="zoomplus" xlink:href="#zoomPlus" x="17" y="9" onmousedown="handleZoom(evt,'in')"/>
                <use id="zoomminus" xlink:href="#zoomMin" x="42" y="9" onmousedown="handleZoom(evt,'out')"/>
                <use id="reset" xlink:href="#resetDef" x="30" y="36" onmousedown="handleReset()"/>
                <g id="arrowUp" xlink:href="#dirArrow" transform="translate(30 24)" onmousedown="handlePan(0,-1)">
                  <use xlink:href="#rim" fill="#404040">
                        <set attributeName="fill" to="#808080" begin="arrowUp.mouseover" end="arrowUp.mouseout"/>
                  </use>
                  <path fill="none" stroke="white" stroke-width="1.5" d="M0,-3.0v7 M-2.5,-0.5L0,-3.0L2.5,-0.5"/>
                </g>
                <g id="arrowRight" xlink:href="#dirArrow" transform="rotate(90) translate(36 -43)" onmousedown="handlePan(1,0)">
                  <use xlink:href="#rim" fill="#404040">
                        <set attributeName="fill" to="#808080" begin="arrowRight.mouseover" end="arrowRight.mouseout"/>
                  </use>
                  <path fill="none" stroke="white" stroke-width="1.5" d="M0,-3.0v7 M-2.5,-0.5L0,-3.0L2.5,-0.5"/>
                </g>
                <g id="arrowDown" xlink:href="#dirArrow" transform="rotate(180) translate(-30 -48)" onmousedown="handlePan(0,1)">
                  <use xlink:href="#rim" fill="#404040">
                        <set attributeName="fill" to="#808080" begin="arrowDown.mouseover" end="arrowDown.mouseout"/>
                  </use>
                  <path fill="none" stroke="white" stroke-width="1.5" d="M0,-3.0v7 M-2.5,-0.5L0,-3.0L2.5,-0.5"/>
                </g>
                <g id="arrowLeft" xlink:href="#dirArrow" transform="rotate(270) translate(-36 17)" onmousedown="handlePan(-1,0)">
                  <use xlink:href="#rim" fill="#404040">
                        <set attributeName="fill" to="#808080" begin="arrowLeft.mouseover" end="arrowLeft.mouseout"/>
                  </use>
                  <path fill="none" stroke="white" stroke-width="1.5" d="M0,-3.0v7 M-2.5,-0.5L0,-3.0L2.5,-0.5"/>
                </g>
        </g>
        <svg viewBox="0 0 15 15" width="100%" height="30px" preserveAspectRatio="xMaxYMin meet">
         <g id="arrow_out" transform="scale(0.3 0.3)">
          <a xlink:href="class_c_n_t_v2_kona_flash_program__coll__graph_org.svg" target="_base">
           <rect id="button" ry="5" rx="5" y="6" x="6" height="38" width="38"
                fill="#f2f5e9" fill-opacity="0.5" stroke="#606060" stroke-width="1.0"/>
           <path id="arrow"
             d="M 11.500037,31.436501 C 11.940474,20.09759 22.043105,11.32322 32.158766,21.979434 L 37.068811,17.246167 C 37.068811,17.246167 37.088388,32 37.088388,32 L 22.160133,31.978069 C 22.160133,31.978069 26.997745,27.140456 26.997745,27.140456 C 18.528582,18.264221 13.291696,25.230495 11.500037,31.436501 z"
             style="fill:#404040;"/>
          </a>
         </g>
        </svg>
</svg>
