<?xml version="1.0" encoding="UTF-8" standalone="no"?>
<!DOCTYPE svg PUBLIC "-//W3C//DTD SVG 1.1//EN"
 "http://www.w3.org/Graphics/SVG/1.1/DTD/svg11.dtd">
<!-- Generated by graphviz version 2.43.0 (0)
 -->
<!-- Title: Graphical Class Hierarchy Pages: 1 -->
<svg width="214pt" height="66pt"
 viewBox="0.00 0.00 214.00 66.00" xmlns="http://www.w3.org/2000/svg" xmlns:xlink="http://www.w3.org/1999/xlink">
<g id="graph0" class="graph" transform="scale(1 1) rotate(0) translate(4 62)">
<title>Graphical Class Hierarchy</title>
<polygon fill="white" stroke="transparent" points="-4,4 -4,-62 210,-62 210,4 -4,4"/>
<!-- Node0 -->
<g id="node1" class="node">
<title>Node0</title>
<g id="a_node1"><a xlink:href="da/d16/struct_player_config.html" target="_top" xlink:title="Configures an NTV2Player instance.">
<polygon fill="white" stroke="black" points="0,-19.5 0,-38.5 78,-38.5 78,-19.5 0,-19.5"/>
<text text-anchor="middle" x="39" y="-26.5" font-family="Helvetica,sans-Serif" font-size="10.00">PlayerConfig</text>
</a>
</g>
</g>
<!-- Node1 -->
<g id="node2" class="node">
<title>Node1</title>
<g id="a_node2"><a xlink:href="df/de8/struct_c_c_player_config.html" target="_top" xlink:title="Configures an NTV2CCPlayer instance.">
<polygon fill="white" stroke="black" points="114,-38.5 114,-57.5 206,-57.5 206,-38.5 114,-38.5"/>
<text text-anchor="middle" x="160" y="-45.5" font-family="Helvetica,sans-Serif" font-size="10.00">CCPlayerConfig</text>
</a>
</g>
</g>
<!-- Node0&#45;&gt;Node1 -->
<g id="edge1" class="edge">
<title>Node0&#45;&gt;Node1</title>
<path fill="none" stroke="midnightblue" d="M88.33,-36.72C96.72,-38.06 105.41,-39.44 113.71,-40.77"/>
<polygon fill="midnightblue" stroke="midnightblue" points="88.73,-33.24 78.31,-35.12 87.63,-40.15 88.73,-33.24"/>
</g>
<!-- Node2 -->
<g id="node3" class="node">
<title>Node2</title>
<g id="a_node3"><a xlink:href="de/d40/struct_test_pat_config.html" target="_top" xlink:title="Configures an NTV2OutputTestPattern instance.">
<polygon fill="white" stroke="black" points="119,-0.5 119,-19.5 201,-19.5 201,-0.5 119,-0.5"/>
<text text-anchor="middle" x="160" y="-7.5" font-family="Helvetica,sans-Serif" font-size="10.00">TestPatConfig</text>
</a>
</g>
</g>
<!-- Node0&#45;&gt;Node2 -->
<g id="edge2" class="edge">
<title>Node0&#45;&gt;Node2</title>
<path fill="none" stroke="midnightblue" d="M88.23,-21.3C98.35,-19.68 108.92,-18 118.71,-16.43"/>
<polygon fill="midnightblue" stroke="midnightblue" points="87.63,-17.85 78.31,-22.88 88.73,-24.76 87.63,-17.85"/>
</g>
</g>
</svg>
