<?xml version="1.0" encoding="UTF-8" standalone="no"?>
<!DOCTYPE svg PUBLIC "-//W3C//DTD SVG 1.1//EN"
 "http://www.w3.org/Graphics/SVG/1.1/DTD/svg11.dtd">
<!-- Generated by graphviz version 2.43.0 (0)
 -->
<!-- Title: Graphical Class Hierarchy Pages: 1 -->
<svg width="219pt" height="66pt"
 viewBox="0.00 0.00 219.00 66.00" xmlns="http://www.w3.org/2000/svg" xmlns:xlink="http://www.w3.org/1999/xlink">
<g id="graph0" class="graph" transform="scale(1 1) rotate(0) translate(4 62)">
<title>Graphical Class Hierarchy</title>
<polygon fill="white" stroke="transparent" points="-4,4 -4,-62 215,-62 215,4 -4,4"/>
<!-- Node66 -->
<g id="node1" class="node">
<title>Node66</title>
<g id="a_node1"><a xlink:title=" ">
<polygon fill="white" stroke="#bfbfbf" points="0,-19.5 0,-38.5 58,-38.5 58,-19.5 0,-19.5"/>
<text text-anchor="middle" x="29" y="-26.5" font-family="Helvetica,sans-Serif" font-size="10.00">QThread</text>
</a>
</g>
</g>
<!-- Node0 -->
<g id="node2" class="node">
<title>Node0</title>
<g id="a_node2"><a xlink:href="d0/df4/class_n_t_v2_frame_grabber.html" target="_top" xlink:title="A QThread that captures audio/video from NTV2&#45;compatible AJA devices and uses Qt signals to emit ARGB...">
<polygon fill="white" stroke="black" points="96,-38.5 96,-57.5 209,-57.5 209,-38.5 96,-38.5"/>
<text text-anchor="middle" x="152.5" y="-45.5" font-family="Helvetica,sans-Serif" font-size="10.00">NTV2FrameGrabber</text>
</a>
</g>
</g>
<!-- Node66&#45;&gt;Node0 -->
<g id="edge1" class="edge">
<title>Node66&#45;&gt;Node0</title>
<path fill="none" stroke="midnightblue" d="M68.09,-34.96C76.86,-36.33 86.38,-37.82 95.73,-39.28"/>
<polygon fill="midnightblue" stroke="midnightblue" points="68.6,-31.49 58.18,-33.41 67.52,-38.41 68.6,-31.49"/>
</g>
<!-- Node68 -->
<g id="node3" class="node">
<title>Node68</title>
<g id="a_node3"><a xlink:href="dc/d8d/class_n_t_v2_stream_grabber.html" target="_top" xlink:title="A QThread that captures audio/video from NTV2&#45;compatible AJA devices and uses Qt signals to emit ARGB...">
<polygon fill="white" stroke="black" points="94,-0.5 94,-19.5 211,-19.5 211,-0.5 94,-0.5"/>
<text text-anchor="middle" x="152.5" y="-7.5" font-family="Helvetica,sans-Serif" font-size="10.00">NTV2StreamGrabber</text>
</a>
</g>
</g>
<!-- Node66&#45;&gt;Node68 -->
<g id="edge2" class="edge">
<title>Node66&#45;&gt;Node68</title>
<path fill="none" stroke="midnightblue" d="M68.12,-23.04C76.27,-21.76 85.07,-20.39 93.77,-19.03"/>
<polygon fill="midnightblue" stroke="midnightblue" points="67.52,-19.59 58.18,-24.59 68.6,-26.51 67.52,-19.59"/>
</g>
</g>
</svg>
