<?xml version="1.0" encoding="UTF-8" standalone="no"?>
<!DOCTYPE svg PUBLIC "-//W3C//DTD SVG 1.1//EN"
 "http://www.w3.org/Graphics/SVG/1.1/DTD/svg11.dtd">
<!-- Generated by graphviz version 2.43.0 (0)
 -->
<!-- Title: /home/tcbuilder/buildAgent/work/df8e8cce5bebfd58/libajantv2/ajabase/system/mac/processimpl.cpp Pages: 1 -->
<svg width="672pt" height="285pt"
 viewBox="0.00 0.00 671.50 285.00" xmlns="http://www.w3.org/2000/svg" xmlns:xlink="http://www.w3.org/1999/xlink">
<g id="graph0" class="graph" transform="scale(1 1) rotate(0) translate(4 281)">
<title>/home/tcbuilder/buildAgent/work/df8e8cce5bebfd58/libajantv2/ajabase/system/mac/processimpl.cpp</title>
<polygon fill="white" stroke="transparent" points="-4,4 -4,-281 667.5,-281 667.5,4 -4,4"/>
<!-- Node1 -->
<g id="node1" class="node">
<title>Node1</title>
<g id="a_node1"><a xlink:title="Implements the AJAProcessImpl class on the Mac platform.">
<polygon fill="#bfbfbf" stroke="black" points="419.5,-235.5 419.5,-276.5 622.5,-276.5 622.5,-235.5 419.5,-235.5"/>
<text text-anchor="start" x="427.5" y="-264.5" font-family="Helvetica,sans-Serif" font-size="10.00">/home/tcbuilder/buildAgent</text>
<text text-anchor="start" x="427.5" y="-253.5" font-family="Helvetica,sans-Serif" font-size="10.00">/work/df8e8cce5bebfd58/libajantv2</text>
<text text-anchor="middle" x="521" y="-242.5" font-family="Helvetica,sans-Serif" font-size="10.00">/ajabase/system/mac/processimpl.cpp</text>
</a>
</g>
</g>
<!-- Node2 -->
<g id="node2" class="node">
<title>Node2</title>
<g id="a_node2"><a xlink:href="../../dd/d83/mac_2processimpl_8h.html" target="_top" xlink:title="Declares the AJAProcessImpl class.">
<polygon fill="white" stroke="black" points="250,-168.5 250,-198.5 368,-198.5 368,-168.5 250,-168.5"/>
<text text-anchor="start" x="258" y="-186.5" font-family="Helvetica,sans-Serif" font-size="10.00">ajabase/system/mac</text>
<text text-anchor="middle" x="309" y="-175.5" font-family="Helvetica,sans-Serif" font-size="10.00">/processimpl.h</text>
</a>
</g>
</g>
<!-- Node1&#45;&gt;Node2 -->
<g id="edge1" class="edge">
<title>Node1&#45;&gt;Node2</title>
<path fill="none" stroke="midnightblue" d="M462.23,-235.46C430.49,-224.9 391.66,-211.99 361.03,-201.8"/>
<polygon fill="midnightblue" stroke="midnightblue" points="361.98,-198.43 351.39,-198.6 359.77,-205.07 361.98,-198.43"/>
</g>
<!-- Node15 -->
<g id="node15" class="node">
<title>Node15</title>
<g id="a_node15"><a xlink:href="../../d5/dd0/timer_8h.html" target="_top" xlink:title="Declares the AJATimer class.">
<polygon fill="white" stroke="black" points="452,-174 452,-193 590,-193 590,-174 452,-174"/>
<text text-anchor="middle" x="521" y="-181" font-family="Helvetica,sans-Serif" font-size="10.00">ajabase/common/timer.h</text>
</a>
</g>
</g>
<!-- Node1&#45;&gt;Node15 -->
<g id="edge18" class="edge">
<title>Node1&#45;&gt;Node15</title>
<path fill="none" stroke="midnightblue" d="M521,-235.36C521,-225.3 521,-213.1 521,-203.18"/>
<polygon fill="midnightblue" stroke="midnightblue" points="524.5,-203.17 521,-193.17 517.5,-203.17 524.5,-203.17"/>
</g>
<!-- Node17 -->
<g id="node17" class="node">
<title>Node17</title>
<g id="a_node17"><a xlink:title=" ">
<polygon fill="white" stroke="#bfbfbf" points="608.5,-174 608.5,-193 663.5,-193 663.5,-174 608.5,-174"/>
<text text-anchor="middle" x="636" y="-181" font-family="Helvetica,sans-Serif" font-size="10.00">signal.h</text>
</a>
</g>
</g>
<!-- Node1&#45;&gt;Node17 -->
<g id="edge21" class="edge">
<title>Node1&#45;&gt;Node17</title>
<path fill="none" stroke="midnightblue" d="M553.03,-235.36C572.1,-223.67 595.85,-209.12 613.04,-198.57"/>
<polygon fill="midnightblue" stroke="midnightblue" points="615.16,-201.38 621.85,-193.17 611.5,-195.42 615.16,-201.38"/>
</g>
<!-- Node3 -->
<g id="node3" class="node">
<title>Node3</title>
<g id="a_node3"><a xlink:href="../../dc/db2/system_8h.html" target="_top" xlink:title="System specific functions.">
<polygon fill="white" stroke="black" points="332,-112.5 332,-131.5 474,-131.5 474,-112.5 332,-112.5"/>
<text text-anchor="middle" x="403" y="-119.5" font-family="Helvetica,sans-Serif" font-size="10.00">ajabase/system/system.h</text>
</a>
</g>
</g>
<!-- Node2&#45;&gt;Node3 -->
<g id="edge2" class="edge">
<title>Node2&#45;&gt;Node3</title>
<path fill="none" stroke="midnightblue" d="M331.28,-168.4C346.2,-158.95 365.78,-146.56 380.71,-137.11"/>
<polygon fill="midnightblue" stroke="midnightblue" points="382.74,-139.96 389.32,-131.66 379,-134.05 382.74,-139.96"/>
</g>
<!-- Node11 -->
<g id="node11" class="node">
<title>Node11</title>
<g id="a_node11"><a xlink:href="../../dc/d54/common_8h.html" target="_top" xlink:title="Private include file for all ajabase sources.">
<polygon fill="white" stroke="black" points="64.5,-56.5 64.5,-75.5 219.5,-75.5 219.5,-56.5 64.5,-56.5"/>
<text text-anchor="middle" x="142" y="-63.5" font-family="Helvetica,sans-Serif" font-size="10.00">ajabase/common/common.h</text>
</a>
</g>
</g>
<!-- Node2&#45;&gt;Node11 -->
<g id="edge10" class="edge">
<title>Node2&#45;&gt;Node11</title>
<path fill="none" stroke="midnightblue" d="M249.72,-175.39C219.43,-168.83 184.18,-156.23 161,-132 149.2,-119.66 144.67,-100.41 142.97,-86.06"/>
<polygon fill="midnightblue" stroke="midnightblue" points="146.43,-85.5 142.11,-75.82 139.46,-86.08 146.43,-85.5"/>
</g>
<!-- Node14 -->
<g id="node14" class="node">
<title>Node14</title>
<g id="a_node14"><a xlink:href="../../da/d42/process_8h.html" target="_top" xlink:title="Declares the AJAProcess class.">
<polygon fill="white" stroke="black" points="170.5,-112.5 170.5,-131.5 313.5,-131.5 313.5,-112.5 170.5,-112.5"/>
<text text-anchor="middle" x="242" y="-119.5" font-family="Helvetica,sans-Serif" font-size="10.00">ajabase/system/process.h</text>
</a>
</g>
</g>
<!-- Node2&#45;&gt;Node14 -->
<g id="edge16" class="edge">
<title>Node2&#45;&gt;Node14</title>
<path fill="none" stroke="midnightblue" d="M293.12,-168.4C282.98,-159.4 269.84,-147.72 259.41,-138.47"/>
<polygon fill="midnightblue" stroke="midnightblue" points="261.55,-135.68 251.75,-131.66 256.9,-140.92 261.55,-135.68"/>
</g>
<!-- Node4 -->
<g id="node4" class="node">
<title>Node4</title>
<g id="a_node4"><a xlink:href="../../d4/d79/public_8h.html" target="_top" xlink:title="Master header for the ajabase library.">
<polygon fill="white" stroke="black" points="332,-56.5 332,-75.5 474,-75.5 474,-56.5 332,-56.5"/>
<text text-anchor="middle" x="403" y="-63.5" font-family="Helvetica,sans-Serif" font-size="10.00">ajabase/common/public.h</text>
</a>
</g>
</g>
<!-- Node3&#45;&gt;Node4 -->
<g id="edge3" class="edge">
<title>Node3&#45;&gt;Node4</title>
<path fill="none" stroke="midnightblue" d="M403,-112.08C403,-105.01 403,-94.86 403,-85.99"/>
<polygon fill="midnightblue" stroke="midnightblue" points="406.5,-85.75 403,-75.75 399.5,-85.75 406.5,-85.75"/>
</g>
<!-- Node5 -->
<g id="node5" class="node">
<title>Node5</title>
<g id="a_node5"><a xlink:href="../../db/db5/export_8h.html" target="_top" xlink:title="Declares system&#45;dependent import/export macros and libraries.">
<polygon fill="white" stroke="black" points="184,-0.5 184,-19.5 328,-19.5 328,-0.5 184,-0.5"/>
<text text-anchor="middle" x="256" y="-7.5" font-family="Helvetica,sans-Serif" font-size="10.00">ajabase/common/export.h</text>
</a>
</g>
</g>
<!-- Node4&#45;&gt;Node5 -->
<g id="edge4" class="edge">
<title>Node4&#45;&gt;Node5</title>
<path fill="none" stroke="midnightblue" d="M379.71,-56.44C355.19,-47.44 316.4,-33.19 288.8,-23.05"/>
<polygon fill="midnightblue" stroke="midnightblue" points="289.78,-19.68 279.18,-19.52 287.36,-26.25 289.78,-19.68"/>
</g>
<!-- Node6 -->
<g id="node6" class="node">
<title>Node6</title>
<g id="a_node6"><a xlink:title=" ">
<polygon fill="white" stroke="#bfbfbf" points="346,-0.5 346,-19.5 390,-19.5 390,-0.5 346,-0.5"/>
<text text-anchor="middle" x="368" y="-7.5" font-family="Helvetica,sans-Serif" font-size="10.00">string</text>
</a>
</g>
</g>
<!-- Node4&#45;&gt;Node6 -->
<g id="edge5" class="edge">
<title>Node4&#45;&gt;Node6</title>
<path fill="none" stroke="midnightblue" d="M397.22,-56.08C392.33,-48.53 385.17,-37.49 379.17,-28.23"/>
<polygon fill="midnightblue" stroke="midnightblue" points="382.05,-26.24 373.67,-19.75 376.17,-30.05 382.05,-26.24"/>
</g>
<!-- Node7 -->
<g id="node7" class="node">
<title>Node7</title>
<g id="a_node7"><a xlink:title=" ">
<polygon fill="white" stroke="#bfbfbf" points="408,-0.5 408,-19.5 440,-19.5 440,-0.5 408,-0.5"/>
<text text-anchor="middle" x="424" y="-7.5" font-family="Helvetica,sans-Serif" font-size="10.00">list</text>
</a>
</g>
</g>
<!-- Node4&#45;&gt;Node7 -->
<g id="edge6" class="edge">
<title>Node4&#45;&gt;Node7</title>
<path fill="none" stroke="midnightblue" d="M406.47,-56.08C409.31,-48.77 413.43,-38.18 416.96,-29.1"/>
<polygon fill="midnightblue" stroke="midnightblue" points="420.23,-30.34 420.6,-19.75 413.71,-27.8 420.23,-30.34"/>
</g>
<!-- Node8 -->
<g id="node8" class="node">
<title>Node8</title>
<g id="a_node8"><a xlink:title=" ">
<polygon fill="white" stroke="#bfbfbf" points="118.5,-0.5 118.5,-19.5 165.5,-19.5 165.5,-0.5 118.5,-0.5"/>
<text text-anchor="middle" x="142" y="-7.5" font-family="Helvetica,sans-Serif" font-size="10.00">vector</text>
</a>
</g>
</g>
<!-- Node4&#45;&gt;Node8 -->
<g id="edge7" class="edge">
<title>Node4&#45;&gt;Node8</title>
<path fill="none" stroke="midnightblue" d="M354.3,-56.43C310.16,-48.43 243.12,-35.69 175.69,-20.03"/>
<polygon fill="midnightblue" stroke="midnightblue" points="176.28,-16.57 165.74,-17.69 174.68,-23.38 176.28,-16.57"/>
</g>
<!-- Node9 -->
<g id="node9" class="node">
<title>Node9</title>
<g id="a_node9"><a xlink:title=" ">
<polygon fill="white" stroke="#bfbfbf" points="458,-0.5 458,-19.5 496,-19.5 496,-0.5 458,-0.5"/>
<text text-anchor="middle" x="477" y="-7.5" font-family="Helvetica,sans-Serif" font-size="10.00">map</text>
</a>
</g>
</g>
<!-- Node4&#45;&gt;Node9 -->
<g id="edge8" class="edge">
<title>Node4&#45;&gt;Node9</title>
<path fill="none" stroke="midnightblue" d="M414.89,-56.32C426.15,-48.11 443.29,-35.6 456.71,-25.81"/>
<polygon fill="midnightblue" stroke="midnightblue" points="458.88,-28.56 464.89,-19.83 454.75,-22.9 458.88,-28.56"/>
</g>
<!-- Node10 -->
<g id="node10" class="node">
<title>Node10</title>
<g id="a_node10"><a xlink:href="../../d9/d49/types_8h.html" target="_top" xlink:title="Declares common types used in the ajabase library.">
<polygon fill="white" stroke="black" points="514,-0.5 514,-19.5 654,-19.5 654,-0.5 514,-0.5"/>
<text text-anchor="middle" x="584" y="-7.5" font-family="Helvetica,sans-Serif" font-size="10.00">ajabase/common/types.h</text>
</a>
</g>
</g>
<!-- Node4&#45;&gt;Node10 -->
<g id="edge9" class="edge">
<title>Node4&#45;&gt;Node10</title>
<path fill="none" stroke="midnightblue" d="M431.68,-56.44C462.53,-47.24 511.73,-32.56 545.83,-22.39"/>
<polygon fill="midnightblue" stroke="midnightblue" points="546.87,-25.73 555.45,-19.52 544.87,-19.02 546.87,-25.73"/>
</g>
<!-- Node11&#45;&gt;Node5 -->
<g id="edge11" class="edge">
<title>Node11&#45;&gt;Node5</title>
<path fill="none" stroke="midnightblue" d="M160.06,-56.44C178.57,-47.68 207.58,-33.94 228.86,-23.86"/>
<polygon fill="midnightblue" stroke="midnightblue" points="230.48,-26.96 238.02,-19.52 227.49,-20.63 230.48,-26.96"/>
</g>
<!-- Node11&#45;&gt;Node6 -->
<g id="edge13" class="edge">
<title>Node11&#45;&gt;Node6</title>
<path fill="none" stroke="midnightblue" d="M182.12,-56.43C219.57,-48.27 277.23,-35.33 335.89,-20.19"/>
<polygon fill="midnightblue" stroke="midnightblue" points="336.89,-23.54 345.69,-17.64 335.13,-16.77 336.89,-23.54"/>
</g>
<!-- Node11&#45;&gt;Node8 -->
<g id="edge14" class="edge">
<title>Node11&#45;&gt;Node8</title>
<path fill="none" stroke="midnightblue" d="M142,-56.08C142,-49.01 142,-38.86 142,-29.99"/>
<polygon fill="midnightblue" stroke="midnightblue" points="145.5,-29.75 142,-19.75 138.5,-29.75 145.5,-29.75"/>
</g>
<!-- Node12 -->
<g id="node12" class="node">
<title>Node12</title>
<g id="a_node12"><a xlink:title=" ">
<polygon fill="white" stroke="#bfbfbf" points="0,-0.5 0,-19.5 32,-19.5 32,-0.5 0,-0.5"/>
<text text-anchor="middle" x="16" y="-7.5" font-family="Helvetica,sans-Serif" font-size="10.00">set</text>
</a>
</g>
</g>
<!-- Node11&#45;&gt;Node12 -->
<g id="edge12" class="edge">
<title>Node11&#45;&gt;Node12</title>
<path fill="none" stroke="midnightblue" d="M122.03,-56.44C100.3,-47.13 65.47,-32.2 41.7,-22.02"/>
<polygon fill="midnightblue" stroke="midnightblue" points="42.84,-18.69 32.27,-17.97 40.08,-25.13 42.84,-18.69"/>
</g>
<!-- Node13 -->
<g id="node13" class="node">
<title>Node13</title>
<g id="a_node13"><a xlink:title=" ">
<polygon fill="white" stroke="#bfbfbf" points="50,-0.5 50,-19.5 100,-19.5 100,-0.5 50,-0.5"/>
<text text-anchor="middle" x="75" y="-7.5" font-family="Helvetica,sans-Serif" font-size="10.00">cstdint</text>
</a>
</g>
</g>
<!-- Node11&#45;&gt;Node13 -->
<g id="edge15" class="edge">
<title>Node11&#45;&gt;Node13</title>
<path fill="none" stroke="midnightblue" d="M131.24,-56.32C121.23,-48.26 106.11,-36.08 94.07,-26.37"/>
<polygon fill="midnightblue" stroke="midnightblue" points="95.94,-23.38 85.96,-19.83 91.55,-28.83 95.94,-23.38"/>
</g>
<!-- Node14&#45;&gt;Node4 -->
<g id="edge17" class="edge">
<title>Node14&#45;&gt;Node4</title>
<path fill="none" stroke="midnightblue" d="M267.51,-112.44C294.6,-103.36 337.59,-88.94 367.87,-78.78"/>
<polygon fill="midnightblue" stroke="midnightblue" points="369.24,-82.01 377.61,-75.52 367.01,-75.38 369.24,-82.01"/>
</g>
<!-- Node15&#45;&gt;Node4 -->
<g id="edge20" class="edge">
<title>Node15&#45;&gt;Node4</title>
<path fill="none" stroke="midnightblue" d="M531.72,-173.98C547.73,-160.22 574.46,-132.56 559,-112 547.57,-96.8 504.84,-85.12 466.99,-77.48"/>
<polygon fill="midnightblue" stroke="midnightblue" points="467.47,-74 456.99,-75.52 466.13,-80.87 467.47,-74"/>
</g>
<!-- Node16 -->
<g id="node16" class="node">
<title>Node16</title>
<g id="a_node16"><a xlink:title=" ">
<polygon fill="white" stroke="#bfbfbf" points="492.5,-112.5 492.5,-131.5 549.5,-131.5 549.5,-112.5 492.5,-112.5"/>
<text text-anchor="middle" x="521" y="-119.5" font-family="Helvetica,sans-Serif" font-size="10.00">ostream</text>
</a>
</g>
</g>
<!-- Node15&#45;&gt;Node16 -->
<g id="edge19" class="edge">
<title>Node15&#45;&gt;Node16</title>
<path fill="none" stroke="midnightblue" d="M521,-173.98C521,-165.58 521,-152.48 521,-141.66"/>
<polygon fill="midnightblue" stroke="midnightblue" points="524.5,-141.51 521,-131.51 517.5,-141.51 524.5,-141.51"/>
</g>
</g>
</svg>
