<?xml version="1.0" encoding="UTF-8" standalone="no"?>
<!DOCTYPE svg PUBLIC "-//W3C//DTD SVG 1.1//EN"
 "http://www.w3.org/Graphics/SVG/1.1/DTD/svg11.dtd">
<!-- Generated by graphviz version 2.40.1 (0)
 -->
<!-- Title: CBaseList Pages: 1 -->
<svg width="107pt" height="106pt"
 viewBox="0.00 0.00 107.00 106.00" xmlns="http://www.w3.org/2000/svg" xmlns:xlink="http://www.w3.org/1999/xlink">
<g id="graph0" class="graph" transform="scale(1 1) rotate(0) translate(4 102)">
<title>CBaseList</title>
<polygon fill="#ffffff" stroke="transparent" points="-4,4 -4,-102 103,-102 103,4 -4,4"/>
<!-- Node6 -->
<g id="node1" class="node">
<title>Node6</title>
<polygon fill="#bfbfbf" stroke="#000000" points="18.5,-.5 18.5,-19.5 80.5,-19.5 80.5,-.5 18.5,-.5"/>
<text text-anchor="middle" x="49.5" y="-7.5" font-family="Helvetica,sans-Serif" font-size="10.00" fill="#000000">CBaseList</text>
</g>
<!-- Node7 -->
<g id="node2" class="node">
<title>Node7</title>
<g id="a_node2"><a xlink:href="../../d2/d5c/class_c_base_list_1_1_c_node.html" target="_top" xlink:title="CBaseList::CNode">
<polygon fill="#ffffff" stroke="#000000" points="0,-78.5 0,-97.5 99,-97.5 99,-78.5 0,-78.5"/>
<text text-anchor="middle" x="49.5" y="-85.5" font-family="Helvetica,sans-Serif" font-size="10.00" fill="#000000">CBaseList::CNode</text>
</a>
</g>
</g>
<!-- Node7&#45;&gt;Node6 -->
<g id="edge1" class="edge">
<title>Node7&#45;&gt;Node6</title>
<path fill="none" stroke="#9a32cd" stroke-dasharray="5,2" d="M49.5,-68.2866C49.5,-52.7395 49.5,-31.7276 49.5,-19.6426"/>
<polygon fill="#9a32cd" stroke="#9a32cd" points="46.0001,-68.4356 49.5,-78.4357 53.0001,-68.4357 46.0001,-68.4356"/>
<text text-anchor="middle" x="70.5" y="-52" font-family="Helvetica,sans-Serif" font-size="10.00" fill="#000000"> m_pFirst</text>
<text text-anchor="middle" x="70.5" y="-41" font-family="Helvetica,sans-Serif" font-size="10.00" fill="#000000">m_pLast</text>
</g>
</g>
</svg>
