<?xml version="1.0" encoding="UTF-8" standalone="no"?>
<!DOCTYPE svg PUBLIC "-//W3C//DTD SVG 1.1//EN"
 "http://www.w3.org/Graphics/SVG/1.1/DTD/svg11.dtd">
<!-- Generated by graphviz version 2.40.1 (0)
 -->
<!-- Title: CSystemClock Pages: 1 -->
<svg width="511pt" height="196pt"
 viewBox="0.00 0.00 510.50 196.00" xmlns="http://www.w3.org/2000/svg" xmlns:xlink="http://www.w3.org/1999/xlink">
<g id="graph0" class="graph" transform="scale(1 1) rotate(0) translate(4 192)">
<title>CSystemClock</title>
<polygon fill="#ffffff" stroke="transparent" points="-4,4 -4,-192 506.5,-192 506.5,4 -4,4"/>
<!-- Node0 -->
<g id="node1" class="node">
<title>Node0</title>
<polygon fill="#bfbfbf" stroke="#000000" points="343,-.5 343,-19.5 426,-19.5 426,-.5 343,-.5"/>
<text text-anchor="middle" x="384.5" y="-7.5" font-family="Helvetica,sans-Serif" font-size="10.00" fill="#000000">CSystemClock</text>
</g>
<!-- Node1 -->
<g id="node2" class="node">
<title>Node1</title>
<g id="a_node2"><a xlink:href="../../d6/d06/class_c_base_reference_clock.html" target="_top" xlink:title="CBaseReferenceClock">
<polygon fill="#ffffff" stroke="#000000" points="205,-56.5 205,-75.5 322,-75.5 322,-56.5 205,-56.5"/>
<text text-anchor="middle" x="263.5" y="-63.5" font-family="Helvetica,sans-Serif" font-size="10.00" fill="#000000">CBaseReferenceClock</text>
</a>
</g>
</g>
<!-- Node1&#45;&gt;Node0 -->
<g id="edge1" class="edge">
<title>Node1&#45;&gt;Node0</title>
<path fill="none" stroke="#191970" d="M293.5104,-52.1109C315.4525,-41.9559 344.6388,-28.4482 363.9708,-19.5011"/>
<polygon fill="#191970" stroke="#191970" points="291.9058,-48.9968 284.3006,-56.3733 294.8459,-55.3494 291.9058,-48.9968"/>
</g>
<!-- Node2 -->
<g id="node3" class="node">
<title>Node2</title>
<g id="a_node3"><a xlink:href="../../d9/d89/class_c_unknown.html" target="_top" xlink:title="CUnknown">
<polygon fill="#ffffff" stroke="#000000" points="89,-112.5 89,-131.5 154,-131.5 154,-112.5 89,-112.5"/>
<text text-anchor="middle" x="121.5" y="-119.5" font-family="Helvetica,sans-Serif" font-size="10.00" fill="#000000">CUnknown</text>
</a>
</g>
</g>
<!-- Node2&#45;&gt;Node1 -->
<g id="edge2" class="edge">
<title>Node2&#45;&gt;Node1</title>
<path fill="none" stroke="#191970" d="M155.3415,-108.6541C181.2366,-98.4419 216.3138,-84.6086 239.4079,-75.5011"/>
<polygon fill="#191970" stroke="#191970" points="153.9293,-105.4486 145.9107,-112.3733 156.4975,-111.9605 153.9293,-105.4486"/>
</g>
<!-- Node3 -->
<g id="node4" class="node">
<title>Node3</title>
<polygon fill="#ffffff" stroke="#bfbfbf" points="0,-168.5 0,-187.5 125,-187.5 125,-168.5 0,-168.5"/>
<text text-anchor="middle" x="62.5" y="-175.5" font-family="Helvetica,sans-Serif" font-size="10.00" fill="#000000">INonDelegatingUnknown</text>
</g>
<!-- Node3&#45;&gt;Node2 -->
<g id="edge3" class="edge">
<title>Node3&#45;&gt;Node2</title>
<path fill="none" stroke="#191970" d="M80.0307,-161.3607C90.2377,-151.6727 102.7469,-139.7995 111.3408,-131.6427"/>
<polygon fill="#191970" stroke="#191970" points="77.6206,-158.8227 72.777,-168.2455 82.4396,-163.8998 77.6206,-158.8227"/>
</g>
<!-- Node4 -->
<g id="node5" class="node">
<title>Node4</title>
<g id="a_node5"><a xlink:href="../../d1/d2d/class_c_base_object.html" target="_top" xlink:title="CBaseObject">
<polygon fill="#ffffff" stroke="#000000" points="143,-168.5 143,-187.5 218,-187.5 218,-168.5 143,-168.5"/>
<text text-anchor="middle" x="180.5" y="-175.5" font-family="Helvetica,sans-Serif" font-size="10.00" fill="#000000">CBaseObject</text>
</a>
</g>
</g>
<!-- Node4&#45;&gt;Node2 -->
<g id="edge4" class="edge">
<title>Node4&#45;&gt;Node2</title>
<path fill="none" stroke="#191970" d="M162.9693,-161.3607C152.7623,-151.6727 140.2531,-139.7995 131.6592,-131.6427"/>
<polygon fill="#191970" stroke="#191970" points="160.5604,-163.8998 170.223,-168.2455 165.3794,-158.8227 160.5604,-163.8998"/>
</g>
<!-- Node5 -->
<g id="node6" class="node">
<title>Node5</title>
<polygon fill="#ffffff" stroke="#bfbfbf" points="172.5,-112.5 172.5,-131.5 262.5,-131.5 262.5,-112.5 172.5,-112.5"/>
<text text-anchor="middle" x="217.5" y="-119.5" font-family="Helvetica,sans-Serif" font-size="10.00" fill="#000000">IReferenceClock</text>
</g>
<!-- Node5&#45;&gt;Node1 -->
<g id="edge5" class="edge">
<title>Node5&#45;&gt;Node1</title>
<path fill="none" stroke="#191970" d="M231.8747,-104.5004C239.6971,-94.9775 249.076,-83.5596 255.5792,-75.6427"/>
<polygon fill="#191970" stroke="#191970" points="229.1555,-102.2967 225.5126,-112.2455 234.5646,-106.7399 229.1555,-102.2967"/>
</g>
<!-- Node6 -->
<g id="node7" class="node">
<title>Node6</title>
<g id="a_node7"><a xlink:href="../../d5/d24/class_c_crit_sec.html" target="_top" xlink:title="CCritSec">
<polygon fill="#ffffff" stroke="#000000" points="281,-112.5 281,-131.5 338,-131.5 338,-112.5 281,-112.5"/>
<text text-anchor="middle" x="309.5" y="-119.5" font-family="Helvetica,sans-Serif" font-size="10.00" fill="#000000">CCritSec</text>
</a>
</g>
</g>
<!-- Node6&#45;&gt;Node1 -->
<g id="edge6" class="edge">
<title>Node6&#45;&gt;Node1</title>
<path fill="none" stroke="#191970" d="M295.1253,-104.5004C287.3029,-94.9775 277.924,-83.5596 271.4208,-75.6427"/>
<polygon fill="#191970" stroke="#191970" points="292.4354,-106.7399 301.4874,-112.2455 297.8445,-102.2967 292.4354,-106.7399"/>
</g>
<!-- Node7 -->
<g id="node8" class="node">
<title>Node7</title>
<polygon fill="#ffffff" stroke="#bfbfbf" points="356.5,-112.5 356.5,-131.5 502.5,-131.5 502.5,-112.5 356.5,-112.5"/>
<text text-anchor="middle" x="429.5" y="-119.5" font-family="Helvetica,sans-Serif" font-size="10.00" fill="#000000">IReferenceClockTimerControl</text>
</g>
<!-- Node7&#45;&gt;Node1 -->
<g id="edge7" class="edge">
<title>Node7&#45;&gt;Node1</title>
<path fill="none" stroke="#191970" d="M391.1333,-109.057C360.7534,-98.8084 319.0181,-84.729 291.664,-75.5011"/>
<polygon fill="#191970" stroke="#191970" points="390.3694,-112.4931 400.9636,-112.3733 392.607,-105.8603 390.3694,-112.4931"/>
</g>
<!-- Node8 -->
<g id="node9" class="node">
<title>Node8</title>
<polygon fill="#ffffff" stroke="#bfbfbf" points="340.5,-56.5 340.5,-75.5 428.5,-75.5 428.5,-56.5 340.5,-56.5"/>
<text text-anchor="middle" x="384.5" y="-63.5" font-family="Helvetica,sans-Serif" font-size="10.00" fill="#000000">IAMClockAdjust</text>
</g>
<!-- Node8&#45;&gt;Node0 -->
<g id="edge8" class="edge">
<title>Node8&#45;&gt;Node0</title>
<path fill="none" stroke="#191970" d="M384.5,-46.1575C384.5,-37.155 384.5,-26.9199 384.5,-19.6427"/>
<polygon fill="#191970" stroke="#191970" points="381.0001,-46.2455 384.5,-56.2455 388.0001,-46.2456 381.0001,-46.2455"/>
</g>
<!-- Node9 -->
<g id="node10" class="node">
<title>Node9</title>
<polygon fill="#ffffff" stroke="#bfbfbf" points="446.5,-56.5 446.5,-75.5 496.5,-75.5 496.5,-56.5 446.5,-56.5"/>
<text text-anchor="middle" x="471.5" y="-63.5" font-family="Helvetica,sans-Serif" font-size="10.00" fill="#000000">IPersist</text>
</g>
<!-- Node9&#45;&gt;Node0 -->
<g id="edge9" class="edge">
<title>Node9&#45;&gt;Node0</title>
<path fill="none" stroke="#191970" d="M447.8375,-50.769C432.4209,-40.8456 412.774,-28.1994 399.4806,-19.6427"/>
<polygon fill="#191970" stroke="#191970" points="446.0427,-53.7761 456.3458,-56.2455 449.8315,-47.89 446.0427,-53.7761"/>
</g>
</g>
</svg>
