<?xml version="1.0" encoding="UTF-8" standalone="no"?>
<!DOCTYPE svg PUBLIC "-//W3C//DTD SVG 1.1//EN"
 "http://www.w3.org/Graphics/SVG/1.1/DTD/svg11.dtd">
<!-- Generated by graphviz version 2.43.0 (0)
 -->
<!-- Title: /home/tcbuilder/buildAgent/work/df8e8cce5bebfd58/libajantv2/ajantv2/src/win/ntv2windriverinterface.h Pages: 1 -->
<svg width="1906pt" height="498pt"
 viewBox="0.00 0.00 1906.00 498.00" xmlns="http://www.w3.org/2000/svg" xmlns:xlink="http://www.w3.org/1999/xlink">
<g id="graph0" class="graph" transform="scale(1 1) rotate(0) translate(4 494)">
<title>/home/tcbuilder/buildAgent/work/df8e8cce5bebfd58/libajantv2/ajantv2/src/win/ntv2windriverinterface.h</title>
<polygon fill="white" stroke="transparent" points="-4,4 -4,-494 1902,-494 1902,4 -4,4"/>
<!-- Node1 -->
<g id="node1" class="node">
<title>Node1</title>
<g id="a_node1"><a xlink:title="Declares the MSWindows&#45;specific flavor of CNTV2DriverInterface.">
<polygon fill="#bfbfbf" stroke="black" points="359.5,-448.5 359.5,-489.5 576.5,-489.5 576.5,-448.5 359.5,-448.5"/>
<text text-anchor="start" x="367.5" y="-477.5" font-family="Helvetica,sans-Serif" font-size="10.00">/home/tcbuilder/buildAgent</text>
<text text-anchor="start" x="367.5" y="-466.5" font-family="Helvetica,sans-Serif" font-size="10.00">/work/df8e8cce5bebfd58/libajantv2</text>
<text text-anchor="middle" x="468" y="-455.5" font-family="Helvetica,sans-Serif" font-size="10.00">/ajantv2/src/win/ntv2windriverinterface.h</text>
</a>
</g>
</g>
<!-- Node2 -->
<g id="node2" class="node">
<title>Node2</title>
<g id="a_node2"><a xlink:href="../../d6/dd9/ajaexport_8h.html" target="_top" xlink:title="Defines the import/export macros for producing DLLs or LIBs.">
<polygon fill="white" stroke="black" points="200,-0.5 200,-19.5 272,-19.5 272,-0.5 200,-0.5"/>
<text text-anchor="middle" x="236" y="-7.5" font-family="Helvetica,sans-Serif" font-size="10.00">ajaexport.h</text>
</a>
</g>
</g>
<!-- Node1&#45;&gt;Node2 -->
<g id="edge1" class="edge">
<title>Node1&#45;&gt;Node2</title>
<path fill="none" stroke="midnightblue" d="M359.08,-462.34C254.1,-455.28 103.91,-440.5 53,-412 20.48,-393.79 0,-384.28 0,-347 0,-347 0,-347 0,-121 0,-38.12 121.04,-17.54 189.75,-12.52"/>
<polygon fill="midnightblue" stroke="midnightblue" points="190.15,-16.01 199.9,-11.87 189.7,-9.02 190.15,-16.01"/>
</g>
<!-- Node3 -->
<g id="node3" class="node">
<title>Node3</title>
<g id="a_node3"><a xlink:href="../../db/de2/ajatypes_8h.html" target="_top" xlink:title="Declares the most fundamental data types used by NTV2. Since Windows NT was the first principal devel...">
<polygon fill="white" stroke="black" points="1053,-56.5 1053,-75.5 1121,-75.5 1121,-56.5 1053,-56.5"/>
<text text-anchor="middle" x="1087" y="-63.5" font-family="Helvetica,sans-Serif" font-size="10.00">ajatypes.h</text>
</a>
</g>
</g>
<!-- Node1&#45;&gt;Node3 -->
<g id="edge2" class="edge">
<title>Node1&#45;&gt;Node3</title>
<path fill="none" stroke="midnightblue" d="M576.66,-464.48C910.37,-452.96 1898,-413.26 1898,-347 1898,-347 1898,-347 1898,-177 1898,-136.46 1870.91,-128.78 1834,-112 1770.18,-82.99 1283.05,-70.91 1131.71,-67.83"/>
<polygon fill="midnightblue" stroke="midnightblue" points="1131.47,-64.33 1121.41,-67.63 1131.33,-71.33 1131.47,-64.33"/>
</g>
<!-- Node5 -->
<g id="node5" class="node">
<title>Node5</title>
<g id="a_node5"><a xlink:title=" ">
<polygon fill="white" stroke="#bfbfbf" points="1364,-224.5 1364,-243.5 1420,-243.5 1420,-224.5 1364,-224.5"/>
<text text-anchor="middle" x="1392" y="-231.5" font-family="Helvetica,sans-Serif" font-size="10.00">assert.h</text>
</a>
</g>
</g>
<!-- Node1&#45;&gt;Node5 -->
<g id="edge4" class="edge">
<title>Node1&#45;&gt;Node5</title>
<path fill="none" stroke="midnightblue" d="M576.81,-462.17C731.94,-451.74 1024.41,-424.19 1264,-356 1324.9,-338.67 1360.12,-352.85 1395,-300 1403.94,-286.46 1401.9,-267.66 1398.39,-253.76"/>
<polygon fill="midnightblue" stroke="midnightblue" points="1401.65,-252.44 1395.45,-243.85 1394.95,-254.44 1401.65,-252.44"/>
</g>
<!-- Node6 -->
<g id="node6" class="node">
<title>Node6</title>
<g id="a_node6"><a xlink:title=" ">
<polygon fill="white" stroke="#bfbfbf" points="104,-392.5 104,-411.5 154,-411.5 154,-392.5 104,-392.5"/>
<text text-anchor="middle" x="129" y="-399.5" font-family="Helvetica,sans-Serif" font-size="10.00">stdio.h</text>
</a>
</g>
</g>
<!-- Node1&#45;&gt;Node6 -->
<g id="edge5" class="edge">
<title>Node1&#45;&gt;Node6</title>
<path fill="none" stroke="midnightblue" d="M359.47,-448.88C302.38,-438.54 231.28,-425.2 168,-412 166.74,-411.74 165.45,-411.46 164.16,-411.19"/>
<polygon fill="midnightblue" stroke="midnightblue" points="164.66,-407.71 154.14,-408.97 163.15,-414.55 164.66,-407.71"/>
</g>
<!-- Node7 -->
<g id="node7" class="node">
<title>Node7</title>
<g id="a_node7"><a xlink:title=" ">
<polygon fill="white" stroke="#bfbfbf" points="154.5,-112.5 154.5,-131.5 207.5,-131.5 207.5,-112.5 154.5,-112.5"/>
<text text-anchor="middle" x="181" y="-119.5" font-family="Helvetica,sans-Serif" font-size="10.00">string.h</text>
</a>
</g>
</g>
<!-- Node1&#45;&gt;Node7 -->
<g id="edge6" class="edge">
<title>Node1&#45;&gt;Node7</title>
<path fill="none" stroke="midnightblue" d="M359.32,-461.52C262.67,-454.07 129.9,-439.22 85,-412 54.51,-393.52 38,-382.65 38,-347 38,-347 38,-347 38,-233 38,-179.21 102.35,-148.09 144.72,-133.43"/>
<polygon fill="midnightblue" stroke="midnightblue" points="146.04,-136.67 154.44,-130.21 143.84,-130.03 146.04,-136.67"/>
</g>
<!-- Node8 -->
<g id="node8" class="node">
<title>Node8</title>
<g id="a_node8"><a xlink:title=" ">
<polygon fill="white" stroke="#bfbfbf" points="210,-392.5 210,-411.5 260,-411.5 260,-392.5 210,-392.5"/>
<text text-anchor="middle" x="235" y="-399.5" font-family="Helvetica,sans-Serif" font-size="10.00">tchar.h</text>
</a>
</g>
</g>
<!-- Node1&#45;&gt;Node8 -->
<g id="edge7" class="edge">
<title>Node1&#45;&gt;Node8</title>
<path fill="none" stroke="midnightblue" d="M398.09,-448.5C355.82,-436.7 303.74,-422.18 269.98,-412.76"/>
<polygon fill="midnightblue" stroke="midnightblue" points="270.69,-409.32 260.12,-410.01 268.81,-416.07 270.69,-409.32"/>
</g>
<!-- Node9 -->
<g id="node9" class="node">
<title>Node9</title>
<g id="a_node9"><a xlink:title=" ">
<polygon fill="white" stroke="#bfbfbf" points="210.5,-336.5 210.5,-355.5 247.5,-355.5 247.5,-336.5 210.5,-336.5"/>
<text text-anchor="middle" x="229" y="-343.5" font-family="Helvetica,sans-Serif" font-size="10.00">ks.h</text>
</a>
</g>
</g>
<!-- Node1&#45;&gt;Node9 -->
<g id="edge8" class="edge">
<title>Node1&#45;&gt;Node9</title>
<path fill="none" stroke="midnightblue" d="M359.31,-466.85C261.66,-463.23 128.59,-451.02 95,-412 63,-374.84 151.96,-357.06 200.22,-350.35"/>
<polygon fill="midnightblue" stroke="midnightblue" points="200.94,-353.78 210.4,-349.01 200.03,-346.84 200.94,-353.78"/>
</g>
<!-- Node10 -->
<g id="node10" class="node">
<title>Node10</title>
<g id="a_node10"><a xlink:title=" ">
<polygon fill="white" stroke="#bfbfbf" points="434,-392.5 434,-411.5 502,-411.5 502,-392.5 434,-392.5"/>
<text text-anchor="middle" x="468" y="-399.5" font-family="Helvetica,sans-Serif" font-size="10.00">ksmedia.h</text>
</a>
</g>
</g>
<!-- Node1&#45;&gt;Node10 -->
<g id="edge9" class="edge">
<title>Node1&#45;&gt;Node10</title>
<path fill="none" stroke="midnightblue" d="M468,-448.5C468,-440.07 468,-430.24 468,-421.87"/>
<polygon fill="midnightblue" stroke="midnightblue" points="471.5,-421.65 468,-411.65 464.5,-421.65 471.5,-421.65"/>
</g>
<!-- Node11 -->
<g id="node11" class="node">
<title>Node11</title>
<g id="a_node11"><a xlink:title=" ">
<polygon fill="white" stroke="#bfbfbf" points="520,-392.5 520,-411.5 588,-411.5 588,-392.5 520,-392.5"/>
<text text-anchor="middle" x="554" y="-399.5" font-family="Helvetica,sans-Serif" font-size="10.00">Setupapi.h</text>
</a>
</g>
</g>
<!-- Node1&#45;&gt;Node11 -->
<g id="edge10" class="edge">
<title>Node1&#45;&gt;Node11</title>
<path fill="none" stroke="midnightblue" d="M493.8,-448.5C506.86,-438.63 522.45,-426.84 534.5,-417.74"/>
<polygon fill="midnightblue" stroke="midnightblue" points="536.68,-420.47 542.55,-411.65 532.46,-414.89 536.68,-420.47"/>
</g>
<!-- Node12 -->
<g id="node12" class="node">
<title>Node12</title>
<g id="a_node12"><a xlink:title=" ">
<polygon fill="white" stroke="#bfbfbf" points="606,-392.5 606,-411.5 678,-411.5 678,-392.5 606,-392.5"/>
<text text-anchor="middle" x="642" y="-399.5" font-family="Helvetica,sans-Serif" font-size="10.00">cfgmgr32.h</text>
</a>
</g>
</g>
<!-- Node1&#45;&gt;Node12 -->
<g id="edge11" class="edge">
<title>Node1&#45;&gt;Node12</title>
<path fill="none" stroke="midnightblue" d="M520.21,-448.5C549.19,-437.67 584.35,-424.54 609.42,-415.17"/>
<polygon fill="midnightblue" stroke="midnightblue" points="610.7,-418.43 618.84,-411.65 608.25,-411.87 610.7,-418.43"/>
</g>
<!-- Node13 -->
<g id="node13" class="node">
<title>Node13</title>
<g id="a_node13"><a xlink:title=" ">
<polygon fill="white" stroke="#bfbfbf" points="696,-392.5 696,-411.5 748,-411.5 748,-392.5 696,-392.5"/>
<text text-anchor="middle" x="722" y="-399.5" font-family="Helvetica,sans-Serif" font-size="10.00">psapi.h</text>
</a>
</g>
</g>
<!-- Node1&#45;&gt;Node13 -->
<g id="edge12" class="edge">
<title>Node1&#45;&gt;Node13</title>
<path fill="none" stroke="midnightblue" d="M544.53,-448.46C584.12,-438.34 633.49,-425.72 685.82,-412.3"/>
<polygon fill="midnightblue" stroke="midnightblue" points="686.81,-415.66 695.63,-409.79 685.07,-408.88 686.81,-415.66"/>
</g>
<!-- Node14 -->
<g id="node14" class="node">
<title>Node14</title>
<g id="a_node14"><a xlink:href="../../d4/dc0/ntv2driverinterface_8h.html" target="_top" xlink:title="Declares the CNTV2DriverInterface base class.">
<polygon fill="white" stroke="black" points="766.5,-392.5 766.5,-411.5 885.5,-411.5 885.5,-392.5 766.5,-392.5"/>
<text text-anchor="middle" x="826" y="-399.5" font-family="Helvetica,sans-Serif" font-size="10.00">ntv2driverinterface.h</text>
</a>
</g>
</g>
<!-- Node1&#45;&gt;Node14 -->
<g id="edge13" class="edge">
<title>Node1&#45;&gt;Node14</title>
<path fill="none" stroke="midnightblue" d="M575.41,-448.5C638.94,-436.96 716.87,-422.81 768.79,-413.39"/>
<polygon fill="midnightblue" stroke="midnightblue" points="769.6,-416.8 778.82,-411.57 768.35,-409.91 769.6,-416.8"/>
</g>
<!-- Node20 -->
<g id="node20" class="node">
<title>Node20</title>
<g id="a_node20"><a xlink:title=" ">
<polygon fill="white" stroke="#bfbfbf" points="1240.5,-112.5 1240.5,-131.5 1287.5,-131.5 1287.5,-112.5 1240.5,-112.5"/>
<text text-anchor="middle" x="1264" y="-119.5" font-family="Helvetica,sans-Serif" font-size="10.00">vector</text>
</a>
</g>
</g>
<!-- Node1&#45;&gt;Node20 -->
<g id="edge85" class="edge">
<title>Node1&#45;&gt;Node20</title>
<path fill="none" stroke="midnightblue" d="M576.95,-466.82C847.45,-462.44 1528,-441.98 1528,-347 1528,-347 1528,-347 1528,-289 1528,-203.78 1438,-231.97 1365,-188 1337.12,-171.21 1305.69,-150.73 1285.4,-137.3"/>
<polygon fill="midnightblue" stroke="midnightblue" points="1287.18,-134.28 1276.92,-131.66 1283.31,-140.11 1287.18,-134.28"/>
</g>
<!-- Node38 -->
<g id="node38" class="node">
<title>Node38</title>
<g id="a_node38"><a xlink:href="../../d8/d0f/ntv2devicefeatures_8h.html" target="_top" xlink:title="Declares device capability functions.">
<polygon fill="white" stroke="black" points="110,-224.5 110,-243.5 230,-243.5 230,-224.5 110,-224.5"/>
<text text-anchor="middle" x="170" y="-231.5" font-family="Helvetica,sans-Serif" font-size="10.00">ntv2devicefeatures.h</text>
</a>
</g>
</g>
<!-- Node1&#45;&gt;Node38 -->
<g id="edge84" class="edge">
<title>Node1&#45;&gt;Node38</title>
<path fill="none" stroke="midnightblue" d="M359.27,-457.56C295.45,-449.14 223.1,-434.85 201,-412 159.12,-368.7 162.78,-290.01 167.11,-253.96"/>
<polygon fill="midnightblue" stroke="midnightblue" points="170.6,-254.23 168.48,-243.85 163.67,-253.29 170.6,-254.23"/>
</g>
<!-- Node41 -->
<g id="node41" class="node">
<title>Node41</title>
<g id="a_node41"><a xlink:href="../../d4/d20/ntv2winpublicinterface_8h.html" target="_top" xlink:title="Defines &amp; structs shared between user&#45;space and Windows kernel driver.">
<polygon fill="white" stroke="black" points="278.5,-392.5 278.5,-411.5 415.5,-411.5 415.5,-392.5 278.5,-392.5"/>
<text text-anchor="middle" x="347" y="-399.5" font-family="Helvetica,sans-Serif" font-size="10.00">ntv2winpublicinterface.h</text>
</a>
</g>
</g>
<!-- Node1&#45;&gt;Node41 -->
<g id="edge81" class="edge">
<title>Node1&#45;&gt;Node41</title>
<path fill="none" stroke="midnightblue" d="M431.7,-448.5C412.43,-438.15 389.25,-425.69 372.01,-416.43"/>
<polygon fill="midnightblue" stroke="midnightblue" points="373.57,-413.3 363.11,-411.65 370.26,-419.47 373.57,-413.3"/>
</g>
<!-- Node4 -->
<g id="node4" class="node">
<title>Node4</title>
<g id="a_node4"><a xlink:title=" ">
<polygon fill="white" stroke="#bfbfbf" points="1060.5,-0.5 1060.5,-19.5 1113.5,-19.5 1113.5,-0.5 1060.5,-0.5"/>
<text text-anchor="middle" x="1087" y="-7.5" font-family="Helvetica,sans-Serif" font-size="10.00">stdint.h</text>
</a>
</g>
</g>
<!-- Node3&#45;&gt;Node4 -->
<g id="edge3" class="edge">
<title>Node3&#45;&gt;Node4</title>
<path fill="none" stroke="midnightblue" d="M1087,-56.08C1087,-49.01 1087,-38.86 1087,-29.99"/>
<polygon fill="midnightblue" stroke="midnightblue" points="1090.5,-29.75 1087,-19.75 1083.5,-29.75 1090.5,-29.75"/>
</g>
<!-- Node14&#45;&gt;Node3 -->
<g id="edge14" class="edge">
<title>Node14&#45;&gt;Node3</title>
<path fill="none" stroke="midnightblue" d="M885.71,-400.23C977.98,-397.97 1160.3,-389.26 1311,-356 1551.95,-302.82 1749.47,-368.75 1819,-132 1821.5,-123.47 1825.09,-118.48 1819,-112 1795.34,-86.84 1285.77,-72 1131.11,-68.06"/>
<polygon fill="midnightblue" stroke="midnightblue" points="1131.11,-64.56 1121.03,-67.81 1130.93,-71.56 1131.11,-64.56"/>
</g>
<!-- Node15 -->
<g id="node15" class="node">
<title>Node15</title>
<g id="a_node15"><a xlink:href="../../d6/d0c/ntv2enums_8h.html" target="_top" xlink:title="Enumerations for controlling NTV2 devices.">
<polygon fill="white" stroke="black" points="302,-112.5 302,-131.5 382,-131.5 382,-112.5 302,-112.5"/>
<text text-anchor="middle" x="342" y="-119.5" font-family="Helvetica,sans-Serif" font-size="10.00">ntv2enums.h</text>
</a>
</g>
</g>
<!-- Node14&#45;&gt;Node15 -->
<g id="edge15" class="edge">
<title>Node14&#45;&gt;Node15</title>
<path fill="none" stroke="midnightblue" d="M766.17,-393.1C763.07,-392.72 760,-392.35 757,-392 679.78,-382.97 468.73,-405.77 409,-356 385.88,-336.73 390,-321.1 390,-291 390,-291 390,-291 390,-233 390,-197.58 368.84,-160.71 354.62,-139.92"/>
<polygon fill="midnightblue" stroke="midnightblue" points="357.32,-137.68 348.67,-131.56 351.62,-141.74 357.32,-137.68"/>
</g>
<!-- Node17 -->
<g id="node17" class="node">
<title>Node17</title>
<g id="a_node17"><a xlink:title=" ">
<polygon fill="white" stroke="#bfbfbf" points="540,-0.5 540,-19.5 584,-19.5 584,-0.5 540,-0.5"/>
<text text-anchor="middle" x="562" y="-7.5" font-family="Helvetica,sans-Serif" font-size="10.00">string</text>
</a>
</g>
</g>
<!-- Node14&#45;&gt;Node17 -->
<g id="edge79" class="edge">
<title>Node14&#45;&gt;Node17</title>
<path fill="none" stroke="midnightblue" d="M766.18,-393.08C763.07,-392.7 760,-392.34 757,-392 675.36,-382.69 455.31,-404.52 389,-356 294.95,-287.18 221.59,-204.09 293,-112 332.37,-61.23 372.85,-98.59 433,-76 471.31,-61.62 513.18,-39.16 538.52,-24.77"/>
<polygon fill="midnightblue" stroke="midnightblue" points="540.45,-27.7 547.38,-19.68 536.96,-21.63 540.45,-27.7"/>
</g>
<!-- Node18 -->
<g id="node18" class="node">
<title>Node18</title>
<g id="a_node18"><a xlink:href="../../d8/de5/ntv2nubtypes_8h.html" target="_top" xlink:title="Declares data types and structures used in NTV2 &quot;nub&quot; packets.">
<polygon fill="white" stroke="black" points="1534,-168.5 1534,-187.5 1626,-187.5 1626,-168.5 1534,-168.5"/>
<text text-anchor="middle" x="1580" y="-175.5" font-family="Helvetica,sans-Serif" font-size="10.00">ntv2nubtypes.h</text>
</a>
</g>
</g>
<!-- Node14&#45;&gt;Node18 -->
<g id="edge20" class="edge">
<title>Node14&#45;&gt;Node18</title>
<path fill="none" stroke="midnightblue" d="M885.8,-400.52C971.07,-398.57 1131.9,-390.18 1264,-356 1325.3,-340.14 1341.99,-334.63 1395,-300 1436.33,-273 1434.73,-251.09 1476,-224 1497.15,-210.11 1523.31,-198.82 1544.09,-191.02"/>
<polygon fill="midnightblue" stroke="midnightblue" points="1545.33,-194.29 1553.52,-187.58 1542.93,-187.72 1545.33,-194.29"/>
</g>
<!-- Node21 -->
<g id="node21" class="node">
<title>Node21</title>
<g id="a_node21"><a xlink:href="../../d6/d8f/ntv2nubaccess_8h.html" target="_top" xlink:title="Declares NTV2 &quot;nub&quot; client functions.">
<polygon fill="white" stroke="black" points="1126,-336.5 1126,-355.5 1224,-355.5 1224,-336.5 1126,-336.5"/>
<text text-anchor="middle" x="1175" y="-343.5" font-family="Helvetica,sans-Serif" font-size="10.00">ntv2nubaccess.h</text>
</a>
</g>
</g>
<!-- Node14&#45;&gt;Node21 -->
<g id="edge24" class="edge">
<title>Node14&#45;&gt;Node21</title>
<path fill="none" stroke="midnightblue" d="M881.3,-392.44C945.25,-382.55 1050.1,-366.33 1115.7,-356.18"/>
<polygon fill="midnightblue" stroke="midnightblue" points="1116.53,-359.59 1125.88,-354.6 1115.46,-352.67 1116.53,-359.59"/>
</g>
<!-- Node22 -->
<g id="node22" class="node">
<title>Node22</title>
<g id="a_node22"><a xlink:href="../../d0/d81/ntv2utils_8h.html" target="_top" xlink:title="Declares numerous NTV2 utility functions.">
<polygon fill="white" stroke="black" points="866,-280.5 866,-299.5 934,-299.5 934,-280.5 866,-280.5"/>
<text text-anchor="middle" x="900" y="-287.5" font-family="Helvetica,sans-Serif" font-size="10.00">ntv2utils.h</text>
</a>
</g>
</g>
<!-- Node14&#45;&gt;Node22 -->
<g id="edge70" class="edge">
<title>Node14&#45;&gt;Node22</title>
<path fill="none" stroke="midnightblue" d="M831.81,-392.37C844.02,-374.22 872.55,-331.8 888.57,-307.99"/>
<polygon fill="midnightblue" stroke="midnightblue" points="891.54,-309.84 894.22,-299.59 885.73,-305.94 891.54,-309.84"/>
</g>
<!-- Node24 -->
<g id="node24" class="node">
<title>Node24</title>
<g id="a_node24"><a xlink:href="../../d4/dd7/ntv2publicinterface_8h.html" target="_top" xlink:title="Declares enums and structs used by all platform drivers and the SDK.">
<polygon fill="white" stroke="black" points="646,-168.5 646,-187.5 766,-187.5 766,-168.5 646,-168.5"/>
<text text-anchor="middle" x="706" y="-175.5" font-family="Helvetica,sans-Serif" font-size="10.00">ntv2publicinterface.h</text>
</a>
</g>
</g>
<!-- Node14&#45;&gt;Node24 -->
<g id="edge69" class="edge">
<title>Node14&#45;&gt;Node24</title>
<path fill="none" stroke="midnightblue" d="M815.77,-392.44C790.75,-370.76 726.84,-310.61 704,-244 698.85,-228.98 699.96,-210.85 702.01,-197.56"/>
<polygon fill="midnightblue" stroke="midnightblue" points="705.46,-198.17 703.83,-187.7 698.57,-196.9 705.46,-198.17"/>
</g>
<!-- Node33 -->
<g id="node33" class="node">
<title>Node33</title>
<g id="a_node33"><a xlink:href="../../dd/d42/lock_8h.html" target="_top" xlink:title="Declares the AJALock class.">
<polygon fill="white" stroke="black" points="1260,-280.5 1260,-299.5 1386,-299.5 1386,-280.5 1260,-280.5"/>
<text text-anchor="middle" x="1323" y="-287.5" font-family="Helvetica,sans-Serif" font-size="10.00">ajabase/system/lock.h</text>
</a>
</g>
</g>
<!-- Node14&#45;&gt;Node33 -->
<g id="edge78" class="edge">
<title>Node14&#45;&gt;Node33</title>
<path fill="none" stroke="midnightblue" d="M885.64,-398.14C982.9,-392.86 1171.06,-379.87 1233,-356 1262.06,-344.8 1290.28,-321.85 1307.16,-306.44"/>
<polygon fill="midnightblue" stroke="midnightblue" points="1309.58,-308.96 1314.48,-299.56 1304.79,-303.86 1309.58,-308.96"/>
</g>
<!-- Node14&#45;&gt;Node38 -->
<g id="edge71" class="edge">
<title>Node14&#45;&gt;Node38</title>
<path fill="none" stroke="midnightblue" d="M766.18,-393.03C763.08,-392.67 760,-392.32 757,-392 571.17,-371.91 513.26,-420.96 338,-356 274.5,-332.46 213.47,-278.04 185.67,-250.93"/>
<polygon fill="midnightblue" stroke="midnightblue" points="188.01,-248.32 178.44,-243.76 183.08,-253.29 188.01,-248.32"/>
</g>
<!-- Node40 -->
<g id="node40" class="node">
<title>Node40</title>
<g id="a_node40"><a xlink:title=" ">
<polygon fill="white" stroke="#bfbfbf" points="418,-336.5 418,-355.5 474,-355.5 474,-336.5 418,-336.5"/>
<text text-anchor="middle" x="446" y="-343.5" font-family="Helvetica,sans-Serif" font-size="10.00">unistd.h</text>
</a>
</g>
</g>
<!-- Node14&#45;&gt;Node40 -->
<g id="edge80" class="edge">
<title>Node14&#45;&gt;Node40</title>
<path fill="none" stroke="midnightblue" d="M766.29,-393.17C672.92,-380.92 501.52,-358.35 488,-356 486.76,-355.78 485.5,-355.56 484.23,-355.32"/>
<polygon fill="midnightblue" stroke="midnightblue" points="484.89,-351.89 474.41,-353.4 483.55,-358.76 484.89,-351.89"/>
</g>
<!-- Node15&#45;&gt;Node3 -->
<g id="edge16" class="edge">
<title>Node15&#45;&gt;Node3</title>
<path fill="none" stroke="midnightblue" d="M382.05,-118.1C510.06,-108.82 908.67,-79.93 1042.6,-70.22"/>
<polygon fill="midnightblue" stroke="midnightblue" points="1043.16,-73.69 1052.88,-69.47 1042.66,-66.7 1043.16,-73.69"/>
</g>
<!-- Node16 -->
<g id="node16" class="node">
<title>Node16</title>
<g id="a_node16"><a xlink:href="../../d6/db1/ntv2version_8h.html" target="_top" xlink:title="Defines for the NTV2 SDK version number, used by ajantv2/includes/ntv2enums.h. See the ajantv2/includ...">
<polygon fill="white" stroke="black" points="340.5,-56.5 340.5,-75.5 423.5,-75.5 423.5,-56.5 340.5,-56.5"/>
<text text-anchor="middle" x="382" y="-63.5" font-family="Helvetica,sans-Serif" font-size="10.00">ntv2version.h</text>
</a>
</g>
</g>
<!-- Node15&#45;&gt;Node16 -->
<g id="edge17" class="edge">
<title>Node15&#45;&gt;Node16</title>
<path fill="none" stroke="midnightblue" d="M348.61,-112.08C354.26,-104.46 362.54,-93.26 369.45,-83.94"/>
<polygon fill="midnightblue" stroke="midnightblue" points="372.38,-85.87 375.52,-75.75 366.75,-81.7 372.38,-85.87"/>
</g>
<!-- Node16&#45;&gt;Node2 -->
<g id="edge18" class="edge">
<title>Node16&#45;&gt;Node2</title>
<path fill="none" stroke="midnightblue" d="M358.87,-56.44C334.52,-47.44 295.99,-33.19 268.58,-23.05"/>
<polygon fill="midnightblue" stroke="midnightblue" points="269.62,-19.7 259.03,-19.52 267.19,-26.27 269.62,-19.7"/>
</g>
<!-- Node16&#45;&gt;Node17 -->
<g id="edge19" class="edge">
<title>Node16&#45;&gt;Node17</title>
<path fill="none" stroke="midnightblue" d="M410.52,-56.44C443.04,-46.69 496.08,-30.78 529.99,-20.6"/>
<polygon fill="midnightblue" stroke="midnightblue" points="531.28,-23.87 539.85,-17.64 529.27,-17.17 531.28,-23.87"/>
</g>
<!-- Node19 -->
<g id="node19" class="node">
<title>Node19</title>
<g id="a_node19"><a xlink:href="../../d4/d18/ntv2endian_8h.html" target="_top" xlink:title="Defines a number of handy byte&#45;swapping macros.">
<polygon fill="white" stroke="black" points="1714,-112.5 1714,-131.5 1794,-131.5 1794,-112.5 1714,-112.5"/>
<text text-anchor="middle" x="1754" y="-119.5" font-family="Helvetica,sans-Serif" font-size="10.00">ntv2endian.h</text>
</a>
</g>
</g>
<!-- Node18&#45;&gt;Node19 -->
<g id="edge21" class="edge">
<title>Node18&#45;&gt;Node19</title>
<path fill="none" stroke="midnightblue" d="M1607.57,-168.44C1637.1,-159.28 1684.12,-144.69 1716.88,-134.52"/>
<polygon fill="midnightblue" stroke="midnightblue" points="1718.04,-137.82 1726.56,-131.52 1715.97,-131.14 1718.04,-137.82"/>
</g>
<!-- Node18&#45;&gt;Node20 -->
<g id="edge23" class="edge">
<title>Node18&#45;&gt;Node20</title>
<path fill="none" stroke="midnightblue" d="M1533.71,-169.09C1469.32,-158.09 1354.24,-138.42 1297.51,-128.73"/>
<polygon fill="midnightblue" stroke="midnightblue" points="1298.07,-125.27 1287.62,-127.04 1296.89,-132.17 1298.07,-125.27"/>
</g>
<!-- Node19&#45;&gt;Node3 -->
<g id="edge22" class="edge">
<title>Node19&#45;&gt;Node3</title>
<path fill="none" stroke="midnightblue" d="M1713.94,-113.28C1710.92,-112.81 1707.92,-112.37 1705,-112 1491.15,-84.66 1233.39,-72.55 1131.52,-68.58"/>
<polygon fill="midnightblue" stroke="midnightblue" points="1131.42,-65.07 1121.3,-68.19 1131.16,-72.07 1131.42,-65.07"/>
</g>
<!-- Node21&#45;&gt;Node17 -->
<g id="edge66" class="edge">
<title>Node21&#45;&gt;Node17</title>
<path fill="none" stroke="midnightblue" d="M1172.44,-336.25C1167.25,-317.74 1156,-273.18 1156,-235 1156,-235 1156,-235 1156,-121 1156,-89.89 1155.06,-74.45 1130,-56 1086.79,-24.18 708.71,-13.97 594.52,-11.6"/>
<polygon fill="midnightblue" stroke="midnightblue" points="594.38,-8.1 584.32,-11.39 594.24,-15.09 594.38,-8.1"/>
</g>
<!-- Node21&#45;&gt;Node20 -->
<g id="edge67" class="edge">
<title>Node21&#45;&gt;Node20</title>
<path fill="none" stroke="midnightblue" d="M1179.21,-336.45C1183.58,-327.46 1190.54,-312.85 1196,-300 1220.29,-242.81 1245.73,-173.74 1257.42,-141.39"/>
<polygon fill="midnightblue" stroke="midnightblue" points="1260.86,-142.15 1260.95,-131.56 1254.27,-139.78 1260.86,-142.15"/>
</g>
<!-- Node21&#45;&gt;Node22 -->
<g id="edge25" class="edge">
<title>Node21&#45;&gt;Node22</title>
<path fill="none" stroke="midnightblue" d="M1131.43,-336.44C1080.17,-326.38 995.56,-309.76 944.08,-299.66"/>
<polygon fill="midnightblue" stroke="midnightblue" points="944.74,-296.22 934.25,-297.73 943.39,-303.09 944.74,-296.22"/>
</g>
<!-- Node27 -->
<g id="node27" class="node">
<title>Node27</title>
<g id="a_node27"><a xlink:title=" ">
<polygon fill="white" stroke="#bfbfbf" points="1184,-112.5 1184,-131.5 1222,-131.5 1222,-112.5 1184,-112.5"/>
<text text-anchor="middle" x="1203" y="-119.5" font-family="Helvetica,sans-Serif" font-size="10.00">map</text>
</a>
</g>
</g>
<!-- Node21&#45;&gt;Node27 -->
<g id="edge68" class="edge">
<title>Node21&#45;&gt;Node27</title>
<path fill="none" stroke="midnightblue" d="M1176.1,-336.3C1180.22,-303.63 1194.82,-187.87 1200.61,-141.96"/>
<polygon fill="midnightblue" stroke="midnightblue" points="1204.1,-142.24 1201.88,-131.88 1197.16,-141.37 1204.1,-142.24"/>
</g>
<!-- Node21&#45;&gt;Node33 -->
<g id="edge57" class="edge">
<title>Node21&#45;&gt;Node33</title>
<path fill="none" stroke="midnightblue" d="M1198.45,-336.44C1223.13,-327.44 1262.19,-313.19 1289.98,-303.05"/>
<polygon fill="midnightblue" stroke="midnightblue" points="1291.46,-306.23 1299.66,-299.52 1289.06,-299.66 1291.46,-306.23"/>
</g>
<!-- Node22&#45;&gt;Node2 -->
<g id="edge26" class="edge">
<title>Node22&#45;&gt;Node2</title>
<path fill="none" stroke="midnightblue" d="M865.95,-289.29C794.18,-289.05 622.71,-283.93 486,-244 378.39,-212.57 328.13,-221.02 260,-132 236.97,-101.91 234.31,-55.63 234.86,-29.9"/>
<polygon fill="midnightblue" stroke="midnightblue" points="238.37,-29.79 235.28,-19.65 231.38,-29.5 238.37,-29.79"/>
</g>
<!-- Node22&#45;&gt;Node3 -->
<g id="edge27" class="edge">
<title>Node22&#45;&gt;Node3</title>
<path fill="none" stroke="midnightblue" d="M932.42,-280.39C954.61,-273.3 983.73,-261.54 1005,-244 1051.4,-205.72 1060.71,-188.63 1081,-132 1086.32,-117.15 1087.63,-99.23 1087.72,-85.97"/>
<polygon fill="midnightblue" stroke="midnightblue" points="1091.21,-85.65 1087.55,-75.71 1084.21,-85.76 1091.21,-85.65"/>
</g>
<!-- Node22&#45;&gt;Node15 -->
<g id="edge28" class="edge">
<title>Node22&#45;&gt;Node15</title>
<path fill="none" stroke="midnightblue" d="M865.87,-286.85C786.15,-281.52 589.83,-266.47 528,-244 492.49,-231.09 402.19,-166.92 361.91,-137.63"/>
<polygon fill="midnightblue" stroke="midnightblue" points="363.82,-134.68 353.68,-131.62 359.69,-140.34 363.82,-134.68"/>
</g>
<!-- Node22&#45;&gt;Node17 -->
<g id="edge54" class="edge">
<title>Node22&#45;&gt;Node17</title>
<path fill="none" stroke="midnightblue" d="M865.87,-286.76C805.93,-280.98 681.52,-260.45 612,-188 574.5,-148.92 572.77,-129.44 564,-76 561.48,-60.66 561.09,-43.02 561.27,-29.99"/>
<polygon fill="midnightblue" stroke="midnightblue" points="564.77,-29.99 561.54,-19.9 557.78,-29.81 564.77,-29.99"/>
</g>
<!-- Node22&#45;&gt;Node20 -->
<g id="edge56" class="edge">
<title>Node22&#45;&gt;Node20</title>
<path fill="none" stroke="midnightblue" d="M934.3,-281.68C966.48,-274.21 1015.56,-261.28 1056,-244 1128.25,-213.13 1206.6,-162.31 1243.09,-137.52"/>
<polygon fill="midnightblue" stroke="midnightblue" points="1245.17,-140.34 1251.44,-131.8 1241.21,-134.56 1245.17,-140.34"/>
</g>
<!-- Node23 -->
<g id="node23" class="node">
<title>Node23</title>
<g id="a_node23"><a xlink:href="../../d9/d61/ntv2videodefines_8h.html" target="_top" xlink:title="Declares common video macros and structs used in the SDK.">
<polygon fill="white" stroke="black" points="1664,-168.5 1664,-187.5 1774,-187.5 1774,-168.5 1664,-168.5"/>
<text text-anchor="middle" x="1719" y="-175.5" font-family="Helvetica,sans-Serif" font-size="10.00">ntv2videodefines.h</text>
</a>
</g>
</g>
<!-- Node22&#45;&gt;Node23 -->
<g id="edge29" class="edge">
<title>Node22&#45;&gt;Node23</title>
<path fill="none" stroke="midnightblue" d="M934.22,-283.89C1009.97,-272.62 1197.6,-244.97 1355,-224 1459.44,-210.09 1580.94,-195.36 1653.81,-186.68"/>
<polygon fill="midnightblue" stroke="midnightblue" points="1654.25,-190.16 1663.77,-185.5 1653.42,-183.2 1654.25,-190.16"/>
</g>
<!-- Node22&#45;&gt;Node24 -->
<g id="edge31" class="edge">
<title>Node22&#45;&gt;Node24</title>
<path fill="none" stroke="midnightblue" d="M865.77,-284.87C819.08,-278.53 738.96,-264.9 719,-244 707.46,-231.92 704.83,-212.63 704.71,-198.2"/>
<polygon fill="midnightblue" stroke="midnightblue" points="708.22,-198 705.04,-187.9 701.22,-197.78 708.22,-198"/>
</g>
<!-- Node25 -->
<g id="node25" class="node">
<title>Node25</title>
<g id="a_node25"><a xlink:title=" ">
<polygon fill="white" stroke="#bfbfbf" points="992,-112.5 992,-131.5 1052,-131.5 1052,-112.5 992,-112.5"/>
<text text-anchor="middle" x="1022" y="-119.5" font-family="Helvetica,sans-Serif" font-size="10.00">iostream</text>
</a>
</g>
</g>
<!-- Node22&#45;&gt;Node25 -->
<g id="edge55" class="edge">
<title>Node22&#45;&gt;Node25</title>
<path fill="none" stroke="midnightblue" d="M928.18,-280.46C946.77,-273.46 970.33,-261.77 985,-244 1009.75,-214.04 1017.96,-167.7 1020.67,-141.93"/>
<polygon fill="midnightblue" stroke="midnightblue" points="1024.19,-141.94 1021.57,-131.67 1017.21,-141.33 1024.19,-141.94"/>
</g>
<!-- Node31 -->
<g id="node31" class="node">
<title>Node31</title>
<g id="a_node31"><a xlink:href="../../dc/df4/ntv2formatdescriptor_8h.html" target="_top" xlink:title="Declares the NTV2FormatDescriptor class.">
<polygon fill="white" stroke="black" points="728,-224.5 728,-243.5 856,-243.5 856,-224.5 728,-224.5"/>
<text text-anchor="middle" x="792" y="-231.5" font-family="Helvetica,sans-Serif" font-size="10.00">ntv2formatdescriptor.h</text>
</a>
</g>
</g>
<!-- Node22&#45;&gt;Node31 -->
<g id="edge45" class="edge">
<title>Node22&#45;&gt;Node31</title>
<path fill="none" stroke="midnightblue" d="M882.65,-280.32C865.33,-271.66 838.48,-258.24 818.5,-248.25"/>
<polygon fill="midnightblue" stroke="midnightblue" points="819.82,-245 809.31,-243.65 816.69,-251.26 819.82,-245"/>
</g>
<!-- Node32 -->
<g id="node32" class="node">
<title>Node32</title>
<g id="a_node32"><a xlink:href="../../de/d26/ntv2m31enums_8h.html" target="_top" xlink:title=" ">
<polygon fill="white" stroke="black" points="874,-224.5 874,-243.5 976,-243.5 976,-224.5 874,-224.5"/>
<text text-anchor="middle" x="925" y="-231.5" font-family="Helvetica,sans-Serif" font-size="10.00">ntv2m31enums.h</text>
</a>
</g>
</g>
<!-- Node22&#45;&gt;Node32 -->
<g id="edge53" class="edge">
<title>Node22&#45;&gt;Node32</title>
<path fill="none" stroke="midnightblue" d="M904.13,-280.08C907.51,-272.77 912.42,-262.18 916.62,-253.1"/>
<polygon fill="midnightblue" stroke="midnightblue" points="919.92,-254.3 920.95,-243.75 913.57,-251.36 919.92,-254.3"/>
</g>
<!-- Node23&#45;&gt;Node3 -->
<g id="edge30" class="edge">
<title>Node23&#45;&gt;Node3</title>
<path fill="none" stroke="midnightblue" d="M1746.09,-168.46C1778.27,-157.01 1824.96,-135.39 1803,-112 1779.95,-87.45 1284.66,-72.26 1131.64,-68.14"/>
<polygon fill="midnightblue" stroke="midnightblue" points="1131.31,-64.63 1121.22,-67.86 1131.12,-71.63 1131.31,-64.63"/>
</g>
<!-- Node24&#45;&gt;Node2 -->
<g id="edge42" class="edge">
<title>Node24&#45;&gt;Node2</title>
<path fill="none" stroke="midnightblue" d="M673.94,-168.49C584.8,-144.82 340,-79.66 332,-76 302.77,-62.62 272.65,-40.63 254.12,-25.99"/>
<polygon fill="midnightblue" stroke="midnightblue" points="256.23,-23.19 246.24,-19.65 251.84,-28.64 256.23,-23.19"/>
</g>
<!-- Node24&#45;&gt;Node3 -->
<g id="edge32" class="edge">
<title>Node24&#45;&gt;Node3</title>
<path fill="none" stroke="midnightblue" d="M766.21,-170.71C815.33,-164.39 885.99,-152.56 945,-132 963.02,-125.72 965.79,-120.24 983,-112 1007.51,-100.27 1035.85,-88.1 1056.75,-79.37"/>
<polygon fill="midnightblue" stroke="midnightblue" points="1058.18,-82.57 1066.07,-75.5 1055.49,-76.1 1058.18,-82.57"/>
</g>
<!-- Node24&#45;&gt;Node7 -->
<g id="edge41" class="edge">
<title>Node24&#45;&gt;Node7</title>
<path fill="none" stroke="midnightblue" d="M645.78,-170.81C536.17,-159.53 307.17,-135.98 217.82,-126.79"/>
<polygon fill="midnightblue" stroke="midnightblue" points="217.94,-123.28 207.63,-125.74 217.22,-130.24 217.94,-123.28"/>
</g>
<!-- Node24&#45;&gt;Node15 -->
<g id="edge33" class="edge">
<title>Node24&#45;&gt;Node15</title>
<path fill="none" stroke="midnightblue" d="M648.32,-168.44C577.68,-157.96 459.16,-140.38 392.14,-130.44"/>
<polygon fill="midnightblue" stroke="midnightblue" points="392.64,-126.97 382.24,-128.97 391.62,-133.9 392.64,-126.97"/>
</g>
<!-- Node24&#45;&gt;Node17 -->
<g id="edge38" class="edge">
<title>Node24&#45;&gt;Node17</title>
<path fill="none" stroke="midnightblue" d="M679.18,-168.37C660.34,-161.16 635.64,-149.27 619,-132 603.93,-116.36 580.46,-58.99 568.9,-29.21"/>
<polygon fill="midnightblue" stroke="midnightblue" points="572.07,-27.7 565.22,-19.62 565.53,-30.21 572.07,-27.7"/>
</g>
<!-- Node24&#45;&gt;Node20 -->
<g id="edge37" class="edge">
<title>Node24&#45;&gt;Node20</title>
<path fill="none" stroke="midnightblue" d="M766.3,-175.37C862.53,-171.99 1056.79,-162 1230.25,-131.79"/>
<polygon fill="midnightblue" stroke="midnightblue" points="1231.09,-135.2 1240.32,-130.01 1229.87,-128.3 1231.09,-135.2"/>
</g>
<!-- Node24&#45;&gt;Node25 -->
<g id="edge34" class="edge">
<title>Node24&#45;&gt;Node25</title>
<path fill="none" stroke="midnightblue" d="M761.33,-168.47C816.36,-159.85 903.16,-145.84 978,-132 979.25,-131.77 980.52,-131.53 981.8,-131.29"/>
<polygon fill="midnightblue" stroke="midnightblue" points="982.59,-134.7 991.73,-129.35 981.25,-127.83 982.59,-134.7"/>
</g>
<!-- Node26 -->
<g id="node26" class="node">
<title>Node26</title>
<g id="a_node26"><a xlink:title=" ">
<polygon fill="white" stroke="#bfbfbf" points="628,-112.5 628,-131.5 660,-131.5 660,-112.5 628,-112.5"/>
<text text-anchor="middle" x="644" y="-119.5" font-family="Helvetica,sans-Serif" font-size="10.00">set</text>
</a>
</g>
</g>
<!-- Node24&#45;&gt;Node26 -->
<g id="edge35" class="edge">
<title>Node24&#45;&gt;Node26</title>
<path fill="none" stroke="midnightblue" d="M696.04,-168.32C686.87,-160.34 673.06,-148.31 661.97,-138.65"/>
<polygon fill="midnightblue" stroke="midnightblue" points="663.98,-135.76 654.14,-131.83 659.38,-141.04 663.98,-135.76"/>
</g>
<!-- Node24&#45;&gt;Node27 -->
<g id="edge36" class="edge">
<title>Node24&#45;&gt;Node27</title>
<path fill="none" stroke="midnightblue" d="M766.45,-170.43C873.92,-158.75 1094.42,-134.8 1173.75,-126.18"/>
<polygon fill="midnightblue" stroke="midnightblue" points="1174.42,-129.63 1183.98,-125.07 1173.66,-122.67 1174.42,-129.63"/>
</g>
<!-- Node28 -->
<g id="node28" class="node">
<title>Node28</title>
<g id="a_node28"><a xlink:title=" ">
<polygon fill="white" stroke="#bfbfbf" points="678,-112.5 678,-131.5 734,-131.5 734,-112.5 678,-112.5"/>
<text text-anchor="middle" x="706" y="-119.5" font-family="Helvetica,sans-Serif" font-size="10.00">iomanip</text>
</a>
</g>
</g>
<!-- Node24&#45;&gt;Node28 -->
<g id="edge39" class="edge">
<title>Node24&#45;&gt;Node28</title>
<path fill="none" stroke="midnightblue" d="M706,-168.08C706,-161.01 706,-150.86 706,-141.99"/>
<polygon fill="midnightblue" stroke="midnightblue" points="709.5,-141.75 706,-131.75 702.5,-141.75 709.5,-141.75"/>
</g>
<!-- Node29 -->
<g id="node29" class="node">
<title>Node29</title>
<g id="a_node29"><a xlink:title=" ">
<polygon fill="white" stroke="#bfbfbf" points="752,-112.5 752,-131.5 796,-131.5 796,-112.5 752,-112.5"/>
<text text-anchor="middle" x="774" y="-119.5" font-family="Helvetica,sans-Serif" font-size="10.00">bitset</text>
</a>
</g>
</g>
<!-- Node24&#45;&gt;Node29 -->
<g id="edge40" class="edge">
<title>Node24&#45;&gt;Node29</title>
<path fill="none" stroke="midnightblue" d="M716.93,-168.32C727.17,-160.18 742.72,-147.84 755,-138.09"/>
<polygon fill="midnightblue" stroke="midnightblue" points="757.22,-140.79 762.88,-131.83 752.87,-135.31 757.22,-140.79"/>
</g>
<!-- Node30 -->
<g id="node30" class="node">
<title>Node30</title>
<g id="a_node30"><a xlink:href="../../da/df0/ntv2virtualregisters_8h.html" target="_top" xlink:title="Declares enums for virtual registers used in all platform drivers and the SDK.">
<polygon fill="white" stroke="black" points="814,-112.5 814,-131.5 936,-131.5 936,-112.5 814,-112.5"/>
<text text-anchor="middle" x="875" y="-119.5" font-family="Helvetica,sans-Serif" font-size="10.00">ntv2virtualregisters.h</text>
</a>
</g>
</g>
<!-- Node24&#45;&gt;Node30 -->
<g id="edge43" class="edge">
<title>Node24&#45;&gt;Node30</title>
<path fill="none" stroke="midnightblue" d="M732.78,-168.44C761.33,-159.32 806.73,-144.81 838.54,-134.65"/>
<polygon fill="midnightblue" stroke="midnightblue" points="839.89,-137.89 848.35,-131.52 837.76,-131.23 839.89,-137.89"/>
</g>
<!-- Node30&#45;&gt;Node3 -->
<g id="edge44" class="edge">
<title>Node30&#45;&gt;Node3</title>
<path fill="none" stroke="midnightblue" d="M908.59,-112.44C945.19,-103.12 1003.84,-88.18 1043.83,-78"/>
<polygon fill="midnightblue" stroke="midnightblue" points="1044.74,-81.38 1053.57,-75.52 1043.01,-74.59 1044.74,-81.38"/>
</g>
<!-- Node31&#45;&gt;Node2 -->
<g id="edge46" class="edge">
<title>Node31&#45;&gt;Node2</title>
<path fill="none" stroke="midnightblue" d="M753.45,-224.44C716.81,-216.05 660.29,-202.46 612,-188 602.98,-185.3 299.78,-81.3 292,-76 273.42,-63.34 257.28,-43.01 247.17,-28.46"/>
<polygon fill="midnightblue" stroke="midnightblue" points="249.89,-26.24 241.42,-19.87 244.07,-30.13 249.89,-26.24"/>
</g>
<!-- Node31&#45;&gt;Node3 -->
<g id="edge47" class="edge">
<title>Node31&#45;&gt;Node3</title>
<path fill="none" stroke="midnightblue" d="M855.29,-224.48C915.58,-213.22 1005.18,-187.82 1061,-132 1073.48,-119.52 1080.17,-100.29 1083.62,-85.98"/>
<polygon fill="midnightblue" stroke="midnightblue" points="1087.13,-86.28 1085.74,-75.78 1080.28,-84.86 1087.13,-86.28"/>
</g>
<!-- Node31&#45;&gt;Node15 -->
<g id="edge48" class="edge">
<title>Node31&#45;&gt;Node15</title>
<path fill="none" stroke="midnightblue" d="M742.8,-224.46C696.84,-216.19 626.43,-202.76 566,-188 499.21,-171.69 422.49,-148.43 378.39,-134.6"/>
<polygon fill="midnightblue" stroke="midnightblue" points="379.28,-131.22 368.69,-131.55 377.18,-137.89 379.28,-131.22"/>
</g>
<!-- Node31&#45;&gt;Node17 -->
<g id="edge50" class="edge">
<title>Node31&#45;&gt;Node17</title>
<path fill="none" stroke="midnightblue" d="M727.66,-225.09C697.77,-218.87 663.15,-207.77 637,-188 585.35,-148.95 568.91,-67.44 563.98,-30.24"/>
<polygon fill="midnightblue" stroke="midnightblue" points="567.4,-29.36 562.75,-19.84 560.45,-30.18 567.4,-29.36"/>
</g>
<!-- Node31&#45;&gt;Node20 -->
<g id="edge52" class="edge">
<title>Node31&#45;&gt;Node20</title>
<path fill="none" stroke="midnightblue" d="M856.26,-225.09C931.19,-215.57 1050.35,-199.45 1094,-188 1145.52,-174.48 1202.9,-150.59 1236.08,-135.84"/>
<polygon fill="midnightblue" stroke="midnightblue" points="1237.88,-138.87 1245.57,-131.58 1235.01,-132.48 1237.88,-138.87"/>
</g>
<!-- Node31&#45;&gt;Node24 -->
<g id="edge49" class="edge">
<title>Node31&#45;&gt;Node24</title>
<path fill="none" stroke="midnightblue" d="M778.18,-224.32C764.77,-215.9 744.18,-202.97 728.41,-193.07"/>
<polygon fill="midnightblue" stroke="midnightblue" points="730.11,-190.01 719.78,-187.65 726.39,-195.94 730.11,-190.01"/>
</g>
<!-- Node31&#45;&gt;Node25 -->
<g id="edge51" class="edge">
<title>Node31&#45;&gt;Node25</title>
<path fill="none" stroke="midnightblue" d="M810.05,-224.37C850.27,-205.13 947.46,-158.65 994.96,-135.93"/>
<polygon fill="midnightblue" stroke="midnightblue" points="996.52,-139.06 1004.04,-131.59 993.5,-132.75 996.52,-139.06"/>
</g>
<!-- Node33&#45;&gt;Node5 -->
<g id="edge65" class="edge">
<title>Node33&#45;&gt;Node5</title>
<path fill="none" stroke="midnightblue" d="M1334.09,-280.32C1344.49,-272.18 1360.26,-259.84 1372.72,-250.09"/>
<polygon fill="midnightblue" stroke="midnightblue" points="1374.99,-252.75 1380.71,-243.83 1370.68,-247.24 1374.99,-252.75"/>
</g>
<!-- Node34 -->
<g id="node34" class="node">
<title>Node34</title>
<g id="a_node34"><a xlink:href="../../d4/d79/public_8h.html" target="_top" xlink:title="Master header for the ajabase library.">
<polygon fill="white" stroke="black" points="1374,-168.5 1374,-187.5 1516,-187.5 1516,-168.5 1374,-168.5"/>
<text text-anchor="middle" x="1445" y="-175.5" font-family="Helvetica,sans-Serif" font-size="10.00">ajabase/common/public.h</text>
</a>
</g>
</g>
<!-- Node33&#45;&gt;Node34 -->
<g id="edge58" class="edge">
<title>Node33&#45;&gt;Node34</title>
<path fill="none" stroke="midnightblue" d="M1325.3,-280.36C1329.29,-266.81 1338.69,-240.42 1355,-224 1369.65,-209.26 1390.12,-198.5 1407.84,-191.21"/>
<polygon fill="midnightblue" stroke="midnightblue" points="1409.29,-194.4 1417.34,-187.51 1406.76,-187.87 1409.29,-194.4"/>
</g>
<!-- Node34&#45;&gt;Node17 -->
<g id="edge60" class="edge">
<title>Node34&#45;&gt;Node17</title>
<path fill="none" stroke="midnightblue" d="M1422.4,-168.49C1399.96,-159.87 1364.73,-145.87 1335,-132 1317.7,-123.93 1314.19,-120.3 1297,-112 1241.45,-85.17 1229.85,-70.94 1170,-56 1059.31,-28.37 703.91,-15.37 594.42,-11.95"/>
<polygon fill="midnightblue" stroke="midnightblue" points="594.42,-8.44 584.32,-11.64 594.21,-15.44 594.42,-8.44"/>
</g>
<!-- Node34&#45;&gt;Node20 -->
<g id="edge62" class="edge">
<title>Node34&#45;&gt;Node20</title>
<path fill="none" stroke="midnightblue" d="M1416.32,-168.44C1384.07,-158.82 1331.76,-143.21 1297.61,-133.03"/>
<polygon fill="midnightblue" stroke="midnightblue" points="1298.23,-129.56 1287.64,-130.05 1296.22,-136.27 1298.23,-129.56"/>
</g>
<!-- Node34&#45;&gt;Node27 -->
<g id="edge63" class="edge">
<title>Node34&#45;&gt;Node27</title>
<path fill="none" stroke="midnightblue" d="M1398.59,-168.48C1355.25,-160.22 1288.88,-146.8 1232,-132 1231.9,-131.97 1231.8,-131.95 1231.7,-131.92"/>
<polygon fill="midnightblue" stroke="midnightblue" points="1232.85,-128.61 1222.27,-129.25 1230.94,-135.34 1232.85,-128.61"/>
</g>
<!-- Node35 -->
<g id="node35" class="node">
<title>Node35</title>
<g id="a_node35"><a xlink:href="../../db/db5/export_8h.html" target="_top" xlink:title="Declares system&#45;dependent import/export macros and libraries.">
<polygon fill="white" stroke="black" points="1344,-112.5 1344,-131.5 1488,-131.5 1488,-112.5 1344,-112.5"/>
<text text-anchor="middle" x="1416" y="-119.5" font-family="Helvetica,sans-Serif" font-size="10.00">ajabase/common/export.h</text>
</a>
</g>
</g>
<!-- Node34&#45;&gt;Node35 -->
<g id="edge59" class="edge">
<title>Node34&#45;&gt;Node35</title>
<path fill="none" stroke="midnightblue" d="M1440.21,-168.08C1436.24,-160.69 1430.47,-149.95 1425.57,-140.81"/>
<polygon fill="midnightblue" stroke="midnightblue" points="1428.51,-138.91 1420.7,-131.75 1422.35,-142.22 1428.51,-138.91"/>
</g>
<!-- Node36 -->
<g id="node36" class="node">
<title>Node36</title>
<g id="a_node36"><a xlink:title=" ">
<polygon fill="white" stroke="#bfbfbf" points="1506,-112.5 1506,-131.5 1538,-131.5 1538,-112.5 1506,-112.5"/>
<text text-anchor="middle" x="1522" y="-119.5" font-family="Helvetica,sans-Serif" font-size="10.00">list</text>
</a>
</g>
</g>
<!-- Node34&#45;&gt;Node36 -->
<g id="edge61" class="edge">
<title>Node34&#45;&gt;Node36</title>
<path fill="none" stroke="midnightblue" d="M1457.37,-168.32C1469.16,-160.06 1487.13,-147.45 1501.14,-137.63"/>
<polygon fill="midnightblue" stroke="midnightblue" points="1503.48,-140.26 1509.66,-131.65 1499.46,-134.53 1503.48,-140.26"/>
</g>
<!-- Node37 -->
<g id="node37" class="node">
<title>Node37</title>
<g id="a_node37"><a xlink:href="../../d9/d49/types_8h.html" target="_top" xlink:title="Declares common types used in the ajabase library.">
<polygon fill="white" stroke="black" points="1556,-112.5 1556,-131.5 1696,-131.5 1696,-112.5 1556,-112.5"/>
<text text-anchor="middle" x="1626" y="-119.5" font-family="Helvetica,sans-Serif" font-size="10.00">ajabase/common/types.h</text>
</a>
</g>
</g>
<!-- Node34&#45;&gt;Node37 -->
<g id="edge64" class="edge">
<title>Node34&#45;&gt;Node37</title>
<path fill="none" stroke="midnightblue" d="M1473.68,-168.44C1504.53,-159.24 1553.73,-144.56 1587.83,-134.39"/>
<polygon fill="midnightblue" stroke="midnightblue" points="1588.87,-137.73 1597.45,-131.52 1586.87,-131.02 1588.87,-137.73"/>
</g>
<!-- Node38&#45;&gt;Node2 -->
<g id="edge72" class="edge">
<title>Node38&#45;&gt;Node2</title>
<path fill="none" stroke="midnightblue" d="M142.72,-224.45C125.71,-217.55 105.17,-205.97 95,-188 90.62,-180.26 92.63,-176.57 95,-168 110.45,-112.09 121.13,-97.16 162,-56 175.04,-42.87 192.64,-31.97 207.4,-24.18"/>
<polygon fill="midnightblue" stroke="midnightblue" points="209.27,-27.16 216.62,-19.52 206.11,-20.91 209.27,-27.16"/>
</g>
<!-- Node38&#45;&gt;Node3 -->
<g id="edge73" class="edge">
<title>Node38&#45;&gt;Node3</title>
<path fill="none" stroke="midnightblue" d="M195.97,-224.35C264.34,-201.95 455.36,-141.7 619,-112 773.23,-84.01 959.42,-72.69 1042.84,-68.78"/>
<polygon fill="midnightblue" stroke="midnightblue" points="1043.13,-72.27 1052.96,-68.32 1042.81,-65.28 1043.13,-72.27"/>
</g>
<!-- Node38&#45;&gt;Node15 -->
<g id="edge74" class="edge">
<title>Node38&#45;&gt;Node15</title>
<path fill="none" stroke="midnightblue" d="M183.5,-224.37C213.01,-205.49 283.54,-160.38 319.74,-137.24"/>
<polygon fill="midnightblue" stroke="midnightblue" points="322.03,-139.93 328.57,-131.59 318.26,-134.03 322.03,-139.93"/>
</g>
<!-- Node39 -->
<g id="node39" class="node">
<title>Node39</title>
<g id="a_node39"><a xlink:href="../../d9/dfb/ntv2devicefeatures_8hh.html" target="_top" xlink:title="Declares NTV2DeviceCanDo... and NTV2DeviceGetNum... functions. This module is included at compile tim...">
<polygon fill="white" stroke="black" points="104,-168.5 104,-187.5 230,-187.5 230,-168.5 104,-168.5"/>
<text text-anchor="middle" x="167" y="-175.5" font-family="Helvetica,sans-Serif" font-size="10.00">ntv2devicefeatures.hh</text>
</a>
</g>
</g>
<!-- Node38&#45;&gt;Node39 -->
<g id="edge75" class="edge">
<title>Node38&#45;&gt;Node39</title>
<path fill="none" stroke="midnightblue" d="M169.5,-224.08C169.11,-217.01 168.55,-206.86 168.05,-197.99"/>
<polygon fill="midnightblue" stroke="midnightblue" points="171.54,-197.54 167.49,-187.75 164.55,-197.93 171.54,-197.54"/>
</g>
<!-- Node39&#45;&gt;Node2 -->
<g id="edge76" class="edge">
<title>Node39&#45;&gt;Node2</title>
<path fill="none" stroke="midnightblue" d="M160,-168.09C151,-155.49 137.4,-131.8 145,-112 159.12,-75.24 193.49,-43.49 215.72,-25.84"/>
<polygon fill="midnightblue" stroke="midnightblue" points="218.06,-28.45 223.85,-19.58 213.79,-22.9 218.06,-28.45"/>
</g>
<!-- Node39&#45;&gt;Node15 -->
<g id="edge77" class="edge">
<title>Node39&#45;&gt;Node15</title>
<path fill="none" stroke="midnightblue" d="M194.73,-168.44C224.43,-159.28 271.72,-144.69 304.67,-134.52"/>
<polygon fill="midnightblue" stroke="midnightblue" points="305.88,-137.81 314.4,-131.52 303.81,-131.12 305.88,-137.81"/>
</g>
<!-- Node41&#45;&gt;Node9 -->
<g id="edge83" class="edge">
<title>Node41&#45;&gt;Node9</title>
<path fill="none" stroke="midnightblue" d="M328.3,-392.44C309.06,-383.64 278.85,-369.81 256.8,-359.72"/>
<polygon fill="midnightblue" stroke="midnightblue" points="258.16,-356.5 247.61,-355.52 255.25,-362.86 258.16,-356.5"/>
</g>
<!-- Node41&#45;&gt;Node24 -->
<g id="edge82" class="edge">
<title>Node41&#45;&gt;Node24</title>
<path fill="none" stroke="midnightblue" d="M342.31,-392.18C335.94,-378.85 326.57,-353.3 338,-336 404.2,-235.79 548.85,-199.33 635.78,-186.21"/>
<polygon fill="midnightblue" stroke="midnightblue" points="636.42,-189.65 645.82,-184.76 635.42,-182.73 636.42,-189.65"/>
</g>
</g>
</svg>
