<?xml version="1.0" encoding="UTF-8" standalone="no"?>
<!DOCTYPE svg PUBLIC "-//W3C//DTD SVG 1.1//EN"
 "http://www.w3.org/Graphics/SVG/1.1/DTD/svg11.dtd">
<!-- Generated by graphviz version 2.43.0 (0)
 -->
<!-- Title: /home/tcbuilder/buildAgent/work/df8e8cce5bebfd58/libajantv2/ajaanc/src/ancillarydata_timecode_atc.cpp Pages: 1 -->
<!--zoomable 509 -->
<svg id="main" version="1.1" xmlns="http://www.w3.org/2000/svg" xmlns:xlink="http://www.w3.org/1999/xlink" xml:space="preserve" onload="init(evt)">
<style type="text/css"><![CDATA[
.edge:hover path { stroke: red; }
.edge:hover polygon { stroke: red; fill: red; }
]]></style>
<script type="text/javascript"><![CDATA[
var edges = document.getElementsByTagName('g');
if (edges && edges.length) {
  for (var i=0;i<edges.length;i++) {
    if (edges[i].id.substr(0,4)=='edge') {
      edges[i].setAttribute('class','edge');
    }
  }
}
]]></script>
        <defs>
                <circle id="rim" cx="0" cy="0" r="7"/>
                <circle id="rim2" cx="0" cy="0" r="3.5"/>
                <g id="zoomPlus">
                        <use xlink:href="#rim" fill="#404040">
                                <set attributeName="fill" to="#808080" begin="zoomplus.mouseover" end="zoomplus.mouseout"/>
                        </use>
                        <path d="M-4,0h8M0,-4v8" fill="none" stroke="white" stroke-width="1.5" pointer-events="none"/>
                </g>
                <g id="zoomMin">
                        <use xlink:href="#rim" fill="#404040">
                                <set attributeName="fill" to="#808080" begin="zoomminus.mouseover" end="zoomminus.mouseout"/>
                        </use>
                        <path d="M-4,0h8" fill="none" stroke="white" stroke-width="1.5" pointer-events="none"/>
                </g>
                <g id="dirArrow">
                        <path fill="none" stroke="white" stroke-width="1.5" d="M0,-3.0v7 M-2.5,-0.5L0,-3.0L2.5,-0.5"/>
                </g>
               <g id="resetDef">
                       <use xlink:href="#rim2" fill="#404040">
                               <set attributeName="fill" to="#808080" begin="reset.mouseover" end="reset.mouseout"/>
                       </use>
               </g>
        </defs>

<script type="text/javascript">
var viewWidth = 1284;
var viewHeight = 509;
var sectionId = 'dynsection-0';
</script>
<script xlink:href="../../svgpan.js"/>
<svg id="graph" class="graph">
<g id="viewport">
<title>/home/tcbuilder/buildAgent/work/df8e8cce5bebfd58/libajantv2/ajaanc/src/ancillarydata_timecode_atc.cpp</title>
<polygon fill="white" stroke="transparent" points="-4,4 -4,-505 1280,-505 1280,4 -4,4"/>
<!-- Node1 -->
<g id="node1" class="node">
<title>Node1</title>
<g id="a_node1"><a xlink:title="Implements the AJAAncillaryData_Timecode_ATC class.">
<polygon fill="#bfbfbf" stroke="black" points="754.5,-459.5 754.5,-500.5 981.5,-500.5 981.5,-459.5 754.5,-459.5"/>
<text text-anchor="start" x="762.5" y="-488.5" font-family="Helvetica,sans-Serif" font-size="10.00">/home/tcbuilder/buildAgent</text>
<text text-anchor="start" x="762.5" y="-477.5" font-family="Helvetica,sans-Serif" font-size="10.00">/work/df8e8cce5bebfd58/libajantv2</text>
<text text-anchor="middle" x="868" y="-466.5" font-family="Helvetica,sans-Serif" font-size="10.00">/ajaanc/src/ancillarydata_timecode_atc.cpp</text>
</a>
</g>
</g>
<!-- Node2 -->
<g id="node2" class="node">
<title>Node2</title>
<g id="a_node2"><a xlink:href="../../d5/d41/ancillarydata__timecode__atc_8h.html" target="_top" xlink:title="Declares the AJAAncillaryData_Timecode_ATC class.">
<polygon fill="white" stroke="black" points="548.5,-392.5 548.5,-422.5 679.5,-422.5 679.5,-392.5 548.5,-392.5"/>
<text text-anchor="start" x="556.5" y="-410.5" font-family="Helvetica,sans-Serif" font-size="10.00">ancillarydata_timecode</text>
<text text-anchor="middle" x="614" y="-399.5" font-family="Helvetica,sans-Serif" font-size="10.00">_atc.h</text>
</a>
</g>
</g>
<!-- Node1&#45;&gt;Node2 -->
<g id="edge1" class="edge">
<title>Node1&#45;&gt;Node2</title>
<path fill="none" stroke="midnightblue" d="M797.58,-459.46C758.9,-448.72 711.42,-435.54 674.44,-425.28"/>
<polygon fill="midnightblue" stroke="midnightblue" points="675.36,-421.9 664.79,-422.6 673.49,-428.64 675.36,-421.9"/>
</g>
<!-- Node11 -->
<g id="node11" class="node">
<title>Node11</title>
<g id="a_node11"><a xlink:href="../../d4/dd7/ntv2publicinterface_8h.html" target="_top" xlink:title="Declares enums and structs used by all platform drivers and the SDK.">
<polygon fill="white" stroke="black" points="742,-168.5 742,-187.5 862,-187.5 862,-168.5 742,-168.5"/>
<text text-anchor="middle" x="802" y="-175.5" font-family="Helvetica,sans-Serif" font-size="10.00">ntv2publicinterface.h</text>
</a>
</g>
</g>
<!-- Node1&#45;&gt;Node11 -->
<g id="edge43" class="edge">
<title>Node1&#45;&gt;Node11</title>
<path fill="none" stroke="midnightblue" d="M856.9,-459.11C843.86,-433.85 824,-388.55 824,-347 824,-347 824,-347 824,-289 824,-256.33 814.55,-219.24 808.04,-197.55"/>
<polygon fill="midnightblue" stroke="midnightblue" points="811.29,-196.22 804.97,-187.72 804.61,-198.31 811.29,-196.22"/>
</g>
<!-- Node17 -->
<g id="node17" class="node">
<title>Node17</title>
<g id="a_node17"><a xlink:title=" ">
<polygon fill="white" stroke="#bfbfbf" points="1220,-112.5 1220,-131.5 1276,-131.5 1276,-112.5 1220,-112.5"/>
<text text-anchor="middle" x="1248" y="-119.5" font-family="Helvetica,sans-Serif" font-size="10.00">iomanip</text>
</a>
</g>
</g>
<!-- Node1&#45;&gt;Node17 -->
<g id="edge45" class="edge">
<title>Node1&#45;&gt;Node17</title>
<path fill="none" stroke="midnightblue" d="M873.33,-459.49C879.84,-433.88 890,-387.43 890,-347 890,-347 890,-347 890,-233 890,-216.39 1118.09,-156.21 1210.15,-132.6"/>
<polygon fill="midnightblue" stroke="midnightblue" points="1211.09,-135.97 1219.91,-130.1 1209.35,-129.19 1211.09,-135.97"/>
</g>
<!-- Node29 -->
<g id="node29" class="node">
<title>Node29</title>
<g id="a_node29"><a xlink:title=" ">
<polygon fill="white" stroke="#bfbfbf" points="918.5,-398 918.5,-417 949.5,-417 949.5,-398 918.5,-398"/>
<text text-anchor="middle" x="934" y="-405" font-family="Helvetica,sans-Serif" font-size="10.00">ios</text>
</a>
</g>
</g>
<!-- Node1&#45;&gt;Node29 -->
<g id="edge44" class="edge">
<title>Node1&#45;&gt;Node29</title>
<path fill="none" stroke="midnightblue" d="M886.38,-459.36C896.62,-448.43 909.2,-434.99 918.86,-424.67"/>
<polygon fill="midnightblue" stroke="midnightblue" points="921.6,-426.87 925.88,-417.17 916.49,-422.08 921.6,-426.87"/>
</g>
<!-- Node3 -->
<g id="node3" class="node">
<title>Node3</title>
<g id="a_node3"><a xlink:href="../../df/d78/ancillarydatafactory_8h.html" target="_top" xlink:title="Declaration of the AJAAncillaryDataFactory class.">
<polygon fill="white" stroke="black" points="493,-280.5 493,-299.5 615,-299.5 615,-280.5 493,-280.5"/>
<text text-anchor="middle" x="554" y="-287.5" font-family="Helvetica,sans-Serif" font-size="10.00">ancillarydatafactory.h</text>
</a>
</g>
</g>
<!-- Node2&#45;&gt;Node3 -->
<g id="edge2" class="edge">
<title>Node2&#45;&gt;Node3</title>
<path fill="none" stroke="midnightblue" d="M606.64,-392.34C595.68,-371.24 575.09,-331.6 563.17,-308.65"/>
<polygon fill="midnightblue" stroke="midnightblue" points="566.22,-306.93 558.5,-299.67 560.01,-310.16 566.22,-306.93"/>
</g>
<!-- Node4 -->
<g id="node4" class="node">
<title>Node4</title>
<g id="a_node4"><a xlink:href="../../d7/d92/ancillarydata_8h.html" target="_top" xlink:title="Declares the AJAAncillaryData class.">
<polygon fill="white" stroke="black" points="509.5,-224.5 509.5,-243.5 598.5,-243.5 598.5,-224.5 509.5,-224.5"/>
<text text-anchor="middle" x="554" y="-231.5" font-family="Helvetica,sans-Serif" font-size="10.00">ancillarydata.h</text>
</a>
</g>
</g>
<!-- Node2&#45;&gt;Node4 -->
<g id="edge28" class="edge">
<title>Node2&#45;&gt;Node4</title>
<path fill="none" stroke="midnightblue" d="M619.94,-392.16C629.15,-367.53 643.85,-316.35 624,-280 616.18,-265.68 601.64,-255.24 587.82,-248.04"/>
<polygon fill="midnightblue" stroke="midnightblue" points="589,-244.72 578.47,-243.56 585.98,-251.03 589,-244.72"/>
</g>
<!-- Node22 -->
<g id="node22" class="node">
<title>Node22</title>
<g id="a_node22"><a xlink:href="../../d4/d23/ancillarydata__timecode_8h.html" target="_top" xlink:title="Declares the AJAAncillaryData_Timecode class.">
<polygon fill="white" stroke="black" points="395,-336.5 395,-355.5 535,-355.5 535,-336.5 395,-336.5"/>
<text text-anchor="middle" x="465" y="-343.5" font-family="Helvetica,sans-Serif" font-size="10.00">ancillarydata_timecode.h</text>
</a>
</g>
</g>
<!-- Node2&#45;&gt;Node22 -->
<g id="edge29" class="edge">
<title>Node2&#45;&gt;Node22</title>
<path fill="none" stroke="midnightblue" d="M578.69,-392.4C553.58,-382.37 520.16,-369.03 496.06,-359.4"/>
<polygon fill="midnightblue" stroke="midnightblue" points="497.27,-356.12 486.68,-355.66 494.67,-362.62 497.27,-356.12"/>
</g>
<!-- Node3&#45;&gt;Node4 -->
<g id="edge3" class="edge">
<title>Node3&#45;&gt;Node4</title>
<path fill="none" stroke="midnightblue" d="M554,-280.08C554,-273.01 554,-262.86 554,-253.99"/>
<polygon fill="midnightblue" stroke="midnightblue" points="557.5,-253.75 554,-243.75 550.5,-253.75 557.5,-253.75"/>
</g>
<!-- Node5 -->
<g id="node5" class="node">
<title>Node5</title>
<g id="a_node5"><a xlink:href="../../db/de2/ajatypes_8h.html" target="_top" xlink:title="Declares the most fundamental data types used by NTV2. Since Windows NT was the first principal devel...">
<polygon fill="white" stroke="black" points="780,-56.5 780,-75.5 848,-75.5 848,-56.5 780,-56.5"/>
<text text-anchor="middle" x="814" y="-63.5" font-family="Helvetica,sans-Serif" font-size="10.00">ajatypes.h</text>
</a>
</g>
</g>
<!-- Node4&#45;&gt;Node5 -->
<g id="edge4" class="edge">
<title>Node4&#45;&gt;Node5</title>
<path fill="none" stroke="midnightblue" d="M569.93,-224.36C586.03,-215.54 611.52,-201.28 633,-188 692.37,-151.31 760.26,-104.6 793.49,-81.41"/>
<polygon fill="midnightblue" stroke="midnightblue" points="795.72,-84.12 801.91,-75.52 791.71,-78.39 795.72,-84.12"/>
</g>
<!-- Node7 -->
<g id="node7" class="node">
<title>Node7</title>
<g id="a_node7"><a xlink:href="../../d6/db1/ntv2version_8h.html" target="_top" xlink:title="Defines for the NTV2 SDK version number, used by ajantv2/includes/ntv2enums.h. See the ajantv2/includ...">
<polygon fill="white" stroke="black" points="606.5,-56.5 606.5,-75.5 689.5,-75.5 689.5,-56.5 606.5,-56.5"/>
<text text-anchor="middle" x="648" y="-63.5" font-family="Helvetica,sans-Serif" font-size="10.00">ntv2version.h</text>
</a>
</g>
</g>
<!-- Node4&#45;&gt;Node7 -->
<g id="edge6" class="edge">
<title>Node4&#45;&gt;Node7</title>
<path fill="none" stroke="midnightblue" d="M553.28,-224.3C552.53,-211.55 552.27,-187.23 559,-168 571.88,-131.19 605.77,-99.46 627.82,-81.82"/>
<polygon fill="midnightblue" stroke="midnightblue" points="630.14,-84.46 635.9,-75.57 625.85,-78.92 630.14,-84.46"/>
</g>
<!-- Node10 -->
<g id="node10" class="node">
<title>Node10</title>
<g id="a_node10"><a xlink:href="../../d9/d49/types_8h.html" target="_top" xlink:title="Declares common types used in the ajabase library.">
<polygon fill="white" stroke="black" points="250,-112.5 250,-131.5 390,-131.5 390,-112.5 250,-112.5"/>
<text text-anchor="middle" x="320" y="-119.5" font-family="Helvetica,sans-Serif" font-size="10.00">ajabase/common/types.h</text>
</a>
</g>
</g>
<!-- Node4&#45;&gt;Node10 -->
<g id="edge9" class="edge">
<title>Node4&#45;&gt;Node10</title>
<path fill="none" stroke="midnightblue" d="M535.64,-224.37C494.71,-205.13 395.83,-158.65 347.51,-135.93"/>
<polygon fill="midnightblue" stroke="midnightblue" points="348.82,-132.68 338.28,-131.59 345.84,-139.01 348.82,-132.68"/>
</g>
<!-- Node4&#45;&gt;Node11 -->
<g id="edge10" class="edge">
<title>Node4&#45;&gt;Node11</title>
<path fill="none" stroke="midnightblue" d="M593.3,-224.44C636.56,-215.02 706.17,-199.87 752.97,-189.68"/>
<polygon fill="midnightblue" stroke="midnightblue" points="753.86,-193.06 762.89,-187.52 752.37,-186.22 753.86,-193.06"/>
</g>
<!-- Node16 -->
<g id="node16" class="node">
<title>Node16</title>
<g id="a_node16"><a xlink:title=" ">
<polygon fill="white" stroke="#bfbfbf" points="408.5,-112.5 408.5,-131.5 455.5,-131.5 455.5,-112.5 408.5,-112.5"/>
<text text-anchor="middle" x="432" y="-119.5" font-family="Helvetica,sans-Serif" font-size="10.00">vector</text>
</a>
</g>
</g>
<!-- Node4&#45;&gt;Node16 -->
<g id="edge27" class="edge">
<title>Node4&#45;&gt;Node16</title>
<path fill="none" stroke="midnightblue" d="M544.43,-224.37C523.85,-205.81 475.16,-161.91 449.12,-138.44"/>
<polygon fill="midnightblue" stroke="midnightblue" points="451.3,-135.69 441.53,-131.59 446.61,-140.89 451.3,-135.69"/>
</g>
<!-- Node21 -->
<g id="node21" class="node">
<title>Node21</title>
<g id="a_node21"><a xlink:title=" ">
<polygon fill="white" stroke="#bfbfbf" points="568,-168.5 568,-187.5 624,-187.5 624,-168.5 568,-168.5"/>
<text text-anchor="middle" x="596" y="-175.5" font-family="Helvetica,sans-Serif" font-size="10.00">sstream</text>
</a>
</g>
</g>
<!-- Node4&#45;&gt;Node21 -->
<g id="edge26" class="edge">
<title>Node4&#45;&gt;Node21</title>
<path fill="none" stroke="midnightblue" d="M560.94,-224.08C566.93,-216.38 575.75,-205.03 583.05,-195.65"/>
<polygon fill="midnightblue" stroke="midnightblue" points="585.82,-197.79 589.19,-187.75 580.29,-193.5 585.82,-197.79"/>
</g>
<!-- Node6 -->
<g id="node6" class="node">
<title>Node6</title>
<g id="a_node6"><a xlink:title=" ">
<polygon fill="white" stroke="#bfbfbf" points="787.5,-0.5 787.5,-19.5 840.5,-19.5 840.5,-0.5 787.5,-0.5"/>
<text text-anchor="middle" x="814" y="-7.5" font-family="Helvetica,sans-Serif" font-size="10.00">stdint.h</text>
</a>
</g>
</g>
<!-- Node5&#45;&gt;Node6 -->
<g id="edge5" class="edge">
<title>Node5&#45;&gt;Node6</title>
<path fill="none" stroke="midnightblue" d="M814,-56.08C814,-49.01 814,-38.86 814,-29.99"/>
<polygon fill="midnightblue" stroke="midnightblue" points="817.5,-29.75 814,-19.75 810.5,-29.75 817.5,-29.75"/>
</g>
<!-- Node8 -->
<g id="node8" class="node">
<title>Node8</title>
<g id="a_node8"><a xlink:href="../../d6/dd9/ajaexport_8h.html" target="_top" xlink:title="Defines the import/export macros for producing DLLs or LIBs.">
<polygon fill="white" stroke="black" points="658,-0.5 658,-19.5 730,-19.5 730,-0.5 658,-0.5"/>
<text text-anchor="middle" x="694" y="-7.5" font-family="Helvetica,sans-Serif" font-size="10.00">ajaexport.h</text>
</a>
</g>
</g>
<!-- Node7&#45;&gt;Node8 -->
<g id="edge7" class="edge">
<title>Node7&#45;&gt;Node8</title>
<path fill="none" stroke="midnightblue" d="M655.6,-56.08C662.23,-48.3 672.02,-36.8 680.06,-27.37"/>
<polygon fill="midnightblue" stroke="midnightblue" points="682.73,-29.63 686.55,-19.75 677.4,-25.09 682.73,-29.63"/>
</g>
<!-- Node9 -->
<g id="node9" class="node">
<title>Node9</title>
<g id="a_node9"><a xlink:title=" ">
<polygon fill="white" stroke="#bfbfbf" points="556,-0.5 556,-19.5 600,-19.5 600,-0.5 556,-0.5"/>
<text text-anchor="middle" x="578" y="-7.5" font-family="Helvetica,sans-Serif" font-size="10.00">string</text>
</a>
</g>
</g>
<!-- Node7&#45;&gt;Node9 -->
<g id="edge8" class="edge">
<title>Node7&#45;&gt;Node9</title>
<path fill="none" stroke="midnightblue" d="M636.75,-56.32C626.2,-48.18 610.2,-35.84 597.56,-26.09"/>
<polygon fill="midnightblue" stroke="midnightblue" points="599.51,-23.17 589.45,-19.83 595.23,-28.71 599.51,-23.17"/>
</g>
<!-- Node11&#45;&gt;Node5 -->
<g id="edge11" class="edge">
<title>Node11&#45;&gt;Node5</title>
<path fill="none" stroke="midnightblue" d="M802.94,-168.17C804.28,-155.66 806.8,-132.08 809,-112 809.94,-103.4 811,-93.87 811.9,-85.8"/>
<polygon fill="midnightblue" stroke="midnightblue" points="815.4,-85.95 813.03,-75.63 808.44,-85.18 815.4,-85.95"/>
</g>
<!-- Node11&#45;&gt;Node8 -->
<g id="edge23" class="edge">
<title>Node11&#45;&gt;Node8</title>
<path fill="none" stroke="midnightblue" d="M796.19,-168.08C778.97,-141.61 727.97,-63.21 705.2,-28.21"/>
<polygon fill="midnightblue" stroke="midnightblue" points="707.96,-26.04 699.57,-19.57 702.09,-29.86 707.96,-26.04"/>
</g>
<!-- Node11&#45;&gt;Node9 -->
<g id="edge19" class="edge">
<title>Node11&#45;&gt;Node9</title>
<path fill="none" stroke="midnightblue" d="M741.77,-171.27C688.57,-164.92 616.51,-152.73 597,-132 570.97,-104.35 572.01,-56.4 575.02,-29.92"/>
<polygon fill="midnightblue" stroke="midnightblue" points="578.53,-30.09 576.4,-19.71 571.59,-29.15 578.53,-30.09"/>
</g>
<!-- Node12 -->
<g id="node12" class="node">
<title>Node12</title>
<g id="a_node12"><a xlink:href="../../d6/d0c/ntv2enums_8h.html" target="_top" xlink:title="Enumerations for controlling NTV2 devices.">
<polygon fill="white" stroke="black" points="606,-112.5 606,-131.5 686,-131.5 686,-112.5 606,-112.5"/>
<text text-anchor="middle" x="646" y="-119.5" font-family="Helvetica,sans-Serif" font-size="10.00">ntv2enums.h</text>
</a>
</g>
</g>
<!-- Node11&#45;&gt;Node12 -->
<g id="edge12" class="edge">
<title>Node11&#45;&gt;Node12</title>
<path fill="none" stroke="midnightblue" d="M777.28,-168.44C751.15,-159.4 709.74,-145.06 680.42,-134.92"/>
<polygon fill="midnightblue" stroke="midnightblue" points="681.2,-131.48 670.6,-131.52 678.91,-138.1 681.2,-131.48"/>
</g>
<!-- Node13 -->
<g id="node13" class="node">
<title>Node13</title>
<g id="a_node13"><a xlink:title=" ">
<polygon fill="white" stroke="#bfbfbf" points="958,-112.5 958,-131.5 1018,-131.5 1018,-112.5 958,-112.5"/>
<text text-anchor="middle" x="988" y="-119.5" font-family="Helvetica,sans-Serif" font-size="10.00">iostream</text>
</a>
</g>
</g>
<!-- Node11&#45;&gt;Node13 -->
<g id="edge15" class="edge">
<title>Node11&#45;&gt;Node13</title>
<path fill="none" stroke="midnightblue" d="M831.47,-168.44C863.17,-159.24 913.73,-144.56 948.77,-134.39"/>
<polygon fill="midnightblue" stroke="midnightblue" points="950.04,-137.67 958.67,-131.52 948.09,-130.94 950.04,-137.67"/>
</g>
<!-- Node14 -->
<g id="node14" class="node">
<title>Node14</title>
<g id="a_node14"><a xlink:title=" ">
<polygon fill="white" stroke="#bfbfbf" points="1036,-112.5 1036,-131.5 1068,-131.5 1068,-112.5 1036,-112.5"/>
<text text-anchor="middle" x="1052" y="-119.5" font-family="Helvetica,sans-Serif" font-size="10.00">set</text>
</a>
</g>
</g>
<!-- Node11&#45;&gt;Node14 -->
<g id="edge16" class="edge">
<title>Node11&#45;&gt;Node14</title>
<path fill="none" stroke="midnightblue" d="M856.17,-168.49C899.84,-161.1 962.91,-149.25 1026.22,-131.88"/>
<polygon fill="midnightblue" stroke="midnightblue" points="1027.28,-135.22 1035.98,-129.16 1025.4,-128.48 1027.28,-135.22"/>
</g>
<!-- Node15 -->
<g id="node15" class="node">
<title>Node15</title>
<g id="a_node15"><a xlink:title=" ">
<polygon fill="white" stroke="#bfbfbf" points="474,-112.5 474,-131.5 512,-131.5 512,-112.5 474,-112.5"/>
<text text-anchor="middle" x="493" y="-119.5" font-family="Helvetica,sans-Serif" font-size="10.00">map</text>
</a>
</g>
</g>
<!-- Node11&#45;&gt;Node15 -->
<g id="edge17" class="edge">
<title>Node11&#45;&gt;Node15</title>
<path fill="none" stroke="midnightblue" d="M753.04,-168.44C688.08,-157.09 575.45,-137.41 522.33,-128.13"/>
<polygon fill="midnightblue" stroke="midnightblue" points="522.69,-124.64 512.23,-126.36 521.48,-131.53 522.69,-124.64"/>
</g>
<!-- Node11&#45;&gt;Node16 -->
<g id="edge18" class="edge">
<title>Node11&#45;&gt;Node16</title>
<path fill="none" stroke="midnightblue" d="M741.94,-171.43C676.34,-164.79 568.07,-152.23 465.6,-131.87"/>
<polygon fill="midnightblue" stroke="midnightblue" points="466.2,-128.42 455.7,-129.87 464.81,-135.28 466.2,-128.42"/>
</g>
<!-- Node11&#45;&gt;Node17 -->
<g id="edge20" class="edge">
<title>Node11&#45;&gt;Node17</title>
<path fill="none" stroke="midnightblue" d="M862.17,-169.61C866.85,-169.06 871.5,-168.52 876,-168 1021.58,-151.33 1061.77,-157.47 1209.88,-131.99"/>
<polygon fill="midnightblue" stroke="midnightblue" points="1210.55,-135.43 1219.8,-130.26 1209.35,-128.53 1210.55,-135.43"/>
</g>
<!-- Node18 -->
<g id="node18" class="node">
<title>Node18</title>
<g id="a_node18"><a xlink:title=" ">
<polygon fill="white" stroke="#bfbfbf" points="1086,-112.5 1086,-131.5 1130,-131.5 1130,-112.5 1086,-112.5"/>
<text text-anchor="middle" x="1108" y="-119.5" font-family="Helvetica,sans-Serif" font-size="10.00">bitset</text>
</a>
</g>
</g>
<!-- Node11&#45;&gt;Node18 -->
<g id="edge21" class="edge">
<title>Node11&#45;&gt;Node18</title>
<path fill="none" stroke="midnightblue" d="M862.22,-169.27C915.9,-161.9 996.78,-149.62 1075.63,-132.09"/>
<polygon fill="midnightblue" stroke="midnightblue" points="1076.75,-135.43 1085.73,-129.81 1075.21,-128.6 1076.75,-135.43"/>
</g>
<!-- Node19 -->
<g id="node19" class="node">
<title>Node19</title>
<g id="a_node19"><a xlink:title=" ">
<polygon fill="white" stroke="#bfbfbf" points="1148.5,-112.5 1148.5,-131.5 1201.5,-131.5 1201.5,-112.5 1148.5,-112.5"/>
<text text-anchor="middle" x="1175" y="-119.5" font-family="Helvetica,sans-Serif" font-size="10.00">string.h</text>
</a>
</g>
</g>
<!-- Node11&#45;&gt;Node19 -->
<g id="edge22" class="edge">
<title>Node11&#45;&gt;Node19</title>
<path fill="none" stroke="midnightblue" d="M862.11,-169.35C945.02,-158.74 1089,-140.11 1138.37,-131.81"/>
<polygon fill="midnightblue" stroke="midnightblue" points="1139.11,-135.23 1148.34,-130.02 1137.88,-128.34 1139.11,-135.23"/>
</g>
<!-- Node20 -->
<g id="node20" class="node">
<title>Node20</title>
<g id="a_node20"><a xlink:href="../../da/df0/ntv2virtualregisters_8h.html" target="_top" xlink:title="Declares enums for virtual registers used in all platform drivers and the SDK.">
<polygon fill="white" stroke="black" points="818,-112.5 818,-131.5 940,-131.5 940,-112.5 818,-112.5"/>
<text text-anchor="middle" x="879" y="-119.5" font-family="Helvetica,sans-Serif" font-size="10.00">ntv2virtualregisters.h</text>
</a>
</g>
</g>
<!-- Node11&#45;&gt;Node20 -->
<g id="edge24" class="edge">
<title>Node11&#45;&gt;Node20</title>
<path fill="none" stroke="midnightblue" d="M814.37,-168.32C826.16,-160.06 844.13,-147.45 858.14,-137.63"/>
<polygon fill="midnightblue" stroke="midnightblue" points="860.48,-140.26 866.66,-131.65 856.46,-134.53 860.48,-140.26"/>
</g>
<!-- Node12&#45;&gt;Node5 -->
<g id="edge13" class="edge">
<title>Node12&#45;&gt;Node5</title>
<path fill="none" stroke="midnightblue" d="M672.62,-112.44C701.01,-103.32 746.14,-88.81 777.75,-78.65"/>
<polygon fill="midnightblue" stroke="midnightblue" points="779.06,-81.91 787.5,-75.52 776.91,-75.24 779.06,-81.91"/>
</g>
<!-- Node12&#45;&gt;Node7 -->
<g id="edge14" class="edge">
<title>Node12&#45;&gt;Node7</title>
<path fill="none" stroke="midnightblue" d="M646.33,-112.08C646.59,-105.01 646.97,-94.86 647.3,-85.99"/>
<polygon fill="midnightblue" stroke="midnightblue" points="650.8,-85.87 647.68,-75.75 643.81,-85.61 650.8,-85.87"/>
</g>
<!-- Node20&#45;&gt;Node5 -->
<g id="edge25" class="edge">
<title>Node20&#45;&gt;Node5</title>
<path fill="none" stroke="midnightblue" d="M868.56,-112.32C858.85,-104.26 844.18,-92.08 832.5,-82.37"/>
<polygon fill="midnightblue" stroke="midnightblue" points="834.56,-79.53 824.63,-75.83 830.09,-84.92 834.56,-79.53"/>
</g>
<!-- Node22&#45;&gt;Node3 -->
<g id="edge41" class="edge">
<title>Node22&#45;&gt;Node3</title>
<path fill="none" stroke="midnightblue" d="M479.3,-336.32C493.18,-327.9 514.49,-314.97 530.8,-305.07"/>
<polygon fill="midnightblue" stroke="midnightblue" points="533,-307.83 539.74,-299.65 529.37,-301.85 533,-307.83"/>
</g>
<!-- Node22&#45;&gt;Node4 -->
<g id="edge42" class="edge">
<title>Node22&#45;&gt;Node4</title>
<path fill="none" stroke="midnightblue" d="M465.63,-336.14C466.99,-322.76 471.19,-297.14 484,-280 494.19,-266.37 509.83,-255.75 523.74,-248.26"/>
<polygon fill="midnightblue" stroke="midnightblue" points="525.66,-251.21 533.01,-243.58 522.5,-244.97 525.66,-251.21"/>
</g>
<!-- Node23 -->
<g id="node23" class="node">
<title>Node23</title>
<g id="a_node23"><a xlink:href="../../d6/d23/timecode_8h.html" target="_top" xlink:title="Declares the AJATimeCode class.">
<polygon fill="white" stroke="black" points="241,-280.5 241,-299.5 399,-299.5 399,-280.5 241,-280.5"/>
<text text-anchor="middle" x="320" y="-287.5" font-family="Helvetica,sans-Serif" font-size="10.00">ajabase/common/timecode.h</text>
</a>
</g>
</g>
<!-- Node22&#45;&gt;Node23 -->
<g id="edge30" class="edge">
<title>Node22&#45;&gt;Node23</title>
<path fill="none" stroke="midnightblue" d="M442.02,-336.44C417.84,-327.44 379.58,-313.19 352.35,-303.05"/>
<polygon fill="midnightblue" stroke="midnightblue" points="353.46,-299.73 342.87,-299.52 351.02,-306.29 353.46,-299.73"/>
</g>
<!-- Node24 -->
<g id="node24" class="node">
<title>Node24</title>
<g id="a_node24"><a xlink:href="../../d4/d3c/timebase_8h.html" target="_top" xlink:title="Declares the AJATimeBase class.">
<polygon fill="white" stroke="black" points="241,-224.5 241,-243.5 399,-243.5 399,-224.5 241,-224.5"/>
<text text-anchor="middle" x="320" y="-231.5" font-family="Helvetica,sans-Serif" font-size="10.00">ajabase/common/timebase.h</text>
</a>
</g>
</g>
<!-- Node22&#45;&gt;Node24 -->
<g id="edge40" class="edge">
<title>Node22&#45;&gt;Node24</title>
<path fill="none" stroke="midnightblue" d="M459.18,-336.49C449.7,-323.13 429.79,-296.97 408,-280 390.87,-266.65 369.17,-255.51 351.6,-247.64"/>
<polygon fill="midnightblue" stroke="midnightblue" points="352.89,-244.39 342.32,-243.62 350.11,-250.81 352.89,-244.39"/>
</g>
<!-- Node23&#45;&gt;Node24 -->
<g id="edge31" class="edge">
<title>Node23&#45;&gt;Node24</title>
<path fill="none" stroke="midnightblue" d="M320,-280.08C320,-273.01 320,-262.86 320,-253.99"/>
<polygon fill="midnightblue" stroke="midnightblue" points="323.5,-253.75 320,-243.75 316.5,-253.75 323.5,-253.75"/>
</g>
<!-- Node25 -->
<g id="node25" class="node">
<title>Node25</title>
<g id="a_node25"><a xlink:href="../../d4/d79/public_8h.html" target="_top" xlink:title="Master header for the ajabase library.">
<polygon fill="white" stroke="black" points="249,-168.5 249,-187.5 391,-187.5 391,-168.5 249,-168.5"/>
<text text-anchor="middle" x="320" y="-175.5" font-family="Helvetica,sans-Serif" font-size="10.00">ajabase/common/public.h</text>
</a>
</g>
</g>
<!-- Node24&#45;&gt;Node25 -->
<g id="edge32" class="edge">
<title>Node24&#45;&gt;Node25</title>
<path fill="none" stroke="midnightblue" d="M320,-224.08C320,-217.01 320,-206.86 320,-197.99"/>
<polygon fill="midnightblue" stroke="midnightblue" points="323.5,-197.75 320,-187.75 316.5,-197.75 323.5,-197.75"/>
</g>
<!-- Node28 -->
<g id="node28" class="node">
<title>Node28</title>
<g id="a_node28"><a xlink:href="../../d6/da4/videotypes_8h.html" target="_top" xlink:title="Declares the enumeration constants used in the ajabase library.">
<polygon fill="white" stroke="black" points="63.5,-168.5 63.5,-187.5 230.5,-187.5 230.5,-168.5 63.5,-168.5"/>
<text text-anchor="middle" x="147" y="-175.5" font-family="Helvetica,sans-Serif" font-size="10.00">ajabase/common/videotypes.h</text>
</a>
</g>
</g>
<!-- Node24&#45;&gt;Node28 -->
<g id="edge39" class="edge">
<title>Node24&#45;&gt;Node28</title>
<path fill="none" stroke="midnightblue" d="M292.59,-224.44C263.23,-215.28 216.48,-200.69 183.9,-190.52"/>
<polygon fill="midnightblue" stroke="midnightblue" points="184.87,-187.16 174.28,-187.52 182.79,-193.84 184.87,-187.16"/>
</g>
<!-- Node25&#45;&gt;Node9 -->
<g id="edge34" class="edge">
<title>Node25&#45;&gt;Node9</title>
<path fill="none" stroke="midnightblue" d="M293.92,-168.42C264.45,-157.3 222.81,-136.44 241,-112 278.09,-62.16 469.04,-27.75 545.9,-15.72"/>
<polygon fill="midnightblue" stroke="midnightblue" points="546.61,-19.16 555.96,-14.17 545.54,-12.24 546.61,-19.16"/>
</g>
<!-- Node25&#45;&gt;Node10 -->
<g id="edge38" class="edge">
<title>Node25&#45;&gt;Node10</title>
<path fill="none" stroke="midnightblue" d="M320,-168.08C320,-161.01 320,-150.86 320,-141.99"/>
<polygon fill="midnightblue" stroke="midnightblue" points="323.5,-141.75 320,-131.75 316.5,-141.75 323.5,-141.75"/>
</g>
<!-- Node25&#45;&gt;Node15 -->
<g id="edge37" class="edge">
<title>Node25&#45;&gt;Node15</title>
<path fill="none" stroke="midnightblue" d="M347.41,-168.44C379.22,-158.51 431.45,-142.21 463.95,-132.07"/>
<polygon fill="midnightblue" stroke="midnightblue" points="465.25,-135.33 473.75,-129.01 463.16,-128.65 465.25,-135.33"/>
</g>
<!-- Node25&#45;&gt;Node16 -->
<g id="edge36" class="edge">
<title>Node25&#45;&gt;Node16</title>
<path fill="none" stroke="midnightblue" d="M337.99,-168.32C356.04,-159.62 384.05,-146.12 404.8,-136.11"/>
<polygon fill="midnightblue" stroke="midnightblue" points="406.56,-139.15 414.05,-131.65 403.52,-132.84 406.56,-139.15"/>
</g>
<!-- Node26 -->
<g id="node26" class="node">
<title>Node26</title>
<g id="a_node26"><a xlink:href="../../db/db5/export_8h.html" target="_top" xlink:title="Declares system&#45;dependent import/export macros and libraries.">
<polygon fill="white" stroke="black" points="0,-112.5 0,-131.5 144,-131.5 144,-112.5 0,-112.5"/>
<text text-anchor="middle" x="72" y="-119.5" font-family="Helvetica,sans-Serif" font-size="10.00">ajabase/common/export.h</text>
</a>
</g>
</g>
<!-- Node25&#45;&gt;Node26 -->
<g id="edge33" class="edge">
<title>Node25&#45;&gt;Node26</title>
<path fill="none" stroke="midnightblue" d="M280.7,-168.44C237.44,-159.02 167.83,-143.87 121.03,-133.68"/>
<polygon fill="midnightblue" stroke="midnightblue" points="121.63,-130.22 111.11,-131.52 120.14,-137.06 121.63,-130.22"/>
</g>
<!-- Node27 -->
<g id="node27" class="node">
<title>Node27</title>
<g id="a_node27"><a xlink:title=" ">
<polygon fill="white" stroke="#bfbfbf" points="162,-112.5 162,-131.5 194,-131.5 194,-112.5 162,-112.5"/>
<text text-anchor="middle" x="178" y="-119.5" font-family="Helvetica,sans-Serif" font-size="10.00">list</text>
</a>
</g>
</g>
<!-- Node25&#45;&gt;Node27 -->
<g id="edge35" class="edge">
<title>Node25&#45;&gt;Node27</title>
<path fill="none" stroke="midnightblue" d="M297.5,-168.44C271.98,-158.74 230.45,-142.95 203.68,-132.77"/>
<polygon fill="midnightblue" stroke="midnightblue" points="204.8,-129.45 194.21,-129.16 202.31,-135.99 204.8,-129.45"/>
</g>
</g>
</svg>
        <g id="navigator" transform="translate(0 0)" fill="#404254">
                <rect fill="#f2f5e9" fill-opacity="0.5" stroke="#606060" stroke-width=".5" x="0" y="0" width="60" height="60"/>
                <use id="zoomplus" xlink:href="#zoomPlus" x="17" y="9" onmousedown="handleZoom(evt,'in')"/>
                <use id="zoomminus" xlink:href="#zoomMin" x="42" y="9" onmousedown="handleZoom(evt,'out')"/>
                <use id="reset" xlink:href="#resetDef" x="30" y="36" onmousedown="handleReset()"/>
                <g id="arrowUp" xlink:href="#dirArrow" transform="translate(30 24)" onmousedown="handlePan(0,-1)">
                  <use xlink:href="#rim" fill="#404040">
                        <set attributeName="fill" to="#808080" begin="arrowUp.mouseover" end="arrowUp.mouseout"/>
                  </use>
                  <path fill="none" stroke="white" stroke-width="1.5" d="M0,-3.0v7 M-2.5,-0.5L0,-3.0L2.5,-0.5"/>
                </g>
                <g id="arrowRight" xlink:href="#dirArrow" transform="rotate(90) translate(36 -43)" onmousedown="handlePan(1,0)">
                  <use xlink:href="#rim" fill="#404040">
                        <set attributeName="fill" to="#808080" begin="arrowRight.mouseover" end="arrowRight.mouseout"/>
                  </use>
                  <path fill="none" stroke="white" stroke-width="1.5" d="M0,-3.0v7 M-2.5,-0.5L0,-3.0L2.5,-0.5"/>
                </g>
                <g id="arrowDown" xlink:href="#dirArrow" transform="rotate(180) translate(-30 -48)" onmousedown="handlePan(0,1)">
                  <use xlink:href="#rim" fill="#404040">
                        <set attributeName="fill" to="#808080" begin="arrowDown.mouseover" end="arrowDown.mouseout"/>
                  </use>
                  <path fill="none" stroke="white" stroke-width="1.5" d="M0,-3.0v7 M-2.5,-0.5L0,-3.0L2.5,-0.5"/>
                </g>
                <g id="arrowLeft" xlink:href="#dirArrow" transform="rotate(270) translate(-36 17)" onmousedown="handlePan(-1,0)">
                  <use xlink:href="#rim" fill="#404040">
                        <set attributeName="fill" to="#808080" begin="arrowLeft.mouseover" end="arrowLeft.mouseout"/>
                  </use>
                  <path fill="none" stroke="white" stroke-width="1.5" d="M0,-3.0v7 M-2.5,-0.5L0,-3.0L2.5,-0.5"/>
                </g>
        </g>
        <svg viewBox="0 0 15 15" width="100%" height="30px" preserveAspectRatio="xMaxYMin meet">
         <g id="arrow_out" transform="scale(0.3 0.3)">
          <a xlink:href="ancillarydata__timecode__atc_8cpp__incl_org.svg" target="_base">
           <rect id="button" ry="5" rx="5" y="6" x="6" height="38" width="38"
                fill="#f2f5e9" fill-opacity="0.5" stroke="#606060" stroke-width="1.0"/>
           <path id="arrow"
             d="M 11.500037,31.436501 C 11.940474,20.09759 22.043105,11.32322 32.158766,21.979434 L 37.068811,17.246167 C 37.068811,17.246167 37.088388,32 37.088388,32 L 22.160133,31.978069 C 22.160133,31.978069 26.997745,27.140456 26.997745,27.140456 C 18.528582,18.264221 13.291696,25.230495 11.500037,31.436501 z"
             style="fill:#404040;"/>
          </a>
         </g>
        </svg>
</svg>
