<?xml version="1.0" encoding="UTF-8" standalone="no"?>
<!DOCTYPE svg PUBLIC "-//W3C//DTD SVG 1.1//EN"
 "http://www.w3.org/Graphics/SVG/1.1/DTD/svg11.dtd">
<!-- Generated by graphviz version 2.40.1 (0)
 -->
<!-- Title: /home/tcbuilder/buildAgent/work/df8e8cce5bebfd58/libajantv2/ajabase/common/performance.cpp Pages: 1 -->
<!--zoomable 330 -->
<svg id="main" version="1.1" xmlns="http://www.w3.org/2000/svg" xmlns:xlink="http://www.w3.org/1999/xlink" xml:space="preserve" onload="init(evt)">
<style type="text/css"><![CDATA[
.edge:hover path { stroke: red; }
.edge:hover polygon { stroke: red; fill: red; }
]]></style>
<script type="text/javascript"><![CDATA[
var edges = document.getElementsByTagName('g');
if (edges && edges.length) {
  for (var i=0;i<edges.length;i++) {
    if (edges[i].id.substr(0,4)=='edge') {
      edges[i].setAttribute('class','edge');
    }
  }
}
]]></script>
        <defs>
                <circle id="rim" cx="0" cy="0" r="7"/>
                <circle id="rim2" cx="0" cy="0" r="3.5"/>
                <g id="zoomPlus">
                        <use xlink:href="#rim" fill="#404040">
                                <set attributeName="fill" to="#808080" begin="zoomplus.mouseover" end="zoomplus.mouseout"/>
                        </use>
                        <path d="M-4,0h8M0,-4v8" fill="none" stroke="white" stroke-width="1.5" pointer-events="none"/>
                </g>
                <g id="zoomMin">
                        <use xlink:href="#rim" fill="#404040">
                                <set attributeName="fill" to="#808080" begin="zoomminus.mouseover" end="zoomminus.mouseout"/>
                        </use>
                        <path d="M-4,0h8" fill="none" stroke="white" stroke-width="1.5" pointer-events="none"/>
                </g>
                <g id="dirArrow">
                        <path fill="none" stroke="white" stroke-width="1.5" d="M0,-3.0v7 M-2.5,-0.5L0,-3.0L2.5,-0.5"/>
                </g>
               <g id="resetDef">
                       <use xlink:href="#rim2" fill="#404040">
                               <set attributeName="fill" to="#808080" begin="reset.mouseover" end="reset.mouseout"/>
                       </use>
               </g>
        </defs>

<script type="text/javascript">
var viewWidth = 642;
var viewHeight = 330;
var sectionId = 'dynsection-0';
</script>
<script xlink:href="../../svgpan.js"/>
<svg id="graph" class="graph">
<g id="viewport">
<title>/home/tcbuilder/buildAgent/work/df8e8cce5bebfd58/libajantv2/ajabase/common/performance.cpp</title>
<polygon fill="#ffffff" stroke="transparent" points="-4,4 -4,-326 638,-326 638,4 -4,4"/>
<!-- Node0 -->
<g id="node1" class="node">
<title>Node0</title>
<polygon fill="#bfbfbf" stroke="#000000" points="383.5,-280.5 383.5,-321.5 553.5,-321.5 553.5,-280.5 383.5,-280.5"/>
<text text-anchor="start" x="391.5" y="-309.5" font-family="Helvetica,sans-Serif" font-size="10.00" fill="#000000">/home/tcbuilder/buildAgent</text>
<text text-anchor="start" x="391.5" y="-298.5" font-family="Helvetica,sans-Serif" font-size="10.00" fill="#000000">/work/df8e8cce5bebfd58/libajantv2</text>
<text text-anchor="middle" x="468.5" y="-287.5" font-family="Helvetica,sans-Serif" font-size="10.00" fill="#000000">/ajabase/common/performance.cpp</text>
</g>
<!-- Node1 -->
<g id="node2" class="node">
<title>Node1</title>
<g id="a_node2"><a xlink:href="../../d1/d3d/performance_8h.html" target="_top" xlink:title="Declaration of the AJAPerformance class. ">
<polygon fill="#ffffff" stroke="#000000" points="22.5,-224.5 22.5,-243.5 178.5,-243.5 178.5,-224.5 22.5,-224.5"/>
<text text-anchor="middle" x="100.5" y="-231.5" font-family="Helvetica,sans-Serif" font-size="10.00" fill="#000000">ajabase/common/performance.h</text>
</a>
</g>
</g>
<!-- Node0&#45;&gt;Node1 -->
<g id="edge1" class="edge">
<title>Node0&#45;&gt;Node1</title>
<path fill="none" stroke="#191970" d="M383.1484,-285.4604C315.8087,-273.2002 223.4414,-256.3833 162.891,-245.3592"/>
<polygon fill="#191970" stroke="#191970" points="163.1779,-241.854 152.7127,-243.5061 161.924,-248.7408 163.1779,-241.854"/>
</g>
<!-- Node12 -->
<g id="node13" class="node">
<title>Node12</title>
<g id="a_node13"><a xlink:href="../../db/d16/debug_8h.html" target="_top" xlink:title="Declares the AJADebug class. ">
<polygon fill="#ffffff" stroke="#000000" points="317,-168.5 317,-187.5 440,-187.5 440,-168.5 317,-168.5"/>
<text text-anchor="middle" x="378.5" y="-175.5" font-family="Helvetica,sans-Serif" font-size="10.00" fill="#000000">ajabase/system/debug.h</text>
</a>
</g>
</g>
<!-- Node0&#45;&gt;Node12 -->
<g id="edge14" class="edge">
<title>Node0&#45;&gt;Node12</title>
<path fill="none" stroke="#191970" d="M453.436,-280.4126C436.1075,-256.7303 407.9401,-218.2348 391.5223,-195.7972"/>
<polygon fill="#191970" stroke="#191970" points="394.1943,-193.5217 385.4645,-187.5182 388.545,-197.6553 394.1943,-193.5217"/>
</g>
<!-- Node14 -->
<g id="node15" class="node">
<title>Node14</title>
<polygon fill="#ffffff" stroke="#bfbfbf" points="577.5,-112.5 577.5,-131.5 629.5,-131.5 629.5,-112.5 577.5,-112.5"/>
<text text-anchor="middle" x="603.5" y="-119.5" font-family="Helvetica,sans-Serif" font-size="10.00" fill="#000000">sstream</text>
</g>
<!-- Node0&#45;&gt;Node14 -->
<g id="edge26" class="edge">
<title>Node0&#45;&gt;Node14</title>
<path fill="none" stroke="#191970" d="M470.1866,-280.4185C472.289,-264.1215 476.9944,-241.3005 487.5,-224 510.41,-186.2718 551.8121,-154.8934 578.457,-137.2956"/>
<polygon fill="#191970" stroke="#191970" points="580.6991,-140.0148 587.2117,-131.658 576.9091,-134.1295 580.6991,-140.0148"/>
</g>
<!-- Node19 -->
<g id="node20" class="node">
<title>Node19</title>
<polygon fill="#ffffff" stroke="#bfbfbf" points="496.5,-224.5 496.5,-243.5 546.5,-243.5 546.5,-224.5 496.5,-224.5"/>
<text text-anchor="middle" x="521.5" y="-231.5" font-family="Helvetica,sans-Serif" font-size="10.00" fill="#000000">iomanip</text>
</g>
<!-- Node0&#45;&gt;Node19 -->
<g id="edge25" class="edge">
<title>Node0&#45;&gt;Node19</title>
<path fill="none" stroke="#191970" d="M484.979,-280.168C492.1808,-271.0639 500.5406,-260.4959 507.4432,-251.7699"/>
<polygon fill="#191970" stroke="#191970" points="510.3041,-253.7947 513.7632,-243.7805 504.8141,-249.4519 510.3041,-253.7947"/>
</g>
<!-- Node20 -->
<g id="node21" class="node">
<title>Node20</title>
<polygon fill="#ffffff" stroke="#bfbfbf" points="565,-224.5 565,-243.5 612,-243.5 612,-224.5 565,-224.5"/>
<text text-anchor="middle" x="588.5" y="-231.5" font-family="Helvetica,sans-Serif" font-size="10.00" fill="#000000">math.h</text>
</g>
<!-- Node0&#45;&gt;Node20 -->
<g id="edge27" class="edge">
<title>Node0&#45;&gt;Node20</title>
<path fill="none" stroke="#191970" d="M505.4831,-280.3511C523.7894,-270.1301 545.4649,-258.0279 562.0764,-248.7532"/>
<polygon fill="#191970" stroke="#191970" points="564.1831,-251.5856 571.2081,-243.6546 560.7706,-245.4737 564.1831,-251.5856"/>
</g>
<!-- Node2 -->
<g id="node3" class="node">
<title>Node2</title>
<g id="a_node3"><a xlink:href="../../d5/dd0/timer_8h.html" target="_top" xlink:title="Declares the AJATimer class. ">
<polygon fill="#ffffff" stroke="#000000" points="84,-168.5 84,-187.5 207,-187.5 207,-168.5 84,-168.5"/>
<text text-anchor="middle" x="145.5" y="-175.5" font-family="Helvetica,sans-Serif" font-size="10.00" fill="#000000">ajabase/common/timer.h</text>
</a>
</g>
</g>
<!-- Node1&#45;&gt;Node2 -->
<g id="edge2" class="edge">
<title>Node1&#45;&gt;Node2</title>
<path fill="none" stroke="#191970" d="M108.3384,-224.2455C114.662,-216.3761 123.7224,-205.101 131.3136,-195.6542"/>
<polygon fill="#191970" stroke="#191970" points="134.2158,-197.6302 137.7514,-187.6427 128.7592,-193.2454 134.2158,-197.6302"/>
</g>
<!-- Node6 -->
<g id="node7" class="node">
<title>Node6</title>
<polygon fill="#ffffff" stroke="#bfbfbf" points="245,-56.5 245,-75.5 286,-75.5 286,-56.5 245,-56.5"/>
<text text-anchor="middle" x="265.5" y="-63.5" font-family="Helvetica,sans-Serif" font-size="10.00" fill="#000000">string</text>
</g>
<!-- Node1&#45;&gt;Node6 -->
<g id="edge12" class="edge">
<title>Node1&#45;&gt;Node6</title>
<path fill="none" stroke="#191970" d="M93.6437,-224.2277C78.8247,-201.7992 47.2627,-145.9544 74.5,-112 118.6683,-56.9391 161.6639,-92.6633 234.9401,-75.9707"/>
<polygon fill="#191970" stroke="#191970" points="236.1786,-79.2664 244.996,-73.3923 234.44,-72.4858 236.1786,-79.2664"/>
</g>
<!-- Node9 -->
<g id="node10" class="node">
<title>Node9</title>
<polygon fill="#ffffff" stroke="#bfbfbf" points="0,-56.5 0,-75.5 35,-75.5 35,-56.5 0,-56.5"/>
<text text-anchor="middle" x="17.5" y="-63.5" font-family="Helvetica,sans-Serif" font-size="10.00" fill="#000000">map</text>
</g>
<!-- Node1&#45;&gt;Node9 -->
<g id="edge13" class="edge">
<title>Node1&#45;&gt;Node9</title>
<path fill="none" stroke="#191970" d="M82.1289,-224.438C68.7416,-216.4945 51.2985,-203.9312 41.5,-188 21.8861,-156.1099 17.8328,-111.4331 17.2585,-85.9327"/>
<polygon fill="#191970" stroke="#191970" points="20.7569,-85.6589 17.196,-75.6805 13.7571,-85.7017 20.7569,-85.6589"/>
</g>
<!-- Node3 -->
<g id="node4" class="node">
<title>Node3</title>
<polygon fill="#ffffff" stroke="#bfbfbf" points="83.5,-112.5 83.5,-131.5 135.5,-131.5 135.5,-112.5 83.5,-112.5"/>
<text text-anchor="middle" x="109.5" y="-119.5" font-family="Helvetica,sans-Serif" font-size="10.00" fill="#000000">ostream</text>
</g>
<!-- Node2&#45;&gt;Node3 -->
<g id="edge3" class="edge">
<title>Node2&#45;&gt;Node3</title>
<path fill="none" stroke="#191970" d="M139.2293,-168.2455C134.2736,-160.5367 127.217,-149.5598 121.2224,-140.2348"/>
<polygon fill="#191970" stroke="#191970" points="124.0506,-138.1618 115.6989,-131.6427 118.1624,-141.9471 124.0506,-138.1618"/>
</g>
<!-- Node4 -->
<g id="node5" class="node">
<title>Node4</title>
<g id="a_node5"><a xlink:href="../../d4/d79/public_8h.html" target="_top" xlink:title="Master header for the ajabase library. ">
<polygon fill="#ffffff" stroke="#000000" points="153.5,-112.5 153.5,-131.5 281.5,-131.5 281.5,-112.5 153.5,-112.5"/>
<text text-anchor="middle" x="217.5" y="-119.5" font-family="Helvetica,sans-Serif" font-size="10.00" fill="#000000">ajabase/common/public.h</text>
</a>
</g>
</g>
<!-- Node2&#45;&gt;Node4 -->
<g id="edge4" class="edge">
<title>Node2&#45;&gt;Node4</title>
<path fill="none" stroke="#191970" d="M158.0414,-168.2455C168.7787,-159.8943 184.4473,-147.7076 197.0047,-137.9408"/>
<polygon fill="#191970" stroke="#191970" points="199.3575,-140.5449 205.1023,-131.6427 195.0599,-135.0194 199.3575,-140.5449"/>
</g>
<!-- Node5 -->
<g id="node6" class="node">
<title>Node5</title>
<g id="a_node6"><a xlink:href="../../db/db5/export_8h.html" target="_top" xlink:title="Declares system&#45;dependent import/export macros and libraries. ">
<polygon fill="#ffffff" stroke="#000000" points="367,-56.5 367,-75.5 496,-75.5 496,-56.5 367,-56.5"/>
<text text-anchor="middle" x="431.5" y="-63.5" font-family="Helvetica,sans-Serif" font-size="10.00" fill="#000000">ajabase/common/export.h</text>
</a>
</g>
</g>
<!-- Node4&#45;&gt;Node5 -->
<g id="edge5" class="edge">
<title>Node4&#45;&gt;Node5</title>
<path fill="none" stroke="#191970" d="M254.2879,-112.3733C290.5661,-102.8799 346.1236,-88.3415 385.3446,-78.0781"/>
<polygon fill="#191970" stroke="#191970" points="386.404,-81.4188 395.1921,-75.5011 384.6318,-74.6468 386.404,-81.4188"/>
</g>
<!-- Node4&#45;&gt;Node6 -->
<g id="edge6" class="edge">
<title>Node4&#45;&gt;Node6</title>
<path fill="none" stroke="#191970" d="M225.861,-112.2455C232.675,-104.2958 242.4681,-92.8706 250.6152,-83.3656"/>
<polygon fill="#191970" stroke="#191970" points="253.3843,-85.513 257.2349,-75.6427 248.0695,-80.9575 253.3843,-85.513"/>
</g>
<!-- Node7 -->
<g id="node8" class="node">
<title>Node7</title>
<polygon fill="#ffffff" stroke="#bfbfbf" points="198,-56.5 198,-75.5 227,-75.5 227,-56.5 198,-56.5"/>
<text text-anchor="middle" x="212.5" y="-63.5" font-family="Helvetica,sans-Serif" font-size="10.00" fill="#000000">list</text>
</g>
<!-- Node4&#45;&gt;Node7 -->
<g id="edge7" class="edge">
<title>Node4&#45;&gt;Node7</title>
<path fill="none" stroke="#191970" d="M216.6291,-112.2455C215.9766,-104.9382 215.062,-94.6944 214.2593,-85.7046"/>
<polygon fill="#191970" stroke="#191970" points="217.7365,-85.2918 213.361,-75.6427 210.7642,-85.9143 217.7365,-85.2918"/>
</g>
<!-- Node8 -->
<g id="node9" class="node">
<title>Node8</title>
<polygon fill="#ffffff" stroke="#bfbfbf" points="304.5,-56.5 304.5,-75.5 348.5,-75.5 348.5,-56.5 304.5,-56.5"/>
<text text-anchor="middle" x="326.5" y="-63.5" font-family="Helvetica,sans-Serif" font-size="10.00" fill="#000000">vector</text>
</g>
<!-- Node4&#45;&gt;Node8 -->
<g id="edge8" class="edge">
<title>Node4&#45;&gt;Node8</title>
<path fill="none" stroke="#191970" d="M236.4864,-112.2455C253.6792,-103.4125 279.2238,-90.2887 298.7132,-80.2758"/>
<polygon fill="#191970" stroke="#191970" points="300.4359,-83.3257 307.7312,-75.6427 297.237,-77.0993 300.4359,-83.3257"/>
</g>
<!-- Node4&#45;&gt;Node9 -->
<g id="edge9" class="edge">
<title>Node4&#45;&gt;Node9</title>
<path fill="none" stroke="#191970" d="M177.3363,-112.4676C144.1392,-104.3328 95.6247,-91.8585 44.6743,-75.8371"/>
<polygon fill="#191970" stroke="#191970" points="45.726,-72.4989 35.1356,-72.8045 43.6051,-79.1699 45.726,-72.4989"/>
</g>
<!-- Node10 -->
<g id="node11" class="node">
<title>Node10</title>
<g id="a_node11"><a xlink:href="../../d9/d49/types_8h.html" target="_top" xlink:title="Declares common types used in the ajabase library. ">
<polygon fill="#ffffff" stroke="#000000" points="53.5,-56.5 53.5,-75.5 179.5,-75.5 179.5,-56.5 53.5,-56.5"/>
<text text-anchor="middle" x="116.5" y="-63.5" font-family="Helvetica,sans-Serif" font-size="10.00" fill="#000000">ajabase/common/types.h</text>
</a>
</g>
</g>
<!-- Node4&#45;&gt;Node10 -->
<g id="edge10" class="edge">
<title>Node4&#45;&gt;Node10</title>
<path fill="none" stroke="#191970" d="M199.9071,-112.2455C184.121,-103.4928 160.7361,-90.527 142.7413,-80.5496"/>
<polygon fill="#191970" stroke="#191970" points="144.3341,-77.4308 133.8913,-75.6427 140.9397,-83.5528 144.3341,-77.4308"/>
</g>
<!-- Node11 -->
<g id="node12" class="node">
<title>Node11</title>
<g id="a_node12"><a xlink:href="../../db/d40/ntv2deprecate_8h.html" target="_top" xlink:title="Deprecation control macros. ">
<polygon fill="#ffffff" stroke="#000000" points="73.5,-.5 73.5,-19.5 159.5,-19.5 159.5,-.5 73.5,-.5"/>
<text text-anchor="middle" x="116.5" y="-7.5" font-family="Helvetica,sans-Serif" font-size="10.00" fill="#000000">ntv2deprecate.h</text>
</a>
</g>
</g>
<!-- Node10&#45;&gt;Node11 -->
<g id="edge11" class="edge">
<title>Node10&#45;&gt;Node11</title>
<path fill="none" stroke="#191970" d="M116.5,-56.2455C116.5,-48.9382 116.5,-38.6944 116.5,-29.7046"/>
<polygon fill="#191970" stroke="#191970" points="120.0001,-29.6426 116.5,-19.6427 113.0001,-29.6427 120.0001,-29.6426"/>
</g>
<!-- Node12&#45;&gt;Node4 -->
<g id="edge18" class="edge">
<title>Node12&#45;&gt;Node4</title>
<path fill="none" stroke="#191970" d="M350.8231,-168.3733C324.1672,-159.1016 283.6762,-145.0178 254.3116,-134.804"/>
<polygon fill="#191970" stroke="#191970" points="255.4105,-131.4807 244.8157,-131.5011 253.1109,-138.0921 255.4105,-131.4807"/>
</g>
<!-- Node13 -->
<g id="node14" class="node">
<title>Node13</title>
<polygon fill="#ffffff" stroke="#bfbfbf" points="299.5,-112.5 299.5,-131.5 345.5,-131.5 345.5,-112.5 299.5,-112.5"/>
<text text-anchor="middle" x="322.5" y="-119.5" font-family="Helvetica,sans-Serif" font-size="10.00" fill="#000000">stdio.h</text>
</g>
<!-- Node12&#45;&gt;Node13 -->
<g id="edge15" class="edge">
<title>Node12&#45;&gt;Node13</title>
<path fill="none" stroke="#191970" d="M368.7455,-168.2455C360.6352,-160.1352 348.9075,-148.4075 339.2919,-138.7919"/>
<polygon fill="#191970" stroke="#191970" points="341.6887,-136.2389 332.1427,-131.6427 336.7389,-141.1887 341.6887,-136.2389"/>
</g>
<!-- Node12&#45;&gt;Node14 -->
<g id="edge16" class="edge">
<title>Node12&#45;&gt;Node14</title>
<path fill="none" stroke="#191970" d="M420.1348,-168.4351C456.6017,-159.9422 511.2506,-146.9377 567.4014,-132.2213"/>
<polygon fill="#191970" stroke="#191970" points="568.3802,-135.5829 577.1584,-129.6506 566.5967,-128.8139 568.3802,-135.5829"/>
</g>
<!-- Node15 -->
<g id="node16" class="node">
<title>Node15</title>
<polygon fill="#ffffff" stroke="#bfbfbf" points="363.5,-112.5 363.5,-131.5 393.5,-131.5 393.5,-112.5 363.5,-112.5"/>
<text text-anchor="middle" x="378.5" y="-119.5" font-family="Helvetica,sans-Serif" font-size="10.00" fill="#000000">set</text>
</g>
<!-- Node12&#45;&gt;Node15 -->
<g id="edge17" class="edge">
<title>Node12&#45;&gt;Node15</title>
<path fill="none" stroke="#191970" d="M378.5,-168.2455C378.5,-160.9382 378.5,-150.6944 378.5,-141.7046"/>
<polygon fill="#191970" stroke="#191970" points="382.0001,-141.6426 378.5,-131.6427 375.0001,-141.6427 382.0001,-141.6426"/>
</g>
<!-- Node16 -->
<g id="node17" class="node">
<title>Node16</title>
<g id="a_node17"><a xlink:href="../../d0/db4/debugshare_8h.html" target="_top" xlink:title="Declares the constants used for sharing debug messages. These structures are used to gather debug mes...">
<polygon fill="#ffffff" stroke="#000000" points="412,-112.5 412,-131.5 559,-131.5 559,-112.5 412,-112.5"/>
<text text-anchor="middle" x="485.5" y="-119.5" font-family="Helvetica,sans-Serif" font-size="10.00" fill="#000000">ajabase/system/debugshare.h</text>
</a>
</g>
</g>
<!-- Node12&#45;&gt;Node16 -->
<g id="edge19" class="edge">
<title>Node12&#45;&gt;Node16</title>
<path fill="none" stroke="#191970" d="M397.138,-168.2455C413.9386,-159.4527 438.8634,-146.4079 457.9618,-136.4125"/>
<polygon fill="#191970" stroke="#191970" points="459.8386,-139.3807 467.0756,-131.6427 456.5927,-133.1787 459.8386,-139.3807"/>
</g>
<!-- Node16&#45;&gt;Node5 -->
<g id="edge20" class="edge">
<title>Node16&#45;&gt;Node5</title>
<path fill="none" stroke="#191970" d="M476.0939,-112.2455C468.3507,-104.2155 457.188,-92.6394 447.9682,-83.0781"/>
<polygon fill="#191970" stroke="#191970" points="450.2591,-80.4117 440.7983,-75.6427 445.2202,-85.2706 450.2591,-80.4117"/>
</g>
<!-- Node16&#45;&gt;Node6 -->
<g id="edge23" class="edge">
<title>Node16&#45;&gt;Node6</title>
<path fill="none" stroke="#191970" d="M441.4553,-112.4428C404.8846,-104.2592 351.336,-91.7058 295.7502,-75.8924"/>
<polygon fill="#191970" stroke="#191970" points="296.6632,-72.5132 286.0855,-73.1154 294.7301,-79.241 296.6632,-72.5132"/>
</g>
<!-- Node16&#45;&gt;Node8 -->
<g id="edge24" class="edge">
<title>Node16&#45;&gt;Node8</title>
<path fill="none" stroke="#191970" d="M458.1669,-112.3733C430.5269,-102.6384 387.8244,-87.5985 358.5931,-77.3032"/>
<polygon fill="#191970" stroke="#191970" points="359.457,-73.8968 348.8622,-73.876 357.1316,-80.4993 359.457,-73.8968"/>
</g>
<!-- Node17 -->
<g id="node18" class="node">
<title>Node17</title>
<polygon fill="#ffffff" stroke="#bfbfbf" points="514.5,-56.5 514.5,-75.5 566.5,-75.5 566.5,-56.5 514.5,-56.5"/>
<text text-anchor="middle" x="540.5" y="-63.5" font-family="Helvetica,sans-Serif" font-size="10.00" fill="#000000">stddef.h</text>
</g>
<!-- Node16&#45;&gt;Node17 -->
<g id="edge21" class="edge">
<title>Node16&#45;&gt;Node17</title>
<path fill="none" stroke="#191970" d="M495.0803,-112.2455C503.0458,-104.1352 514.5641,-92.4075 524.0079,-82.7919"/>
<polygon fill="#191970" stroke="#191970" points="526.5195,-85.2297 531.0295,-75.6427 521.5253,-80.3247 526.5195,-85.2297"/>
</g>
<!-- Node18 -->
<g id="node19" class="node">
<title>Node18</title>
<polygon fill="#ffffff" stroke="#bfbfbf" points="585,-56.5 585,-75.5 634,-75.5 634,-56.5 585,-56.5"/>
<text text-anchor="middle" x="609.5" y="-63.5" font-family="Helvetica,sans-Serif" font-size="10.00" fill="#000000">stdint.h</text>
</g>
<!-- Node16&#45;&gt;Node18 -->
<g id="edge22" class="edge">
<title>Node16&#45;&gt;Node18</title>
<path fill="none" stroke="#191970" d="M506.8164,-112.3733C526.7216,-103.3838 556.6436,-89.8706 579.06,-79.7471"/>
<polygon fill="#191970" stroke="#191970" points="580.7887,-82.8068 588.4618,-75.5011 577.9075,-76.4272 580.7887,-82.8068"/>
</g>
</g>
</svg>
        <g id="navigator" transform="translate(0 0)" fill="#404254">
                <rect fill="#f2f5e9" fill-opacity="0.5" stroke="#606060" stroke-width=".5" x="0" y="0" width="60" height="60"/>
                <use id="zoomplus" xlink:href="#zoomPlus" x="17" y="9" onmousedown="handleZoom(evt,'in')"/>
                <use id="zoomminus" xlink:href="#zoomMin" x="42" y="9" onmousedown="handleZoom(evt,'out')"/>
                <use id="reset" xlink:href="#resetDef" x="30" y="36" onmousedown="handleReset()"/>
                <g id="arrowUp" xlink:href="#dirArrow" transform="translate(30 24)" onmousedown="handlePan(0,-1)">
                  <use xlink:href="#rim" fill="#404040">
                        <set attributeName="fill" to="#808080" begin="arrowUp.mouseover" end="arrowUp.mouseout"/>
                  </use>
                  <path fill="none" stroke="white" stroke-width="1.5" d="M0,-3.0v7 M-2.5,-0.5L0,-3.0L2.5,-0.5"/>
                </g>
                <g id="arrowRight" xlink:href="#dirArrow" transform="rotate(90) translate(36 -43)" onmousedown="handlePan(1,0)">
                  <use xlink:href="#rim" fill="#404040">
                        <set attributeName="fill" to="#808080" begin="arrowRight.mouseover" end="arrowRight.mouseout"/>
                  </use>
                  <path fill="none" stroke="white" stroke-width="1.5" d="M0,-3.0v7 M-2.5,-0.5L0,-3.0L2.5,-0.5"/>
                </g>
                <g id="arrowDown" xlink:href="#dirArrow" transform="rotate(180) translate(-30 -48)" onmousedown="handlePan(0,1)">
                  <use xlink:href="#rim" fill="#404040">
                        <set attributeName="fill" to="#808080" begin="arrowDown.mouseover" end="arrowDown.mouseout"/>
                  </use>
                  <path fill="none" stroke="white" stroke-width="1.5" d="M0,-3.0v7 M-2.5,-0.5L0,-3.0L2.5,-0.5"/>
                </g>
                <g id="arrowLeft" xlink:href="#dirArrow" transform="rotate(270) translate(-36 17)" onmousedown="handlePan(-1,0)">
                  <use xlink:href="#rim" fill="#404040">
                        <set attributeName="fill" to="#808080" begin="arrowLeft.mouseover" end="arrowLeft.mouseout"/>
                  </use>
                  <path fill="none" stroke="white" stroke-width="1.5" d="M0,-3.0v7 M-2.5,-0.5L0,-3.0L2.5,-0.5"/>
                </g>
        </g>
        <svg viewBox="0 0 15 15" width="100%" height="30px" preserveAspectRatio="xMaxYMin meet">
         <g id="arrow_out" transform="scale(0.3 0.3)">
          <a xlink:href="performance_8cpp__incl_org.svg" target="_base">
           <rect id="button" ry="5" rx="5" y="6" x="6" height="38" width="38"
                fill="#f2f5e9" fill-opacity="0.5" stroke="#606060" stroke-width="1.0"/>
           <path id="arrow"
             d="M 11.500037,31.436501 C 11.940474,20.09759 22.043105,11.32322 32.158766,21.979434 L 37.068811,17.246167 C 37.068811,17.246167 37.088388,32 37.088388,32 L 22.160133,31.978069 C 22.160133,31.978069 26.997745,27.140456 26.997745,27.140456 C 18.528582,18.264221 13.291696,25.230495 11.500037,31.436501 z"
             style="fill:#404040;"/>
          </a>
         </g>
        </svg>
</svg>
