<?xml version="1.0" encoding="UTF-8" standalone="no"?>
<!DOCTYPE svg PUBLIC "-//W3C//DTD SVG 1.1//EN"
 "http://www.w3.org/Graphics/SVG/1.1/DTD/svg11.dtd">
<!-- Generated by graphviz version 2.43.0 (0)
 -->
<!-- Title: NTV2_CC708CDP Pages: 1 -->
<svg width="899pt" height="192pt"
 viewBox="0.00 0.00 899.00 192.00" xmlns="http://www.w3.org/2000/svg" xmlns:xlink="http://www.w3.org/1999/xlink">
<g id="graph0" class="graph" transform="scale(1 1) rotate(0) translate(4 188)">
<title>NTV2_CC708CDP</title>
<polygon fill="white" stroke="transparent" points="-4,4 -4,-188 895,-188 895,4 -4,4"/>
<!-- Node1 -->
<g id="node1" class="node">
<title>Node1</title>
<g id="a_node1"><a xlink:title=" ">
<polygon fill="#bfbfbf" stroke="black" points="791,-82.5 791,-101.5 891,-101.5 891,-82.5 791,-82.5"/>
<text text-anchor="middle" x="841" y="-89.5" font-family="Helvetica,sans-Serif" font-size="10.00">NTV2_CC708CDP</text>
</a>
</g>
</g>
<!-- Node2 -->
<g id="node2" class="node">
<title>Node2</title>
<g id="a_node2"><a xlink:href="../../de/d1a/struct_n_t_v2___c_c708_c_d_p_timecode_section.html" target="_top" xlink:title=" ">
<polygon fill="white" stroke="black" points="481,-164.5 481,-183.5 665,-183.5 665,-164.5 481,-164.5"/>
<text text-anchor="middle" x="573" y="-171.5" font-family="Helvetica,sans-Serif" font-size="10.00">NTV2_CC708CDPTimecodeSection</text>
</a>
</g>
</g>
<!-- Node2&#45;&gt;Node1 -->
<g id="edge1" class="edge">
<title>Node2&#45;&gt;Node1</title>
<path fill="none" stroke="#9a32cd" stroke-dasharray="5,2" d="M673.76,-162.81C706.19,-157.12 741.83,-148.63 773,-136 794.15,-127.43 815.7,-111.78 828.46,-101.64"/>
<polygon fill="#9a32cd" stroke="#9a32cd" points="673.08,-159.37 663.81,-164.49 674.25,-166.28 673.08,-159.37"/>
<text text-anchor="middle" x="728" y="-163" font-family="Helvetica,sans-Serif" font-size="10.00"> timecode_section</text>
</g>
<!-- Node3 -->
<g id="node3" class="node">
<title>Node3</title>
<g id="a_node3"><a xlink:href="../../df/d9c/struct_n_t_v2___c_c708_c_d_p_footer.html" target="_top" xlink:title=" ">
<polygon fill="white" stroke="black" points="507.5,-126.5 507.5,-145.5 638.5,-145.5 638.5,-126.5 507.5,-126.5"/>
<text text-anchor="middle" x="573" y="-133.5" font-family="Helvetica,sans-Serif" font-size="10.00">NTV2_CC708CDPFooter</text>
</a>
</g>
</g>
<!-- Node3&#45;&gt;Node1 -->
<g id="edge2" class="edge">
<title>Node3&#45;&gt;Node1</title>
<path fill="none" stroke="#9a32cd" stroke-dasharray="5,2" d="M649.04,-126.43C686.4,-121.32 732.2,-114.53 773,-107 781.67,-105.4 790.93,-103.47 799.71,-101.54"/>
<polygon fill="#9a32cd" stroke="#9a32cd" points="648.17,-123.01 638.73,-127.83 649.11,-129.95 648.17,-123.01"/>
<text text-anchor="middle" x="728" y="-124" font-family="Helvetica,sans-Serif" font-size="10.00"> cdp_footer</text>
</g>
<!-- Node4 -->
<g id="node4" class="node">
<title>Node4</title>
<g id="a_node4"><a xlink:href="../../dc/def/struct_n_t_v2___c_c708_c_d_p_service_info_section.html" target="_top" xlink:title=" ">
<polygon fill="white" stroke="black" points="495.5,-77 495.5,-107 650.5,-107 650.5,-77 495.5,-77"/>
<text text-anchor="start" x="503.5" y="-95" font-family="Helvetica,sans-Serif" font-size="10.00">NTV2_CC708CDPServiceInfo</text>
<text text-anchor="middle" x="573" y="-84" font-family="Helvetica,sans-Serif" font-size="10.00">Section</text>
</a>
</g>
</g>
<!-- Node4&#45;&gt;Node1 -->
<g id="edge3" class="edge">
<title>Node4&#45;&gt;Node1</title>
<path fill="none" stroke="#9a32cd" stroke-dasharray="5,2" d="M660.79,-92C703.89,-92 754.38,-92 790.76,-92"/>
<polygon fill="#9a32cd" stroke="#9a32cd" points="660.58,-88.5 650.58,-92 660.58,-95.5 660.58,-88.5"/>
<text text-anchor="middle" x="728" y="-95" font-family="Helvetica,sans-Serif" font-size="10.00"> ccsvcinfo_section</text>
</g>
<!-- Node5 -->
<g id="node5" class="node">
<title>Node5</title>
<g id="a_node5"><a xlink:href="../../de/d5c/struct_n_t_v2___c_c708_service_info.html" target="_top" xlink:title=" ">
<polygon fill="white" stroke="black" points="257.5,-82.5 257.5,-101.5 391.5,-101.5 391.5,-82.5 257.5,-82.5"/>
<text text-anchor="middle" x="324.5" y="-89.5" font-family="Helvetica,sans-Serif" font-size="10.00">NTV2_CC708ServiceInfo</text>
</a>
</g>
</g>
<!-- Node5&#45;&gt;Node4 -->
<g id="edge4" class="edge">
<title>Node5&#45;&gt;Node4</title>
<path fill="none" stroke="#9a32cd" stroke-dasharray="5,2" d="M401.87,-92C431.57,-92 465.54,-92 495.27,-92"/>
<polygon fill="#9a32cd" stroke="#9a32cd" points="401.56,-88.5 391.56,-92 401.56,-95.5 401.56,-88.5"/>
<text text-anchor="middle" x="441" y="-95" font-family="Helvetica,sans-Serif" font-size="10.00"> svc_info</text>
</g>
<!-- Node6 -->
<g id="node6" class="node">
<title>Node6</title>
<g id="a_node6"><a xlink:href="../../d0/dbd/struct_n_t_v2___c_c708_service_language.html" target="_top" xlink:title=" ">
<polygon fill="white" stroke="black" points="0,-82.5 0,-101.5 163,-101.5 163,-82.5 0,-82.5"/>
<text text-anchor="middle" x="81.5" y="-89.5" font-family="Helvetica,sans-Serif" font-size="10.00">NTV2_CC708ServiceLanguage</text>
</a>
</g>
</g>
<!-- Node6&#45;&gt;Node5 -->
<g id="edge5" class="edge">
<title>Node6&#45;&gt;Node5</title>
<path fill="none" stroke="#9a32cd" stroke-dasharray="5,2" d="M173.27,-92C201.23,-92 231.46,-92 257.43,-92"/>
<polygon fill="#9a32cd" stroke="#9a32cd" points="173.08,-88.5 163.08,-92 173.08,-95.5 173.08,-88.5"/>
<text text-anchor="middle" x="205.5" y="-95" font-family="Helvetica,sans-Serif" font-size="10.00"> language</text>
</g>
<!-- Node7 -->
<g id="node7" class="node">
<title>Node7</title>
<g id="a_node7"><a xlink:href="../../d6/d82/struct_n_t_v2___c_c708_c_d_p_header.html" target="_top" xlink:title=" ">
<polygon fill="white" stroke="black" points="505.5,-38.5 505.5,-57.5 640.5,-57.5 640.5,-38.5 505.5,-38.5"/>
<text text-anchor="middle" x="573" y="-45.5" font-family="Helvetica,sans-Serif" font-size="10.00">NTV2_CC708CDPHeader</text>
</a>
</g>
</g>
<!-- Node7&#45;&gt;Node1 -->
<g id="edge6" class="edge">
<title>Node7&#45;&gt;Node1</title>
<path fill="none" stroke="#9a32cd" stroke-dasharray="5,2" d="M650.77,-57.81C687.81,-62.89 732.83,-69.59 773,-77 781.67,-78.6 790.93,-80.53 799.71,-82.46"/>
<polygon fill="#9a32cd" stroke="#9a32cd" points="650.92,-54.3 640.54,-56.42 649.98,-61.23 650.92,-54.3"/>
<text text-anchor="middle" x="728" y="-80" font-family="Helvetica,sans-Serif" font-size="10.00"> cdp_header</text>
</g>
<!-- Node8 -->
<g id="node8" class="node">
<title>Node8</title>
<g id="a_node8"><a xlink:href="../../d8/d60/struct_n_t_v2___c_c708_c_d_p_data_section.html" target="_top" xlink:title=" ">
<polygon fill="white" stroke="black" points="493.5,-0.5 493.5,-19.5 652.5,-19.5 652.5,-0.5 493.5,-0.5"/>
<text text-anchor="middle" x="573" y="-7.5" font-family="Helvetica,sans-Serif" font-size="10.00">NTV2_CC708CDPDataSection</text>
</a>
</g>
</g>
<!-- Node8&#45;&gt;Node1 -->
<g id="edge7" class="edge">
<title>Node8&#45;&gt;Node1</title>
<path fill="none" stroke="#9a32cd" stroke-dasharray="5,2" d="M662.9,-18.65C698.1,-24.08 738.36,-32.85 773,-47 794.53,-55.79 816.31,-72.1 828.96,-82.49"/>
<polygon fill="#9a32cd" stroke="#9a32cd" points="663.03,-15.13 652.63,-17.13 662.01,-22.05 663.03,-15.13"/>
<text text-anchor="middle" x="728" y="-50" font-family="Helvetica,sans-Serif" font-size="10.00"> ccdata_section</text>
</g>
<!-- Node9 -->
<g id="node9" class="node">
<title>Node9</title>
<g id="a_node9"><a xlink:href="../../dc/d86/struct_n_t_v2___c_c708_c_d_p_data_triplet.html" target="_top" xlink:title=" ">
<polygon fill="white" stroke="black" points="248,-0.5 248,-19.5 401,-19.5 401,-0.5 248,-0.5"/>
<text text-anchor="middle" x="324.5" y="-7.5" font-family="Helvetica,sans-Serif" font-size="10.00">NTV2_CC708CDPDataTriplet</text>
</a>
</g>
</g>
<!-- Node9&#45;&gt;Node8 -->
<g id="edge8" class="edge">
<title>Node9&#45;&gt;Node8</title>
<path fill="none" stroke="#9a32cd" stroke-dasharray="5,2" d="M411.19,-10C437.79,-10 466.98,-10 493.1,-10"/>
<polygon fill="#9a32cd" stroke="#9a32cd" points="411.13,-6.5 401.13,-10 411.13,-13.5 411.13,-6.5"/>
<text text-anchor="middle" x="441" y="-13" font-family="Helvetica,sans-Serif" font-size="10.00"> cc_data</text>
</g>
</g>
</svg>
