<?xml version="1.0" encoding="UTF-8" standalone="no"?>
<!DOCTYPE svg PUBLIC "-//W3C//DTD SVG 1.1//EN"
 "http://www.w3.org/Graphics/SVG/1.1/DTD/svg11.dtd">
<!-- Generated by graphviz version 2.43.0 (0)
 -->
<!-- Title: /home/tcbuilder/buildAgent/work/df8e8cce5bebfd58/libajacc/includes/ntv2line21captioner.h Pages: 1 -->
<!--zoomable 442 -->
<svg id="main" version="1.1" xmlns="http://www.w3.org/2000/svg" xmlns:xlink="http://www.w3.org/1999/xlink" xml:space="preserve" onload="init(evt)">
<style type="text/css"><![CDATA[
.edge:hover path { stroke: red; }
.edge:hover polygon { stroke: red; fill: red; }
]]></style>
<script type="text/javascript"><![CDATA[
var edges = document.getElementsByTagName('g');
if (edges && edges.length) {
  for (var i=0;i<edges.length;i++) {
    if (edges[i].id.substr(0,4)=='edge') {
      edges[i].setAttribute('class','edge');
    }
  }
}
]]></script>
        <defs>
                <circle id="rim" cx="0" cy="0" r="7"/>
                <circle id="rim2" cx="0" cy="0" r="3.5"/>
                <g id="zoomPlus">
                        <use xlink:href="#rim" fill="#404040">
                                <set attributeName="fill" to="#808080" begin="zoomplus.mouseover" end="zoomplus.mouseout"/>
                        </use>
                        <path d="M-4,0h8M0,-4v8" fill="none" stroke="white" stroke-width="1.5" pointer-events="none"/>
                </g>
                <g id="zoomMin">
                        <use xlink:href="#rim" fill="#404040">
                                <set attributeName="fill" to="#808080" begin="zoomminus.mouseover" end="zoomminus.mouseout"/>
                        </use>
                        <path d="M-4,0h8" fill="none" stroke="white" stroke-width="1.5" pointer-events="none"/>
                </g>
                <g id="dirArrow">
                        <path fill="none" stroke="white" stroke-width="1.5" d="M0,-3.0v7 M-2.5,-0.5L0,-3.0L2.5,-0.5"/>
                </g>
               <g id="resetDef">
                       <use xlink:href="#rim2" fill="#404040">
                               <set attributeName="fill" to="#808080" begin="reset.mouseover" end="reset.mouseout"/>
                       </use>
               </g>
        </defs>

<script type="text/javascript">
var viewWidth = 1346;
var viewHeight = 442;
var sectionId = 'dynsection-0';
</script>
<script xlink:href="../../svgpan.js"/>
<svg id="graph" class="graph">
<g id="viewport">
<title>/home/tcbuilder/buildAgent/work/df8e8cce5bebfd58/libajacc/includes/ntv2line21captioner.h</title>
<polygon fill="white" stroke="transparent" points="-4,4 -4,-438 1341.5,-438 1341.5,4 -4,4"/>
<!-- Node1 -->
<g id="node1" class="node">
<title>Node1</title>
<g id="a_node1"><a xlink:title="Declares the CNTV2Line21Captioner class.">
<polygon fill="#bfbfbf" stroke="black" points="714,-392.5 714,-433.5 891,-433.5 891,-392.5 714,-392.5"/>
<text text-anchor="start" x="722" y="-421.5" font-family="Helvetica,sans-Serif" font-size="10.00">/home/tcbuilder/buildAgent</text>
<text text-anchor="start" x="722" y="-410.5" font-family="Helvetica,sans-Serif" font-size="10.00">/work/df8e8cce5bebfd58/libajacc</text>
<text text-anchor="middle" x="802.5" y="-399.5" font-family="Helvetica,sans-Serif" font-size="10.00">/includes/ntv2line21captioner.h</text>
</a>
</g>
</g>
<!-- Node2 -->
<g id="node2" class="node">
<title>Node2</title>
<g id="a_node2"><a xlink:href="../../d7/da9/ntv2captionlogging_8h.html" target="_top" xlink:title="Declares the NTV2CaptionLogMask, and the CNTV2CaptionLogConfig class.">
<polygon fill="white" stroke="black" points="0,-224.5 0,-243.5 119,-243.5 119,-224.5 0,-224.5"/>
<text text-anchor="middle" x="59.5" y="-231.5" font-family="Helvetica,sans-Serif" font-size="10.00">ntv2captionlogging.h</text>
</a>
</g>
</g>
<!-- Node1&#45;&gt;Node2 -->
<g id="edge1" class="edge">
<title>Node1&#45;&gt;Node2</title>
<path fill="none" stroke="midnightblue" d="M713.74,-412.34C581.1,-409.58 326.18,-391.49 133.5,-300 109.26,-288.49 86.93,-266.66 73.28,-251.5"/>
<polygon fill="midnightblue" stroke="midnightblue" points="75.84,-249.1 66.63,-243.86 70.56,-253.7 75.84,-249.1"/>
</g>
<!-- Node13 -->
<g id="node13" class="node">
<title>Node13</title>
<g id="a_node13"><a xlink:title=" ">
<polygon fill="white" stroke="#bfbfbf" points="1148,-112.5 1148,-131.5 1195,-131.5 1195,-112.5 1148,-112.5"/>
<text text-anchor="middle" x="1171.5" y="-119.5" font-family="Helvetica,sans-Serif" font-size="10.00">vector</text>
</a>
</g>
</g>
<!-- Node1&#45;&gt;Node13 -->
<g id="edge52" class="edge">
<title>Node1&#45;&gt;Node13</title>
<path fill="none" stroke="midnightblue" d="M891.07,-408.48C1033.95,-400.36 1299.5,-374.09 1299.5,-291 1299.5,-291 1299.5,-291 1299.5,-233 1299.5,-183.11 1242.87,-150.92 1204.94,-134.96"/>
<polygon fill="midnightblue" stroke="midnightblue" points="1205.86,-131.55 1195.28,-131.07 1203.25,-138.05 1205.86,-131.55"/>
</g>
<!-- Node18 -->
<g id="node18" class="node">
<title>Node18</title>
<g id="a_node18"><a xlink:href="../../db/d80/ntv2caption608types_8h.html" target="_top" xlink:title="Declares several data types used with 608/SD captioning.">
<polygon fill="white" stroke="black" points="738.5,-336.5 738.5,-355.5 866.5,-355.5 866.5,-336.5 738.5,-336.5"/>
<text text-anchor="middle" x="802.5" y="-343.5" font-family="Helvetica,sans-Serif" font-size="10.00">ntv2caption608types.h</text>
</a>
</g>
</g>
<!-- Node1&#45;&gt;Node18 -->
<g id="edge26" class="edge">
<title>Node1&#45;&gt;Node18</title>
<path fill="none" stroke="midnightblue" d="M802.5,-392.5C802.5,-384.07 802.5,-374.24 802.5,-365.87"/>
<polygon fill="midnightblue" stroke="midnightblue" points="806,-365.65 802.5,-355.65 799,-365.65 806,-365.65"/>
</g>
<!-- Node3 -->
<g id="node3" class="node">
<title>Node3</title>
<g id="a_node3"><a xlink:href="../../db/de2/ajatypes_8h.html" target="_top" xlink:title="Declares the most fundamental data types used by NTV2. Since Windows NT was the first principal devel...">
<polygon fill="white" stroke="black" points="277.5,-56.5 277.5,-75.5 345.5,-75.5 345.5,-56.5 277.5,-56.5"/>
<text text-anchor="middle" x="311.5" y="-63.5" font-family="Helvetica,sans-Serif" font-size="10.00">ajatypes.h</text>
</a>
</g>
</g>
<!-- Node2&#45;&gt;Node3 -->
<g id="edge2" class="edge">
<title>Node2&#45;&gt;Node3</title>
<path fill="none" stroke="midnightblue" d="M65.17,-224.26C79.96,-202.16 122.02,-143.54 171.5,-112 200.87,-93.28 238.69,-81.73 267.62,-75.03"/>
<polygon fill="midnightblue" stroke="midnightblue" points="268.44,-78.43 277.45,-72.86 266.93,-71.6 268.44,-78.43"/>
</g>
<!-- Node4 -->
<g id="node4" class="node">
<title>Node4</title>
<g id="a_node4"><a xlink:title=" ">
<polygon fill="white" stroke="#bfbfbf" points="146,-0.5 146,-19.5 199,-19.5 199,-0.5 146,-0.5"/>
<text text-anchor="middle" x="172.5" y="-7.5" font-family="Helvetica,sans-Serif" font-size="10.00">stdint.h</text>
</a>
</g>
</g>
<!-- Node2&#45;&gt;Node4 -->
<g id="edge22" class="edge">
<title>Node2&#45;&gt;Node4</title>
<path fill="none" stroke="midnightblue" d="M56.23,-224.27C46.49,-196.7 20.6,-110.06 57.5,-56 74.89,-30.52 109.07,-19.47 135.66,-14.67"/>
<polygon fill="midnightblue" stroke="midnightblue" points="136.46,-18.09 145.8,-13.07 135.37,-11.17 136.46,-18.09"/>
</g>
<!-- Node5 -->
<g id="node5" class="node">
<title>Node5</title>
<g id="a_node5"><a xlink:href="../../d4/dd7/ntv2publicinterface_8h.html" target="_top" xlink:title="Declares enums and structs used by all platform drivers and the SDK.">
<polygon fill="white" stroke="black" points="663.5,-168.5 663.5,-187.5 783.5,-187.5 783.5,-168.5 663.5,-168.5"/>
<text text-anchor="middle" x="723.5" y="-175.5" font-family="Helvetica,sans-Serif" font-size="10.00">ntv2publicinterface.h</text>
</a>
</g>
</g>
<!-- Node2&#45;&gt;Node5 -->
<g id="edge4" class="edge">
<title>Node2&#45;&gt;Node5</title>
<path fill="none" stroke="midnightblue" d="M119.01,-228.16C241.59,-218.19 521.71,-195.41 653.07,-184.73"/>
<polygon fill="midnightblue" stroke="midnightblue" points="653.72,-188.19 663.41,-183.89 653.16,-181.21 653.72,-188.19"/>
</g>
<!-- Node9 -->
<g id="node9" class="node">
<title>Node9</title>
<g id="a_node9"><a xlink:title=" ">
<polygon fill="white" stroke="#bfbfbf" points="826.5,-0.5 826.5,-19.5 870.5,-19.5 870.5,-0.5 826.5,-0.5"/>
<text text-anchor="middle" x="848.5" y="-7.5" font-family="Helvetica,sans-Serif" font-size="10.00">string</text>
</a>
</g>
</g>
<!-- Node2&#45;&gt;Node9 -->
<g id="edge23" class="edge">
<title>Node2&#45;&gt;Node9</title>
<path fill="none" stroke="midnightblue" d="M60.06,-224.44C62.51,-195.05 74.9,-97.73 133.5,-56 189.61,-16.04 683.99,-11.54 816.14,-11.05"/>
<polygon fill="midnightblue" stroke="midnightblue" points="816.42,-14.55 826.41,-11.02 816.4,-7.55 816.42,-14.55"/>
</g>
<!-- Node10 -->
<g id="node10" class="node">
<title>Node10</title>
<g id="a_node10"><a xlink:title=" ">
<polygon fill="white" stroke="#bfbfbf" points="339.5,-112.5 339.5,-131.5 399.5,-131.5 399.5,-112.5 339.5,-112.5"/>
<text text-anchor="middle" x="369.5" y="-119.5" font-family="Helvetica,sans-Serif" font-size="10.00">iostream</text>
</a>
</g>
</g>
<!-- Node2&#45;&gt;Node10 -->
<g id="edge24" class="edge">
<title>Node2&#45;&gt;Node10</title>
<path fill="none" stroke="midnightblue" d="M119.14,-230.35C222.31,-225.16 425.13,-211.99 446.5,-188 464.79,-167.46 431.57,-147.63 403.21,-135.39"/>
<polygon fill="midnightblue" stroke="midnightblue" points="404.44,-132.11 393.86,-131.54 401.78,-138.58 404.44,-132.11"/>
</g>
<!-- Node11 -->
<g id="node11" class="node">
<title>Node11</title>
<g id="a_node11"><a xlink:title=" ">
<polygon fill="white" stroke="#bfbfbf" points="213.5,-112.5 213.5,-131.5 245.5,-131.5 245.5,-112.5 213.5,-112.5"/>
<text text-anchor="middle" x="229.5" y="-119.5" font-family="Helvetica,sans-Serif" font-size="10.00">set</text>
</a>
</g>
</g>
<!-- Node2&#45;&gt;Node11 -->
<g id="edge25" class="edge">
<title>Node2&#45;&gt;Node11</title>
<path fill="none" stroke="midnightblue" d="M72.84,-224.37C102.01,-205.49 171.72,-160.38 207.5,-137.24"/>
<polygon fill="midnightblue" stroke="midnightblue" points="209.73,-139.96 216.22,-131.59 205.93,-134.09 209.73,-139.96"/>
</g>
<!-- Node3&#45;&gt;Node4 -->
<g id="edge3" class="edge">
<title>Node3&#45;&gt;Node4</title>
<path fill="none" stroke="midnightblue" d="M289.48,-56.44C266.4,-47.48 229.94,-33.31 203.86,-23.18"/>
<polygon fill="midnightblue" stroke="midnightblue" points="205.01,-19.88 194.42,-19.52 202.48,-26.4 205.01,-19.88"/>
</g>
<!-- Node5&#45;&gt;Node3 -->
<g id="edge5" class="edge">
<title>Node5&#45;&gt;Node3</title>
<path fill="none" stroke="midnightblue" d="M663.41,-169.54C594.4,-160.58 485.66,-145.1 446.5,-132 428.4,-125.95 425.61,-120.46 408.5,-112 385.58,-100.66 359.25,-88.5 339.81,-79.68"/>
<polygon fill="midnightblue" stroke="midnightblue" points="341.15,-76.44 330.59,-75.52 338.26,-82.82 341.15,-76.44"/>
</g>
<!-- Node6 -->
<g id="node6" class="node">
<title>Node6</title>
<g id="a_node6"><a xlink:href="../../d6/d0c/ntv2enums_8h.html" target="_top" xlink:title="Enumerations for controlling NTV2 devices.">
<polygon fill="white" stroke="black" points="841.5,-112.5 841.5,-131.5 921.5,-131.5 921.5,-112.5 841.5,-112.5"/>
<text text-anchor="middle" x="881.5" y="-119.5" font-family="Helvetica,sans-Serif" font-size="10.00">ntv2enums.h</text>
</a>
</g>
</g>
<!-- Node5&#45;&gt;Node6 -->
<g id="edge6" class="edge">
<title>Node5&#45;&gt;Node6</title>
<path fill="none" stroke="midnightblue" d="M748.54,-168.44C775.12,-159.36 817.31,-144.94 847.02,-134.78"/>
<polygon fill="midnightblue" stroke="midnightblue" points="848.25,-138.06 856.58,-131.52 845.99,-131.44 848.25,-138.06"/>
</g>
<!-- Node8 -->
<g id="node8" class="node">
<title>Node8</title>
<g id="a_node8"><a xlink:href="../../d6/dd9/ajaexport_8h.html" target="_top" xlink:title="Defines the import/export macros for producing DLLs or LIBs.">
<polygon fill="white" stroke="black" points="1083.5,-0.5 1083.5,-19.5 1155.5,-19.5 1155.5,-0.5 1083.5,-0.5"/>
<text text-anchor="middle" x="1119.5" y="-7.5" font-family="Helvetica,sans-Serif" font-size="10.00">ajaexport.h</text>
</a>
</g>
</g>
<!-- Node5&#45;&gt;Node8 -->
<g id="edge19" class="edge">
<title>Node5&#45;&gt;Node8</title>
<path fill="none" stroke="midnightblue" d="M783.63,-169.69C825.88,-163.19 883.08,-151.59 930.5,-132 998.3,-103.99 1068.61,-51.72 1101.06,-26.04"/>
<polygon fill="midnightblue" stroke="midnightblue" points="1103.56,-28.52 1109.18,-19.54 1099.18,-23.06 1103.56,-28.52"/>
</g>
<!-- Node5&#45;&gt;Node9 -->
<g id="edge15" class="edge">
<title>Node5&#45;&gt;Node9</title>
<path fill="none" stroke="midnightblue" d="M742.9,-168.37C758.3,-160.69 779.51,-148.17 793.5,-132 807.62,-115.68 830.46,-58.62 841.75,-29.06"/>
<polygon fill="midnightblue" stroke="midnightblue" points="845.09,-30.13 845.35,-19.54 838.54,-27.66 845.09,-30.13"/>
</g>
<!-- Node5&#45;&gt;Node10 -->
<g id="edge11" class="edge">
<title>Node5&#45;&gt;Node10</title>
<path fill="none" stroke="midnightblue" d="M663.33,-169.31C600.75,-161.07 500.02,-147.12 413.5,-132 412.25,-131.78 410.98,-131.55 409.69,-131.32"/>
<polygon fill="midnightblue" stroke="midnightblue" points="410.23,-127.86 399.75,-129.43 408.92,-134.74 410.23,-127.86"/>
</g>
<!-- Node5&#45;&gt;Node11 -->
<g id="edge12" class="edge">
<title>Node5&#45;&gt;Node11</title>
<path fill="none" stroke="midnightblue" d="M663.42,-170.43C555.34,-158.62 332.27,-134.23 255.86,-125.88"/>
<polygon fill="midnightblue" stroke="midnightblue" points="256,-122.38 245.68,-124.77 255.24,-129.33 256,-122.38"/>
</g>
<!-- Node12 -->
<g id="node12" class="node">
<title>Node12</title>
<g id="a_node12"><a xlink:title=" ">
<polygon fill="white" stroke="#bfbfbf" points="1053.5,-112.5 1053.5,-131.5 1091.5,-131.5 1091.5,-112.5 1053.5,-112.5"/>
<text text-anchor="middle" x="1072.5" y="-119.5" font-family="Helvetica,sans-Serif" font-size="10.00">map</text>
</a>
</g>
</g>
<!-- Node5&#45;&gt;Node12 -->
<g id="edge13" class="edge">
<title>Node5&#45;&gt;Node12</title>
<path fill="none" stroke="midnightblue" d="M778.8,-168.44C853.89,-156.82 985.39,-136.48 1043.49,-127.49"/>
<polygon fill="midnightblue" stroke="midnightblue" points="1044.11,-130.93 1053.46,-125.95 1043.04,-124.02 1044.11,-130.93"/>
</g>
<!-- Node5&#45;&gt;Node13 -->
<g id="edge14" class="edge">
<title>Node5&#45;&gt;Node13</title>
<path fill="none" stroke="midnightblue" d="M783.59,-169.96C858,-161.22 988.63,-145.77 1100.5,-132 1112.71,-130.5 1126.09,-128.81 1137.92,-127.31"/>
<polygon fill="midnightblue" stroke="midnightblue" points="1138.36,-130.78 1147.84,-126.04 1137.48,-123.84 1138.36,-130.78"/>
</g>
<!-- Node14 -->
<g id="node14" class="node">
<title>Node14</title>
<g id="a_node14"><a xlink:title=" ">
<polygon fill="white" stroke="#bfbfbf" points="595.5,-112.5 595.5,-131.5 651.5,-131.5 651.5,-112.5 595.5,-112.5"/>
<text text-anchor="middle" x="623.5" y="-119.5" font-family="Helvetica,sans-Serif" font-size="10.00">iomanip</text>
</a>
</g>
</g>
<!-- Node5&#45;&gt;Node14 -->
<g id="edge16" class="edge">
<title>Node5&#45;&gt;Node14</title>
<path fill="none" stroke="midnightblue" d="M707.43,-168.32C691.54,-159.74 666.99,-146.49 648.54,-136.52"/>
<polygon fill="midnightblue" stroke="midnightblue" points="649.99,-133.33 639.53,-131.65 646.66,-139.49 649.99,-133.33"/>
</g>
<!-- Node15 -->
<g id="node15" class="node">
<title>Node15</title>
<g id="a_node15"><a xlink:title=" ">
<polygon fill="white" stroke="#bfbfbf" points="669.5,-112.5 669.5,-131.5 713.5,-131.5 713.5,-112.5 669.5,-112.5"/>
<text text-anchor="middle" x="691.5" y="-119.5" font-family="Helvetica,sans-Serif" font-size="10.00">bitset</text>
</a>
</g>
</g>
<!-- Node5&#45;&gt;Node15 -->
<g id="edge17" class="edge">
<title>Node5&#45;&gt;Node15</title>
<path fill="none" stroke="midnightblue" d="M718.22,-168.08C713.79,-160.61 707.34,-149.72 701.88,-140.52"/>
<polygon fill="midnightblue" stroke="midnightblue" points="704.79,-138.57 696.69,-131.75 698.77,-142.14 704.79,-138.57"/>
</g>
<!-- Node16 -->
<g id="node16" class="node">
<title>Node16</title>
<g id="a_node16"><a xlink:title=" ">
<polygon fill="white" stroke="#bfbfbf" points="732,-112.5 732,-131.5 785,-131.5 785,-112.5 732,-112.5"/>
<text text-anchor="middle" x="758.5" y="-119.5" font-family="Helvetica,sans-Serif" font-size="10.00">string.h</text>
</a>
</g>
</g>
<!-- Node5&#45;&gt;Node16 -->
<g id="edge18" class="edge">
<title>Node5&#45;&gt;Node16</title>
<path fill="none" stroke="midnightblue" d="M729.28,-168.08C734.17,-160.53 741.33,-149.49 747.33,-140.23"/>
<polygon fill="midnightblue" stroke="midnightblue" points="750.33,-142.05 752.83,-131.75 744.45,-138.24 750.33,-142.05"/>
</g>
<!-- Node17 -->
<g id="node17" class="node">
<title>Node17</title>
<g id="a_node17"><a xlink:href="../../da/df0/ntv2virtualregisters_8h.html" target="_top" xlink:title="Declares enums for virtual registers used in all platform drivers and the SDK.">
<polygon fill="white" stroke="black" points="455.5,-112.5 455.5,-131.5 577.5,-131.5 577.5,-112.5 455.5,-112.5"/>
<text text-anchor="middle" x="516.5" y="-119.5" font-family="Helvetica,sans-Serif" font-size="10.00">ntv2virtualregisters.h</text>
</a>
</g>
</g>
<!-- Node5&#45;&gt;Node17 -->
<g id="edge20" class="edge">
<title>Node5&#45;&gt;Node17</title>
<path fill="none" stroke="midnightblue" d="M690.7,-168.44C655.12,-159.16 598.19,-144.31 559.15,-134.13"/>
<polygon fill="midnightblue" stroke="midnightblue" points="559.71,-130.65 549.15,-131.52 557.94,-137.43 559.71,-130.65"/>
</g>
<!-- Node6&#45;&gt;Node3 -->
<g id="edge7" class="edge">
<title>Node6&#45;&gt;Node3</title>
<path fill="none" stroke="midnightblue" d="M841.2,-116.8C826.23,-115.26 809.09,-113.52 793.5,-112 632.31,-96.23 440.66,-78.7 355.75,-71"/>
<polygon fill="midnightblue" stroke="midnightblue" points="355.97,-67.51 345.7,-70.09 355.34,-74.48 355.97,-67.51"/>
</g>
<!-- Node7 -->
<g id="node7" class="node">
<title>Node7</title>
<g id="a_node7"><a xlink:href="../../d6/db1/ntv2version_8h.html" target="_top" xlink:title="Defines for the NTV2 SDK version number, used by ajantv2/includes/ntv2enums.h. See the ajantv2/includ...">
<polygon fill="white" stroke="black" points="842,-56.5 842,-75.5 925,-75.5 925,-56.5 842,-56.5"/>
<text text-anchor="middle" x="883.5" y="-63.5" font-family="Helvetica,sans-Serif" font-size="10.00">ntv2version.h</text>
</a>
</g>
</g>
<!-- Node6&#45;&gt;Node7 -->
<g id="edge8" class="edge">
<title>Node6&#45;&gt;Node7</title>
<path fill="none" stroke="midnightblue" d="M881.83,-112.08C882.09,-105.01 882.47,-94.86 882.8,-85.99"/>
<polygon fill="midnightblue" stroke="midnightblue" points="886.3,-85.87 883.18,-75.75 879.31,-85.61 886.3,-85.87"/>
</g>
<!-- Node7&#45;&gt;Node8 -->
<g id="edge9" class="edge">
<title>Node7&#45;&gt;Node8</title>
<path fill="none" stroke="midnightblue" d="M920.89,-56.44C962.25,-46.98 1028.92,-31.73 1073.46,-21.54"/>
<polygon fill="midnightblue" stroke="midnightblue" points="1074.47,-24.89 1083.44,-19.25 1072.91,-18.07 1074.47,-24.89"/>
</g>
<!-- Node7&#45;&gt;Node9 -->
<g id="edge10" class="edge">
<title>Node7&#45;&gt;Node9</title>
<path fill="none" stroke="midnightblue" d="M877.72,-56.08C872.83,-48.53 865.67,-37.49 859.67,-28.23"/>
<polygon fill="midnightblue" stroke="midnightblue" points="862.55,-26.24 854.17,-19.75 856.67,-30.05 862.55,-26.24"/>
</g>
<!-- Node17&#45;&gt;Node3 -->
<g id="edge21" class="edge">
<title>Node17&#45;&gt;Node3</title>
<path fill="none" stroke="midnightblue" d="M484.02,-112.44C448.78,-103.16 392.4,-88.31 353.74,-78.13"/>
<polygon fill="midnightblue" stroke="midnightblue" points="354.39,-74.68 343.83,-75.52 352.61,-81.45 354.39,-74.68"/>
</g>
<!-- Node18&#45;&gt;Node3 -->
<g id="edge27" class="edge">
<title>Node18&#45;&gt;Node3</title>
<path fill="none" stroke="midnightblue" d="M738.22,-340.24C580.19,-327.67 185.5,-290.7 185.5,-235 185.5,-235 185.5,-235 185.5,-177 185.5,-146.9 184.46,-134.46 204.5,-112 220.85,-93.68 245.87,-82.6 267.61,-76.03"/>
<polygon fill="midnightblue" stroke="midnightblue" points="268.63,-79.38 277.32,-73.31 266.75,-72.63 268.63,-79.38"/>
</g>
<!-- Node18&#45;&gt;Node8 -->
<g id="edge28" class="edge">
<title>Node18&#45;&gt;Node8</title>
<path fill="none" stroke="midnightblue" d="M866.5,-345.14C1008.51,-343.73 1337.5,-330.18 1337.5,-235 1337.5,-235 1337.5,-235 1337.5,-121 1337.5,-44.9 1230.31,-21.44 1166.26,-14.21"/>
<polygon fill="midnightblue" stroke="midnightblue" points="1166.3,-10.7 1155.99,-13.15 1165.58,-17.66 1166.3,-10.7"/>
</g>
<!-- Node18&#45;&gt;Node9 -->
<g id="edge49" class="edge">
<title>Node18&#45;&gt;Node9</title>
<path fill="none" stroke="midnightblue" d="M738.31,-342.24C619.36,-336.65 369.22,-322.59 285.5,-300 220.04,-282.34 147.5,-302.8 147.5,-235 147.5,-235 147.5,-235 147.5,-121 147.5,-59.95 209.92,-73.17 268.5,-56 372.51,-25.51 709.8,-14.51 816.1,-11.76"/>
<polygon fill="midnightblue" stroke="midnightblue" points="816.31,-15.25 826.22,-11.5 816.13,-8.25 816.31,-15.25"/>
</g>
<!-- Node18&#45;&gt;Node11 -->
<g id="edge50" class="edge">
<title>Node18&#45;&gt;Node11</title>
<path fill="none" stroke="midnightblue" d="M738.3,-339.94C650.35,-330.87 489.43,-306.55 367.5,-244 315.03,-217.08 266.3,-165.84 243.32,-139.52"/>
<polygon fill="midnightblue" stroke="midnightblue" points="245.72,-136.93 236.55,-131.62 240.4,-141.49 245.72,-136.93"/>
</g>
<!-- Node18&#45;&gt;Node12 -->
<g id="edge51" class="edge">
<title>Node18&#45;&gt;Node12</title>
<path fill="none" stroke="midnightblue" d="M866.53,-337.27C924.75,-326.67 1008.27,-301.8 1053.5,-244 1076.79,-214.24 1076.9,-167.49 1074.79,-141.68"/>
<polygon fill="midnightblue" stroke="midnightblue" points="1078.27,-141.31 1073.78,-131.72 1071.31,-142.02 1078.27,-141.31"/>
</g>
<!-- Node19 -->
<g id="node19" class="node">
<title>Node19</title>
<g id="a_node19"><a xlink:href="../../d0/d81/ntv2utils_8h.html" target="_top" xlink:title="Declares numerous NTV2 utility functions.">
<polygon fill="white" stroke="black" points="768.5,-280.5 768.5,-299.5 836.5,-299.5 836.5,-280.5 768.5,-280.5"/>
<text text-anchor="middle" x="802.5" y="-287.5" font-family="Helvetica,sans-Serif" font-size="10.00">ntv2utils.h</text>
</a>
</g>
</g>
<!-- Node18&#45;&gt;Node19 -->
<g id="edge29" class="edge">
<title>Node18&#45;&gt;Node19</title>
<path fill="none" stroke="midnightblue" d="M802.5,-336.08C802.5,-329.01 802.5,-318.86 802.5,-309.99"/>
<polygon fill="midnightblue" stroke="midnightblue" points="806,-309.75 802.5,-299.75 799,-309.75 806,-309.75"/>
</g>
<!-- Node23 -->
<g id="node23" class="node">
<title>Node23</title>
<g id="a_node23"><a xlink:title=" ">
<polygon fill="white" stroke="#bfbfbf" points="855,-280.5 855,-299.5 912,-299.5 912,-280.5 855,-280.5"/>
<text text-anchor="middle" x="883.5" y="-287.5" font-family="Helvetica,sans-Serif" font-size="10.00">ostream</text>
</a>
</g>
</g>
<!-- Node18&#45;&gt;Node23 -->
<g id="edge48" class="edge">
<title>Node18&#45;&gt;Node23</title>
<path fill="none" stroke="midnightblue" d="M815.51,-336.32C828.03,-327.98 847.18,-315.21 861.97,-305.35"/>
<polygon fill="midnightblue" stroke="midnightblue" points="864.14,-308.11 870.52,-299.65 860.26,-302.29 864.14,-308.11"/>
</g>
<!-- Node19&#45;&gt;Node3 -->
<g id="edge31" class="edge">
<title>Node19&#45;&gt;Node3</title>
<path fill="none" stroke="midnightblue" d="M768.18,-287.55C666.69,-282.43 371.74,-261.39 318.5,-188 296.54,-157.73 301.69,-111.18 306.9,-85.54"/>
<polygon fill="midnightblue" stroke="midnightblue" points="310.35,-86.17 309.13,-75.65 303.52,-84.64 310.35,-86.17"/>
</g>
<!-- Node19&#45;&gt;Node5 -->
<g id="edge35" class="edge">
<title>Node19&#45;&gt;Node5</title>
<path fill="none" stroke="midnightblue" d="M785.61,-280.35C772.06,-272.58 753.55,-259.95 742.5,-244 732.98,-230.26 728.17,-211.73 725.78,-197.97"/>
<polygon fill="midnightblue" stroke="midnightblue" points="729.2,-197.13 724.29,-187.74 722.27,-198.15 729.2,-197.13"/>
</g>
<!-- Node19&#45;&gt;Node6 -->
<g id="edge32" class="edge">
<title>Node19&#45;&gt;Node6</title>
<path fill="none" stroke="midnightblue" d="M820.5,-280.39C834.31,-272.81 852.63,-260.4 862.5,-244 881.79,-211.92 883.54,-166.74 882.74,-141.65"/>
<polygon fill="midnightblue" stroke="midnightblue" points="886.24,-141.47 882.26,-131.65 879.25,-141.81 886.24,-141.47"/>
</g>
<!-- Node19&#45;&gt;Node8 -->
<g id="edge30" class="edge">
<title>Node19&#45;&gt;Node8</title>
<path fill="none" stroke="midnightblue" d="M836.71,-281.53C839.68,-280.97 842.64,-280.46 845.5,-280 990.33,-256.95 1036.92,-297.41 1173.5,-244 1218.78,-226.29 1261.5,-227.62 1261.5,-179 1261.5,-179 1261.5,-179 1261.5,-121 1261.5,-69.07 1201.41,-38.15 1159.41,-22.89"/>
<polygon fill="midnightblue" stroke="midnightblue" points="1160.56,-19.58 1149.96,-19.6 1158.26,-26.19 1160.56,-19.58"/>
</g>
<!-- Node19&#45;&gt;Node9 -->
<g id="edge45" class="edge">
<title>Node19&#45;&gt;Node9</title>
<path fill="none" stroke="midnightblue" d="M836.73,-281.65C839.69,-281.07 842.65,-280.51 845.5,-280 931.07,-264.59 1223.5,-265.95 1223.5,-179 1223.5,-179 1223.5,-179 1223.5,-121 1223.5,-49.78 971.31,-21.39 880.55,-13.49"/>
<polygon fill="midnightblue" stroke="midnightblue" points="880.82,-10 870.56,-12.64 880.23,-16.97 880.82,-10"/>
</g>
<!-- Node19&#45;&gt;Node10 -->
<g id="edge46" class="edge">
<title>Node19&#45;&gt;Node10</title>
<path fill="none" stroke="midnightblue" d="M780.13,-280.42C708.49,-252.96 484.55,-167.11 401.18,-135.15"/>
<polygon fill="midnightblue" stroke="midnightblue" points="402.32,-131.84 391.73,-131.52 399.82,-138.37 402.32,-131.84"/>
</g>
<!-- Node19&#45;&gt;Node13 -->
<g id="edge47" class="edge">
<title>Node19&#45;&gt;Node13</title>
<path fill="none" stroke="midnightblue" d="M836.75,-281.72C839.7,-281.12 842.65,-280.54 845.5,-280 937.65,-262.39 969.31,-285.4 1053.5,-244 1102.26,-220.02 1142.22,-167.43 1160.6,-140.16"/>
<polygon fill="midnightblue" stroke="midnightblue" points="1163.61,-141.94 1166.18,-131.66 1157.76,-138.1 1163.61,-141.94"/>
</g>
<!-- Node20 -->
<g id="node20" class="node">
<title>Node20</title>
<g id="a_node20"><a xlink:href="../../d9/d61/ntv2videodefines_8h.html" target="_top" xlink:title="Declares common video macros and structs used in the SDK.">
<polygon fill="white" stroke="black" points="327.5,-168.5 327.5,-187.5 437.5,-187.5 437.5,-168.5 327.5,-168.5"/>
<text text-anchor="middle" x="382.5" y="-175.5" font-family="Helvetica,sans-Serif" font-size="10.00">ntv2videodefines.h</text>
</a>
</g>
</g>
<!-- Node19&#45;&gt;Node20 -->
<g id="edge33" class="edge">
<title>Node19&#45;&gt;Node20</title>
<path fill="none" stroke="midnightblue" d="M768.36,-287.07C713.49,-283.21 602.79,-272.36 513.5,-244 473.59,-231.32 430.73,-208 405.29,-193.01"/>
<polygon fill="midnightblue" stroke="midnightblue" points="406.81,-189.85 396.43,-187.72 403.22,-195.85 406.81,-189.85"/>
</g>
<!-- Node21 -->
<g id="node21" class="node">
<title>Node21</title>
<g id="a_node21"><a xlink:href="../../dc/df4/ntv2formatdescriptor_8h.html" target="_top" xlink:title="Declares the NTV2FormatDescriptor class.">
<polygon fill="white" stroke="black" points="916.5,-224.5 916.5,-243.5 1044.5,-243.5 1044.5,-224.5 916.5,-224.5"/>
<text text-anchor="middle" x="980.5" y="-231.5" font-family="Helvetica,sans-Serif" font-size="10.00">ntv2formatdescriptor.h</text>
</a>
</g>
</g>
<!-- Node19&#45;&gt;Node21 -->
<g id="edge36" class="edge">
<title>Node19&#45;&gt;Node21</title>
<path fill="none" stroke="midnightblue" d="M830.7,-280.44C860.91,-271.28 909.01,-256.69 942.53,-246.52"/>
<polygon fill="midnightblue" stroke="midnightblue" points="943.87,-249.77 952.43,-243.52 941.84,-243.07 943.87,-249.77"/>
</g>
<!-- Node22 -->
<g id="node22" class="node">
<title>Node22</title>
<g id="a_node22"><a xlink:href="../../de/d26/ntv2m31enums_8h.html" target="_top" xlink:title="Enumerations for controlling NTV2 devices with m31 HEVC encoders.">
<polygon fill="white" stroke="black" points="751.5,-224.5 751.5,-243.5 853.5,-243.5 853.5,-224.5 751.5,-224.5"/>
<text text-anchor="middle" x="802.5" y="-231.5" font-family="Helvetica,sans-Serif" font-size="10.00">ntv2m31enums.h</text>
</a>
</g>
</g>
<!-- Node19&#45;&gt;Node22 -->
<g id="edge44" class="edge">
<title>Node19&#45;&gt;Node22</title>
<path fill="none" stroke="midnightblue" d="M802.5,-280.08C802.5,-273.01 802.5,-262.86 802.5,-253.99"/>
<polygon fill="midnightblue" stroke="midnightblue" points="806,-253.75 802.5,-243.75 799,-253.75 806,-253.75"/>
</g>
<!-- Node20&#45;&gt;Node3 -->
<g id="edge34" class="edge">
<title>Node20&#45;&gt;Node3</title>
<path fill="none" stroke="midnightblue" d="M368.58,-168.31C356.8,-160.27 340.31,-147.27 330.5,-132 321.47,-117.93 316.61,-99.44 314.07,-85.78"/>
<polygon fill="midnightblue" stroke="midnightblue" points="317.48,-84.96 312.45,-75.64 310.57,-86.07 317.48,-84.96"/>
</g>
<!-- Node21&#45;&gt;Node3 -->
<g id="edge38" class="edge">
<title>Node21&#45;&gt;Node3</title>
<path fill="none" stroke="midnightblue" d="M979.9,-224.43C977.79,-201.66 968.64,-139.56 930.5,-112 884.21,-78.55 490.05,-69.64 355.95,-67.57"/>
<polygon fill="midnightblue" stroke="midnightblue" points="355.69,-64.06 345.64,-67.41 355.59,-71.06 355.69,-64.06"/>
</g>
<!-- Node21&#45;&gt;Node5 -->
<g id="edge40" class="edge">
<title>Node21&#45;&gt;Node5</title>
<path fill="none" stroke="midnightblue" d="M939.78,-224.44C894.85,-215 822.5,-199.8 774,-189.61"/>
<polygon fill="midnightblue" stroke="midnightblue" points="774.54,-186.15 764.03,-187.52 773.1,-193 774.54,-186.15"/>
</g>
<!-- Node21&#45;&gt;Node6 -->
<g id="edge39" class="edge">
<title>Node21&#45;&gt;Node6</title>
<path fill="none" stroke="midnightblue" d="M972.73,-224.37C956.18,-205.97 917.2,-162.67 895.95,-139.05"/>
<polygon fill="midnightblue" stroke="midnightblue" points="898.52,-136.68 889.23,-131.59 893.32,-141.37 898.52,-136.68"/>
</g>
<!-- Node21&#45;&gt;Node8 -->
<g id="edge37" class="edge">
<title>Node21&#45;&gt;Node8</title>
<path fill="none" stroke="midnightblue" d="M996.93,-224.37C1023.55,-209.44 1075.62,-176.12 1100.5,-132 1118.8,-99.54 1120.95,-54.82 1120.49,-29.83"/>
<polygon fill="midnightblue" stroke="midnightblue" points="1123.97,-29.45 1120.12,-19.58 1116.98,-29.69 1123.97,-29.45"/>
</g>
<!-- Node21&#45;&gt;Node9 -->
<g id="edge41" class="edge">
<title>Node21&#45;&gt;Node9</title>
<path fill="none" stroke="midnightblue" d="M982.72,-224.48C985.64,-211.95 989.89,-187.89 985.5,-168 973.67,-114.41 971.28,-95.81 933.5,-56 918.76,-40.47 897.45,-29.2 879.86,-21.83"/>
<polygon fill="midnightblue" stroke="midnightblue" points="881.12,-18.56 870.54,-18.13 878.54,-25.07 881.12,-18.56"/>
</g>
<!-- Node21&#45;&gt;Node10 -->
<g id="edge42" class="edge">
<title>Node21&#45;&gt;Node10</title>
<path fill="none" stroke="midnightblue" d="M916.23,-225.73C850.3,-217.9 744.88,-204.33 654.5,-188 545.73,-168.35 516.88,-159.17 409.58,-133.21"/>
<polygon fill="midnightblue" stroke="midnightblue" points="410.19,-129.76 399.65,-130.82 408.55,-136.56 410.19,-129.76"/>
</g>
<!-- Node21&#45;&gt;Node13 -->
<g id="edge43" class="edge">
<title>Node21&#45;&gt;Node13</title>
<path fill="none" stroke="midnightblue" d="M1005.07,-224.41C1026.88,-216.33 1059.26,-203.24 1085.5,-188 1110.72,-173.36 1137.1,-152.45 1153.89,-138.34"/>
<polygon fill="midnightblue" stroke="midnightblue" points="1156.4,-140.8 1161.73,-131.65 1151.86,-135.47 1156.4,-140.8"/>
</g>
</g>
</svg>
        <g id="navigator" transform="translate(0 0)" fill="#404254">
                <rect fill="#f2f5e9" fill-opacity="0.5" stroke="#606060" stroke-width=".5" x="0" y="0" width="60" height="60"/>
                <use id="zoomplus" xlink:href="#zoomPlus" x="17" y="9" onmousedown="handleZoom(evt,'in')"/>
                <use id="zoomminus" xlink:href="#zoomMin" x="42" y="9" onmousedown="handleZoom(evt,'out')"/>
                <use id="reset" xlink:href="#resetDef" x="30" y="36" onmousedown="handleReset()"/>
                <g id="arrowUp" xlink:href="#dirArrow" transform="translate(30 24)" onmousedown="handlePan(0,-1)">
                  <use xlink:href="#rim" fill="#404040">
                        <set attributeName="fill" to="#808080" begin="arrowUp.mouseover" end="arrowUp.mouseout"/>
                  </use>
                  <path fill="none" stroke="white" stroke-width="1.5" d="M0,-3.0v7 M-2.5,-0.5L0,-3.0L2.5,-0.5"/>
                </g>
                <g id="arrowRight" xlink:href="#dirArrow" transform="rotate(90) translate(36 -43)" onmousedown="handlePan(1,0)">
                  <use xlink:href="#rim" fill="#404040">
                        <set attributeName="fill" to="#808080" begin="arrowRight.mouseover" end="arrowRight.mouseout"/>
                  </use>
                  <path fill="none" stroke="white" stroke-width="1.5" d="M0,-3.0v7 M-2.5,-0.5L0,-3.0L2.5,-0.5"/>
                </g>
                <g id="arrowDown" xlink:href="#dirArrow" transform="rotate(180) translate(-30 -48)" onmousedown="handlePan(0,1)">
                  <use xlink:href="#rim" fill="#404040">
                        <set attributeName="fill" to="#808080" begin="arrowDown.mouseover" end="arrowDown.mouseout"/>
                  </use>
                  <path fill="none" stroke="white" stroke-width="1.5" d="M0,-3.0v7 M-2.5,-0.5L0,-3.0L2.5,-0.5"/>
                </g>
                <g id="arrowLeft" xlink:href="#dirArrow" transform="rotate(270) translate(-36 17)" onmousedown="handlePan(-1,0)">
                  <use xlink:href="#rim" fill="#404040">
                        <set attributeName="fill" to="#808080" begin="arrowLeft.mouseover" end="arrowLeft.mouseout"/>
                  </use>
                  <path fill="none" stroke="white" stroke-width="1.5" d="M0,-3.0v7 M-2.5,-0.5L0,-3.0L2.5,-0.5"/>
                </g>
        </g>
        <svg viewBox="0 0 15 15" width="100%" height="30px" preserveAspectRatio="xMaxYMin meet">
         <g id="arrow_out" transform="scale(0.3 0.3)">
          <a xlink:href="ntv2line21captioner_8h__incl_org.svg" target="_base">
           <rect id="button" ry="5" rx="5" y="6" x="6" height="38" width="38"
                fill="#f2f5e9" fill-opacity="0.5" stroke="#606060" stroke-width="1.0"/>
           <path id="arrow"
             d="M 11.500037,31.436501 C 11.940474,20.09759 22.043105,11.32322 32.158766,21.979434 L 37.068811,17.246167 C 37.068811,17.246167 37.088388,32 37.088388,32 L 22.160133,31.978069 C 22.160133,31.978069 26.997745,27.140456 26.997745,27.140456 C 18.528582,18.264221 13.291696,25.230495 11.500037,31.436501 z"
             style="fill:#404040;"/>
          </a>
         </g>
        </svg>
</svg>
