<?xml version="1.0" encoding="UTF-8" standalone="no"?>
<!DOCTYPE svg PUBLIC "-//W3C//DTD SVG 1.1//EN"
 "http://www.w3.org/Graphics/SVG/1.1/DTD/svg11.dtd">
<!-- Generated by graphviz version 2.43.0 (0)
 -->
<!-- Title: /home/tcbuilder/buildAgent/work/df8e8cce5bebfd58/libajantv2/ajaanc/src/ancillarydata_timecode_vitc.cpp Pages: 1 -->
<!--zoomable 509 -->
<svg id="main" version="1.1" xmlns="http://www.w3.org/2000/svg" xmlns:xlink="http://www.w3.org/1999/xlink" xml:space="preserve" onload="init(evt)">
<style type="text/css"><![CDATA[
.edge:hover path { stroke: red; }
.edge:hover polygon { stroke: red; fill: red; }
]]></style>
<script type="text/javascript"><![CDATA[
var edges = document.getElementsByTagName('g');
if (edges && edges.length) {
  for (var i=0;i<edges.length;i++) {
    if (edges[i].id.substr(0,4)=='edge') {
      edges[i].setAttribute('class','edge');
    }
  }
}
]]></script>
        <defs>
                <circle id="rim" cx="0" cy="0" r="7"/>
                <circle id="rim2" cx="0" cy="0" r="3.5"/>
                <g id="zoomPlus">
                        <use xlink:href="#rim" fill="#404040">
                                <set attributeName="fill" to="#808080" begin="zoomplus.mouseover" end="zoomplus.mouseout"/>
                        </use>
                        <path d="M-4,0h8M0,-4v8" fill="none" stroke="white" stroke-width="1.5" pointer-events="none"/>
                </g>
                <g id="zoomMin">
                        <use xlink:href="#rim" fill="#404040">
                                <set attributeName="fill" to="#808080" begin="zoomminus.mouseover" end="zoomminus.mouseout"/>
                        </use>
                        <path d="M-4,0h8" fill="none" stroke="white" stroke-width="1.5" pointer-events="none"/>
                </g>
                <g id="dirArrow">
                        <path fill="none" stroke="white" stroke-width="1.5" d="M0,-3.0v7 M-2.5,-0.5L0,-3.0L2.5,-0.5"/>
                </g>
               <g id="resetDef">
                       <use xlink:href="#rim2" fill="#404040">
                               <set attributeName="fill" to="#808080" begin="reset.mouseover" end="reset.mouseout"/>
                       </use>
               </g>
        </defs>

<script type="text/javascript">
var viewWidth = 1362;
var viewHeight = 509;
var sectionId = 'dynsection-0';
</script>
<script xlink:href="../../svgpan.js"/>
<svg id="graph" class="graph">
<g id="viewport">
<title>/home/tcbuilder/buildAgent/work/df8e8cce5bebfd58/libajantv2/ajaanc/src/ancillarydata_timecode_vitc.cpp</title>
<polygon fill="white" stroke="transparent" points="-4,4 -4,-505 1358,-505 1358,4 -4,4"/>
<!-- Node1 -->
<g id="node1" class="node">
<title>Node1</title>
<g id="a_node1"><a xlink:title="Implements the AJAAncillaryData_Timecode_VITC class.">
<polygon fill="#bfbfbf" stroke="black" points="1124,-459.5 1124,-500.5 1354,-500.5 1354,-459.5 1124,-459.5"/>
<text text-anchor="start" x="1132" y="-488.5" font-family="Helvetica,sans-Serif" font-size="10.00">/home/tcbuilder/buildAgent</text>
<text text-anchor="start" x="1132" y="-477.5" font-family="Helvetica,sans-Serif" font-size="10.00">/work/df8e8cce5bebfd58/libajantv2</text>
<text text-anchor="middle" x="1239" y="-466.5" font-family="Helvetica,sans-Serif" font-size="10.00">/ajaanc/src/ancillarydata_timecode_vitc.cpp</text>
</a>
</g>
</g>
<!-- Node2 -->
<g id="node2" class="node">
<title>Node2</title>
<g id="a_node2"><a xlink:href="../../d4/d69/ancillarydata__timecode__vitc_8h.html" target="_top" xlink:title="Declares the AJAAncillaryData_Timecode_VITC class.">
<polygon fill="white" stroke="black" points="617.5,-392.5 617.5,-422.5 748.5,-422.5 748.5,-392.5 617.5,-392.5"/>
<text text-anchor="start" x="625.5" y="-410.5" font-family="Helvetica,sans-Serif" font-size="10.00">ancillarydata_timecode</text>
<text text-anchor="middle" x="683" y="-399.5" font-family="Helvetica,sans-Serif" font-size="10.00">_vitc.h</text>
</a>
</g>
</g>
<!-- Node1&#45;&gt;Node2 -->
<g id="edge1" class="edge">
<title>Node1&#45;&gt;Node2</title>
<path fill="none" stroke="midnightblue" d="M1123.8,-464.39C1014.23,-450.5 852.59,-430 758.52,-418.08"/>
<polygon fill="midnightblue" stroke="midnightblue" points="758.87,-414.59 748.51,-416.81 757.99,-421.54 758.87,-414.59"/>
</g>
<!-- Node17 -->
<g id="node17" class="node">
<title>Node17</title>
<g id="a_node17"><a xlink:title=" ">
<polygon fill="white" stroke="#bfbfbf" points="1220,-112.5 1220,-131.5 1276,-131.5 1276,-112.5 1220,-112.5"/>
<text text-anchor="middle" x="1248" y="-119.5" font-family="Helvetica,sans-Serif" font-size="10.00">iomanip</text>
</a>
</g>
</g>
<!-- Node1&#45;&gt;Node17 -->
<g id="edge44" class="edge">
<title>Node1&#45;&gt;Node17</title>
<path fill="none" stroke="midnightblue" d="M1239,-459.32C1239,-433.53 1239,-386.88 1239,-347 1239,-347 1239,-347 1239,-233 1239,-200.84 1242.87,-163.57 1245.53,-141.71"/>
<polygon fill="midnightblue" stroke="midnightblue" points="1249.04,-141.9 1246.82,-131.54 1242.09,-141.02 1249.04,-141.9"/>
</g>
<!-- Node29 -->
<g id="node29" class="node">
<title>Node29</title>
<g id="a_node29"><a xlink:title=" ">
<polygon fill="white" stroke="#bfbfbf" points="1267.5,-398 1267.5,-417 1298.5,-417 1298.5,-398 1267.5,-398"/>
<text text-anchor="middle" x="1283" y="-405" font-family="Helvetica,sans-Serif" font-size="10.00">ios</text>
</a>
</g>
</g>
<!-- Node1&#45;&gt;Node29 -->
<g id="edge43" class="edge">
<title>Node1&#45;&gt;Node29</title>
<path fill="none" stroke="midnightblue" d="M1251.26,-459.36C1257.81,-448.86 1265.8,-436.05 1272.13,-425.91"/>
<polygon fill="midnightblue" stroke="midnightblue" points="1275.26,-427.51 1277.59,-417.17 1269.32,-423.8 1275.26,-427.51"/>
</g>
<!-- Node3 -->
<g id="node3" class="node">
<title>Node3</title>
<g id="a_node3"><a xlink:href="../../df/d78/ancillarydatafactory_8h.html" target="_top" xlink:title="Declaration of the AJAAncillaryDataFactory class.">
<polygon fill="white" stroke="black" points="562,-280.5 562,-299.5 684,-299.5 684,-280.5 562,-280.5"/>
<text text-anchor="middle" x="623" y="-287.5" font-family="Helvetica,sans-Serif" font-size="10.00">ancillarydatafactory.h</text>
</a>
</g>
</g>
<!-- Node2&#45;&gt;Node3 -->
<g id="edge2" class="edge">
<title>Node2&#45;&gt;Node3</title>
<path fill="none" stroke="midnightblue" d="M675.64,-392.34C664.68,-371.24 644.09,-331.6 632.17,-308.65"/>
<polygon fill="midnightblue" stroke="midnightblue" points="635.22,-306.93 627.5,-299.67 629.01,-310.16 635.22,-306.93"/>
</g>
<!-- Node4 -->
<g id="node4" class="node">
<title>Node4</title>
<g id="a_node4"><a xlink:href="../../d7/d92/ancillarydata_8h.html" target="_top" xlink:title="Declares the AJAAncillaryData class.">
<polygon fill="white" stroke="black" points="578.5,-224.5 578.5,-243.5 667.5,-243.5 667.5,-224.5 578.5,-224.5"/>
<text text-anchor="middle" x="623" y="-231.5" font-family="Helvetica,sans-Serif" font-size="10.00">ancillarydata.h</text>
</a>
</g>
</g>
<!-- Node2&#45;&gt;Node4 -->
<g id="edge28" class="edge">
<title>Node2&#45;&gt;Node4</title>
<path fill="none" stroke="midnightblue" d="M688.94,-392.16C698.15,-367.53 712.85,-316.35 693,-280 685.18,-265.68 670.64,-255.24 656.82,-248.04"/>
<polygon fill="midnightblue" stroke="midnightblue" points="658,-244.72 647.47,-243.56 654.98,-251.03 658,-244.72"/>
</g>
<!-- Node22 -->
<g id="node22" class="node">
<title>Node22</title>
<g id="a_node22"><a xlink:href="../../d4/d23/ancillarydata__timecode_8h.html" target="_top" xlink:title="Declares the AJAAncillaryData_Timecode class.">
<polygon fill="white" stroke="black" points="464,-336.5 464,-355.5 604,-355.5 604,-336.5 464,-336.5"/>
<text text-anchor="middle" x="534" y="-343.5" font-family="Helvetica,sans-Serif" font-size="10.00">ancillarydata_timecode.h</text>
</a>
</g>
</g>
<!-- Node2&#45;&gt;Node22 -->
<g id="edge29" class="edge">
<title>Node2&#45;&gt;Node22</title>
<path fill="none" stroke="midnightblue" d="M647.69,-392.4C622.58,-382.37 589.16,-369.03 565.06,-359.4"/>
<polygon fill="midnightblue" stroke="midnightblue" points="566.27,-356.12 555.68,-355.66 563.67,-362.62 566.27,-356.12"/>
</g>
<!-- Node3&#45;&gt;Node4 -->
<g id="edge3" class="edge">
<title>Node3&#45;&gt;Node4</title>
<path fill="none" stroke="midnightblue" d="M623,-280.08C623,-273.01 623,-262.86 623,-253.99"/>
<polygon fill="midnightblue" stroke="midnightblue" points="626.5,-253.75 623,-243.75 619.5,-253.75 626.5,-253.75"/>
</g>
<!-- Node5 -->
<g id="node5" class="node">
<title>Node5</title>
<g id="a_node5"><a xlink:href="../../db/de2/ajatypes_8h.html" target="_top" xlink:title="Declares the most fundamental data types used by NTV2. Since Windows NT was the first principal devel...">
<polygon fill="white" stroke="black" points="1036,-56.5 1036,-75.5 1104,-75.5 1104,-56.5 1036,-56.5"/>
<text text-anchor="middle" x="1070" y="-63.5" font-family="Helvetica,sans-Serif" font-size="10.00">ajatypes.h</text>
</a>
</g>
</g>
<!-- Node4&#45;&gt;Node5 -->
<g id="edge4" class="edge">
<title>Node4&#45;&gt;Node5</title>
<path fill="none" stroke="midnightblue" d="M667.7,-231.46C783.7,-226.44 1089.6,-206.26 1151,-132 1168.81,-110.46 1135.37,-91.18 1106.2,-79.32"/>
<polygon fill="midnightblue" stroke="midnightblue" points="1107.15,-75.93 1096.56,-75.58 1104.62,-82.46 1107.15,-75.93"/>
</g>
<!-- Node7 -->
<g id="node7" class="node">
<title>Node7</title>
<g id="a_node7"><a xlink:href="../../d6/db1/ntv2version_8h.html" target="_top" xlink:title="Defines for the NTV2 SDK version number, used by ajantv2/includes/ntv2enums.h. See the ajantv2/includ...">
<polygon fill="white" stroke="black" points="504.5,-56.5 504.5,-75.5 587.5,-75.5 587.5,-56.5 504.5,-56.5"/>
<text text-anchor="middle" x="546" y="-63.5" font-family="Helvetica,sans-Serif" font-size="10.00">ntv2version.h</text>
</a>
</g>
</g>
<!-- Node4&#45;&gt;Node7 -->
<g id="edge6" class="edge">
<title>Node4&#45;&gt;Node7</title>
<path fill="none" stroke="midnightblue" d="M618.86,-224.08C606.63,-197.72 570.53,-119.88 554.19,-84.66"/>
<polygon fill="midnightblue" stroke="midnightblue" points="557.36,-83.17 549.97,-75.57 551.01,-86.11 557.36,-83.17"/>
</g>
<!-- Node10 -->
<g id="node10" class="node">
<title>Node10</title>
<g id="a_node10"><a xlink:href="../../d9/d49/types_8h.html" target="_top" xlink:title="Declares common types used in the ajabase library.">
<polygon fill="white" stroke="black" points="250,-112.5 250,-131.5 390,-131.5 390,-112.5 250,-112.5"/>
<text text-anchor="middle" x="320" y="-119.5" font-family="Helvetica,sans-Serif" font-size="10.00">ajabase/common/types.h</text>
</a>
</g>
</g>
<!-- Node4&#45;&gt;Node10 -->
<g id="edge9" class="edge">
<title>Node4&#45;&gt;Node10</title>
<path fill="none" stroke="midnightblue" d="M597.11,-224.47C570.43,-215.61 527.67,-201.22 491,-188 441.91,-170.31 385.41,-148.56 351.22,-135.24"/>
<polygon fill="midnightblue" stroke="midnightblue" points="352.36,-131.93 341.77,-131.55 349.82,-138.45 352.36,-131.93"/>
</g>
<!-- Node11 -->
<g id="node11" class="node">
<title>Node11</title>
<g id="a_node11"><a xlink:href="../../d4/dd7/ntv2publicinterface_8h.html" target="_top" xlink:title="Declares enums and structs used by all platform drivers and the SDK.">
<polygon fill="white" stroke="black" points="628,-168.5 628,-187.5 748,-187.5 748,-168.5 628,-168.5"/>
<text text-anchor="middle" x="688" y="-175.5" font-family="Helvetica,sans-Serif" font-size="10.00">ntv2publicinterface.h</text>
</a>
</g>
</g>
<!-- Node4&#45;&gt;Node11 -->
<g id="edge10" class="edge">
<title>Node4&#45;&gt;Node11</title>
<path fill="none" stroke="midnightblue" d="M633.44,-224.32C643.15,-216.26 657.82,-204.08 669.5,-194.37"/>
<polygon fill="midnightblue" stroke="midnightblue" points="671.91,-196.92 677.37,-187.83 667.44,-191.53 671.91,-196.92"/>
</g>
<!-- Node16 -->
<g id="node16" class="node">
<title>Node16</title>
<g id="a_node16"><a xlink:title=" ">
<polygon fill="white" stroke="#bfbfbf" points="408.5,-112.5 408.5,-131.5 455.5,-131.5 455.5,-112.5 408.5,-112.5"/>
<text text-anchor="middle" x="432" y="-119.5" font-family="Helvetica,sans-Serif" font-size="10.00">vector</text>
</a>
</g>
</g>
<!-- Node4&#45;&gt;Node16 -->
<g id="edge27" class="edge">
<title>Node4&#45;&gt;Node16</title>
<path fill="none" stroke="midnightblue" d="M601.67,-224.35C581.66,-215.95 551.14,-202.38 526,-188 499.06,-172.59 469.95,-151.75 451.38,-137.86"/>
<polygon fill="midnightblue" stroke="midnightblue" points="453.26,-134.89 443.17,-131.66 449.04,-140.48 453.26,-134.89"/>
</g>
<!-- Node21 -->
<g id="node21" class="node">
<title>Node21</title>
<g id="a_node21"><a xlink:title=" ">
<polygon fill="white" stroke="#bfbfbf" points="766,-168.5 766,-187.5 822,-187.5 822,-168.5 766,-168.5"/>
<text text-anchor="middle" x="794" y="-175.5" font-family="Helvetica,sans-Serif" font-size="10.00">sstream</text>
</a>
</g>
</g>
<!-- Node4&#45;&gt;Node21 -->
<g id="edge26" class="edge">
<title>Node4&#45;&gt;Node21</title>
<path fill="none" stroke="midnightblue" d="M650.1,-224.44C678.99,-215.32 724.92,-200.81 757.11,-190.65"/>
<polygon fill="midnightblue" stroke="midnightblue" points="758.55,-193.87 767.03,-187.52 756.44,-187.19 758.55,-193.87"/>
</g>
<!-- Node6 -->
<g id="node6" class="node">
<title>Node6</title>
<g id="a_node6"><a xlink:title=" ">
<polygon fill="white" stroke="#bfbfbf" points="1043.5,-0.5 1043.5,-19.5 1096.5,-19.5 1096.5,-0.5 1043.5,-0.5"/>
<text text-anchor="middle" x="1070" y="-7.5" font-family="Helvetica,sans-Serif" font-size="10.00">stdint.h</text>
</a>
</g>
</g>
<!-- Node5&#45;&gt;Node6 -->
<g id="edge5" class="edge">
<title>Node5&#45;&gt;Node6</title>
<path fill="none" stroke="midnightblue" d="M1070,-56.08C1070,-49.01 1070,-38.86 1070,-29.99"/>
<polygon fill="midnightblue" stroke="midnightblue" points="1073.5,-29.75 1070,-19.75 1066.5,-29.75 1073.5,-29.75"/>
</g>
<!-- Node8 -->
<g id="node8" class="node">
<title>Node8</title>
<g id="a_node8"><a xlink:href="../../d6/dd9/ajaexport_8h.html" target="_top" xlink:title="Defines the import/export macros for producing DLLs or LIBs.">
<polygon fill="white" stroke="black" points="548,-0.5 548,-19.5 620,-19.5 620,-0.5 548,-0.5"/>
<text text-anchor="middle" x="584" y="-7.5" font-family="Helvetica,sans-Serif" font-size="10.00">ajaexport.h</text>
</a>
</g>
</g>
<!-- Node7&#45;&gt;Node8 -->
<g id="edge7" class="edge">
<title>Node7&#45;&gt;Node8</title>
<path fill="none" stroke="midnightblue" d="M552.27,-56.08C557.64,-48.46 565.52,-37.26 572.08,-27.94"/>
<polygon fill="midnightblue" stroke="midnightblue" points="574.95,-29.94 577.84,-19.75 569.22,-25.91 574.95,-29.94"/>
</g>
<!-- Node9 -->
<g id="node9" class="node">
<title>Node9</title>
<g id="a_node9"><a xlink:title=" ">
<polygon fill="white" stroke="#bfbfbf" points="454,-0.5 454,-19.5 498,-19.5 498,-0.5 454,-0.5"/>
<text text-anchor="middle" x="476" y="-7.5" font-family="Helvetica,sans-Serif" font-size="10.00">string</text>
</a>
</g>
</g>
<!-- Node7&#45;&gt;Node9 -->
<g id="edge8" class="edge">
<title>Node7&#45;&gt;Node9</title>
<path fill="none" stroke="midnightblue" d="M534.75,-56.32C524.2,-48.18 508.2,-35.84 495.56,-26.09"/>
<polygon fill="midnightblue" stroke="midnightblue" points="497.51,-23.17 487.45,-19.83 493.23,-28.71 497.51,-23.17"/>
</g>
<!-- Node11&#45;&gt;Node5 -->
<g id="edge11" class="edge">
<title>Node11&#45;&gt;Node5</title>
<path fill="none" stroke="midnightblue" d="M748.2,-169.02C751.17,-168.67 754.12,-168.32 757,-168 798.92,-163.27 1106.62,-163.22 1135,-132 1151.95,-113.36 1123.29,-93 1098.82,-80.12"/>
<polygon fill="midnightblue" stroke="midnightblue" points="1100.26,-76.93 1089.75,-75.57 1097.12,-83.18 1100.26,-76.93"/>
</g>
<!-- Node11&#45;&gt;Node8 -->
<g id="edge23" class="edge">
<title>Node11&#45;&gt;Node8</title>
<path fill="none" stroke="midnightblue" d="M674.7,-168.4C662.94,-160.23 645.99,-146.99 635,-132 611.26,-99.64 596.06,-54.57 588.87,-29.57"/>
<polygon fill="midnightblue" stroke="midnightblue" points="592.16,-28.33 586.13,-19.61 585.41,-30.18 592.16,-28.33"/>
</g>
<!-- Node11&#45;&gt;Node9 -->
<g id="edge19" class="edge">
<title>Node11&#45;&gt;Node9</title>
<path fill="none" stroke="midnightblue" d="M654.86,-168.44C611.73,-155.59 536.95,-127.19 495,-76 484.18,-62.8 479.52,-43.66 477.52,-29.57"/>
<polygon fill="midnightblue" stroke="midnightblue" points="480.99,-29.12 476.41,-19.56 474.03,-29.89 480.99,-29.12"/>
</g>
<!-- Node12 -->
<g id="node12" class="node">
<title>Node12</title>
<g id="a_node12"><a xlink:href="../../d6/d0c/ntv2enums_8h.html" target="_top" xlink:title="Enumerations for controlling NTV2 devices.">
<polygon fill="white" stroke="black" points="828,-112.5 828,-131.5 908,-131.5 908,-112.5 828,-112.5"/>
<text text-anchor="middle" x="868" y="-119.5" font-family="Helvetica,sans-Serif" font-size="10.00">ntv2enums.h</text>
</a>
</g>
</g>
<!-- Node11&#45;&gt;Node12 -->
<g id="edge12" class="edge">
<title>Node11&#45;&gt;Node12</title>
<path fill="none" stroke="midnightblue" d="M716.52,-168.44C747.07,-159.28 795.71,-144.69 829.6,-134.52"/>
<polygon fill="midnightblue" stroke="midnightblue" points="831.04,-137.74 839.61,-131.52 829.03,-131.04 831.04,-137.74"/>
</g>
<!-- Node13 -->
<g id="node13" class="node">
<title>Node13</title>
<g id="a_node13"><a xlink:title=" ">
<polygon fill="white" stroke="#bfbfbf" points="1066,-112.5 1066,-131.5 1126,-131.5 1126,-112.5 1066,-112.5"/>
<text text-anchor="middle" x="1096" y="-119.5" font-family="Helvetica,sans-Serif" font-size="10.00">iostream</text>
</a>
</g>
</g>
<!-- Node11&#45;&gt;Node13 -->
<g id="edge15" class="edge">
<title>Node11&#45;&gt;Node13</title>
<path fill="none" stroke="midnightblue" d="M748.21,-169.11C751.18,-168.73 754.12,-168.36 757,-168 887,-151.72 922.98,-154.96 1055.68,-132.07"/>
<polygon fill="midnightblue" stroke="midnightblue" points="1056.58,-135.46 1065.83,-130.3 1055.38,-128.57 1056.58,-135.46"/>
</g>
<!-- Node14 -->
<g id="node14" class="node">
<title>Node14</title>
<g id="a_node14"><a xlink:title=" ">
<polygon fill="white" stroke="#bfbfbf" points="644,-112.5 644,-131.5 676,-131.5 676,-112.5 644,-112.5"/>
<text text-anchor="middle" x="660" y="-119.5" font-family="Helvetica,sans-Serif" font-size="10.00">set</text>
</a>
</g>
</g>
<!-- Node11&#45;&gt;Node14 -->
<g id="edge16" class="edge">
<title>Node11&#45;&gt;Node14</title>
<path fill="none" stroke="midnightblue" d="M683.38,-168.08C679.54,-160.69 673.98,-149.95 669.24,-140.81"/>
<polygon fill="midnightblue" stroke="midnightblue" points="672.25,-139.02 664.54,-131.75 666.03,-142.24 672.25,-139.02"/>
</g>
<!-- Node15 -->
<g id="node15" class="node">
<title>Node15</title>
<g id="a_node15"><a xlink:title=" ">
<polygon fill="white" stroke="#bfbfbf" points="474,-112.5 474,-131.5 512,-131.5 512,-112.5 474,-112.5"/>
<text text-anchor="middle" x="493" y="-119.5" font-family="Helvetica,sans-Serif" font-size="10.00">map</text>
</a>
</g>
</g>
<!-- Node11&#45;&gt;Node15 -->
<g id="edge17" class="edge">
<title>Node11&#45;&gt;Node15</title>
<path fill="none" stroke="midnightblue" d="M657.1,-168.44C620.06,-158.18 558.44,-141.12 522.18,-131.08"/>
<polygon fill="midnightblue" stroke="midnightblue" points="522.8,-127.62 512.23,-128.32 520.93,-134.37 522.8,-127.62"/>
</g>
<!-- Node11&#45;&gt;Node16 -->
<g id="edge18" class="edge">
<title>Node11&#45;&gt;Node16</title>
<path fill="none" stroke="midnightblue" d="M640.81,-168.43C597.66,-160.38 531.86,-147.57 465.53,-132"/>
<polygon fill="midnightblue" stroke="midnightblue" points="466.28,-128.58 455.74,-129.68 464.67,-135.39 466.28,-128.58"/>
</g>
<!-- Node11&#45;&gt;Node17 -->
<g id="edge20" class="edge">
<title>Node11&#45;&gt;Node17</title>
<path fill="none" stroke="midnightblue" d="M748.19,-169C751.17,-168.65 754.12,-168.31 757,-168 939.29,-148.14 985.54,-150.25 1168,-132 1181.61,-130.64 1196.5,-129 1209.71,-127.5"/>
<polygon fill="midnightblue" stroke="midnightblue" points="1210.34,-130.95 1219.88,-126.33 1209.55,-124 1210.34,-130.95"/>
</g>
<!-- Node18 -->
<g id="node18" class="node">
<title>Node18</title>
<g id="a_node18"><a xlink:title=" ">
<polygon fill="white" stroke="#bfbfbf" points="694,-112.5 694,-131.5 738,-131.5 738,-112.5 694,-112.5"/>
<text text-anchor="middle" x="716" y="-119.5" font-family="Helvetica,sans-Serif" font-size="10.00">bitset</text>
</a>
</g>
</g>
<!-- Node11&#45;&gt;Node18 -->
<g id="edge21" class="edge">
<title>Node11&#45;&gt;Node18</title>
<path fill="none" stroke="midnightblue" d="M692.62,-168.08C696.46,-160.69 702.02,-149.95 706.76,-140.81"/>
<polygon fill="midnightblue" stroke="midnightblue" points="709.97,-142.24 711.46,-131.75 703.75,-139.02 709.97,-142.24"/>
</g>
<!-- Node19 -->
<g id="node19" class="node">
<title>Node19</title>
<g id="a_node19"><a xlink:title=" ">
<polygon fill="white" stroke="#bfbfbf" points="756.5,-112.5 756.5,-131.5 809.5,-131.5 809.5,-112.5 756.5,-112.5"/>
<text text-anchor="middle" x="783" y="-119.5" font-family="Helvetica,sans-Serif" font-size="10.00">string.h</text>
</a>
</g>
</g>
<!-- Node11&#45;&gt;Node19 -->
<g id="edge22" class="edge">
<title>Node11&#45;&gt;Node19</title>
<path fill="none" stroke="midnightblue" d="M703.26,-168.32C718.22,-159.82 741.25,-146.73 758.73,-136.8"/>
<polygon fill="midnightblue" stroke="midnightblue" points="760.81,-139.64 767.77,-131.65 757.35,-133.55 760.81,-139.64"/>
</g>
<!-- Node20 -->
<g id="node20" class="node">
<title>Node20</title>
<g id="a_node20"><a xlink:href="../../da/df0/ntv2virtualregisters_8h.html" target="_top" xlink:title="Declares enums for virtual registers used in all platform drivers and the SDK.">
<polygon fill="white" stroke="black" points="926,-112.5 926,-131.5 1048,-131.5 1048,-112.5 926,-112.5"/>
<text text-anchor="middle" x="987" y="-119.5" font-family="Helvetica,sans-Serif" font-size="10.00">ntv2virtualregisters.h</text>
</a>
</g>
</g>
<!-- Node11&#45;&gt;Node20 -->
<g id="edge24" class="edge">
<title>Node11&#45;&gt;Node20</title>
<path fill="none" stroke="midnightblue" d="M735.38,-168.44C788.08,-158.92 873.23,-143.55 929.66,-133.36"/>
<polygon fill="midnightblue" stroke="midnightblue" points="930.63,-136.74 939.84,-131.52 929.38,-129.85 930.63,-136.74"/>
</g>
<!-- Node12&#45;&gt;Node5 -->
<g id="edge13" class="edge">
<title>Node12&#45;&gt;Node5</title>
<path fill="none" stroke="midnightblue" d="M900.01,-112.44C934.73,-103.16 990.29,-88.31 1028.38,-78.13"/>
<polygon fill="midnightblue" stroke="midnightblue" points="1029.39,-81.48 1038.14,-75.52 1027.58,-74.72 1029.39,-81.48"/>
</g>
<!-- Node12&#45;&gt;Node7 -->
<g id="edge14" class="edge">
<title>Node12&#45;&gt;Node7</title>
<path fill="none" stroke="midnightblue" d="M827.9,-113.57C824.89,-113.03 821.9,-112.5 819,-112 742.09,-98.6 652.8,-84.08 597.85,-75.26"/>
<polygon fill="midnightblue" stroke="midnightblue" points="598.09,-71.75 587.67,-73.63 596.99,-78.66 598.09,-71.75"/>
</g>
<!-- Node20&#45;&gt;Node5 -->
<g id="edge25" class="edge">
<title>Node20&#45;&gt;Node5</title>
<path fill="none" stroke="midnightblue" d="M1000.34,-112.32C1013.16,-103.98 1032.78,-91.21 1047.94,-81.35"/>
<polygon fill="midnightblue" stroke="midnightblue" points="1050.22,-84.04 1056.7,-75.65 1046.41,-78.17 1050.22,-84.04"/>
</g>
<!-- Node22&#45;&gt;Node3 -->
<g id="edge41" class="edge">
<title>Node22&#45;&gt;Node3</title>
<path fill="none" stroke="midnightblue" d="M548.3,-336.32C562.18,-327.9 583.49,-314.97 599.8,-305.07"/>
<polygon fill="midnightblue" stroke="midnightblue" points="602,-307.83 608.74,-299.65 598.37,-301.85 602,-307.83"/>
</g>
<!-- Node22&#45;&gt;Node4 -->
<g id="edge42" class="edge">
<title>Node22&#45;&gt;Node4</title>
<path fill="none" stroke="midnightblue" d="M534.63,-336.14C535.99,-322.76 540.19,-297.14 553,-280 563.19,-266.37 578.83,-255.75 592.74,-248.26"/>
<polygon fill="midnightblue" stroke="midnightblue" points="594.66,-251.21 602.01,-243.58 591.5,-244.97 594.66,-251.21"/>
</g>
<!-- Node23 -->
<g id="node23" class="node">
<title>Node23</title>
<g id="a_node23"><a xlink:href="../../d6/d23/timecode_8h.html" target="_top" xlink:title="Declares the AJATimeCode class.">
<polygon fill="white" stroke="black" points="348,-280.5 348,-299.5 506,-299.5 506,-280.5 348,-280.5"/>
<text text-anchor="middle" x="427" y="-287.5" font-family="Helvetica,sans-Serif" font-size="10.00">ajabase/common/timecode.h</text>
</a>
</g>
</g>
<!-- Node22&#45;&gt;Node23 -->
<g id="edge30" class="edge">
<title>Node22&#45;&gt;Node23</title>
<path fill="none" stroke="midnightblue" d="M516.81,-336.32C499.65,-327.66 473.05,-314.24 453.25,-304.25"/>
<polygon fill="midnightblue" stroke="midnightblue" points="454.65,-301.04 444.15,-299.65 451.5,-307.28 454.65,-301.04"/>
</g>
<!-- Node24 -->
<g id="node24" class="node">
<title>Node24</title>
<g id="a_node24"><a xlink:href="../../d4/d3c/timebase_8h.html" target="_top" xlink:title="Declares the AJATimeBase class.">
<polygon fill="white" stroke="black" points="241,-224.5 241,-243.5 399,-243.5 399,-224.5 241,-224.5"/>
<text text-anchor="middle" x="320" y="-231.5" font-family="Helvetica,sans-Serif" font-size="10.00">ajabase/common/timebase.h</text>
</a>
</g>
</g>
<!-- Node22&#45;&gt;Node24 -->
<g id="edge40" class="edge">
<title>Node22&#45;&gt;Node24</title>
<path fill="none" stroke="midnightblue" d="M464.63,-336.48C416.2,-329.18 357.13,-317.11 339,-300 326.45,-288.16 322.05,-268.53 320.57,-253.93"/>
<polygon fill="midnightblue" stroke="midnightblue" points="324.04,-253.31 319.92,-243.55 317.05,-253.76 324.04,-253.31"/>
</g>
<!-- Node23&#45;&gt;Node24 -->
<g id="edge31" class="edge">
<title>Node23&#45;&gt;Node24</title>
<path fill="none" stroke="midnightblue" d="M409.81,-280.32C392.65,-271.66 366.05,-258.24 346.25,-248.25"/>
<polygon fill="midnightblue" stroke="midnightblue" points="347.65,-245.04 337.15,-243.65 344.5,-251.28 347.65,-245.04"/>
</g>
<!-- Node25 -->
<g id="node25" class="node">
<title>Node25</title>
<g id="a_node25"><a xlink:href="../../d4/d79/public_8h.html" target="_top" xlink:title="Master header for the ajabase library.">
<polygon fill="white" stroke="black" points="249,-168.5 249,-187.5 391,-187.5 391,-168.5 249,-168.5"/>
<text text-anchor="middle" x="320" y="-175.5" font-family="Helvetica,sans-Serif" font-size="10.00">ajabase/common/public.h</text>
</a>
</g>
</g>
<!-- Node24&#45;&gt;Node25 -->
<g id="edge32" class="edge">
<title>Node24&#45;&gt;Node25</title>
<path fill="none" stroke="midnightblue" d="M320,-224.08C320,-217.01 320,-206.86 320,-197.99"/>
<polygon fill="midnightblue" stroke="midnightblue" points="323.5,-197.75 320,-187.75 316.5,-197.75 323.5,-197.75"/>
</g>
<!-- Node28 -->
<g id="node28" class="node">
<title>Node28</title>
<g id="a_node28"><a xlink:href="../../d6/da4/videotypes_8h.html" target="_top" xlink:title="Declares the enumeration constants used in the ajabase library.">
<polygon fill="white" stroke="black" points="63.5,-168.5 63.5,-187.5 230.5,-187.5 230.5,-168.5 63.5,-168.5"/>
<text text-anchor="middle" x="147" y="-175.5" font-family="Helvetica,sans-Serif" font-size="10.00">ajabase/common/videotypes.h</text>
</a>
</g>
</g>
<!-- Node24&#45;&gt;Node28 -->
<g id="edge39" class="edge">
<title>Node24&#45;&gt;Node28</title>
<path fill="none" stroke="midnightblue" d="M292.59,-224.44C263.23,-215.28 216.48,-200.69 183.9,-190.52"/>
<polygon fill="midnightblue" stroke="midnightblue" points="184.87,-187.16 174.28,-187.52 182.79,-193.84 184.87,-187.16"/>
</g>
<!-- Node25&#45;&gt;Node9 -->
<g id="edge34" class="edge">
<title>Node25&#45;&gt;Node9</title>
<path fill="none" stroke="midnightblue" d="M259.93,-168.42C216.68,-159.53 169.44,-142.52 191,-112 249.58,-29.09 382.29,-13.81 443.71,-11.29"/>
<polygon fill="midnightblue" stroke="midnightblue" points="444.08,-14.78 453.97,-10.96 443.86,-7.78 444.08,-14.78"/>
</g>
<!-- Node25&#45;&gt;Node10 -->
<g id="edge38" class="edge">
<title>Node25&#45;&gt;Node10</title>
<path fill="none" stroke="midnightblue" d="M320,-168.08C320,-161.01 320,-150.86 320,-141.99"/>
<polygon fill="midnightblue" stroke="midnightblue" points="323.5,-141.75 320,-131.75 316.5,-141.75 323.5,-141.75"/>
</g>
<!-- Node25&#45;&gt;Node15 -->
<g id="edge37" class="edge">
<title>Node25&#45;&gt;Node15</title>
<path fill="none" stroke="midnightblue" d="M347.41,-168.44C379.22,-158.51 431.45,-142.21 463.95,-132.07"/>
<polygon fill="midnightblue" stroke="midnightblue" points="465.25,-135.33 473.75,-129.01 463.16,-128.65 465.25,-135.33"/>
</g>
<!-- Node25&#45;&gt;Node16 -->
<g id="edge36" class="edge">
<title>Node25&#45;&gt;Node16</title>
<path fill="none" stroke="midnightblue" d="M337.99,-168.32C356.04,-159.62 384.05,-146.12 404.8,-136.11"/>
<polygon fill="midnightblue" stroke="midnightblue" points="406.56,-139.15 414.05,-131.65 403.52,-132.84 406.56,-139.15"/>
</g>
<!-- Node26 -->
<g id="node26" class="node">
<title>Node26</title>
<g id="a_node26"><a xlink:href="../../db/db5/export_8h.html" target="_top" xlink:title="Declares system&#45;dependent import/export macros and libraries.">
<polygon fill="white" stroke="black" points="0,-112.5 0,-131.5 144,-131.5 144,-112.5 0,-112.5"/>
<text text-anchor="middle" x="72" y="-119.5" font-family="Helvetica,sans-Serif" font-size="10.00">ajabase/common/export.h</text>
</a>
</g>
</g>
<!-- Node25&#45;&gt;Node26 -->
<g id="edge33" class="edge">
<title>Node25&#45;&gt;Node26</title>
<path fill="none" stroke="midnightblue" d="M280.7,-168.44C237.44,-159.02 167.83,-143.87 121.03,-133.68"/>
<polygon fill="midnightblue" stroke="midnightblue" points="121.63,-130.22 111.11,-131.52 120.14,-137.06 121.63,-130.22"/>
</g>
<!-- Node27 -->
<g id="node27" class="node">
<title>Node27</title>
<g id="a_node27"><a xlink:title=" ">
<polygon fill="white" stroke="#bfbfbf" points="200,-112.5 200,-131.5 232,-131.5 232,-112.5 200,-112.5"/>
<text text-anchor="middle" x="216" y="-119.5" font-family="Helvetica,sans-Serif" font-size="10.00">list</text>
</a>
</g>
</g>
<!-- Node25&#45;&gt;Node27 -->
<g id="edge35" class="edge">
<title>Node25&#45;&gt;Node27</title>
<path fill="none" stroke="midnightblue" d="M303.29,-168.32C286.59,-159.65 260.69,-146.21 241.44,-136.21"/>
<polygon fill="midnightblue" stroke="midnightblue" points="242.81,-132.98 232.33,-131.48 239.59,-139.19 242.81,-132.98"/>
</g>
</g>
</svg>
        <g id="navigator" transform="translate(0 0)" fill="#404254">
                <rect fill="#f2f5e9" fill-opacity="0.5" stroke="#606060" stroke-width=".5" x="0" y="0" width="60" height="60"/>
                <use id="zoomplus" xlink:href="#zoomPlus" x="17" y="9" onmousedown="handleZoom(evt,'in')"/>
                <use id="zoomminus" xlink:href="#zoomMin" x="42" y="9" onmousedown="handleZoom(evt,'out')"/>
                <use id="reset" xlink:href="#resetDef" x="30" y="36" onmousedown="handleReset()"/>
                <g id="arrowUp" xlink:href="#dirArrow" transform="translate(30 24)" onmousedown="handlePan(0,-1)">
                  <use xlink:href="#rim" fill="#404040">
                        <set attributeName="fill" to="#808080" begin="arrowUp.mouseover" end="arrowUp.mouseout"/>
                  </use>
                  <path fill="none" stroke="white" stroke-width="1.5" d="M0,-3.0v7 M-2.5,-0.5L0,-3.0L2.5,-0.5"/>
                </g>
                <g id="arrowRight" xlink:href="#dirArrow" transform="rotate(90) translate(36 -43)" onmousedown="handlePan(1,0)">
                  <use xlink:href="#rim" fill="#404040">
                        <set attributeName="fill" to="#808080" begin="arrowRight.mouseover" end="arrowRight.mouseout"/>
                  </use>
                  <path fill="none" stroke="white" stroke-width="1.5" d="M0,-3.0v7 M-2.5,-0.5L0,-3.0L2.5,-0.5"/>
                </g>
                <g id="arrowDown" xlink:href="#dirArrow" transform="rotate(180) translate(-30 -48)" onmousedown="handlePan(0,1)">
                  <use xlink:href="#rim" fill="#404040">
                        <set attributeName="fill" to="#808080" begin="arrowDown.mouseover" end="arrowDown.mouseout"/>
                  </use>
                  <path fill="none" stroke="white" stroke-width="1.5" d="M0,-3.0v7 M-2.5,-0.5L0,-3.0L2.5,-0.5"/>
                </g>
                <g id="arrowLeft" xlink:href="#dirArrow" transform="rotate(270) translate(-36 17)" onmousedown="handlePan(-1,0)">
                  <use xlink:href="#rim" fill="#404040">
                        <set attributeName="fill" to="#808080" begin="arrowLeft.mouseover" end="arrowLeft.mouseout"/>
                  </use>
                  <path fill="none" stroke="white" stroke-width="1.5" d="M0,-3.0v7 M-2.5,-0.5L0,-3.0L2.5,-0.5"/>
                </g>
        </g>
        <svg viewBox="0 0 15 15" width="100%" height="30px" preserveAspectRatio="xMaxYMin meet">
         <g id="arrow_out" transform="scale(0.3 0.3)">
          <a xlink:href="ancillarydata__timecode__vitc_8cpp__incl_org.svg" target="_base">
           <rect id="button" ry="5" rx="5" y="6" x="6" height="38" width="38"
                fill="#f2f5e9" fill-opacity="0.5" stroke="#606060" stroke-width="1.0"/>
           <path id="arrow"
             d="M 11.500037,31.436501 C 11.940474,20.09759 22.043105,11.32322 32.158766,21.979434 L 37.068811,17.246167 C 37.068811,17.246167 37.088388,32 37.088388,32 L 22.160133,31.978069 C 22.160133,31.978069 26.997745,27.140456 26.997745,27.140456 C 18.528582,18.264221 13.291696,25.230495 11.500037,31.436501 z"
             style="fill:#404040;"/>
          </a>
         </g>
        </svg>
</svg>
