<?xml version="1.0" encoding="UTF-8" standalone="no"?>
<!DOCTYPE svg PUBLIC "-//W3C//DTD SVG 1.1//EN"
 "http://www.w3.org/Graphics/SVG/1.1/DTD/svg11.dtd">
<!-- Generated by graphviz version 2.40.1 (0)
 -->
<!-- Title: std::tuple_size&lt;::nlohmann::detail::iteration_proxy_value&lt; IteratorType &gt; &gt; Pages: 1 -->
<svg width="142pt" height="117pt"
 viewBox="0.00 0.00 142.00 117.00" xmlns="http://www.w3.org/2000/svg" xmlns:xlink="http://www.w3.org/1999/xlink">
<g id="graph0" class="graph" transform="scale(1 1) rotate(0) translate(4 113)">
<title>std::tuple_size&lt;::nlohmann::detail::iteration_proxy_value&lt; IteratorType &gt; &gt;</title>
<polygon fill="#ffffff" stroke="transparent" points="-4,4 -4,-113 138,-113 138,4 -4,4"/>
<!-- Node0 -->
<g id="node1" class="node">
<title>Node0</title>
<polygon fill="#bfbfbf" stroke="#000000" points="0,-.5 0,-41.5 134,-41.5 134,-.5 0,-.5"/>
<text text-anchor="start" x="8" y="-29.5" font-family="Helvetica,sans-Serif" font-size="10.00" fill="#000000">std::tuple_size&lt;::nlohmann</text>
<text text-anchor="start" x="8" y="-18.5" font-family="Helvetica,sans-Serif" font-size="10.00" fill="#000000">::detail::iteration_proxy</text>
<text text-anchor="middle" x="67" y="-7.5" font-family="Helvetica,sans-Serif" font-size="10.00" fill="#000000">_value&lt; IteratorType &gt; &gt;</text>
</g>
<!-- Node1 -->
<g id="node2" class="node">
<title>Node1</title>
<polygon fill="#ffffff" stroke="#bfbfbf" points="12,-78.5 12,-108.5 122,-108.5 122,-78.5 12,-78.5"/>
<text text-anchor="start" x="20" y="-96.5" font-family="Helvetica,sans-Serif" font-size="10.00" fill="#000000">std::integral_constant</text>
<text text-anchor="middle" x="67" y="-85.5" font-family="Helvetica,sans-Serif" font-size="10.00" fill="#000000">&lt; std::size_t, 2 &gt;</text>
</g>
<!-- Node1&#45;&gt;Node0 -->
<g id="edge1" class="edge">
<title>Node1&#45;&gt;Node0</title>
<path fill="none" stroke="#191970" d="M67,-68.4016C67,-59.6173 67,-49.8652 67,-41.5015"/>
<polygon fill="#191970" stroke="#191970" points="63.5001,-68.4779 67,-78.478 70.5001,-68.478 63.5001,-68.4779"/>
</g>
</g>
</svg>
