<?xml version="1.0" encoding="UTF-8" standalone="no"?>
<!DOCTYPE svg PUBLIC "-//W3C//DTD SVG 1.1//EN"
 "http://www.w3.org/Graphics/SVG/1.1/DTD/svg11.dtd">
<!-- Generated by graphviz version 2.43.0 (0)
 -->
<!-- Title: CSourceStream Pages: 1 -->
<svg width="721pt" height="412pt"
 viewBox="0.00 0.00 720.50 412.00" xmlns="http://www.w3.org/2000/svg" xmlns:xlink="http://www.w3.org/1999/xlink">
<g id="graph0" class="graph" transform="scale(1 1) rotate(0) translate(4 408)">
<title>CSourceStream</title>
<polygon fill="white" stroke="transparent" points="-4,4 -4,-408 716.5,-408 716.5,4 -4,4"/>
<!-- Node1 -->
<g id="node1" class="node">
<title>Node1</title>
<g id="a_node1"><a xlink:title=" ">
<polygon fill="#bfbfbf" stroke="black" points="260.5,-67.5 260.5,-86.5 352.5,-86.5 352.5,-67.5 260.5,-67.5"/>
<text text-anchor="middle" x="306.5" y="-74.5" font-family="Helvetica,sans-Serif" font-size="10.00">CSourceStream</text>
</a>
</g>
</g>
<!-- Node17 -->
<g id="node17" class="node">
<title>Node17</title>
<g id="a_node17"><a xlink:href="../../db/d25/class_c_source.html" target="_top" xlink:title=" ">
<polygon fill="white" stroke="black" points="404.5,-0.5 404.5,-19.5 460.5,-19.5 460.5,-0.5 404.5,-0.5"/>
<text text-anchor="middle" x="432.5" y="-7.5" font-family="Helvetica,sans-Serif" font-size="10.00">CSource</text>
</a>
</g>
</g>
<!-- Node1&#45;&gt;Node17 -->
<g id="edge21" class="edge">
<title>Node1&#45;&gt;Node17</title>
<path fill="none" stroke="#9a32cd" stroke-dasharray="5,2" d="M300.03,-57.56C298.84,-50.76 299.12,-43.39 303.5,-38 315.94,-22.68 370.19,-15.75 404.25,-12.85"/>
<polygon fill="#9a32cd" stroke="#9a32cd" points="296.72,-58.72 302.73,-67.44 303.47,-56.87 296.72,-58.72"/>
<text text-anchor="middle" x="339" y="-41" font-family="Helvetica,sans-Serif" font-size="10.00"> m_paStreams</text>
</g>
<!-- Node2 -->
<g id="node2" class="node">
<title>Node2</title>
<g id="a_node2"><a xlink:title=" ">
<polygon fill="white" stroke="#bfbfbf" points="168,-124.5 168,-143.5 241,-143.5 241,-124.5 168,-124.5"/>
<text text-anchor="middle" x="204.5" y="-131.5" font-family="Helvetica,sans-Serif" font-size="10.00">CAMThread</text>
</a>
</g>
</g>
<!-- Node2&#45;&gt;Node1 -->
<g id="edge1" class="edge">
<title>Node2&#45;&gt;Node1</title>
<path fill="none" stroke="midnightblue" d="M229.47,-119.54C248.57,-109.24 274.32,-95.35 290.67,-86.53"/>
<polygon fill="midnightblue" stroke="midnightblue" points="227.58,-116.58 220.44,-124.41 230.9,-122.74 227.58,-116.58"/>
</g>
<!-- Node3 -->
<g id="node3" class="node">
<title>Node3</title>
<g id="a_node3"><a xlink:href="../../dc/d8e/class_c_base_output_pin.html" target="_top" xlink:title=" ">
<polygon fill="white" stroke="black" points="259,-124.5 259,-143.5 354,-143.5 354,-124.5 259,-124.5"/>
<text text-anchor="middle" x="306.5" y="-131.5" font-family="Helvetica,sans-Serif" font-size="10.00">CBaseOutputPin</text>
</a>
</g>
</g>
<!-- Node3&#45;&gt;Node1 -->
<g id="edge2" class="edge">
<title>Node3&#45;&gt;Node1</title>
<path fill="none" stroke="midnightblue" d="M306.5,-114.12C306.5,-104.82 306.5,-94.06 306.5,-86.71"/>
<polygon fill="midnightblue" stroke="midnightblue" points="303,-114.41 306.5,-124.41 310,-114.41 303,-114.41"/>
</g>
<!-- Node4 -->
<g id="node4" class="node">
<title>Node4</title>
<g id="a_node4"><a xlink:href="../../d8/d75/class_c_base_pin.html" target="_top" xlink:title=" ">
<polygon fill="white" stroke="black" points="250.5,-191.5 250.5,-210.5 312.5,-210.5 312.5,-191.5 250.5,-191.5"/>
<text text-anchor="middle" x="281.5" y="-198.5" font-family="Helvetica,sans-Serif" font-size="10.00">CBasePin</text>
</a>
</g>
</g>
<!-- Node4&#45;&gt;Node3 -->
<g id="edge3" class="edge">
<title>Node4&#45;&gt;Node3</title>
<path fill="none" stroke="midnightblue" d="M288.5,-181.79C293.3,-169.31 299.46,-153.31 303.18,-143.63"/>
<polygon fill="midnightblue" stroke="midnightblue" points="285.19,-180.64 284.87,-191.23 291.73,-183.16 285.19,-180.64"/>
</g>
<!-- Node5 -->
<g id="node5" class="node">
<title>Node5</title>
<g id="a_node5"><a xlink:href="../../d9/d89/class_c_unknown.html" target="_top" xlink:title=" ">
<polygon fill="white" stroke="black" points="324,-327.5 324,-346.5 393,-346.5 393,-327.5 324,-327.5"/>
<text text-anchor="middle" x="358.5" y="-334.5" font-family="Helvetica,sans-Serif" font-size="10.00">CUnknown</text>
</a>
</g>
</g>
<!-- Node5&#45;&gt;Node4 -->
<g id="edge4" class="edge">
<title>Node5&#45;&gt;Node4</title>
<path fill="none" stroke="midnightblue" d="M357.74,-317.07C357.04,-310.85 355.77,-303.99 353.5,-298 339.54,-261.18 306.95,-226.4 290.85,-210.72"/>
<polygon fill="midnightblue" stroke="midnightblue" points="354.27,-317.55 358.48,-327.27 361.25,-317.05 354.27,-317.55"/>
</g>
<!-- Node14 -->
<g id="node14" class="node">
<title>Node14</title>
<g id="a_node14"><a xlink:href="../../d5/d74/class_c_base_filter.html" target="_top" xlink:title=" ">
<polygon fill="white" stroke="black" points="409.5,-259.5 409.5,-278.5 481.5,-278.5 481.5,-259.5 409.5,-259.5"/>
<text text-anchor="middle" x="445.5" y="-266.5" font-family="Helvetica,sans-Serif" font-size="10.00">CBaseFilter</text>
</a>
</g>
</g>
<!-- Node5&#45;&gt;Node14 -->
<g id="edge14" class="edge">
<title>Node5&#45;&gt;Node14</title>
<path fill="none" stroke="midnightblue" d="M378.15,-321.1C395.41,-308 419.92,-289.4 434.12,-278.63"/>
<polygon fill="midnightblue" stroke="midnightblue" points="375.73,-318.54 369.87,-327.37 379.96,-324.12 375.73,-318.54"/>
</g>
<!-- Node6 -->
<g id="node6" class="node">
<title>Node6</title>
<g id="a_node6"><a xlink:title=" ">
<polygon fill="white" stroke="#bfbfbf" points="225.5,-384.5 225.5,-403.5 363.5,-403.5 363.5,-384.5 225.5,-384.5"/>
<text text-anchor="middle" x="294.5" y="-391.5" font-family="Helvetica,sans-Serif" font-size="10.00">INonDelegatingUnknown</text>
</a>
</g>
</g>
<!-- Node6&#45;&gt;Node5 -->
<g id="edge5" class="edge">
<title>Node6&#45;&gt;Node5</title>
<path fill="none" stroke="midnightblue" d="M312.29,-377.71C323.92,-367.72 338.69,-355.02 348.36,-346.71"/>
<polygon fill="midnightblue" stroke="midnightblue" points="309.8,-375.23 304.5,-384.41 314.37,-380.54 309.8,-375.23"/>
</g>
<!-- Node7 -->
<g id="node7" class="node">
<title>Node7</title>
<g id="a_node7"><a xlink:href="../../d1/d2d/class_c_base_object.html" target="_top" xlink:title=" ">
<polygon fill="white" stroke="black" points="382,-384.5 382,-403.5 461,-403.5 461,-384.5 382,-384.5"/>
<text text-anchor="middle" x="421.5" y="-391.5" font-family="Helvetica,sans-Serif" font-size="10.00">CBaseObject</text>
</a>
</g>
</g>
<!-- Node7&#45;&gt;Node5 -->
<g id="edge6" class="edge">
<title>Node7&#45;&gt;Node5</title>
<path fill="none" stroke="midnightblue" d="M403.98,-377.71C392.54,-367.72 378,-355.02 368.48,-346.71"/>
<polygon fill="midnightblue" stroke="midnightblue" points="401.82,-380.47 411.66,-384.41 406.42,-375.19 401.82,-380.47"/>
</g>
<!-- Node8 -->
<g id="node8" class="node">
<title>Node8</title>
<g id="a_node8"><a xlink:title=" ">
<polygon fill="white" stroke="#bfbfbf" points="0,-259.5 0,-278.5 35,-278.5 35,-259.5 0,-259.5"/>
<text text-anchor="middle" x="17.5" y="-266.5" font-family="Helvetica,sans-Serif" font-size="10.00">IPin</text>
</a>
</g>
</g>
<!-- Node8&#45;&gt;Node4 -->
<g id="edge7" class="edge">
<title>Node8&#45;&gt;Node4</title>
<path fill="none" stroke="midnightblue" d="M44.75,-258.22C123.9,-234.61 206.22,-216.99 250.12,-208.13"/>
<polygon fill="midnightblue" stroke="midnightblue" points="43.68,-254.88 35.11,-261.12 45.7,-261.58 43.68,-254.88"/>
</g>
<!-- Node9 -->
<g id="node9" class="node">
<title>Node9</title>
<g id="a_node9"><a xlink:title=" ">
<polygon fill="white" stroke="#bfbfbf" points="53.5,-259.5 53.5,-278.5 143.5,-278.5 143.5,-259.5 53.5,-259.5"/>
<text text-anchor="middle" x="98.5" y="-266.5" font-family="Helvetica,sans-Serif" font-size="10.00">IQualityControl</text>
</a>
</g>
</g>
<!-- Node9&#45;&gt;Node4 -->
<g id="edge8" class="edge">
<title>Node9&#45;&gt;Node4</title>
<path fill="none" stroke="midnightblue" d="M132.12,-255.87C168.59,-242.72 225.86,-222.07 257.86,-210.53"/>
<polygon fill="midnightblue" stroke="midnightblue" points="130.64,-252.69 122.42,-259.37 133.02,-259.27 130.64,-252.69"/>
</g>
<!-- Node10 -->
<g id="node10" class="node">
<title>Node10</title>
<g id="a_node10"><a xlink:href="../../dc/da7/class_c_ref_time.html" target="_top" xlink:title=" ">
<polygon fill="white" stroke="black" points="241,-327.5 241,-346.5 306,-346.5 306,-327.5 241,-327.5"/>
<text text-anchor="middle" x="273.5" y="-334.5" font-family="Helvetica,sans-Serif" font-size="10.00">CRefTime</text>
</a>
</g>
</g>
<!-- Node10&#45;&gt;Node4 -->
<g id="edge9" class="edge">
<title>Node10&#45;&gt;Node4</title>
<path fill="none" stroke="#9a32cd" stroke-dasharray="5,2" d="M274.63,-316.99C276.39,-287.52 279.71,-231.99 280.98,-210.65"/>
<polygon fill="#9a32cd" stroke="#9a32cd" points="271.13,-317.02 274.02,-327.21 278.11,-317.43 271.13,-317.02"/>
<text text-anchor="middle" x="300.5" y="-272" font-family="Helvetica,sans-Serif" font-size="10.00"> m_tStop</text>
<text text-anchor="middle" x="300.5" y="-261" font-family="Helvetica,sans-Serif" font-size="10.00">m_tStart</text>
</g>
<!-- Node10&#45;&gt;Node14 -->
<g id="edge17" class="edge">
<title>Node10&#45;&gt;Node14</title>
<path fill="none" stroke="#9a32cd" stroke-dasharray="5,2" d="M295.91,-322.36C309.58,-314.45 327.63,-304.76 344.5,-298 365.45,-289.61 389.8,-282.78 409.34,-277.97"/>
<polygon fill="#9a32cd" stroke="#9a32cd" points="294.04,-319.39 287.2,-327.49 297.6,-325.42 294.04,-319.39"/>
<text text-anchor="middle" x="367.5" y="-301" font-family="Helvetica,sans-Serif" font-size="10.00"> m_tStart</text>
</g>
<!-- Node11 -->
<g id="node11" class="node">
<title>Node11</title>
<g id="a_node11"><a xlink:href="../../d7/da7/class_c_media_type.html" target="_top" xlink:title=" ">
<polygon fill="white" stroke="black" points="161.5,-259.5 161.5,-278.5 237.5,-278.5 237.5,-259.5 161.5,-259.5"/>
<text text-anchor="middle" x="199.5" y="-266.5" font-family="Helvetica,sans-Serif" font-size="10.00">CMediaType</text>
</a>
</g>
</g>
<!-- Node11&#45;&gt;Node4 -->
<g id="edge10" class="edge">
<title>Node11&#45;&gt;Node4</title>
<path fill="none" stroke="#9a32cd" stroke-dasharray="5,2" d="M209.3,-250.71C214.09,-243.35 220.36,-235.08 227.5,-229 236.59,-221.25 248.3,-215.05 258.48,-210.55"/>
<polygon fill="#9a32cd" stroke="#9a32cd" points="206.28,-248.95 204.08,-259.31 212.26,-252.58 206.28,-248.95"/>
<text text-anchor="middle" x="243.5" y="-232" font-family="Helvetica,sans-Serif" font-size="10.00"> m_mt</text>
</g>
<!-- Node12 -->
<g id="node12" class="node">
<title>Node12</title>
<g id="a_node12"><a xlink:title=" ">
<polygon fill="white" stroke="#bfbfbf" points="132.5,-327.5 132.5,-346.5 222.5,-346.5 222.5,-327.5 132.5,-327.5"/>
<text text-anchor="middle" x="177.5" y="-334.5" font-family="Helvetica,sans-Serif" font-size="10.00">_AMMediaType</text>
</a>
</g>
</g>
<!-- Node12&#45;&gt;Node11 -->
<g id="edge11" class="edge">
<title>Node12&#45;&gt;Node11</title>
<path fill="none" stroke="midnightblue" d="M183.56,-317.81C187.79,-305.12 193.25,-288.76 196.55,-278.84"/>
<polygon fill="midnightblue" stroke="midnightblue" points="180.22,-316.78 180.38,-327.37 186.86,-318.99 180.22,-316.78"/>
</g>
<!-- Node13 -->
<g id="node13" class="node">
<title>Node13</title>
<g id="a_node13"><a xlink:href="../../d5/d24/class_c_crit_sec.html" target="_top" xlink:title=" ">
<polygon fill="white" stroke="black" points="599.5,-327.5 599.5,-346.5 657.5,-346.5 657.5,-327.5 599.5,-327.5"/>
<text text-anchor="middle" x="628.5" y="-334.5" font-family="Helvetica,sans-Serif" font-size="10.00">CCritSec</text>
</a>
</g>
</g>
<!-- Node13&#45;&gt;Node4 -->
<g id="edge12" class="edge">
<title>Node13&#45;&gt;Node4</title>
<path fill="none" stroke="#9a32cd" stroke-dasharray="5,2" d="M609.73,-321.03C579.03,-297.37 515.26,-251.7 453.5,-229 406.26,-211.64 347.71,-205.44 312.55,-203.23"/>
<polygon fill="#9a32cd" stroke="#9a32cd" points="607.79,-323.95 617.83,-327.35 612.1,-318.43 607.79,-323.95"/>
<text text-anchor="middle" x="573" y="-266.5" font-family="Helvetica,sans-Serif" font-size="10.00"> m_pLock</text>
</g>
<!-- Node13&#45;&gt;Node14 -->
<g id="edge18" class="edge">
<title>Node13&#45;&gt;Node14</title>
<path fill="none" stroke="#9a32cd" stroke-dasharray="5,2" d="M589.55,-326.95C550.49,-319.21 537.87,-322.92 504.5,-309 486.14,-301.34 467.39,-287.76 456.1,-278.82"/>
<polygon fill="#9a32cd" stroke="#9a32cd" points="588.96,-330.4 599.47,-329.04 590.41,-323.55 588.96,-330.4"/>
<text text-anchor="middle" x="528" y="-301" font-family="Helvetica,sans-Serif" font-size="10.00"> m_pLock</text>
</g>
<!-- Node13&#45;&gt;Node17 -->
<g id="edge22" class="edge">
<title>Node13&#45;&gt;Node17</title>
<path fill="none" stroke="#9a32cd" stroke-dasharray="5,2" d="M633.72,-317.41C636.96,-304.27 640.5,-286.2 640.5,-270 640.5,-270 640.5,-270 640.5,-76 640.5,-38.73 517.33,-20.33 460.55,-13.83"/>
<polygon fill="#9a32cd" stroke="#9a32cd" points="630.33,-316.56 631.16,-327.13 637.1,-318.35 630.33,-316.56"/>
<text text-anchor="middle" x="676.5" y="-165" font-family="Helvetica,sans-Serif" font-size="10.00"> m_cStateLock</text>
</g>
<!-- Node14&#45;&gt;Node4 -->
<g id="edge13" class="edge">
<title>Node14&#45;&gt;Node4</title>
<path fill="none" stroke="#9a32cd" stroke-dasharray="5,2" d="M424.13,-253.67C411.32,-245.56 394.47,-235.74 378.5,-229 357.24,-220.03 332.12,-213.13 312.76,-208.55"/>
<polygon fill="#9a32cd" stroke="#9a32cd" points="422.37,-256.7 432.67,-259.19 426.18,-250.82 422.37,-256.7"/>
<text text-anchor="middle" x="425" y="-232" font-family="Helvetica,sans-Serif" font-size="10.00"> m_pFilter</text>
</g>
<!-- Node14&#45;&gt;Node17 -->
<g id="edge20" class="edge">
<title>Node14&#45;&gt;Node17</title>
<path fill="none" stroke="midnightblue" d="M453.62,-250.04C458.78,-236.98 464.5,-218.75 464.5,-202 464.5,-202 464.5,-202 464.5,-76 464.5,-53.86 449.38,-31.44 439.92,-19.59"/>
<polygon fill="midnightblue" stroke="midnightblue" points="450.39,-248.69 449.72,-259.26 456.83,-251.42 450.39,-248.69"/>
</g>
<!-- Node15 -->
<g id="node15" class="node">
<title>Node15</title>
<g id="a_node15"><a xlink:title=" ">
<polygon fill="white" stroke="#bfbfbf" points="411.5,-327.5 411.5,-346.5 479.5,-346.5 479.5,-327.5 411.5,-327.5"/>
<text text-anchor="middle" x="445.5" y="-334.5" font-family="Helvetica,sans-Serif" font-size="10.00">IBaseFilter</text>
</a>
</g>
</g>
<!-- Node15&#45;&gt;Node14 -->
<g id="edge15" class="edge">
<title>Node15&#45;&gt;Node14</title>
<path fill="none" stroke="midnightblue" d="M445.5,-317.04C445.5,-304.47 445.5,-288.56 445.5,-278.84"/>
<polygon fill="midnightblue" stroke="midnightblue" points="442,-317.37 445.5,-327.37 449,-317.37 442,-317.37"/>
</g>
<!-- Node16 -->
<g id="node16" class="node">
<title>Node16</title>
<g id="a_node16"><a xlink:title=" ">
<polygon fill="white" stroke="#bfbfbf" points="497.5,-327.5 497.5,-346.5 581.5,-346.5 581.5,-327.5 497.5,-327.5"/>
<text text-anchor="middle" x="539.5" y="-334.5" font-family="Helvetica,sans-Serif" font-size="10.00">IAMovieSetup</text>
</a>
</g>
</g>
<!-- Node16&#45;&gt;Node14 -->
<g id="edge16" class="edge">
<title>Node16&#45;&gt;Node14</title>
<path fill="none" stroke="midnightblue" d="M508.66,-323.07C500.49,-319.06 491.9,-314.29 484.5,-309 472.04,-300.09 459.92,-287.08 452.58,-278.58"/>
<polygon fill="midnightblue" stroke="midnightblue" points="507.41,-326.35 517.95,-327.41 510.37,-320 507.41,-326.35"/>
</g>
<!-- Node17&#45;&gt;Node1 -->
<g id="edge19" class="edge">
<title>Node17&#45;&gt;Node1</title>
<path fill="none" stroke="#9a32cd" stroke-dasharray="5,2" d="M413.82,-25.93C403.75,-33.5 390.89,-42.46 378.5,-49 364.45,-56.42 347.91,-62.78 334.22,-67.45"/>
<polygon fill="#9a32cd" stroke="#9a32cd" points="416.08,-28.6 421.86,-19.72 411.8,-23.06 416.08,-28.6"/>
<text text-anchor="middle" x="421" y="-41" font-family="Helvetica,sans-Serif" font-size="10.00"> m_pFilter</text>
</g>
</g>
</svg>
