<?xml version="1.0" encoding="UTF-8" standalone="no"?>
<!DOCTYPE svg PUBLIC "-//W3C//DTD SVG 1.1//EN"
 "http://www.w3.org/Graphics/SVG/1.1/DTD/svg11.dtd">
<!-- Generated by graphviz version 2.40.1 (0)
 -->
<!-- Title: nlohmann::json_abi_v3_11_3::detail::is_constructible&lt; const std::pair&lt; T1, T2 &gt; &gt; Pages: 1 -->
<svg width="619pt" height="61pt"
 viewBox="0.00 0.00 619.00 61.00" xmlns="http://www.w3.org/2000/svg" xmlns:xlink="http://www.w3.org/1999/xlink">
<g id="graph0" class="graph" transform="scale(1 1) rotate(0) translate(4 57)">
<title>nlohmann::json_abi_v3_11_3::detail::is_constructible&lt; const std::pair&lt; T1, T2 &gt; &gt;</title>
<polygon fill="#ffffff" stroke="transparent" points="-4,4 -4,-57 615,-57 615,4 -4,4"/>
<!-- Node0 -->
<g id="node1" class="node">
<title>Node0</title>
<polygon fill="#bfbfbf" stroke="#000000" points="501,-.5 501,-52.5 611,-52.5 611,-.5 501,-.5"/>
<text text-anchor="start" x="509" y="-40.5" font-family="Helvetica,sans-Serif" font-size="10.00" fill="#000000">nlohmann::json_abi</text>
<text text-anchor="start" x="509" y="-29.5" font-family="Helvetica,sans-Serif" font-size="10.00" fill="#000000">_v3_11_3::detail::is</text>
<text text-anchor="start" x="509" y="-18.5" font-family="Helvetica,sans-Serif" font-size="10.00" fill="#000000">_constructible&lt; const</text>
<text text-anchor="middle" x="556" y="-7.5" font-family="Helvetica,sans-Serif" font-size="10.00" fill="#000000"> std::pair&lt; T1, T2 &gt; &gt;</text>
</g>
<!-- Node1 -->
<g id="node2" class="node">
<title>Node1</title>
<g id="a_node2"><a xlink:href="../../d7/d2a/structnlohmann_1_1json__abi__v3__11__3_1_1detail_1_1is__default__constructible_3_01const_01std_11747e38f96f36e9eccb1437c52fbde26.html" target="_top" xlink:title="nlohmann::json_abi\l_v3_11_3::detail::is\l_default_constructible\l\&lt; const std::pair\&lt; T1, T2 \&gt; \&gt;">
<polygon fill="#ffffff" stroke="#000000" points="322,-.5 322,-52.5 465,-52.5 465,-.5 322,-.5"/>
<text text-anchor="start" x="330" y="-40.5" font-family="Helvetica,sans-Serif" font-size="10.00" fill="#000000">nlohmann::json_abi</text>
<text text-anchor="start" x="330" y="-29.5" font-family="Helvetica,sans-Serif" font-size="10.00" fill="#000000">_v3_11_3::detail::is</text>
<text text-anchor="start" x="330" y="-18.5" font-family="Helvetica,sans-Serif" font-size="10.00" fill="#000000">_default_constructible</text>
<text text-anchor="middle" x="393.5" y="-7.5" font-family="Helvetica,sans-Serif" font-size="10.00" fill="#000000">&lt; const std::pair&lt; T1, T2 &gt; &gt;</text>
</a>
</g>
</g>
<!-- Node1&#45;&gt;Node0 -->
<g id="edge1" class="edge">
<title>Node1&#45;&gt;Node0</title>
<path fill="none" stroke="#191970" d="M475.3335,-26.5C483.9412,-26.5 492.5402,-26.5 500.744,-26.5"/>
<polygon fill="#191970" stroke="#191970" points="475.2479,-23.0001 465.2479,-26.5 475.2479,-30.0001 475.2479,-23.0001"/>
</g>
<!-- Node2 -->
<g id="node3" class="node">
<title>Node2</title>
<g id="a_node3"><a xlink:href="../../df/d78/structnlohmann_1_1json__abi__v3__11__3_1_1detail_1_1conjunction.html" target="_top" xlink:title="nlohmann::json_abi\l_v3_11_3::detail::conjunction\l\&lt; is_default_constructible\l\&lt; T1 \&gt;, is_default_constructible\&lt; T2 \&gt; \&gt;">
<polygon fill="#ffffff" stroke="#000000" points="93,-.5 93,-52.5 286,-52.5 286,-.5 93,-.5"/>
<text text-anchor="start" x="101" y="-40.5" font-family="Helvetica,sans-Serif" font-size="10.00" fill="#000000">nlohmann::json_abi</text>
<text text-anchor="start" x="101" y="-29.5" font-family="Helvetica,sans-Serif" font-size="10.00" fill="#000000">_v3_11_3::detail::conjunction</text>
<text text-anchor="start" x="101" y="-18.5" font-family="Helvetica,sans-Serif" font-size="10.00" fill="#000000">&lt; is_default_constructible</text>
<text text-anchor="middle" x="189.5" y="-7.5" font-family="Helvetica,sans-Serif" font-size="10.00" fill="#000000">&lt; T1 &gt;, is_default_constructible&lt; T2 &gt; &gt;</text>
</a>
</g>
</g>
<!-- Node2&#45;&gt;Node1 -->
<g id="edge2" class="edge">
<title>Node2&#45;&gt;Node1</title>
<path fill="none" stroke="#191970" d="M296.2985,-26.5C304.961,-26.5 313.5772,-26.5 321.8966,-26.5"/>
<polygon fill="#191970" stroke="#191970" points="296.1233,-23.0001 286.1233,-26.5 296.1233,-30.0001 296.1233,-23.0001"/>
</g>
<!-- Node3 -->
<g id="node4" class="node">
<title>Node3</title>
<polygon fill="#ffffff" stroke="#bfbfbf" points="0,-17 0,-36 57,-36 57,-17 0,-17"/>
<text text-anchor="middle" x="28.5" y="-24" font-family="Helvetica,sans-Serif" font-size="10.00" fill="#000000">true_type</text>
</g>
<!-- Node3&#45;&gt;Node2 -->
<g id="edge3" class="edge">
<title>Node3&#45;&gt;Node2</title>
<path fill="none" stroke="#191970" d="M67.483,-26.5C75.3224,-26.5 83.885,-26.5 92.7207,-26.5"/>
<polygon fill="#191970" stroke="#191970" points="67.2836,-23.0001 57.2836,-26.5 67.2835,-30.0001 67.2836,-23.0001"/>
</g>
</g>
</svg>
