<?xml version="1.0" encoding="UTF-8" standalone="no"?>
<!DOCTYPE svg PUBLIC "-//W3C//DTD SVG 1.1//EN"
 "http://www.w3.org/Graphics/SVG/1.1/DTD/svg11.dtd">
<!-- Generated by graphviz version 2.43.0 (0)
 -->
<!-- Title: PACKAGE_INFO_STRUCT Pages: 1 -->
<svg width="156pt" height="128pt"
 viewBox="0.00 0.00 156.00 128.00" xmlns="http://www.w3.org/2000/svg" xmlns:xlink="http://www.w3.org/1999/xlink">
<g id="graph0" class="graph" transform="scale(1 1) rotate(0) translate(4 124)">
<title>PACKAGE_INFO_STRUCT</title>
<polygon fill="white" stroke="transparent" points="-4,4 -4,-124 152,-124 152,4 -4,4"/>
<!-- Node1 -->
<g id="node1" class="node">
<title>Node1</title>
<g id="a_node1"><a xlink:title=" ">
<polygon fill="#bfbfbf" stroke="black" points="0,-0.5 0,-19.5 136,-19.5 136,-0.5 0,-0.5"/>
<text text-anchor="middle" x="68" y="-7.5" font-family="Helvetica,sans-Serif" font-size="10.00">PACKAGE_INFO_STRUCT</text>
</a>
</g>
</g>
<!-- Node2 -->
<g id="node2" class="node">
<title>Node2</title>
<g id="a_node2"><a xlink:title=" ">
<polygon fill="white" stroke="#bfbfbf" points="46,-100.5 46,-119.5 90,-119.5 90,-100.5 46,-100.5"/>
<text text-anchor="middle" x="68" y="-107.5" font-family="Helvetica,sans-Serif" font-size="10.00">string</text>
</a>
</g>
</g>
<!-- Node2&#45;&gt;Node1 -->
<g id="edge1" class="edge">
<title>Node2&#45;&gt;Node1</title>
<path fill="none" stroke="#9a32cd" stroke-dasharray="5,2" d="M68,-90.22C68,-68.95 68,-35.22 68,-19.54"/>
<polygon fill="#9a32cd" stroke="#9a32cd" points="64.5,-90.3 68,-100.3 71.5,-90.3 64.5,-90.3"/>
<text text-anchor="middle" x="108" y="-74" font-family="Helvetica,sans-Serif" font-size="10.00"> buildNumber</text>
<text text-anchor="middle" x="108" y="-63" font-family="Helvetica,sans-Serif" font-size="10.00">packageNumber</text>
<text text-anchor="middle" x="108" y="-52" font-family="Helvetica,sans-Serif" font-size="10.00">time</text>
<text text-anchor="middle" x="108" y="-41" font-family="Helvetica,sans-Serif" font-size="10.00">date</text>
</g>
</g>
</svg>
