<?xml version="1.0" encoding="UTF-8" standalone="no"?>
<!DOCTYPE svg PUBLIC "-//W3C//DTD SVG 1.1//EN"
 "http://www.w3.org/Graphics/SVG/1.1/DTD/svg11.dtd">
<!-- Generated by graphviz version 2.43.0 (0)
 -->
<!-- Title: /home/tcbuilder/buildAgent/work/df8e8cce5bebfd58/libajantv2/ajantv2/includes/ntv2publicinterface.h Pages: 1 -->
<!--zoomable 218 -->
<svg id="main" version="1.1" xmlns="http://www.w3.org/2000/svg" xmlns:xlink="http://www.w3.org/1999/xlink" xml:space="preserve" onload="init(evt)">
<style type="text/css"><![CDATA[
.edge:hover path { stroke: red; }
.edge:hover polygon { stroke: red; fill: red; }
]]></style>
<script type="text/javascript"><![CDATA[
var edges = document.getElementsByTagName('g');
if (edges && edges.length) {
  for (var i=0;i<edges.length;i++) {
    if (edges[i].id.substr(0,4)=='edge') {
      edges[i].setAttribute('class','edge');
    }
  }
}
]]></script>
        <defs>
                <circle id="rim" cx="0" cy="0" r="7"/>
                <circle id="rim2" cx="0" cy="0" r="3.5"/>
                <g id="zoomPlus">
                        <use xlink:href="#rim" fill="#404040">
                                <set attributeName="fill" to="#808080" begin="zoomplus.mouseover" end="zoomplus.mouseout"/>
                        </use>
                        <path d="M-4,0h8M0,-4v8" fill="none" stroke="white" stroke-width="1.5" pointer-events="none"/>
                </g>
                <g id="zoomMin">
                        <use xlink:href="#rim" fill="#404040">
                                <set attributeName="fill" to="#808080" begin="zoomminus.mouseover" end="zoomminus.mouseout"/>
                        </use>
                        <path d="M-4,0h8" fill="none" stroke="white" stroke-width="1.5" pointer-events="none"/>
                </g>
                <g id="dirArrow">
                        <path fill="none" stroke="white" stroke-width="1.5" d="M0,-3.0v7 M-2.5,-0.5L0,-3.0L2.5,-0.5"/>
                </g>
               <g id="resetDef">
                       <use xlink:href="#rim2" fill="#404040">
                               <set attributeName="fill" to="#808080" begin="reset.mouseover" end="reset.mouseout"/>
                       </use>
               </g>
        </defs>

<script type="text/javascript">
var viewWidth = 778;
var viewHeight = 218;
var sectionId = 'dynsection-0';
</script>
<script xlink:href="../../svgpan.js"/>
<svg id="graph" class="graph">
<g id="viewport">
<title>/home/tcbuilder/buildAgent/work/df8e8cce5bebfd58/libajantv2/ajantv2/includes/ntv2publicinterface.h</title>
<polygon fill="white" stroke="transparent" points="-4,4 -4,-214 773.65,-214 773.65,4 -4,4"/>
<!-- Node1 -->
<g id="node1" class="node">
<title>Node1</title>
<g id="a_node1"><a xlink:title="Declares enums and structs used by all platform drivers and the SDK.">
<polygon fill="#bfbfbf" stroke="black" points="289.15,-168.5 289.15,-209.5 495.15,-209.5 495.15,-168.5 289.15,-168.5"/>
<text text-anchor="start" x="297.15" y="-197.5" font-family="Helvetica,sans-Serif" font-size="10.00">/home/tcbuilder/buildAgent</text>
<text text-anchor="start" x="297.15" y="-186.5" font-family="Helvetica,sans-Serif" font-size="10.00">/work/df8e8cce5bebfd58/libajantv2</text>
<text text-anchor="middle" x="392.15" y="-175.5" font-family="Helvetica,sans-Serif" font-size="10.00">/ajantv2/includes/ntv2publicinterface.h</text>
</a>
</g>
</g>
<!-- Node2 -->
<g id="node2" class="node">
<title>Node2</title>
<g id="a_node2"><a xlink:href="../../db/de2/ajatypes_8h.html" target="_top" xlink:title="Declares the most fundamental data types used by NTV2. Since Windows NT was the first principal devel...">
<polygon fill="white" stroke="black" points="41.15,-56.5 41.15,-75.5 109.15,-75.5 109.15,-56.5 41.15,-56.5"/>
<text text-anchor="middle" x="75.15" y="-63.5" font-family="Helvetica,sans-Serif" font-size="10.00">ajatypes.h</text>
</a>
</g>
</g>
<!-- Node1&#45;&gt;Node2 -->
<g id="edge1" class="edge">
<title>Node1&#45;&gt;Node2</title>
<path fill="none" stroke="midnightblue" d="M288.96,-187.72C187,-184.99 41.2,-173.64 5.15,-132 -11.86,-112.35 18.2,-92.39 44.07,-79.87"/>
<polygon fill="midnightblue" stroke="midnightblue" points="45.7,-82.97 53.32,-75.61 42.77,-76.62 45.7,-82.97"/>
</g>
<!-- Node4 -->
<g id="node4" class="node">
<title>Node4</title>
<g id="a_node4"><a xlink:href="../../d6/d0c/ntv2enums_8h.html" target="_top" xlink:title="Enumerations for controlling NTV2 devices.">
<polygon fill="white" stroke="black" points="193.15,-112.5 193.15,-131.5 273.15,-131.5 273.15,-112.5 193.15,-112.5"/>
<text text-anchor="middle" x="233.15" y="-119.5" font-family="Helvetica,sans-Serif" font-size="10.00">ntv2enums.h</text>
</a>
</g>
</g>
<!-- Node1&#45;&gt;Node4 -->
<g id="edge3" class="edge">
<title>Node1&#45;&gt;Node4</title>
<path fill="none" stroke="midnightblue" d="M344.44,-168.5C318.31,-157.81 286.68,-144.89 263.84,-135.54"/>
<polygon fill="midnightblue" stroke="midnightblue" points="264.9,-132.2 254.32,-131.65 262.25,-138.68 264.9,-132.2"/>
</g>
<!-- Node6 -->
<g id="node6" class="node">
<title>Node6</title>
<g id="a_node6"><a xlink:href="../../d6/dd9/ajaexport_8h.html" target="_top" xlink:title="Defines the import/export macros for producing DLLs or LIBs.">
<polygon fill="white" stroke="black" points="143.15,-0.5 143.15,-19.5 215.15,-19.5 215.15,-0.5 143.15,-0.5"/>
<text text-anchor="middle" x="179.15" y="-7.5" font-family="Helvetica,sans-Serif" font-size="10.00">ajaexport.h</text>
</a>
</g>
</g>
<!-- Node1&#45;&gt;Node6 -->
<g id="edge16" class="edge">
<title>Node1&#45;&gt;Node6</title>
<path fill="none" stroke="midnightblue" d="M289.14,-171.98C243.97,-162.7 198.05,-149.38 184.15,-132 160.71,-102.69 167.53,-55.43 173.8,-29.5"/>
<polygon fill="midnightblue" stroke="midnightblue" points="177.19,-30.37 176.37,-19.8 170.43,-28.57 177.19,-30.37"/>
</g>
<!-- Node7 -->
<g id="node7" class="node">
<title>Node7</title>
<g id="a_node7"><a xlink:title=" ">
<polygon fill="white" stroke="#bfbfbf" points="265.15,-0.5 265.15,-19.5 309.15,-19.5 309.15,-0.5 265.15,-0.5"/>
<text text-anchor="middle" x="287.15" y="-7.5" font-family="Helvetica,sans-Serif" font-size="10.00">string</text>
</a>
</g>
</g>
<!-- Node1&#45;&gt;Node7 -->
<g id="edge12" class="edge">
<title>Node1&#45;&gt;Node7</title>
<path fill="none" stroke="midnightblue" d="M358.93,-168.41C345.46,-158.95 330.82,-146.5 321.15,-132 299.83,-100.05 291.75,-54.82 288.79,-29.69"/>
<polygon fill="midnightblue" stroke="midnightblue" points="292.26,-29.26 287.76,-19.67 285.3,-29.98 292.26,-29.26"/>
</g>
<!-- Node8 -->
<g id="node8" class="node">
<title>Node8</title>
<g id="a_node8"><a xlink:title=" ">
<polygon fill="white" stroke="#bfbfbf" points="330.15,-112.5 330.15,-131.5 390.15,-131.5 390.15,-112.5 330.15,-112.5"/>
<text text-anchor="middle" x="360.15" y="-119.5" font-family="Helvetica,sans-Serif" font-size="10.00">iostream</text>
</a>
</g>
</g>
<!-- Node1&#45;&gt;Node8 -->
<g id="edge8" class="edge">
<title>Node1&#45;&gt;Node8</title>
<path fill="none" stroke="midnightblue" d="M382.55,-168.5C378.21,-159.68 373.12,-149.34 368.88,-140.74"/>
<polygon fill="midnightblue" stroke="midnightblue" points="371.97,-139.08 364.41,-131.65 365.69,-142.17 371.97,-139.08"/>
</g>
<!-- Node9 -->
<g id="node9" class="node">
<title>Node9</title>
<g id="a_node9"><a xlink:title=" ">
<polygon fill="white" stroke="#bfbfbf" points="408.15,-112.5 408.15,-131.5 440.15,-131.5 440.15,-112.5 408.15,-112.5"/>
<text text-anchor="middle" x="424.15" y="-119.5" font-family="Helvetica,sans-Serif" font-size="10.00">set</text>
</a>
</g>
</g>
<!-- Node1&#45;&gt;Node9 -->
<g id="edge9" class="edge">
<title>Node1&#45;&gt;Node9</title>
<path fill="none" stroke="midnightblue" d="M401.75,-168.5C406.09,-159.68 411.18,-149.34 415.41,-140.74"/>
<polygon fill="midnightblue" stroke="midnightblue" points="418.61,-142.17 419.89,-131.65 412.33,-139.08 418.61,-142.17"/>
</g>
<!-- Node10 -->
<g id="node10" class="node">
<title>Node10</title>
<g id="a_node10"><a xlink:title=" ">
<polygon fill="white" stroke="#bfbfbf" points="458.15,-112.5 458.15,-131.5 496.15,-131.5 496.15,-112.5 458.15,-112.5"/>
<text text-anchor="middle" x="477.15" y="-119.5" font-family="Helvetica,sans-Serif" font-size="10.00">map</text>
</a>
</g>
</g>
<!-- Node1&#45;&gt;Node10 -->
<g id="edge10" class="edge">
<title>Node1&#45;&gt;Node10</title>
<path fill="none" stroke="midnightblue" d="M417.65,-168.5C430.56,-158.63 445.97,-146.84 457.87,-137.74"/>
<polygon fill="midnightblue" stroke="midnightblue" points="460.02,-140.51 465.83,-131.65 455.77,-134.95 460.02,-140.51"/>
</g>
<!-- Node11 -->
<g id="node11" class="node">
<title>Node11</title>
<g id="a_node11"><a xlink:title=" ">
<polygon fill="white" stroke="#bfbfbf" points="514.65,-112.5 514.65,-131.5 561.65,-131.5 561.65,-112.5 514.65,-112.5"/>
<text text-anchor="middle" x="538.15" y="-119.5" font-family="Helvetica,sans-Serif" font-size="10.00">vector</text>
</a>
</g>
</g>
<!-- Node1&#45;&gt;Node11 -->
<g id="edge11" class="edge">
<title>Node1&#45;&gt;Node11</title>
<path fill="none" stroke="midnightblue" d="M435.95,-168.5C459.74,-157.91 488.47,-145.12 509.41,-135.8"/>
<polygon fill="midnightblue" stroke="midnightblue" points="511,-138.92 518.71,-131.65 508.16,-132.52 511,-138.92"/>
</g>
<!-- Node12 -->
<g id="node12" class="node">
<title>Node12</title>
<g id="a_node12"><a xlink:title=" ">
<polygon fill="white" stroke="#bfbfbf" points="580.15,-112.5 580.15,-131.5 636.15,-131.5 636.15,-112.5 580.15,-112.5"/>
<text text-anchor="middle" x="608.15" y="-119.5" font-family="Helvetica,sans-Serif" font-size="10.00">iomanip</text>
</a>
</g>
</g>
<!-- Node1&#45;&gt;Node12 -->
<g id="edge13" class="edge">
<title>Node1&#45;&gt;Node12</title>
<path fill="none" stroke="midnightblue" d="M456.96,-168.5C493.96,-157.36 539.06,-143.79 570.33,-134.38"/>
<polygon fill="midnightblue" stroke="midnightblue" points="571.4,-137.72 579.96,-131.48 569.38,-131.01 571.4,-137.72"/>
</g>
<!-- Node13 -->
<g id="node13" class="node">
<title>Node13</title>
<g id="a_node13"><a xlink:title=" ">
<polygon fill="white" stroke="#bfbfbf" points="654.15,-112.5 654.15,-131.5 698.15,-131.5 698.15,-112.5 654.15,-112.5"/>
<text text-anchor="middle" x="676.15" y="-119.5" font-family="Helvetica,sans-Serif" font-size="10.00">bitset</text>
</a>
</g>
</g>
<!-- Node1&#45;&gt;Node13 -->
<g id="edge14" class="edge">
<title>Node1&#45;&gt;Node13</title>
<path fill="none" stroke="midnightblue" d="M487.41,-168.44C532.37,-158.84 586.94,-146.67 643.93,-132.2"/>
<polygon fill="midnightblue" stroke="midnightblue" points="645.02,-135.53 653.85,-129.66 643.29,-128.75 645.02,-135.53"/>
</g>
<!-- Node14 -->
<g id="node14" class="node">
<title>Node14</title>
<g id="a_node14"><a xlink:title=" ">
<polygon fill="white" stroke="#bfbfbf" points="716.65,-112.5 716.65,-131.5 769.65,-131.5 769.65,-112.5 716.65,-112.5"/>
<text text-anchor="middle" x="743.15" y="-119.5" font-family="Helvetica,sans-Serif" font-size="10.00">string.h</text>
</a>
</g>
</g>
<!-- Node1&#45;&gt;Node14 -->
<g id="edge15" class="edge">
<title>Node1&#45;&gt;Node14</title>
<path fill="none" stroke="midnightblue" d="M495.35,-171.5C554.49,-161.6 630.29,-148.18 706.66,-131.98"/>
<polygon fill="midnightblue" stroke="midnightblue" points="707.41,-135.4 716.46,-129.89 705.95,-128.56 707.41,-135.4"/>
</g>
<!-- Node15 -->
<g id="node15" class="node">
<title>Node15</title>
<g id="a_node15"><a xlink:href="../../da/df0/ntv2virtualregisters_8h.html" target="_top" xlink:title="Declares enums for virtual registers used in all platform drivers and the SDK.">
<polygon fill="white" stroke="black" points="14.15,-112.5 14.15,-131.5 136.15,-131.5 136.15,-112.5 14.15,-112.5"/>
<text text-anchor="middle" x="75.15" y="-119.5" font-family="Helvetica,sans-Serif" font-size="10.00">ntv2virtualregisters.h</text>
</a>
</g>
</g>
<!-- Node1&#45;&gt;Node15 -->
<g id="edge17" class="edge">
<title>Node1&#45;&gt;Node15</title>
<path fill="none" stroke="midnightblue" d="M297.04,-168.5C241.26,-157.06 172.93,-143.05 126.96,-133.62"/>
<polygon fill="midnightblue" stroke="midnightblue" points="127.43,-130.15 116.93,-131.57 126.02,-137 127.43,-130.15"/>
</g>
<!-- Node3 -->
<g id="node3" class="node">
<title>Node3</title>
<g id="a_node3"><a xlink:title=" ">
<polygon fill="white" stroke="#bfbfbf" points="48.65,-0.5 48.65,-19.5 101.65,-19.5 101.65,-0.5 48.65,-0.5"/>
<text text-anchor="middle" x="75.15" y="-7.5" font-family="Helvetica,sans-Serif" font-size="10.00">stdint.h</text>
</a>
</g>
</g>
<!-- Node2&#45;&gt;Node3 -->
<g id="edge2" class="edge">
<title>Node2&#45;&gt;Node3</title>
<path fill="none" stroke="midnightblue" d="M75.15,-56.08C75.15,-49.01 75.15,-38.86 75.15,-29.99"/>
<polygon fill="midnightblue" stroke="midnightblue" points="78.65,-29.75 75.15,-19.75 71.65,-29.75 78.65,-29.75"/>
</g>
<!-- Node4&#45;&gt;Node2 -->
<g id="edge4" class="edge">
<title>Node4&#45;&gt;Node2</title>
<path fill="none" stroke="midnightblue" d="M208.11,-112.44C181.53,-103.36 139.34,-88.94 109.63,-78.78"/>
<polygon fill="midnightblue" stroke="midnightblue" points="110.66,-75.44 100.07,-75.52 108.4,-82.06 110.66,-75.44"/>
</g>
<!-- Node5 -->
<g id="node5" class="node">
<title>Node5</title>
<g id="a_node5"><a xlink:href="../../d6/db1/ntv2version_8h.html" target="_top" xlink:title="Defines for the NTV2 SDK version number, used by ajantv2/includes/ntv2enums.h. See the ajantv2/includ...">
<polygon fill="white" stroke="black" points="191.65,-56.5 191.65,-75.5 274.65,-75.5 274.65,-56.5 191.65,-56.5"/>
<text text-anchor="middle" x="233.15" y="-63.5" font-family="Helvetica,sans-Serif" font-size="10.00">ntv2version.h</text>
</a>
</g>
</g>
<!-- Node4&#45;&gt;Node5 -->
<g id="edge5" class="edge">
<title>Node4&#45;&gt;Node5</title>
<path fill="none" stroke="midnightblue" d="M233.15,-112.08C233.15,-105.01 233.15,-94.86 233.15,-85.99"/>
<polygon fill="midnightblue" stroke="midnightblue" points="236.65,-85.75 233.15,-75.75 229.65,-85.75 236.65,-85.75"/>
</g>
<!-- Node5&#45;&gt;Node6 -->
<g id="edge6" class="edge">
<title>Node5&#45;&gt;Node6</title>
<path fill="none" stroke="midnightblue" d="M224.23,-56.08C216.37,-48.22 204.72,-36.57 195.23,-27.08"/>
<polygon fill="midnightblue" stroke="midnightblue" points="197.45,-24.35 187.9,-19.75 192.5,-29.3 197.45,-24.35"/>
</g>
<!-- Node5&#45;&gt;Node7 -->
<g id="edge7" class="edge">
<title>Node5&#45;&gt;Node7</title>
<path fill="none" stroke="midnightblue" d="M242.07,-56.08C249.93,-48.22 261.58,-36.57 271.07,-27.08"/>
<polygon fill="midnightblue" stroke="midnightblue" points="273.8,-29.3 278.4,-19.75 268.85,-24.35 273.8,-29.3"/>
</g>
<!-- Node15&#45;&gt;Node2 -->
<g id="edge18" class="edge">
<title>Node15&#45;&gt;Node2</title>
<path fill="none" stroke="midnightblue" d="M75.15,-112.08C75.15,-105.01 75.15,-94.86 75.15,-85.99"/>
<polygon fill="midnightblue" stroke="midnightblue" points="78.65,-85.75 75.15,-75.75 71.65,-85.75 78.65,-85.75"/>
</g>
</g>
</svg>
        <g id="navigator" transform="translate(0 0)" fill="#404254">
                <rect fill="#f2f5e9" fill-opacity="0.5" stroke="#606060" stroke-width=".5" x="0" y="0" width="60" height="60"/>
                <use id="zoomplus" xlink:href="#zoomPlus" x="17" y="9" onmousedown="handleZoom(evt,'in')"/>
                <use id="zoomminus" xlink:href="#zoomMin" x="42" y="9" onmousedown="handleZoom(evt,'out')"/>
                <use id="reset" xlink:href="#resetDef" x="30" y="36" onmousedown="handleReset()"/>
                <g id="arrowUp" xlink:href="#dirArrow" transform="translate(30 24)" onmousedown="handlePan(0,-1)">
                  <use xlink:href="#rim" fill="#404040">
                        <set attributeName="fill" to="#808080" begin="arrowUp.mouseover" end="arrowUp.mouseout"/>
                  </use>
                  <path fill="none" stroke="white" stroke-width="1.5" d="M0,-3.0v7 M-2.5,-0.5L0,-3.0L2.5,-0.5"/>
                </g>
                <g id="arrowRight" xlink:href="#dirArrow" transform="rotate(90) translate(36 -43)" onmousedown="handlePan(1,0)">
                  <use xlink:href="#rim" fill="#404040">
                        <set attributeName="fill" to="#808080" begin="arrowRight.mouseover" end="arrowRight.mouseout"/>
                  </use>
                  <path fill="none" stroke="white" stroke-width="1.5" d="M0,-3.0v7 M-2.5,-0.5L0,-3.0L2.5,-0.5"/>
                </g>
                <g id="arrowDown" xlink:href="#dirArrow" transform="rotate(180) translate(-30 -48)" onmousedown="handlePan(0,1)">
                  <use xlink:href="#rim" fill="#404040">
                        <set attributeName="fill" to="#808080" begin="arrowDown.mouseover" end="arrowDown.mouseout"/>
                  </use>
                  <path fill="none" stroke="white" stroke-width="1.5" d="M0,-3.0v7 M-2.5,-0.5L0,-3.0L2.5,-0.5"/>
                </g>
                <g id="arrowLeft" xlink:href="#dirArrow" transform="rotate(270) translate(-36 17)" onmousedown="handlePan(-1,0)">
                  <use xlink:href="#rim" fill="#404040">
                        <set attributeName="fill" to="#808080" begin="arrowLeft.mouseover" end="arrowLeft.mouseout"/>
                  </use>
                  <path fill="none" stroke="white" stroke-width="1.5" d="M0,-3.0v7 M-2.5,-0.5L0,-3.0L2.5,-0.5"/>
                </g>
        </g>
        <svg viewBox="0 0 15 15" width="100%" height="30px" preserveAspectRatio="xMaxYMin meet">
         <g id="arrow_out" transform="scale(0.3 0.3)">
          <a xlink:href="ntv2publicinterface_8h__incl_org.svg" target="_base">
           <rect id="button" ry="5" rx="5" y="6" x="6" height="38" width="38"
                fill="#f2f5e9" fill-opacity="0.5" stroke="#606060" stroke-width="1.0"/>
           <path id="arrow"
             d="M 11.500037,31.436501 C 11.940474,20.09759 22.043105,11.32322 32.158766,21.979434 L 37.068811,17.246167 C 37.068811,17.246167 37.088388,32 37.088388,32 L 22.160133,31.978069 C 22.160133,31.978069 26.997745,27.140456 26.997745,27.140456 C 18.528582,18.264221 13.291696,25.230495 11.500037,31.436501 z"
             style="fill:#404040;"/>
          </a>
         </g>
        </svg>
</svg>
