<?xml version="1.0" encoding="UTF-8" standalone="no"?>
<!DOCTYPE svg PUBLIC "-//W3C//DTD SVG 1.1//EN"
 "http://www.w3.org/Graphics/SVG/1.1/DTD/svg11.dtd">
<!-- Generated by graphviz version 2.40.1 (0)
 -->
<!-- Title: AJAAncillaryData_Timecode Pages: 1 -->
<svg width="150pt" height="152pt"
 viewBox="0.00 0.00 150.00 152.00" xmlns="http://www.w3.org/2000/svg" xmlns:xlink="http://www.w3.org/1999/xlink">
<g id="graph0" class="graph" transform="scale(1 1) rotate(0) translate(4 148)">
<title>AJAAncillaryData_Timecode</title>
<polygon fill="#ffffff" stroke="transparent" points="-4,4 -4,-148 146,-148 146,4 -4,4"/>
<!-- Node4 -->
<g id="node1" class="node">
<title>Node4</title>
<polygon fill="#bfbfbf" stroke="#000000" points="0,-.5 0,-19.5 142,-19.5 142,-.5 0,-.5"/>
<text text-anchor="middle" x="71" y="-7.5" font-family="Helvetica,sans-Serif" font-size="10.00" fill="#000000">AJAAncillaryData_Timecode</text>
</g>
<!-- Node5 -->
<g id="node2" class="node">
<title>Node5</title>
<g id="a_node2"><a xlink:href="../../dd/de8/class_a_j_a_ancillary_data.html" target="_top" xlink:title="I am the principal class that stores a single SMPTE&#45;291 SDI ancillary data packet OR the digitized co...">
<polygon fill="#ffffff" stroke="#000000" points="24,-57.5 24,-76.5 118,-76.5 118,-57.5 24,-57.5"/>
<text text-anchor="middle" x="71" y="-64.5" font-family="Helvetica,sans-Serif" font-size="10.00" fill="#000000">AJAAncillaryData</text>
</a>
</g>
</g>
<!-- Node5&#45;&gt;Node4 -->
<g id="edge1" class="edge">
<title>Node5&#45;&gt;Node4</title>
<path fill="none" stroke="#191970" d="M71,-47.2342C71,-37.8491 71,-27.0651 71,-19.5265"/>
<polygon fill="#191970" stroke="#191970" points="67.5001,-47.3307 71,-57.3307 74.5001,-47.3308 67.5001,-47.3307"/>
</g>
<!-- Node6 -->
<g id="node3" class="node">
<title>Node6</title>
<g id="a_node3"><a xlink:href="../../de/d12/struct_a_j_a_anc_data_loc.html" target="_top" xlink:title="Defines where the ancillary data can be found within a video stream. ">
<polygon fill="#ffffff" stroke="#000000" points="26.5,-124.5 26.5,-143.5 115.5,-143.5 115.5,-124.5 26.5,-124.5"/>
<text text-anchor="middle" x="71" y="-131.5" font-family="Helvetica,sans-Serif" font-size="10.00" fill="#000000">AJAAncDataLoc</text>
</a>
</g>
</g>
<!-- Node6&#45;&gt;Node5 -->
<g id="edge2" class="edge">
<title>Node6&#45;&gt;Node5</title>
<path fill="none" stroke="#9a32cd" stroke-dasharray="5,2" d="M71,-114.1079C71,-101.714 71,-86.3263 71,-76.5817"/>
<polygon fill="#9a32cd" stroke="#9a32cd" points="67.5001,-114.4005 71,-124.4005 74.5001,-114.4006 67.5001,-114.4005"/>
<text text-anchor="middle" x="96.5" y="-98" font-family="Helvetica,sans-Serif" font-size="10.00" fill="#000000"> m_location</text>
</g>
</g>
</svg>
