<?xml version="1.0" encoding="UTF-8" standalone="no"?>
<!DOCTYPE svg PUBLIC "-//W3C//DTD SVG 1.1//EN"
 "http://www.w3.org/Graphics/SVG/1.1/DTD/svg11.dtd">
<!-- Generated by graphviz version 2.43.0 (0)
 -->
<!-- Title: /home/tcbuilder/buildAgent/work/df8e8cce5bebfd58/libajantv2/ajaanc/includes/ancillarydata_cea608_line21.h Pages: 1 -->
<svg width="640pt" height="150pt"
 viewBox="0.00 0.00 640.00 150.00" xmlns="http://www.w3.org/2000/svg" xmlns:xlink="http://www.w3.org/1999/xlink">
<g id="graph0" class="graph" transform="scale(1 1) rotate(0) translate(4 146)">
<title>/home/tcbuilder/buildAgent/work/df8e8cce5bebfd58/libajantv2/ajaanc/includes/ancillarydata_cea608_line21.h</title>
<polygon fill="white" stroke="transparent" points="-4,4 -4,-146 636,-146 636,4 -4,4"/>
<!-- Node1 -->
<g id="node1" class="node">
<title>Node1</title>
<g id="a_node1"><a xlink:title="Declares the AJAAncillaryData_Cea608_line21 class.">
<polygon fill="#bfbfbf" stroke="black" points="207,-89.5 207,-141.5 395,-141.5 395,-89.5 207,-89.5"/>
<text text-anchor="start" x="215" y="-129.5" font-family="Helvetica,sans-Serif" font-size="10.00">/home/tcbuilder/buildAgent</text>
<text text-anchor="start" x="215" y="-118.5" font-family="Helvetica,sans-Serif" font-size="10.00">/work/df8e8cce5bebfd58/libajantv2</text>
<text text-anchor="start" x="215" y="-107.5" font-family="Helvetica,sans-Serif" font-size="10.00">/ajaanc/includes/ancillarydata</text>
<text text-anchor="middle" x="301" y="-96.5" font-family="Helvetica,sans-Serif" font-size="10.00">_cea608_line21.h</text>
</a>
</g>
</g>
<!-- Node2 -->
<g id="node2" class="node">
<title>Node2</title>
<g id="a_node2"><a xlink:href="../../dc/d45/ancillarydata__cea608__line21_8cpp.html" target="_top" xlink:title="Implements the AJAAncillaryData_Cea608_line21 class.">
<polygon fill="white" stroke="black" points="0,-0.5 0,-52.5 188,-52.5 188,-0.5 0,-0.5"/>
<text text-anchor="start" x="8" y="-40.5" font-family="Helvetica,sans-Serif" font-size="10.00">/home/tcbuilder/buildAgent</text>
<text text-anchor="start" x="8" y="-29.5" font-family="Helvetica,sans-Serif" font-size="10.00">/work/df8e8cce5bebfd58/libajantv2</text>
<text text-anchor="start" x="8" y="-18.5" font-family="Helvetica,sans-Serif" font-size="10.00">/ajaanc/src/ancillarydata_cea608</text>
<text text-anchor="middle" x="94" y="-7.5" font-family="Helvetica,sans-Serif" font-size="10.00">_line21.cpp</text>
</a>
</g>
</g>
<!-- Node1&#45;&gt;Node2 -->
<g id="edge1" class="edge">
<title>Node1&#45;&gt;Node2</title>
<path fill="none" stroke="midnightblue" d="M232.18,-85.58C206.72,-74.88 178.1,-62.85 153.53,-52.52"/>
<polygon fill="midnightblue" stroke="midnightblue" points="230.83,-88.8 241.4,-89.45 233.54,-82.35 230.83,-88.8"/>
</g>
<!-- Node3 -->
<g id="node3" class="node">
<title>Node3</title>
<g id="a_node3"><a xlink:href="../../da/d7b/ancillarydatafactory_8cpp.html" target="_top" xlink:title="Implementation of the AJAAncillaryDataFactory class.">
<polygon fill="white" stroke="black" points="206.5,-6 206.5,-47 395.5,-47 395.5,-6 206.5,-6"/>
<text text-anchor="start" x="214.5" y="-35" font-family="Helvetica,sans-Serif" font-size="10.00">/home/tcbuilder/buildAgent</text>
<text text-anchor="start" x="214.5" y="-24" font-family="Helvetica,sans-Serif" font-size="10.00">/work/df8e8cce5bebfd58/libajantv2</text>
<text text-anchor="middle" x="301" y="-13" font-family="Helvetica,sans-Serif" font-size="10.00">/ajaanc/src/ancillarydatafactory.cpp</text>
</a>
</g>
</g>
<!-- Node1&#45;&gt;Node3 -->
<g id="edge2" class="edge">
<title>Node1&#45;&gt;Node3</title>
<path fill="none" stroke="midnightblue" d="M301,-79.16C301,-68.21 301,-56.55 301,-47.08"/>
<polygon fill="midnightblue" stroke="midnightblue" points="297.5,-79.34 301,-89.34 304.5,-79.34 297.5,-79.34"/>
</g>
<!-- Node4 -->
<g id="node4" class="node">
<title>Node4</title>
<g id="a_node4"><a xlink:href="../../d9/dca/ntv2ccgrabber_8cpp.html" target="_top" xlink:title="Implementation of NTV2CCGrabber class.">
<polygon fill="white" stroke="black" points="414,-6 414,-47 632,-47 632,-6 414,-6"/>
<text text-anchor="start" x="422" y="-35" font-family="Helvetica,sans-Serif" font-size="10.00">/home/tcbuilder/buildAgent</text>
<text text-anchor="start" x="422" y="-24" font-family="Helvetica,sans-Serif" font-size="10.00">/work/df8e8cce5bebfd58/libajantv2</text>
<text text-anchor="middle" x="523" y="-13" font-family="Helvetica,sans-Serif" font-size="10.00">/demos/ntv2ccgrabber/ntv2ccgrabber.cpp</text>
</a>
</g>
</g>
<!-- Node1&#45;&gt;Node4 -->
<g id="edge3" class="edge">
<title>Node1&#45;&gt;Node4</title>
<path fill="none" stroke="midnightblue" d="M374.33,-85.76C406.66,-73.09 443.82,-58.53 472.9,-47.13"/>
<polygon fill="midnightblue" stroke="midnightblue" points="372.95,-82.55 364.91,-89.45 375.5,-89.06 372.95,-82.55"/>
</g>
</g>
</svg>
