<?xml version="1.0" encoding="UTF-8" standalone="no"?>
<!DOCTYPE svg PUBLIC "-//W3C//DTD SVG 1.1//EN"
 "http://www.w3.org/Graphics/SVG/1.1/DTD/svg11.dtd">
<!-- Generated by graphviz version 2.43.0 (0)
 -->
<!-- Title: CNTV2SerialControl Pages: 1 -->
<svg width="386pt" height="420pt"
 viewBox="0.00 0.00 386.00 420.00" xmlns="http://www.w3.org/2000/svg" xmlns:xlink="http://www.w3.org/1999/xlink">
<g id="graph0" class="graph" transform="scale(1 1) rotate(0) translate(4 416)">
<title>CNTV2SerialControl</title>
<polygon fill="white" stroke="transparent" points="-4,4 -4,-416 382,-416 382,4 -4,4"/>
<!-- Node1 -->
<g id="node1" class="node">
<title>Node1</title>
<g id="a_node1"><a xlink:title="This sample class demonstrates how to use the Corvid/Kona/Io UART RS422 port(s). It is NOT intended t...">
<polygon fill="#bfbfbf" stroke="black" points="121.5,-0.5 121.5,-19.5 234.5,-19.5 234.5,-0.5 121.5,-0.5"/>
<text text-anchor="middle" x="178" y="-7.5" font-family="Helvetica,sans-Serif" font-size="10.00">CNTV2SerialControl</text>
</a>
</g>
</g>
<!-- Node2 -->
<g id="node2" class="node">
<title>Node2</title>
<g id="a_node2"><a xlink:href="../../d0/d90/class_c_base_machine_control.html" target="_top" xlink:title="A base class for deck control.">
<polygon fill="white" stroke="black" points="0,-67.5 0,-86.5 124,-86.5 124,-67.5 0,-67.5"/>
<text text-anchor="middle" x="62" y="-74.5" font-family="Helvetica,sans-Serif" font-size="10.00">CBaseMachineControl</text>
</a>
</g>
</g>
<!-- Node2&#45;&gt;Node1 -->
<g id="edge1" class="edge">
<title>Node2&#45;&gt;Node1</title>
<path fill="none" stroke="midnightblue" d="M86.47,-62.29C109.46,-49.4 143.16,-30.52 162.6,-19.63"/>
<polygon fill="midnightblue" stroke="midnightblue" points="84.66,-59.29 77.64,-67.23 88.08,-65.4 84.66,-59.29"/>
</g>
<!-- Node3 -->
<g id="node3" class="node">
<title>Node3</title>
<g id="a_node3"><a xlink:href="../../d7/dfb/class_c_n_t_v2_card.html" target="_top" xlink:title="I interrogate and control an AJA video/audio capture/playout device.">
<polygon fill="white" stroke="black" points="142,-67.5 142,-86.5 214,-86.5 214,-67.5 142,-67.5"/>
<text text-anchor="middle" x="178" y="-74.5" font-family="Helvetica,sans-Serif" font-size="10.00">CNTV2Card</text>
</a>
</g>
</g>
<!-- Node3&#45;&gt;Node1 -->
<g id="edge2" class="edge">
<title>Node3&#45;&gt;Node1</title>
<path fill="none" stroke="#9a32cd" stroke-dasharray="5,2" d="M178,-57.04C178,-44.67 178,-29.12 178,-19.63"/>
<polygon fill="#9a32cd" stroke="#9a32cd" points="174.5,-57.23 178,-67.23 181.5,-57.23 174.5,-57.23"/>
<text text-anchor="middle" x="204.5" y="-41" font-family="Helvetica,sans-Serif" font-size="10.00"> _ntv2Card</text>
</g>
<!-- Node4 -->
<g id="node4" class="node">
<title>Node4</title>
<g id="a_node4"><a xlink:href="../../dc/dfc/class_c_n_t_v2_mac_driver_interface.html" target="_top" xlink:title="A Mac&#45;specific implementation of CNTV2DriverInterface.">
<polygon fill="white" stroke="black" points="19.5,-134.5 19.5,-153.5 162.5,-153.5 162.5,-134.5 19.5,-134.5"/>
<text text-anchor="middle" x="91" y="-141.5" font-family="Helvetica,sans-Serif" font-size="10.00">CNTV2MacDriverInterface</text>
</a>
</g>
</g>
<!-- Node4&#45;&gt;Node3 -->
<g id="edge3" class="edge">
<title>Node4&#45;&gt;Node3</title>
<path fill="none" stroke="midnightblue" d="M110.99,-128.07C128.16,-115.24 152.32,-97.19 166.45,-86.63"/>
<polygon fill="midnightblue" stroke="midnightblue" points="108.65,-125.44 102.73,-134.23 112.84,-131.05 108.65,-125.44"/>
</g>
<!-- Node5 -->
<g id="node5" class="node">
<title>Node5</title>
<g id="a_node5"><a xlink:href="../../d0/dbc/class_c_n_t_v2_driver_interface.html" target="_top" xlink:title="I&#39;m the base class that undergirds the platform&#45;specific derived classes (from which CNTV2Card is ult...">
<polygon fill="white" stroke="black" points="29.5,-191.5 29.5,-210.5 152.5,-210.5 152.5,-191.5 29.5,-191.5"/>
<text text-anchor="middle" x="91" y="-198.5" font-family="Helvetica,sans-Serif" font-size="10.00">CNTV2DriverInterface</text>
</a>
</g>
</g>
<!-- Node5&#45;&gt;Node4 -->
<g id="edge4" class="edge">
<title>Node5&#45;&gt;Node4</title>
<path fill="none" stroke="midnightblue" d="M91,-181.12C91,-171.82 91,-161.06 91,-153.71"/>
<polygon fill="midnightblue" stroke="midnightblue" points="87.5,-181.41 91,-191.41 94.5,-181.41 87.5,-181.41"/>
</g>
<!-- Node6 -->
<g id="node6" class="node">
<title>Node6</title>
<g id="a_node6"><a xlink:href="../../d2/d94/class_n_t_v2_r_p_c_client_a_p_i.html" target="_top" xlink:title="An object that can connect to, and operate remote or fake devices. I have three general API groups:">
<polygon fill="white" stroke="black" points="97.5,-258.5 97.5,-277.5 204.5,-277.5 204.5,-258.5 97.5,-258.5"/>
<text text-anchor="middle" x="151" y="-265.5" font-family="Helvetica,sans-Serif" font-size="10.00">NTV2RPCClientAPI</text>
</a>
</g>
</g>
<!-- Node6&#45;&gt;Node5 -->
<g id="edge5" class="edge">
<title>Node6&#45;&gt;Node5</title>
<path fill="none" stroke="#9a32cd" stroke-dasharray="5,2" d="M135.89,-250.63C124.16,-237.92 108.35,-220.8 98.96,-210.63"/>
<polygon fill="#9a32cd" stroke="#9a32cd" points="133.55,-253.26 142.91,-258.23 138.7,-248.51 133.55,-253.26"/>
<text text-anchor="middle" x="150" y="-232" font-family="Helvetica,sans-Serif" font-size="10.00"> _pRPCAPI</text>
</g>
<!-- Node7 -->
<g id="node7" class="node">
<title>Node7</title>
<g id="a_node7"><a xlink:href="../../d7/d93/class_n_t_v2_r_p_c_base.html" target="_top" xlink:title="Common base class for NTV2RPCClientAPI and NTV2RPCServerAPI.">
<polygon fill="white" stroke="black" points="118,-325.5 118,-344.5 204,-344.5 204,-325.5 118,-325.5"/>
<text text-anchor="middle" x="161" y="-332.5" font-family="Helvetica,sans-Serif" font-size="10.00">NTV2RPCBase</text>
</a>
</g>
</g>
<!-- Node7&#45;&gt;Node6 -->
<g id="edge6" class="edge">
<title>Node7&#45;&gt;Node6</title>
<path fill="none" stroke="midnightblue" d="M158.08,-315.04C156.18,-302.67 153.79,-287.12 152.33,-277.63"/>
<polygon fill="midnightblue" stroke="midnightblue" points="154.67,-315.88 159.65,-325.23 161.59,-314.82 154.67,-315.88"/>
</g>
<!-- Node8 -->
<g id="node8" class="node">
<title>Node8</title>
<g id="a_node8"><a xlink:href="../../d9/df4/class_a_j_a_lock.html" target="_top" xlink:title=" ">
<polygon fill="white" stroke="black" points="47,-392.5 47,-411.5 103,-411.5 103,-392.5 47,-392.5"/>
<text text-anchor="middle" x="75" y="-399.5" font-family="Helvetica,sans-Serif" font-size="10.00">AJALock</text>
</a>
</g>
</g>
<!-- Node8&#45;&gt;Node5 -->
<g id="edge9" class="edge">
<title>Node8&#45;&gt;Node5</title>
<path fill="none" stroke="#9a32cd" stroke-dasharray="5,2" d="M71,-382.41C67.02,-361.38 62.06,-326.14 66,-296 70.2,-263.85 82.16,-227.05 87.88,-210.66"/>
<polygon fill="#9a32cd" stroke="#9a32cd" points="67.57,-383.15 72.98,-392.26 74.44,-381.77 67.57,-383.15"/>
<text text-anchor="middle" x="109" y="-299" font-family="Helvetica,sans-Serif" font-size="10.00"> mRegWritesLock</text>
</g>
<!-- Node8&#45;&gt;Node7 -->
<g id="edge7" class="edge">
<title>Node8&#45;&gt;Node7</title>
<path fill="none" stroke="#9a32cd" stroke-dasharray="5,2" d="M83.65,-383.5C87.82,-376.42 93.37,-368.61 100,-363 109.54,-354.92 121.89,-348.85 132.98,-344.53"/>
<polygon fill="#9a32cd" stroke="#9a32cd" points="80.51,-381.96 78.84,-392.42 86.67,-385.28 80.51,-381.96"/>
<text text-anchor="middle" x="133.5" y="-366" font-family="Helvetica,sans-Serif" font-size="10.00"> mParamLock</text>
</g>
<!-- Node9 -->
<g id="node9" class="node">
<title>Node9</title>
<g id="a_node9"><a xlink:href="../../d6/d01/class_n_t_v2_dictionary.html" target="_top" xlink:title="A simple (not thread&#45;safe) set of key/value pairs. (New in SDK 16.3)">
<polygon fill="white" stroke="black" points="136.5,-392.5 136.5,-411.5 229.5,-411.5 229.5,-392.5 136.5,-392.5"/>
<text text-anchor="middle" x="183" y="-399.5" font-family="Helvetica,sans-Serif" font-size="10.00">NTV2Dictionary</text>
</a>
</g>
</g>
<!-- Node9&#45;&gt;Node7 -->
<g id="edge8" class="edge">
<title>Node9&#45;&gt;Node7</title>
<path fill="none" stroke="#9a32cd" stroke-dasharray="5,2" d="M176.71,-382.41C172.5,-369.99 167.17,-354.22 163.92,-344.63"/>
<polygon fill="#9a32cd" stroke="#9a32cd" points="173.51,-383.88 180.03,-392.23 180.14,-381.64 173.51,-383.88"/>
<text text-anchor="middle" x="198.5" y="-366" font-family="Helvetica,sans-Serif" font-size="10.00"> mParams</text>
</g>
<!-- Node10 -->
<g id="node10" class="node">
<title>Node10</title>
<g id="a_node10"><a xlink:href="../../d5/dc4/class_n_t_v2_buffer.html" target="_top" xlink:title="Describes a user&#45;space buffer on the host computer. I have an address and a length,...">
<polygon fill="white" stroke="black" points="181,-134.5 181,-153.5 253,-153.5 253,-134.5 181,-134.5"/>
<text text-anchor="middle" x="217" y="-141.5" font-family="Helvetica,sans-Serif" font-size="10.00">NTV2Buffer</text>
</a>
</g>
</g>
<!-- Node10&#45;&gt;Node3 -->
<g id="edge10" class="edge">
<title>Node10&#45;&gt;Node3</title>
<path fill="none" stroke="#9a32cd" stroke-dasharray="5,2" d="M206.52,-125.53C198.97,-112.95 189.1,-96.51 183.18,-86.63"/>
<polygon fill="#9a32cd" stroke="#9a32cd" points="203.59,-127.46 211.74,-134.23 209.6,-123.86 203.59,-127.46"/>
<text text-anchor="middle" x="237.5" y="-108" font-family="Helvetica,sans-Serif" font-size="10.00"> NULL_POINTER</text>
</g>
<!-- Node11 -->
<g id="node11" class="node">
<title>Node11</title>
<g id="a_node11"><a xlink:href="../../d3/d81/struct_serial_machine_response.html" target="_top" xlink:title=" ">
<polygon fill="white" stroke="black" points="232.5,-67.5 232.5,-86.5 365.5,-86.5 365.5,-67.5 232.5,-67.5"/>
<text text-anchor="middle" x="299" y="-74.5" font-family="Helvetica,sans-Serif" font-size="10.00">SerialMachineResponse</text>
</a>
</g>
</g>
<!-- Node11&#45;&gt;Node1 -->
<g id="edge11" class="edge">
<title>Node11&#45;&gt;Node1</title>
<path fill="none" stroke="#9a32cd" stroke-dasharray="5,2" d="M276.87,-62.17C264.68,-54.73 249.18,-45.55 235,-38 222.63,-31.41 208.38,-24.66 197.22,-19.56"/>
<polygon fill="#9a32cd" stroke="#9a32cd" points="275.13,-65.21 285.48,-67.47 278.8,-59.25 275.13,-65.21"/>
<text text-anchor="middle" x="316" y="-41" font-family="Helvetica,sans-Serif" font-size="10.00"> _serialMachineResponse</text>
</g>
</g>
</svg>
