<?xml version="1.0" encoding="UTF-8" standalone="no"?>
<!DOCTYPE svg PUBLIC "-//W3C//DTD SVG 1.1//EN"
 "http://www.w3.org/Graphics/SVG/1.1/DTD/svg11.dtd">
<!-- Generated by graphviz version 2.43.0 (0)
 -->
<!-- Title: /home/tcbuilder/buildAgent/work/df8e8cce5bebfd58/libajantv2/ajabase/system/windows/infoimpl.cpp Pages: 1 -->
<!--zoomable 285 -->
<svg id="main" version="1.1" xmlns="http://www.w3.org/2000/svg" xmlns:xlink="http://www.w3.org/1999/xlink" xml:space="preserve" onload="init(evt)">
<style type="text/css"><![CDATA[
.edge:hover path { stroke: red; }
.edge:hover polygon { stroke: red; fill: red; }
]]></style>
<script type="text/javascript"><![CDATA[
var edges = document.getElementsByTagName('g');
if (edges && edges.length) {
  for (var i=0;i<edges.length;i++) {
    if (edges[i].id.substr(0,4)=='edge') {
      edges[i].setAttribute('class','edge');
    }
  }
}
]]></script>
        <defs>
                <circle id="rim" cx="0" cy="0" r="7"/>
                <circle id="rim2" cx="0" cy="0" r="3.5"/>
                <g id="zoomPlus">
                        <use xlink:href="#rim" fill="#404040">
                                <set attributeName="fill" to="#808080" begin="zoomplus.mouseover" end="zoomplus.mouseout"/>
                        </use>
                        <path d="M-4,0h8M0,-4v8" fill="none" stroke="white" stroke-width="1.5" pointer-events="none"/>
                </g>
                <g id="zoomMin">
                        <use xlink:href="#rim" fill="#404040">
                                <set attributeName="fill" to="#808080" begin="zoomminus.mouseover" end="zoomminus.mouseout"/>
                        </use>
                        <path d="M-4,0h8" fill="none" stroke="white" stroke-width="1.5" pointer-events="none"/>
                </g>
                <g id="dirArrow">
                        <path fill="none" stroke="white" stroke-width="1.5" d="M0,-3.0v7 M-2.5,-0.5L0,-3.0L2.5,-0.5"/>
                </g>
               <g id="resetDef">
                       <use xlink:href="#rim2" fill="#404040">
                               <set attributeName="fill" to="#808080" begin="reset.mouseover" end="reset.mouseout"/>
                       </use>
               </g>
        </defs>

<script type="text/javascript">
var viewWidth = 1211;
var viewHeight = 285;
var sectionId = 'dynsection-0';
</script>
<script xlink:href="../../svgpan.js"/>
<svg id="graph" class="graph">
<g id="viewport">
<title>/home/tcbuilder/buildAgent/work/df8e8cce5bebfd58/libajantv2/ajabase/system/windows/infoimpl.cpp</title>
<polygon fill="white" stroke="transparent" points="-4,4 -4,-281 1207,-281 1207,4 -4,4"/>
<!-- Node1 -->
<g id="node1" class="node">
<title>Node1</title>
<g id="a_node1"><a xlink:title="Implements the AJASystemInfoImpl class on the Windows platform.">
<polygon fill="#bfbfbf" stroke="black" points="573,-235.5 573,-276.5 779,-276.5 779,-235.5 573,-235.5"/>
<text text-anchor="start" x="581" y="-264.5" font-family="Helvetica,sans-Serif" font-size="10.00">/home/tcbuilder/buildAgent</text>
<text text-anchor="start" x="581" y="-253.5" font-family="Helvetica,sans-Serif" font-size="10.00">/work/df8e8cce5bebfd58/libajantv2</text>
<text text-anchor="middle" x="676" y="-242.5" font-family="Helvetica,sans-Serif" font-size="10.00">/ajabase/system/windows/infoimpl.cpp</text>
</a>
</g>
</g>
<!-- Node2 -->
<g id="node2" class="node">
<title>Node2</title>
<g id="a_node2"><a xlink:href="../../dc/db2/system_8h.html" target="_top" xlink:title="System specific functions.">
<polygon fill="white" stroke="black" points="360,-112.5 360,-131.5 502,-131.5 502,-112.5 360,-112.5"/>
<text text-anchor="middle" x="431" y="-119.5" font-family="Helvetica,sans-Serif" font-size="10.00">ajabase/system/system.h</text>
</a>
</g>
</g>
<!-- Node1&#45;&gt;Node2 -->
<g id="edge1" class="edge">
<title>Node1&#45;&gt;Node2</title>
<path fill="none" stroke="midnightblue" d="M572.81,-249.02C498.09,-242.28 406.14,-228.17 382,-199 365.62,-179.21 390.2,-153.67 410.07,-137.81"/>
<polygon fill="midnightblue" stroke="midnightblue" points="412.32,-140.5 418.16,-131.66 408.08,-134.93 412.32,-140.5"/>
</g>
<!-- Node10 -->
<g id="node10" class="node">
<title>Node10</title>
<g id="a_node10"><a xlink:href="../../d4/d21/info_8h.html" target="_top" xlink:title="Declares the AJASystemInfo class.">
<polygon fill="white" stroke="black" points="216.5,-112.5 216.5,-131.5 341.5,-131.5 341.5,-112.5 216.5,-112.5"/>
<text text-anchor="middle" x="279" y="-119.5" font-family="Helvetica,sans-Serif" font-size="10.00">ajabase/system/info.h</text>
</a>
</g>
</g>
<!-- Node1&#45;&gt;Node10 -->
<g id="edge9" class="edge">
<title>Node1&#45;&gt;Node10</title>
<path fill="none" stroke="midnightblue" d="M572.87,-248.88C512.12,-242.19 435.06,-228.2 372,-199 340.5,-184.41 310.63,-156.65 293.6,-139.02"/>
<polygon fill="midnightblue" stroke="midnightblue" points="296.13,-136.6 286.72,-131.72 291.03,-141.4 296.13,-136.6"/>
</g>
<!-- Node11 -->
<g id="node11" class="node">
<title>Node11</title>
<g id="a_node11"><a xlink:href="../../d2/d4c/windows_2infoimpl_8h.html" target="_top" xlink:title="Declares the AJASystemInfoImpl class.">
<polygon fill="white" stroke="black" points="156,-168.5 156,-198.5 296,-198.5 296,-168.5 156,-168.5"/>
<text text-anchor="start" x="164" y="-186.5" font-family="Helvetica,sans-Serif" font-size="10.00">ajabase/system/windows</text>
<text text-anchor="middle" x="226" y="-175.5" font-family="Helvetica,sans-Serif" font-size="10.00">/infoimpl.h</text>
</a>
</g>
</g>
<!-- Node1&#45;&gt;Node11 -->
<g id="edge14" class="edge">
<title>Node1&#45;&gt;Node11</title>
<path fill="none" stroke="midnightblue" d="M572.98,-239.77C499.6,-228.8 398.67,-213.43 310,-199 308.73,-198.79 307.44,-198.58 306.15,-198.37"/>
<polygon fill="midnightblue" stroke="midnightblue" points="306.55,-194.89 296.11,-196.71 305.4,-201.79 306.55,-194.89"/>
</g>
<!-- Node14 -->
<g id="node14" class="node">
<title>Node14</title>
<g id="a_node14"><a xlink:title=" ">
<polygon fill="white" stroke="#bfbfbf" points="390.5,-174 390.5,-193 441.5,-193 441.5,-174 390.5,-174"/>
<text text-anchor="middle" x="416" y="-181" font-family="Helvetica,sans-Serif" font-size="10.00">intrin.h</text>
</a>
</g>
</g>
<!-- Node1&#45;&gt;Node14 -->
<g id="edge21" class="edge">
<title>Node1&#45;&gt;Node14</title>
<path fill="none" stroke="midnightblue" d="M584.53,-235.49C543.32,-225.87 494.3,-213.27 451,-199 449.08,-198.37 447.11,-197.68 445.14,-196.95"/>
<polygon fill="midnightblue" stroke="midnightblue" points="446.02,-193.53 435.43,-193.15 443.47,-200.05 446.02,-193.53"/>
</g>
<!-- Node15 -->
<g id="node15" class="node">
<title>Node15</title>
<g id="a_node15"><a xlink:title=" ">
<polygon fill="white" stroke="#bfbfbf" points="459.5,-174 459.5,-193 494.5,-193 494.5,-174 459.5,-174"/>
<text text-anchor="middle" x="477" y="-181" font-family="Helvetica,sans-Serif" font-size="10.00">io.h</text>
</a>
</g>
</g>
<!-- Node1&#45;&gt;Node15 -->
<g id="edge22" class="edge">
<title>Node1&#45;&gt;Node15</title>
<path fill="none" stroke="midnightblue" d="M606.33,-235.41C574.63,-225.71 536.92,-213.07 504,-199 503,-198.57 501.98,-198.12 500.96,-197.65"/>
<polygon fill="midnightblue" stroke="midnightblue" points="502.41,-194.46 491.9,-193.11 499.28,-200.72 502.41,-194.46"/>
</g>
<!-- Node16 -->
<g id="node16" class="node">
<title>Node16</title>
<g id="a_node16"><a xlink:title=" ">
<polygon fill="white" stroke="#bfbfbf" points="513,-174 513,-193 605,-193 605,-174 513,-174"/>
<text text-anchor="middle" x="559" y="-181" font-family="Helvetica,sans-Serif" font-size="10.00">Knownfolders.h</text>
</a>
</g>
</g>
<!-- Node1&#45;&gt;Node16 -->
<g id="edge23" class="edge">
<title>Node1&#45;&gt;Node16</title>
<path fill="none" stroke="midnightblue" d="M643.41,-235.36C624.01,-223.67 599.85,-209.12 582.36,-198.57"/>
<polygon fill="midnightblue" stroke="midnightblue" points="583.77,-195.34 573.39,-193.17 580.15,-201.33 583.77,-195.34"/>
</g>
<!-- Node17 -->
<g id="node17" class="node">
<title>Node17</title>
<g id="a_node17"><a xlink:title=" ">
<polygon fill="white" stroke="#bfbfbf" points="623,-174 623,-193 663,-193 663,-174 623,-174"/>
<text text-anchor="middle" x="643" y="-181" font-family="Helvetica,sans-Serif" font-size="10.00">LM.h</text>
</a>
</g>
</g>
<!-- Node1&#45;&gt;Node17 -->
<g id="edge24" class="edge">
<title>Node1&#45;&gt;Node17</title>
<path fill="none" stroke="midnightblue" d="M666.81,-235.36C662,-225.08 656.14,-212.58 651.45,-202.54"/>
<polygon fill="midnightblue" stroke="midnightblue" points="654.47,-200.75 647.06,-193.17 648.13,-203.71 654.47,-200.75"/>
</g>
<!-- Node18 -->
<g id="node18" class="node">
<title>Node18</title>
<g id="a_node18"><a xlink:title=" ">
<polygon fill="white" stroke="#bfbfbf" points="681.5,-174 681.5,-193 738.5,-193 738.5,-174 681.5,-174"/>
<text text-anchor="middle" x="710" y="-181" font-family="Helvetica,sans-Serif" font-size="10.00">ShlObj.h</text>
</a>
</g>
</g>
<!-- Node1&#45;&gt;Node18 -->
<g id="edge25" class="edge">
<title>Node1&#45;&gt;Node18</title>
<path fill="none" stroke="midnightblue" d="M685.47,-235.36C690.48,-224.97 696.59,-212.32 701.45,-202.23"/>
<polygon fill="midnightblue" stroke="midnightblue" points="704.63,-203.7 705.82,-193.17 698.32,-200.66 704.63,-203.7"/>
</g>
<!-- Node19 -->
<g id="node19" class="node">
<title>Node19</title>
<g id="a_node19"><a xlink:title=" ">
<polygon fill="white" stroke="#bfbfbf" points="757,-174 757,-193 821,-193 821,-174 757,-174"/>
<text text-anchor="middle" x="789" y="-181" font-family="Helvetica,sans-Serif" font-size="10.00">Shlwapi.h</text>
</a>
</g>
</g>
<!-- Node1&#45;&gt;Node19 -->
<g id="edge26" class="edge">
<title>Node1&#45;&gt;Node19</title>
<path fill="none" stroke="midnightblue" d="M707.48,-235.36C726.21,-223.67 749.54,-209.12 766.44,-198.57"/>
<polygon fill="midnightblue" stroke="midnightblue" points="768.47,-201.44 775.1,-193.17 764.76,-195.5 768.47,-201.44"/>
</g>
<!-- Node20 -->
<g id="node20" class="node">
<title>Node20</title>
<g id="a_node20"><a xlink:title=" ">
<polygon fill="white" stroke="#bfbfbf" points="839,-174 839,-193 887,-193 887,-174 839,-174"/>
<text text-anchor="middle" x="863" y="-181" font-family="Helvetica,sans-Serif" font-size="10.00">time.h</text>
</a>
</g>
</g>
<!-- Node1&#45;&gt;Node20 -->
<g id="edge27" class="edge">
<title>Node1&#45;&gt;Node20</title>
<path fill="none" stroke="midnightblue" d="M732.66,-235.39C761.9,-225.02 798.05,-211.81 830,-199 831.42,-198.43 832.86,-197.84 834.32,-197.24"/>
<polygon fill="midnightblue" stroke="midnightblue" points="836.07,-200.29 843.89,-193.15 833.32,-193.86 836.07,-200.29"/>
</g>
<!-- Node21 -->
<g id="node21" class="node">
<title>Node21</title>
<g id="a_node21"><a xlink:title=" ">
<polygon fill="white" stroke="#bfbfbf" points="905,-174 905,-193 961,-193 961,-174 905,-174"/>
<text text-anchor="middle" x="933" y="-181" font-family="Helvetica,sans-Serif" font-size="10.00">iomanip</text>
</a>
</g>
</g>
<!-- Node1&#45;&gt;Node21 -->
<g id="edge28" class="edge">
<title>Node1&#45;&gt;Node21</title>
<path fill="none" stroke="midnightblue" d="M763.17,-235.45C803.87,-225.65 852.76,-212.92 896,-199 898.27,-198.27 900.61,-197.47 902.94,-196.64"/>
<polygon fill="midnightblue" stroke="midnightblue" points="904.28,-199.87 912.42,-193.09 901.83,-193.32 904.28,-199.87"/>
</g>
<!-- Node22 -->
<g id="node22" class="node">
<title>Node22</title>
<g id="a_node22"><a xlink:title=" ">
<polygon fill="white" stroke="#bfbfbf" points="979,-174 979,-193 1041,-193 1041,-174 979,-174"/>
<text text-anchor="middle" x="1010" y="-181" font-family="Helvetica,sans-Serif" font-size="10.00">comdef.h</text>
</a>
</g>
</g>
<!-- Node1&#45;&gt;Node22 -->
<g id="edge29" class="edge">
<title>Node1&#45;&gt;Node22</title>
<path fill="none" stroke="midnightblue" d="M779.31,-239.47C836.09,-229.9 907.49,-216.16 970,-199 972.8,-198.23 975.69,-197.35 978.57,-196.42"/>
<polygon fill="midnightblue" stroke="midnightblue" points="979.88,-199.68 988.2,-193.12 977.6,-193.05 979.88,-199.68"/>
</g>
<!-- Node23 -->
<g id="node23" class="node">
<title>Node23</title>
<g id="a_node23"><a xlink:title=" ">
<polygon fill="white" stroke="#bfbfbf" points="1059.5,-174 1059.5,-193 1128.5,-193 1128.5,-174 1059.5,-174"/>
<text text-anchor="middle" x="1094" y="-181" font-family="Helvetica,sans-Serif" font-size="10.00">Wbemidl.h</text>
</a>
</g>
</g>
<!-- Node1&#45;&gt;Node23 -->
<g id="edge30" class="edge">
<title>Node1&#45;&gt;Node23</title>
<path fill="none" stroke="midnightblue" d="M779.28,-244.31C854.89,-235.34 959.62,-220.49 1050,-199 1053.47,-198.17 1057.06,-197.2 1060.62,-196.15"/>
<polygon fill="midnightblue" stroke="midnightblue" points="1061.96,-199.4 1070.46,-193.07 1059.87,-192.72 1061.96,-199.4"/>
</g>
<!-- Node24 -->
<g id="node24" class="node">
<title>Node24</title>
<g id="a_node24"><a xlink:title=" ">
<polygon fill="white" stroke="#bfbfbf" points="1147,-174 1147,-193 1203,-193 1203,-174 1147,-174"/>
<text text-anchor="middle" x="1175" y="-181" font-family="Helvetica,sans-Serif" font-size="10.00">sstream</text>
</a>
</g>
</g>
<!-- Node1&#45;&gt;Node24 -->
<g id="edge31" class="edge">
<title>Node1&#45;&gt;Node24</title>
<path fill="none" stroke="midnightblue" d="M779.21,-249.97C873.75,-243.6 1016.96,-229.53 1138,-199 1140.67,-198.33 1143.4,-197.51 1146.12,-196.62"/>
<polygon fill="midnightblue" stroke="midnightblue" points="1147.52,-199.83 1155.72,-193.12 1145.12,-193.25 1147.52,-199.83"/>
</g>
<!-- Node3 -->
<g id="node3" class="node">
<title>Node3</title>
<g id="a_node3"><a xlink:href="../../d4/d79/public_8h.html" target="_top" xlink:title="Master header for the ajabase library.">
<polygon fill="white" stroke="black" points="333,-56.5 333,-75.5 475,-75.5 475,-56.5 333,-56.5"/>
<text text-anchor="middle" x="404" y="-63.5" font-family="Helvetica,sans-Serif" font-size="10.00">ajabase/common/public.h</text>
</a>
</g>
</g>
<!-- Node2&#45;&gt;Node3 -->
<g id="edge2" class="edge">
<title>Node2&#45;&gt;Node3</title>
<path fill="none" stroke="midnightblue" d="M426.54,-112.08C422.85,-104.69 417.48,-93.95 412.91,-84.81"/>
<polygon fill="midnightblue" stroke="midnightblue" points="415.98,-83.13 408.38,-75.75 409.72,-86.26 415.98,-83.13"/>
</g>
<!-- Node4 -->
<g id="node4" class="node">
<title>Node4</title>
<g id="a_node4"><a xlink:href="../../db/db5/export_8h.html" target="_top" xlink:title="Declares system&#45;dependent import/export macros and libraries.">
<polygon fill="white" stroke="black" points="50,-0.5 50,-19.5 194,-19.5 194,-0.5 50,-0.5"/>
<text text-anchor="middle" x="122" y="-7.5" font-family="Helvetica,sans-Serif" font-size="10.00">ajabase/common/export.h</text>
</a>
</g>
</g>
<!-- Node3&#45;&gt;Node4 -->
<g id="edge3" class="edge">
<title>Node3&#45;&gt;Node4</title>
<path fill="none" stroke="midnightblue" d="M359.32,-56.44C309.71,-46.94 229.64,-31.61 176.41,-21.42"/>
<polygon fill="midnightblue" stroke="midnightblue" points="176.95,-17.96 166.47,-19.52 175.64,-24.83 176.95,-17.96"/>
</g>
<!-- Node5 -->
<g id="node5" class="node">
<title>Node5</title>
<g id="a_node5"><a xlink:title=" ">
<polygon fill="white" stroke="#bfbfbf" points="212,-0.5 212,-19.5 256,-19.5 256,-0.5 212,-0.5"/>
<text text-anchor="middle" x="234" y="-7.5" font-family="Helvetica,sans-Serif" font-size="10.00">string</text>
</a>
</g>
</g>
<!-- Node3&#45;&gt;Node5 -->
<g id="edge4" class="edge">
<title>Node3&#45;&gt;Node5</title>
<path fill="none" stroke="midnightblue" d="M377.06,-56.44C346.9,-46.86 298.06,-31.35 265.99,-21.16"/>
<polygon fill="midnightblue" stroke="midnightblue" points="266.8,-17.75 256.21,-18.05 264.68,-24.42 266.8,-17.75"/>
</g>
<!-- Node6 -->
<g id="node6" class="node">
<title>Node6</title>
<g id="a_node6"><a xlink:title=" ">
<polygon fill="white" stroke="#bfbfbf" points="498,-0.5 498,-19.5 530,-19.5 530,-0.5 498,-0.5"/>
<text text-anchor="middle" x="514" y="-7.5" font-family="Helvetica,sans-Serif" font-size="10.00">list</text>
</a>
</g>
</g>
<!-- Node3&#45;&gt;Node6 -->
<g id="edge5" class="edge">
<title>Node3&#45;&gt;Node6</title>
<path fill="none" stroke="midnightblue" d="M421.67,-56.32C439.81,-47.42 468.21,-33.48 488.72,-23.41"/>
<polygon fill="midnightblue" stroke="midnightblue" points="490.37,-26.5 497.8,-18.95 487.29,-20.22 490.37,-26.5"/>
</g>
<!-- Node7 -->
<g id="node7" class="node">
<title>Node7</title>
<g id="a_node7"><a xlink:title=" ">
<polygon fill="white" stroke="#bfbfbf" points="274.5,-0.5 274.5,-19.5 321.5,-19.5 321.5,-0.5 274.5,-0.5"/>
<text text-anchor="middle" x="298" y="-7.5" font-family="Helvetica,sans-Serif" font-size="10.00">vector</text>
</a>
</g>
</g>
<!-- Node3&#45;&gt;Node7 -->
<g id="edge6" class="edge">
<title>Node3&#45;&gt;Node7</title>
<path fill="none" stroke="midnightblue" d="M386.97,-56.32C369.97,-47.66 343.62,-34.24 324.01,-24.25"/>
<polygon fill="midnightblue" stroke="midnightblue" points="325.49,-21.08 314.99,-19.65 322.31,-27.31 325.49,-21.08"/>
</g>
<!-- Node8 -->
<g id="node8" class="node">
<title>Node8</title>
<g id="a_node8"><a xlink:title=" ">
<polygon fill="white" stroke="#bfbfbf" points="548,-0.5 548,-19.5 586,-19.5 586,-0.5 548,-0.5"/>
<text text-anchor="middle" x="567" y="-7.5" font-family="Helvetica,sans-Serif" font-size="10.00">map</text>
</a>
</g>
</g>
<!-- Node3&#45;&gt;Node8 -->
<g id="edge7" class="edge">
<title>Node3&#45;&gt;Node8</title>
<path fill="none" stroke="midnightblue" d="M429.83,-56.44C459.35,-46.66 507.53,-30.7 538.23,-20.53"/>
<polygon fill="midnightblue" stroke="midnightblue" points="539.52,-23.79 547.91,-17.32 537.32,-17.15 539.52,-23.79"/>
</g>
<!-- Node9 -->
<g id="node9" class="node">
<title>Node9</title>
<g id="a_node9"><a xlink:href="../../d9/d49/types_8h.html" target="_top" xlink:title="Declares common types used in the ajabase library.">
<polygon fill="white" stroke="black" points="340,-0.5 340,-19.5 480,-19.5 480,-0.5 340,-0.5"/>
<text text-anchor="middle" x="410" y="-7.5" font-family="Helvetica,sans-Serif" font-size="10.00">ajabase/common/types.h</text>
</a>
</g>
</g>
<!-- Node3&#45;&gt;Node9 -->
<g id="edge8" class="edge">
<title>Node3&#45;&gt;Node9</title>
<path fill="none" stroke="midnightblue" d="M404.99,-56.08C405.79,-48.93 406.93,-38.64 407.92,-29.69"/>
<polygon fill="midnightblue" stroke="midnightblue" points="411.4,-30.08 409.03,-19.75 404.44,-29.3 411.4,-30.08"/>
</g>
<!-- Node10&#45;&gt;Node3 -->
<g id="edge10" class="edge">
<title>Node10&#45;&gt;Node3</title>
<path fill="none" stroke="midnightblue" d="M298.81,-112.44C319.29,-103.6 351.48,-89.69 374.86,-79.59"/>
<polygon fill="midnightblue" stroke="midnightblue" points="376.49,-82.7 384.29,-75.52 373.72,-76.27 376.49,-82.7"/>
</g>
<!-- Node10&#45;&gt;Node5 -->
<g id="edge13" class="edge">
<title>Node10&#45;&gt;Node5</title>
<path fill="none" stroke="midnightblue" d="M275.47,-112.37C268.14,-94.46 251.15,-52.92 241.34,-28.95"/>
<polygon fill="midnightblue" stroke="midnightblue" points="244.54,-27.52 237.51,-19.59 238.06,-30.17 244.54,-27.52"/>
</g>
<!-- Node10&#45;&gt;Node7 -->
<g id="edge11" class="edge">
<title>Node10&#45;&gt;Node7</title>
<path fill="none" stroke="midnightblue" d="M280.49,-112.37C283.56,-94.62 290.63,-53.67 294.79,-29.6"/>
<polygon fill="midnightblue" stroke="midnightblue" points="298.26,-30.04 296.52,-19.59 291.36,-28.85 298.26,-30.04"/>
</g>
<!-- Node10&#45;&gt;Node8 -->
<g id="edge12" class="edge">
<title>Node10&#45;&gt;Node8</title>
<path fill="none" stroke="midnightblue" d="M330.34,-112.43C381.84,-103.35 457.22,-88.62 484,-76 510.23,-63.65 535.77,-41.7 551.44,-26.75"/>
<polygon fill="midnightblue" stroke="midnightblue" points="553.98,-29.16 558.68,-19.67 549.09,-24.16 553.98,-29.16"/>
</g>
<!-- Node11&#45;&gt;Node10 -->
<g id="edge20" class="edge">
<title>Node11&#45;&gt;Node10</title>
<path fill="none" stroke="midnightblue" d="M238.56,-168.4C246.34,-159.66 256.36,-148.41 264.48,-139.3"/>
<polygon fill="midnightblue" stroke="midnightblue" points="267.25,-141.45 271.29,-131.66 262.02,-136.8 267.25,-141.45"/>
</g>
<!-- Node12 -->
<g id="node12" class="node">
<title>Node12</title>
<g id="a_node12"><a xlink:href="../../dc/d54/common_8h.html" target="_top" xlink:title="Private include file for all ajabase sources.">
<polygon fill="white" stroke="black" points="76.5,-56.5 76.5,-75.5 231.5,-75.5 231.5,-56.5 76.5,-56.5"/>
<text text-anchor="middle" x="154" y="-63.5" font-family="Helvetica,sans-Serif" font-size="10.00">ajabase/common/common.h</text>
</a>
</g>
</g>
<!-- Node11&#45;&gt;Node12 -->
<g id="edge15" class="edge">
<title>Node11&#45;&gt;Node12</title>
<path fill="none" stroke="midnightblue" d="M217.17,-168.34C203.96,-147.15 179.09,-107.24 164.81,-84.34"/>
<polygon fill="midnightblue" stroke="midnightblue" points="167.66,-82.3 159.4,-75.67 161.72,-86.01 167.66,-82.3"/>
</g>
<!-- Node12&#45;&gt;Node4 -->
<g id="edge16" class="edge">
<title>Node12&#45;&gt;Node4</title>
<path fill="none" stroke="midnightblue" d="M148.72,-56.08C144.29,-48.61 137.84,-37.72 132.38,-28.52"/>
<polygon fill="midnightblue" stroke="midnightblue" points="135.29,-26.57 127.19,-19.75 129.27,-30.14 135.29,-26.57"/>
</g>
<!-- Node12&#45;&gt;Node5 -->
<g id="edge18" class="edge">
<title>Node12&#45;&gt;Node5</title>
<path fill="none" stroke="midnightblue" d="M166.85,-56.32C179.22,-47.98 198.13,-35.21 212.74,-25.35"/>
<polygon fill="midnightblue" stroke="midnightblue" points="214.85,-28.15 221.18,-19.65 210.93,-22.35 214.85,-28.15"/>
</g>
<!-- Node12&#45;&gt;Node7 -->
<g id="edge19" class="edge">
<title>Node12&#45;&gt;Node7</title>
<path fill="none" stroke="midnightblue" d="M176.82,-56.44C200.83,-47.44 238.83,-33.19 265.87,-23.05"/>
<polygon fill="midnightblue" stroke="midnightblue" points="267.16,-26.3 275.29,-19.52 264.7,-19.75 267.16,-26.3"/>
</g>
<!-- Node13 -->
<g id="node13" class="node">
<title>Node13</title>
<g id="a_node13"><a xlink:title=" ">
<polygon fill="white" stroke="#bfbfbf" points="0,-0.5 0,-19.5 32,-19.5 32,-0.5 0,-0.5"/>
<text text-anchor="middle" x="16" y="-7.5" font-family="Helvetica,sans-Serif" font-size="10.00">set</text>
</a>
</g>
</g>
<!-- Node12&#45;&gt;Node13 -->
<g id="edge17" class="edge">
<title>Node12&#45;&gt;Node13</title>
<path fill="none" stroke="midnightblue" d="M132.13,-56.44C107.58,-46.83 67.76,-31.26 41.73,-21.07"/>
<polygon fill="midnightblue" stroke="midnightblue" points="42.75,-17.71 32.16,-17.32 40.2,-24.23 42.75,-17.71"/>
</g>
</g>
</svg>
        <g id="navigator" transform="translate(0 0)" fill="#404254">
                <rect fill="#f2f5e9" fill-opacity="0.5" stroke="#606060" stroke-width=".5" x="0" y="0" width="60" height="60"/>
                <use id="zoomplus" xlink:href="#zoomPlus" x="17" y="9" onmousedown="handleZoom(evt,'in')"/>
                <use id="zoomminus" xlink:href="#zoomMin" x="42" y="9" onmousedown="handleZoom(evt,'out')"/>
                <use id="reset" xlink:href="#resetDef" x="30" y="36" onmousedown="handleReset()"/>
                <g id="arrowUp" xlink:href="#dirArrow" transform="translate(30 24)" onmousedown="handlePan(0,-1)">
                  <use xlink:href="#rim" fill="#404040">
                        <set attributeName="fill" to="#808080" begin="arrowUp.mouseover" end="arrowUp.mouseout"/>
                  </use>
                  <path fill="none" stroke="white" stroke-width="1.5" d="M0,-3.0v7 M-2.5,-0.5L0,-3.0L2.5,-0.5"/>
                </g>
                <g id="arrowRight" xlink:href="#dirArrow" transform="rotate(90) translate(36 -43)" onmousedown="handlePan(1,0)">
                  <use xlink:href="#rim" fill="#404040">
                        <set attributeName="fill" to="#808080" begin="arrowRight.mouseover" end="arrowRight.mouseout"/>
                  </use>
                  <path fill="none" stroke="white" stroke-width="1.5" d="M0,-3.0v7 M-2.5,-0.5L0,-3.0L2.5,-0.5"/>
                </g>
                <g id="arrowDown" xlink:href="#dirArrow" transform="rotate(180) translate(-30 -48)" onmousedown="handlePan(0,1)">
                  <use xlink:href="#rim" fill="#404040">
                        <set attributeName="fill" to="#808080" begin="arrowDown.mouseover" end="arrowDown.mouseout"/>
                  </use>
                  <path fill="none" stroke="white" stroke-width="1.5" d="M0,-3.0v7 M-2.5,-0.5L0,-3.0L2.5,-0.5"/>
                </g>
                <g id="arrowLeft" xlink:href="#dirArrow" transform="rotate(270) translate(-36 17)" onmousedown="handlePan(-1,0)">
                  <use xlink:href="#rim" fill="#404040">
                        <set attributeName="fill" to="#808080" begin="arrowLeft.mouseover" end="arrowLeft.mouseout"/>
                  </use>
                  <path fill="none" stroke="white" stroke-width="1.5" d="M0,-3.0v7 M-2.5,-0.5L0,-3.0L2.5,-0.5"/>
                </g>
        </g>
        <svg viewBox="0 0 15 15" width="100%" height="30px" preserveAspectRatio="xMaxYMin meet">
         <g id="arrow_out" transform="scale(0.3 0.3)">
          <a xlink:href="windows_2infoimpl_8cpp__incl_org.svg" target="_base">
           <rect id="button" ry="5" rx="5" y="6" x="6" height="38" width="38"
                fill="#f2f5e9" fill-opacity="0.5" stroke="#606060" stroke-width="1.0"/>
           <path id="arrow"
             d="M 11.500037,31.436501 C 11.940474,20.09759 22.043105,11.32322 32.158766,21.979434 L 37.068811,17.246167 C 37.068811,17.246167 37.088388,32 37.088388,32 L 22.160133,31.978069 C 22.160133,31.978069 26.997745,27.140456 26.997745,27.140456 C 18.528582,18.264221 13.291696,25.230495 11.500037,31.436501 z"
             style="fill:#404040;"/>
          </a>
         </g>
        </svg>
</svg>
