<?xml version="1.0" encoding="UTF-8" standalone="no"?>
<!DOCTYPE svg PUBLIC "-//W3C//DTD SVG 1.1//EN"
 "http://www.w3.org/Graphics/SVG/1.1/DTD/svg11.dtd">
<!-- Generated by graphviz version 2.43.0 (0)
 -->
<!-- Title: /home/tcbuilder/buildAgent/work/df8e8cce5bebfd58/libajantv2/ajaanc/includes/ancillarylist.h Pages: 1 -->
<svg width="1484pt" height="128pt"
 viewBox="0.00 0.00 1484.00 128.00" xmlns="http://www.w3.org/2000/svg" xmlns:xlink="http://www.w3.org/1999/xlink">
<g id="graph0" class="graph" transform="scale(1 1) rotate(0) translate(4 124)">
<title>/home/tcbuilder/buildAgent/work/df8e8cce5bebfd58/libajantv2/ajaanc/includes/ancillarylist.h</title>
<polygon fill="white" stroke="transparent" points="-4,4 -4,-124 1480,-124 1480,4 -4,4"/>
<!-- Node1 -->
<g id="node1" class="node">
<title>Node1</title>
<g id="a_node1"><a xlink:title="Declares the AJAAncillaryList class.">
<polygon fill="#bfbfbf" stroke="black" points="656,-78.5 656,-119.5 844,-119.5 844,-78.5 656,-78.5"/>
<text text-anchor="start" x="664" y="-107.5" font-family="Helvetica,sans-Serif" font-size="10.00">/home/tcbuilder/buildAgent</text>
<text text-anchor="start" x="664" y="-96.5" font-family="Helvetica,sans-Serif" font-size="10.00">/work/df8e8cce5bebfd58/libajantv2</text>
<text text-anchor="middle" x="750" y="-85.5" font-family="Helvetica,sans-Serif" font-size="10.00">/ajaanc/includes/ancillarylist.h</text>
</a>
</g>
</g>
<!-- Node2 -->
<g id="node2" class="node">
<title>Node2</title>
<g id="a_node2"><a xlink:href="../../d3/de4/ancillarylist_8cpp.html" target="_top" xlink:title="Implementation of the AJAAncillaryList class.">
<polygon fill="white" stroke="black" points="0,-0.5 0,-41.5 188,-41.5 188,-0.5 0,-0.5"/>
<text text-anchor="start" x="8" y="-29.5" font-family="Helvetica,sans-Serif" font-size="10.00">/home/tcbuilder/buildAgent</text>
<text text-anchor="start" x="8" y="-18.5" font-family="Helvetica,sans-Serif" font-size="10.00">/work/df8e8cce5bebfd58/libajantv2</text>
<text text-anchor="middle" x="94" y="-7.5" font-family="Helvetica,sans-Serif" font-size="10.00">/ajaanc/src/ancillarylist.cpp</text>
</a>
</g>
</g>
<!-- Node1&#45;&gt;Node2 -->
<g id="edge1" class="edge">
<title>Node1&#45;&gt;Node2</title>
<path fill="none" stroke="midnightblue" d="M645.51,-90.27C534.06,-81.35 352.53,-64.93 197,-42 194.12,-41.57 191.19,-41.12 188.24,-40.65"/>
<polygon fill="midnightblue" stroke="midnightblue" points="645.5,-93.78 655.74,-91.08 646.05,-86.8 645.5,-93.78"/>
</g>
<!-- Node3 -->
<g id="node3" class="node">
<title>Node3</title>
<g id="a_node3"><a xlink:href="../../d5/dd5/ntv2burn_8cpp.html" target="_top" xlink:title="Implementation of NTV2Burn demonstration class.">
<polygon fill="white" stroke="black" points="206,-0.5 206,-41.5 394,-41.5 394,-0.5 206,-0.5"/>
<text text-anchor="start" x="214" y="-29.5" font-family="Helvetica,sans-Serif" font-size="10.00">/home/tcbuilder/buildAgent</text>
<text text-anchor="start" x="214" y="-18.5" font-family="Helvetica,sans-Serif" font-size="10.00">/work/df8e8cce5bebfd58/libajantv2</text>
<text text-anchor="middle" x="300" y="-7.5" font-family="Helvetica,sans-Serif" font-size="10.00">/demos/ntv2burn/ntv2burn.cpp</text>
</a>
</g>
</g>
<!-- Node1&#45;&gt;Node3 -->
<g id="edge2" class="edge">
<title>Node1&#45;&gt;Node3</title>
<path fill="none" stroke="midnightblue" d="M645.97,-82.1C576.97,-71.33 484.46,-56.48 403,-42 400.04,-41.47 397.04,-40.93 394,-40.38"/>
<polygon fill="midnightblue" stroke="midnightblue" points="645.56,-85.57 655.97,-83.65 646.63,-78.66 645.56,-85.57"/>
</g>
<!-- Node4 -->
<g id="node4" class="node">
<title>Node4</title>
<g id="a_node4"><a xlink:href="../../d9/dca/ntv2ccgrabber_8cpp.html" target="_top" xlink:title="Implementation of NTV2CCGrabber class.">
<polygon fill="white" stroke="black" points="412,-0.5 412,-41.5 630,-41.5 630,-0.5 412,-0.5"/>
<text text-anchor="start" x="420" y="-29.5" font-family="Helvetica,sans-Serif" font-size="10.00">/home/tcbuilder/buildAgent</text>
<text text-anchor="start" x="420" y="-18.5" font-family="Helvetica,sans-Serif" font-size="10.00">/work/df8e8cce5bebfd58/libajantv2</text>
<text text-anchor="middle" x="521" y="-7.5" font-family="Helvetica,sans-Serif" font-size="10.00">/demos/ntv2ccgrabber/ntv2ccgrabber.cpp</text>
</a>
</g>
</g>
<!-- Node1&#45;&gt;Node4 -->
<g id="edge3" class="edge">
<title>Node1&#45;&gt;Node4</title>
<path fill="none" stroke="midnightblue" d="M681.2,-75.17C648.87,-64.44 610.73,-51.78 579.77,-41.51"/>
<polygon fill="midnightblue" stroke="midnightblue" points="680.43,-78.6 691.03,-78.43 682.64,-71.96 680.43,-78.6"/>
</g>
<!-- Node5 -->
<g id="node5" class="node">
<title>Node5</title>
<g id="a_node5"><a xlink:href="../../de/d67/ntv2ccplayer_8cpp.html" target="_top" xlink:title="Implementation of NTV2CCPlayer class.">
<polygon fill="white" stroke="black" points="648,-0.5 648,-41.5 852,-41.5 852,-0.5 648,-0.5"/>
<text text-anchor="start" x="656" y="-29.5" font-family="Helvetica,sans-Serif" font-size="10.00">/home/tcbuilder/buildAgent</text>
<text text-anchor="start" x="656" y="-18.5" font-family="Helvetica,sans-Serif" font-size="10.00">/work/df8e8cce5bebfd58/libajantv2</text>
<text text-anchor="middle" x="750" y="-7.5" font-family="Helvetica,sans-Serif" font-size="10.00">/demos/ntv2ccplayer/ntv2ccplayer.cpp</text>
</a>
</g>
</g>
<!-- Node1&#45;&gt;Node5 -->
<g id="edge4" class="edge">
<title>Node1&#45;&gt;Node5</title>
<path fill="none" stroke="midnightblue" d="M750,-68.3C750,-59.3 750,-49.65 750,-41.51"/>
<polygon fill="midnightblue" stroke="midnightblue" points="746.5,-68.43 750,-78.43 753.5,-68.43 746.5,-68.43"/>
</g>
<!-- Node6 -->
<g id="node6" class="node">
<title>Node6</title>
<g id="a_node6"><a xlink:href="../../da/d1a/ntv2llburn_8cpp.html" target="_top" xlink:title="Implementation of NTV2LLBurn demonstration class.">
<polygon fill="white" stroke="black" points="870,-0.5 870,-41.5 1058,-41.5 1058,-0.5 870,-0.5"/>
<text text-anchor="start" x="878" y="-29.5" font-family="Helvetica,sans-Serif" font-size="10.00">/home/tcbuilder/buildAgent</text>
<text text-anchor="start" x="878" y="-18.5" font-family="Helvetica,sans-Serif" font-size="10.00">/work/df8e8cce5bebfd58/libajantv2</text>
<text text-anchor="middle" x="964" y="-7.5" font-family="Helvetica,sans-Serif" font-size="10.00">/demos/ntv2llburn/ntv2llburn.cpp</text>
</a>
</g>
</g>
<!-- Node1&#45;&gt;Node6 -->
<g id="edge5" class="edge">
<title>Node1&#45;&gt;Node6</title>
<path fill="none" stroke="midnightblue" d="M814.69,-75.03C844.81,-64.33 880.27,-51.73 909.08,-41.51"/>
<polygon fill="midnightblue" stroke="midnightblue" points="813.36,-71.78 805.11,-78.43 815.71,-78.38 813.36,-71.78"/>
</g>
<!-- Node7 -->
<g id="node7" class="node">
<title>Node7</title>
<g id="a_node7"><a xlink:href="../../d6/d70/ntv2overlay_8cpp.html" target="_top" xlink:title="Implementation of NTV2Overlay demonstration class.">
<polygon fill="white" stroke="black" points="1076,-0.5 1076,-41.5 1270,-41.5 1270,-0.5 1076,-0.5"/>
<text text-anchor="start" x="1084" y="-29.5" font-family="Helvetica,sans-Serif" font-size="10.00">/home/tcbuilder/buildAgent</text>
<text text-anchor="start" x="1084" y="-18.5" font-family="Helvetica,sans-Serif" font-size="10.00">/work/df8e8cce5bebfd58/libajantv2</text>
<text text-anchor="middle" x="1173" y="-7.5" font-family="Helvetica,sans-Serif" font-size="10.00">/demos/ntv2overlay/ntv2overlay.cpp</text>
</a>
</g>
</g>
<!-- Node1&#45;&gt;Node7 -->
<g id="edge6" class="edge">
<title>Node1&#45;&gt;Node7</title>
<path fill="none" stroke="midnightblue" d="M854.19,-79.91C916.06,-69.09 996.04,-54.96 1067,-42 1069.95,-41.46 1072.94,-40.91 1075.96,-40.36"/>
<polygon fill="midnightblue" stroke="midnightblue" points="853.27,-76.52 844.03,-81.68 854.48,-83.41 853.27,-76.52"/>
</g>
<!-- Node8 -->
<g id="node8" class="node">
<title>Node8</title>
<g id="a_node8"><a xlink:href="../../df/dc3/ntv2autocirculate_8cpp.html" target="_top" xlink:title="Implements the CNTV2Card AutoCirculate API functions.">
<polygon fill="white" stroke="black" points="1288,-0.5 1288,-41.5 1476,-41.5 1476,-0.5 1288,-0.5"/>
<text text-anchor="start" x="1296" y="-29.5" font-family="Helvetica,sans-Serif" font-size="10.00">/home/tcbuilder/buildAgent</text>
<text text-anchor="start" x="1296" y="-18.5" font-family="Helvetica,sans-Serif" font-size="10.00">/work/df8e8cce5bebfd58/libajantv2</text>
<text text-anchor="middle" x="1382" y="-7.5" font-family="Helvetica,sans-Serif" font-size="10.00">/ajantv2/src/ntv2autocirculate.cpp</text>
</a>
</g>
</g>
<!-- Node1&#45;&gt;Node8 -->
<g id="edge7" class="edge">
<title>Node1&#45;&gt;Node8</title>
<path fill="none" stroke="midnightblue" d="M854.59,-89.61C961.54,-80.4 1132.34,-63.96 1279,-42 1281.88,-41.57 1284.81,-41.11 1287.76,-40.64"/>
<polygon fill="midnightblue" stroke="midnightblue" points="854.1,-86.14 844.44,-90.48 854.7,-93.11 854.1,-86.14"/>
</g>
</g>
</svg>
