<?xml version="1.0" encoding="UTF-8" standalone="no"?>
<!DOCTYPE svg PUBLIC "-//W3C//DTD SVG 1.1//EN"
 "http://www.w3.org/Graphics/SVG/1.1/DTD/svg11.dtd">
<!-- Generated by graphviz version 2.40.1 (0)
 -->
<!-- Title: /home/tcbuilder/buildAgent/work/df8e8cce5bebfd58/libajantv2/ajabase/common/dpxfileio.h Pages: 1 -->
<svg width="504pt" height="341pt"
 viewBox="0.00 0.00 503.50 341.00" xmlns="http://www.w3.org/2000/svg" xmlns:xlink="http://www.w3.org/1999/xlink">
<g id="graph0" class="graph" transform="scale(1 1) rotate(0) translate(4 337)">
<title>/home/tcbuilder/buildAgent/work/df8e8cce5bebfd58/libajantv2/ajabase/common/dpxfileio.h</title>
<polygon fill="#ffffff" stroke="transparent" points="-4,4 -4,-337 499.5,-337 499.5,4 -4,4"/>
<!-- Node0 -->
<g id="node1" class="node">
<title>Node0</title>
<polygon fill="#bfbfbf" stroke="#000000" points="283,-291.5 283,-332.5 450,-332.5 450,-291.5 283,-291.5"/>
<text text-anchor="start" x="291" y="-320.5" font-family="Helvetica,sans-Serif" font-size="10.00" fill="#000000">/home/tcbuilder/buildAgent</text>
<text text-anchor="start" x="291" y="-309.5" font-family="Helvetica,sans-Serif" font-size="10.00" fill="#000000">/work/df8e8cce5bebfd58/libajantv2</text>
<text text-anchor="middle" x="366.5" y="-298.5" font-family="Helvetica,sans-Serif" font-size="10.00" fill="#000000">/ajabase/common/dpxfileio.h</text>
</g>
<!-- Node1 -->
<g id="node2" class="node">
<title>Node1</title>
<g id="a_node2"><a xlink:href="../../da/d09/dpx__hdr_8h.html" target="_top" xlink:title="Declaration of DpxHdr class adapted from STwo&#39;s dpx file I/O. ">
<polygon fill="#ffffff" stroke="#000000" points="246.5,-224.5 246.5,-254.5 356.5,-254.5 356.5,-224.5 246.5,-224.5"/>
<text text-anchor="start" x="254.5" y="-242.5" font-family="Helvetica,sans-Serif" font-size="10.00" fill="#000000">ajabase/common/dpx</text>
<text text-anchor="middle" x="301.5" y="-231.5" font-family="Helvetica,sans-Serif" font-size="10.00" fill="#000000">_hdr.h</text>
</a>
</g>
</g>
<!-- Node0&#45;&gt;Node1 -->
<g id="edge1" class="edge">
<title>Node0&#45;&gt;Node1</title>
<path fill="none" stroke="#191970" d="M348.0475,-291.4183C339.8372,-282.2607 330.1457,-271.451 321.7375,-262.0726"/>
<polygon fill="#191970" stroke="#191970" points="324.3186,-259.7084 315.0371,-254.5991 319.1066,-264.3812 324.3186,-259.7084"/>
</g>
<!-- Node8 -->
<g id="node9" class="node">
<title>Node8</title>
<g id="a_node9"><a xlink:href="../../d9/d49/types_8h.html" target="_top" xlink:title="Declares common types used in the ajabase library. ">
<polygon fill="#ffffff" stroke="#000000" points="369.5,-56.5 369.5,-75.5 495.5,-75.5 495.5,-56.5 369.5,-56.5"/>
<text text-anchor="middle" x="432.5" y="-63.5" font-family="Helvetica,sans-Serif" font-size="10.00" fill="#000000">ajabase/common/types.h</text>
</a>
</g>
</g>
<!-- Node0&#45;&gt;Node8 -->
<g id="edge14" class="edge">
<title>Node0&#45;&gt;Node8</title>
<path fill="none" stroke="#191970" d="M372.9949,-291.3443C383.3551,-258.0156 403.9358,-190.2199 418.5,-132 422.3641,-116.5532 426.0721,-98.9013 428.7001,-85.7416"/>
<polygon fill="#191970" stroke="#191970" points="432.1419,-86.3779 430.6334,-75.891 425.273,-85.0297 432.1419,-86.3779"/>
</g>
<!-- Node2 -->
<g id="node3" class="node">
<title>Node2</title>
<g id="a_node3"><a xlink:href="../../d4/d79/public_8h.html" target="_top" xlink:title="Master header for the ajabase library. ">
<polygon fill="#ffffff" stroke="#000000" points="222.5,-112.5 222.5,-131.5 272.5,-131.5 272.5,-112.5 222.5,-112.5"/>
<text text-anchor="middle" x="247.5" y="-119.5" font-family="Helvetica,sans-Serif" font-size="10.00" fill="#000000">public.h</text>
</a>
</g>
</g>
<!-- Node1&#45;&gt;Node2 -->
<g id="edge2" class="edge">
<title>Node1&#45;&gt;Node2</title>
<path fill="none" stroke="#191970" d="M266.4676,-224.3603C251.6138,-215.9673 235.8344,-203.9543 227.5,-188 219.5726,-172.8246 226.7421,-154.0092 234.616,-140.3555"/>
<polygon fill="#191970" stroke="#191970" points="237.617,-142.1584 240.0029,-131.8357 231.7004,-138.4175 237.617,-142.1584"/>
</g>
<!-- Node4 -->
<g id="node5" class="node">
<title>Node4</title>
<polygon fill="#ffffff" stroke="#bfbfbf" points="0,-56.5 0,-75.5 41,-75.5 41,-56.5 0,-56.5"/>
<text text-anchor="middle" x="20.5" y="-63.5" font-family="Helvetica,sans-Serif" font-size="10.00" fill="#000000">string</text>
</g>
<!-- Node1&#45;&gt;Node4 -->
<g id="edge13" class="edge">
<title>Node1&#45;&gt;Node4</title>
<path fill="none" stroke="#191970" d="M277.0547,-224.4065C223.7721,-191.5079 97.7053,-113.6695 44.6724,-80.9249"/>
<polygon fill="#191970" stroke="#191970" points="46.2889,-77.8096 35.9413,-75.534 42.6113,-83.7658 46.2889,-77.8096"/>
</g>
<!-- Node1&#45;&gt;Node8 -->
<g id="edge10" class="edge">
<title>Node1&#45;&gt;Node8</title>
<path fill="none" stroke="#191970" d="M330.2617,-224.3842C345.245,-215.3922 362.9975,-202.8454 375.5,-188 401.8542,-156.7071 418.8134,-111.1868 426.907,-85.5138"/>
<polygon fill="#191970" stroke="#191970" points="430.2923,-86.4105 429.8344,-75.8256 423.5915,-84.3858 430.2923,-86.4105"/>
</g>
<!-- Node10 -->
<g id="node11" class="node">
<title>Node10</title>
<g id="a_node11"><a xlink:href="../../dc/db2/system_8h.html" target="_top" xlink:title="System specific functions. ">
<polygon fill="#ffffff" stroke="#000000" points="237,-168.5 237,-187.5 366,-187.5 366,-168.5 237,-168.5"/>
<text text-anchor="middle" x="301.5" y="-175.5" font-family="Helvetica,sans-Serif" font-size="10.00" fill="#000000">ajabase/system/system.h</text>
</a>
</g>
</g>
<!-- Node1&#45;&gt;Node10 -->
<g id="edge11" class="edge">
<title>Node1&#45;&gt;Node10</title>
<path fill="none" stroke="#191970" d="M301.5,-224.2977C301.5,-216.3834 301.5,-206.6043 301.5,-198.0759"/>
<polygon fill="#191970" stroke="#191970" points="305.0001,-197.8469 301.5,-187.8469 298.0001,-197.847 305.0001,-197.8469"/>
</g>
<!-- Node3 -->
<g id="node4" class="node">
<title>Node3</title>
<g id="a_node4"><a xlink:href="../../db/db5/export_8h.html" target="_top" xlink:title="Declares system&#45;dependent import/export macros and libraries. ">
<polygon fill="#ffffff" stroke="#000000" points="59,-56.5 59,-75.5 188,-75.5 188,-56.5 59,-56.5"/>
<text text-anchor="middle" x="123.5" y="-63.5" font-family="Helvetica,sans-Serif" font-size="10.00" fill="#000000">ajabase/common/export.h</text>
</a>
</g>
</g>
<!-- Node2&#45;&gt;Node3 -->
<g id="edge3" class="edge">
<title>Node2&#45;&gt;Node3</title>
<path fill="none" stroke="#191970" d="M226.1836,-112.3733C206.2784,-103.3838 176.3564,-89.8706 153.94,-79.7471"/>
<polygon fill="#191970" stroke="#191970" points="155.0925,-76.4272 144.5382,-75.5011 152.2113,-82.8068 155.0925,-76.4272"/>
</g>
<!-- Node2&#45;&gt;Node4 -->
<g id="edge4" class="edge">
<title>Node2&#45;&gt;Node4</title>
<path fill="none" stroke="#191970" d="M222.2805,-117.0168C186.2202,-109.7039 117.7031,-95.1152 50.8574,-76.1908"/>
<polygon fill="#191970" stroke="#191970" points="51.5885,-72.7594 41.0111,-73.3675 49.659,-79.4883 51.5885,-72.7594"/>
</g>
<!-- Node5 -->
<g id="node6" class="node">
<title>Node5</title>
<polygon fill="#ffffff" stroke="#bfbfbf" points="206,-56.5 206,-75.5 235,-75.5 235,-56.5 206,-56.5"/>
<text text-anchor="middle" x="220.5" y="-63.5" font-family="Helvetica,sans-Serif" font-size="10.00" fill="#000000">list</text>
</g>
<!-- Node2&#45;&gt;Node5 -->
<g id="edge5" class="edge">
<title>Node2&#45;&gt;Node5</title>
<path fill="none" stroke="#191970" d="M242.797,-112.2455C239.1576,-104.6973 234.0076,-94.0158 229.5738,-84.8197"/>
<polygon fill="#191970" stroke="#191970" points="232.6449,-83.1303 225.1491,-75.6427 226.3395,-86.1704 232.6449,-83.1303"/>
</g>
<!-- Node6 -->
<g id="node7" class="node">
<title>Node6</title>
<polygon fill="#ffffff" stroke="#bfbfbf" points="253.5,-56.5 253.5,-75.5 297.5,-75.5 297.5,-56.5 253.5,-56.5"/>
<text text-anchor="middle" x="275.5" y="-63.5" font-family="Helvetica,sans-Serif" font-size="10.00" fill="#000000">vector</text>
</g>
<!-- Node2&#45;&gt;Node6 -->
<g id="edge6" class="edge">
<title>Node2&#45;&gt;Node6</title>
<path fill="none" stroke="#191970" d="M252.3772,-112.2455C256.1513,-104.6973 261.4921,-94.0158 266.0901,-84.8197"/>
<polygon fill="#191970" stroke="#191970" points="269.337,-86.1522 270.6787,-75.6427 263.076,-83.0217 269.337,-86.1522"/>
</g>
<!-- Node7 -->
<g id="node8" class="node">
<title>Node7</title>
<polygon fill="#ffffff" stroke="#bfbfbf" points="316,-56.5 316,-75.5 351,-75.5 351,-56.5 316,-56.5"/>
<text text-anchor="middle" x="333.5" y="-63.5" font-family="Helvetica,sans-Serif" font-size="10.00" fill="#000000">map</text>
</g>
<!-- Node2&#45;&gt;Node7 -->
<g id="edge7" class="edge">
<title>Node2&#45;&gt;Node7</title>
<path fill="none" stroke="#191970" d="M262.4801,-112.2455C275.6751,-103.6534 295.1051,-91.0014 310.3079,-81.1018"/>
<polygon fill="#191970" stroke="#191970" points="312.2215,-84.0325 318.6916,-75.6427 308.4017,-78.1665 312.2215,-84.0325"/>
</g>
<!-- Node2&#45;&gt;Node8 -->
<g id="edge8" class="edge">
<title>Node2&#45;&gt;Node8</title>
<path fill="none" stroke="#191970" d="M272.8356,-114.3309C303.3187,-105.1035 354.9158,-89.485 391.1869,-78.5056"/>
<polygon fill="#191970" stroke="#191970" points="392.4235,-81.7882 400.9805,-75.541 390.3954,-75.0884 392.4235,-81.7882"/>
</g>
<!-- Node9 -->
<g id="node10" class="node">
<title>Node9</title>
<g id="a_node10"><a xlink:href="../../db/d40/ntv2deprecate_8h.html" target="_top" xlink:title="Deprecation control macros. ">
<polygon fill="#ffffff" stroke="#000000" points="389.5,-.5 389.5,-19.5 475.5,-19.5 475.5,-.5 389.5,-.5"/>
<text text-anchor="middle" x="432.5" y="-7.5" font-family="Helvetica,sans-Serif" font-size="10.00" fill="#000000">ntv2deprecate.h</text>
</a>
</g>
</g>
<!-- Node8&#45;&gt;Node9 -->
<g id="edge9" class="edge">
<title>Node8&#45;&gt;Node9</title>
<path fill="none" stroke="#191970" d="M432.5,-56.2455C432.5,-48.9382 432.5,-38.6944 432.5,-29.7046"/>
<polygon fill="#191970" stroke="#191970" points="436.0001,-29.6426 432.5,-19.6427 429.0001,-29.6427 436.0001,-29.6426"/>
</g>
<!-- Node10&#45;&gt;Node2 -->
<g id="edge12" class="edge">
<title>Node10&#45;&gt;Node2</title>
<path fill="none" stroke="#191970" d="M292.0939,-168.2455C284.3507,-160.2155 273.188,-148.6394 263.9682,-139.0781"/>
<polygon fill="#191970" stroke="#191970" points="266.2591,-136.4117 256.7983,-131.6427 261.2202,-141.2706 266.2591,-136.4117"/>
</g>
</g>
</svg>
