<?xml version="1.0" encoding="UTF-8" standalone="no"?>
<!DOCTYPE svg PUBLIC "-//W3C//DTD SVG 1.1//EN"
 "http://www.w3.org/Graphics/SVG/1.1/DTD/svg11.dtd">
<!-- Generated by graphviz version 2.43.0 (0)
 -->
<!-- Title: CNTV2ConfigTs2022 Pages: 1 -->
<svg width="347pt" height="467pt"
 viewBox="0.00 0.00 346.50 467.00" xmlns="http://www.w3.org/2000/svg" xmlns:xlink="http://www.w3.org/1999/xlink">
<g id="graph0" class="graph" transform="scale(1 1) rotate(0) translate(4 463)">
<title>CNTV2ConfigTs2022</title>
<polygon fill="white" stroke="transparent" points="-4,4 -4,-463 342.5,-463 342.5,4 -4,4"/>
<!-- Node1 -->
<g id="node1" class="node">
<title>Node1</title>
<g id="a_node1"><a xlink:title="The CNTV2ConfigTs2022 class is the interface to Kona&#45;IP SMPTE 2022 J2K encoder and TS chips.">
<polygon fill="#bfbfbf" stroke="black" points="147.5,-0.5 147.5,-19.5 261.5,-19.5 261.5,-0.5 147.5,-0.5"/>
<text text-anchor="middle" x="204.5" y="-7.5" font-family="Helvetica,sans-Serif" font-size="10.00">CNTV2ConfigTs2022</text>
</a>
</g>
</g>
<!-- Node2 -->
<g id="node2" class="node">
<title>Node2</title>
<g id="a_node2"><a xlink:href="../../df/d7a/class_c_n_t_v2_m_b_controller.html" target="_top" xlink:title=" ">
<polygon fill="white" stroke="black" points="148,-57.5 148,-76.5 261,-76.5 261,-57.5 148,-57.5"/>
<text text-anchor="middle" x="204.5" y="-64.5" font-family="Helvetica,sans-Serif" font-size="10.00">CNTV2MBController</text>
</a>
</g>
</g>
<!-- Node2&#45;&gt;Node1 -->
<g id="edge1" class="edge">
<title>Node2&#45;&gt;Node1</title>
<path fill="none" stroke="midnightblue" d="M204.5,-47.12C204.5,-37.82 204.5,-27.06 204.5,-19.71"/>
<polygon fill="midnightblue" stroke="midnightblue" points="201,-47.41 204.5,-57.41 208,-47.41 201,-47.41"/>
</g>
<!-- Node3 -->
<g id="node3" class="node">
<title>Node3</title>
<g id="a_node3"><a xlink:href="../../d9/dd0/class_c_n_t_v2_mail_box.html" target="_top" xlink:title=" ">
<polygon fill="white" stroke="black" points="160,-114.5 160,-133.5 249,-133.5 249,-114.5 160,-114.5"/>
<text text-anchor="middle" x="204.5" y="-121.5" font-family="Helvetica,sans-Serif" font-size="10.00">CNTV2MailBox</text>
</a>
</g>
</g>
<!-- Node3&#45;&gt;Node2 -->
<g id="edge2" class="edge">
<title>Node3&#45;&gt;Node2</title>
<path fill="none" stroke="midnightblue" d="M204.5,-104.12C204.5,-94.82 204.5,-84.06 204.5,-76.71"/>
<polygon fill="midnightblue" stroke="midnightblue" points="201,-104.41 204.5,-114.41 208,-104.41 201,-104.41"/>
</g>
<!-- Node4 -->
<g id="node4" class="node">
<title>Node4</title>
<g id="a_node4"><a xlink:href="../../d7/dfb/class_c_n_t_v2_card.html" target="_top" xlink:title="I interrogate and control an AJA video/audio capture/playout device.">
<polygon fill="white" stroke="black" points="130.5,-181.5 130.5,-200.5 202.5,-200.5 202.5,-181.5 130.5,-181.5"/>
<text text-anchor="middle" x="166.5" y="-188.5" font-family="Helvetica,sans-Serif" font-size="10.00">CNTV2Card</text>
</a>
</g>
</g>
<!-- Node4&#45;&gt;Node3 -->
<g id="edge3" class="edge">
<title>Node4&#45;&gt;Node3</title>
<path fill="none" stroke="#9a32cd" stroke-dasharray="5,2" d="M167.5,-170.87C168.47,-164.55 170.26,-157.68 173.5,-152 177.67,-144.68 184.58,-138.38 190.82,-133.7"/>
<polygon fill="#9a32cd" stroke="#9a32cd" points="163.97,-171.01 166.5,-181.3 170.94,-171.68 163.97,-171.01"/>
<text text-anchor="middle" x="197" y="-155" font-family="Helvetica,sans-Serif" font-size="10.00"> mDevice</text>
</g>
<!-- Node5 -->
<g id="node5" class="node">
<title>Node5</title>
<g id="a_node5"><a xlink:href="../../dc/dfc/class_c_n_t_v2_mac_driver_interface.html" target="_top" xlink:title="A Mac&#45;specific implementation of CNTV2DriverInterface.">
<polygon fill="white" stroke="black" points="32,-248.5 32,-267.5 175,-267.5 175,-248.5 32,-248.5"/>
<text text-anchor="middle" x="103.5" y="-255.5" font-family="Helvetica,sans-Serif" font-size="10.00">CNTV2MacDriverInterface</text>
</a>
</g>
</g>
<!-- Node5&#45;&gt;Node4 -->
<g id="edge4" class="edge">
<title>Node5&#45;&gt;Node4</title>
<path fill="none" stroke="midnightblue" d="M119.01,-241C131.37,-228.25 148.19,-210.89 158.14,-200.63"/>
<polygon fill="midnightblue" stroke="midnightblue" points="116.44,-238.62 112,-248.23 121.47,-243.49 116.44,-238.62"/>
</g>
<!-- Node6 -->
<g id="node6" class="node">
<title>Node6</title>
<g id="a_node6"><a xlink:href="../../d0/dbc/class_c_n_t_v2_driver_interface.html" target="_top" xlink:title="I&#39;m the base class that undergirds the platform&#45;specific derived classes (from which CNTV2Card is ult...">
<polygon fill="white" stroke="black" points="42,-305.5 42,-324.5 165,-324.5 165,-305.5 42,-305.5"/>
<text text-anchor="middle" x="103.5" y="-312.5" font-family="Helvetica,sans-Serif" font-size="10.00">CNTV2DriverInterface</text>
</a>
</g>
</g>
<!-- Node6&#45;&gt;Node5 -->
<g id="edge5" class="edge">
<title>Node6&#45;&gt;Node5</title>
<path fill="none" stroke="midnightblue" d="M103.5,-295.12C103.5,-285.82 103.5,-275.06 103.5,-267.71"/>
<polygon fill="midnightblue" stroke="midnightblue" points="100,-295.41 103.5,-305.41 107,-295.41 100,-295.41"/>
</g>
<!-- Node7 -->
<g id="node7" class="node">
<title>Node7</title>
<g id="a_node7"><a xlink:href="../../d2/d94/class_n_t_v2_r_p_c_client_a_p_i.html" target="_top" xlink:title="Base class of objects that can connect to, and operate remote or fake devices. I have three general A...">
<polygon fill="white" stroke="black" points="0,-372.5 0,-391.5 107,-391.5 107,-372.5 0,-372.5"/>
<text text-anchor="middle" x="53.5" y="-379.5" font-family="Helvetica,sans-Serif" font-size="10.00">NTV2RPCClientAPI</text>
</a>
</g>
</g>
<!-- Node7&#45;&gt;Node6 -->
<g id="edge6" class="edge">
<title>Node7&#45;&gt;Node6</title>
<path fill="none" stroke="#9a32cd" stroke-dasharray="5,2" d="M65.61,-364.2C70.48,-357.54 76.18,-349.86 81.5,-343 86.24,-336.88 91.74,-330.13 96.06,-324.91"/>
<polygon fill="#9a32cd" stroke="#9a32cd" points="62.65,-362.31 59.61,-372.46 68.32,-366.42 62.65,-362.31"/>
<text text-anchor="middle" x="106.5" y="-346" font-family="Helvetica,sans-Serif" font-size="10.00"> _pRPCAPI</text>
</g>
<!-- Node8 -->
<g id="node8" class="node">
<title>Node8</title>
<g id="a_node8"><a xlink:href="../../d6/d01/class_n_t_v2_dictionary.html" target="_top" xlink:title="A simple set of zero or more key/value pairs. (New in SDK 16.3)">
<polygon fill="white" stroke="black" points="7,-439.5 7,-458.5 100,-458.5 100,-439.5 7,-439.5"/>
<text text-anchor="middle" x="53.5" y="-446.5" font-family="Helvetica,sans-Serif" font-size="10.00">NTV2Dictionary</text>
</a>
</g>
</g>
<!-- Node8&#45;&gt;Node7 -->
<g id="edge7" class="edge">
<title>Node8&#45;&gt;Node7</title>
<path fill="none" stroke="#9a32cd" stroke-dasharray="5,2" d="M53.5,-429.04C53.5,-416.67 53.5,-401.12 53.5,-391.63"/>
<polygon fill="#9a32cd" stroke="#9a32cd" points="50,-429.23 53.5,-439.23 57,-429.23 50,-429.23"/>
<text text-anchor="middle" x="98" y="-413" font-family="Helvetica,sans-Serif" font-size="10.00"> mConnectParams</text>
</g>
<!-- Node9 -->
<g id="node9" class="node">
<title>Node9</title>
<g id="a_node9"><a xlink:href="../../d9/df4/class_a_j_a_lock.html" target="_top" xlink:title=" ">
<polygon fill="white" stroke="black" points="125.5,-372.5 125.5,-391.5 181.5,-391.5 181.5,-372.5 125.5,-372.5"/>
<text text-anchor="middle" x="153.5" y="-379.5" font-family="Helvetica,sans-Serif" font-size="10.00">AJALock</text>
</a>
</g>
</g>
<!-- Node9&#45;&gt;Node6 -->
<g id="edge8" class="edge">
<title>Node9&#45;&gt;Node6</title>
<path fill="none" stroke="#9a32cd" stroke-dasharray="5,2" d="M144.7,-363.48C141.01,-356.8 136.43,-349.29 131.5,-343 126.26,-336.3 119.39,-329.65 113.77,-324.63"/>
<polygon fill="#9a32cd" stroke="#9a32cd" points="141.65,-365.2 149.41,-372.42 147.84,-361.94 141.65,-365.2"/>
<text text-anchor="middle" x="182.5" y="-346" font-family="Helvetica,sans-Serif" font-size="10.00"> mRegWritesLock</text>
</g>
<!-- Node10 -->
<g id="node10" class="node">
<title>Node10</title>
<g id="a_node10"><a xlink:href="../../d5/dc4/class_n_t_v2_buffer.html" target="_top" xlink:title="A generic user&#45;space buffer object that has an address and a length. Used most often to share an arbi...">
<polygon fill="white" stroke="black" points="193.5,-248.5 193.5,-267.5 265.5,-267.5 265.5,-248.5 193.5,-248.5"/>
<text text-anchor="middle" x="229.5" y="-255.5" font-family="Helvetica,sans-Serif" font-size="10.00">NTV2Buffer</text>
</a>
</g>
</g>
<!-- Node10&#45;&gt;Node4 -->
<g id="edge9" class="edge">
<title>Node10&#45;&gt;Node4</title>
<path fill="none" stroke="#9a32cd" stroke-dasharray="5,2" d="M213.99,-241C201.63,-228.25 184.81,-210.89 174.86,-200.63"/>
<polygon fill="#9a32cd" stroke="#9a32cd" points="211.53,-243.49 221,-248.23 216.56,-238.62 211.53,-243.49"/>
<text text-anchor="middle" x="240" y="-222" font-family="Helvetica,sans-Serif" font-size="10.00"> NULL_POINTER</text>
</g>
<!-- Node11 -->
<g id="node11" class="node">
<title>Node11</title>
<g id="a_node11"><a xlink:title=" ">
<polygon fill="white" stroke="#bfbfbf" points="220.5,-181.5 220.5,-200.5 264.5,-200.5 264.5,-181.5 220.5,-181.5"/>
<text text-anchor="middle" x="242.5" y="-188.5" font-family="Helvetica,sans-Serif" font-size="10.00">string</text>
</a>
</g>
</g>
<!-- Node11&#45;&gt;Node3 -->
<g id="edge10" class="edge">
<title>Node11&#45;&gt;Node3</title>
<path fill="none" stroke="#9a32cd" stroke-dasharray="5,2" d="M232.21,-172.14C228.53,-165.78 224.34,-158.56 220.5,-152 216.97,-145.98 212.97,-139.23 209.86,-133.99"/>
<polygon fill="#9a32cd" stroke="#9a32cd" points="229.43,-174.32 237.46,-181.23 235.49,-170.82 229.43,-174.32"/>
<text text-anchor="middle" x="282.5" y="-155" font-family="Helvetica,sans-Serif" font-size="10.00"> mIpInternalErrorString</text>
</g>
</g>
</svg>
