<?xml version="1.0" encoding="UTF-8" standalone="no"?>
<!DOCTYPE svg PUBLIC "-//W3C//DTD SVG 1.1//EN"
 "http://www.w3.org/Graphics/SVG/1.1/DTD/svg11.dtd">
<!-- Generated by graphviz version 2.43.0 (0)
 -->
<!-- Title: /home/tcbuilder/buildAgent/work/df8e8cce5bebfd58/libajantv2/demos/ntv2vcam/baseclasses/winctrl.cpp Pages: 1 -->
<svg width="3444pt" height="218pt"
 viewBox="0.00 0.00 3444.00 218.00" xmlns="http://www.w3.org/2000/svg" xmlns:xlink="http://www.w3.org/1999/xlink">
<g id="graph0" class="graph" transform="scale(1 1) rotate(0) translate(4 214)">
<title>/home/tcbuilder/buildAgent/work/df8e8cce5bebfd58/libajantv2/demos/ntv2vcam/baseclasses/winctrl.cpp</title>
<polygon fill="white" stroke="transparent" points="-4,4 -4,-214 3440,-214 3440,4 -4,4"/>
<!-- Node1 -->
<g id="node1" class="node">
<title>Node1</title>
<g id="a_node1"><a xlink:title=" ">
<polygon fill="#bfbfbf" stroke="black" points="1573,-168.5 1573,-209.5 1796,-209.5 1796,-168.5 1573,-168.5"/>
<text text-anchor="start" x="1581" y="-197.5" font-family="Helvetica,sans-Serif" font-size="10.00">/home/tcbuilder/buildAgent</text>
<text text-anchor="start" x="1581" y="-186.5" font-family="Helvetica,sans-Serif" font-size="10.00">/work/df8e8cce5bebfd58/libajantv2</text>
<text text-anchor="middle" x="1684.5" y="-175.5" font-family="Helvetica,sans-Serif" font-size="10.00">/demos/ntv2vcam/baseclasses/winctrl.cpp</text>
</a>
</g>
</g>
<!-- Node2 -->
<g id="node2" class="node">
<title>Node2</title>
<g id="a_node2"><a xlink:href="../../db/d8e/streams_8h.html" target="_top" xlink:title=" ">
<polygon fill="white" stroke="black" points="1652,-112.5 1652,-131.5 1717,-131.5 1717,-112.5 1652,-112.5"/>
<text text-anchor="middle" x="1684.5" y="-119.5" font-family="Helvetica,sans-Serif" font-size="10.00">streams.h</text>
</a>
</g>
</g>
<!-- Node1&#45;&gt;Node2 -->
<g id="edge1" class="edge">
<title>Node1&#45;&gt;Node2</title>
<path fill="none" stroke="midnightblue" d="M1684.5,-168.5C1684.5,-160.07 1684.5,-150.24 1684.5,-141.87"/>
<polygon fill="midnightblue" stroke="midnightblue" points="1688,-141.65 1684.5,-131.65 1681,-141.65 1688,-141.65"/>
</g>
<!-- Node9 -->
<g id="node9" class="node">
<title>Node9</title>
<g id="a_node9"><a xlink:title=" ">
<polygon fill="white" stroke="#bfbfbf" points="0,-56.5 0,-75.5 59,-75.5 59,-56.5 0,-56.5"/>
<text text-anchor="middle" x="29.5" y="-63.5" font-family="Helvetica,sans-Serif" font-size="10.00">intsafe.h</text>
</a>
</g>
</g>
<!-- Node1&#45;&gt;Node9 -->
<g id="edge46" class="edge">
<title>Node1&#45;&gt;Node9</title>
<path fill="none" stroke="midnightblue" d="M1572.66,-186.3C1310.71,-181.02 637.28,-159.86 69.25,-75.86"/>
<polygon fill="midnightblue" stroke="midnightblue" points="69.62,-72.38 59.22,-74.37 68.59,-79.3 69.62,-72.38"/>
</g>
<!-- Node47 -->
<g id="node47" class="node">
<title>Node47</title>
<g id="a_node47"><a xlink:href="../../df/de5/checkbmi_8h.html" target="_top" xlink:title=" ">
<polygon fill="white" stroke="black" points="1735,-112.5 1735,-131.5 1808,-131.5 1808,-112.5 1735,-112.5"/>
<text text-anchor="middle" x="1771.5" y="-119.5" font-family="Helvetica,sans-Serif" font-size="10.00">checkbmi.h</text>
</a>
</g>
</g>
<!-- Node1&#45;&gt;Node47 -->
<g id="edge47" class="edge">
<title>Node1&#45;&gt;Node47</title>
<path fill="none" stroke="midnightblue" d="M1710.6,-168.5C1723.81,-158.63 1739.59,-146.84 1751.77,-137.74"/>
<polygon fill="midnightblue" stroke="midnightblue" points="1754,-140.44 1759.92,-131.65 1749.81,-134.83 1754,-140.44"/>
</g>
<!-- Node3 -->
<g id="node3" class="node">
<title>Node3</title>
<g id="a_node3"><a xlink:title=" ">
<polygon fill="white" stroke="#bfbfbf" points="77.5,-56.5 77.5,-75.5 145.5,-75.5 145.5,-56.5 77.5,-56.5"/>
<text text-anchor="middle" x="111.5" y="-63.5" font-family="Helvetica,sans-Serif" font-size="10.00">windows.h</text>
</a>
</g>
</g>
<!-- Node2&#45;&gt;Node3 -->
<g id="edge2" class="edge">
<title>Node2&#45;&gt;Node3</title>
<path fill="none" stroke="midnightblue" d="M1651.98,-120.83C1460.79,-119.69 480.52,-112.24 156.01,-75.92"/>
<polygon fill="midnightblue" stroke="midnightblue" points="156.01,-72.39 145.68,-74.72 155.21,-79.35 156.01,-72.39"/>
</g>
<!-- Node4 -->
<g id="node4" class="node">
<title>Node4</title>
<g id="a_node4"><a xlink:title=" ">
<polygon fill="white" stroke="#bfbfbf" points="163.5,-56.5 163.5,-75.5 237.5,-75.5 237.5,-56.5 163.5,-56.5"/>
<text text-anchor="middle" x="200.5" y="-63.5" font-family="Helvetica,sans-Serif" font-size="10.00">windowsx.h</text>
</a>
</g>
</g>
<!-- Node2&#45;&gt;Node4 -->
<g id="edge3" class="edge">
<title>Node2&#45;&gt;Node4</title>
<path fill="none" stroke="midnightblue" d="M1651.87,-120.68C1467.48,-118.76 553.65,-107.83 247.8,-75.77"/>
<polygon fill="midnightblue" stroke="midnightblue" points="247.94,-72.26 237.62,-74.67 247.18,-79.22 247.94,-72.26"/>
</g>
<!-- Node5 -->
<g id="node5" class="node">
<title>Node5</title>
<g id="a_node5"><a xlink:title=" ">
<polygon fill="white" stroke="#bfbfbf" points="256,-56.5 256,-75.5 309,-75.5 309,-56.5 256,-56.5"/>
<text text-anchor="middle" x="282.5" y="-63.5" font-family="Helvetica,sans-Serif" font-size="10.00">olectl.h</text>
</a>
</g>
</g>
<!-- Node2&#45;&gt;Node5 -->
<g id="edge4" class="edge">
<title>Node2&#45;&gt;Node5</title>
<path fill="none" stroke="midnightblue" d="M1651.99,-120.86C1473.32,-119.98 608.61,-113.84 319.16,-75.69"/>
<polygon fill="midnightblue" stroke="midnightblue" points="319.49,-72.2 309.11,-74.32 318.55,-79.14 319.49,-72.2"/>
</g>
<!-- Node6 -->
<g id="node6" class="node">
<title>Node6</title>
<g id="a_node6"><a xlink:title=" ">
<polygon fill="white" stroke="#bfbfbf" points="327,-56.5 327,-75.5 382,-75.5 382,-56.5 327,-56.5"/>
<text text-anchor="middle" x="354.5" y="-63.5" font-family="Helvetica,sans-Serif" font-size="10.00">ddraw.h</text>
</a>
</g>
</g>
<!-- Node2&#45;&gt;Node6 -->
<g id="edge5" class="edge">
<title>Node2&#45;&gt;Node6</title>
<path fill="none" stroke="midnightblue" d="M1651.75,-120.76C1478.48,-119.38 666.71,-111.18 392.57,-75.78"/>
<polygon fill="midnightblue" stroke="midnightblue" points="392.64,-72.25 382.26,-74.4 391.71,-79.19 392.64,-72.25"/>
</g>
<!-- Node7 -->
<g id="node7" class="node">
<title>Node7</title>
<g id="a_node7"><a xlink:title=" ">
<polygon fill="white" stroke="#bfbfbf" points="400,-56.5 400,-75.5 481,-75.5 481,-56.5 400,-56.5"/>
<text text-anchor="middle" x="440.5" y="-63.5" font-family="Helvetica,sans-Serif" font-size="10.00">mmsystem.h</text>
</a>
</g>
</g>
<!-- Node2&#45;&gt;Node7 -->
<g id="edge6" class="edge">
<title>Node2&#45;&gt;Node7</title>
<path fill="none" stroke="midnightblue" d="M1651.85,-120.39C1487.13,-117.22 745.63,-101.82 491.38,-75.88"/>
<polygon fill="midnightblue" stroke="midnightblue" points="491.4,-72.37 481.09,-74.8 490.67,-79.33 491.4,-72.37"/>
</g>
<!-- Node8 -->
<g id="node8" class="node">
<title>Node8</title>
<g id="a_node8"><a xlink:title=" ">
<polygon fill="white" stroke="#bfbfbf" points="499.5,-56.5 499.5,-75.5 553.5,-75.5 553.5,-56.5 499.5,-56.5"/>
<text text-anchor="middle" x="526.5" y="-63.5" font-family="Helvetica,sans-Serif" font-size="10.00">strmif.h</text>
</a>
</g>
</g>
<!-- Node2&#45;&gt;Node8 -->
<g id="edge7" class="edge">
<title>Node2&#45;&gt;Node8</title>
<path fill="none" stroke="midnightblue" d="M1651.98,-120.57C1493.65,-118.32 801.93,-106.97 563.84,-75.66"/>
<polygon fill="midnightblue" stroke="midnightblue" points="564.24,-72.18 553.86,-74.3 563.3,-79.12 564.24,-72.18"/>
</g>
<!-- Node2&#45;&gt;Node9 -->
<g id="edge8" class="edge">
<title>Node2&#45;&gt;Node9</title>
<path fill="none" stroke="midnightblue" d="M1651.98,-120.48C1441.37,-117.09 272.87,-97.48 69.2,-75.67"/>
<polygon fill="midnightblue" stroke="midnightblue" points="69.54,-72.18 59.2,-74.5 68.72,-79.14 69.54,-72.18"/>
</g>
<!-- Node10 -->
<g id="node10" class="node">
<title>Node10</title>
<g id="a_node10"><a xlink:href="../../d5/def/reftime_8h.html" target="_top" xlink:title=" ">
<polygon fill="white" stroke="black" points="572,-56.5 572,-75.5 633,-75.5 633,-56.5 572,-56.5"/>
<text text-anchor="middle" x="602.5" y="-63.5" font-family="Helvetica,sans-Serif" font-size="10.00">reftime.h</text>
</a>
</g>
</g>
<!-- Node2&#45;&gt;Node10 -->
<g id="edge9" class="edge">
<title>Node2&#45;&gt;Node10</title>
<path fill="none" stroke="midnightblue" d="M1651.76,-120.37C1500.18,-117.35 864.94,-103.34 643.63,-75.85"/>
<polygon fill="midnightblue" stroke="midnightblue" points="643.78,-72.34 633.41,-74.53 642.88,-79.28 643.78,-72.34"/>
</g>
<!-- Node11 -->
<g id="node11" class="node">
<title>Node11</title>
<g id="a_node11"><a xlink:href="../../de/de4/wxdebug_8h.html" target="_top" xlink:title=" ">
<polygon fill="white" stroke="black" points="651.5,-56.5 651.5,-75.5 721.5,-75.5 721.5,-56.5 651.5,-56.5"/>
<text text-anchor="middle" x="686.5" y="-63.5" font-family="Helvetica,sans-Serif" font-size="10.00">wxdebug.h</text>
</a>
</g>
</g>
<!-- Node2&#45;&gt;Node11 -->
<g id="edge10" class="edge">
<title>Node2&#45;&gt;Node11</title>
<path fill="none" stroke="midnightblue" d="M1651.81,-121.28C1530.89,-121.95 1097.51,-120.94 731.94,-75.98"/>
<polygon fill="midnightblue" stroke="midnightblue" points="732.32,-72.5 721.96,-74.74 731.46,-79.45 732.32,-72.5"/>
</g>
<!-- Node12 -->
<g id="node12" class="node">
<title>Node12</title>
<g id="a_node12"><a xlink:title=" ">
<polygon fill="white" stroke="#bfbfbf" points="739.5,-56.5 739.5,-75.5 807.5,-75.5 807.5,-56.5 739.5,-56.5"/>
<text text-anchor="middle" x="773.5" y="-63.5" font-family="Helvetica,sans-Serif" font-size="10.00">amvideo.h</text>
</a>
</g>
</g>
<!-- Node2&#45;&gt;Node12 -->
<g id="edge11" class="edge">
<title>Node2&#45;&gt;Node12</title>
<path fill="none" stroke="midnightblue" d="M1651.62,-121.12C1537.55,-121.15 1148.2,-118.06 817.93,-75.97"/>
<polygon fill="midnightblue" stroke="midnightblue" points="818.05,-72.46 807.69,-74.65 817.16,-79.4 818.05,-72.46"/>
</g>
<!-- Node13 -->
<g id="node13" class="node">
<title>Node13</title>
<g id="a_node13"><a xlink:href="../../d5/db0/wxutil_8h.html" target="_top" xlink:title=" ">
<polygon fill="white" stroke="black" points="825.5,-56.5 825.5,-75.5 881.5,-75.5 881.5,-56.5 825.5,-56.5"/>
<text text-anchor="middle" x="853.5" y="-63.5" font-family="Helvetica,sans-Serif" font-size="10.00">wxutil.h</text>
</a>
</g>
</g>
<!-- Node2&#45;&gt;Node13 -->
<g id="edge12" class="edge">
<title>Node2&#45;&gt;Node13</title>
<path fill="none" stroke="midnightblue" d="M1651.76,-121.27C1544.13,-121.71 1191.48,-119.61 891.87,-75.92"/>
<polygon fill="midnightblue" stroke="midnightblue" points="892.08,-72.41 881.68,-74.41 891.06,-79.34 892.08,-72.41"/>
</g>
<!-- Node14 -->
<g id="node14" class="node">
<title>Node14</title>
<g id="a_node14"><a xlink:href="../../de/de7/combase_8h.html" target="_top" xlink:title=" ">
<polygon fill="white" stroke="black" points="899.5,-56.5 899.5,-75.5 969.5,-75.5 969.5,-56.5 899.5,-56.5"/>
<text text-anchor="middle" x="934.5" y="-63.5" font-family="Helvetica,sans-Serif" font-size="10.00">combase.h</text>
</a>
</g>
</g>
<!-- Node2&#45;&gt;Node14 -->
<g id="edge13" class="edge">
<title>Node2&#45;&gt;Node14</title>
<path fill="none" stroke="midnightblue" d="M1651.67,-120.46C1552.14,-118.5 1244.92,-110.03 980,-75.85"/>
<polygon fill="midnightblue" stroke="midnightblue" points="980.17,-72.35 969.8,-74.52 979.26,-79.29 980.17,-72.35"/>
</g>
<!-- Node15 -->
<g id="node15" class="node">
<title>Node15</title>
<g id="a_node15"><a xlink:href="../../d6/d82/dllsetup_8h.html" target="_top" xlink:title=" ">
<polygon fill="white" stroke="black" points="988,-56.5 988,-75.5 1053,-75.5 1053,-56.5 988,-56.5"/>
<text text-anchor="middle" x="1020.5" y="-63.5" font-family="Helvetica,sans-Serif" font-size="10.00">dllsetup.h</text>
</a>
</g>
</g>
<!-- Node2&#45;&gt;Node15 -->
<g id="edge14" class="edge">
<title>Node2&#45;&gt;Node15</title>
<path fill="none" stroke="midnightblue" d="M1651.95,-120.24C1560.64,-117.76 1294.2,-108.22 1063.36,-75.92"/>
<polygon fill="midnightblue" stroke="midnightblue" points="1063.83,-72.45 1053.44,-74.51 1062.85,-79.38 1063.83,-72.45"/>
</g>
<!-- Node16 -->
<g id="node16" class="node">
<title>Node16</title>
<g id="a_node16"><a xlink:href="../../d1/d9c/measure_8h.html" target="_top" xlink:title=" ">
<polygon fill="white" stroke="black" points="1071.5,-56.5 1071.5,-75.5 1139.5,-75.5 1139.5,-56.5 1071.5,-56.5"/>
<text text-anchor="middle" x="1105.5" y="-63.5" font-family="Helvetica,sans-Serif" font-size="10.00">measure.h</text>
</a>
</g>
</g>
<!-- Node2&#45;&gt;Node16 -->
<g id="edge15" class="edge">
<title>Node2&#45;&gt;Node16</title>
<path fill="none" stroke="midnightblue" d="M1651.71,-119.65C1569.08,-115.94 1345.51,-104.07 1149.6,-75.99"/>
<polygon fill="midnightblue" stroke="midnightblue" points="1150.1,-72.52 1139.7,-74.55 1149.09,-79.45 1150.1,-72.52"/>
</g>
<!-- Node17 -->
<g id="node17" class="node">
<title>Node17</title>
<g id="a_node17"><a xlink:title=" ">
<polygon fill="white" stroke="#bfbfbf" points="1157.5,-56.5 1157.5,-75.5 1219.5,-75.5 1219.5,-56.5 1157.5,-56.5"/>
<text text-anchor="middle" x="1188.5" y="-63.5" font-family="Helvetica,sans-Serif" font-size="10.00">comlite.h</text>
</a>
</g>
</g>
<!-- Node2&#45;&gt;Node17 -->
<g id="edge16" class="edge">
<title>Node2&#45;&gt;Node17</title>
<path fill="none" stroke="midnightblue" d="M1651.98,-119.17C1578.5,-114.74 1393.94,-101.96 1230.13,-76.08"/>
<polygon fill="midnightblue" stroke="midnightblue" points="1230.3,-72.57 1219.87,-74.44 1229.19,-79.48 1230.3,-72.57"/>
</g>
<!-- Node18 -->
<g id="node18" class="node">
<title>Node18</title>
<g id="a_node18"><a xlink:href="../../d3/d26/cache_8h.html" target="_top" xlink:title=" ">
<polygon fill="white" stroke="black" points="1237.5,-56.5 1237.5,-75.5 1291.5,-75.5 1291.5,-56.5 1237.5,-56.5"/>
<text text-anchor="middle" x="1264.5" y="-63.5" font-family="Helvetica,sans-Serif" font-size="10.00">cache.h</text>
</a>
</g>
</g>
<!-- Node2&#45;&gt;Node18 -->
<g id="edge17" class="edge">
<title>Node2&#45;&gt;Node18</title>
<path fill="none" stroke="midnightblue" d="M1651.77,-118.51C1586.98,-113.28 1437.69,-99.8 1302.06,-75.87"/>
<polygon fill="midnightblue" stroke="midnightblue" points="1302.36,-72.37 1291.9,-74.06 1301.13,-79.26 1302.36,-72.37"/>
</g>
<!-- Node19 -->
<g id="node19" class="node">
<title>Node19</title>
<g id="a_node19"><a xlink:href="../../d9/d9c/wxlist_8h.html" target="_top" xlink:title=" ">
<polygon fill="white" stroke="black" points="1310,-56.5 1310,-75.5 1365,-75.5 1365,-56.5 1310,-56.5"/>
<text text-anchor="middle" x="1337.5" y="-63.5" font-family="Helvetica,sans-Serif" font-size="10.00">wxlist.h</text>
</a>
</g>
</g>
<!-- Node2&#45;&gt;Node19 -->
<g id="edge18" class="edge">
<title>Node2&#45;&gt;Node19</title>
<path fill="none" stroke="midnightblue" d="M1651.75,-117.28C1596.73,-110.8 1482.09,-96.36 1375.3,-75.99"/>
<polygon fill="midnightblue" stroke="midnightblue" points="1375.8,-72.52 1365.32,-74.06 1374.47,-79.4 1375.8,-72.52"/>
</g>
<!-- Node20 -->
<g id="node20" class="node">
<title>Node20</title>
<g id="a_node20"><a xlink:href="../../d6/d29/msgthrd_8h.html" target="_top" xlink:title=" ">
<polygon fill="white" stroke="black" points="1383.5,-56.5 1383.5,-75.5 1449.5,-75.5 1449.5,-56.5 1383.5,-56.5"/>
<text text-anchor="middle" x="1416.5" y="-63.5" font-family="Helvetica,sans-Serif" font-size="10.00">msgthrd.h</text>
</a>
</g>
</g>
<!-- Node2&#45;&gt;Node20 -->
<g id="edge19" class="edge">
<title>Node2&#45;&gt;Node20</title>
<path fill="none" stroke="midnightblue" d="M1651.69,-114.53C1609.75,-106.25 1534.61,-91.33 1459.89,-76.06"/>
<polygon fill="midnightblue" stroke="midnightblue" points="1460.33,-72.58 1449.83,-74.01 1458.92,-79.44 1460.33,-72.58"/>
</g>
<!-- Node21 -->
<g id="node21" class="node">
<title>Node21</title>
<g id="a_node21"><a xlink:href="../../d6/d3f/mtype_8h.html" target="_top" xlink:title=" ">
<polygon fill="white" stroke="black" points="1468,-56.5 1468,-75.5 1525,-75.5 1525,-56.5 1468,-56.5"/>
<text text-anchor="middle" x="1496.5" y="-63.5" font-family="Helvetica,sans-Serif" font-size="10.00">mtype.h</text>
</a>
</g>
</g>
<!-- Node2&#45;&gt;Node21 -->
<g id="edge20" class="edge">
<title>Node2&#45;&gt;Node21</title>
<path fill="none" stroke="midnightblue" d="M1654.71,-112.44C1622.39,-103.16 1570.66,-88.3 1535.21,-78.12"/>
<polygon fill="midnightblue" stroke="midnightblue" points="1535.8,-74.65 1525.22,-75.25 1533.87,-81.38 1535.8,-74.65"/>
</g>
<!-- Node22 -->
<g id="node22" class="node">
<title>Node22</title>
<g id="a_node22"><a xlink:href="../../d1/d6b/fourcc_8h.html" target="_top" xlink:title=" ">
<polygon fill="white" stroke="black" points="1543.5,-56.5 1543.5,-75.5 1599.5,-75.5 1599.5,-56.5 1543.5,-56.5"/>
<text text-anchor="middle" x="1571.5" y="-63.5" font-family="Helvetica,sans-Serif" font-size="10.00">fourcc.h</text>
</a>
</g>
</g>
<!-- Node2&#45;&gt;Node22 -->
<g id="edge21" class="edge">
<title>Node2&#45;&gt;Node22</title>
<path fill="none" stroke="midnightblue" d="M1666.59,-112.44C1648.25,-103.68 1619.49,-89.94 1598.41,-79.86"/>
<polygon fill="midnightblue" stroke="midnightblue" points="1599.85,-76.67 1589.32,-75.52 1596.83,-82.99 1599.85,-76.67"/>
</g>
<!-- Node23 -->
<g id="node23" class="node">
<title>Node23</title>
<g id="a_node23"><a xlink:title=" ">
<polygon fill="white" stroke="#bfbfbf" points="1618,-56.5 1618,-75.5 1677,-75.5 1677,-56.5 1618,-56.5"/>
<text text-anchor="middle" x="1647.5" y="-63.5" font-family="Helvetica,sans-Serif" font-size="10.00">control.h</text>
</a>
</g>
</g>
<!-- Node2&#45;&gt;Node23 -->
<g id="edge22" class="edge">
<title>Node2&#45;&gt;Node23</title>
<path fill="none" stroke="midnightblue" d="M1678.39,-112.08C1673.22,-104.53 1665.65,-93.49 1659.31,-84.23"/>
<polygon fill="midnightblue" stroke="midnightblue" points="1662.04,-82.02 1653.5,-75.75 1656.26,-85.98 1662.04,-82.02"/>
</g>
<!-- Node24 -->
<g id="node24" class="node">
<title>Node24</title>
<g id="a_node24"><a xlink:href="../../d5/df5/ctlutil_8h.html" target="_top" xlink:title=" ">
<polygon fill="white" stroke="black" points="1695,-56.5 1695,-75.5 1748,-75.5 1748,-56.5 1695,-56.5"/>
<text text-anchor="middle" x="1721.5" y="-63.5" font-family="Helvetica,sans-Serif" font-size="10.00">ctlutil.h</text>
</a>
</g>
</g>
<!-- Node2&#45;&gt;Node24 -->
<g id="edge23" class="edge">
<title>Node2&#45;&gt;Node24</title>
<path fill="none" stroke="midnightblue" d="M1690.61,-112.08C1695.78,-104.53 1703.35,-93.49 1709.69,-84.23"/>
<polygon fill="midnightblue" stroke="midnightblue" points="1712.74,-85.98 1715.5,-75.75 1706.96,-82.02 1712.74,-85.98"/>
</g>
<!-- Node25 -->
<g id="node25" class="node">
<title>Node25</title>
<g id="a_node25"><a xlink:title=" ">
<polygon fill="white" stroke="#bfbfbf" points="1766,-56.5 1766,-75.5 1827,-75.5 1827,-56.5 1766,-56.5"/>
<text text-anchor="middle" x="1796.5" y="-63.5" font-family="Helvetica,sans-Serif" font-size="10.00">evcode.h</text>
</a>
</g>
</g>
<!-- Node2&#45;&gt;Node25 -->
<g id="edge24" class="edge">
<title>Node2&#45;&gt;Node25</title>
<path fill="none" stroke="midnightblue" d="M1702.49,-112.32C1720.54,-103.62 1748.55,-90.12 1769.3,-80.11"/>
<polygon fill="midnightblue" stroke="midnightblue" points="1771.06,-83.15 1778.55,-75.65 1768.02,-76.84 1771.06,-83.15"/>
</g>
<!-- Node26 -->
<g id="node26" class="node">
<title>Node26</title>
<g id="a_node26"><a xlink:href="../../d2/d9b/amfilter_8h.html" target="_top" xlink:title=" ">
<polygon fill="white" stroke="black" points="1845,-56.5 1845,-75.5 1908,-75.5 1908,-56.5 1845,-56.5"/>
<text text-anchor="middle" x="1876.5" y="-63.5" font-family="Helvetica,sans-Serif" font-size="10.00">amfilter.h</text>
</a>
</g>
</g>
<!-- Node2&#45;&gt;Node26 -->
<g id="edge25" class="edge">
<title>Node2&#45;&gt;Node26</title>
<path fill="none" stroke="midnightblue" d="M1714.92,-112.44C1747.78,-103.2 1800.28,-88.44 1836.47,-78.26"/>
<polygon fill="midnightblue" stroke="midnightblue" points="1837.54,-81.59 1846.22,-75.52 1835.65,-74.85 1837.54,-81.59"/>
</g>
<!-- Node27 -->
<g id="node27" class="node">
<title>Node27</title>
<g id="a_node27"><a xlink:href="../../d8/df6/transfrm_8h.html" target="_top" xlink:title=" ">
<polygon fill="white" stroke="black" points="1926.5,-56.5 1926.5,-75.5 1994.5,-75.5 1994.5,-56.5 1926.5,-56.5"/>
<text text-anchor="middle" x="1960.5" y="-63.5" font-family="Helvetica,sans-Serif" font-size="10.00">transfrm.h</text>
</a>
</g>
</g>
<!-- Node2&#45;&gt;Node27 -->
<g id="edge26" class="edge">
<title>Node2&#45;&gt;Node27</title>
<path fill="none" stroke="midnightblue" d="M1717.04,-113.94C1720.24,-113.28 1723.43,-112.62 1726.5,-112 1808.12,-95.56 1831.13,-93.02 1916.39,-76.19"/>
<polygon fill="midnightblue" stroke="midnightblue" points="1917.12,-79.61 1926.25,-74.23 1915.76,-72.75 1917.12,-79.61"/>
</g>
<!-- Node28 -->
<g id="node28" class="node">
<title>Node28</title>
<g id="a_node28"><a xlink:href="../../df/db9/transip_8h.html" target="_top" xlink:title=" ">
<polygon fill="white" stroke="black" points="2013,-56.5 2013,-75.5 2072,-75.5 2072,-56.5 2013,-56.5"/>
<text text-anchor="middle" x="2042.5" y="-63.5" font-family="Helvetica,sans-Serif" font-size="10.00">transip.h</text>
</a>
</g>
</g>
<!-- Node2&#45;&gt;Node28 -->
<g id="edge27" class="edge">
<title>Node2&#45;&gt;Node28</title>
<path fill="none" stroke="midnightblue" d="M1717.01,-113.76C1720.21,-113.13 1723.41,-112.53 1726.5,-112 1845.63,-91.53 1879.54,-97.63 2002.56,-76"/>
<polygon fill="midnightblue" stroke="midnightblue" points="2003.52,-79.38 2012.75,-74.18 2002.29,-72.49 2003.52,-79.38"/>
</g>
<!-- Node29 -->
<g id="node29" class="node">
<title>Node29</title>
<g id="a_node29"><a xlink:title=" ">
<polygon fill="white" stroke="#bfbfbf" points="2090.5,-56.5 2090.5,-75.5 2142.5,-75.5 2142.5,-56.5 2090.5,-56.5"/>
<text text-anchor="middle" x="2116.5" y="-63.5" font-family="Helvetica,sans-Serif" font-size="10.00">uuids.h</text>
</a>
</g>
</g>
<!-- Node2&#45;&gt;Node29 -->
<g id="edge28" class="edge">
<title>Node2&#45;&gt;Node29</title>
<path fill="none" stroke="midnightblue" d="M1717.45,-113.58C1720.5,-113 1723.55,-112.46 1726.5,-112 1879.95,-87.85 1923.59,-103.17 2080.23,-75.98"/>
<polygon fill="midnightblue" stroke="midnightblue" points="2080.98,-79.4 2090.22,-74.21 2079.76,-72.5 2080.98,-79.4"/>
</g>
<!-- Node30 -->
<g id="node30" class="node">
<title>Node30</title>
<g id="a_node30"><a xlink:href="../../da/d1b/source_8h.html" target="_top" xlink:title=" ">
<polygon fill="white" stroke="black" points="2160.5,-56.5 2160.5,-75.5 2218.5,-75.5 2218.5,-56.5 2160.5,-56.5"/>
<text text-anchor="middle" x="2189.5" y="-63.5" font-family="Helvetica,sans-Serif" font-size="10.00">source.h</text>
</a>
</g>
</g>
<!-- Node2&#45;&gt;Node30 -->
<g id="edge29" class="edge">
<title>Node2&#45;&gt;Node30</title>
<path fill="none" stroke="midnightblue" d="M1717.44,-113.53C1720.5,-112.96 1723.55,-112.44 1726.5,-112 1910.79,-84.56 1962.55,-105.19 2150.21,-75.98"/>
<polygon fill="midnightblue" stroke="midnightblue" points="2150.8,-79.43 2160.13,-74.41 2149.7,-72.52 2150.8,-79.43"/>
</g>
<!-- Node31 -->
<g id="node31" class="node">
<title>Node31</title>
<g id="a_node31"><a xlink:href="../../dd/d6a/outputq_8h.html" target="_top" xlink:title=" ">
<polygon fill="white" stroke="black" points="2237,-56.5 2237,-75.5 2300,-75.5 2300,-56.5 2237,-56.5"/>
<text text-anchor="middle" x="2268.5" y="-63.5" font-family="Helvetica,sans-Serif" font-size="10.00">outputq.h</text>
</a>
</g>
</g>
<!-- Node2&#45;&gt;Node31 -->
<g id="edge30" class="edge">
<title>Node2&#45;&gt;Node31</title>
<path fill="none" stroke="midnightblue" d="M1717.44,-113.49C1720.49,-112.93 1723.55,-112.42 1726.5,-112 1944.27,-81 2004.8,-107.22 2226.79,-75.87"/>
<polygon fill="midnightblue" stroke="midnightblue" points="2227.4,-79.32 2236.8,-74.43 2226.4,-72.39 2227.4,-79.32"/>
</g>
<!-- Node32 -->
<g id="node32" class="node">
<title>Node32</title>
<g id="a_node32"><a xlink:title=" ">
<polygon fill="white" stroke="#bfbfbf" points="2318.5,-56.5 2318.5,-75.5 2372.5,-75.5 2372.5,-56.5 2318.5,-56.5"/>
<text text-anchor="middle" x="2345.5" y="-63.5" font-family="Helvetica,sans-Serif" font-size="10.00">errors.h</text>
</a>
</g>
</g>
<!-- Node2&#45;&gt;Node32 -->
<g id="edge31" class="edge">
<title>Node2&#45;&gt;Node32</title>
<path fill="none" stroke="midnightblue" d="M1717.43,-113.46C1720.49,-112.9 1723.54,-112.41 1726.5,-112 1980.43,-77.15 2051.15,-114.67 2308.46,-75.85"/>
<polygon fill="midnightblue" stroke="midnightblue" points="2309.13,-79.29 2318.48,-74.32 2308.07,-72.37 2309.13,-79.29"/>
</g>
<!-- Node33 -->
<g id="node33" class="node">
<title>Node33</title>
<g id="a_node33"><a xlink:href="../../d3/dff/renbase_8h.html" target="_top" xlink:title=" ">
<polygon fill="white" stroke="black" points="2391,-56.5 2391,-75.5 2456,-75.5 2456,-56.5 2391,-56.5"/>
<text text-anchor="middle" x="2423.5" y="-63.5" font-family="Helvetica,sans-Serif" font-size="10.00">renbase.h</text>
</a>
</g>
</g>
<!-- Node2&#45;&gt;Node33 -->
<g id="edge32" class="edge">
<title>Node2&#45;&gt;Node33</title>
<path fill="none" stroke="midnightblue" d="M1717.43,-113.44C1720.49,-112.89 1723.54,-112.4 1726.5,-112 2012.23,-73.77 2090.77,-113.74 2380.61,-75.89"/>
<polygon fill="midnightblue" stroke="midnightblue" points="2381.12,-79.35 2390.57,-74.56 2380.2,-72.41 2381.12,-79.35"/>
</g>
<!-- Node34 -->
<g id="node34" class="node">
<title>Node34</title>
<g id="a_node34"><a xlink:href="../../df/d97/winutil_8h.html" target="_top" xlink:title=" ">
<polygon fill="white" stroke="black" points="2474,-56.5 2474,-75.5 2533,-75.5 2533,-56.5 2474,-56.5"/>
<text text-anchor="middle" x="2503.5" y="-63.5" font-family="Helvetica,sans-Serif" font-size="10.00">winutil.h</text>
</a>
</g>
</g>
<!-- Node2&#45;&gt;Node34 -->
<g id="edge33" class="edge">
<title>Node2&#45;&gt;Node34</title>
<path fill="none" stroke="midnightblue" d="M1717.43,-113.42C1720.48,-112.87 1723.54,-112.39 1726.5,-112 2049.22,-69.85 2138.1,-121.02 2463.54,-76.03"/>
<polygon fill="midnightblue" stroke="midnightblue" points="2464.31,-79.45 2473.73,-74.6 2463.34,-72.52 2464.31,-79.45"/>
</g>
<!-- Node35 -->
<g id="node35" class="node">
<title>Node35</title>
<g id="a_node35"><a xlink:href="../../d3/d6c/winctrl_8h.html" target="_top" xlink:title=" ">
<polygon fill="white" stroke="black" points="2551,-56.5 2551,-75.5 2610,-75.5 2610,-56.5 2551,-56.5"/>
<text text-anchor="middle" x="2580.5" y="-63.5" font-family="Helvetica,sans-Serif" font-size="10.00">winctrl.h</text>
</a>
</g>
</g>
<!-- Node2&#45;&gt;Node35 -->
<g id="edge34" class="edge">
<title>Node2&#45;&gt;Node35</title>
<path fill="none" stroke="midnightblue" d="M1717.43,-113.4C1720.48,-112.86 1723.54,-112.38 1726.5,-112 2083.23,-66.24 2181.14,-124.95 2540.56,-76.01"/>
<polygon fill="midnightblue" stroke="midnightblue" points="2541.3,-79.45 2550.73,-74.61 2540.35,-72.51 2541.3,-79.45"/>
</g>
<!-- Node36 -->
<g id="node36" class="node">
<title>Node36</title>
<g id="a_node36"><a xlink:href="../../d2/d6a/videoctl_8h.html" target="_top" xlink:title=" ">
<polygon fill="white" stroke="black" points="2628,-56.5 2628,-75.5 2693,-75.5 2693,-56.5 2628,-56.5"/>
<text text-anchor="middle" x="2660.5" y="-63.5" font-family="Helvetica,sans-Serif" font-size="10.00">videoctl.h</text>
</a>
</g>
</g>
<!-- Node2&#45;&gt;Node36 -->
<g id="edge35" class="edge">
<title>Node2&#45;&gt;Node36</title>
<path fill="none" stroke="midnightblue" d="M1717.42,-113.39C1720.48,-112.85 1723.54,-112.37 1726.5,-112 2117.31,-62.62 2223.79,-125.71 2617.96,-75.97"/>
<polygon fill="midnightblue" stroke="midnightblue" points="2618.44,-79.43 2627.92,-74.69 2617.55,-72.49 2618.44,-79.43"/>
</g>
<!-- Node37 -->
<g id="node37" class="node">
<title>Node37</title>
<g id="a_node37"><a xlink:href="../../d3/d40/refclock_8h.html" target="_top" xlink:title=" ">
<polygon fill="white" stroke="black" points="2711,-56.5 2711,-75.5 2776,-75.5 2776,-56.5 2711,-56.5"/>
<text text-anchor="middle" x="2743.5" y="-63.5" font-family="Helvetica,sans-Serif" font-size="10.00">refclock.h</text>
</a>
</g>
</g>
<!-- Node2&#45;&gt;Node37 -->
<g id="edge36" class="edge">
<title>Node2&#45;&gt;Node37</title>
<path fill="none" stroke="midnightblue" d="M1717.42,-113.38C1720.48,-112.84 1723.54,-112.37 1726.5,-112 2153.88,-58.74 2270.08,-129.63 2700.69,-75.99"/>
<polygon fill="midnightblue" stroke="midnightblue" points="2701.43,-79.43 2710.92,-74.7 2700.56,-72.48 2701.43,-79.43"/>
</g>
<!-- Node39 -->
<g id="node39" class="node">
<title>Node39</title>
<g id="a_node39"><a xlink:href="../../d8/d25/sysclock_8h.html" target="_top" xlink:title=" ">
<polygon fill="white" stroke="black" points="2794.5,-56.5 2794.5,-75.5 2862.5,-75.5 2862.5,-56.5 2794.5,-56.5"/>
<text text-anchor="middle" x="2828.5" y="-63.5" font-family="Helvetica,sans-Serif" font-size="10.00">sysclock.h</text>
</a>
</g>
</g>
<!-- Node2&#45;&gt;Node39 -->
<g id="edge38" class="edge">
<title>Node2&#45;&gt;Node39</title>
<path fill="none" stroke="midnightblue" d="M1717.42,-113.37C1720.48,-112.83 1723.54,-112.36 1726.5,-112 2190.6,-54.84 2316.18,-131.35 2784.26,-75.91"/>
<polygon fill="midnightblue" stroke="midnightblue" points="2784.81,-79.37 2794.32,-74.71 2783.98,-72.42 2784.81,-79.37"/>
</g>
<!-- Node40 -->
<g id="node40" class="node">
<title>Node40</title>
<g id="a_node40"><a xlink:href="../../d9/da3/pstream_8h.html" target="_top" xlink:title=" ">
<polygon fill="white" stroke="black" points="2880.5,-56.5 2880.5,-75.5 2946.5,-75.5 2946.5,-56.5 2880.5,-56.5"/>
<text text-anchor="middle" x="2913.5" y="-63.5" font-family="Helvetica,sans-Serif" font-size="10.00">pstream.h</text>
</a>
</g>
</g>
<!-- Node2&#45;&gt;Node40 -->
<g id="edge39" class="edge">
<title>Node2&#45;&gt;Node40</title>
<path fill="none" stroke="midnightblue" d="M1717.42,-113.36C1720.48,-112.83 1723.54,-112.36 1726.5,-112 2228.57,-50.82 2364.31,-136.45 2870.01,-75.94"/>
<polygon fill="midnightblue" stroke="midnightblue" points="2870.61,-79.39 2880.12,-74.72 2869.77,-72.44 2870.61,-79.39"/>
</g>
<!-- Node41 -->
<g id="node41" class="node">
<title>Node41</title>
<g id="a_node41"><a xlink:href="../../d6/da9/vtrans_8h.html" target="_top" xlink:title=" ">
<polygon fill="white" stroke="black" points="2964.5,-56.5 2964.5,-75.5 3020.5,-75.5 3020.5,-56.5 2964.5,-56.5"/>
<text text-anchor="middle" x="2992.5" y="-63.5" font-family="Helvetica,sans-Serif" font-size="10.00">vtrans.h</text>
</a>
</g>
</g>
<!-- Node2&#45;&gt;Node41 -->
<g id="edge40" class="edge">
<title>Node2&#45;&gt;Node41</title>
<path fill="none" stroke="midnightblue" d="M1717.42,-113.35C1720.48,-112.82 1723.54,-112.36 1726.5,-112 2265.7,-46.88 2412.15,-147.73 2954.3,-75.84"/>
<polygon fill="midnightblue" stroke="midnightblue" points="2954.89,-79.29 2964.33,-74.49 2953.96,-72.35 2954.89,-79.29"/>
</g>
<!-- Node42 -->
<g id="node42" class="node">
<title>Node42</title>
<g id="a_node42"><a xlink:href="../../d9/d09/amextra_8h.html" target="_top" xlink:title=" ">
<polygon fill="white" stroke="black" points="3039,-56.5 3039,-75.5 3106,-75.5 3106,-56.5 3039,-56.5"/>
<text text-anchor="middle" x="3072.5" y="-63.5" font-family="Helvetica,sans-Serif" font-size="10.00">amextra.h</text>
</a>
</g>
</g>
<!-- Node2&#45;&gt;Node42 -->
<g id="edge41" class="edge">
<title>Node2&#45;&gt;Node42</title>
<path fill="none" stroke="midnightblue" d="M1717.42,-113.35C1720.48,-112.82 1723.54,-112.36 1726.5,-112 2298.34,-43.42 2452.33,-142.44 3028.56,-75.84"/>
<polygon fill="midnightblue" stroke="midnightblue" points="3029.27,-79.29 3038.79,-74.65 3028.45,-72.33 3029.27,-79.29"/>
</g>
<!-- Node43 -->
<g id="node43" class="node">
<title>Node43</title>
<g id="a_node43"><a xlink:href="../../d4/dcd/cprop_8h.html" target="_top" xlink:title=" ">
<polygon fill="white" stroke="black" points="3124,-56.5 3124,-75.5 3177,-75.5 3177,-56.5 3124,-56.5"/>
<text text-anchor="middle" x="3150.5" y="-63.5" font-family="Helvetica,sans-Serif" font-size="10.00">cprop.h</text>
</a>
</g>
</g>
<!-- Node2&#45;&gt;Node43 -->
<g id="edge42" class="edge">
<title>Node2&#45;&gt;Node43</title>
<path fill="none" stroke="midnightblue" d="M1717.42,-113.34C1720.48,-112.81 1723.54,-112.35 1726.5,-112 2336.42,-39.38 2502.12,-160.13 3113.92,-75.89"/>
<polygon fill="midnightblue" stroke="midnightblue" points="3114.45,-79.35 3123.87,-74.51 3113.48,-72.42 3114.45,-79.35"/>
</g>
<!-- Node44 -->
<g id="node44" class="node">
<title>Node44</title>
<g id="a_node44"><a xlink:href="../../d9/da4/strmctl_8h.html" target="_top" xlink:title=" ">
<polygon fill="white" stroke="black" points="3195.5,-56.5 3195.5,-75.5 3255.5,-75.5 3255.5,-56.5 3195.5,-56.5"/>
<text text-anchor="middle" x="3225.5" y="-63.5" font-family="Helvetica,sans-Serif" font-size="10.00">strmctl.h</text>
</a>
</g>
</g>
<!-- Node2&#45;&gt;Node44 -->
<g id="edge43" class="edge">
<title>Node2&#45;&gt;Node44</title>
<path fill="none" stroke="midnightblue" d="M1717.42,-113.34C1720.48,-112.81 1723.54,-112.35 1726.5,-112 2367.78,-36.06 2540.77,-156.15 3185.37,-75.84"/>
<polygon fill="midnightblue" stroke="midnightblue" points="3185.89,-79.31 3195.37,-74.59 3185.02,-72.36 3185.89,-79.31"/>
</g>
<!-- Node45 -->
<g id="node45" class="node">
<title>Node45</title>
<g id="a_node45"><a xlink:title=" ">
<polygon fill="white" stroke="#bfbfbf" points="3274,-56.5 3274,-75.5 3345,-75.5 3345,-56.5 3274,-56.5"/>
<text text-anchor="middle" x="3309.5" y="-63.5" font-family="Helvetica,sans-Serif" font-size="10.00">edevdefs.h</text>
</a>
</g>
</g>
<!-- Node2&#45;&gt;Node45 -->
<g id="edge44" class="edge">
<title>Node2&#45;&gt;Node45</title>
<path fill="none" stroke="midnightblue" d="M1717.42,-113.34C1720.48,-112.81 1723.54,-112.35 1726.5,-112 2402.23,-32.41 2583.16,-150.17 3263.67,-75.85"/>
<polygon fill="midnightblue" stroke="midnightblue" points="3264.17,-79.31 3273.73,-74.74 3263.4,-72.35 3264.17,-79.31"/>
</g>
<!-- Node46 -->
<g id="node46" class="node">
<title>Node46</title>
<g id="a_node46"><a xlink:title=" ">
<polygon fill="white" stroke="#bfbfbf" points="3363,-56.5 3363,-75.5 3436,-75.5 3436,-56.5 3363,-56.5"/>
<text text-anchor="middle" x="3399.5" y="-63.5" font-family="Helvetica,sans-Serif" font-size="10.00">audevcod.h</text>
</a>
</g>
</g>
<!-- Node2&#45;&gt;Node46 -->
<g id="edge45" class="edge">
<title>Node2&#45;&gt;Node46</title>
<path fill="none" stroke="midnightblue" d="M1717.42,-113.33C1720.48,-112.81 1723.54,-112.35 1726.5,-112 2441.98,-28.19 2633.35,-154.09 3352.65,-76"/>
<polygon fill="midnightblue" stroke="midnightblue" points="3353.19,-79.46 3362.74,-74.9 3352.42,-72.51 3353.19,-79.46"/>
</g>
<!-- Node38 -->
<g id="node38" class="node">
<title>Node38</title>
<g id="a_node38"><a xlink:href="../../de/d6b/schedule_8h.html" target="_top" xlink:title=" ">
<polygon fill="white" stroke="black" points="2708.5,-0.5 2708.5,-19.5 2778.5,-19.5 2778.5,-0.5 2708.5,-0.5"/>
<text text-anchor="middle" x="2743.5" y="-7.5" font-family="Helvetica,sans-Serif" font-size="10.00">Schedule.h</text>
</a>
</g>
</g>
<!-- Node37&#45;&gt;Node38 -->
<g id="edge37" class="edge">
<title>Node37&#45;&gt;Node38</title>
<path fill="none" stroke="midnightblue" d="M2743.5,-56.08C2743.5,-49.01 2743.5,-38.86 2743.5,-29.99"/>
<polygon fill="midnightblue" stroke="midnightblue" points="2747,-29.75 2743.5,-19.75 2740,-29.75 2747,-29.75"/>
</g>
</g>
</svg>
