<?xml version="1.0" encoding="UTF-8" standalone="no"?>
<!DOCTYPE svg PUBLIC "-//W3C//DTD SVG 1.1//EN"
 "http://www.w3.org/Graphics/SVG/1.1/DTD/svg11.dtd">
<!-- Generated by graphviz version 2.43.0 (0)
 -->
<!-- Title: /home/tcbuilder/buildAgent/work/df8e8cce5bebfd58/libajantv2 Pages: 1 -->
<svg width="232pt" height="292pt"
 viewBox="0.00 0.00 232.00 292.00" xmlns="http://www.w3.org/2000/svg" xmlns:xlink="http://www.w3.org/1999/xlink">
<g id="graph0" class="graph" transform="scale(1 1) rotate(0) translate(4 288)">
<title>/home/tcbuilder/buildAgent/work/df8e8cce5bebfd58/libajantv2</title>
<polygon fill="white" stroke="transparent" points="-4,4 -4,-288 228,-288 228,4 -4,4"/>
<g id="clust1" class="cluster">
<title>clusterdir_012a9823336f45ecffba9316d6ff6f27</title>
<g id="a_clust1"><a xlink:href="dir_012a9823336f45ecffba9316d6ff6f27.html" target="_top">
<polygon fill="#eeeeff" stroke="black" points="8,-8 8,-276 162,-276 162,-8 8,-8"/>
</a>
</g>
</g>
<!-- dir_012a9823336f45ecffba9316d6ff6f27 -->
<g id="node1" class="node">
<title>dir_012a9823336f45ecffba9316d6ff6f27</title>
<text text-anchor="middle" x="121" y="-247.5" font-family="Helvetica,sans-Serif" font-size="10.00">libajantv2</text>
</g>
<!-- dir_b59e94d4ad5c664834b28d5f17def224 -->
<g id="node2" class="node">
<title>dir_b59e94d4ad5c664834b28d5f17def224</title>
<g id="a_node2"><a xlink:href="dir_b59e94d4ad5c664834b28d5f17def224.html" target="_top" xlink:title="ajaanc">
<polygon fill="white" stroke="red" points="107,-196 53,-196 53,-160 107,-160 107,-196"/>
<text text-anchor="middle" x="80" y="-175.5" font-family="Helvetica,sans-Serif" font-size="10.00">ajaanc</text>
</a>
</g>
</g>
<!-- dir_e87eb6ce74e63cd1183c59eb94e728a6 -->
<g id="node3" class="node">
<title>dir_e87eb6ce74e63cd1183c59eb94e728a6</title>
<g id="a_node3"><a xlink:href="dir_e87eb6ce74e63cd1183c59eb94e728a6.html" target="_top" xlink:title="ajabase">
<polygon fill="white" stroke="red" points="153.5,-124 98.5,-124 98.5,-88 153.5,-88 153.5,-124"/>
<text text-anchor="middle" x="126" y="-103.5" font-family="Helvetica,sans-Serif" font-size="10.00">ajabase</text>
</a>
</g>
</g>
<!-- dir_b59e94d4ad5c664834b28d5f17def224&#45;&gt;dir_e87eb6ce74e63cd1183c59eb94e728a6 -->
<g id="edge1" class="edge">
<title>dir_b59e94d4ad5c664834b28d5f17def224&#45;&gt;dir_e87eb6ce74e63cd1183c59eb94e728a6</title>
<path fill="none" stroke="black" d="M91.37,-159.7C96.72,-151.56 103.2,-141.69 109.11,-132.7"/>
<polygon fill="black" stroke="black" points="112.19,-134.38 114.76,-124.1 106.34,-130.54 112.19,-134.38"/>
<g id="a_edge1&#45;headlabel"><a xlink:href="dir_000006_000009.html" target="_top" xlink:title="10">
<text text-anchor="middle" x="112.59" y="-136.45" font-family="Helvetica,sans-Serif" font-size="10.00">10</text>
</a>
</g>
</g>
<!-- dir_dcc334097b934f5294dca7e33f0e0621 -->
<g id="node4" class="node">
<title>dir_dcc334097b934f5294dca7e33f0e0621</title>
<g id="a_node4"><a xlink:href="dir_dcc334097b934f5294dca7e33f0e0621.html" target="_top" xlink:title="ajantv2">
<polygon fill="white" stroke="red" points="129,-52 75,-52 75,-16 129,-16 129,-52"/>
<text text-anchor="middle" x="102" y="-31.5" font-family="Helvetica,sans-Serif" font-size="10.00">ajantv2</text>
</a>
</g>
</g>
<!-- dir_b59e94d4ad5c664834b28d5f17def224&#45;&gt;dir_dcc334097b934f5294dca7e33f0e0621 -->
<g id="edge2" class="edge">
<title>dir_b59e94d4ad5c664834b28d5f17def224&#45;&gt;dir_dcc334097b934f5294dca7e33f0e0621</title>
<path fill="none" stroke="black" d="M74.3,-159.84C73.26,-141.85 75.73,-112.79 80,-88 81.49,-79.37 83.59,-70.06 86.1,-61.69"/>
<polygon fill="black" stroke="black" points="89.48,-62.65 89.35,-52.06 82.84,-60.42 89.48,-62.65"/>
<g id="a_edge2&#45;headlabel"><a xlink:href="dir_000006_000020.html" target="_top" xlink:title="7">
<text text-anchor="middle" x="91.02" y="-64.47" font-family="Helvetica,sans-Serif" font-size="10.00">7</text>
</a>
</g>
</g>
<!-- dir_e87eb6ce74e63cd1183c59eb94e728a6&#45;&gt;dir_dcc334097b934f5294dca7e33f0e0621 -->
<g id="edge3" class="edge">
<title>dir_e87eb6ce74e63cd1183c59eb94e728a6&#45;&gt;dir_dcc334097b934f5294dca7e33f0e0621</title>
<path fill="none" stroke="black" d="M114.15,-87.7C110.67,-79.9 107.23,-70.51 104.61,-61.83"/>
<polygon fill="black" stroke="black" points="107.97,-60.83 101.97,-52.1 101.22,-62.67 107.97,-60.83"/>
<g id="a_edge3&#45;headlabel"><a xlink:href="dir_000009_000020.html" target="_top" xlink:title="1">
<text text-anchor="middle" x="111.65" y="-61.06" font-family="Helvetica,sans-Serif" font-size="10.00">1</text>
</a>
</g>
</g>
<!-- dir_dcc334097b934f5294dca7e33f0e0621&#45;&gt;dir_b59e94d4ad5c664834b28d5f17def224 -->
<g id="edge7" class="edge">
<title>dir_dcc334097b934f5294dca7e33f0e0621&#45;&gt;dir_b59e94d4ad5c664834b28d5f17def224</title>
<path fill="none" stroke="black" d="M104.99,-52.06C103.41,-62.38 100.09,-75.86 98,-88 94.46,-108.53 92.16,-131.99 89.48,-149.66"/>
<polygon fill="black" stroke="black" points="85.97,-149.4 87.74,-159.84 92.87,-150.57 85.97,-149.4"/>
<g id="a_edge7&#45;headlabel"><a xlink:href="dir_000020_000006.html" target="_top" xlink:title="2">
<text text-anchor="middle" x="83.78" y="-142.88" font-family="Helvetica,sans-Serif" font-size="10.00">2</text>
</a>
</g>
</g>
<!-- dir_dcc334097b934f5294dca7e33f0e0621&#45;&gt;dir_e87eb6ce74e63cd1183c59eb94e728a6 -->
<g id="edge8" class="edge">
<title>dir_dcc334097b934f5294dca7e33f0e0621&#45;&gt;dir_e87eb6ce74e63cd1183c59eb94e728a6</title>
<path fill="none" stroke="black" d="M113.76,-52.1C117.24,-59.88 120.69,-69.26 123.32,-77.95"/>
<polygon fill="black" stroke="black" points="119.97,-78.97 125.98,-87.7 126.72,-77.13 119.97,-78.97"/>
<g id="a_edge8&#45;headlabel"><a xlink:href="dir_000020_000009.html" target="_top" xlink:title="69">
<text text-anchor="middle" x="116.28" y="-73.76" font-family="Helvetica,sans-Serif" font-size="10.00">69</text>
</a>
</g>
</g>
<!-- dir_957939c99aa964633a97cef056d70db5 -->
<g id="node5" class="node">
<title>dir_957939c99aa964633a97cef056d70db5</title>
<g id="a_node5"><a xlink:href="dir_957939c99aa964633a97cef056d70db5.html" target="_top" xlink:title="demos">
<polygon fill="white" stroke="red" points="70,-268 16,-268 16,-232 70,-232 70,-268"/>
<text text-anchor="middle" x="43" y="-247.5" font-family="Helvetica,sans-Serif" font-size="10.00">demos</text>
</a>
</g>
</g>
<!-- dir_957939c99aa964633a97cef056d70db5&#45;&gt;dir_b59e94d4ad5c664834b28d5f17def224 -->
<g id="edge9" class="edge">
<title>dir_957939c99aa964633a97cef056d70db5&#45;&gt;dir_b59e94d4ad5c664834b28d5f17def224</title>
<path fill="none" stroke="black" d="M52.15,-231.7C56.4,-223.64 61.56,-213.89 66.27,-204.98"/>
<polygon fill="black" stroke="black" points="69.38,-206.58 70.96,-196.1 63.19,-203.31 69.38,-206.58"/>
<g id="a_edge9&#45;headlabel"><a xlink:href="dir_000027_000006.html" target="_top" xlink:title="18">
<text text-anchor="middle" x="70.21" y="-208.59" font-family="Helvetica,sans-Serif" font-size="10.00">18</text>
</a>
</g>
</g>
<!-- dir_957939c99aa964633a97cef056d70db5&#45;&gt;dir_e87eb6ce74e63cd1183c59eb94e728a6 -->
<g id="edge10" class="edge">
<title>dir_957939c99aa964633a97cef056d70db5&#45;&gt;dir_e87eb6ce74e63cd1183c59eb94e728a6</title>
<path fill="none" stroke="black" d="M70.1,-236.52C86.22,-227.6 105.52,-214 116,-196 126.79,-177.47 128.86,-153.07 128.47,-134.51"/>
<polygon fill="black" stroke="black" points="131.96,-134.17 128,-124.34 124.96,-134.49 131.96,-134.17"/>
<g id="a_edge10&#45;headlabel"><a xlink:href="dir_000027_000009.html" target="_top" xlink:title="163">
<text text-anchor="middle" x="134.96" y="-135.13" font-family="Helvetica,sans-Serif" font-size="10.00">163</text>
</a>
</g>
</g>
<!-- dir_957939c99aa964633a97cef056d70db5&#45;&gt;dir_dcc334097b934f5294dca7e33f0e0621 -->
<g id="edge12" class="edge">
<title>dir_957939c99aa964633a97cef056d70db5&#45;&gt;dir_dcc334097b934f5294dca7e33f0e0621</title>
<path fill="none" stroke="black" d="M41.07,-231.69C39.54,-213.57 38.47,-184.41 44,-160 52.2,-123.79 71.77,-85.55 85.91,-61.05"/>
<polygon fill="black" stroke="black" points="88.97,-62.75 91.03,-52.36 82.94,-59.2 88.97,-62.75"/>
<g id="a_edge12&#45;headlabel"><a xlink:href="dir_000027_000020.html" target="_top" xlink:title="171">
<text text-anchor="middle" x="89.59" y="-64.79" font-family="Helvetica,sans-Serif" font-size="10.00">171</text>
</a>
</g>
</g>
<!-- dir_c4d775bf529828732cc762999cf6d75b -->
<g id="node6" class="node">
<title>dir_c4d775bf529828732cc762999cf6d75b</title>
<g id="a_node6"><a xlink:href="dir_c4d775bf529828732cc762999cf6d75b.html" target="_top" xlink:title="libajacc">
<polygon fill="white" stroke="red" points="224,-196 170,-196 170,-160 224,-160 224,-196"/>
<text text-anchor="middle" x="197" y="-175.5" font-family="Helvetica,sans-Serif" font-size="10.00">libajacc</text>
</a>
</g>
</g>
<!-- dir_957939c99aa964633a97cef056d70db5&#45;&gt;dir_c4d775bf529828732cc762999cf6d75b -->
<g id="edge11" class="edge">
<title>dir_957939c99aa964633a97cef056d70db5&#45;&gt;dir_c4d775bf529828732cc762999cf6d75b</title>
<path fill="none" stroke="black" d="M70.06,-236.05C73.07,-234.66 76.09,-233.29 79,-232 114.28,-216.38 126.38,-214.34 160.52,-198.52"/>
<polygon fill="black" stroke="black" points="162.15,-201.62 169.7,-194.18 159.16,-195.29 162.15,-201.62"/>
<g id="a_edge11&#45;headlabel"><a xlink:href="dir_000027_000000.html" target="_top" xlink:title="8">
<text text-anchor="middle" x="160.11" y="-203.22" font-family="Helvetica,sans-Serif" font-size="10.00">8</text>
</a>
</g>
</g>
<!-- dir_c4d775bf529828732cc762999cf6d75b&#45;&gt;dir_b59e94d4ad5c664834b28d5f17def224 -->
<g id="edge4" class="edge">
<title>dir_c4d775bf529828732cc762999cf6d75b&#45;&gt;dir_b59e94d4ad5c664834b28d5f17def224</title>
<path fill="none" stroke="black" d="M169.71,-178C152.35,-178 135,-178 117.64,-178"/>
<polygon fill="black" stroke="black" points="117.42,-174.5 107.42,-178 117.42,-181.5 117.42,-174.5"/>
<g id="a_edge4&#45;headlabel"><a xlink:href="dir_000000_000006.html" target="_top" xlink:title="1">
<text text-anchor="middle" x="121.02" y="-169.16" font-family="Helvetica,sans-Serif" font-size="10.00">1</text>
</a>
</g>
</g>
<!-- dir_c4d775bf529828732cc762999cf6d75b&#45;&gt;dir_e87eb6ce74e63cd1183c59eb94e728a6 -->
<g id="edge5" class="edge">
<title>dir_c4d775bf529828732cc762999cf6d75b&#45;&gt;dir_e87eb6ce74e63cd1183c59eb94e728a6</title>
<path fill="none" stroke="black" d="M179.45,-159.7C170.77,-151.14 160.14,-140.66 150.65,-131.3"/>
<polygon fill="black" stroke="black" points="152.93,-128.63 143.35,-124.1 148.01,-133.62 152.93,-128.63"/>
<g id="a_edge5&#45;headlabel"><a xlink:href="dir_000000_000009.html" target="_top" xlink:title="8">
<text text-anchor="middle" x="157.48" y="-126.63" font-family="Helvetica,sans-Serif" font-size="10.00">8</text>
</a>
</g>
</g>
<!-- dir_c4d775bf529828732cc762999cf6d75b&#45;&gt;dir_dcc334097b934f5294dca7e33f0e0621 -->
<g id="edge6" class="edge">
<title>dir_c4d775bf529828732cc762999cf6d75b&#45;&gt;dir_dcc334097b934f5294dca7e33f0e0621</title>
<path fill="none" stroke="black" d="M193.09,-159.74C188.24,-140.87 178.64,-110.37 163,-88 155.32,-77.02 144.89,-66.86 134.82,-58.43"/>
<polygon fill="black" stroke="black" points="136.87,-55.59 126.88,-52.07 132.49,-61.05 136.87,-55.59"/>
<g id="a_edge6&#45;headlabel"><a xlink:href="dir_000000_000020.html" target="_top" xlink:title="14">
<text text-anchor="middle" x="141.45" y="-53.13" font-family="Helvetica,sans-Serif" font-size="10.00">14</text>
</a>
</g>
</g>
</g>
</svg>
