<?xml version="1.0" encoding="UTF-8" standalone="no"?>
<!DOCTYPE svg PUBLIC "-//W3C//DTD SVG 1.1//EN"
 "http://www.w3.org/Graphics/SVG/1.1/DTD/svg11.dtd">
<!-- Generated by graphviz version 2.43.0 (0)
 -->
<!-- Title: AJAAncHierarchy Pages: 1 -->
<svg width="1008pt" height="172pt"
 viewBox="0.00 0.00 1008.00 171.98" xmlns="http://www.w3.org/2000/svg" xmlns:xlink="http://www.w3.org/1999/xlink">
<g id="graph0" class="graph" transform="scale(1.51 1.51) rotate(0) translate(4 255)">
<title>AJAAncHierarchy</title>
<polygon fill="white" stroke="transparent" points="-4,4 -4,-255 1514,-255 1514,4 -4,4"/>
<!-- ancl -->
<g id="node1" class="node">
<title>ancl</title>
<g id="a_node1"><a xlink:href="d8/def/class_a_j_a_ancillary_list.html" target="_top" xlink:title="{AJAAncillaryList|&#45; m_ancList}">
<polygon fill="none" stroke="black" points="0,-210.5 0,-250.5 101,-250.5 101,-210.5 0,-210.5"/>
<text text-anchor="middle" x="50.5" y="-237.7" font-family="Helvetica,sans-Serif" font-size="11.00">AJAAncillaryList</text>
<polyline fill="none" stroke="black" points="0,-230.5 101,-230.5 "/>
<text text-anchor="middle" x="50.5" y="-217.7" font-family="Helvetica,sans-Serif" font-size="11.00">&#45; m_ancList</text>
</a>
</g>
</g>
<!-- ancd -->
<g id="node2" class="node">
<title>ancd</title>
<g id="a_node2"><a xlink:href="dd/de8/class_a_j_a_ancillary_data.html" target="_top" xlink:title="{AJAAncillaryData|&#45; m_DID\n&#45; m_SID\n&#45; m_checksum\n&#45; m_location\n&#45; m_coding\n&#45; m_payload}">
<polygon fill="none" stroke="black" points="795.5,-0.5 795.5,-100.5 903.5,-100.5 903.5,-0.5 795.5,-0.5"/>
<text text-anchor="middle" x="849.5" y="-87.7" font-family="Helvetica,sans-Serif" font-size="11.00">AJAAncillaryData</text>
<polyline fill="none" stroke="black" points="795.5,-80.5 903.5,-80.5 "/>
<text text-anchor="middle" x="849.5" y="-67.7" font-family="Helvetica,sans-Serif" font-size="11.00">&#45; m_DID</text>
<text text-anchor="middle" x="849.5" y="-55.7" font-family="Helvetica,sans-Serif" font-size="11.00">&#45; m_SID</text>
<text text-anchor="middle" x="849.5" y="-43.7" font-family="Helvetica,sans-Serif" font-size="11.00">&#45; m_checksum</text>
<text text-anchor="middle" x="849.5" y="-31.7" font-family="Helvetica,sans-Serif" font-size="11.00">&#45; m_location</text>
<text text-anchor="middle" x="849.5" y="-19.7" font-family="Helvetica,sans-Serif" font-size="11.00">&#45; m_coding</text>
<text text-anchor="middle" x="849.5" y="-7.7" font-family="Helvetica,sans-Serif" font-size="11.00">&#45; m_payload</text>
</a>
</g>
</g>
<!-- ancd&#45;&gt;ancl -->
<g id="edge1" class="edge">
<title>ancd&#45;&gt;ancl</title>
<path fill="none" stroke="black" d="M783.07,-57.62C679.26,-68.14 472.83,-92.89 302.5,-137 227.61,-156.4 143.88,-189.53 94.27,-210.43"/>
<polygon fill="black" stroke="black" points="783.27,-57.6 788.84,-53.03 795.21,-56.41 789.64,-60.99 783.27,-57.6"/>
</g>
<!-- ancd608 -->
<g id="node3" class="node">
<title>ancd608</title>
<g id="a_node3"><a xlink:href="d5/d69/class_a_j_a_ancillary_data___cea608.html" target="_top" xlink:title="AJAAncillaryData_Cea608">
<polygon fill="none" stroke="black" points="312,-137.5 312,-173.5 467,-173.5 467,-137.5 312,-137.5"/>
<text text-anchor="middle" x="389.5" y="-152.7" font-family="Helvetica,sans-Serif" font-size="11.00">AJAAncillaryData_Cea608</text>
</a>
</g>
</g>
<!-- ancd608&#45;&gt;ancd -->
<g id="edge4" class="edge">
<title>ancd608&#45;&gt;ancd</title>
<path fill="none" stroke="black" d="M475.49,-135.24C569.3,-114.24 716.56,-81.27 795.4,-63.61"/>
<polygon fill="black" stroke="black" points="474.45,-131.89 465.46,-137.49 475.98,-138.72 474.45,-131.89"/>
</g>
<!-- ancd608l21 -->
<g id="node4" class="node">
<title>ancd608l21</title>
<g id="a_node4"><a xlink:href="dc/d91/class_a_j_a_ancillary_data___cea608___line21.html" target="_top" xlink:title="AJAAncillaryData_Cea608_Line21">
<polygon fill="none" stroke="black" points="119.5,-212.5 119.5,-248.5 315.5,-248.5 315.5,-212.5 119.5,-212.5"/>
<text text-anchor="middle" x="217.5" y="-227.7" font-family="Helvetica,sans-Serif" font-size="11.00">AJAAncillaryData_Cea608_Line21</text>
</a>
</g>
</g>
<!-- ancd608l21&#45;&gt;ancd608 -->
<g id="edge2" class="edge">
<title>ancd608l21&#45;&gt;ancd608</title>
<path fill="none" stroke="black" d="M267.18,-208.42C293.3,-197.33 324.89,-183.92 349.43,-173.51"/>
<polygon fill="black" stroke="black" points="265.66,-205.26 257.83,-212.38 268.4,-211.7 265.66,-205.26"/>
</g>
<!-- ancd608v -->
<g id="node5" class="node">
<title>ancd608v</title>
<g id="a_node5"><a xlink:href="d0/d3f/class_a_j_a_ancillary_data___cea608___vanc.html" target="_top" xlink:title="AJAAncillaryData_Cea608_Vanc">
<polygon fill="none" stroke="black" points="333.5,-212.5 333.5,-248.5 519.5,-248.5 519.5,-212.5 333.5,-212.5"/>
<text text-anchor="middle" x="426.5" y="-227.7" font-family="Helvetica,sans-Serif" font-size="11.00">AJAAncillaryData_Cea608_Vanc</text>
</a>
</g>
</g>
<!-- ancd608v&#45;&gt;ancd608 -->
<g id="edge3" class="edge">
<title>ancd608v&#45;&gt;ancd608</title>
<path fill="none" stroke="black" d="M413.17,-203.21C408.19,-193.38 402.67,-182.47 398.21,-173.68"/>
<polygon fill="black" stroke="black" points="410.09,-204.86 417.73,-212.2 416.33,-201.7 410.09,-204.86"/>
</g>
<!-- ancd708 -->
<g id="node6" class="node">
<title>ancd708</title>
<g id="a_node6"><a xlink:href="df/d7c/class_a_j_a_ancillary_data___cea708.html" target="_top" xlink:title="AJAAncillaryData_Cea708">
<polygon fill="none" stroke="black" points="485,-137.5 485,-173.5 640,-173.5 640,-137.5 485,-137.5"/>
<text text-anchor="middle" x="562.5" y="-152.7" font-family="Helvetica,sans-Serif" font-size="11.00">AJAAncillaryData_Cea708</text>
</a>
</g>
</g>
<!-- ancd708&#45;&gt;ancd -->
<g id="edge5" class="edge">
<title>ancd708&#45;&gt;ancd</title>
<path fill="none" stroke="black" d="M619.46,-134.06C670.53,-115.73 744.94,-89.03 795.18,-70.99"/>
<polygon fill="black" stroke="black" points="618.12,-130.82 609.89,-137.49 620.49,-137.41 618.12,-130.82"/>
</g>
<!-- ancdtc -->
<g id="node7" class="node">
<title>ancdtc</title>
<g id="a_node7"><a xlink:href="d7/dc8/class_a_j_a_ancillary_data___timecode.html" target="_top" xlink:title="AJAAncillaryData_Timecode">
<polygon fill="none" stroke="black" points="658,-137.5 658,-173.5 825,-173.5 825,-137.5 658,-137.5"/>
<text text-anchor="middle" x="741.5" y="-152.7" font-family="Helvetica,sans-Serif" font-size="11.00">AJAAncillaryData_Timecode</text>
</a>
</g>
</g>
<!-- ancdtc&#45;&gt;ancd -->
<g id="edge7" class="edge">
<title>ancdtc&#45;&gt;ancd</title>
<path fill="none" stroke="black" d="M766.79,-130.38C776.18,-121.43 787.19,-110.92 798.06,-100.55"/>
<polygon fill="black" stroke="black" points="764.16,-128.06 759.33,-137.49 768.99,-133.12 764.16,-128.06"/>
</g>
<!-- ancdtcatc -->
<g id="node8" class="node">
<title>ancdtcatc</title>
<g id="a_node8"><a xlink:href="d4/d73/class_a_j_a_ancillary_data___timecode___a_t_c.html" target="_top" xlink:title="AJAAncillaryData_Timecode_ATC">
<polygon fill="none" stroke="black" points="609.5,-212.5 609.5,-248.5 801.5,-248.5 801.5,-212.5 609.5,-212.5"/>
<text text-anchor="middle" x="705.5" y="-227.7" font-family="Helvetica,sans-Serif" font-size="11.00">AJAAncillaryData_Timecode_ATC</text>
</a>
</g>
</g>
<!-- ancdtcatc&#45;&gt;ancdtc -->
<g id="edge8" class="edge">
<title>ancdtcatc&#45;&gt;ancdtc</title>
<path fill="none" stroke="black" d="M718.47,-203.21C723.31,-193.38 728.69,-182.47 733.03,-173.68"/>
<polygon fill="black" stroke="black" points="715.32,-201.68 714.03,-212.2 721.59,-204.78 715.32,-201.68"/>
</g>
<!-- ancdtcvitc -->
<g id="node9" class="node">
<title>ancdtcvitc</title>
<g id="a_node9"><a xlink:href="de/df6/class_a_j_a_ancillary_data___timecode___v_i_t_c.html" target="_top" xlink:title="AJAAncillaryData_Timecode_VITC">
<polygon fill="none" stroke="black" points="819.5,-212.5 819.5,-248.5 1015.5,-248.5 1015.5,-212.5 819.5,-212.5"/>
<text text-anchor="middle" x="917.5" y="-227.7" font-family="Helvetica,sans-Serif" font-size="11.00">AJAAncillaryData_Timecode_VITC</text>
</a>
</g>
</g>
<!-- ancdtcvitc&#45;&gt;ancdtc -->
<g id="edge9" class="edge">
<title>ancdtcvitc&#45;&gt;ancdtc</title>
<path fill="none" stroke="black" d="M866.67,-208.42C839.94,-197.33 807.61,-183.92 782.51,-173.51"/>
<polygon fill="black" stroke="black" points="865.66,-211.79 876.24,-212.38 868.34,-205.32 865.66,-211.79"/>
</g>
<!-- ancd524d -->
<g id="node10" class="node">
<title>ancd524d</title>
<g id="a_node10"><a xlink:href="de/dab/class_a_j_a_ancillary_data___frame_status_info524_d.html" target="_top" xlink:title="AJAAncillaryData_FrameStatusInfo524D">
<polygon fill="none" stroke="black" points="843,-137.5 843,-173.5 1074,-173.5 1074,-137.5 843,-137.5"/>
<text text-anchor="middle" x="958.5" y="-152.7" font-family="Helvetica,sans-Serif" font-size="11.00">AJAAncillaryData_FrameStatusInfo524D</text>
</a>
</g>
</g>
<!-- ancd524d&#45;&gt;ancd -->
<g id="edge10" class="edge">
<title>ancd524d&#45;&gt;ancd</title>
<path fill="none" stroke="black" d="M932.97,-130.38C923.5,-121.43 912.39,-110.92 901.41,-100.55"/>
<polygon fill="black" stroke="black" points="930.83,-133.17 940.5,-137.49 935.64,-128.08 930.83,-133.17"/>
</g>
<!-- ancd5251 -->
<g id="node11" class="node">
<title>ancd5251</title>
<g id="a_node11"><a xlink:href="d0/d63/class_a_j_a_ancillary_data___frame_status_info5251.html" target="_top" xlink:title="AJAAncillaryData_FrameStatusInfo5251">
<polygon fill="none" stroke="black" points="1092.5,-137.5 1092.5,-173.5 1322.5,-173.5 1322.5,-137.5 1092.5,-137.5"/>
<text text-anchor="middle" x="1207.5" y="-152.7" font-family="Helvetica,sans-Serif" font-size="11.00">AJAAncillaryData_FrameStatusInfo5251</text>
</a>
</g>
</g>
<!-- ancd5251&#45;&gt;ancd -->
<g id="edge11" class="edge">
<title>ancd5251&#45;&gt;ancd</title>
<path fill="none" stroke="black" d="M1138.55,-134.66C1070.08,-114.96 966.51,-85.17 903.72,-67.1"/>
<polygon fill="black" stroke="black" points="1137.81,-138.09 1148.38,-137.49 1139.74,-131.36 1137.81,-138.09"/>
</g>
<!-- ancdaux -->
<g id="node12" class="node">
<title>ancdaux</title>
<g id="a_node12"><a xlink:href="d9/d61/class_a_j_a_ancillary_data___h_d_m_i___aux.html" target="_top" xlink:title="AJAAncillaryData_HDMI_Aux">
<polygon fill="none" stroke="black" points="1341,-137.5 1341,-173.5 1510,-173.5 1510,-137.5 1341,-137.5"/>
<text text-anchor="middle" x="1425.5" y="-152.7" font-family="Helvetica,sans-Serif" font-size="11.00">AJAAncillaryData_HDMI_Aux</text>
</a>
</g>
</g>
<!-- ancdaux&#45;&gt;ancd -->
<g id="edge6" class="edge">
<title>ancdaux&#45;&gt;ancd</title>
<path fill="none" stroke="black" d="M1330.81,-136.88C1168.91,-107.49 991.16,-76.26 903.74,-60.97"/>
<polygon fill="black" stroke="black" points="1330.49,-140.38 1340.96,-138.73 1331.74,-133.49 1330.49,-140.38"/>
</g>
<!-- ancdf -->
<g id="node13" class="node">
<title>ancdf</title>
<g id="a_node13"><a xlink:href="d6/dd7/class_a_j_a_ancillary_data_factory.html" target="_top" xlink:title="AJAAncillaryDataFactory">
<polygon fill="none" stroke="black" points="1033,-212.5 1033,-248.5 1182,-248.5 1182,-212.5 1033,-212.5"/>
<text text-anchor="middle" x="1107.5" y="-227.7" font-family="Helvetica,sans-Serif" font-size="11.00">AJAAncillaryDataFactory</text>
</a>
</g>
</g>
</g>
</svg>
