<?xml version="1.0" encoding="UTF-8" standalone="no"?>
<!DOCTYPE svg PUBLIC "-//W3C//DTD SVG 1.1//EN"
 "http://www.w3.org/Graphics/SVG/1.1/DTD/svg11.dtd">
<!-- Generated by graphviz version 2.43.0 (0)
 -->
<!-- Title: /home/tcbuilder/buildAgent/work/df8e8cce5bebfd58/libajantv2/ajabase/system/mac/lockimpl.h Pages: 1 -->
<svg width="662pt" height="218pt"
 viewBox="0.00 0.00 662.00 218.00" xmlns="http://www.w3.org/2000/svg" xmlns:xlink="http://www.w3.org/1999/xlink">
<g id="graph0" class="graph" transform="scale(1 1) rotate(0) translate(4 214)">
<title>/home/tcbuilder/buildAgent/work/df8e8cce5bebfd58/libajantv2/ajabase/system/mac/lockimpl.h</title>
<polygon fill="white" stroke="transparent" points="-4,4 -4,-214 658,-214 658,4 -4,4"/>
<!-- Node1 -->
<g id="node1" class="node">
<title>Node1</title>
<g id="a_node1"><a xlink:title="Declares the AJALockImpl class.">
<polygon fill="#bfbfbf" stroke="black" points="169,-168.5 169,-209.5 357,-209.5 357,-168.5 169,-168.5"/>
<text text-anchor="start" x="177" y="-197.5" font-family="Helvetica,sans-Serif" font-size="10.00">/home/tcbuilder/buildAgent</text>
<text text-anchor="start" x="177" y="-186.5" font-family="Helvetica,sans-Serif" font-size="10.00">/work/df8e8cce5bebfd58/libajantv2</text>
<text text-anchor="middle" x="263" y="-175.5" font-family="Helvetica,sans-Serif" font-size="10.00">/ajabase/system/mac/lockimpl.h</text>
</a>
</g>
</g>
<!-- Node2 -->
<g id="node2" class="node">
<title>Node2</title>
<g id="a_node2"><a xlink:title=" ">
<polygon fill="white" stroke="#bfbfbf" points="122.5,-112.5 122.5,-131.5 185.5,-131.5 185.5,-112.5 122.5,-112.5"/>
<text text-anchor="middle" x="154" y="-119.5" font-family="Helvetica,sans-Serif" font-size="10.00">pthread.h</text>
</a>
</g>
</g>
<!-- Node1&#45;&gt;Node2 -->
<g id="edge1" class="edge">
<title>Node1&#45;&gt;Node2</title>
<path fill="none" stroke="midnightblue" d="M230.3,-168.5C213.26,-158.34 192.83,-146.16 177.4,-136.95"/>
<polygon fill="midnightblue" stroke="midnightblue" points="178.89,-133.77 168.51,-131.65 175.31,-139.78 178.89,-133.77"/>
</g>
<!-- Node3 -->
<g id="node3" class="node">
<title>Node3</title>
<g id="a_node3"><a xlink:href="../../dc/db2/system_8h.html" target="_top" xlink:title="System specific functions.">
<polygon fill="white" stroke="black" points="242,-112.5 242,-131.5 384,-131.5 384,-112.5 242,-112.5"/>
<text text-anchor="middle" x="313" y="-119.5" font-family="Helvetica,sans-Serif" font-size="10.00">ajabase/system/system.h</text>
</a>
</g>
</g>
<!-- Node1&#45;&gt;Node3 -->
<g id="edge2" class="edge">
<title>Node1&#45;&gt;Node3</title>
<path fill="none" stroke="midnightblue" d="M278,-168.5C285.08,-159.3 293.43,-148.44 300.21,-139.63"/>
<polygon fill="midnightblue" stroke="midnightblue" points="303.02,-141.71 306.34,-131.65 297.47,-137.44 303.02,-141.71"/>
</g>
<!-- Node11 -->
<g id="node11" class="node">
<title>Node11</title>
<g id="a_node11"><a xlink:href="../../dc/d54/common_8h.html" target="_top" xlink:title="Private include file for all ajabase sources.">
<polygon fill="white" stroke="black" points="117.5,-56.5 117.5,-75.5 272.5,-75.5 272.5,-56.5 117.5,-56.5"/>
<text text-anchor="middle" x="195" y="-63.5" font-family="Helvetica,sans-Serif" font-size="10.00">ajabase/common/common.h</text>
</a>
</g>
</g>
<!-- Node1&#45;&gt;Node11 -->
<g id="edge10" class="edge">
<title>Node1&#45;&gt;Node11</title>
<path fill="none" stroke="midnightblue" d="M251.92,-168.29C238.87,-145.06 217.38,-106.82 204.87,-84.56"/>
<polygon fill="midnightblue" stroke="midnightblue" points="207.77,-82.58 199.82,-75.57 201.67,-86.01 207.77,-82.58"/>
</g>
<!-- Node14 -->
<g id="node14" class="node">
<title>Node14</title>
<g id="a_node14"><a xlink:href="../../dd/d42/lock_8h.html" target="_top" xlink:title="Declares the AJALock class.">
<polygon fill="white" stroke="black" points="402,-112.5 402,-131.5 528,-131.5 528,-112.5 402,-112.5"/>
<text text-anchor="middle" x="465" y="-119.5" font-family="Helvetica,sans-Serif" font-size="10.00">ajabase/system/lock.h</text>
</a>
</g>
</g>
<!-- Node1&#45;&gt;Node14 -->
<g id="edge16" class="edge">
<title>Node1&#45;&gt;Node14</title>
<path fill="none" stroke="midnightblue" d="M323.61,-168.5C357.81,-157.49 399.41,-144.11 428.6,-134.71"/>
<polygon fill="midnightblue" stroke="midnightblue" points="429.93,-137.96 438.38,-131.57 427.78,-131.3 429.93,-137.96"/>
</g>
<!-- Node4 -->
<g id="node4" class="node">
<title>Node4</title>
<g id="a_node4"><a xlink:href="../../d4/d79/public_8h.html" target="_top" xlink:title="Master header for the ajabase library.">
<polygon fill="white" stroke="black" points="295,-56.5 295,-75.5 437,-75.5 437,-56.5 295,-56.5"/>
<text text-anchor="middle" x="366" y="-63.5" font-family="Helvetica,sans-Serif" font-size="10.00">ajabase/common/public.h</text>
</a>
</g>
</g>
<!-- Node3&#45;&gt;Node4 -->
<g id="edge3" class="edge">
<title>Node3&#45;&gt;Node4</title>
<path fill="none" stroke="midnightblue" d="M321.75,-112.08C329.47,-104.22 340.9,-92.57 350.22,-83.08"/>
<polygon fill="midnightblue" stroke="midnightblue" points="352.9,-85.34 357.41,-75.75 347.91,-80.44 352.9,-85.34"/>
</g>
<!-- Node5 -->
<g id="node5" class="node">
<title>Node5</title>
<g id="a_node5"><a xlink:href="../../db/db5/export_8h.html" target="_top" xlink:title="Declares system&#45;dependent import/export macros and libraries.">
<polygon fill="white" stroke="black" points="118,-0.5 118,-19.5 262,-19.5 262,-0.5 118,-0.5"/>
<text text-anchor="middle" x="190" y="-7.5" font-family="Helvetica,sans-Serif" font-size="10.00">ajabase/common/export.h</text>
</a>
</g>
</g>
<!-- Node4&#45;&gt;Node5 -->
<g id="edge4" class="edge">
<title>Node4&#45;&gt;Node5</title>
<path fill="none" stroke="midnightblue" d="M338.11,-56.44C308.25,-47.28 260.69,-32.69 227.54,-22.52"/>
<polygon fill="midnightblue" stroke="midnightblue" points="228.34,-19.1 217.76,-19.52 226.29,-25.8 228.34,-19.1"/>
</g>
<!-- Node6 -->
<g id="node6" class="node">
<title>Node6</title>
<g id="a_node6"><a xlink:title=" ">
<polygon fill="white" stroke="#bfbfbf" points="280,-0.5 280,-19.5 324,-19.5 324,-0.5 280,-0.5"/>
<text text-anchor="middle" x="302" y="-7.5" font-family="Helvetica,sans-Serif" font-size="10.00">string</text>
</a>
</g>
</g>
<!-- Node4&#45;&gt;Node6 -->
<g id="edge5" class="edge">
<title>Node4&#45;&gt;Node6</title>
<path fill="none" stroke="midnightblue" d="M355.72,-56.32C346.16,-48.26 331.72,-36.08 320.22,-26.37"/>
<polygon fill="midnightblue" stroke="midnightblue" points="322.37,-23.61 312.47,-19.83 317.86,-28.96 322.37,-23.61"/>
</g>
<!-- Node7 -->
<g id="node7" class="node">
<title>Node7</title>
<g id="a_node7"><a xlink:title=" ">
<polygon fill="white" stroke="#bfbfbf" points="408,-0.5 408,-19.5 440,-19.5 440,-0.5 408,-0.5"/>
<text text-anchor="middle" x="424" y="-7.5" font-family="Helvetica,sans-Serif" font-size="10.00">list</text>
</a>
</g>
</g>
<!-- Node4&#45;&gt;Node7 -->
<g id="edge6" class="edge">
<title>Node4&#45;&gt;Node7</title>
<path fill="none" stroke="midnightblue" d="M375.32,-56.32C383.89,-48.34 396.81,-36.31 407.19,-26.65"/>
<polygon fill="midnightblue" stroke="midnightblue" points="409.58,-29.21 414.51,-19.83 404.81,-24.09 409.58,-29.21"/>
</g>
<!-- Node8 -->
<g id="node8" class="node">
<title>Node8</title>
<g id="a_node8"><a xlink:title=" ">
<polygon fill="white" stroke="#bfbfbf" points="342.5,-0.5 342.5,-19.5 389.5,-19.5 389.5,-0.5 342.5,-0.5"/>
<text text-anchor="middle" x="366" y="-7.5" font-family="Helvetica,sans-Serif" font-size="10.00">vector</text>
</a>
</g>
</g>
<!-- Node4&#45;&gt;Node8 -->
<g id="edge7" class="edge">
<title>Node4&#45;&gt;Node8</title>
<path fill="none" stroke="midnightblue" d="M366,-56.08C366,-49.01 366,-38.86 366,-29.99"/>
<polygon fill="midnightblue" stroke="midnightblue" points="369.5,-29.75 366,-19.75 362.5,-29.75 369.5,-29.75"/>
</g>
<!-- Node9 -->
<g id="node9" class="node">
<title>Node9</title>
<g id="a_node9"><a xlink:title=" ">
<polygon fill="white" stroke="#bfbfbf" points="458,-0.5 458,-19.5 496,-19.5 496,-0.5 458,-0.5"/>
<text text-anchor="middle" x="477" y="-7.5" font-family="Helvetica,sans-Serif" font-size="10.00">map</text>
</a>
</g>
</g>
<!-- Node4&#45;&gt;Node9 -->
<g id="edge8" class="edge">
<title>Node4&#45;&gt;Node9</title>
<path fill="none" stroke="midnightblue" d="M383.83,-56.32C401.72,-47.62 429.48,-34.12 450.05,-24.11"/>
<polygon fill="midnightblue" stroke="midnightblue" points="451.75,-27.18 459.21,-19.65 448.69,-20.88 451.75,-27.18"/>
</g>
<!-- Node10 -->
<g id="node10" class="node">
<title>Node10</title>
<g id="a_node10"><a xlink:href="../../d9/d49/types_8h.html" target="_top" xlink:title="Declares common types used in the ajabase library.">
<polygon fill="white" stroke="black" points="514,-0.5 514,-19.5 654,-19.5 654,-0.5 514,-0.5"/>
<text text-anchor="middle" x="584" y="-7.5" font-family="Helvetica,sans-Serif" font-size="10.00">ajabase/common/types.h</text>
</a>
</g>
</g>
<!-- Node4&#45;&gt;Node10 -->
<g id="edge9" class="edge">
<title>Node4&#45;&gt;Node10</title>
<path fill="none" stroke="midnightblue" d="M400.54,-56.44C438.25,-47.1 498.74,-32.12 539.86,-21.93"/>
<polygon fill="midnightblue" stroke="midnightblue" points="540.75,-25.32 549.62,-19.52 539.07,-18.52 540.75,-25.32"/>
</g>
<!-- Node11&#45;&gt;Node5 -->
<g id="edge11" class="edge">
<title>Node11&#45;&gt;Node5</title>
<path fill="none" stroke="midnightblue" d="M194.17,-56.08C193.52,-49.01 192.58,-38.86 191.76,-29.99"/>
<polygon fill="midnightblue" stroke="midnightblue" points="195.22,-29.39 190.81,-19.75 188.25,-30.03 195.22,-29.39"/>
</g>
<!-- Node11&#45;&gt;Node6 -->
<g id="edge13" class="edge">
<title>Node11&#45;&gt;Node6</title>
<path fill="none" stroke="midnightblue" d="M212.19,-56.32C229.35,-47.66 255.95,-34.24 275.75,-24.25"/>
<polygon fill="midnightblue" stroke="midnightblue" points="277.5,-27.28 284.85,-19.65 274.35,-21.04 277.5,-27.28"/>
</g>
<!-- Node11&#45;&gt;Node8 -->
<g id="edge14" class="edge">
<title>Node11&#45;&gt;Node8</title>
<path fill="none" stroke="midnightblue" d="M222.1,-56.44C252.01,-47 300.19,-31.78 332.46,-21.59"/>
<polygon fill="midnightblue" stroke="midnightblue" points="333.85,-24.82 342.34,-18.47 331.75,-18.15 333.85,-24.82"/>
</g>
<!-- Node12 -->
<g id="node12" class="node">
<title>Node12</title>
<g id="a_node12"><a xlink:title=" ">
<polygon fill="white" stroke="#bfbfbf" points="0,-0.5 0,-19.5 32,-19.5 32,-0.5 0,-0.5"/>
<text text-anchor="middle" x="16" y="-7.5" font-family="Helvetica,sans-Serif" font-size="10.00">set</text>
</a>
</g>
</g>
<!-- Node11&#45;&gt;Node12 -->
<g id="edge12" class="edge">
<title>Node11&#45;&gt;Node12</title>
<path fill="none" stroke="midnightblue" d="M163.56,-56.42C134.27,-48.3 89.19,-35.45 41.63,-20.07"/>
<polygon fill="midnightblue" stroke="midnightblue" points="42.68,-16.73 32.09,-16.96 40.51,-23.38 42.68,-16.73"/>
</g>
<!-- Node13 -->
<g id="node13" class="node">
<title>Node13</title>
<g id="a_node13"><a xlink:title=" ">
<polygon fill="white" stroke="#bfbfbf" points="50,-0.5 50,-19.5 100,-19.5 100,-0.5 50,-0.5"/>
<text text-anchor="middle" x="75" y="-7.5" font-family="Helvetica,sans-Serif" font-size="10.00">cstdint</text>
</a>
</g>
</g>
<!-- Node11&#45;&gt;Node13 -->
<g id="edge15" class="edge">
<title>Node11&#45;&gt;Node13</title>
<path fill="none" stroke="midnightblue" d="M175.99,-56.44C156.41,-47.64 125.69,-33.81 103.27,-23.72"/>
<polygon fill="midnightblue" stroke="midnightblue" points="104.48,-20.43 93.93,-19.52 101.61,-26.81 104.48,-20.43"/>
</g>
<!-- Node14&#45;&gt;Node4 -->
<g id="edge17" class="edge">
<title>Node14&#45;&gt;Node4</title>
<path fill="none" stroke="midnightblue" d="M449.09,-112.32C433.36,-103.74 409.06,-90.49 390.79,-80.52"/>
<polygon fill="midnightblue" stroke="midnightblue" points="392.32,-77.37 381.87,-75.65 388.97,-83.52 392.32,-77.37"/>
</g>
<!-- Node15 -->
<g id="node15" class="node">
<title>Node15</title>
<g id="a_node15"><a xlink:title=" ">
<polygon fill="white" stroke="#bfbfbf" points="455,-56.5 455,-75.5 511,-75.5 511,-56.5 455,-56.5"/>
<text text-anchor="middle" x="483" y="-63.5" font-family="Helvetica,sans-Serif" font-size="10.00">assert.h</text>
</a>
</g>
</g>
<!-- Node14&#45;&gt;Node15 -->
<g id="edge18" class="edge">
<title>Node14&#45;&gt;Node15</title>
<path fill="none" stroke="midnightblue" d="M467.97,-112.08C470.38,-104.85 473.86,-94.41 476.87,-85.4"/>
<polygon fill="midnightblue" stroke="midnightblue" points="480.24,-86.34 480.08,-75.75 473.6,-84.13 480.24,-86.34"/>
</g>
</g>
</svg>
