<?xml version="1.0" encoding="UTF-8" standalone="no"?>
<!DOCTYPE svg PUBLIC "-//W3C//DTD SVG 1.1//EN"
 "http://www.w3.org/Graphics/SVG/1.1/DTD/svg11.dtd">
<!-- Generated by graphviz version 2.43.0 (0)
 -->
<!-- Title: /home/tcbuilder/buildAgent/work/df8e8cce5bebfd58/libajantv2/demos/ntv2fieldburn Pages: 1 -->
<svg width="122pt" height="223pt"
 viewBox="0.00 0.00 122.00 223.00" xmlns="http://www.w3.org/2000/svg" xmlns:xlink="http://www.w3.org/1999/xlink">
<g id="graph0" class="graph" transform="scale(1 1) rotate(0) translate(4 219)">
<title>/home/tcbuilder/buildAgent/work/df8e8cce5bebfd58/libajantv2/demos/ntv2fieldburn</title>
<polygon fill="white" stroke="transparent" points="-4,4 -4,-219 118,-219 118,4 -4,4"/>
<g id="clust1" class="cluster">
<title>clusterdir_957939c99aa964633a97cef056d70db5</title>
<g id="a_clust1"><a xlink:href="dir_957939c99aa964633a97cef056d70db5.html" target="_top" xlink:title="demos">
<polygon fill="#ddddee" stroke="black" points="8,-136 8,-207 106,-207 106,-136 8,-136"/>
<text text-anchor="middle" x="57" y="-195" font-family="Helvetica,sans-Serif" font-size="10.00">demos</text>
</a>
</g>
</g>
<!-- dir_257b0a5f3907caea087e65714b81641f -->
<g id="node1" class="node">
<title>dir_257b0a5f3907caea087e65714b81641f</title>
<g id="a_node1"><a xlink:href="dir_257b0a5f3907caea087e65714b81641f.html" target="_top" xlink:title="ntv2fieldburn">
<polygon fill="#eeeeff" stroke="black" points="97.5,-180 16.5,-180 16.5,-144 97.5,-144 97.5,-180"/>
<text text-anchor="middle" x="57" y="-159.5" font-family="Helvetica,sans-Serif" font-size="10.00">ntv2fieldburn</text>
</a>
</g>
</g>
<!-- dir_e87eb6ce74e63cd1183c59eb94e728a6 -->
<g id="node2" class="node">
<title>dir_e87eb6ce74e63cd1183c59eb94e728a6</title>
<g id="a_node2"><a xlink:href="dir_e87eb6ce74e63cd1183c59eb94e728a6.html" target="_top" xlink:title="ajabase">
<polygon fill="white" stroke="red" points="56.5,-108 1.5,-108 1.5,-72 56.5,-72 56.5,-108"/>
<text text-anchor="middle" x="29" y="-87.5" font-family="Helvetica,sans-Serif" font-size="10.00">ajabase</text>
</a>
</g>
</g>
<!-- dir_257b0a5f3907caea087e65714b81641f&#45;&gt;dir_e87eb6ce74e63cd1183c59eb94e728a6 -->
<g id="edge1" class="edge">
<title>dir_257b0a5f3907caea087e65714b81641f&#45;&gt;dir_e87eb6ce74e63cd1183c59eb94e728a6</title>
<path fill="none" stroke="black" d="M50.08,-143.7C46.93,-135.81 43.12,-126.3 39.62,-117.55"/>
<polygon fill="black" stroke="black" points="42.81,-116.09 35.84,-108.1 36.31,-118.69 42.81,-116.09"/>
<g id="a_edge1&#45;headlabel"><a xlink:href="dir_000039_000007.html" target="_top" xlink:title="7">
<text text-anchor="middle" x="46.78" y="-115.87" font-family="Helvetica,sans-Serif" font-size="10.00">7</text>
</a>
</g>
</g>
<!-- dir_dcc334097b934f5294dca7e33f0e0621 -->
<g id="node3" class="node">
<title>dir_dcc334097b934f5294dca7e33f0e0621</title>
<g id="a_node3"><a xlink:href="dir_dcc334097b934f5294dca7e33f0e0621.html" target="_top" xlink:title="ajantv2">
<polygon fill="white" stroke="red" points="56,-36 2,-36 2,0 56,0 56,-36"/>
<text text-anchor="middle" x="29" y="-15.5" font-family="Helvetica,sans-Serif" font-size="10.00">ajantv2</text>
</a>
</g>
</g>
<!-- dir_257b0a5f3907caea087e65714b81641f&#45;&gt;dir_dcc334097b934f5294dca7e33f0e0621 -->
<g id="edge2" class="edge">
<title>dir_257b0a5f3907caea087e65714b81641f&#45;&gt;dir_dcc334097b934f5294dca7e33f0e0621</title>
<path fill="none" stroke="black" d="M62.71,-143.86C67.87,-125.63 73.6,-96.15 66,-72 62.9,-62.15 57.25,-52.53 51.28,-44.25"/>
<polygon fill="black" stroke="black" points="53.91,-41.94 45.04,-36.15 48.37,-46.21 53.91,-41.94"/>
<g id="a_edge2&#45;headlabel"><a xlink:href="dir_000039_000018.html" target="_top" xlink:title="3">
<text text-anchor="middle" x="58.36" y="-40.55" font-family="Helvetica,sans-Serif" font-size="10.00">3</text>
</a>
</g>
</g>
<!-- dir_e87eb6ce74e63cd1183c59eb94e728a6&#45;&gt;dir_dcc334097b934f5294dca7e33f0e0621 -->
<g id="edge3" class="edge">
<title>dir_e87eb6ce74e63cd1183c59eb94e728a6&#45;&gt;dir_dcc334097b934f5294dca7e33f0e0621</title>
<path fill="none" stroke="black" d="M23.08,-71.7C22.29,-63.98 22.06,-54.71 22.4,-46.11"/>
<polygon fill="black" stroke="black" points="25.9,-46.32 23.1,-36.1 18.92,-45.84 25.9,-46.32"/>
<g id="a_edge3&#45;headlabel"><a xlink:href="dir_000007_000018.html" target="_top" xlink:title="1">
<text text-anchor="middle" x="28.48" y="-47.61" font-family="Helvetica,sans-Serif" font-size="10.00">1</text>
</a>
</g>
</g>
<!-- dir_dcc334097b934f5294dca7e33f0e0621&#45;&gt;dir_e87eb6ce74e63cd1183c59eb94e728a6 -->
<g id="edge4" class="edge">
<title>dir_dcc334097b934f5294dca7e33f0e0621&#45;&gt;dir_e87eb6ce74e63cd1183c59eb94e728a6</title>
<path fill="none" stroke="black" d="M34.9,-36.1C35.7,-43.79 35.94,-53.05 35.6,-61.67"/>
<polygon fill="black" stroke="black" points="32.11,-61.48 34.92,-71.7 39.09,-61.96 32.11,-61.48"/>
<g id="a_edge4&#45;headlabel"><a xlink:href="dir_000018_000007.html" target="_top" xlink:title="71">
<text text-anchor="middle" x="29.52" y="-55.2" font-family="Helvetica,sans-Serif" font-size="10.00">71</text>
</a>
</g>
</g>
</g>
</svg>
