<?xml version="1.0" encoding="UTF-8" standalone="no"?>
<!DOCTYPE svg PUBLIC "-//W3C//DTD SVG 1.1//EN"
 "http://www.w3.org/Graphics/SVG/1.1/DTD/svg11.dtd">
<!-- Generated by graphviz version 2.43.0 (0)
 -->
<!-- Title: Graphical Class Hierarchy Pages: 1 -->
<svg width="217pt" height="104pt"
 viewBox="0.00 0.00 217.00 104.00" xmlns="http://www.w3.org/2000/svg" xmlns:xlink="http://www.w3.org/1999/xlink">
<g id="graph0" class="graph" transform="scale(1 1) rotate(0) translate(4 100)">
<title>Graphical Class Hierarchy</title>
<polygon fill="white" stroke="transparent" points="-4,4 -4,-100 213,-100 213,4 -4,4"/>
<!-- Node121 -->
<g id="node1" class="node">
<title>Node121</title>
<g id="a_node1"><a xlink:title=" ">
<polygon fill="white" stroke="#bfbfbf" points="0,-38.5 0,-57.5 56,-57.5 56,-38.5 0,-38.5"/>
<text text-anchor="middle" x="28" y="-45.5" font-family="Helvetica,sans-Serif" font-size="10.00">QDialog</text>
</a>
</g>
</g>
<!-- Node0 -->
<g id="node2" class="node">
<title>Node0</title>
<g id="a_node2"><a xlink:href="dc/d3f/class_n_t_v2_qt_multi_input.html" target="_top" xlink:title="I am a QDialog that displays, in a 4&#45;up (or 8&#45;up) layout, whatever video is present on each SDI input...">
<polygon fill="white" stroke="black" points="98.5,-76.5 98.5,-95.5 202.5,-95.5 202.5,-76.5 98.5,-76.5"/>
<text text-anchor="middle" x="150.5" y="-83.5" font-family="Helvetica,sans-Serif" font-size="10.00">NTV2QtMultiInput</text>
</a>
</g>
</g>
<!-- Node121&#45;&gt;Node0 -->
<g id="edge1" class="edge">
<title>Node121&#45;&gt;Node0</title>
<path fill="none" stroke="midnightblue" d="M65.71,-59.58C82.82,-64.97 102.93,-71.31 119.16,-76.43"/>
<polygon fill="midnightblue" stroke="midnightblue" points="66.63,-56.2 56.04,-56.53 64.53,-62.87 66.63,-56.2"/>
</g>
<!-- Node123 -->
<g id="node3" class="node">
<title>Node123</title>
<g id="a_node3"><a xlink:href="d9/dc2/class_n_t_v2_qt_preview.html" target="_top" xlink:title="I am a QDialog that displays whatever video is present on the SDI inputs of an AJA device....">
<polygon fill="white" stroke="black" points="104,-38.5 104,-57.5 197,-57.5 197,-38.5 104,-38.5"/>
<text text-anchor="middle" x="150.5" y="-45.5" font-family="Helvetica,sans-Serif" font-size="10.00">NTV2QtPreview</text>
</a>
</g>
</g>
<!-- Node121&#45;&gt;Node123 -->
<g id="edge2" class="edge">
<title>Node121&#45;&gt;Node123</title>
<path fill="none" stroke="midnightblue" d="M66.05,-48C77.92,-48 91.2,-48 103.62,-48"/>
<polygon fill="midnightblue" stroke="midnightblue" points="66.04,-44.5 56.04,-48 66.04,-51.5 66.04,-44.5"/>
</g>
<!-- Node124 -->
<g id="node4" class="node">
<title>Node124</title>
<g id="a_node4"><a xlink:href="d5/dff/class_n_t_v2_stream_preview.html" target="_top" xlink:title="I am a QDialog that displays whatever video is present on the SDI inputs of an AJA streaming device....">
<polygon fill="white" stroke="black" points="92,-0.5 92,-19.5 209,-19.5 209,-0.5 92,-0.5"/>
<text text-anchor="middle" x="150.5" y="-7.5" font-family="Helvetica,sans-Serif" font-size="10.00">NTV2StreamPreview</text>
</a>
</g>
</g>
<!-- Node121&#45;&gt;Node124 -->
<g id="edge3" class="edge">
<title>Node121&#45;&gt;Node124</title>
<path fill="none" stroke="midnightblue" d="M65.71,-36.42C82.82,-31.03 102.93,-24.69 119.16,-19.57"/>
<polygon fill="midnightblue" stroke="midnightblue" points="64.53,-33.13 56.04,-39.47 66.63,-39.8 64.53,-33.13"/>
</g>
</g>
</svg>
