<?xml version="1.0" encoding="UTF-8" standalone="no"?>
<!DOCTYPE svg PUBLIC "-//W3C//DTD SVG 1.1//EN"
 "http://www.w3.org/Graphics/SVG/1.1/DTD/svg11.dtd">
<!-- Generated by graphviz version 2.40.1 (0)
 -->
<!-- Title: KSPROPERTY_AJAPROPS_MAPMEMORY_S Pages: 1 -->
<svg width="152pt" height="106pt"
 viewBox="0.00 0.00 152.00 106.00" xmlns="http://www.w3.org/2000/svg" xmlns:xlink="http://www.w3.org/1999/xlink">
<g id="graph0" class="graph" transform="scale(1 1) rotate(0) translate(4 102)">
<title>KSPROPERTY_AJAPROPS_MAPMEMORY_S</title>
<polygon fill="#ffffff" stroke="transparent" points="-4,4 -4,-102 148,-102 148,4 -4,4"/>
<!-- Node1 -->
<g id="node1" class="node">
<title>Node1</title>
<polygon fill="#bfbfbf" stroke="#000000" points="0,-.5 0,-30.5 144,-30.5 144,-.5 0,-.5"/>
<text text-anchor="start" x="8" y="-18.5" font-family="Helvetica,sans-Serif" font-size="10.00" fill="#000000">KSPROPERTY_AJAPROPS</text>
<text text-anchor="middle" x="72" y="-7.5" font-family="Helvetica,sans-Serif" font-size="10.00" fill="#000000">_MAPMEMORY_S</text>
</g>
<!-- Node2 -->
<g id="node2" class="node">
<title>Node2</title>
<g id="a_node2"><a xlink:href="../../d4/db6/struct___m_a_p___m_e_m_o_r_y.html" target="_top" xlink:title="_MAP_MEMORY">
<polygon fill="#ffffff" stroke="#000000" points="25.5,-78.5 25.5,-97.5 118.5,-97.5 118.5,-78.5 25.5,-78.5"/>
<text text-anchor="middle" x="72" y="-85.5" font-family="Helvetica,sans-Serif" font-size="10.00" fill="#000000">_MAP_MEMORY</text>
</a>
</g>
</g>
<!-- Node2&#45;&gt;Node1 -->
<g id="edge1" class="edge">
<title>Node2&#45;&gt;Node1</title>
<path fill="none" stroke="#9a32cd" stroke-dasharray="5,2" d="M72,-68.0177C72,-56.2164 72,-41.513 72,-30.668"/>
<polygon fill="#9a32cd" stroke="#9a32cd" points="68.5001,-68.2223 72,-78.2223 75.5001,-68.2224 68.5001,-68.2223"/>
<text text-anchor="middle" x="101" y="-52" font-family="Helvetica,sans-Serif" font-size="10.00" fill="#000000"> mapMemory</text>
</g>
</g>
</svg>
