<?xml version="1.0" encoding="UTF-8" standalone="no"?>
<!DOCTYPE svg PUBLIC "-//W3C//DTD SVG 1.1//EN"
 "http://www.w3.org/Graphics/SVG/1.1/DTD/svg11.dtd">
<!-- Generated by graphviz version 2.43.0 (0)
 -->
<!-- Title: KSPROPERTY_AJAPROPS_AUTOCIRC_TRANSFER_S Pages: 1 -->
<!--zoomable 170 -->
<svg id="main" version="1.1" xmlns="http://www.w3.org/2000/svg" xmlns:xlink="http://www.w3.org/1999/xlink" xml:space="preserve" onload="init(evt)">
<style type="text/css"><![CDATA[
.edge:hover path { stroke: red; }
.edge:hover polygon { stroke: red; fill: red; }
]]></style>
<script type="text/javascript"><![CDATA[
var edges = document.getElementsByTagName('g');
if (edges && edges.length) {
  for (var i=0;i<edges.length;i++) {
    if (edges[i].id.substr(0,4)=='edge') {
      edges[i].setAttribute('class','edge');
    }
  }
}
]]></script>
        <defs>
                <circle id="rim" cx="0" cy="0" r="7"/>
                <circle id="rim2" cx="0" cy="0" r="3.5"/>
                <g id="zoomPlus">
                        <use xlink:href="#rim" fill="#404040">
                                <set attributeName="fill" to="#808080" begin="zoomplus.mouseover" end="zoomplus.mouseout"/>
                        </use>
                        <path d="M-4,0h8M0,-4v8" fill="none" stroke="white" stroke-width="1.5" pointer-events="none"/>
                </g>
                <g id="zoomMin">
                        <use xlink:href="#rim" fill="#404040">
                                <set attributeName="fill" to="#808080" begin="zoomminus.mouseover" end="zoomminus.mouseout"/>
                        </use>
                        <path d="M-4,0h8" fill="none" stroke="white" stroke-width="1.5" pointer-events="none"/>
                </g>
                <g id="dirArrow">
                        <path fill="none" stroke="white" stroke-width="1.5" d="M0,-3.0v7 M-2.5,-0.5L0,-3.0L2.5,-0.5"/>
                </g>
               <g id="resetDef">
                       <use xlink:href="#rim2" fill="#404040">
                               <set attributeName="fill" to="#808080" begin="reset.mouseover" end="reset.mouseout"/>
                       </use>
               </g>
        </defs>

<script type="text/javascript">
var viewWidth = 913;
var viewHeight = 170;
var sectionId = 'dynsection-0';
</script>
<script xlink:href="../../svgpan.js"/>
<svg id="graph" class="graph">
<g id="viewport">
<title>KSPROPERTY_AJAPROPS_AUTOCIRC_TRANSFER_S</title>
<polygon fill="white" stroke="transparent" points="-4,4 -4,-165.5 909,-165.5 909,4 -4,4"/>
<!-- Node1 -->
<g id="node1" class="node">
<title>Node1</title>
<g id="a_node1"><a xlink:title=" ">
<polygon fill="#bfbfbf" stroke="black" points="764,-96 764,-126 905,-126 905,-96 764,-96"/>
<text text-anchor="start" x="772" y="-114" font-family="Helvetica,sans-Serif" font-size="10.00">KSPROPERTY_AJAPROPS</text>
<text text-anchor="middle" x="834.5" y="-103" font-family="Helvetica,sans-Serif" font-size="10.00">_AUTOCIRC_TRANSFER_S</text>
</a>
</g>
</g>
<!-- Node2 -->
<g id="node2" class="node">
<title>Node2</title>
<g id="a_node2"><a xlink:href="../../d0/dee/struct_a_u_t_o_c_i_r_c_u_l_a_t_e___t_r_a_n_s_f_e_r___s_t_r_u_c_t.html" target="_top" xlink:title=" ">
<polygon fill="white" stroke="black" points="270,-69 270,-99 426,-99 426,-69 270,-69"/>
<text text-anchor="start" x="278" y="-87" font-family="Helvetica,sans-Serif" font-size="10.00">AUTOCIRCULATE_TRANSFER</text>
<text text-anchor="middle" x="348" y="-76" font-family="Helvetica,sans-Serif" font-size="10.00">_STRUCT</text>
</a>
</g>
</g>
<!-- Node2&#45;&gt;Node1 -->
<g id="edge1" class="edge">
<title>Node2&#45;&gt;Node1</title>
<path fill="none" stroke="#9a32cd" stroke-dasharray="5,2" d="M436.08,-88.85C529.91,-94.08 677.39,-102.3 763.85,-107.12"/>
<polygon fill="#9a32cd" stroke="#9a32cd" points="436.22,-85.36 426.04,-88.29 435.83,-92.34 436.22,-85.36"/>
<text text-anchor="middle" x="604" y="-105" font-family="Helvetica,sans-Serif" font-size="10.00"> acTransfer</text>
</g>
<!-- Node3 -->
<g id="node3" class="node">
<title>Node3</title>
<g id="a_node3"><a xlink:href="../../d6/d30/struct_n_t_v2_color_correction_info.html" target="_top" xlink:title=" ">
<polygon fill="white" stroke="black" points="0,-76.5 0,-95.5 137,-95.5 137,-76.5 0,-76.5"/>
<text text-anchor="middle" x="68.5" y="-83.5" font-family="Helvetica,sans-Serif" font-size="10.00">NTV2ColorCorrectionInfo</text>
</a>
</g>
</g>
<!-- Node3&#45;&gt;Node2 -->
<g id="edge2" class="edge">
<title>Node3&#45;&gt;Node2</title>
<path fill="none" stroke="#9a32cd" stroke-dasharray="5,2" d="M147.29,-85.07C149.89,-85.04 152.47,-85.02 155,-85 192.83,-84.68 234.86,-84.45 269.92,-84.29"/>
<polygon fill="#9a32cd" stroke="#9a32cd" points="147.14,-81.57 137.17,-85.17 147.21,-88.57 147.14,-81.57"/>
<text text-anchor="middle" x="203.5" y="-88" font-family="Helvetica,sans-Serif" font-size="10.00"> colorCorrectionInfo</text>
</g>
<!-- Node4 -->
<g id="node4" class="node">
<title>Node4</title>
<g id="a_node4"><a xlink:href="../../d3/d95/struct_r_p188___s_t_r_u_c_t.html" target="_top" xlink:title=" ">
<polygon fill="white" stroke="black" points="22.5,-127.5 22.5,-146.5 114.5,-146.5 114.5,-127.5 22.5,-127.5"/>
<text text-anchor="middle" x="68.5" y="-134.5" font-family="Helvetica,sans-Serif" font-size="10.00">RP188_STRUCT</text>
</a>
</g>
</g>
<!-- Node4&#45;&gt;Node2 -->
<g id="edge3" class="edge">
<title>Node4&#45;&gt;Node2</title>
<path fill="none" stroke="#9a32cd" stroke-dasharray="5,2" d="M124.64,-126.47C166.19,-118.53 223.69,-107.55 269.81,-98.74"/>
<polygon fill="#9a32cd" stroke="#9a32cd" points="123.87,-123.05 114.7,-128.37 125.18,-129.93 123.87,-123.05"/>
<text text-anchor="middle" x="203.5" y="-122" font-family="Helvetica,sans-Serif" font-size="10.00"> rp188</text>
</g>
<!-- Node8 -->
<g id="node8" class="node">
<title>Node8</title>
<g id="a_node8"><a xlink:href="../../d8/d37/struct_f_r_a_m_e___s_t_a_m_p___s_t_r_u_c_t.html" target="_top" xlink:title=" ">
<polygon fill="white" stroke="black" points="281,-140.5 281,-159.5 415,-159.5 415,-140.5 281,-140.5"/>
<text text-anchor="middle" x="348" y="-147.5" font-family="Helvetica,sans-Serif" font-size="10.00">FRAME_STAMP_STRUCT</text>
</a>
</g>
</g>
<!-- Node4&#45;&gt;Node8 -->
<g id="edge8" class="edge">
<title>Node4&#45;&gt;Node8</title>
<path fill="none" stroke="#9a32cd" stroke-dasharray="5,2" d="M124.85,-139.59C169.76,-141.7 233.22,-144.67 280.82,-146.9"/>
<polygon fill="#9a32cd" stroke="#9a32cd" points="124.86,-136.09 114.7,-139.12 124.53,-143.08 124.86,-136.09"/>
<text text-anchor="middle" x="203.5" y="-148" font-family="Helvetica,sans-Serif" font-size="10.00"> currentRP188</text>
</g>
<!-- Node5 -->
<g id="node5" class="node">
<title>Node5</title>
<g id="a_node5"><a xlink:href="../../d3/d14/struct_auto_circ_vid_proc_info.html" target="_top" xlink:title=" ">
<polygon fill="white" stroke="black" points="12,-0.5 12,-19.5 125,-19.5 125,-0.5 12,-0.5"/>
<text text-anchor="middle" x="68.5" y="-7.5" font-family="Helvetica,sans-Serif" font-size="10.00">AutoCircVidProcInfo</text>
</a>
</g>
</g>
<!-- Node5&#45;&gt;Node2 -->
<g id="edge4" class="edge">
<title>Node5&#45;&gt;Node2</title>
<path fill="none" stroke="#9a32cd" stroke-dasharray="5,2" d="M135.16,-17.58C170.3,-22.62 214.04,-30.47 252,-42 274.78,-48.92 299.32,-59.87 317.76,-68.85"/>
<polygon fill="#9a32cd" stroke="#9a32cd" points="135.41,-14.09 125.02,-16.17 134.44,-21.02 135.41,-14.09"/>
<text text-anchor="middle" x="203.5" y="-45" font-family="Helvetica,sans-Serif" font-size="10.00"> vidProcInfo</text>
</g>
<!-- Node6 -->
<g id="node6" class="node">
<title>Node6</title>
<g id="a_node6"><a xlink:href="../../d5/dd5/struct_c_u_s_t_o_m___a_n_c___s_t_r_u_c_t.html" target="_top" xlink:title=" ">
<polygon fill="white" stroke="black" points="3.5,-38.5 3.5,-57.5 133.5,-57.5 133.5,-38.5 3.5,-38.5"/>
<text text-anchor="middle" x="68.5" y="-45.5" font-family="Helvetica,sans-Serif" font-size="10.00">CUSTOM_ANC_STRUCT</text>
</a>
</g>
</g>
<!-- Node6&#45;&gt;Node2 -->
<g id="edge5" class="edge">
<title>Node6&#45;&gt;Node2</title>
<path fill="none" stroke="#9a32cd" stroke-dasharray="5,2" d="M143.84,-55.84C176.99,-59.52 216.49,-64.16 252,-69 257.79,-69.79 263.77,-70.64 269.79,-71.53"/>
<polygon fill="#9a32cd" stroke="#9a32cd" points="144.1,-52.35 133.77,-54.73 143.33,-59.3 144.1,-52.35"/>
<text text-anchor="middle" x="203.5" y="-72" font-family="Helvetica,sans-Serif" font-size="10.00"> customAncInfo</text>
</g>
<!-- Node7 -->
<g id="node7" class="node">
<title>Node7</title>
<g id="a_node7"><a xlink:href="../../d7/d19/struct_a_u_t_o_c_i_r_c_u_l_a_t_e___t_r_a_n_s_f_e_r___s_t_a_t_u_s___s_t_r_u_c_t.html" target="_top" xlink:title=" ">
<polygon fill="white" stroke="black" points="526,-131 526,-161 682,-161 682,-131 526,-131"/>
<text text-anchor="start" x="534" y="-149" font-family="Helvetica,sans-Serif" font-size="10.00">AUTOCIRCULATE_TRANSFER</text>
<text text-anchor="middle" x="604" y="-138" font-family="Helvetica,sans-Serif" font-size="10.00">_STATUS_STRUCT</text>
</a>
</g>
</g>
<!-- Node7&#45;&gt;Node1 -->
<g id="edge6" class="edge">
<title>Node7&#45;&gt;Node1</title>
<path fill="none" stroke="#9a32cd" stroke-dasharray="5,2" d="M692.08,-132.66C715.77,-129.03 741.11,-125.15 763.71,-121.69"/>
<polygon fill="#9a32cd" stroke="#9a32cd" points="691.4,-129.23 682.04,-134.2 692.46,-136.14 691.4,-129.23"/>
<text text-anchor="middle" x="723" y="-133" font-family="Helvetica,sans-Serif" font-size="10.00"> acStatus</text>
</g>
<!-- Node8&#45;&gt;Node7 -->
<g id="edge7" class="edge">
<title>Node8&#45;&gt;Node7</title>
<path fill="none" stroke="#9a32cd" stroke-dasharray="5,2" d="M425.23,-148.8C457.09,-148.3 494.05,-147.72 526,-147.21"/>
<polygon fill="#9a32cd" stroke="#9a32cd" points="425.02,-145.3 415.07,-148.96 425.13,-152.3 425.02,-145.3"/>
<text text-anchor="middle" x="476" y="-151" font-family="Helvetica,sans-Serif" font-size="10.00"> frameStamp</text>
</g>
</g>
</svg>
        <g id="navigator" transform="translate(0 0)" fill="#404254">
                <rect fill="#f2f5e9" fill-opacity="0.5" stroke="#606060" stroke-width=".5" x="0" y="0" width="60" height="60"/>
                <use id="zoomplus" xlink:href="#zoomPlus" x="17" y="9" onmousedown="handleZoom(evt,'in')"/>
                <use id="zoomminus" xlink:href="#zoomMin" x="42" y="9" onmousedown="handleZoom(evt,'out')"/>
                <use id="reset" xlink:href="#resetDef" x="30" y="36" onmousedown="handleReset()"/>
                <g id="arrowUp" xlink:href="#dirArrow" transform="translate(30 24)" onmousedown="handlePan(0,-1)">
                  <use xlink:href="#rim" fill="#404040">
                        <set attributeName="fill" to="#808080" begin="arrowUp.mouseover" end="arrowUp.mouseout"/>
                  </use>
                  <path fill="none" stroke="white" stroke-width="1.5" d="M0,-3.0v7 M-2.5,-0.5L0,-3.0L2.5,-0.5"/>
                </g>
                <g id="arrowRight" xlink:href="#dirArrow" transform="rotate(90) translate(36 -43)" onmousedown="handlePan(1,0)">
                  <use xlink:href="#rim" fill="#404040">
                        <set attributeName="fill" to="#808080" begin="arrowRight.mouseover" end="arrowRight.mouseout"/>
                  </use>
                  <path fill="none" stroke="white" stroke-width="1.5" d="M0,-3.0v7 M-2.5,-0.5L0,-3.0L2.5,-0.5"/>
                </g>
                <g id="arrowDown" xlink:href="#dirArrow" transform="rotate(180) translate(-30 -48)" onmousedown="handlePan(0,1)">
                  <use xlink:href="#rim" fill="#404040">
                        <set attributeName="fill" to="#808080" begin="arrowDown.mouseover" end="arrowDown.mouseout"/>
                  </use>
                  <path fill="none" stroke="white" stroke-width="1.5" d="M0,-3.0v7 M-2.5,-0.5L0,-3.0L2.5,-0.5"/>
                </g>
                <g id="arrowLeft" xlink:href="#dirArrow" transform="rotate(270) translate(-36 17)" onmousedown="handlePan(-1,0)">
                  <use xlink:href="#rim" fill="#404040">
                        <set attributeName="fill" to="#808080" begin="arrowLeft.mouseover" end="arrowLeft.mouseout"/>
                  </use>
                  <path fill="none" stroke="white" stroke-width="1.5" d="M0,-3.0v7 M-2.5,-0.5L0,-3.0L2.5,-0.5"/>
                </g>
        </g>
        <svg viewBox="0 0 15 15" width="100%" height="30px" preserveAspectRatio="xMaxYMin meet">
         <g id="arrow_out" transform="scale(0.3 0.3)">
          <a xlink:href="struct_k_s_p_r_o_p_e_r_t_y___a_j_a_p_r_o_p_s___a_u_t_o_c_i_r_c___t_r_a_n_s_f_e_r___s__coll__graph_org.svg" target="_base">
           <rect id="button" ry="5" rx="5" y="6" x="6" height="38" width="38"
                fill="#f2f5e9" fill-opacity="0.5" stroke="#606060" stroke-width="1.0"/>
           <path id="arrow"
             d="M 11.500037,31.436501 C 11.940474,20.09759 22.043105,11.32322 32.158766,21.979434 L 37.068811,17.246167 C 37.068811,17.246167 37.088388,32 37.088388,32 L 22.160133,31.978069 C 22.160133,31.978069 26.997745,27.140456 26.997745,27.140456 C 18.528582,18.264221 13.291696,25.230495 11.500037,31.436501 z"
             style="fill:#404040;"/>
          </a>
         </g>
        </svg>
</svg>
