<?xml version="1.0" encoding="UTF-8" standalone="no"?>
<!DOCTYPE svg PUBLIC "-//W3C//DTD SVG 1.1//EN"
 "http://www.w3.org/Graphics/SVG/1.1/DTD/svg11.dtd">
<!-- Generated by graphviz version 2.40.1 (0)
 -->
<!-- Title: /home/tcbuilder/buildAgent/work/df8e8cce5bebfd58/libajantv2/demos/ntv2vcam/baseclasses/winctrl.cpp Pages: 1 -->
<svg width="3210pt" height="218pt"
 viewBox="0.00 0.00 3209.50 218.00" xmlns="http://www.w3.org/2000/svg" xmlns:xlink="http://www.w3.org/1999/xlink">
<g id="graph0" class="graph" transform="scale(1 1) rotate(0) translate(4 214)">
<title>/home/tcbuilder/buildAgent/work/df8e8cce5bebfd58/libajantv2/demos/ntv2vcam/baseclasses/winctrl.cpp</title>
<polygon fill="#ffffff" stroke="transparent" points="-4,4 -4,-214 3205.5,-214 3205.5,4 -4,4"/>
<!-- Node0 -->
<g id="node1" class="node">
<title>Node0</title>
<polygon fill="#bfbfbf" stroke="#000000" points="1468.5,-168.5 1468.5,-209.5 1671.5,-209.5 1671.5,-168.5 1468.5,-168.5"/>
<text text-anchor="start" x="1476.5" y="-197.5" font-family="Helvetica,sans-Serif" font-size="10.00" fill="#000000">/home/tcbuilder/buildAgent</text>
<text text-anchor="start" x="1476.5" y="-186.5" font-family="Helvetica,sans-Serif" font-size="10.00" fill="#000000">/work/df8e8cce5bebfd58/libajantv2</text>
<text text-anchor="middle" x="1570" y="-175.5" font-family="Helvetica,sans-Serif" font-size="10.00" fill="#000000">/demos/ntv2vcam/baseclasses/winctrl.cpp</text>
</g>
<!-- Node1 -->
<g id="node2" class="node">
<title>Node1</title>
<g id="a_node2"><a xlink:href="../../db/d8e/streams_8h.html" target="_top" xlink:title="streams.h">
<polygon fill="#ffffff" stroke="#000000" points="1540,-112.5 1540,-131.5 1600,-131.5 1600,-112.5 1540,-112.5"/>
<text text-anchor="middle" x="1570" y="-119.5" font-family="Helvetica,sans-Serif" font-size="10.00" fill="#000000">streams.h</text>
</a>
</g>
</g>
<!-- Node0&#45;&gt;Node1 -->
<g id="edge1" class="edge">
<title>Node0&#45;&gt;Node1</title>
<path fill="none" stroke="#191970" d="M1570,-168.168C1570,-159.8226 1570,-150.2471 1570,-141.9879"/>
<polygon fill="#191970" stroke="#191970" points="1573.5001,-141.7804 1570,-131.7805 1566.5001,-141.7805 1573.5001,-141.7804"/>
</g>
<!-- Node8 -->
<g id="node9" class="node">
<title>Node8</title>
<polygon fill="#ffffff" stroke="#bfbfbf" points="0,-56.5 0,-75.5 54,-75.5 54,-56.5 0,-56.5"/>
<text text-anchor="middle" x="27" y="-63.5" font-family="Helvetica,sans-Serif" font-size="10.00" fill="#000000">intsafe.h</text>
</g>
<!-- Node0&#45;&gt;Node8 -->
<g id="edge46" class="edge">
<title>Node0&#45;&gt;Node8</title>
<path fill="none" stroke="#191970" d="M1468.4066,-183.8892C1179.3539,-168.954 355.1442,-123.5304 64.4641,-75.7125"/>
<polygon fill="#191970" stroke="#191970" points="64.7927,-72.2187 54.3505,-74.0105 63.6309,-79.1216 64.7927,-72.2187"/>
</g>
<!-- Node46 -->
<g id="node47" class="node">
<title>Node46</title>
<g id="a_node47"><a xlink:href="../../df/de5/checkbmi_8h.html" target="_top" xlink:title="checkbmi.h">
<polygon fill="#ffffff" stroke="#000000" points="1618.5,-112.5 1618.5,-131.5 1685.5,-131.5 1685.5,-112.5 1618.5,-112.5"/>
<text text-anchor="middle" x="1652" y="-119.5" font-family="Helvetica,sans-Serif" font-size="10.00" fill="#000000">checkbmi.h</text>
</a>
</g>
</g>
<!-- Node0&#45;&gt;Node46 -->
<g id="edge47" class="edge">
<title>Node0&#45;&gt;Node46</title>
<path fill="none" stroke="#191970" d="M1595.4958,-168.168C1607.3346,-158.4949 1621.1959,-147.1692 1632.2267,-138.1562"/>
<polygon fill="#191970" stroke="#191970" points="1634.5006,-140.8181 1640.0299,-131.7805 1630.0715,-135.3974 1634.5006,-140.8181"/>
</g>
<!-- Node2 -->
<g id="node3" class="node">
<title>Node2</title>
<polygon fill="#ffffff" stroke="#bfbfbf" points="72.5,-56.5 72.5,-75.5 135.5,-75.5 135.5,-56.5 72.5,-56.5"/>
<text text-anchor="middle" x="104" y="-63.5" font-family="Helvetica,sans-Serif" font-size="10.00" fill="#000000">windows.h</text>
</g>
<!-- Node1&#45;&gt;Node2 -->
<g id="edge2" class="edge">
<title>Node1&#45;&gt;Node2</title>
<path fill="none" stroke="#191970" d="M1539.9888,-121.8766C1362.6086,-121.0208 449.107,-114.832 145.7579,-75.7522"/>
<polygon fill="#191970" stroke="#191970" points="146.0342,-72.2581 135.6597,-74.4078 145.1104,-79.1969 146.0342,-72.2581"/>
</g>
<!-- Node3 -->
<g id="node4" class="node">
<title>Node3</title>
<polygon fill="#ffffff" stroke="#bfbfbf" points="154,-56.5 154,-75.5 222,-75.5 222,-56.5 154,-56.5"/>
<text text-anchor="middle" x="188" y="-63.5" font-family="Helvetica,sans-Serif" font-size="10.00" fill="#000000">windowsx.h</text>
</g>
<!-- Node1&#45;&gt;Node3 -->
<g id="edge3" class="edge">
<title>Node1&#45;&gt;Node3</title>
<path fill="none" stroke="#191970" d="M1539.8594,-121.7601C1368.7531,-120.2791 517.4742,-111.2947 232.4621,-75.8985"/>
<polygon fill="#191970" stroke="#191970" points="232.5221,-72.3775 222.1575,-74.5741 231.6297,-79.3204 232.5221,-72.3775"/>
</g>
<!-- Node4 -->
<g id="node5" class="node">
<title>Node4</title>
<polygon fill="#ffffff" stroke="#bfbfbf" points="240,-56.5 240,-75.5 288,-75.5 288,-56.5 240,-56.5"/>
<text text-anchor="middle" x="264" y="-63.5" font-family="Helvetica,sans-Serif" font-size="10.00" fill="#000000">olectl.h</text>
</g>
<!-- Node1&#45;&gt;Node4 -->
<g id="edge4" class="edge">
<title>Node1&#45;&gt;Node4</title>
<path fill="none" stroke="#191970" d="M1539.8484,-121.3766C1363.1838,-117.6634 464.7141,-97.9266 298.6131,-75.6788"/>
<polygon fill="#191970" stroke="#191970" points="298.7491,-72.1602 288.3412,-74.1414 297.7129,-79.0831 298.7491,-72.1602"/>
</g>
<!-- Node5 -->
<g id="node6" class="node">
<title>Node5</title>
<polygon fill="#ffffff" stroke="#bfbfbf" points="306,-56.5 306,-75.5 356,-75.5 356,-56.5 306,-56.5"/>
<text text-anchor="middle" x="331" y="-63.5" font-family="Helvetica,sans-Serif" font-size="10.00" fill="#000000">ddraw.h</text>
</g>
<!-- Node1&#45;&gt;Node5 -->
<g id="edge5" class="edge">
<title>Node1&#45;&gt;Node5</title>
<path fill="none" stroke="#191970" d="M1539.9791,-121.861C1379.5712,-120.9675 621.6666,-114.8111 366.0628,-75.7177"/>
<polygon fill="#191970" stroke="#191970" points="366.5153,-72.2458 356.09,-74.1332 365.4169,-79.159 366.5153,-72.2458"/>
</g>
<!-- Node6 -->
<g id="node7" class="node">
<title>Node6</title>
<polygon fill="#ffffff" stroke="#bfbfbf" points="374,-56.5 374,-75.5 448,-75.5 448,-56.5 374,-56.5"/>
<text text-anchor="middle" x="411" y="-63.5" font-family="Helvetica,sans-Serif" font-size="10.00" fill="#000000">mmsystem.h</text>
</g>
<!-- Node1&#45;&gt;Node6 -->
<g id="edge6" class="edge">
<title>Node1&#45;&gt;Node6</title>
<path fill="none" stroke="#191970" d="M1539.8009,-121.4581C1386.7588,-118.606 695.1734,-104.4221 457.9972,-75.8715"/>
<polygon fill="#191970" stroke="#191970" points="458.4177,-72.3969 448.0613,-74.6323 457.5513,-79.3431 458.4177,-72.3969"/>
</g>
<!-- Node7 -->
<g id="node8" class="node">
<title>Node7</title>
<polygon fill="#ffffff" stroke="#bfbfbf" points="466,-56.5 466,-75.5 516,-75.5 516,-56.5 466,-56.5"/>
<text text-anchor="middle" x="491" y="-63.5" font-family="Helvetica,sans-Serif" font-size="10.00" fill="#000000">strmif.h</text>
</g>
<!-- Node1&#45;&gt;Node7 -->
<g id="edge7" class="edge">
<title>Node1&#45;&gt;Node7</title>
<path fill="none" stroke="#191970" d="M1539.6843,-121.6217C1389.9934,-119.608 728.8021,-108.9708 526,-76 525.8986,-75.9835 525.7972,-75.9668 525.6956,-75.95"/>
<polygon fill="#191970" stroke="#191970" points="526.5818,-72.5599 516.0753,-73.9252 525.14,-79.4098 526.5818,-72.5599"/>
</g>
<!-- Node1&#45;&gt;Node8 -->
<g id="edge8" class="edge">
<title>Node1&#45;&gt;Node8</title>
<path fill="none" stroke="#191970" d="M1539.6876,-121.4996C1343.5441,-118.2062 256.2332,-99.0957 64.2452,-75.4925"/>
<polygon fill="#191970" stroke="#191970" points="64.7077,-72.0233 54.3284,-74.1491 63.768,-78.9599 64.7077,-72.0233"/>
</g>
<!-- Node9 -->
<g id="node10" class="node">
<title>Node9</title>
<g id="a_node10"><a xlink:href="../../d5/def/reftime_8h.html" target="_top" xlink:title="reftime.h">
<polygon fill="#ffffff" stroke="#000000" points="534.5,-56.5 534.5,-75.5 589.5,-75.5 589.5,-56.5 534.5,-56.5"/>
<text text-anchor="middle" x="562" y="-63.5" font-family="Helvetica,sans-Serif" font-size="10.00" fill="#000000">reftime.h</text>
</a>
</g>
</g>
<!-- Node1&#45;&gt;Node9 -->
<g id="edge9" class="edge">
<title>Node1&#45;&gt;Node9</title>
<path fill="none" stroke="#191970" d="M1539.9406,-121.4529C1399.5741,-118.7663 807.1151,-105.9345 599.902,-75.7339"/>
<polygon fill="#191970" stroke="#191970" points="600.1534,-72.232 589.741,-74.1895 599.1015,-79.1525 600.1534,-72.232"/>
</g>
<!-- Node10 -->
<g id="node11" class="node">
<title>Node10</title>
<g id="a_node11"><a xlink:href="../../de/de4/wxdebug_8h.html" target="_top" xlink:title="wxdebug.h">
<polygon fill="#ffffff" stroke="#000000" points="608,-56.5 608,-75.5 672,-75.5 672,-56.5 608,-56.5"/>
<text text-anchor="middle" x="640" y="-63.5" font-family="Helvetica,sans-Serif" font-size="10.00" fill="#000000">wxdebug.h</text>
</a>
</g>
</g>
<!-- Node1&#45;&gt;Node10 -->
<g id="edge10" class="edge">
<title>Node1&#45;&gt;Node10</title>
<path fill="none" stroke="#191970" d="M1539.8288,-121.1995C1406.9024,-117.5583 872.0805,-101.6786 682.2403,-75.8711"/>
<polygon fill="#191970" stroke="#191970" points="682.509,-72.3743 672.1168,-74.4366 681.5268,-79.3051 682.509,-72.3743"/>
</g>
<!-- Node11 -->
<g id="node12" class="node">
<title>Node11</title>
<polygon fill="#ffffff" stroke="#bfbfbf" points="690,-56.5 690,-75.5 752,-75.5 752,-56.5 690,-56.5"/>
<text text-anchor="middle" x="721" y="-63.5" font-family="Helvetica,sans-Serif" font-size="10.00" fill="#000000">amvideo.h</text>
</g>
<!-- Node1&#45;&gt;Node11 -->
<g id="edge11" class="edge">
<title>Node1&#45;&gt;Node11</title>
<path fill="none" stroke="#191970" d="M1539.5832,-121.0376C1414.0032,-116.9481 934.7852,-100.1723 762.2692,-75.885"/>
<polygon fill="#191970" stroke="#191970" points="762.7324,-72.4155 752.3298,-74.4247 761.7148,-79.3412 762.7324,-72.4155"/>
</g>
<!-- Node12 -->
<g id="node13" class="node">
<title>Node12</title>
<g id="a_node13"><a xlink:href="../../d5/db0/wxutil_8h.html" target="_top" xlink:title="wxutil.h">
<polygon fill="#ffffff" stroke="#000000" points="770,-56.5 770,-75.5 820,-75.5 820,-56.5 770,-56.5"/>
<text text-anchor="middle" x="795" y="-63.5" font-family="Helvetica,sans-Serif" font-size="10.00" fill="#000000">wxutil.h</text>
</a>
</g>
</g>
<!-- Node1&#45;&gt;Node12 -->
<g id="edge12" class="edge">
<title>Node1&#45;&gt;Node12</title>
<path fill="none" stroke="#191970" d="M1539.7371,-120.9924C1418.8022,-116.831 970.0223,-100.0633 830,-76 829.8988,-75.9826 829.7975,-75.965 829.696,-75.9473"/>
<polygon fill="#191970" stroke="#191970" points="830.5984,-72.5616 820.0846,-73.8695 829.1193,-79.4035 830.5984,-72.5616"/>
</g>
<!-- Node13 -->
<g id="node14" class="node">
<title>Node13</title>
<g id="a_node14"><a xlink:href="../../de/de7/combase_8h.html" target="_top" xlink:title="combase.h">
<polygon fill="#ffffff" stroke="#000000" points="838.5,-56.5 838.5,-75.5 903.5,-75.5 903.5,-56.5 838.5,-56.5"/>
<text text-anchor="middle" x="871" y="-63.5" font-family="Helvetica,sans-Serif" font-size="10.00" fill="#000000">combase.h</text>
</a>
</g>
</g>
<!-- Node1&#45;&gt;Node13 -->
<g id="edge13" class="edge">
<title>Node1&#45;&gt;Node13</title>
<path fill="none" stroke="#191970" d="M1539.6818,-121.6395C1447.2145,-120.169 1160.5992,-112.8648 914.1396,-75.9285"/>
<polygon fill="#191970" stroke="#191970" points="914.3268,-72.4169 903.9145,-74.3754 913.2755,-79.3375 914.3268,-72.4169"/>
</g>
<!-- Node14 -->
<g id="node15" class="node">
<title>Node14</title>
<g id="a_node15"><a xlink:href="../../d6/d82/dllsetup_8h.html" target="_top" xlink:title="dllsetup.h">
<polygon fill="#ffffff" stroke="#000000" points="921.5,-56.5 921.5,-75.5 980.5,-75.5 980.5,-56.5 921.5,-56.5"/>
<text text-anchor="middle" x="951" y="-63.5" font-family="Helvetica,sans-Serif" font-size="10.00" fill="#000000">dllsetup.h</text>
</a>
</g>
</g>
<!-- Node1&#45;&gt;Node14 -->
<g id="edge14" class="edge">
<title>Node1&#45;&gt;Node14</title>
<path fill="none" stroke="#191970" d="M1539.8962,-121.433C1454.9602,-119.4493 1206.1775,-110.994 990.6132,-75.8165"/>
<polygon fill="#191970" stroke="#191970" points="991.1355,-72.3554 980.6982,-74.1755 989.9925,-79.2615 991.1355,-72.3554"/>
</g>
<!-- Node15 -->
<g id="node16" class="node">
<title>Node15</title>
<g id="a_node16"><a xlink:href="../../d1/d9c/measure_8h.html" target="_top" xlink:title="measure.h">
<polygon fill="#ffffff" stroke="#000000" points="999,-56.5 999,-75.5 1061,-75.5 1061,-56.5 999,-56.5"/>
<text text-anchor="middle" x="1030" y="-63.5" font-family="Helvetica,sans-Serif" font-size="10.00" fill="#000000">measure.h</text>
</a>
</g>
</g>
<!-- Node1&#45;&gt;Node15 -->
<g id="edge15" class="edge">
<title>Node1&#45;&gt;Node15</title>
<path fill="none" stroke="#191970" d="M1539.9229,-120.8404C1463.278,-117.5451 1254.3391,-106.4292 1071.416,-76.0175"/>
<polygon fill="#191970" stroke="#191970" points="1071.7896,-72.5311 1061.3468,-74.3192 1070.6254,-79.4336 1071.7896,-72.5311"/>
</g>
<!-- Node16 -->
<g id="node17" class="node">
<title>Node16</title>
<polygon fill="#ffffff" stroke="#bfbfbf" points="1079,-56.5 1079,-75.5 1135,-75.5 1135,-56.5 1079,-56.5"/>
<text text-anchor="middle" x="1107" y="-63.5" font-family="Helvetica,sans-Serif" font-size="10.00" fill="#000000">comlite.h</text>
</g>
<!-- Node1&#45;&gt;Node16 -->
<g id="edge16" class="edge">
<title>Node1&#45;&gt;Node16</title>
<path fill="none" stroke="#191970" d="M1539.8912,-120.2929C1470.0326,-115.9951 1291.6943,-103.0835 1145,-76 1144.8994,-75.9814 1144.7986,-75.9627 1144.6977,-75.9439"/>
<polygon fill="#191970" stroke="#191970" points="1145.6261,-72.5633 1135.1159,-73.8997 1144.1656,-79.4092 1145.6261,-72.5633"/>
</g>
<!-- Node17 -->
<g id="node18" class="node">
<title>Node17</title>
<g id="a_node18"><a xlink:href="../../d3/d26/cache_8h.html" target="_top" xlink:title="cache.h">
<polygon fill="#ffffff" stroke="#000000" points="1153.5,-56.5 1153.5,-75.5 1204.5,-75.5 1204.5,-56.5 1153.5,-56.5"/>
<text text-anchor="middle" x="1179" y="-63.5" font-family="Helvetica,sans-Serif" font-size="10.00" fill="#000000">cache.h</text>
</a>
</g>
</g>
<!-- Node1&#45;&gt;Node17 -->
<g id="edge17" class="edge">
<title>Node1&#45;&gt;Node17</title>
<path fill="none" stroke="#191970" d="M1539.7418,-119.6305C1479.5833,-114.5906 1340.617,-101.3083 1214.346,-75.7845"/>
<polygon fill="#191970" stroke="#191970" points="1215.0041,-72.3467 1204.5046,-73.7647 1213.5967,-79.2038 1215.0041,-72.3467"/>
</g>
<!-- Node18 -->
<g id="node19" class="node">
<title>Node18</title>
<g id="a_node19"><a xlink:href="../../d9/d9c/wxlist_8h.html" target="_top" xlink:title="wxlist.h">
<polygon fill="#ffffff" stroke="#000000" points="1223,-56.5 1223,-75.5 1273,-75.5 1273,-56.5 1223,-56.5"/>
<text text-anchor="middle" x="1248" y="-63.5" font-family="Helvetica,sans-Serif" font-size="10.00" fill="#000000">wxlist.h</text>
</a>
</g>
</g>
<!-- Node1&#45;&gt;Node18 -->
<g id="edge18" class="edge">
<title>Node1&#45;&gt;Node18</title>
<path fill="none" stroke="#191970" d="M1539.9083,-118.4796C1488.9394,-112.2409 1382.264,-97.9932 1283.0422,-76.0099"/>
<polygon fill="#191970" stroke="#191970" points="1283.6813,-72.5663 1273.1571,-73.7881 1282.1462,-79.3959 1283.6813,-72.5663"/>
</g>
<!-- Node19 -->
<g id="node20" class="node">
<title>Node19</title>
<g id="a_node20"><a xlink:href="../../d6/d29/msgthrd_8h.html" target="_top" xlink:title="msgthrd.h">
<polygon fill="#ffffff" stroke="#000000" points="1291,-56.5 1291,-75.5 1351,-75.5 1351,-56.5 1291,-56.5"/>
<text text-anchor="middle" x="1321" y="-63.5" font-family="Helvetica,sans-Serif" font-size="10.00" fill="#000000">msgthrd.h</text>
</a>
</g>
</g>
<!-- Node1&#45;&gt;Node19 -->
<g id="edge19" class="edge">
<title>Node1&#45;&gt;Node19</title>
<path fill="none" stroke="#191970" d="M1539.6683,-115.7076C1500.6098,-107.5281 1430.4001,-92.567 1360.9926,-76.1792"/>
<polygon fill="#191970" stroke="#191970" points="1361.7454,-72.7607 1351.2076,-73.8579 1360.1296,-79.5717 1361.7454,-72.7607"/>
</g>
<!-- Node20 -->
<g id="node21" class="node">
<title>Node20</title>
<g id="a_node21"><a xlink:href="../../d6/d3f/mtype_8h.html" target="_top" xlink:title="mtype.h">
<polygon fill="#ffffff" stroke="#000000" points="1369,-56.5 1369,-75.5 1421,-75.5 1421,-56.5 1369,-56.5"/>
<text text-anchor="middle" x="1395" y="-63.5" font-family="Helvetica,sans-Serif" font-size="10.00" fill="#000000">mtype.h</text>
</a>
</g>
</g>
<!-- Node1&#45;&gt;Node20 -->
<g id="edge20" class="edge">
<title>Node1&#45;&gt;Node20</title>
<path fill="none" stroke="#191970" d="M1539.9164,-112.3733C1509.7584,-102.7227 1463.3081,-87.8586 1431.1616,-77.5717"/>
<polygon fill="#191970" stroke="#191970" points="1431.8568,-74.1194 1421.2658,-74.4051 1429.7233,-80.7864 1431.8568,-74.1194"/>
</g>
<!-- Node21 -->
<g id="node22" class="node">
<title>Node21</title>
<g id="a_node22"><a xlink:href="../../d1/d6b/fourcc_8h.html" target="_top" xlink:title="fourcc.h">
<polygon fill="#ffffff" stroke="#000000" points="1439,-56.5 1439,-75.5 1491,-75.5 1491,-56.5 1439,-56.5"/>
<text text-anchor="middle" x="1465" y="-63.5" font-family="Helvetica,sans-Serif" font-size="10.00" fill="#000000">fourcc.h</text>
</a>
</g>
</g>
<!-- Node1&#45;&gt;Node21 -->
<g id="edge21" class="edge">
<title>Node1&#45;&gt;Node21</title>
<path fill="none" stroke="#191970" d="M1551.7104,-112.2455C1535.2238,-103.4527 1510.7648,-90.4079 1492.0235,-80.4125"/>
<polygon fill="#191970" stroke="#191970" points="1493.5506,-77.2604 1483.08,-75.6427 1490.2565,-83.4368 1493.5506,-77.2604"/>
</g>
<!-- Node22 -->
<g id="node23" class="node">
<title>Node22</title>
<polygon fill="#ffffff" stroke="#bfbfbf" points="1509,-56.5 1509,-75.5 1563,-75.5 1563,-56.5 1509,-56.5"/>
<text text-anchor="middle" x="1536" y="-63.5" font-family="Helvetica,sans-Serif" font-size="10.00" fill="#000000">control.h</text>
</g>
<!-- Node1&#45;&gt;Node22 -->
<g id="edge22" class="edge">
<title>Node1&#45;&gt;Node22</title>
<path fill="none" stroke="#191970" d="M1564.0777,-112.2455C1559.3973,-104.5367 1552.7327,-93.5598 1547.0711,-84.2348"/>
<polygon fill="#191970" stroke="#191970" points="1550.0361,-82.3741 1541.8545,-75.6427 1544.0525,-86.007 1550.0361,-82.3741"/>
</g>
<!-- Node23 -->
<g id="node24" class="node">
<title>Node23</title>
<g id="a_node24"><a xlink:href="../../d5/df5/ctlutil_8h.html" target="_top" xlink:title="ctlutil.h">
<polygon fill="#ffffff" stroke="#000000" points="1581,-56.5 1581,-75.5 1629,-75.5 1629,-56.5 1581,-56.5"/>
<text text-anchor="middle" x="1605" y="-63.5" font-family="Helvetica,sans-Serif" font-size="10.00" fill="#000000">ctlutil.h</text>
</a>
</g>
</g>
<!-- Node1&#45;&gt;Node23 -->
<g id="edge23" class="edge">
<title>Node1&#45;&gt;Node23</title>
<path fill="none" stroke="#191970" d="M1576.0965,-112.2455C1580.9145,-104.5367 1587.7751,-93.5598 1593.6032,-84.2348"/>
<polygon fill="#191970" stroke="#191970" points="1596.6413,-85.9777 1598.9733,-75.6427 1590.7053,-82.2677 1596.6413,-85.9777"/>
</g>
<!-- Node24 -->
<g id="node25" class="node">
<title>Node24</title>
<polygon fill="#ffffff" stroke="#bfbfbf" points="1647,-56.5 1647,-75.5 1703,-75.5 1703,-56.5 1647,-56.5"/>
<text text-anchor="middle" x="1675" y="-63.5" font-family="Helvetica,sans-Serif" font-size="10.00" fill="#000000">evcode.h</text>
</g>
<!-- Node1&#45;&gt;Node24 -->
<g id="edge24" class="edge">
<title>Node1&#45;&gt;Node24</title>
<path fill="none" stroke="#191970" d="M1588.2896,-112.2455C1604.7762,-103.4527 1629.2352,-90.4079 1647.9765,-80.4125"/>
<polygon fill="#191970" stroke="#191970" points="1649.7435,-83.4368 1656.92,-75.6427 1646.4494,-77.2604 1649.7435,-83.4368"/>
</g>
<!-- Node25 -->
<g id="node26" class="node">
<title>Node25</title>
<g id="a_node26"><a xlink:href="../../d2/d9b/amfilter_8h.html" target="_top" xlink:title="amfilter.h">
<polygon fill="#ffffff" stroke="#000000" points="1721,-56.5 1721,-75.5 1777,-75.5 1777,-56.5 1721,-56.5"/>
<text text-anchor="middle" x="1749" y="-63.5" font-family="Helvetica,sans-Serif" font-size="10.00" fill="#000000">amfilter.h</text>
</a>
</g>
</g>
<!-- Node1&#45;&gt;Node25 -->
<g id="edge25" class="edge">
<title>Node1&#45;&gt;Node25</title>
<path fill="none" stroke="#191970" d="M1600.3649,-112.5004C1630.9181,-102.9418 1678.1133,-88.1769 1711.1021,-77.8563"/>
<polygon fill="#191970" stroke="#191970" points="1712.3509,-81.133 1720.8497,-74.8068 1710.2608,-74.4523 1712.3509,-81.133"/>
</g>
<!-- Node26 -->
<g id="node27" class="node">
<title>Node26</title>
<g id="a_node27"><a xlink:href="../../d8/df6/transfrm_8h.html" target="_top" xlink:title="transfrm.h">
<polygon fill="#ffffff" stroke="#000000" points="1795.5,-56.5 1795.5,-75.5 1856.5,-75.5 1856.5,-56.5 1795.5,-56.5"/>
<text text-anchor="middle" x="1826" y="-63.5" font-family="Helvetica,sans-Serif" font-size="10.00" fill="#000000">transfrm.h</text>
</a>
</g>
</g>
<!-- Node1&#45;&gt;Node26 -->
<g id="edge26" class="edge">
<title>Node1&#45;&gt;Node26</title>
<path fill="none" stroke="#191970" d="M1600.1075,-114.3251C1603.4405,-113.5196 1606.789,-112.7294 1610,-112 1684.8169,-95.0045 1706.4692,-93.7614 1785.5247,-76.0266"/>
<polygon fill="#191970" stroke="#191970" points="1786.4762,-79.3999 1795.4576,-73.7799 1784.9318,-72.5724 1786.4762,-79.3999"/>
</g>
<!-- Node27 -->
<g id="node28" class="node">
<title>Node27</title>
<g id="a_node28"><a xlink:href="../../df/db9/transip_8h.html" target="_top" xlink:title="transip.h">
<polygon fill="#ffffff" stroke="#000000" points="1875,-56.5 1875,-75.5 1929,-75.5 1929,-56.5 1875,-56.5"/>
<text text-anchor="middle" x="1902" y="-63.5" font-family="Helvetica,sans-Serif" font-size="10.00" fill="#000000">transip.h</text>
</a>
</g>
</g>
<!-- Node1&#45;&gt;Node27 -->
<g id="edge27" class="edge">
<title>Node1&#45;&gt;Node27</title>
<path fill="none" stroke="#191970" d="M1600.065,-114.1233C1603.4059,-113.3556 1606.768,-112.6294 1610,-112 1719.5845,-90.6583 1751.7094,-98.9195 1864.8623,-76.0039"/>
<polygon fill="#191970" stroke="#191970" points="1865.8799,-79.3677 1874.9664,-73.9193 1864.4655,-72.5121 1865.8799,-79.3677"/>
</g>
<!-- Node28 -->
<g id="node29" class="node">
<title>Node28</title>
<polygon fill="#ffffff" stroke="#bfbfbf" points="1947,-56.5 1947,-75.5 1995,-75.5 1995,-56.5 1947,-56.5"/>
<text text-anchor="middle" x="1971" y="-63.5" font-family="Helvetica,sans-Serif" font-size="10.00" fill="#000000">uuids.h</text>
</g>
<!-- Node1&#45;&gt;Node28 -->
<g id="edge28" class="edge">
<title>Node1&#45;&gt;Node28</title>
<path fill="none" stroke="#191970" d="M1600.0464,-114.024C1603.3909,-113.2749 1606.7588,-112.5803 1610,-112 1751.1157,-86.7367 1792.4742,-104.5495 1936.8629,-75.8896"/>
<polygon fill="#191970" stroke="#191970" points="1937.8756,-79.2556 1946.9814,-73.8393 1936.4855,-72.395 1937.8756,-79.2556"/>
</g>
<!-- Node29 -->
<g id="node30" class="node">
<title>Node29</title>
<g id="a_node30"><a xlink:href="../../da/d1b/source_8h.html" target="_top" xlink:title="source.h">
<polygon fill="#ffffff" stroke="#000000" points="2013,-56.5 2013,-75.5 2067,-75.5 2067,-56.5 2013,-56.5"/>
<text text-anchor="middle" x="2040" y="-63.5" font-family="Helvetica,sans-Serif" font-size="10.00" fill="#000000">source.h</text>
</a>
</g>
</g>
<!-- Node1&#45;&gt;Node29 -->
<g id="edge29" class="edge">
<title>Node1&#45;&gt;Node29</title>
<path fill="none" stroke="#191970" d="M1600.036,-113.9644C1603.3824,-113.2264 1606.7536,-112.5507 1610,-112 1780.1468,-83.1349 1829.2207,-106.7476 2003.0028,-75.8731"/>
<polygon fill="#191970" stroke="#191970" points="2003.7787,-79.2896 2012.9945,-74.0629 2002.5307,-72.4018 2003.7787,-79.2896"/>
</g>
<!-- Node30 -->
<g id="node31" class="node">
<title>Node30</title>
<g id="a_node31"><a xlink:href="../../dd/d6a/outputq_8h.html" target="_top" xlink:title="outputq.h">
<polygon fill="#ffffff" stroke="#000000" points="2085.5,-56.5 2085.5,-75.5 2142.5,-75.5 2142.5,-56.5 2085.5,-56.5"/>
<text text-anchor="middle" x="2114" y="-63.5" font-family="Helvetica,sans-Serif" font-size="10.00" fill="#000000">outputq.h</text>
</a>
</g>
</g>
<!-- Node1&#45;&gt;Node30 -->
<g id="edge30" class="edge">
<title>Node1&#45;&gt;Node30</title>
<path fill="none" stroke="#191970" d="M1600.0284,-113.9184C1603.3762,-113.1891 1606.7498,-112.528 1610,-112 1811.8367,-79.2124 1869.3787,-109.5926 2075.555,-75.7535"/>
<polygon fill="#191970" stroke="#191970" points="2076.2005,-79.1942 2085.4864,-74.0931 2075.0461,-72.2901 2076.2005,-79.1942"/>
</g>
<!-- Node31 -->
<g id="node32" class="node">
<title>Node31</title>
<polygon fill="#ffffff" stroke="#bfbfbf" points="2161,-56.5 2161,-75.5 2211,-75.5 2211,-56.5 2161,-56.5"/>
<text text-anchor="middle" x="2186" y="-63.5" font-family="Helvetica,sans-Serif" font-size="10.00" fill="#000000">errors.h</text>
</g>
<!-- Node1&#45;&gt;Node31 -->
<g id="edge31" class="edge">
<title>Node1&#45;&gt;Node31</title>
<path fill="none" stroke="#191970" d="M1600.0228,-113.8831C1603.3716,-113.1603 1606.747,-112.5105 1610,-112 1845.2403,-75.086 1912.4858,-117.1345 2150.883,-75.8185"/>
<polygon fill="#191970" stroke="#191970" points="2151.6564,-79.2362 2160.8961,-74.052 2150.4401,-72.3427 2151.6564,-79.2362"/>
</g>
<!-- Node32 -->
<g id="node33" class="node">
<title>Node32</title>
<g id="a_node33"><a xlink:href="../../d3/dff/renbase_8h.html" target="_top" xlink:title="renbase.h">
<polygon fill="#ffffff" stroke="#000000" points="2229.5,-56.5 2229.5,-75.5 2288.5,-75.5 2288.5,-56.5 2229.5,-56.5"/>
<text text-anchor="middle" x="2259" y="-63.5" font-family="Helvetica,sans-Serif" font-size="10.00" fill="#000000">renbase.h</text>
</a>
</g>
</g>
<!-- Node1&#45;&gt;Node32 -->
<g id="edge32" class="edge">
<title>Node1&#45;&gt;Node32</title>
<path fill="none" stroke="#191970" d="M1600.019,-113.8588C1603.3686,-113.1407 1606.7452,-112.4985 1610,-112 1875.176,-71.3899 1949.8553,-116.7853 2219.2351,-75.7981"/>
<polygon fill="#191970" stroke="#191970" points="2219.9649,-79.2269 2229.312,-74.2386 2218.8943,-72.3092 2219.9649,-79.2269"/>
</g>
<!-- Node33 -->
<g id="node34" class="node">
<title>Node33</title>
<g id="a_node34"><a xlink:href="../../df/d97/winutil_8h.html" target="_top" xlink:title="winutil.h">
<polygon fill="#ffffff" stroke="#000000" points="2306.5,-56.5 2306.5,-75.5 2359.5,-75.5 2359.5,-56.5 2306.5,-56.5"/>
<text text-anchor="middle" x="2333" y="-63.5" font-family="Helvetica,sans-Serif" font-size="10.00" fill="#000000">winutil.h</text>
</a>
</g>
</g>
<!-- Node1&#45;&gt;Node33 -->
<g id="edge33" class="edge">
<title>Node1&#45;&gt;Node33</title>
<path fill="none" stroke="#191970" d="M1600.0157,-113.8369C1603.3659,-113.1228 1606.7435,-112.4876 1610,-112 1909.5674,-67.145 1994.1652,-125.1097 2296.4638,-75.9148"/>
<polygon fill="#191970" stroke="#191970" points="2297.0939,-79.3582 2306.3891,-74.274 2295.9522,-72.452 2297.0939,-79.3582"/>
</g>
<!-- Node34 -->
<g id="node35" class="node">
<title>Node34</title>
<g id="a_node35"><a xlink:href="../../d3/d6c/winctrl_8h.html" target="_top" xlink:title="winctrl.h">
<polygon fill="#ffffff" stroke="#000000" points="2377.5,-56.5 2377.5,-75.5 2430.5,-75.5 2430.5,-56.5 2377.5,-56.5"/>
<text text-anchor="middle" x="2404" y="-63.5" font-family="Helvetica,sans-Serif" font-size="10.00" fill="#000000">winctrl.h</text>
</a>
</g>
</g>
<!-- Node1&#45;&gt;Node34 -->
<g id="edge34" class="edge">
<title>Node1&#45;&gt;Node34</title>
<path fill="none" stroke="#191970" d="M1600.0133,-113.8209C1603.3639,-113.1098 1606.7424,-112.4796 1610,-112 1940.8476,-63.2869 2033.9424,-129.437 2367.4536,-75.9067"/>
<polygon fill="#191970" stroke="#191970" points="2368.0843,-79.3502 2377.3914,-74.2878 2366.9588,-72.4413 2368.0843,-79.3502"/>
</g>
<!-- Node35 -->
<g id="node36" class="node">
<title>Node35</title>
<g id="a_node36"><a xlink:href="../../d2/d6a/videoctl_8h.html" target="_top" xlink:title="videoctl.h">
<polygon fill="#ffffff" stroke="#000000" points="2448.5,-56.5 2448.5,-75.5 2507.5,-75.5 2507.5,-56.5 2448.5,-56.5"/>
<text text-anchor="middle" x="2478" y="-63.5" font-family="Helvetica,sans-Serif" font-size="10.00" fill="#000000">videoctl.h</text>
</a>
</g>
</g>
<!-- Node1&#45;&gt;Node35 -->
<g id="edge35" class="edge">
<title>Node1&#45;&gt;Node35</title>
<path fill="none" stroke="#191970" d="M1600.0114,-113.8076C1603.3624,-113.099 1606.7414,-112.473 1610,-112 1972.1047,-59.4334 2073.1092,-130.0034 2438.2051,-75.9796"/>
<polygon fill="#191970" stroke="#191970" points="2438.8858,-79.4168 2448.2554,-74.471 2437.8466,-72.4943 2438.8858,-79.4168"/>
</g>
<!-- Node36 -->
<g id="node37" class="node">
<title>Node36</title>
<g id="a_node37"><a xlink:href="../../d3/d40/refclock_8h.html" target="_top" xlink:title="refclock.h">
<polygon fill="#ffffff" stroke="#000000" points="2525.5,-56.5 2525.5,-75.5 2584.5,-75.5 2584.5,-56.5 2525.5,-56.5"/>
<text text-anchor="middle" x="2555" y="-63.5" font-family="Helvetica,sans-Serif" font-size="10.00" fill="#000000">refclock.h</text>
</a>
</g>
</g>
<!-- Node1&#45;&gt;Node36 -->
<g id="edge36" class="edge">
<title>Node1&#45;&gt;Node36</title>
<path fill="none" stroke="#191970" d="M1600.0096,-113.7955C1603.3609,-113.0891 1606.7405,-112.4671 1610,-112 2006.0345,-55.2509 2116.1874,-134.3543 2515.177,-75.9766"/>
<polygon fill="#191970" stroke="#191970" points="2515.8787,-79.4109 2525.257,-74.4816 2514.8517,-72.4866 2515.8787,-79.4109"/>
</g>
<!-- Node38 -->
<g id="node39" class="node">
<title>Node38</title>
<g id="a_node39"><a xlink:href="../../d8/d25/sysclock_8h.html" target="_top" xlink:title="sysclock.h">
<polygon fill="#ffffff" stroke="#000000" points="2603,-56.5 2603,-75.5 2667,-75.5 2667,-56.5 2603,-56.5"/>
<text text-anchor="middle" x="2635" y="-63.5" font-family="Helvetica,sans-Serif" font-size="10.00" fill="#000000">sysclock.h</text>
</a>
</g>
</g>
<!-- Node1&#45;&gt;Node38 -->
<g id="edge38" class="edge">
<title>Node1&#45;&gt;Node38</title>
<path fill="none" stroke="#191970" d="M1600.0082,-113.7853C1603.3598,-113.0809 1606.7398,-112.462 1610,-112 2040.0175,-51.0617 2158.7359,-134.871 2592.9016,-75.8586"/>
<polygon fill="#191970" stroke="#191970" points="2593.4607,-79.3147 2602.8899,-74.4835 2592.5059,-72.3801 2593.4607,-79.3147"/>
</g>
<!-- Node39 -->
<g id="node40" class="node">
<title>Node39</title>
<g id="a_node40"><a xlink:href="../../d9/da3/pstream_8h.html" target="_top" xlink:title="pstream.h">
<polygon fill="#ffffff" stroke="#000000" points="2685,-56.5 2685,-75.5 2745,-75.5 2745,-56.5 2685,-56.5"/>
<text text-anchor="middle" x="2715" y="-63.5" font-family="Helvetica,sans-Serif" font-size="10.00" fill="#000000">pstream.h</text>
</a>
</g>
</g>
<!-- Node1&#45;&gt;Node39 -->
<g id="edge39" class="edge">
<title>Node1&#45;&gt;Node39</title>
<path fill="none" stroke="#191970" d="M1600.0069,-113.776C1603.3587,-113.0733 1606.7392,-112.4574 1610,-112 2076.1277,-46.6126 2204.9293,-141.9003 2674.7935,-75.8453"/>
<polygon fill="#191970" stroke="#191970" points="2675.4898,-79.2815 2684.8969,-74.4075 2674.5035,-72.3513 2675.4898,-79.2815"/>
</g>
<!-- Node40 -->
<g id="node41" class="node">
<title>Node40</title>
<g id="a_node41"><a xlink:href="../../d6/da9/vtrans_8h.html" target="_top" xlink:title="vtrans.h">
<polygon fill="#ffffff" stroke="#000000" points="2763,-56.5 2763,-75.5 2815,-75.5 2815,-56.5 2763,-56.5"/>
<text text-anchor="middle" x="2789" y="-63.5" font-family="Helvetica,sans-Serif" font-size="10.00" fill="#000000">vtrans.h</text>
</a>
</g>
</g>
<!-- Node1&#45;&gt;Node40 -->
<g id="edge40" class="edge">
<title>Node1&#45;&gt;Node40</title>
<path fill="none" stroke="#191970" d="M1600.0058,-113.7684C1603.3578,-113.0672 1606.7386,-112.4537 1610,-112 2110.5235,-42.3745 2249.5636,-152.9957 2752.7179,-75.8037"/>
<polygon fill="#191970" stroke="#191970" points="2753.4372,-79.234 2762.7823,-74.2421 2752.3639,-72.3168 2753.4372,-79.234"/>
</g>
<!-- Node41 -->
<g id="node42" class="node">
<title>Node41</title>
<g id="a_node42"><a xlink:href="../../d9/d09/amextra_8h.html" target="_top" xlink:title="amextra.h">
<polygon fill="#ffffff" stroke="#000000" points="2833,-56.5 2833,-75.5 2893,-75.5 2893,-56.5 2833,-56.5"/>
<text text-anchor="middle" x="2863" y="-63.5" font-family="Helvetica,sans-Serif" font-size="10.00" fill="#000000">amextra.h</text>
</a>
</g>
</g>
<!-- Node1&#45;&gt;Node41 -->
<g id="edge41" class="edge">
<title>Node1&#45;&gt;Node41</title>
<path fill="none" stroke="#191970" d="M1600.005,-113.7625C1603.3572,-113.0623 1606.7382,-112.4507 1610,-112 2141.4483,-38.5636 2287.7309,-150.1204 2822.9934,-75.8102"/>
<polygon fill="#191970" stroke="#191970" points="2823.4822,-79.276 2832.8987,-74.42 2822.5093,-72.3439 2823.4822,-79.276"/>
</g>
<!-- Node42 -->
<g id="node43" class="node">
<title>Node42</title>
<g id="a_node43"><a xlink:href="../../d4/dcd/cprop_8h.html" target="_top" xlink:title="cprop.h">
<polygon fill="#ffffff" stroke="#000000" points="2911.5,-56.5 2911.5,-75.5 2960.5,-75.5 2960.5,-56.5 2911.5,-56.5"/>
<text text-anchor="middle" x="2936" y="-63.5" font-family="Helvetica,sans-Serif" font-size="10.00" fill="#000000">cprop.h</text>
</a>
</g>
</g>
<!-- Node1&#45;&gt;Node42 -->
<g id="edge42" class="edge">
<title>Node1&#45;&gt;Node42</title>
<path fill="none" stroke="#191970" d="M1600.0042,-113.7566C1603.3565,-113.0575 1606.7378,-112.4478 1610,-112 2175.7736,-34.3361 2332.7794,-164.2531 2901.1934,-75.6598"/>
<polygon fill="#191970" stroke="#191970" points="2901.9531,-79.0834 2911.287,-74.0705 2900.8643,-72.1686 2901.9531,-79.0834"/>
</g>
<!-- Node43 -->
<g id="node44" class="node">
<title>Node43</title>
<g id="a_node44"><a xlink:href="../../d9/da4/strmctl_8h.html" target="_top" xlink:title="strmctl.h">
<polygon fill="#ffffff" stroke="#000000" points="2978.5,-56.5 2978.5,-75.5 3033.5,-75.5 3033.5,-56.5 2978.5,-56.5"/>
<text text-anchor="middle" x="3006" y="-63.5" font-family="Helvetica,sans-Serif" font-size="10.00" fill="#000000">strmctl.h</text>
</a>
</g>
</g>
<!-- Node1&#45;&gt;Node43 -->
<g id="edge43" class="edge">
<title>Node1&#45;&gt;Node43</title>
<path fill="none" stroke="#191970" d="M1600.0035,-113.752C1603.356,-113.0538 1606.7375,-112.4455 1610,-112 2205.7317,-30.6462 2370.1736,-164.071 2968.0669,-75.9488"/>
<polygon fill="#191970" stroke="#191970" points="2968.8618,-79.3691 2978.2373,-74.4346 2967.8309,-72.4454 2968.8618,-79.3691"/>
</g>
<!-- Node44 -->
<g id="node45" class="node">
<title>Node44</title>
<polygon fill="#ffffff" stroke="#bfbfbf" points="3051.5,-56.5 3051.5,-75.5 3116.5,-75.5 3116.5,-56.5 3051.5,-56.5"/>
<text text-anchor="middle" x="3084" y="-63.5" font-family="Helvetica,sans-Serif" font-size="10.00" fill="#000000">edevdefs.h</text>
</g>
<!-- Node1&#45;&gt;Node44 -->
<g id="edge44" class="edge">
<title>Node1&#45;&gt;Node44</title>
<path fill="none" stroke="#191970" d="M1600.0029,-113.7476C1603.3555,-113.0502 1606.7372,-112.4433 1610,-112 2237.8984,-26.6844 2409.6257,-158.5316 3041.1743,-75.9626"/>
<polygon fill="#191970" stroke="#191970" points="3041.9903,-79.3854 3051.446,-74.6062 3041.0738,-72.4456 3041.9903,-79.3854"/>
</g>
<!-- Node45 -->
<g id="node46" class="node">
<title>Node45</title>
<polygon fill="#ffffff" stroke="#bfbfbf" points="3134.5,-56.5 3134.5,-75.5 3201.5,-75.5 3201.5,-56.5 3134.5,-56.5"/>
<text text-anchor="middle" x="3168" y="-63.5" font-family="Helvetica,sans-Serif" font-size="10.00" fill="#000000">audevcod.h</text>
</g>
<!-- Node1&#45;&gt;Node45 -->
<g id="edge45" class="edge">
<title>Node1&#45;&gt;Node45</title>
<path fill="none" stroke="#191970" d="M1600.0023,-113.743C1603.355,-113.0465 1606.7369,-112.4411 1610,-112 2274.4691,-22.1805 2455.7543,-161.0911 3123.8198,-76.0278"/>
<polygon fill="#191970" stroke="#191970" points="3124.7151,-79.4416 3134.1871,-74.6948 3123.8224,-72.4987 3124.7151,-79.4416"/>
</g>
<!-- Node37 -->
<g id="node38" class="node">
<title>Node37</title>
<g id="a_node38"><a xlink:href="../../de/d6b/schedule_8h.html" target="_top" xlink:title="Schedule.h">
<polygon fill="#ffffff" stroke="#000000" points="2522.5,-.5 2522.5,-19.5 2587.5,-19.5 2587.5,-.5 2522.5,-.5"/>
<text text-anchor="middle" x="2555" y="-7.5" font-family="Helvetica,sans-Serif" font-size="10.00" fill="#000000">Schedule.h</text>
</a>
</g>
</g>
<!-- Node36&#45;&gt;Node37 -->
<g id="edge37" class="edge">
<title>Node36&#45;&gt;Node37</title>
<path fill="none" stroke="#191970" d="M2555,-56.2455C2555,-48.9382 2555,-38.6944 2555,-29.7046"/>
<polygon fill="#191970" stroke="#191970" points="2558.5001,-29.6426 2555,-19.6427 2551.5001,-29.6427 2558.5001,-29.6426"/>
</g>
</g>
</svg>
