<?xml version="1.0" encoding="UTF-8" standalone="no"?>
<!DOCTYPE svg PUBLIC "-//W3C//DTD SVG 1.1//EN"
 "http://www.w3.org/Graphics/SVG/1.1/DTD/svg11.dtd">
<!-- Generated by graphviz version 2.43.0 (0)
 -->
<!-- Title: /home/tcbuilder/buildAgent/work/df8e8cce5bebfd58/libajantv2/demos/ntv2dolbycapture/ntv2dolbycapture.h Pages: 1 -->
<svg width="466pt" height="128pt"
 viewBox="0.00 0.00 465.50 128.00" xmlns="http://www.w3.org/2000/svg" xmlns:xlink="http://www.w3.org/1999/xlink">
<g id="graph0" class="graph" transform="scale(1 1) rotate(0) translate(4 124)">
<title>/home/tcbuilder/buildAgent/work/df8e8cce5bebfd58/libajantv2/demos/ntv2dolbycapture/ntv2dolbycapture.h</title>
<polygon fill="white" stroke="transparent" points="-4,4 -4,-124 461.5,-124 461.5,4 -4,4"/>
<!-- Node1 -->
<g id="node1" class="node">
<title>Node1</title>
<g id="a_node1"><a xlink:title="Declares the NTV2DolbyCapture class.">
<polygon fill="#bfbfbf" stroke="black" points="94,-78.5 94,-119.5 333,-119.5 333,-78.5 94,-78.5"/>
<text text-anchor="start" x="102" y="-107.5" font-family="Helvetica,sans-Serif" font-size="10.00">/home/tcbuilder/buildAgent</text>
<text text-anchor="start" x="102" y="-96.5" font-family="Helvetica,sans-Serif" font-size="10.00">/work/df8e8cce5bebfd58/libajantv2</text>
<text text-anchor="middle" x="213.5" y="-85.5" font-family="Helvetica,sans-Serif" font-size="10.00">/demos/ntv2dolbycapture/ntv2dolbycapture.h</text>
</a>
</g>
</g>
<!-- Node2 -->
<g id="node2" class="node">
<title>Node2</title>
<g id="a_node2"><a xlink:href="../../de/d55/ntv2dolbycapture_2main_8cpp.html" target="_top" xlink:title="Demonstration application to capture Dolby audio from HDMI input.">
<polygon fill="white" stroke="black" points="0,-0.5 0,-41.5 189,-41.5 189,-0.5 0,-0.5"/>
<text text-anchor="start" x="8" y="-29.5" font-family="Helvetica,sans-Serif" font-size="10.00">/home/tcbuilder/buildAgent</text>
<text text-anchor="start" x="8" y="-18.5" font-family="Helvetica,sans-Serif" font-size="10.00">/work/df8e8cce5bebfd58/libajantv2</text>
<text text-anchor="middle" x="94.5" y="-7.5" font-family="Helvetica,sans-Serif" font-size="10.00">/demos/ntv2dolbycapture/main.cpp</text>
</a>
</g>
</g>
<!-- Node1&#45;&gt;Node2 -->
<g id="edge1" class="edge">
<title>Node1&#45;&gt;Node2</title>
<path fill="none" stroke="midnightblue" d="M174.23,-72.92C158.23,-62.7 140.02,-51.07 125.04,-41.51"/>
<polygon fill="midnightblue" stroke="midnightblue" points="172.54,-76 182.85,-78.43 176.31,-70.1 172.54,-76"/>
</g>
<!-- Node3 -->
<g id="node3" class="node">
<title>Node3</title>
<g id="a_node3"><a xlink:href="../../d4/d83/ntv2dolbycapture_8cpp.html" target="_top" xlink:title="Implementation of NTV2DolbyCapture class.">
<polygon fill="white" stroke="black" points="207.5,-0.5 207.5,-41.5 457.5,-41.5 457.5,-0.5 207.5,-0.5"/>
<text text-anchor="start" x="215.5" y="-29.5" font-family="Helvetica,sans-Serif" font-size="10.00">/home/tcbuilder/buildAgent</text>
<text text-anchor="start" x="215.5" y="-18.5" font-family="Helvetica,sans-Serif" font-size="10.00">/work/df8e8cce5bebfd58/libajantv2</text>
<text text-anchor="middle" x="332.5" y="-7.5" font-family="Helvetica,sans-Serif" font-size="10.00">/demos/ntv2dolbycapture/ntv2dolbycapture.cpp</text>
</a>
</g>
</g>
<!-- Node1&#45;&gt;Node3 -->
<g id="edge2" class="edge">
<title>Node1&#45;&gt;Node3</title>
<path fill="none" stroke="midnightblue" d="M252.77,-72.92C268.77,-62.7 286.98,-51.07 301.96,-41.51"/>
<polygon fill="midnightblue" stroke="midnightblue" points="250.69,-70.1 244.15,-78.43 254.46,-76 250.69,-70.1"/>
</g>
</g>
</svg>
