<?xml version="1.0" encoding="UTF-8" standalone="no"?>
<!DOCTYPE svg PUBLIC "-//W3C//DTD SVG 1.1//EN"
 "http://www.w3.org/Graphics/SVG/1.1/DTD/svg11.dtd">
<!-- Generated by graphviz version 2.40.1 (0)
 -->
<!-- Title: CBasePin Pages: 1 -->
<svg width="620pt" height="221pt"
 viewBox="0.00 0.00 619.50 221.00" xmlns="http://www.w3.org/2000/svg" xmlns:xlink="http://www.w3.org/1999/xlink">
<g id="graph0" class="graph" transform="scale(1 1) rotate(0) translate(4 217)">
<title>CBasePin</title>
<polygon fill="#ffffff" stroke="transparent" points="-4,4 -4,-217 615.5,-217 615.5,4 -4,4"/>
<!-- Node16 -->
<g id="node1" class="node">
<title>Node16</title>
<polygon fill="#bfbfbf" stroke="#000000" points="323,-.5 323,-19.5 384,-19.5 384,-.5 323,-.5"/>
<text text-anchor="middle" x="353.5" y="-7.5" font-family="Helvetica,sans-Serif" font-size="10.00" fill="#000000">CBasePin</text>
</g>
<!-- Node17 -->
<g id="node2" class="node">
<title>Node17</title>
<g id="a_node2"><a xlink:href="../../d9/d89/class_c_unknown.html" target="_top" xlink:title="CUnknown">
<polygon fill="#ffffff" stroke="#000000" points="334,-136.5 334,-155.5 399,-155.5 399,-136.5 334,-136.5"/>
<text text-anchor="middle" x="366.5" y="-143.5" font-family="Helvetica,sans-Serif" font-size="10.00" fill="#000000">CUnknown</text>
</a>
</g>
</g>
<!-- Node17&#45;&gt;Node16 -->
<g id="edge1" class="edge">
<title>Node17&#45;&gt;Node16</title>
<path fill="none" stroke="#191970" d="M364.6093,-126.2201C361.7785,-96.6055 356.5451,-41.856 354.4265,-19.6922"/>
<polygon fill="#191970" stroke="#191970" points="361.1293,-126.5977 365.5651,-136.2192 368.0976,-125.9315 361.1293,-126.5977"/>
</g>
<!-- Node26 -->
<g id="node11" class="node">
<title>Node26</title>
<g id="a_node11"><a xlink:href="../../d5/d74/class_c_base_filter.html" target="_top" xlink:title="CBaseFilter">
<polygon fill="#ffffff" stroke="#000000" points="169.5,-68.5 169.5,-87.5 237.5,-87.5 237.5,-68.5 169.5,-68.5"/>
<text text-anchor="middle" x="203.5" y="-75.5" font-family="Helvetica,sans-Serif" font-size="10.00" fill="#000000">CBaseFilter</text>
</a>
</g>
</g>
<!-- Node17&#45;&gt;Node26 -->
<g id="edge11" class="edge">
<title>Node17&#45;&gt;Node26</title>
<path fill="none" stroke="#191970" d="M335.2876,-132.4224C317.7562,-124.8467 295.4542,-115.2933 275.5,-107 259.5718,-100.38 241.5718,-93.13 227.5539,-87.535"/>
<polygon fill="#191970" stroke="#191970" points="333.9239,-135.6459 344.4913,-136.4071 336.7051,-129.2221 333.9239,-135.6459"/>
</g>
<!-- Node18 -->
<g id="node3" class="node">
<title>Node18</title>
<polygon fill="#ffffff" stroke="#bfbfbf" points="245,-193.5 245,-212.5 370,-212.5 370,-193.5 245,-193.5"/>
<text text-anchor="middle" x="307.5" y="-200.5" font-family="Helvetica,sans-Serif" font-size="10.00" fill="#000000">INonDelegatingUnknown</text>
</g>
<!-- Node18&#45;&gt;Node17 -->
<g id="edge2" class="edge">
<title>Node18&#45;&gt;Node17</title>
<path fill="none" stroke="#191970" d="M324.8491,-186.239C335.2075,-176.2317 347.988,-163.8845 356.6393,-155.5265"/>
<polygon fill="#191970" stroke="#191970" points="322.2686,-183.8654 317.5085,-193.3307 327.1323,-188.8998 322.2686,-183.8654"/>
</g>
<!-- Node19 -->
<g id="node4" class="node">
<title>Node19</title>
<g id="a_node4"><a xlink:href="../../d1/d2d/class_c_base_object.html" target="_top" xlink:title="CBaseObject">
<polygon fill="#ffffff" stroke="#000000" points="388,-193.5 388,-212.5 463,-212.5 463,-193.5 388,-193.5"/>
<text text-anchor="middle" x="425.5" y="-200.5" font-family="Helvetica,sans-Serif" font-size="10.00" fill="#000000">CBaseObject</text>
</a>
</g>
</g>
<!-- Node19&#45;&gt;Node17 -->
<g id="edge3" class="edge">
<title>Node19&#45;&gt;Node17</title>
<path fill="none" stroke="#191970" d="M408.1509,-186.239C397.7925,-176.2317 385.012,-163.8845 376.3607,-155.5265"/>
<polygon fill="#191970" stroke="#191970" points="405.8677,-188.8998 415.4915,-193.3307 410.7314,-183.8654 405.8677,-188.8998"/>
</g>
<!-- Node20 -->
<g id="node5" class="node">
<title>Node20</title>
<polygon fill="#ffffff" stroke="#bfbfbf" points="381.5,-68.5 381.5,-87.5 415.5,-87.5 415.5,-68.5 381.5,-68.5"/>
<text text-anchor="middle" x="398.5" y="-75.5" font-family="Helvetica,sans-Serif" font-size="10.00" fill="#000000">IPin</text>
</g>
<!-- Node20&#45;&gt;Node16 -->
<g id="edge4" class="edge">
<title>Node20&#45;&gt;Node16</title>
<path fill="none" stroke="#191970" d="M386.3972,-59.7114C377.8798,-46.8406 366.8143,-30.1194 359.9354,-19.7247"/>
<polygon fill="#191970" stroke="#191970" points="383.6151,-61.8495 392.0526,-68.2573 389.4527,-57.9864 383.6151,-61.8495"/>
</g>
<!-- Node21 -->
<g id="node6" class="node">
<title>Node21</title>
<polygon fill="#ffffff" stroke="#bfbfbf" points="433.5,-68.5 433.5,-87.5 515.5,-87.5 515.5,-68.5 433.5,-68.5"/>
<text text-anchor="middle" x="474.5" y="-75.5" font-family="Helvetica,sans-Serif" font-size="10.00" fill="#000000">IQualityControl</text>
</g>
<!-- Node21&#45;&gt;Node16 -->
<g id="edge5" class="edge">
<title>Node21&#45;&gt;Node16</title>
<path fill="none" stroke="#191970" d="M448.6373,-63.4656C425.0299,-50.1986 390.8118,-30.9686 370.4928,-19.5497"/>
<polygon fill="#191970" stroke="#191970" points="446.9879,-66.5534 457.4203,-68.4015 450.4173,-60.4511 446.9879,-66.5534"/>
</g>
<!-- Node22 -->
<g id="node7" class="node">
<title>Node22</title>
<g id="a_node7"><a xlink:href="../../dc/da7/class_c_ref_time.html" target="_top" xlink:title="CRefTime">
<polygon fill="#ffffff" stroke="#000000" points="253.5,-136.5 253.5,-155.5 315.5,-155.5 315.5,-136.5 253.5,-136.5"/>
<text text-anchor="middle" x="284.5" y="-143.5" font-family="Helvetica,sans-Serif" font-size="10.00" fill="#000000">CRefTime</text>
</a>
</g>
</g>
<!-- Node22&#45;&gt;Node16 -->
<g id="edge6" class="edge">
<title>Node22&#45;&gt;Node16</title>
<path fill="none" stroke="#9a32cd" stroke-dasharray="5,2" d="M290.6797,-126.9657C296.2789,-110.6449 305.2117,-86.7152 315.5,-67 324.6339,-49.497 337.9002,-30.7264 346.0991,-19.6915"/>
<polygon fill="#9a32cd" stroke="#9a32cd" points="287.3531,-125.8775 287.5008,-136.4713 293.9917,-128.0976 287.3531,-125.8775"/>
<text text-anchor="middle" x="335.5" y="-81" font-family="Helvetica,sans-Serif" font-size="10.00" fill="#000000"> m_tStop</text>
<text text-anchor="middle" x="335.5" y="-70" font-family="Helvetica,sans-Serif" font-size="10.00" fill="#000000">m_tStart</text>
</g>
<!-- Node22&#45;&gt;Node26 -->
<g id="edge14" class="edge">
<title>Node22&#45;&gt;Node26</title>
<path fill="none" stroke="#9a32cd" stroke-dasharray="5,2" d="M251.0214,-131.9538C243.8083,-128.0531 236.5435,-123.3834 230.5,-118 220.7403,-109.3062 212.8491,-96.3545 208.1733,-87.5625"/>
<polygon fill="#9a32cd" stroke="#9a32cd" points="249.5273,-135.12 260.0346,-136.4793 252.6684,-128.8643 249.5273,-135.12"/>
<text text-anchor="middle" x="251" y="-110" font-family="Helvetica,sans-Serif" font-size="10.00" fill="#000000"> m_tStart</text>
</g>
<!-- Node23 -->
<g id="node8" class="node">
<title>Node23</title>
<g id="a_node8"><a xlink:href="../../d7/da7/class_c_media_type.html" target="_top" xlink:title="CMediaType">
<polygon fill="#ffffff" stroke="#000000" points="534,-68.5 534,-87.5 605,-87.5 605,-68.5 534,-68.5"/>
<text text-anchor="middle" x="569.5" y="-75.5" font-family="Helvetica,sans-Serif" font-size="10.00" fill="#000000">CMediaType</text>
</a>
</g>
</g>
<!-- Node23&#45;&gt;Node16 -->
<g id="edge7" class="edge">
<title>Node23&#45;&gt;Node16</title>
<path fill="none" stroke="#9a32cd" stroke-dasharray="5,2" d="M529.3458,-65.3589C487.1948,-52.0891 421.8716,-31.5244 383.8343,-19.5497"/>
<polygon fill="#9a32cd" stroke="#9a32cd" points="528.4211,-68.737 539.0106,-68.4015 530.5231,-62.0601 528.4211,-68.737"/>
<text text-anchor="middle" x="488.5" y="-41" font-family="Helvetica,sans-Serif" font-size="10.00" fill="#000000"> m_mt</text>
</g>
<!-- Node24 -->
<g id="node9" class="node">
<title>Node24</title>
<polygon fill="#ffffff" stroke="#bfbfbf" points="527.5,-136.5 527.5,-155.5 611.5,-155.5 611.5,-136.5 527.5,-136.5"/>
<text text-anchor="middle" x="569.5" y="-143.5" font-family="Helvetica,sans-Serif" font-size="10.00" fill="#000000">_AMMediaType</text>
</g>
<!-- Node24&#45;&gt;Node23 -->
<g id="edge8" class="edge">
<title>Node24&#45;&gt;Node23</title>
<path fill="none" stroke="#191970" d="M569.5,-126.1951C569.5,-113.5514 569.5,-97.7157 569.5,-87.7247"/>
<polygon fill="#191970" stroke="#191970" points="566.0001,-126.2572 569.5,-136.2573 573.0001,-126.2573 566.0001,-126.2572"/>
</g>
<!-- Node25 -->
<g id="node10" class="node">
<title>Node25</title>
<g id="a_node10"><a xlink:href="../../d5/d24/class_c_crit_sec.html" target="_top" xlink:title="CCritSec">
<polygon fill="#ffffff" stroke="#000000" points="0,-136.5 0,-155.5 57,-155.5 57,-136.5 0,-136.5"/>
<text text-anchor="middle" x="28.5" y="-143.5" font-family="Helvetica,sans-Serif" font-size="10.00" fill="#000000">CCritSec</text>
</a>
</g>
</g>
<!-- Node25&#45;&gt;Node16 -->
<g id="edge9" class="edge">
<title>Node25&#45;&gt;Node16</title>
<path fill="none" stroke="#9a32cd" stroke-dasharray="5,2" d="M43.5547,-128.8126C60.0492,-110.9754 88.0977,-83.4332 117.5,-67 184.6482,-29.4704 275.9961,-16.4817 322.9145,-12.1169"/>
<polygon fill="#9a32cd" stroke="#9a32cd" points="40.9393,-126.4866 36.8259,-136.2504 46.1302,-131.1828 40.9393,-126.4866"/>
<text text-anchor="middle" x="139" y="-75.5" font-family="Helvetica,sans-Serif" font-size="10.00" fill="#000000"> m_pLock</text>
</g>
<!-- Node25&#45;&gt;Node26 -->
<g id="edge15" class="edge">
<title>Node25&#45;&gt;Node26</title>
<path fill="none" stroke="#9a32cd" stroke-dasharray="5,2" d="M53.4868,-131.423C67.8005,-123.4791 86.2887,-113.8921 103.5,-107 124.8118,-98.4658 149.5892,-91.262 169.1487,-86.1689"/>
<polygon fill="#9a32cd" stroke="#9a32cd" points="51.7266,-128.3974 44.7388,-136.3611 55.1677,-134.4932 51.7266,-128.3974"/>
<text text-anchor="middle" x="125" y="-110" font-family="Helvetica,sans-Serif" font-size="10.00" fill="#000000"> m_pLock</text>
</g>
<!-- Node26&#45;&gt;Node16 -->
<g id="edge10" class="edge">
<title>Node26&#45;&gt;Node16</title>
<path fill="none" stroke="#9a32cd" stroke-dasharray="5,2" d="M210.9776,-58.8627C214.8396,-51.3058 220.2824,-43.2022 227.5,-38 242.4975,-27.1904 290.5053,-18.6833 322.7408,-14.0011"/>
<polygon fill="#9a32cd" stroke="#9a32cd" points="207.6924,-57.635 206.7949,-68.1918 214.0798,-60.4989 207.6924,-57.635"/>
<text text-anchor="middle" x="249.5" y="-41" font-family="Helvetica,sans-Serif" font-size="10.00" fill="#000000"> m_pFilter</text>
</g>
<!-- Node27 -->
<g id="node12" class="node">
<title>Node27</title>
<polygon fill="#ffffff" stroke="#bfbfbf" points="75.5,-136.5 75.5,-155.5 139.5,-155.5 139.5,-136.5 75.5,-136.5"/>
<text text-anchor="middle" x="107.5" y="-143.5" font-family="Helvetica,sans-Serif" font-size="10.00" fill="#000000">IBaseFilter</text>
</g>
<!-- Node27&#45;&gt;Node26 -->
<g id="edge12" class="edge">
<title>Node27&#45;&gt;Node26</title>
<path fill="none" stroke="#191970" d="M129.4921,-130.4223C148.1736,-117.1895 174.3845,-98.6234 190.0806,-87.5054"/>
<polygon fill="#191970" stroke="#191970" points="127.3916,-127.621 121.2545,-136.2573 131.4378,-133.3331 127.3916,-127.621"/>
</g>
<!-- Node28 -->
<g id="node13" class="node">
<title>Node28</title>
<polygon fill="#ffffff" stroke="#bfbfbf" points="157.5,-136.5 157.5,-155.5 235.5,-155.5 235.5,-136.5 157.5,-136.5"/>
<text text-anchor="middle" x="196.5" y="-143.5" font-family="Helvetica,sans-Serif" font-size="10.00" fill="#000000">IAMovieSetup</text>
</g>
<!-- Node28&#45;&gt;Node26 -->
<g id="edge13" class="edge">
<title>Node28&#45;&gt;Node26</title>
<path fill="none" stroke="#191970" d="M198.5387,-126.1951C199.8403,-113.5514 201.4704,-97.7157 202.4989,-87.7247"/>
<polygon fill="#191970" stroke="#191970" points="195.0454,-125.9514 197.5029,-136.2573 202.0086,-126.6683 195.0454,-125.9514"/>
</g>
</g>
</svg>
