<?xml version="1.0" encoding="UTF-8" standalone="no"?>
<!DOCTYPE svg PUBLIC "-//W3C//DTD SVG 1.1//EN"
 "http://www.w3.org/Graphics/SVG/1.1/DTD/svg11.dtd">
<!-- Generated by graphviz version 2.43.0 (0)
 -->
<!-- Title: CBasePin Pages: 1 -->
<svg width="825pt" height="218pt"
 viewBox="0.00 0.00 825.00 218.00" xmlns="http://www.w3.org/2000/svg" xmlns:xlink="http://www.w3.org/1999/xlink">
<g id="graph0" class="graph" transform="scale(1 1) rotate(0) translate(4 214)">
<title>CBasePin</title>
<polygon fill="white" stroke="transparent" points="-4,4 -4,-214 821,-214 821,4 -4,4"/>
<!-- Node1 -->
<g id="node1" class="node">
<title>Node1</title>
<g id="a_node1"><a xlink:title=" ">
<polygon fill="#bfbfbf" stroke="black" points="300,-76.5 300,-95.5 362,-95.5 362,-76.5 300,-76.5"/>
<text text-anchor="middle" x="331" y="-83.5" font-family="Helvetica,sans-Serif" font-size="10.00">CBasePin</text>
</a>
</g>
</g>
<!-- Node7 -->
<g id="node7" class="node">
<title>Node7</title>
<g id="a_node7"><a xlink:href="../../d6/d58/class_c_base_input_pin.html" target="_top" xlink:title=" ">
<polygon fill="white" stroke="black" points="402,-133.5 402,-152.5 489,-152.5 489,-133.5 402,-133.5"/>
<text text-anchor="middle" x="445.5" y="-140.5" font-family="Helvetica,sans-Serif" font-size="10.00">CBaseInputPin</text>
</a>
</g>
</g>
<!-- Node1&#45;&gt;Node7 -->
<g id="edge6" class="edge">
<title>Node1&#45;&gt;Node7</title>
<path fill="none" stroke="midnightblue" d="M359.98,-100.18C380.45,-110.55 407.66,-124.33 425.61,-133.43"/>
<polygon fill="midnightblue" stroke="midnightblue" points="361.33,-96.94 350.83,-95.54 358.17,-103.18 361.33,-96.94"/>
</g>
<!-- Node12 -->
<g id="node12" class="node">
<title>Node12</title>
<g id="a_node12"><a xlink:href="../../dc/d8e/class_c_base_output_pin.html" target="_top" xlink:title=" ">
<polygon fill="white" stroke="black" points="398,-57.5 398,-76.5 493,-76.5 493,-57.5 398,-57.5"/>
<text text-anchor="middle" x="445.5" y="-64.5" font-family="Helvetica,sans-Serif" font-size="10.00">CBaseOutputPin</text>
</a>
</g>
</g>
<!-- Node1&#45;&gt;Node12 -->
<g id="edge11" class="edge">
<title>Node1&#45;&gt;Node12</title>
<path fill="none" stroke="midnightblue" d="M372.27,-79.2C380.53,-77.8 389.28,-76.33 397.74,-74.9"/>
<polygon fill="midnightblue" stroke="midnightblue" points="371.43,-75.79 362.15,-80.91 372.59,-82.69 371.43,-75.79"/>
</g>
<!-- Node2 -->
<g id="node2" class="node">
<title>Node2</title>
<g id="a_node2"><a xlink:href="../../d9/d89/class_c_unknown.html" target="_top" xlink:title=" ">
<polygon fill="white" stroke="black" points="184.5,-114.5 184.5,-133.5 253.5,-133.5 253.5,-114.5 184.5,-114.5"/>
<text text-anchor="middle" x="219" y="-121.5" font-family="Helvetica,sans-Serif" font-size="10.00">CUnknown</text>
</a>
</g>
</g>
<!-- Node2&#45;&gt;Node1 -->
<g id="edge1" class="edge">
<title>Node2&#45;&gt;Node1</title>
<path fill="none" stroke="midnightblue" d="M257.55,-111.03C272.2,-105.97 288.7,-100.27 302.25,-95.59"/>
<polygon fill="midnightblue" stroke="midnightblue" points="256.07,-107.84 247.76,-114.41 258.35,-114.45 256.07,-107.84"/>
</g>
<!-- Node3 -->
<g id="node3" class="node">
<title>Node3</title>
<g id="a_node3"><a xlink:title=" ">
<polygon fill="white" stroke="#bfbfbf" points="0,-133.5 0,-152.5 138,-152.5 138,-133.5 0,-133.5"/>
<text text-anchor="middle" x="69" y="-140.5" font-family="Helvetica,sans-Serif" font-size="10.00">INonDelegatingUnknown</text>
</a>
</g>
</g>
<!-- Node3&#45;&gt;Node2 -->
<g id="edge2" class="edge">
<title>Node3&#45;&gt;Node2</title>
<path fill="none" stroke="midnightblue" d="M148.45,-132.93C161.01,-131.32 173.41,-129.73 184.17,-128.34"/>
<polygon fill="midnightblue" stroke="midnightblue" points="147.84,-129.48 138.37,-134.22 148.73,-136.42 147.84,-129.48"/>
</g>
<!-- Node4 -->
<g id="node4" class="node">
<title>Node4</title>
<g id="a_node4"><a xlink:href="../../d1/d2d/class_c_base_object.html" target="_top" xlink:title=" ">
<polygon fill="white" stroke="black" points="29.5,-95.5 29.5,-114.5 108.5,-114.5 108.5,-95.5 29.5,-95.5"/>
<text text-anchor="middle" x="69" y="-102.5" font-family="Helvetica,sans-Serif" font-size="10.00">CBaseObject</text>
</a>
</g>
</g>
<!-- Node4&#45;&gt;Node2 -->
<g id="edge3" class="edge">
<title>Node4&#45;&gt;Node2</title>
<path fill="none" stroke="midnightblue" d="M118.82,-111.27C140.31,-114.03 165.02,-117.2 184.4,-119.69"/>
<polygon fill="midnightblue" stroke="midnightblue" points="119.25,-107.79 108.89,-109.99 118.36,-114.74 119.25,-107.79"/>
</g>
<!-- Node5 -->
<g id="node5" class="node">
<title>Node5</title>
<g id="a_node5"><a xlink:title=" ">
<polygon fill="white" stroke="#bfbfbf" points="201.5,-76.5 201.5,-95.5 236.5,-95.5 236.5,-76.5 201.5,-76.5"/>
<text text-anchor="middle" x="219" y="-83.5" font-family="Helvetica,sans-Serif" font-size="10.00">IPin</text>
</a>
</g>
</g>
<!-- Node5&#45;&gt;Node1 -->
<g id="edge4" class="edge">
<title>Node5&#45;&gt;Node1</title>
<path fill="none" stroke="midnightblue" d="M246.99,-86C262.99,-86 283.3,-86 299.82,-86"/>
<polygon fill="midnightblue" stroke="midnightblue" points="246.71,-82.5 236.71,-86 246.71,-89.5 246.71,-82.5"/>
</g>
<!-- Node6 -->
<g id="node6" class="node">
<title>Node6</title>
<g id="a_node6"><a xlink:title=" ">
<polygon fill="white" stroke="#bfbfbf" points="174,-38.5 174,-57.5 264,-57.5 264,-38.5 174,-38.5"/>
<text text-anchor="middle" x="219" y="-45.5" font-family="Helvetica,sans-Serif" font-size="10.00">IQualityControl</text>
</a>
</g>
</g>
<!-- Node6&#45;&gt;Node1 -->
<g id="edge5" class="edge">
<title>Node6&#45;&gt;Node1</title>
<path fill="none" stroke="midnightblue" d="M257.55,-60.97C272.2,-66.03 288.7,-71.73 302.25,-76.41"/>
<polygon fill="midnightblue" stroke="midnightblue" points="258.35,-57.55 247.76,-57.59 256.07,-64.16 258.35,-57.55"/>
</g>
<!-- Node8 -->
<g id="node8" class="node">
<title>Node8</title>
<g id="a_node8"><a xlink:href="../../da/dcf/class_c_rendered_input_pin.html" target="_top" xlink:title=" ">
<polygon fill="white" stroke="black" points="534,-190.5 534,-209.5 644,-209.5 644,-190.5 534,-190.5"/>
<text text-anchor="middle" x="589" y="-197.5" font-family="Helvetica,sans-Serif" font-size="10.00">CRenderedInputPin</text>
</a>
</g>
</g>
<!-- Node7&#45;&gt;Node8 -->
<g id="edge7" class="edge">
<title>Node7&#45;&gt;Node8</title>
<path fill="none" stroke="midnightblue" d="M474.75,-157.04C490.52,-164.61 510.63,-173.84 529,-181 537.62,-184.36 547.11,-187.61 555.91,-190.44"/>
<polygon fill="midnightblue" stroke="midnightblue" points="476.08,-153.79 465.55,-152.57 473.02,-160.09 476.08,-153.79"/>
</g>
<!-- Node9 -->
<g id="node9" class="node">
<title>Node9</title>
<g id="a_node9"><a xlink:href="../../d3/d06/class_c_renderer_input_pin.html" target="_top" xlink:title=" ">
<polygon fill="white" stroke="black" points="535.5,-152.5 535.5,-171.5 642.5,-171.5 642.5,-152.5 535.5,-152.5"/>
<text text-anchor="middle" x="589" y="-159.5" font-family="Helvetica,sans-Serif" font-size="10.00">CRendererInputPin</text>
</a>
</g>
</g>
<!-- Node7&#45;&gt;Node9 -->
<g id="edge8" class="edge">
<title>Node7&#45;&gt;Node9</title>
<path fill="none" stroke="midnightblue" d="M499.43,-150.11C511.16,-151.68 523.59,-153.35 535.31,-154.92"/>
<polygon fill="midnightblue" stroke="midnightblue" points="499.72,-146.61 489.34,-148.75 498.78,-153.55 499.72,-146.61"/>
</g>
<!-- Node10 -->
<g id="node10" class="node">
<title>Node10</title>
<g id="a_node10"><a xlink:href="../../d4/dd3/class_c_transform_input_pin.html" target="_top" xlink:title=" ">
<polygon fill="white" stroke="black" points="533,-114.5 533,-133.5 645,-133.5 645,-114.5 533,-114.5"/>
<text text-anchor="middle" x="589" y="-121.5" font-family="Helvetica,sans-Serif" font-size="10.00">CTransformInputPin</text>
</a>
</g>
</g>
<!-- Node7&#45;&gt;Node10 -->
<g id="edge9" class="edge">
<title>Node7&#45;&gt;Node10</title>
<path fill="none" stroke="midnightblue" d="M499.58,-135.87C510.5,-134.41 522.02,-132.86 533,-131.39"/>
<polygon fill="midnightblue" stroke="midnightblue" points="498.78,-132.45 489.34,-137.25 499.72,-139.39 498.78,-132.45"/>
</g>
<!-- Node11 -->
<g id="node11" class="node">
<title>Node11</title>
<g id="a_node11"><a xlink:href="../../d4/d7f/class_c_trans_in_place_input_pin.html" target="_top" xlink:title=" ">
<polygon fill="white" stroke="black" points="689,-114.5 689,-133.5 813,-133.5 813,-114.5 689,-114.5"/>
<text text-anchor="middle" x="751" y="-121.5" font-family="Helvetica,sans-Serif" font-size="10.00">CTransInPlaceInputPin</text>
</a>
</g>
</g>
<!-- Node10&#45;&gt;Node11 -->
<g id="edge10" class="edge">
<title>Node10&#45;&gt;Node11</title>
<path fill="none" stroke="midnightblue" d="M655.14,-124C666.27,-124 677.79,-124 688.8,-124"/>
<polygon fill="midnightblue" stroke="midnightblue" points="655.06,-120.5 645.06,-124 655.06,-127.5 655.06,-120.5"/>
</g>
<!-- Node13 -->
<g id="node13" class="node">
<title>Node13</title>
<g id="a_node13"><a xlink:href="../../df/d08/class_c_dynamic_output_pin.html" target="_top" xlink:title=" ">
<polygon fill="white" stroke="black" points="531.5,-76.5 531.5,-95.5 646.5,-95.5 646.5,-76.5 531.5,-76.5"/>
<text text-anchor="middle" x="589" y="-83.5" font-family="Helvetica,sans-Serif" font-size="10.00">CDynamicOutputPin</text>
</a>
</g>
</g>
<!-- Node12&#45;&gt;Node13 -->
<g id="edge12" class="edge">
<title>Node12&#45;&gt;Node13</title>
<path fill="none" stroke="midnightblue" d="M503.17,-74.61C512.49,-75.86 522.15,-77.16 531.47,-78.41"/>
<polygon fill="midnightblue" stroke="midnightblue" points="503.6,-71.14 493.22,-73.27 502.67,-78.07 503.6,-71.14"/>
</g>
<!-- Node14 -->
<g id="node14" class="node">
<title>Node14</title>
<g id="a_node14"><a xlink:href="../../de/dc3/class_c_source_stream.html" target="_top" xlink:title=" ">
<polygon fill="white" stroke="black" points="543,-38.5 543,-57.5 635,-57.5 635,-38.5 543,-38.5"/>
<text text-anchor="middle" x="589" y="-45.5" font-family="Helvetica,sans-Serif" font-size="10.00">CSourceStream</text>
</a>
</g>
</g>
<!-- Node12&#45;&gt;Node14 -->
<g id="edge13" class="edge">
<title>Node12&#45;&gt;Node14</title>
<path fill="none" stroke="midnightblue" d="M503.52,-59.34C516.58,-57.59 530.29,-55.75 542.77,-54.07"/>
<polygon fill="midnightblue" stroke="midnightblue" points="502.67,-55.93 493.22,-60.73 503.6,-62.86 502.67,-55.93"/>
</g>
<!-- Node15 -->
<g id="node15" class="node">
<title>Node15</title>
<g id="a_node15"><a xlink:href="../../d1/d80/class_c_transform_output_pin.html" target="_top" xlink:title=" ">
<polygon fill="white" stroke="black" points="529,-0.5 529,-19.5 649,-19.5 649,-0.5 529,-0.5"/>
<text text-anchor="middle" x="589" y="-7.5" font-family="Helvetica,sans-Serif" font-size="10.00">CTransformOutputPin</text>
</a>
</g>
</g>
<!-- Node12&#45;&gt;Node15 -->
<g id="edge14" class="edge">
<title>Node12&#45;&gt;Node15</title>
<path fill="none" stroke="midnightblue" d="M474.75,-52.96C490.52,-45.39 510.63,-36.16 529,-29 537.62,-25.64 547.11,-22.39 555.91,-19.56"/>
<polygon fill="midnightblue" stroke="midnightblue" points="473.02,-49.91 465.55,-57.43 476.08,-56.21 473.02,-49.91"/>
</g>
<!-- Node16 -->
<g id="node16" class="node">
<title>Node16</title>
<g id="a_node16"><a xlink:href="../../d0/d61/class_c_trans_in_place_output_pin.html" target="_top" xlink:title=" ">
<polygon fill="white" stroke="black" points="685,-0.5 685,-19.5 817,-19.5 817,-0.5 685,-0.5"/>
<text text-anchor="middle" x="751" y="-7.5" font-family="Helvetica,sans-Serif" font-size="10.00">CTransInPlaceOutputPin</text>
</a>
</g>
</g>
<!-- Node15&#45;&gt;Node16 -->
<g id="edge15" class="edge">
<title>Node15&#45;&gt;Node16</title>
<path fill="none" stroke="midnightblue" d="M659.37,-10C667.86,-10 676.51,-10 684.93,-10"/>
<polygon fill="midnightblue" stroke="midnightblue" points="659.12,-6.5 649.12,-10 659.12,-13.5 659.12,-6.5"/>
</g>
</g>
</svg>
