<?xml version="1.0" encoding="UTF-8" standalone="no"?>
<!DOCTYPE svg PUBLIC "-//W3C//DTD SVG 1.1//EN"
 "http://www.w3.org/Graphics/SVG/1.1/DTD/svg11.dtd">
<!-- Generated by graphviz version 2.43.0 (0)
 -->
<!-- Title: /home/tcbuilder/buildAgent/work/df8e8cce5bebfd58/libajantv2/ajantv2/src/ntv2devicefeatures.hpp Pages: 1 -->
<svg width="803pt" height="274pt"
 viewBox="0.00 0.00 802.95 274.00" xmlns="http://www.w3.org/2000/svg" xmlns:xlink="http://www.w3.org/1999/xlink">
<g id="graph0" class="graph" transform="scale(1 1) rotate(0) translate(4 270)">
<title>/home/tcbuilder/buildAgent/work/df8e8cce5bebfd58/libajantv2/ajantv2/src/ntv2devicefeatures.hpp</title>
<polygon fill="white" stroke="transparent" points="-4,4 -4,-270 798.95,-270 798.95,4 -4,4"/>
<!-- Node1 -->
<g id="node1" class="node">
<title>Node1</title>
<g id="a_node1"><a xlink:title="Contains implementations of NTV2DeviceCanDo... and NTV2DeviceGetNum... functions. This module is incl...">
<polygon fill="#bfbfbf" stroke="black" points="106,-224.5 106,-265.5 298,-265.5 298,-224.5 106,-224.5"/>
<text text-anchor="start" x="114" y="-253.5" font-family="Helvetica,sans-Serif" font-size="10.00">/home/tcbuilder/buildAgent</text>
<text text-anchor="start" x="114" y="-242.5" font-family="Helvetica,sans-Serif" font-size="10.00">/work/df8e8cce5bebfd58/libajantv2</text>
<text text-anchor="middle" x="202" y="-231.5" font-family="Helvetica,sans-Serif" font-size="10.00">/ajantv2/src/ntv2devicefeatures.hpp</text>
</a>
</g>
</g>
<!-- Node2 -->
<g id="node2" class="node">
<title>Node2</title>
<g id="a_node2"><a xlink:href="../../d4/dd7/ntv2publicinterface_8h.html" target="_top" xlink:title="Declares enums and structs used by all platform drivers and the SDK.">
<polygon fill="white" stroke="black" points="275,-168.5 275,-187.5 395,-187.5 395,-168.5 275,-168.5"/>
<text text-anchor="middle" x="335" y="-175.5" font-family="Helvetica,sans-Serif" font-size="10.00">ntv2publicinterface.h</text>
</a>
</g>
</g>
<!-- Node1&#45;&gt;Node2 -->
<g id="edge1" class="edge">
<title>Node1&#45;&gt;Node2</title>
<path fill="none" stroke="midnightblue" d="M241.9,-224.5C263.37,-214.01 289.27,-201.35 308.3,-192.05"/>
<polygon fill="midnightblue" stroke="midnightblue" points="309.85,-195.19 317.3,-187.65 306.77,-188.9 309.85,-195.19"/>
</g>
<!-- Node5 -->
<g id="node5" class="node">
<title>Node5</title>
<g id="a_node5"><a xlink:href="../../d6/d0c/ntv2enums_8h.html" target="_top" xlink:title="Enumerations for controlling NTV2 devices.">
<polygon fill="white" stroke="black" points="29,-112.5 29,-131.5 109,-131.5 109,-112.5 29,-112.5"/>
<text text-anchor="middle" x="69" y="-119.5" font-family="Helvetica,sans-Serif" font-size="10.00">ntv2enums.h</text>
</a>
</g>
</g>
<!-- Node1&#45;&gt;Node5 -->
<g id="edge20" class="edge">
<title>Node1&#45;&gt;Node5</title>
<path fill="none" stroke="midnightblue" d="M180.34,-224.29C154,-200.33 110.1,-160.39 86.04,-138.51"/>
<polygon fill="midnightblue" stroke="midnightblue" points="88.18,-135.72 78.43,-131.57 83.47,-140.89 88.18,-135.72"/>
</g>
<!-- Node3 -->
<g id="node3" class="node">
<title>Node3</title>
<g id="a_node3"><a xlink:href="../../db/de2/ajatypes_8h.html" target="_top" xlink:title="Declares the most fundamental data types used by NTV2. Since Windows NT was the first principal devel...">
<polygon fill="white" stroke="black" points="561,-56.5 561,-75.5 629,-75.5 629,-56.5 561,-56.5"/>
<text text-anchor="middle" x="595" y="-63.5" font-family="Helvetica,sans-Serif" font-size="10.00">ajatypes.h</text>
</a>
</g>
</g>
<!-- Node2&#45;&gt;Node3 -->
<g id="edge2" class="edge">
<title>Node2&#45;&gt;Node3</title>
<path fill="none" stroke="midnightblue" d="M395.12,-172.89C457.65,-167.41 550,-155.52 576,-132 588.92,-120.31 593.25,-100.37 594.6,-85.65"/>
<polygon fill="midnightblue" stroke="midnightblue" points="598.1,-85.81 595.15,-75.63 591.11,-85.42 598.1,-85.81"/>
</g>
<!-- Node2&#45;&gt;Node5 -->
<g id="edge4" class="edge">
<title>Node2&#45;&gt;Node5</title>
<path fill="none" stroke="midnightblue" d="M292.85,-168.44C245.71,-158.87 169.38,-143.38 119.19,-133.19"/>
<polygon fill="midnightblue" stroke="midnightblue" points="119.71,-129.72 109.21,-131.16 118.31,-136.58 119.71,-129.72"/>
</g>
<!-- Node7 -->
<g id="node7" class="node">
<title>Node7</title>
<g id="a_node7"><a xlink:href="../../d6/dd9/ajaexport_8h.html" target="_top" xlink:title="Defines the import/export macros for producing DLLs or LIBs.">
<polygon fill="white" stroke="black" points="0,-0.5 0,-19.5 72,-19.5 72,-0.5 0,-0.5"/>
<text text-anchor="middle" x="36" y="-7.5" font-family="Helvetica,sans-Serif" font-size="10.00">ajaexport.h</text>
</a>
</g>
</g>
<!-- Node2&#45;&gt;Node7 -->
<g id="edge17" class="edge">
<title>Node2&#45;&gt;Node7</title>
<path fill="none" stroke="midnightblue" d="M274.75,-177.37C192.71,-176.43 52.3,-169.25 20,-132 -5.13,-103.03 13.27,-54.55 26.21,-28.62"/>
<polygon fill="midnightblue" stroke="midnightblue" points="29.4,-30.07 30.96,-19.59 23.21,-26.81 29.4,-30.07"/>
</g>
<!-- Node8 -->
<g id="node8" class="node">
<title>Node8</title>
<g id="a_node8"><a xlink:title=" ">
<polygon fill="white" stroke="#bfbfbf" points="298,-0.5 298,-19.5 342,-19.5 342,-0.5 298,-0.5"/>
<text text-anchor="middle" x="320" y="-7.5" font-family="Helvetica,sans-Serif" font-size="10.00">string</text>
</a>
</g>
</g>
<!-- Node2&#45;&gt;Node8 -->
<g id="edge13" class="edge">
<title>Node2&#45;&gt;Node8</title>
<path fill="none" stroke="midnightblue" d="M395.21,-174.9C505.41,-170.44 730.47,-158.19 754,-132 810.03,-69.63 836.17,-116.25 638,-56 536.55,-25.16 410.35,-15.3 352.15,-12.28"/>
<polygon fill="midnightblue" stroke="midnightblue" points="352.25,-8.78 342.09,-11.79 351.91,-15.77 352.25,-8.78"/>
</g>
<!-- Node9 -->
<g id="node9" class="node">
<title>Node9</title>
<g id="a_node9"><a xlink:title=" ">
<polygon fill="white" stroke="#bfbfbf" points="127,-112.5 127,-131.5 187,-131.5 187,-112.5 127,-112.5"/>
<text text-anchor="middle" x="157" y="-119.5" font-family="Helvetica,sans-Serif" font-size="10.00">iostream</text>
</a>
</g>
</g>
<!-- Node2&#45;&gt;Node9 -->
<g id="edge9" class="edge">
<title>Node2&#45;&gt;Node9</title>
<path fill="none" stroke="midnightblue" d="M306.8,-168.44C276.59,-159.28 228.49,-144.69 194.97,-134.52"/>
<polygon fill="midnightblue" stroke="midnightblue" points="195.66,-131.07 185.07,-131.52 193.63,-137.77 195.66,-131.07"/>
</g>
<!-- Node10 -->
<g id="node10" class="node">
<title>Node10</title>
<g id="a_node10"><a xlink:title=" ">
<polygon fill="white" stroke="#bfbfbf" points="205,-112.5 205,-131.5 237,-131.5 237,-112.5 205,-112.5"/>
<text text-anchor="middle" x="221" y="-119.5" font-family="Helvetica,sans-Serif" font-size="10.00">set</text>
</a>
</g>
</g>
<!-- Node2&#45;&gt;Node10 -->
<g id="edge10" class="edge">
<title>Node2&#45;&gt;Node10</title>
<path fill="none" stroke="midnightblue" d="M316.94,-168.44C297.88,-159.42 267.7,-145.12 246.29,-134.98"/>
<polygon fill="midnightblue" stroke="midnightblue" points="247.67,-131.76 237.14,-130.64 244.67,-138.09 247.67,-131.76"/>
</g>
<!-- Node11 -->
<g id="node11" class="node">
<title>Node11</title>
<g id="a_node11"><a xlink:title=" ">
<polygon fill="white" stroke="#bfbfbf" points="255,-112.5 255,-131.5 293,-131.5 293,-112.5 255,-112.5"/>
<text text-anchor="middle" x="274" y="-119.5" font-family="Helvetica,sans-Serif" font-size="10.00">map</text>
</a>
</g>
</g>
<!-- Node2&#45;&gt;Node11 -->
<g id="edge11" class="edge">
<title>Node2&#45;&gt;Node11</title>
<path fill="none" stroke="midnightblue" d="M325.2,-168.32C316.18,-160.34 302.59,-148.31 291.68,-138.65"/>
<polygon fill="midnightblue" stroke="midnightblue" points="293.79,-135.84 283.98,-131.83 289.15,-141.08 293.79,-135.84"/>
</g>
<!-- Node12 -->
<g id="node12" class="node">
<title>Node12</title>
<g id="a_node12"><a xlink:title=" ">
<polygon fill="white" stroke="#bfbfbf" points="311.5,-112.5 311.5,-131.5 358.5,-131.5 358.5,-112.5 311.5,-112.5"/>
<text text-anchor="middle" x="335" y="-119.5" font-family="Helvetica,sans-Serif" font-size="10.00">vector</text>
</a>
</g>
</g>
<!-- Node2&#45;&gt;Node12 -->
<g id="edge12" class="edge">
<title>Node2&#45;&gt;Node12</title>
<path fill="none" stroke="midnightblue" d="M335,-168.08C335,-161.01 335,-150.86 335,-141.99"/>
<polygon fill="midnightblue" stroke="midnightblue" points="338.5,-141.75 335,-131.75 331.5,-141.75 338.5,-141.75"/>
</g>
<!-- Node13 -->
<g id="node13" class="node">
<title>Node13</title>
<g id="a_node13"><a xlink:title=" ">
<polygon fill="white" stroke="#bfbfbf" points="377,-112.5 377,-131.5 433,-131.5 433,-112.5 377,-112.5"/>
<text text-anchor="middle" x="405" y="-119.5" font-family="Helvetica,sans-Serif" font-size="10.00">iomanip</text>
</a>
</g>
</g>
<!-- Node2&#45;&gt;Node13 -->
<g id="edge14" class="edge">
<title>Node2&#45;&gt;Node13</title>
<path fill="none" stroke="midnightblue" d="M346.25,-168.32C356.8,-160.18 372.8,-147.84 385.44,-138.09"/>
<polygon fill="midnightblue" stroke="midnightblue" points="387.77,-140.71 393.55,-131.83 383.49,-135.17 387.77,-140.71"/>
</g>
<!-- Node14 -->
<g id="node14" class="node">
<title>Node14</title>
<g id="a_node14"><a xlink:title=" ">
<polygon fill="white" stroke="#bfbfbf" points="451,-112.5 451,-131.5 495,-131.5 495,-112.5 451,-112.5"/>
<text text-anchor="middle" x="473" y="-119.5" font-family="Helvetica,sans-Serif" font-size="10.00">bitset</text>
</a>
</g>
</g>
<!-- Node2&#45;&gt;Node14 -->
<g id="edge15" class="edge">
<title>Node2&#45;&gt;Node14</title>
<path fill="none" stroke="midnightblue" d="M356.87,-168.44C379.78,-159.48 415.98,-145.31 441.87,-135.18"/>
<polygon fill="midnightblue" stroke="midnightblue" points="443.2,-138.42 451.24,-131.52 440.65,-131.9 443.2,-138.42"/>
</g>
<!-- Node15 -->
<g id="node15" class="node">
<title>Node15</title>
<g id="a_node15"><a xlink:title=" ">
<polygon fill="white" stroke="#bfbfbf" points="513.5,-112.5 513.5,-131.5 566.5,-131.5 566.5,-112.5 513.5,-112.5"/>
<text text-anchor="middle" x="540" y="-119.5" font-family="Helvetica,sans-Serif" font-size="10.00">string.h</text>
</a>
</g>
</g>
<!-- Node2&#45;&gt;Node15 -->
<g id="edge16" class="edge">
<title>Node2&#45;&gt;Node15</title>
<path fill="none" stroke="midnightblue" d="M367.48,-168.44C404.48,-158.7 464.79,-142.81 503.42,-132.64"/>
<polygon fill="midnightblue" stroke="midnightblue" points="504.44,-135.99 513.22,-130.05 502.66,-129.22 504.44,-135.99"/>
</g>
<!-- Node16 -->
<g id="node16" class="node">
<title>Node16</title>
<g id="a_node16"><a xlink:href="../../da/df0/ntv2virtualregisters_8h.html" target="_top" xlink:title="Declares enums for virtual registers used in all platform drivers and the SDK.">
<polygon fill="white" stroke="black" points="623,-112.5 623,-131.5 745,-131.5 745,-112.5 623,-112.5"/>
<text text-anchor="middle" x="684" y="-119.5" font-family="Helvetica,sans-Serif" font-size="10.00">ntv2virtualregisters.h</text>
</a>
</g>
</g>
<!-- Node2&#45;&gt;Node16 -->
<g id="edge18" class="edge">
<title>Node2&#45;&gt;Node16</title>
<path fill="none" stroke="midnightblue" d="M390.3,-168.44C452.33,-158.85 552.86,-143.29 618.7,-133.1"/>
<polygon fill="midnightblue" stroke="midnightblue" points="619.61,-136.5 628.96,-131.52 618.54,-129.59 619.61,-136.5"/>
</g>
<!-- Node4 -->
<g id="node4" class="node">
<title>Node4</title>
<g id="a_node4"><a xlink:title=" ">
<polygon fill="white" stroke="#bfbfbf" points="568.5,-0.5 568.5,-19.5 621.5,-19.5 621.5,-0.5 568.5,-0.5"/>
<text text-anchor="middle" x="595" y="-7.5" font-family="Helvetica,sans-Serif" font-size="10.00">stdint.h</text>
</a>
</g>
</g>
<!-- Node3&#45;&gt;Node4 -->
<g id="edge3" class="edge">
<title>Node3&#45;&gt;Node4</title>
<path fill="none" stroke="midnightblue" d="M595,-56.08C595,-49.01 595,-38.86 595,-29.99"/>
<polygon fill="midnightblue" stroke="midnightblue" points="598.5,-29.75 595,-19.75 591.5,-29.75 598.5,-29.75"/>
</g>
<!-- Node5&#45;&gt;Node3 -->
<g id="edge5" class="edge">
<title>Node5&#45;&gt;Node3</title>
<path fill="none" stroke="midnightblue" d="M109.07,-113.35C112.08,-112.86 115.09,-112.4 118,-112 276.58,-90 466.34,-75.64 550.75,-69.87"/>
<polygon fill="midnightblue" stroke="midnightblue" points="551.01,-73.36 560.76,-69.2 550.54,-66.38 551.01,-73.36"/>
</g>
<!-- Node6 -->
<g id="node6" class="node">
<title>Node6</title>
<g id="a_node6"><a xlink:href="../../d6/db1/ntv2version_8h.html" target="_top" xlink:title="Defines for the NTV2 SDK version number, used by ajantv2/includes/ntv2enums.h. See the ajantv2/includ...">
<polygon fill="white" stroke="black" points="29.5,-56.5 29.5,-75.5 112.5,-75.5 112.5,-56.5 29.5,-56.5"/>
<text text-anchor="middle" x="71" y="-63.5" font-family="Helvetica,sans-Serif" font-size="10.00">ntv2version.h</text>
</a>
</g>
</g>
<!-- Node5&#45;&gt;Node6 -->
<g id="edge6" class="edge">
<title>Node5&#45;&gt;Node6</title>
<path fill="none" stroke="midnightblue" d="M69.33,-112.08C69.59,-105.01 69.97,-94.86 70.3,-85.99"/>
<polygon fill="midnightblue" stroke="midnightblue" points="73.8,-85.87 70.68,-75.75 66.81,-85.61 73.8,-85.87"/>
</g>
<!-- Node6&#45;&gt;Node7 -->
<g id="edge7" class="edge">
<title>Node6&#45;&gt;Node7</title>
<path fill="none" stroke="midnightblue" d="M65.22,-56.08C60.33,-48.53 53.17,-37.49 47.17,-28.23"/>
<polygon fill="midnightblue" stroke="midnightblue" points="50.05,-26.24 41.67,-19.75 44.17,-30.05 50.05,-26.24"/>
</g>
<!-- Node6&#45;&gt;Node8 -->
<g id="edge8" class="edge">
<title>Node6&#45;&gt;Node8</title>
<path fill="none" stroke="midnightblue" d="M110.45,-56.44C159.56,-45.79 242.48,-27.81 287.9,-17.96"/>
<polygon fill="midnightblue" stroke="midnightblue" points="288.76,-21.36 297.79,-15.82 287.28,-14.52 288.76,-21.36"/>
</g>
<!-- Node16&#45;&gt;Node3 -->
<g id="edge19" class="edge">
<title>Node16&#45;&gt;Node3</title>
<path fill="none" stroke="midnightblue" d="M669.7,-112.32C655.82,-103.9 634.51,-90.97 618.2,-81.07"/>
<polygon fill="midnightblue" stroke="midnightblue" points="619.63,-77.85 609.26,-75.65 616,-83.83 619.63,-77.85"/>
</g>
</g>
</svg>
