<?xml version="1.0" encoding="UTF-8" standalone="no"?>
<!DOCTYPE svg PUBLIC "-//W3C//DTD SVG 1.1//EN"
 "http://www.w3.org/Graphics/SVG/1.1/DTD/svg11.dtd">
<!-- Generated by graphviz version 2.43.0 (0)
 -->
<!-- Title: HevcMessageCommand Pages: 1 -->
<svg width="270pt" height="95pt"
 viewBox="0.00 0.00 270.00 95.00" xmlns="http://www.w3.org/2000/svg" xmlns:xlink="http://www.w3.org/1999/xlink">
<g id="graph0" class="graph" transform="scale(1 1) rotate(0) translate(4 91)">
<title>HevcMessageCommand</title>
<polygon fill="white" stroke="transparent" points="-4,4 -4,-91 266,-91 266,4 -4,4"/>
<!-- Node1 -->
<g id="node1" class="node">
<title>Node1</title>
<g id="a_node1"><a xlink:title=" ">
<polygon fill="#bfbfbf" stroke="black" points="65,-0.5 65,-19.5 200,-19.5 200,-0.5 65,-0.5"/>
<text text-anchor="middle" x="132.5" y="-7.5" font-family="Helvetica,sans-Serif" font-size="10.00">HevcMessageCommand</text>
</a>
</g>
</g>
<!-- Node2 -->
<g id="node2" class="node">
<title>Node2</title>
<g id="a_node2"><a xlink:href="../../dc/df9/struct_hevc_device_command.html" target="_top" xlink:title=" ">
<polygon fill="white" stroke="black" points="0,-67.5 0,-86.5 125,-86.5 125,-67.5 0,-67.5"/>
<text text-anchor="middle" x="62.5" y="-74.5" font-family="Helvetica,sans-Serif" font-size="10.00">HevcDeviceCommand</text>
</a>
</g>
</g>
<!-- Node2&#45;&gt;Node1 -->
<g id="edge1" class="edge">
<title>Node2&#45;&gt;Node1</title>
<path fill="none" stroke="#9a32cd" stroke-dasharray="5,2" d="M79.35,-60.36C93.11,-47.58 112.05,-29.99 123.21,-19.63"/>
<polygon fill="#9a32cd" stroke="#9a32cd" points="76.89,-57.86 71.94,-67.23 81.65,-62.99 76.89,-57.86"/>
<text text-anchor="middle" x="115" y="-41" font-family="Helvetica,sans-Serif" font-size="10.00"> data</text>
</g>
<!-- Node3 -->
<g id="node3" class="node">
<title>Node3</title>
<g id="a_node3"><a xlink:href="../../d2/d9b/structhevc_message_header.html" target="_top" xlink:title=" ">
<polygon fill="white" stroke="black" points="143,-67.5 143,-86.5 262,-86.5 262,-67.5 143,-67.5"/>
<text text-anchor="middle" x="202.5" y="-74.5" font-family="Helvetica,sans-Serif" font-size="10.00">hevcMessageHeader</text>
</a>
</g>
</g>
<!-- Node3&#45;&gt;Node1 -->
<g id="edge2" class="edge">
<title>Node3&#45;&gt;Node1</title>
<path fill="none" stroke="#9a32cd" stroke-dasharray="5,2" d="M185.65,-60.36C171.89,-47.58 152.95,-29.99 141.79,-19.63"/>
<polygon fill="#9a32cd" stroke="#9a32cd" points="183.35,-62.99 193.06,-67.23 188.11,-57.86 183.35,-62.99"/>
<text text-anchor="middle" x="190" y="-41" font-family="Helvetica,sans-Serif" font-size="10.00"> header</text>
</g>
</g>
</svg>
