<?xml version="1.0" encoding="UTF-8" standalone="no"?>
<!DOCTYPE svg PUBLIC "-//W3C//DTD SVG 1.1//EN"
 "http://www.w3.org/Graphics/SVG/1.1/DTD/svg11.dtd">
<!-- Generated by graphviz version 2.43.0 (0)
 -->
<!-- Title: CNTV2MailBox Pages: 1 -->
<svg width="347pt" height="353pt"
 viewBox="0.00 0.00 346.50 353.00" xmlns="http://www.w3.org/2000/svg" xmlns:xlink="http://www.w3.org/1999/xlink">
<g id="graph0" class="graph" transform="scale(1 1) rotate(0) translate(4 349)">
<title>CNTV2MailBox</title>
<polygon fill="white" stroke="transparent" points="-4,4 -4,-349 342.5,-349 342.5,4 -4,4"/>
<!-- Node1 -->
<g id="node1" class="node">
<title>Node1</title>
<g id="a_node1"><a xlink:title=" ">
<polygon fill="#bfbfbf" stroke="black" points="160,-0.5 160,-19.5 249,-19.5 249,-0.5 160,-0.5"/>
<text text-anchor="middle" x="204.5" y="-7.5" font-family="Helvetica,sans-Serif" font-size="10.00">CNTV2MailBox</text>
</a>
</g>
</g>
<!-- Node2 -->
<g id="node2" class="node">
<title>Node2</title>
<g id="a_node2"><a xlink:href="../../d7/dfb/class_c_n_t_v2_card.html" target="_top" xlink:title="I interrogate and control an AJA video/audio capture/playout device.">
<polygon fill="white" stroke="black" points="130.5,-67.5 130.5,-86.5 202.5,-86.5 202.5,-67.5 130.5,-67.5"/>
<text text-anchor="middle" x="166.5" y="-74.5" font-family="Helvetica,sans-Serif" font-size="10.00">CNTV2Card</text>
</a>
</g>
</g>
<!-- Node2&#45;&gt;Node1 -->
<g id="edge1" class="edge">
<title>Node2&#45;&gt;Node1</title>
<path fill="none" stroke="#9a32cd" stroke-dasharray="5,2" d="M167.5,-56.87C168.47,-50.55 170.26,-43.68 173.5,-38 177.67,-30.68 184.58,-24.38 190.82,-19.7"/>
<polygon fill="#9a32cd" stroke="#9a32cd" points="163.97,-57.01 166.5,-67.3 170.94,-57.68 163.97,-57.01"/>
<text text-anchor="middle" x="197" y="-41" font-family="Helvetica,sans-Serif" font-size="10.00"> mDevice</text>
</g>
<!-- Node3 -->
<g id="node3" class="node">
<title>Node3</title>
<g id="a_node3"><a xlink:href="../../dc/dfc/class_c_n_t_v2_mac_driver_interface.html" target="_top" xlink:title="A Mac&#45;specific implementation of CNTV2DriverInterface.">
<polygon fill="white" stroke="black" points="32,-134.5 32,-153.5 175,-153.5 175,-134.5 32,-134.5"/>
<text text-anchor="middle" x="103.5" y="-141.5" font-family="Helvetica,sans-Serif" font-size="10.00">CNTV2MacDriverInterface</text>
</a>
</g>
</g>
<!-- Node3&#45;&gt;Node2 -->
<g id="edge2" class="edge">
<title>Node3&#45;&gt;Node2</title>
<path fill="none" stroke="midnightblue" d="M119.01,-127C131.37,-114.25 148.19,-96.89 158.14,-86.63"/>
<polygon fill="midnightblue" stroke="midnightblue" points="116.44,-124.62 112,-134.23 121.47,-129.49 116.44,-124.62"/>
</g>
<!-- Node4 -->
<g id="node4" class="node">
<title>Node4</title>
<g id="a_node4"><a xlink:href="../../d0/dbc/class_c_n_t_v2_driver_interface.html" target="_top" xlink:title="I&#39;m the base class that undergirds the platform&#45;specific derived classes (from which CNTV2Card is ult...">
<polygon fill="white" stroke="black" points="42,-191.5 42,-210.5 165,-210.5 165,-191.5 42,-191.5"/>
<text text-anchor="middle" x="103.5" y="-198.5" font-family="Helvetica,sans-Serif" font-size="10.00">CNTV2DriverInterface</text>
</a>
</g>
</g>
<!-- Node4&#45;&gt;Node3 -->
<g id="edge3" class="edge">
<title>Node4&#45;&gt;Node3</title>
<path fill="none" stroke="midnightblue" d="M103.5,-181.12C103.5,-171.82 103.5,-161.06 103.5,-153.71"/>
<polygon fill="midnightblue" stroke="midnightblue" points="100,-181.41 103.5,-191.41 107,-181.41 100,-181.41"/>
</g>
<!-- Node5 -->
<g id="node5" class="node">
<title>Node5</title>
<g id="a_node5"><a xlink:href="../../d2/d94/class_n_t_v2_r_p_c_client_a_p_i.html" target="_top" xlink:title="Base class of objects that can connect to, and operate remote or fake devices. I have three general A...">
<polygon fill="white" stroke="black" points="0,-258.5 0,-277.5 107,-277.5 107,-258.5 0,-258.5"/>
<text text-anchor="middle" x="53.5" y="-265.5" font-family="Helvetica,sans-Serif" font-size="10.00">NTV2RPCClientAPI</text>
</a>
</g>
</g>
<!-- Node5&#45;&gt;Node4 -->
<g id="edge4" class="edge">
<title>Node5&#45;&gt;Node4</title>
<path fill="none" stroke="#9a32cd" stroke-dasharray="5,2" d="M65.61,-250.2C70.48,-243.54 76.18,-235.86 81.5,-229 86.24,-222.88 91.74,-216.13 96.06,-210.91"/>
<polygon fill="#9a32cd" stroke="#9a32cd" points="62.65,-248.31 59.61,-258.46 68.32,-252.42 62.65,-248.31"/>
<text text-anchor="middle" x="106.5" y="-232" font-family="Helvetica,sans-Serif" font-size="10.00"> _pRPCAPI</text>
</g>
<!-- Node6 -->
<g id="node6" class="node">
<title>Node6</title>
<g id="a_node6"><a xlink:href="../../d6/d01/class_n_t_v2_dictionary.html" target="_top" xlink:title="A simple set of zero or more key/value pairs. (New in SDK 16.3)">
<polygon fill="white" stroke="black" points="7,-325.5 7,-344.5 100,-344.5 100,-325.5 7,-325.5"/>
<text text-anchor="middle" x="53.5" y="-332.5" font-family="Helvetica,sans-Serif" font-size="10.00">NTV2Dictionary</text>
</a>
</g>
</g>
<!-- Node6&#45;&gt;Node5 -->
<g id="edge5" class="edge">
<title>Node6&#45;&gt;Node5</title>
<path fill="none" stroke="#9a32cd" stroke-dasharray="5,2" d="M53.5,-315.04C53.5,-302.67 53.5,-287.12 53.5,-277.63"/>
<polygon fill="#9a32cd" stroke="#9a32cd" points="50,-315.23 53.5,-325.23 57,-315.23 50,-315.23"/>
<text text-anchor="middle" x="98" y="-299" font-family="Helvetica,sans-Serif" font-size="10.00"> mConnectParams</text>
</g>
<!-- Node7 -->
<g id="node7" class="node">
<title>Node7</title>
<g id="a_node7"><a xlink:href="../../d9/df4/class_a_j_a_lock.html" target="_top" xlink:title=" ">
<polygon fill="white" stroke="black" points="125.5,-258.5 125.5,-277.5 181.5,-277.5 181.5,-258.5 125.5,-258.5"/>
<text text-anchor="middle" x="153.5" y="-265.5" font-family="Helvetica,sans-Serif" font-size="10.00">AJALock</text>
</a>
</g>
</g>
<!-- Node7&#45;&gt;Node4 -->
<g id="edge6" class="edge">
<title>Node7&#45;&gt;Node4</title>
<path fill="none" stroke="#9a32cd" stroke-dasharray="5,2" d="M144.7,-249.48C141.01,-242.8 136.43,-235.29 131.5,-229 126.26,-222.3 119.39,-215.65 113.77,-210.63"/>
<polygon fill="#9a32cd" stroke="#9a32cd" points="141.65,-251.2 149.41,-258.42 147.84,-247.94 141.65,-251.2"/>
<text text-anchor="middle" x="182.5" y="-232" font-family="Helvetica,sans-Serif" font-size="10.00"> mRegWritesLock</text>
</g>
<!-- Node8 -->
<g id="node8" class="node">
<title>Node8</title>
<g id="a_node8"><a xlink:href="../../d5/dc4/class_n_t_v2_buffer.html" target="_top" xlink:title="A generic user&#45;space buffer object that has an address and a length. Used most often to share an arbi...">
<polygon fill="white" stroke="black" points="193.5,-134.5 193.5,-153.5 265.5,-153.5 265.5,-134.5 193.5,-134.5"/>
<text text-anchor="middle" x="229.5" y="-141.5" font-family="Helvetica,sans-Serif" font-size="10.00">NTV2Buffer</text>
</a>
</g>
</g>
<!-- Node8&#45;&gt;Node2 -->
<g id="edge7" class="edge">
<title>Node8&#45;&gt;Node2</title>
<path fill="none" stroke="#9a32cd" stroke-dasharray="5,2" d="M213.99,-127C201.63,-114.25 184.81,-96.89 174.86,-86.63"/>
<polygon fill="#9a32cd" stroke="#9a32cd" points="211.53,-129.49 221,-134.23 216.56,-124.62 211.53,-129.49"/>
<text text-anchor="middle" x="240" y="-108" font-family="Helvetica,sans-Serif" font-size="10.00"> NULL_POINTER</text>
</g>
<!-- Node9 -->
<g id="node9" class="node">
<title>Node9</title>
<g id="a_node9"><a xlink:title=" ">
<polygon fill="white" stroke="#bfbfbf" points="220.5,-67.5 220.5,-86.5 264.5,-86.5 264.5,-67.5 220.5,-67.5"/>
<text text-anchor="middle" x="242.5" y="-74.5" font-family="Helvetica,sans-Serif" font-size="10.00">string</text>
</a>
</g>
</g>
<!-- Node9&#45;&gt;Node1 -->
<g id="edge8" class="edge">
<title>Node9&#45;&gt;Node1</title>
<path fill="none" stroke="#9a32cd" stroke-dasharray="5,2" d="M232.21,-58.14C228.53,-51.78 224.34,-44.56 220.5,-38 216.97,-31.98 212.97,-25.23 209.86,-19.99"/>
<polygon fill="#9a32cd" stroke="#9a32cd" points="229.43,-60.32 237.46,-67.23 235.49,-56.82 229.43,-60.32"/>
<text text-anchor="middle" x="282.5" y="-41" font-family="Helvetica,sans-Serif" font-size="10.00"> mIpInternalErrorString</text>
</g>
</g>
</svg>
