<?xml version="1.0" encoding="UTF-8" standalone="no"?>
<!DOCTYPE svg PUBLIC "-//W3C//DTD SVG 1.1//EN"
 "http://www.w3.org/Graphics/SVG/1.1/DTD/svg11.dtd">
<!-- Generated by graphviz version 2.43.0 (0)
 -->
<!-- Title: CNTV2Caption708ServiceInfo Pages: 1 -->
<svg width="168pt" height="152pt"
 viewBox="0.00 0.00 168.00 152.00" xmlns="http://www.w3.org/2000/svg" xmlns:xlink="http://www.w3.org/1999/xlink">
<g id="graph0" class="graph" transform="scale(1 1) rotate(0) translate(4 148)">
<title>CNTV2Caption708ServiceInfo</title>
<polygon fill="white" stroke="transparent" points="-4,4 -4,-148 164,-148 164,4 -4,4"/>
<!-- Node1 -->
<g id="node1" class="node">
<title>Node1</title>
<g id="a_node1"><a xlink:title="I am a container for all of the CEA&#45;708 &quot;Service Information&quot; that a decoder or encoder needs to keep...">
<polygon fill="#bfbfbf" stroke="black" points="0,-0.5 0,-19.5 160,-19.5 160,-0.5 0,-0.5"/>
<text text-anchor="middle" x="80" y="-7.5" font-family="Helvetica,sans-Serif" font-size="10.00">CNTV2Caption708ServiceInfo</text>
</a>
</g>
</g>
<!-- Node2 -->
<g id="node2" class="node">
<title>Node2</title>
<g id="a_node2"><a xlink:href="../../d6/d59/class_c_n_t_v2_caption_log_config.html" target="_top" xlink:title=" ">
<polygon fill="white" stroke="black" points="12.5,-57.5 12.5,-76.5 147.5,-76.5 147.5,-57.5 12.5,-57.5"/>
<text text-anchor="middle" x="80" y="-64.5" font-family="Helvetica,sans-Serif" font-size="10.00">CNTV2CaptionLogConfig</text>
</a>
</g>
</g>
<!-- Node2&#45;&gt;Node1 -->
<g id="edge1" class="edge">
<title>Node2&#45;&gt;Node1</title>
<path fill="none" stroke="midnightblue" d="M80,-47.12C80,-37.82 80,-27.06 80,-19.71"/>
<polygon fill="midnightblue" stroke="midnightblue" points="76.5,-47.41 80,-57.41 83.5,-47.41 76.5,-47.41"/>
</g>
<!-- Node3 -->
<g id="node3" class="node">
<title>Node3</title>
<g id="a_node3"><a xlink:title=" ">
<polygon fill="white" stroke="#bfbfbf" points="58,-124.5 58,-143.5 102,-143.5 102,-124.5 58,-124.5"/>
<text text-anchor="middle" x="80" y="-131.5" font-family="Helvetica,sans-Serif" font-size="10.00">string</text>
</a>
</g>
</g>
<!-- Node3&#45;&gt;Node2 -->
<g id="edge2" class="edge">
<title>Node3&#45;&gt;Node2</title>
<path fill="none" stroke="#9a32cd" stroke-dasharray="5,2" d="M80,-114.04C80,-101.67 80,-86.12 80,-76.63"/>
<polygon fill="#9a32cd" stroke="#9a32cd" points="76.5,-114.23 80,-124.23 83.5,-114.23 76.5,-114.23"/>
<text text-anchor="middle" x="108.5" y="-98" font-family="Helvetica,sans-Serif" font-size="10.00"> mLogLabel</text>
</g>
</g>
</svg>
