<?xml version="1.0" encoding="UTF-8" standalone="no"?>
<!DOCTYPE svg PUBLIC "-//W3C//DTD SVG 1.1//EN"
 "http://www.w3.org/Graphics/SVG/1.1/DTD/svg11.dtd">
<!-- Generated by graphviz version 2.40.1 (0)
 -->
<!-- Title: /home/tcbuilder/buildAgent/work/df8e8cce5bebfd58/libajantv2/demos/ntv2qtmultiinput/main.cpp Pages: 1 -->
<svg width="2280pt" height="778pt"
 viewBox="0.00 0.00 2280.01 778.00" xmlns="http://www.w3.org/2000/svg" xmlns:xlink="http://www.w3.org/1999/xlink">
<g id="graph0" class="graph" transform="scale(1 1) rotate(0) translate(4 774)">
<title>/home/tcbuilder/buildAgent/work/df8e8cce5bebfd58/libajantv2/demos/ntv2qtmultiinput/main.cpp</title>
<polygon fill="#ffffff" stroke="transparent" points="-4,4 -4,-774 2276.0081,-774 2276.0081,4 -4,4"/>
<!-- Node0 -->
<g id="node1" class="node">
<title>Node0</title>
<polygon fill="#bfbfbf" stroke="#000000" points="1813.4373,-728.5 1813.4373,-769.5 1980.4373,-769.5 1980.4373,-728.5 1813.4373,-728.5"/>
<text text-anchor="start" x="1821.4373" y="-757.5" font-family="Helvetica,sans-Serif" font-size="10.00" fill="#000000">/home/tcbuilder/buildAgent</text>
<text text-anchor="start" x="1821.4373" y="-746.5" font-family="Helvetica,sans-Serif" font-size="10.00" fill="#000000">/work/df8e8cce5bebfd58/libajantv2</text>
<text text-anchor="middle" x="1896.9373" y="-735.5" font-family="Helvetica,sans-Serif" font-size="10.00" fill="#000000">/demos/ntv2qtmultiinput/main.cpp</text>
</g>
<!-- Node1 -->
<g id="node2" class="node">
<title>Node1</title>
<g id="a_node2"><a xlink:href="../../d4/da1/ntv2qtmultiinput_8h.html" target="_top" xlink:title="Header file for NTV2QtMultiInput demonstration application. Demonstrates how to capture several SDI A...">
<polygon fill="#ffffff" stroke="#000000" points="1810.9373,-672.5 1810.9373,-691.5 1904.9373,-691.5 1904.9373,-672.5 1810.9373,-672.5"/>
<text text-anchor="middle" x="1857.9373" y="-679.5" font-family="Helvetica,sans-Serif" font-size="10.00" fill="#000000">ntv2qtmultiinput.h</text>
</a>
</g>
</g>
<!-- Node0&#45;&gt;Node1 -->
<g id="edge1" class="edge">
<title>Node0&#45;&gt;Node1</title>
<path fill="none" stroke="#191970" d="M1884.8112,-728.168C1879.6774,-719.3484 1873.7439,-709.155 1868.7602,-700.5933"/>
<polygon fill="#191970" stroke="#191970" points="1871.686,-698.6622 1863.6304,-691.7805 1865.6362,-702.1837 1871.686,-698.6622"/>
</g>
<!-- Node7 -->
<g id="node8" class="node">
<title>Node7</title>
<polygon fill="#ffffff" stroke="#bfbfbf" points="1360.9373,-560.5 1360.9373,-579.5 1408.9373,-579.5 1408.9373,-560.5 1360.9373,-560.5"/>
<text text-anchor="middle" x="1384.9373" y="-567.5" font-family="Helvetica,sans-Serif" font-size="10.00" fill="#000000">QtCore</text>
</g>
<!-- Node0&#45;&gt;Node7 -->
<g id="edge134" class="edge">
<title>Node0&#45;&gt;Node7</title>
<path fill="none" stroke="#191970" d="M1818.6351,-728.4896C1743.0077,-707.8861 1625.7253,-673.8336 1526.9373,-636 1486.2867,-620.4317 1440.935,-598.5182 1412.6663,-584.2876"/>
<polygon fill="#191970" stroke="#191970" points="1413.9173,-580.9978 1403.4154,-579.5975 1410.7519,-587.2412 1413.9173,-580.9978"/>
</g>
<!-- Node8 -->
<g id="node9" class="node">
<title>Node8</title>
<polygon fill="#ffffff" stroke="#bfbfbf" points="1904.4373,-560.5 1904.4373,-579.5 1967.4373,-579.5 1967.4373,-560.5 1904.4373,-560.5"/>
<text text-anchor="middle" x="1935.9373" y="-567.5" font-family="Helvetica,sans-Serif" font-size="10.00" fill="#000000">QtWidgets</text>
</g>
<!-- Node0&#45;&gt;Node8 -->
<g id="edge135" class="edge">
<title>Node0&#45;&gt;Node8</title>
<path fill="none" stroke="#191970" d="M1903.7154,-728.3044C1907.0821,-717.553 1911.0384,-704.1543 1913.9373,-692 1922.4719,-656.2159 1929.4174,-613.828 1933.091,-589.608"/>
<polygon fill="#191970" stroke="#191970" points="1936.5753,-589.9721 1934.5835,-579.5662 1929.6513,-588.943 1936.5753,-589.9721"/>
</g>
<!-- Node58 -->
<g id="node59" class="node">
<title>Node58</title>
<g id="a_node59"><a xlink:href="../../db/d16/debug_8h.html" target="_top" xlink:title="Declares the AJADebug class. ">
<polygon fill="#ffffff" stroke="#000000" points="1692.4373,-224.5 1692.4373,-243.5 1815.4373,-243.5 1815.4373,-224.5 1692.4373,-224.5"/>
<text text-anchor="middle" x="1753.9373" y="-231.5" font-family="Helvetica,sans-Serif" font-size="10.00" fill="#000000">ajabase/system/debug.h</text>
</a>
</g>
</g>
<!-- Node0&#45;&gt;Node58 -->
<g id="edge123" class="edge">
<title>Node0&#45;&gt;Node58</title>
<path fill="none" stroke="#191970" d="M1930.9174,-728.3956C1979.6309,-695.9636 2060.7586,-629.5054 2034.9373,-560 1981.2152,-415.3916 1831.3846,-292.0006 1775.4019,-249.6561"/>
<polygon fill="#191970" stroke="#191970" points="1777.3573,-246.7481 1767.2519,-243.5651 1773.1668,-252.3552 1777.3573,-246.7481"/>
</g>
<!-- Node2 -->
<g id="node3" class="node">
<title>Node2</title>
<g id="a_node3"><a xlink:href="../../db/de2/ajatypes_8h.html" target="_top" xlink:title="Declares the most fundamental data types used by NTV2. Since Windows NT was the first principal devel...">
<polygon fill="#ffffff" stroke="#000000" points="1825.9373,-56.5 1825.9373,-75.5 1887.9373,-75.5 1887.9373,-56.5 1825.9373,-56.5"/>
<text text-anchor="middle" x="1856.9373" y="-63.5" font-family="Helvetica,sans-Serif" font-size="10.00" fill="#000000">ajatypes.h</text>
</a>
</g>
</g>
<!-- Node1&#45;&gt;Node2 -->
<g id="edge2" class="edge">
<title>Node1&#45;&gt;Node2</title>
<path fill="none" stroke="#191970" d="M1905.3136,-679.168C2013.7954,-671.3884 2270.9373,-645.0341 2270.9373,-570 2270.9373,-570 2270.9373,-570 2270.9373,-178 2270.9373,-147.4754 2275.2204,-131.7395 2251.9373,-112 2225.3208,-89.4346 1994.3924,-73.8213 1898.455,-68.253"/>
<polygon fill="#191970" stroke="#191970" points="1898.4363,-64.7463 1888.2527,-67.6693 1898.0364,-71.7349 1898.4363,-64.7463"/>
</g>
<!-- Node5 -->
<g id="node6" class="node">
<title>Node5</title>
<g id="a_node6"><a xlink:href="../../df/d65/ajapreviewwidget_8h.html" target="_top" xlink:title="ajapreviewwidget.h">
<polygon fill="#ffffff" stroke="#000000" points="1807.9373,-616.5 1807.9373,-635.5 1907.9373,-635.5 1907.9373,-616.5 1807.9373,-616.5"/>
<text text-anchor="middle" x="1857.9373" y="-623.5" font-family="Helvetica,sans-Serif" font-size="10.00" fill="#000000">ajapreviewwidget.h</text>
</a>
</g>
</g>
<!-- Node1&#45;&gt;Node5 -->
<g id="edge5" class="edge">
<title>Node1&#45;&gt;Node5</title>
<path fill="none" stroke="#191970" d="M1857.9373,-672.2455C1857.9373,-664.9382 1857.9373,-654.6944 1857.9373,-645.7046"/>
<polygon fill="#191970" stroke="#191970" points="1861.4374,-645.6426 1857.9373,-635.6427 1854.4374,-645.6427 1861.4374,-645.6426"/>
</g>
<!-- Node12 -->
<g id="node13" class="node">
<title>Node12</title>
<g id="a_node13"><a xlink:href="../../df/d4b/ntv2card_8h.html" target="_top" xlink:title="Declares the CNTV2Card class. ">
<polygon fill="#ffffff" stroke="#000000" points="1097.9373,-504.5 1097.9373,-523.5 1159.9373,-523.5 1159.9373,-504.5 1097.9373,-504.5"/>
<text text-anchor="middle" x="1128.9373" y="-511.5" font-family="Helvetica,sans-Serif" font-size="10.00" fill="#000000">ntv2card.h</text>
</a>
</g>
</g>
<!-- Node1&#45;&gt;Node12 -->
<g id="edge13" class="edge">
<title>Node1&#45;&gt;Node12</title>
<path fill="none" stroke="#191970" d="M1810.8543,-678.2857C1660.2458,-665.9918 1197.2069,-624.846 1147.9373,-580 1135.1486,-568.3596 1130.7521,-548.7254 1129.3435,-533.8909"/>
<polygon fill="#191970" stroke="#191970" points="1132.8257,-533.4778 1128.7593,-523.6944 1125.8371,-533.8782 1132.8257,-533.4778"/>
</g>
<!-- Node41 -->
<g id="node42" class="node">
<title>Node41</title>
<g id="a_node42"><a xlink:href="../../d9/d49/types_8h.html" target="_top" xlink:title="Declares common types used in the ajabase library. ">
<polygon fill="#ffffff" stroke="#000000" points="2116.9373,-112.5 2116.9373,-131.5 2242.9373,-131.5 2242.9373,-112.5 2116.9373,-112.5"/>
<text text-anchor="middle" x="2179.9373" y="-119.5" font-family="Helvetica,sans-Serif" font-size="10.00" fill="#000000">ajabase/common/types.h</text>
</a>
</g>
</g>
<!-- Node1&#45;&gt;Node41 -->
<g id="edge122" class="edge">
<title>Node1&#45;&gt;Node41</title>
<path fill="none" stroke="#191970" d="M1905.096,-675.2738C1992.9704,-661.4077 2172.9373,-626.1551 2172.9373,-570 2172.9373,-570 2172.9373,-570 2172.9373,-234 2172.9373,-201.6486 2175.8825,-164.1429 2177.9521,-141.7814"/>
<polygon fill="#191970" stroke="#191970" points="2181.4602,-141.8651 2178.9343,-131.5758 2174.4923,-141.1945 2181.4602,-141.8651"/>
</g>
<!-- Node50 -->
<g id="node51" class="node">
<title>Node50</title>
<g id="a_node51"><a xlink:href="../../d6/d6a/ntv2devicescanner_8h.html" target="_top" xlink:title="Declares the CNTV2DeviceScanner class. ">
<polygon fill="#ffffff" stroke="#000000" points="1236.9373,-560.5 1236.9373,-579.5 1342.9373,-579.5 1342.9373,-560.5 1236.9373,-560.5"/>
<text text-anchor="middle" x="1289.9373" y="-567.5" font-family="Helvetica,sans-Serif" font-size="10.00" fill="#000000">ntv2devicescanner.h</text>
</a>
</g>
</g>
<!-- Node1&#45;&gt;Node50 -->
<g id="edge98" class="edge">
<title>Node1&#45;&gt;Node50</title>
<path fill="none" stroke="#191970" d="M1810.732,-677.4447C1746.2095,-670.7636 1627.0553,-656.8003 1526.9373,-636 1456.2252,-621.309 1375.5269,-597.2305 1328.8851,-582.5753"/>
<polygon fill="#191970" stroke="#191970" points="1329.7755,-579.1861 1319.1856,-579.5089 1327.6654,-585.8605 1329.7755,-579.1861"/>
</g>
<!-- Node52 -->
<g id="node53" class="node">
<title>Node52</title>
<g id="a_node53"><a xlink:href="../../d7/d25/ntv2framegrabber_8h.html" target="_top" xlink:title="Header file for the NTV2FrameGrabber class. ">
<polygon fill="#ffffff" stroke="#000000" points="1535.9373,-616.5 1535.9373,-635.5 1635.9373,-635.5 1635.9373,-616.5 1535.9373,-616.5"/>
<text text-anchor="middle" x="1585.9373" y="-623.5" font-family="Helvetica,sans-Serif" font-size="10.00" fill="#000000">ntv2framegrabber.h</text>
</a>
</g>
</g>
<!-- Node1&#45;&gt;Node52 -->
<g id="edge103" class="edge">
<title>Node1&#45;&gt;Node52</title>
<path fill="none" stroke="#191970" d="M1811.4879,-672.4369C1764.6438,-662.7925 1692.2834,-647.8948 1642.2111,-637.5858"/>
<polygon fill="#191970" stroke="#191970" points="1642.6955,-634.1122 1632.1951,-635.5237 1641.2839,-640.9684 1642.6955,-634.1122"/>
</g>
<!-- Node3 -->
<g id="node4" class="node">
<title>Node3</title>
<g id="a_node4"><a xlink:href="../../db/d40/ntv2deprecate_8h.html" target="_top" xlink:title="Deprecation control macros. ">
<polygon fill="#ffffff" stroke="#000000" points="1843.9373,-.5 1843.9373,-19.5 1929.9373,-19.5 1929.9373,-.5 1843.9373,-.5"/>
<text text-anchor="middle" x="1886.9373" y="-7.5" font-family="Helvetica,sans-Serif" font-size="10.00" fill="#000000">ntv2deprecate.h</text>
</a>
</g>
</g>
<!-- Node2&#45;&gt;Node3 -->
<g id="edge3" class="edge">
<title>Node2&#45;&gt;Node3</title>
<path fill="none" stroke="#191970" d="M1862.1629,-56.2455C1866.2496,-48.617 1872.0508,-37.7881 1877.0122,-28.5267"/>
<polygon fill="#191970" stroke="#191970" points="1880.1345,-30.1103 1881.7715,-19.6427 1873.9641,-26.8047 1880.1345,-30.1103"/>
</g>
<!-- Node4 -->
<g id="node5" class="node">
<title>Node4</title>
<polygon fill="#ffffff" stroke="#bfbfbf" points="1743.4373,-.5 1743.4373,-19.5 1792.4373,-19.5 1792.4373,-.5 1743.4373,-.5"/>
<text text-anchor="middle" x="1767.9373" y="-7.5" font-family="Helvetica,sans-Serif" font-size="10.00" fill="#000000">stdint.h</text>
</g>
<!-- Node2&#45;&gt;Node4 -->
<g id="edge4" class="edge">
<title>Node2&#45;&gt;Node4</title>
<path fill="none" stroke="#191970" d="M1841.4347,-56.2455C1827.7793,-47.6534 1807.6716,-35.0014 1791.9384,-25.1018"/>
<polygon fill="#191970" stroke="#191970" points="1793.5901,-22.006 1783.2622,-19.6427 1789.8622,-27.9307 1793.5901,-22.006"/>
</g>
<!-- Node5&#45;&gt;Node2 -->
<g id="edge12" class="edge">
<title>Node5&#45;&gt;Node2</title>
<path fill="none" stroke="#191970" d="M1908.3338,-618.9657C1954.3488,-611.5028 2017.7415,-598.2602 2034.9373,-580 2072.8229,-539.7693 2058.9373,-513.2614 2058.9373,-458 2058.9373,-458 2058.9373,-458 2058.9373,-402 2058.9373,-297.9991 2090.4672,-266.7826 2057.9373,-168 2048.2889,-138.7013 2042.2314,-129.6554 2016.9373,-112 1981.3903,-87.188 1932.5754,-75.66 1898.2408,-70.3672"/>
<polygon fill="#191970" stroke="#191970" points="1898.4752,-66.8652 1888.0809,-68.9169 1897.486,-73.795 1898.4752,-66.8652"/>
</g>
<!-- Node6 -->
<g id="node7" class="node">
<title>Node6</title>
<polygon fill="#ffffff" stroke="#bfbfbf" points="1742.9373,-560.5 1742.9373,-579.5 1816.9373,-579.5 1816.9373,-560.5 1742.9373,-560.5"/>
<text text-anchor="middle" x="1779.9373" y="-567.5" font-family="Helvetica,sans-Serif" font-size="10.00" fill="#000000">QBasicTimer</text>
</g>
<!-- Node5&#45;&gt;Node6 -->
<g id="edge6" class="edge">
<title>Node5&#45;&gt;Node6</title>
<path fill="none" stroke="#191970" d="M1844.3507,-616.2455C1832.6068,-607.814 1815.4174,-595.4729 1801.7491,-585.6598"/>
<polygon fill="#191970" stroke="#191970" points="1803.5326,-582.6316 1793.3681,-579.6427 1799.4502,-588.3179 1803.5326,-582.6316"/>
</g>
<!-- Node5&#45;&gt;Node7 -->
<g id="edge7" class="edge">
<title>Node5&#45;&gt;Node7</title>
<path fill="none" stroke="#191970" d="M1807.65,-623.8532C1727.2764,-619.7446 1564.91,-608.6682 1418.9845,-579.8675"/>
<polygon fill="#191970" stroke="#191970" points="1419.4462,-576.3904 1408.9529,-577.854 1418.0686,-583.2535 1419.4462,-576.3904"/>
</g>
<!-- Node5&#45;&gt;Node8 -->
<g id="edge8" class="edge">
<title>Node5&#45;&gt;Node8</title>
<path fill="none" stroke="#191970" d="M1871.5238,-616.2455C1883.2677,-607.814 1900.4571,-595.4729 1914.1255,-585.6598"/>
<polygon fill="#191970" stroke="#191970" points="1916.4244,-588.3179 1922.5064,-579.6427 1912.3419,-582.6316 1916.4244,-588.3179"/>
</g>
<!-- Node9 -->
<g id="node10" class="node">
<title>Node9</title>
<polygon fill="#ffffff" stroke="#bfbfbf" points="1670.9373,-560.5 1670.9373,-579.5 1724.9373,-579.5 1724.9373,-560.5 1670.9373,-560.5"/>
<text text-anchor="middle" x="1697.9373" y="-567.5" font-family="Helvetica,sans-Serif" font-size="10.00" fill="#000000">QThread</text>
</g>
<!-- Node5&#45;&gt;Node9 -->
<g id="edge9" class="edge">
<title>Node5&#45;&gt;Node9</title>
<path fill="none" stroke="#191970" d="M1830.4323,-616.3733C1804.0571,-607.1419 1764.0521,-593.1402 1734.9015,-582.9375"/>
<polygon fill="#191970" stroke="#191970" points="1735.6782,-579.5012 1725.0833,-579.5011 1733.3657,-586.1082 1735.6782,-579.5012"/>
</g>
<!-- Node10 -->
<g id="node11" class="node">
<title>Node10</title>
<polygon fill="#ffffff" stroke="#bfbfbf" points="1985.9373,-560.5 1985.9373,-579.5 2025.9373,-579.5 2025.9373,-560.5 1985.9373,-560.5"/>
<text text-anchor="middle" x="2005.9373" y="-567.5" font-family="Helvetica,sans-Serif" font-size="10.00" fill="#000000">QList</text>
</g>
<!-- Node5&#45;&gt;Node10 -->
<g id="edge10" class="edge">
<title>Node5&#45;&gt;Node10</title>
<path fill="none" stroke="#191970" d="M1883.3794,-616.3733C1909.1421,-606.6252 1948.9632,-591.5578 1976.175,-581.2614"/>
<polygon fill="#191970" stroke="#191970" points="1977.4663,-584.515 1985.5805,-577.7026 1974.989,-577.968 1977.4663,-584.515"/>
</g>
<!-- Node11 -->
<g id="node12" class="node">
<title>Node11</title>
<polygon fill="#ffffff" stroke="#bfbfbf" points="1835.4373,-560.5 1835.4373,-579.5 1886.4373,-579.5 1886.4373,-560.5 1835.4373,-560.5"/>
<text text-anchor="middle" x="1860.9373" y="-567.5" font-family="Helvetica,sans-Serif" font-size="10.00" fill="#000000">QRectF</text>
</g>
<!-- Node5&#45;&gt;Node11 -->
<g id="edge11" class="edge">
<title>Node5&#45;&gt;Node11</title>
<path fill="none" stroke="#191970" d="M1858.4598,-616.2455C1858.8513,-608.9382 1859.4001,-598.6944 1859.8817,-589.7046"/>
<polygon fill="#191970" stroke="#191970" points="1863.3806,-589.8156 1860.4207,-579.6427 1856.3907,-589.4411 1863.3806,-589.8156"/>
</g>
<!-- Node13 -->
<g id="node14" class="node">
<title>Node13</title>
<g id="a_node14"><a xlink:href="../../d3/d7d/ntv2macdriverinterface_8h.html" target="_top" xlink:title="Implements the MacOS&#45;specific flavor of CNTV2DriverInterface. ">
<polygon fill="#ffffff" stroke="#000000" points="807.9373,-448.5 807.9373,-467.5 931.9373,-467.5 931.9373,-448.5 807.9373,-448.5"/>
<text text-anchor="middle" x="869.9373" y="-455.5" font-family="Helvetica,sans-Serif" font-size="10.00" fill="#000000">ntv2macdriverinterface.h</text>
</a>
</g>
</g>
<!-- Node12&#45;&gt;Node13 -->
<g id="edge14" class="edge">
<title>Node12&#45;&gt;Node13</title>
<path fill="none" stroke="#191970" d="M1097.6958,-507.2451C1054.7208,-497.9532 976.7236,-481.0889 924.1274,-469.7168"/>
<polygon fill="#191970" stroke="#191970" points="924.8046,-466.2824 914.2907,-467.5899 923.3252,-473.1243 924.8046,-466.2824"/>
</g>
<!-- Node33 -->
<g id="node34" class="node">
<title>Node33</title>
<g id="a_node34"><a xlink:href="../../d0/d81/ntv2utils_8h.html" target="_top" xlink:title="Declares numerous NTV2 utility functions. ">
<polygon fill="#ffffff" stroke="#000000" points="769.9373,-280.5 769.9373,-299.5 831.9373,-299.5 831.9373,-280.5 769.9373,-280.5"/>
<text text-anchor="middle" x="800.9373" y="-287.5" font-family="Helvetica,sans-Serif" font-size="10.00" fill="#000000">ntv2utils.h</text>
</a>
</g>
</g>
<!-- Node12&#45;&gt;Node33 -->
<g id="edge95" class="edge">
<title>Node12&#45;&gt;Node33</title>
<path fill="none" stroke="#191970" d="M1114.8435,-504.375C1063.5368,-469.3363 886.4418,-348.3933 823.4205,-305.3544"/>
<polygon fill="#191970" stroke="#191970" points="825.2104,-302.3385 814.9785,-299.5891 821.2627,-308.1191 825.2104,-302.3385"/>
</g>
<!-- Node46 -->
<g id="node47" class="node">
<title>Node46</title>
<g id="a_node47"><a xlink:href="../../dc/d95/ntv2signalrouter_8h.html" target="_top" xlink:title="Declares CNTV2SignalRouter class. ">
<polygon fill="#ffffff" stroke="#000000" points="893.4373,-224.5 893.4373,-243.5 986.4373,-243.5 986.4373,-224.5 893.4373,-224.5"/>
<text text-anchor="middle" x="939.9373" y="-231.5" font-family="Helvetica,sans-Serif" font-size="10.00" fill="#000000">ntv2signalrouter.h</text>
</a>
</g>
</g>
<!-- Node12&#45;&gt;Node46 -->
<g id="edge88" class="edge">
<title>Node12&#45;&gt;Node46</title>
<path fill="none" stroke="#191970" d="M1143.9173,-504.2468C1168.5569,-486.8872 1214.9373,-448.0891 1214.9373,-402 1214.9373,-402 1214.9373,-402 1214.9373,-346 1214.9373,-315.3494 1217.828,-300.3832 1194.9373,-280 1166.3158,-254.5138 1062.834,-242.5761 996.8194,-237.4419"/>
<polygon fill="#191970" stroke="#191970" points="996.7965,-233.9305 986.5634,-236.6753 996.2747,-240.911 996.7965,-233.9305"/>
</g>
<!-- Node49 -->
<g id="node50" class="node">
<title>Node49</title>
<g id="a_node50"><a xlink:href="../../d8/d58/ntv2devicecapabilities_8h.html" target="_top" xlink:title="Declares the DeviceCapabilities class. ">
<polygon fill="#ffffff" stroke="#000000" points="668.4373,-448.5 668.4373,-467.5 789.4373,-467.5 789.4373,-448.5 668.4373,-448.5"/>
<text text-anchor="middle" x="728.9373" y="-455.5" font-family="Helvetica,sans-Serif" font-size="10.00" fill="#000000">ntv2devicecapabilities.h</text>
</a>
</g>
</g>
<!-- Node12&#45;&gt;Node49 -->
<g id="edge96" class="edge">
<title>Node12&#45;&gt;Node49</title>
<path fill="none" stroke="#191970" d="M1097.5368,-509.6591C1040.5304,-501.7706 915.9444,-484.4947 799.7759,-468.1146"/>
<polygon fill="#191970" stroke="#191970" points="800.0327,-464.6163 789.6418,-466.6849 799.0548,-471.5476 800.0327,-464.6163"/>
</g>
<!-- Node14 -->
<g id="node15" class="node">
<title>Node14</title>
<g id="a_node15"><a xlink:href="../../d4/dd7/ntv2publicinterface_8h.html" target="_top" xlink:title="Declares enums and structs used by all platform drivers and the SDK. ">
<polygon fill="#ffffff" stroke="#000000" points="613.4373,-168.5 613.4373,-187.5 720.4373,-187.5 720.4373,-168.5 613.4373,-168.5"/>
<text text-anchor="middle" x="666.9373" y="-175.5" font-family="Helvetica,sans-Serif" font-size="10.00" fill="#000000">ntv2publicinterface.h</text>
</a>
</g>
</g>
<!-- Node13&#45;&gt;Node14 -->
<g id="edge15" class="edge">
<title>Node13&#45;&gt;Node14</title>
<path fill="none" stroke="#191970" d="M823.1803,-448.4988C781.0076,-439.3278 722.6665,-424.9636 702.9373,-412 649.5692,-376.9332 645.4018,-354.9898 612.9373,-300 594.9959,-269.6102 572.5202,-254.6933 589.9373,-224 598.1958,-209.4463 613.0889,-199.0054 627.5913,-191.7891"/>
<polygon fill="#191970" stroke="#191970" points="629.3455,-194.8359 636.9914,-187.5017 626.4407,-188.4671 629.3455,-194.8359"/>
</g>
<!-- Node27 -->
<g id="node28" class="node">
<title>Node27</title>
<g id="a_node28"><a xlink:href="../../da/d23/ntv2macpublicinterface_8h.html" target="_top" xlink:title="Declares MacOS&#45;only enums used by the Mac driver and the SDK. ">
<polygon fill="#ffffff" stroke="#000000" points="1443.4373,-392.5 1443.4373,-411.5 1568.4373,-411.5 1568.4373,-392.5 1443.4373,-392.5"/>
<text text-anchor="middle" x="1505.9373" y="-399.5" font-family="Helvetica,sans-Serif" font-size="10.00" fill="#000000">ntv2macpublicinterface.h</text>
</a>
</g>
</g>
<!-- Node13&#45;&gt;Node27 -->
<g id="edge33" class="edge">
<title>Node13&#45;&gt;Node27</title>
<path fill="none" stroke="#191970" d="M932.0776,-452.5285C1050.1893,-442.1287 1306.5424,-419.5568 1432.7453,-408.4446"/>
<polygon fill="#191970" stroke="#191970" points="1433.4199,-411.8988 1443.0743,-407.5351 1432.8058,-404.9258 1433.4199,-411.8988"/>
</g>
<!-- Node29 -->
<g id="node30" class="node">
<title>Node29</title>
<g id="a_node30"><a xlink:href="../../d4/dc0/ntv2driverinterface_8h.html" target="_top" xlink:title="Declares the CNTV2DriverInterface base class. ">
<polygon fill="#ffffff" stroke="#000000" points="712.4373,-392.5 712.4373,-411.5 817.4373,-411.5 817.4373,-392.5 712.4373,-392.5"/>
<text text-anchor="middle" x="764.9373" y="-399.5" font-family="Helvetica,sans-Serif" font-size="10.00" fill="#000000">ntv2driverinterface.h</text>
</a>
</g>
</g>
<!-- Node13&#45;&gt;Node29 -->
<g id="edge36" class="edge">
<title>Node13&#45;&gt;Node29</title>
<path fill="none" stroke="#191970" d="M851.6477,-448.2455C835.161,-439.4527 810.7021,-426.4079 791.9607,-416.4125"/>
<polygon fill="#191970" stroke="#191970" points="793.4879,-413.2604 783.0173,-411.6427 790.1937,-419.4368 793.4879,-413.2604"/>
</g>
<!-- Node14&#45;&gt;Node2 -->
<g id="edge16" class="edge">
<title>Node14&#45;&gt;Node2</title>
<path fill="none" stroke="#191970" d="M682.0142,-168.3357C706.7426,-153.0772 757.9743,-123.9165 805.9373,-112 905.0514,-87.3749 1633.2704,-70.6653 1815.625,-66.8374"/>
<polygon fill="#191970" stroke="#191970" points="1815.9387,-70.3318 1825.8636,-66.6241 1815.7928,-63.3333 1815.9387,-70.3318"/>
</g>
<!-- Node15 -->
<g id="node16" class="node">
<title>Node15</title>
<g id="a_node16"><a xlink:href="../../d6/d0c/ntv2enums_8h.html" target="_top" xlink:title="Enumerations for controlling NTV2 devices. ">
<polygon fill="#ffffff" stroke="#000000" points="300.4373,-112.5 300.4373,-131.5 373.4373,-131.5 373.4373,-112.5 300.4373,-112.5"/>
<text text-anchor="middle" x="336.9373" y="-119.5" font-family="Helvetica,sans-Serif" font-size="10.00" fill="#000000">ntv2enums.h</text>
</a>
</g>
</g>
<!-- Node14&#45;&gt;Node15 -->
<g id="edge17" class="edge">
<title>Node14&#45;&gt;Node15</title>
<path fill="none" stroke="#191970" d="M613.3684,-169.6604C557.1386,-160.7913 466.2016,-146.1215 387.9373,-132 386.4944,-131.7397 385.0292,-131.4721 383.5503,-131.1992"/>
<polygon fill="#191970" stroke="#191970" points="384.1581,-127.7522 373.6833,-129.3427 382.8637,-134.6315 384.1581,-127.7522"/>
</g>
<!-- Node17 -->
<g id="node18" class="node">
<title>Node17</title>
<g id="a_node18"><a xlink:href="../../d6/dd9/ajaexport_8h.html" target="_top" xlink:title="Defines the import/export macros for producing DLLs or LIBs. ">
<polygon fill="#ffffff" stroke="#000000" points="71.4373,-.5 71.4373,-19.5 136.4373,-19.5 136.4373,-.5 71.4373,-.5"/>
<text text-anchor="middle" x="103.9373" y="-7.5" font-family="Helvetica,sans-Serif" font-size="10.00" fill="#000000">ajaexport.h</text>
</a>
</g>
</g>
<!-- Node14&#45;&gt;Node17 -->
<g id="edge30" class="edge">
<title>Node14&#45;&gt;Node17</title>
<path fill="none" stroke="#191970" d="M635.0548,-168.4862C539.17,-139.8741 253.4264,-54.6078 145.6774,-22.4553"/>
<polygon fill="#191970" stroke="#191970" points="146.4014,-19.0189 135.8181,-19.5133 144.3998,-25.7266 146.4014,-19.0189"/>
</g>
<!-- Node18 -->
<g id="node19" class="node">
<title>Node18</title>
<polygon fill="#ffffff" stroke="#bfbfbf" points="495.4373,-.5 495.4373,-19.5 536.4373,-19.5 536.4373,-.5 495.4373,-.5"/>
<text text-anchor="middle" x="515.9373" y="-7.5" font-family="Helvetica,sans-Serif" font-size="10.00" fill="#000000">string</text>
</g>
<!-- Node14&#45;&gt;Node18 -->
<g id="edge26" class="edge">
<title>Node14&#45;&gt;Node18</title>
<path fill="none" stroke="#191970" d="M625.4659,-168.4923C591.3608,-159.816 546.7871,-146.2127 534.9373,-132 510.7832,-103.0296 510.8571,-56.2462 513.2644,-29.8242"/>
<polygon fill="#191970" stroke="#191970" points="516.7796,-29.8833 514.4155,-19.5556 509.8232,-29.1034 516.7796,-29.8833"/>
</g>
<!-- Node19 -->
<g id="node20" class="node">
<title>Node19</title>
<polygon fill="#ffffff" stroke="#bfbfbf" points="814.9373,-112.5 814.9373,-131.5 868.9373,-131.5 868.9373,-112.5 814.9373,-112.5"/>
<text text-anchor="middle" x="841.9373" y="-119.5" font-family="Helvetica,sans-Serif" font-size="10.00" fill="#000000">iostream</text>
</g>
<!-- Node14&#45;&gt;Node19 -->
<g id="edge22" class="edge">
<title>Node14&#45;&gt;Node19</title>
<path fill="none" stroke="#191970" d="M697.0208,-168.3733C726.9143,-158.8073 772.8155,-144.119 804.9264,-133.8435"/>
<polygon fill="#191970" stroke="#191970" points="806.3722,-137.0557 814.8297,-130.6744 804.2387,-130.3888 806.3722,-137.0557"/>
</g>
<!-- Node20 -->
<g id="node21" class="node">
<title>Node20</title>
<polygon fill="#ffffff" stroke="#bfbfbf" points="924.9373,-112.5 924.9373,-131.5 954.9373,-131.5 954.9373,-112.5 924.9373,-112.5"/>
<text text-anchor="middle" x="939.9373" y="-119.5" font-family="Helvetica,sans-Serif" font-size="10.00" fill="#000000">set</text>
</g>
<!-- Node14&#45;&gt;Node20 -->
<g id="edge23" class="edge">
<title>Node14&#45;&gt;Node20</title>
<path fill="none" stroke="#191970" d="M713.5574,-168.4369C771.7849,-156.4928 869.2921,-136.4913 914.9413,-127.1274"/>
<polygon fill="#191970" stroke="#191970" points="915.7807,-130.5282 924.8734,-125.09 914.374,-123.6709 915.7807,-130.5282"/>
</g>
<!-- Node21 -->
<g id="node22" class="node">
<title>Node21</title>
<polygon fill="#ffffff" stroke="#bfbfbf" points="985.4373,-112.5 985.4373,-131.5 1020.4373,-131.5 1020.4373,-112.5 985.4373,-112.5"/>
<text text-anchor="middle" x="1002.9373" y="-119.5" font-family="Helvetica,sans-Serif" font-size="10.00" fill="#000000">map</text>
</g>
<!-- Node14&#45;&gt;Node21 -->
<g id="edge24" class="edge">
<title>Node14&#45;&gt;Node21</title>
<path fill="none" stroke="#191970" d="M720.6011,-171.2887C780.2995,-163.4518 879.4732,-149.3269 963.9373,-132 967.6476,-131.2389 971.5346,-130.3519 975.3572,-129.4265"/>
<polygon fill="#191970" stroke="#191970" points="976.3234,-132.7924 985.1599,-126.9471 974.6069,-126.0061 976.3234,-132.7924"/>
</g>
<!-- Node22 -->
<g id="node23" class="node">
<title>Node22</title>
<polygon fill="#ffffff" stroke="#bfbfbf" points="1087.9373,-112.5 1087.9373,-131.5 1131.9373,-131.5 1131.9373,-112.5 1087.9373,-112.5"/>
<text text-anchor="middle" x="1109.9373" y="-119.5" font-family="Helvetica,sans-Serif" font-size="10.00" fill="#000000">vector</text>
</g>
<!-- Node14&#45;&gt;Node22 -->
<g id="edge25" class="edge">
<title>Node14&#45;&gt;Node22</title>
<path fill="none" stroke="#191970" d="M720.8149,-171.1893C813.7808,-159.4374 1001.6186,-135.6926 1077.2702,-126.1295"/>
<polygon fill="#191970" stroke="#191970" points="1078.1111,-129.5511 1087.5932,-124.8245 1077.2332,-122.6064 1078.1111,-129.5511"/>
</g>
<!-- Node23 -->
<g id="node24" class="node">
<title>Node23</title>
<polygon fill="#ffffff" stroke="#bfbfbf" points="543.9373,-112.5 543.9373,-131.5 593.9373,-131.5 593.9373,-112.5 543.9373,-112.5"/>
<text text-anchor="middle" x="568.9373" y="-119.5" font-family="Helvetica,sans-Serif" font-size="10.00" fill="#000000">iomanip</text>
</g>
<!-- Node14&#45;&gt;Node23 -->
<g id="edge27" class="edge">
<title>Node14&#45;&gt;Node23</title>
<path fill="none" stroke="#191970" d="M649.867,-168.2455C634.6902,-159.5731 612.2752,-146.7645 594.881,-136.825"/>
<polygon fill="#191970" stroke="#191970" points="596.2309,-133.5653 585.8119,-131.6427 592.7579,-139.643 596.2309,-133.5653"/>
</g>
<!-- Node24 -->
<g id="node25" class="node">
<title>Node24</title>
<polygon fill="#ffffff" stroke="#bfbfbf" points="612.4373,-112.5 612.4373,-131.5 653.4373,-131.5 653.4373,-112.5 612.4373,-112.5"/>
<text text-anchor="middle" x="632.9373" y="-119.5" font-family="Helvetica,sans-Serif" font-size="10.00" fill="#000000">bitset</text>
</g>
<!-- Node14&#45;&gt;Node24 -->
<g id="edge28" class="edge">
<title>Node14&#45;&gt;Node24</title>
<path fill="none" stroke="#191970" d="M661.0149,-168.2455C656.3346,-160.5367 649.67,-149.5598 644.0084,-140.2348"/>
<polygon fill="#191970" stroke="#191970" points="646.9733,-138.3741 638.7917,-131.6427 640.9898,-142.007 646.9733,-138.3741"/>
</g>
<!-- Node25 -->
<g id="node26" class="node">
<title>Node25</title>
<polygon fill="#ffffff" stroke="#bfbfbf" points="671.4373,-112.5 671.4373,-131.5 720.4373,-131.5 720.4373,-112.5 671.4373,-112.5"/>
<text text-anchor="middle" x="695.9373" y="-119.5" font-family="Helvetica,sans-Serif" font-size="10.00" fill="#000000">string.h</text>
</g>
<!-- Node14&#45;&gt;Node25 -->
<g id="edge29" class="edge">
<title>Node14&#45;&gt;Node25</title>
<path fill="none" stroke="#191970" d="M671.9887,-168.2455C675.9392,-160.617 681.547,-149.7881 686.3431,-140.5267"/>
<polygon fill="#191970" stroke="#191970" points="689.4531,-142.1321 690.9437,-131.6427 683.2372,-138.9131 689.4531,-142.1321"/>
</g>
<!-- Node26 -->
<g id="node27" class="node">
<title>Node26</title>
<g id="a_node27"><a xlink:href="../../da/df0/ntv2virtualregisters_8h.html" target="_top" xlink:title="Declares enums for virtual registers used in all platform drivers and the SDK. ">
<polygon fill="#ffffff" stroke="#000000" points="1835.4373,-112.5 1835.4373,-131.5 1942.4373,-131.5 1942.4373,-112.5 1835.4373,-112.5"/>
<text text-anchor="middle" x="1888.9373" y="-119.5" font-family="Helvetica,sans-Serif" font-size="10.00" fill="#000000">ntv2virtualregisters.h</text>
</a>
</g>
</g>
<!-- Node14&#45;&gt;Node26 -->
<g id="edge31" class="edge">
<title>Node14&#45;&gt;Node26</title>
<path fill="none" stroke="#191970" d="M720.5053,-176.713C915.4664,-171.8999 1587.7187,-154.1447 1825.406,-131.9025"/>
<polygon fill="#191970" stroke="#191970" points="1825.7585,-135.3848 1835.3765,-130.9413 1825.0867,-128.4172 1825.7585,-135.3848"/>
</g>
<!-- Node15&#45;&gt;Node2 -->
<g id="edge18" class="edge">
<title>Node15&#45;&gt;Node2</title>
<path fill="none" stroke="#191970" d="M373.5873,-118.6696C398.9395,-116.4749 433.4635,-113.702 463.9373,-112 997.5923,-82.1942 1647.4118,-69.577 1815.6275,-66.6766"/>
<polygon fill="#191970" stroke="#191970" points="1815.8411,-70.1735 1825.7799,-66.5033 1815.7216,-63.1745 1815.8411,-70.1735"/>
</g>
<!-- Node16 -->
<g id="node17" class="node">
<title>Node16</title>
<g id="a_node17"><a xlink:href="../../d6/db1/ntv2version_8h.html" target="_top" xlink:title="Defines for the NTV2 SDK version number, used by ajantv2/includes/ntv2enums.h. See the ajantv2/includ...">
<polygon fill="#ffffff" stroke="#000000" points="336.4373,-56.5 336.4373,-75.5 411.4373,-75.5 411.4373,-56.5 336.4373,-56.5"/>
<text text-anchor="middle" x="373.9373" y="-63.5" font-family="Helvetica,sans-Serif" font-size="10.00" fill="#000000">ntv2version.h</text>
</a>
</g>
</g>
<!-- Node15&#45;&gt;Node16 -->
<g id="edge19" class="edge">
<title>Node15&#45;&gt;Node16</title>
<path fill="none" stroke="#191970" d="M343.3822,-112.2455C348.4755,-104.5367 355.7281,-93.5598 361.8893,-84.2348"/>
<polygon fill="#191970" stroke="#191970" points="364.9738,-85.9155 367.5662,-75.6427 359.1334,-82.0566 364.9738,-85.9155"/>
</g>
<!-- Node16&#45;&gt;Node17 -->
<g id="edge20" class="edge">
<title>Node16&#45;&gt;Node17</title>
<path fill="none" stroke="#191970" d="M336.3949,-58.2134C286.5404,-47.8732 198.7168,-29.658 146.4677,-18.8211"/>
<polygon fill="#191970" stroke="#191970" points="147.0164,-15.3605 136.514,-16.7566 145.5948,-22.2146 147.0164,-15.3605"/>
</g>
<!-- Node16&#45;&gt;Node18 -->
<g id="edge21" class="edge">
<title>Node16&#45;&gt;Node18</title>
<path fill="none" stroke="#191970" d="M398.3479,-56.3733C422.5359,-46.8343 459.6398,-32.2018 485.6847,-21.9306"/>
<polygon fill="#191970" stroke="#191970" points="487.0566,-25.152 495.0753,-18.2273 484.4885,-18.6401 487.0566,-25.152"/>
</g>
<!-- Node26&#45;&gt;Node2 -->
<g id="edge32" class="edge">
<title>Node26&#45;&gt;Node2</title>
<path fill="none" stroke="#191970" d="M1883.3633,-112.2455C1879.0041,-104.617 1872.8162,-93.7881 1867.524,-84.5267"/>
<polygon fill="#191970" stroke="#191970" points="1870.4477,-82.5886 1862.4474,-75.6427 1864.37,-86.0616 1870.4477,-82.5886"/>
</g>
<!-- Node27&#45;&gt;Node26 -->
<g id="edge35" class="edge">
<title>Node27&#45;&gt;Node26</title>
<path fill="none" stroke="#191970" d="M1527.6215,-392.4106C1609.469,-355.9968 1896.1098,-226.4109 1917.9373,-188 1926.9497,-172.1403 1916.2998,-152.9461 1905.4552,-139.3552"/>
<polygon fill="#191970" stroke="#191970" points="1908.0327,-136.9847 1898.8517,-131.6969 1902.7313,-141.5559 1908.0327,-136.9847"/>
</g>
<!-- Node28 -->
<g id="node29" class="node">
<title>Node28</title>
<polygon fill="#ffffff" stroke="#bfbfbf" points="1462.9373,-336.5 1462.9373,-355.5 1548.9373,-355.5 1548.9373,-336.5 1462.9373,-336.5"/>
<text text-anchor="middle" x="1505.9373" y="-343.5" font-family="Helvetica,sans-Serif" font-size="10.00" fill="#000000">IOKit/IOKitLib.h</text>
</g>
<!-- Node27&#45;&gt;Node28 -->
<g id="edge34" class="edge">
<title>Node27&#45;&gt;Node28</title>
<path fill="none" stroke="#191970" d="M1505.9373,-392.2455C1505.9373,-384.9382 1505.9373,-374.6944 1505.9373,-365.7046"/>
<polygon fill="#191970" stroke="#191970" points="1509.4374,-365.6426 1505.9373,-355.6427 1502.4374,-365.6427 1509.4374,-365.6426"/>
</g>
<!-- Node29&#45;&gt;Node2 -->
<g id="edge37" class="edge">
<title>Node29&#45;&gt;Node2</title>
<path fill="none" stroke="#191970" d="M817.4478,-397.2074C1050.5227,-375.7094 1981.9545,-287.3333 2025.9373,-244 2069.1724,-201.4033 2040.2173,-147.4292 1990.9373,-112 1963.1901,-92.0516 1926.0914,-80.2069 1897.9647,-73.5455"/>
<polygon fill="#191970" stroke="#191970" points="1898.5656,-70.0934 1888.0421,-71.3204 1897.0339,-76.9238 1898.5656,-70.0934"/>
</g>
<!-- Node29&#45;&gt;Node14 -->
<g id="edge76" class="edge">
<title>Node29&#45;&gt;Node14</title>
<path fill="none" stroke="#191970" d="M747.3516,-392.458C710.6915,-371.4121 626.9362,-317.0198 595.9373,-244 586.4578,-221.6706 610.1619,-203.5627 632.6868,-192.0014"/>
<polygon fill="#191970" stroke="#191970" points="634.3435,-195.0885 641.8401,-187.6017 631.3109,-188.7795 634.3435,-195.0885"/>
</g>
<!-- Node29&#45;&gt;Node15 -->
<g id="edge38" class="edge">
<title>Node29&#45;&gt;Node15</title>
<path fill="none" stroke="#191970" d="M742.1163,-392.4958C721.4086,-383.6633 690.1919,-369.8252 663.9373,-356 578.555,-311.0392 547.8229,-310.5402 477.9373,-244 448.477,-215.9499 457.3544,-195.0096 426.9373,-168 411.3271,-154.1386 390.7888,-143.2262 373.2739,-135.5154"/>
<polygon fill="#191970" stroke="#191970" points="374.4792,-132.2251 363.9051,-131.5626 371.758,-138.6746 374.4792,-132.2251"/>
</g>
<!-- Node29&#45;&gt;Node18 -->
<g id="edge86" class="edge">
<title>Node29&#45;&gt;Node18</title>
<path fill="none" stroke="#191970" d="M712.1538,-399.1477C615.4939,-393.4356 413.9254,-379.1212 347.9373,-356 260.0814,-325.2167 223.5241,-320.8173 170.9373,-244 116.3786,-164.3022 190.2297,-91.7903 279.9373,-56 350.1098,-28.0035 439.0214,-16.601 485.1003,-12.3227"/>
<polygon fill="#191970" stroke="#191970" points="485.6689,-15.7863 495.325,-11.4261 485.0575,-8.8131 485.6689,-15.7863"/>
</g>
<!-- Node30 -->
<g id="node31" class="node">
<title>Node30</title>
<g id="a_node31"><a xlink:href="../../d8/de5/ntv2nubtypes_8h.html" target="_top" xlink:title="Declares data types and structures used in NTV2 &quot;nub&quot; packets. ">
<polygon fill="#ffffff" stroke="#000000" points="1195.4373,-168.5 1195.4373,-187.5 1278.4373,-187.5 1278.4373,-168.5 1195.4373,-168.5"/>
<text text-anchor="middle" x="1236.9373" y="-175.5" font-family="Helvetica,sans-Serif" font-size="10.00" fill="#000000">ntv2nubtypes.h</text>
</a>
</g>
</g>
<!-- Node29&#45;&gt;Node30 -->
<g id="edge39" class="edge">
<title>Node29&#45;&gt;Node30</title>
<path fill="none" stroke="#191970" d="M817.7395,-397.9774C901.1439,-391.1255 1059.3104,-375.9695 1111.9373,-356 1153.5426,-340.2127 1167.8507,-335.3068 1194.9373,-300 1218.8106,-268.8816 1229.6746,-223.2605 1234.1572,-197.5314"/>
<polygon fill="#191970" stroke="#191970" points="1237.634,-197.9532 1235.7494,-187.5273 1230.721,-196.8529 1237.634,-197.9532"/>
</g>
<!-- Node32 -->
<g id="node33" class="node">
<title>Node32</title>
<g id="a_node33"><a xlink:href="../../d6/d8f/ntv2nubaccess_8h.html" target="_top" xlink:title="Declares NTV2 &quot;nub&quot; client functions. ">
<polygon fill="#ffffff" stroke="#000000" points="988.4373,-336.5 988.4373,-355.5 1079.4373,-355.5 1079.4373,-336.5 988.4373,-336.5"/>
<text text-anchor="middle" x="1033.9373" y="-343.5" font-family="Helvetica,sans-Serif" font-size="10.00" fill="#000000">ntv2nubaccess.h</text>
</a>
</g>
</g>
<!-- Node29&#45;&gt;Node32 -->
<g id="edge43" class="edge">
<title>Node29&#45;&gt;Node32</title>
<path fill="none" stroke="#191970" d="M810.8744,-392.4369C857.2018,-382.7925 928.7641,-367.8948 978.2841,-357.5858"/>
<polygon fill="#191970" stroke="#191970" points="979.1129,-360.9884 988.1896,-355.5237 977.6862,-354.1353 979.1129,-360.9884"/>
</g>
<!-- Node29&#45;&gt;Node33 -->
<g id="edge77" class="edge">
<title>Node29&#45;&gt;Node33</title>
<path fill="none" stroke="#191970" d="M768.4864,-392.1685C771.8082,-382.8812 776.8571,-368.5435 780.9373,-356 785.9718,-340.5226 791.2989,-322.8725 795.1883,-309.7213"/>
<polygon fill="#191970" stroke="#191970" points="798.6192,-310.46 798.0793,-299.8789 791.9029,-308.4872 798.6192,-310.46"/>
</g>
<!-- Node37 -->
<g id="node38" class="node">
<title>Node37</title>
<g id="a_node38"><a xlink:href="../../dd/d42/lock_8h.html" target="_top" xlink:title="Declares the AJALock class. ">
<polygon fill="#ffffff" stroke="#000000" points="1071.4373,-280.5 1071.4373,-299.5 1186.4373,-299.5 1186.4373,-280.5 1071.4373,-280.5"/>
<text text-anchor="middle" x="1128.9373" y="-287.5" font-family="Helvetica,sans-Serif" font-size="10.00" fill="#000000">ajabase/system/lock.h</text>
</a>
</g>
</g>
<!-- Node29&#45;&gt;Node37 -->
<g id="edge85" class="edge">
<title>Node29&#45;&gt;Node37</title>
<path fill="none" stroke="#191970" d="M817.5099,-399.8554C897.3296,-395.7217 1044.4156,-384.4018 1087.9373,-356 1104.8257,-344.9788 1115.9715,-324.3215 1122.3223,-309.0414"/>
<polygon fill="#191970" stroke="#191970" points="1125.6657,-310.0971 1125.9646,-299.5065 1119.1265,-307.5992 1125.6657,-310.0971"/>
</g>
<!-- Node43 -->
<g id="node44" class="node">
<title>Node43</title>
<g id="a_node44"><a xlink:href="../../d8/d0f/ntv2devicefeatures_8h.html" target="_top" xlink:title="Declares device capability functions. ">
<polygon fill="#ffffff" stroke="#000000" points="198.4373,-224.5 198.4373,-243.5 305.4373,-243.5 305.4373,-224.5 198.4373,-224.5"/>
<text text-anchor="middle" x="251.9373" y="-231.5" font-family="Helvetica,sans-Serif" font-size="10.00" fill="#000000">ntv2devicefeatures.h</text>
</a>
</g>
</g>
<!-- Node29&#45;&gt;Node43 -->
<g id="edge78" class="edge">
<title>Node29&#45;&gt;Node43</title>
<path fill="none" stroke="#191970" d="M712.1978,-399.5924C621.9197,-394.8169 441.9832,-382.2576 384.9373,-356 332.5433,-331.8836 286.7313,-279.3703 265.1254,-251.7672"/>
<polygon fill="#191970" stroke="#191970" points="267.8427,-249.5588 258.9834,-243.748 262.2854,-253.8152 267.8427,-249.5588"/>
</g>
<!-- Node45 -->
<g id="node46" class="node">
<title>Node45</title>
<polygon fill="#ffffff" stroke="#bfbfbf" points="721.4373,-336.5 721.4373,-355.5 772.4373,-355.5 772.4373,-336.5 721.4373,-336.5"/>
<text text-anchor="middle" x="746.9373" y="-343.5" font-family="Helvetica,sans-Serif" font-size="10.00" fill="#000000">unistd.h</text>
</g>
<!-- Node29&#45;&gt;Node45 -->
<g id="edge87" class="edge">
<title>Node29&#45;&gt;Node45</title>
<path fill="none" stroke="#191970" d="M761.8019,-392.2455C759.4273,-384.8579 756.088,-374.4689 753.1758,-365.4087"/>
<polygon fill="#191970" stroke="#191970" points="756.429,-364.0919 750.0367,-355.6427 749.7648,-366.234 756.429,-364.0919"/>
</g>
<!-- Node30&#45;&gt;Node22 -->
<g id="edge42" class="edge">
<title>Node30&#45;&gt;Node22</title>
<path fill="none" stroke="#191970" d="M1215.1052,-168.3733C1194.627,-159.3435 1163.7974,-145.7494 1140.8053,-135.6111"/>
<polygon fill="#191970" stroke="#191970" points="1142.0466,-132.3333 1131.4845,-131.5011 1139.2223,-138.7383 1142.0466,-132.3333"/>
</g>
<!-- Node31 -->
<g id="node32" class="node">
<title>Node31</title>
<g id="a_node32"><a xlink:href="../../d4/d18/ntv2endian_8h.html" target="_top" xlink:title="Defines a number of handy byte&#45;swapping macros. ">
<polygon fill="#ffffff" stroke="#000000" points="1203.9373,-112.5 1203.9373,-131.5 1275.9373,-131.5 1275.9373,-112.5 1203.9373,-112.5"/>
<text text-anchor="middle" x="1239.9373" y="-119.5" font-family="Helvetica,sans-Serif" font-size="10.00" fill="#000000">ntv2endian.h</text>
</a>
</g>
</g>
<!-- Node30&#45;&gt;Node31 -->
<g id="edge40" class="edge">
<title>Node30&#45;&gt;Node31</title>
<path fill="none" stroke="#191970" d="M1237.4598,-168.2455C1237.8513,-160.9382 1238.4001,-150.6944 1238.8817,-141.7046"/>
<polygon fill="#191970" stroke="#191970" points="1242.3806,-141.8156 1239.4207,-131.6427 1235.3907,-141.4411 1242.3806,-141.8156"/>
</g>
<!-- Node31&#45;&gt;Node2 -->
<g id="edge41" class="edge">
<title>Node31&#45;&gt;Node2</title>
<path fill="none" stroke="#191970" d="M1276.2299,-118.706C1384.0683,-108.9184 1702.1179,-80.0517 1815.8874,-69.7258"/>
<polygon fill="#191970" stroke="#191970" points="1816.29,-73.2037 1825.9326,-68.814 1815.6572,-66.2324 1816.29,-73.2037"/>
</g>
<!-- Node32&#45;&gt;Node18 -->
<g id="edge73" class="edge">
<title>Node32&#45;&gt;Node18</title>
<path fill="none" stroke="#191970" d="M988.4039,-343.8696C820.6658,-335.5748 244.0809,-302.9446 188.9373,-244 93.1958,-141.6591 299.7403,-69.306 326.9373,-56 379.2038,-30.4288 446.7307,-18.4411 485.2994,-13.3359"/>
<polygon fill="#191970" stroke="#191970" points="485.8862,-16.7898 495.3731,-12.0729 485.0153,-9.8442 485.8862,-16.7898"/>
</g>
<!-- Node32&#45;&gt;Node21 -->
<g id="edge75" class="edge">
<title>Node32&#45;&gt;Node21</title>
<path fill="none" stroke="#191970" d="M1032.6052,-336.375C1027.9052,-302.4133 1012.0362,-187.7472 1005.6414,-141.5392"/>
<polygon fill="#191970" stroke="#191970" points="1009.1022,-141.0149 1004.2643,-131.5891 1002.1683,-141.9746 1009.1022,-141.0149"/>
</g>
<!-- Node32&#45;&gt;Node22 -->
<g id="edge74" class="edge">
<title>Node32&#45;&gt;Node22</title>
<path fill="none" stroke="#191970" d="M1037.2029,-336.375C1048.75,-302.3415 1087.7948,-187.262 1103.407,-141.247"/>
<polygon fill="#191970" stroke="#191970" points="1106.7852,-142.1835 1106.6838,-131.5891 1100.1564,-139.9344 1106.7852,-142.1835"/>
</g>
<!-- Node32&#45;&gt;Node33 -->
<g id="edge44" class="edge">
<title>Node32&#45;&gt;Node33</title>
<path fill="none" stroke="#191970" d="M994.1479,-336.4369C951.6717,-326.228 884.7042,-310.1328 841.8152,-299.8247"/>
<polygon fill="#191970" stroke="#191970" points="842.5304,-296.397 831.9894,-297.4632 840.8945,-303.2032 842.5304,-296.397"/>
</g>
<!-- Node32&#45;&gt;Node37 -->
<g id="edge63" class="edge">
<title>Node32&#45;&gt;Node37</title>
<path fill="none" stroke="#191970" d="M1050.485,-336.2455C1065.1971,-327.5731 1086.926,-314.7645 1103.7878,-304.825"/>
<polygon fill="#191970" stroke="#191970" points="1105.7418,-307.736 1112.5792,-299.6427 1102.1871,-301.7057 1105.7418,-307.736"/>
</g>
<!-- Node33&#45;&gt;Node2 -->
<g id="edge46" class="edge">
<title>Node33&#45;&gt;Node2</title>
<path fill="none" stroke="#191970" d="M832.2339,-288.7933C1020.4641,-281.5354 1993.9373,-244 1993.9373,-244 2019.7377,-217.1856 2081.7055,-245.7879 1968.9373,-112 1951.1562,-90.9046 1922.1678,-79.3489 1898.1377,-73.0959"/>
<polygon fill="#191970" stroke="#191970" points="1898.7285,-69.6388 1888.1899,-70.7284 1897.1078,-76.4486 1898.7285,-69.6388"/>
</g>
<!-- Node33&#45;&gt;Node14 -->
<g id="edge50" class="edge">
<title>Node33&#45;&gt;Node14</title>
<path fill="none" stroke="#191970" d="M769.7629,-287.3427C719.5446,-282.3445 624.293,-269.6564 603.9373,-244 588.9006,-225.0478 614.2282,-205.2184 637.1101,-192.3038"/>
<polygon fill="#191970" stroke="#191970" points="638.8313,-195.3524 645.9929,-187.5446 635.5254,-189.1822 638.8313,-195.3524"/>
</g>
<!-- Node33&#45;&gt;Node15 -->
<g id="edge47" class="edge">
<title>Node33&#45;&gt;Node15</title>
<path fill="none" stroke="#191970" d="M769.7105,-289.1699C700.5057,-286.7318 537.0307,-277.4875 494.9373,-244 466.5191,-221.3919 491.0096,-193.2774 464.9373,-168 452.9282,-156.3571 415.0117,-143.5132 383.5393,-134.3632"/>
<polygon fill="#191970" stroke="#191970" points="384.1647,-130.9021 373.5884,-131.5284 382.2468,-137.6343 384.1647,-130.9021"/>
</g>
<!-- Node33&#45;&gt;Node17 -->
<g id="edge45" class="edge">
<title>Node33&#45;&gt;Node17</title>
<path fill="none" stroke="#191970" d="M769.7055,-289.0875C661.1383,-285.6922 300.7029,-272.4918 188.9373,-244 104.1181,-222.3775 52.6457,-215.6714 26.9373,-132 17.0166,-99.7119 10.2669,-85.3775 26.9373,-56 35.1958,-41.4463 50.0889,-31.0054 64.5913,-23.7891"/>
<polygon fill="#191970" stroke="#191970" points="66.3455,-26.8359 73.9914,-19.5017 63.4407,-20.4671 66.3455,-26.8359"/>
</g>
<!-- Node33&#45;&gt;Node18 -->
<g id="edge60" class="edge">
<title>Node33&#45;&gt;Node18</title>
<path fill="none" stroke="#191970" d="M769.627,-285.8445C719.4906,-278.722 623.9789,-263.0884 595.9373,-244 526.4286,-196.6844 517.079,-159.6895 508.9373,-76 507.4358,-60.566 509.4474,-43.1196 511.6935,-30.042"/>
<polygon fill="#191970" stroke="#191970" points="515.2048,-30.314 513.6452,-19.8346 508.3294,-28.9993 515.2048,-30.314"/>
</g>
<!-- Node33&#45;&gt;Node19 -->
<g id="edge61" class="edge">
<title>Node33&#45;&gt;Node19</title>
<path fill="none" stroke="#191970" d="M815.311,-280.1853C826.0078,-271.9414 839.7782,-259.1035 845.9373,-244 859.7465,-210.1364 853.1204,-166.4893 847.3349,-141.637"/>
<polygon fill="#191970" stroke="#191970" points="850.6534,-140.4828 844.8122,-131.6436 843.8663,-142.1961 850.6534,-140.4828"/>
</g>
<!-- Node33&#45;&gt;Node22 -->
<g id="edge62" class="edge">
<title>Node33&#45;&gt;Node22</title>
<path fill="none" stroke="#191970" d="M832.193,-288.1072C872.3116,-284.492 942.9354,-274.0421 994.9373,-244 1018.7941,-230.2177 1070.2558,-170.1021 1095.4483,-139.7175"/>
<polygon fill="#191970" stroke="#191970" points="1098.4289,-141.6042 1102.089,-131.6617 1093.0275,-137.1517 1098.4289,-141.6042"/>
</g>
<!-- Node34 -->
<g id="node35" class="node">
<title>Node34</title>
<g id="a_node35"><a xlink:href="../../d9/d61/ntv2videodefines_8h.html" target="_top" xlink:title="Declares common video macros and structs used in the SDK. ">
<polygon fill="#ffffff" stroke="#000000" points="1886.9373,-224.5 1886.9373,-243.5 1984.9373,-243.5 1984.9373,-224.5 1886.9373,-224.5"/>
<text text-anchor="middle" x="1935.9373" y="-231.5" font-family="Helvetica,sans-Serif" font-size="10.00" fill="#000000">ntv2videodefines.h</text>
</a>
</g>
</g>
<!-- Node33&#45;&gt;Node34 -->
<g id="edge48" class="edge">
<title>Node33&#45;&gt;Node34</title>
<path fill="none" stroke="#191970" d="M832.0263,-288.7876C981.0987,-282.9459 1623.7141,-257.4336 1823.9373,-244 1841.0353,-242.8528 1859.5763,-241.3166 1876.5604,-239.793"/>
<polygon fill="#191970" stroke="#191970" points="1877.2665,-243.2433 1886.9074,-238.8496 1876.6308,-236.2722 1877.2665,-243.2433"/>
</g>
<!-- Node35 -->
<g id="node36" class="node">
<title>Node35</title>
<g id="a_node36"><a xlink:href="../../dc/df4/ntv2formatdescriptor_8h.html" target="_top" xlink:title="Declares the NTV2FormatDescriptor class. ">
<polygon fill="#ffffff" stroke="#000000" points="613.4373,-224.5 613.4373,-243.5 726.4373,-243.5 726.4373,-224.5 613.4373,-224.5"/>
<text text-anchor="middle" x="669.9373" y="-231.5" font-family="Helvetica,sans-Serif" font-size="10.00" fill="#000000">ntv2formatdescriptor.h</text>
</a>
</g>
</g>
<!-- Node33&#45;&gt;Node35 -->
<g id="edge51" class="edge">
<title>Node33&#45;&gt;Node35</title>
<path fill="none" stroke="#191970" d="M778.4176,-280.3733C757.2001,-271.3032 725.2096,-257.6279 701.4604,-247.4755"/>
<polygon fill="#191970" stroke="#191970" points="702.734,-244.2136 692.1631,-243.5011 699.9824,-250.6502 702.734,-244.2136"/>
</g>
<!-- Node36 -->
<g id="node37" class="node">
<title>Node36</title>
<g id="a_node37"><a xlink:href="../../de/d26/ntv2m31enums_8h.html" target="_top" xlink:title="ntv2m31enums.h">
<polygon fill="#ffffff" stroke="#000000" points="744.9373,-224.5 744.9373,-243.5 836.9373,-243.5 836.9373,-224.5 744.9373,-224.5"/>
<text text-anchor="middle" x="790.9373" y="-231.5" font-family="Helvetica,sans-Serif" font-size="10.00" fill="#000000">ntv2m31enums.h</text>
</a>
</g>
</g>
<!-- Node33&#45;&gt;Node36 -->
<g id="edge59" class="edge">
<title>Node33&#45;&gt;Node36</title>
<path fill="none" stroke="#191970" d="M799.1954,-280.2455C797.8905,-272.9382 796.0613,-262.6944 794.4559,-253.7046"/>
<polygon fill="#191970" stroke="#191970" points="797.8627,-252.8717 792.6592,-243.6427 790.9717,-254.1022 797.8627,-252.8717"/>
</g>
<!-- Node34&#45;&gt;Node2 -->
<g id="edge49" class="edge">
<title>Node34&#45;&gt;Node2</title>
<path fill="none" stroke="#191970" d="M1941.0199,-224.2385C1951.6665,-202.3046 1973.5305,-148.2096 1950.9373,-112 1939.2539,-93.2753 1917.4927,-81.9633 1897.8487,-75.2453"/>
<polygon fill="#191970" stroke="#191970" points="1898.7206,-71.8511 1888.1322,-72.2201 1896.6397,-78.5347 1898.7206,-71.8511"/>
</g>
<!-- Node35&#45;&gt;Node2 -->
<g id="edge53" class="edge">
<title>Node35&#45;&gt;Node2</title>
<path fill="none" stroke="#191970" d="M699.4168,-224.4877C724.3162,-216.0558 760.6532,-202.8081 790.9373,-188 805.5396,-180.8599 900.3971,-116.7657 915.9373,-112 1002.6688,-85.4022 1645.7947,-70.3574 1815.8107,-66.8172"/>
<polygon fill="#191970" stroke="#191970" points="1815.9324,-70.3155 1825.858,-66.61 1815.788,-63.317 1815.9324,-70.3155"/>
</g>
<!-- Node35&#45;&gt;Node14 -->
<g id="edge55" class="edge">
<title>Node35&#45;&gt;Node14</title>
<path fill="none" stroke="#191970" d="M669.4147,-224.2455C669.0232,-216.9382 668.4745,-206.6944 667.9929,-197.7046"/>
<polygon fill="#191970" stroke="#191970" points="671.4839,-197.4411 667.4538,-187.6427 664.4939,-197.8156 671.4839,-197.4411"/>
</g>
<!-- Node35&#45;&gt;Node15 -->
<g id="edge54" class="edge">
<title>Node35&#45;&gt;Node15</title>
<path fill="none" stroke="#191970" d="M648.0614,-224.4914C616.4144,-210.9343 555.8489,-185.7312 502.9373,-168 463.1064,-154.6523 417.0074,-142.1029 383.5112,-133.4945"/>
<polygon fill="#191970" stroke="#191970" points="384.096,-130.0317 373.5413,-130.9529 382.3668,-136.8148 384.096,-130.0317"/>
</g>
<!-- Node35&#45;&gt;Node17 -->
<g id="edge52" class="edge">
<title>Node35&#45;&gt;Node17</title>
<path fill="none" stroke="#191970" d="M613.4144,-232.5601C486.5905,-228.8242 187.7023,-217.0131 152.9373,-188 105.4351,-148.3571 101.7095,-67.2945 102.7507,-29.8148"/>
<polygon fill="#191970" stroke="#191970" points="106.2537,-29.8167 103.1837,-19.6764 99.2601,-29.5179 106.2537,-29.8167"/>
</g>
<!-- Node35&#45;&gt;Node18 -->
<g id="edge56" class="edge">
<title>Node35&#45;&gt;Node18</title>
<path fill="none" stroke="#191970" d="M690.0934,-224.4543C703.8188,-216.7394 720.9008,-204.4561 728.9373,-188 743.7598,-157.6482 746.9395,-140.5807 728.9373,-112 688.425,-47.6819 594.8784,-23.0266 546.3605,-14.3191"/>
<polygon fill="#191970" stroke="#191970" points="546.8887,-10.8589 536.4465,-12.6506 545.7269,-17.7618 546.8887,-10.8589"/>
</g>
<!-- Node35&#45;&gt;Node19 -->
<g id="edge57" class="edge">
<title>Node35&#45;&gt;Node19</title>
<path fill="none" stroke="#191970" d="M692.9247,-224.4601C712.2634,-216.0113 740.302,-202.7543 762.9373,-188 785.4233,-173.3429 808.716,-153.1676 824.1295,-138.9935"/>
<polygon fill="#191970" stroke="#191970" points="826.9042,-141.1914 831.8268,-131.8096 822.128,-136.0739 826.9042,-141.1914"/>
</g>
<!-- Node35&#45;&gt;Node22 -->
<g id="edge58" class="edge">
<title>Node35&#45;&gt;Node22</title>
<path fill="none" stroke="#191970" d="M716.5672,-224.4362C758.6396,-215.6177 822.1474,-201.8356 876.9373,-188 949.3579,-169.7123 1033.4779,-145.0206 1078.1795,-131.6212"/>
<polygon fill="#191970" stroke="#191970" points="1079.3149,-134.9347 1087.8839,-128.7039 1077.2996,-128.231 1079.3149,-134.9347"/>
</g>
<!-- Node38 -->
<g id="node39" class="node">
<title>Node38</title>
<g id="a_node39"><a xlink:href="../../d4/d79/public_8h.html" target="_top" xlink:title="Master header for the ajabase library. ">
<polygon fill="#ffffff" stroke="#000000" points="1512.9373,-168.5 1512.9373,-187.5 1640.9373,-187.5 1640.9373,-168.5 1512.9373,-168.5"/>
<text text-anchor="middle" x="1576.9373" y="-175.5" font-family="Helvetica,sans-Serif" font-size="10.00" fill="#000000">ajabase/common/public.h</text>
</a>
</g>
</g>
<!-- Node37&#45;&gt;Node38 -->
<g id="edge64" class="edge">
<title>Node37&#45;&gt;Node38</title>
<path fill="none" stroke="#191970" d="M1186.6098,-283.1009C1241.1242,-275.868 1324.9145,-262.9038 1395.9373,-244 1449.5606,-229.7274 1509.6978,-206.2352 1545.3857,-191.4672"/>
<polygon fill="#191970" stroke="#191970" points="1546.8966,-194.6293 1554.7774,-187.5482 1544.2008,-188.1692 1546.8966,-194.6293"/>
</g>
<!-- Node42 -->
<g id="node43" class="node">
<title>Node42</title>
<polygon fill="#ffffff" stroke="#bfbfbf" points="1118.9373,-224.5 1118.9373,-243.5 1170.9373,-243.5 1170.9373,-224.5 1118.9373,-224.5"/>
<text text-anchor="middle" x="1144.9373" y="-231.5" font-family="Helvetica,sans-Serif" font-size="10.00" fill="#000000">assert.h</text>
</g>
<!-- Node37&#45;&gt;Node42 -->
<g id="edge72" class="edge">
<title>Node37&#45;&gt;Node42</title>
<path fill="none" stroke="#191970" d="M1131.7243,-280.2455C1133.835,-272.8579 1136.8033,-262.4689 1139.3919,-253.4087"/>
<polygon fill="#191970" stroke="#191970" points="1142.8003,-254.2195 1142.1822,-243.6427 1136.0696,-252.2964 1142.8003,-254.2195"/>
</g>
<!-- Node38&#45;&gt;Node18 -->
<g id="edge66" class="edge">
<title>Node38&#45;&gt;Node18</title>
<path fill="none" stroke="#191970" d="M1557.9297,-168.4178C1502.9457,-140.7733 1346.0351,-62.4326 1320.9373,-56 1170.3997,-17.4168 675.4561,-11.1584 546.7489,-10.1768"/>
<polygon fill="#191970" stroke="#191970" points="546.4707,-6.6749 536.4461,-10.1038 546.421,-13.6747 546.4707,-6.6749"/>
</g>
<!-- Node38&#45;&gt;Node21 -->
<g id="edge69" class="edge">
<title>Node38&#45;&gt;Node21</title>
<path fill="none" stroke="#191970" d="M1512.8664,-169.0327C1509.8496,-168.6704 1506.8615,-168.3239 1503.9373,-168 1315.5244,-147.1293 1267.4049,-152.3703 1078.9373,-132 1063.0165,-130.2792 1045.2716,-127.9668 1030.9347,-125.9991"/>
<polygon fill="#191970" stroke="#191970" points="1031.1094,-122.4897 1020.7222,-124.577 1030.1439,-129.4228 1031.1094,-122.4897"/>
</g>
<!-- Node38&#45;&gt;Node22 -->
<g id="edge68" class="edge">
<title>Node38&#45;&gt;Node22</title>
<path fill="none" stroke="#191970" d="M1512.8528,-169.1469C1509.8397,-168.7541 1506.8561,-168.3699 1503.9373,-168 1366.7722,-150.6167 1332.2616,-148.0774 1194.9373,-132 1177.5506,-129.9644 1158.1647,-127.6845 1142.3021,-125.8163"/>
<polygon fill="#191970" stroke="#191970" points="1142.2919,-122.291 1131.951,-124.5967 1141.4727,-129.2429 1142.2919,-122.291"/>
</g>
<!-- Node39 -->
<g id="node40" class="node">
<title>Node39</title>
<g id="a_node40"><a xlink:href="../../db/db5/export_8h.html" target="_top" xlink:title="Declares system&#45;dependent import/export macros and libraries. ">
<polygon fill="#ffffff" stroke="#000000" points="1541.4373,-112.5 1541.4373,-131.5 1670.4373,-131.5 1670.4373,-112.5 1541.4373,-112.5"/>
<text text-anchor="middle" x="1605.9373" y="-119.5" font-family="Helvetica,sans-Serif" font-size="10.00" fill="#000000">ajabase/common/export.h</text>
</a>
</g>
</g>
<!-- Node38&#45;&gt;Node39 -->
<g id="edge65" class="edge">
<title>Node38&#45;&gt;Node39</title>
<path fill="none" stroke="#191970" d="M1581.9887,-168.2455C1585.9392,-160.617 1591.547,-149.7881 1596.3431,-140.5267"/>
<polygon fill="#191970" stroke="#191970" points="1599.4531,-142.1321 1600.9437,-131.6427 1593.2372,-138.9131 1599.4531,-142.1321"/>
</g>
<!-- Node40 -->
<g id="node41" class="node">
<title>Node40</title>
<polygon fill="#ffffff" stroke="#bfbfbf" points="1494.4373,-112.5 1494.4373,-131.5 1523.4373,-131.5 1523.4373,-112.5 1494.4373,-112.5"/>
<text text-anchor="middle" x="1508.9373" y="-119.5" font-family="Helvetica,sans-Serif" font-size="10.00" fill="#000000">list</text>
</g>
<!-- Node38&#45;&gt;Node40 -->
<g id="edge67" class="edge">
<title>Node38&#45;&gt;Node40</title>
<path fill="none" stroke="#191970" d="M1565.0926,-168.2455C1555.0493,-159.9746 1540.4378,-147.9416 1528.6369,-138.2232"/>
<polygon fill="#191970" stroke="#191970" points="1530.5905,-135.298 1520.6462,-131.6427 1526.1406,-140.7015 1530.5905,-135.298"/>
</g>
<!-- Node38&#45;&gt;Node41 -->
<g id="edge70" class="edge">
<title>Node38&#45;&gt;Node41</title>
<path fill="none" stroke="#191970" d="M1641.009,-169.0402C1644.0256,-168.6759 1647.0133,-168.327 1649.9373,-168 1812.5535,-149.8163 2003.9284,-134.7696 2106.3739,-127.2269"/>
<polygon fill="#191970" stroke="#191970" points="2106.8922,-130.6984 2116.6095,-126.4765 2106.3803,-123.7171 2106.8922,-130.6984"/>
</g>
<!-- Node41&#45;&gt;Node3 -->
<g id="edge71" class="edge">
<title>Node41&#45;&gt;Node3</title>
<path fill="none" stroke="#191970" d="M2154.9563,-112.4509C2102.5195,-92.4069 1980.907,-45.9202 1921.2243,-23.1063"/>
<polygon fill="#191970" stroke="#191970" points="1922.4456,-19.8262 1911.8551,-19.5249 1919.9462,-26.3648 1922.4456,-19.8262"/>
</g>
<!-- Node43&#45;&gt;Node2 -->
<g id="edge80" class="edge">
<title>Node43&#45;&gt;Node2</title>
<path fill="none" stroke="#191970" d="M271.5353,-224.4121C326.2815,-197.8136 480.3853,-124.2505 534.9373,-112 662.2652,-83.4064 1605.6684,-69.3249 1815.6115,-66.5268"/>
<polygon fill="#191970" stroke="#191970" points="1815.9361,-70.0229 1825.889,-66.391 1815.8436,-63.0235 1815.9361,-70.0229"/>
</g>
<!-- Node43&#45;&gt;Node15 -->
<g id="edge81" class="edge">
<title>Node43&#45;&gt;Node15</title>
<path fill="none" stroke="#191970" d="M271.9933,-224.3984C286.45,-216.511 305.377,-204.0371 316.9373,-188 326.7707,-174.3585 331.8342,-155.8189 334.4019,-141.8621"/>
<polygon fill="#191970" stroke="#191970" points="337.8831,-142.2533 335.9694,-131.8327 330.9671,-141.1723 337.8831,-142.2533"/>
</g>
<!-- Node43&#45;&gt;Node17 -->
<g id="edge79" class="edge">
<title>Node43&#45;&gt;Node17</title>
<path fill="none" stroke="#191970" d="M198.0096,-226.6259C145.2792,-216.0703 68.7081,-190.9163 38.9373,-132 23.7035,-101.8525 23.4154,-86.0002 38.9373,-56 45.9919,-42.365 59.1568,-31.9036 71.8036,-24.4282"/>
<polygon fill="#191970" stroke="#191970" points="73.721,-27.3692 80.8261,-19.5099 70.3706,-21.2231 73.721,-27.3692"/>
</g>
<!-- Node44 -->
<g id="node45" class="node">
<title>Node44</title>
<g id="a_node45"><a xlink:href="../../d9/dfb/ntv2devicefeatures_8hh.html" target="_top" xlink:title="Declares NTV2DeviceCanDo... and NTV2DeviceGetNum... functions. This module is included at compile tim...">
<polygon fill="#ffffff" stroke="#000000" points="195.4373,-168.5 195.4373,-187.5 308.4373,-187.5 308.4373,-168.5 195.4373,-168.5"/>
<text text-anchor="middle" x="251.9373" y="-175.5" font-family="Helvetica,sans-Serif" font-size="10.00" fill="#000000">ntv2devicefeatures.hh</text>
</a>
</g>
</g>
<!-- Node43&#45;&gt;Node44 -->
<g id="edge82" class="edge">
<title>Node43&#45;&gt;Node44</title>
<path fill="none" stroke="#191970" d="M251.9373,-224.2455C251.9373,-216.9382 251.9373,-206.6944 251.9373,-197.7046"/>
<polygon fill="#191970" stroke="#191970" points="255.4374,-197.6426 251.9373,-187.6427 248.4374,-197.6427 255.4374,-197.6426"/>
</g>
<!-- Node44&#45;&gt;Node15 -->
<g id="edge84" class="edge">
<title>Node44&#45;&gt;Node15</title>
<path fill="none" stroke="#191970" d="M266.7431,-168.2455C279.6629,-159.7337 298.6304,-147.2375 313.5925,-137.3801"/>
<polygon fill="#191970" stroke="#191970" points="315.876,-140.067 322.3011,-131.6427 312.0249,-134.2216 315.876,-140.067"/>
</g>
<!-- Node44&#45;&gt;Node17 -->
<g id="edge83" class="edge">
<title>Node44&#45;&gt;Node17</title>
<path fill="none" stroke="#191970" d="M247.0195,-168.2651C235.6418,-146.3857 205.7218,-92.395 169.9373,-56 158.1966,-44.0591 142.9761,-33.213 130.1107,-25.0555"/>
<polygon fill="#191970" stroke="#191970" points="131.5962,-21.8606 121.2424,-19.6135 127.935,-27.8269 131.5962,-21.8606"/>
</g>
<!-- Node46&#45;&gt;Node14 -->
<g id="edge90" class="edge">
<title>Node46&#45;&gt;Node14</title>
<path fill="none" stroke="#191970" d="M893.3171,-224.4369C846.3008,-214.7925 773.6743,-199.8948 723.418,-189.5858"/>
<polygon fill="#191970" stroke="#191970" points="723.8645,-186.1046 713.3652,-187.5237 722.4579,-192.9618 723.8645,-186.1046"/>
</g>
<!-- Node46&#45;&gt;Node17 -->
<g id="edge89" class="edge">
<title>Node46&#45;&gt;Node17</title>
<path fill="none" stroke="#191970" d="M893.1246,-228.5401C878.0728,-226.9132 861.3145,-225.2365 845.9373,-224 772.7312,-218.1135 246.6844,-229.2743 185.9373,-188 157.8475,-168.9146 123.7049,-71.3605 110.0293,-29.3189"/>
<polygon fill="#191970" stroke="#191970" points="113.3279,-28.1432 106.9407,-19.6902 106.6624,-30.2814 113.3279,-28.1432"/>
</g>
<!-- Node46&#45;&gt;Node20 -->
<g id="edge93" class="edge">
<title>Node46&#45;&gt;Node20</title>
<path fill="none" stroke="#191970" d="M935.8005,-224.3507C932.1142,-215.1921 926.994,-200.9416 924.9373,-188 922.4051,-172.0668 926.9035,-154.2402 931.6197,-141.134"/>
<polygon fill="#191970" stroke="#191970" points="934.9031,-142.3482 935.3184,-131.7615 928.3918,-139.7785 934.9031,-142.3482"/>
</g>
<!-- Node46&#45;&gt;Node21 -->
<g id="edge94" class="edge">
<title>Node46&#45;&gt;Node21</title>
<path fill="none" stroke="#191970" d="M945.3086,-224.4509C955.7698,-205.8533 979.0356,-164.4919 992.5893,-140.3964"/>
<polygon fill="#191970" stroke="#191970" points="995.7274,-141.9566 997.5795,-131.5249 989.6263,-138.5247 995.7274,-141.9566"/>
</g>
<!-- Node47 -->
<g id="node48" class="node">
<title>Node47</title>
<polygon fill="#ffffff" stroke="#bfbfbf" points="1764.9373,-112.5 1764.9373,-131.5 1816.9373,-131.5 1816.9373,-112.5 1764.9373,-112.5"/>
<text text-anchor="middle" x="1790.9373" y="-119.5" font-family="Helvetica,sans-Serif" font-size="10.00" fill="#000000">stddef.h</text>
</g>
<!-- Node46&#45;&gt;Node47 -->
<g id="edge91" class="edge">
<title>Node46&#45;&gt;Node47</title>
<path fill="none" stroke="#191970" d="M986.4712,-231.1654C1020.6339,-229.1081 1068.1659,-226.295 1109.9373,-224 1149.0959,-221.8485 1787.9225,-216.4294 1814.9373,-188 1827.5746,-174.7009 1817.0649,-154.2343 1806.2526,-139.6202"/>
<polygon fill="#191970" stroke="#191970" points="1808.9886,-137.4375 1800.0242,-131.7905 1803.5105,-141.7953 1808.9886,-137.4375"/>
</g>
<!-- Node48 -->
<g id="node49" class="node">
<title>Node48</title>
<polygon fill="#ffffff" stroke="#bfbfbf" points="1442.9373,-168.5 1442.9373,-187.5 1494.9373,-187.5 1494.9373,-168.5 1442.9373,-168.5"/>
<text text-anchor="middle" x="1468.9373" y="-175.5" font-family="Helvetica,sans-Serif" font-size="10.00" fill="#000000">sstream</text>
</g>
<!-- Node46&#45;&gt;Node48 -->
<g id="edge92" class="edge">
<title>Node46&#45;&gt;Node48</title>
<path fill="none" stroke="#191970" d="M986.6051,-229.8451C1069.224,-222.3662 1246.6046,-205.7547 1395.9373,-188 1407.8022,-186.5893 1420.7273,-184.8768 1432.3593,-183.2705"/>
<polygon fill="#191970" stroke="#191970" points="1433.1919,-186.6882 1442.6107,-181.8368 1432.2223,-179.7556 1433.1919,-186.6882"/>
</g>
<!-- Node49&#45;&gt;Node29 -->
<g id="edge97" class="edge">
<title>Node49&#45;&gt;Node29</title>
<path fill="none" stroke="#191970" d="M735.208,-448.2455C740.1637,-440.5367 747.2203,-429.5598 753.2149,-420.2348"/>
<polygon fill="#191970" stroke="#191970" points="756.2749,-421.9471 758.7384,-411.6427 750.3867,-418.1618 756.2749,-421.9471"/>
</g>
<!-- Node50&#45;&gt;Node2 -->
<g id="edge99" class="edge">
<title>Node50&#45;&gt;Node2</title>
<path fill="none" stroke="#191970" d="M1315.8373,-560.3737C1352.4506,-544.8905 1414.9373,-510.7402 1414.9373,-458 1414.9373,-458 1414.9373,-458 1414.9373,-178 1414.9373,-135.2408 1446.242,-130.194 1484.9373,-112 1542.8241,-84.7824 1731.1825,-72.2402 1815.4872,-67.8847"/>
<polygon fill="#191970" stroke="#191970" points="1815.9034,-71.3683 1825.7149,-67.3703 1815.5517,-64.3772 1815.9034,-71.3683"/>
</g>
<!-- Node50&#45;&gt;Node12 -->
<g id="edge101" class="edge">
<title>Node50&#45;&gt;Node12</title>
<path fill="none" stroke="#191970" d="M1262.2604,-560.3733C1235.6044,-551.1016 1195.1135,-537.0178 1165.7488,-526.804"/>
<polygon fill="#191970" stroke="#191970" points="1166.8478,-523.4807 1156.253,-523.5011 1164.5481,-530.0921 1166.8478,-523.4807"/>
</g>
<!-- Node50&#45;&gt;Node22 -->
<g id="edge102" class="edge">
<title>Node50&#45;&gt;Node22</title>
<path fill="none" stroke="#191970" d="M1299.5865,-560.4346C1307.5873,-551.7723 1318.3635,-538.2221 1322.9373,-524 1325.6586,-515.5379 1324.8857,-512.6727 1322.9373,-504 1288.0074,-348.5242 1167.2075,-191.2466 1124.797,-139.6029"/>
<polygon fill="#191970" stroke="#191970" points="1127.3353,-137.1808 1118.2554,-131.7213 1121.9489,-141.6515 1127.3353,-137.1808"/>
</g>
<!-- Node51 -->
<g id="node52" class="node">
<title>Node51</title>
<g id="a_node52"><a xlink:href="../../dc/d1c/ntv2audiodefines_8h.html" target="_top" xlink:title="Declares common audio macros and structs used in the SDK. ">
<polygon fill="#ffffff" stroke="#000000" points="1215.9373,-504.5 1215.9373,-523.5 1313.9373,-523.5 1313.9373,-504.5 1215.9373,-504.5"/>
<text text-anchor="middle" x="1264.9373" y="-511.5" font-family="Helvetica,sans-Serif" font-size="10.00" fill="#000000">ntv2audiodefines.h</text>
</a>
</g>
</g>
<!-- Node50&#45;&gt;Node51 -->
<g id="edge100" class="edge">
<title>Node50&#45;&gt;Node51</title>
<path fill="none" stroke="#191970" d="M1285.5826,-560.2455C1282.2129,-552.6973 1277.4443,-542.0158 1273.3389,-532.8197"/>
<polygon fill="#191970" stroke="#191970" points="1276.5146,-531.3473 1269.242,-523.6427 1270.1226,-534.2009 1276.5146,-531.3473"/>
</g>
<!-- Node52&#45;&gt;Node6 -->
<g id="edge104" class="edge">
<title>Node52&#45;&gt;Node6</title>
<path fill="none" stroke="#191970" d="M1619.2871,-616.3733C1651.9653,-606.9404 1701.899,-592.5265 1737.4142,-582.2747"/>
<polygon fill="#191970" stroke="#191970" points="1738.3856,-585.6373 1747.0227,-579.5011 1736.4442,-578.9119 1738.3856,-585.6373"/>
</g>
<!-- Node52&#45;&gt;Node7 -->
<g id="edge105" class="edge">
<title>Node52&#45;&gt;Node7</title>
<path fill="none" stroke="#191970" d="M1550.1366,-616.4974C1518.1334,-607.9361 1469.7191,-594.8221 1418.9145,-580.2321"/>
<polygon fill="#191970" stroke="#191970" points="1419.6438,-576.7998 1409.0656,-577.3936 1417.7052,-583.5261 1419.6438,-576.7998"/>
</g>
<!-- Node52&#45;&gt;Node8 -->
<g id="edge106" class="edge">
<title>Node52&#45;&gt;Node8</title>
<path fill="none" stroke="#191970" d="M1635.9491,-619.9849C1695.2195,-612.5387 1797.1383,-598.7383 1894.2319,-579.9894"/>
<polygon fill="#191970" stroke="#191970" points="1895.0724,-583.3915 1904.2165,-578.0403 1893.7311,-576.5212 1895.0724,-583.3915"/>
</g>
<!-- Node52&#45;&gt;Node9 -->
<g id="edge107" class="edge">
<title>Node52&#45;&gt;Node9</title>
<path fill="none" stroke="#191970" d="M1605.1908,-616.3733C1623.0084,-607.4644 1649.7119,-594.1127 1669.8967,-584.0203"/>
<polygon fill="#191970" stroke="#191970" points="1671.556,-587.1038 1678.935,-579.5011 1668.4255,-580.8428 1671.556,-587.1038"/>
</g>
<!-- Node52&#45;&gt;Node12 -->
<g id="edge109" class="edge">
<title>Node52&#45;&gt;Node12</title>
<path fill="none" stroke="#191970" d="M1578.2613,-616.3627C1565.7384,-601.4159 1539.3407,-573.0137 1509.9373,-560 1385.9266,-505.1141 1341.5285,-540.6228 1206.9373,-524 1194.9904,-522.5245 1182.0202,-520.8791 1170.1488,-519.3559"/>
<polygon fill="#191970" stroke="#191970" points="1170.4176,-515.8617 1160.0525,-518.0561 1169.5238,-522.8044 1170.4176,-515.8617"/>
</g>
<!-- Node52&#45;&gt;Node15 -->
<g id="edge110" class="edge">
<title>Node52&#45;&gt;Node15</title>
<path fill="none" stroke="#191970" d="M1535.7066,-624.5983C1288.057,-617.3645 208.9373,-581.9456 208.9373,-514 208.9373,-514 208.9373,-514 208.9373,-402 208.9373,-317.6855 274.3963,-318.4678 313.9373,-244 326.5555,-220.236 331.7276,-214.3972 336.9373,-188 339.9573,-172.6975 339.7656,-155.0077 338.9239,-141.796"/>
<polygon fill="#191970" stroke="#191970" points="342.3862,-141.192 338.0812,-131.5112 335.4096,-141.7637 342.3862,-141.192"/>
</g>
<!-- Node52&#45;&gt;Node41 -->
<g id="edge119" class="edge">
<title>Node52&#45;&gt;Node41</title>
<path fill="none" stroke="#191970" d="M1594.2105,-616.2578C1607.1346,-601.6933 1633.5874,-574.4169 1661.9373,-560 1842.4149,-468.221 2105.9373,-660.4736 2105.9373,-458 2105.9373,-458 2105.9373,-458 2105.9373,-402 2105.9373,-295.3657 2124.8374,-269.035 2158.9373,-168 2162.0508,-158.7748 2166.408,-148.9093 2170.3469,-140.6897"/>
<polygon fill="#191970" stroke="#191970" points="2173.5304,-142.1481 2174.8324,-131.6335 2167.2576,-139.0412 2173.5304,-142.1481"/>
</g>
<!-- Node53 -->
<g id="node54" class="node">
<title>Node53</title>
<polygon fill="#ffffff" stroke="#bfbfbf" points="1426.9373,-560.5 1426.9373,-579.5 1500.9373,-579.5 1500.9373,-560.5 1426.9373,-560.5"/>
<text text-anchor="middle" x="1463.9373" y="-567.5" font-family="Helvetica,sans-Serif" font-size="10.00" fill="#000000">QtMultimedia</text>
</g>
<!-- Node52&#45;&gt;Node53 -->
<g id="edge108" class="edge">
<title>Node52&#45;&gt;Node53</title>
<path fill="none" stroke="#191970" d="M1564.9647,-616.3733C1545.3805,-607.3838 1515.9412,-593.8706 1493.8863,-583.7471"/>
<polygon fill="#191970" stroke="#191970" points="1495.1846,-580.4919 1484.6361,-579.5011 1492.2643,-586.8538 1495.1846,-580.4919"/>
</g>
<!-- Node54 -->
<g id="node55" class="node">
<title>Node54</title>
<g id="a_node55"><a xlink:href="../../d9/d58/ntv2task_8h.html" target="_top" xlink:title="Declares the CNTV2Task class (deprecated). ">
<polygon fill="#ffffff" stroke="#000000" points="1156.9373,-560.5 1156.9373,-579.5 1218.9373,-579.5 1218.9373,-560.5 1156.9373,-560.5"/>
<text text-anchor="middle" x="1187.9373" y="-567.5" font-family="Helvetica,sans-Serif" font-size="10.00" fill="#000000">ntv2task.h</text>
</a>
</g>
</g>
<!-- Node52&#45;&gt;Node54 -->
<g id="edge111" class="edge">
<title>Node52&#45;&gt;Node54</title>
<path fill="none" stroke="#191970" d="M1535.84,-621.4338C1468.3143,-614.8667 1344.2132,-601.3473 1229.324,-580.0892"/>
<polygon fill="#191970" stroke="#191970" points="1229.7772,-576.6132 1219.3035,-578.2107 1228.4873,-583.4934 1229.7772,-576.6132"/>
</g>
<!-- Node55 -->
<g id="node56" class="node">
<title>Node55</title>
<g id="a_node56"><a xlink:href="../../d6/de1/ntv2rp188_8h.html" target="_top" xlink:title="Declares the CRP188 class. See SMPTE RP188 standard for details. ">
<polygon fill="#ffffff" stroke="#000000" points="1318.9373,-224.5 1318.9373,-243.5 1386.9373,-243.5 1386.9373,-224.5 1318.9373,-224.5"/>
<text text-anchor="middle" x="1352.9373" y="-231.5" font-family="Helvetica,sans-Serif" font-size="10.00" fill="#000000">ntv2rp188.h</text>
</a>
</g>
</g>
<!-- Node52&#45;&gt;Node55 -->
<g id="edge115" class="edge">
<title>Node52&#45;&gt;Node55</title>
<path fill="none" stroke="#191970" d="M1579.1184,-616.1324C1570.1719,-603.2054 1553.9608,-579.8479 1539.9373,-560 1493.2493,-493.9212 1474.4398,-482.0408 1433.9373,-412 1401.884,-356.5705 1373.0983,-286.2086 1360.1611,-252.9965"/>
<polygon fill="#191970" stroke="#191970" points="1363.3958,-251.6568 1356.5335,-243.5847 1356.8641,-254.1744 1363.3958,-251.6568"/>
</g>
<!-- Node57 -->
<g id="node58" class="node">
<title>Node57</title>
<g id="a_node58"><a xlink:href="../../da/d42/process_8h.html" target="_top" xlink:title="Declares the AJAProcess class. ">
<polygon fill="#ffffff" stroke="#000000" points="1582.4373,-504.5 1582.4373,-523.5 1713.4373,-523.5 1713.4373,-504.5 1582.4373,-504.5"/>
<text text-anchor="middle" x="1647.9373" y="-511.5" font-family="Helvetica,sans-Serif" font-size="10.00" fill="#000000">ajabase/system/process.h</text>
</a>
</g>
</g>
<!-- Node52&#45;&gt;Node57 -->
<g id="edge120" class="edge">
<title>Node52&#45;&gt;Node57</title>
<path fill="none" stroke="#191970" d="M1591.2234,-616.4509C1601.5185,-597.8533 1624.415,-556.4919 1637.7536,-532.3964"/>
<polygon fill="#191970" stroke="#191970" points="1640.8835,-533.969 1642.6646,-523.5249 1634.7592,-530.5787 1640.8835,-533.969"/>
</g>
<!-- Node54&#45;&gt;Node12 -->
<g id="edge113" class="edge">
<title>Node54&#45;&gt;Node12</title>
<path fill="none" stroke="#191970" d="M1177.6603,-560.2455C1169.1155,-552.1352 1156.7595,-540.4075 1146.6288,-530.7919"/>
<polygon fill="#191970" stroke="#191970" points="1148.7591,-527.9884 1139.0965,-523.6427 1143.9401,-533.0655 1148.7591,-527.9884"/>
</g>
<!-- Node54&#45;&gt;Node17 -->
<g id="edge112" class="edge">
<title>Node54&#45;&gt;Node17</title>
<path fill="none" stroke="#191970" d="M1156.8965,-569.6428C994.1693,-567.3706 246.9373,-551.8285 246.9373,-458 246.9373,-458 246.9373,-458 246.9373,-402 246.9373,-269.3648 110.8191,-299.4679 38.9373,-188 6.6215,-137.8876 -16.0709,-106.9318 14.9373,-56 25.2399,-39.0776 43.9943,-28.1074 61.6396,-21.1428"/>
<polygon fill="#191970" stroke="#191970" points="63.0464,-24.3562 71.2677,-17.6733 60.6733,-17.7707 63.0464,-24.3562"/>
</g>
<!-- Node54&#45;&gt;Node48 -->
<g id="edge114" class="edge">
<title>Node54&#45;&gt;Node48</title>
<path fill="none" stroke="#191970" d="M1187.8659,-560.4194C1188.3019,-546.0661 1191.3141,-519.0617 1206.9373,-504 1328.9298,-386.3918 1472.5697,-545.4964 1576.9373,-412 1633.1043,-340.1568 1531.3802,-234.3875 1487.5733,-194.2508"/>
<polygon fill="#191970" stroke="#191970" points="1489.8935,-191.6302 1480.1187,-187.5431 1485.2113,-196.8338 1489.8935,-191.6302"/>
</g>
<!-- Node55&#45;&gt;Node14 -->
<g id="edge118" class="edge">
<title>Node55&#45;&gt;Node14</title>
<path fill="none" stroke="#191970" d="M1318.9184,-231.223C1210.6481,-222.3846 872.8629,-194.8103 730.8494,-183.2173"/>
<polygon fill="#191970" stroke="#191970" points="730.8139,-179.7029 720.5622,-182.3775 730.2443,-186.6797 730.8139,-179.7029"/>
</g>
<!-- Node55&#45;&gt;Node18 -->
<g id="edge116" class="edge">
<title>Node55&#45;&gt;Node18</title>
<path fill="none" stroke="#191970" d="M1347.0404,-224.1889C1341.4999,-214.916 1333.024,-200.5881 1325.9373,-188 1307.1092,-154.5561 1316.527,-133.7963 1284.9373,-112 1162.0121,-27.1839 674.8957,-12.7713 546.8863,-10.4338"/>
<polygon fill="#191970" stroke="#191970" points="546.6849,-6.93 536.6266,-10.2588 546.5654,-13.929 546.6849,-6.93"/>
</g>
<!-- Node56 -->
<g id="node57" class="node">
<title>Node56</title>
<polygon fill="#ffffff" stroke="#bfbfbf" points="1334.9373,-168.5 1334.9373,-187.5 1386.9373,-187.5 1386.9373,-168.5 1334.9373,-168.5"/>
<text text-anchor="middle" x="1360.9373" y="-175.5" font-family="Helvetica,sans-Serif" font-size="10.00" fill="#000000">ostream</text>
</g>
<!-- Node55&#45;&gt;Node56 -->
<g id="edge117" class="edge">
<title>Node55&#45;&gt;Node56</title>
<path fill="none" stroke="#191970" d="M1354.3308,-224.2455C1355.3747,-216.9382 1356.8381,-206.6944 1358.1223,-197.7046"/>
<polygon fill="#191970" stroke="#191970" points="1361.6103,-198.0372 1359.5597,-187.6427 1354.6806,-197.0472 1361.6103,-198.0372"/>
</g>
<!-- Node57&#45;&gt;Node38 -->
<g id="edge121" class="edge">
<title>Node57&#45;&gt;Node38</title>
<path fill="none" stroke="#191970" d="M1650.2297,-504.4772C1654.6538,-485.2372 1663.9373,-440.3016 1663.9373,-402 1663.9373,-402 1663.9373,-402 1663.9373,-290 1663.9373,-248.4126 1626.0642,-212.9469 1600.2946,-193.6288"/>
<polygon fill="#191970" stroke="#191970" points="1602.2491,-190.7232 1592.0915,-187.711 1598.1537,-196.4001 1602.2491,-190.7232"/>
</g>
<!-- Node58&#45;&gt;Node20 -->
<g id="edge126" class="edge">
<title>Node58&#45;&gt;Node20</title>
<path fill="none" stroke="#191970" d="M1692.1248,-232.6257C1587.2938,-229.4868 1368.2547,-219.4286 1185.9373,-188 1103.4382,-173.7785 1008.4197,-144.4951 964.5193,-130.2055"/>
<polygon fill="#191970" stroke="#191970" points="965.5722,-126.8674 954.9794,-127.0734 963.3886,-133.5182 965.5722,-126.8674"/>
</g>
<!-- Node58&#45;&gt;Node38 -->
<g id="edge127" class="edge">
<title>Node58&#45;&gt;Node38</title>
<path fill="none" stroke="#191970" d="M1723.5099,-224.3733C1693.9501,-215.021 1648.9147,-200.7725 1616.5678,-190.5385"/>
<polygon fill="#191970" stroke="#191970" points="1617.5576,-187.1807 1606.9676,-187.5011 1615.446,-193.8546 1617.5576,-187.1807"/>
</g>
<!-- Node58&#45;&gt;Node48 -->
<g id="edge125" class="edge">
<title>Node58&#45;&gt;Node48</title>
<path fill="none" stroke="#191970" d="M1692.9766,-224.4704C1644.4293,-216.4965 1574.5775,-204.1686 1505.0462,-188.1008"/>
<polygon fill="#191970" stroke="#191970" points="1505.7736,-184.6765 1495.2395,-185.8088 1504.1805,-191.4928 1505.7736,-184.6765"/>
</g>
<!-- Node59 -->
<g id="node60" class="node">
<title>Node59</title>
<polygon fill="#ffffff" stroke="#bfbfbf" points="1862.9373,-168.5 1862.9373,-187.5 1908.9373,-187.5 1908.9373,-168.5 1862.9373,-168.5"/>
<text text-anchor="middle" x="1885.9373" y="-175.5" font-family="Helvetica,sans-Serif" font-size="10.00" fill="#000000">stdio.h</text>
</g>
<!-- Node58&#45;&gt;Node59 -->
<g id="edge124" class="edge">
<title>Node58&#45;&gt;Node59</title>
<path fill="none" stroke="#191970" d="M1776.6289,-224.3733C1798.0084,-215.3032 1830.243,-201.6279 1854.1735,-191.4755"/>
<polygon fill="#191970" stroke="#191970" points="1855.7029,-194.6287 1863.5418,-187.5011 1852.969,-188.1846 1855.7029,-194.6287"/>
</g>
<!-- Node60 -->
<g id="node61" class="node">
<title>Node60</title>
<g id="a_node61"><a xlink:href="../../d0/db4/debugshare_8h.html" target="_top" xlink:title="Declares the constants used for sharing debug messages. These structures are used to gather debug mes...">
<polygon fill="#ffffff" stroke="#000000" points="1659.4373,-168.5 1659.4373,-187.5 1806.4373,-187.5 1806.4373,-168.5 1659.4373,-168.5"/>
<text text-anchor="middle" x="1732.9373" y="-175.5" font-family="Helvetica,sans-Serif" font-size="10.00" fill="#000000">ajabase/system/debugshare.h</text>
</a>
</g>
</g>
<!-- Node58&#45;&gt;Node60 -->
<g id="edge128" class="edge">
<title>Node58&#45;&gt;Node60</title>
<path fill="none" stroke="#191970" d="M1750.2793,-224.2455C1747.4789,-216.7776 1743.5283,-206.2427 1740.1049,-197.1137"/>
<polygon fill="#191970" stroke="#191970" points="1743.3417,-195.777 1736.5533,-187.6427 1736.7874,-198.2349 1743.3417,-195.777"/>
</g>
<!-- Node60&#45;&gt;Node4 -->
<g id="edge131" class="edge">
<title>Node60&#45;&gt;Node4</title>
<path fill="none" stroke="#191970" d="M1734.9193,-168.4862C1740.4759,-141.8144 1756.289,-65.9117 1763.8341,-29.695"/>
<polygon fill="#191970" stroke="#191970" points="1767.2766,-30.3316 1765.8898,-19.8279 1760.4237,-28.9038 1767.2766,-30.3316"/>
</g>
<!-- Node60&#45;&gt;Node18 -->
<g id="edge132" class="edge">
<title>Node60&#45;&gt;Node18</title>
<path fill="none" stroke="#191970" d="M1727.8401,-168.0535C1719.6776,-153.2221 1702.197,-125.6019 1678.9373,-112 1554.3006,-39.1144 1502.3856,-72.4068 1358.9373,-56 1042.9026,-19.8538 656.8599,-11.9342 546.6335,-10.3606"/>
<polygon fill="#191970" stroke="#191970" points="546.5989,-6.8599 536.5523,-10.2237 546.5038,-13.8592 546.5989,-6.8599"/>
</g>
<!-- Node60&#45;&gt;Node22 -->
<g id="edge133" class="edge">
<title>Node60&#45;&gt;Node22</title>
<path fill="none" stroke="#191970" d="M1659.1883,-168.9557C1656.0639,-168.6228 1652.9701,-168.3026 1649.9373,-168 1448.085,-147.8634 1396.8175,-151.8545 1194.9373,-132 1177.636,-130.2985 1158.3946,-128.0635 1142.6003,-126.138"/>
<polygon fill="#191970" stroke="#191970" points="1142.6361,-122.616 1132.2827,-124.8649 1141.7788,-129.5633 1142.6361,-122.616"/>
</g>
<!-- Node60&#45;&gt;Node39 -->
<g id="edge129" class="edge">
<title>Node60&#45;&gt;Node39</title>
<path fill="none" stroke="#191970" d="M1711.1052,-168.3733C1690.627,-159.3435 1659.7974,-145.7494 1636.8053,-135.6111"/>
<polygon fill="#191970" stroke="#191970" points="1638.0466,-132.3333 1627.4845,-131.5011 1635.2223,-138.7383 1638.0466,-132.3333"/>
</g>
<!-- Node60&#45;&gt;Node47 -->
<g id="edge130" class="edge">
<title>Node60&#45;&gt;Node47</title>
<path fill="none" stroke="#191970" d="M1743.0401,-168.2455C1751.4401,-160.1352 1763.5866,-148.4075 1773.5456,-138.7919"/>
<polygon fill="#191970" stroke="#191970" points="1776.1873,-141.1066 1780.9502,-131.6427 1771.3251,-136.0707 1776.1873,-141.1066"/>
</g>
</g>
</svg>
