<?xml version="1.0" encoding="UTF-8" standalone="no"?>
<!DOCTYPE svg PUBLIC "-//W3C//DTD SVG 1.1//EN"
 "http://www.w3.org/Graphics/SVG/1.1/DTD/svg11.dtd">
<!-- Generated by graphviz version 2.40.1 (0)
 -->
<!-- Title: CBasePin Pages: 1 -->
<!--zoomable 218 -->
<svg id="main" version="1.1" xmlns="http://www.w3.org/2000/svg" xmlns:xlink="http://www.w3.org/1999/xlink" xml:space="preserve" onload="init(evt)">
<style type="text/css"><![CDATA[
.edge:hover path { stroke: red; }
.edge:hover polygon { stroke: red; fill: red; }
]]></style>
<script type="text/javascript"><![CDATA[
var edges = document.getElementsByTagName('g');
if (edges && edges.length) {
  for (var i=0;i<edges.length;i++) {
    if (edges[i].id.substr(0,4)=='edge') {
      edges[i].setAttribute('class','edge');
    }
  }
}
]]></script>
        <defs>
                <circle id="rim" cx="0" cy="0" r="7"/>
                <circle id="rim2" cx="0" cy="0" r="3.5"/>
                <g id="zoomPlus">
                        <use xlink:href="#rim" fill="#404040">
                                <set attributeName="fill" to="#808080" begin="zoomplus.mouseover" end="zoomplus.mouseout"/>
                        </use>
                        <path d="M-4,0h8M0,-4v8" fill="none" stroke="white" stroke-width="1.5" pointer-events="none"/>
                </g>
                <g id="zoomMin">
                        <use xlink:href="#rim" fill="#404040">
                                <set attributeName="fill" to="#808080" begin="zoomminus.mouseover" end="zoomminus.mouseout"/>
                        </use>
                        <path d="M-4,0h8" fill="none" stroke="white" stroke-width="1.5" pointer-events="none"/>
                </g>
                <g id="dirArrow">
                        <path fill="none" stroke="white" stroke-width="1.5" d="M0,-3.0v7 M-2.5,-0.5L0,-3.0L2.5,-0.5"/>
                </g>
               <g id="resetDef">
                       <use xlink:href="#rim2" fill="#404040">
                               <set attributeName="fill" to="#808080" begin="reset.mouseover" end="reset.mouseout"/>
                       </use>
               </g>
        </defs>

<script type="text/javascript">
var viewWidth = 782;
var viewHeight = 218;
var sectionId = 'dynsection-0';
</script>
<script xlink:href="../../svgpan.js"/>
<svg id="graph" class="graph">
<g id="viewport">
<title>CBasePin</title>
<polygon fill="#ffffff" stroke="transparent" points="-4,4 -4,-214 778,-214 778,4 -4,4"/>
<!-- Node0 -->
<g id="node1" class="node">
<title>Node0</title>
<polygon fill="#bfbfbf" stroke="#000000" points="279,-76.5 279,-95.5 340,-95.5 340,-76.5 279,-76.5"/>
<text text-anchor="middle" x="309.5" y="-83.5" font-family="Helvetica,sans-Serif" font-size="10.00" fill="#000000">CBasePin</text>
</g>
<!-- Node6 -->
<g id="node7" class="node">
<title>Node6</title>
<g id="a_node7"><a xlink:href="../../d6/d58/class_c_base_input_pin.html" target="_top" xlink:title="CBaseInputPin">
<polygon fill="#ffffff" stroke="#000000" points="379.5,-133.5 379.5,-152.5 462.5,-152.5 462.5,-133.5 379.5,-133.5"/>
<text text-anchor="middle" x="421" y="-140.5" font-family="Helvetica,sans-Serif" font-size="10.00" fill="#000000">CBaseInputPin</text>
</a>
</g>
</g>
<!-- Node0&#45;&gt;Node6 -->
<g id="edge6" class="edge">
<title>Node0&#45;&gt;Node6</title>
<path fill="none" stroke="#191970" d="M337.2337,-100.1777C357.5176,-110.5471 384.4873,-124.3343 402.2765,-133.4284"/>
<polygon fill="#191970" stroke="#191970" points="338.6597,-96.976 328.1626,-95.5405 335.4734,-103.2088 338.6597,-96.976"/>
</g>
<!-- Node11 -->
<g id="node12" class="node">
<title>Node11</title>
<g id="a_node12"><a xlink:href="../../dc/d8e/class_c_base_output_pin.html" target="_top" xlink:title="CBaseOutputPin">
<polygon fill="#ffffff" stroke="#000000" points="376,-57.5 376,-76.5 466,-76.5 466,-57.5 376,-57.5"/>
<text text-anchor="middle" x="421" y="-64.5" font-family="Helvetica,sans-Serif" font-size="10.00" fill="#000000">CBaseOutputPin</text>
</a>
</g>
</g>
<!-- Node0&#45;&gt;Node11 -->
<g id="edge11" class="edge">
<title>Node0&#45;&gt;Node11</title>
<path fill="none" stroke="#191970" d="M350.3922,-79.0318C358.6334,-77.6275 367.3419,-76.1435 375.7228,-74.7154"/>
<polygon fill="#191970" stroke="#191970" points="349.533,-75.6277 340.263,-80.7579 350.7089,-82.5282 349.533,-75.6277"/>
</g>
<!-- Node1 -->
<g id="node2" class="node">
<title>Node1</title>
<g id="a_node2"><a xlink:href="../../d9/d89/class_c_unknown.html" target="_top" xlink:title="CUnknown">
<polygon fill="#ffffff" stroke="#000000" points="169.5,-114.5 169.5,-133.5 234.5,-133.5 234.5,-114.5 169.5,-114.5"/>
<text text-anchor="middle" x="202" y="-121.5" font-family="Helvetica,sans-Serif" font-size="10.00" fill="#000000">CUnknown</text>
</a>
</g>
</g>
<!-- Node1&#45;&gt;Node0 -->
<g id="edge1" class="edge">
<title>Node1&#45;&gt;Node0</title>
<path fill="none" stroke="#191970" d="M238.6965,-111.0282C253.0185,-105.9656 269.1425,-100.2659 282.3819,-95.5859"/>
<polygon fill="#191970" stroke="#191970" points="237.3886,-107.7782 229.1268,-114.411 239.7216,-114.378 237.3886,-107.7782"/>
</g>
<!-- Node2 -->
<g id="node3" class="node">
<title>Node2</title>
<polygon fill="#ffffff" stroke="#bfbfbf" points="0,-133.5 0,-152.5 125,-152.5 125,-133.5 0,-133.5"/>
<text text-anchor="middle" x="62.5" y="-140.5" font-family="Helvetica,sans-Serif" font-size="10.00" fill="#000000">INonDelegatingUnknown</text>
</g>
<!-- Node2&#45;&gt;Node1 -->
<g id="edge2" class="edge">
<title>Node2&#45;&gt;Node1</title>
<path fill="none" stroke="#191970" d="M135.3119,-133.083C147.2189,-131.4612 159.0067,-129.8557 169.2838,-128.456"/>
<polygon fill="#191970" stroke="#191970" points="134.7486,-129.6273 125.3125,-134.4449 135.6933,-136.5632 134.7486,-129.6273"/>
</g>
<!-- Node3 -->
<g id="node4" class="node">
<title>Node3</title>
<g id="a_node4"><a xlink:href="../../d1/d2d/class_c_base_object.html" target="_top" xlink:title="CBaseObject">
<polygon fill="#ffffff" stroke="#000000" points="25,-95.5 25,-114.5 100,-114.5 100,-95.5 25,-95.5"/>
<text text-anchor="middle" x="62.5" y="-102.5" font-family="Helvetica,sans-Serif" font-size="10.00" fill="#000000">CBaseObject</text>
</a>
</g>
</g>
<!-- Node3&#45;&gt;Node1 -->
<g id="edge3" class="edge">
<title>Node3&#45;&gt;Node1</title>
<path fill="none" stroke="#191970" d="M110.1896,-111.4954C129.7151,-114.1547 151.8118,-117.1643 169.4338,-119.5645"/>
<polygon fill="#191970" stroke="#191970" points="110.6316,-108.0233 100.2507,-110.1417 109.6869,-114.9593 110.6316,-108.0233"/>
</g>
<!-- Node4 -->
<g id="node5" class="node">
<title>Node4</title>
<polygon fill="#ffffff" stroke="#bfbfbf" points="185,-76.5 185,-95.5 219,-95.5 219,-76.5 185,-76.5"/>
<text text-anchor="middle" x="202" y="-83.5" font-family="Helvetica,sans-Serif" font-size="10.00" fill="#000000">IPin</text>
</g>
<!-- Node4&#45;&gt;Node0 -->
<g id="edge4" class="edge">
<title>Node4&#45;&gt;Node0</title>
<path fill="none" stroke="#191970" d="M229.501,-86C244.5686,-86 263.2836,-86 278.823,-86"/>
<polygon fill="#191970" stroke="#191970" points="229.2718,-82.5001 219.2717,-86 229.2717,-89.5001 229.2718,-82.5001"/>
</g>
<!-- Node5 -->
<g id="node6" class="node">
<title>Node5</title>
<polygon fill="#ffffff" stroke="#bfbfbf" points="161,-38.5 161,-57.5 243,-57.5 243,-38.5 161,-38.5"/>
<text text-anchor="middle" x="202" y="-45.5" font-family="Helvetica,sans-Serif" font-size="10.00" fill="#000000">IQualityControl</text>
</g>
<!-- Node5&#45;&gt;Node0 -->
<g id="edge5" class="edge">
<title>Node5&#45;&gt;Node0</title>
<path fill="none" stroke="#191970" d="M238.6965,-60.9718C253.0185,-66.0344 269.1425,-71.7341 282.3819,-76.4141"/>
<polygon fill="#191970" stroke="#191970" points="239.7216,-57.622 229.1268,-57.589 237.3886,-64.2218 239.7216,-57.622"/>
</g>
<!-- Node7 -->
<g id="node8" class="node">
<title>Node7</title>
<g id="a_node8"><a xlink:href="../../da/dcf/class_c_rendered_input_pin.html" target="_top" xlink:title="CRenderedInputPin">
<polygon fill="#ffffff" stroke="#000000" points="506.5,-190.5 506.5,-209.5 608.5,-209.5 608.5,-190.5 506.5,-190.5"/>
<text text-anchor="middle" x="557.5" y="-197.5" font-family="Helvetica,sans-Serif" font-size="10.00" fill="#000000">CRenderedInputPin</text>
</a>
</g>
</g>
<!-- Node6&#45;&gt;Node7 -->
<g id="edge7" class="edge">
<title>Node6&#45;&gt;Node7</title>
<path fill="none" stroke="#191970" d="M449.0737,-157.0918C464.5122,-164.6064 484.1119,-173.7671 502,-181 510.2143,-184.3214 519.2554,-187.5797 527.6126,-190.4341"/>
<polygon fill="#191970" stroke="#191970" points="450.5697,-153.9272 440.0512,-152.6575 447.4821,-160.2095 450.5697,-153.9272"/>
</g>
<!-- Node8 -->
<g id="node9" class="node">
<title>Node8</title>
<g id="a_node9"><a xlink:href="../../d3/d06/class_c_renderer_input_pin.html" target="_top" xlink:title="CRendererInputPin">
<polygon fill="#ffffff" stroke="#000000" points="507.5,-152.5 507.5,-171.5 607.5,-171.5 607.5,-152.5 507.5,-152.5"/>
<text text-anchor="middle" x="557.5" y="-159.5" font-family="Helvetica,sans-Serif" font-size="10.00" fill="#000000">CRendererInputPin</text>
</a>
</g>
</g>
<!-- Node6&#45;&gt;Node8 -->
<g id="edge8" class="edge">
<title>Node6&#45;&gt;Node8</title>
<path fill="none" stroke="#191970" d="M472.8761,-150.2208C484.1985,-151.7969 496.16,-153.4618 507.4112,-155.0279"/>
<polygon fill="#191970" stroke="#191970" points="473.0833,-146.716 462.6962,-148.8039 472.1182,-153.6492 473.0833,-146.716"/>
</g>
<!-- Node9 -->
<g id="node10" class="node">
<title>Node9</title>
<g id="a_node10"><a xlink:href="../../d4/dd3/class_c_transform_input_pin.html" target="_top" xlink:title="CTransformInputPin">
<polygon fill="#ffffff" stroke="#000000" points="505.5,-114.5 505.5,-133.5 609.5,-133.5 609.5,-114.5 505.5,-114.5"/>
<text text-anchor="middle" x="557.5" y="-121.5" font-family="Helvetica,sans-Serif" font-size="10.00" fill="#000000">CTransformInputPin</text>
</a>
</g>
</g>
<!-- Node6&#45;&gt;Node9 -->
<g id="edge9" class="edge">
<title>Node6&#45;&gt;Node9</title>
<path fill="none" stroke="#191970" d="M472.7452,-135.7974C483.4493,-134.3074 494.7297,-132.7373 505.4449,-131.2458"/>
<polygon fill="#191970" stroke="#191970" points="472.1182,-132.3508 462.6962,-137.1961 473.0833,-139.284 472.1182,-132.3508"/>
</g>
<!-- Node10 -->
<g id="node11" class="node">
<title>Node10</title>
<g id="a_node11"><a xlink:href="../../d4/d7f/class_c_trans_in_place_input_pin.html" target="_top" xlink:title="CTransInPlaceInputPin">
<polygon fill="#ffffff" stroke="#000000" points="653,-114.5 653,-133.5 770,-133.5 770,-114.5 653,-114.5"/>
<text text-anchor="middle" x="711.5" y="-121.5" font-family="Helvetica,sans-Serif" font-size="10.00" fill="#000000">CTransInPlaceInputPin</text>
</a>
</g>
</g>
<!-- Node9&#45;&gt;Node10 -->
<g id="edge10" class="edge">
<title>Node9&#45;&gt;Node10</title>
<path fill="none" stroke="#191970" d="M619.9005,-124C630.7645,-124 642.0311,-124 652.7918,-124"/>
<polygon fill="#191970" stroke="#191970" points="619.6374,-120.5001 609.6374,-124 619.6373,-127.5001 619.6374,-120.5001"/>
</g>
<!-- Node12 -->
<g id="node13" class="node">
<title>Node12</title>
<g id="a_node13"><a xlink:href="../../df/d08/class_c_dynamic_output_pin.html" target="_top" xlink:title="CDynamicOutputPin">
<polygon fill="#ffffff" stroke="#000000" points="504,-76.5 504,-95.5 611,-95.5 611,-76.5 504,-76.5"/>
<text text-anchor="middle" x="557.5" y="-83.5" font-family="Helvetica,sans-Serif" font-size="10.00" fill="#000000">CDynamicOutputPin</text>
</a>
</g>
</g>
<!-- Node11&#45;&gt;Node12 -->
<g id="edge12" class="edge">
<title>Node11&#45;&gt;Node12</title>
<path fill="none" stroke="#191970" d="M476.2221,-74.6866C485.3654,-75.9593 494.8327,-77.2771 503.9342,-78.544"/>
<polygon fill="#191970" stroke="#191970" points="476.4606,-71.1861 466.0735,-73.274 475.4955,-78.1193 476.4606,-71.1861"/>
</g>
<!-- Node13 -->
<g id="node14" class="node">
<title>Node13</title>
<g id="a_node14"><a xlink:href="../../de/dc3/class_c_source_stream.html" target="_top" xlink:title="CSourceStream">
<polygon fill="#ffffff" stroke="#000000" points="514.5,-38.5 514.5,-57.5 600.5,-57.5 600.5,-38.5 514.5,-38.5"/>
<text text-anchor="middle" x="557.5" y="-45.5" font-family="Helvetica,sans-Serif" font-size="10.00" fill="#000000">CSourceStream</text>
</a>
</g>
</g>
<!-- Node11&#45;&gt;Node13 -->
<g id="edge13" class="edge">
<title>Node11&#45;&gt;Node13</title>
<path fill="none" stroke="#191970" d="M476.1087,-59.3292C488.8355,-57.5577 502.1958,-55.698 514.3281,-54.0093"/>
<polygon fill="#191970" stroke="#191970" points="475.4955,-55.8807 466.0735,-60.726 476.4606,-62.8139 475.4955,-55.8807"/>
</g>
<!-- Node14 -->
<g id="node15" class="node">
<title>Node14</title>
<g id="a_node15"><a xlink:href="../../d1/d80/class_c_transform_output_pin.html" target="_top" xlink:title="CTransformOutputPin">
<polygon fill="#ffffff" stroke="#000000" points="502,-.5 502,-19.5 613,-19.5 613,-.5 502,-.5"/>
<text text-anchor="middle" x="557.5" y="-7.5" font-family="Helvetica,sans-Serif" font-size="10.00" fill="#000000">CTransformOutputPin</text>
</a>
</g>
</g>
<!-- Node11&#45;&gt;Node14 -->
<g id="edge14" class="edge">
<title>Node11&#45;&gt;Node14</title>
<path fill="none" stroke="#191970" d="M449.0737,-52.9082C464.5122,-45.3936 484.1119,-36.2329 502,-29 510.2143,-25.6786 519.2554,-22.4203 527.6126,-19.5659"/>
<polygon fill="#191970" stroke="#191970" points="447.4821,-49.7905 440.0512,-57.3425 450.5697,-56.0728 447.4821,-49.7905"/>
</g>
<!-- Node15 -->
<g id="node16" class="node">
<title>Node15</title>
<g id="a_node16"><a xlink:href="../../d0/d61/class_c_trans_in_place_output_pin.html" target="_top" xlink:title="CTransInPlaceOutputPin">
<polygon fill="#ffffff" stroke="#000000" points="649,-.5 649,-19.5 774,-19.5 774,-.5 649,-.5"/>
<text text-anchor="middle" x="711.5" y="-7.5" font-family="Helvetica,sans-Serif" font-size="10.00" fill="#000000">CTransInPlaceOutputPin</text>
</a>
</g>
</g>
<!-- Node14&#45;&gt;Node15 -->
<g id="edge15" class="edge">
<title>Node14&#45;&gt;Node15</title>
<path fill="none" stroke="#191970" d="M623.3326,-10C631.8222,-10 640.4967,-10 648.9317,-10"/>
<polygon fill="#191970" stroke="#191970" points="623.0976,-6.5001 613.0975,-10 623.0975,-13.5001 623.0976,-6.5001"/>
</g>
</g>
</svg>
        <g id="navigator" transform="translate(0 0)" fill="#404254">
                <rect fill="#f2f5e9" fill-opacity="0.5" stroke="#606060" stroke-width=".5" x="0" y="0" width="60" height="60"/>
                <use id="zoomplus" xlink:href="#zoomPlus" x="17" y="9" onmousedown="handleZoom(evt,'in')"/>
                <use id="zoomminus" xlink:href="#zoomMin" x="42" y="9" onmousedown="handleZoom(evt,'out')"/>
                <use id="reset" xlink:href="#resetDef" x="30" y="36" onmousedown="handleReset()"/>
                <g id="arrowUp" xlink:href="#dirArrow" transform="translate(30 24)" onmousedown="handlePan(0,-1)">
                  <use xlink:href="#rim" fill="#404040">
                        <set attributeName="fill" to="#808080" begin="arrowUp.mouseover" end="arrowUp.mouseout"/>
                  </use>
                  <path fill="none" stroke="white" stroke-width="1.5" d="M0,-3.0v7 M-2.5,-0.5L0,-3.0L2.5,-0.5"/>
                </g>
                <g id="arrowRight" xlink:href="#dirArrow" transform="rotate(90) translate(36 -43)" onmousedown="handlePan(1,0)">
                  <use xlink:href="#rim" fill="#404040">
                        <set attributeName="fill" to="#808080" begin="arrowRight.mouseover" end="arrowRight.mouseout"/>
                  </use>
                  <path fill="none" stroke="white" stroke-width="1.5" d="M0,-3.0v7 M-2.5,-0.5L0,-3.0L2.5,-0.5"/>
                </g>
                <g id="arrowDown" xlink:href="#dirArrow" transform="rotate(180) translate(-30 -48)" onmousedown="handlePan(0,1)">
                  <use xlink:href="#rim" fill="#404040">
                        <set attributeName="fill" to="#808080" begin="arrowDown.mouseover" end="arrowDown.mouseout"/>
                  </use>
                  <path fill="none" stroke="white" stroke-width="1.5" d="M0,-3.0v7 M-2.5,-0.5L0,-3.0L2.5,-0.5"/>
                </g>
                <g id="arrowLeft" xlink:href="#dirArrow" transform="rotate(270) translate(-36 17)" onmousedown="handlePan(-1,0)">
                  <use xlink:href="#rim" fill="#404040">
                        <set attributeName="fill" to="#808080" begin="arrowLeft.mouseover" end="arrowLeft.mouseout"/>
                  </use>
                  <path fill="none" stroke="white" stroke-width="1.5" d="M0,-3.0v7 M-2.5,-0.5L0,-3.0L2.5,-0.5"/>
                </g>
        </g>
        <svg viewBox="0 0 15 15" width="100%" height="30px" preserveAspectRatio="xMaxYMin meet">
         <g id="arrow_out" transform="scale(0.3 0.3)">
          <a xlink:href="class_c_base_pin__inherit__graph_org.svg" target="_base">
           <rect id="button" ry="5" rx="5" y="6" x="6" height="38" width="38"
                fill="#f2f5e9" fill-opacity="0.5" stroke="#606060" stroke-width="1.0"/>
           <path id="arrow"
             d="M 11.500037,31.436501 C 11.940474,20.09759 22.043105,11.32322 32.158766,21.979434 L 37.068811,17.246167 C 37.068811,17.246167 37.088388,32 37.088388,32 L 22.160133,31.978069 C 22.160133,31.978069 26.997745,27.140456 26.997745,27.140456 C 18.528582,18.264221 13.291696,25.230495 11.500037,31.436501 z"
             style="fill:#404040;"/>
          </a>
         </g>
        </svg>
</svg>
