<?xml version="1.0" encoding="UTF-8" standalone="no"?>
<!DOCTYPE svg PUBLIC "-//W3C//DTD SVG 1.1//EN"
 "http://www.w3.org/Graphics/SVG/1.1/DTD/svg11.dtd">
<!-- Generated by graphviz version 2.40.1 (0)
 -->
<!-- Title: /home/tcbuilder/buildAgent/work/df8e8cce5bebfd58/libajacc/includes/ntv2captiontranslatorchannel608to708.h Pages: 1 -->
<svg width="239pt" height="128pt"
 viewBox="0.00 0.00 239.00 128.00" xmlns="http://www.w3.org/2000/svg" xmlns:xlink="http://www.w3.org/1999/xlink">
<g id="graph0" class="graph" transform="scale(1 1) rotate(0) translate(4 124)">
<title>/home/tcbuilder/buildAgent/work/df8e8cce5bebfd58/libajacc/includes/ntv2captiontranslatorchannel608to708.h</title>
<polygon fill="#ffffff" stroke="transparent" points="-4,4 -4,-124 235,-124 235,4 -4,4"/>
<!-- Node37 -->
<g id="node1" class="node">
<title>Node37</title>
<polygon fill="#bfbfbf" stroke="#000000" points="0,-78.5 0,-119.5 231,-119.5 231,-78.5 0,-78.5"/>
<text text-anchor="start" x="8" y="-107.5" font-family="Helvetica,sans-Serif" font-size="10.00" fill="#000000">/home/tcbuilder/buildAgent</text>
<text text-anchor="start" x="8" y="-96.5" font-family="Helvetica,sans-Serif" font-size="10.00" fill="#000000">/work/df8e8cce5bebfd58/libajacc</text>
<text text-anchor="middle" x="115.5" y="-85.5" font-family="Helvetica,sans-Serif" font-size="10.00" fill="#000000">/includes/ntv2captiontranslatorchannel608to708.h</text>
</g>
<!-- Node38 -->
<g id="node2" class="node">
<title>Node38</title>
<g id="a_node2"><a xlink:href="../../df/d2f/ntv2captiontranslator608to708_8h.html" target="_top" xlink:title="Declares the CNTV2CaptionTranslator608to708 class. ">
<polygon fill="#ffffff" stroke="#000000" points="17,-.5 17,-41.5 214,-41.5 214,-.5 17,-.5"/>
<text text-anchor="start" x="25" y="-29.5" font-family="Helvetica,sans-Serif" font-size="10.00" fill="#000000">/home/tcbuilder/buildAgent</text>
<text text-anchor="start" x="25" y="-18.5" font-family="Helvetica,sans-Serif" font-size="10.00" fill="#000000">/work/df8e8cce5bebfd58/libajacc</text>
<text text-anchor="middle" x="115.5" y="-7.5" font-family="Helvetica,sans-Serif" font-size="10.00" fill="#000000">/includes/ntv2captiontranslator608to708.h</text>
</a>
</g>
</g>
<!-- Node37&#45;&gt;Node38 -->
<g id="edge1" class="edge">
<title>Node37&#45;&gt;Node38</title>
<path fill="none" stroke="#191970" d="M115.5,-68.0789C115.5,-59.2178 115.5,-49.7747 115.5,-41.6898"/>
<polygon fill="#191970" stroke="#191970" points="112.0001,-68.0974 115.5,-78.0974 119.0001,-68.0975 112.0001,-68.0974"/>
</g>
</g>
</svg>
