<?xml version="1.0" encoding="UTF-8" standalone="no"?>
<!DOCTYPE svg PUBLIC "-//W3C//DTD SVG 1.1//EN"
 "http://www.w3.org/Graphics/SVG/1.1/DTD/svg11.dtd">
<!-- Generated by graphviz version 2.43.0 (0)
 -->
<!-- Title: /home/tcbuilder/buildAgent/work/df8e8cce5bebfd58/libajantv2/ajantv2/src/ntv2formatdescriptor.cpp Pages: 1 -->
<svg width="1114pt" height="386pt"
 viewBox="0.00 0.00 1113.89 386.00" xmlns="http://www.w3.org/2000/svg" xmlns:xlink="http://www.w3.org/1999/xlink">
<g id="graph0" class="graph" transform="scale(1 1) rotate(0) translate(4 382)">
<title>/home/tcbuilder/buildAgent/work/df8e8cce5bebfd58/libajantv2/ajantv2/src/ntv2formatdescriptor.cpp</title>
<polygon fill="white" stroke="transparent" points="-4,4 -4,-382 1109.89,-382 1109.89,4 -4,4"/>
<!-- Node1 -->
<g id="node1" class="node">
<title>Node1</title>
<g id="a_node1"><a xlink:title="Implementation of the NTV2FormatDescriptor class.">
<polygon fill="#bfbfbf" stroke="black" points="594,-336.5 594,-377.5 794,-377.5 794,-336.5 594,-336.5"/>
<text text-anchor="start" x="602" y="-365.5" font-family="Helvetica,sans-Serif" font-size="10.00">/home/tcbuilder/buildAgent</text>
<text text-anchor="start" x="602" y="-354.5" font-family="Helvetica,sans-Serif" font-size="10.00">/work/df8e8cce5bebfd58/libajantv2</text>
<text text-anchor="middle" x="694" y="-343.5" font-family="Helvetica,sans-Serif" font-size="10.00">/ajantv2/src/ntv2formatdescriptor.cpp</text>
</a>
</g>
</g>
<!-- Node2 -->
<g id="node2" class="node">
<title>Node2</title>
<g id="a_node2"><a xlink:href="../../dc/df4/ntv2formatdescriptor_8h.html" target="_top" xlink:title="Declares the NTV2FormatDescriptor class.">
<polygon fill="white" stroke="black" points="158,-224.5 158,-243.5 286,-243.5 286,-224.5 158,-224.5"/>
<text text-anchor="middle" x="222" y="-231.5" font-family="Helvetica,sans-Serif" font-size="10.00">ntv2formatdescriptor.h</text>
</a>
</g>
</g>
<!-- Node1&#45;&gt;Node2 -->
<g id="edge1" class="edge">
<title>Node1&#45;&gt;Node2</title>
<path fill="none" stroke="midnightblue" d="M593.74,-337.17C543.94,-327.23 483.02,-314.15 429,-300 367.53,-283.89 297.18,-260.79 256.35,-246.9"/>
<polygon fill="midnightblue" stroke="midnightblue" points="257.22,-243.5 246.63,-243.58 254.96,-250.13 257.22,-243.5"/>
</g>
<!-- Node14 -->
<g id="node14" class="node">
<title>Node14</title>
<g id="a_node14"><a xlink:title=" ">
<polygon fill="white" stroke="#bfbfbf" points="878,-112.5 878,-131.5 934,-131.5 934,-112.5 878,-112.5"/>
<text text-anchor="middle" x="906" y="-119.5" font-family="Helvetica,sans-Serif" font-size="10.00">iomanip</text>
</a>
</g>
</g>
<!-- Node1&#45;&gt;Node14 -->
<g id="edge40" class="edge">
<title>Node1&#45;&gt;Node14</title>
<path fill="none" stroke="midnightblue" d="M712.08,-336.13C753.29,-290.83 853.59,-180.61 891.32,-139.13"/>
<polygon fill="midnightblue" stroke="midnightblue" points="894.05,-141.34 898.19,-131.59 888.87,-136.63 894.05,-141.34"/>
</g>
<!-- Node18 -->
<g id="node18" class="node">
<title>Node18</title>
<g id="a_node18"><a xlink:href="../../d0/d81/ntv2utils_8h.html" target="_top" xlink:title="Declares numerous NTV2 utility functions.">
<polygon fill="white" stroke="black" points="438,-280.5 438,-299.5 506,-299.5 506,-280.5 438,-280.5"/>
<text text-anchor="middle" x="472" y="-287.5" font-family="Helvetica,sans-Serif" font-size="10.00">ntv2utils.h</text>
</a>
</g>
</g>
<!-- Node1&#45;&gt;Node18 -->
<g id="edge27" class="edge">
<title>Node1&#45;&gt;Node18</title>
<path fill="none" stroke="midnightblue" d="M627.39,-336.5C589.48,-325.4 543.29,-311.87 511.17,-302.47"/>
<polygon fill="midnightblue" stroke="midnightblue" points="511.84,-299.02 501.26,-299.57 509.87,-305.74 511.84,-299.02"/>
</g>
<!-- Node21 -->
<g id="node21" class="node">
<title>Node21</title>
<g id="a_node21"><a xlink:title=" ">
<polygon fill="white" stroke="#bfbfbf" points="1021,-280.5 1021,-299.5 1077,-299.5 1077,-280.5 1021,-280.5"/>
<text text-anchor="middle" x="1049" y="-287.5" font-family="Helvetica,sans-Serif" font-size="10.00">sstream</text>
</a>
</g>
</g>
<!-- Node1&#45;&gt;Node21 -->
<g id="edge39" class="edge">
<title>Node1&#45;&gt;Node21</title>
<path fill="none" stroke="midnightblue" d="M794.25,-338.96C855.74,-328.28 936.04,-313.95 1007,-300 1008.23,-299.76 1009.49,-299.51 1010.76,-299.25"/>
<polygon fill="midnightblue" stroke="midnightblue" points="1011.47,-302.68 1020.56,-297.23 1010.06,-295.82 1011.47,-302.68"/>
</g>
<!-- Node3 -->
<g id="node3" class="node">
<title>Node3</title>
<g id="a_node3"><a xlink:href="../../d6/dd9/ajaexport_8h.html" target="_top" xlink:title="Defines the import/export macros for producing DLLs or LIBs.">
<polygon fill="white" stroke="black" points="361,-0.5 361,-19.5 433,-19.5 433,-0.5 361,-0.5"/>
<text text-anchor="middle" x="397" y="-7.5" font-family="Helvetica,sans-Serif" font-size="10.00">ajaexport.h</text>
</a>
</g>
</g>
<!-- Node2&#45;&gt;Node3 -->
<g id="edge2" class="edge">
<title>Node2&#45;&gt;Node3</title>
<path fill="none" stroke="midnightblue" d="M206.84,-224.33C174.39,-204.65 103.43,-154.97 133,-112 182.04,-40.73 288.74,-19.72 350.43,-13.55"/>
<polygon fill="midnightblue" stroke="midnightblue" points="351.02,-17.01 360.66,-12.62 350.39,-10.04 351.02,-17.01"/>
</g>
<!-- Node4 -->
<g id="node4" class="node">
<title>Node4</title>
<g id="a_node4"><a xlink:href="../../db/de2/ajatypes_8h.html" target="_top" xlink:title="Declares the most fundamental data types used by NTV2. Since Windows NT was the first principal devel...">
<polygon fill="white" stroke="black" points="846,-56.5 846,-75.5 914,-75.5 914,-56.5 846,-56.5"/>
<text text-anchor="middle" x="880" y="-63.5" font-family="Helvetica,sans-Serif" font-size="10.00">ajatypes.h</text>
</a>
</g>
</g>
<!-- Node2&#45;&gt;Node4 -->
<g id="edge3" class="edge">
<title>Node2&#45;&gt;Node4</title>
<path fill="none" stroke="midnightblue" d="M286.29,-226.32C459.04,-208.06 921.71,-157.03 943,-132 958.91,-113.3 931.93,-93.21 908.48,-80.39"/>
<polygon fill="midnightblue" stroke="midnightblue" points="909.93,-77.2 899.45,-75.7 906.7,-83.41 909.93,-77.2"/>
</g>
<!-- Node6 -->
<g id="node6" class="node">
<title>Node6</title>
<g id="a_node6"><a xlink:href="../../d6/d0c/ntv2enums_8h.html" target="_top" xlink:title="Enumerations for controlling NTV2 devices.">
<polygon fill="white" stroke="black" points="142,-112.5 142,-131.5 222,-131.5 222,-112.5 142,-112.5"/>
<text text-anchor="middle" x="182" y="-119.5" font-family="Helvetica,sans-Serif" font-size="10.00">ntv2enums.h</text>
</a>
</g>
</g>
<!-- Node2&#45;&gt;Node6 -->
<g id="edge5" class="edge">
<title>Node2&#45;&gt;Node6</title>
<path fill="none" stroke="midnightblue" d="M218.86,-224.37C212.38,-206.54 197.38,-165.3 188.64,-141.27"/>
<polygon fill="midnightblue" stroke="midnightblue" points="191.83,-139.79 185.12,-131.59 185.25,-142.19 191.83,-139.79"/>
</g>
<!-- Node8 -->
<g id="node8" class="node">
<title>Node8</title>
<g id="a_node8"><a xlink:title=" ">
<polygon fill="white" stroke="#bfbfbf" points="194,-0.5 194,-19.5 238,-19.5 238,-0.5 194,-0.5"/>
<text text-anchor="middle" x="216" y="-7.5" font-family="Helvetica,sans-Serif" font-size="10.00">string</text>
</a>
</g>
</g>
<!-- Node2&#45;&gt;Node8 -->
<g id="edge24" class="edge">
<title>Node2&#45;&gt;Node8</title>
<path fill="none" stroke="midnightblue" d="M157.92,-224.53C135.86,-218.19 113.36,-207.17 100,-188 66.45,-139.87 66.86,-104.41 100,-56 118.72,-28.66 156.66,-17.93 184.06,-13.72"/>
<polygon fill="midnightblue" stroke="midnightblue" points="184.53,-17.18 193.98,-12.4 183.61,-10.24 184.53,-17.18"/>
</g>
<!-- Node9 -->
<g id="node9" class="node">
<title>Node9</title>
<g id="a_node9"><a xlink:href="../../d4/dd7/ntv2publicinterface_8h.html" target="_top" xlink:title="Declares enums and structs used by all platform drivers and the SDK.">
<polygon fill="white" stroke="black" points="469,-168.5 469,-187.5 589,-187.5 589,-168.5 469,-168.5"/>
<text text-anchor="middle" x="529" y="-175.5" font-family="Helvetica,sans-Serif" font-size="10.00">ntv2publicinterface.h</text>
</a>
</g>
</g>
<!-- Node2&#45;&gt;Node9 -->
<g id="edge10" class="edge">
<title>Node2&#45;&gt;Node9</title>
<path fill="none" stroke="midnightblue" d="M270.65,-224.44C324.87,-214.9 412.55,-199.48 470.48,-189.29"/>
<polygon fill="midnightblue" stroke="midnightblue" points="471.34,-192.7 480.58,-187.52 470.13,-185.8 471.34,-192.7"/>
</g>
<!-- Node10 -->
<g id="node10" class="node">
<title>Node10</title>
<g id="a_node10"><a xlink:title=" ">
<polygon fill="white" stroke="#bfbfbf" points="240,-112.5 240,-131.5 300,-131.5 300,-112.5 240,-112.5"/>
<text text-anchor="middle" x="270" y="-119.5" font-family="Helvetica,sans-Serif" font-size="10.00">iostream</text>
</a>
</g>
</g>
<!-- Node2&#45;&gt;Node10 -->
<g id="edge25" class="edge">
<title>Node2&#45;&gt;Node10</title>
<path fill="none" stroke="midnightblue" d="M225.77,-224.37C233.58,-206.46 251.71,-164.92 262.17,-140.95"/>
<polygon fill="midnightblue" stroke="midnightblue" points="265.46,-142.16 266.25,-131.59 259.04,-139.36 265.46,-142.16"/>
</g>
<!-- Node13 -->
<g id="node13" class="node">
<title>Node13</title>
<g id="a_node13"><a xlink:title=" ">
<polygon fill="white" stroke="#bfbfbf" points="318.5,-112.5 318.5,-131.5 365.5,-131.5 365.5,-112.5 318.5,-112.5"/>
<text text-anchor="middle" x="342" y="-119.5" font-family="Helvetica,sans-Serif" font-size="10.00">vector</text>
</a>
</g>
</g>
<!-- Node2&#45;&gt;Node13 -->
<g id="edge26" class="edge">
<title>Node2&#45;&gt;Node13</title>
<path fill="none" stroke="midnightblue" d="M231.42,-224.37C251.66,-205.81 299.55,-161.91 325.16,-138.44"/>
<polygon fill="midnightblue" stroke="midnightblue" points="327.62,-140.93 332.63,-131.59 322.89,-135.77 327.62,-140.93"/>
</g>
<!-- Node5 -->
<g id="node5" class="node">
<title>Node5</title>
<g id="a_node5"><a xlink:title=" ">
<polygon fill="white" stroke="#bfbfbf" points="853.5,-0.5 853.5,-19.5 906.5,-19.5 906.5,-0.5 853.5,-0.5"/>
<text text-anchor="middle" x="880" y="-7.5" font-family="Helvetica,sans-Serif" font-size="10.00">stdint.h</text>
</a>
</g>
</g>
<!-- Node4&#45;&gt;Node5 -->
<g id="edge4" class="edge">
<title>Node4&#45;&gt;Node5</title>
<path fill="none" stroke="midnightblue" d="M880,-56.08C880,-49.01 880,-38.86 880,-29.99"/>
<polygon fill="midnightblue" stroke="midnightblue" points="883.5,-29.75 880,-19.75 876.5,-29.75 883.5,-29.75"/>
</g>
<!-- Node6&#45;&gt;Node4 -->
<g id="edge6" class="edge">
<title>Node6&#45;&gt;Node4</title>
<path fill="none" stroke="midnightblue" d="M222.05,-113.26C225.08,-112.8 228.08,-112.37 231,-112 457.15,-83.48 730.08,-71.96 835.48,-68.36"/>
<polygon fill="midnightblue" stroke="midnightblue" points="835.86,-71.85 845.74,-68.02 835.63,-64.85 835.86,-71.85"/>
</g>
<!-- Node7 -->
<g id="node7" class="node">
<title>Node7</title>
<g id="a_node7"><a xlink:href="../../d6/db1/ntv2version_8h.html" target="_top" xlink:title="Defines for the NTV2 SDK version number, used by ajantv2/includes/ntv2enums.h. See the ajantv2/includ...">
<polygon fill="white" stroke="black" points="320.5,-56.5 320.5,-75.5 403.5,-75.5 403.5,-56.5 320.5,-56.5"/>
<text text-anchor="middle" x="362" y="-63.5" font-family="Helvetica,sans-Serif" font-size="10.00">ntv2version.h</text>
</a>
</g>
</g>
<!-- Node6&#45;&gt;Node7 -->
<g id="edge7" class="edge">
<title>Node6&#45;&gt;Node7</title>
<path fill="none" stroke="midnightblue" d="M210.52,-112.44C241.07,-103.28 289.71,-88.69 323.6,-78.52"/>
<polygon fill="midnightblue" stroke="midnightblue" points="325.04,-81.74 333.61,-75.52 323.03,-75.04 325.04,-81.74"/>
</g>
<!-- Node7&#45;&gt;Node3 -->
<g id="edge8" class="edge">
<title>Node7&#45;&gt;Node3</title>
<path fill="none" stroke="midnightblue" d="M367.78,-56.08C372.67,-48.53 379.83,-37.49 385.83,-28.23"/>
<polygon fill="midnightblue" stroke="midnightblue" points="388.83,-30.05 391.33,-19.75 382.95,-26.24 388.83,-30.05"/>
</g>
<!-- Node7&#45;&gt;Node8 -->
<g id="edge9" class="edge">
<title>Node7&#45;&gt;Node8</title>
<path fill="none" stroke="midnightblue" d="M338.87,-56.44C314.23,-47.33 275.08,-32.85 247.61,-22.69"/>
<polygon fill="midnightblue" stroke="midnightblue" points="248.66,-19.35 238.07,-19.16 246.24,-25.91 248.66,-19.35"/>
</g>
<!-- Node9&#45;&gt;Node3 -->
<g id="edge21" class="edge">
<title>Node9&#45;&gt;Node3</title>
<path fill="none" stroke="midnightblue" d="M506.28,-168.45C489.19,-161.04 466.18,-148.84 451,-132 436.6,-116.02 414.42,-58.81 403.51,-29.14"/>
<polygon fill="midnightblue" stroke="midnightblue" points="406.74,-27.78 400.04,-19.58 400.16,-30.17 406.74,-27.78"/>
</g>
<!-- Node9&#45;&gt;Node4 -->
<g id="edge11" class="edge">
<title>Node9&#45;&gt;Node4</title>
<path fill="none" stroke="midnightblue" d="M567.77,-168.49C600.83,-160.68 649.33,-147.93 690,-132 708.14,-124.9 710.92,-119.26 729,-112 764.12,-97.9 805.39,-85.9 835.9,-77.84"/>
<polygon fill="midnightblue" stroke="midnightblue" points="837.01,-81.17 845.81,-75.26 835.25,-74.39 837.01,-81.17"/>
</g>
<!-- Node9&#45;&gt;Node6 -->
<g id="edge12" class="edge">
<title>Node9&#45;&gt;Node6</title>
<path fill="none" stroke="midnightblue" d="M468.98,-168.51C410.91,-160.16 320.16,-146.78 232,-132.12"/>
<polygon fill="midnightblue" stroke="midnightblue" points="232.53,-128.67 222.09,-130.47 231.38,-135.57 232.53,-128.67"/>
</g>
<!-- Node9&#45;&gt;Node8 -->
<g id="edge17" class="edge">
<title>Node9&#45;&gt;Node8</title>
<path fill="none" stroke="midnightblue" d="M507.37,-168.39C467.52,-152.22 380.26,-115.38 311,-76 283.7,-60.48 254.13,-39.53 235.35,-25.66"/>
<polygon fill="midnightblue" stroke="midnightblue" points="237.41,-22.82 227.3,-19.65 233.22,-28.43 237.41,-22.82"/>
</g>
<!-- Node9&#45;&gt;Node10 -->
<g id="edge13" class="edge">
<title>Node9&#45;&gt;Node10</title>
<path fill="none" stroke="midnightblue" d="M485.52,-168.44C443.17,-160.03 376.73,-146.63 310.05,-132.19"/>
<polygon fill="midnightblue" stroke="midnightblue" points="310.73,-128.76 300.22,-130.05 309.25,-135.6 310.73,-128.76"/>
</g>
<!-- Node11 -->
<g id="node11" class="node">
<title>Node11</title>
<g id="a_node11"><a xlink:title=" ">
<polygon fill="white" stroke="#bfbfbf" points="460,-112.5 460,-131.5 492,-131.5 492,-112.5 460,-112.5"/>
<text text-anchor="middle" x="476" y="-119.5" font-family="Helvetica,sans-Serif" font-size="10.00">set</text>
</a>
</g>
</g>
<!-- Node9&#45;&gt;Node11 -->
<g id="edge14" class="edge">
<title>Node9&#45;&gt;Node11</title>
<path fill="none" stroke="midnightblue" d="M520.25,-168.08C512.53,-160.22 501.1,-148.57 491.78,-139.08"/>
<polygon fill="midnightblue" stroke="midnightblue" points="494.09,-136.44 484.59,-131.75 489.1,-141.34 494.09,-136.44"/>
</g>
<!-- Node12 -->
<g id="node12" class="node">
<title>Node12</title>
<g id="a_node12"><a xlink:title=" ">
<polygon fill="white" stroke="#bfbfbf" points="510,-112.5 510,-131.5 548,-131.5 548,-112.5 510,-112.5"/>
<text text-anchor="middle" x="529" y="-119.5" font-family="Helvetica,sans-Serif" font-size="10.00">map</text>
</a>
</g>
</g>
<!-- Node9&#45;&gt;Node12 -->
<g id="edge15" class="edge">
<title>Node9&#45;&gt;Node12</title>
<path fill="none" stroke="midnightblue" d="M529,-168.08C529,-161.01 529,-150.86 529,-141.99"/>
<polygon fill="midnightblue" stroke="midnightblue" points="532.5,-141.75 529,-131.75 525.5,-141.75 532.5,-141.75"/>
</g>
<!-- Node9&#45;&gt;Node13 -->
<g id="edge16" class="edge">
<title>Node9&#45;&gt;Node13</title>
<path fill="none" stroke="midnightblue" d="M499.37,-168.44C465.63,-158.7 410.62,-142.82 375.39,-132.64"/>
<polygon fill="midnightblue" stroke="midnightblue" points="376.15,-129.22 365.57,-129.81 374.21,-135.94 376.15,-129.22"/>
</g>
<!-- Node9&#45;&gt;Node14 -->
<g id="edge18" class="edge">
<title>Node9&#45;&gt;Node14</title>
<path fill="none" stroke="midnightblue" d="M589.19,-171C655.25,-163.98 764.6,-151.06 867.82,-132.05"/>
<polygon fill="midnightblue" stroke="midnightblue" points="868.6,-135.47 877.79,-130.19 867.31,-128.58 868.6,-135.47"/>
</g>
<!-- Node15 -->
<g id="node15" class="node">
<title>Node15</title>
<g id="a_node15"><a xlink:title=" ">
<polygon fill="white" stroke="#bfbfbf" points="566,-112.5 566,-131.5 610,-131.5 610,-112.5 566,-112.5"/>
<text text-anchor="middle" x="588" y="-119.5" font-family="Helvetica,sans-Serif" font-size="10.00">bitset</text>
</a>
</g>
</g>
<!-- Node9&#45;&gt;Node15 -->
<g id="edge19" class="edge">
<title>Node9&#45;&gt;Node15</title>
<path fill="none" stroke="midnightblue" d="M538.48,-168.32C547.2,-160.34 560.34,-148.31 570.9,-138.65"/>
<polygon fill="midnightblue" stroke="midnightblue" points="573.33,-141.17 578.35,-131.83 568.61,-136 573.33,-141.17"/>
</g>
<!-- Node16 -->
<g id="node16" class="node">
<title>Node16</title>
<g id="a_node16"><a xlink:title=" ">
<polygon fill="white" stroke="#bfbfbf" points="628.5,-112.5 628.5,-131.5 681.5,-131.5 681.5,-112.5 628.5,-112.5"/>
<text text-anchor="middle" x="655" y="-119.5" font-family="Helvetica,sans-Serif" font-size="10.00">string.h</text>
</a>
</g>
</g>
<!-- Node9&#45;&gt;Node16 -->
<g id="edge20" class="edge">
<title>Node9&#45;&gt;Node16</title>
<path fill="none" stroke="midnightblue" d="M548.97,-168.44C569.61,-159.6 602.06,-145.69 625.63,-135.59"/>
<polygon fill="midnightblue" stroke="midnightblue" points="627.32,-138.67 635.13,-131.52 624.56,-132.24 627.32,-138.67"/>
</g>
<!-- Node17 -->
<g id="node17" class="node">
<title>Node17</title>
<g id="a_node17"><a xlink:href="../../da/df0/ntv2virtualregisters_8h.html" target="_top" xlink:title="Declares enums for virtual registers used in all platform drivers and the SDK.">
<polygon fill="white" stroke="black" points="738,-112.5 738,-131.5 860,-131.5 860,-112.5 738,-112.5"/>
<text text-anchor="middle" x="799" y="-119.5" font-family="Helvetica,sans-Serif" font-size="10.00">ntv2virtualregisters.h</text>
</a>
</g>
</g>
<!-- Node9&#45;&gt;Node17 -->
<g id="edge22" class="edge">
<title>Node9&#45;&gt;Node17</title>
<path fill="none" stroke="midnightblue" d="M571.78,-168.44C619.18,-158.96 695.63,-143.67 746.58,-133.48"/>
<polygon fill="midnightblue" stroke="midnightblue" points="747.3,-136.91 756.42,-131.52 745.93,-130.05 747.3,-136.91"/>
</g>
<!-- Node17&#45;&gt;Node4 -->
<g id="edge23" class="edge">
<title>Node17&#45;&gt;Node4</title>
<path fill="none" stroke="midnightblue" d="M812.01,-112.32C824.53,-103.98 843.68,-91.21 858.47,-81.35"/>
<polygon fill="midnightblue" stroke="midnightblue" points="860.64,-84.11 867.02,-75.65 856.76,-78.29 860.64,-84.11"/>
</g>
<!-- Node18&#45;&gt;Node2 -->
<g id="edge34" class="edge">
<title>Node18&#45;&gt;Node2</title>
<path fill="none" stroke="midnightblue" d="M437.76,-281.6C394.73,-272.31 320.54,-256.29 271.38,-245.67"/>
<polygon fill="midnightblue" stroke="midnightblue" points="272.1,-242.24 261.59,-243.55 270.62,-249.08 272.1,-242.24"/>
</g>
<!-- Node18&#45;&gt;Node3 -->
<g id="edge28" class="edge">
<title>Node18&#45;&gt;Node3</title>
<path fill="none" stroke="midnightblue" d="M506.09,-289.09C644.44,-288.7 1154.24,-279.74 1102,-168 1062.26,-82.99 1013.33,-81.44 923,-56 833.37,-30.76 554.64,-17.24 443.47,-12.73"/>
<polygon fill="midnightblue" stroke="midnightblue" points="443.37,-9.23 433.24,-12.32 443.09,-16.22 443.37,-9.23"/>
</g>
<!-- Node18&#45;&gt;Node4 -->
<g id="edge29" class="edge">
<title>Node18&#45;&gt;Node4</title>
<path fill="none" stroke="midnightblue" d="M506.09,-283.31C607.64,-265.61 904.57,-208.06 960,-132 976.19,-109.78 944.14,-90.82 915.91,-79.21"/>
<polygon fill="midnightblue" stroke="midnightblue" points="917.15,-75.94 906.56,-75.56 914.61,-82.46 917.15,-75.94"/>
</g>
<!-- Node18&#45;&gt;Node6 -->
<g id="edge30" class="edge">
<title>Node18&#45;&gt;Node6</title>
<path fill="none" stroke="midnightblue" d="M437.73,-289.61C362.41,-290.15 186.17,-286.71 149,-244 123.03,-214.16 150.54,-165.73 168.71,-140.12"/>
<polygon fill="midnightblue" stroke="midnightblue" points="171.73,-141.92 174.86,-131.8 166.1,-137.76 171.73,-141.92"/>
</g>
<!-- Node18&#45;&gt;Node8 -->
<g id="edge36" class="edge">
<title>Node18&#45;&gt;Node8</title>
<path fill="none" stroke="midnightblue" d="M437.67,-288.35C329.06,-285.37 0,-268.92 0,-179 0,-179 0,-179 0,-121 0,-39.62 123.26,-18.42 183.56,-12.92"/>
<polygon fill="midnightblue" stroke="midnightblue" points="184.02,-16.39 193.7,-12.09 183.45,-9.41 184.02,-16.39"/>
</g>
<!-- Node18&#45;&gt;Node9 -->
<g id="edge33" class="edge">
<title>Node18&#45;&gt;Node9</title>
<path fill="none" stroke="midnightblue" d="M476.47,-280.37C485.8,-262.38 507.47,-220.55 519.87,-196.63"/>
<polygon fill="midnightblue" stroke="midnightblue" points="523.05,-198.08 524.55,-187.59 516.84,-194.86 523.05,-198.08"/>
</g>
<!-- Node18&#45;&gt;Node10 -->
<g id="edge37" class="edge">
<title>Node18&#45;&gt;Node10</title>
<path fill="none" stroke="midnightblue" d="M437.89,-285.32C407.36,-280.46 362.92,-269.3 333,-244 300.56,-216.57 282.65,-168.17 274.83,-141.66"/>
<polygon fill="midnightblue" stroke="midnightblue" points="278.14,-140.46 272.09,-131.76 271.39,-142.33 278.14,-140.46"/>
</g>
<!-- Node18&#45;&gt;Node13 -->
<g id="edge38" class="edge">
<title>Node18&#45;&gt;Node13</title>
<path fill="none" stroke="midnightblue" d="M471,-280.4C469.16,-267.34 464.34,-242.15 453,-224 429.76,-186.81 389.09,-154.86 363.96,-137.34"/>
<polygon fill="midnightblue" stroke="midnightblue" points="365.7,-134.29 355.47,-131.55 361.76,-140.07 365.7,-134.29"/>
</g>
<!-- Node19 -->
<g id="node19" class="node">
<title>Node19</title>
<g id="a_node19"><a xlink:href="../../d9/d61/ntv2videodefines_8h.html" target="_top" xlink:title="Declares common video macros and structs used in the SDK.">
<polygon fill="white" stroke="black" points="983,-168.5 983,-187.5 1093,-187.5 1093,-168.5 983,-168.5"/>
<text text-anchor="middle" x="1038" y="-175.5" font-family="Helvetica,sans-Serif" font-size="10.00">ntv2videodefines.h</text>
</a>
</g>
</g>
<!-- Node18&#45;&gt;Node19 -->
<g id="edge31" class="edge">
<title>Node18&#45;&gt;Node19</title>
<path fill="none" stroke="midnightblue" d="M506.23,-288.95C578.82,-288.08 753.03,-281.83 893,-244 905,-240.76 971.97,-209.86 1010.56,-191.86"/>
<polygon fill="midnightblue" stroke="midnightblue" points="1012.14,-194.99 1019.71,-187.59 1009.17,-188.65 1012.14,-194.99"/>
</g>
<!-- Node20 -->
<g id="node20" class="node">
<title>Node20</title>
<g id="a_node20"><a xlink:href="../../de/d26/ntv2m31enums_8h.html" target="_top" xlink:title="Enumerations for controlling NTV2 devices with m31 HEVC encoders.">
<polygon fill="white" stroke="black" points="342,-224.5 342,-243.5 444,-243.5 444,-224.5 342,-224.5"/>
<text text-anchor="middle" x="393" y="-231.5" font-family="Helvetica,sans-Serif" font-size="10.00">ntv2m31enums.h</text>
</a>
</g>
</g>
<!-- Node18&#45;&gt;Node20 -->
<g id="edge35" class="edge">
<title>Node18&#45;&gt;Node20</title>
<path fill="none" stroke="midnightblue" d="M459.31,-280.32C447.1,-271.98 428.42,-259.21 414,-249.35"/>
<polygon fill="midnightblue" stroke="midnightblue" points="415.89,-246.41 405.66,-243.65 411.94,-252.19 415.89,-246.41"/>
</g>
<!-- Node19&#45;&gt;Node4 -->
<g id="edge32" class="edge">
<title>Node19&#45;&gt;Node4</title>
<path fill="none" stroke="midnightblue" d="M1037.14,-168.13C1035.33,-154.25 1029.88,-127.42 1014,-112 989.82,-88.53 953.03,-77.29 924.11,-71.91"/>
<polygon fill="midnightblue" stroke="midnightblue" points="924.69,-68.46 914.24,-70.25 923.52,-75.36 924.69,-68.46"/>
</g>
</g>
</svg>
