<?xml version="1.0" encoding="UTF-8" standalone="no"?>
<!DOCTYPE svg PUBLIC "-//W3C//DTD SVG 1.1//EN"
 "http://www.w3.org/Graphics/SVG/1.1/DTD/svg11.dtd">
<!-- Generated by graphviz version 2.43.0 (0)
 -->
<!-- Title: CNTV2KonaFlashProgram Pages: 1 -->
<svg width="704pt" height="431pt"
 viewBox="0.00 0.00 704.00 431.00" xmlns="http://www.w3.org/2000/svg" xmlns:xlink="http://www.w3.org/1999/xlink">
<g id="graph0" class="graph" transform="scale(1 1) rotate(0) translate(4 427)">
<title>CNTV2KonaFlashProgram</title>
<polygon fill="white" stroke="transparent" points="-4,4 -4,-427 700,-427 700,4 -4,4"/>
<!-- Node1 -->
<g id="node1" class="node">
<title>Node1</title>
<g id="a_node1"><a xlink:title=" ">
<polygon fill="#bfbfbf" stroke="black" points="295,-0.5 295,-19.5 436,-19.5 436,-0.5 295,-0.5"/>
<text text-anchor="middle" x="365.5" y="-7.5" font-family="Helvetica,sans-Serif" font-size="10.00">CNTV2KonaFlashProgram</text>
</a>
</g>
</g>
<!-- Node2 -->
<g id="node2" class="node">
<title>Node2</title>
<g id="a_node2"><a xlink:href="../../d7/dfb/class_c_n_t_v2_card.html" target="_top" xlink:title="I interrogate and control an AJA video/audio capture/playout device.">
<polygon fill="white" stroke="black" points="69.5,-78.5 69.5,-97.5 141.5,-97.5 141.5,-78.5 69.5,-78.5"/>
<text text-anchor="middle" x="105.5" y="-85.5" font-family="Helvetica,sans-Serif" font-size="10.00">CNTV2Card</text>
</a>
</g>
</g>
<!-- Node2&#45;&gt;Node1 -->
<g id="edge1" class="edge">
<title>Node2&#45;&gt;Node1</title>
<path fill="none" stroke="midnightblue" d="M123.85,-72.38C138.97,-61.12 161.43,-46.16 183.5,-38 218.85,-24.93 260.28,-18.17 294.68,-14.69"/>
<polygon fill="midnightblue" stroke="midnightblue" points="121.67,-69.64 115.86,-78.49 125.92,-75.2 121.67,-69.64"/>
</g>
<!-- Node3 -->
<g id="node3" class="node">
<title>Node3</title>
<g id="a_node3"><a xlink:href="../../dc/dfc/class_c_n_t_v2_mac_driver_interface.html" target="_top" xlink:title="A Mac&#45;specific implementation of CNTV2DriverInterface.">
<polygon fill="white" stroke="black" points="0,-145.5 0,-164.5 143,-164.5 143,-145.5 0,-145.5"/>
<text text-anchor="middle" x="71.5" y="-152.5" font-family="Helvetica,sans-Serif" font-size="10.00">CNTV2MacDriverInterface</text>
</a>
</g>
</g>
<!-- Node3&#45;&gt;Node2 -->
<g id="edge2" class="edge">
<title>Node3&#45;&gt;Node2</title>
<path fill="none" stroke="midnightblue" d="M77.77,-135.56C80.19,-129.21 83.18,-122.16 86.5,-116 89.98,-109.54 94.73,-102.79 98.61,-97.66"/>
<polygon fill="midnightblue" stroke="midnightblue" points="74.36,-134.69 74.28,-145.29 80.95,-137.06 74.36,-134.69"/>
</g>
<!-- Node4 -->
<g id="node4" class="node">
<title>Node4</title>
<g id="a_node4"><a xlink:href="../../d0/dbc/class_c_n_t_v2_driver_interface.html" target="_top" xlink:title="I&#39;m the base class that undergirds the platform&#45;specific derived classes (from which CNTV2Card is ult...">
<polygon fill="white" stroke="black" points="10,-202.5 10,-221.5 133,-221.5 133,-202.5 10,-202.5"/>
<text text-anchor="middle" x="71.5" y="-209.5" font-family="Helvetica,sans-Serif" font-size="10.00">CNTV2DriverInterface</text>
</a>
</g>
</g>
<!-- Node4&#45;&gt;Node3 -->
<g id="edge3" class="edge">
<title>Node4&#45;&gt;Node3</title>
<path fill="none" stroke="midnightblue" d="M71.5,-192.12C71.5,-182.82 71.5,-172.06 71.5,-164.71"/>
<polygon fill="midnightblue" stroke="midnightblue" points="68,-192.41 71.5,-202.41 75,-192.41 68,-192.41"/>
</g>
<!-- Node5 -->
<g id="node5" class="node">
<title>Node5</title>
<g id="a_node5"><a xlink:href="../../d2/d94/class_n_t_v2_r_p_c_client_a_p_i.html" target="_top" xlink:title="An object that can connect to, and operate remote or fake devices. I have three general API groups:">
<polygon fill="white" stroke="black" points="93,-269.5 93,-288.5 200,-288.5 200,-269.5 93,-269.5"/>
<text text-anchor="middle" x="146.5" y="-276.5" font-family="Helvetica,sans-Serif" font-size="10.00">NTV2RPCClientAPI</text>
</a>
</g>
</g>
<!-- Node5&#45;&gt;Node4 -->
<g id="edge4" class="edge">
<title>Node5&#45;&gt;Node4</title>
<path fill="none" stroke="#9a32cd" stroke-dasharray="5,2" d="M128.45,-262.36C113.71,-249.58 93.41,-231.99 81.45,-221.63"/>
<polygon fill="#9a32cd" stroke="#9a32cd" points="126.54,-265.33 136.39,-269.23 131.12,-260.04 126.54,-265.33"/>
<text text-anchor="middle" x="138.5" y="-243" font-family="Helvetica,sans-Serif" font-size="10.00"> _pRPCAPI</text>
</g>
<!-- Node6 -->
<g id="node6" class="node">
<title>Node6</title>
<g id="a_node6"><a xlink:href="../../d7/d93/class_n_t_v2_r_p_c_base.html" target="_top" xlink:title="Common base class for NTV2RPCClientAPI and NTV2RPCServerAPI.">
<polygon fill="white" stroke="black" points="113.5,-336.5 113.5,-355.5 199.5,-355.5 199.5,-336.5 113.5,-336.5"/>
<text text-anchor="middle" x="156.5" y="-343.5" font-family="Helvetica,sans-Serif" font-size="10.00">NTV2RPCBase</text>
</a>
</g>
</g>
<!-- Node6&#45;&gt;Node5 -->
<g id="edge5" class="edge">
<title>Node6&#45;&gt;Node5</title>
<path fill="none" stroke="midnightblue" d="M153.58,-326.04C151.68,-313.67 149.29,-298.12 147.83,-288.63"/>
<polygon fill="midnightblue" stroke="midnightblue" points="150.17,-326.88 155.15,-336.23 157.09,-325.82 150.17,-326.88"/>
</g>
<!-- Node7 -->
<g id="node7" class="node">
<title>Node7</title>
<g id="a_node7"><a xlink:href="../../d9/df4/class_a_j_a_lock.html" target="_top" xlink:title=" ">
<polygon fill="white" stroke="black" points="42.5,-403.5 42.5,-422.5 98.5,-422.5 98.5,-403.5 42.5,-403.5"/>
<text text-anchor="middle" x="70.5" y="-410.5" font-family="Helvetica,sans-Serif" font-size="10.00">AJALock</text>
</a>
</g>
</g>
<!-- Node7&#45;&gt;Node4 -->
<g id="edge8" class="edge">
<title>Node7&#45;&gt;Node4</title>
<path fill="none" stroke="#9a32cd" stroke-dasharray="5,2" d="M67.31,-393.2C64.12,-372.21 59.9,-337.21 61.5,-307 63.17,-275.53 67.96,-238.39 70.25,-221.79"/>
<polygon fill="#9a32cd" stroke="#9a32cd" points="63.89,-393.98 68.94,-403.3 70.8,-392.87 63.89,-393.98"/>
<text text-anchor="middle" x="104.5" y="-310" font-family="Helvetica,sans-Serif" font-size="10.00"> mRegWritesLock</text>
</g>
<!-- Node7&#45;&gt;Node6 -->
<g id="edge6" class="edge">
<title>Node7&#45;&gt;Node6</title>
<path fill="none" stroke="#9a32cd" stroke-dasharray="5,2" d="M79.15,-394.5C83.32,-387.42 88.87,-379.61 95.5,-374 105.04,-365.92 117.39,-359.85 128.48,-355.53"/>
<polygon fill="#9a32cd" stroke="#9a32cd" points="76.01,-392.96 74.34,-403.42 82.17,-396.28 76.01,-392.96"/>
<text text-anchor="middle" x="129" y="-377" font-family="Helvetica,sans-Serif" font-size="10.00"> mParamLock</text>
</g>
<!-- Node8 -->
<g id="node8" class="node">
<title>Node8</title>
<g id="a_node8"><a xlink:href="../../d6/d01/class_n_t_v2_dictionary.html" target="_top" xlink:title="A simple (not thread&#45;safe) set of key/value pairs. (New in SDK 16.3)">
<polygon fill="white" stroke="black" points="132,-403.5 132,-422.5 225,-422.5 225,-403.5 132,-403.5"/>
<text text-anchor="middle" x="178.5" y="-410.5" font-family="Helvetica,sans-Serif" font-size="10.00">NTV2Dictionary</text>
</a>
</g>
</g>
<!-- Node8&#45;&gt;Node6 -->
<g id="edge7" class="edge">
<title>Node8&#45;&gt;Node6</title>
<path fill="none" stroke="#9a32cd" stroke-dasharray="5,2" d="M172.21,-393.41C168,-380.99 162.67,-365.22 159.42,-355.63"/>
<polygon fill="#9a32cd" stroke="#9a32cd" points="169.01,-394.88 175.53,-403.23 175.64,-392.64 169.01,-394.88"/>
<text text-anchor="middle" x="194" y="-377" font-family="Helvetica,sans-Serif" font-size="10.00"> mParams</text>
</g>
<!-- Node9 -->
<g id="node9" class="node">
<title>Node9</title>
<g id="a_node9"><a xlink:href="../../d5/dc4/class_n_t_v2_buffer.html" target="_top" xlink:title="Describes a user&#45;space buffer on the host computer. I have an address and a length,...">
<polygon fill="white" stroke="black" points="161.5,-145.5 161.5,-164.5 233.5,-164.5 233.5,-145.5 161.5,-145.5"/>
<text text-anchor="middle" x="197.5" y="-152.5" font-family="Helvetica,sans-Serif" font-size="10.00">NTV2Buffer</text>
</a>
</g>
</g>
<!-- Node9&#45;&gt;Node1 -->
<g id="edge14" class="edge">
<title>Node9&#45;&gt;Node1</title>
<path fill="none" stroke="#9a32cd" stroke-dasharray="5,2" d="M194.8,-135.33C193.44,-118.65 194.17,-94.39 206.5,-78 231.35,-44.97 275.61,-28.08 311.14,-19.53"/>
<polygon fill="#9a32cd" stroke="#9a32cd" points="191.35,-135.94 195.96,-145.47 198.3,-135.14 191.35,-135.94"/>
<text text-anchor="middle" x="240.5" y="-85.5" font-family="Helvetica,sans-Serif" font-size="10.00"> _bitFileBuffer</text>
</g>
<!-- Node9&#45;&gt;Node2 -->
<g id="edge9" class="edge">
<title>Node9&#45;&gt;Node2</title>
<path fill="none" stroke="#9a32cd" stroke-dasharray="5,2" d="M151.62,-142.91C130.57,-137.37 109.57,-131.01 106.5,-127 100.15,-118.73 101.26,-106.19 103.04,-97.81"/>
<polygon fill="#9a32cd" stroke="#9a32cd" points="151,-146.36 161.55,-145.47 152.74,-139.58 151,-146.36"/>
<text text-anchor="middle" x="145" y="-119" font-family="Helvetica,sans-Serif" font-size="10.00"> NULL_POINTER</text>
</g>
<!-- Node10 -->
<g id="node10" class="node">
<title>Node10</title>
<g id="a_node10"><a xlink:href="../../de/d78/class_c_n_t_v2_m_c_sfile.html" target="_top" xlink:title="Instances of me can parse an MCS file.">
<polygon fill="white" stroke="black" points="283.5,-78.5 283.5,-97.5 369.5,-97.5 369.5,-78.5 283.5,-78.5"/>
<text text-anchor="middle" x="326.5" y="-85.5" font-family="Helvetica,sans-Serif" font-size="10.00">CNTV2MCSfile</text>
</a>
</g>
</g>
<!-- Node10&#45;&gt;Node1 -->
<g id="edge10" class="edge">
<title>Node10&#45;&gt;Node1</title>
<path fill="none" stroke="#9a32cd" stroke-dasharray="5,2" d="M327.59,-68.42C328.8,-58.84 331.31,-47.25 336.5,-38 340.54,-30.8 347.16,-24.42 353.06,-19.67"/>
<polygon fill="#9a32cd" stroke="#9a32cd" points="324.09,-68.21 326.68,-78.48 331.06,-68.84 324.09,-68.21"/>
<text text-anchor="middle" x="359.5" y="-46.5" font-family="Helvetica,sans-Serif" font-size="10.00"> _mcsFile</text>
</g>
<!-- Node11 -->
<g id="node11" class="node">
<title>Node11</title>
<g id="a_node11"><a xlink:title=" ">
<polygon fill="white" stroke="#bfbfbf" points="387.5,-78.5 387.5,-97.5 431.5,-97.5 431.5,-78.5 387.5,-78.5"/>
<text text-anchor="middle" x="409.5" y="-85.5" font-family="Helvetica,sans-Serif" font-size="10.00">string</text>
</a>
</g>
</g>
<!-- Node11&#45;&gt;Node1 -->
<g id="edge11" class="edge">
<title>Node11&#45;&gt;Node1</title>
<path fill="none" stroke="#9a32cd" stroke-dasharray="5,2" d="M399.99,-69.15C394.92,-59.8 388.51,-48.2 382.5,-38 378.9,-31.89 374.65,-25.14 371.3,-19.92"/>
<polygon fill="#9a32cd" stroke="#9a32cd" points="397.06,-71.09 404.87,-78.24 403.22,-67.77 397.06,-71.09"/>
<text text-anchor="middle" x="428.5" y="-52" font-family="Helvetica,sans-Serif" font-size="10.00"> _bitFileName</text>
<text text-anchor="middle" x="428.5" y="-41" font-family="Helvetica,sans-Serif" font-size="10.00">_mcsInfo</text>
</g>
<!-- Node12 -->
<g id="node12" class="node">
<title>Node12</title>
<g id="a_node12"><a xlink:href="../../d6/dc7/class_c_n_t_v2_spi_flash.html" target="_top" xlink:title=" ">
<polygon fill="white" stroke="black" points="450,-78.5 450,-97.5 541,-97.5 541,-78.5 450,-78.5"/>
<text text-anchor="middle" x="495.5" y="-85.5" font-family="Helvetica,sans-Serif" font-size="10.00">CNTV2SpiFlash</text>
</a>
</g>
</g>
<!-- Node12&#45;&gt;Node1 -->
<g id="edge12" class="edge">
<title>Node12&#45;&gt;Node1</title>
<path fill="none" stroke="#9a32cd" stroke-dasharray="5,2" d="M488.84,-68.84C484.11,-58.38 476.78,-45.79 466.5,-38 455.15,-29.39 441.26,-23.52 427.46,-19.52"/>
<polygon fill="#9a32cd" stroke="#9a32cd" points="485.69,-70.39 492.7,-78.34 492.17,-67.76 485.69,-70.39"/>
<text text-anchor="middle" x="508" y="-46.5" font-family="Helvetica,sans-Serif" font-size="10.00"> _spiFlash</text>
</g>
<!-- Node13 -->
<g id="node13" class="node">
<title>Node13</title>
<g id="a_node13"><a xlink:href="../../d6/d3f/class_n_t_v2_bitfile_header_parser.html" target="_top" xlink:title="Knows how to extract information from a bitfile header.">
<polygon fill="white" stroke="black" points="559,-78.5 559,-97.5 696,-97.5 696,-78.5 559,-78.5"/>
<text text-anchor="middle" x="627.5" y="-85.5" font-family="Helvetica,sans-Serif" font-size="10.00">NTV2BitfileHeaderParser</text>
</a>
</g>
</g>
<!-- Node13&#45;&gt;Node1 -->
<g id="edge13" class="edge">
<title>Node13&#45;&gt;Node1</title>
<path fill="none" stroke="#9a32cd" stroke-dasharray="5,2" d="M606.38,-72.96C588.51,-61.75 561.84,-46.55 536.5,-38 504.46,-27.19 467.56,-20.67 436.25,-16.75"/>
<polygon fill="#9a32cd" stroke="#9a32cd" points="604.56,-75.95 614.87,-78.4 608.34,-70.06 604.56,-75.95"/>
<text text-anchor="middle" x="602.5" y="-46.5" font-family="Helvetica,sans-Serif" font-size="10.00"> _parser</text>
</g>
</g>
</svg>
