<?xml version="1.0" encoding="UTF-8" standalone="no"?>
<!DOCTYPE svg PUBLIC "-//W3C//DTD SVG 1.1//EN"
 "http://www.w3.org/Graphics/SVG/1.1/DTD/svg11.dtd">
<!-- Generated by graphviz version 2.43.0 (0)
 -->
<!-- Title: /home/tcbuilder/buildAgent/work/df8e8cce5bebfd58/libajantv2/ajabase/system/windows/lockimpl.cpp Pages: 1 -->
<!--zoomable 285 -->
<svg id="main" version="1.1" xmlns="http://www.w3.org/2000/svg" xmlns:xlink="http://www.w3.org/1999/xlink" xml:space="preserve" onload="init(evt)">
<style type="text/css"><![CDATA[
.edge:hover path { stroke: red; }
.edge:hover polygon { stroke: red; fill: red; }
]]></style>
<script type="text/javascript"><![CDATA[
var edges = document.getElementsByTagName('g');
if (edges && edges.length) {
  for (var i=0;i<edges.length;i++) {
    if (edges[i].id.substr(0,4)=='edge') {
      edges[i].setAttribute('class','edge');
    }
  }
}
]]></script>
        <defs>
                <circle id="rim" cx="0" cy="0" r="7"/>
                <circle id="rim2" cx="0" cy="0" r="3.5"/>
                <g id="zoomPlus">
                        <use xlink:href="#rim" fill="#404040">
                                <set attributeName="fill" to="#808080" begin="zoomplus.mouseover" end="zoomplus.mouseout"/>
                        </use>
                        <path d="M-4,0h8M0,-4v8" fill="none" stroke="white" stroke-width="1.5" pointer-events="none"/>
                </g>
                <g id="zoomMin">
                        <use xlink:href="#rim" fill="#404040">
                                <set attributeName="fill" to="#808080" begin="zoomminus.mouseover" end="zoomminus.mouseout"/>
                        </use>
                        <path d="M-4,0h8" fill="none" stroke="white" stroke-width="1.5" pointer-events="none"/>
                </g>
                <g id="dirArrow">
                        <path fill="none" stroke="white" stroke-width="1.5" d="M0,-3.0v7 M-2.5,-0.5L0,-3.0L2.5,-0.5"/>
                </g>
               <g id="resetDef">
                       <use xlink:href="#rim2" fill="#404040">
                               <set attributeName="fill" to="#808080" begin="reset.mouseover" end="reset.mouseout"/>
                       </use>
               </g>
        </defs>

<script type="text/javascript">
var viewWidth = 845;
var viewHeight = 285;
var sectionId = 'dynsection-0';
</script>
<script xlink:href="../../svgpan.js"/>
<svg id="graph" class="graph">
<g id="viewport">
<title>/home/tcbuilder/buildAgent/work/df8e8cce5bebfd58/libajantv2/ajabase/system/windows/lockimpl.cpp</title>
<polygon fill="white" stroke="transparent" points="-4,4 -4,-281 841,-281 841,4 -4,4"/>
<!-- Node1 -->
<g id="node1" class="node">
<title>Node1</title>
<g id="a_node1"><a xlink:title="Implements the AJALockImpl class on the Windows platform.">
<polygon fill="#bfbfbf" stroke="black" points="293,-235.5 293,-276.5 501,-276.5 501,-235.5 293,-235.5"/>
<text text-anchor="start" x="301" y="-264.5" font-family="Helvetica,sans-Serif" font-size="10.00">/home/tcbuilder/buildAgent</text>
<text text-anchor="start" x="301" y="-253.5" font-family="Helvetica,sans-Serif" font-size="10.00">/work/df8e8cce5bebfd58/libajantv2</text>
<text text-anchor="middle" x="397" y="-242.5" font-family="Helvetica,sans-Serif" font-size="10.00">/ajabase/system/windows/lockimpl.cpp</text>
</a>
</g>
</g>
<!-- Node2 -->
<g id="node2" class="node">
<title>Node2</title>
<g id="a_node2"><a xlink:href="../../d3/da6/windows_2lockimpl_8h.html" target="_top" xlink:title="Declares the AJALockImpl class.">
<polygon fill="white" stroke="black" points="278,-168.5 278,-198.5 418,-198.5 418,-168.5 278,-168.5"/>
<text text-anchor="start" x="286" y="-186.5" font-family="Helvetica,sans-Serif" font-size="10.00">ajabase/system/windows</text>
<text text-anchor="middle" x="348" y="-175.5" font-family="Helvetica,sans-Serif" font-size="10.00">/lockimpl.h</text>
</a>
</g>
</g>
<!-- Node1&#45;&gt;Node2 -->
<g id="edge1" class="edge">
<title>Node1&#45;&gt;Node2</title>
<path fill="none" stroke="midnightblue" d="M383.35,-235.36C377.26,-226.59 370.04,-216.21 363.72,-207.12"/>
<polygon fill="midnightblue" stroke="midnightblue" points="366.58,-205.11 358,-198.89 360.84,-209.1 366.58,-205.11"/>
</g>
<!-- Node15 -->
<g id="node15" class="node">
<title>Node15</title>
<g id="a_node15"><a xlink:href="../../db/d16/debug_8h.html" target="_top" xlink:title="Declares the AJADebug class.">
<polygon fill="white" stroke="black" points="562,-112.5 562,-131.5 698,-131.5 698,-112.5 562,-112.5"/>
<text text-anchor="middle" x="630" y="-119.5" font-family="Helvetica,sans-Serif" font-size="10.00">ajabase/system/debug.h</text>
</a>
</g>
</g>
<!-- Node1&#45;&gt;Node15 -->
<g id="edge18" class="edge">
<title>Node1&#45;&gt;Node15</title>
<path fill="none" stroke="midnightblue" d="M431.63,-235.38C479.5,-208.26 564.65,-160.02 606.06,-136.56"/>
<polygon fill="midnightblue" stroke="midnightblue" points="607.93,-139.53 614.9,-131.55 604.48,-133.44 607.93,-139.53"/>
</g>
<!-- Node3 -->
<g id="node3" class="node">
<title>Node3</title>
<g id="a_node3"><a xlink:href="../../dc/db2/system_8h.html" target="_top" xlink:title="System specific functions.">
<polygon fill="white" stroke="black" points="228,-112.5 228,-131.5 370,-131.5 370,-112.5 228,-112.5"/>
<text text-anchor="middle" x="299" y="-119.5" font-family="Helvetica,sans-Serif" font-size="10.00">ajabase/system/system.h</text>
</a>
</g>
</g>
<!-- Node2&#45;&gt;Node3 -->
<g id="edge2" class="edge">
<title>Node2&#45;&gt;Node3</title>
<path fill="none" stroke="midnightblue" d="M336.39,-168.4C329.27,-159.75 320.12,-148.64 312.65,-139.58"/>
<polygon fill="midnightblue" stroke="midnightblue" points="315.19,-137.15 306.13,-131.66 309.79,-141.6 315.19,-137.15"/>
</g>
<!-- Node11 -->
<g id="node11" class="node">
<title>Node11</title>
<g id="a_node11"><a xlink:href="../../dc/d54/common_8h.html" target="_top" xlink:title="Private include file for all ajabase sources.">
<polygon fill="white" stroke="black" points="320.5,-56.5 320.5,-75.5 475.5,-75.5 475.5,-56.5 320.5,-56.5"/>
<text text-anchor="middle" x="398" y="-63.5" font-family="Helvetica,sans-Serif" font-size="10.00">ajabase/common/common.h</text>
</a>
</g>
</g>
<!-- Node2&#45;&gt;Node11 -->
<g id="edge10" class="edge">
<title>Node2&#45;&gt;Node11</title>
<path fill="none" stroke="midnightblue" d="M358.02,-168.47C364.69,-158.64 373.24,-144.98 379,-132 385.7,-116.89 390.78,-98.76 393.99,-85.5"/>
<polygon fill="midnightblue" stroke="midnightblue" points="397.42,-86.2 396.24,-75.67 390.59,-84.63 397.42,-86.2"/>
</g>
<!-- Node13 -->
<g id="node13" class="node">
<title>Node13</title>
<g id="a_node13"><a xlink:href="../../dd/d42/lock_8h.html" target="_top" xlink:title="Declares the AJALock class.">
<polygon fill="white" stroke="black" points="84,-112.5 84,-131.5 210,-131.5 210,-112.5 84,-112.5"/>
<text text-anchor="middle" x="147" y="-119.5" font-family="Helvetica,sans-Serif" font-size="10.00">ajabase/system/lock.h</text>
</a>
</g>
</g>
<!-- Node2&#45;&gt;Node13 -->
<g id="edge15" class="edge">
<title>Node2&#45;&gt;Node13</title>
<path fill="none" stroke="midnightblue" d="M300.62,-168.47C265.49,-158.08 218.21,-144.08 185.42,-134.37"/>
<polygon fill="midnightblue" stroke="midnightblue" points="186.32,-130.99 175.74,-131.51 184.33,-137.7 186.32,-130.99"/>
</g>
<!-- Node4 -->
<g id="node4" class="node">
<title>Node4</title>
<g id="a_node4"><a xlink:href="../../d4/d79/public_8h.html" target="_top" xlink:title="Master header for the ajabase library.">
<polygon fill="white" stroke="black" points="160,-56.5 160,-75.5 302,-75.5 302,-56.5 160,-56.5"/>
<text text-anchor="middle" x="231" y="-63.5" font-family="Helvetica,sans-Serif" font-size="10.00">ajabase/common/public.h</text>
</a>
</g>
</g>
<!-- Node3&#45;&gt;Node4 -->
<g id="edge3" class="edge">
<title>Node3&#45;&gt;Node4</title>
<path fill="none" stroke="midnightblue" d="M288.07,-112.32C277.83,-104.18 262.28,-91.84 250,-82.09"/>
<polygon fill="midnightblue" stroke="midnightblue" points="252.13,-79.31 242.12,-75.83 247.78,-84.79 252.13,-79.31"/>
</g>
<!-- Node5 -->
<g id="node5" class="node">
<title>Node5</title>
<g id="a_node5"><a xlink:href="../../db/db5/export_8h.html" target="_top" xlink:title="Declares system&#45;dependent import/export macros and libraries.">
<polygon fill="white" stroke="black" points="264,-0.5 264,-19.5 408,-19.5 408,-0.5 264,-0.5"/>
<text text-anchor="middle" x="336" y="-7.5" font-family="Helvetica,sans-Serif" font-size="10.00">ajabase/common/export.h</text>
</a>
</g>
</g>
<!-- Node4&#45;&gt;Node5 -->
<g id="edge4" class="edge">
<title>Node4&#45;&gt;Node5</title>
<path fill="none" stroke="midnightblue" d="M247.87,-56.32C264.71,-47.66 290.81,-34.24 310.24,-24.25"/>
<polygon fill="midnightblue" stroke="midnightblue" points="311.88,-27.34 319.17,-19.65 308.68,-21.12 311.88,-27.34"/>
</g>
<!-- Node6 -->
<g id="node6" class="node">
<title>Node6</title>
<g id="a_node6"><a xlink:title=" ">
<polygon fill="white" stroke="#bfbfbf" points="426,-0.5 426,-19.5 470,-19.5 470,-0.5 426,-0.5"/>
<text text-anchor="middle" x="448" y="-7.5" font-family="Helvetica,sans-Serif" font-size="10.00">string</text>
</a>
</g>
</g>
<!-- Node4&#45;&gt;Node6 -->
<g id="edge5" class="edge">
<title>Node4&#45;&gt;Node6</title>
<path fill="none" stroke="midnightblue" d="M268.53,-56.44C304.13,-48.21 359.34,-35.15 415.86,-20.22"/>
<polygon fill="midnightblue" stroke="midnightblue" points="416.92,-23.56 425.68,-17.61 415.12,-16.8 416.92,-23.56"/>
</g>
<!-- Node7 -->
<g id="node7" class="node">
<title>Node7</title>
<g id="a_node7"><a xlink:title=" ">
<polygon fill="white" stroke="#bfbfbf" points="158,-0.5 158,-19.5 190,-19.5 190,-0.5 158,-0.5"/>
<text text-anchor="middle" x="174" y="-7.5" font-family="Helvetica,sans-Serif" font-size="10.00">list</text>
</a>
</g>
</g>
<!-- Node4&#45;&gt;Node7 -->
<g id="edge6" class="edge">
<title>Node4&#45;&gt;Node7</title>
<path fill="none" stroke="midnightblue" d="M221.84,-56.32C213.5,-48.42 200.97,-36.55 190.82,-26.94"/>
<polygon fill="midnightblue" stroke="midnightblue" points="192.99,-24.17 183.32,-19.83 188.18,-29.25 192.99,-24.17"/>
</g>
<!-- Node8 -->
<g id="node8" class="node">
<title>Node8</title>
<g id="a_node8"><a xlink:title=" ">
<polygon fill="white" stroke="#bfbfbf" points="488.5,-0.5 488.5,-19.5 535.5,-19.5 535.5,-0.5 488.5,-0.5"/>
<text text-anchor="middle" x="512" y="-7.5" font-family="Helvetica,sans-Serif" font-size="10.00">vector</text>
</a>
</g>
</g>
<!-- Node4&#45;&gt;Node8 -->
<g id="edge7" class="edge">
<title>Node4&#45;&gt;Node8</title>
<path fill="none" stroke="midnightblue" d="M285.95,-56.43C334.12,-48.61 406.23,-36.13 478.13,-20.03"/>
<polygon fill="midnightblue" stroke="midnightblue" points="479.29,-23.36 488.27,-17.74 477.74,-16.53 479.29,-23.36"/>
</g>
<!-- Node9 -->
<g id="node9" class="node">
<title>Node9</title>
<g id="a_node9"><a xlink:title=" ">
<polygon fill="white" stroke="#bfbfbf" points="208,-0.5 208,-19.5 246,-19.5 246,-0.5 208,-0.5"/>
<text text-anchor="middle" x="227" y="-7.5" font-family="Helvetica,sans-Serif" font-size="10.00">map</text>
</a>
</g>
</g>
<!-- Node4&#45;&gt;Node9 -->
<g id="edge8" class="edge">
<title>Node4&#45;&gt;Node9</title>
<path fill="none" stroke="midnightblue" d="M230.34,-56.08C229.82,-49.01 229.06,-38.86 228.41,-29.99"/>
<polygon fill="midnightblue" stroke="midnightblue" points="231.88,-29.47 227.65,-19.75 224.9,-29.98 231.88,-29.47"/>
</g>
<!-- Node10 -->
<g id="node10" class="node">
<title>Node10</title>
<g id="a_node10"><a xlink:href="../../d9/d49/types_8h.html" target="_top" xlink:title="Declares common types used in the ajabase library.">
<polygon fill="white" stroke="black" points="0,-0.5 0,-19.5 140,-19.5 140,-0.5 0,-0.5"/>
<text text-anchor="middle" x="70" y="-7.5" font-family="Helvetica,sans-Serif" font-size="10.00">ajabase/common/types.h</text>
</a>
</g>
</g>
<!-- Node4&#45;&gt;Node10 -->
<g id="edge9" class="edge">
<title>Node4&#45;&gt;Node10</title>
<path fill="none" stroke="midnightblue" d="M205.49,-56.44C178.4,-47.36 135.41,-32.94 105.13,-22.78"/>
<polygon fill="midnightblue" stroke="midnightblue" points="105.99,-19.38 95.39,-19.52 103.76,-26.01 105.99,-19.38"/>
</g>
<!-- Node11&#45;&gt;Node5 -->
<g id="edge11" class="edge">
<title>Node11&#45;&gt;Node5</title>
<path fill="none" stroke="midnightblue" d="M388.04,-56.32C378.87,-48.34 365.06,-36.31 353.97,-26.65"/>
<polygon fill="midnightblue" stroke="midnightblue" points="355.98,-23.76 346.14,-19.83 351.38,-29.04 355.98,-23.76"/>
</g>
<!-- Node11&#45;&gt;Node6 -->
<g id="edge13" class="edge">
<title>Node11&#45;&gt;Node6</title>
<path fill="none" stroke="midnightblue" d="M406.26,-56.08C413.46,-48.3 424.11,-36.8 432.85,-27.37"/>
<polygon fill="midnightblue" stroke="midnightblue" points="435.67,-29.47 439.9,-19.75 430.53,-24.71 435.67,-29.47"/>
</g>
<!-- Node11&#45;&gt;Node8 -->
<g id="edge14" class="edge">
<title>Node11&#45;&gt;Node8</title>
<path fill="none" stroke="midnightblue" d="M416.06,-56.44C434.57,-47.68 463.58,-33.94 484.86,-23.86"/>
<polygon fill="midnightblue" stroke="midnightblue" points="486.48,-26.96 494.02,-19.52 483.49,-20.63 486.48,-26.96"/>
</g>
<!-- Node12 -->
<g id="node12" class="node">
<title>Node12</title>
<g id="a_node12"><a xlink:title=" ">
<polygon fill="white" stroke="#bfbfbf" points="625,-0.5 625,-19.5 657,-19.5 657,-0.5 625,-0.5"/>
<text text-anchor="middle" x="641" y="-7.5" font-family="Helvetica,sans-Serif" font-size="10.00">set</text>
</a>
</g>
</g>
<!-- Node11&#45;&gt;Node12 -->
<g id="edge12" class="edge">
<title>Node11&#45;&gt;Node12</title>
<path fill="none" stroke="midnightblue" d="M449.59,-56.48C491.82,-49.03 553.21,-37.11 615.05,-19.95"/>
<polygon fill="midnightblue" stroke="midnightblue" points="616.3,-23.23 624.97,-17.15 614.4,-16.5 616.3,-23.23"/>
</g>
<!-- Node13&#45;&gt;Node4 -->
<g id="edge16" class="edge">
<title>Node13&#45;&gt;Node4</title>
<path fill="none" stroke="midnightblue" d="M160.5,-112.32C173.6,-103.9 193.71,-90.97 209.11,-81.07"/>
<polygon fill="midnightblue" stroke="midnightblue" points="211.02,-84.01 217.54,-75.65 207.23,-78.12 211.02,-84.01"/>
</g>
<!-- Node14 -->
<g id="node14" class="node">
<title>Node14</title>
<g id="a_node14"><a xlink:title=" ">
<polygon fill="white" stroke="#bfbfbf" points="86,-56.5 86,-75.5 142,-75.5 142,-56.5 86,-56.5"/>
<text text-anchor="middle" x="114" y="-63.5" font-family="Helvetica,sans-Serif" font-size="10.00">assert.h</text>
</a>
</g>
</g>
<!-- Node13&#45;&gt;Node14 -->
<g id="edge17" class="edge">
<title>Node13&#45;&gt;Node14</title>
<path fill="none" stroke="midnightblue" d="M141.55,-112.08C136.99,-104.61 130.33,-93.72 124.71,-84.52"/>
<polygon fill="midnightblue" stroke="midnightblue" points="127.55,-82.46 119.35,-75.75 121.58,-86.11 127.55,-82.46"/>
</g>
<!-- Node15&#45;&gt;Node4 -->
<g id="edge22" class="edge">
<title>Node15&#45;&gt;Node4</title>
<path fill="none" stroke="midnightblue" d="M566.78,-112.44C495.42,-102.79 379.51,-87.1 304.27,-76.92"/>
<polygon fill="midnightblue" stroke="midnightblue" points="304.31,-73.39 293.93,-75.52 303.37,-80.33 304.31,-73.39"/>
</g>
<!-- Node15&#45;&gt;Node12 -->
<g id="edge21" class="edge">
<title>Node15&#45;&gt;Node12</title>
<path fill="none" stroke="midnightblue" d="M640.16,-112.19C648.91,-103.87 660.9,-90.54 666,-76 671.73,-59.66 663.22,-41.25 654.62,-28.21"/>
<polygon fill="midnightblue" stroke="midnightblue" points="657.22,-25.84 648.53,-19.77 651.54,-29.93 657.22,-25.84"/>
</g>
<!-- Node16 -->
<g id="node16" class="node">
<title>Node16</title>
<g id="a_node16"><a xlink:title=" ">
<polygon fill="white" stroke="#bfbfbf" points="713,-56.5 713,-75.5 763,-75.5 763,-56.5 713,-56.5"/>
<text text-anchor="middle" x="738" y="-63.5" font-family="Helvetica,sans-Serif" font-size="10.00">stdio.h</text>
</a>
</g>
</g>
<!-- Node15&#45;&gt;Node16 -->
<g id="edge19" class="edge">
<title>Node15&#45;&gt;Node16</title>
<path fill="none" stroke="midnightblue" d="M647.35,-112.32C664.67,-103.66 691.52,-90.24 711.5,-80.25"/>
<polygon fill="midnightblue" stroke="midnightblue" points="713.31,-83.26 720.69,-75.65 710.18,-77 713.31,-83.26"/>
</g>
<!-- Node17 -->
<g id="node17" class="node">
<title>Node17</title>
<g id="a_node17"><a xlink:title=" ">
<polygon fill="white" stroke="#bfbfbf" points="781,-56.5 781,-75.5 837,-75.5 837,-56.5 781,-56.5"/>
<text text-anchor="middle" x="809" y="-63.5" font-family="Helvetica,sans-Serif" font-size="10.00">sstream</text>
</a>
</g>
</g>
<!-- Node15&#45;&gt;Node17 -->
<g id="edge20" class="edge">
<title>Node15&#45;&gt;Node17</title>
<path fill="none" stroke="midnightblue" d="M658.36,-112.44C688.74,-103.28 737.11,-88.69 770.82,-78.52"/>
<polygon fill="midnightblue" stroke="midnightblue" points="772.21,-81.76 780.77,-75.52 770.18,-75.05 772.21,-81.76"/>
</g>
<!-- Node18 -->
<g id="node18" class="node">
<title>Node18</title>
<g id="a_node18"><a xlink:href="../../d0/db4/debugshare_8h.html" target="_top" xlink:title="Declares the constants used for sharing debug messages. These structures are used to gather debug mes...">
<polygon fill="white" stroke="black" points="493.5,-56.5 493.5,-75.5 656.5,-75.5 656.5,-56.5 493.5,-56.5"/>
<text text-anchor="middle" x="575" y="-63.5" font-family="Helvetica,sans-Serif" font-size="10.00">ajabase/system/debugshare.h</text>
</a>
</g>
</g>
<!-- Node15&#45;&gt;Node18 -->
<g id="edge23" class="edge">
<title>Node15&#45;&gt;Node18</title>
<path fill="none" stroke="midnightblue" d="M620.92,-112.08C612.83,-104.14 600.8,-92.34 591.09,-82.8"/>
<polygon fill="midnightblue" stroke="midnightblue" points="593.5,-80.26 583.91,-75.75 588.6,-85.25 593.5,-80.26"/>
</g>
<!-- Node18&#45;&gt;Node5 -->
<g id="edge24" class="edge">
<title>Node18&#45;&gt;Node5</title>
<path fill="none" stroke="midnightblue" d="M537.13,-56.44C495.52,-47.04 428.63,-31.93 383.53,-21.74"/>
<polygon fill="midnightblue" stroke="midnightblue" points="384.22,-18.31 373.69,-19.52 382.68,-25.13 384.22,-18.31"/>
</g>
<!-- Node18&#45;&gt;Node6 -->
<g id="edge27" class="edge">
<title>Node18&#45;&gt;Node6</title>
<path fill="none" stroke="midnightblue" d="M554.88,-56.44C533.98,-47.56 501.07,-33.56 477.28,-23.45"/>
<polygon fill="midnightblue" stroke="midnightblue" points="478.6,-20.21 468.03,-19.52 475.86,-26.65 478.6,-20.21"/>
</g>
<!-- Node18&#45;&gt;Node8 -->
<g id="edge28" class="edge">
<title>Node18&#45;&gt;Node8</title>
<path fill="none" stroke="midnightblue" d="M564.88,-56.32C555.47,-48.26 541.26,-36.08 529.93,-26.37"/>
<polygon fill="midnightblue" stroke="midnightblue" points="532.18,-23.68 522.31,-19.83 527.62,-29 532.18,-23.68"/>
</g>
<!-- Node19 -->
<g id="node19" class="node">
<title>Node19</title>
<g id="a_node19"><a xlink:title=" ">
<polygon fill="white" stroke="#bfbfbf" points="675,-0.5 675,-19.5 731,-19.5 731,-0.5 675,-0.5"/>
<text text-anchor="middle" x="703" y="-7.5" font-family="Helvetica,sans-Serif" font-size="10.00">stddef.h</text>
</a>
</g>
</g>
<!-- Node18&#45;&gt;Node19 -->
<g id="edge25" class="edge">
<title>Node18&#45;&gt;Node19</title>
<path fill="none" stroke="midnightblue" d="M595.28,-56.44C616.35,-47.56 649.52,-33.56 673.49,-23.45"/>
<polygon fill="midnightblue" stroke="midnightblue" points="674.96,-26.63 682.81,-19.52 672.24,-20.18 674.96,-26.63"/>
</g>
<!-- Node20 -->
<g id="node20" class="node">
<title>Node20</title>
<g id="a_node20"><a xlink:title=" ">
<polygon fill="white" stroke="#bfbfbf" points="553.5,-0.5 553.5,-19.5 606.5,-19.5 606.5,-0.5 553.5,-0.5"/>
<text text-anchor="middle" x="580" y="-7.5" font-family="Helvetica,sans-Serif" font-size="10.00">stdint.h</text>
</a>
</g>
</g>
<!-- Node18&#45;&gt;Node20 -->
<g id="edge26" class="edge">
<title>Node18&#45;&gt;Node20</title>
<path fill="none" stroke="midnightblue" d="M575.83,-56.08C576.48,-49.01 577.42,-38.86 578.24,-29.99"/>
<polygon fill="midnightblue" stroke="midnightblue" points="581.75,-30.03 579.19,-19.75 574.78,-29.39 581.75,-30.03"/>
</g>
</g>
</svg>
        <g id="navigator" transform="translate(0 0)" fill="#404254">
                <rect fill="#f2f5e9" fill-opacity="0.5" stroke="#606060" stroke-width=".5" x="0" y="0" width="60" height="60"/>
                <use id="zoomplus" xlink:href="#zoomPlus" x="17" y="9" onmousedown="handleZoom(evt,'in')"/>
                <use id="zoomminus" xlink:href="#zoomMin" x="42" y="9" onmousedown="handleZoom(evt,'out')"/>
                <use id="reset" xlink:href="#resetDef" x="30" y="36" onmousedown="handleReset()"/>
                <g id="arrowUp" xlink:href="#dirArrow" transform="translate(30 24)" onmousedown="handlePan(0,-1)">
                  <use xlink:href="#rim" fill="#404040">
                        <set attributeName="fill" to="#808080" begin="arrowUp.mouseover" end="arrowUp.mouseout"/>
                  </use>
                  <path fill="none" stroke="white" stroke-width="1.5" d="M0,-3.0v7 M-2.5,-0.5L0,-3.0L2.5,-0.5"/>
                </g>
                <g id="arrowRight" xlink:href="#dirArrow" transform="rotate(90) translate(36 -43)" onmousedown="handlePan(1,0)">
                  <use xlink:href="#rim" fill="#404040">
                        <set attributeName="fill" to="#808080" begin="arrowRight.mouseover" end="arrowRight.mouseout"/>
                  </use>
                  <path fill="none" stroke="white" stroke-width="1.5" d="M0,-3.0v7 M-2.5,-0.5L0,-3.0L2.5,-0.5"/>
                </g>
                <g id="arrowDown" xlink:href="#dirArrow" transform="rotate(180) translate(-30 -48)" onmousedown="handlePan(0,1)">
                  <use xlink:href="#rim" fill="#404040">
                        <set attributeName="fill" to="#808080" begin="arrowDown.mouseover" end="arrowDown.mouseout"/>
                  </use>
                  <path fill="none" stroke="white" stroke-width="1.5" d="M0,-3.0v7 M-2.5,-0.5L0,-3.0L2.5,-0.5"/>
                </g>
                <g id="arrowLeft" xlink:href="#dirArrow" transform="rotate(270) translate(-36 17)" onmousedown="handlePan(-1,0)">
                  <use xlink:href="#rim" fill="#404040">
                        <set attributeName="fill" to="#808080" begin="arrowLeft.mouseover" end="arrowLeft.mouseout"/>
                  </use>
                  <path fill="none" stroke="white" stroke-width="1.5" d="M0,-3.0v7 M-2.5,-0.5L0,-3.0L2.5,-0.5"/>
                </g>
        </g>
        <svg viewBox="0 0 15 15" width="100%" height="30px" preserveAspectRatio="xMaxYMin meet">
         <g id="arrow_out" transform="scale(0.3 0.3)">
          <a xlink:href="windows_2lockimpl_8cpp__incl_org.svg" target="_base">
           <rect id="button" ry="5" rx="5" y="6" x="6" height="38" width="38"
                fill="#f2f5e9" fill-opacity="0.5" stroke="#606060" stroke-width="1.0"/>
           <path id="arrow"
             d="M 11.500037,31.436501 C 11.940474,20.09759 22.043105,11.32322 32.158766,21.979434 L 37.068811,17.246167 C 37.068811,17.246167 37.088388,32 37.088388,32 L 22.160133,31.978069 C 22.160133,31.978069 26.997745,27.140456 26.997745,27.140456 C 18.528582,18.264221 13.291696,25.230495 11.500037,31.436501 z"
             style="fill:#404040;"/>
          </a>
         </g>
        </svg>
</svg>
