<?xml version="1.0" encoding="UTF-8" standalone="no"?>
<!DOCTYPE svg PUBLIC "-//W3C//DTD SVG 1.1//EN"
 "http://www.w3.org/Graphics/SVG/1.1/DTD/svg11.dtd">
<!-- Generated by graphviz version 2.40.1 (0)
 -->
<!-- Title: /home/tcbuilder/buildAgent/work/df8e8cce5bebfd58/libajantv2/ajabase/common/wavewriter.cpp Pages: 1 -->
<svg width="663pt" height="386pt"
 viewBox="0.00 0.00 662.50 386.00" xmlns="http://www.w3.org/2000/svg" xmlns:xlink="http://www.w3.org/1999/xlink">
<g id="graph0" class="graph" transform="scale(1 1) rotate(0) translate(4 382)">
<title>/home/tcbuilder/buildAgent/work/df8e8cce5bebfd58/libajantv2/ajabase/common/wavewriter.cpp</title>
<polygon fill="#ffffff" stroke="transparent" points="-4,4 -4,-382 658.5,-382 658.5,4 -4,4"/>
<!-- Node0 -->
<g id="node1" class="node">
<title>Node0</title>
<polygon fill="#bfbfbf" stroke="#000000" points="429,-336.5 429,-377.5 596,-377.5 596,-336.5 429,-336.5"/>
<text text-anchor="start" x="437" y="-365.5" font-family="Helvetica,sans-Serif" font-size="10.00" fill="#000000">/home/tcbuilder/buildAgent</text>
<text text-anchor="start" x="437" y="-354.5" font-family="Helvetica,sans-Serif" font-size="10.00" fill="#000000">/work/df8e8cce5bebfd58/libajantv2</text>
<text text-anchor="middle" x="512.5" y="-343.5" font-family="Helvetica,sans-Serif" font-size="10.00" fill="#000000">/ajabase/common/wavewriter.cpp</text>
</g>
<!-- Node1 -->
<g id="node2" class="node">
<title>Node1</title>
<g id="a_node2"><a xlink:href="../../d1/dda/wavewriter_8h.html" target="_top" xlink:title="Declares the AJAWavWriter class. ">
<polygon fill="#ffffff" stroke="#000000" points="253,-280.5 253,-299.5 324,-299.5 324,-280.5 253,-280.5"/>
<text text-anchor="middle" x="288.5" y="-287.5" font-family="Helvetica,sans-Serif" font-size="10.00" fill="#000000">wavewriter.h</text>
</a>
</g>
</g>
<!-- Node0&#45;&gt;Node1 -->
<g id="edge1" class="edge">
<title>Node0&#45;&gt;Node1</title>
<path fill="none" stroke="#191970" d="M443.7703,-336.4425C406.6356,-325.3352 362.0015,-311.9848 330.1378,-302.4542"/>
<polygon fill="#191970" stroke="#191970" points="330.8504,-299.0142 320.2668,-299.5017 328.8444,-305.7206 330.8504,-299.0142"/>
</g>
<!-- Node12 -->
<g id="node13" class="node">
<title>Node12</title>
<g id="a_node13"><a xlink:href="../../d4/d3c/timebase_8h.html" target="_top" xlink:title="Declares the AJATimeBase class. ">
<polygon fill="#ffffff" stroke="#000000" points="392.5,-224.5 392.5,-243.5 534.5,-243.5 534.5,-224.5 392.5,-224.5"/>
<text text-anchor="middle" x="463.5" y="-231.5" font-family="Helvetica,sans-Serif" font-size="10.00" fill="#000000">ajabase/common/timebase.h</text>
</a>
</g>
</g>
<!-- Node0&#45;&gt;Node12 -->
<g id="edge17" class="edge">
<title>Node0&#45;&gt;Node12</title>
<path fill="none" stroke="#191970" d="M509.3691,-336.4525C506.4954,-320.582 501.4566,-298.3111 493.5,-280 489.2485,-270.2157 482.9824,-260.1968 477.275,-252.0175"/>
<polygon fill="#191970" stroke="#191970" points="479.919,-249.7024 471.2057,-243.675 474.2585,-253.8205 479.919,-249.7024"/>
</g>
<!-- Node14 -->
<g id="node15" class="node">
<title>Node14</title>
<g id="a_node15"><a xlink:href="../../d6/d23/timecode_8h.html" target="_top" xlink:title="Declares the AJATimeCode class. ">
<polygon fill="#ffffff" stroke="#000000" points="342.5,-280.5 342.5,-299.5 484.5,-299.5 484.5,-280.5 342.5,-280.5"/>
<text text-anchor="middle" x="413.5" y="-287.5" font-family="Helvetica,sans-Serif" font-size="10.00" fill="#000000">ajabase/common/timecode.h</text>
</a>
</g>
</g>
<!-- Node0&#45;&gt;Node14 -->
<g id="edge20" class="edge">
<title>Node0&#45;&gt;Node14</title>
<path fill="none" stroke="#191970" d="M481.9889,-336.3511C467.1686,-326.3212 449.6715,-314.4797 436.0722,-305.2762"/>
<polygon fill="#191970" stroke="#191970" points="438.0092,-302.3609 427.7658,-299.6546 434.0858,-308.1581 438.0092,-302.3609"/>
</g>
<!-- Node15 -->
<g id="node16" class="node">
<title>Node15</title>
<polygon fill="#ffffff" stroke="#bfbfbf" points="540.5,-280.5 540.5,-299.5 584.5,-299.5 584.5,-280.5 540.5,-280.5"/>
<text text-anchor="middle" x="562.5" y="-287.5" font-family="Helvetica,sans-Serif" font-size="10.00" fill="#000000">time.h</text>
</g>
<!-- Node0&#45;&gt;Node15 -->
<g id="edge22" class="edge">
<title>Node0&#45;&gt;Node15</title>
<path fill="none" stroke="#191970" d="M528.0462,-336.168C534.7696,-327.1587 542.5628,-316.7159 549.0349,-308.0432"/>
<polygon fill="#191970" stroke="#191970" points="552.0253,-309.8881 555.2011,-299.7805 546.4152,-305.7015 552.0253,-309.8881"/>
</g>
<!-- Node16 -->
<g id="node17" class="node">
<title>Node16</title>
<polygon fill="#ffffff" stroke="#bfbfbf" points="602.5,-280.5 602.5,-299.5 654.5,-299.5 654.5,-280.5 602.5,-280.5"/>
<text text-anchor="middle" x="628.5" y="-287.5" font-family="Helvetica,sans-Serif" font-size="10.00" fill="#000000">assert.h</text>
</g>
<!-- Node0&#45;&gt;Node16 -->
<g id="edge23" class="edge">
<title>Node0&#45;&gt;Node16</title>
<path fill="none" stroke="#191970" d="M548.2503,-336.3511C565.9464,-326.1301 586.8994,-314.0279 602.9572,-304.7532"/>
<polygon fill="#191970" stroke="#191970" points="604.8757,-307.687 611.7845,-299.6546 601.3746,-301.6254 604.8757,-307.687"/>
</g>
<!-- Node2 -->
<g id="node3" class="node">
<title>Node2</title>
<g id="a_node3"><a xlink:href="../../d4/d79/public_8h.html" target="_top" xlink:title="Master header for the ajabase library. ">
<polygon fill="#ffffff" stroke="#000000" points="265.5,-112.5 265.5,-131.5 315.5,-131.5 315.5,-112.5 265.5,-112.5"/>
<text text-anchor="middle" x="290.5" y="-119.5" font-family="Helvetica,sans-Serif" font-size="10.00" fill="#000000">public.h</text>
</a>
</g>
</g>
<!-- Node1&#45;&gt;Node2 -->
<g id="edge2" class="edge">
<title>Node1&#45;&gt;Node2</title>
<path fill="none" stroke="#191970" d="M295.1326,-280.4465C308.6153,-259.8013 336.8573,-209.5342 323.5,-168 320.1054,-157.4445 313.2942,-147.2592 306.7369,-139.1676"/>
<polygon fill="#191970" stroke="#191970" points="309.3431,-136.8307 300.1492,-131.5654 304.053,-141.4149 309.3431,-136.8307"/>
</g>
<!-- Node10 -->
<g id="node11" class="node">
<title>Node10</title>
<g id="a_node11"><a xlink:href="../../db/db8/file__io_8h.html" target="_top" xlink:title="Declares the AJAFileIO class. ">
<polygon fill="#ffffff" stroke="#000000" points="77,-224.5 77,-243.5 200,-243.5 200,-224.5 77,-224.5"/>
<text text-anchor="middle" x="138.5" y="-231.5" font-family="Helvetica,sans-Serif" font-size="10.00" fill="#000000">ajabase/system/file_io.h</text>
</a>
</g>
</g>
<!-- Node1&#45;&gt;Node10 -->
<g id="edge10" class="edge">
<title>Node1&#45;&gt;Node10</title>
<path fill="none" stroke="#191970" d="M262.7141,-280.3733C238.0953,-271.1822 200.81,-257.2624 173.5125,-247.0713"/>
<polygon fill="#191970" stroke="#191970" points="174.542,-243.7198 163.9494,-243.5011 172.0937,-250.2777 174.542,-243.7198"/>
</g>
<!-- Node3 -->
<g id="node4" class="node">
<title>Node3</title>
<g id="a_node4"><a xlink:href="../../db/db5/export_8h.html" target="_top" xlink:title="Declares system&#45;dependent import/export macros and libraries. ">
<polygon fill="#ffffff" stroke="#000000" points="266,-56.5 266,-75.5 395,-75.5 395,-56.5 266,-56.5"/>
<text text-anchor="middle" x="330.5" y="-63.5" font-family="Helvetica,sans-Serif" font-size="10.00" fill="#000000">ajabase/common/export.h</text>
</a>
</g>
</g>
<!-- Node2&#45;&gt;Node3 -->
<g id="edge3" class="edge">
<title>Node2&#45;&gt;Node3</title>
<path fill="none" stroke="#191970" d="M297.4675,-112.2455C303.0311,-104.4564 310.978,-93.3308 317.6829,-83.9439"/>
<polygon fill="#191970" stroke="#191970" points="320.648,-85.8144 323.6124,-75.6427 314.9519,-81.7457 320.648,-85.8144"/>
</g>
<!-- Node4 -->
<g id="node5" class="node">
<title>Node4</title>
<polygon fill="#ffffff" stroke="#bfbfbf" points="0,-56.5 0,-75.5 41,-75.5 41,-56.5 0,-56.5"/>
<text text-anchor="middle" x="20.5" y="-63.5" font-family="Helvetica,sans-Serif" font-size="10.00" fill="#000000">string</text>
</g>
<!-- Node2&#45;&gt;Node4 -->
<g id="edge4" class="edge">
<title>Node2&#45;&gt;Node4</title>
<path fill="none" stroke="#191970" d="M265.3803,-118.3087C223.0568,-111.8498 134.749,-97.3457 50.7401,-75.7737"/>
<polygon fill="#191970" stroke="#191970" points="51.6086,-72.3832 41.0491,-73.2481 49.8432,-79.1569 51.6086,-72.3832"/>
</g>
<!-- Node5 -->
<g id="node6" class="node">
<title>Node5</title>
<polygon fill="#ffffff" stroke="#bfbfbf" points="413,-56.5 413,-75.5 442,-75.5 442,-56.5 413,-56.5"/>
<text text-anchor="middle" x="427.5" y="-63.5" font-family="Helvetica,sans-Serif" font-size="10.00" fill="#000000">list</text>
</g>
<!-- Node2&#45;&gt;Node5 -->
<g id="edge5" class="edge">
<title>Node2&#45;&gt;Node5</title>
<path fill="none" stroke="#191970" d="M314.3318,-112.3646C337.2169,-103.0963 372.7513,-88.6643 403.5,-76 403.5939,-75.9613 403.688,-75.9226 403.7823,-75.8837"/>
<polygon fill="#191970" stroke="#191970" points="404.8861,-79.215 412.7848,-72.1537 402.2066,-72.7481 404.8861,-79.215"/>
</g>
<!-- Node6 -->
<g id="node7" class="node">
<title>Node6</title>
<polygon fill="#ffffff" stroke="#bfbfbf" points="59.5,-56.5 59.5,-75.5 103.5,-75.5 103.5,-56.5 59.5,-56.5"/>
<text text-anchor="middle" x="81.5" y="-63.5" font-family="Helvetica,sans-Serif" font-size="10.00" fill="#000000">vector</text>
</g>
<!-- Node2&#45;&gt;Node6 -->
<g id="edge6" class="edge">
<title>Node2&#45;&gt;Node6</title>
<path fill="none" stroke="#191970" d="M265.3161,-115.9896C232.5391,-108.0599 173.2825,-93.3598 113.7441,-76.2479"/>
<polygon fill="#191970" stroke="#191970" points="114.3815,-72.7888 103.8025,-73.3684 112.4339,-79.5124 114.3815,-72.7888"/>
</g>
<!-- Node7 -->
<g id="node8" class="node">
<title>Node7</title>
<polygon fill="#ffffff" stroke="#bfbfbf" points="460,-56.5 460,-75.5 495,-75.5 495,-56.5 460,-56.5"/>
<text text-anchor="middle" x="477.5" y="-63.5" font-family="Helvetica,sans-Serif" font-size="10.00" fill="#000000">map</text>
</g>
<!-- Node2&#45;&gt;Node7 -->
<g id="edge7" class="edge">
<title>Node2&#45;&gt;Node7</title>
<path fill="none" stroke="#191970" d="M315.6192,-115.4026C345.4849,-107.4239 397.0042,-93.2378 450.2438,-75.9079"/>
<polygon fill="#191970" stroke="#191970" points="451.4396,-79.1991 459.8478,-72.753 449.2549,-72.5488 451.4396,-79.1991"/>
</g>
<!-- Node8 -->
<g id="node9" class="node">
<title>Node8</title>
<g id="a_node9"><a xlink:href="../../d9/d49/types_8h.html" target="_top" xlink:title="Declares common types used in the ajabase library. ">
<polygon fill="#ffffff" stroke="#000000" points="121.5,-56.5 121.5,-75.5 247.5,-75.5 247.5,-56.5 121.5,-56.5"/>
<text text-anchor="middle" x="184.5" y="-63.5" font-family="Helvetica,sans-Serif" font-size="10.00" fill="#000000">ajabase/common/types.h</text>
</a>
</g>
</g>
<!-- Node2&#45;&gt;Node8 -->
<g id="edge8" class="edge">
<title>Node2&#45;&gt;Node8</title>
<path fill="none" stroke="#191970" d="M272.0362,-112.2455C255.3926,-103.4527 230.7007,-90.4079 211.7808,-80.4125"/>
<polygon fill="#191970" stroke="#191970" points="213.2291,-77.2193 202.7522,-75.6427 209.9592,-83.4086 213.2291,-77.2193"/>
</g>
<!-- Node9 -->
<g id="node10" class="node">
<title>Node9</title>
<g id="a_node10"><a xlink:href="../../db/d40/ntv2deprecate_8h.html" target="_top" xlink:title="Deprecation control macros. ">
<polygon fill="#ffffff" stroke="#000000" points="141.5,-.5 141.5,-19.5 227.5,-19.5 227.5,-.5 141.5,-.5"/>
<text text-anchor="middle" x="184.5" y="-7.5" font-family="Helvetica,sans-Serif" font-size="10.00" fill="#000000">ntv2deprecate.h</text>
</a>
</g>
</g>
<!-- Node8&#45;&gt;Node9 -->
<g id="edge9" class="edge">
<title>Node8&#45;&gt;Node9</title>
<path fill="none" stroke="#191970" d="M184.5,-56.2455C184.5,-48.9382 184.5,-38.6944 184.5,-29.7046"/>
<polygon fill="#191970" stroke="#191970" points="188.0001,-29.6426 184.5,-19.6427 181.0001,-29.6427 188.0001,-29.6426"/>
</g>
<!-- Node10&#45;&gt;Node2 -->
<g id="edge12" class="edge">
<title>Node10&#45;&gt;Node2</title>
<path fill="none" stroke="#191970" d="M141.8113,-224.1332C147.0522,-209.9041 158.5443,-183.6205 176.5,-168 199.0426,-148.3891 231.0235,-136.4703 255.3777,-129.6955"/>
<polygon fill="#191970" stroke="#191970" points="256.5102,-133.017 265.2985,-127.0994 254.7381,-126.245 256.5102,-133.017"/>
</g>
<!-- Node10&#45;&gt;Node4 -->
<g id="edge16" class="edge">
<title>Node10&#45;&gt;Node4</title>
<path fill="none" stroke="#191970" d="M131.8177,-224.4862C112.8417,-197.4695 58.3868,-119.9405 33.3607,-84.3102"/>
<polygon fill="#191970" stroke="#191970" points="36.0148,-81.9993 27.4029,-75.8279 30.2865,-86.0228 36.0148,-81.9993"/>
</g>
<!-- Node10&#45;&gt;Node6 -->
<g id="edge15" class="edge">
<title>Node10&#45;&gt;Node6</title>
<path fill="none" stroke="#191970" d="M135.2721,-224.4862C126.2227,-197.8144 100.4701,-121.9117 88.1822,-85.695"/>
<polygon fill="#191970" stroke="#191970" points="91.3619,-84.1731 84.8345,-75.8279 84.7331,-86.4222 91.3619,-84.1731"/>
</g>
<!-- Node10&#45;&gt;Node8 -->
<g id="edge11" class="edge">
<title>Node10&#45;&gt;Node8</title>
<path fill="none" stroke="#191970" d="M141.1785,-224.1586C144.6905,-211.2599 151.046,-187.933 156.5,-168 164.3876,-139.1731 173.5629,-105.774 179.2008,-85.2671"/>
<polygon fill="#191970" stroke="#191970" points="182.593,-86.1312 181.8697,-75.5611 175.8435,-84.2752 182.593,-86.1312"/>
</g>
<!-- Node11 -->
<g id="node12" class="node">
<title>Node11</title>
<g id="a_node12"><a xlink:href="../../dc/db2/system_8h.html" target="_top" xlink:title="System specific functions. ">
<polygon fill="#ffffff" stroke="#000000" points="186,-168.5 186,-187.5 315,-187.5 315,-168.5 186,-168.5"/>
<text text-anchor="middle" x="250.5" y="-175.5" font-family="Helvetica,sans-Serif" font-size="10.00" fill="#000000">ajabase/system/system.h</text>
</a>
</g>
</g>
<!-- Node10&#45;&gt;Node11 -->
<g id="edge13" class="edge">
<title>Node10&#45;&gt;Node11</title>
<path fill="none" stroke="#191970" d="M157.7535,-224.3733C175.5712,-215.4644 202.2747,-202.1127 222.4594,-192.0203"/>
<polygon fill="#191970" stroke="#191970" points="224.1187,-195.1038 231.4978,-187.5011 220.9882,-188.8428 224.1187,-195.1038"/>
</g>
<!-- Node11&#45;&gt;Node2 -->
<g id="edge14" class="edge">
<title>Node11&#45;&gt;Node2</title>
<path fill="none" stroke="#191970" d="M257.4675,-168.2455C263.0311,-160.4564 270.978,-149.3308 277.6829,-139.9439"/>
<polygon fill="#191970" stroke="#191970" points="280.648,-141.8144 283.6124,-131.6427 274.9519,-137.7457 280.648,-141.8144"/>
</g>
<!-- Node12&#45;&gt;Node2 -->
<g id="edge18" class="edge">
<title>Node12&#45;&gt;Node2</title>
<path fill="none" stroke="#191970" d="M448.7501,-224.4509C418.619,-204.9441 349.8038,-160.3932 313.6555,-136.9909"/>
<polygon fill="#191970" stroke="#191970" points="315.5091,-134.0214 305.2125,-131.5249 311.7049,-139.8975 315.5091,-134.0214"/>
</g>
<!-- Node13 -->
<g id="node14" class="node">
<title>Node13</title>
<g id="a_node14"><a xlink:href="../../d6/da4/videotypes_8h.html" target="_top" xlink:title="Declares the enumeration constants used in the ajabase library. ">
<polygon fill="#ffffff" stroke="#000000" points="410,-168.5 410,-187.5 559,-187.5 559,-168.5 410,-168.5"/>
<text text-anchor="middle" x="484.5" y="-175.5" font-family="Helvetica,sans-Serif" font-size="10.00" fill="#000000">ajabase/common/videotypes.h</text>
</a>
</g>
</g>
<!-- Node12&#45;&gt;Node13 -->
<g id="edge19" class="edge">
<title>Node12&#45;&gt;Node13</title>
<path fill="none" stroke="#191970" d="M467.1579,-224.2455C469.9584,-216.7776 473.909,-206.2427 477.3324,-197.1137"/>
<polygon fill="#191970" stroke="#191970" points="480.6499,-198.2349 480.884,-187.6427 474.0955,-195.777 480.6499,-198.2349"/>
</g>
<!-- Node14&#45;&gt;Node12 -->
<g id="edge21" class="edge">
<title>Node14&#45;&gt;Node12</title>
<path fill="none" stroke="#191970" d="M422.2093,-280.2455C429.3073,-272.2958 439.5084,-260.8706 447.995,-251.3656"/>
<polygon fill="#191970" stroke="#191970" points="450.8411,-253.4331 454.8905,-243.6427 445.6195,-248.771 450.8411,-253.4331"/>
</g>
</g>
</svg>
