<?xml version="1.0" encoding="UTF-8" standalone="no"?>
<!DOCTYPE svg PUBLIC "-//W3C//DTD SVG 1.1//EN"
 "http://www.w3.org/Graphics/SVG/1.1/DTD/svg11.dtd">
<!-- Generated by graphviz version 2.40.1 (0)
 -->
<!-- Title: CC708PenColor Pages: 1 -->
<svg width="96pt" height="117pt"
 viewBox="0.00 0.00 96.00 117.00" xmlns="http://www.w3.org/2000/svg" xmlns:xlink="http://www.w3.org/1999/xlink">
<g id="graph0" class="graph" transform="scale(1 1) rotate(0) translate(4 113)">
<title>CC708PenColor</title>
<polygon fill="#ffffff" stroke="transparent" points="-4,4 -4,-113 92,-113 92,4 -4,4"/>
<!-- Node1 -->
<g id="node1" class="node">
<title>Node1</title>
<polygon fill="#bfbfbf" stroke="#000000" points="0,-.5 0,-19.5 88,-19.5 88,-.5 0,-.5"/>
<text text-anchor="middle" x="44" y="-7.5" font-family="Helvetica,sans-Serif" font-size="10.00" fill="#000000">CC708PenColor</text>
</g>
<!-- Node2 -->
<g id="node2" class="node">
<title>Node2</title>
<g id="a_node2"><a xlink:href="../../df/d43/struct_c_c708_color.html" target="_top" xlink:title="CC708Color">
<polygon fill="#ffffff" stroke="#000000" points="8.5,-89.5 8.5,-108.5 79.5,-108.5 79.5,-89.5 8.5,-89.5"/>
<text text-anchor="middle" x="44" y="-96.5" font-family="Helvetica,sans-Serif" font-size="10.00" fill="#000000">CC708Color</text>
</a>
</g>
</g>
<!-- Node2&#45;&gt;Node1 -->
<g id="edge1" class="edge">
<title>Node2&#45;&gt;Node1</title>
<path fill="none" stroke="#9a32cd" stroke-dasharray="5,2" d="M44,-79.2379C44,-60.7654 44,-33.957 44,-19.7259"/>
<polygon fill="#9a32cd" stroke="#9a32cd" points="40.5001,-79.4754 44,-89.4754 47.5001,-79.4755 40.5001,-79.4754"/>
<text text-anchor="middle" x="55" y="-63" font-family="Helvetica,sans-Serif" font-size="10.00" fill="#000000"> fg</text>
<text text-anchor="middle" x="55" y="-52" font-family="Helvetica,sans-Serif" font-size="10.00" fill="#000000">bg</text>
<text text-anchor="middle" x="55" y="-41" font-family="Helvetica,sans-Serif" font-size="10.00" fill="#000000">edge</text>
</g>
</g>
</svg>
