<?xml version="1.0" encoding="UTF-8" standalone="no"?>
<!DOCTYPE svg PUBLIC "-//W3C//DTD SVG 1.1//EN"
 "http://www.w3.org/Graphics/SVG/1.1/DTD/svg11.dtd">
<!-- Generated by graphviz version 2.43.0 (0)
 -->
<!-- Title: /home/tcbuilder/buildAgent/work/df8e8cce5bebfd58/libajantv2/ajantv2/includes/ntv2testpatterngen.h Pages: 1 -->
<svg width="2329pt" height="128pt"
 viewBox="0.00 0.00 2328.50 128.00" xmlns="http://www.w3.org/2000/svg" xmlns:xlink="http://www.w3.org/1999/xlink">
<g id="graph0" class="graph" transform="scale(1 1) rotate(0) translate(4 124)">
<title>/home/tcbuilder/buildAgent/work/df8e8cce5bebfd58/libajantv2/ajantv2/includes/ntv2testpatterngen.h</title>
<polygon fill="white" stroke="transparent" points="-4,4 -4,-124 2324.5,-124 2324.5,4 -4,4"/>
<!-- Node1 -->
<g id="node1" class="node">
<title>Node1</title>
<g id="a_node1"><a xlink:title="Declares the NTV2TestPatternGen class.">
<polygon fill="#bfbfbf" stroke="black" points="1062,-78.5 1062,-119.5 1268,-119.5 1268,-78.5 1062,-78.5"/>
<text text-anchor="start" x="1070" y="-107.5" font-family="Helvetica,sans-Serif" font-size="10.00">/home/tcbuilder/buildAgent</text>
<text text-anchor="start" x="1070" y="-96.5" font-family="Helvetica,sans-Serif" font-size="10.00">/work/df8e8cce5bebfd58/libajantv2</text>
<text text-anchor="middle" x="1165" y="-85.5" font-family="Helvetica,sans-Serif" font-size="10.00">/ajantv2/includes/ntv2testpatterngen.h</text>
</a>
</g>
</g>
<!-- Node2 -->
<g id="node2" class="node">
<title>Node2</title>
<g id="a_node2"><a xlink:href="../../d5/dd5/ntv2burn_8cpp.html" target="_top" xlink:title="Implementation of NTV2Burn demonstration class.">
<polygon fill="white" stroke="black" points="0,-0.5 0,-41.5 188,-41.5 188,-0.5 0,-0.5"/>
<text text-anchor="start" x="8" y="-29.5" font-family="Helvetica,sans-Serif" font-size="10.00">/home/tcbuilder/buildAgent</text>
<text text-anchor="start" x="8" y="-18.5" font-family="Helvetica,sans-Serif" font-size="10.00">/work/df8e8cce5bebfd58/libajantv2</text>
<text text-anchor="middle" x="94" y="-7.5" font-family="Helvetica,sans-Serif" font-size="10.00">/demos/ntv2burn/ntv2burn.cpp</text>
</a>
</g>
</g>
<!-- Node1&#45;&gt;Node2 -->
<g id="edge1" class="edge">
<title>Node1&#45;&gt;Node2</title>
<path fill="none" stroke="midnightblue" d="M1051.72,-96.36C870.51,-92.63 504.57,-80.58 197,-42 194.11,-41.64 191.18,-41.24 188.22,-40.82"/>
<polygon fill="midnightblue" stroke="midnightblue" points="1051.72,-99.86 1061.79,-96.56 1051.87,-92.86 1051.72,-99.86"/>
</g>
<!-- Node3 -->
<g id="node3" class="node">
<title>Node3</title>
<g id="a_node3"><a xlink:href="../../de/d67/ntv2ccplayer_8cpp.html" target="_top" xlink:title="Implementation of NTV2CCPlayer class.">
<polygon fill="white" stroke="black" points="206,-0.5 206,-41.5 410,-41.5 410,-0.5 206,-0.5"/>
<text text-anchor="start" x="214" y="-29.5" font-family="Helvetica,sans-Serif" font-size="10.00">/home/tcbuilder/buildAgent</text>
<text text-anchor="start" x="214" y="-18.5" font-family="Helvetica,sans-Serif" font-size="10.00">/work/df8e8cce5bebfd58/libajantv2</text>
<text text-anchor="middle" x="308" y="-7.5" font-family="Helvetica,sans-Serif" font-size="10.00">/demos/ntv2ccplayer/ntv2ccplayer.cpp</text>
</a>
</g>
</g>
<!-- Node1&#45;&gt;Node3 -->
<g id="edge2" class="edge">
<title>Node1&#45;&gt;Node3</title>
<path fill="none" stroke="midnightblue" d="M1051.44,-93.13C904.88,-86.01 642.17,-70.4 419,-42 416.09,-41.63 413.13,-41.23 410.15,-40.82"/>
<polygon fill="midnightblue" stroke="midnightblue" points="1051.63,-96.64 1061.79,-93.63 1051.97,-89.65 1051.63,-96.64"/>
</g>
<!-- Node4 -->
<g id="node4" class="node">
<title>Node4</title>
<g id="a_node4"><a xlink:href="../../dc/d41/ntv2democommon_8cpp.html" target="_top" xlink:title="Common implementation code used by many of the demo applications.">
<polygon fill="white" stroke="black" points="428,-0.5 428,-41.5 616,-41.5 616,-0.5 428,-0.5"/>
<text text-anchor="start" x="436" y="-29.5" font-family="Helvetica,sans-Serif" font-size="10.00">/home/tcbuilder/buildAgent</text>
<text text-anchor="start" x="436" y="-18.5" font-family="Helvetica,sans-Serif" font-size="10.00">/work/df8e8cce5bebfd58/libajantv2</text>
<text text-anchor="middle" x="522" y="-7.5" font-family="Helvetica,sans-Serif" font-size="10.00">/demos/ntv2democommon.cpp</text>
</a>
</g>
</g>
<!-- Node1&#45;&gt;Node4 -->
<g id="edge3" class="edge">
<title>Node1&#45;&gt;Node4</title>
<path fill="none" stroke="midnightblue" d="M1051.82,-89.19C942.3,-79.98 771.8,-63.82 625,-42 622.12,-41.57 619.19,-41.12 616.24,-40.65"/>
<polygon fill="midnightblue" stroke="midnightblue" points="1051.64,-92.69 1061.89,-90.04 1052.22,-85.72 1051.64,-92.69"/>
</g>
<!-- Node5 -->
<g id="node5" class="node">
<title>Node5</title>
<g id="a_node5"><a xlink:href="../../d5/d9e/ntv2dolbyplayer_8cpp.html" target="_top" xlink:title="Implementation of NTV2DolbyPlayer class.">
<polygon fill="white" stroke="black" points="634.5,-0.5 634.5,-41.5 871.5,-41.5 871.5,-0.5 634.5,-0.5"/>
<text text-anchor="start" x="642.5" y="-29.5" font-family="Helvetica,sans-Serif" font-size="10.00">/home/tcbuilder/buildAgent</text>
<text text-anchor="start" x="642.5" y="-18.5" font-family="Helvetica,sans-Serif" font-size="10.00">/work/df8e8cce5bebfd58/libajantv2</text>
<text text-anchor="middle" x="753" y="-7.5" font-family="Helvetica,sans-Serif" font-size="10.00">/demos/ntv2dolbyplayer/ntv2dolbyplayer.cpp</text>
</a>
</g>
</g>
<!-- Node1&#45;&gt;Node5 -->
<g id="edge4" class="edge">
<title>Node1&#45;&gt;Node5</title>
<path fill="none" stroke="midnightblue" d="M1051.89,-77.14C991.61,-66.02 917.9,-52.42 858.76,-41.51"/>
<polygon fill="midnightblue" stroke="midnightblue" points="1051.36,-80.6 1061.83,-78.97 1052.63,-73.71 1051.36,-80.6"/>
</g>
<!-- Node6 -->
<g id="node6" class="node">
<title>Node6</title>
<g id="a_node6"><a xlink:href="../../da/dbe/ntv2outputtestpattern_8cpp.html" target="_top" xlink:title="Implementation of NTV2OutputTestPattern demonstration class.">
<polygon fill="white" stroke="black" points="889.5,-0.5 889.5,-41.5 1182.5,-41.5 1182.5,-0.5 889.5,-0.5"/>
<text text-anchor="start" x="897.5" y="-29.5" font-family="Helvetica,sans-Serif" font-size="10.00">/home/tcbuilder/buildAgent</text>
<text text-anchor="start" x="897.5" y="-18.5" font-family="Helvetica,sans-Serif" font-size="10.00">/work/df8e8cce5bebfd58/libajantv2</text>
<text text-anchor="middle" x="1036" y="-7.5" font-family="Helvetica,sans-Serif" font-size="10.00">/demos/ntv2outputtestpattern/ntv2outputtestpattern.cpp</text>
</a>
</g>
</g>
<!-- Node1&#45;&gt;Node6 -->
<g id="edge5" class="edge">
<title>Node1&#45;&gt;Node6</title>
<path fill="none" stroke="midnightblue" d="M1122.91,-73.2C1105.45,-62.92 1085.49,-51.16 1069.11,-41.51"/>
<polygon fill="midnightblue" stroke="midnightblue" points="1121.39,-76.37 1131.78,-78.43 1124.94,-70.34 1121.39,-76.37"/>
</g>
<!-- Node7 -->
<g id="node7" class="node">
<title>Node7</title>
<g id="a_node7"><a xlink:href="../../d7/d6f/ntv2player_8cpp.html" target="_top" xlink:title="Implementation of NTV2Player class.">
<polygon fill="white" stroke="black" points="1201,-0.5 1201,-41.5 1389,-41.5 1389,-0.5 1201,-0.5"/>
<text text-anchor="start" x="1209" y="-29.5" font-family="Helvetica,sans-Serif" font-size="10.00">/home/tcbuilder/buildAgent</text>
<text text-anchor="start" x="1209" y="-18.5" font-family="Helvetica,sans-Serif" font-size="10.00">/work/df8e8cce5bebfd58/libajantv2</text>
<text text-anchor="middle" x="1295" y="-7.5" font-family="Helvetica,sans-Serif" font-size="10.00">/demos/ntv2player/ntv2player.cpp</text>
</a>
</g>
</g>
<!-- Node1&#45;&gt;Node7 -->
<g id="edge6" class="edge">
<title>Node1&#45;&gt;Node7</title>
<path fill="none" stroke="midnightblue" d="M1207.42,-73.2C1225.01,-62.92 1245.12,-51.16 1261.64,-41.51"/>
<polygon fill="midnightblue" stroke="midnightblue" points="1205.34,-70.36 1198.48,-78.43 1208.88,-76.4 1205.34,-70.36"/>
</g>
<!-- Node8 -->
<g id="node8" class="node">
<title>Node8</title>
<g id="a_node8"><a xlink:href="../../d2/d98/ntv2player4k_8cpp.html" target="_top" xlink:title="Implementation of ntv2player4k class.">
<polygon fill="white" stroke="black" points="1407,-0.5 1407,-41.5 1615,-41.5 1615,-0.5 1407,-0.5"/>
<text text-anchor="start" x="1415" y="-29.5" font-family="Helvetica,sans-Serif" font-size="10.00">/home/tcbuilder/buildAgent</text>
<text text-anchor="start" x="1415" y="-18.5" font-family="Helvetica,sans-Serif" font-size="10.00">/work/df8e8cce5bebfd58/libajantv2</text>
<text text-anchor="middle" x="1511" y="-7.5" font-family="Helvetica,sans-Serif" font-size="10.00">/demos/ntv2player4k/ntv2player4k.cpp</text>
</a>
</g>
</g>
<!-- Node1&#45;&gt;Node8 -->
<g id="edge7" class="edge">
<title>Node1&#45;&gt;Node8</title>
<path fill="none" stroke="midnightblue" d="M1263.94,-76.27C1313.81,-65.31 1373.82,-52.13 1422.2,-41.51"/>
<polygon fill="midnightblue" stroke="midnightblue" points="1263.12,-72.86 1254.1,-78.43 1264.62,-79.7 1263.12,-72.86"/>
</g>
<!-- Node9 -->
<g id="node9" class="node">
<title>Node9</title>
<g id="a_node9"><a xlink:href="../../db/d11/ntv2player8k_8cpp.html" target="_top" xlink:title="Implementation of ntv2player8k class.">
<polygon fill="white" stroke="black" points="1633,-0.5 1633,-41.5 1841,-41.5 1841,-0.5 1633,-0.5"/>
<text text-anchor="start" x="1641" y="-29.5" font-family="Helvetica,sans-Serif" font-size="10.00">/home/tcbuilder/buildAgent</text>
<text text-anchor="start" x="1641" y="-18.5" font-family="Helvetica,sans-Serif" font-size="10.00">/work/df8e8cce5bebfd58/libajantv2</text>
<text text-anchor="middle" x="1737" y="-7.5" font-family="Helvetica,sans-Serif" font-size="10.00">/demos/ntv2player8k/ntv2player8k.cpp</text>
</a>
</g>
</g>
<!-- Node1&#45;&gt;Node9 -->
<g id="edge8" class="edge">
<title>Node1&#45;&gt;Node9</title>
<path fill="none" stroke="midnightblue" d="M1278.21,-85.9C1371.25,-75.55 1506.41,-59.57 1624,-42 1626.96,-41.56 1629.95,-41.1 1632.98,-40.63"/>
<polygon fill="midnightblue" stroke="midnightblue" points="1277.77,-82.43 1268.21,-87.01 1278.54,-89.39 1277.77,-82.43"/>
</g>
<!-- Node10 -->
<g id="node10" class="node">
<title>Node10</title>
<g id="a_node10"><a xlink:href="../../d2/de1/ntv2streamplayer_8cpp.html" target="_top" xlink:title="Implementation of NTV2StreamPlayer class.">
<polygon fill="white" stroke="black" points="1859,-0.5 1859,-41.5 2111,-41.5 2111,-0.5 1859,-0.5"/>
<text text-anchor="start" x="1867" y="-29.5" font-family="Helvetica,sans-Serif" font-size="10.00">/home/tcbuilder/buildAgent</text>
<text text-anchor="start" x="1867" y="-18.5" font-family="Helvetica,sans-Serif" font-size="10.00">/work/df8e8cce5bebfd58/libajantv2</text>
<text text-anchor="middle" x="1985" y="-7.5" font-family="Helvetica,sans-Serif" font-size="10.00">/demos/ntv2streamplayer/ntv2streamplayer.cpp</text>
</a>
</g>
</g>
<!-- Node1&#45;&gt;Node10 -->
<g id="edge9" class="edge">
<title>Node1&#45;&gt;Node10</title>
<path fill="none" stroke="midnightblue" d="M1278.22,-91.02C1414.24,-82.12 1649.21,-65.06 1850,-42 1852.94,-41.66 1855.92,-41.31 1858.92,-40.94"/>
<polygon fill="midnightblue" stroke="midnightblue" points="1277.95,-87.53 1268.2,-91.68 1278.41,-94.52 1277.95,-87.53"/>
</g>
<!-- Node11 -->
<g id="node11" class="node">
<title>Node11</title>
<g id="a_node11"><a xlink:href="../../d5/d31/ntv2testpatterngen_8cpp.html" target="_top" xlink:title=" ">
<polygon fill="white" stroke="black" points="2129.5,-0.5 2129.5,-41.5 2320.5,-41.5 2320.5,-0.5 2129.5,-0.5"/>
<text text-anchor="start" x="2137.5" y="-29.5" font-family="Helvetica,sans-Serif" font-size="10.00">/home/tcbuilder/buildAgent</text>
<text text-anchor="start" x="2137.5" y="-18.5" font-family="Helvetica,sans-Serif" font-size="10.00">/work/df8e8cce5bebfd58/libajantv2</text>
<text text-anchor="middle" x="2225" y="-7.5" font-family="Helvetica,sans-Serif" font-size="10.00">/ajantv2/src/ntv2testpatterngen.cpp</text>
</a>
</g>
</g>
<!-- Node1&#45;&gt;Node11 -->
<g id="edge10" class="edge">
<title>Node1&#45;&gt;Node11</title>
<path fill="none" stroke="midnightblue" d="M1278.45,-96.1C1457.77,-92.03 1817.45,-79.52 2120,-42 2123.04,-41.62 2126.12,-41.21 2129.23,-40.77"/>
<polygon fill="midnightblue" stroke="midnightblue" points="1278.13,-92.61 1268.21,-96.33 1278.29,-99.6 1278.13,-92.61"/>
</g>
</g>
</svg>
