<?xml version="1.0" encoding="UTF-8" standalone="no"?>
<!DOCTYPE svg PUBLIC "-//W3C//DTD SVG 1.1//EN"
 "http://www.w3.org/Graphics/SVG/1.1/DTD/svg11.dtd">
<!-- Generated by graphviz version 2.43.0 (0)
 -->
<!-- Title: /home/tcbuilder/buildAgent/work/df8e8cce5bebfd58/libajantv2/ajabase/system/windows/lockimpl.cpp Pages: 1 -->
<svg width="833pt" height="285pt"
 viewBox="0.00 0.00 833.00 285.00" xmlns="http://www.w3.org/2000/svg" xmlns:xlink="http://www.w3.org/1999/xlink">
<g id="graph0" class="graph" transform="scale(1 1) rotate(0) translate(4 281)">
<title>/home/tcbuilder/buildAgent/work/df8e8cce5bebfd58/libajantv2/ajabase/system/windows/lockimpl.cpp</title>
<polygon fill="white" stroke="transparent" points="-4,4 -4,-281 829,-281 829,4 -4,4"/>
<!-- Node1 -->
<g id="node1" class="node">
<title>Node1</title>
<g id="a_node1"><a xlink:title="Implements the AJALockImpl class on the Windows platform.">
<polygon fill="#bfbfbf" stroke="black" points="299,-235.5 299,-276.5 507,-276.5 507,-235.5 299,-235.5"/>
<text text-anchor="start" x="307" y="-264.5" font-family="Helvetica,sans-Serif" font-size="10.00">/home/tcbuilder/buildAgent</text>
<text text-anchor="start" x="307" y="-253.5" font-family="Helvetica,sans-Serif" font-size="10.00">/work/df8e8cce5bebfd58/libajantv2</text>
<text text-anchor="middle" x="403" y="-242.5" font-family="Helvetica,sans-Serif" font-size="10.00">/ajabase/system/windows/lockimpl.cpp</text>
</a>
</g>
</g>
<!-- Node2 -->
<g id="node2" class="node">
<title>Node2</title>
<g id="a_node2"><a xlink:href="../../d3/da6/windows_2lockimpl_8h.html" target="_top" xlink:title="Declares the AJALockImpl class.">
<polygon fill="white" stroke="black" points="284,-168.5 284,-198.5 424,-198.5 424,-168.5 284,-168.5"/>
<text text-anchor="start" x="292" y="-186.5" font-family="Helvetica,sans-Serif" font-size="10.00">ajabase/system/windows</text>
<text text-anchor="middle" x="354" y="-175.5" font-family="Helvetica,sans-Serif" font-size="10.00">/lockimpl.h</text>
</a>
</g>
</g>
<!-- Node1&#45;&gt;Node2 -->
<g id="edge1" class="edge">
<title>Node1&#45;&gt;Node2</title>
<path fill="none" stroke="midnightblue" d="M389.35,-235.36C383.26,-226.59 376.04,-216.21 369.72,-207.12"/>
<polygon fill="midnightblue" stroke="midnightblue" points="372.58,-205.11 364,-198.89 366.84,-209.1 372.58,-205.11"/>
</g>
<!-- Node16 -->
<g id="node16" class="node">
<title>Node16</title>
<g id="a_node16"><a xlink:href="../../db/d16/debug_8h.html" target="_top" xlink:title="Declares the AJADebug class.">
<polygon fill="white" stroke="black" points="519,-112.5 519,-131.5 655,-131.5 655,-112.5 519,-112.5"/>
<text text-anchor="middle" x="587" y="-119.5" font-family="Helvetica,sans-Serif" font-size="10.00">ajabase/system/debug.h</text>
</a>
</g>
</g>
<!-- Node1&#45;&gt;Node16 -->
<g id="edge19" class="edge">
<title>Node1&#45;&gt;Node16</title>
<path fill="none" stroke="midnightblue" d="M430.55,-235.24C467.75,-208.55 533.22,-161.58 566.43,-137.76"/>
<polygon fill="midnightblue" stroke="midnightblue" points="568.81,-140.36 574.89,-131.69 564.73,-134.67 568.81,-140.36"/>
</g>
<!-- Node3 -->
<g id="node3" class="node">
<title>Node3</title>
<g id="a_node3"><a xlink:href="../../dc/db2/system_8h.html" target="_top" xlink:title="System specific functions.">
<polygon fill="white" stroke="black" points="234,-112.5 234,-131.5 376,-131.5 376,-112.5 234,-112.5"/>
<text text-anchor="middle" x="305" y="-119.5" font-family="Helvetica,sans-Serif" font-size="10.00">ajabase/system/system.h</text>
</a>
</g>
</g>
<!-- Node2&#45;&gt;Node3 -->
<g id="edge2" class="edge">
<title>Node2&#45;&gt;Node3</title>
<path fill="none" stroke="midnightblue" d="M342.39,-168.4C335.27,-159.75 326.12,-148.64 318.65,-139.58"/>
<polygon fill="midnightblue" stroke="midnightblue" points="321.19,-137.15 312.13,-131.66 315.79,-141.6 321.19,-137.15"/>
</g>
<!-- Node11 -->
<g id="node11" class="node">
<title>Node11</title>
<g id="a_node11"><a xlink:href="../../dc/d54/common_8h.html" target="_top" xlink:title="Private include file for all ajabase sources.">
<polygon fill="white" stroke="black" points="326.5,-56.5 326.5,-75.5 481.5,-75.5 481.5,-56.5 326.5,-56.5"/>
<text text-anchor="middle" x="404" y="-63.5" font-family="Helvetica,sans-Serif" font-size="10.00">ajabase/common/common.h</text>
</a>
</g>
</g>
<!-- Node2&#45;&gt;Node11 -->
<g id="edge10" class="edge">
<title>Node2&#45;&gt;Node11</title>
<path fill="none" stroke="midnightblue" d="M364.02,-168.47C370.69,-158.64 379.24,-144.98 385,-132 391.7,-116.89 396.78,-98.76 399.99,-85.5"/>
<polygon fill="midnightblue" stroke="midnightblue" points="403.42,-86.2 402.24,-75.67 396.59,-84.63 403.42,-86.2"/>
</g>
<!-- Node14 -->
<g id="node14" class="node">
<title>Node14</title>
<g id="a_node14"><a xlink:href="../../dd/d42/lock_8h.html" target="_top" xlink:title="Declares the AJALock class.">
<polygon fill="white" stroke="black" points="90,-112.5 90,-131.5 216,-131.5 216,-112.5 90,-112.5"/>
<text text-anchor="middle" x="153" y="-119.5" font-family="Helvetica,sans-Serif" font-size="10.00">ajabase/system/lock.h</text>
</a>
</g>
</g>
<!-- Node2&#45;&gt;Node14 -->
<g id="edge16" class="edge">
<title>Node2&#45;&gt;Node14</title>
<path fill="none" stroke="midnightblue" d="M306.62,-168.47C271.49,-158.08 224.21,-144.08 191.42,-134.37"/>
<polygon fill="midnightblue" stroke="midnightblue" points="192.32,-130.99 181.74,-131.51 190.33,-137.7 192.32,-130.99"/>
</g>
<!-- Node4 -->
<g id="node4" class="node">
<title>Node4</title>
<g id="a_node4"><a xlink:href="../../d4/d79/public_8h.html" target="_top" xlink:title="Master header for the ajabase library.">
<polygon fill="white" stroke="black" points="166,-56.5 166,-75.5 308,-75.5 308,-56.5 166,-56.5"/>
<text text-anchor="middle" x="237" y="-63.5" font-family="Helvetica,sans-Serif" font-size="10.00">ajabase/common/public.h</text>
</a>
</g>
</g>
<!-- Node3&#45;&gt;Node4 -->
<g id="edge3" class="edge">
<title>Node3&#45;&gt;Node4</title>
<path fill="none" stroke="midnightblue" d="M294.07,-112.32C283.83,-104.18 268.28,-91.84 256,-82.09"/>
<polygon fill="midnightblue" stroke="midnightblue" points="258.13,-79.31 248.12,-75.83 253.78,-84.79 258.13,-79.31"/>
</g>
<!-- Node5 -->
<g id="node5" class="node">
<title>Node5</title>
<g id="a_node5"><a xlink:href="../../db/db5/export_8h.html" target="_top" xlink:title="Declares system&#45;dependent import/export macros and libraries.">
<polygon fill="white" stroke="black" points="264,-0.5 264,-19.5 408,-19.5 408,-0.5 264,-0.5"/>
<text text-anchor="middle" x="336" y="-7.5" font-family="Helvetica,sans-Serif" font-size="10.00">ajabase/common/export.h</text>
</a>
</g>
</g>
<!-- Node4&#45;&gt;Node5 -->
<g id="edge4" class="edge">
<title>Node4&#45;&gt;Node5</title>
<path fill="none" stroke="midnightblue" d="M252.91,-56.32C268.64,-47.74 292.94,-34.49 311.21,-24.52"/>
<polygon fill="midnightblue" stroke="midnightblue" points="313.03,-27.52 320.13,-19.65 309.68,-21.37 313.03,-27.52"/>
</g>
<!-- Node6 -->
<g id="node6" class="node">
<title>Node6</title>
<g id="a_node6"><a xlink:title=" ">
<polygon fill="white" stroke="#bfbfbf" points="494,-0.5 494,-19.5 538,-19.5 538,-0.5 494,-0.5"/>
<text text-anchor="middle" x="516" y="-7.5" font-family="Helvetica,sans-Serif" font-size="10.00">string</text>
</a>
</g>
</g>
<!-- Node4&#45;&gt;Node6 -->
<g id="edge5" class="edge">
<title>Node4&#45;&gt;Node6</title>
<path fill="none" stroke="midnightblue" d="M293.48,-56.45C341.71,-48.77 413.06,-36.5 483.75,-20.11"/>
<polygon fill="midnightblue" stroke="midnightblue" points="484.79,-23.46 493.72,-17.77 483.19,-16.64 484.79,-23.46"/>
</g>
<!-- Node7 -->
<g id="node7" class="node">
<title>Node7</title>
<g id="a_node7"><a xlink:title=" ">
<polygon fill="white" stroke="#bfbfbf" points="0,-0.5 0,-19.5 32,-19.5 32,-0.5 0,-0.5"/>
<text text-anchor="middle" x="16" y="-7.5" font-family="Helvetica,sans-Serif" font-size="10.00">list</text>
</a>
</g>
</g>
<!-- Node4&#45;&gt;Node7 -->
<g id="edge6" class="edge">
<title>Node4&#45;&gt;Node7</title>
<path fill="none" stroke="midnightblue" d="M193.02,-56.48C155.22,-48.8 99.14,-36.58 41.97,-20.01"/>
<polygon fill="midnightblue" stroke="midnightblue" points="42.63,-16.56 32.04,-17.1 40.65,-23.27 42.63,-16.56"/>
</g>
<!-- Node8 -->
<g id="node8" class="node">
<title>Node8</title>
<g id="a_node8"><a xlink:title=" ">
<polygon fill="white" stroke="#bfbfbf" points="556.5,-0.5 556.5,-19.5 603.5,-19.5 603.5,-0.5 556.5,-0.5"/>
<text text-anchor="middle" x="580" y="-7.5" font-family="Helvetica,sans-Serif" font-size="10.00">vector</text>
</a>
</g>
</g>
<!-- Node4&#45;&gt;Node8 -->
<g id="edge7" class="edge">
<title>Node4&#45;&gt;Node8</title>
<path fill="none" stroke="midnightblue" d="M302.45,-56.46C374.83,-46.85 487.89,-31.33 546.37,-19.86"/>
<polygon fill="midnightblue" stroke="midnightblue" points="547.19,-23.26 556.29,-17.84 545.79,-16.4 547.19,-23.26"/>
</g>
<!-- Node9 -->
<g id="node9" class="node">
<title>Node9</title>
<g id="a_node9"><a xlink:title=" ">
<polygon fill="white" stroke="#bfbfbf" points="50,-0.5 50,-19.5 88,-19.5 88,-0.5 50,-0.5"/>
<text text-anchor="middle" x="69" y="-7.5" font-family="Helvetica,sans-Serif" font-size="10.00">map</text>
</a>
</g>
</g>
<!-- Node4&#45;&gt;Node9 -->
<g id="edge8" class="edge">
<title>Node4&#45;&gt;Node9</title>
<path fill="none" stroke="midnightblue" d="M210.38,-56.44C179.66,-46.57 129.32,-30.39 97.73,-20.23"/>
<polygon fill="midnightblue" stroke="midnightblue" points="98.77,-16.89 88.18,-17.16 96.63,-23.56 98.77,-16.89"/>
</g>
<!-- Node10 -->
<g id="node10" class="node">
<title>Node10</title>
<g id="a_node10"><a xlink:href="../../d9/d49/types_8h.html" target="_top" xlink:title="Declares common types used in the ajabase library.">
<polygon fill="white" stroke="black" points="106,-0.5 106,-19.5 246,-19.5 246,-0.5 106,-0.5"/>
<text text-anchor="middle" x="176" y="-7.5" font-family="Helvetica,sans-Serif" font-size="10.00">ajabase/common/types.h</text>
</a>
</g>
</g>
<!-- Node4&#45;&gt;Node10 -->
<g id="edge9" class="edge">
<title>Node4&#45;&gt;Node10</title>
<path fill="none" stroke="midnightblue" d="M227.2,-56.32C218.18,-48.34 204.59,-36.31 193.68,-26.65"/>
<polygon fill="midnightblue" stroke="midnightblue" points="195.79,-23.84 185.98,-19.83 191.15,-29.08 195.79,-23.84"/>
</g>
<!-- Node11&#45;&gt;Node5 -->
<g id="edge11" class="edge">
<title>Node11&#45;&gt;Node5</title>
<path fill="none" stroke="midnightblue" d="M393.07,-56.32C382.83,-48.18 367.28,-35.84 355,-26.09"/>
<polygon fill="midnightblue" stroke="midnightblue" points="357.13,-23.31 347.12,-19.83 352.78,-28.79 357.13,-23.31"/>
</g>
<!-- Node11&#45;&gt;Node6 -->
<g id="edge13" class="edge">
<title>Node11&#45;&gt;Node6</title>
<path fill="none" stroke="midnightblue" d="M421.99,-56.32C440.04,-47.62 468.05,-34.12 488.8,-24.11"/>
<polygon fill="midnightblue" stroke="midnightblue" points="490.56,-27.15 498.05,-19.65 487.52,-20.84 490.56,-27.15"/>
</g>
<!-- Node11&#45;&gt;Node8 -->
<g id="edge14" class="edge">
<title>Node11&#45;&gt;Node8</title>
<path fill="none" stroke="midnightblue" d="M431.89,-56.44C463.07,-46.88 513.55,-31.39 546.76,-21.2"/>
<polygon fill="midnightblue" stroke="midnightblue" points="547.93,-24.5 556.47,-18.22 545.88,-17.81 547.93,-24.5"/>
</g>
<!-- Node12 -->
<g id="node12" class="node">
<title>Node12</title>
<g id="a_node12"><a xlink:title=" ">
<polygon fill="white" stroke="#bfbfbf" points="793,-0.5 793,-19.5 825,-19.5 825,-0.5 793,-0.5"/>
<text text-anchor="middle" x="809" y="-7.5" font-family="Helvetica,sans-Serif" font-size="10.00">set</text>
</a>
</g>
</g>
<!-- Node11&#45;&gt;Node12 -->
<g id="edge12" class="edge">
<title>Node11&#45;&gt;Node12</title>
<path fill="none" stroke="midnightblue" d="M480.33,-56.49C552.33,-48.18 663.2,-34.68 759,-20 766.79,-18.81 775.24,-17.35 782.93,-15.96"/>
<polygon fill="midnightblue" stroke="midnightblue" points="783.62,-19.39 792.82,-14.13 782.35,-12.5 783.62,-19.39"/>
</g>
<!-- Node13 -->
<g id="node13" class="node">
<title>Node13</title>
<g id="a_node13"><a xlink:title=" ">
<polygon fill="white" stroke="#bfbfbf" points="426,-0.5 426,-19.5 476,-19.5 476,-0.5 426,-0.5"/>
<text text-anchor="middle" x="451" y="-7.5" font-family="Helvetica,sans-Serif" font-size="10.00">cstdint</text>
</a>
</g>
</g>
<!-- Node11&#45;&gt;Node13 -->
<g id="edge15" class="edge">
<title>Node11&#45;&gt;Node13</title>
<path fill="none" stroke="midnightblue" d="M411.76,-56.08C418.54,-48.3 428.54,-36.8 436.76,-27.37"/>
<polygon fill="midnightblue" stroke="midnightblue" points="439.46,-29.59 443.38,-19.75 434.18,-25 439.46,-29.59"/>
</g>
<!-- Node14&#45;&gt;Node4 -->
<g id="edge17" class="edge">
<title>Node14&#45;&gt;Node4</title>
<path fill="none" stroke="midnightblue" d="M166.5,-112.32C179.6,-103.9 199.71,-90.97 215.11,-81.07"/>
<polygon fill="midnightblue" stroke="midnightblue" points="217.02,-84.01 223.54,-75.65 213.23,-78.12 217.02,-84.01"/>
</g>
<!-- Node15 -->
<g id="node15" class="node">
<title>Node15</title>
<g id="a_node15"><a xlink:title=" ">
<polygon fill="white" stroke="#bfbfbf" points="92,-56.5 92,-75.5 148,-75.5 148,-56.5 92,-56.5"/>
<text text-anchor="middle" x="120" y="-63.5" font-family="Helvetica,sans-Serif" font-size="10.00">assert.h</text>
</a>
</g>
</g>
<!-- Node14&#45;&gt;Node15 -->
<g id="edge18" class="edge">
<title>Node14&#45;&gt;Node15</title>
<path fill="none" stroke="midnightblue" d="M147.55,-112.08C142.99,-104.61 136.33,-93.72 130.71,-84.52"/>
<polygon fill="midnightblue" stroke="midnightblue" points="133.55,-82.46 125.35,-75.75 127.58,-86.11 133.55,-82.46"/>
</g>
<!-- Node16&#45;&gt;Node4 -->
<g id="edge23" class="edge">
<title>Node16&#45;&gt;Node4</title>
<path fill="none" stroke="midnightblue" d="M531.54,-112.44C469.33,-102.85 368.52,-87.29 302.49,-77.1"/>
<polygon fill="midnightblue" stroke="midnightblue" points="302.62,-73.58 292.2,-75.52 301.55,-80.5 302.62,-73.58"/>
</g>
<!-- Node16&#45;&gt;Node12 -->
<g id="edge22" class="edge">
<title>Node16&#45;&gt;Node12</title>
<path fill="none" stroke="midnightblue" d="M655.04,-116.89C714.72,-111.7 795.02,-100.31 815,-76 825.65,-63.04 821.98,-43.33 816.98,-29.01"/>
<polygon fill="midnightblue" stroke="midnightblue" points="820.24,-27.72 813.3,-19.71 813.73,-30.3 820.24,-27.72"/>
</g>
<!-- Node17 -->
<g id="node17" class="node">
<title>Node17</title>
<g id="a_node17"><a xlink:title=" ">
<polygon fill="white" stroke="#bfbfbf" points="500,-56.5 500,-75.5 550,-75.5 550,-56.5 500,-56.5"/>
<text text-anchor="middle" x="525" y="-63.5" font-family="Helvetica,sans-Serif" font-size="10.00">stdio.h</text>
</a>
</g>
</g>
<!-- Node16&#45;&gt;Node17 -->
<g id="edge20" class="edge">
<title>Node16&#45;&gt;Node17</title>
<path fill="none" stroke="midnightblue" d="M577.04,-112.32C567.87,-104.34 554.06,-92.31 542.97,-82.65"/>
<polygon fill="midnightblue" stroke="midnightblue" points="544.98,-79.76 535.14,-75.83 540.38,-85.04 544.98,-79.76"/>
</g>
<!-- Node18 -->
<g id="node18" class="node">
<title>Node18</title>
<g id="a_node18"><a xlink:title=" ">
<polygon fill="white" stroke="#bfbfbf" points="750,-56.5 750,-75.5 806,-75.5 806,-56.5 750,-56.5"/>
<text text-anchor="middle" x="778" y="-63.5" font-family="Helvetica,sans-Serif" font-size="10.00">sstream</text>
</a>
</g>
</g>
<!-- Node16&#45;&gt;Node18 -->
<g id="edge21" class="edge">
<title>Node16&#45;&gt;Node18</title>
<path fill="none" stroke="midnightblue" d="M617.26,-112.44C650.53,-103.04 704.03,-87.91 740.07,-77.72"/>
<polygon fill="midnightblue" stroke="midnightblue" points="741.07,-81.08 749.75,-74.99 739.17,-74.34 741.07,-81.08"/>
</g>
<!-- Node19 -->
<g id="node19" class="node">
<title>Node19</title>
<g id="a_node19"><a xlink:href="../../d0/db4/debugshare_8h.html" target="_top" xlink:title="Declares the constants used for sharing debug messages. These structures are used to gather debug mes...">
<polygon fill="white" stroke="black" points="568.5,-56.5 568.5,-75.5 731.5,-75.5 731.5,-56.5 568.5,-56.5"/>
<text text-anchor="middle" x="650" y="-63.5" font-family="Helvetica,sans-Serif" font-size="10.00">ajabase/system/debugshare.h</text>
</a>
</g>
</g>
<!-- Node16&#45;&gt;Node19 -->
<g id="edge24" class="edge">
<title>Node16&#45;&gt;Node19</title>
<path fill="none" stroke="midnightblue" d="M597.12,-112.32C606.53,-104.26 620.74,-92.08 632.07,-82.37"/>
<polygon fill="midnightblue" stroke="midnightblue" points="634.38,-85 639.69,-75.83 629.82,-79.68 634.38,-85"/>
</g>
<!-- Node19&#45;&gt;Node5 -->
<g id="edge25" class="edge">
<title>Node19&#45;&gt;Node5</title>
<path fill="none" stroke="midnightblue" d="M600.25,-56.44C544.67,-46.89 454.74,-31.42 395.48,-21.23"/>
<polygon fill="midnightblue" stroke="midnightblue" points="395.97,-17.76 385.52,-19.52 394.78,-24.66 395.97,-17.76"/>
</g>
<!-- Node19&#45;&gt;Node6 -->
<g id="edge28" class="edge">
<title>Node19&#45;&gt;Node6</title>
<path fill="none" stroke="midnightblue" d="M628.77,-56.44C606.62,-47.52 571.68,-33.44 546.56,-23.32"/>
<polygon fill="midnightblue" stroke="midnightblue" points="547.72,-20.01 537.13,-19.52 545.1,-26.5 547.72,-20.01"/>
</g>
<!-- Node19&#45;&gt;Node8 -->
<g id="edge29" class="edge">
<title>Node19&#45;&gt;Node8</title>
<path fill="none" stroke="midnightblue" d="M638.75,-56.32C628.2,-48.18 612.2,-35.84 599.56,-26.09"/>
<polygon fill="midnightblue" stroke="midnightblue" points="601.51,-23.17 591.45,-19.83 597.23,-28.71 601.51,-23.17"/>
</g>
<!-- Node20 -->
<g id="node20" class="node">
<title>Node20</title>
<g id="a_node20"><a xlink:title=" ">
<polygon fill="white" stroke="#bfbfbf" points="622,-0.5 622,-19.5 678,-19.5 678,-0.5 622,-0.5"/>
<text text-anchor="middle" x="650" y="-7.5" font-family="Helvetica,sans-Serif" font-size="10.00">stddef.h</text>
</a>
</g>
</g>
<!-- Node19&#45;&gt;Node20 -->
<g id="edge26" class="edge">
<title>Node19&#45;&gt;Node20</title>
<path fill="none" stroke="midnightblue" d="M650,-56.08C650,-49.01 650,-38.86 650,-29.99"/>
<polygon fill="midnightblue" stroke="midnightblue" points="653.5,-29.75 650,-19.75 646.5,-29.75 653.5,-29.75"/>
</g>
<!-- Node21 -->
<g id="node21" class="node">
<title>Node21</title>
<g id="a_node21"><a xlink:title=" ">
<polygon fill="white" stroke="#bfbfbf" points="696.5,-0.5 696.5,-19.5 749.5,-19.5 749.5,-0.5 696.5,-0.5"/>
<text text-anchor="middle" x="723" y="-7.5" font-family="Helvetica,sans-Serif" font-size="10.00">stdint.h</text>
</a>
</g>
</g>
<!-- Node19&#45;&gt;Node21 -->
<g id="edge27" class="edge">
<title>Node19&#45;&gt;Node21</title>
<path fill="none" stroke="midnightblue" d="M661.73,-56.32C672.84,-48.11 689.74,-35.6 702.98,-25.81"/>
<polygon fill="midnightblue" stroke="midnightblue" points="705.1,-28.59 711.06,-19.83 700.94,-22.97 705.1,-28.59"/>
</g>
</g>
</svg>
