<?xml version="1.0" encoding="UTF-8" standalone="no"?>
<!DOCTYPE svg PUBLIC "-//W3C//DTD SVG 1.1//EN"
 "http://www.w3.org/Graphics/SVG/1.1/DTD/svg11.dtd">
<!-- Generated by graphviz version 2.40.1 (0)
 -->
<!-- Title: /home/tcbuilder/buildAgent/work/df8e8cce5bebfd58/libajantv2/ajabase/pnp/windows/pnpimpl.cpp Pages: 1 -->
<!--zoomable 341 -->
<svg id="main" version="1.1" xmlns="http://www.w3.org/2000/svg" xmlns:xlink="http://www.w3.org/1999/xlink" xml:space="preserve" onload="init(evt)">
<style type="text/css"><![CDATA[
.edge:hover path { stroke: red; }
.edge:hover polygon { stroke: red; fill: red; }
]]></style>
<script type="text/javascript"><![CDATA[
var edges = document.getElementsByTagName('g');
if (edges && edges.length) {
  for (var i=0;i<edges.length;i++) {
    if (edges[i].id.substr(0,4)=='edge') {
      edges[i].setAttribute('class','edge');
    }
  }
}
]]></script>
        <defs>
                <circle id="rim" cx="0" cy="0" r="7"/>
                <circle id="rim2" cx="0" cy="0" r="3.5"/>
                <g id="zoomPlus">
                        <use xlink:href="#rim" fill="#404040">
                                <set attributeName="fill" to="#808080" begin="zoomplus.mouseover" end="zoomplus.mouseout"/>
                        </use>
                        <path d="M-4,0h8M0,-4v8" fill="none" stroke="white" stroke-width="1.5" pointer-events="none"/>
                </g>
                <g id="zoomMin">
                        <use xlink:href="#rim" fill="#404040">
                                <set attributeName="fill" to="#808080" begin="zoomminus.mouseover" end="zoomminus.mouseout"/>
                        </use>
                        <path d="M-4,0h8" fill="none" stroke="white" stroke-width="1.5" pointer-events="none"/>
                </g>
                <g id="dirArrow">
                        <path fill="none" stroke="white" stroke-width="1.5" d="M0,-3.0v7 M-2.5,-0.5L0,-3.0L2.5,-0.5"/>
                </g>
               <g id="resetDef">
                       <use xlink:href="#rim2" fill="#404040">
                               <set attributeName="fill" to="#808080" begin="reset.mouseover" end="reset.mouseout"/>
                       </use>
               </g>
        </defs>

<script type="text/javascript">
var viewWidth = 648;
var viewHeight = 341;
var sectionId = 'dynsection-0';
</script>
<script xlink:href="../../svgpan.js"/>
<svg id="graph" class="graph">
<g id="viewport">
<title>/home/tcbuilder/buildAgent/work/df8e8cce5bebfd58/libajantv2/ajabase/pnp/windows/pnpimpl.cpp</title>
<polygon fill="#ffffff" stroke="transparent" points="-4,4 -4,-337 643.5,-337 643.5,4 -4,4"/>
<!-- Node0 -->
<g id="node1" class="node">
<title>Node0</title>
<polygon fill="#bfbfbf" stroke="#000000" points="235,-291.5 235,-332.5 404,-332.5 404,-291.5 235,-291.5"/>
<text text-anchor="start" x="243" y="-320.5" font-family="Helvetica,sans-Serif" font-size="10.00" fill="#000000">/home/tcbuilder/buildAgent</text>
<text text-anchor="start" x="243" y="-309.5" font-family="Helvetica,sans-Serif" font-size="10.00" fill="#000000">/work/df8e8cce5bebfd58/libajantv2</text>
<text text-anchor="middle" x="319.5" y="-298.5" font-family="Helvetica,sans-Serif" font-size="10.00" fill="#000000">/ajabase/pnp/windows/pnpimpl.cpp</text>
</g>
<!-- Node1 -->
<g id="node2" class="node">
<title>Node1</title>
<g id="a_node2"><a xlink:href="../../d4/d8f/windows_2pnpimpl_8h.html" target="_top" xlink:title="Declares the AJAPnpImpl class. ">
<polygon fill="#ffffff" stroke="#000000" points="117.5,-224.5 117.5,-254.5 227.5,-254.5 227.5,-224.5 117.5,-224.5"/>
<text text-anchor="start" x="125.5" y="-242.5" font-family="Helvetica,sans-Serif" font-size="10.00" fill="#000000">ajabase/pnp/windows</text>
<text text-anchor="middle" x="172.5" y="-231.5" font-family="Helvetica,sans-Serif" font-size="10.00" fill="#000000">/pnpimpl.h</text>
</a>
</g>
</g>
<!-- Node0&#45;&gt;Node1 -->
<g id="edge1" class="edge">
<title>Node0&#45;&gt;Node1</title>
<path fill="none" stroke="#191970" d="M277.7689,-291.4183C257.1585,-281.2533 232.4211,-269.0529 212.1065,-259.0338"/>
<polygon fill="#191970" stroke="#191970" points="213.6315,-255.8834 203.1147,-254.5991 210.5351,-262.1614 213.6315,-255.8834"/>
</g>
<!-- Node12 -->
<g id="node13" class="node">
<title>Node12</title>
<g id="a_node13"><a xlink:href="../../da/dbc/systemtime_8h.html" target="_top" xlink:title="Declares the AJATime class. ">
<polygon fill="#ffffff" stroke="#000000" points="245.5,-230 245.5,-249 393.5,-249 393.5,-230 245.5,-230"/>
<text text-anchor="middle" x="319.5" y="-237" font-family="Helvetica,sans-Serif" font-size="10.00" fill="#000000">ajabase/system/systemtime.h</text>
</a>
</g>
</g>
<!-- Node0&#45;&gt;Node12 -->
<g id="edge12" class="edge">
<title>Node0&#45;&gt;Node12</title>
<path fill="none" stroke="#191970" d="M319.5,-291.4183C319.5,-281.32 319.5,-269.213 319.5,-259.2314"/>
<polygon fill="#191970" stroke="#191970" points="323.0001,-259.0853 319.5,-249.0853 316.0001,-259.0854 323.0001,-259.0853"/>
</g>
<!-- Node13 -->
<g id="node14" class="node">
<title>Node13</title>
<g id="a_node14"><a xlink:href="../../db/d16/debug_8h.html" target="_top" xlink:title="Declares the AJADebug class. ">
<polygon fill="#ffffff" stroke="#000000" points="368,-168.5 368,-187.5 491,-187.5 491,-168.5 368,-168.5"/>
<text text-anchor="middle" x="429.5" y="-175.5" font-family="Helvetica,sans-Serif" font-size="10.00" fill="#000000">ajabase/system/debug.h</text>
</a>
</g>
</g>
<!-- Node0&#45;&gt;Node13 -->
<g id="edge14" class="edge">
<title>Node0&#45;&gt;Node13</title>
<path fill="none" stroke="#191970" d="M359.9965,-291.3813C375.0746,-282.0174 391.2401,-269.7156 402.5,-255 415.3696,-238.1806 422.416,-214.7458 426.0514,-198.1583"/>
<polygon fill="#191970" stroke="#191970" points="429.5665,-198.4201 428.0529,-187.934 422.6969,-197.0753 429.5665,-198.4201"/>
</g>
<!-- Node2 -->
<g id="node3" class="node">
<title>Node2</title>
<polygon fill="#ffffff" stroke="#bfbfbf" points="96,-168.5 96,-187.5 161,-187.5 161,-168.5 96,-168.5"/>
<text text-anchor="middle" x="128.5" y="-175.5" font-family="Helvetica,sans-Serif" font-size="10.00" fill="#000000">Windows.h</text>
</g>
<!-- Node1&#45;&gt;Node2 -->
<g id="edge2" class="edge">
<title>Node1&#45;&gt;Node2</title>
<path fill="none" stroke="#191970" d="M161.6236,-224.2977C155.5159,-215.7609 147.8561,-205.0545 141.4412,-196.0883"/>
<polygon fill="#191970" stroke="#191970" points="144.2101,-193.9433 135.545,-187.8469 138.5171,-198.0163 144.2101,-193.9433"/>
</g>
<!-- Node3 -->
<g id="node4" class="node">
<title>Node3</title>
<g id="a_node4"><a xlink:href="../../d5/d02/pnp_8h.html" target="_top" xlink:title="Declares the AJAPnp (plug&#45;and&#45;play) class. ">
<polygon fill="#ffffff" stroke="#000000" points="179.5,-168.5 179.5,-187.5 275.5,-187.5 275.5,-168.5 179.5,-168.5"/>
<text text-anchor="middle" x="227.5" y="-175.5" font-family="Helvetica,sans-Serif" font-size="10.00" fill="#000000">ajabase/pnp/pnp.h</text>
</a>
</g>
</g>
<!-- Node1&#45;&gt;Node3 -->
<g id="edge3" class="edge">
<title>Node1&#45;&gt;Node3</title>
<path fill="none" stroke="#191970" d="M186.0955,-224.2977C193.8891,-215.5831 203.7047,-204.6075 211.8226,-195.5302"/>
<polygon fill="#191970" stroke="#191970" points="214.6365,-197.6341 218.6938,-187.8469 209.4187,-192.9678 214.6365,-197.6341"/>
</g>
<!-- Node4 -->
<g id="node5" class="node">
<title>Node4</title>
<g id="a_node5"><a xlink:href="../../d4/d79/public_8h.html" target="_top" xlink:title="Master header for the ajabase library. ">
<polygon fill="#ffffff" stroke="#000000" points="163.5,-112.5 163.5,-131.5 291.5,-131.5 291.5,-112.5 163.5,-112.5"/>
<text text-anchor="middle" x="227.5" y="-119.5" font-family="Helvetica,sans-Serif" font-size="10.00" fill="#000000">ajabase/common/public.h</text>
</a>
</g>
</g>
<!-- Node3&#45;&gt;Node4 -->
<g id="edge4" class="edge">
<title>Node3&#45;&gt;Node4</title>
<path fill="none" stroke="#191970" d="M227.5,-168.2455C227.5,-160.9382 227.5,-150.6944 227.5,-141.7046"/>
<polygon fill="#191970" stroke="#191970" points="231.0001,-141.6426 227.5,-131.6427 224.0001,-141.6427 231.0001,-141.6426"/>
</g>
<!-- Node5 -->
<g id="node6" class="node">
<title>Node5</title>
<g id="a_node6"><a xlink:href="../../db/db5/export_8h.html" target="_top" xlink:title="Declares system&#45;dependent import/export macros and libraries. ">
<polygon fill="#ffffff" stroke="#000000" points="367,-56.5 367,-75.5 496,-75.5 496,-56.5 367,-56.5"/>
<text text-anchor="middle" x="431.5" y="-63.5" font-family="Helvetica,sans-Serif" font-size="10.00" fill="#000000">ajabase/common/export.h</text>
</a>
</g>
</g>
<!-- Node4&#45;&gt;Node5 -->
<g id="edge5" class="edge">
<title>Node4&#45;&gt;Node5</title>
<path fill="none" stroke="#191970" d="M262.5689,-112.3733C296.9315,-102.9404 349.4392,-88.5265 386.7851,-78.2747"/>
<polygon fill="#191970" stroke="#191970" points="388.172,-81.5235 396.8888,-75.5011 386.319,-74.7732 388.172,-81.5235"/>
</g>
<!-- Node6 -->
<g id="node7" class="node">
<title>Node6</title>
<polygon fill="#ffffff" stroke="#bfbfbf" points="245,-56.5 245,-75.5 286,-75.5 286,-56.5 245,-56.5"/>
<text text-anchor="middle" x="265.5" y="-63.5" font-family="Helvetica,sans-Serif" font-size="10.00" fill="#000000">string</text>
</g>
<!-- Node4&#45;&gt;Node6 -->
<g id="edge6" class="edge">
<title>Node4&#45;&gt;Node6</title>
<path fill="none" stroke="#191970" d="M234.1191,-112.2455C239.4046,-104.4564 246.9541,-93.3308 253.3238,-83.9439"/>
<polygon fill="#191970" stroke="#191970" points="256.2379,-85.8827 258.9568,-75.6427 250.4455,-81.9522 256.2379,-85.8827"/>
</g>
<!-- Node7 -->
<g id="node8" class="node">
<title>Node7</title>
<polygon fill="#ffffff" stroke="#bfbfbf" points="198,-56.5 198,-75.5 227,-75.5 227,-56.5 198,-56.5"/>
<text text-anchor="middle" x="212.5" y="-63.5" font-family="Helvetica,sans-Serif" font-size="10.00" fill="#000000">list</text>
</g>
<!-- Node4&#45;&gt;Node7 -->
<g id="edge7" class="edge">
<title>Node4&#45;&gt;Node7</title>
<path fill="none" stroke="#191970" d="M224.8872,-112.2455C222.9084,-104.8579 220.1256,-94.4689 217.6988,-85.4087"/>
<polygon fill="#191970" stroke="#191970" points="221.0511,-84.3966 215.0829,-75.6427 214.2895,-86.2078 221.0511,-84.3966"/>
</g>
<!-- Node8 -->
<g id="node9" class="node">
<title>Node8</title>
<polygon fill="#ffffff" stroke="#bfbfbf" points="304.5,-56.5 304.5,-75.5 348.5,-75.5 348.5,-56.5 304.5,-56.5"/>
<text text-anchor="middle" x="326.5" y="-63.5" font-family="Helvetica,sans-Serif" font-size="10.00" fill="#000000">vector</text>
</g>
<!-- Node4&#45;&gt;Node8 -->
<g id="edge8" class="edge">
<title>Node4&#45;&gt;Node8</title>
<path fill="none" stroke="#191970" d="M244.7445,-112.2455C260.0761,-103.5731 282.7199,-90.7645 300.2916,-80.825"/>
<polygon fill="#191970" stroke="#191970" points="302.4724,-83.6126 309.4531,-75.6427 299.0259,-77.5198 302.4724,-83.6126"/>
</g>
<!-- Node9 -->
<g id="node10" class="node">
<title>Node9</title>
<polygon fill="#ffffff" stroke="#bfbfbf" points="0,-56.5 0,-75.5 35,-75.5 35,-56.5 0,-56.5"/>
<text text-anchor="middle" x="17.5" y="-63.5" font-family="Helvetica,sans-Serif" font-size="10.00" fill="#000000">map</text>
</g>
<!-- Node4&#45;&gt;Node9 -->
<g id="edge9" class="edge">
<title>Node4&#45;&gt;Node9</title>
<path fill="none" stroke="#191970" d="M183.8717,-112.437C148.6761,-104.408 97.7638,-92.0877 44.7025,-75.8136"/>
<polygon fill="#191970" stroke="#191970" points="45.7127,-72.4625 35.1246,-72.8396 43.6369,-79.1477 45.7127,-72.4625"/>
</g>
<!-- Node10 -->
<g id="node11" class="node">
<title>Node10</title>
<g id="a_node11"><a xlink:href="../../d9/d49/types_8h.html" target="_top" xlink:title="Declares common types used in the ajabase library. ">
<polygon fill="#ffffff" stroke="#000000" points="53.5,-56.5 53.5,-75.5 179.5,-75.5 179.5,-56.5 53.5,-56.5"/>
<text text-anchor="middle" x="116.5" y="-63.5" font-family="Helvetica,sans-Serif" font-size="10.00" fill="#000000">ajabase/common/types.h</text>
</a>
</g>
</g>
<!-- Node4&#45;&gt;Node10 -->
<g id="edge10" class="edge">
<title>Node4&#45;&gt;Node10</title>
<path fill="none" stroke="#191970" d="M208.4184,-112.3733C190.7598,-103.4644 164.2947,-90.1127 144.2902,-80.0203"/>
<polygon fill="#191970" stroke="#191970" points="145.8372,-76.8806 135.3326,-75.5011 142.6842,-83.1303 145.8372,-76.8806"/>
</g>
<!-- Node11 -->
<g id="node12" class="node">
<title>Node11</title>
<g id="a_node12"><a xlink:href="../../db/d40/ntv2deprecate_8h.html" target="_top" xlink:title="Deprecation control macros. ">
<polygon fill="#ffffff" stroke="#000000" points="73.5,-.5 73.5,-19.5 159.5,-19.5 159.5,-.5 73.5,-.5"/>
<text text-anchor="middle" x="116.5" y="-7.5" font-family="Helvetica,sans-Serif" font-size="10.00" fill="#000000">ntv2deprecate.h</text>
</a>
</g>
</g>
<!-- Node10&#45;&gt;Node11 -->
<g id="edge11" class="edge">
<title>Node10&#45;&gt;Node11</title>
<path fill="none" stroke="#191970" d="M116.5,-56.2455C116.5,-48.9382 116.5,-38.6944 116.5,-29.7046"/>
<polygon fill="#191970" stroke="#191970" points="120.0001,-29.6426 116.5,-19.6427 113.0001,-29.6427 120.0001,-29.6426"/>
</g>
<!-- Node12&#45;&gt;Node4 -->
<g id="edge13" class="edge">
<title>Node12&#45;&gt;Node4</title>
<path fill="none" stroke="#191970" d="M316.35,-229.9594C311.2603,-215.5049 300.189,-187.661 284.5,-168 275.1748,-156.314 262.3926,-145.6595 251.2956,-137.5539"/>
<polygon fill="#191970" stroke="#191970" points="253.0511,-134.51 242.8555,-131.6288 249.029,-140.2391 253.0511,-134.51"/>
</g>
<!-- Node13&#45;&gt;Node4 -->
<g id="edge18" class="edge">
<title>Node13&#45;&gt;Node4</title>
<path fill="none" stroke="#191970" d="M394.775,-168.3733C360.7492,-158.9404 308.7563,-144.5265 271.7766,-134.2747"/>
<polygon fill="#191970" stroke="#191970" points="272.3435,-130.7999 261.7719,-131.5011 270.4734,-137.5455 272.3435,-130.7999"/>
</g>
<!-- Node14 -->
<g id="node15" class="node">
<title>Node14</title>
<polygon fill="#ffffff" stroke="#bfbfbf" points="523.5,-112.5 523.5,-131.5 569.5,-131.5 569.5,-112.5 523.5,-112.5"/>
<text text-anchor="middle" x="546.5" y="-119.5" font-family="Helvetica,sans-Serif" font-size="10.00" fill="#000000">stdio.h</text>
</g>
<!-- Node13&#45;&gt;Node14 -->
<g id="edge15" class="edge">
<title>Node13&#45;&gt;Node14</title>
<path fill="none" stroke="#191970" d="M449.613,-168.3733C468.3103,-159.4241 496.3744,-145.9917 517.4934,-135.8835"/>
<polygon fill="#191970" stroke="#191970" points="519.1405,-138.9755 526.6494,-131.5011 516.1183,-132.6614 519.1405,-138.9755"/>
</g>
<!-- Node15 -->
<g id="node16" class="node">
<title>Node15</title>
<polygon fill="#ffffff" stroke="#bfbfbf" points="587.5,-112.5 587.5,-131.5 639.5,-131.5 639.5,-112.5 587.5,-112.5"/>
<text text-anchor="middle" x="613.5" y="-119.5" font-family="Helvetica,sans-Serif" font-size="10.00" fill="#000000">sstream</text>
</g>
<!-- Node13&#45;&gt;Node15 -->
<g id="edge16" class="edge">
<title>Node13&#45;&gt;Node15</title>
<path fill="none" stroke="#191970" d="M461.1307,-168.3733C493.4426,-158.5392 543.5422,-143.2915 577.3899,-132.99"/>
<polygon fill="#191970" stroke="#191970" points="578.7873,-136.2233 587.335,-129.9633 576.7491,-129.5266 578.7873,-136.2233"/>
</g>
<!-- Node16 -->
<g id="node17" class="node">
<title>Node16</title>
<polygon fill="#ffffff" stroke="#bfbfbf" points="309.5,-112.5 309.5,-131.5 339.5,-131.5 339.5,-112.5 309.5,-112.5"/>
<text text-anchor="middle" x="324.5" y="-119.5" font-family="Helvetica,sans-Serif" font-size="10.00" fill="#000000">set</text>
</g>
<!-- Node13&#45;&gt;Node16 -->
<g id="edge17" class="edge">
<title>Node13&#45;&gt;Node16</title>
<path fill="none" stroke="#191970" d="M411.2104,-168.2455C393.819,-158.9701 367.5563,-144.9634 348.4919,-134.7957"/>
<polygon fill="#191970" stroke="#191970" points="349.9936,-131.63 339.523,-130.0123 346.6995,-137.8064 349.9936,-131.63"/>
</g>
<!-- Node17 -->
<g id="node18" class="node">
<title>Node17</title>
<g id="a_node18"><a xlink:href="../../d0/db4/debugshare_8h.html" target="_top" xlink:title="Declares the constants used for sharing debug messages. These structures are used to gather debug mes...">
<polygon fill="#ffffff" stroke="#000000" points="358,-112.5 358,-131.5 505,-131.5 505,-112.5 358,-112.5"/>
<text text-anchor="middle" x="431.5" y="-119.5" font-family="Helvetica,sans-Serif" font-size="10.00" fill="#000000">ajabase/system/debugshare.h</text>
</a>
</g>
</g>
<!-- Node13&#45;&gt;Node17 -->
<g id="edge19" class="edge">
<title>Node13&#45;&gt;Node17</title>
<path fill="none" stroke="#191970" d="M429.8484,-168.2455C430.1093,-160.9382 430.4752,-150.6944 430.7963,-141.7046"/>
<polygon fill="#191970" stroke="#191970" points="434.2964,-141.7613 431.1556,-131.6427 427.3008,-141.5113 434.2964,-141.7613"/>
</g>
<!-- Node17&#45;&gt;Node5 -->
<g id="edge20" class="edge">
<title>Node17&#45;&gt;Node5</title>
<path fill="none" stroke="#191970" d="M431.5,-112.2455C431.5,-104.9382 431.5,-94.6944 431.5,-85.7046"/>
<polygon fill="#191970" stroke="#191970" points="435.0001,-85.6426 431.5,-75.6427 428.0001,-85.6427 435.0001,-85.6426"/>
</g>
<!-- Node17&#45;&gt;Node6 -->
<g id="edge23" class="edge">
<title>Node17&#45;&gt;Node6</title>
<path fill="none" stroke="#191970" d="M402.9636,-112.3733C373.1478,-102.3149 326.5441,-86.5932 296.0115,-76.293"/>
<polygon fill="#191970" stroke="#191970" points="296.9147,-72.904 286.3205,-73.0238 294.6771,-79.5367 296.9147,-72.904"/>
</g>
<!-- Node17&#45;&gt;Node8 -->
<g id="edge24" class="edge">
<title>Node17&#45;&gt;Node8</title>
<path fill="none" stroke="#191970" d="M413.2104,-112.2455C396.7238,-103.4527 372.2648,-90.4079 353.5235,-80.4125"/>
<polygon fill="#191970" stroke="#191970" points="355.0506,-77.2604 344.58,-75.6427 351.7565,-83.4368 355.0506,-77.2604"/>
</g>
<!-- Node18 -->
<g id="node19" class="node">
<title>Node18</title>
<polygon fill="#ffffff" stroke="#bfbfbf" points="514.5,-56.5 514.5,-75.5 566.5,-75.5 566.5,-56.5 514.5,-56.5"/>
<text text-anchor="middle" x="540.5" y="-63.5" font-family="Helvetica,sans-Serif" font-size="10.00" fill="#000000">stddef.h</text>
</g>
<!-- Node17&#45;&gt;Node18 -->
<g id="edge21" class="edge">
<title>Node17&#45;&gt;Node18</title>
<path fill="none" stroke="#191970" d="M450.4864,-112.2455C467.6792,-103.4125 493.2238,-90.2887 512.7132,-80.2758"/>
<polygon fill="#191970" stroke="#191970" points="514.4359,-83.3257 521.7312,-75.6427 511.237,-77.0993 514.4359,-83.3257"/>
</g>
<!-- Node19 -->
<g id="node20" class="node">
<title>Node19</title>
<polygon fill="#ffffff" stroke="#bfbfbf" points="585,-56.5 585,-75.5 634,-75.5 634,-56.5 585,-56.5"/>
<text text-anchor="middle" x="609.5" y="-63.5" font-family="Helvetica,sans-Serif" font-size="10.00" fill="#000000">stdint.h</text>
</g>
<!-- Node17&#45;&gt;Node19 -->
<g id="edge22" class="edge">
<title>Node17&#45;&gt;Node19</title>
<path fill="none" stroke="#191970" d="M462.0993,-112.3733C493.5377,-102.4825 542.3827,-87.1156 575.1321,-76.8124"/>
<polygon fill="#191970" stroke="#191970" points="576.2531,-80.1289 584.7418,-73.7891 574.1524,-73.4515 576.2531,-80.1289"/>
</g>
</g>
</svg>
        <g id="navigator" transform="translate(0 0)" fill="#404254">
                <rect fill="#f2f5e9" fill-opacity="0.5" stroke="#606060" stroke-width=".5" x="0" y="0" width="60" height="60"/>
                <use id="zoomplus" xlink:href="#zoomPlus" x="17" y="9" onmousedown="handleZoom(evt,'in')"/>
                <use id="zoomminus" xlink:href="#zoomMin" x="42" y="9" onmousedown="handleZoom(evt,'out')"/>
                <use id="reset" xlink:href="#resetDef" x="30" y="36" onmousedown="handleReset()"/>
                <g id="arrowUp" xlink:href="#dirArrow" transform="translate(30 24)" onmousedown="handlePan(0,-1)">
                  <use xlink:href="#rim" fill="#404040">
                        <set attributeName="fill" to="#808080" begin="arrowUp.mouseover" end="arrowUp.mouseout"/>
                  </use>
                  <path fill="none" stroke="white" stroke-width="1.5" d="M0,-3.0v7 M-2.5,-0.5L0,-3.0L2.5,-0.5"/>
                </g>
                <g id="arrowRight" xlink:href="#dirArrow" transform="rotate(90) translate(36 -43)" onmousedown="handlePan(1,0)">
                  <use xlink:href="#rim" fill="#404040">
                        <set attributeName="fill" to="#808080" begin="arrowRight.mouseover" end="arrowRight.mouseout"/>
                  </use>
                  <path fill="none" stroke="white" stroke-width="1.5" d="M0,-3.0v7 M-2.5,-0.5L0,-3.0L2.5,-0.5"/>
                </g>
                <g id="arrowDown" xlink:href="#dirArrow" transform="rotate(180) translate(-30 -48)" onmousedown="handlePan(0,1)">
                  <use xlink:href="#rim" fill="#404040">
                        <set attributeName="fill" to="#808080" begin="arrowDown.mouseover" end="arrowDown.mouseout"/>
                  </use>
                  <path fill="none" stroke="white" stroke-width="1.5" d="M0,-3.0v7 M-2.5,-0.5L0,-3.0L2.5,-0.5"/>
                </g>
                <g id="arrowLeft" xlink:href="#dirArrow" transform="rotate(270) translate(-36 17)" onmousedown="handlePan(-1,0)">
                  <use xlink:href="#rim" fill="#404040">
                        <set attributeName="fill" to="#808080" begin="arrowLeft.mouseover" end="arrowLeft.mouseout"/>
                  </use>
                  <path fill="none" stroke="white" stroke-width="1.5" d="M0,-3.0v7 M-2.5,-0.5L0,-3.0L2.5,-0.5"/>
                </g>
        </g>
        <svg viewBox="0 0 15 15" width="100%" height="30px" preserveAspectRatio="xMaxYMin meet">
         <g id="arrow_out" transform="scale(0.3 0.3)">
          <a xlink:href="windows_2pnpimpl_8cpp__incl_org.svg" target="_base">
           <rect id="button" ry="5" rx="5" y="6" x="6" height="38" width="38"
                fill="#f2f5e9" fill-opacity="0.5" stroke="#606060" stroke-width="1.0"/>
           <path id="arrow"
             d="M 11.500037,31.436501 C 11.940474,20.09759 22.043105,11.32322 32.158766,21.979434 L 37.068811,17.246167 C 37.068811,17.246167 37.088388,32 37.088388,32 L 22.160133,31.978069 C 22.160133,31.978069 26.997745,27.140456 26.997745,27.140456 C 18.528582,18.264221 13.291696,25.230495 11.500037,31.436501 z"
             style="fill:#404040;"/>
          </a>
         </g>
        </svg>
</svg>
