<?xml version="1.0" encoding="UTF-8" standalone="no"?>
<!DOCTYPE svg PUBLIC "-//W3C//DTD SVG 1.1//EN"
 "http://www.w3.org/Graphics/SVG/1.1/DTD/svg11.dtd">
<!-- Generated by graphviz version 2.43.0 (0)
 -->
<!-- Title: /home/tcbuilder/buildAgent/work/df8e8cce5bebfd58/libajantv2/ajabase/common/timer.h Pages: 1 -->
<svg width="1522pt" height="206pt"
 viewBox="0.00 0.00 1522.00 206.00" xmlns="http://www.w3.org/2000/svg" xmlns:xlink="http://www.w3.org/1999/xlink">
<g id="graph0" class="graph" transform="scale(1 1) rotate(0) translate(4 202)">
<title>/home/tcbuilder/buildAgent/work/df8e8cce5bebfd58/libajantv2/ajabase/common/timer.h</title>
<polygon fill="white" stroke="transparent" points="-4,4 -4,-202 1518,-202 1518,4 -4,4"/>
<!-- Node1 -->
<g id="node1" class="node">
<title>Node1</title>
<g id="a_node1"><a xlink:title="Declares the AJATimer class.">
<polygon fill="#bfbfbf" stroke="black" points="637.5,-156.5 637.5,-197.5 825.5,-197.5 825.5,-156.5 637.5,-156.5"/>
<text text-anchor="start" x="645.5" y="-185.5" font-family="Helvetica,sans-Serif" font-size="10.00">/home/tcbuilder/buildAgent</text>
<text text-anchor="start" x="645.5" y="-174.5" font-family="Helvetica,sans-Serif" font-size="10.00">/work/df8e8cce5bebfd58/libajantv2</text>
<text text-anchor="middle" x="731.5" y="-163.5" font-family="Helvetica,sans-Serif" font-size="10.00">/ajabase/common/timer.h</text>
</a>
</g>
</g>
<!-- Node2 -->
<g id="node2" class="node">
<title>Node2</title>
<g id="a_node2"><a xlink:href="../../d1/d3d/performance_8h.html" target="_top" xlink:title="Declaration of the AJAPerformance class.">
<polygon fill="white" stroke="black" points="0.5,-78.5 0.5,-119.5 188.5,-119.5 188.5,-78.5 0.5,-78.5"/>
<text text-anchor="start" x="8.5" y="-107.5" font-family="Helvetica,sans-Serif" font-size="10.00">/home/tcbuilder/buildAgent</text>
<text text-anchor="start" x="8.5" y="-96.5" font-family="Helvetica,sans-Serif" font-size="10.00">/work/df8e8cce5bebfd58/libajantv2</text>
<text text-anchor="middle" x="94.5" y="-85.5" font-family="Helvetica,sans-Serif" font-size="10.00">/ajabase/common/performance.h</text>
</a>
</g>
</g>
<!-- Node1&#45;&gt;Node2 -->
<g id="edge1" class="edge">
<title>Node1&#45;&gt;Node2</title>
<path fill="none" stroke="midnightblue" d="M626.9,-167.75C518.99,-158.6 345.99,-142.16 197.5,-120 194.62,-119.57 191.69,-119.12 188.74,-118.64"/>
<polygon fill="midnightblue" stroke="midnightblue" points="626.88,-171.26 637.14,-168.61 627.46,-164.28 626.88,-171.26"/>
</g>
<!-- Node4 -->
<g id="node4" class="node">
<title>Node4</title>
<g id="a_node4"><a xlink:href="../../dc/de5/timer_8cpp.html" target="_top" xlink:title="Implements the AJATimer class.">
<polygon fill="white" stroke="black" points="206.5,-78.5 206.5,-119.5 394.5,-119.5 394.5,-78.5 206.5,-78.5"/>
<text text-anchor="start" x="214.5" y="-107.5" font-family="Helvetica,sans-Serif" font-size="10.00">/home/tcbuilder/buildAgent</text>
<text text-anchor="start" x="214.5" y="-96.5" font-family="Helvetica,sans-Serif" font-size="10.00">/work/df8e8cce5bebfd58/libajantv2</text>
<text text-anchor="middle" x="300.5" y="-85.5" font-family="Helvetica,sans-Serif" font-size="10.00">/ajabase/common/timer.cpp</text>
</a>
</g>
</g>
<!-- Node1&#45;&gt;Node4 -->
<g id="edge3" class="edge">
<title>Node1&#45;&gt;Node4</title>
<path fill="none" stroke="midnightblue" d="M627.2,-158.81C562.69,-148.03 478.21,-133.63 403.5,-120 400.54,-119.46 397.54,-118.91 394.51,-118.35"/>
<polygon fill="midnightblue" stroke="midnightblue" points="626.94,-162.32 637.38,-160.51 628.09,-155.41 626.94,-162.32"/>
</g>
<!-- Node5 -->
<g id="node5" class="node">
<title>Node5</title>
<g id="a_node5"><a xlink:href="../../d6/d04/bm_2processimpl_8cpp.html" target="_top" xlink:title=" ">
<polygon fill="white" stroke="black" points="412.5,-78.5 412.5,-119.5 610.5,-119.5 610.5,-78.5 412.5,-78.5"/>
<text text-anchor="start" x="420.5" y="-107.5" font-family="Helvetica,sans-Serif" font-size="10.00">/home/tcbuilder/buildAgent</text>
<text text-anchor="start" x="420.5" y="-96.5" font-family="Helvetica,sans-Serif" font-size="10.00">/work/df8e8cce5bebfd58/libajantv2</text>
<text text-anchor="middle" x="511.5" y="-85.5" font-family="Helvetica,sans-Serif" font-size="10.00">/ajabase/system/bm/processimpl.cpp</text>
</a>
</g>
</g>
<!-- Node1&#45;&gt;Node5 -->
<g id="edge4" class="edge">
<title>Node1&#45;&gt;Node5</title>
<path fill="none" stroke="midnightblue" d="M665,-153.03C634.03,-142.33 597.57,-129.73 567.96,-119.51"/>
<polygon fill="midnightblue" stroke="midnightblue" points="664.25,-156.47 674.84,-156.43 666.54,-149.85 664.25,-156.47"/>
</g>
<!-- Node6 -->
<g id="node6" class="node">
<title>Node6</title>
<g id="a_node6"><a xlink:href="../../de/d3a/linux_2processimpl_8cpp.html" target="_top" xlink:title="Implements the AJAProcessImpl class on the Linux platform.">
<polygon fill="white" stroke="black" points="628.5,-78.5 628.5,-119.5 834.5,-119.5 834.5,-78.5 628.5,-78.5"/>
<text text-anchor="start" x="636.5" y="-107.5" font-family="Helvetica,sans-Serif" font-size="10.00">/home/tcbuilder/buildAgent</text>
<text text-anchor="start" x="636.5" y="-96.5" font-family="Helvetica,sans-Serif" font-size="10.00">/work/df8e8cce5bebfd58/libajantv2</text>
<text text-anchor="middle" x="731.5" y="-85.5" font-family="Helvetica,sans-Serif" font-size="10.00">/ajabase/system/linux/processimpl.cpp</text>
</a>
</g>
</g>
<!-- Node1&#45;&gt;Node6 -->
<g id="edge5" class="edge">
<title>Node1&#45;&gt;Node6</title>
<path fill="none" stroke="midnightblue" d="M731.5,-146.3C731.5,-137.3 731.5,-127.65 731.5,-119.51"/>
<polygon fill="midnightblue" stroke="midnightblue" points="728,-146.43 731.5,-156.43 735,-146.43 728,-146.43"/>
</g>
<!-- Node7 -->
<g id="node7" class="node">
<title>Node7</title>
<g id="a_node7"><a xlink:href="../../d7/d66/mac_2processimpl_8cpp.html" target="_top" xlink:title="Implements the AJAProcessImpl class on the Mac platform.">
<polygon fill="white" stroke="black" points="853,-78.5 853,-119.5 1056,-119.5 1056,-78.5 853,-78.5"/>
<text text-anchor="start" x="861" y="-107.5" font-family="Helvetica,sans-Serif" font-size="10.00">/home/tcbuilder/buildAgent</text>
<text text-anchor="start" x="861" y="-96.5" font-family="Helvetica,sans-Serif" font-size="10.00">/work/df8e8cce5bebfd58/libajantv2</text>
<text text-anchor="middle" x="954.5" y="-85.5" font-family="Helvetica,sans-Serif" font-size="10.00">/ajabase/system/mac/processimpl.cpp</text>
</a>
</g>
</g>
<!-- Node1&#45;&gt;Node7 -->
<g id="edge6" class="edge">
<title>Node1&#45;&gt;Node7</title>
<path fill="none" stroke="midnightblue" d="M798.5,-153.17C829.98,-142.44 867.12,-129.78 897.27,-119.51"/>
<polygon fill="midnightblue" stroke="midnightblue" points="797.26,-149.89 788.93,-156.43 799.52,-156.52 797.26,-149.89"/>
</g>
<!-- Node8 -->
<g id="node8" class="node">
<title>Node8</title>
<g id="a_node8"><a xlink:href="../../d2/d87/mac_2threadimpl_8cpp.html" target="_top" xlink:title="Implements the AJAThreadImpl class on the Mac platform.">
<polygon fill="white" stroke="black" points="1074,-78.5 1074,-119.5 1271,-119.5 1271,-78.5 1074,-78.5"/>
<text text-anchor="start" x="1082" y="-107.5" font-family="Helvetica,sans-Serif" font-size="10.00">/home/tcbuilder/buildAgent</text>
<text text-anchor="start" x="1082" y="-96.5" font-family="Helvetica,sans-Serif" font-size="10.00">/work/df8e8cce5bebfd58/libajantv2</text>
<text text-anchor="middle" x="1172.5" y="-85.5" font-family="Helvetica,sans-Serif" font-size="10.00">/ajabase/system/mac/threadimpl.cpp</text>
</a>
</g>
</g>
<!-- Node1&#45;&gt;Node8 -->
<g id="edge7" class="edge">
<title>Node1&#45;&gt;Node8</title>
<path fill="none" stroke="midnightblue" d="M835.5,-159.07C901.46,-148.22 988.55,-133.64 1065.5,-120 1068.29,-119.51 1071.12,-119 1073.98,-118.49"/>
<polygon fill="midnightblue" stroke="midnightblue" points="834.82,-155.64 825.52,-160.72 835.95,-162.55 834.82,-155.64"/>
</g>
<!-- Node9 -->
<g id="node9" class="node">
<title>Node9</title>
<g id="a_node9"><a xlink:href="../../dc/dbf/windows_2processimpl_8cpp.html" target="_top" xlink:title="Implements the AJAProcessImpl class on the Windows platform.">
<polygon fill="white" stroke="black" points="1289,-78.5 1289,-119.5 1514,-119.5 1514,-78.5 1289,-78.5"/>
<text text-anchor="start" x="1297" y="-107.5" font-family="Helvetica,sans-Serif" font-size="10.00">/home/tcbuilder/buildAgent</text>
<text text-anchor="start" x="1297" y="-96.5" font-family="Helvetica,sans-Serif" font-size="10.00">/work/df8e8cce5bebfd58/libajantv2</text>
<text text-anchor="middle" x="1401.5" y="-85.5" font-family="Helvetica,sans-Serif" font-size="10.00">/ajabase/system/windows/processimpl.cpp</text>
</a>
</g>
</g>
<!-- Node1&#45;&gt;Node9 -->
<g id="edge8" class="edge">
<title>Node1&#45;&gt;Node9</title>
<path fill="none" stroke="midnightblue" d="M836.1,-167.28C946.73,-157.6 1126.25,-140.59 1280.5,-120 1283.24,-119.63 1286.02,-119.25 1288.82,-118.86"/>
<polygon fill="midnightblue" stroke="midnightblue" points="835.6,-163.81 825.94,-168.16 836.21,-170.78 835.6,-163.81"/>
</g>
<!-- Node3 -->
<g id="node3" class="node">
<title>Node3</title>
<g id="a_node3"><a xlink:href="../../d5/d52/performance_8cpp.html" target="_top" xlink:title="Monitors the operational performance, timing, and stats of an arbitrary module.">
<polygon fill="white" stroke="black" points="0,-0.5 0,-41.5 189,-41.5 189,-0.5 0,-0.5"/>
<text text-anchor="start" x="8" y="-29.5" font-family="Helvetica,sans-Serif" font-size="10.00">/home/tcbuilder/buildAgent</text>
<text text-anchor="start" x="8" y="-18.5" font-family="Helvetica,sans-Serif" font-size="10.00">/work/df8e8cce5bebfd58/libajantv2</text>
<text text-anchor="middle" x="94.5" y="-7.5" font-family="Helvetica,sans-Serif" font-size="10.00">/ajabase/common/performance.cpp</text>
</a>
</g>
</g>
<!-- Node2&#45;&gt;Node3 -->
<g id="edge2" class="edge">
<title>Node2&#45;&gt;Node3</title>
<path fill="none" stroke="midnightblue" d="M94.5,-68.3C94.5,-59.3 94.5,-49.65 94.5,-41.51"/>
<polygon fill="midnightblue" stroke="midnightblue" points="91,-68.43 94.5,-78.43 98,-68.43 91,-68.43"/>
</g>
</g>
</svg>
