<?xml version="1.0" encoding="UTF-8" standalone="no"?>
<!DOCTYPE svg PUBLIC "-//W3C//DTD SVG 1.1//EN"
 "http://www.w3.org/Graphics/SVG/1.1/DTD/svg11.dtd">
<!-- Generated by graphviz version 2.43.0 (0)
 -->
<!-- Title: /home/tcbuilder/buildAgent/work/df8e8cce5bebfd58/libajantv2/ajabase/common/variant.h Pages: 1 -->
<svg width="405pt" height="206pt"
 viewBox="0.00 0.00 405.00 206.00" xmlns="http://www.w3.org/2000/svg" xmlns:xlink="http://www.w3.org/1999/xlink">
<g id="graph0" class="graph" transform="scale(1 1) rotate(0) translate(4 202)">
<title>/home/tcbuilder/buildAgent/work/df8e8cce5bebfd58/libajantv2/ajabase/common/variant.h</title>
<polygon fill="white" stroke="transparent" points="-4,4 -4,-202 401,-202 401,4 -4,4"/>
<!-- Node1 -->
<g id="node1" class="node">
<title>Node1</title>
<g id="a_node1"><a xlink:title="Declares the AJAVariant class.">
<polygon fill="#bfbfbf" stroke="black" points="106,-156.5 106,-197.5 294,-197.5 294,-156.5 106,-156.5"/>
<text text-anchor="start" x="114" y="-185.5" font-family="Helvetica,sans-Serif" font-size="10.00">/home/tcbuilder/buildAgent</text>
<text text-anchor="start" x="114" y="-174.5" font-family="Helvetica,sans-Serif" font-size="10.00">/work/df8e8cce5bebfd58/libajantv2</text>
<text text-anchor="middle" x="200" y="-163.5" font-family="Helvetica,sans-Serif" font-size="10.00">/ajabase/common/variant.h</text>
</a>
</g>
</g>
<!-- Node2 -->
<g id="node2" class="node">
<title>Node2</title>
<g id="a_node2"><a xlink:href="../../d2/d8f/commandline_8h.html" target="_top" xlink:title="Declaration of Command Line classes.">
<polygon fill="white" stroke="black" points="3,-78.5 3,-119.5 191,-119.5 191,-78.5 3,-78.5"/>
<text text-anchor="start" x="11" y="-107.5" font-family="Helvetica,sans-Serif" font-size="10.00">/home/tcbuilder/buildAgent</text>
<text text-anchor="start" x="11" y="-96.5" font-family="Helvetica,sans-Serif" font-size="10.00">/work/df8e8cce5bebfd58/libajantv2</text>
<text text-anchor="middle" x="97" y="-85.5" font-family="Helvetica,sans-Serif" font-size="10.00">/ajabase/common/commandline.h</text>
</a>
</g>
</g>
<!-- Node1&#45;&gt;Node2 -->
<g id="edge1" class="edge">
<title>Node1&#45;&gt;Node2</title>
<path fill="none" stroke="midnightblue" d="M165.24,-150.35C151.58,-140.27 136.16,-128.89 123.44,-119.51"/>
<polygon fill="midnightblue" stroke="midnightblue" points="163.35,-153.31 173.47,-156.43 167.51,-147.67 163.35,-153.31"/>
</g>
<!-- Node4 -->
<g id="node4" class="node">
<title>Node4</title>
<g id="a_node4"><a xlink:href="../../d1/dcf/variant_8cpp.html" target="_top" xlink:title="Implements the AJAVariant class.">
<polygon fill="white" stroke="black" points="209,-78.5 209,-119.5 397,-119.5 397,-78.5 209,-78.5"/>
<text text-anchor="start" x="217" y="-107.5" font-family="Helvetica,sans-Serif" font-size="10.00">/home/tcbuilder/buildAgent</text>
<text text-anchor="start" x="217" y="-96.5" font-family="Helvetica,sans-Serif" font-size="10.00">/work/df8e8cce5bebfd58/libajantv2</text>
<text text-anchor="middle" x="303" y="-85.5" font-family="Helvetica,sans-Serif" font-size="10.00">/ajabase/common/variant.cpp</text>
</a>
</g>
</g>
<!-- Node1&#45;&gt;Node4 -->
<g id="edge3" class="edge">
<title>Node1&#45;&gt;Node4</title>
<path fill="none" stroke="midnightblue" d="M234.76,-150.35C248.42,-140.27 263.84,-128.89 276.56,-119.51"/>
<polygon fill="midnightblue" stroke="midnightblue" points="232.49,-147.67 226.53,-156.43 236.65,-153.31 232.49,-147.67"/>
</g>
<!-- Node3 -->
<g id="node3" class="node">
<title>Node3</title>
<g id="a_node3"><a xlink:href="../../df/d0d/commandline_8cpp.html" target="_top" xlink:title="Definition of Command Line classes.">
<polygon fill="white" stroke="black" points="0,-0.5 0,-41.5 194,-41.5 194,-0.5 0,-0.5"/>
<text text-anchor="start" x="8" y="-29.5" font-family="Helvetica,sans-Serif" font-size="10.00">/home/tcbuilder/buildAgent</text>
<text text-anchor="start" x="8" y="-18.5" font-family="Helvetica,sans-Serif" font-size="10.00">/work/df8e8cce5bebfd58/libajantv2</text>
<text text-anchor="middle" x="97" y="-7.5" font-family="Helvetica,sans-Serif" font-size="10.00">/ajabase/common/commandline.cpp</text>
</a>
</g>
</g>
<!-- Node2&#45;&gt;Node3 -->
<g id="edge2" class="edge">
<title>Node2&#45;&gt;Node3</title>
<path fill="none" stroke="midnightblue" d="M97,-68.3C97,-59.3 97,-49.65 97,-41.51"/>
<polygon fill="midnightblue" stroke="midnightblue" points="93.5,-68.43 97,-78.43 100.5,-68.43 93.5,-68.43"/>
</g>
</g>
</svg>
