<?xml version="1.0" encoding="UTF-8" standalone="no"?>
<!DOCTYPE svg PUBLIC "-//W3C//DTD SVG 1.1//EN"
 "http://www.w3.org/Graphics/SVG/1.1/DTD/svg11.dtd">
<!-- Generated by graphviz version 2.40.1 (0)
 -->
<!-- Title: CImagePalette Pages: 1 -->
<!--zoomable 251 -->
<svg id="main" version="1.1" xmlns="http://www.w3.org/2000/svg" xmlns:xlink="http://www.w3.org/1999/xlink" xml:space="preserve" onload="init(evt)">
<style type="text/css"><![CDATA[
.edge:hover path { stroke: red; }
.edge:hover polygon { stroke: red; fill: red; }
]]></style>
<script type="text/javascript"><![CDATA[
var edges = document.getElementsByTagName('g');
if (edges && edges.length) {
  for (var i=0;i<edges.length;i++) {
    if (edges[i].id.substr(0,4)=='edge') {
      edges[i].setAttribute('class','edge');
    }
  }
}
]]></script>
        <defs>
                <circle id="rim" cx="0" cy="0" r="7"/>
                <circle id="rim2" cx="0" cy="0" r="3.5"/>
                <g id="zoomPlus">
                        <use xlink:href="#rim" fill="#404040">
                                <set attributeName="fill" to="#808080" begin="zoomplus.mouseover" end="zoomplus.mouseout"/>
                        </use>
                        <path d="M-4,0h8M0,-4v8" fill="none" stroke="white" stroke-width="1.5" pointer-events="none"/>
                </g>
                <g id="zoomMin">
                        <use xlink:href="#rim" fill="#404040">
                                <set attributeName="fill" to="#808080" begin="zoomminus.mouseover" end="zoomminus.mouseout"/>
                        </use>
                        <path d="M-4,0h8" fill="none" stroke="white" stroke-width="1.5" pointer-events="none"/>
                </g>
                <g id="dirArrow">
                        <path fill="none" stroke="white" stroke-width="1.5" d="M0,-3.0v7 M-2.5,-0.5L0,-3.0L2.5,-0.5"/>
                </g>
               <g id="resetDef">
                       <use xlink:href="#rim2" fill="#404040">
                               <set attributeName="fill" to="#808080" begin="reset.mouseover" end="reset.mouseout"/>
                       </use>
               </g>
        </defs>

<script type="text/javascript">
var viewWidth = 683;
var viewHeight = 251;
var sectionId = 'dynsection-0';
</script>
<script xlink:href="../../svgpan.js"/>
<svg id="graph" class="graph">
<g id="viewport">
<title>CImagePalette</title>
<polygon fill="#ffffff" stroke="transparent" points="-4,4 -4,-247 678.5,-247 678.5,4 -4,4"/>
<!-- Node1 -->
<g id="node1" class="node">
<title>Node1</title>
<polygon fill="#bfbfbf" stroke="#000000" points="189,-.5 189,-19.5 271,-19.5 271,-.5 189,-.5"/>
<text text-anchor="middle" x="230" y="-7.5" font-family="Helvetica,sans-Serif" font-size="10.00" fill="#000000">CImagePalette</text>
</g>
<!-- Node2 -->
<g id="node2" class="node">
<title>Node2</title>
<g id="a_node2"><a xlink:href="../../db/d39/class_c_draw_image.html" target="_top" xlink:title="CDrawImage">
<polygon fill="#ffffff" stroke="#000000" points="100,-67.5 100,-86.5 174,-86.5 174,-67.5 100,-67.5"/>
<text text-anchor="middle" x="137" y="-74.5" font-family="Helvetica,sans-Serif" font-size="10.00" fill="#000000">CDrawImage</text>
</a>
</g>
</g>
<!-- Node2&#45;&gt;Node1 -->
<g id="edge1" class="edge">
<title>Node2&#45;&gt;Node1</title>
<path fill="none" stroke="#9a32cd" stroke-dasharray="5,2" d="M136.044,-56.7402C136.7186,-50.1138 138.615,-43.1428 143,-38 149.2799,-30.6349 169.333,-23.9305 188.6055,-18.9298"/>
<polygon fill="#9a32cd" stroke="#9a32cd" points="132.5361,-57.116 135.8386,-67.183 139.5347,-57.2538 132.5361,-57.116"/>
<text text-anchor="middle" x="179.5" y="-41" font-family="Helvetica,sans-Serif" font-size="10.00" fill="#000000"> m_pDrawImage</text>
</g>
<!-- Node3 -->
<g id="node3" class="node">
<title>Node3</title>
<g id="a_node3"><a xlink:href="../../dc/da7/class_c_ref_time.html" target="_top" xlink:title="CRefTime">
<polygon fill="#ffffff" stroke="#000000" points="241,-145.5 241,-164.5 303,-164.5 303,-145.5 241,-145.5"/>
<text text-anchor="middle" x="272" y="-152.5" font-family="Helvetica,sans-Serif" font-size="10.00" fill="#000000">CRefTime</text>
</a>
</g>
</g>
<!-- Node3&#45;&gt;Node2 -->
<g id="edge2" class="edge">
<title>Node3&#45;&gt;Node2</title>
<path fill="none" stroke="#9a32cd" stroke-dasharray="5,2" d="M257.5741,-137.66C247.8955,-126.9748 234.3326,-113.7004 220,-105 205.9601,-96.4773 188.9942,-90.1622 174.0698,-85.709"/>
<polygon fill="#9a32cd" stroke="#9a32cd" points="254.9521,-139.9786 264.1667,-145.2077 260.2242,-135.3737 254.9521,-139.9786"/>
<text text-anchor="middle" x="281" y="-119" font-family="Helvetica,sans-Serif" font-size="10.00" fill="#000000"> m_EndSample</text>
<text text-anchor="middle" x="281" y="-108" font-family="Helvetica,sans-Serif" font-size="10.00" fill="#000000">m_StartSample</text>
</g>
<!-- Node8 -->
<g id="node8" class="node">
<title>Node8</title>
<g id="a_node8"><a xlink:href="../../d5/d74/class_c_base_filter.html" target="_top" xlink:title="CBaseFilter">
<polygon fill="#ffffff" stroke="#000000" points="388,-67.5 388,-86.5 456,-86.5 456,-67.5 388,-67.5"/>
<text text-anchor="middle" x="422" y="-74.5" font-family="Helvetica,sans-Serif" font-size="10.00" fill="#000000">CBaseFilter</text>
</a>
</g>
</g>
<!-- Node3&#45;&gt;Node8 -->
<g id="edge14" class="edge">
<title>Node3&#45;&gt;Node8</title>
<path fill="none" stroke="#9a32cd" stroke-dasharray="5,2" d="M297.7359,-140.0767C304.6931,-135.9318 312.1822,-131.368 319,-127 333.5324,-117.6895 335.7633,-113.1068 351,-105 364.4523,-97.8426 380.1461,-91.4654 393.353,-86.6117"/>
<polygon fill="#9a32cd" stroke="#9a32cd" points="295.5266,-137.3163 288.6915,-145.4115 299.083,-143.3456 295.5266,-137.3163"/>
<text text-anchor="middle" x="371.5" y="-113.5" font-family="Helvetica,sans-Serif" font-size="10.00" fill="#000000"> m_tStart</text>
</g>
<!-- Node4 -->
<g id="node4" class="node">
<title>Node4</title>
<g id="a_node4"><a xlink:href="../../d7/da7/class_c_media_type.html" target="_top" xlink:title="CMediaType">
<polygon fill="#ffffff" stroke="#000000" points="6.5,-145.5 6.5,-164.5 77.5,-164.5 77.5,-145.5 6.5,-145.5"/>
<text text-anchor="middle" x="42" y="-152.5" font-family="Helvetica,sans-Serif" font-size="10.00" fill="#000000">CMediaType</text>
</a>
</g>
</g>
<!-- Node4&#45;&gt;Node2 -->
<g id="edge3" class="edge">
<title>Node4&#45;&gt;Node2</title>
<path fill="none" stroke="#9a32cd" stroke-dasharray="5,2" d="M44.131,-135.1459C46.1737,-124.9778 50.1727,-113.0731 58,-105 69.0406,-93.6127 85.0014,-86.8462 99.6909,-82.8301"/>
<polygon fill="#9a32cd" stroke="#9a32cd" points="40.6402,-134.8211 42.5937,-145.2343 47.5603,-135.8757 40.6402,-134.8211"/>
<text text-anchor="middle" x="93" y="-113.5" font-family="Helvetica,sans-Serif" font-size="10.00" fill="#000000"> m_pMediaType</text>
</g>
<!-- Node5 -->
<g id="node5" class="node">
<title>Node5</title>
<polygon fill="#ffffff" stroke="#bfbfbf" points="0,-223.5 0,-242.5 84,-242.5 84,-223.5 0,-223.5"/>
<text text-anchor="middle" x="42" y="-230.5" font-family="Helvetica,sans-Serif" font-size="10.00" fill="#000000">_AMMediaType</text>
</g>
<!-- Node5&#45;&gt;Node4 -->
<g id="edge4" class="edge">
<title>Node5&#45;&gt;Node4</title>
<path fill="none" stroke="#191970" d="M42,-213.2866C42,-197.7395 42,-176.7276 42,-164.6426"/>
<polygon fill="#191970" stroke="#191970" points="38.5001,-213.4356 42,-223.4357 45.5001,-213.4357 38.5001,-213.4356"/>
</g>
<!-- Node6 -->
<g id="node6" class="node">
<title>Node6</title>
<g id="a_node6"><a xlink:href="../../db/dbd/class_c_base_window.html" target="_top" xlink:title="CBaseWindow">
<polygon fill="#ffffff" stroke="#000000" points="141,-145.5 141,-164.5 223,-164.5 223,-145.5 141,-145.5"/>
<text text-anchor="middle" x="182" y="-152.5" font-family="Helvetica,sans-Serif" font-size="10.00" fill="#000000">CBaseWindow</text>
</a>
</g>
</g>
<!-- Node6&#45;&gt;Node1 -->
<g id="edge7" class="edge">
<title>Node6&#45;&gt;Node1</title>
<path fill="none" stroke="#9a32cd" stroke-dasharray="5,2" d="M206.5011,-138.8311C210.2168,-135.3502 213.6035,-131.3818 216,-127 235.5347,-91.2828 233.1587,-40.3959 231.1322,-19.506"/>
<polygon fill="#9a32cd" stroke="#9a32cd" points="204.1531,-136.2297 198.6239,-145.2673 208.5822,-141.6504 204.1531,-136.2297"/>
<text text-anchor="middle" x="272" y="-74.5" font-family="Helvetica,sans-Serif" font-size="10.00" fill="#000000"> m_pBaseWindow</text>
</g>
<!-- Node6&#45;&gt;Node2 -->
<g id="edge5" class="edge">
<title>Node6&#45;&gt;Node2</title>
<path fill="none" stroke="#9a32cd" stroke-dasharray="5,2" d="M147.5106,-139.7087C142.9018,-136.1982 138.8055,-131.9921 136,-127 128.9389,-114.4356 131.4556,-97.1421 134.0979,-86.5355"/>
<polygon fill="#9a32cd" stroke="#9a32cd" points="145.8886,-142.827 156.1918,-145.2959 149.677,-136.9407 145.8886,-142.827"/>
<text text-anchor="middle" x="176" y="-113.5" font-family="Helvetica,sans-Serif" font-size="10.00" fill="#000000"> m_pBaseWindow</text>
</g>
<!-- Node7 -->
<g id="node7" class="node">
<title>Node7</title>
<g id="a_node7"><a xlink:href="../../d5/d24/class_c_crit_sec.html" target="_top" xlink:title="CCritSec">
<polygon fill="#ffffff" stroke="#000000" points="284.5,-223.5 284.5,-242.5 341.5,-242.5 341.5,-223.5 284.5,-223.5"/>
<text text-anchor="middle" x="313" y="-230.5" font-family="Helvetica,sans-Serif" font-size="10.00" fill="#000000">CCritSec</text>
</a>
</g>
</g>
<!-- Node7&#45;&gt;Node6 -->
<g id="edge6" class="edge">
<title>Node7&#45;&gt;Node6</title>
<path fill="none" stroke="#9a32cd" stroke-dasharray="5,2" d="M288.2607,-218.2697C261.8475,-202.5428 220.7574,-178.0769 198.1946,-164.6426"/>
<polygon fill="#9a32cd" stroke="#9a32cd" points="286.554,-221.3269 296.9368,-223.4357 290.1352,-215.3123 286.554,-221.3269"/>
<text text-anchor="middle" x="299" y="-197" font-family="Helvetica,sans-Serif" font-size="10.00" fill="#000000"> m_PaletteLock</text>
<text text-anchor="middle" x="299" y="-186" font-family="Helvetica,sans-Serif" font-size="10.00" fill="#000000">m_WindowLock</text>
</g>
<!-- Node7&#45;&gt;Node8 -->
<g id="edge15" class="edge">
<title>Node7&#45;&gt;Node8</title>
<path fill="none" stroke="#9a32cd" stroke-dasharray="5,2" d="M343.1955,-218.7806C364.4812,-207.2188 391.952,-188.9135 408,-165 424.3788,-140.5936 424.1571,-103.9413 422.9541,-86.6647"/>
<polygon fill="#9a32cd" stroke="#9a32cd" points="341.4577,-215.7394 334.2092,-223.4667 344.6944,-221.9462 341.4577,-215.7394"/>
<text text-anchor="middle" x="438.5" y="-152.5" font-family="Helvetica,sans-Serif" font-size="10.00" fill="#000000"> m_pLock</text>
</g>
<!-- Node8&#45;&gt;Node1 -->
<g id="edge8" class="edge">
<title>Node8&#45;&gt;Node1</title>
<path fill="none" stroke="#9a32cd" stroke-dasharray="5,2" d="M384.9829,-64.0826C347.6676,-51.0611 290.9394,-31.2653 257.4579,-19.5817"/>
<polygon fill="#9a32cd" stroke="#9a32cd" points="383.8962,-67.4103 394.4911,-67.4005 386.2026,-60.8011 383.8962,-67.4103"/>
<text text-anchor="middle" x="359" y="-41" font-family="Helvetica,sans-Serif" font-size="10.00" fill="#000000"> m_pFilter</text>
</g>
<!-- Node9 -->
<g id="node9" class="node">
<title>Node9</title>
<g id="a_node9"><a xlink:href="../../d9/d89/class_c_unknown.html" target="_top" xlink:title="CUnknown">
<polygon fill="#ffffff" stroke="#000000" points="496.5,-145.5 496.5,-164.5 561.5,-164.5 561.5,-145.5 496.5,-145.5"/>
<text text-anchor="middle" x="529" y="-152.5" font-family="Helvetica,sans-Serif" font-size="10.00" fill="#000000">CUnknown</text>
</a>
</g>
</g>
<!-- Node9&#45;&gt;Node8 -->
<g id="edge9" class="edge">
<title>Node9&#45;&gt;Node8</title>
<path fill="none" stroke="#191970" d="M507.6517,-139.4377C486.0511,-123.6914 453.3349,-99.8423 435.2276,-86.6426"/>
<polygon fill="#191970" stroke="#191970" points="505.7371,-142.3732 515.8797,-145.4357 509.8606,-136.7166 505.7371,-142.3732"/>
</g>
<!-- Node10 -->
<g id="node10" class="node">
<title>Node10</title>
<polygon fill="#ffffff" stroke="#bfbfbf" points="549.5,-223.5 549.5,-242.5 674.5,-242.5 674.5,-223.5 549.5,-223.5"/>
<text text-anchor="middle" x="612" y="-230.5" font-family="Helvetica,sans-Serif" font-size="10.00" fill="#000000">INonDelegatingUnknown</text>
</g>
<!-- Node10&#45;&gt;Node9 -->
<g id="edge10" class="edge">
<title>Node10&#45;&gt;Node9</title>
<path fill="none" stroke="#191970" d="M594.3105,-216.3762C577.5622,-200.6367 552.9944,-177.5489 539.2607,-164.6426"/>
<polygon fill="#191970" stroke="#191970" points="592.1385,-219.138 601.8226,-223.4357 596.9323,-214.037 592.1385,-219.138"/>
</g>
<!-- Node11 -->
<g id="node11" class="node">
<title>Node11</title>
<g id="a_node11"><a xlink:href="../../d1/d2d/class_c_base_object.html" target="_top" xlink:title="CBaseObject">
<polygon fill="#ffffff" stroke="#000000" points="456.5,-223.5 456.5,-242.5 531.5,-242.5 531.5,-223.5 456.5,-223.5"/>
<text text-anchor="middle" x="494" y="-230.5" font-family="Helvetica,sans-Serif" font-size="10.00" fill="#000000">CBaseObject</text>
</a>
</g>
</g>
<!-- Node11&#45;&gt;Node9 -->
<g id="edge11" class="edge">
<title>Node11&#45;&gt;Node9</title>
<path fill="none" stroke="#191970" d="M502.4422,-214.186C509.4543,-198.5589 519.1451,-176.9623 524.6732,-164.6426"/>
<polygon fill="#191970" stroke="#191970" points="499.1924,-212.8792 498.2917,-223.4357 505.5789,-215.745 499.1924,-212.8792"/>
</g>
<!-- Node12 -->
<g id="node12" class="node">
<title>Node12</title>
<polygon fill="#ffffff" stroke="#bfbfbf" points="580,-145.5 580,-164.5 644,-164.5 644,-145.5 580,-145.5"/>
<text text-anchor="middle" x="612" y="-152.5" font-family="Helvetica,sans-Serif" font-size="10.00" fill="#000000">IBaseFilter</text>
</g>
<!-- Node12&#45;&gt;Node8 -->
<g id="edge12" class="edge">
<title>Node12&#45;&gt;Node8</title>
<path fill="none" stroke="#191970" d="M579.0573,-141.4761C540.8078,-125.7737 478.6958,-100.2751 445.1908,-86.5204"/>
<polygon fill="#191970" stroke="#191970" points="578.1222,-144.8757 588.7023,-145.4357 580.7807,-138.4001 578.1222,-144.8757"/>
</g>
<!-- Node13 -->
<g id="node13" class="node">
<title>Node13</title>
<polygon fill="#ffffff" stroke="#bfbfbf" points="321,-145.5 321,-164.5 399,-164.5 399,-145.5 321,-145.5"/>
<text text-anchor="middle" x="360" y="-152.5" font-family="Helvetica,sans-Serif" font-size="10.00" fill="#000000">IAMovieSetup</text>
</g>
<!-- Node13&#45;&gt;Node8 -->
<g id="edge13" class="edge">
<title>Node13&#45;&gt;Node8</title>
<path fill="none" stroke="#191970" d="M383.3095,-139.2632C387.8449,-135.5683 392.3255,-131.4103 396,-127 406.3963,-114.5219 414.2421,-97.2028 418.4738,-86.5675"/>
<polygon fill="#191970" stroke="#191970" points="381.1074,-136.5405 375.2489,-145.3682 385.3337,-142.1206 381.1074,-136.5405"/>
</g>
</g>
</svg>
        <g id="navigator" transform="translate(0 0)" fill="#404254">
                <rect fill="#f2f5e9" fill-opacity="0.5" stroke="#606060" stroke-width=".5" x="0" y="0" width="60" height="60"/>
                <use id="zoomplus" xlink:href="#zoomPlus" x="17" y="9" onmousedown="handleZoom(evt,'in')"/>
                <use id="zoomminus" xlink:href="#zoomMin" x="42" y="9" onmousedown="handleZoom(evt,'out')"/>
                <use id="reset" xlink:href="#resetDef" x="30" y="36" onmousedown="handleReset()"/>
                <g id="arrowUp" xlink:href="#dirArrow" transform="translate(30 24)" onmousedown="handlePan(0,-1)">
                  <use xlink:href="#rim" fill="#404040">
                        <set attributeName="fill" to="#808080" begin="arrowUp.mouseover" end="arrowUp.mouseout"/>
                  </use>
                  <path fill="none" stroke="white" stroke-width="1.5" d="M0,-3.0v7 M-2.5,-0.5L0,-3.0L2.5,-0.5"/>
                </g>
                <g id="arrowRight" xlink:href="#dirArrow" transform="rotate(90) translate(36 -43)" onmousedown="handlePan(1,0)">
                  <use xlink:href="#rim" fill="#404040">
                        <set attributeName="fill" to="#808080" begin="arrowRight.mouseover" end="arrowRight.mouseout"/>
                  </use>
                  <path fill="none" stroke="white" stroke-width="1.5" d="M0,-3.0v7 M-2.5,-0.5L0,-3.0L2.5,-0.5"/>
                </g>
                <g id="arrowDown" xlink:href="#dirArrow" transform="rotate(180) translate(-30 -48)" onmousedown="handlePan(0,1)">
                  <use xlink:href="#rim" fill="#404040">
                        <set attributeName="fill" to="#808080" begin="arrowDown.mouseover" end="arrowDown.mouseout"/>
                  </use>
                  <path fill="none" stroke="white" stroke-width="1.5" d="M0,-3.0v7 M-2.5,-0.5L0,-3.0L2.5,-0.5"/>
                </g>
                <g id="arrowLeft" xlink:href="#dirArrow" transform="rotate(270) translate(-36 17)" onmousedown="handlePan(-1,0)">
                  <use xlink:href="#rim" fill="#404040">
                        <set attributeName="fill" to="#808080" begin="arrowLeft.mouseover" end="arrowLeft.mouseout"/>
                  </use>
                  <path fill="none" stroke="white" stroke-width="1.5" d="M0,-3.0v7 M-2.5,-0.5L0,-3.0L2.5,-0.5"/>
                </g>
        </g>
        <svg viewBox="0 0 15 15" width="100%" height="30px" preserveAspectRatio="xMaxYMin meet">
         <g id="arrow_out" transform="scale(0.3 0.3)">
          <a xlink:href="class_c_image_palette__coll__graph_org.svg" target="_base">
           <rect id="button" ry="5" rx="5" y="6" x="6" height="38" width="38"
                fill="#f2f5e9" fill-opacity="0.5" stroke="#606060" stroke-width="1.0"/>
           <path id="arrow"
             d="M 11.500037,31.436501 C 11.940474,20.09759 22.043105,11.32322 32.158766,21.979434 L 37.068811,17.246167 C 37.068811,17.246167 37.088388,32 37.088388,32 L 22.160133,31.978069 C 22.160133,31.978069 26.997745,27.140456 26.997745,27.140456 C 18.528582,18.264221 13.291696,25.230495 11.500037,31.436501 z"
             style="fill:#404040;"/>
          </a>
         </g>
        </svg>
</svg>
