<?xml version="1.0" encoding="UTF-8" standalone="no"?>
<!DOCTYPE svg PUBLIC "-//W3C//DTD SVG 1.1//EN"
 "http://www.w3.org/Graphics/SVG/1.1/DTD/svg11.dtd">
<!-- Generated by graphviz version 2.43.0 (0)
 -->
<!-- Title: /home/tcbuilder/buildAgent/work/df8e8cce5bebfd58/libajantv2/ajantv2/includes/ntv2fixed.h Pages: 1 -->
<svg width="1482pt" height="206pt"
 viewBox="0.00 0.00 1482.00 206.00" xmlns="http://www.w3.org/2000/svg" xmlns:xlink="http://www.w3.org/1999/xlink">
<g id="graph0" class="graph" transform="scale(1 1) rotate(0) translate(4 202)">
<title>/home/tcbuilder/buildAgent/work/df8e8cce5bebfd58/libajantv2/ajantv2/includes/ntv2fixed.h</title>
<polygon fill="white" stroke="transparent" points="-4,4 -4,-202 1478,-202 1478,4 -4,4"/>
<!-- Node1 -->
<g id="node1" class="node">
<title>Node1</title>
<g id="a_node1"><a xlink:title="Declares several fixed&#45;point math routines. Assumes 16&#45;bit fraction.">
<polygon fill="#bfbfbf" stroke="black" points="923,-156.5 923,-197.5 1111,-197.5 1111,-156.5 923,-156.5"/>
<text text-anchor="start" x="931" y="-185.5" font-family="Helvetica,sans-Serif" font-size="10.00">/home/tcbuilder/buildAgent</text>
<text text-anchor="start" x="931" y="-174.5" font-family="Helvetica,sans-Serif" font-size="10.00">/work/df8e8cce5bebfd58/libajantv2</text>
<text text-anchor="middle" x="1017" y="-163.5" font-family="Helvetica,sans-Serif" font-size="10.00">/ajantv2/includes/ntv2fixed.h</text>
</a>
</g>
</g>
<!-- Node2 -->
<g id="node2" class="node">
<title>Node2</title>
<g id="a_node2"><a xlink:href="../../d2/d22/ntv2transcode_8h.html" target="_top" xlink:title="Declares a number of pixel format transcoder functions.">
<polygon fill="white" stroke="black" points="561,-78.5 561,-119.5 749,-119.5 749,-78.5 561,-78.5"/>
<text text-anchor="start" x="569" y="-107.5" font-family="Helvetica,sans-Serif" font-size="10.00">/home/tcbuilder/buildAgent</text>
<text text-anchor="start" x="569" y="-96.5" font-family="Helvetica,sans-Serif" font-size="10.00">/work/df8e8cce5bebfd58/libajantv2</text>
<text text-anchor="middle" x="655" y="-85.5" font-family="Helvetica,sans-Serif" font-size="10.00">/ajantv2/includes/ntv2transcode.h</text>
</a>
</g>
</g>
<!-- Node1&#45;&gt;Node2 -->
<g id="edge1" class="edge">
<title>Node1&#45;&gt;Node2</title>
<path fill="none" stroke="midnightblue" d="M913.81,-154.34C861.57,-143.37 798.63,-130.16 747.91,-119.51"/>
<polygon fill="midnightblue" stroke="midnightblue" points="913.27,-157.8 923.78,-156.43 914.71,-150.95 913.27,-157.8"/>
</g>
<!-- Node8 -->
<g id="node8" class="node">
<title>Node8</title>
<g id="a_node8"><a xlink:href="../../d9/d79/ntv2resample_8h.html" target="_top" xlink:title="Declares a number of pixel resampling functions.">
<polygon fill="white" stroke="black" points="923,-78.5 923,-119.5 1111,-119.5 1111,-78.5 923,-78.5"/>
<text text-anchor="start" x="931" y="-107.5" font-family="Helvetica,sans-Serif" font-size="10.00">/home/tcbuilder/buildAgent</text>
<text text-anchor="start" x="931" y="-96.5" font-family="Helvetica,sans-Serif" font-size="10.00">/work/df8e8cce5bebfd58/libajantv2</text>
<text text-anchor="middle" x="1017" y="-85.5" font-family="Helvetica,sans-Serif" font-size="10.00">/ajantv2/includes/ntv2resample.h</text>
</a>
</g>
</g>
<!-- Node1&#45;&gt;Node8 -->
<g id="edge7" class="edge">
<title>Node1&#45;&gt;Node8</title>
<path fill="none" stroke="midnightblue" d="M1017,-146.3C1017,-137.3 1017,-127.65 1017,-119.51"/>
<polygon fill="midnightblue" stroke="midnightblue" points="1013.5,-146.43 1017,-156.43 1020.5,-146.43 1013.5,-146.43"/>
</g>
<!-- Node10 -->
<g id="node10" class="node">
<title>Node10</title>
<g id="a_node10"><a xlink:href="../../df/d62/ntv2verticalfilter_8h.html" target="_top" xlink:title="Declares the VerticalFilterLine and FieldInterpolateLine functions.">
<polygon fill="white" stroke="black" points="1232,-78.5 1232,-119.5 1424,-119.5 1424,-78.5 1232,-78.5"/>
<text text-anchor="start" x="1240" y="-107.5" font-family="Helvetica,sans-Serif" font-size="10.00">/home/tcbuilder/buildAgent</text>
<text text-anchor="start" x="1240" y="-96.5" font-family="Helvetica,sans-Serif" font-size="10.00">/work/df8e8cce5bebfd58/libajantv2</text>
<text text-anchor="middle" x="1328" y="-85.5" font-family="Helvetica,sans-Serif" font-size="10.00">/ajantv2/includes/ntv2verticalfilter.h</text>
</a>
</g>
</g>
<!-- Node1&#45;&gt;Node10 -->
<g id="edge10" class="edge">
<title>Node1&#45;&gt;Node10</title>
<path fill="none" stroke="midnightblue" d="M1107.05,-153.99C1151.66,-143.09 1205.06,-130.04 1248.18,-119.51"/>
<polygon fill="midnightblue" stroke="midnightblue" points="1105.97,-150.65 1097.09,-156.43 1107.64,-157.45 1105.97,-150.65"/>
</g>
<!-- Node3 -->
<g id="node3" class="node">
<title>Node3</title>
<g id="a_node3"><a xlink:href="../../d9/dca/ntv2ccgrabber_8cpp.html" target="_top" xlink:title="Implementation of NTV2CCGrabber class.">
<polygon fill="white" stroke="black" points="0,-0.5 0,-41.5 218,-41.5 218,-0.5 0,-0.5"/>
<text text-anchor="start" x="8" y="-29.5" font-family="Helvetica,sans-Serif" font-size="10.00">/home/tcbuilder/buildAgent</text>
<text text-anchor="start" x="8" y="-18.5" font-family="Helvetica,sans-Serif" font-size="10.00">/work/df8e8cce5bebfd58/libajantv2</text>
<text text-anchor="middle" x="109" y="-7.5" font-family="Helvetica,sans-Serif" font-size="10.00">/demos/ntv2ccgrabber/ntv2ccgrabber.cpp</text>
</a>
</g>
</g>
<!-- Node2&#45;&gt;Node3 -->
<g id="edge2" class="edge">
<title>Node2&#45;&gt;Node3</title>
<path fill="none" stroke="midnightblue" d="M550.81,-85.48C464.05,-74.8 337.32,-58.56 227,-42 224.12,-41.57 221.21,-41.12 218.27,-40.67"/>
<polygon fill="midnightblue" stroke="midnightblue" points="550.57,-88.98 560.93,-86.73 551.43,-82.03 550.57,-88.98"/>
</g>
<!-- Node4 -->
<g id="node4" class="node">
<title>Node4</title>
<g id="a_node4"><a xlink:href="../../de/d67/ntv2ccplayer_8cpp.html" target="_top" xlink:title="Implementation of NTV2CCPlayer class.">
<polygon fill="white" stroke="black" points="236,-0.5 236,-41.5 440,-41.5 440,-0.5 236,-0.5"/>
<text text-anchor="start" x="244" y="-29.5" font-family="Helvetica,sans-Serif" font-size="10.00">/home/tcbuilder/buildAgent</text>
<text text-anchor="start" x="244" y="-18.5" font-family="Helvetica,sans-Serif" font-size="10.00">/work/df8e8cce5bebfd58/libajantv2</text>
<text text-anchor="middle" x="338" y="-7.5" font-family="Helvetica,sans-Serif" font-size="10.00">/demos/ntv2ccplayer/ntv2ccplayer.cpp</text>
</a>
</g>
</g>
<!-- Node2&#45;&gt;Node4 -->
<g id="edge3" class="edge">
<title>Node2&#45;&gt;Node4</title>
<path fill="none" stroke="midnightblue" d="M563.5,-76.06C517.97,-65.15 463.41,-52.07 419.36,-41.51"/>
<polygon fill="midnightblue" stroke="midnightblue" points="562.82,-79.5 573.36,-78.43 564.46,-72.69 562.82,-79.5"/>
</g>
<!-- Node5 -->
<g id="node5" class="node">
<title>Node5</title>
<g id="a_node5"><a xlink:href="../../d5/d31/ntv2testpatterngen_8cpp.html" target="_top" xlink:title="Contains the implementation of the NTV2TestPatternGen class.">
<polygon fill="white" stroke="black" points="870.5,-0.5 870.5,-41.5 1061.5,-41.5 1061.5,-0.5 870.5,-0.5"/>
<text text-anchor="start" x="878.5" y="-29.5" font-family="Helvetica,sans-Serif" font-size="10.00">/home/tcbuilder/buildAgent</text>
<text text-anchor="start" x="878.5" y="-18.5" font-family="Helvetica,sans-Serif" font-size="10.00">/work/df8e8cce5bebfd58/libajantv2</text>
<text text-anchor="middle" x="966" y="-7.5" font-family="Helvetica,sans-Serif" font-size="10.00">/ajantv2/src/ntv2testpatterngen.cpp</text>
</a>
</g>
</g>
<!-- Node2&#45;&gt;Node5 -->
<g id="edge4" class="edge">
<title>Node2&#45;&gt;Node5</title>
<path fill="none" stroke="midnightblue" d="M745.05,-75.99C789.66,-65.09 843.06,-52.04 886.18,-41.51"/>
<polygon fill="midnightblue" stroke="midnightblue" points="743.97,-72.65 735.09,-78.43 745.64,-79.45 743.97,-72.65"/>
</g>
<!-- Node6 -->
<g id="node6" class="node">
<title>Node6</title>
<g id="a_node6"><a xlink:href="../../dd/d20/ntv2transcode_8cpp.html" target="_top" xlink:title="Implements a number of pixel format transcoder functions.">
<polygon fill="white" stroke="black" points="458,-0.5 458,-41.5 646,-41.5 646,-0.5 458,-0.5"/>
<text text-anchor="start" x="466" y="-29.5" font-family="Helvetica,sans-Serif" font-size="10.00">/home/tcbuilder/buildAgent</text>
<text text-anchor="start" x="466" y="-18.5" font-family="Helvetica,sans-Serif" font-size="10.00">/work/df8e8cce5bebfd58/libajantv2</text>
<text text-anchor="middle" x="552" y="-7.5" font-family="Helvetica,sans-Serif" font-size="10.00">/ajantv2/src/ntv2transcode.cpp</text>
</a>
</g>
</g>
<!-- Node2&#45;&gt;Node6 -->
<g id="edge5" class="edge">
<title>Node2&#45;&gt;Node6</title>
<path fill="none" stroke="midnightblue" d="M620.24,-72.35C606.58,-62.27 591.16,-50.89 578.44,-41.51"/>
<polygon fill="midnightblue" stroke="midnightblue" points="618.35,-75.31 628.47,-78.43 622.51,-69.67 618.35,-75.31"/>
</g>
<!-- Node7 -->
<g id="node7" class="node">
<title>Node7</title>
<g id="a_node7"><a xlink:href="../../d6/d9b/ntv2utils_8cpp.html" target="_top" xlink:title="Implementations for the NTV2 utility functions.">
<polygon fill="white" stroke="black" points="664,-0.5 664,-41.5 852,-41.5 852,-0.5 664,-0.5"/>
<text text-anchor="start" x="672" y="-29.5" font-family="Helvetica,sans-Serif" font-size="10.00">/home/tcbuilder/buildAgent</text>
<text text-anchor="start" x="672" y="-18.5" font-family="Helvetica,sans-Serif" font-size="10.00">/work/df8e8cce5bebfd58/libajantv2</text>
<text text-anchor="middle" x="758" y="-7.5" font-family="Helvetica,sans-Serif" font-size="10.00">/ajantv2/src/ntv2utils.cpp</text>
</a>
</g>
</g>
<!-- Node2&#45;&gt;Node7 -->
<g id="edge6" class="edge">
<title>Node2&#45;&gt;Node7</title>
<path fill="none" stroke="midnightblue" d="M689.76,-72.35C703.42,-62.27 718.84,-50.89 731.56,-41.51"/>
<polygon fill="midnightblue" stroke="midnightblue" points="687.49,-69.67 681.53,-78.43 691.65,-75.31 687.49,-69.67"/>
</g>
<!-- Node8&#45;&gt;Node5 -->
<g id="edge9" class="edge">
<title>Node8&#45;&gt;Node5</title>
<path fill="none" stroke="midnightblue" d="M998.24,-70.05C991.88,-60.57 984.91,-50.18 979.09,-41.51"/>
<polygon fill="midnightblue" stroke="midnightblue" points="995.39,-72.07 1003.87,-78.43 1001.2,-68.17 995.39,-72.07"/>
</g>
<!-- Node9 -->
<g id="node9" class="node">
<title>Node9</title>
<g id="a_node9"><a xlink:href="../../d0/dab/ntv2resample_8cpp.html" target="_top" xlink:title="Implementations for the pixel resampling functions.">
<polygon fill="white" stroke="black" points="1080,-0.5 1080,-41.5 1268,-41.5 1268,-0.5 1080,-0.5"/>
<text text-anchor="start" x="1088" y="-29.5" font-family="Helvetica,sans-Serif" font-size="10.00">/home/tcbuilder/buildAgent</text>
<text text-anchor="start" x="1088" y="-18.5" font-family="Helvetica,sans-Serif" font-size="10.00">/work/df8e8cce5bebfd58/libajantv2</text>
<text text-anchor="middle" x="1174" y="-7.5" font-family="Helvetica,sans-Serif" font-size="10.00">/ajantv2/src/ntv2resample.cpp</text>
</a>
</g>
</g>
<!-- Node8&#45;&gt;Node9 -->
<g id="edge8" class="edge">
<title>Node8&#45;&gt;Node9</title>
<path fill="none" stroke="midnightblue" d="M1066.48,-74.05C1088.13,-63.57 1113.22,-51.42 1133.71,-41.51"/>
<polygon fill="midnightblue" stroke="midnightblue" points="1064.91,-70.92 1057.43,-78.43 1067.96,-77.22 1064.91,-70.92"/>
</g>
<!-- Node11 -->
<g id="node11" class="node">
<title>Node11</title>
<g id="a_node11"><a xlink:href="../../dc/d47/ntv2verticalfilter_8cpp.html" target="_top" xlink:title="Implementations of the VerticalFilterLine and FieldInterpolateLine functions.">
<polygon fill="white" stroke="black" points="1286,-0.5 1286,-41.5 1474,-41.5 1474,-0.5 1286,-0.5"/>
<text text-anchor="start" x="1294" y="-29.5" font-family="Helvetica,sans-Serif" font-size="10.00">/home/tcbuilder/buildAgent</text>
<text text-anchor="start" x="1294" y="-18.5" font-family="Helvetica,sans-Serif" font-size="10.00">/work/df8e8cce5bebfd58/libajantv2</text>
<text text-anchor="middle" x="1380" y="-7.5" font-family="Helvetica,sans-Serif" font-size="10.00">/ajantv2/src/ntv2verticalfilter.cpp</text>
</a>
</g>
</g>
<!-- Node10&#45;&gt;Node11 -->
<g id="edge11" class="edge">
<title>Node10&#45;&gt;Node11</title>
<path fill="none" stroke="midnightblue" d="M1347.13,-70.05C1353.61,-60.57 1360.72,-50.18 1366.65,-41.51"/>
<polygon fill="midnightblue" stroke="midnightblue" points="1344.15,-68.2 1341.39,-78.43 1349.93,-72.15 1344.15,-68.2"/>
</g>
</g>
</svg>
