<?xml version="1.0" encoding="UTF-8" standalone="no"?>
<!DOCTYPE svg PUBLIC "-//W3C//DTD SVG 1.1//EN"
 "http://www.w3.org/Graphics/SVG/1.1/DTD/svg11.dtd">
<!-- Generated by graphviz version 2.43.0 (0)
 -->
<!-- Title: /home/tcbuilder/buildAgent/work/df8e8cce5bebfd58/libajantv2/ajaanc/src/ancillarydatafactory.cpp Pages: 1 -->
<!--zoomable 520 -->
<svg id="main" version="1.1" xmlns="http://www.w3.org/2000/svg" xmlns:xlink="http://www.w3.org/1999/xlink" xml:space="preserve" onload="init(evt)">
<style type="text/css"><![CDATA[
.edge:hover path { stroke: red; }
.edge:hover polygon { stroke: red; fill: red; }
]]></style>
<script type="text/javascript"><![CDATA[
var edges = document.getElementsByTagName('g');
if (edges && edges.length) {
  for (var i=0;i<edges.length;i++) {
    if (edges[i].id.substr(0,4)=='edge') {
      edges[i].setAttribute('class','edge');
    }
  }
}
]]></script>
        <defs>
                <circle id="rim" cx="0" cy="0" r="7"/>
                <circle id="rim2" cx="0" cy="0" r="3.5"/>
                <g id="zoomPlus">
                        <use xlink:href="#rim" fill="#404040">
                                <set attributeName="fill" to="#808080" begin="zoomplus.mouseover" end="zoomplus.mouseout"/>
                        </use>
                        <path d="M-4,0h8M0,-4v8" fill="none" stroke="white" stroke-width="1.5" pointer-events="none"/>
                </g>
                <g id="zoomMin">
                        <use xlink:href="#rim" fill="#404040">
                                <set attributeName="fill" to="#808080" begin="zoomminus.mouseover" end="zoomminus.mouseout"/>
                        </use>
                        <path d="M-4,0h8" fill="none" stroke="white" stroke-width="1.5" pointer-events="none"/>
                </g>
                <g id="dirArrow">
                        <path fill="none" stroke="white" stroke-width="1.5" d="M0,-3.0v7 M-2.5,-0.5L0,-3.0L2.5,-0.5"/>
                </g>
               <g id="resetDef">
                       <use xlink:href="#rim2" fill="#404040">
                               <set attributeName="fill" to="#808080" begin="reset.mouseover" end="reset.mouseout"/>
                       </use>
               </g>
        </defs>

<script type="text/javascript">
var viewWidth = 1548;
var viewHeight = 520;
var sectionId = 'dynsection-0';
</script>
<script xlink:href="../../svgpan.js"/>
<svg id="graph" class="graph">
<g id="viewport">
<title>/home/tcbuilder/buildAgent/work/df8e8cce5bebfd58/libajantv2/ajaanc/src/ancillarydatafactory.cpp</title>
<polygon fill="white" stroke="transparent" points="-4,4 -4,-516 1543.7,-516 1543.7,4 -4,4"/>
<!-- Node1 -->
<g id="node1" class="node">
<title>Node1</title>
<g id="a_node1"><a xlink:title="Implementation of the AJAAncillaryDataFactory class.">
<polygon fill="#bfbfbf" stroke="black" points="726.9,-470.5 726.9,-511.5 915.9,-511.5 915.9,-470.5 726.9,-470.5"/>
<text text-anchor="start" x="734.9" y="-499.5" font-family="Helvetica,sans-Serif" font-size="10.00">/home/tcbuilder/buildAgent</text>
<text text-anchor="start" x="734.9" y="-488.5" font-family="Helvetica,sans-Serif" font-size="10.00">/work/df8e8cce5bebfd58/libajantv2</text>
<text text-anchor="middle" x="821.4" y="-477.5" font-family="Helvetica,sans-Serif" font-size="10.00">/ajaanc/src/ancillarydatafactory.cpp</text>
</a>
</g>
</g>
<!-- Node2 -->
<g id="node2" class="node">
<title>Node2</title>
<g id="a_node2"><a xlink:href="../../df/d78/ancillarydatafactory_8h.html" target="_top" xlink:title="Declaration of the AJAAncillaryDataFactory class.">
<polygon fill="white" stroke="black" points="615.4,-280.5 615.4,-299.5 737.4,-299.5 737.4,-280.5 615.4,-280.5"/>
<text text-anchor="middle" x="676.4" y="-287.5" font-family="Helvetica,sans-Serif" font-size="10.00">ancillarydatafactory.h</text>
</a>
</g>
</g>
<!-- Node1&#45;&gt;Node2 -->
<g id="edge1" class="edge">
<title>Node1&#45;&gt;Node2</title>
<path fill="none" stroke="midnightblue" d="M730.22,-470.47C711.58,-462.25 694.1,-450.58 682.4,-434 655.96,-396.56 664.5,-338.84 671.34,-309.5"/>
<polygon fill="midnightblue" stroke="midnightblue" points="674.75,-310.3 673.81,-299.74 667.97,-308.58 674.75,-310.3"/>
</g>
<!-- Node3 -->
<g id="node3" class="node">
<title>Node3</title>
<g id="a_node3"><a xlink:href="../../d7/d92/ancillarydata_8h.html" target="_top" xlink:title="Declares the AJAAncillaryData class.">
<polygon fill="white" stroke="black" points="720.9,-224.5 720.9,-243.5 809.9,-243.5 809.9,-224.5 720.9,-224.5"/>
<text text-anchor="middle" x="765.4" y="-231.5" font-family="Helvetica,sans-Serif" font-size="10.00">ancillarydata.h</text>
</a>
</g>
</g>
<!-- Node1&#45;&gt;Node3 -->
<g id="edge27" class="edge">
<title>Node1&#45;&gt;Node3</title>
<path fill="none" stroke="midnightblue" d="M916.13,-485.39C1126.88,-473.32 1609.94,-434.58 1530.4,-336 1485.7,-280.6 987.87,-247.57 820.17,-237.95"/>
<polygon fill="midnightblue" stroke="midnightblue" points="820.26,-234.45 810.07,-237.38 819.86,-241.44 820.26,-234.45"/>
</g>
<!-- Node21 -->
<g id="node21" class="node">
<title>Node21</title>
<g id="a_node21"><a xlink:href="../../d5/d41/ancillarydata__timecode__atc_8h.html" target="_top" xlink:title="Declares the AJAAncillaryData_Timecode_ATC class.">
<polygon fill="white" stroke="black" points="486.9,-403.5 486.9,-433.5 617.9,-433.5 617.9,-403.5 486.9,-403.5"/>
<text text-anchor="start" x="494.9" y="-421.5" font-family="Helvetica,sans-Serif" font-size="10.00">ancillarydata_timecode</text>
<text text-anchor="middle" x="552.4" y="-410.5" font-family="Helvetica,sans-Serif" font-size="10.00">_atc.h</text>
</a>
</g>
</g>
<!-- Node1&#45;&gt;Node21 -->
<g id="edge28" class="edge">
<title>Node1&#45;&gt;Node21</title>
<path fill="none" stroke="midnightblue" d="M746.82,-470.46C705.68,-459.67 655.14,-446.43 615.9,-436.14"/>
<polygon fill="midnightblue" stroke="midnightblue" points="616.75,-432.75 606.18,-433.6 614.97,-439.52 616.75,-432.75"/>
</g>
<!-- Node29 -->
<g id="node29" class="node">
<title>Node29</title>
<g id="a_node29"><a xlink:href="../../d4/d69/ancillarydata__timecode__vitc_8h.html" target="_top" xlink:title="Declares the AJAAncillaryData_Timecode_VITC class.">
<polygon fill="white" stroke="black" points="250.9,-403.5 250.9,-433.5 381.9,-433.5 381.9,-403.5 250.9,-403.5"/>
<text text-anchor="start" x="258.9" y="-421.5" font-family="Helvetica,sans-Serif" font-size="10.00">ancillarydata_timecode</text>
<text text-anchor="middle" x="316.4" y="-410.5" font-family="Helvetica,sans-Serif" font-size="10.00">_vitc.h</text>
</a>
</g>
</g>
<!-- Node1&#45;&gt;Node29 -->
<g id="edge45" class="edge">
<title>Node1&#45;&gt;Node29</title>
<path fill="none" stroke="midnightblue" d="M726.71,-476.78C629.91,-463.27 481.46,-442.54 392.16,-430.08"/>
<polygon fill="midnightblue" stroke="midnightblue" points="392.5,-426.59 382.11,-428.67 391.53,-433.52 392.5,-426.59"/>
</g>
<!-- Node30 -->
<g id="node30" class="node">
<title>Node30</title>
<g id="a_node30"><a xlink:href="../../d1/d0a/ancillarydata__cea708_8h.html" target="_top" xlink:title="Declares the AJAAncillaryData_Cea708 class.">
<polygon fill="white" stroke="black" points="379.4,-342 379.4,-361 509.4,-361 509.4,-342 379.4,-342"/>
<text text-anchor="middle" x="444.4" y="-349" font-family="Helvetica,sans-Serif" font-size="10.00">ancillarydata_cea708.h</text>
</a>
</g>
</g>
<!-- Node1&#45;&gt;Node30 -->
<g id="edge49" class="edge">
<title>Node1&#45;&gt;Node30</title>
<path fill="none" stroke="midnightblue" d="M726.85,-484.9C638.59,-478.35 514.99,-464.01 477.4,-434 458.04,-418.55 449.96,-389.95 446.65,-371.07"/>
<polygon fill="midnightblue" stroke="midnightblue" points="450.08,-370.4 445.16,-361.01 443.16,-371.42 450.08,-370.4"/>
</g>
<!-- Node31 -->
<g id="node31" class="node">
<title>Node31</title>
<g id="a_node31"><a xlink:href="../../d8/d19/ancillarydata__cea608__vanc_8h.html" target="_top" xlink:title="Declares the AJAAncillaryData_Cea608_Vanc class.">
<polygon fill="white" stroke="black" points="691.9,-403.5 691.9,-433.5 812.9,-433.5 812.9,-403.5 691.9,-403.5"/>
<text text-anchor="start" x="699.9" y="-421.5" font-family="Helvetica,sans-Serif" font-size="10.00">ancillarydata_cea608</text>
<text text-anchor="middle" x="752.4" y="-410.5" font-family="Helvetica,sans-Serif" font-size="10.00">_vanc.h</text>
</a>
</g>
</g>
<!-- Node1&#45;&gt;Node31 -->
<g id="edge52" class="edge">
<title>Node1&#45;&gt;Node31</title>
<path fill="none" stroke="midnightblue" d="M802.18,-470.36C793.33,-461.32 782.8,-450.57 773.71,-441.28"/>
<polygon fill="midnightblue" stroke="midnightblue" points="775.98,-438.59 766.48,-433.89 770.98,-443.49 775.98,-438.59"/>
</g>
<!-- Node33 -->
<g id="node33" class="node">
<title>Node33</title>
<g id="a_node33"><a xlink:href="../../df/d6a/ancillarydata__cea608__line21_8h.html" target="_top" xlink:title="Declares the AJAAncillaryData_Cea608_line21 class.">
<polygon fill="white" stroke="black" points="830.9,-403.5 830.9,-433.5 951.9,-433.5 951.9,-403.5 830.9,-403.5"/>
<text text-anchor="start" x="838.9" y="-421.5" font-family="Helvetica,sans-Serif" font-size="10.00">ancillarydata_cea608</text>
<text text-anchor="middle" x="891.4" y="-410.5" font-family="Helvetica,sans-Serif" font-size="10.00">_line21.h</text>
</a>
</g>
</g>
<!-- Node1&#45;&gt;Node33 -->
<g id="edge58" class="edge">
<title>Node1&#45;&gt;Node33</title>
<path fill="none" stroke="midnightblue" d="M840.9,-470.36C849.96,-461.23 860.77,-450.35 870.05,-441"/>
<polygon fill="midnightblue" stroke="midnightblue" points="872.55,-443.45 877.11,-433.89 867.58,-438.52 872.55,-443.45"/>
</g>
<!-- Node34 -->
<g id="node34" class="node">
<title>Node34</title>
<g id="a_node34"><a xlink:href="../../d2/d55/ancillarydata__framestatusinfo524_d_8h.html" target="_top" xlink:title="Declares the AJAAncillaryData_FrameStatusInfo524D class.">
<polygon fill="white" stroke="black" points="941.4,-342 941.4,-361 1139.4,-361 1139.4,-342 941.4,-342"/>
<text text-anchor="middle" x="1040.4" y="-349" font-family="Helvetica,sans-Serif" font-size="10.00">ancillarydata_framestatusinfo524D.h</text>
</a>
</g>
</g>
<!-- Node1&#45;&gt;Node34 -->
<g id="edge62" class="edge">
<title>Node1&#45;&gt;Node34</title>
<path fill="none" stroke="midnightblue" d="M885.37,-470.5C909.95,-461.43 937.57,-449.24 960.4,-434 987.6,-415.83 1012.97,-387.23 1027.57,-369.19"/>
<polygon fill="midnightblue" stroke="midnightblue" points="1030.37,-371.28 1033.83,-361.27 1024.88,-366.94 1030.37,-371.28"/>
</g>
<!-- Node35 -->
<g id="node35" class="node">
<title>Node35</title>
<g id="a_node35"><a xlink:href="../../d1/df1/ancillarydata__framestatusinfo5251_8h.html" target="_top" xlink:title="Declares the AJAAncillaryData_FrameStatusInfo5251 class.">
<polygon fill="white" stroke="black" points="1195.9,-342 1195.9,-361 1392.9,-361 1392.9,-342 1195.9,-342"/>
<text text-anchor="middle" x="1294.4" y="-349" font-family="Helvetica,sans-Serif" font-size="10.00">ancillarydata_framestatusinfo5251.h</text>
</a>
</g>
</g>
<!-- Node1&#45;&gt;Node35 -->
<g id="edge65" class="edge">
<title>Node1&#45;&gt;Node35</title>
<path fill="none" stroke="midnightblue" d="M888.66,-470.45C988.95,-441.29 1174.48,-387.36 1255.19,-363.9"/>
<polygon fill="midnightblue" stroke="midnightblue" points="1256.33,-367.21 1264.96,-361.06 1254.38,-360.49 1256.33,-367.21"/>
</g>
<!-- Node36 -->
<g id="node36" class="node">
<title>Node36</title>
<g id="a_node36"><a xlink:href="../../d1/d44/ancillarydata__hdmi__aux_8h.html" target="_top" xlink:title=" ">
<polygon fill="white" stroke="black" points="1411.4,-336.5 1411.4,-366.5 1521.4,-366.5 1521.4,-336.5 1411.4,-336.5"/>
<text text-anchor="start" x="1419.4" y="-354.5" font-family="Helvetica,sans-Serif" font-size="10.00">ancillarydata_hdmi</text>
<text text-anchor="middle" x="1466.4" y="-343.5" font-family="Helvetica,sans-Serif" font-size="10.00">_aux.h</text>
</a>
</g>
</g>
<!-- Node1&#45;&gt;Node36 -->
<g id="edge68" class="edge">
<title>Node1&#45;&gt;Node36</title>
<path fill="none" stroke="midnightblue" d="M915.57,-470.49C1028.49,-447 1223.72,-406.08 1401.46,-367.19"/>
<polygon fill="midnightblue" stroke="midnightblue" points="1402.23,-370.6 1411.25,-365.05 1400.73,-363.77 1402.23,-370.6"/>
</g>
<!-- Node2&#45;&gt;Node3 -->
<g id="edge2" class="edge">
<title>Node2&#45;&gt;Node3</title>
<path fill="none" stroke="midnightblue" d="M690.7,-280.32C704.58,-271.9 725.89,-258.97 742.2,-249.07"/>
<polygon fill="midnightblue" stroke="midnightblue" points="744.4,-251.83 751.13,-243.65 740.77,-245.85 744.4,-251.83"/>
</g>
<!-- Node4 -->
<g id="node4" class="node">
<title>Node4</title>
<g id="a_node4"><a xlink:href="../../db/de2/ajatypes_8h.html" target="_top" xlink:title="Declares the most fundamental data types used by NTV2. Since Windows NT was the first principal devel...">
<polygon fill="white" stroke="black" points="935.4,-56.5 935.4,-75.5 1003.4,-75.5 1003.4,-56.5 935.4,-56.5"/>
<text text-anchor="middle" x="969.4" y="-63.5" font-family="Helvetica,sans-Serif" font-size="10.00">ajatypes.h</text>
</a>
</g>
</g>
<!-- Node3&#45;&gt;Node4 -->
<g id="edge3" class="edge">
<title>Node3&#45;&gt;Node4</title>
<path fill="none" stroke="midnightblue" d="M720.76,-229.97C583.37,-219.84 180.05,-183.68 247.4,-112 270.68,-87.22 771.21,-72.16 924.91,-68.11"/>
<polygon fill="midnightblue" stroke="midnightblue" points="925.46,-71.6 935.36,-67.84 925.28,-64.6 925.46,-71.6"/>
</g>
<!-- Node6 -->
<g id="node6" class="node">
<title>Node6</title>
<g id="a_node6"><a xlink:href="../../d6/db1/ntv2version_8h.html" target="_top" xlink:title="Defines for the NTV2 SDK version number, used by ajantv2/includes/ntv2enums.h. See the ajantv2/includ...">
<polygon fill="white" stroke="black" points="1298.9,-56.5 1298.9,-75.5 1381.9,-75.5 1381.9,-56.5 1298.9,-56.5"/>
<text text-anchor="middle" x="1340.4" y="-63.5" font-family="Helvetica,sans-Serif" font-size="10.00">ntv2version.h</text>
</a>
</g>
</g>
<!-- Node3&#45;&gt;Node6 -->
<g id="edge5" class="edge">
<title>Node3&#45;&gt;Node6</title>
<path fill="none" stroke="midnightblue" d="M810.23,-233.36C945.8,-233.4 1347.1,-225.48 1427.4,-132 1446.49,-109.77 1410.33,-90.58 1378.97,-78.92"/>
<polygon fill="midnightblue" stroke="midnightblue" points="1380.06,-75.59 1369.46,-75.55 1377.72,-82.19 1380.06,-75.59"/>
</g>
<!-- Node9 -->
<g id="node9" class="node">
<title>Node9</title>
<g id="a_node9"><a xlink:href="../../d9/d49/types_8h.html" target="_top" xlink:title="Declares common types used in the ajabase library.">
<polygon fill="white" stroke="black" points="256.4,-112.5 256.4,-131.5 396.4,-131.5 396.4,-112.5 256.4,-112.5"/>
<text text-anchor="middle" x="326.4" y="-119.5" font-family="Helvetica,sans-Serif" font-size="10.00">ajabase/common/types.h</text>
</a>
</g>
</g>
<!-- Node3&#45;&gt;Node9 -->
<g id="edge8" class="edge">
<title>Node3&#45;&gt;Node9</title>
<path fill="none" stroke="midnightblue" d="M720.6,-227.24C669.66,-220.19 584.25,-206.82 512.4,-188 456.44,-173.35 393.25,-149.69 356.8,-135.32"/>
<polygon fill="midnightblue" stroke="midnightblue" points="357.84,-131.97 347.26,-131.53 355.26,-138.47 357.84,-131.97"/>
</g>
<!-- Node10 -->
<g id="node10" class="node">
<title>Node10</title>
<g id="a_node10"><a xlink:href="../../d4/dd7/ntv2publicinterface_8h.html" target="_top" xlink:title="Declares enums and structs used by all platform drivers and the SDK.">
<polygon fill="white" stroke="black" points="910.4,-168.5 910.4,-187.5 1030.4,-187.5 1030.4,-168.5 910.4,-168.5"/>
<text text-anchor="middle" x="970.4" y="-175.5" font-family="Helvetica,sans-Serif" font-size="10.00">ntv2publicinterface.h</text>
</a>
</g>
</g>
<!-- Node3&#45;&gt;Node10 -->
<g id="edge9" class="edge">
<title>Node3&#45;&gt;Node10</title>
<path fill="none" stroke="midnightblue" d="M797.88,-224.44C833.12,-215.16 889.5,-200.31 928.16,-190.13"/>
<polygon fill="midnightblue" stroke="midnightblue" points="929.29,-193.45 938.07,-187.52 927.5,-186.68 929.29,-193.45"/>
</g>
<!-- Node15 -->
<g id="node15" class="node">
<title>Node15</title>
<g id="a_node15"><a xlink:title=" ">
<polygon fill="white" stroke="#bfbfbf" points="664.9,-112.5 664.9,-131.5 711.9,-131.5 711.9,-112.5 664.9,-112.5"/>
<text text-anchor="middle" x="688.4" y="-119.5" font-family="Helvetica,sans-Serif" font-size="10.00">vector</text>
</a>
</g>
</g>
<!-- Node3&#45;&gt;Node15 -->
<g id="edge26" class="edge">
<title>Node3&#45;&gt;Node15</title>
<path fill="none" stroke="midnightblue" d="M757.66,-224.32C749.9,-215.46 737.8,-201.17 728.4,-188 717.36,-172.53 706.13,-153.99 698.39,-140.68"/>
<polygon fill="midnightblue" stroke="midnightblue" points="701.23,-138.59 693.22,-131.65 695.16,-142.07 701.23,-138.59"/>
</g>
<!-- Node20 -->
<g id="node20" class="node">
<title>Node20</title>
<g id="a_node20"><a xlink:title=" ">
<polygon fill="white" stroke="#bfbfbf" points="737.4,-168.5 737.4,-187.5 793.4,-187.5 793.4,-168.5 737.4,-168.5"/>
<text text-anchor="middle" x="765.4" y="-175.5" font-family="Helvetica,sans-Serif" font-size="10.00">sstream</text>
</a>
</g>
</g>
<!-- Node3&#45;&gt;Node20 -->
<g id="edge25" class="edge">
<title>Node3&#45;&gt;Node20</title>
<path fill="none" stroke="midnightblue" d="M765.4,-224.08C765.4,-217.01 765.4,-206.86 765.4,-197.99"/>
<polygon fill="midnightblue" stroke="midnightblue" points="768.9,-197.75 765.4,-187.75 761.9,-197.75 768.9,-197.75"/>
</g>
<!-- Node5 -->
<g id="node5" class="node">
<title>Node5</title>
<g id="a_node5"><a xlink:title=" ">
<polygon fill="white" stroke="#bfbfbf" points="942.9,-0.5 942.9,-19.5 995.9,-19.5 995.9,-0.5 942.9,-0.5"/>
<text text-anchor="middle" x="969.4" y="-7.5" font-family="Helvetica,sans-Serif" font-size="10.00">stdint.h</text>
</a>
</g>
</g>
<!-- Node4&#45;&gt;Node5 -->
<g id="edge4" class="edge">
<title>Node4&#45;&gt;Node5</title>
<path fill="none" stroke="midnightblue" d="M969.4,-56.08C969.4,-49.01 969.4,-38.86 969.4,-29.99"/>
<polygon fill="midnightblue" stroke="midnightblue" points="972.9,-29.75 969.4,-19.75 965.9,-29.75 972.9,-29.75"/>
</g>
<!-- Node7 -->
<g id="node7" class="node">
<title>Node7</title>
<g id="a_node7"><a xlink:href="../../d6/dd9/ajaexport_8h.html" target="_top" xlink:title="Defines the import/export macros for producing DLLs or LIBs.">
<polygon fill="white" stroke="black" points="1307.4,-0.5 1307.4,-19.5 1379.4,-19.5 1379.4,-0.5 1307.4,-0.5"/>
<text text-anchor="middle" x="1343.4" y="-7.5" font-family="Helvetica,sans-Serif" font-size="10.00">ajaexport.h</text>
</a>
</g>
</g>
<!-- Node6&#45;&gt;Node7 -->
<g id="edge6" class="edge">
<title>Node6&#45;&gt;Node7</title>
<path fill="none" stroke="midnightblue" d="M1340.89,-56.08C1341.29,-49.01 1341.85,-38.86 1342.34,-29.99"/>
<polygon fill="midnightblue" stroke="midnightblue" points="1345.85,-29.93 1342.91,-19.75 1338.86,-29.54 1345.85,-29.93"/>
</g>
<!-- Node8 -->
<g id="node8" class="node">
<title>Node8</title>
<g id="a_node8"><a xlink:title=" ">
<polygon fill="white" stroke="#bfbfbf" points="1210.4,-0.5 1210.4,-19.5 1254.4,-19.5 1254.4,-0.5 1210.4,-0.5"/>
<text text-anchor="middle" x="1232.4" y="-7.5" font-family="Helvetica,sans-Serif" font-size="10.00">string</text>
</a>
</g>
</g>
<!-- Node6&#45;&gt;Node8 -->
<g id="edge7" class="edge">
<title>Node6&#45;&gt;Node8</title>
<path fill="none" stroke="midnightblue" d="M1323.04,-56.32C1305.73,-47.66 1278.88,-34.24 1258.9,-24.25"/>
<polygon fill="midnightblue" stroke="midnightblue" points="1260.22,-21 1249.71,-19.65 1257.08,-27.26 1260.22,-21"/>
</g>
<!-- Node10&#45;&gt;Node4 -->
<g id="edge10" class="edge">
<title>Node10&#45;&gt;Node4</title>
<path fill="none" stroke="midnightblue" d="M916.75,-168.43C877.04,-160.86 827.76,-148.47 815.4,-132 784.64,-91.04 869.51,-75.66 925.18,-70.06"/>
<polygon fill="midnightblue" stroke="midnightblue" points="925.57,-73.54 935.2,-69.13 924.92,-66.57 925.57,-73.54"/>
</g>
<!-- Node10&#45;&gt;Node7 -->
<g id="edge22" class="edge">
<title>Node10&#45;&gt;Node7</title>
<path fill="none" stroke="midnightblue" d="M1030.52,-175.49C1148.51,-171.89 1401.23,-160.87 1427.4,-132 1459.24,-96.86 1400.88,-49.14 1366.29,-25.51"/>
<polygon fill="midnightblue" stroke="midnightblue" points="1367.93,-22.39 1357.66,-19.77 1364.05,-28.22 1367.93,-22.39"/>
</g>
<!-- Node10&#45;&gt;Node8 -->
<g id="edge18" class="edge">
<title>Node10&#45;&gt;Node8</title>
<path fill="none" stroke="midnightblue" d="M1030.46,-173.67C1094.05,-168.83 1188.6,-157.48 1213.4,-132 1240,-104.66 1238.65,-56.23 1235.46,-29.68"/>
<polygon fill="midnightblue" stroke="midnightblue" points="1238.92,-29.18 1234.05,-19.77 1231.99,-30.17 1238.92,-29.18"/>
</g>
<!-- Node11 -->
<g id="node11" class="node">
<title>Node11</title>
<g id="a_node11"><a xlink:href="../../d6/d0c/ntv2enums_8h.html" target="_top" xlink:title="Enumerations for controlling NTV2 devices.">
<polygon fill="white" stroke="black" points="1260.4,-112.5 1260.4,-131.5 1340.4,-131.5 1340.4,-112.5 1260.4,-112.5"/>
<text text-anchor="middle" x="1300.4" y="-119.5" font-family="Helvetica,sans-Serif" font-size="10.00">ntv2enums.h</text>
</a>
</g>
</g>
<!-- Node10&#45;&gt;Node11 -->
<g id="edge11" class="edge">
<title>Node10&#45;&gt;Node11</title>
<path fill="none" stroke="midnightblue" d="M1023.06,-168.47C1078.61,-159.46 1168.67,-144.81 1246.4,-132 1247.66,-131.79 1248.95,-131.58 1250.24,-131.37"/>
<polygon fill="midnightblue" stroke="midnightblue" points="1251,-134.79 1260.3,-129.7 1249.86,-127.88 1251,-134.79"/>
</g>
<!-- Node12 -->
<g id="node12" class="node">
<title>Node12</title>
<g id="a_node12"><a xlink:title=" ">
<polygon fill="white" stroke="#bfbfbf" points="1358.4,-112.5 1358.4,-131.5 1418.4,-131.5 1418.4,-112.5 1358.4,-112.5"/>
<text text-anchor="middle" x="1388.4" y="-119.5" font-family="Helvetica,sans-Serif" font-size="10.00">iostream</text>
</a>
</g>
</g>
<!-- Node10&#45;&gt;Node12 -->
<g id="edge14" class="edge">
<title>Node10&#45;&gt;Node12</title>
<path fill="none" stroke="midnightblue" d="M1030.42,-171.9C1103.35,-165.26 1230.27,-152.24 1348.3,-132.02"/>
<polygon fill="midnightblue" stroke="midnightblue" points="1348.97,-135.46 1358.23,-130.3 1347.78,-128.56 1348.97,-135.46"/>
</g>
<!-- Node13 -->
<g id="node13" class="node">
<title>Node13</title>
<g id="a_node13"><a xlink:title=" ">
<polygon fill="white" stroke="#bfbfbf" points="824.4,-112.5 824.4,-131.5 856.4,-131.5 856.4,-112.5 824.4,-112.5"/>
<text text-anchor="middle" x="840.4" y="-119.5" font-family="Helvetica,sans-Serif" font-size="10.00">set</text>
</a>
</g>
</g>
<!-- Node10&#45;&gt;Node13 -->
<g id="edge15" class="edge">
<title>Node10&#45;&gt;Node13</title>
<path fill="none" stroke="midnightblue" d="M949.8,-168.44C927.15,-159.03 890.71,-143.9 866.18,-133.71"/>
<polygon fill="midnightblue" stroke="midnightblue" points="867.36,-130.41 856.78,-129.81 864.68,-136.88 867.36,-130.41"/>
</g>
<!-- Node14 -->
<g id="node14" class="node">
<title>Node14</title>
<g id="a_node14"><a xlink:title=" ">
<polygon fill="white" stroke="#bfbfbf" points="730.4,-112.5 730.4,-131.5 768.4,-131.5 768.4,-112.5 730.4,-112.5"/>
<text text-anchor="middle" x="749.4" y="-119.5" font-family="Helvetica,sans-Serif" font-size="10.00">map</text>
</a>
</g>
</g>
<!-- Node10&#45;&gt;Node14 -->
<g id="edge16" class="edge">
<title>Node10&#45;&gt;Node14</title>
<path fill="none" stroke="midnightblue" d="M933.21,-168.46C895.23,-159.65 834.58,-145.36 782.4,-132 781.13,-131.68 779.85,-131.34 778.55,-131"/>
<polygon fill="midnightblue" stroke="midnightblue" points="779.13,-127.54 768.56,-128.34 777.32,-134.3 779.13,-127.54"/>
</g>
<!-- Node10&#45;&gt;Node15 -->
<g id="edge17" class="edge">
<title>Node10&#45;&gt;Node15</title>
<path fill="none" stroke="midnightblue" d="M915.23,-168.45C866.86,-160.64 794.46,-148.16 722.3,-132.04"/>
<polygon fill="midnightblue" stroke="midnightblue" points="722.65,-128.53 712.13,-129.74 721.11,-135.36 722.65,-128.53"/>
</g>
<!-- Node16 -->
<g id="node16" class="node">
<title>Node16</title>
<g id="a_node16"><a xlink:title=" ">
<polygon fill="white" stroke="#bfbfbf" points="874.4,-112.5 874.4,-131.5 930.4,-131.5 930.4,-112.5 874.4,-112.5"/>
<text text-anchor="middle" x="902.4" y="-119.5" font-family="Helvetica,sans-Serif" font-size="10.00">iomanip</text>
</a>
</g>
</g>
<!-- Node10&#45;&gt;Node16 -->
<g id="edge19" class="edge">
<title>Node10&#45;&gt;Node16</title>
<path fill="none" stroke="midnightblue" d="M959.47,-168.32C949.22,-160.18 933.68,-147.84 921.4,-138.09"/>
<polygon fill="midnightblue" stroke="midnightblue" points="923.53,-135.31 913.52,-131.83 919.18,-140.79 923.53,-135.31"/>
</g>
<!-- Node17 -->
<g id="node17" class="node">
<title>Node17</title>
<g id="a_node17"><a xlink:title=" ">
<polygon fill="white" stroke="#bfbfbf" points="948.4,-112.5 948.4,-131.5 992.4,-131.5 992.4,-112.5 948.4,-112.5"/>
<text text-anchor="middle" x="970.4" y="-119.5" font-family="Helvetica,sans-Serif" font-size="10.00">bitset</text>
</a>
</g>
</g>
<!-- Node10&#45;&gt;Node17 -->
<g id="edge20" class="edge">
<title>Node10&#45;&gt;Node17</title>
<path fill="none" stroke="midnightblue" d="M970.4,-168.08C970.4,-161.01 970.4,-150.86 970.4,-141.99"/>
<polygon fill="midnightblue" stroke="midnightblue" points="973.9,-141.75 970.4,-131.75 966.9,-141.75 973.9,-141.75"/>
</g>
<!-- Node18 -->
<g id="node18" class="node">
<title>Node18</title>
<g id="a_node18"><a xlink:title=" ">
<polygon fill="white" stroke="#bfbfbf" points="1010.9,-112.5 1010.9,-131.5 1063.9,-131.5 1063.9,-112.5 1010.9,-112.5"/>
<text text-anchor="middle" x="1037.4" y="-119.5" font-family="Helvetica,sans-Serif" font-size="10.00">string.h</text>
</a>
</g>
</g>
<!-- Node10&#45;&gt;Node18 -->
<g id="edge21" class="edge">
<title>Node10&#45;&gt;Node18</title>
<path fill="none" stroke="midnightblue" d="M981.16,-168.32C991.16,-160.26 1006.28,-148.08 1018.33,-138.37"/>
<polygon fill="midnightblue" stroke="midnightblue" points="1020.85,-140.83 1026.44,-131.83 1016.45,-135.38 1020.85,-140.83"/>
</g>
<!-- Node19 -->
<g id="node19" class="node">
<title>Node19</title>
<g id="a_node19"><a xlink:href="../../da/df0/ntv2virtualregisters_8h.html" target="_top" xlink:title="Declares enums for virtual registers used in all platform drivers and the SDK.">
<polygon fill="white" stroke="black" points="1082.4,-112.5 1082.4,-131.5 1204.4,-131.5 1204.4,-112.5 1082.4,-112.5"/>
<text text-anchor="middle" x="1143.4" y="-119.5" font-family="Helvetica,sans-Serif" font-size="10.00">ntv2virtualregisters.h</text>
</a>
</g>
</g>
<!-- Node10&#45;&gt;Node19 -->
<g id="edge23" class="edge">
<title>Node10&#45;&gt;Node19</title>
<path fill="none" stroke="midnightblue" d="M997.81,-168.44C1027.17,-159.28 1073.92,-144.69 1106.49,-134.52"/>
<polygon fill="midnightblue" stroke="midnightblue" points="1107.61,-137.84 1116.11,-131.52 1105.52,-131.16 1107.61,-137.84"/>
</g>
<!-- Node11&#45;&gt;Node4 -->
<g id="edge12" class="edge">
<title>Node11&#45;&gt;Node4</title>
<path fill="none" stroke="midnightblue" d="M1260.14,-114.43C1197.83,-104.27 1078.49,-84.8 1013.77,-74.24"/>
<polygon fill="midnightblue" stroke="midnightblue" points="1014.3,-70.78 1003.87,-72.62 1013.17,-77.69 1014.3,-70.78"/>
</g>
<!-- Node11&#45;&gt;Node6 -->
<g id="edge13" class="edge">
<title>Node11&#45;&gt;Node6</title>
<path fill="none" stroke="midnightblue" d="M1307,-112.08C1312.65,-104.46 1320.94,-93.26 1327.85,-83.94"/>
<polygon fill="midnightblue" stroke="midnightblue" points="1330.77,-85.87 1333.91,-75.75 1325.15,-81.7 1330.77,-85.87"/>
</g>
<!-- Node19&#45;&gt;Node4 -->
<g id="edge24" class="edge">
<title>Node19&#45;&gt;Node4</title>
<path fill="none" stroke="midnightblue" d="M1115.83,-112.44C1086.3,-103.28 1039.28,-88.69 1006.51,-78.52"/>
<polygon fill="midnightblue" stroke="midnightblue" points="1007.43,-75.14 996.84,-75.52 1005.35,-81.82 1007.43,-75.14"/>
</g>
<!-- Node21&#45;&gt;Node2 -->
<g id="edge29" class="edge">
<title>Node21&#45;&gt;Node2</title>
<path fill="none" stroke="midnightblue" d="M566.14,-403.48C589.36,-379.8 636.19,-332.02 660.68,-307.04"/>
<polygon fill="midnightblue" stroke="midnightblue" points="663.28,-309.38 667.78,-299.79 658.28,-304.48 663.28,-309.38"/>
</g>
<!-- Node21&#45;&gt;Node3 -->
<g id="edge30" class="edge">
<title>Node21&#45;&gt;Node3</title>
<path fill="none" stroke="midnightblue" d="M553.88,-403.09C557.53,-375.15 569.53,-313.41 606.4,-280 634.81,-254.25 676.91,-243.12 710.64,-238.37"/>
<polygon fill="midnightblue" stroke="midnightblue" points="711.34,-241.81 720.82,-237.09 710.46,-234.86 711.34,-241.81"/>
</g>
<!-- Node22 -->
<g id="node22" class="node">
<title>Node22</title>
<g id="a_node22"><a xlink:href="../../d4/d23/ancillarydata__timecode_8h.html" target="_top" xlink:title="Declares the AJAAncillaryData_Timecode class.">
<polygon fill="white" stroke="black" points="221.4,-342 221.4,-361 361.4,-361 361.4,-342 221.4,-342"/>
<text text-anchor="middle" x="291.4" y="-349" font-family="Helvetica,sans-Serif" font-size="10.00">ancillarydata_timecode.h</text>
</a>
</g>
</g>
<!-- Node21&#45;&gt;Node22 -->
<g id="edge31" class="edge">
<title>Node21&#45;&gt;Node22</title>
<path fill="none" stroke="midnightblue" d="M496.09,-403.48C447.98,-391.5 379.74,-374.5 335.52,-363.49"/>
<polygon fill="midnightblue" stroke="midnightblue" points="336.19,-360.05 325.64,-361.03 334.5,-366.84 336.19,-360.05"/>
</g>
<!-- Node22&#45;&gt;Node2 -->
<g id="edge43" class="edge">
<title>Node22&#45;&gt;Node2</title>
<path fill="none" stroke="midnightblue" d="M336.47,-341.94C347.55,-339.92 359.39,-337.82 370.4,-336 450.69,-322.73 543.17,-309.4 605.26,-300.73"/>
<polygon fill="midnightblue" stroke="midnightblue" points="605.92,-304.17 615.34,-299.33 604.95,-297.24 605.92,-304.17"/>
</g>
<!-- Node22&#45;&gt;Node3 -->
<g id="edge44" class="edge">
<title>Node22&#45;&gt;Node3</title>
<path fill="none" stroke="midnightblue" d="M311.65,-341.96C347.21,-327.28 423.48,-297.18 490.4,-280 565.61,-260.69 654.61,-247.9 710.55,-241.05"/>
<polygon fill="midnightblue" stroke="midnightblue" points="711.09,-244.51 720.6,-239.84 710.25,-237.56 711.09,-244.51"/>
</g>
<!-- Node23 -->
<g id="node23" class="node">
<title>Node23</title>
<g id="a_node23"><a xlink:href="../../d6/d23/timecode_8h.html" target="_top" xlink:title="Declares the AJATimeCode class.">
<polygon fill="white" stroke="black" points="14.4,-280.5 14.4,-299.5 172.4,-299.5 172.4,-280.5 14.4,-280.5"/>
<text text-anchor="middle" x="93.4" y="-287.5" font-family="Helvetica,sans-Serif" font-size="10.00">ajabase/common/timecode.h</text>
</a>
</g>
</g>
<!-- Node22&#45;&gt;Node23 -->
<g id="edge32" class="edge">
<title>Node22&#45;&gt;Node23</title>
<path fill="none" stroke="midnightblue" d="M263.03,-341.98C228.48,-331.59 169.97,-314.01 131.51,-302.45"/>
<polygon fill="midnightblue" stroke="midnightblue" points="132.3,-299.04 121.71,-299.51 130.28,-305.74 132.3,-299.04"/>
</g>
<!-- Node24 -->
<g id="node24" class="node">
<title>Node24</title>
<g id="a_node24"><a xlink:href="../../d4/d3c/timebase_8h.html" target="_top" xlink:title="Declares the AJATimeBase class.">
<polygon fill="white" stroke="black" points="14.4,-224.5 14.4,-243.5 172.4,-243.5 172.4,-224.5 14.4,-224.5"/>
<text text-anchor="middle" x="93.4" y="-231.5" font-family="Helvetica,sans-Serif" font-size="10.00">ajabase/common/timebase.h</text>
</a>
</g>
</g>
<!-- Node22&#45;&gt;Node24 -->
<g id="edge42" class="edge">
<title>Node22&#45;&gt;Node24</title>
<path fill="none" stroke="midnightblue" d="M221.2,-348.11C145.58,-343.88 32.41,-332.21 5.4,-300 -13.52,-277.45 22.71,-258.38 54.26,-246.84"/>
<polygon fill="midnightblue" stroke="midnightblue" points="55.54,-250.1 63.83,-243.51 53.24,-243.49 55.54,-250.1"/>
</g>
<!-- Node23&#45;&gt;Node24 -->
<g id="edge33" class="edge">
<title>Node23&#45;&gt;Node24</title>
<path fill="none" stroke="midnightblue" d="M93.4,-280.08C93.4,-273.01 93.4,-262.86 93.4,-253.99"/>
<polygon fill="midnightblue" stroke="midnightblue" points="96.9,-253.75 93.4,-243.75 89.9,-253.75 96.9,-253.75"/>
</g>
<!-- Node25 -->
<g id="node25" class="node">
<title>Node25</title>
<g id="a_node25"><a xlink:href="../../d4/d79/public_8h.html" target="_top" xlink:title="Master header for the ajabase library.">
<polygon fill="white" stroke="black" points="521.4,-168.5 521.4,-187.5 663.4,-187.5 663.4,-168.5 521.4,-168.5"/>
<text text-anchor="middle" x="592.4" y="-175.5" font-family="Helvetica,sans-Serif" font-size="10.00">ajabase/common/public.h</text>
</a>
</g>
</g>
<!-- Node24&#45;&gt;Node25 -->
<g id="edge34" class="edge">
<title>Node24&#45;&gt;Node25</title>
<path fill="none" stroke="midnightblue" d="M172.19,-224.47C264.8,-214.45 417.7,-197.91 511.3,-187.78"/>
<polygon fill="midnightblue" stroke="midnightblue" points="511.72,-191.25 521.29,-186.7 510.97,-184.29 511.72,-191.25"/>
</g>
<!-- Node28 -->
<g id="node28" class="node">
<title>Node28</title>
<g id="a_node28"><a xlink:href="../../d6/da4/videotypes_8h.html" target="_top" xlink:title="Declares the enumeration constants used in the ajabase library.">
<polygon fill="white" stroke="black" points="9.9,-168.5 9.9,-187.5 176.9,-187.5 176.9,-168.5 9.9,-168.5"/>
<text text-anchor="middle" x="93.4" y="-175.5" font-family="Helvetica,sans-Serif" font-size="10.00">ajabase/common/videotypes.h</text>
</a>
</g>
</g>
<!-- Node24&#45;&gt;Node28 -->
<g id="edge41" class="edge">
<title>Node24&#45;&gt;Node28</title>
<path fill="none" stroke="midnightblue" d="M93.4,-224.08C93.4,-217.01 93.4,-206.86 93.4,-197.99"/>
<polygon fill="midnightblue" stroke="midnightblue" points="96.9,-197.75 93.4,-187.75 89.9,-197.75 96.9,-197.75"/>
</g>
<!-- Node25&#45;&gt;Node8 -->
<g id="edge36" class="edge">
<title>Node25&#45;&gt;Node8</title>
<path fill="none" stroke="midnightblue" d="M598.21,-168.24C608.13,-154.01 629.78,-126.08 655.4,-112 751.15,-59.39 1092.66,-23.94 1199.92,-13.91"/>
<polygon fill="midnightblue" stroke="midnightblue" points="1200.48,-17.37 1210.12,-12.97 1199.84,-10.4 1200.48,-17.37"/>
</g>
<!-- Node25&#45;&gt;Node9 -->
<g id="edge40" class="edge">
<title>Node25&#45;&gt;Node9</title>
<path fill="none" stroke="midnightblue" d="M550.25,-168.44C503.65,-158.98 428.55,-143.74 378.35,-133.55"/>
<polygon fill="midnightblue" stroke="midnightblue" points="378.84,-130.08 368.35,-131.52 377.45,-136.94 378.84,-130.08"/>
</g>
<!-- Node25&#45;&gt;Node14 -->
<g id="edge39" class="edge">
<title>Node25&#45;&gt;Node14</title>
<path fill="none" stroke="midnightblue" d="M617.27,-168.44C645.27,-158.81 690.71,-143.19 720.32,-133"/>
<polygon fill="midnightblue" stroke="midnightblue" points="721.76,-136.21 730.08,-129.64 719.49,-129.59 721.76,-136.21"/>
</g>
<!-- Node25&#45;&gt;Node15 -->
<g id="edge38" class="edge">
<title>Node25&#45;&gt;Node15</title>
<path fill="none" stroke="midnightblue" d="M607.82,-168.32C622.94,-159.82 646.21,-146.73 663.87,-136.8"/>
<polygon fill="midnightblue" stroke="midnightblue" points="666.01,-139.61 673.01,-131.65 662.58,-133.51 666.01,-139.61"/>
</g>
<!-- Node26 -->
<g id="node26" class="node">
<title>Node26</title>
<g id="a_node26"><a xlink:href="../../db/db5/export_8h.html" target="_top" xlink:title="Declares system&#45;dependent import/export macros and libraries.">
<polygon fill="white" stroke="black" points="414.4,-112.5 414.4,-131.5 558.4,-131.5 558.4,-112.5 414.4,-112.5"/>
<text text-anchor="middle" x="486.4" y="-119.5" font-family="Helvetica,sans-Serif" font-size="10.00">ajabase/common/export.h</text>
</a>
</g>
</g>
<!-- Node25&#45;&gt;Node26 -->
<g id="edge35" class="edge">
<title>Node25&#45;&gt;Node26</title>
<path fill="none" stroke="midnightblue" d="M575.37,-168.32C558.37,-159.66 532.02,-146.24 512.4,-136.25"/>
<polygon fill="midnightblue" stroke="midnightblue" points="513.88,-133.08 503.39,-131.65 510.71,-139.31 513.88,-133.08"/>
</g>
<!-- Node27 -->
<g id="node27" class="node">
<title>Node27</title>
<g id="a_node27"><a xlink:title=" ">
<polygon fill="white" stroke="#bfbfbf" points="576.4,-112.5 576.4,-131.5 608.4,-131.5 608.4,-112.5 576.4,-112.5"/>
<text text-anchor="middle" x="592.4" y="-119.5" font-family="Helvetica,sans-Serif" font-size="10.00">list</text>
</a>
</g>
</g>
<!-- Node25&#45;&gt;Node27 -->
<g id="edge37" class="edge">
<title>Node25&#45;&gt;Node27</title>
<path fill="none" stroke="midnightblue" d="M592.4,-168.08C592.4,-161.01 592.4,-150.86 592.4,-141.99"/>
<polygon fill="midnightblue" stroke="midnightblue" points="595.9,-141.75 592.4,-131.75 588.9,-141.75 595.9,-141.75"/>
</g>
<!-- Node29&#45;&gt;Node2 -->
<g id="edge46" class="edge">
<title>Node29&#45;&gt;Node2</title>
<path fill="none" stroke="midnightblue" d="M381.99,-404.65C422.01,-395.94 473.86,-383.09 518.4,-367 567.48,-349.27 621.68,-321.2 652.14,-304.59"/>
<polygon fill="midnightblue" stroke="midnightblue" points="654.08,-307.52 661.15,-299.63 650.7,-301.39 654.08,-307.52"/>
</g>
<!-- Node29&#45;&gt;Node3 -->
<g id="edge47" class="edge">
<title>Node29&#45;&gt;Node3</title>
<path fill="none" stroke="midnightblue" d="M260.29,-403.39C241.79,-395.78 223.21,-384.27 212.4,-367 205.09,-355.32 204.02,-346.94 212.4,-336 272.45,-257.64 582.96,-240.05 710.56,-236.12"/>
<polygon fill="midnightblue" stroke="midnightblue" points="710.98,-239.61 720.87,-235.82 710.78,-232.62 710.98,-239.61"/>
</g>
<!-- Node29&#45;&gt;Node22 -->
<g id="edge48" class="edge">
<title>Node29&#45;&gt;Node22</title>
<path fill="none" stroke="midnightblue" d="M310.97,-403.4C307.27,-393.76 302.33,-380.91 298.33,-370.54"/>
<polygon fill="midnightblue" stroke="midnightblue" points="301.6,-369.27 294.74,-361.19 295.06,-371.78 301.6,-369.27"/>
</g>
<!-- Node30&#45;&gt;Node2 -->
<g id="edge50" class="edge">
<title>Node30&#45;&gt;Node2</title>
<path fill="none" stroke="midnightblue" d="M477.64,-341.98C518.64,-331.46 588.43,-313.56 633.45,-302.01"/>
<polygon fill="midnightblue" stroke="midnightblue" points="634.4,-305.38 643.22,-299.51 632.66,-298.6 634.4,-305.38"/>
</g>
<!-- Node30&#45;&gt;Node3 -->
<g id="edge51" class="edge">
<title>Node30&#45;&gt;Node3</title>
<path fill="none" stroke="midnightblue" d="M451.19,-341.93C463.71,-326.77 492.04,-295.39 523.4,-280 583.15,-250.67 659.79,-240.37 710.64,-236.81"/>
<polygon fill="midnightblue" stroke="midnightblue" points="711.01,-240.29 720.76,-236.16 710.56,-233.3 711.01,-240.29"/>
</g>
<!-- Node31&#45;&gt;Node2 -->
<g id="edge53" class="edge">
<title>Node31&#45;&gt;Node2</title>
<path fill="none" stroke="midnightblue" d="M740.31,-403.48C732.16,-393.65 721.46,-379.99 713.4,-367 701.7,-348.16 690.92,-325.07 684.05,-309.33"/>
<polygon fill="midnightblue" stroke="midnightblue" points="687.1,-307.56 679.96,-299.74 680.66,-310.31 687.1,-307.56"/>
</g>
<!-- Node31&#45;&gt;Node3 -->
<g id="edge54" class="edge">
<title>Node31&#45;&gt;Node3</title>
<path fill="none" stroke="midnightblue" d="M753.4,-403.48C755.7,-371.1 761.41,-291.04 764.03,-254.16"/>
<polygon fill="midnightblue" stroke="midnightblue" points="767.55,-254.04 764.77,-243.82 760.57,-253.54 767.55,-254.04"/>
</g>
<!-- Node32 -->
<g id="node32" class="node">
<title>Node32</title>
<g id="a_node32"><a xlink:href="../../db/d74/ancillarydata__cea608_8h.html" target="_top" xlink:title="Declares the AJAAncillaryData_Cea608 class.">
<polygon fill="white" stroke="black" points="793.4,-342 793.4,-361 923.4,-361 923.4,-342 793.4,-342"/>
<text text-anchor="middle" x="858.4" y="-349" font-family="Helvetica,sans-Serif" font-size="10.00">ancillarydata_cea608.h</text>
</a>
</g>
</g>
<!-- Node31&#45;&gt;Node32 -->
<g id="edge55" class="edge">
<title>Node31&#45;&gt;Node32</title>
<path fill="none" stroke="midnightblue" d="M775.4,-403.4C793.34,-392.39 818.12,-377.2 835.92,-366.28"/>
<polygon fill="midnightblue" stroke="midnightblue" points="837.83,-369.22 844.52,-361.01 834.17,-363.25 837.83,-369.22"/>
</g>
<!-- Node32&#45;&gt;Node2 -->
<g id="edge56" class="edge">
<title>Node32&#45;&gt;Node2</title>
<path fill="none" stroke="midnightblue" d="M832.32,-341.98C800.83,-331.68 747.7,-314.31 712.34,-302.75"/>
<polygon fill="midnightblue" stroke="midnightblue" points="713.02,-299.29 702.42,-299.51 710.84,-305.94 713.02,-299.29"/>
</g>
<!-- Node32&#45;&gt;Node3 -->
<g id="edge57" class="edge">
<title>Node32&#45;&gt;Node3</title>
<path fill="none" stroke="midnightblue" d="M851.41,-341.82C835.99,-322.67 798.85,-276.54 778.79,-251.63"/>
<polygon fill="midnightblue" stroke="midnightblue" points="781.47,-249.38 772.47,-243.78 776.01,-253.77 781.47,-249.38"/>
</g>
<!-- Node33&#45;&gt;Node2 -->
<g id="edge59" class="edge">
<title>Node33&#45;&gt;Node2</title>
<path fill="none" stroke="midnightblue" d="M857.86,-403.46C836.39,-394.03 808.19,-380.85 784.4,-367 751.8,-348.03 716.5,-322.06 695.43,-305.92"/>
<polygon fill="midnightblue" stroke="midnightblue" points="697.38,-302.99 687.32,-299.65 693.1,-308.53 697.38,-302.99"/>
</g>
<!-- Node33&#45;&gt;Node3 -->
<g id="edge60" class="edge">
<title>Node33&#45;&gt;Node3</title>
<path fill="none" stroke="midnightblue" d="M951.92,-409.68C1023.91,-399.76 1135.96,-382.12 1148.4,-367 1157.15,-356.36 1156.81,-346.91 1148.4,-336 1108.46,-284.16 916.23,-253.58 820.21,-241.3"/>
<polygon fill="midnightblue" stroke="midnightblue" points="820.47,-237.8 810.11,-240.03 819.6,-244.75 820.47,-237.8"/>
</g>
<!-- Node33&#45;&gt;Node32 -->
<g id="edge61" class="edge">
<title>Node33&#45;&gt;Node32</title>
<path fill="none" stroke="midnightblue" d="M884.24,-403.4C879.29,-393.66 872.69,-380.65 867.39,-370.21"/>
<polygon fill="midnightblue" stroke="midnightblue" points="870.46,-368.53 862.81,-361.19 864.22,-371.7 870.46,-368.53"/>
</g>
<!-- Node34&#45;&gt;Node2 -->
<g id="edge63" class="edge">
<title>Node34&#45;&gt;Node2</title>
<path fill="none" stroke="midnightblue" d="M988.24,-341.98C922.29,-331.19 808.87,-312.65 738.51,-301.15"/>
<polygon fill="midnightblue" stroke="midnightblue" points="738.89,-297.67 728.45,-299.51 737.76,-304.58 738.89,-297.67"/>
</g>
<!-- Node34&#45;&gt;Node3 -->
<g id="edge64" class="edge">
<title>Node34&#45;&gt;Node3</title>
<path fill="none" stroke="midnightblue" d="M1019.73,-341.82C971.53,-321.58 851.54,-271.18 795.34,-247.57"/>
<polygon fill="midnightblue" stroke="midnightblue" points="796.51,-244.27 785.93,-243.62 793.8,-250.72 796.51,-244.27"/>
</g>
<!-- Node35&#45;&gt;Node2 -->
<g id="edge66" class="edge">
<title>Node35&#45;&gt;Node2</title>
<path fill="none" stroke="midnightblue" d="M1209.09,-341.97C1189.18,-340 1168.04,-337.91 1148.4,-336 1006.25,-322.17 839.99,-306.41 747.58,-297.7"/>
<polygon fill="midnightblue" stroke="midnightblue" points="747.79,-294.2 737.5,-296.75 747.13,-301.17 747.79,-294.2"/>
</g>
<!-- Node35&#45;&gt;Node3 -->
<g id="edge67" class="edge">
<title>Node35&#45;&gt;Node3</title>
<path fill="none" stroke="midnightblue" d="M1284.31,-341.96C1265.5,-326.57 1223.14,-294.43 1181.4,-280 1115.98,-257.39 917.46,-243.51 820.23,-237.89"/>
<polygon fill="midnightblue" stroke="midnightblue" points="820.2,-234.38 810.02,-237.3 819.8,-241.37 820.2,-234.38"/>
</g>
<!-- Node36&#45;&gt;Node2 -->
<g id="edge69" class="edge">
<title>Node36&#45;&gt;Node2</title>
<path fill="none" stroke="midnightblue" d="M1411.34,-337.44C1408.33,-336.9 1405.33,-336.42 1402.4,-336 1164.15,-301.85 878.25,-293.61 747.71,-291.62"/>
<polygon fill="midnightblue" stroke="midnightblue" points="747.5,-288.12 737.45,-291.48 747.4,-295.12 747.5,-288.12"/>
</g>
<!-- Node36&#45;&gt;Node3 -->
<g id="edge70" class="edge">
<title>Node36&#45;&gt;Node3</title>
<path fill="none" stroke="midnightblue" d="M1424.74,-336.38C1375.37,-320.22 1290.34,-294.16 1215.4,-280 1074.5,-253.38 905.61,-241.84 820.38,-237.41"/>
<polygon fill="midnightblue" stroke="midnightblue" points="820.32,-233.9 810.16,-236.89 819.97,-240.89 820.32,-233.9"/>
</g>
</g>
</svg>
        <g id="navigator" transform="translate(0 0)" fill="#404254">
                <rect fill="#f2f5e9" fill-opacity="0.5" stroke="#606060" stroke-width=".5" x="0" y="0" width="60" height="60"/>
                <use id="zoomplus" xlink:href="#zoomPlus" x="17" y="9" onmousedown="handleZoom(evt,'in')"/>
                <use id="zoomminus" xlink:href="#zoomMin" x="42" y="9" onmousedown="handleZoom(evt,'out')"/>
                <use id="reset" xlink:href="#resetDef" x="30" y="36" onmousedown="handleReset()"/>
                <g id="arrowUp" xlink:href="#dirArrow" transform="translate(30 24)" onmousedown="handlePan(0,-1)">
                  <use xlink:href="#rim" fill="#404040">
                        <set attributeName="fill" to="#808080" begin="arrowUp.mouseover" end="arrowUp.mouseout"/>
                  </use>
                  <path fill="none" stroke="white" stroke-width="1.5" d="M0,-3.0v7 M-2.5,-0.5L0,-3.0L2.5,-0.5"/>
                </g>
                <g id="arrowRight" xlink:href="#dirArrow" transform="rotate(90) translate(36 -43)" onmousedown="handlePan(1,0)">
                  <use xlink:href="#rim" fill="#404040">
                        <set attributeName="fill" to="#808080" begin="arrowRight.mouseover" end="arrowRight.mouseout"/>
                  </use>
                  <path fill="none" stroke="white" stroke-width="1.5" d="M0,-3.0v7 M-2.5,-0.5L0,-3.0L2.5,-0.5"/>
                </g>
                <g id="arrowDown" xlink:href="#dirArrow" transform="rotate(180) translate(-30 -48)" onmousedown="handlePan(0,1)">
                  <use xlink:href="#rim" fill="#404040">
                        <set attributeName="fill" to="#808080" begin="arrowDown.mouseover" end="arrowDown.mouseout"/>
                  </use>
                  <path fill="none" stroke="white" stroke-width="1.5" d="M0,-3.0v7 M-2.5,-0.5L0,-3.0L2.5,-0.5"/>
                </g>
                <g id="arrowLeft" xlink:href="#dirArrow" transform="rotate(270) translate(-36 17)" onmousedown="handlePan(-1,0)">
                  <use xlink:href="#rim" fill="#404040">
                        <set attributeName="fill" to="#808080" begin="arrowLeft.mouseover" end="arrowLeft.mouseout"/>
                  </use>
                  <path fill="none" stroke="white" stroke-width="1.5" d="M0,-3.0v7 M-2.5,-0.5L0,-3.0L2.5,-0.5"/>
                </g>
        </g>
        <svg viewBox="0 0 15 15" width="100%" height="30px" preserveAspectRatio="xMaxYMin meet">
         <g id="arrow_out" transform="scale(0.3 0.3)">
          <a xlink:href="ancillarydatafactory_8cpp__incl_org.svg" target="_base">
           <rect id="button" ry="5" rx="5" y="6" x="6" height="38" width="38"
                fill="#f2f5e9" fill-opacity="0.5" stroke="#606060" stroke-width="1.0"/>
           <path id="arrow"
             d="M 11.500037,31.436501 C 11.940474,20.09759 22.043105,11.32322 32.158766,21.979434 L 37.068811,17.246167 C 37.068811,17.246167 37.088388,32 37.088388,32 L 22.160133,31.978069 C 22.160133,31.978069 26.997745,27.140456 26.997745,27.140456 C 18.528582,18.264221 13.291696,25.230495 11.500037,31.436501 z"
             style="fill:#404040;"/>
          </a>
         </g>
        </svg>
</svg>
