<?xml version="1.0" encoding="UTF-8" standalone="no"?>
<!DOCTYPE svg PUBLIC "-//W3C//DTD SVG 1.1//EN"
 "http://www.w3.org/Graphics/SVG/1.1/DTD/svg11.dtd">
<!-- Generated by graphviz version 2.40.1 (0)
 -->
<!-- Title: /home/tcbuilder/buildAgent/work/df8e8cce5bebfd58/libajantv2/ajaanc/src/ancillarydata_cea708.cpp Pages: 1 -->
<!--zoomable 442 -->
<svg id="main" version="1.1" xmlns="http://www.w3.org/2000/svg" xmlns:xlink="http://www.w3.org/1999/xlink" xml:space="preserve" onload="init(evt)">
<style type="text/css"><![CDATA[
.edge:hover path { stroke: red; }
.edge:hover polygon { stroke: red; fill: red; }
]]></style>
<script type="text/javascript"><![CDATA[
var edges = document.getElementsByTagName('g');
if (edges && edges.length) {
  for (var i=0;i<edges.length;i++) {
    if (edges[i].id.substr(0,4)=='edge') {
      edges[i].setAttribute('class','edge');
    }
  }
}
]]></script>
        <defs>
                <circle id="rim" cx="0" cy="0" r="7"/>
                <circle id="rim2" cx="0" cy="0" r="3.5"/>
                <g id="zoomPlus">
                        <use xlink:href="#rim" fill="#404040">
                                <set attributeName="fill" to="#808080" begin="zoomplus.mouseover" end="zoomplus.mouseout"/>
                        </use>
                        <path d="M-4,0h8M0,-4v8" fill="none" stroke="white" stroke-width="1.5" pointer-events="none"/>
                </g>
                <g id="zoomMin">
                        <use xlink:href="#rim" fill="#404040">
                                <set attributeName="fill" to="#808080" begin="zoomminus.mouseover" end="zoomminus.mouseout"/>
                        </use>
                        <path d="M-4,0h8" fill="none" stroke="white" stroke-width="1.5" pointer-events="none"/>
                </g>
                <g id="dirArrow">
                        <path fill="none" stroke="white" stroke-width="1.5" d="M0,-3.0v7 M-2.5,-0.5L0,-3.0L2.5,-0.5"/>
                </g>
               <g id="resetDef">
                       <use xlink:href="#rim2" fill="#404040">
                               <set attributeName="fill" to="#808080" begin="reset.mouseover" end="reset.mouseout"/>
                       </use>
               </g>
        </defs>

<script type="text/javascript">
var viewWidth = 1354;
var viewHeight = 442;
var sectionId = 'dynsection-0';
</script>
<script xlink:href="../../svgpan.js"/>
<svg id="graph" class="graph">
<g id="viewport">
<title>/home/tcbuilder/buildAgent/work/df8e8cce5bebfd58/libajantv2/ajaanc/src/ancillarydata_cea708.cpp</title>
<polygon fill="#ffffff" stroke="transparent" points="-4,4 -4,-438 1349.7266,-438 1349.7266,4 -4,4"/>
<!-- Node0 -->
<g id="node1" class="node">
<title>Node0</title>
<polygon fill="#bfbfbf" stroke="#000000" points="665,-392.5 665,-433.5 843,-433.5 843,-392.5 665,-392.5"/>
<text text-anchor="start" x="673" y="-421.5" font-family="Helvetica,sans-Serif" font-size="10.00" fill="#000000">/home/tcbuilder/buildAgent</text>
<text text-anchor="start" x="673" y="-410.5" font-family="Helvetica,sans-Serif" font-size="10.00" fill="#000000">/work/df8e8cce5bebfd58/libajantv2</text>
<text text-anchor="middle" x="754" y="-399.5" font-family="Helvetica,sans-Serif" font-size="10.00" fill="#000000">/ajaanc/src/ancillarydata_cea708.cpp</text>
</g>
<!-- Node1 -->
<g id="node2" class="node">
<title>Node1</title>
<g id="a_node2"><a xlink:href="../../d1/d0a/ancillarydata__cea708_8h.html" target="_top" xlink:title="Declares the AJAAncillaryData_Cea708 class. ">
<polygon fill="#ffffff" stroke="#000000" points="653,-336.5 653,-355.5 769,-355.5 769,-336.5 653,-336.5"/>
<text text-anchor="middle" x="711" y="-343.5" font-family="Helvetica,sans-Serif" font-size="10.00" fill="#000000">ancillarydata_cea708.h</text>
</a>
</g>
</g>
<!-- Node0&#45;&gt;Node1 -->
<g id="edge1" class="edge">
<title>Node0&#45;&gt;Node1</title>
<path fill="none" stroke="#191970" d="M740.6302,-392.168C734.909,-383.2536 728.287,-372.9356 722.7561,-364.3177"/>
<polygon fill="#191970" stroke="#191970" points="725.6238,-362.3059 717.277,-355.7805 719.7327,-366.0868 725.6238,-362.3059"/>
</g>
<!-- Node17 -->
<g id="node18" class="node">
<title>Node17</title>
<polygon fill="#ffffff" stroke="#bfbfbf" points="66,-112.5 66,-131.5 116,-131.5 116,-112.5 66,-112.5"/>
<text text-anchor="middle" x="91" y="-119.5" font-family="Helvetica,sans-Serif" font-size="10.00" fill="#000000">iomanip</text>
</g>
<!-- Node0&#45;&gt;Node17 -->
<g id="edge49" class="edge">
<title>Node0&#45;&gt;Node17</title>
<path fill="none" stroke="#191970" d="M664.9177,-407.6608C465.3969,-394.5107 0,-356.6896 0,-290 0,-290 0,-290 0,-234 0,-191.6829 39.6144,-156.4504 66.5688,-137.3755"/>
<polygon fill="#191970" stroke="#191970" points="68.8491,-140.0574 75.149,-131.5391 64.912,-134.2695 68.8491,-140.0574"/>
</g>
<!-- Node22 -->
<g id="node23" class="node">
<title>Node22</title>
<g id="a_node23"><a xlink:href="../../db/d16/debug_8h.html" target="_top" xlink:title="Declares the AJADebug class. ">
<polygon fill="#ffffff" stroke="#000000" points="861.5,-224.5 861.5,-243.5 984.5,-243.5 984.5,-224.5 861.5,-224.5"/>
<text text-anchor="middle" x="923" y="-231.5" font-family="Helvetica,sans-Serif" font-size="10.00" fill="#000000">ajabase/system/debug.h</text>
</a>
</g>
</g>
<!-- Node0&#45;&gt;Node22 -->
<g id="edge31" class="edge">
<title>Node0&#45;&gt;Node22</title>
<path fill="none" stroke="#191970" d="M769.3588,-392.4558C781.5001,-376.5871 799.1533,-354.317 816,-336 845.2704,-304.175 882.3573,-270.0615 904.2951,-250.4554"/>
<polygon fill="#191970" stroke="#191970" points="906.7625,-252.9451 911.9133,-243.6865 902.1131,-247.7122 906.7625,-252.9451"/>
</g>
<!-- Node29 -->
<g id="node30" class="node">
<title>Node29</title>
<polygon fill="#ffffff" stroke="#bfbfbf" points="825.5,-336.5 825.5,-355.5 854.5,-355.5 854.5,-336.5 825.5,-336.5"/>
<text text-anchor="middle" x="840" y="-343.5" font-family="Helvetica,sans-Serif" font-size="10.00" fill="#000000">ios</text>
</g>
<!-- Node0&#45;&gt;Node29 -->
<g id="edge48" class="edge">
<title>Node0&#45;&gt;Node29</title>
<path fill="none" stroke="#191970" d="M780.7395,-392.168C793.1558,-382.4949 807.6933,-371.1692 819.2622,-362.1562"/>
<polygon fill="#191970" stroke="#191970" points="821.7084,-364.6873 827.446,-355.7805 817.4063,-359.1653 821.7084,-364.6873"/>
</g>
<!-- Node2 -->
<g id="node3" class="node">
<title>Node2</title>
<g id="a_node3"><a xlink:href="../../df/d78/ancillarydatafactory_8h.html" target="_top" xlink:title="Declaration of the AJAAncillaryDataFactory class. ">
<polygon fill="#ffffff" stroke="#000000" points="597.5,-280.5 597.5,-299.5 706.5,-299.5 706.5,-280.5 597.5,-280.5"/>
<text text-anchor="middle" x="652" y="-287.5" font-family="Helvetica,sans-Serif" font-size="10.00" fill="#000000">ancillarydatafactory.h</text>
</a>
</g>
</g>
<!-- Node1&#45;&gt;Node2 -->
<g id="edge2" class="edge">
<title>Node1&#45;&gt;Node2</title>
<path fill="none" stroke="#191970" d="M700.723,-336.2455C692.1782,-328.1352 679.8222,-316.4075 669.6915,-306.7919"/>
<polygon fill="#191970" stroke="#191970" points="671.8218,-303.9884 662.1592,-299.6427 667.0028,-309.0655 671.8218,-303.9884"/>
</g>
<!-- Node3 -->
<g id="node4" class="node">
<title>Node3</title>
<g id="a_node4"><a xlink:href="../../d7/d92/ancillarydata_8h.html" target="_top" xlink:title="Declares the AJAAncillaryData class. ">
<polygon fill="#ffffff" stroke="#000000" points="654,-224.5 654,-243.5 734,-243.5 734,-224.5 654,-224.5"/>
<text text-anchor="middle" x="694" y="-231.5" font-family="Helvetica,sans-Serif" font-size="10.00" fill="#000000">ancillarydata.h</text>
</a>
</g>
</g>
<!-- Node1&#45;&gt;Node3 -->
<g id="edge30" class="edge">
<title>Node1&#45;&gt;Node3</title>
<path fill="none" stroke="#191970" d="M713.1855,-336.4762C715.7927,-323.5342 719.2933,-299.7422 715,-280 712.9575,-270.6079 708.8211,-260.8357 704.7553,-252.7264"/>
<polygon fill="#191970" stroke="#191970" points="707.7809,-250.9622 699.9765,-243.7968 701.6091,-254.2651 707.7809,-250.9622"/>
</g>
<!-- Node2&#45;&gt;Node3 -->
<g id="edge3" class="edge">
<title>Node2&#45;&gt;Node3</title>
<path fill="none" stroke="#191970" d="M659.3158,-280.2455C665.2179,-272.3761 673.6742,-261.101 680.7594,-251.6542"/>
<polygon fill="#191970" stroke="#191970" points="683.568,-253.7427 686.768,-243.6427 677.9679,-249.5427 683.568,-253.7427"/>
</g>
<!-- Node4 -->
<g id="node5" class="node">
<title>Node4</title>
<g id="a_node5"><a xlink:href="../../db/de2/ajatypes_8h.html" target="_top" xlink:title="Declares the most fundamental data types used by NTV2. Since Windows NT was the first principal devel...">
<polygon fill="#ffffff" stroke="#000000" points="357,-56.5 357,-75.5 419,-75.5 419,-56.5 357,-56.5"/>
<text text-anchor="middle" x="388" y="-63.5" font-family="Helvetica,sans-Serif" font-size="10.00" fill="#000000">ajatypes.h</text>
</a>
</g>
</g>
<!-- Node3&#45;&gt;Node4 -->
<g id="edge4" class="edge">
<title>Node3&#45;&gt;Node4</title>
<path fill="none" stroke="#191970" d="M653.6896,-230.5555C519.7943,-218.7126 96.103,-177.8625 57,-132 51.2329,-125.2359 51.1632,-118.704 57,-112 75.7885,-90.4199 262.173,-74.7833 346.6998,-68.7447"/>
<polygon fill="#191970" stroke="#191970" points="346.9956,-72.2327 356.7253,-68.0395 346.5043,-65.2499 346.9956,-72.2327"/>
</g>
<!-- Node7 -->
<g id="node8" class="node">
<title>Node7</title>
<g id="a_node8"><a xlink:href="../../d6/db1/ntv2version_8h.html" target="_top" xlink:title="Defines for the NTV2 SDK version number, used by ajantv2/includes/ntv2enums.h. See the ajantv2/includ...">
<polygon fill="#ffffff" stroke="#000000" points="494.5,-56.5 494.5,-75.5 569.5,-75.5 569.5,-56.5 494.5,-56.5"/>
<text text-anchor="middle" x="532" y="-63.5" font-family="Helvetica,sans-Serif" font-size="10.00" fill="#000000">ntv2version.h</text>
</a>
</g>
</g>
<!-- Node3&#45;&gt;Node7 -->
<g id="edge7" class="edge">
<title>Node3&#45;&gt;Node7</title>
<path fill="none" stroke="#191970" d="M689.8587,-224.303C679.9494,-202.0328 652.9214,-146.4981 616,-112 601.5789,-98.5254 582.4712,-87.6566 566.1237,-79.8741"/>
<polygon fill="#191970" stroke="#191970" points="567.4243,-76.6204 556.8738,-75.6522 564.5177,-82.9885 567.4243,-76.6204"/>
</g>
<!-- Node10 -->
<g id="node11" class="node">
<title>Node10</title>
<g id="a_node11"><a xlink:href="../../d9/d49/types_8h.html" target="_top" xlink:title="Declares common types used in the ajabase library. ">
<polygon fill="#ffffff" stroke="#000000" points="804,-112.5 804,-131.5 930,-131.5 930,-112.5 804,-112.5"/>
<text text-anchor="middle" x="867" y="-119.5" font-family="Helvetica,sans-Serif" font-size="10.00" fill="#000000">ajabase/common/types.h</text>
</a>
</g>
</g>
<!-- Node3&#45;&gt;Node10 -->
<g id="edge10" class="edge">
<title>Node3&#45;&gt;Node10</title>
<path fill="none" stroke="#191970" d="M699.746,-224.1369C708.4898,-209.9124 726.4195,-183.6345 748,-168 768.9372,-152.8315 795.5216,-141.932 818.2505,-134.5621"/>
<polygon fill="#191970" stroke="#191970" points="819.543,-137.8258 828.0568,-131.5198 817.4688,-131.1402 819.543,-137.8258"/>
</g>
<!-- Node11 -->
<g id="node12" class="node">
<title>Node11</title>
<g id="a_node12"><a xlink:href="../../d4/dd7/ntv2publicinterface_8h.html" target="_top" xlink:title="Declares enums and structs used by all platform drivers and the SDK. ">
<polygon fill="#ffffff" stroke="#000000" points="438.5,-168.5 438.5,-187.5 545.5,-187.5 545.5,-168.5 438.5,-168.5"/>
<text text-anchor="middle" x="492" y="-175.5" font-family="Helvetica,sans-Serif" font-size="10.00" fill="#000000">ntv2publicinterface.h</text>
</a>
</g>
</g>
<!-- Node3&#45;&gt;Node11 -->
<g id="edge12" class="edge">
<title>Node3&#45;&gt;Node11</title>
<path fill="none" stroke="#191970" d="M659.275,-224.3733C625.2492,-214.9404 573.2563,-200.5265 536.2766,-190.2747"/>
<polygon fill="#191970" stroke="#191970" points="536.8435,-186.7999 526.2719,-187.5011 534.9734,-193.5455 536.8435,-186.7999"/>
</g>
<!-- Node16 -->
<g id="node17" class="node">
<title>Node16</title>
<polygon fill="#ffffff" stroke="#bfbfbf" points="948,-112.5 948,-131.5 992,-131.5 992,-112.5 948,-112.5"/>
<text text-anchor="middle" x="970" y="-119.5" font-family="Helvetica,sans-Serif" font-size="10.00" fill="#000000">vector</text>
</g>
<!-- Node3&#45;&gt;Node16 -->
<g id="edge29" class="edge">
<title>Node3&#45;&gt;Node16</title>
<path fill="none" stroke="#191970" d="M704.4536,-224.3555C720.6717,-209.9185 753.4317,-182.8065 786,-168 846.7367,-140.3873 869.633,-149.7737 937.7882,-132.1063"/>
<polygon fill="#191970" stroke="#191970" points="938.9718,-135.4122 947.7142,-129.4272 937.1476,-128.654 938.9718,-135.4122"/>
</g>
<!-- Node21 -->
<g id="node22" class="node">
<title>Node21</title>
<polygon fill="#ffffff" stroke="#bfbfbf" points="795,-168.5 795,-187.5 847,-187.5 847,-168.5 795,-168.5"/>
<text text-anchor="middle" x="821" y="-175.5" font-family="Helvetica,sans-Serif" font-size="10.00" fill="#000000">sstream</text>
</g>
<!-- Node3&#45;&gt;Node21 -->
<g id="edge28" class="edge">
<title>Node3&#45;&gt;Node21</title>
<path fill="none" stroke="#191970" d="M715.8321,-224.3733C736.3103,-215.3435 767.1399,-201.7494 790.1319,-191.6111"/>
<polygon fill="#191970" stroke="#191970" points="791.715,-194.7383 799.4528,-187.5011 788.8907,-188.3333 791.715,-194.7383"/>
</g>
<!-- Node5 -->
<g id="node6" class="node">
<title>Node5</title>
<g id="a_node6"><a xlink:href="../../db/d40/ntv2deprecate_8h.html" target="_top" xlink:title="Deprecation control macros. ">
<polygon fill="#ffffff" stroke="#000000" points="355,-.5 355,-19.5 441,-19.5 441,-.5 355,-.5"/>
<text text-anchor="middle" x="398" y="-7.5" font-family="Helvetica,sans-Serif" font-size="10.00" fill="#000000">ntv2deprecate.h</text>
</a>
</g>
</g>
<!-- Node4&#45;&gt;Node5 -->
<g id="edge5" class="edge">
<title>Node4&#45;&gt;Node5</title>
<path fill="none" stroke="#191970" d="M389.7419,-56.2455C391.0467,-48.9382 392.876,-38.6944 394.4813,-29.7046"/>
<polygon fill="#191970" stroke="#191970" points="397.9656,-30.1022 396.2781,-19.6427 391.0746,-28.8717 397.9656,-30.1022"/>
</g>
<!-- Node6 -->
<g id="node7" class="node">
<title>Node6</title>
<polygon fill="#ffffff" stroke="#bfbfbf" points="719.5,-.5 719.5,-19.5 768.5,-19.5 768.5,-.5 719.5,-.5"/>
<text text-anchor="middle" x="744" y="-7.5" font-family="Helvetica,sans-Serif" font-size="10.00" fill="#000000">stdint.h</text>
</g>
<!-- Node4&#45;&gt;Node6 -->
<g id="edge6" class="edge">
<title>Node4&#45;&gt;Node6</title>
<path fill="none" stroke="#191970" d="M419.2806,-61.0795C485.6096,-50.6457 639.9576,-26.3662 709.2436,-15.4673"/>
<polygon fill="#191970" stroke="#191970" points="709.8834,-18.9098 719.218,-13.8983 708.7956,-11.9948 709.8834,-18.9098"/>
</g>
<!-- Node8 -->
<g id="node9" class="node">
<title>Node8</title>
<g id="a_node9"><a xlink:href="../../d6/dd9/ajaexport_8h.html" target="_top" xlink:title="Defines the import/export macros for producing DLLs or LIBs. ">
<polygon fill="#ffffff" stroke="#000000" points="168.5,-.5 168.5,-19.5 233.5,-19.5 233.5,-.5 168.5,-.5"/>
<text text-anchor="middle" x="201" y="-7.5" font-family="Helvetica,sans-Serif" font-size="10.00" fill="#000000">ajaexport.h</text>
</a>
</g>
</g>
<!-- Node7&#45;&gt;Node8 -->
<g id="edge8" class="edge">
<title>Node7&#45;&gt;Node8</title>
<path fill="none" stroke="#191970" d="M494.3524,-59.6306C432.2687,-49.127 308.8118,-28.2401 243.6157,-17.2099"/>
<polygon fill="#191970" stroke="#191970" points="244.1145,-13.7446 233.6707,-15.5274 242.9467,-20.6466 244.1145,-13.7446"/>
</g>
<!-- Node9 -->
<g id="node10" class="node">
<title>Node9</title>
<polygon fill="#ffffff" stroke="#bfbfbf" points="807.5,-.5 807.5,-19.5 848.5,-19.5 848.5,-.5 807.5,-.5"/>
<text text-anchor="middle" x="828" y="-7.5" font-family="Helvetica,sans-Serif" font-size="10.00" fill="#000000">string</text>
</g>
<!-- Node7&#45;&gt;Node9 -->
<g id="edge9" class="edge">
<title>Node7&#45;&gt;Node9</title>
<path fill="none" stroke="#191970" d="M569.7918,-59.0017C617.9316,-50.0648 703.6835,-34.0704 777,-20 783.5129,-18.7501 790.49,-17.3936 797.1278,-16.0947"/>
<polygon fill="#191970" stroke="#191970" points="798.0255,-19.4854 807.1641,-14.1247 796.6771,-12.6165 798.0255,-19.4854"/>
</g>
<!-- Node10&#45;&gt;Node5 -->
<g id="edge11" class="edge">
<title>Node10&#45;&gt;Node5</title>
<path fill="none" stroke="#191970" d="M827.0133,-112.4509C741.5211,-92.0349 541.1529,-44.1858 447.668,-21.861"/>
<polygon fill="#191970" stroke="#191970" points="448.425,-18.4434 437.8855,-19.5249 446.799,-25.252 448.425,-18.4434"/>
</g>
<!-- Node11&#45;&gt;Node4 -->
<g id="edge13" class="edge">
<title>Node11&#45;&gt;Node4</title>
<path fill="none" stroke="#191970" d="M438.2157,-173.252C358.3702,-165.6527 216.1999,-149.7914 201,-132 195.2261,-125.2417 195.5164,-118.9959 201,-112 218.763,-89.338 297.281,-76.3469 346.7551,-70.2722"/>
<polygon fill="#191970" stroke="#191970" points="347.3193,-73.73 356.8391,-69.0799 346.4973,-66.7784 347.3193,-73.73"/>
</g>
<!-- Node11&#45;&gt;Node8 -->
<g id="edge25" class="edge">
<title>Node11&#45;&gt;Node8</title>
<path fill="none" stroke="#191970" d="M438.4158,-173.5121C356.7138,-166.1205 208.7523,-150.3611 193,-132 168.3534,-103.2716 181.9261,-55.3676 192.431,-28.9434"/>
<polygon fill="#191970" stroke="#191970" points="195.6891,-30.225 196.3557,-19.6511 189.2406,-27.5014 195.6891,-30.225"/>
</g>
<!-- Node11&#45;&gt;Node9 -->
<g id="edge21" class="edge">
<title>Node11&#45;&gt;Node9</title>
<path fill="none" stroke="#191970" d="M521.8813,-168.4809C547.3586,-159.9968 584.7157,-146.6788 616,-132 686.8801,-98.7427 765.6288,-50.1076 804.1458,-25.4963"/>
<polygon fill="#191970" stroke="#191970" points="806.5206,-28.1307 813.0421,-19.7808 802.737,-22.2413 806.5206,-28.1307"/>
</g>
<!-- Node12 -->
<g id="node13" class="node">
<title>Node12</title>
<g id="a_node13"><a xlink:href="../../d6/d0c/ntv2enums_8h.html" target="_top" xlink:title="Enumerations for controlling NTV2 devices. ">
<polygon fill="#ffffff" stroke="#000000" points="534.5,-112.5 534.5,-131.5 607.5,-131.5 607.5,-112.5 534.5,-112.5"/>
<text text-anchor="middle" x="571" y="-119.5" font-family="Helvetica,sans-Serif" font-size="10.00" fill="#000000">ntv2enums.h</text>
</a>
</g>
</g>
<!-- Node11&#45;&gt;Node12 -->
<g id="edge14" class="edge">
<title>Node11&#45;&gt;Node12</title>
<path fill="none" stroke="#191970" d="M505.7607,-168.2455C517.6552,-159.814 535.065,-147.4729 548.9085,-137.6598"/>
<polygon fill="#191970" stroke="#191970" points="551.2628,-140.2811 557.3969,-131.6427 547.2146,-134.5704 551.2628,-140.2811"/>
</g>
<!-- Node13 -->
<g id="node14" class="node">
<title>Node13</title>
<polygon fill="#ffffff" stroke="#bfbfbf" points="336,-112.5 336,-131.5 390,-131.5 390,-112.5 336,-112.5"/>
<text text-anchor="middle" x="363" y="-119.5" font-family="Helvetica,sans-Serif" font-size="10.00" fill="#000000">iostream</text>
</g>
<!-- Node11&#45;&gt;Node13 -->
<g id="edge17" class="edge">
<title>Node11&#45;&gt;Node13</title>
<path fill="none" stroke="#191970" d="M469.8241,-168.3733C449.0234,-159.3435 417.7083,-145.7494 394.3542,-135.6111"/>
<polygon fill="#191970" stroke="#191970" points="395.4532,-132.2727 384.8865,-131.5011 392.6657,-138.6938 395.4532,-132.2727"/>
</g>
<!-- Node14 -->
<g id="node15" class="node">
<title>Node14</title>
<polygon fill="#ffffff" stroke="#bfbfbf" points="702,-112.5 702,-131.5 732,-131.5 732,-112.5 702,-112.5"/>
<text text-anchor="middle" x="717" y="-119.5" font-family="Helvetica,sans-Serif" font-size="10.00" fill="#000000">set</text>
</g>
<!-- Node11&#45;&gt;Node14 -->
<g id="edge18" class="edge">
<title>Node11&#45;&gt;Node14</title>
<path fill="none" stroke="#191970" d="M530.4232,-168.4369C576.6419,-156.9336 652.8889,-137.9565 692.063,-128.2065"/>
<polygon fill="#191970" stroke="#191970" points="692.9928,-131.582 701.8514,-125.7703 691.3021,-124.7892 692.9928,-131.582"/>
</g>
<!-- Node15 -->
<g id="node16" class="node">
<title>Node15</title>
<polygon fill="#ffffff" stroke="#bfbfbf" points="750.5,-112.5 750.5,-131.5 785.5,-131.5 785.5,-112.5 750.5,-112.5"/>
<text text-anchor="middle" x="768" y="-119.5" font-family="Helvetica,sans-Serif" font-size="10.00" fill="#000000">map</text>
</g>
<!-- Node11&#45;&gt;Node15 -->
<g id="edge19" class="edge">
<title>Node11&#45;&gt;Node15</title>
<path fill="none" stroke="#191970" d="M545.5456,-170.8319C594.1977,-163.7084 667.993,-151.3814 740.6469,-131.7"/>
<polygon fill="#191970" stroke="#191970" points="741.7137,-135.0365 750.4236,-129.0043 739.853,-128.2883 741.7137,-135.0365"/>
</g>
<!-- Node11&#45;&gt;Node16 -->
<g id="edge20" class="edge">
<title>Node11&#45;&gt;Node16</title>
<path fill="none" stroke="#191970" d="M545.5397,-176.1108C628.0873,-172.408 791.3633,-161.9476 937.7378,-131.8806"/>
<polygon fill="#191970" stroke="#191970" points="938.7276,-135.2494 947.7996,-129.7769 937.2949,-128.3976 938.7276,-135.2494"/>
</g>
<!-- Node11&#45;&gt;Node17 -->
<g id="edge22" class="edge">
<title>Node11&#45;&gt;Node17</title>
<path fill="none" stroke="#191970" d="M438.309,-173.2871C367.3375,-166.5769 238.5879,-152.7371 130,-132 128.7255,-131.7566 127.4308,-131.4959 126.1256,-131.2218"/>
<polygon fill="#191970" stroke="#191970" points="126.6007,-127.74 116.0716,-128.9187 125.0376,-134.5633 126.6007,-127.74"/>
</g>
<!-- Node18 -->
<g id="node19" class="node">
<title>Node18</title>
<polygon fill="#ffffff" stroke="#bfbfbf" points="408.5,-112.5 408.5,-131.5 449.5,-131.5 449.5,-112.5 408.5,-112.5"/>
<text text-anchor="middle" x="429" y="-119.5" font-family="Helvetica,sans-Serif" font-size="10.00" fill="#000000">bitset</text>
</g>
<!-- Node11&#45;&gt;Node18 -->
<g id="edge23" class="edge">
<title>Node11&#45;&gt;Node18</title>
<path fill="none" stroke="#191970" d="M481.0262,-168.2455C471.8118,-160.0549 458.4468,-148.1749 447.5703,-138.5069"/>
<polygon fill="#191970" stroke="#191970" points="449.6474,-135.6704 439.848,-131.6427 444.9968,-140.9023 449.6474,-135.6704"/>
</g>
<!-- Node19 -->
<g id="node20" class="node">
<title>Node19</title>
<polygon fill="#ffffff" stroke="#bfbfbf" points="467.5,-112.5 467.5,-131.5 516.5,-131.5 516.5,-112.5 467.5,-112.5"/>
<text text-anchor="middle" x="492" y="-119.5" font-family="Helvetica,sans-Serif" font-size="10.00" fill="#000000">string.h</text>
</g>
<!-- Node11&#45;&gt;Node19 -->
<g id="edge24" class="edge">
<title>Node11&#45;&gt;Node19</title>
<path fill="none" stroke="#191970" d="M492,-168.2455C492,-160.9382 492,-150.6944 492,-141.7046"/>
<polygon fill="#191970" stroke="#191970" points="495.5001,-141.6426 492,-131.6427 488.5001,-141.6427 495.5001,-141.6426"/>
</g>
<!-- Node20 -->
<g id="node21" class="node">
<title>Node20</title>
<g id="a_node21"><a xlink:href="../../da/df0/ntv2virtualregisters_8h.html" target="_top" xlink:title="Declares enums for virtual registers used in all platform drivers and the SDK. ">
<polygon fill="#ffffff" stroke="#000000" points="210.5,-112.5 210.5,-131.5 317.5,-131.5 317.5,-112.5 210.5,-112.5"/>
<text text-anchor="middle" x="264" y="-119.5" font-family="Helvetica,sans-Serif" font-size="10.00" fill="#000000">ntv2virtualregisters.h</text>
</a>
</g>
</g>
<!-- Node11&#45;&gt;Node20 -->
<g id="edge26" class="edge">
<title>Node11&#45;&gt;Node20</title>
<path fill="none" stroke="#191970" d="M453.0645,-168.4369C414.208,-158.8932 354.407,-144.2052 312.4911,-133.9101"/>
<polygon fill="#191970" stroke="#191970" points="313.3212,-130.51 302.7749,-131.5237 311.6514,-137.308 313.3212,-130.51"/>
</g>
<!-- Node12&#45;&gt;Node4 -->
<g id="edge15" class="edge">
<title>Node12&#45;&gt;Node4</title>
<path fill="none" stroke="#191970" d="M539.5412,-112.3733C508.9793,-103.021 462.4174,-88.7725 428.9739,-78.5385"/>
<polygon fill="#191970" stroke="#191970" points="429.6348,-75.0806 419.0483,-75.5011 427.5864,-81.7742 429.6348,-75.0806"/>
</g>
<!-- Node12&#45;&gt;Node7 -->
<g id="edge16" class="edge">
<title>Node12&#45;&gt;Node7</title>
<path fill="none" stroke="#191970" d="M564.2067,-112.2455C558.7822,-104.4564 551.0339,-93.3308 544.4967,-83.9439"/>
<polygon fill="#191970" stroke="#191970" points="547.3025,-81.8485 538.7154,-75.6427 541.5583,-85.849 547.3025,-81.8485"/>
</g>
<!-- Node20&#45;&gt;Node4 -->
<g id="edge27" class="edge">
<title>Node20&#45;&gt;Node4</title>
<path fill="none" stroke="#191970" d="M285.3164,-112.3733C305.2216,-103.3838 335.1436,-89.8706 357.56,-79.7471"/>
<polygon fill="#191970" stroke="#191970" points="359.2887,-82.8068 366.9618,-75.5011 356.4075,-76.4272 359.2887,-82.8068"/>
</g>
<!-- Node22&#45;&gt;Node14 -->
<g id="edge34" class="edge">
<title>Node22&#45;&gt;Node14</title>
<path fill="none" stroke="#191970" d="M915.8283,-224.4778C904.5937,-210.2006 881.4785,-183.2944 856,-168 812.682,-141.9968 793.5384,-149.3191 741.8311,-131.9649"/>
<polygon fill="#191970" stroke="#191970" points="742.7478,-128.5771 732.1529,-128.5595 740.4243,-135.1803 742.7478,-128.5771"/>
</g>
<!-- Node22&#45;&gt;Node21 -->
<g id="edge33" class="edge">
<title>Node22&#45;&gt;Node21</title>
<path fill="none" stroke="#191970" d="M905.233,-224.2455C889.2905,-215.4928 865.6741,-202.527 847.5011,-192.5496"/>
<polygon fill="#191970" stroke="#191970" points="849.0137,-189.3873 838.5634,-187.6427 845.6448,-195.5233 849.0137,-189.3873"/>
</g>
<!-- Node23 -->
<g id="node24" class="node">
<title>Node23</title>
<polygon fill="#ffffff" stroke="#bfbfbf" points="1252,-168.5 1252,-187.5 1298,-187.5 1298,-168.5 1252,-168.5"/>
<text text-anchor="middle" x="1275" y="-175.5" font-family="Helvetica,sans-Serif" font-size="10.00" fill="#000000">stdio.h</text>
</g>
<!-- Node22&#45;&gt;Node23 -->
<g id="edge32" class="edge">
<title>Node22&#45;&gt;Node23</title>
<path fill="none" stroke="#191970" d="M984.5813,-228.1078C1047.1945,-221.4528 1147.0703,-209.0122 1241.6764,-188.0166"/>
<polygon fill="#191970" stroke="#191970" points="1242.7144,-191.3705 1251.6989,-185.7553 1241.1737,-184.5421 1242.7144,-191.3705"/>
</g>
<!-- Node24 -->
<g id="node25" class="node">
<title>Node24</title>
<g id="a_node25"><a xlink:href="../../d4/d79/public_8h.html" target="_top" xlink:title="Master header for the ajabase library. ">
<polygon fill="#ffffff" stroke="#000000" points="906,-168.5 906,-187.5 1034,-187.5 1034,-168.5 906,-168.5"/>
<text text-anchor="middle" x="970" y="-175.5" font-family="Helvetica,sans-Serif" font-size="10.00" fill="#000000">ajabase/common/public.h</text>
</a>
</g>
</g>
<!-- Node22&#45;&gt;Node24 -->
<g id="edge35" class="edge">
<title>Node22&#45;&gt;Node24</title>
<path fill="none" stroke="#191970" d="M931.1868,-224.2455C937.8589,-216.2958 947.4479,-204.8706 955.4253,-195.3656"/>
<polygon fill="#191970" stroke="#191970" points="958.1592,-197.5525 961.907,-187.6427 952.7974,-193.0524 958.1592,-197.5525"/>
</g>
<!-- Node27 -->
<g id="node28" class="node">
<title>Node27</title>
<g id="a_node28"><a xlink:href="../../d0/db4/debugshare_8h.html" target="_top" xlink:title="Declares the constants used for sharing debug messages. These structures are used to gather debug mes...">
<polygon fill="#ffffff" stroke="#000000" points="1086.5,-168.5 1086.5,-187.5 1233.5,-187.5 1233.5,-168.5 1086.5,-168.5"/>
<text text-anchor="middle" x="1160" y="-175.5" font-family="Helvetica,sans-Serif" font-size="10.00" fill="#000000">ajabase/system/debugshare.h</text>
</a>
</g>
</g>
<!-- Node22&#45;&gt;Node27 -->
<g id="edge42" class="edge">
<title>Node22&#45;&gt;Node27</title>
<path fill="none" stroke="#191970" d="M963.4725,-224.4369C1003.948,-214.8731 1066.2867,-200.1432 1109.8703,-189.845"/>
<polygon fill="#191970" stroke="#191970" points="1110.7673,-193.2295 1119.6945,-187.5237 1109.1576,-186.4171 1110.7673,-193.2295"/>
</g>
<!-- Node24&#45;&gt;Node9 -->
<g id="edge37" class="edge">
<title>Node24&#45;&gt;Node9</title>
<path fill="none" stroke="#191970" d="M980.4278,-168.3602C993.2551,-155.2866 1012.052,-131.3461 1001,-112 970.3079,-58.2745 899.0351,-30.0201 858.1918,-17.7404"/>
<polygon fill="#191970" stroke="#191970" points="859.0846,-14.3553 848.5068,-14.9568 857.1509,-21.083 859.0846,-14.3553"/>
</g>
<!-- Node24&#45;&gt;Node10 -->
<g id="edge41" class="edge">
<title>Node24&#45;&gt;Node10</title>
<path fill="none" stroke="#191970" d="M952.0588,-168.2455C935.96,-159.4928 912.1121,-146.527 893.7609,-136.5496"/>
<polygon fill="#191970" stroke="#191970" points="895.1929,-133.3444 884.7356,-131.6427 891.8493,-139.4942 895.1929,-133.3444"/>
</g>
<!-- Node24&#45;&gt;Node15 -->
<g id="edge40" class="edge">
<title>Node24&#45;&gt;Node15</title>
<path fill="none" stroke="#191970" d="M929.0125,-168.4269C895.4304,-160.3153 846.5298,-147.8942 795.2357,-131.8497"/>
<polygon fill="#191970" stroke="#191970" points="796.2232,-128.4912 785.6333,-128.8118 794.1118,-135.1652 796.2232,-128.4912"/>
</g>
<!-- Node24&#45;&gt;Node16 -->
<g id="edge39" class="edge">
<title>Node24&#45;&gt;Node16</title>
<path fill="none" stroke="#191970" d="M970,-168.2455C970,-160.9382 970,-150.6944 970,-141.7046"/>
<polygon fill="#191970" stroke="#191970" points="973.5001,-141.6426 970,-131.6427 966.5001,-141.6427 973.5001,-141.6426"/>
</g>
<!-- Node25 -->
<g id="node26" class="node">
<title>Node25</title>
<g id="a_node26"><a xlink:href="../../db/db5/export_8h.html" target="_top" xlink:title="Declares system&#45;dependent import/export macros and libraries. ">
<polygon fill="#ffffff" stroke="#000000" points="1095.5,-112.5 1095.5,-131.5 1224.5,-131.5 1224.5,-112.5 1095.5,-112.5"/>
<text text-anchor="middle" x="1160" y="-119.5" font-family="Helvetica,sans-Serif" font-size="10.00" fill="#000000">ajabase/common/export.h</text>
</a>
</g>
</g>
<!-- Node24&#45;&gt;Node25 -->
<g id="edge36" class="edge">
<title>Node24&#45;&gt;Node25</title>
<path fill="none" stroke="#191970" d="M1002.6622,-168.3733C1034.5298,-158.9807 1083.1531,-144.6496 1117.907,-134.4064"/>
<polygon fill="#191970" stroke="#191970" points="1119.1615,-137.6855 1127.764,-131.5011 1117.1825,-130.9711 1119.1615,-137.6855"/>
</g>
<!-- Node26 -->
<g id="node27" class="node">
<title>Node26</title>
<polygon fill="#ffffff" stroke="#bfbfbf" points="1048.5,-112.5 1048.5,-131.5 1077.5,-131.5 1077.5,-112.5 1048.5,-112.5"/>
<text text-anchor="middle" x="1063" y="-119.5" font-family="Helvetica,sans-Serif" font-size="10.00" fill="#000000">list</text>
</g>
<!-- Node24&#45;&gt;Node26 -->
<g id="edge38" class="edge">
<title>Node24&#45;&gt;Node26</title>
<path fill="none" stroke="#191970" d="M986.1994,-168.2455C1000.9531,-159.3616 1022.9149,-146.1372 1039.5791,-136.1029"/>
<polygon fill="#191970" stroke="#191970" points="1041.4512,-139.0612 1048.2125,-130.9043 1037.8402,-133.0645 1041.4512,-139.0612"/>
</g>
<!-- Node27&#45;&gt;Node6 -->
<g id="edge45" class="edge">
<title>Node27&#45;&gt;Node6</title>
<path fill="none" stroke="#191970" d="M1185.6941,-168.3461C1213.7736,-156.3591 1252.4648,-134.7043 1234,-112 1226.6639,-102.9795 888.8903,-37.7076 778.5023,-16.5797"/>
<polygon fill="#191970" stroke="#191970" points="779.0276,-13.1168 768.5482,-14.6763 777.7128,-19.9923 779.0276,-13.1168"/>
</g>
<!-- Node27&#45;&gt;Node9 -->
<g id="edge46" class="edge">
<title>Node27&#45;&gt;Node9</title>
<path fill="none" stroke="#191970" d="M1233.5044,-168.6796C1277.8697,-161.3752 1328.384,-149.4856 1342,-132 1347.4613,-124.9867 1345.9837,-119.9462 1342,-112 1323.3561,-74.8116 1305.7414,-71.155 1267,-56 1192.2396,-26.7549 945.8118,-14.5683 858.7767,-11.1066"/>
<polygon fill="#191970" stroke="#191970" points="858.87,-7.6077 848.7422,-10.7184 858.5993,-14.6025 858.87,-7.6077"/>
</g>
<!-- Node27&#45;&gt;Node16 -->
<g id="edge47" class="edge">
<title>Node27&#45;&gt;Node16</title>
<path fill="none" stroke="#191970" d="M1127.3378,-168.3733C1092.1868,-158.013 1036.6496,-141.6441 1001.826,-131.3803"/>
<polygon fill="#191970" stroke="#191970" points="1002.7401,-128.0009 992.1585,-128.5309 1000.7611,-134.7154 1002.7401,-128.0009"/>
</g>
<!-- Node27&#45;&gt;Node25 -->
<g id="edge43" class="edge">
<title>Node27&#45;&gt;Node25</title>
<path fill="none" stroke="#191970" d="M1160,-168.2455C1160,-160.9382 1160,-150.6944 1160,-141.7046"/>
<polygon fill="#191970" stroke="#191970" points="1163.5001,-141.6426 1160,-131.6427 1156.5001,-141.6427 1163.5001,-141.6426"/>
</g>
<!-- Node28 -->
<g id="node29" class="node">
<title>Node28</title>
<polygon fill="#ffffff" stroke="#bfbfbf" points="1281,-112.5 1281,-131.5 1333,-131.5 1333,-112.5 1281,-112.5"/>
<text text-anchor="middle" x="1307" y="-119.5" font-family="Helvetica,sans-Serif" font-size="10.00" fill="#000000">stddef.h</text>
</g>
<!-- Node27&#45;&gt;Node28 -->
<g id="edge44" class="edge">
<title>Node27&#45;&gt;Node28</title>
<path fill="none" stroke="#191970" d="M1185.2702,-168.3733C1209.3966,-159.1822 1245.9362,-145.2624 1272.6877,-135.0713"/>
<polygon fill="#191970" stroke="#191970" points="1273.9607,-138.3318 1282.0596,-131.5011 1271.4687,-131.7904 1273.9607,-138.3318"/>
</g>
</g>
</svg>
        <g id="navigator" transform="translate(0 0)" fill="#404254">
                <rect fill="#f2f5e9" fill-opacity="0.5" stroke="#606060" stroke-width=".5" x="0" y="0" width="60" height="60"/>
                <use id="zoomplus" xlink:href="#zoomPlus" x="17" y="9" onmousedown="handleZoom(evt,'in')"/>
                <use id="zoomminus" xlink:href="#zoomMin" x="42" y="9" onmousedown="handleZoom(evt,'out')"/>
                <use id="reset" xlink:href="#resetDef" x="30" y="36" onmousedown="handleReset()"/>
                <g id="arrowUp" xlink:href="#dirArrow" transform="translate(30 24)" onmousedown="handlePan(0,-1)">
                  <use xlink:href="#rim" fill="#404040">
                        <set attributeName="fill" to="#808080" begin="arrowUp.mouseover" end="arrowUp.mouseout"/>
                  </use>
                  <path fill="none" stroke="white" stroke-width="1.5" d="M0,-3.0v7 M-2.5,-0.5L0,-3.0L2.5,-0.5"/>
                </g>
                <g id="arrowRight" xlink:href="#dirArrow" transform="rotate(90) translate(36 -43)" onmousedown="handlePan(1,0)">
                  <use xlink:href="#rim" fill="#404040">
                        <set attributeName="fill" to="#808080" begin="arrowRight.mouseover" end="arrowRight.mouseout"/>
                  </use>
                  <path fill="none" stroke="white" stroke-width="1.5" d="M0,-3.0v7 M-2.5,-0.5L0,-3.0L2.5,-0.5"/>
                </g>
                <g id="arrowDown" xlink:href="#dirArrow" transform="rotate(180) translate(-30 -48)" onmousedown="handlePan(0,1)">
                  <use xlink:href="#rim" fill="#404040">
                        <set attributeName="fill" to="#808080" begin="arrowDown.mouseover" end="arrowDown.mouseout"/>
                  </use>
                  <path fill="none" stroke="white" stroke-width="1.5" d="M0,-3.0v7 M-2.5,-0.5L0,-3.0L2.5,-0.5"/>
                </g>
                <g id="arrowLeft" xlink:href="#dirArrow" transform="rotate(270) translate(-36 17)" onmousedown="handlePan(-1,0)">
                  <use xlink:href="#rim" fill="#404040">
                        <set attributeName="fill" to="#808080" begin="arrowLeft.mouseover" end="arrowLeft.mouseout"/>
                  </use>
                  <path fill="none" stroke="white" stroke-width="1.5" d="M0,-3.0v7 M-2.5,-0.5L0,-3.0L2.5,-0.5"/>
                </g>
        </g>
        <svg viewBox="0 0 15 15" width="100%" height="30px" preserveAspectRatio="xMaxYMin meet">
         <g id="arrow_out" transform="scale(0.3 0.3)">
          <a xlink:href="ancillarydata__cea708_8cpp__incl_org.svg" target="_base">
           <rect id="button" ry="5" rx="5" y="6" x="6" height="38" width="38"
                fill="#f2f5e9" fill-opacity="0.5" stroke="#606060" stroke-width="1.0"/>
           <path id="arrow"
             d="M 11.500037,31.436501 C 11.940474,20.09759 22.043105,11.32322 32.158766,21.979434 L 37.068811,17.246167 C 37.068811,17.246167 37.088388,32 37.088388,32 L 22.160133,31.978069 C 22.160133,31.978069 26.997745,27.140456 26.997745,27.140456 C 18.528582,18.264221 13.291696,25.230495 11.500037,31.436501 z"
             style="fill:#404040;"/>
          </a>
         </g>
        </svg>
</svg>
