<?xml version="1.0" encoding="UTF-8" standalone="no"?>
<!DOCTYPE svg PUBLIC "-//W3C//DTD SVG 1.1//EN"
 "http://www.w3.org/Graphics/SVG/1.1/DTD/svg11.dtd">
<!-- Generated by graphviz version 2.43.0 (0)
 -->
<!-- Title: /home/tcbuilder/buildAgent/work/df8e8cce5bebfd58/libajantv2/ajabase/system/log.h Pages: 1 -->
<svg width="690pt" height="218pt"
 viewBox="0.00 0.00 689.50 218.00" xmlns="http://www.w3.org/2000/svg" xmlns:xlink="http://www.w3.org/1999/xlink">
<g id="graph0" class="graph" transform="scale(1 1) rotate(0) translate(4 214)">
<title>/home/tcbuilder/buildAgent/work/df8e8cce5bebfd58/libajantv2/ajabase/system/log.h</title>
<polygon fill="white" stroke="transparent" points="-4,4 -4,-214 685.5,-214 685.5,4 -4,4"/>
<!-- Node1 -->
<g id="node1" class="node">
<title>Node1</title>
<g id="a_node1"><a xlink:title="Declares the AJATimeLog class.">
<polygon fill="#bfbfbf" stroke="black" points="192,-168.5 192,-209.5 380,-209.5 380,-168.5 192,-168.5"/>
<text text-anchor="start" x="200" y="-197.5" font-family="Helvetica,sans-Serif" font-size="10.00">/home/tcbuilder/buildAgent</text>
<text text-anchor="start" x="200" y="-186.5" font-family="Helvetica,sans-Serif" font-size="10.00">/work/df8e8cce5bebfd58/libajantv2</text>
<text text-anchor="middle" x="286" y="-175.5" font-family="Helvetica,sans-Serif" font-size="10.00">/ajabase/system/log.h</text>
</a>
</g>
</g>
<!-- Node2 -->
<g id="node2" class="node">
<title>Node2</title>
<g id="a_node2"><a xlink:title=" ">
<polygon fill="white" stroke="#bfbfbf" points="147,-56.5 147,-75.5 197,-75.5 197,-56.5 147,-56.5"/>
<text text-anchor="middle" x="172" y="-63.5" font-family="Helvetica,sans-Serif" font-size="10.00">stdio.h</text>
</a>
</g>
</g>
<!-- Node1&#45;&gt;Node2 -->
<g id="edge1" class="edge">
<title>Node1&#45;&gt;Node2</title>
<path fill="none" stroke="midnightblue" d="M267.43,-168.29C245.05,-144.54 207.88,-105.09 187.15,-83.08"/>
<polygon fill="midnightblue" stroke="midnightblue" points="189.48,-80.45 180.08,-75.57 184.39,-85.25 189.48,-80.45"/>
</g>
<!-- Node3 -->
<g id="node3" class="node">
<title>Node3</title>
<g id="a_node3"><a xlink:href="../../d4/d79/public_8h.html" target="_top" xlink:title="Master header for the ajabase library.">
<polygon fill="white" stroke="black" points="215,-56.5 215,-75.5 357,-75.5 357,-56.5 215,-56.5"/>
<text text-anchor="middle" x="286" y="-63.5" font-family="Helvetica,sans-Serif" font-size="10.00">ajabase/common/public.h</text>
</a>
</g>
</g>
<!-- Node1&#45;&gt;Node3 -->
<g id="edge2" class="edge">
<title>Node1&#45;&gt;Node3</title>
<path fill="none" stroke="midnightblue" d="M286,-168.29C286,-145.48 286,-108.19 286,-85.78"/>
<polygon fill="midnightblue" stroke="midnightblue" points="289.5,-85.57 286,-75.57 282.5,-85.57 289.5,-85.57"/>
</g>
<!-- Node10 -->
<g id="node10" class="node">
<title>Node10</title>
<g id="a_node10"><a xlink:href="../../db/d16/debug_8h.html" target="_top" xlink:title="Declares the AJADebug class.">
<polygon fill="white" stroke="black" points="371,-112.5 371,-131.5 427,-131.5 427,-112.5 371,-112.5"/>
<text text-anchor="middle" x="399" y="-119.5" font-family="Helvetica,sans-Serif" font-size="10.00">debug.h</text>
</a>
</g>
</g>
<!-- Node1&#45;&gt;Node10 -->
<g id="edge9" class="edge">
<title>Node1&#45;&gt;Node10</title>
<path fill="none" stroke="midnightblue" d="M319.9,-168.5C337.73,-158.24 359.15,-145.93 375.2,-136.69"/>
<polygon fill="midnightblue" stroke="midnightblue" points="377.03,-139.67 383.96,-131.65 373.54,-133.6 377.03,-139.67"/>
</g>
<!-- Node4 -->
<g id="node4" class="node">
<title>Node4</title>
<g id="a_node4"><a xlink:href="../../db/db5/export_8h.html" target="_top" xlink:title="Declares system&#45;dependent import/export macros and libraries.">
<polygon fill="white" stroke="black" points="392,-0.5 392,-19.5 536,-19.5 536,-0.5 392,-0.5"/>
<text text-anchor="middle" x="464" y="-7.5" font-family="Helvetica,sans-Serif" font-size="10.00">ajabase/common/export.h</text>
</a>
</g>
</g>
<!-- Node3&#45;&gt;Node4 -->
<g id="edge3" class="edge">
<title>Node3&#45;&gt;Node4</title>
<path fill="none" stroke="midnightblue" d="M314.2,-56.44C344.41,-47.28 392.51,-32.69 426.03,-22.52"/>
<polygon fill="midnightblue" stroke="midnightblue" points="427.37,-25.77 435.93,-19.52 425.34,-19.07 427.37,-25.77"/>
</g>
<!-- Node5 -->
<g id="node5" class="node">
<title>Node5</title>
<g id="a_node5"><a xlink:title=" ">
<polygon fill="white" stroke="#bfbfbf" points="264,-0.5 264,-19.5 308,-19.5 308,-0.5 264,-0.5"/>
<text text-anchor="middle" x="286" y="-7.5" font-family="Helvetica,sans-Serif" font-size="10.00">string</text>
</a>
</g>
</g>
<!-- Node3&#45;&gt;Node5 -->
<g id="edge4" class="edge">
<title>Node3&#45;&gt;Node5</title>
<path fill="none" stroke="midnightblue" d="M286,-56.08C286,-49.01 286,-38.86 286,-29.99"/>
<polygon fill="midnightblue" stroke="midnightblue" points="289.5,-29.75 286,-19.75 282.5,-29.75 289.5,-29.75"/>
</g>
<!-- Node6 -->
<g id="node6" class="node">
<title>Node6</title>
<g id="a_node6"><a xlink:title=" ">
<polygon fill="white" stroke="#bfbfbf" points="214,-0.5 214,-19.5 246,-19.5 246,-0.5 214,-0.5"/>
<text text-anchor="middle" x="230" y="-7.5" font-family="Helvetica,sans-Serif" font-size="10.00">list</text>
</a>
</g>
</g>
<!-- Node3&#45;&gt;Node6 -->
<g id="edge5" class="edge">
<title>Node3&#45;&gt;Node6</title>
<path fill="none" stroke="midnightblue" d="M277,-56.32C268.81,-48.42 256.49,-36.55 246.53,-26.94"/>
<polygon fill="midnightblue" stroke="midnightblue" points="248.79,-24.26 239.16,-19.83 243.93,-29.29 248.79,-24.26"/>
</g>
<!-- Node7 -->
<g id="node7" class="node">
<title>Node7</title>
<g id="a_node7"><a xlink:title=" ">
<polygon fill="white" stroke="#bfbfbf" points="326.5,-0.5 326.5,-19.5 373.5,-19.5 373.5,-0.5 326.5,-0.5"/>
<text text-anchor="middle" x="350" y="-7.5" font-family="Helvetica,sans-Serif" font-size="10.00">vector</text>
</a>
</g>
</g>
<!-- Node3&#45;&gt;Node7 -->
<g id="edge6" class="edge">
<title>Node3&#45;&gt;Node7</title>
<path fill="none" stroke="midnightblue" d="M296.28,-56.32C305.84,-48.26 320.28,-36.08 331.78,-26.37"/>
<polygon fill="midnightblue" stroke="midnightblue" points="334.14,-28.96 339.53,-19.83 329.63,-23.61 334.14,-28.96"/>
</g>
<!-- Node8 -->
<g id="node8" class="node">
<title>Node8</title>
<g id="a_node8"><a xlink:title=" ">
<polygon fill="white" stroke="#bfbfbf" points="0,-0.5 0,-19.5 38,-19.5 38,-0.5 0,-0.5"/>
<text text-anchor="middle" x="19" y="-7.5" font-family="Helvetica,sans-Serif" font-size="10.00">map</text>
</a>
</g>
</g>
<!-- Node3&#45;&gt;Node8 -->
<g id="edge7" class="edge">
<title>Node3&#45;&gt;Node8</title>
<path fill="none" stroke="midnightblue" d="M230.03,-56.49C183.6,-48.98 115.73,-36.93 48.15,-20.04"/>
<polygon fill="midnightblue" stroke="midnightblue" points="48.74,-16.58 38.19,-17.52 47.02,-23.37 48.74,-16.58"/>
</g>
<!-- Node9 -->
<g id="node9" class="node">
<title>Node9</title>
<g id="a_node9"><a xlink:href="../../d9/d49/types_8h.html" target="_top" xlink:title="Declares common types used in the ajabase library.">
<polygon fill="white" stroke="black" points="56,-0.5 56,-19.5 196,-19.5 196,-0.5 56,-0.5"/>
<text text-anchor="middle" x="126" y="-7.5" font-family="Helvetica,sans-Serif" font-size="10.00">ajabase/common/types.h</text>
</a>
</g>
</g>
<!-- Node3&#45;&gt;Node9 -->
<g id="edge8" class="edge">
<title>Node3&#45;&gt;Node9</title>
<path fill="none" stroke="midnightblue" d="M260.65,-56.44C233.73,-47.36 191,-32.94 160.91,-22.78"/>
<polygon fill="midnightblue" stroke="midnightblue" points="161.83,-19.4 151.23,-19.52 159.59,-26.03 161.83,-19.4"/>
</g>
<!-- Node10&#45;&gt;Node2 -->
<g id="edge10" class="edge">
<title>Node10&#45;&gt;Node2</title>
<path fill="none" stroke="midnightblue" d="M370.81,-114.7C335,-106.64 271.07,-92.06 207.08,-76.22"/>
<polygon fill="midnightblue" stroke="midnightblue" points="207.78,-72.78 197.23,-73.77 206.09,-79.58 207.78,-72.78"/>
</g>
<!-- Node10&#45;&gt;Node3 -->
<g id="edge13" class="edge">
<title>Node10&#45;&gt;Node3</title>
<path fill="none" stroke="midnightblue" d="M381.09,-112.44C362.75,-103.68 333.99,-89.94 312.91,-79.86"/>
<polygon fill="midnightblue" stroke="midnightblue" points="314.35,-76.67 303.82,-75.52 311.33,-82.99 314.35,-76.67"/>
</g>
<!-- Node11 -->
<g id="node11" class="node">
<title>Node11</title>
<g id="a_node11"><a xlink:title=" ">
<polygon fill="white" stroke="#bfbfbf" points="557,-56.5 557,-75.5 613,-75.5 613,-56.5 557,-56.5"/>
<text text-anchor="middle" x="585" y="-63.5" font-family="Helvetica,sans-Serif" font-size="10.00">sstream</text>
</a>
</g>
</g>
<!-- Node10&#45;&gt;Node11 -->
<g id="edge11" class="edge">
<title>Node10&#45;&gt;Node11</title>
<path fill="none" stroke="midnightblue" d="M427.25,-112.8C459.16,-103.53 511.26,-88.41 546.79,-78.09"/>
<polygon fill="midnightblue" stroke="midnightblue" points="548.16,-81.34 556.79,-75.19 546.21,-74.62 548.16,-81.34"/>
</g>
<!-- Node12 -->
<g id="node12" class="node">
<title>Node12</title>
<g id="a_node12"><a xlink:title=" ">
<polygon fill="white" stroke="#bfbfbf" points="631,-56.5 631,-75.5 663,-75.5 663,-56.5 631,-56.5"/>
<text text-anchor="middle" x="647" y="-63.5" font-family="Helvetica,sans-Serif" font-size="10.00">set</text>
</a>
</g>
</g>
<!-- Node10&#45;&gt;Node12 -->
<g id="edge12" class="edge">
<title>Node10&#45;&gt;Node12</title>
<path fill="none" stroke="midnightblue" d="M427.12,-116.68C467.89,-110.14 545.88,-96.52 620.89,-75.97"/>
<polygon fill="midnightblue" stroke="midnightblue" points="622.28,-79.22 630.97,-73.16 620.4,-72.47 622.28,-79.22"/>
</g>
<!-- Node13 -->
<g id="node13" class="node">
<title>Node13</title>
<g id="a_node13"><a xlink:href="../../d0/db4/debugshare_8h.html" target="_top" xlink:title="Declares the constants used for sharing debug messages. These structures are used to gather debug mes...">
<polygon fill="white" stroke="black" points="375.5,-56.5 375.5,-75.5 538.5,-75.5 538.5,-56.5 375.5,-56.5"/>
<text text-anchor="middle" x="457" y="-63.5" font-family="Helvetica,sans-Serif" font-size="10.00">ajabase/system/debugshare.h</text>
</a>
</g>
</g>
<!-- Node10&#45;&gt;Node13 -->
<g id="edge14" class="edge">
<title>Node10&#45;&gt;Node13</title>
<path fill="none" stroke="midnightblue" d="M408.32,-112.32C416.89,-104.34 429.81,-92.31 440.19,-82.65"/>
<polygon fill="midnightblue" stroke="midnightblue" points="442.58,-85.21 447.51,-75.83 437.81,-80.09 442.58,-85.21"/>
</g>
<!-- Node13&#45;&gt;Node4 -->
<g id="edge15" class="edge">
<title>Node13&#45;&gt;Node4</title>
<path fill="none" stroke="midnightblue" d="M458.16,-56.08C459.08,-48.93 460.42,-38.64 461.58,-29.69"/>
<polygon fill="midnightblue" stroke="midnightblue" points="465.05,-30.12 462.87,-19.75 458.11,-29.22 465.05,-30.12"/>
</g>
<!-- Node13&#45;&gt;Node5 -->
<g id="edge18" class="edge">
<title>Node13&#45;&gt;Node5</title>
<path fill="none" stroke="midnightblue" d="M429.9,-56.44C399.48,-46.84 350.16,-31.26 317.9,-21.07"/>
<polygon fill="midnightblue" stroke="midnightblue" points="318.66,-17.64 308.07,-17.97 316.56,-24.32 318.66,-17.64"/>
</g>
<!-- Node13&#45;&gt;Node7 -->
<g id="edge19" class="edge">
<title>Node13&#45;&gt;Node7</title>
<path fill="none" stroke="midnightblue" d="M439.81,-56.32C422.65,-47.66 396.05,-34.24 376.25,-24.25"/>
<polygon fill="midnightblue" stroke="midnightblue" points="377.65,-21.04 367.15,-19.65 374.5,-27.28 377.65,-21.04"/>
</g>
<!-- Node14 -->
<g id="node14" class="node">
<title>Node14</title>
<g id="a_node14"><a xlink:title=" ">
<polygon fill="white" stroke="#bfbfbf" points="554,-0.5 554,-19.5 610,-19.5 610,-0.5 554,-0.5"/>
<text text-anchor="middle" x="582" y="-7.5" font-family="Helvetica,sans-Serif" font-size="10.00">stddef.h</text>
</a>
</g>
</g>
<!-- Node13&#45;&gt;Node14 -->
<g id="edge16" class="edge">
<title>Node13&#45;&gt;Node14</title>
<path fill="none" stroke="midnightblue" d="M476.81,-56.44C497.29,-47.6 529.48,-33.69 552.86,-23.59"/>
<polygon fill="midnightblue" stroke="midnightblue" points="554.49,-26.7 562.29,-19.52 551.72,-20.27 554.49,-26.7"/>
</g>
<!-- Node15 -->
<g id="node15" class="node">
<title>Node15</title>
<g id="a_node15"><a xlink:title=" ">
<polygon fill="white" stroke="#bfbfbf" points="628.5,-0.5 628.5,-19.5 681.5,-19.5 681.5,-0.5 628.5,-0.5"/>
<text text-anchor="middle" x="655" y="-7.5" font-family="Helvetica,sans-Serif" font-size="10.00">stdint.h</text>
</a>
</g>
</g>
<!-- Node13&#45;&gt;Node15 -->
<g id="edge17" class="edge">
<title>Node13&#45;&gt;Node15</title>
<path fill="none" stroke="midnightblue" d="M488.37,-56.44C523.66,-46.82 580.9,-31.21 618.25,-21.02"/>
<polygon fill="midnightblue" stroke="midnightblue" points="619.49,-24.31 628.22,-18.3 617.65,-17.56 619.49,-24.31"/>
</g>
</g>
</svg>
