<?xml version="1.0" encoding="UTF-8" standalone="no"?>
<!DOCTYPE svg PUBLIC "-//W3C//DTD SVG 1.1//EN"
 "http://www.w3.org/Graphics/SVG/1.1/DTD/svg11.dtd">
<!-- Generated by graphviz version 2.43.0 (0)
 -->
<!-- Title: /home/tcbuilder/buildAgent/work/df8e8cce5bebfd58/libajantv2/ajantv2/src/mac/ntv2macdriverinterface.h Pages: 1 -->
<svg width="1838pt" height="498pt"
 viewBox="0.00 0.00 1837.99 498.00" xmlns="http://www.w3.org/2000/svg" xmlns:xlink="http://www.w3.org/1999/xlink">
<g id="graph0" class="graph" transform="scale(1 1) rotate(0) translate(4 494)">
<title>/home/tcbuilder/buildAgent/work/df8e8cce5bebfd58/libajantv2/ajantv2/src/mac/ntv2macdriverinterface.h</title>
<polygon fill="white" stroke="transparent" points="-4,4 -4,-494 1833.99,-494 1833.99,4 -4,4"/>
<!-- Node1 -->
<g id="node1" class="node">
<title>Node1</title>
<g id="a_node1"><a xlink:title="Implements the MacOS&#45;specific flavor of CNTV2DriverInterface.">
<polygon fill="#bfbfbf" stroke="black" points="0.99,-448.5 0.99,-489.5 224.99,-489.5 224.99,-448.5 0.99,-448.5"/>
<text text-anchor="start" x="8.99" y="-477.5" font-family="Helvetica,sans-Serif" font-size="10.00">/home/tcbuilder/buildAgent</text>
<text text-anchor="start" x="8.99" y="-466.5" font-family="Helvetica,sans-Serif" font-size="10.00">/work/df8e8cce5bebfd58/libajantv2</text>
<text text-anchor="middle" x="112.99" y="-455.5" font-family="Helvetica,sans-Serif" font-size="10.00">/ajantv2/src/mac/ntv2macdriverinterface.h</text>
</a>
</g>
</g>
<!-- Node2 -->
<g id="node2" class="node">
<title>Node2</title>
<g id="a_node2"><a xlink:href="../../d4/dd7/ntv2publicinterface_8h.html" target="_top" xlink:title="Declares enums and structs used by all platform drivers and the SDK.">
<polygon fill="white" stroke="black" points="556.99,-168.5 556.99,-187.5 676.99,-187.5 676.99,-168.5 556.99,-168.5"/>
<text text-anchor="middle" x="616.99" y="-175.5" font-family="Helvetica,sans-Serif" font-size="10.00">ntv2publicinterface.h</text>
</a>
</g>
</g>
<!-- Node1&#45;&gt;Node2 -->
<g id="edge1" class="edge">
<title>Node1&#45;&gt;Node2</title>
<path fill="none" stroke="midnightblue" d="M78.24,-448.4C37.12,-422.69 -22.1,-376.13 8.99,-336 43.42,-291.55 417.19,-216.78 561.03,-189.43"/>
<polygon fill="midnightblue" stroke="midnightblue" points="561.81,-192.84 570.98,-187.54 560.5,-185.97 561.81,-192.84"/>
</g>
<!-- Node17 -->
<g id="node17" class="node">
<title>Node17</title>
<g id="a_node17"><a xlink:href="../../da/d23/ntv2macpublicinterface_8h.html" target="_top" xlink:title="Declares MacOS&#45;only enums used by the Mac driver and the SDK.">
<polygon fill="white" stroke="black" points="42.49,-392.5 42.49,-411.5 183.49,-411.5 183.49,-392.5 42.49,-392.5"/>
<text text-anchor="middle" x="112.99" y="-399.5" font-family="Helvetica,sans-Serif" font-size="10.00">ntv2macpublicinterface.h</text>
</a>
</g>
</g>
<!-- Node1&#45;&gt;Node17 -->
<g id="edge20" class="edge">
<title>Node1&#45;&gt;Node17</title>
<path fill="none" stroke="midnightblue" d="M112.99,-448.5C112.99,-440.07 112.99,-430.24 112.99,-421.87"/>
<polygon fill="midnightblue" stroke="midnightblue" points="116.49,-421.65 112.99,-411.65 109.49,-421.65 116.49,-421.65"/>
</g>
<!-- Node19 -->
<g id="node19" class="node">
<title>Node19</title>
<g id="a_node19"><a xlink:href="../../d4/dc0/ntv2driverinterface_8h.html" target="_top" xlink:title="Declares the CNTV2DriverInterface base class.">
<polygon fill="white" stroke="black" points="858.49,-392.5 858.49,-411.5 977.49,-411.5 977.49,-392.5 858.49,-392.5"/>
<text text-anchor="middle" x="917.99" y="-399.5" font-family="Helvetica,sans-Serif" font-size="10.00">ntv2driverinterface.h</text>
</a>
</g>
</g>
<!-- Node1&#45;&gt;Node19 -->
<g id="edge23" class="edge">
<title>Node1&#45;&gt;Node19</title>
<path fill="none" stroke="midnightblue" d="M225.34,-458.93C394.28,-445.29 708.75,-419.9 848.25,-408.63"/>
<polygon fill="midnightblue" stroke="midnightblue" points="848.7,-412.11 858.39,-407.81 848.14,-405.13 848.7,-412.11"/>
</g>
<!-- Node3 -->
<g id="node3" class="node">
<title>Node3</title>
<g id="a_node3"><a xlink:href="../../db/de2/ajatypes_8h.html" target="_top" xlink:title="Declares the most fundamental data types used by NTV2. Since Windows NT was the first principal devel...">
<polygon fill="white" stroke="black" points="901.99,-56.5 901.99,-75.5 969.99,-75.5 969.99,-56.5 901.99,-56.5"/>
<text text-anchor="middle" x="935.99" y="-63.5" font-family="Helvetica,sans-Serif" font-size="10.00">ajatypes.h</text>
</a>
</g>
</g>
<!-- Node2&#45;&gt;Node3 -->
<g id="edge2" class="edge">
<title>Node2&#45;&gt;Node3</title>
<path fill="none" stroke="midnightblue" d="M647.63,-168.44C676.46,-160.1 720.65,-146.58 757.99,-132 777.62,-124.34 781.4,-119.79 800.99,-112 833.09,-99.23 870.4,-86.99 897.65,-78.5"/>
<polygon fill="midnightblue" stroke="midnightblue" points="898.68,-81.85 907.2,-75.55 896.62,-75.16 898.68,-81.85"/>
</g>
<!-- Node5 -->
<g id="node5" class="node">
<title>Node5</title>
<g id="a_node5"><a xlink:href="../../d6/d0c/ntv2enums_8h.html" target="_top" xlink:title="Enumerations for controlling NTV2 devices.">
<polygon fill="white" stroke="black" points="199.99,-112.5 199.99,-131.5 279.99,-131.5 279.99,-112.5 199.99,-112.5"/>
<text text-anchor="middle" x="239.99" y="-119.5" font-family="Helvetica,sans-Serif" font-size="10.00">ntv2enums.h</text>
</a>
</g>
</g>
<!-- Node2&#45;&gt;Node5 -->
<g id="edge4" class="edge">
<title>Node2&#45;&gt;Node5</title>
<path fill="none" stroke="midnightblue" d="M556.71,-169.56C492.95,-161.51 389.16,-147.86 289.97,-132.1"/>
<polygon fill="midnightblue" stroke="midnightblue" points="290.5,-128.64 280.07,-130.52 289.4,-135.55 290.5,-128.64"/>
</g>
<!-- Node7 -->
<g id="node7" class="node">
<title>Node7</title>
<g id="a_node7"><a xlink:href="../../d6/dd9/ajaexport_8h.html" target="_top" xlink:title="Defines the import/export macros for producing DLLs or LIBs.">
<polygon fill="white" stroke="black" points="346.99,-0.5 346.99,-19.5 418.99,-19.5 418.99,-0.5 346.99,-0.5"/>
<text text-anchor="middle" x="382.99" y="-7.5" font-family="Helvetica,sans-Serif" font-size="10.00">ajaexport.h</text>
</a>
</g>
</g>
<!-- Node2&#45;&gt;Node7 -->
<g id="edge17" class="edge">
<title>Node2&#45;&gt;Node7</title>
<path fill="none" stroke="midnightblue" d="M619.13,-168.08C621.82,-154.61 624.76,-128.87 612.99,-112 570.55,-51.19 483.02,-26.6 429.01,-16.95"/>
<polygon fill="midnightblue" stroke="midnightblue" points="429.46,-13.47 419.01,-15.26 428.29,-20.37 429.46,-13.47"/>
</g>
<!-- Node8 -->
<g id="node8" class="node">
<title>Node8</title>
<g id="a_node8"><a xlink:title=" ">
<polygon fill="white" stroke="#bfbfbf" points="1103.99,-0.5 1103.99,-19.5 1147.99,-19.5 1147.99,-0.5 1103.99,-0.5"/>
<text text-anchor="middle" x="1125.99" y="-7.5" font-family="Helvetica,sans-Serif" font-size="10.00">string</text>
</a>
</g>
</g>
<!-- Node2&#45;&gt;Node8 -->
<g id="edge13" class="edge">
<title>Node2&#45;&gt;Node8</title>
<path fill="none" stroke="midnightblue" d="M640.19,-168.49C662.37,-160.09 696.55,-146.44 724.99,-132 740.28,-124.24 742.69,-119.75 757.99,-112 815.93,-82.64 830.78,-74.7 892.99,-56 963.12,-34.92 1048.19,-21.42 1093.65,-15.13"/>
<polygon fill="midnightblue" stroke="midnightblue" points="1094.35,-18.57 1103.79,-13.76 1093.41,-11.63 1094.35,-18.57"/>
</g>
<!-- Node9 -->
<g id="node9" class="node">
<title>Node9</title>
<g id="a_node9"><a xlink:title=" ">
<polygon fill="white" stroke="#bfbfbf" points="809.99,-112.5 809.99,-131.5 869.99,-131.5 869.99,-112.5 809.99,-112.5"/>
<text text-anchor="middle" x="839.99" y="-119.5" font-family="Helvetica,sans-Serif" font-size="10.00">iostream</text>
</a>
</g>
</g>
<!-- Node2&#45;&gt;Node9 -->
<g id="edge9" class="edge">
<title>Node2&#45;&gt;Node9</title>
<path fill="none" stroke="midnightblue" d="M652.32,-168.44C692.49,-158.72 757.91,-142.88 799.93,-132.7"/>
<polygon fill="midnightblue" stroke="midnightblue" points="800.93,-136.06 809.82,-130.3 799.28,-129.26 800.93,-136.06"/>
</g>
<!-- Node10 -->
<g id="node10" class="node">
<title>Node10</title>
<g id="a_node10"><a xlink:title=" ">
<polygon fill="white" stroke="#bfbfbf" points="571.99,-112.5 571.99,-131.5 603.99,-131.5 603.99,-112.5 571.99,-112.5"/>
<text text-anchor="middle" x="587.99" y="-119.5" font-family="Helvetica,sans-Serif" font-size="10.00">set</text>
</a>
</g>
</g>
<!-- Node2&#45;&gt;Node10 -->
<g id="edge10" class="edge">
<title>Node2&#45;&gt;Node10</title>
<path fill="none" stroke="midnightblue" d="M612.2,-168.08C608.23,-160.69 602.46,-149.95 597.55,-140.81"/>
<polygon fill="midnightblue" stroke="midnightblue" points="600.5,-138.91 592.69,-131.75 594.34,-142.22 600.5,-138.91"/>
</g>
<!-- Node11 -->
<g id="node11" class="node">
<title>Node11</title>
<g id="a_node11"><a xlink:title=" ">
<polygon fill="white" stroke="#bfbfbf" points="1317.99,-112.5 1317.99,-131.5 1355.99,-131.5 1355.99,-112.5 1317.99,-112.5"/>
<text text-anchor="middle" x="1336.99" y="-119.5" font-family="Helvetica,sans-Serif" font-size="10.00">map</text>
</a>
</g>
</g>
<!-- Node2&#45;&gt;Node11 -->
<g id="edge11" class="edge">
<title>Node2&#45;&gt;Node11</title>
<path fill="none" stroke="midnightblue" d="M677.18,-173.94C827.83,-166.15 1215.14,-145.38 1307.85,-131.53"/>
<polygon fill="midnightblue" stroke="midnightblue" points="1308.59,-134.95 1317.87,-129.83 1307.43,-128.05 1308.59,-134.95"/>
</g>
<!-- Node12 -->
<g id="node12" class="node">
<title>Node12</title>
<g id="a_node12"><a xlink:title=" ">
<polygon fill="white" stroke="#bfbfbf" points="1154.49,-112.5 1154.49,-131.5 1201.49,-131.5 1201.49,-112.5 1154.49,-112.5"/>
<text text-anchor="middle" x="1177.99" y="-119.5" font-family="Helvetica,sans-Serif" font-size="10.00">vector</text>
</a>
</g>
</g>
<!-- Node2&#45;&gt;Node12 -->
<g id="edge12" class="edge">
<title>Node2&#45;&gt;Node12</title>
<path fill="none" stroke="midnightblue" d="M677.02,-171.22C794.62,-159.9 1051.87,-135.14 1144.18,-126.25"/>
<polygon fill="midnightblue" stroke="midnightblue" points="1144.73,-129.72 1154.35,-125.28 1144.06,-122.75 1144.73,-129.72"/>
</g>
<!-- Node13 -->
<g id="node13" class="node">
<title>Node13</title>
<g id="a_node13"><a xlink:title=" ">
<polygon fill="white" stroke="#bfbfbf" points="659.99,-112.5 659.99,-131.5 715.99,-131.5 715.99,-112.5 659.99,-112.5"/>
<text text-anchor="middle" x="687.99" y="-119.5" font-family="Helvetica,sans-Serif" font-size="10.00">iomanip</text>
</a>
</g>
</g>
<!-- Node2&#45;&gt;Node13 -->
<g id="edge14" class="edge">
<title>Node2&#45;&gt;Node13</title>
<path fill="none" stroke="midnightblue" d="M628.4,-168.32C639.1,-160.18 655.33,-147.84 668.15,-138.09"/>
<polygon fill="midnightblue" stroke="midnightblue" points="670.53,-140.67 676.37,-131.83 666.29,-135.1 670.53,-140.67"/>
</g>
<!-- Node14 -->
<g id="node14" class="node">
<title>Node14</title>
<g id="a_node14"><a xlink:title=" ">
<polygon fill="white" stroke="#bfbfbf" points="437.99,-112.5 437.99,-131.5 481.99,-131.5 481.99,-112.5 437.99,-112.5"/>
<text text-anchor="middle" x="459.99" y="-119.5" font-family="Helvetica,sans-Serif" font-size="10.00">bitset</text>
</a>
</g>
</g>
<!-- Node2&#45;&gt;Node14 -->
<g id="edge15" class="edge">
<title>Node2&#45;&gt;Node14</title>
<path fill="none" stroke="midnightblue" d="M592.11,-168.44C564.92,-159.09 521.29,-144.09 491.67,-133.9"/>
<polygon fill="midnightblue" stroke="midnightblue" points="492.8,-130.59 482.21,-130.64 490.53,-137.21 492.8,-130.59"/>
</g>
<!-- Node15 -->
<g id="node15" class="node">
<title>Node15</title>
<g id="a_node15"><a xlink:title=" ">
<polygon fill="white" stroke="#bfbfbf" points="500.49,-112.5 500.49,-131.5 553.49,-131.5 553.49,-112.5 500.49,-112.5"/>
<text text-anchor="middle" x="526.99" y="-119.5" font-family="Helvetica,sans-Serif" font-size="10.00">string.h</text>
</a>
</g>
</g>
<!-- Node2&#45;&gt;Node15 -->
<g id="edge16" class="edge">
<title>Node2&#45;&gt;Node15</title>
<path fill="none" stroke="midnightblue" d="M602.53,-168.32C588.49,-159.9 566.94,-146.97 550.44,-137.07"/>
<polygon fill="midnightblue" stroke="midnightblue" points="551.79,-133.8 541.41,-131.65 548.19,-139.8 551.79,-133.8"/>
</g>
<!-- Node16 -->
<g id="node16" class="node">
<title>Node16</title>
<g id="a_node16"><a xlink:href="../../da/df0/ntv2virtualregisters_8h.html" target="_top" xlink:title="Declares enums for virtual registers used in all platform drivers and the SDK.">
<polygon fill="white" stroke="black" points="297.99,-112.5 297.99,-131.5 419.99,-131.5 419.99,-112.5 297.99,-112.5"/>
<text text-anchor="middle" x="358.99" y="-119.5" font-family="Helvetica,sans-Serif" font-size="10.00">ntv2virtualregisters.h</text>
</a>
</g>
</g>
<!-- Node2&#45;&gt;Node16 -->
<g id="edge18" class="edge">
<title>Node2&#45;&gt;Node16</title>
<path fill="none" stroke="midnightblue" d="M576.11,-168.44C531.01,-159 458.38,-143.8 409.69,-133.61"/>
<polygon fill="midnightblue" stroke="midnightblue" points="410.18,-130.14 399.68,-131.52 408.75,-136.99 410.18,-130.14"/>
</g>
<!-- Node4 -->
<g id="node4" class="node">
<title>Node4</title>
<g id="a_node4"><a xlink:title=" ">
<polygon fill="white" stroke="#bfbfbf" points="909.49,-0.5 909.49,-19.5 962.49,-19.5 962.49,-0.5 909.49,-0.5"/>
<text text-anchor="middle" x="935.99" y="-7.5" font-family="Helvetica,sans-Serif" font-size="10.00">stdint.h</text>
</a>
</g>
</g>
<!-- Node3&#45;&gt;Node4 -->
<g id="edge3" class="edge">
<title>Node3&#45;&gt;Node4</title>
<path fill="none" stroke="midnightblue" d="M935.99,-56.08C935.99,-49.01 935.99,-38.86 935.99,-29.99"/>
<polygon fill="midnightblue" stroke="midnightblue" points="939.49,-29.75 935.99,-19.75 932.49,-29.75 939.49,-29.75"/>
</g>
<!-- Node5&#45;&gt;Node3 -->
<g id="edge5" class="edge">
<title>Node5&#45;&gt;Node3</title>
<path fill="none" stroke="midnightblue" d="M280.04,-113.26C283.06,-112.8 286.07,-112.37 288.99,-112 406.2,-97.21 766,-76.43 891.92,-69.42"/>
<polygon fill="midnightblue" stroke="midnightblue" points="892.18,-72.91 901.97,-68.86 891.79,-65.92 892.18,-72.91"/>
</g>
<!-- Node6 -->
<g id="node6" class="node">
<title>Node6</title>
<g id="a_node6"><a xlink:href="../../d6/db1/ntv2version_8h.html" target="_top" xlink:title="Defines for the NTV2 SDK version number, used by ajantv2/includes/ntv2enums.h. See the ajantv2/includ...">
<polygon fill="white" stroke="black" points="660.49,-56.5 660.49,-75.5 743.49,-75.5 743.49,-56.5 660.49,-56.5"/>
<text text-anchor="middle" x="701.99" y="-63.5" font-family="Helvetica,sans-Serif" font-size="10.00">ntv2version.h</text>
</a>
</g>
</g>
<!-- Node5&#45;&gt;Node6 -->
<g id="edge6" class="edge">
<title>Node5&#45;&gt;Node6</title>
<path fill="none" stroke="midnightblue" d="M280.06,-113.39C283.08,-112.9 286.08,-112.43 288.99,-112 418.42,-93.09 571.74,-78.39 650.14,-71.42"/>
<polygon fill="midnightblue" stroke="midnightblue" points="650.58,-74.9 660.24,-70.53 649.97,-67.92 650.58,-74.9"/>
</g>
<!-- Node6&#45;&gt;Node7 -->
<g id="edge7" class="edge">
<title>Node6&#45;&gt;Node7</title>
<path fill="none" stroke="midnightblue" d="M660.28,-57.94C600.61,-47.84 491.24,-29.32 429.18,-18.82"/>
<polygon fill="midnightblue" stroke="midnightblue" points="429.72,-15.36 419.28,-17.14 428.55,-22.26 429.72,-15.36"/>
</g>
<!-- Node6&#45;&gt;Node8 -->
<g id="edge8" class="edge">
<title>Node6&#45;&gt;Node8</title>
<path fill="none" stroke="midnightblue" d="M743.8,-59.67C828.23,-48.92 1017.48,-24.82 1093.48,-15.14"/>
<polygon fill="midnightblue" stroke="midnightblue" points="1094.37,-18.55 1103.85,-13.82 1093.49,-11.61 1094.37,-18.55"/>
</g>
<!-- Node16&#45;&gt;Node3 -->
<g id="edge19" class="edge">
<title>Node16&#45;&gt;Node3</title>
<path fill="none" stroke="midnightblue" d="M420.05,-113C423.07,-112.65 426.06,-112.32 428.99,-112 599.72,-93.45 803.43,-77.13 891.64,-70.35"/>
<polygon fill="midnightblue" stroke="midnightblue" points="892.12,-73.82 901.82,-69.57 891.58,-66.84 892.12,-73.82"/>
</g>
<!-- Node17&#45;&gt;Node16 -->
<g id="edge22" class="edge">
<title>Node17&#45;&gt;Node16</title>
<path fill="none" stroke="midnightblue" d="M115.68,-392.42C119.2,-379.82 124.34,-355.68 118.99,-336 96.91,-254.87 -23.27,-231.38 31.99,-168 34.09,-165.59 192.23,-144.66 287.8,-132.21"/>
<polygon fill="midnightblue" stroke="midnightblue" points="288.52,-135.65 297.98,-130.89 287.62,-128.71 288.52,-135.65"/>
</g>
<!-- Node18 -->
<g id="node18" class="node">
<title>Node18</title>
<g id="a_node18"><a xlink:title=" ">
<polygon fill="white" stroke="#bfbfbf" points="18.49,-336.5 18.49,-355.5 109.49,-355.5 109.49,-336.5 18.49,-336.5"/>
<text text-anchor="middle" x="63.99" y="-343.5" font-family="Helvetica,sans-Serif" font-size="10.00">IOKit/IOKitLib.h</text>
</a>
</g>
</g>
<!-- Node17&#45;&gt;Node18 -->
<g id="edge21" class="edge">
<title>Node17&#45;&gt;Node18</title>
<path fill="none" stroke="midnightblue" d="M104.9,-392.08C97.83,-384.3 87.4,-372.8 78.84,-363.37"/>
<polygon fill="midnightblue" stroke="midnightblue" points="81.24,-360.8 71.93,-355.75 76.06,-365.51 81.24,-360.8"/>
</g>
<!-- Node19&#45;&gt;Node2 -->
<g id="edge65" class="edge">
<title>Node19&#45;&gt;Node2</title>
<path fill="none" stroke="midnightblue" d="M884.66,-392.46C824.34,-375.2 697.27,-330.27 631.99,-244 621.94,-230.72 618.45,-211.86 617.32,-197.87"/>
<polygon fill="midnightblue" stroke="midnightblue" points="620.79,-197.32 616.83,-187.5 613.8,-197.65 620.79,-197.32"/>
</g>
<!-- Node19&#45;&gt;Node3 -->
<g id="edge24" class="edge">
<title>Node19&#45;&gt;Node3</title>
<path fill="none" stroke="midnightblue" d="M977.59,-400.51C1053.52,-396.38 1174.99,-376.42 1174.99,-291 1174.99,-291 1174.99,-291 1174.99,-233 1174.99,-139.1 1049.01,-94.05 979.98,-76.41"/>
<polygon fill="midnightblue" stroke="midnightblue" points="980.78,-73 970.23,-74 979.1,-79.8 980.78,-73"/>
</g>
<!-- Node19&#45;&gt;Node5 -->
<g id="edge25" class="edge">
<title>Node19&#45;&gt;Node5</title>
<path fill="none" stroke="midnightblue" d="M875.12,-392.45C838.86,-384.66 785.79,-371.96 740.99,-356 551.55,-288.53 336.4,-175.31 264.69,-136.52"/>
<polygon fill="midnightblue" stroke="midnightblue" points="266,-133.25 255.54,-131.55 262.66,-139.4 266,-133.25"/>
</g>
<!-- Node19&#45;&gt;Node8 -->
<g id="edge75" class="edge">
<title>Node19&#45;&gt;Node8</title>
<path fill="none" stroke="midnightblue" d="M977.83,-400.09C1180.72,-396.22 1829.99,-377.12 1829.99,-291 1829.99,-291 1829.99,-291 1829.99,-121 1829.99,-56.8 1762.82,-73.27 1700.99,-56 1597.49,-27.09 1263.37,-15.02 1158.08,-11.88"/>
<polygon fill="midnightblue" stroke="midnightblue" points="1158.15,-8.38 1148.06,-11.59 1157.95,-15.38 1158.15,-8.38"/>
</g>
<!-- Node20 -->
<g id="node20" class="node">
<title>Node20</title>
<g id="a_node20"><a xlink:href="../../d8/de5/ntv2nubtypes_8h.html" target="_top" xlink:title="Declares data types and structures used in NTV2 &quot;nub&quot; packets.">
<polygon fill="white" stroke="black" points="1240.99,-168.5 1240.99,-187.5 1332.99,-187.5 1332.99,-168.5 1240.99,-168.5"/>
<text text-anchor="middle" x="1286.99" y="-175.5" font-family="Helvetica,sans-Serif" font-size="10.00">ntv2nubtypes.h</text>
</a>
</g>
</g>
<!-- Node19&#45;&gt;Node20 -->
<g id="edge26" class="edge">
<title>Node19&#45;&gt;Node20</title>
<path fill="none" stroke="midnightblue" d="M977.67,-397.12C1046.91,-391.59 1155.82,-379.42 1188.99,-356 1244.89,-316.52 1272.47,-234.6 1282.45,-197.72"/>
<polygon fill="midnightblue" stroke="midnightblue" points="1285.9,-198.37 1285,-187.81 1279.12,-196.63 1285.9,-198.37"/>
</g>
<!-- Node22 -->
<g id="node22" class="node">
<title>Node22</title>
<g id="a_node22"><a xlink:href="../../d6/d8f/ntv2nubaccess_8h.html" target="_top" xlink:title="Declares NTV2 &quot;nub&quot; client functions.">
<polygon fill="white" stroke="black" points="1311.99,-336.5 1311.99,-355.5 1409.99,-355.5 1409.99,-336.5 1311.99,-336.5"/>
<text text-anchor="middle" x="1360.99" y="-343.5" font-family="Helvetica,sans-Serif" font-size="10.00">ntv2nubaccess.h</text>
</a>
</g>
</g>
<!-- Node19&#45;&gt;Node22 -->
<g id="edge30" class="edge">
<title>Node19&#45;&gt;Node22</title>
<path fill="none" stroke="midnightblue" d="M977.73,-393.72C1062.61,-383.37 1217.17,-364.53 1301.76,-354.22"/>
<polygon fill="midnightblue" stroke="midnightblue" points="1302.22,-357.69 1311.72,-353.01 1301.37,-350.74 1302.22,-357.69"/>
</g>
<!-- Node23 -->
<g id="node23" class="node">
<title>Node23</title>
<g id="a_node23"><a xlink:href="../../d0/d81/ntv2utils_8h.html" target="_top" xlink:title="Declares numerous NTV2 utility functions.">
<polygon fill="white" stroke="black" points="883.99,-280.5 883.99,-299.5 951.99,-299.5 951.99,-280.5 883.99,-280.5"/>
<text text-anchor="middle" x="917.99" y="-287.5" font-family="Helvetica,sans-Serif" font-size="10.00">ntv2utils.h</text>
</a>
</g>
</g>
<!-- Node19&#45;&gt;Node23 -->
<g id="edge66" class="edge">
<title>Node19&#45;&gt;Node23</title>
<path fill="none" stroke="midnightblue" d="M917.99,-392.37C917.99,-374.62 917.99,-333.67 917.99,-309.6"/>
<polygon fill="midnightblue" stroke="midnightblue" points="921.49,-309.59 917.99,-299.59 914.49,-309.59 921.49,-309.59"/>
</g>
<!-- Node27 -->
<g id="node27" class="node">
<title>Node27</title>
<g id="a_node27"><a xlink:href="../../dd/d42/lock_8h.html" target="_top" xlink:title="Declares the AJALock class.">
<polygon fill="white" stroke="black" points="1598.99,-280.5 1598.99,-299.5 1724.99,-299.5 1724.99,-280.5 1598.99,-280.5"/>
<text text-anchor="middle" x="1661.99" y="-287.5" font-family="Helvetica,sans-Serif" font-size="10.00">ajabase/system/lock.h</text>
</a>
</g>
</g>
<!-- Node19&#45;&gt;Node27 -->
<g id="edge74" class="edge">
<title>Node19&#45;&gt;Node27</title>
<path fill="none" stroke="midnightblue" d="M977.81,-398.95C1072.2,-394.97 1261.2,-383.98 1418.99,-356 1493.9,-342.72 1579.39,-317.41 1626.37,-302.6"/>
<polygon fill="midnightblue" stroke="midnightblue" points="1627.6,-305.88 1636.07,-299.51 1625.48,-299.21 1627.6,-305.88"/>
</g>
<!-- Node35 -->
<g id="node35" class="node">
<title>Node35</title>
<g id="a_node35"><a xlink:href="../../d8/d0f/ntv2devicefeatures_8h.html" target="_top" xlink:title="Declares device capability functions.">
<polygon fill="white" stroke="black" points="115.99,-224.5 115.99,-243.5 235.99,-243.5 235.99,-224.5 115.99,-224.5"/>
<text text-anchor="middle" x="175.99" y="-231.5" font-family="Helvetica,sans-Serif" font-size="10.00">ntv2devicefeatures.h</text>
</a>
</g>
</g>
<!-- Node19&#45;&gt;Node35 -->
<g id="edge67" class="edge">
<title>Node19&#45;&gt;Node35</title>
<path fill="none" stroke="midnightblue" d="M858.45,-401.48C694.18,-402.24 243.55,-400.21 194.99,-356 166.65,-330.19 168.8,-280.74 172.55,-253.73"/>
<polygon fill="midnightblue" stroke="midnightblue" points="176.04,-254.1 174.17,-243.67 169.13,-252.98 176.04,-254.1"/>
</g>
<!-- Node37 -->
<g id="node37" class="node">
<title>Node37</title>
<g id="a_node37"><a xlink:title=" ">
<polygon fill="white" stroke="#bfbfbf" points="203.99,-336.5 203.99,-355.5 259.99,-355.5 259.99,-336.5 203.99,-336.5"/>
<text text-anchor="middle" x="231.99" y="-343.5" font-family="Helvetica,sans-Serif" font-size="10.00">unistd.h</text>
</a>
</g>
</g>
<!-- Node19&#45;&gt;Node37 -->
<g id="edge76" class="edge">
<title>Node19&#45;&gt;Node37</title>
<path fill="none" stroke="midnightblue" d="M858.21,-399.64C744.11,-396.43 487.61,-386.2 273.99,-356 272.74,-355.82 271.48,-355.63 270.2,-355.43"/>
<polygon fill="midnightblue" stroke="midnightblue" points="270.82,-351.98 260.36,-353.65 269.58,-358.87 270.82,-351.98"/>
</g>
<!-- Node20&#45;&gt;Node12 -->
<g id="edge29" class="edge">
<title>Node20&#45;&gt;Node12</title>
<path fill="none" stroke="midnightblue" d="M1269.48,-168.32C1251.92,-159.62 1224.66,-146.12 1204.46,-136.11"/>
<polygon fill="midnightblue" stroke="midnightblue" points="1205.97,-132.96 1195.46,-131.65 1202.86,-139.23 1205.97,-132.96"/>
</g>
<!-- Node21 -->
<g id="node21" class="node">
<title>Node21</title>
<g id="a_node21"><a xlink:href="../../d4/d18/ntv2endian_8h.html" target="_top" xlink:title="Defines a number of handy byte&#45;swapping macros.">
<polygon fill="white" stroke="black" points="1219.99,-112.5 1219.99,-131.5 1299.99,-131.5 1299.99,-112.5 1219.99,-112.5"/>
<text text-anchor="middle" x="1259.99" y="-119.5" font-family="Helvetica,sans-Serif" font-size="10.00">ntv2endian.h</text>
</a>
</g>
</g>
<!-- Node20&#45;&gt;Node21 -->
<g id="edge27" class="edge">
<title>Node20&#45;&gt;Node21</title>
<path fill="none" stroke="midnightblue" d="M1282.53,-168.08C1278.83,-160.69 1273.46,-149.95 1268.89,-140.81"/>
<polygon fill="midnightblue" stroke="midnightblue" points="1271.97,-139.13 1264.36,-131.75 1265.71,-142.26 1271.97,-139.13"/>
</g>
<!-- Node21&#45;&gt;Node3 -->
<g id="edge28" class="edge">
<title>Node21&#45;&gt;Node3</title>
<path fill="none" stroke="midnightblue" d="M1219.89,-113.57C1216.88,-113.03 1213.89,-112.5 1210.99,-112 1129.71,-97.89 1034.71,-82.61 980.32,-73.98"/>
<polygon fill="midnightblue" stroke="midnightblue" points="980.75,-70.51 970.32,-72.4 979.65,-77.42 980.75,-70.51"/>
</g>
<!-- Node22&#45;&gt;Node8 -->
<g id="edge62" class="edge">
<title>Node22&#45;&gt;Node8</title>
<path fill="none" stroke="midnightblue" d="M1364.34,-336.4C1376.47,-303.69 1414.82,-185.26 1364.99,-112 1317.48,-42.17 1211.35,-20.45 1157.96,-13.82"/>
<polygon fill="midnightblue" stroke="midnightblue" points="1158.35,-10.35 1148.02,-12.69 1157.56,-17.3 1158.35,-10.35"/>
</g>
<!-- Node22&#45;&gt;Node11 -->
<g id="edge64" class="edge">
<title>Node22&#45;&gt;Node11</title>
<path fill="none" stroke="midnightblue" d="M1360.05,-336.16C1357.31,-310.29 1349.03,-232.52 1341.99,-168 1341.05,-159.4 1339.99,-149.87 1339.09,-141.8"/>
<polygon fill="midnightblue" stroke="midnightblue" points="1342.54,-141.18 1337.96,-131.63 1335.59,-141.95 1342.54,-141.18"/>
</g>
<!-- Node22&#45;&gt;Node12 -->
<g id="edge63" class="edge">
<title>Node22&#45;&gt;Node12</title>
<path fill="none" stroke="midnightblue" d="M1353.81,-336.3C1326.43,-303.08 1228.2,-183.92 1191.74,-139.68"/>
<polygon fill="midnightblue" stroke="midnightblue" points="1194.37,-137.37 1185.31,-131.88 1188.97,-141.83 1194.37,-137.37"/>
</g>
<!-- Node22&#45;&gt;Node23 -->
<g id="edge31" class="edge">
<title>Node22&#45;&gt;Node23</title>
<path fill="none" stroke="midnightblue" d="M1311.89,-339.01C1225.04,-328.43 1045.66,-306.56 962.33,-296.41"/>
<polygon fill="midnightblue" stroke="midnightblue" points="962.53,-292.9 952.18,-295.17 961.68,-299.85 962.53,-292.9"/>
</g>
<!-- Node22&#45;&gt;Node27 -->
<g id="edge50" class="edge">
<title>Node22&#45;&gt;Node27</title>
<path fill="none" stroke="midnightblue" d="M1408.68,-336.44C1461.85,-326.9 1547.81,-311.48 1604.61,-301.29"/>
<polygon fill="midnightblue" stroke="midnightblue" points="1605.29,-304.73 1614.52,-299.52 1604.06,-297.84 1605.29,-304.73"/>
</g>
<!-- Node33 -->
<g id="node33" class="node">
<title>Node33</title>
<g id="a_node33"><a xlink:href="../../da/dae/ajarefptr_8h.html" target="_top" xlink:title="Defines the AJARefPtr template class.">
<polygon fill="white" stroke="black" points="1426.99,-280.5 1426.99,-299.5 1580.99,-299.5 1580.99,-280.5 1426.99,-280.5"/>
<text text-anchor="middle" x="1503.99" y="-287.5" font-family="Helvetica,sans-Serif" font-size="10.00">ajabase/common/ajarefptr.h</text>
</a>
</g>
</g>
<!-- Node22&#45;&gt;Node33 -->
<g id="edge59" class="edge">
<title>Node22&#45;&gt;Node33</title>
<path fill="none" stroke="midnightblue" d="M1383.65,-336.44C1407.39,-327.48 1444.9,-313.31 1471.73,-303.18"/>
<polygon fill="midnightblue" stroke="midnightblue" points="1473.32,-306.32 1481.44,-299.52 1470.84,-299.77 1473.32,-306.32"/>
</g>
<!-- Node23&#45;&gt;Node2 -->
<g id="edge37" class="edge">
<title>Node23&#45;&gt;Node2</title>
<path fill="none" stroke="midnightblue" d="M883.59,-286.77C820.77,-282.12 690.55,-269.61 653.99,-244 638.07,-232.85 628.12,-212.52 622.6,-197.55"/>
<polygon fill="midnightblue" stroke="midnightblue" points="625.83,-196.19 619.34,-187.81 619.19,-198.41 625.83,-196.19"/>
</g>
<!-- Node23&#45;&gt;Node3 -->
<g id="edge33" class="edge">
<title>Node23&#45;&gt;Node3</title>
<path fill="none" stroke="midnightblue" d="M952.05,-281.01C971.49,-274.51 994.26,-263.17 1005.99,-244 1039.55,-189.14 981.63,-115.4 951.92,-83.19"/>
<polygon fill="midnightblue" stroke="midnightblue" points="954.14,-80.44 944.72,-75.59 949.06,-85.26 954.14,-80.44"/>
</g>
<!-- Node23&#45;&gt;Node5 -->
<g id="edge34" class="edge">
<title>Node23&#45;&gt;Node5</title>
<path fill="none" stroke="midnightblue" d="M903.84,-280.28C876.31,-263.37 817.31,-227.47 806.99,-224 678.86,-180.94 637.99,-212.15 504.99,-188 423.93,-173.28 330.71,-148.57 279.26,-134.23"/>
<polygon fill="midnightblue" stroke="midnightblue" points="280.11,-130.83 269.54,-131.5 278.22,-137.57 280.11,-130.83"/>
</g>
<!-- Node23&#45;&gt;Node7 -->
<g id="edge32" class="edge">
<title>Node23&#45;&gt;Node7</title>
<path fill="none" stroke="midnightblue" d="M883.6,-287.2C751.25,-279.48 277.75,-244.25 190.99,-132 146.32,-74.21 267.03,-36.66 337.02,-20.35"/>
<polygon fill="midnightblue" stroke="midnightblue" points="337.98,-23.72 346.96,-18.1 336.43,-16.9 337.98,-23.72"/>
</g>
<!-- Node23&#45;&gt;Node8 -->
<g id="edge47" class="edge">
<title>Node23&#45;&gt;Node8</title>
<path fill="none" stroke="midnightblue" d="M952.29,-281.5C975.1,-274.96 1004.37,-263.4 1023.99,-244 1087.11,-181.58 1113.99,-73.51 1122.63,-29.98"/>
<polygon fill="midnightblue" stroke="midnightblue" points="1126.11,-30.41 1124.52,-19.93 1119.23,-29.11 1126.11,-30.41"/>
</g>
<!-- Node23&#45;&gt;Node9 -->
<g id="edge48" class="edge">
<title>Node23&#45;&gt;Node9</title>
<path fill="none" stroke="midnightblue" d="M883.85,-287.49C825.75,-284.13 711.54,-273.8 686.99,-244 647.19,-195.7 744.59,-154.08 801.84,-134.66"/>
<polygon fill="midnightblue" stroke="midnightblue" points="802.94,-137.98 811.34,-131.52 800.74,-131.34 802.94,-137.98"/>
</g>
<!-- Node23&#45;&gt;Node12 -->
<g id="edge49" class="edge">
<title>Node23&#45;&gt;Node12</title>
<path fill="none" stroke="midnightblue" d="M952.22,-289.35C994.21,-288.07 1065.64,-280.17 1112.99,-244 1147.3,-217.79 1165.59,-168.13 1173.36,-141.3"/>
<polygon fill="midnightblue" stroke="midnightblue" points="1176.74,-142.2 1175.99,-131.63 1169.99,-140.36 1176.74,-142.2"/>
</g>
<!-- Node24 -->
<g id="node24" class="node">
<title>Node24</title>
<g id="a_node24"><a xlink:href="../../d9/d61/ntv2videodefines_8h.html" target="_top" xlink:title="Declares common video macros and structs used in the SDK.">
<polygon fill="white" stroke="black" points="846.99,-168.5 846.99,-187.5 956.99,-187.5 956.99,-168.5 846.99,-168.5"/>
<text text-anchor="middle" x="901.99" y="-175.5" font-family="Helvetica,sans-Serif" font-size="10.00">ntv2videodefines.h</text>
</a>
</g>
</g>
<!-- Node23&#45;&gt;Node24 -->
<g id="edge35" class="edge">
<title>Node23&#45;&gt;Node24</title>
<path fill="none" stroke="midnightblue" d="M941.81,-280.44C968.51,-269.42 1006.19,-248.72 990.99,-224 981.44,-208.47 964.68,-198.1 948.26,-191.27"/>
<polygon fill="midnightblue" stroke="midnightblue" points="949.28,-187.92 938.69,-187.65 946.8,-194.46 949.28,-187.92"/>
</g>
<!-- Node25 -->
<g id="node25" class="node">
<title>Node25</title>
<g id="a_node25"><a xlink:href="../../dc/df4/ntv2formatdescriptor_8h.html" target="_top" xlink:title="Declares the NTV2FormatDescriptor class.">
<polygon fill="white" stroke="black" points="853.99,-224.5 853.99,-243.5 981.99,-243.5 981.99,-224.5 853.99,-224.5"/>
<text text-anchor="middle" x="917.99" y="-231.5" font-family="Helvetica,sans-Serif" font-size="10.00">ntv2formatdescriptor.h</text>
</a>
</g>
</g>
<!-- Node23&#45;&gt;Node25 -->
<g id="edge38" class="edge">
<title>Node23&#45;&gt;Node25</title>
<path fill="none" stroke="midnightblue" d="M917.99,-280.08C917.99,-273.01 917.99,-262.86 917.99,-253.99"/>
<polygon fill="midnightblue" stroke="midnightblue" points="921.49,-253.75 917.99,-243.75 914.49,-253.75 921.49,-253.75"/>
</g>
<!-- Node26 -->
<g id="node26" class="node">
<title>Node26</title>
<g id="a_node26"><a xlink:href="../../de/d26/ntv2m31enums_8h.html" target="_top" xlink:title="Enumerations for controlling NTV2 devices with m31 HEVC encoders.">
<polygon fill="white" stroke="black" points="695.99,-224.5 695.99,-243.5 797.99,-243.5 797.99,-224.5 695.99,-224.5"/>
<text text-anchor="middle" x="746.99" y="-231.5" font-family="Helvetica,sans-Serif" font-size="10.00">ntv2m31enums.h</text>
</a>
</g>
</g>
<!-- Node23&#45;&gt;Node26 -->
<g id="edge46" class="edge">
<title>Node23&#45;&gt;Node26</title>
<path fill="none" stroke="midnightblue" d="M890.89,-280.44C862,-271.32 816.06,-256.81 783.88,-246.65"/>
<polygon fill="midnightblue" stroke="midnightblue" points="784.55,-243.19 773.96,-243.52 782.44,-249.87 784.55,-243.19"/>
</g>
<!-- Node24&#45;&gt;Node3 -->
<g id="edge36" class="edge">
<title>Node24&#45;&gt;Node3</title>
<path fill="none" stroke="midnightblue" d="M916.36,-168.33C927.87,-160.47 943.18,-147.72 949.99,-132 956.57,-116.81 951.38,-98.23 945.55,-84.84"/>
<polygon fill="midnightblue" stroke="midnightblue" points="948.65,-83.22 941.14,-75.74 942.35,-86.27 948.65,-83.22"/>
</g>
<!-- Node25&#45;&gt;Node2 -->
<g id="edge42" class="edge">
<title>Node25&#45;&gt;Node2</title>
<path fill="none" stroke="midnightblue" d="M870.29,-224.44C817.12,-214.9 731.16,-199.48 674.36,-189.29"/>
<polygon fill="midnightblue" stroke="midnightblue" points="674.92,-185.84 664.46,-187.52 673.68,-192.73 674.92,-185.84"/>
</g>
<!-- Node25&#45;&gt;Node3 -->
<g id="edge40" class="edge">
<title>Node25&#45;&gt;Node3</title>
<path fill="none" stroke="midnightblue" d="M890.99,-224.46C861.95,-213.75 821.95,-193.64 837.99,-168 857.38,-136.99 887.44,-159.11 911.99,-132 923.71,-119.05 929.86,-99.89 932.98,-85.72"/>
<polygon fill="midnightblue" stroke="midnightblue" points="936.47,-86.12 934.89,-75.64 929.59,-84.81 936.47,-86.12"/>
</g>
<!-- Node25&#45;&gt;Node5 -->
<g id="edge41" class="edge">
<title>Node25&#45;&gt;Node5</title>
<path fill="none" stroke="midnightblue" d="M853.84,-225.46C749.85,-213.19 555.27,-190.08 547.99,-188 527.72,-182.21 525.12,-174.23 504.99,-168 415.01,-140.14 386.67,-148.21 289.98,-132.11"/>
<polygon fill="midnightblue" stroke="midnightblue" points="290.54,-128.66 280.09,-130.42 289.36,-135.56 290.54,-128.66"/>
</g>
<!-- Node25&#45;&gt;Node7 -->
<g id="edge39" class="edge">
<title>Node25&#45;&gt;Node7</title>
<path fill="none" stroke="midnightblue" d="M882.14,-224.4C863.11,-217.81 841.36,-206.59 829.99,-188 825.35,-180.42 825.97,-175.93 829.99,-168 842.19,-143.89 866.78,-156.11 878.99,-132 883,-124.07 883.83,-119.45 878.99,-112 845.59,-60.62 812.06,-72.32 752.99,-56 639.53,-24.64 500.49,-15.13 429.51,-12.25"/>
<polygon fill="midnightblue" stroke="midnightblue" points="429.26,-8.73 419.13,-11.85 428.99,-15.73 429.26,-8.73"/>
</g>
<!-- Node25&#45;&gt;Node8 -->
<g id="edge43" class="edge">
<title>Node25&#45;&gt;Node8</title>
<path fill="none" stroke="midnightblue" d="M927.77,-224.26C937.63,-215.36 953.18,-201.04 965.99,-188 1021.96,-131 1084.41,-59.42 1111.81,-27.58"/>
<polygon fill="midnightblue" stroke="midnightblue" points="1114.71,-29.57 1118.57,-19.7 1109.4,-25.01 1114.71,-29.57"/>
</g>
<!-- Node25&#45;&gt;Node9 -->
<g id="edge44" class="edge">
<title>Node25&#45;&gt;Node9</title>
<path fill="none" stroke="midnightblue" d="M866.89,-224.47C827.99,-216.82 779.13,-204.28 766.99,-188 751.36,-167.04 780.99,-147.76 807.06,-135.74"/>
<polygon fill="midnightblue" stroke="midnightblue" points="808.65,-138.86 816.41,-131.64 805.85,-132.45 808.65,-138.86"/>
</g>
<!-- Node25&#45;&gt;Node12 -->
<g id="edge45" class="edge">
<title>Node25&#45;&gt;Node12</title>
<path fill="none" stroke="midnightblue" d="M938.39,-224.37C984.14,-205.01 1095.11,-158.06 1148.42,-135.51"/>
<polygon fill="midnightblue" stroke="midnightblue" points="1149.83,-138.71 1157.68,-131.59 1147.11,-132.26 1149.83,-138.71"/>
</g>
<!-- Node28 -->
<g id="node28" class="node">
<title>Node28</title>
<g id="a_node28"><a xlink:href="../../d4/d79/public_8h.html" target="_top" xlink:title="Master header for the ajabase library.">
<polygon fill="white" stroke="black" points="1454.99,-168.5 1454.99,-187.5 1596.99,-187.5 1596.99,-168.5 1454.99,-168.5"/>
<text text-anchor="middle" x="1525.99" y="-175.5" font-family="Helvetica,sans-Serif" font-size="10.00">ajabase/common/public.h</text>
</a>
</g>
</g>
<!-- Node27&#45;&gt;Node28 -->
<g id="edge51" class="edge">
<title>Node27&#45;&gt;Node28</title>
<path fill="none" stroke="midnightblue" d="M1661.8,-280.24C1661.04,-266.53 1657.64,-239.92 1642.99,-224 1627.91,-207.62 1606.2,-197.14 1585.57,-190.47"/>
<polygon fill="midnightblue" stroke="midnightblue" points="1586.46,-187.08 1575.87,-187.58 1584.45,-193.79 1586.46,-187.08"/>
</g>
<!-- Node32 -->
<g id="node32" class="node">
<title>Node32</title>
<g id="a_node32"><a xlink:title=" ">
<polygon fill="white" stroke="#bfbfbf" points="1577.99,-224.5 1577.99,-243.5 1633.99,-243.5 1633.99,-224.5 1577.99,-224.5"/>
<text text-anchor="middle" x="1605.99" y="-231.5" font-family="Helvetica,sans-Serif" font-size="10.00">assert.h</text>
</a>
</g>
</g>
<!-- Node27&#45;&gt;Node32 -->
<g id="edge58" class="edge">
<title>Node27&#45;&gt;Node32</title>
<path fill="none" stroke="midnightblue" d="M1652.99,-280.32C1644.79,-272.42 1632.48,-260.55 1622.52,-250.94"/>
<polygon fill="midnightblue" stroke="midnightblue" points="1624.78,-248.26 1615.15,-243.83 1619.92,-253.29 1624.78,-248.26"/>
</g>
<!-- Node28&#45;&gt;Node8 -->
<g id="edge53" class="edge">
<title>Node28&#45;&gt;Node8</title>
<path fill="none" stroke="midnightblue" d="M1597.17,-173.89C1662.01,-169.39 1750.93,-158.44 1772.99,-132 1778.68,-125.17 1778.77,-118.75 1772.99,-112 1692.25,-17.68 1278.25,-10.78 1158.48,-10.79"/>
<polygon fill="midnightblue" stroke="midnightblue" points="1158.14,-7.29 1148.15,-10.81 1158.15,-14.29 1158.14,-7.29"/>
</g>
<!-- Node28&#45;&gt;Node11 -->
<g id="edge56" class="edge">
<title>Node28&#45;&gt;Node11</title>
<path fill="none" stroke="midnightblue" d="M1496.04,-168.44C1460.32,-158.24 1401.04,-141.3 1365.83,-131.24"/>
<polygon fill="midnightblue" stroke="midnightblue" points="1366.72,-127.86 1356.15,-128.47 1364.8,-134.59 1366.72,-127.86"/>
</g>
<!-- Node28&#45;&gt;Node12 -->
<g id="edge55" class="edge">
<title>Node28&#45;&gt;Node12</title>
<path fill="none" stroke="midnightblue" d="M1454.87,-169.4C1393.05,-162.21 1300.97,-150.1 1211.72,-131.92"/>
<polygon fill="midnightblue" stroke="midnightblue" points="1212.2,-128.44 1201.7,-129.84 1210.78,-135.3 1212.2,-128.44"/>
</g>
<!-- Node29 -->
<g id="node29" class="node">
<title>Node29</title>
<g id="a_node29"><a xlink:href="../../db/db5/export_8h.html" target="_top" xlink:title="Declares system&#45;dependent import/export macros and libraries.">
<polygon fill="white" stroke="black" points="1619.99,-112.5 1619.99,-131.5 1763.99,-131.5 1763.99,-112.5 1619.99,-112.5"/>
<text text-anchor="middle" x="1691.99" y="-119.5" font-family="Helvetica,sans-Serif" font-size="10.00">ajabase/common/export.h</text>
</a>
</g>
</g>
<!-- Node28&#45;&gt;Node29 -->
<g id="edge52" class="edge">
<title>Node28&#45;&gt;Node29</title>
<path fill="none" stroke="midnightblue" d="M1552.29,-168.44C1580.34,-159.32 1624.93,-144.81 1656.17,-134.65"/>
<polygon fill="midnightblue" stroke="midnightblue" points="1657.38,-137.94 1665.81,-131.52 1655.22,-131.28 1657.38,-137.94"/>
</g>
<!-- Node30 -->
<g id="node30" class="node">
<title>Node30</title>
<g id="a_node30"><a xlink:title=" ">
<polygon fill="white" stroke="#bfbfbf" points="1411.99,-112.5 1411.99,-131.5 1443.99,-131.5 1443.99,-112.5 1411.99,-112.5"/>
<text text-anchor="middle" x="1427.99" y="-119.5" font-family="Helvetica,sans-Serif" font-size="10.00">list</text>
</a>
</g>
</g>
<!-- Node28&#45;&gt;Node30 -->
<g id="edge54" class="edge">
<title>Node28&#45;&gt;Node30</title>
<path fill="none" stroke="midnightblue" d="M1510.24,-168.32C1494.67,-159.74 1470.61,-146.49 1452.53,-136.52"/>
<polygon fill="midnightblue" stroke="midnightblue" points="1454.14,-133.42 1443.69,-131.65 1450.76,-139.55 1454.14,-133.42"/>
</g>
<!-- Node31 -->
<g id="node31" class="node">
<title>Node31</title>
<g id="a_node31"><a xlink:href="../../d9/d49/types_8h.html" target="_top" xlink:title="Declares common types used in the ajabase library.">
<polygon fill="white" stroke="black" points="1461.99,-112.5 1461.99,-131.5 1601.99,-131.5 1601.99,-112.5 1461.99,-112.5"/>
<text text-anchor="middle" x="1531.99" y="-119.5" font-family="Helvetica,sans-Serif" font-size="10.00">ajabase/common/types.h</text>
</a>
</g>
</g>
<!-- Node28&#45;&gt;Node31 -->
<g id="edge57" class="edge">
<title>Node28&#45;&gt;Node31</title>
<path fill="none" stroke="midnightblue" d="M1526.98,-168.08C1527.77,-160.93 1528.92,-150.64 1529.91,-141.69"/>
<polygon fill="midnightblue" stroke="midnightblue" points="1533.39,-142.08 1531.02,-131.75 1526.43,-141.3 1533.39,-142.08"/>
</g>
<!-- Node34 -->
<g id="node34" class="node">
<title>Node34</title>
<g id="a_node34"><a xlink:href="../../dd/d02/atomic_8h.html" target="_top" xlink:title="Declares the AJAAtomic class.">
<polygon fill="white" stroke="black" points="1451.49,-224.5 1451.49,-243.5 1558.49,-243.5 1558.49,-224.5 1451.49,-224.5"/>
<text text-anchor="middle" x="1504.99" y="-231.5" font-family="Helvetica,sans-Serif" font-size="10.00">../system/atomic.h</text>
</a>
</g>
</g>
<!-- Node33&#45;&gt;Node34 -->
<g id="edge60" class="edge">
<title>Node33&#45;&gt;Node34</title>
<path fill="none" stroke="midnightblue" d="M1504.15,-280.08C1504.28,-273.01 1504.47,-262.86 1504.64,-253.99"/>
<polygon fill="midnightblue" stroke="midnightblue" points="1508.14,-253.81 1504.83,-243.75 1501.14,-253.68 1508.14,-253.81"/>
</g>
<!-- Node34&#45;&gt;Node28 -->
<g id="edge61" class="edge">
<title>Node34&#45;&gt;Node28</title>
<path fill="none" stroke="midnightblue" d="M1508.46,-224.08C1511.3,-216.77 1515.42,-206.18 1518.95,-197.1"/>
<polygon fill="midnightblue" stroke="midnightblue" points="1522.22,-198.34 1522.58,-187.75 1515.7,-195.8 1522.22,-198.34"/>
</g>
<!-- Node35&#45;&gt;Node3 -->
<g id="edge69" class="edge">
<title>Node35&#45;&gt;Node3</title>
<path fill="none" stroke="midnightblue" d="M176.44,-224.19C177.89,-197.62 182.81,-119.68 190.99,-112 197.42,-105.96 731.9,-77.64 891.49,-69.31"/>
<polygon fill="midnightblue" stroke="midnightblue" points="892.08,-72.78 901.88,-68.77 891.71,-65.79 892.08,-72.78"/>
</g>
<!-- Node35&#45;&gt;Node5 -->
<g id="edge70" class="edge">
<title>Node35&#45;&gt;Node5</title>
<path fill="none" stroke="midnightblue" d="M183.07,-224.37C190.13,-215.56 201.03,-201.3 208.99,-188 218.1,-172.76 226.64,-154.42 232.44,-141.12"/>
<polygon fill="midnightblue" stroke="midnightblue" points="235.77,-142.25 236.47,-131.68 229.33,-139.5 235.77,-142.25"/>
</g>
<!-- Node35&#45;&gt;Node7 -->
<g id="edge68" class="edge">
<title>Node35&#45;&gt;Node7</title>
<path fill="none" stroke="midnightblue" d="M115.96,-230.32C85.61,-225.54 51.23,-214.17 31.99,-188 -3.59,-139.61 -33.47,-145.9 102.99,-56 140.58,-31.23 267.33,-18.89 336.69,-13.86"/>
<polygon fill="midnightblue" stroke="midnightblue" points="337.17,-17.33 346.9,-13.14 336.68,-10.35 337.17,-17.33"/>
</g>
<!-- Node36 -->
<g id="node36" class="node">
<title>Node36</title>
<g id="a_node36"><a xlink:href="../../d9/dfb/ntv2devicefeatures_8hh.html" target="_top" xlink:title="Declares NTV2DeviceCanDo... and NTV2DeviceGetNum... functions. This module is included at compile tim...">
<polygon fill="white" stroke="black" points="40.99,-168.5 40.99,-187.5 166.99,-187.5 166.99,-168.5 40.99,-168.5"/>
<text text-anchor="middle" x="103.99" y="-175.5" font-family="Helvetica,sans-Serif" font-size="10.00">ntv2devicefeatures.hh</text>
</a>
</g>
</g>
<!-- Node35&#45;&gt;Node36 -->
<g id="edge71" class="edge">
<title>Node35&#45;&gt;Node36</title>
<path fill="none" stroke="midnightblue" d="M164.42,-224.32C153.57,-216.18 137.11,-203.84 124.1,-194.09"/>
<polygon fill="midnightblue" stroke="midnightblue" points="125.87,-191.03 115.77,-187.83 121.67,-196.63 125.87,-191.03"/>
</g>
<!-- Node36&#45;&gt;Node5 -->
<g id="edge73" class="edge">
<title>Node36&#45;&gt;Node5</title>
<path fill="none" stroke="midnightblue" d="M125.54,-168.44C148.02,-159.52 183.48,-145.44 208.97,-135.32"/>
<polygon fill="midnightblue" stroke="midnightblue" points="210.54,-138.46 218.54,-131.52 207.95,-131.95 210.54,-138.46"/>
</g>
<!-- Node36&#45;&gt;Node7 -->
<g id="edge72" class="edge">
<title>Node36&#45;&gt;Node7</title>
<path fill="none" stroke="midnightblue" d="M102.05,-168.23C97.72,-146.06 89.86,-87.29 119.99,-56 149.15,-25.71 269.21,-15.75 336.58,-12.52"/>
<polygon fill="midnightblue" stroke="midnightblue" points="337.09,-16 346.92,-12.06 336.77,-9.01 337.09,-16"/>
</g>
</g>
</svg>
