<?xml version="1.0" encoding="UTF-8" standalone="no"?>
<!DOCTYPE svg PUBLIC "-//W3C//DTD SVG 1.1//EN"
 "http://www.w3.org/Graphics/SVG/1.1/DTD/svg11.dtd">
<!-- Generated by graphviz version 2.43.0 (0)
 -->
<!-- Title: /home/tcbuilder/buildAgent/work/df8e8cce5bebfd58/libajantv2/demos/ntv2demohevccommon.h Pages: 1 -->
<svg width="2048pt" height="206pt"
 viewBox="0.00 0.00 2048.00 206.00" xmlns="http://www.w3.org/2000/svg" xmlns:xlink="http://www.w3.org/1999/xlink">
<g id="graph0" class="graph" transform="scale(1 1) rotate(0) translate(4 202)">
<title>/home/tcbuilder/buildAgent/work/df8e8cce5bebfd58/libajantv2/demos/ntv2demohevccommon.h</title>
<polygon fill="white" stroke="transparent" points="-4,4 -4,-202 2044,-202 2044,4 -4,4"/>
<!-- Node1 -->
<g id="node1" class="node">
<title>Node1</title>
<g id="a_node1"><a xlink:title="This file contains some structures, constants, classes and functions that are used in some of the hev...">
<polygon fill="#bfbfbf" stroke="black" points="856,-156.5 856,-197.5 1044,-197.5 1044,-156.5 856,-156.5"/>
<text text-anchor="start" x="864" y="-185.5" font-family="Helvetica,sans-Serif" font-size="10.00">/home/tcbuilder/buildAgent</text>
<text text-anchor="start" x="864" y="-174.5" font-family="Helvetica,sans-Serif" font-size="10.00">/work/df8e8cce5bebfd58/libajantv2</text>
<text text-anchor="middle" x="950" y="-163.5" font-family="Helvetica,sans-Serif" font-size="10.00">/demos/ntv2demohevccommon.h</text>
</a>
</g>
</g>
<!-- Node2 -->
<g id="node2" class="node">
<title>Node2</title>
<g id="a_node2"><a xlink:href="../../d4/d59/ntv2demohevccommon_8cpp.html" target="_top" xlink:title="Common implementation code used by many of the demo applications.">
<polygon fill="white" stroke="black" points="110.5,-78.5 110.5,-119.5 301.5,-119.5 301.5,-78.5 110.5,-78.5"/>
<text text-anchor="start" x="118.5" y="-107.5" font-family="Helvetica,sans-Serif" font-size="10.00">/home/tcbuilder/buildAgent</text>
<text text-anchor="start" x="118.5" y="-96.5" font-family="Helvetica,sans-Serif" font-size="10.00">/work/df8e8cce5bebfd58/libajantv2</text>
<text text-anchor="middle" x="206" y="-85.5" font-family="Helvetica,sans-Serif" font-size="10.00">/demos/ntv2demohevccommon.cpp</text>
</a>
</g>
</g>
<!-- Node1&#45;&gt;Node2 -->
<g id="edge1" class="edge">
<title>Node1&#45;&gt;Node2</title>
<path fill="none" stroke="midnightblue" d="M845.64,-170.1C718.83,-162.17 498.54,-146.01 311,-120 307.88,-119.57 304.7,-119.1 301.5,-118.61"/>
<polygon fill="midnightblue" stroke="midnightblue" points="845.54,-173.6 855.74,-170.72 845.97,-166.61 845.54,-173.6"/>
</g>
<!-- Node3 -->
<g id="node3" class="node">
<title>Node3</title>
<g id="a_node3"><a xlink:href="../../dc/db3/ntv2encodehevc_8h.html" target="_top" xlink:title="Declares the NTV2EncodeHEVC class.">
<polygon fill="white" stroke="black" points="320,-78.5 320,-119.5 548,-119.5 548,-78.5 320,-78.5"/>
<text text-anchor="start" x="328" y="-107.5" font-family="Helvetica,sans-Serif" font-size="10.00">/home/tcbuilder/buildAgent</text>
<text text-anchor="start" x="328" y="-96.5" font-family="Helvetica,sans-Serif" font-size="10.00">/work/df8e8cce5bebfd58/libajantv2</text>
<text text-anchor="middle" x="434" y="-85.5" font-family="Helvetica,sans-Serif" font-size="10.00">/demos/ntv2encodehevc/ntv2encodehevc.h</text>
</a>
</g>
</g>
<!-- Node1&#45;&gt;Node3 -->
<g id="edge2" class="edge">
<title>Node1&#45;&gt;Node3</title>
<path fill="none" stroke="midnightblue" d="M845.88,-160.66C759.58,-147.95 637.08,-129.91 548.12,-116.81"/>
<polygon fill="midnightblue" stroke="midnightblue" points="845.55,-164.15 855.96,-162.15 846.57,-157.23 845.55,-164.15"/>
</g>
<!-- Node6 -->
<g id="node6" class="node">
<title>Node6</title>
<g id="a_node6"><a xlink:href="../../d7/d9c/ntv2encodehevcfile_8h.html" target="_top" xlink:title="Declares the NTV2EncodeHEVCFile class.">
<polygon fill="white" stroke="black" points="680,-78.5 680,-119.5 938,-119.5 938,-78.5 680,-78.5"/>
<text text-anchor="start" x="688" y="-107.5" font-family="Helvetica,sans-Serif" font-size="10.00">/home/tcbuilder/buildAgent</text>
<text text-anchor="start" x="688" y="-96.5" font-family="Helvetica,sans-Serif" font-size="10.00">/work/df8e8cce5bebfd58/libajantv2</text>
<text text-anchor="middle" x="809" y="-85.5" font-family="Helvetica,sans-Serif" font-size="10.00">/demos/ntv2encodehevcfile/ntv2encodehevcfile.h</text>
</a>
</g>
</g>
<!-- Node1&#45;&gt;Node6 -->
<g id="edge5" class="edge">
<title>Node1&#45;&gt;Node6</title>
<path fill="none" stroke="midnightblue" d="M904.78,-151.63C885.51,-141.24 863.34,-129.29 845.19,-119.51"/>
<polygon fill="midnightblue" stroke="midnightblue" points="903.23,-154.76 913.69,-156.43 906.55,-148.6 903.23,-154.76"/>
</g>
<!-- Node9 -->
<g id="node9" class="node">
<title>Node9</title>
<g id="a_node9"><a xlink:href="../../d0/d57/ntv2encodehevcfileac_8h.html" target="_top" xlink:title="Declares the NTV2EncodeHEVCFileAc class.">
<polygon fill="white" stroke="black" points="956.5,-78.5 956.5,-119.5 1225.5,-119.5 1225.5,-78.5 956.5,-78.5"/>
<text text-anchor="start" x="964.5" y="-107.5" font-family="Helvetica,sans-Serif" font-size="10.00">/home/tcbuilder/buildAgent</text>
<text text-anchor="start" x="964.5" y="-96.5" font-family="Helvetica,sans-Serif" font-size="10.00">/work/df8e8cce5bebfd58/libajantv2</text>
<text text-anchor="middle" x="1091" y="-85.5" font-family="Helvetica,sans-Serif" font-size="10.00">/demos/ntv2encodehevcfile/ntv2encodehevcfileac.h</text>
</a>
</g>
</g>
<!-- Node1&#45;&gt;Node9 -->
<g id="edge8" class="edge">
<title>Node1&#45;&gt;Node9</title>
<path fill="none" stroke="midnightblue" d="M995.22,-151.63C1014.49,-141.24 1036.66,-129.29 1054.81,-119.51"/>
<polygon fill="midnightblue" stroke="midnightblue" points="993.45,-148.6 986.31,-156.43 996.77,-154.76 993.45,-148.6"/>
</g>
<!-- Node11 -->
<g id="node11" class="node">
<title>Node11</title>
<g id="a_node11"><a xlink:href="../../d6/dde/ntv2encodehevcvif_8h.html" target="_top" xlink:title="Declares the NTV2EncodeHEVCVif class.">
<polygon fill="white" stroke="black" points="1243.5,-78.5 1243.5,-119.5 1496.5,-119.5 1496.5,-78.5 1243.5,-78.5"/>
<text text-anchor="start" x="1251.5" y="-107.5" font-family="Helvetica,sans-Serif" font-size="10.00">/home/tcbuilder/buildAgent</text>
<text text-anchor="start" x="1251.5" y="-96.5" font-family="Helvetica,sans-Serif" font-size="10.00">/work/df8e8cce5bebfd58/libajantv2</text>
<text text-anchor="middle" x="1370" y="-85.5" font-family="Helvetica,sans-Serif" font-size="10.00">/demos/ntv2encodehevcvif/ntv2encodehevcvif.h</text>
</a>
</g>
</g>
<!-- Node1&#45;&gt;Node11 -->
<g id="edge10" class="edge">
<title>Node1&#45;&gt;Node11</title>
<path fill="none" stroke="midnightblue" d="M1054.25,-157.14C1117.5,-145.69 1198.06,-131.11 1261.98,-119.55"/>
<polygon fill="midnightblue" stroke="midnightblue" points="1053.47,-153.72 1044.26,-158.94 1054.72,-160.61 1053.47,-153.72"/>
</g>
<!-- Node14 -->
<g id="node14" class="node">
<title>Node14</title>
<g id="a_node14"><a xlink:href="../../d8/d3c/ntv2encodehevcvifac_8h.html" target="_top" xlink:title="Declares the NTV2EncodeHEVCVifAc class.">
<polygon fill="white" stroke="black" points="1644.5,-78.5 1644.5,-119.5 1909.5,-119.5 1909.5,-78.5 1644.5,-78.5"/>
<text text-anchor="start" x="1652.5" y="-107.5" font-family="Helvetica,sans-Serif" font-size="10.00">/home/tcbuilder/buildAgent</text>
<text text-anchor="start" x="1652.5" y="-96.5" font-family="Helvetica,sans-Serif" font-size="10.00">/work/df8e8cce5bebfd58/libajantv2</text>
<text text-anchor="middle" x="1777" y="-85.5" font-family="Helvetica,sans-Serif" font-size="10.00">/demos/ntv2encodehevcvif/ntv2encodehevcvifac.h</text>
</a>
</g>
</g>
<!-- Node1&#45;&gt;Node14 -->
<g id="edge13" class="edge">
<title>Node1&#45;&gt;Node14</title>
<path fill="none" stroke="midnightblue" d="M1054.18,-166.43C1203.92,-152.66 1479.99,-127.29 1644.2,-112.2"/>
<polygon fill="midnightblue" stroke="midnightblue" points="1053.7,-162.96 1044.06,-167.36 1054.34,-169.93 1053.7,-162.96"/>
</g>
<!-- Node4 -->
<g id="node4" class="node">
<title>Node4</title>
<g id="a_node4"><a xlink:href="../../d6/def/ntv2encodehevc_2main_8cpp.html" target="_top" xlink:title="Demonstration application to capture frames from SDI input.">
<polygon fill="white" stroke="black" points="0,-0.5 0,-41.5 188,-41.5 188,-0.5 0,-0.5"/>
<text text-anchor="start" x="8" y="-29.5" font-family="Helvetica,sans-Serif" font-size="10.00">/home/tcbuilder/buildAgent</text>
<text text-anchor="start" x="8" y="-18.5" font-family="Helvetica,sans-Serif" font-size="10.00">/work/df8e8cce5bebfd58/libajantv2</text>
<text text-anchor="middle" x="94" y="-7.5" font-family="Helvetica,sans-Serif" font-size="10.00">/demos/ntv2encodehevc/main.cpp</text>
</a>
</g>
</g>
<!-- Node3&#45;&gt;Node4 -->
<g id="edge3" class="edge">
<title>Node3&#45;&gt;Node4</title>
<path fill="none" stroke="midnightblue" d="M336.47,-76.2C287.52,-65.26 228.71,-52.11 181.26,-41.51"/>
<polygon fill="midnightblue" stroke="midnightblue" points="335.92,-79.66 346.44,-78.43 337.45,-72.83 335.92,-79.66"/>
</g>
<!-- Node5 -->
<g id="node5" class="node">
<title>Node5</title>
<g id="a_node5"><a xlink:href="../../da/d2f/ntv2encodehevc_8cpp.html" target="_top" xlink:title="Implementation of NTV2EncodeHEVC class.">
<polygon fill="white" stroke="black" points="206.5,-0.5 206.5,-41.5 445.5,-41.5 445.5,-0.5 206.5,-0.5"/>
<text text-anchor="start" x="214.5" y="-29.5" font-family="Helvetica,sans-Serif" font-size="10.00">/home/tcbuilder/buildAgent</text>
<text text-anchor="start" x="214.5" y="-18.5" font-family="Helvetica,sans-Serif" font-size="10.00">/work/df8e8cce5bebfd58/libajantv2</text>
<text text-anchor="middle" x="326" y="-7.5" font-family="Helvetica,sans-Serif" font-size="10.00">/demos/ntv2encodehevc/ntv2encodehevc.cpp</text>
</a>
</g>
</g>
<!-- Node3&#45;&gt;Node5 -->
<g id="edge4" class="edge">
<title>Node3&#45;&gt;Node5</title>
<path fill="none" stroke="midnightblue" d="M397.96,-72.64C383.53,-62.49 367.18,-50.98 353.72,-41.51"/>
<polygon fill="midnightblue" stroke="midnightblue" points="395.99,-75.54 406.19,-78.43 400.02,-69.81 395.99,-75.54"/>
</g>
<!-- Node7 -->
<g id="node7" class="node">
<title>Node7</title>
<g id="a_node7"><a xlink:href="../../d6/d30/ntv2encodehevcfile_2main_8cpp.html" target="_top" xlink:title="Demonstration application to capture frames from SDI input.">
<polygon fill="white" stroke="black" points="463.5,-0.5 463.5,-41.5 662.5,-41.5 662.5,-0.5 463.5,-0.5"/>
<text text-anchor="start" x="471.5" y="-29.5" font-family="Helvetica,sans-Serif" font-size="10.00">/home/tcbuilder/buildAgent</text>
<text text-anchor="start" x="471.5" y="-18.5" font-family="Helvetica,sans-Serif" font-size="10.00">/work/df8e8cce5bebfd58/libajantv2</text>
<text text-anchor="middle" x="563" y="-7.5" font-family="Helvetica,sans-Serif" font-size="10.00">/demos/ntv2encodehevcfile/main.cpp</text>
</a>
</g>
</g>
<!-- Node6&#45;&gt;Node7 -->
<g id="edge6" class="edge">
<title>Node6&#45;&gt;Node7</title>
<path fill="none" stroke="midnightblue" d="M735.98,-75.44C701.07,-64.66 659.68,-51.87 626.14,-41.51"/>
<polygon fill="midnightblue" stroke="midnightblue" points="735.06,-78.82 745.65,-78.43 737.13,-72.13 735.06,-78.82"/>
</g>
<!-- Node8 -->
<g id="node8" class="node">
<title>Node8</title>
<g id="a_node8"><a xlink:href="../../dd/d97/ntv2encodehevcfile_8cpp.html" target="_top" xlink:title="Implementation of NTV2EncodeHEVCFile class.">
<polygon fill="white" stroke="black" points="680.5,-0.5 680.5,-41.5 949.5,-41.5 949.5,-0.5 680.5,-0.5"/>
<text text-anchor="start" x="688.5" y="-29.5" font-family="Helvetica,sans-Serif" font-size="10.00">/home/tcbuilder/buildAgent</text>
<text text-anchor="start" x="688.5" y="-18.5" font-family="Helvetica,sans-Serif" font-size="10.00">/work/df8e8cce5bebfd58/libajantv2</text>
<text text-anchor="middle" x="815" y="-7.5" font-family="Helvetica,sans-Serif" font-size="10.00">/demos/ntv2encodehevcfile/ntv2encodehevcfile.cpp</text>
</a>
</g>
</g>
<!-- Node6&#45;&gt;Node8 -->
<g id="edge7" class="edge">
<title>Node6&#45;&gt;Node8</title>
<path fill="none" stroke="midnightblue" d="M811.35,-68.3C812.06,-59.3 812.82,-49.65 813.46,-41.51"/>
<polygon fill="midnightblue" stroke="midnightblue" points="807.84,-68.18 810.55,-78.43 814.82,-68.73 807.84,-68.18"/>
</g>
<!-- Node10 -->
<g id="node10" class="node">
<title>Node10</title>
<g id="a_node10"><a xlink:href="../../da/d67/ntv2encodehevcfileac_8cpp.html" target="_top" xlink:title="Implementation of NTV2EncodeHEVCFileAc class.">
<polygon fill="white" stroke="black" points="967.5,-0.5 967.5,-41.5 1248.5,-41.5 1248.5,-0.5 967.5,-0.5"/>
<text text-anchor="start" x="975.5" y="-29.5" font-family="Helvetica,sans-Serif" font-size="10.00">/home/tcbuilder/buildAgent</text>
<text text-anchor="start" x="975.5" y="-18.5" font-family="Helvetica,sans-Serif" font-size="10.00">/work/df8e8cce5bebfd58/libajantv2</text>
<text text-anchor="middle" x="1108" y="-7.5" font-family="Helvetica,sans-Serif" font-size="10.00">/demos/ntv2encodehevcfile/ntv2encodehevcfileac.cpp</text>
</a>
</g>
</g>
<!-- Node9&#45;&gt;Node10 -->
<g id="edge9" class="edge">
<title>Node9&#45;&gt;Node10</title>
<path fill="none" stroke="midnightblue" d="M1097.58,-68.59C1099.61,-59.51 1101.79,-49.74 1103.64,-41.51"/>
<polygon fill="midnightblue" stroke="midnightblue" points="1094.15,-67.91 1095.38,-78.43 1100.98,-69.43 1094.15,-67.91"/>
</g>
<!-- Node12 -->
<g id="node12" class="node">
<title>Node12</title>
<g id="a_node12"><a xlink:href="../../d4/dcd/ntv2encodehevcvif_2main_8cpp.html" target="_top" xlink:title="Demonstration application to capture frames from SDI input.">
<polygon fill="white" stroke="black" points="1266.5,-0.5 1266.5,-41.5 1463.5,-41.5 1463.5,-0.5 1266.5,-0.5"/>
<text text-anchor="start" x="1274.5" y="-29.5" font-family="Helvetica,sans-Serif" font-size="10.00">/home/tcbuilder/buildAgent</text>
<text text-anchor="start" x="1274.5" y="-18.5" font-family="Helvetica,sans-Serif" font-size="10.00">/work/df8e8cce5bebfd58/libajantv2</text>
<text text-anchor="middle" x="1365" y="-7.5" font-family="Helvetica,sans-Serif" font-size="10.00">/demos/ntv2encodehevcvif/main.cpp</text>
</a>
</g>
</g>
<!-- Node11&#45;&gt;Node12 -->
<g id="edge11" class="edge">
<title>Node11&#45;&gt;Node12</title>
<path fill="none" stroke="midnightblue" d="M1368.05,-68.3C1367.45,-59.3 1366.82,-49.65 1366.28,-41.51"/>
<polygon fill="midnightblue" stroke="midnightblue" points="1364.56,-68.68 1368.71,-78.43 1371.55,-68.22 1364.56,-68.68"/>
</g>
<!-- Node13 -->
<g id="node13" class="node">
<title>Node13</title>
<g id="a_node13"><a xlink:href="../../df/d0e/ntv2encodehevcvif_8cpp.html" target="_top" xlink:title="Implementation of NTV2EncodeHEVCVif class.">
<polygon fill="white" stroke="black" points="1482,-0.5 1482,-41.5 1746,-41.5 1746,-0.5 1482,-0.5"/>
<text text-anchor="start" x="1490" y="-29.5" font-family="Helvetica,sans-Serif" font-size="10.00">/home/tcbuilder/buildAgent</text>
<text text-anchor="start" x="1490" y="-18.5" font-family="Helvetica,sans-Serif" font-size="10.00">/work/df8e8cce5bebfd58/libajantv2</text>
<text text-anchor="middle" x="1614" y="-7.5" font-family="Helvetica,sans-Serif" font-size="10.00">/demos/ntv2encodehevcvif/ntv2encodehevcvif.cpp</text>
</a>
</g>
</g>
<!-- Node11&#45;&gt;Node13 -->
<g id="edge12" class="edge">
<title>Node11&#45;&gt;Node13</title>
<path fill="none" stroke="midnightblue" d="M1442.42,-75.44C1477.05,-64.66 1518.11,-51.87 1551.38,-41.51"/>
<polygon fill="midnightblue" stroke="midnightblue" points="1441.34,-72.11 1432.84,-78.43 1443.42,-78.8 1441.34,-72.11"/>
</g>
<!-- Node15 -->
<g id="node15" class="node">
<title>Node15</title>
<g id="a_node15"><a xlink:href="../../d4/d1e/ntv2encodehevcvifac_8cpp.html" target="_top" xlink:title="Implementation of NTV2EncodeHEVCVifAc class.">
<polygon fill="white" stroke="black" points="1764,-0.5 1764,-41.5 2040,-41.5 2040,-0.5 1764,-0.5"/>
<text text-anchor="start" x="1772" y="-29.5" font-family="Helvetica,sans-Serif" font-size="10.00">/home/tcbuilder/buildAgent</text>
<text text-anchor="start" x="1772" y="-18.5" font-family="Helvetica,sans-Serif" font-size="10.00">/work/df8e8cce5bebfd58/libajantv2</text>
<text text-anchor="middle" x="1902" y="-7.5" font-family="Helvetica,sans-Serif" font-size="10.00">/demos/ntv2encodehevcvif/ntv2encodehevcvifac.cpp</text>
</a>
</g>
</g>
<!-- Node14&#45;&gt;Node15 -->
<g id="edge14" class="edge">
<title>Node14&#45;&gt;Node15</title>
<path fill="none" stroke="midnightblue" d="M1817.78,-73.2C1834.7,-62.92 1854.04,-51.16 1869.92,-41.51"/>
<polygon fill="midnightblue" stroke="midnightblue" points="1815.92,-70.24 1809.19,-78.43 1819.55,-76.22 1815.92,-70.24"/>
</g>
</g>
</svg>
