<?xml version="1.0" encoding="UTF-8" standalone="no"?>
<!DOCTYPE svg PUBLIC "-//W3C//DTD SVG 1.1//EN"
 "http://www.w3.org/Graphics/SVG/1.1/DTD/svg11.dtd">
<!-- Generated by graphviz version 2.43.0 (0)
 -->
<!-- Title: /home/tcbuilder/buildAgent/work/df8e8cce5bebfd58/libajantv2/ajaanc/includes/ancillarydata_timecode_vitc.h Pages: 1 -->
<svg width="1306pt" height="453pt"
 viewBox="0.00 0.00 1305.95 453.00" xmlns="http://www.w3.org/2000/svg" xmlns:xlink="http://www.w3.org/1999/xlink">
<g id="graph0" class="graph" transform="scale(1 1) rotate(0) translate(4 449)">
<title>/home/tcbuilder/buildAgent/work/df8e8cce5bebfd58/libajantv2/ajaanc/includes/ancillarydata_timecode_vitc.h</title>
<polygon fill="white" stroke="transparent" points="-4,4 -4,-449 1301.95,-449 1301.95,4 -4,4"/>
<!-- Node1 -->
<g id="node1" class="node">
<title>Node1</title>
<g id="a_node1"><a xlink:title="Declares the AJAAncillaryData_Timecode_VITC class.">
<polygon fill="#bfbfbf" stroke="black" points="685.45,-392.5 685.45,-444.5 873.45,-444.5 873.45,-392.5 685.45,-392.5"/>
<text text-anchor="start" x="693.45" y="-432.5" font-family="Helvetica,sans-Serif" font-size="10.00">/home/tcbuilder/buildAgent</text>
<text text-anchor="start" x="693.45" y="-421.5" font-family="Helvetica,sans-Serif" font-size="10.00">/work/df8e8cce5bebfd58/libajantv2</text>
<text text-anchor="start" x="693.45" y="-410.5" font-family="Helvetica,sans-Serif" font-size="10.00">/ajaanc/includes/ancillarydata</text>
<text text-anchor="middle" x="779.45" y="-399.5" font-family="Helvetica,sans-Serif" font-size="10.00">_timecode_vitc.h</text>
</a>
</g>
</g>
<!-- Node2 -->
<g id="node2" class="node">
<title>Node2</title>
<g id="a_node2"><a xlink:href="../../df/d78/ancillarydatafactory_8h.html" target="_top" xlink:title="Declaration of the AJAAncillaryDataFactory class.">
<polygon fill="white" stroke="black" points="723.45,-280.5 723.45,-299.5 845.45,-299.5 845.45,-280.5 723.45,-280.5"/>
<text text-anchor="middle" x="784.45" y="-287.5" font-family="Helvetica,sans-Serif" font-size="10.00">ancillarydatafactory.h</text>
</a>
</g>
</g>
<!-- Node1&#45;&gt;Node2 -->
<g id="edge1" class="edge">
<title>Node1&#45;&gt;Node2</title>
<path fill="none" stroke="midnightblue" d="M780.45,-392.2C781.41,-367.88 782.85,-331.67 783.71,-309.8"/>
<polygon fill="midnightblue" stroke="midnightblue" points="787.22,-309.68 784.11,-299.55 780.22,-309.4 787.22,-309.68"/>
</g>
<!-- Node3 -->
<g id="node3" class="node">
<title>Node3</title>
<g id="a_node3"><a xlink:href="../../d7/d92/ancillarydata_8h.html" target="_top" xlink:title="Declares the AJAAncillaryData class.">
<polygon fill="white" stroke="black" points="739.95,-224.5 739.95,-243.5 828.95,-243.5 828.95,-224.5 739.95,-224.5"/>
<text text-anchor="middle" x="784.45" y="-231.5" font-family="Helvetica,sans-Serif" font-size="10.00">ancillarydata.h</text>
</a>
</g>
</g>
<!-- Node1&#45;&gt;Node3 -->
<g id="edge27" class="edge">
<title>Node1&#45;&gt;Node3</title>
<path fill="none" stroke="midnightblue" d="M752.98,-392.48C726.81,-364.59 693.51,-318.36 714.45,-280 722.27,-265.68 736.82,-255.24 750.63,-248.04"/>
<polygon fill="midnightblue" stroke="midnightblue" points="752.47,-251.03 759.98,-243.56 749.45,-244.72 752.47,-251.03"/>
</g>
<!-- Node21 -->
<g id="node21" class="node">
<title>Node21</title>
<g id="a_node21"><a xlink:href="../../d4/d23/ancillarydata__timecode_8h.html" target="_top" xlink:title="Declares the AJAAncillaryData_Timecode class.">
<polygon fill="white" stroke="black" points="807.45,-336.5 807.45,-355.5 947.45,-355.5 947.45,-336.5 807.45,-336.5"/>
<text text-anchor="middle" x="877.45" y="-343.5" font-family="Helvetica,sans-Serif" font-size="10.00">ancillarydata_timecode.h</text>
</a>
</g>
</g>
<!-- Node1&#45;&gt;Node21 -->
<g id="edge28" class="edge">
<title>Node1&#45;&gt;Node21</title>
<path fill="none" stroke="midnightblue" d="M814.28,-392.45C828.62,-382.13 844.74,-370.53 857.1,-361.64"/>
<polygon fill="midnightblue" stroke="midnightblue" points="859.29,-364.38 865.37,-355.7 855.2,-358.69 859.29,-364.38"/>
</g>
<!-- Node2&#45;&gt;Node3 -->
<g id="edge2" class="edge">
<title>Node2&#45;&gt;Node3</title>
<path fill="none" stroke="midnightblue" d="M784.45,-280.08C784.45,-273.01 784.45,-262.86 784.45,-253.99"/>
<polygon fill="midnightblue" stroke="midnightblue" points="787.95,-253.75 784.45,-243.75 780.95,-253.75 787.95,-253.75"/>
</g>
<!-- Node4 -->
<g id="node4" class="node">
<title>Node4</title>
<g id="a_node4"><a xlink:href="../../db/de2/ajatypes_8h.html" target="_top" xlink:title="Declares the most fundamental data types used by NTV2. Since Windows NT was the first principal devel...">
<polygon fill="white" stroke="black" points="173.45,-56.5 173.45,-75.5 241.45,-75.5 241.45,-56.5 173.45,-56.5"/>
<text text-anchor="middle" x="207.45" y="-63.5" font-family="Helvetica,sans-Serif" font-size="10.00">ajatypes.h</text>
</a>
</g>
</g>
<!-- Node3&#45;&gt;Node4 -->
<g id="edge3" class="edge">
<title>Node3&#45;&gt;Node4</title>
<path fill="none" stroke="midnightblue" d="M739.89,-230.58C582.25,-221.55 57.89,-187.54 9.45,-132 -35.2,-80.8 92.17,-69.74 163.23,-67.48"/>
<polygon fill="midnightblue" stroke="midnightblue" points="163.38,-70.98 173.28,-67.21 163.19,-63.98 163.38,-70.98"/>
</g>
<!-- Node6 -->
<g id="node6" class="node">
<title>Node6</title>
<g id="a_node6"><a xlink:href="../../d6/db1/ntv2version_8h.html" target="_top" xlink:title="Defines for the NTV2 SDK version number, used by ajantv2/includes/ntv2enums.h. See the ajantv2/includ...">
<polygon fill="white" stroke="black" points="517.95,-56.5 517.95,-75.5 600.95,-75.5 600.95,-56.5 517.95,-56.5"/>
<text text-anchor="middle" x="559.45" y="-63.5" font-family="Helvetica,sans-Serif" font-size="10.00">ntv2version.h</text>
</a>
</g>
</g>
<!-- Node3&#45;&gt;Node6 -->
<g id="edge5" class="edge">
<title>Node3&#45;&gt;Node6</title>
<path fill="none" stroke="midnightblue" d="M791.75,-224.28C808.9,-202.7 848.18,-146.13 819.45,-112 793.36,-81 679.15,-71.35 611.09,-68.35"/>
<polygon fill="midnightblue" stroke="midnightblue" points="611.12,-64.85 600.99,-67.94 610.84,-71.85 611.12,-64.85"/>
</g>
<!-- Node9 -->
<g id="node9" class="node">
<title>Node9</title>
<g id="a_node9"><a xlink:href="../../d9/d49/types_8h.html" target="_top" xlink:title="Declares common types used in the ajabase library.">
<polygon fill="white" stroke="black" points="866.45,-112.5 866.45,-131.5 1006.45,-131.5 1006.45,-112.5 866.45,-112.5"/>
<text text-anchor="middle" x="936.45" y="-119.5" font-family="Helvetica,sans-Serif" font-size="10.00">ajabase/common/types.h</text>
</a>
</g>
</g>
<!-- Node3&#45;&gt;Node9 -->
<g id="edge8" class="edge">
<title>Node3&#45;&gt;Node9</title>
<path fill="none" stroke="midnightblue" d="M796.38,-224.37C822.35,-205.57 884.26,-160.77 916.37,-137.53"/>
<polygon fill="midnightblue" stroke="midnightblue" points="918.53,-140.29 924.58,-131.59 914.43,-134.62 918.53,-140.29"/>
</g>
<!-- Node10 -->
<g id="node10" class="node">
<title>Node10</title>
<g id="a_node10"><a xlink:href="../../d4/dd7/ntv2publicinterface_8h.html" target="_top" xlink:title="Declares enums and structs used by all platform drivers and the SDK.">
<polygon fill="white" stroke="black" points="426.45,-168.5 426.45,-187.5 546.45,-187.5 546.45,-168.5 426.45,-168.5"/>
<text text-anchor="middle" x="486.45" y="-175.5" font-family="Helvetica,sans-Serif" font-size="10.00">ntv2publicinterface.h</text>
</a>
</g>
</g>
<!-- Node3&#45;&gt;Node10 -->
<g id="edge9" class="edge">
<title>Node3&#45;&gt;Node10</title>
<path fill="none" stroke="midnightblue" d="M739.84,-224.92C687.61,-215.45 600.99,-199.75 543.8,-189.39"/>
<polygon fill="midnightblue" stroke="midnightblue" points="544.3,-185.93 533.84,-187.59 543.05,-192.81 544.3,-185.93"/>
</g>
<!-- Node15 -->
<g id="node15" class="node">
<title>Node15</title>
<g id="a_node15"><a xlink:title=" ">
<polygon fill="white" stroke="#bfbfbf" points="706.95,-112.5 706.95,-131.5 753.95,-131.5 753.95,-112.5 706.95,-112.5"/>
<text text-anchor="middle" x="730.45" y="-119.5" font-family="Helvetica,sans-Serif" font-size="10.00">vector</text>
</a>
</g>
</g>
<!-- Node3&#45;&gt;Node15 -->
<g id="edge26" class="edge">
<title>Node3&#45;&gt;Node15</title>
<path fill="none" stroke="midnightblue" d="M780.22,-224.37C771.38,-206.38 750.85,-164.55 739.11,-140.63"/>
<polygon fill="midnightblue" stroke="midnightblue" points="742.22,-139.03 734.67,-131.59 735.94,-142.11 742.22,-139.03"/>
</g>
<!-- Node20 -->
<g id="node20" class="node">
<title>Node20</title>
<g id="a_node20"><a xlink:title=" ">
<polygon fill="white" stroke="#bfbfbf" points="896.45,-168.5 896.45,-187.5 952.45,-187.5 952.45,-168.5 896.45,-168.5"/>
<text text-anchor="middle" x="924.45" y="-175.5" font-family="Helvetica,sans-Serif" font-size="10.00">sstream</text>
</a>
</g>
</g>
<!-- Node3&#45;&gt;Node20 -->
<g id="edge25" class="edge">
<title>Node3&#45;&gt;Node20</title>
<path fill="none" stroke="midnightblue" d="M806.64,-224.44C829.88,-215.48 866.6,-201.31 892.87,-191.18"/>
<polygon fill="midnightblue" stroke="midnightblue" points="894.3,-194.38 902.37,-187.52 891.78,-187.85 894.3,-194.38"/>
</g>
<!-- Node5 -->
<g id="node5" class="node">
<title>Node5</title>
<g id="a_node5"><a xlink:title=" ">
<polygon fill="white" stroke="#bfbfbf" points="180.95,-0.5 180.95,-19.5 233.95,-19.5 233.95,-0.5 180.95,-0.5"/>
<text text-anchor="middle" x="207.45" y="-7.5" font-family="Helvetica,sans-Serif" font-size="10.00">stdint.h</text>
</a>
</g>
</g>
<!-- Node4&#45;&gt;Node5 -->
<g id="edge4" class="edge">
<title>Node4&#45;&gt;Node5</title>
<path fill="none" stroke="midnightblue" d="M207.45,-56.08C207.45,-49.01 207.45,-38.86 207.45,-29.99"/>
<polygon fill="midnightblue" stroke="midnightblue" points="210.95,-29.75 207.45,-19.75 203.95,-29.75 210.95,-29.75"/>
</g>
<!-- Node7 -->
<g id="node7" class="node">
<title>Node7</title>
<g id="a_node7"><a xlink:href="../../d6/dd9/ajaexport_8h.html" target="_top" xlink:title="Defines the import/export macros for producing DLLs or LIBs.">
<polygon fill="white" stroke="black" points="474.45,-0.5 474.45,-19.5 546.45,-19.5 546.45,-0.5 474.45,-0.5"/>
<text text-anchor="middle" x="510.45" y="-7.5" font-family="Helvetica,sans-Serif" font-size="10.00">ajaexport.h</text>
</a>
</g>
</g>
<!-- Node6&#45;&gt;Node7 -->
<g id="edge6" class="edge">
<title>Node6&#45;&gt;Node7</title>
<path fill="none" stroke="midnightblue" d="M551.36,-56.08C544.3,-48.3 533.87,-36.8 525.3,-27.37"/>
<polygon fill="midnightblue" stroke="midnightblue" points="527.71,-24.8 518.39,-19.75 522.52,-29.51 527.71,-24.8"/>
</g>
<!-- Node8 -->
<g id="node8" class="node">
<title>Node8</title>
<g id="a_node8"><a xlink:title=" ">
<polygon fill="white" stroke="#bfbfbf" points="656.45,-0.5 656.45,-19.5 700.45,-19.5 700.45,-0.5 656.45,-0.5"/>
<text text-anchor="middle" x="678.45" y="-7.5" font-family="Helvetica,sans-Serif" font-size="10.00">string</text>
</a>
</g>
</g>
<!-- Node6&#45;&gt;Node8 -->
<g id="edge7" class="edge">
<title>Node6&#45;&gt;Node8</title>
<path fill="none" stroke="midnightblue" d="M578.31,-56.44C597.72,-47.64 628.18,-33.81 650.42,-23.72"/>
<polygon fill="midnightblue" stroke="midnightblue" points="652.03,-26.84 659.68,-19.52 649.13,-20.46 652.03,-26.84"/>
</g>
<!-- Node10&#45;&gt;Node4 -->
<g id="edge10" class="edge">
<title>Node10&#45;&gt;Node4</title>
<path fill="none" stroke="midnightblue" d="M426.42,-177.04C346.74,-175.66 212.45,-167.91 181.45,-132 169.35,-117.98 180.87,-97.62 192.17,-83.44"/>
<polygon fill="midnightblue" stroke="midnightblue" points="195.11,-85.38 198.97,-75.52 189.8,-80.82 195.11,-85.38"/>
</g>
<!-- Node10&#45;&gt;Node7 -->
<g id="edge22" class="edge">
<title>Node10&#45;&gt;Node7</title>
<path fill="none" stroke="midnightblue" d="M471.79,-168.4C460.05,-160.58 444.42,-147.86 437.45,-132 433.88,-123.86 434.72,-120.46 437.45,-112 448.53,-77.75 476.05,-45.36 493.95,-26.88"/>
<polygon fill="midnightblue" stroke="midnightblue" points="496.6,-29.18 501.18,-19.62 491.64,-24.23 496.6,-29.18"/>
</g>
<!-- Node10&#45;&gt;Node8 -->
<g id="edge18" class="edge">
<title>Node10&#45;&gt;Node8</title>
<path fill="none" stroke="midnightblue" d="M546.85,-168.44C590.48,-160.98 644.3,-148.73 659.45,-132 684.95,-103.86 684.12,-56.1 681.29,-29.79"/>
<polygon fill="midnightblue" stroke="midnightblue" points="684.73,-29.12 679.98,-19.65 677.79,-30.01 684.73,-29.12"/>
</g>
<!-- Node11 -->
<g id="node11" class="node">
<title>Node11</title>
<g id="a_node11"><a xlink:href="../../d6/d0c/ntv2enums_8h.html" target="_top" xlink:title="Enumerations for controlling NTV2 devices.">
<polygon fill="white" stroke="black" points="446.45,-112.5 446.45,-131.5 526.45,-131.5 526.45,-112.5 446.45,-112.5"/>
<text text-anchor="middle" x="486.45" y="-119.5" font-family="Helvetica,sans-Serif" font-size="10.00">ntv2enums.h</text>
</a>
</g>
</g>
<!-- Node10&#45;&gt;Node11 -->
<g id="edge11" class="edge">
<title>Node10&#45;&gt;Node11</title>
<path fill="none" stroke="midnightblue" d="M486.45,-168.08C486.45,-161.01 486.45,-150.86 486.45,-141.99"/>
<polygon fill="midnightblue" stroke="midnightblue" points="489.95,-141.75 486.45,-131.75 482.95,-141.75 489.95,-141.75"/>
</g>
<!-- Node12 -->
<g id="node12" class="node">
<title>Node12</title>
<g id="a_node12"><a xlink:title=" ">
<polygon fill="white" stroke="#bfbfbf" points="330.45,-112.5 330.45,-131.5 390.45,-131.5 390.45,-112.5 330.45,-112.5"/>
<text text-anchor="middle" x="360.45" y="-119.5" font-family="Helvetica,sans-Serif" font-size="10.00">iostream</text>
</a>
</g>
</g>
<!-- Node10&#45;&gt;Node12 -->
<g id="edge14" class="edge">
<title>Node10&#45;&gt;Node12</title>
<path fill="none" stroke="midnightblue" d="M466.49,-168.44C445.84,-159.6 413.39,-145.69 389.82,-135.59"/>
<polygon fill="midnightblue" stroke="midnightblue" points="390.89,-132.24 380.32,-131.52 388.14,-138.67 390.89,-132.24"/>
</g>
<!-- Node13 -->
<g id="node13" class="node">
<title>Node13</title>
<g id="a_node13"><a xlink:title=" ">
<polygon fill="white" stroke="#bfbfbf" points="544.45,-112.5 544.45,-131.5 576.45,-131.5 576.45,-112.5 544.45,-112.5"/>
<text text-anchor="middle" x="560.45" y="-119.5" font-family="Helvetica,sans-Serif" font-size="10.00">set</text>
</a>
</g>
</g>
<!-- Node10&#45;&gt;Node13 -->
<g id="edge15" class="edge">
<title>Node10&#45;&gt;Node13</title>
<path fill="none" stroke="midnightblue" d="M498.34,-168.32C509.6,-160.11 526.74,-147.6 540.16,-137.81"/>
<polygon fill="midnightblue" stroke="midnightblue" points="542.33,-140.56 548.35,-131.83 538.21,-134.9 542.33,-140.56"/>
</g>
<!-- Node14 -->
<g id="node14" class="node">
<title>Node14</title>
<g id="a_node14"><a xlink:title=" ">
<polygon fill="white" stroke="#bfbfbf" points="772.45,-112.5 772.45,-131.5 810.45,-131.5 810.45,-112.5 772.45,-112.5"/>
<text text-anchor="middle" x="791.45" y="-119.5" font-family="Helvetica,sans-Serif" font-size="10.00">map</text>
</a>
</g>
</g>
<!-- Node10&#45;&gt;Node14 -->
<g id="edge16" class="edge">
<title>Node10&#45;&gt;Node14</title>
<path fill="none" stroke="midnightblue" d="M546.69,-169.64C602.92,-162.19 688.97,-149.3 762.45,-132 762.55,-131.98 762.65,-131.95 762.75,-131.93"/>
<polygon fill="midnightblue" stroke="midnightblue" points="763.47,-135.36 772.21,-129.38 761.65,-128.6 763.47,-135.36"/>
</g>
<!-- Node10&#45;&gt;Node15 -->
<g id="edge17" class="edge">
<title>Node10&#45;&gt;Node15</title>
<path fill="none" stroke="midnightblue" d="M526.37,-168.5C567.91,-159.6 634.81,-145.12 692.45,-132 693.9,-131.67 695.38,-131.33 696.87,-130.99"/>
<polygon fill="midnightblue" stroke="midnightblue" points="697.81,-134.36 706.75,-128.68 696.22,-127.55 697.81,-134.36"/>
</g>
<!-- Node16 -->
<g id="node16" class="node">
<title>Node16</title>
<g id="a_node16"><a xlink:title=" ">
<polygon fill="white" stroke="#bfbfbf" points="594.45,-112.5 594.45,-131.5 650.45,-131.5 650.45,-112.5 594.45,-112.5"/>
<text text-anchor="middle" x="622.45" y="-119.5" font-family="Helvetica,sans-Serif" font-size="10.00">iomanip</text>
</a>
</g>
</g>
<!-- Node10&#45;&gt;Node16 -->
<g id="edge19" class="edge">
<title>Node10&#45;&gt;Node16</title>
<path fill="none" stroke="midnightblue" d="M508,-168.44C530.48,-159.52 565.94,-145.44 591.43,-135.32"/>
<polygon fill="midnightblue" stroke="midnightblue" points="593,-138.46 601,-131.52 590.42,-131.95 593,-138.46"/>
</g>
<!-- Node17 -->
<g id="node17" class="node">
<title>Node17</title>
<g id="a_node17"><a xlink:title=" ">
<polygon fill="white" stroke="#bfbfbf" points="18.45,-112.5 18.45,-131.5 62.45,-131.5 62.45,-112.5 18.45,-112.5"/>
<text text-anchor="middle" x="40.45" y="-119.5" font-family="Helvetica,sans-Serif" font-size="10.00">bitset</text>
</a>
</g>
</g>
<!-- Node10&#45;&gt;Node17 -->
<g id="edge20" class="edge">
<title>Node10&#45;&gt;Node17</title>
<path fill="none" stroke="midnightblue" d="M426.17,-173.77C347.02,-168.8 203.73,-157.28 72.89,-131.97"/>
<polygon fill="midnightblue" stroke="midnightblue" points="73.18,-128.46 62.69,-129.96 71.83,-135.32 73.18,-128.46"/>
</g>
<!-- Node18 -->
<g id="node18" class="node">
<title>Node18</title>
<g id="a_node18"><a xlink:title=" ">
<polygon fill="white" stroke="#bfbfbf" points="80.95,-112.5 80.95,-131.5 133.95,-131.5 133.95,-112.5 80.95,-112.5"/>
<text text-anchor="middle" x="107.45" y="-119.5" font-family="Helvetica,sans-Serif" font-size="10.00">string.h</text>
</a>
</g>
</g>
<!-- Node10&#45;&gt;Node18 -->
<g id="edge21" class="edge">
<title>Node10&#45;&gt;Node18</title>
<path fill="none" stroke="midnightblue" d="M426.39,-170.54C358.62,-162.9 245.23,-149.03 148.45,-132 147.16,-131.77 145.85,-131.53 144.52,-131.28"/>
<polygon fill="midnightblue" stroke="midnightblue" points="144.79,-127.77 134.3,-129.23 143.41,-134.63 144.79,-127.77"/>
</g>
<!-- Node19 -->
<g id="node19" class="node">
<title>Node19</title>
<g id="a_node19"><a xlink:href="../../da/df0/ntv2virtualregisters_8h.html" target="_top" xlink:title="Declares enums for virtual registers used in all platform drivers and the SDK.">
<polygon fill="white" stroke="black" points="190.45,-112.5 190.45,-131.5 312.45,-131.5 312.45,-112.5 190.45,-112.5"/>
<text text-anchor="middle" x="251.45" y="-119.5" font-family="Helvetica,sans-Serif" font-size="10.00">ntv2virtualregisters.h</text>
</a>
</g>
</g>
<!-- Node10&#45;&gt;Node19 -->
<g id="edge23" class="edge">
<title>Node10&#45;&gt;Node19</title>
<path fill="none" stroke="midnightblue" d="M449.22,-168.44C408.39,-159.06 342.81,-143.99 298.47,-133.8"/>
<polygon fill="midnightblue" stroke="midnightblue" points="299.04,-130.34 288.51,-131.52 297.48,-137.17 299.04,-130.34"/>
</g>
<!-- Node11&#45;&gt;Node4 -->
<g id="edge12" class="edge">
<title>Node11&#45;&gt;Node4</title>
<path fill="none" stroke="midnightblue" d="M446.18,-113.21C394.44,-103.19 304.92,-85.87 251.44,-75.51"/>
<polygon fill="midnightblue" stroke="midnightblue" points="252.05,-72.07 241.57,-73.6 250.72,-78.94 252.05,-72.07"/>
</g>
<!-- Node11&#45;&gt;Node6 -->
<g id="edge13" class="edge">
<title>Node11&#45;&gt;Node6</title>
<path fill="none" stroke="midnightblue" d="M498.18,-112.32C509.29,-104.11 526.19,-91.6 539.44,-81.81"/>
<polygon fill="midnightblue" stroke="midnightblue" points="541.55,-84.59 547.51,-75.83 537.39,-78.97 541.55,-84.59"/>
</g>
<!-- Node19&#45;&gt;Node4 -->
<g id="edge24" class="edge">
<title>Node19&#45;&gt;Node4</title>
<path fill="none" stroke="midnightblue" d="M244.19,-112.08C237.91,-104.38 228.67,-93.03 221.02,-83.65"/>
<polygon fill="midnightblue" stroke="midnightblue" points="223.61,-81.29 214.58,-75.75 218.19,-85.71 223.61,-81.29"/>
</g>
<!-- Node21&#45;&gt;Node2 -->
<g id="edge40" class="edge">
<title>Node21&#45;&gt;Node2</title>
<path fill="none" stroke="midnightblue" d="M862.51,-336.32C847.87,-327.82 825.32,-314.73 808.21,-304.8"/>
<polygon fill="midnightblue" stroke="midnightblue" points="809.76,-301.65 799.36,-299.65 806.25,-307.7 809.76,-301.65"/>
</g>
<!-- Node21&#45;&gt;Node3 -->
<g id="edge41" class="edge">
<title>Node21&#45;&gt;Node3</title>
<path fill="none" stroke="midnightblue" d="M876.19,-336.13C873.9,-322.73 867.98,-297.08 854.45,-280 843.81,-266.56 828,-255.92 814.1,-248.36"/>
<polygon fill="midnightblue" stroke="midnightblue" points="815.36,-245.07 804.87,-243.63 812.17,-251.3 815.36,-245.07"/>
</g>
<!-- Node22 -->
<g id="node22" class="node">
<title>Node22</title>
<g id="a_node22"><a xlink:href="../../d6/d23/timecode_8h.html" target="_top" xlink:title="Declares the AJATimeCode class.">
<polygon fill="white" stroke="black" points="901.45,-280.5 901.45,-299.5 1059.45,-299.5 1059.45,-280.5 901.45,-280.5"/>
<text text-anchor="middle" x="980.45" y="-287.5" font-family="Helvetica,sans-Serif" font-size="10.00">ajabase/common/timecode.h</text>
</a>
</g>
</g>
<!-- Node21&#45;&gt;Node22 -->
<g id="edge29" class="edge">
<title>Node21&#45;&gt;Node22</title>
<path fill="none" stroke="midnightblue" d="M894,-336.32C910.44,-327.7 935.89,-314.36 954.92,-304.39"/>
<polygon fill="midnightblue" stroke="midnightblue" points="956.71,-307.4 963.95,-299.65 953.46,-301.2 956.71,-307.4"/>
</g>
<!-- Node23 -->
<g id="node23" class="node">
<title>Node23</title>
<g id="a_node23"><a xlink:href="../../d4/d3c/timebase_8h.html" target="_top" xlink:title="Declares the AJATimeBase class.">
<polygon fill="white" stroke="black" points="985.45,-224.5 985.45,-243.5 1143.45,-243.5 1143.45,-224.5 985.45,-224.5"/>
<text text-anchor="middle" x="1064.45" y="-231.5" font-family="Helvetica,sans-Serif" font-size="10.00">ajabase/common/timebase.h</text>
</a>
</g>
</g>
<!-- Node21&#45;&gt;Node23 -->
<g id="edge39" class="edge">
<title>Node21&#45;&gt;Node23</title>
<path fill="none" stroke="midnightblue" d="M947.66,-337.56C995.71,-330.86 1053.36,-319.06 1068.45,-300 1078.74,-287 1075.93,-267.57 1071.65,-253.34"/>
<polygon fill="midnightblue" stroke="midnightblue" points="1074.88,-251.96 1068.29,-243.66 1068.27,-254.26 1074.88,-251.96"/>
</g>
<!-- Node22&#45;&gt;Node23 -->
<g id="edge30" class="edge">
<title>Node22&#45;&gt;Node23</title>
<path fill="none" stroke="midnightblue" d="M993.95,-280.32C1007.05,-271.9 1027.16,-258.97 1042.56,-249.07"/>
<polygon fill="midnightblue" stroke="midnightblue" points="1044.47,-252.01 1050.99,-243.65 1040.69,-246.12 1044.47,-252.01"/>
</g>
<!-- Node24 -->
<g id="node24" class="node">
<title>Node24</title>
<g id="a_node24"><a xlink:href="../../d4/d79/public_8h.html" target="_top" xlink:title="Master header for the ajabase library.">
<polygon fill="white" stroke="black" points="970.45,-168.5 970.45,-187.5 1112.45,-187.5 1112.45,-168.5 970.45,-168.5"/>
<text text-anchor="middle" x="1041.45" y="-175.5" font-family="Helvetica,sans-Serif" font-size="10.00">ajabase/common/public.h</text>
</a>
</g>
</g>
<!-- Node23&#45;&gt;Node24 -->
<g id="edge31" class="edge">
<title>Node23&#45;&gt;Node24</title>
<path fill="none" stroke="midnightblue" d="M1060.65,-224.08C1057.54,-216.77 1053.03,-206.18 1049.16,-197.1"/>
<polygon fill="midnightblue" stroke="midnightblue" points="1052.32,-195.58 1045.18,-187.75 1045.88,-198.32 1052.32,-195.58"/>
</g>
<!-- Node27 -->
<g id="node27" class="node">
<title>Node27</title>
<g id="a_node27"><a xlink:href="../../d6/da4/videotypes_8h.html" target="_top" xlink:title="Declares the enumeration constants used in the ajabase library.">
<polygon fill="white" stroke="black" points="1130.95,-168.5 1130.95,-187.5 1297.95,-187.5 1297.95,-168.5 1130.95,-168.5"/>
<text text-anchor="middle" x="1214.45" y="-175.5" font-family="Helvetica,sans-Serif" font-size="10.00">ajabase/common/videotypes.h</text>
</a>
</g>
</g>
<!-- Node23&#45;&gt;Node27 -->
<g id="edge38" class="edge">
<title>Node23&#45;&gt;Node27</title>
<path fill="none" stroke="midnightblue" d="M1088.22,-224.44C1113.35,-215.4 1153.16,-201.06 1181.35,-190.92"/>
<polygon fill="midnightblue" stroke="midnightblue" points="1182.57,-194.2 1190.8,-187.52 1180.2,-187.61 1182.57,-194.2"/>
</g>
<!-- Node24&#45;&gt;Node8 -->
<g id="edge33" class="edge">
<title>Node24&#45;&gt;Node8</title>
<path fill="none" stroke="midnightblue" d="M1040.43,-168.5C1038.3,-154.66 1032.14,-127.26 1015.45,-112 927.07,-31.18 776.37,-14.91 710.67,-11.73"/>
<polygon fill="midnightblue" stroke="midnightblue" points="710.65,-8.22 700.51,-11.31 710.36,-15.22 710.65,-8.22"/>
</g>
<!-- Node24&#45;&gt;Node9 -->
<g id="edge37" class="edge">
<title>Node24&#45;&gt;Node9</title>
<path fill="none" stroke="midnightblue" d="M1024.58,-168.32C1007.74,-159.66 981.65,-146.24 962.21,-136.25"/>
<polygon fill="midnightblue" stroke="midnightblue" points="963.77,-133.12 953.28,-131.65 960.57,-139.34 963.77,-133.12"/>
</g>
<!-- Node24&#45;&gt;Node14 -->
<g id="edge36" class="edge">
<title>Node24&#45;&gt;Node14</title>
<path fill="none" stroke="midnightblue" d="M1001.84,-168.44C951.36,-157.54 865.31,-138.95 820.5,-129.27"/>
<polygon fill="midnightblue" stroke="midnightblue" points="821.07,-125.82 810.56,-127.13 819.6,-132.66 821.07,-125.82"/>
</g>
<!-- Node24&#45;&gt;Node15 -->
<g id="edge35" class="edge">
<title>Node24&#45;&gt;Node15</title>
<path fill="none" stroke="midnightblue" d="M976.49,-168.47C922.24,-160.89 842.69,-148.73 764.23,-131.97"/>
<polygon fill="midnightblue" stroke="midnightblue" points="764.69,-128.49 754.17,-129.79 763.21,-135.33 764.69,-128.49"/>
</g>
<!-- Node25 -->
<g id="node25" class="node">
<title>Node25</title>
<g id="a_node25"><a xlink:href="../../db/db5/export_8h.html" target="_top" xlink:title="Declares system&#45;dependent import/export macros and libraries.">
<polygon fill="white" stroke="black" points="1062.45,-112.5 1062.45,-131.5 1206.45,-131.5 1206.45,-112.5 1062.45,-112.5"/>
<text text-anchor="middle" x="1134.45" y="-119.5" font-family="Helvetica,sans-Serif" font-size="10.00">ajabase/common/export.h</text>
</a>
</g>
</g>
<!-- Node24&#45;&gt;Node25 -->
<g id="edge32" class="edge">
<title>Node24&#45;&gt;Node25</title>
<path fill="none" stroke="midnightblue" d="M1056.39,-168.32C1071.04,-159.82 1093.59,-146.73 1110.69,-136.8"/>
<polygon fill="midnightblue" stroke="midnightblue" points="1112.66,-139.7 1119.55,-131.65 1109.14,-133.65 1112.66,-139.7"/>
</g>
<!-- Node26 -->
<g id="node26" class="node">
<title>Node26</title>
<g id="a_node26"><a xlink:title=" ">
<polygon fill="white" stroke="#bfbfbf" points="1224.45,-112.5 1224.45,-131.5 1256.45,-131.5 1256.45,-112.5 1224.45,-112.5"/>
<text text-anchor="middle" x="1240.45" y="-119.5" font-family="Helvetica,sans-Serif" font-size="10.00">list</text>
</a>
</g>
</g>
<!-- Node24&#45;&gt;Node26 -->
<g id="edge34" class="edge">
<title>Node24&#45;&gt;Node26</title>
<path fill="none" stroke="midnightblue" d="M1078.39,-168.5C1111.73,-160.59 1162.28,-148.03 1214.6,-132.05"/>
<polygon fill="midnightblue" stroke="midnightblue" points="1215.87,-135.33 1224.39,-129.03 1213.8,-128.64 1215.87,-135.33"/>
</g>
</g>
</svg>
