<?xml version="1.0" encoding="UTF-8" standalone="no"?>
<!DOCTYPE svg PUBLIC "-//W3C//DTD SVG 1.1//EN"
 "http://www.w3.org/Graphics/SVG/1.1/DTD/svg11.dtd">
<!-- Generated by graphviz version 2.40.1 (0)
 -->
<!-- Title: /home/tcbuilder/buildAgent/work/df8e8cce5bebfd58/libajantv2/ajantv2/src/lin/ntv2linuxpublicinterface.h Pages: 1 -->
<svg width="764pt" height="274pt"
 viewBox="0.00 0.00 764.39 274.00" xmlns="http://www.w3.org/2000/svg" xmlns:xlink="http://www.w3.org/1999/xlink">
<g id="graph0" class="graph" transform="scale(1 1) rotate(0) translate(4 270)">
<title>/home/tcbuilder/buildAgent/work/df8e8cce5bebfd58/libajantv2/ajantv2/src/lin/ntv2linuxpublicinterface.h</title>
<polygon fill="#ffffff" stroke="transparent" points="-4,4 -4,-270 760.3948,-270 760.3948,4 -4,4"/>
<!-- Node0 -->
<g id="node1" class="node">
<title>Node0</title>
<polygon fill="#bfbfbf" stroke="#000000" points="199.8948,-224.5 199.8948,-265.5 393.8948,-265.5 393.8948,-224.5 199.8948,-224.5"/>
<text text-anchor="start" x="207.8948" y="-253.5" font-family="Helvetica,sans-Serif" font-size="10.00" fill="#000000">/home/tcbuilder/buildAgent</text>
<text text-anchor="start" x="207.8948" y="-242.5" font-family="Helvetica,sans-Serif" font-size="10.00" fill="#000000">/work/df8e8cce5bebfd58/libajantv2</text>
<text text-anchor="middle" x="296.8948" y="-231.5" font-family="Helvetica,sans-Serif" font-size="10.00" fill="#000000">/ajantv2/src/lin/ntv2linuxpublicinterface.h</text>
</g>
<!-- Node1 -->
<g id="node2" class="node">
<title>Node1</title>
<g id="a_node2"><a xlink:href="../../db/de2/ajatypes_8h.html" target="_top" xlink:title="Declares the most fundamental data types used by NTV2. Since Windows NT was the first principal devel...">
<polygon fill="#ffffff" stroke="#000000" points="77.8948,-56.5 77.8948,-75.5 139.8948,-75.5 139.8948,-56.5 77.8948,-56.5"/>
<text text-anchor="middle" x="108.8948" y="-63.5" font-family="Helvetica,sans-Serif" font-size="10.00" fill="#000000">ajatypes.h</text>
</a>
</g>
</g>
<!-- Node0&#45;&gt;Node1 -->
<g id="edge1" class="edge">
<title>Node0&#45;&gt;Node1</title>
<path fill="none" stroke="#191970" d="M215.2378,-224.4794C137.7315,-203.1543 29.5155,-167.9278 4.8948,-132 -14.4418,-103.7829 30.9916,-85.0599 67.802,-74.9832"/>
<polygon fill="#191970" stroke="#191970" points="69.0915,-78.2648 77.8948,-72.3696 67.3366,-71.4883 69.0915,-78.2648"/>
</g>
<!-- Node4 -->
<g id="node5" class="node">
<title>Node4</title>
<g id="a_node5"><a xlink:href="../../d6/d0c/ntv2enums_8h.html" target="_top" xlink:title="Enumerations for controlling NTV2 devices. ">
<polygon fill="#ffffff" stroke="#000000" points="647.3948,-112.5 647.3948,-131.5 720.3948,-131.5 720.3948,-112.5 647.3948,-112.5"/>
<text text-anchor="middle" x="683.8948" y="-119.5" font-family="Helvetica,sans-Serif" font-size="10.00" fill="#000000">ntv2enums.h</text>
</a>
</g>
</g>
<!-- Node0&#45;&gt;Node4 -->
<g id="edge4" class="edge">
<title>Node0&#45;&gt;Node4</title>
<path fill="none" stroke="#191970" d="M361.6699,-224.4126C442.3092,-198.783 577.5349,-155.8043 644.2339,-134.6054"/>
<polygon fill="#191970" stroke="#191970" points="645.4774,-137.8828 653.9475,-131.5182 643.3571,-131.2116 645.4774,-137.8828"/>
</g>
<!-- Node8 -->
<g id="node9" class="node">
<title>Node8</title>
<g id="a_node9"><a xlink:href="../../d4/dd7/ntv2publicinterface_8h.html" target="_top" xlink:title="Declares enums and structs used by all platform drivers and the SDK. ">
<polygon fill="#ffffff" stroke="#000000" points="320.3948,-168.5 320.3948,-187.5 427.3948,-187.5 427.3948,-168.5 320.3948,-168.5"/>
<text text-anchor="middle" x="373.8948" y="-175.5" font-family="Helvetica,sans-Serif" font-size="10.00" fill="#000000">ntv2publicinterface.h</text>
</a>
</g>
</g>
<!-- Node0&#45;&gt;Node8 -->
<g id="edge9" class="edge">
<title>Node0&#45;&gt;Node8</title>
<path fill="none" stroke="#191970" d="M320.836,-224.168C331.8439,-214.5897 344.714,-203.3911 355.0218,-194.422"/>
<polygon fill="#191970" stroke="#191970" points="357.4081,-196.9851 362.6546,-187.7805 352.8131,-191.7043 357.4081,-196.9851"/>
</g>
<!-- Node16 -->
<g id="node17" class="node">
<title>Node16</title>
<g id="a_node17"><a xlink:href="../../da/df0/ntv2virtualregisters_8h.html" target="_top" xlink:title="Declares enums for virtual registers used in all platform drivers and the SDK. ">
<polygon fill="#ffffff" stroke="#000000" points="14.3948,-112.5 14.3948,-131.5 121.3948,-131.5 121.3948,-112.5 14.3948,-112.5"/>
<text text-anchor="middle" x="67.8948" y="-119.5" font-family="Helvetica,sans-Serif" font-size="10.00" fill="#000000">ntv2virtualregisters.h</text>
</a>
</g>
</g>
<!-- Node0&#45;&gt;Node16 -->
<g id="edge23" class="edge">
<title>Node0&#45;&gt;Node16</title>
<path fill="none" stroke="#191970" d="M258.5654,-224.4126C212.1224,-199.4672 135.0803,-158.0865 94.6094,-136.3489"/>
<polygon fill="#191970" stroke="#191970" points="96.0815,-133.1667 85.6157,-131.5182 92.7692,-139.3334 96.0815,-133.1667"/>
</g>
<!-- Node2 -->
<g id="node3" class="node">
<title>Node2</title>
<g id="a_node3"><a xlink:href="../../db/d40/ntv2deprecate_8h.html" target="_top" xlink:title="Deprecation control macros. ">
<polygon fill="#ffffff" stroke="#000000" points="108.8948,-.5 108.8948,-19.5 194.8948,-19.5 194.8948,-.5 108.8948,-.5"/>
<text text-anchor="middle" x="151.8948" y="-7.5" font-family="Helvetica,sans-Serif" font-size="10.00" fill="#000000">ntv2deprecate.h</text>
</a>
</g>
</g>
<!-- Node1&#45;&gt;Node2 -->
<g id="edge2" class="edge">
<title>Node1&#45;&gt;Node2</title>
<path fill="none" stroke="#191970" d="M116.3849,-56.2455C122.4275,-48.3761 131.0851,-37.101 138.3389,-27.6542"/>
<polygon fill="#191970" stroke="#191970" points="141.1764,-29.7058 144.4906,-19.6427 135.6243,-25.4426 141.1764,-29.7058"/>
</g>
<!-- Node3 -->
<g id="node4" class="node">
<title>Node3</title>
<polygon fill="#ffffff" stroke="#bfbfbf" points="41.3948,-.5 41.3948,-19.5 90.3948,-19.5 90.3948,-.5 41.3948,-.5"/>
<text text-anchor="middle" x="65.8948" y="-7.5" font-family="Helvetica,sans-Serif" font-size="10.00" fill="#000000">stdint.h</text>
</g>
<!-- Node1&#45;&gt;Node3 -->
<g id="edge3" class="edge">
<title>Node1&#45;&gt;Node3</title>
<path fill="none" stroke="#191970" d="M101.4048,-56.2455C95.3622,-48.3761 86.7046,-37.101 79.4507,-27.6542"/>
<polygon fill="#191970" stroke="#191970" points="82.1654,-25.4426 73.299,-19.6427 76.6133,-29.7058 82.1654,-25.4426"/>
</g>
<!-- Node4&#45;&gt;Node1 -->
<g id="edge5" class="edge">
<title>Node4&#45;&gt;Node1</title>
<path fill="none" stroke="#191970" d="M647.1175,-117.4193C632.4373,-115.6438 615.375,-113.6463 599.8948,-112 433.3405,-94.2869 234.6069,-76.7828 150.1419,-69.5124"/>
<polygon fill="#191970" stroke="#191970" points="150.2056,-66.0051 139.9427,-68.6365 149.6065,-72.9794 150.2056,-66.0051"/>
</g>
<!-- Node5 -->
<g id="node6" class="node">
<title>Node5</title>
<g id="a_node6"><a xlink:href="../../d6/db1/ntv2version_8h.html" target="_top" xlink:title="Defines for the NTV2 SDK version number, used by ajantv2/includes/ntv2enums.h. See the ajantv2/includ...">
<polygon fill="#ffffff" stroke="#000000" points="647.3948,-56.5 647.3948,-75.5 722.3948,-75.5 722.3948,-56.5 647.3948,-56.5"/>
<text text-anchor="middle" x="684.8948" y="-63.5" font-family="Helvetica,sans-Serif" font-size="10.00" fill="#000000">ntv2version.h</text>
</a>
</g>
</g>
<!-- Node4&#45;&gt;Node5 -->
<g id="edge6" class="edge">
<title>Node4&#45;&gt;Node5</title>
<path fill="none" stroke="#191970" d="M684.069,-112.2455C684.1995,-104.9382 684.3824,-94.6944 684.543,-85.7046"/>
<polygon fill="#191970" stroke="#191970" points="688.0435,-85.7036 684.7227,-75.6427 681.0446,-85.5786 688.0435,-85.7036"/>
</g>
<!-- Node6 -->
<g id="node7" class="node">
<title>Node6</title>
<g id="a_node7"><a xlink:href="../../d6/dd9/ajaexport_8h.html" target="_top" xlink:title="Defines the import/export macros for producing DLLs or LIBs. ">
<polygon fill="#ffffff" stroke="#000000" points="602.3948,-.5 602.3948,-19.5 667.3948,-19.5 667.3948,-.5 602.3948,-.5"/>
<text text-anchor="middle" x="634.8948" y="-7.5" font-family="Helvetica,sans-Serif" font-size="10.00" fill="#000000">ajaexport.h</text>
</a>
</g>
</g>
<!-- Node5&#45;&gt;Node6 -->
<g id="edge7" class="edge">
<title>Node5&#45;&gt;Node6</title>
<path fill="none" stroke="#191970" d="M676.1855,-56.2455C669.0875,-48.2958 658.8864,-36.8706 650.3998,-27.3656"/>
<polygon fill="#191970" stroke="#191970" points="652.7754,-24.771 643.5044,-19.6427 647.5538,-29.4331 652.7754,-24.771"/>
</g>
<!-- Node7 -->
<g id="node8" class="node">
<title>Node7</title>
<polygon fill="#ffffff" stroke="#bfbfbf" points="715.3948,-.5 715.3948,-19.5 756.3948,-19.5 756.3948,-.5 715.3948,-.5"/>
<text text-anchor="middle" x="735.8948" y="-7.5" font-family="Helvetica,sans-Serif" font-size="10.00" fill="#000000">string</text>
</g>
<!-- Node5&#45;&gt;Node7 -->
<g id="edge8" class="edge">
<title>Node5&#45;&gt;Node7</title>
<path fill="none" stroke="#191970" d="M693.7784,-56.2455C701.0914,-48.2155 711.634,-36.6394 720.3415,-27.0781"/>
<polygon fill="#191970" stroke="#191970" points="722.9675,-29.3928 727.1131,-19.6427 717.7921,-24.6795 722.9675,-29.3928"/>
</g>
<!-- Node8&#45;&gt;Node1 -->
<g id="edge10" class="edge">
<title>Node8&#45;&gt;Node1</title>
<path fill="none" stroke="#191970" d="M320.1574,-169.7163C268.3519,-161.0624 194.1968,-146.7182 168.8948,-132 148.7204,-120.2644 131.5039,-99.4704 120.7553,-84.352"/>
<polygon fill="#191970" stroke="#191970" points="123.4537,-82.0964 114.93,-75.8038 117.6691,-86.0384 123.4537,-82.0964"/>
</g>
<!-- Node8&#45;&gt;Node4 -->
<g id="edge11" class="edge">
<title>Node8&#45;&gt;Node4</title>
<path fill="none" stroke="#191970" d="M427.5179,-168.7638C479.9309,-159.6681 561.9651,-145.2516 632.8948,-132 634.3361,-131.7307 635.7999,-131.4554 637.2775,-131.1757"/>
<polygon fill="#191970" stroke="#191970" points="637.975,-134.6058 647.1388,-129.2884 636.6591,-127.7306 637.975,-134.6058"/>
</g>
<!-- Node8&#45;&gt;Node6 -->
<g id="edge20" class="edge">
<title>Node8&#45;&gt;Node6</title>
<path fill="none" stroke="#191970" d="M427.4196,-173.4696C486.1172,-167.4308 575.2696,-154.7624 599.8948,-132 628.6365,-105.4327 634.3434,-56.9989 635.1438,-29.8328"/>
<polygon fill="#191970" stroke="#191970" points="638.6455,-29.6504 635.2392,-19.6181 631.6458,-29.5849 638.6455,-29.6504"/>
</g>
<!-- Node8&#45;&gt;Node7 -->
<g id="edge16" class="edge">
<title>Node8&#45;&gt;Node7</title>
<path fill="none" stroke="#191970" d="M427.5582,-174.813C521.9649,-168.668 709.7308,-153.8313 729.8948,-132 755.4398,-104.3429 748.439,-56.3699 741.7482,-29.5615"/>
<polygon fill="#191970" stroke="#191970" points="745.0927,-28.5222 739.0862,-19.7945 738.339,-30.363 745.0927,-28.5222"/>
</g>
<!-- Node9 -->
<g id="node10" class="node">
<title>Node9</title>
<polygon fill="#ffffff" stroke="#bfbfbf" points="177.8948,-112.5 177.8948,-131.5 231.8948,-131.5 231.8948,-112.5 177.8948,-112.5"/>
<text text-anchor="middle" x="204.8948" y="-119.5" font-family="Helvetica,sans-Serif" font-size="10.00" fill="#000000">iostream</text>
</g>
<!-- Node8&#45;&gt;Node9 -->
<g id="edge12" class="edge">
<title>Node8&#45;&gt;Node9</title>
<path fill="none" stroke="#191970" d="M344.8427,-168.3733C316.2296,-158.892 272.4301,-144.3785 241.4631,-134.1173"/>
<polygon fill="#191970" stroke="#191970" points="242.4887,-130.7701 231.8954,-130.9469 240.2869,-137.4148 242.4887,-130.7701"/>
</g>
<!-- Node10 -->
<g id="node11" class="node">
<title>Node10</title>
<polygon fill="#ffffff" stroke="#bfbfbf" points="249.8948,-112.5 249.8948,-131.5 279.8948,-131.5 279.8948,-112.5 249.8948,-112.5"/>
<text text-anchor="middle" x="264.8948" y="-119.5" font-family="Helvetica,sans-Serif" font-size="10.00" fill="#000000">set</text>
</g>
<!-- Node8&#45;&gt;Node10 -->
<g id="edge13" class="edge">
<title>Node8&#45;&gt;Node10</title>
<path fill="none" stroke="#191970" d="M354.9085,-168.2455C336.6673,-158.8739 309.0248,-144.6723 289.1873,-134.4805"/>
<polygon fill="#191970" stroke="#191970" points="290.6455,-131.2948 280.1512,-129.8381 287.4466,-137.5212 290.6455,-131.2948"/>
</g>
<!-- Node11 -->
<g id="node12" class="node">
<title>Node11</title>
<polygon fill="#ffffff" stroke="#bfbfbf" points="298.3948,-112.5 298.3948,-131.5 333.3948,-131.5 333.3948,-112.5 298.3948,-112.5"/>
<text text-anchor="middle" x="315.8948" y="-119.5" font-family="Helvetica,sans-Serif" font-size="10.00" fill="#000000">map</text>
</g>
<!-- Node8&#45;&gt;Node11 -->
<g id="edge14" class="edge">
<title>Node8&#45;&gt;Node11</title>
<path fill="none" stroke="#191970" d="M363.792,-168.2455C355.392,-160.1352 343.2455,-148.4075 333.2865,-138.7919"/>
<polygon fill="#191970" stroke="#191970" points="335.507,-136.0707 325.8819,-131.6427 330.6449,-141.1066 335.507,-136.0707"/>
</g>
<!-- Node12 -->
<g id="node13" class="node">
<title>Node12</title>
<polygon fill="#ffffff" stroke="#bfbfbf" points="351.8948,-112.5 351.8948,-131.5 395.8948,-131.5 395.8948,-112.5 351.8948,-112.5"/>
<text text-anchor="middle" x="373.8948" y="-119.5" font-family="Helvetica,sans-Serif" font-size="10.00" fill="#000000">vector</text>
</g>
<!-- Node8&#45;&gt;Node12 -->
<g id="edge15" class="edge">
<title>Node8&#45;&gt;Node12</title>
<path fill="none" stroke="#191970" d="M373.8948,-168.2455C373.8948,-160.9382 373.8948,-150.6944 373.8948,-141.7046"/>
<polygon fill="#191970" stroke="#191970" points="377.3949,-141.6426 373.8948,-131.6427 370.3949,-141.6427 377.3949,-141.6426"/>
</g>
<!-- Node13 -->
<g id="node14" class="node">
<title>Node13</title>
<polygon fill="#ffffff" stroke="#bfbfbf" points="413.8948,-112.5 413.8948,-131.5 463.8948,-131.5 463.8948,-112.5 413.8948,-112.5"/>
<text text-anchor="middle" x="438.8948" y="-119.5" font-family="Helvetica,sans-Serif" font-size="10.00" fill="#000000">iomanip</text>
</g>
<!-- Node8&#45;&gt;Node13 -->
<g id="edge17" class="edge">
<title>Node8&#45;&gt;Node13</title>
<path fill="none" stroke="#191970" d="M385.217,-168.2455C394.8172,-159.9746 408.784,-147.9416 420.0643,-138.2232"/>
<polygon fill="#191970" stroke="#191970" points="422.4108,-140.8214 427.7025,-131.6427 417.8419,-135.5182 422.4108,-140.8214"/>
</g>
<!-- Node14 -->
<g id="node15" class="node">
<title>Node14</title>
<polygon fill="#ffffff" stroke="#bfbfbf" points="482.3948,-112.5 482.3948,-131.5 523.3948,-131.5 523.3948,-112.5 482.3948,-112.5"/>
<text text-anchor="middle" x="502.8948" y="-119.5" font-family="Helvetica,sans-Serif" font-size="10.00" fill="#000000">bitset</text>
</g>
<!-- Node8&#45;&gt;Node14 -->
<g id="edge18" class="edge">
<title>Node8&#45;&gt;Node14</title>
<path fill="none" stroke="#191970" d="M396.0707,-168.3733C417.2496,-159.1793 449.3287,-145.2535 472.8065,-135.0616"/>
<polygon fill="#191970" stroke="#191970" points="474.5058,-138.1396 482.285,-130.9469 471.7183,-131.7185 474.5058,-138.1396"/>
</g>
<!-- Node15 -->
<g id="node16" class="node">
<title>Node15</title>
<polygon fill="#ffffff" stroke="#bfbfbf" points="541.3948,-112.5 541.3948,-131.5 590.3948,-131.5 590.3948,-112.5 541.3948,-112.5"/>
<text text-anchor="middle" x="565.8948" y="-119.5" font-family="Helvetica,sans-Serif" font-size="10.00" fill="#000000">string.h</text>
</g>
<!-- Node8&#45;&gt;Node15 -->
<g id="edge19" class="edge">
<title>Node8&#45;&gt;Node15</title>
<path fill="none" stroke="#191970" d="M407.4314,-168.4305C437.6222,-159.7863 483.4556,-146.5909 531.4212,-132.4158"/>
<polygon fill="#191970" stroke="#191970" points="532.4435,-135.7634 541.0387,-129.5688 530.4565,-129.0513 532.4435,-135.7634"/>
</g>
<!-- Node8&#45;&gt;Node16 -->
<g id="edge21" class="edge">
<title>Node8&#45;&gt;Node16</title>
<path fill="none" stroke="#191970" d="M321.6393,-168.4369C268.4996,-158.712 186.1726,-143.6456 129.7969,-133.3285"/>
<polygon fill="#191970" stroke="#191970" points="130.4016,-129.8811 119.9349,-131.5237 129.1415,-136.7667 130.4016,-129.8811"/>
</g>
<!-- Node16&#45;&gt;Node1 -->
<g id="edge22" class="edge">
<title>Node16&#45;&gt;Node1</title>
<path fill="none" stroke="#191970" d="M75.0365,-112.2455C80.7392,-104.4564 88.8848,-93.3308 95.7573,-83.9439"/>
<polygon fill="#191970" stroke="#191970" points="98.7516,-85.7789 101.835,-75.6427 93.1036,-81.6437 98.7516,-85.7789"/>
</g>
</g>
</svg>
