<?xml version="1.0" encoding="UTF-8" standalone="no"?>
<!DOCTYPE svg PUBLIC "-//W3C//DTD SVG 1.1//EN"
 "http://www.w3.org/Graphics/SVG/1.1/DTD/svg11.dtd">
<!-- Generated by graphviz version 2.40.1 (0)
 -->
<!-- Title: /home/tcbuilder/buildAgent/work/df8e8cce5bebfd58/libajantv2/ajaanc/includes/ancillarydatafactory.h Pages: 1 -->
<!--zoomable 330 -->
<svg id="main" version="1.1" xmlns="http://www.w3.org/2000/svg" xmlns:xlink="http://www.w3.org/1999/xlink" xml:space="preserve" onload="init(evt)">
<style type="text/css"><![CDATA[
.edge:hover path { stroke: red; }
.edge:hover polygon { stroke: red; fill: red; }
]]></style>
<script type="text/javascript"><![CDATA[
var edges = document.getElementsByTagName('g');
if (edges && edges.length) {
  for (var i=0;i<edges.length;i++) {
    if (edges[i].id.substr(0,4)=='edge') {
      edges[i].setAttribute('class','edge');
    }
  }
}
]]></script>
        <defs>
                <circle id="rim" cx="0" cy="0" r="7"/>
                <circle id="rim2" cx="0" cy="0" r="3.5"/>
                <g id="zoomPlus">
                        <use xlink:href="#rim" fill="#404040">
                                <set attributeName="fill" to="#808080" begin="zoomplus.mouseover" end="zoomplus.mouseout"/>
                        </use>
                        <path d="M-4,0h8M0,-4v8" fill="none" stroke="white" stroke-width="1.5" pointer-events="none"/>
                </g>
                <g id="zoomMin">
                        <use xlink:href="#rim" fill="#404040">
                                <set attributeName="fill" to="#808080" begin="zoomminus.mouseover" end="zoomminus.mouseout"/>
                        </use>
                        <path d="M-4,0h8" fill="none" stroke="white" stroke-width="1.5" pointer-events="none"/>
                </g>
                <g id="dirArrow">
                        <path fill="none" stroke="white" stroke-width="1.5" d="M0,-3.0v7 M-2.5,-0.5L0,-3.0L2.5,-0.5"/>
                </g>
               <g id="resetDef">
                       <use xlink:href="#rim2" fill="#404040">
                               <set attributeName="fill" to="#808080" begin="reset.mouseover" end="reset.mouseout"/>
                       </use>
               </g>
        </defs>

<script type="text/javascript">
var viewWidth = 975;
var viewHeight = 330;
var sectionId = 'dynsection-0';
</script>
<script xlink:href="../../svgpan.js"/>
<svg id="graph" class="graph">
<g id="viewport">
<title>/home/tcbuilder/buildAgent/work/df8e8cce5bebfd58/libajantv2/ajaanc/includes/ancillarydatafactory.h</title>
<polygon fill="#ffffff" stroke="transparent" points="-4,4 -4,-326 971,-326 971,4 -4,4"/>
<!-- Node0 -->
<g id="node1" class="node">
<title>Node0</title>
<polygon fill="#bfbfbf" stroke="#000000" points="611,-280.5 611,-321.5 793,-321.5 793,-280.5 611,-280.5"/>
<text text-anchor="start" x="619" y="-309.5" font-family="Helvetica,sans-Serif" font-size="10.00" fill="#000000">/home/tcbuilder/buildAgent</text>
<text text-anchor="start" x="619" y="-298.5" font-family="Helvetica,sans-Serif" font-size="10.00" fill="#000000">/work/df8e8cce5bebfd58/libajantv2</text>
<text text-anchor="middle" x="702" y="-287.5" font-family="Helvetica,sans-Serif" font-size="10.00" fill="#000000">/ajaanc/includes/ancillarydatafactory.h</text>
</g>
<!-- Node1 -->
<g id="node2" class="node">
<title>Node1</title>
<g id="a_node2"><a xlink:href="../../d7/d92/ancillarydata_8h.html" target="_top" xlink:title="Declares the AJAAncillaryData class. ">
<polygon fill="#ffffff" stroke="#000000" points="662,-224.5 662,-243.5 742,-243.5 742,-224.5 662,-224.5"/>
<text text-anchor="middle" x="702" y="-231.5" font-family="Helvetica,sans-Serif" font-size="10.00" fill="#000000">ancillarydata.h</text>
</a>
</g>
</g>
<!-- Node0&#45;&gt;Node1 -->
<g id="edge1" class="edge">
<title>Node0&#45;&gt;Node1</title>
<path fill="none" stroke="#191970" d="M702,-280.168C702,-271.8226 702,-262.2471 702,-253.9879"/>
<polygon fill="#191970" stroke="#191970" points="705.5001,-253.7804 702,-243.7805 698.5001,-253.7805 705.5001,-253.7804"/>
</g>
<!-- Node2 -->
<g id="node3" class="node">
<title>Node2</title>
<g id="a_node3"><a xlink:href="../../db/de2/ajatypes_8h.html" target="_top" xlink:title="Declares the most fundamental data types used by NTV2. Since Windows NT was the first principal devel...">
<polygon fill="#ffffff" stroke="#000000" points="160,-56.5 160,-75.5 222,-75.5 222,-56.5 160,-56.5"/>
<text text-anchor="middle" x="191" y="-63.5" font-family="Helvetica,sans-Serif" font-size="10.00" fill="#000000">ajatypes.h</text>
</a>
</g>
</g>
<!-- Node1&#45;&gt;Node2 -->
<g id="edge2" class="edge">
<title>Node1&#45;&gt;Node2</title>
<path fill="none" stroke="#191970" d="M661.9277,-230.1416C533.801,-217.4064 140.3388,-175.0618 104,-132 85.3845,-109.9405 119.6832,-90.7755 150.5413,-78.8647"/>
<polygon fill="#191970" stroke="#191970" points="151.7681,-82.1428 159.9452,-75.4059 149.3516,-75.573 151.7681,-82.1428"/>
</g>
<!-- Node5 -->
<g id="node6" class="node">
<title>Node5</title>
<g id="a_node6"><a xlink:href="../../d6/db1/ntv2version_8h.html" target="_top" xlink:title="Defines for the NTV2 SDK version number, used by ajantv2/includes/ntv2enums.h. See the ajantv2/includ...">
<polygon fill="#ffffff" stroke="#000000" points="662.5,-56.5 662.5,-75.5 737.5,-75.5 737.5,-56.5 662.5,-56.5"/>
<text text-anchor="middle" x="700" y="-63.5" font-family="Helvetica,sans-Serif" font-size="10.00" fill="#000000">ntv2version.h</text>
</a>
</g>
</g>
<!-- Node1&#45;&gt;Node5 -->
<g id="edge5" class="edge">
<title>Node1&#45;&gt;Node5</title>
<path fill="none" stroke="#191970" d="M738.1072,-224.4876C798.4,-206.8432 909.1123,-165.8826 868,-112 853.4071,-92.8743 792.0594,-79.7536 747.7109,-72.5613"/>
<polygon fill="#191970" stroke="#191970" points="748.1086,-69.081 737.6869,-70.9885 747.0235,-75.9964 748.1086,-69.081"/>
</g>
<!-- Node8 -->
<g id="node9" class="node">
<title>Node8</title>
<g id="a_node9"><a xlink:href="../../d9/d49/types_8h.html" target="_top" xlink:title="Declares common types used in the ajabase library. ">
<polygon fill="#ffffff" stroke="#000000" points="0,-56.5 0,-75.5 126,-75.5 126,-56.5 0,-56.5"/>
<text text-anchor="middle" x="63" y="-63.5" font-family="Helvetica,sans-Serif" font-size="10.00" fill="#000000">ajabase/common/types.h</text>
</a>
</g>
</g>
<!-- Node1&#45;&gt;Node8 -->
<g id="edge8" class="edge">
<title>Node1&#45;&gt;Node8</title>
<path fill="none" stroke="#191970" d="M661.7675,-232.1788C559.6121,-227.2486 292.2726,-212.3503 207,-188 153.4859,-172.7186 134.1121,-171.592 95,-132 82.1633,-119.0058 73.6655,-99.853 68.6742,-85.5223"/>
<polygon fill="#191970" stroke="#191970" points="71.9079,-84.1434 65.5272,-75.6854 65.2408,-86.2764 71.9079,-84.1434"/>
</g>
<!-- Node9 -->
<g id="node10" class="node">
<title>Node9</title>
<g id="a_node10"><a xlink:href="../../d4/dd7/ntv2publicinterface_8h.html" target="_top" xlink:title="Declares enums and structs used by all platform drivers and the SDK. ">
<polygon fill="#ffffff" stroke="#000000" points="513.5,-168.5 513.5,-187.5 620.5,-187.5 620.5,-168.5 513.5,-168.5"/>
<text text-anchor="middle" x="567" y="-175.5" font-family="Helvetica,sans-Serif" font-size="10.00" fill="#000000">ntv2publicinterface.h</text>
</a>
</g>
</g>
<!-- Node1&#45;&gt;Node9 -->
<g id="edge10" class="edge">
<title>Node1&#45;&gt;Node9</title>
<path fill="none" stroke="#191970" d="M678.7927,-224.3733C656.8301,-215.2629 623.6668,-201.5062 599.1599,-191.3404"/>
<polygon fill="#191970" stroke="#191970" points="600.4824,-188.0999 589.9045,-187.5011 597.8003,-194.5657 600.4824,-188.0999"/>
</g>
<!-- Node14 -->
<g id="node15" class="node">
<title>Node14</title>
<polygon fill="#ffffff" stroke="#bfbfbf" points="815,-112.5 815,-131.5 859,-131.5 859,-112.5 815,-112.5"/>
<text text-anchor="middle" x="837" y="-119.5" font-family="Helvetica,sans-Serif" font-size="10.00" fill="#000000">vector</text>
</g>
<!-- Node1&#45;&gt;Node14 -->
<g id="edge27" class="edge">
<title>Node1&#45;&gt;Node14</title>
<path fill="none" stroke="#191970" d="M713.51,-224.4509C736.6242,-205.2747 788.9108,-161.8962 817.4746,-138.1988"/>
<polygon fill="#191970" stroke="#191970" points="820.0576,-140.6036 825.5191,-131.5249 815.5881,-135.2162 820.0576,-140.6036"/>
</g>
<!-- Node19 -->
<g id="node20" class="node">
<title>Node19</title>
<polygon fill="#ffffff" stroke="#bfbfbf" points="915,-168.5 915,-187.5 967,-187.5 967,-168.5 915,-168.5"/>
<text text-anchor="middle" x="941" y="-175.5" font-family="Helvetica,sans-Serif" font-size="10.00" fill="#000000">sstream</text>
</g>
<!-- Node1&#45;&gt;Node19 -->
<g id="edge26" class="edge">
<title>Node1&#45;&gt;Node19</title>
<path fill="none" stroke="#191970" d="M742.071,-224.9577C782.2939,-215.8294 846.0106,-201.2281 901,-188 902.2527,-187.6986 903.5271,-187.3902 904.8137,-187.0772"/>
<polygon fill="#191970" stroke="#191970" points="905.8917,-190.4165 914.7664,-184.6294 904.2199,-183.6191 905.8917,-190.4165"/>
</g>
<!-- Node3 -->
<g id="node4" class="node">
<title>Node3</title>
<g id="a_node4"><a xlink:href="../../db/d40/ntv2deprecate_8h.html" target="_top" xlink:title="Deprecation control macros. ">
<polygon fill="#ffffff" stroke="#000000" points="49,-.5 49,-19.5 135,-19.5 135,-.5 49,-.5"/>
<text text-anchor="middle" x="92" y="-7.5" font-family="Helvetica,sans-Serif" font-size="10.00" fill="#000000">ntv2deprecate.h</text>
</a>
</g>
</g>
<!-- Node2&#45;&gt;Node3 -->
<g id="edge3" class="edge">
<title>Node2&#45;&gt;Node3</title>
<path fill="none" stroke="#191970" d="M173.7555,-56.2455C158.4239,-47.5731 135.7801,-34.7645 118.2084,-24.825"/>
<polygon fill="#191970" stroke="#191970" points="119.4741,-21.5198 109.0469,-19.6427 116.0276,-27.6126 119.4741,-21.5198"/>
</g>
<!-- Node4 -->
<g id="node5" class="node">
<title>Node4</title>
<polygon fill="#ffffff" stroke="#bfbfbf" points="166.5,-.5 166.5,-19.5 215.5,-19.5 215.5,-.5 166.5,-.5"/>
<text text-anchor="middle" x="191" y="-7.5" font-family="Helvetica,sans-Serif" font-size="10.00" fill="#000000">stdint.h</text>
</g>
<!-- Node2&#45;&gt;Node4 -->
<g id="edge4" class="edge">
<title>Node2&#45;&gt;Node4</title>
<path fill="none" stroke="#191970" d="M191,-56.2455C191,-48.9382 191,-38.6944 191,-29.7046"/>
<polygon fill="#191970" stroke="#191970" points="194.5001,-29.6426 191,-19.6427 187.5001,-29.6427 194.5001,-29.6426"/>
</g>
<!-- Node6 -->
<g id="node7" class="node">
<title>Node6</title>
<g id="a_node7"><a xlink:href="../../d6/dd9/ajaexport_8h.html" target="_top" xlink:title="Defines the import/export macros for producing DLLs or LIBs. ">
<polygon fill="#ffffff" stroke="#000000" points="598.5,-.5 598.5,-19.5 663.5,-19.5 663.5,-.5 598.5,-.5"/>
<text text-anchor="middle" x="631" y="-7.5" font-family="Helvetica,sans-Serif" font-size="10.00" fill="#000000">ajaexport.h</text>
</a>
</g>
</g>
<!-- Node5&#45;&gt;Node6 -->
<g id="edge6" class="edge">
<title>Node5&#45;&gt;Node6</title>
<path fill="none" stroke="#191970" d="M687.9811,-56.2455C677.7902,-47.9746 662.9638,-35.9416 650.9893,-26.2232"/>
<polygon fill="#191970" stroke="#191970" points="652.8514,-23.2268 642.8812,-19.6427 648.4402,-28.662 652.8514,-23.2268"/>
</g>
<!-- Node7 -->
<g id="node8" class="node">
<title>Node7</title>
<polygon fill="#ffffff" stroke="#bfbfbf" points="722.5,-.5 722.5,-19.5 763.5,-19.5 763.5,-.5 722.5,-.5"/>
<text text-anchor="middle" x="743" y="-7.5" font-family="Helvetica,sans-Serif" font-size="10.00" fill="#000000">string</text>
</g>
<!-- Node5&#45;&gt;Node7 -->
<g id="edge7" class="edge">
<title>Node5&#45;&gt;Node7</title>
<path fill="none" stroke="#191970" d="M707.49,-56.2455C713.5326,-48.3761 722.1903,-37.101 729.4441,-27.6542"/>
<polygon fill="#191970" stroke="#191970" points="732.2815,-29.7058 735.5958,-19.6427 726.7295,-25.4426 732.2815,-29.7058"/>
</g>
<!-- Node8&#45;&gt;Node3 -->
<g id="edge9" class="edge">
<title>Node8&#45;&gt;Node3</title>
<path fill="none" stroke="#191970" d="M68.0514,-56.2455C72.0019,-48.617 77.6097,-37.7881 82.4058,-28.5267"/>
<polygon fill="#191970" stroke="#191970" points="85.5159,-30.1321 87.0065,-19.6427 79.2999,-26.9131 85.5159,-30.1321"/>
</g>
<!-- Node9&#45;&gt;Node2 -->
<g id="edge11" class="edge">
<title>Node9&#45;&gt;Node2</title>
<path fill="none" stroke="#191970" d="M513.2824,-174.3138C419.2433,-167.3916 232.5832,-151.3843 210,-132 196.8779,-120.7367 192.5258,-101.0524 191.2183,-86.1035"/>
<polygon fill="#191970" stroke="#191970" points="194.6995,-85.6309 190.7172,-75.813 187.7078,-85.9715 194.6995,-85.6309"/>
</g>
<!-- Node9&#45;&gt;Node6 -->
<g id="edge23" class="edge">
<title>Node9&#45;&gt;Node6</title>
<path fill="none" stroke="#191970" d="M569.5175,-168.49C573.0216,-155.5636 579.7596,-131.7893 587,-112 597.8274,-82.4068 612.7579,-49.0376 622.143,-28.7681"/>
<polygon fill="#191970" stroke="#191970" points="625.3188,-30.2393 626.3785,-19.6976 618.9762,-27.2776 625.3188,-30.2393"/>
</g>
<!-- Node9&#45;&gt;Node7 -->
<g id="edge19" class="edge">
<title>Node9&#45;&gt;Node7</title>
<path fill="none" stroke="#191970" d="M620.5974,-173.1761C673.7696,-167.1496 749.8719,-154.7455 768,-132 792.0172,-101.8654 770.4744,-54.5561 755.1691,-28.5932"/>
<polygon fill="#191970" stroke="#191970" points="757.9503,-26.4357 749.7166,-19.7682 751.9953,-30.1151 757.9503,-26.4357"/>
</g>
<!-- Node10 -->
<g id="node11" class="node">
<title>Node10</title>
<g id="a_node11"><a xlink:href="../../d6/d0c/ntv2enums_8h.html" target="_top" xlink:title="Enumerations for controlling NTV2 devices. ">
<polygon fill="#ffffff" stroke="#000000" points="465.5,-112.5 465.5,-131.5 538.5,-131.5 538.5,-112.5 465.5,-112.5"/>
<text text-anchor="middle" x="502" y="-119.5" font-family="Helvetica,sans-Serif" font-size="10.00" fill="#000000">ntv2enums.h</text>
</a>
</g>
</g>
<!-- Node9&#45;&gt;Node10 -->
<g id="edge12" class="edge">
<title>Node9&#45;&gt;Node10</title>
<path fill="none" stroke="#191970" d="M555.6779,-168.2455C546.0777,-159.9746 532.1108,-147.9416 520.8305,-138.2232"/>
<polygon fill="#191970" stroke="#191970" points="523.053,-135.5182 513.1924,-131.6427 518.484,-140.8214 523.053,-135.5182"/>
</g>
<!-- Node11 -->
<g id="node12" class="node">
<title>Node11</title>
<polygon fill="#ffffff" stroke="#bfbfbf" points="345,-112.5 345,-131.5 399,-131.5 399,-112.5 345,-112.5"/>
<text text-anchor="middle" x="372" y="-119.5" font-family="Helvetica,sans-Serif" font-size="10.00" fill="#000000">iostream</text>
</g>
<!-- Node9&#45;&gt;Node11 -->
<g id="edge15" class="edge">
<title>Node9&#45;&gt;Node11</title>
<path fill="none" stroke="#191970" d="M533.4783,-168.3733C498.8889,-158.4399 445.0657,-142.983 409.1873,-132.6794"/>
<polygon fill="#191970" stroke="#191970" points="409.7003,-129.1854 399.1227,-129.7891 407.7681,-135.9134 409.7003,-129.1854"/>
</g>
<!-- Node12 -->
<g id="node13" class="node">
<title>Node12</title>
<polygon fill="#ffffff" stroke="#bfbfbf" points="417,-112.5 417,-131.5 447,-131.5 447,-112.5 417,-112.5"/>
<text text-anchor="middle" x="432" y="-119.5" font-family="Helvetica,sans-Serif" font-size="10.00" fill="#000000">set</text>
</g>
<!-- Node9&#45;&gt;Node12 -->
<g id="edge16" class="edge">
<title>Node9&#45;&gt;Node12</title>
<path fill="none" stroke="#191970" d="M543.7927,-168.3733C519.542,-158.3137 481.6351,-142.5894 456.8045,-132.2893"/>
<polygon fill="#191970" stroke="#191970" points="457.9337,-128.9686 447.3558,-128.3698 455.2516,-135.4343 457.9337,-128.9686"/>
</g>
<!-- Node13 -->
<g id="node14" class="node">
<title>Node13</title>
<polygon fill="#ffffff" stroke="#bfbfbf" points="595.5,-112.5 595.5,-131.5 630.5,-131.5 630.5,-112.5 595.5,-112.5"/>
<text text-anchor="middle" x="613" y="-119.5" font-family="Helvetica,sans-Serif" font-size="10.00" fill="#000000">map</text>
</g>
<!-- Node9&#45;&gt;Node13 -->
<g id="edge17" class="edge">
<title>Node9&#45;&gt;Node13</title>
<path fill="none" stroke="#191970" d="M575.0126,-168.2455C581.4768,-160.3761 590.7385,-149.101 598.4983,-139.6542"/>
<polygon fill="#191970" stroke="#191970" points="601.4364,-141.5916 605.0792,-131.6427 596.0273,-137.1484 601.4364,-141.5916"/>
</g>
<!-- Node9&#45;&gt;Node14 -->
<g id="edge18" class="edge">
<title>Node9&#45;&gt;Node14</title>
<path fill="none" stroke="#191970" d="M620.6904,-168.6575C668.2826,-160.0883 739.5604,-146.5495 801,-132 802.2782,-131.6973 803.5794,-131.3799 804.8921,-131.0521"/>
<polygon fill="#191970" stroke="#191970" points="806.2003,-134.3274 814.9845,-128.404 804.4237,-127.5566 806.2003,-134.3274"/>
</g>
<!-- Node15 -->
<g id="node16" class="node">
<title>Node15</title>
<polygon fill="#ffffff" stroke="#bfbfbf" points="649,-112.5 649,-131.5 699,-131.5 699,-112.5 649,-112.5"/>
<text text-anchor="middle" x="674" y="-119.5" font-family="Helvetica,sans-Serif" font-size="10.00" fill="#000000">iomanip</text>
</g>
<!-- Node9&#45;&gt;Node15 -->
<g id="edge20" class="edge">
<title>Node9&#45;&gt;Node15</title>
<path fill="none" stroke="#191970" d="M585.638,-168.2455C602.4386,-159.4527 627.3634,-146.4079 646.4618,-136.4125"/>
<polygon fill="#191970" stroke="#191970" points="648.3386,-139.3807 655.5756,-131.6427 645.0927,-133.1787 648.3386,-139.3807"/>
</g>
<!-- Node16 -->
<g id="node17" class="node">
<title>Node16</title>
<polygon fill="#ffffff" stroke="#bfbfbf" points="717.5,-112.5 717.5,-131.5 758.5,-131.5 758.5,-112.5 717.5,-112.5"/>
<text text-anchor="middle" x="738" y="-119.5" font-family="Helvetica,sans-Serif" font-size="10.00" fill="#000000">bitset</text>
</g>
<!-- Node9&#45;&gt;Node16 -->
<g id="edge21" class="edge">
<title>Node9&#45;&gt;Node16</title>
<path fill="none" stroke="#191970" d="M596.454,-168.4515C623.0409,-159.8191 663.4771,-146.6573 707.5845,-132.1232"/>
<polygon fill="#191970" stroke="#191970" points="708.9483,-135.3589 717.349,-128.9029 706.7559,-128.7111 708.9483,-135.3589"/>
</g>
<!-- Node17 -->
<g id="node18" class="node">
<title>Node17</title>
<polygon fill="#ffffff" stroke="#bfbfbf" points="113.5,-112.5 113.5,-131.5 162.5,-131.5 162.5,-112.5 113.5,-112.5"/>
<text text-anchor="middle" x="138" y="-119.5" font-family="Helvetica,sans-Serif" font-size="10.00" fill="#000000">string.h</text>
</g>
<!-- Node9&#45;&gt;Node17 -->
<g id="edge22" class="edge">
<title>Node9&#45;&gt;Node17</title>
<path fill="none" stroke="#191970" d="M513.3545,-173.9556C437.8509,-167.7463 296.1356,-154.1969 177,-132 175.5398,-131.7279 174.0533,-131.4321 172.5549,-131.1184"/>
<polygon fill="#191970" stroke="#191970" points="173.1756,-127.67 162.6467,-128.8496 171.6131,-134.4934 173.1756,-127.67"/>
</g>
<!-- Node18 -->
<g id="node19" class="node">
<title>Node18</title>
<g id="a_node19"><a xlink:href="../../da/df0/ntv2virtualregisters_8h.html" target="_top" xlink:title="Declares enums for virtual registers used in all platform drivers and the SDK. ">
<polygon fill="#ffffff" stroke="#000000" points="219.5,-112.5 219.5,-131.5 326.5,-131.5 326.5,-112.5 219.5,-112.5"/>
<text text-anchor="middle" x="273" y="-119.5" font-family="Helvetica,sans-Serif" font-size="10.00" fill="#000000">ntv2virtualregisters.h</text>
</a>
</g>
</g>
<!-- Node9&#45;&gt;Node18 -->
<g id="edge24" class="edge">
<title>Node9&#45;&gt;Node18</title>
<path fill="none" stroke="#191970" d="M516.7937,-168.4369C465.9493,-158.7522 387.294,-143.7703 333.1487,-133.4569"/>
<polygon fill="#191970" stroke="#191970" points="333.4776,-129.9567 322.9993,-131.5237 332.1677,-136.8331 333.4776,-129.9567"/>
</g>
<!-- Node10&#45;&gt;Node2 -->
<g id="edge13" class="edge">
<title>Node10&#45;&gt;Node2</title>
<path fill="none" stroke="#191970" d="M465.3705,-113.8912C462.2046,-113.2347 459.048,-112.5956 456,-112 376.9462,-96.5531 284.108,-81.0373 231.956,-72.559"/>
<polygon fill="#191970" stroke="#191970" points="232.5153,-69.104 222.0842,-70.9593 231.3955,-76.0139 232.5153,-69.104"/>
</g>
<!-- Node10&#45;&gt;Node5 -->
<g id="edge14" class="edge">
<title>Node10&#45;&gt;Node5</title>
<path fill="none" stroke="#191970" d="M536.0374,-112.3733C569.3894,-102.9404 620.3527,-88.5265 656.6002,-78.2747"/>
<polygon fill="#191970" stroke="#191970" points="657.7368,-81.5906 666.4067,-75.5011 655.8316,-74.8548 657.7368,-81.5906"/>
</g>
<!-- Node18&#45;&gt;Node2 -->
<g id="edge25" class="edge">
<title>Node18&#45;&gt;Node2</title>
<path fill="none" stroke="#191970" d="M258.7167,-112.2455C246.253,-103.7337 227.9549,-91.2375 213.5208,-81.3801"/>
<polygon fill="#191970" stroke="#191970" points="215.3515,-78.392 205.1196,-75.6427 211.4038,-84.1726 215.3515,-78.392"/>
</g>
</g>
</svg>
        <g id="navigator" transform="translate(0 0)" fill="#404254">
                <rect fill="#f2f5e9" fill-opacity="0.5" stroke="#606060" stroke-width=".5" x="0" y="0" width="60" height="60"/>
                <use id="zoomplus" xlink:href="#zoomPlus" x="17" y="9" onmousedown="handleZoom(evt,'in')"/>
                <use id="zoomminus" xlink:href="#zoomMin" x="42" y="9" onmousedown="handleZoom(evt,'out')"/>
                <use id="reset" xlink:href="#resetDef" x="30" y="36" onmousedown="handleReset()"/>
                <g id="arrowUp" xlink:href="#dirArrow" transform="translate(30 24)" onmousedown="handlePan(0,-1)">
                  <use xlink:href="#rim" fill="#404040">
                        <set attributeName="fill" to="#808080" begin="arrowUp.mouseover" end="arrowUp.mouseout"/>
                  </use>
                  <path fill="none" stroke="white" stroke-width="1.5" d="M0,-3.0v7 M-2.5,-0.5L0,-3.0L2.5,-0.5"/>
                </g>
                <g id="arrowRight" xlink:href="#dirArrow" transform="rotate(90) translate(36 -43)" onmousedown="handlePan(1,0)">
                  <use xlink:href="#rim" fill="#404040">
                        <set attributeName="fill" to="#808080" begin="arrowRight.mouseover" end="arrowRight.mouseout"/>
                  </use>
                  <path fill="none" stroke="white" stroke-width="1.5" d="M0,-3.0v7 M-2.5,-0.5L0,-3.0L2.5,-0.5"/>
                </g>
                <g id="arrowDown" xlink:href="#dirArrow" transform="rotate(180) translate(-30 -48)" onmousedown="handlePan(0,1)">
                  <use xlink:href="#rim" fill="#404040">
                        <set attributeName="fill" to="#808080" begin="arrowDown.mouseover" end="arrowDown.mouseout"/>
                  </use>
                  <path fill="none" stroke="white" stroke-width="1.5" d="M0,-3.0v7 M-2.5,-0.5L0,-3.0L2.5,-0.5"/>
                </g>
                <g id="arrowLeft" xlink:href="#dirArrow" transform="rotate(270) translate(-36 17)" onmousedown="handlePan(-1,0)">
                  <use xlink:href="#rim" fill="#404040">
                        <set attributeName="fill" to="#808080" begin="arrowLeft.mouseover" end="arrowLeft.mouseout"/>
                  </use>
                  <path fill="none" stroke="white" stroke-width="1.5" d="M0,-3.0v7 M-2.5,-0.5L0,-3.0L2.5,-0.5"/>
                </g>
        </g>
        <svg viewBox="0 0 15 15" width="100%" height="30px" preserveAspectRatio="xMaxYMin meet">
         <g id="arrow_out" transform="scale(0.3 0.3)">
          <a xlink:href="ancillarydatafactory_8h__incl_org.svg" target="_base">
           <rect id="button" ry="5" rx="5" y="6" x="6" height="38" width="38"
                fill="#f2f5e9" fill-opacity="0.5" stroke="#606060" stroke-width="1.0"/>
           <path id="arrow"
             d="M 11.500037,31.436501 C 11.940474,20.09759 22.043105,11.32322 32.158766,21.979434 L 37.068811,17.246167 C 37.068811,17.246167 37.088388,32 37.088388,32 L 22.160133,31.978069 C 22.160133,31.978069 26.997745,27.140456 26.997745,27.140456 C 18.528582,18.264221 13.291696,25.230495 11.500037,31.436501 z"
             style="fill:#404040;"/>
          </a>
         </g>
        </svg>
</svg>
