<?xml version="1.0" encoding="UTF-8" standalone="no"?>
<!DOCTYPE svg PUBLIC "-//W3C//DTD SVG 1.1//EN"
 "http://www.w3.org/Graphics/SVG/1.1/DTD/svg11.dtd">
<!-- Generated by graphviz version 2.43.0 (0)
 -->
<!-- Title: /home/tcbuilder/buildAgent/work/df8e8cce5bebfd58/libajantv2/demos/ntv2vcam/baseclasses/dllentry.cpp Pages: 1 -->
<!--zoomable 218 -->
<svg id="main" version="1.1" xmlns="http://www.w3.org/2000/svg" xmlns:xlink="http://www.w3.org/1999/xlink" xml:space="preserve" onload="init(evt)">
<style type="text/css"><![CDATA[
.edge:hover path { stroke: red; }
.edge:hover polygon { stroke: red; fill: red; }
]]></style>
<script type="text/javascript"><![CDATA[
var edges = document.getElementsByTagName('g');
if (edges && edges.length) {
  for (var i=0;i<edges.length;i++) {
    if (edges[i].id.substr(0,4)=='edge') {
      edges[i].setAttribute('class','edge');
    }
  }
}
]]></script>
        <defs>
                <circle id="rim" cx="0" cy="0" r="7"/>
                <circle id="rim2" cx="0" cy="0" r="3.5"/>
                <g id="zoomPlus">
                        <use xlink:href="#rim" fill="#404040">
                                <set attributeName="fill" to="#808080" begin="zoomplus.mouseover" end="zoomplus.mouseout"/>
                        </use>
                        <path d="M-4,0h8M0,-4v8" fill="none" stroke="white" stroke-width="1.5" pointer-events="none"/>
                </g>
                <g id="zoomMin">
                        <use xlink:href="#rim" fill="#404040">
                                <set attributeName="fill" to="#808080" begin="zoomminus.mouseover" end="zoomminus.mouseout"/>
                        </use>
                        <path d="M-4,0h8" fill="none" stroke="white" stroke-width="1.5" pointer-events="none"/>
                </g>
                <g id="dirArrow">
                        <path fill="none" stroke="white" stroke-width="1.5" d="M0,-3.0v7 M-2.5,-0.5L0,-3.0L2.5,-0.5"/>
                </g>
               <g id="resetDef">
                       <use xlink:href="#rim2" fill="#404040">
                               <set attributeName="fill" to="#808080" begin="reset.mouseover" end="reset.mouseout"/>
                       </use>
               </g>
        </defs>

<script type="text/javascript">
var viewWidth = 3444;
var viewHeight = 218;
var sectionId = 'dynsection-0';
</script>
<script xlink:href="../../svgpan.js"/>
<svg id="graph" class="graph">
<g id="viewport">
<title>/home/tcbuilder/buildAgent/work/df8e8cce5bebfd58/libajantv2/demos/ntv2vcam/baseclasses/dllentry.cpp</title>
<polygon fill="white" stroke="transparent" points="-4,4 -4,-214 3439.5,-214 3439.5,4 -4,4"/>
<!-- Node1 -->
<g id="node1" class="node">
<title>Node1</title>
<g id="a_node1"><a xlink:title=" ">
<polygon fill="#bfbfbf" stroke="black" points="1690,-168.5 1690,-209.5 1916,-209.5 1916,-168.5 1690,-168.5"/>
<text text-anchor="start" x="1698" y="-197.5" font-family="Helvetica,sans-Serif" font-size="10.00">/home/tcbuilder/buildAgent</text>
<text text-anchor="start" x="1698" y="-186.5" font-family="Helvetica,sans-Serif" font-size="10.00">/work/df8e8cce5bebfd58/libajantv2</text>
<text text-anchor="middle" x="1803" y="-175.5" font-family="Helvetica,sans-Serif" font-size="10.00">/demos/ntv2vcam/baseclasses/dllentry.cpp</text>
</a>
</g>
</g>
<!-- Node2 -->
<g id="node2" class="node">
<title>Node2</title>
<g id="a_node2"><a xlink:href="../../db/d8e/streams_8h.html" target="_top" xlink:title=" ">
<polygon fill="white" stroke="black" points="1688.5,-112.5 1688.5,-131.5 1753.5,-131.5 1753.5,-112.5 1688.5,-112.5"/>
<text text-anchor="middle" x="1721" y="-119.5" font-family="Helvetica,sans-Serif" font-size="10.00">streams.h</text>
</a>
</g>
</g>
<!-- Node1&#45;&gt;Node2 -->
<g id="edge1" class="edge">
<title>Node1&#45;&gt;Node2</title>
<path fill="none" stroke="midnightblue" d="M1778.4,-168.5C1766.07,-158.72 1751.37,-147.07 1739.93,-138.01"/>
<polygon fill="midnightblue" stroke="midnightblue" points="1741.93,-135.12 1731.92,-131.65 1737.58,-140.61 1741.93,-135.12"/>
</g>
<!-- Node47 -->
<g id="node47" class="node">
<title>Node47</title>
<g id="a_node47"><a xlink:title=" ">
<polygon fill="white" stroke="#bfbfbf" points="1772,-112.5 1772,-131.5 1834,-131.5 1834,-112.5 1772,-112.5"/>
<text text-anchor="middle" x="1803" y="-119.5" font-family="Helvetica,sans-Serif" font-size="10.00">initguid.h</text>
</a>
</g>
</g>
<!-- Node1&#45;&gt;Node47 -->
<g id="edge46" class="edge">
<title>Node1&#45;&gt;Node47</title>
<path fill="none" stroke="midnightblue" d="M1803,-168.5C1803,-160.07 1803,-150.24 1803,-141.87"/>
<polygon fill="midnightblue" stroke="midnightblue" points="1806.5,-141.65 1803,-131.65 1799.5,-141.65 1806.5,-141.65"/>
</g>
<!-- Node48 -->
<g id="node48" class="node">
<title>Node48</title>
<g id="a_node48"><a xlink:title=" ">
<polygon fill="white" stroke="#bfbfbf" points="1852.5,-112.5 1852.5,-131.5 1911.5,-131.5 1911.5,-112.5 1852.5,-112.5"/>
<text text-anchor="middle" x="1882" y="-119.5" font-family="Helvetica,sans-Serif" font-size="10.00">strsafe.h</text>
</a>
</g>
</g>
<!-- Node1&#45;&gt;Node48 -->
<g id="edge47" class="edge">
<title>Node1&#45;&gt;Node48</title>
<path fill="none" stroke="midnightblue" d="M1826.7,-168.5C1838.58,-158.72 1852.74,-147.07 1863.76,-138.01"/>
<polygon fill="midnightblue" stroke="midnightblue" points="1865.99,-140.71 1871.48,-131.65 1861.54,-135.3 1865.99,-140.71"/>
</g>
<!-- Node3 -->
<g id="node3" class="node">
<title>Node3</title>
<g id="a_node3"><a xlink:title=" ">
<polygon fill="white" stroke="#bfbfbf" points="0,-56.5 0,-75.5 68,-75.5 68,-56.5 0,-56.5"/>
<text text-anchor="middle" x="34" y="-63.5" font-family="Helvetica,sans-Serif" font-size="10.00">windows.h</text>
</a>
</g>
</g>
<!-- Node2&#45;&gt;Node3 -->
<g id="edge2" class="edge">
<title>Node2&#45;&gt;Node3</title>
<path fill="none" stroke="midnightblue" d="M1688.38,-120.9C1488.52,-120.19 426.62,-114.68 78.27,-75.89"/>
<polygon fill="midnightblue" stroke="midnightblue" points="78.51,-72.39 68.18,-74.73 77.71,-79.35 78.51,-72.39"/>
</g>
<!-- Node4 -->
<g id="node4" class="node">
<title>Node4</title>
<g id="a_node4"><a xlink:title=" ">
<polygon fill="white" stroke="#bfbfbf" points="86,-56.5 86,-75.5 160,-75.5 160,-56.5 86,-56.5"/>
<text text-anchor="middle" x="123" y="-63.5" font-family="Helvetica,sans-Serif" font-size="10.00">windowsx.h</text>
</a>
</g>
</g>
<!-- Node2&#45;&gt;Node4 -->
<g id="edge3" class="edge">
<title>Node2&#45;&gt;Node4</title>
<path fill="none" stroke="midnightblue" d="M1688.36,-120.77C1495.27,-119.27 500,-110.07 170.15,-75.75"/>
<polygon fill="midnightblue" stroke="midnightblue" points="170.43,-72.26 160.12,-74.68 169.69,-79.22 170.43,-72.26"/>
</g>
<!-- Node5 -->
<g id="node5" class="node">
<title>Node5</title>
<g id="a_node5"><a xlink:title=" ">
<polygon fill="white" stroke="#bfbfbf" points="178.5,-56.5 178.5,-75.5 231.5,-75.5 231.5,-56.5 178.5,-56.5"/>
<text text-anchor="middle" x="205" y="-63.5" font-family="Helvetica,sans-Serif" font-size="10.00">olectl.h</text>
</a>
</g>
</g>
<!-- Node2&#45;&gt;Node5 -->
<g id="edge4" class="edge">
<title>Node2&#45;&gt;Node5</title>
<path fill="none" stroke="midnightblue" d="M1688.3,-120.96C1500.3,-120.58 554.92,-116.73 241.59,-75.68"/>
<polygon fill="midnightblue" stroke="midnightblue" points="241.99,-72.2 231.61,-74.33 241.05,-79.14 241.99,-72.2"/>
</g>
<!-- Node6 -->
<g id="node6" class="node">
<title>Node6</title>
<g id="a_node6"><a xlink:title=" ">
<polygon fill="white" stroke="#bfbfbf" points="249.5,-56.5 249.5,-75.5 304.5,-75.5 304.5,-56.5 249.5,-56.5"/>
<text text-anchor="middle" x="277" y="-63.5" font-family="Helvetica,sans-Serif" font-size="10.00">ddraw.h</text>
</a>
</g>
</g>
<!-- Node2&#45;&gt;Node6 -->
<g id="edge5" class="edge">
<title>Node2&#45;&gt;Node6</title>
<path fill="none" stroke="midnightblue" d="M1688.43,-120.87C1506.37,-120.02 612.58,-114 314.68,-75.72"/>
<polygon fill="midnightblue" stroke="midnightblue" points="315.14,-72.25 304.76,-74.4 314.21,-79.19 315.14,-72.25"/>
</g>
<!-- Node7 -->
<g id="node7" class="node">
<title>Node7</title>
<g id="a_node7"><a xlink:title=" ">
<polygon fill="white" stroke="#bfbfbf" points="322.5,-56.5 322.5,-75.5 403.5,-75.5 403.5,-56.5 322.5,-56.5"/>
<text text-anchor="middle" x="363" y="-63.5" font-family="Helvetica,sans-Serif" font-size="10.00">mmsystem.h</text>
</a>
</g>
</g>
<!-- Node2&#45;&gt;Node7 -->
<g id="edge6" class="edge">
<title>Node2&#45;&gt;Node7</title>
<path fill="none" stroke="midnightblue" d="M1688.48,-120.52C1514.52,-117.83 691.85,-103.9 413.65,-75.86"/>
<polygon fill="midnightblue" stroke="midnightblue" points="413.9,-72.36 403.59,-74.81 413.17,-79.33 413.9,-72.36"/>
</g>
<!-- Node8 -->
<g id="node8" class="node">
<title>Node8</title>
<g id="a_node8"><a xlink:title=" ">
<polygon fill="white" stroke="#bfbfbf" points="422,-56.5 422,-75.5 476,-75.5 476,-56.5 422,-56.5"/>
<text text-anchor="middle" x="449" y="-63.5" font-family="Helvetica,sans-Serif" font-size="10.00">strmif.h</text>
</a>
</g>
</g>
<!-- Node2&#45;&gt;Node8 -->
<g id="edge7" class="edge">
<title>Node2&#45;&gt;Node8</title>
<path fill="none" stroke="midnightblue" d="M1688.32,-120.7C1520,-119.04 748.86,-109.76 486.6,-75.69"/>
<polygon fill="midnightblue" stroke="midnightblue" points="486.74,-72.17 476.36,-74.31 485.8,-79.11 486.74,-72.17"/>
</g>
<!-- Node9 -->
<g id="node9" class="node">
<title>Node9</title>
<g id="a_node9"><a xlink:title=" ">
<polygon fill="white" stroke="#bfbfbf" points="494.5,-56.5 494.5,-75.5 553.5,-75.5 553.5,-56.5 494.5,-56.5"/>
<text text-anchor="middle" x="524" y="-63.5" font-family="Helvetica,sans-Serif" font-size="10.00">intsafe.h</text>
</a>
</g>
</g>
<!-- Node2&#45;&gt;Node9 -->
<g id="edge8" class="edge">
<title>Node2&#45;&gt;Node9</title>
<path fill="none" stroke="midnightblue" d="M1688.5,-120.56C1527.02,-118.27 809.35,-106.57 563.65,-75.75"/>
<polygon fill="midnightblue" stroke="midnightblue" points="564.07,-72.28 553.7,-74.46 563.17,-79.22 564.07,-72.28"/>
</g>
<!-- Node10 -->
<g id="node10" class="node">
<title>Node10</title>
<g id="a_node10"><a xlink:href="../../d5/def/reftime_8h.html" target="_top" xlink:title=" ">
<polygon fill="white" stroke="black" points="571.5,-56.5 571.5,-75.5 632.5,-75.5 632.5,-56.5 571.5,-56.5"/>
<text text-anchor="middle" x="602" y="-63.5" font-family="Helvetica,sans-Serif" font-size="10.00">reftime.h</text>
</a>
</g>
</g>
<!-- Node2&#45;&gt;Node10 -->
<g id="edge9" class="edge">
<title>Node2&#45;&gt;Node10</title>
<path fill="none" stroke="midnightblue" d="M1688.41,-120.43C1533.78,-117.61 872.37,-104.18 643.17,-75.85"/>
<polygon fill="midnightblue" stroke="midnightblue" points="643.27,-72.33 632.91,-74.53 642.38,-79.28 643.27,-72.33"/>
</g>
<!-- Node11 -->
<g id="node11" class="node">
<title>Node11</title>
<g id="a_node11"><a xlink:href="../../de/de4/wxdebug_8h.html" target="_top" xlink:title=" ">
<polygon fill="white" stroke="black" points="651,-56.5 651,-75.5 721,-75.5 721,-56.5 651,-56.5"/>
<text text-anchor="middle" x="686" y="-63.5" font-family="Helvetica,sans-Serif" font-size="10.00">wxdebug.h</text>
</a>
</g>
</g>
<!-- Node2&#45;&gt;Node11 -->
<g id="edge10" class="edge">
<title>Node2&#45;&gt;Node11</title>
<path fill="none" stroke="midnightblue" d="M1688.34,-121.37C1564.53,-122.36 1112.34,-122.49 731.57,-76"/>
<polygon fill="midnightblue" stroke="midnightblue" points="731.82,-72.5 721.46,-74.75 730.96,-79.45 731.82,-72.5"/>
</g>
<!-- Node12 -->
<g id="node12" class="node">
<title>Node12</title>
<g id="a_node12"><a xlink:title=" ">
<polygon fill="white" stroke="#bfbfbf" points="739,-56.5 739,-75.5 807,-75.5 807,-56.5 739,-56.5"/>
<text text-anchor="middle" x="773" y="-63.5" font-family="Helvetica,sans-Serif" font-size="10.00">amvideo.h</text>
</a>
</g>
</g>
<!-- Node2&#45;&gt;Node12 -->
<g id="edge11" class="edge">
<title>Node2&#45;&gt;Node12</title>
<path fill="none" stroke="midnightblue" d="M1688.37,-121.22C1571.5,-121.61 1162.85,-119.66 817.14,-75.93"/>
<polygon fill="midnightblue" stroke="midnightblue" points="817.55,-72.46 807.19,-74.66 816.66,-79.4 817.55,-72.46"/>
</g>
<!-- Node13 -->
<g id="node13" class="node">
<title>Node13</title>
<g id="a_node13"><a xlink:href="../../d5/db0/wxutil_8h.html" target="_top" xlink:title=" ">
<polygon fill="white" stroke="black" points="825,-56.5 825,-75.5 881,-75.5 881,-56.5 825,-56.5"/>
<text text-anchor="middle" x="853" y="-63.5" font-family="Helvetica,sans-Serif" font-size="10.00">wxutil.h</text>
</a>
</g>
</g>
<!-- Node2&#45;&gt;Node13 -->
<g id="edge12" class="edge">
<title>Node2&#45;&gt;Node13</title>
<path fill="none" stroke="midnightblue" d="M1688.31,-121.39C1577.53,-122.25 1206.13,-121.42 891.41,-75.92"/>
<polygon fill="midnightblue" stroke="midnightblue" points="891.58,-72.41 881.18,-74.42 890.56,-79.33 891.58,-72.41"/>
</g>
<!-- Node14 -->
<g id="node14" class="node">
<title>Node14</title>
<g id="a_node14"><a xlink:href="../../de/de7/combase_8h.html" target="_top" xlink:title=" ">
<polygon fill="white" stroke="black" points="899,-56.5 899,-75.5 969,-75.5 969,-56.5 899,-56.5"/>
<text text-anchor="middle" x="934" y="-63.5" font-family="Helvetica,sans-Serif" font-size="10.00">combase.h</text>
</a>
</g>
</g>
<!-- Node2&#45;&gt;Node14 -->
<g id="edge13" class="edge">
<title>Node2&#45;&gt;Node14</title>
<path fill="none" stroke="midnightblue" d="M1688.3,-120.61C1585.47,-119.05 1259.37,-111.54 979.24,-75.82"/>
<polygon fill="midnightblue" stroke="midnightblue" points="979.66,-72.34 969.3,-74.53 978.77,-79.28 979.66,-72.34"/>
</g>
<!-- Node15 -->
<g id="node15" class="node">
<title>Node15</title>
<g id="a_node15"><a xlink:href="../../d6/d82/dllsetup_8h.html" target="_top" xlink:title=" ">
<polygon fill="white" stroke="black" points="987.5,-56.5 987.5,-75.5 1052.5,-75.5 1052.5,-56.5 987.5,-56.5"/>
<text text-anchor="middle" x="1020" y="-63.5" font-family="Helvetica,sans-Serif" font-size="10.00">dllsetup.h</text>
</a>
</g>
</g>
<!-- Node2&#45;&gt;Node15 -->
<g id="edge14" class="edge">
<title>Node2&#45;&gt;Node15</title>
<path fill="none" stroke="midnightblue" d="M1688.26,-120.42C1593.16,-118.38 1308.68,-109.8 1063.12,-75.95"/>
<polygon fill="midnightblue" stroke="midnightblue" points="1063.32,-72.44 1052.94,-74.52 1062.36,-79.37 1063.32,-72.44"/>
</g>
<!-- Node16 -->
<g id="node16" class="node">
<title>Node16</title>
<g id="a_node16"><a xlink:href="../../d1/d9c/measure_8h.html" target="_top" xlink:title=" ">
<polygon fill="white" stroke="black" points="1071,-56.5 1071,-75.5 1139,-75.5 1139,-56.5 1071,-56.5"/>
<text text-anchor="middle" x="1105" y="-63.5" font-family="Helvetica,sans-Serif" font-size="10.00">measure.h</text>
</a>
</g>
</g>
<!-- Node2&#45;&gt;Node16 -->
<g id="edge15" class="edge">
<title>Node2&#45;&gt;Node16</title>
<path fill="none" stroke="midnightblue" d="M1688.21,-119.89C1601.69,-116.66 1359.93,-105.62 1149.21,-75.99"/>
<polygon fill="midnightblue" stroke="midnightblue" points="1149.59,-72.51 1139.2,-74.57 1148.6,-79.44 1149.59,-72.51"/>
</g>
<!-- Node17 -->
<g id="node17" class="node">
<title>Node17</title>
<g id="a_node17"><a xlink:title=" ">
<polygon fill="white" stroke="#bfbfbf" points="1157,-56.5 1157,-75.5 1219,-75.5 1219,-56.5 1157,-56.5"/>
<text text-anchor="middle" x="1188" y="-63.5" font-family="Helvetica,sans-Serif" font-size="10.00">comlite.h</text>
</a>
</g>
</g>
<!-- Node2&#45;&gt;Node17 -->
<g id="edge16" class="edge">
<title>Node2&#45;&gt;Node17</title>
<path fill="none" stroke="midnightblue" d="M1688.23,-119.49C1610.32,-115.58 1407.84,-103.56 1229.46,-76.04"/>
<polygon fill="midnightblue" stroke="midnightblue" points="1229.79,-72.55 1219.37,-74.46 1228.71,-79.47 1229.79,-72.55"/>
</g>
<!-- Node18 -->
<g id="node18" class="node">
<title>Node18</title>
<g id="a_node18"><a xlink:href="../../d3/d26/cache_8h.html" target="_top" xlink:title=" ">
<polygon fill="white" stroke="black" points="1237,-56.5 1237,-75.5 1291,-75.5 1291,-56.5 1237,-56.5"/>
<text text-anchor="middle" x="1264" y="-63.5" font-family="Helvetica,sans-Serif" font-size="10.00">cache.h</text>
</a>
</g>
</g>
<!-- Node2&#45;&gt;Node18 -->
<g id="edge17" class="edge">
<title>Node2&#45;&gt;Node18</title>
<path fill="none" stroke="midnightblue" d="M1688.39,-118.98C1619.02,-114.36 1451.62,-101.55 1301.27,-75.8"/>
<polygon fill="midnightblue" stroke="midnightblue" points="1301.85,-72.35 1291.39,-74.09 1300.65,-79.25 1301.85,-72.35"/>
</g>
<!-- Node19 -->
<g id="node19" class="node">
<title>Node19</title>
<g id="a_node19"><a xlink:href="../../d9/d9c/wxlist_8h.html" target="_top" xlink:title=" ">
<polygon fill="white" stroke="black" points="1309.5,-56.5 1309.5,-75.5 1364.5,-75.5 1364.5,-56.5 1309.5,-56.5"/>
<text text-anchor="middle" x="1337" y="-63.5" font-family="Helvetica,sans-Serif" font-size="10.00">wxlist.h</text>
</a>
</g>
</g>
<!-- Node2&#45;&gt;Node19 -->
<g id="edge18" class="edge">
<title>Node2&#45;&gt;Node19</title>
<path fill="none" stroke="midnightblue" d="M1688.28,-117.97C1628.21,-112.13 1496.15,-98.11 1375,-76"/>
<polygon fill="midnightblue" stroke="midnightblue" points="1375.28,-72.49 1364.81,-74.11 1374.01,-79.37 1375.28,-72.49"/>
</g>
<!-- Node20 -->
<g id="node20" class="node">
<title>Node20</title>
<g id="a_node20"><a xlink:href="../../d6/d29/msgthrd_8h.html" target="_top" xlink:title=" ">
<polygon fill="white" stroke="black" points="1383,-56.5 1383,-75.5 1449,-75.5 1449,-56.5 1383,-56.5"/>
<text text-anchor="middle" x="1416" y="-63.5" font-family="Helvetica,sans-Serif" font-size="10.00">msgthrd.h</text>
</a>
</g>
</g>
<!-- Node2&#45;&gt;Node20 -->
<g id="edge19" class="edge">
<title>Node2&#45;&gt;Node20</title>
<path fill="none" stroke="midnightblue" d="M1688.25,-115.77C1640.38,-108.03 1548.26,-92.82 1459.3,-76"/>
<polygon fill="midnightblue" stroke="midnightblue" points="1459.79,-72.53 1449.31,-74.1 1458.48,-79.4 1459.79,-72.53"/>
</g>
<!-- Node21 -->
<g id="node21" class="node">
<title>Node21</title>
<g id="a_node21"><a xlink:href="../../d6/d3f/mtype_8h.html" target="_top" xlink:title=" ">
<polygon fill="white" stroke="black" points="1467.5,-56.5 1467.5,-75.5 1524.5,-75.5 1524.5,-56.5 1467.5,-56.5"/>
<text text-anchor="middle" x="1496" y="-63.5" font-family="Helvetica,sans-Serif" font-size="10.00">mtype.h</text>
</a>
</g>
</g>
<!-- Node2&#45;&gt;Node21 -->
<g id="edge20" class="edge">
<title>Node2&#45;&gt;Node21</title>
<path fill="none" stroke="midnightblue" d="M1688.28,-113.15C1647.55,-103.37 1578.07,-86.7 1534.72,-76.29"/>
<polygon fill="midnightblue" stroke="midnightblue" points="1535.37,-72.85 1524.83,-73.92 1533.73,-79.66 1535.37,-72.85"/>
</g>
<!-- Node22 -->
<g id="node22" class="node">
<title>Node22</title>
<g id="a_node22"><a xlink:href="../../d1/d6b/fourcc_8h.html" target="_top" xlink:title=" ">
<polygon fill="white" stroke="black" points="1543,-56.5 1543,-75.5 1599,-75.5 1599,-56.5 1543,-56.5"/>
<text text-anchor="middle" x="1571" y="-63.5" font-family="Helvetica,sans-Serif" font-size="10.00">fourcc.h</text>
</a>
</g>
</g>
<!-- Node2&#45;&gt;Node22 -->
<g id="edge21" class="edge">
<title>Node2&#45;&gt;Node22</title>
<path fill="none" stroke="midnightblue" d="M1697.23,-112.44C1672.11,-103.4 1632.29,-89.06 1604.1,-78.92"/>
<polygon fill="midnightblue" stroke="midnightblue" points="1605.25,-75.61 1594.66,-75.52 1602.88,-82.2 1605.25,-75.61"/>
</g>
<!-- Node23 -->
<g id="node23" class="node">
<title>Node23</title>
<g id="a_node23"><a xlink:title=" ">
<polygon fill="white" stroke="#bfbfbf" points="1617.5,-56.5 1617.5,-75.5 1676.5,-75.5 1676.5,-56.5 1617.5,-56.5"/>
<text text-anchor="middle" x="1647" y="-63.5" font-family="Helvetica,sans-Serif" font-size="10.00">control.h</text>
</a>
</g>
</g>
<!-- Node2&#45;&gt;Node23 -->
<g id="edge22" class="edge">
<title>Node2&#45;&gt;Node23</title>
<path fill="none" stroke="midnightblue" d="M1709.11,-112.32C1697.85,-104.11 1680.71,-91.6 1667.29,-81.81"/>
<polygon fill="midnightblue" stroke="midnightblue" points="1669.25,-78.9 1659.11,-75.83 1665.12,-84.56 1669.25,-78.9"/>
</g>
<!-- Node24 -->
<g id="node24" class="node">
<title>Node24</title>
<g id="a_node24"><a xlink:href="../../d5/df5/ctlutil_8h.html" target="_top" xlink:title=" ">
<polygon fill="white" stroke="black" points="1694.5,-56.5 1694.5,-75.5 1747.5,-75.5 1747.5,-56.5 1694.5,-56.5"/>
<text text-anchor="middle" x="1721" y="-63.5" font-family="Helvetica,sans-Serif" font-size="10.00">ctlutil.h</text>
</a>
</g>
</g>
<!-- Node2&#45;&gt;Node24 -->
<g id="edge23" class="edge">
<title>Node2&#45;&gt;Node24</title>
<path fill="none" stroke="midnightblue" d="M1721,-112.08C1721,-105.01 1721,-94.86 1721,-85.99"/>
<polygon fill="midnightblue" stroke="midnightblue" points="1724.5,-85.75 1721,-75.75 1717.5,-85.75 1724.5,-85.75"/>
</g>
<!-- Node25 -->
<g id="node25" class="node">
<title>Node25</title>
<g id="a_node25"><a xlink:title=" ">
<polygon fill="white" stroke="#bfbfbf" points="1765.5,-56.5 1765.5,-75.5 1826.5,-75.5 1826.5,-56.5 1765.5,-56.5"/>
<text text-anchor="middle" x="1796" y="-63.5" font-family="Helvetica,sans-Serif" font-size="10.00">evcode.h</text>
</a>
</g>
</g>
<!-- Node2&#45;&gt;Node25 -->
<g id="edge24" class="edge">
<title>Node2&#45;&gt;Node25</title>
<path fill="none" stroke="midnightblue" d="M1733.05,-112.32C1744.46,-104.11 1761.83,-91.6 1775.43,-81.81"/>
<polygon fill="midnightblue" stroke="midnightblue" points="1777.66,-84.52 1783.73,-75.83 1773.57,-78.84 1777.66,-84.52"/>
</g>
<!-- Node26 -->
<g id="node26" class="node">
<title>Node26</title>
<g id="a_node26"><a xlink:href="../../d2/d9b/amfilter_8h.html" target="_top" xlink:title=" ">
<polygon fill="white" stroke="black" points="1844.5,-56.5 1844.5,-75.5 1907.5,-75.5 1907.5,-56.5 1844.5,-56.5"/>
<text text-anchor="middle" x="1876" y="-63.5" font-family="Helvetica,sans-Serif" font-size="10.00">amfilter.h</text>
</a>
</g>
</g>
<!-- Node2&#45;&gt;Node26 -->
<g id="edge25" class="edge">
<title>Node2&#45;&gt;Node26</title>
<path fill="none" stroke="midnightblue" d="M1745.56,-112.44C1771.52,-103.4 1812.67,-89.06 1841.8,-78.92"/>
<polygon fill="midnightblue" stroke="midnightblue" points="1843.26,-82.11 1851.55,-75.52 1840.96,-75.5 1843.26,-82.11"/>
</g>
<!-- Node27 -->
<g id="node27" class="node">
<title>Node27</title>
<g id="a_node27"><a xlink:href="../../d8/df6/transfrm_8h.html" target="_top" xlink:title=" ">
<polygon fill="white" stroke="black" points="1926,-56.5 1926,-75.5 1994,-75.5 1994,-56.5 1926,-56.5"/>
<text text-anchor="middle" x="1960" y="-63.5" font-family="Helvetica,sans-Serif" font-size="10.00">transfrm.h</text>
</a>
</g>
</g>
<!-- Node2&#45;&gt;Node27 -->
<g id="edge26" class="edge">
<title>Node2&#45;&gt;Node27</title>
<path fill="none" stroke="midnightblue" d="M1753.73,-113.6C1795.77,-104.11 1868.91,-87.58 1915.85,-76.98"/>
<polygon fill="midnightblue" stroke="midnightblue" points="1916.75,-80.36 1925.73,-74.74 1915.21,-73.53 1916.75,-80.36"/>
</g>
<!-- Node28 -->
<g id="node28" class="node">
<title>Node28</title>
<g id="a_node28"><a xlink:href="../../df/db9/transip_8h.html" target="_top" xlink:title=" ">
<polygon fill="white" stroke="black" points="2012.5,-56.5 2012.5,-75.5 2071.5,-75.5 2071.5,-56.5 2012.5,-56.5"/>
<text text-anchor="middle" x="2042" y="-63.5" font-family="Helvetica,sans-Serif" font-size="10.00">transip.h</text>
</a>
</g>
</g>
<!-- Node2&#45;&gt;Node28 -->
<g id="edge27" class="edge">
<title>Node2&#45;&gt;Node28</title>
<path fill="none" stroke="midnightblue" d="M1753.52,-113.82C1756.72,-113.18 1759.92,-112.56 1763,-112 1866.01,-93.26 1895.33,-95.96 2002.34,-75.99"/>
<polygon fill="midnightblue" stroke="midnightblue" points="2003.06,-79.41 2012.24,-74.12 2001.76,-72.54 2003.06,-79.41"/>
</g>
<!-- Node29 -->
<g id="node29" class="node">
<title>Node29</title>
<g id="a_node29"><a xlink:title=" ">
<polygon fill="white" stroke="#bfbfbf" points="2090,-56.5 2090,-75.5 2142,-75.5 2142,-56.5 2090,-56.5"/>
<text text-anchor="middle" x="2116" y="-63.5" font-family="Helvetica,sans-Serif" font-size="10.00">uuids.h</text>
</a>
</g>
</g>
<!-- Node2&#45;&gt;Node29 -->
<g id="edge28" class="edge">
<title>Node2&#45;&gt;Node29</title>
<path fill="none" stroke="midnightblue" d="M1753.96,-113.62C1757.01,-113.03 1760.06,-112.48 1763,-112 1900.22,-89.59 1939.37,-101.22 2079.87,-75.98"/>
<polygon fill="midnightblue" stroke="midnightblue" points="2080.51,-79.42 2089.71,-74.18 2079.25,-72.53 2080.51,-79.42"/>
</g>
<!-- Node30 -->
<g id="node30" class="node">
<title>Node30</title>
<g id="a_node30"><a xlink:href="../../da/d1b/source_8h.html" target="_top" xlink:title=" ">
<polygon fill="white" stroke="black" points="2160,-56.5 2160,-75.5 2218,-75.5 2218,-56.5 2160,-56.5"/>
<text text-anchor="middle" x="2189" y="-63.5" font-family="Helvetica,sans-Serif" font-size="10.00">source.h</text>
</a>
</g>
</g>
<!-- Node2&#45;&gt;Node30 -->
<g id="edge29" class="edge">
<title>Node2&#45;&gt;Node30</title>
<path fill="none" stroke="midnightblue" d="M1753.95,-113.55C1757,-112.98 1760.05,-112.45 1763,-112 1930.93,-86.31 1978.3,-103.35 2149.51,-76.03"/>
<polygon fill="midnightblue" stroke="midnightblue" points="2150.31,-79.44 2159.62,-74.39 2149.19,-72.53 2150.31,-79.44"/>
</g>
<!-- Node31 -->
<g id="node31" class="node">
<title>Node31</title>
<g id="a_node31"><a xlink:href="../../dd/d6a/outputq_8h.html" target="_top" xlink:title=" ">
<polygon fill="white" stroke="black" points="2236.5,-56.5 2236.5,-75.5 2299.5,-75.5 2299.5,-56.5 2236.5,-56.5"/>
<text text-anchor="middle" x="2268" y="-63.5" font-family="Helvetica,sans-Serif" font-size="10.00">outputq.h</text>
</a>
</g>
</g>
<!-- Node2&#45;&gt;Node31 -->
<g id="edge30" class="edge">
<title>Node2&#45;&gt;Node31</title>
<path fill="none" stroke="midnightblue" d="M1753.94,-113.51C1756.99,-112.94 1760.05,-112.43 1763,-112 1964.5,-82.73 2020.64,-105.51 2226.38,-75.87"/>
<polygon fill="midnightblue" stroke="midnightblue" points="2226.91,-79.33 2236.3,-74.41 2225.89,-72.4 2226.91,-79.33"/>
</g>
<!-- Node32 -->
<g id="node32" class="node">
<title>Node32</title>
<g id="a_node32"><a xlink:title=" ">
<polygon fill="white" stroke="#bfbfbf" points="2318,-56.5 2318,-75.5 2372,-75.5 2372,-56.5 2318,-56.5"/>
<text text-anchor="middle" x="2345" y="-63.5" font-family="Helvetica,sans-Serif" font-size="10.00">errors.h</text>
</a>
</g>
</g>
<!-- Node2&#45;&gt;Node32 -->
<g id="edge31" class="edge">
<title>Node2&#45;&gt;Node32</title>
<path fill="none" stroke="midnightblue" d="M1753.93,-113.47C1756.99,-112.91 1760.05,-112.41 1763,-112 2000.57,-78.89 2066.93,-112.69 2307.86,-75.88"/>
<polygon fill="midnightblue" stroke="midnightblue" points="2308.64,-79.3 2317.98,-74.31 2307.56,-72.38 2308.64,-79.3"/>
</g>
<!-- Node33 -->
<g id="node33" class="node">
<title>Node33</title>
<g id="a_node33"><a xlink:href="../../d3/dff/renbase_8h.html" target="_top" xlink:title=" ">
<polygon fill="white" stroke="black" points="2390.5,-56.5 2390.5,-75.5 2455.5,-75.5 2455.5,-56.5 2390.5,-56.5"/>
<text text-anchor="middle" x="2423" y="-63.5" font-family="Helvetica,sans-Serif" font-size="10.00">renbase.h</text>
</a>
</g>
</g>
<!-- Node2&#45;&gt;Node33 -->
<g id="edge32" class="edge">
<title>Node2&#45;&gt;Node33</title>
<path fill="none" stroke="midnightblue" d="M1753.93,-113.45C1756.99,-112.9 1760.04,-112.4 1763,-112 2032.31,-75.52 2106.55,-112.02 2379.84,-75.93"/>
<polygon fill="midnightblue" stroke="midnightblue" points="2380.62,-79.35 2390.07,-74.55 2379.69,-72.42 2380.62,-79.35"/>
</g>
<!-- Node34 -->
<g id="node34" class="node">
<title>Node34</title>
<g id="a_node34"><a xlink:href="../../df/d97/winutil_8h.html" target="_top" xlink:title=" ">
<polygon fill="white" stroke="black" points="2473.5,-56.5 2473.5,-75.5 2532.5,-75.5 2532.5,-56.5 2473.5,-56.5"/>
<text text-anchor="middle" x="2503" y="-63.5" font-family="Helvetica,sans-Serif" font-size="10.00">winutil.h</text>
</a>
</g>
</g>
<!-- Node2&#45;&gt;Node34 -->
<g id="edge33" class="edge">
<title>Node2&#45;&gt;Node34</title>
<path fill="none" stroke="midnightblue" d="M1753.93,-113.42C1756.98,-112.88 1760.04,-112.39 1763,-112 2069.4,-71.58 2153.92,-119.14 2463.08,-76.03"/>
<polygon fill="midnightblue" stroke="midnightblue" points="2463.82,-79.46 2473.23,-74.59 2462.84,-72.53 2463.82,-79.46"/>
</g>
<!-- Node35 -->
<g id="node35" class="node">
<title>Node35</title>
<g id="a_node35"><a xlink:href="../../d3/d6c/winctrl_8h.html" target="_top" xlink:title=" ">
<polygon fill="white" stroke="black" points="2550.5,-56.5 2550.5,-75.5 2609.5,-75.5 2609.5,-56.5 2550.5,-56.5"/>
<text text-anchor="middle" x="2580" y="-63.5" font-family="Helvetica,sans-Serif" font-size="10.00">winctrl.h</text>
</a>
</g>
</g>
<!-- Node2&#45;&gt;Node35 -->
<g id="edge34" class="edge">
<title>Node2&#45;&gt;Node35</title>
<path fill="none" stroke="midnightblue" d="M1753.93,-113.41C1756.98,-112.87 1760.04,-112.38 1763,-112 2103.46,-67.96 2196.99,-123.08 2540.26,-75.99"/>
<polygon fill="midnightblue" stroke="midnightblue" points="2540.81,-79.45 2550.23,-74.6 2539.84,-72.52 2540.81,-79.45"/>
</g>
<!-- Node36 -->
<g id="node36" class="node">
<title>Node36</title>
<g id="a_node36"><a xlink:href="../../d2/d6a/videoctl_8h.html" target="_top" xlink:title=" ">
<polygon fill="white" stroke="black" points="2627.5,-56.5 2627.5,-75.5 2692.5,-75.5 2692.5,-56.5 2627.5,-56.5"/>
<text text-anchor="middle" x="2660" y="-63.5" font-family="Helvetica,sans-Serif" font-size="10.00">videoctl.h</text>
</a>
</g>
</g>
<!-- Node2&#45;&gt;Node36 -->
<g id="edge35" class="edge">
<title>Node2&#45;&gt;Node36</title>
<path fill="none" stroke="midnightblue" d="M1753.92,-113.39C1756.98,-112.86 1760.04,-112.38 1763,-112 2137.42,-64.36 2239.6,-123.94 2617.3,-75.99"/>
<polygon fill="midnightblue" stroke="midnightblue" points="2617.94,-79.44 2627.42,-74.69 2617.05,-72.49 2617.94,-79.44"/>
</g>
<!-- Node37 -->
<g id="node37" class="node">
<title>Node37</title>
<g id="a_node37"><a xlink:href="../../d3/d40/refclock_8h.html" target="_top" xlink:title=" ">
<polygon fill="white" stroke="black" points="2710.5,-56.5 2710.5,-75.5 2775.5,-75.5 2775.5,-56.5 2710.5,-56.5"/>
<text text-anchor="middle" x="2743" y="-63.5" font-family="Helvetica,sans-Serif" font-size="10.00">refclock.h</text>
</a>
</g>
</g>
<!-- Node2&#45;&gt;Node37 -->
<g id="edge36" class="edge">
<title>Node2&#45;&gt;Node37</title>
<path fill="none" stroke="midnightblue" d="M1753.92,-113.38C1756.98,-112.85 1760.04,-112.37 1763,-112 2174.06,-60.47 2285.94,-127.88 2700.26,-75.99"/>
<polygon fill="midnightblue" stroke="midnightblue" points="2700.94,-79.43 2710.42,-74.7 2700.06,-72.49 2700.94,-79.43"/>
</g>
<!-- Node39 -->
<g id="node39" class="node">
<title>Node39</title>
<g id="a_node39"><a xlink:href="../../d8/d25/sysclock_8h.html" target="_top" xlink:title=" ">
<polygon fill="white" stroke="black" points="2794,-56.5 2794,-75.5 2862,-75.5 2862,-56.5 2794,-56.5"/>
<text text-anchor="middle" x="2828" y="-63.5" font-family="Helvetica,sans-Serif" font-size="10.00">sysclock.h</text>
</a>
</g>
</g>
<!-- Node2&#45;&gt;Node39 -->
<g id="edge38" class="edge">
<title>Node2&#45;&gt;Node39</title>
<path fill="none" stroke="midnightblue" d="M1753.92,-113.37C1756.98,-112.84 1760.04,-112.37 1763,-112 2210.76,-56.58 2332.03,-129.67 2783.77,-75.92"/>
<polygon fill="midnightblue" stroke="midnightblue" points="2784.31,-79.37 2793.82,-74.7 2783.47,-72.43 2784.31,-79.37"/>
</g>
<!-- Node40 -->
<g id="node40" class="node">
<title>Node40</title>
<g id="a_node40"><a xlink:href="../../d9/da3/pstream_8h.html" target="_top" xlink:title=" ">
<polygon fill="white" stroke="black" points="2880,-56.5 2880,-75.5 2946,-75.5 2946,-56.5 2880,-56.5"/>
<text text-anchor="middle" x="2913" y="-63.5" font-family="Helvetica,sans-Serif" font-size="10.00">pstream.h</text>
</a>
</g>
</g>
<!-- Node2&#45;&gt;Node40 -->
<g id="edge39" class="edge">
<title>Node2&#45;&gt;Node40</title>
<path fill="none" stroke="midnightblue" d="M1753.92,-113.36C1756.98,-112.83 1760.04,-112.36 1763,-112 2248.71,-52.55 2380.15,-134.72 2869.47,-75.95"/>
<polygon fill="midnightblue" stroke="midnightblue" points="2870.12,-79.4 2879.62,-74.72 2869.27,-72.45 2870.12,-79.4"/>
</g>
<!-- Node41 -->
<g id="node41" class="node">
<title>Node41</title>
<g id="a_node41"><a xlink:href="../../d6/da9/vtrans_8h.html" target="_top" xlink:title=" ">
<polygon fill="white" stroke="black" points="2964,-56.5 2964,-75.5 3020,-75.5 3020,-56.5 2964,-56.5"/>
<text text-anchor="middle" x="2992" y="-63.5" font-family="Helvetica,sans-Serif" font-size="10.00">vtrans.h</text>
</a>
</g>
</g>
<!-- Node2&#45;&gt;Node41 -->
<g id="edge40" class="edge">
<title>Node2&#45;&gt;Node41</title>
<path fill="none" stroke="midnightblue" d="M1753.92,-113.36C1756.98,-112.83 1760.04,-112.36 1763,-112 2285.83,-48.62 2427.96,-145.77 2953.71,-75.85"/>
<polygon fill="midnightblue" stroke="midnightblue" points="2954.39,-79.29 2963.83,-74.49 2953.46,-72.36 2954.39,-79.29"/>
</g>
<!-- Node42 -->
<g id="node42" class="node">
<title>Node42</title>
<g id="a_node42"><a xlink:href="../../d9/d09/amextra_8h.html" target="_top" xlink:title=" ">
<polygon fill="white" stroke="black" points="3038.5,-56.5 3038.5,-75.5 3105.5,-75.5 3105.5,-56.5 3038.5,-56.5"/>
<text text-anchor="middle" x="3072" y="-63.5" font-family="Helvetica,sans-Serif" font-size="10.00">amextra.h</text>
</a>
</g>
</g>
<!-- Node2&#45;&gt;Node42 -->
<g id="edge41" class="edge">
<title>Node2&#45;&gt;Node42</title>
<path fill="none" stroke="midnightblue" d="M1753.92,-113.35C1756.98,-112.82 1760.04,-112.36 1763,-112 2318.59,-45.14 2468.23,-140.79 3028.35,-75.81"/>
<polygon fill="midnightblue" stroke="midnightblue" points="3028.77,-79.29 3038.29,-74.65 3027.95,-72.33 3028.77,-79.29"/>
</g>
<!-- Node43 -->
<g id="node43" class="node">
<title>Node43</title>
<g id="a_node43"><a xlink:href="../../d4/dcd/cprop_8h.html" target="_top" xlink:title=" ">
<polygon fill="white" stroke="black" points="3123.5,-56.5 3123.5,-75.5 3176.5,-75.5 3176.5,-56.5 3123.5,-56.5"/>
<text text-anchor="middle" x="3150" y="-63.5" font-family="Helvetica,sans-Serif" font-size="10.00">cprop.h</text>
</a>
</g>
</g>
<!-- Node2&#45;&gt;Node43 -->
<g id="edge42" class="edge">
<title>Node2&#45;&gt;Node43</title>
<path fill="none" stroke="midnightblue" d="M1753.92,-113.35C1756.98,-112.82 1760.04,-112.35 1763,-112 2356.51,-41.12 2517.9,-158.05 3113.24,-75.92"/>
<polygon fill="midnightblue" stroke="midnightblue" points="3113.95,-79.35 3123.37,-74.51 3112.98,-72.42 3113.95,-79.35"/>
</g>
<!-- Node44 -->
<g id="node44" class="node">
<title>Node44</title>
<g id="a_node44"><a xlink:href="../../d9/da4/strmctl_8h.html" target="_top" xlink:title=" ">
<polygon fill="white" stroke="black" points="3195,-56.5 3195,-75.5 3255,-75.5 3255,-56.5 3195,-56.5"/>
<text text-anchor="middle" x="3225" y="-63.5" font-family="Helvetica,sans-Serif" font-size="10.00">strmctl.h</text>
</a>
</g>
</g>
<!-- Node2&#45;&gt;Node44 -->
<g id="edge43" class="edge">
<title>Node2&#45;&gt;Node44</title>
<path fill="none" stroke="midnightblue" d="M1753.92,-113.34C1756.98,-112.81 1760.04,-112.35 1763,-112 2387.86,-37.8 2556.56,-154.27 3184.66,-75.87"/>
<polygon fill="midnightblue" stroke="midnightblue" points="3185.39,-79.31 3194.87,-74.58 3184.52,-72.36 3185.39,-79.31"/>
</g>
<!-- Node45 -->
<g id="node45" class="node">
<title>Node45</title>
<g id="a_node45"><a xlink:title=" ">
<polygon fill="white" stroke="#bfbfbf" points="3273.5,-56.5 3273.5,-75.5 3344.5,-75.5 3344.5,-56.5 3273.5,-56.5"/>
<text text-anchor="middle" x="3309" y="-63.5" font-family="Helvetica,sans-Serif" font-size="10.00">edevdefs.h</text>
</a>
</g>
</g>
<!-- Node2&#45;&gt;Node45 -->
<g id="edge44" class="edge">
<title>Node2&#45;&gt;Node45</title>
<path fill="none" stroke="midnightblue" d="M1753.92,-113.34C1756.98,-112.81 1760.04,-112.35 1763,-112 2422.3,-34.15 2598.97,-148.53 3262.92,-75.87"/>
<polygon fill="midnightblue" stroke="midnightblue" points="3263.67,-79.31 3273.23,-74.74 3262.9,-72.36 3263.67,-79.31"/>
</g>
<!-- Node46 -->
<g id="node46" class="node">
<title>Node46</title>
<g id="a_node46"><a xlink:title=" ">
<polygon fill="white" stroke="#bfbfbf" points="3362.5,-56.5 3362.5,-75.5 3435.5,-75.5 3435.5,-56.5 3362.5,-56.5"/>
<text text-anchor="middle" x="3399" y="-63.5" font-family="Helvetica,sans-Serif" font-size="10.00">audevcod.h</text>
</a>
</g>
</g>
<!-- Node2&#45;&gt;Node46 -->
<g id="edge45" class="edge">
<title>Node2&#45;&gt;Node46</title>
<path fill="none" stroke="midnightblue" d="M1753.92,-113.33C1756.98,-112.81 1760.04,-112.35 1763,-112 2462.12,-29.93 2649.21,-152.47 3352.12,-76.01"/>
<polygon fill="midnightblue" stroke="midnightblue" points="3352.69,-79.47 3362.24,-74.89 3351.92,-72.51 3352.69,-79.47"/>
</g>
<!-- Node38 -->
<g id="node38" class="node">
<title>Node38</title>
<g id="a_node38"><a xlink:href="../../de/d6b/schedule_8h.html" target="_top" xlink:title=" ">
<polygon fill="white" stroke="black" points="2708,-0.5 2708,-19.5 2778,-19.5 2778,-0.5 2708,-0.5"/>
<text text-anchor="middle" x="2743" y="-7.5" font-family="Helvetica,sans-Serif" font-size="10.00">Schedule.h</text>
</a>
</g>
</g>
<!-- Node37&#45;&gt;Node38 -->
<g id="edge37" class="edge">
<title>Node37&#45;&gt;Node38</title>
<path fill="none" stroke="midnightblue" d="M2743,-56.08C2743,-49.01 2743,-38.86 2743,-29.99"/>
<polygon fill="midnightblue" stroke="midnightblue" points="2746.5,-29.75 2743,-19.75 2739.5,-29.75 2746.5,-29.75"/>
</g>
</g>
</svg>
        <g id="navigator" transform="translate(0 0)" fill="#404254">
                <rect fill="#f2f5e9" fill-opacity="0.5" stroke="#606060" stroke-width=".5" x="0" y="0" width="60" height="60"/>
                <use id="zoomplus" xlink:href="#zoomPlus" x="17" y="9" onmousedown="handleZoom(evt,'in')"/>
                <use id="zoomminus" xlink:href="#zoomMin" x="42" y="9" onmousedown="handleZoom(evt,'out')"/>
                <use id="reset" xlink:href="#resetDef" x="30" y="36" onmousedown="handleReset()"/>
                <g id="arrowUp" xlink:href="#dirArrow" transform="translate(30 24)" onmousedown="handlePan(0,-1)">
                  <use xlink:href="#rim" fill="#404040">
                        <set attributeName="fill" to="#808080" begin="arrowUp.mouseover" end="arrowUp.mouseout"/>
                  </use>
                  <path fill="none" stroke="white" stroke-width="1.5" d="M0,-3.0v7 M-2.5,-0.5L0,-3.0L2.5,-0.5"/>
                </g>
                <g id="arrowRight" xlink:href="#dirArrow" transform="rotate(90) translate(36 -43)" onmousedown="handlePan(1,0)">
                  <use xlink:href="#rim" fill="#404040">
                        <set attributeName="fill" to="#808080" begin="arrowRight.mouseover" end="arrowRight.mouseout"/>
                  </use>
                  <path fill="none" stroke="white" stroke-width="1.5" d="M0,-3.0v7 M-2.5,-0.5L0,-3.0L2.5,-0.5"/>
                </g>
                <g id="arrowDown" xlink:href="#dirArrow" transform="rotate(180) translate(-30 -48)" onmousedown="handlePan(0,1)">
                  <use xlink:href="#rim" fill="#404040">
                        <set attributeName="fill" to="#808080" begin="arrowDown.mouseover" end="arrowDown.mouseout"/>
                  </use>
                  <path fill="none" stroke="white" stroke-width="1.5" d="M0,-3.0v7 M-2.5,-0.5L0,-3.0L2.5,-0.5"/>
                </g>
                <g id="arrowLeft" xlink:href="#dirArrow" transform="rotate(270) translate(-36 17)" onmousedown="handlePan(-1,0)">
                  <use xlink:href="#rim" fill="#404040">
                        <set attributeName="fill" to="#808080" begin="arrowLeft.mouseover" end="arrowLeft.mouseout"/>
                  </use>
                  <path fill="none" stroke="white" stroke-width="1.5" d="M0,-3.0v7 M-2.5,-0.5L0,-3.0L2.5,-0.5"/>
                </g>
        </g>
        <svg viewBox="0 0 15 15" width="100%" height="30px" preserveAspectRatio="xMaxYMin meet">
         <g id="arrow_out" transform="scale(0.3 0.3)">
          <a xlink:href="dllentry_8cpp__incl_org.svg" target="_base">
           <rect id="button" ry="5" rx="5" y="6" x="6" height="38" width="38"
                fill="#f2f5e9" fill-opacity="0.5" stroke="#606060" stroke-width="1.0"/>
           <path id="arrow"
             d="M 11.500037,31.436501 C 11.940474,20.09759 22.043105,11.32322 32.158766,21.979434 L 37.068811,17.246167 C 37.068811,17.246167 37.088388,32 37.088388,32 L 22.160133,31.978069 C 22.160133,31.978069 26.997745,27.140456 26.997745,27.140456 C 18.528582,18.264221 13.291696,25.230495 11.500037,31.436501 z"
             style="fill:#404040;"/>
          </a>
         </g>
        </svg>
</svg>
