<?xml version="1.0" encoding="UTF-8" standalone="no"?>
<!DOCTYPE svg PUBLIC "-//W3C//DTD SVG 1.1//EN"
 "http://www.w3.org/Graphics/SVG/1.1/DTD/svg11.dtd">
<!-- Generated by graphviz version 2.40.1 (0)
 -->
<!-- Title: /home/tcbuilder/buildAgent/work/df8e8cce5bebfd58/libajantv2/ajantv2/includes/ntv2verticalfilter.h Pages: 1 -->
<svg width="311pt" height="218pt"
 viewBox="0.00 0.00 311.00 218.00" xmlns="http://www.w3.org/2000/svg" xmlns:xlink="http://www.w3.org/1999/xlink">
<g id="graph0" class="graph" transform="scale(1 1) rotate(0) translate(4 214)">
<title>/home/tcbuilder/buildAgent/work/df8e8cce5bebfd58/libajantv2/ajantv2/includes/ntv2verticalfilter.h</title>
<polygon fill="#ffffff" stroke="transparent" points="-4,4 -4,-214 307,-214 307,4 -4,4"/>
<!-- Node0 -->
<g id="node1" class="node">
<title>Node0</title>
<polygon fill="#bfbfbf" stroke="#000000" points="46.5,-168.5 46.5,-209.5 216.5,-209.5 216.5,-168.5 46.5,-168.5"/>
<text text-anchor="start" x="54.5" y="-197.5" font-family="Helvetica,sans-Serif" font-size="10.00" fill="#000000">/home/tcbuilder/buildAgent</text>
<text text-anchor="start" x="54.5" y="-186.5" font-family="Helvetica,sans-Serif" font-size="10.00" fill="#000000">/work/df8e8cce5bebfd58/libajantv2</text>
<text text-anchor="middle" x="131.5" y="-175.5" font-family="Helvetica,sans-Serif" font-size="10.00" fill="#000000">/ajantv2/includes/ntv2verticalfilter.h</text>
</g>
<!-- Node1 -->
<g id="node2" class="node">
<title>Node1</title>
<g id="a_node2"><a xlink:href="../../d6/dd9/ajaexport_8h.html" target="_top" xlink:title="Defines the import/export macros for producing DLLs or LIBs. ">
<polygon fill="#ffffff" stroke="#000000" points="0,-112.5 0,-131.5 65,-131.5 65,-112.5 0,-112.5"/>
<text text-anchor="middle" x="32.5" y="-119.5" font-family="Helvetica,sans-Serif" font-size="10.00" fill="#000000">ajaexport.h</text>
</a>
</g>
</g>
<!-- Node0&#45;&gt;Node1 -->
<g id="edge1" class="edge">
<title>Node0&#45;&gt;Node1</title>
<path fill="none" stroke="#191970" d="M100.9889,-168.3511C86.1686,-158.3212 68.6715,-146.4797 55.0722,-137.2762"/>
<polygon fill="#191970" stroke="#191970" points="57.0092,-134.3609 46.7658,-131.6546 53.0858,-140.1581 57.0092,-134.3609"/>
</g>
<!-- Node2 -->
<g id="node3" class="node">
<title>Node2</title>
<g id="a_node3"><a xlink:href="../../db/de2/ajatypes_8h.html" target="_top" xlink:title="Declares the most fundamental data types used by NTV2. Since Windows NT was the first principal devel...">
<polygon fill="#ffffff" stroke="#000000" points="139.5,-56.5 139.5,-75.5 201.5,-75.5 201.5,-56.5 139.5,-56.5"/>
<text text-anchor="middle" x="170.5" y="-63.5" font-family="Helvetica,sans-Serif" font-size="10.00" fill="#000000">ajatypes.h</text>
</a>
</g>
</g>
<!-- Node0&#45;&gt;Node2 -->
<g id="edge2" class="edge">
<title>Node0&#45;&gt;Node2</title>
<path fill="none" stroke="#191970" d="M118.9821,-168.2636C111.0626,-152.2917 103.8134,-129.9763 112.5,-112 118.7828,-98.9981 130.7235,-88.5481 142.1451,-80.9145"/>
<polygon fill="#191970" stroke="#191970" points="144.0177,-83.8718 150.6759,-75.6305 140.3316,-77.9209 144.0177,-83.8718"/>
</g>
<!-- Node5 -->
<g id="node6" class="node">
<title>Node5</title>
<g id="a_node6"><a xlink:href="../../d9/d61/ntv2videodefines_8h.html" target="_top" xlink:title="Declares common video macros and structs used in the SDK. ">
<polygon fill="#ffffff" stroke="#000000" points="121.5,-112.5 121.5,-131.5 219.5,-131.5 219.5,-112.5 121.5,-112.5"/>
<text text-anchor="middle" x="170.5" y="-119.5" font-family="Helvetica,sans-Serif" font-size="10.00" fill="#000000">ntv2videodefines.h</text>
</a>
</g>
</g>
<!-- Node0&#45;&gt;Node5 -->
<g id="edge5" class="edge">
<title>Node0&#45;&gt;Node5</title>
<path fill="none" stroke="#191970" d="M143.6261,-168.168C148.7599,-159.3484 154.6934,-149.155 159.677,-140.5933"/>
<polygon fill="#191970" stroke="#191970" points="162.801,-142.1837 164.8069,-131.7805 156.7513,-138.6622 162.801,-142.1837"/>
</g>
<!-- Node6 -->
<g id="node7" class="node">
<title>Node6</title>
<g id="a_node7"><a xlink:href="../../d6/dcc/ntv2fixed_8h.html" target="_top" xlink:title="Declares several fixed&#45;point math routines. Assumes 16&#45;bit fraction. ">
<polygon fill="#ffffff" stroke="#000000" points="238,-112.5 238,-131.5 303,-131.5 303,-112.5 238,-112.5"/>
<text text-anchor="middle" x="270.5" y="-119.5" font-family="Helvetica,sans-Serif" font-size="10.00" fill="#000000">ntv2fixed.h</text>
</a>
</g>
</g>
<!-- Node0&#45;&gt;Node6 -->
<g id="edge7" class="edge">
<title>Node0&#45;&gt;Node6</title>
<path fill="none" stroke="#191970" d="M174.3388,-168.3511C196.0389,-157.8913 221.8264,-145.4614 241.2317,-136.1077"/>
<polygon fill="#191970" stroke="#191970" points="242.9818,-139.1496 250.4702,-131.6546 239.9423,-132.8439 242.9818,-139.1496"/>
</g>
<!-- Node3 -->
<g id="node4" class="node">
<title>Node3</title>
<g id="a_node4"><a xlink:href="../../db/d40/ntv2deprecate_8h.html" target="_top" xlink:title="Deprecation control macros. ">
<polygon fill="#ffffff" stroke="#000000" points="84.5,-.5 84.5,-19.5 170.5,-19.5 170.5,-.5 84.5,-.5"/>
<text text-anchor="middle" x="127.5" y="-7.5" font-family="Helvetica,sans-Serif" font-size="10.00" fill="#000000">ntv2deprecate.h</text>
</a>
</g>
</g>
<!-- Node2&#45;&gt;Node3 -->
<g id="edge3" class="edge">
<title>Node2&#45;&gt;Node3</title>
<path fill="none" stroke="#191970" d="M163.01,-56.2455C156.9674,-48.3761 148.3097,-37.101 141.0559,-27.6542"/>
<polygon fill="#191970" stroke="#191970" points="143.7705,-25.4426 134.9042,-19.6427 138.2185,-29.7058 143.7705,-25.4426"/>
</g>
<!-- Node4 -->
<g id="node5" class="node">
<title>Node4</title>
<polygon fill="#ffffff" stroke="#bfbfbf" points="189,-.5 189,-19.5 238,-19.5 238,-.5 189,-.5"/>
<text text-anchor="middle" x="213.5" y="-7.5" font-family="Helvetica,sans-Serif" font-size="10.00" fill="#000000">stdint.h</text>
</g>
<!-- Node2&#45;&gt;Node4 -->
<g id="edge4" class="edge">
<title>Node2&#45;&gt;Node4</title>
<path fill="none" stroke="#191970" d="M177.99,-56.2455C184.0326,-48.3761 192.6903,-37.101 199.9441,-27.6542"/>
<polygon fill="#191970" stroke="#191970" points="202.7815,-29.7058 206.0958,-19.6427 197.2295,-25.4426 202.7815,-29.7058"/>
</g>
<!-- Node5&#45;&gt;Node2 -->
<g id="edge6" class="edge">
<title>Node5&#45;&gt;Node2</title>
<path fill="none" stroke="#191970" d="M170.5,-112.2455C170.5,-104.9382 170.5,-94.6944 170.5,-85.7046"/>
<polygon fill="#191970" stroke="#191970" points="174.0001,-85.6426 170.5,-75.6427 167.0001,-85.6427 174.0001,-85.6426"/>
</g>
<!-- Node6&#45;&gt;Node2 -->
<g id="edge8" class="edge">
<title>Node6&#45;&gt;Node2</title>
<path fill="none" stroke="#191970" d="M253.0813,-112.2455C237.4515,-103.4928 214.2981,-90.527 196.4815,-80.5496"/>
<polygon fill="#191970" stroke="#191970" points="198.1543,-77.475 187.7191,-75.6427 194.734,-83.5825 198.1543,-77.475"/>
</g>
</g>
</svg>
