<?xml version="1.0" encoding="UTF-8" standalone="no"?>
<!DOCTYPE svg PUBLIC "-//W3C//DTD SVG 1.1//EN"
 "http://www.w3.org/Graphics/SVG/1.1/DTD/svg11.dtd">
<!-- Generated by graphviz version 2.43.0 (0)
 -->
<!-- Title: CDrawImage Pages: 1 -->
<svg width="321pt" height="184pt"
 viewBox="0.00 0.00 320.50 184.00" xmlns="http://www.w3.org/2000/svg" xmlns:xlink="http://www.w3.org/1999/xlink">
<g id="graph0" class="graph" transform="scale(1 1) rotate(0) translate(4 180)">
<title>CDrawImage</title>
<polygon fill="white" stroke="transparent" points="-4,4 -4,-180 316.5,-180 316.5,4 -4,4"/>
<!-- Node1 -->
<g id="node1" class="node">
<title>Node1</title>
<g id="a_node1"><a xlink:title=" ">
<polygon fill="#bfbfbf" stroke="black" points="91.5,-0.5 91.5,-19.5 171.5,-19.5 171.5,-0.5 91.5,-0.5"/>
<text text-anchor="middle" x="131.5" y="-7.5" font-family="Helvetica,sans-Serif" font-size="10.00">CDrawImage</text>
</a>
</g>
</g>
<!-- Node2 -->
<g id="node2" class="node">
<title>Node2</title>
<g id="a_node2"><a xlink:href="../../dc/da7/class_c_ref_time.html" target="_top" xlink:title=" ">
<polygon fill="white" stroke="black" points="0,-78.5 0,-97.5 65,-97.5 65,-78.5 0,-78.5"/>
<text text-anchor="middle" x="32.5" y="-85.5" font-family="Helvetica,sans-Serif" font-size="10.00">CRefTime</text>
</a>
</g>
</g>
<!-- Node2&#45;&gt;Node1 -->
<g id="edge1" class="edge">
<title>Node2&#45;&gt;Node1</title>
<path fill="none" stroke="#9a32cd" stroke-dasharray="5,2" d="M35.78,-68.15C38.44,-58 43.17,-45.97 51.5,-38 62.3,-27.66 77.2,-21.28 91.21,-17.34"/>
<polygon fill="#9a32cd" stroke="#9a32cd" points="32.31,-67.63 33.63,-78.14 39.15,-69.1 32.31,-67.63"/>
<text text-anchor="middle" x="89.5" y="-52" font-family="Helvetica,sans-Serif" font-size="10.00"> m_EndSample</text>
<text text-anchor="middle" x="89.5" y="-41" font-family="Helvetica,sans-Serif" font-size="10.00">m_StartSample</text>
</g>
<!-- Node3 -->
<g id="node3" class="node">
<title>Node3</title>
<g id="a_node3"><a xlink:href="../../d7/da7/class_c_media_type.html" target="_top" xlink:title=" ">
<polygon fill="white" stroke="black" points="93.5,-78.5 93.5,-97.5 169.5,-97.5 169.5,-78.5 93.5,-78.5"/>
<text text-anchor="middle" x="131.5" y="-85.5" font-family="Helvetica,sans-Serif" font-size="10.00">CMediaType</text>
</a>
</g>
</g>
<!-- Node3&#45;&gt;Node1 -->
<g id="edge2" class="edge">
<title>Node3&#45;&gt;Node1</title>
<path fill="none" stroke="#9a32cd" stroke-dasharray="5,2" d="M131.5,-68.22C131.5,-52.7 131.5,-31.36 131.5,-19.62"/>
<polygon fill="#9a32cd" stroke="#9a32cd" points="128,-68.28 131.5,-78.28 135,-68.28 128,-68.28"/>
<text text-anchor="middle" x="170" y="-46.5" font-family="Helvetica,sans-Serif" font-size="10.00"> m_pMediaType</text>
</g>
<!-- Node4 -->
<g id="node4" class="node">
<title>Node4</title>
<g id="a_node4"><a xlink:title=" ">
<polygon fill="white" stroke="#bfbfbf" points="86.5,-156.5 86.5,-175.5 176.5,-175.5 176.5,-156.5 86.5,-156.5"/>
<text text-anchor="middle" x="131.5" y="-163.5" font-family="Helvetica,sans-Serif" font-size="10.00">_AMMediaType</text>
</a>
</g>
</g>
<!-- Node4&#45;&gt;Node3 -->
<g id="edge3" class="edge">
<title>Node4&#45;&gt;Node3</title>
<path fill="none" stroke="midnightblue" d="M131.5,-146.22C131.5,-130.7 131.5,-109.36 131.5,-97.62"/>
<polygon fill="midnightblue" stroke="midnightblue" points="128,-146.28 131.5,-156.28 135,-146.28 128,-146.28"/>
</g>
<!-- Node5 -->
<g id="node5" class="node">
<title>Node5</title>
<g id="a_node5"><a xlink:href="../../db/dbd/class_c_base_window.html" target="_top" xlink:title=" ">
<polygon fill="white" stroke="black" points="188.5,-78.5 188.5,-97.5 274.5,-97.5 274.5,-78.5 188.5,-78.5"/>
<text text-anchor="middle" x="231.5" y="-85.5" font-family="Helvetica,sans-Serif" font-size="10.00">CBaseWindow</text>
</a>
</g>
</g>
<!-- Node5&#45;&gt;Node1 -->
<g id="edge4" class="edge">
<title>Node5&#45;&gt;Node1</title>
<path fill="none" stroke="#9a32cd" stroke-dasharray="5,2" d="M227.08,-68.46C223.78,-58.24 218.28,-46.04 209.5,-38 199.03,-28.42 185,-22.22 171.72,-18.2"/>
<polygon fill="#9a32cd" stroke="#9a32cd" points="223.72,-69.44 229.77,-78.13 230.46,-67.56 223.72,-69.44"/>
<text text-anchor="middle" x="268.5" y="-46.5" font-family="Helvetica,sans-Serif" font-size="10.00"> m_pBaseWindow</text>
</g>
<!-- Node6 -->
<g id="node6" class="node">
<title>Node6</title>
<g id="a_node6"><a xlink:href="../../d5/d24/class_c_crit_sec.html" target="_top" xlink:title=" ">
<polygon fill="white" stroke="black" points="202.5,-156.5 202.5,-175.5 260.5,-175.5 260.5,-156.5 202.5,-156.5"/>
<text text-anchor="middle" x="231.5" y="-163.5" font-family="Helvetica,sans-Serif" font-size="10.00">CCritSec</text>
</a>
</g>
</g>
<!-- Node6&#45;&gt;Node5 -->
<g id="edge5" class="edge">
<title>Node6&#45;&gt;Node5</title>
<path fill="none" stroke="#9a32cd" stroke-dasharray="5,2" d="M231.5,-146.22C231.5,-130.7 231.5,-109.36 231.5,-97.62"/>
<polygon fill="#9a32cd" stroke="#9a32cd" points="228,-146.28 231.5,-156.28 235,-146.28 228,-146.28"/>
<text text-anchor="middle" x="270" y="-130" font-family="Helvetica,sans-Serif" font-size="10.00"> m_PaletteLock</text>
<text text-anchor="middle" x="270" y="-119" font-family="Helvetica,sans-Serif" font-size="10.00">m_WindowLock</text>
</g>
</g>
</svg>
