<?xml version="1.0" encoding="UTF-8" standalone="no"?>
<!DOCTYPE svg PUBLIC "-//W3C//DTD SVG 1.1//EN"
 "http://www.w3.org/Graphics/SVG/1.1/DTD/svg11.dtd">
<!-- Generated by graphviz version 2.43.0 (0)
 -->
<!-- Title: KSPROPERTY_AJAPROPS_AUTOCIRC_TRANSFER_EX2_S_32 Pages: 1 -->
<svg width="1299pt" height="307pt"
 viewBox="0.00 0.00 1299.00 307.00" xmlns="http://www.w3.org/2000/svg" xmlns:xlink="http://www.w3.org/1999/xlink">
<g id="graph0" class="graph" transform="scale(1 1) rotate(0) translate(4 303)">
<title>KSPROPERTY_AJAPROPS_AUTOCIRC_TRANSFER_EX2_S_32</title>
<polygon fill="white" stroke="transparent" points="-4,4 -4,-303 1295,-303 1295,4 -4,4"/>
<!-- Node1 -->
<g id="node1" class="node">
<title>Node1</title>
<g id="a_node1"><a xlink:title=" ">
<polygon fill="#bfbfbf" stroke="black" points="1109,-122 1109,-152 1291,-152 1291,-122 1109,-122"/>
<text text-anchor="start" x="1117" y="-140" font-family="Helvetica,sans-Serif" font-size="10.00">KSPROPERTY_AJAPROPS</text>
<text text-anchor="middle" x="1200" y="-129" font-family="Helvetica,sans-Serif" font-size="10.00">_AUTOCIRC_TRANSFER_EX2_S_32</text>
</a>
</g>
</g>
<!-- Node2 -->
<g id="node2" class="node">
<title>Node2</title>
<g id="a_node2"><a xlink:href="../../df/dd3/struct_a_u_t_o_c_i_r_c_u_l_a_t_e___t_a_s_k___s_t_r_u_c_t__32.html" target="_top" xlink:title=" ">
<polygon fill="white" stroke="black" points="862,-144 862,-174 991,-174 991,-144 862,-144"/>
<text text-anchor="start" x="870" y="-162" font-family="Helvetica,sans-Serif" font-size="10.00">AUTOCIRCULATE_TASK</text>
<text text-anchor="middle" x="926.5" y="-151" font-family="Helvetica,sans-Serif" font-size="10.00">_STRUCT_32</text>
</a>
</g>
</g>
<!-- Node2&#45;&gt;Node1 -->
<g id="edge1" class="edge">
<title>Node2&#45;&gt;Node1</title>
<path fill="none" stroke="#9a32cd" stroke-dasharray="5,2" d="M1001.23,-153.03C1034.4,-150.34 1073.85,-147.14 1108.76,-144.31"/>
<polygon fill="#9a32cd" stroke="#9a32cd" points="1000.84,-149.55 991.15,-153.84 1001.4,-156.52 1000.84,-149.55"/>
<text text-anchor="middle" x="1050" y="-155" font-family="Helvetica,sans-Serif" font-size="10.00"> acTask</text>
</g>
<!-- Node3 -->
<g id="node3" class="node">
<title>Node3</title>
<g id="a_node3"><a xlink:href="../../db/d76/struct_auto_circ_generic_task.html" target="_top" xlink:title=" ">
<polygon fill="white" stroke="black" points="553,-149.5 553,-168.5 670,-168.5 670,-149.5 553,-149.5"/>
<text text-anchor="middle" x="611.5" y="-156.5" font-family="Helvetica,sans-Serif" font-size="10.00">AutoCircGenericTask</text>
</a>
</g>
</g>
<!-- Node3&#45;&gt;Node2 -->
<g id="edge2" class="edge">
<title>Node3&#45;&gt;Node2</title>
<path fill="none" stroke="#9a32cd" stroke-dasharray="5,2" d="M680.42,-159C734.32,-159 809.12,-159 861.87,-159"/>
<polygon fill="#9a32cd" stroke="#9a32cd" points="680.27,-155.5 670.27,-159 680.27,-162.5 680.27,-155.5"/>
<text text-anchor="middle" x="766" y="-162" font-family="Helvetica,sans-Serif" font-size="10.00"> taskArray</text>
</g>
<!-- Node4 -->
<g id="node4" class="node">
<title>Node4</title>
<g id="a_node4"><a xlink:href="../../d6/d93/struct_auto_circ_time_code_task.html" target="_top" xlink:title=" ">
<polygon fill="white" stroke="black" points="301.5,-142.5 301.5,-161.5 430.5,-161.5 430.5,-142.5 301.5,-142.5"/>
<text text-anchor="middle" x="366" y="-149.5" font-family="Helvetica,sans-Serif" font-size="10.00">AutoCircTimeCodeTask</text>
</a>
</g>
</g>
<!-- Node4&#45;&gt;Node3 -->
<g id="edge3" class="edge">
<title>Node4&#45;&gt;Node3</title>
<path fill="none" stroke="#9a32cd" stroke-dasharray="5,2" d="M441.06,-154.13C476.87,-155.16 519.22,-156.38 552.63,-157.34"/>
<polygon fill="#9a32cd" stroke="#9a32cd" points="440.76,-150.62 430.66,-153.83 440.55,-157.62 440.76,-150.62"/>
<text text-anchor="middle" x="498.5" y="-160" font-family="Helvetica,sans-Serif" font-size="10.00"> timeCodeTask</text>
</g>
<!-- Node5 -->
<g id="node5" class="node">
<title>Node5</title>
<g id="a_node5"><a xlink:href="../../d3/d95/struct_r_p188___s_t_r_u_c_t.html" target="_top" xlink:title=" ">
<polygon fill="white" stroke="black" points="31.5,-142.5 31.5,-161.5 123.5,-161.5 123.5,-142.5 31.5,-142.5"/>
<text text-anchor="middle" x="77.5" y="-149.5" font-family="Helvetica,sans-Serif" font-size="10.00">RP188_STRUCT</text>
</a>
</g>
</g>
<!-- Node5&#45;&gt;Node4 -->
<g id="edge4" class="edge">
<title>Node5&#45;&gt;Node4</title>
<path fill="none" stroke="#9a32cd" stroke-dasharray="5,2" d="M133.77,-152C181.69,-152 251.05,-152 301.29,-152"/>
<polygon fill="#9a32cd" stroke="#9a32cd" points="133.58,-148.5 123.58,-152 133.58,-155.5 133.58,-148.5"/>
<text text-anchor="middle" x="221.5" y="-265" font-family="Helvetica,sans-Serif" font-size="10.00"> LTCEmbedded5</text>
<text text-anchor="middle" x="221.5" y="-254" font-family="Helvetica,sans-Serif" font-size="10.00">TCInOut1</text>
<text text-anchor="middle" x="221.5" y="-243" font-family="Helvetica,sans-Serif" font-size="10.00">LTCEmbedded6</text>
<text text-anchor="middle" x="221.5" y="-232" font-family="Helvetica,sans-Serif" font-size="10.00">TCInOut2</text>
<text text-anchor="middle" x="221.5" y="-221" font-family="Helvetica,sans-Serif" font-size="10.00">LTCEmbedded7</text>
<text text-anchor="middle" x="221.5" y="-210" font-family="Helvetica,sans-Serif" font-size="10.00">TCInOut3</text>
<text text-anchor="middle" x="221.5" y="-199" font-family="Helvetica,sans-Serif" font-size="10.00">LTCEmbedded8</text>
<text text-anchor="middle" x="221.5" y="-188" font-family="Helvetica,sans-Serif" font-size="10.00">TCInOut4</text>
<text text-anchor="middle" x="221.5" y="-177" font-family="Helvetica,sans-Serif" font-size="10.00">TCInOut5</text>
<text text-anchor="middle" x="221.5" y="-166" font-family="Helvetica,sans-Serif" font-size="10.00">TCInOut6</text>
<text text-anchor="middle" x="221.5" y="-155" font-family="Helvetica,sans-Serif" font-size="10.00">...</text>
</g>
<!-- Node10 -->
<g id="node10" class="node">
<title>Node10</title>
<g id="a_node10"><a xlink:href="../../d8/d37/struct_f_r_a_m_e___s_t_a_m_p___s_t_r_u_c_t.html" target="_top" xlink:title=" ">
<polygon fill="white" stroke="black" points="299,-252.5 299,-271.5 433,-271.5 433,-252.5 299,-252.5"/>
<text text-anchor="middle" x="366" y="-259.5" font-family="Helvetica,sans-Serif" font-size="10.00">FRAME_STAMP_STRUCT</text>
</a>
</g>
</g>
<!-- Node5&#45;&gt;Node10 -->
<g id="edge10" class="edge">
<title>Node5&#45;&gt;Node10</title>
<path fill="none" stroke="#9a32cd" stroke-dasharray="5,2" d="M86.52,-171.04C99.74,-199.59 129.08,-252.47 173,-274 226.98,-300.47 299.97,-283.78 338.55,-271.54"/>
<polygon fill="#9a32cd" stroke="#9a32cd" points="89.64,-169.44 82.39,-161.72 83.24,-172.28 89.64,-169.44"/>
<text text-anchor="middle" x="221.5" y="-291" font-family="Helvetica,sans-Serif" font-size="10.00"> currentRP188</text>
</g>
<!-- Node11 -->
<g id="node11" class="node">
<title>Node11</title>
<g id="a_node11"><a xlink:href="../../d2/d91/struct_a_u_t_o_c_i_r_c_u_l_a_t_e___t_r_a_n_s_f_e_r___s_t_r_u_c_t__32.html" target="_top" xlink:title=" ">
<polygon fill="white" stroke="black" points="288,-69 288,-99 444,-99 444,-69 288,-69"/>
<text text-anchor="start" x="296" y="-87" font-family="Helvetica,sans-Serif" font-size="10.00">AUTOCIRCULATE_TRANSFER</text>
<text text-anchor="middle" x="366" y="-76" font-family="Helvetica,sans-Serif" font-size="10.00">_STRUCT_32</text>
</a>
</g>
</g>
<!-- Node5&#45;&gt;Node11 -->
<g id="edge12" class="edge">
<title>Node5&#45;&gt;Node11</title>
<path fill="none" stroke="#9a32cd" stroke-dasharray="5,2" d="M128.51,-140.13C176.63,-128.71 249.56,-111.4 301.7,-99.02"/>
<polygon fill="#9a32cd" stroke="#9a32cd" points="127.56,-136.76 118.64,-142.47 129.18,-143.57 127.56,-136.76"/>
<text text-anchor="middle" x="221.5" y="-132" font-family="Helvetica,sans-Serif" font-size="10.00"> rp188</text>
</g>
<!-- Node6 -->
<g id="node6" class="node">
<title>Node6</title>
<g id="a_node6"><a xlink:href="../../de/d7b/struct_auto_circ_register_task.html" target="_top" xlink:title=" ">
<polygon fill="white" stroke="black" points="306,-180.5 306,-199.5 426,-199.5 426,-180.5 306,-180.5"/>
<text text-anchor="middle" x="366" y="-187.5" font-family="Helvetica,sans-Serif" font-size="10.00">AutoCircRegisterTask</text>
</a>
</g>
</g>
<!-- Node6&#45;&gt;Node3 -->
<g id="edge5" class="edge">
<title>Node6&#45;&gt;Node3</title>
<path fill="none" stroke="#9a32cd" stroke-dasharray="5,2" d="M436.4,-181.16C473.17,-176.48 517.79,-170.8 552.66,-166.36"/>
<polygon fill="#9a32cd" stroke="#9a32cd" points="435.73,-177.72 426.26,-182.46 436.62,-184.67 435.73,-177.72"/>
<text text-anchor="middle" x="498.5" y="-181" font-family="Helvetica,sans-Serif" font-size="10.00"> registerTask</text>
</g>
<!-- Node7 -->
<g id="node7" class="node">
<title>Node7</title>
<g id="a_node7"><a xlink:href="../../de/df1/struct_n_t_v2_routing_table.html" target="_top" xlink:title=" ">
<polygon fill="white" stroke="black" points="873.5,-67.5 873.5,-86.5 979.5,-86.5 979.5,-67.5 873.5,-67.5"/>
<text text-anchor="middle" x="926.5" y="-74.5" font-family="Helvetica,sans-Serif" font-size="10.00">NTV2RoutingTable</text>
</a>
</g>
</g>
<!-- Node7&#45;&gt;Node1 -->
<g id="edge6" class="edge">
<title>Node7&#45;&gt;Node1</title>
<path fill="none" stroke="#9a32cd" stroke-dasharray="5,2" d="M989.93,-77.14C1020.74,-78.42 1058.24,-81.81 1091,-90 1119.57,-97.14 1150.17,-111.12 1171.48,-121.98"/>
<polygon fill="#9a32cd" stroke="#9a32cd" points="989.87,-73.63 979.75,-76.78 989.62,-80.63 989.87,-73.63"/>
<text text-anchor="middle" x="1050" y="-93" font-family="Helvetica,sans-Serif" font-size="10.00"> acTransferRoute</text>
</g>
<!-- Node8 -->
<g id="node8" class="node">
<title>Node8</title>
<g id="a_node8"><a xlink:href="../../d4/d90/struct_n_t_v2_routing_entry.html" target="_top" xlink:title=" ">
<polygon fill="white" stroke="black" points="558.5,-67.5 558.5,-86.5 664.5,-86.5 664.5,-67.5 558.5,-67.5"/>
<text text-anchor="middle" x="611.5" y="-74.5" font-family="Helvetica,sans-Serif" font-size="10.00">NTV2RoutingEntry</text>
</a>
</g>
</g>
<!-- Node8&#45;&gt;Node7 -->
<g id="edge7" class="edge">
<title>Node8&#45;&gt;Node7</title>
<path fill="none" stroke="#9a32cd" stroke-dasharray="5,2" d="M674.7,-77C732.84,-77 818.68,-77 873.34,-77"/>
<polygon fill="#9a32cd" stroke="#9a32cd" points="674.54,-73.5 664.54,-77 674.54,-80.5 674.54,-73.5"/>
<text text-anchor="middle" x="766" y="-80" font-family="Helvetica,sans-Serif" font-size="10.00"> routingEntry</text>
</g>
<!-- Node9 -->
<g id="node9" class="node">
<title>Node9</title>
<g id="a_node9"><a xlink:href="../../d7/d19/struct_a_u_t_o_c_i_r_c_u_l_a_t_e___t_r_a_n_s_f_e_r___s_t_a_t_u_s___s_t_r_u_c_t.html" target="_top" xlink:title=" ">
<polygon fill="white" stroke="black" points="688,-208 688,-238 844,-238 844,-208 688,-208"/>
<text text-anchor="start" x="696" y="-226" font-family="Helvetica,sans-Serif" font-size="10.00">AUTOCIRCULATE_TRANSFER</text>
<text text-anchor="middle" x="766" y="-215" font-family="Helvetica,sans-Serif" font-size="10.00">_STATUS_STRUCT</text>
</a>
</g>
</g>
<!-- Node9&#45;&gt;Node1 -->
<g id="edge8" class="edge">
<title>Node9&#45;&gt;Node1</title>
<path fill="none" stroke="#9a32cd" stroke-dasharray="5,2" d="M854.3,-210.33C919.78,-200.24 1011.44,-184.88 1091,-167 1110.08,-162.71 1130.83,-157.17 1148.99,-152.01"/>
<polygon fill="#9a32cd" stroke="#9a32cd" points="853.37,-206.93 844.02,-211.9 854.43,-213.85 853.37,-206.93"/>
<text text-anchor="middle" x="926.5" y="-211" font-family="Helvetica,sans-Serif" font-size="10.00"> acStatus</text>
</g>
<!-- Node10&#45;&gt;Node9 -->
<g id="edge9" class="edge">
<title>Node10&#45;&gt;Node9</title>
<path fill="none" stroke="#9a32cd" stroke-dasharray="5,2" d="M443.28,-254.53C513.52,-247.64 617.21,-237.48 687.76,-230.57"/>
<polygon fill="#9a32cd" stroke="#9a32cd" points="442.78,-251.06 433.17,-255.52 443.46,-258.02 442.78,-251.06"/>
<text text-anchor="middle" x="498.5" y="-255" font-family="Helvetica,sans-Serif" font-size="10.00"> frameStamp</text>
</g>
<!-- Node11&#45;&gt;Node1 -->
<g id="edge11" class="edge">
<title>Node11&#45;&gt;Node1</title>
<path fill="none" stroke="#9a32cd" stroke-dasharray="5,2" d="M454.73,-89.68C485.77,-91.68 520.94,-93.95 553,-96 751.36,-108.69 984,-123.42 1108.86,-131.31"/>
<polygon fill="#9a32cd" stroke="#9a32cd" points="454.58,-86.16 444.37,-89.01 454.13,-93.15 454.58,-86.16"/>
<text text-anchor="middle" x="766" y="-118" font-family="Helvetica,sans-Serif" font-size="10.00"> acTransfer</text>
</g>
<!-- Node12 -->
<g id="node12" class="node">
<title>Node12</title>
<g id="a_node12"><a xlink:href="../../d3/d14/struct_auto_circ_vid_proc_info.html" target="_top" xlink:title=" ">
<polygon fill="white" stroke="black" points="21,-0.5 21,-19.5 134,-19.5 134,-0.5 21,-0.5"/>
<text text-anchor="middle" x="77.5" y="-7.5" font-family="Helvetica,sans-Serif" font-size="10.00">AutoCircVidProcInfo</text>
</a>
</g>
</g>
<!-- Node12&#45;&gt;Node11 -->
<g id="edge13" class="edge">
<title>Node12&#45;&gt;Node11</title>
<path fill="none" stroke="#9a32cd" stroke-dasharray="5,2" d="M144.4,-18C181.72,-23.45 229,-31.89 270,-44 291.97,-50.49 315.72,-60.49 333.98,-68.87"/>
<polygon fill="#9a32cd" stroke="#9a32cd" points="144.54,-14.49 134.15,-16.54 143.56,-21.42 144.54,-14.49"/>
<text text-anchor="middle" x="221.5" y="-47" font-family="Helvetica,sans-Serif" font-size="10.00"> vidProcInfo</text>
</g>
<!-- Node13 -->
<g id="node13" class="node">
<title>Node13</title>
<g id="a_node13"><a xlink:href="../../db/daf/struct_n_t_v2_color_correction_info__32.html" target="_top" xlink:title=" ">
<polygon fill="white" stroke="black" points="0,-76.5 0,-95.5 155,-95.5 155,-76.5 0,-76.5"/>
<text text-anchor="middle" x="77.5" y="-83.5" font-family="Helvetica,sans-Serif" font-size="10.00">NTV2ColorCorrectionInfo_32</text>
</a>
</g>
</g>
<!-- Node13&#45;&gt;Node11 -->
<g id="edge14" class="edge">
<title>Node13&#45;&gt;Node11</title>
<path fill="none" stroke="#9a32cd" stroke-dasharray="5,2" d="M165.25,-85.06C167.87,-85.04 170.45,-85.02 173,-85 210.83,-84.7 252.86,-84.47 287.92,-84.31"/>
<polygon fill="#9a32cd" stroke="#9a32cd" points="165.06,-81.57 155.09,-85.15 165.12,-88.57 165.06,-81.57"/>
<text text-anchor="middle" x="221.5" y="-88" font-family="Helvetica,sans-Serif" font-size="10.00"> colorCorrectionInfo</text>
</g>
<!-- Node14 -->
<g id="node14" class="node">
<title>Node14</title>
<g id="a_node14"><a xlink:href="../../d5/dd5/struct_c_u_s_t_o_m___a_n_c___s_t_r_u_c_t.html" target="_top" xlink:title=" ">
<polygon fill="white" stroke="black" points="12.5,-38.5 12.5,-57.5 142.5,-57.5 142.5,-38.5 12.5,-38.5"/>
<text text-anchor="middle" x="77.5" y="-45.5" font-family="Helvetica,sans-Serif" font-size="10.00">CUSTOM_ANC_STRUCT</text>
</a>
</g>
</g>
<!-- Node14&#45;&gt;Node11 -->
<g id="edge15" class="edge">
<title>Node14&#45;&gt;Node11</title>
<path fill="none" stroke="#9a32cd" stroke-dasharray="5,2" d="M153.1,-56.01C188.55,-59.96 231.49,-64.95 270,-70 275.79,-70.76 281.76,-71.57 287.78,-72.41"/>
<polygon fill="#9a32cd" stroke="#9a32cd" points="153.16,-52.5 142.83,-54.87 152.39,-59.45 153.16,-52.5"/>
<text text-anchor="middle" x="221.5" y="-73" font-family="Helvetica,sans-Serif" font-size="10.00"> customAncInfo</text>
</g>
</g>
</svg>
