<?xml version="1.0" encoding="UTF-8" standalone="no"?>
<!DOCTYPE svg PUBLIC "-//W3C//DTD SVG 1.1//EN"
 "http://www.w3.org/Graphics/SVG/1.1/DTD/svg11.dtd">
<!-- Generated by graphviz version 2.43.0 (0)
 -->
<!-- Title: /home/tcbuilder/buildAgent/work/df8e8cce5bebfd58/libajantv2/ajabase/common/circularbuffer.h Pages: 1 -->
<svg width="544pt" height="218pt"
 viewBox="0.00 0.00 544.00 218.00" xmlns="http://www.w3.org/2000/svg" xmlns:xlink="http://www.w3.org/1999/xlink">
<g id="graph0" class="graph" transform="scale(1 1) rotate(0) translate(4 214)">
<title>/home/tcbuilder/buildAgent/work/df8e8cce5bebfd58/libajantv2/ajabase/common/circularbuffer.h</title>
<polygon fill="white" stroke="transparent" points="-4,4 -4,-214 540,-214 540,4 -4,4"/>
<!-- Node1 -->
<g id="node1" class="node">
<title>Node1</title>
<g id="a_node1"><a xlink:title="Declaration of AJACircularBuffer template class.">
<polygon fill="#bfbfbf" stroke="black" points="148,-168.5 148,-209.5 336,-209.5 336,-168.5 148,-168.5"/>
<text text-anchor="start" x="156" y="-197.5" font-family="Helvetica,sans-Serif" font-size="10.00">/home/tcbuilder/buildAgent</text>
<text text-anchor="start" x="156" y="-186.5" font-family="Helvetica,sans-Serif" font-size="10.00">/work/df8e8cce5bebfd58/libajantv2</text>
<text text-anchor="middle" x="242" y="-175.5" font-family="Helvetica,sans-Serif" font-size="10.00">/ajabase/common/circularbuffer.h</text>
</a>
</g>
</g>
<!-- Node2 -->
<g id="node2" class="node">
<title>Node2</title>
<g id="a_node2"><a xlink:href="../../d4/d79/public_8h.html" target="_top" xlink:title="Master header for the ajabase library.">
<polygon fill="white" stroke="black" points="171,-56.5 171,-75.5 313,-75.5 313,-56.5 171,-56.5"/>
<text text-anchor="middle" x="242" y="-63.5" font-family="Helvetica,sans-Serif" font-size="10.00">ajabase/common/public.h</text>
</a>
</g>
</g>
<!-- Node1&#45;&gt;Node2 -->
<g id="edge1" class="edge">
<title>Node1&#45;&gt;Node2</title>
<path fill="none" stroke="midnightblue" d="M242,-168.29C242,-145.48 242,-108.19 242,-85.78"/>
<polygon fill="midnightblue" stroke="midnightblue" points="245.5,-85.57 242,-75.57 238.5,-85.57 245.5,-85.57"/>
</g>
<!-- Node9 -->
<g id="node9" class="node">
<title>Node9</title>
<g id="a_node9"><a xlink:href="../../dd/d42/lock_8h.html" target="_top" xlink:title="Declares the AJALock class.">
<polygon fill="white" stroke="black" points="88,-112.5 88,-131.5 214,-131.5 214,-112.5 88,-112.5"/>
<text text-anchor="middle" x="151" y="-119.5" font-family="Helvetica,sans-Serif" font-size="10.00">ajabase/system/lock.h</text>
</a>
</g>
</g>
<!-- Node1&#45;&gt;Node9 -->
<g id="edge8" class="edge">
<title>Node1&#45;&gt;Node9</title>
<path fill="none" stroke="midnightblue" d="M214.7,-168.5C200.74,-158.53 184.06,-146.61 171.27,-137.48"/>
<polygon fill="midnightblue" stroke="midnightblue" points="173.29,-134.62 163.11,-131.65 169.22,-140.31 173.29,-134.62"/>
</g>
<!-- Node11 -->
<g id="node11" class="node">
<title>Node11</title>
<g id="a_node11"><a xlink:href="../../dd/d20/event_8h.html" target="_top" xlink:title="Declares the AJAEvent class.">
<polygon fill="white" stroke="black" points="270,-112.5 270,-131.5 404,-131.5 404,-112.5 270,-112.5"/>
<text text-anchor="middle" x="337" y="-119.5" font-family="Helvetica,sans-Serif" font-size="10.00">ajabase/system/event.h</text>
</a>
</g>
</g>
<!-- Node1&#45;&gt;Node11 -->
<g id="edge11" class="edge">
<title>Node1&#45;&gt;Node11</title>
<path fill="none" stroke="midnightblue" d="M270.5,-168.5C285.07,-158.53 302.49,-146.61 315.84,-137.48"/>
<polygon fill="midnightblue" stroke="midnightblue" points="318.08,-140.19 324.35,-131.65 314.12,-134.41 318.08,-140.19"/>
</g>
<!-- Node3 -->
<g id="node3" class="node">
<title>Node3</title>
<g id="a_node3"><a xlink:href="../../db/db5/export_8h.html" target="_top" xlink:title="Declares system&#45;dependent import/export macros and libraries.">
<polygon fill="white" stroke="black" points="330,-0.5 330,-19.5 474,-19.5 474,-0.5 330,-0.5"/>
<text text-anchor="middle" x="402" y="-7.5" font-family="Helvetica,sans-Serif" font-size="10.00">ajabase/common/export.h</text>
</a>
</g>
</g>
<!-- Node2&#45;&gt;Node3 -->
<g id="edge2" class="edge">
<title>Node2&#45;&gt;Node3</title>
<path fill="none" stroke="midnightblue" d="M267.35,-56.44C294.27,-47.36 337,-32.94 367.09,-22.78"/>
<polygon fill="midnightblue" stroke="midnightblue" points="368.41,-26.03 376.77,-19.52 366.17,-19.4 368.41,-26.03"/>
</g>
<!-- Node4 -->
<g id="node4" class="node">
<title>Node4</title>
<g id="a_node4"><a xlink:title=" ">
<polygon fill="white" stroke="#bfbfbf" points="492,-0.5 492,-19.5 536,-19.5 536,-0.5 492,-0.5"/>
<text text-anchor="middle" x="514" y="-7.5" font-family="Helvetica,sans-Serif" font-size="10.00">string</text>
</a>
</g>
</g>
<!-- Node2&#45;&gt;Node4 -->
<g id="edge3" class="edge">
<title>Node2&#45;&gt;Node4</title>
<path fill="none" stroke="midnightblue" d="M295.92,-56.49C342.77,-48.74 412.61,-36.35 481.94,-20.07"/>
<polygon fill="midnightblue" stroke="midnightblue" points="482.8,-23.47 491.72,-17.75 481.18,-16.66 482.8,-23.47"/>
</g>
<!-- Node5 -->
<g id="node5" class="node">
<title>Node5</title>
<g id="a_node5"><a xlink:title=" ">
<polygon fill="white" stroke="#bfbfbf" points="0,-0.5 0,-19.5 32,-19.5 32,-0.5 0,-0.5"/>
<text text-anchor="middle" x="16" y="-7.5" font-family="Helvetica,sans-Serif" font-size="10.00">list</text>
</a>
</g>
</g>
<!-- Node2&#45;&gt;Node5 -->
<g id="edge4" class="edge">
<title>Node2&#45;&gt;Node5</title>
<path fill="none" stroke="midnightblue" d="M196.08,-56.42C157.23,-48.79 99.97,-36.64 41.77,-19.94"/>
<polygon fill="midnightblue" stroke="midnightblue" points="42.62,-16.54 32.04,-17.11 40.66,-23.26 42.62,-16.54"/>
</g>
<!-- Node6 -->
<g id="node6" class="node">
<title>Node6</title>
<g id="a_node6"><a xlink:title=" ">
<polygon fill="white" stroke="#bfbfbf" points="50.5,-0.5 50.5,-19.5 97.5,-19.5 97.5,-0.5 50.5,-0.5"/>
<text text-anchor="middle" x="74" y="-7.5" font-family="Helvetica,sans-Serif" font-size="10.00">vector</text>
</a>
</g>
</g>
<!-- Node2&#45;&gt;Node6 -->
<g id="edge5" class="edge">
<title>Node2&#45;&gt;Node6</title>
<path fill="none" stroke="midnightblue" d="M215.38,-56.44C186.08,-47.02 138.93,-31.87 107.22,-21.68"/>
<polygon fill="midnightblue" stroke="midnightblue" points="108.11,-18.29 97.51,-18.56 105.96,-24.95 108.11,-18.29"/>
</g>
<!-- Node7 -->
<g id="node7" class="node">
<title>Node7</title>
<g id="a_node7"><a xlink:title=" ">
<polygon fill="white" stroke="#bfbfbf" points="116,-0.5 116,-19.5 154,-19.5 154,-0.5 116,-0.5"/>
<text text-anchor="middle" x="135" y="-7.5" font-family="Helvetica,sans-Serif" font-size="10.00">map</text>
</a>
</g>
</g>
<!-- Node2&#45;&gt;Node7 -->
<g id="edge6" class="edge">
<title>Node2&#45;&gt;Node7</title>
<path fill="none" stroke="midnightblue" d="M224.81,-56.32C207.65,-47.66 181.05,-34.24 161.25,-24.25"/>
<polygon fill="midnightblue" stroke="midnightblue" points="162.65,-21.04 152.15,-19.65 159.5,-27.28 162.65,-21.04"/>
</g>
<!-- Node8 -->
<g id="node8" class="node">
<title>Node8</title>
<g id="a_node8"><a xlink:href="../../d9/d49/types_8h.html" target="_top" xlink:title="Declares common types used in the ajabase library.">
<polygon fill="white" stroke="black" points="172,-0.5 172,-19.5 312,-19.5 312,-0.5 172,-0.5"/>
<text text-anchor="middle" x="242" y="-7.5" font-family="Helvetica,sans-Serif" font-size="10.00">ajabase/common/types.h</text>
</a>
</g>
</g>
<!-- Node2&#45;&gt;Node8 -->
<g id="edge7" class="edge">
<title>Node2&#45;&gt;Node8</title>
<path fill="none" stroke="midnightblue" d="M242,-56.08C242,-49.01 242,-38.86 242,-29.99"/>
<polygon fill="midnightblue" stroke="midnightblue" points="245.5,-29.75 242,-19.75 238.5,-29.75 245.5,-29.75"/>
</g>
<!-- Node9&#45;&gt;Node2 -->
<g id="edge9" class="edge">
<title>Node9&#45;&gt;Node2</title>
<path fill="none" stroke="midnightblue" d="M165.62,-112.32C179.95,-103.82 202.01,-90.73 218.75,-80.8"/>
<polygon fill="midnightblue" stroke="midnightblue" points="220.6,-83.77 227.42,-75.65 217.03,-77.75 220.6,-83.77"/>
</g>
<!-- Node10 -->
<g id="node10" class="node">
<title>Node10</title>
<g id="a_node10"><a xlink:title=" ">
<polygon fill="white" stroke="#bfbfbf" points="97,-56.5 97,-75.5 153,-75.5 153,-56.5 97,-56.5"/>
<text text-anchor="middle" x="125" y="-63.5" font-family="Helvetica,sans-Serif" font-size="10.00">assert.h</text>
</a>
</g>
</g>
<!-- Node9&#45;&gt;Node10 -->
<g id="edge10" class="edge">
<title>Node9&#45;&gt;Node10</title>
<path fill="none" stroke="midnightblue" d="M146.71,-112.08C143.15,-104.69 137.98,-93.95 133.58,-84.81"/>
<polygon fill="midnightblue" stroke="midnightblue" points="136.71,-83.24 129.21,-75.75 130.4,-86.28 136.71,-83.24"/>
</g>
<!-- Node11&#45;&gt;Node2 -->
<g id="edge12" class="edge">
<title>Node11&#45;&gt;Node2</title>
<path fill="none" stroke="midnightblue" d="M321.74,-112.32C306.78,-103.82 283.75,-90.73 266.27,-80.8"/>
<polygon fill="midnightblue" stroke="midnightblue" points="267.65,-77.55 257.23,-75.65 264.19,-83.64 267.65,-77.55"/>
</g>
<!-- Node11&#45;&gt;Node4 -->
<g id="edge13" class="edge">
<title>Node11&#45;&gt;Node4</title>
<path fill="none" stroke="midnightblue" d="M350.89,-112.37C381.39,-93.41 454.46,-48 491.57,-24.94"/>
<polygon fill="midnightblue" stroke="midnightblue" points="493.53,-27.84 500.18,-19.59 489.83,-21.9 493.53,-27.84"/>
</g>
</g>
</svg>
