<?xml version="1.0" encoding="UTF-8" standalone="no"?>
<!DOCTYPE svg PUBLIC "-//W3C//DTD SVG 1.1//EN"
 "http://www.w3.org/Graphics/SVG/1.1/DTD/svg11.dtd">
<!-- Generated by graphviz version 2.43.0 (0)
 -->
<!-- Title: /home/tcbuilder/buildAgent/work/df8e8cce5bebfd58/libajantv2/ajabase/common/audioutilities.cpp Pages: 1 -->
<svg width="662pt" height="218pt"
 viewBox="0.00 0.00 662.00 218.00" xmlns="http://www.w3.org/2000/svg" xmlns:xlink="http://www.w3.org/1999/xlink">
<g id="graph0" class="graph" transform="scale(1 1) rotate(0) translate(4 214)">
<title>/home/tcbuilder/buildAgent/work/df8e8cce5bebfd58/libajantv2/ajabase/common/audioutilities.cpp</title>
<polygon fill="white" stroke="transparent" points="-4,4 -4,-214 658,-214 658,4 -4,4"/>
<!-- Node1 -->
<g id="node1" class="node">
<title>Node1</title>
<g id="a_node1"><a xlink:title="Implementation of AJA_GenerateAudioTone function.">
<polygon fill="#bfbfbf" stroke="black" points="342.5,-168.5 342.5,-209.5 533.5,-209.5 533.5,-168.5 342.5,-168.5"/>
<text text-anchor="start" x="350.5" y="-197.5" font-family="Helvetica,sans-Serif" font-size="10.00">/home/tcbuilder/buildAgent</text>
<text text-anchor="start" x="350.5" y="-186.5" font-family="Helvetica,sans-Serif" font-size="10.00">/work/df8e8cce5bebfd58/libajantv2</text>
<text text-anchor="middle" x="438" y="-175.5" font-family="Helvetica,sans-Serif" font-size="10.00">/ajabase/common/audioutilities.cpp</text>
</a>
</g>
</g>
<!-- Node2 -->
<g id="node2" class="node">
<title>Node2</title>
<g id="a_node2"><a xlink:href="../../dc/d54/common_8h.html" target="_top" xlink:title="Private include file for all ajabase sources.">
<polygon fill="white" stroke="black" points="446,-56.5 446,-75.5 514,-75.5 514,-56.5 446,-56.5"/>
<text text-anchor="middle" x="480" y="-63.5" font-family="Helvetica,sans-Serif" font-size="10.00">common.h</text>
</a>
</g>
</g>
<!-- Node1&#45;&gt;Node2 -->
<g id="edge1" class="edge">
<title>Node1&#45;&gt;Node2</title>
<path fill="none" stroke="midnightblue" d="M442.06,-168.3C445.53,-152.76 451.06,-130.67 458,-112 461.45,-102.73 466.18,-92.81 470.36,-84.65"/>
<polygon fill="midnightblue" stroke="midnightblue" points="473.5,-86.21 475.09,-75.74 467.31,-82.94 473.5,-86.21"/>
</g>
<!-- Node8 -->
<g id="node8" class="node">
<title>Node8</title>
<g id="a_node8"><a xlink:href="../../d8/d25/audioutilities_8h.html" target="_top" xlink:title="Declaration of AJA_GenerateAudioTone function.">
<polygon fill="white" stroke="black" points="310.5,-112.5 310.5,-131.5 399.5,-131.5 399.5,-112.5 310.5,-112.5"/>
<text text-anchor="middle" x="355" y="-119.5" font-family="Helvetica,sans-Serif" font-size="10.00">audioutilities.h</text>
</a>
</g>
</g>
<!-- Node1&#45;&gt;Node8 -->
<g id="edge7" class="edge">
<title>Node1&#45;&gt;Node8</title>
<path fill="none" stroke="midnightblue" d="M413.1,-168.5C400.62,-158.72 385.74,-147.07 374.16,-138.01"/>
<polygon fill="midnightblue" stroke="midnightblue" points="376.08,-135.06 366.05,-131.65 371.76,-140.57 376.08,-135.06"/>
</g>
<!-- Node13 -->
<g id="node13" class="node">
<title>Node13</title>
<g id="a_node13"><a xlink:title=" ">
<polygon fill="white" stroke="#bfbfbf" points="466.5,-112.5 466.5,-131.5 517.5,-131.5 517.5,-112.5 466.5,-112.5"/>
<text text-anchor="middle" x="492" y="-119.5" font-family="Helvetica,sans-Serif" font-size="10.00">math.h</text>
</a>
</g>
</g>
<!-- Node1&#45;&gt;Node13 -->
<g id="edge15" class="edge">
<title>Node1&#45;&gt;Node13</title>
<path fill="none" stroke="midnightblue" d="M454.2,-168.5C461.92,-159.2 471.06,-148.21 478.41,-139.36"/>
<polygon fill="midnightblue" stroke="midnightblue" points="481.11,-141.58 484.81,-131.65 475.73,-137.11 481.11,-141.58"/>
</g>
<!-- Node3 -->
<g id="node3" class="node">
<title>Node3</title>
<g id="a_node3"><a xlink:href="../../db/db5/export_8h.html" target="_top" xlink:title="Declares system&#45;dependent import/export macros and libraries.">
<polygon fill="white" stroke="black" points="264,-0.5 264,-19.5 408,-19.5 408,-0.5 264,-0.5"/>
<text text-anchor="middle" x="336" y="-7.5" font-family="Helvetica,sans-Serif" font-size="10.00">ajabase/common/export.h</text>
</a>
</g>
</g>
<!-- Node2&#45;&gt;Node3 -->
<g id="edge2" class="edge">
<title>Node2&#45;&gt;Node3</title>
<path fill="none" stroke="midnightblue" d="M457.18,-56.44C433.17,-47.44 395.17,-33.19 368.13,-23.05"/>
<polygon fill="midnightblue" stroke="midnightblue" points="369.3,-19.75 358.71,-19.52 366.84,-26.3 369.3,-19.75"/>
</g>
<!-- Node4 -->
<g id="node4" class="node">
<title>Node4</title>
<g id="a_node4"><a xlink:title=" ">
<polygon fill="white" stroke="#bfbfbf" points="554,-0.5 554,-19.5 586,-19.5 586,-0.5 554,-0.5"/>
<text text-anchor="middle" x="570" y="-7.5" font-family="Helvetica,sans-Serif" font-size="10.00">set</text>
</a>
</g>
</g>
<!-- Node2&#45;&gt;Node4 -->
<g id="edge3" class="edge">
<title>Node2&#45;&gt;Node4</title>
<path fill="none" stroke="midnightblue" d="M494.46,-56.32C508.5,-47.9 530.05,-34.97 546.54,-25.07"/>
<polygon fill="midnightblue" stroke="midnightblue" points="548.8,-27.8 555.58,-19.65 545.2,-21.8 548.8,-27.8"/>
</g>
<!-- Node5 -->
<g id="node5" class="node">
<title>Node5</title>
<g id="a_node5"><a xlink:title=" ">
<polygon fill="white" stroke="#bfbfbf" points="426,-0.5 426,-19.5 470,-19.5 470,-0.5 426,-0.5"/>
<text text-anchor="middle" x="448" y="-7.5" font-family="Helvetica,sans-Serif" font-size="10.00">string</text>
</a>
</g>
</g>
<!-- Node2&#45;&gt;Node5 -->
<g id="edge4" class="edge">
<title>Node2&#45;&gt;Node5</title>
<path fill="none" stroke="midnightblue" d="M474.72,-56.08C470.29,-48.61 463.84,-37.72 458.38,-28.52"/>
<polygon fill="midnightblue" stroke="midnightblue" points="461.29,-26.57 453.19,-19.75 455.27,-30.14 461.29,-26.57"/>
</g>
<!-- Node6 -->
<g id="node6" class="node">
<title>Node6</title>
<g id="a_node6"><a xlink:title=" ">
<polygon fill="white" stroke="#bfbfbf" points="488.5,-0.5 488.5,-19.5 535.5,-19.5 535.5,-0.5 488.5,-0.5"/>
<text text-anchor="middle" x="512" y="-7.5" font-family="Helvetica,sans-Serif" font-size="10.00">vector</text>
</a>
</g>
</g>
<!-- Node2&#45;&gt;Node6 -->
<g id="edge5" class="edge">
<title>Node2&#45;&gt;Node6</title>
<path fill="none" stroke="midnightblue" d="M485.28,-56.08C489.71,-48.61 496.16,-37.72 501.62,-28.52"/>
<polygon fill="midnightblue" stroke="midnightblue" points="504.73,-30.14 506.81,-19.75 498.71,-26.57 504.73,-30.14"/>
</g>
<!-- Node7 -->
<g id="node7" class="node">
<title>Node7</title>
<g id="a_node7"><a xlink:title=" ">
<polygon fill="white" stroke="#bfbfbf" points="604,-0.5 604,-19.5 654,-19.5 654,-0.5 604,-0.5"/>
<text text-anchor="middle" x="629" y="-7.5" font-family="Helvetica,sans-Serif" font-size="10.00">cstdint</text>
</a>
</g>
</g>
<!-- Node2&#45;&gt;Node7 -->
<g id="edge6" class="edge">
<title>Node2&#45;&gt;Node7</title>
<path fill="none" stroke="midnightblue" d="M503.61,-56.44C528.46,-47.44 567.77,-33.19 595.75,-23.05"/>
<polygon fill="midnightblue" stroke="midnightblue" points="597.29,-26.21 605.5,-19.52 594.91,-19.63 597.29,-26.21"/>
</g>
<!-- Node9 -->
<g id="node9" class="node">
<title>Node9</title>
<g id="a_node9"><a xlink:href="../../d4/d79/public_8h.html" target="_top" xlink:title="Master header for the ajabase library.">
<polygon fill="white" stroke="black" points="308.5,-56.5 308.5,-75.5 363.5,-75.5 363.5,-56.5 308.5,-56.5"/>
<text text-anchor="middle" x="336" y="-63.5" font-family="Helvetica,sans-Serif" font-size="10.00">public.h</text>
</a>
</g>
</g>
<!-- Node8&#45;&gt;Node9 -->
<g id="edge8" class="edge">
<title>Node8&#45;&gt;Node9</title>
<path fill="none" stroke="midnightblue" d="M351.86,-112.08C349.32,-104.85 345.64,-94.41 342.47,-85.4"/>
<polygon fill="midnightblue" stroke="midnightblue" points="345.7,-84.02 339.08,-75.75 339.1,-86.35 345.7,-84.02"/>
</g>
<!-- Node9&#45;&gt;Node3 -->
<g id="edge9" class="edge">
<title>Node9&#45;&gt;Node3</title>
<path fill="none" stroke="midnightblue" d="M336,-56.08C336,-49.01 336,-38.86 336,-29.99"/>
<polygon fill="midnightblue" stroke="midnightblue" points="339.5,-29.75 336,-19.75 332.5,-29.75 339.5,-29.75"/>
</g>
<!-- Node9&#45;&gt;Node5 -->
<g id="edge10" class="edge">
<title>Node9&#45;&gt;Node5</title>
<path fill="none" stroke="midnightblue" d="M353.99,-56.32C372.04,-47.62 400.05,-34.12 420.8,-24.11"/>
<polygon fill="midnightblue" stroke="midnightblue" points="422.56,-27.15 430.05,-19.65 419.52,-20.84 422.56,-27.15"/>
</g>
<!-- Node9&#45;&gt;Node6 -->
<g id="edge12" class="edge">
<title>Node9&#45;&gt;Node6</title>
<path fill="none" stroke="midnightblue" d="M363.89,-56.44C395.07,-46.88 445.55,-31.39 478.76,-21.2"/>
<polygon fill="midnightblue" stroke="midnightblue" points="479.93,-24.5 488.47,-18.22 477.88,-17.81 479.93,-24.5"/>
</g>
<!-- Node10 -->
<g id="node10" class="node">
<title>Node10</title>
<g id="a_node10"><a xlink:title=" ">
<polygon fill="white" stroke="#bfbfbf" points="0,-0.5 0,-19.5 32,-19.5 32,-0.5 0,-0.5"/>
<text text-anchor="middle" x="16" y="-7.5" font-family="Helvetica,sans-Serif" font-size="10.00">list</text>
</a>
</g>
</g>
<!-- Node9&#45;&gt;Node10 -->
<g id="edge11" class="edge">
<title>Node9&#45;&gt;Node10</title>
<path fill="none" stroke="midnightblue" d="M308.4,-62.59C257.4,-57.77 144.98,-45.34 42.18,-19.87"/>
<polygon fill="midnightblue" stroke="midnightblue" points="42.82,-16.42 32.26,-17.37 41.1,-23.21 42.82,-16.42"/>
</g>
<!-- Node11 -->
<g id="node11" class="node">
<title>Node11</title>
<g id="a_node11"><a xlink:title=" ">
<polygon fill="white" stroke="#bfbfbf" points="50,-0.5 50,-19.5 88,-19.5 88,-0.5 50,-0.5"/>
<text text-anchor="middle" x="69" y="-7.5" font-family="Helvetica,sans-Serif" font-size="10.00">map</text>
</a>
</g>
</g>
<!-- Node9&#45;&gt;Node11 -->
<g id="edge13" class="edge">
<title>Node9&#45;&gt;Node11</title>
<path fill="none" stroke="midnightblue" d="M308.15,-60.91C265.07,-54.35 179.53,-40.32 98.1,-20.02"/>
<polygon fill="midnightblue" stroke="midnightblue" points="98.74,-16.57 88.19,-17.52 97.02,-23.36 98.74,-16.57"/>
</g>
<!-- Node12 -->
<g id="node12" class="node">
<title>Node12</title>
<g id="a_node12"><a xlink:href="../../d9/d49/types_8h.html" target="_top" xlink:title="Declares common types used in the ajabase library.">
<polygon fill="white" stroke="black" points="106,-0.5 106,-19.5 246,-19.5 246,-0.5 106,-0.5"/>
<text text-anchor="middle" x="176" y="-7.5" font-family="Helvetica,sans-Serif" font-size="10.00">ajabase/common/types.h</text>
</a>
</g>
</g>
<!-- Node9&#45;&gt;Node12 -->
<g id="edge14" class="edge">
<title>Node9&#45;&gt;Node12</title>
<path fill="none" stroke="midnightblue" d="M310.65,-56.44C283.73,-47.36 241,-32.94 210.91,-22.78"/>
<polygon fill="midnightblue" stroke="midnightblue" points="211.83,-19.4 201.23,-19.52 209.59,-26.03 211.83,-19.4"/>
</g>
</g>
</svg>
