<?xml version="1.0" encoding="UTF-8" standalone="no"?>
<!DOCTYPE svg PUBLIC "-//W3C//DTD SVG 1.1//EN"
 "http://www.w3.org/Graphics/SVG/1.1/DTD/svg11.dtd">
<!-- Generated by graphviz version 2.40.1 (0)
 -->
<!-- Title: /home/tcbuilder/buildAgent/work/df8e8cce5bebfd58/libajantv2/demos/ntv2llburn/ntv2llburn.cpp Pages: 1 -->
<svg width="3112pt" height="733pt"
 viewBox="0.00 0.00 3112.00 733.00" xmlns="http://www.w3.org/2000/svg" xmlns:xlink="http://www.w3.org/1999/xlink">
<g id="graph0" class="graph" transform="scale(1 1) rotate(0) translate(4 729)">
<title>/home/tcbuilder/buildAgent/work/df8e8cce5bebfd58/libajantv2/demos/ntv2llburn/ntv2llburn.cpp</title>
<polygon fill="#ffffff" stroke="transparent" points="-4,4 -4,-729 3108,-729 3108,4 -4,4"/>
<!-- Node0 -->
<g id="node1" class="node">
<title>Node0</title>
<polygon fill="#bfbfbf" stroke="#000000" points="817.5,-683.5 817.5,-724.5 984.5,-724.5 984.5,-683.5 817.5,-683.5"/>
<text text-anchor="start" x="825.5" y="-712.5" font-family="Helvetica,sans-Serif" font-size="10.00" fill="#000000">/home/tcbuilder/buildAgent</text>
<text text-anchor="start" x="825.5" y="-701.5" font-family="Helvetica,sans-Serif" font-size="10.00" fill="#000000">/work/df8e8cce5bebfd58/libajantv2</text>
<text text-anchor="middle" x="901" y="-690.5" font-family="Helvetica,sans-Serif" font-size="10.00" fill="#000000">/demos/ntv2llburn/ntv2llburn.cpp</text>
</g>
<!-- Node1 -->
<g id="node2" class="node">
<title>Node1</title>
<g id="a_node2"><a xlink:href="../../df/dc7/ntv2llburn_8h.html" target="_top" xlink:title="Header file for the low latency NTV2Burn demonstration class. ">
<polygon fill="#ffffff" stroke="#000000" points="1660.5,-627.5 1660.5,-646.5 1727.5,-646.5 1727.5,-627.5 1660.5,-627.5"/>
<text text-anchor="middle" x="1694" y="-634.5" font-family="Helvetica,sans-Serif" font-size="10.00" fill="#000000">ntv2llburn.h</text>
</a>
</g>
</g>
<!-- Node0&#45;&gt;Node1 -->
<g id="edge1" class="edge">
<title>Node0&#45;&gt;Node1</title>
<path fill="none" stroke="#191970" d="M984.7398,-696.9249C1152.2242,-682.7742 1523.2914,-651.423 1650.3383,-640.6889"/>
<polygon fill="#191970" stroke="#191970" points="1650.7948,-644.1629 1660.4646,-639.8334 1650.2054,-637.1878 1650.7948,-644.1629"/>
</g>
<!-- Node16 -->
<g id="node17" class="node">
<title>Node16</title>
<polygon fill="#ffffff" stroke="#bfbfbf" points="1029,-112.5 1029,-131.5 1083,-131.5 1083,-112.5 1029,-112.5"/>
<text text-anchor="middle" x="1056" y="-119.5" font-family="Helvetica,sans-Serif" font-size="10.00" fill="#000000">iostream</text>
</g>
<!-- Node0&#45;&gt;Node16 -->
<g id="edge172" class="edge">
<title>Node0&#45;&gt;Node16</title>
<path fill="none" stroke="#191970" d="M984.9732,-694.4358C1098.793,-679.0923 1288,-644.0969 1288,-581 1288,-581 1288,-581 1288,-357 1288,-244.3925 1151.4266,-166.2426 1087.8527,-135.9645"/>
<polygon fill="#191970" stroke="#191970" points="1089.2099,-132.7356 1078.6676,-131.6818 1086.2517,-139.0798 1089.2099,-132.7356"/>
</g>
<!-- Node28 -->
<g id="node29" class="node">
<title>Node28</title>
<g id="a_node29"><a xlink:href="../../d4/d18/ntv2endian_8h.html" target="_top" xlink:title="Defines a number of handy byte&#45;swapping macros. ">
<polygon fill="#ffffff" stroke="#000000" points="207,-286 207,-305 279,-305 279,-286 207,-286"/>
<text text-anchor="middle" x="243" y="-293" font-family="Helvetica,sans-Serif" font-size="10.00" fill="#000000">ntv2endian.h</text>
</a>
</g>
</g>
<!-- Node0&#45;&gt;Node28 -->
<g id="edge163" class="edge">
<title>Node0&#45;&gt;Node28</title>
<path fill="none" stroke="#191970" d="M817.4704,-697.6064C635.0025,-682.5179 217,-641.3651 217,-581 217,-581 217,-581 217,-413 217,-377.6488 228.3582,-337.6979 236.0602,-314.671"/>
<polygon fill="#191970" stroke="#191970" points="239.4133,-315.6844 239.3848,-305.0896 232.8001,-313.3897 239.4133,-315.6844"/>
</g>
<!-- Node32 -->
<g id="node33" class="node">
<title>Node32</title>
<g id="a_node33"><a xlink:href="../../dc/df4/ntv2formatdescriptor_8h.html" target="_top" xlink:title="Declares the NTV2FormatDescriptor class. ">
<polygon fill="#ffffff" stroke="#000000" points="770.5,-224.5 770.5,-243.5 883.5,-243.5 883.5,-224.5 770.5,-224.5"/>
<text text-anchor="middle" x="827" y="-231.5" font-family="Helvetica,sans-Serif" font-size="10.00" fill="#000000">ntv2formatdescriptor.h</text>
</a>
</g>
</g>
<!-- Node0&#45;&gt;Node32 -->
<g id="edge164" class="edge">
<title>Node0&#45;&gt;Node32</title>
<path fill="none" stroke="#191970" d="M817.0268,-694.4358C703.207,-679.0923 514,-644.0969 514,-581 514,-581 514,-581 514,-413 514,-300.4717 668.3322,-257.7161 760.2548,-242.2304"/>
<polygon fill="#191970" stroke="#191970" points="761.0058,-245.6544 770.3181,-240.6015 759.8873,-238.7444 761.0058,-245.6544"/>
</g>
<!-- Node38 -->
<g id="node39" class="node">
<title>Node38</title>
<g id="a_node39"><a xlink:href="../../d9/d49/types_8h.html" target="_top" xlink:title="Declares common types used in the ajabase library. ">
<polygon fill="#ffffff" stroke="#000000" points="0,-168.5 0,-187.5 126,-187.5 126,-168.5 0,-168.5"/>
<text text-anchor="middle" x="63" y="-175.5" font-family="Helvetica,sans-Serif" font-size="10.00" fill="#000000">ajabase/common/types.h</text>
</a>
</g>
</g>
<!-- Node0&#45;&gt;Node38 -->
<g id="edge165" class="edge">
<title>Node0&#45;&gt;Node38</title>
<path fill="none" stroke="#191970" d="M817.4559,-700.2041C607.9712,-689.5763 77,-655.3091 77,-581 77,-581 77,-581 77,-295.5 77,-260.8969 70.9393,-220.9617 66.7932,-197.6911"/>
<polygon fill="#191970" stroke="#191970" points="70.2063,-196.8994 64.9466,-187.7023 63.3229,-198.172 70.2063,-196.8994"/>
</g>
<!-- Node66 -->
<g id="node67" class="node">
<title>Node66</title>
<g id="a_node67"><a xlink:href="../../d6/dc0/ancillarylist_8h.html" target="_top" xlink:title="Declares the AJAAncillaryList class. ">
<polygon fill="#ffffff" stroke="#000000" points="1430,-286 1430,-305 1574,-305 1574,-286 1430,-286"/>
<text text-anchor="middle" x="1502" y="-293" font-family="Helvetica,sans-Serif" font-size="10.00" fill="#000000">ajaanc/includes/ancillarylist.h</text>
</a>
</g>
</g>
<!-- Node0&#45;&gt;Node66 -->
<g id="edge166" class="edge">
<title>Node0&#45;&gt;Node66</title>
<path fill="none" stroke="#191970" d="M984.5741,-700.6072C1127.1163,-692.5201 1402,-665.9161 1402,-581 1402,-581 1402,-581 1402,-413 1402,-367.119 1446.7651,-330.034 1476.3936,-310.5134"/>
<polygon fill="#191970" stroke="#191970" points="1478.4682,-313.3421 1485.0364,-305.0289 1474.7176,-307.4317 1478.4682,-313.3421"/>
</g>
<!-- Node2 -->
<g id="node3" class="node">
<title>Node2</title>
<g id="a_node3"><a xlink:href="../../d6/d0c/ntv2enums_8h.html" target="_top" xlink:title="Enumerations for controlling NTV2 devices. ">
<polygon fill="#ffffff" stroke="#000000" points="592.5,-112.5 592.5,-131.5 665.5,-131.5 665.5,-112.5 592.5,-112.5"/>
<text text-anchor="middle" x="629" y="-119.5" font-family="Helvetica,sans-Serif" font-size="10.00" fill="#000000">ntv2enums.h</text>
</a>
</g>
</g>
<!-- Node1&#45;&gt;Node2 -->
<g id="edge2" class="edge">
<title>Node1&#45;&gt;Node2</title>
<path fill="none" stroke="#191970" d="M1660.403,-636.125C1520.1761,-632.3376 981.1002,-616.3927 813,-591 694.6908,-573.1286 552,-644.6513 552,-525 552,-525 552,-525 552,-234 552,-194.0704 585.644,-157.9919 608.4539,-138.1198"/>
<polygon fill="#191970" stroke="#191970" points="610.8703,-140.6614 616.285,-131.5547 606.3731,-135.297 610.8703,-140.6614"/>
</g>
<!-- Node9 -->
<g id="node10" class="node">
<title>Node9</title>
<g id="a_node10"><a xlink:href="../../d8/d0f/ntv2devicefeatures_8h.html" target="_top" xlink:title="Declares device capability functions. ">
<polygon fill="#ffffff" stroke="#000000" points="317.5,-224.5 317.5,-243.5 424.5,-243.5 424.5,-224.5 317.5,-224.5"/>
<text text-anchor="middle" x="371" y="-231.5" font-family="Helvetica,sans-Serif" font-size="10.00" fill="#000000">ntv2devicefeatures.h</text>
</a>
</g>
</g>
<!-- Node1&#45;&gt;Node9 -->
<g id="edge9" class="edge">
<title>Node1&#45;&gt;Node9</title>
<path fill="none" stroke="#191970" d="M1660.4336,-636.7433C1494.6909,-635.3114 762.5958,-627.0229 538,-591 432.5725,-574.0905 307,-631.7749 307,-525 307,-525 307,-525 307,-357 307,-315.3772 336.1972,-273.8677 355.1502,-251.3069"/>
<polygon fill="#191970" stroke="#191970" points="357.908,-253.4695 361.8304,-243.6274 352.6265,-248.8753 357.908,-253.4695"/>
</g>
<!-- Node11 -->
<g id="node12" class="node">
<title>Node11</title>
<g id="a_node12"><a xlink:href="../../d6/d6a/ntv2devicescanner_8h.html" target="_top" xlink:title="Declares the CNTV2DeviceScanner class. ">
<polygon fill="#ffffff" stroke="#000000" points="1123,-571.5 1123,-590.5 1229,-590.5 1229,-571.5 1123,-571.5"/>
<text text-anchor="middle" x="1176" y="-578.5" font-family="Helvetica,sans-Serif" font-size="10.00" fill="#000000">ntv2devicescanner.h</text>
</a>
</g>
</g>
<!-- Node1&#45;&gt;Node11 -->
<g id="edge16" class="edge">
<title>Node1&#45;&gt;Node11</title>
<path fill="none" stroke="#191970" d="M1660.4117,-633.3688C1575.2978,-624.1673 1350.0676,-599.8181 1239.311,-587.8444"/>
<polygon fill="#191970" stroke="#191970" points="1239.5987,-584.3552 1229.2804,-586.76 1238.8463,-591.3147 1239.5987,-584.3552"/>
</g>
<!-- Node17 -->
<g id="node18" class="node">
<title>Node17</title>
<polygon fill="#ffffff" stroke="#bfbfbf" points="2253,-112.5 2253,-131.5 2283,-131.5 2283,-112.5 2253,-112.5"/>
<text text-anchor="middle" x="2268" y="-119.5" font-family="Helvetica,sans-Serif" font-size="10.00" fill="#000000">set</text>
</g>
<!-- Node1&#45;&gt;Node17 -->
<g id="edge162" class="edge">
<title>Node1&#45;&gt;Node17</title>
<path fill="none" stroke="#191970" d="M1727.8086,-636.1369C1942.2358,-630.4471 3104,-596.3283 3104,-525 3104,-525 3104,-525 3104,-357 3104,-186.3322 2877.0039,-341.6033 2737,-244 2702.1439,-219.7001 2715.975,-188.9351 2679,-168 2612.4644,-130.3278 2372.1606,-123.4999 2293.2793,-122.2689"/>
<polygon fill="#191970" stroke="#191970" points="2293.3026,-118.769 2283.255,-122.1297 2293.2054,-125.7683 2293.3026,-118.769"/>
</g>
<!-- Node30 -->
<g id="node31" class="node">
<title>Node30</title>
<g id="a_node31"><a xlink:href="../../d0/d81/ntv2utils_8h.html" target="_top" xlink:title="Declares numerous NTV2 utility functions. ">
<polygon fill="#ffffff" stroke="#000000" points="881,-286 881,-305 943,-305 943,-286 881,-286"/>
<text text-anchor="middle" x="912" y="-293" font-family="Helvetica,sans-Serif" font-size="10.00" fill="#000000">ntv2utils.h</text>
</a>
</g>
</g>
<!-- Node1&#45;&gt;Node30 -->
<g id="edge146" class="edge">
<title>Node1&#45;&gt;Node30</title>
<path fill="none" stroke="#191970" d="M1660.396,-636.6865C1490.4828,-634.6683 734,-620.3297 734,-525 734,-525 734,-525 734,-469 734,-388.7281 827.9768,-333.5076 879.3618,-309.3138"/>
<polygon fill="#191970" stroke="#191970" points="881.0947,-312.3699 888.7296,-305.0242 878.1803,-306.0054 881.0947,-312.3699"/>
</g>
<!-- Node1&#45;&gt;Node38 -->
<g id="edge147" class="edge">
<title>Node1&#45;&gt;Node38</title>
<path fill="none" stroke="#191970" d="M1660.2433,-636.7352C1454.6469,-635.0148 377.6108,-624.427 317,-591 149.2606,-498.4915 184.8753,-390.9783 91,-224 85.8069,-214.7629 79.7235,-204.688 74.5562,-196.3279"/>
<polygon fill="#191970" stroke="#191970" points="77.47,-194.3859 69.2077,-187.7538 71.5308,-198.0908 77.47,-194.3859"/>
</g>
<!-- Node45 -->
<g id="node46" class="node">
<title>Node45</title>
<g id="a_node46"><a xlink:href="../../d9/de9/ntv2democommon_8h.html" target="_top" xlink:title="This file contains some structures, constants, classes and functions that are used in some of the dem...">
<polygon fill="#ffffff" stroke="#000000" points="2087.5,-571.5 2087.5,-590.5 2192.5,-590.5 2192.5,-571.5 2087.5,-571.5"/>
<text text-anchor="middle" x="2140" y="-578.5" font-family="Helvetica,sans-Serif" font-size="10.00" fill="#000000">ntv2democommon.h</text>
</a>
</g>
</g>
<!-- Node1&#45;&gt;Node45 -->
<g id="edge95" class="edge">
<title>Node1&#45;&gt;Node45</title>
<path fill="none" stroke="#191970" d="M1727.5225,-632.7909C1801.7976,-623.4649 1981.2118,-600.9375 2077.0983,-588.898"/>
<polygon fill="#191970" stroke="#191970" points="2077.752,-592.3435 2087.238,-587.6248 2076.8798,-585.398 2077.752,-592.3435"/>
</g>
<!-- Node51 -->
<g id="node52" class="node">
<title>Node51</title>
<g id="a_node52"><a xlink:href="../../d6/da4/videotypes_8h.html" target="_top" xlink:title="Declares the enumeration constants used in the ajabase library. ">
<polygon fill="#ffffff" stroke="#000000" points="1861.5,-459.5 1861.5,-478.5 2010.5,-478.5 2010.5,-459.5 1861.5,-459.5"/>
<text text-anchor="middle" x="1936" y="-466.5" font-family="Helvetica,sans-Serif" font-size="10.00" fill="#000000">ajabase/common/videotypes.h</text>
</a>
</g>
</g>
<!-- Node1&#45;&gt;Node51 -->
<g id="edge148" class="edge">
<title>Node1&#45;&gt;Node51</title>
<path fill="none" stroke="#191970" d="M1727.7519,-633.1716C1760.7068,-628.0628 1811.0118,-616.4917 1847,-591 1885.5103,-563.7218 1913.8665,-514.4868 1927.3083,-487.659"/>
<polygon fill="#191970" stroke="#191970" points="1930.5035,-489.0914 1931.7199,-478.5666 1924.2057,-486.0357 1930.5035,-489.0914"/>
</g>
<!-- Node57 -->
<g id="node58" class="node">
<title>Node57</title>
<g id="a_node58"><a xlink:href="../../da/dbc/systemtime_8h.html" target="_top" xlink:title="Declares the AJATime class. ">
<polygon fill="#ffffff" stroke="#000000" points="1964,-515.5 1964,-534.5 2112,-534.5 2112,-515.5 1964,-515.5"/>
<text text-anchor="middle" x="2038" y="-522.5" font-family="Helvetica,sans-Serif" font-size="10.00" fill="#000000">ajabase/system/systemtime.h</text>
</a>
</g>
</g>
<!-- Node1&#45;&gt;Node57 -->
<g id="edge161" class="edge">
<title>Node1&#45;&gt;Node57</title>
<path fill="none" stroke="#191970" d="M1727.8379,-631.7081C1768.8252,-624.7678 1839.6334,-611.0674 1898,-591 1939.1431,-576.8543 1984.2444,-554.2013 2011.8395,-539.4605"/>
<polygon fill="#191970" stroke="#191970" points="2013.6987,-542.4343 2020.835,-534.6034 2010.3728,-536.2749 2013.6987,-542.4343"/>
</g>
<!-- Node61 -->
<g id="node62" class="node">
<title>Node61</title>
<g id="a_node62"><a xlink:href="../../d6/d23/timecode_8h.html" target="_top" xlink:title="Declares the AJATimeCode class. ">
<polygon fill="#ffffff" stroke="#000000" points="1574,-571.5 1574,-590.5 1716,-590.5 1716,-571.5 1574,-571.5"/>
<text text-anchor="middle" x="1645" y="-578.5" font-family="Helvetica,sans-Serif" font-size="10.00" fill="#000000">ajabase/common/timecode.h</text>
</a>
</g>
</g>
<!-- Node1&#45;&gt;Node61 -->
<g id="edge149" class="edge">
<title>Node1&#45;&gt;Node61</title>
<path fill="none" stroke="#191970" d="M1685.4649,-627.2455C1678.5088,-619.2958 1668.5117,-607.8706 1660.1949,-598.3656"/>
<polygon fill="#191970" stroke="#191970" points="1662.6564,-595.8637 1653.4373,-590.6427 1657.3884,-600.4732 1662.6564,-595.8637"/>
</g>
<!-- Node63 -->
<g id="node64" class="node">
<title>Node63</title>
<g id="a_node64"><a xlink:href="../../d5/dc1/timecodeburn_8h.html" target="_top" xlink:title="Declares the AJATimeCodeBurn class. ">
<polygon fill="#ffffff" stroke="#000000" points="2576.5,-515.5 2576.5,-534.5 2737.5,-534.5 2737.5,-515.5 2576.5,-515.5"/>
<text text-anchor="middle" x="2657" y="-522.5" font-family="Helvetica,sans-Serif" font-size="10.00" fill="#000000">ajabase/common/timecodeburn.h</text>
</a>
</g>
</g>
<!-- Node1&#45;&gt;Node63 -->
<g id="edge153" class="edge">
<title>Node1&#45;&gt;Node63</title>
<path fill="none" stroke="#191970" d="M1727.6498,-634.5817C1809.1745,-628.586 2023.6854,-611.9906 2202,-591 2339.3952,-574.8263 2499.3081,-550.3002 2588.27,-536.145"/>
<polygon fill="#191970" stroke="#191970" points="2588.9103,-539.5872 2598.2341,-534.5557 2587.8076,-532.6746 2588.9103,-539.5872"/>
</g>
<!-- Node64 -->
<g id="node65" class="node">
<title>Node64</title>
<g id="a_node65"><a xlink:href="../../db/dd5/thread_8h.html" target="_top" xlink:title="Declares the AJAThread class. ">
<polygon fill="#ffffff" stroke="#000000" points="1878,-403.5 1878,-422.5 2002,-422.5 2002,-403.5 1878,-403.5"/>
<text text-anchor="middle" x="1940" y="-410.5" font-family="Helvetica,sans-Serif" font-size="10.00" fill="#000000">ajabase/system/thread.h</text>
</a>
</g>
</g>
<!-- Node1&#45;&gt;Node64 -->
<g id="edge157" class="edge">
<title>Node1&#45;&gt;Node64</title>
<path fill="none" stroke="#191970" d="M1704.628,-627.4534C1714.5799,-618.3675 1729.7172,-604.166 1742,-591 1794.094,-535.1599 1792.5645,-506.9513 1852,-459 1868.4149,-445.7568 1889.2389,-434.6655 1906.5087,-426.6939"/>
<polygon fill="#191970" stroke="#191970" points="1907.9849,-429.8679 1915.6867,-422.5924 1905.1289,-423.477 1907.9849,-429.8679"/>
</g>
<!-- Node65 -->
<g id="node66" class="node">
<title>Node65</title>
<g id="a_node66"><a xlink:href="../../da/d42/process_8h.html" target="_top" xlink:title="Declares the AJAProcess class. ">
<polygon fill="#ffffff" stroke="#000000" points="1673.5,-459.5 1673.5,-478.5 1804.5,-478.5 1804.5,-459.5 1673.5,-459.5"/>
<text text-anchor="middle" x="1739" y="-466.5" font-family="Helvetica,sans-Serif" font-size="10.00" fill="#000000">ajabase/system/process.h</text>
</a>
</g>
</g>
<!-- Node1&#45;&gt;Node65 -->
<g id="edge159" class="edge">
<title>Node1&#45;&gt;Node65</title>
<path fill="none" stroke="#191970" d="M1702.6818,-627.1921C1709.9525,-618.3743 1719.9308,-604.7323 1725,-591 1737.6836,-556.6408 1739.6487,-513.4559 1739.5692,-488.7636"/>
<polygon fill="#191970" stroke="#191970" points="1743.0653,-488.477 1739.412,-478.5319 1736.0661,-488.5845 1743.0653,-488.477"/>
</g>
<!-- Node3 -->
<g id="node4" class="node">
<title>Node3</title>
<g id="a_node4"><a xlink:href="../../db/de2/ajatypes_8h.html" target="_top" xlink:title="Declares the most fundamental data types used by NTV2. Since Windows NT was the first principal devel...">
<polygon fill="#ffffff" stroke="#000000" points="663,-56.5 663,-75.5 725,-75.5 725,-56.5 663,-56.5"/>
<text text-anchor="middle" x="694" y="-63.5" font-family="Helvetica,sans-Serif" font-size="10.00" fill="#000000">ajatypes.h</text>
</a>
</g>
</g>
<!-- Node2&#45;&gt;Node3 -->
<g id="edge3" class="edge">
<title>Node2&#45;&gt;Node3</title>
<path fill="none" stroke="#191970" d="M640.3221,-112.2455C649.9223,-103.9746 663.8892,-91.9416 675.1695,-82.2232"/>
<polygon fill="#191970" stroke="#191970" points="677.516,-84.8214 682.8076,-75.6427 672.947,-79.5182 677.516,-84.8214"/>
</g>
<!-- Node6 -->
<g id="node7" class="node">
<title>Node6</title>
<g id="a_node7"><a xlink:href="../../d6/db1/ntv2version_8h.html" target="_top" xlink:title="Defines for the NTV2 SDK version number, used by ajantv2/includes/ntv2enums.h. See the ajantv2/includ...">
<polygon fill="#ffffff" stroke="#000000" points="1133.5,-56.5 1133.5,-75.5 1208.5,-75.5 1208.5,-56.5 1133.5,-56.5"/>
<text text-anchor="middle" x="1171" y="-63.5" font-family="Helvetica,sans-Serif" font-size="10.00" fill="#000000">ntv2version.h</text>
</a>
</g>
</g>
<!-- Node2&#45;&gt;Node6 -->
<g id="edge6" class="edge">
<title>Node2&#45;&gt;Node6</title>
<path fill="none" stroke="#191970" d="M665.7832,-117.4726C680.4641,-115.7044 697.5254,-113.6981 713,-112 862.5012,-95.5948 1039.7182,-78.4494 1123.1007,-70.5184"/>
<polygon fill="#191970" stroke="#191970" points="1123.6508,-73.982 1133.275,-69.5521 1122.9889,-67.0134 1123.6508,-73.982"/>
</g>
<!-- Node4 -->
<g id="node5" class="node">
<title>Node4</title>
<g id="a_node5"><a xlink:href="../../db/d40/ntv2deprecate_8h.html" target="_top" xlink:title="Deprecation control macros. ">
<polygon fill="#ffffff" stroke="#000000" points="359,-.5 359,-19.5 445,-19.5 445,-.5 359,-.5"/>
<text text-anchor="middle" x="402" y="-7.5" font-family="Helvetica,sans-Serif" font-size="10.00" fill="#000000">ntv2deprecate.h</text>
</a>
</g>
</g>
<!-- Node3&#45;&gt;Node4 -->
<g id="edge4" class="edge">
<title>Node3&#45;&gt;Node4</title>
<path fill="none" stroke="#191970" d="M662.7509,-60.007C613.2387,-50.5115 516.1626,-31.8942 455.4395,-20.2487"/>
<polygon fill="#191970" stroke="#191970" points="455.7623,-16.7469 445.282,-18.3007 454.4438,-23.6216 455.7623,-16.7469"/>
</g>
<!-- Node5 -->
<g id="node6" class="node">
<title>Node5</title>
<polygon fill="#ffffff" stroke="#bfbfbf" points="1732.5,-.5 1732.5,-19.5 1781.5,-19.5 1781.5,-.5 1732.5,-.5"/>
<text text-anchor="middle" x="1757" y="-7.5" font-family="Helvetica,sans-Serif" font-size="10.00" fill="#000000">stdint.h</text>
</g>
<!-- Node3&#45;&gt;Node5 -->
<g id="edge5" class="edge">
<title>Node3&#45;&gt;Node5</title>
<path fill="none" stroke="#191970" d="M725.2379,-64.3544C879.4455,-56.2305 1558.621,-20.4508 1721.7042,-11.8594"/>
<polygon fill="#191970" stroke="#191970" points="1722.3137,-15.3323 1732.1156,-11.3109 1721.9453,-8.342 1722.3137,-15.3323"/>
</g>
<!-- Node7 -->
<g id="node8" class="node">
<title>Node7</title>
<g id="a_node8"><a xlink:href="../../d6/dd9/ajaexport_8h.html" target="_top" xlink:title="Defines the import/export macros for producing DLLs or LIBs. ">
<polygon fill="#ffffff" stroke="#000000" points="901.5,-.5 901.5,-19.5 966.5,-19.5 966.5,-.5 901.5,-.5"/>
<text text-anchor="middle" x="934" y="-7.5" font-family="Helvetica,sans-Serif" font-size="10.00" fill="#000000">ajaexport.h</text>
</a>
</g>
</g>
<!-- Node6&#45;&gt;Node7 -->
<g id="edge7" class="edge">
<title>Node6&#45;&gt;Node7</title>
<path fill="none" stroke="#191970" d="M1133.4466,-57.1266C1090.8229,-47.0552 1021.4344,-30.6596 976.763,-20.1043"/>
<polygon fill="#191970" stroke="#191970" points="977.3351,-16.6432 966.7982,-17.7498 975.7254,-23.4556 977.3351,-16.6432"/>
</g>
<!-- Node8 -->
<g id="node9" class="node">
<title>Node8</title>
<polygon fill="#ffffff" stroke="#bfbfbf" points="2443.5,-.5 2443.5,-19.5 2484.5,-19.5 2484.5,-.5 2443.5,-.5"/>
<text text-anchor="middle" x="2464" y="-7.5" font-family="Helvetica,sans-Serif" font-size="10.00" fill="#000000">string</text>
</g>
<!-- Node6&#45;&gt;Node8 -->
<g id="edge8" class="edge">
<title>Node6&#45;&gt;Node8</title>
<path fill="none" stroke="#191970" d="M1208.6694,-58.0542C1213.4756,-57.2475 1218.3416,-56.5311 1223,-56 1467.9811,-28.0699 2265.8699,-13.328 2433.0897,-10.504"/>
<polygon fill="#191970" stroke="#191970" points="2433.2395,-14.0021 2443.1795,-10.3352 2433.1223,-7.0031 2433.2395,-14.0021"/>
</g>
<!-- Node9&#45;&gt;Node2 -->
<g id="edge12" class="edge">
<title>Node9&#45;&gt;Node2</title>
<path fill="none" stroke="#191970" d="M392.9969,-224.4509C438.8843,-204.5308 544.9329,-158.4942 597.8273,-135.5323"/>
<polygon fill="#191970" stroke="#191970" points="599.2795,-138.7175 607.0587,-131.5249 596.492,-132.2965 599.2795,-138.7175"/>
</g>
<!-- Node9&#45;&gt;Node3 -->
<g id="edge11" class="edge">
<title>Node9&#45;&gt;Node3</title>
<path fill="none" stroke="#191970" d="M355.7706,-224.2882C337.3766,-211.3347 310.5894,-187.7418 325,-168 363.927,-114.6719 564.6767,-82.6835 652.6326,-71.0312"/>
<polygon fill="#191970" stroke="#191970" points="653.3164,-74.4718 662.7813,-69.711 652.4134,-67.5303 653.3164,-74.4718"/>
</g>
<!-- Node9&#45;&gt;Node7 -->
<g id="edge10" class="edge">
<title>Node9&#45;&gt;Node7</title>
<path fill="none" stroke="#191970" d="M353.193,-224.4202C332.4928,-211.9892 302.8615,-189.3564 317,-168 387.3579,-61.7235 458.0071,-89.4316 581,-56 690.258,-26.3017 823.9177,-15.5517 891.1016,-11.8392"/>
<polygon fill="#191970" stroke="#191970" points="891.4976,-15.3233 901.2996,-11.302 891.1293,-8.333 891.4976,-15.3233"/>
</g>
<!-- Node10 -->
<g id="node11" class="node">
<title>Node10</title>
<g id="a_node11"><a xlink:href="../../d9/dfb/ntv2devicefeatures_8hh.html" target="_top" xlink:title="Declares NTV2DeviceCanDo... and NTV2DeviceGetNum... functions. This module is included at compile tim...">
<polygon fill="#ffffff" stroke="#000000" points="334.5,-168.5 334.5,-187.5 447.5,-187.5 447.5,-168.5 334.5,-168.5"/>
<text text-anchor="middle" x="391" y="-175.5" font-family="Helvetica,sans-Serif" font-size="10.00" fill="#000000">ntv2devicefeatures.hh</text>
</a>
</g>
</g>
<!-- Node9&#45;&gt;Node10 -->
<g id="edge13" class="edge">
<title>Node9&#45;&gt;Node10</title>
<path fill="none" stroke="#191970" d="M374.4837,-224.2455C377.1508,-216.7776 380.9133,-206.2427 384.1737,-197.1137"/>
<polygon fill="#191970" stroke="#191970" points="387.4889,-198.2373 387.5562,-187.6427 380.8967,-195.8829 387.4889,-198.2373"/>
</g>
<!-- Node10&#45;&gt;Node2 -->
<g id="edge15" class="edge">
<title>Node10&#45;&gt;Node2</title>
<path fill="none" stroke="#191970" d="M431.6432,-168.4369C473.5212,-158.5832 538.7055,-143.2458 582.5846,-132.9213"/>
<polygon fill="#191970" stroke="#191970" points="583.497,-136.3022 592.4295,-130.6048 581.8937,-129.4883 583.497,-136.3022"/>
</g>
<!-- Node10&#45;&gt;Node7 -->
<g id="edge14" class="edge">
<title>Node10&#45;&gt;Node7</title>
<path fill="none" stroke="#191970" d="M404.9581,-168.321C425.2244,-154.5566 464.2851,-129.1033 500,-112 565.6858,-80.544 583.5406,-74.4273 654,-56 736.6083,-34.3954 835.7114,-20.959 891.1038,-14.534"/>
<polygon fill="#191970" stroke="#191970" points="891.713,-17.9873 901.253,-13.3788 890.9213,-11.0322 891.713,-17.9873"/>
</g>
<!-- Node11&#45;&gt;Node3 -->
<g id="edge17" class="edge">
<title>Node11&#45;&gt;Node3</title>
<path fill="none" stroke="#191970" d="M1122.7417,-575.8021C932.538,-555.9228 293.0267,-477.3237 198,-311 143.5827,-215.7543 247.0227,-163.2679 344,-112 396.7604,-84.1078 571.8115,-72.0313 652.5485,-67.8494"/>
<polygon fill="#191970" stroke="#191970" points="653.0214,-71.3302 662.8333,-67.3332 652.6704,-64.339 653.0214,-71.3302"/>
</g>
<!-- Node12 -->
<g id="node13" class="node">
<title>Node12</title>
<g id="a_node13"><a xlink:href="../../dc/d1c/ntv2audiodefines_8h.html" target="_top" xlink:title="Declares common audio macros and structs used in the SDK. ">
<polygon fill="#ffffff" stroke="#000000" points="1029,-515.5 1029,-534.5 1127,-534.5 1127,-515.5 1029,-515.5"/>
<text text-anchor="middle" x="1078" y="-522.5" font-family="Helvetica,sans-Serif" font-size="10.00" fill="#000000">ntv2audiodefines.h</text>
</a>
</g>
</g>
<!-- Node11&#45;&gt;Node12 -->
<g id="edge18" class="edge">
<title>Node11&#45;&gt;Node12</title>
<path fill="none" stroke="#191970" d="M1158.9297,-571.2455C1143.753,-562.5731 1121.3379,-549.7645 1103.9437,-539.825"/>
<polygon fill="#191970" stroke="#191970" points="1105.2936,-536.5653 1094.8747,-534.6427 1101.8206,-542.643 1105.2936,-536.5653"/>
</g>
<!-- Node13 -->
<g id="node14" class="node">
<title>Node13</title>
<g id="a_node14"><a xlink:href="../../df/d4b/ntv2card_8h.html" target="_top" xlink:title="Declares the CNTV2Card class. ">
<polygon fill="#ffffff" stroke="#000000" points="1145,-515.5 1145,-534.5 1207,-534.5 1207,-515.5 1145,-515.5"/>
<text text-anchor="middle" x="1176" y="-522.5" font-family="Helvetica,sans-Serif" font-size="10.00" fill="#000000">ntv2card.h</text>
</a>
</g>
</g>
<!-- Node11&#45;&gt;Node13 -->
<g id="edge19" class="edge">
<title>Node11&#45;&gt;Node13</title>
<path fill="none" stroke="#191970" d="M1176,-571.2455C1176,-563.9382 1176,-553.6944 1176,-544.7046"/>
<polygon fill="#191970" stroke="#191970" points="1179.5001,-544.6426 1176,-534.6427 1172.5001,-544.6427 1179.5001,-544.6426"/>
</g>
<!-- Node19 -->
<g id="node20" class="node">
<title>Node19</title>
<polygon fill="#ffffff" stroke="#bfbfbf" points="1543,-112.5 1543,-131.5 1587,-131.5 1587,-112.5 1543,-112.5"/>
<text text-anchor="middle" x="1565" y="-119.5" font-family="Helvetica,sans-Serif" font-size="10.00" fill="#000000">vector</text>
</g>
<!-- Node11&#45;&gt;Node19 -->
<g id="edge94" class="edge">
<title>Node11&#45;&gt;Node19</title>
<path fill="none" stroke="#191970" d="M1184.6941,-571.2242C1192.8724,-561.9762 1205.4092,-547.6652 1216,-535 1309.2822,-423.4469 1309.7548,-373.6492 1421,-280 1446.2637,-258.7323 1461.8588,-266.5337 1486,-244 1518.7321,-213.4475 1544.0436,-166.6346 1556.4954,-140.782"/>
<polygon fill="#191970" stroke="#191970" points="1559.6859,-142.2219 1560.7616,-131.6818 1553.3478,-139.2505 1559.6859,-142.2219"/>
</g>
<!-- Node14 -->
<g id="node15" class="node">
<title>Node14</title>
<g id="a_node15"><a xlink:href="../../d3/d7d/ntv2macdriverinterface_8h.html" target="_top" xlink:title="Implements the MacOS&#45;specific flavor of CNTV2DriverInterface. ">
<polygon fill="#ffffff" stroke="#000000" points="958,-459.5 958,-478.5 1082,-478.5 1082,-459.5 958,-459.5"/>
<text text-anchor="middle" x="1020" y="-466.5" font-family="Helvetica,sans-Serif" font-size="10.00" fill="#000000">ntv2macdriverinterface.h</text>
</a>
</g>
</g>
<!-- Node13&#45;&gt;Node14 -->
<g id="edge20" class="edge">
<title>Node13&#45;&gt;Node14</title>
<path fill="none" stroke="#191970" d="M1149.1826,-515.3733C1123.4668,-506.1419 1084.462,-492.1402 1056.0401,-481.9375"/>
<polygon fill="#191970" stroke="#191970" points="1057.0619,-478.5857 1046.4674,-478.5011 1054.6968,-485.174 1057.0619,-478.5857"/>
</g>
<!-- Node13&#45;&gt;Node30 -->
<g id="edge91" class="edge">
<title>Node13&#45;&gt;Node30</title>
<path fill="none" stroke="#191970" d="M1144.5955,-516.9762C1141.6944,-516.2872 1138.7958,-515.6181 1136,-515 1053.3584,-496.7294 1009.1097,-538.5842 949,-479 904.4469,-434.8364 906.0457,-352.9435 909.5278,-315.3288"/>
<polygon fill="#191970" stroke="#191970" points="913.0312,-315.4844 910.6199,-305.1676 906.0712,-314.7363 913.0312,-315.4844"/>
</g>
<!-- Node41 -->
<g id="node42" class="node">
<title>Node41</title>
<g id="a_node42"><a xlink:href="../../dc/d95/ntv2signalrouter_8h.html" target="_top" xlink:title="Declares CNTV2SignalRouter class. ">
<polygon fill="#ffffff" stroke="#000000" points="2021.5,-224.5 2021.5,-243.5 2114.5,-243.5 2114.5,-224.5 2021.5,-224.5"/>
<text text-anchor="middle" x="2068" y="-231.5" font-family="Helvetica,sans-Serif" font-size="10.00" fill="#000000">ntv2signalrouter.h</text>
</a>
</g>
</g>
<!-- Node13&#45;&gt;Node41 -->
<g id="edge84" class="edge">
<title>Node13&#45;&gt;Node41</title>
<path fill="none" stroke="#191970" d="M1207.022,-519.1693C1304.3805,-500.9496 1612.6411,-443.8659 1869,-403 1980.7264,-385.1898 2010.7992,-392.6084 2121,-367 2199.3076,-348.8029 2245.765,-376.0543 2293,-311 2301.095,-299.8511 2301.7122,-290.6736 2293,-280 2272.1463,-254.4515 2184.2872,-242.7134 2124.7301,-237.6056"/>
<polygon fill="#191970" stroke="#191970" points="2124.9486,-234.1118 2114.6963,-236.7843 2124.3775,-241.0885 2124.9486,-234.1118"/>
</g>
<!-- Node44 -->
<g id="node45" class="node">
<title>Node44</title>
<g id="a_node45"><a xlink:href="../../d8/d58/ntv2devicecapabilities_8h.html" target="_top" xlink:title="Declares the DeviceCapabilities class. ">
<polygon fill="#ffffff" stroke="#000000" points="1100.5,-459.5 1100.5,-478.5 1221.5,-478.5 1221.5,-459.5 1100.5,-459.5"/>
<text text-anchor="middle" x="1161" y="-466.5" font-family="Helvetica,sans-Serif" font-size="10.00" fill="#000000">ntv2devicecapabilities.h</text>
</a>
</g>
</g>
<!-- Node13&#45;&gt;Node44 -->
<g id="edge92" class="edge">
<title>Node13&#45;&gt;Node44</title>
<path fill="none" stroke="#191970" d="M1173.3872,-515.2455C1171.4084,-507.8579 1168.6256,-497.4689 1166.1988,-488.4087"/>
<polygon fill="#191970" stroke="#191970" points="1169.5511,-487.3966 1163.5829,-478.6427 1162.7895,-489.2078 1169.5511,-487.3966"/>
</g>
<!-- Node15 -->
<g id="node16" class="node">
<title>Node15</title>
<g id="a_node16"><a xlink:href="../../d4/dd7/ntv2publicinterface_8h.html" target="_top" xlink:title="Declares enums and structs used by all platform drivers and the SDK. ">
<polygon fill="#ffffff" stroke="#000000" points="1230.5,-168.5 1230.5,-187.5 1337.5,-187.5 1337.5,-168.5 1230.5,-168.5"/>
<text text-anchor="middle" x="1284" y="-175.5" font-family="Helvetica,sans-Serif" font-size="10.00" fill="#000000">ntv2publicinterface.h</text>
</a>
</g>
</g>
<!-- Node14&#45;&gt;Node15 -->
<g id="edge21" class="edge">
<title>Node14&#45;&gt;Node15</title>
<path fill="none" stroke="#191970" d="M1081.2779,-459.4927C1137.468,-446.8809 1212,-418.5512 1212,-357 1212,-357 1212,-357 1212,-295.5 1212,-261.9798 1218.0454,-252.3061 1236,-224 1243.1726,-212.6922 1253.7022,-202.1861 1263.0731,-194.0774"/>
<polygon fill="#191970" stroke="#191970" points="1265.4199,-196.6786 1270.8964,-187.6089 1260.9593,-191.2838 1265.4199,-196.6786"/>
</g>
<!-- Node24 -->
<g id="node25" class="node">
<title>Node24</title>
<g id="a_node25"><a xlink:href="../../da/d23/ntv2macpublicinterface_8h.html" target="_top" xlink:title="Declares MacOS&#45;only enums used by the Mac driver and the SDK. ">
<polygon fill="#ffffff" stroke="#000000" points="580.5,-403.5 580.5,-422.5 705.5,-422.5 705.5,-403.5 580.5,-403.5"/>
<text text-anchor="middle" x="643" y="-410.5" font-family="Helvetica,sans-Serif" font-size="10.00" fill="#000000">ntv2macpublicinterface.h</text>
</a>
</g>
</g>
<!-- Node14&#45;&gt;Node24 -->
<g id="edge35" class="edge">
<title>Node14&#45;&gt;Node24</title>
<path fill="none" stroke="#191970" d="M957.7461,-459.7527C891.2681,-449.878 786.0195,-434.2443 715.7635,-423.8084"/>
<polygon fill="#191970" stroke="#191970" points="716.0663,-420.315 705.6605,-422.3077 715.0377,-427.2391 716.0663,-420.315"/>
</g>
<!-- Node26 -->
<g id="node27" class="node">
<title>Node26</title>
<g id="a_node27"><a xlink:href="../../d4/dc0/ntv2driverinterface_8h.html" target="_top" xlink:title="Declares the CNTV2DriverInterface base class. ">
<polygon fill="#ffffff" stroke="#000000" points="998.5,-403.5 998.5,-422.5 1103.5,-422.5 1103.5,-403.5 998.5,-403.5"/>
<text text-anchor="middle" x="1051" y="-410.5" font-family="Helvetica,sans-Serif" font-size="10.00" fill="#000000">ntv2driverinterface.h</text>
</a>
</g>
</g>
<!-- Node14&#45;&gt;Node26 -->
<g id="edge38" class="edge">
<title>Node14&#45;&gt;Node26</title>
<path fill="none" stroke="#191970" d="M1025.3998,-459.2455C1029.6227,-451.617 1035.6173,-440.7881 1040.7441,-431.5267"/>
<polygon fill="#191970" stroke="#191970" points="1043.881,-433.0867 1045.6621,-422.6427 1037.7568,-429.6965 1043.881,-433.0867"/>
</g>
<!-- Node15&#45;&gt;Node2 -->
<g id="edge23" class="edge">
<title>Node15&#45;&gt;Node2</title>
<path fill="none" stroke="#191970" d="M1230.4075,-174.3668C1129.1908,-167.3532 903.0067,-150.9565 713,-132 700.898,-130.7926 687.8356,-129.3199 675.7006,-127.88"/>
<polygon fill="#191970" stroke="#191970" points="676.1132,-124.4044 665.7667,-126.6846 675.2769,-131.3543 676.1132,-124.4044"/>
</g>
<!-- Node15&#45;&gt;Node3 -->
<g id="edge22" class="edge">
<title>Node15&#45;&gt;Node3</title>
<path fill="none" stroke="#191970" d="M1267.086,-168.4603C1239.9524,-153.647 1184.5993,-125.4246 1134,-112 1059.2256,-92.1615 829.6741,-75.0608 735.238,-68.6736"/>
<polygon fill="#191970" stroke="#191970" points="735.4142,-65.1777 725.2024,-68.0009 734.9459,-72.162 735.4142,-65.1777"/>
</g>
<!-- Node15&#45;&gt;Node7 -->
<g id="edge32" class="edge">
<title>Node15&#45;&gt;Node7</title>
<path fill="none" stroke="#191970" d="M1269.725,-168.322C1249.4238,-154.7818 1210.8064,-129.8437 1176,-112 1104.9784,-75.5904 1017.9339,-41.2822 969.9859,-23.2253"/>
<polygon fill="#191970" stroke="#191970" points="970.9599,-19.8528 960.3676,-19.6239 968.5053,-26.4083 970.9599,-19.8528"/>
</g>
<!-- Node15&#45;&gt;Node8 -->
<g id="edge28" class="edge">
<title>Node15&#45;&gt;Node8</title>
<path fill="none" stroke="#191970" d="M1318.3223,-168.3779C1376.5738,-152.1421 1492.5064,-120.2645 1534,-112 1882.7274,-42.542 2315.109,-17.2877 2433.0609,-11.4285"/>
<polygon fill="#191970" stroke="#191970" points="2433.3585,-14.9183 2443.1763,-10.9357 2433.0179,-7.9265 2433.3585,-14.9183"/>
</g>
<!-- Node15&#45;&gt;Node16 -->
<g id="edge24" class="edge">
<title>Node15&#45;&gt;Node16</title>
<path fill="none" stroke="#191970" d="M1245.0645,-168.4369C1202.53,-157.9898 1134.8984,-141.3785 1093.1021,-131.1128"/>
<polygon fill="#191970" stroke="#191970" points="1093.8652,-127.6963 1083.319,-128.7099 1092.1955,-134.4942 1093.8652,-127.6963"/>
</g>
<!-- Node15&#45;&gt;Node17 -->
<g id="edge25" class="edge">
<title>Node15&#45;&gt;Node17</title>
<path fill="none" stroke="#191970" d="M1337.6029,-174.9494C1519.9799,-164.5703 2112.341,-130.8586 2242.5409,-123.4489"/>
<polygon fill="#191970" stroke="#191970" points="2242.9409,-126.9319 2252.7258,-122.8693 2242.5431,-119.9432 2242.9409,-126.9319"/>
</g>
<!-- Node18 -->
<g id="node19" class="node">
<title>Node18</title>
<polygon fill="#ffffff" stroke="#bfbfbf" points="1728.5,-112.5 1728.5,-131.5 1763.5,-131.5 1763.5,-112.5 1728.5,-112.5"/>
<text text-anchor="middle" x="1746" y="-119.5" font-family="Helvetica,sans-Serif" font-size="10.00" fill="#000000">map</text>
</g>
<!-- Node15&#45;&gt;Node18 -->
<g id="edge26" class="edge">
<title>Node15&#45;&gt;Node18</title>
<path fill="none" stroke="#191970" d="M1337.9015,-171.4665C1436.5902,-159.5042 1643.0565,-134.478 1718.0321,-125.3901"/>
<polygon fill="#191970" stroke="#191970" points="1718.6053,-128.8463 1728.1115,-124.1683 1717.763,-121.8971 1718.6053,-128.8463"/>
</g>
<!-- Node15&#45;&gt;Node19 -->
<g id="edge27" class="edge">
<title>Node15&#45;&gt;Node19</title>
<path fill="none" stroke="#191970" d="M1337.5475,-168.8231C1386.7179,-160.1591 1461.5105,-146.382 1526,-132 1528.3025,-131.4865 1530.6758,-130.9346 1533.0611,-130.3633"/>
<polygon fill="#191970" stroke="#191970" points="1533.9194,-133.7566 1542.7844,-127.9548 1532.2362,-126.962 1533.9194,-133.7566"/>
</g>
<!-- Node20 -->
<g id="node21" class="node">
<title>Node20</title>
<polygon fill="#ffffff" stroke="#bfbfbf" points="1262,-112.5 1262,-131.5 1312,-131.5 1312,-112.5 1262,-112.5"/>
<text text-anchor="middle" x="1287" y="-119.5" font-family="Helvetica,sans-Serif" font-size="10.00" fill="#000000">iomanip</text>
</g>
<!-- Node15&#45;&gt;Node20 -->
<g id="edge29" class="edge">
<title>Node15&#45;&gt;Node20</title>
<path fill="none" stroke="#191970" d="M1284.5226,-168.2455C1284.914,-160.9382 1285.4628,-150.6944 1285.9444,-141.7046"/>
<polygon fill="#191970" stroke="#191970" points="1289.4434,-141.8156 1286.4834,-131.6427 1282.4534,-141.4411 1289.4434,-141.8156"/>
</g>
<!-- Node21 -->
<g id="node22" class="node">
<title>Node21</title>
<polygon fill="#ffffff" stroke="#bfbfbf" points="1330.5,-112.5 1330.5,-131.5 1371.5,-131.5 1371.5,-112.5 1330.5,-112.5"/>
<text text-anchor="middle" x="1351" y="-119.5" font-family="Helvetica,sans-Serif" font-size="10.00" fill="#000000">bitset</text>
</g>
<!-- Node15&#45;&gt;Node21 -->
<g id="edge30" class="edge">
<title>Node15&#45;&gt;Node21</title>
<path fill="none" stroke="#191970" d="M1295.6705,-168.2455C1305.5661,-159.9746 1319.9627,-147.9416 1331.5901,-138.2232"/>
<polygon fill="#191970" stroke="#191970" points="1334.035,-140.7413 1339.4632,-131.6427 1329.5458,-135.3703 1334.035,-140.7413"/>
</g>
<!-- Node22 -->
<g id="node23" class="node">
<title>Node22</title>
<polygon fill="#ffffff" stroke="#bfbfbf" points="1389.5,-112.5 1389.5,-131.5 1438.5,-131.5 1438.5,-112.5 1389.5,-112.5"/>
<text text-anchor="middle" x="1414" y="-119.5" font-family="Helvetica,sans-Serif" font-size="10.00" fill="#000000">string.h</text>
</g>
<!-- Node15&#45;&gt;Node22 -->
<g id="edge31" class="edge">
<title>Node15&#45;&gt;Node22</title>
<path fill="none" stroke="#191970" d="M1306.3478,-168.3733C1327.4033,-159.3032 1359.1495,-145.6279 1382.7175,-135.4755"/>
<polygon fill="#191970" stroke="#191970" points="1384.1444,-138.6719 1391.9438,-131.5011 1381.375,-132.243 1384.1444,-138.6719"/>
</g>
<!-- Node23 -->
<g id="node24" class="node">
<title>Node23</title>
<g id="a_node24"><a xlink:href="../../da/df0/ntv2virtualregisters_8h.html" target="_top" xlink:title="Declares enums for virtual registers used in all platform drivers and the SDK. ">
<polygon fill="#ffffff" stroke="#000000" points="722.5,-112.5 722.5,-131.5 829.5,-131.5 829.5,-112.5 722.5,-112.5"/>
<text text-anchor="middle" x="776" y="-119.5" font-family="Helvetica,sans-Serif" font-size="10.00" fill="#000000">ntv2virtualregisters.h</text>
</a>
</g>
</g>
<!-- Node15&#45;&gt;Node23 -->
<g id="edge33" class="edge">
<title>Node15&#45;&gt;Node23</title>
<path fill="none" stroke="#191970" d="M1230.116,-172.06C1135.6871,-161.6505 940.7663,-140.1632 839.7776,-129.0306"/>
<polygon fill="#191970" stroke="#191970" points="840.0363,-125.538 829.713,-127.9211 839.2692,-132.4959 840.0363,-125.538"/>
</g>
<!-- Node23&#45;&gt;Node3 -->
<g id="edge34" class="edge">
<title>Node23&#45;&gt;Node3</title>
<path fill="none" stroke="#191970" d="M761.7167,-112.2455C749.253,-103.7337 730.9549,-91.2375 716.5208,-81.3801"/>
<polygon fill="#191970" stroke="#191970" points="718.3515,-78.392 708.1196,-75.6427 714.4038,-84.1726 718.3515,-78.392"/>
</g>
<!-- Node24&#45;&gt;Node23 -->
<g id="edge37" class="edge">
<title>Node24&#45;&gt;Node23</title>
<path fill="none" stroke="#191970" d="M634.2642,-403.4759C626.5841,-394.63 615.6262,-380.7834 609,-367 594.7537,-337.3659 590,-328.3806 590,-295.5 590,-295.5 590,-295.5 590,-234 590,-175.4491 658.4786,-146.7171 712.3349,-133.1742"/>
<polygon fill="#191970" stroke="#191970" points="713.2874,-136.5453 722.2011,-130.8185 711.6616,-129.7367 713.2874,-136.5453"/>
</g>
<!-- Node25 -->
<g id="node26" class="node">
<title>Node25</title>
<polygon fill="#ffffff" stroke="#bfbfbf" points="618,-347.5 618,-366.5 704,-366.5 704,-347.5 618,-347.5"/>
<text text-anchor="middle" x="661" y="-354.5" font-family="Helvetica,sans-Serif" font-size="10.00" fill="#000000">IOKit/IOKitLib.h</text>
</g>
<!-- Node24&#45;&gt;Node25 -->
<g id="edge36" class="edge">
<title>Node24&#45;&gt;Node25</title>
<path fill="none" stroke="#191970" d="M646.1354,-403.2455C648.51,-395.8579 651.8493,-385.4689 654.7615,-376.4087"/>
<polygon fill="#191970" stroke="#191970" points="658.1725,-377.234 657.9006,-366.6427 651.5083,-375.0919 658.1725,-377.234"/>
</g>
<!-- Node26&#45;&gt;Node2 -->
<g id="edge40" class="edge">
<title>Node26&#45;&gt;Node2</title>
<path fill="none" stroke="#191970" d="M1003.2528,-403.4347C924.4144,-385.359 766.2819,-339.1525 671,-244 642.9845,-216.0226 633.6334,-168.5215 630.5285,-141.7928"/>
<polygon fill="#191970" stroke="#191970" points="634.0009,-141.3387 629.5441,-131.7269 627.0341,-142.0201 634.0009,-141.3387"/>
</g>
<!-- Node26&#45;&gt;Node3 -->
<g id="edge39" class="edge">
<title>Node26&#45;&gt;Node3</title>
<path fill="none" stroke="#191970" d="M998.3038,-405.5534C952.955,-398.3169 886.1562,-385.667 830,-367 802.075,-357.7174 733.4809,-328.7376 710,-311 626.2809,-247.7583 524.7165,-199.2435 583,-112 598.5314,-88.7512 628.227,-77.2374 652.9974,-71.5435"/>
<polygon fill="#191970" stroke="#191970" points="653.8154,-74.9486 662.9054,-69.506 652.4054,-68.0921 653.8154,-74.9486"/>
</g>
<!-- Node26&#45;&gt;Node8 -->
<g id="edge82" class="edge">
<title>Node26&#45;&gt;Node8</title>
<path fill="none" stroke="#191970" d="M1103.6169,-412.6372C1413.7811,-410.1629 2990,-392.8017 2990,-295.5 2990,-295.5 2990,-295.5 2990,-122 2990,-87.6999 2979.0582,-74.2241 2950,-56 2911.4654,-31.8327 2595.7927,-15.8497 2494.888,-11.3196"/>
<polygon fill="#191970" stroke="#191970" points="2494.8822,-7.816 2484.7372,-10.8702 2494.5726,-14.8092 2494.8822,-7.816"/>
</g>
<!-- Node26&#45;&gt;Node9 -->
<g id="edge80" class="edge">
<title>Node26&#45;&gt;Node9</title>
<path fill="none" stroke="#191970" d="M998.4252,-405.5516C946.1981,-397.6935 864.0153,-384.0869 794,-367 648.2878,-331.4397 479.3539,-272.9689 406.9477,-247.0588"/>
<polygon fill="#191970" stroke="#191970" points="407.9784,-243.7102 397.3839,-243.6247 405.6127,-250.2983 407.9784,-243.7102"/>
</g>
<!-- Node26&#45;&gt;Node15 -->
<g id="edge78" class="edge">
<title>Node26&#45;&gt;Node15</title>
<path fill="none" stroke="#191970" d="M1067.721,-403.4503C1081.3388,-395.0894 1100.4592,-381.9609 1114,-367 1163.4622,-312.3504 1144.8489,-275.0691 1198,-224 1212.2891,-210.2707 1231.4866,-199.4806 1248.1185,-191.8118"/>
<polygon fill="#191970" stroke="#191970" points="1249.8145,-194.8895 1257.5582,-187.6585 1246.9954,-188.4822 1249.8145,-194.8895"/>
</g>
<!-- Node27 -->
<g id="node28" class="node">
<title>Node27</title>
<g id="a_node28"><a xlink:href="../../d8/de5/ntv2nubtypes_8h.html" target="_top" xlink:title="Declares data types and structures used in NTV2 &quot;nub&quot; packets. ">
<polygon fill="#ffffff" stroke="#000000" points="953.5,-347.5 953.5,-366.5 1036.5,-366.5 1036.5,-347.5 953.5,-347.5"/>
<text text-anchor="middle" x="995" y="-354.5" font-family="Helvetica,sans-Serif" font-size="10.00" fill="#000000">ntv2nubtypes.h</text>
</a>
</g>
</g>
<!-- Node26&#45;&gt;Node27 -->
<g id="edge41" class="edge">
<title>Node26&#45;&gt;Node27</title>
<path fill="none" stroke="#191970" d="M1041.2455,-403.2455C1033.1352,-395.1352 1021.4075,-383.4075 1011.7919,-373.7919"/>
<polygon fill="#191970" stroke="#191970" points="1014.1887,-371.2389 1004.6427,-366.6427 1009.2389,-376.1887 1014.1887,-371.2389"/>
</g>
<!-- Node29 -->
<g id="node30" class="node">
<title>Node29</title>
<g id="a_node30"><a xlink:href="../../d6/d8f/ntv2nubaccess_8h.html" target="_top" xlink:title="Declares NTV2 &quot;nub&quot; client functions. ">
<polygon fill="#ffffff" stroke="#000000" points="1575.5,-347.5 1575.5,-366.5 1666.5,-366.5 1666.5,-347.5 1575.5,-347.5"/>
<text text-anchor="middle" x="1621" y="-354.5" font-family="Helvetica,sans-Serif" font-size="10.00" fill="#000000">ntv2nubaccess.h</text>
</a>
</g>
</g>
<!-- Node26&#45;&gt;Node29 -->
<g id="edge45" class="edge">
<title>Node26&#45;&gt;Node29</title>
<path fill="none" stroke="#191970" d="M1103.6025,-407.832C1211.0659,-397.2742 1454.9301,-373.3156 1565.1117,-362.4908"/>
<polygon fill="#191970" stroke="#191970" points="1565.7382,-365.9462 1575.348,-361.4851 1565.0537,-358.9797 1565.7382,-365.9462"/>
</g>
<!-- Node26&#45;&gt;Node30 -->
<g id="edge79" class="edge">
<title>Node26&#45;&gt;Node30</title>
<path fill="none" stroke="#191970" d="M1010.8074,-403.4601C988.7688,-396.4853 962.2922,-385.0235 944,-367 929.5175,-352.7302 921.0369,-330.7429 916.4872,-314.9184"/>
<polygon fill="#191970" stroke="#191970" points="919.8431,-313.9162 913.94,-305.1182 913.0682,-315.6771 919.8431,-313.9162"/>
</g>
<!-- Node34 -->
<g id="node35" class="node">
<title>Node34</title>
<g id="a_node35"><a xlink:href="../../dd/d42/lock_8h.html" target="_top" xlink:title="Declares the AJALock class. ">
<polygon fill="#ffffff" stroke="#000000" points="1668.5,-286 1668.5,-305 1783.5,-305 1783.5,-286 1668.5,-286"/>
<text text-anchor="middle" x="1726" y="-293" font-family="Helvetica,sans-Serif" font-size="10.00" fill="#000000">ajabase/system/lock.h</text>
</a>
</g>
</g>
<!-- Node26&#45;&gt;Node34 -->
<g id="edge81" class="edge">
<title>Node26&#45;&gt;Node34</title>
<path fill="none" stroke="#191970" d="M1103.6484,-411.6686C1245.0586,-407.7365 1625.7978,-394.6767 1675,-367 1695.5796,-355.4238 1709.9235,-331.6891 1718.0453,-314.7418"/>
<polygon fill="#191970" stroke="#191970" points="1721.4089,-315.7937 1722.2982,-305.2362 1715.0193,-312.9348 1721.4089,-315.7937"/>
</g>
<!-- Node40 -->
<g id="node41" class="node">
<title>Node40</title>
<polygon fill="#ffffff" stroke="#bfbfbf" points="1054.5,-347.5 1054.5,-366.5 1105.5,-366.5 1105.5,-347.5 1054.5,-347.5"/>
<text text-anchor="middle" x="1080" y="-354.5" font-family="Helvetica,sans-Serif" font-size="10.00" fill="#000000">unistd.h</text>
</g>
<!-- Node26&#45;&gt;Node40 -->
<g id="edge83" class="edge">
<title>Node26&#45;&gt;Node40</title>
<path fill="none" stroke="#191970" d="M1056.0514,-403.2455C1060.0019,-395.617 1065.6097,-384.7881 1070.4058,-375.5267"/>
<polygon fill="#191970" stroke="#191970" points="1073.5159,-377.1321 1075.0065,-366.6427 1067.2999,-373.9131 1073.5159,-377.1321"/>
</g>
<!-- Node27&#45;&gt;Node19 -->
<g id="edge44" class="edge">
<title>Node27&#45;&gt;Node19</title>
<path fill="none" stroke="#191970" d="M1036.7953,-348.5102C1144.2319,-326.4534 1424.1366,-267.4279 1460,-244 1495.5728,-220.762 1489.8546,-199.8319 1518,-168 1527.0081,-157.812 1537.8082,-147.1464 1546.7827,-138.6531"/>
<polygon fill="#191970" stroke="#191970" points="1549.1865,-141.1973 1554.1086,-131.8151 1544.41,-136.08 1549.1865,-141.1973"/>
</g>
<!-- Node27&#45;&gt;Node28 -->
<g id="edge42" class="edge">
<title>Node27&#45;&gt;Node28</title>
<path fill="none" stroke="#191970" d="M953.4981,-353.6059C823.5594,-342.9793 425.1388,-310.3957 289.0926,-299.2695"/>
<polygon fill="#191970" stroke="#191970" points="289.2554,-295.7713 279.0033,-298.4444 288.6848,-302.748 289.2554,-295.7713"/>
</g>
<!-- Node28&#45;&gt;Node3 -->
<g id="edge43" class="edge">
<title>Node28&#45;&gt;Node3</title>
<path fill="none" stroke="#191970" d="M246.4118,-285.6804C258.3646,-253.0561 301.8583,-148.298 379,-112 426.7235,-89.5443 578.3812,-75.0032 652.4673,-69.0573"/>
<polygon fill="#191970" stroke="#191970" points="653.1193,-72.5169 662.8136,-68.2425 652.5696,-65.5385 653.1193,-72.5169"/>
</g>
<!-- Node29&#45;&gt;Node8 -->
<g id="edge75" class="edge">
<title>Node29&#45;&gt;Node8</title>
<path fill="none" stroke="#191970" d="M1666.6643,-355.0076C1781.732,-349.67 2077.1245,-333.8839 2115,-311 2160.1071,-283.7469 2204.2451,-146.5967 2244,-112 2301.6002,-61.8734 2388.0118,-31.5757 2433.4975,-18.171"/>
<polygon fill="#191970" stroke="#191970" points="2434.7018,-21.4668 2443.3488,-15.3447 2432.7714,-14.7382 2434.7018,-21.4668"/>
</g>
<!-- Node29&#45;&gt;Node18 -->
<g id="edge77" class="edge">
<title>Node29&#45;&gt;Node18</title>
<path fill="none" stroke="#191970" d="M1625.544,-347.4476C1632.5381,-332.8246 1646.45,-304.0543 1659,-280 1685.6779,-228.8669 1719.0011,-169.5269 1735.5988,-140.2559"/>
<polygon fill="#191970" stroke="#191970" points="1738.6555,-141.9609 1740.5526,-131.5373 1732.5693,-138.5028 1738.6555,-141.9609"/>
</g>
<!-- Node29&#45;&gt;Node19 -->
<g id="edge76" class="edge">
<title>Node29&#45;&gt;Node19</title>
<path fill="none" stroke="#191970" d="M1618.8013,-347.1402C1612.5216,-319.0734 1593.8709,-236.361 1577,-168 1574.855,-159.3084 1572.3734,-149.724 1570.2255,-141.5636"/>
<polygon fill="#191970" stroke="#191970" points="1573.5964,-140.6204 1567.6505,-131.8514 1566.8302,-142.4144 1573.5964,-140.6204"/>
</g>
<!-- Node29&#45;&gt;Node30 -->
<g id="edge46" class="edge">
<title>Node29&#45;&gt;Node30</title>
<path fill="none" stroke="#191970" d="M1575.2989,-353.0358C1445.7061,-341.7947 1077.2317,-309.8325 953.2701,-299.0798"/>
<polygon fill="#191970" stroke="#191970" points="953.3314,-295.5721 943.0663,-298.1947 952.7264,-302.5459 953.3314,-295.5721"/>
</g>
<!-- Node29&#45;&gt;Node34 -->
<g id="edge65" class="edge">
<title>Node29&#45;&gt;Node34</title>
<path fill="none" stroke="#191970" d="M1637.4063,-347.3906C1654.4353,-337.4165 1681.2841,-321.6908 1700.9651,-310.1633"/>
<polygon fill="#191970" stroke="#191970" points="1702.849,-313.1161 1709.709,-305.0419 1699.3112,-307.0759 1702.849,-313.1161"/>
</g>
<!-- Node30&#45;&gt;Node2 -->
<g id="edge49" class="edge">
<title>Node30&#45;&gt;Node2</title>
<path fill="none" stroke="#191970" d="M880.802,-291.578C826.9397,-284.2763 719.4409,-267.2074 690,-244 672.6987,-230.3618 648.3237,-172.102 636.2968,-141.2875"/>
<polygon fill="#191970" stroke="#191970" points="639.4467,-139.7273 632.5895,-131.6508 632.9134,-142.2407 639.4467,-139.7273"/>
</g>
<!-- Node30&#45;&gt;Node3 -->
<g id="edge48" class="edge">
<title>Node30&#45;&gt;Node3</title>
<path fill="none" stroke="#191970" d="M880.8799,-292.3768C846.1794,-287.4463 790.0716,-274.9794 753,-244 704.7776,-203.7023 695.7323,-122.9724 694.2001,-85.6959"/>
<polygon fill="#191970" stroke="#191970" points="697.6967,-85.5182 693.9308,-75.6153 690.6992,-85.7052 697.6967,-85.5182"/>
</g>
<!-- Node30&#45;&gt;Node7 -->
<g id="edge47" class="edge">
<title>Node30&#45;&gt;Node7</title>
<path fill="none" stroke="#191970" d="M880.6444,-295.2475C762.2358,-293.9737 347.0187,-286.4872 308,-244 266.8683,-199.212 298.1771,-151.9755 344,-112 391.0988,-70.9114 412.5108,-71.7362 473,-56 551.4844,-35.5824 792.3643,-18.7889 891.1025,-12.5787"/>
<polygon fill="#191970" stroke="#191970" points="891.5519,-16.0576 901.3148,-11.9423 891.1165,-9.0711 891.5519,-16.0576"/>
</g>
<!-- Node30&#45;&gt;Node8 -->
<g id="edge62" class="edge">
<title>Node30&#45;&gt;Node8</title>
<path fill="none" stroke="#191970" d="M940.0526,-285.929C966.6128,-276.4901 1007.325,-261.0368 1041,-244 1065.7601,-231.4735 1226.7931,-121.1199 1253,-112 1480.6616,-32.7743 2266.7086,-13.7159 2432.9602,-10.5355"/>
<polygon fill="#191970" stroke="#191970" points="2433.491,-14.0264 2443.4241,-10.3409 2433.3608,-7.0276 2433.491,-14.0264"/>
</g>
<!-- Node30&#45;&gt;Node15 -->
<g id="edge52" class="edge">
<title>Node30&#45;&gt;Node15</title>
<path fill="none" stroke="#191970" d="M942.1272,-285.984C1008.9215,-264.8864 1169.4353,-214.1864 1244.3017,-190.5391"/>
<polygon fill="#191970" stroke="#191970" points="1245.3702,-193.8722 1253.8516,-187.5227 1243.2618,-187.1972 1245.3702,-193.8722"/>
</g>
<!-- Node30&#45;&gt;Node16 -->
<g id="edge63" class="edge">
<title>Node30&#45;&gt;Node16</title>
<path fill="none" stroke="#191970" d="M912.0145,-285.9729C912.5353,-271.032 915.6236,-241.9467 931,-224 956.8965,-193.7747 982.6483,-213.7482 1013,-188 1028.2519,-175.0614 1040.1112,-155.3657 1047.4765,-140.8561"/>
<polygon fill="#191970" stroke="#191970" points="1050.6588,-142.3148 1051.8441,-131.7864 1044.3519,-139.2776 1050.6588,-142.3148"/>
</g>
<!-- Node30&#45;&gt;Node19 -->
<g id="edge64" class="edge">
<title>Node30&#45;&gt;Node19</title>
<path fill="none" stroke="#191970" d="M943.0405,-294.1137C1049.4916,-289.1342 1395.4995,-271.0032 1437,-244 1469.5295,-222.834 1452.3003,-195.1827 1480,-168 1495.2582,-153.0266 1516.3823,-141.5636 1533.7543,-133.8256"/>
<polygon fill="#191970" stroke="#191970" points="1535.1258,-137.0458 1542.9584,-129.9113 1532.3862,-130.6041 1535.1258,-137.0458"/>
</g>
<!-- Node31 -->
<g id="node32" class="node">
<title>Node31</title>
<g id="a_node32"><a xlink:href="../../d9/d61/ntv2videodefines_8h.html" target="_top" xlink:title="Declares common video macros and structs used in the SDK. ">
<polygon fill="#ffffff" stroke="#000000" points="732,-168.5 732,-187.5 830,-187.5 830,-168.5 732,-168.5"/>
<text text-anchor="middle" x="781" y="-175.5" font-family="Helvetica,sans-Serif" font-size="10.00" fill="#000000">ntv2videodefines.h</text>
</a>
</g>
</g>
<!-- Node30&#45;&gt;Node31 -->
<g id="edge50" class="edge">
<title>Node30&#45;&gt;Node31</title>
<path fill="none" stroke="#191970" d="M880.7926,-289.2891C840.8607,-280.6349 775.1429,-263.7664 761,-244 750.8272,-229.7823 758.7655,-210.3119 767.4642,-196.2061"/>
<polygon fill="#191970" stroke="#191970" points="770.428,-198.0709 773.1076,-187.8205 764.6206,-194.1626 770.428,-198.0709"/>
</g>
<!-- Node30&#45;&gt;Node32 -->
<g id="edge53" class="edge">
<title>Node30&#45;&gt;Node32</title>
<path fill="none" stroke="#191970" d="M898.7188,-285.8906C885.2452,-276.1421 864.178,-260.8994 848.3565,-249.4521"/>
<polygon fill="#191970" stroke="#191970" points="850.3414,-246.5682 840.188,-243.5419 846.2381,-252.2394 850.3414,-246.5682"/>
</g>
<!-- Node33 -->
<g id="node34" class="node">
<title>Node33</title>
<g id="a_node34"><a xlink:href="../../de/d26/ntv2m31enums_8h.html" target="_top" xlink:title="ntv2m31enums.h">
<polygon fill="#ffffff" stroke="#000000" points="940,-224.5 940,-243.5 1032,-243.5 1032,-224.5 940,-224.5"/>
<text text-anchor="middle" x="986" y="-231.5" font-family="Helvetica,sans-Serif" font-size="10.00" fill="#000000">ntv2m31enums.h</text>
</a>
</g>
</g>
<!-- Node30&#45;&gt;Node33 -->
<g id="edge61" class="edge">
<title>Node30&#45;&gt;Node33</title>
<path fill="none" stroke="#191970" d="M923.5625,-285.8906C935.0079,-276.3786 952.7473,-261.6357 966.397,-250.2917"/>
<polygon fill="#191970" stroke="#191970" points="968.8208,-252.8283 974.2745,-243.7449 964.3467,-247.4447 968.8208,-252.8283"/>
</g>
<!-- Node31&#45;&gt;Node3 -->
<g id="edge51" class="edge">
<title>Node31&#45;&gt;Node3</title>
<path fill="none" stroke="#191970" d="M799.9615,-168.3557C821.9862,-155.8565 853.4479,-133.1517 838,-112 825.6737,-95.1224 772.9485,-81.4406 734.8629,-73.5108"/>
<polygon fill="#191970" stroke="#191970" points="735.5381,-70.0765 725.0427,-71.5245 734.1503,-76.9376 735.5381,-70.0765"/>
</g>
<!-- Node32&#45;&gt;Node2 -->
<g id="edge56" class="edge">
<title>Node32&#45;&gt;Node2</title>
<path fill="none" stroke="#191970" d="M833.0197,-224.3214C840.8704,-210.3267 852.1419,-184.3323 839,-168 828.7638,-155.2789 734.3964,-138.4551 675.6995,-129.0817"/>
<polygon fill="#191970" stroke="#191970" points="675.9622,-125.5798 665.5385,-127.4764 674.8697,-132.4941 675.9622,-125.5798"/>
</g>
<!-- Node32&#45;&gt;Node3 -->
<g id="edge55" class="edge">
<title>Node32&#45;&gt;Node3</title>
<path fill="none" stroke="#191970" d="M835.7861,-224.2709C843.0686,-215.5036 852.8705,-201.8915 857,-188 861.9793,-171.2499 865.967,-126.012 855,-112 840.2684,-93.1782 778.0318,-79.5566 735.3983,-72.2206"/>
<polygon fill="#191970" stroke="#191970" points="735.7296,-68.7276 725.29,-70.5348 734.578,-75.6322 735.7296,-68.7276"/>
</g>
<!-- Node32&#45;&gt;Node7 -->
<g id="edge54" class="edge">
<title>Node32&#45;&gt;Node7</title>
<path fill="none" stroke="#191970" d="M839.5166,-224.2642C849.7814,-215.6958 864.0331,-202.3734 873,-188 905.6227,-135.708 923.2928,-63.8104 930.3308,-29.6092"/>
<polygon fill="#191970" stroke="#191970" points="933.8159,-30.0266 932.3163,-19.5384 926.948,-28.6726 933.8159,-30.0266"/>
</g>
<!-- Node32&#45;&gt;Node8 -->
<g id="edge58" class="edge">
<title>Node32&#45;&gt;Node8</title>
<path fill="none" stroke="#191970" d="M840.4709,-224.4552C877.6155,-198.3058 981.3009,-126.4951 1020,-112 1058.2176,-97.6852 1342.3845,-59.9847 1383,-56 1595.0029,-35.2007 2279.8628,-15.1494 2433.304,-10.8467"/>
<polygon fill="#191970" stroke="#191970" points="2433.5212,-14.3421 2443.4196,-10.5644 2433.3258,-7.3448 2433.5212,-14.3421"/>
</g>
<!-- Node32&#45;&gt;Node15 -->
<g id="edge57" class="edge">
<title>Node32&#45;&gt;Node15</title>
<path fill="none" stroke="#191970" d="M883.9553,-227.0208C969.546,-216.5327 1130.8112,-196.7715 1220.2304,-185.8142"/>
<polygon fill="#191970" stroke="#191970" points="1220.7403,-189.278 1230.2404,-184.5876 1219.8889,-182.33 1220.7403,-189.278"/>
</g>
<!-- Node32&#45;&gt;Node16 -->
<g id="edge59" class="edge">
<title>Node32&#45;&gt;Node16</title>
<path fill="none" stroke="#191970" d="M883.6634,-224.4328C915.2384,-217.4678 954.4321,-206.0246 986,-188 1008.0678,-175.3997 1028.6293,-154.4655 1041.6807,-139.5533"/>
<polygon fill="#191970" stroke="#191970" points="1044.648,-141.4661 1048.4519,-131.5777 1039.3117,-136.9357 1044.648,-141.4661"/>
</g>
<!-- Node32&#45;&gt;Node19 -->
<g id="edge60" class="edge">
<title>Node32&#45;&gt;Node19</title>
<path fill="none" stroke="#191970" d="M880.4424,-224.4718C956.1261,-211.1097 1098.9228,-186.3818 1221,-168 1335.382,-150.777 1471.6614,-133.517 1532.6744,-125.9608"/>
<polygon fill="#191970" stroke="#191970" points="1533.3337,-129.4061 1542.8293,-124.7068 1532.4757,-122.4589 1533.3337,-129.4061"/>
</g>
<!-- Node35 -->
<g id="node36" class="node">
<title>Node35</title>
<g id="a_node36"><a xlink:href="../../d4/d79/public_8h.html" target="_top" xlink:title="Master header for the ajabase library. ">
<polygon fill="#ffffff" stroke="#000000" points="1782,-224.5 1782,-243.5 1910,-243.5 1910,-224.5 1782,-224.5"/>
<text text-anchor="middle" x="1846" y="-231.5" font-family="Helvetica,sans-Serif" font-size="10.00" fill="#000000">ajabase/common/public.h</text>
</a>
</g>
</g>
<!-- Node34&#45;&gt;Node35 -->
<g id="edge66" class="edge">
<title>Node34&#45;&gt;Node35</title>
<path fill="none" stroke="#191970" d="M1744.75,-285.8906C1764.476,-275.7811 1795.7312,-259.7628 1818.3,-248.1962"/>
<polygon fill="#191970" stroke="#191970" points="1820.0787,-251.2176 1827.3817,-243.5419 1816.886,-244.9881 1820.0787,-251.2176"/>
</g>
<!-- Node39 -->
<g id="node40" class="node">
<title>Node39</title>
<polygon fill="#ffffff" stroke="#bfbfbf" points="1712,-224.5 1712,-243.5 1764,-243.5 1764,-224.5 1712,-224.5"/>
<text text-anchor="middle" x="1738" y="-231.5" font-family="Helvetica,sans-Serif" font-size="10.00" fill="#000000">assert.h</text>
</g>
<!-- Node34&#45;&gt;Node39 -->
<g id="edge74" class="edge">
<title>Node34&#45;&gt;Node39</title>
<path fill="none" stroke="#191970" d="M1727.875,-285.8906C1729.5559,-277.276 1732.074,-264.3708 1734.1784,-253.5858"/>
<polygon fill="#191970" stroke="#191970" points="1737.6186,-254.2301 1736.0986,-243.7449 1730.7482,-252.8895 1737.6186,-254.2301"/>
</g>
<!-- Node35&#45;&gt;Node8 -->
<g id="edge68" class="edge">
<title>Node35&#45;&gt;Node8</title>
<path fill="none" stroke="#191970" d="M1861.1675,-224.3018C1908.9148,-194.237 2061.2049,-101.8732 2200,-56 2281.6907,-29.0004 2383.123,-17.0043 2433.1453,-12.4247"/>
<polygon fill="#191970" stroke="#191970" points="2433.6424,-15.8946 2443.298,-11.5333 2433.0302,-8.9214 2433.6424,-15.8946"/>
</g>
<!-- Node35&#45;&gt;Node18 -->
<g id="edge71" class="edge">
<title>Node35&#45;&gt;Node18</title>
<path fill="none" stroke="#191970" d="M1837.4108,-224.1085C1826.1397,-211.1556 1805.7095,-187.7701 1788,-168 1779.47,-158.4774 1769.8616,-147.9402 1761.9898,-139.3561"/>
<polygon fill="#191970" stroke="#191970" points="1764.4098,-136.8169 1755.0666,-131.8213 1759.2553,-141.553 1764.4098,-136.8169"/>
</g>
<!-- Node35&#45;&gt;Node19 -->
<g id="edge70" class="edge">
<title>Node35&#45;&gt;Node19</title>
<path fill="none" stroke="#191970" d="M1822.0421,-224.4509C1771.4595,-204.2899 1653.7578,-157.3768 1596.8869,-134.7094"/>
<polygon fill="#191970" stroke="#191970" points="1597.9139,-131.351 1587.3286,-130.8997 1595.3221,-137.8535 1597.9139,-131.351"/>
</g>
<!-- Node36 -->
<g id="node37" class="node">
<title>Node36</title>
<g id="a_node37"><a xlink:href="../../db/db5/export_8h.html" target="_top" xlink:title="Declares system&#45;dependent import/export macros and libraries. ">
<polygon fill="#ffffff" stroke="#000000" points="2540.5,-168.5 2540.5,-187.5 2669.5,-187.5 2669.5,-168.5 2540.5,-168.5"/>
<text text-anchor="middle" x="2605" y="-175.5" font-family="Helvetica,sans-Serif" font-size="10.00" fill="#000000">ajabase/common/export.h</text>
</a>
</g>
</g>
<!-- Node35&#45;&gt;Node36 -->
<g id="edge67" class="edge">
<title>Node35&#45;&gt;Node36</title>
<path fill="none" stroke="#191970" d="M1910.0578,-229.2737C2049.6641,-218.9734 2380.7577,-194.5449 2529.8906,-183.5417"/>
<polygon fill="#191970" stroke="#191970" points="2530.5932,-186.9994 2540.3086,-182.773 2530.0781,-180.0184 2530.5932,-186.9994"/>
</g>
<!-- Node37 -->
<g id="node38" class="node">
<title>Node37</title>
<polygon fill="#ffffff" stroke="#bfbfbf" points="1750.5,-168.5 1750.5,-187.5 1779.5,-187.5 1779.5,-168.5 1750.5,-168.5"/>
<text text-anchor="middle" x="1765" y="-175.5" font-family="Helvetica,sans-Serif" font-size="10.00" fill="#000000">list</text>
</g>
<!-- Node35&#45;&gt;Node37 -->
<g id="edge69" class="edge">
<title>Node35&#45;&gt;Node37</title>
<path fill="none" stroke="#191970" d="M1831.8909,-224.2455C1819.5791,-215.7337 1801.5042,-203.2375 1787.2462,-193.3801"/>
<polygon fill="#191970" stroke="#191970" points="1789.1634,-190.4506 1778.9474,-187.6427 1785.1826,-196.2085 1789.1634,-190.4506"/>
</g>
<!-- Node35&#45;&gt;Node38 -->
<g id="edge72" class="edge">
<title>Node35&#45;&gt;Node38</title>
<path fill="none" stroke="#191970" d="M1781.9499,-224.8156C1778.9275,-224.5114 1775.9326,-224.2366 1773,-224 1131.3302,-172.2351 968.435,-208.2769 325,-188 261.3402,-185.9939 189,-183.1933 136.4858,-181.0661"/>
<polygon fill="#191970" stroke="#191970" points="136.3898,-177.5594 126.2558,-180.6501 136.1053,-184.5536 136.3898,-177.5594"/>
</g>
<!-- Node38&#45;&gt;Node4 -->
<g id="edge73" class="edge">
<title>Node38&#45;&gt;Node4</title>
<path fill="none" stroke="#191970" d="M69.1108,-168.1784C84.3204,-144.6302 126.3951,-84.7799 178,-56 206.7243,-39.9806 292.0982,-25.4283 348.7602,-17.1544"/>
<polygon fill="#191970" stroke="#191970" points="349.5861,-20.5717 358.986,-15.6836 348.5895,-13.643 349.5861,-20.5717"/>
</g>
<!-- Node41&#45;&gt;Node7 -->
<g id="edge85" class="edge">
<title>Node41&#45;&gt;Node7</title>
<path fill="none" stroke="#191970" d="M2068.1539,-224.3319C2067.8257,-209.8642 2064.9524,-182.7125 2049,-168 1956.6706,-82.8467 1895.9915,-132.0478 1772,-112 1469.0426,-63.0156 1101.0306,-25.922 977.0824,-14.0401"/>
<polygon fill="#191970" stroke="#191970" points="977.1617,-10.5318 966.8743,-13.0657 976.4965,-17.5001 977.1617,-10.5318"/>
</g>
<!-- Node41&#45;&gt;Node15 -->
<g id="edge86" class="edge">
<title>Node41&#45;&gt;Node15</title>
<path fill="none" stroke="#191970" d="M2021.3051,-230.6646C1887.251,-221.0894 1501.0249,-193.5018 1347.7682,-182.5549"/>
<polygon fill="#191970" stroke="#191970" points="1347.8029,-179.0485 1337.5789,-181.8271 1347.3041,-186.0307 1347.8029,-179.0485"/>
</g>
<!-- Node41&#45;&gt;Node17 -->
<g id="edge89" class="edge">
<title>Node41&#45;&gt;Node17</title>
<path fill="none" stroke="#191970" d="M2073.7755,-224.4571C2082.9077,-210.1529 2102.0246,-183.2119 2125,-168 2161.7966,-143.6371 2212.4291,-131.3834 2242.5283,-125.8754"/>
<polygon fill="#191970" stroke="#191970" points="2243.3616,-129.2836 2252.6249,-124.1414 2242.1767,-122.3846 2243.3616,-129.2836"/>
</g>
<!-- Node41&#45;&gt;Node18 -->
<g id="edge90" class="edge">
<title>Node41&#45;&gt;Node18</title>
<path fill="none" stroke="#191970" d="M2045.109,-224.4695C2012.6531,-211.1045 1951.2758,-186.3732 1898,-168 1855.0996,-153.205 1804.531,-138.4194 1773.8887,-129.747"/>
<polygon fill="#191970" stroke="#191970" points="1774.5005,-126.2833 1763.9264,-126.9444 1772.6049,-133.0217 1774.5005,-126.2833"/>
</g>
<!-- Node42 -->
<g id="node43" class="node">
<title>Node42</title>
<polygon fill="#ffffff" stroke="#bfbfbf" points="2134,-168.5 2134,-187.5 2186,-187.5 2186,-168.5 2134,-168.5"/>
<text text-anchor="middle" x="2160" y="-175.5" font-family="Helvetica,sans-Serif" font-size="10.00" fill="#000000">stddef.h</text>
</g>
<!-- Node41&#45;&gt;Node42 -->
<g id="edge87" class="edge">
<title>Node41&#45;&gt;Node42</title>
<path fill="none" stroke="#191970" d="M2084.0252,-224.2455C2098.1408,-215.6534 2118.9263,-203.0014 2135.1899,-193.1018"/>
<polygon fill="#191970" stroke="#191970" points="2137.4363,-195.8319 2144.1585,-187.6427 2133.7966,-189.8525 2137.4363,-195.8319"/>
</g>
<!-- Node43 -->
<g id="node44" class="node">
<title>Node43</title>
<polygon fill="#ffffff" stroke="#bfbfbf" points="1988,-168.5 1988,-187.5 2040,-187.5 2040,-168.5 1988,-168.5"/>
<text text-anchor="middle" x="2014" y="-175.5" font-family="Helvetica,sans-Serif" font-size="10.00" fill="#000000">sstream</text>
</g>
<!-- Node41&#45;&gt;Node43 -->
<g id="edge88" class="edge">
<title>Node41&#45;&gt;Node43</title>
<path fill="none" stroke="#191970" d="M2058.5939,-224.2455C2050.8507,-216.2155 2039.688,-204.6394 2030.4682,-195.0781"/>
<polygon fill="#191970" stroke="#191970" points="2032.7591,-192.4117 2023.2983,-187.6427 2027.7202,-197.2706 2032.7591,-192.4117"/>
</g>
<!-- Node44&#45;&gt;Node26 -->
<g id="edge93" class="edge">
<title>Node44&#45;&gt;Node26</title>
<path fill="none" stroke="#191970" d="M1141.8395,-459.2455C1124.4889,-450.4125 1098.7099,-437.2887 1079.0417,-427.2758"/>
<polygon fill="#191970" stroke="#191970" points="1080.4405,-424.0605 1069.941,-422.6427 1077.2647,-430.2986 1080.4405,-424.0605"/>
</g>
<!-- Node45&#45;&gt;Node8 -->
<g id="edge145" class="edge">
<title>Node45&#45;&gt;Node8</title>
<path fill="none" stroke="#191970" d="M2192.7749,-580.2074C2389.1018,-576.5712 3066,-557.6091 3066,-469 3066,-469 3066,-469 3066,-122 3066,-82.0568 3040.8832,-73.5458 3005,-56 2959.1019,-33.5571 2602.9265,-16.1353 2494.9354,-11.3265"/>
<polygon fill="#191970" stroke="#191970" points="2494.8542,-7.8196 2484.7098,-10.876 2494.546,-14.8128 2494.8542,-7.8196"/>
</g>
<!-- Node45&#45;&gt;Node13 -->
<g id="edge101" class="edge">
<title>Node45&#45;&gt;Node13</title>
<path fill="none" stroke="#191970" d="M2087.1864,-578.3945C1955.9948,-571.8508 1604.7333,-553.8922 1312,-535 1280.193,-532.9473 1244.2274,-530.2879 1217.2739,-528.2277"/>
<polygon fill="#191970" stroke="#191970" points="1217.2863,-524.7184 1207.0474,-527.4418 1216.7498,-531.6978 1217.2863,-524.7184"/>
</g>
<!-- Node45&#45;&gt;Node15 -->
<g id="edge100" class="edge">
<title>Node45&#45;&gt;Node15</title>
<path fill="none" stroke="#191970" d="M2087.3958,-579.1758C1949.8568,-574.098 1586.8031,-558.6025 1538,-535 1537.3806,-534.7005 1269.2508,-244.6407 1269,-244 1262.9934,-228.6535 1268.0704,-210.3129 1273.8895,-196.8649"/>
<polygon fill="#191970" stroke="#191970" points="1277.1337,-198.1945 1278.3127,-187.6655 1270.825,-195.1612 1277.1337,-198.1945"/>
</g>
<!-- Node45&#45;&gt;Node30 -->
<g id="edge102" class="edge">
<title>Node45&#45;&gt;Node30</title>
<path fill="none" stroke="#191970" d="M2087.367,-579.0498C1933.0304,-573.13 1488.5324,-554.5712 1426,-535 1271.4955,-486.6436 1263.3681,-409.4431 1114,-347 1060.4389,-324.6089 994.6917,-310.0583 953.0584,-302.3136"/>
<polygon fill="#191970" stroke="#191970" points="953.4797,-298.833 943.0153,-300.4907 952.2294,-305.7204 953.4797,-298.833"/>
</g>
<!-- Node46 -->
<g id="node47" class="node">
<title>Node46</title>
<g id="a_node47"><a xlink:href="../../d6/de1/ntv2rp188_8h.html" target="_top" xlink:title="Declares the CRP188 class. See SMPTE RP188 standard for details. ">
<polygon fill="#ffffff" stroke="#000000" points="2240,-224.5 2240,-243.5 2308,-243.5 2308,-224.5 2240,-224.5"/>
<text text-anchor="middle" x="2274" y="-231.5" font-family="Helvetica,sans-Serif" font-size="10.00" fill="#000000">ntv2rp188.h</text>
</a>
</g>
</g>
<!-- Node45&#45;&gt;Node46 -->
<g id="edge96" class="edge">
<title>Node45&#45;&gt;Node46</title>
<path fill="none" stroke="#191970" d="M2178.2445,-571.4962C2205.2335,-563.8692 2241.6615,-551.6752 2271,-535 2310.776,-512.3924 2350,-514.7519 2350,-469 2350,-469 2350,-469 2350,-357 2350,-313.4388 2315.0757,-272.4145 2292.5765,-250.5053"/>
<polygon fill="#191970" stroke="#191970" points="2294.8962,-247.8822 2285.2141,-243.5801 2290.1001,-252.981 2294.8962,-247.8822"/>
</g>
<!-- Node48 -->
<g id="node49" class="node">
<title>Node48</title>
<g id="a_node49"><a xlink:href="../../d7/d92/ancillarydata_8h.html" target="_top" xlink:title="Declares the AJAAncillaryData class. ">
<polygon fill="#ffffff" stroke="#000000" points="1278,-224.5 1278,-243.5 1428,-243.5 1428,-224.5 1278,-224.5"/>
<text text-anchor="middle" x="1353" y="-231.5" font-family="Helvetica,sans-Serif" font-size="10.00" fill="#000000">ajaanc/includes/ancillarydata.h</text>
</a>
</g>
</g>
<!-- Node45&#45;&gt;Node48 -->
<g id="edge103" class="edge">
<title>Node45&#45;&gt;Node48</title>
<path fill="none" stroke="#191970" d="M2087.4057,-579.3295C1953.9865,-574.7357 1609.7416,-560.5285 1565,-535 1505.4434,-501.0184 1396.8024,-312.5673 1363.1871,-252.4406"/>
<polygon fill="#191970" stroke="#191970" points="1366.2119,-250.6781 1358.292,-243.6406 1360.0946,-254.081 1366.2119,-250.6781"/>
</g>
<!-- Node49 -->
<g id="node50" class="node">
<title>Node49</title>
<g id="a_node50"><a xlink:href="../../da/daf/options__popt_8h.html" target="_top" xlink:title="ajabase/common/options\l_popt.h">
<polygon fill="#ffffff" stroke="#000000" points="2526.5,-280.5 2526.5,-310.5 2651.5,-310.5 2651.5,-280.5 2526.5,-280.5"/>
<text text-anchor="start" x="2534.5" y="-298.5" font-family="Helvetica,sans-Serif" font-size="10.00" fill="#000000">ajabase/common/options</text>
<text text-anchor="middle" x="2589" y="-287.5" font-family="Helvetica,sans-Serif" font-size="10.00" fill="#000000">_popt.h</text>
</a>
</g>
</g>
<!-- Node45&#45;&gt;Node49 -->
<g id="edge110" class="edge">
<title>Node45&#45;&gt;Node49</title>
<path fill="none" stroke="#191970" d="M2192.5388,-571.7344C2265.0472,-558.901 2387.4446,-537.0521 2392,-535 2435.2889,-515.4988 2476,-516.4787 2476,-469 2476,-469 2476,-469 2476,-413 2476,-369.4095 2516.9025,-335.7391 2549.4905,-315.8306"/>
<polygon fill="#191970" stroke="#191970" points="2551.5718,-318.6671 2558.4206,-310.5835 2548.0256,-312.6318 2551.5718,-318.6671"/>
</g>
<!-- Node45&#45;&gt;Node51 -->
<g id="edge113" class="edge">
<title>Node45&#45;&gt;Node51</title>
<path fill="none" stroke="#191970" d="M2087.2449,-573.8444C2039.4641,-566.3318 1973.7635,-553.0892 1955,-535 1942.5503,-522.9977 1938.1087,-503.4117 1936.5973,-488.687"/>
<polygon fill="#191970" stroke="#191970" points="1940.0813,-488.3276 1935.9287,-478.5806 1933.0966,-488.7898 1940.0813,-488.3276"/>
</g>
<!-- Node52 -->
<g id="node53" class="node">
<title>Node52</title>
<g id="a_node53"><a xlink:href="../../d0/d77/circularbuffer_8h.html" target="_top" xlink:title="Declaration of AJACircularBuffer template class. ">
<polygon fill="#ffffff" stroke="#000000" points="1954.5,-347.5 1954.5,-366.5 2111.5,-366.5 2111.5,-347.5 1954.5,-347.5"/>
<text text-anchor="middle" x="2033" y="-354.5" font-family="Helvetica,sans-Serif" font-size="10.00" fill="#000000">ajabase/common/circularbuffer.h</text>
</a>
</g>
</g>
<!-- Node45&#45;&gt;Node52 -->
<g id="edge114" class="edge">
<title>Node45&#45;&gt;Node52</title>
<path fill="none" stroke="#191970" d="M2137.9548,-571.3689C2135.0184,-558.3052 2129.0607,-534.3759 2121,-515 2098.896,-461.8674 2063.3359,-403.828 2044.9172,-375.1421"/>
<polygon fill="#191970" stroke="#191970" points="2047.7489,-373.0757 2039.3722,-366.5886 2041.8751,-376.8836 2047.7489,-373.0757"/>
</g>
<!-- Node54 -->
<g id="node55" class="node">
<title>Node54</title>
<g id="a_node55"><a xlink:href="../../db/d16/debug_8h.html" target="_top" xlink:title="Declares the AJADebug class. ">
<polygon fill="#ffffff" stroke="#000000" points="2378.5,-286 2378.5,-305 2501.5,-305 2501.5,-286 2378.5,-286"/>
<text text-anchor="middle" x="2440" y="-293" font-family="Helvetica,sans-Serif" font-size="10.00" fill="#000000">ajabase/system/debug.h</text>
</a>
</g>
</g>
<!-- Node45&#45;&gt;Node54 -->
<g id="edge120" class="edge">
<title>Node45&#45;&gt;Node54</title>
<path fill="none" stroke="#191970" d="M2190.8785,-571.4897C2254.6758,-559.4267 2356.6536,-539.6315 2364,-535 2395.1303,-515.3741 2414,-505.8004 2414,-469 2414,-469 2414,-469 2414,-413 2414,-377.6488 2425.3582,-337.6979 2433.0602,-314.671"/>
<polygon fill="#191970" stroke="#191970" points="2436.4133,-315.6844 2436.3848,-305.0896 2429.8001,-313.3897 2436.4133,-315.6844"/>
</g>
<!-- Node56 -->
<g id="node57" class="node">
<title>Node56</title>
<g id="a_node57"><a xlink:href="../../d4/d21/info_8h.html" target="_top" xlink:title="Declares the AJASystemInfo class. ">
<polygon fill="#ffffff" stroke="#000000" points="1992.5,-286 1992.5,-305 2105.5,-305 2105.5,-286 1992.5,-286"/>
<text text-anchor="middle" x="2049" y="-293" font-family="Helvetica,sans-Serif" font-size="10.00" fill="#000000">ajabase/system/info.h</text>
</a>
</g>
</g>
<!-- Node45&#45;&gt;Node56 -->
<g id="edge131" class="edge">
<title>Node45&#45;&gt;Node56</title>
<path fill="none" stroke="#191970" d="M2145.607,-571.4834C2156.1774,-552.6141 2178,-508.8343 2178,-469 2178,-469 2178,-469 2178,-413 2178,-361.754 2121.6718,-326.9277 2083.4584,-309.1977"/>
<polygon fill="#191970" stroke="#191970" points="2084.7372,-305.9357 2074.1787,-305.0588 2081.8858,-312.3287 2084.7372,-305.9357"/>
</g>
<!-- Node45&#45;&gt;Node57 -->
<g id="edge136" class="edge">
<title>Node45&#45;&gt;Node57</title>
<path fill="none" stroke="#191970" d="M2122.233,-571.2455C2106.2905,-562.4928 2082.6741,-549.527 2064.5011,-539.5496"/>
<polygon fill="#191970" stroke="#191970" points="2066.0137,-536.3873 2055.5634,-534.6427 2062.6448,-542.5233 2066.0137,-536.3873"/>
</g>
<!-- Node58 -->
<g id="node59" class="node">
<title>Node58</title>
<g id="a_node59"><a xlink:href="../../dc/d54/common_8h.html" target="_top" xlink:title="Private include file for all ajabase sources. ">
<polygon fill="#ffffff" stroke="#000000" points="2746,-224.5 2746,-243.5 2886,-243.5 2886,-224.5 2746,-224.5"/>
<text text-anchor="middle" x="2816" y="-231.5" font-family="Helvetica,sans-Serif" font-size="10.00" fill="#000000">ajabase/common/common.h</text>
</a>
</g>
</g>
<!-- Node45&#45;&gt;Node58 -->
<g id="edge138" class="edge">
<title>Node45&#45;&gt;Node58</title>
<path fill="none" stroke="#191970" d="M2192.8463,-579.3192C2331.4759,-574.5841 2698.2737,-559.8378 2747,-535 2781.2736,-517.5293 2803,-507.4695 2803,-469 2803,-469 2803,-469 2803,-357 2803,-320.2961 2808.7956,-277.7709 2812.6474,-253.5612"/>
<polygon fill="#191970" stroke="#191970" points="2816.1274,-253.969 2814.3005,-243.5329 2809.2206,-252.8304 2816.1274,-253.969"/>
</g>
<!-- Node60 -->
<g id="node61" class="node">
<title>Node60</title>
<polygon fill="#ffffff" stroke="#bfbfbf" points="2206,-515.5 2206,-534.5 2262,-534.5 2262,-515.5 2206,-515.5"/>
<text text-anchor="middle" x="2234" y="-522.5" font-family="Helvetica,sans-Serif" font-size="10.00" fill="#000000">algorithm</text>
</g>
<!-- Node45&#45;&gt;Node60 -->
<g id="edge144" class="edge">
<title>Node45&#45;&gt;Node60</title>
<path fill="none" stroke="#191970" d="M2156.3736,-571.2455C2170.9308,-562.5731 2192.431,-549.7645 2209.1152,-539.825"/>
<polygon fill="#191970" stroke="#191970" points="2211.0144,-542.7676 2217.8141,-534.6427 2207.4317,-536.7539 2211.0144,-542.7676"/>
</g>
<!-- Node46&#45;&gt;Node8 -->
<g id="edge97" class="edge">
<title>Node46&#45;&gt;Node8</title>
<path fill="none" stroke="#191970" d="M2291.5271,-224.3886C2305.8575,-215.991 2326.1119,-202.8433 2341,-188 2391.8434,-137.3096 2435.3301,-63.0888 2454.1036,-28.7301"/>
<polygon fill="#191970" stroke="#191970" points="2457.2629,-30.2453 2458.9241,-19.7815 2451.1002,-26.9255 2457.2629,-30.2453"/>
</g>
<!-- Node46&#45;&gt;Node15 -->
<g id="edge99" class="edge">
<title>Node46&#45;&gt;Node15</title>
<path fill="none" stroke="#191970" d="M2239.7518,-231.6008C2209.3536,-229.499 2163.7285,-226.412 2124,-224 1834.2181,-206.4067 1488.0113,-188.4012 1347.7137,-181.2306"/>
<polygon fill="#191970" stroke="#191970" points="1347.7373,-177.7274 1337.5718,-180.7128 1347.3803,-184.7182 1347.7373,-177.7274"/>
</g>
<!-- Node47 -->
<g id="node48" class="node">
<title>Node47</title>
<polygon fill="#ffffff" stroke="#bfbfbf" points="2280,-168.5 2280,-187.5 2332,-187.5 2332,-168.5 2280,-168.5"/>
<text text-anchor="middle" x="2306" y="-175.5" font-family="Helvetica,sans-Serif" font-size="10.00" fill="#000000">ostream</text>
</g>
<!-- Node46&#45;&gt;Node47 -->
<g id="edge98" class="edge">
<title>Node46&#45;&gt;Node47</title>
<path fill="none" stroke="#191970" d="M2279.574,-224.2455C2283.9331,-216.617 2290.1211,-205.7881 2295.4133,-196.5267"/>
<polygon fill="#191970" stroke="#191970" points="2298.5673,-198.0616 2300.4899,-187.6427 2292.4896,-194.5886 2298.5673,-198.0616"/>
</g>
<!-- Node48&#45;&gt;Node3 -->
<g id="edge104" class="edge">
<title>Node48&#45;&gt;Node3</title>
<path fill="none" stroke="#191970" d="M1320.018,-224.4924C1292.8792,-216.202 1253.6995,-203.1498 1221,-188 1190.8109,-174.0132 1123.5435,-122.5841 1092,-112 1026.5725,-90.0465 823.4451,-74.4886 735.3995,-68.6017"/>
<polygon fill="#191970" stroke="#191970" points="735.4585,-65.0981 725.2497,-67.932 734.9975,-72.0829 735.4585,-65.0981"/>
</g>
<!-- Node48&#45;&gt;Node6 -->
<g id="edge105" class="edge">
<title>Node48&#45;&gt;Node6</title>
<path fill="none" stroke="#191970" d="M1360.4577,-224.2666C1370.7001,-211.087 1389.9139,-187.0267 1408,-168 1424.252,-150.9027 1437.539,-153.6087 1447,-132 1450.5651,-123.8574 1452.7456,-118.7824 1447,-112 1432.4367,-94.8086 1294.0279,-78.3756 1218.9246,-70.6306"/>
<polygon fill="#191970" stroke="#191970" points="1219.0699,-67.1273 1208.7668,-69.5962 1218.3607,-74.0913 1219.0699,-67.1273"/>
</g>
<!-- Node48&#45;&gt;Node15 -->
<g id="edge107" class="edge">
<title>Node48&#45;&gt;Node15</title>
<path fill="none" stroke="#191970" d="M1340.9811,-224.2455C1330.7902,-215.9746 1315.9638,-203.9416 1303.9893,-194.2232"/>
<polygon fill="#191970" stroke="#191970" points="1305.8514,-191.2268 1295.8812,-187.6427 1301.4402,-196.662 1305.8514,-191.2268"/>
</g>
<!-- Node48&#45;&gt;Node19 -->
<g id="edge109" class="edge">
<title>Node48&#45;&gt;Node19</title>
<path fill="none" stroke="#191970" d="M1363.8314,-224.3761C1379.9378,-210.4494 1411.5798,-184.539 1442,-168 1471.3991,-152.0161 1507.52,-139.2394 1532.9904,-131.2465"/>
<polygon fill="#191970" stroke="#191970" points="1534.3311,-134.4964 1542.8663,-128.2194 1532.2796,-127.8038 1534.3311,-134.4964"/>
</g>
<!-- Node48&#45;&gt;Node38 -->
<g id="edge106" class="edge">
<title>Node48&#45;&gt;Node38</title>
<path fill="none" stroke="#191970" d="M1277.5951,-230.7266C1048.4448,-220.779 362.1741,-190.9874 136.1086,-181.1737"/>
<polygon fill="#191970" stroke="#191970" points="136.157,-177.6726 126.0146,-180.7355 135.8534,-184.666 136.157,-177.6726"/>
</g>
<!-- Node48&#45;&gt;Node43 -->
<g id="edge108" class="edge">
<title>Node48&#45;&gt;Node43</title>
<path fill="none" stroke="#191970" d="M1428.1816,-227.6306C1570.3235,-215.5883 1873.5652,-189.8976 1977.8739,-181.0606"/>
<polygon fill="#191970" stroke="#191970" points="1978.2335,-184.5428 1987.9023,-180.211 1977.6425,-177.5678 1978.2335,-184.5428"/>
</g>
<!-- Node49&#45;&gt;Node36 -->
<g id="edge112" class="edge">
<title>Node49&#45;&gt;Node36</title>
<path fill="none" stroke="#191970" d="M2602.3403,-280.49C2610.0198,-270.8135 2618.9323,-257.5445 2623,-244 2627.7367,-228.228 2622.0619,-210.1793 2615.8643,-196.9471"/>
<polygon fill="#191970" stroke="#191970" points="2618.8836,-195.1656 2611.1869,-187.8847 2612.6633,-198.3761 2618.8836,-195.1656"/>
</g>
<!-- Node50 -->
<g id="node51" class="node">
<title>Node50</title>
<polygon fill="#ffffff" stroke="#bfbfbf" points="2568,-224.5 2568,-243.5 2614,-243.5 2614,-224.5 2568,-224.5"/>
<text text-anchor="middle" x="2591" y="-231.5" font-family="Helvetica,sans-Serif" font-size="10.00" fill="#000000">stdio.h</text>
</g>
<!-- Node49&#45;&gt;Node50 -->
<g id="edge111" class="edge">
<title>Node49&#45;&gt;Node50</title>
<path fill="none" stroke="#191970" d="M2589.4944,-280.2977C2589.7518,-272.3834 2590.0698,-262.6043 2590.3471,-254.0759"/>
<polygon fill="#191970" stroke="#191970" points="2593.8528,-253.9554 2590.6798,-243.8469 2586.8565,-253.7279 2593.8528,-253.9554"/>
</g>
<!-- Node52&#45;&gt;Node34 -->
<g id="edge116" class="edge">
<title>Node52&#45;&gt;Node34</title>
<path fill="none" stroke="#191970" d="M1985.3681,-347.4581C1930.9518,-336.5571 1841.9264,-318.723 1783.6427,-307.0473"/>
<polygon fill="#191970" stroke="#191970" points="1783.9838,-303.5462 1773.4911,-305.0137 1782.6087,-310.4098 1783.9838,-303.5462"/>
</g>
<!-- Node52&#45;&gt;Node35 -->
<g id="edge115" class="edge">
<title>Node52&#45;&gt;Node35</title>
<path fill="none" stroke="#191970" d="M2023.0251,-347.3709C2006.6384,-331.8797 1972.5784,-301.035 1940,-280 1920.5032,-267.4114 1897.0602,-255.933 1878.463,-247.5909"/>
<polygon fill="#191970" stroke="#191970" points="1879.7887,-244.3505 1869.2261,-243.5252 1876.9687,-250.7573 1879.7887,-244.3505"/>
</g>
<!-- Node53 -->
<g id="node54" class="node">
<title>Node53</title>
<g id="a_node54"><a xlink:href="../../dd/d20/event_8h.html" target="_top" xlink:title="Declares the AJAEvent class. ">
<polygon fill="#ffffff" stroke="#000000" points="2162.5,-286 2162.5,-305 2283.5,-305 2283.5,-286 2162.5,-286"/>
<text text-anchor="middle" x="2223" y="-293" font-family="Helvetica,sans-Serif" font-size="10.00" fill="#000000">ajabase/system/event.h</text>
</a>
</g>
</g>
<!-- Node52&#45;&gt;Node53 -->
<g id="edge117" class="edge">
<title>Node52&#45;&gt;Node53</title>
<path fill="none" stroke="#191970" d="M2062.6875,-347.3906C2095.3146,-336.8298 2147.8626,-319.8208 2183.8425,-308.1747"/>
<polygon fill="#191970" stroke="#191970" points="2185.0848,-311.4514 2193.521,-305.0419 2182.9291,-304.7916 2185.0848,-311.4514"/>
</g>
<!-- Node53&#45;&gt;Node8 -->
<g id="edge119" class="edge">
<title>Node53&#45;&gt;Node8</title>
<path fill="none" stroke="#191970" d="M2283.7394,-288.5356C2310.2109,-285.6452 2341.617,-282.411 2370,-280 2431.906,-274.7415 2878.2866,-281.2637 2928,-244 2952.9752,-225.2793 2952,-209.2125 2952,-178 2952,-178 2952,-178 2952,-122 2952,-90.7875 2952.6496,-75.1473 2928,-56 2893.8012,-29.4351 2592.5986,-15.141 2494.6374,-11.1641"/>
<polygon fill="#191970" stroke="#191970" points="2494.6336,-7.6613 2484.5021,-10.7602 2494.3548,-14.6557 2494.6336,-7.6613"/>
</g>
<!-- Node53&#45;&gt;Node35 -->
<g id="edge118" class="edge">
<title>Node53&#45;&gt;Node35</title>
<path fill="none" stroke="#191970" d="M2164.5074,-285.9581C2096.9917,-274.9443 1986.0911,-256.8531 1914.5755,-245.1867"/>
<polygon fill="#191970" stroke="#191970" points="1914.7527,-241.6694 1904.3196,-243.5137 1913.6256,-248.5781 1914.7527,-241.6694"/>
</g>
<!-- Node54&#45;&gt;Node17 -->
<g id="edge123" class="edge">
<title>Node54&#45;&gt;Node17</title>
<path fill="none" stroke="#191970" d="M2430.8205,-285.9306C2421.2663,-275.8112 2406.045,-259.2346 2394,-244 2368.4599,-211.6966 2370.7903,-196.4313 2341,-168 2326.599,-154.256 2307.478,-142.3855 2292.418,-134.1471"/>
<polygon fill="#191970" stroke="#191970" points="2293.6749,-130.8527 2283.1982,-129.2746 2290.4041,-137.0416 2293.6749,-130.8527"/>
</g>
<!-- Node54&#45;&gt;Node35 -->
<g id="edge124" class="edge">
<title>Node54&#45;&gt;Node35</title>
<path fill="none" stroke="#191970" d="M2378.4946,-288.98C2352.1657,-286.198 2321.0766,-282.9249 2293,-280 2161.689,-266.3207 2008.6521,-250.6255 1919.9936,-241.5572"/>
<polygon fill="#191970" stroke="#191970" points="1920.339,-238.0744 1910.0348,-240.5388 1919.6268,-245.0381 1920.339,-238.0744"/>
</g>
<!-- Node54&#45;&gt;Node43 -->
<g id="edge122" class="edge">
<title>Node54&#45;&gt;Node43</title>
<path fill="none" stroke="#191970" d="M2424.9748,-285.805C2397.3703,-268.157 2339.3655,-231.8766 2317,-224 2268.3101,-206.8527 2119.3538,-189.272 2050.1009,-181.7662"/>
<polygon fill="#191970" stroke="#191970" points="2050.4067,-178.279 2040.0901,-180.6914 2049.6593,-185.239 2050.4067,-178.279"/>
</g>
<!-- Node54&#45;&gt;Node50 -->
<g id="edge121" class="edge">
<title>Node54&#45;&gt;Node50</title>
<path fill="none" stroke="#191970" d="M2463.5938,-285.8906C2488.9696,-275.5554 2529.5081,-259.0447 2558.0293,-247.4284"/>
<polygon fill="#191970" stroke="#191970" points="2559.6308,-250.5554 2567.5719,-243.5419 2556.9904,-244.0725 2559.6308,-250.5554"/>
</g>
<!-- Node55 -->
<g id="node56" class="node">
<title>Node55</title>
<g id="a_node56"><a xlink:href="../../d0/db4/debugshare_8h.html" target="_top" xlink:title="Declares the constants used for sharing debug messages. These structures are used to gather debug mes...">
<polygon fill="#ffffff" stroke="#000000" points="2402.5,-224.5 2402.5,-243.5 2549.5,-243.5 2549.5,-224.5 2402.5,-224.5"/>
<text text-anchor="middle" x="2476" y="-231.5" font-family="Helvetica,sans-Serif" font-size="10.00" fill="#000000">ajabase/system/debugshare.h</text>
</a>
</g>
</g>
<!-- Node54&#45;&gt;Node55 -->
<g id="edge125" class="edge">
<title>Node54&#45;&gt;Node55</title>
<path fill="none" stroke="#191970" d="M2445.625,-285.8906C2450.8253,-277.0068 2458.6966,-263.5601 2465.1233,-252.5811"/>
<polygon fill="#191970" stroke="#191970" points="2468.2644,-254.1432 2470.2957,-243.7449 2462.2233,-250.6069 2468.2644,-254.1432"/>
</g>
<!-- Node55&#45;&gt;Node5 -->
<g id="edge128" class="edge">
<title>Node55&#45;&gt;Node5</title>
<path fill="none" stroke="#191970" d="M2464.8709,-224.2531C2437.534,-200.8708 2364.0541,-141.3609 2292,-112 2113.166,-39.128 1879.17,-17.6094 1791.8458,-11.8864"/>
<polygon fill="#191970" stroke="#191970" points="1791.8987,-8.383 1781.6993,-11.2502 1791.4606,-15.3692 1791.8987,-8.383"/>
</g>
<!-- Node55&#45;&gt;Node8 -->
<g id="edge129" class="edge">
<title>Node55&#45;&gt;Node8</title>
<path fill="none" stroke="#191970" d="M2479.3127,-224.2724C2482.264,-215.0586 2486.3617,-200.7706 2488,-188 2495.4149,-130.2015 2479.2154,-61.9355 2469.9264,-29.2832"/>
<polygon fill="#191970" stroke="#191970" points="2473.2692,-28.2446 2467.0853,-19.6417 2466.5547,-30.2233 2473.2692,-28.2446"/>
</g>
<!-- Node55&#45;&gt;Node19 -->
<g id="edge130" class="edge">
<title>Node55&#45;&gt;Node19</title>
<path fill="none" stroke="#191970" d="M2461.3811,-224.4089C2437.3983,-209.253 2387.6876,-180.2334 2341,-168 2207.0679,-132.9061 1857.1932,-140.4858 1719,-132 1677.0176,-129.422 1628.6117,-126.2452 1597.4488,-124.1736"/>
<polygon fill="#191970" stroke="#191970" points="1597.3946,-120.6623 1587.1841,-123.4897 1596.9292,-127.6468 1597.3946,-120.6623"/>
</g>
<!-- Node55&#45;&gt;Node36 -->
<g id="edge126" class="edge">
<title>Node55&#45;&gt;Node36</title>
<path fill="none" stroke="#191970" d="M2498.1759,-224.3733C2518.9766,-215.3435 2550.2917,-201.7494 2573.6458,-191.6111"/>
<polygon fill="#191970" stroke="#191970" points="2575.3343,-194.6938 2583.1135,-187.5011 2572.5468,-188.2727 2575.3343,-194.6938"/>
</g>
<!-- Node55&#45;&gt;Node42 -->
<g id="edge127" class="edge">
<title>Node55&#45;&gt;Node42</title>
<path fill="none" stroke="#191970" d="M2422.0367,-224.4369C2357.6171,-213.0208 2251.6613,-194.2438 2196.2825,-184.4298"/>
<polygon fill="#191970" stroke="#191970" points="2196.6874,-180.9471 2186.2301,-182.6484 2195.4659,-187.8397 2196.6874,-180.9471"/>
</g>
<!-- Node56&#45;&gt;Node8 -->
<g id="edge135" class="edge">
<title>Node56&#45;&gt;Node8</title>
<path fill="none" stroke="#191970" d="M2105.5476,-286.1143C2121.2036,-283.7992 2138.2284,-281.5435 2154,-280 2236.0385,-271.9714 2830.3647,-295.1572 2895,-244 2918.9349,-225.0561 2914,-208.5246 2914,-178 2914,-178 2914,-178 2914,-122 2914,-35.389 2596.1251,-15.2502 2494.7035,-11.029"/>
<polygon fill="#191970" stroke="#191970" points="2494.6346,-7.5237 2484.5049,-10.6285 2494.3598,-14.5183 2494.6346,-7.5237"/>
</g>
<!-- Node56&#45;&gt;Node18 -->
<g id="edge134" class="edge">
<title>Node56&#45;&gt;Node18</title>
<path fill="none" stroke="#191970" d="M2036.8578,-285.6614C2007.8215,-262.5142 1931.4582,-203.8641 1860,-168 1831.2548,-153.5731 1796.8478,-140.1911 1773.4061,-131.6232"/>
<polygon fill="#191970" stroke="#191970" points="1774.3678,-128.2494 1763.7734,-128.1479 1771.9922,-134.834 1774.3678,-128.2494"/>
</g>
<!-- Node56&#45;&gt;Node19 -->
<g id="edge133" class="edge">
<title>Node56&#45;&gt;Node19</title>
<path fill="none" stroke="#191970" d="M2030.2337,-285.938C2010.5685,-275.8247 1978.8591,-259.253 1952,-244 1937.0869,-235.531 1934.256,-231.8345 1919,-224 1862.6741,-195.0747 1848.4213,-186.9355 1788,-168 1721.6145,-147.1953 1641.114,-133.2558 1597.2791,-126.5747"/>
<polygon fill="#191970" stroke="#191970" points="1597.62,-123.0868 1587.2125,-125.0703 1596.5854,-130.0099 1597.62,-123.0868"/>
</g>
<!-- Node56&#45;&gt;Node35 -->
<g id="edge132" class="edge">
<title>Node56&#45;&gt;Node35</title>
<path fill="none" stroke="#191970" d="M2017.2813,-285.8906C1982.2728,-275.2846 1925.7981,-258.1753 1887.3449,-246.5257"/>
<polygon fill="#191970" stroke="#191970" points="1888.0813,-243.0917 1877.496,-243.5419 1886.0516,-249.791 1888.0813,-243.0917"/>
</g>
<!-- Node57&#45;&gt;Node35 -->
<g id="edge137" class="edge">
<title>Node57&#45;&gt;Node35</title>
<path fill="none" stroke="#191970" d="M2038.4249,-515.3521C2038.9029,-493.1853 2037.201,-437.853 2011,-403 1990.922,-376.292 1969.3751,-389.8538 1945,-367 1911.6285,-335.7113 1918.1723,-316.0411 1890,-280 1881.9754,-269.734 1872.0091,-259.1667 1863.5918,-250.7533"/>
<polygon fill="#191970" stroke="#191970" points="1865.9892,-248.2022 1856.3974,-243.7026 1861.0897,-253.2017 1865.9892,-248.2022"/>
</g>
<!-- Node58&#45;&gt;Node8 -->
<g id="edge141" class="edge">
<title>Node58&#45;&gt;Node8</title>
<path fill="none" stroke="#191970" d="M2829.4036,-224.4553C2845.929,-211.4896 2870.2927,-187.6709 2857,-168 2772.6504,-43.1772 2571.6246,-16.9501 2494.6808,-11.4528"/>
<polygon fill="#191970" stroke="#191970" points="2494.877,-7.9583 2484.6722,-10.8066 2494.4259,-14.9437 2494.877,-7.9583"/>
</g>
<!-- Node58&#45;&gt;Node17 -->
<g id="edge140" class="edge">
<title>Node58&#45;&gt;Node17</title>
<path fill="none" stroke="#191970" d="M2809.6753,-224.29C2799.268,-209.2436 2776.9729,-180.7073 2750,-168 2667.7767,-129.2634 2380.526,-123.1466 2293.3057,-122.1809"/>
<polygon fill="#191970" stroke="#191970" points="2293.2774,-118.6806 2283.2439,-122.0832 2293.2093,-125.6803 2293.2774,-118.6806"/>
</g>
<!-- Node58&#45;&gt;Node19 -->
<g id="edge142" class="edge">
<title>Node58&#45;&gt;Node19</title>
<path fill="none" stroke="#191970" d="M2801.1703,-224.3001C2776.8403,-208.9916 2726.4042,-179.7621 2679,-168 2471.7997,-116.5885 1932.2039,-142.9177 1719,-132 1676.9936,-129.8489 1628.5931,-126.5755 1597.438,-124.3651"/>
<polygon fill="#191970" stroke="#191970" points="1597.4003,-120.8536 1587.1761,-123.6312 1596.9009,-127.8357 1597.4003,-120.8536"/>
</g>
<!-- Node58&#45;&gt;Node36 -->
<g id="edge139" class="edge">
<title>Node58&#45;&gt;Node36</title>
<path fill="none" stroke="#191970" d="M2779.7278,-224.3733C2744.0342,-214.9001 2689.4121,-200.4032 2650.7549,-190.1435"/>
<polygon fill="#191970" stroke="#191970" points="2651.3621,-186.6835 2640.7989,-187.5011 2649.5664,-193.4493 2651.3621,-186.6835"/>
</g>
<!-- Node59 -->
<g id="node60" class="node">
<title>Node59</title>
<polygon fill="#ffffff" stroke="#bfbfbf" points="2802,-168.5 2802,-187.5 2848,-187.5 2848,-168.5 2802,-168.5"/>
<text text-anchor="middle" x="2825" y="-175.5" font-family="Helvetica,sans-Serif" font-size="10.00" fill="#000000">cstdint</text>
</g>
<!-- Node58&#45;&gt;Node59 -->
<g id="edge143" class="edge">
<title>Node58&#45;&gt;Node59</title>
<path fill="none" stroke="#191970" d="M2817.5677,-224.2455C2818.7421,-216.9382 2820.3884,-206.6944 2821.8332,-197.7046"/>
<polygon fill="#191970" stroke="#191970" points="2825.3191,-198.0714 2823.4503,-187.6427 2818.4078,-196.9606 2825.3191,-198.0714"/>
</g>
<!-- Node62 -->
<g id="node63" class="node">
<title>Node62</title>
<g id="a_node63"><a xlink:href="../../d4/d3c/timebase_8h.html" target="_top" xlink:title="Declares the AJATimeBase class. ">
<polygon fill="#ffffff" stroke="#000000" points="1574,-515.5 1574,-534.5 1716,-534.5 1716,-515.5 1574,-515.5"/>
<text text-anchor="middle" x="1645" y="-522.5" font-family="Helvetica,sans-Serif" font-size="10.00" fill="#000000">ajabase/common/timebase.h</text>
</a>
</g>
</g>
<!-- Node61&#45;&gt;Node62 -->
<g id="edge150" class="edge">
<title>Node61&#45;&gt;Node62</title>
<path fill="none" stroke="#191970" d="M1645,-571.2455C1645,-563.9382 1645,-553.6944 1645,-544.7046"/>
<polygon fill="#191970" stroke="#191970" points="1648.5001,-544.6426 1645,-534.6427 1641.5001,-544.6427 1648.5001,-544.6426"/>
</g>
<!-- Node62&#45;&gt;Node35 -->
<g id="edge151" class="edge">
<title>Node62&#45;&gt;Node35</title>
<path fill="none" stroke="#191970" d="M1646.4771,-515.0976C1648.7696,-501.7265 1654.0001,-477.45 1664,-459 1705.4401,-382.5423 1738.5199,-379.578 1792,-311 1807.2762,-291.4112 1823.4675,-267.9099 1834.0907,-252.065"/>
<polygon fill="#191970" stroke="#191970" points="1837.0259,-253.972 1839.6531,-243.708 1831.1986,-250.0933 1837.0259,-253.972"/>
</g>
<!-- Node62&#45;&gt;Node51 -->
<g id="edge152" class="edge">
<title>Node62&#45;&gt;Node51</title>
<path fill="none" stroke="#191970" d="M1694.694,-515.4369C1745.0196,-505.7522 1822.8723,-490.7703 1876.4651,-480.4569"/>
<polygon fill="#191970" stroke="#191970" points="1877.3525,-483.8504 1886.5109,-478.5237 1876.0297,-476.9765 1877.3525,-483.8504"/>
</g>
<!-- Node63&#45;&gt;Node8 -->
<g id="edge156" class="edge">
<title>Node63&#45;&gt;Node8</title>
<path fill="none" stroke="#191970" d="M2737.5015,-517.0408C2846.6156,-503.9814 3028,-473.2163 3028,-413 3028,-413 3028,-413 3028,-122 3028,-84.6561 3008.834,-73.7903 2976,-56 2933.6541,-33.0559 2598.6904,-16.0991 2494.6911,-11.3458"/>
<polygon fill="#191970" stroke="#191970" points="2494.6885,-7.8422 2484.5407,-10.8873 2494.3725,-14.8351 2494.6885,-7.8422"/>
</g>
<!-- Node63&#45;&gt;Node36 -->
<g id="edge154" class="edge">
<title>Node63&#45;&gt;Node36</title>
<path fill="none" stroke="#191970" d="M2660.3937,-515.2503C2666.7916,-495.9723 2680,-451.5094 2680,-413 2680,-413 2680,-413 2680,-295.5 2680,-254.1168 2646.5363,-215.5926 2624.3144,-194.5723"/>
<polygon fill="#191970" stroke="#191970" points="2626.4665,-191.7982 2616.7188,-187.6471 2621.7503,-196.971 2626.4665,-191.7982"/>
</g>
<!-- Node63&#45;&gt;Node51 -->
<g id="edge155" class="edge">
<title>Node63&#45;&gt;Node51</title>
<path fill="none" stroke="#191970" d="M2576.3908,-518.7391C2439.0875,-508.0748 2161.1254,-486.4855 2020.9312,-475.5966"/>
<polygon fill="#191970" stroke="#191970" points="2020.9103,-472.0845 2010.6693,-474.7996 2020.3682,-479.0635 2020.9103,-472.0845"/>
</g>
<!-- Node64&#45;&gt;Node35 -->
<g id="edge158" class="edge">
<title>Node64&#45;&gt;Node35</title>
<path fill="none" stroke="#191970" d="M1933.743,-403.2737C1927.8973,-394.0607 1919.0398,-379.7733 1912,-367 1890.032,-327.1403 1866.9715,-278.9971 1854.7753,-252.9572"/>
<polygon fill="#191970" stroke="#191970" points="1857.917,-251.4127 1850.5207,-243.8268 1851.572,-254.3693 1857.917,-251.4127"/>
</g>
<!-- Node65&#45;&gt;Node35 -->
<g id="edge160" class="edge">
<title>Node65&#45;&gt;Node35</title>
<path fill="none" stroke="#191970" d="M1745.5777,-459.435C1757.6246,-441.6938 1783.6743,-402.2785 1802,-367 1814.4824,-342.9704 1817.2381,-336.6215 1826,-311 1832.5452,-291.8606 1838.1472,-269.4194 1841.743,-253.7181"/>
<polygon fill="#191970" stroke="#191970" points="1845.2344,-254.1416 1843.9916,-243.6199 1838.4017,-252.6201 1845.2344,-254.1416"/>
</g>
<!-- Node66&#45;&gt;Node17 -->
<g id="edge170" class="edge">
<title>Node66&#45;&gt;Node17</title>
<path fill="none" stroke="#191970" d="M1574.2695,-288.0424C1600.8932,-285.3802 1631.3069,-282.4387 1659,-280 1762.243,-270.9081 2027.4671,-281.7249 2124,-244 2180.6975,-221.8427 2230.9412,-167.5933 2254.2385,-139.5"/>
<polygon fill="#191970" stroke="#191970" points="2256.9965,-141.6557 2260.5808,-131.6856 2251.5614,-137.2444 2256.9965,-141.6557"/>
</g>
<!-- Node66&#45;&gt;Node18 -->
<g id="edge169" class="edge">
<title>Node66&#45;&gt;Node18</title>
<path fill="none" stroke="#191970" d="M1513.9044,-285.7735C1540.9597,-263.8236 1609.4257,-209.1515 1670,-168 1686.3755,-156.8752 1705.4364,-145.3418 1720.3728,-136.6063"/>
<polygon fill="#191970" stroke="#191970" points="1722.1842,-139.6019 1729.079,-131.5575 1718.6725,-133.5464 1722.1842,-139.6019"/>
</g>
<!-- Node66&#45;&gt;Node19 -->
<g id="edge171" class="edge">
<title>Node66&#45;&gt;Node19</title>
<path fill="none" stroke="#191970" d="M1513.3898,-285.6951C1523.6765,-276.1469 1538.3397,-260.6695 1546,-244 1561.4464,-210.3873 1564.7018,-166.6529 1565.183,-141.717"/>
<polygon fill="#191970" stroke="#191970" points="1568.6831,-141.7073 1565.2428,-131.6866 1561.6832,-141.6656 1568.6831,-141.7073"/>
</g>
<!-- Node66&#45;&gt;Node32 -->
<g id="edge168" class="edge">
<title>Node66&#45;&gt;Node32</title>
<path fill="none" stroke="#191970" d="M1429.8774,-289.1327C1321.5446,-279.5374 1110.3802,-260.7133 931,-244 919.0066,-242.8825 906.2374,-241.6719 893.902,-240.4917"/>
<polygon fill="#191970" stroke="#191970" points="893.9572,-236.981 883.6687,-239.5102 893.2888,-243.9491 893.9572,-236.981"/>
</g>
<!-- Node66&#45;&gt;Node48 -->
<g id="edge167" class="edge">
<title>Node66&#45;&gt;Node48</title>
<path fill="none" stroke="#191970" d="M1478.7188,-285.8906C1453.679,-275.5554 1413.6775,-259.0447 1385.534,-247.4284"/>
<polygon fill="#191970" stroke="#191970" points="1386.6967,-244.122 1376.1178,-243.5419 1384.026,-250.5925 1386.6967,-244.122"/>
</g>
</g>
</svg>
