<?xml version="1.0" encoding="UTF-8" standalone="no"?>
<!DOCTYPE svg PUBLIC "-//W3C//DTD SVG 1.1//EN"
 "http://www.w3.org/Graphics/SVG/1.1/DTD/svg11.dtd">
<!-- Generated by graphviz version 2.40.1 (0)
 -->
<!-- Title: CPosPassThru Pages: 1 -->
<svg width="292pt" height="252pt"
 viewBox="0.00 0.00 292.00 252.00" xmlns="http://www.w3.org/2000/svg" xmlns:xlink="http://www.w3.org/1999/xlink">
<g id="graph0" class="graph" transform="scale(1 1) rotate(0) translate(4 248)">
<title>CPosPassThru</title>
<polygon fill="#ffffff" stroke="transparent" points="-4,4 -4,-248 288,-248 288,4 -4,4"/>
<!-- Node0 -->
<g id="node1" class="node">
<title>Node0</title>
<polygon fill="#bfbfbf" stroke="#000000" points="50,-56.5 50,-75.5 133,-75.5 133,-56.5 50,-56.5"/>
<text text-anchor="middle" x="91.5" y="-63.5" font-family="Helvetica,sans-Serif" font-size="10.00" fill="#000000">CPosPassThru</text>
</g>
<!-- Node7 -->
<g id="node8" class="node">
<title>Node7</title>
<g id="a_node8"><a xlink:href="../../d1/d9f/class_c_renderer_pos_pass_thru.html" target="_top" xlink:title="CRendererPosPassThru">
<polygon fill="#ffffff" stroke="#000000" points="30,-.5 30,-19.5 153,-19.5 153,-.5 30,-.5"/>
<text text-anchor="middle" x="91.5" y="-7.5" font-family="Helvetica,sans-Serif" font-size="10.00" fill="#000000">CRendererPosPassThru</text>
</a>
</g>
</g>
<!-- Node0&#45;&gt;Node7 -->
<g id="edge7" class="edge">
<title>Node0&#45;&gt;Node7</title>
<path fill="none" stroke="#191970" d="M91.5,-46.1575C91.5,-37.155 91.5,-26.9199 91.5,-19.6427"/>
<polygon fill="#191970" stroke="#191970" points="88.0001,-46.2455 91.5,-56.2455 95.0001,-46.2456 88.0001,-46.2455"/>
</g>
<!-- Node1 -->
<g id="node2" class="node">
<title>Node1</title>
<polygon fill="#ffffff" stroke="#bfbfbf" points="0,-112.5 0,-131.5 81,-131.5 81,-112.5 0,-112.5"/>
<text text-anchor="middle" x="40.5" y="-119.5" font-family="Helvetica,sans-Serif" font-size="10.00" fill="#000000">IMediaSeeking</text>
</g>
<!-- Node1&#45;&gt;Node0 -->
<g id="edge1" class="edge">
<title>Node1&#45;&gt;Node0</title>
<path fill="none" stroke="#191970" d="M56.1749,-104.7884C64.8994,-95.2085 75.4354,-83.6396 82.7183,-75.6427"/>
<polygon fill="#191970" stroke="#191970" points="53.5291,-102.4954 49.3835,-112.2455 58.7046,-107.2088 53.5291,-102.4954"/>
</g>
<!-- Node2 -->
<g id="node3" class="node">
<title>Node2</title>
<g id="a_node3"><a xlink:href="../../dc/d81/class_c_media_position.html" target="_top" xlink:title="CMediaPosition">
<polygon fill="#ffffff" stroke="#000000" points="99.5,-112.5 99.5,-131.5 185.5,-131.5 185.5,-112.5 99.5,-112.5"/>
<text text-anchor="middle" x="142.5" y="-119.5" font-family="Helvetica,sans-Serif" font-size="10.00" fill="#000000">CMediaPosition</text>
</a>
</g>
</g>
<!-- Node2&#45;&gt;Node0 -->
<g id="edge2" class="edge">
<title>Node2&#45;&gt;Node0</title>
<path fill="none" stroke="#191970" d="M126.8251,-104.7884C118.1006,-95.2085 107.5646,-83.6396 100.2817,-75.6427"/>
<polygon fill="#191970" stroke="#191970" points="124.2954,-107.2088 133.6165,-112.2455 129.4709,-102.4954 124.2954,-107.2088"/>
</g>
<!-- Node3 -->
<g id="node4" class="node">
<title>Node3</title>
<polygon fill="#ffffff" stroke="#bfbfbf" points="56,-168.5 56,-187.5 137,-187.5 137,-168.5 56,-168.5"/>
<text text-anchor="middle" x="96.5" y="-175.5" font-family="Helvetica,sans-Serif" font-size="10.00" fill="#000000">IMediaPosition</text>
</g>
<!-- Node3&#45;&gt;Node2 -->
<g id="edge3" class="edge">
<title>Node3&#45;&gt;Node2</title>
<path fill="none" stroke="#191970" d="M110.8747,-160.5004C118.6971,-150.9775 128.076,-139.5596 134.5792,-131.6427"/>
<polygon fill="#191970" stroke="#191970" points="108.1555,-158.2967 104.5126,-168.2455 113.5646,-162.7399 108.1555,-158.2967"/>
</g>
<!-- Node4 -->
<g id="node5" class="node">
<title>Node4</title>
<g id="a_node5"><a xlink:href="../../d9/d89/class_c_unknown.html" target="_top" xlink:title="CUnknown">
<polygon fill="#ffffff" stroke="#000000" points="155,-168.5 155,-187.5 220,-187.5 220,-168.5 155,-168.5"/>
<text text-anchor="middle" x="187.5" y="-175.5" font-family="Helvetica,sans-Serif" font-size="10.00" fill="#000000">CUnknown</text>
</a>
</g>
</g>
<!-- Node4&#45;&gt;Node2 -->
<g id="edge4" class="edge">
<title>Node4&#45;&gt;Node2</title>
<path fill="none" stroke="#191970" d="M173.2054,-160.2112C165.6004,-150.7472 156.5462,-139.4797 150.2486,-131.6427"/>
<polygon fill="#191970" stroke="#191970" points="170.6694,-162.6428 179.6616,-168.2455 176.1259,-158.2581 170.6694,-162.6428"/>
</g>
<!-- Node5 -->
<g id="node6" class="node">
<title>Node5</title>
<polygon fill="#ffffff" stroke="#bfbfbf" points="66,-224.5 66,-243.5 191,-243.5 191,-224.5 66,-224.5"/>
<text text-anchor="middle" x="128.5" y="-231.5" font-family="Helvetica,sans-Serif" font-size="10.00" fill="#000000">INonDelegatingUnknown</text>
</g>
<!-- Node5&#45;&gt;Node4 -->
<g id="edge5" class="edge">
<title>Node5&#45;&gt;Node4</title>
<path fill="none" stroke="#191970" d="M146.0307,-217.3607C156.2377,-207.6727 168.7469,-195.7995 177.3408,-187.6427"/>
<polygon fill="#191970" stroke="#191970" points="143.6206,-214.8227 138.777,-224.2455 148.4396,-219.8998 143.6206,-214.8227"/>
</g>
<!-- Node6 -->
<g id="node7" class="node">
<title>Node6</title>
<g id="a_node7"><a xlink:href="../../d1/d2d/class_c_base_object.html" target="_top" xlink:title="CBaseObject">
<polygon fill="#ffffff" stroke="#000000" points="209,-224.5 209,-243.5 284,-243.5 284,-224.5 209,-224.5"/>
<text text-anchor="middle" x="246.5" y="-231.5" font-family="Helvetica,sans-Serif" font-size="10.00" fill="#000000">CBaseObject</text>
</a>
</g>
</g>
<!-- Node6&#45;&gt;Node4 -->
<g id="edge6" class="edge">
<title>Node6&#45;&gt;Node4</title>
<path fill="none" stroke="#191970" d="M228.9693,-217.3607C218.7623,-207.6727 206.2531,-195.7995 197.6592,-187.6427"/>
<polygon fill="#191970" stroke="#191970" points="226.5604,-219.8998 236.223,-224.2455 231.3794,-214.8227 226.5604,-219.8998"/>
</g>
</g>
</svg>
