<?xml version="1.0" encoding="UTF-8" standalone="no"?>
<!DOCTYPE svg PUBLIC "-//W3C//DTD SVG 1.1//EN"
 "http://www.w3.org/Graphics/SVG/1.1/DTD/svg11.dtd">
<!-- Generated by graphviz version 2.43.0 (0)
 -->
<!-- Title: /home/tcbuilder/buildAgent/work/df8e8cce5bebfd58/libajantv2/ajabase/system/windows/threadimpl.h Pages: 1 -->
<svg width="227pt" height="128pt"
 viewBox="0.00 0.00 227.00 128.00" xmlns="http://www.w3.org/2000/svg" xmlns:xlink="http://www.w3.org/1999/xlink">
<g id="graph0" class="graph" transform="scale(1 1) rotate(0) translate(4 124)">
<title>/home/tcbuilder/buildAgent/work/df8e8cce5bebfd58/libajantv2/ajabase/system/windows/threadimpl.h</title>
<polygon fill="white" stroke="transparent" points="-4,4 -4,-124 223,-124 223,4 -4,4"/>
<!-- Node1 -->
<g id="node1" class="node">
<title>Node1</title>
<g id="a_node1"><a xlink:title="Declares the AJAThreadImpl class.">
<polygon fill="#bfbfbf" stroke="black" points="5.5,-78.5 5.5,-119.5 213.5,-119.5 213.5,-78.5 5.5,-78.5"/>
<text text-anchor="start" x="13.5" y="-107.5" font-family="Helvetica,sans-Serif" font-size="10.00">/home/tcbuilder/buildAgent</text>
<text text-anchor="start" x="13.5" y="-96.5" font-family="Helvetica,sans-Serif" font-size="10.00">/work/df8e8cce5bebfd58/libajantv2</text>
<text text-anchor="middle" x="109.5" y="-85.5" font-family="Helvetica,sans-Serif" font-size="10.00">/ajabase/system/windows/threadimpl.h</text>
</a>
</g>
</g>
<!-- Node2 -->
<g id="node2" class="node">
<title>Node2</title>
<g id="a_node2"><a xlink:href="../../d1/dda/windows_2threadimpl_8cpp.html" target="_top" xlink:title="Implements the AJAThreadImpl class for the Windows platform.">
<polygon fill="white" stroke="black" points="0,-0.5 0,-41.5 219,-41.5 219,-0.5 0,-0.5"/>
<text text-anchor="start" x="8" y="-29.5" font-family="Helvetica,sans-Serif" font-size="10.00">/home/tcbuilder/buildAgent</text>
<text text-anchor="start" x="8" y="-18.5" font-family="Helvetica,sans-Serif" font-size="10.00">/work/df8e8cce5bebfd58/libajantv2</text>
<text text-anchor="middle" x="109.5" y="-7.5" font-family="Helvetica,sans-Serif" font-size="10.00">/ajabase/system/windows/threadimpl.cpp</text>
</a>
</g>
</g>
<!-- Node1&#45;&gt;Node2 -->
<g id="edge1" class="edge">
<title>Node1&#45;&gt;Node2</title>
<path fill="none" stroke="midnightblue" d="M109.5,-68.3C109.5,-59.3 109.5,-49.65 109.5,-41.51"/>
<polygon fill="midnightblue" stroke="midnightblue" points="106,-68.43 109.5,-78.43 113,-68.43 106,-68.43"/>
</g>
</g>
</svg>
