<?xml version="1.0" encoding="UTF-8" standalone="no"?>
<!DOCTYPE svg PUBLIC "-//W3C//DTD SVG 1.1//EN"
 "http://www.w3.org/Graphics/SVG/1.1/DTD/svg11.dtd">
<!-- Generated by graphviz version 2.40.1 (0)
 -->
<!-- Title: /home/tcbuilder/buildAgent/work/df8e8cce5bebfd58/libajantv2/demos/ntv2encodehevc/ntv2encodehevc.h Pages: 1 -->
<svg width="410pt" height="128pt"
 viewBox="0.00 0.00 409.50 128.00" xmlns="http://www.w3.org/2000/svg" xmlns:xlink="http://www.w3.org/1999/xlink">
<g id="graph0" class="graph" transform="scale(1 1) rotate(0) translate(4 124)">
<title>/home/tcbuilder/buildAgent/work/df8e8cce5bebfd58/libajantv2/demos/ntv2encodehevc/ntv2encodehevc.h</title>
<polygon fill="#ffffff" stroke="transparent" points="-4,4 -4,-124 405.5,-124 405.5,4 -4,4"/>
<!-- Node66 -->
<g id="node1" class="node">
<title>Node66</title>
<polygon fill="#bfbfbf" stroke="#000000" points="85.5,-78.5 85.5,-119.5 291.5,-119.5 291.5,-78.5 85.5,-78.5"/>
<text text-anchor="start" x="93.5" y="-107.5" font-family="Helvetica,sans-Serif" font-size="10.00" fill="#000000">/home/tcbuilder/buildAgent</text>
<text text-anchor="start" x="93.5" y="-96.5" font-family="Helvetica,sans-Serif" font-size="10.00" fill="#000000">/work/df8e8cce5bebfd58/libajantv2</text>
<text text-anchor="middle" x="188.5" y="-85.5" font-family="Helvetica,sans-Serif" font-size="10.00" fill="#000000">/demos/ntv2encodehevc/ntv2encodehevc.h</text>
</g>
<!-- Node67 -->
<g id="node2" class="node">
<title>Node67</title>
<g id="a_node2"><a xlink:href="../../d6/def/ntv2encodehevc_2main_8cpp.html" target="_top" xlink:title="Demonstration application to capture frames from SDI input. ">
<polygon fill="#ffffff" stroke="#000000" points="0,-.5 0,-41.5 167,-41.5 167,-.5 0,-.5"/>
<text text-anchor="start" x="8" y="-29.5" font-family="Helvetica,sans-Serif" font-size="10.00" fill="#000000">/home/tcbuilder/buildAgent</text>
<text text-anchor="start" x="8" y="-18.5" font-family="Helvetica,sans-Serif" font-size="10.00" fill="#000000">/work/df8e8cce5bebfd58/libajantv2</text>
<text text-anchor="middle" x="83.5" y="-7.5" font-family="Helvetica,sans-Serif" font-size="10.00" fill="#000000">/demos/ntv2encodehevc/main.cpp</text>
</a>
</g>
</g>
<!-- Node66&#45;&gt;Node67 -->
<g id="edge1" class="edge">
<title>Node66&#45;&gt;Node67</title>
<path fill="none" stroke="#191970" d="M152.4597,-72.2272C138.9294,-62.1761 123.7764,-50.9196 111.1283,-41.5239"/>
<polygon fill="#191970" stroke="#191970" points="150.523,-75.1485 160.6376,-78.3022 154.6973,-69.5293 150.523,-75.1485"/>
</g>
<!-- Node68 -->
<g id="node3" class="node">
<title>Node68</title>
<g id="a_node3"><a xlink:href="../../da/d2f/ntv2encodehevc_8cpp.html" target="_top" xlink:title="Implementation of NTV2EncodeHEVC class. ">
<polygon fill="#ffffff" stroke="#000000" points="185.5,-.5 185.5,-41.5 401.5,-41.5 401.5,-.5 185.5,-.5"/>
<text text-anchor="start" x="193.5" y="-29.5" font-family="Helvetica,sans-Serif" font-size="10.00" fill="#000000">/home/tcbuilder/buildAgent</text>
<text text-anchor="start" x="193.5" y="-18.5" font-family="Helvetica,sans-Serif" font-size="10.00" fill="#000000">/work/df8e8cce5bebfd58/libajantv2</text>
<text text-anchor="middle" x="293.5" y="-7.5" font-family="Helvetica,sans-Serif" font-size="10.00" fill="#000000">/demos/ntv2encodehevc/ntv2encodehevc.cpp</text>
</a>
</g>
</g>
<!-- Node66&#45;&gt;Node68 -->
<g id="edge2" class="edge">
<title>Node66&#45;&gt;Node68</title>
<path fill="none" stroke="#191970" d="M224.5403,-72.2272C238.0706,-62.1761 253.2236,-50.9196 265.8717,-41.5239"/>
<polygon fill="#191970" stroke="#191970" points="222.3027,-69.5293 216.3624,-78.3022 226.477,-75.1485 222.3027,-69.5293"/>
</g>
</g>
</svg>
