<?xml version="1.0" encoding="UTF-8" standalone="no"?>
<!DOCTYPE svg PUBLIC "-//W3C//DTD SVG 1.1//EN"
 "http://www.w3.org/Graphics/SVG/1.1/DTD/svg11.dtd">
<!-- Generated by graphviz version 2.43.0 (0)
 -->
<!-- Title: CNTV2LinuxDriverInterface Pages: 1 -->
<svg width="231pt" height="296pt"
 viewBox="0.00 0.00 230.50 296.00" xmlns="http://www.w3.org/2000/svg" xmlns:xlink="http://www.w3.org/1999/xlink">
<g id="graph0" class="graph" transform="scale(1 1) rotate(0) translate(4 292)">
<title>CNTV2LinuxDriverInterface</title>
<polygon fill="white" stroke="transparent" points="-4,4 -4,-292 226.5,-292 226.5,4 -4,4"/>
<!-- Node1 -->
<g id="node1" class="node">
<title>Node1</title>
<g id="a_node1"><a xlink:title="Linux implementation of CNTV2DriverInterface.">
<polygon fill="#bfbfbf" stroke="black" points="38,-0.5 38,-19.5 187,-19.5 187,-0.5 38,-0.5"/>
<text text-anchor="middle" x="112.5" y="-7.5" font-family="Helvetica,sans-Serif" font-size="10.00">CNTV2LinuxDriverInterface</text>
</a>
</g>
</g>
<!-- Node2 -->
<g id="node2" class="node">
<title>Node2</title>
<g id="a_node2"><a xlink:href="../../d0/dbc/class_c_n_t_v2_driver_interface.html" target="_top" xlink:title="I&#39;m the base class that undergirds the platform&#45;specific derived classes (from which CNTV2Card is ult...">
<polygon fill="white" stroke="black" points="0,-67.5 0,-86.5 123,-86.5 123,-67.5 0,-67.5"/>
<text text-anchor="middle" x="61.5" y="-74.5" font-family="Helvetica,sans-Serif" font-size="10.00">CNTV2DriverInterface</text>
</a>
</g>
</g>
<!-- Node2&#45;&gt;Node1 -->
<g id="edge1" class="edge">
<title>Node2&#45;&gt;Node1</title>
<path fill="none" stroke="midnightblue" d="M74.63,-59.27C84.57,-46.6 97.83,-29.7 105.73,-19.63"/>
<polygon fill="midnightblue" stroke="midnightblue" points="71.8,-57.21 68.38,-67.23 77.3,-61.53 71.8,-57.21"/>
</g>
<!-- Node3 -->
<g id="node3" class="node">
<title>Node3</title>
<g id="a_node3"><a xlink:href="../../d2/d94/class_n_t_v2_r_p_c_client_a_p_i.html" target="_top" xlink:title="An object that can connect to, and operate remote or fake devices. I have three general API groups:">
<polygon fill="white" stroke="black" points="83,-134.5 83,-153.5 190,-153.5 190,-134.5 83,-134.5"/>
<text text-anchor="middle" x="136.5" y="-141.5" font-family="Helvetica,sans-Serif" font-size="10.00">NTV2RPCClientAPI</text>
</a>
</g>
</g>
<!-- Node3&#45;&gt;Node2 -->
<g id="edge2" class="edge">
<title>Node3&#45;&gt;Node2</title>
<path fill="none" stroke="#9a32cd" stroke-dasharray="5,2" d="M118.45,-127.36C103.71,-114.58 83.41,-96.99 71.45,-86.63"/>
<polygon fill="#9a32cd" stroke="#9a32cd" points="116.54,-130.33 126.39,-134.23 121.12,-125.04 116.54,-130.33"/>
<text text-anchor="middle" x="128.5" y="-108" font-family="Helvetica,sans-Serif" font-size="10.00"> _pRPCAPI</text>
</g>
<!-- Node4 -->
<g id="node4" class="node">
<title>Node4</title>
<g id="a_node4"><a xlink:href="../../d7/d93/class_n_t_v2_r_p_c_base.html" target="_top" xlink:title="Common base class for NTV2RPCClientAPI and NTV2RPCServerAPI.">
<polygon fill="white" stroke="black" points="103.5,-201.5 103.5,-220.5 189.5,-220.5 189.5,-201.5 103.5,-201.5"/>
<text text-anchor="middle" x="146.5" y="-208.5" font-family="Helvetica,sans-Serif" font-size="10.00">NTV2RPCBase</text>
</a>
</g>
</g>
<!-- Node4&#45;&gt;Node3 -->
<g id="edge3" class="edge">
<title>Node4&#45;&gt;Node3</title>
<path fill="none" stroke="midnightblue" d="M143.58,-191.04C141.68,-178.67 139.29,-163.12 137.83,-153.63"/>
<polygon fill="midnightblue" stroke="midnightblue" points="140.17,-191.88 145.15,-201.23 147.09,-190.82 140.17,-191.88"/>
</g>
<!-- Node5 -->
<g id="node5" class="node">
<title>Node5</title>
<g id="a_node5"><a xlink:href="../../d9/df4/class_a_j_a_lock.html" target="_top" xlink:title=" ">
<polygon fill="white" stroke="black" points="32.5,-268.5 32.5,-287.5 88.5,-287.5 88.5,-268.5 32.5,-268.5"/>
<text text-anchor="middle" x="60.5" y="-275.5" font-family="Helvetica,sans-Serif" font-size="10.00">AJALock</text>
</a>
</g>
</g>
<!-- Node5&#45;&gt;Node2 -->
<g id="edge6" class="edge">
<title>Node5&#45;&gt;Node2</title>
<path fill="none" stroke="#9a32cd" stroke-dasharray="5,2" d="M56.96,-258.21C53.42,-237.22 48.74,-202.23 50.5,-172 52.34,-140.51 57.61,-103.38 60.13,-86.78"/>
<polygon fill="#9a32cd" stroke="#9a32cd" points="53.56,-259.07 58.77,-268.3 60.46,-257.85 53.56,-259.07"/>
<text text-anchor="middle" x="93.5" y="-175" font-family="Helvetica,sans-Serif" font-size="10.00"> mRegWritesLock</text>
</g>
<!-- Node5&#45;&gt;Node4 -->
<g id="edge4" class="edge">
<title>Node5&#45;&gt;Node4</title>
<path fill="none" stroke="#9a32cd" stroke-dasharray="5,2" d="M68.66,-259.47C72.64,-252.39 77.99,-244.59 84.5,-239 93.94,-230.9 106.2,-224.87 117.31,-220.6"/>
<polygon fill="#9a32cd" stroke="#9a32cd" points="65.53,-257.91 64.1,-268.41 71.76,-261.09 65.53,-257.91"/>
<text text-anchor="middle" x="118" y="-242" font-family="Helvetica,sans-Serif" font-size="10.00"> mParamLock</text>
</g>
<!-- Node6 -->
<g id="node6" class="node">
<title>Node6</title>
<g id="a_node6"><a xlink:href="../../d6/d01/class_n_t_v2_dictionary.html" target="_top" xlink:title="A simple (not thread&#45;safe) set of key/value pairs. (New in SDK 16.3)">
<polygon fill="white" stroke="black" points="122,-268.5 122,-287.5 215,-287.5 215,-268.5 122,-268.5"/>
<text text-anchor="middle" x="168.5" y="-275.5" font-family="Helvetica,sans-Serif" font-size="10.00">NTV2Dictionary</text>
</a>
</g>
</g>
<!-- Node6&#45;&gt;Node4 -->
<g id="edge5" class="edge">
<title>Node6&#45;&gt;Node4</title>
<path fill="none" stroke="#9a32cd" stroke-dasharray="5,2" d="M162.21,-258.41C158,-245.99 152.67,-230.22 149.42,-220.63"/>
<polygon fill="#9a32cd" stroke="#9a32cd" points="159.01,-259.88 165.53,-268.23 165.64,-257.64 159.01,-259.88"/>
<text text-anchor="middle" x="183" y="-242" font-family="Helvetica,sans-Serif" font-size="10.00"> mParams</text>
</g>
<!-- Node7 -->
<g id="node7" class="node">
<title>Node7</title>
<g id="a_node7"><a xlink:title=" ">
<polygon fill="white" stroke="#bfbfbf" points="141.5,-67.5 141.5,-86.5 185.5,-86.5 185.5,-67.5 141.5,-67.5"/>
<text text-anchor="middle" x="163.5" y="-74.5" font-family="Helvetica,sans-Serif" font-size="10.00">string</text>
</a>
</g>
</g>
<!-- Node7&#45;&gt;Node1 -->
<g id="edge7" class="edge">
<title>Node7&#45;&gt;Node1</title>
<path fill="none" stroke="#9a32cd" stroke-dasharray="5,2" d="M150.37,-59.27C140.43,-46.6 127.17,-29.7 119.27,-19.63"/>
<polygon fill="#9a32cd" stroke="#9a32cd" points="147.7,-61.53 156.62,-67.23 153.2,-57.21 147.7,-61.53"/>
<text text-anchor="middle" x="181.5" y="-41" font-family="Helvetica,sans-Serif" font-size="10.00"> _bitfileDirectory</text>
</g>
</g>
</svg>
