<?xml version="1.0" encoding="UTF-8" standalone="no"?>
<!DOCTYPE svg PUBLIC "-//W3C//DTD SVG 1.1//EN"
 "http://www.w3.org/Graphics/SVG/1.1/DTD/svg11.dtd">
<!-- Generated by graphviz version 2.40.1 (0)
 -->
<!-- Title: /home/tcbuilder/buildAgent/work/df8e8cce5bebfd58/libajantv2/ajantv2/src/ntv2supportlogger.cpp Pages: 1 -->
<!--zoomable 733 -->
<svg id="main" version="1.1" xmlns="http://www.w3.org/2000/svg" xmlns:xlink="http://www.w3.org/1999/xlink" xml:space="preserve" onload="init(evt)">
<style type="text/css"><![CDATA[
.edge:hover path { stroke: red; }
.edge:hover polygon { stroke: red; fill: red; }
]]></style>
<script type="text/javascript"><![CDATA[
var edges = document.getElementsByTagName('g');
if (edges && edges.length) {
  for (var i=0;i<edges.length;i++) {
    if (edges[i].id.substr(0,4)=='edge') {
      edges[i].setAttribute('class','edge');
    }
  }
}
]]></script>
        <defs>
                <circle id="rim" cx="0" cy="0" r="7"/>
                <circle id="rim2" cx="0" cy="0" r="3.5"/>
                <g id="zoomPlus">
                        <use xlink:href="#rim" fill="#404040">
                                <set attributeName="fill" to="#808080" begin="zoomplus.mouseover" end="zoomplus.mouseout"/>
                        </use>
                        <path d="M-4,0h8M0,-4v8" fill="none" stroke="white" stroke-width="1.5" pointer-events="none"/>
                </g>
                <g id="zoomMin">
                        <use xlink:href="#rim" fill="#404040">
                                <set attributeName="fill" to="#808080" begin="zoomminus.mouseover" end="zoomminus.mouseout"/>
                        </use>
                        <path d="M-4,0h8" fill="none" stroke="white" stroke-width="1.5" pointer-events="none"/>
                </g>
                <g id="dirArrow">
                        <path fill="none" stroke="white" stroke-width="1.5" d="M0,-3.0v7 M-2.5,-0.5L0,-3.0L2.5,-0.5"/>
                </g>
               <g id="resetDef">
                       <use xlink:href="#rim2" fill="#404040">
                               <set attributeName="fill" to="#808080" begin="reset.mouseover" end="reset.mouseout"/>
                       </use>
               </g>
        </defs>

<script type="text/javascript">
var viewWidth = 2864;
var viewHeight = 733;
var sectionId = 'dynsection-0';
</script>
<script xlink:href="../../svgpan.js"/>
<svg id="graph" class="graph">
<g id="viewport">
<title>/home/tcbuilder/buildAgent/work/df8e8cce5bebfd58/libajantv2/ajantv2/src/ntv2supportlogger.cpp</title>
<polygon fill="#ffffff" stroke="transparent" points="-4,4 -4,-729 2860.3431,-729 2860.3431,4 -4,4"/>
<!-- Node0 -->
<g id="node1" class="node">
<title>Node0</title>
<polygon fill="#bfbfbf" stroke="#000000" points="2176.0768,-683.5 2176.0768,-724.5 2343.0768,-724.5 2343.0768,-683.5 2176.0768,-683.5"/>
<text text-anchor="start" x="2184.0768" y="-712.5" font-family="Helvetica,sans-Serif" font-size="10.00" fill="#000000">/home/tcbuilder/buildAgent</text>
<text text-anchor="start" x="2184.0768" y="-701.5" font-family="Helvetica,sans-Serif" font-size="10.00" fill="#000000">/work/df8e8cce5bebfd58/libajantv2</text>
<text text-anchor="middle" x="2259.5768" y="-690.5" font-family="Helvetica,sans-Serif" font-size="10.00" fill="#000000">/ajantv2/src/ntv2supportlogger.cpp</text>
</g>
<!-- Node1 -->
<g id="node2" class="node">
<title>Node1</title>
<g id="a_node2"><a xlink:href="../../d0/db3/ntv2supportlogger_8h.html" target="_top" xlink:title="Declares the CNTV2SupportLogger class. ">
<polygon fill="#ffffff" stroke="#000000" points="2092.0768,-560.5 2092.0768,-579.5 2193.0768,-579.5 2193.0768,-560.5 2092.0768,-560.5"/>
<text text-anchor="middle" x="2142.5768" y="-567.5" font-family="Helvetica,sans-Serif" font-size="10.00" fill="#000000">ntv2supportlogger.h</text>
</a>
</g>
</g>
<!-- Node0&#45;&gt;Node1 -->
<g id="edge1" class="edge">
<title>Node0&#45;&gt;Node1</title>
<path fill="none" stroke="#191970" d="M2240.3656,-683.3274C2230.4697,-672.582 2218.2681,-659.1818 2207.5768,-647 2189.8561,-626.8088 2170.0064,-603.1346 2156.9583,-587.4213"/>
<polygon fill="#191970" stroke="#191970" points="2159.5404,-585.0518 2150.4658,-579.5834 2154.1496,-589.5172 2159.5404,-585.0518"/>
</g>
<!-- Node15 -->
<g id="node16" class="node">
<title>Node15</title>
<polygon fill="#ffffff" stroke="#bfbfbf" points="1886.5768,-112.5 1886.5768,-131.5 1930.5768,-131.5 1930.5768,-112.5 1886.5768,-112.5"/>
<text text-anchor="middle" x="1908.5768" y="-119.5" font-family="Helvetica,sans-Serif" font-size="10.00" fill="#000000">vector</text>
</g>
<!-- Node0&#45;&gt;Node15 -->
<g id="edge153" class="edge">
<title>Node0&#45;&gt;Node15</title>
<path fill="none" stroke="#191970" d="M2249.7908,-683.1675C2238.5317,-657.2473 2221.5768,-611.3499 2221.5768,-570 2221.5768,-570 2221.5768,-570 2221.5768,-402 2221.5768,-316.662 2215.5296,-278.1552 2149.5768,-224 2085.3256,-171.2422 1989.7953,-141.7918 1940.5283,-129.2842"/>
<polygon fill="#191970" stroke="#191970" points="1941.2927,-125.8679 1930.7454,-126.87 1939.6156,-132.664 1941.2927,-125.8679"/>
</g>
<!-- Node36 -->
<g id="node37" class="node">
<title>Node36</title>
<g id="a_node37"><a xlink:href="../../d8/d0f/ntv2devicefeatures_8h.html" target="_top" xlink:title="Declares device capability functions. ">
<polygon fill="#ffffff" stroke="#000000" points="91.0768,-224.5 91.0768,-243.5 198.0768,-243.5 198.0768,-224.5 91.0768,-224.5"/>
<text text-anchor="middle" x="144.5768" y="-231.5" font-family="Helvetica,sans-Serif" font-size="10.00" fill="#000000">ntv2devicefeatures.h</text>
</a>
</g>
</g>
<!-- Node0&#45;&gt;Node36 -->
<g id="edge97" class="edge">
<title>Node0&#45;&gt;Node36</title>
<path fill="none" stroke="#191970" d="M2176.0018,-703.3997C1806.6448,-700.5217 335.0347,-686.6043 245.5768,-647 202.1757,-627.7857 171.5768,-617.4641 171.5768,-570 171.5768,-570 171.5768,-570 171.5768,-346 171.5768,-312.6538 160.1255,-275.2392 152.1382,-253.1981"/>
<polygon fill="#191970" stroke="#191970" points="155.3604,-251.823 148.5607,-243.6981 148.8094,-254.29 155.3604,-251.823"/>
</g>
<!-- Node41 -->
<g id="node42" class="node">
<title>Node41</title>
<polygon fill="#ffffff" stroke="#bfbfbf" points="694.5768,-168.5 694.5768,-187.5 746.5768,-187.5 746.5768,-168.5 694.5768,-168.5"/>
<text text-anchor="middle" x="720.5768" y="-175.5" font-family="Helvetica,sans-Serif" font-size="10.00" fill="#000000">sstream</text>
</g>
<!-- Node0&#45;&gt;Node41 -->
<g id="edge152" class="edge">
<title>Node0&#45;&gt;Node41</title>
<path fill="none" stroke="#191970" d="M2175.7878,-702.3264C1917.6079,-696.8853 1136.5022,-678.2221 884.5768,-647 717.8844,-626.3412 514.5768,-737.9677 514.5768,-570 514.5768,-570 514.5768,-570 514.5768,-290 514.5768,-213.5795 625.3533,-189.0115 684.4383,-181.3428"/>
<polygon fill="#191970" stroke="#191970" points="684.9751,-184.8035 694.4867,-180.1366 684.1408,-177.8534 684.9751,-184.8035"/>
</g>
<!-- Node43 -->
<g id="node44" class="node">
<title>Node43</title>
<g id="a_node44"><a xlink:href="../../d6/d6a/ntv2devicescanner_8h.html" target="_top" xlink:title="Declares the CNTV2DeviceScanner class. ">
<polygon fill="#ffffff" stroke="#000000" points="2311.5768,-560.5 2311.5768,-579.5 2417.5768,-579.5 2417.5768,-560.5 2311.5768,-560.5"/>
<text text-anchor="middle" x="2364.5768" y="-567.5" font-family="Helvetica,sans-Serif" font-size="10.00" fill="#000000">ntv2devicescanner.h</text>
</a>
</g>
</g>
<!-- Node0&#45;&gt;Node43 -->
<g id="edge92" class="edge">
<title>Node0&#45;&gt;Node43</title>
<path fill="none" stroke="#191970" d="M2312.167,-683.412C2328.2415,-674.572 2344.356,-662.6083 2354.5768,-647 2365.6171,-630.1401 2367.1731,-606.7121 2366.5569,-590.1372"/>
<polygon fill="#191970" stroke="#191970" points="2370.0333,-589.666 2365.8732,-579.9221 2363.0489,-590.1336 2370.0333,-589.666"/>
</g>
<!-- Node45 -->
<g id="node46" class="node">
<title>Node45</title>
<g id="a_node46"><a xlink:href="../../d1/dbd/ntv2konaflashprogram_8h.html" target="_top" xlink:title="Declares the CNTV2KonaFlashProgram class. ">
<polygon fill="#ffffff" stroke="#000000" points="894.0768,-622 894.0768,-641 1015.0768,-641 1015.0768,-622 894.0768,-622"/>
<text text-anchor="middle" x="954.5768" y="-629" font-family="Helvetica,sans-Serif" font-size="10.00" fill="#000000">ntv2konaflashprogram.h</text>
</a>
</g>
</g>
<!-- Node0&#45;&gt;Node45 -->
<g id="edge98" class="edge">
<title>Node0&#45;&gt;Node45</title>
<path fill="none" stroke="#191970" d="M2175.9579,-699.3545C1936.1785,-686.0334 1249.163,-647.8659 1025.726,-635.4527"/>
<polygon fill="#191970" stroke="#191970" points="1025.6189,-631.9415 1015.4401,-634.8813 1025.2306,-638.9307 1025.6189,-631.9415"/>
</g>
<!-- Node54 -->
<g id="node55" class="node">
<title>Node54</title>
<g id="a_node55"><a xlink:href="../../df/de0/ntv2registerexpert_8h.html" target="_top" xlink:title="Declares the CNTV2RegisterExpert class. ">
<polygon fill="#ffffff" stroke="#000000" points="1380.0768,-336.5 1380.0768,-355.5 1483.0768,-355.5 1483.0768,-336.5 1380.0768,-336.5"/>
<text text-anchor="middle" x="1431.5768" y="-343.5" font-family="Helvetica,sans-Serif" font-size="10.00" fill="#000000">ntv2registerexpert.h</text>
</a>
</g>
</g>
<!-- Node0&#45;&gt;Node54 -->
<g id="edge125" class="edge">
<title>Node0&#45;&gt;Node54</title>
<path fill="none" stroke="#191970" d="M2175.8539,-690.4871C2011.0632,-662.6589 1651.8351,-595.5371 1550.5768,-524 1491.7193,-482.4183 1453.7618,-401.7367 1438.8031,-365.0201"/>
<polygon fill="#191970" stroke="#191970" points="1441.9766,-363.527 1435.0476,-355.512 1435.466,-366.0986 1441.9766,-363.527"/>
</g>
<!-- Node55 -->
<g id="node56" class="node">
<title>Node55</title>
<g id="a_node56"><a xlink:href="../../d6/d50/ntv2registersmb_8h.html" target="_top" xlink:title="Defines the KonaIP/IoIP registers. ">
<polygon fill="#ffffff" stroke="#000000" points="2250.0768,-622 2250.0768,-641 2345.0768,-641 2345.0768,-622 2250.0768,-622"/>
<text text-anchor="middle" x="2297.5768" y="-629" font-family="Helvetica,sans-Serif" font-size="10.00" fill="#000000">ntv2registersmb.h</text>
</a>
</g>
</g>
<!-- Node0&#45;&gt;Node55 -->
<g id="edge134" class="edge">
<title>Node0&#45;&gt;Node55</title>
<path fill="none" stroke="#191970" d="M2270.3644,-683.4183C2275.8849,-672.8857 2282.5509,-660.1678 2287.9035,-649.9556"/>
<polygon fill="#191970" stroke="#191970" points="2291.0103,-651.5673 2292.5527,-641.0853 2284.8103,-648.3176 2291.0103,-651.5673"/>
</g>
<!-- Node56 -->
<g id="node57" class="node">
<title>Node56</title>
<g id="a_node57"><a xlink:href="../../d6/de1/ntv2rp188_8h.html" target="_top" xlink:title="Declares the CRP188 class. See SMPTE RP188 standard for details. ">
<polygon fill="#ffffff" stroke="#000000" points="254.5768,-224.5 254.5768,-243.5 322.5768,-243.5 322.5768,-224.5 254.5768,-224.5"/>
<text text-anchor="middle" x="288.5768" y="-231.5" font-family="Helvetica,sans-Serif" font-size="10.00" fill="#000000">ntv2rp188.h</text>
</a>
</g>
</g>
<!-- Node0&#45;&gt;Node56 -->
<g id="edge135" class="edge">
<title>Node0&#45;&gt;Node56</title>
<path fill="none" stroke="#191970" d="M2175.9673,-702.5253C1848.9997,-696.5894 666.7179,-673.4869 500.5768,-647 379.8788,-627.7578 236.5768,-692.2222 236.5768,-570 236.5768,-570 236.5768,-570 236.5768,-346 236.5768,-309.9842 258.9713,-273.0048 274.3675,-251.8372"/>
<polygon fill="#191970" stroke="#191970" points="277.2173,-253.8714 280.4518,-243.7823 271.6316,-249.6522 277.2173,-253.8714"/>
</g>
<!-- Node58 -->
<g id="node59" class="node">
<title>Node58</title>
<g id="a_node59"><a xlink:href="../../dc/d54/common_8h.html" target="_top" xlink:title="Private include file for all ajabase sources. ">
<polygon fill="#ffffff" stroke="#000000" points="2392.5768,-168.5 2392.5768,-187.5 2532.5768,-187.5 2532.5768,-168.5 2392.5768,-168.5"/>
<text text-anchor="middle" x="2462.5768" y="-175.5" font-family="Helvetica,sans-Serif" font-size="10.00" fill="#000000">ajabase/common/common.h</text>
</a>
</g>
</g>
<!-- Node0&#45;&gt;Node58 -->
<g id="edge139" class="edge">
<title>Node0&#45;&gt;Node58</title>
<path fill="none" stroke="#191970" d="M2343.1967,-697.6714C2418.9204,-690.2219 2523.0108,-675.1296 2552.5768,-647 2578.1139,-622.7035 2571.5768,-605.2487 2571.5768,-570 2571.5768,-570 2571.5768,-570 2571.5768,-290 2571.5768,-259.4754 2571.9903,-247.5556 2552.5768,-224 2540.3554,-209.1712 2522.1214,-198.6116 2505.2549,-191.3823"/>
<polygon fill="#191970" stroke="#191970" points="2506.123,-187.9603 2495.5381,-187.5035 2503.5279,-194.4615 2506.123,-187.9603"/>
</g>
<!-- Node60 -->
<g id="node61" class="node">
<title>Node60</title>
<polygon fill="#ffffff" stroke="#bfbfbf" points="2439.5768,-616.5 2439.5768,-646.5 2543.5768,-646.5 2543.5768,-616.5 2439.5768,-616.5"/>
<text text-anchor="start" x="2447.5768" y="-634.5" font-family="Helvetica,sans-Serif" font-size="10.00" fill="#000000">ajabase/persistence</text>
<text text-anchor="middle" x="2491.5768" y="-623.5" font-family="Helvetica,sans-Serif" font-size="10.00" fill="#000000">/persistence.h</text>
</g>
<!-- Node0&#45;&gt;Node60 -->
<g id="edge145" class="edge">
<title>Node0&#45;&gt;Node60</title>
<path fill="none" stroke="#191970" d="M2325.4381,-683.4183C2359.4313,-672.7954 2400.5379,-659.9496 2433.3574,-649.6936"/>
<polygon fill="#191970" stroke="#191970" points="2434.7588,-652.9226 2443.2596,-646.5991 2432.6708,-646.2412 2434.7588,-652.9226"/>
</g>
<!-- Node61 -->
<g id="node62" class="node">
<title>Node61</title>
<g id="a_node62"><a xlink:href="../../d4/d21/info_8h.html" target="_top" xlink:title="Declares the AJASystemInfo class. ">
<polygon fill="#ffffff" stroke="#000000" points="2430.0768,-224.5 2430.0768,-243.5 2543.0768,-243.5 2543.0768,-224.5 2430.0768,-224.5"/>
<text text-anchor="middle" x="2486.5768" y="-231.5" font-family="Helvetica,sans-Serif" font-size="10.00" fill="#000000">ajabase/system/info.h</text>
</a>
</g>
</g>
<!-- Node0&#45;&gt;Node61 -->
<g id="edge146" class="edge">
<title>Node0&#45;&gt;Node61</title>
<path fill="none" stroke="#191970" d="M2310.1294,-683.3659C2385.5031,-648.85 2518.5768,-571.7978 2518.5768,-458 2518.5768,-458 2518.5768,-458 2518.5768,-346 2518.5768,-312.132 2504.8813,-274.643 2495.4096,-252.7657"/>
<polygon fill="#191970" stroke="#191970" points="2498.5916,-251.3077 2491.2985,-243.6226 2492.2073,-254.1784 2498.5916,-251.3077"/>
</g>
<!-- Node62 -->
<g id="node63" class="node">
<title>Node62</title>
<polygon fill="#ffffff" stroke="#bfbfbf" points="2599.5768,-622 2599.5768,-641 2655.5768,-641 2655.5768,-622 2599.5768,-622"/>
<text text-anchor="middle" x="2627.5768" y="-629" font-family="Helvetica,sans-Serif" font-size="10.00" fill="#000000">algorithm</text>
</g>
<!-- Node0&#45;&gt;Node62 -->
<g id="edge151" class="edge">
<title>Node0&#45;&gt;Node62</title>
<path fill="none" stroke="#191970" d="M2343.2177,-693.6135C2409.6147,-684.3564 2504.444,-668.8717 2585.5768,-647 2588.3909,-646.2414 2591.2819,-645.3724 2594.1667,-644.4417"/>
<polygon fill="#191970" stroke="#191970" points="2595.5175,-647.6782 2603.8309,-641.1101 2593.2361,-641.0604 2595.5175,-647.6782"/>
</g>
<!-- Node63 -->
<g id="node64" class="node">
<title>Node63</title>
<polygon fill="#ffffff" stroke="#bfbfbf" points="2674.0768,-622 2674.0768,-641 2721.0768,-641 2721.0768,-622 2674.0768,-622"/>
<text text-anchor="middle" x="2697.5768" y="-629" font-family="Helvetica,sans-Serif" font-size="10.00" fill="#000000">iterator</text>
</g>
<!-- Node0&#45;&gt;Node63 -->
<g id="edge154" class="edge">
<title>Node0&#45;&gt;Node63</title>
<path fill="none" stroke="#191970" d="M2343.3471,-699.5312C2426.3484,-693.4095 2556.3751,-679.226 2664.5768,-647 2666.4877,-646.4309 2668.4279,-645.7671 2670.3614,-645.0407"/>
<polygon fill="#191970" stroke="#191970" points="2671.9666,-648.1616 2679.8049,-641.0334 2669.2322,-641.7178 2671.9666,-648.1616"/>
</g>
<!-- Node2 -->
<g id="node3" class="node">
<title>Node2</title>
<g id="a_node3"><a xlink:href="../../df/d4b/ntv2card_8h.html" target="_top" xlink:title="Declares the CNTV2Card class. ">
<polygon fill="#ffffff" stroke="#000000" points="1559.5768,-504.5 1559.5768,-523.5 1621.5768,-523.5 1621.5768,-504.5 1559.5768,-504.5"/>
<text text-anchor="middle" x="1590.5768" y="-511.5" font-family="Helvetica,sans-Serif" font-size="10.00" fill="#000000">ntv2card.h</text>
</a>
</g>
</g>
<!-- Node1&#45;&gt;Node2 -->
<g id="edge2" class="edge">
<title>Node1&#45;&gt;Node2</title>
<path fill="none" stroke="#191970" d="M2091.6354,-564.832C1983.2211,-553.8335 1731.4548,-528.292 1632.0332,-518.2057"/>
<polygon fill="#191970" stroke="#191970" points="1632.0885,-514.6935 1621.7863,-517.1662 1631.3819,-521.6577 1632.0885,-514.6935"/>
</g>
<!-- Node11 -->
<g id="node12" class="node">
<title>Node11</title>
<polygon fill="#ffffff" stroke="#bfbfbf" points="1818.0768,-.5 1818.0768,-19.5 1859.0768,-19.5 1859.0768,-.5 1818.0768,-.5"/>
<text text-anchor="middle" x="1838.5768" y="-7.5" font-family="Helvetica,sans-Serif" font-size="10.00" fill="#000000">string</text>
</g>
<!-- Node1&#45;&gt;Node11 -->
<g id="edge90" class="edge">
<title>Node1&#45;&gt;Node11</title>
<path fill="none" stroke="#191970" d="M2176.8018,-560.495C2341.9225,-513.1588 3039.0804,-295.5733 2810.5768,-56 2793.9426,-38.56 2034.2402,-15.6502 1869.7664,-10.8893"/>
<polygon fill="#191970" stroke="#191970" points="1869.4847,-7.3798 1859.388,-10.5901 1869.283,-14.3769 1869.4847,-7.3798"/>
</g>
<!-- Node14 -->
<g id="node15" class="node">
<title>Node14</title>
<polygon fill="#ffffff" stroke="#bfbfbf" points="2142.0768,-112.5 2142.0768,-131.5 2177.0768,-131.5 2177.0768,-112.5 2142.0768,-112.5"/>
<text text-anchor="middle" x="2159.5768" y="-119.5" font-family="Helvetica,sans-Serif" font-size="10.00" fill="#000000">map</text>
</g>
<!-- Node1&#45;&gt;Node14 -->
<g id="edge89" class="edge">
<title>Node1&#45;&gt;Node14</title>
<path fill="none" stroke="#191970" d="M2158.687,-560.4231C2202.5033,-533.0197 2320.5768,-449.5665 2320.5768,-346 2320.5768,-346 2320.5768,-346 2320.5768,-290 2320.5768,-213.2499 2231.9039,-157.8893 2186.1725,-134.4416"/>
<polygon fill="#191970" stroke="#191970" points="2187.6243,-131.2546 2177.1131,-129.9263 2184.5018,-137.5196 2187.6243,-131.2546"/>
</g>
<!-- Node26 -->
<g id="node27" class="node">
<title>Node26</title>
<g id="a_node27"><a xlink:href="../../d0/d81/ntv2utils_8h.html" target="_top" xlink:title="Declares numerous NTV2 utility functions. ">
<polygon fill="#ffffff" stroke="#000000" points="1400.5768,-280.5 1400.5768,-299.5 1462.5768,-299.5 1462.5768,-280.5 1400.5768,-280.5"/>
<text text-anchor="middle" x="1431.5768" y="-287.5" font-family="Helvetica,sans-Serif" font-size="10.00" fill="#000000">ntv2utils.h</text>
</a>
</g>
</g>
<!-- Node1&#45;&gt;Node26 -->
<g id="edge91" class="edge">
<title>Node1&#45;&gt;Node26</title>
<path fill="none" stroke="#191970" d="M2091.7611,-564.9111C1992.5269,-553.5594 1782.5768,-521.9821 1782.5768,-458 1782.5768,-458 1782.5768,-458 1782.5768,-402 1782.5768,-337.6375 1565.6697,-305.2545 1472.8812,-294.3462"/>
<polygon fill="#191970" stroke="#191970" points="1473.0597,-290.8438 1462.7257,-293.1801 1472.2611,-297.7981 1473.0597,-290.8438"/>
</g>
<!-- Node3 -->
<g id="node4" class="node">
<title>Node3</title>
<g id="a_node4"><a xlink:href="../../d3/d7d/ntv2macdriverinterface_8h.html" target="_top" xlink:title="Implements the MacOS&#45;specific flavor of CNTV2DriverInterface. ">
<polygon fill="#ffffff" stroke="#000000" points="1301.5768,-448.5 1301.5768,-467.5 1425.5768,-467.5 1425.5768,-448.5 1301.5768,-448.5"/>
<text text-anchor="middle" x="1363.5768" y="-455.5" font-family="Helvetica,sans-Serif" font-size="10.00" fill="#000000">ntv2macdriverinterface.h</text>
</a>
</g>
</g>
<!-- Node2&#45;&gt;Node3 -->
<g id="edge3" class="edge">
<title>Node2&#45;&gt;Node3</title>
<path fill="none" stroke="#191970" d="M1559.4893,-506.3309C1521.4463,-496.9458 1456.6027,-480.9491 1412.0034,-469.9467"/>
<polygon fill="#191970" stroke="#191970" points="1412.7993,-466.5381 1402.252,-467.541 1411.1226,-473.3344 1412.7993,-466.5381"/>
</g>
<!-- Node2&#45;&gt;Node26 -->
<g id="edge86" class="edge">
<title>Node2&#45;&gt;Node26</title>
<path fill="none" stroke="#191970" d="M1588.4019,-504.2251C1583.3211,-482.7164 1569.2737,-430.1671 1545.5768,-392 1522.3946,-354.6619 1481.5454,-322.9733 1455.558,-305.2331"/>
<polygon fill="#191970" stroke="#191970" points="1457.301,-302.1886 1447.0391,-299.5535 1453.4179,-308.0129 1457.301,-302.1886"/>
</g>
<!-- Node39 -->
<g id="node40" class="node">
<title>Node39</title>
<g id="a_node40"><a xlink:href="../../dc/d95/ntv2signalrouter_8h.html" target="_top" xlink:title="Declares CNTV2SignalRouter class. ">
<polygon fill="#ffffff" stroke="#000000" points="657.0768,-224.5 657.0768,-243.5 750.0768,-243.5 750.0768,-224.5 657.0768,-224.5"/>
<text text-anchor="middle" x="703.5768" y="-231.5" font-family="Helvetica,sans-Serif" font-size="10.00" fill="#000000">ntv2signalrouter.h</text>
</a>
</g>
</g>
<!-- Node2&#45;&gt;Node39 -->
<g id="edge79" class="edge">
<title>Node2&#45;&gt;Node39</title>
<path fill="none" stroke="#191970" d="M1559.3756,-511.4835C1445.6861,-501.9486 1054.4303,-465.8354 942.5768,-412 864.0503,-374.205 869.6606,-328.9774 797.5768,-280 778.6367,-267.1312 755.5628,-255.7843 737.0157,-247.5798"/>
<polygon fill="#191970" stroke="#191970" points="738.3431,-244.3406 727.7753,-243.5844 735.5649,-250.7658 738.3431,-244.3406"/>
</g>
<!-- Node42 -->
<g id="node43" class="node">
<title>Node42</title>
<g id="a_node43"><a xlink:href="../../d8/d58/ntv2devicecapabilities_8h.html" target="_top" xlink:title="Declares the DeviceCapabilities class. ">
<polygon fill="#ffffff" stroke="#000000" points="1603.0768,-448.5 1603.0768,-467.5 1724.0768,-467.5 1724.0768,-448.5 1603.0768,-448.5"/>
<text text-anchor="middle" x="1663.5768" y="-455.5" font-family="Helvetica,sans-Serif" font-size="10.00" fill="#000000">ntv2devicecapabilities.h</text>
</a>
</g>
</g>
<!-- Node2&#45;&gt;Node42 -->
<g id="edge87" class="edge">
<title>Node2&#45;&gt;Node42</title>
<path fill="none" stroke="#191970" d="M1603.2924,-504.2455C1614.1788,-495.8943 1630.065,-483.7076 1642.7968,-473.9408"/>
<polygon fill="#191970" stroke="#191970" points="1645.2028,-476.5063 1651.0068,-467.6427 1640.9422,-470.9523 1645.2028,-476.5063"/>
</g>
<!-- Node4 -->
<g id="node5" class="node">
<title>Node4</title>
<g id="a_node5"><a xlink:href="../../d4/dd7/ntv2publicinterface_8h.html" target="_top" xlink:title="Declares enums and structs used by all platform drivers and the SDK. ">
<polygon fill="#ffffff" stroke="#000000" points="1025.0768,-168.5 1025.0768,-187.5 1132.0768,-187.5 1132.0768,-168.5 1025.0768,-168.5"/>
<text text-anchor="middle" x="1078.5768" y="-175.5" font-family="Helvetica,sans-Serif" font-size="10.00" fill="#000000">ntv2publicinterface.h</text>
</a>
</g>
</g>
<!-- Node3&#45;&gt;Node4 -->
<g id="edge4" class="edge">
<title>Node3&#45;&gt;Node4</title>
<path fill="none" stroke="#191970" d="M1301.3806,-453.2015C1213.332,-445.873 1057.0955,-430.7474 1003.5768,-412 958.4002,-396.1748 935.0286,-397.7297 911.5768,-356 871.3609,-284.4406 987.6319,-219.257 1046.5893,-191.7748"/>
<polygon fill="#191970" stroke="#191970" points="1048.2219,-194.8771 1055.866,-187.541 1045.3155,-188.509 1048.2219,-194.8771"/>
</g>
<!-- Node20 -->
<g id="node21" class="node">
<title>Node20</title>
<g id="a_node21"><a xlink:href="../../da/d23/ntv2macpublicinterface_8h.html" target="_top" xlink:title="Declares MacOS&#45;only enums used by the Mac driver and the SDK. ">
<polygon fill="#ffffff" stroke="#000000" points="1013.0768,-392.5 1013.0768,-411.5 1138.0768,-411.5 1138.0768,-392.5 1013.0768,-392.5"/>
<text text-anchor="middle" x="1075.5768" y="-399.5" font-family="Helvetica,sans-Serif" font-size="10.00" fill="#000000">ntv2macpublicinterface.h</text>
</a>
</g>
</g>
<!-- Node3&#45;&gt;Node20 -->
<g id="edge24" class="edge">
<title>Node3&#45;&gt;Node20</title>
<path fill="none" stroke="#191970" d="M1314.395,-448.4369C1264.5883,-438.7522 1187.5382,-423.7703 1134.4979,-413.4569"/>
<polygon fill="#191970" stroke="#191970" points="1135.0399,-409.9968 1124.5556,-411.5237 1133.7037,-416.8681 1135.0399,-409.9968"/>
</g>
<!-- Node22 -->
<g id="node23" class="node">
<title>Node22</title>
<g id="a_node23"><a xlink:href="../../d4/dc0/ntv2driverinterface_8h.html" target="_top" xlink:title="Declares the CNTV2DriverInterface base class. ">
<polygon fill="#ffffff" stroke="#000000" points="1620.0768,-392.5 1620.0768,-411.5 1725.0768,-411.5 1725.0768,-392.5 1620.0768,-392.5"/>
<text text-anchor="middle" x="1672.5768" y="-399.5" font-family="Helvetica,sans-Serif" font-size="10.00" fill="#000000">ntv2driverinterface.h</text>
</a>
</g>
</g>
<!-- Node3&#45;&gt;Node22 -->
<g id="edge27" class="edge">
<title>Node3&#45;&gt;Node22</title>
<path fill="none" stroke="#191970" d="M1416.3447,-448.4369C1470.0053,-438.712 1553.1394,-423.6456 1610.0678,-413.3285"/>
<polygon fill="#191970" stroke="#191970" points="1610.811,-416.7509 1620.0265,-411.5237 1609.5626,-409.8631 1610.811,-416.7509"/>
</g>
<!-- Node5 -->
<g id="node6" class="node">
<title>Node5</title>
<g id="a_node6"><a xlink:href="../../db/de2/ajatypes_8h.html" target="_top" xlink:title="Declares the most fundamental data types used by NTV2. Since Windows NT was the first principal devel...">
<polygon fill="#ffffff" stroke="#000000" points="1376.5768,-56.5 1376.5768,-75.5 1438.5768,-75.5 1438.5768,-56.5 1376.5768,-56.5"/>
<text text-anchor="middle" x="1407.5768" y="-63.5" font-family="Helvetica,sans-Serif" font-size="10.00" fill="#000000">ajatypes.h</text>
</a>
</g>
</g>
<!-- Node4&#45;&gt;Node5 -->
<g id="edge5" class="edge">
<title>Node4&#45;&gt;Node5</title>
<path fill="none" stroke="#191970" d="M1083.9497,-168.0329C1092.5281,-153.1745 1110.8025,-125.5194 1134.5768,-112 1173.4428,-89.8984 1300.0049,-75.626 1366.2701,-69.4762"/>
<polygon fill="#191970" stroke="#191970" points="1366.7226,-72.9496 1376.3649,-68.559 1366.0892,-65.9783 1366.7226,-72.9496"/>
</g>
<!-- Node8 -->
<g id="node9" class="node">
<title>Node8</title>
<g id="a_node9"><a xlink:href="../../d6/d0c/ntv2enums_8h.html" target="_top" xlink:title="Enumerations for controlling NTV2 devices. ">
<polygon fill="#ffffff" stroke="#000000" points="569.0768,-112.5 569.0768,-131.5 642.0768,-131.5 642.0768,-112.5 569.0768,-112.5"/>
<text text-anchor="middle" x="605.5768" y="-119.5" font-family="Helvetica,sans-Serif" font-size="10.00" fill="#000000">ntv2enums.h</text>
</a>
</g>
</g>
<!-- Node4&#45;&gt;Node8 -->
<g id="edge8" class="edge">
<title>Node4&#45;&gt;Node8</title>
<path fill="none" stroke="#191970" d="M1024.7782,-171.6306C931.2637,-160.5591 740.3068,-137.9511 652.1204,-127.5105"/>
<polygon fill="#191970" stroke="#191970" points="652.4834,-124.0291 642.1412,-126.329 651.6603,-130.9805 652.4834,-124.0291"/>
</g>
<!-- Node10 -->
<g id="node11" class="node">
<title>Node10</title>
<g id="a_node11"><a xlink:href="../../d6/dd9/ajaexport_8h.html" target="_top" xlink:title="Defines the import/export macros for producing DLLs or LIBs. ">
<polygon fill="#ffffff" stroke="#000000" points="375.0768,-.5 375.0768,-19.5 440.0768,-19.5 440.0768,-.5 375.0768,-.5"/>
<text text-anchor="middle" x="407.5768" y="-7.5" font-family="Helvetica,sans-Serif" font-size="10.00" fill="#000000">ajaexport.h</text>
</a>
</g>
</g>
<!-- Node4&#45;&gt;Node10 -->
<g id="edge21" class="edge">
<title>Node4&#45;&gt;Node10</title>
<path fill="none" stroke="#191970" d="M1025.044,-169.8446C972.3003,-161.5004 889.5431,-147.5792 818.5768,-132 722.9697,-111.0114 697.6522,-109.2166 605.5768,-76 585.7503,-68.8475 582.2885,-63.4629 562.5768,-56 525.1502,-41.8303 481.3365,-29.1761 449.8579,-20.7442"/>
<polygon fill="#191970" stroke="#191970" points="450.6576,-17.3354 440.0947,-18.1584 448.8653,-24.1021 450.6576,-17.3354"/>
</g>
<!-- Node4&#45;&gt;Node11 -->
<g id="edge17" class="edge">
<title>Node4&#45;&gt;Node11</title>
<path fill="none" stroke="#191970" d="M1025.0486,-168.8997C959.6963,-157.5342 857.105,-138.7608 851.5768,-132 845.95,-125.1187 845.6401,-118.6158 851.5768,-112 917.0894,-38.9928 1647.3262,-15.1544 1807.6002,-10.7843"/>
<polygon fill="#191970" stroke="#191970" points="1807.8274,-14.2796 1817.7303,-10.5135 1807.6403,-7.2821 1807.8274,-14.2796"/>
</g>
<!-- Node12 -->
<g id="node13" class="node">
<title>Node12</title>
<polygon fill="#ffffff" stroke="#bfbfbf" points="1306.5768,-112.5 1306.5768,-131.5 1360.5768,-131.5 1360.5768,-112.5 1306.5768,-112.5"/>
<text text-anchor="middle" x="1333.5768" y="-119.5" font-family="Helvetica,sans-Serif" font-size="10.00" fill="#000000">iostream</text>
</g>
<!-- Node4&#45;&gt;Node12 -->
<g id="edge13" class="edge">
<title>Node4&#45;&gt;Node12</title>
<path fill="none" stroke="#191970" d="M1122.1231,-168.4369C1171.1865,-157.6622 1250.1073,-140.3306 1296.3921,-130.166"/>
<polygon fill="#191970" stroke="#191970" points="1297.2902,-133.5523 1306.3067,-127.9887 1295.7886,-126.7152 1297.2902,-133.5523"/>
</g>
<!-- Node13 -->
<g id="node14" class="node">
<title>Node13</title>
<polygon fill="#ffffff" stroke="#bfbfbf" points="1056.5768,-112.5 1056.5768,-131.5 1086.5768,-131.5 1086.5768,-112.5 1056.5768,-112.5"/>
<text text-anchor="middle" x="1071.5768" y="-119.5" font-family="Helvetica,sans-Serif" font-size="10.00" fill="#000000">set</text>
</g>
<!-- Node4&#45;&gt;Node13 -->
<g id="edge14" class="edge">
<title>Node4&#45;&gt;Node13</title>
<path fill="none" stroke="#191970" d="M1077.3575,-168.2455C1076.444,-160.9382 1075.1636,-150.6944 1074.0398,-141.7046"/>
<polygon fill="#191970" stroke="#191970" points="1077.4955,-141.1313 1072.7821,-131.6427 1070.5496,-141.9996 1077.4955,-141.1313"/>
</g>
<!-- Node4&#45;&gt;Node14 -->
<g id="edge15" class="edge">
<title>Node4&#45;&gt;Node14</title>
<path fill="none" stroke="#191970" d="M1132.1837,-175.223C1326.0846,-165.1781 1987.1286,-130.9335 2131.5548,-123.4516"/>
<polygon fill="#191970" stroke="#191970" points="2131.9678,-126.935 2141.7733,-122.9223 2131.6056,-119.9444 2131.9678,-126.935"/>
</g>
<!-- Node4&#45;&gt;Node15 -->
<g id="edge16" class="edge">
<title>Node4&#45;&gt;Node15</title>
<path fill="none" stroke="#191970" d="M1132.3553,-175.1935C1252.8106,-168.7758 1553.4166,-152.0265 1804.5768,-132 1828.5968,-130.0847 1855.6929,-127.4644 1876.2044,-125.3865"/>
<polygon fill="#191970" stroke="#191970" points="1876.6874,-128.8555 1886.2793,-124.356 1875.975,-121.8918 1876.6874,-128.8555"/>
</g>
<!-- Node16 -->
<g id="node17" class="node">
<title>Node16</title>
<polygon fill="#ffffff" stroke="#bfbfbf" points="928.5768,-112.5 928.5768,-131.5 978.5768,-131.5 978.5768,-112.5 928.5768,-112.5"/>
<text text-anchor="middle" x="953.5768" y="-119.5" font-family="Helvetica,sans-Serif" font-size="10.00" fill="#000000">iomanip</text>
</g>
<!-- Node4&#45;&gt;Node16 -->
<g id="edge18" class="edge">
<title>Node4&#45;&gt;Node16</title>
<path fill="none" stroke="#191970" d="M1057.0885,-168.3733C1036.9328,-159.3435 1006.5887,-145.7494 983.9587,-135.6111"/>
<polygon fill="#191970" stroke="#191970" points="985.3416,-132.3955 974.7846,-131.5011 982.4797,-138.7838 985.3416,-132.3955"/>
</g>
<!-- Node17 -->
<g id="node18" class="node">
<title>Node17</title>
<polygon fill="#ffffff" stroke="#bfbfbf" points="997.0768,-112.5 997.0768,-131.5 1038.0768,-131.5 1038.0768,-112.5 997.0768,-112.5"/>
<text text-anchor="middle" x="1017.5768" y="-119.5" font-family="Helvetica,sans-Serif" font-size="10.00" fill="#000000">bitset</text>
</g>
<!-- Node4&#45;&gt;Node17 -->
<g id="edge19" class="edge">
<title>Node4&#45;&gt;Node17</title>
<path fill="none" stroke="#191970" d="M1067.9514,-168.2455C1059.0294,-160.0549 1046.0887,-148.1749 1035.5575,-138.5069"/>
<polygon fill="#191970" stroke="#191970" points="1037.8139,-135.8271 1028.0804,-131.6427 1033.08,-140.9837 1037.8139,-135.8271"/>
</g>
<!-- Node18 -->
<g id="node19" class="node">
<title>Node18</title>
<polygon fill="#ffffff" stroke="#bfbfbf" points="861.0768,-112.5 861.0768,-131.5 910.0768,-131.5 910.0768,-112.5 861.0768,-112.5"/>
<text text-anchor="middle" x="885.5768" y="-119.5" font-family="Helvetica,sans-Serif" font-size="10.00" fill="#000000">string.h</text>
</g>
<!-- Node4&#45;&gt;Node18 -->
<g id="edge20" class="edge">
<title>Node4&#45;&gt;Node18</title>
<path fill="none" stroke="#191970" d="M1045.3705,-168.4395C1015.2064,-159.7447 969.2263,-146.4654 919.9768,-132.1078"/>
<polygon fill="#191970" stroke="#191970" points="920.667,-128.6634 910.087,-129.223 918.7068,-135.3833 920.667,-128.6634"/>
</g>
<!-- Node19 -->
<g id="node20" class="node">
<title>Node19</title>
<g id="a_node20"><a xlink:href="../../da/df0/ntv2virtualregisters_8h.html" target="_top" xlink:title="Declares enums for virtual registers used in all platform drivers and the SDK. ">
<polygon fill="#ffffff" stroke="#000000" points="1143.0768,-112.5 1143.0768,-131.5 1250.0768,-131.5 1250.0768,-112.5 1143.0768,-112.5"/>
<text text-anchor="middle" x="1196.5768" y="-119.5" font-family="Helvetica,sans-Serif" font-size="10.00" fill="#000000">ntv2virtualregisters.h</text>
</a>
</g>
</g>
<!-- Node4&#45;&gt;Node19 -->
<g id="edge22" class="edge">
<title>Node4&#45;&gt;Node19</title>
<path fill="none" stroke="#191970" d="M1098.8617,-168.3733C1117.7188,-159.4241 1146.0227,-145.9917 1167.3223,-135.8835"/>
<polygon fill="#191970" stroke="#191970" points="1169.0229,-138.9506 1176.5565,-131.5011 1166.0216,-132.6266 1169.0229,-138.9506"/>
</g>
<!-- Node6 -->
<g id="node7" class="node">
<title>Node6</title>
<g id="a_node7"><a xlink:href="../../db/d40/ntv2deprecate_8h.html" target="_top" xlink:title="Deprecation control macros. ">
<polygon fill="#ffffff" stroke="#000000" points="2375.5768,-.5 2375.5768,-19.5 2461.5768,-19.5 2461.5768,-.5 2375.5768,-.5"/>
<text text-anchor="middle" x="2418.5768" y="-7.5" font-family="Helvetica,sans-Serif" font-size="10.00" fill="#000000">ntv2deprecate.h</text>
</a>
</g>
</g>
<!-- Node5&#45;&gt;Node6 -->
<g id="edge6" class="edge">
<title>Node5&#45;&gt;Node6</title>
<path fill="none" stroke="#191970" d="M1438.6637,-64.2781C1582.2547,-56.3245 2182.1025,-23.0985 2365.2444,-12.9541"/>
<polygon fill="#191970" stroke="#191970" points="2365.6417,-16.4376 2375.4328,-12.3898 2365.2545,-9.4483 2365.6417,-16.4376"/>
</g>
<!-- Node7 -->
<g id="node8" class="node">
<title>Node7</title>
<polygon fill="#ffffff" stroke="#bfbfbf" points="1383.0768,-.5 1383.0768,-19.5 1432.0768,-19.5 1432.0768,-.5 1383.0768,-.5"/>
<text text-anchor="middle" x="1407.5768" y="-7.5" font-family="Helvetica,sans-Serif" font-size="10.00" fill="#000000">stdint.h</text>
</g>
<!-- Node5&#45;&gt;Node7 -->
<g id="edge7" class="edge">
<title>Node5&#45;&gt;Node7</title>
<path fill="none" stroke="#191970" d="M1407.5768,-56.2455C1407.5768,-48.9382 1407.5768,-38.6944 1407.5768,-29.7046"/>
<polygon fill="#191970" stroke="#191970" points="1411.0769,-29.6426 1407.5768,-19.6427 1404.0769,-29.6427 1411.0769,-29.6426"/>
</g>
<!-- Node8&#45;&gt;Node5 -->
<g id="edge9" class="edge">
<title>Node8&#45;&gt;Node5</title>
<path fill="none" stroke="#191970" d="M642.3435,-117.4723C658.3692,-115.6014 677.3848,-113.5196 694.5768,-112 949.2788,-89.4875 1256.0915,-73.4046 1365.9513,-67.9935"/>
<polygon fill="#191970" stroke="#191970" points="1366.4451,-71.4736 1376.2619,-67.4886 1366.1026,-64.482 1366.4451,-71.4736"/>
</g>
<!-- Node9 -->
<g id="node10" class="node">
<title>Node9</title>
<g id="a_node10"><a xlink:href="../../d6/db1/ntv2version_8h.html" target="_top" xlink:title="Defines for the NTV2 SDK version number, used by ajantv2/includes/ntv2enums.h. See the ajantv2/includ...">
<polygon fill="#ffffff" stroke="#000000" points="615.0768,-56.5 615.0768,-75.5 690.0768,-75.5 690.0768,-56.5 615.0768,-56.5"/>
<text text-anchor="middle" x="652.5768" y="-63.5" font-family="Helvetica,sans-Serif" font-size="10.00" fill="#000000">ntv2version.h</text>
</a>
</g>
</g>
<!-- Node8&#45;&gt;Node9 -->
<g id="edge10" class="edge">
<title>Node8&#45;&gt;Node9</title>
<path fill="none" stroke="#191970" d="M613.7635,-112.2455C620.4356,-104.2958 630.0247,-92.8706 638.0021,-83.3656"/>
<polygon fill="#191970" stroke="#191970" points="640.736,-85.5525 644.4838,-75.6427 635.3741,-81.0524 640.736,-85.5525"/>
</g>
<!-- Node9&#45;&gt;Node10 -->
<g id="edge11" class="edge">
<title>Node9&#45;&gt;Node10</title>
<path fill="none" stroke="#191970" d="M614.8324,-57.3727C570.314,-47.1971 496.5032,-30.326 450.031,-19.7038"/>
<polygon fill="#191970" stroke="#191970" points="450.7937,-16.288 440.2652,-17.4717 449.2339,-23.112 450.7937,-16.288"/>
</g>
<!-- Node9&#45;&gt;Node11 -->
<g id="edge12" class="edge">
<title>Node9&#45;&gt;Node11</title>
<path fill="none" stroke="#191970" d="M690.248,-58.0699C695.0538,-57.2605 699.9193,-56.5392 704.5768,-56 816.7942,-43.0076 1637.9983,-16.3778 1807.8754,-10.9706"/>
<polygon fill="#191970" stroke="#191970" points="1808.0092,-14.4682 1817.893,-10.6523 1807.7869,-7.4717 1808.0092,-14.4682"/>
</g>
<!-- Node19&#45;&gt;Node5 -->
<g id="edge23" class="edge">
<title>Node19&#45;&gt;Node5</title>
<path fill="none" stroke="#191970" d="M1232.849,-112.3733C1269.9487,-102.5269 1327.4976,-87.2532 1366.314,-76.9513"/>
<polygon fill="#191970" stroke="#191970" points="1367.4758,-80.2642 1376.2433,-74.316 1365.6801,-73.4984 1367.4758,-80.2642"/>
</g>
<!-- Node20&#45;&gt;Node19 -->
<g id="edge26" class="edge">
<title>Node20&#45;&gt;Node19</title>
<path fill="none" stroke="#191970" d="M1086.2051,-392.4966C1098.8604,-379.9633 1117.3673,-357.031 1109.5768,-336 1088.417,-278.8783 994.7587,-273.2715 1030.5768,-224 1061.0724,-182.0501 1098.6218,-217.0628 1141.5768,-188 1160.0202,-175.5214 1175.6577,-155.1503 1185.4892,-140.3364"/>
<polygon fill="#191970" stroke="#191970" points="1188.6687,-141.8591 1191.0826,-131.5429 1182.7623,-138.1021 1188.6687,-141.8591"/>
</g>
<!-- Node21 -->
<g id="node22" class="node">
<title>Node21</title>
<polygon fill="#ffffff" stroke="#bfbfbf" points="1014.5768,-336.5 1014.5768,-355.5 1100.5768,-355.5 1100.5768,-336.5 1014.5768,-336.5"/>
<text text-anchor="middle" x="1057.5768" y="-343.5" font-family="Helvetica,sans-Serif" font-size="10.00" fill="#000000">IOKit/IOKitLib.h</text>
</g>
<!-- Node20&#45;&gt;Node21 -->
<g id="edge25" class="edge">
<title>Node20&#45;&gt;Node21</title>
<path fill="none" stroke="#191970" d="M1072.4414,-392.2455C1070.0668,-384.8579 1066.7275,-374.4689 1063.8153,-365.4087"/>
<polygon fill="#191970" stroke="#191970" points="1067.0685,-364.0919 1060.6762,-355.6427 1060.4043,-366.234 1067.0685,-364.0919"/>
</g>
<!-- Node22&#45;&gt;Node4 -->
<g id="edge67" class="edge">
<title>Node22&#45;&gt;Node4</title>
<path fill="none" stroke="#191970" d="M1619.6654,-396.3028C1503.6713,-383.0726 1231.0941,-347.7236 1152.5768,-300 1124.0644,-282.6699 1119.6974,-272.6386 1102.5768,-244 1093.8886,-229.4668 1087.5639,-211.2787 1083.5952,-197.6781"/>
<polygon fill="#191970" stroke="#191970" points="1086.9371,-196.6302 1080.9174,-187.9116 1080.1863,-198.4812 1086.9371,-196.6302"/>
</g>
<!-- Node22&#45;&gt;Node5 -->
<g id="edge28" class="edge">
<title>Node22&#45;&gt;Node5</title>
<path fill="none" stroke="#191970" d="M1675.424,-392.3721C1678.8136,-379.3121 1683.337,-355.3868 1677.5768,-336 1651.8766,-249.503 1625.0561,-234.0493 1563.5768,-168 1537.3663,-139.8413 1529.5842,-133.3407 1497.5768,-112 1479.0987,-99.6799 1456.8937,-88.2983 1439.1632,-79.9386"/>
<polygon fill="#191970" stroke="#191970" points="1440.3707,-76.6409 1429.8253,-75.6184 1437.4315,-82.9939 1440.3707,-76.6409"/>
</g>
<!-- Node22&#45;&gt;Node8 -->
<g id="edge29" class="edge">
<title>Node22&#45;&gt;Node8</title>
<path fill="none" stroke="#191970" d="M1619.8995,-400.407C1458.58,-395.3073 978.2298,-378.3983 911.5768,-356 853.855,-336.603 853.7307,-303.5539 797.5768,-280 725.5551,-249.7903 684.4452,-295.325 625.5768,-244 596.7124,-218.8344 598.3672,-169.4875 602.0211,-141.8891"/>
<polygon fill="#191970" stroke="#191970" points="605.5056,-142.2571 603.5706,-131.8405 598.5874,-141.1902 605.5056,-142.2571"/>
</g>
<!-- Node22&#45;&gt;Node11 -->
<g id="edge77" class="edge">
<title>Node22&#45;&gt;Node11</title>
<path fill="none" stroke="#191970" d="M1725.2913,-400.5099C1846.1222,-395.7853 2136.6159,-376.5291 2187.5768,-300 2213.6773,-260.8042 2404.4391,-401.0869 2186.5768,-112 2147.6732,-60.3779 1947.2801,-25.9438 1869.4944,-14.3373"/>
<polygon fill="#191970" stroke="#191970" points="1869.7638,-10.8395 1859.3618,-12.8517 1868.7482,-17.7655 1869.7638,-10.8395"/>
</g>
<!-- Node23 -->
<g id="node24" class="node">
<title>Node23</title>
<g id="a_node24"><a xlink:href="../../d8/de5/ntv2nubtypes_8h.html" target="_top" xlink:title="Declares data types and structures used in NTV2 &quot;nub&quot; packets. ">
<polygon fill="#ffffff" stroke="#000000" points="1759.0768,-168.5 1759.0768,-187.5 1842.0768,-187.5 1842.0768,-168.5 1759.0768,-168.5"/>
<text text-anchor="middle" x="1800.5768" y="-175.5" font-family="Helvetica,sans-Serif" font-size="10.00" fill="#000000">ntv2nubtypes.h</text>
</a>
</g>
</g>
<!-- Node22&#45;&gt;Node23 -->
<g id="edge30" class="edge">
<title>Node22&#45;&gt;Node23</title>
<path fill="none" stroke="#191970" d="M1702.5569,-392.4061C1721.0267,-385.0966 1743.9017,-373.3043 1758.5768,-356 1797.677,-309.8944 1801.8488,-233.9114 1801.4192,-197.9948"/>
<polygon fill="#191970" stroke="#191970" points="1804.9138,-197.7363 1801.1565,-187.8301 1797.9161,-197.9172 1804.9138,-197.7363"/>
</g>
<!-- Node25 -->
<g id="node26" class="node">
<title>Node25</title>
<g id="a_node26"><a xlink:href="../../d6/d8f/ntv2nubaccess_8h.html" target="_top" xlink:title="Declares NTV2 &quot;nub&quot; client functions. ">
<polygon fill="#ffffff" stroke="#000000" points="1920.0768,-336.5 1920.0768,-355.5 2011.0768,-355.5 2011.0768,-336.5 1920.0768,-336.5"/>
<text text-anchor="middle" x="1965.5768" y="-343.5" font-family="Helvetica,sans-Serif" font-size="10.00" fill="#000000">ntv2nubaccess.h</text>
</a>
</g>
</g>
<!-- Node22&#45;&gt;Node25 -->
<g id="edge34" class="edge">
<title>Node22&#45;&gt;Node25</title>
<path fill="none" stroke="#191970" d="M1722.6123,-392.4369C1774.5122,-382.5175 1855.4884,-367.0408 1909.5133,-356.7152"/>
<polygon fill="#191970" stroke="#191970" points="1910.4429,-360.101 1919.608,-354.7858 1909.1287,-353.2254 1910.4429,-360.101"/>
</g>
<!-- Node22&#45;&gt;Node26 -->
<g id="edge68" class="edge">
<title>Node22&#45;&gt;Node26</title>
<path fill="none" stroke="#191970" d="M1673.5395,-392.4054C1674.4071,-378.0336 1673.7193,-351.0056 1658.5768,-336 1632.8449,-310.5009 1530.883,-298.1085 1472.7449,-293.0047"/>
<polygon fill="#191970" stroke="#191970" points="1473.0317,-289.5165 1462.7727,-292.1629 1472.4429,-296.4917 1473.0317,-289.5165"/>
</g>
<!-- Node30 -->
<g id="node31" class="node">
<title>Node30</title>
<g id="a_node31"><a xlink:href="../../dd/d42/lock_8h.html" target="_top" xlink:title="Declares the AJALock class. ">
<polygon fill="#ffffff" stroke="#000000" points="2063.0768,-280.5 2063.0768,-299.5 2178.0768,-299.5 2178.0768,-280.5 2063.0768,-280.5"/>
<text text-anchor="middle" x="2120.5768" y="-287.5" font-family="Helvetica,sans-Serif" font-size="10.00" fill="#000000">ajabase/system/lock.h</text>
</a>
</g>
</g>
<!-- Node22&#45;&gt;Node30 -->
<g id="edge76" class="edge">
<title>Node22&#45;&gt;Node30</title>
<path fill="none" stroke="#191970" d="M1725.1696,-397.9546C1808.6913,-391.0439 1967.6246,-375.7742 2020.5768,-356 2051.6708,-344.3884 2082.8527,-321.6112 2101.9332,-306.0982"/>
<polygon fill="#191970" stroke="#191970" points="2104.3567,-308.6348 2109.8046,-299.548 2099.8791,-303.2542 2104.3567,-308.6348"/>
</g>
<!-- Node22&#45;&gt;Node36 -->
<g id="edge69" class="edge">
<title>Node22&#45;&gt;Node36</title>
<path fill="none" stroke="#191970" d="M1620.0107,-400.8679C1440.7635,-396.808 854.3242,-381.8323 667.5768,-356 485.6782,-330.8384 274.1065,-272.1821 186.1831,-246.4619"/>
<polygon fill="#191970" stroke="#191970" points="186.9116,-243.028 176.3304,-243.5658 184.9375,-249.7439 186.9116,-243.028"/>
</g>
<!-- Node38 -->
<g id="node39" class="node">
<title>Node38</title>
<polygon fill="#ffffff" stroke="#bfbfbf" points="1598.0768,-336.5 1598.0768,-355.5 1649.0768,-355.5 1649.0768,-336.5 1598.0768,-336.5"/>
<text text-anchor="middle" x="1623.5768" y="-343.5" font-family="Helvetica,sans-Serif" font-size="10.00" fill="#000000">unistd.h</text>
</g>
<!-- Node22&#45;&gt;Node38 -->
<g id="edge78" class="edge">
<title>Node22&#45;&gt;Node38</title>
<path fill="none" stroke="#191970" d="M1664.0416,-392.2455C1657.0856,-384.2958 1647.0885,-372.8706 1638.7716,-363.3656"/>
<polygon fill="#191970" stroke="#191970" points="1641.2332,-360.8637 1632.0141,-355.6427 1635.9652,-365.4732 1641.2332,-360.8637"/>
</g>
<!-- Node23&#45;&gt;Node15 -->
<g id="edge33" class="edge">
<title>Node23&#45;&gt;Node15</title>
<path fill="none" stroke="#191970" d="M1819.3889,-168.2455C1836.424,-159.4125 1861.7343,-146.2887 1881.0449,-136.2758"/>
<polygon fill="#191970" stroke="#191970" points="1882.7137,-139.353 1889.9802,-131.6427 1879.4915,-133.1388 1882.7137,-139.353"/>
</g>
<!-- Node24 -->
<g id="node25" class="node">
<title>Node24</title>
<g id="a_node25"><a xlink:href="../../d4/d18/ntv2endian_8h.html" target="_top" xlink:title="Defines a number of handy byte&#45;swapping macros. ">
<polygon fill="#ffffff" stroke="#000000" points="1723.5768,-112.5 1723.5768,-131.5 1795.5768,-131.5 1795.5768,-112.5 1723.5768,-112.5"/>
<text text-anchor="middle" x="1759.5768" y="-119.5" font-family="Helvetica,sans-Serif" font-size="10.00" fill="#000000">ntv2endian.h</text>
</a>
</g>
</g>
<!-- Node23&#45;&gt;Node24 -->
<g id="edge31" class="edge">
<title>Node23&#45;&gt;Node24</title>
<path fill="none" stroke="#191970" d="M1793.4351,-168.2455C1787.7324,-160.4564 1779.5868,-149.3308 1772.7143,-139.9439"/>
<polygon fill="#191970" stroke="#191970" points="1775.368,-137.6437 1766.6366,-131.6427 1769.72,-141.7789 1775.368,-137.6437"/>
</g>
<!-- Node24&#45;&gt;Node5 -->
<g id="edge32" class="edge">
<title>Node24&#45;&gt;Node5</title>
<path fill="none" stroke="#191970" d="M1723.5608,-116.2702C1657.7282,-105.7968 1518.3612,-83.6248 1448.8308,-72.5631"/>
<polygon fill="#191970" stroke="#191970" points="1449.1201,-69.0652 1438.6944,-70.9505 1448.0202,-75.9783 1449.1201,-69.0652"/>
</g>
<!-- Node25&#45;&gt;Node11 -->
<g id="edge64" class="edge">
<title>Node25&#45;&gt;Node11</title>
<path fill="none" stroke="#191970" d="M1966.7989,-336.4122C1970.5798,-303.1879 1979.5552,-190.7201 1939.5768,-112 1920.984,-75.3896 1884.4861,-43.6527 1860.8329,-25.6814"/>
<polygon fill="#191970" stroke="#191970" points="1862.8758,-22.8391 1852.7567,-19.6998 1858.7095,-28.4642 1862.8758,-22.8391"/>
</g>
<!-- Node25&#45;&gt;Node14 -->
<g id="edge66" class="edge">
<title>Node25&#45;&gt;Node14</title>
<path fill="none" stroke="#191970" d="M1973.9127,-336.375C2003.8235,-301.8389 2106.0143,-183.8453 2144.6335,-139.2541"/>
<polygon fill="#191970" stroke="#191970" points="2147.3708,-141.4397 2151.2719,-131.5891 2142.0794,-136.8569 2147.3708,-141.4397"/>
</g>
<!-- Node25&#45;&gt;Node15 -->
<g id="edge65" class="edge">
<title>Node25&#45;&gt;Node15</title>
<path fill="none" stroke="#191970" d="M1963.4435,-336.3018C1957.4878,-309.4317 1939.9749,-231.797 1922.5768,-168 1920.1944,-159.2643 1917.3176,-149.6731 1914.7929,-141.5196"/>
<polygon fill="#191970" stroke="#191970" points="1918.0831,-140.3146 1911.7481,-131.8223 1911.4045,-142.4115 1918.0831,-140.3146"/>
</g>
<!-- Node25&#45;&gt;Node26 -->
<g id="edge35" class="edge">
<title>Node25&#45;&gt;Node26</title>
<path fill="none" stroke="#191970" d="M1920.0482,-341.2255C1817.7187,-330.4943 1570.842,-304.6046 1472.756,-294.3184"/>
<polygon fill="#191970" stroke="#191970" points="1472.9514,-290.8198 1462.6409,-293.2577 1472.2213,-297.7816 1472.9514,-290.8198"/>
</g>
<!-- Node25&#45;&gt;Node30 -->
<g id="edge54" class="edge">
<title>Node25&#45;&gt;Node30</title>
<path fill="none" stroke="#191970" d="M1992.2222,-336.3733C2017.7732,-327.1419 2056.528,-313.1402 2084.7677,-302.9375"/>
<polygon fill="#191970" stroke="#191970" points="2086.0633,-306.1909 2094.279,-299.5011 2083.6847,-299.6074 2086.0633,-306.1909"/>
</g>
<!-- Node26&#45;&gt;Node4 -->
<g id="edge41" class="edge">
<title>Node26&#45;&gt;Node4</title>
<path fill="none" stroke="#191970" d="M1400.4885,-288.3624C1351.6305,-284.9152 1254.605,-274.509 1178.5768,-244 1147.9404,-231.7061 1116.8592,-209.2918 1097.6576,-194.0287"/>
<polygon fill="#191970" stroke="#191970" points="1099.6852,-191.1666 1089.7155,-187.5812 1095.2733,-196.6012 1099.6852,-191.1666"/>
</g>
<!-- Node26&#45;&gt;Node5 -->
<g id="edge37" class="edge">
<title>Node26&#45;&gt;Node5</title>
<path fill="none" stroke="#191970" d="M1462.6426,-288.0647C1510.8572,-283.6367 1595.9607,-269.3408 1573.5768,-224 1561.9289,-200.4061 1546.2587,-205.4633 1526.5768,-188 1487.1793,-153.0436 1445.0333,-107.7118 1423.0108,-83.3361"/>
<polygon fill="#191970" stroke="#191970" points="1425.3839,-80.7404 1416.0979,-75.6394 1420.1761,-85.4179 1425.3839,-80.7404"/>
</g>
<!-- Node26&#45;&gt;Node8 -->
<g id="edge38" class="edge">
<title>Node26&#45;&gt;Node8</title>
<path fill="none" stroke="#191970" d="M1400.2721,-289.1323C1258.0115,-285.0665 678.0613,-267.1228 647.5768,-244 615.5771,-219.728 607.799,-169.6105 606.0106,-141.7569"/>
<polygon fill="#191970" stroke="#191970" points="609.5017,-141.4741 605.5649,-131.6378 602.5084,-141.7822 609.5017,-141.4741"/>
</g>
<!-- Node26&#45;&gt;Node10 -->
<g id="edge36" class="edge">
<title>Node26&#45;&gt;Node10</title>
<path fill="none" stroke="#191970" d="M1400.3885,-289.1151C1271.3576,-285.3162 778.8843,-269.4183 625.5768,-244 517.7079,-226.1154 388.5768,-287.3415 388.5768,-178 388.5768,-178 388.5768,-178 388.5768,-122 388.5768,-89.2688 396.562,-51.9052 402.179,-29.6716"/>
<polygon fill="#191970" stroke="#191970" points="405.6183,-30.3545 404.7732,-19.7934 398.8479,-28.5763 405.6183,-30.3545"/>
</g>
<!-- Node26&#45;&gt;Node11 -->
<g id="edge51" class="edge">
<title>Node26&#45;&gt;Node11</title>
<path fill="none" stroke="#191970" d="M1462.7204,-285.7809C1495.8708,-280.2137 1548.9101,-268.1474 1588.5768,-244 1657.8534,-201.8274 1655.1516,-167.1945 1714.5768,-112 1749.2903,-79.7578 1792.5668,-45.3683 1817.7353,-25.8942"/>
<polygon fill="#191970" stroke="#191970" points="1820.0497,-28.5295 1825.8388,-19.6561 1815.7797,-22.9827 1820.0497,-28.5295"/>
</g>
<!-- Node26&#45;&gt;Node12 -->
<g id="edge52" class="edge">
<title>Node26&#45;&gt;Node12</title>
<path fill="none" stroke="#191970" d="M1400.1654,-280.8966C1381.7745,-273.8732 1359.8242,-262.2123 1347.5768,-244 1326.7461,-213.0243 1327.8606,-167.3507 1330.6458,-141.5742"/>
<polygon fill="#191970" stroke="#191970" points="1334.1309,-141.913 1331.9264,-131.55 1327.1873,-141.0259 1334.1309,-141.913"/>
</g>
<!-- Node26&#45;&gt;Node15 -->
<g id="edge53" class="edge">
<title>Node26&#45;&gt;Node15</title>
<path fill="none" stroke="#191970" d="M1462.6655,-287.8827C1522.0617,-283.2724 1648.7789,-270.5404 1682.5768,-244 1711.6798,-221.1462 1688.1,-191.6296 1716.5768,-168 1740.6709,-148.007 1828.1508,-133.1235 1876.2818,-126.2382"/>
<polygon fill="#191970" stroke="#191970" points="1877.0624,-129.6633 1886.4826,-124.8145 1876.0947,-122.7305 1877.0624,-129.6633"/>
</g>
<!-- Node27 -->
<g id="node28" class="node">
<title>Node27</title>
<g id="a_node28"><a xlink:href="../../d9/d61/ntv2videodefines_8h.html" target="_top" xlink:title="Declares common video macros and structs used in the SDK. ">
<polygon fill="#ffffff" stroke="#000000" points="1466.5768,-224.5 1466.5768,-243.5 1564.5768,-243.5 1564.5768,-224.5 1466.5768,-224.5"/>
<text text-anchor="middle" x="1515.5768" y="-231.5" font-family="Helvetica,sans-Serif" font-size="10.00" fill="#000000">ntv2videodefines.h</text>
</a>
</g>
</g>
<!-- Node26&#45;&gt;Node27 -->
<g id="edge39" class="edge">
<title>Node26&#45;&gt;Node27</title>
<path fill="none" stroke="#191970" d="M1446.2084,-280.2455C1458.9762,-271.7337 1477.7205,-259.2375 1492.5066,-249.3801"/>
<polygon fill="#191970" stroke="#191970" points="1494.7337,-252.1019 1501.1128,-243.6427 1490.8508,-246.2775 1494.7337,-252.1019"/>
</g>
<!-- Node28 -->
<g id="node29" class="node">
<title>Node28</title>
<g id="a_node29"><a xlink:href="../../dc/df4/ntv2formatdescriptor_8h.html" target="_top" xlink:title="Declares the NTV2FormatDescriptor class. ">
<polygon fill="#ffffff" stroke="#000000" points="1187.0768,-224.5 1187.0768,-243.5 1300.0768,-243.5 1300.0768,-224.5 1187.0768,-224.5"/>
<text text-anchor="middle" x="1243.5768" y="-231.5" font-family="Helvetica,sans-Serif" font-size="10.00" fill="#000000">ntv2formatdescriptor.h</text>
</a>
</g>
</g>
<!-- Node26&#45;&gt;Node28 -->
<g id="edge42" class="edge">
<title>Node26&#45;&gt;Node28</title>
<path fill="none" stroke="#191970" d="M1400.5324,-280.7527C1369.1133,-271.3939 1320.3277,-256.862 1285.4903,-246.4849"/>
<polygon fill="#191970" stroke="#191970" points="1286.1946,-243.0428 1275.6115,-243.5423 1284.1962,-249.7515 1286.1946,-243.0428"/>
</g>
<!-- Node29 -->
<g id="node30" class="node">
<title>Node29</title>
<g id="a_node30"><a xlink:href="../../de/d26/ntv2m31enums_8h.html" target="_top" xlink:title="ntv2m31enums.h">
<polygon fill="#ffffff" stroke="#000000" points="1356.5768,-224.5 1356.5768,-243.5 1448.5768,-243.5 1448.5768,-224.5 1356.5768,-224.5"/>
<text text-anchor="middle" x="1402.5768" y="-231.5" font-family="Helvetica,sans-Serif" font-size="10.00" fill="#000000">ntv2m31enums.h</text>
</a>
</g>
</g>
<!-- Node26&#45;&gt;Node29 -->
<g id="edge50" class="edge">
<title>Node26&#45;&gt;Node29</title>
<path fill="none" stroke="#191970" d="M1426.5253,-280.2455C1422.5749,-272.617 1416.967,-261.7881 1412.171,-252.5267"/>
<polygon fill="#191970" stroke="#191970" points="1415.2769,-250.9131 1407.5703,-243.6427 1409.0609,-254.1321 1415.2769,-250.9131"/>
</g>
<!-- Node27&#45;&gt;Node5 -->
<g id="edge40" class="edge">
<title>Node27&#45;&gt;Node5</title>
<path fill="none" stroke="#191970" d="M1496.0286,-224.4118C1481.6419,-216.4545 1462.5753,-203.8854 1450.5768,-188 1426.9954,-156.7795 1415.5953,-111.55 1410.7182,-85.8382"/>
<polygon fill="#191970" stroke="#191970" points="1414.1355,-85.061 1408.9632,-75.8145 1407.2404,-86.2683 1414.1355,-85.061"/>
</g>
<!-- Node28&#45;&gt;Node4 -->
<g id="edge46" class="edge">
<title>Node28&#45;&gt;Node4</title>
<path fill="none" stroke="#191970" d="M1215.2123,-224.3733C1187.894,-215.1016 1146.3971,-201.0178 1116.3029,-190.804"/>
<polygon fill="#191970" stroke="#191970" points="1117.1655,-187.4008 1106.5711,-187.5011 1114.9157,-194.0294 1117.1655,-187.4008"/>
</g>
<!-- Node28&#45;&gt;Node5 -->
<g id="edge44" class="edge">
<title>Node28&#45;&gt;Node5</title>
<path fill="none" stroke="#191970" d="M1259.3851,-224.4869C1285.2592,-208.2642 1337.0226,-172.9949 1369.5768,-132 1381.354,-117.1692 1391.8482,-98.273 1398.8082,-84.5034"/>
<polygon fill="#191970" stroke="#191970" points="1401.9559,-86.0338 1403.2194,-75.5146 1395.6718,-82.9499 1401.9559,-86.0338"/>
</g>
<!-- Node28&#45;&gt;Node8 -->
<g id="edge45" class="edge">
<title>Node28&#45;&gt;Node8</title>
<path fill="none" stroke="#191970" d="M1187.6201,-224.4355C1061.6132,-202.8718 758.671,-150.8772 656.5768,-132 655.135,-131.7334 653.6708,-131.4604 652.1928,-131.1828"/>
<polygon fill="#191970" stroke="#191970" points="652.808,-127.7371 642.3298,-129.3047 651.4985,-134.6136 652.808,-127.7371"/>
</g>
<!-- Node28&#45;&gt;Node10 -->
<g id="edge43" class="edge">
<title>Node28&#45;&gt;Node10</title>
<path fill="none" stroke="#191970" d="M1193.1828,-224.4779C1146.895,-215.5788 1076.4537,-201.6501 1015.5768,-188 979.394,-179.8869 970.8804,-175.5536 934.5768,-168 841.0096,-148.5318 815.1188,-155.8706 722.5768,-132 649.6238,-113.1823 632.8296,-103.2173 562.5768,-76 518.8955,-59.077 469.1999,-37.4949 438.1141,-23.7079"/>
<polygon fill="#191970" stroke="#191970" points="439.2656,-20.3895 428.7064,-19.5213 436.4195,-26.7848 439.2656,-20.3895"/>
</g>
<!-- Node28&#45;&gt;Node11 -->
<g id="edge47" class="edge">
<title>Node28&#45;&gt;Node11</title>
<path fill="none" stroke="#191970" d="M1263.4804,-224.4586C1332.7244,-191.3622 1563.0881,-82.0995 1640.5768,-56 1698.478,-36.4979 1768.6201,-22.3353 1807.9655,-15.2096"/>
<polygon fill="#191970" stroke="#191970" points="1808.7454,-18.6258 1817.9778,-13.4284 1807.5193,-11.7341 1808.7454,-18.6258"/>
</g>
<!-- Node28&#45;&gt;Node12 -->
<g id="edge48" class="edge">
<title>Node28&#45;&gt;Node12</title>
<path fill="none" stroke="#191970" d="M1254.1225,-224.2496C1263.6033,-215.2515 1277.6729,-201.3084 1288.5768,-188 1301.1454,-172.6598 1313.7137,-153.8637 1322.3603,-140.2591"/>
<polygon fill="#191970" stroke="#191970" points="1325.3313,-142.1094 1327.6717,-131.7763 1319.3983,-138.3945 1325.3313,-142.1094"/>
</g>
<!-- Node28&#45;&gt;Node15 -->
<g id="edge49" class="edge">
<title>Node28&#45;&gt;Node15</title>
<path fill="none" stroke="#191970" d="M1299.9874,-224.4993C1434.4564,-201.8518 1770.5207,-145.2515 1876.2222,-127.4492"/>
<polygon fill="#191970" stroke="#191970" points="1877.0002,-130.8675 1886.28,-125.7552 1875.8376,-123.9647 1877.0002,-130.8675"/>
</g>
<!-- Node31 -->
<g id="node32" class="node">
<title>Node31</title>
<g id="a_node32"><a xlink:href="../../d4/d79/public_8h.html" target="_top" xlink:title="Master header for the ajabase library. ">
<polygon fill="#ffffff" stroke="#000000" points="2550.5768,-168.5 2550.5768,-187.5 2678.5768,-187.5 2678.5768,-168.5 2550.5768,-168.5"/>
<text text-anchor="middle" x="2614.5768" y="-175.5" font-family="Helvetica,sans-Serif" font-size="10.00" fill="#000000">ajabase/common/public.h</text>
</a>
</g>
</g>
<!-- Node30&#45;&gt;Node31 -->
<g id="edge55" class="edge">
<title>Node30&#45;&gt;Node31</title>
<path fill="none" stroke="#191970" d="M2162.6949,-280.4509C2252.8354,-260.0142 2464.2204,-212.0889 2562.5598,-189.7933"/>
<polygon fill="#191970" stroke="#191970" points="2563.5866,-193.1494 2572.5652,-187.5249 2562.0388,-186.3227 2563.5866,-193.1494"/>
</g>
<!-- Node35 -->
<g id="node36" class="node">
<title>Node35</title>
<polygon fill="#ffffff" stroke="#bfbfbf" points="2088.5768,-224.5 2088.5768,-243.5 2140.5768,-243.5 2140.5768,-224.5 2088.5768,-224.5"/>
<text text-anchor="middle" x="2114.5768" y="-231.5" font-family="Helvetica,sans-Serif" font-size="10.00" fill="#000000">assert.h</text>
</g>
<!-- Node30&#45;&gt;Node35 -->
<g id="edge63" class="edge">
<title>Node30&#45;&gt;Node35</title>
<path fill="none" stroke="#191970" d="M2119.5316,-280.2455C2118.7487,-272.9382 2117.6512,-262.6944 2116.688,-253.7046"/>
<polygon fill="#191970" stroke="#191970" points="2120.1554,-253.2129 2115.6099,-243.6427 2113.1952,-253.9587 2120.1554,-253.2129"/>
</g>
<!-- Node31&#45;&gt;Node11 -->
<g id="edge57" class="edge">
<title>Node31&#45;&gt;Node11</title>
<path fill="none" stroke="#191970" d="M2624.9757,-168.1265C2638.2273,-154.354 2657.8059,-129.1416 2643.5768,-112 2593.0432,-51.1233 2011.3028,-18.5429 1869.5682,-11.4757"/>
<polygon fill="#191970" stroke="#191970" points="1869.5639,-7.9713 1859.4039,-10.9753 1869.2196,-14.9629 1869.5639,-7.9713"/>
</g>
<!-- Node31&#45;&gt;Node14 -->
<g id="edge60" class="edge">
<title>Node31&#45;&gt;Node14</title>
<path fill="none" stroke="#191970" d="M2550.4905,-169.1609C2547.4778,-168.7643 2544.4949,-168.3755 2541.5768,-168 2409.0776,-150.9482 2250.4642,-132.4648 2187.4032,-125.1934"/>
<polygon fill="#191970" stroke="#191970" points="2187.4389,-121.6745 2177.1041,-124.0076 2186.6382,-128.6285 2187.4389,-121.6745"/>
</g>
<!-- Node31&#45;&gt;Node15 -->
<g id="edge59" class="edge">
<title>Node31&#45;&gt;Node15</title>
<path fill="none" stroke="#191970" d="M2550.5106,-168.9892C2547.4925,-168.6385 2544.5029,-168.3064 2541.5768,-168 2312.0407,-143.9628 2034.3602,-128.4656 1940.9776,-123.625"/>
<polygon fill="#191970" stroke="#191970" points="1940.9332,-120.1182 1930.7667,-123.1003 1940.5739,-127.109 1940.9332,-120.1182"/>
</g>
<!-- Node32 -->
<g id="node33" class="node">
<title>Node32</title>
<g id="a_node33"><a xlink:href="../../db/db5/export_8h.html" target="_top" xlink:title="Declares system&#45;dependent import/export macros and libraries. ">
<polygon fill="#ffffff" stroke="#000000" points="2458.0768,-112.5 2458.0768,-131.5 2587.0768,-131.5 2587.0768,-112.5 2458.0768,-112.5"/>
<text text-anchor="middle" x="2522.5768" y="-119.5" font-family="Helvetica,sans-Serif" font-size="10.00" fill="#000000">ajabase/common/export.h</text>
</a>
</g>
</g>
<!-- Node31&#45;&gt;Node32 -->
<g id="edge56" class="edge">
<title>Node31&#45;&gt;Node32</title>
<path fill="none" stroke="#191970" d="M2598.5516,-168.2455C2584.436,-159.6534 2563.6504,-147.0014 2547.3869,-137.1018"/>
<polygon fill="#191970" stroke="#191970" points="2548.7801,-133.8525 2538.4183,-131.6427 2545.1405,-139.8319 2548.7801,-133.8525"/>
</g>
<!-- Node33 -->
<g id="node34" class="node">
<title>Node33</title>
<polygon fill="#ffffff" stroke="#bfbfbf" points="2605.0768,-112.5 2605.0768,-131.5 2634.0768,-131.5 2634.0768,-112.5 2605.0768,-112.5"/>
<text text-anchor="middle" x="2619.5768" y="-119.5" font-family="Helvetica,sans-Serif" font-size="10.00" fill="#000000">list</text>
</g>
<!-- Node31&#45;&gt;Node33 -->
<g id="edge58" class="edge">
<title>Node31&#45;&gt;Node33</title>
<path fill="none" stroke="#191970" d="M2615.4477,-168.2455C2616.1001,-160.9382 2617.0148,-150.6944 2617.8174,-141.7046"/>
<polygon fill="#191970" stroke="#191970" points="2621.3125,-141.9143 2618.7158,-131.6427 2614.3403,-141.2918 2621.3125,-141.9143"/>
</g>
<!-- Node34 -->
<g id="node35" class="node">
<title>Node34</title>
<g id="a_node35"><a xlink:href="../../d9/d49/types_8h.html" target="_top" xlink:title="Declares common types used in the ajabase library. ">
<polygon fill="#ffffff" stroke="#000000" points="2675.5768,-56.5 2675.5768,-75.5 2801.5768,-75.5 2801.5768,-56.5 2675.5768,-56.5"/>
<text text-anchor="middle" x="2738.5768" y="-63.5" font-family="Helvetica,sans-Serif" font-size="10.00" fill="#000000">ajabase/common/types.h</text>
</a>
</g>
</g>
<!-- Node31&#45;&gt;Node34 -->
<g id="edge61" class="edge">
<title>Node31&#45;&gt;Node34</title>
<path fill="none" stroke="#191970" d="M2628.9196,-168.4484C2641.8562,-159.5841 2661.1613,-145.7257 2676.5768,-132 2693.6898,-116.7627 2711.4136,-97.4822 2723.5056,-83.7015"/>
<polygon fill="#191970" stroke="#191970" points="2726.3474,-85.7666 2730.251,-75.9171 2721.0572,-81.1825 2726.3474,-85.7666"/>
</g>
<!-- Node34&#45;&gt;Node6 -->
<g id="edge62" class="edge">
<title>Node34&#45;&gt;Node6</title>
<path fill="none" stroke="#191970" d="M2683.9304,-56.4369C2624.6548,-46.0637 2530.6511,-29.613 2471.8989,-19.3314"/>
<polygon fill="#191970" stroke="#191970" points="2472.1663,-15.825 2461.7126,-17.5488 2470.9596,-22.7203 2472.1663,-15.825"/>
</g>
<!-- Node36&#45;&gt;Node5 -->
<g id="edge71" class="edge">
<title>Node36&#45;&gt;Node5</title>
<path fill="none" stroke="#191970" d="M198.2869,-228.435C289.392,-218.8634 470.4736,-199.232 533.5768,-188 676.6418,-162.5353 708.0862,-134.9459 851.5768,-112 1042.4399,-81.4787 1273.5977,-70.5893 1366.248,-67.2712"/>
<polygon fill="#191970" stroke="#191970" points="1366.4604,-70.7661 1376.3327,-66.9206 1366.2171,-63.7703 1366.4604,-70.7661"/>
</g>
<!-- Node36&#45;&gt;Node8 -->
<g id="edge72" class="edge">
<title>Node36&#45;&gt;Node8</title>
<path fill="none" stroke="#191970" d="M152.6455,-224.3702C165.7856,-209.4335 193.3907,-181.0449 223.5768,-168 282.8541,-142.3832 470.4881,-129.222 558.7831,-124.3142"/>
<polygon fill="#191970" stroke="#191970" points="558.9945,-127.8079 568.7896,-123.7697 558.6142,-120.8183 558.9945,-127.8079"/>
</g>
<!-- Node36&#45;&gt;Node10 -->
<g id="edge70" class="edge">
<title>Node36&#45;&gt;Node10</title>
<path fill="none" stroke="#191970" d="M90.7208,-227.6477C49.1011,-219.9448 .8651,-203.2951 15.5768,-168 42.7819,-102.7315 65.6027,-88.1615 128.5768,-56 169.0389,-35.3355 296.8464,-20.5054 364.5383,-13.8758"/>
<polygon fill="#191970" stroke="#191970" points="365.2448,-17.324 374.8637,-12.8825 364.5744,-10.3562 365.2448,-17.324"/>
</g>
<!-- Node37 -->
<g id="node38" class="node">
<title>Node37</title>
<g id="a_node38"><a xlink:href="../../d9/dfb/ntv2devicefeatures_8hh.html" target="_top" xlink:title="Declares NTV2DeviceCanDo... and NTV2DeviceGetNum... functions. This module is included at compile tim...">
<polygon fill="#ffffff" stroke="#000000" points="25.0768,-168.5 25.0768,-187.5 138.0768,-187.5 138.0768,-168.5 25.0768,-168.5"/>
<text text-anchor="middle" x="81.5768" y="-175.5" font-family="Helvetica,sans-Serif" font-size="10.00" fill="#000000">ntv2devicefeatures.hh</text>
</a>
</g>
</g>
<!-- Node36&#45;&gt;Node37 -->
<g id="edge73" class="edge">
<title>Node36&#45;&gt;Node37</title>
<path fill="none" stroke="#191970" d="M133.603,-224.2455C124.3886,-216.0549 111.0236,-204.1749 100.1471,-194.5069"/>
<polygon fill="#191970" stroke="#191970" points="102.2242,-191.6704 92.4248,-187.6427 97.5736,-196.9023 102.2242,-191.6704"/>
</g>
<!-- Node37&#45;&gt;Node8 -->
<g id="edge75" class="edge">
<title>Node37&#45;&gt;Node8</title>
<path fill="none" stroke="#191970" d="M138.1518,-171.9538C242.3284,-160.8204 462.6267,-137.2771 558.9006,-126.9883"/>
<polygon fill="#191970" stroke="#191970" points="559.3474,-130.4606 568.9189,-125.9176 558.6035,-123.5002 559.3474,-130.4606"/>
</g>
<!-- Node37&#45;&gt;Node10 -->
<g id="edge74" class="edge">
<title>Node37&#45;&gt;Node10</title>
<path fill="none" stroke="#191970" d="M84.1069,-168.4944C90.8573,-145.1243 111.6321,-84.6846 152.5768,-56 186.1687,-32.4666 301.285,-19.1198 364.7427,-13.3879"/>
<polygon fill="#191970" stroke="#191970" points="365.1822,-16.8629 374.8375,-12.501 364.5695,-9.8898 365.1822,-16.8629"/>
</g>
<!-- Node39&#45;&gt;Node4 -->
<g id="edge81" class="edge">
<title>Node39&#45;&gt;Node4</title>
<path fill="none" stroke="#191970" d="M750.1904,-226.2746C755.0466,-225.4949 759.9107,-224.7242 764.5768,-224 851.0902,-210.5728 951.1841,-196.0912 1014.6663,-187.0376"/>
<polygon fill="#191970" stroke="#191970" points="1015.513,-190.4524 1024.9194,-185.5771 1014.5258,-183.5224 1015.513,-190.4524"/>
</g>
<!-- Node39&#45;&gt;Node10 -->
<g id="edge80" class="edge">
<title>Node39&#45;&gt;Node10</title>
<path fill="none" stroke="#191970" d="M656.9208,-231.7867C590.93,-227.6709 475.0588,-216.4996 445.5768,-188 401.9273,-145.8051 402.3918,-66.6884 405.3411,-29.8341"/>
<polygon fill="#191970" stroke="#191970" points="408.8289,-30.1272 406.29,-19.8411 401.8602,-29.4654 408.8289,-30.1272"/>
</g>
<!-- Node39&#45;&gt;Node13 -->
<g id="edge84" class="edge">
<title>Node39&#45;&gt;Node13</title>
<path fill="none" stroke="#191970" d="M739.4717,-224.4906C802.282,-207.5927 935.9709,-170.4766 1046.5768,-132 1046.6761,-131.9654 1046.7756,-131.9307 1046.8753,-131.8958"/>
<polygon fill="#191970" stroke="#191970" points="1048.1859,-135.1425 1056.3236,-128.3581 1045.7313,-128.587 1048.1859,-135.1425"/>
</g>
<!-- Node39&#45;&gt;Node14 -->
<g id="edge85" class="edge">
<title>Node39&#45;&gt;Node14</title>
<path fill="none" stroke="#191970" d="M750.139,-233.1978C937.0189,-229.8137 1633.0265,-215.5887 1851.5768,-188 1956.6121,-174.7409 2078.9248,-143.7916 2132.3164,-129.4903"/>
<polygon fill="#191970" stroke="#191970" points="2133.3082,-132.8479 2142.0502,-126.8622 2131.4835,-126.0899 2133.3082,-132.8479"/>
</g>
<!-- Node40 -->
<g id="node41" class="node">
<title>Node40</title>
<polygon fill="#ffffff" stroke="#bfbfbf" points="764.5768,-168.5 764.5768,-187.5 816.5768,-187.5 816.5768,-168.5 764.5768,-168.5"/>
<text text-anchor="middle" x="790.5768" y="-175.5" font-family="Helvetica,sans-Serif" font-size="10.00" fill="#000000">stddef.h</text>
</g>
<!-- Node39&#45;&gt;Node40 -->
<g id="edge82" class="edge">
<title>Node39&#45;&gt;Node40</title>
<path fill="none" stroke="#191970" d="M718.731,-224.2455C732.0795,-215.6534 751.7354,-203.0014 767.115,-193.1018"/>
<polygon fill="#191970" stroke="#191970" points="769.0819,-195.9982 775.5962,-187.6427 765.2931,-190.1121 769.0819,-195.9982"/>
</g>
<!-- Node39&#45;&gt;Node41 -->
<g id="edge83" class="edge">
<title>Node39&#45;&gt;Node41</title>
<path fill="none" stroke="#191970" d="M706.5379,-224.2455C708.7806,-216.8579 711.9344,-206.4689 714.6848,-197.4087"/>
<polygon fill="#191970" stroke="#191970" points="718.0937,-198.2282 717.6495,-187.6427 711.3956,-196.1948 718.0937,-198.2282"/>
</g>
<!-- Node42&#45;&gt;Node22 -->
<g id="edge88" class="edge">
<title>Node42&#45;&gt;Node22</title>
<path fill="none" stroke="#191970" d="M1665.1444,-448.2455C1666.3188,-440.9382 1667.9652,-430.6944 1669.41,-421.7046"/>
<polygon fill="#191970" stroke="#191970" points="1672.8958,-422.0714 1671.027,-411.6427 1665.9845,-420.9606 1672.8958,-422.0714"/>
</g>
<!-- Node43&#45;&gt;Node2 -->
<g id="edge95" class="edge">
<title>Node43&#45;&gt;Node2</title>
<path fill="none" stroke="#191970" d="M2311.3766,-566.1509C2165.7064,-555.6114 1762.5432,-526.442 1631.9697,-516.9948"/>
<polygon fill="#191970" stroke="#191970" points="1631.8421,-513.4765 1621.6155,-516.2457 1631.3369,-520.4583 1631.8421,-513.4765"/>
</g>
<!-- Node43&#45;&gt;Node5 -->
<g id="edge93" class="edge">
<title>Node43&#45;&gt;Node5</title>
<path fill="none" stroke="#191970" d="M2364.5768,-560.4116C2364.5768,-541.0538 2364.5768,-495.9167 2364.5768,-458 2364.5768,-458 2364.5768,-458 2364.5768,-234 2364.5768,-138.0906 2277.3137,-143.0714 2186.5768,-112 2116.6391,-88.051 1599.7012,-71.5017 1448.8121,-67.1429"/>
<polygon fill="#191970" stroke="#191970" points="1448.688,-63.638 1438.5918,-66.8502 1448.4875,-70.6351 1448.688,-63.638"/>
</g>
<!-- Node43&#45;&gt;Node15 -->
<g id="edge96" class="edge">
<title>Node43&#45;&gt;Node15</title>
<path fill="none" stroke="#191970" d="M2350.6666,-560.3601C2327.2716,-542.8875 2282.5768,-503.5468 2282.5768,-458 2282.5768,-458 2282.5768,-458 2282.5768,-346 2282.5768,-247.5097 2240.048,-209.1733 2150.5768,-168 2080.3267,-135.672 1988.5788,-126.063 1940.7523,-123.2072"/>
<polygon fill="#191970" stroke="#191970" points="1940.8556,-119.7079 1930.6828,-122.6683 1940.4814,-126.6978 1940.8556,-119.7079"/>
</g>
<!-- Node44 -->
<g id="node45" class="node">
<title>Node44</title>
<g id="a_node45"><a xlink:href="../../dc/d1c/ntv2audiodefines_8h.html" target="_top" xlink:title="Declares common audio macros and structs used in the SDK. ">
<polygon fill="#ffffff" stroke="#000000" points="2392.5768,-504.5 2392.5768,-523.5 2490.5768,-523.5 2490.5768,-504.5 2392.5768,-504.5"/>
<text text-anchor="middle" x="2441.5768" y="-511.5" font-family="Helvetica,sans-Serif" font-size="10.00" fill="#000000">ntv2audiodefines.h</text>
</a>
</g>
</g>
<!-- Node43&#45;&gt;Node44 -->
<g id="edge94" class="edge">
<title>Node43&#45;&gt;Node44</title>
<path fill="none" stroke="#191970" d="M2377.9891,-560.2455C2389.5825,-551.814 2406.5515,-539.4729 2420.0446,-529.6598"/>
<polygon fill="#191970" stroke="#191970" points="2422.2893,-532.355 2428.3181,-523.6427 2418.1721,-526.6938 2422.2893,-532.355"/>
</g>
<!-- Node45&#45;&gt;Node2 -->
<g id="edge99" class="edge">
<title>Node45&#45;&gt;Node2</title>
<path fill="none" stroke="#191970" d="M1015.1365,-627.361C1097.0931,-621.0107 1247.5658,-606.6973 1373.5768,-580 1438.6625,-566.2106 1512.3572,-541.8748 1554.9478,-526.9197"/>
<polygon fill="#191970" stroke="#191970" points="1556.3115,-530.1498 1564.5709,-523.514 1553.9761,-523.5509 1556.3115,-530.1498"/>
</g>
<!-- Node45&#45;&gt;Node11 -->
<g id="edge102" class="edge">
<title>Node45&#45;&gt;Node11</title>
<path fill="none" stroke="#191970" d="M893.9251,-628.8834C809.899,-624.2125 653.8145,-611.7461 524.5768,-580 444.2549,-560.2697 350.5768,-596.7097 350.5768,-514 350.5768,-514 350.5768,-514 350.5768,-234 350.5768,-139.1874 437.6754,-147.5356 525.5768,-112 561.8861,-97.3214 834.6226,-60.0498 873.5768,-56 1061.165,-36.4975 1663.8861,-15.7606 1807.6002,-11.0088"/>
<polygon fill="#191970" stroke="#191970" points="1808.0029,-14.4975 1817.8823,-10.6702 1807.7725,-7.5013 1808.0029,-14.4975"/>
</g>
<!-- Node45&#45;&gt;Node12 -->
<g id="edge106" class="edge">
<title>Node45&#45;&gt;Node12</title>
<path fill="none" stroke="#191970" d="M1015.3275,-623.9399C1077.973,-612.3483 1166.5768,-583.6435 1166.5768,-514 1166.5768,-514 1166.5768,-514 1166.5768,-402 1166.5768,-322.8689 1133.247,-293.7726 1170.5768,-224 1196.7087,-175.157 1257.4488,-146.7776 1296.952,-132.8547"/>
<polygon fill="#191970" stroke="#191970" points="1298.153,-136.1434 1306.5036,-129.6228 1295.9093,-129.5127 1298.153,-136.1434"/>
</g>
<!-- Node45&#45;&gt;Node15 -->
<g id="edge101" class="edge">
<title>Node45&#45;&gt;Node15</title>
<path fill="none" stroke="#191970" d="M1015.3855,-627.9712C1105.7188,-622.03 1280.4191,-607.8507 1426.5768,-580 1518.9357,-562.4008 1543.3662,-559.1315 1630.5768,-524 1678.9088,-504.5302 1690.9372,-497.9487 1733.5768,-468 1764.2333,-446.4678 1775.2276,-442.7842 1796.5768,-412 1859.4953,-321.2752 1893.3754,-190.3687 1904.4496,-141.4286"/>
<polygon fill="#191970" stroke="#191970" points="1907.8943,-142.0603 1906.6253,-131.5418 1901.0579,-140.5559 1907.8943,-142.0603"/>
</g>
<!-- Node46 -->
<g id="node47" class="node">
<title>Node46</title>
<polygon fill="#ffffff" stroke="#bfbfbf" points="738.5768,-280.5 738.5768,-299.5 788.5768,-299.5 788.5768,-280.5 738.5768,-280.5"/>
<text text-anchor="middle" x="763.5768" y="-287.5" font-family="Helvetica,sans-Serif" font-size="10.00" fill="#000000">fstream</text>
</g>
<!-- Node45&#45;&gt;Node46 -->
<g id="edge100" class="edge">
<title>Node45&#45;&gt;Node46</title>
<path fill="none" stroke="#191970" d="M908.7943,-621.8968C856.6463,-607.9621 778.5768,-576.6404 778.5768,-514 778.5768,-514 778.5768,-514 778.5768,-402 778.5768,-369.2739 772.2075,-331.641 767.7697,-309.3923"/>
<polygon fill="#191970" stroke="#191970" points="771.1826,-308.6123 765.7259,-299.5307 764.3282,-310.0329 771.1826,-308.6123"/>
</g>
<!-- Node47 -->
<g id="node48" class="node">
<title>Node47</title>
<polygon fill="#ffffff" stroke="#bfbfbf" points="920.5768,-560.5 920.5768,-579.5 988.5768,-579.5 988.5768,-560.5 920.5768,-560.5"/>
<text text-anchor="middle" x="954.5768" y="-567.5" font-family="Helvetica,sans-Serif" font-size="10.00" fill="#000000">sys/types.h</text>
</g>
<!-- Node45&#45;&gt;Node47 -->
<g id="edge103" class="edge">
<title>Node45&#45;&gt;Node47</title>
<path fill="none" stroke="#191970" d="M954.5768,-621.8906C954.5768,-613.3657 954.5768,-600.6392 954.5768,-589.9235"/>
<polygon fill="#191970" stroke="#191970" points="958.0769,-589.7448 954.5768,-579.7449 951.0769,-589.7449 958.0769,-589.7448"/>
</g>
<!-- Node48 -->
<g id="node49" class="node">
<title>Node48</title>
<polygon fill="#ffffff" stroke="#bfbfbf" points="1006.5768,-560.5 1006.5768,-579.5 1066.5768,-579.5 1066.5768,-560.5 1006.5768,-560.5"/>
<text text-anchor="middle" x="1036.5768" y="-567.5" font-family="Helvetica,sans-Serif" font-size="10.00" fill="#000000">sys/stat.h</text>
</g>
<!-- Node45&#45;&gt;Node48 -->
<g id="edge104" class="edge">
<title>Node45&#45;&gt;Node48</title>
<path fill="none" stroke="#191970" d="M967.3893,-621.8906C980.2669,-612.2324 1000.3352,-597.1812 1015.5487,-585.771"/>
<polygon fill="#191970" stroke="#191970" points="1017.9542,-588.3419 1023.8542,-579.5419 1013.7542,-582.7419 1017.9542,-588.3419"/>
</g>
<!-- Node49 -->
<g id="node50" class="node">
<title>Node49</title>
<polygon fill="#ffffff" stroke="#bfbfbf" points="668.5768,-560.5 668.5768,-579.5 712.5768,-579.5 712.5768,-560.5 668.5768,-560.5"/>
<text text-anchor="middle" x="690.5768" y="-567.5" font-family="Helvetica,sans-Serif" font-size="10.00" fill="#000000">fcntl.h</text>
</g>
<!-- Node45&#45;&gt;Node49 -->
<g id="edge105" class="edge">
<title>Node45&#45;&gt;Node49</title>
<path fill="none" stroke="#191970" d="M909.4314,-621.9828C863.3217,-612.103 789.739,-595.8959 726.5768,-580 725.3029,-579.6794 724.0054,-579.347 722.6958,-579.0066"/>
<polygon fill="#191970" stroke="#191970" points="723.1815,-575.5133 712.6163,-576.3054 721.3694,-582.2747 723.1815,-575.5133"/>
</g>
<!-- Node50 -->
<g id="node51" class="node">
<title>Node50</title>
<g id="a_node51"><a xlink:href="../../d7/dc7/ntv2debug_8h.html" target="_top" xlink:title="ntv2debug.h">
<polygon fill="#ffffff" stroke="#000000" points="454.5768,-168.5 454.5768,-187.5 524.5768,-187.5 524.5768,-168.5 454.5768,-168.5"/>
<text text-anchor="middle" x="489.5768" y="-175.5" font-family="Helvetica,sans-Serif" font-size="10.00" fill="#000000">ntv2debug.h</text>
</a>
</g>
</g>
<!-- Node45&#45;&gt;Node50 -->
<g id="edge107" class="edge">
<title>Node45&#45;&gt;Node50</title>
<path fill="none" stroke="#191970" d="M894.0084,-624.3516C755.3199,-607.1648 426.5768,-561.4241 426.5768,-514 426.5768,-514 426.5768,-514 426.5768,-290 426.5768,-252.3823 453.9083,-215.7298 472.567,-195.0908"/>
<polygon fill="#191970" stroke="#191970" points="475.1623,-197.4399 479.4547,-187.7535 470.0587,-192.649 475.1623,-197.4399"/>
</g>
<!-- Node51 -->
<g id="node52" class="node">
<title>Node51</title>
<g id="a_node52"><a xlink:href="../../d6/dc8/ntv2mcsfile_8h.html" target="_top" xlink:title="Declares the CNTV2MCSfile class. ">
<polygon fill="#ffffff" stroke="#000000" points="921.0768,-336.5 921.0768,-355.5 996.0768,-355.5 996.0768,-336.5 921.0768,-336.5"/>
<text text-anchor="middle" x="958.5768" y="-343.5" font-family="Helvetica,sans-Serif" font-size="10.00" fill="#000000">ntv2mcsfile.h</text>
</a>
</g>
</g>
<!-- Node45&#45;&gt;Node51 -->
<g id="edge111" class="edge">
<title>Node45&#45;&gt;Node51</title>
<path fill="none" stroke="#191970" d="M944.2904,-621.7834C934.5626,-612.0629 920.2054,-596.2554 911.5768,-580 897.2651,-553.0384 892.5768,-544.5246 892.5768,-514 892.5768,-514 892.5768,-514 892.5768,-458 892.5768,-419.944 921.2098,-383.4306 940.757,-362.9377"/>
<polygon fill="#191970" stroke="#191970" points="943.419,-365.2238 947.9727,-355.6575 938.4473,-360.2961 943.419,-365.2238"/>
</g>
<!-- Node52 -->
<g id="node53" class="node">
<title>Node52</title>
<g id="a_node53"><a xlink:href="../../d3/df0/ntv2spiinterface_8h.html" target="_top" xlink:title="Declares the CNTV2SpiFlash and CNTV2AxiSpiFlash classes. ">
<polygon fill="#ffffff" stroke="#000000" points="1270.5768,-560.5 1270.5768,-579.5 1364.5768,-579.5 1364.5768,-560.5 1270.5768,-560.5"/>
<text text-anchor="middle" x="1317.5768" y="-567.5" font-family="Helvetica,sans-Serif" font-size="10.00" fill="#000000">ntv2spiinterface.h</text>
</a>
</g>
</g>
<!-- Node45&#45;&gt;Node52 -->
<g id="edge116" class="edge">
<title>Node45&#45;&gt;Node52</title>
<path fill="none" stroke="#191970" d="M1010.8972,-621.9581C1078.7085,-610.4694 1191.9731,-591.28 1260.2364,-579.7147"/>
<polygon fill="#191970" stroke="#191970" points="1261.1064,-583.1173 1270.3812,-577.9959 1259.937,-576.2156 1261.1064,-583.1173"/>
</g>
<!-- Node53 -->
<g id="node54" class="node">
<title>Node53</title>
<g id="a_node54"><a xlink:href="../../da/db1/ntv2bitfile_8h.html" target="_top" xlink:title="Declares the CNTV2Bitfile class. ">
<polygon fill="#ffffff" stroke="#000000" points="677.0768,-336.5 677.0768,-355.5 744.0768,-355.5 744.0768,-336.5 677.0768,-336.5"/>
<text text-anchor="middle" x="710.5768" y="-343.5" font-family="Helvetica,sans-Serif" font-size="10.00" fill="#000000">ntv2bitfile.h</text>
</a>
</g>
</g>
<!-- Node45&#45;&gt;Node53 -->
<g id="edge118" class="edge">
<title>Node45&#45;&gt;Node53</title>
<path fill="none" stroke="#191970" d="M897.3508,-621.9698C848.7719,-612.8287 783.9504,-597.8096 764.5768,-580 741.5981,-558.8765 740.5768,-545.2125 740.5768,-514 740.5768,-514 740.5768,-514 740.5768,-458 740.5768,-424.4397 727.8532,-387.0899 718.9783,-365.12"/>
<polygon fill="#191970" stroke="#191970" points="722.1022,-363.5191 715.0034,-355.6542 715.6482,-366.2294 722.1022,-363.5191"/>
</g>
<!-- Node50&#45;&gt;Node5 -->
<g id="edge109" class="edge">
<title>Node50&#45;&gt;Node5</title>
<path fill="none" stroke="#191970" d="M496.3706,-168.1488C507.5264,-152.9087 531.331,-124.1121 559.5768,-112 634.004,-80.0849 1205.2563,-69.0694 1365.755,-66.5872"/>
<polygon fill="#191970" stroke="#191970" points="1366.2111,-70.0808 1376.1568,-66.4295 1366.1049,-63.0816 1366.2111,-70.0808"/>
</g>
<!-- Node50&#45;&gt;Node8 -->
<g id="edge110" class="edge">
<title>Node50&#45;&gt;Node8</title>
<path fill="none" stroke="#191970" d="M509.5179,-168.3733C528.0554,-159.4241 555.8796,-145.9917 576.8181,-135.8835"/>
<polygon fill="#191970" stroke="#191970" points="578.412,-139.0006 585.8959,-131.5011 575.3687,-132.6967 578.412,-139.0006"/>
</g>
<!-- Node50&#45;&gt;Node10 -->
<g id="edge108" class="edge">
<title>Node50&#45;&gt;Node10</title>
<path fill="none" stroke="#191970" d="M486.6221,-168.4703C479.9204,-147.4504 462.4373,-95.8154 440.5768,-56 435.2271,-46.2565 428.1637,-36.1443 421.9449,-27.8908"/>
<polygon fill="#191970" stroke="#191970" points="424.5422,-25.5286 415.6492,-19.7697 419.0099,-29.8174 424.5422,-25.5286"/>
</g>
<!-- Node51&#45;&gt;Node11 -->
<g id="edge112" class="edge">
<title>Node51&#45;&gt;Node11</title>
<path fill="none" stroke="#191970" d="M951.1792,-336.4875C929.3365,-307.719 865.297,-218.3033 843.5768,-132 829.2519,-75.0813 894.9333,-71.3771 951.5768,-56 1035.5094,-33.2147 1660.3795,-14.8642 1807.5822,-10.8278"/>
<polygon fill="#191970" stroke="#191970" points="1807.819,-14.3228 1817.72,-10.5518 1807.6285,-7.3254 1807.819,-14.3228"/>
</g>
<!-- Node51&#45;&gt;Node15 -->
<g id="edge113" class="edge">
<title>Node51&#45;&gt;Node15</title>
<path fill="none" stroke="#191970" d="M996.208,-337.5346C999.368,-336.9635 1002.5218,-336.441 1005.5768,-336 1160.4242,-313.6462 1576.8732,-335.7803 1703.5768,-244 1735.7401,-220.7018 1718.9633,-192.0389 1750.5768,-168 1787.88,-139.6346 1842.2473,-128.7337 1876.4961,-124.5622"/>
<polygon fill="#191970" stroke="#191970" points="1876.8792,-128.0413 1886.438,-123.4718 1876.116,-121.083 1876.8792,-128.0413"/>
</g>
<!-- Node51&#45;&gt;Node26 -->
<g id="edge115" class="edge">
<title>Node51&#45;&gt;Node26</title>
<path fill="none" stroke="#191970" d="M996.2235,-337.6366C999.3801,-337.043 1002.5288,-336.4875 1005.5768,-336 1145.8866,-313.5581 1313.9849,-298.9961 1390.2856,-293.0492"/>
<polygon fill="#191970" stroke="#191970" points="1390.7289,-296.5255 1400.4303,-292.2673 1390.1909,-289.5462 1390.7289,-296.5255"/>
</g>
<!-- Node51&#45;&gt;Node46 -->
<g id="edge114" class="edge">
<title>Node51&#45;&gt;Node46</title>
<path fill="none" stroke="#191970" d="M925.0551,-336.3733C889.7719,-326.2407 834.4757,-310.3607 798.6272,-300.0658"/>
<polygon fill="#191970" stroke="#191970" points="799.1952,-296.5875 788.6176,-297.1912 797.263,-303.3155 799.1952,-296.5875"/>
</g>
<!-- Node52&#45;&gt;Node2 -->
<g id="edge117" class="edge">
<title>Node52&#45;&gt;Node2</title>
<path fill="none" stroke="#191970" d="M1364.1969,-560.4369C1416.2334,-549.7627 1499.6411,-532.6535 1549.371,-522.4525"/>
<polygon fill="#191970" stroke="#191970" points="1550.3555,-525.8235 1559.4482,-520.3853 1548.9488,-518.9663 1550.3555,-525.8235"/>
</g>
<!-- Node53&#45;&gt;Node4 -->
<g id="edge123" class="edge">
<title>Node53&#45;&gt;Node4</title>
<path fill="none" stroke="#191970" d="M704.4724,-336.3258C696.787,-322.7901 685.8146,-297.8573 696.5768,-280 700.0146,-274.2957 796.2665,-226.1304 802.5768,-224 872.9858,-200.2295 957.8034,-188.442 1014.6668,-182.8042"/>
<polygon fill="#191970" stroke="#191970" points="1015.3276,-186.2571 1024.9493,-181.8216 1014.6617,-179.2889 1015.3276,-186.2571"/>
</g>
<!-- Node53&#45;&gt;Node5 -->
<g id="edge120" class="edge">
<title>Node53&#45;&gt;Node5</title>
<path fill="none" stroke="#191970" d="M710.4604,-336.3722C710.8375,-321.957 713.7739,-294.873 729.5768,-280 797.89,-215.7062 1052.8708,-218.5228 1141.5768,-188 1196.4687,-169.1122 1207.6584,-157.9684 1259.5768,-132 1276.6459,-123.4624 1280.3116,-120.134 1297.5768,-112 1322.5844,-100.2184 1351.4357,-88.2106 1373.315,-79.4189"/>
<polygon fill="#191970" stroke="#191970" points="1374.848,-82.5756 1382.8382,-75.6181 1372.2532,-76.0743 1374.848,-82.5756"/>
</g>
<!-- Node53&#45;&gt;Node8 -->
<g id="edge122" class="edge">
<title>Node53&#45;&gt;Node8</title>
<path fill="none" stroke="#191970" d="M687.5411,-336.4723C655.7551,-321.9026 599.7494,-290.761 576.5768,-244 561.5786,-213.7346 567.2015,-200.4506 576.5768,-168 579.4706,-157.9836 585.2646,-148.0485 590.918,-139.9887"/>
<polygon fill="#191970" stroke="#191970" points="593.8747,-141.88 597.0791,-131.7814 588.2765,-137.6776 593.8747,-141.88"/>
</g>
<!-- Node53&#45;&gt;Node10 -->
<g id="edge121" class="edge">
<title>Node53&#45;&gt;Node10</title>
<path fill="none" stroke="#191970" d="M676.9143,-344.8372C545.3189,-339.422 69.9374,-311.4158 9.5768,-188 -20.4621,-126.5815 27.0501,-85.8168 88.5768,-56 136.4879,-32.7815 289.4417,-18.6636 364.7951,-12.9464"/>
<polygon fill="#191970" stroke="#191970" points="365.1809,-16.4275 374.8938,-12.1953 364.6617,-9.4467 365.1809,-16.4275"/>
</g>
<!-- Node53&#45;&gt;Node26 -->
<g id="edge124" class="edge">
<title>Node53&#45;&gt;Node26</title>
<path fill="none" stroke="#191970" d="M744.385,-343.3741C862.993,-334.1618 1259.9977,-303.3265 1389.9856,-293.2304"/>
<polygon fill="#191970" stroke="#191970" points="1390.6044,-296.693 1400.3033,-292.429 1390.0622,-289.714 1390.6044,-296.693"/>
</g>
<!-- Node53&#45;&gt;Node46 -->
<g id="edge119" class="edge">
<title>Node53&#45;&gt;Node46</title>
<path fill="none" stroke="#191970" d="M719.8087,-336.2455C727.4085,-328.2155 738.3645,-316.6394 747.4135,-307.0781"/>
<polygon fill="#191970" stroke="#191970" points="750.1188,-309.3115 754.4507,-299.6427 745.0347,-304.4998 750.1188,-309.3115"/>
</g>
<!-- Node54&#45;&gt;Node4 -->
<g id="edge129" class="edge">
<title>Node54&#45;&gt;Node4</title>
<path fill="none" stroke="#191970" d="M1379.8649,-340.5635C1317.0521,-333.257 1215.4096,-318.9639 1182.5768,-300 1138.7888,-274.7085 1104.7704,-223.8655 1088.7102,-196.4789"/>
<polygon fill="#191970" stroke="#191970" points="1091.6106,-194.4992 1083.6209,-187.5411 1085.5276,-197.963 1091.6106,-194.4992"/>
</g>
<!-- Node54&#45;&gt;Node5 -->
<g id="edge127" class="edge">
<title>Node54&#45;&gt;Node5</title>
<path fill="none" stroke="#191970" d="M1467.3009,-336.4847C1520.9308,-320.1151 1613.464,-282.6235 1588.5768,-224 1574.5745,-191.0169 1500.1697,-134.86 1472.5768,-112 1459.3842,-101.0703 1443.7329,-89.9432 1431.0945,-81.3709"/>
<polygon fill="#191970" stroke="#191970" points="1432.7596,-78.2738 1422.5026,-75.6198 1428.8658,-84.0909 1432.7596,-78.2738"/>
</g>
<!-- Node54&#45;&gt;Node8 -->
<g id="edge128" class="edge">
<title>Node54&#45;&gt;Node8</title>
<path fill="none" stroke="#191970" d="M1379.9607,-340.8122C1323.4212,-334.3649 1230.4168,-321.5028 1152.5768,-300 1021.7922,-263.8715 993.2568,-241.5236 868.5768,-188 849.2088,-179.6856 845.5791,-174.6449 825.5768,-168 809.343,-162.607 712.1248,-143.019 652.4848,-131.213"/>
<polygon fill="#191970" stroke="#191970" points="653.0232,-127.7518 642.5343,-129.2464 651.6659,-134.619 653.0232,-127.7518"/>
</g>
<!-- Node54&#45;&gt;Node10 -->
<g id="edge126" class="edge">
<title>Node54&#45;&gt;Node10</title>
<path fill="none" stroke="#191970" d="M1379.8664,-339.9331C1271.8371,-327.4095 1014.2575,-298.3371 797.5768,-280 736.3321,-274.817 295.2123,-280.2504 245.5768,-244 217.1793,-223.2605 208.8973,-199.954 223.5768,-168 255.6727,-98.1342 335.5967,-47.5501 378.7887,-24.2872"/>
<polygon fill="#191970" stroke="#191970" points="380.4521,-27.367 387.6697,-19.6109 377.1907,-21.1731 380.4521,-27.367"/>
</g>
<!-- Node54&#45;&gt;Node11 -->
<g id="edge131" class="edge">
<title>Node54&#45;&gt;Node11</title>
<path fill="none" stroke="#191970" d="M1483.2149,-343.4823C1542.8299,-339.3124 1643.1308,-328.3763 1724.5768,-300 1820.0511,-266.7361 1849.5372,-257.9074 1922.5768,-188 1949.442,-162.2868 1968.7142,-147.4806 1957.5768,-112 1948.4931,-83.0623 1940.9303,-76.4992 1918.5768,-56 1903.9092,-42.5492 1884.6401,-31.3212 1868.6885,-23.3259"/>
<polygon fill="#191970" stroke="#191970" points="1869.7833,-19.9681 1859.2559,-18.7745 1866.7412,-26.2725 1869.7833,-19.9681"/>
</g>
<!-- Node54&#45;&gt;Node12 -->
<g id="edge132" class="edge">
<title>Node54&#45;&gt;Node12</title>
<path fill="none" stroke="#191970" d="M1379.8248,-341.7219C1319.8405,-333.6774 1223.4898,-310.533 1178.5768,-244 1173.6034,-236.6326 1173.9036,-231.5613 1178.5768,-224 1197.3859,-193.5662 1220.4121,-207.2378 1250.5768,-188 1274.2371,-172.9104 1299.1478,-152.3911 1315.4314,-138.2578"/>
<polygon fill="#191970" stroke="#191970" points="1317.9067,-140.742 1323.108,-131.5117 1313.2859,-135.4838 1317.9067,-140.742"/>
</g>
<!-- Node54&#45;&gt;Node15 -->
<g id="edge133" class="edge">
<title>Node54&#45;&gt;Node15</title>
<path fill="none" stroke="#191970" d="M1483.2843,-342.7326C1558.7278,-335.6615 1700.4341,-313.4395 1796.5768,-244 1838.4859,-213.731 1876.7741,-165.7991 1895.8543,-139.9468"/>
<polygon fill="#191970" stroke="#191970" points="1898.7344,-141.9371 1901.7766,-131.7884 1893.0696,-137.8249 1898.7344,-141.9371"/>
</g>
<!-- Node54&#45;&gt;Node26 -->
<g id="edge130" class="edge">
<title>Node54&#45;&gt;Node26</title>
<path fill="none" stroke="#191970" d="M1431.5768,-336.2455C1431.5768,-328.9382 1431.5768,-318.6944 1431.5768,-309.7046"/>
<polygon fill="#191970" stroke="#191970" points="1435.0769,-309.6426 1431.5768,-299.6427 1428.0769,-309.6427 1435.0769,-309.6426"/>
</g>
<!-- Node56&#45;&gt;Node4 -->
<g id="edge138" class="edge">
<title>Node56&#45;&gt;Node4</title>
<path fill="none" stroke="#191970" d="M322.7756,-231.5758C444.1269,-222.9737 855.3185,-193.8259 1014.7093,-182.5273"/>
<polygon fill="#191970" stroke="#191970" points="1015.1107,-186.0077 1024.8382,-181.8093 1014.6157,-179.0253 1015.1107,-186.0077"/>
</g>
<!-- Node56&#45;&gt;Node11 -->
<g id="edge136" class="edge">
<title>Node56&#45;&gt;Node11</title>
<path fill="none" stroke="#191970" d="M293.5959,-224.3435C301.2581,-210.3762 317.0597,-184.4157 336.5768,-168 435.6852,-84.6401 478.452,-80.7115 605.5768,-56 666.3643,-44.1836 1623.5919,-16.1756 1807.9784,-10.8742"/>
<polygon fill="#191970" stroke="#191970" points="1808.1689,-14.3703 1818.0643,-10.5847 1807.968,-7.3731 1808.1689,-14.3703"/>
</g>
<!-- Node57 -->
<g id="node58" class="node">
<title>Node57</title>
<polygon fill="#ffffff" stroke="#bfbfbf" points="232.5768,-168.5 232.5768,-187.5 284.5768,-187.5 284.5768,-168.5 232.5768,-168.5"/>
<text text-anchor="middle" x="258.5768" y="-175.5" font-family="Helvetica,sans-Serif" font-size="10.00" fill="#000000">ostream</text>
</g>
<!-- Node56&#45;&gt;Node57 -->
<g id="edge137" class="edge">
<title>Node56&#45;&gt;Node57</title>
<path fill="none" stroke="#191970" d="M283.3512,-224.2455C279.2645,-216.617 273.4633,-205.7881 268.5018,-196.5267"/>
<polygon fill="#191970" stroke="#191970" points="271.5499,-194.8047 263.7425,-187.6427 265.3796,-198.1103 271.5499,-194.8047"/>
</g>
<!-- Node58&#45;&gt;Node11 -->
<g id="edge142" class="edge">
<title>Node58&#45;&gt;Node11</title>
<path fill="none" stroke="#191970" d="M2456.8908,-168.4374C2448.2807,-154.5872 2430.7804,-128.771 2410.5768,-112 2369.277,-77.7171 2355.0044,-71.3682 2303.5768,-56 2221.6971,-31.5318 1959.6391,-16.1814 1869.4311,-11.5137"/>
<polygon fill="#191970" stroke="#191970" points="1869.4709,-8.0113 1859.3057,-10.9975 1869.1145,-15.0022 1869.4709,-8.0113"/>
</g>
<!-- Node58&#45;&gt;Node13 -->
<g id="edge141" class="edge">
<title>Node58&#45;&gt;Node13</title>
<path fill="none" stroke="#191970" d="M2392.3726,-176.7077C2154.81,-172.156 1382.1478,-155.8453 1134.5768,-132 1122.1298,-130.8011 1108.4066,-128.7144 1096.9544,-126.7563"/>
<polygon fill="#191970" stroke="#191970" points="1097.244,-123.253 1086.7862,-124.9515 1096.0206,-130.1453 1097.244,-123.253"/>
</g>
<!-- Node58&#45;&gt;Node15 -->
<g id="edge143" class="edge">
<title>Node58&#45;&gt;Node15</title>
<path fill="none" stroke="#191970" d="M2392.4123,-170.9076C2271.5278,-158.6882 2028.541,-134.1264 1940.9681,-125.2742"/>
<polygon fill="#191970" stroke="#191970" points="1941.1429,-121.7741 1930.8416,-124.2506 1940.4388,-128.7386 1941.1429,-121.7741"/>
</g>
<!-- Node58&#45;&gt;Node32 -->
<g id="edge140" class="edge">
<title>Node58&#45;&gt;Node32</title>
<path fill="none" stroke="#191970" d="M2473.028,-168.2455C2481.8036,-160.0549 2494.5322,-148.1749 2504.8908,-138.5069"/>
<polygon fill="#191970" stroke="#191970" points="2507.3229,-141.0246 2512.2453,-131.6427 2502.5466,-135.9072 2507.3229,-141.0246"/>
</g>
<!-- Node59 -->
<g id="node60" class="node">
<title>Node59</title>
<polygon fill="#ffffff" stroke="#bfbfbf" points="2355.5768,-112.5 2355.5768,-131.5 2401.5768,-131.5 2401.5768,-112.5 2355.5768,-112.5"/>
<text text-anchor="middle" x="2378.5768" y="-119.5" font-family="Helvetica,sans-Serif" font-size="10.00" fill="#000000">cstdint</text>
</g>
<!-- Node58&#45;&gt;Node59 -->
<g id="edge144" class="edge">
<title>Node58&#45;&gt;Node59</title>
<path fill="none" stroke="#191970" d="M2447.9451,-168.2455C2435.1773,-159.7337 2416.433,-147.2375 2401.6469,-137.3801"/>
<polygon fill="#191970" stroke="#191970" points="2403.3028,-134.2775 2393.0408,-131.6427 2399.4198,-140.1019 2403.3028,-134.2775"/>
</g>
<!-- Node61&#45;&gt;Node11 -->
<g id="edge150" class="edge">
<title>Node61&#45;&gt;Node11</title>
<path fill="none" stroke="#191970" d="M2543.142,-228.8358C2596.1365,-222.688 2669.7833,-210.3256 2687.5768,-188 2706.1883,-164.6479 2676.5317,-126.8701 2659.5768,-112 2602.3031,-61.7687 2572.2196,-71.2284 2497.5768,-56 2374.9713,-30.9864 1982.5755,-15.1934 1869.4012,-11.076"/>
<polygon fill="#191970" stroke="#191970" points="1869.4583,-7.5758 1859.3389,-10.714 1869.2066,-14.5713 1869.4583,-7.5758"/>
</g>
<!-- Node61&#45;&gt;Node14 -->
<g id="edge149" class="edge">
<title>Node61&#45;&gt;Node14</title>
<path fill="none" stroke="#191970" d="M2458.6969,-224.4509C2396.7919,-203.248 2248.4991,-152.4566 2187.011,-131.3964"/>
<polygon fill="#191970" stroke="#191970" points="2187.8392,-127.9806 2177.2446,-128.0514 2185.571,-134.6029 2187.8392,-127.9806"/>
</g>
<!-- Node61&#45;&gt;Node15 -->
<g id="edge148" class="edge">
<title>Node61&#45;&gt;Node15</title>
<path fill="none" stroke="#191970" d="M2446.7156,-224.4376C2389.6927,-210.9259 2281.4543,-185.9002 2188.5768,-168 2099.1986,-150.7742 1992.9771,-134.4511 1940.7864,-126.7011"/>
<polygon fill="#191970" stroke="#191970" points="1941.1964,-123.2238 1930.7921,-125.224 1940.1729,-130.1486 1941.1964,-123.2238"/>
</g>
<!-- Node61&#45;&gt;Node31 -->
<g id="edge147" class="edge">
<title>Node61&#45;&gt;Node31</title>
<path fill="none" stroke="#191970" d="M2508.5807,-224.3733C2529.2202,-215.3435 2560.2925,-201.7494 2583.4656,-191.6111"/>
<polygon fill="#191970" stroke="#191970" points="2585.1012,-194.7159 2592.8599,-187.5011 2582.2954,-188.3028 2585.1012,-194.7159"/>
</g>
</g>
</svg>
        <g id="navigator" transform="translate(0 0)" fill="#404254">
                <rect fill="#f2f5e9" fill-opacity="0.5" stroke="#606060" stroke-width=".5" x="0" y="0" width="60" height="60"/>
                <use id="zoomplus" xlink:href="#zoomPlus" x="17" y="9" onmousedown="handleZoom(evt,'in')"/>
                <use id="zoomminus" xlink:href="#zoomMin" x="42" y="9" onmousedown="handleZoom(evt,'out')"/>
                <use id="reset" xlink:href="#resetDef" x="30" y="36" onmousedown="handleReset()"/>
                <g id="arrowUp" xlink:href="#dirArrow" transform="translate(30 24)" onmousedown="handlePan(0,-1)">
                  <use xlink:href="#rim" fill="#404040">
                        <set attributeName="fill" to="#808080" begin="arrowUp.mouseover" end="arrowUp.mouseout"/>
                  </use>
                  <path fill="none" stroke="white" stroke-width="1.5" d="M0,-3.0v7 M-2.5,-0.5L0,-3.0L2.5,-0.5"/>
                </g>
                <g id="arrowRight" xlink:href="#dirArrow" transform="rotate(90) translate(36 -43)" onmousedown="handlePan(1,0)">
                  <use xlink:href="#rim" fill="#404040">
                        <set attributeName="fill" to="#808080" begin="arrowRight.mouseover" end="arrowRight.mouseout"/>
                  </use>
                  <path fill="none" stroke="white" stroke-width="1.5" d="M0,-3.0v7 M-2.5,-0.5L0,-3.0L2.5,-0.5"/>
                </g>
                <g id="arrowDown" xlink:href="#dirArrow" transform="rotate(180) translate(-30 -48)" onmousedown="handlePan(0,1)">
                  <use xlink:href="#rim" fill="#404040">
                        <set attributeName="fill" to="#808080" begin="arrowDown.mouseover" end="arrowDown.mouseout"/>
                  </use>
                  <path fill="none" stroke="white" stroke-width="1.5" d="M0,-3.0v7 M-2.5,-0.5L0,-3.0L2.5,-0.5"/>
                </g>
                <g id="arrowLeft" xlink:href="#dirArrow" transform="rotate(270) translate(-36 17)" onmousedown="handlePan(-1,0)">
                  <use xlink:href="#rim" fill="#404040">
                        <set attributeName="fill" to="#808080" begin="arrowLeft.mouseover" end="arrowLeft.mouseout"/>
                  </use>
                  <path fill="none" stroke="white" stroke-width="1.5" d="M0,-3.0v7 M-2.5,-0.5L0,-3.0L2.5,-0.5"/>
                </g>
        </g>
        <svg viewBox="0 0 15 15" width="100%" height="30px" preserveAspectRatio="xMaxYMin meet">
         <g id="arrow_out" transform="scale(0.3 0.3)">
          <a xlink:href="ntv2supportlogger_8cpp__incl_org.svg" target="_base">
           <rect id="button" ry="5" rx="5" y="6" x="6" height="38" width="38"
                fill="#f2f5e9" fill-opacity="0.5" stroke="#606060" stroke-width="1.0"/>
           <path id="arrow"
             d="M 11.500037,31.436501 C 11.940474,20.09759 22.043105,11.32322 32.158766,21.979434 L 37.068811,17.246167 C 37.068811,17.246167 37.088388,32 37.088388,32 L 22.160133,31.978069 C 22.160133,31.978069 26.997745,27.140456 26.997745,27.140456 C 18.528582,18.264221 13.291696,25.230495 11.500037,31.436501 z"
             style="fill:#404040;"/>
          </a>
         </g>
        </svg>
</svg>
