<?xml version="1.0" encoding="UTF-8" standalone="no"?>
<!DOCTYPE svg PUBLIC "-//W3C//DTD SVG 1.1//EN"
 "http://www.w3.org/Graphics/SVG/1.1/DTD/svg11.dtd">
<!-- Generated by graphviz version 2.43.0 (0)
 -->
<!-- Title: /home/tcbuilder/buildAgent/work/df8e8cce5bebfd58/libajantv2/ajaanc/src/ancillarydata_cea708.cpp Pages: 1 -->
<!--zoomable 442 -->
<svg id="main" version="1.1" xmlns="http://www.w3.org/2000/svg" xmlns:xlink="http://www.w3.org/1999/xlink" xml:space="preserve" onload="init(evt)">
<style type="text/css"><![CDATA[
.edge:hover path { stroke: red; }
.edge:hover polygon { stroke: red; fill: red; }
]]></style>
<script type="text/javascript"><![CDATA[
var edges = document.getElementsByTagName('g');
if (edges && edges.length) {
  for (var i=0;i<edges.length;i++) {
    if (edges[i].id.substr(0,4)=='edge') {
      edges[i].setAttribute('class','edge');
    }
  }
}
]]></script>
        <defs>
                <circle id="rim" cx="0" cy="0" r="7"/>
                <circle id="rim2" cx="0" cy="0" r="3.5"/>
                <g id="zoomPlus">
                        <use xlink:href="#rim" fill="#404040">
                                <set attributeName="fill" to="#808080" begin="zoomplus.mouseover" end="zoomplus.mouseout"/>
                        </use>
                        <path d="M-4,0h8M0,-4v8" fill="none" stroke="white" stroke-width="1.5" pointer-events="none"/>
                </g>
                <g id="zoomMin">
                        <use xlink:href="#rim" fill="#404040">
                                <set attributeName="fill" to="#808080" begin="zoomminus.mouseover" end="zoomminus.mouseout"/>
                        </use>
                        <path d="M-4,0h8" fill="none" stroke="white" stroke-width="1.5" pointer-events="none"/>
                </g>
                <g id="dirArrow">
                        <path fill="none" stroke="white" stroke-width="1.5" d="M0,-3.0v7 M-2.5,-0.5L0,-3.0L2.5,-0.5"/>
                </g>
               <g id="resetDef">
                       <use xlink:href="#rim2" fill="#404040">
                               <set attributeName="fill" to="#808080" begin="reset.mouseover" end="reset.mouseout"/>
                       </use>
               </g>
        </defs>

<script type="text/javascript">
var viewWidth = 1434;
var viewHeight = 442;
var sectionId = 'dynsection-0';
</script>
<script xlink:href="../../svgpan.js"/>
<svg id="graph" class="graph">
<g id="viewport">
<title>/home/tcbuilder/buildAgent/work/df8e8cce5bebfd58/libajantv2/ajaanc/src/ancillarydata_cea708.cpp</title>
<polygon fill="white" stroke="transparent" points="-4,4 -4,-438 1430,-438 1430,4 -4,4"/>
<!-- Node1 -->
<g id="node1" class="node">
<title>Node1</title>
<g id="a_node1"><a xlink:title="Implements the AJAAncillaryData_Cea708 class.">
<polygon fill="#bfbfbf" stroke="black" points="760.5,-392.5 760.5,-433.5 957.5,-433.5 957.5,-392.5 760.5,-392.5"/>
<text text-anchor="start" x="768.5" y="-421.5" font-family="Helvetica,sans-Serif" font-size="10.00">/home/tcbuilder/buildAgent</text>
<text text-anchor="start" x="768.5" y="-410.5" font-family="Helvetica,sans-Serif" font-size="10.00">/work/df8e8cce5bebfd58/libajantv2</text>
<text text-anchor="middle" x="859" y="-399.5" font-family="Helvetica,sans-Serif" font-size="10.00">/ajaanc/src/ancillarydata_cea708.cpp</text>
</a>
</g>
</g>
<!-- Node2 -->
<g id="node2" class="node">
<title>Node2</title>
<g id="a_node2"><a xlink:href="../../d1/d0a/ancillarydata__cea708_8h.html" target="_top" xlink:title="Declares the AJAAncillaryData_Cea708 class.">
<polygon fill="white" stroke="black" points="748,-336.5 748,-355.5 878,-355.5 878,-336.5 748,-336.5"/>
<text text-anchor="middle" x="813" y="-343.5" font-family="Helvetica,sans-Serif" font-size="10.00">ancillarydata_cea708.h</text>
</a>
</g>
</g>
<!-- Node1&#45;&gt;Node2 -->
<g id="edge1" class="edge">
<title>Node1&#45;&gt;Node2</title>
<path fill="none" stroke="midnightblue" d="M845.2,-392.5C838.76,-383.39 831.16,-372.66 824.97,-363.91"/>
<polygon fill="midnightblue" stroke="midnightblue" points="827.76,-361.79 819.12,-355.65 822.04,-365.84 827.76,-361.79"/>
</g>
<!-- Node17 -->
<g id="node17" class="node">
<title>Node17</title>
<g id="a_node17"><a xlink:title=" ">
<polygon fill="white" stroke="#bfbfbf" points="0,-112.5 0,-131.5 56,-131.5 56,-112.5 0,-112.5"/>
<text text-anchor="middle" x="28" y="-119.5" font-family="Helvetica,sans-Serif" font-size="10.00">iomanip</text>
</a>
</g>
</g>
<!-- Node1&#45;&gt;Node17 -->
<g id="edge47" class="edge">
<title>Node1&#45;&gt;Node17</title>
<path fill="none" stroke="midnightblue" d="M760.13,-407.26C545.5,-395.65 56,-361.45 56,-291 56,-291 56,-291 56,-233 56,-199.79 43.87,-162.63 35.57,-141.12"/>
<polygon fill="midnightblue" stroke="midnightblue" points="38.75,-139.63 31.78,-131.65 32.25,-142.23 38.75,-139.63"/>
</g>
<!-- Node22 -->
<g id="node22" class="node">
<title>Node22</title>
<g id="a_node22"><a xlink:href="../../db/d16/debug_8h.html" target="_top" xlink:title="Declares the AJADebug class.">
<polygon fill="white" stroke="black" points="947,-224.5 947,-243.5 1083,-243.5 1083,-224.5 947,-224.5"/>
<text text-anchor="middle" x="1015" y="-231.5" font-family="Helvetica,sans-Serif" font-size="10.00">ajabase/system/debug.h</text>
</a>
</g>
</g>
<!-- Node1&#45;&gt;Node22 -->
<g id="edge29" class="edge">
<title>Node1&#45;&gt;Node22</title>
<path fill="none" stroke="midnightblue" d="M876.29,-392.38C907.31,-357.18 971.86,-283.94 1000.63,-251.3"/>
<polygon fill="midnightblue" stroke="midnightblue" points="1003.45,-253.4 1007.43,-243.58 998.2,-248.77 1003.45,-253.4"/>
</g>
<!-- Node29 -->
<g id="node29" class="node">
<title>Node29</title>
<g id="a_node29"><a xlink:title=" ">
<polygon fill="white" stroke="#bfbfbf" points="934.5,-336.5 934.5,-355.5 965.5,-355.5 965.5,-336.5 934.5,-336.5"/>
<text text-anchor="middle" x="950" y="-343.5" font-family="Helvetica,sans-Serif" font-size="10.00">ios</text>
</a>
</g>
</g>
<!-- Node1&#45;&gt;Node29 -->
<g id="edge46" class="edge">
<title>Node1&#45;&gt;Node29</title>
<path fill="none" stroke="midnightblue" d="M886.3,-392.5C900.26,-382.53 916.94,-370.61 929.73,-361.48"/>
<polygon fill="midnightblue" stroke="midnightblue" points="931.78,-364.31 937.89,-355.65 927.71,-358.62 931.78,-364.31"/>
</g>
<!-- Node3 -->
<g id="node3" class="node">
<title>Node3</title>
<g id="a_node3"><a xlink:href="../../df/d78/ancillarydatafactory_8h.html" target="_top" xlink:title="Declaration of the AJAAncillaryDataFactory class.">
<polygon fill="white" stroke="black" points="691,-280.5 691,-299.5 813,-299.5 813,-280.5 691,-280.5"/>
<text text-anchor="middle" x="752" y="-287.5" font-family="Helvetica,sans-Serif" font-size="10.00">ancillarydatafactory.h</text>
</a>
</g>
</g>
<!-- Node2&#45;&gt;Node3 -->
<g id="edge2" class="edge">
<title>Node2&#45;&gt;Node3</title>
<path fill="none" stroke="midnightblue" d="M803.2,-336.32C794.18,-328.34 780.59,-316.31 769.68,-306.65"/>
<polygon fill="midnightblue" stroke="midnightblue" points="771.79,-303.84 761.98,-299.83 767.15,-309.08 771.79,-303.84"/>
</g>
<!-- Node4 -->
<g id="node4" class="node">
<title>Node4</title>
<g id="a_node4"><a xlink:href="../../d7/d92/ancillarydata_8h.html" target="_top" xlink:title="Declares the AJAAncillaryData class.">
<polygon fill="white" stroke="black" points="752.5,-224.5 752.5,-243.5 841.5,-243.5 841.5,-224.5 752.5,-224.5"/>
<text text-anchor="middle" x="797" y="-231.5" font-family="Helvetica,sans-Serif" font-size="10.00">ancillarydata.h</text>
</a>
</g>
</g>
<!-- Node2&#45;&gt;Node4 -->
<g id="edge28" class="edge">
<title>Node2&#45;&gt;Node4</title>
<path fill="none" stroke="midnightblue" d="M816.27,-336.46C820.6,-323.92 827.14,-299.85 822,-280 819.45,-270.18 814.25,-260.21 809.24,-252.17"/>
<polygon fill="midnightblue" stroke="midnightblue" points="812.08,-250.11 803.63,-243.73 806.25,-253.99 812.08,-250.11"/>
</g>
<!-- Node3&#45;&gt;Node4 -->
<g id="edge3" class="edge">
<title>Node3&#45;&gt;Node4</title>
<path fill="none" stroke="midnightblue" d="M759.43,-280.08C765.85,-272.38 775.31,-261.03 783.12,-251.65"/>
<polygon fill="midnightblue" stroke="midnightblue" points="785.99,-253.67 789.71,-243.75 780.62,-249.19 785.99,-253.67"/>
</g>
<!-- Node5 -->
<g id="node5" class="node">
<title>Node5</title>
<g id="a_node5"><a xlink:href="../../db/de2/ajatypes_8h.html" target="_top" xlink:title="Declares the most fundamental data types used by NTV2. Since Windows NT was the first principal devel...">
<polygon fill="white" stroke="black" points="614,-56.5 614,-75.5 682,-75.5 682,-56.5 614,-56.5"/>
<text text-anchor="middle" x="648" y="-63.5" font-family="Helvetica,sans-Serif" font-size="10.00">ajatypes.h</text>
</a>
</g>
</g>
<!-- Node4&#45;&gt;Node5 -->
<g id="edge4" class="edge">
<title>Node4&#45;&gt;Node5</title>
<path fill="none" stroke="midnightblue" d="M797.93,-224.47C799.8,-202.85 801.63,-145.28 773,-112 752.79,-88.51 719.37,-77.28 692.17,-71.92"/>
<polygon fill="midnightblue" stroke="midnightblue" points="692.55,-68.43 682.09,-70.13 691.33,-75.32 692.55,-68.43"/>
</g>
<!-- Node7 -->
<g id="node7" class="node">
<title>Node7</title>
<g id="a_node7"><a xlink:href="../../d6/db1/ntv2version_8h.html" target="_top" xlink:title="Defines for the NTV2 SDK version number, used by ajantv2/includes/ntv2enums.h. See the ajantv2/includ...">
<polygon fill="white" stroke="black" points="112.5,-56.5 112.5,-75.5 195.5,-75.5 195.5,-56.5 112.5,-56.5"/>
<text text-anchor="middle" x="154" y="-63.5" font-family="Helvetica,sans-Serif" font-size="10.00">ntv2version.h</text>
</a>
</g>
</g>
<!-- Node4&#45;&gt;Node7 -->
<g id="edge6" class="edge">
<title>Node4&#45;&gt;Node7</title>
<path fill="none" stroke="midnightblue" d="M752.13,-232.26C622.95,-229.15 254.19,-213.22 172,-132 159.91,-120.05 155.74,-100.75 154.4,-86.28"/>
<polygon fill="midnightblue" stroke="midnightblue" points="157.88,-85.73 153.83,-75.94 150.89,-86.12 157.88,-85.73"/>
</g>
<!-- Node10 -->
<g id="node10" class="node">
<title>Node10</title>
<g id="a_node10"><a xlink:href="../../d9/d49/types_8h.html" target="_top" xlink:title="Declares common types used in the ajabase library.">
<polygon fill="white" stroke="black" points="820,-112.5 820,-131.5 960,-131.5 960,-112.5 820,-112.5"/>
<text text-anchor="middle" x="890" y="-119.5" font-family="Helvetica,sans-Serif" font-size="10.00">ajabase/common/types.h</text>
</a>
</g>
</g>
<!-- Node4&#45;&gt;Node10 -->
<g id="edge9" class="edge">
<title>Node4&#45;&gt;Node10</title>
<path fill="none" stroke="midnightblue" d="M801.92,-224.09C809.3,-211.09 824.1,-186.45 840,-168 849.32,-157.19 861.13,-146.44 870.94,-138.17"/>
<polygon fill="midnightblue" stroke="midnightblue" points="873.43,-140.65 878.92,-131.59 868.98,-135.25 873.43,-140.65"/>
</g>
<!-- Node11 -->
<g id="node11" class="node">
<title>Node11</title>
<g id="a_node11"><a xlink:href="../../d4/dd7/ntv2publicinterface_8h.html" target="_top" xlink:title="Declares enums and structs used by all platform drivers and the SDK.">
<polygon fill="white" stroke="black" points="393,-168.5 393,-187.5 513,-187.5 513,-168.5 393,-168.5"/>
<text text-anchor="middle" x="453" y="-175.5" font-family="Helvetica,sans-Serif" font-size="10.00">ntv2publicinterface.h</text>
</a>
</g>
</g>
<!-- Node4&#45;&gt;Node11 -->
<g id="edge10" class="edge">
<title>Node4&#45;&gt;Node11</title>
<path fill="none" stroke="midnightblue" d="M752.38,-226C692.55,-216.6 585.94,-199.87 517.41,-189.11"/>
<polygon fill="midnightblue" stroke="midnightblue" points="517.59,-185.6 507.17,-187.5 516.5,-192.51 517.59,-185.6"/>
</g>
<!-- Node16 -->
<g id="node16" class="node">
<title>Node16</title>
<g id="a_node16"><a xlink:title=" ">
<polygon fill="white" stroke="#bfbfbf" points="978.5,-112.5 978.5,-131.5 1025.5,-131.5 1025.5,-112.5 978.5,-112.5"/>
<text text-anchor="middle" x="1002" y="-119.5" font-family="Helvetica,sans-Serif" font-size="10.00">vector</text>
</a>
</g>
</g>
<!-- Node4&#45;&gt;Node16 -->
<g id="edge27" class="edge">
<title>Node4&#45;&gt;Node16</title>
<path fill="none" stroke="midnightblue" d="M805.08,-224.24C818.16,-210.53 845.3,-183.92 873,-168 889.52,-158.51 936.09,-143.21 968.5,-133.13"/>
<polygon fill="midnightblue" stroke="midnightblue" points="969.94,-136.35 978.47,-130.06 967.88,-129.66 969.94,-136.35"/>
</g>
<!-- Node21 -->
<g id="node21" class="node">
<title>Node21</title>
<g id="a_node21"><a xlink:title=" ">
<polygon fill="white" stroke="#bfbfbf" points="882,-168.5 882,-187.5 938,-187.5 938,-168.5 882,-168.5"/>
<text text-anchor="middle" x="910" y="-175.5" font-family="Helvetica,sans-Serif" font-size="10.00">sstream</text>
</a>
</g>
</g>
<!-- Node4&#45;&gt;Node21 -->
<g id="edge26" class="edge">
<title>Node4&#45;&gt;Node21</title>
<path fill="none" stroke="midnightblue" d="M814.91,-224.44C833.25,-215.68 862.01,-201.94 883.09,-191.86"/>
<polygon fill="midnightblue" stroke="midnightblue" points="884.67,-194.99 892.18,-187.52 881.65,-188.67 884.67,-194.99"/>
</g>
<!-- Node6 -->
<g id="node6" class="node">
<title>Node6</title>
<g id="a_node6"><a xlink:title=" ">
<polygon fill="white" stroke="#bfbfbf" points="968.5,-0.5 968.5,-19.5 1021.5,-19.5 1021.5,-0.5 968.5,-0.5"/>
<text text-anchor="middle" x="995" y="-7.5" font-family="Helvetica,sans-Serif" font-size="10.00">stdint.h</text>
</a>
</g>
</g>
<!-- Node5&#45;&gt;Node6 -->
<g id="edge5" class="edge">
<title>Node5&#45;&gt;Node6</title>
<path fill="none" stroke="midnightblue" d="M682.22,-59.67C747.79,-49.47 890.6,-27.25 958.17,-16.73"/>
<polygon fill="midnightblue" stroke="midnightblue" points="959,-20.14 968.34,-15.15 957.92,-13.23 959,-20.14"/>
</g>
<!-- Node8 -->
<g id="node8" class="node">
<title>Node8</title>
<g id="a_node8"><a xlink:href="../../d6/dd9/ajaexport_8h.html" target="_top" xlink:title="Defines the import/export macros for producing DLLs or LIBs.">
<polygon fill="white" stroke="black" points="99,-0.5 99,-19.5 171,-19.5 171,-0.5 99,-0.5"/>
<text text-anchor="middle" x="135" y="-7.5" font-family="Helvetica,sans-Serif" font-size="10.00">ajaexport.h</text>
</a>
</g>
</g>
<!-- Node7&#45;&gt;Node8 -->
<g id="edge7" class="edge">
<title>Node7&#45;&gt;Node8</title>
<path fill="none" stroke="midnightblue" d="M150.86,-56.08C148.32,-48.85 144.64,-38.41 141.47,-29.4"/>
<polygon fill="midnightblue" stroke="midnightblue" points="144.7,-28.02 138.08,-19.75 138.1,-30.35 144.7,-28.02"/>
</g>
<!-- Node9 -->
<g id="node9" class="node">
<title>Node9</title>
<g id="a_node9"><a xlink:title=" ">
<polygon fill="white" stroke="#bfbfbf" points="221,-0.5 221,-19.5 265,-19.5 265,-0.5 221,-0.5"/>
<text text-anchor="middle" x="243" y="-7.5" font-family="Helvetica,sans-Serif" font-size="10.00">string</text>
</a>
</g>
</g>
<!-- Node7&#45;&gt;Node9 -->
<g id="edge8" class="edge">
<title>Node7&#45;&gt;Node9</title>
<path fill="none" stroke="midnightblue" d="M168.3,-56.32C182.18,-47.9 203.49,-34.97 219.8,-25.07"/>
<polygon fill="midnightblue" stroke="midnightblue" points="222,-27.83 228.74,-19.65 218.37,-21.85 222,-27.83"/>
</g>
<!-- Node11&#45;&gt;Node5 -->
<g id="edge11" class="edge">
<title>Node11&#45;&gt;Node5</title>
<path fill="none" stroke="midnightblue" d="M513.27,-176.17C551.12,-172.49 598.39,-161.59 629,-132 641.41,-120.01 645.83,-100.4 647.35,-85.85"/>
<polygon fill="midnightblue" stroke="midnightblue" points="650.87,-85.72 648.04,-75.51 643.88,-85.26 650.87,-85.72"/>
</g>
<!-- Node11&#45;&gt;Node8 -->
<g id="edge23" class="edge">
<title>Node11&#45;&gt;Node8</title>
<path fill="none" stroke="midnightblue" d="M392.88,-176.29C334.18,-173.59 243.49,-163.95 172,-132 135.94,-115.89 119.98,-111.66 103,-76 95.03,-59.26 106.85,-40.25 118.31,-27.13"/>
<polygon fill="midnightblue" stroke="midnightblue" points="120.91,-29.47 125.22,-19.8 115.81,-24.67 120.91,-29.47"/>
</g>
<!-- Node11&#45;&gt;Node9 -->
<g id="edge19" class="edge">
<title>Node11&#45;&gt;Node9</title>
<path fill="none" stroke="midnightblue" d="M392.84,-175.86C320.63,-173.08 205.87,-163.65 179,-132 173.25,-125.22 176.34,-120.48 179,-112 184.82,-93.41 193.43,-92.36 204,-76 214.25,-60.15 225.25,-41.65 232.95,-28.45"/>
<polygon fill="midnightblue" stroke="midnightblue" points="236.14,-29.93 238.13,-19.52 230.09,-26.42 236.14,-29.93"/>
</g>
<!-- Node12 -->
<g id="node12" class="node">
<title>Node12</title>
<g id="a_node12"><a xlink:href="../../d6/d0c/ntv2enums_8h.html" target="_top" xlink:title="Enumerations for controlling NTV2 devices.">
<polygon fill="white" stroke="black" points="328,-112.5 328,-131.5 408,-131.5 408,-112.5 328,-112.5"/>
<text text-anchor="middle" x="368" y="-119.5" font-family="Helvetica,sans-Serif" font-size="10.00">ntv2enums.h</text>
</a>
</g>
</g>
<!-- Node11&#45;&gt;Node12 -->
<g id="edge12" class="edge">
<title>Node11&#45;&gt;Node12</title>
<path fill="none" stroke="midnightblue" d="M439.34,-168.32C426.08,-159.9 405.73,-146.97 390.15,-137.07"/>
<polygon fill="midnightblue" stroke="midnightblue" points="391.94,-134.06 381.62,-131.65 388.19,-139.97 391.94,-134.06"/>
</g>
<!-- Node13 -->
<g id="node13" class="node">
<title>Node13</title>
<g id="a_node13"><a xlink:title=" ">
<polygon fill="white" stroke="#bfbfbf" points="188,-112.5 188,-131.5 248,-131.5 248,-112.5 188,-112.5"/>
<text text-anchor="middle" x="218" y="-119.5" font-family="Helvetica,sans-Serif" font-size="10.00">iostream</text>
</a>
</g>
</g>
<!-- Node11&#45;&gt;Node13 -->
<g id="edge15" class="edge">
<title>Node11&#45;&gt;Node13</title>
<path fill="none" stroke="midnightblue" d="M415.79,-168.47C378.36,-159.89 318.73,-146.2 257.99,-132.23"/>
<polygon fill="midnightblue" stroke="midnightblue" points="258.76,-128.81 248.23,-129.98 257.19,-135.63 258.76,-128.81"/>
</g>
<!-- Node14 -->
<g id="node14" class="node">
<title>Node14</title>
<g id="a_node14"><a xlink:title=" ">
<polygon fill="white" stroke="#bfbfbf" points="676,-112.5 676,-131.5 708,-131.5 708,-112.5 676,-112.5"/>
<text text-anchor="middle" x="692" y="-119.5" font-family="Helvetica,sans-Serif" font-size="10.00">set</text>
</a>
</g>
</g>
<!-- Node11&#45;&gt;Node14 -->
<g id="edge16" class="edge">
<title>Node11&#45;&gt;Node14</title>
<path fill="none" stroke="midnightblue" d="M497.68,-168.45C540.16,-160.07 605.74,-146.47 662,-132 663.27,-131.67 664.57,-131.33 665.89,-130.97"/>
<polygon fill="midnightblue" stroke="midnightblue" points="667.23,-134.22 675.87,-128.09 665.3,-127.5 667.23,-134.22"/>
</g>
<!-- Node15 -->
<g id="node15" class="node">
<title>Node15</title>
<g id="a_node15"><a xlink:title=" ">
<polygon fill="white" stroke="#bfbfbf" points="726,-112.5 726,-131.5 764,-131.5 764,-112.5 726,-112.5"/>
<text text-anchor="middle" x="745" y="-119.5" font-family="Helvetica,sans-Serif" font-size="10.00">map</text>
</a>
</g>
</g>
<!-- Node11&#45;&gt;Node15 -->
<g id="edge17" class="edge">
<title>Node11&#45;&gt;Node15</title>
<path fill="none" stroke="midnightblue" d="M513.26,-169.22C564.78,-162 641.01,-149.99 715.76,-132.02"/>
<polygon fill="midnightblue" stroke="midnightblue" points="716.94,-135.33 725.82,-129.56 715.28,-128.53 716.94,-135.33"/>
</g>
<!-- Node11&#45;&gt;Node16 -->
<g id="edge18" class="edge">
<title>Node11&#45;&gt;Node16</title>
<path fill="none" stroke="midnightblue" d="M513.05,-175.25C607.91,-171.73 798.25,-161.55 968.43,-131.76"/>
<polygon fill="midnightblue" stroke="midnightblue" points="969.09,-135.2 978.32,-130 967.86,-128.31 969.09,-135.2"/>
</g>
<!-- Node11&#45;&gt;Node17 -->
<g id="edge20" class="edge">
<title>Node11&#45;&gt;Node17</title>
<path fill="none" stroke="midnightblue" d="M392.72,-171.69C317.06,-164.61 183.44,-150.78 70,-132 68.76,-131.79 67.5,-131.58 66.23,-131.35"/>
<polygon fill="midnightblue" stroke="midnightblue" points="66.88,-127.91 56.4,-129.46 65.56,-134.79 66.88,-127.91"/>
</g>
<!-- Node18 -->
<g id="node18" class="node">
<title>Node18</title>
<g id="a_node18"><a xlink:title=" ">
<polygon fill="white" stroke="#bfbfbf" points="266,-112.5 266,-131.5 310,-131.5 310,-112.5 266,-112.5"/>
<text text-anchor="middle" x="288" y="-119.5" font-family="Helvetica,sans-Serif" font-size="10.00">bitset</text>
</a>
</g>
</g>
<!-- Node11&#45;&gt;Node18 -->
<g id="edge21" class="edge">
<title>Node11&#45;&gt;Node18</title>
<path fill="none" stroke="midnightblue" d="M426.86,-168.44C397.75,-158.92 350.71,-143.52 319.57,-133.33"/>
<polygon fill="midnightblue" stroke="midnightblue" points="320.65,-130 310.06,-130.22 318.48,-136.66 320.65,-130"/>
</g>
<!-- Node19 -->
<g id="node19" class="node">
<title>Node19</title>
<g id="a_node19"><a xlink:title=" ">
<polygon fill="white" stroke="#bfbfbf" points="426.5,-112.5 426.5,-131.5 479.5,-131.5 479.5,-112.5 426.5,-112.5"/>
<text text-anchor="middle" x="453" y="-119.5" font-family="Helvetica,sans-Serif" font-size="10.00">string.h</text>
</a>
</g>
</g>
<!-- Node11&#45;&gt;Node19 -->
<g id="edge22" class="edge">
<title>Node11&#45;&gt;Node19</title>
<path fill="none" stroke="midnightblue" d="M453,-168.08C453,-161.01 453,-150.86 453,-141.99"/>
<polygon fill="midnightblue" stroke="midnightblue" points="456.5,-141.75 453,-131.75 449.5,-141.75 456.5,-141.75"/>
</g>
<!-- Node20 -->
<g id="node20" class="node">
<title>Node20</title>
<g id="a_node20"><a xlink:href="../../da/df0/ntv2virtualregisters_8h.html" target="_top" xlink:title="Declares enums for virtual registers used in all platform drivers and the SDK.">
<polygon fill="white" stroke="black" points="498,-112.5 498,-131.5 620,-131.5 620,-112.5 498,-112.5"/>
<text text-anchor="middle" x="559" y="-119.5" font-family="Helvetica,sans-Serif" font-size="10.00">ntv2virtualregisters.h</text>
</a>
</g>
</g>
<!-- Node11&#45;&gt;Node20 -->
<g id="edge24" class="edge">
<title>Node11&#45;&gt;Node20</title>
<path fill="none" stroke="midnightblue" d="M470.03,-168.32C487.03,-159.66 513.38,-146.24 532.99,-136.25"/>
<polygon fill="midnightblue" stroke="midnightblue" points="534.69,-139.31 542.01,-131.65 531.51,-133.08 534.69,-139.31"/>
</g>
<!-- Node12&#45;&gt;Node5 -->
<g id="edge13" class="edge">
<title>Node12&#45;&gt;Node5</title>
<path fill="none" stroke="midnightblue" d="M408.12,-113.26C459.97,-103.26 549.96,-85.91 603.75,-75.53"/>
<polygon fill="midnightblue" stroke="midnightblue" points="604.53,-78.95 613.68,-73.62 603.2,-72.08 604.53,-78.95"/>
</g>
<!-- Node12&#45;&gt;Node7 -->
<g id="edge14" class="edge">
<title>Node12&#45;&gt;Node7</title>
<path fill="none" stroke="midnightblue" d="M334.09,-112.44C297.15,-103.12 237.95,-88.18 197.58,-78"/>
<polygon fill="midnightblue" stroke="midnightblue" points="198.3,-74.57 187.75,-75.52 196.59,-81.36 198.3,-74.57"/>
</g>
<!-- Node20&#45;&gt;Node5 -->
<g id="edge25" class="edge">
<title>Node20&#45;&gt;Node5</title>
<path fill="none" stroke="midnightblue" d="M573.3,-112.32C587.18,-103.9 608.49,-90.97 624.8,-81.07"/>
<polygon fill="midnightblue" stroke="midnightblue" points="627,-83.83 633.74,-75.65 623.37,-77.85 627,-83.83"/>
</g>
<!-- Node22&#45;&gt;Node14 -->
<g id="edge32" class="edge">
<title>Node22&#45;&gt;Node14</title>
<path fill="none" stroke="midnightblue" d="M1008.64,-224.1C997.79,-209.67 974.23,-181.46 947,-168 857.14,-123.59 819.61,-155.5 718.28,-131.83"/>
<polygon fill="midnightblue" stroke="midnightblue" points="718.81,-128.36 708.27,-129.36 717.14,-135.15 718.81,-128.36"/>
</g>
<!-- Node22&#45;&gt;Node21 -->
<g id="edge31" class="edge">
<title>Node22&#45;&gt;Node21</title>
<path fill="none" stroke="midnightblue" d="M998.13,-224.32C981.29,-215.66 955.19,-202.24 935.76,-192.25"/>
<polygon fill="midnightblue" stroke="midnightblue" points="937.32,-189.12 926.83,-187.65 934.12,-195.34 937.32,-189.12"/>
</g>
<!-- Node23 -->
<g id="node23" class="node">
<title>Node23</title>
<g id="a_node23"><a xlink:title=" ">
<polygon fill="white" stroke="#bfbfbf" points="1154,-168.5 1154,-187.5 1204,-187.5 1204,-168.5 1154,-168.5"/>
<text text-anchor="middle" x="1179" y="-175.5" font-family="Helvetica,sans-Serif" font-size="10.00">stdio.h</text>
</a>
</g>
</g>
<!-- Node22&#45;&gt;Node23 -->
<g id="edge30" class="edge">
<title>Node22&#45;&gt;Node23</title>
<path fill="none" stroke="midnightblue" d="M1040.99,-224.44C1068.94,-215.24 1113.53,-200.56 1144.43,-190.38"/>
<polygon fill="midnightblue" stroke="midnightblue" points="1145.54,-193.7 1153.94,-187.25 1143.35,-187.05 1145.54,-193.7"/>
</g>
<!-- Node24 -->
<g id="node24" class="node">
<title>Node24</title>
<g id="a_node24"><a xlink:href="../../d4/d79/public_8h.html" target="_top" xlink:title="Master header for the ajabase library.">
<polygon fill="white" stroke="black" points="994,-168.5 994,-187.5 1136,-187.5 1136,-168.5 994,-168.5"/>
<text text-anchor="middle" x="1065" y="-175.5" font-family="Helvetica,sans-Serif" font-size="10.00">ajabase/common/public.h</text>
</a>
</g>
</g>
<!-- Node22&#45;&gt;Node24 -->
<g id="edge33" class="edge">
<title>Node22&#45;&gt;Node24</title>
<path fill="none" stroke="midnightblue" d="M1023.26,-224.08C1030.46,-216.3 1041.11,-204.8 1049.85,-195.37"/>
<polygon fill="midnightblue" stroke="midnightblue" points="1052.67,-197.47 1056.9,-187.75 1047.53,-192.71 1052.67,-197.47"/>
</g>
<!-- Node27 -->
<g id="node27" class="node">
<title>Node27</title>
<g id="a_node27"><a xlink:href="../../d0/db4/debugshare_8h.html" target="_top" xlink:title="Declares the constants used for sharing debug messages. These structures are used to gather debug mes...">
<polygon fill="white" stroke="black" points="1222.5,-168.5 1222.5,-187.5 1385.5,-187.5 1385.5,-168.5 1222.5,-168.5"/>
<text text-anchor="middle" x="1304" y="-175.5" font-family="Helvetica,sans-Serif" font-size="10.00">ajabase/system/debugshare.h</text>
</a>
</g>
</g>
<!-- Node22&#45;&gt;Node27 -->
<g id="edge40" class="edge">
<title>Node22&#45;&gt;Node27</title>
<path fill="none" stroke="midnightblue" d="M1060.79,-224.44C1111.74,-214.92 1194.03,-199.55 1248.57,-189.36"/>
<polygon fill="midnightblue" stroke="midnightblue" points="1249.23,-192.79 1258.42,-187.52 1247.95,-185.91 1249.23,-192.79"/>
</g>
<!-- Node24&#45;&gt;Node9 -->
<g id="edge35" class="edge">
<title>Node24&#45;&gt;Node9</title>
<path fill="none" stroke="midnightblue" d="M1063.63,-168.22C1060.9,-153.96 1053.4,-125.99 1035,-112 912.77,-19.1 409.04,-11.35 275.58,-10.95"/>
<polygon fill="midnightblue" stroke="midnightblue" points="275.22,-7.45 265.21,-10.93 275.21,-14.45 275.22,-7.45"/>
</g>
<!-- Node24&#45;&gt;Node10 -->
<g id="edge39" class="edge">
<title>Node24&#45;&gt;Node10</title>
<path fill="none" stroke="midnightblue" d="M1037.27,-168.44C1007.57,-159.28 960.28,-144.69 927.33,-134.52"/>
<polygon fill="midnightblue" stroke="midnightblue" points="928.19,-131.12 917.6,-131.52 926.12,-137.81 928.19,-131.12"/>
</g>
<!-- Node24&#45;&gt;Node15 -->
<g id="edge38" class="edge">
<title>Node24&#45;&gt;Node15</title>
<path fill="none" stroke="midnightblue" d="M1014.3,-168.44C946.56,-157.01 828.75,-137.13 774.23,-127.93"/>
<polygon fill="midnightblue" stroke="midnightblue" points="774.64,-124.45 764.2,-126.24 773.48,-131.36 774.64,-124.45"/>
</g>
<!-- Node24&#45;&gt;Node16 -->
<g id="edge37" class="edge">
<title>Node24&#45;&gt;Node16</title>
<path fill="none" stroke="midnightblue" d="M1054.88,-168.32C1045.47,-160.26 1031.26,-148.08 1019.93,-138.37"/>
<polygon fill="midnightblue" stroke="midnightblue" points="1022.18,-135.68 1012.31,-131.83 1017.62,-141 1022.18,-135.68"/>
</g>
<!-- Node25 -->
<g id="node25" class="node">
<title>Node25</title>
<g id="a_node25"><a xlink:href="../../db/db5/export_8h.html" target="_top" xlink:title="Declares system&#45;dependent import/export macros and libraries.">
<polygon fill="white" stroke="black" points="1132,-112.5 1132,-131.5 1276,-131.5 1276,-112.5 1132,-112.5"/>
<text text-anchor="middle" x="1204" y="-119.5" font-family="Helvetica,sans-Serif" font-size="10.00">ajabase/common/export.h</text>
</a>
</g>
</g>
<!-- Node24&#45;&gt;Node25 -->
<g id="edge34" class="edge">
<title>Node24&#45;&gt;Node25</title>
<path fill="none" stroke="midnightblue" d="M1087.02,-168.44C1110.1,-159.48 1146.56,-145.31 1172.64,-135.18"/>
<polygon fill="midnightblue" stroke="midnightblue" points="1174.02,-138.4 1182.08,-131.52 1171.49,-131.88 1174.02,-138.4"/>
</g>
<!-- Node26 -->
<g id="node26" class="node">
<title>Node26</title>
<g id="a_node26"><a xlink:title=" ">
<polygon fill="white" stroke="#bfbfbf" points="1082,-112.5 1082,-131.5 1114,-131.5 1114,-112.5 1082,-112.5"/>
<text text-anchor="middle" x="1098" y="-119.5" font-family="Helvetica,sans-Serif" font-size="10.00">list</text>
</a>
</g>
</g>
<!-- Node24&#45;&gt;Node26 -->
<g id="edge36" class="edge">
<title>Node24&#45;&gt;Node26</title>
<path fill="none" stroke="midnightblue" d="M1070.45,-168.08C1075.01,-160.61 1081.67,-149.72 1087.29,-140.52"/>
<polygon fill="midnightblue" stroke="midnightblue" points="1090.42,-142.11 1092.65,-131.75 1084.45,-138.46 1090.42,-142.11"/>
</g>
<!-- Node27&#45;&gt;Node6 -->
<g id="edge43" class="edge">
<title>Node27&#45;&gt;Node6</title>
<path fill="none" stroke="midnightblue" d="M1308.83,-168.4C1320.36,-146.62 1346.46,-88.7 1318,-56 1281.26,-13.78 1108.63,-9.93 1031.91,-10.37"/>
<polygon fill="midnightblue" stroke="midnightblue" points="1031.71,-6.87 1021.74,-10.46 1031.77,-13.87 1031.71,-6.87"/>
</g>
<!-- Node27&#45;&gt;Node9 -->
<g id="edge44" class="edge">
<title>Node27&#45;&gt;Node9</title>
<path fill="none" stroke="midnightblue" d="M1304.19,-168.32C1304,-154.22 1301.4,-126.46 1285,-112 1166.83,-7.82 1091.55,-73.58 935,-56 681.88,-27.58 374.5,-15.4 275.42,-12.03"/>
<polygon fill="midnightblue" stroke="midnightblue" points="275.29,-8.52 265.18,-11.69 275.05,-15.52 275.29,-8.52"/>
</g>
<!-- Node27&#45;&gt;Node16 -->
<g id="edge45" class="edge">
<title>Node27&#45;&gt;Node16</title>
<path fill="none" stroke="midnightblue" d="M1256.15,-168.44C1194.71,-157.46 1089.64,-138.67 1035.88,-129.06"/>
<polygon fill="midnightblue" stroke="midnightblue" points="1036.29,-125.58 1025.83,-127.26 1035.06,-132.47 1036.29,-125.58"/>
</g>
<!-- Node27&#45;&gt;Node25 -->
<g id="edge41" class="edge">
<title>Node27&#45;&gt;Node25</title>
<path fill="none" stroke="midnightblue" d="M1287.93,-168.32C1272.04,-159.74 1247.49,-146.49 1229.04,-136.52"/>
<polygon fill="midnightblue" stroke="midnightblue" points="1230.49,-133.33 1220.03,-131.65 1227.16,-139.49 1230.49,-133.33"/>
</g>
<!-- Node28 -->
<g id="node28" class="node">
<title>Node28</title>
<g id="a_node28"><a xlink:title=" ">
<polygon fill="white" stroke="#bfbfbf" points="1370,-112.5 1370,-131.5 1426,-131.5 1426,-112.5 1370,-112.5"/>
<text text-anchor="middle" x="1398" y="-119.5" font-family="Helvetica,sans-Serif" font-size="10.00">stddef.h</text>
</a>
</g>
</g>
<!-- Node27&#45;&gt;Node28 -->
<g id="edge42" class="edge">
<title>Node27&#45;&gt;Node28</title>
<path fill="none" stroke="midnightblue" d="M1319.1,-168.32C1333.9,-159.82 1356.69,-146.73 1373.98,-136.8"/>
<polygon fill="midnightblue" stroke="midnightblue" points="1376.01,-139.67 1382.93,-131.65 1372.52,-133.6 1376.01,-139.67"/>
</g>
</g>
</svg>
        <g id="navigator" transform="translate(0 0)" fill="#404254">
                <rect fill="#f2f5e9" fill-opacity="0.5" stroke="#606060" stroke-width=".5" x="0" y="0" width="60" height="60"/>
                <use id="zoomplus" xlink:href="#zoomPlus" x="17" y="9" onmousedown="handleZoom(evt,'in')"/>
                <use id="zoomminus" xlink:href="#zoomMin" x="42" y="9" onmousedown="handleZoom(evt,'out')"/>
                <use id="reset" xlink:href="#resetDef" x="30" y="36" onmousedown="handleReset()"/>
                <g id="arrowUp" xlink:href="#dirArrow" transform="translate(30 24)" onmousedown="handlePan(0,-1)">
                  <use xlink:href="#rim" fill="#404040">
                        <set attributeName="fill" to="#808080" begin="arrowUp.mouseover" end="arrowUp.mouseout"/>
                  </use>
                  <path fill="none" stroke="white" stroke-width="1.5" d="M0,-3.0v7 M-2.5,-0.5L0,-3.0L2.5,-0.5"/>
                </g>
                <g id="arrowRight" xlink:href="#dirArrow" transform="rotate(90) translate(36 -43)" onmousedown="handlePan(1,0)">
                  <use xlink:href="#rim" fill="#404040">
                        <set attributeName="fill" to="#808080" begin="arrowRight.mouseover" end="arrowRight.mouseout"/>
                  </use>
                  <path fill="none" stroke="white" stroke-width="1.5" d="M0,-3.0v7 M-2.5,-0.5L0,-3.0L2.5,-0.5"/>
                </g>
                <g id="arrowDown" xlink:href="#dirArrow" transform="rotate(180) translate(-30 -48)" onmousedown="handlePan(0,1)">
                  <use xlink:href="#rim" fill="#404040">
                        <set attributeName="fill" to="#808080" begin="arrowDown.mouseover" end="arrowDown.mouseout"/>
                  </use>
                  <path fill="none" stroke="white" stroke-width="1.5" d="M0,-3.0v7 M-2.5,-0.5L0,-3.0L2.5,-0.5"/>
                </g>
                <g id="arrowLeft" xlink:href="#dirArrow" transform="rotate(270) translate(-36 17)" onmousedown="handlePan(-1,0)">
                  <use xlink:href="#rim" fill="#404040">
                        <set attributeName="fill" to="#808080" begin="arrowLeft.mouseover" end="arrowLeft.mouseout"/>
                  </use>
                  <path fill="none" stroke="white" stroke-width="1.5" d="M0,-3.0v7 M-2.5,-0.5L0,-3.0L2.5,-0.5"/>
                </g>
        </g>
        <svg viewBox="0 0 15 15" width="100%" height="30px" preserveAspectRatio="xMaxYMin meet">
         <g id="arrow_out" transform="scale(0.3 0.3)">
          <a xlink:href="ancillarydata__cea708_8cpp__incl_org.svg" target="_base">
           <rect id="button" ry="5" rx="5" y="6" x="6" height="38" width="38"
                fill="#f2f5e9" fill-opacity="0.5" stroke="#606060" stroke-width="1.0"/>
           <path id="arrow"
             d="M 11.500037,31.436501 C 11.940474,20.09759 22.043105,11.32322 32.158766,21.979434 L 37.068811,17.246167 C 37.068811,17.246167 37.088388,32 37.088388,32 L 22.160133,31.978069 C 22.160133,31.978069 26.997745,27.140456 26.997745,27.140456 C 18.528582,18.264221 13.291696,25.230495 11.500037,31.436501 z"
             style="fill:#404040;"/>
          </a>
         </g>
        </svg>
</svg>
