<?xml version="1.0" encoding="UTF-8" standalone="no"?>
<!DOCTYPE svg PUBLIC "-//W3C//DTD SVG 1.1//EN"
 "http://www.w3.org/Graphics/SVG/1.1/DTD/svg11.dtd">
<!-- Generated by graphviz version 2.43.0 (0)
 -->
<!-- Title: /home/tcbuilder/buildAgent/work/df8e8cce5bebfd58/libajantv2/ajabase/system/linux/lockimpl.cpp Pages: 1 -->
<!--zoomable 285 -->
<svg id="main" version="1.1" xmlns="http://www.w3.org/2000/svg" xmlns:xlink="http://www.w3.org/1999/xlink" xml:space="preserve" onload="init(evt)">
<style type="text/css"><![CDATA[
.edge:hover path { stroke: red; }
.edge:hover polygon { stroke: red; fill: red; }
]]></style>
<script type="text/javascript"><![CDATA[
var edges = document.getElementsByTagName('g');
if (edges && edges.length) {
  for (var i=0;i<edges.length;i++) {
    if (edges[i].id.substr(0,4)=='edge') {
      edges[i].setAttribute('class','edge');
    }
  }
}
]]></script>
        <defs>
                <circle id="rim" cx="0" cy="0" r="7"/>
                <circle id="rim2" cx="0" cy="0" r="3.5"/>
                <g id="zoomPlus">
                        <use xlink:href="#rim" fill="#404040">
                                <set attributeName="fill" to="#808080" begin="zoomplus.mouseover" end="zoomplus.mouseout"/>
                        </use>
                        <path d="M-4,0h8M0,-4v8" fill="none" stroke="white" stroke-width="1.5" pointer-events="none"/>
                </g>
                <g id="zoomMin">
                        <use xlink:href="#rim" fill="#404040">
                                <set attributeName="fill" to="#808080" begin="zoomminus.mouseover" end="zoomminus.mouseout"/>
                        </use>
                        <path d="M-4,0h8" fill="none" stroke="white" stroke-width="1.5" pointer-events="none"/>
                </g>
                <g id="dirArrow">
                        <path fill="none" stroke="white" stroke-width="1.5" d="M0,-3.0v7 M-2.5,-0.5L0,-3.0L2.5,-0.5"/>
                </g>
               <g id="resetDef">
                       <use xlink:href="#rim2" fill="#404040">
                               <set attributeName="fill" to="#808080" begin="reset.mouseover" end="reset.mouseout"/>
                       </use>
               </g>
        </defs>

<script type="text/javascript">
var viewWidth = 825;
var viewHeight = 285;
var sectionId = 'dynsection-0';
</script>
<script xlink:href="../../svgpan.js"/>
<svg id="graph" class="graph">
<g id="viewport">
<title>/home/tcbuilder/buildAgent/work/df8e8cce5bebfd58/libajantv2/ajabase/system/linux/lockimpl.cpp</title>
<polygon fill="white" stroke="transparent" points="-4,4 -4,-281 820.86,-281 820.86,4 -4,4"/>
<!-- Node1 -->
<g id="node1" class="node">
<title>Node1</title>
<g id="a_node1"><a xlink:title="Implements the AJALockImpl class on the Linux platform.">
<polygon fill="#bfbfbf" stroke="black" points="294.36,-235.5 294.36,-276.5 483.36,-276.5 483.36,-235.5 294.36,-235.5"/>
<text text-anchor="start" x="302.36" y="-264.5" font-family="Helvetica,sans-Serif" font-size="10.00">/home/tcbuilder/buildAgent</text>
<text text-anchor="start" x="302.36" y="-253.5" font-family="Helvetica,sans-Serif" font-size="10.00">/work/df8e8cce5bebfd58/libajantv2</text>
<text text-anchor="middle" x="388.86" y="-242.5" font-family="Helvetica,sans-Serif" font-size="10.00">/ajabase/system/linux/lockimpl.cpp</text>
</a>
</g>
</g>
<!-- Node2 -->
<g id="node2" class="node">
<title>Node2</title>
<g id="a_node2"><a xlink:href="../../d8/df8/linux_2lockimpl_8h.html" target="_top" xlink:title="Declares the AJALockImpl class.">
<polygon fill="white" stroke="black" points="328.36,-168.5 328.36,-198.5 449.36,-198.5 449.36,-168.5 328.36,-168.5"/>
<text text-anchor="start" x="336.36" y="-186.5" font-family="Helvetica,sans-Serif" font-size="10.00">ajabase/system/linux</text>
<text text-anchor="middle" x="388.86" y="-175.5" font-family="Helvetica,sans-Serif" font-size="10.00">/lockimpl.h</text>
</a>
</g>
</g>
<!-- Node1&#45;&gt;Node2 -->
<g id="edge1" class="edge">
<title>Node1&#45;&gt;Node2</title>
<path fill="none" stroke="midnightblue" d="M388.86,-235.36C388.86,-227.23 388.86,-217.7 388.86,-209.11"/>
<polygon fill="midnightblue" stroke="midnightblue" points="392.36,-208.89 388.86,-198.89 385.36,-208.89 392.36,-208.89"/>
</g>
<!-- Node18 -->
<g id="node18" class="node">
<title>Node18</title>
<g id="a_node18"><a xlink:href="../../db/d16/debug_8h.html" target="_top" xlink:title="Declares the AJADebug class.">
<polygon fill="white" stroke="black" points="80.86,-112.5 80.86,-131.5 216.86,-131.5 216.86,-112.5 80.86,-112.5"/>
<text text-anchor="middle" x="148.86" y="-119.5" font-family="Helvetica,sans-Serif" font-size="10.00">ajabase/system/debug.h</text>
</a>
</g>
</g>
<!-- Node1&#45;&gt;Node18 -->
<g id="edge21" class="edge">
<title>Node1&#45;&gt;Node18</title>
<path fill="none" stroke="midnightblue" d="M353.18,-235.38C303.78,-208.21 215.8,-159.82 173.25,-136.41"/>
<polygon fill="midnightblue" stroke="midnightblue" points="174.86,-133.31 164.41,-131.55 171.48,-139.44 174.86,-133.31"/>
</g>
<!-- Node24 -->
<g id="node24" class="node">
<title>Node24</title>
<g id="a_node24"><a xlink:title=" ">
<polygon fill="white" stroke="#bfbfbf" points="467.36,-174 467.36,-193 518.36,-193 518.36,-174 467.36,-174"/>
<text text-anchor="middle" x="492.86" y="-181" font-family="Helvetica,sans-Serif" font-size="10.00">errno.h</text>
</a>
</g>
</g>
<!-- Node1&#45;&gt;Node24 -->
<g id="edge32" class="edge">
<title>Node1&#45;&gt;Node24</title>
<path fill="none" stroke="midnightblue" d="M417.83,-235.36C434.91,-223.78 456.15,-209.39 471.66,-198.87"/>
<polygon fill="midnightblue" stroke="midnightblue" points="473.75,-201.68 480.06,-193.17 469.82,-195.89 473.75,-201.68"/>
</g>
<!-- Node3 -->
<g id="node3" class="node">
<title>Node3</title>
<g id="a_node3"><a xlink:title=" ">
<polygon fill="white" stroke="#bfbfbf" points="312.36,-112.5 312.36,-131.5 375.36,-131.5 375.36,-112.5 312.36,-112.5"/>
<text text-anchor="middle" x="343.86" y="-119.5" font-family="Helvetica,sans-Serif" font-size="10.00">pthread.h</text>
</a>
</g>
</g>
<!-- Node2&#45;&gt;Node3 -->
<g id="edge2" class="edge">
<title>Node2&#45;&gt;Node3</title>
<path fill="none" stroke="midnightblue" d="M378.19,-168.4C371.72,-159.84 363.42,-148.87 356.61,-139.86"/>
<polygon fill="midnightblue" stroke="midnightblue" points="359.23,-137.52 350.4,-131.66 353.64,-141.74 359.23,-137.52"/>
</g>
<!-- Node4 -->
<g id="node4" class="node">
<title>Node4</title>
<g id="a_node4"><a xlink:title=" ">
<polygon fill="white" stroke="#bfbfbf" points="393.86,-112.5 393.86,-131.5 473.86,-131.5 473.86,-112.5 393.86,-112.5"/>
<text text-anchor="middle" x="433.86" y="-119.5" font-family="Helvetica,sans-Serif" font-size="10.00">semaphore.h</text>
</a>
</g>
</g>
<!-- Node2&#45;&gt;Node4 -->
<g id="edge3" class="edge">
<title>Node2&#45;&gt;Node4</title>
<path fill="none" stroke="midnightblue" d="M399.52,-168.4C405.99,-159.84 414.29,-148.87 421.11,-139.86"/>
<polygon fill="midnightblue" stroke="midnightblue" points="424.07,-141.74 427.31,-131.66 418.48,-137.52 424.07,-141.74"/>
</g>
<!-- Node5 -->
<g id="node5" class="node">
<title>Node5</title>
<g id="a_node5"><a xlink:href="../../dc/db2/system_8h.html" target="_top" xlink:title="System specific functions.">
<polygon fill="white" stroke="black" points="491.86,-112.5 491.86,-131.5 633.86,-131.5 633.86,-112.5 491.86,-112.5"/>
<text text-anchor="middle" x="562.86" y="-119.5" font-family="Helvetica,sans-Serif" font-size="10.00">ajabase/system/system.h</text>
</a>
</g>
</g>
<!-- Node2&#45;&gt;Node5 -->
<g id="edge4" class="edge">
<title>Node2&#45;&gt;Node5</title>
<path fill="none" stroke="midnightblue" d="M430.09,-168.4C460.03,-158.16 500.07,-144.47 528.32,-134.81"/>
<polygon fill="midnightblue" stroke="midnightblue" points="529.46,-138.12 537.79,-131.57 527.2,-131.49 529.46,-138.12"/>
</g>
<!-- Node13 -->
<g id="node13" class="node">
<title>Node13</title>
<g id="a_node13"><a xlink:href="../../dc/d54/common_8h.html" target="_top" xlink:title="Private include file for all ajabase sources.">
<polygon fill="white" stroke="black" points="336.36,-56.5 336.36,-75.5 491.36,-75.5 491.36,-56.5 336.36,-56.5"/>
<text text-anchor="middle" x="413.86" y="-63.5" font-family="Helvetica,sans-Serif" font-size="10.00">ajabase/common/common.h</text>
</a>
</g>
</g>
<!-- Node2&#45;&gt;Node13 -->
<g id="edge12" class="edge">
<title>Node2&#45;&gt;Node13</title>
<path fill="none" stroke="midnightblue" d="M348.22,-168.48C318.77,-155.96 286.73,-135.94 302.86,-112 313.84,-95.7 331.84,-85.3 350.19,-78.67"/>
<polygon fill="midnightblue" stroke="midnightblue" points="351.36,-81.97 359.78,-75.53 349.18,-75.31 351.36,-81.97"/>
</g>
<!-- Node16 -->
<g id="node16" class="node">
<title>Node16</title>
<g id="a_node16"><a xlink:href="../../dd/d42/lock_8h.html" target="_top" xlink:title="Declares the AJALock class.">
<polygon fill="white" stroke="black" points="651.86,-112.5 651.86,-131.5 777.86,-131.5 777.86,-112.5 651.86,-112.5"/>
<text text-anchor="middle" x="714.86" y="-119.5" font-family="Helvetica,sans-Serif" font-size="10.00">ajabase/system/lock.h</text>
</a>
</g>
</g>
<!-- Node2&#45;&gt;Node16 -->
<g id="edge18" class="edge">
<title>Node2&#45;&gt;Node16</title>
<path fill="none" stroke="midnightblue" d="M449.41,-169.65C452.27,-169.09 455.09,-168.53 457.86,-168 524.37,-155.19 600.86,-141.99 652.99,-133.23"/>
<polygon fill="midnightblue" stroke="midnightblue" points="653.79,-136.64 663.08,-131.54 652.63,-129.74 653.79,-136.64"/>
</g>
<!-- Node6 -->
<g id="node6" class="node">
<title>Node6</title>
<g id="a_node6"><a xlink:href="../../d4/d79/public_8h.html" target="_top" xlink:title="Master header for the ajabase library.">
<polygon fill="white" stroke="black" points="509.86,-56.5 509.86,-75.5 651.86,-75.5 651.86,-56.5 509.86,-56.5"/>
<text text-anchor="middle" x="580.86" y="-63.5" font-family="Helvetica,sans-Serif" font-size="10.00">ajabase/common/public.h</text>
</a>
</g>
</g>
<!-- Node5&#45;&gt;Node6 -->
<g id="edge5" class="edge">
<title>Node5&#45;&gt;Node6</title>
<path fill="none" stroke="midnightblue" d="M565.83,-112.08C568.24,-104.85 571.72,-94.41 574.72,-85.4"/>
<polygon fill="midnightblue" stroke="midnightblue" points="578.1,-86.34 577.94,-75.75 571.46,-84.13 578.1,-86.34"/>
</g>
<!-- Node7 -->
<g id="node7" class="node">
<title>Node7</title>
<g id="a_node7"><a xlink:href="../../db/db5/export_8h.html" target="_top" xlink:title="Declares system&#45;dependent import/export macros and libraries.">
<polygon fill="white" stroke="black" points="346.86,-0.5 346.86,-19.5 490.86,-19.5 490.86,-0.5 346.86,-0.5"/>
<text text-anchor="middle" x="418.86" y="-7.5" font-family="Helvetica,sans-Serif" font-size="10.00">ajabase/common/export.h</text>
</a>
</g>
</g>
<!-- Node6&#45;&gt;Node7 -->
<g id="edge6" class="edge">
<title>Node6&#45;&gt;Node7</title>
<path fill="none" stroke="midnightblue" d="M555.19,-56.44C527.93,-47.36 484.67,-32.94 454.21,-22.78"/>
<polygon fill="midnightblue" stroke="midnightblue" points="455,-19.36 444.41,-19.52 452.79,-26 455,-19.36"/>
</g>
<!-- Node8 -->
<g id="node8" class="node">
<title>Node8</title>
<g id="a_node8"><a xlink:title=" ">
<polygon fill="white" stroke="#bfbfbf" points="508.86,-0.5 508.86,-19.5 552.86,-19.5 552.86,-0.5 508.86,-0.5"/>
<text text-anchor="middle" x="530.86" y="-7.5" font-family="Helvetica,sans-Serif" font-size="10.00">string</text>
</a>
</g>
</g>
<!-- Node6&#45;&gt;Node8 -->
<g id="edge7" class="edge">
<title>Node6&#45;&gt;Node8</title>
<path fill="none" stroke="midnightblue" d="M572.6,-56.08C565.39,-48.3 554.75,-36.8 546.01,-27.37"/>
<polygon fill="midnightblue" stroke="midnightblue" points="548.32,-24.71 538.96,-19.75 543.18,-29.47 548.32,-24.71"/>
</g>
<!-- Node9 -->
<g id="node9" class="node">
<title>Node9</title>
<g id="a_node9"><a xlink:title=" ">
<polygon fill="white" stroke="#bfbfbf" points="570.86,-0.5 570.86,-19.5 602.86,-19.5 602.86,-0.5 570.86,-0.5"/>
<text text-anchor="middle" x="586.86" y="-7.5" font-family="Helvetica,sans-Serif" font-size="10.00">list</text>
</a>
</g>
</g>
<!-- Node6&#45;&gt;Node9 -->
<g id="edge8" class="edge">
<title>Node6&#45;&gt;Node9</title>
<path fill="none" stroke="midnightblue" d="M581.85,-56.08C582.64,-48.93 583.79,-38.64 584.78,-29.69"/>
<polygon fill="midnightblue" stroke="midnightblue" points="588.26,-30.08 585.88,-19.75 581.3,-29.3 588.26,-30.08"/>
</g>
<!-- Node10 -->
<g id="node10" class="node">
<title>Node10</title>
<g id="a_node10"><a xlink:title=" ">
<polygon fill="white" stroke="#bfbfbf" points="213.36,-0.5 213.36,-19.5 260.36,-19.5 260.36,-0.5 213.36,-0.5"/>
<text text-anchor="middle" x="236.86" y="-7.5" font-family="Helvetica,sans-Serif" font-size="10.00">vector</text>
</a>
</g>
</g>
<!-- Node6&#45;&gt;Node10 -->
<g id="edge9" class="edge">
<title>Node6&#45;&gt;Node10</title>
<path fill="none" stroke="midnightblue" d="M515.19,-56.46C442.58,-46.86 329.16,-31.35 270.52,-19.86"/>
<polygon fill="midnightblue" stroke="midnightblue" points="271.06,-16.4 260.57,-17.84 269.67,-23.26 271.06,-16.4"/>
</g>
<!-- Node11 -->
<g id="node11" class="node">
<title>Node11</title>
<g id="a_node11"><a xlink:title=" ">
<polygon fill="white" stroke="#bfbfbf" points="620.86,-0.5 620.86,-19.5 658.86,-19.5 658.86,-0.5 620.86,-0.5"/>
<text text-anchor="middle" x="639.86" y="-7.5" font-family="Helvetica,sans-Serif" font-size="10.00">map</text>
</a>
</g>
</g>
<!-- Node6&#45;&gt;Node11 -->
<g id="edge10" class="edge">
<title>Node6&#45;&gt;Node11</title>
<path fill="none" stroke="midnightblue" d="M590.34,-56.32C599.06,-48.34 612.2,-36.31 622.75,-26.65"/>
<polygon fill="midnightblue" stroke="midnightblue" points="625.19,-29.17 630.2,-19.83 620.46,-24 625.19,-29.17"/>
</g>
<!-- Node12 -->
<g id="node12" class="node">
<title>Node12</title>
<g id="a_node12"><a xlink:href="../../d9/d49/types_8h.html" target="_top" xlink:title="Declares common types used in the ajabase library.">
<polygon fill="white" stroke="black" points="676.86,-0.5 676.86,-19.5 816.86,-19.5 816.86,-0.5 676.86,-0.5"/>
<text text-anchor="middle" x="746.86" y="-7.5" font-family="Helvetica,sans-Serif" font-size="10.00">ajabase/common/types.h</text>
</a>
</g>
</g>
<!-- Node6&#45;&gt;Node12 -->
<g id="edge11" class="edge">
<title>Node6&#45;&gt;Node12</title>
<path fill="none" stroke="midnightblue" d="M607.16,-56.44C635.21,-47.32 679.8,-32.81 711.04,-22.65"/>
<polygon fill="midnightblue" stroke="midnightblue" points="712.25,-25.94 720.68,-19.52 710.08,-19.28 712.25,-25.94"/>
</g>
<!-- Node13&#45;&gt;Node7 -->
<g id="edge13" class="edge">
<title>Node13&#45;&gt;Node7</title>
<path fill="none" stroke="midnightblue" d="M414.68,-56.08C415.34,-49.01 416.28,-38.86 417.1,-29.99"/>
<polygon fill="midnightblue" stroke="midnightblue" points="420.61,-30.03 418.05,-19.75 413.64,-29.39 420.61,-30.03"/>
</g>
<!-- Node13&#45;&gt;Node8 -->
<g id="edge15" class="edge">
<title>Node13&#45;&gt;Node8</title>
<path fill="none" stroke="midnightblue" d="M432.4,-56.44C451.48,-47.64 481.43,-33.81 503.29,-23.72"/>
<polygon fill="midnightblue" stroke="midnightblue" points="504.79,-26.88 512.4,-19.52 501.86,-20.53 504.79,-26.88"/>
</g>
<!-- Node13&#45;&gt;Node10 -->
<g id="edge16" class="edge">
<title>Node13&#45;&gt;Node10</title>
<path fill="none" stroke="midnightblue" d="M385.81,-56.44C354.45,-46.88 303.69,-31.39 270.29,-21.2"/>
<polygon fill="midnightblue" stroke="midnightblue" points="271.11,-17.79 260.52,-18.22 269.07,-24.49 271.11,-17.79"/>
</g>
<!-- Node14 -->
<g id="node14" class="node">
<title>Node14</title>
<g id="a_node14"><a xlink:title=" ">
<polygon fill="white" stroke="#bfbfbf" points="91.86,-0.5 91.86,-19.5 123.86,-19.5 123.86,-0.5 91.86,-0.5"/>
<text text-anchor="middle" x="107.86" y="-7.5" font-family="Helvetica,sans-Serif" font-size="10.00">set</text>
</a>
</g>
</g>
<!-- Node13&#45;&gt;Node14 -->
<g id="edge14" class="edge">
<title>Node13&#45;&gt;Node14</title>
<path fill="none" stroke="midnightblue" d="M336.13,-56.51C281.71,-49.66 207.28,-38.46 133.99,-19.9"/>
<polygon fill="midnightblue" stroke="midnightblue" points="134.68,-16.46 124.13,-17.35 132.93,-23.24 134.68,-16.46"/>
</g>
<!-- Node15 -->
<g id="node15" class="node">
<title>Node15</title>
<g id="a_node15"><a xlink:title=" ">
<polygon fill="white" stroke="#bfbfbf" points="278.86,-0.5 278.86,-19.5 328.86,-19.5 328.86,-0.5 278.86,-0.5"/>
<text text-anchor="middle" x="303.86" y="-7.5" font-family="Helvetica,sans-Serif" font-size="10.00">cstdint</text>
</a>
</g>
</g>
<!-- Node13&#45;&gt;Node15 -->
<g id="edge17" class="edge">
<title>Node13&#45;&gt;Node15</title>
<path fill="none" stroke="midnightblue" d="M396.18,-56.32C378.46,-47.62 350.95,-34.12 330.57,-24.11"/>
<polygon fill="midnightblue" stroke="midnightblue" points="332,-20.92 321.49,-19.65 328.92,-27.2 332,-20.92"/>
</g>
<!-- Node16&#45;&gt;Node6 -->
<g id="edge19" class="edge">
<title>Node16&#45;&gt;Node6</title>
<path fill="none" stroke="midnightblue" d="M693.62,-112.44C671.47,-103.52 636.54,-89.44 611.42,-79.32"/>
<polygon fill="midnightblue" stroke="midnightblue" points="612.57,-76.01 601.99,-75.52 609.96,-82.5 612.57,-76.01"/>
</g>
<!-- Node17 -->
<g id="node17" class="node">
<title>Node17</title>
<g id="a_node17"><a xlink:title=" ">
<polygon fill="white" stroke="#bfbfbf" points="686.86,-56.5 686.86,-75.5 742.86,-75.5 742.86,-56.5 686.86,-56.5"/>
<text text-anchor="middle" x="714.86" y="-63.5" font-family="Helvetica,sans-Serif" font-size="10.00">assert.h</text>
</a>
</g>
</g>
<!-- Node16&#45;&gt;Node17 -->
<g id="edge20" class="edge">
<title>Node16&#45;&gt;Node17</title>
<path fill="none" stroke="midnightblue" d="M714.86,-112.08C714.86,-105.01 714.86,-94.86 714.86,-85.99"/>
<polygon fill="midnightblue" stroke="midnightblue" points="718.36,-85.75 714.86,-75.75 711.36,-85.75 718.36,-85.75"/>
</g>
<!-- Node18&#45;&gt;Node6 -->
<g id="edge25" class="edge">
<title>Node18&#45;&gt;Node6</title>
<path fill="none" stroke="midnightblue" d="M217.31,-112.44C294.88,-102.75 421.09,-86.97 502.53,-76.79"/>
<polygon fill="midnightblue" stroke="midnightblue" points="503.24,-80.23 512.72,-75.52 502.37,-73.28 503.24,-80.23"/>
</g>
<!-- Node18&#45;&gt;Node14 -->
<g id="edge24" class="edge">
<title>Node18&#45;&gt;Node14</title>
<path fill="none" stroke="midnightblue" d="M80.58,-117.08C52.11,-111.66 21.6,-100.09 3.86,-76 -1.42,-68.84 -1.02,-63.43 3.86,-56 8.45,-49.01 52.78,-31.47 82.07,-20.46"/>
<polygon fill="midnightblue" stroke="midnightblue" points="83.56,-23.64 91.71,-16.87 81.11,-17.08 83.56,-23.64"/>
</g>
<!-- Node19 -->
<g id="node19" class="node">
<title>Node19</title>
<g id="a_node19"><a xlink:title=" ">
<polygon fill="white" stroke="#bfbfbf" points="12.86,-56.5 12.86,-75.5 62.86,-75.5 62.86,-56.5 12.86,-56.5"/>
<text text-anchor="middle" x="37.86" y="-63.5" font-family="Helvetica,sans-Serif" font-size="10.00">stdio.h</text>
</a>
</g>
</g>
<!-- Node18&#45;&gt;Node19 -->
<g id="edge22" class="edge">
<title>Node18&#45;&gt;Node19</title>
<path fill="none" stroke="midnightblue" d="M131.02,-112.32C113.14,-103.62 85.38,-90.12 64.81,-80.11"/>
<polygon fill="midnightblue" stroke="midnightblue" points="66.17,-76.88 55.65,-75.65 63.11,-83.18 66.17,-76.88"/>
</g>
<!-- Node20 -->
<g id="node20" class="node">
<title>Node20</title>
<g id="a_node20"><a xlink:title=" ">
<polygon fill="white" stroke="#bfbfbf" points="80.86,-56.5 80.86,-75.5 136.86,-75.5 136.86,-56.5 80.86,-56.5"/>
<text text-anchor="middle" x="108.86" y="-63.5" font-family="Helvetica,sans-Serif" font-size="10.00">sstream</text>
</a>
</g>
</g>
<!-- Node18&#45;&gt;Node20 -->
<g id="edge23" class="edge">
<title>Node18&#45;&gt;Node20</title>
<path fill="none" stroke="midnightblue" d="M142.25,-112.08C136.6,-104.46 128.31,-93.26 121.4,-83.94"/>
<polygon fill="midnightblue" stroke="midnightblue" points="124.1,-81.7 115.34,-75.75 118.48,-85.87 124.1,-81.7"/>
</g>
<!-- Node21 -->
<g id="node21" class="node">
<title>Node21</title>
<g id="a_node21"><a xlink:href="../../d0/db4/debugshare_8h.html" target="_top" xlink:title="Declares the constants used for sharing debug messages. These structures are used to gather debug mes...">
<polygon fill="white" stroke="black" points="155.36,-56.5 155.36,-75.5 318.36,-75.5 318.36,-56.5 155.36,-56.5"/>
<text text-anchor="middle" x="236.86" y="-63.5" font-family="Helvetica,sans-Serif" font-size="10.00">ajabase/system/debugshare.h</text>
</a>
</g>
</g>
<!-- Node18&#45;&gt;Node21 -->
<g id="edge26" class="edge">
<title>Node18&#45;&gt;Node21</title>
<path fill="none" stroke="midnightblue" d="M162.99,-112.32C176.72,-103.9 197.79,-90.97 213.92,-81.07"/>
<polygon fill="midnightblue" stroke="midnightblue" points="216.06,-83.87 222.75,-75.65 212.4,-77.9 216.06,-83.87"/>
</g>
<!-- Node21&#45;&gt;Node7 -->
<g id="edge27" class="edge">
<title>Node21&#45;&gt;Node7</title>
<path fill="none" stroke="midnightblue" d="M265.69,-56.44C296.71,-47.24 346.19,-32.56 380.47,-22.39"/>
<polygon fill="midnightblue" stroke="midnightblue" points="381.56,-25.72 390.15,-19.52 379.57,-19.01 381.56,-25.72"/>
</g>
<!-- Node21&#45;&gt;Node8 -->
<g id="edge30" class="edge">
<title>Node21&#45;&gt;Node8</title>
<path fill="none" stroke="midnightblue" d="M298.36,-56.49C349.61,-48.94 424.67,-36.82 498.63,-20.08"/>
<polygon fill="midnightblue" stroke="midnightblue" points="499.62,-23.44 508.58,-17.79 498.05,-16.62 499.62,-23.44"/>
</g>
<!-- Node21&#45;&gt;Node10 -->
<g id="edge31" class="edge">
<title>Node21&#45;&gt;Node10</title>
<path fill="none" stroke="midnightblue" d="M236.86,-56.08C236.86,-49.01 236.86,-38.86 236.86,-29.99"/>
<polygon fill="midnightblue" stroke="midnightblue" points="240.36,-29.75 236.86,-19.75 233.36,-29.75 240.36,-29.75"/>
</g>
<!-- Node22 -->
<g id="node22" class="node">
<title>Node22</title>
<g id="a_node22"><a xlink:title=" ">
<polygon fill="white" stroke="#bfbfbf" points="17.86,-0.5 17.86,-19.5 73.86,-19.5 73.86,-0.5 17.86,-0.5"/>
<text text-anchor="middle" x="45.86" y="-7.5" font-family="Helvetica,sans-Serif" font-size="10.00">stddef.h</text>
</a>
</g>
</g>
<!-- Node21&#45;&gt;Node22 -->
<g id="edge28" class="edge">
<title>Node21&#45;&gt;Node22</title>
<path fill="none" stroke="midnightblue" d="M206.59,-56.44C173.32,-47.04 119.83,-31.91 83.78,-21.72"/>
<polygon fill="midnightblue" stroke="midnightblue" points="84.69,-18.34 74.11,-18.99 82.78,-25.08 84.69,-18.34"/>
</g>
<!-- Node23 -->
<g id="node23" class="node">
<title>Node23</title>
<g id="a_node23"><a xlink:title=" ">
<polygon fill="white" stroke="#bfbfbf" points="142.36,-0.5 142.36,-19.5 195.36,-19.5 195.36,-0.5 142.36,-0.5"/>
<text text-anchor="middle" x="168.86" y="-7.5" font-family="Helvetica,sans-Serif" font-size="10.00">stdint.h</text>
</a>
</g>
</g>
<!-- Node21&#45;&gt;Node23 -->
<g id="edge29" class="edge">
<title>Node21&#45;&gt;Node23</title>
<path fill="none" stroke="midnightblue" d="M225.93,-56.32C215.68,-48.18 200.14,-35.84 187.86,-26.09"/>
<polygon fill="midnightblue" stroke="midnightblue" points="189.99,-23.31 179.98,-19.83 185.63,-28.79 189.99,-23.31"/>
</g>
</g>
</svg>
        <g id="navigator" transform="translate(0 0)" fill="#404254">
                <rect fill="#f2f5e9" fill-opacity="0.5" stroke="#606060" stroke-width=".5" x="0" y="0" width="60" height="60"/>
                <use id="zoomplus" xlink:href="#zoomPlus" x="17" y="9" onmousedown="handleZoom(evt,'in')"/>
                <use id="zoomminus" xlink:href="#zoomMin" x="42" y="9" onmousedown="handleZoom(evt,'out')"/>
                <use id="reset" xlink:href="#resetDef" x="30" y="36" onmousedown="handleReset()"/>
                <g id="arrowUp" xlink:href="#dirArrow" transform="translate(30 24)" onmousedown="handlePan(0,-1)">
                  <use xlink:href="#rim" fill="#404040">
                        <set attributeName="fill" to="#808080" begin="arrowUp.mouseover" end="arrowUp.mouseout"/>
                  </use>
                  <path fill="none" stroke="white" stroke-width="1.5" d="M0,-3.0v7 M-2.5,-0.5L0,-3.0L2.5,-0.5"/>
                </g>
                <g id="arrowRight" xlink:href="#dirArrow" transform="rotate(90) translate(36 -43)" onmousedown="handlePan(1,0)">
                  <use xlink:href="#rim" fill="#404040">
                        <set attributeName="fill" to="#808080" begin="arrowRight.mouseover" end="arrowRight.mouseout"/>
                  </use>
                  <path fill="none" stroke="white" stroke-width="1.5" d="M0,-3.0v7 M-2.5,-0.5L0,-3.0L2.5,-0.5"/>
                </g>
                <g id="arrowDown" xlink:href="#dirArrow" transform="rotate(180) translate(-30 -48)" onmousedown="handlePan(0,1)">
                  <use xlink:href="#rim" fill="#404040">
                        <set attributeName="fill" to="#808080" begin="arrowDown.mouseover" end="arrowDown.mouseout"/>
                  </use>
                  <path fill="none" stroke="white" stroke-width="1.5" d="M0,-3.0v7 M-2.5,-0.5L0,-3.0L2.5,-0.5"/>
                </g>
                <g id="arrowLeft" xlink:href="#dirArrow" transform="rotate(270) translate(-36 17)" onmousedown="handlePan(-1,0)">
                  <use xlink:href="#rim" fill="#404040">
                        <set attributeName="fill" to="#808080" begin="arrowLeft.mouseover" end="arrowLeft.mouseout"/>
                  </use>
                  <path fill="none" stroke="white" stroke-width="1.5" d="M0,-3.0v7 M-2.5,-0.5L0,-3.0L2.5,-0.5"/>
                </g>
        </g>
        <svg viewBox="0 0 15 15" width="100%" height="30px" preserveAspectRatio="xMaxYMin meet">
         <g id="arrow_out" transform="scale(0.3 0.3)">
          <a xlink:href="linux_2lockimpl_8cpp__incl_org.svg" target="_base">
           <rect id="button" ry="5" rx="5" y="6" x="6" height="38" width="38"
                fill="#f2f5e9" fill-opacity="0.5" stroke="#606060" stroke-width="1.0"/>
           <path id="arrow"
             d="M 11.500037,31.436501 C 11.940474,20.09759 22.043105,11.32322 32.158766,21.979434 L 37.068811,17.246167 C 37.068811,17.246167 37.088388,32 37.088388,32 L 22.160133,31.978069 C 22.160133,31.978069 26.997745,27.140456 26.997745,27.140456 C 18.528582,18.264221 13.291696,25.230495 11.500037,31.436501 z"
             style="fill:#404040;"/>
          </a>
         </g>
        </svg>
</svg>
