<?xml version="1.0" encoding="UTF-8" standalone="no"?>
<!DOCTYPE svg PUBLIC "-//W3C//DTD SVG 1.1//EN"
 "http://www.w3.org/Graphics/SVG/1.1/DTD/svg11.dtd">
<!-- Generated by graphviz version 2.40.1 (0)
 -->
<!-- Title: CTransInPlaceOutputPin Pages: 1 -->
<!--zoomable 557 -->
<svg id="main" version="1.1" xmlns="http://www.w3.org/2000/svg" xmlns:xlink="http://www.w3.org/1999/xlink" xml:space="preserve" onload="init(evt)">
<style type="text/css"><![CDATA[
.edge:hover path { stroke: red; }
.edge:hover polygon { stroke: red; fill: red; }
]]></style>
<script type="text/javascript"><![CDATA[
var edges = document.getElementsByTagName('g');
if (edges && edges.length) {
  for (var i=0;i<edges.length;i++) {
    if (edges[i].id.substr(0,4)=='edge') {
      edges[i].setAttribute('class','edge');
    }
  }
}
]]></script>
        <defs>
                <circle id="rim" cx="0" cy="0" r="7"/>
                <circle id="rim2" cx="0" cy="0" r="3.5"/>
                <g id="zoomPlus">
                        <use xlink:href="#rim" fill="#404040">
                                <set attributeName="fill" to="#808080" begin="zoomplus.mouseover" end="zoomplus.mouseout"/>
                        </use>
                        <path d="M-4,0h8M0,-4v8" fill="none" stroke="white" stroke-width="1.5" pointer-events="none"/>
                </g>
                <g id="zoomMin">
                        <use xlink:href="#rim" fill="#404040">
                                <set attributeName="fill" to="#808080" begin="zoomminus.mouseover" end="zoomminus.mouseout"/>
                        </use>
                        <path d="M-4,0h8" fill="none" stroke="white" stroke-width="1.5" pointer-events="none"/>
                </g>
                <g id="dirArrow">
                        <path fill="none" stroke="white" stroke-width="1.5" d="M0,-3.0v7 M-2.5,-0.5L0,-3.0L2.5,-0.5"/>
                </g>
               <g id="resetDef">
                       <use xlink:href="#rim2" fill="#404040">
                               <set attributeName="fill" to="#808080" begin="reset.mouseover" end="reset.mouseout"/>
                       </use>
               </g>
        </defs>

<script type="text/javascript">
var viewWidth = 646;
var viewHeight = 557;
var sectionId = 'dynsection-1';
</script>
<script xlink:href="../../svgpan.js"/>
<svg id="graph" class="graph">
<g id="viewport">
<title>CTransInPlaceOutputPin</title>
<polygon fill="#ffffff" stroke="transparent" points="-4,4 -4,-553 642,-553 642,4 -4,4"/>
<!-- Node9 -->
<g id="node1" class="node">
<title>Node9</title>
<polygon fill="#bfbfbf" stroke="#000000" points="207.5,-.5 207.5,-19.5 332.5,-19.5 332.5,-.5 207.5,-.5"/>
<text text-anchor="middle" x="270" y="-7.5" font-family="Helvetica,sans-Serif" font-size="10.00" fill="#000000">CTransInPlaceOutputPin</text>
</g>
<!-- Node10 -->
<g id="node2" class="node">
<title>Node10</title>
<g id="a_node2"><a xlink:href="../../d1/d80/class_c_transform_output_pin.html" target="_top" xlink:title="CTransformOutputPin">
<polygon fill="#ffffff" stroke="#000000" points="242.5,-201.5 242.5,-220.5 353.5,-220.5 353.5,-201.5 242.5,-201.5"/>
<text text-anchor="middle" x="298" y="-208.5" font-family="Helvetica,sans-Serif" font-size="10.00" fill="#000000">CTransformOutputPin</text>
</a>
</g>
</g>
<!-- Node10&#45;&gt;Node9 -->
<g id="edge1" class="edge">
<title>Node10&#45;&gt;Node9</title>
<path fill="none" stroke="#191970" d="M283.0436,-193.136C281.0174,-189.9278 279.2192,-186.4894 278,-183 257.3716,-123.9611 264.9831,-46.6534 268.5626,-19.7386"/>
<polygon fill="#191970" stroke="#191970" points="280.3543,-195.389 289.0657,-201.419 286.0161,-191.2726 280.3543,-195.389"/>
</g>
<!-- Node25 -->
<g id="node17" class="node">
<title>Node25</title>
<g id="a_node17"><a xlink:href="../../db/d30/class_c_transform_filter.html" target="_top" xlink:title="CTransformFilter">
<polygon fill="#ffffff" stroke="#000000" points="353.5,-134.5 353.5,-153.5 442.5,-153.5 442.5,-134.5 353.5,-134.5"/>
<text text-anchor="middle" x="398" y="-141.5" font-family="Helvetica,sans-Serif" font-size="10.00" fill="#000000">CTransformFilter</text>
</a>
</g>
</g>
<!-- Node10&#45;&gt;Node25 -->
<g id="edge21" class="edge">
<title>Node10&#45;&gt;Node25</title>
<path fill="none" stroke="#9a32cd" stroke-dasharray="5,2" d="M285.6978,-192.5935C282.6389,-185.6043 281.3842,-177.9118 286,-172 294.4492,-161.1784 325.9311,-153.9203 353.3736,-149.5109"/>
<polygon fill="#9a32cd" stroke="#9a32cd" points="282.6988,-194.4027 290.6055,-201.455 288.8224,-191.0113 282.6988,-194.4027"/>
<text text-anchor="middle" x="312" y="-175" font-family="Helvetica,sans-Serif" font-size="10.00" fill="#000000"> m_pOutput</text>
</g>
<!-- Node11 -->
<g id="node3" class="node">
<title>Node11</title>
<g id="a_node3"><a xlink:href="../../dc/d8e/class_c_base_output_pin.html" target="_top" xlink:title="CBaseOutputPin">
<polygon fill="#ffffff" stroke="#000000" points="261,-258.5 261,-277.5 351,-277.5 351,-258.5 261,-258.5"/>
<text text-anchor="middle" x="306" y="-265.5" font-family="Helvetica,sans-Serif" font-size="10.00" fill="#000000">CBaseOutputPin</text>
</a>
</g>
</g>
<!-- Node11&#45;&gt;Node10 -->
<g id="edge2" class="edge">
<title>Node11&#45;&gt;Node10</title>
<path fill="none" stroke="#191970" d="M303.2259,-248.2342C301.9086,-238.8491 300.3951,-228.0651 299.337,-220.5265"/>
<polygon fill="#191970" stroke="#191970" points="299.7869,-248.9143 304.6429,-258.3307 306.719,-247.9413 299.7869,-248.9143"/>
</g>
<!-- Node12 -->
<g id="node4" class="node">
<title>Node12</title>
<g id="a_node4"><a xlink:href="../../d8/d75/class_c_base_pin.html" target="_top" xlink:title="CBasePin">
<polygon fill="#ffffff" stroke="#000000" points="266.5,-336.5 266.5,-355.5 327.5,-355.5 327.5,-336.5 266.5,-336.5"/>
<text text-anchor="middle" x="297" y="-343.5" font-family="Helvetica,sans-Serif" font-size="10.00" fill="#000000">CBasePin</text>
</a>
</g>
</g>
<!-- Node12&#45;&gt;Node11 -->
<g id="edge3" class="edge">
<title>Node12&#45;&gt;Node11</title>
<path fill="none" stroke="#191970" d="M299.2746,-326.2866C301.0685,-310.7395 303.493,-289.7276 304.8874,-277.6426"/>
<polygon fill="#191970" stroke="#191970" points="295.773,-326.1004 298.1036,-336.4357 302.7268,-326.9028 295.773,-326.1004"/>
</g>
<!-- Node27 -->
<g id="node19" class="node">
<title>Node27</title>
<g id="a_node19"><a xlink:href="../../d6/d58/class_c_base_input_pin.html" target="_top" xlink:title="CBaseInputPin">
<polygon fill="#ffffff" stroke="#000000" points="159.5,-258.5 159.5,-277.5 242.5,-277.5 242.5,-258.5 159.5,-258.5"/>
<text text-anchor="middle" x="201" y="-265.5" font-family="Helvetica,sans-Serif" font-size="10.00" fill="#000000">CBaseInputPin</text>
</a>
</g>
</g>
<!-- Node12&#45;&gt;Node27 -->
<g id="edge24" class="edge">
<title>Node12&#45;&gt;Node27</title>
<path fill="none" stroke="#191970" d="M277.3273,-330.0159C257.9456,-314.2683 228.9692,-290.7249 212.8678,-277.6426"/>
<polygon fill="#191970" stroke="#191970" points="275.2603,-332.8461 285.2285,-336.4357 279.6744,-327.4133 275.2603,-332.8461"/>
</g>
<!-- Node13 -->
<g id="node5" class="node">
<title>Node13</title>
<g id="a_node5"><a xlink:href="../../d9/d89/class_c_unknown.html" target="_top" xlink:title="CUnknown">
<polygon fill="#ffffff" stroke="#000000" points="264.5,-472.5 264.5,-491.5 329.5,-491.5 329.5,-472.5 264.5,-472.5"/>
<text text-anchor="middle" x="297" y="-479.5" font-family="Helvetica,sans-Serif" font-size="10.00" fill="#000000">CUnknown</text>
</a>
</g>
</g>
<!-- Node13&#45;&gt;Node12 -->
<g id="edge4" class="edge">
<title>Node13&#45;&gt;Node12</title>
<path fill="none" stroke="#191970" d="M297,-461.8273C297,-432.1238 297,-377.7584 297,-355.6922"/>
<polygon fill="#191970" stroke="#191970" points="293.5001,-462.2192 297,-472.2192 300.5001,-462.2192 293.5001,-462.2192"/>
</g>
<!-- Node22 -->
<g id="node14" class="node">
<title>Node22</title>
<g id="a_node14"><a xlink:href="../../d5/d74/class_c_base_filter.html" target="_top" xlink:title="CBaseFilter">
<polygon fill="#ffffff" stroke="#000000" points="377,-404.5 377,-423.5 445,-423.5 445,-404.5 377,-404.5"/>
<text text-anchor="middle" x="411" y="-411.5" font-family="Helvetica,sans-Serif" font-size="10.00" fill="#000000">CBaseFilter</text>
</a>
</g>
</g>
<!-- Node13&#45;&gt;Node22 -->
<g id="edge14" class="edge">
<title>Node13&#45;&gt;Node22</title>
<path fill="none" stroke="#191970" d="M322.2171,-466.9582C344.4525,-453.695 376.1724,-434.7744 395.0644,-423.5054"/>
<polygon fill="#191970" stroke="#191970" points="320.1286,-464.1286 313.3334,-472.2573 323.7146,-470.1403 320.1286,-464.1286"/>
</g>
<!-- Node14 -->
<g id="node6" class="node">
<title>Node14</title>
<polygon fill="#ffffff" stroke="#bfbfbf" points="175.5,-529.5 175.5,-548.5 300.5,-548.5 300.5,-529.5 175.5,-529.5"/>
<text text-anchor="middle" x="238" y="-536.5" font-family="Helvetica,sans-Serif" font-size="10.00" fill="#000000">INonDelegatingUnknown</text>
</g>
<!-- Node14&#45;&gt;Node13 -->
<g id="edge5" class="edge">
<title>Node14&#45;&gt;Node13</title>
<path fill="none" stroke="#191970" d="M255.3491,-522.239C265.7075,-512.2317 278.488,-499.8845 287.1393,-491.5265"/>
<polygon fill="#191970" stroke="#191970" points="252.7686,-519.8654 248.0085,-529.3307 257.6323,-524.8998 252.7686,-519.8654"/>
</g>
<!-- Node15 -->
<g id="node7" class="node">
<title>Node15</title>
<g id="a_node7"><a xlink:href="../../d1/d2d/class_c_base_object.html" target="_top" xlink:title="CBaseObject">
<polygon fill="#ffffff" stroke="#000000" points="318.5,-529.5 318.5,-548.5 393.5,-548.5 393.5,-529.5 318.5,-529.5"/>
<text text-anchor="middle" x="356" y="-536.5" font-family="Helvetica,sans-Serif" font-size="10.00" fill="#000000">CBaseObject</text>
</a>
</g>
</g>
<!-- Node15&#45;&gt;Node13 -->
<g id="edge6" class="edge">
<title>Node15&#45;&gt;Node13</title>
<path fill="none" stroke="#191970" d="M338.6509,-522.239C328.2925,-512.2317 315.512,-499.8845 306.8607,-491.5265"/>
<polygon fill="#191970" stroke="#191970" points="336.3677,-524.8998 345.9915,-529.3307 341.2314,-519.8654 336.3677,-524.8998"/>
</g>
<!-- Node16 -->
<g id="node8" class="node">
<title>Node16</title>
<polygon fill="#ffffff" stroke="#bfbfbf" points="325,-404.5 325,-423.5 359,-423.5 359,-404.5 325,-404.5"/>
<text text-anchor="middle" x="342" y="-411.5" font-family="Helvetica,sans-Serif" font-size="10.00" fill="#000000">IPin</text>
</g>
<!-- Node16&#45;&gt;Node12 -->
<g id="edge7" class="edge">
<title>Node16&#45;&gt;Node12</title>
<path fill="none" stroke="#191970" d="M329.8972,-395.7114C321.3798,-382.8406 310.3143,-366.1194 303.4354,-355.7247"/>
<polygon fill="#191970" stroke="#191970" points="327.1151,-397.8495 335.5526,-404.2573 332.9527,-393.9864 327.1151,-397.8495"/>
</g>
<!-- Node17 -->
<g id="node9" class="node">
<title>Node17</title>
<polygon fill="#ffffff" stroke="#bfbfbf" points="0,-404.5 0,-423.5 82,-423.5 82,-404.5 0,-404.5"/>
<text text-anchor="middle" x="41" y="-411.5" font-family="Helvetica,sans-Serif" font-size="10.00" fill="#000000">IQualityControl</text>
</g>
<!-- Node17&#45;&gt;Node12 -->
<g id="edge8" class="edge">
<title>Node17&#45;&gt;Node12</title>
<path fill="none" stroke="#191970" d="M72.8948,-400.6629C94.3813,-392.0857 123.5259,-381.2324 150,-374 192.7187,-362.3297 204.5252,-364.4279 248,-356 253.9665,-354.8433 260.3337,-353.5715 266.4364,-352.3341"/>
<polygon fill="#191970" stroke="#191970" points="71.557,-397.4285 63.5986,-404.4224 74.1814,-403.9179 71.557,-397.4285"/>
</g>
<!-- Node18 -->
<g id="node10" class="node">
<title>Node18</title>
<g id="a_node10"><a xlink:href="../../dc/da7/class_c_ref_time.html" target="_top" xlink:title="CRefTime">
<polygon fill="#ffffff" stroke="#000000" points="184,-472.5 184,-491.5 246,-491.5 246,-472.5 184,-472.5"/>
<text text-anchor="middle" x="215" y="-479.5" font-family="Helvetica,sans-Serif" font-size="10.00" fill="#000000">CRefTime</text>
</a>
</g>
</g>
<!-- Node18&#45;&gt;Node12 -->
<g id="edge9" class="edge">
<title>Node18&#45;&gt;Node12</title>
<path fill="none" stroke="#9a32cd" stroke-dasharray="5,2" d="M222.8521,-462.882C229.8887,-446.5089 240.9368,-422.5496 253,-403 263.8975,-385.3396 279.163,-366.6157 288.5497,-355.6332"/>
<polygon fill="#9a32cd" stroke="#9a32cd" points="219.4897,-461.8487 218.8371,-472.4234 225.9418,-464.5638 219.4897,-461.8487"/>
<text text-anchor="middle" x="273" y="-417" font-family="Helvetica,sans-Serif" font-size="10.00" fill="#000000"> m_tStop</text>
<text text-anchor="middle" x="273" y="-406" font-family="Helvetica,sans-Serif" font-size="10.00" fill="#000000">m_tStart</text>
</g>
<!-- Node18&#45;&gt;Node22 -->
<g id="edge17" class="edge">
<title>Node18&#45;&gt;Node22</title>
<path fill="none" stroke="#9a32cd" stroke-dasharray="5,2" d="M243.2353,-467.9472C260.0314,-459.942 281.9164,-450.1207 302,-443 309.1518,-440.4643 347.6018,-430.368 376.828,-422.7961"/>
<polygon fill="#9a32cd" stroke="#9a32cd" points="241.4673,-464.9143 233.9862,-472.4166 244.5129,-471.217 241.4673,-464.9143"/>
<text text-anchor="middle" x="322.5" y="-446" font-family="Helvetica,sans-Serif" font-size="10.00" fill="#000000"> m_tStart</text>
</g>
<!-- Node19 -->
<g id="node11" class="node">
<title>Node19</title>
<g id="a_node11"><a xlink:href="../../d7/da7/class_c_media_type.html" target="_top" xlink:title="CMediaType">
<polygon fill="#ffffff" stroke="#000000" points="100.5,-404.5 100.5,-423.5 171.5,-423.5 171.5,-404.5 100.5,-404.5"/>
<text text-anchor="middle" x="136" y="-411.5" font-family="Helvetica,sans-Serif" font-size="10.00" fill="#000000">CMediaType</text>
</a>
</g>
</g>
<!-- Node19&#45;&gt;Node12 -->
<g id="edge10" class="edge">
<title>Node19&#45;&gt;Node12</title>
<path fill="none" stroke="#9a32cd" stroke-dasharray="5,2" d="M145.979,-395.3088C151.0036,-387.5974 157.7853,-379.253 166,-374 168.1369,-372.6335 228.2276,-360.1202 266.272,-352.2912"/>
<polygon fill="#9a32cd" stroke="#9a32cd" points="142.8268,-393.763 140.7432,-404.1509 148.85,-397.3296 142.8268,-393.763"/>
<text text-anchor="middle" x="180" y="-377" font-family="Helvetica,sans-Serif" font-size="10.00" fill="#000000"> m_mt</text>
</g>
<!-- Node20 -->
<g id="node12" class="node">
<title>Node20</title>
<polygon fill="#ffffff" stroke="#bfbfbf" points="82,-472.5 82,-491.5 166,-491.5 166,-472.5 82,-472.5"/>
<text text-anchor="middle" x="124" y="-479.5" font-family="Helvetica,sans-Serif" font-size="10.00" fill="#000000">_AMMediaType</text>
</g>
<!-- Node20&#45;&gt;Node19 -->
<g id="edge11" class="edge">
<title>Node20&#45;&gt;Node19</title>
<path fill="none" stroke="#191970" d="M127.495,-462.1951C129.7262,-449.5514 132.5208,-433.7157 134.2839,-423.7247"/>
<polygon fill="#191970" stroke="#191970" points="124.0105,-461.8011 125.7193,-472.2573 130.904,-463.0177 124.0105,-461.8011"/>
</g>
<!-- Node21 -->
<g id="node13" class="node">
<title>Node21</title>
<g id="a_node13"><a xlink:href="../../d5/d24/class_c_crit_sec.html" target="_top" xlink:title="CCritSec">
<polygon fill="#ffffff" stroke="#000000" points="526.5,-472.5 526.5,-491.5 583.5,-491.5 583.5,-472.5 526.5,-472.5"/>
<text text-anchor="middle" x="555" y="-479.5" font-family="Helvetica,sans-Serif" font-size="10.00" fill="#000000">CCritSec</text>
</a>
</g>
</g>
<!-- Node21&#45;&gt;Node12 -->
<g id="edge12" class="edge">
<title>Node21&#45;&gt;Node12</title>
<path fill="none" stroke="#9a32cd" stroke-dasharray="5,2" d="M537.8806,-465.2212C512.0523,-440.9537 460.5324,-396.508 408,-374 381.8764,-362.8071 350.3027,-355.382 327.5191,-351.0079"/>
<polygon fill="#9a32cd" stroke="#9a32cd" points="535.6832,-467.9624 545.3323,-472.3379 540.5178,-462.9001 535.6832,-467.9624"/>
<text text-anchor="middle" x="510.5" y="-411.5" font-family="Helvetica,sans-Serif" font-size="10.00" fill="#000000"> m_pLock</text>
</g>
<!-- Node21&#45;&gt;Node22 -->
<g id="edge18" class="edge">
<title>Node21&#45;&gt;Node22</title>
<path fill="none" stroke="#9a32cd" stroke-dasharray="5,2" d="M516.4482,-472.076C483.3465,-464.9099 471.3659,-469.5565 446,-454 433.5716,-446.3779 423.1523,-432.9275 416.9963,-423.7465"/>
<polygon fill="#9a32cd" stroke="#9a32cd" points="515.8348,-475.5277 526.3734,-474.4371 517.4549,-468.7177 515.8348,-475.5277"/>
<text text-anchor="middle" x="467.5" y="-446" font-family="Helvetica,sans-Serif" font-size="10.00" fill="#000000"> m_pLock</text>
</g>
<!-- Node21&#45;&gt;Node25 -->
<g id="edge27" class="edge">
<title>Node21&#45;&gt;Node25</title>
<path fill="none" stroke="#9a32cd" stroke-dasharray="5,2" d="M563.4668,-462.5529C568.5349,-449.1663 574,-430.8295 574,-414 574,-414 574,-414 574,-211 574,-182.9643 495.012,-162.4228 442.8676,-151.9167"/>
<polygon fill="#9a32cd" stroke="#9a32cd" points="560.1085,-461.5214 559.5994,-472.104 566.5968,-464.1487 560.1085,-461.5214"/>
<text text-anchor="middle" x="606" y="-310" font-family="Helvetica,sans-Serif" font-size="10.00" fill="#000000"> m_csReceive</text>
<text text-anchor="middle" x="606" y="-299" font-family="Helvetica,sans-Serif" font-size="10.00" fill="#000000">m_csFilter</text>
</g>
<!-- Node22&#45;&gt;Node12 -->
<g id="edge13" class="edge">
<title>Node22&#45;&gt;Node12</title>
<path fill="none" stroke="#9a32cd" stroke-dasharray="5,2" d="M385.7829,-398.9582C363.5475,-385.695 331.8276,-366.7744 312.9356,-355.5054"/>
<polygon fill="#9a32cd" stroke="#9a32cd" points="384.2854,-402.1403 394.6666,-404.2573 387.8714,-396.1286 384.2854,-402.1403"/>
<text text-anchor="middle" x="382" y="-377" font-family="Helvetica,sans-Serif" font-size="10.00" fill="#000000"> m_pFilter</text>
</g>
<!-- Node22&#45;&gt;Node25 -->
<g id="edge20" class="edge">
<title>Node22&#45;&gt;Node25</title>
<path fill="none" stroke="#191970" d="M434.7795,-398.1921C450.0344,-385.9778 467,-367.5496 467,-346 467,-346 467,-346 467,-211 467,-191.9096 462.0206,-185.961 449,-172 441.6974,-164.17 431.6985,-158.0236 422.4881,-153.5091"/>
<polygon fill="#191970" stroke="#191970" points="432.5049,-395.5228 426.5991,-404.319 436.7013,-401.1256 432.5049,-395.5228"/>
</g>
<!-- Node23 -->
<g id="node15" class="node">
<title>Node23</title>
<polygon fill="#ffffff" stroke="#bfbfbf" points="444,-472.5 444,-491.5 508,-491.5 508,-472.5 444,-472.5"/>
<text text-anchor="middle" x="476" y="-479.5" font-family="Helvetica,sans-Serif" font-size="10.00" fill="#000000">IBaseFilter</text>
</g>
<!-- Node23&#45;&gt;Node22 -->
<g id="edge15" class="edge">
<title>Node23&#45;&gt;Node22</title>
<path fill="none" stroke="#191970" d="M442.3239,-467.4831C436.3107,-463.7551 430.529,-459.2741 426,-454 418.4623,-445.2223 414.5411,-432.2889 412.6278,-423.5241"/>
<polygon fill="#191970" stroke="#191970" points="440.7402,-470.6072 451.1804,-472.4108 444.1436,-464.4903 440.7402,-470.6072"/>
</g>
<!-- Node24 -->
<g id="node16" class="node">
<title>Node24</title>
<polygon fill="#ffffff" stroke="#bfbfbf" points="348,-472.5 348,-491.5 426,-491.5 426,-472.5 348,-472.5"/>
<text text-anchor="middle" x="387" y="-479.5" font-family="Helvetica,sans-Serif" font-size="10.00" fill="#000000">IAMovieSetup</text>
</g>
<!-- Node24&#45;&gt;Node22 -->
<g id="edge16" class="edge">
<title>Node24&#45;&gt;Node22</title>
<path fill="none" stroke="#191970" d="M393.8551,-462.5772C398.3393,-449.8719 404.0059,-433.8166 407.5678,-423.7247"/>
<polygon fill="#191970" stroke="#191970" points="390.4664,-461.6625 390.4386,-472.2573 397.0673,-463.9922 390.4664,-461.6625"/>
</g>
<!-- Node25&#45;&gt;Node10 -->
<g id="edge19" class="edge">
<title>Node25&#45;&gt;Node10</title>
<path fill="none" stroke="#9a32cd" stroke-dasharray="5,2" d="M375.9268,-159.6875C365.6774,-166.8904 353.2877,-175.4826 342,-183 332.6552,-189.2235 322.0399,-195.9873 313.5774,-201.3078"/>
<polygon fill="#9a32cd" stroke="#9a32cd" points="378.1493,-162.403 384.3014,-153.7773 374.113,-156.6838 378.1493,-162.403"/>
<text text-anchor="middle" x="401" y="-175" font-family="Helvetica,sans-Serif" font-size="10.00" fill="#000000"> m_pTransformFilter</text>
</g>
<!-- Node26 -->
<g id="node18" class="node">
<title>Node26</title>
<g id="a_node18"><a xlink:href="../../d4/dd3/class_c_transform_input_pin.html" target="_top" xlink:title="CTransformInputPin">
<polygon fill="#ffffff" stroke="#000000" points="282,-67.5 282,-86.5 386,-86.5 386,-67.5 282,-67.5"/>
<text text-anchor="middle" x="334" y="-74.5" font-family="Helvetica,sans-Serif" font-size="10.00" fill="#000000">CTransformInputPin</text>
</a>
</g>
</g>
<!-- Node25&#45;&gt;Node26 -->
<g id="edge26" class="edge">
<title>Node25&#45;&gt;Node26</title>
<path fill="none" stroke="#9a32cd" stroke-dasharray="5,2" d="M343.193,-137.0387C317.8473,-132.5814 291.6601,-125.7692 284,-116 274.6257,-104.0447 289.8875,-93.6457 305.9487,-86.5993"/>
<polygon fill="#9a32cd" stroke="#9a32cd" points="342.76,-140.5145 353.1967,-138.6906 343.9005,-133.608 342.76,-140.5145"/>
<text text-anchor="middle" x="328" y="-108" font-family="Helvetica,sans-Serif" font-size="10.00" fill="#000000"> m_pTransformFilter</text>
</g>
<!-- Node29 -->
<g id="node21" class="node">
<title>Node29</title>
<g id="a_node21"><a xlink:href="../../d5/dff/class_c_trans_in_place_filter.html" target="_top" xlink:title="CTransInPlaceFilter">
<polygon fill="#ffffff" stroke="#000000" points="404.5,-67.5 404.5,-86.5 507.5,-86.5 507.5,-67.5 404.5,-67.5"/>
<text text-anchor="middle" x="456" y="-74.5" font-family="Helvetica,sans-Serif" font-size="10.00" fill="#000000">CTransInPlaceFilter</text>
</a>
</g>
</g>
<!-- Node25&#45;&gt;Node29 -->
<g id="edge29" class="edge">
<title>Node25&#45;&gt;Node29</title>
<path fill="none" stroke="#191970" d="M428.913,-128.8097C434.1465,-125.1786 439.1298,-120.9054 443,-116 449.8079,-107.3711 453.1294,-95.0106 454.6955,-86.5307"/>
<polygon fill="#191970" stroke="#191970" points="426.6826,-126.074 420.0213,-134.3129 430.3665,-132.0262 426.6826,-126.074"/>
</g>
<!-- Node26&#45;&gt;Node25 -->
<g id="edge22" class="edge">
<title>Node26&#45;&gt;Node25</title>
<path fill="none" stroke="#9a32cd" stroke-dasharray="5,2" d="M360.6329,-92.0028C366.0994,-95.807 371.5397,-100.1949 376,-105 384.0388,-113.6603 390.2874,-125.7855 394.0376,-134.208"/>
<polygon fill="#9a32cd" stroke="#9a32cd" points="362.4572,-89.0145 352.158,-86.5292 358.6594,-94.8947 362.4572,-89.0145"/>
<text text-anchor="middle" x="406" y="-108" font-family="Helvetica,sans-Serif" font-size="10.00" fill="#000000"> m_pInput</text>
</g>
<!-- Node27&#45;&gt;Node26 -->
<g id="edge23" class="edge">
<title>Node27&#45;&gt;Node26</title>
<path fill="none" stroke="#191970" d="M205.5734,-248.3616C214.2395,-215.0161 235.966,-146.8762 277,-105 284.7937,-97.0464 295.31,-91.0103 305.1875,-86.6168"/>
<polygon fill="#191970" stroke="#191970" points="202.1316,-247.7 203.1261,-258.248 208.9265,-249.3821 202.1316,-247.7"/>
</g>
<!-- Node28 -->
<g id="node20" class="node">
<title>Node28</title>
<polygon fill="#ffffff" stroke="#bfbfbf" points="162.5,-336.5 162.5,-355.5 239.5,-355.5 239.5,-336.5 162.5,-336.5"/>
<text text-anchor="middle" x="201" y="-343.5" font-family="Helvetica,sans-Serif" font-size="10.00" fill="#000000">IMemInputPin</text>
</g>
<!-- Node28&#45;&gt;Node27 -->
<g id="edge25" class="edge">
<title>Node28&#45;&gt;Node27</title>
<path fill="none" stroke="#191970" d="M201,-326.2866C201,-310.7395 201,-289.7276 201,-277.6426"/>
<polygon fill="#191970" stroke="#191970" points="197.5001,-326.4356 201,-336.4357 204.5001,-326.4357 197.5001,-326.4356"/>
</g>
<!-- Node29&#45;&gt;Node9 -->
<g id="edge28" class="edge">
<title>Node29&#45;&gt;Node9</title>
<path fill="none" stroke="#9a32cd" stroke-dasharray="5,2" d="M419.6772,-63.916C383.5232,-50.8928 328.897,-31.2156 296.5998,-19.5817"/>
<polygon fill="#9a32cd" stroke="#9a32cd" points="418.7563,-67.3044 429.3507,-67.4005 421.1287,-60.7186 418.7563,-67.3044"/>
<text text-anchor="middle" x="404" y="-41" font-family="Helvetica,sans-Serif" font-size="10.00" fill="#000000"> m_pTIPFilter</text>
</g>
</g>
</svg>
        <g id="navigator" transform="translate(0 0)" fill="#404254">
                <rect fill="#f2f5e9" fill-opacity="0.5" stroke="#606060" stroke-width=".5" x="0" y="0" width="60" height="60"/>
                <use id="zoomplus" xlink:href="#zoomPlus" x="17" y="9" onmousedown="handleZoom(evt,'in')"/>
                <use id="zoomminus" xlink:href="#zoomMin" x="42" y="9" onmousedown="handleZoom(evt,'out')"/>
                <use id="reset" xlink:href="#resetDef" x="30" y="36" onmousedown="handleReset()"/>
                <g id="arrowUp" xlink:href="#dirArrow" transform="translate(30 24)" onmousedown="handlePan(0,-1)">
                  <use xlink:href="#rim" fill="#404040">
                        <set attributeName="fill" to="#808080" begin="arrowUp.mouseover" end="arrowUp.mouseout"/>
                  </use>
                  <path fill="none" stroke="white" stroke-width="1.5" d="M0,-3.0v7 M-2.5,-0.5L0,-3.0L2.5,-0.5"/>
                </g>
                <g id="arrowRight" xlink:href="#dirArrow" transform="rotate(90) translate(36 -43)" onmousedown="handlePan(1,0)">
                  <use xlink:href="#rim" fill="#404040">
                        <set attributeName="fill" to="#808080" begin="arrowRight.mouseover" end="arrowRight.mouseout"/>
                  </use>
                  <path fill="none" stroke="white" stroke-width="1.5" d="M0,-3.0v7 M-2.5,-0.5L0,-3.0L2.5,-0.5"/>
                </g>
                <g id="arrowDown" xlink:href="#dirArrow" transform="rotate(180) translate(-30 -48)" onmousedown="handlePan(0,1)">
                  <use xlink:href="#rim" fill="#404040">
                        <set attributeName="fill" to="#808080" begin="arrowDown.mouseover" end="arrowDown.mouseout"/>
                  </use>
                  <path fill="none" stroke="white" stroke-width="1.5" d="M0,-3.0v7 M-2.5,-0.5L0,-3.0L2.5,-0.5"/>
                </g>
                <g id="arrowLeft" xlink:href="#dirArrow" transform="rotate(270) translate(-36 17)" onmousedown="handlePan(-1,0)">
                  <use xlink:href="#rim" fill="#404040">
                        <set attributeName="fill" to="#808080" begin="arrowLeft.mouseover" end="arrowLeft.mouseout"/>
                  </use>
                  <path fill="none" stroke="white" stroke-width="1.5" d="M0,-3.0v7 M-2.5,-0.5L0,-3.0L2.5,-0.5"/>
                </g>
        </g>
        <svg viewBox="0 0 15 15" width="100%" height="30px" preserveAspectRatio="xMaxYMin meet">
         <g id="arrow_out" transform="scale(0.3 0.3)">
          <a xlink:href="class_c_trans_in_place_output_pin__coll__graph_org.svg" target="_base">
           <rect id="button" ry="5" rx="5" y="6" x="6" height="38" width="38"
                fill="#f2f5e9" fill-opacity="0.5" stroke="#606060" stroke-width="1.0"/>
           <path id="arrow"
             d="M 11.500037,31.436501 C 11.940474,20.09759 22.043105,11.32322 32.158766,21.979434 L 37.068811,17.246167 C 37.068811,17.246167 37.088388,32 37.088388,32 L 22.160133,31.978069 C 22.160133,31.978069 26.997745,27.140456 26.997745,27.140456 C 18.528582,18.264221 13.291696,25.230495 11.500037,31.436501 z"
             style="fill:#404040;"/>
          </a>
         </g>
        </svg>
</svg>
