<?xml version="1.0" encoding="UTF-8" standalone="no"?>
<!DOCTYPE svg PUBLIC "-//W3C//DTD SVG 1.1//EN"
 "http://www.w3.org/Graphics/SVG/1.1/DTD/svg11.dtd">
<!-- Generated by graphviz version 2.43.0 (0)
 -->
<!-- Title: /home/tcbuilder/buildAgent/work/df8e8cce5bebfd58/libajantv2/ajabase/system/file_io.h Pages: 1 -->
<!--zoomable 206 -->
<svg id="main" version="1.1" xmlns="http://www.w3.org/2000/svg" xmlns:xlink="http://www.w3.org/1999/xlink" xml:space="preserve" onload="init(evt)">
<style type="text/css"><![CDATA[
.edge:hover path { stroke: red; }
.edge:hover polygon { stroke: red; fill: red; }
]]></style>
<script type="text/javascript"><![CDATA[
var edges = document.getElementsByTagName('g');
if (edges && edges.length) {
  for (var i=0;i<edges.length;i++) {
    if (edges[i].id.substr(0,4)=='edge') {
      edges[i].setAttribute('class','edge');
    }
  }
}
]]></script>
        <defs>
                <circle id="rim" cx="0" cy="0" r="7"/>
                <circle id="rim2" cx="0" cy="0" r="3.5"/>
                <g id="zoomPlus">
                        <use xlink:href="#rim" fill="#404040">
                                <set attributeName="fill" to="#808080" begin="zoomplus.mouseover" end="zoomplus.mouseout"/>
                        </use>
                        <path d="M-4,0h8M0,-4v8" fill="none" stroke="white" stroke-width="1.5" pointer-events="none"/>
                </g>
                <g id="zoomMin">
                        <use xlink:href="#rim" fill="#404040">
                                <set attributeName="fill" to="#808080" begin="zoomminus.mouseover" end="zoomminus.mouseout"/>
                        </use>
                        <path d="M-4,0h8" fill="none" stroke="white" stroke-width="1.5" pointer-events="none"/>
                </g>
                <g id="dirArrow">
                        <path fill="none" stroke="white" stroke-width="1.5" d="M0,-3.0v7 M-2.5,-0.5L0,-3.0L2.5,-0.5"/>
                </g>
               <g id="resetDef">
                       <use xlink:href="#rim2" fill="#404040">
                               <set attributeName="fill" to="#808080" begin="reset.mouseover" end="reset.mouseout"/>
                       </use>
               </g>
        </defs>

<script type="text/javascript">
var viewWidth = 2582;
var viewHeight = 206;
var sectionId = 'dynsection-1';
</script>
<script xlink:href="../../svgpan.js"/>
<svg id="graph" class="graph">
<g id="viewport">
<title>/home/tcbuilder/buildAgent/work/df8e8cce5bebfd58/libajantv2/ajabase/system/file_io.h</title>
<polygon fill="white" stroke="transparent" points="-4,4 -4,-202 2578,-202 2578,4 -4,4"/>
<!-- Node1 -->
<g id="node1" class="node">
<title>Node1</title>
<g id="a_node1"><a xlink:title="Declares the AJAFileIO class.">
<polygon fill="#bfbfbf" stroke="black" points="1141,-156.5 1141,-197.5 1329,-197.5 1329,-156.5 1141,-156.5"/>
<text text-anchor="start" x="1149" y="-185.5" font-family="Helvetica,sans-Serif" font-size="10.00">/home/tcbuilder/buildAgent</text>
<text text-anchor="start" x="1149" y="-174.5" font-family="Helvetica,sans-Serif" font-size="10.00">/work/df8e8cce5bebfd58/libajantv2</text>
<text text-anchor="middle" x="1235" y="-163.5" font-family="Helvetica,sans-Serif" font-size="10.00">/ajabase/system/file_io.h</text>
</a>
</g>
</g>
<!-- Node2 -->
<g id="node2" class="node">
<title>Node2</title>
<g id="a_node2"><a xlink:href="../../df/d0d/commandline_8cpp.html" target="_top" xlink:title="Definition of Command Line classes.">
<polygon fill="white" stroke="black" points="0,-78.5 0,-119.5 194,-119.5 194,-78.5 0,-78.5"/>
<text text-anchor="start" x="8" y="-107.5" font-family="Helvetica,sans-Serif" font-size="10.00">/home/tcbuilder/buildAgent</text>
<text text-anchor="start" x="8" y="-96.5" font-family="Helvetica,sans-Serif" font-size="10.00">/work/df8e8cce5bebfd58/libajantv2</text>
<text text-anchor="middle" x="97" y="-85.5" font-family="Helvetica,sans-Serif" font-size="10.00">/ajabase/common/commandline.cpp</text>
</a>
</g>
</g>
<!-- Node1&#45;&gt;Node2 -->
<g id="edge1" class="edge">
<title>Node1&#45;&gt;Node2</title>
<path fill="none" stroke="midnightblue" d="M1130.64,-174.89C943.91,-171.9 540.58,-160.83 203,-120 200.12,-119.65 197.2,-119.27 194.25,-118.87"/>
<polygon fill="midnightblue" stroke="midnightblue" points="1130.67,-178.39 1140.72,-175.05 1130.78,-171.39 1130.67,-178.39"/>
</g>
<!-- Node3 -->
<g id="node3" class="node">
<title>Node3</title>
<g id="a_node3"><a xlink:href="../../df/dc4/dpxfileio_8cpp.html" target="_top" xlink:title="Implementation of the AJADPXFileIO class, for low level file I/O.">
<polygon fill="white" stroke="black" points="212,-78.5 212,-119.5 400,-119.5 400,-78.5 212,-78.5"/>
<text text-anchor="start" x="220" y="-107.5" font-family="Helvetica,sans-Serif" font-size="10.00">/home/tcbuilder/buildAgent</text>
<text text-anchor="start" x="220" y="-96.5" font-family="Helvetica,sans-Serif" font-size="10.00">/work/df8e8cce5bebfd58/libajantv2</text>
<text text-anchor="middle" x="306" y="-85.5" font-family="Helvetica,sans-Serif" font-size="10.00">/ajabase/common/dpxfileio.cpp</text>
</a>
</g>
</g>
<!-- Node1&#45;&gt;Node3 -->
<g id="edge2" class="edge">
<title>Node1&#45;&gt;Node3</title>
<path fill="none" stroke="midnightblue" d="M1130.66,-173.08C973.56,-167.74 667.18,-153.69 409,-120 406.11,-119.62 403.18,-119.21 400.22,-118.78"/>
<polygon fill="midnightblue" stroke="midnightblue" points="1130.68,-176.58 1140.79,-173.42 1130.91,-169.58 1130.68,-176.58"/>
</g>
<!-- Node4 -->
<g id="node4" class="node">
<title>Node4</title>
<g id="a_node4"><a xlink:href="../../dd/d55/options__popt_8cpp.html" target="_top" xlink:title=" ">
<polygon fill="white" stroke="black" points="418,-78.5 418,-119.5 608,-119.5 608,-78.5 418,-78.5"/>
<text text-anchor="start" x="426" y="-107.5" font-family="Helvetica,sans-Serif" font-size="10.00">/home/tcbuilder/buildAgent</text>
<text text-anchor="start" x="426" y="-96.5" font-family="Helvetica,sans-Serif" font-size="10.00">/work/df8e8cce5bebfd58/libajantv2</text>
<text text-anchor="middle" x="513" y="-85.5" font-family="Helvetica,sans-Serif" font-size="10.00">/ajabase/common/options_popt.cpp</text>
</a>
</g>
</g>
<!-- Node1&#45;&gt;Node4 -->
<g id="edge3" class="edge">
<title>Node1&#45;&gt;Node4</title>
<path fill="none" stroke="midnightblue" d="M1130.78,-169.74C1007.64,-161.6 796.76,-145.36 617,-120 614.09,-119.59 611.13,-119.15 608.15,-118.69"/>
<polygon fill="midnightblue" stroke="midnightblue" points="1130.75,-173.24 1140.96,-170.4 1131.21,-166.26 1130.75,-173.24"/>
</g>
<!-- Node5 -->
<g id="node5" class="node">
<title>Node5</title>
<g id="a_node5"><a xlink:href="../../d1/dda/wavewriter_8h.html" target="_top" xlink:title="Declares the AJAWavWriter class.">
<polygon fill="white" stroke="black" points="626,-78.5 626,-119.5 814,-119.5 814,-78.5 626,-78.5"/>
<text text-anchor="start" x="634" y="-107.5" font-family="Helvetica,sans-Serif" font-size="10.00">/home/tcbuilder/buildAgent</text>
<text text-anchor="start" x="634" y="-96.5" font-family="Helvetica,sans-Serif" font-size="10.00">/work/df8e8cce5bebfd58/libajantv2</text>
<text text-anchor="middle" x="720" y="-85.5" font-family="Helvetica,sans-Serif" font-size="10.00">/ajabase/common/wavewriter.h</text>
</a>
</g>
</g>
<!-- Node1&#45;&gt;Node5 -->
<g id="edge4" class="edge">
<title>Node1&#45;&gt;Node5</title>
<path fill="none" stroke="midnightblue" d="M1130.69,-163.48C1047.26,-153.07 927.37,-137.21 823,-120 820.12,-119.53 817.21,-119.03 814.26,-118.52"/>
<polygon fill="midnightblue" stroke="midnightblue" points="1130.33,-166.96 1140.68,-164.72 1131.19,-160.02 1130.33,-166.96"/>
</g>
<!-- Node7 -->
<g id="node7" class="node">
<title>Node7</title>
<g id="a_node7"><a xlink:href="../../dc/dd2/bm_2infoimpl_8cpp.html" target="_top" xlink:title=" ">
<polygon fill="white" stroke="black" points="832,-78.5 832,-119.5 1020,-119.5 1020,-78.5 832,-78.5"/>
<text text-anchor="start" x="840" y="-107.5" font-family="Helvetica,sans-Serif" font-size="10.00">/home/tcbuilder/buildAgent</text>
<text text-anchor="start" x="840" y="-96.5" font-family="Helvetica,sans-Serif" font-size="10.00">/work/df8e8cce5bebfd58/libajantv2</text>
<text text-anchor="middle" x="926" y="-85.5" font-family="Helvetica,sans-Serif" font-size="10.00">/ajabase/system/bm/infoimpl.cpp</text>
</a>
</g>
</g>
<!-- Node1&#45;&gt;Node7 -->
<g id="edge6" class="edge">
<title>Node1&#45;&gt;Node7</title>
<path fill="none" stroke="midnightblue" d="M1145.53,-153.99C1101.21,-143.09 1048.15,-130.04 1005.31,-119.51"/>
<polygon fill="midnightblue" stroke="midnightblue" points="1144.88,-157.44 1155.42,-156.43 1146.55,-150.64 1144.88,-157.44"/>
</g>
<!-- Node8 -->
<g id="node8" class="node">
<title>Node8</title>
<g id="a_node8"><a xlink:href="../../d2/d14/file__io_8cpp.html" target="_top" xlink:title="Implements the AJAFileIO class based on platform, Windows/Posix.">
<polygon fill="white" stroke="black" points="1038,-78.5 1038,-119.5 1226,-119.5 1226,-78.5 1038,-78.5"/>
<text text-anchor="start" x="1046" y="-107.5" font-family="Helvetica,sans-Serif" font-size="10.00">/home/tcbuilder/buildAgent</text>
<text text-anchor="start" x="1046" y="-96.5" font-family="Helvetica,sans-Serif" font-size="10.00">/work/df8e8cce5bebfd58/libajantv2</text>
<text text-anchor="middle" x="1132" y="-85.5" font-family="Helvetica,sans-Serif" font-size="10.00">/ajabase/system/file_io.cpp</text>
</a>
</g>
</g>
<!-- Node1&#45;&gt;Node8 -->
<g id="edge7" class="edge">
<title>Node1&#45;&gt;Node8</title>
<path fill="none" stroke="midnightblue" d="M1200.24,-150.35C1186.58,-140.27 1171.16,-128.89 1158.44,-119.51"/>
<polygon fill="midnightblue" stroke="midnightblue" points="1198.35,-153.31 1208.47,-156.43 1202.51,-147.67 1198.35,-153.31"/>
</g>
<!-- Node9 -->
<g id="node9" class="node">
<title>Node9</title>
<g id="a_node9"><a xlink:href="../../d8/d64/linux_2infoimpl_8cpp.html" target="_top" xlink:title="Implements the AJASystemInfoImpl class on the Linux platform.">
<polygon fill="white" stroke="black" points="1244,-78.5 1244,-119.5 1432,-119.5 1432,-78.5 1244,-78.5"/>
<text text-anchor="start" x="1252" y="-107.5" font-family="Helvetica,sans-Serif" font-size="10.00">/home/tcbuilder/buildAgent</text>
<text text-anchor="start" x="1252" y="-96.5" font-family="Helvetica,sans-Serif" font-size="10.00">/work/df8e8cce5bebfd58/libajantv2</text>
<text text-anchor="middle" x="1338" y="-85.5" font-family="Helvetica,sans-Serif" font-size="10.00">/ajabase/system/linux/infoimpl.cpp</text>
</a>
</g>
</g>
<!-- Node1&#45;&gt;Node9 -->
<g id="edge8" class="edge">
<title>Node1&#45;&gt;Node9</title>
<path fill="none" stroke="midnightblue" d="M1269.76,-150.35C1283.42,-140.27 1298.84,-128.89 1311.56,-119.51"/>
<polygon fill="midnightblue" stroke="midnightblue" points="1267.49,-147.67 1261.53,-156.43 1271.65,-153.31 1267.49,-147.67"/>
</g>
<!-- Node10 -->
<g id="node10" class="node">
<title>Node10</title>
<g id="a_node10"><a xlink:href="../../d6/dcf/ntv2dolbyplayer_8h.html" target="_top" xlink:title="Header file for NTV2DolbyPlayer demonstration class.">
<polygon fill="white" stroke="black" points="1450,-78.5 1450,-119.5 1676,-119.5 1676,-78.5 1450,-78.5"/>
<text text-anchor="start" x="1458" y="-107.5" font-family="Helvetica,sans-Serif" font-size="10.00">/home/tcbuilder/buildAgent</text>
<text text-anchor="start" x="1458" y="-96.5" font-family="Helvetica,sans-Serif" font-size="10.00">/work/df8e8cce5bebfd58/libajantv2</text>
<text text-anchor="middle" x="1563" y="-85.5" font-family="Helvetica,sans-Serif" font-size="10.00">/demos/ntv2dolbyplayer/ntv2dolbyplayer.h</text>
</a>
</g>
</g>
<!-- Node1&#45;&gt;Node10 -->
<g id="edge9" class="edge">
<title>Node1&#45;&gt;Node10</title>
<path fill="none" stroke="midnightblue" d="M1329.38,-154.13C1376.55,-143.2 1433.14,-130.09 1478.82,-119.51"/>
<polygon fill="midnightblue" stroke="midnightblue" points="1328.42,-150.76 1319.47,-156.43 1330,-157.58 1328.42,-150.76"/>
</g>
<!-- Node13 -->
<g id="node13" class="node">
<title>Node13</title>
<g id="a_node13"><a xlink:href="../../d7/d6f/ntv2player_8cpp.html" target="_top" xlink:title="Implementation of NTV2Player class.">
<polygon fill="white" stroke="black" points="1694,-78.5 1694,-119.5 1882,-119.5 1882,-78.5 1694,-78.5"/>
<text text-anchor="start" x="1702" y="-107.5" font-family="Helvetica,sans-Serif" font-size="10.00">/home/tcbuilder/buildAgent</text>
<text text-anchor="start" x="1702" y="-96.5" font-family="Helvetica,sans-Serif" font-size="10.00">/work/df8e8cce5bebfd58/libajantv2</text>
<text text-anchor="middle" x="1788" y="-85.5" font-family="Helvetica,sans-Serif" font-size="10.00">/demos/ntv2player/ntv2player.cpp</text>
</a>
</g>
</g>
<!-- Node1&#45;&gt;Node13 -->
<g id="edge12" class="edge">
<title>Node1&#45;&gt;Node13</title>
<path fill="none" stroke="midnightblue" d="M1339.29,-165.06C1430.68,-154.98 1566.97,-138.78 1685,-120 1687.88,-119.54 1690.8,-119.06 1693.75,-118.57"/>
<polygon fill="midnightblue" stroke="midnightblue" points="1338.77,-161.59 1329.21,-166.16 1339.53,-168.55 1338.77,-161.59"/>
</g>
<!-- Node14 -->
<g id="node14" class="node">
<title>Node14</title>
<g id="a_node14"><a xlink:href="../../d5/dfe/ntv2baremetaldriverinterface_8cpp.html" target="_top" xlink:title="Implementation of the CNTV2BareMetalDriverInterface class.">
<polygon fill="white" stroke="black" points="1900,-78.5 1900,-119.5 2160,-119.5 2160,-78.5 1900,-78.5"/>
<text text-anchor="start" x="1908" y="-107.5" font-family="Helvetica,sans-Serif" font-size="10.00">/home/tcbuilder/buildAgent</text>
<text text-anchor="start" x="1908" y="-96.5" font-family="Helvetica,sans-Serif" font-size="10.00">/work/df8e8cce5bebfd58/libajantv2</text>
<text text-anchor="middle" x="2030" y="-85.5" font-family="Helvetica,sans-Serif" font-size="10.00">/ajantv2/src/bm/ntv2baremetaldriverinterface.cpp</text>
</a>
</g>
</g>
<!-- Node1&#45;&gt;Node14 -->
<g id="edge13" class="edge">
<title>Node1&#45;&gt;Node14</title>
<path fill="none" stroke="midnightblue" d="M1339.45,-168.95C1469.04,-159.78 1696.68,-142.26 1891,-120 1893.91,-119.67 1896.85,-119.32 1899.81,-118.97"/>
<polygon fill="midnightblue" stroke="midnightblue" points="1338.87,-165.49 1329.14,-169.68 1339.36,-172.47 1338.87,-165.49"/>
</g>
<!-- Node15 -->
<g id="node15" class="node">
<title>Node15</title>
<g id="a_node15"><a xlink:href="../../d7/d85/ntv2bitfilemanager_8cpp.html" target="_top" xlink:title="Implementation of CNTV2BitfileManager class.">
<polygon fill="white" stroke="black" points="2178.5,-78.5 2178.5,-119.5 2367.5,-119.5 2367.5,-78.5 2178.5,-78.5"/>
<text text-anchor="start" x="2186.5" y="-107.5" font-family="Helvetica,sans-Serif" font-size="10.00">/home/tcbuilder/buildAgent</text>
<text text-anchor="start" x="2186.5" y="-96.5" font-family="Helvetica,sans-Serif" font-size="10.00">/work/df8e8cce5bebfd58/libajantv2</text>
<text text-anchor="middle" x="2273" y="-85.5" font-family="Helvetica,sans-Serif" font-size="10.00">/ajantv2/src/ntv2bitfilemanager.cpp</text>
</a>
</g>
</g>
<!-- Node1&#45;&gt;Node15 -->
<g id="edge14" class="edge">
<title>Node1&#45;&gt;Node15</title>
<path fill="none" stroke="midnightblue" d="M1339.29,-174.17C1512.3,-170.14 1869.34,-157.64 2169,-120 2172.1,-119.61 2175.25,-119.18 2178.42,-118.73"/>
<polygon fill="midnightblue" stroke="midnightblue" points="1339.08,-170.67 1329.17,-174.4 1339.24,-177.67 1339.08,-170.67"/>
</g>
<!-- Node16 -->
<g id="node16" class="node">
<title>Node16</title>
<g id="a_node16"><a xlink:href="../../d7/db4/ntv2devicescanner_8cpp.html" target="_top" xlink:title="Implementation of CNTV2DeviceScanner class.">
<polygon fill="white" stroke="black" points="2386,-78.5 2386,-119.5 2574,-119.5 2574,-78.5 2386,-78.5"/>
<text text-anchor="start" x="2394" y="-107.5" font-family="Helvetica,sans-Serif" font-size="10.00">/home/tcbuilder/buildAgent</text>
<text text-anchor="start" x="2394" y="-96.5" font-family="Helvetica,sans-Serif" font-size="10.00">/work/df8e8cce5bebfd58/libajantv2</text>
<text text-anchor="middle" x="2480" y="-85.5" font-family="Helvetica,sans-Serif" font-size="10.00">/ajantv2/src/ntv2devicescanner.cpp</text>
</a>
</g>
</g>
<!-- Node1&#45;&gt;Node16 -->
<g id="edge15" class="edge">
<title>Node1&#45;&gt;Node16</title>
<path fill="none" stroke="midnightblue" d="M1339.28,-175.86C1540.63,-174.48 1996.63,-166.02 2377,-120 2379.89,-119.65 2382.83,-119.27 2385.79,-118.85"/>
<polygon fill="midnightblue" stroke="midnightblue" points="1338.99,-172.36 1329.01,-175.92 1339.04,-179.36 1338.99,-172.36"/>
</g>
<!-- Node6 -->
<g id="node6" class="node">
<title>Node6</title>
<g id="a_node6"><a xlink:href="../../d0/d74/wavewriter_8cpp.html" target="_top" xlink:title="Implements the AJAWavWriter class.">
<polygon fill="white" stroke="black" points="626,-0.5 626,-41.5 814,-41.5 814,-0.5 626,-0.5"/>
<text text-anchor="start" x="634" y="-29.5" font-family="Helvetica,sans-Serif" font-size="10.00">/home/tcbuilder/buildAgent</text>
<text text-anchor="start" x="634" y="-18.5" font-family="Helvetica,sans-Serif" font-size="10.00">/work/df8e8cce5bebfd58/libajantv2</text>
<text text-anchor="middle" x="720" y="-7.5" font-family="Helvetica,sans-Serif" font-size="10.00">/ajabase/common/wavewriter.cpp</text>
</a>
</g>
</g>
<!-- Node5&#45;&gt;Node6 -->
<g id="edge5" class="edge">
<title>Node5&#45;&gt;Node6</title>
<path fill="none" stroke="midnightblue" d="M720,-68.3C720,-59.3 720,-49.65 720,-41.51"/>
<polygon fill="midnightblue" stroke="midnightblue" points="716.5,-68.43 720,-78.43 723.5,-68.43 716.5,-68.43"/>
</g>
<!-- Node11 -->
<g id="node11" class="node">
<title>Node11</title>
<g id="a_node11"><a xlink:href="../../d0/df9/ntv2dolbyplayer_2main_8cpp.html" target="_top" xlink:title="Demonstration application that uses AutoCirculate to playout video and Doly audio to HDMI.">
<polygon fill="white" stroke="black" points="1353,-0.5 1353,-41.5 1541,-41.5 1541,-0.5 1353,-0.5"/>
<text text-anchor="start" x="1361" y="-29.5" font-family="Helvetica,sans-Serif" font-size="10.00">/home/tcbuilder/buildAgent</text>
<text text-anchor="start" x="1361" y="-18.5" font-family="Helvetica,sans-Serif" font-size="10.00">/work/df8e8cce5bebfd58/libajantv2</text>
<text text-anchor="middle" x="1447" y="-7.5" font-family="Helvetica,sans-Serif" font-size="10.00">/demos/ntv2dolbyplayer/main.cpp</text>
</a>
</g>
</g>
<!-- Node10&#45;&gt;Node11 -->
<g id="edge10" class="edge">
<title>Node10&#45;&gt;Node11</title>
<path fill="none" stroke="midnightblue" d="M1524.72,-72.92C1509.12,-62.7 1491.37,-51.07 1476.77,-41.51"/>
<polygon fill="midnightblue" stroke="midnightblue" points="1522.84,-75.88 1533.13,-78.43 1526.68,-70.02 1522.84,-75.88"/>
</g>
<!-- Node12 -->
<g id="node12" class="node">
<title>Node12</title>
<g id="a_node12"><a xlink:href="../../d5/d9e/ntv2dolbyplayer_8cpp.html" target="_top" xlink:title="Implementation of NTV2DolbyPlayer class.">
<polygon fill="white" stroke="black" points="1559.5,-0.5 1559.5,-41.5 1796.5,-41.5 1796.5,-0.5 1559.5,-0.5"/>
<text text-anchor="start" x="1567.5" y="-29.5" font-family="Helvetica,sans-Serif" font-size="10.00">/home/tcbuilder/buildAgent</text>
<text text-anchor="start" x="1567.5" y="-18.5" font-family="Helvetica,sans-Serif" font-size="10.00">/work/df8e8cce5bebfd58/libajantv2</text>
<text text-anchor="middle" x="1678" y="-7.5" font-family="Helvetica,sans-Serif" font-size="10.00">/demos/ntv2dolbyplayer/ntv2dolbyplayer.cpp</text>
</a>
</g>
</g>
<!-- Node10&#45;&gt;Node12 -->
<g id="edge11" class="edge">
<title>Node10&#45;&gt;Node12</title>
<path fill="none" stroke="midnightblue" d="M1601.38,-72.64C1616.74,-62.49 1634.15,-50.98 1648.49,-41.51"/>
<polygon fill="midnightblue" stroke="midnightblue" points="1599.03,-69.99 1592.62,-78.43 1602.89,-75.83 1599.03,-69.99"/>
</g>
</g>
</svg>
        <g id="navigator" transform="translate(0 0)" fill="#404254">
                <rect fill="#f2f5e9" fill-opacity="0.5" stroke="#606060" stroke-width=".5" x="0" y="0" width="60" height="60"/>
                <use id="zoomplus" xlink:href="#zoomPlus" x="17" y="9" onmousedown="handleZoom(evt,'in')"/>
                <use id="zoomminus" xlink:href="#zoomMin" x="42" y="9" onmousedown="handleZoom(evt,'out')"/>
                <use id="reset" xlink:href="#resetDef" x="30" y="36" onmousedown="handleReset()"/>
                <g id="arrowUp" xlink:href="#dirArrow" transform="translate(30 24)" onmousedown="handlePan(0,-1)">
                  <use xlink:href="#rim" fill="#404040">
                        <set attributeName="fill" to="#808080" begin="arrowUp.mouseover" end="arrowUp.mouseout"/>
                  </use>
                  <path fill="none" stroke="white" stroke-width="1.5" d="M0,-3.0v7 M-2.5,-0.5L0,-3.0L2.5,-0.5"/>
                </g>
                <g id="arrowRight" xlink:href="#dirArrow" transform="rotate(90) translate(36 -43)" onmousedown="handlePan(1,0)">
                  <use xlink:href="#rim" fill="#404040">
                        <set attributeName="fill" to="#808080" begin="arrowRight.mouseover" end="arrowRight.mouseout"/>
                  </use>
                  <path fill="none" stroke="white" stroke-width="1.5" d="M0,-3.0v7 M-2.5,-0.5L0,-3.0L2.5,-0.5"/>
                </g>
                <g id="arrowDown" xlink:href="#dirArrow" transform="rotate(180) translate(-30 -48)" onmousedown="handlePan(0,1)">
                  <use xlink:href="#rim" fill="#404040">
                        <set attributeName="fill" to="#808080" begin="arrowDown.mouseover" end="arrowDown.mouseout"/>
                  </use>
                  <path fill="none" stroke="white" stroke-width="1.5" d="M0,-3.0v7 M-2.5,-0.5L0,-3.0L2.5,-0.5"/>
                </g>
                <g id="arrowLeft" xlink:href="#dirArrow" transform="rotate(270) translate(-36 17)" onmousedown="handlePan(-1,0)">
                  <use xlink:href="#rim" fill="#404040">
                        <set attributeName="fill" to="#808080" begin="arrowLeft.mouseover" end="arrowLeft.mouseout"/>
                  </use>
                  <path fill="none" stroke="white" stroke-width="1.5" d="M0,-3.0v7 M-2.5,-0.5L0,-3.0L2.5,-0.5"/>
                </g>
        </g>
        <svg viewBox="0 0 15 15" width="100%" height="30px" preserveAspectRatio="xMaxYMin meet">
         <g id="arrow_out" transform="scale(0.3 0.3)">
          <a xlink:href="file__io_8h__dep__incl_org.svg" target="_base">
           <rect id="button" ry="5" rx="5" y="6" x="6" height="38" width="38"
                fill="#f2f5e9" fill-opacity="0.5" stroke="#606060" stroke-width="1.0"/>
           <path id="arrow"
             d="M 11.500037,31.436501 C 11.940474,20.09759 22.043105,11.32322 32.158766,21.979434 L 37.068811,17.246167 C 37.068811,17.246167 37.088388,32 37.088388,32 L 22.160133,31.978069 C 22.160133,31.978069 26.997745,27.140456 26.997745,27.140456 C 18.528582,18.264221 13.291696,25.230495 11.500037,31.436501 z"
             style="fill:#404040;"/>
          </a>
         </g>
        </svg>
</svg>
