<?xml version="1.0" encoding="UTF-8" standalone="no"?>
<!DOCTYPE svg PUBLIC "-//W3C//DTD SVG 1.1//EN"
 "http://www.w3.org/Graphics/SVG/1.1/DTD/svg11.dtd">
<!-- Generated by graphviz version 2.40.1 (0)
 -->
<!-- Title: /home/tcbuilder/buildAgent/work/df8e8cce5bebfd58/libajantv2/ajantv2/includes/ntv2signalrouter.h Pages: 1 -->
<svg width="768pt" height="274pt"
 viewBox="0.00 0.00 768.15 274.00" xmlns="http://www.w3.org/2000/svg" xmlns:xlink="http://www.w3.org/1999/xlink">
<g id="graph0" class="graph" transform="scale(1 1) rotate(0) translate(4 270)">
<title>/home/tcbuilder/buildAgent/work/df8e8cce5bebfd58/libajantv2/ajantv2/includes/ntv2signalrouter.h</title>
<polygon fill="#ffffff" stroke="transparent" points="-4,4 -4,-270 764.1515,-270 764.1515,4 -4,4"/>
<!-- Node0 -->
<g id="node1" class="node">
<title>Node0</title>
<polygon fill="#bfbfbf" stroke="#000000" points="280.6515,-224.5 280.6515,-265.5 450.6515,-265.5 450.6515,-224.5 280.6515,-224.5"/>
<text text-anchor="start" x="288.6515" y="-253.5" font-family="Helvetica,sans-Serif" font-size="10.00" fill="#000000">/home/tcbuilder/buildAgent</text>
<text text-anchor="start" x="288.6515" y="-242.5" font-family="Helvetica,sans-Serif" font-size="10.00" fill="#000000">/work/df8e8cce5bebfd58/libajantv2</text>
<text text-anchor="middle" x="365.6515" y="-231.5" font-family="Helvetica,sans-Serif" font-size="10.00" fill="#000000">/ajantv2/includes/ntv2signalrouter.h</text>
</g>
<!-- Node1 -->
<g id="node2" class="node">
<title>Node1</title>
<g id="a_node2"><a xlink:href="../../d6/dd9/ajaexport_8h.html" target="_top" xlink:title="Defines the import/export macros for producing DLLs or LIBs. ">
<polygon fill="#ffffff" stroke="#000000" points="40.1515,-.5 40.1515,-19.5 105.1515,-19.5 105.1515,-.5 40.1515,-.5"/>
<text text-anchor="middle" x="72.6515" y="-7.5" font-family="Helvetica,sans-Serif" font-size="10.00" fill="#000000">ajaexport.h</text>
</a>
</g>
</g>
<!-- Node0&#45;&gt;Node1 -->
<g id="edge1" class="edge">
<title>Node0&#45;&gt;Node1</title>
<path fill="none" stroke="#191970" d="M280.5598,-230.418C184.946,-212.0444 38.9539,-177.3125 7.6515,-132 -16.9485,-96.3898 25.3692,-50.4065 52.5302,-26.3376"/>
<polygon fill="#191970" stroke="#191970" points="55.0674,-28.7727 60.382,-19.6073 50.5117,-23.458 55.0674,-28.7727"/>
</g>
<!-- Node2 -->
<g id="node3" class="node">
<title>Node2</title>
<g id="a_node3"><a xlink:href="../../d4/dd7/ntv2publicinterface_8h.html" target="_top" xlink:title="Declares enums and structs used by all platform drivers and the SDK. ">
<polygon fill="#ffffff" stroke="#000000" points="271.1515,-168.5 271.1515,-187.5 378.1515,-187.5 378.1515,-168.5 271.1515,-168.5"/>
<text text-anchor="middle" x="324.6515" y="-175.5" font-family="Helvetica,sans-Serif" font-size="10.00" fill="#000000">ntv2publicinterface.h</text>
</a>
</g>
</g>
<!-- Node0&#45;&gt;Node2 -->
<g id="edge2" class="edge">
<title>Node0&#45;&gt;Node2</title>
<path fill="none" stroke="#191970" d="M352.9036,-224.168C347.4485,-215.2536 341.1345,-204.9356 335.8608,-196.3177"/>
<polygon fill="#191970" stroke="#191970" points="338.8416,-194.4833 330.6366,-187.7805 332.8709,-198.137 338.8416,-194.4833"/>
</g>
<!-- Node10 -->
<g id="node11" class="node">
<title>Node10</title>
<polygon fill="#ffffff" stroke="#bfbfbf" points="16.6515,-112.5 16.6515,-131.5 46.6515,-131.5 46.6515,-112.5 16.6515,-112.5"/>
<text text-anchor="middle" x="31.6515" y="-119.5" font-family="Helvetica,sans-Serif" font-size="10.00" fill="#000000">set</text>
</g>
<!-- Node0&#45;&gt;Node10 -->
<g id="edge24" class="edge">
<title>Node0&#45;&gt;Node10</title>
<path fill="none" stroke="#191970" d="M309.7474,-224.4126C236.1032,-197.2921 109.7077,-150.7453 56.4561,-131.1346"/>
<polygon fill="#191970" stroke="#191970" points="57.4118,-127.7568 46.8184,-127.5854 54.9927,-134.3256 57.4118,-127.7568"/>
</g>
<!-- Node11 -->
<g id="node12" class="node">
<title>Node11</title>
<polygon fill="#ffffff" stroke="#bfbfbf" points="725.1515,-112.5 725.1515,-131.5 760.1515,-131.5 760.1515,-112.5 725.1515,-112.5"/>
<text text-anchor="middle" x="742.6515" y="-119.5" font-family="Helvetica,sans-Serif" font-size="10.00" fill="#000000">map</text>
</g>
<!-- Node0&#45;&gt;Node11 -->
<g id="edge25" class="edge">
<title>Node0&#45;&gt;Node11</title>
<path fill="none" stroke="#191970" d="M375.825,-224.2017C385.8488,-206.1256 402.9503,-180.8766 425.6515,-168 536.127,-105.3357 587.5868,-160.6633 714.8323,-131.8943"/>
<polygon fill="#191970" stroke="#191970" points="716.0263,-135.2072 724.934,-129.471 714.3934,-128.4004 716.0263,-135.2072"/>
</g>
<!-- Node17 -->
<g id="node18" class="node">
<title>Node17</title>
<polygon fill="#ffffff" stroke="#bfbfbf" points="434.6515,-168.5 434.6515,-187.5 486.6515,-187.5 486.6515,-168.5 434.6515,-168.5"/>
<text text-anchor="middle" x="460.6515" y="-175.5" font-family="Helvetica,sans-Serif" font-size="10.00" fill="#000000">stddef.h</text>
</g>
<!-- Node0&#45;&gt;Node17 -->
<g id="edge22" class="edge">
<title>Node0&#45;&gt;Node17</title>
<path fill="none" stroke="#191970" d="M394.9298,-224.3511C409.0159,-214.4167 425.6219,-202.7051 438.6174,-193.5398"/>
<polygon fill="#191970" stroke="#191970" points="440.8072,-196.2784 446.9621,-187.6546 436.7728,-190.5579 440.8072,-196.2784"/>
</g>
<!-- Node18 -->
<g id="node19" class="node">
<title>Node18</title>
<polygon fill="#ffffff" stroke="#bfbfbf" points="504.6515,-168.5 504.6515,-187.5 556.6515,-187.5 556.6515,-168.5 504.6515,-168.5"/>
<text text-anchor="middle" x="530.6515" y="-175.5" font-family="Helvetica,sans-Serif" font-size="10.00" fill="#000000">sstream</text>
</g>
<!-- Node0&#45;&gt;Node18 -->
<g id="edge23" class="edge">
<title>Node0&#45;&gt;Node18</title>
<path fill="none" stroke="#191970" d="M416.5033,-224.3511C442.8506,-213.6525 474.2738,-200.8928 497.4743,-191.472"/>
<polygon fill="#191970" stroke="#191970" points="498.9267,-194.6598 506.8752,-187.6546 496.2931,-188.1741 498.9267,-194.6598"/>
</g>
<!-- Node2&#45;&gt;Node1 -->
<g id="edge19" class="edge">
<title>Node2&#45;&gt;Node1</title>
<path fill="none" stroke="#191970" d="M271.1021,-174.2482C210.7114,-168.8692 117.7635,-156.7497 93.6515,-132 67.0121,-104.656 67.2302,-56.5234 69.8606,-29.6144"/>
<polygon fill="#191970" stroke="#191970" points="73.3574,-29.8476 71.0643,-19.5039 66.4065,-29.02 73.3574,-29.8476"/>
</g>
<!-- Node3 -->
<g id="node4" class="node">
<title>Node3</title>
<g id="a_node4"><a xlink:href="../../db/de2/ajatypes_8h.html" target="_top" xlink:title="Declares the most fundamental data types used by NTV2. Since Windows NT was the first principal devel...">
<polygon fill="#ffffff" stroke="#000000" points="232.6515,-56.5 232.6515,-75.5 294.6515,-75.5 294.6515,-56.5 232.6515,-56.5"/>
<text text-anchor="middle" x="263.6515" y="-63.5" font-family="Helvetica,sans-Serif" font-size="10.00" fill="#000000">ajatypes.h</text>
</a>
</g>
</g>
<!-- Node2&#45;&gt;Node3 -->
<g id="edge3" class="edge">
<title>Node2&#45;&gt;Node3</title>
<path fill="none" stroke="#191970" d="M302.8857,-168.3857C288.5851,-160.773 271.0263,-148.6416 262.6515,-132 255.4161,-117.6225 256.4211,-99.1545 258.8022,-85.4123"/>
<polygon fill="#191970" stroke="#191970" points="262.2384,-86.0798 260.8758,-75.5729 255.3888,-84.6362 262.2384,-86.0798"/>
</g>
<!-- Node6 -->
<g id="node7" class="node">
<title>Node6</title>
<g id="a_node7"><a xlink:href="../../d6/d0c/ntv2enums_8h.html" target="_top" xlink:title="Enumerations for controlling NTV2 devices. ">
<polygon fill="#ffffff" stroke="#000000" points="103.1515,-112.5 103.1515,-131.5 176.1515,-131.5 176.1515,-112.5 103.1515,-112.5"/>
<text text-anchor="middle" x="139.6515" y="-119.5" font-family="Helvetica,sans-Serif" font-size="10.00" fill="#000000">ntv2enums.h</text>
</a>
</g>
</g>
<!-- Node2&#45;&gt;Node6 -->
<g id="edge6" class="edge">
<title>Node2&#45;&gt;Node6</title>
<path fill="none" stroke="#191970" d="M292.8489,-168.3733C261.8198,-158.9807 214.4761,-144.6496 180.6368,-134.4064"/>
<polygon fill="#191970" stroke="#191970" points="181.6243,-131.0485 171.0391,-131.5011 179.5962,-137.7483 181.6243,-131.0485"/>
</g>
<!-- Node8 -->
<g id="node9" class="node">
<title>Node8</title>
<polygon fill="#ffffff" stroke="#bfbfbf" points="142.1515,-.5 142.1515,-19.5 183.1515,-19.5 183.1515,-.5 142.1515,-.5"/>
<text text-anchor="middle" x="162.6515" y="-7.5" font-family="Helvetica,sans-Serif" font-size="10.00" fill="#000000">string</text>
</g>
<!-- Node2&#45;&gt;Node8 -->
<g id="edge15" class="edge">
<title>Node2&#45;&gt;Node8</title>
<path fill="none" stroke="#191970" d="M305.582,-168.3527C290.2455,-160.0259 268.6865,-146.9942 252.6515,-132 218.5577,-100.1192 188.5097,-53.8612 173.2637,-28.4453"/>
<polygon fill="#191970" stroke="#191970" points="176.2603,-26.6364 168.1677,-19.7983 170.2297,-30.1905 176.2603,-26.6364"/>
</g>
<!-- Node9 -->
<g id="node10" class="node">
<title>Node9</title>
<polygon fill="#ffffff" stroke="#bfbfbf" points="396.6515,-112.5 396.6515,-131.5 450.6515,-131.5 450.6515,-112.5 396.6515,-112.5"/>
<text text-anchor="middle" x="423.6515" y="-119.5" font-family="Helvetica,sans-Serif" font-size="10.00" fill="#000000">iostream</text>
</g>
<!-- Node2&#45;&gt;Node9 -->
<g id="edge11" class="edge">
<title>Node2&#45;&gt;Node9</title>
<path fill="none" stroke="#191970" d="M341.896,-168.2455C357.2276,-159.5731 379.8714,-146.7645 397.4431,-136.825"/>
<polygon fill="#191970" stroke="#191970" points="399.6239,-139.6126 406.6046,-131.6427 396.1774,-133.5198 399.6239,-139.6126"/>
</g>
<!-- Node2&#45;&gt;Node10 -->
<g id="edge12" class="edge">
<title>Node2&#45;&gt;Node10</title>
<path fill="none" stroke="#191970" d="M271.0255,-171.2148C217.3061,-163.8212 132.5081,-150.523 60.6515,-132 59.3751,-131.671 58.0745,-131.3121 56.7662,-130.9322"/>
<polygon fill="#191970" stroke="#191970" points="57.455,-127.4776 46.8638,-127.756 55.3169,-134.1431 57.455,-127.4776"/>
</g>
<!-- Node2&#45;&gt;Node11 -->
<g id="edge13" class="edge">
<title>Node2&#45;&gt;Node11</title>
<path fill="none" stroke="#191970" d="M378.449,-169.9094C383.2487,-169.2418 388.0361,-168.5956 392.6515,-168 533.1187,-149.8736 574.0523,-165.549 715.0607,-131.9"/>
<polygon fill="#191970" stroke="#191970" points="716.0494,-135.2617 724.9415,-129.5014 714.398,-128.4593 716.0494,-135.2617"/>
</g>
<!-- Node12 -->
<g id="node13" class="node">
<title>Node12</title>
<polygon fill="#ffffff" stroke="#bfbfbf" points="468.6515,-112.5 468.6515,-131.5 512.6515,-131.5 512.6515,-112.5 468.6515,-112.5"/>
<text text-anchor="middle" x="490.6515" y="-119.5" font-family="Helvetica,sans-Serif" font-size="10.00" fill="#000000">vector</text>
</g>
<!-- Node2&#45;&gt;Node12 -->
<g id="edge14" class="edge">
<title>Node2&#45;&gt;Node12</title>
<path fill="none" stroke="#191970" d="M353.1879,-168.3733C382.5872,-158.4554 428.3089,-143.0313 458.8514,-132.7278"/>
<polygon fill="#191970" stroke="#191970" points="460.2253,-135.9581 468.5818,-129.4452 457.9877,-129.3254 460.2253,-135.9581"/>
</g>
<!-- Node13 -->
<g id="node14" class="node">
<title>Node13</title>
<polygon fill="#ffffff" stroke="#bfbfbf" points="530.6515,-112.5 530.6515,-131.5 580.6515,-131.5 580.6515,-112.5 530.6515,-112.5"/>
<text text-anchor="middle" x="555.6515" y="-119.5" font-family="Helvetica,sans-Serif" font-size="10.00" fill="#000000">iomanip</text>
</g>
<!-- Node2&#45;&gt;Node13 -->
<g id="edge16" class="edge">
<title>Node2&#45;&gt;Node13</title>
<path fill="none" stroke="#191970" d="M368.644,-168.4769C406.4948,-160.1155 462.7772,-147.2851 520.4289,-132.2225"/>
<polygon fill="#191970" stroke="#191970" points="521.6652,-135.5164 530.445,-129.5864 519.8835,-128.7469 521.6652,-135.5164"/>
</g>
<!-- Node14 -->
<g id="node15" class="node">
<title>Node14</title>
<polygon fill="#ffffff" stroke="#bfbfbf" points="599.1515,-112.5 599.1515,-131.5 640.1515,-131.5 640.1515,-112.5 599.1515,-112.5"/>
<text text-anchor="middle" x="619.6515" y="-119.5" font-family="Helvetica,sans-Serif" font-size="10.00" fill="#000000">bitset</text>
</g>
<!-- Node2&#45;&gt;Node14 -->
<g id="edge17" class="edge">
<title>Node2&#45;&gt;Node14</title>
<path fill="none" stroke="#191970" d="M378.374,-169.6514C439.7607,-159.9515 537.4157,-143.9949 589.3598,-131.7031"/>
<polygon fill="#191970" stroke="#191970" points="590.2442,-135.0899 599.1148,-129.2965 588.5675,-128.2937 590.2442,-135.0899"/>
</g>
<!-- Node15 -->
<g id="node16" class="node">
<title>Node15</title>
<polygon fill="#ffffff" stroke="#bfbfbf" points="658.1515,-112.5 658.1515,-131.5 707.1515,-131.5 707.1515,-112.5 658.1515,-112.5"/>
<text text-anchor="middle" x="682.6515" y="-119.5" font-family="Helvetica,sans-Serif" font-size="10.00" fill="#000000">string.h</text>
</g>
<!-- Node2&#45;&gt;Node15 -->
<g id="edge18" class="edge">
<title>Node2&#45;&gt;Node15</title>
<path fill="none" stroke="#191970" d="M378.4683,-170.0511C383.2639,-169.3533 388.045,-168.6613 392.6515,-168 503.5851,-152.0736 535.2341,-156.5222 647.8381,-132.1572"/>
<polygon fill="#191970" stroke="#191970" points="648.8759,-135.5129 657.8942,-129.9521 647.3765,-128.6753 648.8759,-135.5129"/>
</g>
<!-- Node16 -->
<g id="node17" class="node">
<title>Node16</title>
<g id="a_node17"><a xlink:href="../../da/df0/ntv2virtualregisters_8h.html" target="_top" xlink:title="Declares enums for virtual registers used in all platform drivers and the SDK. ">
<polygon fill="#ffffff" stroke="#000000" points="271.1515,-112.5 271.1515,-131.5 378.1515,-131.5 378.1515,-112.5 271.1515,-112.5"/>
<text text-anchor="middle" x="324.6515" y="-119.5" font-family="Helvetica,sans-Serif" font-size="10.00" fill="#000000">ntv2virtualregisters.h</text>
</a>
</g>
</g>
<!-- Node2&#45;&gt;Node16 -->
<g id="edge20" class="edge">
<title>Node2&#45;&gt;Node16</title>
<path fill="none" stroke="#191970" d="M324.6515,-168.2455C324.6515,-160.9382 324.6515,-150.6944 324.6515,-141.7046"/>
<polygon fill="#191970" stroke="#191970" points="328.1516,-141.6426 324.6515,-131.6427 321.1516,-141.6427 328.1516,-141.6426"/>
</g>
<!-- Node4 -->
<g id="node5" class="node">
<title>Node4</title>
<g id="a_node5"><a xlink:href="../../db/d40/ntv2deprecate_8h.html" target="_top" xlink:title="Deprecation control macros. ">
<polygon fill="#ffffff" stroke="#000000" points="210.6515,-.5 210.6515,-19.5 296.6515,-19.5 296.6515,-.5 210.6515,-.5"/>
<text text-anchor="middle" x="253.6515" y="-7.5" font-family="Helvetica,sans-Serif" font-size="10.00" fill="#000000">ntv2deprecate.h</text>
</a>
</g>
</g>
<!-- Node3&#45;&gt;Node4 -->
<g id="edge4" class="edge">
<title>Node3&#45;&gt;Node4</title>
<path fill="none" stroke="#191970" d="M261.9096,-56.2455C260.6048,-48.9382 258.7755,-38.6944 257.1702,-29.7046"/>
<polygon fill="#191970" stroke="#191970" points="260.5769,-28.8717 255.3734,-19.6427 253.6859,-30.1022 260.5769,-28.8717"/>
</g>
<!-- Node5 -->
<g id="node6" class="node">
<title>Node5</title>
<polygon fill="#ffffff" stroke="#bfbfbf" points="315.1515,-.5 315.1515,-19.5 364.1515,-19.5 364.1515,-.5 315.1515,-.5"/>
<text text-anchor="middle" x="339.6515" y="-7.5" font-family="Helvetica,sans-Serif" font-size="10.00" fill="#000000">stdint.h</text>
</g>
<!-- Node3&#45;&gt;Node5 -->
<g id="edge5" class="edge">
<title>Node3&#45;&gt;Node5</title>
<path fill="none" stroke="#191970" d="M276.8897,-56.2455C288.3325,-47.814 305.0811,-35.4729 318.399,-25.6598"/>
<polygon fill="#191970" stroke="#191970" points="320.5906,-28.3924 326.565,-19.6427 316.4382,-22.757 320.5906,-28.3924"/>
</g>
<!-- Node6&#45;&gt;Node3 -->
<g id="edge7" class="edge">
<title>Node6&#45;&gt;Node3</title>
<path fill="none" stroke="#191970" d="M160.9679,-112.3733C180.8731,-103.3838 210.7951,-89.8706 233.2115,-79.7471"/>
<polygon fill="#191970" stroke="#191970" points="234.9402,-82.8068 242.6133,-75.5011 232.059,-76.4272 234.9402,-82.8068"/>
</g>
<!-- Node7 -->
<g id="node8" class="node">
<title>Node7</title>
<g id="a_node8"><a xlink:href="../../d6/db1/ntv2version_8h.html" target="_top" xlink:title="Defines for the NTV2 SDK version number, used by ajantv2/includes/ntv2enums.h. See the ajantv2/includ...">
<polygon fill="#ffffff" stroke="#000000" points="101.1515,-56.5 101.1515,-75.5 176.1515,-75.5 176.1515,-56.5 101.1515,-56.5"/>
<text text-anchor="middle" x="138.6515" y="-63.5" font-family="Helvetica,sans-Serif" font-size="10.00" fill="#000000">ntv2version.h</text>
</a>
</g>
</g>
<!-- Node6&#45;&gt;Node7 -->
<g id="edge8" class="edge">
<title>Node6&#45;&gt;Node7</title>
<path fill="none" stroke="#191970" d="M139.4773,-112.2455C139.3468,-104.9382 139.1639,-94.6944 139.0034,-85.7046"/>
<polygon fill="#191970" stroke="#191970" points="142.5018,-85.5786 138.8237,-75.6427 135.5029,-85.7036 142.5018,-85.5786"/>
</g>
<!-- Node7&#45;&gt;Node1 -->
<g id="edge9" class="edge">
<title>Node7&#45;&gt;Node1</title>
<path fill="none" stroke="#191970" d="M127.1552,-56.2455C117.4073,-47.9746 103.2256,-35.9416 91.7717,-26.2232"/>
<polygon fill="#191970" stroke="#191970" points="93.9056,-23.4437 84.0161,-19.6427 89.3768,-28.7813 93.9056,-23.4437"/>
</g>
<!-- Node7&#45;&gt;Node8 -->
<g id="edge10" class="edge">
<title>Node7&#45;&gt;Node8</title>
<path fill="none" stroke="#191970" d="M142.832,-56.2455C146.0325,-48.7776 150.5475,-38.2427 154.4599,-29.1137"/>
<polygon fill="#191970" stroke="#191970" points="157.7967,-30.2129 158.5189,-19.6427 151.3627,-27.4554 157.7967,-30.2129"/>
</g>
<!-- Node16&#45;&gt;Node3 -->
<g id="edge21" class="edge">
<title>Node16&#45;&gt;Node3</title>
<path fill="none" stroke="#191970" d="M314.0261,-112.2455C305.1042,-104.0549 292.1635,-92.1749 281.6323,-82.5069"/>
<polygon fill="#191970" stroke="#191970" points="283.8886,-79.8271 274.1551,-75.6427 279.1547,-84.9837 283.8886,-79.8271"/>
</g>
</g>
</svg>
