<?xml version="1.0" encoding="UTF-8" standalone="no"?>
<!DOCTYPE svg PUBLIC "-//W3C//DTD SVG 1.1//EN"
 "http://www.w3.org/Graphics/SVG/1.1/DTD/svg11.dtd">
<!-- Generated by graphviz version 2.43.0 (0)
 -->
<!-- Title: /home/tcbuilder/buildAgent/work/df8e8cce5bebfd58/libajantv2/ajabase/common/timebase.h Pages: 1 -->
<svg width="3610pt" height="384pt"
 viewBox="0.00 0.00 3610.00 384.00" xmlns="http://www.w3.org/2000/svg" xmlns:xlink="http://www.w3.org/1999/xlink">
<g id="graph0" class="graph" transform="scale(1 1) rotate(0) translate(4 380)">
<title>/home/tcbuilder/buildAgent/work/df8e8cce5bebfd58/libajantv2/ajabase/common/timebase.h</title>
<polygon fill="white" stroke="transparent" points="-4,4 -4,-380 3606,-380 3606,4 -4,4"/>
<!-- Node1 -->
<g id="node1" class="node">
<title>Node1</title>
<g id="a_node1"><a xlink:title="Declares the AJATimeBase class.">
<polygon fill="#bfbfbf" stroke="black" points="1657,-334.5 1657,-375.5 1845,-375.5 1845,-334.5 1657,-334.5"/>
<text text-anchor="start" x="1665" y="-363.5" font-family="Helvetica,sans-Serif" font-size="10.00">/home/tcbuilder/buildAgent</text>
<text text-anchor="start" x="1665" y="-352.5" font-family="Helvetica,sans-Serif" font-size="10.00">/work/df8e8cce5bebfd58/libajantv2</text>
<text text-anchor="middle" x="1751" y="-341.5" font-family="Helvetica,sans-Serif" font-size="10.00">/ajabase/common/timebase.h</text>
</a>
</g>
</g>
<!-- Node2 -->
<g id="node2" class="node">
<title>Node2</title>
<g id="a_node2"><a xlink:href="../../d7/dbf/timebase_8cpp.html" target="_top" xlink:title="Implements the AJATimeBase class.">
<polygon fill="white" stroke="black" points="1101,-256.5 1101,-297.5 1289,-297.5 1289,-256.5 1101,-256.5"/>
<text text-anchor="start" x="1109" y="-285.5" font-family="Helvetica,sans-Serif" font-size="10.00">/home/tcbuilder/buildAgent</text>
<text text-anchor="start" x="1109" y="-274.5" font-family="Helvetica,sans-Serif" font-size="10.00">/work/df8e8cce5bebfd58/libajantv2</text>
<text text-anchor="middle" x="1195" y="-263.5" font-family="Helvetica,sans-Serif" font-size="10.00">/ajabase/common/timebase.cpp</text>
</a>
</g>
</g>
<!-- Node1&#45;&gt;Node2 -->
<g id="edge1" class="edge">
<title>Node1&#45;&gt;Node2</title>
<path fill="none" stroke="midnightblue" d="M1646.78,-342.73C1555.83,-332.47 1420.4,-316.19 1303,-298 1298.48,-297.3 1293.85,-296.55 1289.19,-295.78"/>
<polygon fill="midnightblue" stroke="midnightblue" points="1646.49,-346.22 1656.82,-343.86 1647.27,-339.26 1646.49,-346.22"/>
</g>
<!-- Node3 -->
<g id="node3" class="node">
<title>Node3</title>
<g id="a_node3"><a xlink:href="../../d6/d23/timecode_8h.html" target="_top" xlink:title="Declares the AJATimeCode class.">
<polygon fill="white" stroke="black" points="1383,-256.5 1383,-297.5 1571,-297.5 1571,-256.5 1383,-256.5"/>
<text text-anchor="start" x="1391" y="-285.5" font-family="Helvetica,sans-Serif" font-size="10.00">/home/tcbuilder/buildAgent</text>
<text text-anchor="start" x="1391" y="-274.5" font-family="Helvetica,sans-Serif" font-size="10.00">/work/df8e8cce5bebfd58/libajantv2</text>
<text text-anchor="middle" x="1477" y="-263.5" font-family="Helvetica,sans-Serif" font-size="10.00">/ajabase/common/timecode.h</text>
</a>
</g>
</g>
<!-- Node1&#45;&gt;Node3 -->
<g id="edge2" class="edge">
<title>Node1&#45;&gt;Node3</title>
<path fill="none" stroke="midnightblue" d="M1670.67,-331.72C1631.57,-320.87 1585,-307.96 1547.32,-297.51"/>
<polygon fill="midnightblue" stroke="midnightblue" points="1669.87,-335.13 1680.44,-334.43 1671.74,-328.38 1669.87,-335.13"/>
</g>
<!-- Node5 -->
<g id="node5" class="node">
<title>Node5</title>
<g id="a_node5"><a xlink:href="../../d0/d74/wavewriter_8cpp.html" target="_top" xlink:title="Implements the AJAWavWriter class.">
<polygon fill="white" stroke="black" points="234,-173 234,-214 422,-214 422,-173 234,-173"/>
<text text-anchor="start" x="242" y="-202" font-family="Helvetica,sans-Serif" font-size="10.00">/home/tcbuilder/buildAgent</text>
<text text-anchor="start" x="242" y="-191" font-family="Helvetica,sans-Serif" font-size="10.00">/work/df8e8cce5bebfd58/libajantv2</text>
<text text-anchor="middle" x="328" y="-180" font-family="Helvetica,sans-Serif" font-size="10.00">/ajabase/common/wavewriter.cpp</text>
</a>
</g>
</g>
<!-- Node1&#45;&gt;Node5 -->
<g id="edge35" class="edge">
<title>Node1&#45;&gt;Node5</title>
<path fill="none" stroke="midnightblue" d="M1646.53,-349.02C1540.02,-342.38 1383.22,-327.81 1331,-298 1310.38,-286.23 1319.13,-266.82 1298,-256 1212.18,-212.06 526.44,-233.65 431,-220 420.51,-218.5 409.54,-216.39 398.83,-214.01"/>
<polygon fill="midnightblue" stroke="midnightblue" points="1646.49,-352.53 1656.68,-349.64 1646.91,-345.54 1646.49,-352.53"/>
</g>
<!-- Node6 -->
<g id="node6" class="node">
<title>Node6</title>
<g id="a_node6"><a xlink:href="../../d4/d23/ancillarydata__timecode_8h.html" target="_top" xlink:title="Declares the AJAAncillaryData_Timecode class.">
<polygon fill="white" stroke="black" points="440,-167.5 440,-219.5 628,-219.5 628,-167.5 440,-167.5"/>
<text text-anchor="start" x="448" y="-207.5" font-family="Helvetica,sans-Serif" font-size="10.00">/home/tcbuilder/buildAgent</text>
<text text-anchor="start" x="448" y="-196.5" font-family="Helvetica,sans-Serif" font-size="10.00">/work/df8e8cce5bebfd58/libajantv2</text>
<text text-anchor="start" x="448" y="-185.5" font-family="Helvetica,sans-Serif" font-size="10.00">/ajaanc/includes/ancillarydata</text>
<text text-anchor="middle" x="534" y="-174.5" font-family="Helvetica,sans-Serif" font-size="10.00">_timecode.h</text>
</a>
</g>
</g>
<!-- Node1&#45;&gt;Node6 -->
<g id="edge36" class="edge">
<title>Node1&#45;&gt;Node6</title>
<path fill="none" stroke="midnightblue" d="M1646.39,-345.71C1551.83,-336.92 1420.54,-321.09 1374,-298 1350.07,-286.13 1355.47,-266.72 1331,-256 1189.54,-194.06 789.76,-242.66 637,-220 634.08,-219.57 631.13,-219.09 628.16,-218.57"/>
<polygon fill="midnightblue" stroke="midnightblue" points="1646.3,-349.22 1656.58,-346.65 1646.94,-342.25 1646.3,-349.22"/>
</g>
<!-- Node18 -->
<g id="node18" class="node">
<title>Node18</title>
<g id="a_node18"><a xlink:href="../../dc/db3/ntv2encodehevc_8h.html" target="_top" xlink:title="Declares the NTV2EncodeHEVC class.">
<polygon fill="white" stroke="black" points="1542,-173 1542,-214 1770,-214 1770,-173 1542,-173"/>
<text text-anchor="start" x="1550" y="-202" font-family="Helvetica,sans-Serif" font-size="10.00">/home/tcbuilder/buildAgent</text>
<text text-anchor="start" x="1550" y="-191" font-family="Helvetica,sans-Serif" font-size="10.00">/work/df8e8cce5bebfd58/libajantv2</text>
<text text-anchor="middle" x="1656" y="-180" font-family="Helvetica,sans-Serif" font-size="10.00">/demos/ntv2encodehevc/ntv2encodehevc.h</text>
</a>
</g>
</g>
<!-- Node1&#45;&gt;Node18 -->
<g id="edge38" class="edge">
<title>Node1&#45;&gt;Node18</title>
<path fill="none" stroke="midnightblue" d="M1708.84,-328.27C1698.02,-319.85 1687.37,-309.62 1680,-298 1663.6,-272.15 1658.37,-236.3 1656.73,-214.3"/>
<polygon fill="midnightblue" stroke="midnightblue" points="1706.96,-331.24 1717.09,-334.36 1711.12,-325.61 1706.96,-331.24"/>
</g>
<!-- Node21 -->
<g id="node21" class="node">
<title>Node21</title>
<g id="a_node21"><a xlink:href="../../d7/d9c/ntv2encodehevcfile_8h.html" target="_top" xlink:title="Declares the NTV2EncodeHEVCFile class.">
<polygon fill="white" stroke="black" points="1788,-173 1788,-214 2046,-214 2046,-173 1788,-173"/>
<text text-anchor="start" x="1796" y="-202" font-family="Helvetica,sans-Serif" font-size="10.00">/home/tcbuilder/buildAgent</text>
<text text-anchor="start" x="1796" y="-191" font-family="Helvetica,sans-Serif" font-size="10.00">/work/df8e8cce5bebfd58/libajantv2</text>
<text text-anchor="middle" x="1917" y="-180" font-family="Helvetica,sans-Serif" font-size="10.00">/demos/ntv2encodehevcfile/ntv2encodehevcfile.h</text>
</a>
</g>
</g>
<!-- Node1&#45;&gt;Node21 -->
<g id="edge39" class="edge">
<title>Node1&#45;&gt;Node21</title>
<path fill="none" stroke="midnightblue" d="M1728.62,-325.87C1714.93,-305.01 1702.71,-276.73 1718,-256 1730.61,-238.9 1773.57,-224.54 1816.36,-214.01"/>
<polygon fill="midnightblue" stroke="midnightblue" points="1725.92,-328.11 1734.51,-334.31 1731.66,-324.1 1725.92,-328.11"/>
</g>
<!-- Node24 -->
<g id="node24" class="node">
<title>Node24</title>
<g id="a_node24"><a xlink:href="../../d0/d57/ntv2encodehevcfileac_8h.html" target="_top" xlink:title="Declares the NTV2EncodeHEVCFileAc class.">
<polygon fill="white" stroke="black" points="2064.5,-173 2064.5,-214 2333.5,-214 2333.5,-173 2064.5,-173"/>
<text text-anchor="start" x="2072.5" y="-202" font-family="Helvetica,sans-Serif" font-size="10.00">/home/tcbuilder/buildAgent</text>
<text text-anchor="start" x="2072.5" y="-191" font-family="Helvetica,sans-Serif" font-size="10.00">/work/df8e8cce5bebfd58/libajantv2</text>
<text text-anchor="middle" x="2199" y="-180" font-family="Helvetica,sans-Serif" font-size="10.00">/demos/ntv2encodehevcfile/ntv2encodehevcfileac.h</text>
</a>
</g>
</g>
<!-- Node1&#45;&gt;Node24 -->
<g id="edge40" class="edge">
<title>Node1&#45;&gt;Node24</title>
<path fill="none" stroke="midnightblue" d="M1743.38,-324.22C1739.77,-302.51 1739.32,-273.87 1756,-256 1801.67,-207.08 1988.8,-229.84 2055,-220 2067.18,-218.19 2079.91,-216.15 2092.55,-214.03"/>
<polygon fill="midnightblue" stroke="midnightblue" points="1739.99,-325.1 1745.35,-334.24 1746.86,-323.76 1739.99,-325.1"/>
</g>
<!-- Node26 -->
<g id="node26" class="node">
<title>Node26</title>
<g id="a_node26"><a xlink:href="../../d6/dde/ntv2encodehevcvif_8h.html" target="_top" xlink:title="Declares the NTV2EncodeHEVCVif class.">
<polygon fill="white" stroke="black" points="2351.5,-173 2351.5,-214 2604.5,-214 2604.5,-173 2351.5,-173"/>
<text text-anchor="start" x="2359.5" y="-202" font-family="Helvetica,sans-Serif" font-size="10.00">/home/tcbuilder/buildAgent</text>
<text text-anchor="start" x="2359.5" y="-191" font-family="Helvetica,sans-Serif" font-size="10.00">/work/df8e8cce5bebfd58/libajantv2</text>
<text text-anchor="middle" x="2478" y="-180" font-family="Helvetica,sans-Serif" font-size="10.00">/demos/ntv2encodehevcvif/ntv2encodehevcvif.h</text>
</a>
</g>
</g>
<!-- Node1&#45;&gt;Node26 -->
<g id="edge41" class="edge">
<title>Node1&#45;&gt;Node26</title>
<path fill="none" stroke="midnightblue" d="M1755.54,-324.55C1760.71,-301.84 1771.57,-271.72 1794,-256 1844.06,-220.91 2282.35,-227.69 2343,-220 2355.78,-218.38 2369.17,-216.31 2382.35,-214.05"/>
<polygon fill="midnightblue" stroke="midnightblue" points="1752.1,-323.89 1753.54,-334.39 1758.96,-325.29 1752.1,-323.89"/>
</g>
<!-- Node29 -->
<g id="node29" class="node">
<title>Node29</title>
<g id="a_node29"><a xlink:href="../../d8/d3c/ntv2encodehevcvifac_8h.html" target="_top" xlink:title="Declares the NTV2EncodeHEVCVifAc class.">
<polygon fill="white" stroke="black" points="2622.5,-173 2622.5,-214 2887.5,-214 2887.5,-173 2622.5,-173"/>
<text text-anchor="start" x="2630.5" y="-202" font-family="Helvetica,sans-Serif" font-size="10.00">/home/tcbuilder/buildAgent</text>
<text text-anchor="start" x="2630.5" y="-191" font-family="Helvetica,sans-Serif" font-size="10.00">/work/df8e8cce5bebfd58/libajantv2</text>
<text text-anchor="middle" x="2755" y="-180" font-family="Helvetica,sans-Serif" font-size="10.00">/demos/ntv2encodehevcvif/ntv2encodehevcvifac.h</text>
</a>
</g>
</g>
<!-- Node1&#45;&gt;Node29 -->
<g id="edge42" class="edge">
<title>Node1&#45;&gt;Node29</title>
<path fill="none" stroke="midnightblue" d="M1771.87,-326.29C1793.29,-298.04 1824.04,-258.04 1828,-256 1905.73,-215.99 2527.13,-229.8 2614,-220 2627.84,-218.44 2642.38,-216.34 2656.64,-214.01"/>
<polygon fill="midnightblue" stroke="midnightblue" points="1769.08,-324.18 1765.83,-334.27 1774.66,-328.41 1769.08,-324.18"/>
</g>
<!-- Node34 -->
<g id="node34" class="node">
<title>Node34</title>
<g id="a_node34"><a xlink:href="../../d5/d9e/ntv2dolbyplayer_8cpp.html" target="_top" xlink:title="Implementation of NTV2DolbyPlayer class.">
<polygon fill="white" stroke="black" points="1836.5,-256.5 1836.5,-297.5 2073.5,-297.5 2073.5,-256.5 1836.5,-256.5"/>
<text text-anchor="start" x="1844.5" y="-285.5" font-family="Helvetica,sans-Serif" font-size="10.00">/home/tcbuilder/buildAgent</text>
<text text-anchor="start" x="1844.5" y="-274.5" font-family="Helvetica,sans-Serif" font-size="10.00">/work/df8e8cce5bebfd58/libajantv2</text>
<text text-anchor="middle" x="1955" y="-263.5" font-family="Helvetica,sans-Serif" font-size="10.00">/demos/ntv2dolbyplayer/ntv2dolbyplayer.cpp</text>
</a>
</g>
</g>
<!-- Node1&#45;&gt;Node34 -->
<g id="edge37" class="edge">
<title>Node1&#45;&gt;Node34</title>
<path fill="none" stroke="midnightblue" d="M1813.04,-330.89C1841.68,-320.22 1875.31,-307.69 1902.64,-297.51"/>
<polygon fill="midnightblue" stroke="midnightblue" points="1811.68,-327.66 1803.54,-334.43 1814.13,-334.22 1811.68,-327.66"/>
</g>
<!-- Node35 -->
<g id="node35" class="node">
<title>Node35</title>
<g id="a_node35"><a xlink:href="../../d7/d6f/ntv2player_8cpp.html" target="_top" xlink:title="Implementation of NTV2Player class.">
<polygon fill="white" stroke="black" points="2092,-256.5 2092,-297.5 2280,-297.5 2280,-256.5 2092,-256.5"/>
<text text-anchor="start" x="2100" y="-285.5" font-family="Helvetica,sans-Serif" font-size="10.00">/home/tcbuilder/buildAgent</text>
<text text-anchor="start" x="2100" y="-274.5" font-family="Helvetica,sans-Serif" font-size="10.00">/work/df8e8cce5bebfd58/libajantv2</text>
<text text-anchor="middle" x="2186" y="-263.5" font-family="Helvetica,sans-Serif" font-size="10.00">/demos/ntv2player/ntv2player.cpp</text>
</a>
</g>
</g>
<!-- Node1&#45;&gt;Node35 -->
<g id="edge43" class="edge">
<title>Node1&#45;&gt;Node35</title>
<path fill="none" stroke="midnightblue" d="M1855.12,-337.12C1920.6,-326.33 2006.82,-311.82 2083,-298 2085.96,-297.46 2088.96,-296.91 2091.99,-296.35"/>
<polygon fill="midnightblue" stroke="midnightblue" points="1854.5,-333.67 1845.2,-338.75 1855.64,-340.58 1854.5,-333.67"/>
</g>
<!-- Node36 -->
<g id="node36" class="node">
<title>Node36</title>
<g id="a_node36"><a xlink:href="../../d2/d98/ntv2player4k_8cpp.html" target="_top" xlink:title="Implementation of ntv2player4k class.">
<polygon fill="white" stroke="black" points="2298,-256.5 2298,-297.5 2506,-297.5 2506,-256.5 2298,-256.5"/>
<text text-anchor="start" x="2306" y="-285.5" font-family="Helvetica,sans-Serif" font-size="10.00">/home/tcbuilder/buildAgent</text>
<text text-anchor="start" x="2306" y="-274.5" font-family="Helvetica,sans-Serif" font-size="10.00">/work/df8e8cce5bebfd58/libajantv2</text>
<text text-anchor="middle" x="2402" y="-263.5" font-family="Helvetica,sans-Serif" font-size="10.00">/demos/ntv2player4k/ntv2player4k.cpp</text>
</a>
</g>
</g>
<!-- Node1&#45;&gt;Node36 -->
<g id="edge44" class="edge">
<title>Node1&#45;&gt;Node36</title>
<path fill="none" stroke="midnightblue" d="M1855,-345.39C1963.57,-335.89 2138.62,-319.11 2289,-298 2291.96,-297.58 2294.96,-297.15 2297.99,-296.7"/>
<polygon fill="midnightblue" stroke="midnightblue" points="1854.69,-341.91 1845.03,-346.26 1855.3,-348.88 1854.69,-341.91"/>
</g>
<!-- Node37 -->
<g id="node37" class="node">
<title>Node37</title>
<g id="a_node37"><a xlink:href="../../db/d11/ntv2player8k_8cpp.html" target="_top" xlink:title="Implementation of ntv2player8k class.">
<polygon fill="white" stroke="black" points="2524,-256.5 2524,-297.5 2732,-297.5 2732,-256.5 2524,-256.5"/>
<text text-anchor="start" x="2532" y="-285.5" font-family="Helvetica,sans-Serif" font-size="10.00">/home/tcbuilder/buildAgent</text>
<text text-anchor="start" x="2532" y="-274.5" font-family="Helvetica,sans-Serif" font-size="10.00">/work/df8e8cce5bebfd58/libajantv2</text>
<text text-anchor="middle" x="2628" y="-263.5" font-family="Helvetica,sans-Serif" font-size="10.00">/demos/ntv2player8k/ntv2player8k.cpp</text>
</a>
</g>
</g>
<!-- Node1&#45;&gt;Node37 -->
<g id="edge45" class="edge">
<title>Node1&#45;&gt;Node37</title>
<path fill="none" stroke="midnightblue" d="M1855.49,-349.72C2002.94,-342.92 2280.28,-327.3 2515,-298 2517.87,-297.64 2520.77,-297.26 2523.7,-296.86"/>
<polygon fill="midnightblue" stroke="midnightblue" points="1854.93,-346.24 1845.1,-350.2 1855.25,-353.24 1854.93,-346.24"/>
</g>
<!-- Node38 -->
<g id="node38" class="node">
<title>Node38</title>
<g id="a_node38"><a xlink:href="../../d2/de1/ntv2streamplayer_8cpp.html" target="_top" xlink:title="Implementation of NTV2StreamPlayer class.">
<polygon fill="white" stroke="black" points="2750,-256.5 2750,-297.5 3002,-297.5 3002,-256.5 2750,-256.5"/>
<text text-anchor="start" x="2758" y="-285.5" font-family="Helvetica,sans-Serif" font-size="10.00">/home/tcbuilder/buildAgent</text>
<text text-anchor="start" x="2758" y="-274.5" font-family="Helvetica,sans-Serif" font-size="10.00">/work/df8e8cce5bebfd58/libajantv2</text>
<text text-anchor="middle" x="2876" y="-263.5" font-family="Helvetica,sans-Serif" font-size="10.00">/demos/ntv2streamplayer/ntv2streamplayer.cpp</text>
</a>
</g>
</g>
<!-- Node1&#45;&gt;Node38 -->
<g id="edge46" class="edge">
<title>Node1&#45;&gt;Node38</title>
<path fill="none" stroke="midnightblue" d="M1855.09,-351.21C2035.76,-345.68 2418.91,-330.9 2741,-298 2743.95,-297.7 2746.93,-297.38 2749.93,-297.04"/>
<polygon fill="midnightblue" stroke="midnightblue" points="1854.96,-347.72 1845.07,-351.52 1855.17,-354.71 1854.96,-347.72"/>
</g>
<!-- Node4 -->
<g id="node4" class="node">
<title>Node4</title>
<g id="a_node4"><a xlink:href="../../d8/d99/timecode_8cpp.html" target="_top" xlink:title="Implements the AJATimeCode class.">
<polygon fill="white" stroke="black" points="868,-173 868,-214 1056,-214 1056,-173 868,-173"/>
<text text-anchor="start" x="876" y="-202" font-family="Helvetica,sans-Serif" font-size="10.00">/home/tcbuilder/buildAgent</text>
<text text-anchor="start" x="876" y="-191" font-family="Helvetica,sans-Serif" font-size="10.00">/work/df8e8cce5bebfd58/libajantv2</text>
<text text-anchor="middle" x="962" y="-180" font-family="Helvetica,sans-Serif" font-size="10.00">/ajabase/common/timecode.cpp</text>
</a>
</g>
</g>
<!-- Node3&#45;&gt;Node4 -->
<g id="edge3" class="edge">
<title>Node3&#45;&gt;Node4</title>
<path fill="none" stroke="midnightblue" d="M1372.84,-256.59C1371.55,-256.39 1370.27,-256.19 1369,-256 1234.48,-235.6 1198.85,-244.4 1065,-220 1055.67,-218.3 1045.92,-216.25 1036.3,-214.06"/>
<polygon fill="midnightblue" stroke="midnightblue" points="1372.39,-260.06 1382.82,-258.18 1373.5,-253.15 1372.39,-260.06"/>
</g>
<!-- Node3&#45;&gt;Node5 -->
<g id="edge4" class="edge">
<title>Node3&#45;&gt;Node5</title>
<path fill="none" stroke="midnightblue" d="M1372.75,-260.48C1358.74,-258.75 1344.53,-257.19 1331,-256 932.23,-220.79 827.33,-276.39 431,-220 420.51,-218.51 409.54,-216.4 398.83,-214.03"/>
<polygon fill="midnightblue" stroke="midnightblue" points="1372.55,-263.98 1382.9,-261.76 1373.42,-257.03 1372.55,-263.98"/>
</g>
<!-- Node3&#45;&gt;Node6 -->
<g id="edge5" class="edge">
<title>Node3&#45;&gt;Node6</title>
<path fill="none" stroke="midnightblue" d="M1372.86,-256.47C1371.56,-256.3 1370.28,-256.15 1369,-256 1045.47,-218.26 959.27,-267.36 637,-220 634.08,-219.57 631.13,-219.1 628.15,-218.58"/>
<polygon fill="midnightblue" stroke="midnightblue" points="1372.49,-259.95 1382.87,-257.8 1373.42,-253.01 1372.49,-259.95"/>
</g>
<!-- Node10 -->
<g id="node10" class="node">
<title>Node10</title>
<g id="a_node10"><a xlink:href="../../df/dc3/ntv2autocirculate_8cpp.html" target="_top" xlink:title="Implements the CNTV2Card AutoCirculate API functions.">
<polygon fill="white" stroke="black" points="849,-0.5 849,-41.5 1037,-41.5 1037,-0.5 849,-0.5"/>
<text text-anchor="start" x="857" y="-29.5" font-family="Helvetica,sans-Serif" font-size="10.00">/home/tcbuilder/buildAgent</text>
<text text-anchor="start" x="857" y="-18.5" font-family="Helvetica,sans-Serif" font-size="10.00">/work/df8e8cce5bebfd58/libajantv2</text>
<text text-anchor="middle" x="943" y="-7.5" font-family="Helvetica,sans-Serif" font-size="10.00">/ajantv2/src/ntv2autocirculate.cpp</text>
</a>
</g>
</g>
<!-- Node3&#45;&gt;Node10 -->
<g id="edge34" class="edge">
<title>Node3&#45;&gt;Node10</title>
<path fill="none" stroke="midnightblue" d="M1374.86,-253.27C1351.83,-245.17 1328.47,-234.35 1309,-220 1285.67,-202.8 1295.16,-183.01 1271,-167 1210.23,-126.75 1171.77,-171.25 1111,-131 1086.84,-114.99 1095.58,-96.17 1073,-78 1053.67,-62.44 1029.35,-50.44 1007,-41.61"/>
<polygon fill="midnightblue" stroke="midnightblue" points="1373.76,-256.59 1384.35,-256.47 1375.99,-249.96 1373.76,-256.59"/>
</g>
<!-- Node14 -->
<g id="node14" class="node">
<title>Node14</title>
<g id="a_node14"><a xlink:href="../../da/d4f/ntv2ccgrabber_8h.html" target="_top" xlink:title="Header file for NTV2CCGrabber demonstration class.">
<polygon fill="white" stroke="black" points="1318,-173 1318,-214 1524,-214 1524,-173 1318,-173"/>
<text text-anchor="start" x="1326" y="-202" font-family="Helvetica,sans-Serif" font-size="10.00">/home/tcbuilder/buildAgent</text>
<text text-anchor="start" x="1326" y="-191" font-family="Helvetica,sans-Serif" font-size="10.00">/work/df8e8cce5bebfd58/libajantv2</text>
<text text-anchor="middle" x="1421" y="-180" font-family="Helvetica,sans-Serif" font-size="10.00">/demos/ntv2ccgrabber/ntv2ccgrabber.h</text>
</a>
</g>
</g>
<!-- Node3&#45;&gt;Node14 -->
<g id="edge14" class="edge">
<title>Node3&#45;&gt;Node14</title>
<path fill="none" stroke="midnightblue" d="M1457.57,-247.72C1449.94,-236.61 1441.36,-224.13 1434.43,-214.05"/>
<polygon fill="midnightblue" stroke="midnightblue" points="1454.9,-250.01 1463.44,-256.27 1460.67,-246.05 1454.9,-250.01"/>
</g>
<!-- Node17 -->
<g id="node17" class="node">
<title>Node17</title>
<g id="a_node17"><a xlink:href="../../de/d67/ntv2ccplayer_8cpp.html" target="_top" xlink:title="Implementation of NTV2CCPlayer class.">
<polygon fill="white" stroke="black" points="646,-173 646,-214 850,-214 850,-173 646,-173"/>
<text text-anchor="start" x="654" y="-202" font-family="Helvetica,sans-Serif" font-size="10.00">/home/tcbuilder/buildAgent</text>
<text text-anchor="start" x="654" y="-191" font-family="Helvetica,sans-Serif" font-size="10.00">/work/df8e8cce5bebfd58/libajantv2</text>
<text text-anchor="middle" x="748" y="-180" font-family="Helvetica,sans-Serif" font-size="10.00">/demos/ntv2ccplayer/ntv2ccplayer.cpp</text>
</a>
</g>
</g>
<!-- Node3&#45;&gt;Node17 -->
<g id="edge17" class="edge">
<title>Node3&#45;&gt;Node17</title>
<path fill="none" stroke="midnightblue" d="M1372.85,-256.5C1371.56,-256.33 1370.28,-256.16 1369,-256 1143.59,-227.27 1083.74,-253.54 859,-220 848.24,-218.39 836.99,-216.3 825.94,-214.01"/>
<polygon fill="midnightblue" stroke="midnightblue" points="1372.46,-259.98 1382.86,-257.92 1373.44,-253.05 1372.46,-259.98"/>
</g>
<!-- Node3&#45;&gt;Node18 -->
<g id="edge18" class="edge">
<title>Node3&#45;&gt;Node18</title>
<path fill="none" stroke="midnightblue" d="M1529.08,-252.29C1555.78,-240.13 1587.91,-225.5 1613.17,-214"/>
<polygon fill="midnightblue" stroke="midnightblue" points="1527.53,-249.15 1519.87,-256.48 1530.43,-255.52 1527.53,-249.15"/>
</g>
<!-- Node3&#45;&gt;Node21 -->
<g id="edge21" class="edge">
<title>Node3&#45;&gt;Node21</title>
<path fill="none" stroke="midnightblue" d="M1581.21,-256.7C1650.69,-243.83 1741.71,-226.97 1811.46,-214.05"/>
<polygon fill="midnightblue" stroke="midnightblue" points="1580.32,-253.3 1571.12,-258.57 1581.59,-260.19 1580.32,-253.3"/>
</g>
<!-- Node3&#45;&gt;Node24 -->
<g id="edge24" class="edge">
<title>Node3&#45;&gt;Node24</title>
<path fill="none" stroke="midnightblue" d="M1581.15,-266.9C1722.12,-254.42 1966.23,-232.14 2055,-220 2067.7,-218.26 2081,-216.22 2094.16,-214.06"/>
<polygon fill="midnightblue" stroke="midnightblue" points="1580.83,-263.42 1571.18,-267.78 1581.45,-270.39 1580.83,-263.42"/>
</g>
<!-- Node3&#45;&gt;Node26 -->
<g id="edge26" class="edge">
<title>Node3&#45;&gt;Node26</title>
<path fill="none" stroke="midnightblue" d="M1581.24,-268.27C1633.66,-264.45 1698.19,-259.84 1756,-256 2016.8,-238.66 2083.63,-252.32 2343,-220 2355.9,-218.39 2369.43,-216.31 2382.73,-214.04"/>
<polygon fill="midnightblue" stroke="midnightblue" points="1580.98,-264.78 1571.26,-269 1581.49,-271.76 1580.98,-264.78"/>
</g>
<!-- Node3&#45;&gt;Node29 -->
<g id="edge29" class="edge">
<title>Node3&#45;&gt;Node29</title>
<path fill="none" stroke="midnightblue" d="M1581.44,-268.91C1643.24,-264.84 1723.06,-259.79 1794,-256 2158.27,-236.51 2251.47,-260.55 2614,-220 2627.84,-218.45 2642.38,-216.36 2656.64,-214.04"/>
<polygon fill="midnightblue" stroke="midnightblue" points="1581.04,-265.43 1571.29,-269.58 1581.5,-272.41 1581.04,-265.43"/>
</g>
<!-- Node31 -->
<g id="node31" class="node">
<title>Node31</title>
<g id="a_node31"><a xlink:href="../../df/dc7/ntv2llburn_8h.html" target="_top" xlink:title="Header file for the low latency NTV2Burn demonstration class.">
<polygon fill="white" stroke="black" points="1074,-173 1074,-214 1262,-214 1262,-173 1074,-173"/>
<text text-anchor="start" x="1082" y="-202" font-family="Helvetica,sans-Serif" font-size="10.00">/home/tcbuilder/buildAgent</text>
<text text-anchor="start" x="1082" y="-191" font-family="Helvetica,sans-Serif" font-size="10.00">/work/df8e8cce5bebfd58/libajantv2</text>
<text text-anchor="middle" x="1168" y="-180" font-family="Helvetica,sans-Serif" font-size="10.00">/demos/ntv2llburn/ntv2llburn.h</text>
</a>
</g>
</g>
<!-- Node3&#45;&gt;Node31 -->
<g id="edge31" class="edge">
<title>Node3&#45;&gt;Node31</title>
<path fill="none" stroke="midnightblue" d="M1393.09,-253.87C1345.87,-241.41 1287.44,-226 1241.94,-214"/>
<polygon fill="midnightblue" stroke="midnightblue" points="1392.42,-257.31 1402.99,-256.48 1394.21,-250.54 1392.42,-257.31"/>
</g>
<!-- Node7 -->
<g id="node7" class="node">
<title>Node7</title>
<g id="a_node7"><a xlink:href="../../d5/d41/ancillarydata__timecode__atc_8h.html" target="_top" xlink:title="Declares the AJAAncillaryData_Timecode_ATC class.">
<polygon fill="white" stroke="black" points="464,-78.5 464,-130.5 652,-130.5 652,-78.5 464,-78.5"/>
<text text-anchor="start" x="472" y="-118.5" font-family="Helvetica,sans-Serif" font-size="10.00">/home/tcbuilder/buildAgent</text>
<text text-anchor="start" x="472" y="-107.5" font-family="Helvetica,sans-Serif" font-size="10.00">/work/df8e8cce5bebfd58/libajantv2</text>
<text text-anchor="start" x="472" y="-96.5" font-family="Helvetica,sans-Serif" font-size="10.00">/ajaanc/includes/ancillarydata</text>
<text text-anchor="middle" x="558" y="-85.5" font-family="Helvetica,sans-Serif" font-size="10.00">_timecode_atc.h</text>
</a>
</g>
</g>
<!-- Node6&#45;&gt;Node7 -->
<g id="edge6" class="edge">
<title>Node6&#45;&gt;Node7</title>
<path fill="none" stroke="midnightblue" d="M543.66,-157.48C546.14,-148.49 548.76,-138.99 551.07,-130.61"/>
<polygon fill="midnightblue" stroke="midnightblue" points="540.23,-156.77 540.94,-167.34 546.98,-158.63 540.23,-156.77"/>
</g>
<!-- Node11 -->
<g id="node11" class="node">
<title>Node11</title>
<g id="a_node11"><a xlink:href="../../d4/d69/ancillarydata__timecode__vitc_8h.html" target="_top" xlink:title="Declares the AJAAncillaryData_Timecode_VITC class.">
<polygon fill="white" stroke="black" points="32,-78.5 32,-130.5 220,-130.5 220,-78.5 32,-78.5"/>
<text text-anchor="start" x="40" y="-118.5" font-family="Helvetica,sans-Serif" font-size="10.00">/home/tcbuilder/buildAgent</text>
<text text-anchor="start" x="40" y="-107.5" font-family="Helvetica,sans-Serif" font-size="10.00">/work/df8e8cce5bebfd58/libajantv2</text>
<text text-anchor="start" x="40" y="-96.5" font-family="Helvetica,sans-Serif" font-size="10.00">/ajaanc/includes/ancillarydata</text>
<text text-anchor="middle" x="126" y="-85.5" font-family="Helvetica,sans-Serif" font-size="10.00">_timecode_vitc.h</text>
</a>
</g>
</g>
<!-- Node6&#45;&gt;Node11 -->
<g id="edge10" class="edge">
<title>Node6&#45;&gt;Node11</title>
<path fill="none" stroke="midnightblue" d="M429.97,-166.84C340.11,-148.14 315.15,-149.32 229,-131 226.12,-130.39 223.19,-129.75 220.24,-129.1"/>
<polygon fill="midnightblue" stroke="midnightblue" points="429.25,-170.27 439.76,-168.9 430.69,-163.42 429.25,-170.27"/>
</g>
<!-- Node13 -->
<g id="node13" class="node">
<title>Node13</title>
<g id="a_node13"><a xlink:href="../../d9/d0e/ancillarydata__timecode_8cpp.html" target="_top" xlink:title="Implements the AJAAncillaryData_Timecode class.">
<polygon fill="white" stroke="black" points="238.5,-84 238.5,-125 445.5,-125 445.5,-84 238.5,-84"/>
<text text-anchor="start" x="246.5" y="-113" font-family="Helvetica,sans-Serif" font-size="10.00">/home/tcbuilder/buildAgent</text>
<text text-anchor="start" x="246.5" y="-102" font-family="Helvetica,sans-Serif" font-size="10.00">/work/df8e8cce5bebfd58/libajantv2</text>
<text text-anchor="middle" x="342" y="-91" font-family="Helvetica,sans-Serif" font-size="10.00">/ajaanc/src/ancillarydata_timecode.cpp</text>
</a>
</g>
</g>
<!-- Node6&#45;&gt;Node13 -->
<g id="edge13" class="edge">
<title>Node6&#45;&gt;Node13</title>
<path fill="none" stroke="midnightblue" d="M469.5,-163.27C441.79,-150.72 410.16,-136.38 385.33,-125.13"/>
<polygon fill="midnightblue" stroke="midnightblue" points="468.17,-166.51 478.72,-167.45 471.06,-160.14 468.17,-166.51"/>
</g>
<!-- Node8 -->
<g id="node8" class="node">
<title>Node8</title>
<g id="a_node8"><a xlink:href="../../de/d7a/ancillarydata__timecode__atc_8cpp.html" target="_top" xlink:title="Implements the AJAAncillaryData_Timecode_ATC class.">
<polygon fill="white" stroke="black" points="455.5,-0.5 455.5,-41.5 682.5,-41.5 682.5,-0.5 455.5,-0.5"/>
<text text-anchor="start" x="463.5" y="-29.5" font-family="Helvetica,sans-Serif" font-size="10.00">/home/tcbuilder/buildAgent</text>
<text text-anchor="start" x="463.5" y="-18.5" font-family="Helvetica,sans-Serif" font-size="10.00">/work/df8e8cce5bebfd58/libajantv2</text>
<text text-anchor="middle" x="569" y="-7.5" font-family="Helvetica,sans-Serif" font-size="10.00">/ajaanc/src/ancillarydata_timecode_atc.cpp</text>
</a>
</g>
</g>
<!-- Node7&#45;&gt;Node8 -->
<g id="edge7" class="edge">
<title>Node7&#45;&gt;Node8</title>
<path fill="none" stroke="midnightblue" d="M562.77,-68.15C564,-59.05 565.28,-49.6 566.35,-41.63"/>
<polygon fill="midnightblue" stroke="midnightblue" points="559.29,-67.78 561.42,-78.16 566.23,-68.72 559.29,-67.78"/>
</g>
<!-- Node9 -->
<g id="node9" class="node">
<title>Node9</title>
<g id="a_node9"><a xlink:href="../../da/d7b/ancillarydatafactory_8cpp.html" target="_top" xlink:title="Implementation of the AJAAncillaryDataFactory class.">
<polygon fill="white" stroke="black" points="248.5,-0.5 248.5,-41.5 437.5,-41.5 437.5,-0.5 248.5,-0.5"/>
<text text-anchor="start" x="256.5" y="-29.5" font-family="Helvetica,sans-Serif" font-size="10.00">/home/tcbuilder/buildAgent</text>
<text text-anchor="start" x="256.5" y="-18.5" font-family="Helvetica,sans-Serif" font-size="10.00">/work/df8e8cce5bebfd58/libajantv2</text>
<text text-anchor="middle" x="343" y="-7.5" font-family="Helvetica,sans-Serif" font-size="10.00">/ajaanc/src/ancillarydatafactory.cpp</text>
</a>
</g>
</g>
<!-- Node7&#45;&gt;Node9 -->
<g id="edge8" class="edge">
<title>Node7&#45;&gt;Node9</title>
<path fill="none" stroke="midnightblue" d="M482.32,-74.81C453.26,-63.8 420.78,-51.49 394.51,-41.52"/>
<polygon fill="midnightblue" stroke="midnightblue" points="481.44,-78.22 492.03,-78.49 483.92,-71.68 481.44,-78.22"/>
</g>
<!-- Node7&#45;&gt;Node10 -->
<g id="edge9" class="edge">
<title>Node7&#45;&gt;Node10</title>
<path fill="none" stroke="midnightblue" d="M662.25,-77.76C729.93,-62.79 796.43,-49.6 848.77,-39.57"/>
<polygon fill="midnightblue" stroke="midnightblue" points="661.26,-74.39 652.26,-79.98 662.78,-81.22 661.26,-74.39"/>
</g>
<!-- Node11&#45;&gt;Node9 -->
<g id="edge12" class="edge">
<title>Node11&#45;&gt;Node9</title>
<path fill="none" stroke="midnightblue" d="M202,-74.96C231.43,-63.9 264.38,-51.53 291.02,-41.52"/>
<polygon fill="midnightblue" stroke="midnightblue" points="200.71,-71.7 192.58,-78.49 203.17,-78.25 200.71,-71.7"/>
</g>
<!-- Node12 -->
<g id="node12" class="node">
<title>Node12</title>
<g id="a_node12"><a xlink:href="../../d3/de1/ancillarydata__timecode__vitc_8cpp.html" target="_top" xlink:title="Implements the AJAAncillaryData_Timecode_VITC class.">
<polygon fill="white" stroke="black" points="0,-0.5 0,-41.5 230,-41.5 230,-0.5 0,-0.5"/>
<text text-anchor="start" x="8" y="-29.5" font-family="Helvetica,sans-Serif" font-size="10.00">/home/tcbuilder/buildAgent</text>
<text text-anchor="start" x="8" y="-18.5" font-family="Helvetica,sans-Serif" font-size="10.00">/work/df8e8cce5bebfd58/libajantv2</text>
<text text-anchor="middle" x="115" y="-7.5" font-family="Helvetica,sans-Serif" font-size="10.00">/ajaanc/src/ancillarydata_timecode_vitc.cpp</text>
</a>
</g>
</g>
<!-- Node11&#45;&gt;Node12 -->
<g id="edge11" class="edge">
<title>Node11&#45;&gt;Node12</title>
<path fill="none" stroke="midnightblue" d="M121.23,-68.15C120,-59.05 118.72,-49.6 117.65,-41.63"/>
<polygon fill="midnightblue" stroke="midnightblue" points="117.77,-68.72 122.58,-78.16 124.71,-67.78 117.77,-68.72"/>
</g>
<!-- Node15 -->
<g id="node15" class="node">
<title>Node15</title>
<g id="a_node15"><a xlink:href="../../d3/dbe/ntv2ccgrabber_2main_8cpp.html" target="_top" xlink:title="Demonstration application that grabs closed&#45;captioning data from frames captured from SDI input (usin...">
<polygon fill="white" stroke="black" points="1120,-84 1120,-125 1308,-125 1308,-84 1120,-84"/>
<text text-anchor="start" x="1128" y="-113" font-family="Helvetica,sans-Serif" font-size="10.00">/home/tcbuilder/buildAgent</text>
<text text-anchor="start" x="1128" y="-102" font-family="Helvetica,sans-Serif" font-size="10.00">/work/df8e8cce5bebfd58/libajantv2</text>
<text text-anchor="middle" x="1214" y="-91" font-family="Helvetica,sans-Serif" font-size="10.00">/demos/ntv2ccgrabber/main.cpp</text>
</a>
</g>
</g>
<!-- Node14&#45;&gt;Node15 -->
<g id="edge15" class="edge">
<title>Node14&#45;&gt;Node15</title>
<path fill="none" stroke="midnightblue" d="M1365.12,-169.01C1332.42,-155.27 1291.62,-138.12 1260.66,-125.11"/>
<polygon fill="midnightblue" stroke="midnightblue" points="1363.97,-172.33 1374.55,-172.98 1366.68,-165.87 1363.97,-172.33"/>
</g>
<!-- Node16 -->
<g id="node16" class="node">
<title>Node16</title>
<g id="a_node16"><a xlink:href="../../d9/dca/ntv2ccgrabber_8cpp.html" target="_top" xlink:title="Implementation of NTV2CCGrabber class.">
<polygon fill="white" stroke="black" points="1326,-84 1326,-125 1544,-125 1544,-84 1326,-84"/>
<text text-anchor="start" x="1334" y="-113" font-family="Helvetica,sans-Serif" font-size="10.00">/home/tcbuilder/buildAgent</text>
<text text-anchor="start" x="1334" y="-102" font-family="Helvetica,sans-Serif" font-size="10.00">/work/df8e8cce5bebfd58/libajantv2</text>
<text text-anchor="middle" x="1435" y="-91" font-family="Helvetica,sans-Serif" font-size="10.00">/demos/ntv2ccgrabber/ntv2ccgrabber.cpp</text>
</a>
</g>
</g>
<!-- Node14&#45;&gt;Node16 -->
<g id="edge16" class="edge">
<title>Node14&#45;&gt;Node16</title>
<path fill="none" stroke="midnightblue" d="M1425.78,-162.81C1427.78,-150.38 1430.05,-136.27 1431.84,-125.16"/>
<polygon fill="midnightblue" stroke="midnightblue" points="1422.31,-162.33 1424.18,-172.76 1429.22,-163.44 1422.31,-162.33"/>
</g>
<!-- Node19 -->
<g id="node19" class="node">
<title>Node19</title>
<g id="a_node19"><a xlink:href="../../d6/def/ntv2encodehevc_2main_8cpp.html" target="_top" xlink:title="Demonstration application to capture frames from SDI input.">
<polygon fill="white" stroke="black" points="1562,-84 1562,-125 1750,-125 1750,-84 1562,-84"/>
<text text-anchor="start" x="1570" y="-113" font-family="Helvetica,sans-Serif" font-size="10.00">/home/tcbuilder/buildAgent</text>
<text text-anchor="start" x="1570" y="-102" font-family="Helvetica,sans-Serif" font-size="10.00">/work/df8e8cce5bebfd58/libajantv2</text>
<text text-anchor="middle" x="1656" y="-91" font-family="Helvetica,sans-Serif" font-size="10.00">/demos/ntv2encodehevc/main.cpp</text>
</a>
</g>
</g>
<!-- Node18&#45;&gt;Node19 -->
<g id="edge19" class="edge">
<title>Node18&#45;&gt;Node19</title>
<path fill="none" stroke="midnightblue" d="M1656,-162.44C1656,-150.1 1656,-136.16 1656,-125.16"/>
<polygon fill="midnightblue" stroke="midnightblue" points="1652.5,-162.76 1656,-172.76 1659.5,-162.76 1652.5,-162.76"/>
</g>
<!-- Node20 -->
<g id="node20" class="node">
<title>Node20</title>
<g id="a_node20"><a xlink:href="../../da/d2f/ntv2encodehevc_8cpp.html" target="_top" xlink:title="Implementation of NTV2EncodeHEVC class.">
<polygon fill="white" stroke="black" points="1768.5,-84 1768.5,-125 2007.5,-125 2007.5,-84 1768.5,-84"/>
<text text-anchor="start" x="1776.5" y="-113" font-family="Helvetica,sans-Serif" font-size="10.00">/home/tcbuilder/buildAgent</text>
<text text-anchor="start" x="1776.5" y="-102" font-family="Helvetica,sans-Serif" font-size="10.00">/work/df8e8cce5bebfd58/libajantv2</text>
<text text-anchor="middle" x="1888" y="-91" font-family="Helvetica,sans-Serif" font-size="10.00">/demos/ntv2encodehevc/ntv2encodehevc.cpp</text>
</a>
</g>
</g>
<!-- Node18&#45;&gt;Node20 -->
<g id="edge20" class="edge">
<title>Node18&#45;&gt;Node20</title>
<path fill="none" stroke="midnightblue" d="M1717.69,-169.37C1754.49,-155.57 1800.71,-138.23 1835.71,-125.11"/>
<polygon fill="midnightblue" stroke="midnightblue" points="1716.2,-166.19 1708.07,-172.98 1718.66,-172.74 1716.2,-166.19"/>
</g>
<!-- Node22 -->
<g id="node22" class="node">
<title>Node22</title>
<g id="a_node22"><a xlink:href="../../d6/d30/ntv2encodehevcfile_2main_8cpp.html" target="_top" xlink:title="Demonstration application to capture frames from SDI input.">
<polygon fill="white" stroke="black" points="2025.5,-84 2025.5,-125 2224.5,-125 2224.5,-84 2025.5,-84"/>
<text text-anchor="start" x="2033.5" y="-113" font-family="Helvetica,sans-Serif" font-size="10.00">/home/tcbuilder/buildAgent</text>
<text text-anchor="start" x="2033.5" y="-102" font-family="Helvetica,sans-Serif" font-size="10.00">/work/df8e8cce5bebfd58/libajantv2</text>
<text text-anchor="middle" x="2125" y="-91" font-family="Helvetica,sans-Serif" font-size="10.00">/demos/ntv2encodehevcfile/main.cpp</text>
</a>
</g>
</g>
<!-- Node21&#45;&gt;Node22 -->
<g id="edge22" class="edge">
<title>Node21&#45;&gt;Node22</title>
<path fill="none" stroke="midnightblue" d="M1973.15,-169.01C2006.01,-155.27 2047,-138.12 2078.12,-125.11"/>
<polygon fill="midnightblue" stroke="midnightblue" points="1971.55,-165.89 1963.68,-172.98 1974.26,-172.35 1971.55,-165.89"/>
</g>
<!-- Node23 -->
<g id="node23" class="node">
<title>Node23</title>
<g id="a_node23"><a xlink:href="../../dd/d97/ntv2encodehevcfile_8cpp.html" target="_top" xlink:title="Implementation of NTV2EncodeHEVCFile class.">
<polygon fill="white" stroke="black" points="2242.5,-84 2242.5,-125 2511.5,-125 2511.5,-84 2242.5,-84"/>
<text text-anchor="start" x="2250.5" y="-113" font-family="Helvetica,sans-Serif" font-size="10.00">/home/tcbuilder/buildAgent</text>
<text text-anchor="start" x="2250.5" y="-102" font-family="Helvetica,sans-Serif" font-size="10.00">/work/df8e8cce5bebfd58/libajantv2</text>
<text text-anchor="middle" x="2377" y="-91" font-family="Helvetica,sans-Serif" font-size="10.00">/demos/ntv2encodehevcfile/ntv2encodehevcfile.cpp</text>
</a>
</g>
</g>
<!-- Node21&#45;&gt;Node23 -->
<g id="edge23" class="edge">
<title>Node21&#45;&gt;Node23</title>
<path fill="none" stroke="midnightblue" d="M2030.12,-171.1C2104.59,-157.02 2201.33,-138.73 2273.71,-125.03"/>
<polygon fill="midnightblue" stroke="midnightblue" points="2029.41,-167.68 2020.23,-172.98 2030.71,-174.56 2029.41,-167.68"/>
</g>
<!-- Node25 -->
<g id="node25" class="node">
<title>Node25</title>
<g id="a_node25"><a xlink:href="../../da/d67/ntv2encodehevcfileac_8cpp.html" target="_top" xlink:title="Implementation of NTV2EncodeHEVCFileAc class.">
<polygon fill="white" stroke="black" points="2529.5,-84 2529.5,-125 2810.5,-125 2810.5,-84 2529.5,-84"/>
<text text-anchor="start" x="2537.5" y="-113" font-family="Helvetica,sans-Serif" font-size="10.00">/home/tcbuilder/buildAgent</text>
<text text-anchor="start" x="2537.5" y="-102" font-family="Helvetica,sans-Serif" font-size="10.00">/work/df8e8cce5bebfd58/libajantv2</text>
<text text-anchor="middle" x="2670" y="-91" font-family="Helvetica,sans-Serif" font-size="10.00">/demos/ntv2encodehevcfile/ntv2encodehevcfileac.cpp</text>
</a>
</g>
</g>
<!-- Node24&#45;&gt;Node25 -->
<g id="edge25" class="edge">
<title>Node24&#45;&gt;Node25</title>
<path fill="none" stroke="midnightblue" d="M2314.83,-171.1C2391.08,-157.02 2490.13,-138.73 2564.24,-125.03"/>
<polygon fill="midnightblue" stroke="midnightblue" points="2313.9,-167.72 2304.7,-172.98 2315.17,-174.6 2313.9,-167.72"/>
</g>
<!-- Node27 -->
<g id="node27" class="node">
<title>Node27</title>
<g id="a_node27"><a xlink:href="../../d4/dcd/ntv2encodehevcvif_2main_8cpp.html" target="_top" xlink:title="Demonstration application to capture frames from SDI input.">
<polygon fill="white" stroke="black" points="2828.5,-84 2828.5,-125 3025.5,-125 3025.5,-84 2828.5,-84"/>
<text text-anchor="start" x="2836.5" y="-113" font-family="Helvetica,sans-Serif" font-size="10.00">/home/tcbuilder/buildAgent</text>
<text text-anchor="start" x="2836.5" y="-102" font-family="Helvetica,sans-Serif" font-size="10.00">/work/df8e8cce5bebfd58/libajantv2</text>
<text text-anchor="middle" x="2927" y="-91" font-family="Helvetica,sans-Serif" font-size="10.00">/demos/ntv2encodehevcvif/main.cpp</text>
</a>
</g>
</g>
<!-- Node26&#45;&gt;Node27 -->
<g id="edge27" class="edge">
<title>Node26&#45;&gt;Node27</title>
<path fill="none" stroke="midnightblue" d="M2591.56,-171.1C2599.15,-169.7 2606.69,-168.32 2614,-167 2705.46,-150.44 2728.97,-149.78 2820,-131 2828.88,-129.17 2838.15,-127.14 2847.36,-125.04"/>
<polygon fill="midnightblue" stroke="midnightblue" points="2590.76,-167.69 2581.56,-172.94 2592.03,-174.57 2590.76,-167.69"/>
</g>
<!-- Node28 -->
<g id="node28" class="node">
<title>Node28</title>
<g id="a_node28"><a xlink:href="../../df/d0e/ntv2encodehevcvif_8cpp.html" target="_top" xlink:title="Implementation of NTV2EncodeHEVCVif class.">
<polygon fill="white" stroke="black" points="3044,-84 3044,-125 3308,-125 3308,-84 3044,-84"/>
<text text-anchor="start" x="3052" y="-113" font-family="Helvetica,sans-Serif" font-size="10.00">/home/tcbuilder/buildAgent</text>
<text text-anchor="start" x="3052" y="-102" font-family="Helvetica,sans-Serif" font-size="10.00">/work/df8e8cce5bebfd58/libajantv2</text>
<text text-anchor="middle" x="3176" y="-91" font-family="Helvetica,sans-Serif" font-size="10.00">/demos/ntv2encodehevcvif/ntv2encodehevcvif.cpp</text>
</a>
</g>
</g>
<!-- Node26&#45;&gt;Node28 -->
<g id="edge28" class="edge">
<title>Node26&#45;&gt;Node28</title>
<path fill="none" stroke="midnightblue" d="M2585.78,-171.27C2595.31,-169.7 2604.81,-168.25 2614,-167 2800.08,-141.66 2848.84,-155.74 3035,-131 3047.82,-129.3 3061.25,-127.23 3074.52,-125.02"/>
<polygon fill="midnightblue" stroke="midnightblue" points="2585.15,-167.83 2575.87,-172.94 2586.31,-174.73 2585.15,-167.83"/>
</g>
<!-- Node30 -->
<g id="node30" class="node">
<title>Node30</title>
<g id="a_node30"><a xlink:href="../../d4/d1e/ntv2encodehevcvifac_8cpp.html" target="_top" xlink:title="Implementation of NTV2EncodeHEVCVifAc class.">
<polygon fill="white" stroke="black" points="3326,-84 3326,-125 3602,-125 3602,-84 3326,-84"/>
<text text-anchor="start" x="3334" y="-113" font-family="Helvetica,sans-Serif" font-size="10.00">/home/tcbuilder/buildAgent</text>
<text text-anchor="start" x="3334" y="-102" font-family="Helvetica,sans-Serif" font-size="10.00">/work/df8e8cce5bebfd58/libajantv2</text>
<text text-anchor="middle" x="3464" y="-91" font-family="Helvetica,sans-Serif" font-size="10.00">/demos/ntv2encodehevcvif/ntv2encodehevcvifac.cpp</text>
</a>
</g>
</g>
<!-- Node29&#45;&gt;Node30 -->
<g id="edge30" class="edge">
<title>Node29&#45;&gt;Node30</title>
<path fill="none" stroke="midnightblue" d="M2897.75,-179.38C3011.52,-168.31 3174.78,-151.1 3317,-131 3329.7,-129.21 3342.98,-127.15 3356.14,-125.01"/>
<polygon fill="midnightblue" stroke="midnightblue" points="2897.2,-175.91 2887.58,-180.36 2897.87,-182.88 2897.2,-175.91"/>
</g>
<!-- Node32 -->
<g id="node32" class="node">
<title>Node32</title>
<g id="a_node32"><a xlink:href="../../de/ddb/ntv2llburn_2main_8cpp.html" target="_top" xlink:title="Demonstration application that &quot;burns&quot; timecode into frames captured from SDI input,...">
<polygon fill="white" stroke="black" points="876,-84 876,-125 1064,-125 1064,-84 876,-84"/>
<text text-anchor="start" x="884" y="-113" font-family="Helvetica,sans-Serif" font-size="10.00">/home/tcbuilder/buildAgent</text>
<text text-anchor="start" x="884" y="-102" font-family="Helvetica,sans-Serif" font-size="10.00">/work/df8e8cce5bebfd58/libajantv2</text>
<text text-anchor="middle" x="970" y="-91" font-family="Helvetica,sans-Serif" font-size="10.00">/demos/ntv2llburn/main.cpp</text>
</a>
</g>
</g>
<!-- Node31&#45;&gt;Node32 -->
<g id="edge32" class="edge">
<title>Node31&#45;&gt;Node32</title>
<path fill="none" stroke="midnightblue" d="M1114.14,-168.84C1082.94,-155.12 1044.12,-138.07 1014.63,-125.11"/>
<polygon fill="midnightblue" stroke="midnightblue" points="1113,-172.16 1123.56,-172.98 1115.82,-165.75 1113,-172.16"/>
</g>
<!-- Node33 -->
<g id="node33" class="node">
<title>Node33</title>
<g id="a_node33"><a xlink:href="../../da/d1a/ntv2llburn_8cpp.html" target="_top" xlink:title="Implementation of NTV2LLBurn demonstration class.">
<polygon fill="white" stroke="black" points="670,-84 670,-125 858,-125 858,-84 670,-84"/>
<text text-anchor="start" x="678" y="-113" font-family="Helvetica,sans-Serif" font-size="10.00">/home/tcbuilder/buildAgent</text>
<text text-anchor="start" x="678" y="-102" font-family="Helvetica,sans-Serif" font-size="10.00">/work/df8e8cce5bebfd58/libajantv2</text>
<text text-anchor="middle" x="764" y="-91" font-family="Helvetica,sans-Serif" font-size="10.00">/demos/ntv2llburn/ntv2llburn.cpp</text>
</a>
</g>
</g>
<!-- Node31&#45;&gt;Node33 -->
<g id="edge33" class="edge">
<title>Node31&#45;&gt;Node33</title>
<path fill="none" stroke="midnightblue" d="M1081.37,-170.64C1075.84,-169.37 1070.35,-168.15 1065,-167 977.55,-148.24 954.45,-149.76 867,-131 858.44,-129.17 849.52,-127.13 840.65,-125.04"/>
<polygon fill="midnightblue" stroke="midnightblue" points="1080.82,-174.1 1091.35,-172.96 1082.4,-167.28 1080.82,-174.1"/>
</g>
</g>
</svg>
