<?xml version="1.0" encoding="UTF-8" standalone="no"?>
<!DOCTYPE svg PUBLIC "-//W3C//DTD SVG 1.1//EN"
 "http://www.w3.org/Graphics/SVG/1.1/DTD/svg11.dtd">
<!-- Generated by graphviz version 2.40.1 (0)
 -->
<!-- Title: /home/tcbuilder/buildAgent/work/df8e8cce5bebfd58/libajantv2/ajabase/common/public.h Pages: 1 -->
<svg width="504pt" height="162pt"
 viewBox="0.00 0.00 503.50 162.00" xmlns="http://www.w3.org/2000/svg" xmlns:xlink="http://www.w3.org/1999/xlink">
<g id="graph0" class="graph" transform="scale(1 1) rotate(0) translate(4 158)">
<title>/home/tcbuilder/buildAgent/work/df8e8cce5bebfd58/libajantv2/ajabase/common/public.h</title>
<polygon fill="#ffffff" stroke="transparent" points="-4,4 -4,-158 499.5,-158 499.5,4 -4,4"/>
<!-- Node0 -->
<g id="node1" class="node">
<title>Node0</title>
<polygon fill="#bfbfbf" stroke="#000000" points="164,-112.5 164,-153.5 331,-153.5 331,-112.5 164,-112.5"/>
<text text-anchor="start" x="172" y="-141.5" font-family="Helvetica,sans-Serif" font-size="10.00" fill="#000000">/home/tcbuilder/buildAgent</text>
<text text-anchor="start" x="172" y="-130.5" font-family="Helvetica,sans-Serif" font-size="10.00" fill="#000000">/work/df8e8cce5bebfd58/libajantv2</text>
<text text-anchor="middle" x="247.5" y="-119.5" font-family="Helvetica,sans-Serif" font-size="10.00" fill="#000000">/ajabase/common/public.h</text>
</g>
<!-- Node1 -->
<g id="node2" class="node">
<title>Node1</title>
<g id="a_node2"><a xlink:href="../../db/db5/export_8h.html" target="_top" xlink:title="Declares system&#45;dependent import/export macros and libraries. ">
<polygon fill="#ffffff" stroke="#000000" points="0,-56.5 0,-75.5 129,-75.5 129,-56.5 0,-56.5"/>
<text text-anchor="middle" x="64.5" y="-63.5" font-family="Helvetica,sans-Serif" font-size="10.00" fill="#000000">ajabase/common/export.h</text>
</a>
</g>
</g>
<!-- Node0&#45;&gt;Node1 -->
<g id="edge1" class="edge">
<title>Node0&#45;&gt;Node1</title>
<path fill="none" stroke="#191970" d="M191.1007,-112.3511C161.4878,-101.5092 126.0935,-88.5506 100.2676,-79.0953"/>
<polygon fill="#191970" stroke="#191970" points="101.4639,-75.8061 90.8701,-75.6546 99.0572,-82.3794 101.4639,-75.8061"/>
</g>
<!-- Node2 -->
<g id="node3" class="node">
<title>Node2</title>
<polygon fill="#ffffff" stroke="#bfbfbf" points="147,-56.5 147,-75.5 188,-75.5 188,-56.5 147,-56.5"/>
<text text-anchor="middle" x="167.5" y="-63.5" font-family="Helvetica,sans-Serif" font-size="10.00" fill="#000000">string</text>
</g>
<!-- Node0&#45;&gt;Node2 -->
<g id="edge2" class="edge">
<title>Node0&#45;&gt;Node2</title>
<path fill="none" stroke="#191970" d="M222.626,-112.168C211.1892,-102.5897 197.8177,-91.3911 187.1083,-82.422"/>
<polygon fill="#191970" stroke="#191970" points="189.0919,-79.5179 179.1782,-75.7805 184.5974,-84.8845 189.0919,-79.5179"/>
</g>
<!-- Node3 -->
<g id="node4" class="node">
<title>Node3</title>
<polygon fill="#ffffff" stroke="#bfbfbf" points="206,-56.5 206,-75.5 235,-75.5 235,-56.5 206,-56.5"/>
<text text-anchor="middle" x="220.5" y="-63.5" font-family="Helvetica,sans-Serif" font-size="10.00" fill="#000000">list</text>
</g>
<!-- Node0&#45;&gt;Node3 -->
<g id="edge3" class="edge">
<title>Node0&#45;&gt;Node3</title>
<path fill="none" stroke="#191970" d="M239.105,-112.168C235.6273,-103.5381 231.6195,-93.5928 228.2163,-85.1479"/>
<polygon fill="#191970" stroke="#191970" points="231.4255,-83.7474 224.4414,-75.7805 224.9329,-86.3639 231.4255,-83.7474"/>
</g>
<!-- Node4 -->
<g id="node5" class="node">
<title>Node4</title>
<polygon fill="#ffffff" stroke="#bfbfbf" points="253.5,-56.5 253.5,-75.5 297.5,-75.5 297.5,-56.5 253.5,-56.5"/>
<text text-anchor="middle" x="275.5" y="-63.5" font-family="Helvetica,sans-Serif" font-size="10.00" fill="#000000">vector</text>
</g>
<!-- Node0&#45;&gt;Node4 -->
<g id="edge4" class="edge">
<title>Node0&#45;&gt;Node4</title>
<path fill="none" stroke="#191970" d="M256.2059,-112.168C259.8124,-103.5381 263.9687,-93.5928 267.4979,-85.1479"/>
<polygon fill="#191970" stroke="#191970" points="270.786,-86.3568 271.4126,-75.7805 264.3273,-83.6576 270.786,-86.3568"/>
</g>
<!-- Node5 -->
<g id="node6" class="node">
<title>Node5</title>
<polygon fill="#ffffff" stroke="#bfbfbf" points="316,-56.5 316,-75.5 351,-75.5 351,-56.5 316,-56.5"/>
<text text-anchor="middle" x="333.5" y="-63.5" font-family="Helvetica,sans-Serif" font-size="10.00" fill="#000000">map</text>
</g>
<!-- Node0&#45;&gt;Node5 -->
<g id="edge5" class="edge">
<title>Node0&#45;&gt;Node5</title>
<path fill="none" stroke="#191970" d="M274.2395,-112.168C286.6558,-102.4949 301.1933,-91.1692 312.7622,-82.1562"/>
<polygon fill="#191970" stroke="#191970" points="315.2084,-84.6873 320.946,-75.7805 310.9063,-79.1653 315.2084,-84.6873"/>
</g>
<!-- Node6 -->
<g id="node7" class="node">
<title>Node6</title>
<g id="a_node7"><a xlink:href="../../d9/d49/types_8h.html" target="_top" xlink:title="Declares common types used in the ajabase library. ">
<polygon fill="#ffffff" stroke="#000000" points="369.5,-56.5 369.5,-75.5 495.5,-75.5 495.5,-56.5 369.5,-56.5"/>
<text text-anchor="middle" x="432.5" y="-63.5" font-family="Helvetica,sans-Serif" font-size="10.00" fill="#000000">ajabase/common/types.h</text>
</a>
</g>
</g>
<!-- Node0&#45;&gt;Node6 -->
<g id="edge6" class="edge">
<title>Node0&#45;&gt;Node6</title>
<path fill="none" stroke="#191970" d="M304.2633,-112.4425C334.4016,-101.5275 370.5208,-88.4465 396.7352,-78.9527"/>
<polygon fill="#191970" stroke="#191970" points="398.0535,-82.1978 406.264,-75.5017 395.6698,-75.6161 398.0535,-82.1978"/>
</g>
<!-- Node7 -->
<g id="node8" class="node">
<title>Node7</title>
<g id="a_node8"><a xlink:href="../../db/d40/ntv2deprecate_8h.html" target="_top" xlink:title="Deprecation control macros. ">
<polygon fill="#ffffff" stroke="#000000" points="389.5,-.5 389.5,-19.5 475.5,-19.5 475.5,-.5 389.5,-.5"/>
<text text-anchor="middle" x="432.5" y="-7.5" font-family="Helvetica,sans-Serif" font-size="10.00" fill="#000000">ntv2deprecate.h</text>
</a>
</g>
</g>
<!-- Node6&#45;&gt;Node7 -->
<g id="edge7" class="edge">
<title>Node6&#45;&gt;Node7</title>
<path fill="none" stroke="#191970" d="M432.5,-56.2455C432.5,-48.9382 432.5,-38.6944 432.5,-29.7046"/>
<polygon fill="#191970" stroke="#191970" points="436.0001,-29.6426 432.5,-19.6427 429.0001,-29.6427 436.0001,-29.6426"/>
</g>
</g>
</svg>
