<?xml version="1.0" encoding="UTF-8" standalone="no"?>
<!DOCTYPE svg PUBLIC "-//W3C//DTD SVG 1.1//EN"
 "http://www.w3.org/Graphics/SVG/1.1/DTD/svg11.dtd">
<!-- Generated by graphviz version 2.43.0 (0)
 -->
<!-- Title: /home/tcbuilder/buildAgent/work/df8e8cce5bebfd58/libajantv2/ajabase/pnp/windows/pnpimpl.cpp Pages: 1 -->
<svg width="544pt" height="285pt"
 viewBox="0.00 0.00 544.00 285.00" xmlns="http://www.w3.org/2000/svg" xmlns:xlink="http://www.w3.org/1999/xlink">
<g id="graph0" class="graph" transform="scale(1 1) rotate(0) translate(4 281)">
<title>/home/tcbuilder/buildAgent/work/df8e8cce5bebfd58/libajantv2/ajabase/pnp/windows/pnpimpl.cpp</title>
<polygon fill="white" stroke="transparent" points="-4,4 -4,-281 540,-281 540,4 -4,4"/>
<!-- Node1 -->
<g id="node1" class="node">
<title>Node1</title>
<g id="a_node1"><a xlink:title="Implements the AJAPnpImpl class on the Windows platform.">
<polygon fill="#bfbfbf" stroke="black" points="135,-235.5 135,-276.5 323,-276.5 323,-235.5 135,-235.5"/>
<text text-anchor="start" x="143" y="-264.5" font-family="Helvetica,sans-Serif" font-size="10.00">/home/tcbuilder/buildAgent</text>
<text text-anchor="start" x="143" y="-253.5" font-family="Helvetica,sans-Serif" font-size="10.00">/work/df8e8cce5bebfd58/libajantv2</text>
<text text-anchor="middle" x="229" y="-242.5" font-family="Helvetica,sans-Serif" font-size="10.00">/ajabase/pnp/windows/pnpimpl.cpp</text>
</a>
</g>
</g>
<!-- Node2 -->
<g id="node2" class="node">
<title>Node2</title>
<g id="a_node2"><a xlink:href="../../d4/d8f/windows_2pnpimpl_8h.html" target="_top" xlink:title="Declares the AJAPnpImpl class.">
<polygon fill="white" stroke="black" points="88,-168.5 88,-198.5 210,-198.5 210,-168.5 88,-168.5"/>
<text text-anchor="start" x="96" y="-186.5" font-family="Helvetica,sans-Serif" font-size="10.00">ajabase/pnp/windows</text>
<text text-anchor="middle" x="149" y="-175.5" font-family="Helvetica,sans-Serif" font-size="10.00">/pnpimpl.h</text>
</a>
</g>
</g>
<!-- Node1&#45;&gt;Node2 -->
<g id="edge1" class="edge">
<title>Node1&#45;&gt;Node2</title>
<path fill="none" stroke="midnightblue" d="M206.72,-235.36C196.18,-226.08 183.59,-214.98 172.86,-205.52"/>
<polygon fill="midnightblue" stroke="midnightblue" points="174.9,-202.66 165.08,-198.67 170.27,-207.91 174.9,-202.66"/>
</g>
<!-- Node12 -->
<g id="node12" class="node">
<title>Node12</title>
<g id="a_node12"><a xlink:href="../../da/dbc/systemtime_8h.html" target="_top" xlink:title="Declares the AJATime class.">
<polygon fill="white" stroke="black" points="228,-174 228,-193 392,-193 392,-174 228,-174"/>
<text text-anchor="middle" x="310" y="-181" font-family="Helvetica,sans-Serif" font-size="10.00">ajabase/system/systemtime.h</text>
</a>
</g>
</g>
<!-- Node1&#45;&gt;Node12 -->
<g id="edge11" class="edge">
<title>Node1&#45;&gt;Node12</title>
<path fill="none" stroke="midnightblue" d="M251.56,-235.36C264.49,-224.11 280.48,-210.19 292.47,-199.76"/>
<polygon fill="midnightblue" stroke="midnightblue" points="294.79,-202.38 300.03,-193.17 290.19,-197.1 294.79,-202.38"/>
</g>
<!-- Node3 -->
<g id="node3" class="node">
<title>Node3</title>
<g id="a_node3"><a xlink:title=" ">
<polygon fill="white" stroke="#bfbfbf" points="88,-112.5 88,-131.5 158,-131.5 158,-112.5 88,-112.5"/>
<text text-anchor="middle" x="123" y="-119.5" font-family="Helvetica,sans-Serif" font-size="10.00">Windows.h</text>
</a>
</g>
</g>
<!-- Node2&#45;&gt;Node3 -->
<g id="edge2" class="edge">
<title>Node2&#45;&gt;Node3</title>
<path fill="none" stroke="midnightblue" d="M142.84,-168.4C139.26,-160.2 134.7,-149.78 130.86,-140.99"/>
<polygon fill="midnightblue" stroke="midnightblue" points="133.99,-139.42 126.78,-131.66 127.58,-142.22 133.99,-139.42"/>
</g>
<!-- Node4 -->
<g id="node4" class="node">
<title>Node4</title>
<g id="a_node4"><a xlink:href="../../d5/d02/pnp_8h.html" target="_top" xlink:title="Declares the AJAPnp (plug&#45;and&#45;play) class.">
<polygon fill="white" stroke="black" points="176,-112.5 176,-131.5 282,-131.5 282,-112.5 176,-112.5"/>
<text text-anchor="middle" x="229" y="-119.5" font-family="Helvetica,sans-Serif" font-size="10.00">ajabase/pnp/pnp.h</text>
</a>
</g>
</g>
<!-- Node2&#45;&gt;Node4 -->
<g id="edge3" class="edge">
<title>Node2&#45;&gt;Node4</title>
<path fill="none" stroke="midnightblue" d="M167.96,-168.4C180.42,-159.13 196.7,-147.03 209.31,-137.65"/>
<polygon fill="midnightblue" stroke="midnightblue" points="211.42,-140.43 217.36,-131.66 207.25,-134.82 211.42,-140.43"/>
</g>
<!-- Node5 -->
<g id="node5" class="node">
<title>Node5</title>
<g id="a_node5"><a xlink:href="../../d4/d79/public_8h.html" target="_top" xlink:title="Master header for the ajabase library.">
<polygon fill="white" stroke="black" points="198,-56.5 198,-75.5 340,-75.5 340,-56.5 198,-56.5"/>
<text text-anchor="middle" x="269" y="-63.5" font-family="Helvetica,sans-Serif" font-size="10.00">ajabase/common/public.h</text>
</a>
</g>
</g>
<!-- Node4&#45;&gt;Node5 -->
<g id="edge4" class="edge">
<title>Node4&#45;&gt;Node5</title>
<path fill="none" stroke="midnightblue" d="M235.61,-112.08C241.26,-104.46 249.54,-93.26 256.45,-83.94"/>
<polygon fill="midnightblue" stroke="midnightblue" points="259.38,-85.87 262.52,-75.75 253.75,-81.7 259.38,-85.87"/>
</g>
<!-- Node6 -->
<g id="node6" class="node">
<title>Node6</title>
<g id="a_node6"><a xlink:href="../../db/db5/export_8h.html" target="_top" xlink:title="Declares system&#45;dependent import/export macros and libraries.">
<polygon fill="white" stroke="black" points="0,-0.5 0,-19.5 144,-19.5 144,-0.5 0,-0.5"/>
<text text-anchor="middle" x="72" y="-7.5" font-family="Helvetica,sans-Serif" font-size="10.00">ajabase/common/export.h</text>
</a>
</g>
</g>
<!-- Node5&#45;&gt;Node6 -->
<g id="edge5" class="edge">
<title>Node5&#45;&gt;Node6</title>
<path fill="none" stroke="midnightblue" d="M237.78,-56.44C204.07,-47.2 150.2,-32.44 113.07,-22.26"/>
<polygon fill="midnightblue" stroke="midnightblue" points="113.64,-18.78 103.07,-19.52 111.79,-25.54 113.64,-18.78"/>
</g>
<!-- Node7 -->
<g id="node7" class="node">
<title>Node7</title>
<g id="a_node7"><a xlink:title=" ">
<polygon fill="white" stroke="#bfbfbf" points="162,-0.5 162,-19.5 206,-19.5 206,-0.5 162,-0.5"/>
<text text-anchor="middle" x="184" y="-7.5" font-family="Helvetica,sans-Serif" font-size="10.00">string</text>
</a>
</g>
</g>
<!-- Node5&#45;&gt;Node7 -->
<g id="edge6" class="edge">
<title>Node5&#45;&gt;Node7</title>
<path fill="none" stroke="midnightblue" d="M255.34,-56.32C242.08,-47.9 221.73,-34.97 206.15,-25.07"/>
<polygon fill="midnightblue" stroke="midnightblue" points="207.94,-22.06 197.62,-19.65 204.19,-27.97 207.94,-22.06"/>
</g>
<!-- Node8 -->
<g id="node8" class="node">
<title>Node8</title>
<g id="a_node8"><a xlink:title=" ">
<polygon fill="white" stroke="#bfbfbf" points="224,-0.5 224,-19.5 256,-19.5 256,-0.5 224,-0.5"/>
<text text-anchor="middle" x="240" y="-7.5" font-family="Helvetica,sans-Serif" font-size="10.00">list</text>
</a>
</g>
</g>
<!-- Node5&#45;&gt;Node8 -->
<g id="edge7" class="edge">
<title>Node5&#45;&gt;Node8</title>
<path fill="none" stroke="midnightblue" d="M264.21,-56.08C260.24,-48.69 254.47,-37.95 249.57,-28.81"/>
<polygon fill="midnightblue" stroke="midnightblue" points="252.51,-26.91 244.7,-19.75 246.35,-30.22 252.51,-26.91"/>
</g>
<!-- Node9 -->
<g id="node9" class="node">
<title>Node9</title>
<g id="a_node9"><a xlink:title=" ">
<polygon fill="white" stroke="#bfbfbf" points="274.5,-0.5 274.5,-19.5 321.5,-19.5 321.5,-0.5 274.5,-0.5"/>
<text text-anchor="middle" x="298" y="-7.5" font-family="Helvetica,sans-Serif" font-size="10.00">vector</text>
</a>
</g>
</g>
<!-- Node5&#45;&gt;Node9 -->
<g id="edge8" class="edge">
<title>Node5&#45;&gt;Node9</title>
<path fill="none" stroke="midnightblue" d="M273.79,-56.08C277.76,-48.69 283.53,-37.95 288.43,-28.81"/>
<polygon fill="midnightblue" stroke="midnightblue" points="291.65,-30.22 293.3,-19.75 285.49,-26.91 291.65,-30.22"/>
</g>
<!-- Node10 -->
<g id="node10" class="node">
<title>Node10</title>
<g id="a_node10"><a xlink:title=" ">
<polygon fill="white" stroke="#bfbfbf" points="340,-0.5 340,-19.5 378,-19.5 378,-0.5 340,-0.5"/>
<text text-anchor="middle" x="359" y="-7.5" font-family="Helvetica,sans-Serif" font-size="10.00">map</text>
</a>
</g>
</g>
<!-- Node5&#45;&gt;Node10 -->
<g id="edge9" class="edge">
<title>Node5&#45;&gt;Node10</title>
<path fill="none" stroke="midnightblue" d="M283.46,-56.32C297.5,-47.9 319.05,-34.97 335.54,-25.07"/>
<polygon fill="midnightblue" stroke="midnightblue" points="337.8,-27.8 344.58,-19.65 334.2,-21.8 337.8,-27.8"/>
</g>
<!-- Node11 -->
<g id="node11" class="node">
<title>Node11</title>
<g id="a_node11"><a xlink:href="../../d9/d49/types_8h.html" target="_top" xlink:title="Declares common types used in the ajabase library.">
<polygon fill="white" stroke="black" points="396,-0.5 396,-19.5 536,-19.5 536,-0.5 396,-0.5"/>
<text text-anchor="middle" x="466" y="-7.5" font-family="Helvetica,sans-Serif" font-size="10.00">ajabase/common/types.h</text>
</a>
</g>
</g>
<!-- Node5&#45;&gt;Node11 -->
<g id="edge10" class="edge">
<title>Node5&#45;&gt;Node11</title>
<path fill="none" stroke="midnightblue" d="M300.22,-56.44C333.93,-47.2 387.8,-32.44 424.93,-22.26"/>
<polygon fill="midnightblue" stroke="midnightblue" points="426.21,-25.54 434.93,-19.52 424.36,-18.78 426.21,-25.54"/>
</g>
<!-- Node12&#45;&gt;Node5 -->
<g id="edge12" class="edge">
<title>Node12&#45;&gt;Node5</title>
<path fill="none" stroke="midnightblue" d="M308.19,-173.65C305.29,-160.12 299.11,-133.6 291,-112 287.52,-102.74 282.79,-92.82 278.61,-84.66"/>
<polygon fill="midnightblue" stroke="midnightblue" points="281.66,-82.95 273.9,-75.74 275.47,-86.22 281.66,-82.95"/>
</g>
</g>
</svg>
