<?xml version="1.0" encoding="UTF-8" standalone="no"?>
<!DOCTYPE svg PUBLIC "-//W3C//DTD SVG 1.1//EN"
 "http://www.w3.org/Graphics/SVG/1.1/DTD/svg11.dtd">
<!-- Generated by graphviz version 2.43.0 (0)
 -->
<!-- Title: /home/tcbuilder/buildAgent/work/df8e8cce5bebfd58/libajantv2/demos/ntv2capture8k/ntv2capture8k.h Pages: 1 -->
<svg width="434pt" height="128pt"
 viewBox="0.00 0.00 434.00 128.00" xmlns="http://www.w3.org/2000/svg" xmlns:xlink="http://www.w3.org/1999/xlink">
<g id="graph0" class="graph" transform="scale(1 1) rotate(0) translate(4 124)">
<title>/home/tcbuilder/buildAgent/work/df8e8cce5bebfd58/libajantv2/demos/ntv2capture8k/ntv2capture8k.h</title>
<polygon fill="white" stroke="transparent" points="-4,4 -4,-124 430,-124 430,4 -4,4"/>
<!-- Node1 -->
<g id="node1" class="node">
<title>Node1</title>
<g id="a_node1"><a xlink:title="Declares the NTV2Capture class.">
<polygon fill="#bfbfbf" stroke="black" points="100.5,-78.5 100.5,-119.5 309.5,-119.5 309.5,-78.5 100.5,-78.5"/>
<text text-anchor="start" x="108.5" y="-107.5" font-family="Helvetica,sans-Serif" font-size="10.00">/home/tcbuilder/buildAgent</text>
<text text-anchor="start" x="108.5" y="-96.5" font-family="Helvetica,sans-Serif" font-size="10.00">/work/df8e8cce5bebfd58/libajantv2</text>
<text text-anchor="middle" x="205" y="-85.5" font-family="Helvetica,sans-Serif" font-size="10.00">/demos/ntv2capture8k/ntv2capture8k.h</text>
</a>
</g>
</g>
<!-- Node2 -->
<g id="node2" class="node">
<title>Node2</title>
<g id="a_node2"><a xlink:href="../../d3/d0e/ntv2capture8k_2main_8cpp.html" target="_top" xlink:title="Demonstration application to capture frames from SDI input.">
<polygon fill="white" stroke="black" points="0,-0.5 0,-41.5 188,-41.5 188,-0.5 0,-0.5"/>
<text text-anchor="start" x="8" y="-29.5" font-family="Helvetica,sans-Serif" font-size="10.00">/home/tcbuilder/buildAgent</text>
<text text-anchor="start" x="8" y="-18.5" font-family="Helvetica,sans-Serif" font-size="10.00">/work/df8e8cce5bebfd58/libajantv2</text>
<text text-anchor="middle" x="94" y="-7.5" font-family="Helvetica,sans-Serif" font-size="10.00">/demos/ntv2capture8k/main.cpp</text>
</a>
</g>
</g>
<!-- Node1&#45;&gt;Node2 -->
<g id="edge1" class="edge">
<title>Node1&#45;&gt;Node2</title>
<path fill="none" stroke="midnightblue" d="M167.95,-72.64C153.13,-62.49 136.33,-50.98 122.49,-41.51"/>
<polygon fill="midnightblue" stroke="midnightblue" points="166.19,-75.67 176.41,-78.43 170.14,-69.89 166.19,-75.67"/>
</g>
<!-- Node3 -->
<g id="node3" class="node">
<title>Node3</title>
<g id="a_node3"><a xlink:href="../../dc/d6a/ntv2capture8k_8cpp.html" target="_top" xlink:title="Implementation of NTV2Capture class.">
<polygon fill="white" stroke="black" points="206,-0.5 206,-41.5 426,-41.5 426,-0.5 206,-0.5"/>
<text text-anchor="start" x="214" y="-29.5" font-family="Helvetica,sans-Serif" font-size="10.00">/home/tcbuilder/buildAgent</text>
<text text-anchor="start" x="214" y="-18.5" font-family="Helvetica,sans-Serif" font-size="10.00">/work/df8e8cce5bebfd58/libajantv2</text>
<text text-anchor="middle" x="316" y="-7.5" font-family="Helvetica,sans-Serif" font-size="10.00">/demos/ntv2capture8k/ntv2capture8k.cpp</text>
</a>
</g>
</g>
<!-- Node1&#45;&gt;Node3 -->
<g id="edge2" class="edge">
<title>Node1&#45;&gt;Node3</title>
<path fill="none" stroke="midnightblue" d="M242.05,-72.64C256.87,-62.49 273.67,-50.98 287.51,-41.51"/>
<polygon fill="midnightblue" stroke="midnightblue" points="239.86,-69.89 233.59,-78.43 243.81,-75.67 239.86,-69.89"/>
</g>
</g>
</svg>
