<?xml version="1.0" encoding="UTF-8" standalone="no"?>
<!DOCTYPE svg PUBLIC "-//W3C//DTD SVG 1.1//EN"
 "http://www.w3.org/Graphics/SVG/1.1/DTD/svg11.dtd">
<!-- Generated by graphviz version 2.40.1 (0)
 -->
<!-- Title: /home/tcbuilder/buildAgent/work/df8e8cce5bebfd58/libajantv2/ajantv2/includes/ntv2routingexpert.h Pages: 1 -->
<!--zoomable 330 -->
<svg id="main" version="1.1" xmlns="http://www.w3.org/2000/svg" xmlns:xlink="http://www.w3.org/1999/xlink" xml:space="preserve" onload="init(evt)">
<style type="text/css"><![CDATA[
.edge:hover path { stroke: red; }
.edge:hover polygon { stroke: red; fill: red; }
]]></style>
<script type="text/javascript"><![CDATA[
var edges = document.getElementsByTagName('g');
if (edges && edges.length) {
  for (var i=0;i<edges.length;i++) {
    if (edges[i].id.substr(0,4)=='edge') {
      edges[i].setAttribute('class','edge');
    }
  }
}
]]></script>
        <defs>
                <circle id="rim" cx="0" cy="0" r="7"/>
                <circle id="rim2" cx="0" cy="0" r="3.5"/>
                <g id="zoomPlus">
                        <use xlink:href="#rim" fill="#404040">
                                <set attributeName="fill" to="#808080" begin="zoomplus.mouseover" end="zoomplus.mouseout"/>
                        </use>
                        <path d="M-4,0h8M0,-4v8" fill="none" stroke="white" stroke-width="1.5" pointer-events="none"/>
                </g>
                <g id="zoomMin">
                        <use xlink:href="#rim" fill="#404040">
                                <set attributeName="fill" to="#808080" begin="zoomminus.mouseover" end="zoomminus.mouseout"/>
                        </use>
                        <path d="M-4,0h8" fill="none" stroke="white" stroke-width="1.5" pointer-events="none"/>
                </g>
                <g id="dirArrow">
                        <path fill="none" stroke="white" stroke-width="1.5" d="M0,-3.0v7 M-2.5,-0.5L0,-3.0L2.5,-0.5"/>
                </g>
               <g id="resetDef">
                       <use xlink:href="#rim2" fill="#404040">
                               <set attributeName="fill" to="#808080" begin="reset.mouseover" end="reset.mouseout"/>
                       </use>
               </g>
        </defs>

<script type="text/javascript">
var viewWidth = 1102;
var viewHeight = 330;
var sectionId = 'dynsection-0';
</script>
<script xlink:href="../../svgpan.js"/>
<svg id="graph" class="graph">
<g id="viewport">
<title>/home/tcbuilder/buildAgent/work/df8e8cce5bebfd58/libajantv2/ajantv2/includes/ntv2routingexpert.h</title>
<polygon fill="#ffffff" stroke="transparent" points="-4,4 -4,-326 1098,-326 1098,4 -4,4"/>
<!-- Node0 -->
<g id="node1" class="node">
<title>Node0</title>
<polygon fill="#bfbfbf" stroke="#000000" points="159.5,-280.5 159.5,-321.5 335.5,-321.5 335.5,-280.5 159.5,-280.5"/>
<text text-anchor="start" x="167.5" y="-309.5" font-family="Helvetica,sans-Serif" font-size="10.00" fill="#000000">/home/tcbuilder/buildAgent</text>
<text text-anchor="start" x="167.5" y="-298.5" font-family="Helvetica,sans-Serif" font-size="10.00" fill="#000000">/work/df8e8cce5bebfd58/libajantv2</text>
<text text-anchor="middle" x="247.5" y="-287.5" font-family="Helvetica,sans-Serif" font-size="10.00" fill="#000000">/ajantv2/includes/ntv2routingexpert.h</text>
</g>
<!-- Node1 -->
<g id="node2" class="node">
<title>Node1</title>
<g id="a_node2"><a xlink:href="../../dc/d95/ntv2signalrouter_8h.html" target="_top" xlink:title="Declares CNTV2SignalRouter class. ">
<polygon fill="#ffffff" stroke="#000000" points="364,-224.5 364,-243.5 457,-243.5 457,-224.5 364,-224.5"/>
<text text-anchor="middle" x="410.5" y="-231.5" font-family="Helvetica,sans-Serif" font-size="10.00" fill="#000000">ntv2signalrouter.h</text>
</a>
</g>
</g>
<!-- Node0&#45;&gt;Node1 -->
<g id="edge1" class="edge">
<title>Node0&#45;&gt;Node1</title>
<path fill="none" stroke="#191970" d="M297.7354,-280.3511C323.7633,-269.6525 354.8057,-256.8928 377.7249,-247.472"/>
<polygon fill="#191970" stroke="#191970" points="379.0934,-250.6937 387.0119,-243.6546 376.4321,-244.2193 379.0934,-250.6937"/>
</g>
<!-- Node20 -->
<g id="node21" class="node">
<title>Node20</title>
<g id="a_node21"><a xlink:href="../../dd/d42/lock_8h.html" target="_top" xlink:title="Declares the AJALock class. ">
<polygon fill="#ffffff" stroke="#000000" points="190,-224.5 190,-243.5 305,-243.5 305,-224.5 190,-224.5"/>
<text text-anchor="middle" x="247.5" y="-231.5" font-family="Helvetica,sans-Serif" font-size="10.00" fill="#000000">ajabase/system/lock.h</text>
</a>
</g>
</g>
<!-- Node0&#45;&gt;Node20 -->
<g id="edge27" class="edge">
<title>Node0&#45;&gt;Node20</title>
<path fill="none" stroke="#191970" d="M247.5,-280.168C247.5,-271.8226 247.5,-262.2471 247.5,-253.9879"/>
<polygon fill="#191970" stroke="#191970" points="251.0001,-253.7804 247.5,-243.7805 244.0001,-253.7805 251.0001,-253.7804"/>
</g>
<!-- Node26 -->
<g id="node27" class="node">
<title>Node26</title>
<g id="a_node27"><a xlink:href="../../da/dae/ajarefptr_8h.html" target="_top" xlink:title="Defines the AJARefPtr template class. ">
<polygon fill="#ffffff" stroke="#000000" points="34,-224.5 34,-243.5 171,-243.5 171,-224.5 34,-224.5"/>
<text text-anchor="middle" x="102.5" y="-231.5" font-family="Helvetica,sans-Serif" font-size="10.00" fill="#000000">ajabase/common/ajarefptr.h</text>
</a>
</g>
</g>
<!-- Node0&#45;&gt;Node26 -->
<g id="edge37" class="edge">
<title>Node0&#45;&gt;Node26</title>
<path fill="none" stroke="#191970" d="M202.8121,-280.3511C179.9685,-269.7958 152.7829,-257.2342 132.4788,-247.8523"/>
<polygon fill="#191970" stroke="#191970" points="133.9402,-244.672 123.3944,-243.6546 131.004,-251.0265 133.9402,-244.672"/>
</g>
<!-- Node2 -->
<g id="node3" class="node">
<title>Node2</title>
<g id="a_node3"><a xlink:href="../../d6/dd9/ajaexport_8h.html" target="_top" xlink:title="Defines the import/export macros for producing DLLs or LIBs. ">
<polygon fill="#ffffff" stroke="#000000" points="1029,-.5 1029,-19.5 1094,-19.5 1094,-.5 1029,-.5"/>
<text text-anchor="middle" x="1061.5" y="-7.5" font-family="Helvetica,sans-Serif" font-size="10.00" fill="#000000">ajaexport.h</text>
</a>
</g>
</g>
<!-- Node1&#45;&gt;Node2 -->
<g id="edge2" class="edge">
<title>Node1&#45;&gt;Node2</title>
<path fill="none" stroke="#191970" d="M457.2333,-232.8769C590.9043,-228.7353 971.0728,-210.1863 1062.5,-132 1088.8811,-109.4395 1087.255,-90.0486 1080.5,-56 1078.6352,-46.6003 1074.8201,-36.7115 1071.0946,-28.5215"/>
<polygon fill="#191970" stroke="#191970" points="1074.2433,-26.993 1066.7318,-19.5212 1067.9443,-30.0464 1074.2433,-26.993"/>
</g>
<!-- Node3 -->
<g id="node4" class="node">
<title>Node3</title>
<g id="a_node4"><a xlink:href="../../d4/dd7/ntv2publicinterface_8h.html" target="_top" xlink:title="Declares enums and structs used by all platform drivers and the SDK. ">
<polygon fill="#ffffff" stroke="#000000" points="542,-168.5 542,-187.5 649,-187.5 649,-168.5 542,-168.5"/>
<text text-anchor="middle" x="595.5" y="-175.5" font-family="Helvetica,sans-Serif" font-size="10.00" fill="#000000">ntv2publicinterface.h</text>
</a>
</g>
</g>
<!-- Node1&#45;&gt;Node3 -->
<g id="edge3" class="edge">
<title>Node1&#45;&gt;Node3</title>
<path fill="none" stroke="#191970" d="M442.3026,-224.3733C473.3317,-214.9807 520.6754,-200.6496 554.5147,-190.4064"/>
<polygon fill="#191970" stroke="#191970" points="555.5553,-193.7483 564.1124,-187.5011 553.5272,-187.0485 555.5553,-193.7483"/>
</g>
<!-- Node11 -->
<g id="node12" class="node">
<title>Node11</title>
<polygon fill="#ffffff" stroke="#bfbfbf" points="368.5,-112.5 368.5,-131.5 398.5,-131.5 398.5,-112.5 368.5,-112.5"/>
<text text-anchor="middle" x="383.5" y="-119.5" font-family="Helvetica,sans-Serif" font-size="10.00" fill="#000000">set</text>
</g>
<!-- Node1&#45;&gt;Node11 -->
<g id="edge25" class="edge">
<title>Node1&#45;&gt;Node11</title>
<path fill="none" stroke="#191970" d="M363.8767,-225.6914C342.2559,-219.2524 318.5124,-207.907 305.5,-188 288.7437,-162.3653 330.0629,-141.2892 358.747,-130.2819"/>
<polygon fill="#191970" stroke="#191970" points="360.0538,-133.5309 368.2501,-126.8174 357.6562,-126.9543 360.0538,-133.5309"/>
</g>
<!-- Node12 -->
<g id="node13" class="node">
<title>Node12</title>
<polygon fill="#ffffff" stroke="#bfbfbf" points="377,-56.5 377,-75.5 412,-75.5 412,-56.5 377,-56.5"/>
<text text-anchor="middle" x="394.5" y="-63.5" font-family="Helvetica,sans-Serif" font-size="10.00" fill="#000000">map</text>
</g>
<!-- Node1&#45;&gt;Node12 -->
<g id="edge26" class="edge">
<title>Node1&#45;&gt;Node12</title>
<path fill="none" stroke="#191970" d="M422.3227,-224.2598C436.861,-211.0725 458.1464,-187.0035 445.5,-168 422.5439,-133.5043 382.4561,-166.4957 359.5,-132 348.9284,-116.1142 362.068,-96.6888 375.1566,-83.0391"/>
<polygon fill="#191970" stroke="#191970" points="377.9387,-85.2163 382.6773,-75.7402 373.0636,-80.193 377.9387,-85.2163"/>
</g>
<!-- Node18 -->
<g id="node19" class="node">
<title>Node18</title>
<polygon fill="#ffffff" stroke="#bfbfbf" points="314.5,-168.5 314.5,-187.5 366.5,-187.5 366.5,-168.5 314.5,-168.5"/>
<text text-anchor="middle" x="340.5" y="-175.5" font-family="Helvetica,sans-Serif" font-size="10.00" fill="#000000">stddef.h</text>
</g>
<!-- Node1&#45;&gt;Node18 -->
<g id="edge23" class="edge">
<title>Node1&#45;&gt;Node18</title>
<path fill="none" stroke="#191970" d="M398.3069,-224.2455C387.8679,-215.8943 372.6345,-203.7076 360.426,-193.9408"/>
<polygon fill="#191970" stroke="#191970" points="362.5485,-191.1566 352.5533,-187.6427 358.1756,-196.6227 362.5485,-191.1566"/>
</g>
<!-- Node19 -->
<g id="node20" class="node">
<title>Node19</title>
<polygon fill="#ffffff" stroke="#bfbfbf" points="384.5,-168.5 384.5,-187.5 436.5,-187.5 436.5,-168.5 384.5,-168.5"/>
<text text-anchor="middle" x="410.5" y="-175.5" font-family="Helvetica,sans-Serif" font-size="10.00" fill="#000000">sstream</text>
</g>
<!-- Node1&#45;&gt;Node19 -->
<g id="edge24" class="edge">
<title>Node1&#45;&gt;Node19</title>
<path fill="none" stroke="#191970" d="M410.5,-224.2455C410.5,-216.9382 410.5,-206.6944 410.5,-197.7046"/>
<polygon fill="#191970" stroke="#191970" points="414.0001,-197.6426 410.5,-187.6427 407.0001,-197.6427 414.0001,-197.6426"/>
</g>
<!-- Node3&#45;&gt;Node2 -->
<g id="edge20" class="edge">
<title>Node3&#45;&gt;Node2</title>
<path fill="none" stroke="#191970" d="M649.1982,-176.0977C761.7748,-171.5978 1014.4584,-158.6215 1042.5,-132 1070.2369,-105.6679 1068.5405,-56.7805 1064.9649,-29.5677"/>
<polygon fill="#191970" stroke="#191970" points="1068.4229,-29.0262 1063.452,-19.6698 1061.5032,-30.0839 1068.4229,-29.0262"/>
</g>
<!-- Node4 -->
<g id="node5" class="node">
<title>Node4</title>
<g id="a_node5"><a xlink:href="../../db/de2/ajatypes_8h.html" target="_top" xlink:title="Declares the most fundamental data types used by NTV2. Since Windows NT was the first principal devel...">
<polygon fill="#ffffff" stroke="#000000" points="695.5,-56.5 695.5,-75.5 757.5,-75.5 757.5,-56.5 695.5,-56.5"/>
<text text-anchor="middle" x="726.5" y="-63.5" font-family="Helvetica,sans-Serif" font-size="10.00" fill="#000000">ajatypes.h</text>
</a>
</g>
</g>
<!-- Node3&#45;&gt;Node4 -->
<g id="edge4" class="edge">
<title>Node3&#45;&gt;Node4</title>
<path fill="none" stroke="#191970" d="M583.5895,-168.4995C568.3253,-155.1702 545.4213,-130.481 559.5,-112 567.2462,-101.8316 638.3677,-84.8792 685.2651,-74.6394"/>
<polygon fill="#191970" stroke="#191970" points="686.1283,-78.0337 695.1626,-72.4991 684.6487,-71.1919 686.1283,-78.0337"/>
</g>
<!-- Node7 -->
<g id="node8" class="node">
<title>Node7</title>
<g id="a_node8"><a xlink:href="../../d6/d0c/ntv2enums_8h.html" target="_top" xlink:title="Enumerations for controlling NTV2 devices. ">
<polygon fill="#ffffff" stroke="#000000" points="960,-112.5 960,-131.5 1033,-131.5 1033,-112.5 960,-112.5"/>
<text text-anchor="middle" x="996.5" y="-119.5" font-family="Helvetica,sans-Serif" font-size="10.00" fill="#000000">ntv2enums.h</text>
</a>
</g>
</g>
<!-- Node3&#45;&gt;Node7 -->
<g id="edge7" class="edge">
<title>Node3&#45;&gt;Node7</title>
<path fill="none" stroke="#191970" d="M649.104,-172.5974C716.9294,-165.4236 837.5201,-151.5454 949.5944,-132.2219"/>
<polygon fill="#191970" stroke="#191970" points="950.4666,-135.6227 959.717,-130.4574 949.2645,-128.7267 950.4666,-135.6227"/>
</g>
<!-- Node9 -->
<g id="node10" class="node">
<title>Node9</title>
<polygon fill="#ffffff" stroke="#bfbfbf" points="482,-.5 482,-19.5 523,-19.5 523,-.5 482,-.5"/>
<text text-anchor="middle" x="502.5" y="-7.5" font-family="Helvetica,sans-Serif" font-size="10.00" fill="#000000">string</text>
</g>
<!-- Node3&#45;&gt;Node9 -->
<g id="edge16" class="edge">
<title>Node3&#45;&gt;Node9</title>
<path fill="none" stroke="#191970" d="M584.1209,-168.3835C574.4061,-159.6885 560.6007,-146.119 551.5,-132 530.0637,-98.7433 515.1907,-54.5863 507.8215,-29.5398"/>
<polygon fill="#191970" stroke="#191970" points="511.1463,-28.4356 505.0459,-19.7732 504.413,-30.3492 511.1463,-28.4356"/>
</g>
<!-- Node10 -->
<g id="node11" class="node">
<title>Node10</title>
<polygon fill="#ffffff" stroke="#bfbfbf" points="568.5,-112.5 568.5,-131.5 622.5,-131.5 622.5,-112.5 568.5,-112.5"/>
<text text-anchor="middle" x="595.5" y="-119.5" font-family="Helvetica,sans-Serif" font-size="10.00" fill="#000000">iostream</text>
</g>
<!-- Node3&#45;&gt;Node10 -->
<g id="edge12" class="edge">
<title>Node3&#45;&gt;Node10</title>
<path fill="none" stroke="#191970" d="M595.5,-168.2455C595.5,-160.9382 595.5,-150.6944 595.5,-141.7046"/>
<polygon fill="#191970" stroke="#191970" points="599.0001,-141.6426 595.5,-131.6427 592.0001,-141.6427 599.0001,-141.6426"/>
</g>
<!-- Node3&#45;&gt;Node11 -->
<g id="edge13" class="edge">
<title>Node3&#45;&gt;Node11</title>
<path fill="none" stroke="#191970" d="M553.0631,-168.423C515.7926,-159.7532 460.2267,-146.1987 412.5,-132 411.2366,-131.6241 409.9465,-131.2275 408.6465,-130.8176"/>
<polygon fill="#191970" stroke="#191970" points="409.3654,-127.3685 398.772,-127.5409 407.1608,-134.0123 409.3654,-127.3685"/>
</g>
<!-- Node3&#45;&gt;Node12 -->
<g id="edge14" class="edge">
<title>Node3&#45;&gt;Node12</title>
<path fill="none" stroke="#191970" d="M558.6005,-168.4781C532.5875,-160.8425 497.5324,-148.6457 469.5,-132 446.8501,-118.5504 424.6779,-97.8298 410.3884,-83.199"/>
<polygon fill="#191970" stroke="#191970" points="412.7447,-80.5985 403.3078,-75.7822 407.6815,-85.4322 412.7447,-80.5985"/>
</g>
<!-- Node13 -->
<g id="node14" class="node">
<title>Node13</title>
<polygon fill="#ffffff" stroke="#bfbfbf" points="430.5,-56.5 430.5,-75.5 474.5,-75.5 474.5,-56.5 430.5,-56.5"/>
<text text-anchor="middle" x="452.5" y="-63.5" font-family="Helvetica,sans-Serif" font-size="10.00" fill="#000000">vector</text>
</g>
<!-- Node3&#45;&gt;Node13 -->
<g id="edge15" class="edge">
<title>Node3&#45;&gt;Node13</title>
<path fill="none" stroke="#191970" d="M557.6328,-168.4843C535.4329,-161.3747 508.0088,-149.7681 488.5,-132 474.5231,-119.2702 464.8378,-99.8171 459.0622,-85.3238"/>
<polygon fill="#191970" stroke="#191970" points="462.2959,-83.9773 455.5421,-75.8141 455.7312,-86.4073 462.2959,-83.9773"/>
</g>
<!-- Node14 -->
<g id="node15" class="node">
<title>Node14</title>
<polygon fill="#ffffff" stroke="#bfbfbf" points="640.5,-112.5 640.5,-131.5 690.5,-131.5 690.5,-112.5 640.5,-112.5"/>
<text text-anchor="middle" x="665.5" y="-119.5" font-family="Helvetica,sans-Serif" font-size="10.00" fill="#000000">iomanip</text>
</g>
<!-- Node3&#45;&gt;Node14 -->
<g id="edge17" class="edge">
<title>Node3&#45;&gt;Node14</title>
<path fill="none" stroke="#191970" d="M607.6931,-168.2455C618.1321,-159.8943 633.3655,-147.7076 645.574,-137.9408"/>
<polygon fill="#191970" stroke="#191970" points="647.8244,-140.6227 653.4467,-131.6427 643.4515,-135.1566 647.8244,-140.6227"/>
</g>
<!-- Node15 -->
<g id="node16" class="node">
<title>Node15</title>
<polygon fill="#ffffff" stroke="#bfbfbf" points="709,-112.5 709,-131.5 750,-131.5 750,-112.5 709,-112.5"/>
<text text-anchor="middle" x="729.5" y="-119.5" font-family="Helvetica,sans-Serif" font-size="10.00" fill="#000000">bitset</text>
</g>
<!-- Node3&#45;&gt;Node15 -->
<g id="edge18" class="edge">
<title>Node3&#45;&gt;Node15</title>
<path fill="none" stroke="#191970" d="M618.5354,-168.3733C640.8965,-159.0283 674.9552,-144.7949 699.4397,-134.5625"/>
<polygon fill="#191970" stroke="#191970" points="701.0819,-137.6696 708.959,-130.5843 698.3827,-131.2109 701.0819,-137.6696"/>
</g>
<!-- Node16 -->
<g id="node17" class="node">
<title>Node16</title>
<polygon fill="#ffffff" stroke="#bfbfbf" points="768,-112.5 768,-131.5 817,-131.5 817,-112.5 768,-112.5"/>
<text text-anchor="middle" x="792.5" y="-119.5" font-family="Helvetica,sans-Serif" font-size="10.00" fill="#000000">string.h</text>
</g>
<!-- Node3&#45;&gt;Node16 -->
<g id="edge19" class="edge">
<title>Node3&#45;&gt;Node16</title>
<path fill="none" stroke="#191970" d="M630.4317,-168.4283C661.597,-159.8386 708.7193,-146.7285 757.81,-132.4589"/>
<polygon fill="#191970" stroke="#191970" points="759.0293,-135.7493 767.6502,-129.5906 757.0703,-129.029 759.0293,-135.7493"/>
</g>
<!-- Node17 -->
<g id="node18" class="node">
<title>Node17</title>
<g id="a_node18"><a xlink:href="../../da/df0/ntv2virtualregisters_8h.html" target="_top" xlink:title="Declares enums for virtual registers used in all platform drivers and the SDK. ">
<polygon fill="#ffffff" stroke="#000000" points="835,-112.5 835,-131.5 942,-131.5 942,-112.5 835,-112.5"/>
<text text-anchor="middle" x="888.5" y="-119.5" font-family="Helvetica,sans-Serif" font-size="10.00" fill="#000000">ntv2virtualregisters.h</text>
</a>
</g>
</g>
<!-- Node3&#45;&gt;Node17 -->
<g id="edge21" class="edge">
<title>Node3&#45;&gt;Node17</title>
<path fill="none" stroke="#191970" d="M645.5356,-168.4369C696.207,-158.7522 774.5948,-143.7703 828.5559,-133.4569"/>
<polygon fill="#191970" stroke="#191970" points="829.5057,-136.8388 838.6708,-131.5237 828.1915,-129.9633 829.5057,-136.8388"/>
</g>
<!-- Node5 -->
<g id="node6" class="node">
<title>Node5</title>
<g id="a_node6"><a xlink:href="../../db/d40/ntv2deprecate_8h.html" target="_top" xlink:title="Deprecation control macros. ">
<polygon fill="#ffffff" stroke="#000000" points="296.5,-.5 296.5,-19.5 382.5,-19.5 382.5,-.5 296.5,-.5"/>
<text text-anchor="middle" x="339.5" y="-7.5" font-family="Helvetica,sans-Serif" font-size="10.00" fill="#000000">ntv2deprecate.h</text>
</a>
</g>
</g>
<!-- Node4&#45;&gt;Node5 -->
<g id="edge5" class="edge">
<title>Node4&#45;&gt;Node5</title>
<path fill="none" stroke="#191970" d="M695.4844,-61.5119C629.5201,-51.9667 474.6475,-29.5562 392.6274,-17.6877"/>
<polygon fill="#191970" stroke="#191970" points="392.9141,-14.1928 382.5159,-16.2245 391.9116,-21.1206 392.9141,-14.1928"/>
</g>
<!-- Node6 -->
<g id="node7" class="node">
<title>Node6</title>
<polygon fill="#ffffff" stroke="#bfbfbf" points="702,-.5 702,-19.5 751,-19.5 751,-.5 702,-.5"/>
<text text-anchor="middle" x="726.5" y="-7.5" font-family="Helvetica,sans-Serif" font-size="10.00" fill="#000000">stdint.h</text>
</g>
<!-- Node4&#45;&gt;Node6 -->
<g id="edge6" class="edge">
<title>Node4&#45;&gt;Node6</title>
<path fill="none" stroke="#191970" d="M726.5,-56.2455C726.5,-48.9382 726.5,-38.6944 726.5,-29.7046"/>
<polygon fill="#191970" stroke="#191970" points="730.0001,-29.6426 726.5,-19.6427 723.0001,-29.6427 730.0001,-29.6426"/>
</g>
<!-- Node7&#45;&gt;Node4 -->
<g id="edge8" class="edge">
<title>Node7&#45;&gt;Node4</title>
<path fill="none" stroke="#191970" d="M959.6742,-113.763C956.9092,-113.161 954.1612,-112.5677 951.5,-112 887.4697,-98.3412 813.0072,-83.2785 767.8408,-74.2328"/>
<polygon fill="#191970" stroke="#191970" points="768.3305,-70.7615 757.8382,-72.232 766.9574,-77.6255 768.3305,-70.7615"/>
</g>
<!-- Node8 -->
<g id="node9" class="node">
<title>Node8</title>
<g id="a_node9"><a xlink:href="../../d6/db1/ntv2version_8h.html" target="_top" xlink:title="Defines for the NTV2 SDK version number, used by ajantv2/includes/ntv2enums.h. See the ajantv2/includ...">
<polygon fill="#ffffff" stroke="#000000" points="958,-56.5 958,-75.5 1033,-75.5 1033,-56.5 958,-56.5"/>
<text text-anchor="middle" x="995.5" y="-63.5" font-family="Helvetica,sans-Serif" font-size="10.00" fill="#000000">ntv2version.h</text>
</a>
</g>
</g>
<!-- Node7&#45;&gt;Node8 -->
<g id="edge9" class="edge">
<title>Node7&#45;&gt;Node8</title>
<path fill="none" stroke="#191970" d="M996.3258,-112.2455C996.1953,-104.9382 996.0124,-94.6944 995.8519,-85.7046"/>
<polygon fill="#191970" stroke="#191970" points="999.3503,-85.5786 995.6722,-75.6427 992.3514,-85.7036 999.3503,-85.5786"/>
</g>
<!-- Node8&#45;&gt;Node2 -->
<g id="edge10" class="edge">
<title>Node8&#45;&gt;Node2</title>
<path fill="none" stroke="#191970" d="M1006.9963,-56.2455C1016.7442,-47.9746 1030.9259,-35.9416 1042.3798,-26.2232"/>
<polygon fill="#191970" stroke="#191970" points="1044.7747,-28.7813 1050.1354,-19.6427 1040.2459,-23.4437 1044.7747,-28.7813"/>
</g>
<!-- Node8&#45;&gt;Node9 -->
<g id="edge11" class="edge">
<title>Node8&#45;&gt;Node9</title>
<path fill="none" stroke="#191970" d="M957.6337,-61.6988C863.3597,-50.9901 619.5352,-23.2941 533.2872,-13.4971"/>
<polygon fill="#191970" stroke="#191970" points="533.4407,-9.9921 523.1095,-12.341 532.6506,-16.9474 533.4407,-9.9921"/>
</g>
<!-- Node17&#45;&gt;Node4 -->
<g id="edge22" class="edge">
<title>Node17&#45;&gt;Node4</title>
<path fill="none" stroke="#191970" d="M860.6512,-112.3733C833.8297,-103.1016 793.0873,-89.0178 763.5402,-78.804"/>
<polygon fill="#191970" stroke="#191970" points="764.5802,-75.4603 753.9854,-75.5011 762.2931,-82.0762 764.5802,-75.4603"/>
</g>
<!-- Node21 -->
<g id="node22" class="node">
<title>Node21</title>
<g id="a_node22"><a xlink:href="../../d4/d79/public_8h.html" target="_top" xlink:title="Master header for the ajabase library. ">
<polygon fill="#ffffff" stroke="#000000" points="184.5,-112.5 184.5,-131.5 312.5,-131.5 312.5,-112.5 184.5,-112.5"/>
<text text-anchor="middle" x="248.5" y="-119.5" font-family="Helvetica,sans-Serif" font-size="10.00" fill="#000000">ajabase/common/public.h</text>
</a>
</g>
</g>
<!-- Node20&#45;&gt;Node21 -->
<g id="edge28" class="edge">
<title>Node20&#45;&gt;Node21</title>
<path fill="none" stroke="#191970" d="M247.5853,-224.4509C247.7484,-206.184 248.1075,-165.9553 248.3241,-141.6976"/>
<polygon fill="#191970" stroke="#191970" points="251.8254,-141.5558 248.415,-131.5249 244.8257,-141.4932 251.8254,-141.5558"/>
</g>
<!-- Node25 -->
<g id="node26" class="node">
<title>Node25</title>
<polygon fill="#ffffff" stroke="#bfbfbf" points="168.5,-168.5 168.5,-187.5 220.5,-187.5 220.5,-168.5 168.5,-168.5"/>
<text text-anchor="middle" x="194.5" y="-175.5" font-family="Helvetica,sans-Serif" font-size="10.00" fill="#000000">assert.h</text>
</g>
<!-- Node20&#45;&gt;Node25 -->
<g id="edge36" class="edge">
<title>Node20&#45;&gt;Node25</title>
<path fill="none" stroke="#191970" d="M238.2681,-224.2455C230.6683,-216.2155 219.7123,-204.6394 210.6632,-195.0781"/>
<polygon fill="#191970" stroke="#191970" points="213.042,-192.4998 203.6261,-187.6427 207.9579,-197.3115 213.042,-192.4998"/>
</g>
<!-- Node21&#45;&gt;Node9 -->
<g id="edge30" class="edge">
<title>Node21&#45;&gt;Node9</title>
<path fill="none" stroke="#191970" d="M265.625,-112.2804C296.0213,-95.0615 357.1878,-60.573 367.5,-56 402.4233,-40.5133 444.2877,-26.9851 472.041,-18.68"/>
<polygon fill="#191970" stroke="#191970" points="473.3416,-21.9455 481.9429,-15.7595 471.3613,-15.2315 473.3416,-21.9455"/>
</g>
<!-- Node21&#45;&gt;Node12 -->
<g id="edge33" class="edge">
<title>Node21&#45;&gt;Node12</title>
<path fill="none" stroke="#191970" d="M273.5983,-112.3733C299.6243,-102.3907 340.1941,-86.8296 367.0556,-76.5266"/>
<polygon fill="#191970" stroke="#191970" points="368.5371,-79.7071 376.6204,-72.8579 366.0302,-73.1714 368.5371,-79.7071"/>
</g>
<!-- Node21&#45;&gt;Node13 -->
<g id="edge32" class="edge">
<title>Node21&#45;&gt;Node13</title>
<path fill="none" stroke="#191970" d="M285.8666,-112.4846C320.7911,-103.478 374.334,-89.3805 420.5,-76 420.5978,-75.9716 420.6958,-75.9432 420.794,-75.9147"/>
<polygon fill="#191970" stroke="#191970" points="421.5798,-79.333 430.1562,-73.1124 419.5725,-72.6269 421.5798,-79.333"/>
</g>
<!-- Node22 -->
<g id="node23" class="node">
<title>Node22</title>
<g id="a_node23"><a xlink:href="../../db/db5/export_8h.html" target="_top" xlink:title="Declares system&#45;dependent import/export macros and libraries. ">
<polygon fill="#ffffff" stroke="#000000" points="0,-56.5 0,-75.5 129,-75.5 129,-56.5 0,-56.5"/>
<text text-anchor="middle" x="64.5" y="-63.5" font-family="Helvetica,sans-Serif" font-size="10.00" fill="#000000">ajabase/common/export.h</text>
</a>
</g>
</g>
<!-- Node21&#45;&gt;Node22 -->
<g id="edge29" class="edge">
<title>Node21&#45;&gt;Node22</title>
<path fill="none" stroke="#191970" d="M216.8693,-112.3733C186.1404,-103.021 139.324,-88.7725 105.6978,-78.5385"/>
<polygon fill="#191970" stroke="#191970" points="106.3038,-75.0644 95.718,-75.5011 104.2656,-81.7612 106.3038,-75.0644"/>
</g>
<!-- Node23 -->
<g id="node24" class="node">
<title>Node23</title>
<polygon fill="#ffffff" stroke="#bfbfbf" points="147,-56.5 147,-75.5 176,-75.5 176,-56.5 147,-56.5"/>
<text text-anchor="middle" x="161.5" y="-63.5" font-family="Helvetica,sans-Serif" font-size="10.00" fill="#000000">list</text>
</g>
<!-- Node21&#45;&gt;Node23 -->
<g id="edge31" class="edge">
<title>Node21&#45;&gt;Node23</title>
<path fill="none" stroke="#191970" d="M233.3458,-112.2455C219.9159,-103.601 200.1014,-90.8469 184.6809,-80.921"/>
<polygon fill="#191970" stroke="#191970" points="186.4937,-77.9256 176.1907,-75.4561 182.705,-83.8116 186.4937,-77.9256"/>
</g>
<!-- Node24 -->
<g id="node25" class="node">
<title>Node24</title>
<g id="a_node25"><a xlink:href="../../d9/d49/types_8h.html" target="_top" xlink:title="Declares common types used in the ajabase library. ">
<polygon fill="#ffffff" stroke="#000000" points="194.5,-56.5 194.5,-75.5 320.5,-75.5 320.5,-56.5 194.5,-56.5"/>
<text text-anchor="middle" x="257.5" y="-63.5" font-family="Helvetica,sans-Serif" font-size="10.00" fill="#000000">ajabase/common/types.h</text>
</a>
</g>
</g>
<!-- Node21&#45;&gt;Node24 -->
<g id="edge34" class="edge">
<title>Node21&#45;&gt;Node24</title>
<path fill="none" stroke="#191970" d="M250.0677,-112.2455C251.2421,-104.9382 252.8884,-94.6944 254.3332,-85.7046"/>
<polygon fill="#191970" stroke="#191970" points="257.8191,-86.0714 255.9503,-75.6427 250.9078,-84.9606 257.8191,-86.0714"/>
</g>
<!-- Node24&#45;&gt;Node5 -->
<g id="edge35" class="edge">
<title>Node24&#45;&gt;Node5</title>
<path fill="none" stroke="#191970" d="M271.7833,-56.2455C284.247,-47.7337 302.5451,-35.2375 316.9792,-25.3801"/>
<polygon fill="#191970" stroke="#191970" points="319.0962,-28.1726 325.3804,-19.6427 315.1485,-22.392 319.0962,-28.1726"/>
</g>
<!-- Node27 -->
<g id="node28" class="node">
<title>Node27</title>
<g id="a_node28"><a xlink:href="../../dd/d02/atomic_8h.html" target="_top" xlink:title="Declares the AJAAtomic class. ">
<polygon fill="#ffffff" stroke="#000000" points="52.5,-168.5 52.5,-187.5 150.5,-187.5 150.5,-168.5 52.5,-168.5"/>
<text text-anchor="middle" x="101.5" y="-175.5" font-family="Helvetica,sans-Serif" font-size="10.00" fill="#000000">../system/atomic.h</text>
</a>
</g>
</g>
<!-- Node26&#45;&gt;Node27 -->
<g id="edge38" class="edge">
<title>Node26&#45;&gt;Node27</title>
<path fill="none" stroke="#191970" d="M102.3258,-224.2455C102.1953,-216.9382 102.0124,-206.6944 101.8519,-197.7046"/>
<polygon fill="#191970" stroke="#191970" points="105.3503,-197.5786 101.6722,-187.6427 98.3514,-197.7036 105.3503,-197.5786"/>
</g>
<!-- Node27&#45;&gt;Node21 -->
<g id="edge39" class="edge">
<title>Node27&#45;&gt;Node21</title>
<path fill="none" stroke="#191970" d="M126.7702,-168.3733C150.8966,-159.1822 187.4362,-145.2624 214.1877,-135.0713"/>
<polygon fill="#191970" stroke="#191970" points="215.4607,-138.3318 223.5596,-131.5011 212.9687,-131.7904 215.4607,-138.3318"/>
</g>
</g>
</svg>
        <g id="navigator" transform="translate(0 0)" fill="#404254">
                <rect fill="#f2f5e9" fill-opacity="0.5" stroke="#606060" stroke-width=".5" x="0" y="0" width="60" height="60"/>
                <use id="zoomplus" xlink:href="#zoomPlus" x="17" y="9" onmousedown="handleZoom(evt,'in')"/>
                <use id="zoomminus" xlink:href="#zoomMin" x="42" y="9" onmousedown="handleZoom(evt,'out')"/>
                <use id="reset" xlink:href="#resetDef" x="30" y="36" onmousedown="handleReset()"/>
                <g id="arrowUp" xlink:href="#dirArrow" transform="translate(30 24)" onmousedown="handlePan(0,-1)">
                  <use xlink:href="#rim" fill="#404040">
                        <set attributeName="fill" to="#808080" begin="arrowUp.mouseover" end="arrowUp.mouseout"/>
                  </use>
                  <path fill="none" stroke="white" stroke-width="1.5" d="M0,-3.0v7 M-2.5,-0.5L0,-3.0L2.5,-0.5"/>
                </g>
                <g id="arrowRight" xlink:href="#dirArrow" transform="rotate(90) translate(36 -43)" onmousedown="handlePan(1,0)">
                  <use xlink:href="#rim" fill="#404040">
                        <set attributeName="fill" to="#808080" begin="arrowRight.mouseover" end="arrowRight.mouseout"/>
                  </use>
                  <path fill="none" stroke="white" stroke-width="1.5" d="M0,-3.0v7 M-2.5,-0.5L0,-3.0L2.5,-0.5"/>
                </g>
                <g id="arrowDown" xlink:href="#dirArrow" transform="rotate(180) translate(-30 -48)" onmousedown="handlePan(0,1)">
                  <use xlink:href="#rim" fill="#404040">
                        <set attributeName="fill" to="#808080" begin="arrowDown.mouseover" end="arrowDown.mouseout"/>
                  </use>
                  <path fill="none" stroke="white" stroke-width="1.5" d="M0,-3.0v7 M-2.5,-0.5L0,-3.0L2.5,-0.5"/>
                </g>
                <g id="arrowLeft" xlink:href="#dirArrow" transform="rotate(270) translate(-36 17)" onmousedown="handlePan(-1,0)">
                  <use xlink:href="#rim" fill="#404040">
                        <set attributeName="fill" to="#808080" begin="arrowLeft.mouseover" end="arrowLeft.mouseout"/>
                  </use>
                  <path fill="none" stroke="white" stroke-width="1.5" d="M0,-3.0v7 M-2.5,-0.5L0,-3.0L2.5,-0.5"/>
                </g>
        </g>
        <svg viewBox="0 0 15 15" width="100%" height="30px" preserveAspectRatio="xMaxYMin meet">
         <g id="arrow_out" transform="scale(0.3 0.3)">
          <a xlink:href="ntv2routingexpert_8h__incl_org.svg" target="_base">
           <rect id="button" ry="5" rx="5" y="6" x="6" height="38" width="38"
                fill="#f2f5e9" fill-opacity="0.5" stroke="#606060" stroke-width="1.0"/>
           <path id="arrow"
             d="M 11.500037,31.436501 C 11.940474,20.09759 22.043105,11.32322 32.158766,21.979434 L 37.068811,17.246167 C 37.068811,17.246167 37.088388,32 37.088388,32 L 22.160133,31.978069 C 22.160133,31.978069 26.997745,27.140456 26.997745,27.140456 C 18.528582,18.264221 13.291696,25.230495 11.500037,31.436501 z"
             style="fill:#404040;"/>
          </a>
         </g>
        </svg>
</svg>
