<?xml version="1.0" encoding="UTF-8" standalone="no"?>
<!DOCTYPE svg PUBLIC "-//W3C//DTD SVG 1.1//EN"
 "http://www.w3.org/Graphics/SVG/1.1/DTD/svg11.dtd">
<!-- Generated by graphviz version 2.40.1 (0)
 -->
<!-- Title: /home/tcbuilder/buildAgent/work/df8e8cce5bebfd58/libajantv2/demos/ntv2qtmultiinput/ntv2qtmultiinput.h Pages: 1 -->
<svg width="406pt" height="128pt"
 viewBox="0.00 0.00 405.50 128.00" xmlns="http://www.w3.org/2000/svg" xmlns:xlink="http://www.w3.org/1999/xlink">
<g id="graph0" class="graph" transform="scale(1 1) rotate(0) translate(4 124)">
<title>/home/tcbuilder/buildAgent/work/df8e8cce5bebfd58/libajantv2/demos/ntv2qtmultiinput/ntv2qtmultiinput.h</title>
<polygon fill="#ffffff" stroke="transparent" points="-4,4 -4,-124 401.5,-124 401.5,4 -4,4"/>
<!-- Node57 -->
<g id="node1" class="node">
<title>Node57</title>
<polygon fill="#bfbfbf" stroke="#000000" points="87,-78.5 87,-119.5 288,-119.5 288,-78.5 87,-78.5"/>
<text text-anchor="start" x="95" y="-107.5" font-family="Helvetica,sans-Serif" font-size="10.00" fill="#000000">/home/tcbuilder/buildAgent</text>
<text text-anchor="start" x="95" y="-96.5" font-family="Helvetica,sans-Serif" font-size="10.00" fill="#000000">/work/df8e8cce5bebfd58/libajantv2</text>
<text text-anchor="middle" x="187.5" y="-85.5" font-family="Helvetica,sans-Serif" font-size="10.00" fill="#000000">/demos/ntv2qtmultiinput/ntv2qtmultiinput.h</text>
</g>
<!-- Node58 -->
<g id="node2" class="node">
<title>Node58</title>
<g id="a_node2"><a xlink:href="../../d8/dd3/ntv2qtmultiinput_2main_8cpp.html" target="_top" xlink:title="Demonstration application that uses AutoCirculate to capture frames from 1, 2, 3, or 4 SDI inputs and...">
<polygon fill="#ffffff" stroke="#000000" points="0,-.5 0,-41.5 167,-41.5 167,-.5 0,-.5"/>
<text text-anchor="start" x="8" y="-29.5" font-family="Helvetica,sans-Serif" font-size="10.00" fill="#000000">/home/tcbuilder/buildAgent</text>
<text text-anchor="start" x="8" y="-18.5" font-family="Helvetica,sans-Serif" font-size="10.00" fill="#000000">/work/df8e8cce5bebfd58/libajantv2</text>
<text text-anchor="middle" x="83.5" y="-7.5" font-family="Helvetica,sans-Serif" font-size="10.00" fill="#000000">/demos/ntv2qtmultiinput/main.cpp</text>
</a>
</g>
</g>
<!-- Node57&#45;&gt;Node58 -->
<g id="edge1" class="edge">
<title>Node57&#45;&gt;Node58</title>
<path fill="none" stroke="#191970" d="M151.8029,-72.2272C138.4015,-62.1761 123.3929,-50.9196 110.8651,-41.5239"/>
<polygon fill="#191970" stroke="#191970" points="149.8029,-75.1022 159.903,-78.3022 154.0029,-69.5022 149.8029,-75.1022"/>
</g>
<!-- Node59 -->
<g id="node3" class="node">
<title>Node59</title>
<g id="a_node3"><a xlink:href="../../de/d73/ntv2qtmultiinput_8cpp.html" target="_top" xlink:title="Implementation of the NTV2QtMultiInput class. ">
<polygon fill="#ffffff" stroke="#000000" points="185.5,-.5 185.5,-41.5 397.5,-41.5 397.5,-.5 185.5,-.5"/>
<text text-anchor="start" x="193.5" y="-29.5" font-family="Helvetica,sans-Serif" font-size="10.00" fill="#000000">/home/tcbuilder/buildAgent</text>
<text text-anchor="start" x="193.5" y="-18.5" font-family="Helvetica,sans-Serif" font-size="10.00" fill="#000000">/work/df8e8cce5bebfd58/libajantv2</text>
<text text-anchor="middle" x="291.5" y="-7.5" font-family="Helvetica,sans-Serif" font-size="10.00" fill="#000000">/demos/ntv2qtmultiinput/ntv2qtmultiinput.cpp</text>
</a>
</g>
</g>
<!-- Node57&#45;&gt;Node59 -->
<g id="edge2" class="edge">
<title>Node57&#45;&gt;Node59</title>
<path fill="none" stroke="#191970" d="M223.1971,-72.2272C236.5985,-62.1761 251.6071,-50.9196 264.1349,-41.5239"/>
<polygon fill="#191970" stroke="#191970" points="220.9971,-69.5022 215.097,-78.3022 225.1971,-75.1022 220.9971,-69.5022"/>
</g>
</g>
</svg>
