<?xml version="1.0" encoding="UTF-8" standalone="no"?>
<!DOCTYPE svg PUBLIC "-//W3C//DTD SVG 1.1//EN"
 "http://www.w3.org/Graphics/SVG/1.1/DTD/svg11.dtd">
<!-- Generated by graphviz version 2.43.0 (0)
 -->
<!-- Title: /home/tcbuilder/buildAgent/work/df8e8cce5bebfd58/libajantv2/ajantv2/includes/ntv2mcsfile.h Pages: 1 -->
<!--zoomable 386 -->
<svg id="main" version="1.1" xmlns="http://www.w3.org/2000/svg" xmlns:xlink="http://www.w3.org/1999/xlink" xml:space="preserve" onload="init(evt)">
<style type="text/css"><![CDATA[
.edge:hover path { stroke: red; }
.edge:hover polygon { stroke: red; fill: red; }
]]></style>
<script type="text/javascript"><![CDATA[
var edges = document.getElementsByTagName('g');
if (edges && edges.length) {
  for (var i=0;i<edges.length;i++) {
    if (edges[i].id.substr(0,4)=='edge') {
      edges[i].setAttribute('class','edge');
    }
  }
}
]]></script>
        <defs>
                <circle id="rim" cx="0" cy="0" r="7"/>
                <circle id="rim2" cx="0" cy="0" r="3.5"/>
                <g id="zoomPlus">
                        <use xlink:href="#rim" fill="#404040">
                                <set attributeName="fill" to="#808080" begin="zoomplus.mouseover" end="zoomplus.mouseout"/>
                        </use>
                        <path d="M-4,0h8M0,-4v8" fill="none" stroke="white" stroke-width="1.5" pointer-events="none"/>
                </g>
                <g id="zoomMin">
                        <use xlink:href="#rim" fill="#404040">
                                <set attributeName="fill" to="#808080" begin="zoomminus.mouseover" end="zoomminus.mouseout"/>
                        </use>
                        <path d="M-4,0h8" fill="none" stroke="white" stroke-width="1.5" pointer-events="none"/>
                </g>
                <g id="dirArrow">
                        <path fill="none" stroke="white" stroke-width="1.5" d="M0,-3.0v7 M-2.5,-0.5L0,-3.0L2.5,-0.5"/>
                </g>
               <g id="resetDef">
                       <use xlink:href="#rim2" fill="#404040">
                               <set attributeName="fill" to="#808080" begin="reset.mouseover" end="reset.mouseout"/>
                       </use>
               </g>
        </defs>

<script type="text/javascript">
var viewWidth = 1210;
var viewHeight = 386;
var sectionId = 'dynsection-0';
</script>
<script xlink:href="../../svgpan.js"/>
<svg id="graph" class="graph">
<g id="viewport">
<title>/home/tcbuilder/buildAgent/work/df8e8cce5bebfd58/libajantv2/ajantv2/includes/ntv2mcsfile.h</title>
<polygon fill="white" stroke="transparent" points="-4,4 -4,-382 1205.5,-382 1205.5,4 -4,4"/>
<!-- Node1 -->
<g id="node1" class="node">
<title>Node1</title>
<g id="a_node1"><a xlink:title="Declares the CNTV2MCSfile class.">
<polygon fill="#bfbfbf" stroke="black" points="824,-336.5 824,-377.5 1012,-377.5 1012,-336.5 824,-336.5"/>
<text text-anchor="start" x="832" y="-365.5" font-family="Helvetica,sans-Serif" font-size="10.00">/home/tcbuilder/buildAgent</text>
<text text-anchor="start" x="832" y="-354.5" font-family="Helvetica,sans-Serif" font-size="10.00">/work/df8e8cce5bebfd58/libajantv2</text>
<text text-anchor="middle" x="918" y="-343.5" font-family="Helvetica,sans-Serif" font-size="10.00">/ajantv2/includes/ntv2mcsfile.h</text>
</a>
</g>
</g>
<!-- Node2 -->
<g id="node2" class="node">
<title>Node2</title>
<g id="a_node2"><a xlink:title=" ">
<polygon fill="white" stroke="#bfbfbf" points="374,-0.5 374,-19.5 418,-19.5 418,-0.5 374,-0.5"/>
<text text-anchor="middle" x="396" y="-7.5" font-family="Helvetica,sans-Serif" font-size="10.00">string</text>
</a>
</g>
</g>
<!-- Node1&#45;&gt;Node2 -->
<g id="edge1" class="edge">
<title>Node1&#45;&gt;Node2</title>
<path fill="none" stroke="midnightblue" d="M1012.14,-336.42C1064.02,-319.53 1118,-288.97 1118,-235 1118,-235 1118,-235 1118,-121 1118,-32.17 1015.92,-74.32 929,-56 742.27,-16.64 511.89,-11.47 428.25,-10.97"/>
<polygon fill="midnightblue" stroke="midnightblue" points="428.13,-7.47 418.11,-10.93 428.1,-14.47 428.13,-7.47"/>
</g>
<!-- Node3 -->
<g id="node3" class="node">
<title>Node3</title>
<g id="a_node3"><a xlink:title=" ">
<polygon fill="white" stroke="#bfbfbf" points="58.5,-112.5 58.5,-131.5 105.5,-131.5 105.5,-112.5 58.5,-112.5"/>
<text text-anchor="middle" x="82" y="-119.5" font-family="Helvetica,sans-Serif" font-size="10.00">vector</text>
</a>
</g>
</g>
<!-- Node1&#45;&gt;Node3 -->
<g id="edge2" class="edge">
<title>Node1&#45;&gt;Node3</title>
<path fill="none" stroke="midnightblue" d="M823.75,-352.48C639.82,-344.04 241.16,-317.58 128,-244 93.72,-221.71 84.93,-169.99 82.72,-141.93"/>
<polygon fill="midnightblue" stroke="midnightblue" points="86.2,-141.59 82.12,-131.81 79.21,-142 86.2,-141.59"/>
</g>
<!-- Node4 -->
<g id="node4" class="node">
<title>Node4</title>
<g id="a_node4"><a xlink:title=" ">
<polygon fill="white" stroke="#bfbfbf" points="1146.5,-280.5 1146.5,-299.5 1201.5,-299.5 1201.5,-280.5 1146.5,-280.5"/>
<text text-anchor="middle" x="1174" y="-287.5" font-family="Helvetica,sans-Serif" font-size="10.00">fstream</text>
</a>
</g>
</g>
<!-- Node1&#45;&gt;Node4 -->
<g id="edge3" class="edge">
<title>Node1&#45;&gt;Node4</title>
<path fill="none" stroke="midnightblue" d="M994.81,-336.5C1041.66,-324.6 1099.46,-309.93 1136.52,-300.52"/>
<polygon fill="midnightblue" stroke="midnightblue" points="1137.57,-303.86 1146.4,-298.01 1135.84,-297.08 1137.57,-303.86"/>
</g>
<!-- Node5 -->
<g id="node5" class="node">
<title>Node5</title>
<g id="a_node5"><a xlink:href="../../d0/d81/ntv2utils_8h.html" target="_top" xlink:title="Declares numerous NTV2 utility functions.">
<polygon fill="white" stroke="black" points="684,-280.5 684,-299.5 752,-299.5 752,-280.5 684,-280.5"/>
<text text-anchor="middle" x="718" y="-287.5" font-family="Helvetica,sans-Serif" font-size="10.00">ntv2utils.h</text>
</a>
</g>
</g>
<!-- Node1&#45;&gt;Node5 -->
<g id="edge4" class="edge">
<title>Node1&#45;&gt;Node5</title>
<path fill="none" stroke="midnightblue" d="M857.99,-336.5C824.13,-325.49 782.94,-312.11 754.04,-302.71"/>
<polygon fill="midnightblue" stroke="midnightblue" points="754.95,-299.33 744.36,-299.57 752.79,-305.99 754.95,-299.33"/>
</g>
<!-- Node5&#45;&gt;Node2 -->
<g id="edge38" class="edge">
<title>Node5&#45;&gt;Node2</title>
<path fill="none" stroke="midnightblue" d="M722.65,-280.48C731.02,-266.08 750.08,-237.23 775,-224 831.58,-193.96 1018.63,-236.04 1061,-188 1080.66,-165.71 1055.24,-128.83 1034,-112 938.33,-36.19 543.98,-16.28 428.14,-12.01"/>
<polygon fill="midnightblue" stroke="midnightblue" points="428.24,-8.52 418.12,-11.66 427.99,-15.51 428.24,-8.52"/>
</g>
<!-- Node5&#45;&gt;Node3 -->
<g id="edge40" class="edge">
<title>Node5&#45;&gt;Node3</title>
<path fill="none" stroke="midnightblue" d="M683.65,-287.91C568.55,-284.04 201.12,-269.76 155,-244 115.67,-222.04 95.2,-169.33 86.77,-141.28"/>
<polygon fill="midnightblue" stroke="midnightblue" points="90.11,-140.22 84.04,-131.54 83.37,-142.12 90.11,-140.22"/>
</g>
<!-- Node6 -->
<g id="node6" class="node">
<title>Node6</title>
<g id="a_node6"><a xlink:href="../../d6/dd9/ajaexport_8h.html" target="_top" xlink:title="Defines the import/export macros for producing DLLs or LIBs.">
<polygon fill="white" stroke="black" points="129,-0.5 129,-19.5 201,-19.5 201,-0.5 129,-0.5"/>
<text text-anchor="middle" x="165" y="-7.5" font-family="Helvetica,sans-Serif" font-size="10.00">ajaexport.h</text>
</a>
</g>
</g>
<!-- Node5&#45;&gt;Node6 -->
<g id="edge5" class="edge">
<title>Node5&#45;&gt;Node6</title>
<path fill="none" stroke="midnightblue" d="M683.73,-288.15C574.22,-285.14 233.72,-273.6 128,-244 66.56,-226.8 0,-242.8 0,-179 0,-179 0,-179 0,-121 0,-63.51 70.21,-34.21 119.03,-20.8"/>
<polygon fill="midnightblue" stroke="midnightblue" points="120,-24.16 128.79,-18.24 118.23,-17.39 120,-24.16"/>
</g>
<!-- Node7 -->
<g id="node7" class="node">
<title>Node7</title>
<g id="a_node7"><a xlink:href="../../db/de2/ajatypes_8h.html" target="_top" xlink:title="Declares the most fundamental data types used by NTV2. Since Windows NT was the first principal devel...">
<polygon fill="white" stroke="black" points="705,-56.5 705,-75.5 773,-75.5 773,-56.5 705,-56.5"/>
<text text-anchor="middle" x="739" y="-63.5" font-family="Helvetica,sans-Serif" font-size="10.00">ajatypes.h</text>
</a>
</g>
</g>
<!-- Node5&#45;&gt;Node7 -->
<g id="edge6" class="edge">
<title>Node5&#45;&gt;Node7</title>
<path fill="none" stroke="midnightblue" d="M752.01,-288.53C790.63,-286.3 853.64,-277.31 895,-244 924.41,-220.31 908.26,-196.53 933,-168 955.25,-142.34 1006.75,-138.09 985,-112 959.85,-81.83 847.37,-71.83 783.57,-68.56"/>
<polygon fill="midnightblue" stroke="midnightblue" points="783.54,-65.05 773.39,-68.07 783.21,-72.04 783.54,-65.05"/>
</g>
<!-- Node9 -->
<g id="node9" class="node">
<title>Node9</title>
<g id="a_node9"><a xlink:href="../../d6/d0c/ntv2enums_8h.html" target="_top" xlink:title="Enumerations for controlling NTV2 devices.">
<polygon fill="white" stroke="black" points="212,-112.5 212,-131.5 292,-131.5 292,-112.5 212,-112.5"/>
<text text-anchor="middle" x="252" y="-119.5" font-family="Helvetica,sans-Serif" font-size="10.00">ntv2enums.h</text>
</a>
</g>
</g>
<!-- Node5&#45;&gt;Node9 -->
<g id="edge8" class="edge">
<title>Node5&#45;&gt;Node9</title>
<path fill="none" stroke="midnightblue" d="M693.93,-280.42C616.67,-252.9 374.84,-166.76 285.55,-134.95"/>
<polygon fill="midnightblue" stroke="midnightblue" points="286.52,-131.58 275.93,-131.52 284.17,-138.18 286.52,-131.58"/>
</g>
<!-- Node11 -->
<g id="node11" class="node">
<title>Node11</title>
<g id="a_node11"><a xlink:href="../../d9/d61/ntv2videodefines_8h.html" target="_top" xlink:title="Declares common video macros and structs used in the SDK.">
<polygon fill="white" stroke="black" points="942,-168.5 942,-187.5 1052,-187.5 1052,-168.5 942,-168.5"/>
<text text-anchor="middle" x="997" y="-175.5" font-family="Helvetica,sans-Serif" font-size="10.00">ntv2videodefines.h</text>
</a>
</g>
</g>
<!-- Node5&#45;&gt;Node11 -->
<g id="edge13" class="edge">
<title>Node5&#45;&gt;Node11</title>
<path fill="none" stroke="midnightblue" d="M752.27,-287.3C795.5,-283.93 871.05,-273.89 928,-244 950.66,-232.11 971.25,-210.68 983.92,-195.69"/>
<polygon fill="midnightblue" stroke="midnightblue" points="986.81,-197.69 990.42,-187.73 981.39,-193.26 986.81,-197.69"/>
</g>
<!-- Node12 -->
<g id="node12" class="node">
<title>Node12</title>
<g id="a_node12"><a xlink:href="../../d4/dd7/ntv2publicinterface_8h.html" target="_top" xlink:title="Declares enums and structs used by all platform drivers and the SDK.">
<polygon fill="white" stroke="black" points="478,-168.5 478,-187.5 598,-187.5 598,-168.5 478,-168.5"/>
<text text-anchor="middle" x="538" y="-175.5" font-family="Helvetica,sans-Serif" font-size="10.00">ntv2publicinterface.h</text>
</a>
</g>
</g>
<!-- Node5&#45;&gt;Node12 -->
<g id="edge15" class="edge">
<title>Node5&#45;&gt;Node12</title>
<path fill="none" stroke="midnightblue" d="M703.88,-280.37C672.86,-261.41 598.55,-216 560.81,-192.94"/>
<polygon fill="midnightblue" stroke="midnightblue" points="562.42,-189.82 552.06,-187.59 558.77,-195.79 562.42,-189.82"/>
</g>
<!-- Node13 -->
<g id="node13" class="node">
<title>Node13</title>
<g id="a_node13"><a xlink:title=" ">
<polygon fill="white" stroke="#bfbfbf" points="916,-112.5 916,-131.5 976,-131.5 976,-112.5 916,-112.5"/>
<text text-anchor="middle" x="946" y="-119.5" font-family="Helvetica,sans-Serif" font-size="10.00">iostream</text>
</a>
</g>
</g>
<!-- Node5&#45;&gt;Node13 -->
<g id="edge39" class="edge">
<title>Node5&#45;&gt;Node13</title>
<path fill="none" stroke="midnightblue" d="M719.12,-280.37C721.28,-266.84 727.2,-240.46 742,-224 786.34,-174.69 860.21,-146.63 905.84,-133.14"/>
<polygon fill="midnightblue" stroke="midnightblue" points="907.03,-136.44 915.68,-130.33 905.1,-129.71 907.03,-136.44"/>
</g>
<!-- Node20 -->
<g id="node20" class="node">
<title>Node20</title>
<g id="a_node20"><a xlink:href="../../dc/df4/ntv2formatdescriptor_8h.html" target="_top" xlink:title="Declares the NTV2FormatDescriptor class.">
<polygon fill="white" stroke="black" points="164,-224.5 164,-243.5 292,-243.5 292,-224.5 164,-224.5"/>
<text text-anchor="middle" x="228" y="-231.5" font-family="Helvetica,sans-Serif" font-size="10.00">ntv2formatdescriptor.h</text>
</a>
</g>
</g>
<!-- Node5&#45;&gt;Node20 -->
<g id="edge29" class="edge">
<title>Node5&#45;&gt;Node20</title>
<path fill="none" stroke="midnightblue" d="M683.81,-285.34C613.2,-277.76 446.15,-259.74 306,-244 304.88,-243.87 303.76,-243.75 302.62,-243.62"/>
<polygon fill="midnightblue" stroke="midnightblue" points="302.6,-240.1 292.27,-242.45 301.81,-247.05 302.6,-240.1"/>
</g>
<!-- Node21 -->
<g id="node21" class="node">
<title>Node21</title>
<g id="a_node21"><a xlink:href="../../de/d26/ntv2m31enums_8h.html" target="_top" xlink:title="Enumerations for controlling NTV2 devices with m31 HEVC encoders.">
<polygon fill="white" stroke="black" points="784,-224.5 784,-243.5 886,-243.5 886,-224.5 784,-224.5"/>
<text text-anchor="middle" x="835" y="-231.5" font-family="Helvetica,sans-Serif" font-size="10.00">ntv2m31enums.h</text>
</a>
</g>
</g>
<!-- Node5&#45;&gt;Node21 -->
<g id="edge37" class="edge">
<title>Node5&#45;&gt;Node21</title>
<path fill="none" stroke="midnightblue" d="M736.54,-280.44C755.62,-271.64 785.57,-257.81 807.44,-247.72"/>
<polygon fill="midnightblue" stroke="midnightblue" points="808.93,-250.88 816.55,-243.52 806,-244.53 808.93,-250.88"/>
</g>
<!-- Node8 -->
<g id="node8" class="node">
<title>Node8</title>
<g id="a_node8"><a xlink:title=" ">
<polygon fill="white" stroke="#bfbfbf" points="712.5,-0.5 712.5,-19.5 765.5,-19.5 765.5,-0.5 712.5,-0.5"/>
<text text-anchor="middle" x="739" y="-7.5" font-family="Helvetica,sans-Serif" font-size="10.00">stdint.h</text>
</a>
</g>
</g>
<!-- Node7&#45;&gt;Node8 -->
<g id="edge7" class="edge">
<title>Node7&#45;&gt;Node8</title>
<path fill="none" stroke="midnightblue" d="M739,-56.08C739,-49.01 739,-38.86 739,-29.99"/>
<polygon fill="midnightblue" stroke="midnightblue" points="742.5,-29.75 739,-19.75 735.5,-29.75 742.5,-29.75"/>
</g>
<!-- Node9&#45;&gt;Node7 -->
<g id="edge9" class="edge">
<title>Node9&#45;&gt;Node7</title>
<path fill="none" stroke="midnightblue" d="M292.27,-116.54C382.66,-106.51 601.09,-82.29 694.94,-71.89"/>
<polygon fill="midnightblue" stroke="midnightblue" points="695.41,-75.36 704.96,-70.77 694.63,-68.4 695.41,-75.36"/>
</g>
<!-- Node10 -->
<g id="node10" class="node">
<title>Node10</title>
<g id="a_node10"><a xlink:href="../../d6/db1/ntv2version_8h.html" target="_top" xlink:title="Defines for the NTV2 SDK version number, used by ajantv2/includes/ntv2enums.h. See the ajantv2/includ...">
<polygon fill="white" stroke="black" points="250.5,-56.5 250.5,-75.5 333.5,-75.5 333.5,-56.5 250.5,-56.5"/>
<text text-anchor="middle" x="292" y="-63.5" font-family="Helvetica,sans-Serif" font-size="10.00">ntv2version.h</text>
</a>
</g>
</g>
<!-- Node9&#45;&gt;Node10 -->
<g id="edge10" class="edge">
<title>Node9&#45;&gt;Node10</title>
<path fill="none" stroke="midnightblue" d="M258.61,-112.08C264.26,-104.46 272.54,-93.26 279.45,-83.94"/>
<polygon fill="midnightblue" stroke="midnightblue" points="282.38,-85.87 285.52,-75.75 276.75,-81.7 282.38,-85.87"/>
</g>
<!-- Node10&#45;&gt;Node2 -->
<g id="edge12" class="edge">
<title>Node10&#45;&gt;Node2</title>
<path fill="none" stroke="midnightblue" d="M308.71,-56.32C325.31,-47.7 351,-34.36 370.22,-24.39"/>
<polygon fill="midnightblue" stroke="midnightblue" points="372.07,-27.37 379.33,-19.65 368.84,-21.16 372.07,-27.37"/>
</g>
<!-- Node10&#45;&gt;Node6 -->
<g id="edge11" class="edge">
<title>Node10&#45;&gt;Node6</title>
<path fill="none" stroke="midnightblue" d="M271.88,-56.44C250.98,-47.56 218.07,-33.56 194.28,-23.45"/>
<polygon fill="midnightblue" stroke="midnightblue" points="195.6,-20.21 185.03,-19.52 192.86,-26.65 195.6,-20.21"/>
</g>
<!-- Node11&#45;&gt;Node7 -->
<g id="edge14" class="edge">
<title>Node11&#45;&gt;Node7</title>
<path fill="none" stroke="midnightblue" d="M1004.41,-168.41C1015.11,-154.92 1032.15,-128.61 1018,-112 988.42,-77.27 854.6,-69.25 783.59,-67.46"/>
<polygon fill="midnightblue" stroke="midnightblue" points="783.25,-63.95 773.17,-67.23 783.09,-70.95 783.25,-63.95"/>
</g>
<!-- Node12&#45;&gt;Node2 -->
<g id="edge22" class="edge">
<title>Node12&#45;&gt;Node2</title>
<path fill="none" stroke="midnightblue" d="M478.47,-168.47C455.37,-162.15 430.74,-151.15 415,-132 391.01,-102.81 391.17,-55.84 393.51,-29.84"/>
<polygon fill="midnightblue" stroke="midnightblue" points="397,-30.13 394.62,-19.8 390.04,-29.35 397,-30.13"/>
</g>
<!-- Node12&#45;&gt;Node3 -->
<g id="edge21" class="edge">
<title>Node12&#45;&gt;Node3</title>
<path fill="none" stroke="midnightblue" d="M477.92,-169.88C380.91,-158.4 192.88,-136.13 116.01,-127.03"/>
<polygon fill="midnightblue" stroke="midnightblue" points="116.26,-123.53 105.92,-125.83 115.44,-130.48 116.26,-123.53"/>
</g>
<!-- Node12&#45;&gt;Node6 -->
<g id="edge26" class="edge">
<title>Node12&#45;&gt;Node6</title>
<path fill="none" stroke="midnightblue" d="M496.97,-168.42C437.63,-154.84 325.69,-124.84 241,-76 217.65,-62.53 194.67,-41.5 180.2,-27.02"/>
<polygon fill="midnightblue" stroke="midnightblue" points="182.58,-24.45 173.09,-19.75 177.57,-29.34 182.58,-24.45"/>
</g>
<!-- Node12&#45;&gt;Node7 -->
<g id="edge16" class="edge">
<title>Node12&#45;&gt;Node7</title>
<path fill="none" stroke="midnightblue" d="M554.36,-168.49C571.52,-159.52 599.25,-144.94 623,-132 655.07,-114.53 691.8,-93.83 715.19,-80.56"/>
<polygon fill="midnightblue" stroke="midnightblue" points="717.08,-83.51 724.05,-75.53 713.62,-77.42 717.08,-83.51"/>
</g>
<!-- Node12&#45;&gt;Node9 -->
<g id="edge17" class="edge">
<title>Node12&#45;&gt;Node9</title>
<path fill="none" stroke="midnightblue" d="M492.68,-168.44C440.74,-158.64 355.87,-142.61 302.04,-132.45"/>
<polygon fill="midnightblue" stroke="midnightblue" points="302.51,-128.97 292.03,-130.56 301.21,-135.85 302.51,-128.97"/>
</g>
<!-- Node12&#45;&gt;Node13 -->
<g id="edge18" class="edge">
<title>Node12&#45;&gt;Node13</title>
<path fill="none" stroke="midnightblue" d="M598.17,-170.44C682.89,-161.09 834.12,-143.88 905.84,-132.01"/>
<polygon fill="midnightblue" stroke="midnightblue" points="906.57,-135.43 915.83,-130.29 905.38,-128.53 906.57,-135.43"/>
</g>
<!-- Node14 -->
<g id="node14" class="node">
<title>Node14</title>
<g id="a_node14"><a xlink:title=" ">
<polygon fill="white" stroke="#bfbfbf" points="670,-112.5 670,-131.5 702,-131.5 702,-112.5 670,-112.5"/>
<text text-anchor="middle" x="686" y="-119.5" font-family="Helvetica,sans-Serif" font-size="10.00">set</text>
</a>
</g>
</g>
<!-- Node12&#45;&gt;Node14 -->
<g id="edge19" class="edge">
<title>Node12&#45;&gt;Node14</title>
<path fill="none" stroke="midnightblue" d="M561.45,-168.44C588.46,-158.59 632.66,-142.46 660.5,-132.3"/>
<polygon fill="midnightblue" stroke="midnightblue" points="661.76,-135.57 669.96,-128.85 659.36,-128.99 661.76,-135.57"/>
</g>
<!-- Node15 -->
<g id="node15" class="node">
<title>Node15</title>
<g id="a_node15"><a xlink:title=" ">
<polygon fill="white" stroke="#bfbfbf" points="720,-112.5 720,-131.5 758,-131.5 758,-112.5 720,-112.5"/>
<text text-anchor="middle" x="739" y="-119.5" font-family="Helvetica,sans-Serif" font-size="10.00">map</text>
</a>
</g>
</g>
<!-- Node12&#45;&gt;Node15 -->
<g id="edge20" class="edge">
<title>Node12&#45;&gt;Node15</title>
<path fill="none" stroke="midnightblue" d="M573.28,-168.44C606.3,-160.3 657.21,-147.39 709.91,-132.2"/>
<polygon fill="midnightblue" stroke="midnightblue" points="711.14,-135.49 719.76,-129.34 709.18,-128.77 711.14,-135.49"/>
</g>
<!-- Node16 -->
<g id="node16" class="node">
<title>Node16</title>
<g id="a_node16"><a xlink:title=" ">
<polygon fill="white" stroke="#bfbfbf" points="424,-112.5 424,-131.5 480,-131.5 480,-112.5 424,-112.5"/>
<text text-anchor="middle" x="452" y="-119.5" font-family="Helvetica,sans-Serif" font-size="10.00">iomanip</text>
</a>
</g>
</g>
<!-- Node12&#45;&gt;Node16 -->
<g id="edge23" class="edge">
<title>Node12&#45;&gt;Node16</title>
<path fill="none" stroke="midnightblue" d="M524.18,-168.32C510.77,-159.9 490.18,-146.97 474.41,-137.07"/>
<polygon fill="midnightblue" stroke="midnightblue" points="476.11,-134.01 465.78,-131.65 472.39,-139.94 476.11,-134.01"/>
</g>
<!-- Node17 -->
<g id="node17" class="node">
<title>Node17</title>
<g id="a_node17"><a xlink:title=" ">
<polygon fill="white" stroke="#bfbfbf" points="498,-112.5 498,-131.5 542,-131.5 542,-112.5 498,-112.5"/>
<text text-anchor="middle" x="520" y="-119.5" font-family="Helvetica,sans-Serif" font-size="10.00">bitset</text>
</a>
</g>
</g>
<!-- Node12&#45;&gt;Node17 -->
<g id="edge24" class="edge">
<title>Node12&#45;&gt;Node17</title>
<path fill="none" stroke="midnightblue" d="M535.03,-168.08C532.62,-160.85 529.14,-150.41 526.13,-141.4"/>
<polygon fill="midnightblue" stroke="midnightblue" points="529.4,-140.13 522.92,-131.75 522.76,-142.34 529.4,-140.13"/>
</g>
<!-- Node18 -->
<g id="node18" class="node">
<title>Node18</title>
<g id="a_node18"><a xlink:title=" ">
<polygon fill="white" stroke="#bfbfbf" points="560.5,-112.5 560.5,-131.5 613.5,-131.5 613.5,-112.5 560.5,-112.5"/>
<text text-anchor="middle" x="587" y="-119.5" font-family="Helvetica,sans-Serif" font-size="10.00">string.h</text>
</a>
</g>
</g>
<!-- Node12&#45;&gt;Node18 -->
<g id="edge25" class="edge">
<title>Node12&#45;&gt;Node18</title>
<path fill="none" stroke="midnightblue" d="M546.09,-168.08C553.16,-160.3 563.59,-148.8 572.15,-139.37"/>
<polygon fill="midnightblue" stroke="midnightblue" points="574.93,-141.51 579.06,-131.75 569.75,-136.8 574.93,-141.51"/>
</g>
<!-- Node19 -->
<g id="node19" class="node">
<title>Node19</title>
<g id="a_node19"><a xlink:href="../../da/df0/ntv2virtualregisters_8h.html" target="_top" xlink:title="Declares enums for virtual registers used in all platform drivers and the SDK.">
<polygon fill="white" stroke="black" points="776,-112.5 776,-131.5 898,-131.5 898,-112.5 776,-112.5"/>
<text text-anchor="middle" x="837" y="-119.5" font-family="Helvetica,sans-Serif" font-size="10.00">ntv2virtualregisters.h</text>
</a>
</g>
</g>
<!-- Node12&#45;&gt;Node19 -->
<g id="edge27" class="edge">
<title>Node12&#45;&gt;Node19</title>
<path fill="none" stroke="midnightblue" d="M585.38,-168.44C638.08,-158.92 723.23,-143.55 779.66,-133.36"/>
<polygon fill="midnightblue" stroke="midnightblue" points="780.63,-136.74 789.84,-131.52 779.38,-129.85 780.63,-136.74"/>
</g>
<!-- Node19&#45;&gt;Node7 -->
<g id="edge28" class="edge">
<title>Node19&#45;&gt;Node7</title>
<path fill="none" stroke="midnightblue" d="M821.25,-112.32C805.68,-103.74 781.62,-90.49 763.54,-80.52"/>
<polygon fill="midnightblue" stroke="midnightblue" points="765.15,-77.42 754.71,-75.65 761.78,-83.55 765.15,-77.42"/>
</g>
<!-- Node20&#45;&gt;Node2 -->
<g id="edge34" class="edge">
<title>Node20&#45;&gt;Node2</title>
<path fill="none" stroke="midnightblue" d="M223.28,-224.35C212.97,-204.3 190.34,-153.21 203,-112 211.83,-83.25 216.67,-73.69 241,-56 277.81,-29.24 330.31,-18.32 363.77,-13.92"/>
<polygon fill="midnightblue" stroke="midnightblue" points="364.4,-17.36 373.92,-12.7 363.57,-10.41 364.4,-17.36"/>
</g>
<!-- Node20&#45;&gt;Node3 -->
<g id="edge36" class="edge">
<title>Node20&#45;&gt;Node3</title>
<path fill="none" stroke="midnightblue" d="M204.74,-224.37C185.66,-216.61 158.54,-203.99 138,-188 120.26,-174.19 103.97,-154.07 93.59,-139.88"/>
<polygon fill="midnightblue" stroke="midnightblue" points="96.31,-137.66 87.67,-131.54 90.6,-141.72 96.31,-137.66"/>
</g>
<!-- Node20&#45;&gt;Node6 -->
<g id="edge30" class="edge">
<title>Node20&#45;&gt;Node6</title>
<path fill="none" stroke="midnightblue" d="M212.91,-224.4C200.73,-216.59 184.3,-203.87 176,-188 148.81,-136.04 155.99,-63.42 161.45,-29.64"/>
<polygon fill="midnightblue" stroke="midnightblue" points="164.9,-30.22 163.18,-19.76 158.01,-29.01 164.9,-30.22"/>
</g>
<!-- Node20&#45;&gt;Node7 -->
<g id="edge31" class="edge">
<title>Node20&#45;&gt;Node7</title>
<path fill="none" stroke="midnightblue" d="M237.68,-224.47C264.02,-201.8 339.98,-139.91 415,-112 510.29,-76.55 630.76,-68.67 694.59,-67.14"/>
<polygon fill="midnightblue" stroke="midnightblue" points="694.78,-70.64 704.71,-66.94 694.64,-63.64 694.78,-70.64"/>
</g>
<!-- Node20&#45;&gt;Node9 -->
<g id="edge32" class="edge">
<title>Node20&#45;&gt;Node9</title>
<path fill="none" stroke="midnightblue" d="M229.88,-224.37C233.76,-206.62 242.69,-165.67 247.94,-141.6"/>
<polygon fill="midnightblue" stroke="midnightblue" points="251.41,-142.11 250.13,-131.59 244.57,-140.62 251.41,-142.11"/>
</g>
<!-- Node20&#45;&gt;Node12 -->
<g id="edge33" class="edge">
<title>Node20&#45;&gt;Node12</title>
<path fill="none" stroke="midnightblue" d="M277.12,-224.44C331.88,-214.9 420.41,-199.48 478.91,-189.29"/>
<polygon fill="midnightblue" stroke="midnightblue" points="479.86,-192.68 489.11,-187.52 478.66,-185.78 479.86,-192.68"/>
</g>
<!-- Node20&#45;&gt;Node13 -->
<g id="edge35" class="edge">
<title>Node20&#45;&gt;Node13</title>
<path fill="none" stroke="midnightblue" d="M292.27,-227.05C367.85,-219.67 496.95,-205.84 607,-188 650.45,-180.95 660.77,-176.29 704,-168 790.92,-151.34 815.55,-150.36 905.95,-132.13"/>
<polygon fill="midnightblue" stroke="midnightblue" points="906.7,-135.55 915.8,-130.13 905.3,-128.69 906.7,-135.55"/>
</g>
</g>
</svg>
        <g id="navigator" transform="translate(0 0)" fill="#404254">
                <rect fill="#f2f5e9" fill-opacity="0.5" stroke="#606060" stroke-width=".5" x="0" y="0" width="60" height="60"/>
                <use id="zoomplus" xlink:href="#zoomPlus" x="17" y="9" onmousedown="handleZoom(evt,'in')"/>
                <use id="zoomminus" xlink:href="#zoomMin" x="42" y="9" onmousedown="handleZoom(evt,'out')"/>
                <use id="reset" xlink:href="#resetDef" x="30" y="36" onmousedown="handleReset()"/>
                <g id="arrowUp" xlink:href="#dirArrow" transform="translate(30 24)" onmousedown="handlePan(0,-1)">
                  <use xlink:href="#rim" fill="#404040">
                        <set attributeName="fill" to="#808080" begin="arrowUp.mouseover" end="arrowUp.mouseout"/>
                  </use>
                  <path fill="none" stroke="white" stroke-width="1.5" d="M0,-3.0v7 M-2.5,-0.5L0,-3.0L2.5,-0.5"/>
                </g>
                <g id="arrowRight" xlink:href="#dirArrow" transform="rotate(90) translate(36 -43)" onmousedown="handlePan(1,0)">
                  <use xlink:href="#rim" fill="#404040">
                        <set attributeName="fill" to="#808080" begin="arrowRight.mouseover" end="arrowRight.mouseout"/>
                  </use>
                  <path fill="none" stroke="white" stroke-width="1.5" d="M0,-3.0v7 M-2.5,-0.5L0,-3.0L2.5,-0.5"/>
                </g>
                <g id="arrowDown" xlink:href="#dirArrow" transform="rotate(180) translate(-30 -48)" onmousedown="handlePan(0,1)">
                  <use xlink:href="#rim" fill="#404040">
                        <set attributeName="fill" to="#808080" begin="arrowDown.mouseover" end="arrowDown.mouseout"/>
                  </use>
                  <path fill="none" stroke="white" stroke-width="1.5" d="M0,-3.0v7 M-2.5,-0.5L0,-3.0L2.5,-0.5"/>
                </g>
                <g id="arrowLeft" xlink:href="#dirArrow" transform="rotate(270) translate(-36 17)" onmousedown="handlePan(-1,0)">
                  <use xlink:href="#rim" fill="#404040">
                        <set attributeName="fill" to="#808080" begin="arrowLeft.mouseover" end="arrowLeft.mouseout"/>
                  </use>
                  <path fill="none" stroke="white" stroke-width="1.5" d="M0,-3.0v7 M-2.5,-0.5L0,-3.0L2.5,-0.5"/>
                </g>
        </g>
        <svg viewBox="0 0 15 15" width="100%" height="30px" preserveAspectRatio="xMaxYMin meet">
         <g id="arrow_out" transform="scale(0.3 0.3)">
          <a xlink:href="ntv2mcsfile_8h__incl_org.svg" target="_base">
           <rect id="button" ry="5" rx="5" y="6" x="6" height="38" width="38"
                fill="#f2f5e9" fill-opacity="0.5" stroke="#606060" stroke-width="1.0"/>
           <path id="arrow"
             d="M 11.500037,31.436501 C 11.940474,20.09759 22.043105,11.32322 32.158766,21.979434 L 37.068811,17.246167 C 37.068811,17.246167 37.088388,32 37.088388,32 L 22.160133,31.978069 C 22.160133,31.978069 26.997745,27.140456 26.997745,27.140456 C 18.528582,18.264221 13.291696,25.230495 11.500037,31.436501 z"
             style="fill:#404040;"/>
          </a>
         </g>
        </svg>
</svg>
