<?xml version="1.0" encoding="UTF-8" standalone="no"?>
<!DOCTYPE svg PUBLIC "-//W3C//DTD SVG 1.1//EN"
 "http://www.w3.org/Graphics/SVG/1.1/DTD/svg11.dtd">
<!-- Generated by graphviz version 2.43.0 (0)
 -->
<!-- Title: rx_2022_channel Pages: 1 -->
<svg width="125pt" height="128pt"
 viewBox="0.00 0.00 124.50 128.00" xmlns="http://www.w3.org/2000/svg" xmlns:xlink="http://www.w3.org/1999/xlink">
<g id="graph0" class="graph" transform="scale(1 1) rotate(0) translate(4 124)">
<title>rx_2022_channel</title>
<polygon fill="white" stroke="transparent" points="-4,4 -4,-124 120.5,-124 120.5,4 -4,4"/>
<!-- Node1 -->
<g id="node1" class="node">
<title>Node1</title>
<g id="a_node1"><a xlink:title="Configures a SMPTE 2022 Receive Channel.">
<polygon fill="#bfbfbf" stroke="black" points="0,-0.5 0,-19.5 99,-19.5 99,-0.5 0,-0.5"/>
<text text-anchor="middle" x="49.5" y="-7.5" font-family="Helvetica,sans-Serif" font-size="10.00">rx_2022_channel</text>
</a>
</g>
</g>
<!-- Node2 -->
<g id="node2" class="node">
<title>Node2</title>
<g id="a_node2"><a xlink:title=" ">
<polygon fill="white" stroke="#bfbfbf" points="27.5,-100.5 27.5,-119.5 71.5,-119.5 71.5,-100.5 27.5,-100.5"/>
<text text-anchor="middle" x="49.5" y="-107.5" font-family="Helvetica,sans-Serif" font-size="10.00">string</text>
</a>
</g>
</g>
<!-- Node2&#45;&gt;Node1 -->
<g id="edge1" class="edge">
<title>Node2&#45;&gt;Node1</title>
<path fill="none" stroke="#9a32cd" stroke-dasharray="5,2" d="M49.5,-90.22C49.5,-68.95 49.5,-35.22 49.5,-19.54"/>
<polygon fill="#9a32cd" stroke="#9a32cd" points="46,-90.3 49.5,-100.3 53,-90.3 46,-90.3"/>
<text text-anchor="middle" x="83" y="-74" font-family="Helvetica,sans-Serif" font-size="10.00"> sfp2SourceIP</text>
<text text-anchor="middle" x="83" y="-63" font-family="Helvetica,sans-Serif" font-size="10.00">sfp1SourceIP</text>
<text text-anchor="middle" x="83" y="-52" font-family="Helvetica,sans-Serif" font-size="10.00">sfp1DestIP</text>
<text text-anchor="middle" x="83" y="-41" font-family="Helvetica,sans-Serif" font-size="10.00">sfp2DestIP</text>
</g>
</g>
</svg>
