<?xml version="1.0" encoding="UTF-8" standalone="no"?>
<!DOCTYPE svg PUBLIC "-//W3C//DTD SVG 1.1//EN"
 "http://www.w3.org/Graphics/SVG/1.1/DTD/svg11.dtd">
<!-- Generated by graphviz version 2.43.0 (0)
 -->
<!-- Title: /home/tcbuilder/buildAgent/work/df8e8cce5bebfd58/libajantv2/ajabase/system/mac/pthreadsextra.h Pages: 1 -->
<svg width="854pt" height="128pt"
 viewBox="0.00 0.00 853.50 128.00" xmlns="http://www.w3.org/2000/svg" xmlns:xlink="http://www.w3.org/1999/xlink">
<g id="graph0" class="graph" transform="scale(1 1) rotate(0) translate(4 124)">
<title>/home/tcbuilder/buildAgent/work/df8e8cce5bebfd58/libajantv2/ajabase/system/mac/pthreadsextra.h</title>
<polygon fill="white" stroke="transparent" points="-4,4 -4,-124 849.5,-124 849.5,4 -4,4"/>
<!-- Node1 -->
<g id="node1" class="node">
<title>Node1</title>
<g id="a_node1"><a xlink:title="Declares extra symbols to make the Mac threads implementation look more like Unix.">
<polygon fill="#bfbfbf" stroke="black" points="314.5,-78.5 314.5,-119.5 515.5,-119.5 515.5,-78.5 314.5,-78.5"/>
<text text-anchor="start" x="322.5" y="-107.5" font-family="Helvetica,sans-Serif" font-size="10.00">/home/tcbuilder/buildAgent</text>
<text text-anchor="start" x="322.5" y="-96.5" font-family="Helvetica,sans-Serif" font-size="10.00">/work/df8e8cce5bebfd58/libajantv2</text>
<text text-anchor="middle" x="415" y="-85.5" font-family="Helvetica,sans-Serif" font-size="10.00">/ajabase/system/mac/pthreadsextra.h</text>
</a>
</g>
</g>
<!-- Node2 -->
<g id="node2" class="node">
<title>Node2</title>
<g id="a_node2"><a xlink:href="../../d8/d56/mac_2eventimpl_8cpp.html" target="_top" xlink:title="Implements the AJAEventImpl class on the Mac platform.">
<polygon fill="white" stroke="black" points="0,-0.5 0,-41.5 194,-41.5 194,-0.5 0,-0.5"/>
<text text-anchor="start" x="8" y="-29.5" font-family="Helvetica,sans-Serif" font-size="10.00">/home/tcbuilder/buildAgent</text>
<text text-anchor="start" x="8" y="-18.5" font-family="Helvetica,sans-Serif" font-size="10.00">/work/df8e8cce5bebfd58/libajantv2</text>
<text text-anchor="middle" x="97" y="-7.5" font-family="Helvetica,sans-Serif" font-size="10.00">/ajabase/system/mac/eventimpl.cpp</text>
</a>
</g>
</g>
<!-- Node1&#45;&gt;Node2 -->
<g id="edge1" class="edge">
<title>Node1&#45;&gt;Node2</title>
<path fill="none" stroke="midnightblue" d="M323.21,-76.06C277.54,-65.15 222.8,-52.07 178.62,-41.51"/>
<polygon fill="midnightblue" stroke="midnightblue" points="322.57,-79.51 333.11,-78.43 324.19,-72.7 322.57,-79.51"/>
</g>
<!-- Node3 -->
<g id="node3" class="node">
<title>Node3</title>
<g id="a_node3"><a xlink:href="../../d2/d64/mac_2lockimpl_8cpp.html" target="_top" xlink:title="Implements the AJALockImpl class on the Mac platform.">
<polygon fill="white" stroke="black" points="212,-0.5 212,-41.5 400,-41.5 400,-0.5 212,-0.5"/>
<text text-anchor="start" x="220" y="-29.5" font-family="Helvetica,sans-Serif" font-size="10.00">/home/tcbuilder/buildAgent</text>
<text text-anchor="start" x="220" y="-18.5" font-family="Helvetica,sans-Serif" font-size="10.00">/work/df8e8cce5bebfd58/libajantv2</text>
<text text-anchor="middle" x="306" y="-7.5" font-family="Helvetica,sans-Serif" font-size="10.00">/ajabase/system/mac/lockimpl.cpp</text>
</a>
</g>
</g>
<!-- Node1&#45;&gt;Node3 -->
<g id="edge2" class="edge">
<title>Node1&#45;&gt;Node3</title>
<path fill="none" stroke="midnightblue" d="M378.62,-72.64C364.07,-62.49 347.57,-50.98 333.98,-41.51"/>
<polygon fill="midnightblue" stroke="midnightblue" points="376.73,-75.58 386.93,-78.43 380.73,-69.84 376.73,-75.58"/>
</g>
<!-- Node4 -->
<g id="node4" class="node">
<title>Node4</title>
<g id="a_node4"><a xlink:href="../../d2/d9e/pthreadsextra_8cpp.html" target="_top" xlink:title="Declares extra symbols to make the Mac threads implementation look more like Unix.">
<polygon fill="white" stroke="black" points="418,-0.5 418,-41.5 630,-41.5 630,-0.5 418,-0.5"/>
<text text-anchor="start" x="426" y="-29.5" font-family="Helvetica,sans-Serif" font-size="10.00">/home/tcbuilder/buildAgent</text>
<text text-anchor="start" x="426" y="-18.5" font-family="Helvetica,sans-Serif" font-size="10.00">/work/df8e8cce5bebfd58/libajantv2</text>
<text text-anchor="middle" x="524" y="-7.5" font-family="Helvetica,sans-Serif" font-size="10.00">/ajabase/system/mac/pthreadsextra.cpp</text>
</a>
</g>
</g>
<!-- Node1&#45;&gt;Node4 -->
<g id="edge3" class="edge">
<title>Node1&#45;&gt;Node4</title>
<path fill="none" stroke="midnightblue" d="M451.38,-72.64C465.93,-62.49 482.43,-50.98 496.02,-41.51"/>
<polygon fill="midnightblue" stroke="midnightblue" points="449.27,-69.84 443.07,-78.43 453.27,-75.58 449.27,-69.84"/>
</g>
<!-- Node5 -->
<g id="node5" class="node">
<title>Node5</title>
<g id="a_node5"><a xlink:href="../../d2/d87/mac_2threadimpl_8cpp.html" target="_top" xlink:title="Implements the AJAThreadImpl class on the Mac platform.">
<polygon fill="white" stroke="black" points="648.5,-0.5 648.5,-41.5 845.5,-41.5 845.5,-0.5 648.5,-0.5"/>
<text text-anchor="start" x="656.5" y="-29.5" font-family="Helvetica,sans-Serif" font-size="10.00">/home/tcbuilder/buildAgent</text>
<text text-anchor="start" x="656.5" y="-18.5" font-family="Helvetica,sans-Serif" font-size="10.00">/work/df8e8cce5bebfd58/libajantv2</text>
<text text-anchor="middle" x="747" y="-7.5" font-family="Helvetica,sans-Serif" font-size="10.00">/ajabase/system/mac/threadimpl.cpp</text>
</a>
</g>
</g>
<!-- Node1&#45;&gt;Node5 -->
<g id="edge4" class="edge">
<title>Node1&#45;&gt;Node5</title>
<path fill="none" stroke="midnightblue" d="M510.53,-76.13C558.27,-65.2 615.56,-52.09 661.79,-41.51"/>
<polygon fill="midnightblue" stroke="midnightblue" points="509.47,-72.78 500.5,-78.43 511.03,-79.61 509.47,-72.78"/>
</g>
</g>
</svg>
