<?xml version="1.0" encoding="UTF-8" standalone="no"?>
<!DOCTYPE svg PUBLIC "-//W3C//DTD SVG 1.1//EN"
 "http://www.w3.org/Graphics/SVG/1.1/DTD/svg11.dtd">
<!-- Generated by graphviz version 2.40.1 (0)
 -->
<!-- Title: /home/tcbuilder/buildAgent/work/df8e8cce5bebfd58/libajantv2/ajabase/pnp/mac/devicenotifier.cpp Pages: 1 -->
<!--zoomable 274 -->
<svg id="main" version="1.1" xmlns="http://www.w3.org/2000/svg" xmlns:xlink="http://www.w3.org/1999/xlink" xml:space="preserve" onload="init(evt)">
<style type="text/css"><![CDATA[
.edge:hover path { stroke: red; }
.edge:hover polygon { stroke: red; fill: red; }
]]></style>
<script type="text/javascript"><![CDATA[
var edges = document.getElementsByTagName('g');
if (edges && edges.length) {
  for (var i=0;i<edges.length;i++) {
    if (edges[i].id.substr(0,4)=='edge') {
      edges[i].setAttribute('class','edge');
    }
  }
}
]]></script>
        <defs>
                <circle id="rim" cx="0" cy="0" r="7"/>
                <circle id="rim2" cx="0" cy="0" r="3.5"/>
                <g id="zoomPlus">
                        <use xlink:href="#rim" fill="#404040">
                                <set attributeName="fill" to="#808080" begin="zoomplus.mouseover" end="zoomplus.mouseout"/>
                        </use>
                        <path d="M-4,0h8M0,-4v8" fill="none" stroke="white" stroke-width="1.5" pointer-events="none"/>
                </g>
                <g id="zoomMin">
                        <use xlink:href="#rim" fill="#404040">
                                <set attributeName="fill" to="#808080" begin="zoomminus.mouseover" end="zoomminus.mouseout"/>
                        </use>
                        <path d="M-4,0h8" fill="none" stroke="white" stroke-width="1.5" pointer-events="none"/>
                </g>
                <g id="dirArrow">
                        <path fill="none" stroke="white" stroke-width="1.5" d="M0,-3.0v7 M-2.5,-0.5L0,-3.0L2.5,-0.5"/>
                </g>
               <g id="resetDef">
                       <use xlink:href="#rim2" fill="#404040">
                               <set attributeName="fill" to="#808080" begin="reset.mouseover" end="reset.mouseout"/>
                       </use>
               </g>
        </defs>

<script type="text/javascript">
var viewWidth = 1380;
var viewHeight = 274;
var sectionId = 'dynsection-0';
</script>
<script xlink:href="../../svgpan.js"/>
<svg id="graph" class="graph">
<g id="viewport">
<title>/home/tcbuilder/buildAgent/work/df8e8cce5bebfd58/libajantv2/ajabase/pnp/mac/devicenotifier.cpp</title>
<polygon fill="#ffffff" stroke="transparent" points="-4,4 -4,-270 1376,-270 1376,4 -4,4"/>
<!-- Node0 -->
<g id="node1" class="node">
<title>Node0</title>
<polygon fill="#bfbfbf" stroke="#000000" points="888,-224.5 888,-265.5 1061,-265.5 1061,-224.5 888,-224.5"/>
<text text-anchor="start" x="896" y="-253.5" font-family="Helvetica,sans-Serif" font-size="10.00" fill="#000000">/home/tcbuilder/buildAgent</text>
<text text-anchor="start" x="896" y="-242.5" font-family="Helvetica,sans-Serif" font-size="10.00" fill="#000000">/work/df8e8cce5bebfd58/libajantv2</text>
<text text-anchor="middle" x="974.5" y="-231.5" font-family="Helvetica,sans-Serif" font-size="10.00" fill="#000000">/ajabase/pnp/mac/devicenotifier.cpp</text>
</g>
<!-- Node1 -->
<g id="node2" class="node">
<title>Node1</title>
<polygon fill="#ffffff" stroke="#bfbfbf" points="675,-168.5 675,-187.5 728,-187.5 728,-168.5 675,-168.5"/>
<text text-anchor="middle" x="701.5" y="-175.5" font-family="Helvetica,sans-Serif" font-size="10.00" fill="#000000">syslog.h</text>
</g>
<!-- Node0&#45;&gt;Node1 -->
<g id="edge1" class="edge">
<title>Node0&#45;&gt;Node1</title>
<path fill="none" stroke="#191970" d="M890.7357,-224.4425C839.6583,-211.907 776.9394,-196.5144 738.0902,-186.98"/>
<polygon fill="#191970" stroke="#191970" points="738.8185,-183.555 728.2725,-184.5705 737.15,-190.3532 738.8185,-183.555"/>
</g>
<!-- Node2 -->
<g id="node3" class="node">
<title>Node2</title>
<polygon fill="#ffffff" stroke="#bfbfbf" points="594.5,-112.5 594.5,-131.5 646.5,-131.5 646.5,-112.5 594.5,-112.5"/>
<text text-anchor="middle" x="620.5" y="-119.5" font-family="Helvetica,sans-Serif" font-size="10.00" fill="#000000">sstream</text>
</g>
<!-- Node0&#45;&gt;Node2 -->
<g id="edge2" class="edge">
<title>Node0&#45;&gt;Node2</title>
<path fill="none" stroke="#191970" d="M912.0534,-224.4385C882.0052,-214.1527 845.6159,-201.1193 813.5,-188 793.988,-180.0294 790.1777,-175.5522 770.5,-168 749.6379,-159.9933 693.9017,-143.3543 656.5636,-132.4371"/>
<polygon fill="#191970" stroke="#191970" points="657.1444,-128.9608 646.5645,-129.5215 655.1849,-135.6809 657.1444,-128.9608"/>
</g>
<!-- Node3 -->
<g id="node4" class="node">
<title>Node3</title>
<polygon fill="#ffffff" stroke="#bfbfbf" points="1040.5,-168.5 1040.5,-187.5 1094.5,-187.5 1094.5,-168.5 1040.5,-168.5"/>
<text text-anchor="middle" x="1067.5" y="-175.5" font-family="Helvetica,sans-Serif" font-size="10.00" fill="#000000">iostream</text>
</g>
<!-- Node0&#45;&gt;Node3 -->
<g id="edge3" class="edge">
<title>Node0&#45;&gt;Node3</title>
<path fill="none" stroke="#191970" d="M1003.1619,-224.3511C1016.9515,-214.4167 1033.2079,-202.7051 1045.9298,-193.5398"/>
<polygon fill="#191970" stroke="#191970" points="1048.031,-196.3398 1054.0988,-187.6546 1043.9392,-190.6602 1048.031,-196.3398"/>
</g>
<!-- Node4 -->
<g id="node5" class="node">
<title>Node4</title>
<polygon fill="#ffffff" stroke="#bfbfbf" points="1112.5,-168.5 1112.5,-187.5 1162.5,-187.5 1162.5,-168.5 1112.5,-168.5"/>
<text text-anchor="middle" x="1137.5" y="-175.5" font-family="Helvetica,sans-Serif" font-size="10.00" fill="#000000">iomanip</text>
</g>
<!-- Node0&#45;&gt;Node4 -->
<g id="edge4" class="edge">
<title>Node0&#45;&gt;Node4</title>
<path fill="none" stroke="#191970" d="M1024.7354,-224.3511C1050.7633,-213.6525 1081.8057,-200.8928 1104.7249,-191.472"/>
<polygon fill="#191970" stroke="#191970" points="1106.0934,-194.6937 1114.0119,-187.6546 1103.4321,-188.2193 1106.0934,-194.6937"/>
</g>
<!-- Node5 -->
<g id="node6" class="node">
<title>Node5</title>
<polygon fill="#ffffff" stroke="#bfbfbf" points="1180.5,-168.5 1180.5,-187.5 1282.5,-187.5 1282.5,-168.5 1180.5,-168.5"/>
<text text-anchor="middle" x="1231.5" y="-175.5" font-family="Helvetica,sans-Serif" font-size="10.00" fill="#000000">IOKit/IOCFPlugIn.h</text>
</g>
<!-- Node0&#45;&gt;Node5 -->
<g id="edge5" class="edge">
<title>Node0&#45;&gt;Node5</title>
<path fill="none" stroke="#191970" d="M1053.355,-224.4425C1096.5138,-213.191 1148.5017,-199.6377 1185.145,-190.0848"/>
<polygon fill="#191970" stroke="#191970" points="1186.2596,-193.4112 1195.0532,-187.5017 1184.4937,-186.6376 1186.2596,-193.4112"/>
</g>
<!-- Node6 -->
<g id="node7" class="node">
<title>Node6</title>
<g id="a_node7"><a xlink:href="../../db/de2/ajatypes_8h.html" target="_top" xlink:title="Declares the most fundamental data types used by NTV2. Since Windows NT was the first principal devel...">
<polygon fill="#ffffff" stroke="#000000" points="1237,-112.5 1237,-131.5 1372,-131.5 1372,-112.5 1237,-112.5"/>
<text text-anchor="middle" x="1304.5" y="-119.5" font-family="Helvetica,sans-Serif" font-size="10.00" fill="#000000">ajantv2/includes/ajatypes.h</text>
</a>
</g>
</g>
<!-- Node0&#45;&gt;Node6 -->
<g id="edge6" class="edge">
<title>Node0&#45;&gt;Node6</title>
<path fill="none" stroke="#191970" d="M984.0377,-224.4478C993.4748,-206.5373 1009.667,-181.3933 1031.5,-168 1047.9831,-157.8886 1151.6273,-142.3115 1226.3337,-132.1365"/>
<polygon fill="#191970" stroke="#191970" points="1227.2306,-135.5471 1236.6709,-130.7378 1226.2919,-128.6104 1227.2306,-135.5471"/>
</g>
<!-- Node9 -->
<g id="node10" class="node">
<title>Node9</title>
<g id="a_node10"><a xlink:href="../../d8/df8/devicenotifier_8h.html" target="_top" xlink:title="Declares the MacOS&#45;specific KonaNotifier and DeviceNotifier classes, which invoke a client&#45;registered...">
<polygon fill="#ffffff" stroke="#000000" points="454.5,-112.5 454.5,-131.5 536.5,-131.5 536.5,-112.5 454.5,-112.5"/>
<text text-anchor="middle" x="495.5" y="-119.5" font-family="Helvetica,sans-Serif" font-size="10.00" fill="#000000">devicenotifier.h</text>
</a>
</g>
</g>
<!-- Node0&#45;&gt;Node9 -->
<g id="edge9" class="edge">
<title>Node0&#45;&gt;Node9</title>
<path fill="none" stroke="#191970" d="M887.9503,-226.1024C851.0139,-216.6961 807.8935,-203.9021 770.5,-188 754.3666,-181.1391 752.9068,-174.1786 736.5,-168 702.4914,-155.1927 606.7538,-139.0226 546.6826,-129.6621"/>
<polygon fill="#191970" stroke="#191970" points="547.0515,-126.1776 536.634,-128.1079 545.9815,-133.0954 547.0515,-126.1776"/>
</g>
<!-- Node17 -->
<g id="node18" class="node">
<title>Node17</title>
<g id="a_node18"><a xlink:href="../../dc/d54/common_8h.html" target="_top" xlink:title="Private include file for all ajabase sources. ">
<polygon fill="#ffffff" stroke="#000000" points="1040.5,-112.5 1040.5,-131.5 1180.5,-131.5 1180.5,-112.5 1040.5,-112.5"/>
<text text-anchor="middle" x="1110.5" y="-119.5" font-family="Helvetica,sans-Serif" font-size="10.00" fill="#000000">ajabase/common/common.h</text>
</a>
</g>
</g>
<!-- Node0&#45;&gt;Node17 -->
<g id="edge17" class="edge">
<title>Node0&#45;&gt;Node17</title>
<path fill="none" stroke="#191970" d="M976.1395,-224.294C978.5112,-207.2615 984.3125,-183.4875 998.5,-168 1013.0207,-152.1487 1033.8131,-141.6211 1053.5492,-134.6934"/>
<polygon fill="#191970" stroke="#191970" points="1054.6974,-138.0005 1063.1208,-131.5742 1052.5285,-131.3449 1054.6974,-138.0005"/>
</g>
<!-- Node22 -->
<g id="node23" class="node">
<title>Node22</title>
<g id="a_node23"><a xlink:href="../../db/d16/debug_8h.html" target="_top" xlink:title="Declares the AJADebug class. ">
<polygon fill="#ffffff" stroke="#000000" points="823,-168.5 823,-187.5 946,-187.5 946,-168.5 823,-168.5"/>
<text text-anchor="middle" x="884.5" y="-175.5" font-family="Helvetica,sans-Serif" font-size="10.00" fill="#000000">ajabase/system/debug.h</text>
</a>
</g>
</g>
<!-- Node0&#45;&gt;Node22 -->
<g id="edge23" class="edge">
<title>Node0&#45;&gt;Node22</title>
<path fill="none" stroke="#191970" d="M946.5168,-224.168C933.3956,-214.4001 918.0108,-202.9469 905.8472,-193.8918"/>
<polygon fill="#191970" stroke="#191970" points="907.7493,-190.9445 897.6379,-187.7805 903.5693,-196.5594 907.7493,-190.9445"/>
</g>
<!-- Node7 -->
<g id="node8" class="node">
<title>Node7</title>
<g id="a_node8"><a xlink:href="../../db/d40/ntv2deprecate_8h.html" target="_top" xlink:title="Deprecation control macros. ">
<polygon fill="#ffffff" stroke="#000000" points="969.5,-.5 969.5,-19.5 1055.5,-19.5 1055.5,-.5 969.5,-.5"/>
<text text-anchor="middle" x="1012.5" y="-7.5" font-family="Helvetica,sans-Serif" font-size="10.00" fill="#000000">ntv2deprecate.h</text>
</a>
</g>
</g>
<!-- Node6&#45;&gt;Node7 -->
<g id="edge7" class="edge">
<title>Node6&#45;&gt;Node7</title>
<path fill="none" stroke="#191970" d="M1307.1424,-112.0279C1310.2869,-97.6676 1313.5041,-71.2223 1299.5,-56 1283.9075,-39.0511 1144.61,-22.8832 1065.9647,-15.0011"/>
<polygon fill="#191970" stroke="#191970" points="1066.0514,-11.4927 1055.7551,-13.9902 1065.3616,-18.4586 1066.0514,-11.4927"/>
</g>
<!-- Node8 -->
<g id="node9" class="node">
<title>Node8</title>
<polygon fill="#ffffff" stroke="#bfbfbf" points="1193,-56.5 1193,-75.5 1242,-75.5 1242,-56.5 1193,-56.5"/>
<text text-anchor="middle" x="1217.5" y="-63.5" font-family="Helvetica,sans-Serif" font-size="10.00" fill="#000000">stdint.h</text>
</g>
<!-- Node6&#45;&gt;Node8 -->
<g id="edge8" class="edge">
<title>Node6&#45;&gt;Node8</title>
<path fill="none" stroke="#191970" d="M1289.3458,-112.2455C1275.9973,-103.6534 1256.3414,-91.0014 1240.9617,-81.1018"/>
<polygon fill="#191970" stroke="#191970" points="1242.7836,-78.1121 1232.4806,-75.6427 1238.9949,-83.9982 1242.7836,-78.1121"/>
</g>
<!-- Node10 -->
<g id="node11" class="node">
<title>Node10</title>
<polygon fill="#ffffff" stroke="#bfbfbf" points="359.5,-56.5 359.5,-75.5 525.5,-75.5 525.5,-56.5 359.5,-56.5"/>
<text text-anchor="middle" x="442.5" y="-63.5" font-family="Helvetica,sans-Serif" font-size="10.00" fill="#000000">CoreFoundation/CoreFoundation.h</text>
</g>
<!-- Node9&#45;&gt;Node10 -->
<g id="edge10" class="edge">
<title>Node9&#45;&gt;Node10</title>
<path fill="none" stroke="#191970" d="M486.2681,-112.2455C478.6683,-104.2155 467.7123,-92.6394 458.6632,-83.0781"/>
<polygon fill="#191970" stroke="#191970" points="461.042,-80.4998 451.6261,-75.6427 455.9579,-85.3115 461.042,-80.4998"/>
</g>
<!-- Node11 -->
<g id="node12" class="node">
<title>Node11</title>
<polygon fill="#ffffff" stroke="#bfbfbf" points="0,-56.5 0,-75.5 91,-75.5 91,-56.5 0,-56.5"/>
<text text-anchor="middle" x="45.5" y="-63.5" font-family="Helvetica,sans-Serif" font-size="10.00" fill="#000000">Carbon/Carbon.h</text>
</g>
<!-- Node9&#45;&gt;Node11 -->
<g id="edge11" class="edge">
<title>Node9&#45;&gt;Node11</title>
<path fill="none" stroke="#191970" d="M454.3331,-118.1419C383.9969,-111.3492 235.9697,-96.1805 101.2188,-76.1837"/>
<polygon fill="#191970" stroke="#191970" points="101.5367,-72.6924 91.1287,-74.6735 100.5004,-79.6153 101.5367,-72.6924"/>
</g>
<!-- Node12 -->
<g id="node13" class="node">
<title>Node12</title>
<polygon fill="#ffffff" stroke="#bfbfbf" points="109,-56.5 109,-75.5 210,-75.5 210,-56.5 109,-56.5"/>
<text text-anchor="middle" x="159.5" y="-63.5" font-family="Helvetica,sans-Serif" font-size="10.00" fill="#000000">IOKit/IOMessage.h</text>
</g>
<!-- Node9&#45;&gt;Node12 -->
<g id="edge12" class="edge">
<title>Node9&#45;&gt;Node12</title>
<path fill="none" stroke="#191970" d="M454.1947,-115.1847C402.0139,-106.5653 309.1718,-91.197 220.0352,-76.2539"/>
<polygon fill="#191970" stroke="#191970" points="220.4699,-72.778 210.0286,-74.5756 219.3119,-79.6816 220.4699,-72.778"/>
</g>
<!-- Node13 -->
<g id="node14" class="node">
<title>Node13</title>
<polygon fill="#ffffff" stroke="#bfbfbf" points="228,-56.5 228,-75.5 341,-75.5 341,-56.5 228,-56.5"/>
<text text-anchor="middle" x="284.5" y="-63.5" font-family="Helvetica,sans-Serif" font-size="10.00" fill="#000000">IOKit/usb/IOUSBLib.h</text>
</g>
<!-- Node9&#45;&gt;Node13 -->
<g id="edge13" class="edge">
<title>Node9&#45;&gt;Node13</title>
<path fill="none" stroke="#191970" d="M459.2278,-112.3733C423.5342,-102.9001 368.9121,-88.4032 330.2549,-78.1435"/>
<polygon fill="#191970" stroke="#191970" points="330.8621,-74.6835 320.2989,-75.5011 329.0664,-81.4493 330.8621,-74.6835"/>
</g>
<!-- Node14 -->
<g id="node15" class="node">
<title>Node14</title>
<polygon fill="#ffffff" stroke="#bfbfbf" points="788.5,-56.5 788.5,-75.5 832.5,-75.5 832.5,-56.5 788.5,-56.5"/>
<text text-anchor="middle" x="810.5" y="-63.5" font-family="Helvetica,sans-Serif" font-size="10.00" fill="#000000">vector</text>
</g>
<!-- Node9&#45;&gt;Node14 -->
<g id="edge14" class="edge">
<title>Node9&#45;&gt;Node14</title>
<path fill="none" stroke="#191970" d="M536.8047,-117.3029C590.4745,-110.7638 687.1732,-97.4981 778.3244,-76.001"/>
<polygon fill="#191970" stroke="#191970" points="779.3553,-79.3532 788.2638,-73.6183 777.7234,-72.546 779.3553,-79.3532"/>
</g>
<!-- Node15 -->
<g id="node16" class="node">
<title>Node15</title>
<polygon fill="#ffffff" stroke="#bfbfbf" points="544,-56.5 544,-75.5 579,-75.5 579,-56.5 544,-56.5"/>
<text text-anchor="middle" x="561.5" y="-63.5" font-family="Helvetica,sans-Serif" font-size="10.00" fill="#000000">map</text>
</g>
<!-- Node9&#45;&gt;Node15 -->
<g id="edge15" class="edge">
<title>Node9&#45;&gt;Node15</title>
<path fill="none" stroke="#191970" d="M506.9963,-112.2455C516.7442,-103.9746 530.9259,-91.9416 542.3798,-82.2232"/>
<polygon fill="#191970" stroke="#191970" points="544.7747,-84.7813 550.1354,-75.6427 540.2459,-79.4437 544.7747,-84.7813"/>
</g>
<!-- Node16 -->
<g id="node17" class="node">
<title>Node16</title>
<polygon fill="#ffffff" stroke="#bfbfbf" points="597,-56.5 597,-75.5 626,-75.5 626,-56.5 597,-56.5"/>
<text text-anchor="middle" x="611.5" y="-63.5" font-family="Helvetica,sans-Serif" font-size="10.00" fill="#000000">list</text>
</g>
<!-- Node9&#45;&gt;Node16 -->
<g id="edge16" class="edge">
<title>Node9&#45;&gt;Node16</title>
<path fill="none" stroke="#191970" d="M515.4411,-112.3733C535.5515,-102.6648 566.5914,-87.68 587.9125,-77.387"/>
<polygon fill="#191970" stroke="#191970" points="589.4668,-80.5233 596.9507,-73.0238 586.4235,-74.2194 589.4668,-80.5233"/>
</g>
<!-- Node17&#45;&gt;Node14 -->
<g id="edge21" class="edge">
<title>Node17&#45;&gt;Node14</title>
<path fill="none" stroke="#191970" d="M1040.2678,-112.792C988.0043,-105.2961 914.8321,-93.4497 842.4804,-75.9814"/>
<polygon fill="#191970" stroke="#191970" points="843.2877,-72.5757 832.742,-73.5944 841.6212,-79.3745 843.2877,-72.5757"/>
</g>
<!-- Node18 -->
<g id="node19" class="node">
<title>Node18</title>
<g id="a_node19"><a xlink:href="../../db/db5/export_8h.html" target="_top" xlink:title="Declares system&#45;dependent import/export macros and libraries. ">
<polygon fill="#ffffff" stroke="#000000" points="981,-56.5 981,-75.5 1110,-75.5 1110,-56.5 981,-56.5"/>
<text text-anchor="middle" x="1045.5" y="-63.5" font-family="Helvetica,sans-Serif" font-size="10.00" fill="#000000">ajabase/common/export.h</text>
</a>
</g>
</g>
<!-- Node17&#45;&gt;Node18 -->
<g id="edge18" class="edge">
<title>Node17&#45;&gt;Node18</title>
<path fill="none" stroke="#191970" d="M1099.1779,-112.2455C1089.5777,-103.9746 1075.6108,-91.9416 1064.3305,-82.2232"/>
<polygon fill="#191970" stroke="#191970" points="1066.553,-79.5182 1056.6924,-75.6427 1061.984,-84.8214 1066.553,-79.5182"/>
</g>
<!-- Node19 -->
<g id="node20" class="node">
<title>Node19</title>
<polygon fill="#ffffff" stroke="#bfbfbf" points="1260.5,-56.5 1260.5,-75.5 1290.5,-75.5 1290.5,-56.5 1260.5,-56.5"/>
<text text-anchor="middle" x="1275.5" y="-63.5" font-family="Helvetica,sans-Serif" font-size="10.00" fill="#000000">set</text>
</g>
<!-- Node17&#45;&gt;Node19 -->
<g id="edge19" class="edge">
<title>Node17&#45;&gt;Node19</title>
<path fill="none" stroke="#191970" d="M1141.555,-112.4147C1170.0532,-103.4724 1213.3555,-89.516 1250.5,-76 1250.7032,-75.9261 1250.9072,-75.8516 1251.1119,-75.7765"/>
<polygon fill="#191970" stroke="#191970" points="1252.4031,-79.0299 1260.4882,-72.1828 1249.8979,-72.4936 1252.4031,-79.0299"/>
</g>
<!-- Node20 -->
<g id="node21" class="node">
<title>Node20</title>
<polygon fill="#ffffff" stroke="#bfbfbf" points="851,-56.5 851,-75.5 892,-75.5 892,-56.5 851,-56.5"/>
<text text-anchor="middle" x="871.5" y="-63.5" font-family="Helvetica,sans-Serif" font-size="10.00" fill="#000000">string</text>
</g>
<!-- Node17&#45;&gt;Node20 -->
<g id="edge20" class="edge">
<title>Node17&#45;&gt;Node20</title>
<path fill="none" stroke="#191970" d="M1060.308,-112.4947C1019.9882,-104.5115 961.7612,-92.2053 902.0523,-75.9282"/>
<polygon fill="#191970" stroke="#191970" points="902.6401,-72.4596 892.0693,-73.1729 900.7777,-79.2073 902.6401,-72.4596"/>
</g>
<!-- Node21 -->
<g id="node22" class="node">
<title>Node21</title>
<polygon fill="#ffffff" stroke="#bfbfbf" points="1128.5,-56.5 1128.5,-75.5 1174.5,-75.5 1174.5,-56.5 1128.5,-56.5"/>
<text text-anchor="middle" x="1151.5" y="-63.5" font-family="Helvetica,sans-Serif" font-size="10.00" fill="#000000">cstdint</text>
</g>
<!-- Node17&#45;&gt;Node21 -->
<g id="edge22" class="edge">
<title>Node17&#45;&gt;Node21</title>
<path fill="none" stroke="#191970" d="M1117.6417,-112.2455C1123.3444,-104.4564 1131.49,-93.3308 1138.3625,-83.9439"/>
<polygon fill="#191970" stroke="#191970" points="1141.3568,-85.7789 1144.4402,-75.6427 1135.7087,-81.6437 1141.3568,-85.7789"/>
</g>
<!-- Node22&#45;&gt;Node2 -->
<g id="edge25" class="edge">
<title>Node22&#45;&gt;Node2</title>
<path fill="none" stroke="#191970" d="M830.5591,-168.4262C786.2574,-160.2776 721.6853,-147.7497 656.8049,-132.1835"/>
<polygon fill="#191970" stroke="#191970" points="657.3563,-128.7159 646.8133,-129.7623 655.7077,-135.519 657.3563,-128.7159"/>
</g>
<!-- Node22&#45;&gt;Node19 -->
<g id="edge26" class="edge">
<title>Node22&#45;&gt;Node19</title>
<path fill="none" stroke="#191970" d="M946.1214,-172.3791C1022.2129,-164.8052 1146.8125,-150.1553 1189.5,-132 1216.6371,-120.4584 1242.7723,-98.3203 1258.9659,-82.8808"/>
<polygon fill="#191970" stroke="#191970" points="1261.7929,-85.0105 1266.4806,-75.5092 1256.8909,-80.0134 1261.7929,-85.0105"/>
</g>
<!-- Node23 -->
<g id="node24" class="node">
<title>Node23</title>
<polygon fill="#ffffff" stroke="#bfbfbf" points="976.5,-112.5 976.5,-131.5 1022.5,-131.5 1022.5,-112.5 976.5,-112.5"/>
<text text-anchor="middle" x="999.5" y="-119.5" font-family="Helvetica,sans-Serif" font-size="10.00" fill="#000000">stdio.h</text>
</g>
<!-- Node22&#45;&gt;Node23 -->
<g id="edge24" class="edge">
<title>Node22&#45;&gt;Node23</title>
<path fill="none" stroke="#191970" d="M904.2692,-168.3733C922.6469,-159.4241 950.2312,-145.9917 970.9893,-135.8835"/>
<polygon fill="#191970" stroke="#191970" points="972.5304,-139.026 979.9888,-131.5011 969.4657,-132.7325 972.5304,-139.026"/>
</g>
<!-- Node24 -->
<g id="node25" class="node">
<title>Node24</title>
<g id="a_node25"><a xlink:href="../../d4/d79/public_8h.html" target="_top" xlink:title="Master header for the ajabase library. ">
<polygon fill="#ffffff" stroke="#000000" points="664.5,-112.5 664.5,-131.5 792.5,-131.5 792.5,-112.5 664.5,-112.5"/>
<text text-anchor="middle" x="728.5" y="-119.5" font-family="Helvetica,sans-Serif" font-size="10.00" fill="#000000">ajabase/common/public.h</text>
</a>
</g>
</g>
<!-- Node22&#45;&gt;Node24 -->
<g id="edge27" class="edge">
<title>Node22&#45;&gt;Node24</title>
<path fill="none" stroke="#191970" d="M857.6826,-168.3733C831.9668,-159.1419 792.962,-145.1402 764.5401,-134.9375"/>
<polygon fill="#191970" stroke="#191970" points="765.5619,-131.5857 754.9674,-131.5011 763.1968,-138.174 765.5619,-131.5857"/>
</g>
<!-- Node26 -->
<g id="node27" class="node">
<title>Node26</title>
<g id="a_node27"><a xlink:href="../../d0/db4/debugshare_8h.html" target="_top" xlink:title="Declares the constants used for sharing debug messages. These structures are used to gather debug mes...">
<polygon fill="#ffffff" stroke="#000000" points="811,-112.5 811,-131.5 958,-131.5 958,-112.5 811,-112.5"/>
<text text-anchor="middle" x="884.5" y="-119.5" font-family="Helvetica,sans-Serif" font-size="10.00" fill="#000000">ajabase/system/debugshare.h</text>
</a>
</g>
</g>
<!-- Node22&#45;&gt;Node26 -->
<g id="edge35" class="edge">
<title>Node22&#45;&gt;Node26</title>
<path fill="none" stroke="#191970" d="M884.5,-168.2455C884.5,-160.9382 884.5,-150.6944 884.5,-141.7046"/>
<polygon fill="#191970" stroke="#191970" points="888.0001,-141.6426 884.5,-131.6427 881.0001,-141.6427 888.0001,-141.6426"/>
</g>
<!-- Node24&#45;&gt;Node14 -->
<g id="edge31" class="edge">
<title>Node24&#45;&gt;Node14</title>
<path fill="none" stroke="#191970" d="M742.7833,-112.2455C755.247,-103.7337 773.5451,-91.2375 787.9792,-81.3801"/>
<polygon fill="#191970" stroke="#191970" points="790.0962,-84.1726 796.3804,-75.6427 786.1485,-78.392 790.0962,-84.1726"/>
</g>
<!-- Node24&#45;&gt;Node15 -->
<g id="edge32" class="edge">
<title>Node24&#45;&gt;Node15</title>
<path fill="none" stroke="#191970" d="M697.815,-112.4938C671.1076,-104.1089 631.1637,-91.3034 588.506,-76.2507"/>
<polygon fill="#191970" stroke="#191970" points="589.671,-72.9503 579.0762,-72.9017 587.3282,-79.5466 589.671,-72.9503"/>
</g>
<!-- Node24&#45;&gt;Node16 -->
<g id="edge30" class="edge">
<title>Node24&#45;&gt;Node16</title>
<path fill="none" stroke="#191970" d="M708.387,-112.3733C688.1032,-102.6648 656.7958,-87.68 635.2908,-77.387"/>
<polygon fill="#191970" stroke="#191970" points="636.7058,-74.1841 626.1747,-73.0238 633.6837,-80.4982 636.7058,-74.1841"/>
</g>
<!-- Node24&#45;&gt;Node18 -->
<g id="edge28" class="edge">
<title>Node24&#45;&gt;Node18</title>
<path fill="none" stroke="#191970" d="M782.6341,-112.4369C837.798,-102.6918 923.3237,-87.5832 981.7351,-77.2645"/>
<polygon fill="#191970" stroke="#191970" points="982.3506,-80.71 991.5892,-75.5237 981.1328,-73.8167 982.3506,-80.71"/>
</g>
<!-- Node24&#45;&gt;Node20 -->
<g id="edge29" class="edge">
<title>Node24&#45;&gt;Node20</title>
<path fill="none" stroke="#191970" d="M753.0826,-112.3733C777.5825,-102.7789 815.241,-88.0315 841.4908,-77.7519"/>
<polygon fill="#191970" stroke="#191970" points="842.9062,-80.9564 850.9414,-74.0509 840.3537,-74.4384 842.9062,-80.9564"/>
</g>
<!-- Node25 -->
<g id="node26" class="node">
<title>Node25</title>
<g id="a_node26"><a xlink:href="../../d9/d49/types_8h.html" target="_top" xlink:title="Declares common types used in the ajabase library. ">
<polygon fill="#ffffff" stroke="#000000" points="644.5,-56.5 644.5,-75.5 770.5,-75.5 770.5,-56.5 644.5,-56.5"/>
<text text-anchor="middle" x="707.5" y="-63.5" font-family="Helvetica,sans-Serif" font-size="10.00" fill="#000000">ajabase/common/types.h</text>
</a>
</g>
</g>
<!-- Node24&#45;&gt;Node25 -->
<g id="edge33" class="edge">
<title>Node24&#45;&gt;Node25</title>
<path fill="none" stroke="#191970" d="M724.8421,-112.2455C722.0416,-104.7776 718.091,-94.2427 714.6676,-85.1137"/>
<polygon fill="#191970" stroke="#191970" points="717.9045,-83.777 711.116,-75.6427 711.3501,-86.2349 717.9045,-83.777"/>
</g>
<!-- Node25&#45;&gt;Node7 -->
<g id="edge34" class="edge">
<title>Node25&#45;&gt;Node7</title>
<path fill="none" stroke="#191970" d="M759.5848,-56.4369C815.1641,-46.2322 902.7768,-30.1459 958.9218,-19.8373"/>
<polygon fill="#191970" stroke="#191970" points="959.8208,-23.2308 969.0244,-17.9824 958.5567,-16.3459 959.8208,-23.2308"/>
</g>
<!-- Node26&#45;&gt;Node8 -->
<g id="edge38" class="edge">
<title>Node26&#45;&gt;Node8</title>
<path fill="none" stroke="#191970" d="M953.6055,-112.4584C1023.3669,-102.6437 1127.4004,-87.4643 1182.6625,-75.8939"/>
<polygon fill="#191970" stroke="#191970" points="1183.6911,-79.2521 1192.7173,-73.7042 1182.2015,-72.4124 1183.6911,-79.2521"/>
</g>
<!-- Node26&#45;&gt;Node14 -->
<g id="edge40" class="edge">
<title>Node26&#45;&gt;Node14</title>
<path fill="none" stroke="#191970" d="M871.6102,-112.2455C860.5746,-103.8943 844.4708,-91.7076 831.5647,-81.9408"/>
<polygon fill="#191970" stroke="#191970" points="833.3283,-78.8862 823.2421,-75.6427 829.1041,-84.4681 833.3283,-78.8862"/>
</g>
<!-- Node26&#45;&gt;Node18 -->
<g id="edge36" class="edge">
<title>Node26&#45;&gt;Node18</title>
<path fill="none" stroke="#191970" d="M912.1769,-112.3733C938.8328,-103.1016 979.3238,-89.0178 1008.6884,-78.804"/>
<polygon fill="#191970" stroke="#191970" points="1009.8891,-82.0921 1018.1843,-75.5011 1007.5895,-75.4807 1009.8891,-82.0921"/>
</g>
<!-- Node26&#45;&gt;Node20 -->
<g id="edge39" class="edge">
<title>Node26&#45;&gt;Node20</title>
<path fill="none" stroke="#191970" d="M882.2356,-112.2455C880.5206,-104.8579 878.1088,-94.4689 876.0056,-85.4087"/>
<polygon fill="#191970" stroke="#191970" points="879.4092,-84.5922 873.7385,-75.6427 872.5905,-86.1751 879.4092,-84.5922"/>
</g>
<!-- Node27 -->
<g id="node28" class="node">
<title>Node27</title>
<polygon fill="#ffffff" stroke="#bfbfbf" points="910.5,-56.5 910.5,-75.5 962.5,-75.5 962.5,-56.5 910.5,-56.5"/>
<text text-anchor="middle" x="936.5" y="-63.5" font-family="Helvetica,sans-Serif" font-size="10.00" fill="#000000">stddef.h</text>
</g>
<!-- Node26&#45;&gt;Node27 -->
<g id="edge37" class="edge">
<title>Node26&#45;&gt;Node27</title>
<path fill="none" stroke="#191970" d="M893.5577,-112.2455C901.0142,-104.2155 911.7634,-92.6394 920.6417,-83.0781"/>
<polygon fill="#191970" stroke="#191970" points="923.3063,-85.3522 927.5461,-75.6427 918.1768,-80.589 923.3063,-85.3522"/>
</g>
</g>
</svg>
        <g id="navigator" transform="translate(0 0)" fill="#404254">
                <rect fill="#f2f5e9" fill-opacity="0.5" stroke="#606060" stroke-width=".5" x="0" y="0" width="60" height="60"/>
                <use id="zoomplus" xlink:href="#zoomPlus" x="17" y="9" onmousedown="handleZoom(evt,'in')"/>
                <use id="zoomminus" xlink:href="#zoomMin" x="42" y="9" onmousedown="handleZoom(evt,'out')"/>
                <use id="reset" xlink:href="#resetDef" x="30" y="36" onmousedown="handleReset()"/>
                <g id="arrowUp" xlink:href="#dirArrow" transform="translate(30 24)" onmousedown="handlePan(0,-1)">
                  <use xlink:href="#rim" fill="#404040">
                        <set attributeName="fill" to="#808080" begin="arrowUp.mouseover" end="arrowUp.mouseout"/>
                  </use>
                  <path fill="none" stroke="white" stroke-width="1.5" d="M0,-3.0v7 M-2.5,-0.5L0,-3.0L2.5,-0.5"/>
                </g>
                <g id="arrowRight" xlink:href="#dirArrow" transform="rotate(90) translate(36 -43)" onmousedown="handlePan(1,0)">
                  <use xlink:href="#rim" fill="#404040">
                        <set attributeName="fill" to="#808080" begin="arrowRight.mouseover" end="arrowRight.mouseout"/>
                  </use>
                  <path fill="none" stroke="white" stroke-width="1.5" d="M0,-3.0v7 M-2.5,-0.5L0,-3.0L2.5,-0.5"/>
                </g>
                <g id="arrowDown" xlink:href="#dirArrow" transform="rotate(180) translate(-30 -48)" onmousedown="handlePan(0,1)">
                  <use xlink:href="#rim" fill="#404040">
                        <set attributeName="fill" to="#808080" begin="arrowDown.mouseover" end="arrowDown.mouseout"/>
                  </use>
                  <path fill="none" stroke="white" stroke-width="1.5" d="M0,-3.0v7 M-2.5,-0.5L0,-3.0L2.5,-0.5"/>
                </g>
                <g id="arrowLeft" xlink:href="#dirArrow" transform="rotate(270) translate(-36 17)" onmousedown="handlePan(-1,0)">
                  <use xlink:href="#rim" fill="#404040">
                        <set attributeName="fill" to="#808080" begin="arrowLeft.mouseover" end="arrowLeft.mouseout"/>
                  </use>
                  <path fill="none" stroke="white" stroke-width="1.5" d="M0,-3.0v7 M-2.5,-0.5L0,-3.0L2.5,-0.5"/>
                </g>
        </g>
        <svg viewBox="0 0 15 15" width="100%" height="30px" preserveAspectRatio="xMaxYMin meet">
         <g id="arrow_out" transform="scale(0.3 0.3)">
          <a xlink:href="devicenotifier_8cpp__incl_org.svg" target="_base">
           <rect id="button" ry="5" rx="5" y="6" x="6" height="38" width="38"
                fill="#f2f5e9" fill-opacity="0.5" stroke="#606060" stroke-width="1.0"/>
           <path id="arrow"
             d="M 11.500037,31.436501 C 11.940474,20.09759 22.043105,11.32322 32.158766,21.979434 L 37.068811,17.246167 C 37.068811,17.246167 37.088388,32 37.088388,32 L 22.160133,31.978069 C 22.160133,31.978069 26.997745,27.140456 26.997745,27.140456 C 18.528582,18.264221 13.291696,25.230495 11.500037,31.436501 z"
             style="fill:#404040;"/>
          </a>
         </g>
        </svg>
</svg>
