<?xml version="1.0" encoding="UTF-8" standalone="no"?>
<!DOCTYPE svg PUBLIC "-//W3C//DTD SVG 1.1//EN"
 "http://www.w3.org/Graphics/SVG/1.1/DTD/svg11.dtd">
<!-- Generated by graphviz version 2.40.1 (0)
 -->
<!-- Title: /home/tcbuilder/buildAgent/work/df8e8cce5bebfd58/libajantv2/ajantv2/includes/ntv2tshelper.h Pages: 1 -->
<svg width="1188pt" height="362pt"
 viewBox="0.00 0.00 1187.50 362.00" xmlns="http://www.w3.org/2000/svg" xmlns:xlink="http://www.w3.org/1999/xlink">
<g id="graph0" class="graph" transform="scale(1 1) rotate(0) translate(4 358)">
<title>/home/tcbuilder/buildAgent/work/df8e8cce5bebfd58/libajantv2/ajantv2/includes/ntv2tshelper.h</title>
<polygon fill="#ffffff" stroke="transparent" points="-4,4 -4,-358 1183.5,-358 1183.5,4 -4,4"/>
<!-- Node3 -->
<g id="node1" class="node">
<title>Node3</title>
<polygon fill="#bfbfbf" stroke="#000000" points="407,-312.5 407,-353.5 574,-353.5 574,-312.5 407,-312.5"/>
<text text-anchor="start" x="415" y="-341.5" font-family="Helvetica,sans-Serif" font-size="10.00" fill="#000000">/home/tcbuilder/buildAgent</text>
<text text-anchor="start" x="415" y="-330.5" font-family="Helvetica,sans-Serif" font-size="10.00" fill="#000000">/work/df8e8cce5bebfd58/libajantv2</text>
<text text-anchor="middle" x="490.5" y="-319.5" font-family="Helvetica,sans-Serif" font-size="10.00" fill="#000000">/ajantv2/includes/ntv2tshelper.h</text>
</g>
<!-- Node4 -->
<g id="node2" class="node">
<title>Node4</title>
<g id="a_node2"><a xlink:href="../../da/d5d/ntv2configts2022_8h.html" target="_top" xlink:title="Declares the CNTV2ConfigTs2022 class. ">
<polygon fill="#ffffff" stroke="#000000" points="344.5,-156.5 344.5,-197.5 520.5,-197.5 520.5,-156.5 344.5,-156.5"/>
<text text-anchor="start" x="352.5" y="-185.5" font-family="Helvetica,sans-Serif" font-size="10.00" fill="#000000">/home/tcbuilder/buildAgent</text>
<text text-anchor="start" x="352.5" y="-174.5" font-family="Helvetica,sans-Serif" font-size="10.00" fill="#000000">/work/df8e8cce5bebfd58/libajantv2</text>
<text text-anchor="middle" x="432.5" y="-163.5" font-family="Helvetica,sans-Serif" font-size="10.00" fill="#000000">/ajantv2/includes/ntv2configts2022.h</text>
</a>
</g>
</g>
<!-- Node3&#45;&gt;Node4 -->
<g id="edge1" class="edge">
<title>Node3&#45;&gt;Node4</title>
<path fill="none" stroke="#191970" d="M470.1355,-303.884C464.7674,-295.2138 459.3943,-285.4881 455.5,-276 444.8471,-250.0452 438.5547,-218.1411 435.3156,-197.6902"/>
<polygon fill="#191970" stroke="#191970" points="467.3126,-305.9652 475.6655,-312.4828 473.2001,-302.1787 467.3126,-305.9652"/>
</g>
<!-- Node8 -->
<g id="node6" class="node">
<title>Node8</title>
<g id="a_node6"><a xlink:href="../../db/d15/ntv2config2022_8h.html" target="_top" xlink:title="Declares the CNTV2Config2022 class. ">
<polygon fill="#ffffff" stroke="#000000" points="465,-234.5 465,-275.5 632,-275.5 632,-234.5 465,-234.5"/>
<text text-anchor="start" x="473" y="-263.5" font-family="Helvetica,sans-Serif" font-size="10.00" fill="#000000">/home/tcbuilder/buildAgent</text>
<text text-anchor="start" x="473" y="-252.5" font-family="Helvetica,sans-Serif" font-size="10.00" fill="#000000">/work/df8e8cce5bebfd58/libajantv2</text>
<text text-anchor="middle" x="548.5" y="-241.5" font-family="Helvetica,sans-Serif" font-size="10.00" fill="#000000">/ajantv2/includes/ntv2config2022.h</text>
</a>
</g>
</g>
<!-- Node3&#45;&gt;Node8 -->
<g id="edge5" class="edge">
<title>Node3&#45;&gt;Node8</title>
<path fill="none" stroke="#191970" d="M512.2094,-303.8046C519.1615,-294.4552 526.7113,-284.302 533.1153,-275.6898"/>
<polygon fill="#191970" stroke="#191970" points="509.2014,-301.9843 506.0429,-312.0974 514.8186,-306.1613 509.2014,-301.9843"/>
</g>
<!-- Node5 -->
<g id="node3" class="node">
<title>Node5</title>
<g id="a_node3"><a xlink:href="../../d2/d90/konaipj2ksetup_8cpp.html" target="_top" xlink:title="/home/tcbuilder/buildAgent\l/work/df8e8cce5bebfd58/libajantv2\l/demos/ntv2konaipj2ksetup/konaipj2ksetup.cpp">
<polygon fill="#ffffff" stroke="#000000" points="0,-78.5 0,-119.5 223,-119.5 223,-78.5 0,-78.5"/>
<text text-anchor="start" x="8" y="-107.5" font-family="Helvetica,sans-Serif" font-size="10.00" fill="#000000">/home/tcbuilder/buildAgent</text>
<text text-anchor="start" x="8" y="-96.5" font-family="Helvetica,sans-Serif" font-size="10.00" fill="#000000">/work/df8e8cce5bebfd58/libajantv2</text>
<text text-anchor="middle" x="111.5" y="-85.5" font-family="Helvetica,sans-Serif" font-size="10.00" fill="#000000">/demos/ntv2konaipj2ksetup/konaipj2ksetup.cpp</text>
</a>
</g>
</g>
<!-- Node4&#45;&gt;Node5 -->
<g id="edge2" class="edge">
<title>Node4&#45;&gt;Node5</title>
<path fill="none" stroke="#191970" d="M337.9729,-154.0308C292.9494,-143.0905 239.54,-130.1125 195.8984,-119.508"/>
<polygon fill="#191970" stroke="#191970" points="337.1975,-157.4441 347.7411,-156.4044 338.8503,-150.6421 337.1975,-157.4441"/>
</g>
<!-- Node6 -->
<g id="node4" class="node">
<title>Node6</title>
<g id="a_node4"><a xlink:href="../../d9/dca/ntv2config2022_8cpp.html" target="_top" xlink:title="Implements the CNTV2Config2022 class. ">
<polygon fill="#ffffff" stroke="#000000" points="426,-78.5 426,-119.5 593,-119.5 593,-78.5 426,-78.5"/>
<text text-anchor="start" x="434" y="-107.5" font-family="Helvetica,sans-Serif" font-size="10.00" fill="#000000">/home/tcbuilder/buildAgent</text>
<text text-anchor="start" x="434" y="-96.5" font-family="Helvetica,sans-Serif" font-size="10.00" fill="#000000">/work/df8e8cce5bebfd58/libajantv2</text>
<text text-anchor="middle" x="509.5" y="-85.5" font-family="Helvetica,sans-Serif" font-size="10.00" fill="#000000">/ajantv2/src/ntv2config2022.cpp</text>
</a>
</g>
</g>
<!-- Node4&#45;&gt;Node6 -->
<g id="edge3" class="edge">
<title>Node4&#45;&gt;Node6</title>
<path fill="none" stroke="#191970" d="M460.1951,-148.9452C469.7298,-139.2866 480.2266,-128.6535 489.0755,-119.6898"/>
<polygon fill="#191970" stroke="#191970" points="457.6691,-146.522 453.1346,-156.0974 462.6507,-151.4397 457.6691,-146.522"/>
</g>
<!-- Node7 -->
<g id="node5" class="node">
<title>Node7</title>
<g id="a_node5"><a xlink:href="../../d6/ddd/ntv2configts2022_8cpp.html" target="_top" xlink:title="/home/tcbuilder/buildAgent\l/work/df8e8cce5bebfd58/libajantv2\l/ajantv2/src/ntv2configts2022.cpp">
<polygon fill="#ffffff" stroke="#000000" points="241,-78.5 241,-119.5 408,-119.5 408,-78.5 241,-78.5"/>
<text text-anchor="start" x="249" y="-107.5" font-family="Helvetica,sans-Serif" font-size="10.00" fill="#000000">/home/tcbuilder/buildAgent</text>
<text text-anchor="start" x="249" y="-96.5" font-family="Helvetica,sans-Serif" font-size="10.00" fill="#000000">/work/df8e8cce5bebfd58/libajantv2</text>
<text text-anchor="middle" x="324.5" y="-85.5" font-family="Helvetica,sans-Serif" font-size="10.00" fill="#000000">/ajantv2/src/ntv2configts2022.cpp</text>
</a>
</g>
</g>
<!-- Node4&#45;&gt;Node7 -->
<g id="edge4" class="edge">
<title>Node4&#45;&gt;Node7</title>
<path fill="none" stroke="#191970" d="M395.43,-150.2272C381.5131,-140.1761 365.9272,-128.9196 352.9176,-119.5239"/>
<polygon fill="#191970" stroke="#191970" points="393.6855,-153.2847 403.8415,-156.3022 397.7839,-147.6099 393.6855,-153.2847"/>
</g>
<!-- Node8&#45;&gt;Node4 -->
<g id="edge6" class="edge">
<title>Node8&#45;&gt;Node4</title>
<path fill="none" stroke="#191970" d="M509.1066,-228.5113C494.0524,-218.3887 477.1277,-207.0083 463.0227,-197.5239"/>
<polygon fill="#191970" stroke="#191970" points="507.4672,-231.6267 517.7187,-234.3022 511.3732,-225.8177 507.4672,-231.6267"/>
</g>
<!-- Node8&#45;&gt;Node6 -->
<g id="edge13" class="edge">
<title>Node8&#45;&gt;Node6</title>
<path fill="none" stroke="#191970" d="M543.8246,-224.3736C540.5232,-204.6779 535.6058,-178.63 529.5,-156 526.1944,-143.7485 521.5456,-130.3444 517.5617,-119.6144"/>
<polygon fill="#191970" stroke="#191970" points="540.3826,-225.0139 545.4455,-234.3207 547.2915,-223.888 540.3826,-225.0139"/>
</g>
<!-- Node9 -->
<g id="node7" class="node">
<title>Node9</title>
<g id="a_node7"><a xlink:href="../../df/d17/konaipjsonparse_8h.html" target="_top" xlink:title="/home/tcbuilder/buildAgent\l/work/df8e8cce5bebfd58/libajantv2\l/demos/ntv2konaipjsonsetup/konaipjsonparse.h">
<polygon fill="#ffffff" stroke="#000000" points="616,-156.5 616,-197.5 839,-197.5 839,-156.5 616,-156.5"/>
<text text-anchor="start" x="624" y="-185.5" font-family="Helvetica,sans-Serif" font-size="10.00" fill="#000000">/home/tcbuilder/buildAgent</text>
<text text-anchor="start" x="624" y="-174.5" font-family="Helvetica,sans-Serif" font-size="10.00" fill="#000000">/work/df8e8cce5bebfd58/libajantv2</text>
<text text-anchor="middle" x="727.5" y="-163.5" font-family="Helvetica,sans-Serif" font-size="10.00" fill="#000000">/demos/ntv2konaipjsonsetup/konaipjsonparse.h</text>
</a>
</g>
</g>
<!-- Node8&#45;&gt;Node9 -->
<g id="edge7" class="edge">
<title>Node8&#45;&gt;Node9</title>
<path fill="none" stroke="#191970" d="M605.4087,-230.2018C629.5756,-219.671 657.4143,-207.5401 680.4004,-197.5239"/>
<polygon fill="#191970" stroke="#191970" points="603.768,-227.0988 595.9988,-234.3022 606.5644,-233.516 603.768,-227.0988"/>
</g>
<!-- Node11 -->
<g id="node9" class="node">
<title>Node11</title>
<g id="a_node9"><a xlink:href="../../db/da7/konaipjsonsetup_8h.html" target="_top" xlink:title="/home/tcbuilder/buildAgent\l/work/df8e8cce5bebfd58/libajantv2\l/demos/ntv2konaipjsonsetup/konaipjsonsetup.h">
<polygon fill="#ffffff" stroke="#000000" points="862,-78.5 862,-119.5 1085,-119.5 1085,-78.5 862,-78.5"/>
<text text-anchor="start" x="870" y="-107.5" font-family="Helvetica,sans-Serif" font-size="10.00" fill="#000000">/home/tcbuilder/buildAgent</text>
<text text-anchor="start" x="870" y="-96.5" font-family="Helvetica,sans-Serif" font-size="10.00" fill="#000000">/work/df8e8cce5bebfd58/libajantv2</text>
<text text-anchor="middle" x="973.5" y="-85.5" font-family="Helvetica,sans-Serif" font-size="10.00" fill="#000000">/demos/ntv2konaipjsonsetup/konaipjsonsetup.h</text>
</a>
</g>
</g>
<!-- Node8&#45;&gt;Node11 -->
<g id="edge12" class="edge">
<title>Node8&#45;&gt;Node11</title>
<path fill="none" stroke="#191970" d="M642.2518,-248.6422C702.9892,-241.7879 782.5775,-227.5529 847.5,-198 889.7839,-178.7523 930.5201,-142.4871 953.7339,-119.5979"/>
<polygon fill="#191970" stroke="#191970" points="641.8547,-245.1646 632.289,-249.7197 642.6074,-252.1241 641.8547,-245.1646"/>
</g>
<!-- Node10 -->
<g id="node8" class="node">
<title>Node10</title>
<g id="a_node8"><a xlink:href="../../d3/de6/konaipjsonparse_8cpp.html" target="_top" xlink:title="/home/tcbuilder/buildAgent\l/work/df8e8cce5bebfd58/libajantv2\l/demos/ntv2konaipjsonsetup/konaipjsonparse.cpp">
<polygon fill="#ffffff" stroke="#000000" points="611,-78.5 611,-119.5 844,-119.5 844,-78.5 611,-78.5"/>
<text text-anchor="start" x="619" y="-107.5" font-family="Helvetica,sans-Serif" font-size="10.00" fill="#000000">/home/tcbuilder/buildAgent</text>
<text text-anchor="start" x="619" y="-96.5" font-family="Helvetica,sans-Serif" font-size="10.00" fill="#000000">/work/df8e8cce5bebfd58/libajantv2</text>
<text text-anchor="middle" x="727.5" y="-85.5" font-family="Helvetica,sans-Serif" font-size="10.00" fill="#000000">/demos/ntv2konaipjsonsetup/konaipjsonparse.cpp</text>
</a>
</g>
</g>
<!-- Node9&#45;&gt;Node10 -->
<g id="edge8" class="edge">
<title>Node9&#45;&gt;Node10</title>
<path fill="none" stroke="#191970" d="M727.5,-146.0789C727.5,-137.2178 727.5,-127.7747 727.5,-119.6898"/>
<polygon fill="#191970" stroke="#191970" points="724.0001,-146.0974 727.5,-156.0974 731.0001,-146.0975 724.0001,-146.0974"/>
</g>
<!-- Node9&#45;&gt;Node11 -->
<g id="edge9" class="edge">
<title>Node9&#45;&gt;Node11</title>
<path fill="none" stroke="#191970" d="M802.3185,-153.277C836.2396,-142.5216 875.9676,-129.9249 908.6075,-119.5757"/>
<polygon fill="#191970" stroke="#191970" points="800.9298,-150.0456 792.4554,-156.4044 803.0456,-156.7182 800.9298,-150.0456"/>
</g>
<!-- Node12 -->
<g id="node10" class="node">
<title>Node12</title>
<g id="a_node10"><a xlink:href="../../d2/d92/konaipjsonsetup_8cpp.html" target="_top" xlink:title="/home/tcbuilder/buildAgent\l/work/df8e8cce5bebfd58/libajantv2\l/demos/ntv2konaipjsonsetup/konaipjsonsetup.cpp">
<polygon fill="#ffffff" stroke="#000000" points="744,-.5 744,-41.5 977,-41.5 977,-.5 744,-.5"/>
<text text-anchor="start" x="752" y="-29.5" font-family="Helvetica,sans-Serif" font-size="10.00" fill="#000000">/home/tcbuilder/buildAgent</text>
<text text-anchor="start" x="752" y="-18.5" font-family="Helvetica,sans-Serif" font-size="10.00" fill="#000000">/work/df8e8cce5bebfd58/libajantv2</text>
<text text-anchor="middle" x="860.5" y="-7.5" font-family="Helvetica,sans-Serif" font-size="10.00" fill="#000000">/demos/ntv2konaipjsonsetup/konaipjsonsetup.cpp</text>
</a>
</g>
</g>
<!-- Node11&#45;&gt;Node12 -->
<g id="edge10" class="edge">
<title>Node11&#45;&gt;Node12</title>
<path fill="none" stroke="#191970" d="M935.1254,-72.5113C920.4605,-62.3887 903.9735,-51.0083 890.2333,-41.5239"/>
<polygon fill="#191970" stroke="#191970" points="933.2967,-75.5019 943.5147,-78.3022 937.2732,-69.741 933.2967,-75.5019"/>
</g>
<!-- Node13 -->
<g id="node11" class="node">
<title>Node13</title>
<g id="a_node11"><a xlink:href="../../d1/d61/ntv2konaipjsonsetup_2main_8cpp.html" target="_top" xlink:title="/home/tcbuilder/buildAgent\l/work/df8e8cce5bebfd58/libajantv2\l/demos/ntv2konaipjsonsetup/main.cpp">
<polygon fill="#ffffff" stroke="#000000" points="995.5,-.5 995.5,-41.5 1179.5,-41.5 1179.5,-.5 995.5,-.5"/>
<text text-anchor="start" x="1003.5" y="-29.5" font-family="Helvetica,sans-Serif" font-size="10.00" fill="#000000">/home/tcbuilder/buildAgent</text>
<text text-anchor="start" x="1003.5" y="-18.5" font-family="Helvetica,sans-Serif" font-size="10.00" fill="#000000">/work/df8e8cce5bebfd58/libajantv2</text>
<text text-anchor="middle" x="1087.5" y="-7.5" font-family="Helvetica,sans-Serif" font-size="10.00" fill="#000000">/demos/ntv2konaipjsonsetup/main.cpp</text>
</a>
</g>
</g>
<!-- Node11&#45;&gt;Node13 -->
<g id="edge11" class="edge">
<title>Node11&#45;&gt;Node13</title>
<path fill="none" stroke="#191970" d="M1012.2142,-72.5113C1027.0088,-62.3887 1043.6417,-51.0083 1057.5036,-41.5239"/>
<polygon fill="#191970" stroke="#191970" points="1010.0273,-69.7668 1003.7506,-78.3022 1013.9801,-75.5439 1010.0273,-69.7668"/>
</g>
</g>
</svg>
