<?xml version="1.0" encoding="UTF-8" standalone="no"?>
<!DOCTYPE svg PUBLIC "-//W3C//DTD SVG 1.1//EN"
 "http://www.w3.org/Graphics/SVG/1.1/DTD/svg11.dtd">
<!-- Generated by graphviz version 2.43.0 (0)
 -->
<!-- Title: /home/tcbuilder/buildAgent/work/df8e8cce5bebfd58/libajacc/includes/ntv2caption708serviceblockqueue.h Pages: 1 -->
<svg width="768pt" height="362pt"
 viewBox="0.00 0.00 767.50 362.00" xmlns="http://www.w3.org/2000/svg" xmlns:xlink="http://www.w3.org/1999/xlink">
<g id="graph0" class="graph" transform="scale(1 1) rotate(0) translate(4 358)">
<title>/home/tcbuilder/buildAgent/work/df8e8cce5bebfd58/libajacc/includes/ntv2caption708serviceblockqueue.h</title>
<polygon fill="white" stroke="transparent" points="-4,4 -4,-358 763.5,-358 763.5,4 -4,4"/>
<!-- Node1 -->
<g id="node1" class="node">
<title>Node1</title>
<g id="a_node1"><a xlink:title="Declares the CNTV2Caption708ServiceBlockQueue class.">
<polygon fill="#bfbfbf" stroke="black" points="307,-312.5 307,-353.5 546,-353.5 546,-312.5 307,-312.5"/>
<text text-anchor="start" x="315" y="-341.5" font-family="Helvetica,sans-Serif" font-size="10.00">/home/tcbuilder/buildAgent</text>
<text text-anchor="start" x="315" y="-330.5" font-family="Helvetica,sans-Serif" font-size="10.00">/work/df8e8cce5bebfd58/libajacc</text>
<text text-anchor="middle" x="426.5" y="-319.5" font-family="Helvetica,sans-Serif" font-size="10.00">/includes/ntv2caption708serviceblockqueue.h</text>
</a>
</g>
</g>
<!-- Node2 -->
<g id="node2" class="node">
<title>Node2</title>
<g id="a_node2"><a xlink:href="../../dc/df3/ntv2caption708service_8h.html" target="_top" xlink:title="Declares the CNTV2Caption708Service class.">
<polygon fill="white" stroke="black" points="215,-234.5 215,-275.5 398,-275.5 398,-234.5 215,-234.5"/>
<text text-anchor="start" x="223" y="-263.5" font-family="Helvetica,sans-Serif" font-size="10.00">/home/tcbuilder/buildAgent</text>
<text text-anchor="start" x="223" y="-252.5" font-family="Helvetica,sans-Serif" font-size="10.00">/work/df8e8cce5bebfd58/libajacc</text>
<text text-anchor="middle" x="306.5" y="-241.5" font-family="Helvetica,sans-Serif" font-size="10.00">/includes/ntv2caption708service.h</text>
</a>
</g>
</g>
<!-- Node1&#45;&gt;Node2 -->
<g id="edge1" class="edge">
<title>Node1&#45;&gt;Node2</title>
<path fill="none" stroke="midnightblue" d="M386.9,-306.92C370.77,-296.7 352.4,-285.07 337.3,-275.51"/>
<polygon fill="midnightblue" stroke="midnightblue" points="385.28,-310.03 395.6,-312.43 389.02,-304.12 385.28,-310.03"/>
</g>
<!-- Node9 -->
<g id="node9" class="node">
<title>Node9</title>
<g id="a_node9"><a xlink:href="../../de/dc3/ntv2captiontranslatorchannel608to708_8h.html" target="_top" xlink:title="Declares the CNTV2CaptionTranslatorChannel608to708 class.">
<polygon fill="white" stroke="black" points="416,-234.5 416,-275.5 677,-275.5 677,-234.5 416,-234.5"/>
<text text-anchor="start" x="424" y="-263.5" font-family="Helvetica,sans-Serif" font-size="10.00">/home/tcbuilder/buildAgent</text>
<text text-anchor="start" x="424" y="-252.5" font-family="Helvetica,sans-Serif" font-size="10.00">/work/df8e8cce5bebfd58/libajacc</text>
<text text-anchor="middle" x="546.5" y="-241.5" font-family="Helvetica,sans-Serif" font-size="10.00">/includes/ntv2captiontranslatorchannel608to708.h</text>
</a>
</g>
</g>
<!-- Node1&#45;&gt;Node9 -->
<g id="edge8" class="edge">
<title>Node1&#45;&gt;Node9</title>
<path fill="none" stroke="midnightblue" d="M466.1,-306.92C482.23,-296.7 500.6,-285.07 515.7,-275.51"/>
<polygon fill="midnightblue" stroke="midnightblue" points="463.98,-304.12 457.4,-312.43 467.72,-310.03 463.98,-304.12"/>
</g>
<!-- Node3 -->
<g id="node3" class="node">
<title>Node3</title>
<g id="a_node3"><a xlink:href="../../d1/d13/ntv2captiondecoder708_8h.html" target="_top" xlink:title="Declares the CNTV2CaptionDecoder708 class.">
<polygon fill="white" stroke="black" points="213,-156.5 213,-197.5 400,-197.5 400,-156.5 213,-156.5"/>
<text text-anchor="start" x="221" y="-185.5" font-family="Helvetica,sans-Serif" font-size="10.00">/home/tcbuilder/buildAgent</text>
<text text-anchor="start" x="221" y="-174.5" font-family="Helvetica,sans-Serif" font-size="10.00">/work/df8e8cce5bebfd58/libajacc</text>
<text text-anchor="middle" x="306.5" y="-163.5" font-family="Helvetica,sans-Serif" font-size="10.00">/includes/ntv2captiondecoder708.h</text>
</a>
</g>
</g>
<!-- Node2&#45;&gt;Node3 -->
<g id="edge2" class="edge">
<title>Node2&#45;&gt;Node3</title>
<path fill="none" stroke="midnightblue" d="M306.5,-224.3C306.5,-215.3 306.5,-205.65 306.5,-197.51"/>
<polygon fill="midnightblue" stroke="midnightblue" points="303,-224.43 306.5,-234.43 310,-224.43 303,-224.43"/>
</g>
<!-- Node4 -->
<g id="node4" class="node">
<title>Node4</title>
<g id="a_node4"><a xlink:href="../../d9/dda/ajacc_8h.html" target="_top" xlink:title="The public interface to the AJA closed&#45;captioning library. It currently supports the CEA&#45;608 standard...">
<polygon fill="white" stroke="black" points="0,-78.5 0,-119.5 177,-119.5 177,-78.5 0,-78.5"/>
<text text-anchor="start" x="8" y="-107.5" font-family="Helvetica,sans-Serif" font-size="10.00">/home/tcbuilder/buildAgent</text>
<text text-anchor="start" x="8" y="-96.5" font-family="Helvetica,sans-Serif" font-size="10.00">/work/df8e8cce5bebfd58/libajacc</text>
<text text-anchor="middle" x="88.5" y="-85.5" font-family="Helvetica,sans-Serif" font-size="10.00">/includes/ajacc.h</text>
</a>
</g>
</g>
<!-- Node3&#45;&gt;Node4 -->
<g id="edge3" class="edge">
<title>Node3&#45;&gt;Node4</title>
<path fill="none" stroke="midnightblue" d="M240.6,-153.03C209.91,-142.33 173.79,-129.73 144.45,-119.51"/>
<polygon fill="midnightblue" stroke="midnightblue" points="239.76,-156.44 250.36,-156.43 242.07,-149.83 239.76,-156.44"/>
</g>
<!-- Node5 -->
<g id="node5" class="node">
<title>Node5</title>
<g id="a_node5"><a xlink:href="../../d1/d46/ntv2captiontranslator708to708_8h.html" target="_top" xlink:title="Declares the CNTV2CaptionTranslator708to708 class.">
<polygon fill="white" stroke="black" points="195,-78.5 195,-119.5 418,-119.5 418,-78.5 195,-78.5"/>
<text text-anchor="start" x="203" y="-107.5" font-family="Helvetica,sans-Serif" font-size="10.00">/home/tcbuilder/buildAgent</text>
<text text-anchor="start" x="203" y="-96.5" font-family="Helvetica,sans-Serif" font-size="10.00">/work/df8e8cce5bebfd58/libajacc</text>
<text text-anchor="middle" x="306.5" y="-85.5" font-family="Helvetica,sans-Serif" font-size="10.00">/includes/ntv2captiontranslator708to708.h</text>
</a>
</g>
</g>
<!-- Node3&#45;&gt;Node5 -->
<g id="edge4" class="edge">
<title>Node3&#45;&gt;Node5</title>
<path fill="none" stroke="midnightblue" d="M306.5,-146.3C306.5,-137.3 306.5,-127.65 306.5,-119.51"/>
<polygon fill="midnightblue" stroke="midnightblue" points="303,-146.43 306.5,-156.43 310,-146.43 303,-146.43"/>
</g>
<!-- Node6 -->
<g id="node6" class="node">
<title>Node6</title>
<g id="a_node6"><a xlink:href="../../da/d4f/ntv2ccgrabber_8h.html" target="_top" xlink:title="Header file for NTV2CCGrabber demonstration class.">
<polygon fill="white" stroke="black" points="436.5,-78.5 436.5,-119.5 642.5,-119.5 642.5,-78.5 436.5,-78.5"/>
<text text-anchor="start" x="444.5" y="-107.5" font-family="Helvetica,sans-Serif" font-size="10.00">/home/tcbuilder/buildAgent</text>
<text text-anchor="start" x="444.5" y="-96.5" font-family="Helvetica,sans-Serif" font-size="10.00">/work/df8e8cce5bebfd58/libajantv2</text>
<text text-anchor="middle" x="539.5" y="-85.5" font-family="Helvetica,sans-Serif" font-size="10.00">/demos/ntv2ccgrabber/ntv2ccgrabber.h</text>
</a>
</g>
</g>
<!-- Node3&#45;&gt;Node6 -->
<g id="edge5" class="edge">
<title>Node3&#45;&gt;Node6</title>
<path fill="none" stroke="midnightblue" d="M376.08,-153.3C409.06,-142.55 448.07,-129.82 479.7,-119.51"/>
<polygon fill="midnightblue" stroke="midnightblue" points="374.92,-150 366.5,-156.43 377.1,-156.65 374.92,-150"/>
</g>
<!-- Node7 -->
<g id="node7" class="node">
<title>Node7</title>
<g id="a_node7"><a xlink:href="../../d3/dbe/ntv2ccgrabber_2main_8cpp.html" target="_top" xlink:title="Demonstration application that grabs closed&#45;captioning data from frames captured from SDI input (usin...">
<polygon fill="white" stroke="black" points="335.5,-0.5 335.5,-41.5 523.5,-41.5 523.5,-0.5 335.5,-0.5"/>
<text text-anchor="start" x="343.5" y="-29.5" font-family="Helvetica,sans-Serif" font-size="10.00">/home/tcbuilder/buildAgent</text>
<text text-anchor="start" x="343.5" y="-18.5" font-family="Helvetica,sans-Serif" font-size="10.00">/work/df8e8cce5bebfd58/libajantv2</text>
<text text-anchor="middle" x="429.5" y="-7.5" font-family="Helvetica,sans-Serif" font-size="10.00">/demos/ntv2ccgrabber/main.cpp</text>
</a>
</g>
</g>
<!-- Node6&#45;&gt;Node7 -->
<g id="edge6" class="edge">
<title>Node6&#45;&gt;Node7</title>
<path fill="none" stroke="midnightblue" d="M502.79,-72.64C488.1,-62.49 471.45,-50.98 457.73,-41.51"/>
<polygon fill="midnightblue" stroke="midnightblue" points="500.96,-75.62 511.17,-78.43 504.93,-69.86 500.96,-75.62"/>
</g>
<!-- Node8 -->
<g id="node8" class="node">
<title>Node8</title>
<g id="a_node8"><a xlink:href="../../d9/dca/ntv2ccgrabber_8cpp.html" target="_top" xlink:title="Implementation of NTV2CCGrabber class.">
<polygon fill="white" stroke="black" points="541.5,-0.5 541.5,-41.5 759.5,-41.5 759.5,-0.5 541.5,-0.5"/>
<text text-anchor="start" x="549.5" y="-29.5" font-family="Helvetica,sans-Serif" font-size="10.00">/home/tcbuilder/buildAgent</text>
<text text-anchor="start" x="549.5" y="-18.5" font-family="Helvetica,sans-Serif" font-size="10.00">/work/df8e8cce5bebfd58/libajantv2</text>
<text text-anchor="middle" x="650.5" y="-7.5" font-family="Helvetica,sans-Serif" font-size="10.00">/demos/ntv2ccgrabber/ntv2ccgrabber.cpp</text>
</a>
</g>
</g>
<!-- Node6&#45;&gt;Node8 -->
<g id="edge7" class="edge">
<title>Node6&#45;&gt;Node8</title>
<path fill="none" stroke="midnightblue" d="M576.55,-72.64C591.37,-62.49 608.17,-50.98 622.01,-41.51"/>
<polygon fill="midnightblue" stroke="midnightblue" points="574.36,-69.89 568.09,-78.43 578.31,-75.67 574.36,-69.89"/>
</g>
<!-- Node10 -->
<g id="node10" class="node">
<title>Node10</title>
<g id="a_node10"><a xlink:href="../../df/d2f/ntv2captiontranslator608to708_8h.html" target="_top" xlink:title="Declares the CNTV2CaptionTranslator608to708 class.">
<polygon fill="white" stroke="black" points="435,-156.5 435,-197.5 658,-197.5 658,-156.5 435,-156.5"/>
<text text-anchor="start" x="443" y="-185.5" font-family="Helvetica,sans-Serif" font-size="10.00">/home/tcbuilder/buildAgent</text>
<text text-anchor="start" x="443" y="-174.5" font-family="Helvetica,sans-Serif" font-size="10.00">/work/df8e8cce5bebfd58/libajacc</text>
<text text-anchor="middle" x="546.5" y="-163.5" font-family="Helvetica,sans-Serif" font-size="10.00">/includes/ntv2captiontranslator608to708.h</text>
</a>
</g>
</g>
<!-- Node9&#45;&gt;Node10 -->
<g id="edge9" class="edge">
<title>Node9&#45;&gt;Node10</title>
<path fill="none" stroke="midnightblue" d="M546.5,-224.3C546.5,-215.3 546.5,-205.65 546.5,-197.51"/>
<polygon fill="midnightblue" stroke="midnightblue" points="543,-224.43 546.5,-234.43 550,-224.43 543,-224.43"/>
</g>
</g>
</svg>
