<?xml version="1.0" encoding="UTF-8" standalone="no"?>
<!DOCTYPE svg PUBLIC "-//W3C//DTD SVG 1.1//EN"
 "http://www.w3.org/Graphics/SVG/1.1/DTD/svg11.dtd">
<!-- Generated by graphviz version 2.43.0 (0)
 -->
<!-- Title: /home/tcbuilder/buildAgent/work/df8e8cce5bebfd58/libajantv2/ajaanc/includes/ancillarydata_hdr_hdr10.h Pages: 1 -->
<svg width="1124pt" height="150pt"
 viewBox="0.00 0.00 1124.00 150.00" xmlns="http://www.w3.org/2000/svg" xmlns:xlink="http://www.w3.org/1999/xlink">
<g id="graph0" class="graph" transform="scale(1 1) rotate(0) translate(4 146)">
<title>/home/tcbuilder/buildAgent/work/df8e8cce5bebfd58/libajantv2/ajaanc/includes/ancillarydata_hdr_hdr10.h</title>
<polygon fill="white" stroke="transparent" points="-4,4 -4,-146 1120,-146 1120,4 -4,4"/>
<!-- Node1 -->
<g id="node1" class="node">
<title>Node1</title>
<g id="a_node1"><a xlink:title="Declares the AJAAncillaryData_HDR_HDR10 class.">
<polygon fill="#bfbfbf" stroke="black" points="422,-89.5 422,-141.5 610,-141.5 610,-89.5 422,-89.5"/>
<text text-anchor="start" x="430" y="-129.5" font-family="Helvetica,sans-Serif" font-size="10.00">/home/tcbuilder/buildAgent</text>
<text text-anchor="start" x="430" y="-118.5" font-family="Helvetica,sans-Serif" font-size="10.00">/work/df8e8cce5bebfd58/libajantv2</text>
<text text-anchor="start" x="430" y="-107.5" font-family="Helvetica,sans-Serif" font-size="10.00">/ajaanc/includes/ancillarydata</text>
<text text-anchor="middle" x="516" y="-96.5" font-family="Helvetica,sans-Serif" font-size="10.00">_hdr_hdr10.h</text>
</a>
</g>
</g>
<!-- Node2 -->
<g id="node2" class="node">
<title>Node2</title>
<g id="a_node2"><a xlink:href="../../d5/dfb/ancillarydata__hdr__hdr10_8cpp.html" target="_top" xlink:title="Implements the AJAAncillaryData_HDR_HDR10 class.">
<polygon fill="white" stroke="black" points="0,-0.5 0,-52.5 188,-52.5 188,-0.5 0,-0.5"/>
<text text-anchor="start" x="8" y="-40.5" font-family="Helvetica,sans-Serif" font-size="10.00">/home/tcbuilder/buildAgent</text>
<text text-anchor="start" x="8" y="-29.5" font-family="Helvetica,sans-Serif" font-size="10.00">/work/df8e8cce5bebfd58/libajantv2</text>
<text text-anchor="start" x="8" y="-18.5" font-family="Helvetica,sans-Serif" font-size="10.00">/ajaanc/src/ancillarydata_hdr</text>
<text text-anchor="middle" x="94" y="-7.5" font-family="Helvetica,sans-Serif" font-size="10.00">_hdr10.cpp</text>
</a>
</g>
</g>
<!-- Node1&#45;&gt;Node2 -->
<g id="edge1" class="edge">
<title>Node1&#45;&gt;Node2</title>
<path fill="none" stroke="midnightblue" d="M412,-95.87C349.51,-84.32 268.5,-68.73 197,-53 194.12,-52.37 191.2,-51.71 188.25,-51.04"/>
<polygon fill="midnightblue" stroke="midnightblue" points="411.4,-99.32 421.87,-97.69 412.67,-92.43 411.4,-99.32"/>
</g>
<!-- Node3 -->
<g id="node3" class="node">
<title>Node3</title>
<g id="a_node3"><a xlink:href="../../d7/d6f/ntv2player_8cpp.html" target="_top" xlink:title="Implementation of NTV2Player class.">
<polygon fill="white" stroke="black" points="206,-6 206,-47 394,-47 394,-6 206,-6"/>
<text text-anchor="start" x="214" y="-35" font-family="Helvetica,sans-Serif" font-size="10.00">/home/tcbuilder/buildAgent</text>
<text text-anchor="start" x="214" y="-24" font-family="Helvetica,sans-Serif" font-size="10.00">/work/df8e8cce5bebfd58/libajantv2</text>
<text text-anchor="middle" x="300" y="-13" font-family="Helvetica,sans-Serif" font-size="10.00">/demos/ntv2player/ntv2player.cpp</text>
</a>
</g>
</g>
<!-- Node1&#45;&gt;Node3 -->
<g id="edge2" class="edge">
<title>Node1&#45;&gt;Node3</title>
<path fill="none" stroke="midnightblue" d="M444.24,-85.6C412.89,-72.97 376.92,-58.48 348.75,-47.13"/>
<polygon fill="midnightblue" stroke="midnightblue" points="443.23,-88.96 453.81,-89.45 445.85,-82.47 443.23,-88.96"/>
</g>
<!-- Node4 -->
<g id="node4" class="node">
<title>Node4</title>
<g id="a_node4"><a xlink:href="../../d2/d98/ntv2player4k_8cpp.html" target="_top" xlink:title="Implementation of ntv2player4k class.">
<polygon fill="white" stroke="black" points="412,-6 412,-47 620,-47 620,-6 412,-6"/>
<text text-anchor="start" x="420" y="-35" font-family="Helvetica,sans-Serif" font-size="10.00">/home/tcbuilder/buildAgent</text>
<text text-anchor="start" x="420" y="-24" font-family="Helvetica,sans-Serif" font-size="10.00">/work/df8e8cce5bebfd58/libajantv2</text>
<text text-anchor="middle" x="516" y="-13" font-family="Helvetica,sans-Serif" font-size="10.00">/demos/ntv2player4k/ntv2player4k.cpp</text>
</a>
</g>
</g>
<!-- Node1&#45;&gt;Node4 -->
<g id="edge3" class="edge">
<title>Node1&#45;&gt;Node4</title>
<path fill="none" stroke="midnightblue" d="M516,-79.16C516,-68.21 516,-56.55 516,-47.08"/>
<polygon fill="midnightblue" stroke="midnightblue" points="512.5,-79.34 516,-89.34 519.5,-79.34 512.5,-79.34"/>
</g>
<!-- Node5 -->
<g id="node5" class="node">
<title>Node5</title>
<g id="a_node5"><a xlink:href="../../db/d11/ntv2player8k_8cpp.html" target="_top" xlink:title="Implementation of ntv2player8k class.">
<polygon fill="white" stroke="black" points="638,-6 638,-47 846,-47 846,-6 638,-6"/>
<text text-anchor="start" x="646" y="-35" font-family="Helvetica,sans-Serif" font-size="10.00">/home/tcbuilder/buildAgent</text>
<text text-anchor="start" x="646" y="-24" font-family="Helvetica,sans-Serif" font-size="10.00">/work/df8e8cce5bebfd58/libajantv2</text>
<text text-anchor="middle" x="742" y="-13" font-family="Helvetica,sans-Serif" font-size="10.00">/demos/ntv2player8k/ntv2player8k.cpp</text>
</a>
</g>
</g>
<!-- Node1&#45;&gt;Node5 -->
<g id="edge4" class="edge">
<title>Node1&#45;&gt;Node5</title>
<path fill="none" stroke="midnightblue" d="M590.65,-85.76C623.56,-73.09 661.39,-58.53 691,-47.13"/>
<polygon fill="midnightblue" stroke="midnightblue" points="589.14,-82.59 581.07,-89.45 591.66,-89.13 589.14,-82.59"/>
</g>
<!-- Node6 -->
<g id="node6" class="node">
<title>Node6</title>
<g id="a_node6"><a xlink:href="../../d2/de1/ntv2streamplayer_8cpp.html" target="_top" xlink:title="Implementation of NTV2StreamPlayer class.">
<polygon fill="white" stroke="black" points="864,-6 864,-47 1116,-47 1116,-6 864,-6"/>
<text text-anchor="start" x="872" y="-35" font-family="Helvetica,sans-Serif" font-size="10.00">/home/tcbuilder/buildAgent</text>
<text text-anchor="start" x="872" y="-24" font-family="Helvetica,sans-Serif" font-size="10.00">/work/df8e8cce5bebfd58/libajantv2</text>
<text text-anchor="middle" x="990" y="-13" font-family="Helvetica,sans-Serif" font-size="10.00">/demos/ntv2streamplayer/ntv2streamplayer.cpp</text>
</a>
</g>
</g>
<!-- Node1&#45;&gt;Node6 -->
<g id="edge5" class="edge">
<title>Node1&#45;&gt;Node6</title>
<path fill="none" stroke="midnightblue" d="M620.43,-95.75C687.48,-83.67 776.4,-67.55 855,-53 865.32,-51.09 876.08,-49.08 886.82,-47.07"/>
<polygon fill="midnightblue" stroke="midnightblue" points="619.51,-92.37 610.29,-97.58 620.75,-99.25 619.51,-92.37"/>
</g>
</g>
</svg>
