<?xml version="1.0" encoding="UTF-8" standalone="no"?>
<!DOCTYPE svg PUBLIC "-//W3C//DTD SVG 1.1//EN"
 "http://www.w3.org/Graphics/SVG/1.1/DTD/svg11.dtd">
<!-- Generated by graphviz version 2.43.0 (0)
 -->
<!-- Title: CNTV2CaptionTranslatorChannel608to708 Pages: 1 -->
<svg width="229pt" height="209pt"
 viewBox="0.00 0.00 229.00 209.00" xmlns="http://www.w3.org/2000/svg" xmlns:xlink="http://www.w3.org/1999/xlink">
<g id="graph0" class="graph" transform="scale(1 1) rotate(0) translate(4 205)">
<title>CNTV2CaptionTranslatorChannel608to708</title>
<polygon fill="white" stroke="transparent" points="-4,4 -4,-205 225,-205 225,4 -4,4"/>
<!-- Node1 -->
<g id="node1" class="node">
<title>Node1</title>
<g id="a_node1"><a xlink:title=" ">
<polygon fill="#bfbfbf" stroke="black" points="0,-0.5 0,-19.5 221,-19.5 221,-0.5 0,-0.5"/>
<text text-anchor="middle" x="110.5" y="-7.5" font-family="Helvetica,sans-Serif" font-size="10.00">CNTV2CaptionTranslatorChannel608to708</text>
</a>
</g>
</g>
<!-- Node2 -->
<g id="node2" class="node">
<title>Node2</title>
<g id="a_node2"><a xlink:href="../../d8/de0/class_c_n_t_v2_caption_decode_channel608.html" target="_top" xlink:title=" ">
<polygon fill="white" stroke="black" points="19.5,-57.5 19.5,-76.5 201.5,-76.5 201.5,-57.5 19.5,-57.5"/>
<text text-anchor="middle" x="110.5" y="-64.5" font-family="Helvetica,sans-Serif" font-size="10.00">CNTV2CaptionDecodeChannel608</text>
</a>
</g>
</g>
<!-- Node2&#45;&gt;Node1 -->
<g id="edge1" class="edge">
<title>Node2&#45;&gt;Node1</title>
<path fill="none" stroke="midnightblue" d="M110.5,-47.12C110.5,-37.82 110.5,-27.06 110.5,-19.71"/>
<polygon fill="midnightblue" stroke="midnightblue" points="107,-47.41 110.5,-57.41 114,-47.41 107,-47.41"/>
</g>
<!-- Node3 -->
<g id="node3" class="node">
<title>Node3</title>
<g id="a_node3"><a xlink:href="../../d6/d59/class_c_n_t_v2_caption_log_config.html" target="_top" xlink:title=" ">
<polygon fill="white" stroke="black" points="43,-114.5 43,-133.5 178,-133.5 178,-114.5 43,-114.5"/>
<text text-anchor="middle" x="110.5" y="-121.5" font-family="Helvetica,sans-Serif" font-size="10.00">CNTV2CaptionLogConfig</text>
</a>
</g>
</g>
<!-- Node3&#45;&gt;Node2 -->
<g id="edge2" class="edge">
<title>Node3&#45;&gt;Node2</title>
<path fill="none" stroke="midnightblue" d="M110.5,-104.12C110.5,-94.82 110.5,-84.06 110.5,-76.71"/>
<polygon fill="midnightblue" stroke="midnightblue" points="107,-104.41 110.5,-114.41 114,-104.41 107,-104.41"/>
</g>
<!-- Node4 -->
<g id="node4" class="node">
<title>Node4</title>
<g id="a_node4"><a xlink:title=" ">
<polygon fill="white" stroke="#bfbfbf" points="88.5,-181.5 88.5,-200.5 132.5,-200.5 132.5,-181.5 88.5,-181.5"/>
<text text-anchor="middle" x="110.5" y="-188.5" font-family="Helvetica,sans-Serif" font-size="10.00">string</text>
</a>
</g>
</g>
<!-- Node4&#45;&gt;Node3 -->
<g id="edge3" class="edge">
<title>Node4&#45;&gt;Node3</title>
<path fill="none" stroke="#9a32cd" stroke-dasharray="5,2" d="M110.5,-171.04C110.5,-158.67 110.5,-143.12 110.5,-133.63"/>
<polygon fill="#9a32cd" stroke="#9a32cd" points="107,-171.23 110.5,-181.23 114,-171.23 107,-171.23"/>
<text text-anchor="middle" x="139" y="-155" font-family="Helvetica,sans-Serif" font-size="10.00"> mLogLabel</text>
</g>
</g>
</svg>
