<?xml version="1.0" encoding="UTF-8" standalone="no"?>
<!DOCTYPE svg PUBLIC "-//W3C//DTD SVG 1.1//EN"
 "http://www.w3.org/Graphics/SVG/1.1/DTD/svg11.dtd">
<!-- Generated by graphviz version 2.40.1 (0)
 -->
<!-- Title: CAggDrawSurface Pages: 1 -->
<svg width="258pt" height="140pt"
 viewBox="0.00 0.00 258.00 140.00" xmlns="http://www.w3.org/2000/svg" xmlns:xlink="http://www.w3.org/1999/xlink">
<g id="graph0" class="graph" transform="scale(1 1) rotate(0) translate(4 136)">
<title>CAggDrawSurface</title>
<polygon fill="#ffffff" stroke="transparent" points="-4,4 -4,-136 254,-136 254,4 -4,4"/>
<!-- Node0 -->
<g id="node1" class="node">
<title>Node0</title>
<polygon fill="#bfbfbf" stroke="#000000" points="53.5,-.5 53.5,-19.5 151.5,-19.5 151.5,-.5 53.5,-.5"/>
<text text-anchor="middle" x="102.5" y="-7.5" font-family="Helvetica,sans-Serif" font-size="10.00" fill="#000000">CAggDrawSurface</text>
</g>
<!-- Node1 -->
<g id="node2" class="node">
<title>Node1</title>
<polygon fill="#ffffff" stroke="#bfbfbf" points="0,-56.5 0,-75.5 103,-75.5 103,-56.5 0,-56.5"/>
<text text-anchor="middle" x="51.5" y="-63.5" font-family="Helvetica,sans-Serif" font-size="10.00" fill="#000000">IDirectDrawSurface</text>
</g>
<!-- Node1&#45;&gt;Node0 -->
<g id="edge1" class="edge">
<title>Node1&#45;&gt;Node0</title>
<path fill="none" stroke="#191970" d="M67.1749,-48.7884C75.8994,-39.2085 86.4354,-27.6396 93.7183,-19.6427"/>
<polygon fill="#191970" stroke="#191970" points="64.5291,-46.4954 60.3835,-56.2455 69.7046,-51.2088 64.5291,-46.4954"/>
</g>
<!-- Node2 -->
<g id="node3" class="node">
<title>Node2</title>
<g id="a_node3"><a xlink:href="../../d9/d89/class_c_unknown.html" target="_top" xlink:title="CUnknown">
<polygon fill="#ffffff" stroke="#000000" points="121,-56.5 121,-75.5 186,-75.5 186,-56.5 121,-56.5"/>
<text text-anchor="middle" x="153.5" y="-63.5" font-family="Helvetica,sans-Serif" font-size="10.00" fill="#000000">CUnknown</text>
</a>
</g>
</g>
<!-- Node2&#45;&gt;Node0 -->
<g id="edge2" class="edge">
<title>Node2&#45;&gt;Node0</title>
<path fill="none" stroke="#191970" d="M137.8251,-48.7884C129.1006,-39.2085 118.5646,-27.6396 111.2817,-19.6427"/>
<polygon fill="#191970" stroke="#191970" points="135.2954,-51.2088 144.6165,-56.2455 140.4709,-46.4954 135.2954,-51.2088"/>
</g>
<!-- Node3 -->
<g id="node4" class="node">
<title>Node3</title>
<polygon fill="#ffffff" stroke="#bfbfbf" points="32,-112.5 32,-131.5 157,-131.5 157,-112.5 32,-112.5"/>
<text text-anchor="middle" x="94.5" y="-119.5" font-family="Helvetica,sans-Serif" font-size="10.00" fill="#000000">INonDelegatingUnknown</text>
</g>
<!-- Node3&#45;&gt;Node2 -->
<g id="edge3" class="edge">
<title>Node3&#45;&gt;Node2</title>
<path fill="none" stroke="#191970" d="M112.0307,-105.3607C122.2377,-95.6727 134.7469,-83.7995 143.3408,-75.6427"/>
<polygon fill="#191970" stroke="#191970" points="109.6206,-102.8227 104.777,-112.2455 114.4396,-107.8998 109.6206,-102.8227"/>
</g>
<!-- Node4 -->
<g id="node5" class="node">
<title>Node4</title>
<g id="a_node5"><a xlink:href="../../d1/d2d/class_c_base_object.html" target="_top" xlink:title="CBaseObject">
<polygon fill="#ffffff" stroke="#000000" points="175,-112.5 175,-131.5 250,-131.5 250,-112.5 175,-112.5"/>
<text text-anchor="middle" x="212.5" y="-119.5" font-family="Helvetica,sans-Serif" font-size="10.00" fill="#000000">CBaseObject</text>
</a>
</g>
</g>
<!-- Node4&#45;&gt;Node2 -->
<g id="edge4" class="edge">
<title>Node4&#45;&gt;Node2</title>
<path fill="none" stroke="#191970" d="M194.9693,-105.3607C184.7623,-95.6727 172.2531,-83.7995 163.6592,-75.6427"/>
<polygon fill="#191970" stroke="#191970" points="192.5604,-107.8998 202.223,-112.2455 197.3794,-102.8227 192.5604,-107.8998"/>
</g>
</g>
</svg>
