<?xml version="1.0" encoding="UTF-8" standalone="no"?>
<!DOCTYPE svg PUBLIC "-//W3C//DTD SVG 1.1//EN"
 "http://www.w3.org/Graphics/SVG/1.1/DTD/svg11.dtd">
<!-- Generated by graphviz version 2.40.1 (0)
 -->
<!-- Title: /home/tcbuilder/buildAgent/work/df8e8cce5bebfd58/libajantv2/ajantv2/src/ntv2mcsfile.cpp Pages: 1 -->
<!--zoomable 442 -->
<svg id="main" version="1.1" xmlns="http://www.w3.org/2000/svg" xmlns:xlink="http://www.w3.org/1999/xlink" xml:space="preserve" onload="init(evt)">
<style type="text/css"><![CDATA[
.edge:hover path { stroke: red; }
.edge:hover polygon { stroke: red; fill: red; }
]]></style>
<script type="text/javascript"><![CDATA[
var edges = document.getElementsByTagName('g');
if (edges && edges.length) {
  for (var i=0;i<edges.length;i++) {
    if (edges[i].id.substr(0,4)=='edge') {
      edges[i].setAttribute('class','edge');
    }
  }
}
]]></script>
        <defs>
                <circle id="rim" cx="0" cy="0" r="7"/>
                <circle id="rim2" cx="0" cy="0" r="3.5"/>
                <g id="zoomPlus">
                        <use xlink:href="#rim" fill="#404040">
                                <set attributeName="fill" to="#808080" begin="zoomplus.mouseover" end="zoomplus.mouseout"/>
                        </use>
                        <path d="M-4,0h8M0,-4v8" fill="none" stroke="white" stroke-width="1.5" pointer-events="none"/>
                </g>
                <g id="zoomMin">
                        <use xlink:href="#rim" fill="#404040">
                                <set attributeName="fill" to="#808080" begin="zoomminus.mouseover" end="zoomminus.mouseout"/>
                        </use>
                        <path d="M-4,0h8" fill="none" stroke="white" stroke-width="1.5" pointer-events="none"/>
                </g>
                <g id="dirArrow">
                        <path fill="none" stroke="white" stroke-width="1.5" d="M0,-3.0v7 M-2.5,-0.5L0,-3.0L2.5,-0.5"/>
                </g>
               <g id="resetDef">
                       <use xlink:href="#rim2" fill="#404040">
                               <set attributeName="fill" to="#808080" begin="reset.mouseover" end="reset.mouseout"/>
                       </use>
               </g>
        </defs>

<script type="text/javascript">
var viewWidth = 1495;
var viewHeight = 442;
var sectionId = 'dynsection-0';
</script>
<script xlink:href="../../svgpan.js"/>
<svg id="graph" class="graph">
<g id="viewport">
<title>/home/tcbuilder/buildAgent/work/df8e8cce5bebfd58/libajantv2/ajantv2/src/ntv2mcsfile.cpp</title>
<polygon fill="#ffffff" stroke="transparent" points="-4,4 -4,-438 1491,-438 1491,4 -4,4"/>
<!-- Node0 -->
<g id="node1" class="node">
<title>Node0</title>
<polygon fill="#bfbfbf" stroke="#000000" points="860.5,-392.5 860.5,-433.5 1027.5,-433.5 1027.5,-392.5 860.5,-392.5"/>
<text text-anchor="start" x="868.5" y="-421.5" font-family="Helvetica,sans-Serif" font-size="10.00" fill="#000000">/home/tcbuilder/buildAgent</text>
<text text-anchor="start" x="868.5" y="-410.5" font-family="Helvetica,sans-Serif" font-size="10.00" fill="#000000">/work/df8e8cce5bebfd58/libajantv2</text>
<text text-anchor="middle" x="944" y="-399.5" font-family="Helvetica,sans-Serif" font-size="10.00" fill="#000000">/ajantv2/src/ntv2mcsfile.cpp</text>
</g>
<!-- Node1 -->
<g id="node2" class="node">
<title>Node1</title>
<g id="a_node2"><a xlink:href="../../d6/dc8/ntv2mcsfile_8h.html" target="_top" xlink:title="Declares the CNTV2MCSfile class. ">
<polygon fill="#ffffff" stroke="#000000" points="129.5,-336.5 129.5,-355.5 204.5,-355.5 204.5,-336.5 129.5,-336.5"/>
<text text-anchor="middle" x="167" y="-343.5" font-family="Helvetica,sans-Serif" font-size="10.00" fill="#000000">ntv2mcsfile.h</text>
</a>
</g>
</g>
<!-- Node0&#45;&gt;Node1 -->
<g id="edge1" class="edge">
<title>Node0&#45;&gt;Node1</title>
<path fill="none" stroke="#191970" d="M860.4786,-405.798C697.8812,-391.7774 343.5164,-361.2209 214.8766,-350.1284"/>
<polygon fill="#191970" stroke="#191970" points="214.8356,-346.6119 204.5719,-349.2398 214.2342,-353.586 214.8356,-346.6119"/>
</g>
<!-- Node5 -->
<g id="node6" class="node">
<title>Node5</title>
<g id="a_node6"><a xlink:href="../../d0/d81/ntv2utils_8h.html" target="_top" xlink:title="Declares numerous NTV2 utility functions. ">
<polygon fill="#ffffff" stroke="#000000" points="406,-280.5 406,-299.5 468,-299.5 468,-280.5 406,-280.5"/>
<text text-anchor="middle" x="437" y="-287.5" font-family="Helvetica,sans-Serif" font-size="10.00" fill="#000000">ntv2utils.h</text>
</a>
</g>
</g>
<!-- Node0&#45;&gt;Node5 -->
<g id="edge74" class="edge">
<title>Node0&#45;&gt;Node5</title>
<path fill="none" stroke="#191970" d="M860.2793,-392.6891C750.122,-365.9645 560.8051,-320.0355 477.8993,-299.9223"/>
<polygon fill="#191970" stroke="#191970" points="478.6377,-296.5 468.0944,-297.5436 476.9873,-303.3027 478.6377,-296.5"/>
</g>
<!-- Node14 -->
<g id="node15" class="node">
<title>Node14</title>
<polygon fill="#ffffff" stroke="#bfbfbf" points="30,-112.5 30,-131.5 84,-131.5 84,-112.5 30,-112.5"/>
<text text-anchor="middle" x="57" y="-119.5" font-family="Helvetica,sans-Serif" font-size="10.00" fill="#000000">iostream</text>
</g>
<!-- Node0&#45;&gt;Node14 -->
<g id="edge68" class="edge">
<title>Node0&#45;&gt;Node14</title>
<path fill="none" stroke="#191970" d="M860.3397,-411.773C679.4005,-408.3804 256.9726,-396.2716 120,-356 61.6039,-338.8308 0,-350.8678 0,-290 0,-290 0,-290 0,-234 0,-197.1826 24.7675,-160.2377 41.6501,-139.3313"/>
<polygon fill="#191970" stroke="#191970" points="44.3511,-141.5574 48.0938,-131.6456 38.9869,-137.06 44.3511,-141.5574"/>
</g>
<!-- Node19 -->
<g id="node20" class="node">
<title>Node19</title>
<polygon fill="#ffffff" stroke="#bfbfbf" points="799.5,-112.5 799.5,-131.5 848.5,-131.5 848.5,-112.5 799.5,-112.5"/>
<text text-anchor="middle" x="824" y="-119.5" font-family="Helvetica,sans-Serif" font-size="10.00" fill="#000000">string.h</text>
</g>
<!-- Node0&#45;&gt;Node19 -->
<g id="edge73" class="edge">
<title>Node0&#45;&gt;Node19</title>
<path fill="none" stroke="#191970" d="M924.2602,-392.2125C904.4968,-369.1426 877,-329.8794 877,-290 877,-290 877,-290 877,-234 877,-197.8604 854.1748,-160.9196 838.4825,-139.7933"/>
<polygon fill="#191970" stroke="#191970" points="841.161,-137.5352 832.2813,-131.7558 835.6188,-141.8112 841.161,-137.5352"/>
</g>
<!-- Node23 -->
<g id="node24" class="node">
<title>Node23</title>
<g id="a_node24"><a xlink:href="../../da/db1/ntv2bitfile_8h.html" target="_top" xlink:title="Declares the CNTV2Bitfile class. ">
<polygon fill="#ffffff" stroke="#000000" points="403.5,-336.5 403.5,-355.5 470.5,-355.5 470.5,-336.5 403.5,-336.5"/>
<text text-anchor="middle" x="437" y="-343.5" font-family="Helvetica,sans-Serif" font-size="10.00" fill="#000000">ntv2bitfile.h</text>
</a>
</g>
</g>
<!-- Node0&#45;&gt;Node23 -->
<g id="edge43" class="edge">
<title>Node0&#45;&gt;Node23</title>
<path fill="none" stroke="#191970" d="M860.2793,-401.9363C751.337,-387.5396 564.9715,-362.9114 480.6811,-351.7725"/>
<polygon fill="#191970" stroke="#191970" points="481.0522,-348.2912 470.6799,-350.4508 480.1351,-355.2308 481.0522,-348.2912"/>
</g>
<!-- Node24 -->
<g id="node25" class="node">
<title>Node24</title>
<g id="a_node25"><a xlink:href="../../db/d16/debug_8h.html" target="_top" xlink:title="Declares the AJADebug class. ">
<polygon fill="#ffffff" stroke="#000000" points="1128.5,-224.5 1128.5,-243.5 1251.5,-243.5 1251.5,-224.5 1128.5,-224.5"/>
<text text-anchor="middle" x="1190" y="-231.5" font-family="Helvetica,sans-Serif" font-size="10.00" fill="#000000">ajabase/system/debug.h</text>
</a>
</g>
</g>
<!-- Node0&#45;&gt;Node24 -->
<g id="edge50" class="edge">
<title>Node0&#45;&gt;Node24</title>
<path fill="none" stroke="#191970" d="M934.1843,-392.2669C927.8955,-375.6685 922.8038,-352.5131 934,-336 946.827,-317.0816 1083.159,-269.5687 1151.4576,-246.6946"/>
<polygon fill="#191970" stroke="#191970" points="1152.6398,-249.9899 1161.018,-243.5048 1150.4243,-243.3497 1152.6398,-249.9899"/>
</g>
<!-- Node33 -->
<g id="node34" class="node">
<title>Node33</title>
<polygon fill="#ffffff" stroke="#bfbfbf" points="943,-336.5 943,-355.5 1003,-355.5 1003,-336.5 943,-336.5"/>
<text text-anchor="middle" x="973" y="-343.5" font-family="Helvetica,sans-Serif" font-size="10.00" fill="#000000">sys/stat.h</text>
</g>
<!-- Node0&#45;&gt;Node33 -->
<g id="edge69" class="edge">
<title>Node0&#45;&gt;Node33</title>
<path fill="none" stroke="#191970" d="M953.0168,-392.168C956.7522,-383.5381 961.0569,-373.5928 964.7121,-365.1479"/>
<polygon fill="#191970" stroke="#191970" points="968.0064,-366.348 968.7667,-355.7805 961.5823,-363.5674 968.0064,-366.348"/>
</g>
<!-- Node34 -->
<g id="node35" class="node">
<title>Node34</title>
<polygon fill="#ffffff" stroke="#bfbfbf" points="1021,-336.5 1021,-355.5 1073,-355.5 1073,-336.5 1021,-336.5"/>
<text text-anchor="middle" x="1047" y="-343.5" font-family="Helvetica,sans-Serif" font-size="10.00" fill="#000000">assert.h</text>
</g>
<!-- Node0&#45;&gt;Node34 -->
<g id="edge70" class="edge">
<title>Node0&#45;&gt;Node34</title>
<path fill="none" stroke="#191970" d="M975.7438,-392.3511C991.163,-382.3212 1009.3671,-370.4797 1023.5157,-361.2762"/>
<polygon fill="#191970" stroke="#191970" points="1025.6837,-364.0413 1032.1578,-355.6546 1021.8667,-358.1735 1025.6837,-364.0413"/>
</g>
<!-- Node35 -->
<g id="node36" class="node">
<title>Node35</title>
<polygon fill="#ffffff" stroke="#bfbfbf" points="1091,-336.5 1091,-355.5 1147,-355.5 1147,-336.5 1091,-336.5"/>
<text text-anchor="middle" x="1119" y="-343.5" font-family="Helvetica,sans-Serif" font-size="10.00" fill="#000000">algorithm</text>
</g>
<!-- Node0&#45;&gt;Node35 -->
<g id="edge71" class="edge">
<title>Node0&#45;&gt;Node35</title>
<path fill="none" stroke="#191970" d="M997.9337,-392.3511C1026.0026,-381.6047 1059.5031,-368.7788 1084.1411,-359.346"/>
<polygon fill="#191970" stroke="#191970" points="1085.6952,-362.4988 1093.7827,-355.6546 1083.1923,-355.9615 1085.6952,-362.4988"/>
</g>
<!-- Node36 -->
<g id="node37" class="node">
<title>Node36</title>
<polygon fill="#ffffff" stroke="#bfbfbf" points="1165,-336.5 1165,-355.5 1227,-355.5 1227,-336.5 1165,-336.5"/>
<text text-anchor="middle" x="1196" y="-343.5" font-family="Helvetica,sans-Serif" font-size="10.00" fill="#000000">arpa/inet.h</text>
</g>
<!-- Node0&#45;&gt;Node36 -->
<g id="edge72" class="edge">
<title>Node0&#45;&gt;Node36</title>
<path fill="none" stroke="#191970" d="M1021.3209,-392.4425C1065.4914,-380.6987 1119.0935,-366.4474 1155.1743,-356.8545"/>
<polygon fill="#191970" stroke="#191970" points="1156.099,-360.2303 1164.8639,-354.2782 1154.3003,-353.4653 1156.099,-360.2303"/>
</g>
<!-- Node37 -->
<g id="node38" class="node">
<title>Node37</title>
<polygon fill="#ffffff" stroke="#bfbfbf" points="1245,-336.5 1245,-355.5 1289,-355.5 1289,-336.5 1245,-336.5"/>
<text text-anchor="middle" x="1267" y="-343.5" font-family="Helvetica,sans-Serif" font-size="10.00" fill="#000000">fcntl.h</text>
</g>
<!-- Node0&#45;&gt;Node37 -->
<g id="edge75" class="edge">
<title>Node0&#45;&gt;Node37</title>
<path fill="none" stroke="#191970" d="M1027.6623,-399.4004C1083.8456,-389.6323 1159.6346,-375.2325 1234.6451,-356.132"/>
<polygon fill="#191970" stroke="#191970" points="1235.9314,-359.4149 1244.742,-353.5308 1234.185,-352.6363 1235.9314,-359.4149"/>
</g>
<!-- Node38 -->
<g id="node39" class="node">
<title>Node38</title>
<polygon fill="#ffffff" stroke="#bfbfbf" points="1307,-336.5 1307,-355.5 1351,-355.5 1351,-336.5 1307,-336.5"/>
<text text-anchor="middle" x="1329" y="-343.5" font-family="Helvetica,sans-Serif" font-size="10.00" fill="#000000">time.h</text>
</g>
<!-- Node0&#45;&gt;Node38 -->
<g id="edge76" class="edge">
<title>Node0&#45;&gt;Node38</title>
<path fill="none" stroke="#191970" d="M1027.6806,-403.1838C1097.4684,-394.1583 1199.5546,-379.0114 1296.7673,-356.0177"/>
<polygon fill="#191970" stroke="#191970" points="1297.8561,-359.356 1306.7644,-353.6208 1296.224,-352.5489 1297.8561,-359.356"/>
</g>
<!-- Node2 -->
<g id="node3" class="node">
<title>Node2</title>
<polygon fill="#ffffff" stroke="#bfbfbf" points="284.5,-.5 284.5,-19.5 325.5,-19.5 325.5,-.5 284.5,-.5"/>
<text text-anchor="middle" x="305" y="-7.5" font-family="Helvetica,sans-Serif" font-size="10.00" fill="#000000">string</text>
</g>
<!-- Node1&#45;&gt;Node2 -->
<g id="edge2" class="edge">
<title>Node1&#45;&gt;Node2</title>
<path fill="none" stroke="#191970" d="M151.1276,-336.4349C117.232,-314.9527 38.4679,-259.1419 9,-188 .5667,-167.6403 14.7133,-119.5911 21,-112 54.3047,-71.7852 207.9342,-32.3543 274.3125,-16.8689"/>
<polygon fill="#191970" stroke="#191970" points="275.2269,-20.25 284.1849,-14.5928 273.6542,-13.429 275.2269,-20.25"/>
</g>
<!-- Node3 -->
<g id="node4" class="node">
<title>Node3</title>
<polygon fill="#ffffff" stroke="#bfbfbf" points="370,-112.5 370,-131.5 414,-131.5 414,-112.5 370,-112.5"/>
<text text-anchor="middle" x="392" y="-119.5" font-family="Helvetica,sans-Serif" font-size="10.00" fill="#000000">vector</text>
</g>
<!-- Node1&#45;&gt;Node3 -->
<g id="edge3" class="edge">
<title>Node1&#45;&gt;Node3</title>
<path fill="none" stroke="#191970" d="M155.861,-336.4878C142.1301,-323.5589 121.8956,-299.7817 133,-280 182.2528,-192.2598 302.2191,-147.4857 359.9388,-130.4106"/>
<polygon fill="#191970" stroke="#191970" points="360.9854,-133.7516 369.6336,-127.6312 359.0563,-127.0227 360.9854,-133.7516"/>
</g>
<!-- Node4 -->
<g id="node5" class="node">
<title>Node4</title>
<polygon fill="#ffffff" stroke="#bfbfbf" points="142,-280.5 142,-299.5 192,-299.5 192,-280.5 142,-280.5"/>
<text text-anchor="middle" x="167" y="-287.5" font-family="Helvetica,sans-Serif" font-size="10.00" fill="#000000">fstream</text>
</g>
<!-- Node1&#45;&gt;Node4 -->
<g id="edge4" class="edge">
<title>Node1&#45;&gt;Node4</title>
<path fill="none" stroke="#191970" d="M167,-336.2455C167,-328.9382 167,-318.6944 167,-309.7046"/>
<polygon fill="#191970" stroke="#191970" points="170.5001,-309.6426 167,-299.6427 163.5001,-309.6427 170.5001,-309.6426"/>
</g>
<!-- Node1&#45;&gt;Node5 -->
<g id="edge5" class="edge">
<title>Node1&#45;&gt;Node5</title>
<path fill="none" stroke="#191970" d="M204.5423,-338.2134C254.8044,-327.7887 343.6588,-309.3597 395.7437,-298.5569"/>
<polygon fill="#191970" stroke="#191970" points="396.5673,-301.9606 405.6481,-296.5026 395.1457,-295.1065 396.5673,-301.9606"/>
</g>
<!-- Node5&#45;&gt;Node2 -->
<g id="edge40" class="edge">
<title>Node5&#45;&gt;Node2</title>
<path fill="none" stroke="#191970" d="M432.313,-280.4104C420.31,-255.819 387.541,-188.474 361,-132 343.9031,-95.621 324.4242,-52.8834 313.5337,-28.8684"/>
<polygon fill="#191970" stroke="#191970" points="316.6128,-27.1834 309.2986,-19.5183 310.2364,-30.0716 316.6128,-27.1834"/>
</g>
<!-- Node5&#45;&gt;Node3 -->
<g id="edge42" class="edge">
<title>Node5&#45;&gt;Node3</title>
<path fill="none" stroke="#191970" d="M438.6843,-280.3789C441.9604,-259.1769 447.5826,-207.2012 432,-168 427.602,-156.936 419.3447,-146.7127 411.4694,-138.728"/>
<polygon fill="#191970" stroke="#191970" points="413.5465,-135.8747 403.8784,-131.5411 408.7338,-140.9579 413.5465,-135.8747"/>
</g>
<!-- Node6 -->
<g id="node7" class="node">
<title>Node6</title>
<g id="a_node7"><a xlink:href="../../d6/dd9/ajaexport_8h.html" target="_top" xlink:title="Defines the import/export macros for producing DLLs or LIBs. ">
<polygon fill="#ffffff" stroke="#000000" points="64.5,-.5 64.5,-19.5 129.5,-19.5 129.5,-.5 64.5,-.5"/>
<text text-anchor="middle" x="97" y="-7.5" font-family="Helvetica,sans-Serif" font-size="10.00" fill="#000000">ajaexport.h</text>
</a>
</g>
</g>
<!-- Node5&#45;&gt;Node6 -->
<g id="edge6" class="edge">
<title>Node5&#45;&gt;Node6</title>
<path fill="none" stroke="#191970" d="M405.6124,-286.7987C340.3478,-279.8598 192.1583,-262.5571 145,-244 103.5908,-227.7052 94.065,-218.8558 62,-188 34.3451,-161.388 8.9206,-148.429 21,-112 32.3727,-77.7023 60.2554,-45.5784 78.897,-26.861"/>
<polygon fill="#191970" stroke="#191970" points="81.531,-29.181 86.2454,-19.6928 76.6431,-24.1702 81.531,-29.181"/>
</g>
<!-- Node7 -->
<g id="node8" class="node">
<title>Node7</title>
<g id="a_node8"><a xlink:href="../../db/de2/ajatypes_8h.html" target="_top" xlink:title="Declares the most fundamental data types used by NTV2. Since Windows NT was the first principal devel...">
<polygon fill="#ffffff" stroke="#000000" points="948,-56.5 948,-75.5 1010,-75.5 1010,-56.5 948,-56.5"/>
<text text-anchor="middle" x="979" y="-63.5" font-family="Helvetica,sans-Serif" font-size="10.00" fill="#000000">ajatypes.h</text>
</a>
</g>
</g>
<!-- Node5&#45;&gt;Node7 -->
<g id="edge7" class="edge">
<title>Node5&#45;&gt;Node7</title>
<path fill="none" stroke="#191970" d="M468.1817,-281.7708C501.7993,-272.8148 556.8392,-257.9089 604,-244 763.093,-197.0797 844.1595,-250.7143 960,-132 971.9446,-119.7591 976.4689,-100.5154 978.1382,-85.9592"/>
<polygon fill="#191970" stroke="#191970" points="981.6315,-86.181 978.9338,-75.9353 974.6534,-85.627 981.6315,-86.181"/>
</g>
<!-- Node10 -->
<g id="node11" class="node">
<title>Node10</title>
<g id="a_node11"><a xlink:href="../../d6/d0c/ntv2enums_8h.html" target="_top" xlink:title="Enumerations for controlling NTV2 devices. ">
<polygon fill="#ffffff" stroke="#000000" points="164.5,-112.5 164.5,-131.5 237.5,-131.5 237.5,-112.5 164.5,-112.5"/>
<text text-anchor="middle" x="201" y="-119.5" font-family="Helvetica,sans-Serif" font-size="10.00" fill="#000000">ntv2enums.h</text>
</a>
</g>
</g>
<!-- Node5&#45;&gt;Node10 -->
<g id="edge10" class="edge">
<title>Node5&#45;&gt;Node10</title>
<path fill="none" stroke="#191970" d="M405.8503,-285.3446C360.5599,-278.0366 279.4753,-262.7521 257,-244 225.0726,-217.3615 210.4475,-168.5948 204.5153,-141.4833"/>
<polygon fill="#191970" stroke="#191970" points="207.9361,-140.7403 202.5359,-131.625 201.073,-142.1184 207.9361,-140.7403"/>
</g>
<!-- Node12 -->
<g id="node13" class="node">
<title>Node12</title>
<g id="a_node13"><a xlink:href="../../d9/d61/ntv2videodefines_8h.html" target="_top" xlink:title="Declares common video macros and structs used in the SDK. ">
<polygon fill="#ffffff" stroke="#000000" points="905,-224.5 905,-243.5 1003,-243.5 1003,-224.5 905,-224.5"/>
<text text-anchor="middle" x="954" y="-231.5" font-family="Helvetica,sans-Serif" font-size="10.00" fill="#000000">ntv2videodefines.h</text>
</a>
</g>
</g>
<!-- Node5&#45;&gt;Node12 -->
<g id="edge15" class="edge">
<title>Node5&#45;&gt;Node12</title>
<path fill="none" stroke="#191970" d="M468.1764,-286.6231C552.2437,-277.5171 784.6685,-252.3415 894.7359,-240.4193"/>
<polygon fill="#191970" stroke="#191970" points="895.4316,-243.8645 904.9965,-239.3079 894.6778,-236.9052 895.4316,-243.8645"/>
</g>
<!-- Node13 -->
<g id="node14" class="node">
<title>Node13</title>
<g id="a_node14"><a xlink:href="../../d4/dd7/ntv2publicinterface_8h.html" target="_top" xlink:title="Declares enums and structs used by all platform drivers and the SDK. ">
<polygon fill="#ffffff" stroke="#000000" points="543.5,-168.5 543.5,-187.5 650.5,-187.5 650.5,-168.5 543.5,-168.5"/>
<text text-anchor="middle" x="597" y="-175.5" font-family="Helvetica,sans-Serif" font-size="10.00" fill="#000000">ntv2publicinterface.h</text>
</a>
</g>
</g>
<!-- Node5&#45;&gt;Node13 -->
<g id="edge17" class="edge">
<title>Node5&#45;&gt;Node13</title>
<path fill="none" stroke="#191970" d="M468.0505,-284.2595C506.6869,-276.4791 569.4827,-261.527 585,-244 595.9648,-231.6151 598.4566,-212.657 598.5021,-198.2317"/>
<polygon fill="#191970" stroke="#191970" points="601.9859,-197.7148 598.1293,-187.8469 594.9904,-197.9661 601.9859,-197.7148"/>
</g>
<!-- Node5&#45;&gt;Node14 -->
<g id="edge41" class="edge">
<title>Node5&#45;&gt;Node14</title>
<path fill="none" stroke="#191970" d="M405.8863,-285.2892C327.1805,-272.7565 123.1377,-236.2331 77,-188 65.129,-175.5899 60.2819,-156.3666 58.3145,-141.8611"/>
<polygon fill="#191970" stroke="#191970" points="61.7934,-141.4752 57.3027,-131.8792 54.8291,-142.1812 61.7934,-141.4752"/>
</g>
<!-- Node21 -->
<g id="node22" class="node">
<title>Node21</title>
<g id="a_node22"><a xlink:href="../../dc/df4/ntv2formatdescriptor_8h.html" target="_top" xlink:title="Declares the NTV2FormatDescriptor class. ">
<polygon fill="#ffffff" stroke="#000000" points="266.5,-224.5 266.5,-243.5 379.5,-243.5 379.5,-224.5 266.5,-224.5"/>
<text text-anchor="middle" x="323" y="-231.5" font-family="Helvetica,sans-Serif" font-size="10.00" fill="#000000">ntv2formatdescriptor.h</text>
</a>
</g>
</g>
<!-- Node5&#45;&gt;Node21 -->
<g id="edge31" class="edge">
<title>Node5&#45;&gt;Node21</title>
<path fill="none" stroke="#191970" d="M417.4027,-280.3733C399.2669,-271.4644 372.0865,-258.1127 351.5413,-248.0203"/>
<polygon fill="#191970" stroke="#191970" points="352.8603,-244.7688 342.3416,-243.5011 349.7739,-251.0517 352.8603,-244.7688"/>
</g>
<!-- Node22 -->
<g id="node23" class="node">
<title>Node22</title>
<g id="a_node23"><a xlink:href="../../de/d26/ntv2m31enums_8h.html" target="_top" xlink:title="ntv2m31enums.h">
<polygon fill="#ffffff" stroke="#000000" points="484,-224.5 484,-243.5 576,-243.5 576,-224.5 484,-224.5"/>
<text text-anchor="middle" x="530" y="-231.5" font-family="Helvetica,sans-Serif" font-size="10.00" fill="#000000">ntv2m31enums.h</text>
</a>
</g>
</g>
<!-- Node5&#45;&gt;Node22 -->
<g id="edge39" class="edge">
<title>Node5&#45;&gt;Node22</title>
<path fill="none" stroke="#191970" d="M453.1994,-280.2455C467.6018,-271.5731 488.8732,-258.7645 505.3799,-248.825"/>
<polygon fill="#191970" stroke="#191970" points="507.225,-251.7996 513.9863,-243.6427 503.614,-245.8028 507.225,-251.7996"/>
</g>
<!-- Node8 -->
<g id="node9" class="node">
<title>Node8</title>
<g id="a_node9"><a xlink:href="../../db/d40/ntv2deprecate_8h.html" target="_top" xlink:title="Deprecation control macros. ">
<polygon fill="#ffffff" stroke="#000000" points="1229,-.5 1229,-19.5 1315,-19.5 1315,-.5 1229,-.5"/>
<text text-anchor="middle" x="1272" y="-7.5" font-family="Helvetica,sans-Serif" font-size="10.00" fill="#000000">ntv2deprecate.h</text>
</a>
</g>
</g>
<!-- Node7&#45;&gt;Node8 -->
<g id="edge8" class="edge">
<title>Node7&#45;&gt;Node8</title>
<path fill="none" stroke="#191970" d="M1010.0787,-60.06C1059.8848,-50.5408 1158.1618,-31.7575 1219.152,-20.1006"/>
<polygon fill="#191970" stroke="#191970" points="1219.8114,-23.5381 1228.9765,-18.2229 1218.4972,-16.6625 1219.8114,-23.5381"/>
</g>
<!-- Node9 -->
<g id="node10" class="node">
<title>Node9</title>
<polygon fill="#ffffff" stroke="#bfbfbf" points="1023.5,-.5 1023.5,-19.5 1072.5,-19.5 1072.5,-.5 1023.5,-.5"/>
<text text-anchor="middle" x="1048" y="-7.5" font-family="Helvetica,sans-Serif" font-size="10.00" fill="#000000">stdint.h</text>
</g>
<!-- Node7&#45;&gt;Node9 -->
<g id="edge9" class="edge">
<title>Node7&#45;&gt;Node9</title>
<path fill="none" stroke="#191970" d="M991.0189,-56.2455C1001.2098,-47.9746 1016.0362,-35.9416 1028.0107,-26.2232"/>
<polygon fill="#191970" stroke="#191970" points="1030.5598,-28.662 1036.1188,-19.6427 1026.1486,-23.2268 1030.5598,-28.662"/>
</g>
<!-- Node10&#45;&gt;Node7 -->
<g id="edge11" class="edge">
<title>Node10&#45;&gt;Node7</title>
<path fill="none" stroke="#191970" d="M237.6738,-119.0339C263.0367,-117.0018 297.5635,-114.2736 328,-112 558.2558,-94.8001 834.4556,-75.8343 937.5411,-68.8135"/>
<polygon fill="#191970" stroke="#191970" points="938.0861,-72.2846 947.8253,-68.1136 937.6107,-65.3007 938.0861,-72.2846"/>
</g>
<!-- Node11 -->
<g id="node12" class="node">
<title>Node11</title>
<g id="a_node12"><a xlink:href="../../d6/db1/ntv2version_8h.html" target="_top" xlink:title="Defines for the NTV2 SDK version number, used by ajantv2/includes/ntv2enums.h. See the ajantv2/includ...">
<polygon fill="#ffffff" stroke="#000000" points="163.5,-56.5 163.5,-75.5 238.5,-75.5 238.5,-56.5 163.5,-56.5"/>
<text text-anchor="middle" x="201" y="-63.5" font-family="Helvetica,sans-Serif" font-size="10.00" fill="#000000">ntv2version.h</text>
</a>
</g>
</g>
<!-- Node10&#45;&gt;Node11 -->
<g id="edge12" class="edge">
<title>Node10&#45;&gt;Node11</title>
<path fill="none" stroke="#191970" d="M201,-112.2455C201,-104.9382 201,-94.6944 201,-85.7046"/>
<polygon fill="#191970" stroke="#191970" points="204.5001,-85.6426 201,-75.6427 197.5001,-85.6427 204.5001,-85.6426"/>
</g>
<!-- Node11&#45;&gt;Node2 -->
<g id="edge14" class="edge">
<title>Node11&#45;&gt;Node2</title>
<path fill="none" stroke="#191970" d="M219.1154,-56.2455C235.445,-47.4527 259.671,-34.4079 278.2339,-24.4125"/>
<polygon fill="#191970" stroke="#191970" points="279.9468,-27.4654 287.0922,-19.6427 276.6281,-21.3021 279.9468,-27.4654"/>
</g>
<!-- Node11&#45;&gt;Node6 -->
<g id="edge13" class="edge">
<title>Node11&#45;&gt;Node6</title>
<path fill="none" stroke="#191970" d="M182.8846,-56.2455C166.555,-47.4527 142.329,-34.4079 123.7661,-24.4125"/>
<polygon fill="#191970" stroke="#191970" points="125.3719,-21.3021 114.9078,-19.6427 122.0532,-27.4654 125.3719,-21.3021"/>
</g>
<!-- Node12&#45;&gt;Node7 -->
<g id="edge16" class="edge">
<title>Node12&#45;&gt;Node7</title>
<path fill="none" stroke="#191970" d="M958.9943,-224.4989C967.9513,-206.8616 986.4245,-167.6089 993,-132 995.9203,-116.1854 991.6813,-98.3501 987.1223,-85.2105"/>
<polygon fill="#191970" stroke="#191970" points="990.368,-83.8989 983.5282,-75.8077 983.8294,-86.3983 990.368,-83.8989"/>
</g>
<!-- Node13&#45;&gt;Node2 -->
<g id="edge24" class="edge">
<title>Node13&#45;&gt;Node2</title>
<path fill="none" stroke="#191970" d="M574.4278,-168.3493C554.3107,-159.5271 524.2344,-145.7894 499,-132 435.2205,-97.1474 363.6809,-49.9134 327.932,-25.7148"/>
<polygon fill="#191970" stroke="#191970" points="329.4747,-22.5314 319.2368,-19.8046 325.5397,-28.3207 329.4747,-22.5314"/>
</g>
<!-- Node13&#45;&gt;Node3 -->
<g id="edge23" class="edge">
<title>Node13&#45;&gt;Node3</title>
<path fill="none" stroke="#191970" d="M561.704,-168.4501C527.5042,-159.1832 474.1781,-144.6981 428,-132 426.7335,-131.6517 425.442,-131.296 424.1376,-130.9361"/>
<polygon fill="#191970" stroke="#191970" points="424.651,-127.4467 414.0797,-128.1528 422.784,-134.1932 424.651,-127.4467"/>
</g>
<!-- Node13&#45;&gt;Node6 -->
<g id="edge28" class="edge">
<title>Node13&#45;&gt;Node6</title>
<path fill="none" stroke="#191970" d="M564.0307,-168.4539C536.145,-160.0014 495.3585,-146.7423 461,-132 443.4611,-124.4745 441.1827,-117.7995 423,-112 308.0826,-75.3461 260.1007,-133.3774 154,-76 133.7075,-65.0262 117.3778,-43.7334 107.4827,-28.2935"/>
<polygon fill="#191970" stroke="#191970" points="110.3668,-26.3002 102.1752,-19.5808 104.3886,-29.9419 110.3668,-26.3002"/>
</g>
<!-- Node13&#45;&gt;Node7 -->
<g id="edge18" class="edge">
<title>Node13&#45;&gt;Node7</title>
<path fill="none" stroke="#191970" d="M635.9602,-168.4844C667.504,-160.2779 712.81,-147.3448 751,-132 769.0752,-124.7374 771.7438,-118.7946 790,-112 839.5357,-93.5637 899.1468,-80.4764 937.9976,-73.0888"/>
<polygon fill="#191970" stroke="#191970" points="938.7038,-76.5176 947.8936,-71.2451 937.4217,-69.636 938.7038,-76.5176"/>
</g>
<!-- Node13&#45;&gt;Node10 -->
<g id="edge19" class="edge">
<title>Node13&#45;&gt;Node10</title>
<path fill="none" stroke="#191970" d="M543.1816,-170.3893C465.0182,-159.3359 321.3811,-139.0236 247.5365,-128.5809"/>
<polygon fill="#191970" stroke="#191970" points="247.9855,-125.1097 237.594,-127.1749 247.0053,-132.0407 247.9855,-125.1097"/>
</g>
<!-- Node13&#45;&gt;Node14 -->
<g id="edge20" class="edge">
<title>Node13&#45;&gt;Node14</title>
<path fill="none" stroke="#191970" d="M543.2485,-172.4258C433.9499,-161.0911 188.2098,-135.6069 94.3819,-125.8766"/>
<polygon fill="#191970" stroke="#191970" points="94.5348,-122.3738 84.2271,-124.8236 93.8127,-129.3365 94.5348,-122.3738"/>
</g>
<!-- Node15 -->
<g id="node16" class="node">
<title>Node15</title>
<polygon fill="#ffffff" stroke="#bfbfbf" points="867,-112.5 867,-131.5 897,-131.5 897,-112.5 867,-112.5"/>
<text text-anchor="middle" x="882" y="-119.5" font-family="Helvetica,sans-Serif" font-size="10.00" fill="#000000">set</text>
</g>
<!-- Node13&#45;&gt;Node15 -->
<g id="edge21" class="edge">
<title>Node13&#45;&gt;Node15</title>
<path fill="none" stroke="#191970" d="M650.5255,-172.0715C701.6581,-165.6277 780.8502,-153.6125 857.1721,-131.7264"/>
<polygon fill="#191970" stroke="#191970" points="858.3337,-135.0333 866.9468,-128.8637 856.3662,-128.3155 858.3337,-135.0333"/>
</g>
<!-- Node16 -->
<g id="node17" class="node">
<title>Node16</title>
<polygon fill="#ffffff" stroke="#bfbfbf" points="915.5,-112.5 915.5,-131.5 950.5,-131.5 950.5,-112.5 915.5,-112.5"/>
<text text-anchor="middle" x="933" y="-119.5" font-family="Helvetica,sans-Serif" font-size="10.00" fill="#000000">map</text>
</g>
<!-- Node13&#45;&gt;Node16 -->
<g id="edge22" class="edge">
<title>Node13&#45;&gt;Node16</title>
<path fill="none" stroke="#191970" d="M650.7046,-173.4061C710.8113,-167.5109 811.0713,-155.423 905.7181,-131.5924"/>
<polygon fill="#191970" stroke="#191970" points="906.6318,-134.9714 915.4478,-129.0954 904.8916,-128.1911 906.6318,-134.9714"/>
</g>
<!-- Node17 -->
<g id="node18" class="node">
<title>Node17</title>
<polygon fill="#ffffff" stroke="#bfbfbf" points="508,-112.5 508,-131.5 558,-131.5 558,-112.5 508,-112.5"/>
<text text-anchor="middle" x="533" y="-119.5" font-family="Helvetica,sans-Serif" font-size="10.00" fill="#000000">iomanip</text>
</g>
<!-- Node13&#45;&gt;Node17 -->
<g id="edge25" class="edge">
<title>Node13&#45;&gt;Node17</title>
<path fill="none" stroke="#191970" d="M585.8521,-168.2455C576.4913,-160.0549 562.9142,-148.1749 551.8651,-138.5069"/>
<polygon fill="#191970" stroke="#191970" points="553.8508,-135.5937 544.0202,-131.6427 549.2412,-140.8618 553.8508,-135.5937"/>
</g>
<!-- Node18 -->
<g id="node19" class="node">
<title>Node18</title>
<polygon fill="#ffffff" stroke="#bfbfbf" points="576.5,-112.5 576.5,-131.5 617.5,-131.5 617.5,-112.5 576.5,-112.5"/>
<text text-anchor="middle" x="597" y="-119.5" font-family="Helvetica,sans-Serif" font-size="10.00" fill="#000000">bitset</text>
</g>
<!-- Node13&#45;&gt;Node18 -->
<g id="edge26" class="edge">
<title>Node13&#45;&gt;Node18</title>
<path fill="none" stroke="#191970" d="M597,-168.2455C597,-160.9382 597,-150.6944 597,-141.7046"/>
<polygon fill="#191970" stroke="#191970" points="600.5001,-141.6426 597,-131.6427 593.5001,-141.6427 600.5001,-141.6426"/>
</g>
<!-- Node13&#45;&gt;Node19 -->
<g id="edge27" class="edge">
<title>Node13&#45;&gt;Node19</title>
<path fill="none" stroke="#191970" d="M636.6423,-168.4348C674.7114,-159.2173 733.8269,-144.8208 785,-132 786.4408,-131.639 787.9112,-131.2691 789.3962,-130.8941"/>
<polygon fill="#191970" stroke="#191970" points="790.423,-134.2445 799.2529,-128.3892 788.6989,-127.4601 790.423,-134.2445"/>
</g>
<!-- Node20 -->
<g id="node21" class="node">
<title>Node20</title>
<g id="a_node21"><a xlink:href="../../da/df0/ntv2virtualregisters_8h.html" target="_top" xlink:title="Declares enums for virtual registers used in all platform drivers and the SDK. ">
<polygon fill="#ffffff" stroke="#000000" points="635.5,-112.5 635.5,-131.5 742.5,-131.5 742.5,-112.5 635.5,-112.5"/>
<text text-anchor="middle" x="689" y="-119.5" font-family="Helvetica,sans-Serif" font-size="10.00" fill="#000000">ntv2virtualregisters.h</text>
</a>
</g>
</g>
<!-- Node13&#45;&gt;Node20 -->
<g id="edge29" class="edge">
<title>Node13&#45;&gt;Node20</title>
<path fill="none" stroke="#191970" d="M613.0252,-168.2455C627.1408,-159.6534 647.9263,-147.0014 664.1899,-137.1018"/>
<polygon fill="#191970" stroke="#191970" points="666.4363,-139.8319 673.1585,-131.6427 662.7966,-133.8525 666.4363,-139.8319"/>
</g>
<!-- Node20&#45;&gt;Node7 -->
<g id="edge30" class="edge">
<title>Node20&#45;&gt;Node7</title>
<path fill="none" stroke="#191970" d="M738.5233,-112.4369C794.7897,-101.5716 885.5848,-84.0388 938.0307,-73.9113"/>
<polygon fill="#191970" stroke="#191970" points="938.832,-77.3213 947.9869,-71.9887 937.5047,-70.4483 938.832,-77.3213"/>
</g>
<!-- Node21&#45;&gt;Node2 -->
<g id="edge36" class="edge">
<title>Node21&#45;&gt;Node2</title>
<path fill="none" stroke="#191970" d="M318.7693,-224.4033C311.1824,-206.6107 295.539,-167.1148 290,-132 288.0193,-119.4435 286.9453,-81.6719 291,-56 292.4126,-47.0561 295.1415,-37.4332 297.8177,-29.3123"/>
<polygon fill="#191970" stroke="#191970" points="301.1872,-30.2801 301.1902,-19.6852 294.5808,-27.9657 301.1872,-30.2801"/>
</g>
<!-- Node21&#45;&gt;Node3 -->
<g id="edge38" class="edge">
<title>Node21&#45;&gt;Node3</title>
<path fill="none" stroke="#191970" d="M330.4391,-224.3701C337.3746,-215.2252 347.8448,-200.9839 356,-188 365.7364,-172.4986 375.6097,-154.1728 382.5476,-140.7699"/>
<polygon fill="#191970" stroke="#191970" points="385.7954,-142.1059 387.23,-131.6086 379.5623,-138.9201 385.7954,-142.1059"/>
</g>
<!-- Node21&#45;&gt;Node6 -->
<g id="edge32" class="edge">
<title>Node21&#45;&gt;Node6</title>
<path fill="none" stroke="#191970" d="M299.1284,-224.4091C263.8724,-209.2571 197.4795,-176.8307 155,-132 126.6299,-102.0596 109.8658,-55.6758 102.1511,-29.5737"/>
<polygon fill="#191970" stroke="#191970" points="105.4623,-28.4188 99.3914,-19.7359 98.7225,-30.3096 105.4623,-28.4188"/>
</g>
<!-- Node21&#45;&gt;Node7 -->
<g id="edge33" class="edge">
<title>Node21&#45;&gt;Node7</title>
<path fill="none" stroke="#191970" d="M322.6814,-224.4294C322.4769,-200.9107 325.5717,-140.1589 361,-112 405.9999,-76.2335 806.5599,-68.1257 937.6657,-66.423"/>
<polygon fill="#191970" stroke="#191970" points="937.7562,-69.9223 947.712,-66.2984 937.6693,-62.9228 937.7562,-69.9223"/>
</g>
<!-- Node21&#45;&gt;Node10 -->
<g id="edge34" class="edge">
<title>Node21&#45;&gt;Node10</title>
<path fill="none" stroke="#191970" d="M312.5983,-224.4509C291.8,-205.3574 244.8653,-162.2697 218.9801,-138.5063"/>
<polygon fill="#191970" stroke="#191970" points="221.1088,-135.7093 211.3753,-131.5249 216.3749,-140.8659 221.1088,-135.7093"/>
</g>
<!-- Node21&#45;&gt;Node13 -->
<g id="edge35" class="edge">
<title>Node21&#45;&gt;Node13</title>
<path fill="none" stroke="#191970" d="M369.791,-224.4369C416.9795,-214.7925 489.872,-199.8948 540.3124,-189.5858"/>
<polygon fill="#191970" stroke="#191970" points="541.3054,-192.9553 550.402,-187.5237 539.9037,-186.097 541.3054,-192.9553"/>
</g>
<!-- Node21&#45;&gt;Node14 -->
<g id="edge37" class="edge">
<title>Node21&#45;&gt;Node14</title>
<path fill="none" stroke="#191970" d="M266.3698,-227.349C209.4923,-219.7929 126.5785,-206.1206 100,-188 83.291,-176.6082 71.5379,-156.3552 64.5905,-141.2791"/>
<polygon fill="#191970" stroke="#191970" points="67.7023,-139.6548 60.5466,-131.8415 61.2681,-142.4117 67.7023,-139.6548"/>
</g>
<!-- Node23&#45;&gt;Node4 -->
<g id="edge44" class="edge">
<title>Node23&#45;&gt;Node4</title>
<path fill="none" stroke="#191970" d="M403.2126,-339.8682C358.1015,-331.5453 275.7759,-315.8806 206,-300 204.7349,-299.7121 203.4481,-299.4133 202.1496,-299.1068"/>
<polygon fill="#191970" stroke="#191970" points="202.6715,-295.6314 192.1264,-296.6569 201.0094,-302.4312 202.6715,-295.6314"/>
</g>
<!-- Node23&#45;&gt;Node5 -->
<g id="edge49" class="edge">
<title>Node23&#45;&gt;Node5</title>
<path fill="none" stroke="#191970" d="M437,-336.2455C437,-328.9382 437,-318.6944 437,-309.7046"/>
<polygon fill="#191970" stroke="#191970" points="440.5001,-309.6426 437,-299.6427 433.5001,-309.6427 440.5001,-309.6426"/>
</g>
<!-- Node23&#45;&gt;Node6 -->
<g id="edge46" class="edge">
<title>Node23&#45;&gt;Node6</title>
<path fill="none" stroke="#191970" d="M403.4328,-336.533C371.2071,-327.3866 321.1903,-313.0397 278,-300 238.3029,-288.0149 136.0736,-264.45 100,-244 67.4098,-225.5247 58.6735,-218.5568 37,-188 3.0583,-140.1467 .5178,-102.7225 36,-56 45.333,-43.7104 58.7819,-33.0904 70.678,-25.1607"/>
<polygon fill="#191970" stroke="#191970" points="72.8113,-27.9522 79.3784,-19.6381 69.0599,-22.0422 72.8113,-27.9522"/>
</g>
<!-- Node23&#45;&gt;Node7 -->
<g id="edge45" class="edge">
<title>Node23&#45;&gt;Node7</title>
<path fill="none" stroke="#191970" d="M470.7418,-345.4259C583.1718,-342.7342 941.9051,-327.6235 1012,-244 1023.7091,-230.031 1065.5733,-304.2754 1007,-112 1003.9516,-101.9931 998.219,-91.9462 992.731,-83.8059"/>
<polygon fill="#191970" stroke="#191970" points="995.4671,-81.6154 986.7948,-75.5291 989.7788,-85.6951 995.4671,-81.6154"/>
</g>
<!-- Node23&#45;&gt;Node10 -->
<g id="edge47" class="edge">
<title>Node23&#45;&gt;Node10</title>
<path fill="none" stroke="#191970" d="M403.8658,-336.414C360.4789,-322.3985 284.2789,-292.5671 236,-244 208.5426,-216.3786 202.3157,-168.7419 201.0918,-141.8952"/>
<polygon fill="#191970" stroke="#191970" points="204.5876,-141.6859 200.8262,-131.7812 197.59,-141.8697 204.5876,-141.6859"/>
</g>
<!-- Node23&#45;&gt;Node13 -->
<g id="edge48" class="edge">
<title>Node23&#45;&gt;Node13</title>
<path fill="none" stroke="#191970" d="M470.6061,-336.4895C510.6127,-323.1561 575.5766,-294.6661 604,-244 611.9966,-229.7457 608.9827,-211.0253 604.7047,-197.164"/>
<polygon fill="#191970" stroke="#191970" points="607.9802,-195.9282 601.3483,-187.6657 601.3801,-198.2605 607.9802,-195.9282"/>
</g>
<!-- Node24&#45;&gt;Node15 -->
<g id="edge53" class="edge">
<title>Node24&#45;&gt;Node15</title>
<path fill="none" stroke="#191970" d="M1159.7498,-224.4828C1131.489,-215.4751 1088.1943,-201.3767 1051,-188 986.3827,-164.7607 970.8796,-157.1963 907,-132 906.7989,-131.9207 906.5969,-131.8409 906.3941,-131.7609"/>
<polygon fill="#191970" stroke="#191970" points="907.6472,-128.4927 897.0615,-128.0518 905.0618,-134.9977 907.6472,-128.4927"/>
</g>
<!-- Node25 -->
<g id="node26" class="node">
<title>Node25</title>
<polygon fill="#ffffff" stroke="#bfbfbf" points="1225,-168.5 1225,-187.5 1271,-187.5 1271,-168.5 1225,-168.5"/>
<text text-anchor="middle" x="1248" y="-175.5" font-family="Helvetica,sans-Serif" font-size="10.00" fill="#000000">stdio.h</text>
</g>
<!-- Node24&#45;&gt;Node25 -->
<g id="edge51" class="edge">
<title>Node24&#45;&gt;Node25</title>
<path fill="none" stroke="#191970" d="M1200.1028,-224.2455C1208.5028,-216.1352 1220.6494,-204.4075 1230.6084,-194.7919"/>
<polygon fill="#191970" stroke="#191970" points="1233.25,-197.1066 1238.0129,-187.6427 1228.3878,-192.0707 1233.25,-197.1066"/>
</g>
<!-- Node26 -->
<g id="node27" class="node">
<title>Node26</title>
<polygon fill="#ffffff" stroke="#bfbfbf" points="1289,-168.5 1289,-187.5 1341,-187.5 1341,-168.5 1289,-168.5"/>
<text text-anchor="middle" x="1315" y="-175.5" font-family="Helvetica,sans-Serif" font-size="10.00" fill="#000000">sstream</text>
</g>
<!-- Node24&#45;&gt;Node26 -->
<g id="edge52" class="edge">
<title>Node24&#45;&gt;Node26</title>
<path fill="none" stroke="#191970" d="M1211.4883,-224.3733C1231.644,-215.3435 1261.988,-201.7494 1284.618,-191.6111"/>
<polygon fill="#191970" stroke="#191970" points="1286.0971,-194.7838 1293.7921,-187.5011 1283.2351,-188.3955 1286.0971,-194.7838"/>
</g>
<!-- Node27 -->
<g id="node28" class="node">
<title>Node27</title>
<g id="a_node28"><a xlink:href="../../d4/d79/public_8h.html" target="_top" xlink:title="Master header for the ajabase library. ">
<polygon fill="#ffffff" stroke="#000000" points="1359,-168.5 1359,-187.5 1487,-187.5 1487,-168.5 1359,-168.5"/>
<text text-anchor="middle" x="1423" y="-175.5" font-family="Helvetica,sans-Serif" font-size="10.00" fill="#000000">ajabase/common/public.h</text>
</a>
</g>
</g>
<!-- Node24&#45;&gt;Node27 -->
<g id="edge54" class="edge">
<title>Node24&#45;&gt;Node27</title>
<path fill="none" stroke="#191970" d="M1229.7894,-224.4369C1269.498,-214.8932 1330.6104,-200.2052 1373.4455,-189.9101"/>
<polygon fill="#191970" stroke="#191970" points="1374.4695,-193.2637 1383.3747,-187.5237 1372.8337,-186.4575 1374.4695,-193.2637"/>
</g>
<!-- Node31 -->
<g id="node32" class="node">
<title>Node31</title>
<g id="a_node32"><a xlink:href="../../d0/db4/debugshare_8h.html" target="_top" xlink:title="Declares the constants used for sharing debug messages. These structures are used to gather debug mes...">
<polygon fill="#ffffff" stroke="#000000" points="1059.5,-168.5 1059.5,-187.5 1206.5,-187.5 1206.5,-168.5 1059.5,-168.5"/>
<text text-anchor="middle" x="1133" y="-175.5" font-family="Helvetica,sans-Serif" font-size="10.00" fill="#000000">ajabase/system/debugshare.h</text>
</a>
</g>
</g>
<!-- Node24&#45;&gt;Node31 -->
<g id="edge62" class="edge">
<title>Node24&#45;&gt;Node31</title>
<path fill="none" stroke="#191970" d="M1180.0714,-224.2455C1171.8162,-216.1352 1159.8791,-204.4075 1150.0918,-194.7919"/>
<polygon fill="#191970" stroke="#191970" points="1152.4011,-192.1542 1142.8149,-187.6427 1147.4954,-197.1476 1152.4011,-192.1542"/>
</g>
<!-- Node27&#45;&gt;Node2 -->
<g id="edge56" class="edge">
<title>Node27&#45;&gt;Node2</title>
<path fill="none" stroke="#191970" d="M1417.7594,-168.0525C1409.3817,-153.2197 1391.4949,-125.5978 1368,-112 1305.5181,-75.8383 1119.6937,-64.4658 1048,-56 773.0839,-23.537 438.0624,-13.1945 335.9758,-10.6823"/>
<polygon fill="#191970" stroke="#191970" points="335.8393,-7.1782 325.7585,-10.4382 335.672,-14.1762 335.8393,-7.1782"/>
</g>
<!-- Node27&#45;&gt;Node3 -->
<g id="edge58" class="edge">
<title>Node27&#45;&gt;Node3</title>
<path fill="none" stroke="#191970" d="M1358.9445,-168.8791C1355.9236,-168.5579 1352.9305,-168.2621 1350,-168 972.9448,-134.274 876.6925,-157.6213 499,-132 473.8398,-130.2932 445.4199,-127.6011 424.1962,-125.4399"/>
<polygon fill="#191970" stroke="#191970" points="424.4125,-121.9437 414.1057,-124.3972 423.6929,-128.9066 424.4125,-121.9437"/>
</g>
<!-- Node27&#45;&gt;Node16 -->
<g id="edge59" class="edge">
<title>Node27&#45;&gt;Node16</title>
<path fill="none" stroke="#191970" d="M1358.9183,-169.1247C1355.9044,-168.7378 1352.9199,-168.361 1350,-168 1203.8106,-149.927 1028.349,-131.7006 961.1035,-124.8426"/>
<polygon fill="#191970" stroke="#191970" points="961.2055,-121.335 950.9026,-123.805 960.4971,-128.2991 961.2055,-121.335"/>
</g>
<!-- Node28 -->
<g id="node29" class="node">
<title>Node28</title>
<g id="a_node29"><a xlink:href="../../db/db5/export_8h.html" target="_top" xlink:title="Declares system&#45;dependent import/export macros and libraries. ">
<polygon fill="#ffffff" stroke="#000000" points="1229.5,-112.5 1229.5,-131.5 1358.5,-131.5 1358.5,-112.5 1229.5,-112.5"/>
<text text-anchor="middle" x="1294" y="-119.5" font-family="Helvetica,sans-Serif" font-size="10.00" fill="#000000">ajabase/common/export.h</text>
</a>
</g>
</g>
<!-- Node27&#45;&gt;Node28 -->
<g id="edge55" class="edge">
<title>Node27&#45;&gt;Node28</title>
<path fill="none" stroke="#191970" d="M1400.8241,-168.3733C1380.0234,-159.3435 1348.7083,-145.7494 1325.3542,-135.6111"/>
<polygon fill="#191970" stroke="#191970" points="1326.4532,-132.2727 1315.8865,-131.5011 1323.6657,-138.6938 1326.4532,-132.2727"/>
</g>
<!-- Node29 -->
<g id="node30" class="node">
<title>Node29</title>
<polygon fill="#ffffff" stroke="#bfbfbf" points="1453.5,-112.5 1453.5,-131.5 1482.5,-131.5 1482.5,-112.5 1453.5,-112.5"/>
<text text-anchor="middle" x="1468" y="-119.5" font-family="Helvetica,sans-Serif" font-size="10.00" fill="#000000">list</text>
</g>
<!-- Node27&#45;&gt;Node29 -->
<g id="edge57" class="edge">
<title>Node27&#45;&gt;Node29</title>
<path fill="none" stroke="#191970" d="M1430.8384,-168.2455C1437.162,-160.3761 1446.2224,-149.101 1453.8136,-139.6542"/>
<polygon fill="#191970" stroke="#191970" points="1456.7158,-141.6302 1460.2514,-131.6427 1451.2592,-137.2454 1456.7158,-141.6302"/>
</g>
<!-- Node30 -->
<g id="node31" class="node">
<title>Node30</title>
<g id="a_node31"><a xlink:href="../../d9/d49/types_8h.html" target="_top" xlink:title="Declares common types used in the ajabase library. ">
<polygon fill="#ffffff" stroke="#000000" points="1279,-56.5 1279,-75.5 1405,-75.5 1405,-56.5 1279,-56.5"/>
<text text-anchor="middle" x="1342" y="-63.5" font-family="Helvetica,sans-Serif" font-size="10.00" fill="#000000">ajabase/common/types.h</text>
</a>
</g>
</g>
<!-- Node27&#45;&gt;Node30 -->
<g id="edge60" class="edge">
<title>Node27&#45;&gt;Node30</title>
<path fill="none" stroke="#191970" d="M1421.5729,-168.2424C1419.1966,-154.6076 1413.407,-129.5578 1401,-112 1392.2794,-99.659 1379.2994,-89.0343 1367.7326,-81.1148"/>
<polygon fill="#191970" stroke="#191970" points="1369.5481,-78.1205 1359.2568,-75.6024 1365.7316,-83.9886 1369.5481,-78.1205"/>
</g>
<!-- Node30&#45;&gt;Node8 -->
<g id="edge61" class="edge">
<title>Node30&#45;&gt;Node8</title>
<path fill="none" stroke="#191970" d="M1329.8069,-56.2455C1319.3679,-47.8943 1304.1345,-35.7076 1291.926,-25.9408"/>
<polygon fill="#191970" stroke="#191970" points="1294.0485,-23.1566 1284.0533,-19.6427 1289.6756,-28.6227 1294.0485,-23.1566"/>
</g>
<!-- Node31&#45;&gt;Node2 -->
<g id="edge66" class="edge">
<title>Node31&#45;&gt;Node2</title>
<path fill="none" stroke="#191970" d="M1127.6255,-168.4287C1113.5066,-144.3566 1072.72,-81.4092 1019,-56 956.672,-26.5193 465.3807,-13.5742 336.0895,-10.6577"/>
<polygon fill="#191970" stroke="#191970" points="335.8019,-7.1506 325.7268,-10.4281 335.6468,-14.1488 335.8019,-7.1506"/>
</g>
<!-- Node31&#45;&gt;Node3 -->
<g id="edge67" class="edge">
<title>Node31&#45;&gt;Node3</title>
<path fill="none" stroke="#191970" d="M1059.2625,-173.1486C941.0048,-165.2559 701.6393,-148.8186 499,-132 473.8684,-129.9141 445.4468,-127.2432 424.2153,-125.1865"/>
<polygon fill="#191970" stroke="#191970" points="424.4128,-121.6892 414.1204,-124.2024 423.7336,-128.6562 424.4128,-121.6892"/>
</g>
<!-- Node31&#45;&gt;Node9 -->
<g id="edge65" class="edge">
<title>Node31&#45;&gt;Node9</title>
<path fill="none" stroke="#191970" d="M1133.1108,-168.3108C1132.9231,-146.5249 1129.9804,-92.7133 1107,-56 1099.0922,-43.3666 1086.4193,-32.8165 1074.842,-25.0204"/>
<polygon fill="#191970" stroke="#191970" points="1076.6195,-22.0032 1066.2993,-19.6065 1072.8724,-27.9159 1076.6195,-22.0032"/>
</g>
<!-- Node31&#45;&gt;Node28 -->
<g id="edge63" class="edge">
<title>Node31&#45;&gt;Node28</title>
<path fill="none" stroke="#191970" d="M1160.6769,-168.3733C1187.3328,-159.1016 1227.8238,-145.0178 1257.1884,-134.804"/>
<polygon fill="#191970" stroke="#191970" points="1258.3891,-138.0921 1266.6843,-131.5011 1256.0895,-131.4807 1258.3891,-138.0921"/>
</g>
<!-- Node32 -->
<g id="node33" class="node">
<title>Node32</title>
<polygon fill="#ffffff" stroke="#bfbfbf" points="1159,-112.5 1159,-131.5 1211,-131.5 1211,-112.5 1159,-112.5"/>
<text text-anchor="middle" x="1185" y="-119.5" font-family="Helvetica,sans-Serif" font-size="10.00" fill="#000000">stddef.h</text>
</g>
<!-- Node31&#45;&gt;Node32 -->
<g id="edge64" class="edge">
<title>Node31&#45;&gt;Node32</title>
<path fill="none" stroke="#191970" d="M1142.0577,-168.2455C1149.5142,-160.2155 1160.2634,-148.6394 1169.1417,-139.0781"/>
<polygon fill="#191970" stroke="#191970" points="1171.8063,-141.3522 1176.0461,-131.6427 1166.6768,-136.589 1171.8063,-141.3522"/>
</g>
</g>
</svg>
        <g id="navigator" transform="translate(0 0)" fill="#404254">
                <rect fill="#f2f5e9" fill-opacity="0.5" stroke="#606060" stroke-width=".5" x="0" y="0" width="60" height="60"/>
                <use id="zoomplus" xlink:href="#zoomPlus" x="17" y="9" onmousedown="handleZoom(evt,'in')"/>
                <use id="zoomminus" xlink:href="#zoomMin" x="42" y="9" onmousedown="handleZoom(evt,'out')"/>
                <use id="reset" xlink:href="#resetDef" x="30" y="36" onmousedown="handleReset()"/>
                <g id="arrowUp" xlink:href="#dirArrow" transform="translate(30 24)" onmousedown="handlePan(0,-1)">
                  <use xlink:href="#rim" fill="#404040">
                        <set attributeName="fill" to="#808080" begin="arrowUp.mouseover" end="arrowUp.mouseout"/>
                  </use>
                  <path fill="none" stroke="white" stroke-width="1.5" d="M0,-3.0v7 M-2.5,-0.5L0,-3.0L2.5,-0.5"/>
                </g>
                <g id="arrowRight" xlink:href="#dirArrow" transform="rotate(90) translate(36 -43)" onmousedown="handlePan(1,0)">
                  <use xlink:href="#rim" fill="#404040">
                        <set attributeName="fill" to="#808080" begin="arrowRight.mouseover" end="arrowRight.mouseout"/>
                  </use>
                  <path fill="none" stroke="white" stroke-width="1.5" d="M0,-3.0v7 M-2.5,-0.5L0,-3.0L2.5,-0.5"/>
                </g>
                <g id="arrowDown" xlink:href="#dirArrow" transform="rotate(180) translate(-30 -48)" onmousedown="handlePan(0,1)">
                  <use xlink:href="#rim" fill="#404040">
                        <set attributeName="fill" to="#808080" begin="arrowDown.mouseover" end="arrowDown.mouseout"/>
                  </use>
                  <path fill="none" stroke="white" stroke-width="1.5" d="M0,-3.0v7 M-2.5,-0.5L0,-3.0L2.5,-0.5"/>
                </g>
                <g id="arrowLeft" xlink:href="#dirArrow" transform="rotate(270) translate(-36 17)" onmousedown="handlePan(-1,0)">
                  <use xlink:href="#rim" fill="#404040">
                        <set attributeName="fill" to="#808080" begin="arrowLeft.mouseover" end="arrowLeft.mouseout"/>
                  </use>
                  <path fill="none" stroke="white" stroke-width="1.5" d="M0,-3.0v7 M-2.5,-0.5L0,-3.0L2.5,-0.5"/>
                </g>
        </g>
        <svg viewBox="0 0 15 15" width="100%" height="30px" preserveAspectRatio="xMaxYMin meet">
         <g id="arrow_out" transform="scale(0.3 0.3)">
          <a xlink:href="ntv2mcsfile_8cpp__incl_org.svg" target="_base">
           <rect id="button" ry="5" rx="5" y="6" x="6" height="38" width="38"
                fill="#f2f5e9" fill-opacity="0.5" stroke="#606060" stroke-width="1.0"/>
           <path id="arrow"
             d="M 11.500037,31.436501 C 11.940474,20.09759 22.043105,11.32322 32.158766,21.979434 L 37.068811,17.246167 C 37.068811,17.246167 37.088388,32 37.088388,32 L 22.160133,31.978069 C 22.160133,31.978069 26.997745,27.140456 26.997745,27.140456 C 18.528582,18.264221 13.291696,25.230495 11.500037,31.436501 z"
             style="fill:#404040;"/>
          </a>
         </g>
        </svg>
</svg>
