<?xml version="1.0" encoding="UTF-8" standalone="no"?>
<!DOCTYPE svg PUBLIC "-//W3C//DTD SVG 1.1//EN"
 "http://www.w3.org/Graphics/SVG/1.1/DTD/svg11.dtd">
<!-- Generated by graphviz version 2.40.1 (0)
 -->
<!-- Title: CSourcePosition Pages: 1 -->
<svg width="344pt" height="231pt"
 viewBox="0.00 0.00 343.50 231.00" xmlns="http://www.w3.org/2000/svg" xmlns:xlink="http://www.w3.org/1999/xlink">
<g id="graph0" class="graph" transform="scale(1 1) rotate(0) translate(4 227)">
<title>CSourcePosition</title>
<polygon fill="#ffffff" stroke="transparent" points="-4,4 -4,-227 339.5,-227 339.5,4 -4,4"/>
<!-- Node6 -->
<g id="node1" class="node">
<title>Node6</title>
<polygon fill="#bfbfbf" stroke="#000000" points="172.5,-.5 172.5,-19.5 262.5,-19.5 262.5,-.5 172.5,-.5"/>
<text text-anchor="middle" x="217.5" y="-7.5" font-family="Helvetica,sans-Serif" font-size="10.00" fill="#000000">CSourcePosition</text>
</g>
<!-- Node7 -->
<g id="node2" class="node">
<title>Node7</title>
<g id="a_node2"><a xlink:href="../../dc/d81/class_c_media_position.html" target="_top" xlink:title="CMediaPosition">
<polygon fill="#ffffff" stroke="#000000" points="75.5,-89.5 75.5,-108.5 161.5,-108.5 161.5,-89.5 75.5,-89.5"/>
<text text-anchor="middle" x="118.5" y="-96.5" font-family="Helvetica,sans-Serif" font-size="10.00" fill="#000000">CMediaPosition</text>
</a>
</g>
</g>
<!-- Node7&#45;&gt;Node6 -->
<g id="edge1" class="edge">
<title>Node7&#45;&gt;Node6</title>
<path fill="none" stroke="#191970" d="M136.5398,-82.7824C157.0311,-64.3609 189.8058,-34.8968 206.6813,-19.7259"/>
<polygon fill="#191970" stroke="#191970" points="134.1915,-80.1871 129.0947,-89.4754 138.8714,-85.3928 134.1915,-80.1871"/>
</g>
<!-- Node8 -->
<g id="node3" class="node">
<title>Node8</title>
<polygon fill="#ffffff" stroke="#bfbfbf" points="0,-146.5 0,-165.5 81,-165.5 81,-146.5 0,-146.5"/>
<text text-anchor="middle" x="40.5" y="-153.5" font-family="Helvetica,sans-Serif" font-size="10.00" fill="#000000">IMediaPosition</text>
</g>
<!-- Node8&#45;&gt;Node7 -->
<g id="edge2" class="edge">
<title>Node8&#45;&gt;Node7</title>
<path fill="none" stroke="#191970" d="M61.8403,-140.4052C75.7967,-130.2063 93.5779,-117.2123 105.4638,-108.5265"/>
<polygon fill="#191970" stroke="#191970" points="59.7405,-137.6046 53.7316,-146.3307 63.8706,-143.2564 59.7405,-137.6046"/>
</g>
<!-- Node9 -->
<g id="node4" class="node">
<title>Node9</title>
<g id="a_node4"><a xlink:href="../../d9/d89/class_c_unknown.html" target="_top" xlink:title="CUnknown">
<polygon fill="#ffffff" stroke="#000000" points="99,-146.5 99,-165.5 164,-165.5 164,-146.5 99,-146.5"/>
<text text-anchor="middle" x="131.5" y="-153.5" font-family="Helvetica,sans-Serif" font-size="10.00" fill="#000000">CUnknown</text>
</a>
</g>
</g>
<!-- Node9&#45;&gt;Node7 -->
<g id="edge3" class="edge">
<title>Node9&#45;&gt;Node7</title>
<path fill="none" stroke="#191970" d="M127.0617,-136.5397C124.9051,-127.0839 122.4107,-116.147 120.6727,-108.5265"/>
<polygon fill="#191970" stroke="#191970" points="123.6587,-137.3594 129.2947,-146.3307 130.4834,-135.8028 123.6587,-137.3594"/>
</g>
<!-- Node10 -->
<g id="node5" class="node">
<title>Node10</title>
<polygon fill="#ffffff" stroke="#bfbfbf" points="10,-203.5 10,-222.5 135,-222.5 135,-203.5 10,-203.5"/>
<text text-anchor="middle" x="72.5" y="-210.5" font-family="Helvetica,sans-Serif" font-size="10.00" fill="#000000">INonDelegatingUnknown</text>
</g>
<!-- Node10&#45;&gt;Node9 -->
<g id="edge4" class="edge">
<title>Node10&#45;&gt;Node9</title>
<path fill="none" stroke="#191970" d="M89.8491,-196.239C100.2075,-186.2317 112.988,-173.8845 121.6393,-165.5265"/>
<polygon fill="#191970" stroke="#191970" points="87.2686,-193.8654 82.5085,-203.3307 92.1323,-198.8998 87.2686,-193.8654"/>
</g>
<!-- Node11 -->
<g id="node6" class="node">
<title>Node11</title>
<g id="a_node6"><a xlink:href="../../d1/d2d/class_c_base_object.html" target="_top" xlink:title="CBaseObject">
<polygon fill="#ffffff" stroke="#000000" points="153,-203.5 153,-222.5 228,-222.5 228,-203.5 153,-203.5"/>
<text text-anchor="middle" x="190.5" y="-210.5" font-family="Helvetica,sans-Serif" font-size="10.00" fill="#000000">CBaseObject</text>
</a>
</g>
</g>
<!-- Node11&#45;&gt;Node9 -->
<g id="edge5" class="edge">
<title>Node11&#45;&gt;Node9</title>
<path fill="none" stroke="#191970" d="M173.1509,-196.239C162.7925,-186.2317 150.012,-173.8845 141.3607,-165.5265"/>
<polygon fill="#191970" stroke="#191970" points="170.8677,-198.8998 180.4915,-203.3307 175.7314,-193.8654 170.8677,-198.8998"/>
</g>
<!-- Node12 -->
<g id="node7" class="node">
<title>Node12</title>
<g id="a_node7"><a xlink:href="../../d5/da4/class_c_o_a_ref_time.html" target="_top" xlink:title="COARefTime">
<polygon fill="#ffffff" stroke="#000000" points="179.5,-89.5 179.5,-108.5 255.5,-108.5 255.5,-89.5 179.5,-89.5"/>
<text text-anchor="middle" x="217.5" y="-96.5" font-family="Helvetica,sans-Serif" font-size="10.00" fill="#000000">COARefTime</text>
</a>
</g>
</g>
<!-- Node12&#45;&gt;Node6 -->
<g id="edge6" class="edge">
<title>Node12&#45;&gt;Node6</title>
<path fill="none" stroke="#9a32cd" stroke-dasharray="5,2" d="M217.5,-79.2379C217.5,-60.7654 217.5,-33.957 217.5,-19.7259"/>
<polygon fill="#9a32cd" stroke="#9a32cd" points="214.0001,-79.4754 217.5,-89.4754 221.0001,-79.4755 214.0001,-79.4754"/>
<text text-anchor="middle" x="243" y="-63" font-family="Helvetica,sans-Serif" font-size="10.00" fill="#000000"> m_Stop</text>
<text text-anchor="middle" x="243" y="-52" font-family="Helvetica,sans-Serif" font-size="10.00" fill="#000000">m_Duration</text>
<text text-anchor="middle" x="243" y="-41" font-family="Helvetica,sans-Serif" font-size="10.00" fill="#000000">m_Start</text>
</g>
<!-- Node13 -->
<g id="node8" class="node">
<title>Node13</title>
<g id="a_node8"><a xlink:href="../../dc/da7/class_c_ref_time.html" target="_top" xlink:title="CRefTime">
<polygon fill="#ffffff" stroke="#000000" points="186.5,-146.5 186.5,-165.5 248.5,-165.5 248.5,-146.5 186.5,-146.5"/>
<text text-anchor="middle" x="217.5" y="-153.5" font-family="Helvetica,sans-Serif" font-size="10.00" fill="#000000">CRefTime</text>
</a>
</g>
</g>
<!-- Node13&#45;&gt;Node12 -->
<g id="edge7" class="edge">
<title>Node13&#45;&gt;Node12</title>
<path fill="none" stroke="#191970" d="M217.5,-136.2342C217.5,-126.8491 217.5,-116.0651 217.5,-108.5265"/>
<polygon fill="#191970" stroke="#191970" points="214.0001,-136.3307 217.5,-146.3307 221.0001,-136.3308 214.0001,-136.3307"/>
</g>
<!-- Node14 -->
<g id="node9" class="node">
<title>Node14</title>
<g id="a_node9"><a xlink:href="../../d5/d24/class_c_crit_sec.html" target="_top" xlink:title="CCritSec">
<polygon fill="#ffffff" stroke="#000000" points="274,-89.5 274,-108.5 331,-108.5 331,-89.5 274,-89.5"/>
<text text-anchor="middle" x="302.5" y="-96.5" font-family="Helvetica,sans-Serif" font-size="10.00" fill="#000000">CCritSec</text>
</a>
</g>
</g>
<!-- Node14&#45;&gt;Node6 -->
<g id="edge8" class="edge">
<title>Node14&#45;&gt;Node6</title>
<path fill="none" stroke="#9a32cd" stroke-dasharray="5,2" d="M296.4915,-79.3159C291.7038,-66.2937 283.8949,-49.5535 272.5,-38 264.6751,-30.0662 254.1308,-23.9575 244.368,-19.5004"/>
<polygon fill="#9a32cd" stroke="#9a32cd" points="293.3064,-80.8247 299.8151,-89.1846 299.9403,-78.5905 293.3064,-80.8247"/>
<text text-anchor="middle" x="314" y="-52" font-family="Helvetica,sans-Serif" font-size="10.00" fill="#000000"> m_pLock</text>
</g>
</g>
</svg>
