<?xml version="1.0" encoding="UTF-8" standalone="no"?>
<!DOCTYPE svg PUBLIC "-//W3C//DTD SVG 1.1//EN"
 "http://www.w3.org/Graphics/SVG/1.1/DTD/svg11.dtd">
<!-- Generated by graphviz version 2.40.1 (0)
 -->
<!-- Title: /home/tcbuilder/buildAgent/work/df8e8cce5bebfd58/libajacc/includes/ntv2caption708serviceinfo.h Pages: 1 -->
<svg width="808pt" height="330pt"
 viewBox="0.00 0.00 807.95 330.00" xmlns="http://www.w3.org/2000/svg" xmlns:xlink="http://www.w3.org/1999/xlink">
<g id="graph0" class="graph" transform="scale(1 1) rotate(0) translate(4 326)">
<title>/home/tcbuilder/buildAgent/work/df8e8cce5bebfd58/libajacc/includes/ntv2caption708serviceinfo.h</title>
<polygon fill="#ffffff" stroke="transparent" points="-4,4 -4,-326 803.9503,-326 803.9503,4 -4,4"/>
<!-- Node0 -->
<g id="node1" class="node">
<title>Node0</title>
<polygon fill="#bfbfbf" stroke="#000000" points="262.5,-280.5 262.5,-321.5 442.5,-321.5 442.5,-280.5 262.5,-280.5"/>
<text text-anchor="start" x="270.5" y="-309.5" font-family="Helvetica,sans-Serif" font-size="10.00" fill="#000000">/home/tcbuilder/buildAgent</text>
<text text-anchor="start" x="270.5" y="-298.5" font-family="Helvetica,sans-Serif" font-size="10.00" fill="#000000">/work/df8e8cce5bebfd58/libajacc</text>
<text text-anchor="middle" x="352.5" y="-287.5" font-family="Helvetica,sans-Serif" font-size="10.00" fill="#000000">/includes/ntv2caption708serviceinfo.h</text>
</g>
<!-- Node1 -->
<g id="node2" class="node">
<title>Node1</title>
<g id="a_node2"><a xlink:href="../../d7/da9/ntv2captionlogging_8h.html" target="_top" xlink:title="Declares the NTV2CaptionLogMask, and the CNTV2CaptionLogConfig class. ">
<polygon fill="#ffffff" stroke="#000000" points="299.5,-224.5 299.5,-243.5 405.5,-243.5 405.5,-224.5 299.5,-224.5"/>
<text text-anchor="middle" x="352.5" y="-231.5" font-family="Helvetica,sans-Serif" font-size="10.00" fill="#000000">ntv2captionlogging.h</text>
</a>
</g>
</g>
<!-- Node0&#45;&gt;Node1 -->
<g id="edge1" class="edge">
<title>Node0&#45;&gt;Node1</title>
<path fill="none" stroke="#191970" d="M352.5,-280.168C352.5,-271.8226 352.5,-262.2471 352.5,-253.9879"/>
<polygon fill="#191970" stroke="#191970" points="356.0001,-253.7804 352.5,-243.7805 349.0001,-253.7805 356.0001,-253.7804"/>
</g>
<!-- Node2 -->
<g id="node3" class="node">
<title>Node2</title>
<g id="a_node3"><a xlink:href="../../db/de2/ajatypes_8h.html" target="_top" xlink:title="Declares the most fundamental data types used by NTV2. Since Windows NT was the first principal devel...">
<polygon fill="#ffffff" stroke="#000000" points="132.5,-56.5 132.5,-75.5 194.5,-75.5 194.5,-56.5 132.5,-56.5"/>
<text text-anchor="middle" x="163.5" y="-63.5" font-family="Helvetica,sans-Serif" font-size="10.00" fill="#000000">ajatypes.h</text>
</a>
</g>
</g>
<!-- Node1&#45;&gt;Node2 -->
<g id="edge2" class="edge">
<title>Node1&#45;&gt;Node2</title>
<path fill="none" stroke="#191970" d="M299.1704,-225.1492C215.6068,-210.0527 60.0631,-176.5801 28.5,-132 2.3225,-95.0266 73.773,-77.8451 122.4511,-70.6171"/>
<polygon fill="#191970" stroke="#191970" points="123.0291,-74.0704 132.4495,-69.2222 122.0618,-67.1376 123.0291,-74.0704"/>
</g>
<!-- Node4 -->
<g id="node5" class="node">
<title>Node4</title>
<polygon fill="#ffffff" stroke="#bfbfbf" points="0,-.5 0,-19.5 49,-19.5 49,-.5 0,-.5"/>
<text text-anchor="middle" x="24.5" y="-7.5" font-family="Helvetica,sans-Serif" font-size="10.00" fill="#000000">stdint.h</text>
</g>
<!-- Node1&#45;&gt;Node4 -->
<g id="edge23" class="edge">
<title>Node1&#45;&gt;Node4</title>
<path fill="none" stroke="#191970" d="M299.3447,-228.631C231.4252,-221.1524 118.1406,-206.4203 80.5,-188 47.443,-171.8228 34.3068,-165.6932 19.5,-132 4.7159,-98.3584 12.2462,-54.3377 18.6497,-29.4194"/>
<polygon fill="#191970" stroke="#191970" points="22.0433,-30.2792 21.3426,-19.7075 15.2978,-28.4088 22.0433,-30.2792"/>
</g>
<!-- Node5 -->
<g id="node6" class="node">
<title>Node5</title>
<g id="a_node6"><a xlink:href="../../d4/dd7/ntv2publicinterface_8h.html" target="_top" xlink:title="Declares enums and structs used by all platform drivers and the SDK. ">
<polygon fill="#ffffff" stroke="#000000" points="396,-168.5 396,-187.5 503,-187.5 503,-168.5 396,-168.5"/>
<text text-anchor="middle" x="449.5" y="-175.5" font-family="Helvetica,sans-Serif" font-size="10.00" fill="#000000">ntv2publicinterface.h</text>
</a>
</g>
</g>
<!-- Node1&#45;&gt;Node5 -->
<g id="edge5" class="edge">
<title>Node1&#45;&gt;Node5</title>
<path fill="none" stroke="#191970" d="M369.3961,-224.2455C384.418,-215.5731 406.6043,-202.7645 423.821,-192.825"/>
<polygon fill="#191970" stroke="#191970" points="425.8871,-195.6737 432.7975,-187.6427 422.3872,-189.6114 425.8871,-195.6737"/>
</g>
<!-- Node9 -->
<g id="node10" class="node">
<title>Node9</title>
<polygon fill="#ffffff" stroke="#bfbfbf" points="651,-.5 651,-19.5 692,-19.5 692,-.5 651,-.5"/>
<text text-anchor="middle" x="671.5" y="-7.5" font-family="Helvetica,sans-Serif" font-size="10.00" fill="#000000">string</text>
</g>
<!-- Node1&#45;&gt;Node9 -->
<g id="edge24" class="edge">
<title>Node1&#45;&gt;Node9</title>
<path fill="none" stroke="#191970" d="M405.5378,-229.952C511.9657,-220.5852 745.3478,-193.3588 791.5,-132 824.5951,-88.0004 746.8914,-43.7716 701.4605,-22.7026"/>
<polygon fill="#191970" stroke="#191970" points="702.8615,-19.495 692.3074,-18.5667 699.979,-25.874 702.8615,-19.495"/>
</g>
<!-- Node10 -->
<g id="node11" class="node">
<title>Node10</title>
<polygon fill="#ffffff" stroke="#bfbfbf" points="37.5,-112.5 37.5,-131.5 91.5,-131.5 91.5,-112.5 37.5,-112.5"/>
<text text-anchor="middle" x="64.5" y="-119.5" font-family="Helvetica,sans-Serif" font-size="10.00" fill="#000000">iostream</text>
</g>
<!-- Node1&#45;&gt;Node10 -->
<g id="edge25" class="edge">
<title>Node1&#45;&gt;Node10</title>
<path fill="none" stroke="#191970" d="M327.9453,-224.4509C276.5096,-204.4482 157.3588,-158.1117 98.5655,-135.2477"/>
<polygon fill="#191970" stroke="#191970" points="99.5812,-131.8874 88.9926,-131.5249 97.044,-138.4114 99.5812,-131.8874"/>
</g>
<!-- Node11 -->
<g id="node12" class="node">
<title>Node11</title>
<polygon fill="#ffffff" stroke="#bfbfbf" points="752.5,-112.5 752.5,-131.5 782.5,-131.5 782.5,-112.5 752.5,-112.5"/>
<text text-anchor="middle" x="767.5" y="-119.5" font-family="Helvetica,sans-Serif" font-size="10.00" fill="#000000">set</text>
</g>
<!-- Node1&#45;&gt;Node11 -->
<g id="edge26" class="edge">
<title>Node1&#45;&gt;Node11</title>
<path fill="none" stroke="#191970" d="M397.3657,-224.4424C468.892,-208.7407 613.0808,-175.1862 742.6853,-131.9375"/>
<polygon fill="#191970" stroke="#191970" points="744.0254,-135.1794 752.3866,-128.6725 741.7926,-128.5451 744.0254,-135.1794"/>
</g>
<!-- Node3 -->
<g id="node4" class="node">
<title>Node3</title>
<g id="a_node4"><a xlink:href="../../db/d40/ntv2deprecate_8h.html" target="_top" xlink:title="Deprecation control macros. ">
<polygon fill="#ffffff" stroke="#000000" points="120.5,-.5 120.5,-19.5 206.5,-19.5 206.5,-.5 120.5,-.5"/>
<text text-anchor="middle" x="163.5" y="-7.5" font-family="Helvetica,sans-Serif" font-size="10.00" fill="#000000">ntv2deprecate.h</text>
</a>
</g>
</g>
<!-- Node2&#45;&gt;Node3 -->
<g id="edge3" class="edge">
<title>Node2&#45;&gt;Node3</title>
<path fill="none" stroke="#191970" d="M163.5,-56.2455C163.5,-48.9382 163.5,-38.6944 163.5,-29.7046"/>
<polygon fill="#191970" stroke="#191970" points="167.0001,-29.6426 163.5,-19.6427 160.0001,-29.6427 167.0001,-29.6426"/>
</g>
<!-- Node2&#45;&gt;Node4 -->
<g id="edge4" class="edge">
<title>Node2&#45;&gt;Node4</title>
<path fill="none" stroke="#191970" d="M139.605,-56.3733C116.9918,-47.2629 82.8458,-33.5062 57.6127,-23.3404"/>
<polygon fill="#191970" stroke="#191970" points="58.6666,-19.9917 48.0831,-19.5011 56.0507,-26.4845 58.6666,-19.9917"/>
</g>
<!-- Node5&#45;&gt;Node2 -->
<g id="edge6" class="edge">
<title>Node5&#45;&gt;Node2</title>
<path fill="none" stroke="#191970" d="M460.9782,-168.4114C475.9663,-154.757 498.6092,-129.4364 483.5,-112 465.4574,-91.1783 286.8396,-75.2358 204.5832,-68.937"/>
<polygon fill="#191970" stroke="#191970" points="204.8129,-65.4444 194.5779,-68.1821 204.2862,-72.4246 204.8129,-65.4444"/>
</g>
<!-- Node6 -->
<g id="node7" class="node">
<title>Node6</title>
<g id="a_node7"><a xlink:href="../../d6/d0c/ntv2enums_8h.html" target="_top" xlink:title="Enumerations for controlling NTV2 devices. ">
<polygon fill="#ffffff" stroke="#000000" points="569,-112.5 569,-131.5 642,-131.5 642,-112.5 569,-112.5"/>
<text text-anchor="middle" x="605.5" y="-119.5" font-family="Helvetica,sans-Serif" font-size="10.00" fill="#000000">ntv2enums.h</text>
</a>
</g>
</g>
<!-- Node5&#45;&gt;Node6 -->
<g id="edge7" class="edge">
<title>Node5&#45;&gt;Node6</title>
<path fill="none" stroke="#191970" d="M476.3174,-168.3733C502.0332,-159.1419 541.038,-145.1402 569.4599,-134.9375"/>
<polygon fill="#191970" stroke="#191970" points="570.8032,-138.174 579.0326,-131.5011 568.4381,-131.5857 570.8032,-138.174"/>
</g>
<!-- Node8 -->
<g id="node9" class="node">
<title>Node8</title>
<g id="a_node9"><a xlink:href="../../d6/dd9/ajaexport_8h.html" target="_top" xlink:title="Defines the import/export macros for producing DLLs or LIBs. ">
<polygon fill="#ffffff" stroke="#000000" points="538,-.5 538,-19.5 603,-19.5 603,-.5 538,-.5"/>
<text text-anchor="middle" x="570.5" y="-7.5" font-family="Helvetica,sans-Serif" font-size="10.00" fill="#000000">ajaexport.h</text>
</a>
</g>
</g>
<!-- Node5&#45;&gt;Node8 -->
<g id="edge20" class="edge">
<title>Node5&#45;&gt;Node8</title>
<path fill="none" stroke="#191970" d="M461.9898,-168.3118C472.7467,-159.5709 488.2676,-145.9743 499.5,-132 526.3528,-98.5923 549.6546,-53.8866 561.7232,-28.9149"/>
<polygon fill="#191970" stroke="#191970" points="564.9244,-30.3329 566.0518,-19.7982 558.601,-27.3305 564.9244,-30.3329"/>
</g>
<!-- Node5&#45;&gt;Node9 -->
<g id="edge16" class="edge">
<title>Node5&#45;&gt;Node9</title>
<path fill="none" stroke="#191970" d="M503.1315,-172.5329C555.9519,-166.0066 631.5417,-153.2233 651.5,-132 677.4888,-104.364 677.1246,-56.7329 674.4085,-29.891"/>
<polygon fill="#191970" stroke="#191970" points="677.8598,-29.2795 673.1704,-19.779 670.9117,-30.1303 677.8598,-29.2795"/>
</g>
<!-- Node5&#45;&gt;Node10 -->
<g id="edge12" class="edge">
<title>Node5&#45;&gt;Node10</title>
<path fill="none" stroke="#191970" d="M395.9007,-173.2858C329.0759,-166.8878 211.2575,-153.8984 101.4474,-131.9561"/>
<polygon fill="#191970" stroke="#191970" points="102.0244,-128.5019 91.5283,-129.9448 100.6333,-135.3623 102.0244,-128.5019"/>
</g>
<!-- Node5&#45;&gt;Node11 -->
<g id="edge13" class="edge">
<title>Node5&#45;&gt;Node11</title>
<path fill="none" stroke="#191970" d="M503.1669,-173.4963C560.648,-167.8105 654.4512,-156.0477 742.8235,-131.6295"/>
<polygon fill="#191970" stroke="#191970" points="743.7868,-134.9945 752.46,-128.9096 741.8852,-128.2577 743.7868,-134.9945"/>
</g>
<!-- Node12 -->
<g id="node13" class="node">
<title>Node12</title>
<polygon fill="#ffffff" stroke="#bfbfbf" points="699,-112.5 699,-131.5 734,-131.5 734,-112.5 699,-112.5"/>
<text text-anchor="middle" x="716.5" y="-119.5" font-family="Helvetica,sans-Serif" font-size="10.00" fill="#000000">map</text>
</g>
<!-- Node5&#45;&gt;Node12 -->
<g id="edge14" class="edge">
<title>Node5&#45;&gt;Node12</title>
<path fill="none" stroke="#191970" d="M503.0697,-169.2378C550.9434,-160.9992 622.841,-147.6189 684.5,-132 685.9811,-131.6248 687.4949,-131.2214 689.0192,-130.7996"/>
<polygon fill="#191970" stroke="#191970" points="690.3961,-134.0423 698.9934,-127.8507 688.4114,-127.3296 690.3961,-134.0423"/>
</g>
<!-- Node13 -->
<g id="node14" class="node">
<title>Node13</title>
<polygon fill="#ffffff" stroke="#bfbfbf" points="235.5,-112.5 235.5,-131.5 279.5,-131.5 279.5,-112.5 235.5,-112.5"/>
<text text-anchor="middle" x="257.5" y="-119.5" font-family="Helvetica,sans-Serif" font-size="10.00" fill="#000000">vector</text>
</g>
<!-- Node5&#45;&gt;Node13 -->
<g id="edge15" class="edge">
<title>Node5&#45;&gt;Node13</title>
<path fill="none" stroke="#191970" d="M414.8541,-168.4654C384.2241,-159.9553 338.1057,-146.9467 289.5603,-132.2592"/>
<polygon fill="#191970" stroke="#191970" points="290.4084,-128.859 279.8228,-129.3002 288.3731,-135.5566 290.4084,-128.859"/>
</g>
<!-- Node14 -->
<g id="node15" class="node">
<title>Node14</title>
<polygon fill="#ffffff" stroke="#bfbfbf" points="297.5,-112.5 297.5,-131.5 347.5,-131.5 347.5,-112.5 297.5,-112.5"/>
<text text-anchor="middle" x="322.5" y="-119.5" font-family="Helvetica,sans-Serif" font-size="10.00" fill="#000000">iomanip</text>
</g>
<!-- Node5&#45;&gt;Node14 -->
<g id="edge17" class="edge">
<title>Node5&#45;&gt;Node14</title>
<path fill="none" stroke="#191970" d="M427.6679,-168.3733C407.1897,-159.3435 376.3601,-145.7494 353.3681,-135.6111"/>
<polygon fill="#191970" stroke="#191970" points="354.6093,-132.3333 344.0472,-131.5011 351.785,-138.7383 354.6093,-132.3333"/>
</g>
<!-- Node15 -->
<g id="node16" class="node">
<title>Node15</title>
<polygon fill="#ffffff" stroke="#bfbfbf" points="366,-112.5 366,-131.5 407,-131.5 407,-112.5 366,-112.5"/>
<text text-anchor="middle" x="386.5" y="-119.5" font-family="Helvetica,sans-Serif" font-size="10.00" fill="#000000">bitset</text>
</g>
<!-- Node5&#45;&gt;Node15 -->
<g id="edge18" class="edge">
<title>Node5&#45;&gt;Node15</title>
<path fill="none" stroke="#191970" d="M438.5262,-168.2455C429.3118,-160.0549 415.9468,-148.1749 405.0703,-138.5069"/>
<polygon fill="#191970" stroke="#191970" points="407.1474,-135.6704 397.348,-131.6427 402.4968,-140.9023 407.1474,-135.6704"/>
</g>
<!-- Node16 -->
<g id="node17" class="node">
<title>Node16</title>
<polygon fill="#ffffff" stroke="#bfbfbf" points="425,-112.5 425,-131.5 474,-131.5 474,-112.5 425,-112.5"/>
<text text-anchor="middle" x="449.5" y="-119.5" font-family="Helvetica,sans-Serif" font-size="10.00" fill="#000000">string.h</text>
</g>
<!-- Node5&#45;&gt;Node16 -->
<g id="edge19" class="edge">
<title>Node5&#45;&gt;Node16</title>
<path fill="none" stroke="#191970" d="M449.5,-168.2455C449.5,-160.9382 449.5,-150.6944 449.5,-141.7046"/>
<polygon fill="#191970" stroke="#191970" points="453.0001,-141.6426 449.5,-131.6427 446.0001,-141.6427 453.0001,-141.6426"/>
</g>
<!-- Node17 -->
<g id="node18" class="node">
<title>Node17</title>
<g id="a_node18"><a xlink:href="../../da/df0/ntv2virtualregisters_8h.html" target="_top" xlink:title="Declares enums for virtual registers used in all platform drivers and the SDK. ">
<polygon fill="#ffffff" stroke="#000000" points="110,-112.5 110,-131.5 217,-131.5 217,-112.5 110,-112.5"/>
<text text-anchor="middle" x="163.5" y="-119.5" font-family="Helvetica,sans-Serif" font-size="10.00" fill="#000000">ntv2virtualregisters.h</text>
</a>
</g>
</g>
<!-- Node5&#45;&gt;Node17 -->
<g id="edge21" class="edge">
<title>Node5&#45;&gt;Node17</title>
<path fill="none" stroke="#191970" d="M400.6598,-168.4369C351.199,-158.7522 274.684,-143.7703 222.012,-133.4569"/>
<polygon fill="#191970" stroke="#191970" points="222.625,-130.0105 212.1387,-131.5237 221.2798,-136.8801 222.625,-130.0105"/>
</g>
<!-- Node6&#45;&gt;Node2 -->
<g id="edge8" class="edge">
<title>Node6&#45;&gt;Node2</title>
<path fill="none" stroke="#191970" d="M568.9532,-117.3696C487.3492,-107.0307 290.7482,-82.1219 204.8398,-71.2376"/>
<polygon fill="#191970" stroke="#191970" points="205.045,-67.7357 194.6844,-69.951 204.1651,-74.6802 205.045,-67.7357"/>
</g>
<!-- Node7 -->
<g id="node8" class="node">
<title>Node7</title>
<g id="a_node8"><a xlink:href="../../d6/db1/ntv2version_8h.html" target="_top" xlink:title="Defines for the NTV2 SDK version number, used by ajantv2/includes/ntv2enums.h. See the ajantv2/includ...">
<polygon fill="#ffffff" stroke="#000000" points="568,-56.5 568,-75.5 643,-75.5 643,-56.5 568,-56.5"/>
<text text-anchor="middle" x="605.5" y="-63.5" font-family="Helvetica,sans-Serif" font-size="10.00" fill="#000000">ntv2version.h</text>
</a>
</g>
</g>
<!-- Node6&#45;&gt;Node7 -->
<g id="edge9" class="edge">
<title>Node6&#45;&gt;Node7</title>
<path fill="none" stroke="#191970" d="M605.5,-112.2455C605.5,-104.9382 605.5,-94.6944 605.5,-85.7046"/>
<polygon fill="#191970" stroke="#191970" points="609.0001,-85.6426 605.5,-75.6427 602.0001,-85.6427 609.0001,-85.6426"/>
</g>
<!-- Node7&#45;&gt;Node8 -->
<g id="edge10" class="edge">
<title>Node7&#45;&gt;Node8</title>
<path fill="none" stroke="#191970" d="M599.4035,-56.2455C594.5855,-48.5367 587.7249,-37.5598 581.8968,-28.2348"/>
<polygon fill="#191970" stroke="#191970" points="584.7947,-26.2677 576.5267,-19.6427 578.8587,-29.9777 584.7947,-26.2677"/>
</g>
<!-- Node7&#45;&gt;Node9 -->
<g id="edge11" class="edge">
<title>Node7&#45;&gt;Node9</title>
<path fill="none" stroke="#191970" d="M616.9963,-56.2455C626.7442,-47.9746 640.9259,-35.9416 652.3798,-26.2232"/>
<polygon fill="#191970" stroke="#191970" points="654.7747,-28.7813 660.1354,-19.6427 650.2459,-23.4437 654.7747,-28.7813"/>
</g>
<!-- Node17&#45;&gt;Node2 -->
<g id="edge22" class="edge">
<title>Node17&#45;&gt;Node2</title>
<path fill="none" stroke="#191970" d="M163.5,-112.2455C163.5,-104.9382 163.5,-94.6944 163.5,-85.7046"/>
<polygon fill="#191970" stroke="#191970" points="167.0001,-85.6426 163.5,-75.6427 160.0001,-85.6427 167.0001,-85.6426"/>
</g>
</g>
</svg>
