<?xml version="1.0" encoding="UTF-8" standalone="no"?>
<!DOCTYPE svg PUBLIC "-//W3C//DTD SVG 1.1//EN"
 "http://www.w3.org/Graphics/SVG/1.1/DTD/svg11.dtd">
<!-- Generated by graphviz version 2.43.0 (0)
 -->
<!-- Title: poptArg_u Pages: 1 -->
<svg width="343pt" height="320pt"
 viewBox="0.00 0.00 343.00 320.00" xmlns="http://www.w3.org/2000/svg" xmlns:xlink="http://www.w3.org/1999/xlink">
<g id="graph0" class="graph" transform="scale(1 1) rotate(0) translate(4 316)">
<title>poptArg_u</title>
<polygon fill="white" stroke="transparent" points="-4,4 -4,-316 339,-316 339,4 -4,4"/>
<!-- Node1 -->
<g id="node1" class="node">
<title>Node1</title>
<g id="a_node1"><a xlink:title=" ">
<polygon fill="#bfbfbf" stroke="black" points="0,-0.5 0,-19.5 66,-19.5 66,-0.5 0,-0.5"/>
<text text-anchor="middle" x="33" y="-7.5" font-family="Helvetica,sans-Serif" font-size="10.00">poptArg_u</text>
</a>
</g>
</g>
<!-- Node2 -->
<g id="node2" class="node">
<title>Node2</title>
<g id="a_node2"><a xlink:href="../../d4/da9/structpopt_option.html" target="_top" xlink:title=" ">
<polygon fill="white" stroke="black" points="28.5,-292.5 28.5,-311.5 99.5,-311.5 99.5,-292.5 28.5,-292.5"/>
<text text-anchor="middle" x="64" y="-299.5" font-family="Helvetica,sans-Serif" font-size="10.00">poptOption</text>
</a>
</g>
</g>
<!-- Node2&#45;&gt;Node1 -->
<g id="edge1" class="edge">
<title>Node2&#45;&gt;Node1</title>
<path fill="none" stroke="#9a32cd" stroke-dasharray="5,2" d="M44.46,-285.69C31.55,-273.72 17,-255.84 17,-236 17,-236 17,-236 17,-76 17,-55.31 24.74,-31.97 29.45,-19.66"/>
<polygon fill="#9a32cd" stroke="#9a32cd" points="42.29,-288.44 52.14,-292.33 46.87,-283.14 42.29,-288.44"/>
<text text-anchor="middle" x="26.5" y="-159" font-family="Helvetica,sans-Serif" font-size="10.00"> opt</text>
</g>
<!-- Node3 -->
<g id="node3" class="node">
<title>Node3</title>
<g id="a_node3"><a xlink:href="../../da/de2/structpopt_context__s.html" target="_top" xlink:title=" ">
<polygon fill="white" stroke="black" points="75.5,-67.5 75.5,-86.5 162.5,-86.5 162.5,-67.5 75.5,-67.5"/>
<text text-anchor="middle" x="119" y="-74.5" font-family="Helvetica,sans-Serif" font-size="10.00">poptContext_s</text>
</a>
</g>
</g>
<!-- Node2&#45;&gt;Node3 -->
<g id="edge7" class="edge">
<title>Node2&#45;&gt;Node3</title>
<path fill="none" stroke="#9a32cd" stroke-dasharray="5,2" d="M66.16,-282.33C68.8,-261.2 73.82,-225.84 81,-196 91.02,-154.36 108.42,-106.15 115.68,-86.75"/>
<polygon fill="#9a32cd" stroke="#9a32cd" points="62.66,-282.13 64.94,-292.48 69.61,-282.96 62.66,-282.13"/>
<text text-anchor="middle" x="101" y="-199" font-family="Helvetica,sans-Serif" font-size="10.00"> options</text>
</g>
<!-- Node6 -->
<g id="node6" class="node">
<title>Node6</title>
<g id="a_node6"><a xlink:href="../../dd/dab/structpopt_item__s.html" target="_top" xlink:title=" ">
<polygon fill="white" stroke="black" points="92.5,-225.5 92.5,-244.5 163.5,-244.5 163.5,-225.5 92.5,-225.5"/>
<text text-anchor="middle" x="128" y="-232.5" font-family="Helvetica,sans-Serif" font-size="10.00">poptItem_s</text>
</a>
</g>
</g>
<!-- Node2&#45;&gt;Node6 -->
<g id="edge6" class="edge">
<title>Node2&#45;&gt;Node6</title>
<path fill="none" stroke="#9a32cd" stroke-dasharray="5,2" d="M79.76,-285C92.31,-272.25 109.4,-254.89 119.51,-244.63"/>
<polygon fill="#9a32cd" stroke="#9a32cd" points="77.15,-282.65 72.63,-292.23 82.14,-287.56 77.15,-282.65"/>
<text text-anchor="middle" x="117" y="-266" font-family="Helvetica,sans-Serif" font-size="10.00"> option</text>
</g>
<!-- Node3&#45;&gt;Node1 -->
<g id="edge2" class="edge">
<title>Node3&#45;&gt;Node1</title>
<path fill="none" stroke="#9a32cd" stroke-dasharray="5,2" d="M99.24,-61.07C82.27,-48.24 58.38,-30.19 44.41,-19.63"/>
<polygon fill="#9a32cd" stroke="#9a32cd" points="97.31,-64 107.4,-67.23 101.53,-58.41 97.31,-64"/>
<text text-anchor="middle" x="89.5" y="-41" font-family="Helvetica,sans-Serif" font-size="10.00"> cb</text>
</g>
<!-- Node4 -->
<g id="node4" class="node">
<title>Node4</title>
<g id="a_node4"><a xlink:href="../../da/dfb/structoption_stack_entry.html" target="_top" xlink:title=" ">
<polygon fill="white" stroke="black" points="175,-152 175,-171 275,-171 275,-152 175,-152"/>
<text text-anchor="middle" x="225" y="-159" font-family="Helvetica,sans-Serif" font-size="10.00">optionStackEntry</text>
</a>
</g>
</g>
<!-- Node4&#45;&gt;Node3 -->
<g id="edge3" class="edge">
<title>Node4&#45;&gt;Node3</title>
<path fill="none" stroke="#9a32cd" stroke-dasharray="5,2" d="M206.04,-145.74C183.91,-128.52 148.04,-100.6 130.04,-86.6"/>
<polygon fill="#9a32cd" stroke="#9a32cd" points="204.01,-148.6 214.06,-151.98 208.31,-143.08 204.01,-148.6"/>
<text text-anchor="middle" x="210" y="-119" font-family="Helvetica,sans-Serif" font-size="10.00"> os</text>
<text text-anchor="middle" x="210" y="-108" font-family="Helvetica,sans-Serif" font-size="10.00">optionStack</text>
</g>
<!-- Node5 -->
<g id="node5" class="node">
<title>Node5</title>
<g id="a_node5"><a xlink:href="../../d5/dfd/structpbm__set.html" target="_top" xlink:title=" ">
<polygon fill="white" stroke="black" points="249.5,-225.5 249.5,-244.5 308.5,-244.5 308.5,-225.5 249.5,-225.5"/>
<text text-anchor="middle" x="279" y="-232.5" font-family="Helvetica,sans-Serif" font-size="10.00">pbm_set</text>
</a>
</g>
</g>
<!-- Node5&#45;&gt;Node3 -->
<g id="edge8" class="edge">
<title>Node5&#45;&gt;Node3</title>
<path fill="none" stroke="#9a32cd" stroke-dasharray="5,2" d="M285.22,-215.57C285.96,-212.73 286.59,-209.81 287,-207 289.61,-189.01 291.83,-162.15 284,-145 273.43,-121.84 265.42,-117.06 243,-105 218.26,-91.69 187.41,-84.94 162.67,-81.52"/>
<polygon fill="#9a32cd" stroke="#9a32cd" points="281.87,-214.56 282.33,-225.14 288.57,-216.59 281.87,-214.56"/>
<text text-anchor="middle" x="312" y="-159" font-family="Helvetica,sans-Serif" font-size="10.00"> arg_strip</text>
</g>
<!-- Node5&#45;&gt;Node4 -->
<g id="edge4" class="edge">
<title>Node5&#45;&gt;Node4</title>
<path fill="none" stroke="#9a32cd" stroke-dasharray="5,2" d="M266.28,-217.16C255.44,-202.81 240.29,-182.74 231.68,-171.34"/>
<polygon fill="#9a32cd" stroke="#9a32cd" points="263.56,-219.36 272.38,-225.23 269.14,-215.14 263.56,-219.36"/>
<text text-anchor="middle" x="270.5" y="-199" font-family="Helvetica,sans-Serif" font-size="10.00"> argb</text>
</g>
<!-- Node6&#45;&gt;Node3 -->
<g id="edge9" class="edge">
<title>Node6&#45;&gt;Node3</title>
<path fill="none" stroke="#9a32cd" stroke-dasharray="5,2" d="M126.91,-215.18C124.96,-181.3 120.92,-111.29 119.5,-86.74"/>
<polygon fill="#9a32cd" stroke="#9a32cd" points="123.42,-215.38 127.49,-225.17 130.41,-214.98 123.42,-215.38"/>
<text text-anchor="middle" x="143" y="-170" font-family="Helvetica,sans-Serif" font-size="10.00"> doExec</text>
<text text-anchor="middle" x="143" y="-159" font-family="Helvetica,sans-Serif" font-size="10.00">execs</text>
<text text-anchor="middle" x="143" y="-148" font-family="Helvetica,sans-Serif" font-size="10.00">aliases</text>
</g>
<!-- Node6&#45;&gt;Node4 -->
<g id="edge5" class="edge">
<title>Node6&#45;&gt;Node4</title>
<path fill="none" stroke="#9a32cd" stroke-dasharray="5,2" d="M148.19,-219.12C167.89,-204.59 197.19,-183 213.31,-171.12"/>
<polygon fill="#9a32cd" stroke="#9a32cd" points="145.87,-216.48 139.89,-225.23 150.02,-222.12 145.87,-216.48"/>
<text text-anchor="middle" x="202" y="-199" font-family="Helvetica,sans-Serif" font-size="10.00"> currAlias</text>
</g>
</g>
</svg>
