<?xml version="1.0" encoding="UTF-8" standalone="no"?>
<!DOCTYPE svg PUBLIC "-//W3C//DTD SVG 1.1//EN"
 "http://www.w3.org/Graphics/SVG/1.1/DTD/svg11.dtd">
<!-- Generated by graphviz version 2.43.0 (0)
 -->
<!-- Title: /home/tcbuilder/buildAgent/work/df8e8cce5bebfd58/libajantv2/ajabase/common/timecode.cpp Pages: 1 -->
<svg width="670pt" height="274pt"
 viewBox="0.00 0.00 670.00 274.00" xmlns="http://www.w3.org/2000/svg" xmlns:xlink="http://www.w3.org/1999/xlink">
<g id="graph0" class="graph" transform="scale(1 1) rotate(0) translate(4 270)">
<title>/home/tcbuilder/buildAgent/work/df8e8cce5bebfd58/libajantv2/ajabase/common/timecode.cpp</title>
<polygon fill="white" stroke="transparent" points="-4,4 -4,-270 666,-270 666,4 -4,4"/>
<!-- Node1 -->
<g id="node1" class="node">
<title>Node1</title>
<g id="a_node1"><a xlink:title="Implements the AJATimeCode class.">
<polygon fill="#bfbfbf" stroke="black" points="160,-224.5 160,-265.5 348,-265.5 348,-224.5 160,-224.5"/>
<text text-anchor="start" x="168" y="-253.5" font-family="Helvetica,sans-Serif" font-size="10.00">/home/tcbuilder/buildAgent</text>
<text text-anchor="start" x="168" y="-242.5" font-family="Helvetica,sans-Serif" font-size="10.00">/work/df8e8cce5bebfd58/libajantv2</text>
<text text-anchor="middle" x="254" y="-231.5" font-family="Helvetica,sans-Serif" font-size="10.00">/ajabase/common/timecode.cpp</text>
</a>
</g>
</g>
<!-- Node2 -->
<g id="node2" class="node">
<title>Node2</title>
<g id="a_node2"><a xlink:href="../../dc/d54/common_8h.html" target="_top" xlink:title="Private include file for all ajabase sources.">
<polygon fill="white" stroke="black" points="17.5,-56.5 17.5,-75.5 172.5,-75.5 172.5,-56.5 17.5,-56.5"/>
<text text-anchor="middle" x="95" y="-63.5" font-family="Helvetica,sans-Serif" font-size="10.00">ajabase/common/common.h</text>
</a>
</g>
</g>
<!-- Node1&#45;&gt;Node2 -->
<g id="edge1" class="edge">
<title>Node1&#45;&gt;Node2</title>
<path fill="none" stroke="midnightblue" d="M227.68,-224.26C214.81,-214.07 199.46,-201.05 187,-188 154.5,-153.97 122.64,-108.63 106.29,-84.26"/>
<polygon fill="midnightblue" stroke="midnightblue" points="109.08,-82.13 100.64,-75.73 103.25,-86 109.08,-82.13"/>
</g>
<!-- Node5 -->
<g id="node5" class="node">
<title>Node5</title>
<g id="a_node5"><a xlink:title=" ">
<polygon fill="white" stroke="#bfbfbf" points="68,-0.5 68,-19.5 112,-19.5 112,-0.5 68,-0.5"/>
<text text-anchor="middle" x="90" y="-7.5" font-family="Helvetica,sans-Serif" font-size="10.00">string</text>
</a>
</g>
</g>
<!-- Node1&#45;&gt;Node5 -->
<g id="edge19" class="edge">
<title>Node1&#45;&gt;Node5</title>
<path fill="none" stroke="midnightblue" d="M198.51,-224.48C138.88,-200.12 47.36,-152.15 8,-76 -5.28,-50.3 29.68,-31.43 58.01,-20.83"/>
<polygon fill="midnightblue" stroke="midnightblue" points="59.4,-24.05 67.67,-17.43 57.07,-17.45 59.4,-24.05"/>
</g>
<!-- Node6 -->
<g id="node6" class="node">
<title>Node6</title>
<g id="a_node6"><a xlink:title=" ">
<polygon fill="white" stroke="#bfbfbf" points="180.5,-0.5 180.5,-19.5 227.5,-19.5 227.5,-0.5 180.5,-0.5"/>
<text text-anchor="middle" x="204" y="-7.5" font-family="Helvetica,sans-Serif" font-size="10.00">vector</text>
</a>
</g>
</g>
<!-- Node1&#45;&gt;Node6 -->
<g id="edge20" class="edge">
<title>Node1&#45;&gt;Node6</title>
<path fill="none" stroke="midnightblue" d="M239.02,-224.36C232,-214.08 224.27,-200.96 220,-188 201.8,-132.68 201.74,-62.72 202.96,-29.78"/>
<polygon fill="midnightblue" stroke="midnightblue" points="206.46,-29.9 203.42,-19.75 199.47,-29.58 206.46,-29.9"/>
</g>
<!-- Node8 -->
<g id="node8" class="node">
<title>Node8</title>
<g id="a_node8"><a xlink:href="../../d6/d23/timecode_8h.html" target="_top" xlink:title="Declares the AJATimeCode class.">
<polygon fill="white" stroke="black" points="229,-168.5 229,-187.5 387,-187.5 387,-168.5 229,-168.5"/>
<text text-anchor="middle" x="308" y="-175.5" font-family="Helvetica,sans-Serif" font-size="10.00">ajabase/common/timecode.h</text>
</a>
</g>
</g>
<!-- Node1&#45;&gt;Node8 -->
<g id="edge7" class="edge">
<title>Node1&#45;&gt;Node8</title>
<path fill="none" stroke="midnightblue" d="M270.2,-224.5C277.92,-215.2 287.06,-204.21 294.41,-195.36"/>
<polygon fill="midnightblue" stroke="midnightblue" points="297.11,-197.58 300.81,-187.65 291.73,-193.11 297.11,-197.58"/>
</g>
<!-- Node15 -->
<g id="node15" class="node">
<title>Node15</title>
<g id="a_node15"><a xlink:title=" ">
<polygon fill="white" stroke="#bfbfbf" points="405,-168.5 405,-187.5 461,-187.5 461,-168.5 405,-168.5"/>
<text text-anchor="middle" x="433" y="-175.5" font-family="Helvetica,sans-Serif" font-size="10.00">iomanip</text>
</a>
</g>
</g>
<!-- Node1&#45;&gt;Node15 -->
<g id="edge17" class="edge">
<title>Node1&#45;&gt;Node15</title>
<path fill="none" stroke="midnightblue" d="M307.71,-224.5C337.52,-213.67 373.69,-200.54 399.49,-191.17"/>
<polygon fill="midnightblue" stroke="midnightblue" points="400.97,-194.36 409.17,-187.65 398.58,-187.78 400.97,-194.36"/>
</g>
<!-- Node16 -->
<g id="node16" class="node">
<title>Node16</title>
<g id="a_node16"><a xlink:title=" ">
<polygon fill="white" stroke="#bfbfbf" points="479,-168.5 479,-187.5 535,-187.5 535,-168.5 479,-168.5"/>
<text text-anchor="middle" x="507" y="-175.5" font-family="Helvetica,sans-Serif" font-size="10.00">sstream</text>
</a>
</g>
</g>
<!-- Node1&#45;&gt;Node16 -->
<g id="edge18" class="edge">
<title>Node1&#45;&gt;Node16</title>
<path fill="none" stroke="midnightblue" d="M329.91,-224.5C375.81,-212.71 432.35,-198.18 469.01,-188.76"/>
<polygon fill="midnightblue" stroke="midnightblue" points="469.98,-192.12 478.8,-186.25 468.24,-185.34 469.98,-192.12"/>
</g>
<!-- Node3 -->
<g id="node3" class="node">
<title>Node3</title>
<g id="a_node3"><a xlink:href="../../db/db5/export_8h.html" target="_top" xlink:title="Declares system&#45;dependent import/export macros and libraries.">
<polygon fill="white" stroke="black" points="249,-0.5 249,-19.5 393,-19.5 393,-0.5 249,-0.5"/>
<text text-anchor="middle" x="321" y="-7.5" font-family="Helvetica,sans-Serif" font-size="10.00">ajabase/common/export.h</text>
</a>
</g>
</g>
<!-- Node2&#45;&gt;Node3 -->
<g id="edge2" class="edge">
<title>Node2&#45;&gt;Node3</title>
<path fill="none" stroke="midnightblue" d="M130.81,-56.44C169.99,-47.08 232.88,-32.06 275.52,-21.87"/>
<polygon fill="midnightblue" stroke="midnightblue" points="276.44,-25.24 285.36,-19.52 274.82,-18.44 276.44,-25.24"/>
</g>
<!-- Node4 -->
<g id="node4" class="node">
<title>Node4</title>
<g id="a_node4"><a xlink:title=" ">
<polygon fill="white" stroke="#bfbfbf" points="130,-0.5 130,-19.5 162,-19.5 162,-0.5 130,-0.5"/>
<text text-anchor="middle" x="146" y="-7.5" font-family="Helvetica,sans-Serif" font-size="10.00">set</text>
</a>
</g>
</g>
<!-- Node2&#45;&gt;Node4 -->
<g id="edge3" class="edge">
<title>Node2&#45;&gt;Node4</title>
<path fill="none" stroke="midnightblue" d="M103.42,-56.08C110.85,-48.22 121.85,-36.57 130.81,-27.08"/>
<polygon fill="midnightblue" stroke="midnightblue" points="133.41,-29.42 137.74,-19.75 128.32,-24.62 133.41,-29.42"/>
</g>
<!-- Node2&#45;&gt;Node5 -->
<g id="edge4" class="edge">
<title>Node2&#45;&gt;Node5</title>
<path fill="none" stroke="midnightblue" d="M94.17,-56.08C93.52,-49.01 92.58,-38.86 91.76,-29.99"/>
<polygon fill="midnightblue" stroke="midnightblue" points="95.22,-29.39 90.81,-19.75 88.25,-30.03 95.22,-29.39"/>
</g>
<!-- Node2&#45;&gt;Node6 -->
<g id="edge5" class="edge">
<title>Node2&#45;&gt;Node6</title>
<path fill="none" stroke="midnightblue" d="M112.51,-56.32C130.07,-47.62 157.33,-34.12 177.53,-24.11"/>
<polygon fill="midnightblue" stroke="midnightblue" points="179.12,-27.23 186.53,-19.65 176.02,-20.96 179.12,-27.23"/>
</g>
<!-- Node7 -->
<g id="node7" class="node">
<title>Node7</title>
<g id="a_node7"><a xlink:title=" ">
<polygon fill="white" stroke="#bfbfbf" points="0,-0.5 0,-19.5 50,-19.5 50,-0.5 0,-0.5"/>
<text text-anchor="middle" x="25" y="-7.5" font-family="Helvetica,sans-Serif" font-size="10.00">cstdint</text>
</a>
</g>
</g>
<!-- Node2&#45;&gt;Node7 -->
<g id="edge6" class="edge">
<title>Node2&#45;&gt;Node7</title>
<path fill="none" stroke="midnightblue" d="M83.75,-56.32C73.2,-48.18 57.2,-35.84 44.56,-26.09"/>
<polygon fill="midnightblue" stroke="midnightblue" points="46.51,-23.17 36.45,-19.83 42.23,-28.71 46.51,-23.17"/>
</g>
<!-- Node9 -->
<g id="node9" class="node">
<title>Node9</title>
<g id="a_node9"><a xlink:href="../../d4/d3c/timebase_8h.html" target="_top" xlink:title="Declares the AJATimeBase class.">
<polygon fill="white" stroke="black" points="233,-112.5 233,-131.5 391,-131.5 391,-112.5 233,-112.5"/>
<text text-anchor="middle" x="312" y="-119.5" font-family="Helvetica,sans-Serif" font-size="10.00">ajabase/common/timebase.h</text>
</a>
</g>
</g>
<!-- Node8&#45;&gt;Node9 -->
<g id="edge8" class="edge">
<title>Node8&#45;&gt;Node9</title>
<path fill="none" stroke="midnightblue" d="M308.66,-168.08C309.18,-161.01 309.94,-150.86 310.59,-141.99"/>
<polygon fill="midnightblue" stroke="midnightblue" points="314.1,-141.98 311.35,-131.75 307.12,-141.47 314.1,-141.98"/>
</g>
<!-- Node10 -->
<g id="node10" class="node">
<title>Node10</title>
<g id="a_node10"><a xlink:href="../../d4/d79/public_8h.html" target="_top" xlink:title="Master header for the ajabase library.">
<polygon fill="white" stroke="black" points="414,-56.5 414,-75.5 556,-75.5 556,-56.5 414,-56.5"/>
<text text-anchor="middle" x="485" y="-63.5" font-family="Helvetica,sans-Serif" font-size="10.00">ajabase/common/public.h</text>
</a>
</g>
</g>
<!-- Node9&#45;&gt;Node10 -->
<g id="edge9" class="edge">
<title>Node9&#45;&gt;Node10</title>
<path fill="none" stroke="midnightblue" d="M339.41,-112.44C368.77,-103.28 415.52,-88.69 448.1,-78.52"/>
<polygon fill="midnightblue" stroke="midnightblue" points="449.21,-81.84 457.72,-75.52 447.13,-75.16 449.21,-81.84"/>
</g>
<!-- Node14 -->
<g id="node14" class="node">
<title>Node14</title>
<g id="a_node14"><a xlink:href="../../d6/da4/videotypes_8h.html" target="_top" xlink:title="Declares the enumeration constants used in the ajabase library.">
<polygon fill="white" stroke="black" points="228.5,-56.5 228.5,-75.5 395.5,-75.5 395.5,-56.5 228.5,-56.5"/>
<text text-anchor="middle" x="312" y="-63.5" font-family="Helvetica,sans-Serif" font-size="10.00">ajabase/common/videotypes.h</text>
</a>
</g>
</g>
<!-- Node9&#45;&gt;Node14 -->
<g id="edge16" class="edge">
<title>Node9&#45;&gt;Node14</title>
<path fill="none" stroke="midnightblue" d="M312,-112.08C312,-105.01 312,-94.86 312,-85.99"/>
<polygon fill="midnightblue" stroke="midnightblue" points="315.5,-85.75 312,-75.75 308.5,-85.75 315.5,-85.75"/>
</g>
<!-- Node10&#45;&gt;Node3 -->
<g id="edge10" class="edge">
<title>Node10&#45;&gt;Node3</title>
<path fill="none" stroke="midnightblue" d="M459.01,-56.44C431.3,-47.32 387.25,-32.81 356.38,-22.65"/>
<polygon fill="midnightblue" stroke="midnightblue" points="357.46,-19.32 346.86,-19.52 355.27,-25.97 357.46,-19.32"/>
</g>
<!-- Node10&#45;&gt;Node5 -->
<g id="edge11" class="edge">
<title>Node10&#45;&gt;Node5</title>
<path fill="none" stroke="midnightblue" d="M413.59,-56.79C322.82,-46.27 172.66,-28.54 122.16,-19.79"/>
<polygon fill="midnightblue" stroke="midnightblue" points="122.72,-16.34 112.24,-17.92 121.42,-23.22 122.72,-16.34"/>
</g>
<!-- Node10&#45;&gt;Node6 -->
<g id="edge13" class="edge">
<title>Node10&#45;&gt;Node6</title>
<path fill="none" stroke="midnightblue" d="M433.19,-56.46C383.47,-48.04 306.36,-34.37 240,-20 239.12,-19.81 238.23,-19.61 237.33,-19.41"/>
<polygon fill="midnightblue" stroke="midnightblue" points="238.11,-16 227.57,-17.12 236.51,-22.81 238.11,-16"/>
</g>
<!-- Node11 -->
<g id="node11" class="node">
<title>Node11</title>
<g id="a_node11"><a xlink:title=" ">
<polygon fill="white" stroke="#bfbfbf" points="416,-0.5 416,-19.5 448,-19.5 448,-0.5 416,-0.5"/>
<text text-anchor="middle" x="432" y="-7.5" font-family="Helvetica,sans-Serif" font-size="10.00">list</text>
</a>
</g>
</g>
<!-- Node10&#45;&gt;Node11 -->
<g id="edge12" class="edge">
<title>Node10&#45;&gt;Node11</title>
<path fill="none" stroke="midnightblue" d="M476.25,-56.08C468.53,-48.22 457.1,-36.57 447.78,-27.08"/>
<polygon fill="midnightblue" stroke="midnightblue" points="450.09,-24.44 440.59,-19.75 445.1,-29.34 450.09,-24.44"/>
</g>
<!-- Node12 -->
<g id="node12" class="node">
<title>Node12</title>
<g id="a_node12"><a xlink:title=" ">
<polygon fill="white" stroke="#bfbfbf" points="466,-0.5 466,-19.5 504,-19.5 504,-0.5 466,-0.5"/>
<text text-anchor="middle" x="485" y="-7.5" font-family="Helvetica,sans-Serif" font-size="10.00">map</text>
</a>
</g>
</g>
<!-- Node10&#45;&gt;Node12 -->
<g id="edge14" class="edge">
<title>Node10&#45;&gt;Node12</title>
<path fill="none" stroke="midnightblue" d="M485,-56.08C485,-49.01 485,-38.86 485,-29.99"/>
<polygon fill="midnightblue" stroke="midnightblue" points="488.5,-29.75 485,-19.75 481.5,-29.75 488.5,-29.75"/>
</g>
<!-- Node13 -->
<g id="node13" class="node">
<title>Node13</title>
<g id="a_node13"><a xlink:href="../../d9/d49/types_8h.html" target="_top" xlink:title="Declares common types used in the ajabase library.">
<polygon fill="white" stroke="black" points="522,-0.5 522,-19.5 662,-19.5 662,-0.5 522,-0.5"/>
<text text-anchor="middle" x="592" y="-7.5" font-family="Helvetica,sans-Serif" font-size="10.00">ajabase/common/types.h</text>
</a>
</g>
</g>
<!-- Node10&#45;&gt;Node13 -->
<g id="edge15" class="edge">
<title>Node10&#45;&gt;Node13</title>
<path fill="none" stroke="midnightblue" d="M502.19,-56.32C519.35,-47.66 545.95,-34.24 565.75,-24.25"/>
<polygon fill="midnightblue" stroke="midnightblue" points="567.5,-27.28 574.85,-19.65 564.35,-21.04 567.5,-27.28"/>
</g>
</g>
</svg>
