<?xml version="1.0" encoding="UTF-8" standalone="no"?>
<!DOCTYPE svg PUBLIC "-//W3C//DTD SVG 1.1//EN"
 "http://www.w3.org/Graphics/SVG/1.1/DTD/svg11.dtd">
<!-- Generated by graphviz version 2.43.0 (0)
 -->
<!-- Title: /home/tcbuilder/buildAgent/work/df8e8cce5bebfd58/libajantv2/ajabase/common/ajamovingavg.h Pages: 1 -->
<svg width="744pt" height="218pt"
 viewBox="0.00 0.00 743.50 218.00" xmlns="http://www.w3.org/2000/svg" xmlns:xlink="http://www.w3.org/1999/xlink">
<g id="graph0" class="graph" transform="scale(1 1) rotate(0) translate(4 214)">
<title>/home/tcbuilder/buildAgent/work/df8e8cce5bebfd58/libajantv2/ajabase/common/ajamovingavg.h</title>
<polygon fill="white" stroke="transparent" points="-4,4 -4,-214 739.5,-214 739.5,4 -4,4"/>
<!-- Node1 -->
<g id="node1" class="node">
<title>Node1</title>
<g id="a_node1"><a xlink:title="Declares the AJAMovingAvg class.">
<polygon fill="#bfbfbf" stroke="black" points="436,-168.5 436,-209.5 624,-209.5 624,-168.5 436,-168.5"/>
<text text-anchor="start" x="444" y="-197.5" font-family="Helvetica,sans-Serif" font-size="10.00">/home/tcbuilder/buildAgent</text>
<text text-anchor="start" x="444" y="-186.5" font-family="Helvetica,sans-Serif" font-size="10.00">/work/df8e8cce5bebfd58/libajantv2</text>
<text text-anchor="middle" x="530" y="-175.5" font-family="Helvetica,sans-Serif" font-size="10.00">/ajabase/common/ajamovingavg.h</text>
</a>
</g>
</g>
<!-- Node2 -->
<g id="node2" class="node">
<title>Node2</title>
<g id="a_node2"><a xlink:href="../../dd/d42/lock_8h.html" target="_top" xlink:title="Declares the AJALock class.">
<polygon fill="white" stroke="black" points="264,-112.5 264,-131.5 390,-131.5 390,-112.5 264,-112.5"/>
<text text-anchor="middle" x="327" y="-119.5" font-family="Helvetica,sans-Serif" font-size="10.00">ajabase/system/lock.h</text>
</a>
</g>
</g>
<!-- Node1&#45;&gt;Node2 -->
<g id="edge1" class="edge">
<title>Node1&#45;&gt;Node2</title>
<path fill="none" stroke="midnightblue" d="M469.09,-168.5C434.72,-157.49 392.92,-144.11 363.58,-134.71"/>
<polygon fill="midnightblue" stroke="midnightblue" points="364.35,-131.28 353.76,-131.57 362.21,-137.95 364.35,-131.28"/>
</g>
<!-- Node11 -->
<g id="node11" class="node">
<title>Node11</title>
<g id="a_node11"><a xlink:title=" ">
<polygon fill="white" stroke="#bfbfbf" points="408,-112.5 408,-131.5 458,-131.5 458,-112.5 408,-112.5"/>
<text text-anchor="middle" x="433" y="-119.5" font-family="Helvetica,sans-Serif" font-size="10.00">climits</text>
</a>
</g>
</g>
<!-- Node1&#45;&gt;Node11 -->
<g id="edge10" class="edge">
<title>Node1&#45;&gt;Node11</title>
<path fill="none" stroke="midnightblue" d="M500.9,-168.5C486.02,-158.53 468.24,-146.61 454.6,-137.48"/>
<polygon fill="midnightblue" stroke="midnightblue" points="456.17,-134.31 445.91,-131.65 452.27,-140.13 456.17,-134.31"/>
</g>
<!-- Node12 -->
<g id="node12" class="node">
<title>Node12</title>
<g id="a_node12"><a xlink:title=" ">
<polygon fill="white" stroke="#bfbfbf" points="476,-112.5 476,-131.5 520,-131.5 520,-112.5 476,-112.5"/>
<text text-anchor="middle" x="498" y="-119.5" font-family="Helvetica,sans-Serif" font-size="10.00">cfloat</text>
</a>
</g>
</g>
<!-- Node1&#45;&gt;Node12 -->
<g id="edge11" class="edge">
<title>Node1&#45;&gt;Node12</title>
<path fill="none" stroke="midnightblue" d="M520.4,-168.5C516.06,-159.68 510.97,-149.34 506.74,-140.74"/>
<polygon fill="midnightblue" stroke="midnightblue" points="509.82,-139.08 502.26,-131.65 503.54,-142.17 509.82,-139.08"/>
</g>
<!-- Node13 -->
<g id="node13" class="node">
<title>Node13</title>
<g id="a_node13"><a xlink:title=" ">
<polygon fill="white" stroke="#bfbfbf" points="538.5,-112.5 538.5,-131.5 585.5,-131.5 585.5,-112.5 538.5,-112.5"/>
<text text-anchor="middle" x="562" y="-119.5" font-family="Helvetica,sans-Serif" font-size="10.00">deque</text>
</a>
</g>
</g>
<!-- Node1&#45;&gt;Node13 -->
<g id="edge12" class="edge">
<title>Node1&#45;&gt;Node13</title>
<path fill="none" stroke="midnightblue" d="M539.6,-168.5C543.94,-159.68 549.03,-149.34 553.26,-140.74"/>
<polygon fill="midnightblue" stroke="midnightblue" points="556.46,-142.17 557.74,-131.65 550.18,-139.08 556.46,-142.17"/>
</g>
<!-- Node14 -->
<g id="node14" class="node">
<title>Node14</title>
<g id="a_node14"><a xlink:title=" ">
<polygon fill="white" stroke="#bfbfbf" points="603.5,-112.5 603.5,-131.5 660.5,-131.5 660.5,-112.5 603.5,-112.5"/>
<text text-anchor="middle" x="632" y="-119.5" font-family="Helvetica,sans-Serif" font-size="10.00">ostream</text>
</a>
</g>
</g>
<!-- Node1&#45;&gt;Node14 -->
<g id="edge13" class="edge">
<title>Node1&#45;&gt;Node14</title>
<path fill="none" stroke="midnightblue" d="M560.6,-168.5C576.39,-158.44 595.3,-146.38 609.7,-137.21"/>
<polygon fill="midnightblue" stroke="midnightblue" points="611.87,-139.98 618.42,-131.65 608.11,-134.08 611.87,-139.98"/>
</g>
<!-- Node15 -->
<g id="node15" class="node">
<title>Node15</title>
<g id="a_node15"><a xlink:title=" ">
<polygon fill="white" stroke="#bfbfbf" points="678.5,-112.5 678.5,-131.5 735.5,-131.5 735.5,-112.5 678.5,-112.5"/>
<text text-anchor="middle" x="707" y="-119.5" font-family="Helvetica,sans-Serif" font-size="10.00">typeinfo</text>
</a>
</g>
</g>
<!-- Node1&#45;&gt;Node15 -->
<g id="edge14" class="edge">
<title>Node1&#45;&gt;Node15</title>
<path fill="none" stroke="midnightblue" d="M583.11,-168.5C612.59,-157.67 648.35,-144.54 673.86,-135.17"/>
<polygon fill="midnightblue" stroke="midnightblue" points="675.26,-138.39 683.44,-131.65 672.84,-131.81 675.26,-138.39"/>
</g>
<!-- Node3 -->
<g id="node3" class="node">
<title>Node3</title>
<g id="a_node3"><a xlink:href="../../d4/d79/public_8h.html" target="_top" xlink:title="Master header for the ajabase library.">
<polygon fill="white" stroke="black" points="198,-56.5 198,-75.5 340,-75.5 340,-56.5 198,-56.5"/>
<text text-anchor="middle" x="269" y="-63.5" font-family="Helvetica,sans-Serif" font-size="10.00">ajabase/common/public.h</text>
</a>
</g>
</g>
<!-- Node2&#45;&gt;Node3 -->
<g id="edge2" class="edge">
<title>Node2&#45;&gt;Node3</title>
<path fill="none" stroke="midnightblue" d="M317.68,-112.32C309.11,-104.34 296.19,-92.31 285.81,-82.65"/>
<polygon fill="midnightblue" stroke="midnightblue" points="288.19,-80.09 278.49,-75.83 283.42,-85.21 288.19,-80.09"/>
</g>
<!-- Node10 -->
<g id="node10" class="node">
<title>Node10</title>
<g id="a_node10"><a xlink:title=" ">
<polygon fill="white" stroke="#bfbfbf" points="358,-56.5 358,-75.5 414,-75.5 414,-56.5 358,-56.5"/>
<text text-anchor="middle" x="386" y="-63.5" font-family="Helvetica,sans-Serif" font-size="10.00">assert.h</text>
</a>
</g>
</g>
<!-- Node2&#45;&gt;Node10 -->
<g id="edge9" class="edge">
<title>Node2&#45;&gt;Node10</title>
<path fill="none" stroke="midnightblue" d="M336.48,-112.32C345.2,-104.34 358.34,-92.31 368.9,-82.65"/>
<polygon fill="midnightblue" stroke="midnightblue" points="371.33,-85.17 376.35,-75.83 366.61,-80 371.33,-85.17"/>
</g>
<!-- Node4 -->
<g id="node4" class="node">
<title>Node4</title>
<g id="a_node4"><a xlink:href="../../db/db5/export_8h.html" target="_top" xlink:title="Declares system&#45;dependent import/export macros and libraries.">
<polygon fill="white" stroke="black" points="0,-0.5 0,-19.5 144,-19.5 144,-0.5 0,-0.5"/>
<text text-anchor="middle" x="72" y="-7.5" font-family="Helvetica,sans-Serif" font-size="10.00">ajabase/common/export.h</text>
</a>
</g>
</g>
<!-- Node3&#45;&gt;Node4 -->
<g id="edge3" class="edge">
<title>Node3&#45;&gt;Node4</title>
<path fill="none" stroke="midnightblue" d="M237.78,-56.44C204.07,-47.2 150.2,-32.44 113.07,-22.26"/>
<polygon fill="midnightblue" stroke="midnightblue" points="113.64,-18.78 103.07,-19.52 111.79,-25.54 113.64,-18.78"/>
</g>
<!-- Node5 -->
<g id="node5" class="node">
<title>Node5</title>
<g id="a_node5"><a xlink:title=" ">
<polygon fill="white" stroke="#bfbfbf" points="162,-0.5 162,-19.5 206,-19.5 206,-0.5 162,-0.5"/>
<text text-anchor="middle" x="184" y="-7.5" font-family="Helvetica,sans-Serif" font-size="10.00">string</text>
</a>
</g>
</g>
<!-- Node3&#45;&gt;Node5 -->
<g id="edge4" class="edge">
<title>Node3&#45;&gt;Node5</title>
<path fill="none" stroke="midnightblue" d="M255.34,-56.32C242.08,-47.9 221.73,-34.97 206.15,-25.07"/>
<polygon fill="midnightblue" stroke="midnightblue" points="207.94,-22.06 197.62,-19.65 204.19,-27.97 207.94,-22.06"/>
</g>
<!-- Node6 -->
<g id="node6" class="node">
<title>Node6</title>
<g id="a_node6"><a xlink:title=" ">
<polygon fill="white" stroke="#bfbfbf" points="224,-0.5 224,-19.5 256,-19.5 256,-0.5 224,-0.5"/>
<text text-anchor="middle" x="240" y="-7.5" font-family="Helvetica,sans-Serif" font-size="10.00">list</text>
</a>
</g>
</g>
<!-- Node3&#45;&gt;Node6 -->
<g id="edge5" class="edge">
<title>Node3&#45;&gt;Node6</title>
<path fill="none" stroke="midnightblue" d="M264.21,-56.08C260.24,-48.69 254.47,-37.95 249.57,-28.81"/>
<polygon fill="midnightblue" stroke="midnightblue" points="252.51,-26.91 244.7,-19.75 246.35,-30.22 252.51,-26.91"/>
</g>
<!-- Node7 -->
<g id="node7" class="node">
<title>Node7</title>
<g id="a_node7"><a xlink:title=" ">
<polygon fill="white" stroke="#bfbfbf" points="274.5,-0.5 274.5,-19.5 321.5,-19.5 321.5,-0.5 274.5,-0.5"/>
<text text-anchor="middle" x="298" y="-7.5" font-family="Helvetica,sans-Serif" font-size="10.00">vector</text>
</a>
</g>
</g>
<!-- Node3&#45;&gt;Node7 -->
<g id="edge6" class="edge">
<title>Node3&#45;&gt;Node7</title>
<path fill="none" stroke="midnightblue" d="M273.79,-56.08C277.76,-48.69 283.53,-37.95 288.43,-28.81"/>
<polygon fill="midnightblue" stroke="midnightblue" points="291.65,-30.22 293.3,-19.75 285.49,-26.91 291.65,-30.22"/>
</g>
<!-- Node8 -->
<g id="node8" class="node">
<title>Node8</title>
<g id="a_node8"><a xlink:title=" ">
<polygon fill="white" stroke="#bfbfbf" points="340,-0.5 340,-19.5 378,-19.5 378,-0.5 340,-0.5"/>
<text text-anchor="middle" x="359" y="-7.5" font-family="Helvetica,sans-Serif" font-size="10.00">map</text>
</a>
</g>
</g>
<!-- Node3&#45;&gt;Node8 -->
<g id="edge7" class="edge">
<title>Node3&#45;&gt;Node8</title>
<path fill="none" stroke="midnightblue" d="M283.46,-56.32C297.5,-47.9 319.05,-34.97 335.54,-25.07"/>
<polygon fill="midnightblue" stroke="midnightblue" points="337.8,-27.8 344.58,-19.65 334.2,-21.8 337.8,-27.8"/>
</g>
<!-- Node9 -->
<g id="node9" class="node">
<title>Node9</title>
<g id="a_node9"><a xlink:href="../../d9/d49/types_8h.html" target="_top" xlink:title="Declares common types used in the ajabase library.">
<polygon fill="white" stroke="black" points="396,-0.5 396,-19.5 536,-19.5 536,-0.5 396,-0.5"/>
<text text-anchor="middle" x="466" y="-7.5" font-family="Helvetica,sans-Serif" font-size="10.00">ajabase/common/types.h</text>
</a>
</g>
</g>
<!-- Node3&#45;&gt;Node9 -->
<g id="edge8" class="edge">
<title>Node3&#45;&gt;Node9</title>
<path fill="none" stroke="midnightblue" d="M300.22,-56.44C333.93,-47.2 387.8,-32.44 424.93,-22.26"/>
<polygon fill="midnightblue" stroke="midnightblue" points="426.21,-25.54 434.93,-19.52 424.36,-18.78 426.21,-25.54"/>
</g>
</g>
</svg>
