<?xml version="1.0" encoding="UTF-8" standalone="no"?>
<!DOCTYPE svg PUBLIC "-//W3C//DTD SVG 1.1//EN"
 "http://www.w3.org/Graphics/SVG/1.1/DTD/svg11.dtd">
<!-- Generated by graphviz version 2.40.1 (0)
 -->
<!-- Title: CBasicAudio Pages: 1 -->
<svg width="226pt" height="140pt"
 viewBox="0.00 0.00 226.00 140.00" xmlns="http://www.w3.org/2000/svg" xmlns:xlink="http://www.w3.org/1999/xlink">
<g id="graph0" class="graph" transform="scale(1 1) rotate(0) translate(4 136)">
<title>CBasicAudio</title>
<polygon fill="#ffffff" stroke="transparent" points="-4,4 -4,-136 222,-136 222,4 -4,4"/>
<!-- Node5 -->
<g id="node1" class="node">
<title>Node5</title>
<polygon fill="#bfbfbf" stroke="#000000" points="41.5,-.5 41.5,-19.5 115.5,-19.5 115.5,-.5 41.5,-.5"/>
<text text-anchor="middle" x="78.5" y="-7.5" font-family="Helvetica,sans-Serif" font-size="10.00" fill="#000000">CBasicAudio</text>
</g>
<!-- Node6 -->
<g id="node2" class="node">
<title>Node6</title>
<polygon fill="#ffffff" stroke="#bfbfbf" points="2,-56.5 2,-75.5 71,-75.5 71,-56.5 2,-56.5"/>
<text text-anchor="middle" x="36.5" y="-63.5" font-family="Helvetica,sans-Serif" font-size="10.00" fill="#000000">IBasicAudio</text>
</g>
<!-- Node6&#45;&gt;Node5 -->
<g id="edge1" class="edge">
<title>Node6&#45;&gt;Node5</title>
<path fill="none" stroke="#191970" d="M49.8416,-48.2112C56.9396,-38.7472 65.3903,-27.4797 71.268,-19.6427"/>
<polygon fill="#191970" stroke="#191970" points="47.0159,-46.1455 43.8158,-56.2455 52.6159,-50.3455 47.0159,-46.1455"/>
</g>
<!-- Node7 -->
<g id="node3" class="node">
<title>Node7</title>
<g id="a_node3"><a xlink:href="../../d9/d89/class_c_unknown.html" target="_top" xlink:title="CUnknown">
<polygon fill="#ffffff" stroke="#000000" points="89,-56.5 89,-75.5 154,-75.5 154,-56.5 89,-56.5"/>
<text text-anchor="middle" x="121.5" y="-63.5" font-family="Helvetica,sans-Serif" font-size="10.00" fill="#000000">CUnknown</text>
</a>
</g>
</g>
<!-- Node7&#45;&gt;Node5 -->
<g id="edge2" class="edge">
<title>Node7&#45;&gt;Node5</title>
<path fill="none" stroke="#191970" d="M107.8408,-48.2112C100.5737,-38.7472 91.9219,-27.4797 85.9042,-19.6427"/>
<polygon fill="#191970" stroke="#191970" points="105.1436,-50.4456 114.01,-56.2455 110.6957,-46.1824 105.1436,-50.4456"/>
</g>
<!-- Node8 -->
<g id="node4" class="node">
<title>Node8</title>
<polygon fill="#ffffff" stroke="#bfbfbf" points="0,-112.5 0,-131.5 125,-131.5 125,-112.5 0,-112.5"/>
<text text-anchor="middle" x="62.5" y="-119.5" font-family="Helvetica,sans-Serif" font-size="10.00" fill="#000000">INonDelegatingUnknown</text>
</g>
<!-- Node8&#45;&gt;Node7 -->
<g id="edge3" class="edge">
<title>Node8&#45;&gt;Node7</title>
<path fill="none" stroke="#191970" d="M80.0307,-105.3607C90.2377,-95.6727 102.7469,-83.7995 111.3408,-75.6427"/>
<polygon fill="#191970" stroke="#191970" points="77.6206,-102.8227 72.777,-112.2455 82.4396,-107.8998 77.6206,-102.8227"/>
</g>
<!-- Node9 -->
<g id="node5" class="node">
<title>Node9</title>
<g id="a_node5"><a xlink:href="../../d1/d2d/class_c_base_object.html" target="_top" xlink:title="CBaseObject">
<polygon fill="#ffffff" stroke="#000000" points="143,-112.5 143,-131.5 218,-131.5 218,-112.5 143,-112.5"/>
<text text-anchor="middle" x="180.5" y="-119.5" font-family="Helvetica,sans-Serif" font-size="10.00" fill="#000000">CBaseObject</text>
</a>
</g>
</g>
<!-- Node9&#45;&gt;Node7 -->
<g id="edge4" class="edge">
<title>Node9&#45;&gt;Node7</title>
<path fill="none" stroke="#191970" d="M162.9693,-105.3607C152.7623,-95.6727 140.2531,-83.7995 131.6592,-75.6427"/>
<polygon fill="#191970" stroke="#191970" points="160.5604,-107.8998 170.223,-112.2455 165.3794,-102.8227 160.5604,-107.8998"/>
</g>
</g>
</svg>
