<?xml version="1.0" encoding="UTF-8" standalone="no"?>
<!DOCTYPE svg PUBLIC "-//W3C//DTD SVG 1.1//EN"
 "http://www.w3.org/Graphics/SVG/1.1/DTD/svg11.dtd">
<!-- Generated by graphviz version 2.40.1 (0)
 -->
<!-- Title: NTV2RPCBase Pages: 1 -->
<svg width="168pt" height="95pt"
 viewBox="0.00 0.00 168.00 95.00" xmlns="http://www.w3.org/2000/svg" xmlns:xlink="http://www.w3.org/1999/xlink">
<g id="graph0" class="graph" transform="scale(1 1) rotate(0) translate(4 91)">
<title>NTV2RPCBase</title>
<polygon fill="#ffffff" stroke="transparent" points="-4,4 -4,-91 164,-91 164,4 -4,4"/>
<!-- Node3 -->
<g id="node1" class="node">
<title>Node3</title>
<polygon fill="#bfbfbf" stroke="#000000" points="29,-.5 29,-19.5 115,-19.5 115,-.5 29,-.5"/>
<text text-anchor="middle" x="72" y="-7.5" font-family="Helvetica,sans-Serif" font-size="10.00" fill="#000000">NTV2RPCBase</text>
</g>
<!-- Node4 -->
<g id="node2" class="node">
<title>Node4</title>
<g id="a_node2"><a xlink:href="../../d9/df4/class_a_j_a_lock.html" target="_top" xlink:title="AJALock">
<polygon fill="#ffffff" stroke="#000000" points="0,-67.5 0,-86.5 56,-86.5 56,-67.5 0,-67.5"/>
<text text-anchor="middle" x="28" y="-74.5" font-family="Helvetica,sans-Serif" font-size="10.00" fill="#000000">AJALock</text>
</a>
</g>
</g>
<!-- Node4&#45;&gt;Node3 -->
<g id="edge1" class="edge">
<title>Node4&#45;&gt;Node3</title>
<path fill="none" stroke="#9a32cd" stroke-dasharray="5,2" d="M28.0781,-57.2087C28.8519,-50.7151 30.5463,-43.707 34,-38 38.5822,-30.4282 46.0613,-24.2617 53.1776,-19.6624"/>
<polygon fill="#9a32cd" stroke="#9a32cd" points="24.576,-57.1466 27.4969,-67.3309 31.5645,-57.548 24.576,-57.1466"/>
<text text-anchor="middle" x="64.5" y="-41" font-family="Helvetica,sans-Serif" font-size="10.00" fill="#000000"> mParamLock</text>
</g>
<!-- Node5 -->
<g id="node3" class="node">
<title>Node5</title>
<g id="a_node3"><a xlink:href="../../d6/d01/class_n_t_v2_dictionary.html" target="_top" xlink:title="A simple (not thread&#45;safe) set of key/value pairs. (New in SDK 16.3) ">
<polygon fill="#ffffff" stroke="#000000" points="74,-67.5 74,-86.5 160,-86.5 160,-67.5 74,-67.5"/>
<text text-anchor="middle" x="117" y="-74.5" font-family="Helvetica,sans-Serif" font-size="10.00" fill="#000000">NTV2Dictionary</text>
</a>
</g>
</g>
<!-- Node5&#45;&gt;Node3 -->
<g id="edge2" class="edge">
<title>Node5&#45;&gt;Node3</title>
<path fill="none" stroke="#9a32cd" stroke-dasharray="5,2" d="M107.4276,-58.5021C103.779,-51.882 99.4279,-44.4633 95,-38 90.5913,-31.5646 85.0573,-24.7942 80.5225,-19.5232"/>
<polygon fill="#9a32cd" stroke="#9a32cd" points="104.3968,-60.2566 112.1977,-67.4257 110.5701,-56.9566 104.3968,-60.2566"/>
<text text-anchor="middle" x="124" y="-41" font-family="Helvetica,sans-Serif" font-size="10.00" fill="#000000"> mParams</text>
</g>
</g>
</svg>
