<?xml version="1.0" encoding="UTF-8" standalone="no"?>
<!DOCTYPE svg PUBLIC "-//W3C//DTD SVG 1.1//EN"
 "http://www.w3.org/Graphics/SVG/1.1/DTD/svg11.dtd">
<!-- Generated by graphviz version 2.40.1 (0)
 -->
<!-- Title: /home/tcbuilder/buildAgent/work/df8e8cce5bebfd58/libajantv2/ajantv2/includes/ntv2utils.h Pages: 1 -->
<svg width="1153pt" height="330pt"
 viewBox="0.00 0.00 1153.00 330.00" xmlns="http://www.w3.org/2000/svg" xmlns:xlink="http://www.w3.org/1999/xlink">
<g id="graph0" class="graph" transform="scale(1 1) rotate(0) translate(4 326)">
<title>/home/tcbuilder/buildAgent/work/df8e8cce5bebfd58/libajantv2/ajantv2/includes/ntv2utils.h</title>
<polygon fill="#ffffff" stroke="transparent" points="-4,4 -4,-326 1149,-326 1149,4 -4,4"/>
<!-- Node0 -->
<g id="node1" class="node">
<title>Node0</title>
<polygon fill="#bfbfbf" stroke="#000000" points="347.5,-280.5 347.5,-321.5 514.5,-321.5 514.5,-280.5 347.5,-280.5"/>
<text text-anchor="start" x="355.5" y="-309.5" font-family="Helvetica,sans-Serif" font-size="10.00" fill="#000000">/home/tcbuilder/buildAgent</text>
<text text-anchor="start" x="355.5" y="-298.5" font-family="Helvetica,sans-Serif" font-size="10.00" fill="#000000">/work/df8e8cce5bebfd58/libajantv2</text>
<text text-anchor="middle" x="431" y="-287.5" font-family="Helvetica,sans-Serif" font-size="10.00" fill="#000000">/ajantv2/includes/ntv2utils.h</text>
</g>
<!-- Node1 -->
<g id="node2" class="node">
<title>Node1</title>
<g id="a_node2"><a xlink:href="../../d6/dd9/ajaexport_8h.html" target="_top" xlink:title="Defines the import/export macros for producing DLLs or LIBs. ">
<polygon fill="#ffffff" stroke="#000000" points="191.5,-.5 191.5,-19.5 256.5,-19.5 256.5,-.5 191.5,-.5"/>
<text text-anchor="middle" x="224" y="-7.5" font-family="Helvetica,sans-Serif" font-size="10.00" fill="#000000">ajaexport.h</text>
</a>
</g>
</g>
<!-- Node0&#45;&gt;Node1 -->
<g id="edge1" class="edge">
<title>Node0&#45;&gt;Node1</title>
<path fill="none" stroke="#191970" d="M347.3878,-294.2218C222.0506,-281.723 0,-249.4914 0,-178 0,-178 0,-178 0,-122 0,-81.8638 116.5038,-41.3669 181.47,-21.9046"/>
<polygon fill="#191970" stroke="#191970" points="182.8286,-25.153 191.4285,-18.9649 180.8467,-18.4394 182.8286,-25.153"/>
</g>
<!-- Node2 -->
<g id="node3" class="node">
<title>Node2</title>
<g id="a_node3"><a xlink:href="../../db/de2/ajatypes_8h.html" target="_top" xlink:title="Declares the most fundamental data types used by NTV2. Since Windows NT was the first principal devel...">
<polygon fill="#ffffff" stroke="#000000" points="97,-56.5 97,-75.5 159,-75.5 159,-56.5 97,-56.5"/>
<text text-anchor="middle" x="128" y="-63.5" font-family="Helvetica,sans-Serif" font-size="10.00" fill="#000000">ajatypes.h</text>
</a>
</g>
</g>
<!-- Node0&#45;&gt;Node2 -->
<g id="edge2" class="edge">
<title>Node0&#45;&gt;Node2</title>
<path fill="none" stroke="#191970" d="M347.1824,-288.452C246.8531,-271.3982 88.3808,-237.274 57,-188 33.2768,-150.7499 78.1371,-105.4877 106.7782,-81.9528"/>
<polygon fill="#191970" stroke="#191970" points="109.0577,-84.6118 114.7042,-75.6469 104.6996,-79.1339 109.0577,-84.6118"/>
</g>
<!-- Node5 -->
<g id="node6" class="node">
<title>Node5</title>
<g id="a_node6"><a xlink:href="../../d6/d0c/ntv2enums_8h.html" target="_top" xlink:title="Enumerations for controlling NTV2 devices. ">
<polygon fill="#ffffff" stroke="#000000" points="215.5,-112.5 215.5,-131.5 288.5,-131.5 288.5,-112.5 215.5,-112.5"/>
<text text-anchor="middle" x="252" y="-119.5" font-family="Helvetica,sans-Serif" font-size="10.00" fill="#000000">ntv2enums.h</text>
</a>
</g>
</g>
<!-- Node0&#45;&gt;Node5 -->
<g id="edge5" class="edge">
<title>Node0&#45;&gt;Node5</title>
<path fill="none" stroke="#191970" d="M379.0803,-280.4541C360.2386,-271.2642 339.7367,-259.0638 324,-244 292.6141,-213.956 270.2587,-167.28 259.4165,-141.234"/>
<polygon fill="#191970" stroke="#191970" points="262.5767,-139.7116 255.5972,-131.7406 256.0825,-142.3243 262.5767,-139.7116"/>
</g>
<!-- Node7 -->
<g id="node8" class="node">
<title>Node7</title>
<polygon fill="#ffffff" stroke="#bfbfbf" points="584.5,-.5 584.5,-19.5 625.5,-19.5 625.5,-.5 584.5,-.5"/>
<text text-anchor="middle" x="605" y="-7.5" font-family="Helvetica,sans-Serif" font-size="10.00" fill="#000000">string</text>
</g>
<!-- Node0&#45;&gt;Node7 -->
<g id="edge35" class="edge">
<title>Node0&#45;&gt;Node7</title>
<path fill="none" stroke="#191970" d="M514.532,-292.2971C678.1392,-274.1183 1025,-229.5045 1025,-178 1025,-178 1025,-178 1025,-122 1025,-41.3518 732.227,-17.2991 635.5606,-11.5555"/>
<polygon fill="#191970" stroke="#191970" points="635.7247,-8.0593 625.5418,-10.9848 635.3265,-15.048 635.7247,-8.0593"/>
</g>
<!-- Node8 -->
<g id="node9" class="node">
<title>Node8</title>
<g id="a_node9"><a xlink:href="../../d9/d61/ntv2videodefines_8h.html" target="_top" xlink:title="Declares common video macros and structs used in the SDK. ">
<polygon fill="#ffffff" stroke="#000000" points="66,-168.5 66,-187.5 164,-187.5 164,-168.5 66,-168.5"/>
<text text-anchor="middle" x="115" y="-175.5" font-family="Helvetica,sans-Serif" font-size="10.00" fill="#000000">ntv2videodefines.h</text>
</a>
</g>
</g>
<!-- Node0&#45;&gt;Node8 -->
<g id="edge10" class="edge">
<title>Node0&#45;&gt;Node8</title>
<path fill="none" stroke="#191970" d="M347.4739,-285.3863C306.7644,-276.154 257.7136,-262.5772 216,-244 185.9658,-230.6243 154.7927,-208.8395 135.1679,-193.9856"/>
<polygon fill="#191970" stroke="#191970" points="137.068,-191.0313 127.0093,-187.7036 132.7974,-196.5777 137.068,-191.0313"/>
</g>
<!-- Node9 -->
<g id="node10" class="node">
<title>Node9</title>
<g id="a_node10"><a xlink:href="../../d4/dd7/ntv2publicinterface_8h.html" target="_top" xlink:title="Declares enums and structs used by all platform drivers and the SDK. ">
<polygon fill="#ffffff" stroke="#000000" points="516.5,-168.5 516.5,-187.5 623.5,-187.5 623.5,-168.5 516.5,-168.5"/>
<text text-anchor="middle" x="570" y="-175.5" font-family="Helvetica,sans-Serif" font-size="10.00" fill="#000000">ntv2publicinterface.h</text>
</a>
</g>
</g>
<!-- Node0&#45;&gt;Node9 -->
<g id="edge12" class="edge">
<title>Node0&#45;&gt;Node9</title>
<path fill="none" stroke="#191970" d="M454.2655,-280.4126C481.6231,-256.204 526.4731,-216.5166 551.5509,-194.3255"/>
<polygon fill="#191970" stroke="#191970" points="554.0742,-196.7662 559.2437,-187.5182 549.4353,-191.524 554.0742,-196.7662"/>
</g>
<!-- Node10 -->
<g id="node11" class="node">
<title>Node10</title>
<polygon fill="#ffffff" stroke="#bfbfbf" points="881,-112.5 881,-131.5 935,-131.5 935,-112.5 881,-112.5"/>
<text text-anchor="middle" x="908" y="-119.5" font-family="Helvetica,sans-Serif" font-size="10.00" fill="#000000">iostream</text>
</g>
<!-- Node0&#45;&gt;Node10 -->
<g id="edge36" class="edge">
<title>Node0&#45;&gt;Node10</title>
<path fill="none" stroke="#191970" d="M485.718,-280.4664C584.7173,-243.3157 790.9124,-165.9385 873.0943,-135.0988"/>
<polygon fill="#191970" stroke="#191970" points="874.3534,-138.3647 882.4862,-131.5744 871.894,-131.8109 874.3534,-138.3647"/>
</g>
<!-- Node13 -->
<g id="node14" class="node">
<title>Node13</title>
<polygon fill="#ffffff" stroke="#bfbfbf" points="953,-112.5 953,-131.5 997,-131.5 997,-112.5 953,-112.5"/>
<text text-anchor="middle" x="975" y="-119.5" font-family="Helvetica,sans-Serif" font-size="10.00" fill="#000000">vector</text>
</g>
<!-- Node0&#45;&gt;Node13 -->
<g id="edge37" class="edge">
<title>Node0&#45;&gt;Node13</title>
<path fill="none" stroke="#191970" d="M502.4244,-280.4714C538.4031,-269.9312 582.6359,-256.6696 622,-244 741.2755,-205.6103 881.6204,-155.6619 943.2626,-133.4795"/>
<polygon fill="#191970" stroke="#191970" points="944.5872,-136.7226 952.8086,-130.0398 942.2142,-130.1371 944.5872,-136.7226"/>
</g>
<!-- Node18 -->
<g id="node19" class="node">
<title>Node18</title>
<g id="a_node19"><a xlink:href="../../dc/df4/ntv2formatdescriptor_8h.html" target="_top" xlink:title="Declares the NTV2FormatDescriptor class. ">
<polygon fill="#ffffff" stroke="#000000" points="332.5,-224.5 332.5,-243.5 445.5,-243.5 445.5,-224.5 332.5,-224.5"/>
<text text-anchor="middle" x="389" y="-231.5" font-family="Helvetica,sans-Serif" font-size="10.00" fill="#000000">ntv2formatdescriptor.h</text>
</a>
</g>
</g>
<!-- Node0&#45;&gt;Node18 -->
<g id="edge26" class="edge">
<title>Node0&#45;&gt;Node18</title>
<path fill="none" stroke="#191970" d="M417.9412,-280.168C412.353,-271.2536 405.885,-260.9356 400.4827,-252.3177"/>
<polygon fill="#191970" stroke="#191970" points="403.4079,-250.3944 395.131,-243.7805 397.4769,-254.1123 403.4079,-250.3944"/>
</g>
<!-- Node19 -->
<g id="node20" class="node">
<title>Node19</title>
<g id="a_node20"><a xlink:href="../../de/d26/ntv2m31enums_8h.html" target="_top" xlink:title="ntv2m31enums.h">
<polygon fill="#ffffff" stroke="#000000" points="1053,-224.5 1053,-243.5 1145,-243.5 1145,-224.5 1053,-224.5"/>
<text text-anchor="middle" x="1099" y="-231.5" font-family="Helvetica,sans-Serif" font-size="10.00" fill="#000000">ntv2m31enums.h</text>
</a>
</g>
</g>
<!-- Node0&#45;&gt;Node19 -->
<g id="edge34" class="edge">
<title>Node0&#45;&gt;Node19</title>
<path fill="none" stroke="#191970" d="M514.8067,-295.0534C632.2604,-286.2849 852.3885,-268.2667 1039,-244 1040.2665,-243.8353 1041.5472,-243.6639 1042.838,-243.4867"/>
<polygon fill="#191970" stroke="#191970" points="1043.468,-246.932 1052.8618,-242.0323 1042.4628,-240.0045 1043.468,-246.932"/>
</g>
<!-- Node3 -->
<g id="node4" class="node">
<title>Node3</title>
<g id="a_node4"><a xlink:href="../../db/d40/ntv2deprecate_8h.html" target="_top" xlink:title="Deprecation control macros. ">
<polygon fill="#ffffff" stroke="#000000" points="86,-.5 86,-19.5 172,-19.5 172,-.5 86,-.5"/>
<text text-anchor="middle" x="129" y="-7.5" font-family="Helvetica,sans-Serif" font-size="10.00" fill="#000000">ntv2deprecate.h</text>
</a>
</g>
</g>
<!-- Node2&#45;&gt;Node3 -->
<g id="edge3" class="edge">
<title>Node2&#45;&gt;Node3</title>
<path fill="none" stroke="#191970" d="M128.1742,-56.2455C128.3047,-48.9382 128.4876,-38.6944 128.6481,-29.7046"/>
<polygon fill="#191970" stroke="#191970" points="132.1486,-29.7036 128.8278,-19.6427 125.1497,-29.5786 132.1486,-29.7036"/>
</g>
<!-- Node4 -->
<g id="node5" class="node">
<title>Node4</title>
<polygon fill="#ffffff" stroke="#bfbfbf" points="18.5,-.5 18.5,-19.5 67.5,-19.5 67.5,-.5 18.5,-.5"/>
<text text-anchor="middle" x="43" y="-7.5" font-family="Helvetica,sans-Serif" font-size="10.00" fill="#000000">stdint.h</text>
</g>
<!-- Node2&#45;&gt;Node4 -->
<g id="edge4" class="edge">
<title>Node2&#45;&gt;Node4</title>
<path fill="none" stroke="#191970" d="M113.1941,-56.2455C100.2744,-47.7337 81.3069,-35.2375 66.3448,-25.3801"/>
<polygon fill="#191970" stroke="#191970" points="67.9124,-22.2216 57.6362,-19.6427 64.0613,-28.067 67.9124,-22.2216"/>
</g>
<!-- Node5&#45;&gt;Node2 -->
<g id="edge6" class="edge">
<title>Node5&#45;&gt;Node2</title>
<path fill="none" stroke="#191970" d="M230.6836,-112.3733C210.7784,-103.3838 180.8564,-89.8706 158.44,-79.7471"/>
<polygon fill="#191970" stroke="#191970" points="159.5925,-76.4272 149.0382,-75.5011 156.7113,-82.8068 159.5925,-76.4272"/>
</g>
<!-- Node6 -->
<g id="node7" class="node">
<title>Node6</title>
<g id="a_node7"><a xlink:href="../../d6/db1/ntv2version_8h.html" target="_top" xlink:title="Defines for the NTV2 SDK version number, used by ajantv2/includes/ntv2enums.h. See the ajantv2/includ...">
<polygon fill="#ffffff" stroke="#000000" points="253.5,-56.5 253.5,-75.5 328.5,-75.5 328.5,-56.5 253.5,-56.5"/>
<text text-anchor="middle" x="291" y="-63.5" font-family="Helvetica,sans-Serif" font-size="10.00" fill="#000000">ntv2version.h</text>
</a>
</g>
</g>
<!-- Node5&#45;&gt;Node6 -->
<g id="edge7" class="edge">
<title>Node5&#45;&gt;Node6</title>
<path fill="none" stroke="#191970" d="M258.7933,-112.2455C264.2178,-104.4564 271.9661,-93.3308 278.5033,-83.9439"/>
<polygon fill="#191970" stroke="#191970" points="281.4417,-85.849 284.2846,-75.6427 275.6975,-81.8485 281.4417,-85.849"/>
</g>
<!-- Node6&#45;&gt;Node1 -->
<g id="edge8" class="edge">
<title>Node6&#45;&gt;Node1</title>
<path fill="none" stroke="#191970" d="M279.3295,-56.2455C269.4339,-47.9746 255.0373,-35.9416 243.4099,-26.2232"/>
<polygon fill="#191970" stroke="#191970" points="245.4542,-23.3703 235.5368,-19.6427 240.965,-28.7413 245.4542,-23.3703"/>
</g>
<!-- Node6&#45;&gt;Node7 -->
<g id="edge9" class="edge">
<title>Node6&#45;&gt;Node7</title>
<path fill="none" stroke="#191970" d="M328.7602,-58.6641C333.5511,-57.7552 338.3888,-56.8481 343,-56 426.5723,-40.6287 525.3582,-23.5901 574.3152,-15.2217"/>
<polygon fill="#191970" stroke="#191970" points="574.993,-18.6567 584.2614,-13.5237 573.815,-11.7565 574.993,-18.6567"/>
</g>
<!-- Node8&#45;&gt;Node2 -->
<g id="edge11" class="edge">
<title>Node8&#45;&gt;Node2</title>
<path fill="none" stroke="#191970" d="M116.1084,-168.4509C118.2286,-150.184 122.898,-109.9553 125.7137,-85.6976"/>
<polygon fill="#191970" stroke="#191970" points="129.218,-85.8618 126.8944,-75.5249 122.2647,-85.0546 129.218,-85.8618"/>
</g>
<!-- Node9&#45;&gt;Node1 -->
<g id="edge23" class="edge">
<title>Node9&#45;&gt;Node1</title>
<path fill="none" stroke="#191970" d="M588.2038,-168.4226C610.6578,-155.4197 643.8025,-131.5591 626,-112 568.6066,-48.9435 310.0167,-129.9622 244,-76 230.5556,-65.0105 225.9253,-45.2897 224.4374,-30.2578"/>
<polygon fill="#191970" stroke="#191970" points="227.9087,-29.6724 223.8181,-19.8991 220.9212,-30.0902 227.9087,-29.6724"/>
</g>
<!-- Node9&#45;&gt;Node2 -->
<g id="edge13" class="edge">
<title>Node9&#45;&gt;Node2</title>
<path fill="none" stroke="#191970" d="M528.071,-168.4848C488.5229,-159.421 427.6234,-145.2345 375,-132 302.2607,-113.7065 217.9296,-90.8068 169.0027,-77.3524"/>
<polygon fill="#191970" stroke="#191970" points="169.6869,-73.9106 159.1165,-74.6298 167.8283,-80.6593 169.6869,-73.9106"/>
</g>
<!-- Node9&#45;&gt;Node5 -->
<g id="edge14" class="edge">
<title>Node9&#45;&gt;Node5</title>
<path fill="none" stroke="#191970" d="M516.4914,-169.1533C462.5399,-160.146 376.8991,-145.609 303,-132 301.558,-131.7345 300.0937,-131.4623 298.6155,-131.1855"/>
<polygon fill="#191970" stroke="#191970" points="299.2295,-127.7396 288.7518,-129.311 297.9225,-134.6166 299.2295,-127.7396"/>
</g>
<!-- Node9&#45;&gt;Node7 -->
<g id="edge19" class="edge">
<title>Node9&#45;&gt;Node7</title>
<path fill="none" stroke="#191970" d="M623.528,-168.891C700.439,-155.7726 833.1497,-133.0112 834,-132 893.4079,-61.3456 710.9721,-25.6326 635.8065,-14.1941"/>
<polygon fill="#191970" stroke="#191970" points="635.9397,-10.676 625.5364,-12.6813 634.9195,-17.6013 635.9397,-10.676"/>
</g>
<!-- Node9&#45;&gt;Node10 -->
<g id="edge15" class="edge">
<title>Node9&#45;&gt;Node10</title>
<path fill="none" stroke="#191970" d="M623.6259,-171.1012C683.291,-163.0991 782.4354,-148.8295 867,-132 868.253,-131.7506 869.5256,-131.4888 870.8092,-131.2175"/>
<polygon fill="#191970" stroke="#191970" points="871.7318,-134.5976 880.7253,-128.9969 870.2021,-127.7668 871.7318,-134.5976"/>
</g>
<!-- Node11 -->
<g id="node12" class="node">
<title>Node11</title>
<polygon fill="#ffffff" stroke="#bfbfbf" points="673,-112.5 673,-131.5 703,-131.5 703,-112.5 673,-112.5"/>
<text text-anchor="middle" x="688" y="-119.5" font-family="Helvetica,sans-Serif" font-size="10.00" fill="#000000">set</text>
</g>
<!-- Node9&#45;&gt;Node11 -->
<g id="edge16" class="edge">
<title>Node9&#45;&gt;Node11</title>
<path fill="none" stroke="#191970" d="M590.2849,-168.3733C610.6278,-158.719 641.9646,-143.8473 663.6414,-133.56"/>
<polygon fill="#191970" stroke="#191970" points="665.3135,-136.6407 672.8471,-129.1912 662.3122,-130.3167 665.3135,-136.6407"/>
</g>
<!-- Node12 -->
<g id="node13" class="node">
<title>Node12</title>
<polygon fill="#ffffff" stroke="#bfbfbf" points="721.5,-112.5 721.5,-131.5 756.5,-131.5 756.5,-112.5 721.5,-112.5"/>
<text text-anchor="middle" x="739" y="-119.5" font-family="Helvetica,sans-Serif" font-size="10.00" fill="#000000">map</text>
</g>
<!-- Node9&#45;&gt;Node12 -->
<g id="edge17" class="edge">
<title>Node9&#45;&gt;Node12</title>
<path fill="none" stroke="#191970" d="M600.5918,-168.4929C627.461,-160.0541 667.8136,-147.1673 711.6234,-132.0343"/>
<polygon fill="#191970" stroke="#191970" points="713.0204,-135.2544 721.319,-128.6678 710.7242,-128.6416 713.0204,-135.2544"/>
</g>
<!-- Node9&#45;&gt;Node13 -->
<g id="edge18" class="edge">
<title>Node9&#45;&gt;Node13</title>
<path fill="none" stroke="#191970" d="M623.8037,-174.6006C694.9554,-169.3968 824.251,-157.4881 942.8154,-131.9121"/>
<polygon fill="#191970" stroke="#191970" points="943.7711,-135.2857 952.7879,-129.7226 942.2699,-128.4486 943.7711,-135.2857"/>
</g>
<!-- Node14 -->
<g id="node15" class="node">
<title>Node14</title>
<polygon fill="#ffffff" stroke="#bfbfbf" points="775,-112.5 775,-131.5 825,-131.5 825,-112.5 775,-112.5"/>
<text text-anchor="middle" x="800" y="-119.5" font-family="Helvetica,sans-Serif" font-size="10.00" fill="#000000">iomanip</text>
</g>
<!-- Node9&#45;&gt;Node14 -->
<g id="edge20" class="edge">
<title>Node9&#45;&gt;Node14</title>
<path fill="none" stroke="#191970" d="M613.7663,-168.4593C651.4232,-160.0867 707.4187,-147.2489 764.8197,-132.2141"/>
<polygon fill="#191970" stroke="#191970" points="766.0163,-135.5183 774.7927,-129.5832 764.2307,-128.7498 766.0163,-135.5183"/>
</g>
<!-- Node15 -->
<g id="node16" class="node">
<title>Node15</title>
<polygon fill="#ffffff" stroke="#bfbfbf" points="383.5,-112.5 383.5,-131.5 424.5,-131.5 424.5,-112.5 383.5,-112.5"/>
<text text-anchor="middle" x="404" y="-119.5" font-family="Helvetica,sans-Serif" font-size="10.00" fill="#000000">bitset</text>
</g>
<!-- Node9&#45;&gt;Node15 -->
<g id="edge21" class="edge">
<title>Node9&#45;&gt;Node15</title>
<path fill="none" stroke="#191970" d="M541.4636,-168.3733C511.6478,-158.3149 465.0441,-142.5932 434.5115,-132.293"/>
<polygon fill="#191970" stroke="#191970" points="435.4147,-128.904 424.8205,-129.0238 433.1771,-135.5367 435.4147,-128.904"/>
</g>
<!-- Node16 -->
<g id="node17" class="node">
<title>Node16</title>
<polygon fill="#ffffff" stroke="#bfbfbf" points="442.5,-112.5 442.5,-131.5 491.5,-131.5 491.5,-112.5 442.5,-112.5"/>
<text text-anchor="middle" x="467" y="-119.5" font-family="Helvetica,sans-Serif" font-size="10.00" fill="#000000">string.h</text>
</g>
<!-- Node9&#45;&gt;Node16 -->
<g id="edge22" class="edge">
<title>Node9&#45;&gt;Node16</title>
<path fill="none" stroke="#191970" d="M552.0588,-168.2455C535.96,-159.4928 512.1121,-146.527 493.7609,-136.5496"/>
<polygon fill="#191970" stroke="#191970" points="495.1929,-133.3444 484.7356,-131.6427 491.8493,-139.4942 495.1929,-133.3444"/>
</g>
<!-- Node17 -->
<g id="node18" class="node">
<title>Node17</title>
<g id="a_node18"><a xlink:href="../../da/df0/ntv2virtualregisters_8h.html" target="_top" xlink:title="Declares enums for virtual registers used in all platform drivers and the SDK. ">
<polygon fill="#ffffff" stroke="#000000" points="509.5,-112.5 509.5,-131.5 616.5,-131.5 616.5,-112.5 509.5,-112.5"/>
<text text-anchor="middle" x="563" y="-119.5" font-family="Helvetica,sans-Serif" font-size="10.00" fill="#000000">ntv2virtualregisters.h</text>
</a>
</g>
</g>
<!-- Node9&#45;&gt;Node17 -->
<g id="edge24" class="edge">
<title>Node9&#45;&gt;Node17</title>
<path fill="none" stroke="#191970" d="M568.7807,-168.2455C567.8673,-160.9382 566.5868,-150.6944 565.4631,-141.7046"/>
<polygon fill="#191970" stroke="#191970" points="568.9187,-141.1313 564.2053,-131.6427 561.9728,-141.9996 568.9187,-141.1313"/>
</g>
<!-- Node17&#45;&gt;Node2 -->
<g id="edge25" class="edge">
<title>Node17&#45;&gt;Node2</title>
<path fill="none" stroke="#191970" d="M509.2501,-113.2052C506.4614,-112.7882 503.6986,-112.3839 501,-112 468.7276,-107.409 259.5482,-81.955 169.3202,-71.0076"/>
<polygon fill="#191970" stroke="#191970" points="169.5293,-67.5074 159.1805,-69.7776 168.6863,-74.4564 169.5293,-67.5074"/>
</g>
<!-- Node18&#45;&gt;Node1 -->
<g id="edge27" class="edge">
<title>Node18&#45;&gt;Node1</title>
<path fill="none" stroke="#191970" d="M369.2495,-224.4134C323.8645,-202.1886 215.304,-147.8375 206,-132 186.9371,-99.5507 202.5398,-54.1429 214.1899,-28.8717"/>
<polygon fill="#191970" stroke="#191970" points="217.4447,-30.1822 218.6792,-19.6595 211.1521,-27.1156 217.4447,-30.1822"/>
</g>
<!-- Node18&#45;&gt;Node2 -->
<g id="edge28" class="edge">
<title>Node18&#45;&gt;Node2</title>
<path fill="none" stroke="#191970" d="M352.0853,-224.4187C324.3087,-216.5037 285.7326,-203.9857 254,-188 214.9135,-168.3097 203.8467,-163.0473 173,-132 158.8636,-117.7717 146.3376,-98.5552 138.1141,-84.5277"/>
<polygon fill="#191970" stroke="#191970" points="141.1228,-82.7381 133.1414,-75.7704 135.0357,-86.1946 141.1228,-82.7381"/>
</g>
<!-- Node18&#45;&gt;Node5 -->
<g id="edge29" class="edge">
<title>Node18&#45;&gt;Node5</title>
<path fill="none" stroke="#191970" d="M377.3195,-224.4509C353.7617,-205.1921 300.3437,-161.5218 271.4411,-137.8935"/>
<polygon fill="#191970" stroke="#191970" points="273.6084,-135.1445 263.651,-131.5249 269.1778,-140.564 273.6084,-135.1445"/>
</g>
<!-- Node18&#45;&gt;Node7 -->
<g id="edge31" class="edge">
<title>Node18&#45;&gt;Node7</title>
<path fill="none" stroke="#191970" d="M383.9458,-224.1715C373.3735,-202.1005 351.7509,-147.7432 375,-112 419.6935,-43.2881 522.447,-20.5041 574.1281,-13.2361"/>
<polygon fill="#191970" stroke="#191970" points="574.8759,-16.6685 584.3419,-11.9097 573.9744,-9.7267 574.8759,-16.6685"/>
</g>
<!-- Node18&#45;&gt;Node9 -->
<g id="edge30" class="edge">
<title>Node18&#45;&gt;Node9</title>
<path fill="none" stroke="#191970" d="M420.115,-224.3733C450.3429,-215.021 496.396,-200.7725 529.4739,-190.5385"/>
<polygon fill="#191970" stroke="#191970" points="530.7723,-193.8005 539.291,-187.5011 528.7033,-187.1133 530.7723,-193.8005"/>
</g>
<!-- Node18&#45;&gt;Node10 -->
<g id="edge32" class="edge">
<title>Node18&#45;&gt;Node10</title>
<path fill="none" stroke="#191970" d="M443.905,-224.4353C493.4578,-215.6162 568.2925,-201.8337 633,-188 737.5736,-165.6434 763.0542,-157.1142 867,-132 868.2419,-131.7 869.5048,-131.3944 870.7801,-131.0854"/>
<polygon fill="#191970" stroke="#191970" points="871.7656,-134.4479 880.6569,-128.6865 870.1133,-127.6457 871.7656,-134.4479"/>
</g>
<!-- Node18&#45;&gt;Node13 -->
<g id="edge33" class="edge">
<title>Node18&#45;&gt;Node13</title>
<path fill="none" stroke="#191970" d="M445.6158,-226.7382C545.0543,-213.3026 757.3709,-181.5725 943.0642,-132.0659"/>
<polygon fill="#191970" stroke="#191970" points="943.9775,-135.4447 952.7253,-129.4674 942.1594,-128.6849 943.9775,-135.4447"/>
</g>
</g>
</svg>
