<?xml version="1.0" encoding="UTF-8" standalone="no"?>
<!DOCTYPE svg PUBLIC "-//W3C//DTD SVG 1.1//EN"
 "http://www.w3.org/Graphics/SVG/1.1/DTD/svg11.dtd">
<!-- Generated by graphviz version 2.43.0 (0)
 -->
<!-- Title: /home/tcbuilder/buildAgent/work/df8e8cce5bebfd58/libajantv2/ajantv2/includes/basemachinecontrol.h Pages: 1 -->
<svg width="219pt" height="206pt"
 viewBox="0.00 0.00 219.00 206.00" xmlns="http://www.w3.org/2000/svg" xmlns:xlink="http://www.w3.org/1999/xlink">
<g id="graph0" class="graph" transform="scale(1 1) rotate(0) translate(4 202)">
<title>/home/tcbuilder/buildAgent/work/df8e8cce5bebfd58/libajantv2/ajantv2/includes/basemachinecontrol.h</title>
<polygon fill="white" stroke="transparent" points="-4,4 -4,-202 215,-202 215,4 -4,4"/>
<!-- Node1 -->
<g id="node1" class="node">
<title>Node1</title>
<g id="a_node1"><a xlink:title=" ">
<polygon fill="#bfbfbf" stroke="black" points="0,-156.5 0,-197.5 211,-197.5 211,-156.5 0,-156.5"/>
<text text-anchor="start" x="8" y="-185.5" font-family="Helvetica,sans-Serif" font-size="10.00">/home/tcbuilder/buildAgent</text>
<text text-anchor="start" x="8" y="-174.5" font-family="Helvetica,sans-Serif" font-size="10.00">/work/df8e8cce5bebfd58/libajantv2</text>
<text text-anchor="middle" x="105.5" y="-163.5" font-family="Helvetica,sans-Serif" font-size="10.00">/ajantv2/includes/basemachinecontrol.h</text>
</a>
</g>
</g>
<!-- Node2 -->
<g id="node2" class="node">
<title>Node2</title>
<g id="a_node2"><a xlink:href="../../d4/dfd/ntv2serialcontrol_8h.html" target="_top" xlink:title=" ">
<polygon fill="white" stroke="black" points="8.5,-78.5 8.5,-119.5 202.5,-119.5 202.5,-78.5 8.5,-78.5"/>
<text text-anchor="start" x="16.5" y="-107.5" font-family="Helvetica,sans-Serif" font-size="10.00">/home/tcbuilder/buildAgent</text>
<text text-anchor="start" x="16.5" y="-96.5" font-family="Helvetica,sans-Serif" font-size="10.00">/work/df8e8cce5bebfd58/libajantv2</text>
<text text-anchor="middle" x="105.5" y="-85.5" font-family="Helvetica,sans-Serif" font-size="10.00">/ajantv2/includes/ntv2serialcontrol.h</text>
</a>
</g>
</g>
<!-- Node1&#45;&gt;Node2 -->
<g id="edge1" class="edge">
<title>Node1&#45;&gt;Node2</title>
<path fill="none" stroke="midnightblue" d="M105.5,-146.3C105.5,-137.3 105.5,-127.65 105.5,-119.51"/>
<polygon fill="midnightblue" stroke="midnightblue" points="102,-146.43 105.5,-156.43 109,-146.43 102,-146.43"/>
</g>
<!-- Node3 -->
<g id="node3" class="node">
<title>Node3</title>
<g id="a_node3"><a xlink:href="../../df/db6/ntv2serialcontrol_8cpp.html" target="_top" xlink:title="Implements the CNTV2SerialControl class.">
<polygon fill="white" stroke="black" points="11.5,-0.5 11.5,-41.5 199.5,-41.5 199.5,-0.5 11.5,-0.5"/>
<text text-anchor="start" x="19.5" y="-29.5" font-family="Helvetica,sans-Serif" font-size="10.00">/home/tcbuilder/buildAgent</text>
<text text-anchor="start" x="19.5" y="-18.5" font-family="Helvetica,sans-Serif" font-size="10.00">/work/df8e8cce5bebfd58/libajantv2</text>
<text text-anchor="middle" x="105.5" y="-7.5" font-family="Helvetica,sans-Serif" font-size="10.00">/ajantv2/src/ntv2serialcontrol.cpp</text>
</a>
</g>
</g>
<!-- Node2&#45;&gt;Node3 -->
<g id="edge2" class="edge">
<title>Node2&#45;&gt;Node3</title>
<path fill="none" stroke="midnightblue" d="M105.5,-68.3C105.5,-59.3 105.5,-49.65 105.5,-41.51"/>
<polygon fill="midnightblue" stroke="midnightblue" points="102,-68.43 105.5,-78.43 109,-68.43 102,-68.43"/>
</g>
</g>
</svg>
