<?xml version="1.0" encoding="UTF-8" standalone="no"?>
<!DOCTYPE svg PUBLIC "-//W3C//DTD SVG 1.1//EN"
 "http://www.w3.org/Graphics/SVG/1.1/DTD/svg11.dtd">
<!-- Generated by graphviz version 2.40.1 (0)
 -->
<!-- Title: /home/tcbuilder/buildAgent/work/df8e8cce5bebfd58/libajantv2/ajantv2/src/ntv2vpidfromspec.cpp Pages: 1 -->
<!--zoomable 386 -->
<svg id="main" version="1.1" xmlns="http://www.w3.org/2000/svg" xmlns:xlink="http://www.w3.org/1999/xlink" xml:space="preserve" onload="init(evt)">
<style type="text/css"><![CDATA[
.edge:hover path { stroke: red; }
.edge:hover polygon { stroke: red; fill: red; }
]]></style>
<script type="text/javascript"><![CDATA[
var edges = document.getElementsByTagName('g');
if (edges && edges.length) {
  for (var i=0;i<edges.length;i++) {
    if (edges[i].id.substr(0,4)=='edge') {
      edges[i].setAttribute('class','edge');
    }
  }
}
]]></script>
        <defs>
                <circle id="rim" cx="0" cy="0" r="7"/>
                <circle id="rim2" cx="0" cy="0" r="3.5"/>
                <g id="zoomPlus">
                        <use xlink:href="#rim" fill="#404040">
                                <set attributeName="fill" to="#808080" begin="zoomplus.mouseover" end="zoomplus.mouseout"/>
                        </use>
                        <path d="M-4,0h8M0,-4v8" fill="none" stroke="white" stroke-width="1.5" pointer-events="none"/>
                </g>
                <g id="zoomMin">
                        <use xlink:href="#rim" fill="#404040">
                                <set attributeName="fill" to="#808080" begin="zoomminus.mouseover" end="zoomminus.mouseout"/>
                        </use>
                        <path d="M-4,0h8" fill="none" stroke="white" stroke-width="1.5" pointer-events="none"/>
                </g>
                <g id="dirArrow">
                        <path fill="none" stroke="white" stroke-width="1.5" d="M0,-3.0v7 M-2.5,-0.5L0,-3.0L2.5,-0.5"/>
                </g>
               <g id="resetDef">
                       <use xlink:href="#rim2" fill="#404040">
                               <set attributeName="fill" to="#808080" begin="reset.mouseover" end="reset.mouseout"/>
                       </use>
               </g>
        </defs>

<script type="text/javascript">
var viewWidth = 1172;
var viewHeight = 386;
var sectionId = 'dynsection-0';
</script>
<script xlink:href="../../svgpan.js"/>
<svg id="graph" class="graph">
<g id="viewport">
<title>/home/tcbuilder/buildAgent/work/df8e8cce5bebfd58/libajantv2/ajantv2/src/ntv2vpidfromspec.cpp</title>
<polygon fill="#ffffff" stroke="transparent" points="-4,4 -4,-382 1168.2019,-382 1168.2019,4 -4,4"/>
<!-- Node0 -->
<g id="node1" class="node">
<title>Node0</title>
<polygon fill="#bfbfbf" stroke="#000000" points="318.5,-336.5 318.5,-377.5 485.5,-377.5 485.5,-336.5 318.5,-336.5"/>
<text text-anchor="start" x="326.5" y="-365.5" font-family="Helvetica,sans-Serif" font-size="10.00" fill="#000000">/home/tcbuilder/buildAgent</text>
<text text-anchor="start" x="326.5" y="-354.5" font-family="Helvetica,sans-Serif" font-size="10.00" fill="#000000">/work/df8e8cce5bebfd58/libajantv2</text>
<text text-anchor="middle" x="402" y="-343.5" font-family="Helvetica,sans-Serif" font-size="10.00" fill="#000000">/ajantv2/src/ntv2vpidfromspec.cpp</text>
</g>
<!-- Node1 -->
<g id="node2" class="node">
<title>Node1</title>
<g id="a_node2"><a xlink:href="../../db/de2/ajatypes_8h.html" target="_top" xlink:title="Declares the most fundamental data types used by NTV2. Since Windows NT was the first principal devel...">
<polygon fill="#ffffff" stroke="#000000" points="140,-56.5 140,-75.5 202,-75.5 202,-56.5 140,-56.5"/>
<text text-anchor="middle" x="171" y="-63.5" font-family="Helvetica,sans-Serif" font-size="10.00" fill="#000000">ajatypes.h</text>
</a>
</g>
</g>
<!-- Node0&#45;&gt;Node1 -->
<g id="edge1" class="edge">
<title>Node0&#45;&gt;Node1</title>
<path fill="none" stroke="#191970" d="M318.217,-348.4626C200.4023,-334.0947 0,-299.9606 0,-234 0,-234 0,-234 0,-178 0,-116.2458 79.0084,-86.6962 129.6159,-74.1029"/>
<polygon fill="#191970" stroke="#191970" points="130.7081,-77.4413 139.636,-71.7365 129.0992,-70.6287 130.7081,-77.4413"/>
</g>
<!-- Node4 -->
<g id="node5" class="node">
<title>Node4</title>
<g id="a_node5"><a xlink:href="../../d8/dc1/ntv2vpidfromspec_8h.html" target="_top" xlink:title="Declares functions for the C implementations of VPID generation from a VPIDSpec. ">
<polygon fill="#ffffff" stroke="#000000" points="1033,-224.5 1033,-243.5 1135,-243.5 1135,-224.5 1033,-224.5"/>
<text text-anchor="middle" x="1084" y="-231.5" font-family="Helvetica,sans-Serif" font-size="10.00" fill="#000000">ntv2vpidfromspec.h</text>
</a>
</g>
</g>
<!-- Node0&#45;&gt;Node4 -->
<g id="edge4" class="edge">
<title>Node0&#45;&gt;Node4</title>
<path fill="none" stroke="#191970" d="M485.6266,-341.9178C624.7044,-316.8348 900.3405,-267.1233 1022.8466,-245.0291"/>
<polygon fill="#191970" stroke="#191970" points="1023.589,-248.4518 1032.8089,-243.2324 1022.3465,-241.5629 1023.589,-248.4518"/>
</g>
<!-- Node18 -->
<g id="node19" class="node">
<title>Node18</title>
<g id="a_node19"><a xlink:href="../../d0/d81/ntv2utils_8h.html" target="_top" xlink:title="Declares numerous NTV2 utility functions. ">
<polygon fill="#ffffff" stroke="#000000" points="371,-280.5 371,-299.5 433,-299.5 433,-280.5 371,-280.5"/>
<text text-anchor="middle" x="402" y="-287.5" font-family="Helvetica,sans-Serif" font-size="10.00" fill="#000000">ntv2utils.h</text>
</a>
</g>
</g>
<!-- Node0&#45;&gt;Node18 -->
<g id="edge24" class="edge">
<title>Node0&#45;&gt;Node18</title>
<path fill="none" stroke="#191970" d="M402,-336.168C402,-327.8226 402,-318.2471 402,-309.9879"/>
<polygon fill="#191970" stroke="#191970" points="405.5001,-309.7804 402,-299.7805 398.5001,-309.7805 405.5001,-309.7804"/>
</g>
<!-- Node2 -->
<g id="node3" class="node">
<title>Node2</title>
<g id="a_node3"><a xlink:href="../../db/d40/ntv2deprecate_8h.html" target="_top" xlink:title="Deprecation control macros. ">
<polygon fill="#ffffff" stroke="#000000" points="171,-.5 171,-19.5 257,-19.5 257,-.5 171,-.5"/>
<text text-anchor="middle" x="214" y="-7.5" font-family="Helvetica,sans-Serif" font-size="10.00" fill="#000000">ntv2deprecate.h</text>
</a>
</g>
</g>
<!-- Node1&#45;&gt;Node2 -->
<g id="edge2" class="edge">
<title>Node1&#45;&gt;Node2</title>
<path fill="none" stroke="#191970" d="M178.49,-56.2455C184.5326,-48.3761 193.1903,-37.101 200.4441,-27.6542"/>
<polygon fill="#191970" stroke="#191970" points="203.2815,-29.7058 206.5958,-19.6427 197.7295,-25.4426 203.2815,-29.7058"/>
</g>
<!-- Node3 -->
<g id="node4" class="node">
<title>Node3</title>
<polygon fill="#ffffff" stroke="#bfbfbf" points="103.5,-.5 103.5,-19.5 152.5,-19.5 152.5,-.5 103.5,-.5"/>
<text text-anchor="middle" x="128" y="-7.5" font-family="Helvetica,sans-Serif" font-size="10.00" fill="#000000">stdint.h</text>
</g>
<!-- Node1&#45;&gt;Node3 -->
<g id="edge3" class="edge">
<title>Node1&#45;&gt;Node3</title>
<path fill="none" stroke="#191970" d="M163.51,-56.2455C157.4674,-48.3761 148.8097,-37.101 141.5559,-27.6542"/>
<polygon fill="#191970" stroke="#191970" points="144.2705,-25.4426 135.4042,-19.6427 138.7185,-29.7058 144.2705,-25.4426"/>
</g>
<!-- Node5 -->
<g id="node6" class="node">
<title>Node5</title>
<g id="a_node6"><a xlink:href="../../d6/dd9/ajaexport_8h.html" target="_top" xlink:title="Defines the import/export macros for producing DLLs or LIBs. ">
<polygon fill="#ffffff" stroke="#000000" points="454.5,-.5 454.5,-19.5 519.5,-19.5 519.5,-.5 454.5,-.5"/>
<text text-anchor="middle" x="487" y="-7.5" font-family="Helvetica,sans-Serif" font-size="10.00" fill="#000000">ajaexport.h</text>
</a>
</g>
</g>
<!-- Node4&#45;&gt;Node5 -->
<g id="edge5" class="edge">
<title>Node4&#45;&gt;Node5</title>
<path fill="none" stroke="#191970" d="M1088.2623,-224.3713C1097.5451,-201.7592 1116.6342,-144.7102 1089,-112 1052.6169,-68.9337 660.9747,-27.0055 529.6472,-14.0645"/>
<polygon fill="#191970" stroke="#191970" points="529.856,-10.5683 519.5626,-13.0774 529.1741,-17.535 529.856,-10.5683"/>
</g>
<!-- Node6 -->
<g id="node7" class="node">
<title>Node6</title>
<g id="a_node7"><a xlink:href="../../d4/dd7/ntv2publicinterface_8h.html" target="_top" xlink:title="Declares enums and structs used by all platform drivers and the SDK. ">
<polygon fill="#ffffff" stroke="#000000" points="633.5,-168.5 633.5,-187.5 740.5,-187.5 740.5,-168.5 633.5,-168.5"/>
<text text-anchor="middle" x="687" y="-175.5" font-family="Helvetica,sans-Serif" font-size="10.00" fill="#000000">ntv2publicinterface.h</text>
</a>
</g>
</g>
<!-- Node4&#45;&gt;Node6 -->
<g id="edge6" class="edge">
<title>Node4&#45;&gt;Node6</title>
<path fill="none" stroke="#191970" d="M1032.9119,-226.7936C960.8602,-216.6302 829.4447,-198.093 750.9831,-187.0253"/>
<polygon fill="#191970" stroke="#191970" points="751.1361,-183.5123 740.7452,-185.5812 750.1583,-190.4437 751.1361,-183.5123"/>
</g>
<!-- Node6&#45;&gt;Node1 -->
<g id="edge7" class="edge">
<title>Node6&#45;&gt;Node1</title>
<path fill="none" stroke="#191970" d="M633.2956,-169.1355C593.0945,-161.6242 537.1507,-149.2981 490,-132 471.7122,-125.2908 469.5009,-118.097 451,-112 369.0244,-84.985 268.1027,-73.4015 212.5669,-68.7808"/>
<polygon fill="#191970" stroke="#191970" points="212.6583,-65.2771 202.412,-67.972 212.1025,-72.255 212.6583,-65.2771"/>
</g>
<!-- Node6&#45;&gt;Node5 -->
<g id="edge21" class="edge">
<title>Node6&#45;&gt;Node5</title>
<path fill="none" stroke="#191970" d="M676.9464,-168.3744C663.2085,-155.3169 637.6836,-131.3945 615,-112 578.1001,-80.4506 533.4397,-45.5799 507.8138,-25.8742"/>
<polygon fill="#191970" stroke="#191970" points="509.6528,-22.8739 499.5874,-19.5668 505.3936,-28.429 509.6528,-22.8739"/>
</g>
<!-- Node7 -->
<g id="node8" class="node">
<title>Node7</title>
<g id="a_node8"><a xlink:href="../../d6/d0c/ntv2enums_8h.html" target="_top" xlink:title="Enumerations for controlling NTV2 devices. ">
<polygon fill="#ffffff" stroke="#000000" points="368.5,-112.5 368.5,-131.5 441.5,-131.5 441.5,-112.5 368.5,-112.5"/>
<text text-anchor="middle" x="405" y="-119.5" font-family="Helvetica,sans-Serif" font-size="10.00" fill="#000000">ntv2enums.h</text>
</a>
</g>
</g>
<!-- Node6&#45;&gt;Node7 -->
<g id="edge8" class="edge">
<title>Node6&#45;&gt;Node7</title>
<path fill="none" stroke="#191970" d="M638.8429,-168.4369C586.4883,-158.0402 503.3912,-141.5387 451.6398,-131.2618"/>
<polygon fill="#191970" stroke="#191970" points="452.2161,-127.808 441.7259,-129.2931 450.8526,-134.6739 452.2161,-127.808"/>
</g>
<!-- Node9 -->
<g id="node10" class="node">
<title>Node9</title>
<polygon fill="#ffffff" stroke="#bfbfbf" points="968.5,-.5 968.5,-19.5 1009.5,-19.5 1009.5,-.5 968.5,-.5"/>
<text text-anchor="middle" x="989" y="-7.5" font-family="Helvetica,sans-Serif" font-size="10.00" fill="#000000">string</text>
</g>
<!-- Node6&#45;&gt;Node9 -->
<g id="edge17" class="edge">
<title>Node6&#45;&gt;Node9</title>
<path fill="none" stroke="#191970" d="M740.6692,-175.1466C808.5973,-170.4619 920.4571,-158.8249 951,-132 980.6071,-105.9971 987.4227,-57.3445 988.8209,-29.9915"/>
<polygon fill="#191970" stroke="#191970" points="992.3282,-29.8044 989.1391,-19.701 985.3316,-29.588 992.3282,-29.8044"/>
</g>
<!-- Node10 -->
<g id="node11" class="node">
<title>Node10</title>
<polygon fill="#ffffff" stroke="#bfbfbf" points="258,-112.5 258,-131.5 312,-131.5 312,-112.5 258,-112.5"/>
<text text-anchor="middle" x="285" y="-119.5" font-family="Helvetica,sans-Serif" font-size="10.00" fill="#000000">iostream</text>
</g>
<!-- Node6&#45;&gt;Node10 -->
<g id="edge13" class="edge">
<title>Node6&#45;&gt;Node10</title>
<path fill="none" stroke="#191970" d="M633.2016,-170.5057C550.4105,-158.9726 393.8625,-137.1649 322.3412,-127.2018"/>
<polygon fill="#191970" stroke="#191970" points="322.812,-123.7336 312.4247,-125.8204 321.8462,-130.6667 322.812,-123.7336"/>
</g>
<!-- Node11 -->
<g id="node12" class="node">
<title>Node11</title>
<polygon fill="#ffffff" stroke="#bfbfbf" points="730,-112.5 730,-131.5 760,-131.5 760,-112.5 730,-112.5"/>
<text text-anchor="middle" x="745" y="-119.5" font-family="Helvetica,sans-Serif" font-size="10.00" fill="#000000">set</text>
</g>
<!-- Node6&#45;&gt;Node11 -->
<g id="edge14" class="edge">
<title>Node6&#45;&gt;Node11</title>
<path fill="none" stroke="#191970" d="M697.1028,-168.2455C705.5028,-160.1352 717.6494,-148.4075 727.6084,-138.7919"/>
<polygon fill="#191970" stroke="#191970" points="730.25,-141.1066 735.0129,-131.6427 725.3878,-136.0707 730.25,-141.1066"/>
</g>
<!-- Node12 -->
<g id="node13" class="node">
<title>Node12</title>
<polygon fill="#ffffff" stroke="#bfbfbf" points="778.5,-112.5 778.5,-131.5 813.5,-131.5 813.5,-112.5 778.5,-112.5"/>
<text text-anchor="middle" x="796" y="-119.5" font-family="Helvetica,sans-Serif" font-size="10.00" fill="#000000">map</text>
</g>
<!-- Node6&#45;&gt;Node12 -->
<g id="edge15" class="edge">
<title>Node6&#45;&gt;Node12</title>
<path fill="none" stroke="#191970" d="M705.9864,-168.2455C723.4937,-159.2509 749.6611,-145.8071 769.2766,-135.7295"/>
<polygon fill="#191970" stroke="#191970" points="771.0177,-138.7699 778.313,-131.0869 767.8188,-132.5436 771.0177,-138.7699"/>
</g>
<!-- Node13 -->
<g id="node14" class="node">
<title>Node13</title>
<polygon fill="#ffffff" stroke="#bfbfbf" points="1036,-112.5 1036,-131.5 1080,-131.5 1080,-112.5 1036,-112.5"/>
<text text-anchor="middle" x="1058" y="-119.5" font-family="Helvetica,sans-Serif" font-size="10.00" fill="#000000">vector</text>
</g>
<!-- Node6&#45;&gt;Node13 -->
<g id="edge16" class="edge">
<title>Node6&#45;&gt;Node13</title>
<path fill="none" stroke="#191970" d="M740.5504,-169.9169C818.7037,-158.1202 961.6452,-136.5441 1025.5863,-126.8926"/>
<polygon fill="#191970" stroke="#191970" points="1026.4969,-130.2949 1035.8625,-125.3415 1025.4521,-123.3733 1026.4969,-130.2949"/>
</g>
<!-- Node14 -->
<g id="node15" class="node">
<title>Node14</title>
<polygon fill="#ffffff" stroke="#bfbfbf" points="832,-112.5 832,-131.5 882,-131.5 882,-112.5 832,-112.5"/>
<text text-anchor="middle" x="857" y="-119.5" font-family="Helvetica,sans-Serif" font-size="10.00" fill="#000000">iomanip</text>
</g>
<!-- Node6&#45;&gt;Node14 -->
<g id="edge18" class="edge">
<title>Node6&#45;&gt;Node14</title>
<path fill="none" stroke="#191970" d="M716.224,-168.3733C745.6061,-158.6945 790.9076,-143.7716 822.1452,-133.4816"/>
<polygon fill="#191970" stroke="#191970" points="823.3522,-136.7691 831.755,-130.316 821.162,-130.1205 823.3522,-136.7691"/>
</g>
<!-- Node15 -->
<g id="node16" class="node">
<title>Node15</title>
<polygon fill="#ffffff" stroke="#bfbfbf" points="900.5,-112.5 900.5,-131.5 941.5,-131.5 941.5,-112.5 900.5,-112.5"/>
<text text-anchor="middle" x="921" y="-119.5" font-family="Helvetica,sans-Serif" font-size="10.00" fill="#000000">bitset</text>
</g>
<!-- Node6&#45;&gt;Node15 -->
<g id="edge19" class="edge">
<title>Node6&#45;&gt;Node15</title>
<path fill="none" stroke="#191970" d="M735.5648,-168.475C774.9208,-160.4349 831.9595,-148.0587 890.6179,-131.8936"/>
<polygon fill="#191970" stroke="#191970" points="891.7342,-135.2159 900.4267,-129.1587 889.8541,-128.4731 891.7342,-135.2159"/>
</g>
<!-- Node16 -->
<g id="node17" class="node">
<title>Node16</title>
<polygon fill="#ffffff" stroke="#bfbfbf" points="662.5,-112.5 662.5,-131.5 711.5,-131.5 711.5,-112.5 662.5,-112.5"/>
<text text-anchor="middle" x="687" y="-119.5" font-family="Helvetica,sans-Serif" font-size="10.00" fill="#000000">string.h</text>
</g>
<!-- Node6&#45;&gt;Node16 -->
<g id="edge20" class="edge">
<title>Node6&#45;&gt;Node16</title>
<path fill="none" stroke="#191970" d="M687,-168.2455C687,-160.9382 687,-150.6944 687,-141.7046"/>
<polygon fill="#191970" stroke="#191970" points="690.5001,-141.6426 687,-131.6427 683.5001,-141.6427 690.5001,-141.6426"/>
</g>
<!-- Node17 -->
<g id="node18" class="node">
<title>Node17</title>
<g id="a_node18"><a xlink:href="../../da/df0/ntv2virtualregisters_8h.html" target="_top" xlink:title="Declares enums for virtual registers used in all platform drivers and the SDK. ">
<polygon fill="#ffffff" stroke="#000000" points="498.5,-112.5 498.5,-131.5 605.5,-131.5 605.5,-112.5 498.5,-112.5"/>
<text text-anchor="middle" x="552" y="-119.5" font-family="Helvetica,sans-Serif" font-size="10.00" fill="#000000">ntv2virtualregisters.h</text>
</a>
</g>
</g>
<!-- Node6&#45;&gt;Node17 -->
<g id="edge22" class="edge">
<title>Node6&#45;&gt;Node17</title>
<path fill="none" stroke="#191970" d="M663.7927,-168.3733C641.8301,-159.2629 608.6668,-145.5062 584.1599,-135.3404"/>
<polygon fill="#191970" stroke="#191970" points="585.4824,-132.0999 574.9045,-131.5011 582.8003,-138.5657 585.4824,-132.0999"/>
</g>
<!-- Node7&#45;&gt;Node1 -->
<g id="edge9" class="edge">
<title>Node7&#45;&gt;Node1</title>
<path fill="none" stroke="#191970" d="M368.4375,-113.25C325.9841,-103.0902 256.1456,-86.3767 211.9176,-75.7922"/>
<polygon fill="#191970" stroke="#191970" points="212.6134,-72.36 202.0734,-73.4364 210.9841,-79.1678 212.6134,-72.36"/>
</g>
<!-- Node8 -->
<g id="node9" class="node">
<title>Node8</title>
<g id="a_node9"><a xlink:href="../../d6/db1/ntv2version_8h.html" target="_top" xlink:title="Defines for the NTV2 SDK version number, used by ajantv2/includes/ntv2enums.h. See the ajantv2/includ...">
<polygon fill="#ffffff" stroke="#000000" points="449.5,-56.5 449.5,-75.5 524.5,-75.5 524.5,-56.5 449.5,-56.5"/>
<text text-anchor="middle" x="487" y="-63.5" font-family="Helvetica,sans-Serif" font-size="10.00" fill="#000000">ntv2version.h</text>
</a>
</g>
</g>
<!-- Node7&#45;&gt;Node8 -->
<g id="edge10" class="edge">
<title>Node7&#45;&gt;Node8</title>
<path fill="none" stroke="#191970" d="M419.2833,-112.2455C431.747,-103.7337 450.0451,-91.2375 464.4792,-81.3801"/>
<polygon fill="#191970" stroke="#191970" points="466.5962,-84.1726 472.8804,-75.6427 462.6485,-78.392 466.5962,-84.1726"/>
</g>
<!-- Node8&#45;&gt;Node5 -->
<g id="edge11" class="edge">
<title>Node8&#45;&gt;Node5</title>
<path fill="none" stroke="#191970" d="M487,-56.2455C487,-48.9382 487,-38.6944 487,-29.7046"/>
<polygon fill="#191970" stroke="#191970" points="490.5001,-29.6426 487,-19.6427 483.5001,-29.6427 490.5001,-29.6426"/>
</g>
<!-- Node8&#45;&gt;Node9 -->
<g id="edge12" class="edge">
<title>Node8&#45;&gt;Node9</title>
<path fill="none" stroke="#191970" d="M524.7316,-61.7909C620.3863,-51.1202 870.9663,-23.1671 958.383,-13.4154"/>
<polygon fill="#191970" stroke="#191970" points="958.8964,-16.88 968.4466,-12.2928 958.1202,-9.9231 958.8964,-16.88"/>
</g>
<!-- Node17&#45;&gt;Node1 -->
<g id="edge23" class="edge">
<title>Node17&#45;&gt;Node1</title>
<path fill="none" stroke="#191970" d="M498.1783,-114.0846C493.3837,-113.3796 488.6042,-112.6769 484,-112 386.6021,-97.6814 272.1548,-80.8635 212.2778,-72.0652"/>
<polygon fill="#191970" stroke="#191970" points="212.5008,-68.5604 202.0982,-70.5694 211.4831,-75.486 212.5008,-68.5604"/>
</g>
<!-- Node18&#45;&gt;Node1 -->
<g id="edge26" class="edge">
<title>Node18&#45;&gt;Node1</title>
<path fill="none" stroke="#191970" d="M370.7598,-285.9378C292.4231,-275.0031 91.432,-242.065 57,-188 28.8423,-143.787 97.3399,-101.1646 139.9974,-79.9447"/>
<polygon fill="#191970" stroke="#191970" points="141.6996,-83.0094 149.1796,-75.506 138.653,-76.7071 141.6996,-83.0094"/>
</g>
<!-- Node18&#45;&gt;Node5 -->
<g id="edge25" class="edge">
<title>Node18&#45;&gt;Node5</title>
<path fill="none" stroke="#191970" d="M370.8521,-284.4121C321.2864,-273.5265 230,-244.4572 230,-178 230,-178 230,-178 230,-122 230,-75.7479 371.6567,-36.4395 444.6314,-19.2583"/>
<polygon fill="#191970" stroke="#191970" points="445.4993,-22.65 454.4508,-16.9824 443.9187,-15.8308 445.4993,-22.65"/>
</g>
<!-- Node18&#45;&gt;Node6 -->
<g id="edge30" class="edge">
<title>Node18&#45;&gt;Node6</title>
<path fill="none" stroke="#191970" d="M433.0046,-283.0955C465.7075,-275.3517 518.4333,-261.5464 562,-244 598.3331,-229.3669 637.9507,-207.325 662.6338,-192.8009"/>
<polygon fill="#191970" stroke="#191970" points="664.5179,-195.7526 671.3246,-187.6336 660.9404,-189.7358 664.5179,-195.7526"/>
</g>
<!-- Node18&#45;&gt;Node7 -->
<g id="edge27" class="edge">
<title>Node18&#45;&gt;Node7</title>
<path fill="none" stroke="#191970" d="M433.2997,-282.9992C467.1369,-274.722 517.7563,-260.0311 529,-244 560.4741,-199.1248 484.9929,-156.5581 438.3923,-135.5826"/>
<polygon fill="#191970" stroke="#191970" points="439.7805,-132.3696 429.2165,-131.5611 436.9705,-138.7809 439.7805,-132.3696"/>
</g>
<!-- Node18&#45;&gt;Node9 -->
<g id="edge40" class="edge">
<title>Node18&#45;&gt;Node9</title>
<path fill="none" stroke="#191970" d="M433.0195,-289.0695C570.0799,-284.8322 1115.845,-266.5917 1144,-244 1167.8078,-224.8965 1163,-208.5246 1163,-178 1163,-178 1163,-178 1163,-122 1163,-54.5853 1069.5074,-25.8237 1019.5855,-15.2713"/>
<polygon fill="#191970" stroke="#191970" points="1020.1348,-11.812 1009.6434,-13.2885 1018.7657,-18.6768 1020.1348,-11.812"/>
</g>
<!-- Node18&#45;&gt;Node10 -->
<g id="edge41" class="edge">
<title>Node18&#45;&gt;Node10</title>
<path fill="none" stroke="#191970" d="M370.9911,-286.942C343.8343,-282.4478 305.8504,-271.3569 287,-244 265.8609,-213.3215 272.8234,-167.2138 279.2527,-141.3568"/>
<polygon fill="#191970" stroke="#191970" points="282.654,-142.1864 281.8919,-131.619 275.8978,-140.3552 282.654,-142.1864"/>
</g>
<!-- Node18&#45;&gt;Node13 -->
<g id="edge42" class="edge">
<title>Node18&#45;&gt;Node13</title>
<path fill="none" stroke="#191970" d="M433.1065,-287.1605C540.3053,-276.989 893.2438,-240.184 993,-188 1014.6804,-176.6587 1033.5489,-155.487 1045.2905,-140.1749"/>
<polygon fill="#191970" stroke="#191970" points="1048.2329,-142.0819 1051.3475,-131.9552 1042.5976,-137.9293 1048.2329,-142.0819"/>
</g>
<!-- Node19 -->
<g id="node20" class="node">
<title>Node19</title>
<g id="a_node20"><a xlink:href="../../d9/d61/ntv2videodefines_8h.html" target="_top" xlink:title="Declares common video macros and structs used in the SDK. ">
<polygon fill="#ffffff" stroke="#000000" points="66,-168.5 66,-187.5 164,-187.5 164,-168.5 66,-168.5"/>
<text text-anchor="middle" x="115" y="-175.5" font-family="Helvetica,sans-Serif" font-size="10.00" fill="#000000">ntv2videodefines.h</text>
</a>
</g>
</g>
<!-- Node18&#45;&gt;Node19 -->
<g id="edge28" class="edge">
<title>Node18&#45;&gt;Node19</title>
<path fill="none" stroke="#191970" d="M370.6847,-285.5567C332.858,-279.4518 267.8488,-266.5738 216,-244 185.6886,-230.8031 154.3628,-208.7923 134.7946,-193.8515"/>
<polygon fill="#191970" stroke="#191970" points="136.7202,-190.9153 126.677,-187.5414 132.4241,-196.442 136.7202,-190.9153"/>
</g>
<!-- Node20 -->
<g id="node21" class="node">
<title>Node20</title>
<g id="a_node21"><a xlink:href="../../dc/df4/ntv2formatdescriptor_8h.html" target="_top" xlink:title="Declares the NTV2FormatDescriptor class. ">
<polygon fill="#ffffff" stroke="#000000" points="406.5,-224.5 406.5,-243.5 519.5,-243.5 519.5,-224.5 406.5,-224.5"/>
<text text-anchor="middle" x="463" y="-231.5" font-family="Helvetica,sans-Serif" font-size="10.00" fill="#000000">ntv2formatdescriptor.h</text>
</a>
</g>
</g>
<!-- Node18&#45;&gt;Node20 -->
<g id="edge31" class="edge">
<title>Node18&#45;&gt;Node20</title>
<path fill="none" stroke="#191970" d="M412.6254,-280.2455C421.5473,-272.0549 434.488,-260.1749 445.0192,-250.5069"/>
<polygon fill="#191970" stroke="#191970" points="447.4968,-252.9837 452.4964,-243.6427 442.7629,-247.8271 447.4968,-252.9837"/>
</g>
<!-- Node21 -->
<g id="node22" class="node">
<title>Node21</title>
<g id="a_node22"><a xlink:href="../../de/d26/ntv2m31enums_8h.html" target="_top" xlink:title="ntv2m31enums.h">
<polygon fill="#ffffff" stroke="#000000" points="296,-224.5 296,-243.5 388,-243.5 388,-224.5 296,-224.5"/>
<text text-anchor="middle" x="342" y="-231.5" font-family="Helvetica,sans-Serif" font-size="10.00" fill="#000000">ntv2m31enums.h</text>
</a>
</g>
</g>
<!-- Node18&#45;&gt;Node21 -->
<g id="edge39" class="edge">
<title>Node18&#45;&gt;Node21</title>
<path fill="none" stroke="#191970" d="M391.5488,-280.2455C382.7731,-272.0549 370.0446,-260.1749 359.686,-250.5069"/>
<polygon fill="#191970" stroke="#191970" points="362.0301,-247.9072 352.3314,-243.6427 357.2539,-253.0246 362.0301,-247.9072"/>
</g>
<!-- Node19&#45;&gt;Node1 -->
<g id="edge29" class="edge">
<title>Node19&#45;&gt;Node1</title>
<path fill="none" stroke="#191970" d="M119.7745,-168.4509C129.032,-149.936 149.5705,-108.8591 161.6407,-84.7187"/>
<polygon fill="#191970" stroke="#191970" points="164.8959,-86.0344 166.2376,-75.5249 158.6349,-82.9039 164.8959,-86.0344"/>
</g>
<!-- Node20&#45;&gt;Node1 -->
<g id="edge33" class="edge">
<title>Node20&#45;&gt;Node1</title>
<path fill="none" stroke="#191970" d="M409.7614,-224.4562C378.4764,-217.38 338.9311,-205.8177 307,-188 256.5127,-159.828 208.9744,-109.9251 185.7804,-83.5182"/>
<polygon fill="#191970" stroke="#191970" points="188.3198,-81.1039 179.1323,-75.8275 183.0241,-85.6816 188.3198,-81.1039"/>
</g>
<!-- Node20&#45;&gt;Node5 -->
<g id="edge32" class="edge">
<title>Node20&#45;&gt;Node5</title>
<path fill="none" stroke="#191970" d="M443.4334,-224.3839C407.5236,-205.3176 336.8112,-160.366 360,-112 379.8881,-70.5185 425.781,-40.5692 456.5995,-24.2455"/>
<polygon fill="#191970" stroke="#191970" points="458.3286,-27.2924 465.6344,-19.6193 455.1382,-21.0617 458.3286,-27.2924"/>
</g>
<!-- Node20&#45;&gt;Node6 -->
<g id="edge35" class="edge">
<title>Node20&#45;&gt;Node6</title>
<path fill="none" stroke="#191970" d="M501.2525,-224.4369C539.3467,-214.9133 597.9313,-200.2672 639.0987,-189.9753"/>
<polygon fill="#191970" stroke="#191970" points="640.0528,-193.3446 648.9053,-187.5237 638.355,-186.5536 640.0528,-193.3446"/>
</g>
<!-- Node20&#45;&gt;Node7 -->
<g id="edge34" class="edge">
<title>Node20&#45;&gt;Node7</title>
<path fill="none" stroke="#191970" d="M458.055,-224.4509C448.4669,-205.936 427.1949,-164.8591 414.6936,-140.7187"/>
<polygon fill="#191970" stroke="#191970" points="417.6391,-138.7953 409.9325,-131.5249 411.4231,-142.0144 417.6391,-138.7953"/>
</g>
<!-- Node20&#45;&gt;Node9 -->
<g id="edge36" class="edge">
<title>Node20&#45;&gt;Node9</title>
<path fill="none" stroke="#191970" d="M519.6769,-229.7054C637.8419,-219.6569 905.1105,-190.8776 972,-132 1000.6403,-106.7901 997.6166,-57.4607 993.1536,-29.877"/>
<polygon fill="#191970" stroke="#191970" points="996.5576,-29.0356 991.3059,-19.834 989.6731,-30.3023 996.5576,-29.0356"/>
</g>
<!-- Node20&#45;&gt;Node10 -->
<g id="edge37" class="edge">
<title>Node20&#45;&gt;Node10</title>
<path fill="none" stroke="#191970" d="M411.9379,-224.4316C385.5106,-217.5831 353.8749,-206.251 330,-188 313.7075,-175.5453 301.2224,-155.4573 293.5823,-140.7103"/>
<polygon fill="#191970" stroke="#191970" points="296.6205,-138.956 289.0799,-131.5136 290.3335,-142.034 296.6205,-138.956"/>
</g>
<!-- Node20&#45;&gt;Node13 -->
<g id="edge38" class="edge">
<title>Node20&#45;&gt;Node13</title>
<path fill="none" stroke="#191970" d="M519.9112,-232.3134C632.8142,-228.3858 881.1221,-216.6864 961,-188 991.5883,-177.0149 1021.7294,-154.0832 1040.0976,-138.3649"/>
<polygon fill="#191970" stroke="#191970" points="1042.4617,-140.9469 1047.6679,-131.7194 1037.8436,-135.6862 1042.4617,-140.9469"/>
</g>
</g>
</svg>
        <g id="navigator" transform="translate(0 0)" fill="#404254">
                <rect fill="#f2f5e9" fill-opacity="0.5" stroke="#606060" stroke-width=".5" x="0" y="0" width="60" height="60"/>
                <use id="zoomplus" xlink:href="#zoomPlus" x="17" y="9" onmousedown="handleZoom(evt,'in')"/>
                <use id="zoomminus" xlink:href="#zoomMin" x="42" y="9" onmousedown="handleZoom(evt,'out')"/>
                <use id="reset" xlink:href="#resetDef" x="30" y="36" onmousedown="handleReset()"/>
                <g id="arrowUp" xlink:href="#dirArrow" transform="translate(30 24)" onmousedown="handlePan(0,-1)">
                  <use xlink:href="#rim" fill="#404040">
                        <set attributeName="fill" to="#808080" begin="arrowUp.mouseover" end="arrowUp.mouseout"/>
                  </use>
                  <path fill="none" stroke="white" stroke-width="1.5" d="M0,-3.0v7 M-2.5,-0.5L0,-3.0L2.5,-0.5"/>
                </g>
                <g id="arrowRight" xlink:href="#dirArrow" transform="rotate(90) translate(36 -43)" onmousedown="handlePan(1,0)">
                  <use xlink:href="#rim" fill="#404040">
                        <set attributeName="fill" to="#808080" begin="arrowRight.mouseover" end="arrowRight.mouseout"/>
                  </use>
                  <path fill="none" stroke="white" stroke-width="1.5" d="M0,-3.0v7 M-2.5,-0.5L0,-3.0L2.5,-0.5"/>
                </g>
                <g id="arrowDown" xlink:href="#dirArrow" transform="rotate(180) translate(-30 -48)" onmousedown="handlePan(0,1)">
                  <use xlink:href="#rim" fill="#404040">
                        <set attributeName="fill" to="#808080" begin="arrowDown.mouseover" end="arrowDown.mouseout"/>
                  </use>
                  <path fill="none" stroke="white" stroke-width="1.5" d="M0,-3.0v7 M-2.5,-0.5L0,-3.0L2.5,-0.5"/>
                </g>
                <g id="arrowLeft" xlink:href="#dirArrow" transform="rotate(270) translate(-36 17)" onmousedown="handlePan(-1,0)">
                  <use xlink:href="#rim" fill="#404040">
                        <set attributeName="fill" to="#808080" begin="arrowLeft.mouseover" end="arrowLeft.mouseout"/>
                  </use>
                  <path fill="none" stroke="white" stroke-width="1.5" d="M0,-3.0v7 M-2.5,-0.5L0,-3.0L2.5,-0.5"/>
                </g>
        </g>
        <svg viewBox="0 0 15 15" width="100%" height="30px" preserveAspectRatio="xMaxYMin meet">
         <g id="arrow_out" transform="scale(0.3 0.3)">
          <a xlink:href="ntv2vpidfromspec_8cpp__incl_org.svg" target="_base">
           <rect id="button" ry="5" rx="5" y="6" x="6" height="38" width="38"
                fill="#f2f5e9" fill-opacity="0.5" stroke="#606060" stroke-width="1.0"/>
           <path id="arrow"
             d="M 11.500037,31.436501 C 11.940474,20.09759 22.043105,11.32322 32.158766,21.979434 L 37.068811,17.246167 C 37.068811,17.246167 37.088388,32 37.088388,32 L 22.160133,31.978069 C 22.160133,31.978069 26.997745,27.140456 26.997745,27.140456 C 18.528582,18.264221 13.291696,25.230495 11.500037,31.436501 z"
             style="fill:#404040;"/>
          </a>
         </g>
        </svg>
</svg>
