<?xml version="1.0" encoding="UTF-8" standalone="no"?>
<!DOCTYPE svg PUBLIC "-//W3C//DTD SVG 1.1//EN"
 "http://www.w3.org/Graphics/SVG/1.1/DTD/svg11.dtd">
<!-- Generated by graphviz version 2.43.0 (0)
 -->
<!-- Title: /home/tcbuilder/buildAgent/work/df8e8cce5bebfd58/libajantv2/ajaanc/src/ancillarydatafactory.cpp Pages: 1 -->
<!--zoomable 509 -->
<svg id="main" version="1.1" xmlns="http://www.w3.org/2000/svg" xmlns:xlink="http://www.w3.org/1999/xlink" xml:space="preserve" onload="init(evt)">
<style type="text/css"><![CDATA[
.edge:hover path { stroke: red; }
.edge:hover polygon { stroke: red; fill: red; }
]]></style>
<script type="text/javascript"><![CDATA[
var edges = document.getElementsByTagName('g');
if (edges && edges.length) {
  for (var i=0;i<edges.length;i++) {
    if (edges[i].id.substr(0,4)=='edge') {
      edges[i].setAttribute('class','edge');
    }
  }
}
]]></script>
        <defs>
                <circle id="rim" cx="0" cy="0" r="7"/>
                <circle id="rim2" cx="0" cy="0" r="3.5"/>
                <g id="zoomPlus">
                        <use xlink:href="#rim" fill="#404040">
                                <set attributeName="fill" to="#808080" begin="zoomplus.mouseover" end="zoomplus.mouseout"/>
                        </use>
                        <path d="M-4,0h8M0,-4v8" fill="none" stroke="white" stroke-width="1.5" pointer-events="none"/>
                </g>
                <g id="zoomMin">
                        <use xlink:href="#rim" fill="#404040">
                                <set attributeName="fill" to="#808080" begin="zoomminus.mouseover" end="zoomminus.mouseout"/>
                        </use>
                        <path d="M-4,0h8" fill="none" stroke="white" stroke-width="1.5" pointer-events="none"/>
                </g>
                <g id="dirArrow">
                        <path fill="none" stroke="white" stroke-width="1.5" d="M0,-3.0v7 M-2.5,-0.5L0,-3.0L2.5,-0.5"/>
                </g>
               <g id="resetDef">
                       <use xlink:href="#rim2" fill="#404040">
                               <set attributeName="fill" to="#808080" begin="reset.mouseover" end="reset.mouseout"/>
                       </use>
               </g>
        </defs>

<script type="text/javascript">
var viewWidth = 1420;
var viewHeight = 509;
var sectionId = 'dynsection-0';
</script>
<script xlink:href="../../svgpan.js"/>
<svg id="graph" class="graph">
<g id="viewport">
<title>/home/tcbuilder/buildAgent/work/df8e8cce5bebfd58/libajantv2/ajaanc/src/ancillarydatafactory.cpp</title>
<polygon fill="white" stroke="transparent" points="-4,4 -4,-505 1415.56,-505 1415.56,4 -4,4"/>
<!-- Node1 -->
<g id="node1" class="node">
<title>Node1</title>
<g id="a_node1"><a xlink:title="Implementation of the AJAAncillaryDataFactory class.">
<polygon fill="#bfbfbf" stroke="black" points="671,-459.5 671,-500.5 860,-500.5 860,-459.5 671,-459.5"/>
<text text-anchor="start" x="679" y="-488.5" font-family="Helvetica,sans-Serif" font-size="10.00">/home/tcbuilder/buildAgent</text>
<text text-anchor="start" x="679" y="-477.5" font-family="Helvetica,sans-Serif" font-size="10.00">/work/df8e8cce5bebfd58/libajantv2</text>
<text text-anchor="middle" x="765.5" y="-466.5" font-family="Helvetica,sans-Serif" font-size="10.00">/ajaanc/src/ancillarydatafactory.cpp</text>
</a>
</g>
</g>
<!-- Node2 -->
<g id="node2" class="node">
<title>Node2</title>
<g id="a_node2"><a xlink:href="../../df/d78/ancillarydatafactory_8h.html" target="_top" xlink:title="Declaration of the AJAAncillaryDataFactory class.">
<polygon fill="white" stroke="black" points="522.5,-280.5 522.5,-299.5 644.5,-299.5 644.5,-280.5 522.5,-280.5"/>
<text text-anchor="middle" x="583.5" y="-287.5" font-family="Helvetica,sans-Serif" font-size="10.00">ancillarydatafactory.h</text>
</a>
</g>
</g>
<!-- Node1&#45;&gt;Node2 -->
<g id="edge1" class="edge">
<title>Node1&#45;&gt;Node2</title>
<path fill="none" stroke="midnightblue" d="M724.19,-459.43C685.68,-439.03 629.64,-403.4 598.5,-356 589.45,-342.24 585.83,-323.71 584.39,-309.96"/>
<polygon fill="midnightblue" stroke="midnightblue" points="587.87,-309.45 583.63,-299.74 580.89,-309.97 587.87,-309.45"/>
</g>
<!-- Node3 -->
<g id="node3" class="node">
<title>Node3</title>
<g id="a_node3"><a xlink:href="../../d7/d92/ancillarydata_8h.html" target="_top" xlink:title="Declares the AJAAncillaryData class.">
<polygon fill="white" stroke="black" points="624,-224.5 624,-243.5 713,-243.5 713,-224.5 624,-224.5"/>
<text text-anchor="middle" x="668.5" y="-231.5" font-family="Helvetica,sans-Serif" font-size="10.00">ancillarydata.h</text>
</a>
</g>
</g>
<!-- Node1&#45;&gt;Node3 -->
<g id="edge27" class="edge">
<title>Node1&#45;&gt;Node3</title>
<path fill="none" stroke="midnightblue" d="M860.09,-473.36C1054.74,-459.97 1475.99,-420.8 1402.5,-336 1357.96,-284.61 886.09,-249.2 723.33,-238.44"/>
<polygon fill="midnightblue" stroke="midnightblue" points="723.27,-234.93 713.06,-237.77 722.81,-241.91 723.27,-234.93"/>
</g>
<!-- Node21 -->
<g id="node21" class="node">
<title>Node21</title>
<g id="a_node21"><a xlink:href="../../d5/d41/ancillarydata__timecode__atc_8h.html" target="_top" xlink:title="Declares the AJAAncillaryData_Timecode_ATC class.">
<polygon fill="white" stroke="black" points="183,-392.5 183,-422.5 314,-422.5 314,-392.5 183,-392.5"/>
<text text-anchor="start" x="191" y="-410.5" font-family="Helvetica,sans-Serif" font-size="10.00">ancillarydata_timecode</text>
<text text-anchor="middle" x="248.5" y="-399.5" font-family="Helvetica,sans-Serif" font-size="10.00">_atc.h</text>
</a>
</g>
</g>
<!-- Node1&#45;&gt;Node21 -->
<g id="edge28" class="edge">
<title>Node1&#45;&gt;Node21</title>
<path fill="none" stroke="midnightblue" d="M670.61,-468.89C583.09,-459.13 449.36,-443.12 324.36,-423.24"/>
<polygon fill="midnightblue" stroke="midnightblue" points="324.65,-419.74 314.22,-421.62 323.54,-426.66 324.65,-419.74"/>
</g>
<!-- Node29 -->
<g id="node29" class="node">
<title>Node29</title>
<g id="a_node29"><a xlink:href="../../d4/d69/ancillarydata__timecode__vitc_8h.html" target="_top" xlink:title="Declares the AJAAncillaryData_Timecode_VITC class.">
<polygon fill="white" stroke="black" points="332,-392.5 332,-422.5 463,-422.5 463,-392.5 332,-392.5"/>
<text text-anchor="start" x="340" y="-410.5" font-family="Helvetica,sans-Serif" font-size="10.00">ancillarydata_timecode</text>
<text text-anchor="middle" x="397.5" y="-399.5" font-family="Helvetica,sans-Serif" font-size="10.00">_vitc.h</text>
</a>
</g>
</g>
<!-- Node1&#45;&gt;Node29 -->
<g id="edge45" class="edge">
<title>Node1&#45;&gt;Node29</title>
<path fill="none" stroke="midnightblue" d="M670.8,-461.09C615.76,-450.66 544.79,-437.14 473.34,-423.35"/>
<polygon fill="midnightblue" stroke="midnightblue" points="473.74,-419.86 463.26,-421.4 472.42,-426.74 473.74,-419.86"/>
</g>
<!-- Node30 -->
<g id="node30" class="node">
<title>Node30</title>
<g id="a_node30"><a xlink:href="../../d1/d0a/ancillarydata__cea708_8h.html" target="_top" xlink:title="Declares the AJAAncillaryData_Cea708 class.">
<polygon fill="white" stroke="black" points="1263.5,-336.5 1263.5,-355.5 1393.5,-355.5 1393.5,-336.5 1263.5,-336.5"/>
<text text-anchor="middle" x="1328.5" y="-343.5" font-family="Helvetica,sans-Serif" font-size="10.00">ancillarydata_cea708.h</text>
</a>
</g>
</g>
<!-- Node1&#45;&gt;Node30 -->
<g id="edge49" class="edge">
<title>Node1&#45;&gt;Node30</title>
<path fill="none" stroke="midnightblue" d="M848.87,-459.45C969.08,-431.27 1187.03,-380.17 1282.09,-357.88"/>
<polygon fill="midnightblue" stroke="midnightblue" points="1283.04,-361.25 1291.98,-355.56 1281.44,-354.44 1283.04,-361.25"/>
</g>
<!-- Node31 -->
<g id="node31" class="node">
<title>Node31</title>
<g id="a_node31"><a xlink:href="../../d8/d19/ancillarydata__cea608__vanc_8h.html" target="_top" xlink:title="Declares the AJAAncillaryData_Cea608_Vanc class.">
<polygon fill="white" stroke="black" points="481,-392.5 481,-422.5 602,-422.5 602,-392.5 481,-392.5"/>
<text text-anchor="start" x="489" y="-410.5" font-family="Helvetica,sans-Serif" font-size="10.00">ancillarydata_cea608</text>
<text text-anchor="middle" x="541.5" y="-399.5" font-family="Helvetica,sans-Serif" font-size="10.00">_vanc.h</text>
</a>
</g>
</g>
<!-- Node1&#45;&gt;Node31 -->
<g id="edge52" class="edge">
<title>Node1&#45;&gt;Node31</title>
<path fill="none" stroke="midnightblue" d="M703.4,-459.46C669.72,-448.86 628.48,-435.88 596.05,-425.67"/>
<polygon fill="midnightblue" stroke="midnightblue" points="596.88,-422.26 586.29,-422.6 594.78,-428.94 596.88,-422.26"/>
</g>
<!-- Node33 -->
<g id="node33" class="node">
<title>Node33</title>
<g id="a_node33"><a xlink:href="../../df/d6a/ancillarydata__cea608__line21_8h.html" target="_top" xlink:title="Declares the AJAAncillaryData_Cea608_line21 class.">
<polygon fill="white" stroke="black" points="705,-392.5 705,-422.5 826,-422.5 826,-392.5 705,-392.5"/>
<text text-anchor="start" x="713" y="-410.5" font-family="Helvetica,sans-Serif" font-size="10.00">ancillarydata_cea608</text>
<text text-anchor="middle" x="765.5" y="-399.5" font-family="Helvetica,sans-Serif" font-size="10.00">_line21.h</text>
</a>
</g>
</g>
<!-- Node1&#45;&gt;Node33 -->
<g id="edge58" class="edge">
<title>Node1&#45;&gt;Node33</title>
<path fill="none" stroke="midnightblue" d="M765.5,-459.36C765.5,-451.23 765.5,-441.7 765.5,-433.11"/>
<polygon fill="midnightblue" stroke="midnightblue" points="769,-432.89 765.5,-422.89 762,-432.89 769,-432.89"/>
</g>
<!-- Node34 -->
<g id="node34" class="node">
<title>Node34</title>
<g id="a_node34"><a xlink:href="../../d2/d55/ancillarydata__framestatusinfo524_d_8h.html" target="_top" xlink:title="Declares the AJAAncillaryData_FrameStatusInfo524D class.">
<polygon fill="white" stroke="black" points="831.5,-336.5 831.5,-355.5 1029.5,-355.5 1029.5,-336.5 831.5,-336.5"/>
<text text-anchor="middle" x="930.5" y="-343.5" font-family="Helvetica,sans-Serif" font-size="10.00">ancillarydata_framestatusinfo524D.h</text>
</a>
</g>
</g>
<!-- Node1&#45;&gt;Node34 -->
<g id="edge62" class="edge">
<title>Node1&#45;&gt;Node34</title>
<path fill="none" stroke="midnightblue" d="M790.2,-459.24C823.42,-432.66 881.77,-385.98 911.67,-362.06"/>
<polygon fill="midnightblue" stroke="midnightblue" points="914.02,-364.67 919.64,-355.69 909.65,-359.2 914.02,-364.67"/>
</g>
<!-- Node35 -->
<g id="node35" class="node">
<title>Node35</title>
<g id="a_node35"><a xlink:href="../../d1/df1/ancillarydata__framestatusinfo5251_8h.html" target="_top" xlink:title="Declares the AJAAncillaryData_FrameStatusInfo5251 class.">
<polygon fill="white" stroke="black" points="1048,-336.5 1048,-355.5 1245,-355.5 1245,-336.5 1048,-336.5"/>
<text text-anchor="middle" x="1146.5" y="-343.5" font-family="Helvetica,sans-Serif" font-size="10.00">ancillarydata_framestatusinfo5251.h</text>
</a>
</g>
</g>
<!-- Node1&#45;&gt;Node35 -->
<g id="edge65" class="edge">
<title>Node1&#45;&gt;Node35</title>
<path fill="none" stroke="midnightblue" d="M822.13,-459.38C902.38,-431.58 1046.71,-381.57 1112.35,-358.83"/>
<polygon fill="midnightblue" stroke="midnightblue" points="1113.51,-362.13 1121.81,-355.55 1111.22,-355.52 1113.51,-362.13"/>
</g>
<!-- Node2&#45;&gt;Node3 -->
<g id="edge2" class="edge">
<title>Node2&#45;&gt;Node3</title>
<path fill="none" stroke="midnightblue" d="M597.16,-280.32C610.41,-271.9 630.77,-258.97 646.34,-249.07"/>
<polygon fill="midnightblue" stroke="midnightblue" points="648.31,-251.97 654.88,-243.65 644.56,-246.06 648.31,-251.97"/>
</g>
<!-- Node4 -->
<g id="node4" class="node">
<title>Node4</title>
<g id="a_node4"><a xlink:href="../../db/de2/ajatypes_8h.html" target="_top" xlink:title="Declares the most fundamental data types used by NTV2. Since Windows NT was the first principal devel...">
<polygon fill="white" stroke="black" points="1141.5,-56.5 1141.5,-75.5 1209.5,-75.5 1209.5,-56.5 1141.5,-56.5"/>
<text text-anchor="middle" x="1175.5" y="-63.5" font-family="Helvetica,sans-Serif" font-size="10.00">ajatypes.h</text>
</a>
</g>
</g>
<!-- Node3&#45;&gt;Node4 -->
<g id="edge3" class="edge">
<title>Node3&#45;&gt;Node4</title>
<path fill="none" stroke="midnightblue" d="M713.4,-233.21C847.25,-232.78 1239.06,-223.59 1317.5,-132 1348.09,-96.28 1272.05,-79.13 1219.83,-71.78"/>
<polygon fill="midnightblue" stroke="midnightblue" points="1220.11,-68.28 1209.74,-70.43 1219.19,-75.22 1220.11,-68.28"/>
</g>
<!-- Node6 -->
<g id="node6" class="node">
<title>Node6</title>
<g id="a_node6"><a xlink:href="../../d6/db1/ntv2version_8h.html" target="_top" xlink:title="Defines for the NTV2 SDK version number, used by ajantv2/includes/ntv2enums.h. See the ajantv2/includ...">
<polygon fill="white" stroke="black" points="807,-56.5 807,-75.5 890,-75.5 890,-56.5 807,-56.5"/>
<text text-anchor="middle" x="848.5" y="-63.5" font-family="Helvetica,sans-Serif" font-size="10.00">ntv2version.h</text>
</a>
</g>
</g>
<!-- Node3&#45;&gt;Node6 -->
<g id="edge5" class="edge">
<title>Node3&#45;&gt;Node6</title>
<path fill="none" stroke="midnightblue" d="M650.72,-224.38C612.2,-204.61 527.27,-154.4 563.5,-112 592.91,-77.58 722.86,-69.33 796.72,-67.46"/>
<polygon fill="midnightblue" stroke="midnightblue" points="796.84,-70.96 806.75,-67.23 796.68,-63.96 796.84,-70.96"/>
</g>
<!-- Node9 -->
<g id="node9" class="node">
<title>Node9</title>
<g id="a_node9"><a xlink:href="../../d9/d49/types_8h.html" target="_top" xlink:title="Declares common types used in the ajabase library.">
<polygon fill="white" stroke="black" points="320.5,-112.5 320.5,-131.5 460.5,-131.5 460.5,-112.5 320.5,-112.5"/>
<text text-anchor="middle" x="390.5" y="-119.5" font-family="Helvetica,sans-Serif" font-size="10.00">ajabase/common/types.h</text>
</a>
</g>
</g>
<!-- Node3&#45;&gt;Node9 -->
<g id="edge8" class="edge">
<title>Node3&#45;&gt;Node9</title>
<path fill="none" stroke="midnightblue" d="M638.79,-224.44C610.6,-216.04 567.2,-202.44 530.5,-188 489.9,-172.02 444.32,-150.08 416.51,-136.22"/>
<polygon fill="midnightblue" stroke="midnightblue" points="417.96,-133.03 407.45,-131.68 414.82,-139.29 417.96,-133.03"/>
</g>
<!-- Node10 -->
<g id="node10" class="node">
<title>Node10</title>
<g id="a_node10"><a xlink:href="../../d4/dd7/ntv2publicinterface_8h.html" target="_top" xlink:title="Declares enums and structs used by all platform drivers and the SDK.">
<polygon fill="white" stroke="black" points="762.5,-168.5 762.5,-187.5 882.5,-187.5 882.5,-168.5 762.5,-168.5"/>
<text text-anchor="middle" x="822.5" y="-175.5" font-family="Helvetica,sans-Serif" font-size="10.00">ntv2publicinterface.h</text>
</a>
</g>
</g>
<!-- Node3&#45;&gt;Node10 -->
<g id="edge9" class="edge">
<title>Node3&#45;&gt;Node10</title>
<path fill="none" stroke="midnightblue" d="M692.9,-224.44C718.69,-215.4 759.57,-201.06 788.52,-190.92"/>
<polygon fill="midnightblue" stroke="midnightblue" points="789.93,-194.13 798.21,-187.52 787.62,-187.52 789.93,-194.13"/>
</g>
<!-- Node15 -->
<g id="node15" class="node">
<title>Node15</title>
<g id="a_node15"><a xlink:title=" ">
<polygon fill="white" stroke="#bfbfbf" points="573,-112.5 573,-131.5 620,-131.5 620,-112.5 573,-112.5"/>
<text text-anchor="middle" x="596.5" y="-119.5" font-family="Helvetica,sans-Serif" font-size="10.00">vector</text>
</a>
</g>
</g>
<!-- Node3&#45;&gt;Node15 -->
<g id="edge26" class="edge">
<title>Node3&#45;&gt;Node15</title>
<path fill="none" stroke="midnightblue" d="M660.6,-224.43C652.71,-215.66 640.52,-201.44 631.5,-188 621.25,-172.73 611.5,-154.17 604.91,-140.8"/>
<polygon fill="midnightblue" stroke="midnightblue" points="608.02,-139.2 600.52,-131.72 601.72,-142.25 608.02,-139.2"/>
</g>
<!-- Node20 -->
<g id="node20" class="node">
<title>Node20</title>
<g id="a_node20"><a xlink:title=" ">
<polygon fill="white" stroke="#bfbfbf" points="640.5,-168.5 640.5,-187.5 696.5,-187.5 696.5,-168.5 640.5,-168.5"/>
<text text-anchor="middle" x="668.5" y="-175.5" font-family="Helvetica,sans-Serif" font-size="10.00">sstream</text>
</a>
</g>
</g>
<!-- Node3&#45;&gt;Node20 -->
<g id="edge25" class="edge">
<title>Node3&#45;&gt;Node20</title>
<path fill="none" stroke="midnightblue" d="M668.5,-224.08C668.5,-217.01 668.5,-206.86 668.5,-197.99"/>
<polygon fill="midnightblue" stroke="midnightblue" points="672,-197.75 668.5,-187.75 665,-197.75 672,-197.75"/>
</g>
<!-- Node5 -->
<g id="node5" class="node">
<title>Node5</title>
<g id="a_node5"><a xlink:title=" ">
<polygon fill="white" stroke="#bfbfbf" points="1149,-0.5 1149,-19.5 1202,-19.5 1202,-0.5 1149,-0.5"/>
<text text-anchor="middle" x="1175.5" y="-7.5" font-family="Helvetica,sans-Serif" font-size="10.00">stdint.h</text>
</a>
</g>
</g>
<!-- Node4&#45;&gt;Node5 -->
<g id="edge4" class="edge">
<title>Node4&#45;&gt;Node5</title>
<path fill="none" stroke="midnightblue" d="M1175.5,-56.08C1175.5,-49.01 1175.5,-38.86 1175.5,-29.99"/>
<polygon fill="midnightblue" stroke="midnightblue" points="1179,-29.75 1175.5,-19.75 1172,-29.75 1179,-29.75"/>
</g>
<!-- Node7 -->
<g id="node7" class="node">
<title>Node7</title>
<g id="a_node7"><a xlink:href="../../d6/dd9/ajaexport_8h.html" target="_top" xlink:title="Defines the import/export macros for producing DLLs or LIBs.">
<polygon fill="white" stroke="black" points="909.5,-0.5 909.5,-19.5 981.5,-19.5 981.5,-0.5 909.5,-0.5"/>
<text text-anchor="middle" x="945.5" y="-7.5" font-family="Helvetica,sans-Serif" font-size="10.00">ajaexport.h</text>
</a>
</g>
</g>
<!-- Node6&#45;&gt;Node7 -->
<g id="edge6" class="edge">
<title>Node6&#45;&gt;Node7</title>
<path fill="none" stroke="midnightblue" d="M864.08,-56.32C879.5,-47.74 903.31,-34.49 921.21,-24.52"/>
<polygon fill="midnightblue" stroke="midnightblue" points="922.92,-27.58 929.95,-19.65 919.51,-21.46 922.92,-27.58"/>
</g>
<!-- Node8 -->
<g id="node8" class="node">
<title>Node8</title>
<g id="a_node8"><a xlink:title=" ">
<polygon fill="white" stroke="#bfbfbf" points="626.5,-0.5 626.5,-19.5 670.5,-19.5 670.5,-0.5 626.5,-0.5"/>
<text text-anchor="middle" x="648.5" y="-7.5" font-family="Helvetica,sans-Serif" font-size="10.00">string</text>
</a>
</g>
</g>
<!-- Node6&#45;&gt;Node8 -->
<g id="edge7" class="edge">
<title>Node6&#45;&gt;Node8</title>
<path fill="none" stroke="midnightblue" d="M816.81,-56.44C779.56,-46.39 718.08,-29.79 680.64,-19.68"/>
<polygon fill="midnightblue" stroke="midnightblue" points="681.32,-16.24 670.75,-17.01 679.49,-22.99 681.32,-16.24"/>
</g>
<!-- Node10&#45;&gt;Node4 -->
<g id="edge10" class="edge">
<title>Node10&#45;&gt;Node4</title>
<path fill="none" stroke="midnightblue" d="M882.51,-170.66C930.61,-164.35 999.27,-152.56 1056.5,-132 1075.69,-125.1 1123.41,-97.77 1152.25,-80.82"/>
<polygon fill="midnightblue" stroke="midnightblue" points="1154.06,-83.82 1160.89,-75.72 1150.5,-77.79 1154.06,-83.82"/>
</g>
<!-- Node10&#45;&gt;Node7 -->
<g id="edge22" class="edge">
<title>Node10&#45;&gt;Node7</title>
<path fill="none" stroke="midnightblue" d="M882.57,-171.73C935.24,-165.72 1006.06,-153.77 1023.5,-132 1052.35,-95.98 999,-48.97 967.03,-25.57"/>
<polygon fill="midnightblue" stroke="midnightblue" points="968.84,-22.56 958.66,-19.62 964.78,-28.27 968.84,-22.56"/>
</g>
<!-- Node10&#45;&gt;Node8 -->
<g id="edge18" class="edge">
<title>Node10&#45;&gt;Node8</title>
<path fill="none" stroke="midnightblue" d="M762.39,-174.63C729.65,-170.08 691.11,-158.81 667.5,-132 642.4,-103.5 643.07,-55.89 645.77,-29.69"/>
<polygon fill="midnightblue" stroke="midnightblue" points="649.27,-29.95 647.03,-19.6 642.32,-29.09 649.27,-29.95"/>
</g>
<!-- Node11 -->
<g id="node11" class="node">
<title>Node11</title>
<g id="a_node11"><a xlink:href="../../d6/d0c/ntv2enums_8h.html" target="_top" xlink:title="Enumerations for controlling NTV2 devices.">
<polygon fill="white" stroke="black" points="934.5,-112.5 934.5,-131.5 1014.5,-131.5 1014.5,-112.5 934.5,-112.5"/>
<text text-anchor="middle" x="974.5" y="-119.5" font-family="Helvetica,sans-Serif" font-size="10.00">ntv2enums.h</text>
</a>
</g>
</g>
<!-- Node10&#45;&gt;Node11 -->
<g id="edge11" class="edge">
<title>Node10&#45;&gt;Node11</title>
<path fill="none" stroke="midnightblue" d="M846.58,-168.44C872.04,-159.4 912.39,-145.06 940.96,-134.92"/>
<polygon fill="midnightblue" stroke="midnightblue" points="942.27,-138.16 950.53,-131.52 939.93,-131.57 942.27,-138.16"/>
</g>
<!-- Node12 -->
<g id="node12" class="node">
<title>Node12</title>
<g id="a_node12"><a xlink:title=" ">
<polygon fill="white" stroke="#bfbfbf" points="1108.5,-112.5 1108.5,-131.5 1168.5,-131.5 1168.5,-112.5 1108.5,-112.5"/>
<text text-anchor="middle" x="1138.5" y="-119.5" font-family="Helvetica,sans-Serif" font-size="10.00">iostream</text>
</a>
</g>
</g>
<!-- Node10&#45;&gt;Node12 -->
<g id="edge14" class="edge">
<title>Node10&#45;&gt;Node12</title>
<path fill="none" stroke="midnightblue" d="M877.83,-168.47C932.86,-159.85 1019.66,-145.84 1094.5,-132 1095.75,-131.77 1097.02,-131.53 1098.3,-131.29"/>
<polygon fill="midnightblue" stroke="midnightblue" points="1099.09,-134.7 1108.23,-129.35 1097.75,-127.83 1099.09,-134.7"/>
</g>
<!-- Node13 -->
<g id="node13" class="node">
<title>Node13</title>
<g id="a_node13"><a xlink:title=" ">
<polygon fill="white" stroke="#bfbfbf" points="676.5,-112.5 676.5,-131.5 708.5,-131.5 708.5,-112.5 676.5,-112.5"/>
<text text-anchor="middle" x="692.5" y="-119.5" font-family="Helvetica,sans-Serif" font-size="10.00">set</text>
</a>
</g>
</g>
<!-- Node10&#45;&gt;Node13 -->
<g id="edge15" class="edge">
<title>Node10&#45;&gt;Node13</title>
<path fill="none" stroke="midnightblue" d="M801.9,-168.44C779.25,-159.03 742.81,-143.9 718.28,-133.71"/>
<polygon fill="midnightblue" stroke="midnightblue" points="719.46,-130.41 708.88,-129.81 716.78,-136.88 719.46,-130.41"/>
</g>
<!-- Node14 -->
<g id="node14" class="node">
<title>Node14</title>
<g id="a_node14"><a xlink:title=" ">
<polygon fill="white" stroke="#bfbfbf" points="478.5,-112.5 478.5,-131.5 516.5,-131.5 516.5,-112.5 478.5,-112.5"/>
<text text-anchor="middle" x="497.5" y="-119.5" font-family="Helvetica,sans-Serif" font-size="10.00">map</text>
</a>
</g>
</g>
<!-- Node10&#45;&gt;Node14 -->
<g id="edge16" class="edge">
<title>Node10&#45;&gt;Node14</title>
<path fill="none" stroke="midnightblue" d="M771,-168.44C702.04,-156.98 581.97,-137.04 526.78,-127.87"/>
<polygon fill="midnightblue" stroke="midnightblue" points="527.08,-124.37 516.64,-126.18 525.93,-131.27 527.08,-124.37"/>
</g>
<!-- Node10&#45;&gt;Node15 -->
<g id="edge17" class="edge">
<title>Node10&#45;&gt;Node15</title>
<path fill="none" stroke="midnightblue" d="M786.69,-168.44C743.57,-158.14 671.73,-140.97 629.77,-130.95"/>
<polygon fill="midnightblue" stroke="midnightblue" points="630.58,-127.54 620.04,-128.62 628.95,-134.35 630.58,-127.54"/>
</g>
<!-- Node16 -->
<g id="node16" class="node">
<title>Node16</title>
<g id="a_node16"><a xlink:title=" ">
<polygon fill="white" stroke="#bfbfbf" points="726.5,-112.5 726.5,-131.5 782.5,-131.5 782.5,-112.5 726.5,-112.5"/>
<text text-anchor="middle" x="754.5" y="-119.5" font-family="Helvetica,sans-Serif" font-size="10.00">iomanip</text>
</a>
</g>
</g>
<!-- Node10&#45;&gt;Node16 -->
<g id="edge19" class="edge">
<title>Node10&#45;&gt;Node16</title>
<path fill="none" stroke="midnightblue" d="M811.57,-168.32C801.32,-160.18 785.78,-147.84 773.5,-138.09"/>
<polygon fill="midnightblue" stroke="midnightblue" points="775.63,-135.31 765.62,-131.83 771.28,-140.79 775.63,-135.31"/>
</g>
<!-- Node17 -->
<g id="node17" class="node">
<title>Node17</title>
<g id="a_node17"><a xlink:title=" ">
<polygon fill="white" stroke="#bfbfbf" points="800.5,-112.5 800.5,-131.5 844.5,-131.5 844.5,-112.5 800.5,-112.5"/>
<text text-anchor="middle" x="822.5" y="-119.5" font-family="Helvetica,sans-Serif" font-size="10.00">bitset</text>
</a>
</g>
</g>
<!-- Node10&#45;&gt;Node17 -->
<g id="edge20" class="edge">
<title>Node10&#45;&gt;Node17</title>
<path fill="none" stroke="midnightblue" d="M822.5,-168.08C822.5,-161.01 822.5,-150.86 822.5,-141.99"/>
<polygon fill="midnightblue" stroke="midnightblue" points="826,-141.75 822.5,-131.75 819,-141.75 826,-141.75"/>
</g>
<!-- Node18 -->
<g id="node18" class="node">
<title>Node18</title>
<g id="a_node18"><a xlink:title=" ">
<polygon fill="white" stroke="#bfbfbf" points="863,-112.5 863,-131.5 916,-131.5 916,-112.5 863,-112.5"/>
<text text-anchor="middle" x="889.5" y="-119.5" font-family="Helvetica,sans-Serif" font-size="10.00">string.h</text>
</a>
</g>
</g>
<!-- Node10&#45;&gt;Node18 -->
<g id="edge21" class="edge">
<title>Node10&#45;&gt;Node18</title>
<path fill="none" stroke="midnightblue" d="M833.26,-168.32C843.26,-160.26 858.38,-148.08 870.43,-138.37"/>
<polygon fill="midnightblue" stroke="midnightblue" points="872.95,-140.83 878.54,-131.83 868.56,-135.38 872.95,-140.83"/>
</g>
<!-- Node19 -->
<g id="node19" class="node">
<title>Node19</title>
<g id="a_node19"><a xlink:href="../../da/df0/ntv2virtualregisters_8h.html" target="_top" xlink:title="Declares enums for virtual registers used in all platform drivers and the SDK.">
<polygon fill="white" stroke="black" points="1186.5,-112.5 1186.5,-131.5 1308.5,-131.5 1308.5,-112.5 1186.5,-112.5"/>
<text text-anchor="middle" x="1247.5" y="-119.5" font-family="Helvetica,sans-Serif" font-size="10.00">ntv2virtualregisters.h</text>
</a>
</g>
</g>
<!-- Node10&#45;&gt;Node19 -->
<g id="edge23" class="edge">
<title>Node10&#45;&gt;Node19</title>
<path fill="none" stroke="midnightblue" d="M882.8,-169.39C951.3,-160.74 1066.72,-146.13 1176.18,-132.17"/>
<polygon fill="midnightblue" stroke="midnightblue" points="1176.94,-135.6 1186.42,-130.86 1176.05,-128.65 1176.94,-135.6"/>
</g>
<!-- Node11&#45;&gt;Node4 -->
<g id="edge12" class="edge">
<title>Node11&#45;&gt;Node4</title>
<path fill="none" stroke="midnightblue" d="M1006.35,-112.44C1040.9,-103.16 1096.18,-88.31 1134.08,-78.13"/>
<polygon fill="midnightblue" stroke="midnightblue" points="1135.05,-81.49 1143.8,-75.52 1133.23,-74.73 1135.05,-81.49"/>
</g>
<!-- Node11&#45;&gt;Node6 -->
<g id="edge13" class="edge">
<title>Node11&#45;&gt;Node6</title>
<path fill="none" stroke="midnightblue" d="M954.53,-112.44C933.89,-103.6 901.44,-89.69 877.87,-79.59"/>
<polygon fill="midnightblue" stroke="midnightblue" points="878.94,-76.24 868.37,-75.52 876.18,-82.67 878.94,-76.24"/>
</g>
<!-- Node19&#45;&gt;Node4 -->
<g id="edge24" class="edge">
<title>Node19&#45;&gt;Node4</title>
<path fill="none" stroke="midnightblue" d="M1235.93,-112.32C1225.08,-104.18 1208.62,-91.84 1195.61,-82.09"/>
<polygon fill="midnightblue" stroke="midnightblue" points="1197.38,-79.03 1187.28,-75.83 1193.18,-84.63 1197.38,-79.03"/>
</g>
<!-- Node21&#45;&gt;Node2 -->
<g id="edge29" class="edge">
<title>Node21&#45;&gt;Node2</title>
<path fill="none" stroke="midnightblue" d="M289.24,-392.45C355.81,-369.5 486.69,-324.38 548.98,-302.9"/>
<polygon fill="midnightblue" stroke="midnightblue" points="550.41,-306.11 558.72,-299.54 548.13,-299.49 550.41,-306.11"/>
</g>
<!-- Node21&#45;&gt;Node3 -->
<g id="edge30" class="edge">
<title>Node21&#45;&gt;Node3</title>
<path fill="none" stroke="midnightblue" d="M232.31,-392.24C217.77,-377.64 200.41,-354.54 212.5,-336 246.19,-284.32 280.14,-296.79 339.5,-280 433.62,-253.38 547.5,-242.28 613.6,-237.82"/>
<polygon fill="midnightblue" stroke="midnightblue" points="614.04,-241.3 623.79,-237.16 613.59,-234.31 614.04,-241.3"/>
</g>
<!-- Node22 -->
<g id="node22" class="node">
<title>Node22</title>
<g id="a_node22"><a xlink:href="../../d4/d23/ancillarydata__timecode_8h.html" target="_top" xlink:title="Declares the AJAAncillaryData_Timecode class.">
<polygon fill="white" stroke="black" points="221.5,-336.5 221.5,-355.5 361.5,-355.5 361.5,-336.5 221.5,-336.5"/>
<text text-anchor="middle" x="291.5" y="-343.5" font-family="Helvetica,sans-Serif" font-size="10.00">ancillarydata_timecode.h</text>
</a>
</g>
</g>
<!-- Node21&#45;&gt;Node22 -->
<g id="edge31" class="edge">
<title>Node21&#45;&gt;Node22</title>
<path fill="none" stroke="midnightblue" d="M258.69,-392.4C264.87,-383.84 272.8,-372.87 279.32,-363.86"/>
<polygon fill="midnightblue" stroke="midnightblue" points="282.22,-365.81 285.24,-355.66 276.55,-361.71 282.22,-365.81"/>
</g>
<!-- Node22&#45;&gt;Node2 -->
<g id="edge43" class="edge">
<title>Node22&#45;&gt;Node2</title>
<path fill="none" stroke="midnightblue" d="M337.77,-336.44C389.24,-326.92 472.39,-311.55 527.5,-301.36"/>
<polygon fill="midnightblue" stroke="midnightblue" points="528.25,-304.78 537.45,-299.52 526.98,-297.89 528.25,-304.78"/>
</g>
<!-- Node22&#45;&gt;Node3 -->
<g id="edge44" class="edge">
<title>Node22&#45;&gt;Node3</title>
<path fill="none" stroke="midnightblue" d="M299.84,-336.11C313.92,-321.71 343.98,-293.53 375.5,-280 453.73,-246.42 553.21,-237.45 613.8,-235.3"/>
<polygon fill="midnightblue" stroke="midnightblue" points="614.03,-238.8 623.92,-234.99 613.82,-231.8 614.03,-238.8"/>
</g>
<!-- Node23 -->
<g id="node23" class="node">
<title>Node23</title>
<g id="a_node23"><a xlink:href="../../d6/d23/timecode_8h.html" target="_top" xlink:title="Declares the AJATimeCode class.">
<polygon fill="white" stroke="black" points="14.5,-280.5 14.5,-299.5 172.5,-299.5 172.5,-280.5 14.5,-280.5"/>
<text text-anchor="middle" x="93.5" y="-287.5" font-family="Helvetica,sans-Serif" font-size="10.00">ajabase/common/timecode.h</text>
</a>
</g>
</g>
<!-- Node22&#45;&gt;Node23 -->
<g id="edge32" class="edge">
<title>Node22&#45;&gt;Node23</title>
<path fill="none" stroke="midnightblue" d="M260.12,-336.44C226.24,-327.2 172.1,-312.44 134.77,-302.26"/>
<polygon fill="midnightblue" stroke="midnightblue" points="135.29,-298.77 124.73,-299.52 133.45,-305.52 135.29,-298.77"/>
</g>
<!-- Node24 -->
<g id="node24" class="node">
<title>Node24</title>
<g id="a_node24"><a xlink:href="../../d4/d3c/timebase_8h.html" target="_top" xlink:title="Declares the AJATimeBase class.">
<polygon fill="white" stroke="black" points="14.5,-224.5 14.5,-243.5 172.5,-243.5 172.5,-224.5 14.5,-224.5"/>
<text text-anchor="middle" x="93.5" y="-231.5" font-family="Helvetica,sans-Serif" font-size="10.00">ajabase/common/timebase.h</text>
</a>
</g>
</g>
<!-- Node22&#45;&gt;Node24 -->
<g id="edge42" class="edge">
<title>Node22&#45;&gt;Node24</title>
<path fill="none" stroke="midnightblue" d="M221.38,-344.02C145.83,-341.3 32.73,-331.85 5.5,-300 -13.63,-277.63 22.65,-258.52 54.26,-246.93"/>
<polygon fill="midnightblue" stroke="midnightblue" points="55.57,-250.18 63.86,-243.57 53.26,-243.57 55.57,-250.18"/>
</g>
<!-- Node23&#45;&gt;Node24 -->
<g id="edge33" class="edge">
<title>Node23&#45;&gt;Node24</title>
<path fill="none" stroke="midnightblue" d="M93.5,-280.08C93.5,-273.01 93.5,-262.86 93.5,-253.99"/>
<polygon fill="midnightblue" stroke="midnightblue" points="97,-253.75 93.5,-243.75 90,-253.75 97,-253.75"/>
</g>
<!-- Node25 -->
<g id="node25" class="node">
<title>Node25</title>
<g id="a_node25"><a xlink:href="../../d4/d79/public_8h.html" target="_top" xlink:title="Master header for the ajabase library.">
<polygon fill="white" stroke="black" points="221.5,-168.5 221.5,-187.5 363.5,-187.5 363.5,-168.5 221.5,-168.5"/>
<text text-anchor="middle" x="292.5" y="-175.5" font-family="Helvetica,sans-Serif" font-size="10.00">ajabase/common/public.h</text>
</a>
</g>
</g>
<!-- Node24&#45;&gt;Node25 -->
<g id="edge34" class="edge">
<title>Node24&#45;&gt;Node25</title>
<path fill="none" stroke="midnightblue" d="M125.03,-224.44C159.09,-215.2 213.5,-200.44 251.01,-190.26"/>
<polygon fill="midnightblue" stroke="midnightblue" points="252.38,-193.51 261.11,-187.52 250.55,-186.76 252.38,-193.51"/>
</g>
<!-- Node28 -->
<g id="node28" class="node">
<title>Node28</title>
<g id="a_node28"><a xlink:href="../../d6/da4/videotypes_8h.html" target="_top" xlink:title="Declares the enumeration constants used in the ajabase library.">
<polygon fill="white" stroke="black" points="10,-168.5 10,-187.5 177,-187.5 177,-168.5 10,-168.5"/>
<text text-anchor="middle" x="93.5" y="-175.5" font-family="Helvetica,sans-Serif" font-size="10.00">ajabase/common/videotypes.h</text>
</a>
</g>
</g>
<!-- Node24&#45;&gt;Node28 -->
<g id="edge41" class="edge">
<title>Node24&#45;&gt;Node28</title>
<path fill="none" stroke="midnightblue" d="M93.5,-224.08C93.5,-217.01 93.5,-206.86 93.5,-197.99"/>
<polygon fill="midnightblue" stroke="midnightblue" points="97,-197.75 93.5,-187.75 90,-197.75 97,-197.75"/>
</g>
<!-- Node25&#45;&gt;Node8 -->
<g id="edge36" class="edge">
<title>Node25&#45;&gt;Node8</title>
<path fill="none" stroke="midnightblue" d="M292.54,-168.11C293.11,-154.21 296.25,-127.35 311.5,-112 396.1,-26.82 549.46,-12.9 616.11,-11.03"/>
<polygon fill="midnightblue" stroke="midnightblue" points="616.48,-14.52 626.41,-10.82 616.34,-7.52 616.48,-14.52"/>
</g>
<!-- Node25&#45;&gt;Node9 -->
<g id="edge40" class="edge">
<title>Node25&#45;&gt;Node9</title>
<path fill="none" stroke="midnightblue" d="M308.24,-168.32C323.82,-159.74 347.88,-146.49 365.96,-136.52"/>
<polygon fill="midnightblue" stroke="midnightblue" points="367.72,-139.55 374.79,-131.65 364.34,-133.42 367.72,-139.55"/>
</g>
<!-- Node25&#45;&gt;Node14 -->
<g id="edge39" class="edge">
<title>Node25&#45;&gt;Node14</title>
<path fill="none" stroke="midnightblue" d="M328.95,-168.43C362.82,-160.32 414.88,-147.45 468.58,-132.14"/>
<polygon fill="midnightblue" stroke="midnightblue" points="469.62,-135.48 478.27,-129.35 467.69,-128.75 469.62,-135.48"/>
</g>
<!-- Node25&#45;&gt;Node15 -->
<g id="edge38" class="edge">
<title>Node25&#45;&gt;Node15</title>
<path fill="none" stroke="midnightblue" d="M340.67,-168.44C402.67,-157.43 508.81,-138.58 562.81,-128.98"/>
<polygon fill="midnightblue" stroke="midnightblue" points="563.65,-132.39 572.89,-127.19 562.43,-125.5 563.65,-132.39"/>
</g>
<!-- Node26 -->
<g id="node26" class="node">
<title>Node26</title>
<g id="a_node26"><a xlink:href="../../db/db5/export_8h.html" target="_top" xlink:title="Declares system&#45;dependent import/export macros and libraries.">
<polygon fill="white" stroke="black" points="120.5,-112.5 120.5,-131.5 264.5,-131.5 264.5,-112.5 120.5,-112.5"/>
<text text-anchor="middle" x="192.5" y="-119.5" font-family="Helvetica,sans-Serif" font-size="10.00">ajabase/common/export.h</text>
</a>
</g>
</g>
<!-- Node25&#45;&gt;Node26 -->
<g id="edge35" class="edge">
<title>Node25&#45;&gt;Node26</title>
<path fill="none" stroke="midnightblue" d="M276.43,-168.32C260.54,-159.74 235.99,-146.49 217.54,-136.52"/>
<polygon fill="midnightblue" stroke="midnightblue" points="218.99,-133.33 208.53,-131.65 215.66,-139.49 218.99,-133.33"/>
</g>
<!-- Node27 -->
<g id="node27" class="node">
<title>Node27</title>
<g id="a_node27"><a xlink:title=" ">
<polygon fill="white" stroke="#bfbfbf" points="70.5,-112.5 70.5,-131.5 102.5,-131.5 102.5,-112.5 70.5,-112.5"/>
<text text-anchor="middle" x="86.5" y="-119.5" font-family="Helvetica,sans-Serif" font-size="10.00">list</text>
</a>
</g>
</g>
<!-- Node25&#45;&gt;Node27 -->
<g id="edge37" class="edge">
<title>Node25&#45;&gt;Node27</title>
<path fill="none" stroke="midnightblue" d="M253.35,-168.48C218.56,-160.64 166.19,-148.18 112.28,-132.01"/>
<polygon fill="midnightblue" stroke="midnightblue" points="113.14,-128.61 102.56,-129.05 111.11,-135.31 113.14,-128.61"/>
</g>
<!-- Node29&#45;&gt;Node2 -->
<g id="edge46" class="edge">
<title>Node29&#45;&gt;Node2</title>
<path fill="none" stroke="midnightblue" d="M420.5,-392.39C436.95,-382.29 459.61,-368.34 479.5,-356 507.71,-338.5 540.14,-318.2 561.18,-305.01"/>
<polygon fill="midnightblue" stroke="midnightblue" points="563.11,-307.93 569.72,-299.65 559.39,-302 563.11,-307.93"/>
</g>
<!-- Node29&#45;&gt;Node3 -->
<g id="edge47" class="edge">
<title>Node29&#45;&gt;Node3</title>
<path fill="none" stroke="midnightblue" d="M405.15,-392.28C420.06,-365.95 455.63,-309.59 501.5,-280 535.37,-258.15 579.64,-246.84 614.09,-241.02"/>
<polygon fill="midnightblue" stroke="midnightblue" points="614.66,-244.48 623.99,-239.46 613.56,-237.57 614.66,-244.48"/>
</g>
<!-- Node29&#45;&gt;Node22 -->
<g id="edge48" class="edge">
<title>Node29&#45;&gt;Node22</title>
<path fill="none" stroke="midnightblue" d="M372.38,-392.4C355.23,-382.77 332.63,-370.09 315.69,-360.58"/>
<polygon fill="midnightblue" stroke="midnightblue" points="317.36,-357.5 306.92,-355.66 313.93,-363.6 317.36,-357.5"/>
</g>
<!-- Node30&#45;&gt;Node2 -->
<g id="edge50" class="edge">
<title>Node30&#45;&gt;Node2</title>
<path fill="none" stroke="midnightblue" d="M1263.15,-336.86C1260.23,-336.56 1257.33,-336.27 1254.5,-336 1036.29,-315.43 777.29,-300.83 654.66,-294.51"/>
<polygon fill="midnightblue" stroke="midnightblue" points="654.82,-291.01 644.65,-293.99 654.46,-298 654.82,-291.01"/>
</g>
<!-- Node30&#45;&gt;Node3 -->
<g id="edge51" class="edge">
<title>Node30&#45;&gt;Node3</title>
<path fill="none" stroke="midnightblue" d="M1277.26,-336.46C1155.3,-316.13 848.62,-265.02 723.23,-244.12"/>
<polygon fill="midnightblue" stroke="midnightblue" points="723.53,-240.62 713.09,-242.43 722.38,-247.53 723.53,-240.62"/>
</g>
<!-- Node31&#45;&gt;Node2 -->
<g id="edge53" class="edge">
<title>Node31&#45;&gt;Node2</title>
<path fill="none" stroke="midnightblue" d="M546.06,-392.38C550.74,-378.09 558.32,-355.4 565.5,-336 568.82,-327.01 572.75,-317.11 576.09,-308.89"/>
<polygon fill="midnightblue" stroke="midnightblue" points="579.36,-310.16 579.91,-299.57 572.88,-307.5 579.36,-310.16"/>
</g>
<!-- Node31&#45;&gt;Node3 -->
<g id="edge54" class="edge">
<title>Node31&#45;&gt;Node3</title>
<path fill="none" stroke="midnightblue" d="M531.76,-392.43C515.69,-367.3 487.83,-314.17 513.5,-280 525.79,-263.63 574.55,-251.29 614.14,-243.71"/>
<polygon fill="midnightblue" stroke="midnightblue" points="614.78,-247.15 623.98,-241.88 613.51,-240.26 614.78,-247.15"/>
</g>
<!-- Node32 -->
<g id="node32" class="node">
<title>Node32</title>
<g id="a_node32"><a xlink:href="../../db/d74/ancillarydata__cea608_8h.html" target="_top" xlink:title="Declares the AJAAncillaryData_Cea608 class.">
<polygon fill="white" stroke="black" points="607.5,-336.5 607.5,-355.5 737.5,-355.5 737.5,-336.5 607.5,-336.5"/>
<text text-anchor="middle" x="672.5" y="-343.5" font-family="Helvetica,sans-Serif" font-size="10.00">ancillarydata_cea608.h</text>
</a>
</g>
</g>
<!-- Node31&#45;&gt;Node32 -->
<g id="edge55" class="edge">
<title>Node31&#45;&gt;Node32</title>
<path fill="none" stroke="midnightblue" d="M572.54,-392.4C594.23,-382.55 622.96,-369.5 644.05,-359.92"/>
<polygon fill="midnightblue" stroke="midnightblue" points="645.78,-362.98 653.44,-355.66 642.88,-356.61 645.78,-362.98"/>
</g>
<!-- Node32&#45;&gt;Node2 -->
<g id="edge56" class="edge">
<title>Node32&#45;&gt;Node2</title>
<path fill="none" stroke="midnightblue" d="M658.2,-336.32C644.32,-327.9 623.01,-314.97 606.69,-305.07"/>
<polygon fill="midnightblue" stroke="midnightblue" points="608.13,-301.85 597.76,-299.65 604.5,-307.83 608.13,-301.85"/>
</g>
<!-- Node32&#45;&gt;Node3 -->
<g id="edge57" class="edge">
<title>Node32&#45;&gt;Node3</title>
<path fill="none" stroke="midnightblue" d="M672.18,-336.37C671.54,-318.62 670.05,-277.67 669.17,-253.6"/>
<polygon fill="midnightblue" stroke="midnightblue" points="672.67,-253.46 668.81,-243.59 665.68,-253.71 672.67,-253.46"/>
</g>
<!-- Node33&#45;&gt;Node2 -->
<g id="edge59" class="edge">
<title>Node33&#45;&gt;Node2</title>
<path fill="none" stroke="midnightblue" d="M765.62,-392.31C764.96,-376.44 761.42,-351.01 746.5,-336 722.5,-311.86 686.8,-300.35 654.93,-294.99"/>
<polygon fill="midnightblue" stroke="midnightblue" points="655.14,-291.48 644.73,-293.46 654.1,-298.41 655.14,-291.48"/>
</g>
<!-- Node33&#45;&gt;Node3 -->
<g id="edge60" class="edge">
<title>Node33&#45;&gt;Node3</title>
<path fill="none" stroke="midnightblue" d="M769.14,-392.39C772.2,-377.72 775,-354.36 767.5,-336 752.02,-298.11 714.72,-266.74 690.58,-249.46"/>
<polygon fill="midnightblue" stroke="midnightblue" points="692.26,-246.37 682.05,-243.55 688.27,-252.12 692.26,-246.37"/>
</g>
<!-- Node33&#45;&gt;Node32 -->
<g id="edge61" class="edge">
<title>Node33&#45;&gt;Node32</title>
<path fill="none" stroke="midnightblue" d="M743.46,-392.4C728.69,-382.95 709.32,-370.56 694.55,-361.11"/>
<polygon fill="midnightblue" stroke="midnightblue" points="696.34,-358.1 686.03,-355.66 692.57,-364 696.34,-358.1"/>
</g>
<!-- Node34&#45;&gt;Node2 -->
<g id="edge63" class="edge">
<title>Node34&#45;&gt;Node2</title>
<path fill="none" stroke="midnightblue" d="M875.52,-336.44C813.84,-326.85 713.89,-311.29 648.42,-301.1"/>
<polygon fill="midnightblue" stroke="midnightblue" points="648.64,-297.6 638.22,-299.52 647.57,-304.51 648.64,-297.6"/>
</g>
<!-- Node34&#45;&gt;Node3 -->
<g id="edge64" class="edge">
<title>Node34&#45;&gt;Node3</title>
<path fill="none" stroke="midnightblue" d="M917.78,-336.39C897.38,-322.87 855.73,-296.51 817.5,-280 784.18,-265.61 744.8,-253.93 714.9,-246.08"/>
<polygon fill="midnightblue" stroke="midnightblue" points="715.71,-242.68 705.15,-243.57 713.96,-249.45 715.71,-242.68"/>
</g>
<!-- Node35&#45;&gt;Node2 -->
<g id="edge66" class="edge">
<title>Node35&#45;&gt;Node2</title>
<path fill="none" stroke="midnightblue" d="M1057.6,-336.47C946.16,-325.78 757.35,-307.67 654.85,-297.84"/>
<polygon fill="midnightblue" stroke="midnightblue" points="654.89,-294.33 644.6,-296.86 654.22,-301.3 654.89,-294.33"/>
</g>
<!-- Node35&#45;&gt;Node3 -->
<g id="edge67" class="edge">
<title>Node35&#45;&gt;Node3</title>
<path fill="none" stroke="midnightblue" d="M1109.39,-336.46C1023.36,-316.66 810.41,-267.66 715.48,-245.81"/>
<polygon fill="midnightblue" stroke="midnightblue" points="716.11,-242.37 705.58,-243.53 714.55,-249.19 716.11,-242.37"/>
</g>
</g>
</svg>
        <g id="navigator" transform="translate(0 0)" fill="#404254">
                <rect fill="#f2f5e9" fill-opacity="0.5" stroke="#606060" stroke-width=".5" x="0" y="0" width="60" height="60"/>
                <use id="zoomplus" xlink:href="#zoomPlus" x="17" y="9" onmousedown="handleZoom(evt,'in')"/>
                <use id="zoomminus" xlink:href="#zoomMin" x="42" y="9" onmousedown="handleZoom(evt,'out')"/>
                <use id="reset" xlink:href="#resetDef" x="30" y="36" onmousedown="handleReset()"/>
                <g id="arrowUp" xlink:href="#dirArrow" transform="translate(30 24)" onmousedown="handlePan(0,-1)">
                  <use xlink:href="#rim" fill="#404040">
                        <set attributeName="fill" to="#808080" begin="arrowUp.mouseover" end="arrowUp.mouseout"/>
                  </use>
                  <path fill="none" stroke="white" stroke-width="1.5" d="M0,-3.0v7 M-2.5,-0.5L0,-3.0L2.5,-0.5"/>
                </g>
                <g id="arrowRight" xlink:href="#dirArrow" transform="rotate(90) translate(36 -43)" onmousedown="handlePan(1,0)">
                  <use xlink:href="#rim" fill="#404040">
                        <set attributeName="fill" to="#808080" begin="arrowRight.mouseover" end="arrowRight.mouseout"/>
                  </use>
                  <path fill="none" stroke="white" stroke-width="1.5" d="M0,-3.0v7 M-2.5,-0.5L0,-3.0L2.5,-0.5"/>
                </g>
                <g id="arrowDown" xlink:href="#dirArrow" transform="rotate(180) translate(-30 -48)" onmousedown="handlePan(0,1)">
                  <use xlink:href="#rim" fill="#404040">
                        <set attributeName="fill" to="#808080" begin="arrowDown.mouseover" end="arrowDown.mouseout"/>
                  </use>
                  <path fill="none" stroke="white" stroke-width="1.5" d="M0,-3.0v7 M-2.5,-0.5L0,-3.0L2.5,-0.5"/>
                </g>
                <g id="arrowLeft" xlink:href="#dirArrow" transform="rotate(270) translate(-36 17)" onmousedown="handlePan(-1,0)">
                  <use xlink:href="#rim" fill="#404040">
                        <set attributeName="fill" to="#808080" begin="arrowLeft.mouseover" end="arrowLeft.mouseout"/>
                  </use>
                  <path fill="none" stroke="white" stroke-width="1.5" d="M0,-3.0v7 M-2.5,-0.5L0,-3.0L2.5,-0.5"/>
                </g>
        </g>
        <svg viewBox="0 0 15 15" width="100%" height="30px" preserveAspectRatio="xMaxYMin meet">
         <g id="arrow_out" transform="scale(0.3 0.3)">
          <a xlink:href="ancillarydatafactory_8cpp__incl_org.svg" target="_base">
           <rect id="button" ry="5" rx="5" y="6" x="6" height="38" width="38"
                fill="#f2f5e9" fill-opacity="0.5" stroke="#606060" stroke-width="1.0"/>
           <path id="arrow"
             d="M 11.500037,31.436501 C 11.940474,20.09759 22.043105,11.32322 32.158766,21.979434 L 37.068811,17.246167 C 37.068811,17.246167 37.088388,32 37.088388,32 L 22.160133,31.978069 C 22.160133,31.978069 26.997745,27.140456 26.997745,27.140456 C 18.528582,18.264221 13.291696,25.230495 11.500037,31.436501 z"
             style="fill:#404040;"/>
          </a>
         </g>
        </svg>
</svg>
