<?xml version="1.0" encoding="UTF-8" standalone="no"?>
<!DOCTYPE svg PUBLIC "-//W3C//DTD SVG 1.1//EN"
 "http://www.w3.org/Graphics/SVG/1.1/DTD/svg11.dtd">
<!-- Generated by graphviz version 2.43.0 (0)
 -->
<!-- Title: /home/tcbuilder/buildAgent/work/df8e8cce5bebfd58/libajantv2/ajantv2/src/ntv2transcode.cpp Pages: 1 -->
<svg width="484pt" height="274pt"
 viewBox="0.00 0.00 483.84 274.00" xmlns="http://www.w3.org/2000/svg" xmlns:xlink="http://www.w3.org/1999/xlink">
<g id="graph0" class="graph" transform="scale(1 1) rotate(0) translate(4 270)">
<title>/home/tcbuilder/buildAgent/work/df8e8cce5bebfd58/libajantv2/ajantv2/src/ntv2transcode.cpp</title>
<polygon fill="white" stroke="transparent" points="-4,4 -4,-270 479.84,-270 479.84,4 -4,4"/>
<!-- Node1 -->
<g id="node1" class="node">
<title>Node1</title>
<g id="a_node1"><a xlink:title="Implements a number of pixel format transcoder functions.">
<polygon fill="#bfbfbf" stroke="black" points="232,-224.5 232,-265.5 420,-265.5 420,-224.5 232,-224.5"/>
<text text-anchor="start" x="240" y="-253.5" font-family="Helvetica,sans-Serif" font-size="10.00">/home/tcbuilder/buildAgent</text>
<text text-anchor="start" x="240" y="-242.5" font-family="Helvetica,sans-Serif" font-size="10.00">/work/df8e8cce5bebfd58/libajantv2</text>
<text text-anchor="middle" x="326" y="-231.5" font-family="Helvetica,sans-Serif" font-size="10.00">/ajantv2/src/ntv2transcode.cpp</text>
</a>
</g>
</g>
<!-- Node2 -->
<g id="node2" class="node">
<title>Node2</title>
<g id="a_node2"><a xlink:href="../../d2/d22/ntv2transcode_8h.html" target="_top" xlink:title="Declares a number of pixel format transcoder functions.">
<polygon fill="white" stroke="black" points="225.5,-168.5 225.5,-187.5 320.5,-187.5 320.5,-168.5 225.5,-168.5"/>
<text text-anchor="middle" x="273" y="-175.5" font-family="Helvetica,sans-Serif" font-size="10.00">ntv2transcode.h</text>
</a>
</g>
</g>
<!-- Node1&#45;&gt;Node2 -->
<g id="edge1" class="edge">
<title>Node1&#45;&gt;Node2</title>
<path fill="none" stroke="midnightblue" d="M310.1,-224.5C302.6,-215.3 293.74,-204.44 286.56,-195.63"/>
<polygon fill="midnightblue" stroke="midnightblue" points="289.09,-193.19 280.06,-187.65 283.66,-197.61 289.09,-193.19"/>
</g>
<!-- Node10 -->
<g id="node10" class="node">
<title>Node10</title>
<g id="a_node10"><a xlink:href="../../d4/d18/ntv2endian_8h.html" target="_top" xlink:title="Defines a number of handy byte&#45;swapping macros.">
<polygon fill="white" stroke="black" points="394,-168.5 394,-187.5 474,-187.5 474,-168.5 394,-168.5"/>
<text text-anchor="middle" x="434" y="-175.5" font-family="Helvetica,sans-Serif" font-size="10.00">ntv2endian.h</text>
</a>
</g>
</g>
<!-- Node1&#45;&gt;Node10 -->
<g id="edge11" class="edge">
<title>Node1&#45;&gt;Node10</title>
<path fill="none" stroke="midnightblue" d="M358.4,-224.5C375.28,-214.34 395.53,-202.16 410.82,-192.95"/>
<polygon fill="midnightblue" stroke="midnightblue" points="412.86,-195.81 419.62,-187.65 409.25,-189.81 412.86,-195.81"/>
</g>
<!-- Node3 -->
<g id="node3" class="node">
<title>Node3</title>
<g id="a_node3"><a xlink:href="../../d6/dd9/ajaexport_8h.html" target="_top" xlink:title="Defines the import/export macros for producing DLLs or LIBs.">
<polygon fill="white" stroke="black" points="0,-112.5 0,-131.5 72,-131.5 72,-112.5 0,-112.5"/>
<text text-anchor="middle" x="36" y="-119.5" font-family="Helvetica,sans-Serif" font-size="10.00">ajaexport.h</text>
</a>
</g>
</g>
<!-- Node2&#45;&gt;Node3 -->
<g id="edge2" class="edge">
<title>Node2&#45;&gt;Node3</title>
<path fill="none" stroke="midnightblue" d="M235.45,-168.44C193.91,-158.98 126.97,-143.73 82.24,-133.54"/>
<polygon fill="midnightblue" stroke="midnightblue" points="82.74,-130.06 72.21,-131.25 81.18,-136.88 82.74,-130.06"/>
</g>
<!-- Node4 -->
<g id="node4" class="node">
<title>Node4</title>
<g id="a_node4"><a xlink:href="../../db/de2/ajatypes_8h.html" target="_top" xlink:title="Declares the most fundamental data types used by NTV2. Since Windows NT was the first principal devel...">
<polygon fill="white" stroke="black" points="184,-56.5 184,-75.5 252,-75.5 252,-56.5 184,-56.5"/>
<text text-anchor="middle" x="218" y="-63.5" font-family="Helvetica,sans-Serif" font-size="10.00">ajatypes.h</text>
</a>
</g>
</g>
<!-- Node2&#45;&gt;Node4 -->
<g id="edge3" class="edge">
<title>Node2&#45;&gt;Node4</title>
<path fill="none" stroke="midnightblue" d="M225.27,-169.43C184.98,-161.96 131.86,-149.16 119,-132 100.09,-106.77 139.36,-88.44 173.9,-77.8"/>
<polygon fill="midnightblue" stroke="midnightblue" points="175.31,-81.04 183.93,-74.87 173.35,-74.32 175.31,-81.04"/>
</g>
<!-- Node6 -->
<g id="node6" class="node">
<title>Node6</title>
<g id="a_node6"><a xlink:href="../../d6/dcc/ntv2fixed_8h.html" target="_top" xlink:title="Declares several fixed&#45;point math routines. Assumes 16&#45;bit fraction.">
<polygon fill="white" stroke="black" points="128.5,-112.5 128.5,-131.5 199.5,-131.5 199.5,-112.5 128.5,-112.5"/>
<text text-anchor="middle" x="164" y="-119.5" font-family="Helvetica,sans-Serif" font-size="10.00">ntv2fixed.h</text>
</a>
</g>
</g>
<!-- Node2&#45;&gt;Node6 -->
<g id="edge5" class="edge">
<title>Node2&#45;&gt;Node6</title>
<path fill="none" stroke="midnightblue" d="M255.49,-168.32C237.93,-159.62 210.67,-146.12 190.47,-136.11"/>
<polygon fill="midnightblue" stroke="midnightblue" points="191.98,-132.96 181.47,-131.65 188.88,-139.23 191.98,-132.96"/>
</g>
<!-- Node7 -->
<g id="node7" class="node">
<title>Node7</title>
<g id="a_node7"><a xlink:href="../../d9/d61/ntv2videodefines_8h.html" target="_top" xlink:title="Declares common video macros and structs used in the SDK.">
<polygon fill="white" stroke="black" points="218,-112.5 218,-131.5 328,-131.5 328,-112.5 218,-112.5"/>
<text text-anchor="middle" x="273" y="-119.5" font-family="Helvetica,sans-Serif" font-size="10.00">ntv2videodefines.h</text>
</a>
</g>
</g>
<!-- Node2&#45;&gt;Node7 -->
<g id="edge7" class="edge">
<title>Node2&#45;&gt;Node7</title>
<path fill="none" stroke="midnightblue" d="M273,-168.08C273,-161.01 273,-150.86 273,-141.99"/>
<polygon fill="midnightblue" stroke="midnightblue" points="276.5,-141.75 273,-131.75 269.5,-141.75 276.5,-141.75"/>
</g>
<!-- Node8 -->
<g id="node8" class="node">
<title>Node8</title>
<g id="a_node8"><a xlink:title=" ">
<polygon fill="white" stroke="#bfbfbf" points="346.5,-112.5 346.5,-131.5 393.5,-131.5 393.5,-112.5 346.5,-112.5"/>
<text text-anchor="middle" x="370" y="-119.5" font-family="Helvetica,sans-Serif" font-size="10.00">vector</text>
</a>
</g>
</g>
<!-- Node2&#45;&gt;Node8 -->
<g id="edge9" class="edge">
<title>Node2&#45;&gt;Node8</title>
<path fill="none" stroke="midnightblue" d="M288.58,-168.32C304,-159.74 327.81,-146.49 345.71,-136.52"/>
<polygon fill="midnightblue" stroke="midnightblue" points="347.42,-139.58 354.45,-131.65 344.01,-133.46 347.42,-139.58"/>
</g>
<!-- Node9 -->
<g id="node9" class="node">
<title>Node9</title>
<g id="a_node9"><a xlink:title=" ">
<polygon fill="white" stroke="#bfbfbf" points="412,-112.5 412,-131.5 462,-131.5 462,-112.5 412,-112.5"/>
<text text-anchor="middle" x="437" y="-119.5" font-family="Helvetica,sans-Serif" font-size="10.00">stdio.h</text>
</a>
</g>
</g>
<!-- Node2&#45;&gt;Node9 -->
<g id="edge10" class="edge">
<title>Node2&#45;&gt;Node9</title>
<path fill="none" stroke="midnightblue" d="M298.99,-168.44C326.94,-159.24 371.53,-144.56 402.43,-134.38"/>
<polygon fill="midnightblue" stroke="midnightblue" points="403.54,-137.7 411.94,-131.25 401.35,-131.05 403.54,-137.7"/>
</g>
<!-- Node5 -->
<g id="node5" class="node">
<title>Node5</title>
<g id="a_node5"><a xlink:title=" ">
<polygon fill="white" stroke="#bfbfbf" points="191.5,-0.5 191.5,-19.5 244.5,-19.5 244.5,-0.5 191.5,-0.5"/>
<text text-anchor="middle" x="218" y="-7.5" font-family="Helvetica,sans-Serif" font-size="10.00">stdint.h</text>
</a>
</g>
</g>
<!-- Node4&#45;&gt;Node5 -->
<g id="edge4" class="edge">
<title>Node4&#45;&gt;Node5</title>
<path fill="none" stroke="midnightblue" d="M218,-56.08C218,-49.01 218,-38.86 218,-29.99"/>
<polygon fill="midnightblue" stroke="midnightblue" points="221.5,-29.75 218,-19.75 214.5,-29.75 221.5,-29.75"/>
</g>
<!-- Node6&#45;&gt;Node4 -->
<g id="edge6" class="edge">
<title>Node6&#45;&gt;Node4</title>
<path fill="none" stroke="midnightblue" d="M172.92,-112.08C180.78,-104.22 192.43,-92.57 201.92,-83.08"/>
<polygon fill="midnightblue" stroke="midnightblue" points="204.65,-85.3 209.25,-75.75 199.7,-80.35 204.65,-85.3"/>
</g>
<!-- Node7&#45;&gt;Node4 -->
<g id="edge8" class="edge">
<title>Node7&#45;&gt;Node4</title>
<path fill="none" stroke="midnightblue" d="M263.92,-112.08C255.83,-104.14 243.8,-92.34 234.09,-82.8"/>
<polygon fill="midnightblue" stroke="midnightblue" points="236.5,-80.26 226.91,-75.75 231.6,-85.25 236.5,-80.26"/>
</g>
<!-- Node10&#45;&gt;Node4 -->
<g id="edge12" class="edge">
<title>Node10&#45;&gt;Node4</title>
<path fill="none" stroke="midnightblue" d="M445.29,-168.39C461.07,-155.33 486.18,-130.11 471,-112 444.89,-80.84 327.73,-71.24 262.39,-68.29"/>
<polygon fill="midnightblue" stroke="midnightblue" points="262.51,-64.8 252.37,-67.88 262.22,-71.79 262.51,-64.8"/>
</g>
</g>
</svg>
