<?xml version="1.0" encoding="UTF-8" standalone="no"?>
<!DOCTYPE svg PUBLIC "-//W3C//DTD SVG 1.1//EN"
 "http://www.w3.org/Graphics/SVG/1.1/DTD/svg11.dtd">
<!-- Generated by graphviz version 2.43.0 (0)
 -->
<!-- Title: CaptureConfig Pages: 1 -->
<svg width="196pt" height="106pt"
 viewBox="0.00 0.00 196.00 106.00" xmlns="http://www.w3.org/2000/svg" xmlns:xlink="http://www.w3.org/1999/xlink">
<g id="graph0" class="graph" transform="scale(1 1) rotate(0) translate(4 102)">
<title>CaptureConfig</title>
<polygon fill="white" stroke="transparent" points="-4,4 -4,-102 192,-102 192,4 -4,4"/>
<!-- Node1 -->
<g id="node1" class="node">
<title>Node1</title>
<g id="a_node1"><a xlink:title="This class is used to configure an NTV2Capture instance.">
<polygon fill="#bfbfbf" stroke="black" points="32,-0.5 32,-19.5 118,-19.5 118,-0.5 32,-0.5"/>
<text text-anchor="middle" x="75" y="-7.5" font-family="Helvetica,sans-Serif" font-size="10.00">CaptureConfig</text>
</a>
</g>
</g>
<!-- Node2 -->
<g id="node2" class="node">
<title>Node2</title>
<g id="a_node2"><a xlink:title=" ">
<polygon fill="white" stroke="#bfbfbf" points="0,-78.5 0,-97.5 44,-97.5 44,-78.5 0,-78.5"/>
<text text-anchor="middle" x="22" y="-85.5" font-family="Helvetica,sans-Serif" font-size="10.00">string</text>
</a>
</g>
</g>
<!-- Node2&#45;&gt;Node1 -->
<g id="edge1" class="edge">
<title>Node2&#45;&gt;Node1</title>
<path fill="none" stroke="#9a32cd" stroke-dasharray="5,2" d="M18.07,-68.38C17.02,-58.65 17.45,-46.93 23,-38 28.21,-29.62 36.94,-23.71 45.77,-19.61"/>
<polygon fill="#9a32cd" stroke="#9a32cd" points="14.62,-68.98 19.68,-78.29 21.53,-67.85 14.62,-68.98"/>
<text text-anchor="middle" x="65" y="-52" font-family="Helvetica,sans-Serif" font-size="10.00"> fDeviceSpec</text>
<text text-anchor="middle" x="65" y="-41" font-family="Helvetica,sans-Serif" font-size="10.00">fAncDataFilePath</text>
</g>
<!-- Node3 -->
<g id="node3" class="node">
<title>Node3</title>
<g id="a_node3"><a xlink:href="../../dd/de5/class_n_t_v2_a_c_frame_range.html" target="_top" xlink:title="AutoCirculate Frame Range.">
<polygon fill="white" stroke="black" points="70,-78.5 70,-97.5 188,-97.5 188,-78.5 70,-78.5"/>
<text text-anchor="middle" x="129" y="-85.5" font-family="Helvetica,sans-Serif" font-size="10.00">NTV2ACFrameRange</text>
</a>
</g>
</g>
<!-- Node3&#45;&gt;Node1 -->
<g id="edge2" class="edge">
<title>Node3&#45;&gt;Node1</title>
<path fill="none" stroke="#9a32cd" stroke-dasharray="5,2" d="M123.11,-68.91C119.41,-59.18 114.01,-47.3 107,-38 101.66,-30.92 94.14,-24.45 87.74,-19.63"/>
<polygon fill="#9a32cd" stroke="#9a32cd" points="119.83,-70.14 126.45,-78.41 126.44,-67.82 119.83,-70.14"/>
<text text-anchor="middle" x="140.5" y="-46.5" font-family="Helvetica,sans-Serif" font-size="10.00"> fFrames</text>
</g>
</g>
</svg>
