<?xml version="1.0" encoding="UTF-8" standalone="no"?>
<!DOCTYPE svg PUBLIC "-//W3C//DTD SVG 1.1//EN"
 "http://www.w3.org/Graphics/SVG/1.1/DTD/svg11.dtd">
<!-- Generated by graphviz version 2.43.0 (0)
 -->
<!-- Title: /home/tcbuilder/buildAgent/work/df8e8cce5bebfd58/libajantv2/ajabase/common/performance.h Pages: 1 -->
<svg width="565pt" height="218pt"
 viewBox="0.00 0.00 565.00 218.00" xmlns="http://www.w3.org/2000/svg" xmlns:xlink="http://www.w3.org/1999/xlink">
<g id="graph0" class="graph" transform="scale(1 1) rotate(0) translate(4 214)">
<title>/home/tcbuilder/buildAgent/work/df8e8cce5bebfd58/libajantv2/ajabase/common/performance.h</title>
<polygon fill="white" stroke="transparent" points="-4,4 -4,-214 561,-214 561,4 -4,4"/>
<!-- Node1 -->
<g id="node1" class="node">
<title>Node1</title>
<g id="a_node1"><a xlink:title="Declaration of the AJAPerformance class.">
<polygon fill="#bfbfbf" stroke="black" points="369,-168.5 369,-209.5 557,-209.5 557,-168.5 369,-168.5"/>
<text text-anchor="start" x="377" y="-197.5" font-family="Helvetica,sans-Serif" font-size="10.00">/home/tcbuilder/buildAgent</text>
<text text-anchor="start" x="377" y="-186.5" font-family="Helvetica,sans-Serif" font-size="10.00">/work/df8e8cce5bebfd58/libajantv2</text>
<text text-anchor="middle" x="463" y="-175.5" font-family="Helvetica,sans-Serif" font-size="10.00">/ajabase/common/performance.h</text>
</a>
</g>
</g>
<!-- Node2 -->
<g id="node2" class="node">
<title>Node2</title>
<g id="a_node2"><a xlink:href="../../d5/dd0/timer_8h.html" target="_top" xlink:title="Declares the AJATimer class.">
<polygon fill="white" stroke="black" points="297,-112.5 297,-131.5 435,-131.5 435,-112.5 297,-112.5"/>
<text text-anchor="middle" x="366" y="-119.5" font-family="Helvetica,sans-Serif" font-size="10.00">ajabase/common/timer.h</text>
</a>
</g>
</g>
<!-- Node1&#45;&gt;Node2 -->
<g id="edge1" class="edge">
<title>Node1&#45;&gt;Node2</title>
<path fill="none" stroke="midnightblue" d="M433.9,-168.5C419.02,-158.53 401.24,-146.61 387.6,-137.48"/>
<polygon fill="midnightblue" stroke="midnightblue" points="389.17,-134.31 378.91,-131.65 385.27,-140.13 389.17,-134.31"/>
</g>
<!-- Node6 -->
<g id="node6" class="node">
<title>Node6</title>
<g id="a_node6"><a xlink:title=" ">
<polygon fill="white" stroke="#bfbfbf" points="436,-0.5 436,-19.5 480,-19.5 480,-0.5 436,-0.5"/>
<text text-anchor="middle" x="458" y="-7.5" font-family="Helvetica,sans-Serif" font-size="10.00">string</text>
</a>
</g>
</g>
<!-- Node1&#45;&gt;Node6 -->
<g id="edge10" class="edge">
<title>Node1&#45;&gt;Node6</title>
<path fill="none" stroke="midnightblue" d="M462.45,-168.38C461.48,-134.08 459.49,-63.66 458.53,-29.88"/>
<polygon fill="midnightblue" stroke="midnightblue" points="462.02,-29.48 458.24,-19.58 455.03,-29.68 462.02,-29.48"/>
</g>
<!-- Node9 -->
<g id="node9" class="node">
<title>Node9</title>
<g id="a_node9"><a xlink:title=" ">
<polygon fill="white" stroke="#bfbfbf" points="498,-0.5 498,-19.5 536,-19.5 536,-0.5 498,-0.5"/>
<text text-anchor="middle" x="517" y="-7.5" font-family="Helvetica,sans-Serif" font-size="10.00">map</text>
</a>
</g>
</g>
<!-- Node1&#45;&gt;Node9 -->
<g id="edge11" class="edge">
<title>Node1&#45;&gt;Node9</title>
<path fill="none" stroke="midnightblue" d="M468.99,-168.38C479.5,-133.93 501.12,-63.04 511.37,-29.44"/>
<polygon fill="midnightblue" stroke="midnightblue" points="514.81,-30.17 514.38,-19.58 508.12,-28.13 514.81,-30.17"/>
</g>
<!-- Node3 -->
<g id="node3" class="node">
<title>Node3</title>
<g id="a_node3"><a xlink:title=" ">
<polygon fill="white" stroke="#bfbfbf" points="357.5,-56.5 357.5,-75.5 414.5,-75.5 414.5,-56.5 357.5,-56.5"/>
<text text-anchor="middle" x="386" y="-63.5" font-family="Helvetica,sans-Serif" font-size="10.00">ostream</text>
</a>
</g>
</g>
<!-- Node2&#45;&gt;Node3 -->
<g id="edge2" class="edge">
<title>Node2&#45;&gt;Node3</title>
<path fill="none" stroke="midnightblue" d="M369.3,-112.08C371.98,-104.85 375.85,-94.41 379.19,-85.4"/>
<polygon fill="midnightblue" stroke="midnightblue" points="382.57,-86.34 382.76,-75.75 376,-83.91 382.57,-86.34"/>
</g>
<!-- Node4 -->
<g id="node4" class="node">
<title>Node4</title>
<g id="a_node4"><a xlink:href="../../d4/d79/public_8h.html" target="_top" xlink:title="Master header for the ajabase library.">
<polygon fill="white" stroke="black" points="197,-56.5 197,-75.5 339,-75.5 339,-56.5 197,-56.5"/>
<text text-anchor="middle" x="268" y="-63.5" font-family="Helvetica,sans-Serif" font-size="10.00">ajabase/common/public.h</text>
</a>
</g>
</g>
<!-- Node2&#45;&gt;Node4 -->
<g id="edge3" class="edge">
<title>Node2&#45;&gt;Node4</title>
<path fill="none" stroke="midnightblue" d="M350.25,-112.32C334.68,-103.74 310.62,-90.49 292.54,-80.52"/>
<polygon fill="midnightblue" stroke="midnightblue" points="294.15,-77.42 283.71,-75.65 290.78,-83.55 294.15,-77.42"/>
</g>
<!-- Node5 -->
<g id="node5" class="node">
<title>Node5</title>
<g id="a_node5"><a xlink:href="../../db/db5/export_8h.html" target="_top" xlink:title="Declares system&#45;dependent import/export macros and libraries.">
<polygon fill="white" stroke="black" points="274,-0.5 274,-19.5 418,-19.5 418,-0.5 274,-0.5"/>
<text text-anchor="middle" x="346" y="-7.5" font-family="Helvetica,sans-Serif" font-size="10.00">ajabase/common/export.h</text>
</a>
</g>
</g>
<!-- Node4&#45;&gt;Node5 -->
<g id="edge4" class="edge">
<title>Node4&#45;&gt;Node5</title>
<path fill="none" stroke="midnightblue" d="M280.53,-56.32C292.59,-47.98 311.03,-35.21 325.27,-25.35"/>
<polygon fill="midnightblue" stroke="midnightblue" points="327.27,-28.22 333.5,-19.65 323.28,-22.47 327.27,-28.22"/>
</g>
<!-- Node4&#45;&gt;Node6 -->
<g id="edge5" class="edge">
<title>Node4&#45;&gt;Node6</title>
<path fill="none" stroke="midnightblue" d="M298.5,-56.43C328.58,-47.97 376.12,-34.56 426.27,-20.2"/>
<polygon fill="midnightblue" stroke="midnightblue" points="427.34,-23.53 435.99,-17.41 425.41,-16.8 427.34,-23.53"/>
</g>
<!-- Node7 -->
<g id="node7" class="node">
<title>Node7</title>
<g id="a_node7"><a xlink:title=" ">
<polygon fill="white" stroke="#bfbfbf" points="0,-0.5 0,-19.5 32,-19.5 32,-0.5 0,-0.5"/>
<text text-anchor="middle" x="16" y="-7.5" font-family="Helvetica,sans-Serif" font-size="10.00">list</text>
</a>
</g>
</g>
<!-- Node4&#45;&gt;Node7 -->
<g id="edge6" class="edge">
<title>Node4&#45;&gt;Node7</title>
<path fill="none" stroke="midnightblue" d="M212.88,-56.45C168.83,-49.09 105.44,-37.28 41.82,-19.89"/>
<polygon fill="midnightblue" stroke="midnightblue" points="42.6,-16.47 32.02,-17.17 40.72,-23.22 42.6,-16.47"/>
</g>
<!-- Node8 -->
<g id="node8" class="node">
<title>Node8</title>
<g id="a_node8"><a xlink:title=" ">
<polygon fill="white" stroke="#bfbfbf" points="50.5,-0.5 50.5,-19.5 97.5,-19.5 97.5,-0.5 50.5,-0.5"/>
<text text-anchor="middle" x="74" y="-7.5" font-family="Helvetica,sans-Serif" font-size="10.00">vector</text>
</a>
</g>
</g>
<!-- Node4&#45;&gt;Node8 -->
<g id="edge7" class="edge">
<title>Node4&#45;&gt;Node8</title>
<path fill="none" stroke="midnightblue" d="M237.26,-56.44C201.81,-46.58 143.74,-30.41 107.26,-20.26"/>
<polygon fill="midnightblue" stroke="midnightblue" points="108.15,-16.87 97.58,-17.56 106.27,-23.62 108.15,-16.87"/>
</g>
<!-- Node4&#45;&gt;Node9 -->
<g id="edge8" class="edge">
<title>Node4&#45;&gt;Node9</title>
<path fill="none" stroke="midnightblue" d="M317.95,-56.45C360.78,-48.76 424.28,-36.49 487.99,-20.04"/>
<polygon fill="midnightblue" stroke="midnightblue" points="489.01,-23.39 497.8,-17.48 487.24,-16.62 489.01,-23.39"/>
</g>
<!-- Node10 -->
<g id="node10" class="node">
<title>Node10</title>
<g id="a_node10"><a xlink:href="../../d9/d49/types_8h.html" target="_top" xlink:title="Declares common types used in the ajabase library.">
<polygon fill="white" stroke="black" points="116,-0.5 116,-19.5 256,-19.5 256,-0.5 116,-0.5"/>
<text text-anchor="middle" x="186" y="-7.5" font-family="Helvetica,sans-Serif" font-size="10.00">ajabase/common/types.h</text>
</a>
</g>
</g>
<!-- Node4&#45;&gt;Node10 -->
<g id="edge9" class="edge">
<title>Node4&#45;&gt;Node10</title>
<path fill="none" stroke="midnightblue" d="M254.83,-56.32C242.15,-47.98 222.77,-35.21 207.79,-25.35"/>
<polygon fill="midnightblue" stroke="midnightblue" points="209.42,-22.23 199.14,-19.65 205.57,-28.08 209.42,-22.23"/>
</g>
</g>
</svg>
