<?xml version="1.0" encoding="UTF-8" standalone="no"?>
<!DOCTYPE svg PUBLIC "-//W3C//DTD SVG 1.1//EN"
 "http://www.w3.org/Graphics/SVG/1.1/DTD/svg11.dtd">
<!-- Generated by graphviz version 2.40.1 (0)
 -->
<!-- Title: /home/tcbuilder/buildAgent/work/df8e8cce5bebfd58/libajantv2/ajaanc/includes/ancillarydata_hdr_hlg.h Pages: 1 -->
<svg width="593pt" height="139pt"
 viewBox="0.00 0.00 592.50 139.00" xmlns="http://www.w3.org/2000/svg" xmlns:xlink="http://www.w3.org/1999/xlink">
<g id="graph0" class="graph" transform="scale(1 1) rotate(0) translate(4 135)">
<title>/home/tcbuilder/buildAgent/work/df8e8cce5bebfd58/libajantv2/ajaanc/includes/ancillarydata_hdr_hlg.h</title>
<polygon fill="#ffffff" stroke="transparent" points="-4,4 -4,-135 588.5,-135 588.5,4 -4,4"/>
<!-- Node21 -->
<g id="node1" class="node">
<title>Node21</title>
<polygon fill="#bfbfbf" stroke="#000000" points="205.5,-78.5 205.5,-130.5 372.5,-130.5 372.5,-78.5 205.5,-78.5"/>
<text text-anchor="start" x="213.5" y="-118.5" font-family="Helvetica,sans-Serif" font-size="10.00" fill="#000000">/home/tcbuilder/buildAgent</text>
<text text-anchor="start" x="213.5" y="-107.5" font-family="Helvetica,sans-Serif" font-size="10.00" fill="#000000">/work/df8e8cce5bebfd58/libajantv2</text>
<text text-anchor="start" x="213.5" y="-96.5" font-family="Helvetica,sans-Serif" font-size="10.00" fill="#000000">/ajaanc/includes/ancillarydata</text>
<text text-anchor="middle" x="289" y="-85.5" font-family="Helvetica,sans-Serif" font-size="10.00" fill="#000000">_hdr_hlg.h</text>
</g>
<!-- Node22 -->
<g id="node2" class="node">
<title>Node22</title>
<g id="a_node2"><a xlink:href="../../df/d99/ancillarydata__hdr__hlg_8cpp.html" target="_top" xlink:title="Implements the AJAAncillaryData_HDMI_Aux class. ">
<polygon fill="#ffffff" stroke="#000000" points="0,-.5 0,-41.5 178,-41.5 178,-.5 0,-.5"/>
<text text-anchor="start" x="8" y="-29.5" font-family="Helvetica,sans-Serif" font-size="10.00" fill="#000000">/home/tcbuilder/buildAgent</text>
<text text-anchor="start" x="8" y="-18.5" font-family="Helvetica,sans-Serif" font-size="10.00" fill="#000000">/work/df8e8cce5bebfd58/libajantv2</text>
<text text-anchor="middle" x="89" y="-7.5" font-family="Helvetica,sans-Serif" font-size="10.00" fill="#000000">/ajaanc/src/ancillarydata_hdr_hlg.cpp</text>
</a>
</g>
</g>
<!-- Node21&#45;&gt;Node22 -->
<g id="edge1" class="edge">
<title>Node21&#45;&gt;Node22</title>
<path fill="none" stroke="#191970" d="M217.0596,-74.4649C190.9419,-63.5607 162.0456,-51.4966 138.3219,-41.5919"/>
<polygon fill="#191970" stroke="#191970" points="215.9649,-77.8006 226.5414,-78.4235 218.6619,-71.341 215.9649,-77.8006"/>
</g>
<!-- Node23 -->
<g id="node3" class="node">
<title>Node23</title>
<g id="a_node3"><a xlink:href="../../d2/d98/ntv2player4k_8cpp.html" target="_top" xlink:title="Implementation of ntv2player4k class. ">
<polygon fill="#ffffff" stroke="#000000" points="196.5,-.5 196.5,-41.5 381.5,-41.5 381.5,-.5 196.5,-.5"/>
<text text-anchor="start" x="204.5" y="-29.5" font-family="Helvetica,sans-Serif" font-size="10.00" fill="#000000">/home/tcbuilder/buildAgent</text>
<text text-anchor="start" x="204.5" y="-18.5" font-family="Helvetica,sans-Serif" font-size="10.00" fill="#000000">/work/df8e8cce5bebfd58/libajantv2</text>
<text text-anchor="middle" x="289" y="-7.5" font-family="Helvetica,sans-Serif" font-size="10.00" fill="#000000">/demos/ntv2player4k/ntv2player4k.cpp</text>
</a>
</g>
</g>
<!-- Node21&#45;&gt;Node23 -->
<g id="edge2" class="edge">
<title>Node21&#45;&gt;Node23</title>
<path fill="none" stroke="#191970" d="M289,-67.8168C289,-58.8649 289,-49.5976 289,-41.6941"/>
<polygon fill="#191970" stroke="#191970" points="285.5001,-68.08 289,-78.0801 292.5001,-68.0801 285.5001,-68.08"/>
</g>
<!-- Node24 -->
<g id="node4" class="node">
<title>Node24</title>
<g id="a_node4"><a xlink:href="../../db/d11/ntv2player8k_8cpp.html" target="_top" xlink:title="Implementation of ntv2player8k class. ">
<polygon fill="#ffffff" stroke="#000000" points="399.5,-.5 399.5,-41.5 584.5,-41.5 584.5,-.5 399.5,-.5"/>
<text text-anchor="start" x="407.5" y="-29.5" font-family="Helvetica,sans-Serif" font-size="10.00" fill="#000000">/home/tcbuilder/buildAgent</text>
<text text-anchor="start" x="407.5" y="-18.5" font-family="Helvetica,sans-Serif" font-size="10.00" fill="#000000">/work/df8e8cce5bebfd58/libajantv2</text>
<text text-anchor="middle" x="492" y="-7.5" font-family="Helvetica,sans-Serif" font-size="10.00" fill="#000000">/demos/ntv2player8k/ntv2player8k.cpp</text>
</a>
</g>
</g>
<!-- Node21&#45;&gt;Node24 -->
<g id="edge3" class="edge">
<title>Node21&#45;&gt;Node24</title>
<path fill="none" stroke="#191970" d="M361.6709,-74.6083C388.2716,-63.6666 417.7531,-51.54 441.9383,-41.5919"/>
<polygon fill="#191970" stroke="#191970" points="360.3122,-71.3826 352.3955,-78.4235 362.9751,-77.8563 360.3122,-71.3826"/>
</g>
</g>
</svg>
