<?xml version="1.0" encoding="UTF-8" standalone="no"?>
<!DOCTYPE svg PUBLIC "-//W3C//DTD SVG 1.1//EN"
 "http://www.w3.org/Graphics/SVG/1.1/DTD/svg11.dtd">
<!-- Generated by graphviz version 2.40.1 (0)
 -->
<!-- Title: /home/tcbuilder/buildAgent/work/df8e8cce5bebfd58/libajantv2/ajabase/system/info.cpp Pages: 1 -->
<svg width="702pt" height="274pt"
 viewBox="0.00 0.00 701.50 274.00" xmlns="http://www.w3.org/2000/svg" xmlns:xlink="http://www.w3.org/1999/xlink">
<g id="graph0" class="graph" transform="scale(1 1) rotate(0) translate(4 270)">
<title>/home/tcbuilder/buildAgent/work/df8e8cce5bebfd58/libajantv2/ajabase/system/info.cpp</title>
<polygon fill="#ffffff" stroke="transparent" points="-4,4 -4,-270 697.5,-270 697.5,4 -4,4"/>
<!-- Node0 -->
<g id="node1" class="node">
<title>Node0</title>
<polygon fill="#bfbfbf" stroke="#000000" points="443,-224.5 443,-265.5 610,-265.5 610,-224.5 443,-224.5"/>
<text text-anchor="start" x="451" y="-253.5" font-family="Helvetica,sans-Serif" font-size="10.00" fill="#000000">/home/tcbuilder/buildAgent</text>
<text text-anchor="start" x="451" y="-242.5" font-family="Helvetica,sans-Serif" font-size="10.00" fill="#000000">/work/df8e8cce5bebfd58/libajantv2</text>
<text text-anchor="middle" x="526.5" y="-231.5" font-family="Helvetica,sans-Serif" font-size="10.00" fill="#000000">/ajabase/system/info.cpp</text>
</g>
<!-- Node1 -->
<g id="node2" class="node">
<title>Node1</title>
<g id="a_node2"><a xlink:href="../../d4/d21/info_8h.html" target="_top" xlink:title="Declares the AJASystemInfo class. ">
<polygon fill="#ffffff" stroke="#000000" points="306,-168.5 306,-187.5 419,-187.5 419,-168.5 306,-168.5"/>
<text text-anchor="middle" x="362.5" y="-175.5" font-family="Helvetica,sans-Serif" font-size="10.00" fill="#000000">ajabase/system/info.h</text>
</a>
</g>
</g>
<!-- Node0&#45;&gt;Node1 -->
<g id="edge1" class="edge">
<title>Node0&#45;&gt;Node1</title>
<path fill="none" stroke="#191970" d="M475.9564,-224.3511C449.7688,-213.6525 418.536,-200.8928 395.4761,-191.472"/>
<polygon fill="#191970" stroke="#191970" points="396.7132,-188.1966 386.1322,-187.6546 394.0658,-194.6767 396.7132,-188.1966"/>
</g>
<!-- Node10 -->
<g id="node11" class="node">
<title>Node10</title>
<polygon fill="#ffffff" stroke="#bfbfbf" points="437.5,-168.5 437.5,-187.5 483.5,-187.5 483.5,-168.5 437.5,-168.5"/>
<text text-anchor="middle" x="460.5" y="-175.5" font-family="Helvetica,sans-Serif" font-size="10.00" fill="#000000">cstring</text>
</g>
<!-- Node0&#45;&gt;Node10 -->
<g id="edge13" class="edge">
<title>Node0&#45;&gt;Node10</title>
<path fill="none" stroke="#191970" d="M505.979,-224.168C496.7305,-214.7794 485.9484,-203.834 477.2043,-194.9574"/>
<polygon fill="#191970" stroke="#191970" points="479.6456,-192.4483 470.1345,-187.7805 474.6588,-197.3607 479.6456,-192.4483"/>
</g>
<!-- Node11 -->
<g id="node12" class="node">
<title>Node11</title>
<polygon fill="#ffffff" stroke="#bfbfbf" points="501.5,-168.5 501.5,-187.5 551.5,-187.5 551.5,-168.5 501.5,-168.5"/>
<text text-anchor="middle" x="526.5" y="-175.5" font-family="Helvetica,sans-Serif" font-size="10.00" fill="#000000">iomanip</text>
</g>
<!-- Node0&#45;&gt;Node11 -->
<g id="edge14" class="edge">
<title>Node0&#45;&gt;Node11</title>
<path fill="none" stroke="#191970" d="M526.5,-224.168C526.5,-215.8226 526.5,-206.2471 526.5,-197.9879"/>
<polygon fill="#191970" stroke="#191970" points="530.0001,-197.7804 526.5,-187.7805 523.0001,-197.7805 530.0001,-197.7804"/>
</g>
<!-- Node12 -->
<g id="node13" class="node">
<title>Node12</title>
<polygon fill="#ffffff" stroke="#bfbfbf" points="569.5,-168.5 569.5,-187.5 623.5,-187.5 623.5,-168.5 569.5,-168.5"/>
<text text-anchor="middle" x="596.5" y="-175.5" font-family="Helvetica,sans-Serif" font-size="10.00" fill="#000000">iostream</text>
</g>
<!-- Node0&#45;&gt;Node12 -->
<g id="edge15" class="edge">
<title>Node0&#45;&gt;Node12</title>
<path fill="none" stroke="#191970" d="M548.2647,-224.168C558.0738,-214.7794 569.5093,-203.834 578.7833,-194.9574"/>
<polygon fill="#191970" stroke="#191970" points="581.4775,-197.2235 586.2816,-187.7805 576.6373,-192.1666 581.4775,-197.2235"/>
</g>
<!-- Node13 -->
<g id="node14" class="node">
<title>Node13</title>
<polygon fill="#ffffff" stroke="#bfbfbf" points="641.5,-168.5 641.5,-187.5 693.5,-187.5 693.5,-168.5 641.5,-168.5"/>
<text text-anchor="middle" x="667.5" y="-175.5" font-family="Helvetica,sans-Serif" font-size="10.00" fill="#000000">sstream</text>
</g>
<!-- Node0&#45;&gt;Node13 -->
<g id="edge16" class="edge">
<title>Node0&#45;&gt;Node13</title>
<path fill="none" stroke="#191970" d="M569.9552,-224.3511C592.0681,-213.8435 618.3651,-201.3478 638.0798,-191.9798"/>
<polygon fill="#191970" stroke="#191970" points="639.652,-195.1078 647.182,-187.6546 636.6477,-188.7853 639.652,-195.1078"/>
</g>
<!-- Node2 -->
<g id="node3" class="node">
<title>Node2</title>
<g id="a_node3"><a xlink:href="../../d4/d79/public_8h.html" target="_top" xlink:title="Master header for the ajabase library. ">
<polygon fill="#ffffff" stroke="#000000" points="252.5,-112.5 252.5,-131.5 380.5,-131.5 380.5,-112.5 252.5,-112.5"/>
<text text-anchor="middle" x="316.5" y="-119.5" font-family="Helvetica,sans-Serif" font-size="10.00" fill="#000000">ajabase/common/public.h</text>
</a>
</g>
</g>
<!-- Node1&#45;&gt;Node2 -->
<g id="edge2" class="edge">
<title>Node1&#45;&gt;Node2</title>
<path fill="none" stroke="#191970" d="M354.4874,-168.2455C348.0232,-160.3761 338.7615,-149.101 331.0017,-139.6542"/>
<polygon fill="#191970" stroke="#191970" points="333.4727,-137.1484 324.4208,-131.6427 328.0636,-141.5916 333.4727,-137.1484"/>
</g>
<!-- Node4 -->
<g id="node5" class="node">
<title>Node4</title>
<polygon fill="#ffffff" stroke="#bfbfbf" points="0,-56.5 0,-75.5 41,-75.5 41,-56.5 0,-56.5"/>
<text text-anchor="middle" x="20.5" y="-63.5" font-family="Helvetica,sans-Serif" font-size="10.00" fill="#000000">string</text>
</g>
<!-- Node1&#45;&gt;Node4 -->
<g id="edge12" class="edge">
<title>Node1&#45;&gt;Node4</title>
<path fill="none" stroke="#191970" d="M332.6661,-168.4645C278.5149,-151.1163 160.2192,-113.034 50.6378,-76.3486"/>
<polygon fill="#191970" stroke="#191970" points="51.6743,-73.0047 41.0804,-73.1451 49.4495,-79.6418 51.6743,-73.0047"/>
</g>
<!-- Node6 -->
<g id="node7" class="node">
<title>Node6</title>
<polygon fill="#ffffff" stroke="#bfbfbf" points="397.5,-56.5 397.5,-75.5 441.5,-75.5 441.5,-56.5 397.5,-56.5"/>
<text text-anchor="middle" x="419.5" y="-63.5" font-family="Helvetica,sans-Serif" font-size="10.00" fill="#000000">vector</text>
</g>
<!-- Node1&#45;&gt;Node6 -->
<g id="edge10" class="edge">
<title>Node1&#45;&gt;Node6</title>
<path fill="none" stroke="#191970" d="M368.5949,-168.296C374.2753,-159.0988 382.8459,-144.8221 389.5,-132 397.5515,-116.4853 405.696,-98.3806 411.4632,-85.0617"/>
<polygon fill="#191970" stroke="#191970" points="414.818,-86.118 415.5314,-75.5472 408.3817,-83.3659 414.818,-86.118"/>
</g>
<!-- Node7 -->
<g id="node8" class="node">
<title>Node7</title>
<polygon fill="#ffffff" stroke="#bfbfbf" points="460,-56.5 460,-75.5 495,-75.5 495,-56.5 460,-56.5"/>
<text text-anchor="middle" x="477.5" y="-63.5" font-family="Helvetica,sans-Serif" font-size="10.00" fill="#000000">map</text>
</g>
<!-- Node1&#45;&gt;Node7 -->
<g id="edge11" class="edge">
<title>Node1&#45;&gt;Node7</title>
<path fill="none" stroke="#191970" d="M372.3048,-168.4509C391.9098,-149.3574 436.1516,-106.2697 460.5515,-82.5063"/>
<polygon fill="#191970" stroke="#191970" points="462.998,-85.0093 467.72,-75.5249 458.1141,-79.9946 462.998,-85.0093"/>
</g>
<!-- Node3 -->
<g id="node4" class="node">
<title>Node3</title>
<g id="a_node4"><a xlink:href="../../db/db5/export_8h.html" target="_top" xlink:title="Declares system&#45;dependent import/export macros and libraries. ">
<polygon fill="#ffffff" stroke="#000000" points="59,-56.5 59,-75.5 188,-75.5 188,-56.5 59,-56.5"/>
<text text-anchor="middle" x="123.5" y="-63.5" font-family="Helvetica,sans-Serif" font-size="10.00" fill="#000000">ajabase/common/export.h</text>
</a>
</g>
</g>
<!-- Node2&#45;&gt;Node3 -->
<g id="edge3" class="edge">
<title>Node2&#45;&gt;Node3</title>
<path fill="none" stroke="#191970" d="M283.3221,-112.3733C250.9513,-102.9807 201.5602,-88.6496 166.2576,-78.4064"/>
<polygon fill="#191970" stroke="#191970" points="166.8242,-74.9264 156.2449,-75.5011 164.8735,-81.6492 166.8242,-74.9264"/>
</g>
<!-- Node2&#45;&gt;Node4 -->
<g id="edge4" class="edge">
<title>Node2&#45;&gt;Node4</title>
<path fill="none" stroke="#191970" d="M252.2287,-113.8965C200.1007,-106.6493 124.6601,-94.6354 51.171,-76.1473"/>
<polygon fill="#191970" stroke="#191970" points="51.8421,-72.7063 41.2866,-73.6178 50.1066,-79.4878 51.8421,-72.7063"/>
</g>
<!-- Node5 -->
<g id="node6" class="node">
<title>Node5</title>
<polygon fill="#ffffff" stroke="#bfbfbf" points="206,-56.5 206,-75.5 235,-75.5 235,-56.5 206,-56.5"/>
<text text-anchor="middle" x="220.5" y="-63.5" font-family="Helvetica,sans-Serif" font-size="10.00" fill="#000000">list</text>
</g>
<!-- Node2&#45;&gt;Node5 -->
<g id="edge5" class="edge">
<title>Node2&#45;&gt;Node5</title>
<path fill="none" stroke="#191970" d="M299.7781,-112.2455C284.3672,-103.2558 261.3373,-89.8218 244.0644,-79.7459"/>
<polygon fill="#191970" stroke="#191970" points="245.547,-76.5588 235.1456,-74.5433 242.0199,-82.6053 245.547,-76.5588"/>
</g>
<!-- Node2&#45;&gt;Node6 -->
<g id="edge6" class="edge">
<title>Node2&#45;&gt;Node6</title>
<path fill="none" stroke="#191970" d="M334.4412,-112.2455C350.54,-103.4928 374.3879,-90.527 392.7391,-80.5496"/>
<polygon fill="#191970" stroke="#191970" points="394.6507,-83.4942 401.7644,-75.6427 391.3071,-77.3444 394.6507,-83.4942"/>
</g>
<!-- Node2&#45;&gt;Node7 -->
<g id="edge7" class="edge">
<title>Node2&#45;&gt;Node7</title>
<path fill="none" stroke="#191970" d="M345.0621,-112.4167C370.3276,-103.8908 408.411,-90.9218 450.25,-76.0334"/>
<polygon fill="#191970" stroke="#191970" points="451.5619,-79.2814 459.8034,-72.6235 449.2088,-72.6888 451.5619,-79.2814"/>
</g>
<!-- Node8 -->
<g id="node9" class="node">
<title>Node8</title>
<g id="a_node9"><a xlink:href="../../d9/d49/types_8h.html" target="_top" xlink:title="Declares common types used in the ajabase library. ">
<polygon fill="#ffffff" stroke="#000000" points="253.5,-56.5 253.5,-75.5 379.5,-75.5 379.5,-56.5 253.5,-56.5"/>
<text text-anchor="middle" x="316.5" y="-63.5" font-family="Helvetica,sans-Serif" font-size="10.00" fill="#000000">ajabase/common/types.h</text>
</a>
</g>
</g>
<!-- Node2&#45;&gt;Node8 -->
<g id="edge8" class="edge">
<title>Node2&#45;&gt;Node8</title>
<path fill="none" stroke="#191970" d="M316.5,-112.2455C316.5,-104.9382 316.5,-94.6944 316.5,-85.7046"/>
<polygon fill="#191970" stroke="#191970" points="320.0001,-85.6426 316.5,-75.6427 313.0001,-85.6427 320.0001,-85.6426"/>
</g>
<!-- Node9 -->
<g id="node10" class="node">
<title>Node9</title>
<g id="a_node10"><a xlink:href="../../db/d40/ntv2deprecate_8h.html" target="_top" xlink:title="Deprecation control macros. ">
<polygon fill="#ffffff" stroke="#000000" points="273.5,-.5 273.5,-19.5 359.5,-19.5 359.5,-.5 273.5,-.5"/>
<text text-anchor="middle" x="316.5" y="-7.5" font-family="Helvetica,sans-Serif" font-size="10.00" fill="#000000">ntv2deprecate.h</text>
</a>
</g>
</g>
<!-- Node8&#45;&gt;Node9 -->
<g id="edge9" class="edge">
<title>Node8&#45;&gt;Node9</title>
<path fill="none" stroke="#191970" d="M316.5,-56.2455C316.5,-48.9382 316.5,-38.6944 316.5,-29.7046"/>
<polygon fill="#191970" stroke="#191970" points="320.0001,-29.6426 316.5,-19.6427 313.0001,-29.6427 320.0001,-29.6426"/>
</g>
</g>
</svg>
