<?xml version="1.0" encoding="UTF-8" standalone="no"?>
<!DOCTYPE svg PUBLIC "-//W3C//DTD SVG 1.1//EN"
 "http://www.w3.org/Graphics/SVG/1.1/DTD/svg11.dtd">
<!-- Generated by graphviz version 2.43.0 (0)
 -->
<!-- Title: /home/tcbuilder/buildAgent/work/df8e8cce5bebfd58/libajantv2/ajabase/system/file_io.h Pages: 1 -->
<svg width="544pt" height="218pt"
 viewBox="0.00 0.00 543.50 218.00" xmlns="http://www.w3.org/2000/svg" xmlns:xlink="http://www.w3.org/1999/xlink">
<g id="graph0" class="graph" transform="scale(1 1) rotate(0) translate(4 214)">
<title>/home/tcbuilder/buildAgent/work/df8e8cce5bebfd58/libajantv2/ajabase/system/file_io.h</title>
<polygon fill="white" stroke="transparent" points="-4,4 -4,-214 539.5,-214 539.5,4 -4,4"/>
<!-- Node1 -->
<g id="node1" class="node">
<title>Node1</title>
<g id="a_node1"><a xlink:title="Declares the AJAFileIO class.">
<polygon fill="#bfbfbf" stroke="black" points="316,-168.5 316,-209.5 504,-209.5 504,-168.5 316,-168.5"/>
<text text-anchor="start" x="324" y="-197.5" font-family="Helvetica,sans-Serif" font-size="10.00">/home/tcbuilder/buildAgent</text>
<text text-anchor="start" x="324" y="-186.5" font-family="Helvetica,sans-Serif" font-size="10.00">/work/df8e8cce5bebfd58/libajantv2</text>
<text text-anchor="middle" x="410" y="-175.5" font-family="Helvetica,sans-Serif" font-size="10.00">/ajabase/system/file_io.h</text>
</a>
</g>
</g>
<!-- Node2 -->
<g id="node2" class="node">
<title>Node2</title>
<g id="a_node2"><a xlink:href="../../d9/d49/types_8h.html" target="_top" xlink:title="Declares common types used in the ajabase library.">
<polygon fill="white" stroke="black" points="0,-0.5 0,-19.5 140,-19.5 140,-0.5 0,-0.5"/>
<text text-anchor="middle" x="70" y="-7.5" font-family="Helvetica,sans-Serif" font-size="10.00">ajabase/common/types.h</text>
</a>
</g>
</g>
<!-- Node1&#45;&gt;Node2 -->
<g id="edge1" class="edge">
<title>Node1&#45;&gt;Node2</title>
<path fill="none" stroke="midnightblue" d="M327.04,-168.43C295.99,-159.48 260.99,-147.38 231,-132 173.2,-102.36 114.5,-52.01 86.65,-26.63"/>
<polygon fill="midnightblue" stroke="midnightblue" points="88.75,-23.81 79.03,-19.6 84.01,-28.95 88.75,-23.81"/>
</g>
<!-- Node3 -->
<g id="node3" class="node">
<title>Node3</title>
<g id="a_node3"><a xlink:href="../../d4/d79/public_8h.html" target="_top" xlink:title="Master header for the ajabase library.">
<polygon fill="white" stroke="black" points="271,-56.5 271,-75.5 413,-75.5 413,-56.5 271,-56.5"/>
<text text-anchor="middle" x="342" y="-63.5" font-family="Helvetica,sans-Serif" font-size="10.00">ajabase/common/public.h</text>
</a>
</g>
</g>
<!-- Node1&#45;&gt;Node3 -->
<g id="edge2" class="edge">
<title>Node1&#45;&gt;Node3</title>
<path fill="none" stroke="midnightblue" d="M408.25,-168.4C406.09,-152.31 401.36,-129.42 391,-112 384.06,-100.33 373.16,-89.89 363.4,-82.01"/>
<polygon fill="midnightblue" stroke="midnightblue" points="365.32,-79.07 355.25,-75.77 361.07,-84.63 365.32,-79.07"/>
</g>
<!-- Node5 -->
<g id="node5" class="node">
<title>Node5</title>
<g id="a_node5"><a xlink:title=" ">
<polygon fill="white" stroke="#bfbfbf" points="426,-0.5 426,-19.5 470,-19.5 470,-0.5 426,-0.5"/>
<text text-anchor="middle" x="448" y="-7.5" font-family="Helvetica,sans-Serif" font-size="10.00">string</text>
</a>
</g>
</g>
<!-- Node1&#45;&gt;Node5 -->
<g id="edge12" class="edge">
<title>Node1&#45;&gt;Node5</title>
<path fill="none" stroke="midnightblue" d="M414.21,-168.38C421.61,-133.93 436.83,-63.04 444.04,-29.44"/>
<polygon fill="midnightblue" stroke="midnightblue" points="447.48,-30.1 446.16,-19.58 440.64,-28.63 447.48,-30.1"/>
</g>
<!-- Node7 -->
<g id="node7" class="node">
<title>Node7</title>
<g id="a_node7"><a xlink:title=" ">
<polygon fill="white" stroke="#bfbfbf" points="488.5,-0.5 488.5,-19.5 535.5,-19.5 535.5,-0.5 488.5,-0.5"/>
<text text-anchor="middle" x="512" y="-7.5" font-family="Helvetica,sans-Serif" font-size="10.00">vector</text>
</a>
</g>
</g>
<!-- Node1&#45;&gt;Node7 -->
<g id="edge11" class="edge">
<title>Node1&#45;&gt;Node7</title>
<path fill="none" stroke="midnightblue" d="M421.31,-168.38C441.33,-133.63 482.72,-61.81 501.87,-28.57"/>
<polygon fill="midnightblue" stroke="midnightblue" points="505.09,-30 507.05,-19.58 499.03,-26.5 505.09,-30"/>
</g>
<!-- Node9 -->
<g id="node9" class="node">
<title>Node9</title>
<g id="a_node9"><a xlink:href="../../dc/db2/system_8h.html" target="_top" xlink:title="System specific functions.">
<polygon fill="white" stroke="black" points="240,-112.5 240,-131.5 382,-131.5 382,-112.5 240,-112.5"/>
<text text-anchor="middle" x="311" y="-119.5" font-family="Helvetica,sans-Serif" font-size="10.00">ajabase/system/system.h</text>
</a>
</g>
</g>
<!-- Node1&#45;&gt;Node9 -->
<g id="edge9" class="edge">
<title>Node1&#45;&gt;Node9</title>
<path fill="none" stroke="midnightblue" d="M380.3,-168.5C364.97,-158.44 346.62,-146.38 332.65,-137.21"/>
<polygon fill="midnightblue" stroke="midnightblue" points="334.46,-134.22 324.18,-131.65 330.62,-140.07 334.46,-134.22"/>
</g>
<!-- Node3&#45;&gt;Node2 -->
<g id="edge8" class="edge">
<title>Node3&#45;&gt;Node2</title>
<path fill="none" stroke="midnightblue" d="M298.9,-56.44C251.15,-46.96 174.14,-31.67 122.81,-21.48"/>
<polygon fill="midnightblue" stroke="midnightblue" points="123.39,-18.03 112.9,-19.52 122.02,-24.9 123.39,-18.03"/>
</g>
<!-- Node4 -->
<g id="node4" class="node">
<title>Node4</title>
<g id="a_node4"><a xlink:href="../../db/db5/export_8h.html" target="_top" xlink:title="Declares system&#45;dependent import/export macros and libraries.">
<polygon fill="white" stroke="black" points="158,-0.5 158,-19.5 302,-19.5 302,-0.5 158,-0.5"/>
<text text-anchor="middle" x="230" y="-7.5" font-family="Helvetica,sans-Serif" font-size="10.00">ajabase/common/export.h</text>
</a>
</g>
</g>
<!-- Node3&#45;&gt;Node4 -->
<g id="edge3" class="edge">
<title>Node3&#45;&gt;Node4</title>
<path fill="none" stroke="midnightblue" d="M324.01,-56.32C305.96,-47.62 277.95,-34.12 257.2,-24.11"/>
<polygon fill="midnightblue" stroke="midnightblue" points="258.48,-20.84 247.95,-19.65 255.44,-27.15 258.48,-20.84"/>
</g>
<!-- Node3&#45;&gt;Node5 -->
<g id="edge4" class="edge">
<title>Node3&#45;&gt;Node5</title>
<path fill="none" stroke="midnightblue" d="M359.03,-56.32C376.03,-47.66 402.38,-34.24 421.99,-24.25"/>
<polygon fill="midnightblue" stroke="midnightblue" points="423.69,-27.31 431.01,-19.65 420.51,-21.08 423.69,-27.31"/>
</g>
<!-- Node6 -->
<g id="node6" class="node">
<title>Node6</title>
<g id="a_node6"><a xlink:title=" ">
<polygon fill="white" stroke="#bfbfbf" points="320,-0.5 320,-19.5 352,-19.5 352,-0.5 320,-0.5"/>
<text text-anchor="middle" x="336" y="-7.5" font-family="Helvetica,sans-Serif" font-size="10.00">list</text>
</a>
</g>
</g>
<!-- Node3&#45;&gt;Node6 -->
<g id="edge5" class="edge">
<title>Node3&#45;&gt;Node6</title>
<path fill="none" stroke="midnightblue" d="M341.01,-56.08C340.21,-48.93 339.07,-38.64 338.08,-29.69"/>
<polygon fill="midnightblue" stroke="midnightblue" points="341.56,-29.3 336.97,-19.75 334.6,-30.08 341.56,-29.3"/>
</g>
<!-- Node3&#45;&gt;Node7 -->
<g id="edge6" class="edge">
<title>Node3&#45;&gt;Node7</title>
<path fill="none" stroke="midnightblue" d="M368.94,-56.44C398.67,-47 446.57,-31.78 478.66,-21.59"/>
<polygon fill="midnightblue" stroke="midnightblue" points="480,-24.84 488.47,-18.47 477.88,-18.16 480,-24.84"/>
</g>
<!-- Node8 -->
<g id="node8" class="node">
<title>Node8</title>
<g id="a_node8"><a xlink:title=" ">
<polygon fill="white" stroke="#bfbfbf" points="370,-0.5 370,-19.5 408,-19.5 408,-0.5 370,-0.5"/>
<text text-anchor="middle" x="389" y="-7.5" font-family="Helvetica,sans-Serif" font-size="10.00">map</text>
</a>
</g>
</g>
<!-- Node3&#45;&gt;Node8 -->
<g id="edge7" class="edge">
<title>Node3&#45;&gt;Node8</title>
<path fill="none" stroke="midnightblue" d="M349.76,-56.08C356.54,-48.3 366.54,-36.8 374.76,-27.37"/>
<polygon fill="midnightblue" stroke="midnightblue" points="377.46,-29.59 381.38,-19.75 372.18,-25 377.46,-29.59"/>
</g>
<!-- Node9&#45;&gt;Node3 -->
<g id="edge10" class="edge">
<title>Node9&#45;&gt;Node3</title>
<path fill="none" stroke="midnightblue" d="M316.12,-112.08C320.41,-104.61 326.66,-93.72 331.94,-84.52"/>
<polygon fill="midnightblue" stroke="midnightblue" points="335.03,-86.17 336.98,-75.75 328.96,-82.68 335.03,-86.17"/>
</g>
</g>
</svg>
