<?xml version="1.0" encoding="UTF-8" standalone="no"?>
<!DOCTYPE svg PUBLIC "-//W3C//DTD SVG 1.1//EN"
 "http://www.w3.org/Graphics/SVG/1.1/DTD/svg11.dtd">
<!-- Generated by graphviz version 2.43.0 (0)
 -->
<!-- Title: KSPROPERTY_AJAPROPS_AUTOCIRC_TRANSFER_EX_S Pages: 1 -->
<svg width="967pt" height="167pt"
 viewBox="0.00 0.00 967.00 167.00" xmlns="http://www.w3.org/2000/svg" xmlns:xlink="http://www.w3.org/1999/xlink">
<g id="graph0" class="graph" transform="scale(1 1) rotate(0) translate(4 163)">
<title>KSPROPERTY_AJAPROPS_AUTOCIRC_TRANSFER_EX_S</title>
<polygon fill="white" stroke="transparent" points="-4,4 -4,-163 963,-163 963,4 -4,4"/>
<!-- Node1 -->
<g id="node1" class="node">
<title>Node1</title>
<g id="a_node1"><a xlink:title=" ">
<polygon fill="#bfbfbf" stroke="black" points="800,-70 800,-100 959,-100 959,-70 800,-70"/>
<text text-anchor="start" x="808" y="-88" font-family="Helvetica,sans-Serif" font-size="10.00">KSPROPERTY_AJAPROPS</text>
<text text-anchor="middle" x="879.5" y="-77" font-family="Helvetica,sans-Serif" font-size="10.00">_AUTOCIRC_TRANSFER_EX_S</text>
</a>
</g>
</g>
<!-- Node2 -->
<g id="node2" class="node">
<title>Node2</title>
<g id="a_node2"><a xlink:href="../../d0/dee/struct_a_u_t_o_c_i_r_c_u_l_a_t_e___t_r_a_n_s_f_e_r___s_t_r_u_c_t.html" target="_top" xlink:title=" ">
<polygon fill="white" stroke="black" points="270,-69 270,-99 426,-99 426,-69 270,-69"/>
<text text-anchor="start" x="278" y="-87" font-family="Helvetica,sans-Serif" font-size="10.00">AUTOCIRCULATE_TRANSFER</text>
<text text-anchor="middle" x="348" y="-76" font-family="Helvetica,sans-Serif" font-size="10.00">_STRUCT</text>
</a>
</g>
</g>
<!-- Node2&#45;&gt;Node1 -->
<g id="edge1" class="edge">
<title>Node2&#45;&gt;Node1</title>
<path fill="none" stroke="#9a32cd" stroke-dasharray="5,2" d="M436.46,-84.17C537.58,-84.36 702.52,-84.67 799.78,-84.85"/>
<polygon fill="#9a32cd" stroke="#9a32cd" points="436.28,-80.66 426.28,-84.15 436.27,-87.66 436.28,-80.66"/>
<text text-anchor="middle" x="604" y="-88" font-family="Helvetica,sans-Serif" font-size="10.00"> acTransfer</text>
</g>
<!-- Node3 -->
<g id="node3" class="node">
<title>Node3</title>
<g id="a_node3"><a xlink:href="../../d6/d30/struct_n_t_v2_color_correction_info.html" target="_top" xlink:title=" ">
<polygon fill="white" stroke="black" points="0,-76.5 0,-95.5 137,-95.5 137,-76.5 0,-76.5"/>
<text text-anchor="middle" x="68.5" y="-83.5" font-family="Helvetica,sans-Serif" font-size="10.00">NTV2ColorCorrectionInfo</text>
</a>
</g>
</g>
<!-- Node3&#45;&gt;Node2 -->
<g id="edge2" class="edge">
<title>Node3&#45;&gt;Node2</title>
<path fill="none" stroke="#9a32cd" stroke-dasharray="5,2" d="M147.29,-85.07C149.89,-85.04 152.47,-85.02 155,-85 192.83,-84.68 234.86,-84.45 269.92,-84.29"/>
<polygon fill="#9a32cd" stroke="#9a32cd" points="147.14,-81.57 137.17,-85.17 147.21,-88.57 147.14,-81.57"/>
<text text-anchor="middle" x="203.5" y="-88" font-family="Helvetica,sans-Serif" font-size="10.00"> colorCorrectionInfo</text>
</g>
<!-- Node4 -->
<g id="node4" class="node">
<title>Node4</title>
<g id="a_node4"><a xlink:href="../../d3/d95/struct_r_p188___s_t_r_u_c_t.html" target="_top" xlink:title=" ">
<polygon fill="white" stroke="black" points="22.5,-127.5 22.5,-146.5 114.5,-146.5 114.5,-127.5 22.5,-127.5"/>
<text text-anchor="middle" x="68.5" y="-134.5" font-family="Helvetica,sans-Serif" font-size="10.00">RP188_STRUCT</text>
</a>
</g>
</g>
<!-- Node4&#45;&gt;Node2 -->
<g id="edge3" class="edge">
<title>Node4&#45;&gt;Node2</title>
<path fill="none" stroke="#9a32cd" stroke-dasharray="5,2" d="M124.64,-126.47C166.19,-118.53 223.69,-107.55 269.81,-98.74"/>
<polygon fill="#9a32cd" stroke="#9a32cd" points="123.87,-123.05 114.7,-128.37 125.18,-129.93 123.87,-123.05"/>
<text text-anchor="middle" x="203.5" y="-122" font-family="Helvetica,sans-Serif" font-size="10.00"> rp188</text>
</g>
<!-- Node10 -->
<g id="node10" class="node">
<title>Node10</title>
<g id="a_node10"><a xlink:href="../../d8/d37/struct_f_r_a_m_e___s_t_a_m_p___s_t_r_u_c_t.html" target="_top" xlink:title=" ">
<polygon fill="white" stroke="black" points="281,-139.5 281,-158.5 415,-158.5 415,-139.5 281,-139.5"/>
<text text-anchor="middle" x="348" y="-146.5" font-family="Helvetica,sans-Serif" font-size="10.00">FRAME_STAMP_STRUCT</text>
</a>
</g>
</g>
<!-- Node4&#45;&gt;Node10 -->
<g id="edge10" class="edge">
<title>Node4&#45;&gt;Node10</title>
<path fill="none" stroke="#9a32cd" stroke-dasharray="5,2" d="M124.85,-139.39C169.76,-141.34 233.22,-144.08 280.82,-146.14"/>
<polygon fill="#9a32cd" stroke="#9a32cd" points="124.84,-135.89 114.7,-138.95 124.54,-142.88 124.84,-135.89"/>
<text text-anchor="middle" x="203.5" y="-147" font-family="Helvetica,sans-Serif" font-size="10.00"> currentRP188</text>
</g>
<!-- Node5 -->
<g id="node5" class="node">
<title>Node5</title>
<g id="a_node5"><a xlink:href="../../d3/d14/struct_auto_circ_vid_proc_info.html" target="_top" xlink:title=" ">
<polygon fill="white" stroke="black" points="12,-0.5 12,-19.5 125,-19.5 125,-0.5 12,-0.5"/>
<text text-anchor="middle" x="68.5" y="-7.5" font-family="Helvetica,sans-Serif" font-size="10.00">AutoCircVidProcInfo</text>
</a>
</g>
</g>
<!-- Node5&#45;&gt;Node2 -->
<g id="edge4" class="edge">
<title>Node5&#45;&gt;Node2</title>
<path fill="none" stroke="#9a32cd" stroke-dasharray="5,2" d="M135.36,-14.65C171.1,-19.03 215.35,-27.52 252,-44 261.24,-48.16 261.07,-53.2 270,-58 277.7,-62.14 286.19,-65.8 294.64,-68.97"/>
<polygon fill="#9a32cd" stroke="#9a32cd" points="135.37,-11.13 125.04,-13.47 134.58,-18.08 135.37,-11.13"/>
<text text-anchor="middle" x="203.5" y="-47" font-family="Helvetica,sans-Serif" font-size="10.00"> vidProcInfo</text>
</g>
<!-- Node6 -->
<g id="node6" class="node">
<title>Node6</title>
<g id="a_node6"><a xlink:href="../../d5/dd5/struct_c_u_s_t_o_m___a_n_c___s_t_r_u_c_t.html" target="_top" xlink:title=" ">
<polygon fill="white" stroke="black" points="3.5,-38.5 3.5,-57.5 133.5,-57.5 133.5,-38.5 3.5,-38.5"/>
<text text-anchor="middle" x="68.5" y="-45.5" font-family="Helvetica,sans-Serif" font-size="10.00">CUSTOM_ANC_STRUCT</text>
</a>
</g>
</g>
<!-- Node6&#45;&gt;Node2 -->
<g id="edge5" class="edge">
<title>Node6&#45;&gt;Node2</title>
<path fill="none" stroke="#9a32cd" stroke-dasharray="5,2" d="M143.81,-56.51C176.95,-60.42 216.45,-65.24 252,-70 257.78,-70.77 263.76,-71.6 269.77,-72.45"/>
<polygon fill="#9a32cd" stroke="#9a32cd" points="144.08,-53.02 133.74,-55.33 143.27,-59.97 144.08,-53.02"/>
<text text-anchor="middle" x="203.5" y="-73" font-family="Helvetica,sans-Serif" font-size="10.00"> customAncInfo</text>
</g>
<!-- Node7 -->
<g id="node7" class="node">
<title>Node7</title>
<g id="a_node7"><a xlink:href="../../de/df1/struct_n_t_v2_routing_table.html" target="_top" xlink:title=" ">
<polygon fill="white" stroke="black" points="551,-29.5 551,-48.5 657,-48.5 657,-29.5 551,-29.5"/>
<text text-anchor="middle" x="604" y="-36.5" font-family="Helvetica,sans-Serif" font-size="10.00">NTV2RoutingTable</text>
</a>
</g>
</g>
<!-- Node7&#45;&gt;Node1 -->
<g id="edge6" class="edge">
<title>Node7&#45;&gt;Node1</title>
<path fill="none" stroke="#9a32cd" stroke-dasharray="5,2" d="M667.44,-44.33C701.48,-47.75 744.24,-52.9 782,-60 796.29,-62.69 811.59,-66.3 825.7,-69.95"/>
<polygon fill="#9a32cd" stroke="#9a32cd" points="667.47,-40.81 657.17,-43.32 666.78,-47.78 667.47,-40.81"/>
<text text-anchor="middle" x="741" y="-63" font-family="Helvetica,sans-Serif" font-size="10.00"> acTransferRoute</text>
</g>
<!-- Node8 -->
<g id="node8" class="node">
<title>Node8</title>
<g id="a_node8"><a xlink:href="../../d4/d90/struct_n_t_v2_routing_entry.html" target="_top" xlink:title=" ">
<polygon fill="white" stroke="black" points="295,-29.5 295,-48.5 401,-48.5 401,-29.5 295,-29.5"/>
<text text-anchor="middle" x="348" y="-36.5" font-family="Helvetica,sans-Serif" font-size="10.00">NTV2RoutingEntry</text>
</a>
</g>
</g>
<!-- Node8&#45;&gt;Node7 -->
<g id="edge7" class="edge">
<title>Node8&#45;&gt;Node7</title>
<path fill="none" stroke="#9a32cd" stroke-dasharray="5,2" d="M411.03,-39C453.82,-39 510.08,-39 550.62,-39"/>
<polygon fill="#9a32cd" stroke="#9a32cd" points="411.01,-35.5 401.01,-39 411.01,-42.5 411.01,-35.5"/>
<text text-anchor="middle" x="476" y="-42" font-family="Helvetica,sans-Serif" font-size="10.00"> routingEntry</text>
</g>
<!-- Node9 -->
<g id="node9" class="node">
<title>Node9</title>
<g id="a_node9"><a xlink:href="../../d7/d19/struct_a_u_t_o_c_i_r_c_u_l_a_t_e___t_r_a_n_s_f_e_r___s_t_a_t_u_s___s_t_r_u_c_t.html" target="_top" xlink:title=" ">
<polygon fill="white" stroke="black" points="526,-126 526,-156 682,-156 682,-126 526,-126"/>
<text text-anchor="start" x="534" y="-144" font-family="Helvetica,sans-Serif" font-size="10.00">AUTOCIRCULATE_TRANSFER</text>
<text text-anchor="middle" x="604" y="-133" font-family="Helvetica,sans-Serif" font-size="10.00">_STATUS_STRUCT</text>
</a>
</g>
</g>
<!-- Node9&#45;&gt;Node1 -->
<g id="edge8" class="edge">
<title>Node9&#45;&gt;Node1</title>
<path fill="none" stroke="#9a32cd" stroke-dasharray="5,2" d="M688.12,-123.98C725.38,-116.35 768.95,-107.43 805,-100.05"/>
<polygon fill="#9a32cd" stroke="#9a32cd" points="687.39,-120.56 678.29,-125.99 688.79,-127.42 687.39,-120.56"/>
<text text-anchor="middle" x="741" y="-124" font-family="Helvetica,sans-Serif" font-size="10.00"> acStatus</text>
</g>
<!-- Node10&#45;&gt;Node9 -->
<g id="edge9" class="edge">
<title>Node10&#45;&gt;Node9</title>
<path fill="none" stroke="#9a32cd" stroke-dasharray="5,2" d="M425.23,-146.6C457.09,-145.6 494.05,-144.43 526,-143.43"/>
<polygon fill="#9a32cd" stroke="#9a32cd" points="424.96,-143.11 415.07,-146.92 425.18,-150.1 424.96,-143.11"/>
<text text-anchor="middle" x="476" y="-148" font-family="Helvetica,sans-Serif" font-size="10.00"> frameStamp</text>
</g>
</g>
</svg>
