<?xml version="1.0" encoding="UTF-8" standalone="no"?>
<!DOCTYPE svg PUBLIC "-//W3C//DTD SVG 1.1//EN"
 "http://www.w3.org/Graphics/SVG/1.1/DTD/svg11.dtd">
<!-- Generated by graphviz version 2.40.1 (0)
 -->
<!-- Title: /home/tcbuilder/buildAgent/work/df8e8cce5bebfd58/libajantv2/ajabase/system/windows/eventimpl.cpp Pages: 1 -->
<svg width="785pt" height="341pt"
 viewBox="0.00 0.00 785.01 341.00" xmlns="http://www.w3.org/2000/svg" xmlns:xlink="http://www.w3.org/1999/xlink">
<g id="graph0" class="graph" transform="scale(1 1) rotate(0) translate(4 337)">
<title>/home/tcbuilder/buildAgent/work/df8e8cce5bebfd58/libajantv2/ajabase/system/windows/eventimpl.cpp</title>
<polygon fill="#ffffff" stroke="transparent" points="-4,4 -4,-337 781.0126,-337 781.0126,4 -4,4"/>
<!-- Node0 -->
<g id="node1" class="node">
<title>Node0</title>
<polygon fill="#bfbfbf" stroke="#000000" points="176.5,-291.5 176.5,-332.5 370.5,-332.5 370.5,-291.5 176.5,-291.5"/>
<text text-anchor="start" x="184.5" y="-320.5" font-family="Helvetica,sans-Serif" font-size="10.00" fill="#000000">/home/tcbuilder/buildAgent</text>
<text text-anchor="start" x="184.5" y="-309.5" font-family="Helvetica,sans-Serif" font-size="10.00" fill="#000000">/work/df8e8cce5bebfd58/libajantv2</text>
<text text-anchor="middle" x="273.5" y="-298.5" font-family="Helvetica,sans-Serif" font-size="10.00" fill="#000000">/ajabase/system/windows/eventimpl.cpp</text>
</g>
<!-- Node1 -->
<g id="node2" class="node">
<title>Node1</title>
<g id="a_node2"><a xlink:href="../../d6/de7/windows_2eventimpl_8h.html" target="_top" xlink:title="Declares the AJAEventImpl class. ">
<polygon fill="#ffffff" stroke="#000000" points="210,-224.5 210,-254.5 337,-254.5 337,-224.5 210,-224.5"/>
<text text-anchor="start" x="218" y="-242.5" font-family="Helvetica,sans-Serif" font-size="10.00" fill="#000000">ajabase/system/windows</text>
<text text-anchor="middle" x="273.5" y="-231.5" font-family="Helvetica,sans-Serif" font-size="10.00" fill="#000000">/eventimpl.h</text>
</a>
</g>
</g>
<!-- Node0&#45;&gt;Node1 -->
<g id="edge1" class="edge">
<title>Node0&#45;&gt;Node1</title>
<path fill="none" stroke="#191970" d="M273.5,-291.4183C273.5,-283.0849 273.5,-273.3834 273.5,-264.6373"/>
<polygon fill="#191970" stroke="#191970" points="277.0001,-264.5991 273.5,-254.5991 270.0001,-264.5991 277.0001,-264.5991"/>
</g>
<!-- Node14 -->
<g id="node15" class="node">
<title>Node14</title>
<g id="a_node15"><a xlink:href="../../dd/d20/event_8h.html" target="_top" xlink:title="Declares the AJAEvent class. ">
<polygon fill="#ffffff" stroke="#000000" points="70,-168.5 70,-187.5 191,-187.5 191,-168.5 70,-168.5"/>
<text text-anchor="middle" x="130.5" y="-175.5" font-family="Helvetica,sans-Serif" font-size="10.00" fill="#000000">ajabase/system/event.h</text>
</a>
</g>
</g>
<!-- Node0&#45;&gt;Node14 -->
<g id="edge20" class="edge">
<title>Node0&#45;&gt;Node14</title>
<path fill="none" stroke="#191970" d="M245.3145,-291.3193C231.6685,-280.9027 215.2935,-267.7928 201.5,-255 180.9141,-235.9075 159.3319,-211.8345 145.4442,-195.7346"/>
<polygon fill="#191970" stroke="#191970" points="147.7316,-193.0236 138.5756,-187.6928 142.4088,-197.5699 147.7316,-193.0236"/>
</g>
<!-- Node15 -->
<g id="node16" class="node">
<title>Node15</title>
<g id="a_node16"><a xlink:href="../../db/d16/debug_8h.html" target="_top" xlink:title="Declares the AJADebug class. ">
<polygon fill="#ffffff" stroke="#000000" points="449,-168.5 449,-187.5 572,-187.5 572,-168.5 449,-168.5"/>
<text text-anchor="middle" x="510.5" y="-175.5" font-family="Helvetica,sans-Serif" font-size="10.00" fill="#000000">ajabase/system/debug.h</text>
</a>
</g>
</g>
<!-- Node0&#45;&gt;Node15 -->
<g id="edge21" class="edge">
<title>Node0&#45;&gt;Node15</title>
<path fill="none" stroke="#191970" d="M310.0119,-291.3562C358.4185,-263.987 442.6268,-216.3756 484.8357,-192.5106"/>
<polygon fill="#191970" stroke="#191970" points="486.6758,-195.491 493.6581,-187.5224 483.2305,-189.3975 486.6758,-195.491"/>
</g>
<!-- Node2 -->
<g id="node3" class="node">
<title>Node2</title>
<g id="a_node3"><a xlink:href="../../dc/db2/system_8h.html" target="_top" xlink:title="System specific functions. ">
<polygon fill="#ffffff" stroke="#000000" points="209,-168.5 209,-187.5 338,-187.5 338,-168.5 209,-168.5"/>
<text text-anchor="middle" x="273.5" y="-175.5" font-family="Helvetica,sans-Serif" font-size="10.00" fill="#000000">ajabase/system/system.h</text>
</a>
</g>
</g>
<!-- Node1&#45;&gt;Node2 -->
<g id="edge2" class="edge">
<title>Node1&#45;&gt;Node2</title>
<path fill="none" stroke="#191970" d="M273.5,-224.2977C273.5,-216.3834 273.5,-206.6043 273.5,-198.0759"/>
<polygon fill="#191970" stroke="#191970" points="277.0001,-197.8469 273.5,-187.8469 270.0001,-197.847 277.0001,-197.8469"/>
</g>
<!-- Node11 -->
<g id="node12" class="node">
<title>Node11</title>
<g id="a_node12"><a xlink:href="../../dc/d54/common_8h.html" target="_top" xlink:title="Private include file for all ajabase sources. ">
<polygon fill="#ffffff" stroke="#000000" points="296.5,-112.5 296.5,-131.5 436.5,-131.5 436.5,-112.5 296.5,-112.5"/>
<text text-anchor="middle" x="366.5" y="-119.5" font-family="Helvetica,sans-Serif" font-size="10.00" fill="#000000">ajabase/common/common.h</text>
</a>
</g>
</g>
<!-- Node1&#45;&gt;Node11 -->
<g id="edge11" class="edge">
<title>Node1&#45;&gt;Node11</title>
<path fill="none" stroke="#191970" d="M304.3316,-224.4852C319.3368,-215.7445 336.4718,-203.3971 347.5,-188 357.2518,-174.3849 362.0223,-155.8428 364.342,-141.8783"/>
<polygon fill="#191970" stroke="#191970" points="367.827,-142.2263 365.7252,-131.842 360.8925,-141.2705 367.827,-142.2263"/>
</g>
<!-- Node1&#45;&gt;Node14 -->
<g id="edge17" class="edge">
<title>Node1&#45;&gt;Node14</title>
<path fill="none" stroke="#191970" d="M238.5183,-224.4554C215.1816,-214.419 184.7502,-201.3314 162.137,-191.6061"/>
<polygon fill="#191970" stroke="#191970" points="163.2292,-188.2659 152.6599,-187.5303 160.4636,-194.6965 163.2292,-188.2659"/>
</g>
<!-- Node3 -->
<g id="node4" class="node">
<title>Node3</title>
<g id="a_node4"><a xlink:href="../../d4/d79/public_8h.html" target="_top" xlink:title="Master header for the ajabase library. ">
<polygon fill="#ffffff" stroke="#000000" points="150.5,-112.5 150.5,-131.5 278.5,-131.5 278.5,-112.5 150.5,-112.5"/>
<text text-anchor="middle" x="214.5" y="-119.5" font-family="Helvetica,sans-Serif" font-size="10.00" fill="#000000">ajabase/common/public.h</text>
</a>
</g>
</g>
<!-- Node2&#45;&gt;Node3 -->
<g id="edge3" class="edge">
<title>Node2&#45;&gt;Node3</title>
<path fill="none" stroke="#191970" d="M263.223,-168.2455C254.6782,-160.1352 242.3222,-148.4075 232.1915,-138.7919"/>
<polygon fill="#191970" stroke="#191970" points="234.3218,-135.9884 224.6592,-131.6427 229.5028,-141.0655 234.3218,-135.9884"/>
</g>
<!-- Node4 -->
<g id="node5" class="node">
<title>Node4</title>
<g id="a_node5"><a xlink:href="../../db/db5/export_8h.html" target="_top" xlink:title="Declares system&#45;dependent import/export macros and libraries. ">
<polygon fill="#ffffff" stroke="#000000" points="304,-56.5 304,-75.5 433,-75.5 433,-56.5 304,-56.5"/>
<text text-anchor="middle" x="368.5" y="-63.5" font-family="Helvetica,sans-Serif" font-size="10.00" fill="#000000">ajabase/common/export.h</text>
</a>
</g>
</g>
<!-- Node3&#45;&gt;Node4 -->
<g id="edge4" class="edge">
<title>Node3&#45;&gt;Node4</title>
<path fill="none" stroke="#191970" d="M240.9735,-112.3733C266.3597,-103.1419 304.8645,-89.1402 332.922,-78.9375"/>
<polygon fill="#191970" stroke="#191970" points="334.1701,-82.2079 342.3719,-75.5011 331.7778,-75.6293 334.1701,-82.2079"/>
</g>
<!-- Node5 -->
<g id="node6" class="node">
<title>Node5</title>
<polygon fill="#ffffff" stroke="#bfbfbf" points="245,-56.5 245,-75.5 286,-75.5 286,-56.5 245,-56.5"/>
<text text-anchor="middle" x="265.5" y="-63.5" font-family="Helvetica,sans-Serif" font-size="10.00" fill="#000000">string</text>
</g>
<!-- Node3&#45;&gt;Node5 -->
<g id="edge5" class="edge">
<title>Node3&#45;&gt;Node5</title>
<path fill="none" stroke="#191970" d="M223.3835,-112.2455C230.6966,-104.2155 241.2391,-92.6394 249.9467,-83.0781"/>
<polygon fill="#191970" stroke="#191970" points="252.5727,-85.3928 256.7183,-75.6427 247.3972,-80.6795 252.5727,-85.3928"/>
</g>
<!-- Node6 -->
<g id="node7" class="node">
<title>Node6</title>
<polygon fill="#ffffff" stroke="#bfbfbf" points="198,-56.5 198,-75.5 227,-75.5 227,-56.5 198,-56.5"/>
<text text-anchor="middle" x="212.5" y="-63.5" font-family="Helvetica,sans-Serif" font-size="10.00" fill="#000000">list</text>
</g>
<!-- Node3&#45;&gt;Node6 -->
<g id="edge6" class="edge">
<title>Node3&#45;&gt;Node6</title>
<path fill="none" stroke="#191970" d="M214.1516,-112.2455C213.8907,-104.9382 213.5248,-94.6944 213.2037,-85.7046"/>
<polygon fill="#191970" stroke="#191970" points="216.6992,-85.5113 212.8444,-75.6427 209.7036,-85.7613 216.6992,-85.5113"/>
</g>
<!-- Node7 -->
<g id="node8" class="node">
<title>Node7</title>
<polygon fill="#ffffff" stroke="#bfbfbf" points="515.5,-56.5 515.5,-75.5 559.5,-75.5 559.5,-56.5 515.5,-56.5"/>
<text text-anchor="middle" x="537.5" y="-63.5" font-family="Helvetica,sans-Serif" font-size="10.00" fill="#000000">vector</text>
</g>
<!-- Node3&#45;&gt;Node7 -->
<g id="edge7" class="edge">
<title>Node3&#45;&gt;Node7</title>
<path fill="none" stroke="#191970" d="M278.7795,-113.0675C346.8589,-103.4086 450.8849,-88.0366 505.3719,-75.9282"/>
<polygon fill="#191970" stroke="#191970" points="506.3177,-79.3017 515.2666,-73.6301 504.7341,-72.4832 506.3177,-79.3017"/>
</g>
<!-- Node8 -->
<g id="node9" class="node">
<title>Node8</title>
<polygon fill="#ffffff" stroke="#bfbfbf" points="0,-56.5 0,-75.5 35,-75.5 35,-56.5 0,-56.5"/>
<text text-anchor="middle" x="17.5" y="-63.5" font-family="Helvetica,sans-Serif" font-size="10.00" fill="#000000">map</text>
</g>
<!-- Node3&#45;&gt;Node8 -->
<g id="edge8" class="edge">
<title>Node3&#45;&gt;Node8</title>
<path fill="none" stroke="#191970" d="M175.3845,-112.4866C142.8357,-104.3321 95.1249,-91.8306 44.8817,-75.9132"/>
<polygon fill="#191970" stroke="#191970" points="45.7302,-72.5099 35.1392,-72.7933 43.5953,-79.1764 45.7302,-72.5099"/>
</g>
<!-- Node9 -->
<g id="node10" class="node">
<title>Node9</title>
<g id="a_node10"><a xlink:href="../../d9/d49/types_8h.html" target="_top" xlink:title="Declares common types used in the ajabase library. ">
<polygon fill="#ffffff" stroke="#000000" points="53.5,-56.5 53.5,-75.5 179.5,-75.5 179.5,-56.5 53.5,-56.5"/>
<text text-anchor="middle" x="116.5" y="-63.5" font-family="Helvetica,sans-Serif" font-size="10.00" fill="#000000">ajabase/common/types.h</text>
</a>
</g>
</g>
<!-- Node3&#45;&gt;Node9 -->
<g id="edge9" class="edge">
<title>Node3&#45;&gt;Node9</title>
<path fill="none" stroke="#191970" d="M197.4297,-112.2455C182.253,-103.5731 159.8379,-90.7645 142.4437,-80.825"/>
<polygon fill="#191970" stroke="#191970" points="143.7936,-77.5653 133.3747,-75.6427 140.3206,-83.643 143.7936,-77.5653"/>
</g>
<!-- Node10 -->
<g id="node11" class="node">
<title>Node10</title>
<g id="a_node11"><a xlink:href="../../db/d40/ntv2deprecate_8h.html" target="_top" xlink:title="Deprecation control macros. ">
<polygon fill="#ffffff" stroke="#000000" points="73.5,-.5 73.5,-19.5 159.5,-19.5 159.5,-.5 73.5,-.5"/>
<text text-anchor="middle" x="116.5" y="-7.5" font-family="Helvetica,sans-Serif" font-size="10.00" fill="#000000">ntv2deprecate.h</text>
</a>
</g>
</g>
<!-- Node9&#45;&gt;Node10 -->
<g id="edge10" class="edge">
<title>Node9&#45;&gt;Node10</title>
<path fill="none" stroke="#191970" d="M116.5,-56.2455C116.5,-48.9382 116.5,-38.6944 116.5,-29.7046"/>
<polygon fill="#191970" stroke="#191970" points="120.0001,-29.6426 116.5,-19.6427 113.0001,-29.6427 120.0001,-29.6426"/>
</g>
<!-- Node11&#45;&gt;Node4 -->
<g id="edge12" class="edge">
<title>Node11&#45;&gt;Node4</title>
<path fill="none" stroke="#191970" d="M366.8484,-112.2455C367.1093,-104.9382 367.4752,-94.6944 367.7963,-85.7046"/>
<polygon fill="#191970" stroke="#191970" points="371.2964,-85.7613 368.1556,-75.6427 364.3008,-85.5113 371.2964,-85.7613"/>
</g>
<!-- Node11&#45;&gt;Node5 -->
<g id="edge14" class="edge">
<title>Node11&#45;&gt;Node5</title>
<path fill="none" stroke="#191970" d="M348.9071,-112.2455C333.121,-103.4928 309.7361,-90.527 291.7413,-80.5496"/>
<polygon fill="#191970" stroke="#191970" points="293.3341,-77.4308 282.8913,-75.6427 289.9397,-83.5528 293.3341,-77.4308"/>
</g>
<!-- Node11&#45;&gt;Node7 -->
<g id="edge15" class="edge">
<title>Node11&#45;&gt;Node7</title>
<path fill="none" stroke="#191970" d="M395.8959,-112.3733C426.4848,-102.3559 474.2268,-86.721 505.6848,-76.419"/>
<polygon fill="#191970" stroke="#191970" points="506.8697,-79.7139 515.2838,-73.2755 504.6911,-73.0616 506.8697,-79.7139"/>
</g>
<!-- Node12 -->
<g id="node13" class="node">
<title>Node12</title>
<polygon fill="#ffffff" stroke="#bfbfbf" points="581.5,-56.5 581.5,-75.5 611.5,-75.5 611.5,-56.5 581.5,-56.5"/>
<text text-anchor="middle" x="596.5" y="-63.5" font-family="Helvetica,sans-Serif" font-size="10.00" fill="#000000">set</text>
</g>
<!-- Node11&#45;&gt;Node12 -->
<g id="edge13" class="edge">
<title>Node11&#45;&gt;Node12</title>
<path fill="none" stroke="#191970" d="M415.9016,-112.4648C457.0593,-104.1125 517.0475,-90.9886 568.5,-76 569.5655,-75.6896 570.6495,-75.3608 571.7415,-75.0189"/>
<polygon fill="#191970" stroke="#191970" points="573.1376,-78.2419 581.495,-71.7301 570.9009,-71.6088 573.1376,-78.2419"/>
</g>
<!-- Node13 -->
<g id="node14" class="node">
<title>Node13</title>
<polygon fill="#ffffff" stroke="#bfbfbf" points="451.5,-56.5 451.5,-75.5 497.5,-75.5 497.5,-56.5 451.5,-56.5"/>
<text text-anchor="middle" x="474.5" y="-63.5" font-family="Helvetica,sans-Serif" font-size="10.00" fill="#000000">cstdint</text>
</g>
<!-- Node11&#45;&gt;Node13 -->
<g id="edge16" class="edge">
<title>Node11&#45;&gt;Node13</title>
<path fill="none" stroke="#191970" d="M385.3122,-112.2455C402.3473,-103.4125 427.6575,-90.2887 446.9681,-80.2758"/>
<polygon fill="#191970" stroke="#191970" points="448.637,-83.353 455.9034,-75.6427 445.4147,-77.1388 448.637,-83.353"/>
</g>
<!-- Node14&#45;&gt;Node3 -->
<g id="edge18" class="edge">
<title>Node14&#45;&gt;Node3</title>
<path fill="none" stroke="#191970" d="M145.1317,-168.2455C157.8994,-159.7337 176.6438,-147.2375 191.4299,-137.3801"/>
<polygon fill="#191970" stroke="#191970" points="193.6569,-140.1019 200.036,-131.6427 189.774,-134.2775 193.6569,-140.1019"/>
</g>
<!-- Node14&#45;&gt;Node5 -->
<g id="edge19" class="edge">
<title>Node14&#45;&gt;Node5</title>
<path fill="none" stroke="#191970" d="M129.3122,-168.2657C128.1557,-154.2016 128.1846,-128.1216 141.5,-112 143.0788,-110.0885 198.9967,-89.8084 235.1948,-76.8217"/>
<polygon fill="#191970" stroke="#191970" points="236.5863,-80.0411 244.82,-73.3735 234.2255,-73.4512 236.5863,-80.0411"/>
</g>
<!-- Node15&#45;&gt;Node3 -->
<g id="edge25" class="edge">
<title>Node15&#45;&gt;Node3</title>
<path fill="none" stroke="#191970" d="M459.9521,-168.4369C408.6555,-158.7321 329.2421,-143.708 274.7182,-133.3926"/>
<polygon fill="#191970" stroke="#191970" points="275.3158,-129.9437 264.8394,-131.5237 274.0145,-136.8217 275.3158,-129.9437"/>
</g>
<!-- Node15&#45;&gt;Node12 -->
<g id="edge24" class="edge">
<title>Node15&#45;&gt;Node12</title>
<path fill="none" stroke="#191970" d="M572.1963,-174.5776C634.3081,-169.6897 723.9326,-158.1984 745.5,-132 799.7027,-66.1588 796.7793,-132.3472 624.5,-76 623.4452,-75.655 622.3701,-75.2974 621.2855,-74.9318"/>
<polygon fill="#191970" stroke="#191970" points="622.1564,-71.529 611.5616,-71.547 619.8551,-78.14 622.1564,-71.529"/>
</g>
<!-- Node16 -->
<g id="node17" class="node">
<title>Node16</title>
<polygon fill="#ffffff" stroke="#bfbfbf" points="454.5,-112.5 454.5,-131.5 500.5,-131.5 500.5,-112.5 454.5,-112.5"/>
<text text-anchor="middle" x="477.5" y="-119.5" font-family="Helvetica,sans-Serif" font-size="10.00" fill="#000000">stdio.h</text>
</g>
<!-- Node15&#45;&gt;Node16 -->
<g id="edge22" class="edge">
<title>Node15&#45;&gt;Node16</title>
<path fill="none" stroke="#191970" d="M504.7518,-168.2455C500.2565,-160.617 493.8752,-149.7881 488.4175,-140.5267"/>
<polygon fill="#191970" stroke="#191970" points="491.2747,-138.4811 483.1823,-131.6427 485.2439,-142.035 491.2747,-138.4811"/>
</g>
<!-- Node17 -->
<g id="node18" class="node">
<title>Node17</title>
<polygon fill="#ffffff" stroke="#bfbfbf" points="518.5,-112.5 518.5,-131.5 570.5,-131.5 570.5,-112.5 518.5,-112.5"/>
<text text-anchor="middle" x="544.5" y="-119.5" font-family="Helvetica,sans-Serif" font-size="10.00" fill="#000000">sstream</text>
</g>
<!-- Node15&#45;&gt;Node17 -->
<g id="edge23" class="edge">
<title>Node15&#45;&gt;Node17</title>
<path fill="none" stroke="#191970" d="M516.4223,-168.2455C521.1027,-160.5367 527.7673,-149.5598 533.4289,-140.2348"/>
<polygon fill="#191970" stroke="#191970" points="536.4475,-142.007 538.6455,-131.6427 530.4639,-138.3741 536.4475,-142.007"/>
</g>
<!-- Node18 -->
<g id="node19" class="node">
<title>Node18</title>
<g id="a_node19"><a xlink:href="../../d0/db4/debugshare_8h.html" target="_top" xlink:title="Declares the constants used for sharing debug messages. These structures are used to gather debug mes...">
<polygon fill="#ffffff" stroke="#000000" points="589,-112.5 589,-131.5 736,-131.5 736,-112.5 589,-112.5"/>
<text text-anchor="middle" x="662.5" y="-119.5" font-family="Helvetica,sans-Serif" font-size="10.00" fill="#000000">ajabase/system/debugshare.h</text>
</a>
</g>
</g>
<!-- Node15&#45;&gt;Node18 -->
<g id="edge26" class="edge">
<title>Node15&#45;&gt;Node18</title>
<path fill="none" stroke="#191970" d="M536.6297,-168.3733C561.5768,-159.1822 599.3592,-145.2624 627.0206,-135.0713"/>
<polygon fill="#191970" stroke="#191970" points="628.5378,-138.2424 636.7112,-131.5011 626.1178,-131.674 628.5378,-138.2424"/>
</g>
<!-- Node18&#45;&gt;Node4 -->
<g id="edge27" class="edge">
<title>Node18&#45;&gt;Node4</title>
<path fill="none" stroke="#191970" d="M612.2937,-112.4369C561.4493,-102.7522 482.794,-87.7703 428.6487,-77.4569"/>
<polygon fill="#191970" stroke="#191970" points="428.9776,-73.9567 418.4993,-75.5237 427.6677,-80.8331 428.9776,-73.9567"/>
</g>
<!-- Node18&#45;&gt;Node5 -->
<g id="edge30" class="edge">
<title>Node18&#45;&gt;Node5</title>
<path fill="none" stroke="#191970" d="M588.7168,-112.9364C494.2854,-101.313 338.5798,-82.0605 295.896,-75.2365"/>
<polygon fill="#191970" stroke="#191970" points="296.4718,-71.7838 286.0053,-73.4277 295.2125,-78.6696 296.4718,-71.7838"/>
</g>
<!-- Node18&#45;&gt;Node7 -->
<g id="edge31" class="edge">
<title>Node18&#45;&gt;Node7</title>
<path fill="none" stroke="#191970" d="M641.0117,-112.3733C620.856,-103.3435 590.512,-89.7494 567.882,-79.6111"/>
<polygon fill="#191970" stroke="#191970" points="569.2649,-76.3955 558.7079,-75.5011 566.4029,-82.7838 569.2649,-76.3955"/>
</g>
<!-- Node19 -->
<g id="node20" class="node">
<title>Node19</title>
<polygon fill="#ffffff" stroke="#bfbfbf" points="633.5,-56.5 633.5,-75.5 685.5,-75.5 685.5,-56.5 633.5,-56.5"/>
<text text-anchor="middle" x="659.5" y="-63.5" font-family="Helvetica,sans-Serif" font-size="10.00" fill="#000000">stddef.h</text>
</g>
<!-- Node18&#45;&gt;Node19 -->
<g id="edge28" class="edge">
<title>Node18&#45;&gt;Node19</title>
<path fill="none" stroke="#191970" d="M661.9774,-112.2455C661.586,-104.9382 661.0372,-94.6944 660.5556,-85.7046"/>
<polygon fill="#191970" stroke="#191970" points="664.0466,-85.4411 660.0166,-75.6427 657.0566,-85.8156 664.0466,-85.4411"/>
</g>
<!-- Node20 -->
<g id="node21" class="node">
<title>Node20</title>
<polygon fill="#ffffff" stroke="#bfbfbf" points="704,-56.5 704,-75.5 753,-75.5 753,-56.5 704,-56.5"/>
<text text-anchor="middle" x="728.5" y="-63.5" font-family="Helvetica,sans-Serif" font-size="10.00" fill="#000000">stdint.h</text>
</g>
<!-- Node18&#45;&gt;Node20 -->
<g id="edge29" class="edge">
<title>Node18&#45;&gt;Node20</title>
<path fill="none" stroke="#191970" d="M673.9963,-112.2455C683.7442,-103.9746 697.9259,-91.9416 709.3798,-82.2232"/>
<polygon fill="#191970" stroke="#191970" points="711.7747,-84.7813 717.1354,-75.6427 707.2459,-79.4437 711.7747,-84.7813"/>
</g>
</g>
</svg>
