<?xml version="1.0" encoding="UTF-8" standalone="no"?>
<!DOCTYPE svg PUBLIC "-//W3C//DTD SVG 1.1//EN"
 "http://www.w3.org/Graphics/SVG/1.1/DTD/svg11.dtd">
<!-- Generated by graphviz version 2.43.0 (0)
 -->
<!-- Title: /home/tcbuilder/buildAgent/work/df8e8cce5bebfd58/libajantv2/ajabase/common/buffer.cpp Pages: 1 -->
<svg width="696pt" height="218pt"
 viewBox="0.00 0.00 696.00 218.00" xmlns="http://www.w3.org/2000/svg" xmlns:xlink="http://www.w3.org/1999/xlink">
<g id="graph0" class="graph" transform="scale(1 1) rotate(0) translate(4 214)">
<title>/home/tcbuilder/buildAgent/work/df8e8cce5bebfd58/libajantv2/ajabase/common/buffer.cpp</title>
<polygon fill="white" stroke="transparent" points="-4,4 -4,-214 692,-214 692,4 -4,4"/>
<!-- Node1 -->
<g id="node1" class="node">
<title>Node1</title>
<g id="a_node1"><a xlink:title="Implementation of AJABuffer class.">
<polygon fill="#bfbfbf" stroke="black" points="290,-168.5 290,-209.5 478,-209.5 478,-168.5 290,-168.5"/>
<text text-anchor="start" x="298" y="-197.5" font-family="Helvetica,sans-Serif" font-size="10.00">/home/tcbuilder/buildAgent</text>
<text text-anchor="start" x="298" y="-186.5" font-family="Helvetica,sans-Serif" font-size="10.00">/work/df8e8cce5bebfd58/libajantv2</text>
<text text-anchor="middle" x="384" y="-175.5" font-family="Helvetica,sans-Serif" font-size="10.00">/ajabase/common/buffer.cpp</text>
</a>
</g>
</g>
<!-- Node2 -->
<g id="node2" class="node">
<title>Node2</title>
<g id="a_node2"><a xlink:href="../../d5/d08/buffer_8h.html" target="_top" xlink:title="Implementation of AJABuffer class.">
<polygon fill="white" stroke="black" points="160.5,-112.5 160.5,-131.5 213.5,-131.5 213.5,-112.5 160.5,-112.5"/>
<text text-anchor="middle" x="187" y="-119.5" font-family="Helvetica,sans-Serif" font-size="10.00">buffer.h</text>
</a>
</g>
</g>
<!-- Node1&#45;&gt;Node2 -->
<g id="edge1" class="edge">
<title>Node1&#45;&gt;Node2</title>
<path fill="none" stroke="midnightblue" d="M324.89,-168.5C291.54,-157.49 250.97,-144.11 222.5,-134.71"/>
<polygon fill="midnightblue" stroke="midnightblue" points="223.56,-131.38 212.96,-131.57 221.36,-138.02 223.56,-131.38"/>
</g>
<!-- Node10 -->
<g id="node10" class="node">
<title>Node10</title>
<g id="a_node10"><a xlink:href="../../dc/d18/memory_8h.html" target="_top" xlink:title="Declares the AJAMemory class.">
<polygon fill="white" stroke="black" points="232,-112.5 232,-131.5 378,-131.5 378,-112.5 232,-112.5"/>
<text text-anchor="middle" x="305" y="-119.5" font-family="Helvetica,sans-Serif" font-size="10.00">ajabase/system/memory.h</text>
</a>
</g>
</g>
<!-- Node1&#45;&gt;Node10 -->
<g id="edge9" class="edge">
<title>Node1&#45;&gt;Node10</title>
<path fill="none" stroke="midnightblue" d="M360.3,-168.5C348.42,-158.72 334.26,-147.07 323.24,-138.01"/>
<polygon fill="midnightblue" stroke="midnightblue" points="325.46,-135.3 315.52,-131.65 321.01,-140.71 325.46,-135.3"/>
</g>
<!-- Node11 -->
<g id="node11" class="node">
<title>Node11</title>
<g id="a_node11"><a xlink:href="../../db/d16/debug_8h.html" target="_top" xlink:title="Declares the AJADebug class.">
<polygon fill="white" stroke="black" points="396,-112.5 396,-131.5 532,-131.5 532,-112.5 396,-112.5"/>
<text text-anchor="middle" x="464" y="-119.5" font-family="Helvetica,sans-Serif" font-size="10.00">ajabase/system/debug.h</text>
</a>
</g>
</g>
<!-- Node1&#45;&gt;Node11 -->
<g id="edge11" class="edge">
<title>Node1&#45;&gt;Node11</title>
<path fill="none" stroke="midnightblue" d="M408,-168.5C420.03,-158.72 434.37,-147.07 445.53,-138.01"/>
<polygon fill="midnightblue" stroke="midnightblue" points="447.8,-140.67 453.35,-131.65 443.38,-135.24 447.8,-140.67"/>
</g>
<!-- Node18 -->
<g id="node18" class="node">
<title>Node18</title>
<g id="a_node18"><a xlink:title=" ">
<polygon fill="white" stroke="#bfbfbf" points="550.5,-112.5 550.5,-131.5 603.5,-131.5 603.5,-112.5 550.5,-112.5"/>
<text text-anchor="middle" x="577" y="-119.5" font-family="Helvetica,sans-Serif" font-size="10.00">string.h</text>
</a>
</g>
</g>
<!-- Node1&#45;&gt;Node18 -->
<g id="edge22" class="edge">
<title>Node1&#45;&gt;Node18</title>
<path fill="none" stroke="midnightblue" d="M441.91,-168.5C474.44,-157.54 513.98,-144.22 541.86,-134.84"/>
<polygon fill="midnightblue" stroke="midnightblue" points="543.2,-138.08 551.56,-131.57 540.97,-131.44 543.2,-138.08"/>
</g>
<!-- Node3 -->
<g id="node3" class="node">
<title>Node3</title>
<g id="a_node3"><a xlink:href="../../d4/d79/public_8h.html" target="_top" xlink:title="Master header for the ajabase library.">
<polygon fill="white" stroke="black" points="258.5,-56.5 258.5,-75.5 313.5,-75.5 313.5,-56.5 258.5,-56.5"/>
<text text-anchor="middle" x="286" y="-63.5" font-family="Helvetica,sans-Serif" font-size="10.00">public.h</text>
</a>
</g>
</g>
<!-- Node2&#45;&gt;Node3 -->
<g id="edge2" class="edge">
<title>Node2&#45;&gt;Node3</title>
<path fill="none" stroke="midnightblue" d="M202.91,-112.32C218.64,-103.74 242.94,-90.49 261.21,-80.52"/>
<polygon fill="midnightblue" stroke="midnightblue" points="263.03,-83.52 270.13,-75.65 259.68,-77.37 263.03,-83.52"/>
</g>
<!-- Node4 -->
<g id="node4" class="node">
<title>Node4</title>
<g id="a_node4"><a xlink:href="../../db/db5/export_8h.html" target="_top" xlink:title="Declares system&#45;dependent import/export macros and libraries.">
<polygon fill="white" stroke="black" points="392,-0.5 392,-19.5 536,-19.5 536,-0.5 392,-0.5"/>
<text text-anchor="middle" x="464" y="-7.5" font-family="Helvetica,sans-Serif" font-size="10.00">ajabase/common/export.h</text>
</a>
</g>
</g>
<!-- Node3&#45;&gt;Node4 -->
<g id="edge3" class="edge">
<title>Node3&#45;&gt;Node4</title>
<path fill="none" stroke="midnightblue" d="M313.81,-56.56C343.94,-47.42 392.2,-32.78 425.86,-22.57"/>
<polygon fill="midnightblue" stroke="midnightblue" points="427.24,-25.81 435.8,-19.56 425.21,-19.11 427.24,-25.81"/>
</g>
<!-- Node5 -->
<g id="node5" class="node">
<title>Node5</title>
<g id="a_node5"><a xlink:title=" ">
<polygon fill="white" stroke="#bfbfbf" points="264,-0.5 264,-19.5 308,-19.5 308,-0.5 264,-0.5"/>
<text text-anchor="middle" x="286" y="-7.5" font-family="Helvetica,sans-Serif" font-size="10.00">string</text>
</a>
</g>
</g>
<!-- Node3&#45;&gt;Node5 -->
<g id="edge4" class="edge">
<title>Node3&#45;&gt;Node5</title>
<path fill="none" stroke="midnightblue" d="M286,-56.08C286,-49.01 286,-38.86 286,-29.99"/>
<polygon fill="midnightblue" stroke="midnightblue" points="289.5,-29.75 286,-19.75 282.5,-29.75 289.5,-29.75"/>
</g>
<!-- Node6 -->
<g id="node6" class="node">
<title>Node6</title>
<g id="a_node6"><a xlink:title=" ">
<polygon fill="white" stroke="#bfbfbf" points="214,-0.5 214,-19.5 246,-19.5 246,-0.5 214,-0.5"/>
<text text-anchor="middle" x="230" y="-7.5" font-family="Helvetica,sans-Serif" font-size="10.00">list</text>
</a>
</g>
</g>
<!-- Node3&#45;&gt;Node6 -->
<g id="edge5" class="edge">
<title>Node3&#45;&gt;Node6</title>
<path fill="none" stroke="midnightblue" d="M277,-56.32C268.81,-48.42 256.49,-36.55 246.53,-26.94"/>
<polygon fill="midnightblue" stroke="midnightblue" points="248.79,-24.26 239.16,-19.83 243.93,-29.29 248.79,-24.26"/>
</g>
<!-- Node7 -->
<g id="node7" class="node">
<title>Node7</title>
<g id="a_node7"><a xlink:title=" ">
<polygon fill="white" stroke="#bfbfbf" points="326.5,-0.5 326.5,-19.5 373.5,-19.5 373.5,-0.5 326.5,-0.5"/>
<text text-anchor="middle" x="350" y="-7.5" font-family="Helvetica,sans-Serif" font-size="10.00">vector</text>
</a>
</g>
</g>
<!-- Node3&#45;&gt;Node7 -->
<g id="edge6" class="edge">
<title>Node3&#45;&gt;Node7</title>
<path fill="none" stroke="midnightblue" d="M296.28,-56.32C305.84,-48.26 320.28,-36.08 331.78,-26.37"/>
<polygon fill="midnightblue" stroke="midnightblue" points="334.14,-28.96 339.53,-19.83 329.63,-23.61 334.14,-28.96"/>
</g>
<!-- Node8 -->
<g id="node8" class="node">
<title>Node8</title>
<g id="a_node8"><a xlink:title=" ">
<polygon fill="white" stroke="#bfbfbf" points="0,-0.5 0,-19.5 38,-19.5 38,-0.5 0,-0.5"/>
<text text-anchor="middle" x="19" y="-7.5" font-family="Helvetica,sans-Serif" font-size="10.00">map</text>
</a>
</g>
</g>
<!-- Node3&#45;&gt;Node8 -->
<g id="edge7" class="edge">
<title>Node3&#45;&gt;Node8</title>
<path fill="none" stroke="midnightblue" d="M258.15,-60.91C215.07,-54.35 129.53,-40.32 48.1,-20.02"/>
<polygon fill="midnightblue" stroke="midnightblue" points="48.74,-16.57 38.19,-17.52 47.02,-23.36 48.74,-16.57"/>
</g>
<!-- Node9 -->
<g id="node9" class="node">
<title>Node9</title>
<g id="a_node9"><a xlink:href="../../d9/d49/types_8h.html" target="_top" xlink:title="Declares common types used in the ajabase library.">
<polygon fill="white" stroke="black" points="56,-0.5 56,-19.5 196,-19.5 196,-0.5 56,-0.5"/>
<text text-anchor="middle" x="126" y="-7.5" font-family="Helvetica,sans-Serif" font-size="10.00">ajabase/common/types.h</text>
</a>
</g>
</g>
<!-- Node3&#45;&gt;Node9 -->
<g id="edge8" class="edge">
<title>Node3&#45;&gt;Node9</title>
<path fill="none" stroke="midnightblue" d="M260.65,-56.44C233.73,-47.36 191,-32.94 160.91,-22.78"/>
<polygon fill="midnightblue" stroke="midnightblue" points="161.83,-19.4 151.23,-19.52 159.59,-26.03 161.83,-19.4"/>
</g>
<!-- Node10&#45;&gt;Node3 -->
<g id="edge10" class="edge">
<title>Node10&#45;&gt;Node3</title>
<path fill="none" stroke="midnightblue" d="M301.86,-112.08C299.32,-104.85 295.64,-94.41 292.47,-85.4"/>
<polygon fill="midnightblue" stroke="midnightblue" points="295.7,-84.02 289.08,-75.75 289.1,-86.35 295.7,-84.02"/>
</g>
<!-- Node11&#45;&gt;Node3 -->
<g id="edge15" class="edge">
<title>Node11&#45;&gt;Node3</title>
<path fill="none" stroke="midnightblue" d="M435.8,-112.44C405.5,-103.25 357.21,-88.6 323.68,-78.43"/>
<polygon fill="midnightblue" stroke="midnightblue" points="324.37,-74.98 313.78,-75.43 322.33,-81.68 324.37,-74.98"/>
</g>
<!-- Node12 -->
<g id="node12" class="node">
<title>Node12</title>
<g id="a_node12"><a xlink:title=" ">
<polygon fill="white" stroke="#bfbfbf" points="564,-56.5 564,-75.5 614,-75.5 614,-56.5 564,-56.5"/>
<text text-anchor="middle" x="589" y="-63.5" font-family="Helvetica,sans-Serif" font-size="10.00">stdio.h</text>
</a>
</g>
</g>
<!-- Node11&#45;&gt;Node12 -->
<g id="edge12" class="edge">
<title>Node11&#45;&gt;Node12</title>
<path fill="none" stroke="midnightblue" d="M483.81,-112.44C504.29,-103.6 536.48,-89.69 559.86,-79.59"/>
<polygon fill="midnightblue" stroke="midnightblue" points="561.49,-82.7 569.29,-75.52 558.72,-76.27 561.49,-82.7"/>
</g>
<!-- Node13 -->
<g id="node13" class="node">
<title>Node13</title>
<g id="a_node13"><a xlink:title=" ">
<polygon fill="white" stroke="#bfbfbf" points="632,-56.5 632,-75.5 688,-75.5 688,-56.5 632,-56.5"/>
<text text-anchor="middle" x="660" y="-63.5" font-family="Helvetica,sans-Serif" font-size="10.00">sstream</text>
</a>
</g>
</g>
<!-- Node11&#45;&gt;Node13 -->
<g id="edge13" class="edge">
<title>Node11&#45;&gt;Node13</title>
<path fill="none" stroke="midnightblue" d="M495.06,-112.44C529.49,-102.96 585.05,-87.65 622.04,-77.46"/>
<polygon fill="midnightblue" stroke="midnightblue" points="623.24,-80.76 631.95,-74.73 621.38,-74.01 623.24,-80.76"/>
</g>
<!-- Node14 -->
<g id="node14" class="node">
<title>Node14</title>
<g id="a_node14"><a xlink:title=" ">
<polygon fill="white" stroke="#bfbfbf" points="332,-56.5 332,-75.5 364,-75.5 364,-56.5 332,-56.5"/>
<text text-anchor="middle" x="348" y="-63.5" font-family="Helvetica,sans-Serif" font-size="10.00">set</text>
</a>
</g>
</g>
<!-- Node11&#45;&gt;Node14 -->
<g id="edge14" class="edge">
<title>Node11&#45;&gt;Node14</title>
<path fill="none" stroke="midnightblue" d="M445.62,-112.44C426.12,-103.37 395.17,-88.96 373.36,-78.8"/>
<polygon fill="midnightblue" stroke="midnightblue" points="374.6,-75.52 364.05,-74.47 371.64,-81.87 374.6,-75.52"/>
</g>
<!-- Node15 -->
<g id="node15" class="node">
<title>Node15</title>
<g id="a_node15"><a xlink:href="../../d0/db4/debugshare_8h.html" target="_top" xlink:title="Declares the constants used for sharing debug messages. These structures are used to gather debug mes...">
<polygon fill="white" stroke="black" points="382.5,-56.5 382.5,-75.5 545.5,-75.5 545.5,-56.5 382.5,-56.5"/>
<text text-anchor="middle" x="464" y="-63.5" font-family="Helvetica,sans-Serif" font-size="10.00">ajabase/system/debugshare.h</text>
</a>
</g>
</g>
<!-- Node11&#45;&gt;Node15 -->
<g id="edge16" class="edge">
<title>Node11&#45;&gt;Node15</title>
<path fill="none" stroke="midnightblue" d="M464,-112.08C464,-105.01 464,-94.86 464,-85.99"/>
<polygon fill="midnightblue" stroke="midnightblue" points="467.5,-85.75 464,-75.75 460.5,-85.75 467.5,-85.75"/>
</g>
<!-- Node15&#45;&gt;Node4 -->
<g id="edge17" class="edge">
<title>Node15&#45;&gt;Node4</title>
<path fill="none" stroke="midnightblue" d="M464,-56.08C464,-49.01 464,-38.86 464,-29.99"/>
<polygon fill="midnightblue" stroke="midnightblue" points="467.5,-29.75 464,-19.75 460.5,-29.75 467.5,-29.75"/>
</g>
<!-- Node15&#45;&gt;Node5 -->
<g id="edge20" class="edge">
<title>Node15&#45;&gt;Node5</title>
<path fill="none" stroke="midnightblue" d="M435.8,-56.44C403.72,-46.71 351.48,-30.86 317.93,-20.69"/>
<polygon fill="midnightblue" stroke="midnightblue" points="318.75,-17.28 308.17,-17.73 316.72,-23.98 318.75,-17.28"/>
</g>
<!-- Node15&#45;&gt;Node7 -->
<g id="edge21" class="edge">
<title>Node15&#45;&gt;Node7</title>
<path fill="none" stroke="midnightblue" d="M445.94,-56.44C427.43,-47.68 398.42,-33.94 377.14,-23.86"/>
<polygon fill="midnightblue" stroke="midnightblue" points="378.51,-20.63 367.98,-19.52 375.52,-26.96 378.51,-20.63"/>
</g>
<!-- Node16 -->
<g id="node16" class="node">
<title>Node16</title>
<g id="a_node16"><a xlink:title=" ">
<polygon fill="white" stroke="#bfbfbf" points="554,-0.5 554,-19.5 610,-19.5 610,-0.5 554,-0.5"/>
<text text-anchor="middle" x="582" y="-7.5" font-family="Helvetica,sans-Serif" font-size="10.00">stddef.h</text>
</a>
</g>
</g>
<!-- Node15&#45;&gt;Node16 -->
<g id="edge18" class="edge">
<title>Node15&#45;&gt;Node16</title>
<path fill="none" stroke="midnightblue" d="M482.7,-56.44C501.94,-47.64 532.15,-33.81 554.2,-23.72"/>
<polygon fill="midnightblue" stroke="midnightblue" points="555.75,-26.86 563.39,-19.52 552.84,-20.5 555.75,-26.86"/>
</g>
<!-- Node17 -->
<g id="node17" class="node">
<title>Node17</title>
<g id="a_node17"><a xlink:title=" ">
<polygon fill="white" stroke="#bfbfbf" points="628.5,-0.5 628.5,-19.5 681.5,-19.5 681.5,-0.5 628.5,-0.5"/>
<text text-anchor="middle" x="655" y="-7.5" font-family="Helvetica,sans-Serif" font-size="10.00">stdint.h</text>
</a>
</g>
</g>
<!-- Node15&#45;&gt;Node17 -->
<g id="edge19" class="edge">
<title>Node15&#45;&gt;Node17</title>
<path fill="none" stroke="midnightblue" d="M494.26,-56.44C528.01,-46.9 582.58,-31.47 618.62,-21.28"/>
<polygon fill="midnightblue" stroke="midnightblue" points="619.6,-24.65 628.27,-18.56 617.69,-17.91 619.6,-24.65"/>
</g>
</g>
</svg>
