<?xml version="1.0" encoding="UTF-8" standalone="no"?>
<!DOCTYPE svg PUBLIC "-//W3C//DTD SVG 1.1//EN"
 "http://www.w3.org/Graphics/SVG/1.1/DTD/svg11.dtd">
<!-- Generated by graphviz version 2.43.0 (0)
 -->
<!-- Title: /home/tcbuilder/buildAgent/work/df8e8cce5bebfd58/libajantv2/ajabase/system/mac/pthreadsextra.cpp Pages: 1 -->
<!--zoomable 285 -->
<svg id="main" version="1.1" xmlns="http://www.w3.org/2000/svg" xmlns:xlink="http://www.w3.org/1999/xlink" xml:space="preserve" onload="init(evt)">
<style type="text/css"><![CDATA[
.edge:hover path { stroke: red; }
.edge:hover polygon { stroke: red; fill: red; }
]]></style>
<script type="text/javascript"><![CDATA[
var edges = document.getElementsByTagName('g');
if (edges && edges.length) {
  for (var i=0;i<edges.length;i++) {
    if (edges[i].id.substr(0,4)=='edge') {
      edges[i].setAttribute('class','edge');
    }
  }
}
]]></script>
        <defs>
                <circle id="rim" cx="0" cy="0" r="7"/>
                <circle id="rim2" cx="0" cy="0" r="3.5"/>
                <g id="zoomPlus">
                        <use xlink:href="#rim" fill="#404040">
                                <set attributeName="fill" to="#808080" begin="zoomplus.mouseover" end="zoomplus.mouseout"/>
                        </use>
                        <path d="M-4,0h8M0,-4v8" fill="none" stroke="white" stroke-width="1.5" pointer-events="none"/>
                </g>
                <g id="zoomMin">
                        <use xlink:href="#rim" fill="#404040">
                                <set attributeName="fill" to="#808080" begin="zoomminus.mouseover" end="zoomminus.mouseout"/>
                        </use>
                        <path d="M-4,0h8" fill="none" stroke="white" stroke-width="1.5" pointer-events="none"/>
                </g>
                <g id="dirArrow">
                        <path fill="none" stroke="white" stroke-width="1.5" d="M0,-3.0v7 M-2.5,-0.5L0,-3.0L2.5,-0.5"/>
                </g>
               <g id="resetDef">
                       <use xlink:href="#rim2" fill="#404040">
                               <set attributeName="fill" to="#808080" begin="reset.mouseover" end="reset.mouseout"/>
                       </use>
               </g>
        </defs>

<script type="text/javascript">
var viewWidth = 671;
var viewHeight = 285;
var sectionId = 'dynsection-0';
</script>
<script xlink:href="../../svgpan.js"/>
<svg id="graph" class="graph">
<g id="viewport">
<title>/home/tcbuilder/buildAgent/work/df8e8cce5bebfd58/libajantv2/ajabase/system/mac/pthreadsextra.cpp</title>
<polygon fill="white" stroke="transparent" points="-4,4 -4,-281 666.5,-281 666.5,4 -4,4"/>
<!-- Node1 -->
<g id="node1" class="node">
<title>Node1</title>
<g id="a_node1"><a xlink:title="Declares extra symbols to make the Mac threads implementation look more like Unix.">
<polygon fill="#bfbfbf" stroke="black" points="423.5,-235.5 423.5,-276.5 635.5,-276.5 635.5,-235.5 423.5,-235.5"/>
<text text-anchor="start" x="431.5" y="-264.5" font-family="Helvetica,sans-Serif" font-size="10.00">/home/tcbuilder/buildAgent</text>
<text text-anchor="start" x="431.5" y="-253.5" font-family="Helvetica,sans-Serif" font-size="10.00">/work/df8e8cce5bebfd58/libajantv2</text>
<text text-anchor="middle" x="529.5" y="-242.5" font-family="Helvetica,sans-Serif" font-size="10.00">/ajabase/system/mac/pthreadsextra.cpp</text>
</a>
</g>
</g>
<!-- Node2 -->
<g id="node2" class="node">
<title>Node2</title>
<g id="a_node2"><a xlink:href="../../d0/d5f/pthreadsextra_8h.html" target="_top" xlink:title="Declares extra symbols to make the Mac threads implementation look more like Unix.">
<polygon fill="white" stroke="black" points="482.5,-174 482.5,-193 576.5,-193 576.5,-174 482.5,-174"/>
<text text-anchor="middle" x="529.5" y="-181" font-family="Helvetica,sans-Serif" font-size="10.00">pthreadsextra.h</text>
</a>
</g>
</g>
<!-- Node1&#45;&gt;Node2 -->
<g id="edge1" class="edge">
<title>Node1&#45;&gt;Node2</title>
<path fill="none" stroke="midnightblue" d="M529.5,-235.36C529.5,-225.3 529.5,-213.1 529.5,-203.18"/>
<polygon fill="midnightblue" stroke="midnightblue" points="533,-203.17 529.5,-193.17 526,-203.17 533,-203.17"/>
</g>
<!-- Node5 -->
<g id="node5" class="node">
<title>Node5</title>
<g id="a_node5"><a xlink:title=" ">
<polygon fill="white" stroke="#bfbfbf" points="594.5,-174 594.5,-193 662.5,-193 662.5,-174 594.5,-174"/>
<text text-anchor="middle" x="628.5" y="-181" font-family="Helvetica,sans-Serif" font-size="10.00">sys/time.h</text>
</a>
</g>
</g>
<!-- Node1&#45;&gt;Node5 -->
<g id="edge4" class="edge">
<title>Node1&#45;&gt;Node5</title>
<path fill="none" stroke="midnightblue" d="M557.08,-235.36C573.19,-223.89 593.18,-209.65 607.91,-199.16"/>
<polygon fill="midnightblue" stroke="midnightblue" points="610.2,-201.83 616.32,-193.17 606.14,-196.12 610.2,-201.83"/>
</g>
<!-- Node6 -->
<g id="node6" class="node">
<title>Node6</title>
<g id="a_node6"><a xlink:href="../../d6/dc5/mac_2threadimpl_8h.html" target="_top" xlink:title="Declares the AJAThreadImpl class.">
<polygon fill="white" stroke="black" points="333.5,-168.5 333.5,-198.5 451.5,-198.5 451.5,-168.5 333.5,-168.5"/>
<text text-anchor="start" x="341.5" y="-186.5" font-family="Helvetica,sans-Serif" font-size="10.00">ajabase/system/mac</text>
<text text-anchor="middle" x="392.5" y="-175.5" font-family="Helvetica,sans-Serif" font-size="10.00">/threadimpl.h</text>
</a>
</g>
</g>
<!-- Node1&#45;&gt;Node6 -->
<g id="edge5" class="edge">
<title>Node1&#45;&gt;Node6</title>
<path fill="none" stroke="midnightblue" d="M491.34,-235.36C471.88,-225.35 448.33,-213.23 429.09,-203.33"/>
<polygon fill="midnightblue" stroke="midnightblue" points="430.53,-200.13 420.04,-198.67 427.33,-206.36 430.53,-200.13"/>
</g>
<!-- Node3 -->
<g id="node3" class="node">
<title>Node3</title>
<g id="a_node3"><a xlink:title=" ">
<polygon fill="white" stroke="#bfbfbf" points="498,-112.5 498,-131.5 561,-131.5 561,-112.5 498,-112.5"/>
<text text-anchor="middle" x="529.5" y="-119.5" font-family="Helvetica,sans-Serif" font-size="10.00">pthread.h</text>
</a>
</g>
</g>
<!-- Node2&#45;&gt;Node3 -->
<g id="edge2" class="edge">
<title>Node2&#45;&gt;Node3</title>
<path fill="none" stroke="midnightblue" d="M529.5,-173.98C529.5,-165.58 529.5,-152.48 529.5,-141.66"/>
<polygon fill="midnightblue" stroke="midnightblue" points="533,-141.51 529.5,-131.51 526,-141.51 533,-141.51"/>
</g>
<!-- Node4 -->
<g id="node4" class="node">
<title>Node4</title>
<g id="a_node4"><a xlink:title=" ">
<polygon fill="white" stroke="#bfbfbf" points="579.5,-112.5 579.5,-131.5 651.5,-131.5 651.5,-112.5 579.5,-112.5"/>
<text text-anchor="middle" x="615.5" y="-119.5" font-family="Helvetica,sans-Serif" font-size="10.00">sys/types.h</text>
</a>
</g>
</g>
<!-- Node2&#45;&gt;Node4 -->
<g id="edge3" class="edge">
<title>Node2&#45;&gt;Node4</title>
<path fill="none" stroke="midnightblue" d="M541.82,-173.98C555.62,-164.43 578.2,-148.81 594.73,-137.37"/>
<polygon fill="midnightblue" stroke="midnightblue" points="596.97,-140.08 603.2,-131.51 592.99,-134.32 596.97,-140.08"/>
</g>
<!-- Node6&#45;&gt;Node3 -->
<g id="edge6" class="edge">
<title>Node6&#45;&gt;Node3</title>
<path fill="none" stroke="midnightblue" d="M424.97,-168.4C447.85,-158.46 478.23,-145.26 500.34,-135.66"/>
<polygon fill="midnightblue" stroke="midnightblue" points="501.79,-138.85 509.57,-131.66 499,-132.43 501.79,-138.85"/>
</g>
<!-- Node7 -->
<g id="node7" class="node">
<title>Node7</title>
<g id="a_node7"><a xlink:href="../../dc/db2/system_8h.html" target="_top" xlink:title="System specific functions.">
<polygon fill="white" stroke="black" points="155.5,-112.5 155.5,-131.5 297.5,-131.5 297.5,-112.5 155.5,-112.5"/>
<text text-anchor="middle" x="226.5" y="-119.5" font-family="Helvetica,sans-Serif" font-size="10.00">ajabase/system/system.h</text>
</a>
</g>
</g>
<!-- Node6&#45;&gt;Node7 -->
<g id="edge7" class="edge">
<title>Node6&#45;&gt;Node7</title>
<path fill="none" stroke="midnightblue" d="M353.16,-168.4C324.94,-158.28 287.29,-144.79 260.4,-135.15"/>
<polygon fill="midnightblue" stroke="midnightblue" points="261.25,-131.74 250.65,-131.66 258.89,-138.33 261.25,-131.74"/>
</g>
<!-- Node15 -->
<g id="node15" class="node">
<title>Node15</title>
<g id="a_node15"><a xlink:href="../../dc/d54/common_8h.html" target="_top" xlink:title="Private include file for all ajabase sources.">
<polygon fill="white" stroke="black" points="392,-56.5 392,-75.5 547,-75.5 547,-56.5 392,-56.5"/>
<text text-anchor="middle" x="469.5" y="-63.5" font-family="Helvetica,sans-Serif" font-size="10.00">ajabase/common/common.h</text>
</a>
</g>
</g>
<!-- Node6&#45;&gt;Node15 -->
<g id="edge15" class="edge">
<title>Node6&#45;&gt;Node15</title>
<path fill="none" stroke="midnightblue" d="M414.02,-168.47C426.33,-159.41 441.14,-146.62 450.5,-132 459.51,-117.92 464.37,-99.43 466.92,-85.77"/>
<polygon fill="midnightblue" stroke="midnightblue" points="470.41,-86.07 468.55,-75.64 463.5,-84.95 470.41,-86.07"/>
</g>
<!-- Node18 -->
<g id="node18" class="node">
<title>Node18</title>
<g id="a_node18"><a xlink:href="../../db/dd5/thread_8h.html" target="_top" xlink:title="Declares the AJAThread class.">
<polygon fill="white" stroke="black" points="0,-112.5 0,-131.5 137,-131.5 137,-112.5 0,-112.5"/>
<text text-anchor="middle" x="68.5" y="-119.5" font-family="Helvetica,sans-Serif" font-size="10.00">ajabase/system/thread.h</text>
</a>
</g>
</g>
<!-- Node6&#45;&gt;Node18 -->
<g id="edge21" class="edge">
<title>Node6&#45;&gt;Node18</title>
<path fill="none" stroke="midnightblue" d="M333.45,-171.66C274.22,-160.78 183.63,-144.14 125.23,-133.42"/>
<polygon fill="midnightblue" stroke="midnightblue" points="125.55,-129.92 115.08,-131.55 124.28,-136.8 125.55,-129.92"/>
</g>
<!-- Node19 -->
<g id="node19" class="node">
<title>Node19</title>
<g id="a_node19"><a xlink:href="../../dd/d42/lock_8h.html" target="_top" xlink:title="Declares the AJALock class.">
<polygon fill="white" stroke="black" points="315.5,-112.5 315.5,-131.5 441.5,-131.5 441.5,-112.5 315.5,-112.5"/>
<text text-anchor="middle" x="378.5" y="-119.5" font-family="Helvetica,sans-Serif" font-size="10.00">ajabase/system/lock.h</text>
</a>
</g>
</g>
<!-- Node6&#45;&gt;Node19 -->
<g id="edge23" class="edge">
<title>Node6&#45;&gt;Node19</title>
<path fill="none" stroke="midnightblue" d="M389.18,-168.4C387.29,-160.38 384.91,-150.23 382.87,-141.57"/>
<polygon fill="midnightblue" stroke="midnightblue" points="386.23,-140.59 380.54,-131.66 379.42,-142.19 386.23,-140.59"/>
</g>
<!-- Node8 -->
<g id="node8" class="node">
<title>Node8</title>
<g id="a_node8"><a xlink:href="../../d4/d79/public_8h.html" target="_top" xlink:title="Master header for the ajabase library.">
<polygon fill="white" stroke="black" points="156.5,-56.5 156.5,-75.5 298.5,-75.5 298.5,-56.5 156.5,-56.5"/>
<text text-anchor="middle" x="227.5" y="-63.5" font-family="Helvetica,sans-Serif" font-size="10.00">ajabase/common/public.h</text>
</a>
</g>
</g>
<!-- Node7&#45;&gt;Node8 -->
<g id="edge8" class="edge">
<title>Node7&#45;&gt;Node8</title>
<path fill="none" stroke="midnightblue" d="M226.67,-112.08C226.8,-105.01 226.98,-94.86 227.15,-85.99"/>
<polygon fill="midnightblue" stroke="midnightblue" points="230.65,-85.81 227.34,-75.75 223.65,-85.68 230.65,-85.81"/>
</g>
<!-- Node9 -->
<g id="node9" class="node">
<title>Node9</title>
<g id="a_node9"><a xlink:href="../../db/db5/export_8h.html" target="_top" xlink:title="Declares system&#45;dependent import/export macros and libraries.">
<polygon fill="white" stroke="black" points="392.5,-0.5 392.5,-19.5 536.5,-19.5 536.5,-0.5 392.5,-0.5"/>
<text text-anchor="middle" x="464.5" y="-7.5" font-family="Helvetica,sans-Serif" font-size="10.00">ajabase/common/export.h</text>
</a>
</g>
</g>
<!-- Node8&#45;&gt;Node9 -->
<g id="edge9" class="edge">
<title>Node8&#45;&gt;Node9</title>
<path fill="none" stroke="midnightblue" d="M265.05,-56.44C306.31,-47.04 372.64,-31.93 417.37,-21.74"/>
<polygon fill="midnightblue" stroke="midnightblue" points="418.15,-25.15 427.12,-19.52 416.59,-18.33 418.15,-25.15"/>
</g>
<!-- Node10 -->
<g id="node10" class="node">
<title>Node10</title>
<g id="a_node10"><a xlink:title=" ">
<polygon fill="white" stroke="#bfbfbf" points="264.5,-0.5 264.5,-19.5 308.5,-19.5 308.5,-0.5 264.5,-0.5"/>
<text text-anchor="middle" x="286.5" y="-7.5" font-family="Helvetica,sans-Serif" font-size="10.00">string</text>
</a>
</g>
</g>
<!-- Node8&#45;&gt;Node10 -->
<g id="edge10" class="edge">
<title>Node8&#45;&gt;Node10</title>
<path fill="none" stroke="midnightblue" d="M236.98,-56.32C245.7,-48.34 258.84,-36.31 269.4,-26.65"/>
<polygon fill="midnightblue" stroke="midnightblue" points="271.83,-29.17 276.85,-19.83 267.11,-24 271.83,-29.17"/>
</g>
<!-- Node11 -->
<g id="node11" class="node">
<title>Node11</title>
<g id="a_node11"><a xlink:title=" ">
<polygon fill="white" stroke="#bfbfbf" points="158.5,-0.5 158.5,-19.5 190.5,-19.5 190.5,-0.5 158.5,-0.5"/>
<text text-anchor="middle" x="174.5" y="-7.5" font-family="Helvetica,sans-Serif" font-size="10.00">list</text>
</a>
</g>
</g>
<!-- Node8&#45;&gt;Node11 -->
<g id="edge11" class="edge">
<title>Node8&#45;&gt;Node11</title>
<path fill="none" stroke="midnightblue" d="M218.75,-56.08C211.03,-48.22 199.6,-36.57 190.28,-27.08"/>
<polygon fill="midnightblue" stroke="midnightblue" points="192.59,-24.44 183.09,-19.75 187.6,-29.34 192.59,-24.44"/>
</g>
<!-- Node12 -->
<g id="node12" class="node">
<title>Node12</title>
<g id="a_node12"><a xlink:title=" ">
<polygon fill="white" stroke="#bfbfbf" points="327,-0.5 327,-19.5 374,-19.5 374,-0.5 327,-0.5"/>
<text text-anchor="middle" x="350.5" y="-7.5" font-family="Helvetica,sans-Serif" font-size="10.00">vector</text>
</a>
</g>
</g>
<!-- Node8&#45;&gt;Node12 -->
<g id="edge12" class="edge">
<title>Node8&#45;&gt;Node12</title>
<path fill="none" stroke="midnightblue" d="M246.99,-56.44C267.14,-47.6 298.82,-33.69 321.83,-23.59"/>
<polygon fill="midnightblue" stroke="midnightblue" points="323.35,-26.74 331.1,-19.52 320.54,-20.33 323.35,-26.74"/>
</g>
<!-- Node13 -->
<g id="node13" class="node">
<title>Node13</title>
<g id="a_node13"><a xlink:title=" ">
<polygon fill="white" stroke="#bfbfbf" points="208.5,-0.5 208.5,-19.5 246.5,-19.5 246.5,-0.5 208.5,-0.5"/>
<text text-anchor="middle" x="227.5" y="-7.5" font-family="Helvetica,sans-Serif" font-size="10.00">map</text>
</a>
</g>
</g>
<!-- Node8&#45;&gt;Node13 -->
<g id="edge13" class="edge">
<title>Node8&#45;&gt;Node13</title>
<path fill="none" stroke="midnightblue" d="M227.5,-56.08C227.5,-49.01 227.5,-38.86 227.5,-29.99"/>
<polygon fill="midnightblue" stroke="midnightblue" points="231,-29.75 227.5,-19.75 224,-29.75 231,-29.75"/>
</g>
<!-- Node14 -->
<g id="node14" class="node">
<title>Node14</title>
<g id="a_node14"><a xlink:href="../../d9/d49/types_8h.html" target="_top" xlink:title="Declares common types used in the ajabase library.">
<polygon fill="white" stroke="black" points="0.5,-0.5 0.5,-19.5 140.5,-19.5 140.5,-0.5 0.5,-0.5"/>
<text text-anchor="middle" x="70.5" y="-7.5" font-family="Helvetica,sans-Serif" font-size="10.00">ajabase/common/types.h</text>
</a>
</g>
</g>
<!-- Node8&#45;&gt;Node14 -->
<g id="edge14" class="edge">
<title>Node8&#45;&gt;Node14</title>
<path fill="none" stroke="midnightblue" d="M202.62,-56.44C176.21,-47.36 134.28,-32.94 104.76,-22.78"/>
<polygon fill="midnightblue" stroke="midnightblue" points="105.86,-19.46 95.26,-19.52 103.58,-26.08 105.86,-19.46"/>
</g>
<!-- Node15&#45;&gt;Node9 -->
<g id="edge16" class="edge">
<title>Node15&#45;&gt;Node9</title>
<path fill="none" stroke="midnightblue" d="M468.67,-56.08C468.02,-49.01 467.08,-38.86 466.26,-29.99"/>
<polygon fill="midnightblue" stroke="midnightblue" points="469.72,-29.39 465.31,-19.75 462.75,-30.03 469.72,-29.39"/>
</g>
<!-- Node15&#45;&gt;Node10 -->
<g id="edge18" class="edge">
<title>Node15&#45;&gt;Node10</title>
<path fill="none" stroke="midnightblue" d="M440.5,-56.44C407.35,-46.66 353.22,-30.69 318.76,-20.52"/>
<polygon fill="midnightblue" stroke="midnightblue" points="319.32,-17.04 308.74,-17.56 317.34,-23.75 319.32,-17.04"/>
</g>
<!-- Node15&#45;&gt;Node12 -->
<g id="edge19" class="edge">
<title>Node15&#45;&gt;Node12</title>
<path fill="none" stroke="midnightblue" d="M450.64,-56.44C431.23,-47.64 400.77,-33.81 378.54,-23.72"/>
<polygon fill="midnightblue" stroke="midnightblue" points="379.82,-20.46 369.27,-19.52 376.93,-26.84 379.82,-20.46"/>
</g>
<!-- Node16 -->
<g id="node16" class="node">
<title>Node16</title>
<g id="a_node16"><a xlink:title=" ">
<polygon fill="white" stroke="#bfbfbf" points="554.5,-0.5 554.5,-19.5 586.5,-19.5 586.5,-0.5 554.5,-0.5"/>
<text text-anchor="middle" x="570.5" y="-7.5" font-family="Helvetica,sans-Serif" font-size="10.00">set</text>
</a>
</g>
</g>
<!-- Node15&#45;&gt;Node16 -->
<g id="edge17" class="edge">
<title>Node15&#45;&gt;Node16</title>
<path fill="none" stroke="midnightblue" d="M485.73,-56.32C501.85,-47.7 526.8,-34.36 545.46,-24.39"/>
<polygon fill="midnightblue" stroke="midnightblue" points="547.14,-27.46 554.31,-19.65 543.84,-21.28 547.14,-27.46"/>
</g>
<!-- Node17 -->
<g id="node17" class="node">
<title>Node17</title>
<g id="a_node17"><a xlink:title=" ">
<polygon fill="white" stroke="#bfbfbf" points="604.5,-0.5 604.5,-19.5 654.5,-19.5 654.5,-0.5 604.5,-0.5"/>
<text text-anchor="middle" x="629.5" y="-7.5" font-family="Helvetica,sans-Serif" font-size="10.00">cstdint</text>
</a>
</g>
</g>
<!-- Node15&#45;&gt;Node17 -->
<g id="edge20" class="edge">
<title>Node15&#45;&gt;Node17</title>
<path fill="none" stroke="midnightblue" d="M494.85,-56.44C521.77,-47.36 564.5,-32.94 594.59,-22.78"/>
<polygon fill="midnightblue" stroke="midnightblue" points="595.91,-26.03 604.27,-19.52 593.67,-19.4 595.91,-26.03"/>
</g>
<!-- Node18&#45;&gt;Node8 -->
<g id="edge22" class="edge">
<title>Node18&#45;&gt;Node8</title>
<path fill="none" stroke="midnightblue" d="M93.69,-112.44C120.44,-103.36 162.9,-88.94 192.81,-78.78"/>
<polygon fill="midnightblue" stroke="midnightblue" points="194.08,-82.05 202.42,-75.52 191.83,-75.42 194.08,-82.05"/>
</g>
<!-- Node19&#45;&gt;Node8 -->
<g id="edge24" class="edge">
<title>Node19&#45;&gt;Node8</title>
<path fill="none" stroke="midnightblue" d="M354.57,-112.44C329.28,-103.4 289.2,-89.06 260.82,-78.92"/>
<polygon fill="midnightblue" stroke="midnightblue" points="261.91,-75.59 251.31,-75.52 259.55,-82.18 261.91,-75.59"/>
</g>
<!-- Node20 -->
<g id="node20" class="node">
<title>Node20</title>
<g id="a_node20"><a xlink:title=" ">
<polygon fill="white" stroke="#bfbfbf" points="317.5,-56.5 317.5,-75.5 373.5,-75.5 373.5,-56.5 317.5,-56.5"/>
<text text-anchor="middle" x="345.5" y="-63.5" font-family="Helvetica,sans-Serif" font-size="10.00">assert.h</text>
</a>
</g>
</g>
<!-- Node19&#45;&gt;Node20 -->
<g id="edge25" class="edge">
<title>Node19&#45;&gt;Node20</title>
<path fill="none" stroke="midnightblue" d="M373.05,-112.08C368.49,-104.61 361.83,-93.72 356.21,-84.52"/>
<polygon fill="midnightblue" stroke="midnightblue" points="359.05,-82.46 350.85,-75.75 353.08,-86.11 359.05,-82.46"/>
</g>
</g>
</svg>
        <g id="navigator" transform="translate(0 0)" fill="#404254">
                <rect fill="#f2f5e9" fill-opacity="0.5" stroke="#606060" stroke-width=".5" x="0" y="0" width="60" height="60"/>
                <use id="zoomplus" xlink:href="#zoomPlus" x="17" y="9" onmousedown="handleZoom(evt,'in')"/>
                <use id="zoomminus" xlink:href="#zoomMin" x="42" y="9" onmousedown="handleZoom(evt,'out')"/>
                <use id="reset" xlink:href="#resetDef" x="30" y="36" onmousedown="handleReset()"/>
                <g id="arrowUp" xlink:href="#dirArrow" transform="translate(30 24)" onmousedown="handlePan(0,-1)">
                  <use xlink:href="#rim" fill="#404040">
                        <set attributeName="fill" to="#808080" begin="arrowUp.mouseover" end="arrowUp.mouseout"/>
                  </use>
                  <path fill="none" stroke="white" stroke-width="1.5" d="M0,-3.0v7 M-2.5,-0.5L0,-3.0L2.5,-0.5"/>
                </g>
                <g id="arrowRight" xlink:href="#dirArrow" transform="rotate(90) translate(36 -43)" onmousedown="handlePan(1,0)">
                  <use xlink:href="#rim" fill="#404040">
                        <set attributeName="fill" to="#808080" begin="arrowRight.mouseover" end="arrowRight.mouseout"/>
                  </use>
                  <path fill="none" stroke="white" stroke-width="1.5" d="M0,-3.0v7 M-2.5,-0.5L0,-3.0L2.5,-0.5"/>
                </g>
                <g id="arrowDown" xlink:href="#dirArrow" transform="rotate(180) translate(-30 -48)" onmousedown="handlePan(0,1)">
                  <use xlink:href="#rim" fill="#404040">
                        <set attributeName="fill" to="#808080" begin="arrowDown.mouseover" end="arrowDown.mouseout"/>
                  </use>
                  <path fill="none" stroke="white" stroke-width="1.5" d="M0,-3.0v7 M-2.5,-0.5L0,-3.0L2.5,-0.5"/>
                </g>
                <g id="arrowLeft" xlink:href="#dirArrow" transform="rotate(270) translate(-36 17)" onmousedown="handlePan(-1,0)">
                  <use xlink:href="#rim" fill="#404040">
                        <set attributeName="fill" to="#808080" begin="arrowLeft.mouseover" end="arrowLeft.mouseout"/>
                  </use>
                  <path fill="none" stroke="white" stroke-width="1.5" d="M0,-3.0v7 M-2.5,-0.5L0,-3.0L2.5,-0.5"/>
                </g>
        </g>
        <svg viewBox="0 0 15 15" width="100%" height="30px" preserveAspectRatio="xMaxYMin meet">
         <g id="arrow_out" transform="scale(0.3 0.3)">
          <a xlink:href="pthreadsextra_8cpp__incl_org.svg" target="_base">
           <rect id="button" ry="5" rx="5" y="6" x="6" height="38" width="38"
                fill="#f2f5e9" fill-opacity="0.5" stroke="#606060" stroke-width="1.0"/>
           <path id="arrow"
             d="M 11.500037,31.436501 C 11.940474,20.09759 22.043105,11.32322 32.158766,21.979434 L 37.068811,17.246167 C 37.068811,17.246167 37.088388,32 37.088388,32 L 22.160133,31.978069 C 22.160133,31.978069 26.997745,27.140456 26.997745,27.140456 C 18.528582,18.264221 13.291696,25.230495 11.500037,31.436501 z"
             style="fill:#404040;"/>
          </a>
         </g>
        </svg>
</svg>
