<?xml version="1.0" encoding="UTF-8" standalone="no"?>
<!DOCTYPE svg PUBLIC "-//W3C//DTD SVG 1.1//EN"
 "http://www.w3.org/Graphics/SVG/1.1/DTD/svg11.dtd">
<!-- Generated by graphviz version 2.40.1 (0)
 -->
<!-- Title: nlohmann::json_abi_v3_11_3::detail::type_error Pages: 1 -->
<svg width="145pt" height="162pt"
 viewBox="0.00 0.00 145.00 162.00" xmlns="http://www.w3.org/2000/svg" xmlns:xlink="http://www.w3.org/1999/xlink">
<g id="graph0" class="graph" transform="scale(1 1) rotate(0) translate(4 158)">
<title>nlohmann::json_abi_v3_11_3::detail::type_error</title>
<polygon fill="#ffffff" stroke="transparent" points="-4,4 -4,-158 141,-158 141,4 -4,4"/>
<!-- Node3 -->
<g id="node1" class="node">
<title>Node3</title>
<polygon fill="#bfbfbf" stroke="#000000" points="0,-.5 0,-30.5 137,-30.5 137,-.5 0,-.5"/>
<text text-anchor="start" x="8" y="-18.5" font-family="Helvetica,sans-Serif" font-size="10.00" fill="#000000">nlohmann::json_abi</text>
<text text-anchor="middle" x="68.5" y="-7.5" font-family="Helvetica,sans-Serif" font-size="10.00" fill="#000000">_v3_11_3::detail::type_error</text>
</g>
<!-- Node4 -->
<g id="node2" class="node">
<title>Node4</title>
<g id="a_node2"><a xlink:href="../../d0/dbb/classnlohmann_1_1json__abi__v3__11__3_1_1detail_1_1exception.html" target="_top" xlink:title="general exception of the basic_json class ">
<polygon fill="#ffffff" stroke="#000000" points=".5,-67.5 .5,-97.5 136.5,-97.5 136.5,-67.5 .5,-67.5"/>
<text text-anchor="start" x="8.5" y="-85.5" font-family="Helvetica,sans-Serif" font-size="10.00" fill="#000000">nlohmann::json_abi</text>
<text text-anchor="middle" x="68.5" y="-74.5" font-family="Helvetica,sans-Serif" font-size="10.00" fill="#000000">_v3_11_3::detail::exception</text>
</a>
</g>
</g>
<!-- Node4&#45;&gt;Node3 -->
<g id="edge1" class="edge">
<title>Node4&#45;&gt;Node3</title>
<path fill="none" stroke="#191970" d="M68.5,-57.0249C68.5,-48.128 68.5,-38.4287 68.5,-30.6432"/>
<polygon fill="#191970" stroke="#191970" points="65.0001,-57.2966 68.5,-67.2967 72.0001,-57.2967 65.0001,-57.2966"/>
</g>
<!-- Node5 -->
<g id="node3" class="node">
<title>Node5</title>
<polygon fill="#ffffff" stroke="#bfbfbf" points="29.5,-134.5 29.5,-153.5 107.5,-153.5 107.5,-134.5 29.5,-134.5"/>
<text text-anchor="middle" x="68.5" y="-141.5" font-family="Helvetica,sans-Serif" font-size="10.00" fill="#000000">std::exception</text>
</g>
<!-- Node5&#45;&gt;Node4 -->
<g id="edge2" class="edge">
<title>Node5&#45;&gt;Node4</title>
<path fill="none" stroke="#191970" d="M68.5,-124.3693C68.5,-115.681 68.5,-105.6241 68.5,-97.5446"/>
<polygon fill="#191970" stroke="#191970" points="65.0001,-124.3906 68.5,-134.3906 72.0001,-124.3907 65.0001,-124.3906"/>
</g>
</g>
</svg>
