<?xml version="1.0" encoding="UTF-8" standalone="no"?>
<!DOCTYPE svg PUBLIC "-//W3C//DTD SVG 1.1//EN"
 "http://www.w3.org/Graphics/SVG/1.1/DTD/svg11.dtd">
<!-- Generated by graphviz version 2.43.0 (0)
 -->
<!-- Title: /home/tcbuilder/buildAgent/work/df8e8cce5bebfd58/libajantv2/ajabase/system/memory.cpp Pages: 1 -->
<svg width="744pt" height="218pt"
 viewBox="0.00 0.00 744.00 218.00" xmlns="http://www.w3.org/2000/svg" xmlns:xlink="http://www.w3.org/1999/xlink">
<g id="graph0" class="graph" transform="scale(1 1) rotate(0) translate(4 214)">
<title>/home/tcbuilder/buildAgent/work/df8e8cce5bebfd58/libajantv2/ajabase/system/memory.cpp</title>
<polygon fill="white" stroke="transparent" points="-4,4 -4,-214 740,-214 740,4 -4,4"/>
<!-- Node1 -->
<g id="node1" class="node">
<title>Node1</title>
<g id="a_node1"><a xlink:title="Implements the AJAMemory class.">
<polygon fill="#bfbfbf" stroke="black" points="325,-168.5 325,-209.5 513,-209.5 513,-168.5 325,-168.5"/>
<text text-anchor="start" x="333" y="-197.5" font-family="Helvetica,sans-Serif" font-size="10.00">/home/tcbuilder/buildAgent</text>
<text text-anchor="start" x="333" y="-186.5" font-family="Helvetica,sans-Serif" font-size="10.00">/work/df8e8cce5bebfd58/libajantv2</text>
<text text-anchor="middle" x="419" y="-175.5" font-family="Helvetica,sans-Serif" font-size="10.00">/ajabase/system/memory.cpp</text>
</a>
</g>
</g>
<!-- Node2 -->
<g id="node2" class="node">
<title>Node2</title>
<g id="a_node2"><a xlink:href="../../dc/d18/memory_8h.html" target="_top" xlink:title="Declares the AJAMemory class.">
<polygon fill="white" stroke="black" points="267,-112.5 267,-131.5 413,-131.5 413,-112.5 267,-112.5"/>
<text text-anchor="middle" x="340" y="-119.5" font-family="Helvetica,sans-Serif" font-size="10.00">ajabase/system/memory.h</text>
</a>
</g>
</g>
<!-- Node1&#45;&gt;Node2 -->
<g id="edge1" class="edge">
<title>Node1&#45;&gt;Node2</title>
<path fill="none" stroke="midnightblue" d="M395.3,-168.5C383.42,-158.72 369.26,-147.07 358.24,-138.01"/>
<polygon fill="midnightblue" stroke="midnightblue" points="360.46,-135.3 350.52,-131.65 356.01,-140.71 360.46,-135.3"/>
</g>
<!-- Node10 -->
<g id="node10" class="node">
<title>Node10</title>
<g id="a_node10"><a xlink:href="../../dd/d42/lock_8h.html" target="_top" xlink:title="Declares the AJALock class.">
<polygon fill="white" stroke="black" points="123,-112.5 123,-131.5 249,-131.5 249,-112.5 123,-112.5"/>
<text text-anchor="middle" x="186" y="-119.5" font-family="Helvetica,sans-Serif" font-size="10.00">ajabase/system/lock.h</text>
</a>
</g>
</g>
<!-- Node1&#45;&gt;Node10 -->
<g id="edge9" class="edge">
<title>Node1&#45;&gt;Node10</title>
<path fill="none" stroke="midnightblue" d="M349.09,-168.5C309.13,-157.35 260.4,-143.76 226.67,-134.35"/>
<polygon fill="midnightblue" stroke="midnightblue" points="227.28,-130.88 216.71,-131.57 225.4,-137.63 227.28,-130.88"/>
</g>
<!-- Node12 -->
<g id="node12" class="node">
<title>Node12</title>
<g id="a_node12"><a xlink:href="../../db/d16/debug_8h.html" target="_top" xlink:title="Declares the AJADebug class.">
<polygon fill="white" stroke="black" points="431,-112.5 431,-131.5 567,-131.5 567,-112.5 431,-112.5"/>
<text text-anchor="middle" x="499" y="-119.5" font-family="Helvetica,sans-Serif" font-size="10.00">ajabase/system/debug.h</text>
</a>
</g>
</g>
<!-- Node1&#45;&gt;Node12 -->
<g id="edge12" class="edge">
<title>Node1&#45;&gt;Node12</title>
<path fill="none" stroke="midnightblue" d="M443,-168.5C455.03,-158.72 469.37,-147.07 480.53,-138.01"/>
<polygon fill="midnightblue" stroke="midnightblue" points="482.8,-140.67 488.35,-131.65 478.38,-135.24 482.8,-140.67"/>
</g>
<!-- Node19 -->
<g id="node19" class="node">
<title>Node19</title>
<g id="a_node19"><a xlink:title=" ">
<polygon fill="white" stroke="#bfbfbf" points="585,-112.5 585,-131.5 645,-131.5 645,-112.5 585,-112.5"/>
<text text-anchor="middle" x="615" y="-119.5" font-family="Helvetica,sans-Serif" font-size="10.00">iostream</text>
</a>
</g>
</g>
<!-- Node1&#45;&gt;Node19 -->
<g id="edge23" class="edge">
<title>Node1&#45;&gt;Node19</title>
<path fill="none" stroke="midnightblue" d="M477.81,-168.5C510.85,-157.54 551,-144.22 579.31,-134.84"/>
<polygon fill="midnightblue" stroke="midnightblue" points="580.78,-138.04 589.17,-131.57 578.57,-131.39 580.78,-138.04"/>
</g>
<!-- Node3 -->
<g id="node3" class="node">
<title>Node3</title>
<g id="a_node3"><a xlink:href="../../d4/d79/public_8h.html" target="_top" xlink:title="Master header for the ajabase library.">
<polygon fill="white" stroke="black" points="220,-56.5 220,-75.5 362,-75.5 362,-56.5 220,-56.5"/>
<text text-anchor="middle" x="291" y="-63.5" font-family="Helvetica,sans-Serif" font-size="10.00">ajabase/common/public.h</text>
</a>
</g>
</g>
<!-- Node2&#45;&gt;Node3 -->
<g id="edge2" class="edge">
<title>Node2&#45;&gt;Node3</title>
<path fill="none" stroke="midnightblue" d="M331.91,-112.08C324.84,-104.3 314.41,-92.8 305.85,-83.37"/>
<polygon fill="midnightblue" stroke="midnightblue" points="308.25,-80.8 298.94,-75.75 303.07,-85.51 308.25,-80.8"/>
</g>
<!-- Node4 -->
<g id="node4" class="node">
<title>Node4</title>
<g id="a_node4"><a xlink:href="../../db/db5/export_8h.html" target="_top" xlink:title="Declares system&#45;dependent import/export macros and libraries.">
<polygon fill="white" stroke="black" points="264,-0.5 264,-19.5 408,-19.5 408,-0.5 264,-0.5"/>
<text text-anchor="middle" x="336" y="-7.5" font-family="Helvetica,sans-Serif" font-size="10.00">ajabase/common/export.h</text>
</a>
</g>
</g>
<!-- Node3&#45;&gt;Node4 -->
<g id="edge3" class="edge">
<title>Node3&#45;&gt;Node4</title>
<path fill="none" stroke="midnightblue" d="M298.43,-56.08C304.85,-48.38 314.31,-37.03 322.12,-27.65"/>
<polygon fill="midnightblue" stroke="midnightblue" points="324.99,-29.67 328.71,-19.75 319.62,-25.19 324.99,-29.67"/>
</g>
<!-- Node5 -->
<g id="node5" class="node">
<title>Node5</title>
<g id="a_node5"><a xlink:title=" ">
<polygon fill="white" stroke="#bfbfbf" points="426,-0.5 426,-19.5 470,-19.5 470,-0.5 426,-0.5"/>
<text text-anchor="middle" x="448" y="-7.5" font-family="Helvetica,sans-Serif" font-size="10.00">string</text>
</a>
</g>
</g>
<!-- Node3&#45;&gt;Node5 -->
<g id="edge4" class="edge">
<title>Node3&#45;&gt;Node5</title>
<path fill="none" stroke="midnightblue" d="M315.88,-56.44C343.07,-47.09 386.69,-32.09 416.31,-21.9"/>
<polygon fill="midnightblue" stroke="midnightblue" points="417.46,-25.21 425.78,-18.64 415.18,-18.59 417.46,-25.21"/>
</g>
<!-- Node6 -->
<g id="node6" class="node">
<title>Node6</title>
<g id="a_node6"><a xlink:title=" ">
<polygon fill="white" stroke="#bfbfbf" points="0,-0.5 0,-19.5 32,-19.5 32,-0.5 0,-0.5"/>
<text text-anchor="middle" x="16" y="-7.5" font-family="Helvetica,sans-Serif" font-size="10.00">list</text>
</a>
</g>
</g>
<!-- Node3&#45;&gt;Node6 -->
<g id="edge5" class="edge">
<title>Node3&#45;&gt;Node6</title>
<path fill="none" stroke="midnightblue" d="M226.9,-56.48C178.39,-49.35 110.07,-37.84 42.04,-19.9"/>
<polygon fill="midnightblue" stroke="midnightblue" points="42.58,-16.42 32.01,-17.21 40.76,-23.18 42.58,-16.42"/>
</g>
<!-- Node7 -->
<g id="node7" class="node">
<title>Node7</title>
<g id="a_node7"><a xlink:title=" ">
<polygon fill="white" stroke="#bfbfbf" points="488.5,-0.5 488.5,-19.5 535.5,-19.5 535.5,-0.5 488.5,-0.5"/>
<text text-anchor="middle" x="512" y="-7.5" font-family="Helvetica,sans-Serif" font-size="10.00">vector</text>
</a>
</g>
</g>
<!-- Node3&#45;&gt;Node7 -->
<g id="edge6" class="edge">
<title>Node3&#45;&gt;Node7</title>
<path fill="none" stroke="midnightblue" d="M328.18,-56.46C364.17,-48.12 420.48,-34.85 478.52,-20.06"/>
<polygon fill="midnightblue" stroke="midnightblue" points="479.41,-23.45 488.23,-17.58 477.68,-16.67 479.41,-23.45"/>
</g>
<!-- Node8 -->
<g id="node8" class="node">
<title>Node8</title>
<g id="a_node8"><a xlink:title=" ">
<polygon fill="white" stroke="#bfbfbf" points="50,-0.5 50,-19.5 88,-19.5 88,-0.5 50,-0.5"/>
<text text-anchor="middle" x="69" y="-7.5" font-family="Helvetica,sans-Serif" font-size="10.00">map</text>
</a>
</g>
</g>
<!-- Node3&#45;&gt;Node8 -->
<g id="edge7" class="edge">
<title>Node3&#45;&gt;Node8</title>
<path fill="none" stroke="midnightblue" d="M249.88,-56.5C212.51,-48.54 155.71,-35.88 97.88,-20.08"/>
<polygon fill="midnightblue" stroke="midnightblue" points="98.79,-16.7 88.22,-17.41 96.92,-23.44 98.79,-16.7"/>
</g>
<!-- Node9 -->
<g id="node9" class="node">
<title>Node9</title>
<g id="a_node9"><a xlink:href="../../d9/d49/types_8h.html" target="_top" xlink:title="Declares common types used in the ajabase library.">
<polygon fill="white" stroke="black" points="106,-0.5 106,-19.5 246,-19.5 246,-0.5 106,-0.5"/>
<text text-anchor="middle" x="176" y="-7.5" font-family="Helvetica,sans-Serif" font-size="10.00">ajabase/common/types.h</text>
</a>
</g>
</g>
<!-- Node3&#45;&gt;Node9 -->
<g id="edge8" class="edge">
<title>Node3&#45;&gt;Node9</title>
<path fill="none" stroke="midnightblue" d="M272.78,-56.44C254.1,-47.68 224.84,-33.94 203.38,-23.86"/>
<polygon fill="midnightblue" stroke="midnightblue" points="204.68,-20.6 194.14,-19.52 201.7,-26.93 204.68,-20.6"/>
</g>
<!-- Node10&#45;&gt;Node3 -->
<g id="edge10" class="edge">
<title>Node10&#45;&gt;Node3</title>
<path fill="none" stroke="midnightblue" d="M202.87,-112.32C219.71,-103.66 245.81,-90.24 265.24,-80.25"/>
<polygon fill="midnightblue" stroke="midnightblue" points="266.88,-83.34 274.17,-75.65 263.68,-77.12 266.88,-83.34"/>
</g>
<!-- Node11 -->
<g id="node11" class="node">
<title>Node11</title>
<g id="a_node11"><a xlink:title=" ">
<polygon fill="white" stroke="#bfbfbf" points="146,-56.5 146,-75.5 202,-75.5 202,-56.5 146,-56.5"/>
<text text-anchor="middle" x="174" y="-63.5" font-family="Helvetica,sans-Serif" font-size="10.00">assert.h</text>
</a>
</g>
</g>
<!-- Node10&#45;&gt;Node11 -->
<g id="edge11" class="edge">
<title>Node10&#45;&gt;Node11</title>
<path fill="none" stroke="midnightblue" d="M184.02,-112.08C182.43,-104.93 180.14,-94.64 178.15,-85.69"/>
<polygon fill="midnightblue" stroke="midnightblue" points="181.53,-84.75 175.94,-75.75 174.7,-86.27 181.53,-84.75"/>
</g>
<!-- Node12&#45;&gt;Node3 -->
<g id="edge16" class="edge">
<title>Node12&#45;&gt;Node3</title>
<path fill="none" stroke="midnightblue" d="M466.04,-112.44C430.21,-103.14 372.84,-88.25 333.61,-78.06"/>
<polygon fill="midnightblue" stroke="midnightblue" points="334.36,-74.64 323.8,-75.52 332.6,-81.42 334.36,-74.64"/>
</g>
<!-- Node13 -->
<g id="node13" class="node">
<title>Node13</title>
<g id="a_node13"><a xlink:title=" ">
<polygon fill="white" stroke="#bfbfbf" points="612,-56.5 612,-75.5 662,-75.5 662,-56.5 612,-56.5"/>
<text text-anchor="middle" x="637" y="-63.5" font-family="Helvetica,sans-Serif" font-size="10.00">stdio.h</text>
</a>
</g>
</g>
<!-- Node12&#45;&gt;Node13 -->
<g id="edge13" class="edge">
<title>Node12&#45;&gt;Node13</title>
<path fill="none" stroke="midnightblue" d="M520.87,-112.44C543.78,-103.48 579.98,-89.31 605.87,-79.18"/>
<polygon fill="midnightblue" stroke="midnightblue" points="607.2,-82.42 615.24,-75.52 604.65,-75.9 607.2,-82.42"/>
</g>
<!-- Node14 -->
<g id="node14" class="node">
<title>Node14</title>
<g id="a_node14"><a xlink:title=" ">
<polygon fill="white" stroke="#bfbfbf" points="680,-56.5 680,-75.5 736,-75.5 736,-56.5 680,-56.5"/>
<text text-anchor="middle" x="708" y="-63.5" font-family="Helvetica,sans-Serif" font-size="10.00">sstream</text>
</a>
</g>
</g>
<!-- Node12&#45;&gt;Node14 -->
<g id="edge14" class="edge">
<title>Node12&#45;&gt;Node14</title>
<path fill="none" stroke="midnightblue" d="M532.12,-112.44C569.6,-102.76 630.55,-87.01 669.96,-76.83"/>
<polygon fill="midnightblue" stroke="midnightblue" points="670.92,-80.19 679.73,-74.3 669.17,-73.42 670.92,-80.19"/>
</g>
<!-- Node15 -->
<g id="node15" class="node">
<title>Node15</title>
<g id="a_node15"><a xlink:title=" ">
<polygon fill="white" stroke="#bfbfbf" points="380,-56.5 380,-75.5 412,-75.5 412,-56.5 380,-56.5"/>
<text text-anchor="middle" x="396" y="-63.5" font-family="Helvetica,sans-Serif" font-size="10.00">set</text>
</a>
</g>
</g>
<!-- Node12&#45;&gt;Node15 -->
<g id="edge15" class="edge">
<title>Node12&#45;&gt;Node15</title>
<path fill="none" stroke="midnightblue" d="M482.45,-112.32C465.91,-103.65 440.26,-90.21 421.19,-80.21"/>
<polygon fill="midnightblue" stroke="midnightblue" points="422.65,-77.02 412.17,-75.48 419.4,-83.22 422.65,-77.02"/>
</g>
<!-- Node16 -->
<g id="node16" class="node">
<title>Node16</title>
<g id="a_node16"><a xlink:href="../../d0/db4/debugshare_8h.html" target="_top" xlink:title="Declares the constants used for sharing debug messages. These structures are used to gather debug mes...">
<polygon fill="white" stroke="black" points="430.5,-56.5 430.5,-75.5 593.5,-75.5 593.5,-56.5 430.5,-56.5"/>
<text text-anchor="middle" x="512" y="-63.5" font-family="Helvetica,sans-Serif" font-size="10.00">ajabase/system/debugshare.h</text>
</a>
</g>
</g>
<!-- Node12&#45;&gt;Node16 -->
<g id="edge17" class="edge">
<title>Node12&#45;&gt;Node16</title>
<path fill="none" stroke="midnightblue" d="M501.15,-112.08C502.87,-104.93 505.35,-94.64 507.5,-85.69"/>
<polygon fill="midnightblue" stroke="midnightblue" points="510.96,-86.29 509.89,-75.75 504.15,-84.65 510.96,-86.29"/>
</g>
<!-- Node16&#45;&gt;Node4 -->
<g id="edge18" class="edge">
<title>Node16&#45;&gt;Node4</title>
<path fill="none" stroke="midnightblue" d="M484.11,-56.44C454.25,-47.28 406.69,-32.69 373.54,-22.52"/>
<polygon fill="midnightblue" stroke="midnightblue" points="374.34,-19.1 363.76,-19.52 372.29,-25.8 374.34,-19.1"/>
</g>
<!-- Node16&#45;&gt;Node5 -->
<g id="edge21" class="edge">
<title>Node16&#45;&gt;Node5</title>
<path fill="none" stroke="midnightblue" d="M501.72,-56.32C492.16,-48.26 477.72,-36.08 466.22,-26.37"/>
<polygon fill="midnightblue" stroke="midnightblue" points="468.37,-23.61 458.47,-19.83 463.86,-28.96 468.37,-23.61"/>
</g>
<!-- Node16&#45;&gt;Node7 -->
<g id="edge22" class="edge">
<title>Node16&#45;&gt;Node7</title>
<path fill="none" stroke="midnightblue" d="M512,-56.08C512,-49.01 512,-38.86 512,-29.99"/>
<polygon fill="midnightblue" stroke="midnightblue" points="515.5,-29.75 512,-19.75 508.5,-29.75 515.5,-29.75"/>
</g>
<!-- Node17 -->
<g id="node17" class="node">
<title>Node17</title>
<g id="a_node17"><a xlink:title=" ">
<polygon fill="white" stroke="#bfbfbf" points="554,-0.5 554,-19.5 610,-19.5 610,-0.5 554,-0.5"/>
<text text-anchor="middle" x="582" y="-7.5" font-family="Helvetica,sans-Serif" font-size="10.00">stddef.h</text>
</a>
</g>
</g>
<!-- Node16&#45;&gt;Node17 -->
<g id="edge19" class="edge">
<title>Node16&#45;&gt;Node17</title>
<path fill="none" stroke="midnightblue" d="M523.25,-56.32C533.8,-48.18 549.8,-35.84 562.44,-26.09"/>
<polygon fill="midnightblue" stroke="midnightblue" points="564.77,-28.71 570.55,-19.83 560.49,-23.17 564.77,-28.71"/>
</g>
<!-- Node18 -->
<g id="node18" class="node">
<title>Node18</title>
<g id="a_node18"><a xlink:title=" ">
<polygon fill="white" stroke="#bfbfbf" points="628.5,-0.5 628.5,-19.5 681.5,-19.5 681.5,-0.5 628.5,-0.5"/>
<text text-anchor="middle" x="655" y="-7.5" font-family="Helvetica,sans-Serif" font-size="10.00">stdint.h</text>
</a>
</g>
</g>
<!-- Node16&#45;&gt;Node18 -->
<g id="edge20" class="edge">
<title>Node16&#45;&gt;Node18</title>
<path fill="none" stroke="midnightblue" d="M534.66,-56.44C558.4,-47.48 595.91,-33.31 622.74,-23.18"/>
<polygon fill="midnightblue" stroke="midnightblue" points="624.33,-26.32 632.45,-19.52 621.86,-19.77 624.33,-26.32"/>
</g>
</g>
</svg>
