<?xml version="1.0" encoding="UTF-8" standalone="no"?>
<!DOCTYPE svg PUBLIC "-//W3C//DTD SVG 1.1//EN"
 "http://www.w3.org/Graphics/SVG/1.1/DTD/svg11.dtd">
<!-- Generated by graphviz version 2.43.0 (0)
 -->
<!-- Title: /home/tcbuilder/buildAgent/work/df8e8cce5bebfd58/libajantv2/ajantv2/includes/ntv2debug.h Pages: 1 -->
<!--zoomable 206 -->
<svg id="main" version="1.1" xmlns="http://www.w3.org/2000/svg" xmlns:xlink="http://www.w3.org/1999/xlink" xml:space="preserve" onload="init(evt)">
<style type="text/css"><![CDATA[
.edge:hover path { stroke: red; }
.edge:hover polygon { stroke: red; fill: red; }
]]></style>
<script type="text/javascript"><![CDATA[
var edges = document.getElementsByTagName('g');
if (edges && edges.length) {
  for (var i=0;i<edges.length;i++) {
    if (edges[i].id.substr(0,4)=='edge') {
      edges[i].setAttribute('class','edge');
    }
  }
}
]]></script>
        <defs>
                <circle id="rim" cx="0" cy="0" r="7"/>
                <circle id="rim2" cx="0" cy="0" r="3.5"/>
                <g id="zoomPlus">
                        <use xlink:href="#rim" fill="#404040">
                                <set attributeName="fill" to="#808080" begin="zoomplus.mouseover" end="zoomplus.mouseout"/>
                        </use>
                        <path d="M-4,0h8M0,-4v8" fill="none" stroke="white" stroke-width="1.5" pointer-events="none"/>
                </g>
                <g id="zoomMin">
                        <use xlink:href="#rim" fill="#404040">
                                <set attributeName="fill" to="#808080" begin="zoomminus.mouseover" end="zoomminus.mouseout"/>
                        </use>
                        <path d="M-4,0h8" fill="none" stroke="white" stroke-width="1.5" pointer-events="none"/>
                </g>
                <g id="dirArrow">
                        <path fill="none" stroke="white" stroke-width="1.5" d="M0,-3.0v7 M-2.5,-0.5L0,-3.0L2.5,-0.5"/>
                </g>
               <g id="resetDef">
                       <use xlink:href="#rim2" fill="#404040">
                               <set attributeName="fill" to="#808080" begin="reset.mouseover" end="reset.mouseout"/>
                       </use>
               </g>
        </defs>

<script type="text/javascript">
var viewWidth = 4244;
var viewHeight = 206;
var sectionId = 'dynsection-1';
</script>
<script xlink:href="../../svgpan.js"/>
<svg id="graph" class="graph">
<g id="viewport">
<title>/home/tcbuilder/buildAgent/work/df8e8cce5bebfd58/libajantv2/ajantv2/includes/ntv2debug.h</title>
<polygon fill="white" stroke="transparent" points="-4,4 -4,-202 4240,-202 4240,4 -4,4"/>
<!-- Node1 -->
<g id="node1" class="node">
<title>Node1</title>
<g id="a_node1"><a xlink:title=" ">
<polygon fill="#bfbfbf" stroke="black" points="2133,-156.5 2133,-197.5 2321,-197.5 2321,-156.5 2133,-156.5"/>
<text text-anchor="start" x="2141" y="-185.5" font-family="Helvetica,sans-Serif" font-size="10.00">/home/tcbuilder/buildAgent</text>
<text text-anchor="start" x="2141" y="-174.5" font-family="Helvetica,sans-Serif" font-size="10.00">/work/df8e8cce5bebfd58/libajantv2</text>
<text text-anchor="middle" x="2227" y="-163.5" font-family="Helvetica,sans-Serif" font-size="10.00">/ajantv2/includes/ntv2debug.h</text>
</a>
</g>
</g>
<!-- Node2 -->
<g id="node2" class="node">
<title>Node2</title>
<g id="a_node2"><a xlink:href="../../d9/dca/ntv2ccgrabber_8cpp.html" target="_top" xlink:title="Implementation of NTV2CCGrabber class.">
<polygon fill="white" stroke="black" points="0,-78.5 0,-119.5 218,-119.5 218,-78.5 0,-78.5"/>
<text text-anchor="start" x="8" y="-107.5" font-family="Helvetica,sans-Serif" font-size="10.00">/home/tcbuilder/buildAgent</text>
<text text-anchor="start" x="8" y="-96.5" font-family="Helvetica,sans-Serif" font-size="10.00">/work/df8e8cce5bebfd58/libajantv2</text>
<text text-anchor="middle" x="109" y="-85.5" font-family="Helvetica,sans-Serif" font-size="10.00">/demos/ntv2ccgrabber/ntv2ccgrabber.cpp</text>
</a>
</g>
</g>
<!-- Node1&#45;&gt;Node2 -->
<g id="edge1" class="edge">
<title>Node1&#45;&gt;Node2</title>
<path fill="none" stroke="midnightblue" d="M2122.75,-175.01C1766.68,-171.32 600.22,-156.67 227,-120 224.1,-119.72 221.17,-119.4 218.22,-119.06"/>
<polygon fill="midnightblue" stroke="midnightblue" points="2122.75,-178.51 2132.79,-175.11 2122.82,-171.51 2122.75,-178.51"/>
</g>
<!-- Node3 -->
<g id="node3" class="node">
<title>Node3</title>
<g id="a_node3"><a xlink:href="../../de/d67/ntv2ccplayer_8cpp.html" target="_top" xlink:title="Implementation of NTV2CCPlayer class.">
<polygon fill="white" stroke="black" points="236,-78.5 236,-119.5 440,-119.5 440,-78.5 236,-78.5"/>
<text text-anchor="start" x="244" y="-107.5" font-family="Helvetica,sans-Serif" font-size="10.00">/home/tcbuilder/buildAgent</text>
<text text-anchor="start" x="244" y="-96.5" font-family="Helvetica,sans-Serif" font-size="10.00">/work/df8e8cce5bebfd58/libajantv2</text>
<text text-anchor="middle" x="338" y="-85.5" font-family="Helvetica,sans-Serif" font-size="10.00">/demos/ntv2ccplayer/ntv2ccplayer.cpp</text>
</a>
</g>
</g>
<!-- Node1&#45;&gt;Node3 -->
<g id="edge2" class="edge">
<title>Node1&#45;&gt;Node3</title>
<path fill="none" stroke="midnightblue" d="M2122.97,-174.73C1793.7,-170.4 776.74,-154.5 449,-120 446.08,-119.69 443.12,-119.35 440.14,-118.98"/>
<polygon fill="midnightblue" stroke="midnightblue" points="2122.94,-178.23 2132.98,-174.86 2123.03,-171.23 2122.94,-178.23"/>
</g>
<!-- Node4 -->
<g id="node4" class="node">
<title>Node4</title>
<g id="a_node4"><a xlink:href="../../dc/d41/ntv2democommon_8cpp.html" target="_top" xlink:title="Common implementation code used by many of the demo applications.">
<polygon fill="white" stroke="black" points="458,-78.5 458,-119.5 646,-119.5 646,-78.5 458,-78.5"/>
<text text-anchor="start" x="466" y="-107.5" font-family="Helvetica,sans-Serif" font-size="10.00">/home/tcbuilder/buildAgent</text>
<text text-anchor="start" x="466" y="-96.5" font-family="Helvetica,sans-Serif" font-size="10.00">/work/df8e8cce5bebfd58/libajantv2</text>
<text text-anchor="middle" x="552" y="-85.5" font-family="Helvetica,sans-Serif" font-size="10.00">/demos/ntv2democommon.cpp</text>
</a>
</g>
</g>
<!-- Node1&#45;&gt;Node4 -->
<g id="edge3" class="edge">
<title>Node1&#45;&gt;Node4</title>
<path fill="none" stroke="midnightblue" d="M2122.67,-174.41C1819.24,-169.45 940.55,-152.61 655,-120 652.1,-119.67 649.17,-119.3 646.21,-118.9"/>
<polygon fill="midnightblue" stroke="midnightblue" points="2122.73,-177.91 2132.79,-174.58 2122.84,-170.91 2122.73,-177.91"/>
</g>
<!-- Node5 -->
<g id="node5" class="node">
<title>Node5</title>
<g id="a_node5"><a xlink:href="../../d4/d83/ntv2dolbycapture_8cpp.html" target="_top" xlink:title="Implementation of NTV2DolbyCapture class.">
<polygon fill="white" stroke="black" points="664,-78.5 664,-119.5 914,-119.5 914,-78.5 664,-78.5"/>
<text text-anchor="start" x="672" y="-107.5" font-family="Helvetica,sans-Serif" font-size="10.00">/home/tcbuilder/buildAgent</text>
<text text-anchor="start" x="672" y="-96.5" font-family="Helvetica,sans-Serif" font-size="10.00">/work/df8e8cce5bebfd58/libajantv2</text>
<text text-anchor="middle" x="789" y="-85.5" font-family="Helvetica,sans-Serif" font-size="10.00">/demos/ntv2dolbycapture/ntv2dolbycapture.cpp</text>
</a>
</g>
</g>
<!-- Node1&#45;&gt;Node5 -->
<g id="edge4" class="edge">
<title>Node1&#45;&gt;Node5</title>
<path fill="none" stroke="midnightblue" d="M2122.35,-175.24C1900.68,-172.8 1367.63,-162.61 923,-120 920.07,-119.72 917.11,-119.42 914.13,-119.1"/>
<polygon fill="midnightblue" stroke="midnightblue" points="2122.64,-178.74 2132.67,-175.35 2122.71,-171.74 2122.64,-178.74"/>
</g>
<!-- Node6 -->
<g id="node6" class="node">
<title>Node6</title>
<g id="a_node6"><a xlink:href="../../d5/d9e/ntv2dolbyplayer_8cpp.html" target="_top" xlink:title="Implementation of NTV2DolbyPlayer class.">
<polygon fill="white" stroke="black" points="932.5,-78.5 932.5,-119.5 1169.5,-119.5 1169.5,-78.5 932.5,-78.5"/>
<text text-anchor="start" x="940.5" y="-107.5" font-family="Helvetica,sans-Serif" font-size="10.00">/home/tcbuilder/buildAgent</text>
<text text-anchor="start" x="940.5" y="-96.5" font-family="Helvetica,sans-Serif" font-size="10.00">/work/df8e8cce5bebfd58/libajantv2</text>
<text text-anchor="middle" x="1051" y="-85.5" font-family="Helvetica,sans-Serif" font-size="10.00">/demos/ntv2dolbyplayer/ntv2dolbyplayer.cpp</text>
</a>
</g>
</g>
<!-- Node1&#45;&gt;Node6 -->
<g id="edge5" class="edge">
<title>Node1&#45;&gt;Node6</title>
<path fill="none" stroke="midnightblue" d="M2122.61,-173.93C1933.84,-169.41 1523.32,-156.01 1179,-120 1175.98,-119.68 1172.92,-119.35 1169.84,-118.99"/>
<polygon fill="midnightblue" stroke="midnightblue" points="2122.73,-177.44 2132.81,-174.17 2122.89,-170.44 2122.73,-177.44"/>
</g>
<!-- Node7 -->
<g id="node7" class="node">
<title>Node7</title>
<g id="a_node7"><a xlink:href="../../d7/d6f/ntv2player_8cpp.html" target="_top" xlink:title="Implementation of NTV2Player class.">
<polygon fill="white" stroke="black" points="1188,-78.5 1188,-119.5 1376,-119.5 1376,-78.5 1188,-78.5"/>
<text text-anchor="start" x="1196" y="-107.5" font-family="Helvetica,sans-Serif" font-size="10.00">/home/tcbuilder/buildAgent</text>
<text text-anchor="start" x="1196" y="-96.5" font-family="Helvetica,sans-Serif" font-size="10.00">/work/df8e8cce5bebfd58/libajantv2</text>
<text text-anchor="middle" x="1282" y="-85.5" font-family="Helvetica,sans-Serif" font-size="10.00">/demos/ntv2player/ntv2player.cpp</text>
</a>
</g>
</g>
<!-- Node1&#45;&gt;Node7 -->
<g id="edge6" class="edge">
<title>Node1&#45;&gt;Node7</title>
<path fill="none" stroke="midnightblue" d="M2122.58,-173.26C1963.03,-168.13 1649.25,-154.3 1385,-120 1382.11,-119.62 1379.18,-119.22 1376.22,-118.79"/>
<polygon fill="midnightblue" stroke="midnightblue" points="2122.76,-176.77 2132.86,-173.59 2122.98,-169.77 2122.76,-176.77"/>
</g>
<!-- Node8 -->
<g id="node8" class="node">
<title>Node8</title>
<g id="a_node8"><a xlink:href="../../d2/d98/ntv2player4k_8cpp.html" target="_top" xlink:title="Implementation of ntv2player4k class.">
<polygon fill="white" stroke="black" points="1394,-78.5 1394,-119.5 1602,-119.5 1602,-78.5 1394,-78.5"/>
<text text-anchor="start" x="1402" y="-107.5" font-family="Helvetica,sans-Serif" font-size="10.00">/home/tcbuilder/buildAgent</text>
<text text-anchor="start" x="1402" y="-96.5" font-family="Helvetica,sans-Serif" font-size="10.00">/work/df8e8cce5bebfd58/libajantv2</text>
<text text-anchor="middle" x="1498" y="-85.5" font-family="Helvetica,sans-Serif" font-size="10.00">/demos/ntv2player4k/ntv2player4k.cpp</text>
</a>
</g>
</g>
<!-- Node1&#45;&gt;Node8 -->
<g id="edge7" class="edge">
<title>Node1&#45;&gt;Node8</title>
<path fill="none" stroke="midnightblue" d="M2122.65,-169.21C1999.9,-160.61 1790.1,-143.95 1611,-120 1608.04,-119.6 1605.03,-119.19 1602.01,-118.75"/>
<polygon fill="midnightblue" stroke="midnightblue" points="2122.58,-172.72 2132.8,-169.92 2123.07,-165.73 2122.58,-172.72"/>
</g>
<!-- Node9 -->
<g id="node9" class="node">
<title>Node9</title>
<g id="a_node9"><a xlink:href="../../db/d11/ntv2player8k_8cpp.html" target="_top" xlink:title="Implementation of ntv2player8k class.">
<polygon fill="white" stroke="black" points="1620,-78.5 1620,-119.5 1828,-119.5 1828,-78.5 1620,-78.5"/>
<text text-anchor="start" x="1628" y="-107.5" font-family="Helvetica,sans-Serif" font-size="10.00">/home/tcbuilder/buildAgent</text>
<text text-anchor="start" x="1628" y="-96.5" font-family="Helvetica,sans-Serif" font-size="10.00">/work/df8e8cce5bebfd58/libajantv2</text>
<text text-anchor="middle" x="1724" y="-85.5" font-family="Helvetica,sans-Serif" font-size="10.00">/demos/ntv2player8k/ntv2player8k.cpp</text>
</a>
</g>
</g>
<!-- Node1&#45;&gt;Node9 -->
<g id="edge8" class="edge">
<title>Node1&#45;&gt;Node9</title>
<path fill="none" stroke="midnightblue" d="M2122.79,-161.98C2044.15,-151.17 1933.67,-135.49 1837,-120 1834.05,-119.53 1831.06,-119.04 1828.04,-118.54"/>
<polygon fill="midnightblue" stroke="midnightblue" points="2122.32,-165.44 2132.7,-163.34 2123.27,-158.51 2122.32,-165.44"/>
</g>
<!-- Node10 -->
<g id="node10" class="node">
<title>Node10</title>
<g id="a_node10"><a xlink:href="../../d2/de1/ntv2streamplayer_8cpp.html" target="_top" xlink:title="Implementation of NTV2StreamPlayer class.">
<polygon fill="white" stroke="black" points="1846,-78.5 1846,-119.5 2098,-119.5 2098,-78.5 1846,-78.5"/>
<text text-anchor="start" x="1854" y="-107.5" font-family="Helvetica,sans-Serif" font-size="10.00">/home/tcbuilder/buildAgent</text>
<text text-anchor="start" x="1854" y="-96.5" font-family="Helvetica,sans-Serif" font-size="10.00">/work/df8e8cce5bebfd58/libajantv2</text>
<text text-anchor="middle" x="1972" y="-85.5" font-family="Helvetica,sans-Serif" font-size="10.00">/demos/ntv2streamplayer/ntv2streamplayer.cpp</text>
</a>
</g>
</g>
<!-- Node1&#45;&gt;Node10 -->
<g id="edge9" class="edge">
<title>Node1&#45;&gt;Node10</title>
<path fill="none" stroke="midnightblue" d="M2151.31,-153.44C2115.12,-142.66 2072.21,-129.87 2037.45,-119.51"/>
<polygon fill="midnightblue" stroke="midnightblue" points="2150.75,-156.93 2161.33,-156.43 2152.75,-150.22 2150.75,-156.93"/>
</g>
<!-- Node11 -->
<g id="node11" class="node">
<title>Node11</title>
<g id="a_node11"><a xlink:href="../../d1/dbd/ntv2konaflashprogram_8h.html" target="_top" xlink:title="Declares the CNTV2KonaFlashProgram class.">
<polygon fill="white" stroke="black" points="2116.5,-78.5 2116.5,-119.5 2337.5,-119.5 2337.5,-78.5 2116.5,-78.5"/>
<text text-anchor="start" x="2124.5" y="-107.5" font-family="Helvetica,sans-Serif" font-size="10.00">/home/tcbuilder/buildAgent</text>
<text text-anchor="start" x="2124.5" y="-96.5" font-family="Helvetica,sans-Serif" font-size="10.00">/work/df8e8cce5bebfd58/libajantv2</text>
<text text-anchor="middle" x="2227" y="-85.5" font-family="Helvetica,sans-Serif" font-size="10.00">/ajantv2/includes/ntv2konaflashprogram.h</text>
</a>
</g>
</g>
<!-- Node1&#45;&gt;Node11 -->
<g id="edge10" class="edge">
<title>Node1&#45;&gt;Node11</title>
<path fill="none" stroke="midnightblue" d="M2227,-146.3C2227,-137.3 2227,-127.65 2227,-119.51"/>
<polygon fill="midnightblue" stroke="midnightblue" points="2223.5,-146.43 2227,-156.43 2230.5,-146.43 2223.5,-146.43"/>
</g>
<!-- Node15 -->
<g id="node15" class="node">
<title>Node15</title>
<g id="a_node15"><a xlink:href="../../df/d0f/ntv2card_8cpp.html" target="_top" xlink:title="Implements several CNTV2Card methods. Other implementation files are &#39;ntv2audio.cpp&#39;,...">
<polygon fill="white" stroke="black" points="2356,-78.5 2356,-119.5 2544,-119.5 2544,-78.5 2356,-78.5"/>
<text text-anchor="start" x="2364" y="-107.5" font-family="Helvetica,sans-Serif" font-size="10.00">/home/tcbuilder/buildAgent</text>
<text text-anchor="start" x="2364" y="-96.5" font-family="Helvetica,sans-Serif" font-size="10.00">/work/df8e8cce5bebfd58/libajantv2</text>
<text text-anchor="middle" x="2450" y="-85.5" font-family="Helvetica,sans-Serif" font-size="10.00">/ajantv2/src/ntv2card.cpp</text>
</a>
</g>
</g>
<!-- Node1&#45;&gt;Node15 -->
<g id="edge14" class="edge">
<title>Node1&#45;&gt;Node15</title>
<path fill="none" stroke="midnightblue" d="M2294,-153.17C2325.48,-142.44 2362.62,-129.78 2392.77,-119.51"/>
<polygon fill="midnightblue" stroke="midnightblue" points="2292.76,-149.89 2284.43,-156.43 2295.02,-156.52 2292.76,-149.89"/>
</g>
<!-- Node16 -->
<g id="node16" class="node">
<title>Node16</title>
<g id="a_node16"><a xlink:href="../../d3/d85/ntv2debug_8cpp.html" target="_top" xlink:title="Declares the NTV2 debug output functions, including &#39;odprintf&#39;.">
<polygon fill="white" stroke="black" points="2562,-78.5 2562,-119.5 2750,-119.5 2750,-78.5 2562,-78.5"/>
<text text-anchor="start" x="2570" y="-107.5" font-family="Helvetica,sans-Serif" font-size="10.00">/home/tcbuilder/buildAgent</text>
<text text-anchor="start" x="2570" y="-96.5" font-family="Helvetica,sans-Serif" font-size="10.00">/work/df8e8cce5bebfd58/libajantv2</text>
<text text-anchor="middle" x="2656" y="-85.5" font-family="Helvetica,sans-Serif" font-size="10.00">/ajantv2/src/ntv2debug.cpp</text>
</a>
</g>
</g>
<!-- Node1&#45;&gt;Node16 -->
<g id="edge15" class="edge">
<title>Node1&#45;&gt;Node16</title>
<path fill="none" stroke="midnightblue" d="M2331.35,-158.67C2395.38,-147.88 2479,-133.54 2553,-120 2555.96,-119.46 2558.96,-118.9 2561.99,-118.34"/>
<polygon fill="midnightblue" stroke="midnightblue" points="2330.53,-155.25 2321.25,-160.37 2331.69,-162.16 2330.53,-155.25"/>
</g>
<!-- Node17 -->
<g id="node17" class="node">
<title>Node17</title>
<g id="a_node17"><a xlink:href="../../de/d85/ntv2driverinterface_8cpp.html" target="_top" xlink:title="Implements the CNTV2DriverInterface class.">
<polygon fill="white" stroke="black" points="2768.5,-78.5 2768.5,-119.5 2959.5,-119.5 2959.5,-78.5 2768.5,-78.5"/>
<text text-anchor="start" x="2776.5" y="-107.5" font-family="Helvetica,sans-Serif" font-size="10.00">/home/tcbuilder/buildAgent</text>
<text text-anchor="start" x="2776.5" y="-96.5" font-family="Helvetica,sans-Serif" font-size="10.00">/work/df8e8cce5bebfd58/libajantv2</text>
<text text-anchor="middle" x="2864" y="-85.5" font-family="Helvetica,sans-Serif" font-size="10.00">/ajantv2/src/ntv2driverinterface.cpp</text>
</a>
</g>
</g>
<!-- Node1&#45;&gt;Node17 -->
<g id="edge16" class="edge">
<title>Node1&#45;&gt;Node17</title>
<path fill="none" stroke="midnightblue" d="M2331.68,-167.58C2439.2,-158.32 2611.25,-141.81 2759,-120 2762.12,-119.54 2765.29,-119.05 2768.49,-118.54"/>
<polygon fill="midnightblue" stroke="midnightblue" points="2331.14,-164.11 2321.48,-168.45 2331.74,-171.08 2331.14,-164.11"/>
</g>
<!-- Node18 -->
<g id="node18" class="node">
<title>Node18</title>
<g id="a_node18"><a xlink:href="../../d1/d1f/ntv2registerexpert_8cpp.html" target="_top" xlink:title="Implements the CNTV2RegisterExpert class.">
<polygon fill="white" stroke="black" points="2978,-78.5 2978,-119.5 3166,-119.5 3166,-78.5 2978,-78.5"/>
<text text-anchor="start" x="2986" y="-107.5" font-family="Helvetica,sans-Serif" font-size="10.00">/home/tcbuilder/buildAgent</text>
<text text-anchor="start" x="2986" y="-96.5" font-family="Helvetica,sans-Serif" font-size="10.00">/work/df8e8cce5bebfd58/libajantv2</text>
<text text-anchor="middle" x="3072" y="-85.5" font-family="Helvetica,sans-Serif" font-size="10.00">/ajantv2/src/ntv2registerexpert.cpp</text>
</a>
</g>
</g>
<!-- Node1&#45;&gt;Node18 -->
<g id="edge17" class="edge">
<title>Node1&#45;&gt;Node18</title>
<path fill="none" stroke="midnightblue" d="M2331.22,-171.97C2475.16,-165.52 2742.69,-150.41 2969,-120 2971.89,-119.61 2974.82,-119.19 2977.77,-118.75"/>
<polygon fill="midnightblue" stroke="midnightblue" points="2330.91,-168.48 2321.07,-172.41 2331.22,-175.47 2330.91,-168.48"/>
</g>
<!-- Node19 -->
<g id="node19" class="node">
<title>Node19</title>
<g id="a_node19"><a xlink:href="../../de/dc8/ntv2signalrouter_8cpp.html" target="_top" xlink:title="CNTV2SignalRouter implementation.">
<polygon fill="white" stroke="black" points="3184,-78.5 3184,-119.5 3372,-119.5 3372,-78.5 3184,-78.5"/>
<text text-anchor="start" x="3192" y="-107.5" font-family="Helvetica,sans-Serif" font-size="10.00">/home/tcbuilder/buildAgent</text>
<text text-anchor="start" x="3192" y="-96.5" font-family="Helvetica,sans-Serif" font-size="10.00">/work/df8e8cce5bebfd58/libajantv2</text>
<text text-anchor="middle" x="3278" y="-85.5" font-family="Helvetica,sans-Serif" font-size="10.00">/ajantv2/src/ntv2signalrouter.cpp</text>
</a>
</g>
</g>
<!-- Node1&#45;&gt;Node19 -->
<g id="edge18" class="edge">
<title>Node1&#45;&gt;Node19</title>
<path fill="none" stroke="midnightblue" d="M2331.47,-174.36C2506.57,-170.59 2870.08,-158.44 3175,-120 3177.89,-119.64 3180.82,-119.24 3183.78,-118.81"/>
<polygon fill="midnightblue" stroke="midnightblue" points="2331.16,-170.86 2321.23,-174.57 2331.3,-177.86 2331.16,-170.86"/>
</g>
<!-- Node20 -->
<g id="node20" class="node">
<title>Node20</title>
<g id="a_node20"><a xlink:href="../../d9/d8d/ntv2task_8cpp.html" target="_top" xlink:title="Implements the CNTV2Task class. @deprecate Its functionality is deprecated.">
<polygon fill="white" stroke="black" points="3390,-78.5 3390,-119.5 3578,-119.5 3578,-78.5 3390,-78.5"/>
<text text-anchor="start" x="3398" y="-107.5" font-family="Helvetica,sans-Serif" font-size="10.00">/home/tcbuilder/buildAgent</text>
<text text-anchor="start" x="3398" y="-96.5" font-family="Helvetica,sans-Serif" font-size="10.00">/work/df8e8cce5bebfd58/libajantv2</text>
<text text-anchor="middle" x="3484" y="-85.5" font-family="Helvetica,sans-Serif" font-size="10.00">/ajantv2/src/ntv2task.cpp</text>
</a>
</g>
</g>
<!-- Node1&#45;&gt;Node20 -->
<g id="edge19" class="edge">
<title>Node1&#45;&gt;Node20</title>
<path fill="none" stroke="midnightblue" d="M2331.3,-175.93C2534.21,-174.7 2995.95,-166.48 3381,-120 3383.89,-119.65 3386.83,-119.27 3389.79,-118.85"/>
<polygon fill="midnightblue" stroke="midnightblue" points="2331.23,-172.43 2321.25,-175.99 2331.27,-179.43 2331.23,-172.43"/>
</g>
<!-- Node21 -->
<g id="node21" class="node">
<title>Node21</title>
<g id="a_node21"><a xlink:href="../../d6/d9b/ntv2utils_8cpp.html" target="_top" xlink:title="Implementations for the NTV2 utility functions.">
<polygon fill="white" stroke="black" points="3596,-78.5 3596,-119.5 3784,-119.5 3784,-78.5 3596,-78.5"/>
<text text-anchor="start" x="3604" y="-107.5" font-family="Helvetica,sans-Serif" font-size="10.00">/home/tcbuilder/buildAgent</text>
<text text-anchor="start" x="3604" y="-96.5" font-family="Helvetica,sans-Serif" font-size="10.00">/work/df8e8cce5bebfd58/libajantv2</text>
<text text-anchor="middle" x="3690" y="-85.5" font-family="Helvetica,sans-Serif" font-size="10.00">/ajantv2/src/ntv2utils.cpp</text>
</a>
</g>
</g>
<!-- Node1&#45;&gt;Node21 -->
<g id="edge20" class="edge">
<title>Node1&#45;&gt;Node21</title>
<path fill="none" stroke="midnightblue" d="M2331.83,-173.73C2606.83,-167.44 3344.41,-148.38 3587,-120 3589.89,-119.66 3592.83,-119.29 3595.79,-118.88"/>
<polygon fill="midnightblue" stroke="midnightblue" points="2331.37,-170.24 2321.45,-173.96 2331.53,-177.24 2331.37,-170.24"/>
</g>
<!-- Node22 -->
<g id="node22" class="node">
<title>Node22</title>
<g id="a_node22"><a xlink:href="../../d4/dd5/ntv2vpid_8cpp.html" target="_top" xlink:title="Implements the CNTV2VPID class. See the SMPTE 352 standard for details.">
<polygon fill="white" stroke="black" points="3802,-78.5 3802,-119.5 3990,-119.5 3990,-78.5 3802,-78.5"/>
<text text-anchor="start" x="3810" y="-107.5" font-family="Helvetica,sans-Serif" font-size="10.00">/home/tcbuilder/buildAgent</text>
<text text-anchor="start" x="3810" y="-96.5" font-family="Helvetica,sans-Serif" font-size="10.00">/work/df8e8cce5bebfd58/libajantv2</text>
<text text-anchor="middle" x="3896" y="-85.5" font-family="Helvetica,sans-Serif" font-size="10.00">/ajantv2/src/ntv2vpid.cpp</text>
</a>
</g>
</g>
<!-- Node1&#45;&gt;Node22 -->
<g id="edge21" class="edge">
<title>Node1&#45;&gt;Node22</title>
<path fill="none" stroke="midnightblue" d="M2331.2,-174.4C2633.72,-169.4 3508.62,-152.49 3793,-120 3795.9,-119.67 3798.83,-119.3 3801.79,-118.9"/>
<polygon fill="midnightblue" stroke="midnightblue" points="2331.05,-170.9 2321.11,-174.56 2331.17,-177.9 2331.05,-170.9"/>
</g>
<!-- Node23 -->
<g id="node23" class="node">
<title>Node23</title>
<g id="a_node23"><a xlink:href="../../df/d16/ntv2windriverinterface_8cpp.html" target="_top" xlink:title="Implementation of CNTV2WinDriverInterface.">
<polygon fill="white" stroke="black" points="4008,-78.5 4008,-119.5 4236,-119.5 4236,-78.5 4008,-78.5"/>
<text text-anchor="start" x="4016" y="-107.5" font-family="Helvetica,sans-Serif" font-size="10.00">/home/tcbuilder/buildAgent</text>
<text text-anchor="start" x="4016" y="-96.5" font-family="Helvetica,sans-Serif" font-size="10.00">/work/df8e8cce5bebfd58/libajantv2</text>
<text text-anchor="middle" x="4122" y="-85.5" font-family="Helvetica,sans-Serif" font-size="10.00">/ajantv2/src/win/ntv2windriverinterface.cpp</text>
</a>
</g>
</g>
<!-- Node1&#45;&gt;Node23 -->
<g id="edge22" class="edge">
<title>Node1&#45;&gt;Node23</title>
<path fill="none" stroke="midnightblue" d="M2331.71,-174.47C2660.92,-169.4 3672.44,-151.58 3999,-120 4001.91,-119.72 4004.85,-119.41 4007.82,-119.08"/>
<polygon fill="midnightblue" stroke="midnightblue" points="2331.18,-170.98 2321.23,-174.64 2331.28,-177.98 2331.18,-170.98"/>
</g>
<!-- Node12 -->
<g id="node12" class="node">
<title>Node12</title>
<g id="a_node12"><a xlink:href="../../de/d94/ntv2konaflashprogram_8cpp.html" target="_top" xlink:title="Implementation of CNTV2KonaFlashProgram class.">
<polygon fill="white" stroke="black" points="1909,-0.5 1909,-41.5 2115,-41.5 2115,-0.5 1909,-0.5"/>
<text text-anchor="start" x="1917" y="-29.5" font-family="Helvetica,sans-Serif" font-size="10.00">/home/tcbuilder/buildAgent</text>
<text text-anchor="start" x="1917" y="-18.5" font-family="Helvetica,sans-Serif" font-size="10.00">/work/df8e8cce5bebfd58/libajantv2</text>
<text text-anchor="middle" x="2012" y="-7.5" font-family="Helvetica,sans-Serif" font-size="10.00">/ajantv2/src/ntv2konaflashprogram.cpp</text>
</a>
</g>
</g>
<!-- Node11&#45;&gt;Node12 -->
<g id="edge11" class="edge">
<title>Node11&#45;&gt;Node12</title>
<path fill="none" stroke="midnightblue" d="M2162.01,-75.03C2131.74,-64.33 2096.12,-51.73 2067.18,-41.51"/>
<polygon fill="midnightblue" stroke="midnightblue" points="2161.04,-78.4 2171.63,-78.43 2163.37,-71.8 2161.04,-78.4"/>
</g>
<!-- Node13 -->
<g id="node13" class="node">
<title>Node13</title>
<g id="a_node13"><a xlink:href="../../d7/da9/ntv2register_8cpp.html" target="_top" xlink:title="Implements most of CNTV2Card&#39;s register&#45;based functions.">
<polygon fill="white" stroke="black" points="2133,-0.5 2133,-41.5 2321,-41.5 2321,-0.5 2133,-0.5"/>
<text text-anchor="start" x="2141" y="-29.5" font-family="Helvetica,sans-Serif" font-size="10.00">/home/tcbuilder/buildAgent</text>
<text text-anchor="start" x="2141" y="-18.5" font-family="Helvetica,sans-Serif" font-size="10.00">/work/df8e8cce5bebfd58/libajantv2</text>
<text text-anchor="middle" x="2227" y="-7.5" font-family="Helvetica,sans-Serif" font-size="10.00">/ajantv2/src/ntv2register.cpp</text>
</a>
</g>
</g>
<!-- Node11&#45;&gt;Node13 -->
<g id="edge12" class="edge">
<title>Node11&#45;&gt;Node13</title>
<path fill="none" stroke="midnightblue" d="M2227,-68.3C2227,-59.3 2227,-49.65 2227,-41.51"/>
<polygon fill="midnightblue" stroke="midnightblue" points="2223.5,-68.43 2227,-78.43 2230.5,-68.43 2223.5,-68.43"/>
</g>
<!-- Node14 -->
<g id="node14" class="node">
<title>Node14</title>
<g id="a_node14"><a xlink:href="../../dd/d5a/ntv2supportlogger_8cpp.html" target="_top" xlink:title="Implementation of CNTV2SupportLogger class.">
<polygon fill="white" stroke="black" points="2339,-0.5 2339,-41.5 2527,-41.5 2527,-0.5 2339,-0.5"/>
<text text-anchor="start" x="2347" y="-29.5" font-family="Helvetica,sans-Serif" font-size="10.00">/home/tcbuilder/buildAgent</text>
<text text-anchor="start" x="2347" y="-18.5" font-family="Helvetica,sans-Serif" font-size="10.00">/work/df8e8cce5bebfd58/libajantv2</text>
<text text-anchor="middle" x="2433" y="-7.5" font-family="Helvetica,sans-Serif" font-size="10.00">/ajantv2/src/ntv2supportlogger.cpp</text>
</a>
</g>
</g>
<!-- Node11&#45;&gt;Node14 -->
<g id="edge13" class="edge">
<title>Node11&#45;&gt;Node14</title>
<path fill="none" stroke="midnightblue" d="M2289.65,-74.89C2318.57,-64.22 2352.52,-51.69 2380.13,-41.51"/>
<polygon fill="midnightblue" stroke="midnightblue" points="2288.22,-71.68 2280.05,-78.43 2290.64,-78.25 2288.22,-71.68"/>
</g>
</g>
</svg>
        <g id="navigator" transform="translate(0 0)" fill="#404254">
                <rect fill="#f2f5e9" fill-opacity="0.5" stroke="#606060" stroke-width=".5" x="0" y="0" width="60" height="60"/>
                <use id="zoomplus" xlink:href="#zoomPlus" x="17" y="9" onmousedown="handleZoom(evt,'in')"/>
                <use id="zoomminus" xlink:href="#zoomMin" x="42" y="9" onmousedown="handleZoom(evt,'out')"/>
                <use id="reset" xlink:href="#resetDef" x="30" y="36" onmousedown="handleReset()"/>
                <g id="arrowUp" xlink:href="#dirArrow" transform="translate(30 24)" onmousedown="handlePan(0,-1)">
                  <use xlink:href="#rim" fill="#404040">
                        <set attributeName="fill" to="#808080" begin="arrowUp.mouseover" end="arrowUp.mouseout"/>
                  </use>
                  <path fill="none" stroke="white" stroke-width="1.5" d="M0,-3.0v7 M-2.5,-0.5L0,-3.0L2.5,-0.5"/>
                </g>
                <g id="arrowRight" xlink:href="#dirArrow" transform="rotate(90) translate(36 -43)" onmousedown="handlePan(1,0)">
                  <use xlink:href="#rim" fill="#404040">
                        <set attributeName="fill" to="#808080" begin="arrowRight.mouseover" end="arrowRight.mouseout"/>
                  </use>
                  <path fill="none" stroke="white" stroke-width="1.5" d="M0,-3.0v7 M-2.5,-0.5L0,-3.0L2.5,-0.5"/>
                </g>
                <g id="arrowDown" xlink:href="#dirArrow" transform="rotate(180) translate(-30 -48)" onmousedown="handlePan(0,1)">
                  <use xlink:href="#rim" fill="#404040">
                        <set attributeName="fill" to="#808080" begin="arrowDown.mouseover" end="arrowDown.mouseout"/>
                  </use>
                  <path fill="none" stroke="white" stroke-width="1.5" d="M0,-3.0v7 M-2.5,-0.5L0,-3.0L2.5,-0.5"/>
                </g>
                <g id="arrowLeft" xlink:href="#dirArrow" transform="rotate(270) translate(-36 17)" onmousedown="handlePan(-1,0)">
                  <use xlink:href="#rim" fill="#404040">
                        <set attributeName="fill" to="#808080" begin="arrowLeft.mouseover" end="arrowLeft.mouseout"/>
                  </use>
                  <path fill="none" stroke="white" stroke-width="1.5" d="M0,-3.0v7 M-2.5,-0.5L0,-3.0L2.5,-0.5"/>
                </g>
        </g>
        <svg viewBox="0 0 15 15" width="100%" height="30px" preserveAspectRatio="xMaxYMin meet">
         <g id="arrow_out" transform="scale(0.3 0.3)">
          <a xlink:href="ntv2debug_8h__dep__incl_org.svg" target="_base">
           <rect id="button" ry="5" rx="5" y="6" x="6" height="38" width="38"
                fill="#f2f5e9" fill-opacity="0.5" stroke="#606060" stroke-width="1.0"/>
           <path id="arrow"
             d="M 11.500037,31.436501 C 11.940474,20.09759 22.043105,11.32322 32.158766,21.979434 L 37.068811,17.246167 C 37.068811,17.246167 37.088388,32 37.088388,32 L 22.160133,31.978069 C 22.160133,31.978069 26.997745,27.140456 26.997745,27.140456 C 18.528582,18.264221 13.291696,25.230495 11.500037,31.436501 z"
             style="fill:#404040;"/>
          </a>
         </g>
        </svg>
</svg>
