<?xml version="1.0" encoding="UTF-8" standalone="no"?>
<!DOCTYPE svg PUBLIC "-//W3C//DTD SVG 1.1//EN"
 "http://www.w3.org/Graphics/SVG/1.1/DTD/svg11.dtd">
<!-- Generated by graphviz version 2.40.1 (0)
 -->
<!-- Title: /home/tcbuilder/buildAgent/work/df8e8cce5bebfd58/libajacc/includes/ntv2captionencoder708.h Pages: 1 -->
<svg width="1102pt" height="440pt"
 viewBox="0.00 0.00 1101.50 440.00" xmlns="http://www.w3.org/2000/svg" xmlns:xlink="http://www.w3.org/1999/xlink">
<g id="graph0" class="graph" transform="scale(1 1) rotate(0) translate(4 436)">
<title>/home/tcbuilder/buildAgent/work/df8e8cce5bebfd58/libajacc/includes/ntv2captionencoder708.h</title>
<polygon fill="#ffffff" stroke="transparent" points="-4,4 -4,-436 1097.5,-436 1097.5,4 -4,4"/>
<!-- Node31 -->
<g id="node1" class="node">
<title>Node31</title>
<polygon fill="#bfbfbf" stroke="#000000" points="442,-390.5 442,-431.5 609,-431.5 609,-390.5 442,-390.5"/>
<text text-anchor="start" x="450" y="-419.5" font-family="Helvetica,sans-Serif" font-size="10.00" fill="#000000">/home/tcbuilder/buildAgent</text>
<text text-anchor="start" x="450" y="-408.5" font-family="Helvetica,sans-Serif" font-size="10.00" fill="#000000">/work/df8e8cce5bebfd58/libajacc</text>
<text text-anchor="middle" x="525.5" y="-397.5" font-family="Helvetica,sans-Serif" font-size="10.00" fill="#000000">/includes/ntv2captionencoder708.h</text>
</g>
<!-- Node32 -->
<g id="node2" class="node">
<title>Node32</title>
<g id="a_node2"><a xlink:href="../../db/d23/ntv2caption708window_8h.html" target="_top" xlink:title="Declares the CNTV2Caption708Window class. ">
<polygon fill="#ffffff" stroke="#000000" points="260,-312.5 260,-353.5 425,-353.5 425,-312.5 260,-312.5"/>
<text text-anchor="start" x="268" y="-341.5" font-family="Helvetica,sans-Serif" font-size="10.00" fill="#000000">/home/tcbuilder/buildAgent</text>
<text text-anchor="start" x="268" y="-330.5" font-family="Helvetica,sans-Serif" font-size="10.00" fill="#000000">/work/df8e8cce5bebfd58/libajacc</text>
<text text-anchor="middle" x="342.5" y="-319.5" font-family="Helvetica,sans-Serif" font-size="10.00" fill="#000000">/includes/ntv2caption708window.h</text>
</a>
</g>
</g>
<!-- Node31&#45;&gt;Node32 -->
<g id="edge1" class="edge">
<title>Node31&#45;&gt;Node32</title>
<path fill="none" stroke="#191970" d="M467.6473,-386.3415C442.8646,-375.7784 414.2558,-363.5844 390.6521,-353.5239"/>
<polygon fill="#191970" stroke="#191970" points="466.3682,-389.6009 476.9398,-390.3022 469.1129,-383.1614 466.3682,-389.6009"/>
</g>
<!-- Node36 -->
<g id="node6" class="node">
<title>Node36</title>
<g id="a_node6"><a xlink:href="../../d1/d46/ntv2captiontranslator708to708_8h.html" target="_top" xlink:title="Declares the CNTV2CaptionTranslator708to708 class. ">
<polygon fill="#ffffff" stroke="#000000" points="380,-78.5 380,-119.5 577,-119.5 577,-78.5 380,-78.5"/>
<text text-anchor="start" x="388" y="-107.5" font-family="Helvetica,sans-Serif" font-size="10.00" fill="#000000">/home/tcbuilder/buildAgent</text>
<text text-anchor="start" x="388" y="-96.5" font-family="Helvetica,sans-Serif" font-size="10.00" fill="#000000">/work/df8e8cce5bebfd58/libajacc</text>
<text text-anchor="middle" x="478.5" y="-85.5" font-family="Helvetica,sans-Serif" font-size="10.00" fill="#000000">/includes/ntv2captiontranslator708to708.h</text>
</a>
</g>
</g>
<!-- Node31&#45;&gt;Node36 -->
<g id="edge11" class="edge">
<title>Node31&#45;&gt;Node36</title>
<path fill="none" stroke="#191970" d="M491.7689,-382.9828C483.9537,-374.561 476.7011,-364.6877 472.5,-354 440.4238,-272.3974 461.5547,-164.4814 472.7761,-119.7707"/>
<polygon fill="#191970" stroke="#191970" points="489.5008,-385.6658 499.0328,-390.2908 494.4655,-380.731 489.5008,-385.6658"/>
</g>
<!-- Node40 -->
<g id="node10" class="node">
<title>Node40</title>
<g id="a_node10"><a xlink:href="../../de/dc3/ntv2captiontranslatorchannel608to708_8h.html" target="_top" xlink:title="Declares the CNTV2CaptionTranslatorChannel608to708 class. ">
<polygon fill="#ffffff" stroke="#000000" points="482,-312.5 482,-353.5 713,-353.5 713,-312.5 482,-312.5"/>
<text text-anchor="start" x="490" y="-341.5" font-family="Helvetica,sans-Serif" font-size="10.00" fill="#000000">/home/tcbuilder/buildAgent</text>
<text text-anchor="start" x="490" y="-330.5" font-family="Helvetica,sans-Serif" font-size="10.00" fill="#000000">/work/df8e8cce5bebfd58/libajacc</text>
<text text-anchor="middle" x="597.5" y="-319.5" font-family="Helvetica,sans-Serif" font-size="10.00" fill="#000000">/includes/ntv2captiontranslatorchannel608to708.h</text>
</a>
</g>
</g>
<!-- Node31&#45;&gt;Node40 -->
<g id="edge9" class="edge">
<title>Node31&#45;&gt;Node40</title>
<path fill="none" stroke="#191970" d="M551.6592,-382.6609C560.5046,-373.0783 570.2086,-362.5657 578.4017,-353.6898"/>
<polygon fill="#191970" stroke="#191970" points="549.0057,-380.3754 544.7947,-390.0974 554.1493,-385.1234 549.0057,-380.3754"/>
</g>
<!-- Node42 -->
<g id="node12" class="node">
<title>Node42</title>
<g id="a_node12"><a xlink:href="../../d3/db1/ntv2ccplayer_8h.html" target="_top" xlink:title="/home/tcbuilder/buildAgent\l/work/df8e8cce5bebfd58/libajantv2\l/demos/ntv2ccplayer/ntv2ccplayer.h">
<polygon fill="#ffffff" stroke="#000000" points="731,-312.5 731,-353.5 904,-353.5 904,-312.5 731,-312.5"/>
<text text-anchor="start" x="739" y="-341.5" font-family="Helvetica,sans-Serif" font-size="10.00" fill="#000000">/home/tcbuilder/buildAgent</text>
<text text-anchor="start" x="739" y="-330.5" font-family="Helvetica,sans-Serif" font-size="10.00" fill="#000000">/work/df8e8cce5bebfd58/libajantv2</text>
<text text-anchor="middle" x="817.5" y="-319.5" font-family="Helvetica,sans-Serif" font-size="10.00" fill="#000000">/demos/ntv2ccplayer/ntv2ccplayer.h</text>
</a>
</g>
</g>
<!-- Node31&#45;&gt;Node42 -->
<g id="edge12" class="edge">
<title>Node31&#45;&gt;Node42</title>
<path fill="none" stroke="#191970" d="M612.5192,-387.7551C653.2575,-376.873 701.3604,-364.0236 740.7264,-353.508"/>
<polygon fill="#191970" stroke="#191970" points="611.3595,-384.4421 602.6015,-390.4044 613.1661,-391.205 611.3595,-384.4421"/>
</g>
<!-- Node33 -->
<g id="node3" class="node">
<title>Node33</title>
<g id="a_node3"><a xlink:href="../../dc/df3/ntv2caption708service_8h.html" target="_top" xlink:title="Declares the CNTV2Caption708Service class. ">
<polygon fill="#ffffff" stroke="#000000" points="260.5,-234.5 260.5,-275.5 424.5,-275.5 424.5,-234.5 260.5,-234.5"/>
<text text-anchor="start" x="268.5" y="-263.5" font-family="Helvetica,sans-Serif" font-size="10.00" fill="#000000">/home/tcbuilder/buildAgent</text>
<text text-anchor="start" x="268.5" y="-252.5" font-family="Helvetica,sans-Serif" font-size="10.00" fill="#000000">/work/df8e8cce5bebfd58/libajacc</text>
<text text-anchor="middle" x="342.5" y="-241.5" font-family="Helvetica,sans-Serif" font-size="10.00" fill="#000000">/includes/ntv2caption708service.h</text>
</a>
</g>
</g>
<!-- Node32&#45;&gt;Node33 -->
<g id="edge2" class="edge">
<title>Node32&#45;&gt;Node33</title>
<path fill="none" stroke="#191970" d="M342.5,-302.0789C342.5,-293.2178 342.5,-283.7747 342.5,-275.6898"/>
<polygon fill="#191970" stroke="#191970" points="339.0001,-302.0974 342.5,-312.0974 346.0001,-302.0975 339.0001,-302.0974"/>
</g>
<!-- Node34 -->
<g id="node4" class="node">
<title>Node34</title>
<g id="a_node4"><a xlink:href="../../d1/d13/ntv2captiondecoder708_8h.html" target="_top" xlink:title="Declares the CNTV2CaptionDecoder708 class. ">
<polygon fill="#ffffff" stroke="#000000" points="234,-156.5 234,-197.5 401,-197.5 401,-156.5 234,-156.5"/>
<text text-anchor="start" x="242" y="-185.5" font-family="Helvetica,sans-Serif" font-size="10.00" fill="#000000">/home/tcbuilder/buildAgent</text>
<text text-anchor="start" x="242" y="-174.5" font-family="Helvetica,sans-Serif" font-size="10.00" fill="#000000">/work/df8e8cce5bebfd58/libajacc</text>
<text text-anchor="middle" x="317.5" y="-163.5" font-family="Helvetica,sans-Serif" font-size="10.00" fill="#000000">/includes/ntv2captiondecoder708.h</text>
</a>
</g>
</g>
<!-- Node33&#45;&gt;Node34 -->
<g id="edge3" class="edge">
<title>Node33&#45;&gt;Node34</title>
<path fill="none" stroke="#191970" d="M332.6819,-224.3676C329.8151,-215.4232 326.7508,-205.8626 324.1313,-197.6898"/>
<polygon fill="#191970" stroke="#191970" points="329.4152,-225.6429 335.8005,-234.0974 336.0812,-223.5063 329.4152,-225.6429"/>
</g>
<!-- Node35 -->
<g id="node5" class="node">
<title>Node35</title>
<g id="a_node5"><a xlink:href="../../d9/dda/ajacc_8h.html" target="_top" xlink:title="The public interface to the AJA closed&#45;captioning library. It currently supports the CEA&#45;608 standard...">
<polygon fill="#ffffff" stroke="#000000" points="0,-78.5 0,-119.5 159,-119.5 159,-78.5 0,-78.5"/>
<text text-anchor="start" x="8" y="-107.5" font-family="Helvetica,sans-Serif" font-size="10.00" fill="#000000">/home/tcbuilder/buildAgent</text>
<text text-anchor="start" x="8" y="-96.5" font-family="Helvetica,sans-Serif" font-size="10.00" fill="#000000">/work/df8e8cce5bebfd58/libajacc</text>
<text text-anchor="middle" x="79.5" y="-85.5" font-family="Helvetica,sans-Serif" font-size="10.00" fill="#000000">/includes/ajacc.h</text>
</a>
</g>
</g>
<!-- Node34&#45;&gt;Node35 -->
<g id="edge4" class="edge">
<title>Node34&#45;&gt;Node35</title>
<path fill="none" stroke="#191970" d="M245.1146,-153.277C212.2966,-142.5216 173.8607,-129.9249 142.2822,-119.5757"/>
<polygon fill="#191970" stroke="#191970" points="244.0643,-156.6159 254.657,-156.4044 246.2443,-149.9641 244.0643,-156.6159"/>
</g>
<!-- Node34&#45;&gt;Node36 -->
<g id="edge5" class="edge">
<title>Node34&#45;&gt;Node36</title>
<path fill="none" stroke="#191970" d="M369.2639,-151.9218C390.8656,-141.4564 415.645,-129.4515 436.1367,-119.5239"/>
<polygon fill="#191970" stroke="#191970" points="367.6958,-148.7923 360.2224,-156.3022 370.7479,-155.092 367.6958,-148.7923"/>
</g>
<!-- Node37 -->
<g id="node7" class="node">
<title>Node37</title>
<g id="a_node7"><a xlink:href="../../da/d4f/ntv2ccgrabber_8h.html" target="_top" xlink:title="Header file for NTV2CCGrabber demonstration class. ">
<polygon fill="#ffffff" stroke="#000000" points="177,-78.5 177,-119.5 362,-119.5 362,-78.5 177,-78.5"/>
<text text-anchor="start" x="185" y="-107.5" font-family="Helvetica,sans-Serif" font-size="10.00" fill="#000000">/home/tcbuilder/buildAgent</text>
<text text-anchor="start" x="185" y="-96.5" font-family="Helvetica,sans-Serif" font-size="10.00" fill="#000000">/work/df8e8cce5bebfd58/libajantv2</text>
<text text-anchor="middle" x="269.5" y="-85.5" font-family="Helvetica,sans-Serif" font-size="10.00" fill="#000000">/demos/ntv2ccgrabber/ntv2ccgrabber.h</text>
</a>
</g>
</g>
<!-- Node34&#45;&gt;Node37 -->
<g id="edge6" class="edge">
<title>Node34&#45;&gt;Node37</title>
<path fill="none" stroke="#191970" d="M299.3573,-147.5181C293.6527,-138.2482 287.4779,-128.2141 282.2322,-119.6898"/>
<polygon fill="#191970" stroke="#191970" points="296.4151,-149.4152 304.6369,-156.0974 302.3767,-145.7465 296.4151,-149.4152"/>
</g>
<!-- Node38 -->
<g id="node8" class="node">
<title>Node38</title>
<g id="a_node8"><a xlink:href="../../d3/dbe/ntv2ccgrabber_2main_8cpp.html" target="_top" xlink:title="Demonstration application that grabs closed&#45;captioning data from frames captured from SDI input (usin...">
<polygon fill="#ffffff" stroke="#000000" points="86,-.5 86,-41.5 253,-41.5 253,-.5 86,-.5"/>
<text text-anchor="start" x="94" y="-29.5" font-family="Helvetica,sans-Serif" font-size="10.00" fill="#000000">/home/tcbuilder/buildAgent</text>
<text text-anchor="start" x="94" y="-18.5" font-family="Helvetica,sans-Serif" font-size="10.00" fill="#000000">/work/df8e8cce5bebfd58/libajantv2</text>
<text text-anchor="middle" x="169.5" y="-7.5" font-family="Helvetica,sans-Serif" font-size="10.00" fill="#000000">/demos/ntv2ccgrabber/main.cpp</text>
</a>
</g>
</g>
<!-- Node37&#45;&gt;Node38 -->
<g id="edge7" class="edge">
<title>Node37&#45;&gt;Node38</title>
<path fill="none" stroke="#191970" d="M234.8108,-71.9424C222.0178,-61.9639 207.7449,-50.831 195.8126,-41.5239"/>
<polygon fill="#191970" stroke="#191970" points="232.9267,-74.9116 242.9644,-78.3022 237.232,-69.3921 232.9267,-74.9116"/>
</g>
<!-- Node39 -->
<g id="node9" class="node">
<title>Node39</title>
<g id="a_node9"><a xlink:href="../../d9/dca/ntv2ccgrabber_8cpp.html" target="_top" xlink:title="Implementation of NTV2CCGrabber class. ">
<polygon fill="#ffffff" stroke="#000000" points="271.5,-.5 271.5,-41.5 467.5,-41.5 467.5,-.5 271.5,-.5"/>
<text text-anchor="start" x="279.5" y="-29.5" font-family="Helvetica,sans-Serif" font-size="10.00" fill="#000000">/home/tcbuilder/buildAgent</text>
<text text-anchor="start" x="279.5" y="-18.5" font-family="Helvetica,sans-Serif" font-size="10.00" fill="#000000">/work/df8e8cce5bebfd58/libajantv2</text>
<text text-anchor="middle" x="369.5" y="-7.5" font-family="Helvetica,sans-Serif" font-size="10.00" fill="#000000">/demos/ntv2ccgrabber/ntv2ccgrabber.cpp</text>
</a>
</g>
</g>
<!-- Node37&#45;&gt;Node39 -->
<g id="edge8" class="edge">
<title>Node37&#45;&gt;Node39</title>
<path fill="none" stroke="#191970" d="M304.1892,-71.9424C316.9822,-61.9639 331.2551,-50.831 343.1874,-41.5239"/>
<polygon fill="#191970" stroke="#191970" points="301.768,-69.3921 296.0356,-78.3022 306.0733,-74.9116 301.768,-69.3921"/>
</g>
<!-- Node41 -->
<g id="node11" class="node">
<title>Node41</title>
<g id="a_node11"><a xlink:href="../../df/d2f/ntv2captiontranslator608to708_8h.html" target="_top" xlink:title="Declares the CNTV2CaptionTranslator608to708 class. ">
<polygon fill="#ffffff" stroke="#000000" points="499,-234.5 499,-275.5 696,-275.5 696,-234.5 499,-234.5"/>
<text text-anchor="start" x="507" y="-263.5" font-family="Helvetica,sans-Serif" font-size="10.00" fill="#000000">/home/tcbuilder/buildAgent</text>
<text text-anchor="start" x="507" y="-252.5" font-family="Helvetica,sans-Serif" font-size="10.00" fill="#000000">/work/df8e8cce5bebfd58/libajacc</text>
<text text-anchor="middle" x="597.5" y="-241.5" font-family="Helvetica,sans-Serif" font-size="10.00" fill="#000000">/includes/ntv2captiontranslator608to708.h</text>
</a>
</g>
</g>
<!-- Node40&#45;&gt;Node41 -->
<g id="edge10" class="edge">
<title>Node40&#45;&gt;Node41</title>
<path fill="none" stroke="#191970" d="M597.5,-302.0789C597.5,-293.2178 597.5,-283.7747 597.5,-275.6898"/>
<polygon fill="#191970" stroke="#191970" points="594.0001,-302.0974 597.5,-312.0974 601.0001,-302.0975 594.0001,-302.0974"/>
</g>
<!-- Node43 -->
<g id="node13" class="node">
<title>Node43</title>
<g id="a_node13"><a xlink:href="../../d8/dc4/ntv2ccplayer_2main_8cpp.html" target="_top" xlink:title="Complex demonstration application that plays synthesized video to SDI output containing NTSC captions...">
<polygon fill="#ffffff" stroke="#000000" points="724,-234.5 724,-275.5 891,-275.5 891,-234.5 724,-234.5"/>
<text text-anchor="start" x="732" y="-263.5" font-family="Helvetica,sans-Serif" font-size="10.00" fill="#000000">/home/tcbuilder/buildAgent</text>
<text text-anchor="start" x="732" y="-252.5" font-family="Helvetica,sans-Serif" font-size="10.00" fill="#000000">/work/df8e8cce5bebfd58/libajantv2</text>
<text text-anchor="middle" x="807.5" y="-241.5" font-family="Helvetica,sans-Serif" font-size="10.00" fill="#000000">/demos/ntv2ccplayer/main.cpp</text>
</a>
</g>
</g>
<!-- Node42&#45;&gt;Node43 -->
<g id="edge13" class="edge">
<title>Node42&#45;&gt;Node43</title>
<path fill="none" stroke="#191970" d="M813.5358,-302.0789C812.3997,-293.2178 811.1891,-283.7747 810.1525,-275.6898"/>
<polygon fill="#191970" stroke="#191970" points="810.0769,-302.6237 814.8202,-312.0974 817.02,-301.7335 810.0769,-302.6237"/>
</g>
<!-- Node44 -->
<g id="node14" class="node">
<title>Node44</title>
<g id="a_node14"><a xlink:href="../../de/d67/ntv2ccplayer_8cpp.html" target="_top" xlink:title="Implementation of NTV2CCPlayer class. ">
<polygon fill="#ffffff" stroke="#000000" points="909.5,-234.5 909.5,-275.5 1093.5,-275.5 1093.5,-234.5 909.5,-234.5"/>
<text text-anchor="start" x="917.5" y="-263.5" font-family="Helvetica,sans-Serif" font-size="10.00" fill="#000000">/home/tcbuilder/buildAgent</text>
<text text-anchor="start" x="917.5" y="-252.5" font-family="Helvetica,sans-Serif" font-size="10.00" fill="#000000">/work/df8e8cce5bebfd58/libajantv2</text>
<text text-anchor="middle" x="1001.5" y="-241.5" font-family="Helvetica,sans-Serif" font-size="10.00" fill="#000000">/demos/ntv2ccplayer/ntv2ccplayer.cpp</text>
</a>
</g>
</g>
<!-- Node42&#45;&gt;Node44 -->
<g id="edge14" class="edge">
<title>Node42&#45;&gt;Node44</title>
<path fill="none" stroke="#191970" d="M875.6688,-308.3415C900.587,-297.7784 929.3521,-285.5844 953.0847,-275.5239"/>
<polygon fill="#191970" stroke="#191970" points="874.1664,-305.1768 866.3255,-312.3022 876.8985,-311.6216 874.1664,-305.1768"/>
</g>
</g>
</svg>
