<?xml version="1.0" encoding="UTF-8" standalone="no"?>
<!DOCTYPE svg PUBLIC "-//W3C//DTD SVG 1.1//EN"
 "http://www.w3.org/Graphics/SVG/1.1/DTD/svg11.dtd">
<!-- Generated by graphviz version 2.43.0 (0)
 -->
<!-- Title: /home/tcbuilder/buildAgent/work/df8e8cce5bebfd58/libajantv2/demos/ajapreviewwidget.cpp Pages: 1 -->
<svg width="534pt" height="218pt"
 viewBox="0.00 0.00 533.50 218.00" xmlns="http://www.w3.org/2000/svg" xmlns:xlink="http://www.w3.org/1999/xlink">
<g id="graph0" class="graph" transform="scale(1 1) rotate(0) translate(4 214)">
<title>/home/tcbuilder/buildAgent/work/df8e8cce5bebfd58/libajantv2/demos/ajapreviewwidget.cpp</title>
<polygon fill="white" stroke="transparent" points="-4,4 -4,-214 529.5,-214 529.5,4 -4,4"/>
<!-- Node1 -->
<g id="node1" class="node">
<title>Node1</title>
<g id="a_node1"><a xlink:title=" ">
<polygon fill="#bfbfbf" stroke="black" points="186.5,-168.5 186.5,-209.5 374.5,-209.5 374.5,-168.5 186.5,-168.5"/>
<text text-anchor="start" x="194.5" y="-197.5" font-family="Helvetica,sans-Serif" font-size="10.00">/home/tcbuilder/buildAgent</text>
<text text-anchor="start" x="194.5" y="-186.5" font-family="Helvetica,sans-Serif" font-size="10.00">/work/df8e8cce5bebfd58/libajantv2</text>
<text text-anchor="middle" x="280.5" y="-175.5" font-family="Helvetica,sans-Serif" font-size="10.00">/demos/ajapreviewwidget.cpp</text>
</a>
</g>
</g>
<!-- Node2 -->
<g id="node2" class="node">
<title>Node2</title>
<g id="a_node2"><a xlink:href="../../df/d65/ajapreviewwidget_8h.html" target="_top" xlink:title=" ">
<polygon fill="white" stroke="black" points="224,-112.5 224,-131.5 337,-131.5 337,-112.5 224,-112.5"/>
<text text-anchor="middle" x="280.5" y="-119.5" font-family="Helvetica,sans-Serif" font-size="10.00">ajapreviewwidget.h</text>
</a>
</g>
</g>
<!-- Node1&#45;&gt;Node2 -->
<g id="edge1" class="edge">
<title>Node1&#45;&gt;Node2</title>
<path fill="none" stroke="midnightblue" d="M280.5,-168.5C280.5,-160.07 280.5,-150.24 280.5,-141.87"/>
<polygon fill="midnightblue" stroke="midnightblue" points="284,-141.65 280.5,-131.65 277,-141.65 284,-141.65"/>
</g>
<!-- Node3 -->
<g id="node3" class="node">
<title>Node3</title>
<g id="a_node3"><a xlink:title=" ">
<polygon fill="white" stroke="#bfbfbf" points="0,-56.5 0,-75.5 79,-75.5 79,-56.5 0,-56.5"/>
<text text-anchor="middle" x="39.5" y="-63.5" font-family="Helvetica,sans-Serif" font-size="10.00">QBasicTimer</text>
</a>
</g>
</g>
<!-- Node2&#45;&gt;Node3 -->
<g id="edge2" class="edge">
<title>Node2&#45;&gt;Node3</title>
<path fill="none" stroke="midnightblue" d="M242.31,-112.44C200.36,-103.04 132.91,-87.93 87.43,-77.74"/>
<polygon fill="midnightblue" stroke="midnightblue" points="88.03,-74.29 77.51,-75.52 86.5,-81.12 88.03,-74.29"/>
</g>
<!-- Node4 -->
<g id="node4" class="node">
<title>Node4</title>
<g id="a_node4"><a xlink:title=" ">
<polygon fill="white" stroke="#bfbfbf" points="97.5,-56.5 97.5,-75.5 147.5,-75.5 147.5,-56.5 97.5,-56.5"/>
<text text-anchor="middle" x="122.5" y="-63.5" font-family="Helvetica,sans-Serif" font-size="10.00">QtCore</text>
</a>
</g>
</g>
<!-- Node2&#45;&gt;Node4 -->
<g id="edge3" class="edge">
<title>Node2&#45;&gt;Node4</title>
<path fill="none" stroke="midnightblue" d="M255.46,-112.44C228.88,-103.36 186.69,-88.94 156.98,-78.78"/>
<polygon fill="midnightblue" stroke="midnightblue" points="158.01,-75.44 147.42,-75.52 155.75,-82.06 158.01,-75.44"/>
</g>
<!-- Node5 -->
<g id="node5" class="node">
<title>Node5</title>
<g id="a_node5"><a xlink:title=" ">
<polygon fill="white" stroke="#bfbfbf" points="165.5,-56.5 165.5,-75.5 233.5,-75.5 233.5,-56.5 165.5,-56.5"/>
<text text-anchor="middle" x="199.5" y="-63.5" font-family="Helvetica,sans-Serif" font-size="10.00">QtWidgets</text>
</a>
</g>
</g>
<!-- Node2&#45;&gt;Node5 -->
<g id="edge4" class="edge">
<title>Node2&#45;&gt;Node5</title>
<path fill="none" stroke="midnightblue" d="M267.49,-112.32C254.97,-103.98 235.82,-91.21 221.03,-81.35"/>
<polygon fill="midnightblue" stroke="midnightblue" points="222.74,-78.29 212.48,-75.65 218.86,-84.11 222.74,-78.29"/>
</g>
<!-- Node6 -->
<g id="node6" class="node">
<title>Node6</title>
<g id="a_node6"><a xlink:title=" ">
<polygon fill="white" stroke="#bfbfbf" points="251.5,-56.5 251.5,-75.5 309.5,-75.5 309.5,-56.5 251.5,-56.5"/>
<text text-anchor="middle" x="280.5" y="-63.5" font-family="Helvetica,sans-Serif" font-size="10.00">QThread</text>
</a>
</g>
</g>
<!-- Node2&#45;&gt;Node6 -->
<g id="edge5" class="edge">
<title>Node2&#45;&gt;Node6</title>
<path fill="none" stroke="midnightblue" d="M280.5,-112.08C280.5,-105.01 280.5,-94.86 280.5,-85.99"/>
<polygon fill="midnightblue" stroke="midnightblue" points="284,-85.75 280.5,-75.75 277,-85.75 284,-85.75"/>
</g>
<!-- Node7 -->
<g id="node7" class="node">
<title>Node7</title>
<g id="a_node7"><a xlink:title=" ">
<polygon fill="white" stroke="#bfbfbf" points="328,-56.5 328,-75.5 369,-75.5 369,-56.5 328,-56.5"/>
<text text-anchor="middle" x="348.5" y="-63.5" font-family="Helvetica,sans-Serif" font-size="10.00">QList</text>
</a>
</g>
</g>
<!-- Node2&#45;&gt;Node7 -->
<g id="edge6" class="edge">
<title>Node2&#45;&gt;Node7</title>
<path fill="none" stroke="midnightblue" d="M291.43,-112.32C301.67,-104.18 317.22,-91.84 329.5,-82.09"/>
<polygon fill="midnightblue" stroke="midnightblue" points="331.72,-84.79 337.38,-75.83 327.37,-79.31 331.72,-84.79"/>
</g>
<!-- Node8 -->
<g id="node8" class="node">
<title>Node8</title>
<g id="a_node8"><a xlink:title=" ">
<polygon fill="white" stroke="#bfbfbf" points="387.5,-56.5 387.5,-75.5 439.5,-75.5 439.5,-56.5 387.5,-56.5"/>
<text text-anchor="middle" x="413.5" y="-63.5" font-family="Helvetica,sans-Serif" font-size="10.00">QRectF</text>
</a>
</g>
</g>
<!-- Node2&#45;&gt;Node8 -->
<g id="edge7" class="edge">
<title>Node2&#45;&gt;Node8</title>
<path fill="none" stroke="midnightblue" d="M301.57,-112.44C323.56,-103.52 358.23,-89.44 383.16,-79.32"/>
<polygon fill="midnightblue" stroke="midnightblue" points="384.58,-82.52 392.52,-75.52 381.94,-76.04 384.58,-82.52"/>
</g>
<!-- Node9 -->
<g id="node9" class="node">
<title>Node9</title>
<g id="a_node9"><a xlink:href="../../db/de2/ajatypes_8h.html" target="_top" xlink:title="Declares the most fundamental data types used by NTV2. Since Windows NT was the first principal devel...">
<polygon fill="white" stroke="black" points="457.5,-56.5 457.5,-75.5 525.5,-75.5 525.5,-56.5 457.5,-56.5"/>
<text text-anchor="middle" x="491.5" y="-63.5" font-family="Helvetica,sans-Serif" font-size="10.00">ajatypes.h</text>
</a>
</g>
</g>
<!-- Node2&#45;&gt;Node9 -->
<g id="edge8" class="edge">
<title>Node2&#45;&gt;Node9</title>
<path fill="none" stroke="midnightblue" d="M313.93,-112.44C350.36,-103.12 408.73,-88.18 448.53,-78"/>
<polygon fill="midnightblue" stroke="midnightblue" points="449.4,-81.39 458.22,-75.52 447.67,-74.61 449.4,-81.39"/>
</g>
<!-- Node10 -->
<g id="node10" class="node">
<title>Node10</title>
<g id="a_node10"><a xlink:title=" ">
<polygon fill="white" stroke="#bfbfbf" points="465,-0.5 465,-19.5 518,-19.5 518,-0.5 465,-0.5"/>
<text text-anchor="middle" x="491.5" y="-7.5" font-family="Helvetica,sans-Serif" font-size="10.00">stdint.h</text>
</a>
</g>
</g>
<!-- Node9&#45;&gt;Node10 -->
<g id="edge9" class="edge">
<title>Node9&#45;&gt;Node10</title>
<path fill="none" stroke="midnightblue" d="M491.5,-56.08C491.5,-49.01 491.5,-38.86 491.5,-29.99"/>
<polygon fill="midnightblue" stroke="midnightblue" points="495,-29.75 491.5,-19.75 488,-29.75 495,-29.75"/>
</g>
</g>
</svg>
