<?xml version="1.0" encoding="UTF-8" standalone="no"?>
<!DOCTYPE svg PUBLIC "-//W3C//DTD SVG 1.1//EN"
 "http://www.w3.org/Graphics/SVG/1.1/DTD/svg11.dtd">
<!-- Generated by graphviz version 2.40.1 (0)
 -->
<!-- Title: /home/tcbuilder/buildAgent/work/df8e8cce5bebfd58/libajantv2/demos/ntv2encodehevcfile Pages: 1 -->
<svg width="142pt" height="223pt"
 viewBox="0.00 0.00 142.00 223.00" xmlns="http://www.w3.org/2000/svg" xmlns:xlink="http://www.w3.org/1999/xlink">
<g id="graph0" class="graph" transform="scale(1 1) rotate(0) translate(4 219)">
<title>/home/tcbuilder/buildAgent/work/df8e8cce5bebfd58/libajantv2/demos/ntv2encodehevcfile</title>
<polygon fill="#ffffff" stroke="transparent" points="-4,4 -4,-219 138,-219 138,4 -4,4"/>
<g id="clust1" class="cluster">
<title>clusterdir_957939c99aa964633a97cef056d70db5</title>
<g id="a_clust1"><a xlink:href="dir_957939c99aa964633a97cef056d70db5.html" target="_top" xlink:title="demos">
<polygon fill="#ddddee" stroke="#000000" points="8,-136 8,-207 126,-207 126,-136 8,-136"/>
<text text-anchor="middle" x="67" y="-195" font-family="Helvetica,sans-Serif" font-size="10.00" fill="#000000">demos</text>
</a>
</g>
</g>
<!-- dir_c0c81e1630f1c97f95a45db8707244f1 -->
<g id="node1" class="node">
<title>dir_c0c81e1630f1c97f95a45db8707244f1</title>
<g id="a_node1"><a xlink:href="dir_c0c81e1630f1c97f95a45db8707244f1.html" target="_top" xlink:title="ntv2encodehevcfile">
<polygon fill="#eeeeff" stroke="#000000" points="117.5,-180 16.5,-180 16.5,-144 117.5,-144 117.5,-180"/>
<text text-anchor="middle" x="67" y="-159.5" font-family="Helvetica,sans-Serif" font-size="10.00" fill="#000000">ntv2encodehevcfile</text>
</a>
</g>
</g>
<!-- dir_e87eb6ce74e63cd1183c59eb94e728a6 -->
<g id="node2" class="node">
<title>dir_e87eb6ce74e63cd1183c59eb94e728a6</title>
<g id="a_node2"><a xlink:href="dir_e87eb6ce74e63cd1183c59eb94e728a6.html" target="_top" xlink:title="ajabase">
<polygon fill="#ffffff" stroke="#ff0000" points="66,-108 12,-108 12,-72 66,-72 66,-108"/>
<text text-anchor="middle" x="39" y="-87.5" font-family="Helvetica,sans-Serif" font-size="10.00" fill="#000000">ajabase</text>
</a>
</g>
</g>
<!-- dir_c0c81e1630f1c97f95a45db8707244f1&#45;&gt;dir_e87eb6ce74e63cd1183c59eb94e728a6 -->
<g id="edge1" class="edge">
<title>dir_c0c81e1630f1c97f95a45db8707244f1&#45;&gt;dir_e87eb6ce74e63cd1183c59eb94e728a6</title>
<path fill="none" stroke="#000000" d="M59.9344,-143.8314C56.874,-135.9617 53.2221,-126.5712 49.8318,-117.8533"/>
<polygon fill="#000000" stroke="#000000" points="53.0473,-116.4647 46.1607,-108.4133 46.5232,-119.0019 53.0473,-116.4647"/>
<g id="a_edge1&#45;headlabel"><a xlink:href="dir_000035_000006.html" target="_top" xlink:title="18">
<text text-anchor="middle" x="56.9963" y="-116.2859" font-family="Helvetica,sans-Serif" font-size="10.00" fill="#000000">18</text>
</a>
</g>
</g>
<!-- dir_dcc334097b934f5294dca7e33f0e0621 -->
<g id="node3" class="node">
<title>dir_dcc334097b934f5294dca7e33f0e0621</title>
<g id="a_node3"><a xlink:href="dir_dcc334097b934f5294dca7e33f0e0621.html" target="_top" xlink:title="ajantv2">
<polygon fill="#ffffff" stroke="#ff0000" points="66,-36 12,-36 12,0 66,0 66,-36"/>
<text text-anchor="middle" x="39" y="-15.5" font-family="Helvetica,sans-Serif" font-size="10.00" fill="#000000">ajantv2</text>
</a>
</g>
</g>
<!-- dir_c0c81e1630f1c97f95a45db8707244f1&#45;&gt;dir_dcc334097b934f5294dca7e33f0e0621 -->
<g id="edge2" class="edge">
<title>dir_c0c81e1630f1c97f95a45db8707244f1&#45;&gt;dir_dcc334097b934f5294dca7e33f0e0621</title>
<path fill="none" stroke="#000000" d="M72.5996,-143.6576C77.3299,-125.1725 82.2732,-96.0216 75,-72 72.0436,-62.2355 66.6748,-52.6229 60.97,-44.2762"/>
<polygon fill="#000000" stroke="#000000" points="63.7129,-42.0973 54.9905,-36.0831 58.0586,-46.2239 63.7129,-42.0973"/>
<g id="a_edge2&#45;headlabel"><a xlink:href="dir_000035_000017.html" target="_top" xlink:title="15">
<text text-anchor="middle" x="68.1253" y="-40.827" font-family="Helvetica,sans-Serif" font-size="10.00" fill="#000000">15</text>
</a>
</g>
</g>
<!-- dir_e87eb6ce74e63cd1183c59eb94e728a6&#45;&gt;dir_dcc334097b934f5294dca7e33f0e0621 -->
<g id="edge3" class="edge">
<title>dir_e87eb6ce74e63cd1183c59eb94e728a6&#45;&gt;dir_dcc334097b934f5294dca7e33f0e0621</title>
<path fill="none" stroke="#000000" d="M33.0476,-71.8314C32.2972,-64.131 32.0763,-54.9743 32.3849,-46.4166"/>
<polygon fill="#000000" stroke="#000000" points="35.8792,-46.6161 33.024,-36.4133 28.8935,-46.1697 35.8792,-46.6161"/>
<g id="a_edge3&#45;headlabel"><a xlink:href="dir_000006_000017.html" target="_top" xlink:title="2">
<text text-anchor="middle" x="38.4836" y="-47.8844" font-family="Helvetica,sans-Serif" font-size="10.00" fill="#000000">2</text>
</a>
</g>
</g>
<!-- dir_dcc334097b934f5294dca7e33f0e0621&#45;&gt;dir_e87eb6ce74e63cd1183c59eb94e728a6 -->
<g id="edge4" class="edge">
<title>dir_dcc334097b934f5294dca7e33f0e0621&#45;&gt;dir_e87eb6ce74e63cd1183c59eb94e728a6</title>
<path fill="none" stroke="#000000" d="M44.976,-36.4133C45.7071,-44.0593 45.9203,-53.1084 45.6155,-61.5726"/>
<polygon fill="#000000" stroke="#000000" points="42.1048,-61.6264 44.9524,-71.8314 49.0902,-62.078 42.1048,-61.6264"/>
<g id="a_edge4&#45;headlabel"><a xlink:href="dir_000017_000006.html" target="_top" xlink:title="76">
<text text-anchor="middle" x="39.5032" y="-55.3562" font-family="Helvetica,sans-Serif" font-size="10.00" fill="#000000">76</text>
</a>
</g>
</g>
</g>
</svg>
