<?xml version="1.0" encoding="UTF-8" standalone="no"?>
<!DOCTYPE svg PUBLIC "-//W3C//DTD SVG 1.1//EN"
 "http://www.w3.org/Graphics/SVG/1.1/DTD/svg11.dtd">
<!-- Generated by graphviz version 2.40.1 (0)
 -->
<!-- Title: /home/tcbuilder/buildAgent/work/df8e8cce5bebfd58/libajantv2/ajabase/system/windows Pages: 1 -->
<svg width="96pt" height="151pt"
 viewBox="0.00 0.00 96.00 151.00" xmlns="http://www.w3.org/2000/svg" xmlns:xlink="http://www.w3.org/1999/xlink">
<g id="graph0" class="graph" transform="scale(1 1) rotate(0) translate(4 147)">
<title>/home/tcbuilder/buildAgent/work/df8e8cce5bebfd58/libajantv2/ajabase/system/windows</title>
<polygon fill="#ffffff" stroke="transparent" points="-4,4 -4,-147 92,-147 92,4 -4,4"/>
<g id="clust1" class="cluster">
<title>clusterdir_2a5fa578bf70f724f924d7f0ed01f20c</title>
<g id="a_clust1"><a xlink:href="dir_2a5fa578bf70f724f924d7f0ed01f20c.html" target="_top" xlink:title="system">
<polygon fill="#ddddee" stroke="#000000" points="8,-64 8,-135 80,-135 80,-64 8,-64"/>
<text text-anchor="middle" x="44" y="-123" font-family="Helvetica,sans-Serif" font-size="10.00" fill="#000000">system</text>
</a>
</g>
</g>
<!-- dir_0cc7e674a10c8be9c17fc197df151ee1 -->
<g id="node1" class="node">
<title>dir_0cc7e674a10c8be9c17fc197df151ee1</title>
<g id="a_node1"><a xlink:href="dir_0cc7e674a10c8be9c17fc197df151ee1.html" target="_top" xlink:title="windows">
<polygon fill="#eeeeff" stroke="#000000" points="71.5,-108 16.5,-108 16.5,-72 71.5,-72 71.5,-108"/>
<text text-anchor="middle" x="44" y="-87.5" font-family="Helvetica,sans-Serif" font-size="10.00" fill="#000000">windows</text>
</a>
</g>
</g>
<!-- dir_8f3154ce023319d0c7e8bb4441cab51f -->
<g id="node2" class="node">
<title>dir_8f3154ce023319d0c7e8bb4441cab51f</title>
<g id="a_node2"><a xlink:href="dir_8f3154ce023319d0c7e8bb4441cab51f.html" target="_top" xlink:title="common">
<polygon fill="none" stroke="#000000" points="71,-36 17,-36 17,0 71,0 71,-36"/>
<text text-anchor="middle" x="44" y="-15.5" font-family="Helvetica,sans-Serif" font-size="10.00" fill="#000000">common</text>
</a>
</g>
</g>
<!-- dir_0cc7e674a10c8be9c17fc197df151ee1&#45;&gt;dir_8f3154ce023319d0c7e8bb4441cab51f -->
<g id="edge1" class="edge">
<title>dir_0cc7e674a10c8be9c17fc197df151ee1&#45;&gt;dir_8f3154ce023319d0c7e8bb4441cab51f</title>
<path fill="none" stroke="#000000" d="M44,-71.8314C44,-64.131 44,-54.9743 44,-46.4166"/>
<polygon fill="#000000" stroke="#000000" points="47.5001,-46.4132 44,-36.4133 40.5001,-46.4133 47.5001,-46.4132"/>
<g id="a_edge1&#45;headlabel"><a xlink:href="dir_000016_000007.html" target="_top" xlink:title="6">
<text text-anchor="middle" x="50.3393" y="-47.5079" font-family="Helvetica,sans-Serif" font-size="10.00" fill="#000000">6</text>
</a>
</g>
</g>
</g>
</svg>
