<?xml version="1.0" encoding="UTF-8" standalone="no"?>
<!DOCTYPE svg PUBLIC "-//W3C//DTD SVG 1.1//EN"
 "http://www.w3.org/Graphics/SVG/1.1/DTD/svg11.dtd">
<!-- Generated by graphviz version 2.40.1 (0)
 -->
<!-- Title: /home/tcbuilder/buildAgent/work/df8e8cce5bebfd58/libajantv2/demos/ntv2ccplayer Pages: 1 -->
<svg width="147pt" height="367pt"
 viewBox="0.00 0.00 146.56 367.00" xmlns="http://www.w3.org/2000/svg" xmlns:xlink="http://www.w3.org/1999/xlink">
<g id="graph0" class="graph" transform="scale(1 1) rotate(0) translate(4 363)">
<title>/home/tcbuilder/buildAgent/work/df8e8cce5bebfd58/libajantv2/demos/ntv2ccplayer</title>
<polygon fill="#ffffff" stroke="transparent" points="-4,4 -4,-363 142.5622,-363 142.5622,4 -4,4"/>
<g id="clust1" class="cluster">
<title>clusterdir_957939c99aa964633a97cef056d70db5</title>
<g id="a_clust1"><a xlink:href="dir_957939c99aa964633a97cef056d70db5.html" target="_top" xlink:title="demos">
<polygon fill="#ddddee" stroke="#000000" points="21.7954,-280 21.7954,-351 109.7954,-351 109.7954,-280 21.7954,-280"/>
<text text-anchor="middle" x="65.7954" y="-339" font-family="Helvetica,sans-Serif" font-size="10.00" fill="#000000">demos</text>
</a>
</g>
</g>
<!-- dir_31e67d0edce47235535d23f0ab7d70d7 -->
<g id="node1" class="node">
<title>dir_31e67d0edce47235535d23f0ab7d70d7</title>
<g id="a_node1"><a xlink:href="dir_31e67d0edce47235535d23f0ab7d70d7.html" target="_top" xlink:title="ntv2ccplayer">
<polygon fill="#eeeeff" stroke="#000000" points="101.7954,-324 29.7954,-324 29.7954,-288 101.7954,-288 101.7954,-324"/>
<text text-anchor="middle" x="65.7954" y="-303.5" font-family="Helvetica,sans-Serif" font-size="10.00" fill="#000000">ntv2ccplayer</text>
</a>
</g>
</g>
<!-- dir_b59e94d4ad5c664834b28d5f17def224 -->
<g id="node2" class="node">
<title>dir_b59e94d4ad5c664834b28d5f17def224</title>
<g id="a_node2"><a xlink:href="dir_b59e94d4ad5c664834b28d5f17def224.html" target="_top" xlink:title="ajaanc">
<polygon fill="#ffffff" stroke="#ff0000" points="65.7954,-180 11.7954,-180 11.7954,-144 65.7954,-144 65.7954,-180"/>
<text text-anchor="middle" x="38.7954" y="-159.5" font-family="Helvetica,sans-Serif" font-size="10.00" fill="#000000">ajaanc</text>
</a>
</g>
</g>
<!-- dir_31e67d0edce47235535d23f0ab7d70d7&#45;&gt;dir_b59e94d4ad5c664834b28d5f17def224 -->
<g id="edge1" class="edge">
<title>dir_31e67d0edce47235535d23f0ab7d70d7&#45;&gt;dir_b59e94d4ad5c664834b28d5f17def224</title>
<path fill="none" stroke="#000000" d="M62.3758,-287.7623C57.7503,-263.0928 49.4566,-218.8598 44.0404,-189.9731"/>
<polygon fill="#000000" stroke="#000000" points="47.4702,-189.2733 42.1872,-180.0896 40.5901,-190.5634 47.4702,-189.2733"/>
<g id="a_edge1&#45;headlabel"><a xlink:href="dir_000031_000003.html" target="_top" xlink:title="3">
<text text-anchor="middle" x="50.9232" y="-189.7831" font-family="Helvetica,sans-Serif" font-size="10.00" fill="#000000">3</text>
</a>
</g>
</g>
<!-- dir_e87eb6ce74e63cd1183c59eb94e728a6 -->
<g id="node3" class="node">
<title>dir_e87eb6ce74e63cd1183c59eb94e728a6</title>
<g id="a_node3"><a xlink:href="dir_e87eb6ce74e63cd1183c59eb94e728a6.html" target="_top" xlink:title="ajabase">
<polygon fill="#ffffff" stroke="#ff0000" points="120.7954,-108 66.7954,-108 66.7954,-72 120.7954,-72 120.7954,-108"/>
<text text-anchor="middle" x="93.7954" y="-87.5" font-family="Helvetica,sans-Serif" font-size="10.00" fill="#000000">ajabase</text>
</a>
</g>
</g>
<!-- dir_31e67d0edce47235535d23f0ab7d70d7&#45;&gt;dir_e87eb6ce74e63cd1183c59eb94e728a6 -->
<g id="edge2" class="edge">
<title>dir_31e67d0edce47235535d23f0ab7d70d7&#45;&gt;dir_e87eb6ce74e63cd1183c59eb94e728a6</title>
<path fill="none" stroke="#000000" d="M97.2515,-287.9802C109.8267,-278.9479 122.9343,-266.7662 129.7954,-252 150.4585,-207.5299 127.7338,-150.5847 110.1799,-117.4087"/>
<polygon fill="#000000" stroke="#000000" points="113.0643,-115.3904 105.1794,-108.3138 106.9303,-118.7629 113.0643,-115.3904"/>
<g id="a_edge2&#45;headlabel"><a xlink:href="dir_000031_000006.html" target="_top" xlink:title="10">
<text text-anchor="middle" x="117.2841" y="-114.6723" font-family="Helvetica,sans-Serif" font-size="10.00" fill="#000000">10</text>
</a>
</g>
</g>
<!-- dir_c4d775bf529828732cc762999cf6d75b -->
<g id="node4" class="node">
<title>dir_c4d775bf529828732cc762999cf6d75b</title>
<g id="a_node4"><a xlink:href="dir_c4d775bf529828732cc762999cf6d75b.html" target="_top" xlink:title="libajacc">
<polygon fill="#ffffff" stroke="#ff0000" points="120.7954,-252 66.7954,-252 66.7954,-216 120.7954,-216 120.7954,-252"/>
<text text-anchor="middle" x="93.7954" y="-231.5" font-family="Helvetica,sans-Serif" font-size="10.00" fill="#000000">libajacc</text>
</a>
</g>
</g>
<!-- dir_31e67d0edce47235535d23f0ab7d70d7&#45;&gt;dir_c4d775bf529828732cc762999cf6d75b -->
<g id="edge3" class="edge">
<title>dir_31e67d0edce47235535d23f0ab7d70d7&#45;&gt;dir_c4d775bf529828732cc762999cf6d75b</title>
<path fill="none" stroke="#000000" d="M72.861,-287.8314C75.9214,-279.9617 79.5733,-270.5712 82.9636,-261.8533"/>
<polygon fill="#000000" stroke="#000000" points="86.2722,-263.0019 86.6347,-252.4133 79.7481,-260.4647 86.2722,-263.0019"/>
<g id="a_edge3&#45;headlabel"><a xlink:href="dir_000031_000000.html" target="_top" xlink:title="4">
<text text-anchor="middle" x="87.6156" y="-264.8812" font-family="Helvetica,sans-Serif" font-size="10.00" fill="#000000">4</text>
</a>
</g>
</g>
<!-- dir_dcc334097b934f5294dca7e33f0e0621 -->
<g id="node5" class="node">
<title>dir_dcc334097b934f5294dca7e33f0e0621</title>
<g id="a_node5"><a xlink:href="dir_dcc334097b934f5294dca7e33f0e0621.html" target="_top" xlink:title="ajantv2">
<polygon fill="#ffffff" stroke="#ff0000" points="88.7954,-36 34.7954,-36 34.7954,0 88.7954,0 88.7954,-36"/>
<text text-anchor="middle" x="61.7954" y="-15.5" font-family="Helvetica,sans-Serif" font-size="10.00" fill="#000000">ajantv2</text>
</a>
</g>
</g>
<!-- dir_31e67d0edce47235535d23f0ab7d70d7&#45;&gt;dir_dcc334097b934f5294dca7e33f0e0621 -->
<g id="edge4" class="edge">
<title>dir_31e67d0edce47235535d23f0ab7d70d7&#45;&gt;dir_dcc334097b934f5294dca7e33f0e0621</title>
<path fill="none" stroke="#000000" d="M53.2879,-287.8398C37.8697,-264.2436 12.5164,-221.1787 2.7954,-180 -8.8337,-130.7382 20.6439,-75.871 41.9961,-44.2981"/>
<polygon fill="#000000" stroke="#000000" points="44.91,-46.2384 47.7621,-36.0346 39.1694,-42.2327 44.91,-46.2384"/>
<g id="a_edge4&#45;headlabel"><a xlink:href="dir_000031_000017.html" target="_top" xlink:title="7">
<text text-anchor="middle" x="45.1816" y="-48.311" font-family="Helvetica,sans-Serif" font-size="10.00" fill="#000000">7</text>
</a>
</g>
</g>
<!-- dir_b59e94d4ad5c664834b28d5f17def224&#45;&gt;dir_e87eb6ce74e63cd1183c59eb94e728a6 -->
<g id="edge5" class="edge">
<title>dir_b59e94d4ad5c664834b28d5f17def224&#45;&gt;dir_e87eb6ce74e63cd1183c59eb94e728a6</title>
<path fill="none" stroke="#000000" d="M52.6742,-143.8314C59.009,-135.5386 66.6338,-125.557 73.588,-116.4533"/>
<polygon fill="#000000" stroke="#000000" points="76.4406,-118.4847 79.7297,-108.4133 70.8779,-114.2353 76.4406,-118.4847"/>
<g id="a_edge5&#45;headlabel"><a xlink:href="dir_000003_000006.html" target="_top" xlink:title="10">
<text text-anchor="middle" x="76.5149" y="-120.5647" font-family="Helvetica,sans-Serif" font-size="10.00" fill="#000000">10</text>
</a>
</g>
</g>
<!-- dir_b59e94d4ad5c664834b28d5f17def224&#45;&gt;dir_dcc334097b934f5294dca7e33f0e0621 -->
<g id="edge6" class="edge">
<title>dir_b59e94d4ad5c664834b28d5f17def224&#45;&gt;dir_dcc334097b934f5294dca7e33f0e0621</title>
<path fill="none" stroke="#000000" d="M37.0352,-143.7623C38.5048,-119.0928 45.3035,-74.8598 51.8554,-45.9731"/>
<polygon fill="#000000" stroke="#000000" points="55.2969,-46.6324 54.2478,-36.0896 48.4933,-44.9855 55.2969,-46.6324"/>
<g id="a_edge6&#45;headlabel"><a xlink:href="dir_000003_000017.html" target="_top" xlink:title="7">
<text text-anchor="middle" x="57.2108" y="-48.2941" font-family="Helvetica,sans-Serif" font-size="10.00" fill="#000000">7</text>
</a>
</g>
</g>
<!-- dir_e87eb6ce74e63cd1183c59eb94e728a6&#45;&gt;dir_dcc334097b934f5294dca7e33f0e0621 -->
<g id="edge7" class="edge">
<title>dir_e87eb6ce74e63cd1183c59eb94e728a6&#45;&gt;dir_dcc334097b934f5294dca7e33f0e0621</title>
<path fill="none" stroke="#000000" d="M79.7681,-71.8314C75.5035,-63.9617 71.1161,-54.5712 67.5807,-45.8533"/>
<polygon fill="#000000" stroke="#000000" points="70.8198,-44.5239 64.0031,-36.4133 64.2741,-47.0046 70.8198,-44.5239"/>
<g id="a_edge7&#45;headlabel"><a xlink:href="dir_000006_000017.html" target="_top" xlink:title="2">
<text text-anchor="middle" x="74.7487" y="-44.379" font-family="Helvetica,sans-Serif" font-size="10.00" fill="#000000">2</text>
</a>
</g>
</g>
<!-- dir_c4d775bf529828732cc762999cf6d75b&#45;&gt;dir_b59e94d4ad5c664834b28d5f17def224 -->
<g id="edge8" class="edge">
<title>dir_c4d775bf529828732cc762999cf6d75b&#45;&gt;dir_b59e94d4ad5c664834b28d5f17def224</title>
<path fill="none" stroke="#000000" d="M79.9166,-215.8314C73.5819,-207.5386 65.957,-197.557 59.0028,-188.4533"/>
<polygon fill="#000000" stroke="#000000" points="61.7129,-186.2353 52.8611,-180.4133 56.1502,-190.4847 61.7129,-186.2353"/>
<g id="a_edge8&#45;headlabel"><a xlink:href="dir_000000_000003.html" target="_top" xlink:title="1">
<text text-anchor="middle" x="66.1512" y="-184.8683" font-family="Helvetica,sans-Serif" font-size="10.00" fill="#000000">1</text>
</a>
</g>
</g>
<!-- dir_c4d775bf529828732cc762999cf6d75b&#45;&gt;dir_e87eb6ce74e63cd1183c59eb94e728a6 -->
<g id="edge9" class="edge">
<title>dir_c4d775bf529828732cc762999cf6d75b&#45;&gt;dir_e87eb6ce74e63cd1183c59eb94e728a6</title>
<path fill="none" stroke="#000000" d="M93.7954,-215.7623C93.7954,-191.201 93.7954,-147.2474 93.7954,-118.3541"/>
<polygon fill="#000000" stroke="#000000" points="97.2955,-118.0896 93.7954,-108.0896 90.2955,-118.0897 97.2955,-118.0896"/>
<g id="a_edge9&#45;headlabel"><a xlink:href="dir_000000_000006.html" target="_top" xlink:title="8">
<text text-anchor="middle" x="100.1347" y="-119.1842" font-family="Helvetica,sans-Serif" font-size="10.00" fill="#000000">8</text>
</a>
</g>
</g>
<!-- dir_c4d775bf529828732cc762999cf6d75b&#45;&gt;dir_dcc334097b934f5294dca7e33f0e0621 -->
<g id="edge10" class="edge">
<title>dir_c4d775bf529828732cc762999cf6d75b&#45;&gt;dir_dcc334097b934f5294dca7e33f0e0621</title>
<path fill="none" stroke="#000000" d="M105.1939,-215.8596C123.0536,-184.9373 153.2841,-120.6469 129.7954,-72 122.8719,-57.6608 110.0855,-45.9615 97.4529,-37.1646"/>
<polygon fill="#000000" stroke="#000000" points="99.0972,-34.059 88.8058,-31.5415 95.281,-39.9273 99.0972,-34.059"/>
<g id="a_edge10&#45;headlabel"><a xlink:href="dir_000000_000017.html" target="_top" xlink:title="14">
<text text-anchor="middle" x="103.6585" y="-31.1383" font-family="Helvetica,sans-Serif" font-size="10.00" fill="#000000">14</text>
</a>
</g>
</g>
<!-- dir_dcc334097b934f5294dca7e33f0e0621&#45;&gt;dir_b59e94d4ad5c664834b28d5f17def224 -->
<g id="edge11" class="edge">
<title>dir_dcc334097b934f5294dca7e33f0e0621&#45;&gt;dir_b59e94d4ad5c664834b28d5f17def224</title>
<path fill="none" stroke="#000000" d="M63.5644,-36.0896C62.1162,-60.6805 55.3276,-104.905 48.7748,-133.8531"/>
<polygon fill="#000000" stroke="#000000" points="45.3271,-133.2201 46.3815,-143.7623 52.1315,-134.8635 45.3271,-133.2201"/>
<g id="a_edge11&#45;headlabel"><a xlink:href="dir_000017_000003.html" target="_top" xlink:title="2">
<text text-anchor="middle" x="43.411" y="-126.5594" font-family="Helvetica,sans-Serif" font-size="10.00" fill="#000000">2</text>
</a>
</g>
</g>
<!-- dir_dcc334097b934f5294dca7e33f0e0621&#45;&gt;dir_e87eb6ce74e63cd1183c59eb94e728a6 -->
<g id="edge12" class="edge">
<title>dir_dcc334097b934f5294dca7e33f0e0621&#45;&gt;dir_e87eb6ce74e63cd1183c59eb94e728a6</title>
<path fill="none" stroke="#000000" d="M75.9551,-36.4133C80.2221,-44.3141 84.6019,-53.7132 88.1196,-62.417"/>
<polygon fill="#000000" stroke="#000000" points="84.8671,-63.7115 91.6729,-71.8314 91.4161,-61.2396 84.8671,-63.7115"/>
<g id="a_edge12&#45;headlabel"><a xlink:href="dir_000017_000006.html" target="_top" xlink:title="76">
<text text-anchor="middle" x="80.9415" y="-58.851" font-family="Helvetica,sans-Serif" font-size="10.00" fill="#000000">76</text>
</a>
</g>
</g>
</g>
</svg>
