<?xml version="1.0" encoding="UTF-8" standalone="no"?>
<!DOCTYPE svg PUBLIC "-//W3C//DTD SVG 1.1//EN"
 "http://www.w3.org/Graphics/SVG/1.1/DTD/svg11.dtd">
<!-- Generated by graphviz version 2.40.1 (0)
 -->
<!-- Title: /home/tcbuilder/buildAgent/work/df8e8cce5bebfd58/libajantv2 Pages: 1 -->
<svg width="224pt" height="292pt"
 viewBox="0.00 0.00 224.00 292.00" xmlns="http://www.w3.org/2000/svg" xmlns:xlink="http://www.w3.org/1999/xlink">
<g id="graph0" class="graph" transform="scale(1 1) rotate(0) translate(4 288)">
<title>/home/tcbuilder/buildAgent/work/df8e8cce5bebfd58/libajantv2</title>
<polygon fill="#ffffff" stroke="transparent" points="-4,4 -4,-288 220,-288 220,4 -4,4"/>
<g id="clust1" class="cluster">
<title>clusterdir_012a9823336f45ecffba9316d6ff6f27</title>
<g id="a_clust1"><a xlink:href="dir_012a9823336f45ecffba9316d6ff6f27.html" target="_top">
<polygon fill="#eeeeff" stroke="#000000" points="8,-8 8,-276 154,-276 154,-8 8,-8"/>
</a>
</g>
</g>
<!-- dir_012a9823336f45ecffba9316d6ff6f27 -->
<g id="node1" class="node">
<title>dir_012a9823336f45ecffba9316d6ff6f27</title>
<text text-anchor="middle" x="117" y="-247.5" font-family="Helvetica,sans-Serif" font-size="10.00" fill="#000000">libajantv2</text>
</g>
<!-- dir_b59e94d4ad5c664834b28d5f17def224 -->
<g id="node2" class="node">
<title>dir_b59e94d4ad5c664834b28d5f17def224</title>
<g id="a_node2"><a xlink:href="dir_b59e94d4ad5c664834b28d5f17def224.html" target="_top" xlink:title="ajaanc">
<polygon fill="#ffffff" stroke="#ff0000" points="100,-196 46,-196 46,-160 100,-160 100,-196"/>
<text text-anchor="middle" x="73" y="-175.5" font-family="Helvetica,sans-Serif" font-size="10.00" fill="#000000">ajaanc</text>
</a>
</g>
</g>
<!-- dir_e87eb6ce74e63cd1183c59eb94e728a6 -->
<g id="node3" class="node">
<title>dir_e87eb6ce74e63cd1183c59eb94e728a6</title>
<g id="a_node3"><a xlink:href="dir_e87eb6ce74e63cd1183c59eb94e728a6.html" target="_top" xlink:title="ajabase">
<polygon fill="#ffffff" stroke="#ff0000" points="146,-124 92,-124 92,-88 146,-88 146,-124"/>
<text text-anchor="middle" x="119" y="-103.5" font-family="Helvetica,sans-Serif" font-size="10.00" fill="#000000">ajabase</text>
</a>
</g>
</g>
<!-- dir_b59e94d4ad5c664834b28d5f17def224&#45;&gt;dir_e87eb6ce74e63cd1183c59eb94e728a6 -->
<g id="edge1" class="edge">
<title>dir_b59e94d4ad5c664834b28d5f17def224&#45;&gt;dir_e87eb6ce74e63cd1183c59eb94e728a6</title>
<path fill="none" stroke="#000000" d="M84.6077,-159.8314C89.7978,-151.7079 96.0232,-141.9637 101.7425,-133.0118"/>
<polygon fill="#000000" stroke="#000000" points="104.8015,-134.7246 107.236,-124.4133 98.9026,-130.9559 104.8015,-134.7246"/>
<g id="a_edge1&#45;headlabel"><a xlink:href="dir_000003_000006.html" target="_top" xlink:title="10">
<text text-anchor="middle" x="105.2589" y="-136.7824" font-family="Helvetica,sans-Serif" font-size="10.00" fill="#000000">10</text>
</a>
</g>
</g>
<!-- dir_dcc334097b934f5294dca7e33f0e0621 -->
<g id="node4" class="node">
<title>dir_dcc334097b934f5294dca7e33f0e0621</title>
<g id="a_node4"><a xlink:href="dir_dcc334097b934f5294dca7e33f0e0621.html" target="_top" xlink:title="ajantv2">
<polygon fill="#ffffff" stroke="#ff0000" points="123,-52 69,-52 69,-16 123,-16 123,-52"/>
<text text-anchor="middle" x="96" y="-31.5" font-family="Helvetica,sans-Serif" font-size="10.00" fill="#000000">ajantv2</text>
</a>
</g>
</g>
<!-- dir_b59e94d4ad5c664834b28d5f17def224&#45;&gt;dir_dcc334097b934f5294dca7e33f0e0621 -->
<g id="edge2" class="edge">
<title>dir_b59e94d4ad5c664834b28d5f17def224&#45;&gt;dir_dcc334097b934f5294dca7e33f0e0621</title>
<path fill="none" stroke="#000000" d="M67.5299,-159.976C66.8379,-141.7386 69.6589,-112.7764 74,-88 75.4907,-79.4917 77.53,-70.326 79.9368,-62.0047"/>
<polygon fill="#000000" stroke="#000000" points="83.3043,-62.9659 83.0429,-52.3743 76.6423,-60.8172 83.3043,-62.9659"/>
<g id="a_edge2&#45;headlabel"><a xlink:href="dir_000003_000017.html" target="_top" xlink:title="7">
<text text-anchor="middle" x="84.9032" y="-64.7585" font-family="Helvetica,sans-Serif" font-size="10.00" fill="#000000">7</text>
</a>
</g>
</g>
<!-- dir_e87eb6ce74e63cd1183c59eb94e728a6&#45;&gt;dir_dcc334097b934f5294dca7e33f0e0621 -->
<g id="edge3" class="edge">
<title>dir_e87eb6ce74e63cd1183c59eb94e728a6&#45;&gt;dir_dcc334097b934f5294dca7e33f0e0621</title>
<path fill="none" stroke="#000000" d="M107.2437,-87.8314C103.9982,-80.0463 100.8184,-70.7729 98.3828,-62.1347"/>
<polygon fill="#000000" stroke="#000000" points="101.7666,-61.2396 95.906,-52.4133 94.9833,-62.9678 101.7666,-61.2396"/>
<g id="a_edge3&#45;headlabel"><a xlink:href="dir_000006_000017.html" target="_top" xlink:title="2">
<text text-anchor="middle" x="105.4054" y="-61.522" font-family="Helvetica,sans-Serif" font-size="10.00" fill="#000000">2</text>
</a>
</g>
</g>
<!-- dir_dcc334097b934f5294dca7e33f0e0621&#45;&gt;dir_b59e94d4ad5c664834b28d5f17def224 -->
<g id="edge7" class="edge">
<title>dir_dcc334097b934f5294dca7e33f0e0621&#45;&gt;dir_b59e94d4ad5c664834b28d5f17def224</title>
<path fill="none" stroke="#000000" d="M98.8968,-52.3743C97.2789,-62.7639 94.0969,-76.0323 92,-88 88.3881,-108.6148 85.8285,-132.1272 82.9379,-149.9489"/>
<polygon fill="#000000" stroke="#000000" points="79.46,-149.5145 81.1354,-159.976 86.3495,-150.753 79.46,-149.5145"/>
<g id="a_edge7&#45;headlabel"><a xlink:href="dir_000017_000003.html" target="_top" xlink:title="2">
<text text-anchor="middle" x="77.3014" y="-142.9743" font-family="Helvetica,sans-Serif" font-size="10.00" fill="#000000">2</text>
</a>
</g>
</g>
<!-- dir_dcc334097b934f5294dca7e33f0e0621&#45;&gt;dir_e87eb6ce74e63cd1183c59eb94e728a6 -->
<g id="edge8" class="edge">
<title>dir_dcc334097b934f5294dca7e33f0e0621&#45;&gt;dir_e87eb6ce74e63cd1183c59eb94e728a6</title>
<path fill="none" stroke="#000000" d="M107.858,-52.4133C111.1021,-60.2292 114.2734,-69.5113 116.6934,-78.136"/>
<polygon fill="#000000" stroke="#000000" points="113.3007,-78.9965 119.1485,-87.8314 120.0866,-77.2781 113.3007,-78.9965"/>
<g id="a_edge8&#45;headlabel"><a xlink:href="dir_000017_000006.html" target="_top" xlink:title="76">
<text text-anchor="middle" x="109.666" y="-73.7089" font-family="Helvetica,sans-Serif" font-size="10.00" fill="#000000">76</text>
</a>
</g>
</g>
<!-- dir_957939c99aa964633a97cef056d70db5 -->
<g id="node5" class="node">
<title>dir_957939c99aa964633a97cef056d70db5</title>
<g id="a_node5"><a xlink:href="dir_957939c99aa964633a97cef056d70db5.html" target="_top" xlink:title="demos">
<polygon fill="#ffffff" stroke="#ff0000" points="70,-268 16,-268 16,-232 70,-232 70,-268"/>
<text text-anchor="middle" x="43" y="-247.5" font-family="Helvetica,sans-Serif" font-size="10.00" fill="#000000">demos</text>
</a>
</g>
</g>
<!-- dir_957939c99aa964633a97cef056d70db5&#45;&gt;dir_b59e94d4ad5c664834b28d5f17def224 -->
<g id="edge9" class="edge">
<title>dir_957939c99aa964633a97cef056d70db5&#45;&gt;dir_b59e94d4ad5c664834b28d5f17def224</title>
<path fill="none" stroke="#000000" d="M50.5703,-231.8314C53.8493,-223.9617 57.762,-214.5712 61.3945,-205.8533"/>
<polygon fill="#000000" stroke="#000000" points="64.7124,-206.9902 65.3278,-196.4133 58.2508,-204.2979 64.7124,-206.9902"/>
<g id="a_edge9&#45;headlabel"><a xlink:href="dir_000024_000003.html" target="_top" xlink:title="17">
<text text-anchor="middle" x="65.9507" y="-208.9003" font-family="Helvetica,sans-Serif" font-size="10.00" fill="#000000">17</text>
</a>
</g>
</g>
<!-- dir_957939c99aa964633a97cef056d70db5&#45;&gt;dir_e87eb6ce74e63cd1183c59eb94e728a6 -->
<g id="edge10" class="edge">
<title>dir_957939c99aa964633a97cef056d70db5&#45;&gt;dir_e87eb6ce74e63cd1183c59eb94e728a6</title>
<path fill="none" stroke="#000000" d="M70.2174,-234.8239C84.2197,-225.5152 100.1625,-212.2595 109,-196 119.2297,-177.1791 121.4027,-152.8966 121.1975,-134.2982"/>
<polygon fill="#000000" stroke="#000000" points="124.688,-133.9621 120.8447,-124.089 117.6922,-134.2039 124.688,-133.9621"/>
<g id="a_edge10&#45;headlabel"><a xlink:href="dir_000024_000006.html" target="_top" xlink:title="168">
<text text-anchor="middle" x="127.6496" y="-134.9566" font-family="Helvetica,sans-Serif" font-size="10.00" fill="#000000">168</text>
</a>
</g>
</g>
<!-- dir_957939c99aa964633a97cef056d70db5&#45;&gt;dir_dcc334097b934f5294dca7e33f0e0621 -->
<g id="edge12" class="edge">
<title>dir_957939c99aa964633a97cef056d70db5&#45;&gt;dir_dcc334097b934f5294dca7e33f0e0621</title>
<path fill="none" stroke="#000000" d="M38.8055,-231.8413C35.2618,-213.4992 31.5575,-184.4572 37,-160 45.0487,-123.8313 64.6368,-85.7658 79.0447,-61.0641"/>
<polygon fill="#000000" stroke="#000000" points="82.165,-62.665 84.2782,-52.283 76.152,-59.0812 82.165,-62.665"/>
<g id="a_edge12&#45;headlabel"><a xlink:href="dir_000024_000017.html" target="_top" xlink:title="171">
<text text-anchor="middle" x="82.7637" y="-64.7064" font-family="Helvetica,sans-Serif" font-size="10.00" fill="#000000">171</text>
</a>
</g>
</g>
<!-- dir_c4d775bf529828732cc762999cf6d75b -->
<g id="node6" class="node">
<title>dir_c4d775bf529828732cc762999cf6d75b</title>
<g id="a_node6"><a xlink:href="dir_c4d775bf529828732cc762999cf6d75b.html" target="_top" xlink:title="libajacc">
<polygon fill="#ffffff" stroke="#ff0000" points="216,-196 162,-196 162,-160 216,-160 216,-196"/>
<text text-anchor="middle" x="189" y="-175.5" font-family="Helvetica,sans-Serif" font-size="10.00" fill="#000000">libajacc</text>
</a>
</g>
</g>
<!-- dir_957939c99aa964633a97cef056d70db5&#45;&gt;dir_c4d775bf529828732cc762999cf6d75b -->
<g id="edge11" class="edge">
<title>dir_957939c99aa964633a97cef056d70db5&#45;&gt;dir_c4d775bf529828732cc762999cf6d75b</title>
<path fill="none" stroke="#000000" d="M70.0754,-236.3315C73.0791,-234.8541 76.0995,-233.3854 79,-232 110.8248,-216.7986 121.8331,-214.1048 152.4938,-198.7397"/>
<polygon fill="#000000" stroke="#000000" points="154.3765,-201.7085 161.6965,-194.049 151.1977,-195.472 154.3765,-201.7085"/>
<g id="a_edge11&#45;headlabel"><a xlink:href="dir_000024_000000.html" target="_top" xlink:title="8">
<text text-anchor="middle" x="152.4633" y="-203.3705" font-family="Helvetica,sans-Serif" font-size="10.00" fill="#000000">8</text>
</a>
</g>
</g>
<!-- dir_c4d775bf529828732cc762999cf6d75b&#45;&gt;dir_b59e94d4ad5c664834b28d5f17def224 -->
<g id="edge4" class="edge">
<title>dir_c4d775bf529828732cc762999cf6d75b&#45;&gt;dir_b59e94d4ad5c664834b28d5f17def224</title>
<path fill="none" stroke="#000000" d="M161.9399,-178C144.7329,-178 127.5258,-178 110.3188,-178"/>
<polygon fill="#000000" stroke="#000000" points="110.1875,-174.5001 100.1875,-178 110.1875,-181.5001 110.1875,-174.5001"/>
<g id="a_edge4&#45;headlabel"><a xlink:href="dir_000000_000003.html" target="_top" xlink:title="1">
<text text-anchor="middle" x="113.7821" y="-169.1607" font-family="Helvetica,sans-Serif" font-size="10.00" fill="#000000">1</text>
</a>
</g>
</g>
<!-- dir_c4d775bf529828732cc762999cf6d75b&#45;&gt;dir_e87eb6ce74e63cd1183c59eb94e728a6 -->
<g id="edge5" class="edge">
<title>dir_c4d775bf529828732cc762999cf6d75b&#45;&gt;dir_e87eb6ce74e63cd1183c59eb94e728a6</title>
<path fill="none" stroke="#000000" d="M171.336,-159.8314C163.0268,-151.2848 152.9736,-140.9443 143.9082,-131.6198"/>
<polygon fill="#000000" stroke="#000000" points="146.3821,-129.1435 136.9018,-124.4133 141.3631,-134.023 146.3821,-129.1435"/>
<g id="a_edge5&#45;headlabel"><a xlink:href="dir_000000_000006.html" target="_top" xlink:title="8">
<text text-anchor="middle" x="150.9235" y="-127.2416" font-family="Helvetica,sans-Serif" font-size="10.00" fill="#000000">8</text>
</a>
</g>
</g>
<!-- dir_c4d775bf529828732cc762999cf6d75b&#45;&gt;dir_dcc334097b934f5294dca7e33f0e0621 -->
<g id="edge6" class="edge">
<title>dir_c4d775bf529828732cc762999cf6d75b&#45;&gt;dir_dcc334097b934f5294dca7e33f0e0621</title>
<path fill="none" stroke="#000000" d="M184.8443,-159.9213C179.8782,-140.8641 170.2694,-110.5405 155,-88 147.7598,-77.3122 137.9971,-67.2653 128.499,-58.8035"/>
<polygon fill="#000000" stroke="#000000" points="130.5195,-55.9262 120.6439,-52.089 125.9711,-61.2472 130.5195,-55.9262"/>
<g id="a_edge6&#45;headlabel"><a xlink:href="dir_000000_000017.html" target="_top" xlink:title="14">
<text text-anchor="middle" x="135.0967" y="-53.6035" font-family="Helvetica,sans-Serif" font-size="10.00" fill="#000000">14</text>
</a>
</g>
</g>
</g>
</svg>
