<?xml version="1.0" encoding="UTF-8" standalone="no"?>
<!DOCTYPE svg PUBLIC "-//W3C//DTD SVG 1.1//EN"
 "http://www.w3.org/Graphics/SVG/1.1/DTD/svg11.dtd">
<!-- Generated by graphviz version 2.40.1 (0)
 -->
<!-- Title: /home/tcbuilder/buildAgent/work/df8e8cce5bebfd58/libajantv2/demos/ntv2konaipjsonsetup Pages: 1 -->
<svg width="146pt" height="223pt"
 viewBox="0.00 0.00 146.00 223.00" xmlns="http://www.w3.org/2000/svg" xmlns:xlink="http://www.w3.org/1999/xlink">
<g id="graph0" class="graph" transform="scale(1 1) rotate(0) translate(4 219)">
<title>/home/tcbuilder/buildAgent/work/df8e8cce5bebfd58/libajantv2/demos/ntv2konaipjsonsetup</title>
<polygon fill="#ffffff" stroke="transparent" points="-4,4 -4,-219 142,-219 142,4 -4,4"/>
<g id="clust1" class="cluster">
<title>clusterdir_957939c99aa964633a97cef056d70db5</title>
<g id="a_clust1"><a xlink:href="dir_957939c99aa964633a97cef056d70db5.html" target="_top" xlink:title="demos">
<polygon fill="#ddddee" stroke="#000000" points="8,-136 8,-207 130,-207 130,-136 8,-136"/>
<text text-anchor="middle" x="69" y="-195" font-family="Helvetica,sans-Serif" font-size="10.00" fill="#000000">demos</text>
</a>
</g>
</g>
<!-- dir_ac0f342eb148e213726d339c869e4f97 -->
<g id="node1" class="node">
<title>dir_ac0f342eb148e213726d339c869e4f97</title>
<g id="a_node1"><a xlink:href="dir_ac0f342eb148e213726d339c869e4f97.html" target="_top" xlink:title="ntv2konaipjsonsetup">
<polygon fill="#eeeeff" stroke="#000000" points="122,-180 16,-180 16,-144 122,-144 122,-180"/>
<text text-anchor="middle" x="69" y="-159.5" font-family="Helvetica,sans-Serif" font-size="10.00" fill="#000000">ntv2konaipjsonsetup</text>
</a>
</g>
</g>
<!-- dir_e87eb6ce74e63cd1183c59eb94e728a6 -->
<g id="node2" class="node">
<title>dir_e87eb6ce74e63cd1183c59eb94e728a6</title>
<g id="a_node2"><a xlink:href="dir_e87eb6ce74e63cd1183c59eb94e728a6.html" target="_top" xlink:title="ajabase">
<polygon fill="#ffffff" stroke="#ff0000" points="68,-108 14,-108 14,-72 68,-72 68,-108"/>
<text text-anchor="middle" x="41" y="-87.5" font-family="Helvetica,sans-Serif" font-size="10.00" fill="#000000">ajabase</text>
</a>
</g>
</g>
<!-- dir_ac0f342eb148e213726d339c869e4f97&#45;&gt;dir_e87eb6ce74e63cd1183c59eb94e728a6 -->
<g id="edge3" class="edge">
<title>dir_ac0f342eb148e213726d339c869e4f97&#45;&gt;dir_e87eb6ce74e63cd1183c59eb94e728a6</title>
<path fill="none" stroke="#000000" d="M61.9344,-143.8314C58.874,-135.9617 55.2221,-126.5712 51.8318,-117.8533"/>
<polygon fill="#000000" stroke="#000000" points="55.0473,-116.4647 48.1607,-108.4133 48.5232,-119.0019 55.0473,-116.4647"/>
<g id="a_edge3&#45;headlabel"><a xlink:href="dir_000041_000006.html" target="_top" xlink:title="1">
<text text-anchor="middle" x="58.9963" y="-116.2859" font-family="Helvetica,sans-Serif" font-size="10.00" fill="#000000">1</text>
</a>
</g>
</g>
<!-- dir_dcc334097b934f5294dca7e33f0e0621 -->
<g id="node3" class="node">
<title>dir_dcc334097b934f5294dca7e33f0e0621</title>
<g id="a_node3"><a xlink:href="dir_dcc334097b934f5294dca7e33f0e0621.html" target="_top" xlink:title="ajantv2">
<polygon fill="#ffffff" stroke="#ff0000" points="68,-36 14,-36 14,0 68,0 68,-36"/>
<text text-anchor="middle" x="41" y="-15.5" font-family="Helvetica,sans-Serif" font-size="10.00" fill="#000000">ajantv2</text>
</a>
</g>
</g>
<!-- dir_ac0f342eb148e213726d339c869e4f97&#45;&gt;dir_dcc334097b934f5294dca7e33f0e0621 -->
<g id="edge4" class="edge">
<title>dir_ac0f342eb148e213726d339c869e4f97&#45;&gt;dir_dcc334097b934f5294dca7e33f0e0621</title>
<path fill="none" stroke="#000000" d="M74.5996,-143.6576C79.3299,-125.1725 84.2732,-96.0216 77,-72 74.0436,-62.2355 68.6748,-52.6229 62.97,-44.2762"/>
<polygon fill="#000000" stroke="#000000" points="65.7129,-42.0973 56.9905,-36.0831 60.0586,-46.2239 65.7129,-42.0973"/>
<g id="a_edge4&#45;headlabel"><a xlink:href="dir_000041_000017.html" target="_top" xlink:title="10">
<text text-anchor="middle" x="70.1253" y="-40.827" font-family="Helvetica,sans-Serif" font-size="10.00" fill="#000000">10</text>
</a>
</g>
</g>
<!-- dir_e87eb6ce74e63cd1183c59eb94e728a6&#45;&gt;dir_dcc334097b934f5294dca7e33f0e0621 -->
<g id="edge1" class="edge">
<title>dir_e87eb6ce74e63cd1183c59eb94e728a6&#45;&gt;dir_dcc334097b934f5294dca7e33f0e0621</title>
<path fill="none" stroke="#000000" d="M35.0476,-71.8314C34.2972,-64.131 34.0763,-54.9743 34.3849,-46.4166"/>
<polygon fill="#000000" stroke="#000000" points="37.8792,-46.6161 35.024,-36.4133 30.8935,-46.1697 37.8792,-46.6161"/>
<g id="a_edge1&#45;headlabel"><a xlink:href="dir_000006_000017.html" target="_top" xlink:title="2">
<text text-anchor="middle" x="40.4836" y="-47.8844" font-family="Helvetica,sans-Serif" font-size="10.00" fill="#000000">2</text>
</a>
</g>
</g>
<!-- dir_dcc334097b934f5294dca7e33f0e0621&#45;&gt;dir_e87eb6ce74e63cd1183c59eb94e728a6 -->
<g id="edge2" class="edge">
<title>dir_dcc334097b934f5294dca7e33f0e0621&#45;&gt;dir_e87eb6ce74e63cd1183c59eb94e728a6</title>
<path fill="none" stroke="#000000" d="M46.976,-36.4133C47.7071,-44.0593 47.9203,-53.1084 47.6155,-61.5726"/>
<polygon fill="#000000" stroke="#000000" points="44.1048,-61.6264 46.9524,-71.8314 51.0902,-62.078 44.1048,-61.6264"/>
<g id="a_edge2&#45;headlabel"><a xlink:href="dir_000017_000006.html" target="_top" xlink:title="76">
<text text-anchor="middle" x="41.5032" y="-55.3562" font-family="Helvetica,sans-Serif" font-size="10.00" fill="#000000">76</text>
</a>
</g>
</g>
</g>
</svg>
