<?xml version="1.0" encoding="UTF-8" standalone="no"?>
<!DOCTYPE svg PUBLIC "-//W3C//DTD SVG 1.1//EN"
 "http://www.w3.org/Graphics/SVG/1.1/DTD/svg11.dtd">
<!-- Generated by graphviz version 2.40.1 (0)
 -->
<!-- Title: /home/tcbuilder/buildAgent/work/df8e8cce5bebfd58/libajantv2/ajabase/system Pages: 1 -->
<svg width="382pt" height="183pt"
 viewBox="0.00 0.00 382.00 183.00" xmlns="http://www.w3.org/2000/svg" xmlns:xlink="http://www.w3.org/1999/xlink">
<g id="graph0" class="graph" transform="scale(1 1) rotate(0) translate(4 179)">
<title>/home/tcbuilder/buildAgent/work/df8e8cce5bebfd58/libajantv2/ajabase/system</title>
<polygon fill="#ffffff" stroke="transparent" points="-4,4 -4,-179 378,-179 378,4 -4,4"/>
<g id="clust1" class="cluster">
<title>clusterdir_e87eb6ce74e63cd1183c59eb94e728a6</title>
<g id="a_clust1"><a xlink:href="dir_e87eb6ce74e63cd1183c59eb94e728a6.html" target="_top" xlink:title="ajabase">
<polygon fill="#ddddee" stroke="#000000" points="8,-8 8,-167 312,-167 312,-8 8,-8"/>
<text text-anchor="middle" x="160" y="-155" font-family="Helvetica,sans-Serif" font-size="10.00" fill="#000000">ajabase</text>
</a>
</g>
</g>
<g id="clust2" class="cluster">
<title>clusterdir_2a5fa578bf70f724f924d7f0ed01f20c</title>
<g id="a_clust2"><a xlink:href="dir_2a5fa578bf70f724f924d7f0ed01f20c.html" target="_top">
<polygon fill="#eeeeff" stroke="#000000" points="16,-16 16,-140 304,-140 304,-16 16,-16"/>
</a>
</g>
</g>
<!-- dir_2a5fa578bf70f724f924d7f0ed01f20c -->
<g id="node1" class="node">
<title>dir_2a5fa578bf70f724f924d7f0ed01f20c</title>
<text text-anchor="middle" x="269" y="-111.5" font-family="Helvetica,sans-Serif" font-size="10.00" fill="#000000">system</text>
</g>
<!-- dir_a90c0d394ccdf9ed289c2914ee603fff -->
<g id="node2" class="node">
<title>dir_a90c0d394ccdf9ed289c2914ee603fff</title>
<g id="a_node2"><a xlink:href="dir_a90c0d394ccdf9ed289c2914ee603fff.html" target="_top" xlink:title="bm">
<polygon fill="#ffffff" stroke="#000000" points="78,-132 24,-132 24,-96 78,-96 78,-132"/>
<text text-anchor="middle" x="51" y="-111.5" font-family="Helvetica,sans-Serif" font-size="10.00" fill="#000000">bm</text>
</a>
</g>
</g>
<!-- dir_d46e180e9be8571f9ee52bc95d9e444e -->
<g id="node3" class="node">
<title>dir_d46e180e9be8571f9ee52bc95d9e444e</title>
<g id="a_node3"><a xlink:href="dir_d46e180e9be8571f9ee52bc95d9e444e.html" target="_top" xlink:title="linux">
<polygon fill="#ffffff" stroke="#000000" points="187,-60 133,-60 133,-24 187,-24 187,-60"/>
<text text-anchor="middle" x="160" y="-39.5" font-family="Helvetica,sans-Serif" font-size="10.00" fill="#000000">linux</text>
</a>
</g>
</g>
<!-- dir_a90c0d394ccdf9ed289c2914ee603fff&#45;&gt;dir_d46e180e9be8571f9ee52bc95d9e444e -->
<g id="edge3" class="edge">
<title>dir_a90c0d394ccdf9ed289c2914ee603fff&#45;&gt;dir_d46e180e9be8571f9ee52bc95d9e444e</title>
<path fill="none" stroke="#000000" d="M78.2241,-96.0171C92.14,-86.825 109.2524,-75.5213 124.2204,-65.6342"/>
<polygon fill="#000000" stroke="#000000" points="126.3302,-68.4353 132.7452,-60.0032 122.4721,-62.5945 126.3302,-68.4353"/>
<g id="a_edge3&#45;headlabel"><a xlink:href="dir_000013_000014.html" target="_top" xlink:title="4">
<text text-anchor="middle" x="124.8958" y="-70.2855" font-family="Helvetica,sans-Serif" font-size="10.00" fill="#000000">4</text>
</a>
</g>
</g>
<!-- dir_8f3154ce023319d0c7e8bb4441cab51f -->
<g id="node6" class="node">
<title>dir_8f3154ce023319d0c7e8bb4441cab51f</title>
<g id="a_node6"><a xlink:href="dir_8f3154ce023319d0c7e8bb4441cab51f.html" target="_top" xlink:title="common">
<polygon fill="none" stroke="#000000" points="374,-60 320,-60 320,-24 374,-24 374,-60"/>
<text text-anchor="middle" x="347" y="-39.5" font-family="Helvetica,sans-Serif" font-size="10.00" fill="#000000">common</text>
</a>
</g>
</g>
<!-- dir_a90c0d394ccdf9ed289c2914ee603fff&#45;&gt;dir_8f3154ce023319d0c7e8bb4441cab51f -->
<g id="edge2" class="edge">
<title>dir_a90c0d394ccdf9ed289c2914ee603fff&#45;&gt;dir_8f3154ce023319d0c7e8bb4441cab51f</title>
<path fill="none" stroke="#000000" d="M78.156,-99.3575C81.091,-98.0976 84.0744,-96.9454 87,-96 181.6951,-65.3988 212.8384,-89.1184 308,-60 308.722,-59.7791 309.4479,-59.5475 310.1762,-59.3064"/>
<polygon fill="#000000" stroke="#000000" points="311.5402,-62.5328 319.6663,-55.7343 309.0743,-55.9815 311.5402,-62.5328"/>
<g id="a_edge2&#45;headlabel"><a xlink:href="dir_000013_000007.html" target="_top" xlink:title="6">
<text text-anchor="middle" x="309.1762" y="-63.9562" font-family="Helvetica,sans-Serif" font-size="10.00" fill="#000000">6</text>
</a>
</g>
</g>
<!-- dir_d46e180e9be8571f9ee52bc95d9e444e&#45;&gt;dir_8f3154ce023319d0c7e8bb4441cab51f -->
<g id="edge6" class="edge">
<title>dir_d46e180e9be8571f9ee52bc95d9e444e&#45;&gt;dir_8f3154ce023319d0c7e8bb4441cab51f</title>
<path fill="none" stroke="#000000" d="M187.0273,-42C227.919,-42 268.8106,-42 309.7023,-42"/>
<polygon fill="#000000" stroke="#000000" points="309.8172,-45.5001 319.8171,-42 309.8171,-38.5001 309.8172,-45.5001"/>
<g id="a_edge6&#45;headlabel"><a xlink:href="dir_000014_000007.html" target="_top" xlink:title="6">
<text text-anchor="middle" x="306.2225" y="-45.8393" font-family="Helvetica,sans-Serif" font-size="10.00" fill="#000000">6</text>
</a>
</g>
</g>
<!-- dir_25241622fb32e256b03200c8abf30f99 -->
<g id="node4" class="node">
<title>dir_25241622fb32e256b03200c8abf30f99</title>
<g id="a_node4"><a xlink:href="dir_25241622fb32e256b03200c8abf30f99.html" target="_top" xlink:title="mac">
<polygon fill="#ffffff" stroke="#000000" points="224,-132 170,-132 170,-96 224,-96 224,-132"/>
<text text-anchor="middle" x="197" y="-111.5" font-family="Helvetica,sans-Serif" font-size="10.00" fill="#000000">mac</text>
</a>
</g>
</g>
<!-- dir_25241622fb32e256b03200c8abf30f99&#45;&gt;dir_8f3154ce023319d0c7e8bb4441cab51f -->
<g id="edge5" class="edge">
<title>dir_25241622fb32e256b03200c8abf30f99&#45;&gt;dir_8f3154ce023319d0c7e8bb4441cab51f</title>
<path fill="none" stroke="#000000" d="M224.0963,-100.3747C227.096,-98.8893 230.1099,-97.4068 233,-96 258.8442,-83.4197 288.1537,-69.5449 310.5818,-59.0097"/>
<polygon fill="#000000" stroke="#000000" points="312.1753,-62.1282 319.7424,-54.7126 309.2025,-55.7908 312.1753,-62.1282"/>
<g id="a_edge5&#45;headlabel"><a xlink:href="dir_000015_000007.html" target="_top" xlink:title="7">
<text text-anchor="middle" x="310.1268" y="-63.7252" font-family="Helvetica,sans-Serif" font-size="10.00" fill="#000000">7</text>
</a>
</g>
</g>
<!-- dir_0cc7e674a10c8be9c17fc197df151ee1 -->
<g id="node5" class="node">
<title>dir_0cc7e674a10c8be9c17fc197df151ee1</title>
<g id="a_node5"><a xlink:href="dir_0cc7e674a10c8be9c17fc197df151ee1.html" target="_top" xlink:title="windows">
<polygon fill="#ffffff" stroke="#000000" points="151.5,-132 96.5,-132 96.5,-96 151.5,-96 151.5,-132"/>
<text text-anchor="middle" x="124" y="-111.5" font-family="Helvetica,sans-Serif" font-size="10.00" fill="#000000">windows</text>
</a>
</g>
</g>
<!-- dir_0cc7e674a10c8be9c17fc197df151ee1&#45;&gt;dir_8f3154ce023319d0c7e8bb4441cab51f -->
<g id="edge4" class="edge">
<title>dir_0cc7e674a10c8be9c17fc197df151ee1&#45;&gt;dir_8f3154ce023319d0c7e8bb4441cab51f</title>
<path fill="none" stroke="#000000" d="M151.6061,-99.7873C154.7347,-98.4119 157.9093,-97.1159 161,-96 224.2669,-73.1582 244.5038,-82.1962 308,-60 308.7127,-59.7508 309.4301,-59.4932 310.1506,-59.2283"/>
<polygon fill="#000000" stroke="#000000" points="311.5929,-62.4209 319.5741,-55.4531 308.9897,-55.923 311.5929,-62.4209"/>
<g id="a_edge4&#45;headlabel"><a xlink:href="dir_000016_000007.html" target="_top" xlink:title="6">
<text text-anchor="middle" x="309.3119" y="-63.8933" font-family="Helvetica,sans-Serif" font-size="10.00" fill="#000000">6</text>
</a>
</g>
</g>
<!-- dir_8f3154ce023319d0c7e8bb4441cab51f&#45;&gt;dir_2a5fa578bf70f724f924d7f0ed01f20c -->
<g id="edge1" class="edge">
<title>dir_8f3154ce023319d0c7e8bb4441cab51f&#45;&gt;dir_2a5fa578bf70f724f924d7f0ed01f20c</title>
<path fill="none" stroke="#000000" d="M327.3236,-60.1628C317.9021,-68.8596 306.4672,-79.4149 296.2272,-88.8672"/>
<polygon fill="#000000" stroke="#000000" points="293.6568,-86.4767 288.6827,-95.8314 298.4047,-91.6203 293.6568,-86.4767"/>
<g id="a_edge1&#45;headlabel"><a xlink:href="dir_000007_000012.html" target="_top" xlink:title="15">
<text text-anchor="middle" x="294.3723" y="-79.4523" font-family="Helvetica,sans-Serif" font-size="10.00" fill="#000000">15</text>
</a>
</g>
</g>
</g>
</svg>
