<?xml version="1.0" encoding="UTF-8" standalone="no"?>
<!DOCTYPE svg PUBLIC "-//W3C//DTD SVG 1.1//EN"
 "http://www.w3.org/Graphics/SVG/1.1/DTD/svg11.dtd">
<!-- Generated by graphviz version 2.40.1 (0)
 -->
<!-- Title: /home/tcbuilder/buildAgent/work/df8e8cce5bebfd58/libajantv2/demos/ntv2dolbycapture Pages: 1 -->
<svg width="132pt" height="223pt"
 viewBox="0.00 0.00 132.00 223.00" xmlns="http://www.w3.org/2000/svg" xmlns:xlink="http://www.w3.org/1999/xlink">
<g id="graph0" class="graph" transform="scale(1 1) rotate(0) translate(4 219)">
<title>/home/tcbuilder/buildAgent/work/df8e8cce5bebfd58/libajantv2/demos/ntv2dolbycapture</title>
<polygon fill="#ffffff" stroke="transparent" points="-4,4 -4,-219 128,-219 128,4 -4,4"/>
<g id="clust1" class="cluster">
<title>clusterdir_957939c99aa964633a97cef056d70db5</title>
<g id="a_clust1"><a xlink:href="dir_957939c99aa964633a97cef056d70db5.html" target="_top" xlink:title="demos">
<polygon fill="#ddddee" stroke="#000000" points="8,-136 8,-207 116,-207 116,-136 8,-136"/>
<text text-anchor="middle" x="62" y="-195" font-family="Helvetica,sans-Serif" font-size="10.00" fill="#000000">demos</text>
</a>
</g>
</g>
<!-- dir_c53776fb927876eba2aed7efde84e725 -->
<g id="node1" class="node">
<title>dir_c53776fb927876eba2aed7efde84e725</title>
<g id="a_node1"><a xlink:href="dir_c53776fb927876eba2aed7efde84e725.html" target="_top" xlink:title="ntv2dolbycapture">
<polygon fill="#eeeeff" stroke="#000000" points="107.5,-180 16.5,-180 16.5,-144 107.5,-144 107.5,-180"/>
<text text-anchor="middle" x="62" y="-159.5" font-family="Helvetica,sans-Serif" font-size="10.00" fill="#000000">ntv2dolbycapture</text>
</a>
</g>
</g>
<!-- dir_e87eb6ce74e63cd1183c59eb94e728a6 -->
<g id="node2" class="node">
<title>dir_e87eb6ce74e63cd1183c59eb94e728a6</title>
<g id="a_node2"><a xlink:href="dir_e87eb6ce74e63cd1183c59eb94e728a6.html" target="_top" xlink:title="ajabase">
<polygon fill="#ffffff" stroke="#ff0000" points="61,-108 7,-108 7,-72 61,-72 61,-108"/>
<text text-anchor="middle" x="34" y="-87.5" font-family="Helvetica,sans-Serif" font-size="10.00" fill="#000000">ajabase</text>
</a>
</g>
</g>
<!-- dir_c53776fb927876eba2aed7efde84e725&#45;&gt;dir_e87eb6ce74e63cd1183c59eb94e728a6 -->
<g id="edge3" class="edge">
<title>dir_c53776fb927876eba2aed7efde84e725&#45;&gt;dir_e87eb6ce74e63cd1183c59eb94e728a6</title>
<path fill="none" stroke="#000000" d="M54.9344,-143.8314C51.874,-135.9617 48.2221,-126.5712 44.8318,-117.8533"/>
<polygon fill="#000000" stroke="#000000" points="48.0473,-116.4647 41.1607,-108.4133 41.5232,-119.0019 48.0473,-116.4647"/>
<g id="a_edge3&#45;headlabel"><a xlink:href="dir_000032_000006.html" target="_top" xlink:title="3">
<text text-anchor="middle" x="51.9963" y="-116.2859" font-family="Helvetica,sans-Serif" font-size="10.00" fill="#000000">3</text>
</a>
</g>
</g>
<!-- dir_dcc334097b934f5294dca7e33f0e0621 -->
<g id="node3" class="node">
<title>dir_dcc334097b934f5294dca7e33f0e0621</title>
<g id="a_node3"><a xlink:href="dir_dcc334097b934f5294dca7e33f0e0621.html" target="_top" xlink:title="ajantv2">
<polygon fill="#ffffff" stroke="#ff0000" points="61,-36 7,-36 7,0 61,0 61,-36"/>
<text text-anchor="middle" x="34" y="-15.5" font-family="Helvetica,sans-Serif" font-size="10.00" fill="#000000">ajantv2</text>
</a>
</g>
</g>
<!-- dir_c53776fb927876eba2aed7efde84e725&#45;&gt;dir_dcc334097b934f5294dca7e33f0e0621 -->
<g id="edge4" class="edge">
<title>dir_c53776fb927876eba2aed7efde84e725&#45;&gt;dir_dcc334097b934f5294dca7e33f0e0621</title>
<path fill="none" stroke="#000000" d="M67.5996,-143.6576C72.3299,-125.1725 77.2732,-96.0216 70,-72 67.0436,-62.2355 61.6748,-52.6229 55.97,-44.2762"/>
<polygon fill="#000000" stroke="#000000" points="58.7129,-42.0973 49.9905,-36.0831 53.0586,-46.2239 58.7129,-42.0973"/>
<g id="a_edge4&#45;headlabel"><a xlink:href="dir_000032_000017.html" target="_top" xlink:title="1">
<text text-anchor="middle" x="63.1253" y="-40.827" font-family="Helvetica,sans-Serif" font-size="10.00" fill="#000000">1</text>
</a>
</g>
</g>
<!-- dir_e87eb6ce74e63cd1183c59eb94e728a6&#45;&gt;dir_dcc334097b934f5294dca7e33f0e0621 -->
<g id="edge1" class="edge">
<title>dir_e87eb6ce74e63cd1183c59eb94e728a6&#45;&gt;dir_dcc334097b934f5294dca7e33f0e0621</title>
<path fill="none" stroke="#000000" d="M28.0476,-71.8314C27.2972,-64.131 27.0763,-54.9743 27.3849,-46.4166"/>
<polygon fill="#000000" stroke="#000000" points="30.8792,-46.6161 28.024,-36.4133 23.8935,-46.1697 30.8792,-46.6161"/>
<g id="a_edge1&#45;headlabel"><a xlink:href="dir_000006_000017.html" target="_top" xlink:title="2">
<text text-anchor="middle" x="33.4836" y="-47.8844" font-family="Helvetica,sans-Serif" font-size="10.00" fill="#000000">2</text>
</a>
</g>
</g>
<!-- dir_dcc334097b934f5294dca7e33f0e0621&#45;&gt;dir_e87eb6ce74e63cd1183c59eb94e728a6 -->
<g id="edge2" class="edge">
<title>dir_dcc334097b934f5294dca7e33f0e0621&#45;&gt;dir_e87eb6ce74e63cd1183c59eb94e728a6</title>
<path fill="none" stroke="#000000" d="M39.976,-36.4133C40.7071,-44.0593 40.9203,-53.1084 40.6155,-61.5726"/>
<polygon fill="#000000" stroke="#000000" points="37.1048,-61.6264 39.9524,-71.8314 44.0902,-62.078 37.1048,-61.6264"/>
<g id="a_edge2&#45;headlabel"><a xlink:href="dir_000017_000006.html" target="_top" xlink:title="76">
<text text-anchor="middle" x="34.5032" y="-55.3562" font-family="Helvetica,sans-Serif" font-size="10.00" fill="#000000">76</text>
</a>
</g>
</g>
</g>
</svg>
