<?xml version="1.0" encoding="UTF-8" standalone="no"?>
<!DOCTYPE svg PUBLIC "-//W3C//DTD SVG 1.1//EN"
 "http://www.w3.org/Graphics/SVG/1.1/DTD/svg11.dtd">
<!-- Generated by graphviz version 2.40.1 (0)
 -->
<!-- Title: /home/tcbuilder/buildAgent/work/df8e8cce5bebfd58/libajantv2/ajantv2/includes Pages: 1 -->
<svg width="106pt" height="223pt"
 viewBox="0.00 0.00 106.00 223.00" xmlns="http://www.w3.org/2000/svg" xmlns:xlink="http://www.w3.org/1999/xlink">
<g id="graph0" class="graph" transform="scale(1 1) rotate(0) translate(4 219)">
<title>/home/tcbuilder/buildAgent/work/df8e8cce5bebfd58/libajantv2/ajantv2/includes</title>
<polygon fill="#ffffff" stroke="transparent" points="-4,4 -4,-219 102,-219 102,4 -4,4"/>
<g id="clust1" class="cluster">
<title>clusterdir_dcc334097b934f5294dca7e33f0e0621</title>
<g id="a_clust1"><a xlink:href="dir_dcc334097b934f5294dca7e33f0e0621.html" target="_top" xlink:title="ajantv2">
<polygon fill="#ddddee" stroke="#000000" points="20,-136 20,-207 90,-207 90,-136 20,-136"/>
<text text-anchor="middle" x="55" y="-195" font-family="Helvetica,sans-Serif" font-size="10.00" fill="#000000">ajantv2</text>
</a>
</g>
</g>
<!-- dir_a1e7971ee2787a8222fe6a5c9384fcca -->
<g id="node1" class="node">
<title>dir_a1e7971ee2787a8222fe6a5c9384fcca</title>
<g id="a_node1"><a xlink:href="dir_a1e7971ee2787a8222fe6a5c9384fcca.html" target="_top" xlink:title="includes">
<polygon fill="#eeeeff" stroke="#000000" points="82,-180 28,-180 28,-144 82,-144 82,-180"/>
<text text-anchor="middle" x="55" y="-159.5" font-family="Helvetica,sans-Serif" font-size="10.00" fill="#000000">includes</text>
</a>
</g>
</g>
<!-- dir_d66cab0a9fa222c6d93e473efea2c462 -->
<g id="node2" class="node">
<title>dir_d66cab0a9fa222c6d93e473efea2c462</title>
<g id="a_node2"><a xlink:href="dir_d66cab0a9fa222c6d93e473efea2c462.html" target="_top" xlink:title="src">
<polygon fill="#ffffff" stroke="#ff0000" points="54,-108 0,-108 0,-72 54,-72 54,-108"/>
<text text-anchor="middle" x="27" y="-87.5" font-family="Helvetica,sans-Serif" font-size="10.00" fill="#000000">src</text>
</a>
</g>
</g>
<!-- dir_a1e7971ee2787a8222fe6a5c9384fcca&#45;&gt;dir_d66cab0a9fa222c6d93e473efea2c462 -->
<g id="edge1" class="edge">
<title>dir_a1e7971ee2787a8222fe6a5c9384fcca&#45;&gt;dir_d66cab0a9fa222c6d93e473efea2c462</title>
<path fill="none" stroke="#000000" d="M47.9344,-143.8314C44.874,-135.9617 41.2221,-126.5712 37.8318,-117.8533"/>
<polygon fill="#000000" stroke="#000000" points="41.0473,-116.4647 34.1607,-108.4133 34.5232,-119.0019 41.0473,-116.4647"/>
<g id="a_edge1&#45;headlabel"><a xlink:href="dir_000018_000019.html" target="_top" xlink:title="1">
<text text-anchor="middle" x="44.9963" y="-116.2859" font-family="Helvetica,sans-Serif" font-size="10.00" fill="#000000">1</text>
</a>
</g>
</g>
<!-- dir_e87eb6ce74e63cd1183c59eb94e728a6 -->
<g id="node3" class="node">
<title>dir_e87eb6ce74e63cd1183c59eb94e728a6</title>
<g id="a_node3"><a xlink:href="dir_e87eb6ce74e63cd1183c59eb94e728a6.html" target="_top" xlink:title="ajabase">
<polygon fill="#ffffff" stroke="#ff0000" points="81,-36 27,-36 27,0 81,0 81,-36"/>
<text text-anchor="middle" x="54" y="-15.5" font-family="Helvetica,sans-Serif" font-size="10.00" fill="#000000">ajabase</text>
</a>
</g>
</g>
<!-- dir_a1e7971ee2787a8222fe6a5c9384fcca&#45;&gt;dir_e87eb6ce74e63cd1183c59eb94e728a6 -->
<g id="edge2" class="edge">
<title>dir_a1e7971ee2787a8222fe6a5c9384fcca&#45;&gt;dir_e87eb6ce74e63cd1183c59eb94e728a6</title>
<path fill="none" stroke="#000000" d="M58.415,-143.5804C60.1709,-133.1767 62.1226,-119.9092 63,-108 64.1756,-92.0432 64.3197,-87.9455 63,-72 62.3055,-63.6085 61.0138,-54.5578 59.6214,-46.3092"/>
<polygon fill="#000000" stroke="#000000" points="63.0544,-45.6235 57.8413,-36.3999 56.1647,-46.8612 63.0544,-45.6235"/>
<g id="a_edge2&#45;headlabel"><a xlink:href="dir_000018_000006.html" target="_top" xlink:title="5">
<text text-anchor="middle" x="66.4844" y="-46.1595" font-family="Helvetica,sans-Serif" font-size="10.00" fill="#000000">5</text>
</a>
</g>
</g>
<!-- dir_d66cab0a9fa222c6d93e473efea2c462&#45;&gt;dir_e87eb6ce74e63cd1183c59eb94e728a6 -->
<g id="edge3" class="edge">
<title>dir_d66cab0a9fa222c6d93e473efea2c462&#45;&gt;dir_e87eb6ce74e63cd1183c59eb94e728a6</title>
<path fill="none" stroke="#000000" d="M33.8132,-71.8314C36.7644,-63.9617 40.2858,-54.5712 43.555,-45.8533"/>
<polygon fill="#000000" stroke="#000000" points="46.8609,-47.0055 47.095,-36.4133 40.3066,-44.5476 46.8609,-47.0055"/>
<g id="a_edge3&#45;headlabel"><a xlink:href="dir_000019_000006.html" target="_top" xlink:title="71">
<text text-anchor="middle" x="48.2573" y="-48.8682" font-family="Helvetica,sans-Serif" font-size="10.00" fill="#000000">71</text>
</a>
</g>
</g>
</g>
</svg>
