<?xml version="1.0" encoding="UTF-8" standalone="no"?>
<!DOCTYPE svg PUBLIC "-//W3C//DTD SVG 1.1//EN"
 "http://www.w3.org/Graphics/SVG/1.1/DTD/svg11.dtd">
<!-- Generated by graphviz version 2.40.1 (0)
 -->
<!-- Title: /home/tcbuilder/buildAgent/work/df8e8cce5bebfd58/libajantv2/ajabase Pages: 1 -->
<svg width="236pt" height="255pt"
 viewBox="0.00 0.00 236.00 255.00" xmlns="http://www.w3.org/2000/svg" xmlns:xlink="http://www.w3.org/1999/xlink">
<g id="graph0" class="graph" transform="scale(1 1) rotate(0) translate(4 251)">
<title>/home/tcbuilder/buildAgent/work/df8e8cce5bebfd58/libajantv2/ajabase</title>
<polygon fill="#ffffff" stroke="transparent" points="-4,4 -4,-251 232,-251 232,4 -4,4"/>
<g id="clust1" class="cluster">
<title>clusterdir_012a9823336f45ecffba9316d6ff6f27</title>
<g id="a_clust1"><a xlink:href="dir_012a9823336f45ecffba9316d6ff6f27.html" target="_top" xlink:title="libajantv2">
<polygon fill="#ddddee" stroke="#000000" points="8,-8 8,-239 166,-239 166,-8 8,-8"/>
<text text-anchor="middle" x="87" y="-227" font-family="Helvetica,sans-Serif" font-size="10.00" fill="#000000">libajantv2</text>
</a>
</g>
</g>
<g id="clust2" class="cluster">
<title>clusterdir_e87eb6ce74e63cd1183c59eb94e728a6</title>
<g id="a_clust2"><a xlink:href="dir_e87eb6ce74e63cd1183c59eb94e728a6.html" target="_top">
<polygon fill="#eeeeff" stroke="#000000" points="16,-16 16,-212 158,-212 158,-16 16,-16"/>
</a>
</g>
</g>
<!-- dir_e87eb6ce74e63cd1183c59eb94e728a6 -->
<g id="node1" class="node">
<title>dir_e87eb6ce74e63cd1183c59eb94e728a6</title>
<text text-anchor="middle" x="123" y="-183.5" font-family="Helvetica,sans-Serif" font-size="10.00" fill="#000000">ajabase</text>
</g>
<!-- dir_8f3154ce023319d0c7e8bb4441cab51f -->
<g id="node2" class="node">
<title>dir_8f3154ce023319d0c7e8bb4441cab51f</title>
<g id="a_node2"><a xlink:href="dir_8f3154ce023319d0c7e8bb4441cab51f.html" target="_top" xlink:title="common">
<polygon fill="#ffffff" stroke="#000000" points="78,-132 24,-132 24,-96 78,-96 78,-132"/>
<text text-anchor="middle" x="51" y="-111.5" font-family="Helvetica,sans-Serif" font-size="10.00" fill="#000000">common</text>
</a>
</g>
</g>
<!-- dir_2a5fa578bf70f724f924d7f0ed01f20c -->
<g id="node4" class="node">
<title>dir_2a5fa578bf70f724f924d7f0ed01f20c</title>
<g id="a_node4"><a xlink:href="dir_2a5fa578bf70f724f924d7f0ed01f20c.html" target="_top" xlink:title="system">
<polygon fill="#ffffff" stroke="#ff0000" points="101,-60 47,-60 47,-24 101,-24 101,-60"/>
<text text-anchor="middle" x="74" y="-39.5" font-family="Helvetica,sans-Serif" font-size="10.00" fill="#000000">system</text>
</a>
</g>
</g>
<!-- dir_8f3154ce023319d0c7e8bb4441cab51f&#45;&gt;dir_2a5fa578bf70f724f924d7f0ed01f20c -->
<g id="edge2" class="edge">
<title>dir_8f3154ce023319d0c7e8bb4441cab51f&#45;&gt;dir_2a5fa578bf70f724f924d7f0ed01f20c</title>
<path fill="none" stroke="#000000" d="M50.8515,-95.8314C52.5985,-87.9617 55.3844,-78.5712 58.5085,-69.8533"/>
<polygon fill="#000000" stroke="#000000" points="61.8161,-71.0031 62.142,-60.4133 55.2834,-68.4885 61.8161,-71.0031"/>
<g id="a_edge2&#45;headlabel"><a xlink:href="dir_000007_000012.html" target="_top" xlink:title="15">
<text text-anchor="middle" x="63.1747" y="-72.8777" font-family="Helvetica,sans-Serif" font-size="10.00" fill="#000000">15</text>
</a>
</g>
</g>
<!-- dir_dcc334097b934f5294dca7e33f0e0621 -->
<g id="node5" class="node">
<title>dir_dcc334097b934f5294dca7e33f0e0621</title>
<g id="a_node5"><a xlink:href="dir_dcc334097b934f5294dca7e33f0e0621.html" target="_top" xlink:title="ajantv2">
<polygon fill="#ffffff" stroke="#ff0000" points="228,-132 174,-132 174,-96 228,-96 228,-132"/>
<text text-anchor="middle" x="201" y="-111.5" font-family="Helvetica,sans-Serif" font-size="10.00" fill="#000000">ajantv2</text>
</a>
</g>
</g>
<!-- dir_8f3154ce023319d0c7e8bb4441cab51f&#45;&gt;dir_dcc334097b934f5294dca7e33f0e0621 -->
<g id="edge1" class="edge">
<title>dir_8f3154ce023319d0c7e8bb4441cab51f&#45;&gt;dir_dcc334097b934f5294dca7e33f0e0621</title>
<path fill="none" stroke="#000000" d="M78.2461,-114C106.6987,-114 135.1514,-114 163.604,-114"/>
<polygon fill="#000000" stroke="#000000" points="163.6681,-117.5001 173.6681,-114 163.668,-110.5001 163.6681,-117.5001"/>
<g id="a_edge1&#45;headlabel"><a xlink:href="dir_000007_000017.html" target="_top" xlink:title="1">
<text text-anchor="middle" x="160.0735" y="-117.8393" font-family="Helvetica,sans-Serif" font-size="10.00" fill="#000000">1</text>
</a>
</g>
</g>
<!-- dir_853fe2b552097df5fdaa18810c9944f4 -->
<g id="node3" class="node">
<title>dir_853fe2b552097df5fdaa18810c9944f4</title>
<g id="a_node3"><a xlink:href="dir_853fe2b552097df5fdaa18810c9944f4.html" target="_top" xlink:title="pnp">
<polygon fill="#ffffff" stroke="#ff0000" points="78,-204 24,-204 24,-168 78,-168 78,-204"/>
<text text-anchor="middle" x="51" y="-183.5" font-family="Helvetica,sans-Serif" font-size="10.00" fill="#000000">pnp</text>
</a>
</g>
</g>
<!-- dir_853fe2b552097df5fdaa18810c9944f4&#45;&gt;dir_8f3154ce023319d0c7e8bb4441cab51f -->
<g id="edge3" class="edge">
<title>dir_853fe2b552097df5fdaa18810c9944f4&#45;&gt;dir_8f3154ce023319d0c7e8bb4441cab51f</title>
<path fill="none" stroke="#000000" d="M51,-167.8314C51,-160.131 51,-150.9743 51,-142.4166"/>
<polygon fill="#000000" stroke="#000000" points="54.5001,-142.4132 51,-132.4133 47.5001,-142.4133 54.5001,-142.4132"/>
<g id="a_edge3&#45;headlabel"><a xlink:href="dir_000008_000007.html" target="_top" xlink:title="4">
<text text-anchor="middle" x="57.3393" y="-143.5079" font-family="Helvetica,sans-Serif" font-size="10.00" fill="#000000">4</text>
</a>
</g>
</g>
<!-- dir_853fe2b552097df5fdaa18810c9944f4&#45;&gt;dir_2a5fa578bf70f724f924d7f0ed01f20c -->
<g id="edge5" class="edge">
<title>dir_853fe2b552097df5fdaa18810c9944f4&#45;&gt;dir_2a5fa578bf70f724f924d7f0ed01f20c</title>
<path fill="none" stroke="#000000" d="M66.9905,-167.9169C74.6538,-158.0371 83.0166,-145.1563 87,-132 93.1475,-111.6963 89.2595,-87.9105 84.1776,-69.8922"/>
<polygon fill="#000000" stroke="#000000" points="87.502,-68.7952 81.2013,-60.2775 80.815,-70.8653 87.502,-68.7952"/>
<g id="a_edge5&#45;headlabel"><a xlink:href="dir_000008_000012.html" target="_top" xlink:title="4">
<text text-anchor="middle" x="91.2771" y="-68.8895" font-family="Helvetica,sans-Serif" font-size="10.00" fill="#000000">4</text>
</a>
</g>
</g>
<!-- dir_853fe2b552097df5fdaa18810c9944f4&#45;&gt;dir_dcc334097b934f5294dca7e33f0e0621 -->
<g id="edge4" class="edge">
<title>dir_853fe2b552097df5fdaa18810c9944f4&#45;&gt;dir_dcc334097b934f5294dca7e33f0e0621</title>
<path fill="none" stroke="#000000" d="M78.0963,-172.3747C81.096,-170.8893 84.1099,-169.4068 87,-168 112.8442,-155.4197 142.1537,-141.5449 164.5818,-131.0097"/>
<polygon fill="#000000" stroke="#000000" points="166.1753,-134.1282 173.7424,-126.7126 163.2025,-127.7908 166.1753,-134.1282"/>
<g id="a_edge4&#45;headlabel"><a xlink:href="dir_000008_000017.html" target="_top" xlink:title="1">
<text text-anchor="middle" x="164.1268" y="-135.7252" font-family="Helvetica,sans-Serif" font-size="10.00" fill="#000000">1</text>
</a>
</g>
</g>
<!-- dir_2a5fa578bf70f724f924d7f0ed01f20c&#45;&gt;dir_8f3154ce023319d0c7e8bb4441cab51f -->
<g id="edge8" class="edge">
<title>dir_2a5fa578bf70f724f924d7f0ed01f20c&#45;&gt;dir_8f3154ce023319d0c7e8bb4441cab51f</title>
<path fill="none" stroke="#000000" d="M74.094,-60.4133C72.3256,-68.3141 69.5255,-77.7132 66.3945,-86.417"/>
<polygon fill="#000000" stroke="#000000" points="63.0964,-85.242 62.7563,-95.8314 69.6258,-87.7653 63.0964,-85.242"/>
<g id="a_edge8&#45;headlabel"><a xlink:href="dir_000012_000007.html" target="_top" xlink:title="47">
<text text-anchor="middle" x="61.7437" y="-78.3656" font-family="Helvetica,sans-Serif" font-size="10.00" fill="#000000">47</text>
</a>
</g>
</g>
<!-- dir_dcc334097b934f5294dca7e33f0e0621&#45;&gt;dir_8f3154ce023319d0c7e8bb4441cab51f -->
<g id="edge6" class="edge">
<title>dir_dcc334097b934f5294dca7e33f0e0621&#45;&gt;dir_8f3154ce023319d0c7e8bb4441cab51f</title>
<path fill="none" stroke="#000000" d="M173.6681,-114C145.2154,-114 116.7628,-114 88.3101,-114"/>
<polygon fill="#000000" stroke="#000000" points="88.2461,-110.5001 78.2461,-114 88.2461,-117.5001 88.2461,-110.5001"/>
<g id="a_edge6&#45;headlabel"><a xlink:href="dir_000017_000007.html" target="_top" xlink:title="20">
<text text-anchor="middle" x="91.8407" y="-105.1607" font-family="Helvetica,sans-Serif" font-size="10.00" fill="#000000">20</text>
</a>
</g>
</g>
<!-- dir_dcc334097b934f5294dca7e33f0e0621&#45;&gt;dir_2a5fa578bf70f724f924d7f0ed01f20c -->
<g id="edge7" class="edge">
<title>dir_dcc334097b934f5294dca7e33f0e0621&#45;&gt;dir_2a5fa578bf70f724f924d7f0ed01f20c</title>
<path fill="none" stroke="#000000" d="M173.7553,-98.5542C155.1732,-88.0195 130.362,-73.9532 110.1328,-62.4848"/>
<polygon fill="#000000" stroke="#000000" points="111.625,-59.3074 101.1996,-57.4203 108.1727,-65.3969 111.625,-59.3074"/>
<g id="a_edge7&#45;headlabel"><a xlink:href="dir_000017_000012.html" target="_top" xlink:title="56">
<text text-anchor="middle" x="116.1524" y="-56.1102" font-family="Helvetica,sans-Serif" font-size="10.00" fill="#000000">56</text>
</a>
</g>
</g>
</g>
</svg>
