<?xml version="1.0" encoding="UTF-8" standalone="no"?>
<!DOCTYPE svg PUBLIC "-//W3C//DTD SVG 1.1//EN"
 "http://www.w3.org/Graphics/SVG/1.1/DTD/svg11.dtd">
<!-- Generated by graphviz version 2.40.1 (0)
 -->
<!-- Title: Graphical Class Hierarchy Pages: 1 -->
<svg width="418pt" height="259pt"
 viewBox="0.00 0.00 418.00 258.50" xmlns="http://www.w3.org/2000/svg" xmlns:xlink="http://www.w3.org/1999/xlink">
<g id="graph0" class="graph" transform="scale(1 1) rotate(0) translate(4 254.5)">
<title>Graphical Class Hierarchy</title>
<polygon fill="#ffffff" stroke="transparent" points="-4,4 -4,-254.5 414,-254.5 414,4 -4,4"/>
<!-- Node534 -->
<g id="node1" class="node">
<title>Node534</title>
<polygon fill="#ffffff" stroke="#bfbfbf" points="0,-110 0,-129 59,-129 59,-110 0,-110"/>
<text text-anchor="middle" x="29.5" y="-117" font-family="Helvetica,sans-Serif" font-size="10.00" fill="#000000">exception</text>
</g>
<!-- Node0 -->
<g id="node2" class="node">
<title>Node0</title>
<g id="a_node2"><a xlink:href="d0/dbb/classnlohmann_1_1json__abi__v3__11__3_1_1detail_1_1exception.html" target="_top" xlink:title="general exception of the basic_json class ">
<polygon fill="#ffffff" stroke="#000000" points="95,-104.5 95,-134.5 231,-134.5 231,-104.5 95,-104.5"/>
<text text-anchor="start" x="103" y="-122.5" font-family="Helvetica,sans-Serif" font-size="10.00" fill="#000000">nlohmann::json_abi</text>
<text text-anchor="middle" x="163" y="-111.5" font-family="Helvetica,sans-Serif" font-size="10.00" fill="#000000">_v3_11_3::detail::exception</text>
</a>
</g>
</g>
<!-- Node534&#45;&gt;Node0 -->
<g id="edge1" class="edge">
<title>Node534&#45;&gt;Node0</title>
<path fill="none" stroke="#191970" d="M69.3546,-119.5C77.4502,-119.5 86.1797,-119.5 94.9392,-119.5"/>
<polygon fill="#191970" stroke="#191970" points="69.128,-116.0001 59.128,-119.5 69.1279,-123.0001 69.128,-116.0001"/>
</g>
<!-- Node1 -->
<g id="node3" class="node">
<title>Node1</title>
<g id="a_node3"><a xlink:href="de/d32/classnlohmann_1_1json__abi__v3__11__3_1_1detail_1_1invalid__iterator.html" target="_top" xlink:title="exception indicating errors with iterators ">
<polygon fill="#ffffff" stroke="#000000" points="277.5,-209 277.5,-250 399.5,-250 399.5,-209 277.5,-209"/>
<text text-anchor="start" x="285.5" y="-238" font-family="Helvetica,sans-Serif" font-size="10.00" fill="#000000">nlohmann::json_abi</text>
<text text-anchor="start" x="285.5" y="-227" font-family="Helvetica,sans-Serif" font-size="10.00" fill="#000000">_v3_11_3::detail::invalid</text>
<text text-anchor="middle" x="338.5" y="-216" font-family="Helvetica,sans-Serif" font-size="10.00" fill="#000000">_iterator</text>
</a>
</g>
</g>
<!-- Node0&#45;&gt;Node1 -->
<g id="edge2" class="edge">
<title>Node0&#45;&gt;Node1</title>
<path fill="none" stroke="#191970" d="M187.4901,-141.2766C207.7868,-158.5797 237.9196,-182.5984 267,-199.5 272.7029,-202.8146 278.8422,-205.9593 285.0418,-208.8779"/>
<polygon fill="#191970" stroke="#191970" points="189.5464,-138.428 179.6894,-134.5434 184.9724,-143.7271 189.5464,-138.428"/>
</g>
<!-- Node2 -->
<g id="node4" class="node">
<title>Node2</title>
<g id="a_node4"><a xlink:href="dd/d4f/classnlohmann_1_1json__abi__v3__11__3_1_1detail_1_1other__error.html" target="_top" xlink:title="exception indicating other library errors ">
<polygon fill="#ffffff" stroke="#000000" points="268.5,-159.5 268.5,-189.5 408.5,-189.5 408.5,-159.5 268.5,-159.5"/>
<text text-anchor="start" x="276.5" y="-177.5" font-family="Helvetica,sans-Serif" font-size="10.00" fill="#000000">nlohmann::json_abi</text>
<text text-anchor="middle" x="338.5" y="-166.5" font-family="Helvetica,sans-Serif" font-size="10.00" fill="#000000">_v3_11_3::detail::other_error</text>
</a>
</g>
</g>
<!-- Node0&#45;&gt;Node2 -->
<g id="edge3" class="edge">
<title>Node0&#45;&gt;Node2</title>
<path fill="none" stroke="#191970" d="M220.777,-137.6067C243.3974,-144.6958 269.038,-152.7313 290.6018,-159.4892"/>
<polygon fill="#191970" stroke="#191970" points="221.5452,-134.1797 210.9561,-134.529 219.4518,-140.8594 221.5452,-134.1797"/>
</g>
<!-- Node3 -->
<g id="node5" class="node">
<title>Node3</title>
<g id="a_node5"><a xlink:href="da/d32/classnlohmann_1_1json__abi__v3__11__3_1_1detail_1_1out__of__range.html" target="_top" xlink:title="exception indicating access out of the defined range ">
<polygon fill="#ffffff" stroke="#000000" points="285,-99 285,-140 392,-140 392,-99 285,-99"/>
<text text-anchor="start" x="293" y="-128" font-family="Helvetica,sans-Serif" font-size="10.00" fill="#000000">nlohmann::json_abi</text>
<text text-anchor="start" x="293" y="-117" font-family="Helvetica,sans-Serif" font-size="10.00" fill="#000000">_v3_11_3::detail::out</text>
<text text-anchor="middle" x="338.5" y="-106" font-family="Helvetica,sans-Serif" font-size="10.00" fill="#000000">_of_range</text>
</a>
</g>
</g>
<!-- Node0&#45;&gt;Node3 -->
<g id="edge4" class="edge">
<title>Node0&#45;&gt;Node3</title>
<path fill="none" stroke="#191970" d="M241.2301,-119.5C255.9702,-119.5 271.073,-119.5 284.8481,-119.5"/>
<polygon fill="#191970" stroke="#191970" points="241.1041,-116.0001 231.1041,-119.5 241.104,-123.0001 241.1041,-116.0001"/>
</g>
<!-- Node4 -->
<g id="node6" class="node">
<title>Node4</title>
<g id="a_node6"><a xlink:href="d5/d27/classnlohmann_1_1json__abi__v3__11__3_1_1detail_1_1parse__error.html" target="_top" xlink:title="exception indicating a parse error ">
<polygon fill="#ffffff" stroke="#000000" points="267,-49.5 267,-79.5 410,-79.5 410,-49.5 267,-49.5"/>
<text text-anchor="start" x="275" y="-67.5" font-family="Helvetica,sans-Serif" font-size="10.00" fill="#000000">nlohmann::json_abi</text>
<text text-anchor="middle" x="338.5" y="-56.5" font-family="Helvetica,sans-Serif" font-size="10.00" fill="#000000">_v3_11_3::detail::parse_error</text>
</a>
</g>
</g>
<!-- Node0&#45;&gt;Node4 -->
<g id="edge5" class="edge">
<title>Node0&#45;&gt;Node4</title>
<path fill="none" stroke="#191970" d="M220.777,-101.3933C243.3974,-94.3042 269.038,-86.2687 290.6018,-79.5108"/>
<polygon fill="#191970" stroke="#191970" points="219.4518,-98.1406 210.9561,-104.471 221.5452,-104.8203 219.4518,-98.1406"/>
</g>
<!-- Node5 -->
<g id="node7" class="node">
<title>Node5</title>
<g id="a_node7"><a xlink:href="d7/d33/classnlohmann_1_1json__abi__v3__11__3_1_1detail_1_1type__error.html" target="_top" xlink:title="exception indicating executing a member function with a wrong type ">
<polygon fill="#ffffff" stroke="#000000" points="270,-.5 270,-30.5 407,-30.5 407,-.5 270,-.5"/>
<text text-anchor="start" x="278" y="-18.5" font-family="Helvetica,sans-Serif" font-size="10.00" fill="#000000">nlohmann::json_abi</text>
<text text-anchor="middle" x="338.5" y="-7.5" font-family="Helvetica,sans-Serif" font-size="10.00" fill="#000000">_v3_11_3::detail::type_error</text>
</a>
</g>
</g>
<!-- Node0&#45;&gt;Node5 -->
<g id="edge6" class="edge">
<title>Node0&#45;&gt;Node5</title>
<path fill="none" stroke="#191970" d="M187.2684,-97.5412C207.4377,-80.1931 237.5071,-56.3448 267,-40.5 273.8347,-36.8281 281.3168,-33.5209 288.7848,-30.6052"/>
<polygon fill="#191970" stroke="#191970" points="184.754,-95.0902 179.523,-104.3036 189.3579,-100.3633 184.754,-95.0902"/>
</g>
</g>
</svg>
