<?xml version="1.0" encoding="UTF-8" standalone="no"?>
<!DOCTYPE svg PUBLIC "-//W3C//DTD SVG 1.1//EN"
 "http://www.w3.org/Graphics/SVG/1.1/DTD/svg11.dtd">
<!-- Generated by graphviz version 2.40.1 (0)
 -->
<!-- Title: Graphical Class Hierarchy Pages: 1 -->
<svg width="331pt" height="28pt"
 viewBox="0.00 0.00 331.00 28.00" xmlns="http://www.w3.org/2000/svg" xmlns:xlink="http://www.w3.org/1999/xlink">
<g id="graph0" class="graph" transform="scale(1 1) rotate(0) translate(4 24)">
<title>Graphical Class Hierarchy</title>
<polygon fill="#ffffff" stroke="transparent" points="-4,4 -4,-24 327,-24 327,4 -4,4"/>
<!-- Node427 -->
<g id="node1" class="node">
<title>Node427</title>
<polygon fill="#ffffff" stroke="#bfbfbf" points="0,-.5 0,-19.5 84,-19.5 84,-.5 0,-.5"/>
<text text-anchor="middle" x="42" y="-7.5" font-family="Helvetica,sans-Serif" font-size="10.00" fill="#000000">IMediaSample2</text>
</g>
<!-- Node0 -->
<g id="node2" class="node">
<title>Node0</title>
<g id="a_node2"><a xlink:href="d1/d07/class_c_media_sample.html" target="_top" xlink:title="CMediaSample">
<polygon fill="#ffffff" stroke="#000000" points="120,-.5 120,-19.5 203,-19.5 203,-.5 120,-.5"/>
<text text-anchor="middle" x="161.5" y="-7.5" font-family="Helvetica,sans-Serif" font-size="10.00" fill="#000000">CMediaSample</text>
</a>
</g>
</g>
<!-- Node427&#45;&gt;Node0 -->
<g id="edge1" class="edge">
<title>Node427&#45;&gt;Node0</title>
<path fill="none" stroke="#191970" d="M94.349,-10C102.8469,-10 111.5476,-10 119.7493,-10"/>
<polygon fill="#191970" stroke="#191970" points="94.1313,-6.5001 84.1312,-10 94.1312,-13.5001 94.1313,-6.5001"/>
</g>
<!-- Node1 -->
<g id="node3" class="node">
<title>Node1</title>
<g id="a_node3"><a xlink:href="db/d4b/class_c_image_sample.html" target="_top" xlink:title="CImageSample">
<polygon fill="#ffffff" stroke="#000000" points="239,-.5 239,-19.5 323,-19.5 323,-.5 239,-.5"/>
<text text-anchor="middle" x="281" y="-7.5" font-family="Helvetica,sans-Serif" font-size="10.00" fill="#000000">CImageSample</text>
</a>
</g>
</g>
<!-- Node0&#45;&gt;Node1 -->
<g id="edge2" class="edge">
<title>Node0&#45;&gt;Node1</title>
<path fill="none" stroke="#191970" d="M213.4143,-10C221.8337,-10 230.4643,-10 238.6217,-10"/>
<polygon fill="#191970" stroke="#191970" points="213.2953,-6.5001 203.2953,-10 213.2953,-13.5001 213.2953,-6.5001"/>
</g>
</g>
</svg>
