<?xml version="1.0" encoding="UTF-8" standalone="no"?>
<!DOCTYPE svg PUBLIC "-//W3C//DTD SVG 1.1//EN"
 "http://www.w3.org/Graphics/SVG/1.1/DTD/svg11.dtd">
<!-- Generated by graphviz version 2.43.0 (0)
 -->
<!-- Title: /home/tcbuilder/buildAgent/work/df8e8cce5bebfd58/libajantv2/ajaanc/src/ancillarydata_framestatusinfo524D.cpp Pages: 1 -->
<svg width="898pt" height="442pt"
 viewBox="0.00 0.00 898.12 442.00" xmlns="http://www.w3.org/2000/svg" xmlns:xlink="http://www.w3.org/1999/xlink">
<g id="graph0" class="graph" transform="scale(1 1) rotate(0) translate(4 438)">
<title>/home/tcbuilder/buildAgent/work/df8e8cce5bebfd58/libajantv2/ajaanc/src/ancillarydata_framestatusinfo524D.cpp</title>
<polygon fill="white" stroke="transparent" points="-4,4 -4,-438 894.12,-438 894.12,4 -4,4"/>
<!-- Node1 -->
<g id="node1" class="node">
<title>Node1</title>
<g id="a_node1"><a xlink:title="Implements the AJAAncillaryData_FrameStatusInfo524D class.">
<polygon fill="#bfbfbf" stroke="black" points="625.12,-392.5 625.12,-433.5 890.12,-433.5 890.12,-392.5 625.12,-392.5"/>
<text text-anchor="start" x="633.12" y="-421.5" font-family="Helvetica,sans-Serif" font-size="10.00">/home/tcbuilder/buildAgent</text>
<text text-anchor="start" x="633.12" y="-410.5" font-family="Helvetica,sans-Serif" font-size="10.00">/work/df8e8cce5bebfd58/libajantv2</text>
<text text-anchor="middle" x="757.62" y="-399.5" font-family="Helvetica,sans-Serif" font-size="10.00">/ajaanc/src/ancillarydata_framestatusinfo524D.cpp</text>
</a>
</g>
</g>
<!-- Node2 -->
<g id="node2" class="node">
<title>Node2</title>
<g id="a_node2"><a xlink:href="../../d2/d55/ancillarydata__framestatusinfo524_d_8h.html" target="_top" xlink:title="Declares the AJAAncillaryData_FrameStatusInfo524D class.">
<polygon fill="white" stroke="black" points="521.62,-336.5 521.62,-355.5 719.62,-355.5 719.62,-336.5 521.62,-336.5"/>
<text text-anchor="middle" x="620.62" y="-343.5" font-family="Helvetica,sans-Serif" font-size="10.00">ancillarydata_framestatusinfo524D.h</text>
</a>
</g>
</g>
<!-- Node1&#45;&gt;Node2 -->
<g id="edge1" class="edge">
<title>Node1&#45;&gt;Node2</title>
<path fill="none" stroke="midnightblue" d="M716.51,-392.5C694.4,-382.01 667.72,-369.35 648.12,-360.05"/>
<polygon fill="midnightblue" stroke="midnightblue" points="649.39,-356.78 638.85,-355.65 646.39,-363.1 649.39,-356.78"/>
</g>
<!-- Node17 -->
<g id="node17" class="node">
<title>Node17</title>
<g id="a_node17"><a xlink:title=" ">
<polygon fill="white" stroke="#bfbfbf" points="751.62,-112.5 751.62,-131.5 807.62,-131.5 807.62,-112.5 751.62,-112.5"/>
<text text-anchor="middle" x="779.62" y="-119.5" font-family="Helvetica,sans-Serif" font-size="10.00">iomanip</text>
</a>
</g>
</g>
<!-- Node1&#45;&gt;Node17 -->
<g id="edge30" class="edge">
<title>Node1&#45;&gt;Node17</title>
<path fill="none" stroke="midnightblue" d="M757.62,-392.3C757.62,-368.35 757.62,-326.71 757.62,-291 757.62,-291 757.62,-291 757.62,-233 757.62,-200.33 767.06,-163.24 773.58,-141.55"/>
<polygon fill="midnightblue" stroke="midnightblue" points="777.01,-142.31 776.65,-131.72 770.32,-140.22 777.01,-142.31"/>
</g>
<!-- Node22 -->
<g id="node22" class="node">
<title>Node22</title>
<g id="a_node22"><a xlink:title=" ">
<polygon fill="white" stroke="#bfbfbf" points="786.12,-336.5 786.12,-355.5 817.12,-355.5 817.12,-336.5 786.12,-336.5"/>
<text text-anchor="middle" x="801.62" y="-343.5" font-family="Helvetica,sans-Serif" font-size="10.00">ios</text>
</a>
</g>
</g>
<!-- Node1&#45;&gt;Node22 -->
<g id="edge29" class="edge">
<title>Node1&#45;&gt;Node22</title>
<path fill="none" stroke="midnightblue" d="M770.82,-392.5C776.91,-383.49 784.09,-372.89 789.98,-364.19"/>
<polygon fill="midnightblue" stroke="midnightblue" points="793.05,-365.9 795.76,-355.65 787.25,-361.97 793.05,-365.9"/>
</g>
<!-- Node3 -->
<g id="node3" class="node">
<title>Node3</title>
<g id="a_node3"><a xlink:href="../../df/d78/ancillarydatafactory_8h.html" target="_top" xlink:title="Declaration of the AJAAncillaryDataFactory class.">
<polygon fill="white" stroke="black" points="559.62,-280.5 559.62,-299.5 681.62,-299.5 681.62,-280.5 559.62,-280.5"/>
<text text-anchor="middle" x="620.62" y="-287.5" font-family="Helvetica,sans-Serif" font-size="10.00">ancillarydatafactory.h</text>
</a>
</g>
</g>
<!-- Node2&#45;&gt;Node3 -->
<g id="edge2" class="edge">
<title>Node2&#45;&gt;Node3</title>
<path fill="none" stroke="midnightblue" d="M620.62,-336.08C620.62,-329.01 620.62,-318.86 620.62,-309.99"/>
<polygon fill="midnightblue" stroke="midnightblue" points="624.12,-309.75 620.62,-299.75 617.12,-309.75 624.12,-309.75"/>
</g>
<!-- Node4 -->
<g id="node4" class="node">
<title>Node4</title>
<g id="a_node4"><a xlink:href="../../d7/d92/ancillarydata_8h.html" target="_top" xlink:title="Declares the AJAAncillaryData class.">
<polygon fill="white" stroke="black" points="487.12,-224.5 487.12,-243.5 576.12,-243.5 576.12,-224.5 487.12,-224.5"/>
<text text-anchor="middle" x="531.62" y="-231.5" font-family="Helvetica,sans-Serif" font-size="10.00">ancillarydata.h</text>
</a>
</g>
</g>
<!-- Node2&#45;&gt;Node4 -->
<g id="edge28" class="edge">
<title>Node2&#45;&gt;Node4</title>
<path fill="none" stroke="midnightblue" d="M599.62,-336.42C583.95,-328.99 563.16,-316.78 550.62,-300 540.61,-286.61 535.85,-268.04 533.61,-254.18"/>
<polygon fill="midnightblue" stroke="midnightblue" points="537.02,-253.32 532.25,-243.86 530.08,-254.23 537.02,-253.32"/>
</g>
<!-- Node3&#45;&gt;Node4 -->
<g id="edge3" class="edge">
<title>Node3&#45;&gt;Node4</title>
<path fill="none" stroke="midnightblue" d="M606.32,-280.32C592.43,-271.9 571.12,-258.97 554.81,-249.07"/>
<polygon fill="midnightblue" stroke="midnightblue" points="556.24,-245.85 545.88,-243.65 552.61,-251.83 556.24,-245.85"/>
</g>
<!-- Node5 -->
<g id="node5" class="node">
<title>Node5</title>
<g id="a_node5"><a xlink:href="../../db/de2/ajatypes_8h.html" target="_top" xlink:title="Declares the most fundamental data types used by NTV2. Since Windows NT was the first principal devel...">
<polygon fill="white" stroke="black" points="108.62,-56.5 108.62,-75.5 176.62,-75.5 176.62,-56.5 108.62,-56.5"/>
<text text-anchor="middle" x="142.62" y="-63.5" font-family="Helvetica,sans-Serif" font-size="10.00">ajatypes.h</text>
</a>
</g>
</g>
<!-- Node4&#45;&gt;Node5 -->
<g id="edge4" class="edge">
<title>Node4&#45;&gt;Node5</title>
<path fill="none" stroke="midnightblue" d="M486.94,-231.6C371.02,-226.93 65.59,-207.54 6.62,-132 -20.9,-96.76 48.88,-79.61 98.35,-72.09"/>
<polygon fill="midnightblue" stroke="midnightblue" points="99.15,-75.51 108.56,-70.63 98.16,-68.59 99.15,-75.51"/>
</g>
<!-- Node7 -->
<g id="node7" class="node">
<title>Node7</title>
<g id="a_node7"><a xlink:href="../../d6/db1/ntv2version_8h.html" target="_top" xlink:title="Defines for the NTV2 SDK version number, used by ajantv2/includes/ntv2enums.h. See the ajantv2/includ...">
<polygon fill="white" stroke="black" points="566.12,-56.5 566.12,-75.5 649.12,-75.5 649.12,-56.5 566.12,-56.5"/>
<text text-anchor="middle" x="607.62" y="-63.5" font-family="Helvetica,sans-Serif" font-size="10.00">ntv2version.h</text>
</a>
</g>
</g>
<!-- Node4&#45;&gt;Node7 -->
<g id="edge6" class="edge">
<title>Node4&#45;&gt;Node7</title>
<path fill="none" stroke="midnightblue" d="M576.28,-232.07C641.69,-228.01 761.71,-209.71 816.62,-132 821.74,-124.74 822.2,-118.92 816.62,-112 797.19,-87.94 714.5,-76.14 659.14,-70.83"/>
<polygon fill="midnightblue" stroke="midnightblue" points="659.42,-67.34 649.14,-69.91 658.78,-74.31 659.42,-67.34"/>
</g>
<!-- Node10 -->
<g id="node10" class="node">
<title>Node10</title>
<g id="a_node10"><a xlink:href="../../d9/d49/types_8h.html" target="_top" xlink:title="Declares common types used in the ajabase library.">
<polygon fill="white" stroke="black" points="239.62,-168.5 239.62,-187.5 379.62,-187.5 379.62,-168.5 239.62,-168.5"/>
<text text-anchor="middle" x="309.62" y="-175.5" font-family="Helvetica,sans-Serif" font-size="10.00">ajabase/common/types.h</text>
</a>
</g>
</g>
<!-- Node4&#45;&gt;Node10 -->
<g id="edge9" class="edge">
<title>Node4&#45;&gt;Node10</title>
<path fill="none" stroke="midnightblue" d="M496.44,-224.44C458.04,-215.1 396.44,-200.12 354.56,-189.93"/>
<polygon fill="midnightblue" stroke="midnightblue" points="355.17,-186.48 344.63,-187.52 353.52,-193.28 355.17,-186.48"/>
</g>
<!-- Node11 -->
<g id="node11" class="node">
<title>Node11</title>
<g id="a_node11"><a xlink:href="../../d4/dd7/ntv2publicinterface_8h.html" target="_top" xlink:title="Declares enums and structs used by all platform drivers and the SDK.">
<polygon fill="white" stroke="black" points="471.62,-168.5 471.62,-187.5 591.62,-187.5 591.62,-168.5 471.62,-168.5"/>
<text text-anchor="middle" x="531.62" y="-175.5" font-family="Helvetica,sans-Serif" font-size="10.00">ntv2publicinterface.h</text>
</a>
</g>
</g>
<!-- Node4&#45;&gt;Node11 -->
<g id="edge10" class="edge">
<title>Node4&#45;&gt;Node11</title>
<path fill="none" stroke="midnightblue" d="M531.62,-224.08C531.62,-217.01 531.62,-206.86 531.62,-197.99"/>
<polygon fill="midnightblue" stroke="midnightblue" points="535.12,-197.75 531.62,-187.75 528.12,-197.75 535.12,-197.75"/>
</g>
<!-- Node16 -->
<g id="node16" class="node">
<title>Node16</title>
<g id="a_node16"><a xlink:title=" ">
<polygon fill="white" stroke="#bfbfbf" points="686.12,-112.5 686.12,-131.5 733.12,-131.5 733.12,-112.5 686.12,-112.5"/>
<text text-anchor="middle" x="709.62" y="-119.5" font-family="Helvetica,sans-Serif" font-size="10.00">vector</text>
</a>
</g>
</g>
<!-- Node4&#45;&gt;Node16 -->
<g id="edge27" class="edge">
<title>Node4&#45;&gt;Node16</title>
<path fill="none" stroke="midnightblue" d="M545.58,-224.37C576.26,-205.41 649.74,-160 687.05,-136.94"/>
<polygon fill="midnightblue" stroke="midnightblue" points="689.05,-139.83 695.71,-131.59 685.37,-133.87 689.05,-139.83"/>
</g>
<!-- Node21 -->
<g id="node21" class="node">
<title>Node21</title>
<g id="a_node21"><a xlink:title=" ">
<polygon fill="white" stroke="#bfbfbf" points="397.62,-168.5 397.62,-187.5 453.62,-187.5 453.62,-168.5 397.62,-168.5"/>
<text text-anchor="middle" x="425.62" y="-175.5" font-family="Helvetica,sans-Serif" font-size="10.00">sstream</text>
</a>
</g>
</g>
<!-- Node4&#45;&gt;Node21 -->
<g id="edge26" class="edge">
<title>Node4&#45;&gt;Node21</title>
<path fill="none" stroke="midnightblue" d="M514.58,-224.32C497.59,-215.66 471.24,-202.24 451.62,-192.25"/>
<polygon fill="midnightblue" stroke="midnightblue" points="453.1,-189.08 442.6,-187.65 449.93,-195.31 453.1,-189.08"/>
</g>
<!-- Node6 -->
<g id="node6" class="node">
<title>Node6</title>
<g id="a_node6"><a xlink:title=" ">
<polygon fill="white" stroke="#bfbfbf" points="116.12,-0.5 116.12,-19.5 169.12,-19.5 169.12,-0.5 116.12,-0.5"/>
<text text-anchor="middle" x="142.62" y="-7.5" font-family="Helvetica,sans-Serif" font-size="10.00">stdint.h</text>
</a>
</g>
</g>
<!-- Node5&#45;&gt;Node6 -->
<g id="edge5" class="edge">
<title>Node5&#45;&gt;Node6</title>
<path fill="none" stroke="midnightblue" d="M142.62,-56.08C142.62,-49.01 142.62,-38.86 142.62,-29.99"/>
<polygon fill="midnightblue" stroke="midnightblue" points="146.12,-29.75 142.62,-19.75 139.12,-29.75 146.12,-29.75"/>
</g>
<!-- Node8 -->
<g id="node8" class="node">
<title>Node8</title>
<g id="a_node8"><a xlink:href="../../d6/dd9/ajaexport_8h.html" target="_top" xlink:title="Defines the import/export macros for producing DLLs or LIBs.">
<polygon fill="white" stroke="black" points="517.62,-0.5 517.62,-19.5 589.62,-19.5 589.62,-0.5 517.62,-0.5"/>
<text text-anchor="middle" x="553.62" y="-7.5" font-family="Helvetica,sans-Serif" font-size="10.00">ajaexport.h</text>
</a>
</g>
</g>
<!-- Node7&#45;&gt;Node8 -->
<g id="edge7" class="edge">
<title>Node7&#45;&gt;Node8</title>
<path fill="none" stroke="midnightblue" d="M598.7,-56.08C590.83,-48.22 579.18,-36.57 569.7,-27.08"/>
<polygon fill="midnightblue" stroke="midnightblue" points="571.91,-24.35 562.37,-19.75 566.96,-29.3 571.91,-24.35"/>
</g>
<!-- Node9 -->
<g id="node9" class="node">
<title>Node9</title>
<g id="a_node9"><a xlink:title=" ">
<polygon fill="white" stroke="#bfbfbf" points="639.62,-0.5 639.62,-19.5 683.62,-19.5 683.62,-0.5 639.62,-0.5"/>
<text text-anchor="middle" x="661.62" y="-7.5" font-family="Helvetica,sans-Serif" font-size="10.00">string</text>
</a>
</g>
</g>
<!-- Node7&#45;&gt;Node9 -->
<g id="edge8" class="edge">
<title>Node7&#45;&gt;Node9</title>
<path fill="none" stroke="midnightblue" d="M616.53,-56.08C624.4,-48.22 636.05,-36.57 645.53,-27.08"/>
<polygon fill="midnightblue" stroke="midnightblue" points="648.27,-29.3 652.86,-19.75 643.32,-24.35 648.27,-29.3"/>
</g>
<!-- Node11&#45;&gt;Node5 -->
<g id="edge11" class="edge">
<title>Node11&#45;&gt;Node5</title>
<path fill="none" stroke="midnightblue" d="M471.42,-169.05C468.44,-168.69 465.5,-168.34 462.62,-168 424.23,-163.5 142.49,-160.71 116.62,-132 104.1,-118.11 116.01,-97.45 127.51,-83.16"/>
<polygon fill="midnightblue" stroke="midnightblue" points="130.16,-85.45 134.05,-75.59 124.87,-80.87 130.16,-85.45"/>
</g>
<!-- Node11&#45;&gt;Node8 -->
<g id="edge23" class="edge">
<title>Node11&#45;&gt;Node8</title>
<path fill="none" stroke="midnightblue" d="M533.04,-168.38C534.51,-159.34 536.84,-144.69 538.62,-132 543.68,-95.79 548.74,-53.35 551.49,-29.58"/>
<polygon fill="midnightblue" stroke="midnightblue" points="554.98,-29.86 552.65,-19.52 548.03,-29.05 554.98,-29.86"/>
</g>
<!-- Node11&#45;&gt;Node9 -->
<g id="edge19" class="edge">
<title>Node11&#45;&gt;Node9</title>
<path fill="none" stroke="midnightblue" d="M572.08,-168.47C594.34,-161.9 620.95,-150.66 638.62,-132 664.86,-104.27 665.68,-56.35 663.78,-29.9"/>
<polygon fill="midnightblue" stroke="midnightblue" points="667.24,-29.33 662.83,-19.7 660.27,-29.98 667.24,-29.33"/>
</g>
<!-- Node12 -->
<g id="node12" class="node">
<title>Node12</title>
<g id="a_node12"><a xlink:href="../../d6/d0c/ntv2enums_8h.html" target="_top" xlink:title="Enumerations for controlling NTV2 devices.">
<polygon fill="white" stroke="black" points="265.62,-112.5 265.62,-131.5 345.62,-131.5 345.62,-112.5 265.62,-112.5"/>
<text text-anchor="middle" x="305.62" y="-119.5" font-family="Helvetica,sans-Serif" font-size="10.00">ntv2enums.h</text>
</a>
</g>
</g>
<!-- Node11&#45;&gt;Node12 -->
<g id="edge12" class="edge">
<title>Node11&#45;&gt;Node12</title>
<path fill="none" stroke="midnightblue" d="M495.81,-168.44C456.63,-159.08 393.74,-144.06 351.1,-133.87"/>
<polygon fill="midnightblue" stroke="midnightblue" points="351.8,-130.44 341.26,-131.52 350.17,-137.24 351.8,-130.44"/>
</g>
<!-- Node13 -->
<g id="node13" class="node">
<title>Node13</title>
<g id="a_node13"><a xlink:title=" ">
<polygon fill="white" stroke="#bfbfbf" points="363.62,-112.5 363.62,-131.5 423.62,-131.5 423.62,-112.5 363.62,-112.5"/>
<text text-anchor="middle" x="393.62" y="-119.5" font-family="Helvetica,sans-Serif" font-size="10.00">iostream</text>
</a>
</g>
</g>
<!-- Node11&#45;&gt;Node13 -->
<g id="edge15" class="edge">
<title>Node11&#45;&gt;Node13</title>
<path fill="none" stroke="midnightblue" d="M509.75,-168.44C486.84,-159.48 450.64,-145.31 424.75,-135.18"/>
<polygon fill="midnightblue" stroke="midnightblue" points="425.97,-131.9 415.38,-131.52 423.42,-138.42 425.97,-131.9"/>
</g>
<!-- Node14 -->
<g id="node14" class="node">
<title>Node14</title>
<g id="a_node14"><a xlink:title=" ">
<polygon fill="white" stroke="#bfbfbf" points="441.62,-112.5 441.62,-131.5 473.62,-131.5 473.62,-112.5 441.62,-112.5"/>
<text text-anchor="middle" x="457.62" y="-119.5" font-family="Helvetica,sans-Serif" font-size="10.00">set</text>
</a>
</g>
</g>
<!-- Node11&#45;&gt;Node14 -->
<g id="edge16" class="edge">
<title>Node11&#45;&gt;Node14</title>
<path fill="none" stroke="midnightblue" d="M519.73,-168.32C508.47,-160.11 491.33,-147.6 477.91,-137.81"/>
<polygon fill="midnightblue" stroke="midnightblue" points="479.86,-134.9 469.72,-131.83 475.74,-140.56 479.86,-134.9"/>
</g>
<!-- Node15 -->
<g id="node15" class="node">
<title>Node15</title>
<g id="a_node15"><a xlink:title=" ">
<polygon fill="white" stroke="#bfbfbf" points="491.62,-112.5 491.62,-131.5 529.62,-131.5 529.62,-112.5 491.62,-112.5"/>
<text text-anchor="middle" x="510.62" y="-119.5" font-family="Helvetica,sans-Serif" font-size="10.00">map</text>
</a>
</g>
</g>
<!-- Node11&#45;&gt;Node15 -->
<g id="edge17" class="edge">
<title>Node11&#45;&gt;Node15</title>
<path fill="none" stroke="midnightblue" d="M528.15,-168.08C525.3,-160.77 521.19,-150.18 517.66,-141.1"/>
<polygon fill="midnightblue" stroke="midnightblue" points="520.91,-139.8 514.02,-131.75 514.38,-142.34 520.91,-139.8"/>
</g>
<!-- Node11&#45;&gt;Node16 -->
<g id="edge18" class="edge">
<title>Node11&#45;&gt;Node16</title>
<path fill="none" stroke="midnightblue" d="M559.82,-168.44C591.45,-158.85 642.69,-143.3 676.28,-133.11"/>
<polygon fill="midnightblue" stroke="midnightblue" points="677.54,-136.39 686.09,-130.14 675.5,-129.69 677.54,-136.39"/>
</g>
<!-- Node11&#45;&gt;Node17 -->
<g id="edge20" class="edge">
<title>Node11&#45;&gt;Node17</title>
<path fill="none" stroke="midnightblue" d="M573.33,-168.47C613.87,-160.1 677.42,-146.76 741.49,-132.21"/>
<polygon fill="midnightblue" stroke="midnightblue" points="742.38,-135.6 751.35,-129.96 740.83,-128.77 742.38,-135.6"/>
</g>
<!-- Node18 -->
<g id="node18" class="node">
<title>Node18</title>
<g id="a_node18"><a xlink:title=" ">
<polygon fill="white" stroke="#bfbfbf" points="585.62,-112.5 585.62,-131.5 629.62,-131.5 629.62,-112.5 585.62,-112.5"/>
<text text-anchor="middle" x="607.62" y="-119.5" font-family="Helvetica,sans-Serif" font-size="10.00">bitset</text>
</a>
</g>
</g>
<!-- Node11&#45;&gt;Node18 -->
<g id="edge21" class="edge">
<title>Node11&#45;&gt;Node18</title>
<path fill="none" stroke="midnightblue" d="M543.83,-168.32C555.39,-160.11 572.99,-147.6 586.78,-137.81"/>
<polygon fill="midnightblue" stroke="midnightblue" points="589.06,-140.48 595.18,-131.83 585,-134.77 589.06,-140.48"/>
</g>
<!-- Node19 -->
<g id="node19" class="node">
<title>Node19</title>
<g id="a_node19"><a xlink:title=" ">
<polygon fill="white" stroke="#bfbfbf" points="16.12,-112.5 16.12,-131.5 69.12,-131.5 69.12,-112.5 16.12,-112.5"/>
<text text-anchor="middle" x="42.62" y="-119.5" font-family="Helvetica,sans-Serif" font-size="10.00">string.h</text>
</a>
</g>
</g>
<!-- Node11&#45;&gt;Node19 -->
<g id="edge22" class="edge">
<title>Node11&#45;&gt;Node19</title>
<path fill="none" stroke="midnightblue" d="M471.42,-169.02C468.44,-168.67 465.5,-168.32 462.62,-168 294.48,-149.05 250.78,-158.19 83.62,-132 82.32,-131.8 81,-131.58 79.68,-131.35"/>
<polygon fill="midnightblue" stroke="midnightblue" points="79.91,-127.83 69.43,-129.38 78.59,-134.7 79.91,-127.83"/>
</g>
<!-- Node20 -->
<g id="node20" class="node">
<title>Node20</title>
<g id="a_node20"><a xlink:href="../../da/df0/ntv2virtualregisters_8h.html" target="_top" xlink:title="Declares enums for virtual registers used in all platform drivers and the SDK.">
<polygon fill="white" stroke="black" points="125.62,-112.5 125.62,-131.5 247.62,-131.5 247.62,-112.5 125.62,-112.5"/>
<text text-anchor="middle" x="186.62" y="-119.5" font-family="Helvetica,sans-Serif" font-size="10.00">ntv2virtualregisters.h</text>
</a>
</g>
</g>
<!-- Node11&#45;&gt;Node20 -->
<g id="edge24" class="edge">
<title>Node11&#45;&gt;Node20</title>
<path fill="none" stroke="midnightblue" d="M476.95,-168.44C415.63,-158.85 316.26,-143.29 251.17,-133.1"/>
<polygon fill="midnightblue" stroke="midnightblue" points="251.45,-129.61 241.03,-131.52 250.36,-136.52 251.45,-129.61"/>
</g>
<!-- Node12&#45;&gt;Node5 -->
<g id="edge13" class="edge">
<title>Node12&#45;&gt;Node5</title>
<path fill="none" stroke="midnightblue" d="M279.79,-112.44C252.37,-103.36 208.84,-88.94 178.18,-78.78"/>
<polygon fill="midnightblue" stroke="midnightblue" points="178.92,-75.34 168.32,-75.52 176.71,-81.98 178.92,-75.34"/>
</g>
<!-- Node12&#45;&gt;Node7 -->
<g id="edge14" class="edge">
<title>Node12&#45;&gt;Node7</title>
<path fill="none" stroke="midnightblue" d="M345.72,-113.61C348.73,-113.07 351.72,-112.52 354.62,-112 424.23,-99.42 504.68,-85.16 555.83,-76.12"/>
<polygon fill="midnightblue" stroke="midnightblue" points="556.73,-79.52 565.97,-74.33 555.51,-72.63 556.73,-79.52"/>
</g>
<!-- Node20&#45;&gt;Node5 -->
<g id="edge25" class="edge">
<title>Node20&#45;&gt;Node5</title>
<path fill="none" stroke="midnightblue" d="M179.35,-112.08C173.07,-104.38 163.83,-93.03 156.18,-83.65"/>
<polygon fill="midnightblue" stroke="midnightblue" points="158.78,-81.29 149.75,-75.75 153.35,-85.71 158.78,-81.29"/>
</g>
</g>
</svg>
