<?xml version="1.0" encoding="UTF-8" standalone="no"?>
<!DOCTYPE svg PUBLIC "-//W3C//DTD SVG 1.1//EN"
 "http://www.w3.org/Graphics/SVG/1.1/DTD/svg11.dtd">
<!-- Generated by graphviz version 2.40.1 (0)
 -->
<!-- Title: AUTOCIRCULATE_TRANSFER_STRUCT_32 Pages: 1 -->
<svg width="538pt" height="106pt"
 viewBox="0.00 0.00 538.00 106.00" xmlns="http://www.w3.org/2000/svg" xmlns:xlink="http://www.w3.org/1999/xlink">
<g id="graph0" class="graph" transform="scale(1 1) rotate(0) translate(4 102)">
<title>AUTOCIRCULATE_TRANSFER_STRUCT_32</title>
<polygon fill="#ffffff" stroke="transparent" points="-4,4 -4,-102 534,-102 534,4 -4,4"/>
<!-- Node1 -->
<g id="node1" class="node">
<title>Node1</title>
<polygon fill="#bfbfbf" stroke="#000000" points="155,-.5 155,-30.5 316,-30.5 316,-.5 155,-.5"/>
<text text-anchor="start" x="163" y="-18.5" font-family="Helvetica,sans-Serif" font-size="10.00" fill="#000000">AUTOCIRCULATE_TRANSFER</text>
<text text-anchor="middle" x="235.5" y="-7.5" font-family="Helvetica,sans-Serif" font-size="10.00" fill="#000000">_STRUCT_32</text>
</g>
<!-- Node2 -->
<g id="node2" class="node">
<title>Node2</title>
<g id="a_node2"><a xlink:href="../../d3/d95/struct_r_p188___s_t_r_u_c_t.html" target="_top" xlink:title="RP188_STRUCT">
<polygon fill="#ffffff" stroke="#000000" points="0,-78.5 0,-97.5 93,-97.5 93,-78.5 0,-78.5"/>
<text text-anchor="middle" x="46.5" y="-85.5" font-family="Helvetica,sans-Serif" font-size="10.00" fill="#000000">RP188_STRUCT</text>
</a>
</g>
</g>
<!-- Node2&#45;&gt;Node1 -->
<g id="edge1" class="edge">
<title>Node2&#45;&gt;Node1</title>
<path fill="none" stroke="#9a32cd" stroke-dasharray="5,2" d="M81.1336,-74.7146C113.6309,-62.2487 162.1858,-43.6232 196.1373,-30.5995"/>
<polygon fill="#9a32cd" stroke="#9a32cd" points="79.6808,-71.5232 71.5977,-78.3726 82.1879,-78.0588 79.6808,-71.5232"/>
<text text-anchor="middle" x="161.5" y="-52" font-family="Helvetica,sans-Serif" font-size="10.00" fill="#000000"> rp188</text>
</g>
<!-- Node3 -->
<g id="node3" class="node">
<title>Node3</title>
<g id="a_node3"><a xlink:href="../../d3/d14/struct_auto_circ_vid_proc_info.html" target="_top" xlink:title="AutoCircVidProcInfo">
<polygon fill="#ffffff" stroke="#000000" points="111.5,-78.5 111.5,-97.5 217.5,-97.5 217.5,-78.5 111.5,-78.5"/>
<text text-anchor="middle" x="164.5" y="-85.5" font-family="Helvetica,sans-Serif" font-size="10.00" fill="#000000">AutoCircVidProcInfo</text>
</a>
</g>
</g>
<!-- Node3&#45;&gt;Node1 -->
<g id="edge2" class="edge">
<title>Node3&#45;&gt;Node1</title>
<path fill="none" stroke="#9a32cd" stroke-dasharray="5,2" d="M181.2711,-70.8745C193.2252,-58.668 209.1493,-42.4075 220.6458,-30.668"/>
<polygon fill="#9a32cd" stroke="#9a32cd" points="178.5716,-68.6288 174.0754,-78.2223 183.5728,-73.5266 178.5716,-68.6288"/>
<text text-anchor="middle" x="229" y="-52" font-family="Helvetica,sans-Serif" font-size="10.00" fill="#000000"> vidProcInfo</text>
</g>
<!-- Node4 -->
<g id="node4" class="node">
<title>Node4</title>
<g id="a_node4"><a xlink:href="../../db/daf/struct_n_t_v2_color_correction_info__32.html" target="_top" xlink:title="NTV2ColorCorrectionInfo_32">
<polygon fill="#ffffff" stroke="#000000" points="236,-78.5 236,-97.5 379,-97.5 379,-78.5 236,-78.5"/>
<text text-anchor="middle" x="307.5" y="-85.5" font-family="Helvetica,sans-Serif" font-size="10.00" fill="#000000">NTV2ColorCorrectionInfo_32</text>
</a>
</g>
</g>
<!-- Node4&#45;&gt;Node1 -->
<g id="edge3" class="edge">
<title>Node4&#45;&gt;Node1</title>
<path fill="none" stroke="#9a32cd" stroke-dasharray="5,2" d="M290.4926,-70.8745C278.3703,-58.668 262.2219,-42.4075 250.5634,-30.668"/>
<polygon fill="#9a32cd" stroke="#9a32cd" points="288.2597,-73.5931 297.7898,-78.2223 293.2266,-68.6605 288.2597,-73.5931"/>
<text text-anchor="middle" x="320.5" y="-52" font-family="Helvetica,sans-Serif" font-size="10.00" fill="#000000"> colorCorrectionInfo</text>
</g>
<!-- Node5 -->
<g id="node5" class="node">
<title>Node5</title>
<g id="a_node5"><a xlink:href="../../d5/dd5/struct_c_u_s_t_o_m___a_n_c___s_t_r_u_c_t.html" target="_top" xlink:title="CUSTOM_ANC_STRUCT">
<polygon fill="#ffffff" stroke="#000000" points="397,-78.5 397,-97.5 530,-97.5 530,-78.5 397,-78.5"/>
<text text-anchor="middle" x="463.5" y="-85.5" font-family="Helvetica,sans-Serif" font-size="10.00" fill="#000000">CUSTOM_ANC_STRUCT</text>
</a>
</g>
</g>
<!-- Node5&#45;&gt;Node1 -->
<g id="edge4" class="edge">
<title>Node5&#45;&gt;Node1</title>
<path fill="none" stroke="#9a32cd" stroke-dasharray="5,2" d="M433.2623,-74.469C414.5567,-66.4124 389.9145,-56.3586 367.5,-49 346.4966,-42.1046 323.2272,-35.7773 302.1488,-30.523"/>
<polygon fill="#9a32cd" stroke="#9a32cd" points="431.894,-77.6906 442.4597,-78.4752 434.6894,-71.2729 431.894,-77.6906"/>
<text text-anchor="middle" x="431.5" y="-52" font-family="Helvetica,sans-Serif" font-size="10.00" fill="#000000"> customAncInfo</text>
</g>
</g>
</svg>
