<?xml version="1.0" encoding="UTF-8" standalone="no"?>
<!DOCTYPE svg PUBLIC "-//W3C//DTD SVG 1.1//EN"
 "http://www.w3.org/Graphics/SVG/1.1/DTD/svg11.dtd">
<!-- Generated by graphviz version 2.40.1 (0)
 -->
<!-- Title: CSourceStream Pages: 1 -->
<svg width="315pt" height="252pt"
 viewBox="0.00 0.00 314.50 252.00" xmlns="http://www.w3.org/2000/svg" xmlns:xlink="http://www.w3.org/1999/xlink">
<g id="graph0" class="graph" transform="scale(1 1) rotate(0) translate(4 248)">
<title>CSourceStream</title>
<polygon fill="#ffffff" stroke="transparent" points="-4,4 -4,-248 310.5,-248 310.5,4 -4,4"/>
<!-- Node0 -->
<g id="node1" class="node">
<title>Node0</title>
<polygon fill="#bfbfbf" stroke="#000000" points="97.5,-.5 97.5,-19.5 183.5,-19.5 183.5,-.5 97.5,-.5"/>
<text text-anchor="middle" x="140.5" y="-7.5" font-family="Helvetica,sans-Serif" font-size="10.00" fill="#000000">CSourceStream</text>
</g>
<!-- Node1 -->
<g id="node2" class="node">
<title>Node1</title>
<polygon fill="#ffffff" stroke="#bfbfbf" points="57,-56.5 57,-75.5 126,-75.5 126,-56.5 57,-56.5"/>
<text text-anchor="middle" x="91.5" y="-63.5" font-family="Helvetica,sans-Serif" font-size="10.00" fill="#000000">CAMThread</text>
</g>
<!-- Node1&#45;&gt;Node0 -->
<g id="edge1" class="edge">
<title>Node1&#45;&gt;Node0</title>
<path fill="none" stroke="#191970" d="M106.8122,-48.5004C115.1447,-38.9775 125.1353,-27.5596 132.0627,-19.6427"/>
<polygon fill="#191970" stroke="#191970" points="103.9862,-46.415 100.0351,-56.2455 109.2543,-51.0245 103.9862,-46.415"/>
</g>
<!-- Node2 -->
<g id="node3" class="node">
<title>Node2</title>
<g id="a_node3"><a xlink:href="../../dc/d8e/class_c_base_output_pin.html" target="_top" xlink:title="CBaseOutputPin">
<polygon fill="#ffffff" stroke="#000000" points="144.5,-56.5 144.5,-75.5 234.5,-75.5 234.5,-56.5 144.5,-56.5"/>
<text text-anchor="middle" x="189.5" y="-63.5" font-family="Helvetica,sans-Serif" font-size="10.00" fill="#000000">CBaseOutputPin</text>
</a>
</g>
</g>
<!-- Node2&#45;&gt;Node0 -->
<g id="edge2" class="edge">
<title>Node2&#45;&gt;Node0</title>
<path fill="none" stroke="#191970" d="M174.1878,-48.5004C165.8553,-38.9775 155.8647,-27.5596 148.9373,-19.6427"/>
<polygon fill="#191970" stroke="#191970" points="171.7457,-51.0245 180.9649,-56.2455 177.0138,-46.415 171.7457,-51.0245"/>
</g>
<!-- Node3 -->
<g id="node4" class="node">
<title>Node3</title>
<g id="a_node4"><a xlink:href="../../d8/d75/class_c_base_pin.html" target="_top" xlink:title="CBasePin">
<polygon fill="#ffffff" stroke="#000000" points="159,-112.5 159,-131.5 220,-131.5 220,-112.5 159,-112.5"/>
<text text-anchor="middle" x="189.5" y="-119.5" font-family="Helvetica,sans-Serif" font-size="10.00" fill="#000000">CBasePin</text>
</a>
</g>
</g>
<!-- Node3&#45;&gt;Node2 -->
<g id="edge3" class="edge">
<title>Node3&#45;&gt;Node2</title>
<path fill="none" stroke="#191970" d="M189.5,-102.1575C189.5,-93.155 189.5,-82.9199 189.5,-75.6427"/>
<polygon fill="#191970" stroke="#191970" points="186.0001,-102.2455 189.5,-112.2455 193.0001,-102.2456 186.0001,-102.2455"/>
</g>
<!-- Node4 -->
<g id="node5" class="node">
<title>Node4</title>
<g id="a_node5"><a xlink:href="../../d9/d89/class_c_unknown.html" target="_top" xlink:title="CUnknown">
<polygon fill="#ffffff" stroke="#000000" points="89,-168.5 89,-187.5 154,-187.5 154,-168.5 89,-168.5"/>
<text text-anchor="middle" x="121.5" y="-175.5" font-family="Helvetica,sans-Serif" font-size="10.00" fill="#000000">CUnknown</text>
</a>
</g>
</g>
<!-- Node4&#45;&gt;Node3 -->
<g id="edge4" class="edge">
<title>Node4&#45;&gt;Node3</title>
<path fill="none" stroke="#191970" d="M141.3596,-161.645C153.1858,-151.9058 167.7892,-139.8795 177.791,-131.6427"/>
<polygon fill="#191970" stroke="#191970" points="138.839,-159.1867 133.3447,-168.2455 143.289,-164.5902 138.839,-159.1867"/>
</g>
<!-- Node5 -->
<g id="node6" class="node">
<title>Node5</title>
<polygon fill="#ffffff" stroke="#bfbfbf" points="0,-224.5 0,-243.5 125,-243.5 125,-224.5 0,-224.5"/>
<text text-anchor="middle" x="62.5" y="-231.5" font-family="Helvetica,sans-Serif" font-size="10.00" fill="#000000">INonDelegatingUnknown</text>
</g>
<!-- Node5&#45;&gt;Node4 -->
<g id="edge5" class="edge">
<title>Node5&#45;&gt;Node4</title>
<path fill="none" stroke="#191970" d="M80.0307,-217.3607C90.2377,-207.6727 102.7469,-195.7995 111.3408,-187.6427"/>
<polygon fill="#191970" stroke="#191970" points="77.6206,-214.8227 72.777,-224.2455 82.4396,-219.8998 77.6206,-214.8227"/>
</g>
<!-- Node6 -->
<g id="node7" class="node">
<title>Node6</title>
<g id="a_node7"><a xlink:href="../../d1/d2d/class_c_base_object.html" target="_top" xlink:title="CBaseObject">
<polygon fill="#ffffff" stroke="#000000" points="143,-224.5 143,-243.5 218,-243.5 218,-224.5 143,-224.5"/>
<text text-anchor="middle" x="180.5" y="-231.5" font-family="Helvetica,sans-Serif" font-size="10.00" fill="#000000">CBaseObject</text>
</a>
</g>
</g>
<!-- Node6&#45;&gt;Node4 -->
<g id="edge6" class="edge">
<title>Node6&#45;&gt;Node4</title>
<path fill="none" stroke="#191970" d="M162.9693,-217.3607C152.7623,-207.6727 140.2531,-195.7995 131.6592,-187.6427"/>
<polygon fill="#191970" stroke="#191970" points="160.5604,-219.8998 170.223,-224.2455 165.3794,-214.8227 160.5604,-219.8998"/>
</g>
<!-- Node7 -->
<g id="node8" class="node">
<title>Node7</title>
<polygon fill="#ffffff" stroke="#bfbfbf" points="172.5,-168.5 172.5,-187.5 206.5,-187.5 206.5,-168.5 172.5,-168.5"/>
<text text-anchor="middle" x="189.5" y="-175.5" font-family="Helvetica,sans-Serif" font-size="10.00" fill="#000000">IPin</text>
</g>
<!-- Node7&#45;&gt;Node3 -->
<g id="edge7" class="edge">
<title>Node7&#45;&gt;Node3</title>
<path fill="none" stroke="#191970" d="M189.5,-158.1575C189.5,-149.155 189.5,-138.9199 189.5,-131.6427"/>
<polygon fill="#191970" stroke="#191970" points="186.0001,-158.2455 189.5,-168.2455 193.0001,-158.2456 186.0001,-158.2455"/>
</g>
<!-- Node8 -->
<g id="node9" class="node">
<title>Node8</title>
<polygon fill="#ffffff" stroke="#bfbfbf" points="224.5,-168.5 224.5,-187.5 306.5,-187.5 306.5,-168.5 224.5,-168.5"/>
<text text-anchor="middle" x="265.5" y="-175.5" font-family="Helvetica,sans-Serif" font-size="10.00" fill="#000000">IQualityControl</text>
</g>
<!-- Node8&#45;&gt;Node3 -->
<g id="edge8" class="edge">
<title>Node8&#45;&gt;Node3</title>
<path fill="none" stroke="#191970" d="M244.0703,-162.2097C230.7223,-152.3743 213.9821,-140.0394 202.5865,-131.6427"/>
<polygon fill="#191970" stroke="#191970" points="242.135,-165.1312 252.2618,-168.2455 246.2874,-159.4958 242.135,-165.1312"/>
</g>
</g>
</svg>
