<?xml version="1.0" encoding="UTF-8" standalone="no"?>
<!DOCTYPE svg PUBLIC "-//W3C//DTD SVG 1.1//EN"
 "http://www.w3.org/Graphics/SVG/1.1/DTD/svg11.dtd">
<!-- Generated by graphviz version 2.43.0 (0)
 -->
<!-- Title: /home/tcbuilder/buildAgent/work/df8e8cce5bebfd58/libajantv2/demos/ntv2encodehevcvif/ntv2encodehevcvif.h Pages: 1 -->
<svg width="488pt" height="128pt"
 viewBox="0.00 0.00 487.50 128.00" xmlns="http://www.w3.org/2000/svg" xmlns:xlink="http://www.w3.org/1999/xlink">
<g id="graph0" class="graph" transform="scale(1 1) rotate(0) translate(4 124)">
<title>/home/tcbuilder/buildAgent/work/df8e8cce5bebfd58/libajantv2/demos/ntv2encodehevcvif/ntv2encodehevcvif.h</title>
<polygon fill="white" stroke="transparent" points="-4,4 -4,-124 483.5,-124 483.5,4 -4,4"/>
<!-- Node1 -->
<g id="node1" class="node">
<title>Node1</title>
<g id="a_node1"><a xlink:title="Declares the NTV2EncodeHEVCVif class.">
<polygon fill="#bfbfbf" stroke="black" points="96,-78.5 96,-119.5 349,-119.5 349,-78.5 96,-78.5"/>
<text text-anchor="start" x="104" y="-107.5" font-family="Helvetica,sans-Serif" font-size="10.00">/home/tcbuilder/buildAgent</text>
<text text-anchor="start" x="104" y="-96.5" font-family="Helvetica,sans-Serif" font-size="10.00">/work/df8e8cce5bebfd58/libajantv2</text>
<text text-anchor="middle" x="222.5" y="-85.5" font-family="Helvetica,sans-Serif" font-size="10.00">/demos/ntv2encodehevcvif/ntv2encodehevcvif.h</text>
</a>
</g>
</g>
<!-- Node2 -->
<g id="node2" class="node">
<title>Node2</title>
<g id="a_node2"><a xlink:href="../../d4/dcd/ntv2encodehevcvif_2main_8cpp.html" target="_top" xlink:title="Demonstration application to capture frames from SDI input.">
<polygon fill="white" stroke="black" points="0,-0.5 0,-41.5 197,-41.5 197,-0.5 0,-0.5"/>
<text text-anchor="start" x="8" y="-29.5" font-family="Helvetica,sans-Serif" font-size="10.00">/home/tcbuilder/buildAgent</text>
<text text-anchor="start" x="8" y="-18.5" font-family="Helvetica,sans-Serif" font-size="10.00">/work/df8e8cce5bebfd58/libajantv2</text>
<text text-anchor="middle" x="98.5" y="-7.5" font-family="Helvetica,sans-Serif" font-size="10.00">/demos/ntv2encodehevcvif/main.cpp</text>
</a>
</g>
</g>
<!-- Node1&#45;&gt;Node2 -->
<g id="edge1" class="edge">
<title>Node1&#45;&gt;Node2</title>
<path fill="none" stroke="midnightblue" d="M181.58,-72.92C164.91,-62.7 145.93,-51.07 130.32,-41.51"/>
<polygon fill="midnightblue" stroke="midnightblue" points="180.21,-76.19 190.57,-78.43 183.87,-70.22 180.21,-76.19"/>
</g>
<!-- Node3 -->
<g id="node3" class="node">
<title>Node3</title>
<g id="a_node3"><a xlink:href="../../df/d0e/ntv2encodehevcvif_8cpp.html" target="_top" xlink:title="Implementation of NTV2EncodeHEVCVif class.">
<polygon fill="white" stroke="black" points="215.5,-0.5 215.5,-41.5 479.5,-41.5 479.5,-0.5 215.5,-0.5"/>
<text text-anchor="start" x="223.5" y="-29.5" font-family="Helvetica,sans-Serif" font-size="10.00">/home/tcbuilder/buildAgent</text>
<text text-anchor="start" x="223.5" y="-18.5" font-family="Helvetica,sans-Serif" font-size="10.00">/work/df8e8cce5bebfd58/libajantv2</text>
<text text-anchor="middle" x="347.5" y="-7.5" font-family="Helvetica,sans-Serif" font-size="10.00">/demos/ntv2encodehevcvif/ntv2encodehevcvif.cpp</text>
</a>
</g>
</g>
<!-- Node1&#45;&gt;Node3 -->
<g id="edge2" class="edge">
<title>Node1&#45;&gt;Node3</title>
<path fill="none" stroke="midnightblue" d="M263.28,-73.2C280.2,-62.92 299.54,-51.16 315.42,-41.51"/>
<polygon fill="midnightblue" stroke="midnightblue" points="261.42,-70.24 254.69,-78.43 265.05,-76.22 261.42,-70.24"/>
</g>
</g>
</svg>
