<?xml version="1.0" encoding="UTF-8" standalone="no"?>
<!DOCTYPE svg PUBLIC "-//W3C//DTD SVG 1.1//EN"
 "http://www.w3.org/Graphics/SVG/1.1/DTD/svg11.dtd">
<!-- Generated by graphviz version 2.40.1 (0)
 -->
<!-- Title: /home/tcbuilder/buildAgent/work/df8e8cce5bebfd58/libajantv2/ajantv2/src/ntv2routingexpert.cpp Pages: 1 -->
<svg width="1495pt" height="386pt"
 viewBox="0.00 0.00 1494.61 386.00" xmlns="http://www.w3.org/2000/svg" xmlns:xlink="http://www.w3.org/1999/xlink">
<g id="graph0" class="graph" transform="scale(1 1) rotate(0) translate(4 382)">
<title>/home/tcbuilder/buildAgent/work/df8e8cce5bebfd58/libajantv2/ajantv2/src/ntv2routingexpert.cpp</title>
<polygon fill="#ffffff" stroke="transparent" points="-4,4 -4,-382 1490.6148,-382 1490.6148,4 -4,4"/>
<!-- Node0 -->
<g id="node1" class="node">
<title>Node0</title>
<polygon fill="#bfbfbf" stroke="#000000" points="966.5,-336.5 966.5,-377.5 1133.5,-377.5 1133.5,-336.5 966.5,-336.5"/>
<text text-anchor="start" x="974.5" y="-365.5" font-family="Helvetica,sans-Serif" font-size="10.00" fill="#000000">/home/tcbuilder/buildAgent</text>
<text text-anchor="start" x="974.5" y="-354.5" font-family="Helvetica,sans-Serif" font-size="10.00" fill="#000000">/work/df8e8cce5bebfd58/libajantv2</text>
<text text-anchor="middle" x="1050" y="-343.5" font-family="Helvetica,sans-Serif" font-size="10.00" fill="#000000">/ajantv2/src/ntv2routingexpert.cpp</text>
</g>
<!-- Node1 -->
<g id="node2" class="node">
<title>Node1</title>
<g id="a_node2"><a xlink:href="../../de/d4c/ntv2routingexpert_8h.html" target="_top" xlink:title="Declares RoutingExpert class used by CNTV2SignalRouter. ">
<polygon fill="#ffffff" stroke="#000000" points="783,-280.5 783,-299.5 883,-299.5 883,-280.5 783,-280.5"/>
<text text-anchor="middle" x="833" y="-287.5" font-family="Helvetica,sans-Serif" font-size="10.00" fill="#000000">ntv2routingexpert.h</text>
</a>
</g>
</g>
<!-- Node0&#45;&gt;Node1 -->
<g id="edge1" class="edge">
<title>Node0&#45;&gt;Node1</title>
<path fill="none" stroke="#191970" d="M983.4181,-336.4425C947.4439,-325.3352 904.2046,-311.9848 873.3366,-302.4542"/>
<polygon fill="#191970" stroke="#191970" points="874.3616,-299.1077 863.7741,-299.5017 872.2965,-305.7961 874.3616,-299.1077"/>
</g>
<!-- Node29 -->
<g id="node30" class="node">
<title>Node29</title>
<g id="a_node30"><a xlink:href="../../db/d16/debug_8h.html" target="_top" xlink:title="Declares the AJADebug class. ">
<polygon fill="#ffffff" stroke="#000000" points="988.5,-168.5 988.5,-187.5 1111.5,-187.5 1111.5,-168.5 988.5,-168.5"/>
<text text-anchor="middle" x="1050" y="-175.5" font-family="Helvetica,sans-Serif" font-size="10.00" fill="#000000">ajabase/system/debug.h</text>
</a>
</g>
</g>
<!-- Node0&#45;&gt;Node29 -->
<g id="edge41" class="edge">
<title>Node0&#45;&gt;Node29</title>
<path fill="none" stroke="#191970" d="M1050,-336.4664C1050,-301.8145 1050,-232.1656 1050,-197.927"/>
<polygon fill="#191970" stroke="#191970" points="1053.5001,-197.7748 1050,-187.7749 1046.5001,-197.7749 1053.5001,-197.7748"/>
</g>
<!-- Node32 -->
<g id="node33" class="node">
<title>Node32</title>
<g id="a_node33"><a xlink:href="../../dc/d54/common_8h.html" target="_top" xlink:title="Private include file for all ajabase sources. ">
<polygon fill="#ffffff" stroke="#000000" points="1276,-168.5 1276,-187.5 1416,-187.5 1416,-168.5 1276,-168.5"/>
<text text-anchor="middle" x="1346" y="-175.5" font-family="Helvetica,sans-Serif" font-size="10.00" fill="#000000">ajabase/common/common.h</text>
</a>
</g>
</g>
<!-- Node0&#45;&gt;Node32 -->
<g id="edge52" class="edge">
<title>Node0&#45;&gt;Node32</title>
<path fill="none" stroke="#191970" d="M1083.955,-336.4664C1144.2647,-299.9953 1268.6829,-224.756 1321.4644,-192.8374"/>
<polygon fill="#191970" stroke="#191970" points="1323.4217,-195.7441 1330.1675,-187.5744 1319.7993,-189.7541 1323.4217,-195.7441"/>
</g>
<!-- Node2 -->
<g id="node3" class="node">
<title>Node2</title>
<g id="a_node3"><a xlink:href="../../dc/d95/ntv2signalrouter_8h.html" target="_top" xlink:title="Declares CNTV2SignalRouter class. ">
<polygon fill="#ffffff" stroke="#000000" points="719.5,-224.5 719.5,-243.5 812.5,-243.5 812.5,-224.5 719.5,-224.5"/>
<text text-anchor="middle" x="766" y="-231.5" font-family="Helvetica,sans-Serif" font-size="10.00" fill="#000000">ntv2signalrouter.h</text>
</a>
</g>
</g>
<!-- Node1&#45;&gt;Node2 -->
<g id="edge2" class="edge">
<title>Node1&#45;&gt;Node2</title>
<path fill="none" stroke="#191970" d="M821.3295,-280.2455C811.4339,-271.9746 797.0373,-259.9416 785.4099,-250.2232"/>
<polygon fill="#191970" stroke="#191970" points="787.4542,-247.3703 777.5368,-243.6427 782.965,-252.7413 787.4542,-247.3703"/>
</g>
<!-- Node21 -->
<g id="node22" class="node">
<title>Node21</title>
<g id="a_node22"><a xlink:href="../../dd/d42/lock_8h.html" target="_top" xlink:title="Declares the AJALock class. ">
<polygon fill="#ffffff" stroke="#000000" points="586.5,-224.5 586.5,-243.5 701.5,-243.5 701.5,-224.5 586.5,-224.5"/>
<text text-anchor="middle" x="644" y="-231.5" font-family="Helvetica,sans-Serif" font-size="10.00" fill="#000000">ajabase/system/lock.h</text>
</a>
</g>
</g>
<!-- Node1&#45;&gt;Node21 -->
<g id="edge28" class="edge">
<title>Node1&#45;&gt;Node21</title>
<path fill="none" stroke="#191970" d="M800.5097,-280.3733C768.8098,-270.9807 720.4424,-256.6496 685.8714,-246.4064"/>
<polygon fill="#191970" stroke="#191970" points="686.6486,-242.9863 676.0663,-243.5011 684.6599,-249.6979 686.6486,-242.9863"/>
</g>
<!-- Node27 -->
<g id="node28" class="node">
<title>Node27</title>
<g id="a_node28"><a xlink:href="../../da/dae/ajarefptr_8h.html" target="_top" xlink:title="Defines the AJARefPtr template class. ">
<polygon fill="#ffffff" stroke="#000000" points="830.5,-224.5 830.5,-243.5 967.5,-243.5 967.5,-224.5 830.5,-224.5"/>
<text text-anchor="middle" x="899" y="-231.5" font-family="Helvetica,sans-Serif" font-size="10.00" fill="#000000">ajabase/common/ajarefptr.h</text>
</a>
</g>
</g>
<!-- Node1&#45;&gt;Node27 -->
<g id="edge38" class="edge">
<title>Node1&#45;&gt;Node27</title>
<path fill="none" stroke="#191970" d="M844.4963,-280.2455C854.2442,-271.9746 868.4259,-259.9416 879.8798,-250.2232"/>
<polygon fill="#191970" stroke="#191970" points="882.2747,-252.7813 887.6354,-243.6427 877.7459,-247.4437 882.2747,-252.7813"/>
</g>
<!-- Node3 -->
<g id="node4" class="node">
<title>Node3</title>
<g id="a_node4"><a xlink:href="../../d6/dd9/ajaexport_8h.html" target="_top" xlink:title="Defines the import/export macros for producing DLLs or LIBs. ">
<polygon fill="#ffffff" stroke="#000000" points="85.5,-.5 85.5,-19.5 150.5,-19.5 150.5,-.5 85.5,-.5"/>
<text text-anchor="middle" x="118" y="-7.5" font-family="Helvetica,sans-Serif" font-size="10.00" fill="#000000">ajaexport.h</text>
</a>
</g>
</g>
<!-- Node2&#45;&gt;Node3 -->
<g id="edge3" class="edge">
<title>Node2&#45;&gt;Node3</title>
<path fill="none" stroke="#191970" d="M719.242,-225.1706C716.4576,-224.7468 713.6945,-224.3521 711,-224 512.4915,-198.0616 449.3144,-258.6523 262,-188 193.13,-162.0232 175.9326,-140.2396 140,-76 131.8116,-61.361 126.033,-43.1819 122.4594,-29.6116"/>
<polygon fill="#191970" stroke="#191970" points="125.8509,-28.746 120.0623,-19.8723 119.0538,-30.4191 125.8509,-28.746"/>
</g>
<!-- Node4 -->
<g id="node5" class="node">
<title>Node4</title>
<g id="a_node5"><a xlink:href="../../d4/dd7/ntv2publicinterface_8h.html" target="_top" xlink:title="Declares enums and structs used by all platform drivers and the SDK. ">
<polygon fill="#ffffff" stroke="#000000" points="430.5,-168.5 430.5,-187.5 537.5,-187.5 537.5,-168.5 430.5,-168.5"/>
<text text-anchor="middle" x="484" y="-175.5" font-family="Helvetica,sans-Serif" font-size="10.00" fill="#000000">ntv2publicinterface.h</text>
</a>
</g>
</g>
<!-- Node2&#45;&gt;Node4 -->
<g id="edge4" class="edge">
<title>Node2&#45;&gt;Node4</title>
<path fill="none" stroke="#191970" d="M719.4334,-224.7527C670.7878,-215.0926 594.3883,-199.9211 541.8907,-189.496"/>
<polygon fill="#191970" stroke="#191970" points="542.5424,-186.0572 532.0521,-187.5423 541.1789,-192.9231 542.5424,-186.0572"/>
</g>
<!-- Node12 -->
<g id="node13" class="node">
<title>Node12</title>
<polygon fill="#ffffff" stroke="#bfbfbf" points="965,-112.5 965,-131.5 995,-131.5 995,-112.5 965,-112.5"/>
<text text-anchor="middle" x="980" y="-119.5" font-family="Helvetica,sans-Serif" font-size="10.00" fill="#000000">set</text>
</g>
<!-- Node2&#45;&gt;Node12 -->
<g id="edge26" class="edge">
<title>Node2&#45;&gt;Node12</title>
<path fill="none" stroke="#191970" d="M807.9097,-224.4212C835.9734,-216.9491 873.1073,-204.9682 903,-188 926.255,-174.7996 949.0182,-154.0325 963.6884,-139.3227"/>
<polygon fill="#191970" stroke="#191970" points="966.487,-141.4658 970.9576,-131.8603 961.4727,-136.5813 966.487,-141.4658"/>
</g>
<!-- Node13 -->
<g id="node14" class="node">
<title>Node13</title>
<polygon fill="#ffffff" stroke="#bfbfbf" points="176.5,-56.5 176.5,-75.5 211.5,-75.5 211.5,-56.5 176.5,-56.5"/>
<text text-anchor="middle" x="194" y="-63.5" font-family="Helvetica,sans-Serif" font-size="10.00" fill="#000000">map</text>
</g>
<!-- Node2&#45;&gt;Node13 -->
<g id="edge27" class="edge">
<title>Node2&#45;&gt;Node13</title>
<path fill="none" stroke="#191970" d="M719.2222,-225.3098C716.4428,-224.851 713.6862,-224.4106 711,-224 490.6655,-190.321 381.7563,-283.2133 218,-132 205.0088,-120.0038 199.0344,-100.417 196.296,-85.6904"/>
<polygon fill="#191970" stroke="#191970" points="199.7237,-84.948 194.7701,-75.5825 192.8021,-85.9929 199.7237,-84.948"/>
</g>
<!-- Node19 -->
<g id="node20" class="node">
<title>Node19</title>
<polygon fill="#ffffff" stroke="#bfbfbf" points="1124,-56.5 1124,-75.5 1176,-75.5 1176,-56.5 1124,-56.5"/>
<text text-anchor="middle" x="1150" y="-63.5" font-family="Helvetica,sans-Serif" font-size="10.00" fill="#000000">stddef.h</text>
</g>
<!-- Node2&#45;&gt;Node19 -->
<g id="edge24" class="edge">
<title>Node2&#45;&gt;Node19</title>
<path fill="none" stroke="#191970" d="M812.7183,-225.4525C815.8562,-224.9416 818.972,-224.4523 822,-224 888.1901,-214.1137 1069.725,-231.0086 1121,-188 1150.9066,-162.9149 1153.1467,-113.1232 1151.8043,-85.5379"/>
<polygon fill="#191970" stroke="#191970" points="1155.2932,-85.2566 1151.1083,-75.5233 1148.3101,-85.7419 1155.2932,-85.2566"/>
</g>
<!-- Node20 -->
<g id="node21" class="node">
<title>Node20</title>
<polygon fill="#ffffff" stroke="#bfbfbf" points="1013,-112.5 1013,-131.5 1065,-131.5 1065,-112.5 1013,-112.5"/>
<text text-anchor="middle" x="1039" y="-119.5" font-family="Helvetica,sans-Serif" font-size="10.00" fill="#000000">sstream</text>
</g>
<!-- Node2&#45;&gt;Node20 -->
<g id="edge25" class="edge">
<title>Node2&#45;&gt;Node20</title>
<path fill="none" stroke="#191970" d="M812.7471,-224.4476C846.2028,-216.7638 891.8789,-204.5215 930,-188 962.147,-174.0677 996.236,-152.1137 1017.5605,-137.3956"/>
<polygon fill="#191970" stroke="#191970" points="1019.69,-140.1773 1025.8752,-131.5753 1015.6757,-134.4426 1019.69,-140.1773"/>
</g>
<!-- Node4&#45;&gt;Node3 -->
<g id="edge21" class="edge">
<title>Node4&#45;&gt;Node3</title>
<path fill="none" stroke="#191970" d="M430.3242,-172.8693C363.4713,-165.771 253.6981,-151.5792 218,-132 174.3731,-108.072 142.3019,-56.6571 127.3586,-28.8236"/>
<polygon fill="#191970" stroke="#191970" points="130.3522,-26.9935 122.6385,-19.7306 124.1394,-30.2186 130.3522,-26.9935"/>
</g>
<!-- Node5 -->
<g id="node6" class="node">
<title>Node5</title>
<g id="a_node6"><a xlink:href="../../db/de2/ajatypes_8h.html" target="_top" xlink:title="Declares the most fundamental data types used by NTV2. Since Windows NT was the first principal devel...">
<polygon fill="#ffffff" stroke="#000000" points="474,-56.5 474,-75.5 536,-75.5 536,-56.5 474,-56.5"/>
<text text-anchor="middle" x="505" y="-63.5" font-family="Helvetica,sans-Serif" font-size="10.00" fill="#000000">ajatypes.h</text>
</a>
</g>
</g>
<!-- Node4&#45;&gt;Node5 -->
<g id="edge5" class="edge">
<title>Node4&#45;&gt;Node5</title>
<path fill="none" stroke="#191970" d="M430.3161,-175.081C368.6995,-170.4768 273.2532,-159.0761 251,-132 245.356,-125.1328 245.3021,-118.8225 251,-112 277.5996,-80.1505 398.635,-70.3087 463.5568,-67.301"/>
<polygon fill="#191970" stroke="#191970" points="464.0108,-70.7848 473.8517,-66.8596 463.7109,-63.7912 464.0108,-70.7848"/>
</g>
<!-- Node8 -->
<g id="node9" class="node">
<title>Node8</title>
<g id="a_node9"><a xlink:href="../../d6/d0c/ntv2enums_8h.html" target="_top" xlink:title="Enumerations for controlling NTV2 devices. ">
<polygon fill="#ffffff" stroke="#000000" points="651.5,-112.5 651.5,-131.5 724.5,-131.5 724.5,-112.5 651.5,-112.5"/>
<text text-anchor="middle" x="688" y="-119.5" font-family="Helvetica,sans-Serif" font-size="10.00" fill="#000000">ntv2enums.h</text>
</a>
</g>
</g>
<!-- Node4&#45;&gt;Node8 -->
<g id="edge8" class="edge">
<title>Node4&#45;&gt;Node8</title>
<path fill="none" stroke="#191970" d="M519.0689,-168.3733C553.4315,-158.9404 605.9392,-144.5265 643.2851,-134.2747"/>
<polygon fill="#191970" stroke="#191970" points="644.672,-137.5235 653.3888,-131.5011 642.819,-130.7732 644.672,-137.5235"/>
</g>
<!-- Node10 -->
<g id="node11" class="node">
<title>Node10</title>
<polygon fill="#ffffff" stroke="#bfbfbf" points="867.5,-.5 867.5,-19.5 908.5,-19.5 908.5,-.5 867.5,-.5"/>
<text text-anchor="middle" x="888" y="-7.5" font-family="Helvetica,sans-Serif" font-size="10.00" fill="#000000">string</text>
</g>
<!-- Node4&#45;&gt;Node10 -->
<g id="edge17" class="edge">
<title>Node4&#45;&gt;Node10</title>
<path fill="none" stroke="#191970" d="M537.6801,-171.478C600.4463,-163.2711 700.0771,-148.268 734,-132 780.5969,-109.654 781.1914,-87.706 822,-56 835.8899,-45.2084 852.0862,-33.9021 864.9583,-25.1992"/>
<polygon fill="#191970" stroke="#191970" points="866.9115,-28.1035 873.2694,-19.6284 863.014,-22.2889 866.9115,-28.1035"/>
</g>
<!-- Node11 -->
<g id="node12" class="node">
<title>Node11</title>
<polygon fill="#ffffff" stroke="#bfbfbf" points="260,-112.5 260,-131.5 314,-131.5 314,-112.5 260,-112.5"/>
<text text-anchor="middle" x="287" y="-119.5" font-family="Helvetica,sans-Serif" font-size="10.00" fill="#000000">iostream</text>
</g>
<!-- Node4&#45;&gt;Node11 -->
<g id="edge13" class="edge">
<title>Node4&#45;&gt;Node11</title>
<path fill="none" stroke="#191970" d="M450.1345,-168.3733C414.9398,-158.3687 360.0345,-142.7611 323.7919,-132.4586"/>
<polygon fill="#191970" stroke="#191970" points="324.6724,-129.0703 314.0965,-129.7026 322.7584,-135.8036 324.6724,-129.0703"/>
</g>
<!-- Node4&#45;&gt;Node12 -->
<g id="edge14" class="edge">
<title>Node4&#45;&gt;Node12</title>
<path fill="none" stroke="#191970" d="M537.5069,-176.7837C624.9617,-173.8948 803.5578,-164.2166 951,-132 952.2877,-131.7186 953.5975,-131.3982 954.9131,-131.0489"/>
<polygon fill="#191970" stroke="#191970" points="956.3227,-134.2764 964.8398,-127.9749 954.252,-127.5897 956.3227,-134.2764"/>
</g>
<!-- Node4&#45;&gt;Node13 -->
<g id="edge15" class="edge">
<title>Node4&#45;&gt;Node13</title>
<path fill="none" stroke="#191970" d="M430.2515,-172.3334C369.0337,-165.0912 273.5333,-151.1591 243,-132 224.9526,-120.6756 211.2899,-100.1124 203.0358,-84.9379"/>
<polygon fill="#191970" stroke="#191970" points="206.0771,-83.1982 198.4009,-75.8956 199.8477,-86.3912 206.0771,-83.1982"/>
</g>
<!-- Node14 -->
<g id="node15" class="node">
<title>Node14</title>
<polygon fill="#ffffff" stroke="#bfbfbf" points="989,-56.5 989,-75.5 1033,-75.5 1033,-56.5 989,-56.5"/>
<text text-anchor="middle" x="1011" y="-63.5" font-family="Helvetica,sans-Serif" font-size="10.00" fill="#000000">vector</text>
</g>
<!-- Node4&#45;&gt;Node14 -->
<g id="edge16" class="edge">
<title>Node4&#45;&gt;Node14</title>
<path fill="none" stroke="#191970" d="M537.8788,-175.6918C638.2114,-170.8359 849.6943,-157.8192 918,-132 947.2842,-120.9307 975.8738,-98.3554 993.4542,-82.7111"/>
<polygon fill="#191970" stroke="#191970" points="996.1375,-85.0002 1001.1551,-75.6688 991.4135,-79.8345 996.1375,-85.0002"/>
</g>
<!-- Node15 -->
<g id="node16" class="node">
<title>Node15</title>
<polygon fill="#ffffff" stroke="#bfbfbf" points="332,-112.5 332,-131.5 382,-131.5 382,-112.5 332,-112.5"/>
<text text-anchor="middle" x="357" y="-119.5" font-family="Helvetica,sans-Serif" font-size="10.00" fill="#000000">iomanip</text>
</g>
<!-- Node4&#45;&gt;Node15 -->
<g id="edge18" class="edge">
<title>Node4&#45;&gt;Node15</title>
<path fill="none" stroke="#191970" d="M462.1679,-168.3733C441.6897,-159.3435 410.8601,-145.7494 387.8681,-135.6111"/>
<polygon fill="#191970" stroke="#191970" points="389.1093,-132.3333 378.5472,-131.5011 386.285,-138.7383 389.1093,-132.3333"/>
</g>
<!-- Node16 -->
<g id="node17" class="node">
<title>Node16</title>
<polygon fill="#ffffff" stroke="#bfbfbf" points="400.5,-112.5 400.5,-131.5 441.5,-131.5 441.5,-112.5 400.5,-112.5"/>
<text text-anchor="middle" x="421" y="-119.5" font-family="Helvetica,sans-Serif" font-size="10.00" fill="#000000">bitset</text>
</g>
<!-- Node4&#45;&gt;Node16 -->
<g id="edge19" class="edge">
<title>Node4&#45;&gt;Node16</title>
<path fill="none" stroke="#191970" d="M473.0262,-168.2455C463.8118,-160.0549 450.4468,-148.1749 439.5703,-138.5069"/>
<polygon fill="#191970" stroke="#191970" points="441.6474,-135.6704 431.848,-131.6427 436.9968,-140.9023 441.6474,-135.6704"/>
</g>
<!-- Node17 -->
<g id="node18" class="node">
<title>Node17</title>
<polygon fill="#ffffff" stroke="#bfbfbf" points="459.5,-112.5 459.5,-131.5 508.5,-131.5 508.5,-112.5 459.5,-112.5"/>
<text text-anchor="middle" x="484" y="-119.5" font-family="Helvetica,sans-Serif" font-size="10.00" fill="#000000">string.h</text>
</g>
<!-- Node4&#45;&gt;Node17 -->
<g id="edge20" class="edge">
<title>Node4&#45;&gt;Node17</title>
<path fill="none" stroke="#191970" d="M484,-168.2455C484,-160.9382 484,-150.6944 484,-141.7046"/>
<polygon fill="#191970" stroke="#191970" points="487.5001,-141.6426 484,-131.6427 480.5001,-141.6427 487.5001,-141.6426"/>
</g>
<!-- Node18 -->
<g id="node19" class="node">
<title>Node18</title>
<g id="a_node19"><a xlink:href="../../da/df0/ntv2virtualregisters_8h.html" target="_top" xlink:title="Declares enums for virtual registers used in all platform drivers and the SDK. ">
<polygon fill="#ffffff" stroke="#000000" points="526.5,-112.5 526.5,-131.5 633.5,-131.5 633.5,-112.5 526.5,-112.5"/>
<text text-anchor="middle" x="580" y="-119.5" font-family="Helvetica,sans-Serif" font-size="10.00" fill="#000000">ntv2virtualregisters.h</text>
</a>
</g>
</g>
<!-- Node4&#45;&gt;Node18 -->
<g id="edge22" class="edge">
<title>Node4&#45;&gt;Node18</title>
<path fill="none" stroke="#191970" d="M500.7219,-168.2455C515.5889,-159.5731 537.5466,-146.7645 554.5858,-136.825"/>
<polygon fill="#191970" stroke="#191970" points="556.5955,-139.7047 563.4697,-131.6427 553.0683,-133.6582 556.5955,-139.7047"/>
</g>
<!-- Node6 -->
<g id="node7" class="node">
<title>Node6</title>
<g id="a_node7"><a xlink:href="../../db/d40/ntv2deprecate_8h.html" target="_top" xlink:title="Deprecation control macros. ">
<polygon fill="#ffffff" stroke="#000000" points="520,-.5 520,-19.5 606,-19.5 606,-.5 520,-.5"/>
<text text-anchor="middle" x="563" y="-7.5" font-family="Helvetica,sans-Serif" font-size="10.00" fill="#000000">ntv2deprecate.h</text>
</a>
</g>
</g>
<!-- Node5&#45;&gt;Node6 -->
<g id="edge6" class="edge">
<title>Node5&#45;&gt;Node6</title>
<path fill="none" stroke="#191970" d="M515.1028,-56.2455C523.5028,-48.1352 535.6494,-36.4075 545.6084,-26.7919"/>
<polygon fill="#191970" stroke="#191970" points="548.25,-29.1066 553.0129,-19.6427 543.3878,-24.0707 548.25,-29.1066"/>
</g>
<!-- Node7 -->
<g id="node8" class="node">
<title>Node7</title>
<polygon fill="#ffffff" stroke="#bfbfbf" points="683.5,-.5 683.5,-19.5 732.5,-19.5 732.5,-.5 683.5,-.5"/>
<text text-anchor="middle" x="708" y="-7.5" font-family="Helvetica,sans-Serif" font-size="10.00" fill="#000000">stdint.h</text>
</g>
<!-- Node5&#45;&gt;Node7 -->
<g id="edge7" class="edge">
<title>Node5&#45;&gt;Node7</title>
<path fill="none" stroke="#191970" d="M536.2739,-57.3727C573.436,-47.1211 635.2328,-30.0737 673.6824,-19.4669"/>
<polygon fill="#191970" stroke="#191970" points="674.6874,-22.8205 683.3966,-16.7871 672.8259,-16.0725 674.6874,-22.8205"/>
</g>
<!-- Node8&#45;&gt;Node5 -->
<g id="edge9" class="edge">
<title>Node8&#45;&gt;Node5</title>
<path fill="none" stroke="#191970" d="M656.5412,-112.3733C625.9793,-103.021 579.4174,-88.7725 545.9739,-78.5385"/>
<polygon fill="#191970" stroke="#191970" points="546.6348,-75.0806 536.0483,-75.5011 544.5864,-81.7742 546.6348,-75.0806"/>
</g>
<!-- Node9 -->
<g id="node10" class="node">
<title>Node9</title>
<g id="a_node10"><a xlink:href="../../d6/db1/ntv2version_8h.html" target="_top" xlink:title="Defines for the NTV2 SDK version number, used by ajantv2/includes/ntv2enums.h. See the ajantv2/includ...">
<polygon fill="#ffffff" stroke="#000000" points="554.5,-56.5 554.5,-75.5 629.5,-75.5 629.5,-56.5 554.5,-56.5"/>
<text text-anchor="middle" x="592" y="-63.5" font-family="Helvetica,sans-Serif" font-size="10.00" fill="#000000">ntv2version.h</text>
</a>
</g>
</g>
<!-- Node8&#45;&gt;Node9 -->
<g id="edge10" class="edge">
<title>Node8&#45;&gt;Node9</title>
<path fill="none" stroke="#191970" d="M671.2781,-112.2455C656.4111,-103.5731 634.4534,-90.7645 617.4142,-80.825"/>
<polygon fill="#191970" stroke="#191970" points="618.9317,-77.6582 608.5303,-75.6427 615.4045,-83.7047 618.9317,-77.6582"/>
</g>
<!-- Node9&#45;&gt;Node3 -->
<g id="edge11" class="edge">
<title>Node9&#45;&gt;Node3</title>
<path fill="none" stroke="#191970" d="M554.3534,-57.6358C551.1967,-57.0423 548.048,-56.4871 545,-56 405.2408,-33.6641 237.9735,-19.1607 160.833,-13.1548"/>
<polygon fill="#191970" stroke="#191970" points="160.7977,-9.6419 150.5585,-12.3639 160.2604,-16.6212 160.7977,-9.6419"/>
</g>
<!-- Node9&#45;&gt;Node10 -->
<g id="edge12" class="edge">
<title>Node9&#45;&gt;Node10</title>
<path fill="none" stroke="#191970" d="M629.6916,-57.8871C632.8384,-57.2382 635.9725,-56.6016 639,-56 717.5683,-40.3873 810.4434,-23.6948 857.4518,-15.3698"/>
<polygon fill="#191970" stroke="#191970" points="858.0662,-18.8156 867.3045,-13.6286 856.848,-11.9224 858.0662,-18.8156"/>
</g>
<!-- Node18&#45;&gt;Node5 -->
<g id="edge23" class="edge">
<title>Node18&#45;&gt;Node5</title>
<path fill="none" stroke="#191970" d="M566.936,-112.2455C555.6438,-103.814 539.1155,-91.4729 525.9729,-81.6598"/>
<polygon fill="#191970" stroke="#191970" points="528.0211,-78.8211 517.9143,-75.6427 523.8331,-84.4301 528.0211,-78.8211"/>
</g>
<!-- Node22 -->
<g id="node23" class="node">
<title>Node22</title>
<g id="a_node23"><a xlink:href="../../d4/d79/public_8h.html" target="_top" xlink:title="Master header for the ajabase library. ">
<polygon fill="#ffffff" stroke="#000000" points="781,-112.5 781,-131.5 909,-131.5 909,-112.5 781,-112.5"/>
<text text-anchor="middle" x="845" y="-119.5" font-family="Helvetica,sans-Serif" font-size="10.00" fill="#000000">ajabase/common/public.h</text>
</a>
</g>
</g>
<!-- Node21&#45;&gt;Node22 -->
<g id="edge29" class="edge">
<title>Node21&#45;&gt;Node22</title>
<path fill="none" stroke="#191970" d="M661.1371,-224.4509C696.4416,-204.7788 777.4562,-159.6363 819.1563,-136.4005"/>
<polygon fill="#191970" stroke="#191970" points="820.8744,-139.4498 827.9062,-131.5249 817.4672,-133.335 820.8744,-139.4498"/>
</g>
<!-- Node26 -->
<g id="node27" class="node">
<title>Node26</title>
<polygon fill="#ffffff" stroke="#bfbfbf" points="0,-168.5 0,-187.5 52,-187.5 52,-168.5 0,-168.5"/>
<text text-anchor="middle" x="26" y="-175.5" font-family="Helvetica,sans-Serif" font-size="10.00" fill="#000000">assert.h</text>
</g>
<!-- Node21&#45;&gt;Node26 -->
<g id="edge37" class="edge">
<title>Node21&#45;&gt;Node26</title>
<path fill="none" stroke="#191970" d="M586.1926,-232.5629C481.7122,-229.2646 254.7522,-218.8866 66,-188 64.7284,-187.7919 63.4379,-187.5637 62.1375,-187.3191"/>
<polygon fill="#191970" stroke="#191970" points="62.63,-183.8457 52.1206,-185.1891 61.1739,-190.6926 62.63,-183.8457"/>
</g>
<!-- Node22&#45;&gt;Node10 -->
<g id="edge31" class="edge">
<title>Node22&#45;&gt;Node10</title>
<path fill="none" stroke="#191970" d="M850.7358,-112.3987C856.0098,-103.2742 863.7801,-89.0465 869,-76 875.0903,-60.7781 880.1195,-42.8677 883.4705,-29.5482"/>
<polygon fill="#191970" stroke="#191970" points="886.9278,-30.142 885.8771,-19.5994 880.124,-28.4961 886.9278,-30.142"/>
</g>
<!-- Node22&#45;&gt;Node13 -->
<g id="edge34" class="edge">
<title>Node22&#45;&gt;Node13</title>
<path fill="none" stroke="#191970" d="M780.7329,-116.1566C765.4194,-114.7791 749.1309,-113.326 734,-112 537.9518,-94.8189 301.7829,-75.0056 221.9264,-68.3306"/>
<polygon fill="#191970" stroke="#191970" points="221.9729,-64.8224 211.7162,-67.4776 221.39,-71.7981 221.9729,-64.8224"/>
</g>
<!-- Node22&#45;&gt;Node14 -->
<g id="edge33" class="edge">
<title>Node22&#45;&gt;Node14</title>
<path fill="none" stroke="#191970" d="M873.5364,-112.3733C902.9357,-102.4554 948.6574,-87.0313 979.1999,-76.7278"/>
<polygon fill="#191970" stroke="#191970" points="980.5738,-79.9581 988.9304,-73.4452 978.3362,-73.3254 980.5738,-79.9581"/>
</g>
<!-- Node23 -->
<g id="node24" class="node">
<title>Node23</title>
<g id="a_node24"><a xlink:href="../../db/db5/export_8h.html" target="_top" xlink:title="Declares system&#45;dependent import/export macros and libraries. ">
<polygon fill="#ffffff" stroke="#000000" points="1232.5,-56.5 1232.5,-75.5 1361.5,-75.5 1361.5,-56.5 1232.5,-56.5"/>
<text text-anchor="middle" x="1297" y="-63.5" font-family="Helvetica,sans-Serif" font-size="10.00" fill="#000000">ajabase/common/export.h</text>
</a>
</g>
</g>
<!-- Node22&#45;&gt;Node23 -->
<g id="edge30" class="edge">
<title>Node22&#45;&gt;Node23</title>
<path fill="none" stroke="#191970" d="M909.2806,-114.036C991.8056,-103.8117 1134.7451,-86.1024 1222.1016,-75.2794"/>
<polygon fill="#191970" stroke="#191970" points="1222.7156,-78.7302 1232.2094,-74.0272 1221.8549,-71.7833 1222.7156,-78.7302"/>
</g>
<!-- Node24 -->
<g id="node25" class="node">
<title>Node24</title>
<polygon fill="#ffffff" stroke="#bfbfbf" points="830.5,-56.5 830.5,-75.5 859.5,-75.5 859.5,-56.5 830.5,-56.5"/>
<text text-anchor="middle" x="845" y="-63.5" font-family="Helvetica,sans-Serif" font-size="10.00" fill="#000000">list</text>
</g>
<!-- Node22&#45;&gt;Node24 -->
<g id="edge32" class="edge">
<title>Node22&#45;&gt;Node24</title>
<path fill="none" stroke="#191970" d="M845,-112.2455C845,-104.9382 845,-94.6944 845,-85.7046"/>
<polygon fill="#191970" stroke="#191970" points="848.5001,-85.6426 845,-75.6427 841.5001,-85.6427 848.5001,-85.6426"/>
</g>
<!-- Node25 -->
<g id="node26" class="node">
<title>Node25</title>
<g id="a_node26"><a xlink:href="../../d9/d49/types_8h.html" target="_top" xlink:title="Declares common types used in the ajabase library. ">
<polygon fill="#ffffff" stroke="#000000" points="648,-56.5 648,-75.5 774,-75.5 774,-56.5 648,-56.5"/>
<text text-anchor="middle" x="711" y="-63.5" font-family="Helvetica,sans-Serif" font-size="10.00" fill="#000000">ajabase/common/types.h</text>
</a>
</g>
</g>
<!-- Node22&#45;&gt;Node25 -->
<g id="edge35" class="edge">
<title>Node22&#45;&gt;Node25</title>
<path fill="none" stroke="#191970" d="M821.9646,-112.3733C800.2612,-103.3032 767.5382,-89.6279 743.245,-79.4755"/>
<polygon fill="#191970" stroke="#191970" points="744.3111,-76.1278 733.7348,-75.5011 741.6119,-82.5865 744.3111,-76.1278"/>
</g>
<!-- Node25&#45;&gt;Node6 -->
<g id="edge36" class="edge">
<title>Node25&#45;&gt;Node6</title>
<path fill="none" stroke="#191970" d="M685.5579,-56.3733C661.2674,-47.1822 624.4792,-33.2624 597.5457,-23.0713"/>
<polygon fill="#191970" stroke="#191970" points="598.7016,-19.7666 588.1101,-19.5011 596.2243,-26.3136 598.7016,-19.7666"/>
</g>
<!-- Node28 -->
<g id="node29" class="node">
<title>Node28</title>
<g id="a_node29"><a xlink:href="../../dd/d02/atomic_8h.html" target="_top" xlink:title="Declares the AJAAtomic class. ">
<polygon fill="#ffffff" stroke="#000000" points="796,-168.5 796,-187.5 894,-187.5 894,-168.5 796,-168.5"/>
<text text-anchor="middle" x="845" y="-175.5" font-family="Helvetica,sans-Serif" font-size="10.00" fill="#000000">../system/atomic.h</text>
</a>
</g>
</g>
<!-- Node27&#45;&gt;Node28 -->
<g id="edge39" class="edge">
<title>Node27&#45;&gt;Node28</title>
<path fill="none" stroke="#191970" d="M889.5939,-224.2455C881.8507,-216.2155 870.688,-204.6394 861.4682,-195.0781"/>
<polygon fill="#191970" stroke="#191970" points="863.7591,-192.4117 854.2983,-187.6427 858.7202,-197.2706 863.7591,-192.4117"/>
</g>
<!-- Node28&#45;&gt;Node22 -->
<g id="edge40" class="edge">
<title>Node28&#45;&gt;Node22</title>
<path fill="none" stroke="#191970" d="M845,-168.2455C845,-160.9382 845,-150.6944 845,-141.7046"/>
<polygon fill="#191970" stroke="#191970" points="848.5001,-141.6426 845,-131.6427 841.5001,-141.6427 848.5001,-141.6426"/>
</g>
<!-- Node29&#45;&gt;Node12 -->
<g id="edge44" class="edge">
<title>Node29&#45;&gt;Node12</title>
<path fill="none" stroke="#191970" d="M1037.8069,-168.2455C1027.3679,-159.8943 1012.1345,-147.7076 999.926,-137.9408"/>
<polygon fill="#191970" stroke="#191970" points="1002.0485,-135.1566 992.0533,-131.6427 997.6756,-140.6227 1002.0485,-135.1566"/>
</g>
<!-- Node29&#45;&gt;Node20 -->
<g id="edge43" class="edge">
<title>Node29&#45;&gt;Node20</title>
<path fill="none" stroke="#191970" d="M1048.0839,-168.2455C1046.6486,-160.9382 1044.6364,-150.6944 1042.8705,-141.7046"/>
<polygon fill="#191970" stroke="#191970" points="1046.256,-140.7805 1040.8941,-131.6427 1039.3873,-142.1298 1046.256,-140.7805"/>
</g>
<!-- Node29&#45;&gt;Node22 -->
<g id="edge45" class="edge">
<title>Node29&#45;&gt;Node22</title>
<path fill="none" stroke="#191970" d="M1014.7592,-168.3733C980.0806,-158.9001 927.0117,-144.4032 889.4538,-134.1435"/>
<polygon fill="#191970" stroke="#191970" points="890.3498,-130.7601 879.7809,-131.5011 888.5051,-137.5126 890.3498,-130.7601"/>
</g>
<!-- Node30 -->
<g id="node31" class="node">
<title>Node30</title>
<polygon fill="#ffffff" stroke="#bfbfbf" points="1083,-112.5 1083,-131.5 1129,-131.5 1129,-112.5 1083,-112.5"/>
<text text-anchor="middle" x="1106" y="-119.5" font-family="Helvetica,sans-Serif" font-size="10.00" fill="#000000">stdio.h</text>
</g>
<!-- Node29&#45;&gt;Node30 -->
<g id="edge42" class="edge">
<title>Node29&#45;&gt;Node30</title>
<path fill="none" stroke="#191970" d="M1059.7545,-168.2455C1067.8648,-160.1352 1079.5925,-148.4075 1089.2081,-138.7919"/>
<polygon fill="#191970" stroke="#191970" points="1091.7611,-141.1887 1096.3573,-131.6427 1086.8113,-136.2389 1091.7611,-141.1887"/>
</g>
<!-- Node31 -->
<g id="node32" class="node">
<title>Node31</title>
<g id="a_node32"><a xlink:href="../../d0/db4/debugshare_8h.html" target="_top" xlink:title="Declares the constants used for sharing debug messages. These structures are used to gather debug mes...">
<polygon fill="#ffffff" stroke="#000000" points="1223.5,-112.5 1223.5,-131.5 1370.5,-131.5 1370.5,-112.5 1223.5,-112.5"/>
<text text-anchor="middle" x="1297" y="-119.5" font-family="Helvetica,sans-Serif" font-size="10.00" fill="#000000">ajabase/system/debugshare.h</text>
</a>
</g>
</g>
<!-- Node29&#45;&gt;Node31 -->
<g id="edge46" class="edge">
<title>Node29&#45;&gt;Node31</title>
<path fill="none" stroke="#191970" d="M1092.1802,-168.4369C1134.4523,-158.8529 1199.6062,-144.0812 1245.0417,-133.78"/>
<polygon fill="#191970" stroke="#191970" points="1246.0152,-137.1482 1254.9938,-131.5237 1244.4674,-130.3215 1246.0152,-137.1482"/>
</g>
<!-- Node31&#45;&gt;Node7 -->
<g id="edge49" class="edge">
<title>Node31&#45;&gt;Node7</title>
<path fill="none" stroke="#191970" d="M1281.4317,-112.3155C1253.1513,-94.7997 1195.3026,-59.3494 1185,-56 1143.2099,-42.4141 845.5142,-19.9222 742.7665,-12.4777"/>
<polygon fill="#191970" stroke="#191970" points="742.8365,-8.9737 732.6105,-11.7449 742.3326,-15.9556 742.8365,-8.9737"/>
</g>
<!-- Node31&#45;&gt;Node10 -->
<g id="edge50" class="edge">
<title>Node31&#45;&gt;Node10</title>
<path fill="none" stroke="#191970" d="M1322.1073,-112.4213C1350.6675,-100.1699 1390.9197,-77.9069 1371,-56 1340.5523,-22.5147 1020.8067,-12.832 918.9698,-10.5866"/>
<polygon fill="#191970" stroke="#191970" points="918.8022,-7.0824 908.7303,-10.37 918.654,-14.0808 918.8022,-7.0824"/>
</g>
<!-- Node31&#45;&gt;Node14 -->
<g id="edge51" class="edge">
<title>Node31&#45;&gt;Node14</title>
<path fill="none" stroke="#191970" d="M1248.1598,-112.4369C1189.6238,-100.9753 1093.195,-82.0941 1043.2415,-72.313"/>
<polygon fill="#191970" stroke="#191970" points="1043.8039,-68.8568 1033.3177,-70.3699 1042.4588,-75.7263 1043.8039,-68.8568"/>
</g>
<!-- Node31&#45;&gt;Node19 -->
<g id="edge48" class="edge">
<title>Node31&#45;&gt;Node19</title>
<path fill="none" stroke="#191970" d="M1271.7298,-112.3733C1247.6034,-103.1822 1211.0638,-89.2624 1184.3123,-79.0713"/>
<polygon fill="#191970" stroke="#191970" points="1185.5313,-75.7904 1174.9404,-75.5011 1183.0393,-82.3318 1185.5313,-75.7904"/>
</g>
<!-- Node31&#45;&gt;Node23 -->
<g id="edge47" class="edge">
<title>Node31&#45;&gt;Node23</title>
<path fill="none" stroke="#191970" d="M1297,-112.2455C1297,-104.9382 1297,-94.6944 1297,-85.7046"/>
<polygon fill="#191970" stroke="#191970" points="1300.5001,-85.6426 1297,-75.6427 1293.5001,-85.6427 1300.5001,-85.6426"/>
</g>
<!-- Node32&#45;&gt;Node10 -->
<g id="edge55" class="edge">
<title>Node32&#45;&gt;Node10</title>
<path fill="none" stroke="#191970" d="M1416.1444,-169.1852C1458.1465,-160.5307 1500.162,-143.7887 1482,-112 1457.6862,-69.444 1433.6415,-71.0581 1387,-56 1299.01,-27.5926 1013.1232,-14.6461 918.63,-11.0702"/>
<polygon fill="#191970" stroke="#191970" points="918.7025,-7.5706 908.5799,-10.6982 918.4435,-14.5658 918.7025,-7.5706"/>
</g>
<!-- Node32&#45;&gt;Node12 -->
<g id="edge54" class="edge">
<title>Node32&#45;&gt;Node12</title>
<path fill="none" stroke="#191970" d="M1275.8397,-173.9328C1208.2069,-168.8061 1103.1339,-157.6668 1004.8228,-131.6137"/>
<polygon fill="#191970" stroke="#191970" points="1005.593,-128.1963 995.0258,-128.9611 1003.7635,-134.953 1005.593,-128.1963"/>
</g>
<!-- Node32&#45;&gt;Node14 -->
<g id="edge56" class="edge">
<title>Node32&#45;&gt;Node14</title>
<path fill="none" stroke="#191970" d="M1317.4381,-168.4509C1255.2585,-147.6625 1108.0041,-98.4312 1042.9006,-76.6653"/>
<polygon fill="#191970" stroke="#191970" points="1043.7767,-73.2678 1033.1829,-73.4164 1041.5571,-79.9066 1043.7767,-73.2678"/>
</g>
<!-- Node32&#45;&gt;Node23 -->
<g id="edge53" class="edge">
<title>Node32&#45;&gt;Node23</title>
<path fill="none" stroke="#191970" d="M1357.2591,-168.4187C1371.1262,-155.4115 1391.5144,-131.5459 1380,-112 1371.2054,-97.071 1355.6283,-86.6447 1340.3258,-79.541"/>
<polygon fill="#191970" stroke="#191970" points="1341.469,-76.224 1330.8965,-75.5368 1338.7329,-82.6672 1341.469,-76.224"/>
</g>
<!-- Node33 -->
<g id="node34" class="node">
<title>Node33</title>
<polygon fill="#ffffff" stroke="#bfbfbf" points="1427,-112.5 1427,-131.5 1473,-131.5 1473,-112.5 1427,-112.5"/>
<text text-anchor="middle" x="1450" y="-119.5" font-family="Helvetica,sans-Serif" font-size="10.00" fill="#000000">cstdint</text>
</g>
<!-- Node32&#45;&gt;Node33 -->
<g id="edge57" class="edge">
<title>Node32&#45;&gt;Node33</title>
<path fill="none" stroke="#191970" d="M1364.1154,-168.2455C1380.445,-159.4527 1404.671,-146.4079 1423.2339,-136.4125"/>
<polygon fill="#191970" stroke="#191970" points="1424.9468,-139.4654 1432.0922,-131.6427 1421.6281,-133.3021 1424.9468,-139.4654"/>
</g>
</g>
</svg>
