<?xml version="1.0" encoding="UTF-8" standalone="no"?>
<!DOCTYPE svg PUBLIC "-//W3C//DTD SVG 1.1//EN"
 "http://www.w3.org/Graphics/SVG/1.1/DTD/svg11.dtd">
<!-- Generated by graphviz version 2.40.1 (0)
 -->
<!-- Title: CNTV2Caption708Window Pages: 1 -->
<svg width="142pt" height="152pt"
 viewBox="0.00 0.00 142.00 152.00" xmlns="http://www.w3.org/2000/svg" xmlns:xlink="http://www.w3.org/1999/xlink">
<g id="graph0" class="graph" transform="scale(1 1) rotate(0) translate(4 148)">
<title>CNTV2Caption708Window</title>
<polygon fill="#ffffff" stroke="transparent" points="-4,4 -4,-148 138,-148 138,4 -4,4"/>
<!-- Node2 -->
<g id="node1" class="node">
<title>Node2</title>
<polygon fill="#bfbfbf" stroke="#000000" points="0,-.5 0,-19.5 134,-19.5 134,-.5 0,-.5"/>
<text text-anchor="middle" x="67" y="-7.5" font-family="Helvetica,sans-Serif" font-size="10.00" fill="#000000">CNTV2Caption708Window</text>
</g>
<!-- Node3 -->
<g id="node2" class="node">
<title>Node3</title>
<g id="a_node2"><a xlink:href="../../d6/d59/class_c_n_t_v2_caption_log_config.html" target="_top" xlink:title="CNTV2CaptionLogConfig">
<polygon fill="#ffffff" stroke="#000000" points="3,-57.5 3,-76.5 131,-76.5 131,-57.5 3,-57.5"/>
<text text-anchor="middle" x="67" y="-64.5" font-family="Helvetica,sans-Serif" font-size="10.00" fill="#000000">CNTV2CaptionLogConfig</text>
</a>
</g>
</g>
<!-- Node3&#45;&gt;Node2 -->
<g id="edge1" class="edge">
<title>Node3&#45;&gt;Node2</title>
<path fill="none" stroke="#191970" d="M67,-47.2342C67,-37.8491 67,-27.0651 67,-19.5265"/>
<polygon fill="#191970" stroke="#191970" points="63.5001,-47.3307 67,-57.3307 70.5001,-47.3308 63.5001,-47.3307"/>
</g>
<!-- Node4 -->
<g id="node3" class="node">
<title>Node4</title>
<polygon fill="#ffffff" stroke="#bfbfbf" points="46.5,-124.5 46.5,-143.5 87.5,-143.5 87.5,-124.5 46.5,-124.5"/>
<text text-anchor="middle" x="67" y="-131.5" font-family="Helvetica,sans-Serif" font-size="10.00" fill="#000000">string</text>
</g>
<!-- Node4&#45;&gt;Node3 -->
<g id="edge2" class="edge">
<title>Node4&#45;&gt;Node3</title>
<path fill="none" stroke="#9a32cd" stroke-dasharray="5,2" d="M67,-114.1079C67,-101.714 67,-86.3263 67,-76.5817"/>
<polygon fill="#9a32cd" stroke="#9a32cd" points="63.5001,-114.4005 67,-124.4005 70.5001,-114.4006 63.5001,-114.4005"/>
<text text-anchor="middle" x="92.5" y="-98" font-family="Helvetica,sans-Serif" font-size="10.00" fill="#000000"> mLogLabel</text>
</g>
</g>
</svg>
