<?xml version="1.0" encoding="UTF-8" standalone="no"?>
<!DOCTYPE svg PUBLIC "-//W3C//DTD SVG 1.1//EN"
 "http://www.w3.org/Graphics/SVG/1.1/DTD/svg11.dtd">
<!-- Generated by graphviz version 2.40.1 (0)
 -->
<!-- Title: nlohmann::json_abi_v3_11_3::detail::is_constructible&lt; std::pair&lt; T1, T2 &gt; &gt; Pages: 1 -->
<svg width="588pt" height="61pt"
 viewBox="0.00 0.00 588.00 61.00" xmlns="http://www.w3.org/2000/svg" xmlns:xlink="http://www.w3.org/1999/xlink">
<g id="graph0" class="graph" transform="scale(1 1) rotate(0) translate(4 57)">
<title>nlohmann::json_abi_v3_11_3::detail::is_constructible&lt; std::pair&lt; T1, T2 &gt; &gt;</title>
<polygon fill="#ffffff" stroke="transparent" points="-4,4 -4,-57 584,-57 584,4 -4,4"/>
<!-- Node0 -->
<g id="node1" class="node">
<title>Node0</title>
<polygon fill="#bfbfbf" stroke="#000000" points="474,-.5 474,-52.5 580,-52.5 580,-.5 474,-.5"/>
<text text-anchor="start" x="482" y="-40.5" font-family="Helvetica,sans-Serif" font-size="10.00" fill="#000000">nlohmann::json_abi</text>
<text text-anchor="start" x="482" y="-29.5" font-family="Helvetica,sans-Serif" font-size="10.00" fill="#000000">_v3_11_3::detail::is</text>
<text text-anchor="start" x="482" y="-18.5" font-family="Helvetica,sans-Serif" font-size="10.00" fill="#000000">_constructible&lt; std::</text>
<text text-anchor="middle" x="527" y="-7.5" font-family="Helvetica,sans-Serif" font-size="10.00" fill="#000000">pair&lt; T1, T2 &gt; &gt;</text>
</g>
<!-- Node1 -->
<g id="node2" class="node">
<title>Node1</title>
<g id="a_node2"><a xlink:href="../../d3/dc7/structnlohmann_1_1json__abi__v3__11__3_1_1detail_1_1is__default__constructible_3_01std_1_1pair_3_01_t1_00_01_t2_01_4_01_4.html" target="_top" xlink:title="nlohmann::json_abi\l_v3_11_3::detail::is\l_default_constructible\l\&lt; std::pair\&lt; T1, T2 \&gt; \&gt;">
<polygon fill="#ffffff" stroke="#000000" points="322,-.5 322,-52.5 438,-52.5 438,-.5 322,-.5"/>
<text text-anchor="start" x="330" y="-40.5" font-family="Helvetica,sans-Serif" font-size="10.00" fill="#000000">nlohmann::json_abi</text>
<text text-anchor="start" x="330" y="-29.5" font-family="Helvetica,sans-Serif" font-size="10.00" fill="#000000">_v3_11_3::detail::is</text>
<text text-anchor="start" x="330" y="-18.5" font-family="Helvetica,sans-Serif" font-size="10.00" fill="#000000">_default_constructible</text>
<text text-anchor="middle" x="380" y="-7.5" font-family="Helvetica,sans-Serif" font-size="10.00" fill="#000000">&lt; std::pair&lt; T1, T2 &gt; &gt;</text>
</a>
</g>
</g>
<!-- Node1&#45;&gt;Node0 -->
<g id="edge1" class="edge">
<title>Node1&#45;&gt;Node0</title>
<path fill="none" stroke="#191970" d="M448.3655,-26.5C456.845,-26.5 465.416,-26.5 473.6243,-26.5"/>
<polygon fill="#191970" stroke="#191970" points="448.0983,-23.0001 438.0983,-26.5 448.0983,-30.0001 448.0983,-23.0001"/>
</g>
<!-- Node2 -->
<g id="node3" class="node">
<title>Node2</title>
<g id="a_node3"><a xlink:href="../../df/d78/structnlohmann_1_1json__abi__v3__11__3_1_1detail_1_1conjunction.html" target="_top" xlink:title="nlohmann::json_abi\l_v3_11_3::detail::conjunction\l\&lt; is_default_constructible\l\&lt; T1 \&gt;, is_default_constructible\&lt; T2 \&gt; \&gt;">
<polygon fill="#ffffff" stroke="#000000" points="93,-.5 93,-52.5 286,-52.5 286,-.5 93,-.5"/>
<text text-anchor="start" x="101" y="-40.5" font-family="Helvetica,sans-Serif" font-size="10.00" fill="#000000">nlohmann::json_abi</text>
<text text-anchor="start" x="101" y="-29.5" font-family="Helvetica,sans-Serif" font-size="10.00" fill="#000000">_v3_11_3::detail::conjunction</text>
<text text-anchor="start" x="101" y="-18.5" font-family="Helvetica,sans-Serif" font-size="10.00" fill="#000000">&lt; is_default_constructible</text>
<text text-anchor="middle" x="189.5" y="-7.5" font-family="Helvetica,sans-Serif" font-size="10.00" fill="#000000">&lt; T1 &gt;, is_default_constructible&lt; T2 &gt; &gt;</text>
</a>
</g>
</g>
<!-- Node2&#45;&gt;Node1 -->
<g id="edge2" class="edge">
<title>Node2&#45;&gt;Node1</title>
<path fill="none" stroke="#191970" d="M296.17,-26.5C305.0137,-26.5 313.7241,-26.5 321.9904,-26.5"/>
<polygon fill="#191970" stroke="#191970" points="296.1453,-23.0001 286.1452,-26.5 296.1452,-30.0001 296.1453,-23.0001"/>
</g>
<!-- Node3 -->
<g id="node4" class="node">
<title>Node3</title>
<polygon fill="#ffffff" stroke="#bfbfbf" points="0,-17 0,-36 57,-36 57,-17 0,-17"/>
<text text-anchor="middle" x="28.5" y="-24" font-family="Helvetica,sans-Serif" font-size="10.00" fill="#000000">true_type</text>
</g>
<!-- Node3&#45;&gt;Node2 -->
<g id="edge3" class="edge">
<title>Node3&#45;&gt;Node2</title>
<path fill="none" stroke="#191970" d="M67.483,-26.5C75.3224,-26.5 83.885,-26.5 92.7207,-26.5"/>
<polygon fill="#191970" stroke="#191970" points="67.2836,-23.0001 57.2836,-26.5 67.2835,-30.0001 67.2836,-23.0001"/>
</g>
</g>
</svg>
