<?xml version="1.0" encoding="UTF-8" standalone="no"?>
<!DOCTYPE svg PUBLIC "-//W3C//DTD SVG 1.1//EN"
 "http://www.w3.org/Graphics/SVG/1.1/DTD/svg11.dtd">
<!-- Generated by graphviz version 2.43.0 (0)
 -->
<!-- Title: /home/tcbuilder/buildAgent/work/df8e8cce5bebfd58/libajantv2/ajabase/system/mac/threadimpl.h Pages: 1 -->
<svg width="436pt" height="128pt"
 viewBox="0.00 0.00 435.50 128.00" xmlns="http://www.w3.org/2000/svg" xmlns:xlink="http://www.w3.org/1999/xlink">
<g id="graph0" class="graph" transform="scale(1 1) rotate(0) translate(4 124)">
<title>/home/tcbuilder/buildAgent/work/df8e8cce5bebfd58/libajantv2/ajabase/system/mac/threadimpl.h</title>
<polygon fill="white" stroke="transparent" points="-4,4 -4,-124 431.5,-124 431.5,4 -4,4"/>
<!-- Node1 -->
<g id="node1" class="node">
<title>Node1</title>
<g id="a_node1"><a xlink:title="Declares the AJAThreadImpl class.">
<polygon fill="#bfbfbf" stroke="black" points="123,-78.5 123,-119.5 311,-119.5 311,-78.5 123,-78.5"/>
<text text-anchor="start" x="131" y="-107.5" font-family="Helvetica,sans-Serif" font-size="10.00">/home/tcbuilder/buildAgent</text>
<text text-anchor="start" x="131" y="-96.5" font-family="Helvetica,sans-Serif" font-size="10.00">/work/df8e8cce5bebfd58/libajantv2</text>
<text text-anchor="middle" x="217" y="-85.5" font-family="Helvetica,sans-Serif" font-size="10.00">/ajabase/system/mac/threadimpl.h</text>
</a>
</g>
</g>
<!-- Node2 -->
<g id="node2" class="node">
<title>Node2</title>
<g id="a_node2"><a xlink:href="../../d2/d9e/pthreadsextra_8cpp.html" target="_top" xlink:title="Declares extra symbols to make the Mac threads implementation look more like Unix.">
<polygon fill="white" stroke="black" points="0,-0.5 0,-41.5 212,-41.5 212,-0.5 0,-0.5"/>
<text text-anchor="start" x="8" y="-29.5" font-family="Helvetica,sans-Serif" font-size="10.00">/home/tcbuilder/buildAgent</text>
<text text-anchor="start" x="8" y="-18.5" font-family="Helvetica,sans-Serif" font-size="10.00">/work/df8e8cce5bebfd58/libajantv2</text>
<text text-anchor="middle" x="106" y="-7.5" font-family="Helvetica,sans-Serif" font-size="10.00">/ajabase/system/mac/pthreadsextra.cpp</text>
</a>
</g>
</g>
<!-- Node1&#45;&gt;Node2 -->
<g id="edge1" class="edge">
<title>Node1&#45;&gt;Node2</title>
<path fill="none" stroke="midnightblue" d="M179.95,-72.64C165.13,-62.49 148.33,-50.98 134.49,-41.51"/>
<polygon fill="midnightblue" stroke="midnightblue" points="178.19,-75.67 188.41,-78.43 182.14,-69.89 178.19,-75.67"/>
</g>
<!-- Node3 -->
<g id="node3" class="node">
<title>Node3</title>
<g id="a_node3"><a xlink:href="../../d2/d87/mac_2threadimpl_8cpp.html" target="_top" xlink:title="Implements the AJAThreadImpl class on the Mac platform.">
<polygon fill="white" stroke="black" points="230.5,-0.5 230.5,-41.5 427.5,-41.5 427.5,-0.5 230.5,-0.5"/>
<text text-anchor="start" x="238.5" y="-29.5" font-family="Helvetica,sans-Serif" font-size="10.00">/home/tcbuilder/buildAgent</text>
<text text-anchor="start" x="238.5" y="-18.5" font-family="Helvetica,sans-Serif" font-size="10.00">/work/df8e8cce5bebfd58/libajantv2</text>
<text text-anchor="middle" x="329" y="-7.5" font-family="Helvetica,sans-Serif" font-size="10.00">/ajabase/system/mac/threadimpl.cpp</text>
</a>
</g>
</g>
<!-- Node1&#45;&gt;Node3 -->
<g id="edge2" class="edge">
<title>Node1&#45;&gt;Node3</title>
<path fill="none" stroke="midnightblue" d="M254.38,-72.64C269.34,-62.49 286.29,-50.98 300.25,-41.51"/>
<polygon fill="midnightblue" stroke="midnightblue" points="252.15,-69.92 245.84,-78.43 256.08,-75.71 252.15,-69.92"/>
</g>
</g>
</svg>
