<?xml version="1.0" encoding="UTF-8" standalone="no"?>
<!DOCTYPE svg PUBLIC "-//W3C//DTD SVG 1.1//EN"
 "http://www.w3.org/Graphics/SVG/1.1/DTD/svg11.dtd">
<!-- Generated by graphviz version 2.40.1 (0)
 -->
<!-- Title: /home/tcbuilder/buildAgent/work/df8e8cce5bebfd58/libajantv2/ajantv2/includes/ntv2resample.h Pages: 1 -->
<svg width="312pt" height="218pt"
 viewBox="0.00 0.00 311.50 218.00" xmlns="http://www.w3.org/2000/svg" xmlns:xlink="http://www.w3.org/1999/xlink">
<g id="graph0" class="graph" transform="scale(1 1) rotate(0) translate(4 214)">
<title>/home/tcbuilder/buildAgent/work/df8e8cce5bebfd58/libajantv2/ajantv2/includes/ntv2resample.h</title>
<polygon fill="#ffffff" stroke="transparent" points="-4,4 -4,-214 307.5,-214 307.5,4 -4,4"/>
<!-- Node0 -->
<g id="node1" class="node">
<title>Node0</title>
<polygon fill="#bfbfbf" stroke="#000000" points="40,-168.5 40,-209.5 207,-209.5 207,-168.5 40,-168.5"/>
<text text-anchor="start" x="48" y="-197.5" font-family="Helvetica,sans-Serif" font-size="10.00" fill="#000000">/home/tcbuilder/buildAgent</text>
<text text-anchor="start" x="48" y="-186.5" font-family="Helvetica,sans-Serif" font-size="10.00" fill="#000000">/work/df8e8cce5bebfd58/libajantv2</text>
<text text-anchor="middle" x="123.5" y="-175.5" font-family="Helvetica,sans-Serif" font-size="10.00" fill="#000000">/ajantv2/includes/ntv2resample.h</text>
</g>
<!-- Node1 -->
<g id="node2" class="node">
<title>Node1</title>
<g id="a_node2"><a xlink:href="../../d6/dd9/ajaexport_8h.html" target="_top" xlink:title="Defines the import/export macros for producing DLLs or LIBs. ">
<polygon fill="#ffffff" stroke="#000000" points="0,-112.5 0,-131.5 65,-131.5 65,-112.5 0,-112.5"/>
<text text-anchor="middle" x="32.5" y="-119.5" font-family="Helvetica,sans-Serif" font-size="10.00" fill="#000000">ajaexport.h</text>
</a>
</g>
</g>
<!-- Node0&#45;&gt;Node1 -->
<g id="edge1" class="edge">
<title>Node0&#45;&gt;Node1</title>
<path fill="none" stroke="#191970" d="M95.2059,-168.168C81.9389,-158.4001 66.3832,-146.9469 54.0844,-137.8918"/>
<polygon fill="#191970" stroke="#191970" points="55.9119,-134.891 45.7839,-131.7805 51.7616,-140.528 55.9119,-134.891"/>
</g>
<!-- Node2 -->
<g id="node3" class="node">
<title>Node2</title>
<g id="a_node3"><a xlink:href="../../db/de2/ajatypes_8h.html" target="_top" xlink:title="Declares the most fundamental data types used by NTV2. Since Windows NT was the first principal devel...">
<polygon fill="#ffffff" stroke="#000000" points="123.5,-56.5 123.5,-75.5 185.5,-75.5 185.5,-56.5 123.5,-56.5"/>
<text text-anchor="middle" x="154.5" y="-63.5" font-family="Helvetica,sans-Serif" font-size="10.00" fill="#000000">ajatypes.h</text>
</a>
</g>
</g>
<!-- Node0&#45;&gt;Node2 -->
<g id="edge2" class="edge">
<title>Node0&#45;&gt;Node2</title>
<path fill="none" stroke="#191970" d="M115.5654,-168.4269C110.6736,-152.5427 106.5413,-130.2658 113.5,-112 117.7275,-100.9034 125.9971,-90.7814 134.0088,-82.8751"/>
<polygon fill="#191970" stroke="#191970" points="136.7703,-85.0916 141.7752,-75.7534 132.0393,-79.9323 136.7703,-85.0916"/>
</g>
<!-- Node5 -->
<g id="node6" class="node">
<title>Node5</title>
<g id="a_node6"><a xlink:href="../../d6/dcc/ntv2fixed_8h.html" target="_top" xlink:title="Declares several fixed&#45;point math routines. Assumes 16&#45;bit fraction. ">
<polygon fill="#ffffff" stroke="#000000" points="122,-112.5 122,-131.5 187,-131.5 187,-112.5 122,-112.5"/>
<text text-anchor="middle" x="154.5" y="-119.5" font-family="Helvetica,sans-Serif" font-size="10.00" fill="#000000">ntv2fixed.h</text>
</a>
</g>
</g>
<!-- Node0&#45;&gt;Node5 -->
<g id="edge5" class="edge">
<title>Node0&#45;&gt;Node5</title>
<path fill="none" stroke="#191970" d="M133.1387,-168.168C137.1755,-159.4433 141.8344,-149.374 145.7691,-140.87"/>
<polygon fill="#191970" stroke="#191970" points="148.952,-142.3258 149.9747,-131.7805 142.599,-139.3864 148.952,-142.3258"/>
</g>
<!-- Node6 -->
<g id="node7" class="node">
<title>Node6</title>
<g id="a_node7"><a xlink:href="../../d9/d61/ntv2videodefines_8h.html" target="_top" xlink:title="Declares common video macros and structs used in the SDK. ">
<polygon fill="#ffffff" stroke="#000000" points="205.5,-112.5 205.5,-131.5 303.5,-131.5 303.5,-112.5 205.5,-112.5"/>
<text text-anchor="middle" x="254.5" y="-119.5" font-family="Helvetica,sans-Serif" font-size="10.00" fill="#000000">ntv2videodefines.h</text>
</a>
</g>
</g>
<!-- Node0&#45;&gt;Node6 -->
<g id="edge7" class="edge">
<title>Node0&#45;&gt;Node6</title>
<path fill="none" stroke="#191970" d="M163.8732,-168.3511C184.2311,-157.9391 208.4059,-145.5748 226.6653,-136.2361"/>
<polygon fill="#191970" stroke="#191970" points="228.3136,-139.3243 235.623,-131.6546 225.1261,-133.0921 228.3136,-139.3243"/>
</g>
<!-- Node3 -->
<g id="node4" class="node">
<title>Node3</title>
<g id="a_node4"><a xlink:href="../../db/d40/ntv2deprecate_8h.html" target="_top" xlink:title="Deprecation control macros. ">
<polygon fill="#ffffff" stroke="#000000" points="68.5,-.5 68.5,-19.5 154.5,-19.5 154.5,-.5 68.5,-.5"/>
<text text-anchor="middle" x="111.5" y="-7.5" font-family="Helvetica,sans-Serif" font-size="10.00" fill="#000000">ntv2deprecate.h</text>
</a>
</g>
</g>
<!-- Node2&#45;&gt;Node3 -->
<g id="edge3" class="edge">
<title>Node2&#45;&gt;Node3</title>
<path fill="none" stroke="#191970" d="M147.01,-56.2455C140.9674,-48.3761 132.3097,-37.101 125.0559,-27.6542"/>
<polygon fill="#191970" stroke="#191970" points="127.7705,-25.4426 118.9042,-19.6427 122.2185,-29.7058 127.7705,-25.4426"/>
</g>
<!-- Node4 -->
<g id="node5" class="node">
<title>Node4</title>
<polygon fill="#ffffff" stroke="#bfbfbf" points="173,-.5 173,-19.5 222,-19.5 222,-.5 173,-.5"/>
<text text-anchor="middle" x="197.5" y="-7.5" font-family="Helvetica,sans-Serif" font-size="10.00" fill="#000000">stdint.h</text>
</g>
<!-- Node2&#45;&gt;Node4 -->
<g id="edge4" class="edge">
<title>Node2&#45;&gt;Node4</title>
<path fill="none" stroke="#191970" d="M161.99,-56.2455C168.0326,-48.3761 176.6903,-37.101 183.9441,-27.6542"/>
<polygon fill="#191970" stroke="#191970" points="186.7815,-29.7058 190.0958,-19.6427 181.2295,-25.4426 186.7815,-29.7058"/>
</g>
<!-- Node5&#45;&gt;Node2 -->
<g id="edge6" class="edge">
<title>Node5&#45;&gt;Node2</title>
<path fill="none" stroke="#191970" d="M154.5,-112.2455C154.5,-104.9382 154.5,-94.6944 154.5,-85.7046"/>
<polygon fill="#191970" stroke="#191970" points="158.0001,-85.6426 154.5,-75.6427 151.0001,-85.6427 158.0001,-85.6426"/>
</g>
<!-- Node6&#45;&gt;Node2 -->
<g id="edge8" class="edge">
<title>Node6&#45;&gt;Node2</title>
<path fill="none" stroke="#191970" d="M237.0813,-112.2455C221.4515,-103.4928 198.2981,-90.527 180.4815,-80.5496"/>
<polygon fill="#191970" stroke="#191970" points="182.1543,-77.475 171.7191,-75.6427 178.734,-83.5825 182.1543,-77.475"/>
</g>
</g>
</svg>
