<?xml version="1.0" encoding="UTF-8" standalone="no"?>
<!DOCTYPE svg PUBLIC "-//W3C//DTD SVG 1.1//EN"
 "http://www.w3.org/Graphics/SVG/1.1/DTD/svg11.dtd">
<!-- Generated by graphviz version 2.40.1 (0)
 -->
<!-- Title: CBaseMediaFilter Pages: 1 -->
<svg width="249pt" height="140pt"
 viewBox="0.00 0.00 248.50 140.00" xmlns="http://www.w3.org/2000/svg" xmlns:xlink="http://www.w3.org/1999/xlink">
<g id="graph0" class="graph" transform="scale(1 1) rotate(0) translate(4 136)">
<title>CBaseMediaFilter</title>
<polygon fill="#ffffff" stroke="transparent" points="-4,4 -4,-136 244.5,-136 244.5,4 -4,4"/>
<!-- Node0 -->
<g id="node1" class="node">
<title>Node0</title>
<polygon fill="#bfbfbf" stroke="#000000" points="116,-.5 116,-19.5 211,-19.5 211,-.5 116,-.5"/>
<text text-anchor="middle" x="163.5" y="-7.5" font-family="Helvetica,sans-Serif" font-size="10.00" fill="#000000">CBaseMediaFilter</text>
</g>
<!-- Node1 -->
<g id="node2" class="node">
<title>Node1</title>
<g id="a_node2"><a xlink:href="../../d9/d89/class_c_unknown.html" target="_top" xlink:title="CUnknown">
<polygon fill="#ffffff" stroke="#000000" points="89,-56.5 89,-75.5 154,-75.5 154,-56.5 89,-56.5"/>
<text text-anchor="middle" x="121.5" y="-63.5" font-family="Helvetica,sans-Serif" font-size="10.00" fill="#000000">CUnknown</text>
</a>
</g>
</g>
<!-- Node1&#45;&gt;Node0 -->
<g id="edge1" class="edge">
<title>Node1&#45;&gt;Node0</title>
<path fill="none" stroke="#191970" d="M134.8416,-48.2112C141.9396,-38.7472 150.3903,-27.4797 156.268,-19.6427"/>
<polygon fill="#191970" stroke="#191970" points="132.0159,-46.1455 128.8158,-56.2455 137.6159,-50.3455 132.0159,-46.1455"/>
</g>
<!-- Node2 -->
<g id="node3" class="node">
<title>Node2</title>
<polygon fill="#ffffff" stroke="#bfbfbf" points="0,-112.5 0,-131.5 125,-131.5 125,-112.5 0,-112.5"/>
<text text-anchor="middle" x="62.5" y="-119.5" font-family="Helvetica,sans-Serif" font-size="10.00" fill="#000000">INonDelegatingUnknown</text>
</g>
<!-- Node2&#45;&gt;Node1 -->
<g id="edge2" class="edge">
<title>Node2&#45;&gt;Node1</title>
<path fill="none" stroke="#191970" d="M80.0307,-105.3607C90.2377,-95.6727 102.7469,-83.7995 111.3408,-75.6427"/>
<polygon fill="#191970" stroke="#191970" points="77.6206,-102.8227 72.777,-112.2455 82.4396,-107.8998 77.6206,-102.8227"/>
</g>
<!-- Node3 -->
<g id="node4" class="node">
<title>Node3</title>
<g id="a_node4"><a xlink:href="../../d1/d2d/class_c_base_object.html" target="_top" xlink:title="CBaseObject">
<polygon fill="#ffffff" stroke="#000000" points="143,-112.5 143,-131.5 218,-131.5 218,-112.5 143,-112.5"/>
<text text-anchor="middle" x="180.5" y="-119.5" font-family="Helvetica,sans-Serif" font-size="10.00" fill="#000000">CBaseObject</text>
</a>
</g>
</g>
<!-- Node3&#45;&gt;Node1 -->
<g id="edge3" class="edge">
<title>Node3&#45;&gt;Node1</title>
<path fill="none" stroke="#191970" d="M162.9693,-105.3607C152.7623,-95.6727 140.2531,-83.7995 131.6592,-75.6427"/>
<polygon fill="#191970" stroke="#191970" points="160.5604,-107.8998 170.223,-112.2455 165.3794,-102.8227 160.5604,-107.8998"/>
</g>
<!-- Node4 -->
<g id="node5" class="node">
<title>Node4</title>
<polygon fill="#ffffff" stroke="#bfbfbf" points="172.5,-56.5 172.5,-75.5 240.5,-75.5 240.5,-56.5 172.5,-56.5"/>
<text text-anchor="middle" x="206.5" y="-63.5" font-family="Helvetica,sans-Serif" font-size="10.00" fill="#000000">IMediaFilter</text>
</g>
<!-- Node4&#45;&gt;Node0 -->
<g id="edge4" class="edge">
<title>Node4&#45;&gt;Node0</title>
<path fill="none" stroke="#191970" d="M192.8408,-48.2112C185.5737,-38.7472 176.9219,-27.4797 170.9042,-19.6427"/>
<polygon fill="#191970" stroke="#191970" points="190.1436,-50.4456 199.01,-56.2455 195.6957,-46.1824 190.1436,-50.4456"/>
</g>
</g>
</svg>
