<?xml version="1.0" encoding="UTF-8" standalone="no"?>
<!DOCTYPE svg PUBLIC "-//W3C//DTD SVG 1.1//EN"
 "http://www.w3.org/Graphics/SVG/1.1/DTD/svg11.dtd">
<!-- Generated by graphviz version 2.43.0 (0)
 -->
<!-- Title: AJAAncillaryData_Cea608_Vanc Pages: 1 -->
<svg width="178pt" height="209pt"
 viewBox="0.00 0.00 178.00 209.00" xmlns="http://www.w3.org/2000/svg" xmlns:xlink="http://www.w3.org/1999/xlink">
<g id="graph0" class="graph" transform="scale(1 1) rotate(0) translate(4 205)">
<title>AJAAncillaryData_Cea608_Vanc</title>
<polygon fill="white" stroke="transparent" points="-4,4 -4,-205 174,-205 174,4 -4,4"/>
<!-- Node1 -->
<g id="node1" class="node">
<title>Node1</title>
<g id="a_node1"><a xlink:title="This class handles VANC&#45;based CEA&#45;608 caption data packets (not &quot;analog&quot; Line 21).">
<polygon fill="#bfbfbf" stroke="black" points="0,-0.5 0,-19.5 170,-19.5 170,-0.5 0,-0.5"/>
<text text-anchor="middle" x="85" y="-7.5" font-family="Helvetica,sans-Serif" font-size="10.00">AJAAncillaryData_Cea608_Vanc</text>
</a>
</g>
</g>
<!-- Node2 -->
<g id="node2" class="node">
<title>Node2</title>
<g id="a_node2"><a xlink:href="../../d5/d69/class_a_j_a_ancillary_data___cea608.html" target="_top" xlink:title="This is the base class for handling CEA&#45;608 caption data packets.">
<polygon fill="white" stroke="black" points="14.5,-57.5 14.5,-76.5 155.5,-76.5 155.5,-57.5 14.5,-57.5"/>
<text text-anchor="middle" x="85" y="-64.5" font-family="Helvetica,sans-Serif" font-size="10.00">AJAAncillaryData_Cea608</text>
</a>
</g>
</g>
<!-- Node2&#45;&gt;Node1 -->
<g id="edge1" class="edge">
<title>Node2&#45;&gt;Node1</title>
<path fill="none" stroke="midnightblue" d="M85,-47.12C85,-37.82 85,-27.06 85,-19.71"/>
<polygon fill="midnightblue" stroke="midnightblue" points="81.5,-47.41 85,-57.41 88.5,-47.41 81.5,-47.41"/>
</g>
<!-- Node3 -->
<g id="node3" class="node">
<title>Node3</title>
<g id="a_node3"><a xlink:href="../../dd/de8/class_a_j_a_ancillary_data.html" target="_top" xlink:title="I am the principal class that stores a single SMPTE&#45;291 SDI ancillary data packet OR the digitized co...">
<polygon fill="white" stroke="black" points="35.5,-114.5 35.5,-133.5 134.5,-133.5 134.5,-114.5 35.5,-114.5"/>
<text text-anchor="middle" x="85" y="-121.5" font-family="Helvetica,sans-Serif" font-size="10.00">AJAAncillaryData</text>
</a>
</g>
</g>
<!-- Node3&#45;&gt;Node2 -->
<g id="edge2" class="edge">
<title>Node3&#45;&gt;Node2</title>
<path fill="none" stroke="midnightblue" d="M85,-104.12C85,-94.82 85,-84.06 85,-76.71"/>
<polygon fill="midnightblue" stroke="midnightblue" points="81.5,-104.41 85,-114.41 88.5,-104.41 81.5,-104.41"/>
</g>
<!-- Node4 -->
<g id="node4" class="node">
<title>Node4</title>
<g id="a_node4"><a xlink:href="../../de/d12/struct_a_j_a_anc_data_loc.html" target="_top" xlink:title="Defines where the ancillary data can be found within a video stream.">
<polygon fill="white" stroke="black" points="39.5,-181.5 39.5,-200.5 130.5,-200.5 130.5,-181.5 39.5,-181.5"/>
<text text-anchor="middle" x="85" y="-188.5" font-family="Helvetica,sans-Serif" font-size="10.00">AJAAncDataLoc</text>
</a>
</g>
</g>
<!-- Node4&#45;&gt;Node3 -->
<g id="edge3" class="edge">
<title>Node4&#45;&gt;Node3</title>
<path fill="none" stroke="#9a32cd" stroke-dasharray="5,2" d="M85,-171.04C85,-158.67 85,-143.12 85,-133.63"/>
<polygon fill="#9a32cd" stroke="#9a32cd" points="81.5,-171.23 85,-181.23 88.5,-171.23 81.5,-171.23"/>
<text text-anchor="middle" x="114" y="-155" font-family="Helvetica,sans-Serif" font-size="10.00"> m_location</text>
</g>
</g>
</svg>
