<?xml version="1.0" encoding="UTF-8" standalone="no"?>
<!DOCTYPE svg PUBLIC "-//W3C//DTD SVG 1.1//EN"
 "http://www.w3.org/Graphics/SVG/1.1/DTD/svg11.dtd">
<!-- Generated by graphviz version 2.43.0 (0)
 -->
<!-- Title: /home/tcbuilder/buildAgent/work/df8e8cce5bebfd58/libajantv2/ajaanc/includes/ancillarydata.h Pages: 1 -->
<svg width="1083pt" height="274pt"
 viewBox="0.00 0.00 1083.38 274.00" xmlns="http://www.w3.org/2000/svg" xmlns:xlink="http://www.w3.org/1999/xlink">
<g id="graph0" class="graph" transform="scale(1 1) rotate(0) translate(4 270)">
<title>/home/tcbuilder/buildAgent/work/df8e8cce5bebfd58/libajantv2/ajaanc/includes/ancillarydata.h</title>
<polygon fill="white" stroke="transparent" points="-4,4 -4,-270 1079.38,-270 1079.38,4 -4,4"/>
<!-- Node1 -->
<g id="node1" class="node">
<title>Node1</title>
<g id="a_node1"><a xlink:title="Declares the AJAAncillaryData class.">
<polygon fill="#bfbfbf" stroke="black" points="720.38,-224.5 720.38,-265.5 908.38,-265.5 908.38,-224.5 720.38,-224.5"/>
<text text-anchor="start" x="728.38" y="-253.5" font-family="Helvetica,sans-Serif" font-size="10.00">/home/tcbuilder/buildAgent</text>
<text text-anchor="start" x="728.38" y="-242.5" font-family="Helvetica,sans-Serif" font-size="10.00">/work/df8e8cce5bebfd58/libajantv2</text>
<text text-anchor="middle" x="814.38" y="-231.5" font-family="Helvetica,sans-Serif" font-size="10.00">/ajaanc/includes/ancillarydata.h</text>
</a>
</g>
</g>
<!-- Node2 -->
<g id="node2" class="node">
<title>Node2</title>
<g id="a_node2"><a xlink:href="../../db/de2/ajatypes_8h.html" target="_top" xlink:title="Declares the most fundamental data types used by NTV2. Since Windows NT was the first principal devel...">
<polygon fill="white" stroke="black" points="298.38,-56.5 298.38,-75.5 366.38,-75.5 366.38,-56.5 298.38,-56.5"/>
<text text-anchor="middle" x="332.38" y="-63.5" font-family="Helvetica,sans-Serif" font-size="10.00">ajatypes.h</text>
</a>
</g>
</g>
<!-- Node1&#45;&gt;Node2 -->
<g id="edge1" class="edge">
<title>Node1&#45;&gt;Node2</title>
<path fill="none" stroke="midnightblue" d="M720.23,-237.84C516.83,-223.58 50.89,-185.38 4.38,-132 -1.46,-125.3 -1.46,-118.7 4.38,-112 40.63,-70.44 206.82,-65.9 287.79,-66.23"/>
<polygon fill="midnightblue" stroke="midnightblue" points="288.13,-69.74 298.16,-66.3 288.18,-62.74 288.13,-69.74"/>
</g>
<!-- Node4 -->
<g id="node4" class="node">
<title>Node4</title>
<g id="a_node4"><a xlink:href="../../d6/db1/ntv2version_8h.html" target="_top" xlink:title="Defines for the NTV2 SDK version number, used by ajantv2/includes/ntv2enums.h. See the ajantv2/includ...">
<polygon fill="white" stroke="black" points="643.88,-56.5 643.88,-75.5 726.88,-75.5 726.88,-56.5 643.88,-56.5"/>
<text text-anchor="middle" x="685.38" y="-63.5" font-family="Helvetica,sans-Serif" font-size="10.00">ntv2version.h</text>
</a>
</g>
</g>
<!-- Node1&#45;&gt;Node4 -->
<g id="edge3" class="edge">
<title>Node1&#45;&gt;Node4</title>
<path fill="none" stroke="midnightblue" d="M820.83,-224.43C828.67,-196.65 838.13,-145.44 814.38,-112 796.89,-87.37 764.87,-76.11 737.11,-71.01"/>
<polygon fill="midnightblue" stroke="midnightblue" points="737.54,-67.54 727.11,-69.4 736.43,-74.45 737.54,-67.54"/>
</g>
<!-- Node7 -->
<g id="node7" class="node">
<title>Node7</title>
<g id="a_node7"><a xlink:href="../../d9/d49/types_8h.html" target="_top" xlink:title="Declares common types used in the ajabase library.">
<polygon fill="white" stroke="black" points="861.38,-168.5 861.38,-187.5 1001.38,-187.5 1001.38,-168.5 861.38,-168.5"/>
<text text-anchor="middle" x="931.38" y="-175.5" font-family="Helvetica,sans-Serif" font-size="10.00">ajabase/common/types.h</text>
</a>
</g>
</g>
<!-- Node1&#45;&gt;Node7 -->
<g id="edge6" class="edge">
<title>Node1&#45;&gt;Node7</title>
<path fill="none" stroke="midnightblue" d="M849.48,-224.5C867.94,-214.24 890.12,-201.93 906.73,-192.69"/>
<polygon fill="midnightblue" stroke="midnightblue" points="908.76,-195.57 915.81,-187.65 905.37,-189.45 908.76,-195.57"/>
</g>
<!-- Node8 -->
<g id="node8" class="node">
<title>Node8</title>
<g id="a_node8"><a xlink:href="../../d4/dd7/ntv2publicinterface_8h.html" target="_top" xlink:title="Declares enums and structs used by all platform drivers and the SDK.">
<polygon fill="white" stroke="black" points="435.38,-168.5 435.38,-187.5 555.38,-187.5 555.38,-168.5 435.38,-168.5"/>
<text text-anchor="middle" x="495.38" y="-175.5" font-family="Helvetica,sans-Serif" font-size="10.00">ntv2publicinterface.h</text>
</a>
</g>
</g>
<!-- Node1&#45;&gt;Node8 -->
<g id="edge7" class="edge">
<title>Node1&#45;&gt;Node8</title>
<path fill="none" stroke="midnightblue" d="M719.97,-224.76C663.48,-213.25 593.85,-199.07 547.23,-189.57"/>
<polygon fill="midnightblue" stroke="midnightblue" points="547.86,-186.12 537.36,-187.55 546.46,-192.98 547.86,-186.12"/>
</g>
<!-- Node13 -->
<g id="node13" class="node">
<title>Node13</title>
<g id="a_node13"><a xlink:title=" ">
<polygon fill="white" stroke="#bfbfbf" points="757.88,-112.5 757.88,-131.5 804.88,-131.5 804.88,-112.5 757.88,-112.5"/>
<text text-anchor="middle" x="781.38" y="-119.5" font-family="Helvetica,sans-Serif" font-size="10.00">vector</text>
</a>
</g>
</g>
<!-- Node1&#45;&gt;Node13 -->
<g id="edge24" class="edge">
<title>Node1&#45;&gt;Node13</title>
<path fill="none" stroke="midnightblue" d="M809.01,-224.29C802.76,-201.37 792.52,-163.85 786.42,-141.47"/>
<polygon fill="midnightblue" stroke="midnightblue" points="789.73,-140.3 783.72,-131.57 782.97,-142.14 789.73,-140.3"/>
</g>
<!-- Node18 -->
<g id="node18" class="node">
<title>Node18</title>
<g id="a_node18"><a xlink:title=" ">
<polygon fill="white" stroke="#bfbfbf" points="1019.38,-168.5 1019.38,-187.5 1075.38,-187.5 1075.38,-168.5 1019.38,-168.5"/>
<text text-anchor="middle" x="1047.38" y="-175.5" font-family="Helvetica,sans-Serif" font-size="10.00">sstream</text>
</a>
</g>
</g>
<!-- Node1&#45;&gt;Node18 -->
<g id="edge23" class="edge">
<title>Node1&#45;&gt;Node18</title>
<path fill="none" stroke="midnightblue" d="M884.29,-224.5C925.35,-213.04 975.65,-199.01 1009.45,-189.58"/>
<polygon fill="midnightblue" stroke="midnightblue" points="1010.68,-192.87 1019.37,-186.81 1008.8,-186.13 1010.68,-192.87"/>
</g>
<!-- Node3 -->
<g id="node3" class="node">
<title>Node3</title>
<g id="a_node3"><a xlink:title=" ">
<polygon fill="white" stroke="#bfbfbf" points="305.88,-0.5 305.88,-19.5 358.88,-19.5 358.88,-0.5 305.88,-0.5"/>
<text text-anchor="middle" x="332.38" y="-7.5" font-family="Helvetica,sans-Serif" font-size="10.00">stdint.h</text>
</a>
</g>
</g>
<!-- Node2&#45;&gt;Node3 -->
<g id="edge2" class="edge">
<title>Node2&#45;&gt;Node3</title>
<path fill="none" stroke="midnightblue" d="M332.38,-56.08C332.38,-49.01 332.38,-38.86 332.38,-29.99"/>
<polygon fill="midnightblue" stroke="midnightblue" points="335.88,-29.75 332.38,-19.75 328.88,-29.75 335.88,-29.75"/>
</g>
<!-- Node5 -->
<g id="node5" class="node">
<title>Node5</title>
<g id="a_node5"><a xlink:href="../../d6/dd9/ajaexport_8h.html" target="_top" xlink:title="Defines the import/export macros for producing DLLs or LIBs.">
<polygon fill="white" stroke="black" points="595.38,-0.5 595.38,-19.5 667.38,-19.5 667.38,-0.5 595.38,-0.5"/>
<text text-anchor="middle" x="631.38" y="-7.5" font-family="Helvetica,sans-Serif" font-size="10.00">ajaexport.h</text>
</a>
</g>
</g>
<!-- Node4&#45;&gt;Node5 -->
<g id="edge4" class="edge">
<title>Node4&#45;&gt;Node5</title>
<path fill="none" stroke="midnightblue" d="M676.46,-56.08C668.6,-48.22 656.95,-36.57 647.46,-27.08"/>
<polygon fill="midnightblue" stroke="midnightblue" points="649.68,-24.35 640.13,-19.75 644.73,-29.3 649.68,-24.35"/>
</g>
<!-- Node6 -->
<g id="node6" class="node">
<title>Node6</title>
<g id="a_node6"><a xlink:title=" ">
<polygon fill="white" stroke="#bfbfbf" points="717.38,-0.5 717.38,-19.5 761.38,-19.5 761.38,-0.5 717.38,-0.5"/>
<text text-anchor="middle" x="739.38" y="-7.5" font-family="Helvetica,sans-Serif" font-size="10.00">string</text>
</a>
</g>
</g>
<!-- Node4&#45;&gt;Node6 -->
<g id="edge5" class="edge">
<title>Node4&#45;&gt;Node6</title>
<path fill="none" stroke="midnightblue" d="M694.3,-56.08C702.16,-48.22 713.81,-36.57 723.3,-27.08"/>
<polygon fill="midnightblue" stroke="midnightblue" points="726.03,-29.3 730.63,-19.75 721.08,-24.35 726.03,-29.3"/>
</g>
<!-- Node8&#45;&gt;Node2 -->
<g id="edge8" class="edge">
<title>Node8&#45;&gt;Node2</title>
<path fill="none" stroke="midnightblue" d="M435.01,-170.71C385.92,-164.21 322.27,-152.12 306.38,-132 295.03,-117.62 306.05,-97.65 317.04,-83.64"/>
<polygon fill="midnightblue" stroke="midnightblue" points="319.89,-85.7 323.68,-75.8 314.55,-81.17 319.89,-85.7"/>
</g>
<!-- Node8&#45;&gt;Node5 -->
<g id="edge20" class="edge">
<title>Node8&#45;&gt;Node5</title>
<path fill="none" stroke="midnightblue" d="M555.63,-170.07C580.18,-164.04 606.48,-152.82 622.38,-132 634.23,-116.48 633.64,-59.98 632.41,-30"/>
<polygon fill="midnightblue" stroke="midnightblue" points="635.89,-29.44 631.91,-19.61 628.89,-29.77 635.89,-29.44"/>
</g>
<!-- Node8&#45;&gt;Node6 -->
<g id="edge16" class="edge">
<title>Node8&#45;&gt;Node6</title>
<path fill="none" stroke="midnightblue" d="M555.41,-170.5C610.42,-163.49 686.79,-150.74 710.38,-132 741.02,-107.67 742.82,-57.19 741.25,-29.75"/>
<polygon fill="midnightblue" stroke="midnightblue" points="744.72,-29.24 740.45,-19.55 737.74,-29.79 744.72,-29.24"/>
</g>
<!-- Node9 -->
<g id="node9" class="node">
<title>Node9</title>
<g id="a_node9"><a xlink:href="../../d6/d0c/ntv2enums_8h.html" target="_top" xlink:title="Enumerations for controlling NTV2 devices.">
<polygon fill="white" stroke="black" points="455.38,-112.5 455.38,-131.5 535.38,-131.5 535.38,-112.5 455.38,-112.5"/>
<text text-anchor="middle" x="495.38" y="-119.5" font-family="Helvetica,sans-Serif" font-size="10.00">ntv2enums.h</text>
</a>
</g>
</g>
<!-- Node8&#45;&gt;Node9 -->
<g id="edge9" class="edge">
<title>Node8&#45;&gt;Node9</title>
<path fill="none" stroke="midnightblue" d="M495.38,-168.08C495.38,-161.01 495.38,-150.86 495.38,-141.99"/>
<polygon fill="midnightblue" stroke="midnightblue" points="498.88,-141.75 495.38,-131.75 491.88,-141.75 498.88,-141.75"/>
</g>
<!-- Node10 -->
<g id="node10" class="node">
<title>Node10</title>
<g id="a_node10"><a xlink:title=" ">
<polygon fill="white" stroke="#bfbfbf" points="553.38,-112.5 553.38,-131.5 613.38,-131.5 613.38,-112.5 553.38,-112.5"/>
<text text-anchor="middle" x="583.38" y="-119.5" font-family="Helvetica,sans-Serif" font-size="10.00">iostream</text>
</a>
</g>
</g>
<!-- Node8&#45;&gt;Node10 -->
<g id="edge12" class="edge">
<title>Node8&#45;&gt;Node10</title>
<path fill="none" stroke="midnightblue" d="M509.52,-168.32C523.25,-159.9 544.32,-146.97 560.45,-137.07"/>
<polygon fill="midnightblue" stroke="midnightblue" points="562.58,-139.87 569.28,-131.65 558.92,-133.9 562.58,-139.87"/>
</g>
<!-- Node11 -->
<g id="node11" class="node">
<title>Node11</title>
<g id="a_node11"><a xlink:title=" ">
<polygon fill="white" stroke="#bfbfbf" points="669.38,-112.5 669.38,-131.5 701.38,-131.5 701.38,-112.5 669.38,-112.5"/>
<text text-anchor="middle" x="685.38" y="-119.5" font-family="Helvetica,sans-Serif" font-size="10.00">set</text>
</a>
</g>
</g>
<!-- Node8&#45;&gt;Node11 -->
<g id="edge13" class="edge">
<title>Node8&#45;&gt;Node11</title>
<path fill="none" stroke="midnightblue" d="M526.4,-168.45C558.67,-159.51 610.63,-145 655.38,-132 656.64,-131.63 657.94,-131.25 659.24,-130.87"/>
<polygon fill="midnightblue" stroke="midnightblue" points="660.62,-134.11 669.2,-127.91 658.62,-127.4 660.62,-134.11"/>
</g>
<!-- Node12 -->
<g id="node12" class="node">
<title>Node12</title>
<g id="a_node12"><a xlink:title=" ">
<polygon fill="white" stroke="#bfbfbf" points="13.38,-112.5 13.38,-131.5 51.38,-131.5 51.38,-112.5 13.38,-112.5"/>
<text text-anchor="middle" x="32.38" y="-119.5" font-family="Helvetica,sans-Serif" font-size="10.00">map</text>
</a>
</g>
</g>
<!-- Node8&#45;&gt;Node12 -->
<g id="edge14" class="edge">
<title>Node8&#45;&gt;Node12</title>
<path fill="none" stroke="midnightblue" d="M435.32,-174.73C352.82,-170.75 199.84,-160.25 61.46,-131.81"/>
<polygon fill="midnightblue" stroke="midnightblue" points="62.02,-128.35 51.52,-129.73 60.59,-135.2 62.02,-128.35"/>
</g>
<!-- Node8&#45;&gt;Node13 -->
<g id="edge15" class="edge">
<title>Node8&#45;&gt;Node13</title>
<path fill="none" stroke="midnightblue" d="M546.83,-168.48C597.1,-159.97 675.7,-146.14 743.38,-132 744.83,-131.7 746.31,-131.38 747.81,-131.05"/>
<polygon fill="midnightblue" stroke="midnightblue" points="748.73,-134.43 757.71,-128.81 747.18,-127.61 748.73,-134.43"/>
</g>
<!-- Node14 -->
<g id="node14" class="node">
<title>Node14</title>
<g id="a_node14"><a xlink:title=" ">
<polygon fill="white" stroke="#bfbfbf" points="69.38,-112.5 69.38,-131.5 125.38,-131.5 125.38,-112.5 69.38,-112.5"/>
<text text-anchor="middle" x="97.38" y="-119.5" font-family="Helvetica,sans-Serif" font-size="10.00">iomanip</text>
</a>
</g>
</g>
<!-- Node8&#45;&gt;Node14 -->
<g id="edge17" class="edge">
<title>Node8&#45;&gt;Node14</title>
<path fill="none" stroke="midnightblue" d="M435.34,-171.64C365.54,-164.94 246.74,-152.06 135.63,-132.05"/>
<polygon fill="midnightblue" stroke="midnightblue" points="136.06,-128.57 125.59,-130.21 134.8,-135.45 136.06,-128.57"/>
</g>
<!-- Node15 -->
<g id="node15" class="node">
<title>Node15</title>
<g id="a_node15"><a xlink:title=" ">
<polygon fill="white" stroke="#bfbfbf" points="143.38,-112.5 143.38,-131.5 187.38,-131.5 187.38,-112.5 143.38,-112.5"/>
<text text-anchor="middle" x="165.38" y="-119.5" font-family="Helvetica,sans-Serif" font-size="10.00">bitset</text>
</a>
</g>
</g>
<!-- Node8&#45;&gt;Node15 -->
<g id="edge18" class="edge">
<title>Node8&#45;&gt;Node15</title>
<path fill="none" stroke="midnightblue" d="M435.1,-170.32C376.6,-163.3 285.19,-150.91 197.49,-132"/>
<polygon fill="midnightblue" stroke="midnightblue" points="198.16,-128.57 187.64,-129.85 196.66,-135.4 198.16,-128.57"/>
</g>
<!-- Node16 -->
<g id="node16" class="node">
<title>Node16</title>
<g id="a_node16"><a xlink:title=" ">
<polygon fill="white" stroke="#bfbfbf" points="205.88,-112.5 205.88,-131.5 258.88,-131.5 258.88,-112.5 205.88,-112.5"/>
<text text-anchor="middle" x="232.38" y="-119.5" font-family="Helvetica,sans-Serif" font-size="10.00">string.h</text>
</a>
</g>
</g>
<!-- Node8&#45;&gt;Node16 -->
<g id="edge19" class="edge">
<title>Node8&#45;&gt;Node16</title>
<path fill="none" stroke="midnightblue" d="M452.37,-168.49C407.61,-159.59 335.52,-145.12 273.38,-132 272.1,-131.73 270.79,-131.45 269.47,-131.17"/>
<polygon fill="midnightblue" stroke="midnightblue" points="269.79,-127.66 259.27,-128.97 268.31,-134.5 269.79,-127.66"/>
</g>
<!-- Node17 -->
<g id="node17" class="node">
<title>Node17</title>
<g id="a_node17"><a xlink:href="../../da/df0/ntv2virtualregisters_8h.html" target="_top" xlink:title="Declares enums for virtual registers used in all platform drivers and the SDK.">
<polygon fill="white" stroke="black" points="315.38,-112.5 315.38,-131.5 437.38,-131.5 437.38,-112.5 315.38,-112.5"/>
<text text-anchor="middle" x="376.38" y="-119.5" font-family="Helvetica,sans-Serif" font-size="10.00">ntv2virtualregisters.h</text>
</a>
</g>
</g>
<!-- Node8&#45;&gt;Node17 -->
<g id="edge21" class="edge">
<title>Node8&#45;&gt;Node17</title>
<path fill="none" stroke="midnightblue" d="M476.53,-168.44C457.12,-159.64 426.65,-145.81 404.42,-135.72"/>
<polygon fill="midnightblue" stroke="midnightblue" points="405.7,-132.46 395.15,-131.52 402.81,-138.84 405.7,-132.46"/>
</g>
<!-- Node9&#45;&gt;Node2 -->
<g id="edge10" class="edge">
<title>Node9&#45;&gt;Node2</title>
<path fill="none" stroke="midnightblue" d="M469.55,-112.44C442.13,-103.36 398.6,-88.94 367.95,-78.78"/>
<polygon fill="midnightblue" stroke="midnightblue" points="368.68,-75.34 358.09,-75.52 366.48,-81.98 368.68,-75.34"/>
</g>
<!-- Node9&#45;&gt;Node4 -->
<g id="edge11" class="edge">
<title>Node9&#45;&gt;Node4</title>
<path fill="none" stroke="midnightblue" d="M525.49,-112.44C558.01,-103.2 609.96,-88.44 645.77,-78.26"/>
<polygon fill="midnightblue" stroke="midnightblue" points="646.75,-81.62 655.42,-75.52 644.84,-74.88 646.75,-81.62"/>
</g>
<!-- Node17&#45;&gt;Node2 -->
<g id="edge22" class="edge">
<title>Node17&#45;&gt;Node2</title>
<path fill="none" stroke="midnightblue" d="M369.12,-112.08C362.84,-104.38 353.59,-93.03 345.95,-83.65"/>
<polygon fill="midnightblue" stroke="midnightblue" points="348.54,-81.29 339.51,-75.75 343.12,-85.71 348.54,-81.29"/>
</g>
</g>
</svg>
