<?xml version="1.0" encoding="UTF-8" standalone="no"?>
<!DOCTYPE svg PUBLIC "-//W3C//DTD SVG 1.1//EN"
 "http://www.w3.org/Graphics/SVG/1.1/DTD/svg11.dtd">
<!-- Generated by graphviz version 2.43.0 (0)
 -->
<!-- Title: /home/tcbuilder/buildAgent/work/df8e8cce5bebfd58/libajacc/includes/ntv2caption608message.h Pages: 1 -->
<svg width="509pt" height="362pt"
 viewBox="0.00 0.00 508.50 362.00" xmlns="http://www.w3.org/2000/svg" xmlns:xlink="http://www.w3.org/1999/xlink">
<g id="graph0" class="graph" transform="scale(1 1) rotate(0) translate(4 358)">
<title>/home/tcbuilder/buildAgent/work/df8e8cce5bebfd58/libajacc/includes/ntv2caption608message.h</title>
<polygon fill="white" stroke="transparent" points="-4,4 -4,-358 504.5,-358 504.5,4 -4,4"/>
<!-- Node1 -->
<g id="node1" class="node">
<title>Node1</title>
<g id="a_node1"><a xlink:title="Declares the CNTV2Caption608Message class.">
<polygon fill="#bfbfbf" stroke="black" points="93.5,-312.5 93.5,-353.5 285.5,-353.5 285.5,-312.5 93.5,-312.5"/>
<text text-anchor="start" x="101.5" y="-341.5" font-family="Helvetica,sans-Serif" font-size="10.00">/home/tcbuilder/buildAgent</text>
<text text-anchor="start" x="101.5" y="-330.5" font-family="Helvetica,sans-Serif" font-size="10.00">/work/df8e8cce5bebfd58/libajacc</text>
<text text-anchor="middle" x="189.5" y="-319.5" font-family="Helvetica,sans-Serif" font-size="10.00">/includes/ntv2caption608message.h</text>
</a>
</g>
</g>
<!-- Node2 -->
<g id="node2" class="node">
<title>Node2</title>
<g id="a_node2"><a xlink:href="../../d2/d61/ntv2caption608messagequeue_8h.html" target="_top" xlink:title="Declares the CNTV2Caption608MessageQueue class.">
<polygon fill="white" stroke="black" points="78.5,-234.5 78.5,-275.5 300.5,-275.5 300.5,-234.5 78.5,-234.5"/>
<text text-anchor="start" x="86.5" y="-263.5" font-family="Helvetica,sans-Serif" font-size="10.00">/home/tcbuilder/buildAgent</text>
<text text-anchor="start" x="86.5" y="-252.5" font-family="Helvetica,sans-Serif" font-size="10.00">/work/df8e8cce5bebfd58/libajacc</text>
<text text-anchor="middle" x="189.5" y="-241.5" font-family="Helvetica,sans-Serif" font-size="10.00">/includes/ntv2caption608messagequeue.h</text>
</a>
</g>
</g>
<!-- Node1&#45;&gt;Node2 -->
<g id="edge1" class="edge">
<title>Node1&#45;&gt;Node2</title>
<path fill="none" stroke="midnightblue" d="M189.5,-302.3C189.5,-293.3 189.5,-283.65 189.5,-275.51"/>
<polygon fill="midnightblue" stroke="midnightblue" points="186,-302.43 189.5,-312.43 193,-302.43 186,-302.43"/>
</g>
<!-- Node3 -->
<g id="node3" class="node">
<title>Node3</title>
<g id="a_node3"><a xlink:href="../../df/dc0/ntv2captionencoder608_8h.html" target="_top" xlink:title="Declares the CNTV2CaptionEncoder608 class.">
<polygon fill="white" stroke="black" points="96,-156.5 96,-197.5 283,-197.5 283,-156.5 96,-156.5"/>
<text text-anchor="start" x="104" y="-185.5" font-family="Helvetica,sans-Serif" font-size="10.00">/home/tcbuilder/buildAgent</text>
<text text-anchor="start" x="104" y="-174.5" font-family="Helvetica,sans-Serif" font-size="10.00">/work/df8e8cce5bebfd58/libajacc</text>
<text text-anchor="middle" x="189.5" y="-163.5" font-family="Helvetica,sans-Serif" font-size="10.00">/includes/ntv2captionencoder608.h</text>
</a>
</g>
</g>
<!-- Node2&#45;&gt;Node3 -->
<g id="edge2" class="edge">
<title>Node2&#45;&gt;Node3</title>
<path fill="none" stroke="midnightblue" d="M189.5,-224.3C189.5,-215.3 189.5,-205.65 189.5,-197.51"/>
<polygon fill="midnightblue" stroke="midnightblue" points="186,-224.43 189.5,-234.43 193,-224.43 186,-224.43"/>
</g>
<!-- Node4 -->
<g id="node4" class="node">
<title>Node4</title>
<g id="a_node4"><a xlink:href="../../d9/dda/ajacc_8h.html" target="_top" xlink:title="The public interface to the AJA closed&#45;captioning library. It currently supports the CEA&#45;608 standard...">
<polygon fill="white" stroke="black" points="0,-78.5 0,-119.5 177,-119.5 177,-78.5 0,-78.5"/>
<text text-anchor="start" x="8" y="-107.5" font-family="Helvetica,sans-Serif" font-size="10.00">/home/tcbuilder/buildAgent</text>
<text text-anchor="start" x="8" y="-96.5" font-family="Helvetica,sans-Serif" font-size="10.00">/work/df8e8cce5bebfd58/libajacc</text>
<text text-anchor="middle" x="88.5" y="-85.5" font-family="Helvetica,sans-Serif" font-size="10.00">/includes/ajacc.h</text>
</a>
</g>
</g>
<!-- Node3&#45;&gt;Node4 -->
<g id="edge3" class="edge">
<title>Node3&#45;&gt;Node4</title>
<path fill="none" stroke="midnightblue" d="M155.41,-150.35C142.02,-140.27 126.9,-128.89 114.42,-119.51"/>
<polygon fill="midnightblue" stroke="midnightblue" points="153.4,-153.21 163.49,-156.43 157.6,-147.62 153.4,-153.21"/>
</g>
<!-- Node5 -->
<g id="node5" class="node">
<title>Node5</title>
<g id="a_node5"><a xlink:href="../../d3/db1/ntv2ccplayer_8h.html" target="_top" xlink:title=" ">
<polygon fill="white" stroke="black" points="195,-78.5 195,-119.5 388,-119.5 388,-78.5 195,-78.5"/>
<text text-anchor="start" x="203" y="-107.5" font-family="Helvetica,sans-Serif" font-size="10.00">/home/tcbuilder/buildAgent</text>
<text text-anchor="start" x="203" y="-96.5" font-family="Helvetica,sans-Serif" font-size="10.00">/work/df8e8cce5bebfd58/libajantv2</text>
<text text-anchor="middle" x="291.5" y="-85.5" font-family="Helvetica,sans-Serif" font-size="10.00">/demos/ntv2ccplayer/ntv2ccplayer.h</text>
</a>
</g>
</g>
<!-- Node3&#45;&gt;Node5 -->
<g id="edge4" class="edge">
<title>Node3&#45;&gt;Node5</title>
<path fill="none" stroke="midnightblue" d="M223.92,-150.35C237.45,-140.27 252.72,-128.89 265.32,-119.51"/>
<polygon fill="midnightblue" stroke="midnightblue" points="221.7,-147.65 215.77,-156.43 225.88,-153.26 221.7,-147.65"/>
</g>
<!-- Node6 -->
<g id="node6" class="node">
<title>Node6</title>
<g id="a_node6"><a xlink:href="../../d8/dc4/ntv2ccplayer_2main_8cpp.html" target="_top" xlink:title="Complex demonstration application that plays synthesized video to SDI output containing NTSC captions...">
<polygon fill="white" stroke="black" points="90.5,-0.5 90.5,-41.5 278.5,-41.5 278.5,-0.5 90.5,-0.5"/>
<text text-anchor="start" x="98.5" y="-29.5" font-family="Helvetica,sans-Serif" font-size="10.00">/home/tcbuilder/buildAgent</text>
<text text-anchor="start" x="98.5" y="-18.5" font-family="Helvetica,sans-Serif" font-size="10.00">/work/df8e8cce5bebfd58/libajantv2</text>
<text text-anchor="middle" x="184.5" y="-7.5" font-family="Helvetica,sans-Serif" font-size="10.00">/demos/ntv2ccplayer/main.cpp</text>
</a>
</g>
</g>
<!-- Node5&#45;&gt;Node6 -->
<g id="edge5" class="edge">
<title>Node5&#45;&gt;Node6</title>
<path fill="none" stroke="midnightblue" d="M255.79,-72.64C241.5,-62.49 225.3,-50.98 211.96,-41.51"/>
<polygon fill="midnightblue" stroke="midnightblue" points="253.77,-75.49 263.94,-78.43 257.82,-69.78 253.77,-75.49"/>
</g>
<!-- Node7 -->
<g id="node7" class="node">
<title>Node7</title>
<g id="a_node7"><a xlink:href="../../de/d67/ntv2ccplayer_8cpp.html" target="_top" xlink:title="Implementation of NTV2CCPlayer class.">
<polygon fill="white" stroke="black" points="296.5,-0.5 296.5,-41.5 500.5,-41.5 500.5,-0.5 296.5,-0.5"/>
<text text-anchor="start" x="304.5" y="-29.5" font-family="Helvetica,sans-Serif" font-size="10.00">/home/tcbuilder/buildAgent</text>
<text text-anchor="start" x="304.5" y="-18.5" font-family="Helvetica,sans-Serif" font-size="10.00">/work/df8e8cce5bebfd58/libajantv2</text>
<text text-anchor="middle" x="398.5" y="-7.5" font-family="Helvetica,sans-Serif" font-size="10.00">/demos/ntv2ccplayer/ntv2ccplayer.cpp</text>
</a>
</g>
</g>
<!-- Node5&#45;&gt;Node7 -->
<g id="edge6" class="edge">
<title>Node5&#45;&gt;Node7</title>
<path fill="none" stroke="midnightblue" d="M327.21,-72.64C341.5,-62.49 357.7,-50.98 371.04,-41.51"/>
<polygon fill="midnightblue" stroke="midnightblue" points="325.18,-69.78 319.06,-78.43 329.23,-75.49 325.18,-69.78"/>
</g>
</g>
</svg>
