<?xml version="1.0" encoding="UTF-8" standalone="no"?>
<!DOCTYPE svg PUBLIC "-//W3C//DTD SVG 1.1//EN"
 "http://www.w3.org/Graphics/SVG/1.1/DTD/svg11.dtd">
<!-- Generated by graphviz version 2.43.0 (0)
 -->
<!-- Title: /home/tcbuilder/buildAgent/work/df8e8cce5bebfd58/libajantv2/demos/ntv2streampreview/ntv2streampreview.h Pages: 1 -->
<svg width="494pt" height="128pt"
 viewBox="0.00 0.00 494.00 128.00" xmlns="http://www.w3.org/2000/svg" xmlns:xlink="http://www.w3.org/1999/xlink">
<g id="graph0" class="graph" transform="scale(1 1) rotate(0) translate(4 124)">
<title>/home/tcbuilder/buildAgent/work/df8e8cce5bebfd58/libajantv2/demos/ntv2streampreview/ntv2streampreview.h</title>
<polygon fill="white" stroke="transparent" points="-4,4 -4,-124 490,-124 490,4 -4,4"/>
<!-- Node1 -->
<g id="node1" class="node">
<title>Node1</title>
<g id="a_node1"><a xlink:title="Header file for NTV2StreamPreview demo application. Demonstrates how to capture audio/video from NTV2...">
<polygon fill="#bfbfbf" stroke="black" points="97,-78.5 97,-119.5 354,-119.5 354,-78.5 97,-78.5"/>
<text text-anchor="start" x="105" y="-107.5" font-family="Helvetica,sans-Serif" font-size="10.00">/home/tcbuilder/buildAgent</text>
<text text-anchor="start" x="105" y="-96.5" font-family="Helvetica,sans-Serif" font-size="10.00">/work/df8e8cce5bebfd58/libajantv2</text>
<text text-anchor="middle" x="225.5" y="-85.5" font-family="Helvetica,sans-Serif" font-size="10.00">/demos/ntv2streampreview/ntv2streampreview.h</text>
</a>
</g>
</g>
<!-- Node2 -->
<g id="node2" class="node">
<title>Node2</title>
<g id="a_node2"><a xlink:href="../../da/d61/ntv2streampreview_2main_8cpp.html" target="_top" xlink:title="Demonstration application that uses AutoCirculate to capture frames from a single SDI input and displ...">
<polygon fill="white" stroke="black" points="0,-0.5 0,-41.5 199,-41.5 199,-0.5 0,-0.5"/>
<text text-anchor="start" x="8" y="-29.5" font-family="Helvetica,sans-Serif" font-size="10.00">/home/tcbuilder/buildAgent</text>
<text text-anchor="start" x="8" y="-18.5" font-family="Helvetica,sans-Serif" font-size="10.00">/work/df8e8cce5bebfd58/libajantv2</text>
<text text-anchor="middle" x="99.5" y="-7.5" font-family="Helvetica,sans-Serif" font-size="10.00">/demos/ntv2streampreview/main.cpp</text>
</a>
</g>
</g>
<!-- Node1&#45;&gt;Node2 -->
<g id="edge1" class="edge">
<title>Node1&#45;&gt;Node2</title>
<path fill="none" stroke="midnightblue" d="M184.39,-73.2C167.34,-62.92 147.84,-51.16 131.84,-41.51"/>
<polygon fill="midnightblue" stroke="midnightblue" points="182.68,-76.26 193.05,-78.43 186.3,-70.27 182.68,-76.26"/>
</g>
<!-- Node3 -->
<g id="node3" class="node">
<title>Node3</title>
<g id="a_node3"><a xlink:href="../../dc/dca/ntv2streampreview_8cpp.html" target="_top" xlink:title="Implementation of the NTV2StreamPreview class.">
<polygon fill="white" stroke="black" points="217,-0.5 217,-41.5 486,-41.5 486,-0.5 217,-0.5"/>
<text text-anchor="start" x="225" y="-29.5" font-family="Helvetica,sans-Serif" font-size="10.00">/home/tcbuilder/buildAgent</text>
<text text-anchor="start" x="225" y="-18.5" font-family="Helvetica,sans-Serif" font-size="10.00">/work/df8e8cce5bebfd58/libajantv2</text>
<text text-anchor="middle" x="351.5" y="-7.5" font-family="Helvetica,sans-Serif" font-size="10.00">/demos/ntv2streampreview/ntv2streampreview.cpp</text>
</a>
</g>
</g>
<!-- Node1&#45;&gt;Node3 -->
<g id="edge2" class="edge">
<title>Node1&#45;&gt;Node3</title>
<path fill="none" stroke="midnightblue" d="M266.61,-73.2C283.66,-62.92 303.16,-51.16 319.16,-41.51"/>
<polygon fill="midnightblue" stroke="midnightblue" points="264.7,-70.27 257.95,-78.43 268.32,-76.26 264.7,-70.27"/>
</g>
</g>
</svg>
