<?xml version="1.0" encoding="UTF-8" standalone="no"?>
<!DOCTYPE svg PUBLIC "-//W3C//DTD SVG 1.1//EN"
 "http://www.w3.org/Graphics/SVG/1.1/DTD/svg11.dtd">
<!-- Generated by graphviz version 2.43.0 (0)
 -->
<!-- Title: /home/tcbuilder/buildAgent/work/df8e8cce5bebfd58/libajantv2/ajabase/system/info.h Pages: 1 -->
<svg width="544pt" height="162pt"
 viewBox="0.00 0.00 544.00 162.00" xmlns="http://www.w3.org/2000/svg" xmlns:xlink="http://www.w3.org/1999/xlink">
<g id="graph0" class="graph" transform="scale(1 1) rotate(0) translate(4 158)">
<title>/home/tcbuilder/buildAgent/work/df8e8cce5bebfd58/libajantv2/ajabase/system/info.h</title>
<polygon fill="white" stroke="transparent" points="-4,4 -4,-158 540,-158 540,4 -4,4"/>
<!-- Node1 -->
<g id="node1" class="node">
<title>Node1</title>
<g id="a_node1"><a xlink:title="Declares the AJASystemInfo class.">
<polygon fill="#bfbfbf" stroke="black" points="299,-112.5 299,-153.5 487,-153.5 487,-112.5 299,-112.5"/>
<text text-anchor="start" x="307" y="-141.5" font-family="Helvetica,sans-Serif" font-size="10.00">/home/tcbuilder/buildAgent</text>
<text text-anchor="start" x="307" y="-130.5" font-family="Helvetica,sans-Serif" font-size="10.00">/work/df8e8cce5bebfd58/libajantv2</text>
<text text-anchor="middle" x="393" y="-119.5" font-family="Helvetica,sans-Serif" font-size="10.00">/ajabase/system/info.h</text>
</a>
</g>
</g>
<!-- Node2 -->
<g id="node2" class="node">
<title>Node2</title>
<g id="a_node2"><a xlink:href="../../d4/d79/public_8h.html" target="_top" xlink:title="Master header for the ajabase library.">
<polygon fill="white" stroke="black" points="273,-56.5 273,-75.5 415,-75.5 415,-56.5 273,-56.5"/>
<text text-anchor="middle" x="344" y="-63.5" font-family="Helvetica,sans-Serif" font-size="10.00">ajabase/common/public.h</text>
</a>
</g>
</g>
<!-- Node1&#45;&gt;Node2 -->
<g id="edge1" class="edge">
<title>Node1&#45;&gt;Node2</title>
<path fill="none" stroke="midnightblue" d="M378.3,-112.5C371.44,-103.39 363.35,-92.66 356.75,-83.91"/>
<polygon fill="midnightblue" stroke="midnightblue" points="359.34,-81.53 350.52,-75.65 353.75,-85.74 359.34,-81.53"/>
</g>
<!-- Node4 -->
<g id="node4" class="node">
<title>Node4</title>
<g id="a_node4"><a xlink:title=" ">
<polygon fill="white" stroke="#bfbfbf" points="0,-0.5 0,-19.5 44,-19.5 44,-0.5 0,-0.5"/>
<text text-anchor="middle" x="22" y="-7.5" font-family="Helvetica,sans-Serif" font-size="10.00">string</text>
</a>
</g>
</g>
<!-- Node1&#45;&gt;Node4 -->
<g id="edge10" class="edge">
<title>Node1&#45;&gt;Node4</title>
<path fill="none" stroke="midnightblue" d="M332.98,-112.42C253.33,-86.45 115.58,-41.52 53.7,-21.34"/>
<polygon fill="midnightblue" stroke="midnightblue" points="54.69,-17.98 44.1,-18.21 52.52,-24.64 54.69,-17.98"/>
</g>
<!-- Node6 -->
<g id="node6" class="node">
<title>Node6</title>
<g id="a_node6"><a xlink:title=" ">
<polygon fill="white" stroke="#bfbfbf" points="432.5,-0.5 432.5,-19.5 479.5,-19.5 479.5,-0.5 432.5,-0.5"/>
<text text-anchor="middle" x="456" y="-7.5" font-family="Helvetica,sans-Serif" font-size="10.00">vector</text>
</a>
</g>
</g>
<!-- Node1&#45;&gt;Node6 -->
<g id="edge8" class="edge">
<title>Node1&#45;&gt;Node6</title>
<path fill="none" stroke="midnightblue" d="M404.14,-112.43C410.15,-101.73 417.62,-88.21 424,-76 432.18,-60.34 441.02,-42.3 447.33,-29.2"/>
<polygon fill="midnightblue" stroke="midnightblue" points="450.62,-30.43 451.79,-19.9 444.31,-27.4 450.62,-30.43"/>
</g>
<!-- Node7 -->
<g id="node7" class="node">
<title>Node7</title>
<g id="a_node7"><a xlink:title=" ">
<polygon fill="white" stroke="#bfbfbf" points="498,-0.5 498,-19.5 536,-19.5 536,-0.5 498,-0.5"/>
<text text-anchor="middle" x="517" y="-7.5" font-family="Helvetica,sans-Serif" font-size="10.00">map</text>
</a>
</g>
</g>
<!-- Node1&#45;&gt;Node7 -->
<g id="edge9" class="edge">
<title>Node1&#45;&gt;Node7</title>
<path fill="none" stroke="midnightblue" d="M413.2,-112.29C437.65,-88.43 478.33,-48.74 500.81,-26.79"/>
<polygon fill="midnightblue" stroke="midnightblue" points="503.5,-29.06 508.21,-19.57 498.61,-24.05 503.5,-29.06"/>
</g>
<!-- Node3 -->
<g id="node3" class="node">
<title>Node3</title>
<g id="a_node3"><a xlink:href="../../db/db5/export_8h.html" target="_top" xlink:title="Declares system&#45;dependent import/export macros and libraries.">
<polygon fill="white" stroke="black" points="62,-0.5 62,-19.5 206,-19.5 206,-0.5 62,-0.5"/>
<text text-anchor="middle" x="134" y="-7.5" font-family="Helvetica,sans-Serif" font-size="10.00">ajabase/common/export.h</text>
</a>
</g>
</g>
<!-- Node2&#45;&gt;Node3 -->
<g id="edge2" class="edge">
<title>Node2&#45;&gt;Node3</title>
<path fill="none" stroke="midnightblue" d="M310.72,-56.44C274.55,-47.14 216.62,-32.25 177.02,-22.06"/>
<polygon fill="midnightblue" stroke="midnightblue" points="177.68,-18.62 167.12,-19.52 175.93,-25.4 177.68,-18.62"/>
</g>
<!-- Node2&#45;&gt;Node4 -->
<g id="edge3" class="edge">
<title>Node2&#45;&gt;Node4</title>
<path fill="none" stroke="midnightblue" d="M272.96,-56.62C216.18,-49.33 134.41,-37.49 54.5,-20.1"/>
<polygon fill="midnightblue" stroke="midnightblue" points="54.78,-16.58 44.26,-17.84 53.27,-23.41 54.78,-16.58"/>
</g>
<!-- Node5 -->
<g id="node5" class="node">
<title>Node5</title>
<g id="a_node5"><a xlink:title=" ">
<polygon fill="white" stroke="#bfbfbf" points="224,-0.5 224,-19.5 256,-19.5 256,-0.5 224,-0.5"/>
<text text-anchor="middle" x="240" y="-7.5" font-family="Helvetica,sans-Serif" font-size="10.00">list</text>
</a>
</g>
</g>
<!-- Node2&#45;&gt;Node5 -->
<g id="edge4" class="edge">
<title>Node2&#45;&gt;Node5</title>
<path fill="none" stroke="midnightblue" d="M327.29,-56.32C310.59,-47.65 284.69,-34.21 265.44,-24.21"/>
<polygon fill="midnightblue" stroke="midnightblue" points="266.81,-20.98 256.33,-19.48 263.59,-27.19 266.81,-20.98"/>
</g>
<!-- Node2&#45;&gt;Node6 -->
<g id="edge5" class="edge">
<title>Node2&#45;&gt;Node6</title>
<path fill="none" stroke="midnightblue" d="M361.99,-56.32C380.04,-47.62 408.05,-34.12 428.8,-24.11"/>
<polygon fill="midnightblue" stroke="midnightblue" points="430.56,-27.15 438.05,-19.65 427.52,-20.84 430.56,-27.15"/>
</g>
<!-- Node2&#45;&gt;Node7 -->
<g id="edge6" class="edge">
<title>Node2&#45;&gt;Node7</title>
<path fill="none" stroke="midnightblue" d="M371.82,-56.46C399.09,-48.06 442.09,-34.78 487.91,-20.32"/>
<polygon fill="midnightblue" stroke="midnightblue" points="489.25,-23.57 497.73,-17.22 487.14,-16.9 489.25,-23.57"/>
</g>
<!-- Node8 -->
<g id="node8" class="node">
<title>Node8</title>
<g id="a_node8"><a xlink:href="../../d9/d49/types_8h.html" target="_top" xlink:title="Declares common types used in the ajabase library.">
<polygon fill="white" stroke="black" points="274,-0.5 274,-19.5 414,-19.5 414,-0.5 274,-0.5"/>
<text text-anchor="middle" x="344" y="-7.5" font-family="Helvetica,sans-Serif" font-size="10.00">ajabase/common/types.h</text>
</a>
</g>
</g>
<!-- Node2&#45;&gt;Node8 -->
<g id="edge7" class="edge">
<title>Node2&#45;&gt;Node8</title>
<path fill="none" stroke="midnightblue" d="M344,-56.08C344,-49.01 344,-38.86 344,-29.99"/>
<polygon fill="midnightblue" stroke="midnightblue" points="347.5,-29.75 344,-19.75 340.5,-29.75 347.5,-29.75"/>
</g>
</g>
</svg>
