<?xml version="1.0" encoding="UTF-8" standalone="no"?>
<!DOCTYPE svg PUBLIC "-//W3C//DTD SVG 1.1//EN"
 "http://www.w3.org/Graphics/SVG/1.1/DTD/svg11.dtd">
<!-- Generated by graphviz version 2.43.0 (0)
 -->
<!-- Title: CBaseMediaFilter Pages: 1 -->
<svg width="427pt" height="152pt"
 viewBox="0.00 0.00 427.00 152.00" xmlns="http://www.w3.org/2000/svg" xmlns:xlink="http://www.w3.org/1999/xlink">
<g id="graph0" class="graph" transform="scale(1 1) rotate(0) translate(4 148)">
<title>CBaseMediaFilter</title>
<polygon fill="white" stroke="transparent" points="-4,4 -4,-148 423,-148 423,4 -4,4"/>
<!-- Node1 -->
<g id="node1" class="node">
<title>Node1</title>
<g id="a_node1"><a xlink:title=" ">
<polygon fill="#bfbfbf" stroke="black" points="215,-0.5 215,-19.5 317,-19.5 317,-0.5 215,-0.5"/>
<text text-anchor="middle" x="266" y="-7.5" font-family="Helvetica,sans-Serif" font-size="10.00">CBaseMediaFilter</text>
</a>
</g>
</g>
<!-- Node2 -->
<g id="node2" class="node">
<title>Node2</title>
<g id="a_node2"><a xlink:href="../../d9/d89/class_c_unknown.html" target="_top" xlink:title=" ">
<polygon fill="white" stroke="black" points="97.5,-67.5 97.5,-86.5 166.5,-86.5 166.5,-67.5 97.5,-67.5"/>
<text text-anchor="middle" x="132" y="-74.5" font-family="Helvetica,sans-Serif" font-size="10.00">CUnknown</text>
</a>
</g>
</g>
<!-- Node2&#45;&gt;Node1 -->
<g id="edge1" class="edge">
<title>Node2&#45;&gt;Node1</title>
<path fill="none" stroke="midnightblue" d="M158.92,-62.94C185.46,-50.07 225.27,-30.76 248.13,-19.67"/>
<polygon fill="midnightblue" stroke="midnightblue" points="157.26,-59.85 149.79,-67.37 160.32,-66.15 157.26,-59.85"/>
</g>
<!-- Node3 -->
<g id="node3" class="node">
<title>Node3</title>
<g id="a_node3"><a xlink:title=" ">
<polygon fill="white" stroke="#bfbfbf" points="0,-124.5 0,-143.5 138,-143.5 138,-124.5 0,-124.5"/>
<text text-anchor="middle" x="69" y="-131.5" font-family="Helvetica,sans-Serif" font-size="10.00">INonDelegatingUnknown</text>
</a>
</g>
</g>
<!-- Node3&#45;&gt;Node2 -->
<g id="edge2" class="edge">
<title>Node3&#45;&gt;Node2</title>
<path fill="none" stroke="midnightblue" d="M86.52,-117.71C97.96,-107.72 112.5,-95.02 122.02,-86.71"/>
<polygon fill="midnightblue" stroke="midnightblue" points="84.08,-115.19 78.84,-124.41 88.68,-120.47 84.08,-115.19"/>
</g>
<!-- Node4 -->
<g id="node4" class="node">
<title>Node4</title>
<g id="a_node4"><a xlink:href="../../d1/d2d/class_c_base_object.html" target="_top" xlink:title=" ">
<polygon fill="white" stroke="black" points="156.5,-124.5 156.5,-143.5 235.5,-143.5 235.5,-124.5 156.5,-124.5"/>
<text text-anchor="middle" x="196" y="-131.5" font-family="Helvetica,sans-Serif" font-size="10.00">CBaseObject</text>
</a>
</g>
</g>
<!-- Node4&#45;&gt;Node2 -->
<g id="edge3" class="edge">
<title>Node4&#45;&gt;Node2</title>
<path fill="none" stroke="midnightblue" d="M178.21,-117.71C166.58,-107.72 151.81,-95.02 142.14,-86.71"/>
<polygon fill="midnightblue" stroke="midnightblue" points="176.13,-120.54 186,-124.41 180.7,-115.23 176.13,-120.54"/>
</g>
<!-- Node5 -->
<g id="node5" class="node">
<title>Node5</title>
<g id="a_node5"><a xlink:title=" ">
<polygon fill="white" stroke="#bfbfbf" points="185,-67.5 185,-86.5 259,-86.5 259,-67.5 185,-67.5"/>
<text text-anchor="middle" x="222" y="-74.5" font-family="Helvetica,sans-Serif" font-size="10.00">IMediaFilter</text>
</a>
</g>
</g>
<!-- Node5&#45;&gt;Node1 -->
<g id="edge4" class="edge">
<title>Node5&#45;&gt;Node1</title>
<path fill="none" stroke="midnightblue" d="M233.57,-58.9C242.12,-46.27 253.41,-29.6 260.16,-19.63"/>
<polygon fill="midnightblue" stroke="midnightblue" points="230.64,-56.99 227.93,-67.23 236.44,-60.91 230.64,-56.99"/>
</g>
<!-- Node6 -->
<g id="node6" class="node">
<title>Node6</title>
<g id="a_node6"><a xlink:href="../../dc/da7/class_c_ref_time.html" target="_top" xlink:title=" ">
<polygon fill="white" stroke="black" points="277.5,-67.5 277.5,-86.5 342.5,-86.5 342.5,-67.5 277.5,-67.5"/>
<text text-anchor="middle" x="310" y="-74.5" font-family="Helvetica,sans-Serif" font-size="10.00">CRefTime</text>
</a>
</g>
</g>
<!-- Node6&#45;&gt;Node1 -->
<g id="edge5" class="edge">
<title>Node6&#45;&gt;Node1</title>
<path fill="none" stroke="#9a32cd" stroke-dasharray="5,2" d="M298.43,-58.9C289.88,-46.27 278.59,-29.6 271.84,-19.63"/>
<polygon fill="#9a32cd" stroke="#9a32cd" points="295.56,-60.91 304.07,-67.23 301.36,-56.99 295.56,-60.91"/>
<text text-anchor="middle" x="313" y="-41" font-family="Helvetica,sans-Serif" font-size="10.00"> m_tStart</text>
</g>
<!-- Node7 -->
<g id="node7" class="node">
<title>Node7</title>
<g id="a_node7"><a xlink:href="../../d5/d24/class_c_crit_sec.html" target="_top" xlink:title=" ">
<polygon fill="white" stroke="black" points="361,-67.5 361,-86.5 419,-86.5 419,-67.5 361,-67.5"/>
<text text-anchor="middle" x="390" y="-74.5" font-family="Helvetica,sans-Serif" font-size="10.00">CCritSec</text>
</a>
</g>
</g>
<!-- Node7&#45;&gt;Node1 -->
<g id="edge6" class="edge">
<title>Node7&#45;&gt;Node1</title>
<path fill="none" stroke="#9a32cd" stroke-dasharray="5,2" d="M372.6,-60.71C363.38,-53.15 351.58,-44.32 340,-38 326.08,-30.4 309.58,-24.14 295.7,-19.57"/>
<polygon fill="#9a32cd" stroke="#9a32cd" points="370.38,-63.41 380.27,-67.19 374.89,-58.06 370.38,-63.41"/>
<text text-anchor="middle" x="379.5" y="-41" font-family="Helvetica,sans-Serif" font-size="10.00"> m_pLock</text>
</g>
</g>
</svg>
