<?xml version="1.0" encoding="UTF-8" standalone="no"?>
<!DOCTYPE svg PUBLIC "-//W3C//DTD SVG 1.1//EN"
 "http://www.w3.org/Graphics/SVG/1.1/DTD/svg11.dtd">
<!-- Generated by graphviz version 2.43.0 (0)
 -->
<!-- Title: /home/tcbuilder/buildAgent/work/df8e8cce5bebfd58/libajantv2/ajabase/system/file_io.cpp Pages: 1 -->
<svg width="1403pt" height="274pt"
 viewBox="0.00 0.00 1403.00 274.00" xmlns="http://www.w3.org/2000/svg" xmlns:xlink="http://www.w3.org/1999/xlink">
<g id="graph0" class="graph" transform="scale(1 1) rotate(0) translate(4 270)">
<title>/home/tcbuilder/buildAgent/work/df8e8cce5bebfd58/libajantv2/ajabase/system/file_io.cpp</title>
<polygon fill="white" stroke="transparent" points="-4,4 -4,-270 1399,-270 1399,4 -4,4"/>
<!-- Node1 -->
<g id="node1" class="node">
<title>Node1</title>
<g id="a_node1"><a xlink:title="Implements the AJAFileIO class based on platform, Windows/Posix.">
<polygon fill="#bfbfbf" stroke="black" points="798,-224.5 798,-265.5 986,-265.5 986,-224.5 798,-224.5"/>
<text text-anchor="start" x="806" y="-253.5" font-family="Helvetica,sans-Serif" font-size="10.00">/home/tcbuilder/buildAgent</text>
<text text-anchor="start" x="806" y="-242.5" font-family="Helvetica,sans-Serif" font-size="10.00">/work/df8e8cce5bebfd58/libajantv2</text>
<text text-anchor="middle" x="892" y="-231.5" font-family="Helvetica,sans-Serif" font-size="10.00">/ajabase/system/file_io.cpp</text>
</a>
</g>
</g>
<!-- Node2 -->
<g id="node2" class="node">
<title>Node2</title>
<g id="a_node2"><a xlink:href="../../dc/d54/common_8h.html" target="_top" xlink:title="Private include file for all ajabase sources.">
<polygon fill="white" stroke="black" points="64.5,-56.5 64.5,-75.5 219.5,-75.5 219.5,-56.5 64.5,-56.5"/>
<text text-anchor="middle" x="142" y="-63.5" font-family="Helvetica,sans-Serif" font-size="10.00">ajabase/common/common.h</text>
</a>
</g>
</g>
<!-- Node1&#45;&gt;Node2 -->
<g id="edge1" class="edge">
<title>Node1&#45;&gt;Node2</title>
<path fill="none" stroke="midnightblue" d="M797.86,-241.61C653.48,-236.85 384.74,-223.43 296,-188 236.76,-164.35 181.65,-110.39 156.42,-83.24"/>
<polygon fill="midnightblue" stroke="midnightblue" points="158.91,-80.77 149.58,-75.73 153.73,-85.48 158.91,-80.77"/>
</g>
<!-- Node8 -->
<g id="node8" class="node">
<title>Node8</title>
<g id="a_node8"><a xlink:href="../../d9/d49/types_8h.html" target="_top" xlink:title="Declares common types used in the ajabase library.">
<polygon fill="white" stroke="black" points="514,-0.5 514,-19.5 654,-19.5 654,-0.5 514,-0.5"/>
<text text-anchor="middle" x="584" y="-7.5" font-family="Helvetica,sans-Serif" font-size="10.00">ajabase/common/types.h</text>
</a>
</g>
</g>
<!-- Node1&#45;&gt;Node8 -->
<g id="edge7" class="edge">
<title>Node1&#45;&gt;Node8</title>
<path fill="none" stroke="midnightblue" d="M797.9,-240.1C716.11,-234.5 606.55,-220.91 579,-188 540.73,-142.28 563.32,-64.25 576.51,-29.1"/>
<polygon fill="midnightblue" stroke="midnightblue" points="579.83,-30.24 580.23,-19.66 573.31,-27.68 579.83,-30.24"/>
</g>
<!-- Node9 -->
<g id="node9" class="node">
<title>Node9</title>
<g id="a_node9"><a xlink:href="../../db/db8/file__io_8h.html" target="_top" xlink:title="Declares the AJAFileIO class.">
<polygon fill="white" stroke="black" points="305.5,-168.5 305.5,-187.5 440.5,-187.5 440.5,-168.5 305.5,-168.5"/>
<text text-anchor="middle" x="373" y="-175.5" font-family="Helvetica,sans-Serif" font-size="10.00">ajabase/system/file_io.h</text>
</a>
</g>
</g>
<!-- Node1&#45;&gt;Node9 -->
<g id="edge8" class="edge">
<title>Node1&#45;&gt;Node9</title>
<path fill="none" stroke="midnightblue" d="M797.71,-232.19C698.28,-219.74 543.44,-200.35 450.75,-188.74"/>
<polygon fill="midnightblue" stroke="midnightblue" points="450.95,-185.24 440.59,-187.47 450.08,-192.18 450.95,-185.24"/>
</g>
<!-- Node14 -->
<g id="node14" class="node">
<title>Node14</title>
<g id="a_node14"><a xlink:title=" ">
<polygon fill="white" stroke="#bfbfbf" points="588,-168.5 588,-187.5 660,-187.5 660,-168.5 588,-168.5"/>
<text text-anchor="middle" x="624" y="-175.5" font-family="Helvetica,sans-Serif" font-size="10.00">sys/types.h</text>
</a>
</g>
</g>
<!-- Node1&#45;&gt;Node14 -->
<g id="edge21" class="edge">
<title>Node1&#45;&gt;Node14</title>
<path fill="none" stroke="midnightblue" d="M811.59,-224.5C765.03,-213.2 708.12,-199.4 669.28,-189.98"/>
<polygon fill="midnightblue" stroke="midnightblue" points="669.87,-186.52 659.32,-187.57 668.22,-193.33 669.87,-186.52"/>
</g>
<!-- Node15 -->
<g id="node15" class="node">
<title>Node15</title>
<g id="a_node15"><a xlink:title=" ">
<polygon fill="white" stroke="#bfbfbf" points="678,-168.5 678,-187.5 742,-187.5 742,-168.5 678,-168.5"/>
<text text-anchor="middle" x="710" y="-175.5" font-family="Helvetica,sans-Serif" font-size="10.00">sys/stat.h</text>
</a>
</g>
</g>
<!-- Node1&#45;&gt;Node15 -->
<g id="edge22" class="edge">
<title>Node1&#45;&gt;Node15</title>
<path fill="none" stroke="midnightblue" d="M837.39,-224.5C806.94,-213.62 769.98,-200.42 743.73,-191.05"/>
<polygon fill="midnightblue" stroke="midnightblue" points="744.82,-187.72 734.23,-187.65 742.47,-194.31 744.82,-187.72"/>
</g>
<!-- Node16 -->
<g id="node16" class="node">
<title>Node16</title>
<g id="a_node16"><a xlink:title=" ">
<polygon fill="white" stroke="#bfbfbf" points="760,-168.5 760,-187.5 816,-187.5 816,-168.5 760,-168.5"/>
<text text-anchor="middle" x="788" y="-175.5" font-family="Helvetica,sans-Serif" font-size="10.00">sstream</text>
</a>
</g>
</g>
<!-- Node1&#45;&gt;Node16 -->
<g id="edge23" class="edge">
<title>Node1&#45;&gt;Node16</title>
<path fill="none" stroke="midnightblue" d="M860.8,-224.5C844.7,-214.44 825.42,-202.38 810.74,-193.21"/>
<polygon fill="midnightblue" stroke="midnightblue" points="812.18,-189.98 801.84,-187.65 808.47,-195.92 812.18,-189.98"/>
</g>
<!-- Node17 -->
<g id="node17" class="node">
<title>Node17</title>
<g id="a_node17"><a xlink:title=" ">
<polygon fill="white" stroke="#bfbfbf" points="834.5,-168.5 834.5,-187.5 881.5,-187.5 881.5,-168.5 834.5,-168.5"/>
<text text-anchor="middle" x="858" y="-175.5" font-family="Helvetica,sans-Serif" font-size="10.00">fcntl.h</text>
</a>
</g>
</g>
<!-- Node1&#45;&gt;Node17 -->
<g id="edge24" class="edge">
<title>Node1&#45;&gt;Node17</title>
<path fill="none" stroke="midnightblue" d="M881.8,-224.5C877.19,-215.68 871.78,-205.34 867.28,-196.74"/>
<polygon fill="midnightblue" stroke="midnightblue" points="870.26,-194.89 862.53,-187.65 864.06,-198.14 870.26,-194.89"/>
</g>
<!-- Node18 -->
<g id="node18" class="node">
<title>Node18</title>
<g id="a_node18"><a xlink:title=" ">
<polygon fill="white" stroke="#bfbfbf" points="900,-168.5 900,-187.5 954,-187.5 954,-168.5 900,-168.5"/>
<text text-anchor="middle" x="927" y="-175.5" font-family="Helvetica,sans-Serif" font-size="10.00">dirent.h</text>
</a>
</g>
</g>
<!-- Node1&#45;&gt;Node18 -->
<g id="edge25" class="edge">
<title>Node1&#45;&gt;Node18</title>
<path fill="none" stroke="midnightblue" d="M902.5,-224.5C907.3,-215.59 912.94,-205.11 917.6,-196.46"/>
<polygon fill="midnightblue" stroke="midnightblue" points="920.68,-198.12 922.34,-187.65 914.52,-194.8 920.68,-198.12"/>
</g>
<!-- Node19 -->
<g id="node19" class="node">
<title>Node19</title>
<g id="a_node19"><a xlink:title=" ">
<polygon fill="white" stroke="#bfbfbf" points="972,-168.5 972,-187.5 1038,-187.5 1038,-168.5 972,-168.5"/>
<text text-anchor="middle" x="1005" y="-175.5" font-family="Helvetica,sans-Serif" font-size="10.00">fnmatch.h</text>
</a>
</g>
</g>
<!-- Node1&#45;&gt;Node19 -->
<g id="edge26" class="edge">
<title>Node1&#45;&gt;Node19</title>
<path fill="none" stroke="midnightblue" d="M925.9,-224.5C943.73,-214.24 965.15,-201.93 981.2,-192.69"/>
<polygon fill="midnightblue" stroke="midnightblue" points="983.03,-195.67 989.96,-187.65 979.54,-189.6 983.03,-195.67"/>
</g>
<!-- Node20 -->
<g id="node20" class="node">
<title>Node20</title>
<g id="a_node20"><a xlink:title=" ">
<polygon fill="white" stroke="#bfbfbf" points="1056.5,-168.5 1056.5,-187.5 1109.5,-187.5 1109.5,-168.5 1056.5,-168.5"/>
<text text-anchor="middle" x="1083" y="-175.5" font-family="Helvetica,sans-Serif" font-size="10.00">limits.h</text>
</a>
</g>
</g>
<!-- Node1&#45;&gt;Node20 -->
<g id="edge27" class="edge">
<title>Node1&#45;&gt;Node20</title>
<path fill="none" stroke="midnightblue" d="M949.31,-224.5C981.41,-213.57 1020.4,-200.3 1047.97,-190.92"/>
<polygon fill="midnightblue" stroke="midnightblue" points="1049.24,-194.19 1057.57,-187.65 1046.98,-187.56 1049.24,-194.19"/>
</g>
<!-- Node21 -->
<g id="node21" class="node">
<title>Node21</title>
<g id="a_node21"><a xlink:title=" ">
<polygon fill="white" stroke="#bfbfbf" points="1128,-168.5 1128,-187.5 1178,-187.5 1178,-168.5 1128,-168.5"/>
<text text-anchor="middle" x="1153" y="-175.5" font-family="Helvetica,sans-Serif" font-size="10.00">stdio.h</text>
</a>
</g>
</g>
<!-- Node1&#45;&gt;Node21 -->
<g id="edge28" class="edge">
<title>Node1&#45;&gt;Node21</title>
<path fill="none" stroke="midnightblue" d="M972.71,-224.44C1013.66,-214.43 1064.4,-201.91 1118.07,-188.21"/>
<polygon fill="midnightblue" stroke="midnightblue" points="1118.94,-191.6 1127.76,-185.73 1117.21,-184.82 1118.94,-191.6"/>
</g>
<!-- Node22 -->
<g id="node22" class="node">
<title>Node22</title>
<g id="a_node22"><a xlink:title=" ">
<polygon fill="white" stroke="#bfbfbf" points="1196.5,-168.5 1196.5,-187.5 1249.5,-187.5 1249.5,-168.5 1196.5,-168.5"/>
<text text-anchor="middle" x="1223" y="-175.5" font-family="Helvetica,sans-Serif" font-size="10.00">stdlib.h</text>
</a>
</g>
</g>
<!-- Node1&#45;&gt;Node22 -->
<g id="edge29" class="edge">
<title>Node1&#45;&gt;Node22</title>
<path fill="none" stroke="midnightblue" d="M986.28,-227.53C1041.83,-217.48 1113.69,-203.91 1186.49,-188.01"/>
<polygon fill="midnightblue" stroke="midnightblue" points="1187.29,-191.42 1196.3,-185.86 1185.79,-184.58 1187.29,-191.42"/>
</g>
<!-- Node23 -->
<g id="node23" class="node">
<title>Node23</title>
<g id="a_node23"><a xlink:title=" ">
<polygon fill="white" stroke="#bfbfbf" points="1267.5,-168.5 1267.5,-187.5 1320.5,-187.5 1320.5,-168.5 1267.5,-168.5"/>
<text text-anchor="middle" x="1294" y="-175.5" font-family="Helvetica,sans-Serif" font-size="10.00">string.h</text>
</a>
</g>
</g>
<!-- Node1&#45;&gt;Node23 -->
<g id="edge30" class="edge">
<title>Node1&#45;&gt;Node23</title>
<path fill="none" stroke="midnightblue" d="M986.36,-232.25C1058.29,-222.68 1159.94,-207.83 1257.3,-188.2"/>
<polygon fill="midnightblue" stroke="midnightblue" points="1258.21,-191.58 1267.31,-186.16 1256.81,-184.72 1258.21,-191.58"/>
</g>
<!-- Node24 -->
<g id="node24" class="node">
<title>Node24</title>
<g id="a_node24"><a xlink:title=" ">
<polygon fill="white" stroke="#bfbfbf" points="1339,-168.5 1339,-187.5 1395,-187.5 1395,-168.5 1339,-168.5"/>
<text text-anchor="middle" x="1367" y="-175.5" font-family="Helvetica,sans-Serif" font-size="10.00">unistd.h</text>
</a>
</g>
</g>
<!-- Node1&#45;&gt;Node24 -->
<g id="edge31" class="edge">
<title>Node1&#45;&gt;Node24</title>
<path fill="none" stroke="midnightblue" d="M986.03,-235.04C1072.7,-226.08 1205.02,-210.63 1328.75,-188.05"/>
<polygon fill="midnightblue" stroke="midnightblue" points="1329.59,-191.46 1338.79,-186.21 1328.32,-184.58 1329.59,-191.46"/>
</g>
<!-- Node3 -->
<g id="node3" class="node">
<title>Node3</title>
<g id="a_node3"><a xlink:href="../../db/db5/export_8h.html" target="_top" xlink:title="Declares system&#45;dependent import/export macros and libraries.">
<polygon fill="white" stroke="black" points="246,-0.5 246,-19.5 390,-19.5 390,-0.5 246,-0.5"/>
<text text-anchor="middle" x="318" y="-7.5" font-family="Helvetica,sans-Serif" font-size="10.00">ajabase/common/export.h</text>
</a>
</g>
</g>
<!-- Node2&#45;&gt;Node3 -->
<g id="edge2" class="edge">
<title>Node2&#45;&gt;Node3</title>
<path fill="none" stroke="midnightblue" d="M169.89,-56.44C199.75,-47.28 247.31,-32.69 280.46,-22.52"/>
<polygon fill="midnightblue" stroke="midnightblue" points="281.71,-25.8 290.24,-19.52 279.66,-19.1 281.71,-25.8"/>
</g>
<!-- Node4 -->
<g id="node4" class="node">
<title>Node4</title>
<g id="a_node4"><a xlink:title=" ">
<polygon fill="white" stroke="#bfbfbf" points="68,-0.5 68,-19.5 100,-19.5 100,-0.5 68,-0.5"/>
<text text-anchor="middle" x="84" y="-7.5" font-family="Helvetica,sans-Serif" font-size="10.00">set</text>
</a>
</g>
</g>
<!-- Node2&#45;&gt;Node4 -->
<g id="edge3" class="edge">
<title>Node2&#45;&gt;Node4</title>
<path fill="none" stroke="midnightblue" d="M132.68,-56.32C124.11,-48.34 111.19,-36.31 100.81,-26.65"/>
<polygon fill="midnightblue" stroke="midnightblue" points="103.19,-24.09 93.49,-19.83 98.42,-29.21 103.19,-24.09"/>
</g>
<!-- Node5 -->
<g id="node5" class="node">
<title>Node5</title>
<g id="a_node5"><a xlink:title=" ">
<polygon fill="white" stroke="#bfbfbf" points="184,-0.5 184,-19.5 228,-19.5 228,-0.5 184,-0.5"/>
<text text-anchor="middle" x="206" y="-7.5" font-family="Helvetica,sans-Serif" font-size="10.00">string</text>
</a>
</g>
</g>
<!-- Node2&#45;&gt;Node5 -->
<g id="edge4" class="edge">
<title>Node2&#45;&gt;Node5</title>
<path fill="none" stroke="midnightblue" d="M152.28,-56.32C161.84,-48.26 176.28,-36.08 187.78,-26.37"/>
<polygon fill="midnightblue" stroke="midnightblue" points="190.14,-28.96 195.53,-19.83 185.63,-23.61 190.14,-28.96"/>
</g>
<!-- Node6 -->
<g id="node6" class="node">
<title>Node6</title>
<g id="a_node6"><a xlink:title=" ">
<polygon fill="white" stroke="#bfbfbf" points="118.5,-0.5 118.5,-19.5 165.5,-19.5 165.5,-0.5 118.5,-0.5"/>
<text text-anchor="middle" x="142" y="-7.5" font-family="Helvetica,sans-Serif" font-size="10.00">vector</text>
</a>
</g>
</g>
<!-- Node2&#45;&gt;Node6 -->
<g id="edge5" class="edge">
<title>Node2&#45;&gt;Node6</title>
<path fill="none" stroke="midnightblue" d="M142,-56.08C142,-49.01 142,-38.86 142,-29.99"/>
<polygon fill="midnightblue" stroke="midnightblue" points="145.5,-29.75 142,-19.75 138.5,-29.75 145.5,-29.75"/>
</g>
<!-- Node7 -->
<g id="node7" class="node">
<title>Node7</title>
<g id="a_node7"><a xlink:title=" ">
<polygon fill="white" stroke="#bfbfbf" points="0,-0.5 0,-19.5 50,-19.5 50,-0.5 0,-0.5"/>
<text text-anchor="middle" x="25" y="-7.5" font-family="Helvetica,sans-Serif" font-size="10.00">cstdint</text>
</a>
</g>
</g>
<!-- Node2&#45;&gt;Node7 -->
<g id="edge6" class="edge">
<title>Node2&#45;&gt;Node7</title>
<path fill="none" stroke="midnightblue" d="M123.46,-56.44C104.38,-47.64 74.43,-33.81 52.56,-23.72"/>
<polygon fill="midnightblue" stroke="midnightblue" points="54,-20.53 43.45,-19.52 51.07,-26.88 54,-20.53"/>
</g>
<!-- Node9&#45;&gt;Node5 -->
<g id="edge20" class="edge">
<title>Node9&#45;&gt;Node5</title>
<path fill="none" stroke="midnightblue" d="M365.88,-168.37C348.84,-147.94 304.03,-95.37 262,-56 250.65,-45.37 237.07,-34.42 226.13,-25.99"/>
<polygon fill="midnightblue" stroke="midnightblue" points="228.09,-23.08 218.01,-19.81 223.86,-28.65 228.09,-23.08"/>
</g>
<!-- Node9&#45;&gt;Node6 -->
<g id="edge19" class="edge">
<title>Node9&#45;&gt;Node6</title>
<path fill="none" stroke="midnightblue" d="M360.81,-168.33C348.52,-159.48 329.11,-145.21 313,-132 273.8,-99.88 269.66,-84.86 228,-56 210.05,-43.57 188.24,-32.19 171.08,-23.99"/>
<polygon fill="midnightblue" stroke="midnightblue" points="172.11,-20.61 161.57,-19.54 169.14,-26.95 172.11,-20.61"/>
</g>
<!-- Node9&#45;&gt;Node8 -->
<g id="edge9" class="edge">
<title>Node9&#45;&gt;Node8</title>
<path fill="none" stroke="midnightblue" d="M423.21,-168.49C449.29,-162.02 480.34,-150.88 503,-132 532.82,-107.16 523.83,-87.85 546,-56 553.01,-45.93 561.8,-35.41 569.16,-27.08"/>
<polygon fill="midnightblue" stroke="midnightblue" points="571.83,-29.35 575.92,-19.57 566.63,-24.66 571.83,-29.35"/>
</g>
<!-- Node10 -->
<g id="node10" class="node">
<title>Node10</title>
<g id="a_node10"><a xlink:href="../../d4/d79/public_8h.html" target="_top" xlink:title="Master header for the ajabase library.">
<polygon fill="white" stroke="black" points="333,-56.5 333,-75.5 475,-75.5 475,-56.5 333,-56.5"/>
<text text-anchor="middle" x="404" y="-63.5" font-family="Helvetica,sans-Serif" font-size="10.00">ajabase/common/public.h</text>
</a>
</g>
</g>
<!-- Node9&#45;&gt;Node10 -->
<g id="edge10" class="edge">
<title>Node9&#45;&gt;Node10</title>
<path fill="none" stroke="midnightblue" d="M363.97,-168.5C351.84,-155.99 332.92,-131.97 343,-112 349.81,-98.52 362.77,-88.08 375,-80.67"/>
<polygon fill="midnightblue" stroke="midnightblue" points="377.07,-83.52 384.09,-75.59 373.66,-77.41 377.07,-83.52"/>
</g>
<!-- Node13 -->
<g id="node13" class="node">
<title>Node13</title>
<g id="a_node13"><a xlink:href="../../dc/db2/system_8h.html" target="_top" xlink:title="System specific functions.">
<polygon fill="white" stroke="black" points="352,-112.5 352,-131.5 494,-131.5 494,-112.5 352,-112.5"/>
<text text-anchor="middle" x="423" y="-119.5" font-family="Helvetica,sans-Serif" font-size="10.00">ajabase/system/system.h</text>
</a>
</g>
</g>
<!-- Node9&#45;&gt;Node13 -->
<g id="edge17" class="edge">
<title>Node9&#45;&gt;Node13</title>
<path fill="none" stroke="midnightblue" d="M381.26,-168.08C388.46,-160.3 399.11,-148.8 407.85,-139.37"/>
<polygon fill="midnightblue" stroke="midnightblue" points="410.67,-141.47 414.9,-131.75 405.53,-136.71 410.67,-141.47"/>
</g>
<!-- Node10&#45;&gt;Node3 -->
<g id="edge11" class="edge">
<title>Node10&#45;&gt;Node3</title>
<path fill="none" stroke="midnightblue" d="M390.18,-56.32C376.77,-47.9 356.18,-34.97 340.41,-25.07"/>
<polygon fill="midnightblue" stroke="midnightblue" points="342.11,-22.01 331.78,-19.65 338.39,-27.94 342.11,-22.01"/>
</g>
<!-- Node10&#45;&gt;Node5 -->
<g id="edge12" class="edge">
<title>Node10&#45;&gt;Node5</title>
<path fill="none" stroke="midnightblue" d="M371.62,-56.47C339.91,-48.08 289.99,-34.75 237.77,-20.18"/>
<polygon fill="midnightblue" stroke="midnightblue" points="238.57,-16.77 228,-17.44 236.69,-23.51 238.57,-16.77"/>
</g>
<!-- Node10&#45;&gt;Node6 -->
<g id="edge14" class="edge">
<title>Node10&#45;&gt;Node6</title>
<path fill="none" stroke="midnightblue" d="M355.09,-56.45C310.75,-48.45 243.42,-35.73 175.73,-20.03"/>
<polygon fill="midnightblue" stroke="midnightblue" points="176.28,-16.57 165.74,-17.69 174.68,-23.38 176.28,-16.57"/>
</g>
<!-- Node10&#45;&gt;Node8 -->
<g id="edge16" class="edge">
<title>Node10&#45;&gt;Node8</title>
<path fill="none" stroke="midnightblue" d="M432.52,-56.44C463.07,-47.28 511.71,-32.69 545.6,-22.52"/>
<polygon fill="midnightblue" stroke="midnightblue" points="547.04,-25.74 555.61,-19.52 545.03,-19.04 547.04,-25.74"/>
</g>
<!-- Node11 -->
<g id="node11" class="node">
<title>Node11</title>
<g id="a_node11"><a xlink:title=" ">
<polygon fill="white" stroke="#bfbfbf" points="408,-0.5 408,-19.5 440,-19.5 440,-0.5 408,-0.5"/>
<text text-anchor="middle" x="424" y="-7.5" font-family="Helvetica,sans-Serif" font-size="10.00">list</text>
</a>
</g>
</g>
<!-- Node10&#45;&gt;Node11 -->
<g id="edge13" class="edge">
<title>Node10&#45;&gt;Node11</title>
<path fill="none" stroke="midnightblue" d="M407.3,-56.08C409.98,-48.85 413.85,-38.41 417.19,-29.4"/>
<polygon fill="midnightblue" stroke="midnightblue" points="420.57,-30.34 420.76,-19.75 414,-27.91 420.57,-30.34"/>
</g>
<!-- Node12 -->
<g id="node12" class="node">
<title>Node12</title>
<g id="a_node12"><a xlink:title=" ">
<polygon fill="white" stroke="#bfbfbf" points="458,-0.5 458,-19.5 496,-19.5 496,-0.5 458,-0.5"/>
<text text-anchor="middle" x="477" y="-7.5" font-family="Helvetica,sans-Serif" font-size="10.00">map</text>
</a>
</g>
</g>
<!-- Node10&#45;&gt;Node12 -->
<g id="edge15" class="edge">
<title>Node10&#45;&gt;Node12</title>
<path fill="none" stroke="midnightblue" d="M415.73,-56.32C426.84,-48.11 443.74,-35.6 456.98,-25.81"/>
<polygon fill="midnightblue" stroke="midnightblue" points="459.1,-28.59 465.06,-19.83 454.94,-22.97 459.1,-28.59"/>
</g>
<!-- Node13&#45;&gt;Node10 -->
<g id="edge18" class="edge">
<title>Node13&#45;&gt;Node10</title>
<path fill="none" stroke="midnightblue" d="M419.86,-112.08C417.32,-104.85 413.64,-94.41 410.47,-85.4"/>
<polygon fill="midnightblue" stroke="midnightblue" points="413.7,-84.02 407.08,-75.75 407.1,-86.35 413.7,-84.02"/>
</g>
</g>
</svg>
