<?xml version="1.0" encoding="UTF-8" standalone="no"?>
<!DOCTYPE svg PUBLIC "-//W3C//DTD SVG 1.1//EN"
 "http://www.w3.org/Graphics/SVG/1.1/DTD/svg11.dtd">
<!-- Generated by graphviz version 2.40.1 (0)
 -->
<!-- Title: /home/tcbuilder/buildAgent/work/df8e8cce5bebfd58/libajantv2/ajantv2/includes/ntv2registerexpert.h Pages: 1 -->
<svg width="1474pt" height="128pt"
 viewBox="0.00 0.00 1474.00 128.00" xmlns="http://www.w3.org/2000/svg" xmlns:xlink="http://www.w3.org/1999/xlink">
<g id="graph0" class="graph" transform="scale(1 1) rotate(0) translate(4 124)">
<title>/home/tcbuilder/buildAgent/work/df8e8cce5bebfd58/libajantv2/ajantv2/includes/ntv2registerexpert.h</title>
<polygon fill="#ffffff" stroke="transparent" points="-4,4 -4,-124 1470,-124 1470,4 -4,4"/>
<!-- Node21 -->
<g id="node1" class="node">
<title>Node21</title>
<polygon fill="#bfbfbf" stroke="#000000" points="645,-78.5 645,-119.5 824,-119.5 824,-78.5 645,-78.5"/>
<text text-anchor="start" x="653" y="-107.5" font-family="Helvetica,sans-Serif" font-size="10.00" fill="#000000">/home/tcbuilder/buildAgent</text>
<text text-anchor="start" x="653" y="-96.5" font-family="Helvetica,sans-Serif" font-size="10.00" fill="#000000">/work/df8e8cce5bebfd58/libajantv2</text>
<text text-anchor="middle" x="734.5" y="-85.5" font-family="Helvetica,sans-Serif" font-size="10.00" fill="#000000">/ajantv2/includes/ntv2registerexpert.h</text>
</g>
<!-- Node22 -->
<g id="node2" class="node">
<title>Node22</title>
<g id="a_node2"><a xlink:href="../../d2/d09/ntv2csclut_8cpp.html" target="_top" xlink:title="Implements most of CNTV2Card&#39;s CSC/LUT&#45;related functions. ">
<polygon fill="#ffffff" stroke="#000000" points="0,-.5 0,-41.5 167,-41.5 167,-.5 0,-.5"/>
<text text-anchor="start" x="8" y="-29.5" font-family="Helvetica,sans-Serif" font-size="10.00" fill="#000000">/home/tcbuilder/buildAgent</text>
<text text-anchor="start" x="8" y="-18.5" font-family="Helvetica,sans-Serif" font-size="10.00" fill="#000000">/work/df8e8cce5bebfd58/libajantv2</text>
<text text-anchor="middle" x="83.5" y="-7.5" font-family="Helvetica,sans-Serif" font-size="10.00" fill="#000000">/ajantv2/src/ntv2csclut.cpp</text>
</a>
</g>
</g>
<!-- Node21&#45;&gt;Node22 -->
<g id="edge1" class="edge">
<title>Node21&#45;&gt;Node22</title>
<path fill="none" stroke="#191970" d="M634.6977,-92.5375C522.4956,-84.4116 335.119,-68.2535 175.5,-42 172.7518,-41.548 169.9629,-41.0634 167.1508,-40.5526"/>
<polygon fill="#191970" stroke="#191970" points="634.7584,-96.0507 644.9832,-93.2751 635.2592,-89.0686 634.7584,-96.0507"/>
</g>
<!-- Node23 -->
<g id="node3" class="node">
<title>Node23</title>
<g id="a_node3"><a xlink:href="../../db/d4c/ntv2publicinterface_8cpp.html" target="_top" xlink:title="Implementations of methods declared in &#39;ntv2publicinterface.h&#39;. ">
<polygon fill="#ffffff" stroke="#000000" points="185,-.5 185,-41.5 356,-41.5 356,-.5 185,-.5"/>
<text text-anchor="start" x="193" y="-29.5" font-family="Helvetica,sans-Serif" font-size="10.00" fill="#000000">/home/tcbuilder/buildAgent</text>
<text text-anchor="start" x="193" y="-18.5" font-family="Helvetica,sans-Serif" font-size="10.00" fill="#000000">/work/df8e8cce5bebfd58/libajantv2</text>
<text text-anchor="middle" x="270.5" y="-7.5" font-family="Helvetica,sans-Serif" font-size="10.00" fill="#000000">/ajantv2/src/ntv2publicinterface.cpp</text>
</a>
</g>
</g>
<!-- Node21&#45;&gt;Node23 -->
<g id="edge2" class="edge">
<title>Node21&#45;&gt;Node23</title>
<path fill="none" stroke="#191970" d="M634.5432,-85.4496C559.9137,-74.8848 455.5423,-59.1624 364.5,-42 361.7065,-41.4734 358.8695,-40.9241 356.0071,-40.3575"/>
<polygon fill="#191970" stroke="#191970" points="634.4811,-88.9754 644.8718,-86.9058 635.4584,-82.044 634.4811,-88.9754"/>
</g>
<!-- Node24 -->
<g id="node4" class="node">
<title>Node24</title>
<g id="a_node4"><a xlink:href="../../d1/d1f/ntv2registerexpert_8cpp.html" target="_top" xlink:title="Implements the CNTV2RegisterExpert class. ">
<polygon fill="#ffffff" stroke="#000000" points="374,-.5 374,-41.5 541,-41.5 541,-.5 374,-.5"/>
<text text-anchor="start" x="382" y="-29.5" font-family="Helvetica,sans-Serif" font-size="10.00" fill="#000000">/home/tcbuilder/buildAgent</text>
<text text-anchor="start" x="382" y="-18.5" font-family="Helvetica,sans-Serif" font-size="10.00" fill="#000000">/work/df8e8cce5bebfd58/libajantv2</text>
<text text-anchor="middle" x="457.5" y="-7.5" font-family="Helvetica,sans-Serif" font-size="10.00" fill="#000000">/ajantv2/src/ntv2registerexpert.cpp</text>
</a>
</g>
</g>
<!-- Node21&#45;&gt;Node24 -->
<g id="edge3" class="edge">
<title>Node21&#45;&gt;Node24</title>
<path fill="none" stroke="#191970" d="M651.7252,-75.6916C613.2107,-64.8463 567.7963,-52.0582 530.57,-41.5757"/>
<polygon fill="#191970" stroke="#191970" points="650.7848,-79.0628 661.3592,-78.4044 652.6822,-72.3249 650.7848,-79.0628"/>
</g>
<!-- Node25 -->
<g id="node5" class="node">
<title>Node25</title>
<g id="a_node5"><a xlink:href="../../d4/d99/ntv2regroute_8cpp.html" target="_top" xlink:title="CNTV2Card widget routing function implementations. ">
<polygon fill="#ffffff" stroke="#000000" points="559,-.5 559,-41.5 726,-41.5 726,-.5 559,-.5"/>
<text text-anchor="start" x="567" y="-29.5" font-family="Helvetica,sans-Serif" font-size="10.00" fill="#000000">/home/tcbuilder/buildAgent</text>
<text text-anchor="start" x="567" y="-18.5" font-family="Helvetica,sans-Serif" font-size="10.00" fill="#000000">/work/df8e8cce5bebfd58/libajantv2</text>
<text text-anchor="middle" x="642.5" y="-7.5" font-family="Helvetica,sans-Serif" font-size="10.00" fill="#000000">/ajantv2/src/ntv2regroute.cpp</text>
</a>
</g>
</g>
<!-- Node21&#45;&gt;Node25 -->
<g id="edge4" class="edge">
<title>Node21&#45;&gt;Node25</title>
<path fill="none" stroke="#191970" d="M702.0785,-71.5122C690.5102,-61.7043 677.6833,-50.8293 666.9034,-41.6898"/>
<polygon fill="#191970" stroke="#191970" points="699.9547,-74.3002 709.8457,-78.0974 704.4815,-68.9609 699.9547,-74.3002"/>
</g>
<!-- Node26 -->
<g id="node6" class="node">
<title>Node26</title>
<g id="a_node6"><a xlink:href="../../de/dc8/ntv2signalrouter_8cpp.html" target="_top" xlink:title="CNTV2SignalRouter implementation. ">
<polygon fill="#ffffff" stroke="#000000" points="744,-.5 744,-41.5 911,-41.5 911,-.5 744,-.5"/>
<text text-anchor="start" x="752" y="-29.5" font-family="Helvetica,sans-Serif" font-size="10.00" fill="#000000">/home/tcbuilder/buildAgent</text>
<text text-anchor="start" x="752" y="-18.5" font-family="Helvetica,sans-Serif" font-size="10.00" fill="#000000">/work/df8e8cce5bebfd58/libajantv2</text>
<text text-anchor="middle" x="827.5" y="-7.5" font-family="Helvetica,sans-Serif" font-size="10.00" fill="#000000">/ajantv2/src/ntv2signalrouter.cpp</text>
</a>
</g>
</g>
<!-- Node21&#45;&gt;Node26 -->
<g id="edge5" class="edge">
<title>Node21&#45;&gt;Node26</title>
<path fill="none" stroke="#191970" d="M767.2739,-71.5122C778.968,-61.7043 791.9343,-50.8293 802.8314,-41.6898"/>
<polygon fill="#191970" stroke="#191970" points="764.8351,-68.9896 759.4223,-78.0974 769.3334,-74.353 764.8351,-68.9896"/>
</g>
<!-- Node27 -->
<g id="node7" class="node">
<title>Node27</title>
<g id="a_node7"><a xlink:href="../../dd/d5a/ntv2supportlogger_8cpp.html" target="_top" xlink:title="Implementation of CNTV2SupportLogger class. ">
<polygon fill="#ffffff" stroke="#000000" points="929,-.5 929,-41.5 1096,-41.5 1096,-.5 929,-.5"/>
<text text-anchor="start" x="937" y="-29.5" font-family="Helvetica,sans-Serif" font-size="10.00" fill="#000000">/home/tcbuilder/buildAgent</text>
<text text-anchor="start" x="937" y="-18.5" font-family="Helvetica,sans-Serif" font-size="10.00" fill="#000000">/work/df8e8cce5bebfd58/libajantv2</text>
<text text-anchor="middle" x="1012.5" y="-7.5" font-family="Helvetica,sans-Serif" font-size="10.00" fill="#000000">/ajantv2/src/ntv2supportlogger.cpp</text>
</a>
</g>
</g>
<!-- Node21&#45;&gt;Node27 -->
<g id="edge6" class="edge">
<title>Node21&#45;&gt;Node27</title>
<path fill="none" stroke="#191970" d="M817.5736,-75.6916C856.2272,-64.8463 901.8055,-52.0582 939.1662,-41.5757"/>
<polygon fill="#191970" stroke="#191970" points="816.5875,-72.333 807.9049,-78.4044 818.4786,-79.0728 816.5875,-72.333"/>
</g>
<!-- Node28 -->
<g id="node8" class="node">
<title>Node28</title>
<g id="a_node8"><a xlink:href="../../d6/d9b/ntv2utils_8cpp.html" target="_top" xlink:title="Implementations for the NTV2 utility functions. ">
<polygon fill="#ffffff" stroke="#000000" points="1114,-.5 1114,-41.5 1281,-41.5 1281,-.5 1114,-.5"/>
<text text-anchor="start" x="1122" y="-29.5" font-family="Helvetica,sans-Serif" font-size="10.00" fill="#000000">/home/tcbuilder/buildAgent</text>
<text text-anchor="start" x="1122" y="-18.5" font-family="Helvetica,sans-Serif" font-size="10.00" fill="#000000">/work/df8e8cce5bebfd58/libajantv2</text>
<text text-anchor="middle" x="1197.5" y="-7.5" font-family="Helvetica,sans-Serif" font-size="10.00" fill="#000000">/ajantv2/src/ntv2utils.cpp</text>
</a>
</g>
</g>
<!-- Node21&#45;&gt;Node28 -->
<g id="edge7" class="edge">
<title>Node21&#45;&gt;Node28</title>
<path fill="none" stroke="#191970" d="M834.376,-85.6424C909.2449,-75.148 1014.101,-59.4292 1105.5,-42 1108.2358,-41.4783 1111.014,-40.9333 1113.8168,-40.3703"/>
<polygon fill="#191970" stroke="#191970" points="833.4355,-82.2396 824.0152,-87.0881 834.403,-89.1724 833.4355,-82.2396"/>
</g>
<!-- Node29 -->
<g id="node9" class="node">
<title>Node29</title>
<g id="a_node9"><a xlink:href="../../d4/dd5/ntv2vpid_8cpp.html" target="_top" xlink:title="Implements the CNTV2VPID class. See the SMPTE 352 standard for details. ">
<polygon fill="#ffffff" stroke="#000000" points="1299,-.5 1299,-41.5 1466,-41.5 1466,-.5 1299,-.5"/>
<text text-anchor="start" x="1307" y="-29.5" font-family="Helvetica,sans-Serif" font-size="10.00" fill="#000000">/home/tcbuilder/buildAgent</text>
<text text-anchor="start" x="1307" y="-18.5" font-family="Helvetica,sans-Serif" font-size="10.00" fill="#000000">/work/df8e8cce5bebfd58/libajantv2</text>
<text text-anchor="middle" x="1382.5" y="-7.5" font-family="Helvetica,sans-Serif" font-size="10.00" fill="#000000">/ajantv2/src/ntv2vpid.cpp</text>
</a>
</g>
</g>
<!-- Node21&#45;&gt;Node29 -->
<g id="edge8" class="edge">
<title>Node21&#45;&gt;Node29</title>
<path fill="none" stroke="#191970" d="M834.256,-92.4658C945.9103,-84.2964 1131.968,-68.119 1290.5,-42 1293.2481,-41.5472 1296.0369,-41.062 1298.8488,-40.5506"/>
<polygon fill="#191970" stroke="#191970" points="833.7404,-88.9939 824.0196,-93.2076 834.2464,-95.9756 833.7404,-88.9939"/>
</g>
</g>
</svg>
