<?xml version="1.0" encoding="UTF-8" standalone="no"?>
<!DOCTYPE svg PUBLIC "-//W3C//DTD SVG 1.1//EN"
 "http://www.w3.org/Graphics/SVG/1.1/DTD/svg11.dtd">
<!-- Generated by graphviz version 2.43.0 (0)
 -->
<!-- Title: /home/tcbuilder/buildAgent/work/df8e8cce5bebfd58/libajantv2/ajantv2/includes/ntv2vpid.h Pages: 1 -->
<svg width="1258pt" height="274pt"
 viewBox="0.00 0.00 1257.95 274.00" xmlns="http://www.w3.org/2000/svg" xmlns:xlink="http://www.w3.org/1999/xlink">
<g id="graph0" class="graph" transform="scale(1 1) rotate(0) translate(4 270)">
<title>/home/tcbuilder/buildAgent/work/df8e8cce5bebfd58/libajantv2/ajantv2/includes/ntv2vpid.h</title>
<polygon fill="white" stroke="transparent" points="-4,4 -4,-270 1253.95,-270 1253.95,4 -4,4"/>
<!-- Node1 -->
<g id="node1" class="node">
<title>Node1</title>
<g id="a_node1"><a xlink:title="Declares the CNTV2VPID class. See SMPTE 352 standard for details.">
<polygon fill="#bfbfbf" stroke="black" points="288,-224.5 288,-265.5 476,-265.5 476,-224.5 288,-224.5"/>
<text text-anchor="start" x="296" y="-253.5" font-family="Helvetica,sans-Serif" font-size="10.00">/home/tcbuilder/buildAgent</text>
<text text-anchor="start" x="296" y="-242.5" font-family="Helvetica,sans-Serif" font-size="10.00">/work/df8e8cce5bebfd58/libajantv2</text>
<text text-anchor="middle" x="382" y="-231.5" font-family="Helvetica,sans-Serif" font-size="10.00">/ajantv2/includes/ntv2vpid.h</text>
</a>
</g>
</g>
<!-- Node2 -->
<g id="node2" class="node">
<title>Node2</title>
<g id="a_node2"><a xlink:href="../../d6/dd9/ajaexport_8h.html" target="_top" xlink:title="Defines the import/export macros for producing DLLs or LIBs.">
<polygon fill="white" stroke="black" points="0,-0.5 0,-19.5 72,-19.5 72,-0.5 0,-0.5"/>
<text text-anchor="middle" x="36" y="-7.5" font-family="Helvetica,sans-Serif" font-size="10.00">ajaexport.h</text>
</a>
</g>
</g>
<!-- Node1&#45;&gt;Node2 -->
<g id="edge1" class="edge">
<title>Node1&#45;&gt;Node2</title>
<path fill="none" stroke="midnightblue" d="M287.99,-238.81C209.63,-229.29 101,-203.11 38,-132 13.01,-103.79 22.06,-55.71 29.71,-29.45"/>
<polygon fill="midnightblue" stroke="midnightblue" points="33.13,-30.24 32.81,-19.65 26.46,-28.14 33.13,-30.24"/>
</g>
<!-- Node3 -->
<g id="node3" class="node">
<title>Node3</title>
<g id="a_node3"><a xlink:href="../../d4/dd7/ntv2publicinterface_8h.html" target="_top" xlink:title="Declares enums and structs used by all platform drivers and the SDK.">
<polygon fill="white" stroke="black" points="322,-168.5 322,-187.5 442,-187.5 442,-168.5 322,-168.5"/>
<text text-anchor="middle" x="382" y="-175.5" font-family="Helvetica,sans-Serif" font-size="10.00">ntv2publicinterface.h</text>
</a>
</g>
</g>
<!-- Node1&#45;&gt;Node3 -->
<g id="edge2" class="edge">
<title>Node1&#45;&gt;Node3</title>
<path fill="none" stroke="midnightblue" d="M382,-224.5C382,-216.07 382,-206.24 382,-197.87"/>
<polygon fill="midnightblue" stroke="midnightblue" points="385.5,-197.65 382,-187.65 378.5,-197.65 385.5,-197.65"/>
</g>
<!-- Node17 -->
<g id="node17" class="node">
<title>Node17</title>
<g id="a_node17"><a xlink:href="../../d4/d21/info_8h.html" target="_top" xlink:title="Declares the AJASystemInfo class.">
<polygon fill="white" stroke="black" points="879.5,-168.5 879.5,-187.5 1004.5,-187.5 1004.5,-168.5 879.5,-168.5"/>
<text text-anchor="middle" x="942" y="-175.5" font-family="Helvetica,sans-Serif" font-size="10.00">ajabase/system/info.h</text>
</a>
</g>
</g>
<!-- Node1&#45;&gt;Node17 -->
<g id="edge21" class="edge">
<title>Node1&#45;&gt;Node17</title>
<path fill="none" stroke="midnightblue" d="M476.05,-233.08C586.89,-220.22 768.68,-199.12 869.29,-187.44"/>
<polygon fill="midnightblue" stroke="midnightblue" points="869.84,-190.9 879.37,-186.27 869.03,-183.95 869.84,-190.9"/>
</g>
<!-- Node3&#45;&gt;Node2 -->
<g id="edge18" class="edge">
<title>Node3&#45;&gt;Node2</title>
<path fill="none" stroke="midnightblue" d="M321.69,-177C237.71,-175.65 91.71,-168.02 55,-132 27.64,-105.16 29.39,-56.13 32.82,-29.46"/>
<polygon fill="midnightblue" stroke="midnightblue" points="36.29,-29.94 34.31,-19.53 29.36,-28.9 36.29,-29.94"/>
</g>
<!-- Node4 -->
<g id="node4" class="node">
<title>Node4</title>
<g id="a_node4"><a xlink:href="../../db/de2/ajatypes_8h.html" target="_top" xlink:title="Declares the most fundamental data types used by NTV2. Since Windows NT was the first principal devel...">
<polygon fill="white" stroke="black" points="393,-56.5 393,-75.5 461,-75.5 461,-56.5 393,-56.5"/>
<text text-anchor="middle" x="427" y="-63.5" font-family="Helvetica,sans-Serif" font-size="10.00">ajatypes.h</text>
</a>
</g>
</g>
<!-- Node3&#45;&gt;Node4 -->
<g id="edge3" class="edge">
<title>Node3&#45;&gt;Node4</title>
<path fill="none" stroke="midnightblue" d="M373.94,-168.27C363.17,-155.48 346.57,-131.1 357,-112 364.82,-97.68 379.36,-87.24 393.18,-80.04"/>
<polygon fill="midnightblue" stroke="midnightblue" points="395.02,-83.03 402.53,-75.56 392,-76.72 395.02,-83.03"/>
</g>
<!-- Node6 -->
<g id="node6" class="node">
<title>Node6</title>
<g id="a_node6"><a xlink:href="../../d6/d0c/ntv2enums_8h.html" target="_top" xlink:title="Enumerations for controlling NTV2 devices.">
<polygon fill="white" stroke="black" points="578,-112.5 578,-131.5 658,-131.5 658,-112.5 578,-112.5"/>
<text text-anchor="middle" x="618" y="-119.5" font-family="Helvetica,sans-Serif" font-size="10.00">ntv2enums.h</text>
</a>
</g>
</g>
<!-- Node3&#45;&gt;Node6 -->
<g id="edge5" class="edge">
<title>Node3&#45;&gt;Node6</title>
<path fill="none" stroke="midnightblue" d="M419.39,-168.44C460.39,-159.06 526.25,-143.99 570.78,-133.8"/>
<polygon fill="midnightblue" stroke="midnightblue" points="571.81,-137.16 580.78,-131.52 570.25,-130.34 571.81,-137.16"/>
</g>
<!-- Node8 -->
<g id="node8" class="node">
<title>Node8</title>
<g id="a_node8"><a xlink:title=" ">
<polygon fill="white" stroke="#bfbfbf" points="820,-0.5 820,-19.5 864,-19.5 864,-0.5 820,-0.5"/>
<text text-anchor="middle" x="842" y="-7.5" font-family="Helvetica,sans-Serif" font-size="10.00">string</text>
</a>
</g>
</g>
<!-- Node3&#45;&gt;Node8 -->
<g id="edge14" class="edge">
<title>Node3&#45;&gt;Node8</title>
<path fill="none" stroke="midnightblue" d="M442.01,-173.85C514.77,-168.96 632,-157.34 667,-132 697.75,-109.74 677.16,-80.69 706,-56 735.66,-30.61 780.09,-19.43 810.02,-14.59"/>
<polygon fill="midnightblue" stroke="midnightblue" points="810.57,-18.05 819.95,-13.13 809.55,-11.12 810.57,-18.05"/>
</g>
<!-- Node9 -->
<g id="node9" class="node">
<title>Node9</title>
<g id="a_node9"><a xlink:title=" ">
<polygon fill="white" stroke="#bfbfbf" points="64,-112.5 64,-131.5 124,-131.5 124,-112.5 64,-112.5"/>
<text text-anchor="middle" x="94" y="-119.5" font-family="Helvetica,sans-Serif" font-size="10.00">iostream</text>
</a>
</g>
</g>
<!-- Node3&#45;&gt;Node9 -->
<g id="edge10" class="edge">
<title>Node3&#45;&gt;Node9</title>
<path fill="none" stroke="midnightblue" d="M330.84,-168.49C282.57,-160.3 207.95,-147.21 134.14,-132.16"/>
<polygon fill="midnightblue" stroke="midnightblue" points="134.7,-128.7 124.2,-130.12 133.29,-135.56 134.7,-128.7"/>
</g>
<!-- Node10 -->
<g id="node10" class="node">
<title>Node10</title>
<g id="a_node10"><a xlink:title=" ">
<polygon fill="white" stroke="#bfbfbf" points="142,-112.5 142,-131.5 174,-131.5 174,-112.5 142,-112.5"/>
<text text-anchor="middle" x="158" y="-119.5" font-family="Helvetica,sans-Serif" font-size="10.00">set</text>
</a>
</g>
</g>
<!-- Node3&#45;&gt;Node10 -->
<g id="edge11" class="edge">
<title>Node3&#45;&gt;Node10</title>
<path fill="none" stroke="midnightblue" d="M336.94,-168.46C298.48,-160.8 241.59,-148.61 183.71,-131.93"/>
<polygon fill="midnightblue" stroke="midnightblue" points="184.62,-128.55 174.04,-129.1 182.66,-135.27 184.62,-128.55"/>
</g>
<!-- Node11 -->
<g id="node11" class="node">
<title>Node11</title>
<g id="a_node11"><a xlink:title=" ">
<polygon fill="white" stroke="#bfbfbf" points="1188,-56.5 1188,-75.5 1226,-75.5 1226,-56.5 1188,-56.5"/>
<text text-anchor="middle" x="1207" y="-63.5" font-family="Helvetica,sans-Serif" font-size="10.00">map</text>
</a>
</g>
</g>
<!-- Node3&#45;&gt;Node11 -->
<g id="edge12" class="edge">
<title>Node3&#45;&gt;Node11</title>
<path fill="none" stroke="midnightblue" d="M442.25,-174.9C579.58,-169.78 912.37,-155.31 1022,-132 1047.44,-126.59 1052.49,-120.7 1077,-112 1111.57,-99.73 1151.46,-85.98 1177.84,-76.95"/>
<polygon fill="midnightblue" stroke="midnightblue" points="1179.26,-80.16 1187.59,-73.62 1176.99,-73.54 1179.26,-80.16"/>
</g>
<!-- Node12 -->
<g id="node12" class="node">
<title>Node12</title>
<g id="a_node12"><a xlink:title=" ">
<polygon fill="white" stroke="#bfbfbf" points="714.5,-56.5 714.5,-75.5 761.5,-75.5 761.5,-56.5 714.5,-56.5"/>
<text text-anchor="middle" x="738" y="-63.5" font-family="Helvetica,sans-Serif" font-size="10.00">vector</text>
</a>
</g>
</g>
<!-- Node3&#45;&gt;Node12 -->
<g id="edge13" class="edge">
<title>Node3&#45;&gt;Node12</title>
<path fill="none" stroke="midnightblue" d="M442.11,-174.66C522.31,-170.52 658.97,-159.54 700,-132 716.24,-121.1 726.48,-100.72 732.19,-85.68"/>
<polygon fill="midnightblue" stroke="midnightblue" points="735.61,-86.48 735.56,-75.88 728.99,-84.2 735.61,-86.48"/>
</g>
<!-- Node13 -->
<g id="node13" class="node">
<title>Node13</title>
<g id="a_node13"><a xlink:title=" ">
<polygon fill="white" stroke="#bfbfbf" points="192,-112.5 192,-131.5 248,-131.5 248,-112.5 192,-112.5"/>
<text text-anchor="middle" x="220" y="-119.5" font-family="Helvetica,sans-Serif" font-size="10.00">iomanip</text>
</a>
</g>
</g>
<!-- Node3&#45;&gt;Node13 -->
<g id="edge15" class="edge">
<title>Node3&#45;&gt;Node13</title>
<path fill="none" stroke="midnightblue" d="M356.33,-168.44C329.08,-159.36 285.82,-144.94 255.35,-134.78"/>
<polygon fill="midnightblue" stroke="midnightblue" points="256.14,-131.36 245.55,-131.52 253.93,-138 256.14,-131.36"/>
</g>
<!-- Node14 -->
<g id="node14" class="node">
<title>Node14</title>
<g id="a_node14"><a xlink:title=" ">
<polygon fill="white" stroke="#bfbfbf" points="266,-112.5 266,-131.5 310,-131.5 310,-112.5 266,-112.5"/>
<text text-anchor="middle" x="288" y="-119.5" font-family="Helvetica,sans-Serif" font-size="10.00">bitset</text>
</a>
</g>
</g>
<!-- Node3&#45;&gt;Node14 -->
<g id="edge16" class="edge">
<title>Node3&#45;&gt;Node14</title>
<path fill="none" stroke="midnightblue" d="M366.9,-168.32C352.1,-159.82 329.31,-146.73 312.02,-136.8"/>
<polygon fill="midnightblue" stroke="midnightblue" points="313.48,-133.6 303.07,-131.65 309.99,-139.67 313.48,-133.6"/>
</g>
<!-- Node15 -->
<g id="node15" class="node">
<title>Node15</title>
<g id="a_node15"><a xlink:title=" ">
<polygon fill="white" stroke="#bfbfbf" points="506.5,-112.5 506.5,-131.5 559.5,-131.5 559.5,-112.5 506.5,-112.5"/>
<text text-anchor="middle" x="533" y="-119.5" font-family="Helvetica,sans-Serif" font-size="10.00">string.h</text>
</a>
</g>
</g>
<!-- Node3&#45;&gt;Node15 -->
<g id="edge17" class="edge">
<title>Node3&#45;&gt;Node15</title>
<path fill="none" stroke="midnightblue" d="M405.93,-168.44C431.22,-159.4 471.3,-145.06 499.68,-134.92"/>
<polygon fill="midnightblue" stroke="midnightblue" points="500.95,-138.18 509.19,-131.52 498.59,-131.59 500.95,-138.18"/>
</g>
<!-- Node16 -->
<g id="node16" class="node">
<title>Node16</title>
<g id="a_node16"><a xlink:href="../../da/df0/ntv2virtualregisters_8h.html" target="_top" xlink:title="Declares enums for virtual registers used in all platform drivers and the SDK.">
<polygon fill="white" stroke="black" points="366,-112.5 366,-131.5 488,-131.5 488,-112.5 366,-112.5"/>
<text text-anchor="middle" x="427" y="-119.5" font-family="Helvetica,sans-Serif" font-size="10.00">ntv2virtualregisters.h</text>
</a>
</g>
</g>
<!-- Node3&#45;&gt;Node16 -->
<g id="edge19" class="edge">
<title>Node3&#45;&gt;Node16</title>
<path fill="none" stroke="midnightblue" d="M389.43,-168.08C395.85,-160.38 405.31,-149.03 413.12,-139.65"/>
<polygon fill="midnightblue" stroke="midnightblue" points="415.99,-141.67 419.71,-131.75 410.62,-137.19 415.99,-141.67"/>
</g>
<!-- Node5 -->
<g id="node5" class="node">
<title>Node5</title>
<g id="a_node5"><a xlink:title=" ">
<polygon fill="white" stroke="#bfbfbf" points="400.5,-0.5 400.5,-19.5 453.5,-19.5 453.5,-0.5 400.5,-0.5"/>
<text text-anchor="middle" x="427" y="-7.5" font-family="Helvetica,sans-Serif" font-size="10.00">stdint.h</text>
</a>
</g>
</g>
<!-- Node4&#45;&gt;Node5 -->
<g id="edge4" class="edge">
<title>Node4&#45;&gt;Node5</title>
<path fill="none" stroke="midnightblue" d="M427,-56.08C427,-49.01 427,-38.86 427,-29.99"/>
<polygon fill="midnightblue" stroke="midnightblue" points="430.5,-29.75 427,-19.75 423.5,-29.75 430.5,-29.75"/>
</g>
<!-- Node6&#45;&gt;Node4 -->
<g id="edge6" class="edge">
<title>Node6&#45;&gt;Node4</title>
<path fill="none" stroke="midnightblue" d="M587.74,-112.44C555.04,-103.2 502.82,-88.44 466.82,-78.26"/>
<polygon fill="midnightblue" stroke="midnightblue" points="467.7,-74.87 457.12,-75.52 465.79,-81.61 467.7,-74.87"/>
</g>
<!-- Node7 -->
<g id="node7" class="node">
<title>Node7</title>
<g id="a_node7"><a xlink:href="../../d6/db1/ntv2version_8h.html" target="_top" xlink:title="Defines for the NTV2 SDK version number, used by ajantv2/includes/ntv2enums.h. See the ajantv2/includ...">
<polygon fill="white" stroke="black" points="574.5,-56.5 574.5,-75.5 657.5,-75.5 657.5,-56.5 574.5,-56.5"/>
<text text-anchor="middle" x="616" y="-63.5" font-family="Helvetica,sans-Serif" font-size="10.00">ntv2version.h</text>
</a>
</g>
</g>
<!-- Node6&#45;&gt;Node7 -->
<g id="edge7" class="edge">
<title>Node6&#45;&gt;Node7</title>
<path fill="none" stroke="midnightblue" d="M617.67,-112.08C617.41,-105.01 617.03,-94.86 616.7,-85.99"/>
<polygon fill="midnightblue" stroke="midnightblue" points="620.19,-85.61 616.32,-75.75 613.2,-85.87 620.19,-85.61"/>
</g>
<!-- Node7&#45;&gt;Node2 -->
<g id="edge8" class="edge">
<title>Node7&#45;&gt;Node2</title>
<path fill="none" stroke="midnightblue" d="M574.29,-61.12C468.86,-51.3 192.28,-25.55 82.18,-15.3"/>
<polygon fill="midnightblue" stroke="midnightblue" points="82.34,-11.8 72.06,-14.36 81.69,-18.77 82.34,-11.8"/>
</g>
<!-- Node7&#45;&gt;Node8 -->
<g id="edge9" class="edge">
<title>Node7&#45;&gt;Node8</title>
<path fill="none" stroke="midnightblue" d="M651.81,-56.44C695.3,-46.05 768,-28.68 809.79,-18.7"/>
<polygon fill="midnightblue" stroke="midnightblue" points="810.8,-22.05 819.72,-16.32 809.18,-15.24 810.8,-22.05"/>
</g>
<!-- Node16&#45;&gt;Node4 -->
<g id="edge20" class="edge">
<title>Node16&#45;&gt;Node4</title>
<path fill="none" stroke="midnightblue" d="M427,-112.08C427,-105.01 427,-94.86 427,-85.99"/>
<polygon fill="midnightblue" stroke="midnightblue" points="430.5,-85.75 427,-75.75 423.5,-85.75 430.5,-85.75"/>
</g>
<!-- Node17&#45;&gt;Node8 -->
<g id="edge31" class="edge">
<title>Node17&#45;&gt;Node8</title>
<path fill="none" stroke="midnightblue" d="M1004.68,-172.54C1110.01,-162.81 1304.52,-133.93 1235,-56 1211.09,-29.19 963.71,-16.14 874.15,-12.27"/>
<polygon fill="midnightblue" stroke="midnightblue" points="874.17,-8.77 864.03,-11.85 873.88,-15.76 874.17,-8.77"/>
</g>
<!-- Node17&#45;&gt;Node11 -->
<g id="edge30" class="edge">
<title>Node17&#45;&gt;Node11</title>
<path fill="none" stroke="midnightblue" d="M971.67,-168.44C999.32,-160.15 1041.51,-146.7 1077,-132 1114.83,-116.33 1156.93,-94.41 1182.69,-80.46"/>
<polygon fill="midnightblue" stroke="midnightblue" points="1184.62,-83.39 1191.72,-75.53 1181.27,-77.25 1184.62,-83.39"/>
</g>
<!-- Node17&#45;&gt;Node12 -->
<g id="edge29" class="edge">
<title>Node17&#45;&gt;Node12</title>
<path fill="none" stroke="midnightblue" d="M925.99,-168.37C890.54,-149.25 805.19,-103.23 762.78,-80.36"/>
<polygon fill="midnightblue" stroke="midnightblue" points="764.4,-77.26 753.93,-75.59 761.07,-83.42 764.4,-77.26"/>
</g>
<!-- Node18 -->
<g id="node18" class="node">
<title>Node18</title>
<g id="a_node18"><a xlink:href="../../d4/d79/public_8h.html" target="_top" xlink:title="Master header for the ajabase library.">
<polygon fill="white" stroke="black" points="871,-112.5 871,-131.5 1013,-131.5 1013,-112.5 871,-112.5"/>
<text text-anchor="middle" x="942" y="-119.5" font-family="Helvetica,sans-Serif" font-size="10.00">ajabase/common/public.h</text>
</a>
</g>
</g>
<!-- Node17&#45;&gt;Node18 -->
<g id="edge22" class="edge">
<title>Node17&#45;&gt;Node18</title>
<path fill="none" stroke="midnightblue" d="M942,-168.08C942,-161.01 942,-150.86 942,-141.99"/>
<polygon fill="midnightblue" stroke="midnightblue" points="945.5,-141.75 942,-131.75 938.5,-141.75 945.5,-141.75"/>
</g>
<!-- Node18&#45;&gt;Node8 -->
<g id="edge24" class="edge">
<title>Node18&#45;&gt;Node8</title>
<path fill="none" stroke="midnightblue" d="M953.22,-112.43C968.58,-99.65 992.78,-75.04 979,-56 955.26,-23.21 906.84,-13.89 874.4,-11.47"/>
<polygon fill="midnightblue" stroke="midnightblue" points="874.25,-7.96 864.07,-10.89 873.85,-14.95 874.25,-7.96"/>
</g>
<!-- Node18&#45;&gt;Node11 -->
<g id="edge27" class="edge">
<title>Node18&#45;&gt;Node11</title>
<path fill="none" stroke="midnightblue" d="M997.5,-112.45C1043.53,-104.91 1110.84,-92.85 1177.92,-76.03"/>
<polygon fill="midnightblue" stroke="midnightblue" points="1178.98,-79.37 1187.81,-73.51 1177.26,-72.59 1178.98,-79.37"/>
</g>
<!-- Node18&#45;&gt;Node12 -->
<g id="edge26" class="edge">
<title>Node18&#45;&gt;Node12</title>
<path fill="none" stroke="midnightblue" d="M909.2,-112.46C876.7,-103.98 825.28,-90.51 771.5,-76.12"/>
<polygon fill="midnightblue" stroke="midnightblue" points="772.35,-72.72 761.79,-73.51 770.54,-79.48 772.35,-72.72"/>
</g>
<!-- Node19 -->
<g id="node19" class="node">
<title>Node19</title>
<g id="a_node19"><a xlink:href="../../db/db5/export_8h.html" target="_top" xlink:title="Declares system&#45;dependent import/export macros and libraries.">
<polygon fill="white" stroke="black" points="1026,-56.5 1026,-75.5 1170,-75.5 1170,-56.5 1026,-56.5"/>
<text text-anchor="middle" x="1098" y="-63.5" font-family="Helvetica,sans-Serif" font-size="10.00">ajabase/common/export.h</text>
</a>
</g>
</g>
<!-- Node18&#45;&gt;Node19 -->
<g id="edge23" class="edge">
<title>Node18&#45;&gt;Node19</title>
<path fill="none" stroke="midnightblue" d="M966.72,-112.44C992.85,-103.4 1034.26,-89.06 1063.58,-78.92"/>
<polygon fill="midnightblue" stroke="midnightblue" points="1065.09,-82.1 1073.4,-75.52 1062.8,-75.48 1065.09,-82.1"/>
</g>
<!-- Node20 -->
<g id="node20" class="node">
<title>Node20</title>
<g id="a_node20"><a xlink:title=" ">
<polygon fill="white" stroke="#bfbfbf" points="780,-56.5 780,-75.5 812,-75.5 812,-56.5 780,-56.5"/>
<text text-anchor="middle" x="796" y="-63.5" font-family="Helvetica,sans-Serif" font-size="10.00">list</text>
</a>
</g>
</g>
<!-- Node18&#45;&gt;Node20 -->
<g id="edge25" class="edge">
<title>Node18&#45;&gt;Node20</title>
<path fill="none" stroke="midnightblue" d="M918.87,-112.44C892.49,-102.69 849.46,-86.77 821.96,-76.6"/>
<polygon fill="midnightblue" stroke="midnightblue" points="822.84,-73.19 812.24,-73.01 820.41,-79.76 822.84,-73.19"/>
</g>
<!-- Node21 -->
<g id="node21" class="node">
<title>Node21</title>
<g id="a_node21"><a xlink:href="../../d9/d49/types_8h.html" target="_top" xlink:title="Declares common types used in the ajabase library.">
<polygon fill="white" stroke="black" points="830,-56.5 830,-75.5 970,-75.5 970,-56.5 830,-56.5"/>
<text text-anchor="middle" x="900" y="-63.5" font-family="Helvetica,sans-Serif" font-size="10.00">ajabase/common/types.h</text>
</a>
</g>
</g>
<!-- Node18&#45;&gt;Node21 -->
<g id="edge28" class="edge">
<title>Node18&#45;&gt;Node21</title>
<path fill="none" stroke="midnightblue" d="M935.06,-112.08C929.07,-104.38 920.25,-93.03 912.95,-83.65"/>
<polygon fill="midnightblue" stroke="midnightblue" points="915.71,-81.5 906.81,-75.75 910.18,-85.79 915.71,-81.5"/>
</g>
</g>
</svg>
