<?xml version="1.0" encoding="UTF-8" standalone="no"?>
<!DOCTYPE svg PUBLIC "-//W3C//DTD SVG 1.1//EN"
 "http://www.w3.org/Graphics/SVG/1.1/DTD/svg11.dtd">
<!-- Generated by graphviz version 2.40.1 (0)
 -->
<!-- Title: /home/tcbuilder/buildAgent/work/df8e8cce5bebfd58/libajantv2/ajaanc/src/ancillarylist.cpp Pages: 1 -->
<!--zoomable 386 -->
<svg id="main" version="1.1" xmlns="http://www.w3.org/2000/svg" xmlns:xlink="http://www.w3.org/1999/xlink" xml:space="preserve" onload="init(evt)">
<style type="text/css"><![CDATA[
.edge:hover path { stroke: red; }
.edge:hover polygon { stroke: red; fill: red; }
]]></style>
<script type="text/javascript"><![CDATA[
var edges = document.getElementsByTagName('g');
if (edges && edges.length) {
  for (var i=0;i<edges.length;i++) {
    if (edges[i].id.substr(0,4)=='edge') {
      edges[i].setAttribute('class','edge');
    }
  }
}
]]></script>
        <defs>
                <circle id="rim" cx="0" cy="0" r="7"/>
                <circle id="rim2" cx="0" cy="0" r="3.5"/>
                <g id="zoomPlus">
                        <use xlink:href="#rim" fill="#404040">
                                <set attributeName="fill" to="#808080" begin="zoomplus.mouseover" end="zoomplus.mouseout"/>
                        </use>
                        <path d="M-4,0h8M0,-4v8" fill="none" stroke="white" stroke-width="1.5" pointer-events="none"/>
                </g>
                <g id="zoomMin">
                        <use xlink:href="#rim" fill="#404040">
                                <set attributeName="fill" to="#808080" begin="zoomminus.mouseover" end="zoomminus.mouseout"/>
                        </use>
                        <path d="M-4,0h8" fill="none" stroke="white" stroke-width="1.5" pointer-events="none"/>
                </g>
                <g id="dirArrow">
                        <path fill="none" stroke="white" stroke-width="1.5" d="M0,-3.0v7 M-2.5,-0.5L0,-3.0L2.5,-0.5"/>
                </g>
               <g id="resetDef">
                       <use xlink:href="#rim2" fill="#404040">
                               <set attributeName="fill" to="#808080" begin="reset.mouseover" end="reset.mouseout"/>
                       </use>
               </g>
        </defs>

<script type="text/javascript">
var viewWidth = 1661;
var viewHeight = 386;
var sectionId = 'dynsection-0';
</script>
<script xlink:href="../../svgpan.js"/>
<svg id="graph" class="graph">
<g id="viewport">
<title>/home/tcbuilder/buildAgent/work/df8e8cce5bebfd58/libajantv2/ajaanc/src/ancillarylist.cpp</title>
<polygon fill="#ffffff" stroke="transparent" points="-4,4 -4,-382 1657,-382 1657,4 -4,4"/>
<!-- Node0 -->
<g id="node1" class="node">
<title>Node0</title>
<polygon fill="#bfbfbf" stroke="#000000" points="1108.5,-336.5 1108.5,-377.5 1275.5,-377.5 1275.5,-336.5 1108.5,-336.5"/>
<text text-anchor="start" x="1116.5" y="-365.5" font-family="Helvetica,sans-Serif" font-size="10.00" fill="#000000">/home/tcbuilder/buildAgent</text>
<text text-anchor="start" x="1116.5" y="-354.5" font-family="Helvetica,sans-Serif" font-size="10.00" fill="#000000">/work/df8e8cce5bebfd58/libajantv2</text>
<text text-anchor="middle" x="1192" y="-343.5" font-family="Helvetica,sans-Serif" font-size="10.00" fill="#000000">/ajaanc/src/ancillarylist.cpp</text>
</g>
<!-- Node1 -->
<g id="node2" class="node">
<title>Node1</title>
<g id="a_node2"><a xlink:href="../../d6/dc0/ancillarylist_8h.html" target="_top" xlink:title="Declares the AJAAncillaryList class. ">
<polygon fill="#ffffff" stroke="#000000" points="1019,-280.5 1019,-299.5 1093,-299.5 1093,-280.5 1019,-280.5"/>
<text text-anchor="middle" x="1056" y="-287.5" font-family="Helvetica,sans-Serif" font-size="10.00" fill="#000000">ancillarylist.h</text>
</a>
</g>
</g>
<!-- Node0&#45;&gt;Node1 -->
<g id="edge1" class="edge">
<title>Node0&#45;&gt;Node1</title>
<path fill="none" stroke="#191970" d="M1150.0858,-336.3511C1128.854,-325.8913 1103.6231,-313.4614 1084.6366,-304.1077"/>
<polygon fill="#191970" stroke="#191970" points="1086.1148,-300.9343 1075.5975,-299.6546 1083.0212,-307.2137 1086.1148,-300.9343"/>
</g>
<!-- Node22 -->
<g id="node23" class="node">
<title>Node22</title>
<g id="a_node23"><a xlink:href="../../df/d78/ancillarydatafactory_8h.html" target="_top" xlink:title="Declaration of the AJAAncillaryDataFactory class. ">
<polygon fill="#ffffff" stroke="#000000" points="891.5,-280.5 891.5,-299.5 1000.5,-299.5 1000.5,-280.5 891.5,-280.5"/>
<text text-anchor="middle" x="946" y="-287.5" font-family="Helvetica,sans-Serif" font-size="10.00" fill="#000000">ancillarydatafactory.h</text>
</a>
</g>
</g>
<!-- Node0&#45;&gt;Node22 -->
<g id="edge40" class="edge">
<title>Node0&#45;&gt;Node22</title>
<path fill="none" stroke="#191970" d="M1116.5201,-336.4425C1075.3851,-325.239 1025.871,-311.7535 990.8215,-302.2075"/>
<polygon fill="#191970" stroke="#191970" points="991.4551,-298.7526 980.8868,-299.5017 989.6155,-305.5066 991.4551,-298.7526"/>
</g>
<!-- Node23 -->
<g id="node24" class="node">
<title>Node23</title>
<g id="a_node24"><a xlink:href="../../db/d16/debug_8h.html" target="_top" xlink:title="Declares the AJADebug class. ">
<polygon fill="#ffffff" stroke="#000000" points="1193.5,-224.5 1193.5,-243.5 1316.5,-243.5 1316.5,-224.5 1193.5,-224.5"/>
<text text-anchor="middle" x="1255" y="-231.5" font-family="Helvetica,sans-Serif" font-size="10.00" fill="#000000">ajabase/system/debug.h</text>
</a>
</g>
</g>
<!-- Node0&#45;&gt;Node23 -->
<g id="edge42" class="edge">
<title>Node0&#45;&gt;Node23</title>
<path fill="none" stroke="#191970" d="M1194.1461,-336.3256C1196.499,-320.1845 1201.3173,-297.6172 1211,-280 1217.1131,-268.8775 1226.5964,-258.4769 1235.1959,-250.3888"/>
<polygon fill="#191970" stroke="#191970" points="1237.6024,-252.9321 1242.7228,-243.6567 1232.9358,-247.7145 1237.6024,-252.9321"/>
</g>
<!-- Node30 -->
<g id="node31" class="node">
<title>Node30</title>
<g id="a_node31"><a xlink:href="../../d0/d81/ntv2utils_8h.html" target="_top" xlink:title="Declares numerous NTV2 utility functions. ">
<polygon fill="#ffffff" stroke="#000000" points="373.5,-280.5 373.5,-299.5 508.5,-299.5 508.5,-280.5 373.5,-280.5"/>
<text text-anchor="middle" x="441" y="-287.5" font-family="Helvetica,sans-Serif" font-size="10.00" fill="#000000">ajantv2/includes/ntv2utils.h</text>
</a>
</g>
</g>
<!-- Node0&#45;&gt;Node30 -->
<g id="edge59" class="edge">
<title>Node0&#45;&gt;Node30</title>
<path fill="none" stroke="#191970" d="M1108.3989,-349.5416C961.9989,-336.4806 661.2816,-309.6523 518.9567,-296.9549"/>
<polygon fill="#191970" stroke="#191970" points="518.8457,-293.4311 508.5742,-296.0286 518.2236,-300.4034 518.8457,-293.4311"/>
</g>
<!-- Node33 -->
<g id="node34" class="node">
<title>Node33</title>
<g id="a_node34"><a xlink:href="../../dd/d02/atomic_8h.html" target="_top" xlink:title="Declares the AJAAtomic class. ">
<polygon fill="#ffffff" stroke="#000000" points="1220,-280.5 1220,-299.5 1346,-299.5 1346,-280.5 1220,-280.5"/>
<text text-anchor="middle" x="1283" y="-287.5" font-family="Helvetica,sans-Serif" font-size="10.00" fill="#000000">ajabase/system/atomic.h</text>
</a>
</g>
</g>
<!-- Node0&#45;&gt;Node33 -->
<g id="edge71" class="edge">
<title>Node0&#45;&gt;Node33</title>
<path fill="none" stroke="#191970" d="M1220.2941,-336.168C1233.5611,-326.4001 1249.1168,-314.9469 1261.4156,-305.8918"/>
<polygon fill="#191970" stroke="#191970" points="1263.7384,-308.528 1269.7161,-299.7805 1259.5881,-302.891 1263.7384,-308.528"/>
</g>
<!-- Node34 -->
<g id="node35" class="node">
<title>Node34</title>
<g id="a_node35"><a xlink:href="../../dd/d42/lock_8h.html" target="_top" xlink:title="Declares the AJALock class. ">
<polygon fill="#ffffff" stroke="#000000" points="1373.5,-224.5 1373.5,-243.5 1488.5,-243.5 1488.5,-224.5 1373.5,-224.5"/>
<text text-anchor="middle" x="1431" y="-231.5" font-family="Helvetica,sans-Serif" font-size="10.00" fill="#000000">ajabase/system/lock.h</text>
</a>
</g>
</g>
<!-- Node0&#45;&gt;Node34 -->
<g id="edge73" class="edge">
<title>Node0&#45;&gt;Node34</title>
<path fill="none" stroke="#191970" d="M1269.6891,-336.4623C1297.6083,-327.3928 1328.6807,-315.2709 1355,-300 1377.9563,-286.6803 1400.4233,-265.9354 1414.9019,-251.2635"/>
<polygon fill="#191970" stroke="#191970" points="1417.6546,-253.4511 1422.0761,-243.8229 1412.6155,-248.5924 1417.6546,-253.4511"/>
</g>
<!-- Node36 -->
<g id="node37" class="node">
<title>Node36</title>
<polygon fill="#ffffff" stroke="#bfbfbf" points="1402,-280.5 1402,-299.5 1458,-299.5 1458,-280.5 1402,-280.5"/>
<text text-anchor="middle" x="1430" y="-287.5" font-family="Helvetica,sans-Serif" font-size="10.00" fill="#000000">algorithm</text>
</g>
<!-- Node0&#45;&gt;Node36 -->
<g id="edge76" class="edge">
<title>Node0&#45;&gt;Node36</title>
<path fill="none" stroke="#191970" d="M1265.0253,-336.4425C1306.8807,-324.6596 1357.703,-310.3525 1391.7819,-300.7589"/>
<polygon fill="#191970" stroke="#191970" points="1393.1147,-304.0198 1401.7921,-297.9409 1391.2178,-297.2817 1393.1147,-304.0198"/>
</g>
<!-- Node2 -->
<g id="node3" class="node">
<title>Node2</title>
<g id="a_node3"><a xlink:href="../../d7/d92/ancillarydata_8h.html" target="_top" xlink:title="Declares the AJAAncillaryData class. ">
<polygon fill="#ffffff" stroke="#000000" points="927,-224.5 927,-243.5 1007,-243.5 1007,-224.5 927,-224.5"/>
<text text-anchor="middle" x="967" y="-231.5" font-family="Helvetica,sans-Serif" font-size="10.00" fill="#000000">ancillarydata.h</text>
</a>
</g>
</g>
<!-- Node1&#45;&gt;Node2 -->
<g id="edge2" class="edge">
<title>Node1&#45;&gt;Node2</title>
<path fill="none" stroke="#191970" d="M1040.4974,-280.2455C1026.842,-271.6534 1006.7343,-259.0014 991.0011,-249.1018"/>
<polygon fill="#191970" stroke="#191970" points="992.6529,-246.006 982.325,-243.6427 988.9249,-251.9307 992.6529,-246.006"/>
</g>
<!-- Node13 -->
<g id="node14" class="node">
<title>Node13</title>
<polygon fill="#ffffff" stroke="#bfbfbf" points="893,-112.5 893,-131.5 923,-131.5 923,-112.5 893,-112.5"/>
<text text-anchor="middle" x="908" y="-119.5" font-family="Helvetica,sans-Serif" font-size="10.00" fill="#000000">set</text>
</g>
<!-- Node1&#45;&gt;Node13 -->
<g id="edge38" class="edge">
<title>Node1&#45;&gt;Node13</title>
<path fill="none" stroke="#191970" d="M1020.9571,-280.4848C982.2758,-269.6495 924.568,-252.3688 918,-244 894.9244,-214.5976 898.8354,-168.0126 903.5441,-141.7318"/>
<polygon fill="#191970" stroke="#191970" points="906.9969,-142.3144 905.5346,-131.821 900.1339,-140.936 906.9969,-142.3144"/>
</g>
<!-- Node14 -->
<g id="node15" class="node">
<title>Node14</title>
<polygon fill="#ffffff" stroke="#bfbfbf" points="1041.5,-112.5 1041.5,-131.5 1076.5,-131.5 1076.5,-112.5 1041.5,-112.5"/>
<text text-anchor="middle" x="1059" y="-119.5" font-family="Helvetica,sans-Serif" font-size="10.00" fill="#000000">map</text>
</g>
<!-- Node1&#45;&gt;Node14 -->
<g id="edge37" class="edge">
<title>Node1&#45;&gt;Node14</title>
<path fill="none" stroke="#191970" d="M1068.1749,-280.3002C1087.7771,-263.809 1125.5911,-228.1625 1140,-188 1143.0017,-179.6333 1144.4718,-175.6821 1140,-168 1133.8972,-157.516 1107.1294,-143.5221 1086.0131,-133.7326"/>
<polygon fill="#191970" stroke="#191970" points="1087.3562,-130.4987 1076.8032,-129.5583 1084.4665,-136.8744 1087.3562,-130.4987"/>
</g>
<!-- Node15 -->
<g id="node16" class="node">
<title>Node15</title>
<polygon fill="#ffffff" stroke="#bfbfbf" points="941,-112.5 941,-131.5 985,-131.5 985,-112.5 941,-112.5"/>
<text text-anchor="middle" x="963" y="-119.5" font-family="Helvetica,sans-Serif" font-size="10.00" fill="#000000">vector</text>
</g>
<!-- Node1&#45;&gt;Node15 -->
<g id="edge39" class="edge">
<title>Node1&#45;&gt;Node15</title>
<path fill="none" stroke="#191970" d="M1050.7335,-280.4862C1035.8414,-253.5845 993.2247,-176.5994 973.389,-140.7673"/>
<polygon fill="#191970" stroke="#191970" points="976.3458,-138.8817 968.4404,-131.8279 970.2215,-142.272 976.3458,-138.8817"/>
</g>
<!-- Node21 -->
<g id="node22" class="node">
<title>Node21</title>
<g id="a_node22"><a xlink:href="../../dc/df4/ntv2formatdescriptor_8h.html" target="_top" xlink:title="Declares the NTV2FormatDescriptor class. ">
<polygon fill="#ffffff" stroke="#000000" points="384.5,-224.5 384.5,-243.5 497.5,-243.5 497.5,-224.5 384.5,-224.5"/>
<text text-anchor="middle" x="441" y="-231.5" font-family="Helvetica,sans-Serif" font-size="10.00" fill="#000000">ntv2formatdescriptor.h</text>
</a>
</g>
</g>
<!-- Node1&#45;&gt;Node21 -->
<g id="edge29" class="edge">
<title>Node1&#45;&gt;Node21</title>
<path fill="none" stroke="#191970" d="M1018.8794,-281.6405C1015.5485,-281.0303 1012.2193,-280.4708 1009,-280 828.9982,-253.674 614.5386,-241.4344 507.986,-236.6274"/>
<polygon fill="#191970" stroke="#191970" points="507.851,-233.1181 497.7057,-236.1717 507.5409,-240.1112 507.851,-233.1181"/>
</g>
<!-- Node3 -->
<g id="node4" class="node">
<title>Node3</title>
<g id="a_node4"><a xlink:href="../../db/de2/ajatypes_8h.html" target="_top" xlink:title="Declares the most fundamental data types used by NTV2. Since Windows NT was the first principal devel...">
<polygon fill="#ffffff" stroke="#000000" points="796,-56.5 796,-75.5 858,-75.5 858,-56.5 796,-56.5"/>
<text text-anchor="middle" x="827" y="-63.5" font-family="Helvetica,sans-Serif" font-size="10.00" fill="#000000">ajatypes.h</text>
</a>
</g>
</g>
<!-- Node2&#45;&gt;Node3 -->
<g id="edge3" class="edge">
<title>Node2&#45;&gt;Node3</title>
<path fill="none" stroke="#191970" d="M973.8622,-224.3289C988.7089,-202.1131 1020.4229,-146.6851 994,-112 986.2538,-101.8316 915.1323,-84.8792 868.2349,-74.6394"/>
<polygon fill="#191970" stroke="#191970" points="868.8513,-71.1919 858.3374,-72.4991 867.3717,-78.0337 868.8513,-71.1919"/>
</g>
<!-- Node6 -->
<g id="node7" class="node">
<title>Node6</title>
<g id="a_node7"><a xlink:href="../../d6/db1/ntv2version_8h.html" target="_top" xlink:title="Defines for the NTV2 SDK version number, used by ajantv2/includes/ntv2enums.h. See the ajantv2/includ...">
<polygon fill="#ffffff" stroke="#000000" points="232.5,-56.5 232.5,-75.5 307.5,-75.5 307.5,-56.5 232.5,-56.5"/>
<text text-anchor="middle" x="270" y="-63.5" font-family="Helvetica,sans-Serif" font-size="10.00" fill="#000000">ntv2version.h</text>
</a>
</g>
</g>
<!-- Node2&#45;&gt;Node6 -->
<g id="edge6" class="edge">
<title>Node2&#45;&gt;Node6</title>
<path fill="none" stroke="#191970" d="M926.6852,-231.5353C780.6195,-222.1812 285.4576,-186.6189 243,-132 231.8001,-117.5921 242.45,-97.894 253.5007,-83.775"/>
<polygon fill="#191970" stroke="#191970" points="256.4578,-85.6984 260.2412,-75.8021 251.1122,-81.179 256.4578,-85.6984"/>
</g>
<!-- Node9 -->
<g id="node10" class="node">
<title>Node9</title>
<g id="a_node10"><a xlink:href="../../d9/d49/types_8h.html" target="_top" xlink:title="Declares common types used in the ajabase library. ">
<polygon fill="#ffffff" stroke="#000000" points="1095,-112.5 1095,-131.5 1221,-131.5 1221,-112.5 1095,-112.5"/>
<text text-anchor="middle" x="1158" y="-119.5" font-family="Helvetica,sans-Serif" font-size="10.00" fill="#000000">ajabase/common/types.h</text>
</a>
</g>
</g>
<!-- Node2&#45;&gt;Node9 -->
<g id="edge9" class="edge">
<title>Node2&#45;&gt;Node9</title>
<path fill="none" stroke="#191970" d="M981.0832,-224.4135C1000.6941,-211.1948 1037.4856,-186.8662 1070,-168 1089.5006,-156.685 1112.0433,-144.9256 1129.4306,-136.129"/>
<polygon fill="#191970" stroke="#191970" points="1131.1435,-139.1854 1138.5078,-131.5684 1128.0009,-132.9305 1131.1435,-139.1854"/>
</g>
<!-- Node10 -->
<g id="node11" class="node">
<title>Node10</title>
<g id="a_node11"><a xlink:href="../../d4/dd7/ntv2publicinterface_8h.html" target="_top" xlink:title="Declares enums and structs used by all platform drivers and the SDK. ">
<polygon fill="#ffffff" stroke="#000000" points="472.5,-168.5 472.5,-187.5 579.5,-187.5 579.5,-168.5 472.5,-168.5"/>
<text text-anchor="middle" x="526" y="-175.5" font-family="Helvetica,sans-Serif" font-size="10.00" fill="#000000">ntv2publicinterface.h</text>
</a>
</g>
</g>
<!-- Node2&#45;&gt;Node10 -->
<g id="edge11" class="edge">
<title>Node2&#45;&gt;Node10</title>
<path fill="none" stroke="#191970" d="M926.6951,-228.8819C849.8404,-219.1226 681.8012,-197.7843 589.6248,-186.0793"/>
<polygon fill="#191970" stroke="#191970" points="589.9484,-182.5924 579.5871,-184.8047 589.0665,-189.5366 589.9484,-182.5924"/>
</g>
<!-- Node2&#45;&gt;Node15 -->
<g id="edge28" class="edge">
<title>Node2&#45;&gt;Node15</title>
<path fill="none" stroke="#191970" d="M965.3414,-224.1657C963.8641,-214.8764 961.8142,-200.5375 961,-188 960.0002,-172.6049 960.6043,-155.1566 961.4023,-142.0683"/>
<polygon fill="#191970" stroke="#191970" points="964.9106,-142.0702 962.118,-131.8501 957.9277,-141.5811 964.9106,-142.0702"/>
</g>
<!-- Node20 -->
<g id="node21" class="node">
<title>Node20</title>
<polygon fill="#ffffff" stroke="#bfbfbf" points="1079,-168.5 1079,-187.5 1131,-187.5 1131,-168.5 1079,-168.5"/>
<text text-anchor="middle" x="1105" y="-175.5" font-family="Helvetica,sans-Serif" font-size="10.00" fill="#000000">sstream</text>
</g>
<!-- Node2&#45;&gt;Node20 -->
<g id="edge27" class="edge">
<title>Node2&#45;&gt;Node20</title>
<path fill="none" stroke="#191970" d="M990.723,-224.3733C1013.1737,-215.2629 1047.0739,-201.5062 1072.1255,-191.3404"/>
<polygon fill="#191970" stroke="#191970" points="1073.6365,-194.5045 1081.5865,-187.5011 1071.0043,-188.0182 1073.6365,-194.5045"/>
</g>
<!-- Node4 -->
<g id="node5" class="node">
<title>Node4</title>
<g id="a_node5"><a xlink:href="../../db/d40/ntv2deprecate_8h.html" target="_top" xlink:title="Deprecation control macros. ">
<polygon fill="#ffffff" stroke="#000000" points="881,-.5 881,-19.5 967,-19.5 967,-.5 881,-.5"/>
<text text-anchor="middle" x="924" y="-7.5" font-family="Helvetica,sans-Serif" font-size="10.00" fill="#000000">ntv2deprecate.h</text>
</a>
</g>
</g>
<!-- Node3&#45;&gt;Node4 -->
<g id="edge4" class="edge">
<title>Node3&#45;&gt;Node4</title>
<path fill="none" stroke="#191970" d="M843.8961,-56.2455C858.918,-47.5731 881.1043,-34.7645 898.321,-24.825"/>
<polygon fill="#191970" stroke="#191970" points="900.3871,-27.6737 907.2975,-19.6427 896.8872,-21.6114 900.3871,-27.6737"/>
</g>
<!-- Node5 -->
<g id="node6" class="node">
<title>Node5</title>
<polygon fill="#ffffff" stroke="#bfbfbf" points="1323.5,-.5 1323.5,-19.5 1372.5,-19.5 1372.5,-.5 1323.5,-.5"/>
<text text-anchor="middle" x="1348" y="-7.5" font-family="Helvetica,sans-Serif" font-size="10.00" fill="#000000">stdint.h</text>
</g>
<!-- Node3&#45;&gt;Node5 -->
<g id="edge5" class="edge">
<title>Node3&#45;&gt;Node5</title>
<path fill="none" stroke="#191970" d="M858.0307,-62.6646C949.4587,-52.8374 1217.3985,-24.0378 1313.3341,-13.7261"/>
<polygon fill="#191970" stroke="#191970" points="1313.811,-17.1951 1323.3797,-12.6463 1313.0629,-10.2352 1313.811,-17.1951"/>
</g>
<!-- Node7 -->
<g id="node8" class="node">
<title>Node7</title>
<g id="a_node8"><a xlink:href="../../d6/dd9/ajaexport_8h.html" target="_top" xlink:title="Defines the import/export macros for producing DLLs or LIBs. ">
<polygon fill="#ffffff" stroke="#000000" points="147.5,-.5 147.5,-19.5 212.5,-19.5 212.5,-.5 147.5,-.5"/>
<text text-anchor="middle" x="180" y="-7.5" font-family="Helvetica,sans-Serif" font-size="10.00" fill="#000000">ajaexport.h</text>
</a>
</g>
</g>
<!-- Node6&#45;&gt;Node7 -->
<g id="edge7" class="edge">
<title>Node6&#45;&gt;Node7</title>
<path fill="none" stroke="#191970" d="M254.3232,-56.2455C240.5144,-47.6534 220.1807,-35.0014 204.2708,-25.1018"/>
<polygon fill="#191970" stroke="#191970" points="205.8368,-21.954 195.4972,-19.6427 202.1387,-27.8974 205.8368,-21.954"/>
</g>
<!-- Node8 -->
<g id="node9" class="node">
<title>Node8</title>
<polygon fill="#ffffff" stroke="#bfbfbf" points="310.5,-.5 310.5,-19.5 351.5,-19.5 351.5,-.5 310.5,-.5"/>
<text text-anchor="middle" x="331" y="-7.5" font-family="Helvetica,sans-Serif" font-size="10.00" fill="#000000">string</text>
</g>
<!-- Node6&#45;&gt;Node8 -->
<g id="edge8" class="edge">
<title>Node6&#45;&gt;Node8</title>
<path fill="none" stroke="#191970" d="M280.6254,-56.2455C289.5473,-48.0549 302.488,-36.1749 313.0192,-26.5069"/>
<polygon fill="#191970" stroke="#191970" points="315.4968,-28.9837 320.4964,-19.6427 310.7629,-23.8271 315.4968,-28.9837"/>
</g>
<!-- Node9&#45;&gt;Node4 -->
<g id="edge10" class="edge">
<title>Node9&#45;&gt;Node4</title>
<path fill="none" stroke="#191970" d="M1138.0493,-112.4509C1096.6895,-92.6548 1001.4421,-47.0663 953.1743,-23.9638"/>
<polygon fill="#191970" stroke="#191970" points="954.4313,-20.6852 943.9002,-19.5249 951.4092,-26.9992 954.4313,-20.6852"/>
</g>
<!-- Node10&#45;&gt;Node3 -->
<g id="edge12" class="edge">
<title>Node10&#45;&gt;Node3</title>
<path fill="none" stroke="#191970" d="M579.552,-171.6833C621.9681,-165.3494 682.0247,-153.3742 731,-132 760.1249,-119.2891 789.6605,-97.3199 808.132,-82.2447"/>
<polygon fill="#191970" stroke="#191970" points="810.587,-84.755 816.03,-75.6652 806.1065,-79.3767 810.587,-84.755"/>
</g>
<!-- Node10&#45;&gt;Node7 -->
<g id="edge24" class="edge">
<title>Node10&#45;&gt;Node7</title>
<path fill="none" stroke="#191970" d="M481.7738,-168.4658C454.2464,-161.2312 418.8979,-149.4988 391,-132 350.7982,-106.7837 356.2301,-81.1712 316,-56 287.2071,-37.9848 250.5335,-26.115 222.5267,-18.9525"/>
<polygon fill="#191970" stroke="#191970" points="223.1772,-15.5084 212.6312,-16.5241 221.5088,-22.3067 223.1772,-15.5084"/>
</g>
<!-- Node10&#45;&gt;Node8 -->
<g id="edge20" class="edge">
<title>Node10&#45;&gt;Node8</title>
<path fill="none" stroke="#191970" d="M483.4906,-168.4197C460.0266,-161.4318 431.5634,-149.9704 411,-132 381.7771,-106.4619 389.7895,-88.1153 368,-56 361.2675,-46.0771 352.9605,-35.616 345.9244,-27.1813"/>
<polygon fill="#191970" stroke="#191970" points="348.5576,-24.8749 339.4173,-19.517 343.2214,-29.4054 348.5576,-24.8749"/>
</g>
<!-- Node11 -->
<g id="node12" class="node">
<title>Node11</title>
<g id="a_node12"><a xlink:href="../../d6/d0c/ntv2enums_8h.html" target="_top" xlink:title="Enumerations for controlling NTV2 devices. ">
<polygon fill="#ffffff" stroke="#000000" points="252.5,-112.5 252.5,-131.5 325.5,-131.5 325.5,-112.5 252.5,-112.5"/>
<text text-anchor="middle" x="289" y="-119.5" font-family="Helvetica,sans-Serif" font-size="10.00" fill="#000000">ntv2enums.h</text>
</a>
</g>
</g>
<!-- Node10&#45;&gt;Node11 -->
<g id="edge13" class="edge">
<title>Node10&#45;&gt;Node11</title>
<path fill="none" stroke="#191970" d="M485.5275,-168.4369C443.9482,-158.6122 379.2968,-143.3359 335.6065,-133.0125"/>
<polygon fill="#191970" stroke="#191970" points="336.336,-129.5886 325.7991,-130.6951 334.7263,-136.401 336.336,-129.5886"/>
</g>
<!-- Node12 -->
<g id="node13" class="node">
<title>Node12</title>
<polygon fill="#ffffff" stroke="#bfbfbf" points="104,-112.5 104,-131.5 158,-131.5 158,-112.5 104,-112.5"/>
<text text-anchor="middle" x="131" y="-119.5" font-family="Helvetica,sans-Serif" font-size="10.00" fill="#000000">iostream</text>
</g>
<!-- Node10&#45;&gt;Node12 -->
<g id="edge16" class="edge">
<title>Node10&#45;&gt;Node12</title>
<path fill="none" stroke="#191970" d="M472.3175,-170.3893C391.0589,-158.8691 238.8593,-137.2914 168.4695,-127.3121"/>
<polygon fill="#191970" stroke="#191970" points="168.689,-123.8083 158.2967,-125.8699 167.7063,-130.739 168.689,-123.8083"/>
</g>
<!-- Node10&#45;&gt;Node13 -->
<g id="edge17" class="edge">
<title>Node10&#45;&gt;Node13</title>
<path fill="none" stroke="#191970" d="M579.5177,-170.1545C663.1983,-157.8872 821.7766,-134.6401 883.0056,-125.6641"/>
<polygon fill="#191970" stroke="#191970" points="883.5577,-129.1207 892.9443,-124.2071 882.5424,-122.1947 883.5577,-129.1207"/>
</g>
<!-- Node10&#45;&gt;Node14 -->
<g id="edge18" class="edge">
<title>Node10&#45;&gt;Node14</title>
<path fill="none" stroke="#191970" d="M579.8008,-173.6746C666.9542,-166.4515 844.35,-150.8518 994,-132 1006.3156,-130.4486 1019.8939,-128.4113 1031.4411,-126.5807"/>
<polygon fill="#191970" stroke="#191970" points="1032.0653,-130.0253 1041.3803,-124.9775 1030.9505,-123.1147 1032.0653,-130.0253"/>
</g>
<!-- Node10&#45;&gt;Node15 -->
<g id="edge19" class="edge">
<title>Node10&#45;&gt;Node15</title>
<path fill="none" stroke="#191970" d="M579.5345,-173.271C669.8321,-165.0812 849.7055,-147.7974 930.5239,-131.8831"/>
<polygon fill="#191970" stroke="#191970" points="931.715,-135.2104 940.7936,-129.7487 930.2906,-128.3568 931.715,-135.2104"/>
</g>
<!-- Node16 -->
<g id="node17" class="node">
<title>Node16</title>
<polygon fill="#ffffff" stroke="#bfbfbf" points="547,-112.5 547,-131.5 597,-131.5 597,-112.5 547,-112.5"/>
<text text-anchor="middle" x="572" y="-119.5" font-family="Helvetica,sans-Serif" font-size="10.00" fill="#000000">iomanip</text>
</g>
<!-- Node10&#45;&gt;Node16 -->
<g id="edge21" class="edge">
<title>Node10&#45;&gt;Node16</title>
<path fill="none" stroke="#191970" d="M534.0126,-168.2455C540.4768,-160.3761 549.7385,-149.101 557.4983,-139.6542"/>
<polygon fill="#191970" stroke="#191970" points="560.4364,-141.5916 564.0792,-131.6427 555.0273,-137.1484 560.4364,-141.5916"/>
</g>
<!-- Node17 -->
<g id="node18" class="node">
<title>Node17</title>
<polygon fill="#ffffff" stroke="#bfbfbf" points="420.5,-112.5 420.5,-131.5 461.5,-131.5 461.5,-112.5 420.5,-112.5"/>
<text text-anchor="middle" x="441" y="-119.5" font-family="Helvetica,sans-Serif" font-size="10.00" fill="#000000">bitset</text>
</g>
<!-- Node10&#45;&gt;Node17 -->
<g id="edge22" class="edge">
<title>Node10&#45;&gt;Node17</title>
<path fill="none" stroke="#191970" d="M511.1941,-168.2455C498.2744,-159.7337 479.3069,-147.2375 464.3448,-137.3801"/>
<polygon fill="#191970" stroke="#191970" points="465.9124,-134.2216 455.6362,-131.6427 462.0613,-140.067 465.9124,-134.2216"/>
</g>
<!-- Node18 -->
<g id="node19" class="node">
<title>Node18</title>
<polygon fill="#ffffff" stroke="#bfbfbf" points="479.5,-112.5 479.5,-131.5 528.5,-131.5 528.5,-112.5 479.5,-112.5"/>
<text text-anchor="middle" x="504" y="-119.5" font-family="Helvetica,sans-Serif" font-size="10.00" fill="#000000">string.h</text>
</g>
<!-- Node10&#45;&gt;Node18 -->
<g id="edge23" class="edge">
<title>Node10&#45;&gt;Node18</title>
<path fill="none" stroke="#191970" d="M522.1679,-168.2455C519.2341,-160.7776 515.0953,-150.2427 511.509,-141.1137"/>
<polygon fill="#191970" stroke="#191970" points="514.7024,-139.6704 507.7882,-131.6427 508.1871,-142.23 514.7024,-139.6704"/>
</g>
<!-- Node19 -->
<g id="node20" class="node">
<title>Node19</title>
<g id="a_node20"><a xlink:href="../../da/df0/ntv2virtualregisters_8h.html" target="_top" xlink:title="Declares enums for virtual registers used in all platform drivers and the SDK. ">
<polygon fill="#ffffff" stroke="#000000" points="615.5,-112.5 615.5,-131.5 722.5,-131.5 722.5,-112.5 615.5,-112.5"/>
<text text-anchor="middle" x="669" y="-119.5" font-family="Helvetica,sans-Serif" font-size="10.00" fill="#000000">ntv2virtualregisters.h</text>
</a>
</g>
</g>
<!-- Node10&#45;&gt;Node19 -->
<g id="edge25" class="edge">
<title>Node10&#45;&gt;Node19</title>
<path fill="none" stroke="#191970" d="M550.5826,-168.3733C573.9496,-159.2226 609.2862,-145.3844 635.2784,-135.2057"/>
<polygon fill="#191970" stroke="#191970" points="636.703,-138.4066 644.7382,-131.5011 634.1505,-131.8886 636.703,-138.4066"/>
</g>
<!-- Node11&#45;&gt;Node3 -->
<g id="edge14" class="edge">
<title>Node11&#45;&gt;Node3</title>
<path fill="none" stroke="#191970" d="M325.556,-118.1949C422.1773,-108.1377 683.8722,-80.8981 785.6866,-70.3003"/>
<polygon fill="#191970" stroke="#191970" points="786.297,-73.7557 795.8809,-69.2392 785.5723,-66.7934 786.297,-73.7557"/>
</g>
<!-- Node11&#45;&gt;Node6 -->
<g id="edge15" class="edge">
<title>Node11&#45;&gt;Node6</title>
<path fill="none" stroke="#191970" d="M285.6905,-112.2455C283.1567,-104.7776 279.5823,-94.2427 276.485,-85.1137"/>
<polygon fill="#191970" stroke="#191970" points="279.7991,-83.9879 273.2716,-75.6427 273.1702,-86.237 279.7991,-83.9879"/>
</g>
<!-- Node19&#45;&gt;Node3 -->
<g id="edge26" class="edge">
<title>Node19&#45;&gt;Node3</title>
<path fill="none" stroke="#191970" d="M696.1612,-112.3733C722.2067,-103.1419 761.7116,-89.1402 790.4979,-78.9375"/>
<polygon fill="#191970" stroke="#191970" points="791.937,-82.1408 800.1933,-75.5011 789.5985,-75.5429 791.937,-82.1408"/>
</g>
<!-- Node21&#45;&gt;Node3 -->
<g id="edge31" class="edge">
<title>Node21&#45;&gt;Node3</title>
<path fill="none" stroke="#191970" d="M471.7133,-224.475C501.4697,-215.2264 547.8602,-200.7543 588,-188 615.5943,-179.232 622.4172,-176.8039 650,-168 700.6171,-151.8439 718.9058,-160.1002 764,-132 784.2625,-119.3735 802.5032,-98.7376 814.0794,-83.8999"/>
<polygon fill="#191970" stroke="#191970" points="817.1608,-85.6266 820.3844,-75.5341 811.5706,-81.4135 817.1608,-85.6266"/>
</g>
<!-- Node21&#45;&gt;Node7 -->
<g id="edge30" class="edge">
<title>Node21&#45;&gt;Node7</title>
<path fill="none" stroke="#191970" d="M384.3213,-225.3767C312.8016,-214.2957 196.8075,-195.585 178,-188 136.73,-171.3558 125.4914,-164.4118 95,-132 69.7678,-105.1787 41.2212,-86.4021 62,-56 70.9732,-42.8711 107.479,-29.8926 137.539,-21.0862"/>
<polygon fill="#191970" stroke="#191970" points="138.7792,-24.3722 147.4371,-18.2654 136.8607,-17.6402 138.7792,-24.3722"/>
</g>
<!-- Node21&#45;&gt;Node8 -->
<g id="edge34" class="edge">
<title>Node21&#45;&gt;Node8</title>
<path fill="none" stroke="#191970" d="M397.0628,-224.4013C349.5608,-211.6494 275.2596,-184.3589 235,-132 214.1555,-104.8911 204.1434,-84.5274 223,-56 240.0874,-30.1492 274.9764,-18.7789 300.4925,-13.8072"/>
<polygon fill="#191970" stroke="#191970" points="301.1733,-17.2416 310.4344,-12.0955 299.9855,-10.3431 301.1733,-17.2416"/>
</g>
<!-- Node21&#45;&gt;Node10 -->
<g id="edge33" class="edge">
<title>Node21&#45;&gt;Node10</title>
<path fill="none" stroke="#191970" d="M455.8059,-224.2455C468.7256,-215.7337 487.6931,-203.2375 502.6552,-193.3801"/>
<polygon fill="#191970" stroke="#191970" points="504.9387,-196.067 511.3638,-187.6427 501.0876,-190.2216 504.9387,-196.067"/>
</g>
<!-- Node21&#45;&gt;Node11 -->
<g id="edge32" class="edge">
<title>Node21&#45;&gt;Node11</title>
<path fill="none" stroke="#191970" d="M428.0406,-224.4509C401.7914,-205.1094 342.1274,-161.1465 310.1584,-137.5904"/>
<polygon fill="#191970" stroke="#191970" points="312.0534,-134.6392 301.9266,-131.5249 307.901,-140.2746 312.0534,-134.6392"/>
</g>
<!-- Node21&#45;&gt;Node12 -->
<g id="edge35" class="edge">
<title>Node21&#45;&gt;Node12</title>
<path fill="none" stroke="#191970" d="M387.1504,-224.4557C325.0704,-213.2382 229.5373,-195.2364 214,-188 188.1348,-175.9536 163.1666,-154.3029 147.4893,-139.0922"/>
<polygon fill="#191970" stroke="#191970" points="149.7362,-136.3901 140.1825,-131.81 144.7948,-141.3482 149.7362,-136.3901"/>
</g>
<!-- Node21&#45;&gt;Node15 -->
<g id="edge36" class="edge">
<title>Node21&#45;&gt;Node15</title>
<path fill="none" stroke="#191970" d="M497.6545,-229.1467C562.9672,-222.8243 673.2431,-209.9082 766,-188 825.615,-173.9196 892.829,-149.4759 931.3254,-134.6148"/>
<polygon fill="#191970" stroke="#191970" points="932.8831,-137.7643 940.9318,-130.8746 930.3433,-131.2413 932.8831,-137.7643"/>
</g>
<!-- Node22&#45;&gt;Node2 -->
<g id="edge41" class="edge">
<title>Node22&#45;&gt;Node2</title>
<path fill="none" stroke="#191970" d="M949.6579,-280.2455C952.4584,-272.7776 956.409,-262.2427 959.8324,-253.1137"/>
<polygon fill="#191970" stroke="#191970" points="963.1499,-254.2349 963.384,-243.6427 956.5955,-251.777 963.1499,-254.2349"/>
</g>
<!-- Node23&#45;&gt;Node13 -->
<g id="edge45" class="edge">
<title>Node23&#45;&gt;Node13</title>
<path fill="none" stroke="#191970" d="M1241.9463,-224.4475C1221.3648,-209.8784 1179.6267,-182.2944 1140,-168 1054.6777,-137.222 1024.1191,-156.8012 932.691,-131.6269"/>
<polygon fill="#191970" stroke="#191970" points="933.628,-128.2546 923.0511,-128.871 931.7038,-134.985 933.628,-128.2546"/>
</g>
<!-- Node23&#45;&gt;Node20 -->
<g id="edge44" class="edge">
<title>Node23&#45;&gt;Node20</title>
<path fill="none" stroke="#191970" d="M1229.2141,-224.3733C1204.5953,-215.1822 1167.31,-201.2624 1140.0125,-191.0713"/>
<polygon fill="#191970" stroke="#191970" points="1141.042,-187.7198 1130.4494,-187.5011 1138.5937,-194.2777 1141.042,-187.7198"/>
</g>
<!-- Node24 -->
<g id="node25" class="node">
<title>Node24</title>
<polygon fill="#ffffff" stroke="#bfbfbf" points="1225,-168.5 1225,-187.5 1271,-187.5 1271,-168.5 1225,-168.5"/>
<text text-anchor="middle" x="1248" y="-175.5" font-family="Helvetica,sans-Serif" font-size="10.00" fill="#000000">stdio.h</text>
</g>
<!-- Node23&#45;&gt;Node24 -->
<g id="edge43" class="edge">
<title>Node23&#45;&gt;Node24</title>
<path fill="none" stroke="#191970" d="M1253.7807,-224.2455C1252.8673,-216.9382 1251.5868,-206.6944 1250.4631,-197.7046"/>
<polygon fill="#191970" stroke="#191970" points="1253.9187,-197.1313 1249.2053,-187.6427 1246.9728,-197.9996 1253.9187,-197.1313"/>
</g>
<!-- Node25 -->
<g id="node26" class="node">
<title>Node25</title>
<g id="a_node26"><a xlink:href="../../d4/d79/public_8h.html" target="_top" xlink:title="Master header for the ajabase library. ">
<polygon fill="#ffffff" stroke="#000000" points="1289,-168.5 1289,-187.5 1417,-187.5 1417,-168.5 1289,-168.5"/>
<text text-anchor="middle" x="1353" y="-175.5" font-family="Helvetica,sans-Serif" font-size="10.00" fill="#000000">ajabase/common/public.h</text>
</a>
</g>
</g>
<!-- Node23&#45;&gt;Node25 -->
<g id="edge46" class="edge">
<title>Node23&#45;&gt;Node25</title>
<path fill="none" stroke="#191970" d="M1272.0703,-224.2455C1287.247,-215.5731 1309.6621,-202.7645 1327.0563,-192.825"/>
<polygon fill="#191970" stroke="#191970" points="1329.1794,-195.643 1336.1253,-187.6427 1325.7064,-189.5653 1329.1794,-195.643"/>
</g>
<!-- Node28 -->
<g id="node29" class="node">
<title>Node28</title>
<g id="a_node29"><a xlink:href="../../d0/db4/debugshare_8h.html" target="_top" xlink:title="Declares the constants used for sharing debug messages. These structures are used to gather debug mes...">
<polygon fill="#ffffff" stroke="#000000" points="1435.5,-168.5 1435.5,-187.5 1582.5,-187.5 1582.5,-168.5 1435.5,-168.5"/>
<text text-anchor="middle" x="1509" y="-175.5" font-family="Helvetica,sans-Serif" font-size="10.00" fill="#000000">ajabase/system/debugshare.h</text>
</a>
</g>
</g>
<!-- Node23&#45;&gt;Node28 -->
<g id="edge53" class="edge">
<title>Node23&#45;&gt;Node28</title>
<path fill="none" stroke="#191970" d="M1298.3756,-224.4369C1341.937,-214.8328 1409.1277,-200.0191 1455.8634,-189.7152"/>
<polygon fill="#191970" stroke="#191970" points="1456.7915,-193.0947 1465.8034,-187.5237 1455.2843,-186.2588 1456.7915,-193.0947"/>
</g>
<!-- Node25&#45;&gt;Node8 -->
<g id="edge48" class="edge">
<title>Node25&#45;&gt;Node8</title>
<path fill="none" stroke="#191970" d="M1335.3413,-168.4255C1301.9862,-150.3539 1232.7866,-112.9321 1230,-112 1063.206,-56.2122 500.3167,-19.9761 361.9276,-11.7741"/>
<polygon fill="#191970" stroke="#191970" points="361.8226,-8.262 351.6346,-11.1696 361.4122,-15.2499 361.8226,-8.262"/>
</g>
<!-- Node25&#45;&gt;Node9 -->
<g id="edge52" class="edge">
<title>Node25&#45;&gt;Node9</title>
<path fill="none" stroke="#191970" d="M1319.4783,-168.3733C1286.6317,-158.9404 1236.4405,-144.5265 1200.7422,-134.2747"/>
<polygon fill="#191970" stroke="#191970" points="1201.6619,-130.8974 1191.0843,-131.5011 1199.7297,-137.6255 1201.6619,-130.8974"/>
</g>
<!-- Node25&#45;&gt;Node14 -->
<g id="edge51" class="edge">
<title>Node25&#45;&gt;Node14</title>
<path fill="none" stroke="#191970" d="M1289.6761,-168.4678C1227.5373,-158.8838 1136.1489,-144.1195 1086.264,-131.5909"/>
<polygon fill="#191970" stroke="#191970" points="1087.1296,-128.1996 1076.5678,-129.0358 1085.3458,-134.9685 1087.1296,-128.1996"/>
</g>
<!-- Node25&#45;&gt;Node15 -->
<g id="edge50" class="edge">
<title>Node25&#45;&gt;Node15</title>
<path fill="none" stroke="#191970" d="M1288.7425,-168.8224C1223.9358,-159.5592 1121.0172,-144.8287 1032,-132 1019.9839,-130.2683 1006.7921,-128.3586 995.1902,-126.6761"/>
<polygon fill="#191970" stroke="#191970" points="995.4607,-123.1788 985.0617,-125.2065 994.4555,-130.1062 995.4607,-123.1788"/>
</g>
<!-- Node26 -->
<g id="node27" class="node">
<title>Node26</title>
<g id="a_node27"><a xlink:href="../../db/db5/export_8h.html" target="_top" xlink:title="Declares system&#45;dependent import/export macros and libraries. ">
<polygon fill="#ffffff" stroke="#000000" points="1324.5,-112.5 1324.5,-131.5 1453.5,-131.5 1453.5,-112.5 1324.5,-112.5"/>
<text text-anchor="middle" x="1389" y="-119.5" font-family="Helvetica,sans-Serif" font-size="10.00" fill="#000000">ajabase/common/export.h</text>
</a>
</g>
</g>
<!-- Node25&#45;&gt;Node26 -->
<g id="edge47" class="edge">
<title>Node25&#45;&gt;Node26</title>
<path fill="none" stroke="#191970" d="M1359.2707,-168.2455C1364.2264,-160.5367 1371.283,-149.5598 1377.2776,-140.2348"/>
<polygon fill="#191970" stroke="#191970" points="1380.3376,-141.9471 1382.8011,-131.6427 1374.4494,-138.1618 1380.3376,-141.9471"/>
</g>
<!-- Node27 -->
<g id="node28" class="node">
<title>Node27</title>
<polygon fill="#ffffff" stroke="#bfbfbf" points="1277.5,-112.5 1277.5,-131.5 1306.5,-131.5 1306.5,-112.5 1277.5,-112.5"/>
<text text-anchor="middle" x="1292" y="-119.5" font-family="Helvetica,sans-Serif" font-size="10.00" fill="#000000">list</text>
</g>
<!-- Node25&#45;&gt;Node27 -->
<g id="edge49" class="edge">
<title>Node25&#45;&gt;Node27</title>
<path fill="none" stroke="#191970" d="M1342.3746,-168.2455C1333.4527,-160.0549 1320.512,-148.1749 1309.9808,-138.5069"/>
<polygon fill="#191970" stroke="#191970" points="1312.2371,-135.8271 1302.5036,-131.6427 1307.5032,-140.9837 1312.2371,-135.8271"/>
</g>
<!-- Node28&#45;&gt;Node5 -->
<g id="edge56" class="edge">
<title>Node28&#45;&gt;Node5</title>
<path fill="none" stroke="#191970" d="M1530.1378,-168.335C1552.4366,-156.6561 1582.8368,-135.6106 1571,-112 1535.9407,-42.0683 1436.3214,-19.9766 1382.8834,-13.077"/>
<polygon fill="#191970" stroke="#191970" points="1383.1863,-9.5885 1372.8444,-11.89 1382.3642,-16.5401 1383.1863,-9.5885"/>
</g>
<!-- Node28&#45;&gt;Node8 -->
<g id="edge57" class="edge">
<title>Node28&#45;&gt;Node8</title>
<path fill="none" stroke="#191970" d="M1505.3584,-168.4151C1499.1551,-153.54 1485.0292,-125.2343 1463,-112 1365.9196,-53.6777 532.5828,-17.9299 361.5878,-11.1717"/>
<polygon fill="#191970" stroke="#191970" points="361.6432,-7.6713 351.5138,-10.7769 361.3691,-14.6659 361.6432,-7.6713"/>
</g>
<!-- Node28&#45;&gt;Node15 -->
<g id="edge58" class="edge">
<title>Node28&#45;&gt;Node15</title>
<path fill="none" stroke="#191970" d="M1435.2462,-169.0023C1432.1232,-168.6566 1429.031,-168.321 1426,-168 1251.1373,-149.4813 1206.6277,-152.6175 1032,-132 1019.9435,-130.5765 1006.7429,-128.7335 995.1454,-127.0182"/>
<polygon fill="#191970" stroke="#191970" points="995.4336,-123.5222 985.024,-125.4944 994.3915,-130.4442 995.4336,-123.5222"/>
</g>
<!-- Node28&#45;&gt;Node26 -->
<g id="edge54" class="edge">
<title>Node28&#45;&gt;Node26</title>
<path fill="none" stroke="#191970" d="M1488.3713,-168.3733C1469.1081,-159.3838 1440.1514,-145.8706 1418.4581,-135.7471"/>
<polygon fill="#191970" stroke="#191970" points="1419.9015,-132.5584 1409.3595,-131.5011 1416.9413,-138.9017 1419.9015,-132.5584"/>
</g>
<!-- Node29 -->
<g id="node30" class="node">
<title>Node29</title>
<polygon fill="#ffffff" stroke="#bfbfbf" points="1510,-112.5 1510,-131.5 1562,-131.5 1562,-112.5 1510,-112.5"/>
<text text-anchor="middle" x="1536" y="-119.5" font-family="Helvetica,sans-Serif" font-size="10.00" fill="#000000">stddef.h</text>
</g>
<!-- Node28&#45;&gt;Node29 -->
<g id="edge55" class="edge">
<title>Node28&#45;&gt;Node29</title>
<path fill="none" stroke="#191970" d="M1513.703,-168.2455C1517.3424,-160.6973 1522.4924,-150.0158 1526.9262,-140.8197"/>
<polygon fill="#191970" stroke="#191970" points="1530.1605,-142.1704 1531.3509,-131.6427 1523.8551,-139.1303 1530.1605,-142.1704"/>
</g>
<!-- Node30&#45;&gt;Node3 -->
<g id="edge61" class="edge">
<title>Node30&#45;&gt;Node3</title>
<path fill="none" stroke="#191970" d="M498.0425,-280.4427C565.662,-267.2932 680.0052,-239.2138 766,-188 796.7862,-169.6654 809.2523,-164.6567 824,-132 830.4911,-117.6263 830.8748,-99.653 829.8392,-86.0934"/>
<polygon fill="#191970" stroke="#191970" points="833.2937,-85.483 828.7384,-75.9175 826.3343,-86.2359 833.2937,-85.483"/>
</g>
<!-- Node30&#45;&gt;Node7 -->
<g id="edge60" class="edge">
<title>Node30&#45;&gt;Node7</title>
<path fill="none" stroke="#191970" d="M373.0602,-286.7794C249.3562,-279.047 0,-254.0308 0,-178 0,-178 0,-178 0,-122 0,-57.5137 84.3142,-28.8349 137.5322,-17.156"/>
<polygon fill="#191970" stroke="#191970" points="138.3247,-20.5662 147.4034,-15.1048 136.9004,-13.7126 138.3247,-20.5662"/>
</g>
<!-- Node30&#45;&gt;Node8 -->
<g id="edge68" class="edge">
<title>Node30&#45;&gt;Node8</title>
<path fill="none" stroke="#191970" d="M373.2017,-283.1838C267.6464,-270.6678 76,-239.4786 76,-178 76,-178 76,-178 76,-122 76,-73.5783 232.0838,-32.3689 300.0227,-16.7252"/>
<polygon fill="#191970" stroke="#191970" points="301.1518,-20.0582 310.1323,-14.4367 299.6063,-13.2309 301.1518,-20.0582"/>
</g>
<!-- Node30&#45;&gt;Node10 -->
<g id="edge65" class="edge">
<title>Node30&#45;&gt;Node10</title>
<path fill="none" stroke="#191970" d="M461.0561,-280.3984C475.5127,-272.511 494.4397,-260.0371 506,-244 515.8334,-230.3585 520.897,-211.8189 523.4646,-197.8621"/>
<polygon fill="#191970" stroke="#191970" points="526.9459,-198.2533 525.0321,-187.8327 520.0298,-197.1723 526.9459,-198.2533"/>
</g>
<!-- Node30&#45;&gt;Node11 -->
<g id="edge62" class="edge">
<title>Node30&#45;&gt;Node11</title>
<path fill="none" stroke="#191970" d="M373.1923,-280.9234C329.5155,-273.5278 278.4638,-261.435 265,-244 241.4849,-213.549 262.3459,-166.3638 277.1907,-140.5056"/>
<polygon fill="#191970" stroke="#191970" points="280.3213,-142.0913 282.4804,-131.7187 274.3242,-138.4809 280.3213,-142.0913"/>
</g>
<!-- Node30&#45;&gt;Node12 -->
<g id="edge69" class="edge">
<title>Node30&#45;&gt;Node12</title>
<path fill="none" stroke="#191970" d="M374.4217,-280.4318C337.4346,-273.4846 291.2935,-262.059 253,-244 215.374,-226.2558 207.0822,-217.7455 178,-188 163.7777,-173.4533 150.6244,-154.2782 141.8715,-140.3469"/>
<polygon fill="#191970" stroke="#191970" points="144.7612,-138.3636 136.5558,-131.6613 138.7907,-142.0178 144.7612,-138.3636"/>
</g>
<!-- Node30&#45;&gt;Node15 -->
<g id="edge70" class="edge">
<title>Node30&#45;&gt;Node15</title>
<path fill="none" stroke="#191970" d="M508.6734,-285.4074C597.4035,-278.6837 747.7928,-264.6722 799,-244 860.0975,-219.3351 918.8386,-166.2722 946.5021,-138.9789"/>
<polygon fill="#191970" stroke="#191970" points="949.1759,-141.2544 953.7583,-131.7018 944.2189,-136.3118 949.1759,-141.2544"/>
</g>
<!-- Node30&#45;&gt;Node21 -->
<g id="edge66" class="edge">
<title>Node30&#45;&gt;Node21</title>
<path fill="none" stroke="#191970" d="M441,-280.2455C441,-272.9382 441,-262.6944 441,-253.7046"/>
<polygon fill="#191970" stroke="#191970" points="444.5001,-253.6426 441,-243.6427 437.5001,-253.6427 444.5001,-253.6426"/>
</g>
<!-- Node31 -->
<g id="node32" class="node">
<title>Node31</title>
<g id="a_node32"><a xlink:href="../../d9/d61/ntv2videodefines_8h.html" target="_top" xlink:title="Declares common video macros and structs used in the SDK. ">
<polygon fill="#ffffff" stroke="#000000" points="659,-168.5 659,-187.5 757,-187.5 757,-168.5 659,-168.5"/>
<text text-anchor="middle" x="708" y="-175.5" font-family="Helvetica,sans-Serif" font-size="10.00" fill="#000000">ntv2videodefines.h</text>
</a>
</g>
</g>
<!-- Node30&#45;&gt;Node31 -->
<g id="edge63" class="edge">
<title>Node30&#45;&gt;Node31</title>
<path fill="none" stroke="#191970" d="M463.7643,-280.4509C511.2524,-260.5308 621.0003,-214.4942 675.7398,-191.5323"/>
<polygon fill="#191970" stroke="#191970" points="677.4257,-194.6207 685.2933,-187.5249 674.7179,-188.1656 677.4257,-194.6207"/>
</g>
<!-- Node32 -->
<g id="node33" class="node">
<title>Node32</title>
<g id="a_node33"><a xlink:href="../../de/d26/ntv2m31enums_8h.html" target="_top" xlink:title="ntv2m31enums.h">
<polygon fill="#ffffff" stroke="#000000" points="274,-224.5 274,-243.5 366,-243.5 366,-224.5 274,-224.5"/>
<text text-anchor="middle" x="320" y="-231.5" font-family="Helvetica,sans-Serif" font-size="10.00" fill="#000000">ntv2m31enums.h</text>
</a>
</g>
</g>
<!-- Node30&#45;&gt;Node32 -->
<g id="edge67" class="edge">
<title>Node30&#45;&gt;Node32</title>
<path fill="none" stroke="#191970" d="M420.1994,-280.3733C400.7757,-271.3838 371.5776,-257.8706 349.7036,-247.7471"/>
<polygon fill="#191970" stroke="#191970" points="351.0745,-244.5249 340.5292,-243.5011 348.1344,-250.8776 351.0745,-244.5249"/>
</g>
<!-- Node31&#45;&gt;Node3 -->
<g id="edge64" class="edge">
<title>Node31&#45;&gt;Node3</title>
<path fill="none" stroke="#191970" d="M742.7859,-168.3901C762.7886,-161.2689 787.0372,-149.683 803,-132 814.7187,-119.0185 820.8399,-99.8641 823.9572,-85.5297"/>
<polygon fill="#191970" stroke="#191970" points="827.3994,-86.1628 825.7985,-75.6896 820.5188,-84.8752 827.3994,-86.1628"/>
</g>
<!-- Node33&#45;&gt;Node25 -->
<g id="edge72" class="edge">
<title>Node33&#45;&gt;Node25</title>
<path fill="none" stroke="#191970" d="M1294.0843,-280.3194C1303.5551,-271.5832 1317.033,-257.9895 1326,-244 1335.278,-229.5255 1342.4354,-211.3324 1347.0426,-197.7149"/>
<polygon fill="#191970" stroke="#191970" points="1350.4585,-198.5246 1350.1826,-187.9334 1343.7935,-196.3851 1350.4585,-198.5246"/>
</g>
<!-- Node34&#45;&gt;Node25 -->
<g id="edge74" class="edge">
<title>Node34&#45;&gt;Node25</title>
<path fill="none" stroke="#191970" d="M1417.4134,-224.2455C1405.6695,-215.814 1388.4801,-203.4729 1374.8118,-193.6598"/>
<polygon fill="#191970" stroke="#191970" points="1376.5954,-190.6316 1366.4309,-187.6427 1372.5129,-196.3179 1376.5954,-190.6316"/>
</g>
<!-- Node35 -->
<g id="node36" class="node">
<title>Node35</title>
<polygon fill="#ffffff" stroke="#bfbfbf" points="1601,-168.5 1601,-187.5 1653,-187.5 1653,-168.5 1601,-168.5"/>
<text text-anchor="middle" x="1627" y="-175.5" font-family="Helvetica,sans-Serif" font-size="10.00" fill="#000000">assert.h</text>
</g>
<!-- Node34&#45;&gt;Node35 -->
<g id="edge75" class="edge">
<title>Node34&#45;&gt;Node35</title>
<path fill="none" stroke="#191970" d="M1464.6936,-224.3733C1500.0097,-214.2829 1555.2742,-198.4931 1591.3179,-188.1949"/>
<polygon fill="#191970" stroke="#191970" points="1592.2882,-191.5578 1600.9419,-185.4452 1590.3651,-184.8271 1592.2882,-191.5578"/>
</g>
</g>
</svg>
        <g id="navigator" transform="translate(0 0)" fill="#404254">
                <rect fill="#f2f5e9" fill-opacity="0.5" stroke="#606060" stroke-width=".5" x="0" y="0" width="60" height="60"/>
                <use id="zoomplus" xlink:href="#zoomPlus" x="17" y="9" onmousedown="handleZoom(evt,'in')"/>
                <use id="zoomminus" xlink:href="#zoomMin" x="42" y="9" onmousedown="handleZoom(evt,'out')"/>
                <use id="reset" xlink:href="#resetDef" x="30" y="36" onmousedown="handleReset()"/>
                <g id="arrowUp" xlink:href="#dirArrow" transform="translate(30 24)" onmousedown="handlePan(0,-1)">
                  <use xlink:href="#rim" fill="#404040">
                        <set attributeName="fill" to="#808080" begin="arrowUp.mouseover" end="arrowUp.mouseout"/>
                  </use>
                  <path fill="none" stroke="white" stroke-width="1.5" d="M0,-3.0v7 M-2.5,-0.5L0,-3.0L2.5,-0.5"/>
                </g>
                <g id="arrowRight" xlink:href="#dirArrow" transform="rotate(90) translate(36 -43)" onmousedown="handlePan(1,0)">
                  <use xlink:href="#rim" fill="#404040">
                        <set attributeName="fill" to="#808080" begin="arrowRight.mouseover" end="arrowRight.mouseout"/>
                  </use>
                  <path fill="none" stroke="white" stroke-width="1.5" d="M0,-3.0v7 M-2.5,-0.5L0,-3.0L2.5,-0.5"/>
                </g>
                <g id="arrowDown" xlink:href="#dirArrow" transform="rotate(180) translate(-30 -48)" onmousedown="handlePan(0,1)">
                  <use xlink:href="#rim" fill="#404040">
                        <set attributeName="fill" to="#808080" begin="arrowDown.mouseover" end="arrowDown.mouseout"/>
                  </use>
                  <path fill="none" stroke="white" stroke-width="1.5" d="M0,-3.0v7 M-2.5,-0.5L0,-3.0L2.5,-0.5"/>
                </g>
                <g id="arrowLeft" xlink:href="#dirArrow" transform="rotate(270) translate(-36 17)" onmousedown="handlePan(-1,0)">
                  <use xlink:href="#rim" fill="#404040">
                        <set attributeName="fill" to="#808080" begin="arrowLeft.mouseover" end="arrowLeft.mouseout"/>
                  </use>
                  <path fill="none" stroke="white" stroke-width="1.5" d="M0,-3.0v7 M-2.5,-0.5L0,-3.0L2.5,-0.5"/>
                </g>
        </g>
        <svg viewBox="0 0 15 15" width="100%" height="30px" preserveAspectRatio="xMaxYMin meet">
         <g id="arrow_out" transform="scale(0.3 0.3)">
          <a xlink:href="ancillarylist_8cpp__incl_org.svg" target="_base">
           <rect id="button" ry="5" rx="5" y="6" x="6" height="38" width="38"
                fill="#f2f5e9" fill-opacity="0.5" stroke="#606060" stroke-width="1.0"/>
           <path id="arrow"
             d="M 11.500037,31.436501 C 11.940474,20.09759 22.043105,11.32322 32.158766,21.979434 L 37.068811,17.246167 C 37.068811,17.246167 37.088388,32 37.088388,32 L 22.160133,31.978069 C 22.160133,31.978069 26.997745,27.140456 26.997745,27.140456 C 18.528582,18.264221 13.291696,25.230495 11.500037,31.436501 z"
             style="fill:#404040;"/>
          </a>
         </g>
        </svg>
</svg>
