<?xml version="1.0" encoding="UTF-8" standalone="no"?>
<!DOCTYPE svg PUBLIC "-//W3C//DTD SVG 1.1//EN"
 "http://www.w3.org/Graphics/SVG/1.1/DTD/svg11.dtd">
<!-- Generated by graphviz version 2.43.0 (0)
 -->
<!-- Title: COutputQueue Pages: 1 -->
<svg width="340pt" height="230pt"
 viewBox="0.00 0.00 340.00 230.00" xmlns="http://www.w3.org/2000/svg" xmlns:xlink="http://www.w3.org/1999/xlink">
<g id="graph0" class="graph" transform="scale(1 1) rotate(0) translate(4 226)">
<title>COutputQueue</title>
<polygon fill="white" stroke="transparent" points="-4,4 -4,-226 336,-226 336,4 -4,4"/>
<!-- Node1 -->
<g id="node1" class="node">
<title>Node1</title>
<g id="a_node1"><a xlink:title=" ">
<polygon fill="#bfbfbf" stroke="black" points="66,-0.5 66,-19.5 154,-19.5 154,-0.5 66,-0.5"/>
<text text-anchor="middle" x="110" y="-7.5" font-family="Helvetica,sans-Serif" font-size="10.00">COutputQueue</text>
</a>
</g>
</g>
<!-- Node2 -->
<g id="node2" class="node">
<title>Node2</title>
<g id="a_node2"><a xlink:href="../../d5/d24/class_c_crit_sec.html" target="_top" xlink:title=" ">
<polygon fill="white" stroke="black" points="0,-67.5 0,-86.5 58,-86.5 58,-67.5 0,-67.5"/>
<text text-anchor="middle" x="29" y="-74.5" font-family="Helvetica,sans-Serif" font-size="10.00">CCritSec</text>
</a>
</g>
</g>
<!-- Node2&#45;&gt;Node1 -->
<g id="edge1" class="edge">
<title>Node2&#45;&gt;Node1</title>
<path fill="none" stroke="midnightblue" d="M48.05,-60.71C64.01,-47.91 86.21,-30.09 99.25,-19.63"/>
<polygon fill="midnightblue" stroke="midnightblue" points="45.53,-58.25 39.92,-67.23 49.91,-63.7 45.53,-58.25"/>
</g>
<!-- Node3 -->
<g id="node3" class="node">
<title>Node3</title>
<g id="a_node3"><a xlink:href="../../d3/dc9/class_c_a_m_event.html" target="_top" xlink:title=" ">
<polygon fill="white" stroke="black" points="76.5,-67.5 76.5,-86.5 143.5,-86.5 143.5,-67.5 76.5,-67.5"/>
<text text-anchor="middle" x="110" y="-74.5" font-family="Helvetica,sans-Serif" font-size="10.00">CAMEvent</text>
</a>
</g>
</g>
<!-- Node3&#45;&gt;Node1 -->
<g id="edge2" class="edge">
<title>Node3&#45;&gt;Node1</title>
<path fill="none" stroke="#9a32cd" stroke-dasharray="5,2" d="M110,-57.04C110,-44.67 110,-29.12 110,-19.63"/>
<polygon fill="#9a32cd" stroke="#9a32cd" points="106.5,-57.23 110,-67.23 113.5,-57.23 106.5,-57.23"/>
<text text-anchor="middle" x="162" y="-41" font-family="Helvetica,sans-Serif" font-size="10.00"> m_evFlushComplete</text>
</g>
<!-- Node4 -->
<g id="node4" class="node">
<title>Node4</title>
<g id="a_node4"><a xlink:href="../../d7/d56/class_c_generic_list.html" target="_top" xlink:title=" ">
<polygon fill="white" stroke="black" points="162,-67.5 162,-86.5 332,-86.5 332,-67.5 162,-67.5"/>
<text text-anchor="middle" x="247" y="-74.5" font-family="Helvetica,sans-Serif" font-size="10.00">CGenericList&lt; IMediaSample &gt;</text>
</a>
</g>
</g>
<!-- Node4&#45;&gt;Node1 -->
<g id="edge3" class="edge">
<title>Node4&#45;&gt;Node1</title>
<path fill="none" stroke="#9a32cd" stroke-dasharray="5,2" d="M237.41,-58.68C232.51,-51.29 225.9,-43.2 218,-38 199.11,-25.57 174.93,-18.86 154.24,-15.24"/>
<polygon fill="#9a32cd" stroke="#9a32cd" points="234.51,-60.64 242.68,-67.38 240.5,-57.01 234.51,-60.64"/>
<text text-anchor="middle" x="247" y="-41" font-family="Helvetica,sans-Serif" font-size="10.00"> m_List</text>
</g>
<!-- Node5 -->
<g id="node5" class="node">
<title>Node5</title>
<g id="a_node5"><a xlink:href="../../d0/de7/class_c_base_list.html" target="_top" xlink:title=" ">
<polygon fill="white" stroke="black" points="214.5,-124.5 214.5,-143.5 279.5,-143.5 279.5,-124.5 214.5,-124.5"/>
<text text-anchor="middle" x="247" y="-131.5" font-family="Helvetica,sans-Serif" font-size="10.00">CBaseList</text>
</a>
</g>
</g>
<!-- Node5&#45;&gt;Node4 -->
<g id="edge4" class="edge">
<title>Node5&#45;&gt;Node4</title>
<path fill="none" stroke="midnightblue" d="M247,-114.12C247,-104.82 247,-94.06 247,-86.71"/>
<polygon fill="midnightblue" stroke="midnightblue" points="243.5,-114.41 247,-124.41 250.5,-114.41 243.5,-114.41"/>
</g>
<!-- Node6 -->
<g id="node6" class="node">
<title>Node6</title>
<g id="a_node6"><a xlink:href="../../d2/d5c/class_c_base_list_1_1_c_node.html" target="_top" xlink:title=" ">
<polygon fill="white" stroke="black" points="195.5,-202.5 195.5,-221.5 298.5,-221.5 298.5,-202.5 195.5,-202.5"/>
<text text-anchor="middle" x="247" y="-209.5" font-family="Helvetica,sans-Serif" font-size="10.00">CBaseList::CNode</text>
</a>
</g>
</g>
<!-- Node6&#45;&gt;Node5 -->
<g id="edge5" class="edge">
<title>Node6&#45;&gt;Node5</title>
<path fill="none" stroke="#9a32cd" stroke-dasharray="5,2" d="M247,-192.22C247,-176.7 247,-155.36 247,-143.62"/>
<polygon fill="#9a32cd" stroke="#9a32cd" points="243.5,-192.28 247,-202.28 250.5,-192.28 243.5,-192.28"/>
<text text-anchor="middle" x="270" y="-176" font-family="Helvetica,sans-Serif" font-size="10.00"> m_pFirst</text>
<text text-anchor="middle" x="270" y="-165" font-family="Helvetica,sans-Serif" font-size="10.00">m_pLast</text>
</g>
</g>
</svg>
