<?xml version="1.0" encoding="UTF-8" standalone="no"?>
<!DOCTYPE svg PUBLIC "-//W3C//DTD SVG 1.1//EN"
 "http://www.w3.org/Graphics/SVG/1.1/DTD/svg11.dtd">
<!-- Generated by graphviz version 2.40.1 (0)
 -->
<!-- Title: /home/tcbuilder/buildAgent/work/df8e8cce5bebfd58/libajacc/includes/ntv2captionlogging.h Pages: 1 -->
<!--zoomable 596 -->
<svg id="main" version="1.1" xmlns="http://www.w3.org/2000/svg" xmlns:xlink="http://www.w3.org/1999/xlink" xml:space="preserve" onload="init(evt)">
<style type="text/css"><![CDATA[
.edge:hover path { stroke: red; }
.edge:hover polygon { stroke: red; fill: red; }
]]></style>
<script type="text/javascript"><![CDATA[
var edges = document.getElementsByTagName('g');
if (edges && edges.length) {
  for (var i=0;i<edges.length;i++) {
    if (edges[i].id.substr(0,4)=='edge') {
      edges[i].setAttribute('class','edge');
    }
  }
}
]]></script>
        <defs>
                <circle id="rim" cx="0" cy="0" r="7"/>
                <circle id="rim2" cx="0" cy="0" r="3.5"/>
                <g id="zoomPlus">
                        <use xlink:href="#rim" fill="#404040">
                                <set attributeName="fill" to="#808080" begin="zoomplus.mouseover" end="zoomplus.mouseout"/>
                        </use>
                        <path d="M-4,0h8M0,-4v8" fill="none" stroke="white" stroke-width="1.5" pointer-events="none"/>
                </g>
                <g id="zoomMin">
                        <use xlink:href="#rim" fill="#404040">
                                <set attributeName="fill" to="#808080" begin="zoomminus.mouseover" end="zoomminus.mouseout"/>
                        </use>
                        <path d="M-4,0h8" fill="none" stroke="white" stroke-width="1.5" pointer-events="none"/>
                </g>
                <g id="dirArrow">
                        <path fill="none" stroke="white" stroke-width="1.5" d="M0,-3.0v7 M-2.5,-0.5L0,-3.0L2.5,-0.5"/>
                </g>
               <g id="resetDef">
                       <use xlink:href="#rim2" fill="#404040">
                               <set attributeName="fill" to="#808080" begin="reset.mouseover" end="reset.mouseout"/>
                       </use>
               </g>
        </defs>

<script type="text/javascript">
var viewWidth = 1394;
var viewHeight = 596;
var sectionId = 'dynsection-1';
</script>
<script xlink:href="../../svgpan.js"/>
<svg id="graph" class="graph">
<g id="viewport">
<title>/home/tcbuilder/buildAgent/work/df8e8cce5bebfd58/libajacc/includes/ntv2captionlogging.h</title>
<polygon fill="#ffffff" stroke="transparent" points="-4,4 -4,-592 1390,-592 1390,4 -4,4"/>
<!-- Node17 -->
<g id="node1" class="node">
<title>Node17</title>
<polygon fill="#bfbfbf" stroke="#000000" points="634.5,-546.5 634.5,-587.5 793.5,-587.5 793.5,-546.5 634.5,-546.5"/>
<text text-anchor="start" x="642.5" y="-575.5" font-family="Helvetica,sans-Serif" font-size="10.00" fill="#000000">/home/tcbuilder/buildAgent</text>
<text text-anchor="start" x="642.5" y="-564.5" font-family="Helvetica,sans-Serif" font-size="10.00" fill="#000000">/work/df8e8cce5bebfd58/libajacc</text>
<text text-anchor="middle" x="714" y="-553.5" font-family="Helvetica,sans-Serif" font-size="10.00" fill="#000000">/includes/ntv2captionlogging.h</text>
</g>
<!-- Node18 -->
<g id="node2" class="node">
<title>Node18</title>
<g id="a_node2"><a xlink:href="../../d1/dce/ntv2line21captioner_8h.html" target="_top" xlink:title="Declares the CNTV2Line21Captioner class. ">
<polygon fill="#ffffff" stroke="#000000" points="41.5,-390.5 41.5,-431.5 200.5,-431.5 200.5,-390.5 41.5,-390.5"/>
<text text-anchor="start" x="49.5" y="-419.5" font-family="Helvetica,sans-Serif" font-size="10.00" fill="#000000">/home/tcbuilder/buildAgent</text>
<text text-anchor="start" x="49.5" y="-408.5" font-family="Helvetica,sans-Serif" font-size="10.00" fill="#000000">/work/df8e8cce5bebfd58/libajacc</text>
<text text-anchor="middle" x="121" y="-397.5" font-family="Helvetica,sans-Serif" font-size="10.00" fill="#000000">/includes/ntv2line21captioner.h</text>
</a>
</g>
</g>
<!-- Node17&#45;&gt;Node18 -->
<g id="edge1" class="edge">
<title>Node17&#45;&gt;Node18</title>
<path fill="none" stroke="#191970" d="M624.2406,-563.4677C502.4178,-557.5076 292.001,-542.7395 223,-510 185.5437,-492.2278 153.321,-455.1458 135.594,-431.7521"/>
<polygon fill="#191970" stroke="#191970" points="624.1436,-566.967 634.2997,-563.9497 624.4787,-559.975 624.1436,-566.967"/>
</g>
<!-- Node25 -->
<g id="node9" class="node">
<title>Node25</title>
<g id="a_node9"><a xlink:href="../../df/dea/ntv2caption608message_8h.html" target="_top" xlink:title="Declares the CNTV2Caption608Message class. ">
<polygon fill="#ffffff" stroke="#000000" points="232.5,-468.5 232.5,-509.5 405.5,-509.5 405.5,-468.5 232.5,-468.5"/>
<text text-anchor="start" x="240.5" y="-497.5" font-family="Helvetica,sans-Serif" font-size="10.00" fill="#000000">/home/tcbuilder/buildAgent</text>
<text text-anchor="start" x="240.5" y="-486.5" font-family="Helvetica,sans-Serif" font-size="10.00" fill="#000000">/work/df8e8cce5bebfd58/libajacc</text>
<text text-anchor="middle" x="319" y="-475.5" font-family="Helvetica,sans-Serif" font-size="10.00" fill="#000000">/includes/ntv2caption608message.h</text>
</a>
</g>
</g>
<!-- Node17&#45;&gt;Node25 -->
<g id="edge8" class="edge">
<title>Node17&#45;&gt;Node25</title>
<path fill="none" stroke="#191970" d="M624.4643,-550.2114C565.7087,-539.0827 487.2174,-524.0045 418,-510 413.9531,-509.1812 409.8149,-508.3358 405.6363,-507.4755"/>
<polygon fill="#191970" stroke="#191970" points="623.9815,-553.6821 634.4578,-552.1023 625.2829,-546.8041 623.9815,-553.6821"/>
</g>
<!-- Node27 -->
<g id="node11" class="node">
<title>Node27</title>
<g id="a_node11"><a xlink:href="../../d6/dc5/ntv2caption708serviceblockqueue_8h.html" target="_top" xlink:title="Declares the CNTV2Caption708ServiceBlockQueue class. ">
<polygon fill="#ffffff" stroke="#000000" points="724,-390.5 724,-431.5 938,-431.5 938,-390.5 724,-390.5"/>
<text text-anchor="start" x="732" y="-419.5" font-family="Helvetica,sans-Serif" font-size="10.00" fill="#000000">/home/tcbuilder/buildAgent</text>
<text text-anchor="start" x="732" y="-408.5" font-family="Helvetica,sans-Serif" font-size="10.00" fill="#000000">/work/df8e8cce5bebfd58/libajacc</text>
<text text-anchor="middle" x="831" y="-397.5" font-family="Helvetica,sans-Serif" font-size="10.00" fill="#000000">/includes/ntv2caption708serviceblockqueue.h</text>
</a>
</g>
</g>
<!-- Node17&#45;&gt;Node27 -->
<g id="edge11" class="edge">
<title>Node17&#45;&gt;Node27</title>
<path fill="none" stroke="#191970" d="M776.574,-541.3009C790.0456,-533.116 802.941,-522.7755 812,-510 828.3996,-486.8724 831.652,-453.371 831.8294,-431.8866"/>
<polygon fill="#191970" stroke="#191970" points="774.6288,-538.3809 767.6725,-546.3722 778.094,-544.4631 774.6288,-538.3809"/>
</g>
<!-- Node35 -->
<g id="node19" class="node">
<title>Node35</title>
<g id="a_node19"><a xlink:href="../../d0/dbc/ntv2caption708serviceinfo_8h.html" target="_top" xlink:title="Declares the CNTV2Caption708ServiceInfo class. ">
<polygon fill="#ffffff" stroke="#000000" points="427,-468.5 427,-509.5 607,-509.5 607,-468.5 427,-468.5"/>
<text text-anchor="start" x="435" y="-497.5" font-family="Helvetica,sans-Serif" font-size="10.00" fill="#000000">/home/tcbuilder/buildAgent</text>
<text text-anchor="start" x="435" y="-486.5" font-family="Helvetica,sans-Serif" font-size="10.00" fill="#000000">/work/df8e8cce5bebfd58/libajacc</text>
<text text-anchor="middle" x="517" y="-475.5" font-family="Helvetica,sans-Serif" font-size="10.00" fill="#000000">/includes/ntv2caption708serviceinfo.h</text>
</a>
</g>
</g>
<!-- Node17&#45;&gt;Node35 -->
<g id="edge21" class="edge">
<title>Node17&#45;&gt;Node35</title>
<path fill="none" stroke="#191970" d="M652.6813,-542.7215C625.8292,-532.0897 594.6565,-519.7473 568.9668,-509.5757"/>
<polygon fill="#191970" stroke="#191970" points="651.3967,-545.9772 661.9829,-546.4044 653.9736,-539.4688 651.3967,-545.9772"/>
</g>
<!-- Node38 -->
<g id="node22" class="node">
<title>Node38</title>
<g id="a_node22"><a xlink:href="../../d2/d68/ntv2caption608dataqueue_8h.html" target="_top" xlink:title="Declaration for the CNTV2Caption608DataQueue class. ">
<polygon fill="#ffffff" stroke="#000000" points="625,-468.5 625,-509.5 803,-509.5 803,-468.5 625,-468.5"/>
<text text-anchor="start" x="633" y="-497.5" font-family="Helvetica,sans-Serif" font-size="10.00" fill="#000000">/home/tcbuilder/buildAgent</text>
<text text-anchor="start" x="633" y="-486.5" font-family="Helvetica,sans-Serif" font-size="10.00" fill="#000000">/work/df8e8cce5bebfd58/libajacc</text>
<text text-anchor="middle" x="714" y="-475.5" font-family="Helvetica,sans-Serif" font-size="10.00" fill="#000000">/includes/ntv2caption608dataqueue.h</text>
</a>
</g>
</g>
<!-- Node17&#45;&gt;Node38 -->
<g id="edge28" class="edge">
<title>Node17&#45;&gt;Node38</title>
<path fill="none" stroke="#191970" d="M714,-536.0789C714,-527.2178 714,-517.7747 714,-509.6898"/>
<polygon fill="#191970" stroke="#191970" points="710.5001,-536.0974 714,-546.0974 717.5001,-536.0975 710.5001,-536.0974"/>
</g>
<!-- Node39 -->
<g id="node23" class="node">
<title>Node39</title>
<g id="a_node23"><a xlink:href="../../d7/d7b/ntv2captiondecodechannel608_8h.html" target="_top" xlink:title="Declares the CNTV2CaptionDecodeChannel608 class. ">
<polygon fill="#ffffff" stroke="#000000" points="956,-390.5 956,-431.5 1154,-431.5 1154,-390.5 956,-390.5"/>
<text text-anchor="start" x="964" y="-419.5" font-family="Helvetica,sans-Serif" font-size="10.00" fill="#000000">/home/tcbuilder/buildAgent</text>
<text text-anchor="start" x="964" y="-408.5" font-family="Helvetica,sans-Serif" font-size="10.00" fill="#000000">/work/df8e8cce5bebfd58/libajacc</text>
<text text-anchor="middle" x="1055" y="-397.5" font-family="Helvetica,sans-Serif" font-size="10.00" fill="#000000">/includes/ntv2captiondecodechannel608.h</text>
</a>
</g>
</g>
<!-- Node17&#45;&gt;Node39 -->
<g id="edge30" class="edge">
<title>Node17&#45;&gt;Node39</title>
<path fill="none" stroke="#191970" d="M768.0527,-542.2721C834.9249,-511.6795 947.5619,-460.1506 1009.9701,-431.6002"/>
<polygon fill="#191970" stroke="#191970" points="766.568,-539.1024 758.9304,-546.4453 769.4801,-545.4679 766.568,-539.1024"/>
</g>
<!-- Node41 -->
<g id="node25" class="node">
<title>Node41</title>
<g id="a_node25"><a xlink:href="../../d7/d0a/ntv2xdscaptiondecodechannel608_8h.html" target="_top" xlink:title="Declares the CNTV2XDSDecodeChannel608 class. ">
<polygon fill="#ffffff" stroke="#000000" points="1172,-390.5 1172,-431.5 1386,-431.5 1386,-390.5 1172,-390.5"/>
<text text-anchor="start" x="1180" y="-419.5" font-family="Helvetica,sans-Serif" font-size="10.00" fill="#000000">/home/tcbuilder/buildAgent</text>
<text text-anchor="start" x="1180" y="-408.5" font-family="Helvetica,sans-Serif" font-size="10.00" fill="#000000">/work/df8e8cce5bebfd58/libajacc</text>
<text text-anchor="middle" x="1279" y="-397.5" font-family="Helvetica,sans-Serif" font-size="10.00" fill="#000000">/includes/ntv2xdscaptiondecodechannel608.h</text>
</a>
</g>
</g>
<!-- Node17&#45;&gt;Node41 -->
<g id="edge34" class="edge">
<title>Node17&#45;&gt;Node41</title>
<path fill="none" stroke="#191970" d="M798.183,-543.7566C908.2307,-513.3717 1099.295,-460.6177 1204.3903,-431.6002"/>
<polygon fill="#191970" stroke="#191970" points="797.1527,-540.41 788.4449,-546.4453 799.0157,-547.1575 797.1527,-540.41"/>
</g>
<!-- Node19 -->
<g id="node3" class="node">
<title>Node19</title>
<g id="a_node3"><a xlink:href="../../df/dc0/ntv2captionencoder608_8h.html" target="_top" xlink:title="Declares the CNTV2CaptionEncoder608 class. ">
<polygon fill="#ffffff" stroke="#000000" points="95.5,-312.5 95.5,-353.5 262.5,-353.5 262.5,-312.5 95.5,-312.5"/>
<text text-anchor="start" x="103.5" y="-341.5" font-family="Helvetica,sans-Serif" font-size="10.00" fill="#000000">/home/tcbuilder/buildAgent</text>
<text text-anchor="start" x="103.5" y="-330.5" font-family="Helvetica,sans-Serif" font-size="10.00" fill="#000000">/work/df8e8cce5bebfd58/libajacc</text>
<text text-anchor="middle" x="179" y="-319.5" font-family="Helvetica,sans-Serif" font-size="10.00" fill="#000000">/includes/ntv2captionencoder608.h</text>
</a>
</g>
</g>
<!-- Node18&#45;&gt;Node19 -->
<g id="edge2" class="edge">
<title>Node18&#45;&gt;Node19</title>
<path fill="none" stroke="#191970" d="M142.7094,-381.8046C149.6615,-372.4552 157.2113,-362.302 163.6153,-353.6898"/>
<polygon fill="#191970" stroke="#191970" points="139.7014,-379.9843 136.5429,-390.0974 145.3186,-384.1613 139.7014,-379.9843"/>
</g>
<!-- Node24 -->
<g id="node8" class="node">
<title>Node24</title>
<g id="a_node8"><a xlink:href="../../d9/dca/ntv2ccgrabber_8cpp.html" target="_top" xlink:title="Implementation of NTV2CCGrabber class. ">
<polygon fill="#ffffff" stroke="#000000" points="139,-.5 139,-41.5 335,-41.5 335,-.5 139,-.5"/>
<text text-anchor="start" x="147" y="-29.5" font-family="Helvetica,sans-Serif" font-size="10.00" fill="#000000">/home/tcbuilder/buildAgent</text>
<text text-anchor="start" x="147" y="-18.5" font-family="Helvetica,sans-Serif" font-size="10.00" fill="#000000">/work/df8e8cce5bebfd58/libajantv2</text>
<text text-anchor="middle" x="237" y="-7.5" font-family="Helvetica,sans-Serif" font-size="10.00" fill="#000000">/demos/ntv2ccgrabber/ntv2ccgrabber.cpp</text>
</a>
</g>
</g>
<!-- Node18&#45;&gt;Node24 -->
<g id="edge7" class="edge">
<title>Node18&#45;&gt;Node24</title>
<path fill="none" stroke="#191970" d="M81.8962,-384.1348C46.5426,-356.3422 0,-309.4195 0,-255 0,-255 0,-255 0,-177 0,-103.6035 80.2862,-62.7985 147.4005,-41.5103"/>
<polygon fill="#191970" stroke="#191970" points="80.0826,-387.1538 90.1535,-390.4442 84.3326,-381.5916 80.0826,-387.1538"/>
</g>
<!-- Node20 -->
<g id="node4" class="node">
<title>Node20</title>
<g id="a_node4"><a xlink:href="../../d9/dda/ajacc_8h.html" target="_top" xlink:title="The public interface to the AJA closed&#45;captioning library. It currently supports the CEA&#45;608 standard...">
<polygon fill="#ffffff" stroke="#000000" points="108.5,-78.5 108.5,-119.5 267.5,-119.5 267.5,-78.5 108.5,-78.5"/>
<text text-anchor="start" x="116.5" y="-107.5" font-family="Helvetica,sans-Serif" font-size="10.00" fill="#000000">/home/tcbuilder/buildAgent</text>
<text text-anchor="start" x="116.5" y="-96.5" font-family="Helvetica,sans-Serif" font-size="10.00" fill="#000000">/work/df8e8cce5bebfd58/libajacc</text>
<text text-anchor="middle" x="188" y="-85.5" font-family="Helvetica,sans-Serif" font-size="10.00" fill="#000000">/includes/ajacc.h</text>
</a>
</g>
</g>
<!-- Node19&#45;&gt;Node20 -->
<g id="edge3" class="edge">
<title>Node19&#45;&gt;Node20</title>
<path fill="none" stroke="#191970" d="M137.7694,-306.3399C89.8479,-271.9244 21.5838,-210.0336 57,-156 68.9649,-137.7454 88.1835,-125.3055 108.2549,-116.8397"/>
<polygon fill="#191970" stroke="#191970" points="135.9606,-309.3466 146.1544,-312.2342 139.9862,-303.62 135.9606,-309.3466"/>
</g>
<!-- Node21 -->
<g id="node5" class="node">
<title>Node21</title>
<g id="a_node5"><a xlink:href="../../d3/db1/ntv2ccplayer_8h.html" target="_top" xlink:title="/home/tcbuilder/buildAgent\l/work/df8e8cce5bebfd58/libajantv2\l/demos/ntv2ccplayer/ntv2ccplayer.h">
<polygon fill="#ffffff" stroke="#000000" points="110.5,-234.5 110.5,-275.5 283.5,-275.5 283.5,-234.5 110.5,-234.5"/>
<text text-anchor="start" x="118.5" y="-263.5" font-family="Helvetica,sans-Serif" font-size="10.00" fill="#000000">/home/tcbuilder/buildAgent</text>
<text text-anchor="start" x="118.5" y="-252.5" font-family="Helvetica,sans-Serif" font-size="10.00" fill="#000000">/work/df8e8cce5bebfd58/libajantv2</text>
<text text-anchor="middle" x="197" y="-241.5" font-family="Helvetica,sans-Serif" font-size="10.00" fill="#000000">/demos/ntv2ccplayer/ntv2ccplayer.h</text>
</a>
</g>
</g>
<!-- Node19&#45;&gt;Node21 -->
<g id="edge4" class="edge">
<title>Node19&#45;&gt;Node21</title>
<path fill="none" stroke="#191970" d="M186.1356,-302.0789C188.1805,-293.2178 190.3597,-283.7747 192.2254,-275.6898"/>
<polygon fill="#191970" stroke="#191970" points="182.662,-301.5665 183.8237,-312.0974 189.4827,-303.1406 182.662,-301.5665"/>
</g>
<!-- Node22 -->
<g id="node6" class="node">
<title>Node22</title>
<g id="a_node6"><a xlink:href="../../d8/dc4/ntv2ccplayer_2main_8cpp.html" target="_top" xlink:title="Complex demonstration application that plays synthesized video to SDI output containing NTSC captions...">
<polygon fill="#ffffff" stroke="#000000" points="268.5,-156.5 268.5,-197.5 435.5,-197.5 435.5,-156.5 268.5,-156.5"/>
<text text-anchor="start" x="276.5" y="-185.5" font-family="Helvetica,sans-Serif" font-size="10.00" fill="#000000">/home/tcbuilder/buildAgent</text>
<text text-anchor="start" x="276.5" y="-174.5" font-family="Helvetica,sans-Serif" font-size="10.00" fill="#000000">/work/df8e8cce5bebfd58/libajantv2</text>
<text text-anchor="middle" x="352" y="-163.5" font-family="Helvetica,sans-Serif" font-size="10.00" fill="#000000">/demos/ntv2ccplayer/main.cpp</text>
</a>
</g>
</g>
<!-- Node21&#45;&gt;Node22 -->
<g id="edge5" class="edge">
<title>Node21&#45;&gt;Node22</title>
<path fill="none" stroke="#191970" d="M247.1135,-229.7816C267.8444,-219.3493 291.5755,-207.4072 311.2154,-197.5239"/>
<polygon fill="#191970" stroke="#191970" points="245.4896,-226.6805 238.1302,-234.3022 248.6363,-232.9334 245.4896,-226.6805"/>
</g>
<!-- Node23 -->
<g id="node7" class="node">
<title>Node23</title>
<g id="a_node7"><a xlink:href="../../de/d67/ntv2ccplayer_8cpp.html" target="_top" xlink:title="Implementation of NTV2CCPlayer class. ">
<polygon fill="#ffffff" stroke="#000000" points="66,-156.5 66,-197.5 250,-197.5 250,-156.5 66,-156.5"/>
<text text-anchor="start" x="74" y="-185.5" font-family="Helvetica,sans-Serif" font-size="10.00" fill="#000000">/home/tcbuilder/buildAgent</text>
<text text-anchor="start" x="74" y="-174.5" font-family="Helvetica,sans-Serif" font-size="10.00" fill="#000000">/work/df8e8cce5bebfd58/libajantv2</text>
<text text-anchor="middle" x="158" y="-163.5" font-family="Helvetica,sans-Serif" font-size="10.00" fill="#000000">/demos/ntv2ccplayer/ntv2ccplayer.cpp</text>
</a>
</g>
</g>
<!-- Node21&#45;&gt;Node23 -->
<g id="edge6" class="edge">
<title>Node21&#45;&gt;Node23</title>
<path fill="none" stroke="#191970" d="M181.9719,-224.9438C177.4175,-215.8351 172.5192,-206.0384 168.3449,-197.6898"/>
<polygon fill="#191970" stroke="#191970" points="178.946,-226.7184 186.5487,-234.0974 185.207,-223.5879 178.946,-226.7184"/>
</g>
<!-- Node26 -->
<g id="node10" class="node">
<title>Node26</title>
<g id="a_node10"><a xlink:href="../../d2/d61/ntv2caption608messagequeue_8h.html" target="_top" xlink:title="Declares the CNTV2Caption608MessageQueue class. ">
<polygon fill="#ffffff" stroke="#000000" points="218.5,-390.5 218.5,-431.5 417.5,-431.5 417.5,-390.5 218.5,-390.5"/>
<text text-anchor="start" x="226.5" y="-419.5" font-family="Helvetica,sans-Serif" font-size="10.00" fill="#000000">/home/tcbuilder/buildAgent</text>
<text text-anchor="start" x="226.5" y="-408.5" font-family="Helvetica,sans-Serif" font-size="10.00" fill="#000000">/work/df8e8cce5bebfd58/libajacc</text>
<text text-anchor="middle" x="318" y="-397.5" font-family="Helvetica,sans-Serif" font-size="10.00" fill="#000000">/includes/ntv2caption608messagequeue.h</text>
</a>
</g>
</g>
<!-- Node25&#45;&gt;Node26 -->
<g id="edge9" class="edge">
<title>Node25&#45;&gt;Node26</title>
<path fill="none" stroke="#191970" d="M318.6036,-458.0789C318.49,-449.2178 318.3689,-439.7747 318.2653,-431.6898"/>
<polygon fill="#191970" stroke="#191970" points="315.104,-458.1432 318.732,-468.0974 322.1034,-458.0534 315.104,-458.1432"/>
</g>
<!-- Node26&#45;&gt;Node19 -->
<g id="edge10" class="edge">
<title>Node26&#45;&gt;Node19</title>
<path fill="none" stroke="#191970" d="M272.3077,-385.3597C253.8967,-375.0283 232.9502,-363.2742 215.5746,-353.5239"/>
<polygon fill="#191970" stroke="#191970" points="270.6819,-388.4608 281.1155,-390.3022 274.1075,-382.3562 270.6819,-388.4608"/>
</g>
<!-- Node28 -->
<g id="node12" class="node">
<title>Node28</title>
<g id="a_node12"><a xlink:href="../../dc/df3/ntv2caption708service_8h.html" target="_top" xlink:title="Declares the CNTV2Caption708Service class. ">
<polygon fill="#ffffff" stroke="#000000" points="499,-234.5 499,-275.5 663,-275.5 663,-234.5 499,-234.5"/>
<text text-anchor="start" x="507" y="-263.5" font-family="Helvetica,sans-Serif" font-size="10.00" fill="#000000">/home/tcbuilder/buildAgent</text>
<text text-anchor="start" x="507" y="-252.5" font-family="Helvetica,sans-Serif" font-size="10.00" fill="#000000">/work/df8e8cce5bebfd58/libajacc</text>
<text text-anchor="middle" x="581" y="-241.5" font-family="Helvetica,sans-Serif" font-size="10.00" fill="#000000">/includes/ntv2caption708service.h</text>
</a>
</g>
</g>
<!-- Node27&#45;&gt;Node28 -->
<g id="edge12" class="edge">
<title>Node27&#45;&gt;Node28</title>
<path fill="none" stroke="#191970" d="M775.7103,-385.9883C756.4282,-376.6436 734.8968,-365.4938 716,-354 676.0211,-329.6833 632.9326,-296.7956 606.4583,-275.7355"/>
<polygon fill="#191970" stroke="#191970" points="774.4431,-389.262 784.974,-390.4242 777.4664,-382.9485 774.4431,-389.262"/>
</g>
<!-- Node33 -->
<g id="node17" class="node">
<title>Node33</title>
<g id="a_node17"><a xlink:href="../../de/dc3/ntv2captiontranslatorchannel608to708_8h.html" target="_top" xlink:title="Declares the CNTV2CaptionTranslatorChannel608to708 class. ">
<polygon fill="#ffffff" stroke="#000000" points="724.5,-312.5 724.5,-353.5 955.5,-353.5 955.5,-312.5 724.5,-312.5"/>
<text text-anchor="start" x="732.5" y="-341.5" font-family="Helvetica,sans-Serif" font-size="10.00" fill="#000000">/home/tcbuilder/buildAgent</text>
<text text-anchor="start" x="732.5" y="-330.5" font-family="Helvetica,sans-Serif" font-size="10.00" fill="#000000">/work/df8e8cce5bebfd58/libajacc</text>
<text text-anchor="middle" x="840" y="-319.5" font-family="Helvetica,sans-Serif" font-size="10.00" fill="#000000">/includes/ntv2captiontranslatorchannel608to708.h</text>
</a>
</g>
</g>
<!-- Node27&#45;&gt;Node33 -->
<g id="edge19" class="edge">
<title>Node27&#45;&gt;Node33</title>
<path fill="none" stroke="#191970" d="M834.5678,-380.0789C835.5903,-371.2178 836.6798,-361.7747 837.6127,-353.6898"/>
<polygon fill="#191970" stroke="#191970" points="831.0812,-379.7621 833.4118,-390.0974 838.0351,-380.5646 831.0812,-379.7621"/>
</g>
<!-- Node29 -->
<g id="node13" class="node">
<title>Node29</title>
<g id="a_node13"><a xlink:href="../../d1/d13/ntv2captiondecoder708_8h.html" target="_top" xlink:title="Declares the CNTV2CaptionDecoder708 class. ">
<polygon fill="#ffffff" stroke="#000000" points="497.5,-156.5 497.5,-197.5 664.5,-197.5 664.5,-156.5 497.5,-156.5"/>
<text text-anchor="start" x="505.5" y="-185.5" font-family="Helvetica,sans-Serif" font-size="10.00" fill="#000000">/home/tcbuilder/buildAgent</text>
<text text-anchor="start" x="505.5" y="-174.5" font-family="Helvetica,sans-Serif" font-size="10.00" fill="#000000">/work/df8e8cce5bebfd58/libajacc</text>
<text text-anchor="middle" x="581" y="-163.5" font-family="Helvetica,sans-Serif" font-size="10.00" fill="#000000">/includes/ntv2captiondecoder708.h</text>
</a>
</g>
</g>
<!-- Node28&#45;&gt;Node29 -->
<g id="edge13" class="edge">
<title>Node28&#45;&gt;Node29</title>
<path fill="none" stroke="#191970" d="M581,-224.0789C581,-215.2178 581,-205.7747 581,-197.6898"/>
<polygon fill="#191970" stroke="#191970" points="577.5001,-224.0974 581,-234.0974 584.5001,-224.0975 577.5001,-224.0974"/>
</g>
<!-- Node29&#45;&gt;Node20 -->
<g id="edge14" class="edge">
<title>Node29&#45;&gt;Node20</title>
<path fill="none" stroke="#191970" d="M487.0469,-158.3528C420.1164,-145.0689 331.1341,-127.4083 267.6746,-114.8133"/>
<polygon fill="#191970" stroke="#191970" points="486.6836,-161.8489 497.1737,-160.3627 488.0464,-154.9828 486.6836,-161.8489"/>
</g>
<!-- Node30 -->
<g id="node14" class="node">
<title>Node30</title>
<g id="a_node14"><a xlink:href="../../d1/d46/ntv2captiontranslator708to708_8h.html" target="_top" xlink:title="Declares the CNTV2CaptionTranslator708to708 class. ">
<polygon fill="#ffffff" stroke="#000000" points="365.5,-78.5 365.5,-119.5 562.5,-119.5 562.5,-78.5 365.5,-78.5"/>
<text text-anchor="start" x="373.5" y="-107.5" font-family="Helvetica,sans-Serif" font-size="10.00" fill="#000000">/home/tcbuilder/buildAgent</text>
<text text-anchor="start" x="373.5" y="-96.5" font-family="Helvetica,sans-Serif" font-size="10.00" fill="#000000">/work/df8e8cce5bebfd58/libajacc</text>
<text text-anchor="middle" x="464" y="-85.5" font-family="Helvetica,sans-Serif" font-size="10.00" fill="#000000">/includes/ntv2captiontranslator708to708.h</text>
</a>
</g>
</g>
<!-- Node29&#45;&gt;Node30 -->
<g id="edge15" class="edge">
<title>Node29&#45;&gt;Node30</title>
<path fill="none" stroke="#191970" d="M541.267,-150.5113C526.083,-140.3887 509.0124,-129.0083 494.7858,-119.5239"/>
<polygon fill="#191970" stroke="#191970" points="539.6913,-153.6674 549.9533,-156.3022 543.5743,-147.843 539.6913,-153.6674"/>
</g>
<!-- Node31 -->
<g id="node15" class="node">
<title>Node31</title>
<g id="a_node15"><a xlink:href="../../da/d4f/ntv2ccgrabber_8h.html" target="_top" xlink:title="Header file for NTV2CCGrabber demonstration class. ">
<polygon fill="#ffffff" stroke="#000000" points="580.5,-78.5 580.5,-119.5 765.5,-119.5 765.5,-78.5 580.5,-78.5"/>
<text text-anchor="start" x="588.5" y="-107.5" font-family="Helvetica,sans-Serif" font-size="10.00" fill="#000000">/home/tcbuilder/buildAgent</text>
<text text-anchor="start" x="588.5" y="-96.5" font-family="Helvetica,sans-Serif" font-size="10.00" fill="#000000">/work/df8e8cce5bebfd58/libajantv2</text>
<text text-anchor="middle" x="673" y="-85.5" font-family="Helvetica,sans-Serif" font-size="10.00" fill="#000000">/demos/ntv2ccgrabber/ntv2ccgrabber.h</text>
</a>
</g>
</g>
<!-- Node29&#45;&gt;Node31 -->
<g id="edge16" class="edge">
<title>Node29&#45;&gt;Node31</title>
<path fill="none" stroke="#191970" d="M613.4215,-149.5122C624.9898,-139.7043 637.8167,-128.8293 648.5966,-119.6898"/>
<polygon fill="#191970" stroke="#191970" points="611.0185,-146.9609 605.6543,-156.0974 615.5453,-152.3002 611.0185,-146.9609"/>
</g>
<!-- Node31&#45;&gt;Node24 -->
<g id="edge18" class="edge">
<title>Node31&#45;&gt;Node24</title>
<path fill="none" stroke="#191970" d="M570.2402,-77.6932C485.5742,-61.806 399.3473,-47.2502 335.0153,-36.7106"/>
<polygon fill="#191970" stroke="#191970" points="569.813,-81.1742 580.2882,-79.5864 571.1092,-74.2953 569.813,-81.1742"/>
</g>
<!-- Node32 -->
<g id="node16" class="node">
<title>Node32</title>
<g id="a_node16"><a xlink:href="../../d3/dbe/ntv2ccgrabber_2main_8cpp.html" target="_top" xlink:title="Demonstration application that grabs closed&#45;captioning data from frames captured from SDI input (usin...">
<polygon fill="#ffffff" stroke="#000000" points="589.5,-.5 589.5,-41.5 756.5,-41.5 756.5,-.5 589.5,-.5"/>
<text text-anchor="start" x="597.5" y="-29.5" font-family="Helvetica,sans-Serif" font-size="10.00" fill="#000000">/home/tcbuilder/buildAgent</text>
<text text-anchor="start" x="597.5" y="-18.5" font-family="Helvetica,sans-Serif" font-size="10.00" fill="#000000">/work/df8e8cce5bebfd58/libajantv2</text>
<text text-anchor="middle" x="673" y="-7.5" font-family="Helvetica,sans-Serif" font-size="10.00" fill="#000000">/demos/ntv2ccgrabber/main.cpp</text>
</a>
</g>
</g>
<!-- Node31&#45;&gt;Node32 -->
<g id="edge17" class="edge">
<title>Node31&#45;&gt;Node32</title>
<path fill="none" stroke="#191970" d="M673,-68.0789C673,-59.2178 673,-49.7747 673,-41.6898"/>
<polygon fill="#191970" stroke="#191970" points="669.5001,-68.0974 673,-78.0974 676.5001,-68.0975 669.5001,-68.0974"/>
</g>
<!-- Node34 -->
<g id="node18" class="node">
<title>Node34</title>
<g id="a_node18"><a xlink:href="../../df/d2f/ntv2captiontranslator608to708_8h.html" target="_top" xlink:title="Declares the CNTV2CaptionTranslator608to708 class. ">
<polygon fill="#ffffff" stroke="#000000" points="773.5,-234.5 773.5,-275.5 970.5,-275.5 970.5,-234.5 773.5,-234.5"/>
<text text-anchor="start" x="781.5" y="-263.5" font-family="Helvetica,sans-Serif" font-size="10.00" fill="#000000">/home/tcbuilder/buildAgent</text>
<text text-anchor="start" x="781.5" y="-252.5" font-family="Helvetica,sans-Serif" font-size="10.00" fill="#000000">/work/df8e8cce5bebfd58/libajacc</text>
<text text-anchor="middle" x="872" y="-241.5" font-family="Helvetica,sans-Serif" font-size="10.00" fill="#000000">/includes/ntv2captiontranslator608to708.h</text>
</a>
</g>
</g>
<!-- Node33&#45;&gt;Node34 -->
<g id="edge20" class="edge">
<title>Node33&#45;&gt;Node34</title>
<path fill="none" stroke="#191970" d="M852.4489,-302.6559C856.1522,-293.629 860.1229,-283.9505 863.5119,-275.6898"/>
<polygon fill="#191970" stroke="#191970" points="849.1329,-301.5173 848.5754,-312.0974 855.6091,-304.1742 849.1329,-301.5173"/>
</g>
<!-- Node36 -->
<g id="node20" class="node">
<title>Node36</title>
<g id="a_node20"><a xlink:href="../../dc/d2f/ntv2captionencoder708_8h.html" target="_top" xlink:title="Declares the CNTV2CaptionEncoder708 class. ">
<polygon fill="#ffffff" stroke="#000000" points="435.5,-390.5 435.5,-431.5 602.5,-431.5 602.5,-390.5 435.5,-390.5"/>
<text text-anchor="start" x="443.5" y="-419.5" font-family="Helvetica,sans-Serif" font-size="10.00" fill="#000000">/home/tcbuilder/buildAgent</text>
<text text-anchor="start" x="443.5" y="-408.5" font-family="Helvetica,sans-Serif" font-size="10.00" fill="#000000">/work/df8e8cce5bebfd58/libajacc</text>
<text text-anchor="middle" x="519" y="-397.5" font-family="Helvetica,sans-Serif" font-size="10.00" fill="#000000">/includes/ntv2captionencoder708.h</text>
</a>
</g>
</g>
<!-- Node35&#45;&gt;Node36 -->
<g id="edge22" class="edge">
<title>Node35&#45;&gt;Node36</title>
<path fill="none" stroke="#191970" d="M517.7928,-458.0789C518.0201,-449.2178 518.2622,-439.7747 518.4695,-431.6898"/>
<polygon fill="#191970" stroke="#191970" points="514.2935,-458.011 517.536,-468.0974 521.2912,-458.1905 514.2935,-458.011"/>
</g>
<!-- Node36&#45;&gt;Node21 -->
<g id="edge27" class="edge">
<title>Node36&#45;&gt;Node21</title>
<path fill="none" stroke="#191970" d="M467.5711,-386.0841C404.3781,-355.4689 298.3313,-304.0922 239.5209,-275.6002"/>
<polygon fill="#191970" stroke="#191970" points="466.0475,-389.2351 476.573,-390.4453 469.0995,-382.9354 466.0475,-389.2351"/>
</g>
<!-- Node36&#45;&gt;Node30 -->
<g id="edge26" class="edge">
<title>Node36&#45;&gt;Node30</title>
<path fill="none" stroke="#191970" d="M478.8266,-383.8319C469.6124,-375.4441 461.0482,-365.3753 456,-354 437.4942,-312.3005 453.9513,-172.593 461.0859,-119.6105"/>
<polygon fill="#191970" stroke="#191970" points="476.7665,-386.674 486.6564,-390.4741 481.2948,-381.336 476.7665,-386.674"/>
</g>
<!-- Node36&#45;&gt;Node33 -->
<g id="edge25" class="edge">
<title>Node36&#45;&gt;Node33</title>
<path fill="none" stroke="#191970" d="M612.3135,-388.3257C657.5613,-377.3309 711.5026,-364.2237 755.5225,-353.5272"/>
<polygon fill="#191970" stroke="#191970" points="611.3918,-384.9477 602.501,-390.71 613.0447,-391.7498 611.3918,-384.9477"/>
</g>
<!-- Node37 -->
<g id="node21" class="node">
<title>Node37</title>
<g id="a_node21"><a xlink:href="../../db/d23/ntv2caption708window_8h.html" target="_top" xlink:title="Declares the CNTV2Caption708Window class. ">
<polygon fill="#ffffff" stroke="#000000" points="464.5,-312.5 464.5,-353.5 629.5,-353.5 629.5,-312.5 464.5,-312.5"/>
<text text-anchor="start" x="472.5" y="-341.5" font-family="Helvetica,sans-Serif" font-size="10.00" fill="#000000">/home/tcbuilder/buildAgent</text>
<text text-anchor="start" x="472.5" y="-330.5" font-family="Helvetica,sans-Serif" font-size="10.00" fill="#000000">/work/df8e8cce5bebfd58/libajacc</text>
<text text-anchor="middle" x="547" y="-319.5" font-family="Helvetica,sans-Serif" font-size="10.00" fill="#000000">/includes/ntv2caption708window.h</text>
</a>
</g>
</g>
<!-- Node36&#45;&gt;Node37 -->
<g id="edge23" class="edge">
<title>Node36&#45;&gt;Node37</title>
<path fill="none" stroke="#191970" d="M529.8928,-380.6559C533.1332,-371.629 536.6075,-361.9505 539.5729,-353.6898"/>
<polygon fill="#191970" stroke="#191970" points="526.588,-379.5029 526.5035,-390.0974 533.1764,-381.868 526.588,-379.5029"/>
</g>
<!-- Node37&#45;&gt;Node28 -->
<g id="edge24" class="edge">
<title>Node37&#45;&gt;Node28</title>
<path fill="none" stroke="#191970" d="M560.2269,-302.6559C564.1617,-293.629 568.3805,-283.9505 571.9814,-275.6898"/>
<polygon fill="#191970" stroke="#191970" points="556.8988,-301.5319 556.1114,-312.0974 563.3157,-304.329 556.8988,-301.5319"/>
</g>
<!-- Node38&#45;&gt;Node29 -->
<g id="edge29" class="edge">
<title>Node38&#45;&gt;Node29</title>
<path fill="none" stroke="#191970" d="M712.072,-458.1183C707.8477,-398.5183 696.1629,-270.3054 672,-234 661.7746,-218.6361 645.8488,-206.6308 630.1606,-197.6841"/>
<polygon fill="#191970" stroke="#191970" points="708.6016,-458.6727 712.7753,-468.4108 715.5853,-458.1955 708.6016,-458.6727"/>
</g>
<!-- Node39&#45;&gt;Node33 -->
<g id="edge33" class="edge">
<title>Node39&#45;&gt;Node33</title>
<path fill="none" stroke="#191970" d="M988.4622,-386.8607C959.0702,-376.1976 924.8745,-363.7917 896.715,-353.5757"/>
<polygon fill="#191970" stroke="#191970" points="987.6359,-390.2841 998.23,-390.4044 990.0232,-383.7037 987.6359,-390.2841"/>
</g>
<!-- Node40 -->
<g id="node24" class="node">
<title>Node40</title>
<g id="a_node24"><a xlink:href="../../d5/d40/ntv2captiondecoder608_8h.html" target="_top" xlink:title="Declares the CNTV2CaptionDecoder608 class. ">
<polygon fill="#ffffff" stroke="#000000" points="1012.5,-312.5 1012.5,-353.5 1179.5,-353.5 1179.5,-312.5 1012.5,-312.5"/>
<text text-anchor="start" x="1020.5" y="-341.5" font-family="Helvetica,sans-Serif" font-size="10.00" fill="#000000">/home/tcbuilder/buildAgent</text>
<text text-anchor="start" x="1020.5" y="-330.5" font-family="Helvetica,sans-Serif" font-size="10.00" fill="#000000">/work/df8e8cce5bebfd58/libajacc</text>
<text text-anchor="middle" x="1096" y="-319.5" font-family="Helvetica,sans-Serif" font-size="10.00" fill="#000000">/includes/ntv2captiondecoder608.h</text>
</a>
</g>
</g>
<!-- Node39&#45;&gt;Node40 -->
<g id="edge31" class="edge">
<title>Node39&#45;&gt;Node40</title>
<path fill="none" stroke="#191970" d="M1070.6477,-381.2312C1075.4782,-372.0415 1080.69,-362.1263 1085.1246,-353.6898"/>
<polygon fill="#191970" stroke="#191970" points="1067.542,-379.6173 1065.9872,-390.0974 1073.7382,-382.8743 1067.542,-379.6173"/>
</g>
<!-- Node40&#45;&gt;Node31 -->
<g id="edge32" class="edge">
<title>Node40&#45;&gt;Node31</title>
<path fill="none" stroke="#191970" d="M1068.2015,-305.1686C1045.7812,-283.7801 1012.6998,-254.5189 980,-234 899.6106,-183.5561 797.1309,-142.6189 733.2824,-119.5327"/>
<polygon fill="#191970" stroke="#191970" points="1066.0439,-307.9506 1075.6691,-312.3784 1070.906,-302.9146 1066.0439,-307.9506"/>
</g>
<!-- Node41&#45;&gt;Node34 -->
<g id="edge36" class="edge">
<title>Node41&#45;&gt;Node34</title>
<path fill="none" stroke="#191970" d="M1162.264,-388.4687C1090.676,-374.3737 1011.3269,-358.1311 1004,-354 981.8107,-341.489 984.7087,-328.1387 965,-312 948.2971,-298.3227 928.028,-285.5234 910.6811,-275.5325"/>
<polygon fill="#191970" stroke="#191970" points="1161.8183,-391.948 1172.3055,-390.4418 1163.168,-385.0793 1161.8183,-391.948"/>
</g>
<!-- Node41&#45;&gt;Node40 -->
<g id="edge35" class="edge">
<title>Node41&#45;&gt;Node40</title>
<path fill="none" stroke="#191970" d="M1221.1473,-386.3415C1196.3646,-375.7784 1167.7558,-363.5844 1144.1521,-353.5239"/>
<polygon fill="#191970" stroke="#191970" points="1219.8682,-389.6009 1230.4398,-390.3022 1222.6129,-383.1614 1219.8682,-389.6009"/>
</g>
</g>
</svg>
        <g id="navigator" transform="translate(0 0)" fill="#404254">
                <rect fill="#f2f5e9" fill-opacity="0.5" stroke="#606060" stroke-width=".5" x="0" y="0" width="60" height="60"/>
                <use id="zoomplus" xlink:href="#zoomPlus" x="17" y="9" onmousedown="handleZoom(evt,'in')"/>
                <use id="zoomminus" xlink:href="#zoomMin" x="42" y="9" onmousedown="handleZoom(evt,'out')"/>
                <use id="reset" xlink:href="#resetDef" x="30" y="36" onmousedown="handleReset()"/>
                <g id="arrowUp" xlink:href="#dirArrow" transform="translate(30 24)" onmousedown="handlePan(0,-1)">
                  <use xlink:href="#rim" fill="#404040">
                        <set attributeName="fill" to="#808080" begin="arrowUp.mouseover" end="arrowUp.mouseout"/>
                  </use>
                  <path fill="none" stroke="white" stroke-width="1.5" d="M0,-3.0v7 M-2.5,-0.5L0,-3.0L2.5,-0.5"/>
                </g>
                <g id="arrowRight" xlink:href="#dirArrow" transform="rotate(90) translate(36 -43)" onmousedown="handlePan(1,0)">
                  <use xlink:href="#rim" fill="#404040">
                        <set attributeName="fill" to="#808080" begin="arrowRight.mouseover" end="arrowRight.mouseout"/>
                  </use>
                  <path fill="none" stroke="white" stroke-width="1.5" d="M0,-3.0v7 M-2.5,-0.5L0,-3.0L2.5,-0.5"/>
                </g>
                <g id="arrowDown" xlink:href="#dirArrow" transform="rotate(180) translate(-30 -48)" onmousedown="handlePan(0,1)">
                  <use xlink:href="#rim" fill="#404040">
                        <set attributeName="fill" to="#808080" begin="arrowDown.mouseover" end="arrowDown.mouseout"/>
                  </use>
                  <path fill="none" stroke="white" stroke-width="1.5" d="M0,-3.0v7 M-2.5,-0.5L0,-3.0L2.5,-0.5"/>
                </g>
                <g id="arrowLeft" xlink:href="#dirArrow" transform="rotate(270) translate(-36 17)" onmousedown="handlePan(-1,0)">
                  <use xlink:href="#rim" fill="#404040">
                        <set attributeName="fill" to="#808080" begin="arrowLeft.mouseover" end="arrowLeft.mouseout"/>
                  </use>
                  <path fill="none" stroke="white" stroke-width="1.5" d="M0,-3.0v7 M-2.5,-0.5L0,-3.0L2.5,-0.5"/>
                </g>
        </g>
        <svg viewBox="0 0 15 15" width="100%" height="30px" preserveAspectRatio="xMaxYMin meet">
         <g id="arrow_out" transform="scale(0.3 0.3)">
          <a xlink:href="ntv2captionlogging_8h__dep__incl_org.svg" target="_base">
           <rect id="button" ry="5" rx="5" y="6" x="6" height="38" width="38"
                fill="#f2f5e9" fill-opacity="0.5" stroke="#606060" stroke-width="1.0"/>
           <path id="arrow"
             d="M 11.500037,31.436501 C 11.940474,20.09759 22.043105,11.32322 32.158766,21.979434 L 37.068811,17.246167 C 37.068811,17.246167 37.088388,32 37.088388,32 L 22.160133,31.978069 C 22.160133,31.978069 26.997745,27.140456 26.997745,27.140456 C 18.528582,18.264221 13.291696,25.230495 11.500037,31.436501 z"
             style="fill:#404040;"/>
          </a>
         </g>
        </svg>
</svg>
