<?xml version="1.0" encoding="UTF-8" standalone="no"?>
<!DOCTYPE svg PUBLIC "-//W3C//DTD SVG 1.1//EN"
 "http://www.w3.org/Graphics/SVG/1.1/DTD/svg11.dtd">
<!-- Generated by graphviz version 2.40.1 (0)
 -->
<!-- Title: _AJADebugShare Pages: 1 -->
<svg width="218pt" height="95pt"
 viewBox="0.00 0.00 217.50 95.00" xmlns="http://www.w3.org/2000/svg" xmlns:xlink="http://www.w3.org/1999/xlink">
<g id="graph0" class="graph" transform="scale(1 1) rotate(0) translate(4 91)">
<title>_AJADebugShare</title>
<polygon fill="#ffffff" stroke="transparent" points="-4,4 -4,-91 213.5,-91 213.5,4 -4,4"/>
<!-- Node1 -->
<g id="node1" class="node">
<title>Node1</title>
<polygon fill="#bfbfbf" stroke="#000000" points="50.5,-.5 50.5,-19.5 145.5,-19.5 145.5,-.5 50.5,-.5"/>
<text text-anchor="middle" x="98" y="-7.5" font-family="Helvetica,sans-Serif" font-size="10.00" fill="#000000">_AJADebugShare</text>
</g>
<!-- Node2 -->
<g id="node2" class="node">
<title>Node2</title>
<g id="a_node2"><a xlink:href="../../dd/d35/class_a_j_a_debug_stat.html" target="_top" xlink:title="AJADebugStat">
<polygon fill="#ffffff" stroke="#000000" points="0,-67.5 0,-86.5 82,-86.5 82,-67.5 0,-67.5"/>
<text text-anchor="middle" x="41" y="-74.5" font-family="Helvetica,sans-Serif" font-size="10.00" fill="#000000">AJADebugStat</text>
</a>
</g>
</g>
<!-- Node2&#45;&gt;Node1 -->
<g id="edge1" class="edge">
<title>Node2&#45;&gt;Node1</title>
<path fill="none" stroke="#9a32cd" stroke-dasharray="5,2" d="M55.7054,-59.7147C66.5726,-46.941 80.966,-30.0224 89.8484,-19.5817"/>
<polygon fill="#9a32cd" stroke="#9a32cd" points="52.9807,-57.516 49.1667,-67.4005 58.3123,-62.0519 52.9807,-57.516"/>
<text text-anchor="middle" x="85.5" y="-41" font-family="Helvetica,sans-Serif" font-size="10.00" fill="#000000"> stats</text>
</g>
<!-- Node3 -->
<g id="node3" class="node">
<title>Node3</title>
<g id="a_node3"><a xlink:href="../../dd/dd4/struct___a_j_a_debug_message.html" target="_top" xlink:title="_AJADebugMessage">
<polygon fill="#ffffff" stroke="#000000" points="100.5,-67.5 100.5,-86.5 209.5,-86.5 209.5,-67.5 100.5,-67.5"/>
<text text-anchor="middle" x="155" y="-74.5" font-family="Helvetica,sans-Serif" font-size="10.00" fill="#000000">_AJADebugMessage</text>
</a>
</g>
</g>
<!-- Node3&#45;&gt;Node1 -->
<g id="edge2" class="edge">
<title>Node3&#45;&gt;Node1</title>
<path fill="none" stroke="#9a32cd" stroke-dasharray="5,2" d="M140.2946,-59.7147C129.4274,-46.941 115.034,-30.0224 106.1516,-19.5817"/>
<polygon fill="#9a32cd" stroke="#9a32cd" points="137.6877,-62.0519 146.8333,-67.4005 143.0193,-57.516 137.6877,-62.0519"/>
<text text-anchor="middle" x="161" y="-41" font-family="Helvetica,sans-Serif" font-size="10.00" fill="#000000"> messageRing</text>
</g>
</g>
</svg>
