<?xml version="1.0" encoding="UTF-8" standalone="no"?>
<!DOCTYPE svg PUBLIC "-//W3C//DTD SVG 1.1//EN"
 "http://www.w3.org/Graphics/SVG/1.1/DTD/svg11.dtd">
<!-- Generated by graphviz version 2.43.0 (0)
 -->
<!-- Title: /home/tcbuilder/buildAgent/work/df8e8cce5bebfd58/libajacc/includes/ntv2captiondecoder608.h Pages: 1 -->
<svg width="432pt" height="206pt"
 viewBox="0.00 0.00 432.00 206.00" xmlns="http://www.w3.org/2000/svg" xmlns:xlink="http://www.w3.org/1999/xlink">
<g id="graph0" class="graph" transform="scale(1 1) rotate(0) translate(4 202)">
<title>/home/tcbuilder/buildAgent/work/df8e8cce5bebfd58/libajacc/includes/ntv2captiondecoder608.h</title>
<polygon fill="white" stroke="transparent" points="-4,4 -4,-202 428,-202 428,4 -4,4"/>
<!-- Node1 -->
<g id="node1" class="node">
<title>Node1</title>
<g id="a_node1"><a xlink:title="Declares the CNTV2CaptionDecoder608 class.">
<polygon fill="#bfbfbf" stroke="black" points="110.5,-156.5 110.5,-197.5 297.5,-197.5 297.5,-156.5 110.5,-156.5"/>
<text text-anchor="start" x="118.5" y="-185.5" font-family="Helvetica,sans-Serif" font-size="10.00">/home/tcbuilder/buildAgent</text>
<text text-anchor="start" x="118.5" y="-174.5" font-family="Helvetica,sans-Serif" font-size="10.00">/work/df8e8cce5bebfd58/libajacc</text>
<text text-anchor="middle" x="204" y="-163.5" font-family="Helvetica,sans-Serif" font-size="10.00">/includes/ntv2captiondecoder608.h</text>
</a>
</g>
</g>
<!-- Node2 -->
<g id="node2" class="node">
<title>Node2</title>
<g id="a_node2"><a xlink:href="../../da/d4f/ntv2ccgrabber_8h.html" target="_top" xlink:title="Header file for NTV2CCGrabber demonstration class.">
<polygon fill="white" stroke="black" points="101,-78.5 101,-119.5 307,-119.5 307,-78.5 101,-78.5"/>
<text text-anchor="start" x="109" y="-107.5" font-family="Helvetica,sans-Serif" font-size="10.00">/home/tcbuilder/buildAgent</text>
<text text-anchor="start" x="109" y="-96.5" font-family="Helvetica,sans-Serif" font-size="10.00">/work/df8e8cce5bebfd58/libajantv2</text>
<text text-anchor="middle" x="204" y="-85.5" font-family="Helvetica,sans-Serif" font-size="10.00">/demos/ntv2ccgrabber/ntv2ccgrabber.h</text>
</a>
</g>
</g>
<!-- Node1&#45;&gt;Node2 -->
<g id="edge1" class="edge">
<title>Node1&#45;&gt;Node2</title>
<path fill="none" stroke="midnightblue" d="M204,-146.3C204,-137.3 204,-127.65 204,-119.51"/>
<polygon fill="midnightblue" stroke="midnightblue" points="200.5,-146.43 204,-156.43 207.5,-146.43 200.5,-146.43"/>
</g>
<!-- Node3 -->
<g id="node3" class="node">
<title>Node3</title>
<g id="a_node3"><a xlink:href="../../d3/dbe/ntv2ccgrabber_2main_8cpp.html" target="_top" xlink:title="Demonstration application that grabs closed&#45;captioning data from frames captured from SDI input (usin...">
<polygon fill="white" stroke="black" points="0,-0.5 0,-41.5 188,-41.5 188,-0.5 0,-0.5"/>
<text text-anchor="start" x="8" y="-29.5" font-family="Helvetica,sans-Serif" font-size="10.00">/home/tcbuilder/buildAgent</text>
<text text-anchor="start" x="8" y="-18.5" font-family="Helvetica,sans-Serif" font-size="10.00">/work/df8e8cce5bebfd58/libajantv2</text>
<text text-anchor="middle" x="94" y="-7.5" font-family="Helvetica,sans-Serif" font-size="10.00">/demos/ntv2ccgrabber/main.cpp</text>
</a>
</g>
</g>
<!-- Node2&#45;&gt;Node3 -->
<g id="edge2" class="edge">
<title>Node2&#45;&gt;Node3</title>
<path fill="none" stroke="midnightblue" d="M167.29,-72.64C152.6,-62.49 135.95,-50.98 122.23,-41.51"/>
<polygon fill="midnightblue" stroke="midnightblue" points="165.46,-75.62 175.67,-78.43 169.43,-69.86 165.46,-75.62"/>
</g>
<!-- Node4 -->
<g id="node4" class="node">
<title>Node4</title>
<g id="a_node4"><a xlink:href="../../d9/dca/ntv2ccgrabber_8cpp.html" target="_top" xlink:title="Implementation of NTV2CCGrabber class.">
<polygon fill="white" stroke="black" points="206,-0.5 206,-41.5 424,-41.5 424,-0.5 206,-0.5"/>
<text text-anchor="start" x="214" y="-29.5" font-family="Helvetica,sans-Serif" font-size="10.00">/home/tcbuilder/buildAgent</text>
<text text-anchor="start" x="214" y="-18.5" font-family="Helvetica,sans-Serif" font-size="10.00">/work/df8e8cce5bebfd58/libajantv2</text>
<text text-anchor="middle" x="315" y="-7.5" font-family="Helvetica,sans-Serif" font-size="10.00">/demos/ntv2ccgrabber/ntv2ccgrabber.cpp</text>
</a>
</g>
</g>
<!-- Node2&#45;&gt;Node4 -->
<g id="edge3" class="edge">
<title>Node2&#45;&gt;Node4</title>
<path fill="none" stroke="midnightblue" d="M241.05,-72.64C255.87,-62.49 272.67,-50.98 286.51,-41.51"/>
<polygon fill="midnightblue" stroke="midnightblue" points="238.86,-69.89 232.59,-78.43 242.81,-75.67 238.86,-69.89"/>
</g>
</g>
</svg>
