<?xml version="1.0" encoding="UTF-8" standalone="no"?>
<!DOCTYPE svg PUBLIC "-//W3C//DTD SVG 1.1//EN"
 "http://www.w3.org/Graphics/SVG/1.1/DTD/svg11.dtd">
<!-- Generated by graphviz version 2.43.0 (0)
 -->
<!-- Title: CBaseControlWindow Pages: 1 -->
<svg width="260pt" height="196pt"
 viewBox="0.00 0.00 260.00 196.00" xmlns="http://www.w3.org/2000/svg" xmlns:xlink="http://www.w3.org/1999/xlink">
<g id="graph0" class="graph" transform="scale(1 1) rotate(0) translate(4 192)">
<title>CBaseControlWindow</title>
<polygon fill="white" stroke="transparent" points="-4,4 -4,-192 256,-192 256,4 -4,4"/>
<!-- Node1 -->
<g id="node1" class="node">
<title>Node1</title>
<g id="a_node1"><a xlink:title=" ">
<polygon fill="#bfbfbf" stroke="black" points="89,-0.5 89,-19.5 211,-19.5 211,-0.5 89,-0.5"/>
<text text-anchor="middle" x="150" y="-7.5" font-family="Helvetica,sans-Serif" font-size="10.00">CBaseControlWindow</text>
</a>
</g>
</g>
<!-- Node2 -->
<g id="node2" class="node">
<title>Node2</title>
<g id="a_node2"><a xlink:href="../../da/d8e/class_c_base_video_window.html" target="_top" xlink:title=" ">
<polygon fill="white" stroke="black" points="34,-56.5 34,-75.5 148,-75.5 148,-56.5 34,-56.5"/>
<text text-anchor="middle" x="91" y="-63.5" font-family="Helvetica,sans-Serif" font-size="10.00">CBaseVideoWindow</text>
</a>
</g>
</g>
<!-- Node2&#45;&gt;Node1 -->
<g id="edge1" class="edge">
<title>Node2&#45;&gt;Node1</title>
<path fill="none" stroke="midnightblue" d="M107.89,-49.54C118.41,-39.91 131.57,-27.87 140.35,-19.83"/>
<polygon fill="midnightblue" stroke="midnightblue" points="105.49,-46.99 100.48,-56.32 110.22,-52.15 105.49,-46.99"/>
</g>
<!-- Node3 -->
<g id="node3" class="node">
<title>Node3</title>
<g id="a_node3"><a xlink:title=" ">
<polygon fill="white" stroke="#bfbfbf" points="0,-112.5 0,-131.5 86,-131.5 86,-112.5 0,-112.5"/>
<text text-anchor="middle" x="43" y="-119.5" font-family="Helvetica,sans-Serif" font-size="10.00">IVideoWindow</text>
</a>
</g>
</g>
<!-- Node3&#45;&gt;Node2 -->
<g id="edge2" class="edge">
<title>Node3&#45;&gt;Node2</title>
<path fill="none" stroke="midnightblue" d="M57.73,-104.43C66.14,-94.97 76.35,-83.48 83.22,-75.75"/>
<polygon fill="midnightblue" stroke="midnightblue" points="54.95,-102.28 50.93,-112.08 60.19,-106.93 54.95,-102.28"/>
</g>
<!-- Node4 -->
<g id="node4" class="node">
<title>Node4</title>
<g id="a_node4"><a xlink:href="../../d9/d89/class_c_unknown.html" target="_top" xlink:title=" ">
<polygon fill="white" stroke="black" points="104.5,-112.5 104.5,-131.5 173.5,-131.5 173.5,-112.5 104.5,-112.5"/>
<text text-anchor="middle" x="139" y="-119.5" font-family="Helvetica,sans-Serif" font-size="10.00">CUnknown</text>
</a>
</g>
</g>
<!-- Node4&#45;&gt;Node2 -->
<g id="edge3" class="edge">
<title>Node4&#45;&gt;Node2</title>
<path fill="none" stroke="midnightblue" d="M124.27,-104.43C115.86,-94.97 105.65,-83.48 98.78,-75.75"/>
<polygon fill="midnightblue" stroke="midnightblue" points="121.81,-106.93 131.07,-112.08 127.05,-102.28 121.81,-106.93"/>
</g>
<!-- Node5 -->
<g id="node5" class="node">
<title>Node5</title>
<g id="a_node5"><a xlink:title=" ">
<polygon fill="white" stroke="#bfbfbf" points="7,-168.5 7,-187.5 145,-187.5 145,-168.5 7,-168.5"/>
<text text-anchor="middle" x="76" y="-175.5" font-family="Helvetica,sans-Serif" font-size="10.00">INonDelegatingUnknown</text>
</a>
</g>
</g>
<!-- Node5&#45;&gt;Node4 -->
<g id="edge4" class="edge">
<title>Node5&#45;&gt;Node4</title>
<path fill="none" stroke="midnightblue" d="M94.04,-161.54C105.27,-151.91 119.32,-139.87 128.69,-131.83"/>
<polygon fill="midnightblue" stroke="midnightblue" points="91.44,-159.16 86.12,-168.32 95.99,-164.47 91.44,-159.16"/>
</g>
<!-- Node6 -->
<g id="node6" class="node">
<title>Node6</title>
<g id="a_node6"><a xlink:href="../../d1/d2d/class_c_base_object.html" target="_top" xlink:title=" ">
<polygon fill="white" stroke="black" points="163.5,-168.5 163.5,-187.5 242.5,-187.5 242.5,-168.5 163.5,-168.5"/>
<text text-anchor="middle" x="203" y="-175.5" font-family="Helvetica,sans-Serif" font-size="10.00">CBaseObject</text>
</a>
</g>
</g>
<!-- Node6&#45;&gt;Node4 -->
<g id="edge5" class="edge">
<title>Node6&#45;&gt;Node4</title>
<path fill="none" stroke="midnightblue" d="M185.01,-161.82C173.54,-152.15 159.09,-139.95 149.47,-131.83"/>
<polygon fill="midnightblue" stroke="midnightblue" points="182.82,-164.55 192.72,-168.32 187.33,-159.2 182.82,-164.55"/>
</g>
<!-- Node7 -->
<g id="node7" class="node">
<title>Node7</title>
<g id="a_node7"><a xlink:href="../../db/dbd/class_c_base_window.html" target="_top" xlink:title=" ">
<polygon fill="white" stroke="black" points="166,-56.5 166,-75.5 252,-75.5 252,-56.5 166,-56.5"/>
<text text-anchor="middle" x="209" y="-63.5" font-family="Helvetica,sans-Serif" font-size="10.00">CBaseWindow</text>
</a>
</g>
</g>
<!-- Node7&#45;&gt;Node1 -->
<g id="edge6" class="edge">
<title>Node7&#45;&gt;Node1</title>
<path fill="none" stroke="midnightblue" d="M192.11,-49.54C181.59,-39.91 168.43,-27.87 159.65,-19.83"/>
<polygon fill="midnightblue" stroke="midnightblue" points="189.78,-52.15 199.52,-56.32 194.51,-46.99 189.78,-52.15"/>
</g>
</g>
</svg>
