<?xml version="1.0" encoding="UTF-8" standalone="no"?>
<!DOCTYPE svg PUBLIC "-//W3C//DTD SVG 1.1//EN"
 "http://www.w3.org/Graphics/SVG/1.1/DTD/svg11.dtd">
<!-- Generated by graphviz version 2.40.1 (0)
 -->
<!-- Title: DolbyCaptureConfig Pages: 1 -->
<svg width="251pt" height="165pt"
 viewBox="0.00 0.00 251.00 165.00" xmlns="http://www.w3.org/2000/svg" xmlns:xlink="http://www.w3.org/1999/xlink">
<g id="graph0" class="graph" transform="scale(1 1) rotate(0) translate(4 161)">
<title>DolbyCaptureConfig</title>
<polygon fill="#ffffff" stroke="transparent" points="-4,4 -4,-161 247,-161 247,4 -4,4"/>
<!-- Node2 -->
<g id="node1" class="node">
<title>Node2</title>
<polygon fill="#bfbfbf" stroke="#000000" points="0,-.5 0,-19.5 105,-19.5 105,-.5 0,-.5"/>
<text text-anchor="middle" x="52.5" y="-7.5" font-family="Helvetica,sans-Serif" font-size="10.00" fill="#000000">DolbyCaptureConfig</text>
</g>
<!-- Node3 -->
<g id="node2" class="node">
<title>Node3</title>
<g id="a_node2"><a xlink:href="../../d8/d37/class_capture_config.html" target="_top" xlink:title="This class is used to configure an NTV2Capture instance. ">
<polygon fill="#ffffff" stroke="#000000" points="146.5,-58.5 146.5,-77.5 226.5,-77.5 226.5,-58.5 146.5,-58.5"/>
<text text-anchor="middle" x="186.5" y="-65.5" font-family="Helvetica,sans-Serif" font-size="10.00" fill="#000000">CaptureConfig</text>
</a>
</g>
</g>
<!-- Node3&#45;&gt;Node2 -->
<g id="edge1" class="edge">
<title>Node3&#45;&gt;Node2</title>
<path fill="none" stroke="#191970" d="M155.0661,-54.3943C130.3683,-43.7042 96.5906,-29.084 74.6602,-19.5917"/>
<polygon fill="#191970" stroke="#191970" points="153.8051,-57.6622 164.3726,-58.4225 156.5857,-51.2382 153.8051,-57.6622"/>
</g>
<!-- Node4 -->
<g id="node3" class="node">
<title>Node4</title>
<polygon fill="#ffffff" stroke="#bfbfbf" points="42,-137.5 42,-156.5 83,-156.5 83,-137.5 42,-137.5"/>
<text text-anchor="middle" x="62.5" y="-144.5" font-family="Helvetica,sans-Serif" font-size="10.00" fill="#000000">string</text>
</g>
<!-- Node4&#45;&gt;Node2 -->
<g id="edge4" class="edge">
<title>Node4&#45;&gt;Node2</title>
<path fill="none" stroke="#9a32cd" stroke-dasharray="5,2" d="M57.7242,-127.3542C54.6932,-113.8489 51.0586,-95.453 49.5,-79 48.5779,-69.2658 49.1884,-66.7728 49.5,-57 49.9117,-44.088 50.9579,-29.211 51.6987,-19.713"/>
<polygon fill="#9a32cd" stroke="#9a32cd" points="54.3872,-128.4561 60.0693,-137.3984 61.2039,-126.8645 54.3872,-128.4561"/>
<text text-anchor="middle" x="93.5" y="-71" font-family="Helvetica,sans-Serif" font-size="10.00" fill="#000000"> fAudioDataFilePath</text>
<text text-anchor="middle" x="93.5" y="-60" font-family="Helvetica,sans-Serif" font-size="10.00" fill="#000000">fDolbyDataFilePath</text>
</g>
<!-- Node4&#45;&gt;Node3 -->
<g id="edge2" class="edge">
<title>Node4&#45;&gt;Node3</title>
<path fill="none" stroke="#9a32cd" stroke-dasharray="5,2" d="M74.2156,-128.6716C81.7557,-118.145 92.3927,-105.3907 104.5,-97 116.911,-88.3988 132.1382,-82.0922 146.0875,-77.6"/>
<polygon fill="#9a32cd" stroke="#9a32cd" points="71.1566,-126.9457 68.4275,-137.183 76.945,-130.882 71.1566,-126.9457"/>
<text text-anchor="middle" x="143.5" y="-111" font-family="Helvetica,sans-Serif" font-size="10.00" fill="#000000"> fDeviceSpec</text>
<text text-anchor="middle" x="143.5" y="-100" font-family="Helvetica,sans-Serif" font-size="10.00" fill="#000000">fAncDataFilePath</text>
</g>
<!-- Node5 -->
<g id="node4" class="node">
<title>Node5</title>
<g id="a_node4"><a xlink:href="../../dd/de5/class_n_t_v2_a_c_frame_range.html" target="_top" xlink:title="AutoCirculate Frame Range. ">
<polygon fill="#ffffff" stroke="#000000" points="130,-137.5 130,-156.5 243,-156.5 243,-137.5 130,-137.5"/>
<text text-anchor="middle" x="186.5" y="-144.5" font-family="Helvetica,sans-Serif" font-size="10.00" fill="#000000">NTV2ACFrameRange</text>
</a>
</g>
</g>
<!-- Node5&#45;&gt;Node3 -->
<g id="edge3" class="edge">
<title>Node5&#45;&gt;Node3</title>
<path fill="none" stroke="#9a32cd" stroke-dasharray="5,2" d="M186.5,-127.0339C186.5,-111.2875 186.5,-90.0062 186.5,-77.7662"/>
<polygon fill="#9a32cd" stroke="#9a32cd" points="183.0001,-127.313 186.5,-137.313 190.0001,-127.3131 183.0001,-127.313"/>
<text text-anchor="middle" x="206.5" y="-105.5" font-family="Helvetica,sans-Serif" font-size="10.00" fill="#000000"> fFrames</text>
</g>
</g>
</svg>
