<?xml version="1.0" encoding="UTF-8" standalone="no"?>
<!DOCTYPE svg PUBLIC "-//W3C//DTD SVG 1.1//EN"
 "http://www.w3.org/Graphics/SVG/1.1/DTD/svg11.dtd">
<!-- Generated by graphviz version 2.40.1 (0)
 -->
<!-- Title: CPosPassThru Pages: 1 -->
<svg width="292pt" height="196pt"
 viewBox="0.00 0.00 292.00 196.00" xmlns="http://www.w3.org/2000/svg" xmlns:xlink="http://www.w3.org/1999/xlink">
<g id="graph0" class="graph" transform="scale(1 1) rotate(0) translate(4 192)">
<title>CPosPassThru</title>
<polygon fill="#ffffff" stroke="transparent" points="-4,4 -4,-192 288,-192 288,4 -4,4"/>
<!-- Node8 -->
<g id="node1" class="node">
<title>Node8</title>
<polygon fill="#bfbfbf" stroke="#000000" points="50,-.5 50,-19.5 133,-19.5 133,-.5 50,-.5"/>
<text text-anchor="middle" x="91.5" y="-7.5" font-family="Helvetica,sans-Serif" font-size="10.00" fill="#000000">CPosPassThru</text>
</g>
<!-- Node9 -->
<g id="node2" class="node">
<title>Node9</title>
<polygon fill="#ffffff" stroke="#bfbfbf" points="0,-56.5 0,-75.5 81,-75.5 81,-56.5 0,-56.5"/>
<text text-anchor="middle" x="40.5" y="-63.5" font-family="Helvetica,sans-Serif" font-size="10.00" fill="#000000">IMediaSeeking</text>
</g>
<!-- Node9&#45;&gt;Node8 -->
<g id="edge1" class="edge">
<title>Node9&#45;&gt;Node8</title>
<path fill="none" stroke="#191970" d="M56.1749,-48.7884C64.8994,-39.2085 75.4354,-27.6396 82.7183,-19.6427"/>
<polygon fill="#191970" stroke="#191970" points="53.5291,-46.4954 49.3835,-56.2455 58.7046,-51.2088 53.5291,-46.4954"/>
</g>
<!-- Node10 -->
<g id="node3" class="node">
<title>Node10</title>
<g id="a_node3"><a xlink:href="../../dc/d81/class_c_media_position.html" target="_top" xlink:title="CMediaPosition">
<polygon fill="#ffffff" stroke="#000000" points="99.5,-56.5 99.5,-75.5 185.5,-75.5 185.5,-56.5 99.5,-56.5"/>
<text text-anchor="middle" x="142.5" y="-63.5" font-family="Helvetica,sans-Serif" font-size="10.00" fill="#000000">CMediaPosition</text>
</a>
</g>
</g>
<!-- Node10&#45;&gt;Node8 -->
<g id="edge2" class="edge">
<title>Node10&#45;&gt;Node8</title>
<path fill="none" stroke="#191970" d="M126.8251,-48.7884C118.1006,-39.2085 107.5646,-27.6396 100.2817,-19.6427"/>
<polygon fill="#191970" stroke="#191970" points="124.2954,-51.2088 133.6165,-56.2455 129.4709,-46.4954 124.2954,-51.2088"/>
</g>
<!-- Node11 -->
<g id="node4" class="node">
<title>Node11</title>
<polygon fill="#ffffff" stroke="#bfbfbf" points="56,-112.5 56,-131.5 137,-131.5 137,-112.5 56,-112.5"/>
<text text-anchor="middle" x="96.5" y="-119.5" font-family="Helvetica,sans-Serif" font-size="10.00" fill="#000000">IMediaPosition</text>
</g>
<!-- Node11&#45;&gt;Node10 -->
<g id="edge3" class="edge">
<title>Node11&#45;&gt;Node10</title>
<path fill="none" stroke="#191970" d="M110.8747,-104.5004C118.6971,-94.9775 128.076,-83.5596 134.5792,-75.6427"/>
<polygon fill="#191970" stroke="#191970" points="108.1555,-102.2967 104.5126,-112.2455 113.5646,-106.7399 108.1555,-102.2967"/>
</g>
<!-- Node12 -->
<g id="node5" class="node">
<title>Node12</title>
<g id="a_node5"><a xlink:href="../../d9/d89/class_c_unknown.html" target="_top" xlink:title="CUnknown">
<polygon fill="#ffffff" stroke="#000000" points="155,-112.5 155,-131.5 220,-131.5 220,-112.5 155,-112.5"/>
<text text-anchor="middle" x="187.5" y="-119.5" font-family="Helvetica,sans-Serif" font-size="10.00" fill="#000000">CUnknown</text>
</a>
</g>
</g>
<!-- Node12&#45;&gt;Node10 -->
<g id="edge4" class="edge">
<title>Node12&#45;&gt;Node10</title>
<path fill="none" stroke="#191970" d="M173.2054,-104.2112C165.6004,-94.7472 156.5462,-83.4797 150.2486,-75.6427"/>
<polygon fill="#191970" stroke="#191970" points="170.6694,-106.6428 179.6616,-112.2455 176.1259,-102.2581 170.6694,-106.6428"/>
</g>
<!-- Node13 -->
<g id="node6" class="node">
<title>Node13</title>
<polygon fill="#ffffff" stroke="#bfbfbf" points="66,-168.5 66,-187.5 191,-187.5 191,-168.5 66,-168.5"/>
<text text-anchor="middle" x="128.5" y="-175.5" font-family="Helvetica,sans-Serif" font-size="10.00" fill="#000000">INonDelegatingUnknown</text>
</g>
<!-- Node13&#45;&gt;Node12 -->
<g id="edge5" class="edge">
<title>Node13&#45;&gt;Node12</title>
<path fill="none" stroke="#191970" d="M146.0307,-161.3607C156.2377,-151.6727 168.7469,-139.7995 177.3408,-131.6427"/>
<polygon fill="#191970" stroke="#191970" points="143.6206,-158.8227 138.777,-168.2455 148.4396,-163.8998 143.6206,-158.8227"/>
</g>
<!-- Node14 -->
<g id="node7" class="node">
<title>Node14</title>
<g id="a_node7"><a xlink:href="../../d1/d2d/class_c_base_object.html" target="_top" xlink:title="CBaseObject">
<polygon fill="#ffffff" stroke="#000000" points="209,-168.5 209,-187.5 284,-187.5 284,-168.5 209,-168.5"/>
<text text-anchor="middle" x="246.5" y="-175.5" font-family="Helvetica,sans-Serif" font-size="10.00" fill="#000000">CBaseObject</text>
</a>
</g>
</g>
<!-- Node14&#45;&gt;Node12 -->
<g id="edge6" class="edge">
<title>Node14&#45;&gt;Node12</title>
<path fill="none" stroke="#191970" d="M228.9693,-161.3607C218.7623,-151.6727 206.2531,-139.7995 197.6592,-131.6427"/>
<polygon fill="#191970" stroke="#191970" points="226.5604,-163.8998 236.223,-168.2455 231.3794,-158.8227 226.5604,-163.8998"/>
</g>
</g>
</svg>
