<?xml version="1.0" encoding="UTF-8" standalone="no"?>
<!DOCTYPE svg PUBLIC "-//W3C//DTD SVG 1.1//EN"
 "http://www.w3.org/Graphics/SVG/1.1/DTD/svg11.dtd">
<!-- Generated by graphviz version 2.40.1 (0)
 -->
<!-- Title: /home/tcbuilder/buildAgent/work/df8e8cce5bebfd58/libajantv2/ajabase/common/wavewriter.h Pages: 1 -->
<svg width="503pt" height="330pt"
 viewBox="0.00 0.00 502.50 330.00" xmlns="http://www.w3.org/2000/svg" xmlns:xlink="http://www.w3.org/1999/xlink">
<g id="graph0" class="graph" transform="scale(1 1) rotate(0) translate(4 326)">
<title>/home/tcbuilder/buildAgent/work/df8e8cce5bebfd58/libajantv2/ajabase/common/wavewriter.h</title>
<polygon fill="#ffffff" stroke="transparent" points="-4,4 -4,-326 498.5,-326 498.5,4 -4,4"/>
<!-- Node0 -->
<g id="node1" class="node">
<title>Node0</title>
<polygon fill="#bfbfbf" stroke="#000000" points="44,-280.5 44,-321.5 211,-321.5 211,-280.5 44,-280.5"/>
<text text-anchor="start" x="52" y="-309.5" font-family="Helvetica,sans-Serif" font-size="10.00" fill="#000000">/home/tcbuilder/buildAgent</text>
<text text-anchor="start" x="52" y="-298.5" font-family="Helvetica,sans-Serif" font-size="10.00" fill="#000000">/work/df8e8cce5bebfd58/libajantv2</text>
<text text-anchor="middle" x="127.5" y="-287.5" font-family="Helvetica,sans-Serif" font-size="10.00" fill="#000000">/ajabase/common/wavewriter.h</text>
</g>
<!-- Node1 -->
<g id="node2" class="node">
<title>Node1</title>
<g id="a_node2"><a xlink:href="../../d4/d79/public_8h.html" target="_top" xlink:title="Master header for the ajabase library. ">
<polygon fill="#ffffff" stroke="#000000" points="195.5,-112.5 195.5,-131.5 245.5,-131.5 245.5,-112.5 195.5,-112.5"/>
<text text-anchor="middle" x="220.5" y="-119.5" font-family="Helvetica,sans-Serif" font-size="10.00" fill="#000000">public.h</text>
</a>
</g>
</g>
<!-- Node0&#45;&gt;Node1 -->
<g id="edge1" class="edge">
<title>Node0&#45;&gt;Node1</title>
<path fill="none" stroke="#191970" d="M129.087,-280.2629C130.7478,-264.4878 134.0555,-242.4281 140.5,-224 149.8909,-197.1468 154.0295,-190.4514 171.5,-168 179.9242,-157.1741 190.9447,-146.5903 200.4005,-138.3094"/>
<polygon fill="#191970" stroke="#191970" points="202.8505,-140.8204 208.2026,-131.6768 198.3166,-135.4871 202.8505,-140.8204"/>
</g>
<!-- Node9 -->
<g id="node10" class="node">
<title>Node9</title>
<g id="a_node10"><a xlink:href="../../db/db8/file__io_8h.html" target="_top" xlink:title="Declares the AJAFileIO class. ">
<polygon fill="#ffffff" stroke="#000000" points="150,-224.5 150,-243.5 273,-243.5 273,-224.5 150,-224.5"/>
<text text-anchor="middle" x="211.5" y="-231.5" font-family="Helvetica,sans-Serif" font-size="10.00" fill="#000000">ajabase/system/file_io.h</text>
</a>
</g>
</g>
<!-- Node0&#45;&gt;Node9 -->
<g id="edge9" class="edge">
<title>Node0&#45;&gt;Node9</title>
<path fill="none" stroke="#191970" d="M153.6177,-280.168C165.7452,-270.4949 179.9446,-259.1692 191.2444,-250.1562"/>
<polygon fill="#191970" stroke="#191970" points="193.6026,-252.7523 199.2379,-243.7805 189.2377,-247.2799 193.6026,-252.7523"/>
</g>
<!-- Node2 -->
<g id="node3" class="node">
<title>Node2</title>
<g id="a_node3"><a xlink:href="../../db/db5/export_8h.html" target="_top" xlink:title="Declares system&#45;dependent import/export macros and libraries. ">
<polygon fill="#ffffff" stroke="#000000" points="59,-56.5 59,-75.5 188,-75.5 188,-56.5 59,-56.5"/>
<text text-anchor="middle" x="123.5" y="-63.5" font-family="Helvetica,sans-Serif" font-size="10.00" fill="#000000">ajabase/common/export.h</text>
</a>
</g>
</g>
<!-- Node1&#45;&gt;Node2 -->
<g id="edge2" class="edge">
<title>Node1&#45;&gt;Node2</title>
<path fill="none" stroke="#191970" d="M203.6039,-112.2455C188.582,-103.5731 166.3957,-90.7645 149.179,-80.825"/>
<polygon fill="#191970" stroke="#191970" points="150.6128,-77.6114 140.2025,-75.6427 147.1129,-83.6737 150.6128,-77.6114"/>
</g>
<!-- Node3 -->
<g id="node4" class="node">
<title>Node3</title>
<polygon fill="#ffffff" stroke="#bfbfbf" points="0,-56.5 0,-75.5 41,-75.5 41,-56.5 0,-56.5"/>
<text text-anchor="middle" x="20.5" y="-63.5" font-family="Helvetica,sans-Serif" font-size="10.00" fill="#000000">string</text>
</g>
<!-- Node1&#45;&gt;Node3 -->
<g id="edge3" class="edge">
<title>Node1&#45;&gt;Node3</title>
<path fill="none" stroke="#191970" d="M195.4242,-115.8339C163.7891,-107.9303 107.5297,-93.4624 50.8703,-76.2861"/>
<polygon fill="#191970" stroke="#191970" points="51.6239,-72.8566 41.0375,-73.2787 49.5765,-79.5505 51.6239,-72.8566"/>
</g>
<!-- Node4 -->
<g id="node5" class="node">
<title>Node4</title>
<polygon fill="#ffffff" stroke="#bfbfbf" points="206,-56.5 206,-75.5 235,-75.5 235,-56.5 206,-56.5"/>
<text text-anchor="middle" x="220.5" y="-63.5" font-family="Helvetica,sans-Serif" font-size="10.00" fill="#000000">list</text>
</g>
<!-- Node1&#45;&gt;Node4 -->
<g id="edge4" class="edge">
<title>Node1&#45;&gt;Node4</title>
<path fill="none" stroke="#191970" d="M220.5,-112.2455C220.5,-104.9382 220.5,-94.6944 220.5,-85.7046"/>
<polygon fill="#191970" stroke="#191970" points="224.0001,-85.6426 220.5,-75.6427 217.0001,-85.6427 224.0001,-85.6426"/>
</g>
<!-- Node5 -->
<g id="node6" class="node">
<title>Node5</title>
<polygon fill="#ffffff" stroke="#bfbfbf" points="306.5,-56.5 306.5,-75.5 350.5,-75.5 350.5,-56.5 306.5,-56.5"/>
<text text-anchor="middle" x="328.5" y="-63.5" font-family="Helvetica,sans-Serif" font-size="10.00" fill="#000000">vector</text>
</g>
<!-- Node1&#45;&gt;Node5 -->
<g id="edge5" class="edge">
<title>Node1&#45;&gt;Node5</title>
<path fill="none" stroke="#191970" d="M239.3122,-112.2455C256.3473,-103.4125 281.6575,-90.2887 300.9681,-80.2758"/>
<polygon fill="#191970" stroke="#191970" points="302.637,-83.353 309.9034,-75.6427 299.4147,-77.1388 302.637,-83.353"/>
</g>
<!-- Node6 -->
<g id="node7" class="node">
<title>Node6</title>
<polygon fill="#ffffff" stroke="#bfbfbf" points="253,-56.5 253,-75.5 288,-75.5 288,-56.5 253,-56.5"/>
<text text-anchor="middle" x="270.5" y="-63.5" font-family="Helvetica,sans-Serif" font-size="10.00" fill="#000000">map</text>
</g>
<!-- Node1&#45;&gt;Node6 -->
<g id="edge6" class="edge">
<title>Node1&#45;&gt;Node6</title>
<path fill="none" stroke="#191970" d="M229.2093,-112.2455C236.3073,-104.2958 246.5084,-92.8706 254.995,-83.3656"/>
<polygon fill="#191970" stroke="#191970" points="257.8411,-85.4331 261.8905,-75.6427 252.6195,-80.771 257.8411,-85.4331"/>
</g>
<!-- Node7 -->
<g id="node8" class="node">
<title>Node7</title>
<g id="a_node8"><a xlink:href="../../d9/d49/types_8h.html" target="_top" xlink:title="Declares common types used in the ajabase library. ">
<polygon fill="#ffffff" stroke="#000000" points="368.5,-56.5 368.5,-75.5 494.5,-75.5 494.5,-56.5 368.5,-56.5"/>
<text text-anchor="middle" x="431.5" y="-63.5" font-family="Helvetica,sans-Serif" font-size="10.00" fill="#000000">ajabase/common/types.h</text>
</a>
</g>
</g>
<!-- Node1&#45;&gt;Node7 -->
<g id="edge7" class="edge">
<title>Node1&#45;&gt;Node7</title>
<path fill="none" stroke="#191970" d="M245.5331,-115.3562C279.995,-106.2099 342.6599,-89.5784 385.647,-78.1695"/>
<polygon fill="#191970" stroke="#191970" points="386.8141,-81.481 395.5816,-75.5328 385.0184,-74.7153 386.8141,-81.481"/>
</g>
<!-- Node8 -->
<g id="node9" class="node">
<title>Node8</title>
<g id="a_node9"><a xlink:href="../../db/d40/ntv2deprecate_8h.html" target="_top" xlink:title="Deprecation control macros. ">
<polygon fill="#ffffff" stroke="#000000" points="388.5,-.5 388.5,-19.5 474.5,-19.5 474.5,-.5 388.5,-.5"/>
<text text-anchor="middle" x="431.5" y="-7.5" font-family="Helvetica,sans-Serif" font-size="10.00" fill="#000000">ntv2deprecate.h</text>
</a>
</g>
</g>
<!-- Node7&#45;&gt;Node8 -->
<g id="edge8" class="edge">
<title>Node7&#45;&gt;Node8</title>
<path fill="none" stroke="#191970" d="M431.5,-56.2455C431.5,-48.9382 431.5,-38.6944 431.5,-29.7046"/>
<polygon fill="#191970" stroke="#191970" points="435.0001,-29.6426 431.5,-19.6427 428.0001,-29.6427 435.0001,-29.6426"/>
</g>
<!-- Node9&#45;&gt;Node1 -->
<g id="edge11" class="edge">
<title>Node9&#45;&gt;Node1</title>
<path fill="none" stroke="#191970" d="M200.7356,-224.4446C187.9333,-211.8551 169.2676,-188.862 177.5,-168 182.0469,-156.4774 190.9932,-146.143 199.5534,-138.2024"/>
<polygon fill="#191970" stroke="#191970" points="201.8938,-140.8057 207.169,-131.6175 197.3153,-135.5106 201.8938,-140.8057"/>
</g>
<!-- Node9&#45;&gt;Node3 -->
<g id="edge15" class="edge">
<title>Node9&#45;&gt;Node3</title>
<path fill="none" stroke="#191970" d="M200.6838,-224.4862C169.4455,-197.0096 78.808,-117.2866 39.2903,-82.5276"/>
<polygon fill="#191970" stroke="#191970" points="41.4937,-79.8044 31.6734,-75.8279 36.8705,-85.0605 41.4937,-79.8044"/>
</g>
<!-- Node9&#45;&gt;Node5 -->
<g id="edge14" class="edge">
<title>Node9&#45;&gt;Node5</title>
<path fill="none" stroke="#191970" d="M268.0229,-224.4735C289.2688,-217.8897 311.4236,-206.7699 324.5,-188 345.8053,-157.4184 339.7246,-111.2745 333.8311,-85.3852"/>
<polygon fill="#191970" stroke="#191970" points="337.2148,-84.489 331.3971,-75.6344 330.4232,-86.1844 337.2148,-84.489"/>
</g>
<!-- Node9&#45;&gt;Node7 -->
<g id="edge10" class="edge">
<title>Node9&#45;&gt;Node7</title>
<path fill="none" stroke="#191970" d="M260.7143,-224.4348C287.138,-217.5234 319.1793,-206.1312 343.5,-188 381.0029,-160.0415 409.1061,-111.482 422.6037,-84.8367"/>
<polygon fill="#191970" stroke="#191970" points="425.782,-86.3048 427.0508,-75.7862 419.4995,-83.2177 425.782,-86.3048"/>
</g>
<!-- Node10 -->
<g id="node11" class="node">
<title>Node10</title>
<g id="a_node11"><a xlink:href="../../dc/db2/system_8h.html" target="_top" xlink:title="System specific functions. ">
<polygon fill="#ffffff" stroke="#000000" points="187,-168.5 187,-187.5 316,-187.5 316,-168.5 187,-168.5"/>
<text text-anchor="middle" x="251.5" y="-175.5" font-family="Helvetica,sans-Serif" font-size="10.00" fill="#000000">ajabase/system/system.h</text>
</a>
</g>
</g>
<!-- Node9&#45;&gt;Node10 -->
<g id="edge12" class="edge">
<title>Node9&#45;&gt;Node10</title>
<path fill="none" stroke="#191970" d="M218.4675,-224.2455C224.0311,-216.4564 231.978,-205.3308 238.6829,-195.9439"/>
<polygon fill="#191970" stroke="#191970" points="241.648,-197.8144 244.6124,-187.6427 235.9519,-193.7457 241.648,-197.8144"/>
</g>
<!-- Node10&#45;&gt;Node1 -->
<g id="edge13" class="edge">
<title>Node10&#45;&gt;Node1</title>
<path fill="none" stroke="#191970" d="M246.1002,-168.2455C241.8773,-160.617 235.8827,-149.7881 230.7559,-140.5267"/>
<polygon fill="#191970" stroke="#191970" points="233.7432,-138.6965 225.8379,-131.6427 227.619,-142.0867 233.7432,-138.6965"/>
</g>
</g>
</svg>
