<?xml version="1.0" encoding="UTF-8" standalone="no"?>
<!DOCTYPE svg PUBLIC "-//W3C//DTD SVG 1.1//EN"
 "http://www.w3.org/Graphics/SVG/1.1/DTD/svg11.dtd">
<!-- Generated by graphviz version 2.43.0 (0)
 -->
<!-- Title: /home/tcbuilder/buildAgent/work/df8e8cce5bebfd58/libajacc/includes/ntv2smpteancdata.h Pages: 1 -->
<!--zoomable 386 -->
<svg id="main" version="1.1" xmlns="http://www.w3.org/2000/svg" xmlns:xlink="http://www.w3.org/1999/xlink" xml:space="preserve" onload="init(evt)">
<style type="text/css"><![CDATA[
.edge:hover path { stroke: red; }
.edge:hover polygon { stroke: red; fill: red; }
]]></style>
<script type="text/javascript"><![CDATA[
var edges = document.getElementsByTagName('g');
if (edges && edges.length) {
  for (var i=0;i<edges.length;i++) {
    if (edges[i].id.substr(0,4)=='edge') {
      edges[i].setAttribute('class','edge');
    }
  }
}
]]></script>
        <defs>
                <circle id="rim" cx="0" cy="0" r="7"/>
                <circle id="rim2" cx="0" cy="0" r="3.5"/>
                <g id="zoomPlus">
                        <use xlink:href="#rim" fill="#404040">
                                <set attributeName="fill" to="#808080" begin="zoomplus.mouseover" end="zoomplus.mouseout"/>
                        </use>
                        <path d="M-4,0h8M0,-4v8" fill="none" stroke="white" stroke-width="1.5" pointer-events="none"/>
                </g>
                <g id="zoomMin">
                        <use xlink:href="#rim" fill="#404040">
                                <set attributeName="fill" to="#808080" begin="zoomminus.mouseover" end="zoomminus.mouseout"/>
                        </use>
                        <path d="M-4,0h8" fill="none" stroke="white" stroke-width="1.5" pointer-events="none"/>
                </g>
                <g id="dirArrow">
                        <path fill="none" stroke="white" stroke-width="1.5" d="M0,-3.0v7 M-2.5,-0.5L0,-3.0L2.5,-0.5"/>
                </g>
               <g id="resetDef">
                       <use xlink:href="#rim2" fill="#404040">
                               <set attributeName="fill" to="#808080" begin="reset.mouseover" end="reset.mouseout"/>
                       </use>
               </g>
        </defs>

<script type="text/javascript">
var viewWidth = 1084;
var viewHeight = 386;
var sectionId = 'dynsection-0';
</script>
<script xlink:href="../../svgpan.js"/>
<svg id="graph" class="graph">
<g id="viewport">
<title>/home/tcbuilder/buildAgent/work/df8e8cce5bebfd58/libajacc/includes/ntv2smpteancdata.h</title>
<polygon fill="white" stroke="transparent" points="-4,4 -4,-382 1080.1,-382 1080.1,4 -4,4"/>
<!-- Node1 -->
<g id="node1" class="node">
<title>Node1</title>
<g id="a_node1"><a xlink:title="Declares the CNTV2SMPTEAncData class.">
<polygon fill="#bfbfbf" stroke="black" points="691.5,-336.5 691.5,-377.5 868.5,-377.5 868.5,-336.5 691.5,-336.5"/>
<text text-anchor="start" x="699.5" y="-365.5" font-family="Helvetica,sans-Serif" font-size="10.00">/home/tcbuilder/buildAgent</text>
<text text-anchor="start" x="699.5" y="-354.5" font-family="Helvetica,sans-Serif" font-size="10.00">/work/df8e8cce5bebfd58/libajacc</text>
<text text-anchor="middle" x="780" y="-343.5" font-family="Helvetica,sans-Serif" font-size="10.00">/includes/ntv2smpteancdata.h</text>
</a>
</g>
</g>
<!-- Node2 -->
<g id="node2" class="node">
<title>Node2</title>
<g id="a_node2"><a xlink:href="../../d0/d81/ntv2utils_8h.html" target="_top" xlink:title="Declares numerous NTV2 utility functions.">
<polygon fill="white" stroke="black" points="648,-280.5 648,-299.5 716,-299.5 716,-280.5 648,-280.5"/>
<text text-anchor="middle" x="682" y="-287.5" font-family="Helvetica,sans-Serif" font-size="10.00">ntv2utils.h</text>
</a>
</g>
</g>
<!-- Node1&#45;&gt;Node2 -->
<g id="edge1" class="edge">
<title>Node1&#45;&gt;Node2</title>
<path fill="none" stroke="midnightblue" d="M750.6,-336.5C735.43,-326.44 717.26,-314.38 703.43,-305.21"/>
<polygon fill="midnightblue" stroke="midnightblue" points="705.31,-302.26 695.05,-299.65 701.44,-308.1 705.31,-302.26"/>
</g>
<!-- Node11 -->
<g id="node11" class="node">
<title>Node11</title>
<g id="a_node11"><a xlink:title=" ">
<polygon fill="white" stroke="#bfbfbf" points="846,-112.5 846,-131.5 906,-131.5 906,-112.5 846,-112.5"/>
<text text-anchor="middle" x="876" y="-119.5" font-family="Helvetica,sans-Serif" font-size="10.00">iostream</text>
</a>
</g>
</g>
<!-- Node1&#45;&gt;Node11 -->
<g id="edge40" class="edge">
<title>Node1&#45;&gt;Node11</title>
<path fill="none" stroke="midnightblue" d="M798.39,-336.28C816.94,-315.17 844.81,-279.84 859,-244 872.62,-209.6 875.57,-165.92 876.07,-141.57"/>
<polygon fill="midnightblue" stroke="midnightblue" points="879.57,-141.59 876.16,-131.56 872.57,-141.53 879.57,-141.59"/>
</g>
<!-- Node14 -->
<g id="node14" class="node">
<title>Node14</title>
<g id="a_node14"><a xlink:title=" ">
<polygon fill="white" stroke="#bfbfbf" points="924.5,-112.5 924.5,-131.5 971.5,-131.5 971.5,-112.5 924.5,-112.5"/>
<text text-anchor="middle" x="948" y="-119.5" font-family="Helvetica,sans-Serif" font-size="10.00">vector</text>
</a>
</g>
</g>
<!-- Node1&#45;&gt;Node14 -->
<g id="edge39" class="edge">
<title>Node1&#45;&gt;Node14</title>
<path fill="none" stroke="midnightblue" d="M850.7,-336.43C919.01,-313.34 1018.59,-267.62 1064,-188 1083.98,-152.97 1022.67,-135.48 981.72,-127.9"/>
<polygon fill="midnightblue" stroke="midnightblue" points="982.25,-124.45 971.8,-126.19 981.06,-131.34 982.25,-124.45"/>
</g>
<!-- Node19 -->
<g id="node19" class="node">
<title>Node19</title>
<g id="a_node19"><a xlink:href="../../dc/df4/ntv2formatdescriptor_8h.html" target="_top" xlink:title="Declares the NTV2FormatDescriptor class.">
<polygon fill="white" stroke="black" points="488,-224.5 488,-243.5 616,-243.5 616,-224.5 488,-224.5"/>
<text text-anchor="middle" x="552" y="-231.5" font-family="Helvetica,sans-Serif" font-size="10.00">ntv2formatdescriptor.h</text>
</a>
</g>
</g>
<!-- Node1&#45;&gt;Node19 -->
<g id="edge38" class="edge">
<title>Node1&#45;&gt;Node19</title>
<path fill="none" stroke="midnightblue" d="M720.79,-336.44C694.95,-326.92 664.75,-314.4 639,-300 613.22,-285.58 586.4,-264.46 569.48,-250.25"/>
<polygon fill="midnightblue" stroke="midnightblue" points="571.47,-247.34 561.59,-243.51 566.92,-252.67 571.47,-247.34"/>
</g>
<!-- Node3 -->
<g id="node3" class="node">
<title>Node3</title>
<g id="a_node3"><a xlink:href="../../d6/dd9/ajaexport_8h.html" target="_top" xlink:title="Defines the import/export macros for producing DLLs or LIBs.">
<polygon fill="white" stroke="black" points="59,-0.5 59,-19.5 131,-19.5 131,-0.5 59,-0.5"/>
<text text-anchor="middle" x="95" y="-7.5" font-family="Helvetica,sans-Serif" font-size="10.00">ajaexport.h</text>
</a>
</g>
</g>
<!-- Node2&#45;&gt;Node3 -->
<g id="edge2" class="edge">
<title>Node2&#45;&gt;Node3</title>
<path fill="none" stroke="midnightblue" d="M647.71,-287.14C509.41,-279.17 0,-245.34 0,-179 0,-179 0,-179 0,-121 0,-77.74 42.61,-43.09 70.75,-24.91"/>
<polygon fill="midnightblue" stroke="midnightblue" points="72.66,-27.85 79.31,-19.6 68.97,-21.9 72.66,-27.85"/>
</g>
<!-- Node4 -->
<g id="node4" class="node">
<title>Node4</title>
<g id="a_node4"><a xlink:href="../../db/de2/ajatypes_8h.html" target="_top" xlink:title="Declares the most fundamental data types used by NTV2. Since Windows NT was the first principal devel...">
<polygon fill="white" stroke="black" points="739,-56.5 739,-75.5 807,-75.5 807,-56.5 739,-56.5"/>
<text text-anchor="middle" x="773" y="-63.5" font-family="Helvetica,sans-Serif" font-size="10.00">ajatypes.h</text>
</a>
</g>
</g>
<!-- Node2&#45;&gt;Node4 -->
<g id="edge3" class="edge">
<title>Node2&#45;&gt;Node4</title>
<path fill="none" stroke="midnightblue" d="M716.16,-285.35C801.9,-275.4 1022.26,-244.69 1064,-188 1129.02,-99.68 913.81,-75.48 817.35,-69.14"/>
<polygon fill="midnightblue" stroke="midnightblue" points="817.49,-65.65 807.3,-68.52 817.06,-72.63 817.49,-65.65"/>
</g>
<!-- Node6 -->
<g id="node6" class="node">
<title>Node6</title>
<g id="a_node6"><a xlink:href="../../d6/d0c/ntv2enums_8h.html" target="_top" xlink:title="Enumerations for controlling NTV2 devices.">
<polygon fill="white" stroke="black" points="180,-112.5 180,-131.5 260,-131.5 260,-112.5 180,-112.5"/>
<text text-anchor="middle" x="220" y="-119.5" font-family="Helvetica,sans-Serif" font-size="10.00">ntv2enums.h</text>
</a>
</g>
</g>
<!-- Node2&#45;&gt;Node6 -->
<g id="edge5" class="edge">
<title>Node2&#45;&gt;Node6</title>
<path fill="none" stroke="midnightblue" d="M647.68,-283.55C606.85,-276.58 536.94,-263.09 479,-244 420.79,-224.83 408.54,-213.9 353,-188 315.66,-170.59 272.93,-149.49 246.2,-136.16"/>
<polygon fill="midnightblue" stroke="midnightblue" points="247.63,-132.96 237.12,-131.61 244.5,-139.22 247.63,-132.96"/>
</g>
<!-- Node8 -->
<g id="node8" class="node">
<title>Node8</title>
<g id="a_node8"><a xlink:title=" ">
<polygon fill="white" stroke="#bfbfbf" points="251,-0.5 251,-19.5 295,-19.5 295,-0.5 251,-0.5"/>
<text text-anchor="middle" x="273" y="-7.5" font-family="Helvetica,sans-Serif" font-size="10.00">string</text>
</a>
</g>
</g>
<!-- Node2&#45;&gt;Node8 -->
<g id="edge35" class="edge">
<title>Node2&#45;&gt;Node8</title>
<path fill="none" stroke="midnightblue" d="M647.63,-285.51C597.65,-279.87 502.31,-266.99 424,-244 300.92,-207.86 228.95,-238.86 158,-132 126.79,-84.99 212.13,-95.82 234,-76 248.44,-62.91 259.22,-43.22 265.75,-28.94"/>
<polygon fill="midnightblue" stroke="midnightblue" points="269,-30.24 269.74,-19.67 262.57,-27.47 269,-30.24"/>
</g>
<!-- Node9 -->
<g id="node9" class="node">
<title>Node9</title>
<g id="a_node9"><a xlink:href="../../d9/d61/ntv2videodefines_8h.html" target="_top" xlink:title="Declares common video macros and structs used in the SDK.">
<polygon fill="white" stroke="black" points="945,-168.5 945,-187.5 1055,-187.5 1055,-168.5 945,-168.5"/>
<text text-anchor="middle" x="1000" y="-175.5" font-family="Helvetica,sans-Serif" font-size="10.00">ntv2videodefines.h</text>
</a>
</g>
</g>
<!-- Node2&#45;&gt;Node9 -->
<g id="edge10" class="edge">
<title>Node2&#45;&gt;Node9</title>
<path fill="none" stroke="midnightblue" d="M686.99,-280.14C695.59,-265.78 714.65,-237.65 739,-224 771.7,-205.68 868.6,-192.44 934.67,-185.24"/>
<polygon fill="midnightblue" stroke="midnightblue" points="935.42,-188.68 944.99,-184.14 934.68,-181.72 935.42,-188.68"/>
</g>
<!-- Node10 -->
<g id="node10" class="node">
<title>Node10</title>
<g id="a_node10"><a xlink:href="../../d4/dd7/ntv2publicinterface_8h.html" target="_top" xlink:title="Declares enums and structs used by all platform drivers and the SDK.">
<polygon fill="white" stroke="black" points="492,-168.5 492,-187.5 612,-187.5 612,-168.5 492,-168.5"/>
<text text-anchor="middle" x="552" y="-175.5" font-family="Helvetica,sans-Serif" font-size="10.00">ntv2publicinterface.h</text>
</a>
</g>
</g>
<!-- Node2&#45;&gt;Node10 -->
<g id="edge12" class="edge">
<title>Node2&#45;&gt;Node10</title>
<path fill="none" stroke="midnightblue" d="M675.7,-280.27C665.87,-267.05 645.86,-241.63 625,-224 610.54,-211.78 592.44,-200.6 577.88,-192.44"/>
<polygon fill="midnightblue" stroke="midnightblue" points="579.35,-189.25 568.89,-187.53 575.99,-195.4 579.35,-189.25"/>
</g>
<!-- Node2&#45;&gt;Node11 -->
<g id="edge36" class="edge">
<title>Node2&#45;&gt;Node11</title>
<path fill="none" stroke="midnightblue" d="M684.15,-280.08C687.76,-266.62 696.16,-240.9 711,-224 748.17,-181.67 807.46,-151.45 843.94,-135.64"/>
<polygon fill="midnightblue" stroke="midnightblue" points="845.73,-138.69 853.58,-131.57 843.01,-132.24 845.73,-138.69"/>
</g>
<!-- Node2&#45;&gt;Node14 -->
<g id="edge37" class="edge">
<title>Node2&#45;&gt;Node14</title>
<path fill="none" stroke="midnightblue" d="M716.06,-287.13C753.88,-283.6 815.35,-273.4 859,-244 898.33,-217.51 926.7,-167.59 939.83,-140.9"/>
<polygon fill="midnightblue" stroke="midnightblue" points="943.11,-142.14 944.24,-131.61 936.79,-139.14 943.11,-142.14"/>
</g>
<!-- Node2&#45;&gt;Node19 -->
<g id="edge26" class="edge">
<title>Node2&#45;&gt;Node19</title>
<path fill="none" stroke="midnightblue" d="M661.4,-280.44C640.01,-271.56 606.32,-257.56 581.98,-247.45"/>
<polygon fill="midnightblue" stroke="midnightblue" points="583.08,-244.12 572.5,-243.52 580.39,-250.58 583.08,-244.12"/>
</g>
<!-- Node20 -->
<g id="node20" class="node">
<title>Node20</title>
<g id="a_node20"><a xlink:href="../../de/d26/ntv2m31enums_8h.html" target="_top" xlink:title="Enumerations for controlling NTV2 devices with m31 HEVC encoders.">
<polygon fill="white" stroke="black" points="748,-224.5 748,-243.5 850,-243.5 850,-224.5 748,-224.5"/>
<text text-anchor="middle" x="799" y="-231.5" font-family="Helvetica,sans-Serif" font-size="10.00">ntv2m31enums.h</text>
</a>
</g>
</g>
<!-- Node2&#45;&gt;Node20 -->
<g id="edge34" class="edge">
<title>Node2&#45;&gt;Node20</title>
<path fill="none" stroke="midnightblue" d="M700.54,-280.44C719.62,-271.64 749.57,-257.81 771.44,-247.72"/>
<polygon fill="midnightblue" stroke="midnightblue" points="772.93,-250.88 780.55,-243.52 770,-244.53 772.93,-250.88"/>
</g>
<!-- Node5 -->
<g id="node5" class="node">
<title>Node5</title>
<g id="a_node5"><a xlink:title=" ">
<polygon fill="white" stroke="#bfbfbf" points="746.5,-0.5 746.5,-19.5 799.5,-19.5 799.5,-0.5 746.5,-0.5"/>
<text text-anchor="middle" x="773" y="-7.5" font-family="Helvetica,sans-Serif" font-size="10.00">stdint.h</text>
</a>
</g>
</g>
<!-- Node4&#45;&gt;Node5 -->
<g id="edge4" class="edge">
<title>Node4&#45;&gt;Node5</title>
<path fill="none" stroke="midnightblue" d="M773,-56.08C773,-49.01 773,-38.86 773,-29.99"/>
<polygon fill="midnightblue" stroke="midnightblue" points="776.5,-29.75 773,-19.75 769.5,-29.75 776.5,-29.75"/>
</g>
<!-- Node6&#45;&gt;Node4 -->
<g id="edge6" class="edge">
<title>Node6&#45;&gt;Node4</title>
<path fill="none" stroke="midnightblue" d="M260.06,-113.33C263.08,-112.85 266.09,-112.4 269,-112 438.17,-88.96 640.96,-74.97 728.82,-69.56"/>
<polygon fill="midnightblue" stroke="midnightblue" points="729.19,-73.05 738.96,-68.95 728.76,-66.06 729.19,-73.05"/>
</g>
<!-- Node7 -->
<g id="node7" class="node">
<title>Node7</title>
<g id="a_node7"><a xlink:href="../../d6/db1/ntv2version_8h.html" target="_top" xlink:title="Defines for the NTV2 SDK version number, used by ajantv2/includes/ntv2enums.h. See the ajantv2/includ...">
<polygon fill="white" stroke="black" points="142.5,-56.5 142.5,-75.5 225.5,-75.5 225.5,-56.5 142.5,-56.5"/>
<text text-anchor="middle" x="184" y="-63.5" font-family="Helvetica,sans-Serif" font-size="10.00">ntv2version.h</text>
</a>
</g>
</g>
<!-- Node6&#45;&gt;Node7 -->
<g id="edge7" class="edge">
<title>Node6&#45;&gt;Node7</title>
<path fill="none" stroke="midnightblue" d="M214.06,-112.08C209.02,-104.53 201.66,-93.49 195.49,-84.23"/>
<polygon fill="midnightblue" stroke="midnightblue" points="198.29,-82.13 189.83,-75.75 192.47,-86.01 198.29,-82.13"/>
</g>
<!-- Node7&#45;&gt;Node3 -->
<g id="edge8" class="edge">
<title>Node7&#45;&gt;Node3</title>
<path fill="none" stroke="midnightblue" d="M169.7,-56.32C155.82,-47.9 134.51,-34.97 118.2,-25.07"/>
<polygon fill="midnightblue" stroke="midnightblue" points="119.63,-21.85 109.26,-19.65 116,-27.83 119.63,-21.85"/>
</g>
<!-- Node7&#45;&gt;Node8 -->
<g id="edge9" class="edge">
<title>Node7&#45;&gt;Node8</title>
<path fill="none" stroke="midnightblue" d="M198.3,-56.32C212.18,-47.9 233.49,-34.97 249.8,-25.07"/>
<polygon fill="midnightblue" stroke="midnightblue" points="252,-27.83 258.74,-19.65 248.37,-21.85 252,-27.83"/>
</g>
<!-- Node9&#45;&gt;Node4 -->
<g id="edge11" class="edge">
<title>Node9&#45;&gt;Node4</title>
<path fill="none" stroke="midnightblue" d="M1000.1,-168.42C999.78,-154.46 997,-126.9 981,-112 957.63,-90.24 870.98,-77.35 817.17,-71.27"/>
<polygon fill="midnightblue" stroke="midnightblue" points="817.52,-67.79 807.2,-70.18 816.76,-74.75 817.52,-67.79"/>
</g>
<!-- Node10&#45;&gt;Node3 -->
<g id="edge23" class="edge">
<title>Node10&#45;&gt;Node3</title>
<path fill="none" stroke="midnightblue" d="M491.73,-175.9C398.23,-173.2 223.51,-163.91 171,-132 132.26,-108.46 110.1,-56.87 100.59,-29.27"/>
<polygon fill="midnightblue" stroke="midnightblue" points="103.89,-28.09 97.46,-19.67 97.23,-30.26 103.89,-28.09"/>
</g>
<!-- Node10&#45;&gt;Node4 -->
<g id="edge13" class="edge">
<title>Node10&#45;&gt;Node4</title>
<path fill="none" stroke="midnightblue" d="M564.45,-168.47C584.01,-155.3 623.38,-129.69 659,-112 684.73,-99.22 715.03,-87.4 737.92,-79.09"/>
<polygon fill="midnightblue" stroke="midnightblue" points="739.33,-82.3 747.56,-75.64 736.97,-75.71 739.33,-82.3"/>
</g>
<!-- Node10&#45;&gt;Node6 -->
<g id="edge14" class="edge">
<title>Node10&#45;&gt;Node6</title>
<path fill="none" stroke="midnightblue" d="M495.82,-168.47C440.85,-160.04 354.47,-146.54 270.11,-132.16"/>
<polygon fill="midnightblue" stroke="midnightblue" points="270.54,-128.68 260.1,-130.45 269.36,-135.58 270.54,-128.68"/>
</g>
<!-- Node10&#45;&gt;Node8 -->
<g id="edge19" class="edge">
<title>Node10&#45;&gt;Node8</title>
<path fill="none" stroke="midnightblue" d="M551.65,-168.24C550.65,-154.53 546.79,-127.91 532,-112 470.4,-45.71 360.1,-22.34 305.48,-14.59"/>
<polygon fill="midnightblue" stroke="midnightblue" points="305.7,-11.08 295.33,-13.23 304.78,-18.02 305.7,-11.08"/>
</g>
<!-- Node10&#45;&gt;Node11 -->
<g id="edge15" class="edge">
<title>Node10&#45;&gt;Node11</title>
<path fill="none" stroke="midnightblue" d="M603.34,-168.44C667.81,-157.7 777.07,-139.49 835.8,-129.7"/>
<polygon fill="midnightblue" stroke="midnightblue" points="836.52,-133.13 845.81,-128.03 835.37,-126.22 836.52,-133.13"/>
</g>
<!-- Node12 -->
<g id="node12" class="node">
<title>Node12</title>
<g id="a_node12"><a xlink:title=" ">
<polygon fill="white" stroke="#bfbfbf" points="580,-112.5 580,-131.5 612,-131.5 612,-112.5 580,-112.5"/>
<text text-anchor="middle" x="596" y="-119.5" font-family="Helvetica,sans-Serif" font-size="10.00">set</text>
</a>
</g>
</g>
<!-- Node10&#45;&gt;Node12 -->
<g id="edge16" class="edge">
<title>Node10&#45;&gt;Node12</title>
<path fill="none" stroke="midnightblue" d="M559.27,-168.08C565.54,-160.38 574.79,-149.03 582.43,-139.65"/>
<polygon fill="midnightblue" stroke="midnightblue" points="585.27,-141.71 588.87,-131.75 579.84,-137.29 585.27,-141.71"/>
</g>
<!-- Node13 -->
<g id="node13" class="node">
<title>Node13</title>
<g id="a_node13"><a xlink:title=" ">
<polygon fill="white" stroke="#bfbfbf" points="278,-112.5 278,-131.5 316,-131.5 316,-112.5 278,-112.5"/>
<text text-anchor="middle" x="297" y="-119.5" font-family="Helvetica,sans-Serif" font-size="10.00">map</text>
</a>
</g>
</g>
<!-- Node10&#45;&gt;Node13 -->
<g id="edge17" class="edge">
<title>Node10&#45;&gt;Node13</title>
<path fill="none" stroke="midnightblue" d="M500.23,-168.49C456.23,-160.86 391.24,-148.67 326.21,-132.08"/>
<polygon fill="midnightblue" stroke="midnightblue" points="326.75,-128.61 316.19,-129.49 325,-135.38 326.75,-128.61"/>
</g>
<!-- Node10&#45;&gt;Node14 -->
<g id="edge18" class="edge">
<title>Node10&#45;&gt;Node14</title>
<path fill="none" stroke="midnightblue" d="M612.15,-172.2C682.38,-165.99 802.12,-153.59 914.18,-131.89"/>
<polygon fill="midnightblue" stroke="midnightblue" points="915.17,-135.26 924.3,-129.9 913.82,-128.39 915.17,-135.26"/>
</g>
<!-- Node15 -->
<g id="node15" class="node">
<title>Node15</title>
<g id="a_node15"><a xlink:title=" ">
<polygon fill="white" stroke="#bfbfbf" points="334,-112.5 334,-131.5 390,-131.5 390,-112.5 334,-112.5"/>
<text text-anchor="middle" x="362" y="-119.5" font-family="Helvetica,sans-Serif" font-size="10.00">iomanip</text>
</a>
</g>
</g>
<!-- Node10&#45;&gt;Node15 -->
<g id="edge20" class="edge">
<title>Node10&#45;&gt;Node15</title>
<path fill="none" stroke="midnightblue" d="M521.89,-168.44C488.8,-159.04 435.58,-143.91 399.73,-133.72"/>
<polygon fill="midnightblue" stroke="midnightblue" points="400.68,-130.36 390.11,-130.99 398.77,-137.09 400.68,-130.36"/>
</g>
<!-- Node16 -->
<g id="node16" class="node">
<title>Node16</title>
<g id="a_node16"><a xlink:title=" ">
<polygon fill="white" stroke="#bfbfbf" points="408,-112.5 408,-131.5 452,-131.5 452,-112.5 408,-112.5"/>
<text text-anchor="middle" x="430" y="-119.5" font-family="Helvetica,sans-Serif" font-size="10.00">bitset</text>
</a>
</g>
</g>
<!-- Node10&#45;&gt;Node16 -->
<g id="edge21" class="edge">
<title>Node10&#45;&gt;Node16</title>
<path fill="none" stroke="midnightblue" d="M532.67,-168.44C512.68,-159.6 481.26,-145.69 458.44,-135.59"/>
<polygon fill="midnightblue" stroke="midnightblue" points="459.8,-132.36 449.24,-131.52 456.97,-138.76 459.8,-132.36"/>
</g>
<!-- Node17 -->
<g id="node17" class="node">
<title>Node17</title>
<g id="a_node17"><a xlink:title=" ">
<polygon fill="white" stroke="#bfbfbf" points="470.5,-112.5 470.5,-131.5 523.5,-131.5 523.5,-112.5 470.5,-112.5"/>
<text text-anchor="middle" x="497" y="-119.5" font-family="Helvetica,sans-Serif" font-size="10.00">string.h</text>
</a>
</g>
</g>
<!-- Node10&#45;&gt;Node17 -->
<g id="edge22" class="edge">
<title>Node10&#45;&gt;Node17</title>
<path fill="none" stroke="midnightblue" d="M542.92,-168.08C534.83,-160.14 522.8,-148.34 513.09,-138.8"/>
<polygon fill="midnightblue" stroke="midnightblue" points="515.5,-136.26 505.91,-131.75 510.6,-141.25 515.5,-136.26"/>
</g>
<!-- Node18 -->
<g id="node18" class="node">
<title>Node18</title>
<g id="a_node18"><a xlink:href="../../da/df0/ntv2virtualregisters_8h.html" target="_top" xlink:title="Declares enums for virtual registers used in all platform drivers and the SDK.">
<polygon fill="white" stroke="black" points="668,-112.5 668,-131.5 790,-131.5 790,-112.5 668,-112.5"/>
<text text-anchor="middle" x="729" y="-119.5" font-family="Helvetica,sans-Serif" font-size="10.00">ntv2virtualregisters.h</text>
</a>
</g>
</g>
<!-- Node10&#45;&gt;Node18 -->
<g id="edge24" class="edge">
<title>Node10&#45;&gt;Node18</title>
<path fill="none" stroke="midnightblue" d="M580.05,-168.44C610.08,-159.28 657.91,-144.69 691.24,-134.52"/>
<polygon fill="midnightblue" stroke="midnightblue" points="692.54,-137.78 701.09,-131.52 690.5,-131.09 692.54,-137.78"/>
</g>
<!-- Node18&#45;&gt;Node4 -->
<g id="edge25" class="edge">
<title>Node18&#45;&gt;Node4</title>
<path fill="none" stroke="midnightblue" d="M736.27,-112.08C742.54,-104.38 751.79,-93.03 759.43,-83.65"/>
<polygon fill="midnightblue" stroke="midnightblue" points="762.27,-85.71 765.87,-75.75 756.84,-81.29 762.27,-85.71"/>
</g>
<!-- Node19&#45;&gt;Node3 -->
<g id="edge27" class="edge">
<title>Node19&#45;&gt;Node3</title>
<path fill="none" stroke="midnightblue" d="M487.89,-232.61C420.77,-230.27 313.31,-221.04 227,-188 159.17,-162.04 135.23,-143.33 108,-76 101.99,-61.15 98.67,-43.23 96.9,-29.97"/>
<polygon fill="midnightblue" stroke="midnightblue" points="100.34,-29.24 95.7,-19.71 93.38,-30.04 100.34,-29.24"/>
</g>
<!-- Node19&#45;&gt;Node4 -->
<g id="edge28" class="edge">
<title>Node19&#45;&gt;Node4</title>
<path fill="none" stroke="midnightblue" d="M570.25,-224.34C597.7,-211.42 651.37,-186.66 698,-168 742.24,-150.3 771.54,-170.95 799,-132 809.56,-117.03 798.67,-97.16 787.93,-83.34"/>
<polygon fill="midnightblue" stroke="midnightblue" points="790.56,-81.04 781.46,-75.62 785.2,-85.53 790.56,-81.04"/>
</g>
<!-- Node19&#45;&gt;Node6 -->
<g id="edge29" class="edge">
<title>Node19&#45;&gt;Node6</title>
<path fill="none" stroke="midnightblue" d="M526.22,-224.46C467.39,-204.97 323.1,-157.16 255.73,-134.84"/>
<polygon fill="midnightblue" stroke="midnightblue" points="256.58,-131.43 245.99,-131.61 254.38,-138.08 256.58,-131.43"/>
</g>
<!-- Node19&#45;&gt;Node8 -->
<g id="edge31" class="edge">
<title>Node19&#45;&gt;Node8</title>
<path fill="none" stroke="midnightblue" d="M487.82,-225.6C389.35,-212.74 208.45,-182.71 171,-132 134.41,-82.46 216.38,-144.46 268,-76 277.89,-62.88 278.17,-43.73 276.56,-29.62"/>
<polygon fill="midnightblue" stroke="midnightblue" points="280,-28.93 275.01,-19.59 273.08,-30 280,-28.93"/>
</g>
<!-- Node19&#45;&gt;Node10 -->
<g id="edge30" class="edge">
<title>Node19&#45;&gt;Node10</title>
<path fill="none" stroke="midnightblue" d="M552,-224.08C552,-217.01 552,-206.86 552,-197.99"/>
<polygon fill="midnightblue" stroke="midnightblue" points="555.5,-197.75 552,-187.75 548.5,-197.75 555.5,-197.75"/>
</g>
<!-- Node19&#45;&gt;Node11 -->
<g id="edge32" class="edge">
<title>Node19&#45;&gt;Node11</title>
<path fill="none" stroke="midnightblue" d="M582.76,-224.45C612.5,-215.96 658.71,-202.2 698,-188 719.73,-180.14 724.4,-176.23 746,-168 777.47,-156.01 813.7,-143.58 839.91,-134.83"/>
<polygon fill="midnightblue" stroke="midnightblue" points="841.05,-138.14 849.44,-131.66 838.84,-131.5 841.05,-138.14"/>
</g>
<!-- Node19&#45;&gt;Node14 -->
<g id="edge33" class="edge">
<title>Node19&#45;&gt;Node14</title>
<path fill="none" stroke="midnightblue" d="M589.52,-224.49C626.82,-215.88 685.59,-201.88 736,-188 799.6,-170.49 873.05,-147.29 914.67,-133.87"/>
<polygon fill="midnightblue" stroke="midnightblue" points="915.85,-137.17 924.29,-130.76 913.69,-130.51 915.85,-137.17"/>
</g>
</g>
</svg>
        <g id="navigator" transform="translate(0 0)" fill="#404254">
                <rect fill="#f2f5e9" fill-opacity="0.5" stroke="#606060" stroke-width=".5" x="0" y="0" width="60" height="60"/>
                <use id="zoomplus" xlink:href="#zoomPlus" x="17" y="9" onmousedown="handleZoom(evt,'in')"/>
                <use id="zoomminus" xlink:href="#zoomMin" x="42" y="9" onmousedown="handleZoom(evt,'out')"/>
                <use id="reset" xlink:href="#resetDef" x="30" y="36" onmousedown="handleReset()"/>
                <g id="arrowUp" xlink:href="#dirArrow" transform="translate(30 24)" onmousedown="handlePan(0,-1)">
                  <use xlink:href="#rim" fill="#404040">
                        <set attributeName="fill" to="#808080" begin="arrowUp.mouseover" end="arrowUp.mouseout"/>
                  </use>
                  <path fill="none" stroke="white" stroke-width="1.5" d="M0,-3.0v7 M-2.5,-0.5L0,-3.0L2.5,-0.5"/>
                </g>
                <g id="arrowRight" xlink:href="#dirArrow" transform="rotate(90) translate(36 -43)" onmousedown="handlePan(1,0)">
                  <use xlink:href="#rim" fill="#404040">
                        <set attributeName="fill" to="#808080" begin="arrowRight.mouseover" end="arrowRight.mouseout"/>
                  </use>
                  <path fill="none" stroke="white" stroke-width="1.5" d="M0,-3.0v7 M-2.5,-0.5L0,-3.0L2.5,-0.5"/>
                </g>
                <g id="arrowDown" xlink:href="#dirArrow" transform="rotate(180) translate(-30 -48)" onmousedown="handlePan(0,1)">
                  <use xlink:href="#rim" fill="#404040">
                        <set attributeName="fill" to="#808080" begin="arrowDown.mouseover" end="arrowDown.mouseout"/>
                  </use>
                  <path fill="none" stroke="white" stroke-width="1.5" d="M0,-3.0v7 M-2.5,-0.5L0,-3.0L2.5,-0.5"/>
                </g>
                <g id="arrowLeft" xlink:href="#dirArrow" transform="rotate(270) translate(-36 17)" onmousedown="handlePan(-1,0)">
                  <use xlink:href="#rim" fill="#404040">
                        <set attributeName="fill" to="#808080" begin="arrowLeft.mouseover" end="arrowLeft.mouseout"/>
                  </use>
                  <path fill="none" stroke="white" stroke-width="1.5" d="M0,-3.0v7 M-2.5,-0.5L0,-3.0L2.5,-0.5"/>
                </g>
        </g>
        <svg viewBox="0 0 15 15" width="100%" height="30px" preserveAspectRatio="xMaxYMin meet">
         <g id="arrow_out" transform="scale(0.3 0.3)">
          <a xlink:href="ntv2smpteancdata_8h__incl_org.svg" target="_base">
           <rect id="button" ry="5" rx="5" y="6" x="6" height="38" width="38"
                fill="#f2f5e9" fill-opacity="0.5" stroke="#606060" stroke-width="1.0"/>
           <path id="arrow"
             d="M 11.500037,31.436501 C 11.940474,20.09759 22.043105,11.32322 32.158766,21.979434 L 37.068811,17.246167 C 37.068811,17.246167 37.088388,32 37.088388,32 L 22.160133,31.978069 C 22.160133,31.978069 26.997745,27.140456 26.997745,27.140456 C 18.528582,18.264221 13.291696,25.230495 11.500037,31.436501 z"
             style="fill:#404040;"/>
          </a>
         </g>
        </svg>
</svg>
