<?xml version="1.0" encoding="UTF-8" standalone="no"?>
<!DOCTYPE svg PUBLIC "-//W3C//DTD SVG 1.1//EN"
 "http://www.w3.org/Graphics/SVG/1.1/DTD/svg11.dtd">
<!-- Generated by graphviz version 2.43.0 (0)
 -->
<!-- Title: CNTV2Card Pages: 1 -->
<svg width="255pt" height="353pt"
 viewBox="0.00 0.00 254.50 353.00" xmlns="http://www.w3.org/2000/svg" xmlns:xlink="http://www.w3.org/1999/xlink">
<g id="graph0" class="graph" transform="scale(1 1) rotate(0) translate(4 349)">
<title>CNTV2Card</title>
<polygon fill="white" stroke="transparent" points="-4,4 -4,-349 250.5,-349 250.5,4 -4,4"/>
<!-- Node1 -->
<g id="node1" class="node">
<title>Node1</title>
<g id="a_node1"><a xlink:title="I interrogate and control an AJA video/audio capture/playout device.">
<polygon fill="#bfbfbf" stroke="black" points="98.5,-0.5 98.5,-19.5 170.5,-19.5 170.5,-0.5 98.5,-0.5"/>
<text text-anchor="middle" x="134.5" y="-7.5" font-family="Helvetica,sans-Serif" font-size="10.00">CNTV2Card</text>
</a>
</g>
</g>
<!-- Node2 -->
<g id="node2" class="node">
<title>Node2</title>
<g id="a_node2"><a xlink:href="../../dc/dfc/class_c_n_t_v2_mac_driver_interface.html" target="_top" xlink:title="A Mac&#45;specific implementation of CNTV2DriverInterface.">
<polygon fill="white" stroke="black" points="0,-67.5 0,-86.5 143,-86.5 143,-67.5 0,-67.5"/>
<text text-anchor="middle" x="71.5" y="-74.5" font-family="Helvetica,sans-Serif" font-size="10.00">CNTV2MacDriverInterface</text>
</a>
</g>
</g>
<!-- Node2&#45;&gt;Node1 -->
<g id="edge1" class="edge">
<title>Node2&#45;&gt;Node1</title>
<path fill="none" stroke="midnightblue" d="M87.01,-60C99.37,-47.25 116.19,-29.89 126.14,-19.63"/>
<polygon fill="midnightblue" stroke="midnightblue" points="84.44,-57.62 80,-67.23 89.47,-62.49 84.44,-57.62"/>
</g>
<!-- Node3 -->
<g id="node3" class="node">
<title>Node3</title>
<g id="a_node3"><a xlink:href="../../d0/dbc/class_c_n_t_v2_driver_interface.html" target="_top" xlink:title="I&#39;m the base class that undergirds the platform&#45;specific derived classes (from which CNTV2Card is ult...">
<polygon fill="white" stroke="black" points="10,-124.5 10,-143.5 133,-143.5 133,-124.5 10,-124.5"/>
<text text-anchor="middle" x="71.5" y="-131.5" font-family="Helvetica,sans-Serif" font-size="10.00">CNTV2DriverInterface</text>
</a>
</g>
</g>
<!-- Node3&#45;&gt;Node2 -->
<g id="edge2" class="edge">
<title>Node3&#45;&gt;Node2</title>
<path fill="none" stroke="midnightblue" d="M71.5,-114.12C71.5,-104.82 71.5,-94.06 71.5,-86.71"/>
<polygon fill="midnightblue" stroke="midnightblue" points="68,-114.41 71.5,-124.41 75,-114.41 68,-114.41"/>
</g>
<!-- Node4 -->
<g id="node4" class="node">
<title>Node4</title>
<g id="a_node4"><a xlink:href="../../d2/d94/class_n_t_v2_r_p_c_client_a_p_i.html" target="_top" xlink:title="An object that can connect to, and operate remote or fake devices. I have three general API groups:">
<polygon fill="white" stroke="black" points="93,-191.5 93,-210.5 200,-210.5 200,-191.5 93,-191.5"/>
<text text-anchor="middle" x="146.5" y="-198.5" font-family="Helvetica,sans-Serif" font-size="10.00">NTV2RPCClientAPI</text>
</a>
</g>
</g>
<!-- Node4&#45;&gt;Node3 -->
<g id="edge3" class="edge">
<title>Node4&#45;&gt;Node3</title>
<path fill="none" stroke="#9a32cd" stroke-dasharray="5,2" d="M128.45,-184.36C113.71,-171.58 93.41,-153.99 81.45,-143.63"/>
<polygon fill="#9a32cd" stroke="#9a32cd" points="126.54,-187.33 136.39,-191.23 131.12,-182.04 126.54,-187.33"/>
<text text-anchor="middle" x="138.5" y="-165" font-family="Helvetica,sans-Serif" font-size="10.00"> _pRPCAPI</text>
</g>
<!-- Node5 -->
<g id="node5" class="node">
<title>Node5</title>
<g id="a_node5"><a xlink:href="../../d7/d93/class_n_t_v2_r_p_c_base.html" target="_top" xlink:title="Common base class for NTV2RPCClientAPI and NTV2RPCServerAPI.">
<polygon fill="white" stroke="black" points="113.5,-258.5 113.5,-277.5 199.5,-277.5 199.5,-258.5 113.5,-258.5"/>
<text text-anchor="middle" x="156.5" y="-265.5" font-family="Helvetica,sans-Serif" font-size="10.00">NTV2RPCBase</text>
</a>
</g>
</g>
<!-- Node5&#45;&gt;Node4 -->
<g id="edge4" class="edge">
<title>Node5&#45;&gt;Node4</title>
<path fill="none" stroke="midnightblue" d="M153.58,-248.04C151.68,-235.67 149.29,-220.12 147.83,-210.63"/>
<polygon fill="midnightblue" stroke="midnightblue" points="150.17,-248.88 155.15,-258.23 157.09,-247.82 150.17,-248.88"/>
</g>
<!-- Node6 -->
<g id="node6" class="node">
<title>Node6</title>
<g id="a_node6"><a xlink:href="../../d9/df4/class_a_j_a_lock.html" target="_top" xlink:title=" ">
<polygon fill="white" stroke="black" points="42.5,-325.5 42.5,-344.5 98.5,-344.5 98.5,-325.5 42.5,-325.5"/>
<text text-anchor="middle" x="70.5" y="-332.5" font-family="Helvetica,sans-Serif" font-size="10.00">AJALock</text>
</a>
</g>
</g>
<!-- Node6&#45;&gt;Node3 -->
<g id="edge7" class="edge">
<title>Node6&#45;&gt;Node3</title>
<path fill="none" stroke="#9a32cd" stroke-dasharray="5,2" d="M67.31,-315.2C64.12,-294.21 59.9,-259.21 61.5,-229 63.17,-197.53 67.96,-160.39 70.25,-143.79"/>
<polygon fill="#9a32cd" stroke="#9a32cd" points="63.89,-315.98 68.94,-325.3 70.8,-314.87 63.89,-315.98"/>
<text text-anchor="middle" x="104.5" y="-232" font-family="Helvetica,sans-Serif" font-size="10.00"> mRegWritesLock</text>
</g>
<!-- Node6&#45;&gt;Node5 -->
<g id="edge5" class="edge">
<title>Node6&#45;&gt;Node5</title>
<path fill="none" stroke="#9a32cd" stroke-dasharray="5,2" d="M78.66,-316.47C82.64,-309.39 87.99,-301.59 94.5,-296 103.94,-287.9 116.2,-281.87 127.31,-277.6"/>
<polygon fill="#9a32cd" stroke="#9a32cd" points="75.53,-314.91 74.1,-325.41 81.76,-318.09 75.53,-314.91"/>
<text text-anchor="middle" x="128" y="-299" font-family="Helvetica,sans-Serif" font-size="10.00"> mParamLock</text>
</g>
<!-- Node7 -->
<g id="node7" class="node">
<title>Node7</title>
<g id="a_node7"><a xlink:href="../../d6/d01/class_n_t_v2_dictionary.html" target="_top" xlink:title="A simple (not thread&#45;safe) set of key/value pairs. (New in SDK 16.3)">
<polygon fill="white" stroke="black" points="132,-325.5 132,-344.5 225,-344.5 225,-325.5 132,-325.5"/>
<text text-anchor="middle" x="178.5" y="-332.5" font-family="Helvetica,sans-Serif" font-size="10.00">NTV2Dictionary</text>
</a>
</g>
</g>
<!-- Node7&#45;&gt;Node5 -->
<g id="edge6" class="edge">
<title>Node7&#45;&gt;Node5</title>
<path fill="none" stroke="#9a32cd" stroke-dasharray="5,2" d="M172.21,-315.41C168,-302.99 162.67,-287.22 159.42,-277.63"/>
<polygon fill="#9a32cd" stroke="#9a32cd" points="169.01,-316.88 175.53,-325.23 175.64,-314.64 169.01,-316.88"/>
<text text-anchor="middle" x="193" y="-299" font-family="Helvetica,sans-Serif" font-size="10.00"> mParams</text>
</g>
<!-- Node8 -->
<g id="node8" class="node">
<title>Node8</title>
<g id="a_node8"><a xlink:href="../../d5/dc4/class_n_t_v2_buffer.html" target="_top" xlink:title="Describes a user&#45;space buffer on the host computer. I have an address and a length,...">
<polygon fill="white" stroke="black" points="161.5,-67.5 161.5,-86.5 233.5,-86.5 233.5,-67.5 161.5,-67.5"/>
<text text-anchor="middle" x="197.5" y="-74.5" font-family="Helvetica,sans-Serif" font-size="10.00">NTV2Buffer</text>
</a>
</g>
</g>
<!-- Node8&#45;&gt;Node1 -->
<g id="edge8" class="edge">
<title>Node8&#45;&gt;Node1</title>
<path fill="none" stroke="#9a32cd" stroke-dasharray="5,2" d="M181.99,-60C169.63,-47.25 152.81,-29.89 142.86,-19.63"/>
<polygon fill="#9a32cd" stroke="#9a32cd" points="179.53,-62.49 189,-67.23 184.56,-57.62 179.53,-62.49"/>
<text text-anchor="middle" x="208" y="-41" font-family="Helvetica,sans-Serif" font-size="10.00"> NULL_POINTER</text>
</g>
</g>
</svg>
