<?xml version="1.0" encoding="UTF-8" standalone="no"?>
<!DOCTYPE svg PUBLIC "-//W3C//DTD SVG 1.1//EN"
 "http://www.w3.org/Graphics/SVG/1.1/DTD/svg11.dtd">
<!-- Generated by graphviz version 2.43.0 (0)
 -->
<!-- Title: HevcDeviceDebug Pages: 1 -->
<svg width="262pt" height="173pt"
 viewBox="0.00 0.00 261.50 173.00" xmlns="http://www.w3.org/2000/svg" xmlns:xlink="http://www.w3.org/1999/xlink">
<g id="graph0" class="graph" transform="scale(1 1) rotate(0) translate(4 169)">
<title>HevcDeviceDebug</title>
<polygon fill="white" stroke="transparent" points="-4,4 -4,-169 257.5,-169 257.5,4 -4,4"/>
<!-- Node1 -->
<g id="node1" class="node">
<title>Node1</title>
<g id="a_node1"><a xlink:title=" ">
<polygon fill="#bfbfbf" stroke="black" points="67.5,-0.5 67.5,-19.5 174.5,-19.5 174.5,-0.5 67.5,-0.5"/>
<text text-anchor="middle" x="121" y="-7.5" font-family="Helvetica,sans-Serif" font-size="10.00">HevcDeviceDebug</text>
</a>
</g>
</g>
<!-- Node2 -->
<g id="node2" class="node">
<title>Node2</title>
<g id="a_node2"><a xlink:href="../../d1/d37/struct_hevc_device_status.html" target="_top" xlink:title=" ">
<polygon fill="white" stroke="black" points="0,-78.5 0,-97.5 106,-97.5 106,-78.5 0,-78.5"/>
<text text-anchor="middle" x="53" y="-85.5" font-family="Helvetica,sans-Serif" font-size="10.00">HevcDeviceStatus</text>
</a>
</g>
</g>
<!-- Node2&#45;&gt;Node1 -->
<g id="edge1" class="edge">
<title>Node2&#45;&gt;Node1</title>
<path fill="none" stroke="#9a32cd" stroke-dasharray="5,2" d="M67.81,-70.44C81.82,-54.79 102.27,-31.93 113.29,-19.62"/>
<polygon fill="#9a32cd" stroke="#9a32cd" points="64.86,-68.5 60.8,-78.28 70.08,-73.16 64.86,-68.5"/>
<text text-anchor="middle" x="129.5" y="-46.5" font-family="Helvetica,sans-Serif" font-size="10.00"> deviceStatus</text>
</g>
<!-- Node3 -->
<g id="node3" class="node">
<title>Node3</title>
<g id="a_node3"><a xlink:href="../../dd/dbf/structhevc__gpio__state.html" target="_top" xlink:title=" ">
<polygon fill="white" stroke="black" points="5,-145.5 5,-164.5 101,-164.5 101,-145.5 5,-145.5"/>
<text text-anchor="middle" x="53" y="-152.5" font-family="Helvetica,sans-Serif" font-size="10.00">hevc_gpio_state</text>
</a>
</g>
</g>
<!-- Node3&#45;&gt;Node2 -->
<g id="edge2" class="edge">
<title>Node3&#45;&gt;Node2</title>
<path fill="none" stroke="#9a32cd" stroke-dasharray="5,2" d="M53,-135.04C53,-122.67 53,-107.12 53,-97.63"/>
<polygon fill="#9a32cd" stroke="#9a32cd" points="49.5,-135.23 53,-145.23 56.5,-135.23 49.5,-135.23"/>
<text text-anchor="middle" x="78" y="-119" font-family="Helvetica,sans-Serif" font-size="10.00"> gpioState</text>
</g>
<!-- Node4 -->
<g id="node4" class="node">
<title>Node4</title>
<g id="a_node4"><a xlink:href="../../d9/d1f/structhevc__stream__statistics.html" target="_top" xlink:title=" ">
<polygon fill="white" stroke="black" points="124.5,-78.5 124.5,-97.5 253.5,-97.5 253.5,-78.5 124.5,-78.5"/>
<text text-anchor="middle" x="189" y="-85.5" font-family="Helvetica,sans-Serif" font-size="10.00">hevc_stream_statistics</text>
</a>
</g>
</g>
<!-- Node4&#45;&gt;Node1 -->
<g id="edge3" class="edge">
<title>Node4&#45;&gt;Node1</title>
<path fill="none" stroke="#9a32cd" stroke-dasharray="5,2" d="M183.84,-68.77C180.32,-58.81 174.86,-46.77 167,-38 160.08,-30.28 150.41,-24.15 141.72,-19.69"/>
<polygon fill="#9a32cd" stroke="#9a32cd" points="180.56,-70.01 186.91,-78.49 187.23,-67.9 180.56,-70.01"/>
<text text-anchor="middle" x="202" y="-52" font-family="Helvetica,sans-Serif" font-size="10.00"> encStats</text>
<text text-anchor="middle" x="202" y="-41" font-family="Helvetica,sans-Serif" font-size="10.00">rawStats</text>
</g>
</g>
</svg>
