<?xml version="1.0" encoding="UTF-8" standalone="no"?>
<!DOCTYPE svg PUBLIC "-//W3C//DTD SVG 1.1//EN"
 "http://www.w3.org/Graphics/SVG/1.1/DTD/svg11.dtd">
<!-- Generated by graphviz version 2.43.0 (0)
 -->
<!-- Title: /home/tcbuilder/buildAgent/work/df8e8cce5bebfd58/libajantv2/ajantv2/src/ntv2hdmi.cpp Pages: 1 -->
<svg width="1951pt" height="610pt"
 viewBox="0.00 0.00 1951.44 610.00" xmlns="http://www.w3.org/2000/svg" xmlns:xlink="http://www.w3.org/1999/xlink">
<g id="graph0" class="graph" transform="scale(1 1) rotate(0) translate(4 606)">
<title>/home/tcbuilder/buildAgent/work/df8e8cce5bebfd58/libajantv2/ajantv2/src/ntv2hdmi.cpp</title>
<polygon fill="white" stroke="transparent" points="-4,4 -4,-606 1947.44,-606 1947.44,4 -4,4"/>
<!-- Node1 -->
<g id="node1" class="node">
<title>Node1</title>
<g id="a_node1"><a xlink:title="Implements most of CNTV2Card&#39;s HDMI&#45;related functions.">
<polygon fill="#bfbfbf" stroke="black" points="1382,-560.5 1382,-601.5 1570,-601.5 1570,-560.5 1382,-560.5"/>
<text text-anchor="start" x="1390" y="-589.5" font-family="Helvetica,sans-Serif" font-size="10.00">/home/tcbuilder/buildAgent</text>
<text text-anchor="start" x="1390" y="-578.5" font-family="Helvetica,sans-Serif" font-size="10.00">/work/df8e8cce5bebfd58/libajantv2</text>
<text text-anchor="middle" x="1476" y="-567.5" font-family="Helvetica,sans-Serif" font-size="10.00">/ajantv2/src/ntv2hdmi.cpp</text>
</a>
</g>
</g>
<!-- Node2 -->
<g id="node2" class="node">
<title>Node2</title>
<g id="a_node2"><a xlink:href="../../df/d4b/ntv2card_8h.html" target="_top" xlink:title="Declares the CNTV2Card class.">
<polygon fill="white" stroke="black" points="1074,-504.5 1074,-523.5 1142,-523.5 1142,-504.5 1074,-504.5"/>
<text text-anchor="middle" x="1108" y="-511.5" font-family="Helvetica,sans-Serif" font-size="10.00">ntv2card.h</text>
</a>
</g>
</g>
<!-- Node1&#45;&gt;Node2 -->
<g id="edge1" class="edge">
<title>Node1&#45;&gt;Node2</title>
<path fill="none" stroke="midnightblue" d="M1381.71,-563.35C1307.93,-550.31 1208.68,-532.78 1152.21,-522.81"/>
<polygon fill="midnightblue" stroke="midnightblue" points="1152.63,-519.33 1142.18,-521.04 1151.42,-526.22 1152.63,-519.33"/>
</g>
<!-- Node35 -->
<g id="node35" class="node">
<title>Node35</title>
<g id="a_node35"><a xlink:href="../../d8/d0f/ntv2devicefeatures_8h.html" target="_top" xlink:title="Declares device capability functions.">
<polygon fill="white" stroke="black" points="1791,-224.5 1791,-243.5 1911,-243.5 1911,-224.5 1791,-224.5"/>
<text text-anchor="middle" x="1851" y="-231.5" font-family="Helvetica,sans-Serif" font-size="10.00">ntv2devicefeatures.h</text>
</a>
</g>
</g>
<!-- Node1&#45;&gt;Node35 -->
<g id="edge86" class="edge">
<title>Node1&#45;&gt;Node35</title>
<path fill="none" stroke="midnightblue" d="M1570.1,-568.21C1680.01,-551.76 1847,-517.18 1847,-459 1847,-459 1847,-459 1847,-345 1847,-312.93 1848.72,-275.63 1849.9,-253.74"/>
<polygon fill="midnightblue" stroke="midnightblue" points="1853.41,-253.73 1850.48,-243.55 1846.42,-253.34 1853.41,-253.73"/>
</g>
<!-- Node3 -->
<g id="node3" class="node">
<title>Node3</title>
<g id="a_node3"><a xlink:href="../../d3/d7d/ntv2macdriverinterface_8h.html" target="_top" xlink:title="Implements the MacOS&#45;specific flavor of CNTV2DriverInterface.">
<polygon fill="white" stroke="black" points="882,-448.5 882,-467.5 1022,-467.5 1022,-448.5 882,-448.5"/>
<text text-anchor="middle" x="952" y="-455.5" font-family="Helvetica,sans-Serif" font-size="10.00">ntv2macdriverinterface.h</text>
</a>
</g>
</g>
<!-- Node2&#45;&gt;Node3 -->
<g id="edge2" class="edge">
<title>Node2&#45;&gt;Node3</title>
<path fill="none" stroke="midnightblue" d="M1083.28,-504.44C1057.15,-495.4 1015.74,-481.06 986.42,-470.92"/>
<polygon fill="midnightblue" stroke="midnightblue" points="987.2,-467.48 976.6,-467.52 984.91,-474.1 987.2,-467.48"/>
</g>
<!-- Node25 -->
<g id="node25" class="node">
<title>Node25</title>
<g id="a_node25"><a xlink:href="../../d0/d81/ntv2utils_8h.html" target="_top" xlink:title="Declares numerous NTV2 utility functions.">
<polygon fill="white" stroke="black" points="1227,-280.5 1227,-299.5 1295,-299.5 1295,-280.5 1227,-280.5"/>
<text text-anchor="middle" x="1261" y="-287.5" font-family="Helvetica,sans-Serif" font-size="10.00">ntv2utils.h</text>
</a>
</g>
</g>
<!-- Node2&#45;&gt;Node25 -->
<g id="edge83" class="edge">
<title>Node2&#45;&gt;Node25</title>
<path fill="none" stroke="midnightblue" d="M1130.49,-504.44C1147.4,-497.03 1170.13,-484.82 1185,-468 1227.38,-420.04 1248.87,-344.88 1257.02,-309.98"/>
<polygon fill="midnightblue" stroke="midnightblue" points="1260.53,-310.31 1259.28,-299.79 1253.7,-308.79 1260.53,-310.31"/>
</g>
<!-- Node38 -->
<g id="node38" class="node">
<title>Node38</title>
<g id="a_node38"><a xlink:href="../../dc/d95/ntv2signalrouter_8h.html" target="_top" xlink:title="Declares CNTV2SignalRouter class.">
<polygon fill="white" stroke="black" points="171.5,-224.5 171.5,-243.5 276.5,-243.5 276.5,-224.5 171.5,-224.5"/>
<text text-anchor="middle" x="224" y="-231.5" font-family="Helvetica,sans-Serif" font-size="10.00">ntv2signalrouter.h</text>
</a>
</g>
</g>
<!-- Node2&#45;&gt;Node38 -->
<g id="edge76" class="edge">
<title>Node2&#45;&gt;Node38</title>
<path fill="none" stroke="midnightblue" d="M1073.91,-513.16C891.4,-513.56 38,-509.74 38,-403 38,-403 38,-403 38,-345 38,-286.37 107.31,-258.33 161.31,-245.38"/>
<polygon fill="midnightblue" stroke="midnightblue" points="162.22,-248.76 171.2,-243.14 160.67,-241.94 162.22,-248.76"/>
</g>
<!-- Node41 -->
<g id="node41" class="node">
<title>Node41</title>
<g id="a_node41"><a xlink:href="../../d8/d58/ntv2devicecapabilities_8h.html" target="_top" xlink:title="Declares the DeviceCapabilities class.">
<polygon fill="white" stroke="black" points="1040,-448.5 1040,-467.5 1176,-467.5 1176,-448.5 1040,-448.5"/>
<text text-anchor="middle" x="1108" y="-455.5" font-family="Helvetica,sans-Serif" font-size="10.00">ntv2devicecapabilities.h</text>
</a>
</g>
</g>
<!-- Node2&#45;&gt;Node41 -->
<g id="edge84" class="edge">
<title>Node2&#45;&gt;Node41</title>
<path fill="none" stroke="midnightblue" d="M1108,-504.08C1108,-497.01 1108,-486.86 1108,-477.99"/>
<polygon fill="midnightblue" stroke="midnightblue" points="1111.5,-477.75 1108,-467.75 1104.5,-477.75 1111.5,-477.75"/>
</g>
<!-- Node4 -->
<g id="node4" class="node">
<title>Node4</title>
<g id="a_node4"><a xlink:href="../../d4/dd7/ntv2publicinterface_8h.html" target="_top" xlink:title="Declares enums and structs used by all platform drivers and the SDK.">
<polygon fill="white" stroke="black" points="930,-168.5 930,-187.5 1050,-187.5 1050,-168.5 930,-168.5"/>
<text text-anchor="middle" x="990" y="-175.5" font-family="Helvetica,sans-Serif" font-size="10.00">ntv2publicinterface.h</text>
</a>
</g>
</g>
<!-- Node3&#45;&gt;Node4 -->
<g id="edge3" class="edge">
<title>Node3&#45;&gt;Node4</title>
<path fill="none" stroke="midnightblue" d="M952,-448.44C952,-429.94 952,-384.81 952,-347 952,-347 952,-347 952,-289 952,-254.81 968.6,-217.76 979.86,-196.57"/>
<polygon fill="midnightblue" stroke="midnightblue" points="982.95,-198.22 984.72,-187.77 976.82,-194.83 982.95,-198.22"/>
</g>
<!-- Node19 -->
<g id="node19" class="node">
<title>Node19</title>
<g id="a_node19"><a xlink:href="../../da/d23/ntv2macpublicinterface_8h.html" target="_top" xlink:title="Declares MacOS&#45;only enums used by the Mac driver and the SDK.">
<polygon fill="white" stroke="black" points="315.5,-392.5 315.5,-411.5 456.5,-411.5 456.5,-392.5 315.5,-392.5"/>
<text text-anchor="middle" x="386" y="-399.5" font-family="Helvetica,sans-Serif" font-size="10.00">ntv2macpublicinterface.h</text>
</a>
</g>
</g>
<!-- Node3&#45;&gt;Node19 -->
<g id="edge22" class="edge">
<title>Node3&#45;&gt;Node19</title>
<path fill="none" stroke="midnightblue" d="M881.75,-450.3C776.38,-440.24 577.97,-421.32 466.77,-410.71"/>
<polygon fill="midnightblue" stroke="midnightblue" points="466.91,-407.2 456.62,-409.74 466.24,-414.17 466.91,-407.2"/>
</g>
<!-- Node21 -->
<g id="node21" class="node">
<title>Node21</title>
<g id="a_node21"><a xlink:href="../../d4/dc0/ntv2driverinterface_8h.html" target="_top" xlink:title="Declares the CNTV2DriverInterface base class.">
<polygon fill="white" stroke="black" points="983.5,-392.5 983.5,-411.5 1102.5,-411.5 1102.5,-392.5 983.5,-392.5"/>
<text text-anchor="middle" x="1043" y="-399.5" font-family="Helvetica,sans-Serif" font-size="10.00">ntv2driverinterface.h</text>
</a>
</g>
</g>
<!-- Node3&#45;&gt;Node21 -->
<g id="edge25" class="edge">
<title>Node3&#45;&gt;Node21</title>
<path fill="none" stroke="midnightblue" d="M966.62,-448.32C980.95,-439.82 1003.01,-426.73 1019.75,-416.8"/>
<polygon fill="midnightblue" stroke="midnightblue" points="1021.6,-419.77 1028.42,-411.65 1018.03,-413.75 1021.6,-419.77"/>
</g>
<!-- Node5 -->
<g id="node5" class="node">
<title>Node5</title>
<g id="a_node5"><a xlink:href="../../db/de2/ajatypes_8h.html" target="_top" xlink:title="Declares the most fundamental data types used by NTV2. Since Windows NT was the first principal devel...">
<polygon fill="white" stroke="black" points="1296,-56.5 1296,-75.5 1364,-75.5 1364,-56.5 1296,-56.5"/>
<text text-anchor="middle" x="1330" y="-63.5" font-family="Helvetica,sans-Serif" font-size="10.00">ajatypes.h</text>
</a>
</g>
</g>
<!-- Node4&#45;&gt;Node5 -->
<g id="edge4" class="edge">
<title>Node4&#45;&gt;Node5</title>
<path fill="none" stroke="midnightblue" d="M1050,-172.29C1099.68,-166.87 1171.36,-155.48 1230,-132 1261.01,-119.59 1292.64,-97.01 1311.8,-82.01"/>
<polygon fill="midnightblue" stroke="midnightblue" points="1314.05,-84.69 1319.68,-75.71 1309.68,-79.22 1314.05,-84.69"/>
</g>
<!-- Node7 -->
<g id="node7" class="node">
<title>Node7</title>
<g id="a_node7"><a xlink:href="../../d6/d0c/ntv2enums_8h.html" target="_top" xlink:title="Enumerations for controlling NTV2 devices.">
<polygon fill="white" stroke="black" points="1615,-112.5 1615,-131.5 1695,-131.5 1695,-112.5 1615,-112.5"/>
<text text-anchor="middle" x="1655" y="-119.5" font-family="Helvetica,sans-Serif" font-size="10.00">ntv2enums.h</text>
</a>
</g>
</g>
<!-- Node4&#45;&gt;Node7 -->
<g id="edge6" class="edge">
<title>Node4&#45;&gt;Node7</title>
<path fill="none" stroke="midnightblue" d="M1050.19,-172.11C1180.04,-161.57 1484.48,-136.85 1604.8,-127.08"/>
<polygon fill="midnightblue" stroke="midnightblue" points="1605.16,-130.56 1614.84,-126.26 1604.59,-123.58 1605.16,-130.56"/>
</g>
<!-- Node9 -->
<g id="node9" class="node">
<title>Node9</title>
<g id="a_node9"><a xlink:href="../../d6/dd9/ajaexport_8h.html" target="_top" xlink:title="Defines the import/export macros for producing DLLs or LIBs.">
<polygon fill="white" stroke="black" points="1503,-0.5 1503,-19.5 1575,-19.5 1575,-0.5 1503,-0.5"/>
<text text-anchor="middle" x="1539" y="-7.5" font-family="Helvetica,sans-Serif" font-size="10.00">ajaexport.h</text>
</a>
</g>
</g>
<!-- Node4&#45;&gt;Node9 -->
<g id="edge19" class="edge">
<title>Node4&#45;&gt;Node9</title>
<path fill="none" stroke="midnightblue" d="M1035.6,-168.43C1070.26,-161.07 1118.7,-148.95 1159,-132 1219.99,-106.36 1224.99,-79.08 1287,-56 1355.97,-30.33 1441.15,-19.04 1492.72,-14.27"/>
<polygon fill="midnightblue" stroke="midnightblue" points="1493.23,-17.74 1502.88,-13.37 1492.61,-10.77 1493.23,-17.74"/>
</g>
<!-- Node10 -->
<g id="node10" class="node">
<title>Node10</title>
<g id="a_node10"><a xlink:title=" ">
<polygon fill="white" stroke="#bfbfbf" points="770,-0.5 770,-19.5 814,-19.5 814,-0.5 770,-0.5"/>
<text text-anchor="middle" x="792" y="-7.5" font-family="Helvetica,sans-Serif" font-size="10.00">string</text>
</a>
</g>
</g>
<!-- Node4&#45;&gt;Node10 -->
<g id="edge15" class="edge">
<title>Node4&#45;&gt;Node10</title>
<path fill="none" stroke="midnightblue" d="M929.84,-169.08C884.32,-161.81 826.99,-149.51 811,-132 785.39,-103.96 786.26,-56.16 789.14,-29.82"/>
<polygon fill="midnightblue" stroke="midnightblue" points="792.64,-30.03 790.46,-19.66 785.7,-29.12 792.64,-30.03"/>
</g>
<!-- Node11 -->
<g id="node11" class="node">
<title>Node11</title>
<g id="a_node11"><a xlink:title=" ">
<polygon fill="white" stroke="#bfbfbf" points="1434,-112.5 1434,-131.5 1494,-131.5 1494,-112.5 1434,-112.5"/>
<text text-anchor="middle" x="1464" y="-119.5" font-family="Helvetica,sans-Serif" font-size="10.00">iostream</text>
</a>
</g>
</g>
<!-- Node4&#45;&gt;Node11 -->
<g id="edge11" class="edge">
<title>Node4&#45;&gt;Node11</title>
<path fill="none" stroke="midnightblue" d="M1050.03,-170.16C1148.22,-158.98 1340.56,-137.06 1423.9,-127.57"/>
<polygon fill="midnightblue" stroke="midnightblue" points="1424.44,-131.03 1433.98,-126.42 1423.65,-124.07 1424.44,-131.03"/>
</g>
<!-- Node12 -->
<g id="node12" class="node">
<title>Node12</title>
<g id="a_node12"><a xlink:title=" ">
<polygon fill="white" stroke="#bfbfbf" points="104,-112.5 104,-131.5 136,-131.5 136,-112.5 104,-112.5"/>
<text text-anchor="middle" x="120" y="-119.5" font-family="Helvetica,sans-Serif" font-size="10.00">set</text>
</a>
</g>
</g>
<!-- Node4&#45;&gt;Node12 -->
<g id="edge12" class="edge">
<title>Node4&#45;&gt;Node12</title>
<path fill="none" stroke="midnightblue" d="M929.82,-174.81C755.47,-168.34 255.93,-148.76 146.12,-131.39"/>
<polygon fill="midnightblue" stroke="midnightblue" points="146.67,-127.93 136.21,-129.61 145.43,-134.82 146.67,-127.93"/>
</g>
<!-- Node13 -->
<g id="node13" class="node">
<title>Node13</title>
<g id="a_node13"><a xlink:title=" ">
<polygon fill="white" stroke="#bfbfbf" points="154,-112.5 154,-131.5 192,-131.5 192,-112.5 154,-112.5"/>
<text text-anchor="middle" x="173" y="-119.5" font-family="Helvetica,sans-Serif" font-size="10.00">map</text>
</a>
</g>
</g>
<!-- Node4&#45;&gt;Node13 -->
<g id="edge13" class="edge">
<title>Node4&#45;&gt;Node13</title>
<path fill="none" stroke="midnightblue" d="M929.52,-174.93C801.77,-170.22 495.09,-157.1 239,-132 226.84,-130.81 213.47,-129.07 201.97,-127.43"/>
<polygon fill="midnightblue" stroke="midnightblue" points="202.42,-123.96 192.02,-125.98 201.41,-130.89 202.42,-123.96"/>
</g>
<!-- Node14 -->
<g id="node14" class="node">
<title>Node14</title>
<g id="a_node14"><a xlink:title=" ">
<polygon fill="white" stroke="#bfbfbf" points="716.5,-112.5 716.5,-131.5 763.5,-131.5 763.5,-112.5 716.5,-112.5"/>
<text text-anchor="middle" x="740" y="-119.5" font-family="Helvetica,sans-Serif" font-size="10.00">vector</text>
</a>
</g>
</g>
<!-- Node4&#45;&gt;Node14 -->
<g id="edge14" class="edge">
<title>Node4&#45;&gt;Node14</title>
<path fill="none" stroke="midnightblue" d="M948.5,-168.49C905.72,-159.65 837.11,-145.27 778,-132 776.55,-131.68 775.08,-131.34 773.58,-131"/>
<polygon fill="midnightblue" stroke="midnightblue" points="774.23,-127.56 763.7,-128.7 772.65,-134.37 774.23,-127.56"/>
</g>
<!-- Node15 -->
<g id="node15" class="node">
<title>Node15</title>
<g id="a_node15"><a xlink:title=" ">
<polygon fill="white" stroke="#bfbfbf" points="1094,-112.5 1094,-131.5 1150,-131.5 1150,-112.5 1094,-112.5"/>
<text text-anchor="middle" x="1122" y="-119.5" font-family="Helvetica,sans-Serif" font-size="10.00">iomanip</text>
</a>
</g>
</g>
<!-- Node4&#45;&gt;Node15 -->
<g id="edge16" class="edge">
<title>Node4&#45;&gt;Node15</title>
<path fill="none" stroke="midnightblue" d="M1010.92,-168.44C1032.74,-159.52 1067.15,-145.44 1091.89,-135.32"/>
<polygon fill="midnightblue" stroke="midnightblue" points="1093.25,-138.54 1101.18,-131.52 1090.6,-132.06 1093.25,-138.54"/>
</g>
<!-- Node16 -->
<g id="node16" class="node">
<title>Node16</title>
<g id="a_node16"><a xlink:title=" ">
<polygon fill="white" stroke="#bfbfbf" points="960,-112.5 960,-131.5 1004,-131.5 1004,-112.5 960,-112.5"/>
<text text-anchor="middle" x="982" y="-119.5" font-family="Helvetica,sans-Serif" font-size="10.00">bitset</text>
</a>
</g>
</g>
<!-- Node4&#45;&gt;Node16 -->
<g id="edge17" class="edge">
<title>Node4&#45;&gt;Node16</title>
<path fill="none" stroke="midnightblue" d="M988.68,-168.08C987.62,-160.93 986.09,-150.64 984.77,-141.69"/>
<polygon fill="midnightblue" stroke="midnightblue" points="988.22,-141.13 983.3,-131.75 981.3,-142.16 988.22,-141.13"/>
</g>
<!-- Node17 -->
<g id="node17" class="node">
<title>Node17</title>
<g id="a_node17"><a xlink:title=" ">
<polygon fill="white" stroke="#bfbfbf" points="1022.5,-112.5 1022.5,-131.5 1075.5,-131.5 1075.5,-112.5 1022.5,-112.5"/>
<text text-anchor="middle" x="1049" y="-119.5" font-family="Helvetica,sans-Serif" font-size="10.00">string.h</text>
</a>
</g>
</g>
<!-- Node4&#45;&gt;Node17 -->
<g id="edge18" class="edge">
<title>Node4&#45;&gt;Node17</title>
<path fill="none" stroke="midnightblue" d="M999.48,-168.32C1008.2,-160.34 1021.34,-148.31 1031.9,-138.65"/>
<polygon fill="midnightblue" stroke="midnightblue" points="1034.33,-141.17 1039.35,-131.83 1029.61,-136 1034.33,-141.17"/>
</g>
<!-- Node18 -->
<g id="node18" class="node">
<title>Node18</title>
<g id="a_node18"><a xlink:href="../../da/df0/ntv2virtualregisters_8h.html" target="_top" xlink:title="Declares enums for virtual registers used in all platform drivers and the SDK.">
<polygon fill="white" stroke="black" points="820,-112.5 820,-131.5 942,-131.5 942,-112.5 820,-112.5"/>
<text text-anchor="middle" x="881" y="-119.5" font-family="Helvetica,sans-Serif" font-size="10.00">ntv2virtualregisters.h</text>
</a>
</g>
</g>
<!-- Node4&#45;&gt;Node18 -->
<g id="edge20" class="edge">
<title>Node4&#45;&gt;Node18</title>
<path fill="none" stroke="midnightblue" d="M972.49,-168.32C954.93,-159.62 927.67,-146.12 907.47,-136.11"/>
<polygon fill="midnightblue" stroke="midnightblue" points="908.98,-132.96 898.47,-131.65 905.88,-139.23 908.98,-132.96"/>
</g>
<!-- Node6 -->
<g id="node6" class="node">
<title>Node6</title>
<g id="a_node6"><a xlink:title=" ">
<polygon fill="white" stroke="#bfbfbf" points="1303.5,-0.5 1303.5,-19.5 1356.5,-19.5 1356.5,-0.5 1303.5,-0.5"/>
<text text-anchor="middle" x="1330" y="-7.5" font-family="Helvetica,sans-Serif" font-size="10.00">stdint.h</text>
</a>
</g>
</g>
<!-- Node5&#45;&gt;Node6 -->
<g id="edge5" class="edge">
<title>Node5&#45;&gt;Node6</title>
<path fill="none" stroke="midnightblue" d="M1330,-56.08C1330,-49.01 1330,-38.86 1330,-29.99"/>
<polygon fill="midnightblue" stroke="midnightblue" points="1333.5,-29.75 1330,-19.75 1326.5,-29.75 1333.5,-29.75"/>
</g>
<!-- Node7&#45;&gt;Node5 -->
<g id="edge7" class="edge">
<title>Node7&#45;&gt;Node5</title>
<path fill="none" stroke="midnightblue" d="M1614.9,-114.31C1610.21,-113.53 1605.5,-112.75 1601,-112 1521.17,-98.72 1428.1,-83.27 1374.42,-74.37"/>
<polygon fill="midnightblue" stroke="midnightblue" points="1374.66,-70.86 1364.22,-72.68 1373.52,-77.77 1374.66,-70.86"/>
</g>
<!-- Node8 -->
<g id="node8" class="node">
<title>Node8</title>
<g id="a_node8"><a xlink:href="../../d6/db1/ntv2version_8h.html" target="_top" xlink:title="Defines for the NTV2 SDK version number, used by ajantv2/includes/ntv2enums.h. See the ajantv2/includ...">
<polygon fill="white" stroke="black" points="1427.5,-56.5 1427.5,-75.5 1510.5,-75.5 1510.5,-56.5 1427.5,-56.5"/>
<text text-anchor="middle" x="1469" y="-63.5" font-family="Helvetica,sans-Serif" font-size="10.00">ntv2version.h</text>
</a>
</g>
</g>
<!-- Node7&#45;&gt;Node8 -->
<g id="edge8" class="edge">
<title>Node7&#45;&gt;Node8</title>
<path fill="none" stroke="midnightblue" d="M1625.53,-112.44C1593.83,-103.24 1543.27,-88.56 1508.23,-78.39"/>
<polygon fill="midnightblue" stroke="midnightblue" points="1508.91,-74.94 1498.33,-75.52 1506.96,-81.67 1508.91,-74.94"/>
</g>
<!-- Node8&#45;&gt;Node9 -->
<g id="edge9" class="edge">
<title>Node8&#45;&gt;Node9</title>
<path fill="none" stroke="midnightblue" d="M1480.25,-56.32C1490.8,-48.18 1506.8,-35.84 1519.44,-26.09"/>
<polygon fill="midnightblue" stroke="midnightblue" points="1521.77,-28.71 1527.55,-19.83 1517.49,-23.17 1521.77,-28.71"/>
</g>
<!-- Node8&#45;&gt;Node10 -->
<g id="edge10" class="edge">
<title>Node8&#45;&gt;Node10</title>
<path fill="none" stroke="midnightblue" d="M1427.47,-57.91C1422.6,-57.2 1417.69,-56.55 1413,-56 1188.36,-29.86 916.13,-16.39 824.13,-12.34"/>
<polygon fill="midnightblue" stroke="midnightblue" points="824.21,-8.84 814.07,-11.9 823.9,-15.83 824.21,-8.84"/>
</g>
<!-- Node18&#45;&gt;Node5 -->
<g id="edge21" class="edge">
<title>Node18&#45;&gt;Node5</title>
<path fill="none" stroke="midnightblue" d="M942.08,-113.11C945.1,-112.73 948.08,-112.36 951,-112 1071.88,-97.05 1214.56,-80.37 1285.42,-72.15"/>
<polygon fill="midnightblue" stroke="midnightblue" points="1286.23,-75.58 1295.76,-70.95 1285.42,-68.63 1286.23,-75.58"/>
</g>
<!-- Node19&#45;&gt;Node18 -->
<g id="edge24" class="edge">
<title>Node19&#45;&gt;Node18</title>
<path fill="none" stroke="midnightblue" d="M401.36,-392.38C472.45,-352.45 769.84,-185.43 856.94,-136.51"/>
<polygon fill="midnightblue" stroke="midnightblue" points="858.82,-139.47 865.82,-131.52 855.39,-133.37 858.82,-139.47"/>
</g>
<!-- Node20 -->
<g id="node20" class="node">
<title>Node20</title>
<g id="a_node20"><a xlink:title=" ">
<polygon fill="white" stroke="#bfbfbf" points="266.5,-336.5 266.5,-355.5 357.5,-355.5 357.5,-336.5 266.5,-336.5"/>
<text text-anchor="middle" x="312" y="-343.5" font-family="Helvetica,sans-Serif" font-size="10.00">IOKit/IOKitLib.h</text>
</a>
</g>
</g>
<!-- Node19&#45;&gt;Node20 -->
<g id="edge23" class="edge">
<title>Node19&#45;&gt;Node20</title>
<path fill="none" stroke="midnightblue" d="M374.11,-392.32C362.85,-384.11 345.71,-371.6 332.29,-361.81"/>
<polygon fill="midnightblue" stroke="midnightblue" points="334.25,-358.9 324.11,-355.83 330.12,-364.56 334.25,-358.9"/>
</g>
<!-- Node21&#45;&gt;Node4 -->
<g id="edge64" class="edge">
<title>Node21&#45;&gt;Node4</title>
<path fill="none" stroke="midnightblue" d="M1034.06,-392.27C1026.02,-383.81 1014.62,-370.2 1009,-356 987.53,-301.76 987.39,-231.29 988.8,-198"/>
<polygon fill="midnightblue" stroke="midnightblue" points="992.3,-198.03 989.33,-187.86 985.31,-197.67 992.3,-198.03"/>
</g>
<!-- Node21&#45;&gt;Node5 -->
<g id="edge26" class="edge">
<title>Node21&#45;&gt;Node5</title>
<path fill="none" stroke="midnightblue" d="M1050.72,-392.42C1058.81,-383.39 1071.87,-368.77 1083,-356 1172.85,-252.92 1279.05,-127.39 1316.28,-83.27"/>
<polygon fill="midnightblue" stroke="midnightblue" points="1319.01,-85.46 1322.79,-75.56 1313.66,-80.95 1319.01,-85.46"/>
</g>
<!-- Node21&#45;&gt;Node7 -->
<g id="edge27" class="edge">
<title>Node21&#45;&gt;Node7</title>
<path fill="none" stroke="midnightblue" d="M1102.59,-395.64C1247.83,-381.2 1613.57,-336.24 1686,-244 1710.33,-213.01 1684.51,-165.06 1667.47,-139.83"/>
<polygon fill="midnightblue" stroke="midnightblue" points="1670.32,-137.8 1661.7,-131.64 1664.6,-141.83 1670.32,-137.8"/>
</g>
<!-- Node21&#45;&gt;Node10 -->
<g id="edge74" class="edge">
<title>Node21&#45;&gt;Node10</title>
<path fill="none" stroke="midnightblue" d="M983.37,-397.3C846.28,-388.03 498.61,-360.09 214,-300 116.74,-279.47 0,-334.4 0,-235 0,-235 0,-235 0,-121 0,-46.3 82.33,-73.31 155,-56 271.89,-28.16 647.51,-15.2 759.92,-11.89"/>
<polygon fill="midnightblue" stroke="midnightblue" points="760.07,-15.38 769.96,-11.59 759.87,-8.39 760.07,-15.38"/>
</g>
<!-- Node22 -->
<g id="node22" class="node">
<title>Node22</title>
<g id="a_node22"><a xlink:href="../../d8/de5/ntv2nubtypes_8h.html" target="_top" xlink:title="Declares data types and structures used in NTV2 &quot;nub&quot; packets.">
<polygon fill="white" stroke="black" points="612,-168.5 612,-187.5 704,-187.5 704,-168.5 612,-168.5"/>
<text text-anchor="middle" x="658" y="-175.5" font-family="Helvetica,sans-Serif" font-size="10.00">ntv2nubtypes.h</text>
</a>
</g>
</g>
<!-- Node21&#45;&gt;Node22 -->
<g id="edge28" class="edge">
<title>Node21&#45;&gt;Node22</title>
<path fill="none" stroke="midnightblue" d="M1033.7,-392.35C1024.36,-383.51 1009.71,-369.24 998,-356 948.71,-300.25 958.52,-262.76 895,-224 839.81,-190.32 765.01,-180.9 714.31,-178.72"/>
<polygon fill="midnightblue" stroke="midnightblue" points="714.31,-175.22 704.19,-178.37 714.06,-182.22 714.31,-175.22"/>
</g>
<!-- Node24 -->
<g id="node24" class="node">
<title>Node24</title>
<g id="a_node24"><a xlink:href="../../d6/d8f/ntv2nubaccess_8h.html" target="_top" xlink:title="Declares NTV2 &quot;nub&quot; client functions.">
<polygon fill="white" stroke="black" points="696,-336.5 696,-355.5 794,-355.5 794,-336.5 696,-336.5"/>
<text text-anchor="middle" x="745" y="-343.5" font-family="Helvetica,sans-Serif" font-size="10.00">ntv2nubaccess.h</text>
</a>
</g>
</g>
<!-- Node21&#45;&gt;Node24 -->
<g id="edge32" class="edge">
<title>Node21&#45;&gt;Node24</title>
<path fill="none" stroke="midnightblue" d="M995.78,-392.44C943.25,-382.92 858.39,-367.55 802.15,-357.36"/>
<polygon fill="midnightblue" stroke="midnightblue" points="802.46,-353.86 792,-355.52 801.21,-360.74 802.46,-353.86"/>
</g>
<!-- Node21&#45;&gt;Node25 -->
<g id="edge65" class="edge">
<title>Node21&#45;&gt;Node25</title>
<path fill="none" stroke="midnightblue" d="M1060.11,-392.37C1098.07,-373.21 1189.58,-327.04 1234.81,-304.22"/>
<polygon fill="midnightblue" stroke="midnightblue" points="1236.62,-307.22 1243.97,-299.59 1233.47,-300.97 1236.62,-307.22"/>
</g>
<!-- Node29 -->
<g id="node29" class="node">
<title>Node29</title>
<g id="a_node29"><a xlink:href="../../dd/d42/lock_8h.html" target="_top" xlink:title="Declares the AJALock class.">
<polygon fill="white" stroke="black" points="757,-280.5 757,-299.5 883,-299.5 883,-280.5 757,-280.5"/>
<text text-anchor="middle" x="820" y="-287.5" font-family="Helvetica,sans-Serif" font-size="10.00">ajabase/system/lock.h</text>
</a>
</g>
</g>
<!-- Node21&#45;&gt;Node29 -->
<g id="edge73" class="edge">
<title>Node21&#45;&gt;Node29</title>
<path fill="none" stroke="midnightblue" d="M1001.92,-392.44C972.42,-385.27 932.32,-373.39 900,-356 875.53,-342.84 851.32,-321.73 836.05,-307.16"/>
<polygon fill="midnightblue" stroke="midnightblue" points="838.14,-304.31 828.54,-299.83 833.25,-309.32 838.14,-304.31"/>
</g>
<!-- Node21&#45;&gt;Node35 -->
<g id="edge66" class="edge">
<title>Node21&#45;&gt;Node35</title>
<path fill="none" stroke="midnightblue" d="M1102.56,-400.46C1266.98,-398.53 1718.85,-390.15 1776,-356 1796.11,-343.98 1827.56,-283.41 1842.53,-252.79"/>
<polygon fill="midnightblue" stroke="midnightblue" points="1845.74,-254.19 1846.94,-243.66 1839.44,-251.15 1845.74,-254.19"/>
</g>
<!-- Node37 -->
<g id="node37" class="node">
<title>Node37</title>
<g id="a_node37"><a xlink:title=" ">
<polygon fill="white" stroke="#bfbfbf" points="1018,-336.5 1018,-355.5 1074,-355.5 1074,-336.5 1018,-336.5"/>
<text text-anchor="middle" x="1046" y="-343.5" font-family="Helvetica,sans-Serif" font-size="10.00">unistd.h</text>
</a>
</g>
</g>
<!-- Node21&#45;&gt;Node37 -->
<g id="edge75" class="edge">
<title>Node21&#45;&gt;Node37</title>
<path fill="none" stroke="midnightblue" d="M1043.5,-392.08C1043.89,-385.01 1044.45,-374.86 1044.95,-365.99"/>
<polygon fill="midnightblue" stroke="midnightblue" points="1048.45,-365.93 1045.51,-355.75 1041.46,-365.54 1048.45,-365.93"/>
</g>
<!-- Node22&#45;&gt;Node14 -->
<g id="edge31" class="edge">
<title>Node22&#45;&gt;Node14</title>
<path fill="none" stroke="midnightblue" d="M671.17,-168.32C683.85,-159.98 703.23,-147.21 718.21,-137.35"/>
<polygon fill="midnightblue" stroke="midnightblue" points="720.43,-140.08 726.86,-131.65 716.58,-134.23 720.43,-140.08"/>
</g>
<!-- Node23 -->
<g id="node23" class="node">
<title>Node23</title>
<g id="a_node23"><a xlink:href="../../d4/d18/ntv2endian_8h.html" target="_top" xlink:title="Defines a number of handy byte&#45;swapping macros.">
<polygon fill="white" stroke="black" points="618,-112.5 618,-131.5 698,-131.5 698,-112.5 618,-112.5"/>
<text text-anchor="middle" x="658" y="-119.5" font-family="Helvetica,sans-Serif" font-size="10.00">ntv2endian.h</text>
</a>
</g>
</g>
<!-- Node22&#45;&gt;Node23 -->
<g id="edge29" class="edge">
<title>Node22&#45;&gt;Node23</title>
<path fill="none" stroke="midnightblue" d="M658,-168.08C658,-161.01 658,-150.86 658,-141.99"/>
<polygon fill="midnightblue" stroke="midnightblue" points="661.5,-141.75 658,-131.75 654.5,-141.75 661.5,-141.75"/>
</g>
<!-- Node23&#45;&gt;Node5 -->
<g id="edge30" class="edge">
<title>Node23&#45;&gt;Node5</title>
<path fill="none" stroke="midnightblue" d="M698.06,-113.4C701.42,-112.88 704.76,-112.41 708,-112 923.54,-84.88 1183.31,-72.63 1285.57,-68.6"/>
<polygon fill="midnightblue" stroke="midnightblue" points="1285.97,-72.09 1295.83,-68.2 1285.7,-65.09 1285.97,-72.09"/>
</g>
<!-- Node24&#45;&gt;Node10 -->
<g id="edge61" class="edge">
<title>Node24&#45;&gt;Node10</title>
<path fill="none" stroke="midnightblue" d="M695.72,-342.79C533.4,-334.29 27.45,-297.33 57,-168 63.15,-141.06 62.66,-129.55 84,-112 189.42,-25.32 635.91,-13.03 759.93,-11.29"/>
<polygon fill="midnightblue" stroke="midnightblue" points="759.98,-14.79 769.93,-11.16 759.89,-7.79 759.98,-14.79"/>
</g>
<!-- Node24&#45;&gt;Node13 -->
<g id="edge63" class="edge">
<title>Node24&#45;&gt;Node13</title>
<path fill="none" stroke="midnightblue" d="M723.34,-336.44C658.2,-310.72 458.3,-231.93 292,-168 261.33,-156.21 226.13,-142.93 202.01,-133.87"/>
<polygon fill="midnightblue" stroke="midnightblue" points="202.99,-130.5 192.4,-130.26 200.53,-137.05 202.99,-130.5"/>
</g>
<!-- Node24&#45;&gt;Node14 -->
<g id="edge62" class="edge">
<title>Node24&#45;&gt;Node14</title>
<path fill="none" stroke="midnightblue" d="M744.8,-336.3C744.07,-303.63 741.46,-187.87 740.43,-141.96"/>
<polygon fill="midnightblue" stroke="midnightblue" points="743.92,-141.8 740.2,-131.88 736.93,-141.96 743.92,-141.8"/>
</g>
<!-- Node24&#45;&gt;Node25 -->
<g id="edge33" class="edge">
<title>Node24&#45;&gt;Node25</title>
<path fill="none" stroke="midnightblue" d="M794.01,-339.87C894.13,-329.39 1120.78,-305.67 1216.75,-295.63"/>
<polygon fill="midnightblue" stroke="midnightblue" points="1217.12,-299.11 1226.7,-294.59 1216.39,-292.15 1217.12,-299.11"/>
</g>
<!-- Node24&#45;&gt;Node29 -->
<g id="edge52" class="edge">
<title>Node24&#45;&gt;Node29</title>
<path fill="none" stroke="midnightblue" d="M757.05,-336.32C768.46,-328.11 785.83,-315.6 799.43,-305.81"/>
<polygon fill="midnightblue" stroke="midnightblue" points="801.66,-308.52 807.73,-299.83 797.57,-302.84 801.66,-308.52"/>
</g>
<!-- Node25&#45;&gt;Node4 -->
<g id="edge39" class="edge">
<title>Node25&#45;&gt;Node4</title>
<path fill="none" stroke="midnightblue" d="M1239.74,-280.37C1191.95,-260.97 1075.91,-213.87 1020.47,-191.37"/>
<polygon fill="midnightblue" stroke="midnightblue" points="1021.75,-188.11 1011.17,-187.59 1019.12,-194.6 1021.75,-188.11"/>
</g>
<!-- Node25&#45;&gt;Node5 -->
<g id="edge35" class="edge">
<title>Node25&#45;&gt;Node5</title>
<path fill="none" stroke="midnightblue" d="M1295.11,-285.93C1347.89,-280.5 1445.87,-267.49 1471,-244 1508.82,-208.64 1495.82,-183.27 1503,-132 1504.23,-123.2 1508.44,-119.03 1503,-112 1487.34,-91.74 1419.98,-78.9 1374.09,-72.34"/>
<polygon fill="midnightblue" stroke="midnightblue" points="1374.46,-68.85 1364.07,-70.95 1373.5,-75.79 1374.46,-68.85"/>
</g>
<!-- Node25&#45;&gt;Node7 -->
<g id="edge36" class="edge">
<title>Node25&#45;&gt;Node7</title>
<path fill="none" stroke="midnightblue" d="M1295.24,-285.96C1343.06,-280.97 1432.07,-269.01 1504,-244 1516.58,-239.63 1600.04,-196.84 1610,-188 1625.2,-174.51 1637.87,-154.88 1645.85,-140.73"/>
<polygon fill="midnightblue" stroke="midnightblue" points="1649.14,-142.02 1650.81,-131.56 1642.98,-138.69 1649.14,-142.02"/>
</g>
<!-- Node25&#45;&gt;Node9 -->
<g id="edge34" class="edge">
<title>Node25&#45;&gt;Node9</title>
<path fill="none" stroke="midnightblue" d="M1295.18,-287.73C1391.12,-283.85 1657.79,-270.73 1686,-244 1728.98,-203.28 1732.94,-163.65 1704,-112 1677.51,-64.73 1618.88,-36.93 1579.14,-22.83"/>
<polygon fill="midnightblue" stroke="midnightblue" points="1580.07,-19.45 1569.47,-19.54 1577.81,-26.07 1580.07,-19.45"/>
</g>
<!-- Node25&#45;&gt;Node10 -->
<g id="edge49" class="edge">
<title>Node25&#45;&gt;Node10</title>
<path fill="none" stroke="midnightblue" d="M1242.67,-280.47C1228.23,-272.85 1208.67,-260.37 1197,-244 1161.57,-194.28 1202.42,-154.91 1159,-112 1065.34,-19.43 895.12,-9.78 824.28,-10.04"/>
<polygon fill="midnightblue" stroke="midnightblue" points="824.14,-6.55 814.18,-10.15 824.22,-13.54 824.14,-6.55"/>
</g>
<!-- Node25&#45;&gt;Node11 -->
<g id="edge50" class="edge">
<title>Node25&#45;&gt;Node11</title>
<path fill="none" stroke="midnightblue" d="M1295.2,-287.77C1388.54,-284.07 1642.34,-271.54 1667,-244 1719.93,-184.88 1577.02,-146.03 1503.97,-130.56"/>
<polygon fill="midnightblue" stroke="midnightblue" points="1504.65,-127.13 1494.15,-128.53 1503.24,-133.98 1504.65,-127.13"/>
</g>
<!-- Node25&#45;&gt;Node14 -->
<g id="edge51" class="edge">
<title>Node25&#45;&gt;Node14</title>
<path fill="none" stroke="midnightblue" d="M1226.76,-283.99C1155.04,-272.77 984.64,-242.25 851,-188 817.51,-174.4 781.99,-152.01 760.4,-137.38"/>
<polygon fill="midnightblue" stroke="midnightblue" points="762.27,-134.42 752.04,-131.64 758.3,-140.19 762.27,-134.42"/>
</g>
<!-- Node26 -->
<g id="node26" class="node">
<title>Node26</title>
<g id="a_node26"><a xlink:href="../../d9/d61/ntv2videodefines_8h.html" target="_top" xlink:title="Declares common video macros and structs used in the SDK.">
<polygon fill="white" stroke="black" points="1206,-224.5 1206,-243.5 1316,-243.5 1316,-224.5 1206,-224.5"/>
<text text-anchor="middle" x="1261" y="-231.5" font-family="Helvetica,sans-Serif" font-size="10.00">ntv2videodefines.h</text>
</a>
</g>
</g>
<!-- Node25&#45;&gt;Node26 -->
<g id="edge37" class="edge">
<title>Node25&#45;&gt;Node26</title>
<path fill="none" stroke="midnightblue" d="M1261,-280.08C1261,-273.01 1261,-262.86 1261,-253.99"/>
<polygon fill="midnightblue" stroke="midnightblue" points="1264.5,-253.75 1261,-243.75 1257.5,-253.75 1264.5,-253.75"/>
</g>
<!-- Node27 -->
<g id="node27" class="node">
<title>Node27</title>
<g id="a_node27"><a xlink:href="../../dc/df4/ntv2formatdescriptor_8h.html" target="_top" xlink:title="Declares the NTV2FormatDescriptor class.">
<polygon fill="white" stroke="black" points="1334,-224.5 1334,-243.5 1462,-243.5 1462,-224.5 1334,-224.5"/>
<text text-anchor="middle" x="1398" y="-231.5" font-family="Helvetica,sans-Serif" font-size="10.00">ntv2formatdescriptor.h</text>
</a>
</g>
</g>
<!-- Node25&#45;&gt;Node27 -->
<g id="edge40" class="edge">
<title>Node25&#45;&gt;Node27</title>
<path fill="none" stroke="midnightblue" d="M1282.71,-280.44C1305.35,-271.52 1341.07,-257.44 1366.75,-247.32"/>
<polygon fill="midnightblue" stroke="midnightblue" points="1368.37,-250.44 1376.39,-243.52 1365.81,-243.93 1368.37,-250.44"/>
</g>
<!-- Node28 -->
<g id="node28" class="node">
<title>Node28</title>
<g id="a_node28"><a xlink:href="../../de/d26/ntv2m31enums_8h.html" target="_top" xlink:title=" ">
<polygon fill="white" stroke="black" points="1556,-224.5 1556,-243.5 1658,-243.5 1658,-224.5 1556,-224.5"/>
<text text-anchor="middle" x="1607" y="-231.5" font-family="Helvetica,sans-Serif" font-size="10.00">ntv2m31enums.h</text>
</a>
</g>
</g>
<!-- Node25&#45;&gt;Node28 -->
<g id="edge48" class="edge">
<title>Node25&#45;&gt;Node28</title>
<path fill="none" stroke="midnightblue" d="M1295.12,-283.67C1353.42,-274.58 1472.94,-255.92 1545.92,-244.53"/>
<polygon fill="midnightblue" stroke="midnightblue" points="1546.55,-247.98 1555.89,-242.98 1545.47,-241.06 1546.55,-247.98"/>
</g>
<!-- Node26&#45;&gt;Node5 -->
<g id="edge38" class="edge">
<title>Node26&#45;&gt;Node5</title>
<path fill="none" stroke="midnightblue" d="M1265.04,-224.44C1273.17,-207.13 1291.89,-166.67 1306,-132 1312.3,-116.51 1318.84,-98.66 1323.5,-85.6"/>
<polygon fill="midnightblue" stroke="midnightblue" points="1326.89,-86.5 1326.92,-75.9 1320.29,-84.17 1326.89,-86.5"/>
</g>
<!-- Node27&#45;&gt;Node4 -->
<g id="edge44" class="edge">
<title>Node27&#45;&gt;Node4</title>
<path fill="none" stroke="midnightblue" d="M1333.8,-224.5C1259.38,-214.65 1137.14,-198.47 1060.24,-188.3"/>
<polygon fill="midnightblue" stroke="midnightblue" points="1060.54,-184.81 1050.17,-186.96 1059.62,-191.75 1060.54,-184.81"/>
</g>
<!-- Node27&#45;&gt;Node5 -->
<g id="edge42" class="edge">
<title>Node27&#45;&gt;Node5</title>
<path fill="none" stroke="midnightblue" d="M1394.34,-224.08C1383.59,-197.83 1351.93,-120.55 1337.42,-85.12"/>
<polygon fill="midnightblue" stroke="midnightblue" points="1340.54,-83.5 1333.51,-75.57 1334.06,-86.15 1340.54,-83.5"/>
</g>
<!-- Node27&#45;&gt;Node7 -->
<g id="edge43" class="edge">
<title>Node27&#45;&gt;Node7</title>
<path fill="none" stroke="midnightblue" d="M1418.17,-224.37C1463.3,-205.05 1572.62,-158.26 1625.45,-135.65"/>
<polygon fill="midnightblue" stroke="midnightblue" points="1627.11,-138.74 1634.93,-131.59 1624.36,-132.31 1627.11,-138.74"/>
</g>
<!-- Node27&#45;&gt;Node9 -->
<g id="edge41" class="edge">
<title>Node27&#45;&gt;Node9</title>
<path fill="none" stroke="midnightblue" d="M1410.34,-224.5C1432.23,-208.78 1477.93,-173 1503,-132 1523.04,-99.23 1532.51,-54.62 1536.49,-29.74"/>
<polygon fill="midnightblue" stroke="midnightblue" points="1540,-29.93 1537.99,-19.53 1533.08,-28.92 1540,-29.93"/>
</g>
<!-- Node27&#45;&gt;Node10 -->
<g id="edge45" class="edge">
<title>Node27&#45;&gt;Node10</title>
<path fill="none" stroke="midnightblue" d="M1400.04,-224.33C1406.29,-195.39 1421.88,-101.42 1373,-56 1332.66,-18.52 940.76,-12.24 824.41,-11.2"/>
<polygon fill="midnightblue" stroke="midnightblue" points="824.36,-7.7 814.34,-11.12 824.31,-14.7 824.36,-7.7"/>
</g>
<!-- Node27&#45;&gt;Node11 -->
<g id="edge46" class="edge">
<title>Node27&#45;&gt;Node11</title>
<path fill="none" stroke="midnightblue" d="M1403.18,-224.37C1414.02,-206.3 1439.29,-164.18 1453.62,-140.31"/>
<polygon fill="midnightblue" stroke="midnightblue" points="1456.7,-141.97 1458.85,-131.59 1450.7,-138.37 1456.7,-141.97"/>
</g>
<!-- Node27&#45;&gt;Node14 -->
<g id="edge47" class="edge">
<title>Node27&#45;&gt;Node14</title>
<path fill="none" stroke="midnightblue" d="M1333.92,-224.98C1330.91,-224.64 1327.92,-224.31 1325,-224 1145.74,-204.97 1097.05,-226.78 921,-188 865.36,-175.74 803.47,-150.94 768.38,-135.77"/>
<polygon fill="midnightblue" stroke="midnightblue" points="769.37,-132.38 758.81,-131.58 766.57,-138.79 769.37,-132.38"/>
</g>
<!-- Node30 -->
<g id="node30" class="node">
<title>Node30</title>
<g id="a_node30"><a xlink:href="../../d4/d79/public_8h.html" target="_top" xlink:title="Master header for the ajabase library.">
<polygon fill="white" stroke="black" points="452,-168.5 452,-187.5 594,-187.5 594,-168.5 452,-168.5"/>
<text text-anchor="middle" x="523" y="-175.5" font-family="Helvetica,sans-Serif" font-size="10.00">ajabase/common/public.h</text>
</a>
</g>
</g>
<!-- Node29&#45;&gt;Node30 -->
<g id="edge53" class="edge">
<title>Node29&#45;&gt;Node30</title>
<path fill="none" stroke="midnightblue" d="M796.69,-280.37C744.1,-260.89 616.09,-213.48 555.64,-191.09"/>
<polygon fill="midnightblue" stroke="midnightblue" points="556.79,-187.78 546.2,-187.59 554.36,-194.35 556.79,-187.78"/>
</g>
<!-- Node34 -->
<g id="node34" class="node">
<title>Node34</title>
<g id="a_node34"><a xlink:title=" ">
<polygon fill="white" stroke="#bfbfbf" points="830,-224.5 830,-243.5 886,-243.5 886,-224.5 830,-224.5"/>
<text text-anchor="middle" x="858" y="-231.5" font-family="Helvetica,sans-Serif" font-size="10.00">assert.h</text>
</a>
</g>
</g>
<!-- Node29&#45;&gt;Node34 -->
<g id="edge60" class="edge">
<title>Node29&#45;&gt;Node34</title>
<path fill="none" stroke="midnightblue" d="M826.27,-280.08C831.64,-272.46 839.52,-261.26 846.08,-251.94"/>
<polygon fill="midnightblue" stroke="midnightblue" points="848.95,-253.94 851.84,-243.75 843.22,-249.91 848.95,-253.94"/>
</g>
<!-- Node30&#45;&gt;Node10 -->
<g id="edge55" class="edge">
<title>Node30&#45;&gt;Node10</title>
<path fill="none" stroke="midnightblue" d="M455.01,-168.47C373.24,-157.87 246.01,-140.21 239,-132 233.23,-125.24 233.31,-118.83 239,-112 306.3,-31.29 651.71,-14.9 759.69,-11.73"/>
<polygon fill="midnightblue" stroke="midnightblue" points="760.06,-15.22 769.96,-11.44 759.87,-8.22 760.06,-15.22"/>
</g>
<!-- Node30&#45;&gt;Node13 -->
<g id="edge58" class="edge">
<title>Node30&#45;&gt;Node13</title>
<path fill="none" stroke="midnightblue" d="M451.74,-169.47C387.2,-162.04 289.7,-149.28 206,-132 204.72,-131.74 203.42,-131.45 202.11,-131.15"/>
<polygon fill="midnightblue" stroke="midnightblue" points="202.65,-127.68 192.1,-128.64 200.95,-134.47 202.65,-127.68"/>
</g>
<!-- Node30&#45;&gt;Node14 -->
<g id="edge57" class="edge">
<title>Node30&#45;&gt;Node14</title>
<path fill="none" stroke="midnightblue" d="M559.03,-168.48C594.15,-160.12 649.29,-146.81 706.32,-132.13"/>
<polygon fill="midnightblue" stroke="midnightblue" points="707.42,-135.46 716.23,-129.56 705.67,-128.68 707.42,-135.46"/>
</g>
<!-- Node31 -->
<g id="node31" class="node">
<title>Node31</title>
<g id="a_node31"><a xlink:href="../../db/db5/export_8h.html" target="_top" xlink:title="Declares system&#45;dependent import/export macros and libraries.">
<polygon fill="white" stroke="black" points="248,-112.5 248,-131.5 392,-131.5 392,-112.5 248,-112.5"/>
<text text-anchor="middle" x="320" y="-119.5" font-family="Helvetica,sans-Serif" font-size="10.00">ajabase/common/export.h</text>
</a>
</g>
</g>
<!-- Node30&#45;&gt;Node31 -->
<g id="edge54" class="edge">
<title>Node30&#45;&gt;Node31</title>
<path fill="none" stroke="midnightblue" d="M490.83,-168.44C455.94,-159.16 400.11,-144.31 361.83,-134.13"/>
<polygon fill="midnightblue" stroke="midnightblue" points="362.58,-130.7 352.02,-131.52 360.78,-137.47 362.58,-130.7"/>
</g>
<!-- Node32 -->
<g id="node32" class="node">
<title>Node32</title>
<g id="a_node32"><a xlink:title=" ">
<polygon fill="white" stroke="#bfbfbf" points="410,-112.5 410,-131.5 442,-131.5 442,-112.5 410,-112.5"/>
<text text-anchor="middle" x="426" y="-119.5" font-family="Helvetica,sans-Serif" font-size="10.00">list</text>
</a>
</g>
</g>
<!-- Node30&#45;&gt;Node32 -->
<g id="edge56" class="edge">
<title>Node30&#45;&gt;Node32</title>
<path fill="none" stroke="midnightblue" d="M507.42,-168.32C492,-159.74 468.19,-146.49 450.29,-136.52"/>
<polygon fill="midnightblue" stroke="midnightblue" points="451.99,-133.46 441.55,-131.65 448.58,-139.58 451.99,-133.46"/>
</g>
<!-- Node33 -->
<g id="node33" class="node">
<title>Node33</title>
<g id="a_node33"><a xlink:href="../../d9/d49/types_8h.html" target="_top" xlink:title="Declares common types used in the ajabase library.">
<polygon fill="white" stroke="black" points="460,-112.5 460,-131.5 600,-131.5 600,-112.5 460,-112.5"/>
<text text-anchor="middle" x="530" y="-119.5" font-family="Helvetica,sans-Serif" font-size="10.00">ajabase/common/types.h</text>
</a>
</g>
</g>
<!-- Node30&#45;&gt;Node33 -->
<g id="edge59" class="edge">
<title>Node30&#45;&gt;Node33</title>
<path fill="none" stroke="midnightblue" d="M524.16,-168.08C525.08,-160.93 526.42,-150.64 527.58,-141.69"/>
<polygon fill="midnightblue" stroke="midnightblue" points="531.05,-142.12 528.87,-131.75 524.11,-141.22 531.05,-142.12"/>
</g>
<!-- Node35&#45;&gt;Node5 -->
<g id="edge68" class="edge">
<title>Node35&#45;&gt;Node5</title>
<path fill="none" stroke="midnightblue" d="M1874.25,-224.44C1901.88,-212.96 1942.12,-191.31 1924,-168 1862.08,-88.34 1803.18,-130.51 1704,-112 1641.67,-100.37 1459.18,-80.54 1374.33,-71.6"/>
<polygon fill="midnightblue" stroke="midnightblue" points="1374.55,-68.11 1364.24,-70.54 1373.82,-75.07 1374.55,-68.11"/>
</g>
<!-- Node35&#45;&gt;Node7 -->
<g id="edge69" class="edge">
<title>Node35&#45;&gt;Node7</title>
<path fill="none" stroke="midnightblue" d="M1835.62,-224.37C1801.63,-205.29 1719.9,-159.42 1679.06,-136.51"/>
<polygon fill="midnightblue" stroke="midnightblue" points="1680.74,-133.43 1670.31,-131.59 1677.32,-139.54 1680.74,-133.43"/>
</g>
<!-- Node35&#45;&gt;Node9 -->
<g id="edge67" class="edge">
<title>Node35&#45;&gt;Node9</title>
<path fill="none" stroke="midnightblue" d="M1883.36,-224.41C1914.58,-214.33 1955.05,-195.42 1940,-168 1870.09,-40.65 1675.29,-16.18 1585.46,-11.77"/>
<polygon fill="midnightblue" stroke="midnightblue" points="1585.44,-8.27 1575.3,-11.34 1585.14,-15.26 1585.44,-8.27"/>
</g>
<!-- Node36 -->
<g id="node36" class="node">
<title>Node36</title>
<g id="a_node36"><a xlink:href="../../d9/dfb/ntv2devicefeatures_8hh.html" target="_top" xlink:title="Declares NTV2DeviceCanDo... and NTV2DeviceGetNum... functions. This module is included at compile tim...">
<polygon fill="white" stroke="black" points="1789,-168.5 1789,-187.5 1915,-187.5 1915,-168.5 1789,-168.5"/>
<text text-anchor="middle" x="1852" y="-175.5" font-family="Helvetica,sans-Serif" font-size="10.00">ntv2devicefeatures.hh</text>
</a>
</g>
</g>
<!-- Node35&#45;&gt;Node36 -->
<g id="edge70" class="edge">
<title>Node35&#45;&gt;Node36</title>
<path fill="none" stroke="midnightblue" d="M1851.17,-224.08C1851.3,-217.01 1851.48,-206.86 1851.65,-197.99"/>
<polygon fill="midnightblue" stroke="midnightblue" points="1855.15,-197.81 1851.84,-187.75 1848.15,-197.68 1855.15,-197.81"/>
</g>
<!-- Node36&#45;&gt;Node7 -->
<g id="edge72" class="edge">
<title>Node36&#45;&gt;Node7</title>
<path fill="none" stroke="midnightblue" d="M1820.78,-168.44C1787.07,-159.2 1733.2,-144.44 1696.07,-134.26"/>
<polygon fill="midnightblue" stroke="midnightblue" points="1696.64,-130.78 1686.07,-131.52 1694.79,-137.54 1696.64,-130.78"/>
</g>
<!-- Node36&#45;&gt;Node9 -->
<g id="edge71" class="edge">
<title>Node36&#45;&gt;Node9</title>
<path fill="none" stroke="midnightblue" d="M1846.49,-168.33C1831.74,-145.88 1788.89,-85.52 1737,-56 1689.68,-29.09 1627.41,-18.27 1585.44,-13.92"/>
<polygon fill="midnightblue" stroke="midnightblue" points="1585.51,-10.41 1575.23,-12.95 1584.85,-17.38 1585.51,-10.41"/>
</g>
<!-- Node38&#45;&gt;Node4 -->
<g id="edge78" class="edge">
<title>Node38&#45;&gt;Node4</title>
<path fill="none" stroke="midnightblue" d="M276.65,-229.29C411.21,-219.8 767.79,-194.66 919.78,-183.95"/>
<polygon fill="midnightblue" stroke="midnightblue" points="920.2,-187.43 929.93,-183.23 919.71,-180.45 920.2,-187.43"/>
</g>
<!-- Node38&#45;&gt;Node9 -->
<g id="edge77" class="edge">
<title>Node38&#45;&gt;Node9</title>
<path fill="none" stroke="midnightblue" d="M223.91,-224.15C223.28,-210.32 220.05,-183.54 205,-168 166.83,-128.59 57.59,-152.12 95,-112 119.45,-85.78 1248.04,-26.03 1492.58,-13.38"/>
<polygon fill="midnightblue" stroke="midnightblue" points="1493.09,-16.86 1502.89,-12.85 1492.73,-9.87 1493.09,-16.86"/>
</g>
<!-- Node38&#45;&gt;Node12 -->
<g id="edge81" class="edge">
<title>Node38&#45;&gt;Node12</title>
<path fill="none" stroke="midnightblue" d="M229.82,-224.18C237.81,-210.86 249.92,-185.3 238,-168 236.61,-165.99 179.86,-144.93 145.58,-132.34"/>
<polygon fill="midnightblue" stroke="midnightblue" points="146.75,-129.05 136.16,-128.89 144.34,-135.62 146.75,-129.05"/>
</g>
<!-- Node38&#45;&gt;Node13 -->
<g id="edge82" class="edge">
<title>Node38&#45;&gt;Node13</title>
<path fill="none" stroke="midnightblue" d="M239.8,-224.37C259.79,-212.28 290.01,-189.4 276,-168 267.47,-154.97 229.54,-140.69 202.18,-131.79"/>
<polygon fill="midnightblue" stroke="midnightblue" points="202.89,-128.35 192.3,-128.66 200.77,-135.02 202.89,-128.35"/>
</g>
<!-- Node39 -->
<g id="node39" class="node">
<title>Node39</title>
<g id="a_node39"><a xlink:title=" ">
<polygon fill="white" stroke="#bfbfbf" points="66,-168.5 66,-187.5 122,-187.5 122,-168.5 66,-168.5"/>
<text text-anchor="middle" x="94" y="-175.5" font-family="Helvetica,sans-Serif" font-size="10.00">stddef.h</text>
</a>
</g>
</g>
<!-- Node38&#45;&gt;Node39 -->
<g id="edge79" class="edge">
<title>Node38&#45;&gt;Node39</title>
<path fill="none" stroke="midnightblue" d="M203.4,-224.44C182.01,-215.56 148.32,-201.56 123.98,-191.45"/>
<polygon fill="midnightblue" stroke="midnightblue" points="125.08,-188.12 114.5,-187.52 122.39,-194.58 125.08,-188.12"/>
</g>
<!-- Node40 -->
<g id="node40" class="node">
<title>Node40</title>
<g id="a_node40"><a xlink:title=" ">
<polygon fill="white" stroke="#bfbfbf" points="140,-168.5 140,-187.5 196,-187.5 196,-168.5 140,-168.5"/>
<text text-anchor="middle" x="168" y="-175.5" font-family="Helvetica,sans-Serif" font-size="10.00">sstream</text>
</a>
</g>
</g>
<!-- Node38&#45;&gt;Node40 -->
<g id="edge80" class="edge">
<title>Node38&#45;&gt;Node40</title>
<path fill="none" stroke="midnightblue" d="M215,-224.32C206.81,-216.42 194.49,-204.55 184.53,-194.94"/>
<polygon fill="midnightblue" stroke="midnightblue" points="186.79,-192.26 177.16,-187.83 181.93,-197.29 186.79,-192.26"/>
</g>
<!-- Node41&#45;&gt;Node21 -->
<g id="edge85" class="edge">
<title>Node41&#45;&gt;Node21</title>
<path fill="none" stroke="midnightblue" d="M1097.56,-448.32C1087.85,-440.26 1073.18,-428.08 1061.5,-418.37"/>
<polygon fill="midnightblue" stroke="midnightblue" points="1063.56,-415.53 1053.63,-411.83 1059.09,-420.92 1063.56,-415.53"/>
</g>
</g>
</svg>
