<?xml version="1.0" encoding="UTF-8" standalone="no"?>
<!DOCTYPE svg PUBLIC "-//W3C//DTD SVG 1.1//EN"
 "http://www.w3.org/Graphics/SVG/1.1/DTD/svg11.dtd">
<!-- Generated by graphviz version 2.43.0 (0)
 -->
<!-- Title: AJAThreadImpl Pages: 1 -->
<svg width="183pt" height="106pt"
 viewBox="0.00 0.00 183.00 106.00" xmlns="http://www.w3.org/2000/svg" xmlns:xlink="http://www.w3.org/1999/xlink">
<g id="graph0" class="graph" transform="scale(1 1) rotate(0) translate(4 102)">
<title>AJAThreadImpl</title>
<polygon fill="white" stroke="transparent" points="-4,4 -4,-102 179,-102 179,4 -4,4"/>
<!-- Node1 -->
<g id="node1" class="node">
<title>Node1</title>
<g id="a_node1"><a xlink:title=" ">
<polygon fill="#bfbfbf" stroke="black" points="46,-0.5 46,-19.5 134,-19.5 134,-0.5 46,-0.5"/>
<text text-anchor="middle" x="90" y="-7.5" font-family="Helvetica,sans-Serif" font-size="10.00">AJAThreadImpl</text>
</a>
</g>
</g>
<!-- Node2 -->
<g id="node2" class="node">
<title>Node2</title>
<g id="a_node2"><a xlink:href="../../d2/db9/class_a_j_a_thread.html" target="_top" xlink:title=" ">
<polygon fill="white" stroke="black" points="0,-78.5 0,-97.5 66,-97.5 66,-78.5 0,-78.5"/>
<text text-anchor="middle" x="33" y="-85.5" font-family="Helvetica,sans-Serif" font-size="10.00">AJAThread</text>
</a>
</g>
</g>
<!-- Node2&#45;&gt;Node1 -->
<g id="edge1" class="edge">
<title>Node2&#45;&gt;Node1</title>
<path fill="none" stroke="#9a32cd" stroke-dasharray="5,2" d="M28.96,-68.32C27.89,-58.56 28.32,-46.84 34,-38 39.42,-29.55 48.3,-23.68 57.4,-19.63"/>
<polygon fill="#9a32cd" stroke="#9a32cd" points="25.52,-68.96 30.62,-78.25 32.43,-67.81 25.52,-68.96"/>
<text text-anchor="middle" x="79.5" y="-52" font-family="Helvetica,sans-Serif" font-size="10.00"> mpThreadContext</text>
<text text-anchor="middle" x="79.5" y="-41" font-family="Helvetica,sans-Serif" font-size="10.00">mpThread</text>
</g>
<!-- Node3 -->
<g id="node3" class="node">
<title>Node3</title>
<g id="a_node3"><a xlink:href="../../d9/df4/class_a_j_a_lock.html" target="_top" xlink:title=" ">
<polygon fill="white" stroke="black" points="119,-78.5 119,-97.5 175,-97.5 175,-78.5 119,-78.5"/>
<text text-anchor="middle" x="147" y="-85.5" font-family="Helvetica,sans-Serif" font-size="10.00">AJALock</text>
</a>
</g>
</g>
<!-- Node3&#45;&gt;Node1 -->
<g id="edge2" class="edge">
<title>Node3&#45;&gt;Node1</title>
<path fill="none" stroke="#9a32cd" stroke-dasharray="5,2" d="M141.27,-68.79C137.62,-59.02 132.21,-47.14 125,-38 119.3,-30.77 111.25,-24.38 104.31,-19.64"/>
<polygon fill="#9a32cd" stroke="#9a32cd" points="137.99,-70.02 144.54,-78.34 144.61,-67.75 137.99,-70.02"/>
<text text-anchor="middle" x="155" y="-46.5" font-family="Helvetica,sans-Serif" font-size="10.00"> mLock</text>
</g>
</g>
</svg>
