<?xml version="1.0" encoding="UTF-8" standalone="no"?>
<!DOCTYPE svg PUBLIC "-//W3C//DTD SVG 1.1//EN"
 "http://www.w3.org/Graphics/SVG/1.1/DTD/svg11.dtd">
<!-- Generated by graphviz version 2.43.0 (0)
 -->
<!-- Title: /home/tcbuilder/buildAgent/work/df8e8cce5bebfd58/libajantv2/ajaanc/src/ancillarylist.cpp Pages: 1 -->
<!--zoomable 386 -->
<svg id="main" version="1.1" xmlns="http://www.w3.org/2000/svg" xmlns:xlink="http://www.w3.org/1999/xlink" xml:space="preserve" onload="init(evt)">
<style type="text/css"><![CDATA[
.edge:hover path { stroke: red; }
.edge:hover polygon { stroke: red; fill: red; }
]]></style>
<script type="text/javascript"><![CDATA[
var edges = document.getElementsByTagName('g');
if (edges && edges.length) {
  for (var i=0;i<edges.length;i++) {
    if (edges[i].id.substr(0,4)=='edge') {
      edges[i].setAttribute('class','edge');
    }
  }
}
]]></script>
        <defs>
                <circle id="rim" cx="0" cy="0" r="7"/>
                <circle id="rim2" cx="0" cy="0" r="3.5"/>
                <g id="zoomPlus">
                        <use xlink:href="#rim" fill="#404040">
                                <set attributeName="fill" to="#808080" begin="zoomplus.mouseover" end="zoomplus.mouseout"/>
                        </use>
                        <path d="M-4,0h8M0,-4v8" fill="none" stroke="white" stroke-width="1.5" pointer-events="none"/>
                </g>
                <g id="zoomMin">
                        <use xlink:href="#rim" fill="#404040">
                                <set attributeName="fill" to="#808080" begin="zoomminus.mouseover" end="zoomminus.mouseout"/>
                        </use>
                        <path d="M-4,0h8" fill="none" stroke="white" stroke-width="1.5" pointer-events="none"/>
                </g>
                <g id="dirArrow">
                        <path fill="none" stroke="white" stroke-width="1.5" d="M0,-3.0v7 M-2.5,-0.5L0,-3.0L2.5,-0.5"/>
                </g>
               <g id="resetDef">
                       <use xlink:href="#rim2" fill="#404040">
                               <set attributeName="fill" to="#808080" begin="reset.mouseover" end="reset.mouseout"/>
                       </use>
               </g>
        </defs>

<script type="text/javascript">
var viewWidth = 1766;
var viewHeight = 386;
var sectionId = 'dynsection-0';
</script>
<script xlink:href="../../svgpan.js"/>
<svg id="graph" class="graph">
<g id="viewport">
<title>/home/tcbuilder/buildAgent/work/df8e8cce5bebfd58/libajantv2/ajaanc/src/ancillarylist.cpp</title>
<polygon fill="white" stroke="transparent" points="-4,4 -4,-382 1762,-382 1762,4 -4,4"/>
<!-- Node1 -->
<g id="node1" class="node">
<title>Node1</title>
<g id="a_node1"><a xlink:title="Implementation of the AJAAncillaryList class.">
<polygon fill="#bfbfbf" stroke="black" points="1154,-336.5 1154,-377.5 1342,-377.5 1342,-336.5 1154,-336.5"/>
<text text-anchor="start" x="1162" y="-365.5" font-family="Helvetica,sans-Serif" font-size="10.00">/home/tcbuilder/buildAgent</text>
<text text-anchor="start" x="1162" y="-354.5" font-family="Helvetica,sans-Serif" font-size="10.00">/work/df8e8cce5bebfd58/libajantv2</text>
<text text-anchor="middle" x="1248" y="-343.5" font-family="Helvetica,sans-Serif" font-size="10.00">/ajaanc/src/ancillarylist.cpp</text>
</a>
</g>
</g>
<!-- Node2 -->
<g id="node2" class="node">
<title>Node2</title>
<g id="a_node2"><a xlink:href="../../d6/dc0/ancillarylist_8h.html" target="_top" xlink:title="Declares the AJAAncillaryList class.">
<polygon fill="white" stroke="black" points="932.5,-280.5 932.5,-299.5 1015.5,-299.5 1015.5,-280.5 932.5,-280.5"/>
<text text-anchor="middle" x="974" y="-287.5" font-family="Helvetica,sans-Serif" font-size="10.00">ancillarylist.h</text>
</a>
</g>
</g>
<!-- Node1&#45;&gt;Node2 -->
<g id="edge1" class="edge">
<title>Node1&#45;&gt;Node2</title>
<path fill="none" stroke="midnightblue" d="M1165.79,-336.5C1118.08,-325.18 1059.76,-311.34 1020.04,-301.92"/>
<polygon fill="midnightblue" stroke="midnightblue" points="1020.65,-298.47 1010.11,-299.57 1019.04,-305.28 1020.65,-298.47"/>
</g>
<!-- Node22 -->
<g id="node22" class="node">
<title>Node22</title>
<g id="a_node22"><a xlink:href="../../df/d78/ancillarydatafactory_8h.html" target="_top" xlink:title="Declaration of the AJAAncillaryDataFactory class.">
<polygon fill="white" stroke="black" points="1049,-280.5 1049,-299.5 1171,-299.5 1171,-280.5 1049,-280.5"/>
<text text-anchor="middle" x="1110" y="-287.5" font-family="Helvetica,sans-Serif" font-size="10.00">ancillarydatafactory.h</text>
</a>
</g>
</g>
<!-- Node1&#45;&gt;Node22 -->
<g id="edge38" class="edge">
<title>Node1&#45;&gt;Node22</title>
<path fill="none" stroke="midnightblue" d="M1206.6,-336.5C1184.22,-325.96 1157.2,-313.23 1137.44,-303.92"/>
<polygon fill="midnightblue" stroke="midnightblue" points="1138.91,-300.75 1128.37,-299.65 1135.93,-307.08 1138.91,-300.75"/>
</g>
<!-- Node23 -->
<g id="node23" class="node">
<title>Node23</title>
<g id="a_node23"><a xlink:href="../../db/d16/debug_8h.html" target="_top" xlink:title="Declares the AJADebug class.">
<polygon fill="white" stroke="black" points="1236,-224.5 1236,-243.5 1372,-243.5 1372,-224.5 1236,-224.5"/>
<text text-anchor="middle" x="1304" y="-231.5" font-family="Helvetica,sans-Serif" font-size="10.00">ajabase/system/debug.h</text>
</a>
</g>
</g>
<!-- Node1&#45;&gt;Node23 -->
<g id="edge40" class="edge">
<title>Node1&#45;&gt;Node23</title>
<path fill="none" stroke="midnightblue" d="M1250.46,-336.43C1253.01,-320.57 1257.95,-297.98 1267,-280 1272.32,-269.43 1280.51,-259.12 1287.83,-251.05"/>
<polygon fill="midnightblue" stroke="midnightblue" points="1290.38,-253.45 1294.72,-243.78 1285.3,-248.63 1290.38,-253.45"/>
</g>
<!-- Node30 -->
<g id="node30" class="node">
<title>Node30</title>
<g id="a_node30"><a xlink:href="../../d0/d81/ntv2utils_8h.html" target="_top" xlink:title="Declares numerous NTV2 utility functions.">
<polygon fill="white" stroke="black" points="310,-280.5 310,-299.5 462,-299.5 462,-280.5 310,-280.5"/>
<text text-anchor="middle" x="386" y="-287.5" font-family="Helvetica,sans-Serif" font-size="10.00">ajantv2/includes/ntv2utils.h</text>
</a>
</g>
</g>
<!-- Node1&#45;&gt;Node30 -->
<g id="edge57" class="edge">
<title>Node1&#45;&gt;Node30</title>
<path fill="none" stroke="midnightblue" d="M1153.7,-348.89C985.28,-336.19 635.21,-309.79 472.55,-297.53"/>
<polygon fill="midnightblue" stroke="midnightblue" points="472.34,-294 462.11,-296.74 471.82,-300.98 472.34,-294"/>
</g>
<!-- Node33 -->
<g id="node33" class="node">
<title>Node33</title>
<g id="a_node33"><a xlink:href="../../dd/d02/atomic_8h.html" target="_top" xlink:title="Declares the AJAAtomic class.">
<polygon fill="white" stroke="black" points="1276,-280.5 1276,-299.5 1416,-299.5 1416,-280.5 1276,-280.5"/>
<text text-anchor="middle" x="1346" y="-287.5" font-family="Helvetica,sans-Serif" font-size="10.00">ajabase/system/atomic.h</text>
</a>
</g>
</g>
<!-- Node1&#45;&gt;Node33 -->
<g id="edge69" class="edge">
<title>Node1&#45;&gt;Node33</title>
<path fill="none" stroke="midnightblue" d="M1277.4,-336.5C1292.57,-326.44 1310.74,-314.38 1324.57,-305.21"/>
<polygon fill="midnightblue" stroke="midnightblue" points="1326.56,-308.1 1332.95,-299.65 1322.69,-302.26 1326.56,-308.1"/>
</g>
<!-- Node34 -->
<g id="node34" class="node">
<title>Node34</title>
<g id="a_node34"><a xlink:href="../../dd/d42/lock_8h.html" target="_top" xlink:title="Declares the AJALock class.">
<polygon fill="white" stroke="black" points="1550,-224.5 1550,-243.5 1676,-243.5 1676,-224.5 1550,-224.5"/>
<text text-anchor="middle" x="1613" y="-231.5" font-family="Helvetica,sans-Serif" font-size="10.00">ajabase/system/lock.h</text>
</a>
</g>
</g>
<!-- Node1&#45;&gt;Node34 -->
<g id="edge71" class="edge">
<title>Node1&#45;&gt;Node34</title>
<path fill="none" stroke="midnightblue" d="M1319.66,-336.49C1352.28,-326.81 1391.09,-314.15 1425,-300 1442.61,-292.65 1445.33,-287.22 1463,-280 1497.37,-265.95 1537.76,-254.09 1567.96,-246.07"/>
<polygon fill="midnightblue" stroke="midnightblue" points="1569,-249.42 1577.79,-243.51 1567.23,-242.65 1569,-249.42"/>
</g>
<!-- Node36 -->
<g id="node36" class="node">
<title>Node36</title>
<g id="a_node36"><a xlink:title=" ">
<polygon fill="white" stroke="#bfbfbf" points="1472,-280.5 1472,-299.5 1536,-299.5 1536,-280.5 1472,-280.5"/>
<text text-anchor="middle" x="1504" y="-287.5" font-family="Helvetica,sans-Serif" font-size="10.00">algorithm</text>
</a>
</g>
</g>
<!-- Node1&#45;&gt;Node36 -->
<g id="edge74" class="edge">
<title>Node1&#45;&gt;Node36</title>
<path fill="none" stroke="midnightblue" d="M1324.81,-336.5C1369.77,-325.08 1424.83,-311.1 1461.95,-301.68"/>
<polygon fill="midnightblue" stroke="midnightblue" points="1463.09,-305 1471.92,-299.14 1461.37,-298.21 1463.09,-305"/>
</g>
<!-- Node3 -->
<g id="node3" class="node">
<title>Node3</title>
<g id="a_node3"><a xlink:href="../../d7/d92/ancillarydata_8h.html" target="_top" xlink:title="Declares the AJAAncillaryData class.">
<polygon fill="white" stroke="black" points="1050.5,-224.5 1050.5,-243.5 1139.5,-243.5 1139.5,-224.5 1050.5,-224.5"/>
<text text-anchor="middle" x="1095" y="-231.5" font-family="Helvetica,sans-Serif" font-size="10.00">ancillarydata.h</text>
</a>
</g>
</g>
<!-- Node2&#45;&gt;Node3 -->
<g id="edge2" class="edge">
<title>Node2&#45;&gt;Node3</title>
<path fill="none" stroke="midnightblue" d="M993.17,-280.44C1012.91,-271.64 1043.89,-257.81 1066.49,-247.72"/>
<polygon fill="midnightblue" stroke="midnightblue" points="1068.21,-250.79 1075.92,-243.52 1065.36,-244.4 1068.21,-250.79"/>
</g>
<!-- Node13 -->
<g id="node13" class="node">
<title>Node13</title>
<g id="a_node13"><a xlink:title=" ">
<polygon fill="white" stroke="#bfbfbf" points="894,-112.5 894,-131.5 926,-131.5 926,-112.5 894,-112.5"/>
<text text-anchor="middle" x="910" y="-119.5" font-family="Helvetica,sans-Serif" font-size="10.00">set</text>
</a>
</g>
</g>
<!-- Node2&#45;&gt;Node13 -->
<g id="edge36" class="edge">
<title>Node2&#45;&gt;Node13</title>
<path fill="none" stroke="midnightblue" d="M970.56,-280.08C960.44,-253.83 930.64,-176.55 916.98,-141.12"/>
<polygon fill="midnightblue" stroke="midnightblue" points="920.17,-139.64 913.3,-131.57 913.64,-142.16 920.17,-139.64"/>
</g>
<!-- Node14 -->
<g id="node14" class="node">
<title>Node14</title>
<g id="a_node14"><a xlink:title=" ">
<polygon fill="white" stroke="#bfbfbf" points="944,-112.5 944,-131.5 982,-131.5 982,-112.5 944,-112.5"/>
<text text-anchor="middle" x="963" y="-119.5" font-family="Helvetica,sans-Serif" font-size="10.00">map</text>
</a>
</g>
</g>
<!-- Node2&#45;&gt;Node14 -->
<g id="edge35" class="edge">
<title>Node2&#45;&gt;Node14</title>
<path fill="none" stroke="midnightblue" d="M973.41,-280.08C971.68,-253.95 966.59,-177.21 964.23,-141.58"/>
<polygon fill="midnightblue" stroke="midnightblue" points="967.72,-141.31 963.57,-131.57 960.74,-141.78 967.72,-141.31"/>
</g>
<!-- Node15 -->
<g id="node15" class="node">
<title>Node15</title>
<g id="a_node15"><a xlink:title=" ">
<polygon fill="white" stroke="#bfbfbf" points="1000.5,-112.5 1000.5,-131.5 1047.5,-131.5 1047.5,-112.5 1000.5,-112.5"/>
<text text-anchor="middle" x="1024" y="-119.5" font-family="Helvetica,sans-Serif" font-size="10.00">vector</text>
</a>
</g>
</g>
<!-- Node2&#45;&gt;Node15 -->
<g id="edge37" class="edge">
<title>Node2&#45;&gt;Node15</title>
<path fill="none" stroke="midnightblue" d="M976.69,-280.08C984.56,-253.95 1007.67,-177.21 1018.4,-141.58"/>
<polygon fill="midnightblue" stroke="midnightblue" points="1021.89,-142.15 1021.42,-131.57 1015.18,-140.13 1021.89,-142.15"/>
</g>
<!-- Node21 -->
<g id="node21" class="node">
<title>Node21</title>
<g id="a_node21"><a xlink:href="../../dc/df4/ntv2formatdescriptor_8h.html" target="_top" xlink:title="Declares the NTV2FormatDescriptor class.">
<polygon fill="white" stroke="black" points="542,-224.5 542,-243.5 670,-243.5 670,-224.5 542,-224.5"/>
<text text-anchor="middle" x="606" y="-231.5" font-family="Helvetica,sans-Serif" font-size="10.00">ntv2formatdescriptor.h</text>
</a>
</g>
</g>
<!-- Node2&#45;&gt;Node21 -->
<g id="edge27" class="edge">
<title>Node2&#45;&gt;Node21</title>
<path fill="none" stroke="midnightblue" d="M932.14,-282.86C869.22,-273.63 749.6,-256.07 674.03,-244.98"/>
<polygon fill="midnightblue" stroke="midnightblue" points="674.53,-241.52 664.13,-243.53 673.51,-248.44 674.53,-241.52"/>
</g>
<!-- Node4 -->
<g id="node4" class="node">
<title>Node4</title>
<g id="a_node4"><a xlink:href="../../db/de2/ajatypes_8h.html" target="_top" xlink:title="Declares the most fundamental data types used by NTV2. Since Windows NT was the first principal devel...">
<polygon fill="white" stroke="black" points="336,-56.5 336,-75.5 404,-75.5 404,-56.5 336,-56.5"/>
<text text-anchor="middle" x="370" y="-63.5" font-family="Helvetica,sans-Serif" font-size="10.00">ajatypes.h</text>
</a>
</g>
</g>
<!-- Node3&#45;&gt;Node4 -->
<g id="edge3" class="edge">
<title>Node3&#45;&gt;Node4</title>
<path fill="none" stroke="midnightblue" d="M1095.22,-224.49C1095.29,-201.87 1092.03,-140.09 1056,-112 1030.67,-92.25 562.59,-73.89 414.52,-68.55"/>
<polygon fill="midnightblue" stroke="midnightblue" points="414.54,-65.05 404.42,-68.19 414.29,-72.04 414.54,-65.05"/>
</g>
<!-- Node6 -->
<g id="node6" class="node">
<title>Node6</title>
<g id="a_node6"><a xlink:href="../../d6/db1/ntv2version_8h.html" target="_top" xlink:title="Defines for the NTV2 SDK version number, used by ajantv2/includes/ntv2enums.h. See the ajantv2/includ...">
<polygon fill="white" stroke="black" points="663.5,-56.5 663.5,-75.5 746.5,-75.5 746.5,-56.5 663.5,-56.5"/>
<text text-anchor="middle" x="705" y="-63.5" font-family="Helvetica,sans-Serif" font-size="10.00">ntv2version.h</text>
</a>
</g>
</g>
<!-- Node3&#45;&gt;Node6 -->
<g id="edge5" class="edge">
<title>Node3&#45;&gt;Node6</title>
<path fill="none" stroke="midnightblue" d="M1097.97,-224.27C1104.89,-202.18 1119.31,-143.6 1090,-112 1067.73,-88 856.82,-74.48 756.96,-69.38"/>
<polygon fill="midnightblue" stroke="midnightblue" points="756.95,-65.88 746.78,-68.87 756.6,-72.87 756.95,-65.88"/>
</g>
<!-- Node9 -->
<g id="node9" class="node">
<title>Node9</title>
<g id="a_node9"><a xlink:href="../../d9/d49/types_8h.html" target="_top" xlink:title="Declares common types used in the ajabase library.">
<polygon fill="white" stroke="black" points="1254,-112.5 1254,-131.5 1394,-131.5 1394,-112.5 1254,-112.5"/>
<text text-anchor="middle" x="1324" y="-119.5" font-family="Helvetica,sans-Serif" font-size="10.00">ajabase/common/types.h</text>
</a>
</g>
</g>
<!-- Node3&#45;&gt;Node9 -->
<g id="edge8" class="edge">
<title>Node3&#45;&gt;Node9</title>
<path fill="none" stroke="midnightblue" d="M1102.99,-224.08C1115.94,-210.14 1142.92,-183.23 1171,-168 1200.74,-151.88 1236.95,-140.89 1266.67,-133.82"/>
<polygon fill="midnightblue" stroke="midnightblue" points="1267.52,-137.21 1276.48,-131.56 1265.95,-130.39 1267.52,-137.21"/>
</g>
<!-- Node10 -->
<g id="node10" class="node">
<title>Node10</title>
<g id="a_node10"><a xlink:href="../../d4/dd7/ntv2publicinterface_8h.html" target="_top" xlink:title="Declares enums and structs used by all platform drivers and the SDK.">
<polygon fill="white" stroke="black" points="638,-168.5 638,-187.5 758,-187.5 758,-168.5 638,-168.5"/>
<text text-anchor="middle" x="698" y="-175.5" font-family="Helvetica,sans-Serif" font-size="10.00">ntv2publicinterface.h</text>
</a>
</g>
</g>
<!-- Node3&#45;&gt;Node10 -->
<g id="edge9" class="edge">
<title>Node3&#45;&gt;Node10</title>
<path fill="none" stroke="midnightblue" d="M1050.23,-226.91C981.58,-217.57 849.73,-199.64 768.27,-188.56"/>
<polygon fill="midnightblue" stroke="midnightblue" points="768.48,-185.05 758.1,-187.17 767.54,-191.99 768.48,-185.05"/>
</g>
<!-- Node3&#45;&gt;Node15 -->
<g id="edge26" class="edge">
<title>Node3&#45;&gt;Node15</title>
<path fill="none" stroke="midnightblue" d="M1088.15,-224.23C1081.27,-215.3 1070.51,-200.96 1062,-188 1051.71,-172.33 1041.02,-153.81 1033.61,-140.56"/>
<polygon fill="midnightblue" stroke="midnightblue" points="1036.55,-138.64 1028.64,-131.58 1030.43,-142.03 1036.55,-138.64"/>
</g>
<!-- Node20 -->
<g id="node20" class="node">
<title>Node20</title>
<g id="a_node20"><a xlink:title=" ">
<polygon fill="white" stroke="#bfbfbf" points="1180,-168.5 1180,-187.5 1236,-187.5 1236,-168.5 1180,-168.5"/>
<text text-anchor="middle" x="1208" y="-175.5" font-family="Helvetica,sans-Serif" font-size="10.00">sstream</text>
</a>
</g>
</g>
<!-- Node3&#45;&gt;Node20 -->
<g id="edge25" class="edge">
<title>Node3&#45;&gt;Node20</title>
<path fill="none" stroke="midnightblue" d="M1112.91,-224.44C1131.25,-215.68 1160.01,-201.94 1181.09,-191.86"/>
<polygon fill="midnightblue" stroke="midnightblue" points="1182.67,-194.99 1190.18,-187.52 1179.65,-188.67 1182.67,-194.99"/>
</g>
<!-- Node5 -->
<g id="node5" class="node">
<title>Node5</title>
<g id="a_node5"><a xlink:title=" ">
<polygon fill="white" stroke="#bfbfbf" points="555.5,-0.5 555.5,-19.5 608.5,-19.5 608.5,-0.5 555.5,-0.5"/>
<text text-anchor="middle" x="582" y="-7.5" font-family="Helvetica,sans-Serif" font-size="10.00">stdint.h</text>
</a>
</g>
</g>
<!-- Node4&#45;&gt;Node5 -->
<g id="edge4" class="edge">
<title>Node4&#45;&gt;Node5</title>
<path fill="none" stroke="midnightblue" d="M403.59,-56.44C442.26,-46.59 505.55,-30.47 545.43,-20.32"/>
<polygon fill="midnightblue" stroke="midnightblue" points="546.45,-23.67 555.28,-17.81 544.72,-16.88 546.45,-23.67"/>
</g>
<!-- Node7 -->
<g id="node7" class="node">
<title>Node7</title>
<g id="a_node7"><a xlink:href="../../d6/dd9/ajaexport_8h.html" target="_top" xlink:title="Defines the import/export macros for producing DLLs or LIBs.">
<polygon fill="white" stroke="black" points="357,-0.5 357,-19.5 429,-19.5 429,-0.5 357,-0.5"/>
<text text-anchor="middle" x="393" y="-7.5" font-family="Helvetica,sans-Serif" font-size="10.00">ajaexport.h</text>
</a>
</g>
</g>
<!-- Node6&#45;&gt;Node7 -->
<g id="edge6" class="edge">
<title>Node6&#45;&gt;Node7</title>
<path fill="none" stroke="midnightblue" d="M663.25,-57.77C605.01,-47.69 499.76,-29.48 439.22,-19"/>
<polygon fill="midnightblue" stroke="midnightblue" points="439.63,-15.52 429.18,-17.26 438.44,-22.42 439.63,-15.52"/>
</g>
<!-- Node8 -->
<g id="node8" class="node">
<title>Node8</title>
<g id="a_node8"><a xlink:title=" ">
<polygon fill="white" stroke="#bfbfbf" points="825,-0.5 825,-19.5 869,-19.5 869,-0.5 825,-0.5"/>
<text text-anchor="middle" x="847" y="-7.5" font-family="Helvetica,sans-Serif" font-size="10.00">string</text>
</a>
</g>
</g>
<!-- Node6&#45;&gt;Node8 -->
<g id="edge7" class="edge">
<title>Node6&#45;&gt;Node8</title>
<path fill="none" stroke="midnightblue" d="M727.5,-56.44C751.08,-47.48 788.32,-33.31 814.96,-23.18"/>
<polygon fill="midnightblue" stroke="midnightblue" points="816.5,-26.34 824.6,-19.52 814.01,-19.8 816.5,-26.34"/>
</g>
<!-- Node10&#45;&gt;Node4 -->
<g id="edge10" class="edge">
<title>Node10&#45;&gt;Node4</title>
<path fill="none" stroke="midnightblue" d="M637.8,-172.15C568.18,-165.68 458.59,-152.59 423,-132 403.77,-120.88 388.64,-99.92 379.55,-84.81"/>
<polygon fill="midnightblue" stroke="midnightblue" points="382.45,-82.84 374.46,-75.88 376.37,-86.3 382.45,-82.84"/>
</g>
<!-- Node10&#45;&gt;Node7 -->
<g id="edge22" class="edge">
<title>Node10&#45;&gt;Node7</title>
<path fill="none" stroke="midnightblue" d="M678.05,-168.39C658.25,-159.7 627.17,-145.65 601,-132 532.02,-96.03 453.33,-48.37 415.56,-25.05"/>
<polygon fill="midnightblue" stroke="midnightblue" points="417.22,-21.96 406.87,-19.67 413.53,-27.91 417.22,-21.96"/>
</g>
<!-- Node10&#45;&gt;Node8 -->
<g id="edge18" class="edge">
<title>Node10&#45;&gt;Node8</title>
<path fill="none" stroke="midnightblue" d="M741.44,-168.5C764.05,-162 790.54,-150.85 808,-132 834.78,-103.08 843.18,-55.63 845.81,-29.57"/>
<polygon fill="midnightblue" stroke="midnightblue" points="849.3,-29.8 846.63,-19.54 842.32,-29.22 849.3,-29.8"/>
</g>
<!-- Node11 -->
<g id="node11" class="node">
<title>Node11</title>
<g id="a_node11"><a xlink:href="../../d6/d0c/ntv2enums_8h.html" target="_top" xlink:title="Enumerations for controlling NTV2 devices.">
<polygon fill="white" stroke="black" points="296,-112.5 296,-131.5 376,-131.5 376,-112.5 296,-112.5"/>
<text text-anchor="middle" x="336" y="-119.5" font-family="Helvetica,sans-Serif" font-size="10.00">ntv2enums.h</text>
</a>
</g>
</g>
<!-- Node10&#45;&gt;Node11 -->
<g id="edge11" class="edge">
<title>Node10&#45;&gt;Node11</title>
<path fill="none" stroke="midnightblue" d="M637.75,-168.56C575.62,-159.77 475.96,-145.44 390,-132 388.73,-131.8 387.45,-131.6 386.15,-131.39"/>
<polygon fill="midnightblue" stroke="midnightblue" points="386.52,-127.91 376.09,-129.77 385.41,-134.82 386.52,-127.91"/>
</g>
<!-- Node12 -->
<g id="node12" class="node">
<title>Node12</title>
<g id="a_node12"><a xlink:title=" ">
<polygon fill="white" stroke="#bfbfbf" points="180,-112.5 180,-131.5 240,-131.5 240,-112.5 180,-112.5"/>
<text text-anchor="middle" x="210" y="-119.5" font-family="Helvetica,sans-Serif" font-size="10.00">iostream</text>
</a>
</g>
</g>
<!-- Node10&#45;&gt;Node12 -->
<g id="edge14" class="edge">
<title>Node10&#45;&gt;Node12</title>
<path fill="none" stroke="midnightblue" d="M637.74,-170.54C557.63,-161.92 411.64,-146.11 287,-132 275.1,-130.65 262.18,-129.16 250.38,-127.78"/>
<polygon fill="midnightblue" stroke="midnightblue" points="250.69,-124.29 240.35,-126.6 249.87,-131.24 250.69,-124.29"/>
</g>
<!-- Node10&#45;&gt;Node13 -->
<g id="edge15" class="edge">
<title>Node10&#45;&gt;Node13</title>
<path fill="none" stroke="midnightblue" d="M731.59,-168.44C773.85,-157.68 845.53,-139.42 883.91,-129.65"/>
<polygon fill="midnightblue" stroke="midnightblue" points="884.97,-132.99 893.8,-127.13 883.24,-126.2 884.97,-132.99"/>
</g>
<!-- Node10&#45;&gt;Node14 -->
<g id="edge16" class="edge">
<title>Node10&#45;&gt;Node14</title>
<path fill="none" stroke="midnightblue" d="M753.5,-168.45C799.53,-160.91 866.84,-148.85 933.92,-132.03"/>
<polygon fill="midnightblue" stroke="midnightblue" points="934.98,-135.37 943.81,-129.51 933.26,-128.59 934.98,-135.37"/>
</g>
<!-- Node10&#45;&gt;Node15 -->
<g id="edge17" class="edge">
<title>Node10&#45;&gt;Node15</title>
<path fill="none" stroke="midnightblue" d="M758.13,-169.8C815.4,-162.49 904.19,-149.95 990.34,-131.92"/>
<polygon fill="midnightblue" stroke="midnightblue" points="991.23,-135.31 1000.29,-129.81 989.78,-128.46 991.23,-135.31"/>
</g>
<!-- Node16 -->
<g id="node16" class="node">
<title>Node16</title>
<g id="a_node16"><a xlink:title=" ">
<polygon fill="white" stroke="#bfbfbf" points="610,-112.5 610,-131.5 666,-131.5 666,-112.5 610,-112.5"/>
<text text-anchor="middle" x="638" y="-119.5" font-family="Helvetica,sans-Serif" font-size="10.00">iomanip</text>
</a>
</g>
</g>
<!-- Node10&#45;&gt;Node16 -->
<g id="edge19" class="edge">
<title>Node10&#45;&gt;Node16</title>
<path fill="none" stroke="midnightblue" d="M688.36,-168.32C679.49,-160.34 666.13,-148.31 655.39,-138.65"/>
<polygon fill="midnightblue" stroke="midnightblue" points="657.59,-135.92 647.82,-131.83 652.91,-141.13 657.59,-135.92"/>
</g>
<!-- Node17 -->
<g id="node17" class="node">
<title>Node17</title>
<g id="a_node17"><a xlink:title=" ">
<polygon fill="white" stroke="#bfbfbf" points="684,-112.5 684,-131.5 728,-131.5 728,-112.5 684,-112.5"/>
<text text-anchor="middle" x="706" y="-119.5" font-family="Helvetica,sans-Serif" font-size="10.00">bitset</text>
</a>
</g>
</g>
<!-- Node10&#45;&gt;Node17 -->
<g id="edge20" class="edge">
<title>Node10&#45;&gt;Node17</title>
<path fill="none" stroke="midnightblue" d="M699.32,-168.08C700.38,-160.93 701.91,-150.64 703.23,-141.69"/>
<polygon fill="midnightblue" stroke="midnightblue" points="706.7,-142.16 704.7,-131.75 699.78,-141.13 706.7,-142.16"/>
</g>
<!-- Node18 -->
<g id="node18" class="node">
<title>Node18</title>
<g id="a_node18"><a xlink:title=" ">
<polygon fill="white" stroke="#bfbfbf" points="746.5,-112.5 746.5,-131.5 799.5,-131.5 799.5,-112.5 746.5,-112.5"/>
<text text-anchor="middle" x="773" y="-119.5" font-family="Helvetica,sans-Serif" font-size="10.00">string.h</text>
</a>
</g>
</g>
<!-- Node10&#45;&gt;Node18 -->
<g id="edge21" class="edge">
<title>Node10&#45;&gt;Node18</title>
<path fill="none" stroke="midnightblue" d="M710.05,-168.32C721.46,-160.11 738.83,-147.6 752.43,-137.81"/>
<polygon fill="midnightblue" stroke="midnightblue" points="754.66,-140.52 760.73,-131.83 750.57,-134.84 754.66,-140.52"/>
</g>
<!-- Node19 -->
<g id="node19" class="node">
<title>Node19</title>
<g id="a_node19"><a xlink:href="../../da/df0/ntv2virtualregisters_8h.html" target="_top" xlink:title="Declares enums for virtual registers used in all platform drivers and the SDK.">
<polygon fill="white" stroke="black" points="432,-112.5 432,-131.5 554,-131.5 554,-112.5 432,-112.5"/>
<text text-anchor="middle" x="493" y="-119.5" font-family="Helvetica,sans-Serif" font-size="10.00">ntv2virtualregisters.h</text>
</a>
</g>
</g>
<!-- Node10&#45;&gt;Node19 -->
<g id="edge23" class="edge">
<title>Node10&#45;&gt;Node19</title>
<path fill="none" stroke="midnightblue" d="M665.52,-168.44C630.28,-159.16 573.9,-144.31 535.24,-134.13"/>
<polygon fill="midnightblue" stroke="midnightblue" points="535.89,-130.68 525.33,-131.52 534.11,-137.45 535.89,-130.68"/>
</g>
<!-- Node11&#45;&gt;Node4 -->
<g id="edge12" class="edge">
<title>Node11&#45;&gt;Node4</title>
<path fill="none" stroke="midnightblue" d="M341.61,-112.08C346.37,-104.53 353.32,-93.49 359.15,-84.23"/>
<polygon fill="midnightblue" stroke="midnightblue" points="362.12,-86.08 364.49,-75.75 356.2,-82.35 362.12,-86.08"/>
</g>
<!-- Node11&#45;&gt;Node6 -->
<g id="edge13" class="edge">
<title>Node11&#45;&gt;Node6</title>
<path fill="none" stroke="midnightblue" d="M376.19,-115.12C443.54,-105.26 579.08,-85.43 653.38,-74.55"/>
<polygon fill="midnightblue" stroke="midnightblue" points="654.06,-77.99 663.45,-73.08 653.05,-71.07 654.06,-77.99"/>
</g>
<!-- Node19&#45;&gt;Node4 -->
<g id="edge24" class="edge">
<title>Node19&#45;&gt;Node4</title>
<path fill="none" stroke="midnightblue" d="M473.51,-112.44C453.36,-103.6 421.68,-89.69 398.67,-79.59"/>
<polygon fill="midnightblue" stroke="midnightblue" points="399.96,-76.33 389.4,-75.52 397.15,-82.74 399.96,-76.33"/>
</g>
<!-- Node21&#45;&gt;Node4 -->
<g id="edge29" class="edge">
<title>Node21&#45;&gt;Node4</title>
<path fill="none" stroke="midnightblue" d="M554.79,-224.45C472.81,-209.57 318.13,-176.25 287,-132 270.96,-109.2 303.38,-90.53 332.27,-79.14"/>
<polygon fill="midnightblue" stroke="midnightblue" points="333.72,-82.33 341.86,-75.56 331.27,-75.78 333.72,-82.33"/>
</g>
<!-- Node21&#45;&gt;Node7 -->
<g id="edge28" class="edge">
<title>Node21&#45;&gt;Node7</title>
<path fill="none" stroke="midnightblue" d="M541.98,-224.95C441.65,-212.32 258.38,-189.14 255,-188 161.07,-156.18 111.49,-161.94 62,-76 57.56,-68.3 56.15,-62.7 62,-56 98.4,-14.32 264.47,-9.77 346.66,-10.16"/>
<polygon fill="midnightblue" stroke="midnightblue" points="346.7,-13.66 356.72,-10.23 346.75,-6.66 346.7,-13.66"/>
</g>
<!-- Node21&#45;&gt;Node8 -->
<g id="edge32" class="edge">
<title>Node21&#45;&gt;Node8</title>
<path fill="none" stroke="midnightblue" d="M659.06,-224.47C691.62,-217.74 733.37,-206.35 767,-188 799.88,-170.05 808.56,-162.72 830,-132 850.12,-103.16 853.94,-91.11 852,-56 851.52,-47.36 850.53,-37.83 849.55,-29.77"/>
<polygon fill="midnightblue" stroke="midnightblue" points="852.99,-29.07 848.24,-19.6 846.05,-29.97 852.99,-29.07"/>
</g>
<!-- Node21&#45;&gt;Node10 -->
<g id="edge31" class="edge">
<title>Node21&#45;&gt;Node10</title>
<path fill="none" stroke="midnightblue" d="M620.78,-224.32C635.27,-215.82 657.57,-202.73 674.49,-192.8"/>
<polygon fill="midnightblue" stroke="midnightblue" points="676.4,-195.74 683.26,-187.65 672.86,-189.7 676.4,-195.74"/>
</g>
<!-- Node21&#45;&gt;Node11 -->
<g id="edge30" class="edge">
<title>Node21&#45;&gt;Node11</title>
<path fill="none" stroke="midnightblue" d="M584.81,-224.37C537.2,-204.97 421.59,-157.87 366.36,-135.37"/>
<polygon fill="midnightblue" stroke="midnightblue" points="367.67,-132.12 357.09,-131.59 365.03,-138.61 367.67,-132.12"/>
</g>
<!-- Node21&#45;&gt;Node12 -->
<g id="edge33" class="edge">
<title>Node21&#45;&gt;Node12</title>
<path fill="none" stroke="midnightblue" d="M541.63,-224.73C452.59,-213.15 301.41,-192.98 290,-188 264.26,-176.76 240.02,-154.87 225.11,-139.62"/>
<polygon fill="midnightblue" stroke="midnightblue" points="227.25,-136.79 217.83,-131.93 222.17,-141.6 227.25,-136.79"/>
</g>
<!-- Node21&#45;&gt;Node15 -->
<g id="edge34" class="edge">
<title>Node21&#45;&gt;Node15</title>
<path fill="none" stroke="midnightblue" d="M655.28,-224.44C699.7,-216.34 766.66,-203.19 824,-188 883.58,-172.22 951.55,-148.99 990.93,-134.99"/>
<polygon fill="midnightblue" stroke="midnightblue" points="992.31,-138.22 1000.55,-131.56 989.95,-131.63 992.31,-138.22"/>
</g>
<!-- Node22&#45;&gt;Node3 -->
<g id="edge39" class="edge">
<title>Node22&#45;&gt;Node3</title>
<path fill="none" stroke="midnightblue" d="M1107.52,-280.08C1105.51,-272.85 1102.61,-262.41 1100.11,-253.4"/>
<polygon fill="midnightblue" stroke="midnightblue" points="1103.48,-252.45 1097.43,-243.75 1096.74,-254.32 1103.48,-252.45"/>
</g>
<!-- Node23&#45;&gt;Node13 -->
<g id="edge43" class="edge">
<title>Node23&#45;&gt;Node13</title>
<path fill="none" stroke="midnightblue" d="M1299.12,-224.45C1290.36,-210.01 1270.48,-181.1 1245,-168 1124.52,-106.09 1072.49,-161 936.2,-131.71"/>
<polygon fill="midnightblue" stroke="midnightblue" points="936.77,-128.25 926.24,-129.46 935.22,-135.08 936.77,-128.25"/>
</g>
<!-- Node23&#45;&gt;Node20 -->
<g id="edge42" class="edge">
<title>Node23&#45;&gt;Node20</title>
<path fill="none" stroke="midnightblue" d="M1288.58,-224.32C1273.46,-215.82 1250.18,-202.73 1232.53,-192.8"/>
<polygon fill="midnightblue" stroke="midnightblue" points="1233.82,-189.51 1223.39,-187.65 1230.39,-195.61 1233.82,-189.51"/>
</g>
<!-- Node24 -->
<g id="node24" class="node">
<title>Node24</title>
<g id="a_node24"><a xlink:title=" ">
<polygon fill="white" stroke="#bfbfbf" points="1474,-168.5 1474,-187.5 1524,-187.5 1524,-168.5 1474,-168.5"/>
<text text-anchor="middle" x="1499" y="-175.5" font-family="Helvetica,sans-Serif" font-size="10.00">stdio.h</text>
</a>
</g>
</g>
<!-- Node23&#45;&gt;Node24 -->
<g id="edge41" class="edge">
<title>Node23&#45;&gt;Node24</title>
<path fill="none" stroke="midnightblue" d="M1334.9,-224.44C1370.04,-214.71 1427.3,-198.86 1464.04,-188.68"/>
<polygon fill="midnightblue" stroke="midnightblue" points="1465.12,-192.01 1473.83,-185.97 1463.26,-185.27 1465.12,-192.01"/>
</g>
<!-- Node25 -->
<g id="node25" class="node">
<title>Node25</title>
<g id="a_node25"><a xlink:href="../../d4/d79/public_8h.html" target="_top" xlink:title="Master header for the ajabase library.">
<polygon fill="white" stroke="black" points="1542,-168.5 1542,-187.5 1684,-187.5 1684,-168.5 1542,-168.5"/>
<text text-anchor="middle" x="1613" y="-175.5" font-family="Helvetica,sans-Serif" font-size="10.00">ajabase/common/public.h</text>
</a>
</g>
</g>
<!-- Node23&#45;&gt;Node25 -->
<g id="edge44" class="edge">
<title>Node23&#45;&gt;Node25</title>
<path fill="none" stroke="midnightblue" d="M1352.96,-224.44C1407.54,-214.9 1495.79,-199.48 1554.1,-189.29"/>
<polygon fill="midnightblue" stroke="midnightblue" points="1555.02,-192.69 1564.27,-187.52 1553.81,-185.79 1555.02,-192.69"/>
</g>
<!-- Node28 -->
<g id="node28" class="node">
<title>Node28</title>
<g id="a_node28"><a xlink:href="../../d0/db4/debugshare_8h.html" target="_top" xlink:title="Declares the constants used for sharing debug messages. These structures are used to gather debug mes...">
<polygon fill="white" stroke="black" points="1292.5,-168.5 1292.5,-187.5 1455.5,-187.5 1455.5,-168.5 1292.5,-168.5"/>
<text text-anchor="middle" x="1374" y="-175.5" font-family="Helvetica,sans-Serif" font-size="10.00">ajabase/system/debugshare.h</text>
</a>
</g>
</g>
<!-- Node23&#45;&gt;Node28 -->
<g id="edge51" class="edge">
<title>Node23&#45;&gt;Node28</title>
<path fill="none" stroke="midnightblue" d="M1315.25,-224.32C1325.8,-216.18 1341.8,-203.84 1354.44,-194.09"/>
<polygon fill="midnightblue" stroke="midnightblue" points="1356.77,-196.71 1362.55,-187.83 1352.49,-191.17 1356.77,-196.71"/>
</g>
<!-- Node25&#45;&gt;Node8 -->
<g id="edge46" class="edge">
<title>Node25&#45;&gt;Node8</title>
<path fill="none" stroke="midnightblue" d="M1614.5,-168.09C1616.29,-154.16 1617.44,-127.26 1603,-112 1552.31,-58.46 1017.61,-21.63 879.44,-12.96"/>
<polygon fill="midnightblue" stroke="midnightblue" points="879.3,-9.45 869.1,-12.32 878.87,-16.43 879.3,-9.45"/>
</g>
<!-- Node25&#45;&gt;Node9 -->
<g id="edge50" class="edge">
<title>Node25&#45;&gt;Node9</title>
<path fill="none" stroke="midnightblue" d="M1567.21,-168.44C1516.26,-158.92 1433.97,-143.55 1379.43,-133.36"/>
<polygon fill="midnightblue" stroke="midnightblue" points="1380.05,-129.91 1369.58,-131.52 1378.77,-136.79 1380.05,-129.91"/>
</g>
<!-- Node25&#45;&gt;Node14 -->
<g id="edge49" class="edge">
<title>Node25&#45;&gt;Node14</title>
<path fill="none" stroke="midnightblue" d="M1541.92,-168.83C1538.91,-168.54 1535.92,-168.26 1533,-168 1295.83,-146.79 1229.93,-176.44 992.11,-131.73"/>
<polygon fill="midnightblue" stroke="midnightblue" points="992.6,-128.26 982.12,-129.83 991.29,-135.14 992.6,-128.26"/>
</g>
<!-- Node25&#45;&gt;Node15 -->
<g id="edge48" class="edge">
<title>Node25&#45;&gt;Node15</title>
<path fill="none" stroke="midnightblue" d="M1541.91,-168.91C1538.9,-168.6 1535.92,-168.29 1533,-168 1354.12,-150.03 1139.49,-132.31 1057.8,-125.71"/>
<polygon fill="midnightblue" stroke="midnightblue" points="1057.86,-122.2 1047.61,-124.89 1057.3,-129.18 1057.86,-122.2"/>
</g>
<!-- Node26 -->
<g id="node26" class="node">
<title>Node26</title>
<g id="a_node26"><a xlink:href="../../db/db5/export_8h.html" target="_top" xlink:title="Declares system&#45;dependent import/export macros and libraries.">
<polygon fill="white" stroke="black" points="1450,-112.5 1450,-131.5 1594,-131.5 1594,-112.5 1450,-112.5"/>
<text text-anchor="middle" x="1522" y="-119.5" font-family="Helvetica,sans-Serif" font-size="10.00">ajabase/common/export.h</text>
</a>
</g>
</g>
<!-- Node25&#45;&gt;Node26 -->
<g id="edge45" class="edge">
<title>Node25&#45;&gt;Node26</title>
<path fill="none" stroke="midnightblue" d="M1598.38,-168.32C1584.05,-159.82 1561.99,-146.73 1545.25,-136.8"/>
<polygon fill="midnightblue" stroke="midnightblue" points="1546.97,-133.75 1536.58,-131.65 1543.4,-139.77 1546.97,-133.75"/>
</g>
<!-- Node27 -->
<g id="node27" class="node">
<title>Node27</title>
<g id="a_node27"><a xlink:title=" ">
<polygon fill="white" stroke="#bfbfbf" points="1650,-112.5 1650,-131.5 1682,-131.5 1682,-112.5 1650,-112.5"/>
<text text-anchor="middle" x="1666" y="-119.5" font-family="Helvetica,sans-Serif" font-size="10.00">list</text>
</a>
</g>
</g>
<!-- Node25&#45;&gt;Node27 -->
<g id="edge47" class="edge">
<title>Node25&#45;&gt;Node27</title>
<path fill="none" stroke="midnightblue" d="M1621.75,-168.08C1629.47,-160.22 1640.9,-148.57 1650.22,-139.08"/>
<polygon fill="midnightblue" stroke="midnightblue" points="1652.9,-141.34 1657.41,-131.75 1647.91,-136.44 1652.9,-141.34"/>
</g>
<!-- Node28&#45;&gt;Node5 -->
<g id="edge54" class="edge">
<title>Node28&#45;&gt;Node5</title>
<path fill="none" stroke="midnightblue" d="M1329.74,-168.5C1288.41,-160.25 1225.14,-146.84 1171,-132 1143.48,-124.46 1137.62,-119.14 1110,-112 927.84,-64.92 705.16,-29.36 618.73,-16.37"/>
<polygon fill="midnightblue" stroke="midnightblue" points="619.04,-12.88 608.64,-14.86 618.01,-19.8 619.04,-12.88"/>
</g>
<!-- Node28&#45;&gt;Node8 -->
<g id="edge55" class="edge">
<title>Node28&#45;&gt;Node8</title>
<path fill="none" stroke="midnightblue" d="M1383.37,-168.27C1396.41,-155.05 1416.95,-129.64 1403,-112 1337.38,-29.07 988.02,-14.19 879.31,-11.56"/>
<polygon fill="midnightblue" stroke="midnightblue" points="879.35,-8.06 869.27,-11.33 879.19,-15.05 879.35,-8.06"/>
</g>
<!-- Node28&#45;&gt;Node15 -->
<g id="edge56" class="edge">
<title>Node28&#45;&gt;Node15</title>
<path fill="none" stroke="midnightblue" d="M1318.54,-168.44C1245.26,-157.14 1118.41,-137.57 1057.95,-128.24"/>
<polygon fill="midnightblue" stroke="midnightblue" points="1058.22,-124.74 1047.8,-126.67 1057.15,-131.66 1058.22,-124.74"/>
</g>
<!-- Node28&#45;&gt;Node26 -->
<g id="edge52" class="edge">
<title>Node28&#45;&gt;Node26</title>
<path fill="none" stroke="midnightblue" d="M1397.45,-168.44C1422.13,-159.44 1461.19,-145.19 1488.98,-135.05"/>
<polygon fill="midnightblue" stroke="midnightblue" points="1490.46,-138.23 1498.66,-131.52 1488.06,-131.66 1490.46,-138.23"/>
</g>
<!-- Node29 -->
<g id="node29" class="node">
<title>Node29</title>
<g id="a_node29"><a xlink:title=" ">
<polygon fill="white" stroke="#bfbfbf" points="1180,-112.5 1180,-131.5 1236,-131.5 1236,-112.5 1180,-112.5"/>
<text text-anchor="middle" x="1208" y="-119.5" font-family="Helvetica,sans-Serif" font-size="10.00">stddef.h</text>
</a>
</g>
</g>
<!-- Node28&#45;&gt;Node29 -->
<g id="edge53" class="edge">
<title>Node28&#45;&gt;Node29</title>
<path fill="none" stroke="midnightblue" d="M1347.7,-168.44C1319.65,-159.32 1275.06,-144.81 1243.82,-134.65"/>
<polygon fill="midnightblue" stroke="midnightblue" points="1244.77,-131.28 1234.18,-131.52 1242.61,-137.94 1244.77,-131.28"/>
</g>
<!-- Node30&#45;&gt;Node4 -->
<g id="edge59" class="edge">
<title>Node30&#45;&gt;Node4</title>
<path fill="none" stroke="midnightblue" d="M309.89,-282.27C278.92,-276.25 244.5,-264.99 219,-244 169.93,-203.61 124.14,-161.5 164,-112 183.9,-87.29 271.28,-75.41 325.65,-70.32"/>
<polygon fill="midnightblue" stroke="midnightblue" points="326.08,-73.79 335.72,-69.41 325.45,-66.82 326.08,-73.79"/>
</g>
<!-- Node30&#45;&gt;Node7 -->
<g id="edge58" class="edge">
<title>Node30&#45;&gt;Node7</title>
<path fill="none" stroke="midnightblue" d="M309.74,-282.82C197.25,-271.57 0,-242.76 0,-179 0,-179 0,-179 0,-121 0,-83.16 21.8,-74.16 55,-56 104.21,-29.09 265.76,-17.36 346.38,-13.08"/>
<polygon fill="midnightblue" stroke="midnightblue" points="346.92,-16.56 356.73,-12.55 346.56,-9.57 346.92,-16.56"/>
</g>
<!-- Node30&#45;&gt;Node8 -->
<g id="edge66" class="edge">
<title>Node30&#45;&gt;Node8</title>
<path fill="none" stroke="midnightblue" d="M386.1,-280.42C385.78,-266.47 382.99,-238.92 367,-224 312.11,-172.8 264.17,-230.05 202,-188 170.72,-166.84 142.06,-142.74 164,-112 208.5,-49.65 252.06,-71.87 327,-56 420.99,-36.1 716.05,-18.29 814.6,-12.76"/>
<polygon fill="midnightblue" stroke="midnightblue" points="815.04,-16.24 824.83,-12.19 814.65,-9.26 815.04,-16.24"/>
</g>
<!-- Node30&#45;&gt;Node10 -->
<g id="edge63" class="edge">
<title>Node30&#45;&gt;Node10</title>
<path fill="none" stroke="midnightblue" d="M462.12,-286.4C537.97,-282.26 647.55,-271.55 679,-244 692.11,-232.52 696.41,-212.54 697.7,-197.76"/>
<polygon fill="midnightblue" stroke="midnightblue" points="701.2,-197.85 698.2,-187.69 694.21,-197.5 701.2,-197.85"/>
</g>
<!-- Node30&#45;&gt;Node11 -->
<g id="edge60" class="edge">
<title>Node30&#45;&gt;Node11</title>
<path fill="none" stroke="midnightblue" d="M309.95,-281.9C285.91,-275.64 261.77,-264.31 247,-244 218.84,-205.28 276.84,-159.87 311.91,-137.27"/>
<polygon fill="midnightblue" stroke="midnightblue" points="314.06,-140.05 320.68,-131.78 310.35,-134.12 314.06,-140.05"/>
</g>
<!-- Node30&#45;&gt;Node12 -->
<g id="edge67" class="edge">
<title>Node30&#45;&gt;Node12</title>
<path fill="none" stroke="midnightblue" d="M309.66,-282.04C282.99,-275.88 255,-264.58 236,-244 209.97,-215.81 207.61,-168.07 208.55,-141.77"/>
<polygon fill="midnightblue" stroke="midnightblue" points="212.06,-141.82 209.13,-131.64 205.07,-141.43 212.06,-141.82"/>
</g>
<!-- Node30&#45;&gt;Node15 -->
<g id="edge68" class="edge">
<title>Node30&#45;&gt;Node15</title>
<path fill="none" stroke="midnightblue" d="M462.18,-281.8C526.19,-274.87 619.81,-262.65 700,-244 778.3,-225.79 796.74,-216.28 872,-188 915.93,-171.49 965.75,-149.55 996.02,-135.86"/>
<polygon fill="midnightblue" stroke="midnightblue" points="997.84,-138.87 1005.5,-131.55 994.95,-132.5 997.84,-138.87"/>
</g>
<!-- Node30&#45;&gt;Node21 -->
<g id="edge64" class="edge">
<title>Node30&#45;&gt;Node21</title>
<path fill="none" stroke="midnightblue" d="M420.86,-280.44C458.92,-271.1 519.96,-256.12 561.46,-245.93"/>
<polygon fill="midnightblue" stroke="midnightblue" points="562.43,-249.3 571.3,-243.52 560.76,-242.5 562.43,-249.3"/>
</g>
<!-- Node31 -->
<g id="node31" class="node">
<title>Node31</title>
<g id="a_node31"><a xlink:href="../../d9/d61/ntv2videodefines_8h.html" target="_top" xlink:title="Declares common video macros and structs used in the SDK.">
<polygon fill="white" stroke="black" points="414,-224.5 414,-243.5 524,-243.5 524,-224.5 414,-224.5"/>
<text text-anchor="middle" x="469" y="-231.5" font-family="Helvetica,sans-Serif" font-size="10.00">ntv2videodefines.h</text>
</a>
</g>
</g>
<!-- Node30&#45;&gt;Node31 -->
<g id="edge61" class="edge">
<title>Node30&#45;&gt;Node31</title>
<path fill="none" stroke="midnightblue" d="M399.34,-280.32C412.16,-271.98 431.78,-259.21 446.94,-249.35"/>
<polygon fill="midnightblue" stroke="midnightblue" points="449.22,-252.04 455.7,-243.65 445.41,-246.17 449.22,-252.04"/>
</g>
<!-- Node32 -->
<g id="node32" class="node">
<title>Node32</title>
<g id="a_node32"><a xlink:href="../../de/d26/ntv2m31enums_8h.html" target="_top" xlink:title="Enumerations for controlling NTV2 devices with m31 HEVC encoders.">
<polygon fill="white" stroke="black" points="256,-224.5 256,-243.5 358,-243.5 358,-224.5 256,-224.5"/>
<text text-anchor="middle" x="307" y="-231.5" font-family="Helvetica,sans-Serif" font-size="10.00">ntv2m31enums.h</text>
</a>
</g>
</g>
<!-- Node30&#45;&gt;Node32 -->
<g id="edge65" class="edge">
<title>Node30&#45;&gt;Node32</title>
<path fill="none" stroke="midnightblue" d="M373.31,-280.32C361.1,-271.98 342.42,-259.21 328,-249.35"/>
<polygon fill="midnightblue" stroke="midnightblue" points="329.89,-246.41 319.66,-243.65 325.94,-252.19 329.89,-246.41"/>
</g>
<!-- Node31&#45;&gt;Node4 -->
<g id="edge62" class="edge">
<title>Node31&#45;&gt;Node4</title>
<path fill="none" stroke="midnightblue" d="M417.56,-224.5C363.94,-215.22 283.79,-200.09 255,-188 213.63,-170.63 192.17,-171.56 171,-132 166.81,-124.16 165.45,-118.94 171,-112 189.97,-88.26 272.89,-76.13 325.52,-70.71"/>
<polygon fill="midnightblue" stroke="midnightblue" points="326.01,-74.18 335.62,-69.71 325.32,-67.21 326.01,-74.18"/>
</g>
<!-- Node33&#45;&gt;Node25 -->
<g id="edge70" class="edge">
<title>Node33&#45;&gt;Node25</title>
<path fill="none" stroke="midnightblue" d="M1366.95,-280.37C1413.94,-261.01 1527.89,-214.06 1582.64,-191.51"/>
<polygon fill="midnightblue" stroke="midnightblue" points="1584.23,-194.64 1592.15,-187.59 1581.57,-188.16 1584.23,-194.64"/>
</g>
<!-- Node34&#45;&gt;Node25 -->
<g id="edge72" class="edge">
<title>Node34&#45;&gt;Node25</title>
<path fill="none" stroke="midnightblue" d="M1613,-224.08C1613,-217.01 1613,-206.86 1613,-197.99"/>
<polygon fill="midnightblue" stroke="midnightblue" points="1616.5,-197.75 1613,-187.75 1609.5,-197.75 1616.5,-197.75"/>
</g>
<!-- Node35 -->
<g id="node35" class="node">
<title>Node35</title>
<g id="a_node35"><a xlink:title=" ">
<polygon fill="white" stroke="#bfbfbf" points="1702,-168.5 1702,-187.5 1758,-187.5 1758,-168.5 1702,-168.5"/>
<text text-anchor="middle" x="1730" y="-175.5" font-family="Helvetica,sans-Serif" font-size="10.00">assert.h</text>
</a>
</g>
</g>
<!-- Node34&#45;&gt;Node35 -->
<g id="edge73" class="edge">
<title>Node34&#45;&gt;Node35</title>
<path fill="none" stroke="midnightblue" d="M1631.54,-224.44C1650.62,-215.64 1680.57,-201.81 1702.44,-191.72"/>
<polygon fill="midnightblue" stroke="midnightblue" points="1703.93,-194.88 1711.55,-187.52 1701,-188.53 1703.93,-194.88"/>
</g>
</g>
</svg>
        <g id="navigator" transform="translate(0 0)" fill="#404254">
                <rect fill="#f2f5e9" fill-opacity="0.5" stroke="#606060" stroke-width=".5" x="0" y="0" width="60" height="60"/>
                <use id="zoomplus" xlink:href="#zoomPlus" x="17" y="9" onmousedown="handleZoom(evt,'in')"/>
                <use id="zoomminus" xlink:href="#zoomMin" x="42" y="9" onmousedown="handleZoom(evt,'out')"/>
                <use id="reset" xlink:href="#resetDef" x="30" y="36" onmousedown="handleReset()"/>
                <g id="arrowUp" xlink:href="#dirArrow" transform="translate(30 24)" onmousedown="handlePan(0,-1)">
                  <use xlink:href="#rim" fill="#404040">
                        <set attributeName="fill" to="#808080" begin="arrowUp.mouseover" end="arrowUp.mouseout"/>
                  </use>
                  <path fill="none" stroke="white" stroke-width="1.5" d="M0,-3.0v7 M-2.5,-0.5L0,-3.0L2.5,-0.5"/>
                </g>
                <g id="arrowRight" xlink:href="#dirArrow" transform="rotate(90) translate(36 -43)" onmousedown="handlePan(1,0)">
                  <use xlink:href="#rim" fill="#404040">
                        <set attributeName="fill" to="#808080" begin="arrowRight.mouseover" end="arrowRight.mouseout"/>
                  </use>
                  <path fill="none" stroke="white" stroke-width="1.5" d="M0,-3.0v7 M-2.5,-0.5L0,-3.0L2.5,-0.5"/>
                </g>
                <g id="arrowDown" xlink:href="#dirArrow" transform="rotate(180) translate(-30 -48)" onmousedown="handlePan(0,1)">
                  <use xlink:href="#rim" fill="#404040">
                        <set attributeName="fill" to="#808080" begin="arrowDown.mouseover" end="arrowDown.mouseout"/>
                  </use>
                  <path fill="none" stroke="white" stroke-width="1.5" d="M0,-3.0v7 M-2.5,-0.5L0,-3.0L2.5,-0.5"/>
                </g>
                <g id="arrowLeft" xlink:href="#dirArrow" transform="rotate(270) translate(-36 17)" onmousedown="handlePan(-1,0)">
                  <use xlink:href="#rim" fill="#404040">
                        <set attributeName="fill" to="#808080" begin="arrowLeft.mouseover" end="arrowLeft.mouseout"/>
                  </use>
                  <path fill="none" stroke="white" stroke-width="1.5" d="M0,-3.0v7 M-2.5,-0.5L0,-3.0L2.5,-0.5"/>
                </g>
        </g>
        <svg viewBox="0 0 15 15" width="100%" height="30px" preserveAspectRatio="xMaxYMin meet">
         <g id="arrow_out" transform="scale(0.3 0.3)">
          <a xlink:href="ancillarylist_8cpp__incl_org.svg" target="_base">
           <rect id="button" ry="5" rx="5" y="6" x="6" height="38" width="38"
                fill="#f2f5e9" fill-opacity="0.5" stroke="#606060" stroke-width="1.0"/>
           <path id="arrow"
             d="M 11.500037,31.436501 C 11.940474,20.09759 22.043105,11.32322 32.158766,21.979434 L 37.068811,17.246167 C 37.068811,17.246167 37.088388,32 37.088388,32 L 22.160133,31.978069 C 22.160133,31.978069 26.997745,27.140456 26.997745,27.140456 C 18.528582,18.264221 13.291696,25.230495 11.500037,31.436501 z"
             style="fill:#404040;"/>
          </a>
         </g>
        </svg>
</svg>
