<?xml version="1.0" encoding="UTF-8" standalone="no"?>
<!DOCTYPE svg PUBLIC "-//W3C//DTD SVG 1.1//EN"
 "http://www.w3.org/Graphics/SVG/1.1/DTD/svg11.dtd">
<!-- Generated by graphviz version 2.40.1 (0)
 -->
<!-- Title: CC708WindowStatus Pages: 1 -->
<!--zoomable 184 -->
<svg id="main" version="1.1" xmlns="http://www.w3.org/2000/svg" xmlns:xlink="http://www.w3.org/1999/xlink" xml:space="preserve" onload="init(evt)">
<style type="text/css"><![CDATA[
.edge:hover path { stroke: red; }
.edge:hover polygon { stroke: red; fill: red; }
]]></style>
<script type="text/javascript"><![CDATA[
var edges = document.getElementsByTagName('g');
if (edges && edges.length) {
  for (var i=0;i<edges.length;i++) {
    if (edges[i].id.substr(0,4)=='edge') {
      edges[i].setAttribute('class','edge');
    }
  }
}
]]></script>
        <defs>
                <circle id="rim" cx="0" cy="0" r="7"/>
                <circle id="rim2" cx="0" cy="0" r="3.5"/>
                <g id="zoomPlus">
                        <use xlink:href="#rim" fill="#404040">
                                <set attributeName="fill" to="#808080" begin="zoomplus.mouseover" end="zoomplus.mouseout"/>
                        </use>
                        <path d="M-4,0h8M0,-4v8" fill="none" stroke="white" stroke-width="1.5" pointer-events="none"/>
                </g>
                <g id="zoomMin">
                        <use xlink:href="#rim" fill="#404040">
                                <set attributeName="fill" to="#808080" begin="zoomminus.mouseover" end="zoomminus.mouseout"/>
                        </use>
                        <path d="M-4,0h8" fill="none" stroke="white" stroke-width="1.5" pointer-events="none"/>
                </g>
                <g id="dirArrow">
                        <path fill="none" stroke="white" stroke-width="1.5" d="M0,-3.0v7 M-2.5,-0.5L0,-3.0L2.5,-0.5"/>
                </g>
               <g id="resetDef">
                       <use xlink:href="#rim2" fill="#404040">
                               <set attributeName="fill" to="#808080" begin="reset.mouseover" end="reset.mouseout"/>
                       </use>
               </g>
        </defs>

<script type="text/javascript">
var viewWidth = 560;
var viewHeight = 184;
var sectionId = 'dynsection-0';
</script>
<script xlink:href="../../svgpan.js"/>
<svg id="graph" class="graph">
<g id="viewport">
<title>CC708WindowStatus</title>
<polygon fill="#ffffff" stroke="transparent" points="-4,4 -4,-180 555.5,-180 555.5,4 -4,4"/>
<!-- Node1 -->
<g id="node1" class="node">
<title>Node1</title>
<polygon fill="#bfbfbf" stroke="#000000" points="219,-.5 219,-19.5 330,-19.5 330,-.5 219,-.5"/>
<text text-anchor="middle" x="274.5" y="-7.5" font-family="Helvetica,sans-Serif" font-size="10.00" fill="#000000">CC708WindowStatus</text>
</g>
<!-- Node2 -->
<g id="node2" class="node">
<title>Node2</title>
<g id="a_node2"><a xlink:href="../../d9/d5e/struct_c_c708_pen_location.html" target="_top" xlink:title="CC708PenLocation">
<polygon fill="#ffffff" stroke="#000000" points="0,-67.5 0,-86.5 101,-86.5 101,-67.5 0,-67.5"/>
<text text-anchor="middle" x="50.5" y="-74.5" font-family="Helvetica,sans-Serif" font-size="10.00" fill="#000000">CC708PenLocation</text>
</a>
</g>
</g>
<!-- Node2&#45;&gt;Node1 -->
<g id="edge1" class="edge">
<title>Node2&#45;&gt;Node1</title>
<path fill="none" stroke="#9a32cd" stroke-dasharray="5,2" d="M88.4395,-64.2726C112.2144,-56.4212 143.5446,-46.3001 171.5,-38 193.3503,-31.5125 217.9814,-24.7953 237.6769,-19.5667"/>
<polygon fill="#9a32cd" stroke="#9a32cd" points="87.1353,-61.0176 78.7447,-67.4866 89.3381,-67.662 87.1353,-61.0176"/>
<text text-anchor="middle" x="189" y="-41" font-family="Helvetica,sans-Serif" font-size="10.00" fill="#000000"> penLoc</text>
</g>
<!-- Node3 -->
<g id="node3" class="node">
<title>Node3</title>
<g id="a_node3"><a xlink:href="../../da/d3d/struct_c_c708_pen_color.html" target="_top" xlink:title="CC708PenColor">
<polygon fill="#ffffff" stroke="#000000" points="119.5,-67.5 119.5,-86.5 207.5,-86.5 207.5,-67.5 119.5,-67.5"/>
<text text-anchor="middle" x="163.5" y="-74.5" font-family="Helvetica,sans-Serif" font-size="10.00" fill="#000000">CC708PenColor</text>
</a>
</g>
</g>
<!-- Node3&#45;&gt;Node1 -->
<g id="edge2" class="edge">
<title>Node3&#45;&gt;Node1</title>
<path fill="none" stroke="#9a32cd" stroke-dasharray="5,2" d="M187.5552,-62.2634C199.5419,-54.9399 214.2673,-45.9732 227.5,-38 237.7505,-31.8237 249.2963,-24.9442 258.3793,-19.55"/>
<polygon fill="#9a32cd" stroke="#9a32cd" points="185.6979,-59.2965 178.9927,-67.4997 189.3499,-65.2684 185.6979,-59.2965"/>
<text text-anchor="middle" x="249" y="-41" font-family="Helvetica,sans-Serif" font-size="10.00" fill="#000000"> penColor</text>
</g>
<!-- Node4 -->
<g id="node4" class="node">
<title>Node4</title>
<g id="a_node4"><a xlink:href="../../df/d43/struct_c_c708_color.html" target="_top" xlink:title="CC708Color">
<polygon fill="#ffffff" stroke="#000000" points="183,-156.5 183,-175.5 254,-175.5 254,-156.5 183,-156.5"/>
<text text-anchor="middle" x="218.5" y="-163.5" font-family="Helvetica,sans-Serif" font-size="10.00" fill="#000000">CC708Color</text>
</a>
</g>
</g>
<!-- Node4&#45;&gt;Node3 -->
<g id="edge3" class="edge">
<title>Node4&#45;&gt;Node3</title>
<path fill="none" stroke="#9a32cd" stroke-dasharray="5,2" d="M207.244,-147.7858C195.8158,-129.2929 178.5538,-101.3597 169.5104,-86.7259"/>
<polygon fill="#9a32cd" stroke="#9a32cd" points="204.3797,-149.8087 212.614,-156.4754 210.3344,-146.1287 204.3797,-149.8087"/>
<text text-anchor="middle" x="212.5" y="-130" font-family="Helvetica,sans-Serif" font-size="10.00" fill="#000000"> fg</text>
<text text-anchor="middle" x="212.5" y="-119" font-family="Helvetica,sans-Serif" font-size="10.00" fill="#000000">bg</text>
<text text-anchor="middle" x="212.5" y="-108" font-family="Helvetica,sans-Serif" font-size="10.00" fill="#000000">edge</text>
</g>
<!-- Node7 -->
<g id="node7" class="node">
<title>Node7</title>
<g id="a_node7"><a xlink:href="../../d4/d59/struct_c_c708_window_attr.html" target="_top" xlink:title="CC708WindowAttr">
<polygon fill="#ffffff" stroke="#000000" points="225.5,-67.5 225.5,-86.5 323.5,-86.5 323.5,-67.5 225.5,-67.5"/>
<text text-anchor="middle" x="274.5" y="-74.5" font-family="Helvetica,sans-Serif" font-size="10.00" fill="#000000">CC708WindowAttr</text>
</a>
</g>
</g>
<!-- Node4&#45;&gt;Node7 -->
<g id="edge7" class="edge">
<title>Node4&#45;&gt;Node7</title>
<path fill="none" stroke="#9a32cd" stroke-dasharray="5,2" d="M229.9606,-147.7858C241.5966,-129.2929 259.1725,-101.3597 268.3803,-86.7259"/>
<polygon fill="#9a32cd" stroke="#9a32cd" points="226.8563,-146.1475 224.493,-156.4754 232.781,-149.8755 226.8563,-146.1475"/>
<text text-anchor="middle" x="281" y="-124.5" font-family="Helvetica,sans-Serif" font-size="10.00" fill="#000000"> fillColor</text>
<text text-anchor="middle" x="281" y="-113.5" font-family="Helvetica,sans-Serif" font-size="10.00" fill="#000000">borderColor</text>
</g>
<!-- Node5 -->
<g id="node5" class="node">
<title>Node5</title>
<g id="a_node5"><a xlink:href="../../d6/df8/struct_c_c708_window_parms.html" target="_top" xlink:title="CC708WindowParms">
<polygon fill="#ffffff" stroke="#000000" points="342,-67.5 342,-86.5 453,-86.5 453,-67.5 342,-67.5"/>
<text text-anchor="middle" x="397.5" y="-74.5" font-family="Helvetica,sans-Serif" font-size="10.00" fill="#000000">CC708WindowParms</text>
</a>
</g>
</g>
<!-- Node5&#45;&gt;Node1 -->
<g id="edge4" class="edge">
<title>Node5&#45;&gt;Node1</title>
<path fill="none" stroke="#9a32cd" stroke-dasharray="5,2" d="M372.7466,-62.0876C360.197,-54.6563 344.6537,-45.6478 330.5,-38 318.6419,-31.5926 305.1326,-24.823 294.3539,-19.5454"/>
<polygon fill="#9a32cd" stroke="#9a32cd" points="371.3049,-65.3027 381.6872,-67.4141 374.8877,-59.289 371.3049,-65.3027"/>
<text text-anchor="middle" x="381" y="-41" font-family="Helvetica,sans-Serif" font-size="10.00" fill="#000000"> windowParms</text>
</g>
<!-- Node6 -->
<g id="node6" class="node">
<title>Node6</title>
<g id="a_node6"><a xlink:href="../../dd/d2c/struct_c_c708_pen_attr.html" target="_top" xlink:title="CC708PenAttr">
<polygon fill="#ffffff" stroke="#000000" points="471.5,-67.5 471.5,-86.5 551.5,-86.5 551.5,-67.5 471.5,-67.5"/>
<text text-anchor="middle" x="511.5" y="-74.5" font-family="Helvetica,sans-Serif" font-size="10.00" fill="#000000">CC708PenAttr</text>
</a>
</g>
</g>
<!-- Node6&#45;&gt;Node1 -->
<g id="edge5" class="edge">
<title>Node6&#45;&gt;Node1</title>
<path fill="none" stroke="#9a32cd" stroke-dasharray="5,2" d="M482.5142,-63.204C464.2063,-54.9374 439.8657,-44.7551 417.5,-38 389.1657,-29.4422 356.8612,-22.8582 330.134,-18.2313"/>
<polygon fill="#9a32cd" stroke="#9a32cd" points="481.2056,-66.4544 491.7541,-67.4444 484.1254,-60.0923 481.2056,-66.4544"/>
<text text-anchor="middle" x="464" y="-41" font-family="Helvetica,sans-Serif" font-size="10.00" fill="#000000"> penAttr</text>
</g>
<!-- Node7&#45;&gt;Node1 -->
<g id="edge6" class="edge">
<title>Node7&#45;&gt;Node1</title>
<path fill="none" stroke="#9a32cd" stroke-dasharray="5,2" d="M274.5,-57.1079C274.5,-44.714 274.5,-29.3263 274.5,-19.5817"/>
<polygon fill="#9a32cd" stroke="#9a32cd" points="271.0001,-57.4005 274.5,-67.4005 278.0001,-57.4006 271.0001,-57.4005"/>
<text text-anchor="middle" x="300.5" y="-41" font-family="Helvetica,sans-Serif" font-size="10.00" fill="#000000"> windowAttr</text>
</g>
</g>
</svg>
        <g id="navigator" transform="translate(0 0)" fill="#404254">
                <rect fill="#f2f5e9" fill-opacity="0.5" stroke="#606060" stroke-width=".5" x="0" y="0" width="60" height="60"/>
                <use id="zoomplus" xlink:href="#zoomPlus" x="17" y="9" onmousedown="handleZoom(evt,'in')"/>
                <use id="zoomminus" xlink:href="#zoomMin" x="42" y="9" onmousedown="handleZoom(evt,'out')"/>
                <use id="reset" xlink:href="#resetDef" x="30" y="36" onmousedown="handleReset()"/>
                <g id="arrowUp" xlink:href="#dirArrow" transform="translate(30 24)" onmousedown="handlePan(0,-1)">
                  <use xlink:href="#rim" fill="#404040">
                        <set attributeName="fill" to="#808080" begin="arrowUp.mouseover" end="arrowUp.mouseout"/>
                  </use>
                  <path fill="none" stroke="white" stroke-width="1.5" d="M0,-3.0v7 M-2.5,-0.5L0,-3.0L2.5,-0.5"/>
                </g>
                <g id="arrowRight" xlink:href="#dirArrow" transform="rotate(90) translate(36 -43)" onmousedown="handlePan(1,0)">
                  <use xlink:href="#rim" fill="#404040">
                        <set attributeName="fill" to="#808080" begin="arrowRight.mouseover" end="arrowRight.mouseout"/>
                  </use>
                  <path fill="none" stroke="white" stroke-width="1.5" d="M0,-3.0v7 M-2.5,-0.5L0,-3.0L2.5,-0.5"/>
                </g>
                <g id="arrowDown" xlink:href="#dirArrow" transform="rotate(180) translate(-30 -48)" onmousedown="handlePan(0,1)">
                  <use xlink:href="#rim" fill="#404040">
                        <set attributeName="fill" to="#808080" begin="arrowDown.mouseover" end="arrowDown.mouseout"/>
                  </use>
                  <path fill="none" stroke="white" stroke-width="1.5" d="M0,-3.0v7 M-2.5,-0.5L0,-3.0L2.5,-0.5"/>
                </g>
                <g id="arrowLeft" xlink:href="#dirArrow" transform="rotate(270) translate(-36 17)" onmousedown="handlePan(-1,0)">
                  <use xlink:href="#rim" fill="#404040">
                        <set attributeName="fill" to="#808080" begin="arrowLeft.mouseover" end="arrowLeft.mouseout"/>
                  </use>
                  <path fill="none" stroke="white" stroke-width="1.5" d="M0,-3.0v7 M-2.5,-0.5L0,-3.0L2.5,-0.5"/>
                </g>
        </g>
        <svg viewBox="0 0 15 15" width="100%" height="30px" preserveAspectRatio="xMaxYMin meet">
         <g id="arrow_out" transform="scale(0.3 0.3)">
          <a xlink:href="struct_c_c708_window_status__coll__graph_org.svg" target="_base">
           <rect id="button" ry="5" rx="5" y="6" x="6" height="38" width="38"
                fill="#f2f5e9" fill-opacity="0.5" stroke="#606060" stroke-width="1.0"/>
           <path id="arrow"
             d="M 11.500037,31.436501 C 11.940474,20.09759 22.043105,11.32322 32.158766,21.979434 L 37.068811,17.246167 C 37.068811,17.246167 37.088388,32 37.088388,32 L 22.160133,31.978069 C 22.160133,31.978069 26.997745,27.140456 26.997745,27.140456 C 18.528582,18.264221 13.291696,25.230495 11.500037,31.436501 z"
             style="fill:#404040;"/>
          </a>
         </g>
        </svg>
</svg>
