<?xml version="1.0" encoding="UTF-8" standalone="no"?>
<!DOCTYPE svg PUBLIC "-//W3C//DTD SVG 1.1//EN"
 "http://www.w3.org/Graphics/SVG/1.1/DTD/svg11.dtd">
<!-- Generated by graphviz version 2.43.0 (0)
 -->
<!-- Title: nlohmann::json_abiNLOHMANN_JSON_ABI_TAG_LEGACY_DISCARDED_VALUE_COMPARISON_v3_11_NLOHMANN_JSON_VERSION_PATCH::detail::is_compatible_type&lt; BasicJsonType, CompatibleType &gt; Pages: 1 -->
<svg width="594pt" height="83pt"
 viewBox="0.00 0.00 594.00 83.00" xmlns="http://www.w3.org/2000/svg" xmlns:xlink="http://www.w3.org/1999/xlink">
<g id="graph0" class="graph" transform="scale(1 1) rotate(0) translate(4 79)">
<title>nlohmann::json_abiNLOHMANN_JSON_ABI_TAG_LEGACY_DISCARDED_VALUE_COMPARISON_v3_11_NLOHMANN_JSON_VERSION_PATCH::detail::is_compatible_type&lt; BasicJsonType, CompatibleType &gt;</title>
<polygon fill="white" stroke="transparent" points="-4,4 -4,-79 590,-79 590,4 -4,4"/>
<!-- Node1 -->
<g id="node1" class="node">
<title>Node1</title>
<g id="a_node1"><a xlink:title=" ">
<polygon fill="#bfbfbf" stroke="black" points="363,-0.5 363,-74.5 586,-74.5 586,-0.5 363,-0.5"/>
<text text-anchor="start" x="371" y="-62.5" font-family="Helvetica,sans-Serif" font-size="10.00">nlohmann::json_abiNLOHMANN</text>
<text text-anchor="start" x="371" y="-51.5" font-family="Helvetica,sans-Serif" font-size="10.00">_JSON_ABI_TAG_LEGACY_DISCARDED</text>
<text text-anchor="start" x="371" y="-40.5" font-family="Helvetica,sans-Serif" font-size="10.00">_VALUE_COMPARISON_v3_11_NLOHMANN</text>
<text text-anchor="start" x="371" y="-29.5" font-family="Helvetica,sans-Serif" font-size="10.00">_JSON_VERSION_PATCH::detail::is</text>
<text text-anchor="start" x="371" y="-18.5" font-family="Helvetica,sans-Serif" font-size="10.00">_compatible_type&lt; BasicJsonType,</text>
<text text-anchor="middle" x="474.5" y="-7.5" font-family="Helvetica,sans-Serif" font-size="10.00"> CompatibleType &gt;</text>
</a>
</g>
</g>
<!-- Node2 -->
<g id="node2" class="node">
<title>Node2</title>
<g id="a_node2"><a xlink:href="../../d6/d24/structnlohmann_1_1json__abi_n_l_o_h_m_a_n_n___j_s_o_n___a_b_i___t_a_g___l_e_g_a_c_y___d_i_s_c_a_bf71b8d93faa163a147502248c0a85ae.html" target="_top" xlink:title=" ">
<polygon fill="white" stroke="black" points="104,-0.5 104,-74.5 327,-74.5 327,-0.5 104,-0.5"/>
<text text-anchor="start" x="112" y="-62.5" font-family="Helvetica,sans-Serif" font-size="10.00">nlohmann::json_abiNLOHMANN</text>
<text text-anchor="start" x="112" y="-51.5" font-family="Helvetica,sans-Serif" font-size="10.00">_JSON_ABI_TAG_LEGACY_DISCARDED</text>
<text text-anchor="start" x="112" y="-40.5" font-family="Helvetica,sans-Serif" font-size="10.00">_VALUE_COMPARISON_v3_11_NLOHMANN</text>
<text text-anchor="start" x="112" y="-29.5" font-family="Helvetica,sans-Serif" font-size="10.00">_JSON_VERSION_PATCH::detail::is</text>
<text text-anchor="start" x="112" y="-18.5" font-family="Helvetica,sans-Serif" font-size="10.00">_compatible_type_impl&lt; BasicJsonType,</text>
<text text-anchor="middle" x="215.5" y="-7.5" font-family="Helvetica,sans-Serif" font-size="10.00"> CompatibleType &gt;</text>
</a>
</g>
</g>
<!-- Node2&#45;&gt;Node1 -->
<g id="edge1" class="edge">
<title>Node2&#45;&gt;Node1</title>
<path fill="none" stroke="midnightblue" d="M337.53,-37.5C345.89,-37.5 354.3,-37.5 362.6,-37.5"/>
<polygon fill="midnightblue" stroke="midnightblue" points="337.36,-34 327.36,-37.5 337.36,-41 337.36,-34"/>
</g>
<!-- Node3 -->
<g id="node3" class="node">
<title>Node3</title>
<g id="a_node3"><a xlink:title=" ">
<polygon fill="white" stroke="#bfbfbf" points="0,-28 0,-47 68,-47 68,-28 0,-28"/>
<text text-anchor="middle" x="34" y="-35" font-family="Helvetica,sans-Serif" font-size="10.00">false_type</text>
</a>
</g>
</g>
<!-- Node3&#45;&gt;Node2 -->
<g id="edge2" class="edge">
<title>Node3&#45;&gt;Node2</title>
<path fill="none" stroke="midnightblue" d="M78.6,-37.5C86.44,-37.5 94.93,-37.5 103.7,-37.5"/>
<polygon fill="midnightblue" stroke="midnightblue" points="78.34,-34 68.34,-37.5 78.34,-41 78.34,-34"/>
</g>
</g>
</svg>
