<?xml version="1.0" encoding="UTF-8" standalone="no"?>
<!DOCTYPE svg PUBLIC "-//W3C//DTD SVG 1.1//EN"
 "http://www.w3.org/Graphics/SVG/1.1/DTD/svg11.dtd">
<!-- Generated by graphviz version 2.43.0 (0)
 -->
<!-- Title: /home/tcbuilder/buildAgent/work/df8e8cce5bebfd58/libajantv2/ajabase/common/timecode.h Pages: 1 -->
<svg width="3673pt" height="306pt"
 viewBox="0.00 0.00 3673.00 306.00" xmlns="http://www.w3.org/2000/svg" xmlns:xlink="http://www.w3.org/1999/xlink">
<g id="graph0" class="graph" transform="scale(1 1) rotate(0) translate(4 302)">
<title>/home/tcbuilder/buildAgent/work/df8e8cce5bebfd58/libajantv2/ajabase/common/timecode.h</title>
<polygon fill="white" stroke="transparent" points="-4,4 -4,-302 3669,-302 3669,4 -4,4"/>
<!-- Node1 -->
<g id="node1" class="node">
<title>Node1</title>
<g id="a_node1"><a xlink:title="Declares the AJATimeCode class.">
<polygon fill="#bfbfbf" stroke="black" points="1316,-256.5 1316,-297.5 1504,-297.5 1504,-256.5 1316,-256.5"/>
<text text-anchor="start" x="1324" y="-285.5" font-family="Helvetica,sans-Serif" font-size="10.00">/home/tcbuilder/buildAgent</text>
<text text-anchor="start" x="1324" y="-274.5" font-family="Helvetica,sans-Serif" font-size="10.00">/work/df8e8cce5bebfd58/libajantv2</text>
<text text-anchor="middle" x="1410" y="-263.5" font-family="Helvetica,sans-Serif" font-size="10.00">/ajabase/common/timecode.h</text>
</a>
</g>
</g>
<!-- Node2 -->
<g id="node2" class="node">
<title>Node2</title>
<g id="a_node2"><a xlink:href="../../d8/d99/timecode_8cpp.html" target="_top" xlink:title="Implements the AJATimeCode class.">
<polygon fill="white" stroke="black" points="115,-173 115,-214 303,-214 303,-173 115,-173"/>
<text text-anchor="start" x="123" y="-202" font-family="Helvetica,sans-Serif" font-size="10.00">/home/tcbuilder/buildAgent</text>
<text text-anchor="start" x="123" y="-191" font-family="Helvetica,sans-Serif" font-size="10.00">/work/df8e8cce5bebfd58/libajantv2</text>
<text text-anchor="middle" x="209" y="-180" font-family="Helvetica,sans-Serif" font-size="10.00">/ajabase/common/timecode.cpp</text>
</a>
</g>
</g>
<!-- Node1&#45;&gt;Node2 -->
<g id="edge1" class="edge">
<title>Node1&#45;&gt;Node2</title>
<path fill="none" stroke="midnightblue" d="M1305.62,-273.23C1069.79,-266.56 501.66,-248.05 312,-220 301.7,-218.48 290.94,-216.38 280.4,-214.05"/>
<polygon fill="midnightblue" stroke="midnightblue" points="1305.82,-276.74 1315.91,-273.52 1306.02,-269.74 1305.82,-276.74"/>
</g>
<!-- Node3 -->
<g id="node3" class="node">
<title>Node3</title>
<g id="a_node3"><a xlink:href="../../d0/d74/wavewriter_8cpp.html" target="_top" xlink:title="Implements the AJAWavWriter class.">
<polygon fill="white" stroke="black" points="321,-173 321,-214 509,-214 509,-173 321,-173"/>
<text text-anchor="start" x="329" y="-202" font-family="Helvetica,sans-Serif" font-size="10.00">/home/tcbuilder/buildAgent</text>
<text text-anchor="start" x="329" y="-191" font-family="Helvetica,sans-Serif" font-size="10.00">/work/df8e8cce5bebfd58/libajantv2</text>
<text text-anchor="middle" x="415" y="-180" font-family="Helvetica,sans-Serif" font-size="10.00">/ajabase/common/wavewriter.cpp</text>
</a>
</g>
</g>
<!-- Node1&#45;&gt;Node3 -->
<g id="edge2" class="edge">
<title>Node1&#45;&gt;Node3</title>
<path fill="none" stroke="midnightblue" d="M1305.95,-275.52C1138.85,-273.4 800.73,-263.51 518,-220 507.8,-218.43 497.14,-216.33 486.7,-214"/>
<polygon fill="midnightblue" stroke="midnightblue" points="1305.94,-279.02 1315.98,-275.64 1306.02,-272.02 1305.94,-279.02"/>
</g>
<!-- Node4 -->
<g id="node4" class="node">
<title>Node4</title>
<g id="a_node4"><a xlink:href="../../d4/d23/ancillarydata__timecode_8h.html" target="_top" xlink:title="Declares the AJAAncillaryData_Timecode class.">
<polygon fill="white" stroke="black" points="527,-167.5 527,-219.5 715,-219.5 715,-167.5 527,-167.5"/>
<text text-anchor="start" x="535" y="-207.5" font-family="Helvetica,sans-Serif" font-size="10.00">/home/tcbuilder/buildAgent</text>
<text text-anchor="start" x="535" y="-196.5" font-family="Helvetica,sans-Serif" font-size="10.00">/work/df8e8cce5bebfd58/libajantv2</text>
<text text-anchor="start" x="535" y="-185.5" font-family="Helvetica,sans-Serif" font-size="10.00">/ajaanc/includes/ancillarydata</text>
<text text-anchor="middle" x="621" y="-174.5" font-family="Helvetica,sans-Serif" font-size="10.00">_timecode.h</text>
</a>
</g>
</g>
<!-- Node1&#45;&gt;Node4 -->
<g id="edge3" class="edge">
<title>Node1&#45;&gt;Node4</title>
<path fill="none" stroke="midnightblue" d="M1305.57,-272.27C1171.42,-266.37 931.7,-252.08 729,-220 724.43,-219.28 719.77,-218.47 715.08,-217.59"/>
<polygon fill="midnightblue" stroke="midnightblue" points="1305.7,-275.78 1315.84,-272.72 1306,-268.79 1305.7,-275.78"/>
</g>
<!-- Node8 -->
<g id="node8" class="node">
<title>Node8</title>
<g id="a_node8"><a xlink:href="../../df/dc3/ntv2autocirculate_8cpp.html" target="_top" xlink:title="Implements the CNTV2Card AutoCirculate API functions.">
<polygon fill="white" stroke="black" points="701,-0.5 701,-41.5 889,-41.5 889,-0.5 701,-0.5"/>
<text text-anchor="start" x="709" y="-29.5" font-family="Helvetica,sans-Serif" font-size="10.00">/home/tcbuilder/buildAgent</text>
<text text-anchor="start" x="709" y="-18.5" font-family="Helvetica,sans-Serif" font-size="10.00">/work/df8e8cce5bebfd58/libajantv2</text>
<text text-anchor="middle" x="795" y="-7.5" font-family="Helvetica,sans-Serif" font-size="10.00">/ajantv2/src/ntv2autocirculate.cpp</text>
</a>
</g>
</g>
<!-- Node1&#45;&gt;Node8 -->
<g id="edge32" class="edge">
<title>Node1&#45;&gt;Node8</title>
<path fill="none" stroke="midnightblue" d="M1305.51,-272.01C1212.74,-266.37 1074.27,-252.77 958,-220 865.92,-194.04 813.81,-211.43 762,-131 744.01,-103.08 763.84,-64.86 779.61,-41.89"/>
<polygon fill="midnightblue" stroke="midnightblue" points="1305.55,-275.52 1315.74,-272.62 1305.96,-268.53 1305.55,-275.52"/>
</g>
<!-- Node12 -->
<g id="node12" class="node">
<title>Node12</title>
<g id="a_node12"><a xlink:href="../../da/d4f/ntv2ccgrabber_8h.html" target="_top" xlink:title="Header file for NTV2CCGrabber demonstration class.">
<polygon fill="white" stroke="black" points="967,-173 967,-214 1173,-214 1173,-173 967,-173"/>
<text text-anchor="start" x="975" y="-202" font-family="Helvetica,sans-Serif" font-size="10.00">/home/tcbuilder/buildAgent</text>
<text text-anchor="start" x="975" y="-191" font-family="Helvetica,sans-Serif" font-size="10.00">/work/df8e8cce5bebfd58/libajantv2</text>
<text text-anchor="middle" x="1070" y="-180" font-family="Helvetica,sans-Serif" font-size="10.00">/demos/ntv2ccgrabber/ntv2ccgrabber.h</text>
</a>
</g>
</g>
<!-- Node1&#45;&gt;Node12 -->
<g id="edge12" class="edge">
<title>Node1&#45;&gt;Node12</title>
<path fill="none" stroke="midnightblue" d="M1318.65,-254.1C1266.52,-241.61 1201.73,-226.08 1151.36,-214"/>
<polygon fill="midnightblue" stroke="midnightblue" points="1318.02,-257.55 1328.56,-256.48 1319.65,-250.74 1318.02,-257.55"/>
</g>
<!-- Node15 -->
<g id="node15" class="node">
<title>Node15</title>
<g id="a_node15"><a xlink:href="../../de/d67/ntv2ccplayer_8cpp.html" target="_top" xlink:title="Implementation of NTV2CCPlayer class.">
<polygon fill="white" stroke="black" points="1191,-173 1191,-214 1395,-214 1395,-173 1191,-173"/>
<text text-anchor="start" x="1199" y="-202" font-family="Helvetica,sans-Serif" font-size="10.00">/home/tcbuilder/buildAgent</text>
<text text-anchor="start" x="1199" y="-191" font-family="Helvetica,sans-Serif" font-size="10.00">/work/df8e8cce5bebfd58/libajantv2</text>
<text text-anchor="middle" x="1293" y="-180" font-family="Helvetica,sans-Serif" font-size="10.00">/demos/ntv2ccplayer/ntv2ccplayer.cpp</text>
</a>
</g>
</g>
<!-- Node1&#45;&gt;Node15 -->
<g id="edge15" class="edge">
<title>Node1&#45;&gt;Node15</title>
<path fill="none" stroke="midnightblue" d="M1373.45,-250.54C1356.6,-238.8 1336.89,-225.07 1321.2,-214.14"/>
<polygon fill="midnightblue" stroke="midnightblue" points="1371.77,-253.63 1381.98,-256.48 1375.77,-247.89 1371.77,-253.63"/>
</g>
<!-- Node16 -->
<g id="node16" class="node">
<title>Node16</title>
<g id="a_node16"><a xlink:href="../../dc/db3/ntv2encodehevc_8h.html" target="_top" xlink:title="Declares the NTV2EncodeHEVC class.">
<polygon fill="white" stroke="black" points="1413,-173 1413,-214 1641,-214 1641,-173 1413,-173"/>
<text text-anchor="start" x="1421" y="-202" font-family="Helvetica,sans-Serif" font-size="10.00">/home/tcbuilder/buildAgent</text>
<text text-anchor="start" x="1421" y="-191" font-family="Helvetica,sans-Serif" font-size="10.00">/work/df8e8cce5bebfd58/libajantv2</text>
<text text-anchor="middle" x="1527" y="-180" font-family="Helvetica,sans-Serif" font-size="10.00">/demos/ntv2encodehevc/ntv2encodehevc.h</text>
</a>
</g>
</g>
<!-- Node1&#45;&gt;Node16 -->
<g id="edge16" class="edge">
<title>Node1&#45;&gt;Node16</title>
<path fill="none" stroke="midnightblue" d="M1446.55,-250.54C1463.4,-238.8 1483.11,-225.07 1498.8,-214.14"/>
<polygon fill="midnightblue" stroke="midnightblue" points="1444.23,-247.89 1438.02,-256.48 1448.23,-253.63 1444.23,-247.89"/>
</g>
<!-- Node19 -->
<g id="node19" class="node">
<title>Node19</title>
<g id="a_node19"><a xlink:href="../../d7/d9c/ntv2encodehevcfile_8h.html" target="_top" xlink:title="Declares the NTV2EncodeHEVCFile class.">
<polygon fill="white" stroke="black" points="1659,-173 1659,-214 1917,-214 1917,-173 1659,-173"/>
<text text-anchor="start" x="1667" y="-202" font-family="Helvetica,sans-Serif" font-size="10.00">/home/tcbuilder/buildAgent</text>
<text text-anchor="start" x="1667" y="-191" font-family="Helvetica,sans-Serif" font-size="10.00">/work/df8e8cce5bebfd58/libajantv2</text>
<text text-anchor="middle" x="1788" y="-180" font-family="Helvetica,sans-Serif" font-size="10.00">/demos/ntv2encodehevcfile/ntv2encodehevcfile.h</text>
</a>
</g>
</g>
<!-- Node1&#45;&gt;Node19 -->
<g id="edge19" class="edge">
<title>Node1&#45;&gt;Node19</title>
<path fill="none" stroke="midnightblue" d="M1510.48,-254.34C1568.62,-241.8 1641.19,-226.15 1697.54,-214"/>
<polygon fill="midnightblue" stroke="midnightblue" points="1509.58,-250.95 1500.54,-256.48 1511.05,-257.79 1509.58,-250.95"/>
</g>
<!-- Node22 -->
<g id="node22" class="node">
<title>Node22</title>
<g id="a_node22"><a xlink:href="../../d0/d57/ntv2encodehevcfileac_8h.html" target="_top" xlink:title="Declares the NTV2EncodeHEVCFileAc class.">
<polygon fill="white" stroke="black" points="2044.5,-173 2044.5,-214 2313.5,-214 2313.5,-173 2044.5,-173"/>
<text text-anchor="start" x="2052.5" y="-202" font-family="Helvetica,sans-Serif" font-size="10.00">/home/tcbuilder/buildAgent</text>
<text text-anchor="start" x="2052.5" y="-191" font-family="Helvetica,sans-Serif" font-size="10.00">/work/df8e8cce5bebfd58/libajantv2</text>
<text text-anchor="middle" x="2179" y="-180" font-family="Helvetica,sans-Serif" font-size="10.00">/demos/ntv2encodehevcfile/ntv2encodehevcfileac.h</text>
</a>
</g>
</g>
<!-- Node1&#45;&gt;Node22 -->
<g id="edge22" class="edge">
<title>Node1&#45;&gt;Node22</title>
<path fill="none" stroke="midnightblue" d="M1514.41,-264.93C1651.81,-250.37 1893.51,-224.76 2044.47,-208.76"/>
<polygon fill="midnightblue" stroke="midnightblue" points="1513.87,-261.47 1504.29,-266.01 1514.61,-268.43 1513.87,-261.47"/>
</g>
<!-- Node24 -->
<g id="node24" class="node">
<title>Node24</title>
<g id="a_node24"><a xlink:href="../../d6/dde/ntv2encodehevcvif_8h.html" target="_top" xlink:title="Declares the NTV2EncodeHEVCVif class.">
<polygon fill="white" stroke="black" points="2451.5,-173 2451.5,-214 2704.5,-214 2704.5,-173 2451.5,-173"/>
<text text-anchor="start" x="2459.5" y="-202" font-family="Helvetica,sans-Serif" font-size="10.00">/home/tcbuilder/buildAgent</text>
<text text-anchor="start" x="2459.5" y="-191" font-family="Helvetica,sans-Serif" font-size="10.00">/work/df8e8cce5bebfd58/libajantv2</text>
<text text-anchor="middle" x="2578" y="-180" font-family="Helvetica,sans-Serif" font-size="10.00">/demos/ntv2encodehevcvif/ntv2encodehevcvif.h</text>
</a>
</g>
</g>
<!-- Node1&#45;&gt;Node24 -->
<g id="edge24" class="edge">
<title>Node1&#45;&gt;Node24</title>
<path fill="none" stroke="midnightblue" d="M1514.45,-270.88C1684.03,-262.27 2029.72,-243.52 2322,-220 2364.18,-216.61 2410.21,-212.23 2451.46,-208.07"/>
<polygon fill="midnightblue" stroke="midnightblue" points="1514.09,-267.39 1504.28,-271.39 1514.45,-274.38 1514.09,-267.39"/>
</g>
<!-- Node27 -->
<g id="node27" class="node">
<title>Node27</title>
<g id="a_node27"><a xlink:href="../../d8/d3c/ntv2encodehevcvifac_8h.html" target="_top" xlink:title="Declares the NTV2EncodeHEVCVifAc class.">
<polygon fill="white" stroke="black" points="2852.5,-173 2852.5,-214 3117.5,-214 3117.5,-173 2852.5,-173"/>
<text text-anchor="start" x="2860.5" y="-202" font-family="Helvetica,sans-Serif" font-size="10.00">/home/tcbuilder/buildAgent</text>
<text text-anchor="start" x="2860.5" y="-191" font-family="Helvetica,sans-Serif" font-size="10.00">/work/df8e8cce5bebfd58/libajantv2</text>
<text text-anchor="middle" x="2985" y="-180" font-family="Helvetica,sans-Serif" font-size="10.00">/demos/ntv2encodehevcvif/ntv2encodehevcvifac.h</text>
</a>
</g>
</g>
<!-- Node1&#45;&gt;Node27 -->
<g id="edge27" class="edge">
<title>Node1&#45;&gt;Node27</title>
<path fill="none" stroke="midnightblue" d="M1514.41,-273.3C1735.61,-267.2 2267.71,-250.42 2713,-220 2758.43,-216.9 2808.03,-212.53 2852.3,-208.29"/>
<polygon fill="midnightblue" stroke="midnightblue" points="1514.01,-269.81 1504.11,-273.59 1514.2,-276.81 1514.01,-269.81"/>
</g>
<!-- Node29 -->
<g id="node29" class="node">
<title>Node29</title>
<g id="a_node29"><a xlink:href="../../df/dc7/ntv2llburn_8h.html" target="_top" xlink:title="Header file for the low latency NTV2Burn demonstration class.">
<polygon fill="white" stroke="black" points="3271,-173 3271,-214 3459,-214 3459,-173 3271,-173"/>
<text text-anchor="start" x="3279" y="-202" font-family="Helvetica,sans-Serif" font-size="10.00">/home/tcbuilder/buildAgent</text>
<text text-anchor="start" x="3279" y="-191" font-family="Helvetica,sans-Serif" font-size="10.00">/work/df8e8cce5bebfd58/libajantv2</text>
<text text-anchor="middle" x="3365" y="-180" font-family="Helvetica,sans-Serif" font-size="10.00">/demos/ntv2llburn/ntv2llburn.h</text>
</a>
</g>
</g>
<!-- Node1&#45;&gt;Node29 -->
<g id="edge29" class="edge">
<title>Node1&#45;&gt;Node29</title>
<path fill="none" stroke="midnightblue" d="M1514.16,-275.27C1781.93,-272.82 2516.08,-262.43 3126,-220 3173.87,-216.67 3226.96,-211.19 3270.92,-206.15"/>
<polygon fill="midnightblue" stroke="midnightblue" points="1514.03,-271.77 1504.06,-275.36 1514.09,-278.77 1514.03,-271.77"/>
</g>
<!-- Node5 -->
<g id="node5" class="node">
<title>Node5</title>
<g id="a_node5"><a xlink:href="../../d5/d41/ancillarydata__timecode__atc_8h.html" target="_top" xlink:title="Declares the AJAAncillaryData_Timecode_ATC class.">
<polygon fill="white" stroke="black" points="527,-78.5 527,-130.5 715,-130.5 715,-78.5 527,-78.5"/>
<text text-anchor="start" x="535" y="-118.5" font-family="Helvetica,sans-Serif" font-size="10.00">/home/tcbuilder/buildAgent</text>
<text text-anchor="start" x="535" y="-107.5" font-family="Helvetica,sans-Serif" font-size="10.00">/work/df8e8cce5bebfd58/libajantv2</text>
<text text-anchor="start" x="535" y="-96.5" font-family="Helvetica,sans-Serif" font-size="10.00">/ajaanc/includes/ancillarydata</text>
<text text-anchor="middle" x="621" y="-85.5" font-family="Helvetica,sans-Serif" font-size="10.00">_timecode_atc.h</text>
</a>
</g>
</g>
<!-- Node4&#45;&gt;Node5 -->
<g id="edge4" class="edge">
<title>Node4&#45;&gt;Node5</title>
<path fill="none" stroke="midnightblue" d="M621,-157.19C621,-148.28 621,-138.9 621,-130.61"/>
<polygon fill="midnightblue" stroke="midnightblue" points="617.5,-157.34 621,-167.34 624.5,-157.34 617.5,-157.34"/>
</g>
<!-- Node9 -->
<g id="node9" class="node">
<title>Node9</title>
<g id="a_node9"><a xlink:href="../../d4/d69/ancillarydata__timecode__vitc_8h.html" target="_top" xlink:title="Declares the AJAAncillaryData_Timecode_VITC class.">
<polygon fill="white" stroke="black" points="95,-78.5 95,-130.5 283,-130.5 283,-78.5 95,-78.5"/>
<text text-anchor="start" x="103" y="-118.5" font-family="Helvetica,sans-Serif" font-size="10.00">/home/tcbuilder/buildAgent</text>
<text text-anchor="start" x="103" y="-107.5" font-family="Helvetica,sans-Serif" font-size="10.00">/work/df8e8cce5bebfd58/libajantv2</text>
<text text-anchor="start" x="103" y="-96.5" font-family="Helvetica,sans-Serif" font-size="10.00">/ajaanc/includes/ancillarydata</text>
<text text-anchor="middle" x="189" y="-85.5" font-family="Helvetica,sans-Serif" font-size="10.00">_timecode_vitc.h</text>
</a>
</g>
</g>
<!-- Node4&#45;&gt;Node9 -->
<g id="edge8" class="edge">
<title>Node4&#45;&gt;Node9</title>
<path fill="none" stroke="midnightblue" d="M516.84,-166.84C416.59,-147.02 388.56,-150.61 292,-131 289.11,-130.41 286.18,-129.8 283.23,-129.17"/>
<polygon fill="midnightblue" stroke="midnightblue" points="516.28,-170.3 526.77,-168.83 517.66,-163.43 516.28,-170.3"/>
</g>
<!-- Node11 -->
<g id="node11" class="node">
<title>Node11</title>
<g id="a_node11"><a xlink:href="../../d9/d0e/ancillarydata__timecode_8cpp.html" target="_top" xlink:title="Implements the AJAAncillaryData_Timecode class.">
<polygon fill="white" stroke="black" points="301.5,-84 301.5,-125 508.5,-125 508.5,-84 301.5,-84"/>
<text text-anchor="start" x="309.5" y="-113" font-family="Helvetica,sans-Serif" font-size="10.00">/home/tcbuilder/buildAgent</text>
<text text-anchor="start" x="309.5" y="-102" font-family="Helvetica,sans-Serif" font-size="10.00">/work/df8e8cce5bebfd58/libajantv2</text>
<text text-anchor="middle" x="405" y="-91" font-family="Helvetica,sans-Serif" font-size="10.00">/ajaanc/src/ancillarydata_timecode.cpp</text>
</a>
</g>
</g>
<!-- Node4&#45;&gt;Node11 -->
<g id="edge11" class="edge">
<title>Node4&#45;&gt;Node11</title>
<path fill="none" stroke="midnightblue" d="M549.24,-163.6C517.89,-150.97 481.92,-136.48 453.75,-125.13"/>
<polygon fill="midnightblue" stroke="midnightblue" points="548.23,-166.96 558.81,-167.45 550.85,-160.47 548.23,-166.96"/>
</g>
<!-- Node6 -->
<g id="node6" class="node">
<title>Node6</title>
<g id="a_node6"><a xlink:href="../../de/d7a/ancillarydata__timecode__atc_8cpp.html" target="_top" xlink:title="Implements the AJAAncillaryData_Timecode_ATC class.">
<polygon fill="white" stroke="black" points="455.5,-0.5 455.5,-41.5 682.5,-41.5 682.5,-0.5 455.5,-0.5"/>
<text text-anchor="start" x="463.5" y="-29.5" font-family="Helvetica,sans-Serif" font-size="10.00">/home/tcbuilder/buildAgent</text>
<text text-anchor="start" x="463.5" y="-18.5" font-family="Helvetica,sans-Serif" font-size="10.00">/work/df8e8cce5bebfd58/libajantv2</text>
<text text-anchor="middle" x="569" y="-7.5" font-family="Helvetica,sans-Serif" font-size="10.00">/ajaanc/src/ancillarydata_timecode_atc.cpp</text>
</a>
</g>
</g>
<!-- Node5&#45;&gt;Node6 -->
<g id="edge5" class="edge">
<title>Node5&#45;&gt;Node6</title>
<path fill="none" stroke="midnightblue" d="M599.38,-69.61C593.29,-60.08 586.88,-50.03 581.52,-41.63"/>
<polygon fill="midnightblue" stroke="midnightblue" points="596.5,-71.61 604.83,-78.16 602.4,-67.85 596.5,-71.61"/>
</g>
<!-- Node7 -->
<g id="node7" class="node">
<title>Node7</title>
<g id="a_node7"><a xlink:href="../../da/d7b/ancillarydatafactory_8cpp.html" target="_top" xlink:title="Implementation of the AJAAncillaryDataFactory class.">
<polygon fill="white" stroke="black" points="248.5,-0.5 248.5,-41.5 437.5,-41.5 437.5,-0.5 248.5,-0.5"/>
<text text-anchor="start" x="256.5" y="-29.5" font-family="Helvetica,sans-Serif" font-size="10.00">/home/tcbuilder/buildAgent</text>
<text text-anchor="start" x="256.5" y="-18.5" font-family="Helvetica,sans-Serif" font-size="10.00">/work/df8e8cce5bebfd58/libajantv2</text>
<text text-anchor="middle" x="343" y="-7.5" font-family="Helvetica,sans-Serif" font-size="10.00">/ajaanc/src/ancillarydatafactory.cpp</text>
</a>
</g>
</g>
<!-- Node5&#45;&gt;Node7 -->
<g id="edge6" class="edge">
<title>Node5&#45;&gt;Node7</title>
<path fill="none" stroke="midnightblue" d="M526.08,-75.67C487.76,-64.44 444.46,-51.75 409.6,-41.52"/>
<polygon fill="midnightblue" stroke="midnightblue" points="525.12,-79.04 535.7,-78.49 527.09,-72.32 525.12,-79.04"/>
</g>
<!-- Node5&#45;&gt;Node8 -->
<g id="edge7" class="edge">
<title>Node5&#45;&gt;Node8</title>
<path fill="none" stroke="midnightblue" d="M683.98,-74C706.99,-63.22 732.43,-51.31 753.15,-41.6"/>
<polygon fill="midnightblue" stroke="midnightblue" points="682.2,-70.97 674.63,-78.38 685.17,-77.31 682.2,-70.97"/>
</g>
<!-- Node9&#45;&gt;Node7 -->
<g id="edge10" class="edge">
<title>Node9&#45;&gt;Node7</title>
<path fill="none" stroke="midnightblue" d="M245.52,-73.59C265.59,-62.97 287.65,-51.29 305.71,-41.73"/>
<polygon fill="midnightblue" stroke="midnightblue" points="243.66,-70.61 236.46,-78.38 246.94,-76.8 243.66,-70.61"/>
</g>
<!-- Node10 -->
<g id="node10" class="node">
<title>Node10</title>
<g id="a_node10"><a xlink:href="../../d3/de1/ancillarydata__timecode__vitc_8cpp.html" target="_top" xlink:title="Implements the AJAAncillaryData_Timecode_VITC class.">
<polygon fill="white" stroke="black" points="0,-0.5 0,-41.5 230,-41.5 230,-0.5 0,-0.5"/>
<text text-anchor="start" x="8" y="-29.5" font-family="Helvetica,sans-Serif" font-size="10.00">/home/tcbuilder/buildAgent</text>
<text text-anchor="start" x="8" y="-18.5" font-family="Helvetica,sans-Serif" font-size="10.00">/work/df8e8cce5bebfd58/libajantv2</text>
<text text-anchor="middle" x="115" y="-7.5" font-family="Helvetica,sans-Serif" font-size="10.00">/ajaanc/src/ancillarydata_timecode_vitc.cpp</text>
</a>
</g>
</g>
<!-- Node9&#45;&gt;Node10 -->
<g id="edge9" class="edge">
<title>Node9&#45;&gt;Node10</title>
<path fill="none" stroke="midnightblue" d="M159.02,-70.48C150.13,-60.69 140.68,-50.28 132.82,-41.63"/>
<polygon fill="midnightblue" stroke="midnightblue" points="156.68,-73.11 165.99,-78.16 161.86,-68.4 156.68,-73.11"/>
</g>
<!-- Node13 -->
<g id="node13" class="node">
<title>Node13</title>
<g id="a_node13"><a xlink:href="../../d3/dbe/ntv2ccgrabber_2main_8cpp.html" target="_top" xlink:title="Demonstration application that grabs closed&#45;captioning data from frames captured from SDI input (usin...">
<polygon fill="white" stroke="black" points="771,-84 771,-125 959,-125 959,-84 771,-84"/>
<text text-anchor="start" x="779" y="-113" font-family="Helvetica,sans-Serif" font-size="10.00">/home/tcbuilder/buildAgent</text>
<text text-anchor="start" x="779" y="-102" font-family="Helvetica,sans-Serif" font-size="10.00">/work/df8e8cce5bebfd58/libajantv2</text>
<text text-anchor="middle" x="865" y="-91" font-family="Helvetica,sans-Serif" font-size="10.00">/demos/ntv2ccgrabber/main.cpp</text>
</a>
</g>
</g>
<!-- Node12&#45;&gt;Node13 -->
<g id="edge13" class="edge">
<title>Node12&#45;&gt;Node13</title>
<path fill="none" stroke="midnightblue" d="M1014.66,-169.01C982.28,-155.27 941.87,-138.12 911.21,-125.11"/>
<polygon fill="midnightblue" stroke="midnightblue" points="1013.42,-172.29 1023.99,-172.98 1016.16,-165.85 1013.42,-172.29"/>
</g>
<!-- Node14 -->
<g id="node14" class="node">
<title>Node14</title>
<g id="a_node14"><a xlink:href="../../d9/dca/ntv2ccgrabber_8cpp.html" target="_top" xlink:title="Implementation of NTV2CCGrabber class.">
<polygon fill="white" stroke="black" points="977,-84 977,-125 1195,-125 1195,-84 977,-84"/>
<text text-anchor="start" x="985" y="-113" font-family="Helvetica,sans-Serif" font-size="10.00">/home/tcbuilder/buildAgent</text>
<text text-anchor="start" x="985" y="-102" font-family="Helvetica,sans-Serif" font-size="10.00">/work/df8e8cce5bebfd58/libajantv2</text>
<text text-anchor="middle" x="1086" y="-91" font-family="Helvetica,sans-Serif" font-size="10.00">/demos/ntv2ccgrabber/ntv2ccgrabber.cpp</text>
</a>
</g>
</g>
<!-- Node12&#45;&gt;Node14 -->
<g id="edge14" class="edge">
<title>Node12&#45;&gt;Node14</title>
<path fill="none" stroke="midnightblue" d="M1075.46,-162.81C1077.75,-150.38 1080.34,-136.27 1082.38,-125.16"/>
<polygon fill="midnightblue" stroke="midnightblue" points="1072,-162.29 1073.63,-172.76 1078.88,-163.56 1072,-162.29"/>
</g>
<!-- Node17 -->
<g id="node17" class="node">
<title>Node17</title>
<g id="a_node17"><a xlink:href="../../d6/def/ntv2encodehevc_2main_8cpp.html" target="_top" xlink:title="Demonstration application to capture frames from SDI input.">
<polygon fill="white" stroke="black" points="1213,-84 1213,-125 1401,-125 1401,-84 1213,-84"/>
<text text-anchor="start" x="1221" y="-113" font-family="Helvetica,sans-Serif" font-size="10.00">/home/tcbuilder/buildAgent</text>
<text text-anchor="start" x="1221" y="-102" font-family="Helvetica,sans-Serif" font-size="10.00">/work/df8e8cce5bebfd58/libajantv2</text>
<text text-anchor="middle" x="1307" y="-91" font-family="Helvetica,sans-Serif" font-size="10.00">/demos/ntv2encodehevc/main.cpp</text>
</a>
</g>
</g>
<!-- Node16&#45;&gt;Node17 -->
<g id="edge17" class="edge">
<title>Node16&#45;&gt;Node17</title>
<path fill="none" stroke="midnightblue" d="M1468.05,-169.19C1433.23,-155.42 1389.64,-138.18 1356.59,-125.11"/>
<polygon fill="midnightblue" stroke="midnightblue" points="1467.04,-172.55 1477.63,-172.98 1469.62,-166.04 1467.04,-172.55"/>
</g>
<!-- Node18 -->
<g id="node18" class="node">
<title>Node18</title>
<g id="a_node18"><a xlink:href="../../da/d2f/ntv2encodehevc_8cpp.html" target="_top" xlink:title="Implementation of NTV2EncodeHEVC class.">
<polygon fill="white" stroke="black" points="1419.5,-84 1419.5,-125 1658.5,-125 1658.5,-84 1419.5,-84"/>
<text text-anchor="start" x="1427.5" y="-113" font-family="Helvetica,sans-Serif" font-size="10.00">/home/tcbuilder/buildAgent</text>
<text text-anchor="start" x="1427.5" y="-102" font-family="Helvetica,sans-Serif" font-size="10.00">/work/df8e8cce5bebfd58/libajantv2</text>
<text text-anchor="middle" x="1539" y="-91" font-family="Helvetica,sans-Serif" font-size="10.00">/demos/ntv2encodehevc/ntv2encodehevc.cpp</text>
</a>
</g>
</g>
<!-- Node16&#45;&gt;Node18 -->
<g id="edge18" class="edge">
<title>Node16&#45;&gt;Node18</title>
<path fill="none" stroke="midnightblue" d="M1531.09,-162.81C1532.81,-150.38 1534.76,-136.27 1536.29,-125.16"/>
<polygon fill="midnightblue" stroke="midnightblue" points="1527.62,-162.37 1529.72,-172.76 1534.56,-163.33 1527.62,-162.37"/>
</g>
<!-- Node20 -->
<g id="node20" class="node">
<title>Node20</title>
<g id="a_node20"><a xlink:href="../../d6/d30/ntv2encodehevcfile_2main_8cpp.html" target="_top" xlink:title="Demonstration application to capture frames from SDI input.">
<polygon fill="white" stroke="black" points="1676.5,-84 1676.5,-125 1875.5,-125 1875.5,-84 1676.5,-84"/>
<text text-anchor="start" x="1684.5" y="-113" font-family="Helvetica,sans-Serif" font-size="10.00">/home/tcbuilder/buildAgent</text>
<text text-anchor="start" x="1684.5" y="-102" font-family="Helvetica,sans-Serif" font-size="10.00">/work/df8e8cce5bebfd58/libajantv2</text>
<text text-anchor="middle" x="1776" y="-91" font-family="Helvetica,sans-Serif" font-size="10.00">/demos/ntv2encodehevcfile/main.cpp</text>
</a>
</g>
</g>
<!-- Node19&#45;&gt;Node20 -->
<g id="edge20" class="edge">
<title>Node19&#45;&gt;Node20</title>
<path fill="none" stroke="midnightblue" d="M1783.91,-162.81C1782.19,-150.38 1780.24,-136.27 1778.71,-125.16"/>
<polygon fill="midnightblue" stroke="midnightblue" points="1780.44,-163.33 1785.28,-172.76 1787.38,-162.37 1780.44,-163.33"/>
</g>
<!-- Node21 -->
<g id="node21" class="node">
<title>Node21</title>
<g id="a_node21"><a xlink:href="../../dd/d97/ntv2encodehevcfile_8cpp.html" target="_top" xlink:title="Implementation of NTV2EncodeHEVCFile class.">
<polygon fill="white" stroke="black" points="1893.5,-84 1893.5,-125 2162.5,-125 2162.5,-84 1893.5,-84"/>
<text text-anchor="start" x="1901.5" y="-113" font-family="Helvetica,sans-Serif" font-size="10.00">/home/tcbuilder/buildAgent</text>
<text text-anchor="start" x="1901.5" y="-102" font-family="Helvetica,sans-Serif" font-size="10.00">/work/df8e8cce5bebfd58/libajantv2</text>
<text text-anchor="middle" x="2028" y="-91" font-family="Helvetica,sans-Serif" font-size="10.00">/demos/ntv2encodehevcfile/ntv2encodehevcfile.cpp</text>
</a>
</g>
</g>
<!-- Node19&#45;&gt;Node21 -->
<g id="edge21" class="edge">
<title>Node19&#45;&gt;Node21</title>
<path fill="none" stroke="midnightblue" d="M1851.33,-169.54C1889.48,-155.71 1937.54,-138.29 1973.9,-125.11"/>
<polygon fill="midnightblue" stroke="midnightblue" points="1850.07,-166.28 1841.86,-172.98 1852.45,-172.86 1850.07,-166.28"/>
</g>
<!-- Node23 -->
<g id="node23" class="node">
<title>Node23</title>
<g id="a_node23"><a xlink:href="../../da/d67/ntv2encodehevcfileac_8cpp.html" target="_top" xlink:title="Implementation of NTV2EncodeHEVCFileAc class.">
<polygon fill="white" stroke="black" points="2180.5,-84 2180.5,-125 2461.5,-125 2461.5,-84 2180.5,-84"/>
<text text-anchor="start" x="2188.5" y="-113" font-family="Helvetica,sans-Serif" font-size="10.00">/home/tcbuilder/buildAgent</text>
<text text-anchor="start" x="2188.5" y="-102" font-family="Helvetica,sans-Serif" font-size="10.00">/work/df8e8cce5bebfd58/libajantv2</text>
<text text-anchor="middle" x="2321" y="-91" font-family="Helvetica,sans-Serif" font-size="10.00">/demos/ntv2encodehevcfile/ntv2encodehevcfileac.cpp</text>
</a>
</g>
</g>
<!-- Node22&#45;&gt;Node23 -->
<g id="edge23" class="edge">
<title>Node22&#45;&gt;Node23</title>
<path fill="none" stroke="midnightblue" d="M2219.63,-167.61C2241.56,-154.17 2268.26,-137.81 2288.75,-125.26"/>
<polygon fill="midnightblue" stroke="midnightblue" points="2217.57,-164.77 2210.87,-172.98 2221.22,-170.74 2217.57,-164.77"/>
</g>
<!-- Node25 -->
<g id="node25" class="node">
<title>Node25</title>
<g id="a_node25"><a xlink:href="../../d4/dcd/ntv2encodehevcvif_2main_8cpp.html" target="_top" xlink:title="Demonstration application to capture frames from SDI input.">
<polygon fill="white" stroke="black" points="2479.5,-84 2479.5,-125 2676.5,-125 2676.5,-84 2479.5,-84"/>
<text text-anchor="start" x="2487.5" y="-113" font-family="Helvetica,sans-Serif" font-size="10.00">/home/tcbuilder/buildAgent</text>
<text text-anchor="start" x="2487.5" y="-102" font-family="Helvetica,sans-Serif" font-size="10.00">/work/df8e8cce5bebfd58/libajantv2</text>
<text text-anchor="middle" x="2578" y="-91" font-family="Helvetica,sans-Serif" font-size="10.00">/demos/ntv2encodehevcvif/main.cpp</text>
</a>
</g>
</g>
<!-- Node24&#45;&gt;Node25 -->
<g id="edge25" class="edge">
<title>Node24&#45;&gt;Node25</title>
<path fill="none" stroke="midnightblue" d="M2578,-162.44C2578,-150.1 2578,-136.16 2578,-125.16"/>
<polygon fill="midnightblue" stroke="midnightblue" points="2574.5,-162.76 2578,-172.76 2581.5,-162.76 2574.5,-162.76"/>
</g>
<!-- Node26 -->
<g id="node26" class="node">
<title>Node26</title>
<g id="a_node26"><a xlink:href="../../df/d0e/ntv2encodehevcvif_8cpp.html" target="_top" xlink:title="Implementation of NTV2EncodeHEVCVif class.">
<polygon fill="white" stroke="black" points="2695,-84 2695,-125 2959,-125 2959,-84 2695,-84"/>
<text text-anchor="start" x="2703" y="-113" font-family="Helvetica,sans-Serif" font-size="10.00">/home/tcbuilder/buildAgent</text>
<text text-anchor="start" x="2703" y="-102" font-family="Helvetica,sans-Serif" font-size="10.00">/work/df8e8cce5bebfd58/libajantv2</text>
<text text-anchor="middle" x="2827" y="-91" font-family="Helvetica,sans-Serif" font-size="10.00">/demos/ntv2encodehevcvif/ntv2encodehevcvif.cpp</text>
</a>
</g>
</g>
<!-- Node24&#45;&gt;Node26 -->
<g id="edge26" class="edge">
<title>Node24&#45;&gt;Node26</title>
<path fill="none" stroke="midnightblue" d="M2643.46,-169.63C2683.07,-155.79 2733.07,-138.32 2770.88,-125.11"/>
<polygon fill="midnightblue" stroke="midnightblue" points="2642.17,-166.37 2633.88,-172.98 2644.48,-172.98 2642.17,-166.37"/>
</g>
<!-- Node28 -->
<g id="node28" class="node">
<title>Node28</title>
<g id="a_node28"><a xlink:href="../../d4/d1e/ntv2encodehevcvifac_8cpp.html" target="_top" xlink:title="Implementation of NTV2EncodeHEVCVifAc class.">
<polygon fill="white" stroke="black" points="2977,-84 2977,-125 3253,-125 3253,-84 2977,-84"/>
<text text-anchor="start" x="2985" y="-113" font-family="Helvetica,sans-Serif" font-size="10.00">/home/tcbuilder/buildAgent</text>
<text text-anchor="start" x="2985" y="-102" font-family="Helvetica,sans-Serif" font-size="10.00">/work/df8e8cce5bebfd58/libajantv2</text>
<text text-anchor="middle" x="3115" y="-91" font-family="Helvetica,sans-Serif" font-size="10.00">/demos/ntv2encodehevcvif/ntv2encodehevcvifac.cpp</text>
</a>
</g>
</g>
<!-- Node27&#45;&gt;Node28 -->
<g id="edge28" class="edge">
<title>Node27&#45;&gt;Node28</title>
<path fill="none" stroke="midnightblue" d="M3022.74,-167.25C3042.71,-153.88 3066.88,-137.7 3085.47,-125.26"/>
<polygon fill="midnightblue" stroke="midnightblue" points="3020.54,-164.5 3014.17,-172.98 3024.43,-170.32 3020.54,-164.5"/>
</g>
<!-- Node30 -->
<g id="node30" class="node">
<title>Node30</title>
<g id="a_node30"><a xlink:href="../../de/ddb/ntv2llburn_2main_8cpp.html" target="_top" xlink:title="Demonstration application that &quot;burns&quot; timecode into frames captured from SDI input,...">
<polygon fill="white" stroke="black" points="3271,-84 3271,-125 3459,-125 3459,-84 3271,-84"/>
<text text-anchor="start" x="3279" y="-113" font-family="Helvetica,sans-Serif" font-size="10.00">/home/tcbuilder/buildAgent</text>
<text text-anchor="start" x="3279" y="-102" font-family="Helvetica,sans-Serif" font-size="10.00">/work/df8e8cce5bebfd58/libajantv2</text>
<text text-anchor="middle" x="3365" y="-91" font-family="Helvetica,sans-Serif" font-size="10.00">/demos/ntv2llburn/main.cpp</text>
</a>
</g>
</g>
<!-- Node29&#45;&gt;Node30 -->
<g id="edge30" class="edge">
<title>Node29&#45;&gt;Node30</title>
<path fill="none" stroke="midnightblue" d="M3365,-162.44C3365,-150.1 3365,-136.16 3365,-125.16"/>
<polygon fill="midnightblue" stroke="midnightblue" points="3361.5,-162.76 3365,-172.76 3368.5,-162.76 3361.5,-162.76"/>
</g>
<!-- Node31 -->
<g id="node31" class="node">
<title>Node31</title>
<g id="a_node31"><a xlink:href="../../da/d1a/ntv2llburn_8cpp.html" target="_top" xlink:title="Implementation of NTV2LLBurn demonstration class.">
<polygon fill="white" stroke="black" points="3477,-84 3477,-125 3665,-125 3665,-84 3477,-84"/>
<text text-anchor="start" x="3485" y="-113" font-family="Helvetica,sans-Serif" font-size="10.00">/home/tcbuilder/buildAgent</text>
<text text-anchor="start" x="3485" y="-102" font-family="Helvetica,sans-Serif" font-size="10.00">/work/df8e8cce5bebfd58/libajantv2</text>
<text text-anchor="middle" x="3571" y="-91" font-family="Helvetica,sans-Serif" font-size="10.00">/demos/ntv2llburn/ntv2llburn.cpp</text>
</a>
</g>
</g>
<!-- Node29&#45;&gt;Node31 -->
<g id="edge31" class="edge">
<title>Node29&#45;&gt;Node31</title>
<path fill="none" stroke="midnightblue" d="M3420.61,-169.01C3453.15,-155.27 3493.75,-138.12 3524.57,-125.11"/>
<polygon fill="midnightblue" stroke="midnightblue" points="3419.08,-165.86 3411.23,-172.98 3421.8,-172.31 3419.08,-165.86"/>
</g>
</g>
</svg>
