<?xml version="1.0" encoding="UTF-8" standalone="no"?>
<!DOCTYPE svg PUBLIC "-//W3C//DTD SVG 1.1//EN"
 "http://www.w3.org/Graphics/SVG/1.1/DTD/svg11.dtd">
<!-- Generated by graphviz version 2.43.0 (0)
 -->
<!-- Title: /home/tcbuilder/buildAgent/work/df8e8cce5bebfd58/libajantv2/ajabase/system/memory.h Pages: 1 -->
<svg width="1466pt" height="128pt"
 viewBox="0.00 0.00 1466.00 128.00" xmlns="http://www.w3.org/2000/svg" xmlns:xlink="http://www.w3.org/1999/xlink">
<g id="graph0" class="graph" transform="scale(1 1) rotate(0) translate(4 124)">
<title>/home/tcbuilder/buildAgent/work/df8e8cce5bebfd58/libajantv2/ajabase/system/memory.h</title>
<polygon fill="white" stroke="transparent" points="-4,4 -4,-124 1462,-124 1462,4 -4,4"/>
<!-- Node1 -->
<g id="node1" class="node">
<title>Node1</title>
<g id="a_node1"><a xlink:title="Declares the AJAMemory class.">
<polygon fill="#bfbfbf" stroke="black" points="633,-78.5 633,-119.5 821,-119.5 821,-78.5 633,-78.5"/>
<text text-anchor="start" x="641" y="-107.5" font-family="Helvetica,sans-Serif" font-size="10.00">/home/tcbuilder/buildAgent</text>
<text text-anchor="start" x="641" y="-96.5" font-family="Helvetica,sans-Serif" font-size="10.00">/work/df8e8cce5bebfd58/libajantv2</text>
<text text-anchor="middle" x="727" y="-85.5" font-family="Helvetica,sans-Serif" font-size="10.00">/ajabase/system/memory.h</text>
</a>
</g>
</g>
<!-- Node2 -->
<g id="node2" class="node">
<title>Node2</title>
<g id="a_node2"><a xlink:href="../../dd/d85/buffer_8cpp.html" target="_top" xlink:title="Implementation of AJABuffer class.">
<polygon fill="white" stroke="black" points="0,-0.5 0,-41.5 188,-41.5 188,-0.5 0,-0.5"/>
<text text-anchor="start" x="8" y="-29.5" font-family="Helvetica,sans-Serif" font-size="10.00">/home/tcbuilder/buildAgent</text>
<text text-anchor="start" x="8" y="-18.5" font-family="Helvetica,sans-Serif" font-size="10.00">/work/df8e8cce5bebfd58/libajantv2</text>
<text text-anchor="middle" x="94" y="-7.5" font-family="Helvetica,sans-Serif" font-size="10.00">/ajabase/common/buffer.cpp</text>
</a>
</g>
</g>
<!-- Node1&#45;&gt;Node2 -->
<g id="edge1" class="edge">
<title>Node1&#45;&gt;Node2</title>
<path fill="none" stroke="midnightblue" d="M622.7,-89.66C515.57,-80.47 344.16,-64.02 197,-42 194.12,-41.57 191.19,-41.11 188.24,-40.64"/>
<polygon fill="midnightblue" stroke="midnightblue" points="622.6,-93.17 632.86,-90.53 623.2,-86.19 622.6,-93.17"/>
</g>
<!-- Node3 -->
<g id="node3" class="node">
<title>Node3</title>
<g id="a_node3"><a xlink:href="../../d1/d00/debug_8cpp.html" target="_top" xlink:title="Implements the AJADebug class.">
<polygon fill="white" stroke="black" points="206,-0.5 206,-41.5 394,-41.5 394,-0.5 206,-0.5"/>
<text text-anchor="start" x="214" y="-29.5" font-family="Helvetica,sans-Serif" font-size="10.00">/home/tcbuilder/buildAgent</text>
<text text-anchor="start" x="214" y="-18.5" font-family="Helvetica,sans-Serif" font-size="10.00">/work/df8e8cce5bebfd58/libajantv2</text>
<text text-anchor="middle" x="300" y="-7.5" font-family="Helvetica,sans-Serif" font-size="10.00">/ajabase/system/debug.cpp</text>
</a>
</g>
</g>
<!-- Node1&#45;&gt;Node3 -->
<g id="edge2" class="edge">
<title>Node1&#45;&gt;Node3</title>
<path fill="none" stroke="midnightblue" d="M622.95,-80.58C559.36,-69.79 476.41,-55.47 403,-42 400.04,-41.46 397.04,-40.9 394.01,-40.34"/>
<polygon fill="midnightblue" stroke="midnightblue" points="622.54,-84.06 632.98,-82.28 623.71,-77.16 622.54,-84.06"/>
</g>
<!-- Node4 -->
<g id="node4" class="node">
<title>Node4</title>
<g id="a_node4"><a xlink:href="../../d8/d71/memory_8cpp.html" target="_top" xlink:title="Implements the AJAMemory class.">
<polygon fill="white" stroke="black" points="412,-0.5 412,-41.5 600,-41.5 600,-0.5 412,-0.5"/>
<text text-anchor="start" x="420" y="-29.5" font-family="Helvetica,sans-Serif" font-size="10.00">/home/tcbuilder/buildAgent</text>
<text text-anchor="start" x="420" y="-18.5" font-family="Helvetica,sans-Serif" font-size="10.00">/work/df8e8cce5bebfd58/libajantv2</text>
<text text-anchor="middle" x="506" y="-7.5" font-family="Helvetica,sans-Serif" font-size="10.00">/ajabase/system/memory.cpp</text>
</a>
</g>
</g>
<!-- Node1&#45;&gt;Node4 -->
<g id="edge3" class="edge">
<title>Node1&#45;&gt;Node4</title>
<path fill="none" stroke="midnightblue" d="M660.6,-75.17C629.4,-64.44 592.59,-51.78 562.72,-41.51"/>
<polygon fill="midnightblue" stroke="midnightblue" points="659.49,-78.49 670.09,-78.43 661.77,-71.87 659.49,-78.49"/>
</g>
<!-- Node5 -->
<g id="node5" class="node">
<title>Node5</title>
<g id="a_node5"><a xlink:href="../../d9/dca/ntv2ccgrabber_8cpp.html" target="_top" xlink:title="Implementation of NTV2CCGrabber class.">
<polygon fill="white" stroke="black" points="618,-0.5 618,-41.5 836,-41.5 836,-0.5 618,-0.5"/>
<text text-anchor="start" x="626" y="-29.5" font-family="Helvetica,sans-Serif" font-size="10.00">/home/tcbuilder/buildAgent</text>
<text text-anchor="start" x="626" y="-18.5" font-family="Helvetica,sans-Serif" font-size="10.00">/work/df8e8cce5bebfd58/libajantv2</text>
<text text-anchor="middle" x="727" y="-7.5" font-family="Helvetica,sans-Serif" font-size="10.00">/demos/ntv2ccgrabber/ntv2ccgrabber.cpp</text>
</a>
</g>
</g>
<!-- Node1&#45;&gt;Node5 -->
<g id="edge4" class="edge">
<title>Node1&#45;&gt;Node5</title>
<path fill="none" stroke="midnightblue" d="M727,-68.3C727,-59.3 727,-49.65 727,-41.51"/>
<polygon fill="midnightblue" stroke="midnightblue" points="723.5,-68.43 727,-78.43 730.5,-68.43 723.5,-68.43"/>
</g>
<!-- Node6 -->
<g id="node6" class="node">
<title>Node6</title>
<g id="a_node6"><a xlink:href="../../db/d4c/ntv2publicinterface_8cpp.html" target="_top" xlink:title="Implementations of methods declared in &#39;ntv2publicinterface.h&#39;.">
<polygon fill="white" stroke="black" points="854.5,-0.5 854.5,-41.5 1045.5,-41.5 1045.5,-0.5 854.5,-0.5"/>
<text text-anchor="start" x="862.5" y="-29.5" font-family="Helvetica,sans-Serif" font-size="10.00">/home/tcbuilder/buildAgent</text>
<text text-anchor="start" x="862.5" y="-18.5" font-family="Helvetica,sans-Serif" font-size="10.00">/work/df8e8cce5bebfd58/libajantv2</text>
<text text-anchor="middle" x="950" y="-7.5" font-family="Helvetica,sans-Serif" font-size="10.00">/ajantv2/src/ntv2publicinterface.cpp</text>
</a>
</g>
</g>
<!-- Node1&#45;&gt;Node6 -->
<g id="edge5" class="edge">
<title>Node1&#45;&gt;Node6</title>
<path fill="none" stroke="midnightblue" d="M794,-75.17C825.48,-64.44 862.62,-51.78 892.77,-41.51"/>
<polygon fill="midnightblue" stroke="midnightblue" points="792.76,-71.89 784.43,-78.43 795.02,-78.52 792.76,-71.89"/>
</g>
<!-- Node7 -->
<g id="node7" class="node">
<title>Node7</title>
<g id="a_node7"><a xlink:href="../../de/dc8/ntv2signalrouter_8cpp.html" target="_top" xlink:title="CNTV2SignalRouter implementation.">
<polygon fill="white" stroke="black" points="1064,-0.5 1064,-41.5 1252,-41.5 1252,-0.5 1064,-0.5"/>
<text text-anchor="start" x="1072" y="-29.5" font-family="Helvetica,sans-Serif" font-size="10.00">/home/tcbuilder/buildAgent</text>
<text text-anchor="start" x="1072" y="-18.5" font-family="Helvetica,sans-Serif" font-size="10.00">/work/df8e8cce5bebfd58/libajantv2</text>
<text text-anchor="middle" x="1158" y="-7.5" font-family="Helvetica,sans-Serif" font-size="10.00">/ajantv2/src/ntv2signalrouter.cpp</text>
</a>
</g>
</g>
<!-- Node1&#45;&gt;Node7 -->
<g id="edge6" class="edge">
<title>Node1&#45;&gt;Node7</title>
<path fill="none" stroke="midnightblue" d="M831.3,-80.81C895.81,-70.03 980.29,-55.63 1055,-42 1057.96,-41.46 1060.96,-40.91 1063.99,-40.35"/>
<polygon fill="midnightblue" stroke="midnightblue" points="830.41,-77.41 821.12,-82.51 831.56,-84.32 830.41,-77.41"/>
</g>
<!-- Node8 -->
<g id="node8" class="node">
<title>Node8</title>
<g id="a_node8"><a xlink:href="../../dc/d47/ntv2verticalfilter_8cpp.html" target="_top" xlink:title="Implementations of the VerticalFilterLine and FieldInterpolateLine functions.">
<polygon fill="white" stroke="black" points="1270,-0.5 1270,-41.5 1458,-41.5 1458,-0.5 1270,-0.5"/>
<text text-anchor="start" x="1278" y="-29.5" font-family="Helvetica,sans-Serif" font-size="10.00">/home/tcbuilder/buildAgent</text>
<text text-anchor="start" x="1278" y="-18.5" font-family="Helvetica,sans-Serif" font-size="10.00">/work/df8e8cce5bebfd58/libajantv2</text>
<text text-anchor="middle" x="1364" y="-7.5" font-family="Helvetica,sans-Serif" font-size="10.00">/ajantv2/src/ntv2verticalfilter.cpp</text>
</a>
</g>
</g>
<!-- Node1&#45;&gt;Node8 -->
<g id="edge7" class="edge">
<title>Node1&#45;&gt;Node8</title>
<path fill="none" stroke="midnightblue" d="M831.6,-89.75C939.51,-80.6 1112.51,-64.16 1261,-42 1263.88,-41.57 1266.81,-41.12 1269.76,-40.64"/>
<polygon fill="midnightblue" stroke="midnightblue" points="831.04,-86.28 821.36,-90.61 831.62,-93.26 831.04,-86.28"/>
</g>
</g>
</svg>
