<?xml version="1.0" encoding="UTF-8" standalone="no"?>
<!DOCTYPE svg PUBLIC "-//W3C//DTD SVG 1.1//EN"
 "http://www.w3.org/Graphics/SVG/1.1/DTD/svg11.dtd">
<!-- Generated by graphviz version 2.43.0 (0)
 -->
<!-- Title: /home/tcbuilder/buildAgent/work/df8e8cce5bebfd58/libajantv2/ajabase/common/timecode.cpp Pages: 1 -->
<svg width="665pt" height="274pt"
 viewBox="0.00 0.00 665.49 274.00" xmlns="http://www.w3.org/2000/svg" xmlns:xlink="http://www.w3.org/1999/xlink">
<g id="graph0" class="graph" transform="scale(1 1) rotate(0) translate(4 270)">
<title>/home/tcbuilder/buildAgent/work/df8e8cce5bebfd58/libajantv2/ajabase/common/timecode.cpp</title>
<polygon fill="white" stroke="transparent" points="-4,4 -4,-270 661.49,-270 661.49,4 -4,4"/>
<!-- Node1 -->
<g id="node1" class="node">
<title>Node1</title>
<g id="a_node1"><a xlink:title="Implements the AJATimeCode class.">
<polygon fill="#bfbfbf" stroke="black" points="155.49,-224.5 155.49,-265.5 343.49,-265.5 343.49,-224.5 155.49,-224.5"/>
<text text-anchor="start" x="163.49" y="-253.5" font-family="Helvetica,sans-Serif" font-size="10.00">/home/tcbuilder/buildAgent</text>
<text text-anchor="start" x="163.49" y="-242.5" font-family="Helvetica,sans-Serif" font-size="10.00">/work/df8e8cce5bebfd58/libajantv2</text>
<text text-anchor="middle" x="249.49" y="-231.5" font-family="Helvetica,sans-Serif" font-size="10.00">/ajabase/common/timecode.cpp</text>
</a>
</g>
</g>
<!-- Node2 -->
<g id="node2" class="node">
<title>Node2</title>
<g id="a_node2"><a xlink:href="../../dc/d54/common_8h.html" target="_top" xlink:title="Private include file for all ajabase sources.">
<polygon fill="white" stroke="black" points="12.99,-56.5 12.99,-75.5 167.99,-75.5 167.99,-56.5 12.99,-56.5"/>
<text text-anchor="middle" x="90.49" y="-63.5" font-family="Helvetica,sans-Serif" font-size="10.00">ajabase/common/common.h</text>
</a>
</g>
</g>
<!-- Node1&#45;&gt;Node2 -->
<g id="edge1" class="edge">
<title>Node1&#45;&gt;Node2</title>
<path fill="none" stroke="midnightblue" d="M223.16,-224.26C210.3,-214.07 194.94,-201.05 182.49,-188 149.99,-153.97 118.12,-108.63 101.78,-84.26"/>
<polygon fill="midnightblue" stroke="midnightblue" points="104.57,-82.13 96.13,-75.73 98.74,-86 104.57,-82.13"/>
</g>
<!-- Node5 -->
<g id="node5" class="node">
<title>Node5</title>
<g id="a_node5"><a xlink:title=" ">
<polygon fill="white" stroke="#bfbfbf" points="89.49,-0.5 89.49,-19.5 133.49,-19.5 133.49,-0.5 89.49,-0.5"/>
<text text-anchor="middle" x="111.49" y="-7.5" font-family="Helvetica,sans-Serif" font-size="10.00">string</text>
</a>
</g>
</g>
<!-- Node1&#45;&gt;Node5 -->
<g id="edge18" class="edge">
<title>Node1&#45;&gt;Node5</title>
<path fill="none" stroke="midnightblue" d="M194,-224.48C134.36,-200.12 42.85,-152.15 3.49,-76 -0.6,-68.1 -1.44,-63.4 3.49,-56 8.02,-49.2 49.48,-33.19 79.68,-22.22"/>
<polygon fill="midnightblue" stroke="midnightblue" points="81.2,-25.39 89.42,-18.71 78.83,-18.81 81.2,-25.39"/>
</g>
<!-- Node6 -->
<g id="node6" class="node">
<title>Node6</title>
<g id="a_node6"><a xlink:title=" ">
<polygon fill="white" stroke="#bfbfbf" points="172.99,-0.5 172.99,-19.5 219.99,-19.5 219.99,-0.5 172.99,-0.5"/>
<text text-anchor="middle" x="196.49" y="-7.5" font-family="Helvetica,sans-Serif" font-size="10.00">vector</text>
</a>
</g>
</g>
<!-- Node1&#45;&gt;Node6 -->
<g id="edge19" class="edge">
<title>Node1&#45;&gt;Node6</title>
<path fill="none" stroke="midnightblue" d="M234.6,-224.32C227.6,-214.04 219.86,-200.93 215.49,-188 196.79,-132.74 195.33,-62.75 195.86,-29.79"/>
<polygon fill="midnightblue" stroke="midnightblue" points="199.36,-29.84 196.1,-19.76 192.36,-29.67 199.36,-29.84"/>
</g>
<!-- Node7 -->
<g id="node7" class="node">
<title>Node7</title>
<g id="a_node7"><a xlink:href="../../d6/d23/timecode_8h.html" target="_top" xlink:title="Declares the AJATimeCode class.">
<polygon fill="white" stroke="black" points="224.49,-168.5 224.49,-187.5 382.49,-187.5 382.49,-168.5 224.49,-168.5"/>
<text text-anchor="middle" x="303.49" y="-175.5" font-family="Helvetica,sans-Serif" font-size="10.00">ajabase/common/timecode.h</text>
</a>
</g>
</g>
<!-- Node1&#45;&gt;Node7 -->
<g id="edge6" class="edge">
<title>Node1&#45;&gt;Node7</title>
<path fill="none" stroke="midnightblue" d="M265.69,-224.5C273.41,-215.2 282.54,-204.21 289.9,-195.36"/>
<polygon fill="midnightblue" stroke="midnightblue" points="292.6,-197.58 296.3,-187.65 287.22,-193.11 292.6,-197.58"/>
</g>
<!-- Node14 -->
<g id="node14" class="node">
<title>Node14</title>
<g id="a_node14"><a xlink:title=" ">
<polygon fill="white" stroke="#bfbfbf" points="400.49,-168.5 400.49,-187.5 456.49,-187.5 456.49,-168.5 400.49,-168.5"/>
<text text-anchor="middle" x="428.49" y="-175.5" font-family="Helvetica,sans-Serif" font-size="10.00">iomanip</text>
</a>
</g>
</g>
<!-- Node1&#45;&gt;Node14 -->
<g id="edge16" class="edge">
<title>Node1&#45;&gt;Node14</title>
<path fill="none" stroke="midnightblue" d="M303.19,-224.5C333.01,-213.67 369.18,-200.54 394.97,-191.17"/>
<polygon fill="midnightblue" stroke="midnightblue" points="396.45,-194.36 404.66,-187.65 394.06,-187.78 396.45,-194.36"/>
</g>
<!-- Node15 -->
<g id="node15" class="node">
<title>Node15</title>
<g id="a_node15"><a xlink:title=" ">
<polygon fill="white" stroke="#bfbfbf" points="474.49,-168.5 474.49,-187.5 530.49,-187.5 530.49,-168.5 474.49,-168.5"/>
<text text-anchor="middle" x="502.49" y="-175.5" font-family="Helvetica,sans-Serif" font-size="10.00">sstream</text>
</a>
</g>
</g>
<!-- Node1&#45;&gt;Node15 -->
<g id="edge17" class="edge">
<title>Node1&#45;&gt;Node15</title>
<path fill="none" stroke="midnightblue" d="M325.39,-224.5C371.29,-212.71 427.83,-198.18 464.49,-188.76"/>
<polygon fill="midnightblue" stroke="midnightblue" points="465.47,-192.12 474.28,-186.25 463.73,-185.34 465.47,-192.12"/>
</g>
<!-- Node3 -->
<g id="node3" class="node">
<title>Node3</title>
<g id="a_node3"><a xlink:href="../../db/db5/export_8h.html" target="_top" xlink:title="Declares system&#45;dependent import/export macros and libraries.">
<polygon fill="white" stroke="black" points="244.49,-0.5 244.49,-19.5 388.49,-19.5 388.49,-0.5 244.49,-0.5"/>
<text text-anchor="middle" x="316.49" y="-7.5" font-family="Helvetica,sans-Serif" font-size="10.00">ajabase/common/export.h</text>
</a>
</g>
</g>
<!-- Node2&#45;&gt;Node3 -->
<g id="edge2" class="edge">
<title>Node2&#45;&gt;Node3</title>
<path fill="none" stroke="midnightblue" d="M126.3,-56.44C165.47,-47.08 228.36,-32.06 271,-21.87"/>
<polygon fill="midnightblue" stroke="midnightblue" points="271.93,-25.24 280.84,-19.52 270.3,-18.44 271.93,-25.24"/>
</g>
<!-- Node4 -->
<g id="node4" class="node">
<title>Node4</title>
<g id="a_node4"><a xlink:title=" ">
<polygon fill="white" stroke="#bfbfbf" points="39.49,-0.5 39.49,-19.5 71.49,-19.5 71.49,-0.5 39.49,-0.5"/>
<text text-anchor="middle" x="55.49" y="-7.5" font-family="Helvetica,sans-Serif" font-size="10.00">set</text>
</a>
</g>
</g>
<!-- Node2&#45;&gt;Node4 -->
<g id="edge3" class="edge">
<title>Node2&#45;&gt;Node4</title>
<path fill="none" stroke="midnightblue" d="M84.71,-56.08C79.81,-48.53 72.66,-37.49 66.65,-28.23"/>
<polygon fill="midnightblue" stroke="midnightblue" points="69.53,-26.24 61.16,-19.75 63.66,-30.05 69.53,-26.24"/>
</g>
<!-- Node2&#45;&gt;Node5 -->
<g id="edge4" class="edge">
<title>Node2&#45;&gt;Node5</title>
<path fill="none" stroke="midnightblue" d="M93.95,-56.08C96.8,-48.77 100.92,-38.18 104.45,-29.1"/>
<polygon fill="midnightblue" stroke="midnightblue" points="107.72,-30.34 108.08,-19.75 101.2,-27.8 107.72,-30.34"/>
</g>
<!-- Node2&#45;&gt;Node6 -->
<g id="edge5" class="edge">
<title>Node2&#45;&gt;Node6</title>
<path fill="none" stroke="midnightblue" d="M107.52,-56.32C124.52,-47.66 150.86,-34.24 170.48,-24.25"/>
<polygon fill="midnightblue" stroke="midnightblue" points="172.18,-27.31 179.5,-19.65 169,-21.08 172.18,-27.31"/>
</g>
<!-- Node8 -->
<g id="node8" class="node">
<title>Node8</title>
<g id="a_node8"><a xlink:href="../../d4/d3c/timebase_8h.html" target="_top" xlink:title="Declares the AJATimeBase class.">
<polygon fill="white" stroke="black" points="228.49,-112.5 228.49,-131.5 386.49,-131.5 386.49,-112.5 228.49,-112.5"/>
<text text-anchor="middle" x="307.49" y="-119.5" font-family="Helvetica,sans-Serif" font-size="10.00">ajabase/common/timebase.h</text>
</a>
</g>
</g>
<!-- Node7&#45;&gt;Node8 -->
<g id="edge7" class="edge">
<title>Node7&#45;&gt;Node8</title>
<path fill="none" stroke="midnightblue" d="M304.15,-168.08C304.67,-161.01 305.42,-150.86 306.08,-141.99"/>
<polygon fill="midnightblue" stroke="midnightblue" points="309.59,-141.98 306.84,-131.75 302.61,-141.47 309.59,-141.98"/>
</g>
<!-- Node9 -->
<g id="node9" class="node">
<title>Node9</title>
<g id="a_node9"><a xlink:href="../../d4/d79/public_8h.html" target="_top" xlink:title="Master header for the ajabase library.">
<polygon fill="white" stroke="black" points="409.49,-56.5 409.49,-75.5 551.49,-75.5 551.49,-56.5 409.49,-56.5"/>
<text text-anchor="middle" x="480.49" y="-63.5" font-family="Helvetica,sans-Serif" font-size="10.00">ajabase/common/public.h</text>
</a>
</g>
</g>
<!-- Node8&#45;&gt;Node9 -->
<g id="edge8" class="edge">
<title>Node8&#45;&gt;Node9</title>
<path fill="none" stroke="midnightblue" d="M334.9,-112.44C364.26,-103.28 411.01,-88.69 443.58,-78.52"/>
<polygon fill="midnightblue" stroke="midnightblue" points="444.7,-81.84 453.2,-75.52 442.61,-75.16 444.7,-81.84"/>
</g>
<!-- Node13 -->
<g id="node13" class="node">
<title>Node13</title>
<g id="a_node13"><a xlink:href="../../d6/da4/videotypes_8h.html" target="_top" xlink:title="Declares the enumeration constants used in the ajabase library.">
<polygon fill="white" stroke="black" points="223.99,-56.5 223.99,-75.5 390.99,-75.5 390.99,-56.5 223.99,-56.5"/>
<text text-anchor="middle" x="307.49" y="-63.5" font-family="Helvetica,sans-Serif" font-size="10.00">ajabase/common/videotypes.h</text>
</a>
</g>
</g>
<!-- Node8&#45;&gt;Node13 -->
<g id="edge15" class="edge">
<title>Node8&#45;&gt;Node13</title>
<path fill="none" stroke="midnightblue" d="M307.49,-112.08C307.49,-105.01 307.49,-94.86 307.49,-85.99"/>
<polygon fill="midnightblue" stroke="midnightblue" points="310.99,-85.75 307.49,-75.75 303.99,-85.75 310.99,-85.75"/>
</g>
<!-- Node9&#45;&gt;Node3 -->
<g id="edge9" class="edge">
<title>Node9&#45;&gt;Node3</title>
<path fill="none" stroke="midnightblue" d="M454.5,-56.44C426.79,-47.32 382.73,-32.81 351.87,-22.65"/>
<polygon fill="midnightblue" stroke="midnightblue" points="352.94,-19.32 342.35,-19.52 350.75,-25.97 352.94,-19.32"/>
</g>
<!-- Node9&#45;&gt;Node5 -->
<g id="edge10" class="edge">
<title>Node9&#45;&gt;Node5</title>
<path fill="none" stroke="midnightblue" d="M416.35,-56.48C352.25,-47.82 250.93,-33.77 163.49,-20 157.07,-18.99 150.22,-17.85 143.67,-16.73"/>
<polygon fill="midnightblue" stroke="midnightblue" points="144.18,-13.26 133.73,-15 142.98,-20.16 144.18,-13.26"/>
</g>
<!-- Node9&#45;&gt;Node6 -->
<g id="edge12" class="edge">
<title>Node9&#45;&gt;Node6</title>
<path fill="none" stroke="midnightblue" d="M430.15,-56.44C380.53,-47.84 302.61,-33.9 235.49,-20 233.8,-19.65 232.08,-19.29 230.34,-18.91"/>
<polygon fill="midnightblue" stroke="midnightblue" points="230.89,-15.45 220.37,-16.69 229.37,-22.28 230.89,-15.45"/>
</g>
<!-- Node10 -->
<g id="node10" class="node">
<title>Node10</title>
<g id="a_node10"><a xlink:title=" ">
<polygon fill="white" stroke="#bfbfbf" points="411.49,-0.5 411.49,-19.5 443.49,-19.5 443.49,-0.5 411.49,-0.5"/>
<text text-anchor="middle" x="427.49" y="-7.5" font-family="Helvetica,sans-Serif" font-size="10.00">list</text>
</a>
</g>
</g>
<!-- Node9&#45;&gt;Node10 -->
<g id="edge11" class="edge">
<title>Node9&#45;&gt;Node10</title>
<path fill="none" stroke="midnightblue" d="M471.73,-56.08C464.02,-48.22 452.58,-36.57 443.27,-27.08"/>
<polygon fill="midnightblue" stroke="midnightblue" points="445.58,-24.44 436.07,-19.75 440.58,-29.34 445.58,-24.44"/>
</g>
<!-- Node11 -->
<g id="node11" class="node">
<title>Node11</title>
<g id="a_node11"><a xlink:title=" ">
<polygon fill="white" stroke="#bfbfbf" points="461.49,-0.5 461.49,-19.5 499.49,-19.5 499.49,-0.5 461.49,-0.5"/>
<text text-anchor="middle" x="480.49" y="-7.5" font-family="Helvetica,sans-Serif" font-size="10.00">map</text>
</a>
</g>
</g>
<!-- Node9&#45;&gt;Node11 -->
<g id="edge13" class="edge">
<title>Node9&#45;&gt;Node11</title>
<path fill="none" stroke="midnightblue" d="M480.49,-56.08C480.49,-49.01 480.49,-38.86 480.49,-29.99"/>
<polygon fill="midnightblue" stroke="midnightblue" points="483.99,-29.75 480.49,-19.75 476.99,-29.75 483.99,-29.75"/>
</g>
<!-- Node12 -->
<g id="node12" class="node">
<title>Node12</title>
<g id="a_node12"><a xlink:href="../../d9/d49/types_8h.html" target="_top" xlink:title="Declares common types used in the ajabase library.">
<polygon fill="white" stroke="black" points="517.49,-0.5 517.49,-19.5 657.49,-19.5 657.49,-0.5 517.49,-0.5"/>
<text text-anchor="middle" x="587.49" y="-7.5" font-family="Helvetica,sans-Serif" font-size="10.00">ajabase/common/types.h</text>
</a>
</g>
</g>
<!-- Node9&#45;&gt;Node12 -->
<g id="edge14" class="edge">
<title>Node9&#45;&gt;Node12</title>
<path fill="none" stroke="midnightblue" d="M497.68,-56.32C514.84,-47.66 541.43,-34.24 561.23,-24.25"/>
<polygon fill="midnightblue" stroke="midnightblue" points="562.99,-27.28 570.34,-19.65 559.83,-21.04 562.99,-27.28"/>
</g>
</g>
</svg>
