<?xml version="1.0" encoding="UTF-8" standalone="no"?>
<!DOCTYPE svg PUBLIC "-//W3C//DTD SVG 1.1//EN"
 "http://www.w3.org/Graphics/SVG/1.1/DTD/svg11.dtd">
<!-- Generated by graphviz version 2.43.0 (0)
 -->
<!-- Title: NTV2BankSelGetSetRegs Pages: 1 -->
<svg width="306pt" height="106pt"
 viewBox="0.00 0.00 305.50 106.00" xmlns="http://www.w3.org/2000/svg" xmlns:xlink="http://www.w3.org/1999/xlink">
<g id="graph0" class="graph" transform="scale(1 1) rotate(0) translate(4 102)">
<title>NTV2BankSelGetSetRegs</title>
<polygon fill="white" stroke="transparent" points="-4,4 -4,-102 301.5,-102 301.5,4 -4,4"/>
<!-- Node1 -->
<g id="node1" class="node">
<title>Node1</title>
<g id="a_node1"><a xlink:title="This is used to atomically perform bank&#45;selected register reads or writes.">
<polygon fill="#bfbfbf" stroke="black" points="81.5,-0.5 81.5,-19.5 221.5,-19.5 221.5,-0.5 81.5,-0.5"/>
<text text-anchor="middle" x="151.5" y="-7.5" font-family="Helvetica,sans-Serif" font-size="10.00">NTV2BankSelGetSetRegs</text>
</a>
</g>
</g>
<!-- Node2 -->
<g id="node2" class="node">
<title>Node2</title>
<g id="a_node2"><a xlink:href="../../d3/daf/class_n_t_v2___t_r_a_i_l_e_r.html" target="_top" xlink:title="All new NTV2 structs end with this common trailer.">
<polygon fill="white" stroke="black" points="0,-78.5 0,-97.5 89,-97.5 89,-78.5 0,-78.5"/>
<text text-anchor="middle" x="44.5" y="-85.5" font-family="Helvetica,sans-Serif" font-size="10.00">NTV2_TRAILER</text>
</a>
</g>
</g>
<!-- Node2&#45;&gt;Node1 -->
<g id="edge1" class="edge">
<title>Node2&#45;&gt;Node1</title>
<path fill="none" stroke="#9a32cd" stroke-dasharray="5,2" d="M61.97,-71.45C73.64,-61.4 89.53,-48.31 104.5,-38 114.26,-31.27 125.8,-24.63 135,-19.61"/>
<polygon fill="#9a32cd" stroke="#9a32cd" points="59.53,-68.94 54.3,-78.15 64.13,-74.21 59.53,-68.94"/>
<text text-anchor="middle" x="126" y="-46.5" font-family="Helvetica,sans-Serif" font-size="10.00"> mTrailer</text>
</g>
<!-- Node3 -->
<g id="node3" class="node">
<title>Node3</title>
<g id="a_node3"><a xlink:href="../../d4/d09/class_n_t_v2___h_e_a_d_e_r.html" target="_top" xlink:title="All new NTV2 structs start with this common header.">
<polygon fill="white" stroke="black" points="107,-78.5 107,-97.5 196,-97.5 196,-78.5 107,-78.5"/>
<text text-anchor="middle" x="151.5" y="-85.5" font-family="Helvetica,sans-Serif" font-size="10.00">NTV2_HEADER</text>
</a>
</g>
</g>
<!-- Node3&#45;&gt;Node1 -->
<g id="edge2" class="edge">
<title>Node3&#45;&gt;Node1</title>
<path fill="none" stroke="#9a32cd" stroke-dasharray="5,2" d="M151.5,-68.22C151.5,-52.7 151.5,-31.36 151.5,-19.62"/>
<polygon fill="#9a32cd" stroke="#9a32cd" points="148,-68.28 151.5,-78.28 155,-68.28 148,-68.28"/>
<text text-anchor="middle" x="176" y="-46.5" font-family="Helvetica,sans-Serif" font-size="10.00"> mHeader</text>
</g>
<!-- Node4 -->
<g id="node4" class="node">
<title>Node4</title>
<g id="a_node4"><a xlink:href="../../d5/dc4/class_n_t_v2_buffer.html" target="_top" xlink:title="A generic user&#45;space buffer object that has an address and a length. Used most often to share an arbi...">
<polygon fill="white" stroke="black" points="214.5,-78.5 214.5,-97.5 286.5,-97.5 286.5,-78.5 214.5,-78.5"/>
<text text-anchor="middle" x="250.5" y="-85.5" font-family="Helvetica,sans-Serif" font-size="10.00">NTV2Buffer</text>
</a>
</g>
</g>
<!-- Node4&#45;&gt;Node1 -->
<g id="edge3" class="edge">
<title>Node4&#45;&gt;Node1</title>
<path fill="none" stroke="#9a32cd" stroke-dasharray="5,2" d="M237.4,-70.34C228.81,-60.14 216.89,-47.31 204.5,-38 194.67,-30.62 182.53,-24.27 172.35,-19.58"/>
<polygon fill="#9a32cd" stroke="#9a32cd" points="234.75,-72.63 243.78,-78.16 240.17,-68.2 234.75,-72.63"/>
<text text-anchor="middle" x="262" y="-52" font-family="Helvetica,sans-Serif" font-size="10.00"> mInBankInfos</text>
<text text-anchor="middle" x="262" y="-41" font-family="Helvetica,sans-Serif" font-size="10.00">mInRegInfos</text>
</g>
</g>
</svg>
