<?xml version="1.0" encoding="UTF-8" standalone="no"?>
<!DOCTYPE svg PUBLIC "-//W3C//DTD SVG 1.1//EN"
 "http://www.w3.org/Graphics/SVG/1.1/DTD/svg11.dtd">
<!-- Generated by graphviz version 2.40.1 (0)
 -->
<!-- Title: /home/tcbuilder/buildAgent/work/df8e8cce5bebfd58/libajantv2/demos/ntv2vcam/baseclasses/perfstruct.h Pages: 1 -->
<svg width="213pt" height="106pt"
 viewBox="0.00 0.00 213.00 106.00" xmlns="http://www.w3.org/2000/svg" xmlns:xlink="http://www.w3.org/1999/xlink">
<g id="graph0" class="graph" transform="scale(1 1) rotate(0) translate(4 102)">
<title>/home/tcbuilder/buildAgent/work/df8e8cce5bebfd58/libajantv2/demos/ntv2vcam/baseclasses/perfstruct.h</title>
<polygon fill="#ffffff" stroke="transparent" points="-4,4 -4,-102 209,-102 209,4 -4,4"/>
<!-- Node0 -->
<g id="node1" class="node">
<title>Node0</title>
<polygon fill="#bfbfbf" stroke="#000000" points="0,-56.5 0,-97.5 205,-97.5 205,-56.5 0,-56.5"/>
<text text-anchor="start" x="8" y="-85.5" font-family="Helvetica,sans-Serif" font-size="10.00" fill="#000000">/home/tcbuilder/buildAgent</text>
<text text-anchor="start" x="8" y="-74.5" font-family="Helvetica,sans-Serif" font-size="10.00" fill="#000000">/work/df8e8cce5bebfd58/libajantv2</text>
<text text-anchor="middle" x="102.5" y="-63.5" font-family="Helvetica,sans-Serif" font-size="10.00" fill="#000000">/demos/ntv2vcam/baseclasses/perfstruct.h</text>
</g>
<!-- Node1 -->
<g id="node2" class="node">
<title>Node1</title>
<polygon fill="#ffffff" stroke="#bfbfbf" points="38,-.5 38,-19.5 91,-19.5 91,-.5 38,-.5"/>
<text text-anchor="middle" x="64.5" y="-7.5" font-family="Helvetica,sans-Serif" font-size="10.00" fill="#000000">wmistr.h</text>
</g>
<!-- Node0&#45;&gt;Node1 -->
<g id="edge1" class="edge">
<title>Node0&#45;&gt;Node1</title>
<path fill="none" stroke="#191970" d="M90.6849,-56.168C85.6827,-47.3484 79.9013,-37.155 75.0455,-28.5933"/>
<polygon fill="#191970" stroke="#191970" points="78.025,-26.7521 70.0471,-19.7805 71.9362,-30.2056 78.025,-26.7521"/>
</g>
<!-- Node2 -->
<g id="node3" class="node">
<title>Node2</title>
<polygon fill="#ffffff" stroke="#bfbfbf" points="109.5,-.5 109.5,-19.5 171.5,-19.5 171.5,-.5 109.5,-.5"/>
<text text-anchor="middle" x="140.5" y="-7.5" font-family="Helvetica,sans-Serif" font-size="10.00" fill="#000000">evntrace.h</text>
</g>
<!-- Node0&#45;&gt;Node2 -->
<g id="edge2" class="edge">
<title>Node0&#45;&gt;Node2</title>
<path fill="none" stroke="#191970" d="M114.3151,-56.168C119.3173,-47.3484 125.0987,-37.155 129.9545,-28.5933"/>
<polygon fill="#191970" stroke="#191970" points="133.0638,-30.2056 134.9529,-19.7805 126.975,-26.7521 133.0638,-30.2056"/>
</g>
</g>
</svg>
