<?xml version="1.0" encoding="UTF-8" standalone="no"?>
<!DOCTYPE svg PUBLIC "-//W3C//DTD SVG 1.1//EN"
 "http://www.w3.org/Graphics/SVG/1.1/DTD/svg11.dtd">
<!-- Generated by graphviz version 2.40.1 (0)
 -->
<!-- Title: HevcMessageDebug Pages: 1 -->
<svg width="297pt" height="240pt"
 viewBox="0.00 0.00 296.50 240.00" xmlns="http://www.w3.org/2000/svg" xmlns:xlink="http://www.w3.org/1999/xlink">
<g id="graph0" class="graph" transform="scale(1 1) rotate(0) translate(4 236)">
<title>HevcMessageDebug</title>
<polygon fill="#ffffff" stroke="transparent" points="-4,4 -4,-236 292.5,-236 292.5,4 -4,4"/>
<!-- Node1 -->
<g id="node1" class="node">
<title>Node1</title>
<polygon fill="#bfbfbf" stroke="#000000" points="28.5,-.5 28.5,-19.5 136.5,-19.5 136.5,-.5 28.5,-.5"/>
<text text-anchor="middle" x="82.5" y="-7.5" font-family="Helvetica,sans-Serif" font-size="10.00" fill="#000000">HevcMessageDebug</text>
</g>
<!-- Node2 -->
<g id="node2" class="node">
<title>Node2</title>
<g id="a_node2"><a xlink:href="../../d2/d9b/structhevc_message_header.html" target="_top" xlink:title="hevcMessageHeader">
<polygon fill="#ffffff" stroke="#000000" points="0,-67.5 0,-86.5 109,-86.5 109,-67.5 0,-67.5"/>
<text text-anchor="middle" x="54.5" y="-74.5" font-family="Helvetica,sans-Serif" font-size="10.00" fill="#000000">hevcMessageHeader</text>
</a>
</g>
</g>
<!-- Node2&#45;&gt;Node1 -->
<g id="edge1" class="edge">
<title>Node2&#45;&gt;Node1</title>
<path fill="none" stroke="#9a32cd" stroke-dasharray="5,2" d="M62.4976,-57.8628C67.7292,-45.3444 74.3402,-29.5252 78.4957,-19.5817"/>
<polygon fill="#9a32cd" stroke="#9a32cd" points="59.1384,-56.8242 58.5117,-67.4005 65.5971,-59.5234 59.1384,-56.8242"/>
<text text-anchor="middle" x="87" y="-41" font-family="Helvetica,sans-Serif" font-size="10.00" fill="#000000"> header</text>
</g>
<!-- Node3 -->
<g id="node3" class="node">
<title>Node3</title>
<g id="a_node3"><a xlink:href="../../d1/d60/struct_hevc_device_debug.html" target="_top" xlink:title="HevcDeviceDebug">
<polygon fill="#ffffff" stroke="#000000" points="127,-67.5 127,-86.5 226,-86.5 226,-67.5 127,-67.5"/>
<text text-anchor="middle" x="176.5" y="-74.5" font-family="Helvetica,sans-Serif" font-size="10.00" fill="#000000">HevcDeviceDebug</text>
</a>
</g>
</g>
<!-- Node3&#45;&gt;Node1 -->
<g id="edge2" class="edge">
<title>Node3&#45;&gt;Node1</title>
<path fill="none" stroke="#9a32cd" stroke-dasharray="5,2" d="M154.768,-61.5102C136.609,-48.567 111.2886,-30.5195 95.9429,-19.5817"/>
<polygon fill="#9a32cd" stroke="#9a32cd" points="152.8574,-64.4464 163.0321,-67.4005 156.9204,-58.7462 152.8574,-64.4464"/>
<text text-anchor="middle" x="146.5" y="-41" font-family="Helvetica,sans-Serif" font-size="10.00" fill="#000000"> data</text>
</g>
<!-- Node4 -->
<g id="node4" class="node">
<title>Node4</title>
<g id="a_node4"><a xlink:href="../../d1/d37/struct_hevc_device_status.html" target="_top" xlink:title="HevcDeviceStatus">
<polygon fill="#ffffff" stroke="#000000" points="53,-145.5 53,-164.5 152,-164.5 152,-145.5 53,-145.5"/>
<text text-anchor="middle" x="102.5" y="-152.5" font-family="Helvetica,sans-Serif" font-size="10.00" fill="#000000">HevcDeviceStatus</text>
</a>
</g>
</g>
<!-- Node4&#45;&gt;Node3 -->
<g id="edge3" class="edge">
<title>Node4&#45;&gt;Node3</title>
<path fill="none" stroke="#9a32cd" stroke-dasharray="5,2" d="M110.7109,-136.0755C115.7071,-126.0412 122.8038,-113.9702 131.5,-105 138.6732,-97.6007 148.1832,-91.3165 156.6122,-86.5878"/>
<polygon fill="#9a32cd" stroke="#9a32cd" points="107.4911,-134.6986 106.4334,-145.2405 113.8343,-137.6591 107.4911,-134.6986"/>
<text text-anchor="middle" x="162" y="-113.5" font-family="Helvetica,sans-Serif" font-size="10.00" fill="#000000"> deviceStatus</text>
</g>
<!-- Node5 -->
<g id="node5" class="node">
<title>Node5</title>
<g id="a_node5"><a xlink:href="../../dd/dbf/structhevc__gpio__state.html" target="_top" xlink:title="hevc_gpio_state">
<polygon fill="#ffffff" stroke="#000000" points="58.5,-212.5 58.5,-231.5 146.5,-231.5 146.5,-212.5 58.5,-212.5"/>
<text text-anchor="middle" x="102.5" y="-219.5" font-family="Helvetica,sans-Serif" font-size="10.00" fill="#000000">hevc_gpio_state</text>
</a>
</g>
</g>
<!-- Node5&#45;&gt;Node4 -->
<g id="edge4" class="edge">
<title>Node5&#45;&gt;Node4</title>
<path fill="none" stroke="#9a32cd" stroke-dasharray="5,2" d="M102.5,-202.1079C102.5,-189.714 102.5,-174.3263 102.5,-164.5817"/>
<polygon fill="#9a32cd" stroke="#9a32cd" points="99.0001,-202.4005 102.5,-212.4005 106.0001,-202.4006 99.0001,-202.4005"/>
<text text-anchor="middle" x="125" y="-186" font-family="Helvetica,sans-Serif" font-size="10.00" fill="#000000"> gpioState</text>
</g>
<!-- Node6 -->
<g id="node6" class="node">
<title>Node6</title>
<g id="a_node6"><a xlink:href="../../d9/d1f/structhevc__stream__statistics.html" target="_top" xlink:title="hevc_stream_statistics">
<polygon fill="#ffffff" stroke="#000000" points="170.5,-145.5 170.5,-164.5 288.5,-164.5 288.5,-145.5 170.5,-145.5"/>
<text text-anchor="middle" x="229.5" y="-152.5" font-family="Helvetica,sans-Serif" font-size="10.00" fill="#000000">hevc_stream_statistics</text>
</a>
</g>
</g>
<!-- Node6&#45;&gt;Node3 -->
<g id="edge5" class="edge">
<title>Node6&#45;&gt;Node3</title>
<path fill="none" stroke="#9a32cd" stroke-dasharray="5,2" d="M217.3184,-137.0723C206.659,-121.385 191.5825,-99.197 183.052,-86.6426"/>
<polygon fill="#9a32cd" stroke="#9a32cd" points="214.486,-139.1315 223.0012,-145.4357 220.2759,-135.1973 214.486,-139.1315"/>
<text text-anchor="middle" x="230" y="-119" font-family="Helvetica,sans-Serif" font-size="10.00" fill="#000000"> encStats</text>
<text text-anchor="middle" x="230" y="-108" font-family="Helvetica,sans-Serif" font-size="10.00" fill="#000000">rawStats</text>
</g>
</g>
</svg>
