<?xml version="1.0" encoding="UTF-8" standalone="no"?>
<!DOCTYPE svg PUBLIC "-//W3C//DTD SVG 1.1//EN"
 "http://www.w3.org/Graphics/SVG/1.1/DTD/svg11.dtd">
<!-- Generated by graphviz version 2.40.1 (0)
 -->
<!-- Title: /home/tcbuilder/buildAgent/work/df8e8cce5bebfd58/libajantv2/ajantv2/includes/ntv2verticalfilter.h Pages: 1 -->
<svg width="178pt" height="128pt"
 viewBox="0.00 0.00 178.00 128.00" xmlns="http://www.w3.org/2000/svg" xmlns:xlink="http://www.w3.org/1999/xlink">
<g id="graph0" class="graph" transform="scale(1 1) rotate(0) translate(4 124)">
<title>/home/tcbuilder/buildAgent/work/df8e8cce5bebfd58/libajantv2/ajantv2/includes/ntv2verticalfilter.h</title>
<polygon fill="#ffffff" stroke="transparent" points="-4,4 -4,-124 174,-124 174,4 -4,4"/>
<!-- Node7 -->
<g id="node1" class="node">
<title>Node7</title>
<polygon fill="#bfbfbf" stroke="#000000" points="0,-78.5 0,-119.5 170,-119.5 170,-78.5 0,-78.5"/>
<text text-anchor="start" x="8" y="-107.5" font-family="Helvetica,sans-Serif" font-size="10.00" fill="#000000">/home/tcbuilder/buildAgent</text>
<text text-anchor="start" x="8" y="-96.5" font-family="Helvetica,sans-Serif" font-size="10.00" fill="#000000">/work/df8e8cce5bebfd58/libajantv2</text>
<text text-anchor="middle" x="85" y="-85.5" font-family="Helvetica,sans-Serif" font-size="10.00" fill="#000000">/ajantv2/includes/ntv2verticalfilter.h</text>
</g>
<!-- Node8 -->
<g id="node2" class="node">
<title>Node8</title>
<g id="a_node2"><a xlink:href="../../dc/d47/ntv2verticalfilter_8cpp.html" target="_top" xlink:title="Implementations of the VerticalFilterLine and FieldInterpolateLine functions. ">
<polygon fill="#ffffff" stroke="#000000" points="1.5,-.5 1.5,-41.5 168.5,-41.5 168.5,-.5 1.5,-.5"/>
<text text-anchor="start" x="9.5" y="-29.5" font-family="Helvetica,sans-Serif" font-size="10.00" fill="#000000">/home/tcbuilder/buildAgent</text>
<text text-anchor="start" x="9.5" y="-18.5" font-family="Helvetica,sans-Serif" font-size="10.00" fill="#000000">/work/df8e8cce5bebfd58/libajantv2</text>
<text text-anchor="middle" x="85" y="-7.5" font-family="Helvetica,sans-Serif" font-size="10.00" fill="#000000">/ajantv2/src/ntv2verticalfilter.cpp</text>
</a>
</g>
</g>
<!-- Node7&#45;&gt;Node8 -->
<g id="edge1" class="edge">
<title>Node7&#45;&gt;Node8</title>
<path fill="none" stroke="#191970" d="M85,-68.0789C85,-59.2178 85,-49.7747 85,-41.6898"/>
<polygon fill="#191970" stroke="#191970" points="81.5001,-68.0974 85,-78.0974 88.5001,-68.0975 81.5001,-68.0974"/>
</g>
</g>
</svg>
