<?xml version="1.0" encoding="UTF-8" standalone="no"?>
<!DOCTYPE svg PUBLIC "-//W3C//DTD SVG 1.1//EN"
 "http://www.w3.org/Graphics/SVG/1.1/DTD/svg11.dtd">
<!-- Generated by graphviz version 2.40.1 (0)
 -->
<!-- Title: CNTV2MBController Pages: 1 -->
<!--zoomable 477 -->
<svg id="main" version="1.1" xmlns="http://www.w3.org/2000/svg" xmlns:xlink="http://www.w3.org/1999/xlink" xml:space="preserve" onload="init(evt)">
<style type="text/css"><![CDATA[
.edge:hover path { stroke: red; }
.edge:hover polygon { stroke: red; fill: red; }
]]></style>
<script type="text/javascript"><![CDATA[
var edges = document.getElementsByTagName('g');
if (edges && edges.length) {
  for (var i=0;i<edges.length;i++) {
    if (edges[i].id.substr(0,4)=='edge') {
      edges[i].setAttribute('class','edge');
    }
  }
}
]]></script>
        <defs>
                <circle id="rim" cx="0" cy="0" r="7"/>
                <circle id="rim2" cx="0" cy="0" r="3.5"/>
                <g id="zoomPlus">
                        <use xlink:href="#rim" fill="#404040">
                                <set attributeName="fill" to="#808080" begin="zoomplus.mouseover" end="zoomplus.mouseout"/>
                        </use>
                        <path d="M-4,0h8M0,-4v8" fill="none" stroke="white" stroke-width="1.5" pointer-events="none"/>
                </g>
                <g id="zoomMin">
                        <use xlink:href="#rim" fill="#404040">
                                <set attributeName="fill" to="#808080" begin="zoomminus.mouseover" end="zoomminus.mouseout"/>
                        </use>
                        <path d="M-4,0h8" fill="none" stroke="white" stroke-width="1.5" pointer-events="none"/>
                </g>
                <g id="dirArrow">
                        <path fill="none" stroke="white" stroke-width="1.5" d="M0,-3.0v7 M-2.5,-0.5L0,-3.0L2.5,-0.5"/>
                </g>
               <g id="resetDef">
                       <use xlink:href="#rim2" fill="#404040">
                               <set attributeName="fill" to="#808080" begin="reset.mouseover" end="reset.mouseout"/>
                       </use>
               </g>
        </defs>

<script type="text/javascript">
var viewWidth = 290;
var viewHeight = 477;
var sectionId = 'dynsection-1';
</script>
<script xlink:href="../../svgpan.js"/>
<svg id="graph" class="graph">
<g id="viewport">
<title>CNTV2MBController</title>
<polygon fill="#ffffff" stroke="transparent" points="-4,4 -4,-473 285.5,-473 285.5,4 -4,4"/>
<!-- Node5 -->
<g id="node1" class="node">
<title>Node5</title>
<polygon fill="#bfbfbf" stroke="#000000" points="109,-.5 109,-19.5 216,-19.5 216,-.5 109,-.5"/>
<text text-anchor="middle" x="162.5" y="-7.5" font-family="Helvetica,sans-Serif" font-size="10.00" fill="#000000">CNTV2MBController</text>
</g>
<!-- Node6 -->
<g id="node2" class="node">
<title>Node6</title>
<g id="a_node2"><a xlink:href="../../d9/dd0/class_c_n_t_v2_mail_box.html" target="_top" xlink:title="CNTV2MailBox">
<polygon fill="#ffffff" stroke="#000000" points="120,-57.5 120,-76.5 205,-76.5 205,-57.5 120,-57.5"/>
<text text-anchor="middle" x="162.5" y="-64.5" font-family="Helvetica,sans-Serif" font-size="10.00" fill="#000000">CNTV2MailBox</text>
</a>
</g>
</g>
<!-- Node6&#45;&gt;Node5 -->
<g id="edge1" class="edge">
<title>Node6&#45;&gt;Node5</title>
<path fill="none" stroke="#191970" d="M162.5,-47.2342C162.5,-37.8491 162.5,-27.0651 162.5,-19.5265"/>
<polygon fill="#191970" stroke="#191970" points="159.0001,-47.3307 162.5,-57.3307 166.0001,-47.3308 159.0001,-47.3307"/>
</g>
<!-- Node7 -->
<g id="node3" class="node">
<title>Node7</title>
<g id="a_node3"><a xlink:href="../../d7/dfb/class_c_n_t_v2_card.html" target="_top" xlink:title="I interrogate and control an AJA video/audio capture/playout device. ">
<polygon fill="#ffffff" stroke="#000000" points="90,-124.5 90,-143.5 161,-143.5 161,-124.5 90,-124.5"/>
<text text-anchor="middle" x="125.5" y="-131.5" font-family="Helvetica,sans-Serif" font-size="10.00" fill="#000000">CNTV2Card</text>
</a>
</g>
</g>
<!-- Node7&#45;&gt;Node6 -->
<g id="edge2" class="edge">
<title>Node7&#45;&gt;Node6</title>
<path fill="none" stroke="#9a32cd" stroke-dasharray="5,2" d="M127.8061,-114.4519C129.1329,-107.9767 131.2199,-100.9182 134.5,-95 138.3658,-88.0251 144.4773,-81.6222 150.0055,-76.705"/>
<polygon fill="#9a32cd" stroke="#9a32cd" points="124.3231,-114.0694 126.2141,-124.494 131.2367,-115.1654 124.3231,-114.0694"/>
<text text-anchor="middle" x="156" y="-98" font-family="Helvetica,sans-Serif" font-size="10.00" fill="#000000"> mDevice</text>
</g>
<!-- Node8 -->
<g id="node4" class="node">
<title>Node8</title>
<g id="a_node4"><a xlink:href="../../dc/dfc/class_c_n_t_v2_mac_driver_interface.html" target="_top" xlink:title="A Mac&#45;specific implementation of CNTV2DriverInterface. ">
<polygon fill="#ffffff" stroke="#000000" points="0,-191.5 0,-210.5 133,-210.5 133,-191.5 0,-191.5"/>
<text text-anchor="middle" x="66.5" y="-198.5" font-family="Helvetica,sans-Serif" font-size="10.00" fill="#000000">CNTV2MacDriverInterface</text>
</a>
</g>
</g>
<!-- Node8&#45;&gt;Node7 -->
<g id="edge3" class="edge">
<title>Node8&#45;&gt;Node7</title>
<path fill="none" stroke="#191970" d="M81.7214,-183.7147C92.9698,-170.941 107.8684,-154.0224 117.0624,-143.5817"/>
<polygon fill="#191970" stroke="#191970" points="78.9354,-181.5825 74.9533,-191.4005 84.1888,-186.2087 78.9354,-181.5825"/>
</g>
<!-- Node9 -->
<g id="node5" class="node">
<title>Node9</title>
<g id="a_node5"><a xlink:href="../../d0/dbc/class_c_n_t_v2_driver_interface.html" target="_top" xlink:title="I&#39;m the base class that undergirds the platform&#45;specific derived classes (from which CNTV2Card is ult...">
<polygon fill="#ffffff" stroke="#000000" points="9.5,-248.5 9.5,-267.5 123.5,-267.5 123.5,-248.5 9.5,-248.5"/>
<text text-anchor="middle" x="66.5" y="-255.5" font-family="Helvetica,sans-Serif" font-size="10.00" fill="#000000">CNTV2DriverInterface</text>
</a>
</g>
</g>
<!-- Node9&#45;&gt;Node8 -->
<g id="edge4" class="edge">
<title>Node9&#45;&gt;Node8</title>
<path fill="none" stroke="#191970" d="M66.5,-238.2342C66.5,-228.8491 66.5,-218.0651 66.5,-210.5265"/>
<polygon fill="#191970" stroke="#191970" points="63.0001,-238.3307 66.5,-248.3307 70.0001,-238.3308 63.0001,-238.3307"/>
</g>
<!-- Node10 -->
<g id="node6" class="node">
<title>Node10</title>
<g id="a_node6"><a xlink:href="../../d2/d94/class_n_t_v2_r_p_c_client_a_p_i.html" target="_top" xlink:title="An object that can connect to, and operate remote or fake devices. I have three general API groups: ...">
<polygon fill="#ffffff" stroke="#000000" points="85,-315.5 85,-334.5 190,-334.5 190,-315.5 85,-315.5"/>
<text text-anchor="middle" x="137.5" y="-322.5" font-family="Helvetica,sans-Serif" font-size="10.00" fill="#000000">NTV2RPCClientAPI</text>
</a>
</g>
</g>
<!-- Node10&#45;&gt;Node9 -->
<g id="edge5" class="edge">
<title>Node10&#45;&gt;Node9</title>
<path fill="none" stroke="#9a32cd" stroke-dasharray="5,2" d="M119.9514,-308.44C106.332,-295.5879 87.9285,-278.2212 76.6537,-267.5817"/>
<polygon fill="#9a32cd" stroke="#9a32cd" points="117.6523,-311.0828 127.3274,-315.4005 122.4566,-305.9917 117.6523,-311.0828"/>
<text text-anchor="middle" x="132.5" y="-289" font-family="Helvetica,sans-Serif" font-size="10.00" fill="#000000"> _pRPCAPI</text>
</g>
<!-- Node11 -->
<g id="node7" class="node">
<title>Node11</title>
<g id="a_node7"><a xlink:href="../../d7/d93/class_n_t_v2_r_p_c_base.html" target="_top" xlink:title="Common base class for NTV2RPCClientAPI and NTV2RPCServerAPI. ">
<polygon fill="#ffffff" stroke="#000000" points="101.5,-382.5 101.5,-401.5 187.5,-401.5 187.5,-382.5 101.5,-382.5"/>
<text text-anchor="middle" x="144.5" y="-389.5" font-family="Helvetica,sans-Serif" font-size="10.00" fill="#000000">NTV2RPCBase</text>
</a>
</g>
</g>
<!-- Node11&#45;&gt;Node10 -->
<g id="edge6" class="edge">
<title>Node11&#45;&gt;Node10</title>
<path fill="none" stroke="#191970" d="M142.4217,-372.1079C141.1268,-359.714 139.5192,-344.3263 138.5011,-334.5817"/>
<polygon fill="#191970" stroke="#191970" points="138.9768,-372.8184 143.4971,-382.4005 145.9389,-372.0909 138.9768,-372.8184"/>
</g>
<!-- Node12 -->
<g id="node8" class="node">
<title>Node12</title>
<g id="a_node8"><a xlink:href="../../d9/df4/class_a_j_a_lock.html" target="_top" xlink:title="AJALock">
<polygon fill="#ffffff" stroke="#000000" points="36.5,-449.5 36.5,-468.5 92.5,-468.5 92.5,-449.5 36.5,-449.5"/>
<text text-anchor="middle" x="64.5" y="-456.5" font-family="Helvetica,sans-Serif" font-size="10.00" fill="#000000">AJALock</text>
</a>
</g>
</g>
<!-- Node12&#45;&gt;Node9 -->
<g id="edge9" class="edge">
<title>Node12&#45;&gt;Node9</title>
<path fill="none" stroke="#9a32cd" stroke-dasharray="5,2" d="M61.8657,-439.319C59.3304,-418.046 56.0756,-383.1384 57.5,-353 58.9782,-321.7235 63.1793,-284.8481 65.277,-267.6884"/>
<polygon fill="#9a32cd" stroke="#9a32cd" points="58.4082,-439.877 63.1315,-449.3607 65.3533,-439.0015 58.4082,-439.877"/>
<text text-anchor="middle" x="97" y="-356" font-family="Helvetica,sans-Serif" font-size="10.00" fill="#000000"> mRegWritesLock</text>
</g>
<!-- Node12&#45;&gt;Node11 -->
<g id="edge7" class="edge">
<title>Node12&#45;&gt;Node11</title>
<path fill="none" stroke="#9a32cd" stroke-dasharray="5,2" d="M73.6967,-440.3908C77.8209,-433.3739 83.188,-425.7153 89.5,-420 97.9986,-412.3048 109.0013,-406.1508 118.9301,-401.5939"/>
<polygon fill="#9a32cd" stroke="#9a32cd" points="70.547,-438.8574 68.8712,-449.3189 76.7051,-442.1858 70.547,-438.8574"/>
<text text-anchor="middle" x="120" y="-423" font-family="Helvetica,sans-Serif" font-size="10.00" fill="#000000"> mParamLock</text>
</g>
<!-- Node13 -->
<g id="node9" class="node">
<title>Node13</title>
<g id="a_node9"><a xlink:href="../../d6/d01/class_n_t_v2_dictionary.html" target="_top" xlink:title="A simple (not thread&#45;safe) set of key/value pairs. (New in SDK 16.3) ">
<polygon fill="#ffffff" stroke="#000000" points="124.5,-449.5 124.5,-468.5 210.5,-468.5 210.5,-449.5 124.5,-449.5"/>
<text text-anchor="middle" x="167.5" y="-456.5" font-family="Helvetica,sans-Serif" font-size="10.00" fill="#000000">NTV2Dictionary</text>
</a>
</g>
</g>
<!-- Node13&#45;&gt;Node11 -->
<g id="edge8" class="edge">
<title>Node13&#45;&gt;Node11</title>
<path fill="none" stroke="#9a32cd" stroke-dasharray="5,2" d="M160.9305,-439.8628C156.6332,-427.3444 151.2027,-411.5252 147.7892,-401.5817"/>
<polygon fill="#9a32cd" stroke="#9a32cd" points="157.6474,-441.0787 164.2047,-449.4005 164.2681,-438.8059 157.6474,-441.0787"/>
<text text-anchor="middle" x="179.5" y="-423" font-family="Helvetica,sans-Serif" font-size="10.00" fill="#000000"> mParams</text>
</g>
<!-- Node14 -->
<g id="node10" class="node">
<title>Node14</title>
<g id="a_node10"><a xlink:href="../../d5/dc4/class_n_t_v2_buffer.html" target="_top" xlink:title="Describes a user&#45;space buffer on the host computer. I have an address and a length, plus some optional attributes (allocated by SDK?, page&#45;aligned? etc.). ">
<polygon fill="#ffffff" stroke="#000000" points="151.5,-191.5 151.5,-210.5 219.5,-210.5 219.5,-191.5 151.5,-191.5"/>
<text text-anchor="middle" x="185.5" y="-198.5" font-family="Helvetica,sans-Serif" font-size="10.00" fill="#000000">NTV2Buffer</text>
</a>
</g>
</g>
<!-- Node14&#45;&gt;Node7 -->
<g id="edge10" class="edge">
<title>Node14&#45;&gt;Node7</title>
<path fill="none" stroke="#9a32cd" stroke-dasharray="5,2" d="M170.0206,-183.7147C158.5815,-170.941 143.4305,-154.0224 134.0806,-143.5817"/>
<polygon fill="#9a32cd" stroke="#9a32cd" points="167.6249,-186.2859 176.9035,-191.4005 172.8396,-181.6161 167.6249,-186.2859"/>
<text text-anchor="middle" x="198" y="-165" font-family="Helvetica,sans-Serif" font-size="10.00" fill="#000000"> NULL_POINTER</text>
</g>
<!-- Node15 -->
<g id="node11" class="node">
<title>Node15</title>
<polygon fill="#ffffff" stroke="#bfbfbf" points="179,-124.5 179,-143.5 220,-143.5 220,-124.5 179,-124.5"/>
<text text-anchor="middle" x="199.5" y="-131.5" font-family="Helvetica,sans-Serif" font-size="10.00" fill="#000000">string</text>
</g>
<!-- Node15&#45;&gt;Node6 -->
<g id="edge11" class="edge">
<title>Node15&#45;&gt;Node6</title>
<path fill="none" stroke="#9a32cd" stroke-dasharray="5,2" d="M189.3443,-115.6099C182.3693,-102.9795 173.3924,-86.7241 167.7914,-76.5817"/>
<polygon fill="#9a32cd" stroke="#9a32cd" points="186.3007,-117.3386 194.1988,-124.4005 192.4284,-113.9547 186.3007,-117.3386"/>
<text text-anchor="middle" x="232" y="-98" font-family="Helvetica,sans-Serif" font-size="10.00" fill="#000000"> mIpInternalErrorString</text>
</g>
</g>
</svg>
        <g id="navigator" transform="translate(0 0)" fill="#404254">
                <rect fill="#f2f5e9" fill-opacity="0.5" stroke="#606060" stroke-width=".5" x="0" y="0" width="60" height="60"/>
                <use id="zoomplus" xlink:href="#zoomPlus" x="17" y="9" onmousedown="handleZoom(evt,'in')"/>
                <use id="zoomminus" xlink:href="#zoomMin" x="42" y="9" onmousedown="handleZoom(evt,'out')"/>
                <use id="reset" xlink:href="#resetDef" x="30" y="36" onmousedown="handleReset()"/>
                <g id="arrowUp" xlink:href="#dirArrow" transform="translate(30 24)" onmousedown="handlePan(0,-1)">
                  <use xlink:href="#rim" fill="#404040">
                        <set attributeName="fill" to="#808080" begin="arrowUp.mouseover" end="arrowUp.mouseout"/>
                  </use>
                  <path fill="none" stroke="white" stroke-width="1.5" d="M0,-3.0v7 M-2.5,-0.5L0,-3.0L2.5,-0.5"/>
                </g>
                <g id="arrowRight" xlink:href="#dirArrow" transform="rotate(90) translate(36 -43)" onmousedown="handlePan(1,0)">
                  <use xlink:href="#rim" fill="#404040">
                        <set attributeName="fill" to="#808080" begin="arrowRight.mouseover" end="arrowRight.mouseout"/>
                  </use>
                  <path fill="none" stroke="white" stroke-width="1.5" d="M0,-3.0v7 M-2.5,-0.5L0,-3.0L2.5,-0.5"/>
                </g>
                <g id="arrowDown" xlink:href="#dirArrow" transform="rotate(180) translate(-30 -48)" onmousedown="handlePan(0,1)">
                  <use xlink:href="#rim" fill="#404040">
                        <set attributeName="fill" to="#808080" begin="arrowDown.mouseover" end="arrowDown.mouseout"/>
                  </use>
                  <path fill="none" stroke="white" stroke-width="1.5" d="M0,-3.0v7 M-2.5,-0.5L0,-3.0L2.5,-0.5"/>
                </g>
                <g id="arrowLeft" xlink:href="#dirArrow" transform="rotate(270) translate(-36 17)" onmousedown="handlePan(-1,0)">
                  <use xlink:href="#rim" fill="#404040">
                        <set attributeName="fill" to="#808080" begin="arrowLeft.mouseover" end="arrowLeft.mouseout"/>
                  </use>
                  <path fill="none" stroke="white" stroke-width="1.5" d="M0,-3.0v7 M-2.5,-0.5L0,-3.0L2.5,-0.5"/>
                </g>
        </g>
        <svg viewBox="0 0 15 15" width="100%" height="30px" preserveAspectRatio="xMaxYMin meet">
         <g id="arrow_out" transform="scale(0.3 0.3)">
          <a xlink:href="class_c_n_t_v2_m_b_controller__coll__graph_org.svg" target="_base">
           <rect id="button" ry="5" rx="5" y="6" x="6" height="38" width="38"
                fill="#f2f5e9" fill-opacity="0.5" stroke="#606060" stroke-width="1.0"/>
           <path id="arrow"
             d="M 11.500037,31.436501 C 11.940474,20.09759 22.043105,11.32322 32.158766,21.979434 L 37.068811,17.246167 C 37.068811,17.246167 37.088388,32 37.088388,32 L 22.160133,31.978069 C 22.160133,31.978069 26.997745,27.140456 26.997745,27.140456 C 18.528582,18.264221 13.291696,25.230495 11.500037,31.436501 z"
             style="fill:#404040;"/>
          </a>
         </g>
        </svg>
</svg>
