<?xml version="1.0" encoding="UTF-8" standalone="no"?>
<!DOCTYPE svg PUBLIC "-//W3C//DTD SVG 1.1//EN"
 "http://www.w3.org/Graphics/SVG/1.1/DTD/svg11.dtd">
<!-- Generated by graphviz version 2.43.0 (0)
 -->
<!-- Title: /home/tcbuilder/buildAgent/work/df8e8cce5bebfd58/libajantv2/ajaanc/includes Pages: 1 -->
<svg width="109pt" height="223pt"
 viewBox="0.00 0.00 108.50 223.00" xmlns="http://www.w3.org/2000/svg" xmlns:xlink="http://www.w3.org/1999/xlink">
<g id="graph0" class="graph" transform="scale(1 1) rotate(0) translate(4 219)">
<title>/home/tcbuilder/buildAgent/work/df8e8cce5bebfd58/libajantv2/ajaanc/includes</title>
<polygon fill="white" stroke="transparent" points="-4,4 -4,-219 104.5,-219 104.5,4 -4,4"/>
<g id="clust1" class="cluster">
<title>clusterdir_b59e94d4ad5c664834b28d5f17def224</title>
<g id="a_clust1"><a xlink:href="dir_b59e94d4ad5c664834b28d5f17def224.html" target="_top" xlink:title="ajaanc">
<polygon fill="#ddddee" stroke="black" points="18.5,-136 18.5,-207 92.5,-207 92.5,-136 18.5,-136"/>
<text text-anchor="middle" x="55.5" y="-195" font-family="Helvetica,sans-Serif" font-size="10.00">ajaanc</text>
</a>
</g>
</g>
<!-- dir_4f1bd68b810c3bb30d9f4940d800bb16 -->
<g id="node1" class="node">
<title>dir_4f1bd68b810c3bb30d9f4940d800bb16</title>
<g id="a_node1"><a xlink:href="dir_4f1bd68b810c3bb30d9f4940d800bb16.html" target="_top" xlink:title="includes">
<polygon fill="#eeeeff" stroke="black" points="84,-180 27,-180 27,-144 84,-144 84,-180"/>
<text text-anchor="middle" x="55.5" y="-159.5" font-family="Helvetica,sans-Serif" font-size="10.00">includes</text>
</a>
</g>
</g>
<!-- dir_e87eb6ce74e63cd1183c59eb94e728a6 -->
<g id="node2" class="node">
<title>dir_e87eb6ce74e63cd1183c59eb94e728a6</title>
<g id="a_node2"><a xlink:href="dir_e87eb6ce74e63cd1183c59eb94e728a6.html" target="_top" xlink:title="ajabase">
<polygon fill="white" stroke="red" points="55,-108 0,-108 0,-72 55,-72 55,-108"/>
<text text-anchor="middle" x="27.5" y="-87.5" font-family="Helvetica,sans-Serif" font-size="10.00">ajabase</text>
</a>
</g>
</g>
<!-- dir_4f1bd68b810c3bb30d9f4940d800bb16&#45;&gt;dir_e87eb6ce74e63cd1183c59eb94e728a6 -->
<g id="edge2" class="edge">
<title>dir_4f1bd68b810c3bb30d9f4940d800bb16&#45;&gt;dir_e87eb6ce74e63cd1183c59eb94e728a6</title>
<path fill="none" stroke="black" d="M48.58,-143.7C45.43,-135.81 41.62,-126.3 38.12,-117.55"/>
<polygon fill="black" stroke="black" points="41.31,-116.09 34.34,-108.1 34.81,-118.69 41.31,-116.09"/>
<g id="a_edge2&#45;headlabel"><a xlink:href="dir_000007_000009.html" target="_top" xlink:title="3">
<text text-anchor="middle" x="45.28" y="-115.87" font-family="Helvetica,sans-Serif" font-size="10.00">3</text>
</a>
</g>
</g>
<!-- dir_dcc334097b934f5294dca7e33f0e0621 -->
<g id="node3" class="node">
<title>dir_dcc334097b934f5294dca7e33f0e0621</title>
<g id="a_node3"><a xlink:href="dir_dcc334097b934f5294dca7e33f0e0621.html" target="_top" xlink:title="ajantv2">
<polygon fill="white" stroke="red" points="54.5,-36 0.5,-36 0.5,0 54.5,0 54.5,-36"/>
<text text-anchor="middle" x="27.5" y="-15.5" font-family="Helvetica,sans-Serif" font-size="10.00">ajantv2</text>
</a>
</g>
</g>
<!-- dir_4f1bd68b810c3bb30d9f4940d800bb16&#45;&gt;dir_dcc334097b934f5294dca7e33f0e0621 -->
<g id="edge3" class="edge">
<title>dir_4f1bd68b810c3bb30d9f4940d800bb16&#45;&gt;dir_dcc334097b934f5294dca7e33f0e0621</title>
<path fill="none" stroke="black" d="M61.21,-143.86C66.37,-125.63 72.1,-96.15 64.5,-72 61.4,-62.15 55.75,-52.53 49.78,-44.25"/>
<polygon fill="black" stroke="black" points="52.41,-41.94 43.54,-36.15 46.87,-46.21 52.41,-41.94"/>
<g id="a_edge3&#45;headlabel"><a xlink:href="dir_000007_000020.html" target="_top" xlink:title="4">
<text text-anchor="middle" x="56.86" y="-40.55" font-family="Helvetica,sans-Serif" font-size="10.00">4</text>
</a>
</g>
</g>
<!-- dir_e87eb6ce74e63cd1183c59eb94e728a6&#45;&gt;dir_dcc334097b934f5294dca7e33f0e0621 -->
<g id="edge1" class="edge">
<title>dir_e87eb6ce74e63cd1183c59eb94e728a6&#45;&gt;dir_dcc334097b934f5294dca7e33f0e0621</title>
<path fill="none" stroke="black" d="M21.58,-71.7C20.79,-63.98 20.56,-54.71 20.9,-46.11"/>
<polygon fill="black" stroke="black" points="24.4,-46.32 21.6,-36.1 17.42,-45.84 24.4,-46.32"/>
<g id="a_edge1&#45;headlabel"><a xlink:href="dir_000009_000020.html" target="_top" xlink:title="1">
<text text-anchor="middle" x="26.98" y="-47.61" font-family="Helvetica,sans-Serif" font-size="10.00">1</text>
</a>
</g>
</g>
<!-- dir_dcc334097b934f5294dca7e33f0e0621&#45;&gt;dir_e87eb6ce74e63cd1183c59eb94e728a6 -->
<g id="edge4" class="edge">
<title>dir_dcc334097b934f5294dca7e33f0e0621&#45;&gt;dir_e87eb6ce74e63cd1183c59eb94e728a6</title>
<path fill="none" stroke="black" d="M33.4,-36.1C34.2,-43.79 34.44,-53.05 34.1,-61.67"/>
<polygon fill="black" stroke="black" points="30.61,-61.48 33.42,-71.7 37.59,-61.96 30.61,-61.48"/>
<g id="a_edge4&#45;headlabel"><a xlink:href="dir_000020_000009.html" target="_top" xlink:title="69">
<text text-anchor="middle" x="28.02" y="-55.2" font-family="Helvetica,sans-Serif" font-size="10.00">69</text>
</a>
</g>
</g>
</g>
</svg>
