<?xml version="1.0" encoding="UTF-8" standalone="no"?>
<!DOCTYPE svg PUBLIC "-//W3C//DTD SVG 1.1//EN"
 "http://www.w3.org/Graphics/SVG/1.1/DTD/svg11.dtd">
<!-- Generated by graphviz version 2.43.0 (0)
 -->
<!-- Title: /home/tcbuilder/buildAgent/work/df8e8cce5bebfd58/libajantv2/ajabase/system/file_io.cpp Pages: 1 -->
<svg width="1387pt" height="274pt"
 viewBox="0.00 0.00 1387.00 274.00" xmlns="http://www.w3.org/2000/svg" xmlns:xlink="http://www.w3.org/1999/xlink">
<g id="graph0" class="graph" transform="scale(1 1) rotate(0) translate(4 270)">
<title>/home/tcbuilder/buildAgent/work/df8e8cce5bebfd58/libajantv2/ajabase/system/file_io.cpp</title>
<polygon fill="white" stroke="transparent" points="-4,4 -4,-270 1383,-270 1383,4 -4,4"/>
<!-- Node1 -->
<g id="node1" class="node">
<title>Node1</title>
<g id="a_node1"><a xlink:title="Implements the AJAFileIO class based on platform, Windows/Posix.">
<polygon fill="#bfbfbf" stroke="black" points="782,-224.5 782,-265.5 970,-265.5 970,-224.5 782,-224.5"/>
<text text-anchor="start" x="790" y="-253.5" font-family="Helvetica,sans-Serif" font-size="10.00">/home/tcbuilder/buildAgent</text>
<text text-anchor="start" x="790" y="-242.5" font-family="Helvetica,sans-Serif" font-size="10.00">/work/df8e8cce5bebfd58/libajantv2</text>
<text text-anchor="middle" x="876" y="-231.5" font-family="Helvetica,sans-Serif" font-size="10.00">/ajabase/system/file_io.cpp</text>
</a>
</g>
</g>
<!-- Node2 -->
<g id="node2" class="node">
<title>Node2</title>
<g id="a_node2"><a xlink:href="../../dc/d54/common_8h.html" target="_top" xlink:title="Private include file for all ajabase sources.">
<polygon fill="white" stroke="black" points="48.5,-56.5 48.5,-75.5 203.5,-75.5 203.5,-56.5 48.5,-56.5"/>
<text text-anchor="middle" x="126" y="-63.5" font-family="Helvetica,sans-Serif" font-size="10.00">ajabase/common/common.h</text>
</a>
</g>
</g>
<!-- Node1&#45;&gt;Node2 -->
<g id="edge1" class="edge">
<title>Node1&#45;&gt;Node2</title>
<path fill="none" stroke="midnightblue" d="M781.74,-241.55C637.54,-236.73 369.58,-223.21 281,-188 221.49,-164.34 165.96,-110.38 140.54,-83.23"/>
<polygon fill="midnightblue" stroke="midnightblue" points="142.99,-80.73 133.64,-75.73 137.83,-85.46 142.99,-80.73"/>
</g>
<!-- Node7 -->
<g id="node7" class="node">
<title>Node7</title>
<g id="a_node7"><a xlink:href="../../d9/d49/types_8h.html" target="_top" xlink:title="Declares common types used in the ajabase library.">
<polygon fill="white" stroke="black" points="446,-0.5 446,-19.5 586,-19.5 586,-0.5 446,-0.5"/>
<text text-anchor="middle" x="516" y="-7.5" font-family="Helvetica,sans-Serif" font-size="10.00">ajabase/common/types.h</text>
</a>
</g>
</g>
<!-- Node1&#45;&gt;Node7 -->
<g id="edge6" class="edge">
<title>Node1&#45;&gt;Node7</title>
<path fill="none" stroke="midnightblue" d="M781.81,-238.16C701.53,-231.26 594.32,-216.84 563,-188 518.36,-146.88 543.6,-114.66 528,-56 525.69,-47.3 523.11,-37.65 520.95,-29.53"/>
<polygon fill="midnightblue" stroke="midnightblue" points="524.26,-28.38 518.3,-19.63 517.5,-30.19 524.26,-28.38"/>
</g>
<!-- Node8 -->
<g id="node8" class="node">
<title>Node8</title>
<g id="a_node8"><a xlink:href="../../db/db8/file__io_8h.html" target="_top" xlink:title="Declares the AJAFileIO class.">
<polygon fill="white" stroke="black" points="289.5,-168.5 289.5,-187.5 424.5,-187.5 424.5,-168.5 289.5,-168.5"/>
<text text-anchor="middle" x="357" y="-175.5" font-family="Helvetica,sans-Serif" font-size="10.00">ajabase/system/file_io.h</text>
</a>
</g>
</g>
<!-- Node1&#45;&gt;Node8 -->
<g id="edge7" class="edge">
<title>Node1&#45;&gt;Node8</title>
<path fill="none" stroke="midnightblue" d="M781.71,-232.19C682.28,-219.74 527.44,-200.35 434.75,-188.74"/>
<polygon fill="midnightblue" stroke="midnightblue" points="434.95,-185.24 424.59,-187.47 434.08,-192.18 434.95,-185.24"/>
</g>
<!-- Node13 -->
<g id="node13" class="node">
<title>Node13</title>
<g id="a_node13"><a xlink:title=" ">
<polygon fill="white" stroke="#bfbfbf" points="572,-168.5 572,-187.5 644,-187.5 644,-168.5 572,-168.5"/>
<text text-anchor="middle" x="608" y="-175.5" font-family="Helvetica,sans-Serif" font-size="10.00">sys/types.h</text>
</a>
</g>
</g>
<!-- Node1&#45;&gt;Node13 -->
<g id="edge20" class="edge">
<title>Node1&#45;&gt;Node13</title>
<path fill="none" stroke="midnightblue" d="M795.59,-224.5C749.03,-213.2 692.12,-199.4 653.28,-189.98"/>
<polygon fill="midnightblue" stroke="midnightblue" points="653.87,-186.52 643.32,-187.57 652.22,-193.33 653.87,-186.52"/>
</g>
<!-- Node14 -->
<g id="node14" class="node">
<title>Node14</title>
<g id="a_node14"><a xlink:title=" ">
<polygon fill="white" stroke="#bfbfbf" points="662,-168.5 662,-187.5 726,-187.5 726,-168.5 662,-168.5"/>
<text text-anchor="middle" x="694" y="-175.5" font-family="Helvetica,sans-Serif" font-size="10.00">sys/stat.h</text>
</a>
</g>
</g>
<!-- Node1&#45;&gt;Node14 -->
<g id="edge21" class="edge">
<title>Node1&#45;&gt;Node14</title>
<path fill="none" stroke="midnightblue" d="M821.39,-224.5C790.94,-213.62 753.98,-200.42 727.73,-191.05"/>
<polygon fill="midnightblue" stroke="midnightblue" points="728.82,-187.72 718.23,-187.65 726.47,-194.31 728.82,-187.72"/>
</g>
<!-- Node15 -->
<g id="node15" class="node">
<title>Node15</title>
<g id="a_node15"><a xlink:title=" ">
<polygon fill="white" stroke="#bfbfbf" points="744,-168.5 744,-187.5 800,-187.5 800,-168.5 744,-168.5"/>
<text text-anchor="middle" x="772" y="-175.5" font-family="Helvetica,sans-Serif" font-size="10.00">sstream</text>
</a>
</g>
</g>
<!-- Node1&#45;&gt;Node15 -->
<g id="edge22" class="edge">
<title>Node1&#45;&gt;Node15</title>
<path fill="none" stroke="midnightblue" d="M844.8,-224.5C828.7,-214.44 809.42,-202.38 794.74,-193.21"/>
<polygon fill="midnightblue" stroke="midnightblue" points="796.18,-189.98 785.84,-187.65 792.47,-195.92 796.18,-189.98"/>
</g>
<!-- Node16 -->
<g id="node16" class="node">
<title>Node16</title>
<g id="a_node16"><a xlink:title=" ">
<polygon fill="white" stroke="#bfbfbf" points="818.5,-168.5 818.5,-187.5 865.5,-187.5 865.5,-168.5 818.5,-168.5"/>
<text text-anchor="middle" x="842" y="-175.5" font-family="Helvetica,sans-Serif" font-size="10.00">fcntl.h</text>
</a>
</g>
</g>
<!-- Node1&#45;&gt;Node16 -->
<g id="edge23" class="edge">
<title>Node1&#45;&gt;Node16</title>
<path fill="none" stroke="midnightblue" d="M865.8,-224.5C861.19,-215.68 855.78,-205.34 851.28,-196.74"/>
<polygon fill="midnightblue" stroke="midnightblue" points="854.26,-194.89 846.53,-187.65 848.06,-198.14 854.26,-194.89"/>
</g>
<!-- Node17 -->
<g id="node17" class="node">
<title>Node17</title>
<g id="a_node17"><a xlink:title=" ">
<polygon fill="white" stroke="#bfbfbf" points="884,-168.5 884,-187.5 938,-187.5 938,-168.5 884,-168.5"/>
<text text-anchor="middle" x="911" y="-175.5" font-family="Helvetica,sans-Serif" font-size="10.00">dirent.h</text>
</a>
</g>
</g>
<!-- Node1&#45;&gt;Node17 -->
<g id="edge24" class="edge">
<title>Node1&#45;&gt;Node17</title>
<path fill="none" stroke="midnightblue" d="M886.5,-224.5C891.3,-215.59 896.94,-205.11 901.6,-196.46"/>
<polygon fill="midnightblue" stroke="midnightblue" points="904.68,-198.12 906.34,-187.65 898.52,-194.8 904.68,-198.12"/>
</g>
<!-- Node18 -->
<g id="node18" class="node">
<title>Node18</title>
<g id="a_node18"><a xlink:title=" ">
<polygon fill="white" stroke="#bfbfbf" points="956,-168.5 956,-187.5 1022,-187.5 1022,-168.5 956,-168.5"/>
<text text-anchor="middle" x="989" y="-175.5" font-family="Helvetica,sans-Serif" font-size="10.00">fnmatch.h</text>
</a>
</g>
</g>
<!-- Node1&#45;&gt;Node18 -->
<g id="edge25" class="edge">
<title>Node1&#45;&gt;Node18</title>
<path fill="none" stroke="midnightblue" d="M909.9,-224.5C927.73,-214.24 949.15,-201.93 965.2,-192.69"/>
<polygon fill="midnightblue" stroke="midnightblue" points="967.03,-195.67 973.96,-187.65 963.54,-189.6 967.03,-195.67"/>
</g>
<!-- Node19 -->
<g id="node19" class="node">
<title>Node19</title>
<g id="a_node19"><a xlink:title=" ">
<polygon fill="white" stroke="#bfbfbf" points="1040.5,-168.5 1040.5,-187.5 1093.5,-187.5 1093.5,-168.5 1040.5,-168.5"/>
<text text-anchor="middle" x="1067" y="-175.5" font-family="Helvetica,sans-Serif" font-size="10.00">limits.h</text>
</a>
</g>
</g>
<!-- Node1&#45;&gt;Node19 -->
<g id="edge26" class="edge">
<title>Node1&#45;&gt;Node19</title>
<path fill="none" stroke="midnightblue" d="M933.31,-224.5C965.41,-213.57 1004.4,-200.3 1031.97,-190.92"/>
<polygon fill="midnightblue" stroke="midnightblue" points="1033.24,-194.19 1041.57,-187.65 1030.98,-187.56 1033.24,-194.19"/>
</g>
<!-- Node20 -->
<g id="node20" class="node">
<title>Node20</title>
<g id="a_node20"><a xlink:title=" ">
<polygon fill="white" stroke="#bfbfbf" points="1112,-168.5 1112,-187.5 1162,-187.5 1162,-168.5 1112,-168.5"/>
<text text-anchor="middle" x="1137" y="-175.5" font-family="Helvetica,sans-Serif" font-size="10.00">stdio.h</text>
</a>
</g>
</g>
<!-- Node1&#45;&gt;Node20 -->
<g id="edge27" class="edge">
<title>Node1&#45;&gt;Node20</title>
<path fill="none" stroke="midnightblue" d="M956.71,-224.44C997.66,-214.43 1048.4,-201.91 1102.07,-188.21"/>
<polygon fill="midnightblue" stroke="midnightblue" points="1102.94,-191.6 1111.76,-185.73 1101.21,-184.82 1102.94,-191.6"/>
</g>
<!-- Node21 -->
<g id="node21" class="node">
<title>Node21</title>
<g id="a_node21"><a xlink:title=" ">
<polygon fill="white" stroke="#bfbfbf" points="1180.5,-168.5 1180.5,-187.5 1233.5,-187.5 1233.5,-168.5 1180.5,-168.5"/>
<text text-anchor="middle" x="1207" y="-175.5" font-family="Helvetica,sans-Serif" font-size="10.00">stdlib.h</text>
</a>
</g>
</g>
<!-- Node1&#45;&gt;Node21 -->
<g id="edge28" class="edge">
<title>Node1&#45;&gt;Node21</title>
<path fill="none" stroke="midnightblue" d="M970.28,-227.53C1025.83,-217.48 1097.69,-203.91 1170.49,-188.01"/>
<polygon fill="midnightblue" stroke="midnightblue" points="1171.29,-191.42 1180.3,-185.86 1169.79,-184.58 1171.29,-191.42"/>
</g>
<!-- Node22 -->
<g id="node22" class="node">
<title>Node22</title>
<g id="a_node22"><a xlink:title=" ">
<polygon fill="white" stroke="#bfbfbf" points="1251.5,-168.5 1251.5,-187.5 1304.5,-187.5 1304.5,-168.5 1251.5,-168.5"/>
<text text-anchor="middle" x="1278" y="-175.5" font-family="Helvetica,sans-Serif" font-size="10.00">string.h</text>
</a>
</g>
</g>
<!-- Node1&#45;&gt;Node22 -->
<g id="edge29" class="edge">
<title>Node1&#45;&gt;Node22</title>
<path fill="none" stroke="midnightblue" d="M970.36,-232.25C1042.29,-222.68 1143.94,-207.83 1241.3,-188.2"/>
<polygon fill="midnightblue" stroke="midnightblue" points="1242.21,-191.58 1251.31,-186.16 1240.81,-184.72 1242.21,-191.58"/>
</g>
<!-- Node23 -->
<g id="node23" class="node">
<title>Node23</title>
<g id="a_node23"><a xlink:title=" ">
<polygon fill="white" stroke="#bfbfbf" points="1323,-168.5 1323,-187.5 1379,-187.5 1379,-168.5 1323,-168.5"/>
<text text-anchor="middle" x="1351" y="-175.5" font-family="Helvetica,sans-Serif" font-size="10.00">unistd.h</text>
</a>
</g>
</g>
<!-- Node1&#45;&gt;Node23 -->
<g id="edge30" class="edge">
<title>Node1&#45;&gt;Node23</title>
<path fill="none" stroke="midnightblue" d="M970.03,-235.04C1056.7,-226.08 1189.02,-210.63 1312.75,-188.05"/>
<polygon fill="midnightblue" stroke="midnightblue" points="1313.59,-191.46 1322.79,-186.21 1312.32,-184.58 1313.59,-191.46"/>
</g>
<!-- Node3 -->
<g id="node3" class="node">
<title>Node3</title>
<g id="a_node3"><a xlink:href="../../db/db5/export_8h.html" target="_top" xlink:title="Declares system&#45;dependent import/export macros and libraries.">
<polygon fill="white" stroke="black" points="50,-0.5 50,-19.5 194,-19.5 194,-0.5 50,-0.5"/>
<text text-anchor="middle" x="122" y="-7.5" font-family="Helvetica,sans-Serif" font-size="10.00">ajabase/common/export.h</text>
</a>
</g>
</g>
<!-- Node2&#45;&gt;Node3 -->
<g id="edge2" class="edge">
<title>Node2&#45;&gt;Node3</title>
<path fill="none" stroke="midnightblue" d="M125.34,-56.08C124.82,-49.01 124.06,-38.86 123.41,-29.99"/>
<polygon fill="midnightblue" stroke="midnightblue" points="126.88,-29.47 122.65,-19.75 119.9,-29.98 126.88,-29.47"/>
</g>
<!-- Node4 -->
<g id="node4" class="node">
<title>Node4</title>
<g id="a_node4"><a xlink:title=" ">
<polygon fill="white" stroke="#bfbfbf" points="0,-0.5 0,-19.5 32,-19.5 32,-0.5 0,-0.5"/>
<text text-anchor="middle" x="16" y="-7.5" font-family="Helvetica,sans-Serif" font-size="10.00">set</text>
</a>
</g>
</g>
<!-- Node2&#45;&gt;Node4 -->
<g id="edge3" class="edge">
<title>Node2&#45;&gt;Node4</title>
<path fill="none" stroke="midnightblue" d="M108.33,-56.32C90.19,-47.42 61.79,-33.48 41.28,-23.41"/>
<polygon fill="midnightblue" stroke="midnightblue" points="42.71,-20.22 32.2,-18.95 39.63,-26.5 42.71,-20.22"/>
</g>
<!-- Node5 -->
<g id="node5" class="node">
<title>Node5</title>
<g id="a_node5"><a xlink:title=" ">
<polygon fill="white" stroke="#bfbfbf" points="278,-0.5 278,-19.5 322,-19.5 322,-0.5 278,-0.5"/>
<text text-anchor="middle" x="300" y="-7.5" font-family="Helvetica,sans-Serif" font-size="10.00">string</text>
</a>
</g>
</g>
<!-- Node2&#45;&gt;Node5 -->
<g id="edge4" class="edge">
<title>Node2&#45;&gt;Node5</title>
<path fill="none" stroke="midnightblue" d="M153.57,-56.44C184.75,-46.77 235.43,-31.04 268.24,-20.86"/>
<polygon fill="midnightblue" stroke="midnightblue" points="269.29,-24.2 277.8,-17.89 267.22,-17.51 269.29,-24.2"/>
</g>
<!-- Node6 -->
<g id="node6" class="node">
<title>Node6</title>
<g id="a_node6"><a xlink:title=" ">
<polygon fill="white" stroke="#bfbfbf" points="212.5,-0.5 212.5,-19.5 259.5,-19.5 259.5,-0.5 212.5,-0.5"/>
<text text-anchor="middle" x="236" y="-7.5" font-family="Helvetica,sans-Serif" font-size="10.00">vector</text>
</a>
</g>
</g>
<!-- Node2&#45;&gt;Node6 -->
<g id="edge5" class="edge">
<title>Node2&#45;&gt;Node6</title>
<path fill="none" stroke="midnightblue" d="M143.67,-56.32C161.39,-47.62 188.9,-34.12 209.29,-24.11"/>
<polygon fill="midnightblue" stroke="midnightblue" points="210.94,-27.2 218.37,-19.65 207.85,-20.92 210.94,-27.2"/>
</g>
<!-- Node8&#45;&gt;Node5 -->
<g id="edge19" class="edge">
<title>Node8&#45;&gt;Node5</title>
<path fill="none" stroke="midnightblue" d="M348.03,-168.33C331.98,-152.07 299.1,-115.09 289,-76 284.97,-60.42 288.69,-42.34 292.86,-29.21"/>
<polygon fill="midnightblue" stroke="midnightblue" points="296.25,-30.11 296.3,-19.51 289.66,-27.76 296.25,-30.11"/>
</g>
<!-- Node8&#45;&gt;Node6 -->
<g id="edge18" class="edge">
<title>Node8&#45;&gt;Node6</title>
<path fill="none" stroke="midnightblue" d="M342.98,-168.37C330.53,-160.17 312.43,-146.92 300,-132 273.1,-99.71 252.83,-54.3 242.86,-29.29"/>
<polygon fill="midnightblue" stroke="midnightblue" points="246,-27.71 239.12,-19.65 239.47,-30.23 246,-27.71"/>
</g>
<!-- Node8&#45;&gt;Node7 -->
<g id="edge8" class="edge">
<title>Node8&#45;&gt;Node7</title>
<path fill="none" stroke="midnightblue" d="M419.74,-168.43C443.83,-162.11 469.68,-151.11 487,-132 512.91,-103.42 516.78,-55.84 516.76,-29.67"/>
<polygon fill="midnightblue" stroke="midnightblue" points="520.25,-29.51 516.55,-19.59 513.26,-29.66 520.25,-29.51"/>
</g>
<!-- Node9 -->
<g id="node9" class="node">
<title>Node9</title>
<g id="a_node9"><a xlink:href="../../d4/d79/public_8h.html" target="_top" xlink:title="Master header for the ajabase library.">
<polygon fill="white" stroke="black" points="298,-56.5 298,-75.5 440,-75.5 440,-56.5 298,-56.5"/>
<text text-anchor="middle" x="369" y="-63.5" font-family="Helvetica,sans-Serif" font-size="10.00">ajabase/common/public.h</text>
</a>
</g>
</g>
<!-- Node8&#45;&gt;Node9 -->
<g id="edge9" class="edge">
<title>Node8&#45;&gt;Node9</title>
<path fill="none" stroke="midnightblue" d="M348.08,-168.31C336.56,-155.97 318.89,-132.58 327,-112 331.51,-100.55 340.47,-90.29 348.95,-82.47"/>
<polygon fill="midnightblue" stroke="midnightblue" points="351.47,-84.93 356.79,-75.76 346.91,-79.61 351.47,-84.93"/>
</g>
<!-- Node12 -->
<g id="node12" class="node">
<title>Node12</title>
<g id="a_node12"><a xlink:href="../../dc/db2/system_8h.html" target="_top" xlink:title="System specific functions.">
<polygon fill="white" stroke="black" points="336,-112.5 336,-131.5 478,-131.5 478,-112.5 336,-112.5"/>
<text text-anchor="middle" x="407" y="-119.5" font-family="Helvetica,sans-Serif" font-size="10.00">ajabase/system/system.h</text>
</a>
</g>
</g>
<!-- Node8&#45;&gt;Node12 -->
<g id="edge16" class="edge">
<title>Node8&#45;&gt;Node12</title>
<path fill="none" stroke="midnightblue" d="M365.26,-168.08C372.46,-160.3 383.11,-148.8 391.85,-139.37"/>
<polygon fill="midnightblue" stroke="midnightblue" points="394.67,-141.47 398.9,-131.75 389.53,-136.71 394.67,-141.47"/>
</g>
<!-- Node9&#45;&gt;Node3 -->
<g id="edge10" class="edge">
<title>Node9&#45;&gt;Node3</title>
<path fill="none" stroke="midnightblue" d="M329.86,-56.44C286.77,-47.02 217.44,-31.87 170.83,-21.68"/>
<polygon fill="midnightblue" stroke="midnightblue" points="171.47,-18.23 160.95,-19.52 169.98,-25.07 171.47,-18.23"/>
</g>
<!-- Node9&#45;&gt;Node5 -->
<g id="edge11" class="edge">
<title>Node9&#45;&gt;Node5</title>
<path fill="none" stroke="midnightblue" d="M357.91,-56.32C347.51,-48.18 331.74,-35.84 319.28,-26.09"/>
<polygon fill="midnightblue" stroke="midnightblue" points="321.32,-23.24 311.29,-19.83 317.01,-28.75 321.32,-23.24"/>
</g>
<!-- Node9&#45;&gt;Node6 -->
<g id="edge13" class="edge">
<title>Node9&#45;&gt;Node6</title>
<path fill="none" stroke="midnightblue" d="M347.93,-56.44C325.94,-47.52 291.27,-33.44 266.34,-23.32"/>
<polygon fill="midnightblue" stroke="midnightblue" points="267.56,-20.04 256.98,-19.52 264.92,-26.52 267.56,-20.04"/>
</g>
<!-- Node9&#45;&gt;Node7 -->
<g id="edge15" class="edge">
<title>Node9&#45;&gt;Node7</title>
<path fill="none" stroke="midnightblue" d="M392.29,-56.44C416.81,-47.44 455.6,-33.19 483.2,-23.05"/>
<polygon fill="midnightblue" stroke="midnightblue" points="484.64,-26.25 492.82,-19.52 482.22,-19.68 484.64,-26.25"/>
</g>
<!-- Node10 -->
<g id="node10" class="node">
<title>Node10</title>
<g id="a_node10"><a xlink:title=" ">
<polygon fill="white" stroke="#bfbfbf" points="396,-0.5 396,-19.5 428,-19.5 428,-0.5 396,-0.5"/>
<text text-anchor="middle" x="412" y="-7.5" font-family="Helvetica,sans-Serif" font-size="10.00">list</text>
</a>
</g>
</g>
<!-- Node9&#45;&gt;Node10 -->
<g id="edge12" class="edge">
<title>Node9&#45;&gt;Node10</title>
<path fill="none" stroke="midnightblue" d="M376.1,-56.08C382.24,-48.38 391.27,-37.03 398.74,-27.65"/>
<polygon fill="midnightblue" stroke="midnightblue" points="401.54,-29.75 405.03,-19.75 396.06,-25.39 401.54,-29.75"/>
</g>
<!-- Node11 -->
<g id="node11" class="node">
<title>Node11</title>
<g id="a_node11"><a xlink:title=" ">
<polygon fill="white" stroke="#bfbfbf" points="340,-0.5 340,-19.5 378,-19.5 378,-0.5 340,-0.5"/>
<text text-anchor="middle" x="359" y="-7.5" font-family="Helvetica,sans-Serif" font-size="10.00">map</text>
</a>
</g>
</g>
<!-- Node9&#45;&gt;Node11 -->
<g id="edge14" class="edge">
<title>Node9&#45;&gt;Node11</title>
<path fill="none" stroke="midnightblue" d="M367.35,-56.08C366.02,-48.93 364.12,-38.64 362.46,-29.69"/>
<polygon fill="midnightblue" stroke="midnightblue" points="365.88,-28.95 360.62,-19.75 359,-30.22 365.88,-28.95"/>
</g>
<!-- Node12&#45;&gt;Node9 -->
<g id="edge17" class="edge">
<title>Node12&#45;&gt;Node9</title>
<path fill="none" stroke="midnightblue" d="M400.73,-112.08C395.36,-104.46 387.48,-93.26 380.92,-83.94"/>
<polygon fill="midnightblue" stroke="midnightblue" points="383.78,-81.91 375.16,-75.75 378.05,-85.94 383.78,-81.91"/>
</g>
</g>
</svg>
