<?xml version="1.0" encoding="UTF-8" standalone="no"?>
<!DOCTYPE svg PUBLIC "-//W3C//DTD SVG 1.1//EN"
 "http://www.w3.org/Graphics/SVG/1.1/DTD/svg11.dtd">
<!-- Generated by graphviz version 2.43.0 (0)
 -->
<!-- Title: HevcMessageDebug Pages: 1 -->
<svg width="320pt" height="240pt"
 viewBox="0.00 0.00 320.00 240.00" xmlns="http://www.w3.org/2000/svg" xmlns:xlink="http://www.w3.org/1999/xlink">
<g id="graph0" class="graph" transform="scale(1 1) rotate(0) translate(4 236)">
<title>HevcMessageDebug</title>
<polygon fill="white" stroke="transparent" points="-4,4 -4,-236 316,-236 316,4 -4,4"/>
<!-- Node1 -->
<g id="node1" class="node">
<title>Node1</title>
<g id="a_node1"><a xlink:title=" ">
<polygon fill="#bfbfbf" stroke="black" points="31.5,-0.5 31.5,-19.5 147.5,-19.5 147.5,-0.5 31.5,-0.5"/>
<text text-anchor="middle" x="89.5" y="-7.5" font-family="Helvetica,sans-Serif" font-size="10.00">HevcMessageDebug</text>
</a>
</g>
</g>
<!-- Node2 -->
<g id="node2" class="node">
<title>Node2</title>
<g id="a_node2"><a xlink:href="../../d2/d9b/structhevc_message_header.html" target="_top" xlink:title=" ">
<polygon fill="white" stroke="black" points="0,-67.5 0,-86.5 119,-86.5 119,-67.5 0,-67.5"/>
<text text-anchor="middle" x="59.5" y="-74.5" font-family="Helvetica,sans-Serif" font-size="10.00">hevcMessageHeader</text>
</a>
</g>
</g>
<!-- Node2&#45;&gt;Node1 -->
<g id="edge1" class="edge">
<title>Node2&#45;&gt;Node1</title>
<path fill="none" stroke="#9a32cd" stroke-dasharray="5,2" d="M67.9,-57.79C73.67,-45.31 81.05,-29.31 85.52,-19.63"/>
<polygon fill="#9a32cd" stroke="#9a32cd" points="64.56,-56.69 63.55,-67.23 70.91,-59.62 64.56,-56.69"/>
<text text-anchor="middle" x="95" y="-41" font-family="Helvetica,sans-Serif" font-size="10.00"> header</text>
</g>
<!-- Node3 -->
<g id="node3" class="node">
<title>Node3</title>
<g id="a_node3"><a xlink:href="../../d1/d60/struct_hevc_device_debug.html" target="_top" xlink:title=" ">
<polygon fill="white" stroke="black" points="137,-67.5 137,-86.5 244,-86.5 244,-67.5 137,-67.5"/>
<text text-anchor="middle" x="190.5" y="-74.5" font-family="Helvetica,sans-Serif" font-size="10.00">HevcDeviceDebug</text>
</a>
</g>
</g>
<!-- Node3&#45;&gt;Node1 -->
<g id="edge2" class="edge">
<title>Node3&#45;&gt;Node1</title>
<path fill="none" stroke="#9a32cd" stroke-dasharray="5,2" d="M168.39,-61.77C148.39,-48.9 119.61,-30.38 102.91,-19.63"/>
<polygon fill="#9a32cd" stroke="#9a32cd" points="166.58,-64.77 176.88,-67.23 170.36,-58.88 166.58,-64.77"/>
<text text-anchor="middle" x="159" y="-41" font-family="Helvetica,sans-Serif" font-size="10.00"> data</text>
</g>
<!-- Node4 -->
<g id="node4" class="node">
<title>Node4</title>
<g id="a_node4"><a xlink:href="../../d1/d37/struct_hevc_device_status.html" target="_top" xlink:title=" ">
<polygon fill="white" stroke="black" points="58.5,-145.5 58.5,-164.5 164.5,-164.5 164.5,-145.5 58.5,-145.5"/>
<text text-anchor="middle" x="111.5" y="-152.5" font-family="Helvetica,sans-Serif" font-size="10.00">HevcDeviceStatus</text>
</a>
</g>
</g>
<!-- Node4&#45;&gt;Node3 -->
<g id="edge3" class="edge">
<title>Node4&#45;&gt;Node3</title>
<path fill="none" stroke="#9a32cd" stroke-dasharray="5,2" d="M119.04,-136.31C124.02,-126.21 131.31,-113.84 140.5,-105 148.61,-97.21 159.41,-91 168.9,-86.51"/>
<polygon fill="#9a32cd" stroke="#9a32cd" points="115.84,-134.89 114.86,-145.44 122.21,-137.81 115.84,-134.89"/>
<text text-anchor="middle" x="174" y="-113.5" font-family="Helvetica,sans-Serif" font-size="10.00"> deviceStatus</text>
</g>
<!-- Node5 -->
<g id="node5" class="node">
<title>Node5</title>
<g id="a_node5"><a xlink:href="../../dd/dbf/structhevc__gpio__state.html" target="_top" xlink:title=" ">
<polygon fill="white" stroke="black" points="63.5,-212.5 63.5,-231.5 159.5,-231.5 159.5,-212.5 63.5,-212.5"/>
<text text-anchor="middle" x="111.5" y="-219.5" font-family="Helvetica,sans-Serif" font-size="10.00">hevc_gpio_state</text>
</a>
</g>
</g>
<!-- Node5&#45;&gt;Node4 -->
<g id="edge4" class="edge">
<title>Node5&#45;&gt;Node4</title>
<path fill="none" stroke="#9a32cd" stroke-dasharray="5,2" d="M111.5,-202.04C111.5,-189.67 111.5,-174.12 111.5,-164.63"/>
<polygon fill="#9a32cd" stroke="#9a32cd" points="108,-202.23 111.5,-212.23 115,-202.23 108,-202.23"/>
<text text-anchor="middle" x="136.5" y="-186" font-family="Helvetica,sans-Serif" font-size="10.00"> gpioState</text>
</g>
<!-- Node6 -->
<g id="node6" class="node">
<title>Node6</title>
<g id="a_node6"><a xlink:href="../../d9/d1f/structhevc__stream__statistics.html" target="_top" xlink:title=" ">
<polygon fill="white" stroke="black" points="183,-145.5 183,-164.5 312,-164.5 312,-145.5 183,-145.5"/>
<text text-anchor="middle" x="247.5" y="-152.5" font-family="Helvetica,sans-Serif" font-size="10.00">hevc_stream_statistics</text>
</a>
</g>
</g>
<!-- Node6&#45;&gt;Node3 -->
<g id="edge5" class="edge">
<title>Node6&#45;&gt;Node3</title>
<path fill="none" stroke="#9a32cd" stroke-dasharray="5,2" d="M234.75,-137.01C223.03,-121.37 206.11,-98.81 196.96,-86.62"/>
<polygon fill="#9a32cd" stroke="#9a32cd" points="232.16,-139.38 240.96,-145.28 237.76,-135.18 232.16,-139.38"/>
<text text-anchor="middle" x="248.5" y="-119" font-family="Helvetica,sans-Serif" font-size="10.00"> encStats</text>
<text text-anchor="middle" x="248.5" y="-108" font-family="Helvetica,sans-Serif" font-size="10.00">rawStats</text>
</g>
</g>
</svg>
