<?xml version="1.0" encoding="UTF-8" standalone="no"?>
<!DOCTYPE svg PUBLIC "-//W3C//DTD SVG 1.1//EN"
 "http://www.w3.org/Graphics/SVG/1.1/DTD/svg11.dtd">
<!-- Generated by graphviz version 2.43.0 (0)
 -->
<!-- Title: /home/tcbuilder/buildAgent/work/df8e8cce5bebfd58/libajantv2/demos/ntv2burn4kquadrant/ntv2burn4kquadrant.h Pages: 1 -->
<svg width="506pt" height="128pt"
 viewBox="0.00 0.00 506.00 128.00" xmlns="http://www.w3.org/2000/svg" xmlns:xlink="http://www.w3.org/1999/xlink">
<g id="graph0" class="graph" transform="scale(1 1) rotate(0) translate(4 124)">
<title>/home/tcbuilder/buildAgent/work/df8e8cce5bebfd58/libajantv2/demos/ntv2burn4kquadrant/ntv2burn4kquadrant.h</title>
<polygon fill="white" stroke="transparent" points="-4,4 -4,-124 502,-124 502,4 -4,4"/>
<!-- Node1 -->
<g id="node1" class="node">
<title>Node1</title>
<g id="a_node1"><a xlink:title="Header file for the NTV2Burn4KQuadrant demonstration class.">
<polygon fill="#bfbfbf" stroke="black" points="97.5,-78.5 97.5,-119.5 363.5,-119.5 363.5,-78.5 97.5,-78.5"/>
<text text-anchor="start" x="105.5" y="-107.5" font-family="Helvetica,sans-Serif" font-size="10.00">/home/tcbuilder/buildAgent</text>
<text text-anchor="start" x="105.5" y="-96.5" font-family="Helvetica,sans-Serif" font-size="10.00">/work/df8e8cce5bebfd58/libajantv2</text>
<text text-anchor="middle" x="230.5" y="-85.5" font-family="Helvetica,sans-Serif" font-size="10.00">/demos/ntv2burn4kquadrant/ntv2burn4kquadrant.h</text>
</a>
</g>
</g>
<!-- Node2 -->
<g id="node2" class="node">
<title>Node2</title>
<g id="a_node2"><a xlink:href="../../da/d8f/ntv2burn4kquadrant_2main_8cpp.html" target="_top" xlink:title="Demonstration application to &quot;burn&quot; timecode into frames captured from SDI input, and play out the mo...">
<polygon fill="white" stroke="black" points="0,-0.5 0,-41.5 203,-41.5 203,-0.5 0,-0.5"/>
<text text-anchor="start" x="8" y="-29.5" font-family="Helvetica,sans-Serif" font-size="10.00">/home/tcbuilder/buildAgent</text>
<text text-anchor="start" x="8" y="-18.5" font-family="Helvetica,sans-Serif" font-size="10.00">/work/df8e8cce5bebfd58/libajantv2</text>
<text text-anchor="middle" x="101.5" y="-7.5" font-family="Helvetica,sans-Serif" font-size="10.00">/demos/ntv2burn4kquadrant/main.cpp</text>
</a>
</g>
</g>
<!-- Node1&#45;&gt;Node2 -->
<g id="edge1" class="edge">
<title>Node1&#45;&gt;Node2</title>
<path fill="none" stroke="midnightblue" d="M188.41,-73.2C170.95,-62.92 150.99,-51.16 134.61,-41.51"/>
<polygon fill="midnightblue" stroke="midnightblue" points="186.89,-76.37 197.28,-78.43 190.44,-70.34 186.89,-76.37"/>
</g>
<!-- Node3 -->
<g id="node3" class="node">
<title>Node3</title>
<g id="a_node3"><a xlink:href="../../d0/dc9/ntv2burn4kquadrant_8cpp.html" target="_top" xlink:title="Implementation of NTV2Burn4KQuadrant demonstration class.">
<polygon fill="white" stroke="black" points="221,-0.5 221,-41.5 498,-41.5 498,-0.5 221,-0.5"/>
<text text-anchor="start" x="229" y="-29.5" font-family="Helvetica,sans-Serif" font-size="10.00">/home/tcbuilder/buildAgent</text>
<text text-anchor="start" x="229" y="-18.5" font-family="Helvetica,sans-Serif" font-size="10.00">/work/df8e8cce5bebfd58/libajantv2</text>
<text text-anchor="middle" x="359.5" y="-7.5" font-family="Helvetica,sans-Serif" font-size="10.00">/demos/ntv2burn4kquadrant/ntv2burn4kquadrant.cpp</text>
</a>
</g>
</g>
<!-- Node1&#45;&gt;Node3 -->
<g id="edge2" class="edge">
<title>Node1&#45;&gt;Node3</title>
<path fill="none" stroke="midnightblue" d="M272.59,-73.2C290.05,-62.92 310.01,-51.16 326.39,-41.51"/>
<polygon fill="midnightblue" stroke="midnightblue" points="270.56,-70.34 263.72,-78.43 274.11,-76.37 270.56,-70.34"/>
</g>
</g>
</svg>
