<?xml version="1.0" encoding="UTF-8" standalone="no"?>
<!DOCTYPE svg PUBLIC "-//W3C//DTD SVG 1.1//EN"
 "http://www.w3.org/Graphics/SVG/1.1/DTD/svg11.dtd">
<!-- Generated by graphviz version 2.43.0 (0)
 -->
<!-- Title: /home/tcbuilder/buildAgent/work/df8e8cce5bebfd58/libajantv2/ajantv2/src/mac Pages: 1 -->
<svg width="154pt" height="151pt"
 viewBox="0.00 0.00 153.50 151.00" xmlns="http://www.w3.org/2000/svg" xmlns:xlink="http://www.w3.org/1999/xlink">
<g id="graph0" class="graph" transform="scale(1 1) rotate(0) translate(4 147)">
<title>/home/tcbuilder/buildAgent/work/df8e8cce5bebfd58/libajantv2/ajantv2/src/mac</title>
<polygon fill="white" stroke="transparent" points="-4,4 -4,-147 149.5,-147 149.5,4 -4,4"/>
<g id="clust1" class="cluster">
<title>clusterdir_d66cab0a9fa222c6d93e473efea2c462</title>
<g id="a_clust1"><a xlink:href="dir_d66cab0a9fa222c6d93e473efea2c462.html" target="_top" xlink:title="src">
<polygon fill="#ddddee" stroke="black" points="8,-64 8,-135 78,-135 78,-64 8,-64"/>
<text text-anchor="middle" x="43" y="-123" font-family="Helvetica,sans-Serif" font-size="10.00">src</text>
</a>
</g>
</g>
<!-- dir_536d6d4e1a2dfcbbef62c18088e5893b -->
<g id="node1" class="node">
<title>dir_536d6d4e1a2dfcbbef62c18088e5893b</title>
<g id="a_node1"><a xlink:href="dir_536d6d4e1a2dfcbbef62c18088e5893b.html" target="_top" xlink:title="mac">
<polygon fill="#eeeeff" stroke="black" points="70,-108 16,-108 16,-72 70,-72 70,-108"/>
<text text-anchor="middle" x="43" y="-87.5" font-family="Helvetica,sans-Serif" font-size="10.00">mac</text>
</a>
</g>
</g>
<!-- dir_a1e7971ee2787a8222fe6a5c9384fcca -->
<g id="node2" class="node">
<title>dir_a1e7971ee2787a8222fe6a5c9384fcca</title>
<g id="a_node2"><a xlink:href="dir_a1e7971ee2787a8222fe6a5c9384fcca.html" target="_top" xlink:title="includes">
<polygon fill="none" stroke="black" points="145.5,-108 88.5,-108 88.5,-72 145.5,-72 145.5,-108"/>
<text text-anchor="middle" x="117" y="-87.5" font-family="Helvetica,sans-Serif" font-size="10.00">includes</text>
</a>
</g>
</g>
<!-- dir_536d6d4e1a2dfcbbef62c18088e5893b&#45;&gt;dir_a1e7971ee2787a8222fe6a5c9384fcca -->
<g id="edge3" class="edge">
<title>dir_536d6d4e1a2dfcbbef62c18088e5893b&#45;&gt;dir_a1e7971ee2787a8222fe6a5c9384fcca</title>
<path fill="none" stroke="black" d="M70.17,-90C72.93,-90 75.7,-90 78.46,-90"/>
<polygon fill="black" stroke="black" points="78.46,-93.5 88.46,-90 78.46,-86.5 78.46,-93.5"/>
<g id="a_edge3&#45;headlabel"><a xlink:href="dir_000023_000019.html" target="_top" xlink:title="6">
<text text-anchor="middle" x="74.87" y="-93.84" font-family="Helvetica,sans-Serif" font-size="10.00">6</text>
</a>
</g>
</g>
<!-- dir_e87eb6ce74e63cd1183c59eb94e728a6 -->
<g id="node3" class="node">
<title>dir_e87eb6ce74e63cd1183c59eb94e728a6</title>
<g id="a_node3"><a xlink:href="dir_e87eb6ce74e63cd1183c59eb94e728a6.html" target="_top" xlink:title="ajabase">
<polygon fill="white" stroke="red" points="144.5,-36 89.5,-36 89.5,0 144.5,0 144.5,-36"/>
<text text-anchor="middle" x="117" y="-15.5" font-family="Helvetica,sans-Serif" font-size="10.00">ajabase</text>
</a>
</g>
</g>
<!-- dir_536d6d4e1a2dfcbbef62c18088e5893b&#45;&gt;dir_e87eb6ce74e63cd1183c59eb94e728a6 -->
<g id="edge4" class="edge">
<title>dir_536d6d4e1a2dfcbbef62c18088e5893b&#45;&gt;dir_e87eb6ce74e63cd1183c59eb94e728a6</title>
<path fill="none" stroke="black" d="M61.29,-71.7C70.43,-63.05 81.64,-52.45 91.6,-43.03"/>
<polygon fill="black" stroke="black" points="94.06,-45.52 98.92,-36.1 89.25,-40.43 94.06,-45.52"/>
<g id="a_edge4&#45;headlabel"><a xlink:href="dir_000023_000007.html" target="_top" xlink:title="4">
<text text-anchor="middle" x="93.4" y="-47.55" font-family="Helvetica,sans-Serif" font-size="10.00">4</text>
</a>
</g>
</g>
<!-- dir_a1e7971ee2787a8222fe6a5c9384fcca&#45;&gt;dir_536d6d4e1a2dfcbbef62c18088e5893b -->
<g id="edge1" class="edge">
<title>dir_a1e7971ee2787a8222fe6a5c9384fcca&#45;&gt;dir_536d6d4e1a2dfcbbef62c18088e5893b</title>
<path fill="none" stroke="black" d="M88.46,-90C85.7,-90 82.94,-90 80.18,-90"/>
<polygon fill="black" stroke="black" points="80.17,-86.5 70.17,-90 80.17,-93.5 80.17,-86.5"/>
<g id="a_edge1&#45;headlabel"><a xlink:href="dir_000019_000023.html" target="_top" xlink:title="1">
<text text-anchor="middle" x="83.77" y="-81.16" font-family="Helvetica,sans-Serif" font-size="10.00">1</text>
</a>
</g>
</g>
<!-- dir_a1e7971ee2787a8222fe6a5c9384fcca&#45;&gt;dir_e87eb6ce74e63cd1183c59eb94e728a6 -->
<g id="edge2" class="edge">
<title>dir_a1e7971ee2787a8222fe6a5c9384fcca&#45;&gt;dir_e87eb6ce74e63cd1183c59eb94e728a6</title>
<path fill="none" stroke="black" d="M111.08,-71.7C110.29,-63.98 110.06,-54.71 110.4,-46.11"/>
<polygon fill="black" stroke="black" points="113.9,-46.32 111.1,-36.1 106.92,-45.84 113.9,-46.32"/>
<g id="a_edge2&#45;headlabel"><a xlink:href="dir_000019_000007.html" target="_top" xlink:title="5">
<text text-anchor="middle" x="116.48" y="-47.61" font-family="Helvetica,sans-Serif" font-size="10.00">5</text>
</a>
</g>
</g>
<!-- dir_e87eb6ce74e63cd1183c59eb94e728a6&#45;&gt;dir_a1e7971ee2787a8222fe6a5c9384fcca -->
<g id="edge5" class="edge">
<title>dir_e87eb6ce74e63cd1183c59eb94e728a6&#45;&gt;dir_a1e7971ee2787a8222fe6a5c9384fcca</title>
<path fill="none" stroke="black" d="M122.9,-36.1C123.7,-43.79 123.94,-53.05 123.6,-61.67"/>
<polygon fill="black" stroke="black" points="120.11,-61.48 122.92,-71.7 127.09,-61.96 120.11,-61.48"/>
<g id="a_edge5&#45;headlabel"><a xlink:href="dir_000007_000019.html" target="_top" xlink:title="1">
<text text-anchor="middle" x="117.52" y="-55.2" font-family="Helvetica,sans-Serif" font-size="10.00">1</text>
</a>
</g>
</g>
</g>
</svg>
