<?xml version="1.0" encoding="UTF-8" standalone="no"?>
<!DOCTYPE svg PUBLIC "-//W3C//DTD SVG 1.1//EN"
 "http://www.w3.org/Graphics/SVG/1.1/DTD/svg11.dtd">
<!-- Generated by graphviz version 2.43.0 (0)
 -->
<!-- Title: Graphical Class Hierarchy Pages: 1 -->
<svg width="899pt" height="1248pt"
 viewBox="0.00 0.00 899.00 1248.00" xmlns="http://www.w3.org/2000/svg" xmlns:xlink="http://www.w3.org/1999/xlink">
<g id="graph0" class="graph" transform="scale(1 1) rotate(0) translate(4 1244)">
<title>Graphical Class Hierarchy</title>
<polygon fill="white" stroke="transparent" points="-4,4 -4,-1244 895,-1244 895,4 -4,4"/>
<!-- Node47 -->
<g id="node1" class="node">
<title>Node47</title>
<g id="a_node1"><a xlink:title=" ">
<polygon fill="white" stroke="#bfbfbf" points="0,-559 0,-578 63,-578 63,-559 0,-559"/>
<text text-anchor="middle" x="31.5" y="-566" font-family="Helvetica,sans-Serif" font-size="10.00">true_type</text>
</a>
</g>
</g>
<!-- Node0 -->
<g id="node2" class="node">
<title>Node0</title>
<g id="a_node2"><a xlink:href="d7/d51/structnlohmann_1_1json__abi_n_l_o_h_m_a_n_n___j_s_o_n___a_b_i___t_a_g___l_e_g_a_c_y___d_i_s_c_a_a7160ba487fdd0d37b92dff685883c77.html" target="_top" xlink:title=" ">
<polygon fill="white" stroke="black" points="122.5,-1122 122.5,-1185 349.5,-1185 349.5,-1122 122.5,-1122"/>
<text text-anchor="start" x="130.5" y="-1173" font-family="Helvetica,sans-Serif" font-size="10.00">nlohmann::json_abiNLOHMANN</text>
<text text-anchor="start" x="130.5" y="-1162" font-family="Helvetica,sans-Serif" font-size="10.00">_JSON_ABI_TAG_LEGACY_DISCARDED</text>
<text text-anchor="start" x="130.5" y="-1151" font-family="Helvetica,sans-Serif" font-size="10.00">_VALUE_COMPARISON_v3_11_NLOHMANN</text>
<text text-anchor="start" x="130.5" y="-1140" font-family="Helvetica,sans-Serif" font-size="10.00">_JSON_VERSION_PATCH::detail::conjunction</text>
<text text-anchor="middle" x="236" y="-1129" font-family="Helvetica,sans-Serif" font-size="10.00">&lt; is_constructible&lt; T1, Args &gt;... &gt;</text>
</a>
</g>
</g>
<!-- Node47&#45;&gt;Node0 -->
<g id="edge1" class="edge">
<title>Node47&#45;&gt;Node0</title>
<path fill="none" stroke="midnightblue" d="M33.02,-588.5C35.46,-670.71 47.98,-982.09 99,-1063.5 114.49,-1088.21 139.53,-1107.61 163.93,-1121.96"/>
<polygon fill="midnightblue" stroke="midnightblue" points="36.5,-587.99 32.72,-578.09 29.51,-588.18 36.5,-587.99"/>
</g>
<!-- Node50 -->
<g id="node4" class="node">
<title>Node50</title>
<g id="a_node4"><a xlink:href="d7/d51/structnlohmann_1_1json__abi_n_l_o_h_m_a_n_n___j_s_o_n___a_b_i___t_a_g___l_e_g_a_c_y___d_i_s_c_a_a7160ba487fdd0d37b92dff685883c77.html" target="_top" xlink:title=" ">
<polygon fill="white" stroke="black" points="122.5,-979.5 122.5,-1053.5 349.5,-1053.5 349.5,-979.5 122.5,-979.5"/>
<text text-anchor="start" x="130.5" y="-1041.5" font-family="Helvetica,sans-Serif" font-size="10.00">nlohmann::json_abiNLOHMANN</text>
<text text-anchor="start" x="130.5" y="-1030.5" font-family="Helvetica,sans-Serif" font-size="10.00">_JSON_ABI_TAG_LEGACY_DISCARDED</text>
<text text-anchor="start" x="130.5" y="-1019.5" font-family="Helvetica,sans-Serif" font-size="10.00">_VALUE_COMPARISON_v3_11_NLOHMANN</text>
<text text-anchor="start" x="130.5" y="-1008.5" font-family="Helvetica,sans-Serif" font-size="10.00">_JSON_VERSION_PATCH::detail::conjunction</text>
<text text-anchor="start" x="130.5" y="-997.5" font-family="Helvetica,sans-Serif" font-size="10.00">&lt; is_default_constructible&lt; T1 &gt;, is</text>
<text text-anchor="middle" x="236" y="-986.5" font-family="Helvetica,sans-Serif" font-size="10.00">_default_constructible&lt; T2 &gt; &gt;</text>
</a>
</g>
</g>
<!-- Node47&#45;&gt;Node50 -->
<g id="edge3" class="edge">
<title>Node47&#45;&gt;Node50</title>
<path fill="none" stroke="midnightblue" d="M33.25,-588.45C36.33,-660.72 50.3,-907.74 99,-966.5 105.58,-974.44 113.54,-981.12 122.27,-986.74"/>
<polygon fill="midnightblue" stroke="midnightblue" points="36.73,-587.91 32.83,-578.06 29.73,-588.2 36.73,-587.91"/>
</g>
<!-- Node55 -->
<g id="node9" class="node">
<title>Node55</title>
<g id="a_node9"><a xlink:href="d7/d51/structnlohmann_1_1json__abi_n_l_o_h_m_a_n_n___j_s_o_n___a_b_i___t_a_g___l_e_g_a_c_y___d_i_s_c_a_a7160ba487fdd0d37b92dff685883c77.html" target="_top" xlink:title=" ">
<polygon fill="white" stroke="black" points="122.5,-894 122.5,-957 349.5,-957 349.5,-894 122.5,-894"/>
<text text-anchor="start" x="130.5" y="-945" font-family="Helvetica,sans-Serif" font-size="10.00">nlohmann::json_abiNLOHMANN</text>
<text text-anchor="start" x="130.5" y="-934" font-family="Helvetica,sans-Serif" font-size="10.00">_JSON_ABI_TAG_LEGACY_DISCARDED</text>
<text text-anchor="start" x="130.5" y="-923" font-family="Helvetica,sans-Serif" font-size="10.00">_VALUE_COMPARISON_v3_11_NLOHMANN</text>
<text text-anchor="start" x="130.5" y="-912" font-family="Helvetica,sans-Serif" font-size="10.00">_JSON_VERSION_PATCH::detail::conjunction</text>
<text text-anchor="middle" x="236" y="-901" font-family="Helvetica,sans-Serif" font-size="10.00">&lt; is_default_constructible&lt; Ts &gt;... &gt;</text>
</a>
</g>
</g>
<!-- Node47&#45;&gt;Node55 -->
<g id="edge8" class="edge">
<title>Node47&#45;&gt;Node55</title>
<path fill="none" stroke="midnightblue" d="M34.09,-588.25C39.44,-650.26 58.83,-839.48 99,-883.5 105.75,-890.89 113.76,-897 122.48,-902.04"/>
<polygon fill="midnightblue" stroke="midnightblue" points="37.57,-587.9 33.25,-578.22 30.59,-588.48 37.57,-587.9"/>
</g>
<!-- Node60 -->
<g id="node14" class="node">
<title>Node60</title>
<g id="a_node14"><a xlink:href="d7/d51/structnlohmann_1_1json__abi_n_l_o_h_m_a_n_n___j_s_o_n___a_b_i___t_a_g___l_e_g_a_c_y___d_i_s_c_a_a7160ba487fdd0d37b92dff685883c77.html" target="_top" xlink:title=" ">
<polygon fill="white" stroke="black" points="108.5,-822.5 108.5,-874.5 363.5,-874.5 363.5,-822.5 108.5,-822.5"/>
<text text-anchor="start" x="116.5" y="-862.5" font-family="Helvetica,sans-Serif" font-size="10.00">nlohmann::json_abiNLOHMANN</text>
<text text-anchor="start" x="116.5" y="-851.5" font-family="Helvetica,sans-Serif" font-size="10.00">_JSON_ABI_TAG_LEGACY_DISCARDED</text>
<text text-anchor="start" x="116.5" y="-840.5" font-family="Helvetica,sans-Serif" font-size="10.00">_VALUE_COMPARISON_v3_11_NLOHMANN</text>
<text text-anchor="middle" x="236" y="-829.5" font-family="Helvetica,sans-Serif" font-size="10.00">_JSON_VERSION_PATCH::detail::conjunction&lt;... &gt;</text>
</a>
</g>
</g>
<!-- Node47&#45;&gt;Node60 -->
<g id="edge13" class="edge">
<title>Node47&#45;&gt;Node60</title>
<path fill="none" stroke="midnightblue" d="M31.73,-588.22C31.05,-634.35 36.09,-750.05 99,-812.5 102.64,-816.11 106.6,-819.38 110.8,-822.32"/>
<polygon fill="midnightblue" stroke="midnightblue" points="35.23,-588.16 31.99,-578.07 28.23,-587.98 35.23,-588.16"/>
</g>
<!-- Node61 -->
<g id="node15" class="node">
<title>Node61</title>
<g id="a_node15"><a xlink:href="d8/d10/structnlohmann_1_1json__abi_n_l_o_h_m_a_n_n___j_s_o_n___a_b_i___t_a_g___l_e_g_a_c_y___d_i_s_c_a_0fb83e0cf5fa26296297197e9b4c2b4d.html" target="_top" xlink:title=" ">
<polygon fill="white" stroke="black" points="107.5,-696 107.5,-803 364.5,-803 364.5,-696 107.5,-696"/>
<text text-anchor="start" x="115.5" y="-791" font-family="Helvetica,sans-Serif" font-size="10.00">nlohmann::json_abiNLOHMANN</text>
<text text-anchor="start" x="115.5" y="-780" font-family="Helvetica,sans-Serif" font-size="10.00">_JSON_ABI_TAG_LEGACY_DISCARDED</text>
<text text-anchor="start" x="115.5" y="-769" font-family="Helvetica,sans-Serif" font-size="10.00">_VALUE_COMPARISON_v3_11_NLOHMANN</text>
<text text-anchor="start" x="115.5" y="-758" font-family="Helvetica,sans-Serif" font-size="10.00">_JSON_VERSION_PATCH::detail::is</text>
<text text-anchor="start" x="115.5" y="-747" font-family="Helvetica,sans-Serif" font-size="10.00">_basic_json&lt; basic_json&lt; ObjectType,</text>
<text text-anchor="start" x="115.5" y="-736" font-family="Helvetica,sans-Serif" font-size="10.00"> ArrayType, StringType, BooleanType,</text>
<text text-anchor="start" x="115.5" y="-725" font-family="Helvetica,sans-Serif" font-size="10.00"> NumberIntegerType, NumberUnsignedType,</text>
<text text-anchor="start" x="115.5" y="-714" font-family="Helvetica,sans-Serif" font-size="10.00"> NumberFloatType, AllocatorType, JSONSerializer,</text>
<text text-anchor="middle" x="236" y="-703" font-family="Helvetica,sans-Serif" font-size="10.00"> BinaryType, CustomBaseClass &gt; &gt;</text>
</a>
</g>
</g>
<!-- Node47&#45;&gt;Node61 -->
<g id="edge14" class="edge">
<title>Node47&#45;&gt;Node61</title>
<path fill="none" stroke="midnightblue" d="M39.04,-587.7C48.59,-613.24 68.62,-658.44 99,-686.5 102.54,-689.77 106.27,-692.89 110.16,-695.87"/>
<polygon fill="midnightblue" stroke="midnightblue" points="42.25,-586.29 35.58,-578.06 35.66,-588.65 42.25,-586.29"/>
</g>
<!-- Node62 -->
<g id="node16" class="node">
<title>Node62</title>
<g id="a_node16"><a xlink:href="da/deb/structnlohmann_1_1json__abi_n_l_o_h_m_a_n_n___j_s_o_n___a_b_i___t_a_g___l_e_g_a_c_y___d_i_s_c_a_9d82564854c6b48e101747905f72c2fd.html" target="_top" xlink:title=" ">
<polygon fill="white" stroke="black" points="107,-570 107,-677 365,-677 365,-570 107,-570"/>
<text text-anchor="start" x="115" y="-665" font-family="Helvetica,sans-Serif" font-size="10.00">nlohmann::json_abiNLOHMANN</text>
<text text-anchor="start" x="115" y="-654" font-family="Helvetica,sans-Serif" font-size="10.00">_JSON_ABI_TAG_LEGACY_DISCARDED</text>
<text text-anchor="start" x="115" y="-643" font-family="Helvetica,sans-Serif" font-size="10.00">_VALUE_COMPARISON_v3_11_NLOHMANN</text>
<text text-anchor="start" x="115" y="-632" font-family="Helvetica,sans-Serif" font-size="10.00">_JSON_VERSION_PATCH::detail::is</text>
<text text-anchor="start" x="115" y="-621" font-family="Helvetica,sans-Serif" font-size="10.00">_comparable&lt; Compare, A, B, void</text>
<text text-anchor="start" x="115" y="-610" font-family="Helvetica,sans-Serif" font-size="10.00">_t&lt; decltype(std::declval&lt; Compare</text>
<text text-anchor="start" x="115" y="-599" font-family="Helvetica,sans-Serif" font-size="10.00"> &gt;()(std::declval&lt; A &gt;(), std::declval</text>
<text text-anchor="start" x="115" y="-588" font-family="Helvetica,sans-Serif" font-size="10.00">&lt; B &gt;())), decltype(std::declval&lt; Compare</text>
<text text-anchor="middle" x="236" y="-577" font-family="Helvetica,sans-Serif" font-size="10.00"> &gt;()(std::declval&lt; B &gt;(), std::declval&lt; A &gt;()))&gt; &gt;</text>
</a>
</g>
</g>
<!-- Node47&#45;&gt;Node62 -->
<g id="edge15" class="edge">
<title>Node47&#45;&gt;Node62</title>
<path fill="none" stroke="midnightblue" d="M72.95,-579.49C83.11,-582.25 94.57,-585.36 106.57,-588.62"/>
<polygon fill="midnightblue" stroke="midnightblue" points="73.82,-576.1 63.26,-576.85 71.99,-582.85 73.82,-576.1"/>
</g>
<!-- Node63 -->
<g id="node17" class="node">
<title>Node63</title>
<g id="a_node17"><a xlink:href="d2/dd4/structnlohmann_1_1json__abi_n_l_o_h_m_a_n_n___j_s_o_n___a_b_i___t_a_g___l_e_g_a_c_y___d_i_s_c_a_6b4f3508d39aa54bc3cb0c07987ccb1d.html" target="_top" xlink:title=" ">
<polygon fill="white" stroke="black" points="124.5,-477.5 124.5,-551.5 347.5,-551.5 347.5,-477.5 124.5,-477.5"/>
<text text-anchor="start" x="132.5" y="-539.5" font-family="Helvetica,sans-Serif" font-size="10.00">nlohmann::json_abiNLOHMANN</text>
<text text-anchor="start" x="132.5" y="-528.5" font-family="Helvetica,sans-Serif" font-size="10.00">_JSON_ABI_TAG_LEGACY_DISCARDED</text>
<text text-anchor="start" x="132.5" y="-517.5" font-family="Helvetica,sans-Serif" font-size="10.00">_VALUE_COMPARISON_v3_11_NLOHMANN</text>
<text text-anchor="start" x="132.5" y="-506.5" font-family="Helvetica,sans-Serif" font-size="10.00">_JSON_VERSION_PATCH::detail::is</text>
<text text-anchor="start" x="132.5" y="-495.5" font-family="Helvetica,sans-Serif" font-size="10.00">_complete_type&lt; T, decltype(void</text>
<text text-anchor="middle" x="236" y="-484.5" font-family="Helvetica,sans-Serif" font-size="10.00">(sizeof(T)))&gt;</text>
</a>
</g>
</g>
<!-- Node47&#45;&gt;Node63 -->
<g id="edge16" class="edge">
<title>Node47&#45;&gt;Node63</title>
<path fill="none" stroke="midnightblue" d="M73.16,-557.66C88.16,-553.66 105.96,-548.91 124.18,-544.05"/>
<polygon fill="midnightblue" stroke="midnightblue" points="72.02,-554.34 63.26,-560.3 73.82,-561.1 72.02,-554.34"/>
</g>
<!-- Node64 -->
<g id="node18" class="node">
<title>Node64</title>
<g id="a_node18"><a xlink:href="d0/d74/structnlohmann_1_1json__abi_n_l_o_h_m_a_n_n___j_s_o_n___a_b_i___t_a_g___l_e_g_a_c_y___d_i_s_c_a_6186131b631e813572083a817baf6381.html" target="_top" xlink:title=" ">
<polygon fill="white" stroke="black" points="99,-362.5 99,-458.5 373,-458.5 373,-362.5 99,-362.5"/>
<text text-anchor="start" x="107" y="-446.5" font-family="Helvetica,sans-Serif" font-size="10.00">nlohmann::json_abiNLOHMANN</text>
<text text-anchor="start" x="107" y="-435.5" font-family="Helvetica,sans-Serif" font-size="10.00">_JSON_ABI_TAG_LEGACY_DISCARDED</text>
<text text-anchor="start" x="107" y="-424.5" font-family="Helvetica,sans-Serif" font-size="10.00">_VALUE_COMPARISON_v3_11_NLOHMANN</text>
<text text-anchor="start" x="107" y="-413.5" font-family="Helvetica,sans-Serif" font-size="10.00">_JSON_VERSION_PATCH::detail::is</text>
<text text-anchor="start" x="107" y="-402.5" font-family="Helvetica,sans-Serif" font-size="10.00">_constructible_array_type_impl&lt;</text>
<text text-anchor="start" x="107" y="-391.5" font-family="Helvetica,sans-Serif" font-size="10.00"> BasicJsonType, ConstructibleArrayType,</text>
<text text-anchor="start" x="107" y="-380.5" font-family="Helvetica,sans-Serif" font-size="10.00"> enable_if_t&lt; std::is_same&lt; ConstructibleArrayType,</text>
<text text-anchor="middle" x="236" y="-369.5" font-family="Helvetica,sans-Serif" font-size="10.00"> typename BasicJsonType::value_type &gt;::value &gt; &gt;</text>
</a>
</g>
</g>
<!-- Node47&#45;&gt;Node64 -->
<g id="edge17" class="edge">
<title>Node47&#45;&gt;Node64</title>
<path fill="none" stroke="midnightblue" d="M40.68,-549.67C51.23,-527.34 71.54,-490.29 99,-467.5 102.74,-464.39 106.68,-461.43 110.76,-458.62"/>
<polygon fill="midnightblue" stroke="midnightblue" points="37.49,-548.24 36.53,-558.79 43.86,-551.14 37.49,-548.24"/>
</g>
<!-- Node65 -->
<g id="node19" class="node">
<title>Node65</title>
<g id="a_node19"><a xlink:href="dc/d88/structnlohmann_1_1json__abi_n_l_o_h_m_a_n_n___j_s_o_n___a_b_i___t_a_g___l_e_g_a_c_y___d_i_s_c_a_c5e16318fefaec5514d3d401e62de1e1.html" target="_top" xlink:title=" ">
<polygon fill="white" stroke="black" points="123,-269.5 123,-343.5 349,-343.5 349,-269.5 123,-269.5"/>
<text text-anchor="start" x="131" y="-331.5" font-family="Helvetica,sans-Serif" font-size="10.00">nlohmann::json_abiNLOHMANN</text>
<text text-anchor="start" x="131" y="-320.5" font-family="Helvetica,sans-Serif" font-size="10.00">_JSON_ABI_TAG_LEGACY_DISCARDED</text>
<text text-anchor="start" x="131" y="-309.5" font-family="Helvetica,sans-Serif" font-size="10.00">_VALUE_COMPARISON_v3_11_NLOHMANN</text>
<text text-anchor="start" x="131" y="-298.5" font-family="Helvetica,sans-Serif" font-size="10.00">_JSON_VERSION_PATCH::detail::is</text>
<text text-anchor="start" x="131" y="-287.5" font-family="Helvetica,sans-Serif" font-size="10.00">_json_iterator_of&lt; BasicJsonType,</text>
<text text-anchor="middle" x="236" y="-276.5" font-family="Helvetica,sans-Serif" font-size="10.00"> typename BasicJsonType::const_iterator &gt;</text>
</a>
</g>
</g>
<!-- Node47&#45;&gt;Node65 -->
<g id="edge18" class="edge">
<title>Node47&#45;&gt;Node65</title>
<path fill="none" stroke="midnightblue" d="M32.86,-548.75C34.69,-506.8 44.86,-408.14 99,-352.5 105.95,-345.35 114.05,-339.32 122.77,-334.22"/>
<polygon fill="midnightblue" stroke="midnightblue" points="29.36,-548.67 32.53,-558.78 36.35,-548.89 29.36,-548.67"/>
</g>
<!-- Node66 -->
<g id="node20" class="node">
<title>Node66</title>
<g id="a_node20"><a xlink:href="d1/d79/structnlohmann_1_1json__abi_n_l_o_h_m_a_n_n___j_s_o_n___a_b_i___t_a_g___l_e_g_a_c_y___d_i_s_c_a_f1ef4ab2099c9d3d6e18bb766d63fb7b.html" target="_top" xlink:title=" ">
<polygon fill="white" stroke="black" points="124.5,-176.5 124.5,-250.5 347.5,-250.5 347.5,-176.5 124.5,-176.5"/>
<text text-anchor="start" x="132.5" y="-238.5" font-family="Helvetica,sans-Serif" font-size="10.00">nlohmann::json_abiNLOHMANN</text>
<text text-anchor="start" x="132.5" y="-227.5" font-family="Helvetica,sans-Serif" font-size="10.00">_JSON_ABI_TAG_LEGACY_DISCARDED</text>
<text text-anchor="start" x="132.5" y="-216.5" font-family="Helvetica,sans-Serif" font-size="10.00">_VALUE_COMPARISON_v3_11_NLOHMANN</text>
<text text-anchor="start" x="132.5" y="-205.5" font-family="Helvetica,sans-Serif" font-size="10.00">_JSON_VERSION_PATCH::detail::is</text>
<text text-anchor="start" x="132.5" y="-194.5" font-family="Helvetica,sans-Serif" font-size="10.00">_json_iterator_of&lt; BasicJsonType,</text>
<text text-anchor="middle" x="236" y="-183.5" font-family="Helvetica,sans-Serif" font-size="10.00"> typename BasicJsonType::iterator &gt;</text>
</a>
</g>
</g>
<!-- Node47&#45;&gt;Node66 -->
<g id="edge19" class="edge">
<title>Node47&#45;&gt;Node66</title>
<path fill="none" stroke="midnightblue" d="M34.22,-548.78C39.94,-487.69 60.14,-303.07 99,-259.5 106.22,-251.41 114.91,-244.74 124.36,-239.24"/>
<polygon fill="midnightblue" stroke="midnightblue" points="30.72,-548.71 33.3,-558.98 37.69,-549.34 30.72,-548.71"/>
</g>
<!-- Node67 -->
<g id="node21" class="node">
<title>Node67</title>
<g id="a_node21"><a xlink:href="d9/d0d/structnlohmann_1_1json__abi_n_l_o_h_m_a_n_n___j_s_o_n___a_b_i___t_a_g___l_e_g_a_c_y___d_i_s_c_a_332387511df3ef11eb12a497b490efd2.html" target="_top" xlink:title=" ">
<polygon fill="white" stroke="black" points="124.5,-94 124.5,-157 347.5,-157 347.5,-94 124.5,-94"/>
<text text-anchor="start" x="132.5" y="-145" font-family="Helvetica,sans-Serif" font-size="10.00">nlohmann::json_abiNLOHMANN</text>
<text text-anchor="start" x="132.5" y="-134" font-family="Helvetica,sans-Serif" font-size="10.00">_JSON_ABI_TAG_LEGACY_DISCARDED</text>
<text text-anchor="start" x="132.5" y="-123" font-family="Helvetica,sans-Serif" font-size="10.00">_VALUE_COMPARISON_v3_11_NLOHMANN</text>
<text text-anchor="start" x="132.5" y="-112" font-family="Helvetica,sans-Serif" font-size="10.00">_JSON_VERSION_PATCH::detail::is</text>
<text text-anchor="middle" x="236" y="-101" font-family="Helvetica,sans-Serif" font-size="10.00">_json_ref&lt; json_ref&lt; T &gt; &gt;</text>
</a>
</g>
</g>
<!-- Node47&#45;&gt;Node67 -->
<g id="edge20" class="edge">
<title>Node47&#45;&gt;Node67</title>
<path fill="none" stroke="midnightblue" d="M33.08,-548.71C35.63,-475.95 48.03,-224.51 99,-166.5 106.16,-158.35 114.88,-151.79 124.41,-146.51"/>
<polygon fill="midnightblue" stroke="midnightblue" points="29.58,-548.68 32.76,-558.79 36.58,-548.91 29.58,-548.68"/>
</g>
<!-- Node68 -->
<g id="node22" class="node">
<title>Node68</title>
<g id="a_node22"><a xlink:href="d7/ded/structnlohmann_1_1json__abi_n_l_o_h_m_a_n_n___j_s_o_n___a_b_i___t_a_g___l_e_g_a_c_y___d_i_s_c_a_0dfb31e816803b375ff10d4f011d0b7c.html" target="_top" xlink:title=" ">
<polygon fill="white" stroke="black" points="124.5,-0.5 124.5,-74.5 347.5,-74.5 347.5,-0.5 124.5,-0.5"/>
<text text-anchor="start" x="132.5" y="-62.5" font-family="Helvetica,sans-Serif" font-size="10.00">nlohmann::json_abiNLOHMANN</text>
<text text-anchor="start" x="132.5" y="-51.5" font-family="Helvetica,sans-Serif" font-size="10.00">_JSON_ABI_TAG_LEGACY_DISCARDED</text>
<text text-anchor="start" x="132.5" y="-40.5" font-family="Helvetica,sans-Serif" font-size="10.00">_VALUE_COMPARISON_v3_11_NLOHMANN</text>
<text text-anchor="start" x="132.5" y="-29.5" font-family="Helvetica,sans-Serif" font-size="10.00">_JSON_VERSION_PATCH::detail::is</text>
<text text-anchor="start" x="132.5" y="-18.5" font-family="Helvetica,sans-Serif" font-size="10.00">_specialization_of&lt; Primary, Primary</text>
<text text-anchor="middle" x="236" y="-7.5" font-family="Helvetica,sans-Serif" font-size="10.00">&lt; Args... &gt; &gt;</text>
</a>
</g>
</g>
<!-- Node47&#45;&gt;Node68 -->
<g id="edge21" class="edge">
<title>Node47&#45;&gt;Node68</title>
<path fill="none" stroke="midnightblue" d="M32.55,-548.57C33.15,-466.69 39.38,-157.14 99,-84.5 106.05,-75.91 114.76,-68.88 124.34,-63.14"/>
<polygon fill="midnightblue" stroke="midnightblue" points="29.05,-548.92 32.5,-558.94 36.05,-548.96 29.05,-548.92"/>
</g>
<!-- Node1 -->
<g id="node3" class="node">
<title>Node1</title>
<g id="a_node3"><a xlink:href="dc/d48/structnlohmann_1_1json__abi_n_l_o_h_m_a_n_n___j_s_o_n___a_b_i___t_a_g___l_e_g_a_c_y___d_i_s_c_a_3fe2b665fe2a90b623eeb98a78941bfa.html" target="_top" xlink:title=" ">
<polygon fill="white" stroke="black" points="409,-1165.5 409,-1239.5 632,-1239.5 632,-1165.5 409,-1165.5"/>
<text text-anchor="start" x="417" y="-1227.5" font-family="Helvetica,sans-Serif" font-size="10.00">nlohmann::json_abiNLOHMANN</text>
<text text-anchor="start" x="417" y="-1216.5" font-family="Helvetica,sans-Serif" font-size="10.00">_JSON_ABI_TAG_LEGACY_DISCARDED</text>
<text text-anchor="start" x="417" y="-1205.5" font-family="Helvetica,sans-Serif" font-size="10.00">_VALUE_COMPARISON_v3_11_NLOHMANN</text>
<text text-anchor="start" x="417" y="-1194.5" font-family="Helvetica,sans-Serif" font-size="10.00">_JSON_VERSION_PATCH::detail::is</text>
<text text-anchor="start" x="417" y="-1183.5" font-family="Helvetica,sans-Serif" font-size="10.00">_constructible_tuple&lt; T1, std::tuple</text>
<text text-anchor="middle" x="520.5" y="-1172.5" font-family="Helvetica,sans-Serif" font-size="10.00">&lt; Args... &gt; &gt;</text>
</a>
</g>
</g>
<!-- Node0&#45;&gt;Node1 -->
<g id="edge2" class="edge">
<title>Node0&#45;&gt;Node1</title>
<path fill="none" stroke="midnightblue" d="M359.91,-1174.82C376.12,-1177.63 392.66,-1180.5 408.65,-1183.27"/>
<polygon fill="midnightblue" stroke="midnightblue" points="360.32,-1171.34 349.87,-1173.08 359.12,-1178.23 360.32,-1171.34"/>
</g>
<!-- Node51 -->
<g id="node5" class="node">
<title>Node51</title>
<g id="a_node5"><a xlink:href="d2/dea/structnlohmann_1_1json__abi_n_l_o_h_m_a_n_n___j_s_o_n___a_b_i___t_a_g___l_e_g_a_c_y___d_i_s_c_a_d539e127fd3881e83a5cfb75c4aee7b9.html" target="_top" xlink:title=" ">
<polygon fill="white" stroke="black" points="409,-1072.5 409,-1146.5 632,-1146.5 632,-1072.5 409,-1072.5"/>
<text text-anchor="start" x="417" y="-1134.5" font-family="Helvetica,sans-Serif" font-size="10.00">nlohmann::json_abiNLOHMANN</text>
<text text-anchor="start" x="417" y="-1123.5" font-family="Helvetica,sans-Serif" font-size="10.00">_JSON_ABI_TAG_LEGACY_DISCARDED</text>
<text text-anchor="start" x="417" y="-1112.5" font-family="Helvetica,sans-Serif" font-size="10.00">_VALUE_COMPARISON_v3_11_NLOHMANN</text>
<text text-anchor="start" x="417" y="-1101.5" font-family="Helvetica,sans-Serif" font-size="10.00">_JSON_VERSION_PATCH::detail::is</text>
<text text-anchor="start" x="417" y="-1090.5" font-family="Helvetica,sans-Serif" font-size="10.00">_default_constructible&lt; const std</text>
<text text-anchor="middle" x="520.5" y="-1079.5" font-family="Helvetica,sans-Serif" font-size="10.00">::pair&lt; T1, T2 &gt; &gt;</text>
</a>
</g>
</g>
<!-- Node50&#45;&gt;Node51 -->
<g id="edge4" class="edge">
<title>Node50&#45;&gt;Node51</title>
<path fill="none" stroke="midnightblue" d="M359.14,-1056.71C375.65,-1062.14 392.51,-1067.69 408.81,-1073.06"/>
<polygon fill="midnightblue" stroke="midnightblue" points="360.06,-1053.33 349.46,-1053.52 357.87,-1059.97 360.06,-1053.33"/>
</g>
<!-- Node53 -->
<g id="node7" class="node">
<title>Node53</title>
<g id="a_node7"><a xlink:href="d2/d38/structnlohmann_1_1json__abi_n_l_o_h_m_a_n_n___j_s_o_n___a_b_i___t_a_g___l_e_g_a_c_y___d_i_s_c_a_dc3f9beae45dfd7b6c65f94985a4b1c1.html" target="_top" xlink:title=" ">
<polygon fill="white" stroke="black" points="409,-979.5 409,-1053.5 632,-1053.5 632,-979.5 409,-979.5"/>
<text text-anchor="start" x="417" y="-1041.5" font-family="Helvetica,sans-Serif" font-size="10.00">nlohmann::json_abiNLOHMANN</text>
<text text-anchor="start" x="417" y="-1030.5" font-family="Helvetica,sans-Serif" font-size="10.00">_JSON_ABI_TAG_LEGACY_DISCARDED</text>
<text text-anchor="start" x="417" y="-1019.5" font-family="Helvetica,sans-Serif" font-size="10.00">_VALUE_COMPARISON_v3_11_NLOHMANN</text>
<text text-anchor="start" x="417" y="-1008.5" font-family="Helvetica,sans-Serif" font-size="10.00">_JSON_VERSION_PATCH::detail::is</text>
<text text-anchor="start" x="417" y="-997.5" font-family="Helvetica,sans-Serif" font-size="10.00">_default_constructible&lt; std::pair</text>
<text text-anchor="middle" x="520.5" y="-986.5" font-family="Helvetica,sans-Serif" font-size="10.00">&lt; T1, T2 &gt; &gt;</text>
</a>
</g>
</g>
<!-- Node50&#45;&gt;Node53 -->
<g id="edge6" class="edge">
<title>Node50&#45;&gt;Node53</title>
<path fill="none" stroke="midnightblue" d="M359.91,-1016.5C376.12,-1016.5 392.66,-1016.5 408.65,-1016.5"/>
<polygon fill="midnightblue" stroke="midnightblue" points="359.87,-1013 349.87,-1016.5 359.87,-1020 359.87,-1013"/>
</g>
<!-- Node52 -->
<g id="node6" class="node">
<title>Node52</title>
<g id="a_node6"><a xlink:href="d1/ded/structnlohmann_1_1json__abi_n_l_o_h_m_a_n_n___j_s_o_n___a_b_i___t_a_g___l_e_g_a_c_y___d_i_s_c_a_5a29c077851a441bdb858ab2b05ab707.html" target="_top" xlink:title=" ">
<polygon fill="white" stroke="black" points="668,-1072.5 668,-1146.5 891,-1146.5 891,-1072.5 668,-1072.5"/>
<text text-anchor="start" x="676" y="-1134.5" font-family="Helvetica,sans-Serif" font-size="10.00">nlohmann::json_abiNLOHMANN</text>
<text text-anchor="start" x="676" y="-1123.5" font-family="Helvetica,sans-Serif" font-size="10.00">_JSON_ABI_TAG_LEGACY_DISCARDED</text>
<text text-anchor="start" x="676" y="-1112.5" font-family="Helvetica,sans-Serif" font-size="10.00">_VALUE_COMPARISON_v3_11_NLOHMANN</text>
<text text-anchor="start" x="676" y="-1101.5" font-family="Helvetica,sans-Serif" font-size="10.00">_JSON_VERSION_PATCH::detail::is</text>
<text text-anchor="start" x="676" y="-1090.5" font-family="Helvetica,sans-Serif" font-size="10.00">_constructible&lt; const std::pair</text>
<text text-anchor="middle" x="779.5" y="-1079.5" font-family="Helvetica,sans-Serif" font-size="10.00">&lt; T1, T2 &gt; &gt;</text>
</a>
</g>
</g>
<!-- Node51&#45;&gt;Node52 -->
<g id="edge5" class="edge">
<title>Node51&#45;&gt;Node52</title>
<path fill="none" stroke="midnightblue" d="M642.53,-1109.5C650.89,-1109.5 659.3,-1109.5 667.6,-1109.5"/>
<polygon fill="midnightblue" stroke="midnightblue" points="642.36,-1106 632.36,-1109.5 642.36,-1113 642.36,-1106"/>
</g>
<!-- Node54 -->
<g id="node8" class="node">
<title>Node54</title>
<g id="a_node8"><a xlink:href="dd/d3a/structnlohmann_1_1json__abi_n_l_o_h_m_a_n_n___j_s_o_n___a_b_i___t_a_g___l_e_g_a_c_y___d_i_s_c_a_918ac40180fde8b44b0ff227db47b784.html" target="_top" xlink:title=" ">
<polygon fill="white" stroke="black" points="668,-985 668,-1048 891,-1048 891,-985 668,-985"/>
<text text-anchor="start" x="676" y="-1036" font-family="Helvetica,sans-Serif" font-size="10.00">nlohmann::json_abiNLOHMANN</text>
<text text-anchor="start" x="676" y="-1025" font-family="Helvetica,sans-Serif" font-size="10.00">_JSON_ABI_TAG_LEGACY_DISCARDED</text>
<text text-anchor="start" x="676" y="-1014" font-family="Helvetica,sans-Serif" font-size="10.00">_VALUE_COMPARISON_v3_11_NLOHMANN</text>
<text text-anchor="start" x="676" y="-1003" font-family="Helvetica,sans-Serif" font-size="10.00">_JSON_VERSION_PATCH::detail::is</text>
<text text-anchor="middle" x="779.5" y="-992" font-family="Helvetica,sans-Serif" font-size="10.00">_constructible&lt; std::pair&lt; T1, T2 &gt; &gt;</text>
</a>
</g>
</g>
<!-- Node53&#45;&gt;Node54 -->
<g id="edge7" class="edge">
<title>Node53&#45;&gt;Node54</title>
<path fill="none" stroke="midnightblue" d="M642.53,-1016.5C650.89,-1016.5 659.3,-1016.5 667.6,-1016.5"/>
<polygon fill="midnightblue" stroke="midnightblue" points="642.36,-1013 632.36,-1016.5 642.36,-1020 642.36,-1013"/>
</g>
<!-- Node56 -->
<g id="node10" class="node">
<title>Node56</title>
<g id="a_node10"><a xlink:href="df/df0/structnlohmann_1_1json__abi_n_l_o_h_m_a_n_n___j_s_o_n___a_b_i___t_a_g___l_e_g_a_c_y___d_i_s_c_a_2a70f1b144500965f7943430b9e3bf44.html" target="_top" xlink:title=" ">
<polygon fill="white" stroke="black" points="409,-886.5 409,-960.5 632,-960.5 632,-886.5 409,-886.5"/>
<text text-anchor="start" x="417" y="-948.5" font-family="Helvetica,sans-Serif" font-size="10.00">nlohmann::json_abiNLOHMANN</text>
<text text-anchor="start" x="417" y="-937.5" font-family="Helvetica,sans-Serif" font-size="10.00">_JSON_ABI_TAG_LEGACY_DISCARDED</text>
<text text-anchor="start" x="417" y="-926.5" font-family="Helvetica,sans-Serif" font-size="10.00">_VALUE_COMPARISON_v3_11_NLOHMANN</text>
<text text-anchor="start" x="417" y="-915.5" font-family="Helvetica,sans-Serif" font-size="10.00">_JSON_VERSION_PATCH::detail::is</text>
<text text-anchor="start" x="417" y="-904.5" font-family="Helvetica,sans-Serif" font-size="10.00">_default_constructible&lt; const std</text>
<text text-anchor="middle" x="520.5" y="-893.5" font-family="Helvetica,sans-Serif" font-size="10.00">::tuple&lt; Ts... &gt; &gt;</text>
</a>
</g>
</g>
<!-- Node55&#45;&gt;Node56 -->
<g id="edge9" class="edge">
<title>Node55&#45;&gt;Node56</title>
<path fill="none" stroke="midnightblue" d="M359.91,-924.63C376.12,-924.52 392.66,-924.4 408.65,-924.28"/>
<polygon fill="midnightblue" stroke="midnightblue" points="359.84,-921.13 349.87,-924.7 359.89,-928.13 359.84,-921.13"/>
</g>
<!-- Node58 -->
<g id="node12" class="node">
<title>Node58</title>
<g id="a_node12"><a xlink:href="db/d9c/structnlohmann_1_1json__abi_n_l_o_h_m_a_n_n___j_s_o_n___a_b_i___t_a_g___l_e_g_a_c_y___d_i_s_c_a_cf8271793e0c88fc8d8d4e5637473a94.html" target="_top" xlink:title=" ">
<polygon fill="white" stroke="black" points="409,-793.5 409,-867.5 632,-867.5 632,-793.5 409,-793.5"/>
<text text-anchor="start" x="417" y="-855.5" font-family="Helvetica,sans-Serif" font-size="10.00">nlohmann::json_abiNLOHMANN</text>
<text text-anchor="start" x="417" y="-844.5" font-family="Helvetica,sans-Serif" font-size="10.00">_JSON_ABI_TAG_LEGACY_DISCARDED</text>
<text text-anchor="start" x="417" y="-833.5" font-family="Helvetica,sans-Serif" font-size="10.00">_VALUE_COMPARISON_v3_11_NLOHMANN</text>
<text text-anchor="start" x="417" y="-822.5" font-family="Helvetica,sans-Serif" font-size="10.00">_JSON_VERSION_PATCH::detail::is</text>
<text text-anchor="start" x="417" y="-811.5" font-family="Helvetica,sans-Serif" font-size="10.00">_default_constructible&lt; std::tuple</text>
<text text-anchor="middle" x="520.5" y="-800.5" font-family="Helvetica,sans-Serif" font-size="10.00">&lt; Ts... &gt; &gt;</text>
</a>
</g>
</g>
<!-- Node55&#45;&gt;Node58 -->
<g id="edge11" class="edge">
<title>Node55&#45;&gt;Node58</title>
<path fill="none" stroke="midnightblue" d="M350.71,-890.82C358.27,-888.38 365.75,-885.93 373,-883.5 387.87,-878.52 403.53,-873.07 418.85,-867.63"/>
<polygon fill="midnightblue" stroke="midnightblue" points="349.57,-887.52 341.12,-893.9 351.71,-894.18 349.57,-887.52"/>
</g>
<!-- Node57 -->
<g id="node11" class="node">
<title>Node57</title>
<g id="a_node11"><a xlink:href="d0/d09/structnlohmann_1_1json__abi_n_l_o_h_m_a_n_n___j_s_o_n___a_b_i___t_a_g___l_e_g_a_c_y___d_i_s_c_a_9d46ed3701b70d684ecc64590f64239b.html" target="_top" xlink:title=" ">
<polygon fill="white" stroke="black" points="668,-886.5 668,-960.5 891,-960.5 891,-886.5 668,-886.5"/>
<text text-anchor="start" x="676" y="-948.5" font-family="Helvetica,sans-Serif" font-size="10.00">nlohmann::json_abiNLOHMANN</text>
<text text-anchor="start" x="676" y="-937.5" font-family="Helvetica,sans-Serif" font-size="10.00">_JSON_ABI_TAG_LEGACY_DISCARDED</text>
<text text-anchor="start" x="676" y="-926.5" font-family="Helvetica,sans-Serif" font-size="10.00">_VALUE_COMPARISON_v3_11_NLOHMANN</text>
<text text-anchor="start" x="676" y="-915.5" font-family="Helvetica,sans-Serif" font-size="10.00">_JSON_VERSION_PATCH::detail::is</text>
<text text-anchor="start" x="676" y="-904.5" font-family="Helvetica,sans-Serif" font-size="10.00">_constructible&lt; const std::tuple</text>
<text text-anchor="middle" x="779.5" y="-893.5" font-family="Helvetica,sans-Serif" font-size="10.00">&lt; Ts... &gt; &gt;</text>
</a>
</g>
</g>
<!-- Node56&#45;&gt;Node57 -->
<g id="edge10" class="edge">
<title>Node56&#45;&gt;Node57</title>
<path fill="none" stroke="midnightblue" d="M642.53,-923.5C650.89,-923.5 659.3,-923.5 667.6,-923.5"/>
<polygon fill="midnightblue" stroke="midnightblue" points="642.36,-920 632.36,-923.5 642.36,-927 642.36,-920"/>
</g>
<!-- Node59 -->
<g id="node13" class="node">
<title>Node59</title>
<g id="a_node13"><a xlink:href="d8/d8c/structnlohmann_1_1json__abi_n_l_o_h_m_a_n_n___j_s_o_n___a_b_i___t_a_g___l_e_g_a_c_y___d_i_s_c_a_4bdc03649bc39425a8d24e151a63b756.html" target="_top" xlink:title=" ">
<polygon fill="white" stroke="black" points="668,-799 668,-862 891,-862 891,-799 668,-799"/>
<text text-anchor="start" x="676" y="-850" font-family="Helvetica,sans-Serif" font-size="10.00">nlohmann::json_abiNLOHMANN</text>
<text text-anchor="start" x="676" y="-839" font-family="Helvetica,sans-Serif" font-size="10.00">_JSON_ABI_TAG_LEGACY_DISCARDED</text>
<text text-anchor="start" x="676" y="-828" font-family="Helvetica,sans-Serif" font-size="10.00">_VALUE_COMPARISON_v3_11_NLOHMANN</text>
<text text-anchor="start" x="676" y="-817" font-family="Helvetica,sans-Serif" font-size="10.00">_JSON_VERSION_PATCH::detail::is</text>
<text text-anchor="middle" x="779.5" y="-806" font-family="Helvetica,sans-Serif" font-size="10.00">_constructible&lt; std::tuple&lt; Ts... &gt; &gt;</text>
</a>
</g>
</g>
<!-- Node58&#45;&gt;Node59 -->
<g id="edge12" class="edge">
<title>Node58&#45;&gt;Node59</title>
<path fill="none" stroke="midnightblue" d="M642.53,-830.5C650.89,-830.5 659.3,-830.5 667.6,-830.5"/>
<polygon fill="midnightblue" stroke="midnightblue" points="642.36,-827 632.36,-830.5 642.36,-834 642.36,-827"/>
</g>
</g>
</svg>
