<?xml version="1.0" encoding="UTF-8" standalone="no"?>
<!DOCTYPE svg PUBLIC "-//W3C//DTD SVG 1.1//EN"
 "http://www.w3.org/Graphics/SVG/1.1/DTD/svg11.dtd">
<!-- Generated by graphviz version 2.43.0 (0)
 -->
<!-- Title: Graphical Class Hierarchy Pages: 1 -->
<svg width="338pt" height="72pt"
 viewBox="0.00 0.00 338.00 72.00" xmlns="http://www.w3.org/2000/svg" xmlns:xlink="http://www.w3.org/1999/xlink">
<g id="graph0" class="graph" transform="scale(1 1) rotate(0) translate(4 68)">
<title>Graphical Class Hierarchy</title>
<polygon fill="white" stroke="transparent" points="-4,4 -4,-68 334,-68 334,4 -4,4"/>
<!-- Node692 -->
<g id="node1" class="node">
<title>Node692</title>
<g id="a_node1"><a xlink:title=" ">
<polygon fill="white" stroke="#bfbfbf" points="0,-22.5 0,-41.5 71,-41.5 71,-22.5 0,-22.5"/>
<text text-anchor="middle" x="35.5" y="-29.5" font-family="Helvetica,sans-Serif" font-size="10.00">BinaryType</text>
</a>
</g>
</g>
<!-- Node0 -->
<g id="node2" class="node">
<title>Node0</title>
<g id="a_node2"><a xlink:href="d2/d2b/classnlohmann_1_1json__abi_n_l_o_h_m_a_n_n___j_s_o_n___a_b_i___t_a_g___l_e_g_a_c_y___d_i_s_c_a_rcb1c30c4eeaf43d4213abfa93db53216.html" target="_top" xlink:title="an internal type for a backed binary type">
<polygon fill="white" stroke="black" points="107,-0.5 107,-63.5 330,-63.5 330,-0.5 107,-0.5"/>
<text text-anchor="start" x="115" y="-51.5" font-family="Helvetica,sans-Serif" font-size="10.00">nlohmann::json_abiNLOHMANN</text>
<text text-anchor="start" x="115" y="-40.5" font-family="Helvetica,sans-Serif" font-size="10.00">_JSON_ABI_TAG_LEGACY_DISCARDED</text>
<text text-anchor="start" x="115" y="-29.5" font-family="Helvetica,sans-Serif" font-size="10.00">_VALUE_COMPARISON_v3_11_NLOHMANN</text>
<text text-anchor="start" x="115" y="-18.5" font-family="Helvetica,sans-Serif" font-size="10.00">_JSON_VERSION_PATCH::byte_container</text>
<text text-anchor="middle" x="218.5" y="-7.5" font-family="Helvetica,sans-Serif" font-size="10.00">_with_subtype&lt; BinaryType &gt;</text>
</a>
</g>
</g>
<!-- Node692&#45;&gt;Node0 -->
<g id="edge1" class="edge">
<title>Node692&#45;&gt;Node0</title>
<path fill="none" stroke="midnightblue" d="M81.67,-32C89.5,-32 97.94,-32 106.64,-32"/>
<polygon fill="midnightblue" stroke="midnightblue" points="81.4,-28.5 71.4,-32 81.4,-35.5 81.4,-28.5"/>
</g>
</g>
</svg>
