<?xml version="1.0" encoding="UTF-8" standalone="no"?>
<!DOCTYPE svg PUBLIC "-//W3C//DTD SVG 1.1//EN"
 "http://www.w3.org/Graphics/SVG/1.1/DTD/svg11.dtd">
<!-- Generated by graphviz version 2.40.1 (0)
 -->
<!-- Title: CGenericList&lt; OBJECT &gt; Pages: 1 -->
<svg width="139pt" height="163pt"
 viewBox="0.00 0.00 139.00 163.00" xmlns="http://www.w3.org/2000/svg" xmlns:xlink="http://www.w3.org/1999/xlink">
<g id="graph0" class="graph" transform="scale(1 1) rotate(0) translate(4 159)">
<title>CGenericList&lt; OBJECT &gt;</title>
<polygon fill="#ffffff" stroke="transparent" points="-4,4 -4,-159 135,-159 135,4 -4,4"/>
<!-- Node2 -->
<g id="node1" class="node">
<title>Node2</title>
<polygon fill="#bfbfbf" stroke="#000000" points="0,-.5 0,-19.5 131,-19.5 131,-.5 0,-.5"/>
<text text-anchor="middle" x="65.5" y="-7.5" font-family="Helvetica,sans-Serif" font-size="10.00" fill="#000000">CGenericList&lt; OBJECT &gt;</text>
</g>
<!-- Node3 -->
<g id="node2" class="node">
<title>Node3</title>
<g id="a_node2"><a xlink:href="../../d0/de7/class_c_base_list.html" target="_top" xlink:title="CBaseList">
<polygon fill="#ffffff" stroke="#000000" points="34.5,-57.5 34.5,-76.5 96.5,-76.5 96.5,-57.5 34.5,-57.5"/>
<text text-anchor="middle" x="65.5" y="-64.5" font-family="Helvetica,sans-Serif" font-size="10.00" fill="#000000">CBaseList</text>
</a>
</g>
</g>
<!-- Node3&#45;&gt;Node2 -->
<g id="edge1" class="edge">
<title>Node3&#45;&gt;Node2</title>
<path fill="none" stroke="#191970" d="M65.5,-47.2342C65.5,-37.8491 65.5,-27.0651 65.5,-19.5265"/>
<polygon fill="#191970" stroke="#191970" points="62.0001,-47.3307 65.5,-57.3307 69.0001,-47.3308 62.0001,-47.3307"/>
</g>
<!-- Node4 -->
<g id="node3" class="node">
<title>Node4</title>
<g id="a_node3"><a xlink:href="../../d2/d5c/class_c_base_list_1_1_c_node.html" target="_top" xlink:title="CBaseList::CNode">
<polygon fill="#ffffff" stroke="#000000" points="16,-135.5 16,-154.5 115,-154.5 115,-135.5 16,-135.5"/>
<text text-anchor="middle" x="65.5" y="-142.5" font-family="Helvetica,sans-Serif" font-size="10.00" fill="#000000">CBaseList::CNode</text>
</a>
</g>
</g>
<!-- Node4&#45;&gt;Node3 -->
<g id="edge2" class="edge">
<title>Node4&#45;&gt;Node3</title>
<path fill="none" stroke="#9a32cd" stroke-dasharray="5,2" d="M65.5,-125.2866C65.5,-109.7395 65.5,-88.7276 65.5,-76.6426"/>
<polygon fill="#9a32cd" stroke="#9a32cd" points="62.0001,-125.4356 65.5,-135.4357 69.0001,-125.4357 62.0001,-125.4356"/>
<text text-anchor="middle" x="86.5" y="-109" font-family="Helvetica,sans-Serif" font-size="10.00" fill="#000000"> m_pFirst</text>
<text text-anchor="middle" x="86.5" y="-98" font-family="Helvetica,sans-Serif" font-size="10.00" fill="#000000">m_pLast</text>
</g>
</g>
</svg>
