<?xml version="1.0" encoding="UTF-8" standalone="no"?>
<!DOCTYPE svg PUBLIC "-//W3C//DTD SVG 1.1//EN"
 "http://www.w3.org/Graphics/SVG/1.1/DTD/svg11.dtd">
<!-- Generated by graphviz version 2.43.0 (0)
 -->
<!-- Title: DolbyCaptureConfig Pages: 1 -->
<svg width="270pt" height="165pt"
 viewBox="0.00 0.00 270.00 165.00" xmlns="http://www.w3.org/2000/svg" xmlns:xlink="http://www.w3.org/1999/xlink">
<g id="graph0" class="graph" transform="scale(1 1) rotate(0) translate(4 161)">
<title>DolbyCaptureConfig</title>
<polygon fill="white" stroke="transparent" points="-4,4 -4,-161 266,-161 266,4 -4,4"/>
<!-- Node1 -->
<g id="node1" class="node">
<title>Node1</title>
<g id="a_node1"><a xlink:title="This class is used to configure an NTV2Capture instance.">
<polygon fill="#bfbfbf" stroke="black" points="0,-0.5 0,-19.5 114,-19.5 114,-0.5 0,-0.5"/>
<text text-anchor="middle" x="57" y="-7.5" font-family="Helvetica,sans-Serif" font-size="10.00">DolbyCaptureConfig</text>
</a>
</g>
</g>
<!-- Node2 -->
<g id="node2" class="node">
<title>Node2</title>
<g id="a_node2"><a xlink:href="../../d8/d37/class_capture_config.html" target="_top" xlink:title="This class is used to configure an NTV2Capture instance.">
<polygon fill="white" stroke="black" points="160,-58.5 160,-77.5 246,-77.5 246,-58.5 160,-58.5"/>
<text text-anchor="middle" x="203" y="-65.5" font-family="Helvetica,sans-Serif" font-size="10.00">CaptureConfig</text>
</a>
</g>
</g>
<!-- Node2&#45;&gt;Node1 -->
<g id="edge1" class="edge">
<title>Node2&#45;&gt;Node1</title>
<path fill="none" stroke="midnightblue" d="M171.19,-54.8C143.45,-44.16 103.91,-28.99 79.38,-19.59"/>
<polygon fill="midnightblue" stroke="midnightblue" points="170.24,-58.18 180.83,-58.49 172.74,-51.65 170.24,-58.18"/>
</g>
<!-- Node3 -->
<g id="node3" class="node">
<title>Node3</title>
<g id="a_node3"><a xlink:title=" ">
<polygon fill="white" stroke="#bfbfbf" points="48,-137.5 48,-156.5 92,-156.5 92,-137.5 48,-137.5"/>
<text text-anchor="middle" x="70" y="-144.5" font-family="Helvetica,sans-Serif" font-size="10.00">string</text>
</a>
</g>
</g>
<!-- Node3&#45;&gt;Node1 -->
<g id="edge4" class="edge">
<title>Node3&#45;&gt;Node1</title>
<path fill="none" stroke="#9a32cd" stroke-dasharray="5,2" d="M64.38,-127.62C60.6,-114.27 55.97,-95.7 54,-79 52.86,-69.29 53.68,-66.77 54,-57 54.42,-44.04 55.51,-29.06 56.25,-19.81"/>
<polygon fill="#9a32cd" stroke="#9a32cd" points="61.09,-128.84 67.27,-137.44 67.8,-126.86 61.09,-128.84"/>
<text text-anchor="middle" x="102.5" y="-71" font-family="Helvetica,sans-Serif" font-size="10.00"> fAudioDataFilePath</text>
<text text-anchor="middle" x="102.5" y="-60" font-family="Helvetica,sans-Serif" font-size="10.00">fDolbyDataFilePath</text>
</g>
<!-- Node3&#45;&gt;Node2 -->
<g id="edge2" class="edge">
<title>Node3&#45;&gt;Node2</title>
<path fill="none" stroke="#9a32cd" stroke-dasharray="5,2" d="M81.68,-129.35C89.9,-118.74 101.76,-105.45 115,-97 128.92,-88.12 145.88,-81.85 161.19,-77.53"/>
<polygon fill="#9a32cd" stroke="#9a32cd" points="78.81,-127.34 75.68,-137.47 84.44,-131.5 78.81,-127.34"/>
<text text-anchor="middle" x="157" y="-111" font-family="Helvetica,sans-Serif" font-size="10.00"> fDeviceSpec</text>
<text text-anchor="middle" x="157" y="-100" font-family="Helvetica,sans-Serif" font-size="10.00">fAncDataFilePath</text>
</g>
<!-- Node4 -->
<g id="node4" class="node">
<title>Node4</title>
<g id="a_node4"><a xlink:href="../../dd/de5/class_n_t_v2_a_c_frame_range.html" target="_top" xlink:title="AutoCirculate Frame Range.">
<polygon fill="white" stroke="black" points="144,-137.5 144,-156.5 262,-156.5 262,-137.5 144,-137.5"/>
<text text-anchor="middle" x="203" y="-144.5" font-family="Helvetica,sans-Serif" font-size="10.00">NTV2ACFrameRange</text>
</a>
</g>
</g>
<!-- Node4&#45;&gt;Node2 -->
<g id="edge3" class="edge">
<title>Node4&#45;&gt;Node2</title>
<path fill="none" stroke="#9a32cd" stroke-dasharray="5,2" d="M203,-127.31C203,-111.59 203,-89.81 203,-77.81"/>
<polygon fill="#9a32cd" stroke="#9a32cd" points="199.5,-127.47 203,-137.47 206.5,-127.47 199.5,-127.47"/>
<text text-anchor="middle" x="224.5" y="-105.5" font-family="Helvetica,sans-Serif" font-size="10.00"> fFrames</text>
</g>
</g>
</svg>
