<?xml version="1.0" encoding="UTF-8" standalone="no"?>
<!DOCTYPE svg PUBLIC "-//W3C//DTD SVG 1.1//EN"
 "http://www.w3.org/Graphics/SVG/1.1/DTD/svg11.dtd">
<!-- Generated by graphviz version 2.43.0 (0)
 -->
<!-- Title: /home/tcbuilder/buildAgent/work/df8e8cce5bebfd58/libajantv2/ajabase/common/commandline.cpp Pages: 1 -->
<svg width="833pt" height="274pt"
 viewBox="0.00 0.00 832.50 274.00" xmlns="http://www.w3.org/2000/svg" xmlns:xlink="http://www.w3.org/1999/xlink">
<g id="graph0" class="graph" transform="scale(1 1) rotate(0) translate(4 270)">
<title>/home/tcbuilder/buildAgent/work/df8e8cce5bebfd58/libajantv2/ajabase/common/commandline.cpp</title>
<polygon fill="white" stroke="transparent" points="-4,4 -4,-270 828.5,-270 828.5,4 -4,4"/>
<!-- Node1 -->
<g id="node1" class="node">
<title>Node1</title>
<g id="a_node1"><a xlink:title="Definition of Command Line classes.">
<polygon fill="#bfbfbf" stroke="black" points="490.5,-224.5 490.5,-265.5 684.5,-265.5 684.5,-224.5 490.5,-224.5"/>
<text text-anchor="start" x="498.5" y="-253.5" font-family="Helvetica,sans-Serif" font-size="10.00">/home/tcbuilder/buildAgent</text>
<text text-anchor="start" x="498.5" y="-242.5" font-family="Helvetica,sans-Serif" font-size="10.00">/work/df8e8cce5bebfd58/libajantv2</text>
<text text-anchor="middle" x="587.5" y="-231.5" font-family="Helvetica,sans-Serif" font-size="10.00">/ajabase/common/commandline.cpp</text>
</a>
</g>
</g>
<!-- Node2 -->
<g id="node2" class="node">
<title>Node2</title>
<g id="a_node2"><a xlink:href="../../d2/d8f/commandline_8h.html" target="_top" xlink:title="Declaration of Command Line classes.">
<polygon fill="white" stroke="black" points="218,-112.5 218,-131.5 397,-131.5 397,-112.5 218,-112.5"/>
<text text-anchor="middle" x="307.5" y="-119.5" font-family="Helvetica,sans-Serif" font-size="10.00">ajabase/common/commandline.h</text>
</a>
</g>
</g>
<!-- Node1&#45;&gt;Node2 -->
<g id="edge1" class="edge">
<title>Node1&#45;&gt;Node2</title>
<path fill="none" stroke="midnightblue" d="M539.95,-224.44C514.28,-213.8 482.09,-200.34 453.5,-188 412.3,-170.22 364.89,-148.97 335.56,-135.72"/>
<polygon fill="midnightblue" stroke="midnightblue" points="336.89,-132.48 326.34,-131.55 334.01,-138.86 336.89,-132.48"/>
</g>
<!-- Node9 -->
<g id="node9" class="node">
<title>Node9</title>
<g id="a_node9"><a xlink:href="../../dc/d54/common_8h.html" target="_top" xlink:title="Private include file for all ajabase sources.">
<polygon fill="white" stroke="black" points="0,-56.5 0,-75.5 155,-75.5 155,-56.5 0,-56.5"/>
<text text-anchor="middle" x="77.5" y="-63.5" font-family="Helvetica,sans-Serif" font-size="10.00">ajabase/common/common.h</text>
</a>
</g>
</g>
<!-- Node1&#45;&gt;Node9 -->
<g id="edge11" class="edge">
<title>Node1&#45;&gt;Node9</title>
<path fill="none" stroke="midnightblue" d="M506.66,-224.46C428.99,-204.67 308.93,-171.41 208.5,-132 170.15,-116.95 127.78,-94.86 101.9,-80.71"/>
<polygon fill="midnightblue" stroke="midnightblue" points="103.28,-77.47 92.83,-75.7 99.89,-83.6 103.28,-77.47"/>
</g>
<!-- Node11 -->
<g id="node11" class="node">
<title>Node11</title>
<g id="a_node11"><a xlink:href="../../db/db8/file__io_8h.html" target="_top" xlink:title="Declares the AJAFileIO class.">
<polygon fill="white" stroke="black" points="463,-168.5 463,-187.5 598,-187.5 598,-168.5 463,-168.5"/>
<text text-anchor="middle" x="530.5" y="-175.5" font-family="Helvetica,sans-Serif" font-size="10.00">ajabase/system/file_io.h</text>
</a>
</g>
</g>
<!-- Node1&#45;&gt;Node11 -->
<g id="edge17" class="edge">
<title>Node1&#45;&gt;Node11</title>
<path fill="none" stroke="midnightblue" d="M570.4,-224.5C562.25,-215.2 552.61,-204.21 544.84,-195.36"/>
<polygon fill="midnightblue" stroke="midnightblue" points="547.31,-192.86 538.09,-187.65 542.05,-197.48 547.31,-192.86"/>
</g>
<!-- Node16 -->
<g id="node16" class="node">
<title>Node16</title>
<g id="a_node16"><a xlink:title=" ">
<polygon fill="white" stroke="#bfbfbf" points="616.5,-168.5 616.5,-187.5 672.5,-187.5 672.5,-168.5 616.5,-168.5"/>
<text text-anchor="middle" x="644.5" y="-175.5" font-family="Helvetica,sans-Serif" font-size="10.00">iomanip</text>
</a>
</g>
</g>
<!-- Node1&#45;&gt;Node16 -->
<g id="edge30" class="edge">
<title>Node1&#45;&gt;Node16</title>
<path fill="none" stroke="midnightblue" d="M604.6,-224.5C612.75,-215.2 622.39,-204.21 630.16,-195.36"/>
<polygon fill="midnightblue" stroke="midnightblue" points="632.95,-197.48 636.91,-187.65 627.69,-192.86 632.95,-197.48"/>
</g>
<!-- Node17 -->
<g id="node17" class="node">
<title>Node17</title>
<g id="a_node17"><a xlink:title=" ">
<polygon fill="white" stroke="#bfbfbf" points="690.5,-168.5 690.5,-187.5 750.5,-187.5 750.5,-168.5 690.5,-168.5"/>
<text text-anchor="middle" x="720.5" y="-175.5" font-family="Helvetica,sans-Serif" font-size="10.00">iostream</text>
</a>
</g>
</g>
<!-- Node1&#45;&gt;Node17 -->
<g id="edge31" class="edge">
<title>Node1&#45;&gt;Node17</title>
<path fill="none" stroke="midnightblue" d="M627.4,-224.5C648.87,-214.01 674.77,-201.35 693.8,-192.05"/>
<polygon fill="midnightblue" stroke="midnightblue" points="695.35,-195.19 702.8,-187.65 692.27,-188.9 695.35,-195.19"/>
</g>
<!-- Node18 -->
<g id="node18" class="node">
<title>Node18</title>
<g id="a_node18"><a xlink:title=" ">
<polygon fill="white" stroke="#bfbfbf" points="768.5,-168.5 768.5,-187.5 824.5,-187.5 824.5,-168.5 768.5,-168.5"/>
<text text-anchor="middle" x="796.5" y="-175.5" font-family="Helvetica,sans-Serif" font-size="10.00">sstream</text>
</a>
</g>
</g>
<!-- Node1&#45;&gt;Node18 -->
<g id="edge32" class="edge">
<title>Node1&#45;&gt;Node18</title>
<path fill="none" stroke="midnightblue" d="M650.21,-224.5C685.75,-213.44 729.01,-199.99 759.23,-190.59"/>
<polygon fill="midnightblue" stroke="midnightblue" points="760.44,-193.88 768.95,-187.57 758.37,-187.19 760.44,-193.88"/>
</g>
<!-- Node3 -->
<g id="node3" class="node">
<title>Node3</title>
<g id="a_node3"><a xlink:href="../../db/db5/export_8h.html" target="_top" xlink:title="Declares system&#45;dependent import/export macros and libraries.">
<polygon fill="white" stroke="black" points="196.5,-0.5 196.5,-19.5 340.5,-19.5 340.5,-0.5 196.5,-0.5"/>
<text text-anchor="middle" x="268.5" y="-7.5" font-family="Helvetica,sans-Serif" font-size="10.00">ajabase/common/export.h</text>
</a>
</g>
</g>
<!-- Node2&#45;&gt;Node3 -->
<g id="edge2" class="edge">
<title>Node2&#45;&gt;Node3</title>
<path fill="none" stroke="midnightblue" d="M258.73,-112.5C237.71,-106.15 215.11,-95.12 202.5,-76 188.9,-55.38 215.38,-36.1 238.75,-23.98"/>
<polygon fill="midnightblue" stroke="midnightblue" points="240.35,-27.09 247.78,-19.54 237.26,-20.81 240.35,-27.09"/>
</g>
<!-- Node4 -->
<g id="node4" class="node">
<title>Node4</title>
<g id="a_node4"><a xlink:href="../../d6/d10/variant_8h.html" target="_top" xlink:title="Declares the AJAVariant class.">
<polygon fill="white" stroke="black" points="212,-56.5 212,-75.5 359,-75.5 359,-56.5 212,-56.5"/>
<text text-anchor="middle" x="285.5" y="-63.5" font-family="Helvetica,sans-Serif" font-size="10.00">ajabase/common/variant.h</text>
</a>
</g>
</g>
<!-- Node2&#45;&gt;Node4 -->
<g id="edge3" class="edge">
<title>Node2&#45;&gt;Node4</title>
<path fill="none" stroke="midnightblue" d="M303.87,-112.08C300.89,-104.77 296.57,-94.18 292.88,-85.1"/>
<polygon fill="midnightblue" stroke="midnightblue" points="296.08,-83.69 289.07,-75.75 289.6,-86.33 296.08,-83.69"/>
</g>
<!-- Node5 -->
<g id="node5" class="node">
<title>Node5</title>
<g id="a_node5"><a xlink:title=" ">
<polygon fill="white" stroke="#bfbfbf" points="441.5,-0.5 441.5,-19.5 485.5,-19.5 485.5,-0.5 441.5,-0.5"/>
<text text-anchor="middle" x="463.5" y="-7.5" font-family="Helvetica,sans-Serif" font-size="10.00">string</text>
</a>
</g>
</g>
<!-- Node2&#45;&gt;Node5 -->
<g id="edge8" class="edge">
<title>Node2&#45;&gt;Node5</title>
<path fill="none" stroke="midnightblue" d="M324.94,-112.45C341.55,-104.01 366.99,-90.33 387.5,-76 409.35,-60.73 432.34,-40.39 447.23,-26.56"/>
<polygon fill="midnightblue" stroke="midnightblue" points="449.72,-29.02 454.61,-19.62 444.93,-23.92 449.72,-29.02"/>
</g>
<!-- Node6 -->
<g id="node6" class="node">
<title>Node6</title>
<g id="a_node6"><a xlink:title=" ">
<polygon fill="white" stroke="#bfbfbf" points="364,-0.5 364,-19.5 411,-19.5 411,-0.5 364,-0.5"/>
<text text-anchor="middle" x="387.5" y="-7.5" font-family="Helvetica,sans-Serif" font-size="10.00">vector</text>
</a>
</g>
</g>
<!-- Node2&#45;&gt;Node6 -->
<g id="edge10" class="edge">
<title>Node2&#45;&gt;Node6</title>
<path fill="none" stroke="midnightblue" d="M324.06,-112.46C337.6,-104.68 356.26,-91.98 367.5,-76 377.16,-62.27 382.26,-43.74 384.88,-29.98"/>
<polygon fill="midnightblue" stroke="midnightblue" points="388.39,-30.18 386.55,-19.75 381.49,-29.05 388.39,-30.18"/>
</g>
<!-- Node8 -->
<g id="node8" class="node">
<title>Node8</title>
<g id="a_node8"><a xlink:title=" ">
<polygon fill="white" stroke="#bfbfbf" points="535.5,-0.5 535.5,-19.5 573.5,-19.5 573.5,-0.5 535.5,-0.5"/>
<text text-anchor="middle" x="554.5" y="-7.5" font-family="Helvetica,sans-Serif" font-size="10.00">map</text>
</a>
</g>
</g>
<!-- Node2&#45;&gt;Node8 -->
<g id="edge9" class="edge">
<title>Node2&#45;&gt;Node8</title>
<path fill="none" stroke="midnightblue" d="M328.51,-112.43C350.16,-103.54 384.83,-89.12 414.5,-76 453.96,-58.55 499.17,-37.34 527.28,-24"/>
<polygon fill="midnightblue" stroke="midnightblue" points="528.94,-27.08 536.47,-19.63 525.94,-20.76 528.94,-27.08"/>
</g>
<!-- Node4&#45;&gt;Node3 -->
<g id="edge4" class="edge">
<title>Node4&#45;&gt;Node3</title>
<path fill="none" stroke="midnightblue" d="M282.69,-56.08C280.42,-48.85 277.13,-38.41 274.29,-29.4"/>
<polygon fill="midnightblue" stroke="midnightblue" points="277.6,-28.24 271.25,-19.75 270.92,-30.34 277.6,-28.24"/>
</g>
<!-- Node4&#45;&gt;Node5 -->
<g id="edge5" class="edge">
<title>Node4&#45;&gt;Node5</title>
<path fill="none" stroke="midnightblue" d="M313.7,-56.44C345.78,-46.71 398.02,-30.86 431.57,-20.69"/>
<polygon fill="midnightblue" stroke="midnightblue" points="432.78,-23.98 441.33,-17.73 430.75,-17.28 432.78,-23.98"/>
</g>
<!-- Node4&#45;&gt;Node6 -->
<g id="edge6" class="edge">
<title>Node4&#45;&gt;Node6</title>
<path fill="none" stroke="midnightblue" d="M301.89,-56.32C318.17,-47.7 343.37,-34.36 362.22,-24.39"/>
<polygon fill="midnightblue" stroke="midnightblue" points="363.95,-27.43 371.15,-19.65 360.68,-21.24 363.95,-27.43"/>
</g>
<!-- Node7 -->
<g id="node7" class="node">
<title>Node7</title>
<g id="a_node7"><a xlink:title=" ">
<polygon fill="white" stroke="#bfbfbf" points="117.5,-0.5 117.5,-19.5 167.5,-19.5 167.5,-0.5 117.5,-0.5"/>
<text text-anchor="middle" x="142.5" y="-7.5" font-family="Helvetica,sans-Serif" font-size="10.00">cstdint</text>
</a>
</g>
</g>
<!-- Node4&#45;&gt;Node7 -->
<g id="edge7" class="edge">
<title>Node4&#45;&gt;Node7</title>
<path fill="none" stroke="midnightblue" d="M262.84,-56.44C239.1,-47.48 201.59,-33.31 174.76,-23.18"/>
<polygon fill="midnightblue" stroke="midnightblue" points="175.64,-19.77 165.05,-19.52 173.17,-26.32 175.64,-19.77"/>
</g>
<!-- Node9&#45;&gt;Node3 -->
<g id="edge12" class="edge">
<title>Node9&#45;&gt;Node3</title>
<path fill="none" stroke="midnightblue" d="M107.76,-56.44C140.46,-47.2 192.68,-32.44 228.68,-22.26"/>
<polygon fill="midnightblue" stroke="midnightblue" points="229.71,-25.61 238.38,-19.52 227.8,-18.87 229.71,-25.61"/>
</g>
<!-- Node9&#45;&gt;Node5 -->
<g id="edge14" class="edge">
<title>Node9&#45;&gt;Node5</title>
<path fill="none" stroke="midnightblue" d="M154.14,-56.49C223.6,-48.41 328.69,-35.24 419.5,-20 423.26,-19.37 427.19,-18.65 431.08,-17.9"/>
<polygon fill="midnightblue" stroke="midnightblue" points="432.05,-21.28 441.17,-15.89 430.68,-14.41 432.05,-21.28"/>
</g>
<!-- Node9&#45;&gt;Node6 -->
<g id="edge15" class="edge">
<title>Node9&#45;&gt;Node6</title>
<path fill="none" stroke="midnightblue" d="M136.08,-56.5C191.3,-48.2 276.29,-34.71 349.5,-20 350.95,-19.71 352.44,-19.4 353.93,-19.08"/>
<polygon fill="midnightblue" stroke="midnightblue" points="354.84,-22.46 363.84,-16.87 353.32,-15.63 354.84,-22.46"/>
</g>
<!-- Node9&#45;&gt;Node7 -->
<g id="edge16" class="edge">
<title>Node9&#45;&gt;Node7</title>
<path fill="none" stroke="midnightblue" d="M87.94,-56.32C97.65,-48.26 112.32,-36.08 124,-26.37"/>
<polygon fill="midnightblue" stroke="midnightblue" points="126.41,-28.92 131.87,-19.83 121.94,-23.53 126.41,-28.92"/>
</g>
<!-- Node10 -->
<g id="node10" class="node">
<title>Node10</title>
<g id="a_node10"><a xlink:title=" ">
<polygon fill="white" stroke="#bfbfbf" points="61.5,-0.5 61.5,-19.5 93.5,-19.5 93.5,-0.5 61.5,-0.5"/>
<text text-anchor="middle" x="77.5" y="-7.5" font-family="Helvetica,sans-Serif" font-size="10.00">set</text>
</a>
</g>
</g>
<!-- Node9&#45;&gt;Node10 -->
<g id="edge13" class="edge">
<title>Node9&#45;&gt;Node10</title>
<path fill="none" stroke="midnightblue" d="M77.5,-56.08C77.5,-49.01 77.5,-38.86 77.5,-29.99"/>
<polygon fill="midnightblue" stroke="midnightblue" points="81,-29.75 77.5,-19.75 74,-29.75 81,-29.75"/>
</g>
<!-- Node11&#45;&gt;Node5 -->
<g id="edge29" class="edge">
<title>Node11&#45;&gt;Node5</title>
<path fill="none" stroke="midnightblue" d="M526.9,-168.08C516.31,-141.83 485.11,-64.55 470.81,-29.12"/>
<polygon fill="midnightblue" stroke="midnightblue" points="473.95,-27.53 466.96,-19.57 467.46,-30.15 473.95,-27.53"/>
</g>
<!-- Node11&#45;&gt;Node6 -->
<g id="edge28" class="edge">
<title>Node11&#45;&gt;Node6</title>
<path fill="none" stroke="midnightblue" d="M522.81,-168.08C499.82,-141.38 431.32,-61.87 401.56,-27.32"/>
<polygon fill="midnightblue" stroke="midnightblue" points="404.06,-24.86 394.88,-19.57 398.76,-29.43 404.06,-24.86"/>
</g>
<!-- Node12 -->
<g id="node12" class="node">
<title>Node12</title>
<g id="a_node12"><a xlink:href="../../d9/d49/types_8h.html" target="_top" xlink:title="Declares common types used in the ajabase library.">
<polygon fill="white" stroke="black" points="680.5,-0.5 680.5,-19.5 820.5,-19.5 820.5,-0.5 680.5,-0.5"/>
<text text-anchor="middle" x="750.5" y="-7.5" font-family="Helvetica,sans-Serif" font-size="10.00">ajabase/common/types.h</text>
</a>
</g>
</g>
<!-- Node11&#45;&gt;Node12 -->
<g id="edge18" class="edge">
<title>Node11&#45;&gt;Node12</title>
<path fill="none" stroke="midnightblue" d="M590.24,-168.48C650.91,-159.22 737.38,-144.13 747.5,-132 771.65,-103.06 763.43,-55.27 756.35,-29.25"/>
<polygon fill="midnightblue" stroke="midnightblue" points="759.67,-28.15 753.48,-19.56 752.96,-30.14 759.67,-28.15"/>
</g>
<!-- Node13 -->
<g id="node13" class="node">
<title>Node13</title>
<g id="a_node13"><a xlink:href="../../d4/d79/public_8h.html" target="_top" xlink:title="Master header for the ajabase library.">
<polygon fill="white" stroke="black" points="567.5,-56.5 567.5,-75.5 709.5,-75.5 709.5,-56.5 567.5,-56.5"/>
<text text-anchor="middle" x="638.5" y="-63.5" font-family="Helvetica,sans-Serif" font-size="10.00">ajabase/common/public.h</text>
</a>
</g>
</g>
<!-- Node11&#45;&gt;Node13 -->
<g id="edge19" class="edge">
<title>Node11&#45;&gt;Node13</title>
<path fill="none" stroke="midnightblue" d="M537.54,-168.27C547.99,-155.5 568.43,-131.13 587.5,-112 597.92,-101.55 610.32,-90.57 620.29,-82.08"/>
<polygon fill="midnightblue" stroke="midnightblue" points="622.6,-84.71 627.99,-75.59 618.09,-79.36 622.6,-84.71"/>
</g>
<!-- Node15 -->
<g id="node15" class="node">
<title>Node15</title>
<g id="a_node15"><a xlink:href="../../dc/db2/system_8h.html" target="_top" xlink:title="System specific functions.">
<polygon fill="white" stroke="black" points="596.5,-112.5 596.5,-131.5 738.5,-131.5 738.5,-112.5 596.5,-112.5"/>
<text text-anchor="middle" x="667.5" y="-119.5" font-family="Helvetica,sans-Serif" font-size="10.00">ajabase/system/system.h</text>
</a>
</g>
</g>
<!-- Node11&#45;&gt;Node15 -->
<g id="edge26" class="edge">
<title>Node11&#45;&gt;Node15</title>
<path fill="none" stroke="midnightblue" d="M552.21,-168.44C574.85,-159.52 610.57,-145.44 636.25,-135.32"/>
<polygon fill="midnightblue" stroke="midnightblue" points="637.87,-138.44 645.89,-131.52 635.31,-131.93 637.87,-138.44"/>
</g>
<!-- Node13&#45;&gt;Node3 -->
<g id="edge20" class="edge">
<title>Node13&#45;&gt;Node3</title>
<path fill="none" stroke="midnightblue" d="M579.87,-56.44C513.84,-46.81 406.66,-31.16 336.87,-20.98"/>
<polygon fill="midnightblue" stroke="midnightblue" points="337.25,-17.5 326.85,-19.52 336.24,-24.42 337.25,-17.5"/>
</g>
<!-- Node13&#45;&gt;Node5 -->
<g id="edge21" class="edge">
<title>Node13&#45;&gt;Node5</title>
<path fill="none" stroke="midnightblue" d="M610.77,-56.44C579.33,-46.74 528.16,-30.95 495.17,-20.77"/>
<polygon fill="midnightblue" stroke="midnightblue" points="496.15,-17.41 485.56,-17.81 494.08,-24.1 496.15,-17.41"/>
</g>
<!-- Node13&#45;&gt;Node6 -->
<g id="edge23" class="edge">
<title>Node13&#45;&gt;Node6</title>
<path fill="none" stroke="midnightblue" d="M598.73,-56.44C549.64,-45.88 467.02,-28.11 421.01,-18.21"/>
<polygon fill="midnightblue" stroke="midnightblue" points="421.74,-14.79 411.22,-16.1 420.26,-21.63 421.74,-14.79"/>
</g>
<!-- Node13&#45;&gt;Node8 -->
<g id="edge24" class="edge">
<title>Node13&#45;&gt;Node8</title>
<path fill="none" stroke="midnightblue" d="M625,-56.32C611.9,-47.9 591.79,-34.97 576.39,-25.07"/>
<polygon fill="midnightblue" stroke="midnightblue" points="578.27,-22.12 567.96,-19.65 574.48,-28.01 578.27,-22.12"/>
</g>
<!-- Node13&#45;&gt;Node12 -->
<g id="edge25" class="edge">
<title>Node13&#45;&gt;Node12</title>
<path fill="none" stroke="midnightblue" d="M656.49,-56.32C674.54,-47.62 702.55,-34.12 723.3,-24.11"/>
<polygon fill="midnightblue" stroke="midnightblue" points="725.06,-27.15 732.55,-19.65 722.02,-20.84 725.06,-27.15"/>
</g>
<!-- Node14 -->
<g id="node14" class="node">
<title>Node14</title>
<g id="a_node14"><a xlink:title=" ">
<polygon fill="white" stroke="#bfbfbf" points="622.5,-0.5 622.5,-19.5 654.5,-19.5 654.5,-0.5 622.5,-0.5"/>
<text text-anchor="middle" x="638.5" y="-7.5" font-family="Helvetica,sans-Serif" font-size="10.00">list</text>
</a>
</g>
</g>
<!-- Node13&#45;&gt;Node14 -->
<g id="edge22" class="edge">
<title>Node13&#45;&gt;Node14</title>
<path fill="none" stroke="midnightblue" d="M638.5,-56.08C638.5,-49.01 638.5,-38.86 638.5,-29.99"/>
<polygon fill="midnightblue" stroke="midnightblue" points="642,-29.75 638.5,-19.75 635,-29.75 642,-29.75"/>
</g>
<!-- Node15&#45;&gt;Node13 -->
<g id="edge27" class="edge">
<title>Node15&#45;&gt;Node13</title>
<path fill="none" stroke="midnightblue" d="M662.71,-112.08C658.74,-104.69 652.97,-93.95 648.07,-84.81"/>
<polygon fill="midnightblue" stroke="midnightblue" points="651.01,-82.91 643.2,-75.75 644.85,-86.22 651.01,-82.91"/>
</g>
</g>
</svg>
