<?xml version="1.0" encoding="UTF-8" standalone="no"?>
<!DOCTYPE svg PUBLIC "-//W3C//DTD SVG 1.1//EN"
 "http://www.w3.org/Graphics/SVG/1.1/DTD/svg11.dtd">
<!-- Generated by graphviz version 2.40.1 (0)
 -->
<!-- Title: CNTV2MacDriverInterface Pages: 1 -->
<svg width="205pt" height="286pt"
 viewBox="0.00 0.00 204.50 286.00" xmlns="http://www.w3.org/2000/svg" xmlns:xlink="http://www.w3.org/1999/xlink">
<g id="graph0" class="graph" transform="scale(1 1) rotate(0) translate(4 282)">
<title>CNTV2MacDriverInterface</title>
<polygon fill="#ffffff" stroke="transparent" points="-4,4 -4,-282 200.5,-282 200.5,4 -4,4"/>
<!-- Node4 -->
<g id="node1" class="node">
<title>Node4</title>
<polygon fill="#bfbfbf" stroke="#000000" points="0,-.5 0,-19.5 133,-19.5 133,-.5 0,-.5"/>
<text text-anchor="middle" x="66.5" y="-7.5" font-family="Helvetica,sans-Serif" font-size="10.00" fill="#000000">CNTV2MacDriverInterface</text>
</g>
<!-- Node5 -->
<g id="node2" class="node">
<title>Node5</title>
<g id="a_node2"><a xlink:href="../../d0/dbc/class_c_n_t_v2_driver_interface.html" target="_top" xlink:title="I&#39;m the base class that undergirds the platform&#45;specific derived classes (from which CNTV2Card is ult...">
<polygon fill="#ffffff" stroke="#000000" points="9.5,-57.5 9.5,-76.5 123.5,-76.5 123.5,-57.5 9.5,-57.5"/>
<text text-anchor="middle" x="66.5" y="-64.5" font-family="Helvetica,sans-Serif" font-size="10.00" fill="#000000">CNTV2DriverInterface</text>
</a>
</g>
</g>
<!-- Node5&#45;&gt;Node4 -->
<g id="edge1" class="edge">
<title>Node5&#45;&gt;Node4</title>
<path fill="none" stroke="#191970" d="M66.5,-47.2342C66.5,-37.8491 66.5,-27.0651 66.5,-19.5265"/>
<polygon fill="#191970" stroke="#191970" points="63.0001,-47.3307 66.5,-57.3307 70.0001,-47.3308 63.0001,-47.3307"/>
</g>
<!-- Node6 -->
<g id="node3" class="node">
<title>Node6</title>
<g id="a_node3"><a xlink:href="../../d2/d94/class_n_t_v2_r_p_c_client_a_p_i.html" target="_top" xlink:title="An object that can connect to, and operate remote or fake devices. I have three general API groups: ...">
<polygon fill="#ffffff" stroke="#000000" points="71,-124.5 71,-143.5 176,-143.5 176,-124.5 71,-124.5"/>
<text text-anchor="middle" x="123.5" y="-131.5" font-family="Helvetica,sans-Serif" font-size="10.00" fill="#000000">NTV2RPCClientAPI</text>
</a>
</g>
</g>
<!-- Node6&#45;&gt;Node5 -->
<g id="edge2" class="edge">
<title>Node6&#45;&gt;Node5</title>
<path fill="none" stroke="#9a32cd" stroke-dasharray="5,2" d="M108.7946,-116.7147C97.9274,-103.941 83.534,-87.0224 74.6516,-76.5817"/>
<polygon fill="#9a32cd" stroke="#9a32cd" points="106.1877,-119.0519 115.3333,-124.4005 111.5193,-114.516 106.1877,-119.0519"/>
<text text-anchor="middle" x="124.5" y="-98" font-family="Helvetica,sans-Serif" font-size="10.00" fill="#000000"> _pRPCAPI</text>
</g>
<!-- Node7 -->
<g id="node4" class="node">
<title>Node7</title>
<g id="a_node4"><a xlink:href="../../d7/d93/class_n_t_v2_r_p_c_base.html" target="_top" xlink:title="Common base class for NTV2RPCClientAPI and NTV2RPCServerAPI. ">
<polygon fill="#ffffff" stroke="#000000" points="87.5,-191.5 87.5,-210.5 173.5,-210.5 173.5,-191.5 87.5,-191.5"/>
<text text-anchor="middle" x="130.5" y="-198.5" font-family="Helvetica,sans-Serif" font-size="10.00" fill="#000000">NTV2RPCBase</text>
</a>
</g>
</g>
<!-- Node7&#45;&gt;Node6 -->
<g id="edge3" class="edge">
<title>Node7&#45;&gt;Node6</title>
<path fill="none" stroke="#191970" d="M128.4217,-181.1079C127.1268,-168.714 125.5192,-153.3263 124.5011,-143.5817"/>
<polygon fill="#191970" stroke="#191970" points="124.9768,-181.8184 129.4971,-191.4005 131.9389,-181.0909 124.9768,-181.8184"/>
</g>
<!-- Node8 -->
<g id="node5" class="node">
<title>Node8</title>
<g id="a_node5"><a xlink:href="../../d9/df4/class_a_j_a_lock.html" target="_top" xlink:title="AJALock">
<polygon fill="#ffffff" stroke="#000000" points="22.5,-258.5 22.5,-277.5 78.5,-277.5 78.5,-258.5 22.5,-258.5"/>
<text text-anchor="middle" x="50.5" y="-265.5" font-family="Helvetica,sans-Serif" font-size="10.00" fill="#000000">AJALock</text>
</a>
</g>
</g>
<!-- Node8&#45;&gt;Node5 -->
<g id="edge6" class="edge">
<title>Node8&#45;&gt;Node5</title>
<path fill="none" stroke="#9a32cd" stroke-dasharray="5,2" d="M47.3811,-248.2492C44.4788,-226.917 41.0763,-191.9597 44.5,-162 48.1329,-130.2101 58.3929,-93.5793 63.5145,-76.5829"/>
<polygon fill="#9a32cd" stroke="#9a32cd" points="43.944,-248.9345 48.8549,-258.3224 50.8702,-247.9211 43.944,-248.9345"/>
<text text-anchor="middle" x="84" y="-165" font-family="Helvetica,sans-Serif" font-size="10.00" fill="#000000"> mRegWritesLock</text>
</g>
<!-- Node8&#45;&gt;Node7 -->
<g id="edge4" class="edge">
<title>Node8&#45;&gt;Node7</title>
<path fill="none" stroke="#9a32cd" stroke-dasharray="5,2" d="M59.6967,-249.3908C63.8209,-242.3739 69.188,-234.7153 75.5,-229 83.9986,-221.3048 95.0013,-215.1508 104.9301,-210.5939"/>
<polygon fill="#9a32cd" stroke="#9a32cd" points="56.547,-247.8574 54.8712,-258.3189 62.7051,-251.1858 56.547,-247.8574"/>
<text text-anchor="middle" x="106" y="-232" font-family="Helvetica,sans-Serif" font-size="10.00" fill="#000000"> mParamLock</text>
</g>
<!-- Node9 -->
<g id="node6" class="node">
<title>Node9</title>
<g id="a_node6"><a xlink:href="../../d6/d01/class_n_t_v2_dictionary.html" target="_top" xlink:title="A simple (not thread&#45;safe) set of key/value pairs. (New in SDK 16.3) ">
<polygon fill="#ffffff" stroke="#000000" points="110.5,-258.5 110.5,-277.5 196.5,-277.5 196.5,-258.5 110.5,-258.5"/>
<text text-anchor="middle" x="153.5" y="-265.5" font-family="Helvetica,sans-Serif" font-size="10.00" fill="#000000">NTV2Dictionary</text>
</a>
</g>
</g>
<!-- Node9&#45;&gt;Node7 -->
<g id="edge5" class="edge">
<title>Node9&#45;&gt;Node7</title>
<path fill="none" stroke="#9a32cd" stroke-dasharray="5,2" d="M146.9305,-248.8628C142.6332,-236.3444 137.2027,-220.5252 133.7892,-210.5817"/>
<polygon fill="#9a32cd" stroke="#9a32cd" points="143.6474,-250.0787 150.2047,-258.4005 150.2681,-247.8059 143.6474,-250.0787"/>
<text text-anchor="middle" x="165.5" y="-232" font-family="Helvetica,sans-Serif" font-size="10.00" fill="#000000"> mParams</text>
</g>
</g>
</svg>
