<?xml version="1.0" encoding="UTF-8" standalone="no"?>
<!DOCTYPE svg PUBLIC "-//W3C//DTD SVG 1.1//EN"
 "http://www.w3.org/Graphics/SVG/1.1/DTD/svg11.dtd">
<!-- Generated by graphviz version 2.40.1 (0)
 -->
<!-- Title: /home/tcbuilder/buildAgent/work/df8e8cce5bebfd58/libajantv2/demos/ntv2burn4kquadrant/ntv2burn4kquadrant.h Pages: 1 -->
<svg width="2790pt" height="677pt"
 viewBox="0.00 0.00 2789.70 677.00" xmlns="http://www.w3.org/2000/svg" xmlns:xlink="http://www.w3.org/1999/xlink">
<g id="graph0" class="graph" transform="scale(1 1) rotate(0) translate(4 673)">
<title>/home/tcbuilder/buildAgent/work/df8e8cce5bebfd58/libajantv2/demos/ntv2burn4kquadrant/ntv2burn4kquadrant.h</title>
<polygon fill="#ffffff" stroke="transparent" points="-4,4 -4,-673 2785.6969,-673 2785.6969,4 -4,4"/>
<!-- Node0 -->
<g id="node1" class="node">
<title>Node0</title>
<polygon fill="#bfbfbf" stroke="#000000" points="2270.1969,-627.5 2270.1969,-668.5 2504.1969,-668.5 2504.1969,-627.5 2270.1969,-627.5"/>
<text text-anchor="start" x="2278.1969" y="-656.5" font-family="Helvetica,sans-Serif" font-size="10.00" fill="#000000">/home/tcbuilder/buildAgent</text>
<text text-anchor="start" x="2278.1969" y="-645.5" font-family="Helvetica,sans-Serif" font-size="10.00" fill="#000000">/work/df8e8cce5bebfd58/libajantv2</text>
<text text-anchor="middle" x="2387.1969" y="-634.5" font-family="Helvetica,sans-Serif" font-size="10.00" fill="#000000">/demos/ntv2burn4kquadrant/ntv2burn4kquadrant.h</text>
</g>
<!-- Node1 -->
<g id="node2" class="node">
<title>Node1</title>
<g id="a_node2"><a xlink:href="../../df/d4b/ntv2card_8h.html" target="_top" xlink:title="Declares the CNTV2Card class. ">
<polygon fill="#ffffff" stroke="#000000" points="1290.1969,-515.5 1290.1969,-534.5 1352.1969,-534.5 1352.1969,-515.5 1290.1969,-515.5"/>
<text text-anchor="middle" x="1321.1969" y="-522.5" font-family="Helvetica,sans-Serif" font-size="10.00" fill="#000000">ntv2card.h</text>
</a>
</g>
</g>
<!-- Node0&#45;&gt;Node1 -->
<g id="edge1" class="edge">
<title>Node0&#45;&gt;Node1</title>
<path fill="none" stroke="#191970" d="M2270.0012,-636.8818C2082.0901,-618.5951 1701.9174,-579.707 1381.1969,-535 1375.1665,-534.1594 1368.809,-533.1902 1362.5776,-532.1929"/>
<polygon fill="#191970" stroke="#191970" points="1362.7244,-528.6703 1352.2898,-530.506 1361.5916,-535.5781 1362.7244,-528.6703"/>
</g>
<!-- Node42 -->
<g id="node43" class="node">
<title>Node42</title>
<g id="a_node43"><a xlink:href="../../d9/de9/ntv2democommon_8h.html" target="_top" xlink:title="This file contains some structures, constants, classes and functions that are used in some of the dem...">
<polygon fill="#ffffff" stroke="#000000" points="1946.6969,-571.5 1946.6969,-590.5 2051.6969,-590.5 2051.6969,-571.5 1946.6969,-571.5"/>
<text text-anchor="middle" x="1999.1969" y="-578.5" font-family="Helvetica,sans-Serif" font-size="10.00" fill="#000000">ntv2democommon.h</text>
</a>
</g>
</g>
<!-- Node0&#45;&gt;Node42 -->
<g id="edge88" class="edge">
<title>Node0&#45;&gt;Node42</title>
<path fill="none" stroke="#191970" d="M2269.9946,-627.7615C2201.6342,-615.9569 2118.1024,-601.5326 2062.0453,-591.8527"/>
<polygon fill="#191970" stroke="#191970" points="2062.3575,-588.3549 2051.9078,-590.1021 2061.1664,-595.2528 2062.3575,-588.3549"/>
</g>
<!-- Node49 -->
<g id="node50" class="node">
<title>Node49</title>
<g id="a_node50"><a xlink:href="../../d0/d77/circularbuffer_8h.html" target="_top" xlink:title="Declaration of AJACircularBuffer template class. ">
<polygon fill="#ffffff" stroke="#000000" points="2301.6969,-347.5 2301.6969,-366.5 2458.6969,-366.5 2458.6969,-347.5 2301.6969,-347.5"/>
<text text-anchor="middle" x="2380.1969" y="-354.5" font-family="Helvetica,sans-Serif" font-size="10.00" fill="#000000">ajabase/common/circularbuffer.h</text>
</a>
</g>
</g>
<!-- Node0&#45;&gt;Node49 -->
<g id="edge143" class="edge">
<title>Node0&#45;&gt;Node49</title>
<path fill="none" stroke="#191970" d="M2387.1969,-627.1071C2387.1969,-602.6357 2387.1969,-560.875 2387.1969,-525 2387.1969,-525 2387.1969,-525 2387.1969,-469 2387.1969,-436.6486 2384.2517,-399.1429 2382.1821,-376.7814"/>
<polygon fill="#191970" stroke="#191970" points="2385.6418,-376.1945 2381.1998,-366.5758 2378.674,-376.8651 2385.6418,-376.1945"/>
</g>
<!-- Node58 -->
<g id="node59" class="node">
<title>Node58</title>
<g id="a_node59"><a xlink:href="../../d5/dc1/timecodeburn_8h.html" target="_top" xlink:title="Declares the AJATimeCodeBurn class. ">
<polygon fill="#ffffff" stroke="#000000" points="2620.6969,-571.5 2620.6969,-590.5 2781.6969,-590.5 2781.6969,-571.5 2620.6969,-571.5"/>
<text text-anchor="middle" x="2701.1969" y="-578.5" font-family="Helvetica,sans-Serif" font-size="10.00" fill="#000000">ajabase/common/timecodeburn.h</text>
</a>
</g>
</g>
<!-- Node0&#45;&gt;Node58 -->
<g id="edge139" class="edge">
<title>Node0&#45;&gt;Node58</title>
<path fill="none" stroke="#191970" d="M2483.5412,-627.4425C2537.1735,-615.9986 2601.9651,-602.1737 2646.8401,-592.5984"/>
<polygon fill="#191970" stroke="#191970" points="2647.6172,-596.0115 2656.6666,-590.5017 2646.1564,-589.1656 2647.6172,-596.0115"/>
</g>
<!-- Node59 -->
<g id="node60" class="node">
<title>Node59</title>
<g id="a_node60"><a xlink:href="../../db/dd5/thread_8h.html" target="_top" xlink:title="Declares the AJAThread class. ">
<polygon fill="#ffffff" stroke="#000000" points="2470.1969,-403.5 2470.1969,-422.5 2594.1969,-422.5 2594.1969,-403.5 2470.1969,-403.5"/>
<text text-anchor="middle" x="2532.1969" y="-410.5" font-family="Helvetica,sans-Serif" font-size="10.00" fill="#000000">ajabase/system/thread.h</text>
</a>
</g>
</g>
<!-- Node0&#45;&gt;Node59 -->
<g id="edge144" class="edge">
<title>Node0&#45;&gt;Node59</title>
<path fill="none" stroke="#191970" d="M2452.9042,-627.3554C2495.7671,-610.079 2548.3842,-580.7577 2574.1969,-535 2593.7035,-500.4211 2566.0694,-455.2459 2547.218,-430.7205"/>
<polygon fill="#191970" stroke="#191970" points="2549.7578,-428.2928 2540.7737,-422.677 2544.2948,-432.6696 2549.7578,-428.2928"/>
</g>
<!-- Node2 -->
<g id="node3" class="node">
<title>Node2</title>
<g id="a_node3"><a xlink:href="../../d3/d7d/ntv2macdriverinterface_8h.html" target="_top" xlink:title="Implements the MacOS&#45;specific flavor of CNTV2DriverInterface. ">
<polygon fill="#ffffff" stroke="#000000" points="1224.1969,-459.5 1224.1969,-478.5 1348.1969,-478.5 1348.1969,-459.5 1224.1969,-459.5"/>
<text text-anchor="middle" x="1286.1969" y="-466.5" font-family="Helvetica,sans-Serif" font-size="10.00" fill="#000000">ntv2macdriverinterface.h</text>
</a>
</g>
</g>
<!-- Node1&#45;&gt;Node2 -->
<g id="edge2" class="edge">
<title>Node1&#45;&gt;Node2</title>
<path fill="none" stroke="#191970" d="M1315.1004,-515.2455C1310.2824,-507.5367 1303.4218,-496.5598 1297.5937,-487.2348"/>
<polygon fill="#191970" stroke="#191970" points="1300.4916,-485.2677 1292.2236,-478.6427 1294.5556,-488.9777 1300.4916,-485.2677"/>
</g>
<!-- Node25 -->
<g id="node26" class="node">
<title>Node25</title>
<g id="a_node26"><a xlink:href="../../d0/d81/ntv2utils_8h.html" target="_top" xlink:title="Declares numerous NTV2 utility functions. ">
<polygon fill="#ffffff" stroke="#000000" points="728.1969,-291.5 728.1969,-310.5 790.1969,-310.5 790.1969,-291.5 728.1969,-291.5"/>
<text text-anchor="middle" x="759.1969" y="-298.5" font-family="Helvetica,sans-Serif" font-size="10.00" fill="#000000">ntv2utils.h</text>
</a>
</g>
</g>
<!-- Node1&#45;&gt;Node25 -->
<g id="edge85" class="edge">
<title>Node1&#45;&gt;Node25</title>
<path fill="none" stroke="#191970" d="M1290.1804,-523.4724C1209.3601,-519.1599 994.0077,-505.451 928.1969,-479 856.4934,-450.1806 842.2971,-428.266 795.1969,-367 783.9132,-352.3226 774.0815,-333.6479 767.5569,-319.9115"/>
<polygon fill="#191970" stroke="#191970" points="770.597,-318.1446 763.2429,-310.5179 764.2357,-321.0661 770.597,-318.1446"/>
</g>
<!-- Node38 -->
<g id="node39" class="node">
<title>Node38</title>
<g id="a_node39"><a xlink:href="../../dc/d95/ntv2signalrouter_8h.html" target="_top" xlink:title="Declares CNTV2SignalRouter class. ">
<polygon fill="#ffffff" stroke="#000000" points="1404.6969,-230 1404.6969,-249 1497.6969,-249 1497.6969,-230 1404.6969,-230"/>
<text text-anchor="middle" x="1451.1969" y="-237" font-family="Helvetica,sans-Serif" font-size="10.00" fill="#000000">ntv2signalrouter.h</text>
</a>
</g>
</g>
<!-- Node1&#45;&gt;Node38 -->
<g id="edge78" class="edge">
<title>Node1&#45;&gt;Node38</title>
<path fill="none" stroke="#191970" d="M1342.7916,-515.4123C1375.3375,-499.3204 1433.1969,-463.5974 1433.1969,-413 1433.1969,-413 1433.1969,-413 1433.1969,-357 1433.1969,-322.2391 1440.9893,-282.3538 1446.3199,-259.1357"/>
<polygon fill="#191970" stroke="#191970" points="1449.7808,-259.711 1448.6941,-249.1721 1442.9714,-258.0884 1449.7808,-259.711"/>
</g>
<!-- Node41 -->
<g id="node42" class="node">
<title>Node41</title>
<g id="a_node42"><a xlink:href="../../d8/d58/ntv2devicecapabilities_8h.html" target="_top" xlink:title="Declares the DeviceCapabilities class. ">
<polygon fill="#ffffff" stroke="#000000" points="937.6969,-459.5 937.6969,-478.5 1058.6969,-478.5 1058.6969,-459.5 937.6969,-459.5"/>
<text text-anchor="middle" x="998.1969" y="-466.5" font-family="Helvetica,sans-Serif" font-size="10.00" fill="#000000">ntv2devicecapabilities.h</text>
</a>
</g>
</g>
<!-- Node1&#45;&gt;Node41 -->
<g id="edge86" class="edge">
<title>Node1&#45;&gt;Node41</title>
<path fill="none" stroke="#191970" d="M1289.9328,-519.5796C1237.7214,-510.5275 1131.7367,-492.1524 1062.9108,-480.2197"/>
<polygon fill="#191970" stroke="#191970" points="1063.4875,-476.7676 1053.0366,-478.5078 1062.2917,-483.6647 1063.4875,-476.7676"/>
</g>
<!-- Node3 -->
<g id="node4" class="node">
<title>Node3</title>
<g id="a_node4"><a xlink:href="../../d4/dd7/ntv2publicinterface_8h.html" target="_top" xlink:title="Declares enums and structs used by all platform drivers and the SDK. ">
<polygon fill="#ffffff" stroke="#000000" points="1083.6969,-168.5 1083.6969,-187.5 1190.6969,-187.5 1190.6969,-168.5 1083.6969,-168.5"/>
<text text-anchor="middle" x="1137.1969" y="-175.5" font-family="Helvetica,sans-Serif" font-size="10.00" fill="#000000">ntv2publicinterface.h</text>
</a>
</g>
</g>
<!-- Node2&#45;&gt;Node3 -->
<g id="edge3" class="edge">
<title>Node2&#45;&gt;Node3</title>
<path fill="none" stroke="#191970" d="M1303.2536,-459.377C1315.5058,-451.4014 1331.0678,-438.8248 1338.1969,-423 1352.071,-392.2031 1346.7373,-379.6803 1338.1969,-347 1322.3486,-286.3558 1317.2409,-264.2575 1269.1969,-224 1249.7469,-207.7023 1224.1641,-197.0439 1200.7031,-190.1371"/>
<polygon fill="#191970" stroke="#191970" points="1201.3734,-186.6912 1190.8023,-187.4012 1199.5089,-193.4384 1201.3734,-186.6912"/>
</g>
<!-- Node19 -->
<g id="node20" class="node">
<title>Node19</title>
<g id="a_node20"><a xlink:href="../../da/d23/ntv2macpublicinterface_8h.html" target="_top" xlink:title="Declares MacOS&#45;only enums used by the Mac driver and the SDK. ">
<polygon fill="#ffffff" stroke="#000000" points="1203.6969,-403.5 1203.6969,-422.5 1328.6969,-422.5 1328.6969,-403.5 1203.6969,-403.5"/>
<text text-anchor="middle" x="1266.1969" y="-410.5" font-family="Helvetica,sans-Serif" font-size="10.00" fill="#000000">ntv2macpublicinterface.h</text>
</a>
</g>
</g>
<!-- Node2&#45;&gt;Node19 -->
<g id="edge23" class="edge">
<title>Node2&#45;&gt;Node19</title>
<path fill="none" stroke="#191970" d="M1282.7132,-459.2455C1280.0461,-451.7776 1276.2836,-441.2427 1273.0232,-432.1137"/>
<polygon fill="#191970" stroke="#191970" points="1276.3003,-430.8829 1269.6407,-422.6427 1269.7081,-433.2373 1276.3003,-430.8829"/>
</g>
<!-- Node21 -->
<g id="node22" class="node">
<title>Node21</title>
<g id="a_node22"><a xlink:href="../../d4/dc0/ntv2driverinterface_8h.html" target="_top" xlink:title="Declares the CNTV2DriverInterface base class. ">
<polygon fill="#ffffff" stroke="#000000" points="863.6969,-403.5 863.6969,-422.5 968.6969,-422.5 968.6969,-403.5 863.6969,-403.5"/>
<text text-anchor="middle" x="916.1969" y="-410.5" font-family="Helvetica,sans-Serif" font-size="10.00" fill="#000000">ntv2driverinterface.h</text>
</a>
</g>
</g>
<!-- Node2&#45;&gt;Node21 -->
<g id="edge26" class="edge">
<title>Node2&#45;&gt;Node21</title>
<path fill="none" stroke="#191970" d="M1223.8499,-459.5637C1155.7763,-449.2607 1047.3774,-432.8543 979.0893,-422.5189"/>
<polygon fill="#191970" stroke="#191970" points="979.3119,-419.0127 968.9007,-420.9768 978.2643,-425.9339 979.3119,-419.0127"/>
</g>
<!-- Node4 -->
<g id="node5" class="node">
<title>Node4</title>
<g id="a_node5"><a xlink:href="../../db/de2/ajatypes_8h.html" target="_top" xlink:title="Declares the most fundamental data types used by NTV2. Since Windows NT was the first principal devel...">
<polygon fill="#ffffff" stroke="#000000" points="465.1969,-56.5 465.1969,-75.5 527.1969,-75.5 527.1969,-56.5 465.1969,-56.5"/>
<text text-anchor="middle" x="496.1969" y="-63.5" font-family="Helvetica,sans-Serif" font-size="10.00" fill="#000000">ajatypes.h</text>
</a>
</g>
</g>
<!-- Node3&#45;&gt;Node4 -->
<g id="edge4" class="edge">
<title>Node3&#45;&gt;Node4</title>
<path fill="none" stroke="#191970" d="M1122.2401,-168.3821C1095.9507,-151.6671 1042.2511,-118.4223 1021.1969,-112 816.5727,-49.5816 752.8295,-107.2851 541.1969,-76 539.95,-75.8157 538.6862,-75.6162 537.4122,-75.4041"/>
<polygon fill="#191970" stroke="#191970" points="538.0321,-71.9594 527.561,-73.5737 536.7533,-78.8416 538.0321,-71.9594"/>
</g>
<!-- Node7 -->
<g id="node8" class="node">
<title>Node7</title>
<g id="a_node8"><a xlink:href="../../d6/d0c/ntv2enums_8h.html" target="_top" xlink:title="Enumerations for controlling NTV2 devices. ">
<polygon fill="#ffffff" stroke="#000000" points="461.6969,-112.5 461.6969,-131.5 534.6969,-131.5 534.6969,-112.5 461.6969,-112.5"/>
<text text-anchor="middle" x="498.1969" y="-119.5" font-family="Helvetica,sans-Serif" font-size="10.00" fill="#000000">ntv2enums.h</text>
</a>
</g>
</g>
<!-- Node3&#45;&gt;Node7 -->
<g id="edge7" class="edge">
<title>Node3&#45;&gt;Node7</title>
<path fill="none" stroke="#191970" d="M1083.4132,-174.7735C961.2692,-167.2973 664.9341,-148.2827 544.8175,-131.8529"/>
<polygon fill="#191970" stroke="#191970" points="545.1661,-128.3673 534.7726,-130.4232 544.1797,-135.2975 545.1661,-128.3673"/>
</g>
<!-- Node9 -->
<g id="node10" class="node">
<title>Node9</title>
<g id="a_node10"><a xlink:href="../../d6/dd9/ajaexport_8h.html" target="_top" xlink:title="Defines the import/export macros for producing DLLs or LIBs. ">
<polygon fill="#ffffff" stroke="#000000" points="400.6969,-.5 400.6969,-19.5 465.6969,-19.5 465.6969,-.5 400.6969,-.5"/>
<text text-anchor="middle" x="433.1969" y="-7.5" font-family="Helvetica,sans-Serif" font-size="10.00" fill="#000000">ajaexport.h</text>
</a>
</g>
</g>
<!-- Node3&#45;&gt;Node9 -->
<g id="edge20" class="edge">
<title>Node3&#45;&gt;Node9</title>
<path fill="none" stroke="#191970" d="M1128.9362,-168.2089C1115.4803,-153.0512 1087.1989,-124.3653 1056.1969,-112 858.7222,-33.2362 784.9067,-129.6983 579.1969,-76 558.8031,-70.6764 555.3756,-64.7422 536.1969,-56 512.0443,-44.9906 484.5951,-32.7449 464.1101,-23.6579"/>
<polygon fill="#191970" stroke="#191970" points="465.5027,-20.4468 454.9421,-19.5956 462.6669,-26.8467 465.5027,-20.4468"/>
</g>
<!-- Node10 -->
<g id="node11" class="node">
<title>Node10</title>
<polygon fill="#ffffff" stroke="#bfbfbf" points="1897.6969,-.5 1897.6969,-19.5 1938.6969,-19.5 1938.6969,-.5 1897.6969,-.5"/>
<text text-anchor="middle" x="1918.1969" y="-7.5" font-family="Helvetica,sans-Serif" font-size="10.00" fill="#000000">string</text>
</g>
<!-- Node3&#45;&gt;Node10 -->
<g id="edge16" class="edge">
<title>Node3&#45;&gt;Node10</title>
<path fill="none" stroke="#191970" d="M1177.9577,-168.4404C1210.1003,-160.3371 1255.7604,-147.564 1294.1969,-132 1311.8869,-124.8368 1314.1316,-118.1557 1332.1969,-112 1536.9881,-42.2184 1799.0696,-18.3378 1887.502,-11.9657"/>
<polygon fill="#191970" stroke="#191970" points="1887.9123,-15.4457 1897.6443,-11.2577 1887.4248,-8.4627 1887.9123,-15.4457"/>
</g>
<!-- Node11 -->
<g id="node12" class="node">
<title>Node11</title>
<polygon fill="#ffffff" stroke="#bfbfbf" points="553.1969,-112.5 553.1969,-131.5 607.1969,-131.5 607.1969,-112.5 553.1969,-112.5"/>
<text text-anchor="middle" x="580.1969" y="-119.5" font-family="Helvetica,sans-Serif" font-size="10.00" fill="#000000">iostream</text>
</g>
<!-- Node3&#45;&gt;Node11 -->
<g id="edge12" class="edge">
<title>Node3&#45;&gt;Node11</title>
<path fill="none" stroke="#191970" d="M1083.5194,-173.5827C994.2883,-166.0838 809.8431,-149.9213 654.1969,-132 642.1441,-130.6122 629.0141,-128.9027 617.2052,-127.2921"/>
<polygon fill="#191970" stroke="#191970" points="617.6133,-123.8153 607.2282,-125.9128 616.6546,-130.7494 617.6133,-123.8153"/>
</g>
<!-- Node12 -->
<g id="node13" class="node">
<title>Node12</title>
<polygon fill="#ffffff" stroke="#bfbfbf" points="1533.1969,-112.5 1533.1969,-131.5 1563.1969,-131.5 1563.1969,-112.5 1533.1969,-112.5"/>
<text text-anchor="middle" x="1548.1969" y="-119.5" font-family="Helvetica,sans-Serif" font-size="10.00" fill="#000000">set</text>
</g>
<!-- Node3&#45;&gt;Node12 -->
<g id="edge13" class="edge">
<title>Node3&#45;&gt;Node12</title>
<path fill="none" stroke="#191970" d="M1190.7745,-171.4257C1259.3362,-162.9009 1381.7372,-147.3051 1486.1969,-132 1498.3779,-130.2153 1511.8752,-128.0595 1523.1579,-126.2072"/>
<polygon fill="#191970" stroke="#191970" points="1523.8883,-129.634 1533.1816,-124.5463 1522.7439,-122.7282 1523.8883,-129.634"/>
</g>
<!-- Node13 -->
<g id="node14" class="node">
<title>Node13</title>
<polygon fill="#ffffff" stroke="#bfbfbf" points="1441.6969,-112.5 1441.6969,-131.5 1476.6969,-131.5 1476.6969,-112.5 1441.6969,-112.5"/>
<text text-anchor="middle" x="1459.1969" y="-119.5" font-family="Helvetica,sans-Serif" font-size="10.00" fill="#000000">map</text>
</g>
<!-- Node3&#45;&gt;Node13 -->
<g id="edge14" class="edge">
<title>Node3&#45;&gt;Node13</title>
<path fill="none" stroke="#191970" d="M1190.7301,-168.6899C1259.9947,-156.6439 1378.0974,-136.1043 1431.5111,-126.8149"/>
<polygon fill="#191970" stroke="#191970" points="1432.3401,-130.2234 1441.5925,-125.0616 1431.1406,-123.3269 1432.3401,-130.2234"/>
</g>
<!-- Node14 -->
<g id="node15" class="node">
<title>Node14</title>
<polygon fill="#ffffff" stroke="#bfbfbf" points="1341.1969,-112.5 1341.1969,-131.5 1385.1969,-131.5 1385.1969,-112.5 1341.1969,-112.5"/>
<text text-anchor="middle" x="1363.1969" y="-119.5" font-family="Helvetica,sans-Serif" font-size="10.00" fill="#000000">vector</text>
</g>
<!-- Node3&#45;&gt;Node14 -->
<g id="edge15" class="edge">
<title>Node3&#45;&gt;Node14</title>
<path fill="none" stroke="#191970" d="M1178.4363,-168.4351C1216.9894,-159.394 1276.1181,-145.2735 1327.1969,-132 1328.4682,-131.6696 1329.7637,-131.329 1331.0715,-130.9817"/>
<polygon fill="#191970" stroke="#191970" points="1332.4076,-134.2459 1341.1436,-128.2514 1330.5762,-127.4897 1332.4076,-134.2459"/>
</g>
<!-- Node15 -->
<g id="node16" class="node">
<title>Node15</title>
<polygon fill="#ffffff" stroke="#bfbfbf" points="1175.1969,-112.5 1175.1969,-131.5 1225.1969,-131.5 1225.1969,-112.5 1175.1969,-112.5"/>
<text text-anchor="middle" x="1200.1969" y="-119.5" font-family="Helvetica,sans-Serif" font-size="10.00" fill="#000000">iomanip</text>
</g>
<!-- Node3&#45;&gt;Node15 -->
<g id="edge17" class="edge">
<title>Node3&#45;&gt;Node15</title>
<path fill="none" stroke="#191970" d="M1148.1707,-168.2455C1157.3851,-160.0549 1170.7501,-148.1749 1181.6266,-138.5069"/>
<polygon fill="#191970" stroke="#191970" points="1184.2001,-140.9023 1189.3489,-131.6427 1179.5495,-135.6704 1184.2001,-140.9023"/>
</g>
<!-- Node16 -->
<g id="node17" class="node">
<title>Node16</title>
<polygon fill="#ffffff" stroke="#bfbfbf" points="1243.6969,-112.5 1243.6969,-131.5 1284.6969,-131.5 1284.6969,-112.5 1243.6969,-112.5"/>
<text text-anchor="middle" x="1264.1969" y="-119.5" font-family="Helvetica,sans-Serif" font-size="10.00" fill="#000000">bitset</text>
</g>
<!-- Node3&#45;&gt;Node16 -->
<g id="edge18" class="edge">
<title>Node3&#45;&gt;Node16</title>
<path fill="none" stroke="#191970" d="M1159.029,-168.3733C1179.7554,-159.234 1211.0857,-145.4191 1234.1614,-135.244"/>
<polygon fill="#191970" stroke="#191970" points="1235.7529,-138.3675 1243.4907,-131.1303 1232.9286,-131.9625 1235.7529,-138.3675"/>
</g>
<!-- Node17 -->
<g id="node18" class="node">
<title>Node17</title>
<polygon fill="#ffffff" stroke="#bfbfbf" points="1107.6969,-112.5 1107.6969,-131.5 1156.6969,-131.5 1156.6969,-112.5 1107.6969,-112.5"/>
<text text-anchor="middle" x="1132.1969" y="-119.5" font-family="Helvetica,sans-Serif" font-size="10.00" fill="#000000">string.h</text>
</g>
<!-- Node3&#45;&gt;Node17 -->
<g id="edge19" class="edge">
<title>Node3&#45;&gt;Node17</title>
<path fill="none" stroke="#191970" d="M1136.326,-168.2455C1135.6735,-160.9382 1134.7589,-150.6944 1133.9563,-141.7046"/>
<polygon fill="#191970" stroke="#191970" points="1137.4334,-141.2918 1133.0579,-131.6427 1130.4612,-141.9143 1137.4334,-141.2918"/>
</g>
<!-- Node18 -->
<g id="node19" class="node">
<title>Node18</title>
<g id="a_node19"><a xlink:href="../../da/df0/ntv2virtualregisters_8h.html" target="_top" xlink:title="Declares enums for virtual registers used in all platform drivers and the SDK. ">
<polygon fill="#ffffff" stroke="#000000" points="905.6969,-112.5 905.6969,-131.5 1012.6969,-131.5 1012.6969,-112.5 905.6969,-112.5"/>
<text text-anchor="middle" x="959.1969" y="-119.5" font-family="Helvetica,sans-Serif" font-size="10.00" fill="#000000">ntv2virtualregisters.h</text>
</a>
</g>
</g>
<!-- Node3&#45;&gt;Node18 -->
<g id="edge21" class="edge">
<title>Node3&#45;&gt;Node18</title>
<path fill="none" stroke="#191970" d="M1106.5976,-168.3733C1076.8708,-159.021 1031.581,-144.7725 999.0513,-134.5385"/>
<polygon fill="#191970" stroke="#191970" points="999.9864,-131.1636 989.3969,-131.5011 997.8856,-137.8409 999.9864,-131.1636"/>
</g>
<!-- Node5 -->
<g id="node6" class="node">
<title>Node5</title>
<g id="a_node6"><a xlink:href="../../db/d40/ntv2deprecate_8h.html" target="_top" xlink:title="Deprecation control macros. ">
<polygon fill="#ffffff" stroke="#000000" points="583.1969,-.5 583.1969,-19.5 669.1969,-19.5 669.1969,-.5 583.1969,-.5"/>
<text text-anchor="middle" x="626.1969" y="-7.5" font-family="Helvetica,sans-Serif" font-size="10.00" fill="#000000">ntv2deprecate.h</text>
</a>
</g>
</g>
<!-- Node4&#45;&gt;Node5 -->
<g id="edge5" class="edge">
<title>Node4&#45;&gt;Node5</title>
<path fill="none" stroke="#191970" d="M518.5447,-56.3733C539.6003,-47.3032 571.3465,-33.6279 594.9144,-23.4755"/>
<polygon fill="#191970" stroke="#191970" points="596.3413,-26.6719 604.1407,-19.5011 593.5719,-20.243 596.3413,-26.6719"/>
</g>
<!-- Node6 -->
<g id="node7" class="node">
<title>Node6</title>
<polygon fill="#ffffff" stroke="#bfbfbf" points="1346.6969,-.5 1346.6969,-19.5 1395.6969,-19.5 1395.6969,-.5 1346.6969,-.5"/>
<text text-anchor="middle" x="1371.1969" y="-7.5" font-family="Helvetica,sans-Serif" font-size="10.00" fill="#000000">stdint.h</text>
</g>
<!-- Node4&#45;&gt;Node6 -->
<g id="edge6" class="edge">
<title>Node4&#45;&gt;Node6</title>
<path fill="none" stroke="#191970" d="M527.1978,-63.1116C550.5522,-60.9881 583.369,-58.1158 612.1969,-56 891.2737,-35.5173 1228.5636,-17.4168 1336.3302,-11.7964"/>
<polygon fill="#191970" stroke="#191970" points="1336.8048,-15.2766 1346.6096,-11.2619 1336.4413,-8.286 1336.8048,-15.2766"/>
</g>
<!-- Node7&#45;&gt;Node4 -->
<g id="edge8" class="edge">
<title>Node7&#45;&gt;Node4</title>
<path fill="none" stroke="#191970" d="M497.8485,-112.2455C497.5876,-104.9382 497.2217,-94.6944 496.9007,-85.7046"/>
<polygon fill="#191970" stroke="#191970" points="500.3961,-85.5113 496.5413,-75.6427 493.4005,-85.7613 500.3961,-85.5113"/>
</g>
<!-- Node8 -->
<g id="node9" class="node">
<title>Node8</title>
<g id="a_node9"><a xlink:href="../../d6/db1/ntv2version_8h.html" target="_top" xlink:title="Defines for the NTV2 SDK version number, used by ajantv2/includes/ntv2enums.h. See the ajantv2/includ...">
<polygon fill="#ffffff" stroke="#000000" points="621.6969,-56.5 621.6969,-75.5 696.6969,-75.5 696.6969,-56.5 621.6969,-56.5"/>
<text text-anchor="middle" x="659.1969" y="-63.5" font-family="Helvetica,sans-Serif" font-size="10.00" fill="#000000">ntv2version.h</text>
</a>
</g>
</g>
<!-- Node7&#45;&gt;Node8 -->
<g id="edge9" class="edge">
<title>Node7&#45;&gt;Node8</title>
<path fill="none" stroke="#191970" d="M525.8738,-112.3733C552.5298,-103.1016 593.0207,-89.0178 622.3853,-78.804"/>
<polygon fill="#191970" stroke="#191970" points="623.5861,-82.0921 631.8812,-75.5011 621.2864,-75.4807 623.5861,-82.0921"/>
</g>
<!-- Node8&#45;&gt;Node9 -->
<g id="edge10" class="edge">
<title>Node8&#45;&gt;Node9</title>
<path fill="none" stroke="#191970" d="M621.6239,-56.6899C581.3876,-46.7198 517.67,-30.9314 475.6481,-20.5189"/>
<polygon fill="#191970" stroke="#191970" points="476.2697,-17.0671 465.7214,-18.0592 474.5861,-23.8616 476.2697,-17.0671"/>
</g>
<!-- Node8&#45;&gt;Node10 -->
<g id="edge11" class="edge">
<title>Node8&#45;&gt;Node10</title>
<path fill="none" stroke="#191970" d="M696.7997,-61.2165C712.9104,-59.3242 731.9523,-57.2957 749.1969,-56 1200.7786,-22.0707 1752.494,-12.3494 1887.3761,-10.4054"/>
<polygon fill="#191970" stroke="#191970" points="1887.4573,-13.9047 1897.407,-10.2642 1887.3587,-6.9054 1887.4573,-13.9047"/>
</g>
<!-- Node18&#45;&gt;Node4 -->
<g id="edge22" class="edge">
<title>Node18&#45;&gt;Node4</title>
<path fill="none" stroke="#191970" d="M905.4941,-117.9756C825.6835,-111.5692 671.2044,-97.5329 541.1969,-76 539.9534,-75.794 538.6925,-75.5756 537.4212,-75.3469"/>
<polygon fill="#191970" stroke="#191970" points="538.0674,-71.9071 527.5831,-73.4329 536.7306,-78.7783 538.0674,-71.9071"/>
</g>
<!-- Node19&#45;&gt;Node18 -->
<g id="edge25" class="edge">
<title>Node19&#45;&gt;Node18</title>
<path fill="none" stroke="#191970" d="M1256.9082,-403.3555C1249.1935,-394.6425 1238.7696,-381.0624 1234.1969,-367 1214.539,-306.5463 1271.3262,-273.3024 1231.1969,-224 1186.0054,-168.4782 1140.8576,-214.1017 1074.1969,-188 1039.9092,-174.5743 1003.5707,-152.158 981.1314,-137.2284"/>
<polygon fill="#191970" stroke="#191970" points="982.9357,-134.2235 972.6897,-131.527 979.0178,-140.0244 982.9357,-134.2235"/>
</g>
<!-- Node20 -->
<g id="node21" class="node">
<title>Node20</title>
<polygon fill="#ffffff" stroke="#bfbfbf" points="1243.1969,-347.5 1243.1969,-366.5 1329.1969,-366.5 1329.1969,-347.5 1243.1969,-347.5"/>
<text text-anchor="middle" x="1286.1969" y="-354.5" font-family="Helvetica,sans-Serif" font-size="10.00" fill="#000000">IOKit/IOKitLib.h</text>
</g>
<!-- Node19&#45;&gt;Node20 -->
<g id="edge24" class="edge">
<title>Node19&#45;&gt;Node20</title>
<path fill="none" stroke="#191970" d="M1269.6807,-403.2455C1272.3478,-395.7776 1276.1103,-385.2427 1279.3706,-376.1137"/>
<polygon fill="#191970" stroke="#191970" points="1282.6858,-377.2373 1282.7531,-366.6427 1276.0936,-374.8829 1282.6858,-377.2373"/>
</g>
<!-- Node21&#45;&gt;Node3 -->
<g id="edge66" class="edge">
<title>Node21&#45;&gt;Node3</title>
<path fill="none" stroke="#191970" d="M920.9874,-403.3488C936.5362,-372.917 988.5835,-277.8102 1057.1969,-224 1072.8568,-211.7187 1092.1553,-200.5253 1107.8741,-192.2556"/>
<polygon fill="#191970" stroke="#191970" points="1109.837,-195.1822 1117.1341,-187.5009 1106.6396,-188.9551 1109.837,-195.1822"/>
</g>
<!-- Node21&#45;&gt;Node4 -->
<g id="edge27" class="edge">
<title>Node21&#45;&gt;Node4</title>
<path fill="none" stroke="#191970" d="M863.3824,-412.1286C668.5272,-408.2252 1.1969,-388.4717 1.1969,-301 1.1969,-301 1.1969,-301 1.1969,-239.5 1.1969,-206.6194 -3.5908,-190.6998 20.1969,-168 82.9302,-108.1356 350.9319,-78.7056 454.8196,-69.3833"/>
<polygon fill="#191970" stroke="#191970" points="455.2729,-72.857 464.9275,-68.4935 454.6591,-65.8839 455.2729,-72.857"/>
</g>
<!-- Node21&#45;&gt;Node7 -->
<g id="edge28" class="edge">
<title>Node21&#45;&gt;Node7</title>
<path fill="none" stroke="#191970" d="M863.6793,-410.6337C747.1546,-403.9517 477.1969,-379.9515 477.1969,-301 477.1969,-301 477.1969,-301 477.1969,-239.5 477.1969,-204.5955 486.288,-164.7555 492.5071,-141.5853"/>
<polygon fill="#191970" stroke="#191970" points="495.9643,-142.217 495.277,-131.6445 489.2212,-140.3381 495.9643,-142.217"/>
</g>
<!-- Node21&#45;&gt;Node10 -->
<g id="edge76" class="edge">
<title>Node21&#45;&gt;Node10</title>
<path fill="none" stroke="#191970" d="M962.7701,-403.4524C1036.0452,-387.3087 1172.4861,-352.3099 1197.1969,-311 1217.0477,-277.8148 1222.4889,-254.0866 1198.1969,-224 1150.4994,-164.9247 1103.6706,-210.6386 1031.1969,-188 965.4743,-167.4702 849.9903,-163.0478 896.1969,-112 964.4802,-36.5626 1723.4782,-14.5595 1887.1927,-10.6763"/>
<polygon fill="#191970" stroke="#191970" points="1887.6032,-14.1678 1897.5193,-10.4369 1887.4408,-7.1697 1887.6032,-14.1678"/>
</g>
<!-- Node22 -->
<g id="node23" class="node">
<title>Node22</title>
<g id="a_node23"><a xlink:href="../../d8/de5/ntv2nubtypes_8h.html" target="_top" xlink:title="Declares data types and structures used in NTV2 &quot;nub&quot; packets. ">
<polygon fill="#ffffff" stroke="#000000" points="829.6969,-168.5 829.6969,-187.5 912.6969,-187.5 912.6969,-168.5 829.6969,-168.5"/>
<text text-anchor="middle" x="871.1969" y="-175.5" font-family="Helvetica,sans-Serif" font-size="10.00" fill="#000000">ntv2nubtypes.h</text>
</a>
</g>
</g>
<!-- Node21&#45;&gt;Node22 -->
<g id="edge29" class="edge">
<title>Node21&#45;&gt;Node22</title>
<path fill="none" stroke="#191970" d="M894.4311,-403.3857C880.1305,-395.773 862.5717,-383.6416 854.1969,-367 839.4465,-337.6892 857.9444,-239.5586 866.8791,-197.4555"/>
<polygon fill="#191970" stroke="#191970" points="870.3176,-198.1141 869.0147,-187.5996 863.4763,-196.6316 870.3176,-198.1141"/>
</g>
<!-- Node24 -->
<g id="node25" class="node">
<title>Node24</title>
<g id="a_node25"><a xlink:href="../../d6/d8f/ntv2nubaccess_8h.html" target="_top" xlink:title="Declares NTV2 &quot;nub&quot; client functions. ">
<polygon fill="#ffffff" stroke="#000000" points="971.6969,-347.5 971.6969,-366.5 1062.6969,-366.5 1062.6969,-347.5 971.6969,-347.5"/>
<text text-anchor="middle" x="1017.1969" y="-354.5" font-family="Helvetica,sans-Serif" font-size="10.00" fill="#000000">ntv2nubaccess.h</text>
</a>
</g>
</g>
<!-- Node21&#45;&gt;Node24 -->
<g id="edge33" class="edge">
<title>Node21&#45;&gt;Node24</title>
<path fill="none" stroke="#191970" d="M933.7898,-403.2455C949.5759,-394.4928 972.9608,-381.527 990.9556,-371.5496"/>
<polygon fill="#191970" stroke="#191970" points="992.7572,-374.5528 999.8057,-366.6427 989.3628,-368.4308 992.7572,-374.5528"/>
</g>
<!-- Node21&#45;&gt;Node25 -->
<g id="edge67" class="edge">
<title>Node21&#45;&gt;Node25</title>
<path fill="none" stroke="#191970" d="M890.18,-403.43C870.2415,-395.403 842.6076,-382.7354 821.1969,-367 802.3137,-353.1222 784.4002,-333.0288 772.7294,-318.6635"/>
<polygon fill="#191970" stroke="#191970" points="775.2687,-316.2324 766.3165,-310.566 769.7812,-320.5783 775.2687,-316.2324"/>
</g>
<!-- Node29 -->
<g id="node30" class="node">
<title>Node29</title>
<g id="a_node30"><a xlink:href="../../dd/d42/lock_8h.html" target="_top" xlink:title="Declares the AJALock class. ">
<polygon fill="#ffffff" stroke="#000000" points="1073.6969,-291.5 1073.6969,-310.5 1188.6969,-310.5 1188.6969,-291.5 1073.6969,-291.5"/>
<text text-anchor="middle" x="1131.1969" y="-298.5" font-family="Helvetica,sans-Serif" font-size="10.00" fill="#000000">ajabase/system/lock.h</text>
</a>
</g>
</g>
<!-- Node21&#45;&gt;Node29 -->
<g id="edge75" class="edge">
<title>Node21&#45;&gt;Node29</title>
<path fill="none" stroke="#191970" d="M968.6995,-404.7956C1000.1988,-398.1425 1040.0566,-386.5554 1071.1969,-367 1090.9623,-354.5878 1108.2514,-333.9138 1119.1289,-319.0086"/>
<polygon fill="#191970" stroke="#191970" points="1122.1525,-320.7933 1125.038,-310.5989 1116.425,-316.7689 1122.1525,-320.7933"/>
</g>
<!-- Node35 -->
<g id="node36" class="node">
<title>Node35</title>
<g id="a_node36"><a xlink:href="../../d8/d0f/ntv2devicefeatures_8h.html" target="_top" xlink:title="Declares device capability functions. ">
<polygon fill="#ffffff" stroke="#000000" points="73.6969,-230 73.6969,-249 180.6969,-249 180.6969,-230 73.6969,-230"/>
<text text-anchor="middle" x="127.1969" y="-237" font-family="Helvetica,sans-Serif" font-size="10.00" fill="#000000">ntv2devicefeatures.h</text>
</a>
</g>
</g>
<!-- Node21&#45;&gt;Node35 -->
<g id="edge68" class="edge">
<title>Node21&#45;&gt;Node35</title>
<path fill="none" stroke="#191970" d="M863.6758,-409.399C761.2085,-402.0883 538.1109,-384.6939 463.1969,-367 345.5258,-339.2074 213.4674,-280.4306 156.233,-253.505"/>
<polygon fill="#191970" stroke="#191970" points="157.6041,-250.2817 147.0683,-249.164 154.6075,-256.6079 157.6041,-250.2817"/>
</g>
<!-- Node37 -->
<g id="node38" class="node">
<title>Node37</title>
<polygon fill="#ffffff" stroke="#bfbfbf" points="863.6969,-347.5 863.6969,-366.5 914.6969,-366.5 914.6969,-347.5 863.6969,-347.5"/>
<text text-anchor="middle" x="889.1969" y="-354.5" font-family="Helvetica,sans-Serif" font-size="10.00" fill="#000000">unistd.h</text>
</g>
<!-- Node21&#45;&gt;Node37 -->
<g id="edge77" class="edge">
<title>Node21&#45;&gt;Node37</title>
<path fill="none" stroke="#191970" d="M911.4939,-403.2455C907.8546,-395.6973 902.7045,-385.0158 898.2707,-375.8197"/>
<polygon fill="#191970" stroke="#191970" points="901.3418,-374.1303 893.8461,-366.6427 895.0364,-377.1704 901.3418,-374.1303"/>
</g>
<!-- Node22&#45;&gt;Node14 -->
<g id="edge32" class="edge">
<title>Node22&#45;&gt;Node14</title>
<path fill="none" stroke="#191970" d="M912.9322,-173.547C1012.2134,-162.9419 1256.9596,-136.7216 1294.1969,-132 1306.2407,-130.4729 1319.4386,-128.6074 1331.0375,-126.9031"/>
<polygon fill="#191970" stroke="#191970" points="1331.7847,-130.3306 1341.1611,-125.3976 1330.755,-123.4067 1331.7847,-130.3306"/>
</g>
<!-- Node23 -->
<g id="node24" class="node">
<title>Node23</title>
<g id="a_node24"><a xlink:href="../../d4/d18/ntv2endian_8h.html" target="_top" xlink:title="Defines a number of handy byte&#45;swapping macros. ">
<polygon fill="#ffffff" stroke="#000000" points="663.1969,-112.5 663.1969,-131.5 735.1969,-131.5 735.1969,-112.5 663.1969,-112.5"/>
<text text-anchor="middle" x="699.1969" y="-119.5" font-family="Helvetica,sans-Serif" font-size="10.00" fill="#000000">ntv2endian.h</text>
</a>
</g>
</g>
<!-- Node22&#45;&gt;Node23 -->
<g id="edge30" class="edge">
<title>Node22&#45;&gt;Node23</title>
<path fill="none" stroke="#191970" d="M841.6291,-168.3733C813.0281,-159.0613 769.5181,-144.8953 738.1151,-134.671"/>
<polygon fill="#191970" stroke="#191970" points="738.9712,-131.269 728.3789,-131.5011 736.8041,-137.9251 738.9712,-131.269"/>
</g>
<!-- Node23&#45;&gt;Node4 -->
<g id="edge31" class="edge">
<title>Node23&#45;&gt;Node4</title>
<path fill="none" stroke="#191970" d="M664.3,-112.3733C629.0696,-102.6545 574.6722,-87.6484 537.3567,-77.3544"/>
<polygon fill="#191970" stroke="#191970" points="537.8856,-73.8697 527.3149,-74.5843 536.0241,-80.6176 537.8856,-73.8697"/>
</g>
<!-- Node24&#45;&gt;Node10 -->
<g id="edge63" class="edge">
<title>Node24&#45;&gt;Node10</title>
<path fill="none" stroke="#191970" d="M1014.3398,-347.2633C1005.1694,-317.3724 973.9579,-225.4775 921.1969,-168 900.6802,-145.6492 877.9458,-158.5135 863.1969,-132 846.7767,-102.482 839.8384,-80.3992 863.1969,-56 881.3882,-36.9983 1715.4038,-15.0833 1887.3794,-10.7617"/>
<polygon fill="#191970" stroke="#191970" points="1887.6068,-14.2572 1897.5161,-10.5082 1887.4316,-7.2594 1887.6068,-14.2572"/>
</g>
<!-- Node24&#45;&gt;Node13 -->
<g id="edge65" class="edge">
<title>Node24&#45;&gt;Node13</title>
<path fill="none" stroke="#191970" d="M1023.4772,-347.2833C1032.1248,-334.1227 1048.4253,-310.0838 1064.1969,-291 1090.4305,-259.2573 1092.5966,-244.6983 1128.1969,-224 1185.2279,-190.8417 1209.0223,-206.9991 1272.1969,-188 1329.9074,-170.6441 1396.1256,-146.1658 1432.2356,-132.4196"/>
<polygon fill="#191970" stroke="#191970" points="1433.5001,-135.6833 1441.59,-128.8419 1430.9995,-129.1452 1433.5001,-135.6833"/>
</g>
<!-- Node24&#45;&gt;Node14 -->
<g id="edge64" class="edge">
<title>Node24&#45;&gt;Node14</title>
<path fill="none" stroke="#191970" d="M1017.5929,-347.4874C1018.4966,-334.1438 1021.4626,-309.4377 1031.1969,-291 1050.4232,-254.5836 1059.6663,-244.8177 1095.1969,-224 1150.6294,-191.5217 1175.1571,-210.8655 1235.1969,-188 1272.6974,-173.7184 1313.4874,-151.4028 1338.7028,-136.7402"/>
<polygon fill="#191970" stroke="#191970" points="1340.7196,-139.6146 1347.5649,-131.528 1337.1708,-133.5808 1340.7196,-139.6146"/>
</g>
<!-- Node24&#45;&gt;Node25 -->
<g id="edge34" class="edge">
<title>Node24&#45;&gt;Node25</title>
<path fill="none" stroke="#191970" d="M973.1383,-347.4369C924.7342,-336.9306 847.6078,-320.1899 800.3791,-309.9388"/>
<polygon fill="#191970" stroke="#191970" points="801.0038,-306.4929 790.4889,-307.7921 799.5189,-313.3336 801.0038,-306.4929"/>
</g>
<!-- Node24&#45;&gt;Node29 -->
<g id="edge53" class="edge">
<title>Node24&#45;&gt;Node29</title>
<path fill="none" stroke="#191970" d="M1036.7942,-347.3733C1054.9301,-338.4644 1082.1104,-325.1127 1102.6556,-315.0203"/>
<polygon fill="#191970" stroke="#191970" points="1104.423,-318.0517 1111.8553,-310.5011 1101.3366,-311.7688 1104.423,-318.0517"/>
</g>
<!-- Node25&#45;&gt;Node3 -->
<g id="edge40" class="edge">
<title>Node25&#45;&gt;Node3</title>
<path fill="none" stroke="#191970" d="M783.4669,-291.483C822.6406,-276.2813 902.3799,-245.9953 971.1969,-224 1010.6943,-211.3758 1056.1036,-198.9323 1089.4339,-190.1772"/>
<polygon fill="#191970" stroke="#191970" points="1090.5789,-193.4956 1099.37,-187.5823 1088.8101,-186.7227 1090.5789,-193.4956"/>
</g>
<!-- Node25&#45;&gt;Node4 -->
<g id="edge36" class="edge">
<title>Node25&#45;&gt;Node4</title>
<path fill="none" stroke="#191970" d="M728.1407,-297.9509C672.6689,-292.0055 559.3502,-277.4479 527.1969,-255 474.6978,-218.3476 469.5083,-193.6431 452.1969,-132 449.7936,-123.4422 448.8867,-120.2495 452.1969,-112 456.8602,-100.3782 466.0158,-90.0324 474.7731,-82.1099"/>
<polygon fill="#191970" stroke="#191970" points="477.1696,-84.6675 482.5633,-75.5484 472.6601,-79.3136 477.1696,-84.6675"/>
</g>
<!-- Node25&#45;&gt;Node7 -->
<g id="edge37" class="edge">
<title>Node25&#45;&gt;Node7</title>
<path fill="none" stroke="#191970" d="M728.1759,-297.4194C678.0333,-291.0773 582.16,-276.4809 556.1969,-255 520.9164,-225.8102 506.4956,-171.0158 501.0992,-141.6962"/>
<polygon fill="#191970" stroke="#191970" points="504.5481,-141.0995 499.4482,-131.8129 497.6438,-142.253 504.5481,-141.0995"/>
</g>
<!-- Node25&#45;&gt;Node9 -->
<g id="edge35" class="edge">
<title>Node25&#45;&gt;Node9</title>
<path fill="none" stroke="#191970" d="M728.0857,-299.9752C639.5195,-296.7179 387.5127,-284.9937 311.1969,-255 258.3329,-234.2233 209.1969,-234.8003 209.1969,-178 209.1969,-178 209.1969,-178 209.1969,-122 209.1969,-41.8927 325.2217,-19.0794 390.2653,-12.5842"/>
<polygon fill="#191970" stroke="#191970" points="390.9827,-16.0336 400.6254,-11.6441 390.35,-9.0622 390.9827,-16.0336"/>
</g>
<!-- Node25&#45;&gt;Node10 -->
<g id="edge50" class="edge">
<title>Node25&#45;&gt;Node10</title>
<path fill="none" stroke="#191970" d="M776.9543,-291.4913C789.7648,-283.5757 806.1629,-271.024 814.1969,-255 834.0474,-215.4078 793.674,-87.1108 825.1969,-56 844.6233,-36.8276 1710.9187,-14.986 1887.1182,-10.7372"/>
<polygon fill="#191970" stroke="#191970" points="1887.3508,-14.2327 1897.2639,-10.4936 1887.1827,-7.2347 1887.3508,-14.2327"/>
</g>
<!-- Node25&#45;&gt;Node11 -->
<g id="edge51" class="edge">
<title>Node25&#45;&gt;Node11</title>
<path fill="none" stroke="#191970" d="M728.0361,-297.9201C679.9552,-292.4523 591.2234,-279.274 572.1969,-255 546.3836,-222.0673 561.0442,-169.2699 571.8689,-141.1237"/>
<polygon fill="#191970" stroke="#191970" points="575.2026,-142.2175 575.7374,-131.6362 568.7208,-139.5745 575.2026,-142.2175"/>
</g>
<!-- Node25&#45;&gt;Node14 -->
<g id="edge52" class="edge">
<title>Node25&#45;&gt;Node14</title>
<path fill="none" stroke="#191970" d="M790.3227,-293.3475C826.77,-284.3469 888.9382,-268.871 942.1969,-255 993.4236,-241.6582 1005.9838,-237.3936 1057.1969,-224 1120.1861,-207.5266 1137.7614,-209.5565 1199.1969,-188 1219.4663,-180.8879 1223.3812,-176.2927 1243.1969,-168 1272.8639,-155.5847 1307.1659,-142.5672 1331.4782,-133.5615"/>
<polygon fill="#191970" stroke="#191970" points="1332.7487,-136.8234 1340.9202,-130.0797 1330.3268,-130.2557 1332.7487,-136.8234"/>
</g>
<!-- Node26 -->
<g id="node27" class="node">
<title>Node26</title>
<g id="a_node27"><a xlink:href="../../d9/d61/ntv2videodefines_8h.html" target="_top" xlink:title="Declares common video macros and structs used in the SDK. ">
<polygon fill="#ffffff" stroke="#000000" points="237.1969,-168.5 237.1969,-187.5 335.1969,-187.5 335.1969,-168.5 237.1969,-168.5"/>
<text text-anchor="middle" x="286.1969" y="-175.5" font-family="Helvetica,sans-Serif" font-size="10.00" fill="#000000">ntv2videodefines.h</text>
</a>
</g>
</g>
<!-- Node25&#45;&gt;Node26 -->
<g id="edge38" class="edge">
<title>Node25&#45;&gt;Node26</title>
<path fill="none" stroke="#191970" d="M727.9578,-300.504C643.8452,-298.7009 414.5485,-290.5659 349.1969,-255 324.8757,-241.7638 306.3098,-214.9094 295.8286,-196.6835"/>
<polygon fill="#191970" stroke="#191970" points="298.7222,-194.6802 290.8523,-187.5869 292.5811,-198.0397 298.7222,-194.6802"/>
</g>
<!-- Node27 -->
<g id="node28" class="node">
<title>Node27</title>
<g id="a_node28"><a xlink:href="../../dc/df4/ntv2formatdescriptor_8h.html" target="_top" xlink:title="Declares the NTV2FormatDescriptor class. ">
<polygon fill="#ffffff" stroke="#000000" points="581.6969,-230 581.6969,-249 694.6969,-249 694.6969,-230 581.6969,-230"/>
<text text-anchor="middle" x="638.1969" y="-237" font-family="Helvetica,sans-Serif" font-size="10.00" fill="#000000">ntv2formatdescriptor.h</text>
</a>
</g>
</g>
<!-- Node25&#45;&gt;Node27 -->
<g id="edge41" class="edge">
<title>Node25&#45;&gt;Node27</title>
<path fill="none" stroke="#191970" d="M740.2907,-291.3906C720.4003,-281.2811 688.8846,-265.2628 666.1277,-253.6962"/>
<polygon fill="#191970" stroke="#191970" points="667.4709,-250.4528 656.9704,-249.0419 664.2992,-256.693 667.4709,-250.4528"/>
</g>
<!-- Node28 -->
<g id="node29" class="node">
<title>Node28</title>
<g id="a_node29"><a xlink:href="../../de/d26/ntv2m31enums_8h.html" target="_top" xlink:title="ntv2m31enums.h">
<polygon fill="#ffffff" stroke="#000000" points="713.1969,-230 713.1969,-249 805.1969,-249 805.1969,-230 713.1969,-230"/>
<text text-anchor="middle" x="759.1969" y="-237" font-family="Helvetica,sans-Serif" font-size="10.00" fill="#000000">ntv2m31enums.h</text>
</a>
</g>
</g>
<!-- Node25&#45;&gt;Node28 -->
<g id="edge49" class="edge">
<title>Node25&#45;&gt;Node28</title>
<path fill="none" stroke="#191970" d="M759.1969,-291.3906C759.1969,-282.8657 759.1969,-270.1392 759.1969,-259.4235"/>
<polygon fill="#191970" stroke="#191970" points="762.697,-259.2448 759.1969,-249.2449 755.697,-259.2449 762.697,-259.2448"/>
</g>
<!-- Node26&#45;&gt;Node4 -->
<g id="edge39" class="edge">
<title>Node26&#45;&gt;Node4</title>
<path fill="none" stroke="#191970" d="M292.8075,-168.4579C303.1977,-154.1548 324.7091,-127.2152 349.1969,-112 381.848,-91.7127 424.1807,-79.7048 455.027,-73.0749"/>
<polygon fill="#191970" stroke="#191970" points="455.9228,-76.4641 465.017,-71.0285 454.518,-69.6065 455.9228,-76.4641"/>
</g>
<!-- Node27&#45;&gt;Node3 -->
<g id="edge45" class="edge">
<title>Node27&#45;&gt;Node3</title>
<path fill="none" stroke="#191970" d="M675.0328,-229.9921C684.4906,-227.7874 694.6817,-225.6162 704.1969,-224 834.5413,-201.8598 988.8801,-188.5015 1073.5951,-182.2593"/>
<polygon fill="#191970" stroke="#191970" points="1073.8551,-185.7498 1083.5747,-181.5333 1073.3471,-178.7682 1073.8551,-185.7498"/>
</g>
<!-- Node27&#45;&gt;Node4 -->
<g id="edge43" class="edge">
<title>Node27&#45;&gt;Node4</title>
<path fill="none" stroke="#191970" d="M639.4808,-229.8984C642.0168,-206.76 645.145,-147.2317 616.1969,-112 605.7936,-99.3385 567.8188,-86.0618 537.3392,-77.0448"/>
<polygon fill="#191970" stroke="#191970" points="537.9192,-73.5693 527.3407,-74.1572 535.9769,-80.2945 537.9192,-73.5693"/>
</g>
<!-- Node27&#45;&gt;Node7 -->
<g id="edge44" class="edge">
<title>Node27&#45;&gt;Node7</title>
<path fill="none" stroke="#191970" d="M626.7401,-229.8845C602.8462,-209.8306 547.4585,-163.3445 517.7908,-138.4449"/>
<polygon fill="#191970" stroke="#191970" points="519.7218,-135.4962 509.812,-131.7484 515.2217,-140.858 519.7218,-135.4962"/>
</g>
<!-- Node27&#45;&gt;Node9 -->
<g id="edge42" class="edge">
<title>Node27&#45;&gt;Node9</title>
<path fill="none" stroke="#191970" d="M604.4606,-229.9565C561.6203,-215.9607 488.8736,-185.5389 452.1969,-132 430.9855,-101.0366 429.9012,-55.3585 431.3345,-29.5779"/>
<polygon fill="#191970" stroke="#191970" points="434.8288,-29.7838 432.0792,-19.552 427.848,-29.2652 434.8288,-29.7838"/>
</g>
<!-- Node27&#45;&gt;Node10 -->
<g id="edge46" class="edge">
<title>Node27&#45;&gt;Node10</title>
<path fill="none" stroke="#191970" d="M649.3942,-229.9558C669.8747,-212.1302 714.0349,-171.9551 744.1969,-132 767.5796,-101.0254 754.0761,-76.2283 787.1969,-56 811.3621,-41.2413 1709.2303,-15.759 1887.5801,-10.8365"/>
<polygon fill="#191970" stroke="#191970" points="1887.6961,-14.3347 1897.5959,-10.5608 1887.5034,-7.3374 1887.6961,-14.3347"/>
</g>
<!-- Node27&#45;&gt;Node11 -->
<g id="edge47" class="edge">
<title>Node27&#45;&gt;Node11</title>
<path fill="none" stroke="#191970" d="M633.913,-229.6893C627.8024,-215.8214 616.1119,-189.7502 605.1969,-168 600.6258,-158.8912 595.263,-148.9372 590.679,-140.6256"/>
<polygon fill="#191970" stroke="#191970" points="593.6722,-138.8066 585.7495,-131.7722 587.5563,-142.2119 593.6722,-138.8066"/>
</g>
<!-- Node27&#45;&gt;Node14 -->
<g id="edge48" class="edge">
<title>Node27&#45;&gt;Node14</title>
<path fill="none" stroke="#191970" d="M676.4789,-229.9823C685.5379,-227.8766 695.1852,-225.7529 704.1969,-224 766.6554,-211.851 1207.832,-145.3463 1331.2097,-126.8025"/>
<polygon fill="#191970" stroke="#191970" points="1331.8014,-130.2529 1341.1703,-125.3058 1330.7612,-123.3306 1331.8014,-130.2529"/>
</g>
<!-- Node30 -->
<g id="node31" class="node">
<title>Node30</title>
<g id="a_node31"><a xlink:href="../../d4/d79/public_8h.html" target="_top" xlink:title="Master header for the ajabase library. ">
<polygon fill="#ffffff" stroke="#000000" points="2383.1969,-168.5 2383.1969,-187.5 2511.1969,-187.5 2511.1969,-168.5 2383.1969,-168.5"/>
<text text-anchor="middle" x="2447.1969" y="-175.5" font-family="Helvetica,sans-Serif" font-size="10.00" fill="#000000">ajabase/common/public.h</text>
</a>
</g>
</g>
<!-- Node29&#45;&gt;Node30 -->
<g id="edge54" class="edge">
<title>Node29&#45;&gt;Node30</title>
<path fill="none" stroke="#191970" d="M1188.7299,-300.4929C1399.1736,-298.374 2119.9042,-288.7043 2217.1969,-255 2239.4587,-247.288 2238.8107,-233.8838 2260.1969,-224 2295.5532,-207.6598 2337.4567,-196.6653 2372.6263,-189.5351"/>
<polygon fill="#191970" stroke="#191970" points="2373.6915,-192.893 2382.8317,-187.5351 2372.3453,-186.0237 2373.6915,-192.893"/>
</g>
<!-- Node34 -->
<g id="node35" class="node">
<title>Node34</title>
<polygon fill="#ffffff" stroke="#bfbfbf" points="1137.1969,-230 1137.1969,-249 1189.1969,-249 1189.1969,-230 1137.1969,-230"/>
<text text-anchor="middle" x="1163.1969" y="-237" font-family="Helvetica,sans-Serif" font-size="10.00" fill="#000000">assert.h</text>
</g>
<!-- Node29&#45;&gt;Node34 -->
<g id="edge62" class="edge">
<title>Node29&#45;&gt;Node34</title>
<path fill="none" stroke="#191970" d="M1136.1969,-291.3906C1140.7727,-282.5965 1147.675,-269.3312 1153.3552,-258.4145"/>
<polygon fill="#191970" stroke="#191970" points="1156.6154,-259.7314 1158.1264,-249.2449 1150.4057,-256.5003 1156.6154,-259.7314"/>
</g>
<!-- Node30&#45;&gt;Node10 -->
<g id="edge56" class="edge">
<title>Node30&#45;&gt;Node10</title>
<path fill="none" stroke="#191970" d="M2455.9991,-168.4629C2467.6683,-154.6443 2485.2375,-128.8672 2471.1969,-112 2403.6416,-30.8447 2055.3964,-14.0113 1949.0656,-10.7427"/>
<polygon fill="#191970" stroke="#191970" points="1949.0843,-7.2419 1938.9874,-10.4519 1948.8823,-14.239 1949.0843,-7.2419"/>
</g>
<!-- Node30&#45;&gt;Node13 -->
<g id="edge59" class="edge">
<title>Node30&#45;&gt;Node13</title>
<path fill="none" stroke="#191970" d="M2382.9642,-171.7125C2367.6494,-170.352 2351.3516,-169.0181 2336.1969,-168 1975.7659,-143.7871 1883.6901,-167.5169 1524.1969,-132 1511.8441,-130.7796 1498.2603,-128.7922 1486.7188,-126.9094"/>
<polygon fill="#191970" stroke="#191970" points="1487.2305,-123.4463 1476.7877,-125.2347 1486.0665,-130.3489 1487.2305,-123.4463"/>
</g>
<!-- Node30&#45;&gt;Node14 -->
<g id="edge58" class="edge">
<title>Node30&#45;&gt;Node14</title>
<path fill="none" stroke="#191970" d="M2382.9675,-171.6637C2367.6525,-170.3052 2351.3539,-168.9843 2336.1969,-168 1935.389,-141.9724 1833.1919,-168.4485 1433.1969,-132 1420.7154,-130.8627 1407.0562,-129.042 1395.1436,-127.264"/>
<polygon fill="#191970" stroke="#191970" points="1395.6148,-123.7953 1385.1982,-125.7307 1394.5481,-130.7136 1395.6148,-123.7953"/>
</g>
<!-- Node31 -->
<g id="node32" class="node">
<title>Node31</title>
<g id="a_node32"><a xlink:href="../../db/db5/export_8h.html" target="_top" xlink:title="Declares system&#45;dependent import/export macros and libraries. ">
<polygon fill="#ffffff" stroke="#000000" points="2285.6969,-112.5 2285.6969,-131.5 2414.6969,-131.5 2414.6969,-112.5 2285.6969,-112.5"/>
<text text-anchor="middle" x="2350.1969" y="-119.5" font-family="Helvetica,sans-Serif" font-size="10.00" fill="#000000">ajabase/common/export.h</text>
</a>
</g>
</g>
<!-- Node30&#45;&gt;Node31 -->
<g id="edge55" class="edge">
<title>Node30&#45;&gt;Node31</title>
<path fill="none" stroke="#191970" d="M2430.3008,-168.2455C2415.2789,-159.5731 2393.0926,-146.7645 2375.8759,-136.825"/>
<polygon fill="#191970" stroke="#191970" points="2377.3097,-133.6114 2366.8994,-131.6427 2373.8098,-139.6737 2377.3097,-133.6114"/>
</g>
<!-- Node32 -->
<g id="node33" class="node">
<title>Node32</title>
<polygon fill="#ffffff" stroke="#bfbfbf" points="2432.6969,-112.5 2432.6969,-131.5 2461.6969,-131.5 2461.6969,-112.5 2432.6969,-112.5"/>
<text text-anchor="middle" x="2447.1969" y="-119.5" font-family="Helvetica,sans-Serif" font-size="10.00" fill="#000000">list</text>
</g>
<!-- Node30&#45;&gt;Node32 -->
<g id="edge57" class="edge">
<title>Node30&#45;&gt;Node32</title>
<path fill="none" stroke="#191970" d="M2447.1969,-168.2455C2447.1969,-160.9382 2447.1969,-150.6944 2447.1969,-141.7046"/>
<polygon fill="#191970" stroke="#191970" points="2450.697,-141.6426 2447.1969,-131.6427 2443.697,-141.6427 2450.697,-141.6426"/>
</g>
<!-- Node33 -->
<g id="node34" class="node">
<title>Node33</title>
<g id="a_node34"><a xlink:href="../../d9/d49/types_8h.html" target="_top" xlink:title="Declares common types used in the ajabase library. ">
<polygon fill="#ffffff" stroke="#000000" points="1689.1969,-112.5 1689.1969,-131.5 1815.1969,-131.5 1815.1969,-112.5 1689.1969,-112.5"/>
<text text-anchor="middle" x="1752.1969" y="-119.5" font-family="Helvetica,sans-Serif" font-size="10.00" fill="#000000">ajabase/common/types.h</text>
</a>
</g>
</g>
<!-- Node30&#45;&gt;Node33 -->
<g id="edge60" class="edge">
<title>Node30&#45;&gt;Node33</title>
<path fill="none" stroke="#191970" d="M2382.9359,-172.0871C2367.6221,-170.7122 2351.3319,-169.2778 2336.1969,-168 2152.4238,-152.4848 1935.9721,-135.8689 1825.3491,-127.4966"/>
<polygon fill="#191970" stroke="#191970" points="1825.5378,-124.001 1815.3023,-126.7369 1825.0099,-130.9811 1825.5378,-124.001"/>
</g>
<!-- Node33&#45;&gt;Node5 -->
<g id="edge61" class="edge">
<title>Node33&#45;&gt;Node5</title>
<path fill="none" stroke="#191970" d="M1689.1849,-113.6487C1684.4536,-113.073 1679.751,-112.517 1675.1969,-112 1293.9755,-68.7226 833.4988,-27.9103 679.3509,-14.5587"/>
<polygon fill="#191970" stroke="#191970" points="679.4795,-11.0568 669.2151,-13.6821 678.8764,-18.0308 679.4795,-11.0568"/>
</g>
<!-- Node35&#45;&gt;Node4 -->
<g id="edge70" class="edge">
<title>Node35&#45;&gt;Node4</title>
<path fill="none" stroke="#191970" d="M140.0451,-229.9114C159.0162,-215.8672 195.7795,-189.0842 228.1969,-168 268.9627,-141.4861 277.3658,-130.8418 322.1969,-112 365.9801,-93.5986 419.1107,-80.8323 455.0545,-73.4965"/>
<polygon fill="#191970" stroke="#191970" points="456.0467,-76.8678 465.1709,-71.4827 454.68,-70.0025 456.0467,-76.8678"/>
</g>
<!-- Node35&#45;&gt;Node7 -->
<g id="edge71" class="edge">
<title>Node35&#45;&gt;Node7</title>
<path fill="none" stroke="#191970" d="M178.3078,-229.9568C222.7227,-221.0539 288.4947,-206.3945 344.1969,-188 389.0594,-173.1851 438.9861,-150.6015 469.492,-136.0707"/>
<polygon fill="#191970" stroke="#191970" points="471.1844,-139.1406 478.6831,-131.6559 468.1536,-132.8308 471.1844,-139.1406"/>
</g>
<!-- Node35&#45;&gt;Node9 -->
<g id="edge69" class="edge">
<title>Node35&#45;&gt;Node9</title>
<path fill="none" stroke="#191970" d="M84.9514,-229.9064C48.7196,-219.3493 4.6313,-199.5589 20.1969,-168 56.3731,-94.6537 91.2738,-88.786 166.1969,-56 205.6897,-38.7182 325.5079,-22.6017 390.3793,-14.8415"/>
<polygon fill="#191970" stroke="#191970" points="391.1592,-18.2738 400.6793,-13.6244 390.3377,-11.3222 391.1592,-18.2738"/>
</g>
<!-- Node36 -->
<g id="node37" class="node">
<title>Node36</title>
<g id="a_node37"><a xlink:href="../../d9/dfb/ntv2devicefeatures_8hh.html" target="_top" xlink:title="Declares NTV2DeviceCanDo... and NTV2DeviceGetNum... functions. This module is included at compile tim...">
<polygon fill="#ffffff" stroke="#000000" points="29.6969,-168.5 29.6969,-187.5 142.6969,-187.5 142.6969,-168.5 29.6969,-168.5"/>
<text text-anchor="middle" x="86.1969" y="-175.5" font-family="Helvetica,sans-Serif" font-size="10.00" fill="#000000">ntv2devicefeatures.hh</text>
</a>
</g>
</g>
<!-- Node35&#45;&gt;Node36 -->
<g id="edge72" class="edge">
<title>Node35&#45;&gt;Node36</title>
<path fill="none" stroke="#191970" d="M120.7907,-229.8906C114.8083,-220.917 105.7222,-207.2879 98.363,-196.2491"/>
<polygon fill="#191970" stroke="#191970" points="101.1527,-194.1239 92.6935,-187.7449 95.3284,-198.0068 101.1527,-194.1239"/>
</g>
<!-- Node36&#45;&gt;Node7 -->
<g id="edge74" class="edge">
<title>Node36&#45;&gt;Node7</title>
<path fill="none" stroke="#191970" d="M143.0512,-170.2722C225.0643,-159.1248 375.055,-138.7377 451.1857,-128.3899"/>
<polygon fill="#191970" stroke="#191970" points="451.9856,-131.8134 461.4231,-126.9984 451.0428,-124.8772 451.9856,-131.8134"/>
</g>
<!-- Node36&#45;&gt;Node9 -->
<g id="edge73" class="edge">
<title>Node36&#45;&gt;Node9</title>
<path fill="none" stroke="#191970" d="M91.6246,-168.4842C105.5099,-145.0909 144.8069,-84.6023 195.1969,-56 227.9105,-37.4312 330.9924,-22.3647 390.213,-14.964"/>
<polygon fill="#191970" stroke="#191970" points="390.8825,-18.4081 400.381,-13.7147 390.0288,-11.4603 390.8825,-18.4081"/>
</g>
<!-- Node38&#45;&gt;Node3 -->
<g id="edge80" class="edge">
<title>Node38&#45;&gt;Node3</title>
<path fill="none" stroke="#191970" d="M1415.4911,-229.9882C1407.2123,-227.905 1398.418,-225.7896 1390.1969,-224 1325.9906,-210.0231 1251.9814,-196.9121 1200.6662,-188.2917"/>
<polygon fill="#191970" stroke="#191970" points="1201.1556,-184.825 1190.7154,-186.6285 1200.0016,-191.7292 1201.1556,-184.825"/>
</g>
<!-- Node38&#45;&gt;Node9 -->
<g id="edge79" class="edge">
<title>Node38&#45;&gt;Node9</title>
<path fill="none" stroke="#191970" d="M1446.5182,-229.6627C1441.6237,-219.3248 1433.7548,-202.5724 1427.1969,-188 1412.0848,-154.4191 1424.515,-132.9013 1394.1969,-112 1322.5846,-62.6304 696.369,-97.9258 612.1969,-76 592.9626,-70.9897 590.5683,-63.5864 572.1969,-56 540.391,-42.8658 503.3539,-30.7592 475.5122,-22.2662"/>
<polygon fill="#191970" stroke="#191970" points="476.2823,-18.8428 465.6976,-19.3055 474.2606,-25.5445 476.2823,-18.8428"/>
</g>
<!-- Node38&#45;&gt;Node12 -->
<g id="edge83" class="edge">
<title>Node38&#45;&gt;Node12</title>
<path fill="none" stroke="#191970" d="M1459.0107,-229.731C1470.0886,-215.9125 1491.0346,-189.8997 1509.1969,-168 1517.0169,-158.5708 1525.8352,-148.1521 1533.1058,-139.618"/>
<polygon fill="#191970" stroke="#191970" points="1535.9339,-141.6958 1539.7663,-131.8184 1530.6107,-137.1501 1535.9339,-141.6958"/>
</g>
<!-- Node38&#45;&gt;Node13 -->
<g id="edge84" class="edge">
<title>Node38&#45;&gt;Node13</title>
<path fill="none" stroke="#191970" d="M1445.5878,-229.7687C1438.367,-215.9951 1427.4005,-190.0353 1433.1969,-168 1435.8081,-158.0734 1441.1036,-148.0366 1446.2381,-139.8822"/>
<polygon fill="#191970" stroke="#191970" points="1449.1432,-141.8342 1451.815,-131.5817 1443.3329,-137.9303 1449.1432,-141.8342"/>
</g>
<!-- Node39 -->
<g id="node40" class="node">
<title>Node39</title>
<polygon fill="#ffffff" stroke="#bfbfbf" points="1581.1969,-112.5 1581.1969,-131.5 1633.1969,-131.5 1633.1969,-112.5 1581.1969,-112.5"/>
<text text-anchor="middle" x="1607.1969" y="-119.5" font-family="Helvetica,sans-Serif" font-size="10.00" fill="#000000">stddef.h</text>
</g>
<!-- Node38&#45;&gt;Node39 -->
<g id="edge81" class="edge">
<title>Node38&#45;&gt;Node39</title>
<path fill="none" stroke="#191970" d="M1463.9631,-229.8845C1490.8163,-209.6585 1553.3676,-162.5445 1586.2086,-137.8085"/>
<polygon fill="#191970" stroke="#191970" points="1588.3724,-140.5605 1594.2544,-131.7484 1584.1609,-134.9691 1588.3724,-140.5605"/>
</g>
<!-- Node40 -->
<g id="node41" class="node">
<title>Node40</title>
<polygon fill="#ffffff" stroke="#bfbfbf" points="1589.1969,-168.5 1589.1969,-187.5 1641.1969,-187.5 1641.1969,-168.5 1589.1969,-168.5"/>
<text text-anchor="middle" x="1615.1969" y="-175.5" font-family="Helvetica,sans-Serif" font-size="10.00" fill="#000000">sstream</text>
</g>
<!-- Node38&#45;&gt;Node40 -->
<g id="edge82" class="edge">
<title>Node38&#45;&gt;Node40</title>
<path fill="none" stroke="#191970" d="M1476.8219,-229.8906C1504.6232,-219.4652 1549.1813,-202.7559 1580.1963,-191.1252"/>
<polygon fill="#191970" stroke="#191970" points="1581.6175,-194.3303 1589.7519,-187.5419 1579.1596,-187.776 1581.6175,-194.3303"/>
</g>
<!-- Node41&#45;&gt;Node21 -->
<g id="edge87" class="edge">
<title>Node41&#45;&gt;Node21</title>
<path fill="none" stroke="#191970" d="M983.9136,-459.2455C971.4499,-450.7337 953.1518,-438.2375 938.7178,-428.3801"/>
<polygon fill="#191970" stroke="#191970" points="940.5485,-425.392 930.3165,-422.6427 936.6007,-431.1726 940.5485,-425.392"/>
</g>
<!-- Node42&#45;&gt;Node1 -->
<g id="edge94" class="edge">
<title>Node42&#45;&gt;Node1</title>
<path fill="none" stroke="#191970" d="M1946.5436,-578.6968C1839.6759,-573.6662 1589.7597,-560.0897 1381.1969,-535 1375.1518,-534.2728 1368.7862,-533.3659 1362.5511,-532.3972"/>
<polygon fill="#191970" stroke="#191970" points="1362.692,-528.8744 1352.2608,-530.7292 1361.5719,-535.7842 1362.692,-528.8744"/>
</g>
<!-- Node42&#45;&gt;Node3 -->
<g id="edge93" class="edge">
<title>Node42&#45;&gt;Node3</title>
<path fill="none" stroke="#191970" d="M1946.6399,-575.3743C1813.0885,-560.3735 1471.1969,-517.2587 1471.1969,-469 1471.1969,-469 1471.1969,-469 1471.1969,-357 1471.1969,-260.0153 1384.803,-267.6511 1298.1969,-224 1266.9259,-208.2388 1229.4352,-197.1252 1198.5023,-189.7751"/>
<polygon fill="#191970" stroke="#191970" points="1199.2361,-186.3526 1188.7058,-187.5199 1197.6657,-193.1742 1199.2361,-186.3526"/>
</g>
<!-- Node42&#45;&gt;Node10 -->
<g id="edge138" class="edge">
<title>Node42&#45;&gt;Node10</title>
<path fill="none" stroke="#191970" d="M2051.9009,-575.8493C2099.1349,-569.9658 2169.642,-558.0117 2227.1969,-535 2421.6576,-457.2504 2461.443,-406.3481 2606.1969,-255 2635.6268,-224.2295 2663.1969,-220.5786 2663.1969,-178 2663.1969,-178 2663.1969,-178 2663.1969,-122 2663.1969,-48.5438 2089.5042,-17.7611 1948.9829,-11.3229"/>
<polygon fill="#191970" stroke="#191970" points="1949.0474,-7.8223 1938.9,-10.869 1948.7325,-14.8153 1949.0474,-7.8223"/>
</g>
<!-- Node42&#45;&gt;Node25 -->
<g id="edge95" class="edge">
<title>Node42&#45;&gt;Node25</title>
<path fill="none" stroke="#191970" d="M1946.5597,-578.6737C1818.9847,-572.7324 1500.5507,-555.9772 1457.1969,-535 1420.9688,-517.4706 1395.1969,-509.2462 1395.1969,-469 1395.1969,-469 1395.1969,-469 1395.1969,-413 1395.1969,-374.2415 1372.7728,-364.5138 1338.1969,-347 1290.5595,-322.8701 925.3348,-307.1779 800.7112,-302.4809"/>
<polygon fill="#191970" stroke="#191970" points="800.5648,-298.9731 790.4414,-302.0983 800.3041,-305.9682 800.5648,-298.9731"/>
</g>
<!-- Node43 -->
<g id="node44" class="node">
<title>Node43</title>
<g id="a_node44"><a xlink:href="../../d6/de1/ntv2rp188_8h.html" target="_top" xlink:title="Declares the CRP188 class. See SMPTE RP188 standard for details. ">
<polygon fill="#ffffff" stroke="#000000" points="1816.1969,-230 1816.1969,-249 1884.1969,-249 1884.1969,-230 1816.1969,-230"/>
<text text-anchor="middle" x="1850.1969" y="-237" font-family="Helvetica,sans-Serif" font-size="10.00" fill="#000000">ntv2rp188.h</text>
</a>
</g>
</g>
<!-- Node42&#45;&gt;Node43 -->
<g id="edge89" class="edge">
<title>Node42&#45;&gt;Node43</title>
<path fill="none" stroke="#191970" d="M1978.0574,-571.4901C1945.8518,-555.3882 1888.1969,-519.5089 1888.1969,-469 1888.1969,-469 1888.1969,-469 1888.1969,-357 1888.1969,-320.7454 1871.6164,-281.1181 1860.3599,-258.3929"/>
<polygon fill="#191970" stroke="#191970" points="1863.3261,-256.5073 1855.6414,-249.2137 1857.1005,-259.7076 1863.3261,-256.5073"/>
</g>
<!-- Node45 -->
<g id="node46" class="node">
<title>Node45</title>
<g id="a_node46"><a xlink:href="../../d7/d92/ancillarydata_8h.html" target="_top" xlink:title="Declares the AJAAncillaryData class. ">
<polygon fill="#ffffff" stroke="#000000" points="1516.1969,-230 1516.1969,-249 1666.1969,-249 1666.1969,-230 1516.1969,-230"/>
<text text-anchor="middle" x="1591.1969" y="-237" font-family="Helvetica,sans-Serif" font-size="10.00" fill="#000000">ajaanc/includes/ancillarydata.h</text>
</a>
</g>
</g>
<!-- Node42&#45;&gt;Node45 -->
<g id="edge96" class="edge">
<title>Node42&#45;&gt;Node45</title>
<path fill="none" stroke="#191970" d="M1946.4547,-573.2661C1857.2521,-558.6877 1686.1969,-523.6123 1686.1969,-469 1686.1969,-469 1686.1969,-469 1686.1969,-357 1686.1969,-312.262 1644.0359,-274.9849 1615.8878,-255.0828"/>
<polygon fill="#191970" stroke="#191970" points="1617.5482,-251.979 1607.3124,-249.2441 1613.6086,-257.7652 1617.5482,-251.979"/>
</g>
<!-- Node46 -->
<g id="node47" class="node">
<title>Node46</title>
<g id="a_node47"><a xlink:href="../../da/daf/options__popt_8h.html" target="_top" xlink:title="ajabase/common/options\l_popt.h">
<polygon fill="#ffffff" stroke="#000000" points="2082.6969,-224.5 2082.6969,-254.5 2207.6969,-254.5 2207.6969,-224.5 2082.6969,-224.5"/>
<text text-anchor="start" x="2090.6969" y="-242.5" font-family="Helvetica,sans-Serif" font-size="10.00" fill="#000000">ajabase/common/options</text>
<text text-anchor="middle" x="2145.1969" y="-231.5" font-family="Helvetica,sans-Serif" font-size="10.00" fill="#000000">_popt.h</text>
</a>
</g>
</g>
<!-- Node42&#45;&gt;Node46 -->
<g id="edge103" class="edge">
<title>Node42&#45;&gt;Node46</title>
<path fill="none" stroke="#191970" d="M2037.5696,-571.4538C2057.052,-564.5808 2079.2753,-553.219 2092.1969,-535 2123.8011,-490.4391 2107.1969,-467.6305 2107.1969,-413 2107.1969,-413 2107.1969,-413 2107.1969,-357 2107.1969,-323.4203 2121.4211,-286.9473 2132.4642,-263.6909"/>
<polygon fill="#191970" stroke="#191970" points="2135.6729,-265.0974 2136.9515,-254.58 2129.3932,-262.0045 2135.6729,-265.0974"/>
</g>
<!-- Node48 -->
<g id="node49" class="node">
<title>Node48</title>
<g id="a_node49"><a xlink:href="../../d6/da4/videotypes_8h.html" target="_top" xlink:title="Declares the enumeration constants used in the ajabase library. ">
<polygon fill="#ffffff" stroke="#000000" points="2415.6969,-515.5 2415.6969,-534.5 2564.6969,-534.5 2564.6969,-515.5 2415.6969,-515.5"/>
<text text-anchor="middle" x="2490.1969" y="-522.5" font-family="Helvetica,sans-Serif" font-size="10.00" fill="#000000">ajabase/common/videotypes.h</text>
</a>
</g>
</g>
<!-- Node42&#45;&gt;Node48 -->
<g id="edge106" class="edge">
<title>Node42&#45;&gt;Node48</title>
<path fill="none" stroke="#191970" d="M2051.7425,-575.007C2136.3772,-565.3542 2303.6636,-546.2747 2405.363,-534.6756"/>
<polygon fill="#191970" stroke="#191970" points="2405.7601,-538.153 2415.2991,-533.5423 2404.9668,-531.1981 2405.7601,-538.153"/>
</g>
<!-- Node42&#45;&gt;Node49 -->
<g id="edge107" class="edge">
<title>Node42&#45;&gt;Node49</title>
<path fill="none" stroke="#191970" d="M2051.7737,-573.3165C2114.5573,-561.9151 2220.111,-535.4617 2292.1969,-479 2329.0229,-450.1558 2357.3965,-401.9501 2371.1175,-375.597"/>
<polygon fill="#191970" stroke="#191970" points="2374.2514,-377.1555 2375.6459,-366.6528 2368.0062,-373.9936 2374.2514,-377.1555"/>
</g>
<!-- Node51 -->
<g id="node52" class="node">
<title>Node51</title>
<g id="a_node52"><a xlink:href="../../db/d16/debug_8h.html" target="_top" xlink:title="Declares the AJADebug class. ">
<polygon fill="#ffffff" stroke="#000000" points="1902.6969,-230 1902.6969,-249 2025.6969,-249 2025.6969,-230 1902.6969,-230"/>
<text text-anchor="middle" x="1964.1969" y="-237" font-family="Helvetica,sans-Serif" font-size="10.00" fill="#000000">ajabase/system/debug.h</text>
</a>
</g>
</g>
<!-- Node42&#45;&gt;Node51 -->
<g id="edge113" class="edge">
<title>Node42&#45;&gt;Node51</title>
<path fill="none" stroke="#191970" d="M1993.5899,-571.4834C1983.0196,-552.6141 1961.1969,-508.8343 1961.1969,-469 1961.1969,-469 1961.1969,-469 1961.1969,-357 1961.1969,-322.6287 1962.4956,-282.6203 1963.3841,-259.2724"/>
<polygon fill="#191970" stroke="#191970" points="1966.8826,-259.3771 1963.7798,-249.2468 1959.888,-259.1009 1966.8826,-259.3771"/>
</g>
<!-- Node53 -->
<g id="node54" class="node">
<title>Node53</title>
<g id="a_node54"><a xlink:href="../../d4/d21/info_8h.html" target="_top" xlink:title="Declares the AJASystemInfo class. ">
<polygon fill="#ffffff" stroke="#000000" points="1684.6969,-230 1684.6969,-249 1797.6969,-249 1797.6969,-230 1684.6969,-230"/>
<text text-anchor="middle" x="1741.1969" y="-237" font-family="Helvetica,sans-Serif" font-size="10.00" fill="#000000">ajabase/system/info.h</text>
</a>
</g>
</g>
<!-- Node42&#45;&gt;Node53 -->
<g id="edge124" class="edge">
<title>Node42&#45;&gt;Node53</title>
<path fill="none" stroke="#191970" d="M1946.4699,-572.1098C1892.0983,-559.5691 1815.1969,-530.892 1815.1969,-469 1815.1969,-469 1815.1969,-469 1815.1969,-357 1815.1969,-315.7758 1782.1794,-277.1981 1760.2538,-256.1249"/>
<polygon fill="#191970" stroke="#191970" points="1762.4734,-253.4101 1752.7594,-249.1806 1757.7157,-258.5447 1762.4734,-253.4101"/>
</g>
<!-- Node54 -->
<g id="node55" class="node">
<title>Node54</title>
<g id="a_node55"><a xlink:href="../../da/dbc/systemtime_8h.html" target="_top" xlink:title="Declares the AJATime class. ">
<polygon fill="#ffffff" stroke="#000000" points="2135.1969,-459.5 2135.1969,-478.5 2283.1969,-478.5 2283.1969,-459.5 2135.1969,-459.5"/>
<text text-anchor="middle" x="2209.1969" y="-466.5" font-family="Helvetica,sans-Serif" font-size="10.00" fill="#000000">ajabase/system/systemtime.h</text>
</a>
</g>
</g>
<!-- Node42&#45;&gt;Node54 -->
<g id="edge129" class="edge">
<title>Node42&#45;&gt;Node54</title>
<path fill="none" stroke="#191970" d="M2034.1666,-571.4929C2060.1958,-563.6536 2096.1016,-551.1987 2125.1969,-535 2150.035,-521.1715 2175.2438,-500.2413 2191.4748,-485.6713"/>
<polygon fill="#191970" stroke="#191970" points="2194.077,-488.0346 2199.0947,-478.7033 2189.3531,-482.8688 2194.077,-488.0346"/>
</g>
<!-- Node55 -->
<g id="node56" class="node">
<title>Node55</title>
<g id="a_node56"><a xlink:href="../../dc/d54/common_8h.html" target="_top" xlink:title="Private include file for all ajabase sources. ">
<polygon fill="#ffffff" stroke="#000000" points="2187.1969,-168.5 2187.1969,-187.5 2327.1969,-187.5 2327.1969,-168.5 2187.1969,-168.5"/>
<text text-anchor="middle" x="2257.1969" y="-175.5" font-family="Helvetica,sans-Serif" font-size="10.00" fill="#000000">ajabase/common/common.h</text>
</a>
</g>
</g>
<!-- Node42&#45;&gt;Node55 -->
<g id="edge131" class="edge">
<title>Node42&#45;&gt;Node55</title>
<path fill="none" stroke="#191970" d="M1997.9218,-571.3889C1992.4168,-525.5307 1975.2103,-326.9441 2074.1969,-224 2088.9951,-208.6102 2136.1667,-196.9668 2178.9083,-189.2445"/>
<polygon fill="#191970" stroke="#191970" points="2179.5526,-192.6851 2188.7983,-187.5114 2178.3443,-185.7901 2179.5526,-192.6851"/>
</g>
<!-- Node57 -->
<g id="node58" class="node">
<title>Node57</title>
<polygon fill="#ffffff" stroke="#bfbfbf" points="2027.1969,-515.5 2027.1969,-534.5 2083.1969,-534.5 2083.1969,-515.5 2027.1969,-515.5"/>
<text text-anchor="middle" x="2055.1969" y="-522.5" font-family="Helvetica,sans-Serif" font-size="10.00" fill="#000000">algorithm</text>
</g>
<!-- Node42&#45;&gt;Node57 -->
<g id="edge137" class="edge">
<title>Node42&#45;&gt;Node57</title>
<path fill="none" stroke="#191970" d="M2008.9514,-571.2455C2017.0617,-563.1352 2028.7894,-551.4075 2038.405,-541.7919"/>
<polygon fill="#191970" stroke="#191970" points="2040.958,-544.1887 2045.5542,-534.6427 2036.0083,-539.2389 2040.958,-544.1887"/>
</g>
<!-- Node43&#45;&gt;Node3 -->
<g id="edge92" class="edge">
<title>Node43&#45;&gt;Node3</title>
<path fill="none" stroke="#191970" d="M1827.3298,-229.9303C1820.9195,-227.6144 1813.8754,-225.4043 1807.1969,-224 1692.5696,-199.8964 1345.1401,-185.2921 1200.9627,-180.1241"/>
<polygon fill="#191970" stroke="#191970" points="1201.0571,-176.6253 1190.9392,-179.7683 1200.8087,-183.6209 1201.0571,-176.6253"/>
</g>
<!-- Node43&#45;&gt;Node10 -->
<g id="edge90" class="edge">
<title>Node43&#45;&gt;Node10</title>
<path fill="none" stroke="#191970" d="M1875.5942,-229.8573C1881.6386,-227.7566 1888.1035,-225.6667 1894.1969,-224 1973.7316,-202.2457 2023.8533,-251.7115 2076.1969,-188 2127.7555,-125.2441 2006.9959,-53.9217 1948.1362,-24.1835"/>
<polygon fill="#191970" stroke="#191970" points="1949.4356,-20.9212 1938.9219,-19.6122 1946.3246,-27.1919 1949.4356,-20.9212"/>
</g>
<!-- Node44 -->
<g id="node45" class="node">
<title>Node44</title>
<polygon fill="#ffffff" stroke="#bfbfbf" points="1811.1969,-168.5 1811.1969,-187.5 1863.1969,-187.5 1863.1969,-168.5 1811.1969,-168.5"/>
<text text-anchor="middle" x="1837.1969" y="-175.5" font-family="Helvetica,sans-Serif" font-size="10.00" fill="#000000">ostream</text>
</g>
<!-- Node43&#45;&gt;Node44 -->
<g id="edge91" class="edge">
<title>Node43&#45;&gt;Node44</title>
<path fill="none" stroke="#191970" d="M1848.1657,-229.8906C1846.3447,-221.276 1843.6168,-208.3708 1841.337,-197.5858"/>
<polygon fill="#191970" stroke="#191970" points="1844.7493,-196.8048 1839.2568,-187.7449 1837.9007,-198.2525 1844.7493,-196.8048"/>
</g>
<!-- Node45&#45;&gt;Node3 -->
<g id="edge100" class="edge">
<title>Node45&#45;&gt;Node3</title>
<path fill="none" stroke="#191970" d="M1542.4196,-229.9981C1530.8923,-227.8917 1518.6287,-225.7638 1507.1969,-224 1400.1194,-207.4793 1274.8934,-192.8977 1201.0239,-184.7817"/>
<polygon fill="#191970" stroke="#191970" points="1201.2699,-181.2879 1190.9486,-183.6799 1200.5088,-188.2464 1201.2699,-181.2879"/>
</g>
<!-- Node45&#45;&gt;Node4 -->
<g id="edge97" class="edge">
<title>Node45&#45;&gt;Node4</title>
<path fill="none" stroke="#191970" d="M1586.7982,-229.819C1574.8473,-204.8344 1539.088,-138.305 1486.1969,-112 1399.1721,-68.7189 709.194,-82.1754 612.1969,-76 587.468,-74.4256 559.8234,-72.066 537.7258,-70.0342"/>
<polygon fill="#191970" stroke="#191970" points="537.9595,-66.5409 527.6779,-69.098 537.31,-73.5108 537.9595,-66.5409"/>
</g>
<!-- Node45&#45;&gt;Node8 -->
<g id="edge98" class="edge">
<title>Node45&#45;&gt;Node8</title>
<path fill="none" stroke="#191970" d="M1586.1121,-229.9966C1579.1635,-215.5908 1568.7924,-187.8095 1580.1969,-168 1596.0948,-140.3854 1626.299,-159.6146 1642.1969,-132 1646.6319,-124.2965 1648.3337,-118.4306 1642.1969,-112 1625.8647,-94.8856 901.5732,-72.9415 706.9258,-67.3452"/>
<polygon fill="#191970" stroke="#191970" points="706.8237,-63.8409 696.7275,-67.053 706.6231,-70.838 706.8237,-63.8409"/>
</g>
<!-- Node45&#45;&gt;Node14 -->
<g id="edge102" class="edge">
<title>Node45&#45;&gt;Node14</title>
<path fill="none" stroke="#191970" d="M1565.8946,-229.8666C1541.2712,-220.2078 1503.019,-204.4446 1471.1969,-188 1440.7923,-172.2878 1407.4078,-151.2644 1385.9237,-137.2082"/>
<polygon fill="#191970" stroke="#191970" points="1387.7634,-134.229 1377.4881,-131.6465 1383.9103,-140.0731 1387.7634,-134.229"/>
</g>
<!-- Node45&#45;&gt;Node33 -->
<g id="edge99" class="edge">
<title>Node45&#45;&gt;Node33</title>
<path fill="none" stroke="#191970" d="M1604.3722,-229.8845C1632.0861,-209.6585 1696.6423,-162.5445 1730.5359,-137.8085"/>
<polygon fill="#191970" stroke="#191970" points="1732.8253,-140.4707 1738.8396,-131.7484 1728.6986,-134.8164 1732.8253,-140.4707"/>
</g>
<!-- Node45&#45;&gt;Node40 -->
<g id="edge101" class="edge">
<title>Node45&#45;&gt;Node40</title>
<path fill="none" stroke="#191970" d="M1594.9469,-229.8906C1598.3438,-221.1862 1603.45,-208.1015 1607.6849,-197.2494"/>
<polygon fill="#191970" stroke="#191970" points="1611.0191,-198.3331 1611.394,-187.7449 1604.498,-195.7882 1611.0191,-198.3331"/>
</g>
<!-- Node46&#45;&gt;Node31 -->
<g id="edge105" class="edge">
<title>Node46&#45;&gt;Node31</title>
<path fill="none" stroke="#191970" d="M2207.9234,-226.0026C2260.0513,-214.2327 2327.1195,-197.5847 2336.1969,-188 2347.75,-175.8013 2350.7518,-156.5526 2351.1579,-141.9837"/>
<polygon fill="#191970" stroke="#191970" points="2354.6575,-141.9151 2351.0612,-131.9494 2347.6579,-141.9827 2354.6575,-141.9151"/>
</g>
<!-- Node47 -->
<g id="node48" class="node">
<title>Node47</title>
<polygon fill="#ffffff" stroke="#bfbfbf" points="2123.1969,-168.5 2123.1969,-187.5 2169.1969,-187.5 2169.1969,-168.5 2123.1969,-168.5"/>
<text text-anchor="middle" x="2146.1969" y="-175.5" font-family="Helvetica,sans-Serif" font-size="10.00" fill="#000000">stdio.h</text>
</g>
<!-- Node46&#45;&gt;Node47 -->
<g id="edge104" class="edge">
<title>Node46&#45;&gt;Node47</title>
<path fill="none" stroke="#191970" d="M2145.4441,-224.2977C2145.5728,-216.3834 2145.7318,-206.6043 2145.8705,-198.0759"/>
<polygon fill="#191970" stroke="#191970" points="2149.3737,-197.9025 2146.0368,-187.8469 2142.3746,-197.7887 2149.3737,-197.9025"/>
</g>
<!-- Node49&#45;&gt;Node29 -->
<g id="edge109" class="edge">
<title>Node49&#45;&gt;Node29</title>
<path fill="none" stroke="#191970" d="M2301.5932,-353.4757C2073.3436,-343.242 1413.1776,-313.6428 1199.0937,-304.0442"/>
<polygon fill="#191970" stroke="#191970" points="1199.085,-300.5404 1188.9383,-303.5889 1198.7714,-307.5334 1199.085,-300.5404"/>
</g>
<!-- Node49&#45;&gt;Node30 -->
<g id="edge108" class="edge">
<title>Node49&#45;&gt;Node30</title>
<path fill="none" stroke="#191970" d="M2383.7991,-347.3762C2394.4328,-318.9669 2425.8307,-235.0828 2440.0526,-197.0871"/>
<polygon fill="#191970" stroke="#191970" points="2443.3492,-198.2638 2443.5769,-187.6714 2436.7934,-195.8099 2443.3492,-198.2638"/>
</g>
<!-- Node50 -->
<g id="node51" class="node">
<title>Node50</title>
<g id="a_node51"><a xlink:href="../../dd/d20/event_8h.html" target="_top" xlink:title="Declares the AJAEvent class. ">
<polygon fill="#ffffff" stroke="#000000" points="2475.6969,-230 2475.6969,-249 2596.6969,-249 2596.6969,-230 2475.6969,-230"/>
<text text-anchor="middle" x="2536.1969" y="-237" font-family="Helvetica,sans-Serif" font-size="10.00" fill="#000000">ajabase/system/event.h</text>
</a>
</g>
</g>
<!-- Node49&#45;&gt;Node50 -->
<g id="edge110" class="edge">
<title>Node49&#45;&gt;Node50</title>
<path fill="none" stroke="#191970" d="M2392.9631,-347.3845C2419.8163,-327.1585 2482.3676,-280.0445 2515.2086,-255.3085"/>
<polygon fill="#191970" stroke="#191970" points="2517.3724,-258.0605 2523.2544,-249.2484 2513.1609,-252.4691 2517.3724,-258.0605"/>
</g>
<!-- Node50&#45;&gt;Node10 -->
<g id="edge112" class="edge">
<title>Node50&#45;&gt;Node10</title>
<path fill="none" stroke="#191970" d="M2535.0286,-229.9669C2533.1032,-215.9919 2528.6115,-189.2941 2520.1969,-168 2492.7832,-98.6261 2465.9696,-79.5684 2395.1969,-56 2311.7704,-28.2178 2040.9017,-14.9531 1949.0143,-11.1732"/>
<polygon fill="#191970" stroke="#191970" points="1949.097,-7.6738 1938.9642,-10.7685 1948.8153,-14.6681 1949.097,-7.6738"/>
</g>
<!-- Node50&#45;&gt;Node30 -->
<g id="edge111" class="edge">
<title>Node50&#45;&gt;Node30</title>
<path fill="none" stroke="#191970" d="M2522.2907,-229.8906C2508.1831,-220.1421 2486.1245,-204.8994 2469.5584,-193.4521"/>
<polygon fill="#191970" stroke="#191970" points="2471.2222,-190.3474 2461.0055,-187.5419 2467.2427,-196.1063 2471.2222,-190.3474"/>
</g>
<!-- Node51&#45;&gt;Node12 -->
<g id="edge116" class="edge">
<title>Node51&#45;&gt;Node12</title>
<path fill="none" stroke="#191970" d="M1955.3741,-229.8519C1940.1466,-213.9048 1907.1833,-182.3833 1872.1969,-168 1751.0257,-118.1852 1704.3615,-163.8051 1573.2202,-131.5648"/>
<polygon fill="#191970" stroke="#191970" points="1573.7699,-128.0924 1563.2136,-128.9953 1572.0289,-134.8725 1573.7699,-128.0924"/>
</g>
<!-- Node51&#45;&gt;Node30 -->
<g id="edge117" class="edge">
<title>Node51&#45;&gt;Node30</title>
<path fill="none" stroke="#191970" d="M2025.8402,-230.6226C2041.5983,-228.4058 2058.5187,-226.0712 2074.1969,-224 2177.678,-210.3295 2297.4861,-195.7812 2372.8056,-186.7907"/>
<polygon fill="#191970" stroke="#191970" points="2373.6166,-190.2189 2383.132,-185.5596 2372.7879,-183.2681 2373.6166,-190.2189"/>
</g>
<!-- Node51&#45;&gt;Node40 -->
<g id="edge115" class="edge">
<title>Node51&#45;&gt;Node40</title>
<path fill="none" stroke="#191970" d="M1922.2212,-229.9655C1912.6973,-227.9055 1902.614,-225.8058 1893.1969,-224 1806.7163,-207.4165 1704.4101,-191.4119 1651.2877,-183.3707"/>
<polygon fill="#191970" stroke="#191970" points="1651.7483,-179.9006 1641.3383,-181.8708 1650.7048,-186.8224 1651.7483,-179.9006"/>
</g>
<!-- Node51&#45;&gt;Node47 -->
<g id="edge114" class="edge">
<title>Node51&#45;&gt;Node47</title>
<path fill="none" stroke="#191970" d="M1992.6344,-229.8906C2025.392,-218.8214 2079.113,-200.6685 2113.5506,-189.0316"/>
<polygon fill="#191970" stroke="#191970" points="2114.7932,-192.3062 2123.1465,-185.789 2112.5523,-185.6746 2114.7932,-192.3062"/>
</g>
<!-- Node52 -->
<g id="node53" class="node">
<title>Node52</title>
<g id="a_node53"><a xlink:href="../../d0/db4/debugshare_8h.html" target="_top" xlink:title="Declares the constants used for sharing debug messages. These structures are used to gather debug mes...">
<polygon fill="#ffffff" stroke="#000000" points="1919.6969,-168.5 1919.6969,-187.5 2066.6969,-187.5 2066.6969,-168.5 1919.6969,-168.5"/>
<text text-anchor="middle" x="1993.1969" y="-175.5" font-family="Helvetica,sans-Serif" font-size="10.00" fill="#000000">ajabase/system/debugshare.h</text>
</a>
</g>
</g>
<!-- Node51&#45;&gt;Node52 -->
<g id="edge118" class="edge">
<title>Node51&#45;&gt;Node52</title>
<path fill="none" stroke="#191970" d="M1968.7282,-229.8906C1972.875,-221.0965 1979.1302,-207.8312 1984.2779,-196.9145"/>
<polygon fill="#191970" stroke="#191970" points="1987.5024,-198.2825 1988.6018,-187.7449 1981.171,-195.2969 1987.5024,-198.2825"/>
</g>
<!-- Node52&#45;&gt;Node6 -->
<g id="edge121" class="edge">
<title>Node52&#45;&gt;Node6</title>
<path fill="none" stroke="#191970" d="M1971.6914,-168.3887C1939.939,-154.4778 1878.4134,-128.5869 1824.1969,-112 1671.057,-65.1488 1482.8041,-29.5886 1406.1511,-16.0085"/>
<polygon fill="#191970" stroke="#191970" points="1406.546,-12.5244 1396.0909,-14.2393 1405.3335,-19.4186 1406.546,-12.5244"/>
</g>
<!-- Node52&#45;&gt;Node10 -->
<g id="edge122" class="edge">
<title>Node52&#45;&gt;Node10</title>
<path fill="none" stroke="#191970" d="M1988.9497,-168.4862C1976.9913,-141.6994 1942.865,-65.2565 1926.7813,-29.2289"/>
<polygon fill="#191970" stroke="#191970" points="1929.8569,-27.5325 1922.5844,-19.8279 1923.4649,-30.3861 1929.8569,-27.5325"/>
</g>
<!-- Node52&#45;&gt;Node14 -->
<g id="edge123" class="edge">
<title>Node52&#45;&gt;Node14</title>
<path fill="none" stroke="#191970" d="M1919.612,-171.9111C1903.9609,-170.6181 1887.5324,-169.2625 1872.1969,-168 1677.0909,-151.938 1627.7395,-153.8526 1433.1969,-132 1420.7421,-130.601 1407.0882,-128.7274 1395.1725,-126.9802"/>
<polygon fill="#191970" stroke="#191970" points="1395.6301,-123.5098 1385.2224,-125.4925 1394.5949,-130.4329 1395.6301,-123.5098"/>
</g>
<!-- Node52&#45;&gt;Node31 -->
<g id="edge119" class="edge">
<title>Node52&#45;&gt;Node31</title>
<path fill="none" stroke="#191970" d="M2054.1618,-168.4369C2116.5431,-158.6516 2213.4007,-143.4582 2279.1999,-133.1368"/>
<polygon fill="#191970" stroke="#191970" points="2280.1467,-136.5311 2289.4835,-131.5237 2279.0619,-129.6157 2280.1467,-136.5311"/>
</g>
<!-- Node52&#45;&gt;Node39 -->
<g id="edge120" class="edge">
<title>Node52&#45;&gt;Node39</title>
<path fill="none" stroke="#191970" d="M1927.2797,-168.4369C1845.4879,-156.5707 1708.8798,-136.7519 1643.8116,-127.312"/>
<polygon fill="#191970" stroke="#191970" points="1644.0304,-123.8072 1633.6315,-125.8351 1643.0253,-130.7346 1644.0304,-123.8072"/>
</g>
<!-- Node53&#45;&gt;Node10 -->
<g id="edge128" class="edge">
<title>Node53&#45;&gt;Node10</title>
<path fill="none" stroke="#191970" d="M1748.7533,-229.7199C1763.3426,-210.8357 1796.4042,-168.0339 1824.1969,-132 1852.7229,-95.0154 1886.0866,-51.6996 1904.4038,-27.9133"/>
<polygon fill="#191970" stroke="#191970" points="1907.3178,-29.8657 1910.6459,-19.8071 1901.7716,-25.5949 1907.3178,-29.8657"/>
</g>
<!-- Node53&#45;&gt;Node13 -->
<g id="edge127" class="edge">
<title>Node53&#45;&gt;Node13</title>
<path fill="none" stroke="#191970" d="M1736.2581,-229.848C1727.7102,-214.1856 1708.6057,-183.4355 1683.1969,-168 1666.5019,-157.858 1543.078,-136.1214 1486.9016,-126.6129"/>
<polygon fill="#191970" stroke="#191970" points="1487.367,-123.142 1476.9246,-124.9332 1486.2048,-130.0449 1487.367,-123.142"/>
</g>
<!-- Node53&#45;&gt;Node14 -->
<g id="edge126" class="edge">
<title>Node53&#45;&gt;Node14</title>
<path fill="none" stroke="#191970" d="M1730.2914,-229.7778C1710.2198,-212.0846 1667.8677,-175.7317 1650.1969,-168 1638.5751,-162.915 1468.0935,-137.4309 1395.5197,-126.7362"/>
<polygon fill="#191970" stroke="#191970" points="1395.956,-123.2628 1385.553,-125.2698 1394.937,-130.1883 1395.956,-123.2628"/>
</g>
<!-- Node53&#45;&gt;Node30 -->
<g id="edge125" class="edge">
<title>Node53&#45;&gt;Node30</title>
<path fill="none" stroke="#191970" d="M1776.9577,-229.9837C1786.704,-227.697 1797.3037,-225.4882 1807.1969,-224 2040.23,-188.9454 2101.2751,-206.5734 2336.1969,-188 2348.0263,-187.0647 2360.5583,-186.0037 2372.7773,-184.9308"/>
<polygon fill="#191970" stroke="#191970" points="2373.2936,-188.3988 2382.9454,-184.0293 2372.6753,-181.4262 2373.2936,-188.3988"/>
</g>
<!-- Node54&#45;&gt;Node30 -->
<g id="edge130" class="edge">
<title>Node54&#45;&gt;Node30</title>
<path fill="none" stroke="#191970" d="M2215.3034,-459.1916C2228.6026,-438.051 2261.5389,-386.8784 2293.1969,-347 2339.6417,-288.4952 2401.0196,-224.6823 2430.2793,-194.9789"/>
<polygon fill="#191970" stroke="#191970" points="2432.7759,-197.4319 2437.3203,-187.8611 2427.7994,-192.509 2432.7759,-197.4319"/>
</g>
<!-- Node55&#45;&gt;Node10 -->
<g id="edge134" class="edge">
<title>Node55&#45;&gt;Node10</title>
<path fill="none" stroke="#191970" d="M2256.9127,-168.2666C2256.0004,-154.2035 2252.3614,-128.1249 2238.1969,-112 2199.1346,-67.5315 2020.7807,-29.4453 1948.626,-15.5847"/>
<polygon fill="#191970" stroke="#191970" points="1949.2571,-12.1421 1938.7801,-13.7176 1947.9529,-19.0195 1949.2571,-12.1421"/>
</g>
<!-- Node55&#45;&gt;Node12 -->
<g id="edge133" class="edge">
<title>Node55&#45;&gt;Node12</title>
<path fill="none" stroke="#191970" d="M2187.0123,-168.8697C2184.0358,-168.5603 2181.0877,-168.2685 2178.1969,-168 1912.8247,-143.3495 1836.9265,-191.5364 1573.2974,-131.5155"/>
<polygon fill="#191970" stroke="#191970" points="1573.9679,-128.0783 1563.437,-129.2404 1572.3941,-134.8991 1573.9679,-128.0783"/>
</g>
<!-- Node55&#45;&gt;Node14 -->
<g id="edge135" class="edge">
<title>Node55&#45;&gt;Node14</title>
<path fill="none" stroke="#191970" d="M2187.016,-168.8293C2184.0384,-168.5309 2181.0891,-168.2525 2178.1969,-168 1847.9561,-139.1635 1763.1968,-163.4749 1433.1969,-132 1420.7203,-130.81 1407.0621,-128.9787 1395.149,-127.2069"/>
<polygon fill="#191970" stroke="#191970" points="1395.6175,-123.7379 1385.2027,-125.6828 1394.5571,-130.6571 1395.6175,-123.7379"/>
</g>
<!-- Node55&#45;&gt;Node31 -->
<g id="edge132" class="edge">
<title>Node55&#45;&gt;Node31</title>
<path fill="none" stroke="#191970" d="M2273.3963,-168.2455C2287.7987,-159.5731 2309.0701,-146.7645 2325.5769,-136.825"/>
<polygon fill="#191970" stroke="#191970" points="2327.4219,-139.7996 2334.1832,-131.6427 2323.8109,-133.8028 2327.4219,-139.7996"/>
</g>
<!-- Node56 -->
<g id="node57" class="node">
<title>Node56</title>
<polygon fill="#ffffff" stroke="#bfbfbf" points="2183.1969,-112.5 2183.1969,-131.5 2229.1969,-131.5 2229.1969,-112.5 2183.1969,-112.5"/>
<text text-anchor="middle" x="2206.1969" y="-119.5" font-family="Helvetica,sans-Serif" font-size="10.00" fill="#000000">cstdint</text>
</g>
<!-- Node55&#45;&gt;Node56 -->
<g id="edge136" class="edge">
<title>Node55&#45;&gt;Node56</title>
<path fill="none" stroke="#191970" d="M2248.3134,-168.2455C2241.0003,-160.2155 2230.4578,-148.6394 2221.7502,-139.0781"/>
<polygon fill="#191970" stroke="#191970" points="2224.2997,-136.6795 2214.9786,-131.6427 2219.1243,-141.3928 2224.2997,-136.6795"/>
</g>
<!-- Node58&#45;&gt;Node10 -->
<g id="edge142" class="edge">
<title>Node58&#45;&gt;Node10</title>
<path fill="none" stroke="#191970" d="M2701.1969,-571.4116C2701.1969,-552.0538 2701.1969,-506.9167 2701.1969,-469 2701.1969,-469 2701.1969,-469 2701.1969,-122 2701.1969,-111.0655 2874.6328,-134.6332 2540.1969,-56 2425.8065,-29.1043 2058.2754,-14.7489 1949.0736,-11.0029"/>
<polygon fill="#191970" stroke="#191970" points="1948.8698,-7.4941 1938.7574,-10.6544 1948.6335,-14.4901 1948.8698,-7.4941"/>
</g>
<!-- Node58&#45;&gt;Node31 -->
<g id="edge140" class="edge">
<title>Node58&#45;&gt;Node31</title>
<path fill="none" stroke="#191970" d="M2698.0766,-571.1636C2695.1595,-561.8728 2690.7346,-547.5328 2687.1969,-535 2648.3951,-397.538 2689.6753,-339.8997 2606.1969,-224 2579.5396,-186.9895 2561.8306,-186.6287 2520.1969,-168 2485.6728,-152.5524 2444.8193,-141.2929 2411.8147,-133.7811"/>
<polygon fill="#191970" stroke="#191970" points="2412.3601,-130.3171 2401.8395,-131.5696 2410.8449,-137.1512 2412.3601,-130.3171"/>
</g>
<!-- Node58&#45;&gt;Node48 -->
<g id="edge141" class="edge">
<title>Node58&#45;&gt;Node48</title>
<path fill="none" stroke="#191970" d="M2664.9247,-571.3733C2629.2311,-561.9001 2574.609,-547.4032 2535.9518,-537.1435"/>
<polygon fill="#191970" stroke="#191970" points="2536.559,-533.6835 2525.9958,-534.5011 2534.7633,-540.4493 2536.559,-533.6835"/>
</g>
<!-- Node59&#45;&gt;Node30 -->
<g id="edge145" class="edge">
<title>Node59&#45;&gt;Node30</title>
<path fill="none" stroke="#191970" d="M2527.6125,-403.1955C2516.2566,-378.6482 2486.3576,-312.3948 2467.1969,-255 2460.7916,-235.8134 2455.1695,-213.379 2451.5308,-197.6922"/>
<polygon fill="#191970" stroke="#191970" points="2454.8691,-196.5865 2449.2489,-187.6052 2448.0417,-198.131 2454.8691,-196.5865"/>
</g>
</g>
</svg>
