<?xml version="1.0" encoding="UTF-8" standalone="no"?>
<!DOCTYPE svg PUBLIC "-//W3C//DTD SVG 1.1//EN"
 "http://www.w3.org/Graphics/SVG/1.1/DTD/svg11.dtd">
<!-- Generated by graphviz version 2.40.1 (0)
 -->
<!-- Title: /home/tcbuilder/buildAgent/work/df8e8cce5bebfd58/libajantv2/ajabase/system/bm/lockimpl.cpp Pages: 1 -->
<!--zoomable 330 -->
<svg id="main" version="1.1" xmlns="http://www.w3.org/2000/svg" xmlns:xlink="http://www.w3.org/1999/xlink" xml:space="preserve" onload="init(evt)">
<style type="text/css"><![CDATA[
.edge:hover path { stroke: red; }
.edge:hover polygon { stroke: red; fill: red; }
]]></style>
<script type="text/javascript"><![CDATA[
var edges = document.getElementsByTagName('g');
if (edges && edges.length) {
  for (var i=0;i<edges.length;i++) {
    if (edges[i].id.substr(0,4)=='edge') {
      edges[i].setAttribute('class','edge');
    }
  }
}
]]></script>
        <defs>
                <circle id="rim" cx="0" cy="0" r="7"/>
                <circle id="rim2" cx="0" cy="0" r="3.5"/>
                <g id="zoomPlus">
                        <use xlink:href="#rim" fill="#404040">
                                <set attributeName="fill" to="#808080" begin="zoomplus.mouseover" end="zoomplus.mouseout"/>
                        </use>
                        <path d="M-4,0h8M0,-4v8" fill="none" stroke="white" stroke-width="1.5" pointer-events="none"/>
                </g>
                <g id="zoomMin">
                        <use xlink:href="#rim" fill="#404040">
                                <set attributeName="fill" to="#808080" begin="zoomminus.mouseover" end="zoomminus.mouseout"/>
                        </use>
                        <path d="M-4,0h8" fill="none" stroke="white" stroke-width="1.5" pointer-events="none"/>
                </g>
                <g id="dirArrow">
                        <path fill="none" stroke="white" stroke-width="1.5" d="M0,-3.0v7 M-2.5,-0.5L0,-3.0L2.5,-0.5"/>
                </g>
               <g id="resetDef">
                       <use xlink:href="#rim2" fill="#404040">
                               <set attributeName="fill" to="#808080" begin="reset.mouseover" end="reset.mouseout"/>
                       </use>
               </g>
        </defs>

<script type="text/javascript">
var viewWidth = 755;
var viewHeight = 330;
var sectionId = 'dynsection-0';
</script>
<script xlink:href="../../svgpan.js"/>
<svg id="graph" class="graph">
<g id="viewport">
<title>/home/tcbuilder/buildAgent/work/df8e8cce5bebfd58/libajantv2/ajabase/system/bm/lockimpl.cpp</title>
<polygon fill="#ffffff" stroke="transparent" points="-4,4 -4,-326 750.5,-326 750.5,4 -4,4"/>
<!-- Node0 -->
<g id="node1" class="node">
<title>Node0</title>
<polygon fill="#bfbfbf" stroke="#000000" points="350,-280.5 350,-321.5 517,-321.5 517,-280.5 350,-280.5"/>
<text text-anchor="start" x="358" y="-309.5" font-family="Helvetica,sans-Serif" font-size="10.00" fill="#000000">/home/tcbuilder/buildAgent</text>
<text text-anchor="start" x="358" y="-298.5" font-family="Helvetica,sans-Serif" font-size="10.00" fill="#000000">/work/df8e8cce5bebfd58/libajantv2</text>
<text text-anchor="middle" x="433.5" y="-287.5" font-family="Helvetica,sans-Serif" font-size="10.00" fill="#000000">/ajabase/system/bm/lockimpl.cpp</text>
</g>
<!-- Node1 -->
<g id="node2" class="node">
<title>Node1</title>
<g id="a_node2"><a xlink:href="../../de/d60/bm_2lockimpl_8h.html" target="_top" xlink:title="ajabase/system/bm/lockimpl.h">
<polygon fill="#ffffff" stroke="#000000" points="234,-224.5 234,-243.5 383,-243.5 383,-224.5 234,-224.5"/>
<text text-anchor="middle" x="308.5" y="-231.5" font-family="Helvetica,sans-Serif" font-size="10.00" fill="#000000">ajabase/system/bm/lockimpl.h</text>
</a>
</g>
</g>
<!-- Node0&#45;&gt;Node1 -->
<g id="edge1" class="edge">
<title>Node0&#45;&gt;Node1</title>
<path fill="none" stroke="#191970" d="M394.9759,-280.3511C375.7287,-270.0346 352.9059,-257.8015 335.5408,-248.4939"/>
<polygon fill="#191970" stroke="#191970" points="336.9796,-245.294 326.5124,-243.6546 333.6727,-251.4637 336.9796,-245.294"/>
</g>
<!-- Node17 -->
<g id="node18" class="node">
<title>Node17</title>
<g id="a_node18"><a xlink:href="../../db/d16/debug_8h.html" target="_top" xlink:title="Declares the AJADebug class. ">
<polygon fill="#ffffff" stroke="#000000" points="414,-168.5 414,-187.5 537,-187.5 537,-168.5 414,-168.5"/>
<text text-anchor="middle" x="475.5" y="-175.5" font-family="Helvetica,sans-Serif" font-size="10.00" fill="#000000">ajabase/system/debug.h</text>
</a>
</g>
</g>
<!-- Node0&#45;&gt;Node17 -->
<g id="edge21" class="edge">
<title>Node0&#45;&gt;Node17</title>
<path fill="none" stroke="#191970" d="M437.7175,-280.4088C441.2027,-264.7102 446.678,-242.6822 453.5,-224 456.8676,-214.7777 461.4464,-204.9125 465.555,-196.6924"/>
<polygon fill="#191970" stroke="#191970" points="468.7525,-198.1281 470.2202,-187.6354 462.5295,-194.9226 468.7525,-198.1281"/>
</g>
<!-- Node23 -->
<g id="node24" class="node">
<title>Node23</title>
<polygon fill="#ffffff" stroke="#bfbfbf" points="462,-224.5 462,-243.5 509,-243.5 509,-224.5 462,-224.5"/>
<text text-anchor="middle" x="485.5" y="-231.5" font-family="Helvetica,sans-Serif" font-size="10.00" fill="#000000">errno.h</text>
</g>
<!-- Node0&#45;&gt;Node23 -->
<g id="edge32" class="edge">
<title>Node0&#45;&gt;Node23</title>
<path fill="none" stroke="#191970" d="M449.6681,-280.168C456.734,-271.0639 464.936,-260.4959 471.7084,-251.7699"/>
<polygon fill="#191970" stroke="#191970" points="474.5429,-253.8263 477.9092,-243.7805 469.0129,-249.5344 474.5429,-253.8263"/>
</g>
<!-- Node2 -->
<g id="node3" class="node">
<title>Node2</title>
<polygon fill="#ffffff" stroke="#bfbfbf" points="280,-168.5 280,-187.5 337,-187.5 337,-168.5 280,-168.5"/>
<text text-anchor="middle" x="308.5" y="-175.5" font-family="Helvetica,sans-Serif" font-size="10.00" fill="#000000">pthread.h</text>
</g>
<!-- Node1&#45;&gt;Node2 -->
<g id="edge2" class="edge">
<title>Node1&#45;&gt;Node2</title>
<path fill="none" stroke="#191970" d="M308.5,-224.2455C308.5,-216.9382 308.5,-206.6944 308.5,-197.7046"/>
<polygon fill="#191970" stroke="#191970" points="312.0001,-197.6426 308.5,-187.6427 305.0001,-197.6427 312.0001,-197.6426"/>
</g>
<!-- Node3 -->
<g id="node4" class="node">
<title>Node3</title>
<g id="a_node4"><a xlink:href="../../dc/db2/system_8h.html" target="_top" xlink:title="System specific functions. ">
<polygon fill="#ffffff" stroke="#000000" points="133,-168.5 133,-187.5 262,-187.5 262,-168.5 133,-168.5"/>
<text text-anchor="middle" x="197.5" y="-175.5" font-family="Helvetica,sans-Serif" font-size="10.00" fill="#000000">ajabase/system/system.h</text>
</a>
</g>
</g>
<!-- Node1&#45;&gt;Node3 -->
<g id="edge3" class="edge">
<title>Node1&#45;&gt;Node3</title>
<path fill="none" stroke="#191970" d="M289.4184,-224.3733C271.7598,-215.4644 245.2947,-202.1127 225.2902,-192.0203"/>
<polygon fill="#191970" stroke="#191970" points="226.8372,-188.8806 216.3326,-187.5011 223.6842,-195.1303 226.8372,-188.8806"/>
</g>
<!-- Node12 -->
<g id="node13" class="node">
<title>Node12</title>
<g id="a_node13"><a xlink:href="../../dc/d54/common_8h.html" target="_top" xlink:title="Private include file for all ajabase sources. ">
<polygon fill="#ffffff" stroke="#000000" points="263.5,-112.5 263.5,-131.5 403.5,-131.5 403.5,-112.5 263.5,-112.5"/>
<text text-anchor="middle" x="333.5" y="-119.5" font-family="Helvetica,sans-Serif" font-size="10.00" fill="#000000">ajabase/common/common.h</text>
</a>
</g>
</g>
<!-- Node1&#45;&gt;Node12 -->
<g id="edge12" class="edge">
<title>Node1&#45;&gt;Node12</title>
<path fill="none" stroke="#191970" d="M319.9453,-224.3916C329.0993,-215.901 341.2419,-202.6212 346.5,-188 351.9885,-172.7384 347.6964,-154.6122 342.6202,-141.2207"/>
<polygon fill="#191970" stroke="#191970" points="345.6828,-139.478 338.5529,-131.6412 339.2395,-142.2137 345.6828,-139.478"/>
</g>
<!-- Node15 -->
<g id="node16" class="node">
<title>Node15</title>
<g id="a_node16"><a xlink:href="../../dd/d42/lock_8h.html" target="_top" xlink:title="Declares the AJALock class. ">
<polygon fill="#ffffff" stroke="#000000" points="0,-168.5 0,-187.5 115,-187.5 115,-168.5 0,-168.5"/>
<text text-anchor="middle" x="57.5" y="-175.5" font-family="Helvetica,sans-Serif" font-size="10.00" fill="#000000">ajabase/system/lock.h</text>
</a>
</g>
</g>
<!-- Node1&#45;&gt;Node15 -->
<g id="edge18" class="edge">
<title>Node1&#45;&gt;Node15</title>
<path fill="none" stroke="#191970" d="M265.6368,-224.4369C222.5898,-214.8328 156.1927,-200.0191 110.009,-189.7152"/>
<polygon fill="#191970" stroke="#191970" points="110.7087,-186.2853 100.1865,-187.5237 109.1843,-193.1173 110.7087,-186.2853"/>
</g>
<!-- Node4 -->
<g id="node5" class="node">
<title>Node4</title>
<g id="a_node5"><a xlink:href="../../d4/d79/public_8h.html" target="_top" xlink:title="Master header for the ajabase library. ">
<polygon fill="#ffffff" stroke="#000000" points="117.5,-112.5 117.5,-131.5 245.5,-131.5 245.5,-112.5 117.5,-112.5"/>
<text text-anchor="middle" x="181.5" y="-119.5" font-family="Helvetica,sans-Serif" font-size="10.00" fill="#000000">ajabase/common/public.h</text>
</a>
</g>
</g>
<!-- Node3&#45;&gt;Node4 -->
<g id="edge4" class="edge">
<title>Node3&#45;&gt;Node4</title>
<path fill="none" stroke="#191970" d="M194.713,-168.2455C192.6023,-160.8579 189.634,-150.4689 187.0453,-141.4087"/>
<polygon fill="#191970" stroke="#191970" points="190.3677,-140.2964 184.255,-131.6427 183.637,-142.2195 190.3677,-140.2964"/>
</g>
<!-- Node5 -->
<g id="node6" class="node">
<title>Node5</title>
<g id="a_node6"><a xlink:href="../../db/db5/export_8h.html" target="_top" xlink:title="Declares system&#45;dependent import/export macros and libraries. ">
<polygon fill="#ffffff" stroke="#000000" points="245,-56.5 245,-75.5 374,-75.5 374,-56.5 245,-56.5"/>
<text text-anchor="middle" x="309.5" y="-63.5" font-family="Helvetica,sans-Serif" font-size="10.00" fill="#000000">ajabase/common/export.h</text>
</a>
</g>
</g>
<!-- Node4&#45;&gt;Node5 -->
<g id="edge5" class="edge">
<title>Node4&#45;&gt;Node5</title>
<path fill="none" stroke="#191970" d="M203.504,-112.3733C224.1435,-103.3435 255.2158,-89.7494 278.3889,-79.6111"/>
<polygon fill="#191970" stroke="#191970" points="280.0245,-82.7159 287.7831,-75.5011 277.2187,-76.3028 280.0245,-82.7159"/>
</g>
<!-- Node6 -->
<g id="node7" class="node">
<title>Node6</title>
<polygon fill="#ffffff" stroke="#bfbfbf" points="457,-56.5 457,-75.5 498,-75.5 498,-56.5 457,-56.5"/>
<text text-anchor="middle" x="477.5" y="-63.5" font-family="Helvetica,sans-Serif" font-size="10.00" fill="#000000">string</text>
</g>
<!-- Node4&#45;&gt;Node6 -->
<g id="edge6" class="edge">
<title>Node4&#45;&gt;Node6</title>
<path fill="none" stroke="#191970" d="M243.0261,-112.4606C304.87,-102.6886 396.9465,-87.5963 447.1971,-75.7072"/>
<polygon fill="#191970" stroke="#191970" points="448.0928,-79.0912 456.9637,-73.2983 446.4165,-72.2949 448.0928,-79.0912"/>
</g>
<!-- Node7 -->
<g id="node8" class="node">
<title>Node7</title>
<polygon fill="#ffffff" stroke="#bfbfbf" points="0,-56.5 0,-75.5 29,-75.5 29,-56.5 0,-56.5"/>
<text text-anchor="middle" x="14.5" y="-63.5" font-family="Helvetica,sans-Serif" font-size="10.00" fill="#000000">list</text>
</g>
<!-- Node4&#45;&gt;Node7 -->
<g id="edge7" class="edge">
<title>Node4&#45;&gt;Node7</title>
<path fill="none" stroke="#191970" d="M148.2897,-112.4304C120.9014,-104.3097 80.9002,-91.9266 38.4013,-76.1091"/>
<polygon fill="#191970" stroke="#191970" points="39.6018,-72.8213 29.0098,-72.5721 37.1346,-79.3721 39.6018,-72.8213"/>
</g>
<!-- Node8 -->
<g id="node9" class="node">
<title>Node8</title>
<polygon fill="#ffffff" stroke="#bfbfbf" points="516.5,-56.5 516.5,-75.5 560.5,-75.5 560.5,-56.5 516.5,-56.5"/>
<text text-anchor="middle" x="538.5" y="-63.5" font-family="Helvetica,sans-Serif" font-size="10.00" fill="#000000">vector</text>
</g>
<!-- Node4&#45;&gt;Node8 -->
<g id="edge8" class="edge">
<title>Node4&#45;&gt;Node8</title>
<path fill="none" stroke="#191970" d="M245.8827,-113.0566C328.8741,-101.5105 466.5293,-82.2933 506.3253,-75.5547"/>
<polygon fill="#191970" stroke="#191970" points="507.1008,-78.9702 516.2769,-73.6739 505.8009,-72.0919 507.1008,-78.9702"/>
</g>
<!-- Node9 -->
<g id="node10" class="node">
<title>Node9</title>
<polygon fill="#ffffff" stroke="#bfbfbf" points="47,-56.5 47,-75.5 82,-75.5 82,-56.5 47,-56.5"/>
<text text-anchor="middle" x="64.5" y="-63.5" font-family="Helvetica,sans-Serif" font-size="10.00" fill="#000000">map</text>
</g>
<!-- Node4&#45;&gt;Node9 -->
<g id="edge9" class="edge">
<title>Node4&#45;&gt;Node9</title>
<path fill="none" stroke="#191970" d="M161.387,-112.3733C142.0098,-103.0987 112.5722,-89.0089 91.231,-78.7943"/>
<polygon fill="#191970" stroke="#191970" points="92.5917,-75.5654 82.0606,-74.4051 89.5696,-81.8794 92.5917,-75.5654"/>
</g>
<!-- Node10 -->
<g id="node11" class="node">
<title>Node10</title>
<g id="a_node11"><a xlink:href="../../d9/d49/types_8h.html" target="_top" xlink:title="Declares common types used in the ajabase library. ">
<polygon fill="#ffffff" stroke="#000000" points="100.5,-56.5 100.5,-75.5 226.5,-75.5 226.5,-56.5 100.5,-56.5"/>
<text text-anchor="middle" x="163.5" y="-63.5" font-family="Helvetica,sans-Serif" font-size="10.00" fill="#000000">ajabase/common/types.h</text>
</a>
</g>
</g>
<!-- Node4&#45;&gt;Node10 -->
<g id="edge10" class="edge">
<title>Node4&#45;&gt;Node10</title>
<path fill="none" stroke="#191970" d="M178.3646,-112.2455C175.99,-104.8579 172.6507,-94.4689 169.7385,-85.4087"/>
<polygon fill="#191970" stroke="#191970" points="172.9917,-84.0919 166.5994,-75.6427 166.3275,-86.234 172.9917,-84.0919"/>
</g>
<!-- Node11 -->
<g id="node12" class="node">
<title>Node11</title>
<g id="a_node12"><a xlink:href="../../db/d40/ntv2deprecate_8h.html" target="_top" xlink:title="Deprecation control macros. ">
<polygon fill="#ffffff" stroke="#000000" points="120.5,-.5 120.5,-19.5 206.5,-19.5 206.5,-.5 120.5,-.5"/>
<text text-anchor="middle" x="163.5" y="-7.5" font-family="Helvetica,sans-Serif" font-size="10.00" fill="#000000">ntv2deprecate.h</text>
</a>
</g>
</g>
<!-- Node10&#45;&gt;Node11 -->
<g id="edge11" class="edge">
<title>Node10&#45;&gt;Node11</title>
<path fill="none" stroke="#191970" d="M163.5,-56.2455C163.5,-48.9382 163.5,-38.6944 163.5,-29.7046"/>
<polygon fill="#191970" stroke="#191970" points="167.0001,-29.6426 163.5,-19.6427 160.0001,-29.6427 167.0001,-29.6426"/>
</g>
<!-- Node12&#45;&gt;Node5 -->
<g id="edge13" class="edge">
<title>Node12&#45;&gt;Node5</title>
<path fill="none" stroke="#191970" d="M329.3195,-112.2455C326.119,-104.7776 321.604,-94.2427 317.6916,-85.1137"/>
<polygon fill="#191970" stroke="#191970" points="320.7888,-83.4554 313.6326,-75.6427 314.3548,-86.2129 320.7888,-83.4554"/>
</g>
<!-- Node12&#45;&gt;Node6 -->
<g id="edge15" class="edge">
<title>Node12&#45;&gt;Node6</title>
<path fill="none" stroke="#191970" d="M358.2545,-112.3733C382.9257,-102.7789 420.8476,-88.0315 447.2809,-77.7519"/>
<polygon fill="#191970" stroke="#191970" points="448.7462,-80.9374 456.7977,-74.0509 446.209,-74.4134 448.7462,-80.9374"/>
</g>
<!-- Node12&#45;&gt;Node8 -->
<g id="edge16" class="edge">
<title>Node12&#45;&gt;Node8</title>
<path fill="none" stroke="#191970" d="M372.0218,-112.447C405.3175,-104.0494 454.9357,-91.2011 506.5382,-76.1824"/>
<polygon fill="#191970" stroke="#191970" points="507.5808,-79.5242 516.1931,-73.3535 505.6124,-72.8066 507.5808,-79.5242"/>
</g>
<!-- Node13 -->
<g id="node14" class="node">
<title>Node13</title>
<polygon fill="#ffffff" stroke="#bfbfbf" points="716.5,-56.5 716.5,-75.5 746.5,-75.5 746.5,-56.5 716.5,-56.5"/>
<text text-anchor="middle" x="731.5" y="-63.5" font-family="Helvetica,sans-Serif" font-size="10.00" fill="#000000">set</text>
</g>
<!-- Node12&#45;&gt;Node13 -->
<g id="edge14" class="edge">
<title>Node12&#45;&gt;Node13</title>
<path fill="none" stroke="#191970" d="M403.7092,-113.0962C406.679,-112.7248 409.619,-112.3581 412.5,-112 540.3749,-96.1042 577.9668,-109.0492 706.6474,-75.5908"/>
<polygon fill="#191970" stroke="#191970" points="707.709,-78.9304 716.4821,-72.9905 705.9196,-72.163 707.709,-78.9304"/>
</g>
<!-- Node14 -->
<g id="node15" class="node">
<title>Node14</title>
<polygon fill="#ffffff" stroke="#bfbfbf" points="392.5,-56.5 392.5,-75.5 438.5,-75.5 438.5,-56.5 392.5,-56.5"/>
<text text-anchor="middle" x="415.5" y="-63.5" font-family="Helvetica,sans-Serif" font-size="10.00" fill="#000000">cstdint</text>
</g>
<!-- Node12&#45;&gt;Node14 -->
<g id="edge17" class="edge">
<title>Node12&#45;&gt;Node14</title>
<path fill="none" stroke="#191970" d="M347.7833,-112.2455C360.247,-103.7337 378.5451,-91.2375 392.9792,-81.3801"/>
<polygon fill="#191970" stroke="#191970" points="395.0962,-84.1726 401.3804,-75.6427 391.1485,-78.392 395.0962,-84.1726"/>
</g>
<!-- Node15&#45;&gt;Node4 -->
<g id="edge19" class="edge">
<title>Node15&#45;&gt;Node4</title>
<path fill="none" stroke="#191970" d="M78.8164,-168.3733C98.7216,-159.3838 128.6436,-145.8706 151.06,-135.7471"/>
<polygon fill="#191970" stroke="#191970" points="152.7887,-138.8068 160.4618,-131.5011 149.9075,-132.4272 152.7887,-138.8068"/>
</g>
<!-- Node16 -->
<g id="node17" class="node">
<title>Node16</title>
<polygon fill="#ffffff" stroke="#bfbfbf" points="31.5,-112.5 31.5,-131.5 83.5,-131.5 83.5,-112.5 31.5,-112.5"/>
<text text-anchor="middle" x="57.5" y="-119.5" font-family="Helvetica,sans-Serif" font-size="10.00" fill="#000000">assert.h</text>
</g>
<!-- Node15&#45;&gt;Node16 -->
<g id="edge20" class="edge">
<title>Node15&#45;&gt;Node16</title>
<path fill="none" stroke="#191970" d="M57.5,-168.2455C57.5,-160.9382 57.5,-150.6944 57.5,-141.7046"/>
<polygon fill="#191970" stroke="#191970" points="61.0001,-141.6426 57.5,-131.6427 54.0001,-141.6427 61.0001,-141.6426"/>
</g>
<!-- Node17&#45;&gt;Node4 -->
<g id="edge25" class="edge">
<title>Node17&#45;&gt;Node4</title>
<path fill="none" stroke="#191970" d="M425.2937,-168.4369C374.4493,-158.7522 295.794,-143.7703 241.6487,-133.4569"/>
<polygon fill="#191970" stroke="#191970" points="241.9776,-129.9567 231.4993,-131.5237 240.6677,-136.8331 241.9776,-129.9567"/>
</g>
<!-- Node17&#45;&gt;Node13 -->
<g id="edge24" class="edge">
<title>Node17&#45;&gt;Node13</title>
<path fill="none" stroke="#191970" d="M537.197,-173.2742C598.6546,-167.3285 687.3769,-154.9905 712.5,-132 725.2575,-120.3254 729.6582,-100.6958 731.0762,-85.8717"/>
<polygon fill="#191970" stroke="#191970" points="734.5821,-85.8699 731.6682,-75.6836 727.5939,-85.4637 734.5821,-85.8699"/>
</g>
<!-- Node18 -->
<g id="node19" class="node">
<title>Node18</title>
<polygon fill="#ffffff" stroke="#bfbfbf" points="421.5,-112.5 421.5,-131.5 467.5,-131.5 467.5,-112.5 421.5,-112.5"/>
<text text-anchor="middle" x="444.5" y="-119.5" font-family="Helvetica,sans-Serif" font-size="10.00" fill="#000000">stdio.h</text>
</g>
<!-- Node17&#45;&gt;Node18 -->
<g id="edge22" class="edge">
<title>Node17&#45;&gt;Node18</title>
<path fill="none" stroke="#191970" d="M470.1002,-168.2455C465.8773,-160.617 459.8827,-149.7881 454.7559,-140.5267"/>
<polygon fill="#191970" stroke="#191970" points="457.7432,-138.6965 449.8379,-131.6427 451.619,-142.0867 457.7432,-138.6965"/>
</g>
<!-- Node19 -->
<g id="node20" class="node">
<title>Node19</title>
<polygon fill="#ffffff" stroke="#bfbfbf" points="485.5,-112.5 485.5,-131.5 537.5,-131.5 537.5,-112.5 485.5,-112.5"/>
<text text-anchor="middle" x="511.5" y="-119.5" font-family="Helvetica,sans-Serif" font-size="10.00" fill="#000000">sstream</text>
</g>
<!-- Node17&#45;&gt;Node19 -->
<g id="edge23" class="edge">
<title>Node17&#45;&gt;Node19</title>
<path fill="none" stroke="#191970" d="M481.7707,-168.2455C486.7264,-160.5367 493.783,-149.5598 499.7776,-140.2348"/>
<polygon fill="#191970" stroke="#191970" points="502.8376,-141.9471 505.3011,-131.6427 496.9494,-138.1618 502.8376,-141.9471"/>
</g>
<!-- Node20 -->
<g id="node21" class="node">
<title>Node20</title>
<g id="a_node21"><a xlink:href="../../d0/db4/debugshare_8h.html" target="_top" xlink:title="Declares the constants used for sharing debug messages. These structures are used to gather debug mes...">
<polygon fill="#ffffff" stroke="#000000" points="556,-112.5 556,-131.5 703,-131.5 703,-112.5 556,-112.5"/>
<text text-anchor="middle" x="629.5" y="-119.5" font-family="Helvetica,sans-Serif" font-size="10.00" fill="#000000">ajabase/system/debugshare.h</text>
</a>
</g>
</g>
<!-- Node17&#45;&gt;Node20 -->
<g id="edge26" class="edge">
<title>Node17&#45;&gt;Node20</title>
<path fill="none" stroke="#191970" d="M501.9735,-168.3733C527.3597,-159.1419 565.8645,-145.1402 593.922,-134.9375"/>
<polygon fill="#191970" stroke="#191970" points="595.1701,-138.2079 603.3719,-131.5011 592.7778,-131.6293 595.1701,-138.2079"/>
</g>
<!-- Node20&#45;&gt;Node5 -->
<g id="edge27" class="edge">
<title>Node20&#45;&gt;Node5</title>
<path fill="none" stroke="#191970" d="M574.8536,-112.4369C519.1677,-102.6918 432.8325,-87.5832 373.8684,-77.2645"/>
<polygon fill="#191970" stroke="#191970" points="374.3746,-73.7999 363.921,-75.5237 373.1679,-80.6952 374.3746,-73.7999"/>
</g>
<!-- Node20&#45;&gt;Node6 -->
<g id="edge30" class="edge">
<title>Node20&#45;&gt;Node6</title>
<path fill="none" stroke="#191970" d="M603.3703,-112.3733C576.9113,-102.6252 536.0139,-87.5578 508.0667,-77.2614"/>
<polygon fill="#191970" stroke="#191970" points="509.0004,-73.8755 498.4069,-73.7026 506.5804,-80.4439 509.0004,-73.8755"/>
</g>
<!-- Node20&#45;&gt;Node8 -->
<g id="edge31" class="edge">
<title>Node20&#45;&gt;Node8</title>
<path fill="none" stroke="#191970" d="M613.649,-112.2455C599.6868,-103.6534 579.1272,-91.0014 563.0404,-81.1018"/>
<polygon fill="#191970" stroke="#191970" points="564.5203,-77.9029 554.1693,-75.6427 560.8516,-83.8645 564.5203,-77.9029"/>
</g>
<!-- Node21 -->
<g id="node22" class="node">
<title>Node21</title>
<polygon fill="#ffffff" stroke="#bfbfbf" points="578.5,-56.5 578.5,-75.5 630.5,-75.5 630.5,-56.5 578.5,-56.5"/>
<text text-anchor="middle" x="604.5" y="-63.5" font-family="Helvetica,sans-Serif" font-size="10.00" fill="#000000">stddef.h</text>
</g>
<!-- Node20&#45;&gt;Node21 -->
<g id="edge28" class="edge">
<title>Node20&#45;&gt;Node21</title>
<path fill="none" stroke="#191970" d="M625.1453,-112.2455C621.7756,-104.6973 617.007,-94.0158 612.9017,-84.8197"/>
<polygon fill="#191970" stroke="#191970" points="616.0773,-83.3473 608.8048,-75.6427 609.6853,-86.2009 616.0773,-83.3473"/>
</g>
<!-- Node22 -->
<g id="node23" class="node">
<title>Node22</title>
<polygon fill="#ffffff" stroke="#bfbfbf" points="649,-56.5 649,-75.5 698,-75.5 698,-56.5 649,-56.5"/>
<text text-anchor="middle" x="673.5" y="-63.5" font-family="Helvetica,sans-Serif" font-size="10.00" fill="#000000">stdint.h</text>
</g>
<!-- Node20&#45;&gt;Node22 -->
<g id="edge29" class="edge">
<title>Node20&#45;&gt;Node22</title>
<path fill="none" stroke="#191970" d="M637.1642,-112.2455C643.3473,-104.3761 652.2063,-93.101 659.6289,-83.6542"/>
<polygon fill="#191970" stroke="#191970" points="662.4975,-85.6683 665.9236,-75.6427 656.9932,-81.3435 662.4975,-85.6683"/>
</g>
</g>
</svg>
        <g id="navigator" transform="translate(0 0)" fill="#404254">
                <rect fill="#f2f5e9" fill-opacity="0.5" stroke="#606060" stroke-width=".5" x="0" y="0" width="60" height="60"/>
                <use id="zoomplus" xlink:href="#zoomPlus" x="17" y="9" onmousedown="handleZoom(evt,'in')"/>
                <use id="zoomminus" xlink:href="#zoomMin" x="42" y="9" onmousedown="handleZoom(evt,'out')"/>
                <use id="reset" xlink:href="#resetDef" x="30" y="36" onmousedown="handleReset()"/>
                <g id="arrowUp" xlink:href="#dirArrow" transform="translate(30 24)" onmousedown="handlePan(0,-1)">
                  <use xlink:href="#rim" fill="#404040">
                        <set attributeName="fill" to="#808080" begin="arrowUp.mouseover" end="arrowUp.mouseout"/>
                  </use>
                  <path fill="none" stroke="white" stroke-width="1.5" d="M0,-3.0v7 M-2.5,-0.5L0,-3.0L2.5,-0.5"/>
                </g>
                <g id="arrowRight" xlink:href="#dirArrow" transform="rotate(90) translate(36 -43)" onmousedown="handlePan(1,0)">
                  <use xlink:href="#rim" fill="#404040">
                        <set attributeName="fill" to="#808080" begin="arrowRight.mouseover" end="arrowRight.mouseout"/>
                  </use>
                  <path fill="none" stroke="white" stroke-width="1.5" d="M0,-3.0v7 M-2.5,-0.5L0,-3.0L2.5,-0.5"/>
                </g>
                <g id="arrowDown" xlink:href="#dirArrow" transform="rotate(180) translate(-30 -48)" onmousedown="handlePan(0,1)">
                  <use xlink:href="#rim" fill="#404040">
                        <set attributeName="fill" to="#808080" begin="arrowDown.mouseover" end="arrowDown.mouseout"/>
                  </use>
                  <path fill="none" stroke="white" stroke-width="1.5" d="M0,-3.0v7 M-2.5,-0.5L0,-3.0L2.5,-0.5"/>
                </g>
                <g id="arrowLeft" xlink:href="#dirArrow" transform="rotate(270) translate(-36 17)" onmousedown="handlePan(-1,0)">
                  <use xlink:href="#rim" fill="#404040">
                        <set attributeName="fill" to="#808080" begin="arrowLeft.mouseover" end="arrowLeft.mouseout"/>
                  </use>
                  <path fill="none" stroke="white" stroke-width="1.5" d="M0,-3.0v7 M-2.5,-0.5L0,-3.0L2.5,-0.5"/>
                </g>
        </g>
        <svg viewBox="0 0 15 15" width="100%" height="30px" preserveAspectRatio="xMaxYMin meet">
         <g id="arrow_out" transform="scale(0.3 0.3)">
          <a xlink:href="bm_2lockimpl_8cpp__incl_org.svg" target="_base">
           <rect id="button" ry="5" rx="5" y="6" x="6" height="38" width="38"
                fill="#f2f5e9" fill-opacity="0.5" stroke="#606060" stroke-width="1.0"/>
           <path id="arrow"
             d="M 11.500037,31.436501 C 11.940474,20.09759 22.043105,11.32322 32.158766,21.979434 L 37.068811,17.246167 C 37.068811,17.246167 37.088388,32 37.088388,32 L 22.160133,31.978069 C 22.160133,31.978069 26.997745,27.140456 26.997745,27.140456 C 18.528582,18.264221 13.291696,25.230495 11.500037,31.436501 z"
             style="fill:#404040;"/>
          </a>
         </g>
        </svg>
</svg>
